<?xml version="1.0" encoding="UTF-8"?>
<!-- Created with Inkscape (http://www.inkscape.org/) -->
<svg xmlns:dc="http://purl.org/dc/elements/1.1/" xmlns:cc="http://creativecommons.org/ns#" xmlns:rdf="http://www.w3.org/1999/02/22-rdf-syntax-ns#" xmlns:svg="http://www.w3.org/2000/svg" xmlns="http://www.w3.org/2000/svg" xmlns:inkscape="http://www.inkscape.org/namespaces/inkscape" version="1.1" width="765" height="990" id="svg2" xml:space="preserve">
  <metadata id="metadata8">
    <rdf:RDF>
      <cc:Work rdf:about="">
        <dc:format>image/svg+xml</dc:format>
        <dc:type rdf:resource="http://purl.org/dc/dcmitype/StillImage"/>
      </cc:Work>
    </rdf:RDF>
  </metadata>
  <defs id="defs6"/>
  <g transform="matrix(1.25,0,0,-1.25,0,990)" id="g10">
    <g transform="scale(0.1,0.1)" id="g12">
      <path d="m 289.199,1045.2 40.801,-2.4 64.801,9.6 20.398,6 51.602,22.8 30,26.4 33.597,43.2 15.602,43.2 26.398,188.4 27.602,62.4 26.398,36 6,20.4 -6,6 -39.597,-32.4 -33.602,-60 -39.597,-164.4 -13.204,-63.6 -13.199,-19.2 -15.597,-22.8 -30,-22.8 L 402,1105.2 362.398,1098 306,1094.4 l -22.801,0 -43.199,7.2 -39.602,16.8 -45.597,39.6 -26.403,42 -9.597,63.6 -33.6018,154.8 -26.3984,58.8 -32.4024,37.2 -10.7968,0 0,-16.8 37.1992,-63.6 16.8008,-79.2 25.1992,-190.8 26.3982,-42 39.602,-36 43.199,-27.6 26.398,-6 56.403,-7.2" inkscape:connector-curvature="0" id="path14" style="stroke:#000000;stroke-width:8;stroke-miterlimit:4;stroke-dasharray:none;fill:none;stroke-opacity:1"/>
      <path d="m 672,870 -45.602,76.801 -67.199,75.599 -45.597,33.6 -32.403,22.8 -86.398,39.6 -108,42 -49.199,50.4 -16.801,49.2 6,62.4 20.398,26.4 22.801,22.8 39.602,16.8 32.398,0 30,-13.2 20.398,-20.4 9.602,-15.6 9.602,-20.4 0,-26.4 -13.204,-26.4 -13.199,-12 -30,-3.6 -19.199,3.6 -10.801,22.8 7.199,13.2" inkscape:connector-curvature="0" id="path16" style="stroke:#000000;stroke-width:8;stroke-miterlimit:4;stroke-dasharray:none;fill:none;stroke-opacity:1"/>
      <path d="m 358.801,1048.8 -9.602,-43.2" inkscape:connector-curvature="0" id="path18" style="stroke:#000000;stroke-width:8;stroke-miterlimit:4;stroke-dasharray:none;fill:none;stroke-opacity:1"/>
      <path d="m 276,1009.2 -2.398,39.6" inkscape:connector-curvature="0" id="path20" style="stroke:#000000;stroke-width:8;stroke-miterlimit:4;stroke-dasharray:none;fill:none;stroke-opacity:1"/>
      <path d="m 300,30 19.199,0 10.801,13.1992 15.602,15.6016 7.199,16.8008 9.597,33.5974 6,32.403 7.204,56.398 3.597,45.602 -3.597,37.199 L 372,330 l -3.602,52.801 -6,52.801 L 325.199,792" inkscape:connector-curvature="0" id="path22" style="stroke:#000000;stroke-width:8;stroke-miterlimit:4;stroke-dasharray:none;fill:none;stroke-opacity:1"/>
      <path d="m 292.801,792 46.801,0 22.796,6 9.602,9.602 9.602,16.796 7.199,22.801 3.597,20.403 6,20.398 6,12 7.204,10.801 16.796,15.597 19.204,13.204 13.199,7.199 10.801,3.597 6,2.403 3.597,7.199 0,9.602 -16.801,10.796 -36,8.403 -36,10.801 -69.597,5.998 -36,0 -60,-2.4 -26.403,-7.2 -39.597,-13.199 -26.403,-13.199 -2.398,-16.801 6,-6 20.398,-3.602 22.801,-13.199 15.602,-19.199 10.801,-13.199 13.199,-37.204 3.597,-26.398 6,-13.199 9.602,-13.199 13.199,-13.204 13.199,-2.398 20.403,0 -7.199,-36 -32.403,-339.602 -9.597,-103.199 -3.602,-52.801 3.602,-45.597 0,-43.199 12,-56.403 7.199,-32.3982 9.597,-20.4024 7.204,-16.7968 9.597,-9.6016 13.199,-3.6016" inkscape:connector-curvature="0" id="path24" style="stroke:#000000;stroke-width:8;stroke-miterlimit:4;stroke-dasharray:none;fill:none;stroke-opacity:1"/>
      <path d="m 904.801,397.199 0,-376.8006 80.398,0 0,376.8006 -80.398,0" inkscape:connector-curvature="0" id="path26" style="stroke:#000000;stroke-width:8;stroke-miterlimit:4;stroke-dasharray:none;fill:none;stroke-opacity:1"/>
      <path d="m 904.801,961.199 0,-380.398 80.398,0 0,380.398 -80.398,0" inkscape:connector-curvature="0" id="path28" style="stroke:#000000;stroke-width:8;stroke-miterlimit:4;stroke-dasharray:none;fill:none;stroke-opacity:1"/>
      <path d="m 904.801,1503.6 0,-380.4 80.398,0 0,380.4 -80.398,0" inkscape:connector-curvature="0" id="path30" style="stroke:#000000;stroke-width:8;stroke-miterlimit:4;stroke-dasharray:none;fill:none;stroke-opacity:1"/>
    </g>
  </g>
</svg>
