<?xml version="1.0" encoding="UTF-8"?>
<!-- Created with Inkscape (http://www.inkscape.org/) -->
<svg xmlns:dc="http://purl.org/dc/elements/1.1/" xmlns:cc="http://creativecommons.org/ns#" xmlns:rdf="http://www.w3.org/1999/02/22-rdf-syntax-ns#" xmlns:svg="http://www.w3.org/2000/svg" xmlns="http://www.w3.org/2000/svg" xmlns:inkscape="http://www.inkscape.org/namespaces/inkscape" version="1.1" width="765" height="990" id="svg2" xml:space="preserve">
  <metadata id="metadata8">
    <rdf:RDF>
      <cc:Work rdf:about="">
        <dc:format>image/svg+xml</dc:format>
        <dc:type rdf:resource="http://purl.org/dc/dcmitype/StillImage"/>
      </cc:Work>
    </rdf:RDF>
  </metadata>
  <defs id="defs6"/>
  <g transform="matrix(1.25,0,0,-1.25,0,990)" id="g10">
    <g transform="scale(0.1,0.1)" id="g12">
      <path d="m 1436.4,854.398 31.2,6 25.2,15.602 18,27.602 6,25.199 3.6,49.199 -9.6,24 -18,32.4 -19.2,12 -18,12 -46.8,6 -1285.198,0 -39.602,-6 -22.8008,-6 -18,-12 -18,-28.8 L 12,966 l 13.1992,-56.398 12,-18 24,-19.204 19.1992,-12 31.2036,-6 1318.798,0" inkscape:connector-curvature="0" id="path14" style="stroke:#000000;stroke-width:8;stroke-miterlimit:4;stroke-dasharray:none;fill:none;stroke-opacity:1"/>
      <path d="m 1446,344.398 32.4,6 24,15.602 18,27.602 7.2,25.199 2.4,49.199 -9.6,25.199 -18,31.199 -18,12 -19.2,12 -45.6,6 -1286.401,0 -39.5974,-6 L 72,543.602 52.8008,530.398 l -18,-27.597 -12,-46.801 12,-56.398 12,-18 25.1992,-18 18,-13.204 31.199,-6 1318.801,0" inkscape:connector-curvature="0" id="path16" style="stroke:#000000;stroke-width:8;stroke-miterlimit:4;stroke-dasharray:none;fill:none;stroke-opacity:1"/>
      <path d="m 1714.8,1323.6 25.2,25.2 46.8,15.6 43.2,0 43.2,-13.2 25.2,-15.6 21.6,-27.6 15.6,-31.2 L 1830,132 l 19.2,-58.8008 33.6,-34.8008 31.2,-15.5976 33.6,-9.6016 49.2,3.6016 37.2,15.5976 25.2,27.6016 21.6,31.1992 15.6,43.1988 -102,1140.002 -6,37.2 -22.8,37.2 -43.2,37.2 -46.8,18 -61.2,3.6 -52.8,-7.2 -40.8,-20.4 -30,-31.2 0,-15.6 9.6,-13.2 12,0" inkscape:connector-curvature="0" id="path18" style="stroke:#000000;stroke-width:8;stroke-miterlimit:4;stroke-dasharray:none;fill:none;stroke-opacity:1"/>
      <path d="m 2229.6,1366.8 0,-284.4 102,12 154.8,-6 127.2,-18 130.8,-38.4" inkscape:connector-curvature="0" id="path20" style="stroke:#000000;stroke-width:8;stroke-miterlimit:4;stroke-dasharray:none;fill:none;stroke-opacity:1"/>
      <path d="m 2744.4,1407.6 0,-1394.4008 64.8,0 0,1394.4008 -64.8,0 -130.8,-31.2 -127.2,-12 -154.8,-6 -102,8.4" inkscape:connector-curvature="0" id="path22" style="stroke:#000000;stroke-width:8;stroke-miterlimit:4;stroke-dasharray:none;fill:none;stroke-opacity:1"/>
    </g>
  </g>
</svg>
