<?xml version="1.0" encoding="UTF-8"?>
<!-- Created with Inkscape (http://www.inkscape.org/) -->
<svg xmlns:dc="http://purl.org/dc/elements/1.1/" xmlns:cc="http://creativecommons.org/ns#" xmlns:rdf="http://www.w3.org/1999/02/22-rdf-syntax-ns#" xmlns:svg="http://www.w3.org/2000/svg" xmlns="http://www.w3.org/2000/svg" xmlns:inkscape="http://www.inkscape.org/namespaces/inkscape" version="1.1" width="765" height="990" id="svg2" xml:space="preserve">
  <metadata id="metadata8">
    <rdf:RDF>
      <cc:Work rdf:about="">
        <dc:format>image/svg+xml</dc:format>
        <dc:type rdf:resource="http://purl.org/dc/dcmitype/StillImage"/>
      </cc:Work>
    </rdf:RDF>
  </metadata>
  <defs id="defs6"/>
  <g transform="matrix(1.25,0,0,-1.25,0,990)" id="g10">
    <g transform="scale(0.1,0.1)" id="g12">
      <path d="m 1428,632.398 9.6,-198 -16.8,-201.597 -32.4,-141.6018 108,-69.5976 -691.201,-2.4024 138,72 -94.801,373.1988 -7.199,49.204 7.199,39.597 19.204,26.403 19.199,9.597 20.398,3.602 16.801,0 19.199,-9.602 13.199,-7.199 188.402,-207.602 6,105.602 13.2,72 3.6,63.602 6,88.796 -19.2,15.602 -13.2,13.199 -9.6,16.801 -7.2,13.199 3.6,16.801 6,22.801 13.2,26.398 26.4,30 30,39.602 26.4,32.398 22.8,37.199 13.2,19.204 0,43.198 -9.6,19.2 -88.8,10.8 -9.6,58.8 -24,36 -6,13.2 19.2,26.4 10.8,20.4 15.6,43.2 181.2,0 26.4,-10.8 7.2,-30 -13.2,-19.2 -20.4,-19.2 -12,-24 -4.8,-19.2 -2.4,-495.599 211.2,-2.403 -16.8,560.402 -9.6,46.8 -13.2,36 -16.8,28.8 -16.8,24 -26.4,22.8 -19.2,9.6 -13.2,10.8 -30,6 -26.4,3.6 -22.8,3.6 -33.6,-3.6 -22.8,-3.6 -19.2,-13.2 -13.2,-3.6 -20.4,-19.2 -26.4,-24 -12,-25.2 -4.8,-24 -9.6,-13.2" inkscape:connector-curvature="0" id="path14" style="stroke:#000000;stroke-width:8;stroke-miterlimit:4;stroke-dasharray:none;fill:none;stroke-opacity:1"/>
      <path d="m 1213.2,1173.6 52.8,2.4 -15.6,20.4 -20.4,0 -16.8,-20.4" inkscape:connector-curvature="0" id="path16" style="stroke:#000000;stroke-width:8;stroke-miterlimit:4;stroke-dasharray:none;fill:none;stroke-opacity:1"/>
      <path d="m 1286.4,1371.6 6,28.8 -6,33.6 -16.8,32.4 -26.4,36 250.8,0 -39.6,-52.8 -13.2,-26.4 -3.6,-25.2 6,-43.2" inkscape:connector-curvature="0" id="path18" style="stroke:#000000;stroke-width:8;stroke-miterlimit:4;stroke-dasharray:none;fill:none;stroke-opacity:1"/>
      <path d="m 956.398,579.602 -15.597,42 -16.801,16.796 -82.801,16.801 33.602,-69.597" inkscape:connector-curvature="0" id="path20" style="stroke:#000000;stroke-width:8;stroke-miterlimit:4;stroke-dasharray:none;fill:none;stroke-opacity:1"/>
      <path d="m 890.398,645.602 0,441.598 73.204,79.2 -145.204,3.6 72,-82.8" inkscape:connector-curvature="0" id="path22" style="stroke:#000000;stroke-width:8;stroke-miterlimit:4;stroke-dasharray:none;fill:none;stroke-opacity:1"/>
      <path d="m 16.8008,415.199 0,114 205.1992,0 0,594.001 231.602,0 0,379.2 122.398,0 0,-1087.201 -559.1992,0" inkscape:connector-curvature="0" id="path24" style="stroke:#000000;stroke-width:8;stroke-miterlimit:4;stroke-dasharray:none;fill:none;stroke-opacity:1"/>
      <path d="m 585.602,19.1992 -568.8012,0 7.1992,48 6,31.1992 13.1992,31.2036 16.8008,24 14.3984,21.597 19.2032,27.602 21.5974,19.199 26.403,19.199 21.597,14.403 31.199,14.398 32.403,9.602 21.597,4.796 38.403,4.801 28.801,0 26.398,-4.801 28.801,-4.796 31.199,-7.204 22.801,-7.199 28.801,-19.199 24,-16.801 21.597,-18 19.199,-22.801 19.204,-27.597 16.796,-26.403 12,-24 9.602,-35.9996 7.199,-27.5976 2.403,-27.6016" inkscape:connector-curvature="0" id="path26" style="stroke:#000000;stroke-width:8;stroke-miterlimit:4;stroke-dasharray:none;fill:none;stroke-opacity:1"/>
    </g>
  </g>
</svg>
