<?xml version="1.0" encoding="UTF-8"?>
<!-- Created with Inkscape (http://www.inkscape.org/) -->
<svg xmlns:dc="http://purl.org/dc/elements/1.1/" xmlns:cc="http://creativecommons.org/ns#" xmlns:rdf="http://www.w3.org/1999/02/22-rdf-syntax-ns#" xmlns:svg="http://www.w3.org/2000/svg" xmlns="http://www.w3.org/2000/svg" xmlns:inkscape="http://www.inkscape.org/namespaces/inkscape" version="1.1" width="765" height="990" id="svg2" xml:space="preserve">
  <metadata id="metadata8">
    <rdf:RDF>
      <cc:Work rdf:about="">
        <dc:format>image/svg+xml</dc:format>
        <dc:type rdf:resource="http://purl.org/dc/dcmitype/StillImage"/>
      </cc:Work>
    </rdf:RDF>
  </metadata>
  <defs id="defs6"/>
  <g transform="matrix(1.25,0,0,-1.25,0,990)" id="g10">
    <g transform="scale(0.1,0.1)" id="g12">
      <path d="m 1732.8,22.8008 0,402.0002 19.2,55.199 25.2,28.801 44.4,32.398 36,6 34.8,-10.801 25.2,-8.398 32.4,-32.398 44.4,-76.801 44.4,-63.602 48,-57.597 42,-26.403 48,-6 46.8,13.199 33.6,19.204 31.2,32.398 73.2,102 36,44.398 31.2,34.801 32.4,16.801 28.8,13.199 27.6,0 26.4,-7.199 42,-19.199 48,-48 44.4,-61.199 48,-66 34.8,-36 32.4,-25.204 34.8,-9.597 22.8,-3.602 44.4,6 38.4,30 25.2,28.801 28.8,37.199 22.8,36 63.6,98.403 32.4,26.398 38.4,15.602 50.4,0 36,-19.204 27.6,-28.796 28.8,-70.801 0,-402.0002 -1555.2,0" inkscape:connector-curvature="0" id="path14" style="stroke:#000000;stroke-width:8;stroke-miterlimit:4;stroke-dasharray:none;fill:none;stroke-opacity:1"/>
      <path d="m 2901.6,1226.4 26.4,-32.4 25.2,-38.4 9.6,-32.4 15.6,-40.8 7.2,-28.8 3.6,-38.4 2.4,-44.399 -6,-45.602 -9.6,-34.801 -13.2,-28.796 -15.6,-32.403 -22.8,-22.801 -28.8,-28.796 -31.2,-15.602 -38.4,-15.602 -38.4,-6 -38.4,-3.597 -54,6 -39.6,13.199 -43.2,15.602 -42,25.199 -32.4,22.801 -42,34.796 -21.6,32.403 -36,38.398 -28.8,42 -25.2,34.801 -19.2,32.4 -15.6,37.2 -13.2,39.6 -9.6,50.4 -2.4,48 2.4,80.4 9.6,32.4 16.8,31.2 19.2,28.8 25.2,22.8 25.2,25.2 38.4,19.2 32.4,7.2 34.8,0 42,-7.2 44.4,-6 51.6,-15.6 40.8,-20.4 34.8,-19.2 30,-18 34.8,-30 31.2,-34.8 32.4,-34.8 25.2,-32.4 10.8,-12" inkscape:connector-curvature="0" id="path16" style="stroke:#000000;stroke-width:8;stroke-miterlimit:4;stroke-dasharray:none;fill:none;stroke-opacity:1"/>
      <path d="m 2928,1194 19.2,15.6 13.2,19.2 12,16.8 6,34.8 0,28.8 -6,25.2 -12,19.2 -7.2,13.2 -19.2,19.2 -12,13.2 -32.4,12 -51.6,0 -25.2,-12 -28.8,-16.8 -12,-9.6" inkscape:connector-curvature="0" id="path18" style="stroke:#000000;stroke-width:8;stroke-miterlimit:4;stroke-dasharray:none;fill:none;stroke-opacity:1"/>
      <path d="m 2502,848.398 -21.6,-13.199 -19.2,-12 -19.2,-6 -34.8,0 -28.8,6 -22.8,12 -15.6,13.199 -13.2,13.204 -13.2,19.199 -12,21.597 0,55.204 6,25.199 19.2,25.199 19.2,22.8 15.6,9.6" inkscape:connector-curvature="0" id="path20" style="stroke:#000000;stroke-width:8;stroke-miterlimit:4;stroke-dasharray:none;fill:none;stroke-opacity:1"/>
      <path d="m 2390.4,1405.2 -44.4,2.4 -32.4,-2.4 -37.2,-6 -39.6,-16.8 -37.2,-15.6 -38.4,-22.8 -32.4,-21.6 -32.4,-32.4 -25.2,-25.2 -25.2,-36 -22.8,-34.8 -15.6,-32.4 -13.2,-40.8 -9.6,-45.6 -2.4,-46.8 0,-51.599" inkscape:connector-curvature="0" id="path22" style="stroke:#000000;stroke-width:8;stroke-miterlimit:4;stroke-dasharray:none;fill:none;stroke-opacity:1"/>
      <path d="m 1573.2,1452 -15.6,-322.8 -6,-274.802 -7.2,-211.199 -15.6,-150 -12,-144 6,-153.597 9.6,-48 6,-37.204 -2.4,-39.5972 -19.2,-25.1992 -28.8,-19.2032 -34.8,-6 -64.8,15.6016 -25.2,19.1992 -42,9.6016 -96,-48 -396.001,3.5976 -15.597,50.4024 12,26.3984 36,5.9998 136.796,28.801 115.202,57.602 76.8,28.796 67.2,15.602 48,42 15.6,40.801 3.6,45.597 -6,67.204 -3.6,88.796 -7.2,243.602 -2.4,242.4 -26.4,451.2 294,0" inkscape:connector-curvature="0" id="path24" style="stroke:#000000;stroke-width:8;stroke-miterlimit:4;stroke-dasharray:none;fill:none;stroke-opacity:1"/>
      <path d="m 408,880.801 0,-864.0002 -68.398,0 0,864.0002" inkscape:connector-curvature="0" id="path26" style="stroke:#000000;stroke-width:8;stroke-miterlimit:4;stroke-dasharray:none;fill:none;stroke-opacity:1"/>
      <path d="m 733.199,880.801 -718.8006,0 0,226.799 12,25.2 13.2032,15.6 32.3984,0 19.1992,-3.6 19.1988,-12 63.602,-57.6 57.602,-51.6 44.398,-21.6 55.199,-13.199 44.403,-3.602 40.796,3.602 55.204,13.199 44.398,21.6 57.602,51.6 63.597,57.6 19.199,12 19.204,3.6 32.398,0 12,-15.6 13.199,-25.2 0,-226.799" inkscape:connector-curvature="0" id="path28" style="stroke:#000000;stroke-width:8;stroke-miterlimit:4;stroke-dasharray:none;fill:none;stroke-opacity:1"/>
      <path d="m 241.199,1023.6 57.602,378 25.199,31.2 19.199,13.2 25.199,9.6 10.801,0 25.199,-9.6 19.204,-13.2 25.199,-31.2 57.597,-378" inkscape:connector-curvature="0" id="path30" style="stroke:#000000;stroke-width:8;stroke-miterlimit:4;stroke-dasharray:none;fill:none;stroke-opacity:1"/>
      <path d="m 558,1087.2 -26.398,3.6 -15.602,13.2 -9.602,16.8 -6,15.6 2.403,27.6 13.199,20.4 15.602,8.4 26.398,7.2 25.199,-3.6 19.199,-12 12,-20.4 0,-40.8 -12,-15.6 -19.199,-16.8 -25.199,-3.6" inkscape:connector-curvature="0" id="path32" style="stroke:#000000;stroke-width:8;stroke-miterlimit:4;stroke-dasharray:none;fill:none;stroke-opacity:1"/>
      <path d="m 202.801,1090.8 -28.801,0 -28.801,16.8 -9.597,19.2 -3.602,15.6 7.199,28.8 21.602,21.6 13.199,7.2 22.801,0 22.801,-3.6 18,-12 10.796,-22.8 0,-19.2 -7.199,-26.4 -9.597,-15.6 -16.801,-6 -12,-3.6" inkscape:connector-curvature="0" id="path34" style="stroke:#000000;stroke-width:8;stroke-miterlimit:4;stroke-dasharray:none;fill:none;stroke-opacity:1"/>
      <path d="m 429.602,877.199 92.398,-282 7.199,-28.801 0,-38.398 L 516,499.199 496.801,481.199 477.602,468 408,458.398" inkscape:connector-curvature="0" id="path36" style="stroke:#000000;stroke-width:8;stroke-miterlimit:4;stroke-dasharray:none;fill:none;stroke-opacity:1"/>
      <path d="m 339.602,458.398 -66,9.602 -32.403,21.602 L 222,528 l 0,45.602 98.398,303.597" inkscape:connector-curvature="0" id="path38" style="stroke:#000000;stroke-width:8;stroke-miterlimit:4;stroke-dasharray:none;fill:none;stroke-opacity:1"/>
    </g>
  </g>
</svg>
