<?xml version="1.0" encoding="UTF-8"?>
<!-- Created with Inkscape (http://www.inkscape.org/) -->
<svg xmlns:dc="http://purl.org/dc/elements/1.1/" xmlns:cc="http://creativecommons.org/ns#" xmlns:rdf="http://www.w3.org/1999/02/22-rdf-syntax-ns#" xmlns:svg="http://www.w3.org/2000/svg" xmlns="http://www.w3.org/2000/svg" xmlns:inkscape="http://www.inkscape.org/namespaces/inkscape" version="1.1" width="765" height="990" id="svg2" xml:space="preserve">
  <metadata id="metadata8">
    <rdf:RDF>
      <cc:Work rdf:about="">
        <dc:format>image/svg+xml</dc:format>
        <dc:type rdf:resource="http://purl.org/dc/dcmitype/StillImage"/>
      </cc:Work>
    </rdf:RDF>
  </metadata>
  <defs id="defs6"/>
  <g transform="matrix(1.25,0,0,-1.25,0,990)" id="g10">
    <g transform="scale(0.1,0.1)" id="g12">
      <path d="m 435.602,456 9.597,15.602 10.801,10.796 16.801,4.801 14.398,-3.597 9.602,-8.403 4.801,-8.398 4.796,-18 0,-206.403 -495.5972,0 0,206.403 4.8008,18 4.7968,8.398 9.6016,8.403 14.3984,3.597 16.8008,-4.801 12,-10.796 8.4024,-14.403" inkscape:connector-curvature="0" id="path14" style="stroke:#000000;stroke-width:8;stroke-miterlimit:4;stroke-dasharray:none;fill:none;stroke-opacity:1"/>
      <path d="m 272.398,645.602 -21.597,0 -7.199,-1.204 -14.403,-3.597 -8.398,-1.199 -7.199,-2.403 -8.403,-2.398 -9.597,-2.403 -9.602,-3.597 -8.398,-4.801 -8.403,-3.602 -7.199,-4.796 -8.398,-4.801 -7.204,-4.801 -6,-7.199 -14.398,-12 -4.801,-7.199 -4.801,-4.801 -9.597,-13.199 -7.1994,-12 -4.8008,-8.403 -2.4024,-8.398 -4.7968,-18 -3.6016,-7.199 -1.1992,-12 -1.1992,-7.204 0,-37.199 1.1992,-8.398 4.8008,-18 L 90,414 l 2.3984,-7.199 6,-10.801 2.4026,-8.398 7.199,-7.204 2.398,-7.199 7.204,-7.199 4.796,-7.199 6,-8.403 13.204,-10.796 8.398,-7.204 8.398,-6 6,-3.597 7.204,-4.801 8.398,-3.602 12,-4.796 7.199,-3.602 9.602,-2.398 7.199,-1.204 8.398,-2.398 8.403,-1.199 10.801,-1.199 19.199,0 9.597,1.199 2.403,-1.199 9.597,1.199 8.403,1.199 9.597,2.398 4.801,1.204 L 318,306 l 7.199,3.602 12,4.796 7.199,3.602 8.403,4.801 4.801,3.597 10.796,6 7.204,7.204 13.199,10.796 6,8.403 4.801,7.199 6,7.199 4.796,7.199 6,7.204 3.602,8.398 3.602,10.801 4.796,7.199 2.403,10.801 3.597,18 1.204,8.398 0,37.199 -1.204,7.204 -1.199,12 -2.398,7.199 -2.403,12 -7.199,14.398 -3.597,8.403 -4.801,8.398 -12,16.801 -3.602,4.801 -4.801,7.199 -15.597,12 -6,7.199 -6,4.801 -8.403,4.801 -9.597,4.796 -6,3.602 -10.801,4.801 -7.199,3.597 -10.801,2.403 -7.199,2.398 -8.403,2.403 -7.199,1.199 -8.398,3.597 -15.602,1.204 -8.398,0" inkscape:connector-curvature="0" id="path16" style="stroke:#000000;stroke-width:8;stroke-miterlimit:4;stroke-dasharray:none;fill:none;stroke-opacity:1"/>
      <path d="m 403.199,24 -297.597,0 3.597,25.1992 3.602,16.8008 6,15.6016 9.597,13.1992 7.204,10.8012 10.796,14.398 10.801,9.602 13.199,10.796 12,7.204 16.801,7.199 15.602,6 12,2.398 19.199,2.403 15.602,0 14.398,-2.403 14.398,-2.398 16.801,-3.602 12,-4.801 14.403,-9.597 12,-9.602 12,-8.398 10.796,-12 9.602,-14.4026 8.398,-13.1992 6,-13.1992 6,-19.1992 L 402,39.6016 403.199,24" inkscape:connector-curvature="0" id="path18" style="stroke:#000000;stroke-width:8;stroke-miterlimit:4;stroke-dasharray:none;fill:none;stroke-opacity:1"/>
      <path d="m 1321.2,307.199 6,-99.597 -10.8,-152.4028 51.6,-34.8008 -340.8,0 L 1092,54 l -43.2,200.398 2.4,20.403 7.2,9.597 9.6,8.403 9.6,2.398 7.2,0 12,-2.398 8.4,-3.602 86.4,-108 0,38.403 4.8,37.199 6,20.398 4.8,20.403 2.4,16.796 0,12 -10.8,10.801 -8.4,8.403 -6,7.199 -1.2,9.597 3.6,8.403 6,13.199 12,13.199 14.4,18 13.2,24 9.6,18 4.8,16.801 -1.2,12 -2.4,13.199 -7.2,9.602 -32.4,4.801 -8.4,16.796 -3.6,13.204 -4.8,8.398 4.8,9.602 9.6,10.796 6,13.204 1.2,4.796 69.6,-2.398 10.8,-4.801 0,-7.199 -2.4,-9.602 -4.8,-4.796 -6,-7.204 -3.6,-8.398 -4.8,-235.199 85.2,0 -4.8,266.398 -4.8,22.801 -15.6,19.199 -10.8,13.199 -14.4,4.801 -18,3.602 -9.6,1.199 -14.4,-3.602 -10.8,-2.398 -12,-2.398 -8.4,-7.204 -8.4,-8.398 -8.4,-13.199 -3.6,-13.199" inkscape:connector-curvature="0" id="path20" style="stroke:#000000;stroke-width:8;stroke-miterlimit:4;stroke-dasharray:none;fill:none;stroke-opacity:1"/>
      <path d="m 1218,561.602 22.8,-1.204 -6,6 -8.4,1.204 -8.4,-7.204" inkscape:connector-curvature="0" id="path22" style="stroke:#000000;stroke-width:8;stroke-miterlimit:4;stroke-dasharray:none;fill:none;stroke-opacity:1"/>
      <path d="m 1106.4,291.602 -20.4,22.796 -12,6 -30,0 8.4,-38.398" inkscape:connector-curvature="0" id="path24" style="stroke:#000000;stroke-width:8;stroke-miterlimit:4;stroke-dasharray:none;fill:none;stroke-opacity:1"/>
      <path d="m 1066.8,320.398 0,193.204 44.4,39.597 -90,0 44.4,-39.597" inkscape:connector-curvature="0" id="path26" style="stroke:#000000;stroke-width:8;stroke-miterlimit:4;stroke-dasharray:none;fill:none;stroke-opacity:1"/>
      <path d="m 703.199,480 -3.597,-19.199 -16.801,-6 -15.602,-14.403 -3.597,-12 1.199,-14.398 8.398,-18 20.403,-27.602 L 727.199,336 816,279.602 l 49.199,-25.204 39.602,-16.796 24,-15.602 14.398,-9.602 32.403,-33.597 3.597,-1.199 0,16.796 -13.199,54 -21.602,82.801 -18,70.801 -22.796,57.602 -24,39.597 -19.204,26.403 -21.597,19.199 -16.801,9.597 -27.602,6 -20.398,-1.199 -22.801,-8.398 -51.597,-44.403 -22.801,-16.796 -12,-3.602 -10.801,2.398 -6,13.204 6,18 18,22.796 16.801,25.204 7.199,21.597 1.199,20.403 L 690,625.199 675.602,636 l -16.801,6 -14.403,-3.602 -16.796,-4.796 -9.602,-7.204 -8.398,-4.796 -3.602,-8.403 -6,-14.398 2.398,-14.403 6,-6 6,-6 6,-6 1.204,-8.398 -1.204,-13.199 -34.796,-66 -6,-21.602 0,-21.597 7.199,-20.403 L 600,402 651.602,368.398 660,354 l 39.602,-49.199 12,-15.602 16.796,-14.398 44.403,-20.403 4.801,-1.199 6,-20.398 30,-43.199 4.796,-10.801 L 820.801,168 834,67.1992 832.801,56.3984 830.398,51.6016 822,49.1992 772.801,45.6016 742.801,42 732,37.1992 l -1.199,-9.5976 8.398,-6" inkscape:connector-curvature="0" id="path28" style="stroke:#000000;stroke-width:8;stroke-miterlimit:4;stroke-dasharray:none;fill:none;stroke-opacity:1"/>
      <path d="m 738,40.8008 -10.801,-3.6016 -6,-4.8008 -1.199,-10.7968 10.801,4.7968" inkscape:connector-curvature="0" id="path30" style="stroke:#000000;stroke-width:8;stroke-miterlimit:4;stroke-dasharray:none;fill:none;stroke-opacity:1"/>
      <path d="M 763.199,37.1992 750,36 l -4.801,-7.1992 -1.199,-6 12,2.3984" inkscape:connector-curvature="0" id="path32" style="stroke:#000000;stroke-width:8;stroke-miterlimit:4;stroke-dasharray:none;fill:none;stroke-opacity:1"/>
      <path d="m 793.199,42 -22.801,-2.3984 -13.199,-4.8008 0,-8.4024 7.199,-4.7968 13.204,1.1992 62.398,6 50.398,-7.1992 6,1.1992 0,9.5976 -2.398,6 -33.602,8.4024 -3.597,4.8008 -8.403,94.7964 1.204,18 -3.602,13.204 -8.398,24 -4.801,50.398" inkscape:connector-curvature="0" id="path34" style="stroke:#000000;stroke-width:8;stroke-miterlimit:4;stroke-dasharray:none;fill:none;stroke-opacity:1"/>
      <path d="m 834,236.398 27.602,-7.199 36,-4.801 25.199,0" inkscape:connector-curvature="0" id="path36" style="stroke:#000000;stroke-width:8;stroke-miterlimit:4;stroke-dasharray:none;fill:none;stroke-opacity:1"/>
      <path d="m 896.398,36 7.204,-1.1992 6,-6 1.199,-6 -13.199,3.5976" inkscape:connector-curvature="0" id="path38" style="stroke:#000000;stroke-width:8;stroke-miterlimit:4;stroke-dasharray:none;fill:none;stroke-opacity:1"/>
      <path d="m 723.602,277.199 12,-87.597 -1.204,-13.204 L 669.602,57.6016 664.801,52.8008 657.602,51.6016 574.801,42 l -7.199,-2.3984 0,-2.4024 -7.204,-1.1992 -4.796,-2.3984 -1.204,-7.2032 -1.199,-6 10.801,8.4024 2.398,-6 12,0" inkscape:connector-curvature="0" id="path40" style="stroke:#000000;stroke-width:8;stroke-miterlimit:4;stroke-dasharray:none;fill:none;stroke-opacity:1"/>
      <path d="M 592.801,36 582,33.6016 l -3.602,-6 2.403,-6 13.199,4.7968" inkscape:connector-curvature="0" id="path42" style="stroke:#000000;stroke-width:8;stroke-miterlimit:4;stroke-dasharray:none;fill:none;stroke-opacity:1"/>
      <path d="M 638.398,42 604.801,37.1992 594,36 l 0,-9.6016 6,-4.7968 55.199,6 18,2.3984 31.199,-4.8008 13.204,-3.5976" inkscape:connector-curvature="0" id="path44" style="stroke:#000000;stroke-width:8;stroke-miterlimit:4;stroke-dasharray:none;fill:none;stroke-opacity:1"/>
      <path d="M 723.602,37.1992 696,44.3984 692.398,48 l 1.204,7.1992 49.199,87.6018 6,7.199 7.199,14.398 2.398,13.204 25.204,57.597" inkscape:connector-curvature="0" id="path46" style="stroke:#000000;stroke-width:8;stroke-miterlimit:4;stroke-dasharray:none;fill:none;stroke-opacity:1"/>
      <path d="M 604.801,615.602 553.199,606 l -10.801,-6 -12,-9.602 -6,-18 8.403,6 15.597,8.403 21.602,4.801 13.199,0 15.602,3.597" inkscape:connector-curvature="0" id="path48" style="stroke:#000000;stroke-width:8;stroke-miterlimit:4;stroke-dasharray:none;fill:none;stroke-opacity:1"/>
      <path d="m 526.801,573.602 20.398,3.597 22.801,1.199 18,-2.398 13.199,1.199 7.199,0" inkscape:connector-curvature="0" id="path50" style="stroke:#000000;stroke-width:8;stroke-miterlimit:4;stroke-dasharray:none;fill:none;stroke-opacity:1"/>
      <path d="m 630,609.602 3.602,-7.204 3.597,-2.398 6,0 3.602,4.801 0,4.801 -2.403,4.796 -6,1.204 -3.597,-1.204 -4.801,-6" inkscape:connector-curvature="0" id="path52" style="stroke:#000000;stroke-width:8;stroke-miterlimit:4;stroke-dasharray:none;fill:none;stroke-opacity:1"/>
    </g>
  </g>
</svg>
