<?xml version="1.0" encoding="UTF-8"?>
<!-- Created with Inkscape (http://www.inkscape.org/) -->
<svg xmlns:dc="http://purl.org/dc/elements/1.1/" xmlns:cc="http://creativecommons.org/ns#" xmlns:rdf="http://www.w3.org/1999/02/22-rdf-syntax-ns#" xmlns:svg="http://www.w3.org/2000/svg" xmlns="http://www.w3.org/2000/svg" xmlns:inkscape="http://www.inkscape.org/namespaces/inkscape" version="1.1" width="765" height="990" id="svg2" xml:space="preserve">
  <metadata id="metadata8">
    <rdf:RDF>
      <cc:Work rdf:about="">
        <dc:format>image/svg+xml</dc:format>
        <dc:type rdf:resource="http://purl.org/dc/dcmitype/StillImage"/>
      </cc:Work>
    </rdf:RDF>
  </metadata>
  <defs id="defs6"/>
  <g transform="matrix(1.25,0,0,-1.25,0,990)" id="g10">
    <g transform="scale(0.1,0.1)" id="g12">
      <path d="m 711.602,1074 -70.801,6 -111.602,-6 -82.801,9.6 -26.398,-9.6 -19.199,-25.2 7.199,-45.6 31.199,-102.001 61.199,-98.398 198,-237.602 102,-96 L 948,332.398 1261.2,25.1992 l 32.4,0 8.4,15.6016 -12,28.8008 -134.4,307.1994 -19.2,57.597 -102,246 L 942,840 l -74.398,103.199 -54,73.201 -44.403,69.6 -49.199,64.8 -56.398,67.2 -57.602,38.4 -16.801,67.2 -12,73.2 -19.199,48 -55.199,13.2 -88.801,0 -99.602,-3.6 -48,-12 -21.597,-7.2 -163.1994,-21.6 -48,-22.8 L 18,1368 l -3.6016,-44.4 19.2032,31.2 32.3984,16.8 94.801,0 99.597,-3.6 51.602,-13.2 -42,51.6 -9.602,36" inkscape:connector-curvature="0" id="path14" style="stroke:#000000;stroke-width:8;stroke-miterlimit:4;stroke-dasharray:none;fill:none;stroke-opacity:1"/>
      <path d="m 366,1374 9.602,3.6 6,15.6 -6,16.8 -13.204,9.6 -13.199,-9.6 -2.398,-19.2 7.199,-9.6 8.398,-7.2" inkscape:connector-curvature="0" id="path16" style="stroke:#000000;stroke-width:8;stroke-miterlimit:4;stroke-dasharray:none;fill:none;stroke-opacity:1"/>
      <path d="m 30,1342.8 128.398,2.4 98.403,-12 28.801,-16.8 9.597,-31.2 3.602,-34.8 -28.801,-70.8 -13.199,-86.4 16.801,-105.598 12,-48 34.796,-96 42,-76.801 L 462,597.602 592.801,348 606,252 589.199,88.8008 573.602,73.1992 481.199,63.6016 372,67.1992 l -6,-15.5976 -48,-7.2032 -6,-9.5976 8.398,-13.1992 276,9.5976 284.403,-12 13.199,12 -7.199,15.6016 -44.403,0 L 817.199,69.6016 654,73.1992 634.801,86.3984 654,286.801 l 117.602,-60 67.199,198 128.398,-319.199 44.401,-58.8012 44.4,-25.1992 68.4,0 37.2,13.1992 9.6,19.1992 -31.2,86.398" inkscape:connector-curvature="0" id="path18" style="stroke:#000000;stroke-width:8;stroke-miterlimit:4;stroke-dasharray:none;fill:none;stroke-opacity:1"/>
      <path d="m 346.801,789.602 42,-234 L 385.199,376.801 354,194.398 325.199,102 304.801,80.3984 151.199,69.6016 135.602,46.8008 100.801,44.3984 87.6016,34.8008 100.801,21.6016 l 118.801,9.5976 34.796,-2.3984" inkscape:connector-curvature="0" id="path20" style="stroke:#000000;stroke-width:8;stroke-miterlimit:4;stroke-dasharray:none;fill:none;stroke-opacity:1"/>
      <path d="M 369.602,67.1992 314.398,60 l 0,0 L 283.199,54 264,28.8008 l 13.199,-7.1992 18,19.1992 19.199,3.5976" inkscape:connector-curvature="0" id="path22" style="stroke:#000000;stroke-width:8;stroke-miterlimit:4;stroke-dasharray:none;fill:none;stroke-opacity:1"/>
      <path d="m 366,69.6016 70.801,262.7964 108,-63.597 22.801,117.597" inkscape:connector-curvature="0" id="path24" style="stroke:#000000;stroke-width:8;stroke-miterlimit:4;stroke-dasharray:none;fill:none;stroke-opacity:1"/>
      <path d="M 142.801,67.1992 91.1992,60 l 0,0 L 58.8008,54 39.6016,28.8008 49.1992,21.6016 72,40.8008 97.1992,44.3984" inkscape:connector-curvature="0" id="path26" style="stroke:#000000;stroke-width:8;stroke-miterlimit:4;stroke-dasharray:none;fill:none;stroke-opacity:1"/>
      <path d="m 823.199,69.6016 61.199,-6 28.801,-9.6016 18,-25.1992 -8.398,-7.1992 L 900,40.8008 884.398,44.3984" inkscape:connector-curvature="0" id="path28" style="stroke:#000000;stroke-width:8;stroke-miterlimit:4;stroke-dasharray:none;fill:none;stroke-opacity:1"/>
      <path d="m 1562.4,1033.2 25.2,-16.8 19.2,-6 9.6,0 9.6,9.6 13.2,13.2 63.6,111.6 0,15.6 -3.6,7.2 -6,8.4 -22.8,13.2 -523.2,246 -13.2,3.6 -15.6,3.6 -16.8,-7.2 -15.6,-8.4 -6,-10.8 -7.2,-18 0,-13.2 7.2,-15.6 8.4,-13.2 16.8,-15.6 457.2,-307.2" inkscape:connector-curvature="0" id="path30" style="stroke:#000000;stroke-width:8;stroke-miterlimit:4;stroke-dasharray:none;fill:none;stroke-opacity:1"/>
      <path d="m 3583.2,115.199 -1690.8,0 0,-92.3982 1690.8,0 0,92.3982" inkscape:connector-curvature="0" id="path32" style="stroke:#000000;stroke-width:8;stroke-miterlimit:4;stroke-dasharray:none;fill:none;stroke-opacity:1"/>
      <path d="m 2094,729.602 -13.2,-28.801 -2.4,-26.403 15.6,-43.199 21.6,-20.398 20.4,-13.199 31.2,-6 28.8,3.597 25.2,2.403 36,22.796 21.6,22.801 10.8,25.199 12,48 0,32.403 -3.6,31.199 -19.2,42 -28.8,32.398 -28.8,19.204 -57.6,12 -34.8,0 -38.4,-8.403 -34.8,-13.199 -32.4,-19.199 -21.6,-19.199 -22.8,-32.403 -12,-32.398 -16.8,-57.602 3.6,-50.398 9.6,-48 19.2,-44.403 76.8,-99.597 124.8,-138 127.2,-142.801 44.4,-64.801" inkscape:connector-curvature="0" id="path34" style="stroke:#000000;stroke-width:8;stroke-miterlimit:4;stroke-dasharray:none;fill:none;stroke-opacity:1"/>
      <path d="m 3206.4,729.602 -15.6,-28.801 0,-26.403 12,-43.199 22.8,-20.398 19.2,-13.199 34.8,-6 28.8,3.597 22.8,2.403 38.4,22.796 19.2,22.801 13.2,25.199 9.6,48 2.4,32.403 -2.4,31.199 -20.4,42 -27.6,32.398 -28.8,19.204 -57.6,12 -39.6,0 -34.8,-8.403 L 3168,864 l -31.2,-19.199 -22.8,-19.199 -25.2,-32.403 -13.2,-32.398 -9.6,-31.199 -3.6,-76.801 13.2,-48 19.2,-44.403 76.8,-99.597 124.8,-138 L 3423.6,180 3468,115.199" inkscape:connector-curvature="0" id="path36" style="stroke:#000000;stroke-width:8;stroke-miterlimit:4;stroke-dasharray:none;fill:none;stroke-opacity:1"/>
      <path d="m 2649.6,729.602 -12,-28.801 -3.6,-26.403 15.6,-43.199 22.8,-20.398 19.2,-13.199 32.4,-6 28.8,3.597 25.2,2.403 34.8,22.796 19.2,22.801 13.2,25.199 13.2,48 0,32.403 -3.6,31.199 -19.2,42 -28.8,32.398 -28.8,19.204 -57.6,12 -34.8,0 -38.4,-8.403 -34.8,-13.199 -36,-19.199 -19.2,-19.199 -21.6,-32.403 -13.2,-32.398 -13.2,-31.199 0,-76.801 9.6,-48 19.2,-44.403 76.8,-99.597 124.8,-138 127.2,-142.801 45.6,-64.801" inkscape:connector-curvature="0" id="path38" style="stroke:#000000;stroke-width:8;stroke-miterlimit:4;stroke-dasharray:none;fill:none;stroke-opacity:1"/>
    </g>
  </g>
</svg>
