<?xml version="1.0" encoding="UTF-8"?>
<!-- Created with Inkscape (http://www.inkscape.org/) -->
<svg xmlns:dc="http://purl.org/dc/elements/1.1/" xmlns:cc="http://creativecommons.org/ns#" xmlns:rdf="http://www.w3.org/1999/02/22-rdf-syntax-ns#" xmlns:svg="http://www.w3.org/2000/svg" xmlns="http://www.w3.org/2000/svg" xmlns:inkscape="http://www.inkscape.org/namespaces/inkscape" version="1.1" width="765" height="990" id="svg2" xml:space="preserve">
  <metadata id="metadata8">
    <rdf:RDF>
      <cc:Work rdf:about="">
        <dc:format>image/svg+xml</dc:format>
        <dc:type rdf:resource="http://purl.org/dc/dcmitype/StillImage"/>
      </cc:Work>
    </rdf:RDF>
  </metadata>
  <defs id="defs6"/>
  <g transform="matrix(1.25,0,0,-1.25,0,990)" id="g10">
    <g transform="scale(0.1,0.1)" id="g12">
      <path d="M 525.602,1090.8 487.199,1050 474,998.398 484.801,948 506.398,909.602 567.602,852 673.199,794.398 854.398,727.199 1072.8,681.602 1290,656.398 l 69.6,-6 45.6,-3.597 21.6,6 13.2,13.199 0,15.602 -15.6,13.199 -86.4,15.597 -54,26.403 -32.4,21.597 -76.8,64.801 -115.2,105.602 -115.202,89.999 -105.597,56.4 -102,42 -76.801,22.8 -67.199,2.4 -57.602,-12 -44.398,-22.8 -32.403,-19.2 -15.597,-15.6 -22.801,-3.6 -25.199,6 -3.602,22.8 124.801,103.2 26.398,27.6 15.602,36 2.398,31.2 -2.398,28.8" inkscape:connector-curvature="0" id="path14" style="stroke:#000000;stroke-width:8;stroke-miterlimit:4;stroke-dasharray:none;fill:none;stroke-opacity:1"/>
      <path d="M 529.199,1347.6 660,1286.4 796.801,1236 l 122.398,-26.4 128.401,-8.4 94.8,-4.8 70.8,10.8 -99.6,15.6 -111.6,9.6 -124.801,19.2 -88.801,25.2 -109.199,38.4 -82.801,34.8 -51.597,36 172.801,-67.2 108,-19.2 58.796,-9.6 121.202,-9.6 111.6,6 67.2,7.2 54,2.4 -118.8,9.6 -100.8,9.6 -99.601,3.6 -86.398,12 -105.602,22.8 -96,28.8 -63.597,28.8 -45.602,28.8 -34.801,13.2 -32.398,2.4 -69.602,-8.4 -54,-19.2 -22.801,-16.8 -13.199,-21.6 -2.398,-7.2 0,-25.2 15.597,-26.4 19.204,-6 19.199,-6 34.801,-9.6 38.398,0 22.801,9.6 19.199,3.6 9.602,-16.8 2.398,-28.8 -34.801,-40.8 -57.597,-42 -54,-51.6 -25.204,-34.8 -19.199,-28.8 -9.597,-51.6 6,-28.802 38.398,-57.597 99.602,-108 60,-54 70.796,-51.602 102,-45.597 61.204,-88.801 63.597,-73.199 42,-45.602 12,-28.801 19.199,-207.597 0,-134.403 -6,-21.5974 L 819.602,74.3984 682.801,55.1992 673.199,51.6016 654,49.1992 644.398,36 l 0,-19.1992 19.204,9.5976 21.597,-6" inkscape:connector-curvature="0" id="path16" style="stroke:#000000;stroke-width:8;stroke-miterlimit:4;stroke-dasharray:none;fill:none;stroke-opacity:1"/>
      <path d="M 778.801,55.1992 698.398,42 685.199,32.3984 688.801,16.8008 714,30 733.199,16.8008 861.602,32.3984 960,16.8008 l 3.602,15.5976 -6,16.8008 -26.403,6 -28.801,9.6016 -8.398,3.5976 -9.602,19.2032 -3.597,328.7964 6,38.403 0,13.199 -21.602,42 -22.801,37.199 L 769.199,666" inkscape:connector-curvature="0" id="path18" style="stroke:#000000;stroke-width:8;stroke-miterlimit:4;stroke-dasharray:none;fill:none;stroke-opacity:1"/>
      <path d="M 796.801,631.199 913.199,618 l 94.801,3.602 122.4,12 60,-54 74.4,-67.204 34.8,-2.398 34.8,9.602 38.4,31.199 6,25.199 -76.8,80.398" inkscape:connector-curvature="0" id="path20" style="stroke:#000000;stroke-width:8;stroke-miterlimit:4;stroke-dasharray:none;fill:none;stroke-opacity:1"/>
      <path d="M 292.801,1386 14.3984,1216.8 333.602,1322.4" inkscape:connector-curvature="0" id="path22" style="stroke:#000000;stroke-width:8;stroke-miterlimit:4;stroke-dasharray:none;fill:none;stroke-opacity:1"/>
      <path d="M 295.199,1341.6 14.3984,1216.8" inkscape:connector-curvature="0" id="path24" style="stroke:#000000;stroke-width:8;stroke-miterlimit:4;stroke-dasharray:none;fill:none;stroke-opacity:1"/>
      <path d="m 356.398,1392 -15.597,-9.6 8.398,-15.6 16.801,6 -6,13.2" inkscape:connector-curvature="0" id="path26" style="stroke:#000000;stroke-width:8;stroke-miterlimit:4;stroke-dasharray:none;fill:none;stroke-opacity:1"/>
      <path d="m 970.801,45.6016 25.199,-6 12,-9.6016 3.6,-7.1992 -15.6,-6 -22.801,3.5976" inkscape:connector-curvature="0" id="path28" style="stroke:#000000;stroke-width:8;stroke-miterlimit:4;stroke-dasharray:none;fill:none;stroke-opacity:1"/>
      <path d="M 490.801,765.602 558,637.199 634.801,522 l 6,-28.801 L 433.199,118.801 423.602,103.199 414,87.6016 l -22.801,-6 L 314.398,68.3984 264,58.8008 244.801,49.1992 231.602,45.6016 212.398,42 l -6,-6 -7.199,-15.6016 20.403,9.6016 21.597,-9.6016" inkscape:connector-curvature="0" id="path30" style="stroke:#000000;stroke-width:8;stroke-miterlimit:4;stroke-dasharray:none;fill:none;stroke-opacity:1"/>
      <path d="m 276,39.6016 -12,0 L 248.398,36 l -7.199,-13.1992 7.199,-2.4024 18,6" inkscape:connector-curvature="0" id="path32" style="stroke:#000000;stroke-width:8;stroke-miterlimit:4;stroke-dasharray:none;fill:none;stroke-opacity:1"/>
      <path d="m 279.602,42 22.796,7.1992 50.403,2.4024" inkscape:connector-curvature="0" id="path34" style="stroke:#000000;stroke-width:8;stroke-miterlimit:4;stroke-dasharray:none;fill:none;stroke-opacity:1"/>
      <path d="M 270,26.3984 295.199,16.8008 414,30 l 19.199,2.3984 96,-15.5976 2.403,15.5976 -2.403,16.8008 -28.801,6 L 462,68.3984" inkscape:connector-curvature="0" id="path36" style="stroke:#000000;stroke-width:8;stroke-miterlimit:4;stroke-dasharray:none;fill:none;stroke-opacity:1"/>
      <path d="M 458.398,70.8008 454.801,87.6016 654,416.398 l 48,86.403 0,28.801 -36,121.199" inkscape:connector-curvature="0" id="path38" style="stroke:#000000;stroke-width:8;stroke-miterlimit:4;stroke-dasharray:none;fill:none;stroke-opacity:1"/>
      <path d="m 538.801,45.6016 21.597,-6 13.204,-9.6016 3.597,-7.1992 -16.801,-6 -21.597,3.5976" inkscape:connector-curvature="0" id="path40" style="stroke:#000000;stroke-width:8;stroke-miterlimit:4;stroke-dasharray:none;fill:none;stroke-opacity:1"/>
      <path d="M 1479.6,934.801 1704,1150.8" inkscape:connector-curvature="0" id="path42" style="stroke:#000000;stroke-width:8;stroke-miterlimit:4;stroke-dasharray:none;fill:none;stroke-opacity:1"/>
      <path d="M 1398,964.801 1675.2,1230" inkscape:connector-curvature="0" id="path44" style="stroke:#000000;stroke-width:8;stroke-miterlimit:4;stroke-dasharray:none;fill:none;stroke-opacity:1"/>
      <path d="m 1345.2,1022.4 276,265.2" inkscape:connector-curvature="0" id="path46" style="stroke:#000000;stroke-width:8;stroke-miterlimit:4;stroke-dasharray:none;fill:none;stroke-opacity:1"/>
      <path d="m 1316.4,1104 222,211.2" inkscape:connector-curvature="0" id="path48" style="stroke:#000000;stroke-width:8;stroke-miterlimit:4;stroke-dasharray:none;fill:none;stroke-opacity:1"/>
      <path d="m 1592.4,1302 -19.2,6 -19.2,7.2 -21.6,2.4 -20.4,0 -22.8,-1.2 -18,-1.2 -21.6,-7.2 -18,-7.2 -19.2,-8.4 -18,-12 -13.2,-12 -14.4,-14.4 -9.6,-12 -10.8,-15.6 -12,-21.6 -4.8,-18 -6,-19.2 -3.6,-19.2 -3.6,-21.6 0,-19.2 3.6,-22.8 6,-19.2 4.8,-18 8.4,-18 6,-10.8 6,-8.4 18,-19.201 16.8,-16.801 15.6,-12 19.2,-10.796 20.4,-10.801 21.6,-4.801 16.8,-4.801 20.4,0 20.4,-2.398 25.2,3.597 16.8,3.602 21.6,8.398 20.4,10.801 13.2,7.199 15.6,13.204 15.6,14.398 15.6,15.6 12,19.2 12,16.8 9.6,16.8 4.8,21.6 1.2,19.2 3.6,21.6 -2.4,19.2 -1.2,22.8 -4.8,19.2 -7.2,16.8 -8.4,22.8 -12,16.8 -12,14.4 -14.4,16.8 -16.8,12 -18,13.2 -18,7.2" inkscape:connector-curvature="0" id="path50" style="stroke:#000000;stroke-width:8;stroke-miterlimit:4;stroke-dasharray:none;fill:none;stroke-opacity:1"/>
      <path d="m 2229.6,1352.4 -36,-19.2 -26.4,-32.4 -9.6,-26.4 -4.8,-26.4 8.4,-42 20.4,-26.4 21.6,-18 34.8,-12 26.4,-8.4 33.6,0 34.8,14.4 30,15.6 18,20.4 20.4,30 15.6,34.8 8.4,30 2.4,30 -2.4,20.4 -6,36 -14.4,28.8 -24,30 -24,20.4 -21.6,9.6 -20.4,8.4 -28.8,3.6 -24,2.4 -30,0 -36,-2.4 -38.4,-12 -32.4,-18 -20.4,-18 -24,-20.4 -18,-20.4 -16.8,-32.4 -19.2,-33.6 -4.8,-30 -6,-40.8 -3.6,-42 3.6,-32.4 2.4,-46.8 18,-48 26.4,-54 48,-62.402 74.4,-70.796 106.8,-86.403 231.6,-130.801" inkscape:connector-curvature="0" id="path52" style="stroke:#000000;stroke-width:8;stroke-miterlimit:4;stroke-dasharray:none;fill:none;stroke-opacity:1"/>
      <path d="m 1762.8,571.199 0,-533.9998 94.8,0 0,533.9998 -94.8,0" inkscape:connector-curvature="0" id="path54" style="stroke:#000000;stroke-width:8;stroke-miterlimit:4;stroke-dasharray:none;fill:none;stroke-opacity:1"/>
      <path d="m 2236.8,571.199 0,-533.9998 98.4,0 0,533.9998 -98.4,0" inkscape:connector-curvature="0" id="path56" style="stroke:#000000;stroke-width:8;stroke-miterlimit:4;stroke-dasharray:none;fill:none;stroke-opacity:1"/>
      <path d="m 2718,571.199 0,-533.9998 94.8,0 0,533.9998 -94.8,0" inkscape:connector-curvature="0" id="path58" style="stroke:#000000;stroke-width:8;stroke-miterlimit:4;stroke-dasharray:none;fill:none;stroke-opacity:1"/>
    </g>
  </g>
</svg>
