<?xml version="1.0" encoding="UTF-8"?>
<!-- Created with Inkscape (http://www.inkscape.org/) -->
<svg xmlns:dc="http://purl.org/dc/elements/1.1/" xmlns:cc="http://creativecommons.org/ns#" xmlns:rdf="http://www.w3.org/1999/02/22-rdf-syntax-ns#" xmlns:svg="http://www.w3.org/2000/svg" xmlns="http://www.w3.org/2000/svg" xmlns:inkscape="http://www.inkscape.org/namespaces/inkscape" version="1.1" width="765" height="990" id="svg2" xml:space="preserve">
  <metadata id="metadata8">
    <rdf:RDF>
      <cc:Work rdf:about="">
        <dc:format>image/svg+xml</dc:format>
        <dc:type rdf:resource="http://purl.org/dc/dcmitype/StillImage"/>
      </cc:Work>
    </rdf:RDF>
  </metadata>
  <defs id="defs6"/>
  <g transform="matrix(1.25,0,0,-1.25,0,990)" id="g10">
    <g transform="scale(0.1,0.1)" id="g12">
      <path d="m 339.602,691.199 0,-669.5974 769.198,0 0,669.5974 -769.198,0" inkscape:connector-curvature="0" id="path14" style="stroke:#000000;stroke-width:8;stroke-miterlimit:4;stroke-dasharray:none;fill:none;stroke-opacity:1"/>
      <path d="m 339.602,21.6016 769.199,0 0,669.598 -769.199,0 0,-669.598 z" inkscape:connector-curvature="0" id="path16" style="stroke:#000000;stroke-width:8;stroke-miterlimit:4;stroke-dasharray:none;fill:none;stroke-opacity:1"/>
      <path d="m 585.602,534 -10.801,26.398 -20.403,40.801 -13.199,21.602 351.602,0 -21.602,-37.199 -15.597,-36 L 850.801,534" inkscape:connector-curvature="0" id="path18" style="stroke:#000000;stroke-width:8;stroke-miterlimit:4;stroke-dasharray:none;fill:none;stroke-opacity:1"/>
      <path d="m 543.602,432 -80.403,44.398 -18,-62.398 42,-31.199 27.602,-20.403 39.597,-42" inkscape:connector-curvature="0" id="path20" style="stroke:#000000;stroke-width:8;stroke-miterlimit:4;stroke-dasharray:none;fill:none;stroke-opacity:1"/>
      <path d="m 892.801,432 78,44.398 20.398,-64.796 -36,-20.403 -42,-39.597 -28.801,-31.204" inkscape:connector-curvature="0" id="path22" style="stroke:#000000;stroke-width:8;stroke-miterlimit:4;stroke-dasharray:none;fill:none;stroke-opacity:1"/>
      <path d="m 601.199,351.602 4.801,15.597 10.801,18 15.597,19.199 20.403,18 37.199,13.204 22.801,2.398 28.801,-2.398 31.199,-10.801 26.398,-15.602 12,-18 13.199,-15.597 10.801,-28.801 -42,26.398 -31.199,9.602 -25.199,8.398 -21.602,2.403 -25.199,-4.801 -26.398,-6 L 632.398,367.199 612,351.602 601.199,346.801" inkscape:connector-curvature="0" id="path24" style="stroke:#000000;stroke-width:8;stroke-miterlimit:4;stroke-dasharray:none;fill:none;stroke-opacity:1"/>
      <path d="m 616.801,73.1992 42,169.1988 18,24 18,7.204 20.398,6 28.801,-6 L 764.398,258 775.199,240 819.602,70.8008" inkscape:connector-curvature="0" id="path26" style="stroke:#000000;stroke-width:8;stroke-miterlimit:4;stroke-dasharray:none;fill:none;stroke-opacity:1"/>
      <path d="m 721.199,37.1992 -39.597,2.4024 -18,4.7968 L 648,48 l -26.398,12 -18,24 -15.602,24 -10.801,25.199 -7.199,31.199 -10.801,42 -15.597,218.403 2.398,38.398 6,19.199 2.398,15.602 13.204,20.398 15.597,15.602 25.199,15.602 24,7.199 20.403,3.597 62.398,4.801 73.199,-4.801 31.204,-6 26.398,-15.597 15.602,-9.602 12,-21.597 13.199,-40.801 2.398,-34.801 -12,-189.602 -6,-51.597 L 855.602,133.199 846,108 830.398,81.6016 819.602,68.3984 804,55.1992 786,44.3984 762,39.6016 721.199,37.1992" inkscape:connector-curvature="0" id="path28" style="stroke:#000000;stroke-width:8;stroke-miterlimit:4;stroke-dasharray:none;fill:none;stroke-opacity:1"/>
      <path d="m 2301.6,448.801 0,-432.0002 99.6,0 0,432.0002 -99.6,0" inkscape:connector-curvature="0" id="path30" style="stroke:#000000;stroke-width:8;stroke-miterlimit:4;stroke-dasharray:none;fill:none;stroke-opacity:1"/>
      <path d="m 2670,1455.6 0,-430.8 94.8,0 0,430.8 -94.8,0" inkscape:connector-curvature="0" id="path32" style="stroke:#000000;stroke-width:8;stroke-miterlimit:4;stroke-dasharray:none;fill:none;stroke-opacity:1"/>
      <path d="m 3033.6,448.801 0,-432.0002 99.6,0 0,432.0002 -96,0" inkscape:connector-curvature="0" id="path34" style="stroke:#000000;stroke-width:8;stroke-miterlimit:4;stroke-dasharray:none;fill:none;stroke-opacity:1"/>
      <path d="M 1899.6,16.8008 1884,126 l 0,44.398 6,45.602 15.6,50.398 28.8,44.403 34.8,42 38.4,28.801 55.2,34.796 31.2,19.204 13.2,13.199 6,15.597 3.6,22.801 -192,885.601 -21.6,48 -36,26.4 -38.4,8.4 -31.2,0 -38.4,-8.4 -20.4,-22.8 -27.6,-42 -9.6,-25.2 -188.4,-873.598 6,-25.204 9.6,-15.597 34.8,-22.801 32.4,-15.602 31.2,-28.796 48,-38.403 26.4,-36 21.6,-40.801 20.4,-44.398 2.4,-51.602 0,-48 -7.2,-32.398 -8.4,-67.1992 169.2,0" inkscape:connector-curvature="0" id="path36" style="stroke:#000000;stroke-width:8;stroke-miterlimit:4;stroke-dasharray:none;fill:none;stroke-opacity:1"/>
      <path d="m 320.398,932.398 792.002,0 0,-31.199 31.2,-6 49.2,-15.597 33.6,-20.403 44.4,-31.199 39.6,-42 36,-49.199 26.4,-49.199 22.8,-62.403 15.6,-62.398 8.4,-104.403 -8.4,-54 -22.8,-62.398 -28.8,-28.801 -24,-6 -36,3.602 -28.8,22.801 -13.2,28.796 -4.8,31.204 -2.4,22.796 7.2,81.602 10.8,87.602 -8.4,91.199 -22.8,64.801 -33.6,52.796 -34.8,38.403 -38.4,15.597 -18,0 0,-28.796 -104.4,0 0,-54 -153.602,0 0,54 -280.796,0 0,-54 -148.801,0 0,54 -104.403,0" inkscape:connector-curvature="0" id="path38" style="stroke:#000000;stroke-width:8;stroke-miterlimit:4;stroke-dasharray:none;fill:none;stroke-opacity:1"/>
      <path d="m 367.199,932.398 102,496.802 18,31.2 13.199,10.8 15.602,4.8 24,0 22.801,-13.2 4.801,-15.6 0,-18" inkscape:connector-curvature="0" id="path40" style="stroke:#000000;stroke-width:8;stroke-miterlimit:4;stroke-dasharray:none;fill:none;stroke-opacity:1"/>
      <path d="m 466.801,932.398 104.398,499.202 12,24 13.199,13.2 24,4.8 22.801,-8.4 13.199,-9.6 8.403,-15.6" inkscape:connector-curvature="0" id="path42" style="stroke:#000000;stroke-width:8;stroke-miterlimit:4;stroke-dasharray:none;fill:none;stroke-opacity:1"/>
      <path d="m 560.398,932.398 102,496.802 9.602,24 18,15.6 21.602,2.4 22.796,-2.4 18,-15.6 6,-21.6" inkscape:connector-curvature="0" id="path44" style="stroke:#000000;stroke-width:8;stroke-miterlimit:4;stroke-dasharray:none;fill:none;stroke-opacity:1"/>
      <path d="m 654,932.398 102,492.002 15.602,28.8 18,15.6 31.199,2.4 10.801,-2.4 15.597,-10.8 7.199,-26.4" inkscape:connector-curvature="0" id="path46" style="stroke:#000000;stroke-width:8;stroke-miterlimit:4;stroke-dasharray:none;fill:none;stroke-opacity:1"/>
      <path d="M 752.398,932.398 852,1422 l 10.801,25.2 9.597,15.6 24,10.8 28.801,-4.8 20.403,-13.2 7.199,-18" inkscape:connector-curvature="0" id="path48" style="stroke:#000000;stroke-width:8;stroke-miterlimit:4;stroke-dasharray:none;fill:none;stroke-opacity:1"/>
      <path d="M 854.398,932.398 948,1418.4 l 8.398,26.4 15.602,20.4 25.199,6 6.001,2.4 22.8,-10.8 15.6,-15.6 0,-15.6" inkscape:connector-curvature="0" id="path50" style="stroke:#000000;stroke-width:8;stroke-miterlimit:4;stroke-dasharray:none;fill:none;stroke-opacity:1"/>
      <path d="M 943.199,932.398 1041.6,1434 l 10.8,21.6 13.2,13.2 15.6,2.4 22.8,0 21.6,-8.4 9.6,-15.6 6,-25.2 -102,-489.602 -718.802,0 0,-33.597 -36,-6 -49.199,-15.602 -36,-20.398 -42,-33.602 -38.398,-42 -60.0002,-102 -18,-60 -19.1992,-62.398 -7.2032,-103.199 7.2032,-55.204 26.3984,-60 28.8008,-27.597 20.3984,-6 37.1988,2.398 31.204,24 9.597,28.801 6,31.199 2.403,22.801 -8.403,80.398 -13.199,88.801 8.398,88.801 20.403,64.801 33.597,54 34.801,39.597 36,15.602 25.199,2.398 0,-22.796" inkscape:connector-curvature="0" id="path52" style="stroke:#000000;stroke-width:8;stroke-miterlimit:4;stroke-dasharray:none;fill:none;stroke-opacity:1"/>
    </g>
  </g>
</svg>
