<?xml version="1.0" encoding="UTF-8"?>
<!-- Created with Inkscape (http://www.inkscape.org/) -->
<svg xmlns:dc="http://purl.org/dc/elements/1.1/" xmlns:cc="http://creativecommons.org/ns#" xmlns:rdf="http://www.w3.org/1999/02/22-rdf-syntax-ns#" xmlns:svg="http://www.w3.org/2000/svg" xmlns="http://www.w3.org/2000/svg" xmlns:inkscape="http://www.inkscape.org/namespaces/inkscape" version="1.1" width="765" height="990" id="svg2" xml:space="preserve">
  <metadata id="metadata8">
    <rdf:RDF>
      <cc:Work rdf:about="">
        <dc:format>image/svg+xml</dc:format>
        <dc:type rdf:resource="http://purl.org/dc/dcmitype/StillImage"/>
      </cc:Work>
    </rdf:RDF>
  </metadata>
  <defs id="defs6"/>
  <g transform="matrix(1.25,0,0,-1.25,0,990)" id="g10">
    <g transform="scale(0.1,0.1)" id="g12">
      <path d="m 337.199,231.602 -38.398,48 -48,48 -38.403,40.796 -40.796,44.403 -51.602,51.597 -51.6016,38.403 -54,38.398 101.9996,914.401 32.403,-9.6 34.801,-15.6 28.796,-22.8 28.801,-34.8 25.199,-42 13.204,-44.4 9.597,-38.4 9.602,-51.6 44.398,-1176.0016 -60,-3.5976 12,265.1992" inkscape:connector-curvature="0" id="path14" style="stroke:#000000;stroke-width:8;stroke-miterlimit:4;stroke-dasharray:none;fill:none;stroke-opacity:1"/>
      <path d="m 807.602,16.8008 0,1198.7992 -192,240 -192,-240" inkscape:connector-curvature="0" id="path16" style="stroke:#000000;stroke-width:8;stroke-miterlimit:4;stroke-dasharray:none;fill:none;stroke-opacity:1"/>
      <path d="m 807.602,1215.6 190.796,240 193.202,-240" inkscape:connector-curvature="0" id="path18" style="stroke:#000000;stroke-width:8;stroke-miterlimit:4;stroke-dasharray:none;fill:none;stroke-opacity:1"/>
      <path d="M 1659.6,16.8008 1644,126 l 0,44.398 6,44.403 15.6,51.597 28.8,44.403 34.8,42 38.4,28.801 55.2,34.796 31.2,19.204 13.2,13.199 6,15.597 3.6,22.801 -192,885.601 -21.6,48 -36,25.2 -38.4,9.6 -31.2,0 -38.4,-9.6 -20.4,-21.6 -27.6,-42 -9.6,-26.4 -188.4,-872.398 6,-25.204 9.6,-16.796 34.8,-21.602 32.4,-15.602 31.2,-28.796 48,-39.602 26.4,-34.801 21.6,-42 20.4,-44.398 2.4,-50.403 0,-48 -7.2,-32.398 -8.4,-67.1992 169.2,0" inkscape:connector-curvature="0" id="path20" style="stroke:#000000;stroke-width:8;stroke-miterlimit:4;stroke-dasharray:none;fill:none;stroke-opacity:1"/>
    </g>
  </g>
</svg>
