<?xml version="1.0" encoding="UTF-8"?>
<!-- Created with Inkscape (http://www.inkscape.org/) -->
<svg xmlns:dc="http://purl.org/dc/elements/1.1/" xmlns:cc="http://creativecommons.org/ns#" xmlns:rdf="http://www.w3.org/1999/02/22-rdf-syntax-ns#" xmlns:svg="http://www.w3.org/2000/svg" xmlns="http://www.w3.org/2000/svg" xmlns:inkscape="http://www.inkscape.org/namespaces/inkscape" version="1.1" width="765" height="990" id="svg2" xml:space="preserve">
  <metadata id="metadata8">
    <rdf:RDF>
      <cc:Work rdf:about="">
        <dc:format>image/svg+xml</dc:format>
        <dc:type rdf:resource="http://purl.org/dc/dcmitype/StillImage"/>
      </cc:Work>
    </rdf:RDF>
  </metadata>
  <defs id="defs6"/>
  <g transform="matrix(1.25,0,0,-1.25,0,990)" id="g10">
    <g transform="scale(0.1,0.1)" id="g12">
      <path d="m 1032,1053.6 52.8,-58.799 26.4,-79.199 18,-70.801 14.4,-164.403 -6,-24 -8.4,-31.199 6,-9.597 10.8,2.398 15.6,12 12,-12 16.8,-2.398 18,12 14.4,-12 26.4,14.398 8.4,-14.398 18,2.398 8.4,12 -8.4,32.398 -12,52.801 6,103.199 -2.4,99.602 10.8,50.398 24,117.602 -9.6,79.2 -49.2,85.2 76.8,-109.2 37.2,-111.6 18,-97.202 6,-67.199 -6,-38.398 6,-24 20.4,-43.199 14.4,-3.602 0,30 -14.4,24 6,32.398 -12,28.801 -12,97.199 -8.4,63.602 -18,66 -34.8,90 -55.2,73.2 -80.4,68.4 -67.2,28.8 -87.6,18 -75.602,0 -150,-12 -205.199,0" inkscape:connector-curvature="0" id="path14" style="stroke:#000000;stroke-width:8;stroke-miterlimit:4;stroke-dasharray:none;fill:none;stroke-opacity:1"/>
      <path d="m 475.199,1170 26.403,-22.8 8.398,-38.4 2.398,-38.4 15.602,-31.2 16.801,-3.6 14.398,14.4 24,-2.4 12,2.4 2.403,24 24,12 3.597,22.8 -7.199,18 24,14.4 -14.398,26.4 18,20.4 -20.403,20.4 13.199,24 -10.796,26.4 8.398,26.4 -18,26.4 7.199,26.4 -24,20.4 -6,26.4 -24,3.6 -26.398,16.8 -22.801,-12 -9.602,-28.8 -20.398,-70.8 -32.398,-34.8 -8.403,-32.4" inkscape:connector-curvature="0" id="path16" style="stroke:#000000;stroke-width:8;stroke-miterlimit:4;stroke-dasharray:none;fill:none;stroke-opacity:1"/>
      <path d="m 507.602,1364.4 -48,-9.6 -31.204,-14.4 -32.398,-16.8 -34.801,-38.4 -24,-40.8 -18,-38.4 -20.398,-105.6 -24,-70.8" inkscape:connector-curvature="0" id="path18" style="stroke:#000000;stroke-width:8;stroke-miterlimit:4;stroke-dasharray:none;fill:none;stroke-opacity:1"/>
      <path d="m 436.801,1032 -56.403,-10.8 -67.199,0 -40.801,2.4 -49.199,26.4 -79.199,67.2 -7.199,0 12,-28.8 38.398,-40.8 56.403,-44.4 58.796,-22.802 46.801,-3.597 55.199,12" inkscape:connector-curvature="0" id="path20" style="stroke:#000000;stroke-width:8;stroke-miterlimit:4;stroke-dasharray:none;fill:none;stroke-opacity:1"/>
      <path d="m 260.398,994.801 -28.796,-79.199 -36,-56.403 L 181.199,838.801 160.801,818.398 114,802.801 69.6016,810 l -28.8008,20.398 -8.4024,6 -14.3984,0 0,-9.597 8.3984,-12 L 18,800.398 14.3984,786 l 20.4024,6 34.8008,-14.398 56.3984,-12 67.199,12 38.403,16.796 34.796,27.602 62.403,79.199 57.597,81.602" inkscape:connector-curvature="0" id="path22" style="stroke:#000000;stroke-width:8;stroke-miterlimit:4;stroke-dasharray:none;fill:none;stroke-opacity:1"/>
      <path d="m 416.398,1032 12,15.6 4.801,0 6,-15.6 L 400.801,988.801 390,968.398 396,960 l 37.199,10.801 26.403,6 30,-12 L 534,930" inkscape:connector-curvature="0" id="path24" style="stroke:#000000;stroke-width:8;stroke-miterlimit:4;stroke-dasharray:none;fill:none;stroke-opacity:1"/>
      <path d="M 522,991.199 536.398,918 559.199,861.602 566.398,810 l 4.801,-64.801 12,-58.801 -2.398,-24 -14.403,-28.796 0,-15.602 10.801,-2.398 14.403,12 18,-14.403 8.398,2.403 18,18 24,-18 16.801,12 24,-9.602 8.398,3.602 3.602,20.398 -15.602,30 -8.398,32.398 3.597,46.801 -3.597,70.801 15.597,55.199 -9.597,34.801 20.398,-20.398 14.403,9.597 6,10.801 -22.801,64.801" inkscape:connector-curvature="0" id="path26" style="stroke:#000000;stroke-width:8;stroke-miterlimit:4;stroke-dasharray:none;fill:none;stroke-opacity:1"/>
      <path d="m 739.199,915.602 193.199,-24 91.202,0 93.6,14.398" inkscape:connector-curvature="0" id="path28" style="stroke:#000000;stroke-width:8;stroke-miterlimit:4;stroke-dasharray:none;fill:none;stroke-opacity:1"/>
      <path d="m 386.398,1135.2 3.602,18 0,8.4 2.398,12 18,0 12,14.4" inkscape:connector-curvature="0" id="path30" style="stroke:#000000;stroke-width:8;stroke-miterlimit:4;stroke-dasharray:none;fill:none;stroke-opacity:1"/>
      <path d="m 410.398,1173.6 2.403,-8.4 -4.801,-9.6 -9.602,-2.4 -8.398,0" inkscape:connector-curvature="0" id="path32" style="stroke:#000000;stroke-width:8;stroke-miterlimit:4;stroke-dasharray:none;fill:none;stroke-opacity:1"/>
      <path d="m 416.398,1200 -8.398,-12 -21.602,-8.4 -8.398,-14.4 0,-20.4" inkscape:connector-curvature="0" id="path34" style="stroke:#000000;stroke-width:8;stroke-miterlimit:4;stroke-dasharray:none;fill:none;stroke-opacity:1"/>
      <path d="M 501.602,952.801 454.801,894 404.398,810 363.602,686.398 l -20.403,-24 -18,-20.398 -6,-20.398 9.602,-6 16.801,9.597 26.398,-12 24,12 16.801,-9.597 26.398,9.597 12,-9.597 14.403,2.398 12,54 12,28.801 22.796,73.199 46.801,70.801" inkscape:connector-curvature="0" id="path36" style="stroke:#000000;stroke-width:8;stroke-miterlimit:4;stroke-dasharray:none;fill:none;stroke-opacity:1"/>
      <path d="M 961.199,891.602 932.398,822 l -18,-54 -16.796,-61.199 -18,-30 -26.403,-34.801 -2.398,-16.801 10.801,-9.597 20.398,12 15.602,-9.602 32.398,9.602 14.398,-12 26.403,12 18,-12 16.799,9.597 6,8.403 -6,38.398 8.4,26.398 93.6,207.602" inkscape:connector-curvature="0" id="path38" style="stroke:#000000;stroke-width:8;stroke-miterlimit:4;stroke-dasharray:none;fill:none;stroke-opacity:1"/>
      <path d="m 24,15.6016 0,370.7964 16.8008,50.403 24,25.199 40.8012,30 32.398,6 32.398,-9.602 22.801,-8.398 30,-28.801 40.801,-70.801 40.801,-58.796 44.398,-52.801 37.199,-24 44.403,-4.801 44.398,12 28.801,16.801 30,30 67.199,93.597 32.403,40.801 28.796,32.403 30,14.398 26.403,12 26.398,0 24,-6 37.199,-18 44.403,-43.199 40.801,-56.403 44.398,-61.199 31.199,-32.398 30,-22.801 32.401,-9.602 20.4,-2.398 40.8,4.801 36,26.398 22.8,27.602 26.4,34.801 20.4,32.398 58.8,91.199 30,22.801 34.8,14.398 46.8,0 32.4,-18 26.4,-25.199 26.4,-64.801 0,-370.7964 -1428,0" inkscape:connector-curvature="0" id="path40" style="stroke:#000000;stroke-width:8;stroke-miterlimit:4;stroke-dasharray:none;fill:none;stroke-opacity:1"/>
    </g>
  </g>
</svg>
