<?xml version="1.0" encoding="UTF-8"?>
<!-- Created with Inkscape (http://www.inkscape.org/) -->
<svg xmlns:dc="http://purl.org/dc/elements/1.1/" xmlns:cc="http://creativecommons.org/ns#" xmlns:rdf="http://www.w3.org/1999/02/22-rdf-syntax-ns#" xmlns:svg="http://www.w3.org/2000/svg" xmlns="http://www.w3.org/2000/svg" xmlns:inkscape="http://www.inkscape.org/namespaces/inkscape" version="1.1" width="765" height="990" id="svg2" xml:space="preserve">
  <metadata id="metadata8">
    <rdf:RDF>
      <cc:Work rdf:about="">
        <dc:format>image/svg+xml</dc:format>
        <dc:type rdf:resource="http://purl.org/dc/dcmitype/StillImage"/>
      </cc:Work>
    </rdf:RDF>
  </metadata>
  <defs id="defs6"/>
  <g transform="matrix(1.25,0,0,-1.25,0,990)" id="g10">
    <g transform="scale(0.1,0.1)" id="g12">
      <path d="m 313.199,478.801 -31.199,3.597 -48,-3.597 -36,4.801 -12,-4.801 -7.199,-10.801 2.398,-19.199 14.403,-44.403 26.398,-42 85.199,-103.199 44.403,-40.801 L 414,159.602 549.602,26.3984 l 14.398,0 3.602,7.2032 -4.801,12 L 504,178.801 495.602,204 l -44.403,105.602 -39.597,69.597 -31.204,43.199 -24,32.403 -19.199,30 -20.398,27.597 -25.199,28.801 -24,16.801 -7.204,28.801 -6,32.398 -8.398,20.403 -22.801,6 -39.597,0 -43.204,-1.204 -20.398,-6 -8.398,-3.597 -70.8012,-9.602 -20.4024,-9.597 -7.1992,-9.602 -2.3984,-19.199 9.5976,14.398 13.2032,6 40.7968,0 43.2036,-1.199 21.597,-4.801 -18,21.602 -3.597,15.597" inkscape:connector-curvature="0" id="path14" style="stroke:#000000;stroke-width:8;stroke-miterlimit:4;stroke-dasharray:none;fill:none;stroke-opacity:1"/>
      <path d="m 163.199,608.398 3.602,1.204 3.597,7.199 L 166.801,624 162,628.801 156,624 154.801,615.602 158.398,612 162,608.398" inkscape:connector-curvature="0" id="path16" style="stroke:#000000;stroke-width:8;stroke-miterlimit:4;stroke-dasharray:none;fill:none;stroke-opacity:1"/>
      <path d="m 18,595.199 55.1992,1.199 43.1988,-6 12,-6 4.801,-14.398 1.199,-14.398 -13.199,-31.204 -4.801,-37.199 7.204,-45.597 4.796,-20.403 15.602,-40.801 18,-33.597 43.199,-73.199 56.403,-108 6,-40.801 -7.204,-70.801 -7.199,-6 -40.801,-4.8008 -46.796,1.1992 -2.403,-7.1992 -20.398,-2.3984 -3.602,-3.6016 4.801,-6 118.801,3.6016 L 385.199,24 l 6,4.8008 L 387.602,36 368.398,36 357.602,45.6016 288,48 279.602,52.8008 288,139.199 338.398,114 367.199,199.199 423.602,61.1992 442.801,36 462,25.1992 l 28.801,0 16.801,6 3.597,7.1992 -14.398,37.2032" inkscape:connector-curvature="0" id="path18" style="stroke:#000000;stroke-width:8;stroke-miterlimit:4;stroke-dasharray:none;fill:none;stroke-opacity:1"/>
      <path d="m 154.801,356.398 18,-100.796 -1.199,-76.801 L 158.398,99.6016 145.199,60 136.801,50.3984 70.8008,45.6016 63.6016,36 49.1992,34.8008 l -6,-3.6016 6,-6 50.4024,3.6016 15.5974,-1.1992" inkscape:connector-curvature="0" id="path20" style="stroke:#000000;stroke-width:8;stroke-miterlimit:4;stroke-dasharray:none;fill:none;stroke-opacity:1"/>
      <path d="m 164.398,44.3984 -24,-2.3984 0,0 -13.199,-3.6016 -8.398,-10.7968 6,-2.4024 8.398,8.4024 7.199,1.1992" inkscape:connector-curvature="0" id="path22" style="stroke:#000000;stroke-width:8;stroke-miterlimit:4;stroke-dasharray:none;fill:none;stroke-opacity:1"/>
      <path d="m 163.199,45.6016 30,114.0004 48,-27.602 8.403,50.398" inkscape:connector-curvature="0" id="path24" style="stroke:#000000;stroke-width:8;stroke-miterlimit:4;stroke-dasharray:none;fill:none;stroke-opacity:1"/>
      <path d="M 67.1992,44.3984 44.3984,42 l 0,0 L 30,38.3984 22.8008,27.6016 26.3984,25.1992 36,33.6016 46.8008,34.8008" inkscape:connector-curvature="0" id="path26" style="stroke:#000000;stroke-width:8;stroke-miterlimit:4;stroke-dasharray:none;fill:none;stroke-opacity:1"/>
      <path d="m 361.199,45.6016 25.199,-2.4024 13.204,-4.8008 8.398,-10.7968 -4.801,-2.4024 -9.597,8.4024 -7.204,1.1992" inkscape:connector-curvature="0" id="path28" style="stroke:#000000;stroke-width:8;stroke-miterlimit:4;stroke-dasharray:none;fill:none;stroke-opacity:1"/>
      <path d="m 768,487.199 -325.199,0 3.597,27.602 3.602,18 7.199,18 9.602,14.398 8.398,12 12,15.602 12,10.801 14.403,10.796 13.199,8.403 18,8.398 18,4.801 12,3.602 22.801,2.398 15.597,0 15.602,-2.398 16.801,-3.602 18,-3.602 12,-3.597 16.796,-12 14.403,-9.602 12,-9.597 10.801,-13.204 10.796,-15.597 L 750,554.398 757.199,540 762,519.602 766.801,504 768,487.199" inkscape:connector-curvature="0" id="path30" style="stroke:#000000;stroke-width:8;stroke-miterlimit:4;stroke-dasharray:none;fill:none;stroke-opacity:1"/>
      <path d="m 915.602,270 7.199,-18 3.597,-20.398 -1.199,-14.403 L 921.602,204 918,190.801 l 3.602,-19.199 4.796,-9.602 8.403,-3.602 8.398,-9.597 L 966,139.199 985.199,132 1002,126 l -1.2,-16.801 1.2,-21.5974 4.8,-16.8008 2.4,-14.4024 -1.2,-7.1992 0,-3.5976 7.2,-6 12,-4.8008 15.6,-8.4024 8.4,1.2032 0,3.5976 -7.2,4.8008 -7.2,7.1992 -8.4,6 -4.8,7.1992 0,10.8008 1.2,14.4024 2.4,18 0,21.5974 -1.2,13.199 -2.4,13.204 -8.4,6 -8.4,4.796 -14.402,6 -14.398,8.403 -15.602,8.398" inkscape:connector-curvature="0" id="path32" style="stroke:#000000;stroke-width:8;stroke-miterlimit:4;stroke-dasharray:none;fill:none;stroke-opacity:1"/>
      <path d="m 1026,126 4.8,-15.602 3.6,-13.1988 2.4,-9.5976 6,-9.6016 0,-6 1.2,-8.3984 -1.2,-8.4024 4.8,-6 12,-4.8008 12,-7.1992 10.8,-6 7.2,3.6016 -3.6,3.5976 -13.2,10.8008 -9.6,8.4024 -6,7.1992 -1.2,14.3984 -1.2,25.1988 -1.2,24 -3.6,21.602 -4.8,10.801 -14.4,7.199 -10.8,4.801 -13.2,4.801 -11.999,3.597 -12,4.801" inkscape:connector-curvature="0" id="path34" style="stroke:#000000;stroke-width:8;stroke-miterlimit:4;stroke-dasharray:none;fill:none;stroke-opacity:1"/>
      <path d="m 980.398,172.801 2.403,15.597 3.597,10.801 0,13.199 -1.199,15.602 -2.398,14.398 0,16.801 3.597,13.199 1.204,4.801 4.796,4.801 20.402,2.398 18,0 14.4,1.204 14.4,2.398 10.8,2.398 13.2,2.403 1.2,7.199 -4.8,9.602 -15.6,25.199 -4.8,6 -6,8.398 -7.2,9.602 0,18 -6,12 -6,9.597 -6,-2.398 4.8,-9.602 2.4,-6 1.2,-13.199 -3.6,-2.398 -8.4,8.398 -4.8,-1.199 3.6,-6 4.8,-8.398 6,-2.403 1.2,-4.801 3.6,-10.796 7.2,-13.204 3.6,-6 7.2,-15.597 -39.6,0 -23.998,3.597 -12,2.403 -12,3.597 L 960,312 l -4.801,-1.199 -7.199,8.398 4.801,7.199 9.597,8.403 3.602,7.199 -3.602,8.398 -2.398,14.403 2.398,3.597 -10.796,4.801 -8.403,1.199 -8.398,7.204 -2.403,2.398 -8.398,3.602 -13.199,4.796 -12,-1.199 -10.801,-6 -7.199,-6 -2.403,-10.801 -3.597,-3.597 1.199,-6 6,-16.801 8.398,-7.199 7.204,-6 3.597,-2.403 19.199,-12" inkscape:connector-curvature="0" id="path36" style="stroke:#000000;stroke-width:8;stroke-miterlimit:4;stroke-dasharray:none;fill:none;stroke-opacity:1"/>
      <path d="m 914.398,319.199 7.204,4.801 0,10.801 -8.403,7.199 -3.597,14.398 4.796,8.403 12,10.801 7.204,7.199" inkscape:connector-curvature="0" id="path38" style="stroke:#000000;stroke-width:8;stroke-miterlimit:4;stroke-dasharray:none;fill:none;stroke-opacity:1"/>
      <path d="m 937.199,366 -8.398,-9.602 1.199,7.204 2.398,4.796 4.801,-2.398" inkscape:connector-curvature="0" id="path40" style="stroke:#000000;stroke-width:8;stroke-miterlimit:4;stroke-dasharray:none;fill:none;stroke-opacity:1"/>
      <path d="m 920.398,314.398 1.204,-6 -13.204,-7.199 -9.597,-8.398 -12,-19.199 -18,-25.204 -10.801,-19.199 -3.602,-9.597 7.204,-26.403 6,-18 4.796,-13.199 6,-9.602 6,-14.398 0,-10.801 L 888,120 l 6,-9.602 9.602,-7.199 4.796,-4.8006 1.204,2.4026 -4.801,8.398 -6,6 L 894,126 l 1.199,6 2.403,2.398 6,-4.796 7.199,-7.204 4.801,4.801 -6,8.403 -12,9.597 -7.204,21.602 -6,22.801 L 882,204 l -3.602,10.801 -1.199,3.597 9.602,12 12,16.801 8.398,10.801 7.199,12" inkscape:connector-curvature="0" id="path42" style="stroke:#000000;stroke-width:8;stroke-miterlimit:4;stroke-dasharray:none;fill:none;stroke-opacity:1"/>
      <path d="M 1106.4,345.602 1102.8,320.398 1101.6,294" inkscape:connector-curvature="0" id="path44" style="stroke:#000000;stroke-width:8;stroke-miterlimit:4;stroke-dasharray:none;fill:none;stroke-opacity:1"/>
      <path d="m 1100.4,268.801 2.4,-42 6,-22.801 2.4,-28.801 1.2,-25.199 0,-18 -2.4,-13.199 -2.4,-14.403 -1.2,-5.9996 -7.2,-13.1992 -8.4,-7.1992 -6,-4.8008" inkscape:connector-curvature="0" id="path46" style="stroke:#000000;stroke-width:8;stroke-miterlimit:4;stroke-dasharray:none;fill:none;stroke-opacity:1"/>
      <path d="m 835.199,102 9.602,-6 8.398,-10.8008 8.403,-10.8008 3.597,-7.1992 33.602,8.4024 26.398,6 L 954,84 982.801,84 1002,81.6016" inkscape:connector-curvature="0" id="path48" style="stroke:#000000;stroke-width:8;stroke-miterlimit:4;stroke-dasharray:none;fill:none;stroke-opacity:1"/>
      <path d="m 1026,78 13.2,-3.6016" inkscape:connector-curvature="0" id="path50" style="stroke:#000000;stroke-width:8;stroke-miterlimit:4;stroke-dasharray:none;fill:none;stroke-opacity:1"/>
      <path d="m 1059.6,72 10.8,-1.1992 15.6,2.3984 9.6,4.8008 4.8,0 7.2,-4.8008 2.4,-8.3984 1.2,-8.4024 6,-7.1992 8.4,-9.5976 10.8,-4.8008 7.2,-2.4024 8.4,-1.1992 12,0 1.2,-10.8008 -13.2,-1.1992 -9.6,0 L 1128,24 l -16.8,3.6016 -10.8,6 -16.8,12 -6,0" inkscape:connector-curvature="0" id="path52" style="stroke:#000000;stroke-width:8;stroke-miterlimit:4;stroke-dasharray:none;fill:none;stroke-opacity:1"/>
      <path d="m 1047.6,45.6016 -13.2,0" inkscape:connector-curvature="0" id="path54" style="stroke:#000000;stroke-width:8;stroke-miterlimit:4;stroke-dasharray:none;fill:none;stroke-opacity:1"/>
      <path d="m 1009.2,42 -18.001,-3.6016 -6,0 -21.597,-3.5976 -24,-3.6016 L 906,26.3984 874.801,24 852,20.3984 l -18,0 -14.398,7.2032 -4.801,4.7968 -7.199,6 -2.403,7.2032 -2.398,4.7968 0,16.8008 3.597,10.8008 4.801,4.8008 12,14.3984 20.403,11.9998 15.597,8.403 8.403,3.597 16.796,8.403" inkscape:connector-curvature="0" id="path56" style="stroke:#000000;stroke-width:8;stroke-miterlimit:4;stroke-dasharray:none;fill:none;stroke-opacity:1"/>
      <path d="m 908.398,139.199 32.403,13.199" inkscape:connector-curvature="0" id="path58" style="stroke:#000000;stroke-width:8;stroke-miterlimit:4;stroke-dasharray:none;fill:none;stroke-opacity:1"/>
      <path d="m 1017.6,172.801 18,4.801 27.6,3.597 15.6,1.199 16.8,1.204 15.6,0" inkscape:connector-curvature="0" id="path60" style="stroke:#000000;stroke-width:8;stroke-miterlimit:4;stroke-dasharray:none;fill:none;stroke-opacity:1"/>
      <path d="M 986.398,183.602 990,206.398 998.398,238.801 1000.8,282" inkscape:connector-curvature="0" id="path62" style="stroke:#000000;stroke-width:8;stroke-miterlimit:4;stroke-dasharray:none;fill:none;stroke-opacity:1"/>
      <path d="M 1004.4,308.398 999.602,324 990,331.199 l -10.801,8.403 -10.801,13.199 0,10.801 4.801,9.597 9.602,9.602 8.398,12 15.601,20.398 3.6,19.199" inkscape:connector-curvature="0" id="path64" style="stroke:#000000;stroke-width:8;stroke-miterlimit:4;stroke-dasharray:none;fill:none;stroke-opacity:1"/>
      <path d="m 1027.2,474 1.2,21.602 -3.6,10.796 -25.198,2.403 -10.801,1.199 -2.403,4.801 -4.796,14.398 -12,15.602 0,4.801 9.597,9.597 6,8.403 3.602,9.597 3.597,7.199 1.204,10.801 1.199,7.199 4.801,7.204 2.398,7.199 13.2,10.801 4.8,3.597 8.4,3.602 10.8,4.801 14.4,1.199 13.2,0 14.4,-2.403 15.6,-7.199 12,-10.801 13.2,-15.597 4.8,-14.403 3.6,-9.597 3.6,-13.199 9.6,-220.801 -82.8,0 -3.6,194.398 8.4,8.403 7.2,6 4.8,7.199 1.2,10.801 -2.4,7.199 -7.2,3.597 -78.001,0" inkscape:connector-curvature="0" id="path66" style="stroke:#000000;stroke-width:8;stroke-miterlimit:4;stroke-dasharray:none;fill:none;stroke-opacity:1"/>
      <path d="m 1005.6,556.801 18,-1.199 -7.2,7.199 -7.2,2.398 -4.8,-6" inkscape:connector-curvature="0" id="path68" style="stroke:#000000;stroke-width:8;stroke-miterlimit:4;stroke-dasharray:none;fill:none;stroke-opacity:1"/>
      <path d="m 1142.4,374.398 12,-24 10.8,-16.796 9.6,-15.602 -13.2,-3.602 -19.2,-7.199 -32.4,-9.597 -21.6,-9.602 -18,-6 -24,2.398 -19.2,-6 6,-4.796 12,1.199 9.6,-1.199 -1.2,-7.204 -21.6,-8.398 -13.2,-1.199 -13.2,-1.199 1.2,-4.801 14.4,-2.403 16.8,3.602 12,1.199 21.6,9.602 13.2,2.398 18,4.801 28.8,4.801 25.2,4.801 20.4,4.796 27.6,7.204 21.6,10.796 1.2,7.204 1.2,7.199 -3.6,9.597 -24,37.204 -12,18 -26.4,32.398 -14.4,20.398 -12,18" inkscape:connector-curvature="0" id="path70" style="stroke:#000000;stroke-width:8;stroke-miterlimit:4;stroke-dasharray:none;fill:none;stroke-opacity:1"/>
      <path d="m 1027.2,472.801 -10.8,-2.403 -10.8,-3.597 -15.6,-8.403 -16.801,-10.796 -22.801,-18 -27.597,-16.801 -26.403,-18 -18,-10.801 -13.199,-8.398 -12,-9.602 -9.597,-30 -7.204,-34.801 -6,-37.199 -4.796,-32.398 -2.403,-20.403 -1.199,-12 -10.801,-25.199 0,-18 1.199,-13.199 4.801,-8.403 2.403,-7.199 9.597,2.403 -6,15.597 0,13.199 2.403,9.602 3.597,4.801 8.403,0 3.597,-14.403 7.199,1.204 0,18 -4.796,13.199 6,20.398 4.796,21.602 7.204,21.597 7.199,20.403 6,19.199 4.801,15.602 3.597,13.199 10.801,8.398" inkscape:connector-curvature="0" id="path72" style="stroke:#000000;stroke-width:8;stroke-miterlimit:4;stroke-dasharray:none;fill:none;stroke-opacity:1"/>
      <path d="M 955.199,374.398 990,393.602" inkscape:connector-curvature="0" id="path74" style="stroke:#000000;stroke-width:8;stroke-miterlimit:4;stroke-dasharray:none;fill:none;stroke-opacity:1"/>
    </g>
  </g>
</svg>
