<?xml version="1.0" encoding="UTF-8"?>
<!-- Created with Inkscape (http://www.inkscape.org/) -->
<svg xmlns:dc="http://purl.org/dc/elements/1.1/" xmlns:cc="http://creativecommons.org/ns#" xmlns:rdf="http://www.w3.org/1999/02/22-rdf-syntax-ns#" xmlns:svg="http://www.w3.org/2000/svg" xmlns="http://www.w3.org/2000/svg" xmlns:inkscape="http://www.inkscape.org/namespaces/inkscape" version="1.1" width="765" height="990" id="svg2" xml:space="preserve">
  <metadata id="metadata8">
    <rdf:RDF>
      <cc:Work rdf:about="">
        <dc:format>image/svg+xml</dc:format>
        <dc:type rdf:resource="http://purl.org/dc/dcmitype/StillImage"/>
      </cc:Work>
    </rdf:RDF>
  </metadata>
  <defs id="defs6"/>
  <g transform="matrix(1.25,0,0,-1.25,0,990)" id="g10">
    <g transform="scale(0.1,0.1)" id="g12">
      <path d="m 846,1015.2 -36,-38.399 -10.801,-48 8.403,-48 20.398,-36 L 884.398,792 984,736.801 l 170.4,-62.403 204,-42 202.8,-24 66,-6 42,-2.398 20.4,4.801 12,13.199 0,14.398 -14.4,12 -80.4,15.602 -51.6,24 -30,20.398 -72,60 -106.8,98.403 -108,84 -98.4,53.999 -96,38.4 -72,21.6 -62.398,3.6 -54,-12 -42,-21.6 -30,-18 -14.403,-15.601 -21.597,-2.398 -24,5.999 -2.403,21.6 116.403,94.8 24,27.6 14.398,32.4 3.602,30 -3.602,27.6" inkscape:connector-curvature="0" id="path14" style="stroke:#000000;stroke-width:8;stroke-miterlimit:4;stroke-dasharray:none;fill:none;stroke-opacity:1"/>
      <path d="M 849.602,1255.2 972,1197.6 l 128.4,-46.8 114,-24 118.8,-9.6 90,-2.4 66,9.6 -92.4,14.4 -105.6,8.4 -116.4,18 -84,24 -100.8,36 -78,32.4 -48,33.6 162,-63.6 102,-16.8 52.8,-9.6 114,-8.4 104.4,4.8 62.4,7.2 51.6,2.4 -110.4,9.6 -96,8.4 -92.4,2.4 -81.6,13.2 -98.4,20.4 -90.002,26.4 -60,27.6 -40.796,26.4 -33.602,13.2 -28.801,2.4 -67.199,-9.6 -50.398,-18 -20.403,-14.4 -12,-20.4 -3.597,-7.2 0,-22.8 15.597,-24 18,-6 18,-7.2 32.403,-8.4 36,0 21.597,8.4 16.801,3.6 9.602,-14.4 3.597,-27.6 -33.597,-38.4 -54,-39.6 -50.403,-46.8 -24,-33.6 -18,-26.4 -8.398,-48.002 4.801,-27.597 36,-54 92.398,-102 57.602,-50.403 66,-48 94.796,-42 57.602,-84 60,-68.398 38.4,-42 12,-26.398 18,-195.602 0,-124.8008 -6,-21.5976 -21.6,-6 -128.402,-18 L 984,42 l -18,-2.3984 -8.398,-12 0,-18.00004 16.796,9.59764 21.602,-6" inkscape:connector-curvature="0" id="path16" style="stroke:#000000;stroke-width:8;stroke-miterlimit:4;stroke-dasharray:none;fill:none;stroke-opacity:1"/>
      <path d="m 1082.4,45.6016 -74.4,-12 -12,-8.4024 3.602,-15.59764 22.798,12.00004 18,-12.00004 120,15.59764 92.4,-15.59764 3.6,15.59764 -6,14.4024 -24,6 -27.6,9.5976 -8.4,2.4024 -9.6,18 -2.4,308.3984 6,36 0,12 -21.6,39.602 -20.4,34.796 L 1072.8,618" inkscape:connector-curvature="0" id="path18" style="stroke:#000000;stroke-width:8;stroke-miterlimit:4;stroke-dasharray:none;fill:none;stroke-opacity:1"/>
      <path d="m 1100.4,584.398 108,-12 90,3.602 112.8,12 57.6,-51.602 68.4,-62.398 32.4,-2.398 33.6,8.398 36,30 6,24 -72,74.398" inkscape:connector-curvature="0" id="path20" style="stroke:#000000;stroke-width:8;stroke-miterlimit:4;stroke-dasharray:none;fill:none;stroke-opacity:1"/>
      <path d="m 627.602,1291.2 -260.403,-158.4 300,98.4" inkscape:connector-curvature="0" id="path22" style="stroke:#000000;stroke-width:8;stroke-miterlimit:4;stroke-dasharray:none;fill:none;stroke-opacity:1"/>
      <path d="m 631.199,1249.2 -264,-116.4" inkscape:connector-curvature="0" id="path24" style="stroke:#000000;stroke-width:8;stroke-miterlimit:4;stroke-dasharray:none;fill:none;stroke-opacity:1"/>
      <path d="m 687.602,1297.2 -14.403,-9.6 8.403,-14.4 15.597,6 -6,12" inkscape:connector-curvature="0" id="path26" style="stroke:#000000;stroke-width:8;stroke-miterlimit:4;stroke-dasharray:none;fill:none;stroke-opacity:1"/>
      <path d="m 1261.2,37.1992 25.2,-6 12,-9.5976 2.4,-6 -14.4,-6.00004 -21.6,3.59764" inkscape:connector-curvature="0" id="path28" style="stroke:#000000;stroke-width:8;stroke-miterlimit:4;stroke-dasharray:none;fill:none;stroke-opacity:1"/>
      <path d="m 813.602,710.398 62.398,-120 72,-108 6,-26.398 -194.398,-350.398 -8.403,-14.4028 -9.597,-15.5976 -20.403,-6 -72,-12 -48,-8.4024 -18,-9.5976 -12,-2.4024 -18,-3.5976 -6,-6 -6,-14.4024 18,8.4024 21.602,-8.4024" inkscape:connector-curvature="0" id="path30" style="stroke:#000000;stroke-width:8;stroke-miterlimit:4;stroke-dasharray:none;fill:none;stroke-opacity:1"/>
      <path d="m 613.199,31.1992 -12,0 -15.597,-3.5976 -4.801,-12 4.801,-2.4024 18,6" inkscape:connector-curvature="0" id="path32" style="stroke:#000000;stroke-width:8;stroke-miterlimit:4;stroke-dasharray:none;fill:none;stroke-opacity:1"/>
      <path d="m 615.602,33.6016 21.597,6 L 684,42" inkscape:connector-curvature="0" id="path34" style="stroke:#000000;stroke-width:8;stroke-miterlimit:4;stroke-dasharray:none;fill:none;stroke-opacity:1"/>
      <path d="m 607.199,19.1992 24,-9.59764 110.403,12.00004 18,3.5976 90,-15.59764 2.398,15.59764 -2.398,14.4024 -27.602,6 -36,12" inkscape:connector-curvature="0" id="path36" style="stroke:#000000;stroke-width:8;stroke-miterlimit:4;stroke-dasharray:none;fill:none;stroke-opacity:1"/>
      <path d="M 783.602,61.1992 781.199,75.6016 966,384 l 44.4,80.398 0,27.602 -32.4,112.801" inkscape:connector-curvature="0" id="path38" style="stroke:#000000;stroke-width:8;stroke-miterlimit:4;stroke-dasharray:none;fill:none;stroke-opacity:1"/>
      <path d="m 858,37.1992 21.602,-6 12,-9.5976 2.398,-6 L 879.602,9.60156 858,13.1992" inkscape:connector-curvature="0" id="path40" style="stroke:#000000;stroke-width:8;stroke-miterlimit:4;stroke-dasharray:none;fill:none;stroke-opacity:1"/>
      <path d="m 471.602,290.398 24,-14.398 18,-7.199 9.597,0 8.403,9.597 12,12 60,105.602 0,14.398 -3.602,6 -4.801,8.403 -21.597,12 -490.8012,231.597 -12,2.403 -14.4024,2.398 -15.5976,-4.801 -14.4024,-9.597 -6,-9.602 -6,-18 0,-12 6,-14.398 8.4024,-12 15.5976,-14.403 427.2036,-288" inkscape:connector-curvature="0" id="path42" style="stroke:#000000;stroke-width:8;stroke-miterlimit:4;stroke-dasharray:none;fill:none;stroke-opacity:1"/>
    </g>
  </g>
</svg>
