<?xml version="1.0" encoding="UTF-8"?>
<!-- Created with Inkscape (http://www.inkscape.org/) -->
<svg xmlns:dc="http://purl.org/dc/elements/1.1/" xmlns:cc="http://creativecommons.org/ns#" xmlns:rdf="http://www.w3.org/1999/02/22-rdf-syntax-ns#" xmlns:svg="http://www.w3.org/2000/svg" xmlns="http://www.w3.org/2000/svg" xmlns:inkscape="http://www.inkscape.org/namespaces/inkscape" version="1.1" width="765" height="990" id="svg2" xml:space="preserve">
  <metadata id="metadata8">
    <rdf:RDF>
      <cc:Work rdf:about="">
        <dc:format>image/svg+xml</dc:format>
        <dc:type rdf:resource="http://purl.org/dc/dcmitype/StillImage"/>
      </cc:Work>
    </rdf:RDF>
  </metadata>
  <defs id="defs6"/>
  <g transform="matrix(1.25,0,0,-1.25,0,990)" id="g10">
    <g transform="scale(0.1,0.1)" id="g12">
      <path d="m 1005.6,1009.2 20.4,36 27.6,27.6 38.4,8.4 33.6,-6 22.8,-21.6 12,-16.8 9.6,-41.999 0,-484.801 -1155.6016,0 0,484.801 12,41.999 8.4024,16.8 24,21.6 32.3984,6 41.9998,-8.4 27.602,-27.6 18,-32.4" inkscape:connector-curvature="0" id="path14" style="stroke:#000000;stroke-width:8;stroke-miterlimit:4;stroke-dasharray:none;fill:none;stroke-opacity:1"/>
      <path d="m 624,1452 -48,0 -18,-2.4 -32.398,-7.2 -21.602,-2.4 -18,-6 -18,-6 -24,-6 -20.398,-9.6 -20.403,-8.4 -19.199,-8.4 -18,-13.2 -16.801,-12 -18,-10.8 -15.597,-15.6 -32.403,-30 -12,-14.4 -12,-12 -20.398,-30 -18,-30 -9.602,-18 -6,-20.4 -12,-42 -9.597,-18 -2.403,-26.4 -2.398,-19.2 0,-82.8 2.398,-21.601 12,-40.801 6,-27.597 6,-14.403 12,-27.597 6,-18 18,-18 6,-14.403 14.403,-18 12,-14.398 15.597,-21.602 30,-27.597 20.403,-14.403 21.597,-14.398 12,-9.602 16.801,-12 18,-8.398 27.602,-9.602 18,-8.398 22.796,-6 L 492,651.602 513.602,644.398 534,642 l 24,-2.398 44.398,0 L 624,642 l 4.801,-2.398 24,2.398 18,2.398 24,7.204 12,2.398 24,6 18,8.398 26.398,9.602 18,8.398 18,12 12,9.602 24,14.398 18,14.403 30,27.597 15.602,21.602 10.801,14.398 15.597,18 8.403,14.403 15.597,18 8.403,18 9.597,27.597 8.403,14.403 6,27.597 9.598,40.801 2.4,21.601 0,82.8 -2.4,19.2 -3.598,26.4 -6,18 -6,30 -14.403,32.4 -9.597,18 -12,20.4 -26.403,39.6 -9.597,12 -12,14.4 -34.801,30 -15.602,15.6 -14.398,10.8 -18,12 -21.602,13.2 -14.398,8.4 -24,8.4 -18,9.6 -26.403,6 -15.597,6 -20.403,6 -18,2.4 -18,7.2 -36,2.4 -20.398,0" inkscape:connector-curvature="0" id="path16" style="stroke:#000000;stroke-width:8;stroke-miterlimit:4;stroke-dasharray:none;fill:none;stroke-opacity:1"/>
      <path d="m 951.602,12 -703.204,0 8.403,60 8.398,38.398 15.602,38.403 20.398,30 18,27.597 24,32.403 27.602,24 32.398,24 26.403,18 38.398,18 39.602,12 26.398,6 48,6 36,0 32.398,-6 36,-6 39.602,-8.403 26.398,-9.597 36,-24 30,-21.602 26.403,-20.398 24,-30 24,-32.403 20.398,-32.398 15.602,-30 12,-45.6016 L 949.199,48 951.602,12" inkscape:connector-curvature="0" id="path18" style="stroke:#000000;stroke-width:8;stroke-miterlimit:4;stroke-dasharray:none;fill:none;stroke-opacity:1"/>
      <path d="m 2229.6,25.1992 -926.4,0 223.2,97.1988 -134.4,430.801 -2.4,38.403 -3.6,36 6,34.796 10.8,19.204 8.4,15.597 19.2,7.199 15.6,6 20.4,0 12,-3.597 9.6,-2.403 15.6,-7.199 26.4,-19.199 255.6,-316.801 25.2,499.199 7.2,70.801 12,54 13.2,32.401 31.2,28.8 26.4,19.2 19.2,9.6 25.2,6 22.8,0 22.8,-2.4 40.8,-22.8 22.8,-25.2 15.6,-28.8 19.2,-39.602 9.6,-48 6,-46.796 3.6,-32.403 0,-664.801 -6,-26.398 -16.8,-25.199 144,-93.6018" inkscape:connector-curvature="0" id="path20" style="stroke:#000000;stroke-width:8;stroke-miterlimit:4;stroke-dasharray:none;fill:none;stroke-opacity:1"/>
      <path d="m 1804.8,780 -86.4,0 0,58.801 13.2,79.199 19.2,67.199 25.2,64.801 32.4,44.4 28.8,42 37.2,40.8 32.4,45.6 15.6,37.2 10.8,45.6 6,34.8 -6,28.8 -10.8,38.4 -15.6,28.8 -19.2,19.2 -13.2,3.6 -44.4,6 -40.8,0 -45.6,-9.6 -25.2,-6 -21.6,-9.6 -20.4,-15.6 -15.6,-13.2 -12,-13.2 -26.4,-13.2 -28.8,-12 -15.6,-9.6 -15.6,-13.2 -10.8,-9.6 -8.4,-12 -7.2,-7.2 -2.4,-9.6 18,7.2 22.8,2.4 19.2,3.6 15.6,0 22.8,-3.6" inkscape:connector-curvature="0" id="path22" style="stroke:#000000;stroke-width:8;stroke-miterlimit:4;stroke-dasharray:none;fill:none;stroke-opacity:1"/>
      <path d="m 1549.2,1315.2 22.8,-9.6 19.2,-9.6 18,-16.8 22.8,-12 13.2,-22.8 15.6,-19.2 15.6,-25.2 28.8,-22.8 28.8,-12 26.4,-22.8 19.2,-25.2 12,-16.8 6,-15.6" inkscape:connector-curvature="0" id="path24" style="stroke:#000000;stroke-width:8;stroke-miterlimit:4;stroke-dasharray:none;fill:none;stroke-opacity:1"/>
      <path d="m 2114.4,780 82.8,0 -6,345.6 -34.8,138 -44.4,73.2 -51.6,55.2 -63.6,38.4 -67.2,25.2 -73.2,6" inkscape:connector-curvature="0" id="path26" style="stroke:#000000;stroke-width:8;stroke-miterlimit:4;stroke-dasharray:none;fill:none;stroke-opacity:1"/>
      <path d="m 1722,1378.8 12,-6 16.8,6 -16.8,13.2 -12,-15.6" inkscape:connector-curvature="0" id="path28" style="stroke:#000000;stroke-width:8;stroke-miterlimit:4;stroke-dasharray:none;fill:none;stroke-opacity:1"/>
    </g>
  </g>
</svg>
