<?xml version="1.0" encoding="UTF-8"?>
<!-- Created with Inkscape (http://www.inkscape.org/) -->
<svg xmlns:dc="http://purl.org/dc/elements/1.1/" xmlns:cc="http://creativecommons.org/ns#" xmlns:rdf="http://www.w3.org/1999/02/22-rdf-syntax-ns#" xmlns:svg="http://www.w3.org/2000/svg" xmlns="http://www.w3.org/2000/svg" xmlns:inkscape="http://www.inkscape.org/namespaces/inkscape" version="1.1" width="765" height="990" id="svg2" xml:space="preserve">
  <metadata id="metadata8">
    <rdf:RDF>
      <cc:Work rdf:about="">
        <dc:format>image/svg+xml</dc:format>
        <dc:type rdf:resource="http://purl.org/dc/dcmitype/StillImage"/>
      </cc:Work>
    </rdf:RDF>
  </metadata>
  <defs id="defs6"/>
  <g transform="matrix(1.25,0,0,-1.25,0,990)" id="g10">
    <g transform="scale(0.1,0.1)" id="g12">
      <path d="m 3859.2,1116 -98.4,19.2 -70.8,12 -51.6,19.2 -63.6,26.4 -67.2,31.2 -124.8,70.8 -127.2,69.6 -64.8,22.8 -76.8,28.8 -76.8,13.2 -57.6,12 -69.6,0 -70.8,-8.4 -70.8,-22.8 -69.6,-34.8 -76.8,-57.6 -51.6,-48 -50.4,-32.4 -42,-28.8 -34.8,-9.6 -38.4,-15.6 -38.4,-13.2 -63.6,-9.6" inkscape:connector-curvature="0" id="path14" style="stroke:#000000;stroke-width:8;stroke-miterlimit:4;stroke-dasharray:none;fill:none;stroke-opacity:1"/>
      <path d="m 2368.8,1173.6 55.2,0 48,2.4 48,-9.6 82.8,-19.2 63.6,-25.2 70.8,-15.6 76.8,-19.2 48,-9.6 86.4,-3.6 111.6,9.6 54,6 178.8,22.8 70.8,9.6 63.6,7.2 64.8,6 127.2,6 64.8,-6 54,-6 54,-7.2 28.8,0" inkscape:connector-curvature="0" id="path16" style="stroke:#000000;stroke-width:8;stroke-miterlimit:4;stroke-dasharray:none;fill:none;stroke-opacity:1"/>
      <path d="m 2752.8,1396.8 -21.6,-32.4 -7.2,-24 -9.6,-32.4 -3.6,-32.4 13.2,-57.6 19.2,-28.8 19.2,-28.8 32.4,-25.2 34.8,-19.2 73.2,-9.6 54,6 42,6 51.6,36 32.4,38.4 15.6,28.8 9.6,60 -6,58.8 -16.8,31.2 -15.6,25.2 -32.4,32.4" inkscape:connector-curvature="0" id="path18" style="stroke:#000000;stroke-width:8;stroke-miterlimit:4;stroke-dasharray:none;fill:none;stroke-opacity:1"/>
      <path d="m 1147.2,528 57.6,-163.199 0,-38.403 -6,-22.796 L 1095.6,115.199 1080,90 l -21.6,-9.6016 -22.8,-10.7968 -124.799,-6 -28.801,-6 -19.199,-13.2032 -13.199,-15.5976 -2.403,-9.6016 15.602,0 15.597,15.6016 16.801,0 6,-13.1992 117.601,7.1992 76.8,-9.6016 19.2,2.4024 13.2,22.7968 15.6,-28.7968 13.2,0 3.6,16.7968 -13.2,25.2032 -6,25.1992 15.6,42.0002 48,90 22.8,50.398 15.6,19.199 19.2,19.204 0,32.398 54,96" inkscape:connector-curvature="0" id="path20" style="stroke:#000000;stroke-width:8;stroke-miterlimit:4;stroke-dasharray:none;fill:none;stroke-opacity:1"/>
      <path d="m 1143.6,988.801 -57.6,-36 -63.6,-18 -34.798,-20.403 -15.602,-27.597 12,-32.403 28.8,-42 54,-34.796 825.6,-243.602 42,-3.602 40.8,0 32.4,13.204 9.6,13.199 L 1998,572.398 1754.4,712.801 1600.8,822 1543.2,879.602 1506,918 l -39.6,25.199 -48,32.403 -44.4,28.798 -63.6,25.2 -44.4,10.8 -48,6 -57.6,-3.6 -42,-25.2 -54,-38.401 -19.2,-7.199 -22.8,3.602 -13.2,16.796 0,18.002 13.2,22.8 121.2,249.6 3.6,28.8 3.6,32.4 -3.6,31.2 -12,34.8 -16.8,26.4 -25.2,13.2 -28.8,6 -28.8,0 -32.4,-6 L 972,1432.8 949.199,1410 936,1394.4 l -12,-25.2 -7.199,-15.6 0,-32.4 13.199,-32.4 13.199,-13.2 28.801,-15.6 15.602,-6 25.198,-9.6 0,-25.2 -9.6,-51.6 L 978,1116 936,1071.6 891.602,1027.2 834,963.602 l -19.199,-42 -6,-48 6,-42 25.199,-48 67.199,-73.204 236.401,-180 132,-73.199 44.4,-32.398 32.4,-31.199 28.8,-51.602 21.6,-44.398 38.4,-172.801 0,-22.801 -15.6,-9.6016 -22.8,-9.5976 -163.2,-21.6016 -15.6,-10.8008 -12,-18 -3.6,-13.1992 12,-3.5976 16.8,25.1992 6,0 6,-25.1992 163.2,16.7968 57.6,-13.1992 15.6,6 3.6,19.1992 25.2,-22.7968 13.2,0 3.6,13.1992 -3.6,13.1992 -25.2,25.1992 -16.8,35.9998 -8.4,165.602 8.4,32.398 -8.4,25.199 2.4,74.403 6,21.597 105.6,7.204 38.4,8.398" inkscape:connector-curvature="0" id="path22" style="stroke:#000000;stroke-width:8;stroke-miterlimit:4;stroke-dasharray:none;fill:none;stroke-opacity:1"/>
      <path d="m 1866,470.398 68.4,9.602 28.8,9.602 19.2,9.597 -3.6,9.602 -105.6,32.398" inkscape:connector-curvature="0" id="path24" style="stroke:#000000;stroke-width:8;stroke-miterlimit:4;stroke-dasharray:none;fill:none;stroke-opacity:1"/>
      <path d="m 1514.4,607.199 195.6,-246 15.6,-15.597 16.8,-3.602 12,0 9.6,9.602 0,22.796" inkscape:connector-curvature="0" id="path26" style="stroke:#000000;stroke-width:8;stroke-miterlimit:4;stroke-dasharray:none;fill:none;stroke-opacity:1"/>
      <path d="M 1594.8,591.602 1760.4,378 l 16.8,-10.801 15.6,-2.398 13.2,6 6,9.597 0,9.602" inkscape:connector-curvature="0" id="path28" style="stroke:#000000;stroke-width:8;stroke-miterlimit:4;stroke-dasharray:none;fill:none;stroke-opacity:1"/>
      <path d="M 1662,578.398 1812,396 l 9.6,-9.602 13.2,-2.398 13.2,12 0,16.801" inkscape:connector-curvature="0" id="path30" style="stroke:#000000;stroke-width:8;stroke-miterlimit:4;stroke-dasharray:none;fill:none;stroke-opacity:1"/>
      <path d="m 1738.8,560.398 111.6,-147.597 15.6,-9.602 10.8,0 9.6,6 6,9.602 0,9.597 -86.4,118.801" inkscape:connector-curvature="0" id="path32" style="stroke:#000000;stroke-width:8;stroke-miterlimit:4;stroke-dasharray:none;fill:none;stroke-opacity:1"/>
      <path d="m 981.602,1359.6 6,13.2 13.198,8.4 15.6,3.6 13.2,-6 2.4,-13.2 -6,-9.6 -13.2,-9.6 -15.601,-2.4 -9.597,9.6 -3.602,19.2" inkscape:connector-curvature="0" id="path34" style="stroke:#000000;stroke-width:8;stroke-miterlimit:4;stroke-dasharray:none;fill:none;stroke-opacity:1"/>
      <path d="m 1054.8,1094.4 246,-3.6 0,163.2 -12,48 -36,57.6 -25.2,28.8 -26.4,19.2 -22.8,15.6 -31.2,16.8 -22.8,6 -21.6,6 -19.2,0 -19.2,3.6" inkscape:connector-curvature="0" id="path36" style="stroke:#000000;stroke-width:8;stroke-miterlimit:4;stroke-dasharray:none;fill:none;stroke-opacity:1"/>
      <path d="m 926.398,1369.2 -19.199,-15.6 -19.199,-19.2 -25.199,-16.8 -42,-15.6 -57.602,-34.8 -50.398,-45.6 -34.801,-40.8 -45.602,-67.2 -19.199,-67.2 -9.597,-38.4 0,-15.602 9.597,-7.199 6,7.199 22.801,56.402 44.398,70.8 45.602,61.2 38.398,34.8 44.403,32.4 54,25.2 36,9.6 25.199,6" inkscape:connector-curvature="0" id="path38" style="stroke:#000000;stroke-width:8;stroke-miterlimit:4;stroke-dasharray:none;fill:none;stroke-opacity:1"/>
      <path d="m 626.398,994.801 15.602,9.599 48,70.8 32.398,44.4 40.801,48 48,36 44.403,21.6 39.597,19.2 76.801,6 28.8,-2.4" inkscape:connector-curvature="0" id="path40" style="stroke:#000000;stroke-width:8;stroke-miterlimit:4;stroke-dasharray:none;fill:none;stroke-opacity:1"/>
      <path d="m 3877.2,78 -99.6,19.1992 -69.6,13.1988 -51.6,18 -63.6,26.403 -67.2,31.199 -124.8,70.801 -128.4,70.801 -63.6,22.796 -76.8,28.801 -76.8,12 -57.6,13.199 -70.8,0 -69.6,-9.597 -70.8,-22.801 -69.6,-34.801 -76.8,-57.597 -51.6,-48 -50.4,-32.403 -42,-28.801 -34.8,-9.597 -38.4,-15.602 -38.4,-13.199 -63.6,-9.602" inkscape:connector-curvature="0" id="path42" style="stroke:#000000;stroke-width:8;stroke-miterlimit:4;stroke-dasharray:none;fill:none;stroke-opacity:1"/>
      <path d="m 2386.8,135.602 55.2,0 48,3.597 48,-10.801 82.8,-18 63.6,-26.398 70.8,-15.6016 76.8,-19.1992 48,-9.5976 86.4,-3.6016 111.6,9.6016 54,6 178.8,22.7968 70.8,9.6016 63.6,7.1992 63.6,6 128.4,5.9998 64.8,-5.9998 54,-6 54,-7.1992 28.8,0" inkscape:connector-curvature="0" id="path44" style="stroke:#000000;stroke-width:8;stroke-miterlimit:4;stroke-dasharray:none;fill:none;stroke-opacity:1"/>
      <path d="M 2770.8,360 2749.2,327.602 2742,302.398 2732.4,270 2730,237.602 2742,180 l 19.2,-28.801 19.2,-28.801 32.4,-25.1988 34.8,-19.1992 73.2,-9.6016 55.2,6 40.8,6 51.6,35.9996 32.4,38.403 15.6,28.801 9.6,61.199 -6,57.597 -16.8,31.204 -15.6,26.398 -32.4,31.199" inkscape:connector-curvature="0" id="path46" style="stroke:#000000;stroke-width:8;stroke-miterlimit:4;stroke-dasharray:none;fill:none;stroke-opacity:1"/>
      <path d="m 769.199,241.199 -754.8006,0 9.6016,63.602 9.6016,42 15.5976,40.801 L 72,420 91.1992,448.801 116.398,483.602 145.199,510 180,535.199 l 28.801,19.199 42,19.204 42,13.199 27.597,6 51.602,6 38.398,0 36,-6 38.403,-6 40.801,-10.801 28.796,-9.602 38.403,-25.199 32.398,-22.801 28.801,-21.597 25.199,-32.403 26.403,-34.796 21.597,-34.801 15.602,-32.403 13.199,-48 9.602,-36 3.597,-37.199" inkscape:connector-curvature="0" id="path48" style="stroke:#000000;stroke-width:8;stroke-miterlimit:4;stroke-dasharray:none;fill:none;stroke-opacity:1"/>
      <path d="M 1537.2,1420.8 1734,978 l 98.4,0 -196.8,442.8 -98.4,0" inkscape:connector-curvature="0" id="path50" style="stroke:#000000;stroke-width:8;stroke-miterlimit:4;stroke-dasharray:none;fill:none;stroke-opacity:1"/>
      <path d="m 1834.8,1420.8 196.8,-442.8 98.4,0 -196.8,442.8 -98.4,0" inkscape:connector-curvature="0" id="path52" style="stroke:#000000;stroke-width:8;stroke-miterlimit:4;stroke-dasharray:none;fill:none;stroke-opacity:1"/>
    </g>
  </g>
</svg>
