<?xml version="1.0" encoding="UTF-8"?>
<!-- Created with Inkscape (http://www.inkscape.org/) -->
<svg xmlns:dc="http://purl.org/dc/elements/1.1/" xmlns:cc="http://creativecommons.org/ns#" xmlns:rdf="http://www.w3.org/1999/02/22-rdf-syntax-ns#" xmlns:svg="http://www.w3.org/2000/svg" xmlns="http://www.w3.org/2000/svg" xmlns:inkscape="http://www.inkscape.org/namespaces/inkscape" version="1.1" width="765" height="990" id="svg2" xml:space="preserve">
  <metadata id="metadata8">
    <rdf:RDF>
      <cc:Work rdf:about="">
        <dc:format>image/svg+xml</dc:format>
        <dc:type rdf:resource="http://purl.org/dc/dcmitype/StillImage"/>
      </cc:Work>
    </rdf:RDF>
  </metadata>
  <defs id="defs6"/>
  <g transform="matrix(1.25,0,0,-1.25,0,990)" id="g10">
    <g transform="scale(0.1,0.1)" id="g12">
      <path d="m 481.199,61.1992 192,0 -3.597,70.8008 19.199,92.398 19.199,54 38.398,86.403 175.204,309.597 9.597,68.403 3.602,31.199 -6,57.602 -9.602,38.398 -16.801,48 -28.796,44.398 -21.602,26.403 -57.602,53.999 -45.597,15.6 -92.403,9.6 -76.796,-9.6 -31.204,-12 L 508.801,1020 474,981.602 458.398,960 442.801,940.801" inkscape:connector-curvature="0" id="path14" style="stroke:#000000;stroke-width:8;stroke-miterlimit:4;stroke-dasharray:none;fill:none;stroke-opacity:1"/>
      <path d="m 433.199,937.199 -28.801,-12 L 91.1992,864 62.3984,841.199 39.6016,825.602 20.3984,790.801 l -6,-51.602 2.4024,-13.199 9.5976,-6 7.2032,0 15.5976,6 6,28.801 19.1992,28.801 28.8006,25.199 32.403,10.801 42,12 259.199,34.796 6,3.602 38.398,-6" inkscape:connector-curvature="0" id="path16" style="stroke:#000000;stroke-width:8;stroke-miterlimit:4;stroke-dasharray:none;fill:none;stroke-opacity:1"/>
      <path d="m 436.801,937.199 44.398,-76.801 0,-40.796" inkscape:connector-curvature="0" id="path18" style="stroke:#000000;stroke-width:8;stroke-miterlimit:4;stroke-dasharray:none;fill:none;stroke-opacity:1"/>
      <path d="m 62.3984,758.398 28.8008,19.204 47.9998,13.199 123.602,12 126,16.801 96,0 24,-3.602 51.597,-13.199 90,-15.602 48,-3.597 34.801,3.597 38.403,9.602 22.796,-13.199 L 804,768 807.602,729.602 804,697.199 788.398,658.801 646.801,474 577.199,361.199 l -28.801,-57.597 -34.796,-66 -20.403,-86.403 -12,-89.9998" inkscape:connector-curvature="0" id="path20" style="stroke:#000000;stroke-width:8;stroke-miterlimit:4;stroke-dasharray:none;fill:none;stroke-opacity:1"/>
      <path d="M 756,1054.8 921.602,994.801 1084.8,954 l 67.2,-13.199 57.6,-3.602 70.8,0 76.8,3.602 56.4,13.199 58.8,12 6,-6 -6,-22.801 -22.8,-16.801 -76.8,-15.597 -76.8,-9.602 -86.4,0 -73.2,7.199 -124.8,22.801 -69.6,21.602" inkscape:connector-curvature="0" id="path22" style="stroke:#000000;stroke-width:8;stroke-miterlimit:4;stroke-dasharray:none;fill:none;stroke-opacity:1"/>
      <path d="M 852,994.801 976.801,927.602 1101.6,864 l 76.8,-38.398 57.6,-22.801 63.6,-15.602 44.4,-7.199 82.8,-8.398 34.8,6 16.8,2.398 12,-8.398 3.6,-20.403 -48,-15.597 -57.6,-6 -63.6,9.597 -88.8,19.199 -76.8,25.204 -74.4,36 L 906,920.398" inkscape:connector-curvature="0" id="path24" style="stroke:#000000;stroke-width:8;stroke-miterlimit:4;stroke-dasharray:none;fill:none;stroke-opacity:1"/>
      <path d="M 583.199,975.602 564,972 l -15.602,-18 0,-22.801 15.602,-16.801 21.602,0 22.796,10.801 3.602,12 -6,19.199 -16.801,19.204" inkscape:connector-curvature="0" id="path26" style="stroke:#000000;stroke-width:8;stroke-miterlimit:4;stroke-dasharray:none;fill:none;stroke-opacity:1"/>
      <path d="m 2416.8,781.199 -754.8,0 9.6,63.602 10.8,42 15.6,40.801 21.6,32.398 19.2,28.801 26.4,34.799 28.8,26.4 34.8,25.2 28.8,19.2 42,19.2 40.8,13.2 28.8,6 51.6,6 38.4,0 34.8,-6 38.4,-6 42,-10.8 28.8,-8.4 38.4,-26.4 31.2,-22.8 28.8,-21.6 26.4,-32.4 25.2,-34.798 22.8,-34.801 15.6,-32.403 13.2,-48 8.4,-34.796 3.6,-38.403" inkscape:connector-curvature="0" id="path28" style="stroke:#000000;stroke-width:8;stroke-miterlimit:4;stroke-dasharray:none;fill:none;stroke-opacity:1"/>
      <path d="m 1672.8,586.801 255.6,-576.0002 127.2,0 -255.6,576.0002 -127.2,0" inkscape:connector-curvature="0" id="path30" style="stroke:#000000;stroke-width:8;stroke-miterlimit:4;stroke-dasharray:none;fill:none;stroke-opacity:1"/>
      <path d="m 2059.2,586.801 255.6,-576.0002 128.4,0 -255.6,576.0002 -128.4,0" inkscape:connector-curvature="0" id="path32" style="stroke:#000000;stroke-width:8;stroke-miterlimit:4;stroke-dasharray:none;fill:none;stroke-opacity:1"/>
      <path d="m 4308,825.602 -98.4,20.398 -70.8,12 -51.6,19.199 -63.6,25.199 -67.2,32.403 -124.8,70.799 -127.2,69.6 -64.8,22.8 -76.8,28.8 -76.8,13.2 -57.6,12 -69.6,0 -70.8,-9.6 -69.6,-22.8 -70.8,-34.8 -76.8,-57.6 -50.4,-48.001 -51.6,-31.199 -42,-28.801 -34.8,-9.597 -38.4,-15.602 -38.4,-13.199 -63.6,-9.602" inkscape:connector-curvature="0" id="path34" style="stroke:#000000;stroke-width:8;stroke-miterlimit:4;stroke-dasharray:none;fill:none;stroke-opacity:1"/>
      <path d="m 2818.8,883.199 54,0 48,3.602 48,-9.602 82.8,-19.199 64.8,-25.199 69.6,-15.602 76.8,-20.398 48,-8.403 86.4,-3.597 111.6,9.597 54,6 180,22.801 69.6,9.602 64.8,6 63.6,7.199 127.2,6 64.8,-6 54,-7.199 54,-6 28.8,0" inkscape:connector-curvature="0" id="path36" style="stroke:#000000;stroke-width:8;stroke-miterlimit:4;stroke-dasharray:none;fill:none;stroke-opacity:1"/>
      <path d="m 3202.8,1107.6 -22.8,-32.4 -6,-25.2 -10.8,-32.4 -2.4,-31.202 13.2,-57.597 18,-28.801 19.2,-28.801 32.4,-25.199 36,-20.398 72,-8.403 55.2,6 42,6 50.4,36 32.4,37.199 15.6,28.801 9.6,61.199 -6,57.602 -16.8,32.4 -15.6,25.2 -32.4,32.4" inkscape:connector-curvature="0" id="path38" style="stroke:#000000;stroke-width:8;stroke-miterlimit:4;stroke-dasharray:none;fill:none;stroke-opacity:1"/>
      <path d="m 4317.6,67.1992 -98.4,19.1992 -70.8,12 L 4098,117.602 4034.4,144 3966,175.199 3841.2,246 3714,315.602 l -63.6,22.796 -76.8,28.801 -76.8,13.199 -57.6,12 -70.8,0 -69.6,-9.597 -70.8,-21.602 -69.6,-34.801 -76.8,-57.597 -51.6,-48 -51.6,-32.403 -42,-28.796 -34.8,-9.602 -37.2,-15.602 -39.6,-13.199 -63.6,-9.597" inkscape:connector-curvature="0" id="path40" style="stroke:#000000;stroke-width:8;stroke-miterlimit:4;stroke-dasharray:none;fill:none;stroke-opacity:1"/>
      <path d="m 2828.4,123.602 54,0 48,3.597 48,-9.597 82.8,-19.2036 64.8,-25.1992 69.6,-15.5976 76.8,-19.2032 48,-9.5976 86.4,-3.6016 111.6,9.6016 55.2,6 178.8,22.8008 70.8,9.5976 63.6,7.1992 63.6,6 128.4,6 63.6,-6 54,-6 55.2,-7.1992 28.8,0" inkscape:connector-curvature="0" id="path42" style="stroke:#000000;stroke-width:8;stroke-miterlimit:4;stroke-dasharray:none;fill:none;stroke-opacity:1"/>
      <path d="m 3212.4,348 -22.8,-32.398 -6,-25.204 -9.6,-32.398 -3.6,-31.199 13.2,-57.602 19.2,-28.801 19.2,-28.796 31.2,-25.2036 36,-19.1992 73.2,-9.5976 54,6 42,6 51.6,36.0004 31.2,38.398 16.8,28.801 8.4,60 -6,57.597 -15.6,32.403 -15.6,25.199 -32.4,32.398" inkscape:connector-curvature="0" id="path44" style="stroke:#000000;stroke-width:8;stroke-miterlimit:4;stroke-dasharray:none;fill:none;stroke-opacity:1"/>
    </g>
  </g>
</svg>
