<?xml version="1.0" encoding="UTF-8"?>
<!-- Created with Inkscape (http://www.inkscape.org/) -->
<svg xmlns:dc="http://purl.org/dc/elements/1.1/" xmlns:cc="http://creativecommons.org/ns#" xmlns:rdf="http://www.w3.org/1999/02/22-rdf-syntax-ns#" xmlns:svg="http://www.w3.org/2000/svg" xmlns="http://www.w3.org/2000/svg" xmlns:inkscape="http://www.inkscape.org/namespaces/inkscape" version="1.1" width="765" height="990" id="svg2" xml:space="preserve">
  <metadata id="metadata8">
    <rdf:RDF>
      <cc:Work rdf:about="">
        <dc:format>image/svg+xml</dc:format>
        <dc:type rdf:resource="http://purl.org/dc/dcmitype/StillImage"/>
      </cc:Work>
    </rdf:RDF>
  </metadata>
  <defs id="defs6"/>
  <g transform="matrix(1.25,0,0,-1.25,0,990)" id="g10">
    <g transform="scale(0.1,0.1)" id="g12">
      <path d="m 391.199,787.199 972.001,0 0,-38.398 38.4,-6 61.2,-19.199 42,-25.204 54,-38.398 48,-51.602 44.4,-61.199 32.4,-60 28.8,-76.801 18,-76.796 10.8,-128.403 -10.8,-66 -27.6,-76.8006 -36,-36 -28.8,-6 -44.4,2.4024 -34.8,28.8008 -16.8,36 -6,38.3984 -3.6,28.801 9.6,98.398 13.2,109.199 -9.6,111.602 -28.8,80.398 -40.8,63.602 -42,48 -48,19.199 -22.8,0 0,-34.801 -127.2,0 0,-67.199 -188.4,0 0,67.199 -345.6,0 0,-67.199 -182.398,0 0,67.199 -128.403,0" inkscape:connector-curvature="0" id="path14" style="stroke:#000000;stroke-width:8;stroke-miterlimit:4;stroke-dasharray:none;fill:none;stroke-opacity:1"/>
      <path d="M 448.801,787.199 573.602,1398 l 22.796,38.4 15.602,13.2 19.199,6 28.801,0 28.801,-15.6 6,-19.2 0,-22.8" inkscape:connector-curvature="0" id="path16" style="stroke:#000000;stroke-width:8;stroke-miterlimit:4;stroke-dasharray:none;fill:none;stroke-opacity:1"/>
      <path d="m 571.199,787.199 127.199,614.401 15.602,28.8 16.801,15.6 28.801,6 28.796,-8.4 15.602,-13.2 9.602,-19.2" inkscape:connector-curvature="0" id="path18" style="stroke:#000000;stroke-width:8;stroke-miterlimit:4;stroke-dasharray:none;fill:none;stroke-opacity:1"/>
      <path d="M 685.199,787.199 810,1398 l 13.199,28.8 22.801,19.2 25.199,3.6 28.801,-3.6 22.801,-19.2 6,-25.2" inkscape:connector-curvature="0" id="path20" style="stroke:#000000;stroke-width:8;stroke-miterlimit:4;stroke-dasharray:none;fill:none;stroke-opacity:1"/>
      <path d="M 800.398,787.199 925.199,1392 l 19.199,34.8 22.801,19.2 38.401,3.6 13.2,-3.6 18,-13.2 10.8,-31.2" inkscape:connector-curvature="0" id="path22" style="stroke:#000000;stroke-width:8;stroke-miterlimit:4;stroke-dasharray:none;fill:none;stroke-opacity:1"/>
      <path d="M 922.801,787.199 1044,1388.4 l 12,32.4 13.2,19.2 28.8,12 34.8,-6 26.4,-15.6 9.6,-22.8" inkscape:connector-curvature="0" id="path24" style="stroke:#000000;stroke-width:8;stroke-miterlimit:4;stroke-dasharray:none;fill:none;stroke-opacity:1"/>
      <path d="m 1047.6,787.199 114,597.601 9.6,32.4 19.2,26.4 32.4,6 6,2.4 30,-12 18,-19.2 0,-19.2" inkscape:connector-curvature="0" id="path26" style="stroke:#000000;stroke-width:8;stroke-miterlimit:4;stroke-dasharray:none;fill:none;stroke-opacity:1"/>
      <path d="m 1155.6,787.199 121.2,616.801 13.2,26.4 15.6,15.6 19.2,3.6 28.8,0 25.2,-9.6 13.2,-19.2 7.2,-32.4 -124.8,-601.201 -883.201,0 0,-42 -44.398,-6 -61.199,-18 -44.403,-26.398 -51.597,-42 L 142.801,602.398 68.3984,477.602 46.8008,404.398 24,327.602 14.3984,199.199 24,132 55.1992,58.8008 l 36,-36 25.1988,-6 44.403,3.5976 39.597,28.8008 12,34.8008 7.204,38.398 2.398,28.801 -9.602,99.602 -15.597,108 9.597,109.199 25.204,79.199 42,68.403 40.796,46.796 45.602,19.204 31.199,3.597 0,-28.801" inkscape:connector-curvature="0" id="path28" style="stroke:#000000;stroke-width:8;stroke-miterlimit:4;stroke-dasharray:none;fill:none;stroke-opacity:1"/>
      <path d="m 2212.8,610.801 0,-576.0002 102,0 0,576.0002 -102,0" inkscape:connector-curvature="0" id="path30" style="stroke:#000000;stroke-width:8;stroke-miterlimit:4;stroke-dasharray:none;fill:none;stroke-opacity:1"/>
      <path d="m 2724,610.801 0,-576.0002 105.6,0 0,576.0002 -105.6,0" inkscape:connector-curvature="0" id="path32" style="stroke:#000000;stroke-width:8;stroke-miterlimit:4;stroke-dasharray:none;fill:none;stroke-opacity:1"/>
      <path d="m 3242.4,610.801 0,-576.0002 102,0 0,576.0002 -102,0" inkscape:connector-curvature="0" id="path34" style="stroke:#000000;stroke-width:8;stroke-miterlimit:4;stroke-dasharray:none;fill:none;stroke-opacity:1"/>
      <path d="m 3342,1452 34.8,-12 42,-25.2 44.4,-45.6 13.2,-50.4 6,-32.4 0,-51.6 -15.6,-54 -22.8,-48 -28.8,-28.8 -34.8,-19.2 -38.4,-12 -1058.4,0 -73.2,2.4 -42,19.2 -31.2,21.6 -32.4,49.2 -15.6,44.4 -7.2,40.8 7.2,48 8.4,49.2 22.8,37.2 36,36 44.4,25.2 32.4,6 1108.8,0 -28.8,-48 -22.8,-44.4 -9.6,-48 -2.4,-44.4 2.4,-48 13.2,-48 19.2,-48 28.8,-44.4 -48,25.2 -115.2,38.4 -88.8,25.2 -96,19.2 -86.4,22.8 -122.4,3.6 -57.6,0 -117.6,-13.2 -92.4,-22.8 -76.8,-19.2 -109.2,-37.2 -102,-42" inkscape:connector-curvature="0" id="path36" style="stroke:#000000;stroke-width:8;stroke-miterlimit:4;stroke-dasharray:none;fill:none;stroke-opacity:1"/>
      <path d="m 3336,1452 -109.2,-48 -99.6,-34.8 -76.8,-19.2 -85.2,-22.8 -109.2,-6 -73.2,-6 -124.8,9.6 -102,15.6 -90,22.8 -80.4,21.6 -114,39.6 -45.6,21.6 28.8,-42 19.2,-44.4 9.6,-48 3.6,-44.4 -3.6,-48 -9.6,-48 -19.2,-48 -28.8,-44.4" inkscape:connector-curvature="0" id="path38" style="stroke:#000000;stroke-width:8;stroke-miterlimit:4;stroke-dasharray:none;fill:none;stroke-opacity:1"/>
    </g>
  </g>
</svg>
