<?xml version="1.0" encoding="UTF-8"?>
<!-- Created with Inkscape (http://www.inkscape.org/) -->
<svg xmlns:dc="http://purl.org/dc/elements/1.1/" xmlns:cc="http://creativecommons.org/ns#" xmlns:rdf="http://www.w3.org/1999/02/22-rdf-syntax-ns#" xmlns:svg="http://www.w3.org/2000/svg" xmlns="http://www.w3.org/2000/svg" xmlns:inkscape="http://www.inkscape.org/namespaces/inkscape" version="1.1" width="765" height="990" id="svg2" xml:space="preserve">
  <metadata id="metadata8">
    <rdf:RDF>
      <cc:Work rdf:about="">
        <dc:format>image/svg+xml</dc:format>
        <dc:type rdf:resource="http://purl.org/dc/dcmitype/StillImage"/>
      </cc:Work>
    </rdf:RDF>
  </metadata>
  <defs id="defs6"/>
  <g transform="matrix(1.25,0,0,-1.25,0,990)" id="g10">
    <g transform="scale(0.1,0.1)" id="g12">
      <path d="m 807.602,1072.8 -70.801,6 -111.602,-6 -82.801,8.4 -26.398,-8.4 -19.199,-26.4 6,-44.4 L 542.398,883.199 558,850.801 596.398,800.398 691.199,681.602 896.398,468 1044,330 1356,22.8008 l 32.4,0 9.6,16.8008 -13.2,28.7968 -133.2,307.2036 -19.2,57.597 -51.6,127.199 -15.6,32.403 -42,86.398 -76.8,130.801 -79.201,130.801 -54,74.399 -49.199,69.6 -48,64.8 -56.398,66 -57.602,39.6 -16.801,66 -12,74.4 -19.199,48 -55.199,12 -90,0 -98.403,-2.4 -48,-13.2 -22.796,-7.2 -162,-21.6 -48,-22.8 -15.602,-21.6 -3.602,-45.6 19.204,32.4 31.199,15.6 96,0 99.597,-2.4 51.602,-13.2 -42,50.4 -9.602,36" inkscape:connector-curvature="0" id="path14" style="stroke:#000000;stroke-width:8;stroke-miterlimit:4;stroke-dasharray:none;fill:none;stroke-opacity:1"/>
      <path d="m 462,1372.8 9.602,2.4 6,16.8 -6,15.6 -13.204,9.6 -13.199,-9.6 -2.398,-19.2 6,-9.6 9.597,-6" inkscape:connector-curvature="0" id="path16" style="stroke:#000000;stroke-width:8;stroke-miterlimit:4;stroke-dasharray:none;fill:none;stroke-opacity:1"/>
      <path d="m 126,1340.4 128.398,3.6 98.403,-13.2 28.801,-15.6 9.597,-32.4 3.602,-34.8 L 366,1178.4 352.801,1090.8 368.398,985.199 381.602,938.398 400.801,880.801 414,854.398 458.398,765.602 621.602,470.398 688.801,345.602 702,250.801 685.199,87.6016 669.602,70.8008 577.199,62.3984 468,64.8008 462,49.1992 414,42 408,33.6016 416.398,20.3984 691.199,30 976.801,16.8008 l 12,13.1992 -6,15.6016 -44.403,0 -25.199,22.7968 -164.398,2.4024 -18,13.1992 18,201.602 118.801,-61.204 67.199,198 127.199,-319.199 45.6,-57.5974 44.4,-25.2032 67.2,0 38.4,13.2032 9.6,18 -31.2,87.5974" inkscape:connector-curvature="0" id="path18" style="stroke:#000000;stroke-width:8;stroke-miterlimit:4;stroke-dasharray:none;fill:none;stroke-opacity:1"/>
      <path d="m 442.801,787.199 25.199,-96 9.602,-98.398 3.597,-38.403 0,-178.796 L 448.801,193.199 420,99.6016 400.801,78 247.199,68.3984 231.602,45.6016 196.801,42 183.602,33.6016 196.801,20.3984 314.398,30 349.199,26.3984" inkscape:connector-curvature="0" id="path20" style="stroke:#000000;stroke-width:8;stroke-miterlimit:4;stroke-dasharray:none;fill:none;stroke-opacity:1"/>
      <path d="m 465.602,64.8008 -55.204,-6 0,0 L 379.199,51.6016 360,26.3984 l 12,-6 19.199,19.2032 L 410.398,42" inkscape:connector-curvature="0" id="path22" style="stroke:#000000;stroke-width:8;stroke-miterlimit:4;stroke-dasharray:none;fill:none;stroke-opacity:1"/>
      <path d="M 462,68.3984 531.602,330 640.801,266.398 662.398,385.199" inkscape:connector-curvature="0" id="path24" style="stroke:#000000;stroke-width:8;stroke-miterlimit:4;stroke-dasharray:none;fill:none;stroke-opacity:1"/>
      <path d="m 237.602,64.8008 -50.403,-6 0,0 -32.398,-7.1992 -19.199,-25.2032 9.597,-6 L 168,39.6016 193.199,42" inkscape:connector-curvature="0" id="path26" style="stroke:#000000;stroke-width:8;stroke-miterlimit:4;stroke-dasharray:none;fill:none;stroke-opacity:1"/>
      <path d="m 919.199,68.3984 60,-6 28.801,-10.7968 19.2,-25.2032 -9.6,-6 L 996,39.6016 979.199,42" inkscape:connector-curvature="0" id="path28" style="stroke:#000000;stroke-width:8;stroke-miterlimit:4;stroke-dasharray:none;fill:none;stroke-opacity:1"/>
      <path d="m 1453.2,883.199 -454.802,0" inkscape:connector-curvature="0" id="path30" style="stroke:#000000;stroke-width:8;stroke-miterlimit:4;stroke-dasharray:none;fill:none;stroke-opacity:1"/>
      <path d="m 397.199,883.199 -69.597,0 L 270,870 214.801,844.801 158.398,804 120,771.602 85.1992,733.199 l -30,-38.398 -18,-38.403 L 24,618 l -6,-32.398 -3.6016,-28.801 1438.8016,0" inkscape:connector-curvature="0" id="path32" style="stroke:#000000;stroke-width:8;stroke-miterlimit:4;stroke-dasharray:none;fill:none;stroke-opacity:1"/>
      <path d="m 1582.8,282 1264.8,0 0,-265.1992 -57.6,0 -196.8,236.3982" inkscape:connector-curvature="0" id="path34" style="stroke:#000000;stroke-width:8;stroke-miterlimit:4;stroke-dasharray:none;fill:none;stroke-opacity:1"/>
      <path d="M 2628,253.199 2790,55.1992" inkscape:connector-curvature="0" id="path36" style="stroke:#000000;stroke-width:8;stroke-miterlimit:4;stroke-dasharray:none;fill:none;stroke-opacity:1"/>
      <path d="m 2793.6,20.3984 0,232.8006" inkscape:connector-curvature="0" id="path38" style="stroke:#000000;stroke-width:8;stroke-miterlimit:4;stroke-dasharray:none;fill:none;stroke-opacity:1"/>
      <path d="m 2847.6,253.199 -1264.8,0 0,28.801" inkscape:connector-curvature="0" id="path40" style="stroke:#000000;stroke-width:8;stroke-miterlimit:4;stroke-dasharray:none;fill:none;stroke-opacity:1"/>
      <path d="m 1942.8,1242 -120,-28.8 -51.6,-26.4 -16.8,-19.2 -12,-25.2 -3.6,-21.6 0,-22.8 19.2,-38.4 25.2,-38.4 64.8,-51.598 639.6,-338.403 94.8,-51.597 103.2,-61.204 50.4,-37.199 16.8,2.403 2.4,15.597 -25.2,36 -182.4,159.602 -70.8,82.801 -248.4,329.998 -82.8,92.4 -76.8,70.8 -49.2,19.2 -34.8,63.6 -42,63.6 -27.6,19.2 -38.4,16.8 -70.8,2.4 -69.6,-9.6 -38.4,-13.2 -20.4,-25.2 -18,-34.8 -36,-19.2 -25.2,-26.4 -15.6,-40.8 2.4,-31.2 3.6,-10.8 6,16.8 16.8,28.8 28.8,19.2 25.2,6 28.8,-6 15.6,-13.2 7.2,0 2.4,6 -6,32.4 12,0 10.8,19.2 0,13.2 -13.2,8.4 -13.2,3.6 -12,-9.6 -3.6,-19.2 9.6,-9.6 9.6,-6" inkscape:connector-curvature="0" id="path42" style="stroke:#000000;stroke-width:8;stroke-miterlimit:4;stroke-dasharray:none;fill:none;stroke-opacity:1"/>
      <path d="m 1723.2,1378.8 34.8,0 32.4,-6 32.4,-16.8 19.2,-28.8 -3.6,-44.4 -19.2,-25.2 -54,-38.4" inkscape:connector-curvature="0" id="path44" style="stroke:#000000;stroke-width:8;stroke-miterlimit:4;stroke-dasharray:none;fill:none;stroke-opacity:1"/>
      <path d="m 1758,1225.2 15.6,13.2 16.8,19.2 6,22.8 -2.4,21.6 -16.8,9.6 -19.2,-6 -15.6,-15.6 0,-16.8 3.6,-38.4 -7.2,-13.2 -2.4,-8.4 -10.8,2.4 -6,19.2 -21.6,45.6 -22.8,18 -19.2,3.6 -22.8,3.6" inkscape:connector-curvature="0" id="path46" style="stroke:#000000;stroke-width:8;stroke-miterlimit:4;stroke-dasharray:none;fill:none;stroke-opacity:1"/>
      <path d="m 1611.6,1282.8 12,3.6 32.4,-3.6 28.8,-25.2 19.2,-61.2 0,-73.2 3.6,-61.2 12,-38.4 16.8,-34.799 69.6,-90 144,-184.801 69.6,-82.801 55.2,-118.801 2.4,-79.199 -8.4,-84 -99.6,-19.199 -15.6,-19.199 0,-12" inkscape:connector-curvature="0" id="path48" style="stroke:#000000;stroke-width:8;stroke-miterlimit:4;stroke-dasharray:none;fill:none;stroke-opacity:1"/>
      <path d="m 1959.6,327.602 -16.8,-3.602 -15.6,-9.602 -6,-26.398 32.4,7.199 9.6,-9.597 146.4,9.597 121.2,-7.199 10.8,13.199 -10.8,32.403" inkscape:connector-curvature="0" id="path50" style="stroke:#000000;stroke-width:8;stroke-miterlimit:4;stroke-dasharray:none;fill:none;stroke-opacity:1"/>
      <path d="m 2241.6,298.801 12,2.398 25.2,-15.597 -6,28.796 -9.6,9.602 -19.2,9.602 -31.2,3.597 -84,8.403 9.6,112.796 48,-13.199 42,-28.801 0,230.403 69.6,-25.199 44.4,-32.403 32.4,-54 132,-249.597 178.8,115.199 -138,198" inkscape:connector-curvature="0" id="path52" style="stroke:#000000;stroke-width:8;stroke-miterlimit:4;stroke-dasharray:none;fill:none;stroke-opacity:1"/>
      <path d="m 1982.4,339.602 28.8,130.796 44.4,-8.398 25.2,-26.398" inkscape:connector-curvature="0" id="path54" style="stroke:#000000;stroke-width:8;stroke-miterlimit:4;stroke-dasharray:none;fill:none;stroke-opacity:1"/>
      <path d="m 1972.8,337.199 -51.6,-9.597 -21.6,-6 -10.8,-16.801 3.6,-19.199 32.4,9.597" inkscape:connector-curvature="0" id="path56" style="stroke:#000000;stroke-width:8;stroke-miterlimit:4;stroke-dasharray:none;fill:none;stroke-opacity:1"/>
      <path d="m 1899.6,321.602 -28.8,-10.801 -10.8,-25.199 26.4,6" inkscape:connector-curvature="0" id="path58" style="stroke:#000000;stroke-width:8;stroke-miterlimit:4;stroke-dasharray:none;fill:none;stroke-opacity:1"/>
      <path d="m 1844.4,844.801 34.8,-82.801 48,-130.801 20.4,-109.199 -4.8,-63.602 -25.2,-112.796 -92.4,-12 -19.2,-16.801 0,-15.602 3.6,-13.199 50.4,7.199" inkscape:connector-curvature="0" id="path60" style="stroke:#000000;stroke-width:8;stroke-miterlimit:4;stroke-dasharray:none;fill:none;stroke-opacity:1"/>
      <path d="m 1806,324 -25.2,-13.199 -9.6,-9.602 0,-15.597 28.8,9.597" inkscape:connector-curvature="0" id="path62" style="stroke:#000000;stroke-width:8;stroke-miterlimit:4;stroke-dasharray:none;fill:none;stroke-opacity:1"/>
      <path d="m 1831.2,333.602 -60,-12 -19.2,-10.801 -6,-25.199 21.6,9.597" inkscape:connector-curvature="0" id="path64" style="stroke:#000000;stroke-width:8;stroke-miterlimit:4;stroke-dasharray:none;fill:none;stroke-opacity:1"/>
      <path d="m 1758,321.602 -32.4,-10.801 -12,-28.801 32.4,13.199" inkscape:connector-curvature="0" id="path66" style="stroke:#000000;stroke-width:8;stroke-miterlimit:4;stroke-dasharray:none;fill:none;stroke-opacity:1"/>
    </g>
  </g>
</svg>
