<?xml version="1.0" encoding="UTF-8"?>
<!-- Created with Inkscape (http://www.inkscape.org/) -->
<svg xmlns:dc="http://purl.org/dc/elements/1.1/" xmlns:cc="http://creativecommons.org/ns#" xmlns:rdf="http://www.w3.org/1999/02/22-rdf-syntax-ns#" xmlns:svg="http://www.w3.org/2000/svg" xmlns="http://www.w3.org/2000/svg" xmlns:inkscape="http://www.inkscape.org/namespaces/inkscape" version="1.1" width="765" height="990" id="svg2" xml:space="preserve">
  <metadata id="metadata8">
    <rdf:RDF>
      <cc:Work rdf:about="">
        <dc:format>image/svg+xml</dc:format>
        <dc:type rdf:resource="http://purl.org/dc/dcmitype/StillImage"/>
      </cc:Work>
    </rdf:RDF>
  </metadata>
  <defs id="defs6"/>
  <g transform="matrix(1.25,0,0,-1.25,0,990)" id="g10">
    <g transform="scale(0.1,0.1)" id="g12">
      <path d="m 426,16.8008 -315.602,476.3982 -22.7964,67.199 -6,57.602 9.5976,54 11.9998,26.398 20.403,28.801 25.199,21.602 25.199,15.597 9.602,7.204 48,6 48,19.199 34.796,32.398 28.801,32.403 16.801,27.597 8.398,57.602 -6,51.597 -15.597,28.802 -15.602,25.2 -28.801,28.8 -26.398,13.2 -40.801,19.2 -51.597,13.2 -25.204,15.6 -44.398,34.8 -19.1992,32.4 -9.6016,28.8 -10.8008,57.6 7.2032,50.4 13.1992,26.4 19.1992,28.8 28.801,25.2 18,16.8 36,8.4 25.199,3.6" inkscape:connector-curvature="0" id="path14" style="stroke:#000000;stroke-width:8;stroke-miterlimit:4;stroke-dasharray:none;fill:none;stroke-opacity:1"/>
      <path d="m 14.3984,16.8008 322.8006,495.5972 15.602,38.403 3.597,67.199 -7.199,54 -12,26.398 -16.801,21.602 -28.796,28.801 -25.204,15.597 -9.597,7.204 L 180,787.199 160.801,796.801 139.199,810 116.398,832.801 94.8008,864 81.6016,892.801 68.3984,950.398 78,1004.4 97.1992,1030.8 114,1056 l 31.199,28.8 22.801,13.2 38.398,15.6 48,15.6 28.801,19.2 34.801,26.4 28.801,38.4 6,27.6 13.199,57.6 -9.602,51.6 -13.199,25.2 -19.199,28.8 -28.801,26.4 -31.199,19.2 -42,6" inkscape:connector-curvature="0" id="path16" style="stroke:#000000;stroke-width:8;stroke-miterlimit:4;stroke-dasharray:none;fill:none;stroke-opacity:1"/>
      <path d="m 967.199,1321.2 -39.597,-19.2 -28.801,-34.8 -8.403,-28.8 -7.199,-28.8 9.602,-45.6 22.801,-27.6 22.796,-20.4 37.204,-12 28.798,-9.6 34.8,0 39.6,15.6 31.2,16.8 19.2,21.6 22.8,32.4 15.6,38.4 9.6,31.2 3.6,32.4 -3.6,22.8 -6,38.4 -15.6,31.2 -26.4,32.4 -25.2,22.8 -22.8,9.6 -21.6,9.6 -32.4,2.4 -25.2,3.6 -32.398,0 -38.403,-3.6 -40.801,-12 -36,-19.2 -21.597,-19.2 -26.403,-22.8 -19.199,-22.8 -19.199,-34.8 -19.199,-34.8 -6,-32.4 -6,-44.4 -3.602,-45.6 3.602,-34.8 2.398,-50.4 19.199,-51.6 28.801,-57.598 51.602,-67.204 80.398,-76.796 114.001,-92.403 249.6,-140.398" inkscape:connector-curvature="0" id="path18" style="stroke:#000000;stroke-width:8;stroke-miterlimit:4;stroke-dasharray:none;fill:none;stroke-opacity:1"/>
      <path d="m 1182,43.1992 25.2,-15.5976 19.2,-6 9.6,0 10.8,9.5976 12,12 64.8,111.6018 0,16.801 -4.8,6 -6,9.597 -21.6,13.199 -524.399,246 -13.199,3.602 -15.602,2.398 -15.602,-6 -16.796,-9.597 -6,-9.602 -6,-19.199 0,-13.199 6,-15.602 L 709.199,366 724.801,350.398 1182,43.1992" inkscape:connector-curvature="0" id="path20" style="stroke:#000000;stroke-width:8;stroke-miterlimit:4;stroke-dasharray:none;fill:none;stroke-opacity:1"/>
    </g>
  </g>
</svg>
