<?xml version="1.0" encoding="UTF-8"?>
<!-- Created with Inkscape (http://www.inkscape.org/) -->
<svg xmlns:dc="http://purl.org/dc/elements/1.1/" xmlns:cc="http://creativecommons.org/ns#" xmlns:rdf="http://www.w3.org/1999/02/22-rdf-syntax-ns#" xmlns:svg="http://www.w3.org/2000/svg" xmlns="http://www.w3.org/2000/svg" xmlns:inkscape="http://www.inkscape.org/namespaces/inkscape" version="1.1" width="765" height="990" id="svg2" xml:space="preserve">
  <metadata id="metadata8">
    <rdf:RDF>
      <cc:Work rdf:about="">
        <dc:format>image/svg+xml</dc:format>
        <dc:type rdf:resource="http://purl.org/dc/dcmitype/StillImage"/>
      </cc:Work>
    </rdf:RDF>
  </metadata>
  <defs id="defs6"/>
  <g transform="matrix(1.25,0,0,-1.25,0,990)" id="g10">
    <g transform="scale(0.1,0.1)" id="g12">
      <path d="m 292.801,1033.2 39.597,-3.6 66,9.6 20.403,7.2 51.597,22.8 30,26.4 33.602,43.2 16.801,42 25.199,188.4 27.602,62.4 26.398,37.2 6,19.2 -6,7.2 -40.801,-33.6 -32.398,-60 -39.602,-164.4 -13.199,-62.4 -13.199,-20.4 -15.602,-22.8 -30,-22.8 -39.597,-16.8 -39.602,-7.2 -56.398,-2.4 -22.801,0 -43.199,6 -39.602,16.8 -45.602,39.6 -26.398,43.2 -9.602,62.4 -33.5972,154.8 -26.4024,60 -32.3984,36 -10.8008,0 0,-16.8 36,-62.4 L 72,1342.8 98.3984,1152 l 26.4026,-43.2 39.597,-36 43.204,-26.4 26.398,-7.2 56.398,-6" inkscape:connector-curvature="0" id="path14" style="stroke:#000000;stroke-width:8;stroke-miterlimit:4;stroke-dasharray:none;fill:none;stroke-opacity:1"/>
      <path d="M 675.602,858 630,933.602 l -66,75.598 -46.801,33.6 -32.398,22.8 -86.403,39.6 -108,43.2 -50.398,49.2 -16.801,49.2 7.199,62.4 20.403,26.4 22.801,24 39.597,16.8 32.403,0 30,-13.2 20.398,-20.4 9.602,-16.8 9.597,-19.2 0,-26.4 L 402,1254 l -13.199,-13.2 -30,-3.6 -19.199,3.6 -10.801,22.8 7.199,13.2" inkscape:connector-curvature="0" id="path16" style="stroke:#000000;stroke-width:8;stroke-miterlimit:4;stroke-dasharray:none;fill:none;stroke-opacity:1"/>
      <path d="m 362.398,1035.6 -9.597,-43.202" inkscape:connector-curvature="0" id="path18" style="stroke:#000000;stroke-width:8;stroke-miterlimit:4;stroke-dasharray:none;fill:none;stroke-opacity:1"/>
      <path d="m 279.602,997.199 -2.403,38.401" inkscape:connector-curvature="0" id="path20" style="stroke:#000000;stroke-width:8;stroke-miterlimit:4;stroke-dasharray:none;fill:none;stroke-opacity:1"/>
      <path d="m 303.602,16.8008 19.199,0 L 332.398,30 349.199,45.6016 356.398,62.3984 366,96 l 6,32.398 7.199,56.403 3.602,46.801 -3.602,36 -3.597,49.199 -3.602,52.801 -6,52.796 -37.199,356.403" inkscape:connector-curvature="0" id="path22" style="stroke:#000000;stroke-width:8;stroke-miterlimit:4;stroke-dasharray:none;fill:none;stroke-opacity:1"/>
      <path d="m 296.398,778.801 45.602,0 24,7.199 9.602,9.602 9.597,15.597 7.199,24 3.602,19.199 6,19.204 6,13.199 7.199,10.801 16.801,16.796 19.199,13.204 13.199,6 10.801,3.597 6,3.602 3.602,6 0,9.597 -16.801,10.801 -36,9.602 -36,9.597 -69.602,6 -36,0 -60,-2.398 L 204,984 164.398,969.602 138,956.398 l -2.398,-15.597 6,-7.199 19.199,-3.602 24,-13.199 15.597,-19.199 9.602,-13.204 13.199,-36 L 228,822 l 6,-13.199 9.602,-13.199 13.199,-14.403 13.199,-2.398 20.398,0 -7.199,-36 L 250.801,402 240,300 237.602,247.199 240,201.602 240,158.398 253.199,102 260.398,69.6016 270,49.1992 277.199,33.6016 286.801,22.8008 300,20.3984" inkscape:connector-curvature="0" id="path24" style="stroke:#000000;stroke-width:8;stroke-miterlimit:4;stroke-dasharray:none;fill:none;stroke-opacity:1"/>
      <path d="m 1728,835.199 12,88.801 7.2,85.2 -22.8,156 -3.6,51.6 9.6,54 56.4,64.8 16.8,43.2 9.6,56.4 -13.2,43.2 -52.8,22.8 -56.4,-9.6 -32.4,-33.6 -16.8,-45.6 -13.2,-116.4 -66,-85.2 -158.4,-128.4 -134.4,-132.002 -60,-76.796 -49.2,-78 -22.8,-52.801" inkscape:connector-curvature="0" id="path26" style="stroke:#000000;stroke-width:8;stroke-miterlimit:4;stroke-dasharray:none;fill:none;stroke-opacity:1"/>
      <path d="m 1773.6,650.398 194.4,844.802 -43.2,2.4 -194.4,-659.998 -45.6,-42" inkscape:connector-curvature="0" id="path28" style="stroke:#000000;stroke-width:8;stroke-miterlimit:4;stroke-dasharray:none;fill:none;stroke-opacity:1"/>
      <path d="m 1411.2,1095.6 -214.8,234 -13.2,46.8 0,42 20.4,39.6 32.4,33.6 39.6,9.6 39.6,0 39.6,-19.2 19.2,-43.2 3.6,-30 -9.6,-26.4 -30,-19.2 -9.6,-7.2 -36,0 -20.4,22.8 0,22.8 9.6,16.8 20.4,7.2" inkscape:connector-curvature="0" id="path30" style="stroke:#000000;stroke-width:8;stroke-miterlimit:4;stroke-dasharray:none;fill:none;stroke-opacity:1"/>
      <path d="m 1681.2,798 -72,-22.801 -188.4,-22.801 -175.2,-9.597 -174,0 16.8,-118.801 19.2,-132 0,-86.398 88.8,0 141.6,-19.204 49.2,-33.597 50.4,-72 9.6,-62.403 105.6,0 3.6,85.204 9.6,30 26.4,22.796 22.8,7.204 26.4,2.398 26.4,-15.602 22.8,-24 7.2,-32.398 0,-33.602 13.2,-62.398 22.8,-75.602 39.6,-88.7964 22.8,-16.8008 20.4,6 0,36 -33.6,109.1992 -22.8,152.398 -3.6,148.801 16.8,174" inkscape:connector-curvature="0" id="path32" style="stroke:#000000;stroke-width:8;stroke-miterlimit:4;stroke-dasharray:none;fill:none;stroke-opacity:1"/>
      <path d="m 2364,1484.4 0,-592.798 105.6,0 0,592.798 -105.6,0" inkscape:connector-curvature="0" id="path34" style="stroke:#000000;stroke-width:8;stroke-miterlimit:4;stroke-dasharray:none;fill:none;stroke-opacity:1"/>
      <path d="m 2892,1484.4 0,-592.798 108,0 0,592.798 -108,0" inkscape:connector-curvature="0" id="path36" style="stroke:#000000;stroke-width:8;stroke-miterlimit:4;stroke-dasharray:none;fill:none;stroke-opacity:1"/>
      <path d="m 3424.8,1484.4 0,-592.798 105.6,0 0,592.798 -105.6,0" inkscape:connector-curvature="0" id="path38" style="stroke:#000000;stroke-width:8;stroke-miterlimit:4;stroke-dasharray:none;fill:none;stroke-opacity:1"/>
    </g>
  </g>
</svg>
