<?xml version="1.0" encoding="UTF-8"?>
<!-- Created with Inkscape (http://www.inkscape.org/) -->
<svg xmlns:dc="http://purl.org/dc/elements/1.1/" xmlns:cc="http://creativecommons.org/ns#" xmlns:rdf="http://www.w3.org/1999/02/22-rdf-syntax-ns#" xmlns:svg="http://www.w3.org/2000/svg" xmlns="http://www.w3.org/2000/svg" xmlns:inkscape="http://www.inkscape.org/namespaces/inkscape" version="1.1" width="765" height="990" id="svg2" xml:space="preserve">
  <metadata id="metadata8">
    <rdf:RDF>
      <cc:Work rdf:about="">
        <dc:format>image/svg+xml</dc:format>
        <dc:type rdf:resource="http://purl.org/dc/dcmitype/StillImage"/>
      </cc:Work>
    </rdf:RDF>
  </metadata>
  <defs id="defs6"/>
  <g transform="matrix(1.25,0,0,-1.25,0,990)" id="g10">
    <g transform="scale(0.1,0.1)" id="g12">
      <path d="m 254.398,888 331.204,320.4" inkscape:connector-curvature="0" id="path14" style="stroke:#000000;stroke-width:8;stroke-miterlimit:4;stroke-dasharray:none;fill:none;stroke-opacity:1"/>
      <path d="m 134.398,934.801 408,389.999" inkscape:connector-curvature="0" id="path16" style="stroke:#000000;stroke-width:8;stroke-miterlimit:4;stroke-dasharray:none;fill:none;stroke-opacity:1"/>
      <path d="M 55.1992,1018.8 463.199,1410" inkscape:connector-curvature="0" id="path18" style="stroke:#000000;stroke-width:8;stroke-miterlimit:4;stroke-dasharray:none;fill:none;stroke-opacity:1"/>
      <path d="m 14.3984,1138.8 326.4026,312" inkscape:connector-curvature="0" id="path20" style="stroke:#000000;stroke-width:8;stroke-miterlimit:4;stroke-dasharray:none;fill:none;stroke-opacity:1"/>
      <path d="m 420,1432.8 -27.602,7.2 -28.796,10.8 -30,4.8 -31.204,0 -32.398,-2.4 -28.801,-2.4 -30,-10.8 -27.597,-9.6 -28.801,-13.2 -25.199,-18 -20.403,-18 -21.5974,-19.2 -14.4024,-18 -15.5976,-24 -18,-32.4 -7.2032,-26.4 -8.3984,-27.6 -4.8008,-28.8 -4.8008,-32.4 0,-28.8 4.8008,-32.4 7.1992,-28.8 8.4024,-25.2 L 48,1029.6 55.1992,1014 66,1000.8 91.1992,973.199 116.398,946.801 139.199,930 168,914.398 l 30,-15.597 31.199,-7.199 25.199,-8.403 30,0 31.204,-2.398 36,4.801 25.199,6 30,12 31.199,16.796 20.398,9.602 22.801,20.398 24,20.403 21.602,22.801 18,27.598 18,26.4 13.199,25.2 7.199,31.2 2.403,27.6 6,33.6 -3.602,27.6 -2.398,33.6 -7.204,27.6 -9.597,25.2 -13.199,33.6 -18,25.2 -18,20.4 -20.403,25.2 -25.199,19.2 -25.199,18 -28.801,12" inkscape:connector-curvature="0" id="path22" style="stroke:#000000;stroke-width:8;stroke-miterlimit:4;stroke-dasharray:none;fill:none;stroke-opacity:1"/>
      <path d="m 62.3984,366 92.4026,-349.1992 286.801,0 90,349.1992 -469.2036,0" inkscape:connector-curvature="0" id="path24" style="stroke:#000000;stroke-width:8;stroke-miterlimit:4;stroke-dasharray:none;fill:none;stroke-opacity:1"/>
      <path d="m 358.801,366 -6,40.801 -14.403,40.801 -28.796,33.597 -30,25.199 -36,25.204 -20.403,25.199 -9.597,36 7.199,38.398 -2.403,38.403 -13.199,36 -22.801,30 -27.597,24 -31.199,22.796 -25.2036,20.403 -15.5976,18 0,-15.602 10.8008,-25.199 21.5974,-28.801 24,-27.597 15.602,-20.403 7.199,-28.801 2.398,-22.796 -4.796,-32.403 -7.204,-26.398 0,-36 9.602,-25.199 25.199,-36 L 216,468 l 25.199,-22.801 12,-22.801 2.403,-20.398 0,-20.398 L 250.801,366" inkscape:connector-curvature="0" id="path26" style="stroke:#000000;stroke-width:8;stroke-miterlimit:4;stroke-dasharray:none;fill:none;stroke-opacity:1"/>
      <path d="m 1057.2,230.398 -38.4,48 -47.999,48 -39.602,40.801 -40.801,45.602 -51.597,50.398 -50.403,38.403 -55.199,38.398 103.199,915.6 31.204,-9.6 34.796,-16.8 28.801,-21.6 28.801,-34.8 26.398,-42 13.204,-44.4 8.398,-39.6 10.8,-50.4 44.4,-1177.2008 -61.2,-3.5976 13.2,265.1994" inkscape:connector-curvature="0" id="path28" style="stroke:#000000;stroke-width:8;stroke-miterlimit:4;stroke-dasharray:none;fill:none;stroke-opacity:1"/>
      <path d="m 1456.8,230.398 -38.4,48 -48,48 -39.6,40.801 -40.8,45.602 -51.6,50.398 -50.4,38.403 -54,38.398 102,915.6 31.2,-9.6 36,-16.8 27.6,-21.6 28.8,-34.8 26.4,-42 13.2,-44.4 8.4,-39.6 10.8,-50.4 44.4,-1177.2008 -61.2,-3.5976 13.2,265.1994" inkscape:connector-curvature="0" id="path30" style="stroke:#000000;stroke-width:8;stroke-miterlimit:4;stroke-dasharray:none;fill:none;stroke-opacity:1"/>
      <path d="m 2154,547.199 -82.8,2.403 -67.2,-28.801 -32.4,-15.602 -31.2,-42 -13.2,-44.398 0,-44.403 15.6,-36 45.6,-38.398 57.6,-25.199 50.4,-19.199" inkscape:connector-curvature="0" id="path32" style="stroke:#000000;stroke-width:8;stroke-miterlimit:4;stroke-dasharray:none;fill:none;stroke-opacity:1"/>
      <path d="m 2134.8,255.602 102,0 42,9.597" inkscape:connector-curvature="0" id="path34" style="stroke:#000000;stroke-width:8;stroke-miterlimit:4;stroke-dasharray:none;fill:none;stroke-opacity:1"/>
      <path d="m 2317.2,274.801 54,38.398 80.4,-61.199 90,-54 63.6,-22.801" inkscape:connector-curvature="0" id="path36" style="stroke:#000000;stroke-width:8;stroke-miterlimit:4;stroke-dasharray:none;fill:none;stroke-opacity:1"/>
      <path d="m 2647.2,169.199 210,-31.199 45.6,-22.801 19.2,-41.9998 9.6,-57.5976 15.6,19.1992 6,38.3984 0,41.9998 -15.6,54 -28.8,54 -38.4,55.199 -48,54 -92.4,73.204 -70.8,42 -63.6,25.199 -54,16.801 -54,9.597 -76.8,-9.597 -26.4,-34.801 -6,-55.199" inkscape:connector-curvature="0" id="path38" style="stroke:#000000;stroke-width:8;stroke-miterlimit:4;stroke-dasharray:none;fill:none;stroke-opacity:1"/>
      <path d="m 2378.4,434.398 -15.6,28.801 -28.8,38.403 -48,25.199 -86.4,16.801" inkscape:connector-curvature="0" id="path40" style="stroke:#000000;stroke-width:8;stroke-miterlimit:4;stroke-dasharray:none;fill:none;stroke-opacity:1"/>
      <path d="m 2119.2,486 194.4,297.602 126,150 146.4,153.598 188.4,138 67.2,28.8 54,6 80.4,3.6 80.4,-13.2 -339.6,-501.599 -184.8,-195.602 -99.6,36 -69.6,6 -70.8,-6 -67.2,-26.398 L 2142,492" inkscape:connector-curvature="0" id="path42" style="stroke:#000000;stroke-width:8;stroke-miterlimit:4;stroke-dasharray:none;fill:none;stroke-opacity:1"/>
      <path d="m 2061.6,543.602 -9.6,117.597 3.6,186 38.4,228.001 28.8,88.8 44.4,90 44.4,69.6 45.6,51.6 37.2,28.8 39.6,25.2 76.8,26.4 -16.8,-566.401" inkscape:connector-curvature="0" id="path44" style="stroke:#000000;stroke-width:8;stroke-miterlimit:4;stroke-dasharray:none;fill:none;stroke-opacity:1"/>
      <path d="m 1934.4,457.199 -64.8,76.801 -38.4,90 -15.6,150 -42,115.199 -19.2,70.801 0,98.4 -19.2,-22.8 -12,-73.202 21.6,-115.199 26.4,-88.801 28.8,-195.597 -22.8,61.199 -76.8,88.801 -76.8,122.398 -40.8,153.602 -10.8,-3.602 -8.4,-70.801 8.4,-60 22.8,-61.199 82.8,-111.597 74.4,-86.403 25.2,-57.597 -6,-74.403 6,-88.801 28.8,-70.796 73.2,-86.403 13.2,32.403 -6,28.796" inkscape:connector-curvature="0" id="path46" style="stroke:#000000;stroke-width:8;stroke-miterlimit:4;stroke-dasharray:none;fill:none;stroke-opacity:1"/>
      <path d="m 1894.8,226.801 19.2,28.801 16.8,48 6,51.597" inkscape:connector-curvature="0" id="path48" style="stroke:#000000;stroke-width:8;stroke-miterlimit:4;stroke-dasharray:none;fill:none;stroke-opacity:1"/>
      <path d="m 1844.4,338.398 9.6,6 0,30 -6,15.602 -16.8,6 -13.2,-9.602 0,-21.597 13.2,-20.403 L 1848,342" inkscape:connector-curvature="0" id="path50" style="stroke:#000000;stroke-width:8;stroke-miterlimit:4;stroke-dasharray:none;fill:none;stroke-opacity:1"/>
      <path d="m 1994.4,294 34.8,-99.602 -2.4,-27.597 L 1975.2,67.1992 1950,50.3984 1888.8,48 l -9.6,-9.6016 -9.6,6 -12,-15.5976 6,-9.6016 6,6 16.8,3.6016 2.4,-13.1992 96,0" inkscape:connector-curvature="0" id="path52" style="stroke:#000000;stroke-width:8;stroke-miterlimit:4;stroke-dasharray:none;fill:none;stroke-opacity:1"/>
      <path d="m 2040,272.398 21.6,-84 -6,-25.199 -55.2,-118.8006" inkscape:connector-curvature="0" id="path54" style="stroke:#000000;stroke-width:8;stroke-miterlimit:4;stroke-dasharray:none;fill:none;stroke-opacity:1"/>
      <path d="m 2088,332.398 -4.8,-22.796 36,-88.801 3.6,-28.801 -6,-28.801 -39.6,-99.5974 -12,-13.2032 L 2004,48 l -9.6,-9.6016 -6,-22.7968 9.6,0 13.2,16.7968 2.4,-16.7968 74.4,3.5976 63.6,159.6018 0,25.199 -38.4,105.602" inkscape:connector-curvature="0" id="path56" style="stroke:#000000;stroke-width:8;stroke-miterlimit:4;stroke-dasharray:none;fill:none;stroke-opacity:1"/>
      <path d="m 2196,252 21.6,-50.398 3.6,-26.403 L 2196,57.6016 2182.8,48 l -54,0 -3.6,-13.1992 -12,9.5976 -13.2,-19.1992 6,-9.5976 16.8,13.1992 2.4,-13.1992 61.2,3.5976" inkscape:connector-curvature="0" id="path58" style="stroke:#000000;stroke-width:8;stroke-miterlimit:4;stroke-dasharray:none;fill:none;stroke-opacity:1"/>
      <path d="M 2224.8,259.199 2250,198 l 0,-25.199 -25.2,-128.4026" inkscape:connector-curvature="0" id="path60" style="stroke:#000000;stroke-width:8;stroke-miterlimit:4;stroke-dasharray:none;fill:none;stroke-opacity:1"/>
      <path d="m 2253.6,349.199 -3.6,-26.398 55.2,-90 2.4,-31.199 -15.6,-138.0004 -13.2,-19.2032 -54,0 -7.2,-9.5976 -12,3.5976 -12,-13.1992 2.4,-9.5976 15.6,13.1992 6,-13.1992 87.6,3.5976 15.6,15.6016 19.2,180.0002 -9.6,34.801 -51.6,79.199" inkscape:connector-curvature="0" id="path62" style="stroke:#000000;stroke-width:8;stroke-miterlimit:4;stroke-dasharray:none;fill:none;stroke-opacity:1"/>
      <path d="m 2355.6,380.398 84,13.204 102,-3.602 19.2,-9.602 12,-19.199 76.8,-198 28.8,-25.199 115.2,-93.6016 19.2,-6 13.2,-22.7968 -32.4,16.7968 -25.2,-10.7968 -115.2,87.5974 -36,44.403 -28.8,63.597 -54,121.199 -15.6,10.801 L 2426.4,336 2346,328.801" inkscape:connector-curvature="0" id="path64" style="stroke:#000000;stroke-width:8;stroke-miterlimit:4;stroke-dasharray:none;fill:none;stroke-opacity:1"/>
      <path d="m 3882,672 -34.8,2.398 -34.8,7.204 -28.8,15.597 -22.8,15.602 -40.8,43.199 -38.4,44.398 -36,48 -18,38.403 -13.2,31.199 -18,56.398 -4.8,67.202 4.8,30 18,36 31.2,38.4 -49.2,15.6 -36,27.6 -58.8,80.4 42,-120 27.6,-100.8 4.8,-51.601 7.2,-40.801 13.2,-40.796 13.2,-36 20.4,-33.602 20.4,-36 25.2,-27.602 28.8,-31.199 22.8,-25.199 18,-19.199 13.2,-9.602 -54,18 -56.4,20.403 -51.6,26.398 -52.8,54 -31.2,43.199 -24,38.403 -21.6,50.398 -21.6,60 -15.6,56.4 -7.2,54 -4.8,43.2 4.8,46.8 13.2,34.8 43.2,60 22.8,25.2 -58.8,25.2 -45.6,36 -51.6,72 31.2,-108 30,-104.4 -4.8,-72 2.4,-54 9.6,-54 8.4,-49.2 15.6,-43.199 15.6,-38.403 18,-38.398 25.2,-49.199 63.6,-79.199 -51.6,28.796 -48,31.204 -54,45.597 -54,51.602 -36,56.398 -16.8,52.801 -13.2,58.8 4.8,57.6 8.4,22.8 14.4,31.2 20.4,22.8 -48,25.2 -46.8,36 -58.8,76.8 38.4,-112.8 40.8,-115.2 8.4,-40.8 2.4,-31.2 13.2,-49.2 25.2,-61.199 20.4,-30 31.2,-33.602 25.2,-26.398 36,-30 36,-26.403 45.6,-27.597 51.6,-31.199 120,-49.204 100.8,-32.398 74.4,-13.199 31.2,-4.801 0,15.602" inkscape:connector-curvature="0" id="path66" style="stroke:#000000;stroke-width:8;stroke-miterlimit:4;stroke-dasharray:none;fill:none;stroke-opacity:1"/>
      <path d="M 3420,76.8008 3594,235.199 3758.4,76.8008" inkscape:connector-curvature="0" id="path68" style="stroke:#000000;stroke-width:8;stroke-miterlimit:4;stroke-dasharray:none;fill:none;stroke-opacity:1"/>
      <path d="m 3824.4,147.602 -153.6,157.199 164.4,156" inkscape:connector-curvature="0" id="path70" style="stroke:#000000;stroke-width:8;stroke-miterlimit:4;stroke-dasharray:none;fill:none;stroke-opacity:1"/>
      <path d="M 3763.2,540 3598.8,384 3435.6,553.199" inkscape:connector-curvature="0" id="path72" style="stroke:#000000;stroke-width:8;stroke-miterlimit:4;stroke-dasharray:none;fill:none;stroke-opacity:1"/>
      <path d="M 3363.6,483.602 3522,314.398 3352.8,153.602" inkscape:connector-curvature="0" id="path74" style="stroke:#000000;stroke-width:8;stroke-miterlimit:4;stroke-dasharray:none;fill:none;stroke-opacity:1"/>
      <path d="m 3567.6,21.6016 72,2.3984 42,10.8008 34.8,15.5976 42,28.8008 30,27.6018 31.2,33.597 20.4,33.602 20.4,34.801 10.8,37.199 4.8,39.602 0,42 -13.2,72 -15.6,38.398 -22.8,38.398 -25.2,34.801 -38.4,34.801 -31.2,20.398 -30,12 -28.8,10.801 -38.4,7.199 -38.4,2.403 -51.6,0 -40.8,-9.602 -38.4,-15.597 -36,-20.403 -33.6,-28.801 -30,-34.796 -28.8,-36 -13.2,-26.403 -9.6,-27.597 -10.8,-49.204 0,-45.597 6,-33.602 4.8,-36 12,-36 19.2,-40.801 30,-39.597 31.2,-27.6018 36,-27.5976 34.8,-19.2032 44.4,-14.3984 48,-8.3984" inkscape:connector-curvature="0" id="path76" style="stroke:#000000;stroke-width:8;stroke-miterlimit:4;stroke-dasharray:none;fill:none;stroke-opacity:1"/>
    </g>
  </g>
</svg>
