<?xml version="1.0" encoding="UTF-8"?>
<!-- Created with Inkscape (http://www.inkscape.org/) -->
<svg xmlns:dc="http://purl.org/dc/elements/1.1/" xmlns:cc="http://creativecommons.org/ns#" xmlns:rdf="http://www.w3.org/1999/02/22-rdf-syntax-ns#" xmlns:svg="http://www.w3.org/2000/svg" xmlns="http://www.w3.org/2000/svg" xmlns:inkscape="http://www.inkscape.org/namespaces/inkscape" version="1.1" width="765" height="990" id="svg2" xml:space="preserve">
  <metadata id="metadata8">
    <rdf:RDF>
      <cc:Work rdf:about="">
        <dc:format>image/svg+xml</dc:format>
        <dc:type rdf:resource="http://purl.org/dc/dcmitype/StillImage"/>
      </cc:Work>
    </rdf:RDF>
  </metadata>
  <defs id="defs6"/>
  <g transform="matrix(1.25,0,0,-1.25,0,990)" id="g10">
    <g transform="scale(0.1,0.1)" id="g12">
      <path d="m 711.602,1070.4 -70.801,7.2 -111.602,-7.2 -84,9.6 -25.199,-9.6 -19.199,-25.2 7.199,-44.4 31.199,-103.198 61.199,-98.403 198,-236.398 102,-96 147.602,-138 313.2,-307.1994 32.4,0 8.4,16.7968 -12,28.8008 -134.4,307.1988 -19.2,57.602 -102,246 -92.4,159.602 -74.398,102 -54,74.398 -45.602,69.6 -48,63.6 -56.398,67.2 -57.602,38.4 -16.801,67.2 -12,73.2 -19.199,49.2 -55.199,12 -88.801,0 -99.602,-3.6 -48,-12 -21.597,-7.2 -163.1994,-22.8 -48,-21.6 -16.8008,-21.6 -2.4024,-45.6 19.2032,32.4 L 66,1368 l 94.801,0 99.597,-2.4 51.602,-13.2 -42,50.4 -9.602,36" inkscape:connector-curvature="0" id="path14" style="stroke:#000000;stroke-width:8;stroke-miterlimit:4;stroke-dasharray:none;fill:none;stroke-opacity:1"/>
      <path d="m 366,1371.6 9.602,2.4 6,16.8 -6,15.6 -13.204,9.6 -13.199,-9.6 -2.398,-19.2 6,-9.6 9.597,-6" inkscape:connector-curvature="0" id="path16" style="stroke:#000000;stroke-width:8;stroke-miterlimit:4;stroke-dasharray:none;fill:none;stroke-opacity:1"/>
      <path d="m 30,1339.2 128.398,3.6 98.403,-13.2 28.801,-15.6 9.597,-32.4 3.602,-34.8 L 270,1176 256.801,1089.6 273.602,984 l 12,-46.801 34.796,-97.199 42,-76.801 L 462,594 592.801,344.398 606,249.602 589.199,86.3984 573.602,69.6016 481.199,60 372,63.6016 l -6,-16.8008 -48,-6 -6,-9.6016 8.398,-12 276,9.6016 284.403,-13.1992 13.199,13.1992 -7.199,15.5976 -44.403,0 L 817.199,67.1992 654,69.6016 634.801,82.8008 654,284.398 l 117.602,-61.199 67.199,198 L 967.199,102 1011.6,44.3984 1056,19.1992 l 68.4,0 37.2,12 9.6,19.1992 -31.2,86.4026" inkscape:connector-curvature="0" id="path18" style="stroke:#000000;stroke-width:8;stroke-miterlimit:4;stroke-dasharray:none;fill:none;stroke-opacity:1"/>
      <path d="m 346.801,786 42,-234 L 385.199,374.398 352.801,192 324,98.3984 304.801,75.6016 151.199,67.1992 135.602,44.3984 100.801,40.8008 87.6016,31.1992 l 13.1994,-12 118.801,9.6016 34.796,-3.6016" inkscape:connector-curvature="0" id="path20" style="stroke:#000000;stroke-width:8;stroke-miterlimit:4;stroke-dasharray:none;fill:none;stroke-opacity:1"/>
      <path d="m 368.398,63.6016 -54,-6 0,0 -31.199,-7.2032 -20.398,-25.1992 13.199,-6 19.199,19.1992 19.199,2.4024" inkscape:connector-curvature="0" id="path22" style="stroke:#000000;stroke-width:8;stroke-miterlimit:4;stroke-dasharray:none;fill:none;stroke-opacity:1"/>
      <path d="m 366,67.1992 70.801,261.6018 108,-63.602 22.801,117.602" inkscape:connector-curvature="0" id="path24" style="stroke:#000000;stroke-width:8;stroke-miterlimit:4;stroke-dasharray:none;fill:none;stroke-opacity:1"/>
      <path d="m 142.801,63.6016 -51.6018,-6 0,0 -32.3984,-7.2032 -19.1992,-25.1992 9.5976,-6 L 72,38.3984 97.1992,40.8008" inkscape:connector-curvature="0" id="path26" style="stroke:#000000;stroke-width:8;stroke-miterlimit:4;stroke-dasharray:none;fill:none;stroke-opacity:1"/>
      <path d="M 823.199,67.1992 884.398,60 l 28.801,-9.6016 18,-25.1992 -9.597,-6 L 900,38.3984 884.398,40.8008" inkscape:connector-curvature="0" id="path28" style="stroke:#000000;stroke-width:8;stroke-miterlimit:4;stroke-dasharray:none;fill:none;stroke-opacity:1"/>
      <path d="m 1252.8,1484.4 511.2,0 0,-511.201 -511.2,0 0,511.201" inkscape:connector-curvature="0" id="path30" style="stroke:#000000;stroke-width:8;stroke-miterlimit:4;stroke-dasharray:none;fill:none;stroke-opacity:1"/>
      <path d="m 2380.8,892.801 -31.2,-15.602 -32.4,-19.199 -22.8,-25.199 -9.6,-32.403 0,-42 22.8,-44.398 54,-55.199 64.8,-40.801 236.4,-79.199 300,-45.602 194.4,-6 176.4,25.199 -240,98.403 L 2869.2,752.398 2694,858 l -220.8,75.602 -163.2,16.796 -25.2,22.801 -6,40.801 79.2,163.2 32.4,109.2 -3.6,54 -9.6,55.2 -21.6,37.2 -32.4,32.4 -51.6,19.2 -44.4,0 -48,-6 -67.2,-55.2 -42,-54 -21.6,-19.2 -160.8,-57.6 -15.6,-28.8 172.8,19.2" inkscape:connector-curvature="0" id="path32" style="stroke:#000000;stroke-width:8;stroke-miterlimit:4;stroke-dasharray:none;fill:none;stroke-opacity:1"/>
      <path d="m 2064,1359.6 3.6,-67.2 22.8,-38.4" inkscape:connector-curvature="0" id="path34" style="stroke:#000000;stroke-width:8;stroke-miterlimit:4;stroke-dasharray:none;fill:none;stroke-opacity:1"/>
      <path d="m 2217.6,1359.6 9.6,9.6 3.6,13.2 -7.2,9.6 -15.6,3.6 -9.6,-7.2 0,-19.2 13.2,-9.6" inkscape:connector-curvature="0" id="path36" style="stroke:#000000;stroke-width:8;stroke-miterlimit:4;stroke-dasharray:none;fill:none;stroke-opacity:1"/>
      <path d="m 1885.2,1261.2 13.2,-16.8 117.6,6 76.8,-2.4 122.4,-22.8 40.8,3.6 -32.4,-57.6 -88.8,-127.2 -76.8,-110.398 -16.8,-44.403 -2.4,-44.398 6,-57.602 28.8,-57.597 121.2,-121.204 170.4,-134.398 96,-48 150,-34.801 102,-22.801 61.2,-44.398 22.8,-70.801 -4.8,-108 -18,-16.801 -138,0 -40.8,-6 -3.6,-19.199" inkscape:connector-curvature="0" id="path38" style="stroke:#000000;stroke-width:8;stroke-miterlimit:4;stroke-dasharray:none;fill:none;stroke-opacity:1"/>
      <path d="m 2592,118.801 -25.2,-15.602 25.2,2.403" inkscape:connector-curvature="0" id="path40" style="stroke:#000000;stroke-width:8;stroke-miterlimit:4;stroke-dasharray:none;fill:none;stroke-opacity:1"/>
      <path d="m 2674.8,105.602 -86.4,-6.0004 -21.6,-6 2.4,-19.2032 L 2688,84" inkscape:connector-curvature="0" id="path42" style="stroke:#000000;stroke-width:8;stroke-miterlimit:4;stroke-dasharray:none;fill:none;stroke-opacity:1"/>
      <path d="m 2563.2,90 -19.2,-15.6016 22.8,0" inkscape:connector-curvature="0" id="path44" style="stroke:#000000;stroke-width:8;stroke-miterlimit:4;stroke-dasharray:none;fill:none;stroke-opacity:1"/>
      <path d="m 2716.8,84 -54,-9.6016 9.6,-19.1992 69.6,15.6016 80.4,0 19.2,3.5976 9.6,25.2032 0,90.0004 12,82.796 6,96 -34.8,54" inkscape:connector-curvature="0" id="path46" style="stroke:#000000;stroke-width:8;stroke-miterlimit:4;stroke-dasharray:none;fill:none;stroke-opacity:1"/>
      <path d="m 2652,68.3984 -19.2,-19.1992 30,6" inkscape:connector-curvature="0" id="path48" style="stroke:#000000;stroke-width:8;stroke-miterlimit:4;stroke-dasharray:none;fill:none;stroke-opacity:1"/>
      <path d="m 2872.8,374.398 73.2,-12 93.6,0 82.8,15.602 157.2,-28.801 44.4,-3.597 48,7.199 51.6,28.801 -282,105.597" inkscape:connector-curvature="0" id="path50" style="stroke:#000000;stroke-width:8;stroke-miterlimit:4;stroke-dasharray:none;fill:none;stroke-opacity:1"/>
      <path d="m 2454,433.199 36,-58.801 6,-67.199 -22.8,-114 -28.8,-67.199 -94.8,-7.199 -74.4,0 -51.6,-8.403 L 2221.2,84" inkscape:connector-curvature="0" id="path52" style="stroke:#000000;stroke-width:8;stroke-miterlimit:4;stroke-dasharray:none;fill:none;stroke-opacity:1"/>
      <path d="m 2223.6,103.199 -28.8,-15.5974 26.4,0" inkscape:connector-curvature="0" id="path54" style="stroke:#000000;stroke-width:8;stroke-miterlimit:4;stroke-dasharray:none;fill:none;stroke-opacity:1"/>
      <path d="m 2342.4,99.6016 -105.6,-6 -21.6,-9.6016 6,-19.1992 130.8,6 -38.4,-12 19.2,-9.6016 102,15.6016 34.8,0 10.8,9.5976 15.6,59.9996 50.4,141.602 68.4,111.602" inkscape:connector-curvature="0" id="path56" style="stroke:#000000;stroke-width:8;stroke-miterlimit:4;stroke-dasharray:none;fill:none;stroke-opacity:1"/>
      <path d="m 2217.6,80.3984 -22.8,-25.1992 22.8,9.6016" inkscape:connector-curvature="0" id="path58" style="stroke:#000000;stroke-width:8;stroke-miterlimit:4;stroke-dasharray:none;fill:none;stroke-opacity:1"/>
      <path d="m 2310,58.8008 -18,-13.1992 37.2,0" inkscape:connector-curvature="0" id="path60" style="stroke:#000000;stroke-width:8;stroke-miterlimit:4;stroke-dasharray:none;fill:none;stroke-opacity:1"/>
      <path d="m 2548.8,1488 0,-396 69.6,0 0,396 -69.6,0" inkscape:connector-curvature="0" id="path62" style="stroke:#000000;stroke-width:8;stroke-miterlimit:4;stroke-dasharray:none;fill:none;stroke-opacity:1"/>
      <path d="m 2901.6,1488 0,-396 72,0 0,396 -72,0" inkscape:connector-curvature="0" id="path64" style="stroke:#000000;stroke-width:8;stroke-miterlimit:4;stroke-dasharray:none;fill:none;stroke-opacity:1"/>
      <path d="m 3258,1488 0,-396 70.8,0 0,396 -70.8,0" inkscape:connector-curvature="0" id="path66" style="stroke:#000000;stroke-width:8;stroke-miterlimit:4;stroke-dasharray:none;fill:none;stroke-opacity:1"/>
    </g>
  </g>
</svg>
