<?xml version="1.0" encoding="UTF-8"?>
<!-- Created with Inkscape (http://www.inkscape.org/) -->
<svg xmlns:dc="http://purl.org/dc/elements/1.1/" xmlns:cc="http://creativecommons.org/ns#" xmlns:rdf="http://www.w3.org/1999/02/22-rdf-syntax-ns#" xmlns:svg="http://www.w3.org/2000/svg" xmlns="http://www.w3.org/2000/svg" xmlns:inkscape="http://www.inkscape.org/namespaces/inkscape" version="1.1" width="765" height="990" id="svg2" xml:space="preserve">
  <metadata id="metadata8">
    <rdf:RDF>
      <cc:Work rdf:about="">
        <dc:format>image/svg+xml</dc:format>
        <dc:type rdf:resource="http://purl.org/dc/dcmitype/StillImage"/>
      </cc:Work>
    </rdf:RDF>
  </metadata>
  <defs id="defs6"/>
  <g transform="matrix(1.25,0,0,-1.25,0,990)" id="g10">
    <g transform="scale(0.1,0.1)" id="g12">
      <path d="m 340.801,877.199 0,-860.3982 67.199,0 0,860.3982" inkscape:connector-curvature="0" id="path14" style="stroke:#000000;stroke-width:8;stroke-miterlimit:4;stroke-dasharray:none;fill:none;stroke-opacity:1"/>
      <path d="m 14.3984,880.801 718.8006,0 0,226.799 -13.199,25.2 -12,16.8 -31.199,0 -20.403,-3.6 -19.199,-13.2 -63.597,-57.6 L 516,1024.8 471.602,1002 417.602,990 372,985.199 331.199,990 l -54,12 -45.597,22.8 -57.602,50.4 -63.602,57.6 -19.1988,13.2 -19.1992,3.6 -32.3984,0 -13.2032,-16.8 -12,-25.2 0,-226.799" inkscape:connector-curvature="0" id="path16" style="stroke:#000000;stroke-width:8;stroke-miterlimit:4;stroke-dasharray:none;fill:none;stroke-opacity:1"/>
      <path d="m 506.398,1024.8 -57.597,376.8 -25.199,32.4 -19.204,13.2 -25.199,8.4 -9.597,0 -26.403,-8.4 -18,-13.2 -26.398,-32.4 -57.602,-376.8" inkscape:connector-curvature="0" id="path18" style="stroke:#000000;stroke-width:8;stroke-miterlimit:4;stroke-dasharray:none;fill:none;stroke-opacity:1"/>
      <path d="m 1164,286.801 416.4,399.597" inkscape:connector-curvature="0" id="path20" style="stroke:#000000;stroke-width:8;stroke-miterlimit:4;stroke-dasharray:none;fill:none;stroke-opacity:1"/>
      <path d="M 1014,344.398 1525.2,834" inkscape:connector-curvature="0" id="path22" style="stroke:#000000;stroke-width:8;stroke-miterlimit:4;stroke-dasharray:none;fill:none;stroke-opacity:1"/>
      <path d="M 914.398,450 1426.8,939.602" inkscape:connector-curvature="0" id="path24" style="stroke:#000000;stroke-width:8;stroke-miterlimit:4;stroke-dasharray:none;fill:none;stroke-opacity:1"/>
      <path d="m 864,600 408,391.199" inkscape:connector-curvature="0" id="path26" style="stroke:#000000;stroke-width:8;stroke-miterlimit:4;stroke-dasharray:none;fill:none;stroke-opacity:1"/>
      <path d="m 1371.6,968.398 -34.8,9.602 -36,13.199 -37.2,6 -39.6,0 -40.8,-3.597 -34.8,-2.403 L 1110,978 l -34.8,-13.199 -36,-15.602 -32.4,-22.801 L 981.602,903.602 956.398,878.398 937.199,855.602 918,826.801 895.199,786 885.602,753.602 876,718.801 l -6,-36 -6,-40.801 0,-36 6,-40.801 9.602,-36 L 889.199,498 904.801,463.199 914.398,444 927.602,427.199 958.801,392.398 991.199,360 1020,338.398 1054.8,318 l 39.6,-18 37.2,-9.602 32.4,-9.597 38.4,0 38.4,-3.602 44.4,6 32.4,7.199 38.4,15.602 38.4,19.199 25.2,13.199 28.8,25.204 28.8,25.199 28.8,28.801 22.8,34.796 22.8,32.403 15.6,32.398 9.6,38.403 3.6,34.796 6,42 -3.6,34.801 -2.4,42 -10.8,34.801 -12,31.199 -16.8,42 -21.6,32.403 -22.8,25.199 -25.2,32.398 -32.4,22.801 -32.4,21.602 -34.8,16.796" inkscape:connector-curvature="0" id="path28" style="stroke:#000000;stroke-width:8;stroke-miterlimit:4;stroke-dasharray:none;fill:none;stroke-opacity:1"/>
      <path d="m 2262,1376.4 130.8,-54 22.8,13.2 19.2,0 12,-13.2 3.6,-25.2 -15.6,-19.2 -9.6,-67.2 57.6,-38.4 54,105.6 6,51.6 0,34.8 -2.4,25.2 -28.8,38.4 -48,36 -51.6,12 -50.4,0 -42,-15.6 -36,-38.4 -21.6,-45.6" inkscape:connector-curvature="0" id="path30" style="stroke:#000000;stroke-width:8;stroke-miterlimit:4;stroke-dasharray:none;fill:none;stroke-opacity:1"/>
      <path d="m 2277.6,1322.4 26.4,0 21.6,-21.6 -28.8,6 -21.6,15.6" inkscape:connector-curvature="0" id="path32" style="stroke:#000000;stroke-width:8;stroke-miterlimit:4;stroke-dasharray:none;fill:none;stroke-opacity:1"/>
      <path d="m 2262,1376.4 -15.6,-66 -42,-74.4 34.8,-6 25.2,-74.4 64.8,20.4 9.6,-51.6 -134.4,-57.6 -25.2,-22.8 -166.8,-198 -31.2,42 -153.6,136.8 -16.8,64.8 -28.8,44.4 -40.8,31.2 -42,19.2 -6,-19.2 63.6,-40.8 19.2,-45.6 -9.6,-15.6 -22.8,13.2 -13.2,13.2 -15.6,-16.8 28.8,-28.8 28.8,-15.6 22.8,-22.8 82.8,-117.6 115.2,-115.199 34.8,-7.199 38.4,22.796 163.2,195.602 67.2,-349.199 0,-48 -38.4,-213.602 -130.8,163.199 -57.6,50.403 -73.2,42 -42,19.199 -31.2,-6 -26.4,-36 -6,-44.398 67.2,-326.403" inkscape:connector-curvature="0" id="path34" style="stroke:#000000;stroke-width:8;stroke-miterlimit:4;stroke-dasharray:none;fill:none;stroke-opacity:1"/>
      <path d="m 1996.8,628.801 -38.4,-80.403 31.2,-60 16.8,-49.199 6,-79.199 -6,-96" inkscape:connector-curvature="0" id="path36" style="stroke:#000000;stroke-width:8;stroke-miterlimit:4;stroke-dasharray:none;fill:none;stroke-opacity:1"/>
      <path d="m 2504.4,423.602 -60,-6 -186,-44.403 -252,-109.199 -48,-28.801 -42,-19.199 -44.4,-38.398 -9.6,-28.801 2.4,-34.801 26.4,-38.3984 48,-19.2032 67.2,0 332.4,28.8008 130.8,-9.5976 115.2,-36 115.2,0 -9.6,19.1992 -48,3.5976 -118.8,53.9996 -21.6,32.403 -19.2,0 -38.4,-19.199 -38.4,0 -115.2,32.398 -63.6,6 -128.4,-12 -105.6,-32.398 -76.8,92.398" inkscape:connector-curvature="0" id="path38" style="stroke:#000000;stroke-width:8;stroke-miterlimit:4;stroke-dasharray:none;fill:none;stroke-opacity:1"/>
      <path d="m 1864.8,114 -66,-28.8008 -74.4,-22.8008 0,-25.1992 57.6,0 109.2,38.4024" inkscape:connector-curvature="0" id="path40" style="stroke:#000000;stroke-width:8;stroke-miterlimit:4;stroke-dasharray:none;fill:none;stroke-opacity:1"/>
      <path d="M 2482.8,148.801 2502,174 l 9.6,28.801 9.6,67.199 0,45.602 -13.2,60 -3.6,51.597 10.8,172.801 18,144" inkscape:connector-curvature="0" id="path42" style="stroke:#000000;stroke-width:8;stroke-miterlimit:4;stroke-dasharray:none;fill:none;stroke-opacity:1"/>
      <path d="m 2540.4,798 9.6,61.199 25.2,73.199 19.2,19.204 19.2,0 96,-204 -169.2,50.398 -80.4,22.801 -32.4,57.597 -21.6,25.204 -51.6,21.597 -31.2,0 -30,-2.398 3.6,-9.602 32.4,-3.597 32.4,-15.602 21.6,-13.199 9.6,-27.602 -25.2,-3.597 -28.8,19.199 -9.6,-13.199 25.2,-25.204 26.4,-19.199 63.6,-22.801 118.8,-67.199 100.8,-42 105.6,-25.199 22.8,7.199 9.6,28.801 -3.6,31.199 -117.6,284.401 -48,55.2 -69.6,44.4 -76.8,9.6 -3.6,57.6" inkscape:connector-curvature="0" id="path44" style="stroke:#000000;stroke-width:8;stroke-miterlimit:4;stroke-dasharray:none;fill:none;stroke-opacity:1"/>
    </g>
  </g>
</svg>
