<?xml version="1.0" encoding="UTF-8"?>
<!-- Created with Inkscape (http://www.inkscape.org/) -->
<svg xmlns:dc="http://purl.org/dc/elements/1.1/" xmlns:cc="http://creativecommons.org/ns#" xmlns:rdf="http://www.w3.org/1999/02/22-rdf-syntax-ns#" xmlns:svg="http://www.w3.org/2000/svg" xmlns="http://www.w3.org/2000/svg" xmlns:inkscape="http://www.inkscape.org/namespaces/inkscape" version="1.1" width="765" height="990" id="svg2" xml:space="preserve">
  <metadata id="metadata8">
    <rdf:RDF>
      <cc:Work rdf:about="">
        <dc:format>image/svg+xml</dc:format>
        <dc:type rdf:resource="http://purl.org/dc/dcmitype/StillImage"/>
      </cc:Work>
    </rdf:RDF>
  </metadata>
  <defs id="defs6"/>
  <g transform="matrix(1.25,0,0,-1.25,0,990)" id="g10">
    <g transform="scale(0.1,0.1)" id="g12">
      <path d="m 1466.4,31.1992 -28.8,1.1992 -30,6 -22.8,13.2032 -19.2,13.1992 -34.8,36.0002 -32.4,37.199 -30,40.801 -14.4,31.199 -10.8,26.398 -15.6,46.801 -3.6,56.403 3.6,26.398 15.6,28.801 25.2,32.398 -40.8,13.199 -30,24 -49.2,66 34.8,-100.796 22.8,-84 4.8,-43.204 7.2,-33.597 9.6,-34.801 10.8,-30 16.8,-27.602 18,-30 21.6,-24 22.8,-25.1988 19.2,-21.5976 L 1352.4,60 1363.2,51.6016 1317.6,67.1992 1270.8,84 l -43.2,21.602 -44.4,44.398 -26.4,37.199 -19.2,32.403 -19.2,43.199 -16.8,49.199 -13.2,46.801 -6,44.398 -4.8,37.199 4.8,38.403 10.8,30 36,49.199 19.2,21.602 -49.2,21.597 -38.4,30 -43.2,60 25.2,-90 26.4,-87.597 -3.6,-61.204 1.2,-44.398 8.4,-45.602 7.2,-39.597 13.2,-37.199 12,-32.403 15.6,-32.398 21.6,-40.801 52.8,-66 -42,24 -40.8,25.199 -45.6,39.602 -44.4,42 -31.198,48 -14.403,44.398 -10.801,49.199 4.801,46.801 6,19.199 13.199,26.403 16.802,19.199 -40.802,21.602 -38.398,30 -49.199,64.796 32.398,-94.796 33.602,-97.204 L 954,388.801 956.398,362.398 966,322.801 987.602,270 l 17.998,-25.199 25.2,-27.602 21.6,-21.597 30,-25.204 30,-21.597 38.4,-24 43.2,-25.1994 100.8,-42 82.8,-26.4024 62.4,-10.8008 26.4,-4.7968 0,12" inkscape:connector-curvature="0" id="path14" style="stroke:#000000;stroke-width:8;stroke-miterlimit:4;stroke-dasharray:none;fill:none;stroke-opacity:1"/>
      <path d="m 205.199,126 258,247.199" inkscape:connector-curvature="0" id="path16" style="stroke:#000000;stroke-width:8;stroke-miterlimit:4;stroke-dasharray:none;fill:none;stroke-opacity:1"/>
      <path d="m 111.602,162 318,302.398" inkscape:connector-curvature="0" id="path18" style="stroke:#000000;stroke-width:8;stroke-miterlimit:4;stroke-dasharray:none;fill:none;stroke-opacity:1"/>
      <path d="M 50.3984,226.801 368.398,530.398" inkscape:connector-curvature="0" id="path20" style="stroke:#000000;stroke-width:8;stroke-miterlimit:4;stroke-dasharray:none;fill:none;stroke-opacity:1"/>
      <path d="M 19.1992,320.398 272.398,561.602" inkscape:connector-curvature="0" id="path22" style="stroke:#000000;stroke-width:8;stroke-miterlimit:4;stroke-dasharray:none;fill:none;stroke-opacity:1"/>
      <path d="m 333.602,548.398 -21.602,6 -21.602,7.204 -24,4.796 -24,0 -25.199,-2.398 -21.597,-2.398 -24,-7.204 L 150,546 128.398,536.398 108,522 92.3984,508.801 76.8008,493.199 l -12,-14.398 -12,-18 L 38.3984,435.602 33.6016,415.199 26.3984,393.602 22.8008,372 l -3.6016,-26.398 0,-21.602 3.6016,-25.199 6,-21.602 6,-20.398 10.8008,-21.602 4.7968,-12 8.4024,-9.597 20.3984,-22.801 19.1992,-19.199 17.9996,-14.403 21.602,-12 24,-12 24,-4.801 19.199,-6 24,0 24,-2.398 27.602,4.801 19.199,3.597 24,9.602 24,12 15.602,7.199 18,16.801 18,15.602 18,18 13.199,21.597 14.398,19.199 9.602,20.403 6,24 2.398,21.597 3.602,25.204 -2.403,21.597 -1.199,26.403 -6,21.597 -8.398,20.403 -9.602,25.199 -14.398,20.398 -13.199,15.602 -16.801,19.199 -19.199,14.398 -19.204,14.403 -22.796,9.597" inkscape:connector-curvature="0" id="path24" style="stroke:#000000;stroke-width:8;stroke-miterlimit:4;stroke-dasharray:none;fill:none;stroke-opacity:1"/>
      <path d="m 590.398,728.398 147.602,0 -3.602,54 15.602,70.801 14.398,42 28.801,66 135.602,237.601 7.199,51.6 1.199,24 -3.597,44.4 -7.204,28.8 -13.199,36 -21.597,34.8 -16.801,20.4 -44.403,40.8 -34.796,13.2 -69.602,7.2 -60,-7.2 -24,-10.8 -30,-19.2 -26.398,-28.8 -12,-18 -12,-14.4" inkscape:connector-curvature="0" id="path26" style="stroke:#000000;stroke-width:8;stroke-miterlimit:4;stroke-dasharray:none;fill:none;stroke-opacity:1"/>
      <path d="M 554.398,1399.2 531.602,1389.6 292.801,1342.8 270,1326 l -16.801,-12 -14.398,-27.6 -4.801,-39.6 2.398,-9.6 6,-3.6 6,0 12,3.6 4.801,22.8 14.403,21.6 22.796,19.2 24,7.2 32.403,10.8 198,26.4 4.801,2.4 28.796,-4.8" inkscape:connector-curvature="0" id="path28" style="stroke:#000000;stroke-width:8;stroke-miterlimit:4;stroke-dasharray:none;fill:none;stroke-opacity:1"/>
      <path d="m 556.801,1399.2 33.597,-58.8 0,-32.4" inkscape:connector-curvature="0" id="path30" style="stroke:#000000;stroke-width:8;stroke-miterlimit:4;stroke-dasharray:none;fill:none;stroke-opacity:1"/>
      <path d="m 270,1262.4 22.801,14.4 36,9.6 94.801,9.6 96,12 73.199,0 19.199,-2.4 39.602,-9.6 68.398,-12 37.199,-2.4 27.602,2.4 28.801,7.2 16.796,-9.6 7.204,-12 2.398,-30 -2.398,-24 -12,-30 -108,-141.6 -52.801,-85.199 -22.801,-44.403 -26.398,-51.597 -14.403,-66 -10.801,-68.403" inkscape:connector-curvature="0" id="path32" style="stroke:#000000;stroke-width:8;stroke-miterlimit:4;stroke-dasharray:none;fill:none;stroke-opacity:1"/>
      <path d="m 801.602,1489.2 127.199,-45.6 124.799,-32.4 50.4,-9.6 44.4,-2.4 54,0 58.8,2.4 43.2,9.6 44.4,9.6 4.8,-4.8 -4.8,-16.8 -16.8,-12 -58.8,-12 -58.8,-8.4 -66,0 -56.4,6 -94.801,16.8 -54,16.8" inkscape:connector-curvature="0" id="path34" style="stroke:#000000;stroke-width:8;stroke-miterlimit:4;stroke-dasharray:none;fill:none;stroke-opacity:1"/>
      <path d="m 874.801,1443.6 94.801,-51.6 95.998,-49.2 58.8,-28.8 43.2,-18 49.2,-12 34.8,-4.8 63.6,-7.2 26.4,4.8 12,2.4 9.6,-7.2 2.4,-14.4 -36,-13.2 -44.4,-4.8 -48,7.2 -69.6,15.6 -57.6,19.2 -56.4,26.4 -137.998,79.2" inkscape:connector-curvature="0" id="path36" style="stroke:#000000;stroke-width:8;stroke-miterlimit:4;stroke-dasharray:none;fill:none;stroke-opacity:1"/>
      <path d="m 668.398,1428 -14.398,-2.4 -12,-14.4 0,-16.8 12,-12 16.801,0 18,7.2 2.398,9.6 -4.801,14.4 -13.199,14.4" inkscape:connector-curvature="0" id="path38" style="stroke:#000000;stroke-width:8;stroke-miterlimit:4;stroke-dasharray:none;fill:none;stroke-opacity:1"/>
    </g>
  </g>
</svg>
