<?xml version="1.0" encoding="UTF-8"?>
<!-- Created with Inkscape (http://www.inkscape.org/) -->
<svg xmlns:dc="http://purl.org/dc/elements/1.1/" xmlns:cc="http://creativecommons.org/ns#" xmlns:rdf="http://www.w3.org/1999/02/22-rdf-syntax-ns#" xmlns:svg="http://www.w3.org/2000/svg" xmlns="http://www.w3.org/2000/svg" xmlns:inkscape="http://www.inkscape.org/namespaces/inkscape" version="1.1" width="765" height="990" id="svg2" xml:space="preserve">
  <metadata id="metadata8">
    <rdf:RDF>
      <cc:Work rdf:about="">
        <dc:format>image/svg+xml</dc:format>
        <dc:type rdf:resource="http://purl.org/dc/dcmitype/StillImage"/>
      </cc:Work>
    </rdf:RDF>
  </metadata>
  <defs id="defs6"/>
  <g transform="matrix(1.25,0,0,-1.25,0,990)" id="g10">
    <g transform="scale(0.1,0.1)" id="g12">
      <path d="m 1270.8,1054.8 31.2,16.8 26.4,8.4 34.8,7.2 38.4,3.6 32.4,-3.6 31.2,-2.4 32.4,-13.2 21.6,-7.2 28.8,-12 22.8,-19.2 -3.6,-13.2 -6,-12 -44.4,21.6 -26.4,9.6 -28.8,6 -34.8,7.2 -34.8,0 -28.8,-7.2 -6,-25.2 2.4,-6 32.4,-9.6 21.6,-3.6 26.4,9.6 25.2,3.6 7.2,-19.199 -32.4,-15.602 -26.4,-4.801 -37.2,-6 -38.4,13.204 -44.4,13.199 -20.4,2.398 -82.8,-12 -82.8,-3.597 -76.8,-7.204 -70.8,0 -50.398,10.801 -25.204,22.801 -13.199,37.2 -19.199,42 -13.199,48 -6,25.2 -38.403,128.4 -13.199,15.6 -13.199,-13.2 -50.398,-156 -13.204,-44.4 -19.199,-42 -12,-34.8 -22.801,-26.398 -28.796,-8.403 -50.403,-4.801 -76.801,7.204 -74.398,6 -108,0 -16.801,7.199 -69.597,-20.403 -76.801,-2.398 -38.403,22.801 0,5.999 9.602,19.2 34.801,-15.6 45.597,-3.6 25.204,19.2 6,6 -12,13.2 -39.602,9.6 -34.801,0 -28.801,-3.6 -25.1988,-9.6 L 72,1026 26.3984,1008 18,1014 l -3.6016,19.2 19.2032,12 34.7968,19.2 28.8008,13.2 38.4028,13.2 42,2.4 34.796,3.6 38.403,-12 26.398,-7.2 15.602,-15.6 27.597,-9.6 58.801,6 79.199,6 63.602,-6 45.602,-6 15.597,9.6 15.602,48 15.597,54 33.602,118.8 31.199,82.8 9.602,25.2 15.597,26.4 20.403,13.2 12,6 44.398,6 42,-9.6 25.199,-13.2 9.602,-15.6 19.199,-38.4 32.403,-90 32.398,-121.2 18,-51.6 19.199,-48 28.801,3.6 55.2,6 44.4,0 70.8,-6 57.6,-6 37.2,0" inkscape:connector-curvature="0" id="path14" style="stroke:#000000;stroke-width:8;stroke-miterlimit:4;stroke-dasharray:none;fill:none;stroke-opacity:1"/>
      <path d="m 1630.8,66 -98.4,19.1992 -70.8,12 -51.6,19.1988 -63.6,26.403 -67.2,31.199 -124.8,70.801 -127.2,70.801 -64.802,21.597 -76.796,28.801 -76.801,13.199 -57.602,13.199 -69.597,0 -70.801,-9.597 -69.602,-22.801 -70.801,-34.801 -76.796,-57.597 -50.403,-48 -51.597,-32.403 -42,-28.801 -34.801,-9.597 L 176.398,133.199 138,120 74.3984,110.398" inkscape:connector-curvature="0" id="path16" style="stroke:#000000;stroke-width:8;stroke-miterlimit:4;stroke-dasharray:none;fill:none;stroke-opacity:1"/>
      <path d="m 141.602,123.602 54,0 48,2.398 48,-9.602 L 374.398,97.1992 439.199,72 l 69.602,-15.6016 76.801,-19.1992 48,-9.5976 L 720,24 l 111.602,9.6016 54,6 179.998,22.7968 69.6,9.6016 63.6,7.1992 64.8,6 127.2,6 64.8,-6 54,-6 54,-7.1992 28.8,0" inkscape:connector-curvature="0" id="path18" style="stroke:#000000;stroke-width:8;stroke-miterlimit:4;stroke-dasharray:none;fill:none;stroke-opacity:1"/>
      <path d="m 525.602,348 -22.801,-32.398 -6,-25.204 L 486,258 483.602,225.602 496.801,168 l 18,-28.801 19.199,-28.801 32.398,-25.1988 36,-19.1992 72,-9.6016 55.204,6 42,6 50.398,35.9996 32.398,38.403 15.602,28.801 9.602,60 -6,58.796 -16.801,31.204 -15.602,26.398 -32.398,31.199" inkscape:connector-curvature="0" id="path20" style="stroke:#000000;stroke-width:8;stroke-miterlimit:4;stroke-dasharray:none;fill:none;stroke-opacity:1"/>
      <path d="m 2058,876 0,-860.3984 68.4,0 0,860.3984" inkscape:connector-curvature="0" id="path22" style="stroke:#000000;stroke-width:8;stroke-miterlimit:4;stroke-dasharray:none;fill:none;stroke-opacity:1"/>
      <path d="m 1732.8,879.602 718.8,0 0,226.798 -13.2,26.4 -12,15.6 -32.4,0 -19.2,-3.6 -19.2,-12 -63.6,-57.6 -57.6,-51.6 -44.4,-22.8 -55.2,-11.999 -44.4,-3.602 -40.8,3.602 -55.2,11.999 -44.4,22.8 -57.6,51.6 -64.8,57.6 -18,12 -19.2,3.6 -32.4,0 -13.2,-15.6 -12,-26.4 0,-226.798" inkscape:connector-curvature="0" id="path24" style="stroke:#000000;stroke-width:8;stroke-miterlimit:4;stroke-dasharray:none;fill:none;stroke-opacity:1"/>
      <path d="m 2224.8,1023.6 -57.6,378 -25.2,31.2 -19.2,13.2 -25.2,9.6 -10.8,0 -25.2,-9.6 -19.2,-13.2 -25.2,-31.2 -57.6,-378" inkscape:connector-curvature="0" id="path26" style="stroke:#000000;stroke-width:8;stroke-miterlimit:4;stroke-dasharray:none;fill:none;stroke-opacity:1"/>
      <path d="m 3222,1452 -15.6,-322.8 -6,-274.802 -7.2,-211.199 -15.6,-151.199 -13.2,-142.801 7.2,-153.597 9.6,-49.204 6,-37.199 -3.6,-39.5974 -19.2,-25.2032 -28.8,-19.1992 -34.8,-6 -63.6,15.6016 L 3012,54 l -42,9.6016 -96,-48 -397.2,3.5976 -15.6,50.4024 13.2,26.3984 36,6 136.8,28.801 115.2,57.597 76.8,28.801 67.2,15.602 46.8,42 16.8,42 3.6,44.398 -7.2,67.199 -2.4,90 -7.2,242.403 -3.6,243.599 -25.2,451.2 294,0" inkscape:connector-curvature="0" id="path28" style="stroke:#000000;stroke-width:8;stroke-miterlimit:4;stroke-dasharray:none;fill:none;stroke-opacity:1"/>
    </g>
  </g>
</svg>
