<?xml version="1.0" encoding="UTF-8"?>
<!-- Created with Inkscape (http://www.inkscape.org/) -->
<svg xmlns:dc="http://purl.org/dc/elements/1.1/" xmlns:cc="http://creativecommons.org/ns#" xmlns:rdf="http://www.w3.org/1999/02/22-rdf-syntax-ns#" xmlns:svg="http://www.w3.org/2000/svg" xmlns="http://www.w3.org/2000/svg" xmlns:inkscape="http://www.inkscape.org/namespaces/inkscape" version="1.1" width="765" height="990" id="svg2" xml:space="preserve">
  <metadata id="metadata8">
    <rdf:RDF>
      <cc:Work rdf:about="">
        <dc:format>image/svg+xml</dc:format>
        <dc:type rdf:resource="http://purl.org/dc/dcmitype/StillImage"/>
      </cc:Work>
    </rdf:RDF>
  </metadata>
  <defs id="defs6"/>
  <g transform="matrix(1.25,0,0,-1.25,0,990)" id="g10">
    <g transform="scale(0.1,0.1)" id="g12">
      <path d="m 150,636 28.801,0 0,-622.8008 -28.801,0 L 150,636" inkscape:connector-curvature="0" id="path14" style="stroke:#000000;stroke-width:8;stroke-miterlimit:4;stroke-dasharray:none;fill:none;stroke-opacity:1"/>
      <path d="m 150,596.398 -138,0 0,-25.199 138,0" inkscape:connector-curvature="0" id="path16" style="stroke:#000000;stroke-width:8;stroke-miterlimit:4;stroke-dasharray:none;fill:none;stroke-opacity:1"/>
      <path d="m 150,529.199 -138,0 0,-26.398 138,0" inkscape:connector-curvature="0" id="path18" style="stroke:#000000;stroke-width:8;stroke-miterlimit:4;stroke-dasharray:none;fill:none;stroke-opacity:1"/>
      <path d="m 150,190.801 -108,0 108,-177.6018" inkscape:connector-curvature="0" id="path20" style="stroke:#000000;stroke-width:8;stroke-miterlimit:4;stroke-dasharray:none;fill:none;stroke-opacity:1"/>
      <path d="m 148.801,190.801 -49.1994,110.398 -25.2032,0 52.8006,-110.398" inkscape:connector-curvature="0" id="path22" style="stroke:#000000;stroke-width:8;stroke-miterlimit:4;stroke-dasharray:none;fill:none;stroke-opacity:1"/>
      <path d="m 98.3984,190.801 -55.1992,110.398 -24,0 49.1992,-110.398" inkscape:connector-curvature="0" id="path24" style="stroke:#000000;stroke-width:8;stroke-miterlimit:4;stroke-dasharray:none;fill:none;stroke-opacity:1"/>
      <path d="m 670.801,482.398 -325.199,0 3.597,27.602 3.602,18 7.199,18 9.602,13.199 8.398,13.199 10.801,14.403 12,10.801 15.597,12 13.204,8.398 16.796,7.199 18,6 13.204,3.602 21.597,2.398 16.801,0 15.602,-2.398 16.796,-3.602 18,-4.801 12,-3.597 16.801,-10.801 13.199,-9.602 12,-9.597 12,-14.403 L 643.199,564 652.801,548.398 660,534 l 4.801,-20.398 4.801,-14.403 1.199,-16.801" inkscape:connector-curvature="0" id="path26" style="stroke:#000000;stroke-width:8;stroke-miterlimit:4;stroke-dasharray:none;fill:none;stroke-opacity:1"/>
      <path d="M 1173.6,592.801 975.602,264 978,260.398 l 199.2,331.204 14.4,1.199 4.8,8.398 -3.6,9.602 -8.4,3.597 -6,4.801 0,2.403 10.8,-2.403 10.8,18 2.4,-4.801 -9.6,-14.398 -3.6,2.398 7.2,-7.199 8.4,-10.801 0,-15.597 6,-15.602 6,-19.199 7.2,-20.398 7.2,-25.204 1.2,-21.597 -2.4,-15.602 -2.4,-3.597 -21.6,-2.403 -24,-6 -24,-6 -26.4,-8.398 -13.2,-14.403 -4.8,-19.199 -3.6,-26.398 0,-22.801 -81.6,-22.801 -48.002,-134.398 134.402,0 -1.2,20.398 -1.2,31.199 2.4,13.204 6,13.199 4.8,13.199 -1.2,16.801 -7.2,21.597 -6,20.403 -1.2,4.801" inkscape:connector-curvature="0" id="path28" style="stroke:#000000;stroke-width:8;stroke-miterlimit:4;stroke-dasharray:none;fill:none;stroke-opacity:1"/>
      <path d="m 1179.6,614.398 -6,-2.398 -3.6,-13.199 0,-4.801 6,-4.801 7.2,-4.801 7.2,-4.796 2.4,-24 7.2,-31.204 1.2,-24 1.2,-8.398 -15.6,-2.398 -24,-1.204 -32.4,3.602 -13.2,-3.602 -22.8,-2.398 -1.2,19.199 7.2,8.403 12,19.199 4.8,15.597 2.4,12 0,19.204 -8.4,16.796 -18,14.403 -20.4,2.398 -16.8,-2.398 -14.4,-7.199 -14.4,-16.801 -8.4,-20.403 -7.2,-10.796 -7.2,-10.801 2.4,-3.602 15.6,-6 0,-19.199 4.8,-4.801 19.2,-4.801 0,-20.398 -22.8,-1.199 -22.8,-4.801 -3.601,-1.199 -8.398,-8.403 L 974.398,442.801 966,421.199 956.398,396 l -6,-18 -3.597,-12 1.199,-19.199 3.602,-19.199 3.597,-24 3.602,-18 0,-7.204 -4.801,-10.796 1.199,-12 2.403,-9.602 4.796,-6 7.204,-1.199 8.398,2.398 4.801,10.801 -2.403,7.199 -4.796,12 9.597,-15.597 3.602,1.199 -7.199,19.199 -6,4.801 -1.204,24 0,57.597 L 990,390 l 9.602,22.801 9.598,25.199 6,-21.602 7.2,-32.398 7.2,-28.801" inkscape:connector-curvature="0" id="path30" style="stroke:#000000;stroke-width:8;stroke-miterlimit:4;stroke-dasharray:none;fill:none;stroke-opacity:1"/>
      <path d="M 1023.6,573.602 1074,564 l 7.2,7.199 6,0 1.2,-13.199 -1.2,-2.398 -3.6,-16.801 2.4,-13.199 6,-4.801 9.6,6" inkscape:connector-curvature="0" id="path32" style="stroke:#000000;stroke-width:8;stroke-miterlimit:4;stroke-dasharray:none;fill:none;stroke-opacity:1"/>
      <path d="m 1028.4,552 13.2,-3.602 -3.6,4.801 -7.2,2.403 -2.4,-3.602" inkscape:connector-curvature="0" id="path34" style="stroke:#000000;stroke-width:8;stroke-miterlimit:4;stroke-dasharray:none;fill:none;stroke-opacity:1"/>
      <path d="M 963.602,240 848.398,38.3984 l -10.796,18 -1.204,-42 38.403,24 -21.602,-1.1992 115.199,201.6018" inkscape:connector-curvature="0" id="path36" style="stroke:#000000;stroke-width:8;stroke-miterlimit:4;stroke-dasharray:none;fill:none;stroke-opacity:1"/>
      <path d="m 980.398,202.801 -6,-14.403 -4.796,-15.597 1.199,-19.199 -4.801,-22.801 -7.199,-15.602 -6,-25.199 -6,-32.3984 -2.403,-6 -9.597,-13.2032 -24,-8.3984 -14.403,-3.6016 -13.199,-1.1992 1.199,-9.5976 61.204,0 7.199,6 3.597,-7.2032 7.204,0 4.796,4.8008 2.403,7.1992 -2.403,4.8008 0,16.8008 4.801,18 9.602,24 7.199,14.398 4.801,15.602 3.597,19.199 2.402,15.602 1.2,6 12,14.398 9.6,15.602 9.6,10.801" inkscape:connector-curvature="0" id="path38" style="stroke:#000000;stroke-width:8;stroke-miterlimit:4;stroke-dasharray:none;fill:none;stroke-opacity:1"/>
      <path d="m 1071.6,201.602 8.4,-30 7.2,-21.602 3.6,-4.801 7.2,-25.199 4.8,-22.8008 4.8,-25.1992 1.2,-16.8008 -6,-9.5976 L 1092,36 l -12,-6 -14.4,-2.3984 -10.8,-2.4024 -7.2,0 1.2,-10.8008 66,0 6,6 4.8,-6 4.8,0 8.4,4.8008 1.2,7.1992 -3.6,15.6016 -2.4,9.6016 -2.4,21.5976 1.2,18 0,19.1988 -1.2,15.602 -6,27.602 -7.2,19.199 -3.6,15.597 0,13.204" inkscape:connector-curvature="0" id="path40" style="stroke:#000000;stroke-width:8;stroke-miterlimit:4;stroke-dasharray:none;fill:none;stroke-opacity:1"/>
      <path d="m 348,268.801 110.398,-248.4026 55.204,0 -110.403,248.4026 -55.199,0" inkscape:connector-curvature="0" id="path42" style="stroke:#000000;stroke-width:8;stroke-miterlimit:4;stroke-dasharray:none;fill:none;stroke-opacity:1"/>
      <path d="m 516,268.801 110.398,-248.4026 54,0 L 570,268.801 l -54,0" inkscape:connector-curvature="0" id="path44" style="stroke:#000000;stroke-width:8;stroke-miterlimit:4;stroke-dasharray:none;fill:none;stroke-opacity:1"/>
    </g>
  </g>
</svg>
