<?xml version="1.0" encoding="UTF-8"?>
<!-- Created with Inkscape (http://www.inkscape.org/) -->
<svg xmlns:dc="http://purl.org/dc/elements/1.1/" xmlns:cc="http://creativecommons.org/ns#" xmlns:rdf="http://www.w3.org/1999/02/22-rdf-syntax-ns#" xmlns:svg="http://www.w3.org/2000/svg" xmlns="http://www.w3.org/2000/svg" xmlns:inkscape="http://www.inkscape.org/namespaces/inkscape" version="1.1" width="765" height="990" id="svg2" xml:space="preserve">
  <metadata id="metadata8">
    <rdf:RDF>
      <cc:Work rdf:about="">
        <dc:format>image/svg+xml</dc:format>
        <dc:type rdf:resource="http://purl.org/dc/dcmitype/StillImage"/>
      </cc:Work>
    </rdf:RDF>
  </metadata>
  <defs id="defs6"/>
  <g transform="matrix(1.25,0,0,-1.25,0,990)" id="g10">
    <g transform="scale(0.1,0.1)" id="g12">
      <path d="m 3114,525.602 31.2,-19.204 22.8,-8.398 12,0 10.8,12 15.6,15.602 78,134.398 0,19.199 -4.8,8.403 -7.2,10.796 -27.6,15.602 -632.4,297.6 -15.6,3.6 -19.2,3.6 -19.2,-7.2 -19.2,-11.998 -7.2,-10.801 -8.4,-22.801 0,-15.602 8.4,-19.199 10.8,-15.597 19.2,-20.403 552,-369.597" inkscape:connector-curvature="0" id="path14" style="stroke:#000000;stroke-width:8;stroke-miterlimit:4;stroke-dasharray:none;fill:none;stroke-opacity:1"/>
      <path d="m 2137.2,1093.2 0,-628.802 139.2,0 0,628.802 -139.2,0" inkscape:connector-curvature="0" id="path16" style="stroke:#000000;stroke-width:8;stroke-miterlimit:4;stroke-dasharray:none;fill:none;stroke-opacity:1"/>
      <path d="m 1033.2,1126.8 -39.598,-43.2 -13.204,-52.8 9.602,-52.8 22.8,-39.602 63.6,-58.796 109.2,-60 187.2,-68.403 224.4,-46.801 224.4,-26.398 72,-6 46.8,-3.602 22.8,7.204 13.2,13.199 0,15.597 -16.8,13.204 -88.8,16.796 -56.4,26.403 -33.6,22.801 -78,66 -118.8,109.199 -118.8,92.399 -109.2,58.8 -105.6,43.2 -78,22.8 -69.6,3.6 -60,-13.2 -45.601,-22.8 -33.597,-20.4 -15.602,-16.8 -22.801,-2.4 -27.597,6 -2.403,24 128.401,105.6 26.4,28.8 16.8,36 2.4,33.6 -2.4,28.8" inkscape:connector-curvature="0" id="path18" style="stroke:#000000;stroke-width:8;stroke-miterlimit:4;stroke-dasharray:none;fill:none;stroke-opacity:1"/>
      <path d="m 1036.8,1390.8 135.6,-62.4 141.6,-52.8 124.8,-26.4 132,-9.6 98.4,-3.6 73.2,9.6 -103.2,15.6 -114,10.8 -129.6,19.2 -92.4,26.4 -111.6,40.8 -86.4,36 -51.6,36 177.6,-69.6 111.6,-19.2 60,-10.8 124.8,-9.6 115.2,7.2 69.6,6 55.2,3.6 -121.2,9.6 -105.6,10.8 -102,2.4 -88.8,13.2 -109.2,22.8 -98.4,30 -66,30 -45.6,30 -37.198,13.2 -32.403,2.4 -73.199,-9.6 -55.199,-20.4 -24,-15.6 -13.199,-22.8 -3.602,-7.2 0,-26.4 16.801,-26.4 20.398,-7.2 19.199,-6 36,-9.6 40.801,0 22.801,9.6 19.199,3.6 9.602,-16.8 3.597,-30 -36,-42 -60,-43.2 -55.199,-52.8 -26.398,-36 -19.199,-30 -10.801,-52.8 6,-30 L 819.602,972 920.398,859.199 984,804 1056,751.199 1161.6,704.398 1224,612 l 66,-75.602 43.2,-45.597 13.2,-30 19.2,-214.801 0,-138 -6,-22.8008 L 1336.8,78 1195.2,57.6016 l -9.6,-2.4024 -20.4,-3.5976 -9.6,-13.2032 0,-19.1992 19.2,9.6016 22.8,-7.1992" inkscape:connector-curvature="0" id="path20" style="stroke:#000000;stroke-width:8;stroke-miterlimit:4;stroke-dasharray:none;fill:none;stroke-opacity:1"/>
      <path d="m 1293.6,57.6016 -82.8,-13.2032 -13.2,-9.5976 3.6,-15.6016 26.4,13.1992 20.4,-13.1992 130.8,15.6016 103.2,-15.6016 2.4,15.6016 -6,16.8008 -26.4,6 -30,10.7968 -9.6,2.4024 -9.6,20.3984 -3.6,339.6018 7.2,39.597 0,13.204 -24,43.199 -22.8,39.597 -75.6,122.403" inkscape:connector-curvature="0" id="path22" style="stroke:#000000;stroke-width:8;stroke-miterlimit:4;stroke-dasharray:none;fill:none;stroke-opacity:1"/>
      <path d="m 1314,651.602 118.8,-13.204 98.4,3.602 124.8,13.199 62.4,-56.398 76.8,-69.602 36,-2.398 36,9.597 39.6,33.602 7.2,26.398 -79.2,81.602" inkscape:connector-curvature="0" id="path24" style="stroke:#000000;stroke-width:8;stroke-miterlimit:4;stroke-dasharray:none;fill:none;stroke-opacity:1"/>
      <path d="M 792,1430.4 506.398,1255.2 835.199,1364.4" inkscape:connector-curvature="0" id="path26" style="stroke:#000000;stroke-width:8;stroke-miterlimit:4;stroke-dasharray:none;fill:none;stroke-opacity:1"/>
      <path d="M 795.602,1383.6 506.398,1255.2" inkscape:connector-curvature="0" id="path28" style="stroke:#000000;stroke-width:8;stroke-miterlimit:4;stroke-dasharray:none;fill:none;stroke-opacity:1"/>
      <path d="m 858,1436.4 -15.602,-9.6 9.602,-16.8 16.801,7.2 -7.199,13.2" inkscape:connector-curvature="0" id="path30" style="stroke:#000000;stroke-width:8;stroke-miterlimit:4;stroke-dasharray:none;fill:none;stroke-opacity:1"/>
      <path d="m 1491.6,48 26.4,-6 13.2,-9.6016 2.4,-7.1992 -15.6,-6 -22.8,2.4024" inkscape:connector-curvature="0" id="path32" style="stroke:#000000;stroke-width:8;stroke-miterlimit:4;stroke-dasharray:none;fill:none;stroke-opacity:1"/>
      <path d="M 997.199,789.602 1066.8,658.801 1144.8,540 1152,510 938.398,124.801 927.602,108 918,91.1992 l -22.801,-6 L 816,70.8008 763.199,62.3984 742.801,51.6016 729.602,48 l -19.204,-3.6016 -7.199,-6 -6,-16.7968 19.199,10.7968 24,-10.7968" inkscape:connector-curvature="0" id="path34" style="stroke:#000000;stroke-width:8;stroke-miterlimit:4;stroke-dasharray:none;fill:none;stroke-opacity:1"/>
      <path d="m 776.398,42 -13.199,0 -16.801,-3.6016 -6,-13.1992 6,-3.5976 19.204,7.1992" inkscape:connector-curvature="0" id="path36" style="stroke:#000000;stroke-width:8;stroke-miterlimit:4;stroke-dasharray:none;fill:none;stroke-opacity:1"/>
      <path d="m 778.801,44.3984 24,7.2032 52.801,3.5976" inkscape:connector-curvature="0" id="path38" style="stroke:#000000;stroke-width:8;stroke-miterlimit:4;stroke-dasharray:none;fill:none;stroke-opacity:1"/>
      <path d="M 769.199,28.8008 795.602,19.1992 918,32.3984 l 20.398,2.4024 98.402,-15.6016 2.4,15.6016 -2.4,16.8008 -30,6 -39.601,13.1992" inkscape:connector-curvature="0" id="path40" style="stroke:#000000;stroke-width:8;stroke-miterlimit:4;stroke-dasharray:none;fill:none;stroke-opacity:1"/>
      <path d="m 963.602,74.3984 -2.403,16.8008 204.001,339.6018 49.2,88.801 0,30 -36,126" inkscape:connector-curvature="0" id="path42" style="stroke:#000000;stroke-width:8;stroke-miterlimit:4;stroke-dasharray:none;fill:none;stroke-opacity:1"/>
      <path d="m 1046.4,48 22.8,-6 13.2,-9.6016 3.6,-7.1992 -16.8,-6 -22.8,2.4024" inkscape:connector-curvature="0" id="path44" style="stroke:#000000;stroke-width:8;stroke-miterlimit:4;stroke-dasharray:none;fill:none;stroke-opacity:1"/>
      <path d="M 326.398,151.199 754.801,564" inkscape:connector-curvature="0" id="path46" style="stroke:#000000;stroke-width:8;stroke-miterlimit:4;stroke-dasharray:none;fill:none;stroke-opacity:1"/>
      <path d="M 171.602,210 698.398,715.199" inkscape:connector-curvature="0" id="path48" style="stroke:#000000;stroke-width:8;stroke-miterlimit:4;stroke-dasharray:none;fill:none;stroke-opacity:1"/>
      <path d="M 69.6016,319.199 596.398,824.398" inkscape:connector-curvature="0" id="path50" style="stroke:#000000;stroke-width:8;stroke-miterlimit:4;stroke-dasharray:none;fill:none;stroke-opacity:1"/>
      <path d="M 16.8008,474 438,877.199" inkscape:connector-curvature="0" id="path52" style="stroke:#000000;stroke-width:8;stroke-miterlimit:4;stroke-dasharray:none;fill:none;stroke-opacity:1"/>
      <path d="m 541.199,854.398 -37.199,8.403 -36,14.398 -39.602,6 -39.597,0 -43.199,-3.597 -36,-2.403 L 270,862.801 234,849.602 198,834 164.398,811.199 138,787.199 111.602,762 92.3984,738 72,708 49.1992,666 39.6016,632.398 30,596.398 l -7.1992,-36 -6,-43.199 0,-36 6,-43.199 9.5976,-36 9.6016,-33.602 18,-36 9.6016,-19.199 13.1992,-16.801 32.3982,-36 32.403,-33.597 30,-22.801 37.199,-19.199 38.398,-20.403 L 294,154.801 326.398,144 366,144 l 39.602,-2.398 45.597,6 33.602,7.199 39.597,16.801 39.602,19.199 26.398,13.199 28.801,26.398 30,26.403 30,28.801 22.801,37.199 22.801,32.398 16.801,33.602 10.796,39.597 2.403,36 6,43.204 -2.403,36 -3.597,43.199 -9.602,36 -13.199,33.597 -16.801,42 L 692.398,732 669.602,757.199 642,790.801 l -32.398,22.801 -32.403,22.796 -36,18" inkscape:connector-curvature="0" id="path54" style="stroke:#000000;stroke-width:8;stroke-miterlimit:4;stroke-dasharray:none;fill:none;stroke-opacity:1"/>
    </g>
  </g>
</svg>
