<?xml version="1.0" encoding="UTF-8"?>
<!-- Created with Inkscape (http://www.inkscape.org/) -->
<svg xmlns:dc="http://purl.org/dc/elements/1.1/" xmlns:cc="http://creativecommons.org/ns#" xmlns:rdf="http://www.w3.org/1999/02/22-rdf-syntax-ns#" xmlns:svg="http://www.w3.org/2000/svg" xmlns="http://www.w3.org/2000/svg" xmlns:inkscape="http://www.inkscape.org/namespaces/inkscape" version="1.1" width="765" height="990" id="svg2" xml:space="preserve">
  <metadata id="metadata8">
    <rdf:RDF>
      <cc:Work rdf:about="">
        <dc:format>image/svg+xml</dc:format>
        <dc:type rdf:resource="http://purl.org/dc/dcmitype/StillImage"/>
      </cc:Work>
    </rdf:RDF>
  </metadata>
  <defs id="defs6"/>
  <g transform="matrix(1.25,0,0,-1.25,0,990)" id="g10">
    <g transform="scale(0.1,0.1)" id="g12">
      <path d="m 463.199,116.398 -16.801,20.403 -20.398,20.398 -16.801,18 -18,19.199 -21.597,22.801 -22.801,15.602 -22.801,18 44.398,394.801 13.204,-4.801 15.597,-7.199 12,-9.602 12,-15.602 12,-18 6,-19.199 3.602,-15.597 3.597,-22.801 L 465.602,25.1992 440.398,24 l 4.801,114" inkscape:connector-curvature="0" id="path14" style="stroke:#000000;stroke-width:8;stroke-miterlimit:4;stroke-dasharray:none;fill:none;stroke-opacity:1"/>
      <path d="M 115.199,344.398 98.3984,336 l -12,-15.602 -4.7968,-12 L 79.1992,295.199 82.8008,276 92.3984,264 102,255.602 118.801,250.801 132,246 l 14.398,0 16.801,7.199 14.403,7.199 7.199,9.602 10.801,13.199 6,16.801 4.796,14.398 1.204,13.204 -1.204,9.597 -3.597,16.801 -6,13.199 -12,14.403 -10.801,9.597 -9.602,4.801 -9.597,3.602 -14.403,1.199 -9.597,1.199 -14.403,0 -16.7964,-1.199 -18,-4.801 L 67.1992,386.398 56.3984,379.199 45.6016,369.602 37.1992,358.801 28.8008,344.398 21.6016,328.801 18,315.602 15.6016,295.199 14.3984,276 15.6016,261.602 16.8008,240 25.1992,217.199 37.1992,192 60,163.199 93.6016,130.801 144,90 252,28.8008" inkscape:connector-curvature="0" id="path16" style="stroke:#000000;stroke-width:8;stroke-miterlimit:4;stroke-dasharray:none;fill:none;stroke-opacity:1"/>
      <path d="M 829.199,584.398 860.398,583.199 870,576 l 6,-8.398 0,-7.204 9.602,0 1.199,12 8.398,9.602 7.199,-1.199 4.801,-3.602 6,-7.199 1.199,-7.199 L 912,552 l -10.801,-7.199 -2.398,-3.602 -3.602,-4.801 1.199,-7.199 0,-8.398 6,-7.199 2.403,-1.204 10.801,-4.796 15.597,2.398 4.801,1.199 18,9.602" inkscape:connector-curvature="0" id="path18" style="stroke:#000000;stroke-width:8;stroke-miterlimit:4;stroke-dasharray:none;fill:none;stroke-opacity:1"/>
      <path d="m 861.602,561.602 -9.602,7.199 -14.398,-2.403 10.796,-7.199 13.204,2.403" inkscape:connector-curvature="0" id="path20" style="stroke:#000000;stroke-width:8;stroke-miterlimit:4;stroke-dasharray:none;fill:none;stroke-opacity:1"/>
      <path d="m 960,190.801 -21.602,0 -31.199,-2.403 -28.801,-7.199 -33.597,-12 -30,-9.597 -39.602,-18 -36,-16.801 L 710.398,108 687.602,94.8008 676.801,80.3984 l -3.602,-16.7968 2.403,-19.2032 13.199,-15.5976 24,-8.4024 30,0 39.597,4.8008 42,6 36,6 36,2.4024 32.403,0 30,-3.6016 18,-7.1992 4.801,-2.4024 19.198,-3.5976 21.6,-3.6016 14.4,1.1992 6,4.8008 0,2.4024 -8.4,3.5976 -18,1.1992 -16.798,2.4024 -15.602,9.5976 -12,12 -8.398,9.6016 -4.801,2.3984 -8.403,0 L 939.602,64.8008 918,63.6016 897.602,66 874.801,73.1992 856.801,78 840,80.3984 l -24,1.2032 -20.398,-1.2032 -18,-6 -15.602,-4.7968 -25.199,-12 -14.403,15.5976 -12,12 -15.597,12" inkscape:connector-curvature="0" id="path22" style="stroke:#000000;stroke-width:8;stroke-miterlimit:4;stroke-dasharray:none;fill:none;stroke-opacity:1"/>
      <path d="m 952.801,69.6016 10.801,10.7968 8.398,16.8008 2.398,14.4028 -1.199,31.199 -8.398,22.801 -3.602,25.199 -1.199,30 -2.398,33.597 0,4.801 3.597,32.403 2.403,28.796 6,33.602 7.199,26.398 4.801,20.403 3.597,31.199 -10.801,22.801 -12,10.801 -10.796,7.199 -20.403,4.801 0,18 9.602,9.597 10.801,10.801 10.796,15.602 6,19.199 2.403,19.199 -1.199,18 -4.801,14.398 -3.602,10.801 -14.398,15.602 -15.602,7.199 -21.597,4.801 -24,0 -21.602,-6 L 850.801,624 840,608.398 l -6,-12 -3.602,-10.796 -13.199,-30 L 810,540 l 8.398,-9.602 10.801,-15.597 2.403,-10.801 12,-2.398 19.199,-2.403 0,-20.398 -15.602,0 -16.801,-1.199 L 822,474 l -51.602,-22.801 -60,-24 -18,-8.398 L 654,470.398 615.602,523.199 594,549.602 l -4.801,16.796 -3.597,19.204 -7.204,12 -9.597,14.398 -12,9.602 -8.403,1.199 -3.597,-2.403 13.199,-16.796 9.602,-13.204 3.597,-12 4.801,-13.199 -6,-2.398 -9.602,7.199 -4.796,6 -6,-4.801 6,-8.398 4.796,-6 9.602,-8.403 13.199,-9.597 14.403,-33.602 16.796,-38.398 26.403,-43.199 27.597,-42 9.602,-6 8.398,0 8.403,1.199 19.199,6 78,25.199 18,6 8.398,-2.398 6,-2.403 12,-58.801 7.204,-46.796 3.597,-30 -2.398,-30 0,-8.403 -7.199,-42 L 835.199,168" inkscape:connector-curvature="0" id="path24" style="stroke:#000000;stroke-width:8;stroke-miterlimit:4;stroke-dasharray:none;fill:none;stroke-opacity:1"/>
      <path d="m 813.602,471.602 -36,-13.204 -62.403,-20.398 -14.398,37.199 -15.602,37.199 -19.199,36 -10.801,16.801 3.602,10.801 0,12 -6,16.801 -7.199,18 -10.801,14.398 -3.602,-3.597 9.602,-27.602 4.801,-9.602 0,-15.597 -6,-2.403 -13.204,12 -4.796,-2.398 1.199,-6 4.801,-9.602 6,-9.597 7.199,-6 16.801,-61.199 28.796,-66" inkscape:connector-curvature="0" id="path26" style="stroke:#000000;stroke-width:8;stroke-miterlimit:4;stroke-dasharray:none;fill:none;stroke-opacity:1"/>
    </g>
  </g>
</svg>
