<?xml version="1.0" encoding="UTF-8"?>
<!-- Created with Inkscape (http://www.inkscape.org/) -->
<svg xmlns:dc="http://purl.org/dc/elements/1.1/" xmlns:cc="http://creativecommons.org/ns#" xmlns:rdf="http://www.w3.org/1999/02/22-rdf-syntax-ns#" xmlns:svg="http://www.w3.org/2000/svg" xmlns="http://www.w3.org/2000/svg" xmlns:inkscape="http://www.inkscape.org/namespaces/inkscape" version="1.1" width="765" height="990" id="svg2" xml:space="preserve">
  <metadata id="metadata8">
    <rdf:RDF>
      <cc:Work rdf:about="">
        <dc:format>image/svg+xml</dc:format>
        <dc:type rdf:resource="http://purl.org/dc/dcmitype/StillImage"/>
      </cc:Work>
    </rdf:RDF>
  </metadata>
  <defs id="defs6"/>
  <g transform="matrix(1.25,0,0,-1.25,0,990)" id="g10">
    <g transform="scale(0.1,0.1)" id="g12">
      <path d="m 499.199,1189.2 -50.398,4.8 -76.801,-4.8 -57.602,7.2 -18,-7.2 -13.199,-18 4.801,-31.2 21.602,-70.8 42,-68.4 138,-165.601 70.796,-66 102,-94.801 218.403,-213.597 21.597,0 7.204,10.801 -8.403,20.398 -94.801,212.398 -12,39.602 -72,171.602 -63.597,111.598 -51.602,70.8 -38.398,51.6 -30,48 -33.602,45.6 -40.801,45.6 -39.597,27.6 -10.801,46.8 -8.398,50.4 -13.204,33.6 -38.398,8.4 -62.398,0 -68.403,-1.2 -33.597,-9.6 L 174,1440 61.1992,1424.4 l -33.5976,-15.6 -10.8008,-15.6 -2.4024,-30 13.2032,21.6 22.7968,10.8 65.9996,0 68.403,-2.4 36,-8.4 -28.801,34.8 -7.199,25.2" inkscape:connector-curvature="0" id="path14" style="stroke:#000000;stroke-width:8;stroke-miterlimit:4;stroke-dasharray:none;fill:none;stroke-opacity:1"/>
      <path d="m 258,1398 7.199,2.4 4.801,10.8 -4.801,12 -8.398,6 -9.602,-6 -2.398,-14.4 4.801,-6 7.199,-4.8" inkscape:connector-curvature="0" id="path16" style="stroke:#000000;stroke-width:8;stroke-miterlimit:4;stroke-dasharray:none;fill:none;stroke-opacity:1"/>
      <path d="m 25.1992,1375.2 88.8008,3.6 68.398,-9.6 20.403,-10.8 7.199,-22.8 2.398,-24 -20.398,-49.2 -9.602,-60 12,-73.2 8.403,-33.6 24,-66 30,-53.998 L 325.199,858 416.398,684 424.801,618 414,504 l -10.801,-10.801 -64.801,-6 -75.597,1.199 -4.801,-10.796 -32.398,-4.801 -4.801,-6 6,-9.602 190.801,7.199 198,-8.398 9.597,8.398 -4.801,12 -31.199,0 -18,15.602 -112.801,1.199 -13.199,9.602 13.199,140.398 L 540,600 586.801,738 675.602,516 706.801,476.398 738,457.199 l 46.801,0 26.398,9.602 7.199,13.199 -22.796,60" inkscape:connector-curvature="0" id="path18" style="stroke:#000000;stroke-width:8;stroke-miterlimit:4;stroke-dasharray:none;fill:none;stroke-opacity:1"/>
      <path d="m 244.801,991.199 28.801,-162 -1.204,-124.801 -22.796,-126 L 229.199,513.602 216,498 110.398,492 98.3984,476.398 l -24,-3.597 -8.3984,-6 8.3984,-9.602 82.8006,7.199 24,-1.199" inkscape:connector-curvature="0" id="path20" style="stroke:#000000;stroke-width:8;stroke-miterlimit:4;stroke-dasharray:none;fill:none;stroke-opacity:1"/>
      <path d="m 260.398,488.398 -37.199,-3.597 0,0 -22.801,-4.801 -13.199,-16.801 9.602,-6 13.199,14.403 13.199,1.199" inkscape:connector-curvature="0" id="path22" style="stroke:#000000;stroke-width:8;stroke-miterlimit:4;stroke-dasharray:none;fill:none;stroke-opacity:1"/>
      <path d="m 258,492 49.199,182.398 75.602,-45.597 15.597,82.801" inkscape:connector-curvature="0" id="path24" style="stroke:#000000;stroke-width:8;stroke-miterlimit:4;stroke-dasharray:none;fill:none;stroke-opacity:1"/>
      <path d="m 103.199,488.398 -35.9998,-3.597 0,0 L 45.6016,480 32.3984,463.199 l 6,-6 15.6016,14.403 18,1.199" inkscape:connector-curvature="0" id="path26" style="stroke:#000000;stroke-width:8;stroke-miterlimit:4;stroke-dasharray:none;fill:none;stroke-opacity:1"/>
      <path d="m 576,492 42,-4.801 20.398,-7.199 13.204,-16.801 -7.204,-6 -14.398,14.403 -12,1.199" inkscape:connector-curvature="0" id="path28" style="stroke:#000000;stroke-width:8;stroke-miterlimit:4;stroke-dasharray:none;fill:none;stroke-opacity:1"/>
      <path d="m 63.6016,417.602 0,-400.8012 70.7964,0 0,400.8012 -70.7964,0" inkscape:connector-curvature="0" id="path30" style="stroke:#000000;stroke-width:8;stroke-miterlimit:4;stroke-dasharray:none;fill:none;stroke-opacity:1"/>
      <path d="m 417.602,417.602 0,-400.8012 73.199,0 0,400.8012 -73.199,0" inkscape:connector-curvature="0" id="path32" style="stroke:#000000;stroke-width:8;stroke-miterlimit:4;stroke-dasharray:none;fill:none;stroke-opacity:1"/>
      <path d="m 777.602,417.602 0,-400.8012 70.796,0 0,400.8012 -70.796,0" inkscape:connector-curvature="0" id="path34" style="stroke:#000000;stroke-width:8;stroke-miterlimit:4;stroke-dasharray:none;fill:none;stroke-opacity:1"/>
    </g>
  </g>
</svg>
