<?xml version="1.0" encoding="UTF-8"?>
<!-- Created with Inkscape (http://www.inkscape.org/) -->
<svg xmlns:dc="http://purl.org/dc/elements/1.1/" xmlns:cc="http://creativecommons.org/ns#" xmlns:rdf="http://www.w3.org/1999/02/22-rdf-syntax-ns#" xmlns:svg="http://www.w3.org/2000/svg" xmlns="http://www.w3.org/2000/svg" xmlns:inkscape="http://www.inkscape.org/namespaces/inkscape" version="1.1" width="765" height="990" id="svg2" xml:space="preserve">
  <metadata id="metadata8">
    <rdf:RDF>
      <cc:Work rdf:about="">
        <dc:format>image/svg+xml</dc:format>
        <dc:type rdf:resource="http://purl.org/dc/dcmitype/StillImage"/>
      </cc:Work>
    </rdf:RDF>
  </metadata>
  <defs id="defs6"/>
  <g transform="matrix(1.25,0,0,-1.25,0,990)" id="g10">
    <g transform="scale(0.1,0.1)" id="g12">
      <path d="m 1076.4,758.398 21.6,38.403 28.8,28.801 42,9.597 34.8,-6 25.2,-22.801 13.2,-19.199 9.6,-44.398 0,-518.403 -1237.2016,0 0,518.403 12,44.398 10.8008,19.199 25.1992,22.801 34.8008,6 45.6018,-9.597 28.801,-28.801 18,-34.801" inkscape:connector-curvature="0" id="path14" style="stroke:#000000;stroke-width:8;stroke-miterlimit:4;stroke-dasharray:none;fill:none;stroke-opacity:1"/>
      <path d="m 666,1231.2 -50.398,0 -19.204,-2.4 -36,-6 -21.597,-3.6 -19.199,-6 -19.204,-7.2 -26.398,-6 -21.602,-9.6 -22.796,-9.6 -19.204,-9.6 -19.199,-12 L 372,1146 l -18,-13.2 -16.801,-15.6 -34.801,-32.4 -13.199,-15.6 -12,-13.2 -22.801,-31.2 -19.199,-32.402 -9.597,-19.199 -6,-22.801 L 206.398,906 196.801,886.801 193.199,858 l -3.597,-19.199 0,-90 3.597,-22.801 13.199,-44.398 6,-28.801 7.204,-15.602 12,-28.801 6,-19.199 L 256.801,570 264,553.199 279.602,534 292.801,518.398 308.398,496.801 340.801,468 l 21.597,-16.801 22.801,-15.597 12,-9.602 20.403,-13.199 19.199,-9.602 28.801,-9.597 19.199,-9.602 25.199,-6 15.602,-3.602 22.796,-6 22.801,-3.597 25.199,-2.403 48,0 21.602,2.403 7.199,-2.403 25.199,2.403 19.204,3.597 25.199,6 L 756,378 l 25.199,6 19.199,9.602 28.801,9.597 19.199,9.602 19.204,13.199 13.199,9.602 25.199,15.597 19.199,16.801 32.403,28.801 15.597,21.597 13.199,15.602 15.602,19.199 9.6,16.801 16.8,19.199 8.4,19.199 10.8,28.801 8.4,15.602 7.2,28.801 9.6,44.398 3.6,22.801 0,90 -3.6,19.199 -3.6,28.801 -6,19.199 -7.2,31.199 -15.6,36 -9.6,19.199 -12,21.602 -29.999,42 -9.602,13.2 -12,15.6 -38.398,32.4 -15.602,15.6 -16.801,13.2 -19.199,13.2 -22.801,12 -15.597,9.6 -25.199,9.6 -19.204,9.6 -28.796,6 -16.801,7.2 -21.602,6 -19.199,3.6 -19.199,6 -38.403,2.4 -22.796,0" inkscape:connector-curvature="0" id="path16" style="stroke:#000000;stroke-width:8;stroke-miterlimit:4;stroke-dasharray:none;fill:none;stroke-opacity:1"/>
      <path d="m 1827.6,1192.8 -150,-34.8 -61.2,-32.4 -22.8,-21.6 -15.6,-32.4 -3.6,-28.8 0,-25.2 22.8,-47.998 32.4,-48 79.2,-63.602 783.6,-414 121.2,-63.602 122.4,-76.796 63.6,-44.403 19.2,2.403 6,19.199 -31.2,45.597 -224.4,194.403 -86.4,99.597 -309.6,406.802 -99.6,111.6 -92.4,86.4 -61.2,25.2 -42,80.4 -54,76.8 -32.4,25.2 -50.4,16.8 -86.4,6 -82.8,-9.6 -45.6,-19.2 -25.2,-32.4 -25.2,-40.8 -44.4,-22.8 -28.8,-32.4 -19.2,-50.4 2.4,-38.4 6,-13.2 7.2,19.2 19.2,34.8 34.8,25.2 32.4,7.2 34.8,-9.6 19.2,-15.6 6,0 7.2,9.6 -9.6,37.2 15.6,4.8 9.6,18 0,16.8 -13.2,15.6 -15.6,0 -15.6,-13.2 -3.6,-21.6 9.6,-9.6 15.6,-6" inkscape:connector-curvature="0" id="path18" style="stroke:#000000;stroke-width:8;stroke-miterlimit:4;stroke-dasharray:none;fill:none;stroke-opacity:1"/>
      <path d="m 1558.8,1363.2 42,-3.6 37.2,-3.6 39.6,-21.6 21.6,-38.4 -2.4,-51.6 -22.8,-34.8 -70.8,-42" inkscape:connector-curvature="0" id="path20" style="stroke:#000000;stroke-width:8;stroke-miterlimit:4;stroke-dasharray:none;fill:none;stroke-opacity:1"/>
      <path d="m 1597.2,1174.8 19.2,12 21.6,22.8 10.8,31.2 -6,26.4 -20.4,8.4 -25.2,-2.4 -15.6,-22.8 -3.6,-19.2 6,-44.4 -9.6,-19.2 -2.4,-9.6 -13.2,3.6 -6,21.6 -28.8,55.2 -26.4,25.2 -25.2,6 -25.2,0" inkscape:connector-curvature="0" id="path22" style="stroke:#000000;stroke-width:8;stroke-miterlimit:4;stroke-dasharray:none;fill:none;stroke-opacity:1"/>
      <path d="m 1418.4,1240.8 15.6,3.6 38.4,0 36,-34.8 21.6,-74.4 3.6,-86.4 3.6,-76.8 15.6,-44.398 19.2,-48 86.4,-109.204 175.2,-226.796 90,-102 63.6,-144 6,-99.602 -12,-102 L 1856.4,76.8008 1837.2,48 l 0,-13.1992" inkscape:connector-curvature="0" id="path24" style="stroke:#000000;stroke-width:8;stroke-miterlimit:4;stroke-dasharray:none;fill:none;stroke-opacity:1"/>
      <path d="m 1846.8,69.6016 -19.2,-6 -22.8,-9.6016 -6,-32.3984 38.4,10.7968 12,-13.1992 180,13.1992 150,-10.7968 12,16.7968 -12,38.4024" inkscape:connector-curvature="0" id="path26" style="stroke:#000000;stroke-width:8;stroke-miterlimit:4;stroke-dasharray:none;fill:none;stroke-opacity:1"/>
      <path d="m 2191.2,34.8008 16.8,0 31.2,-15.6016 -8.4,34.8008 -13.2,9.6016 -22.8,13.1992 -38.4,3.5976 -102,12 13.2,137.9996 57.6,-13.199 50.4,-42 -2.4,289.199 88.8,-36 54,-34.796 38.4,-67.204 163.2,-307.1988 220.8,140.4028 -169.2,243.597" inkscape:connector-curvature="0" id="path28" style="stroke:#000000;stroke-width:8;stroke-miterlimit:4;stroke-dasharray:none;fill:none;stroke-opacity:1"/>
      <path d="M 1872,86.3984 1910.4,246 l 51.6,-13.199 31.2,-31.199" inkscape:connector-curvature="0" id="path30" style="stroke:#000000;stroke-width:8;stroke-miterlimit:4;stroke-dasharray:none;fill:none;stroke-opacity:1"/>
      <path d="m 1862.4,80.3984 -63.6,-10.7968 -28.8,-8.4024 -13.2,-20.3984 6,-21.6016 42,13.1992" inkscape:connector-curvature="0" id="path32" style="stroke:#000000;stroke-width:8;stroke-miterlimit:4;stroke-dasharray:none;fill:none;stroke-opacity:1"/>
      <path d="m 1770,63.6016 -34.8,-13.2032 -9.6,-34.7968 31.2,13.1992" inkscape:connector-curvature="0" id="path34" style="stroke:#000000;stroke-width:8;stroke-miterlimit:4;stroke-dasharray:none;fill:none;stroke-opacity:1"/>
      <path d="m 1706.4,706.801 44.4,-102 57.6,-163.199 22.8,-132 -3.6,-79.204 L 1795.2,90 1683.6,76.8008 l -25.2,-19.1992 0,-22.8008 2.4,-13.1992 64.8,7.1992" inkscape:connector-curvature="0" id="path36" style="stroke:#000000;stroke-width:8;stroke-miterlimit:4;stroke-dasharray:none;fill:none;stroke-opacity:1"/>
      <path d="m 1658.4,63.6016 -32.4,-13.2032 -9.6,-12 -2.4,-22.7968 37.2,13.1992" inkscape:connector-curvature="0" id="path38" style="stroke:#000000;stroke-width:8;stroke-miterlimit:4;stroke-dasharray:none;fill:none;stroke-opacity:1"/>
      <path d="M 1686,76.8008 1614,63.6016 1591.2,48 1584,19.1992 l 30,9.6016" inkscape:connector-curvature="0" id="path40" style="stroke:#000000;stroke-width:8;stroke-miterlimit:4;stroke-dasharray:none;fill:none;stroke-opacity:1"/>
      <path d="M 1600.8,61.1992 1558.8,48 l -13.2,-32.3984 36,13.1992" inkscape:connector-curvature="0" id="path42" style="stroke:#000000;stroke-width:8;stroke-miterlimit:4;stroke-dasharray:none;fill:none;stroke-opacity:1"/>
      <path d="m 3346.8,1192.8 -151.2,-34.8 -60,-32.4 -22.8,-21.6 -16.8,-32.4 -2.4,-28.8 0,-25.2 22.8,-47.998 31.2,-48 80.4,-63.602 783.6,-414 121.2,-63.602 121.2,-76.796 63.6,-44.403 19.2,2.403 7.2,19.199 -32.4,45.597 -224.4,194.403 -86.4,99.597 -309.6,406.802 -98.4,111.6 -93.6,86.4 -60,25.2 -42,80.4 -55.2,76.8 -31.2,25.2 -51.6,16.8 -86.4,6 -82.8,-9.6 -44.4,-19.2 -26.4,-32.4 -25.2,-40.8 -44.4,-22.8 -28.8,-32.4 -19.2,-50.4 3.6,-38.4 6,-13.2 6,19.2 19.2,34.8 36,25.2 31.2,7.2 36,-9.6 19.2,-15.6 6,0 6,9.6 -9.6,37.2 15.6,4.8 10.8,18 0,16.8 -13.2,15.6 -15.6,0 -16.8,-13.2 -2.4,-21.6 8.4,-9.6 16.8,-6" inkscape:connector-curvature="0" id="path44" style="stroke:#000000;stroke-width:8;stroke-miterlimit:4;stroke-dasharray:none;fill:none;stroke-opacity:1"/>
      <path d="m 3076.8,1363.2 42,-3.6 38.4,-3.6 38.4,-21.6 22.8,-38.4 -3.6,-51.6 -21.6,-34.8 -70.8,-42" inkscape:connector-curvature="0" id="path46" style="stroke:#000000;stroke-width:8;stroke-miterlimit:4;stroke-dasharray:none;fill:none;stroke-opacity:1"/>
      <path d="m 3116.4,1174.8 19.2,12 21.6,22.8 9.6,31.2 -6,26.4 -19.2,8.4 -25.2,-2.4 -16.8,-22.8 -3.6,-19.2 7.2,-44.4 -9.6,-19.2 -3.6,-9.6 -13.2,3.6 -6,21.6 -28.8,55.2 -25.2,25.2 -26.4,6 -25.2,0" inkscape:connector-curvature="0" id="path48" style="stroke:#000000;stroke-width:8;stroke-miterlimit:4;stroke-dasharray:none;fill:none;stroke-opacity:1"/>
      <path d="m 2936.4,1240.8 16.8,3.6 37.2,0 36,-34.8 21.6,-74.4 3.6,-86.4 3.6,-76.8 15.6,-44.398 19.2,-48 86.4,-109.204 176.4,-226.796 88.8,-102 64.8,-144 6,-99.602 L 3499.2,96 3374.4,76.8008 3355.2,48 l 0,-13.1992" inkscape:connector-curvature="0" id="path50" style="stroke:#000000;stroke-width:8;stroke-miterlimit:4;stroke-dasharray:none;fill:none;stroke-opacity:1"/>
      <path d="m 3364.8,69.6016 -18,-6 L 3324,54 l -7.2,-32.3984 38.4,10.7968 13.2,-13.1992 178.8,13.1992 151.2,-10.7968 12,16.7968 -12,38.4024" inkscape:connector-curvature="0" id="path52" style="stroke:#000000;stroke-width:8;stroke-miterlimit:4;stroke-dasharray:none;fill:none;stroke-opacity:1"/>
      <path d="m 3710.4,34.8008 15.6,0 32.4,-15.6016 -9.6,34.8008 -13.2,9.6016 -21.6,13.1992 -38.4,3.5976 -103.2,12 13.2,137.9996 57.6,-13.199 51.6,-42 -3.6,289.199 90,-36 54,-34.796 38.4,-67.204 163.2,-307.1988 220.8,140.4028 -170.4,243.597" inkscape:connector-curvature="0" id="path54" style="stroke:#000000;stroke-width:8;stroke-miterlimit:4;stroke-dasharray:none;fill:none;stroke-opacity:1"/>
      <path d="M 3390,86.3984 3429.6,246 l 50.4,-13.199 32.4,-31.199" inkscape:connector-curvature="0" id="path56" style="stroke:#000000;stroke-width:8;stroke-miterlimit:4;stroke-dasharray:none;fill:none;stroke-opacity:1"/>
      <path d="m 3381.6,80.3984 -64.8,-10.7968 -28.8,-8.4024 -12,-20.3984 6,-21.6016 42,13.1992" inkscape:connector-curvature="0" id="path58" style="stroke:#000000;stroke-width:8;stroke-miterlimit:4;stroke-dasharray:none;fill:none;stroke-opacity:1"/>
      <path d="m 3288,63.6016 -34.8,-13.2032 -9.6,-34.7968 32.4,13.1992" inkscape:connector-curvature="0" id="path60" style="stroke:#000000;stroke-width:8;stroke-miterlimit:4;stroke-dasharray:none;fill:none;stroke-opacity:1"/>
      <path d="m 3224.4,706.801 45.6,-102 56.4,-163.199 22.8,-132 -2.4,-79.204 L 3313.2,90 3201.6,76.8008 l -25.2,-19.1992 0,-22.8008 3.6,-13.1992 63.6,7.1992" inkscape:connector-curvature="0" id="path62" style="stroke:#000000;stroke-width:8;stroke-miterlimit:4;stroke-dasharray:none;fill:none;stroke-opacity:1"/>
      <path d="m 3176.4,63.6016 -32.4,-13.2032 -8.4,-12 -3.6,-22.7968 38.4,13.1992" inkscape:connector-curvature="0" id="path64" style="stroke:#000000;stroke-width:8;stroke-miterlimit:4;stroke-dasharray:none;fill:none;stroke-opacity:1"/>
      <path d="M 3205.2,76.8008 3132,63.6016 3109.2,48 l -6,-28.8008 28.8,9.6016" inkscape:connector-curvature="0" id="path66" style="stroke:#000000;stroke-width:8;stroke-miterlimit:4;stroke-dasharray:none;fill:none;stroke-opacity:1"/>
      <path d="M 3118.8,61.1992 3076.8,48 l -12,-32.3984 34.8,13.1992" inkscape:connector-curvature="0" id="path68" style="stroke:#000000;stroke-width:8;stroke-miterlimit:4;stroke-dasharray:none;fill:none;stroke-opacity:1"/>
    </g>
  </g>
</svg>
