<?xml version="1.0" encoding="UTF-8"?>
<!-- Created with Inkscape (http://www.inkscape.org/) -->
<svg xmlns:dc="http://purl.org/dc/elements/1.1/" xmlns:cc="http://creativecommons.org/ns#" xmlns:rdf="http://www.w3.org/1999/02/22-rdf-syntax-ns#" xmlns:svg="http://www.w3.org/2000/svg" xmlns="http://www.w3.org/2000/svg" xmlns:inkscape="http://www.inkscape.org/namespaces/inkscape" version="1.1" width="765" height="990" id="svg2" xml:space="preserve">
  <metadata id="metadata8">
    <rdf:RDF>
      <cc:Work rdf:about="">
        <dc:format>image/svg+xml</dc:format>
        <dc:type rdf:resource="http://purl.org/dc/dcmitype/StillImage"/>
      </cc:Work>
    </rdf:RDF>
  </metadata>
  <defs id="defs6"/>
  <g transform="matrix(1.25,0,0,-1.25,0,990)" id="g10">
    <g transform="scale(0.1,0.1)" id="g12">
      <path d="m 394.801,195.602 148.801,0 -3.602,52.796 12,70.801 18,40.801 26.398,66 133.204,235.199 9.597,51.602 0,24 -2.398,43.199 -7.199,30 -21.602,36 -26.398,33.602 -18,20.398 -43.204,28.801 -24,12 -33.597,12 -49.199,7.199 -68.403,-7.199 -22.801,-9.602 -30,-19.199 -26.398,-26.398 -9.602,-22.801 -12,-19.199 L 60,794.398 l -21.6016,-6 -12,-13.199 -7.1992,-9.597 L 16.8008,748.801 366,807.602" inkscape:connector-curvature="0" id="path14" style="stroke:#000000;stroke-width:8;stroke-miterlimit:4;stroke-dasharray:none;fill:none;stroke-opacity:1"/>
      <path d="M 19.1992,739.199 36,734.398 69.6016,732 373.199,770.398 366,805.199 346.801,855.602" inkscape:connector-curvature="0" id="path16" style="stroke:#000000;stroke-width:8;stroke-miterlimit:4;stroke-dasharray:none;fill:none;stroke-opacity:1"/>
      <path d="m 378,770.398 14.398,3.602 24,0 82.801,-20.398 38.403,-4.801 25.199,-2.403 L 630,753.602 652.801,732 656.398,703.199 655.199,678 642,649.199 535.199,508.801 472.801,423.602 447.602,380.398 422.398,328.801 404.398,264 394.801,195.602" inkscape:connector-curvature="0" id="path18" style="stroke:#000000;stroke-width:8;stroke-miterlimit:4;stroke-dasharray:none;fill:none;stroke-opacity:1"/>
      <path d="m 594,945.602 123.602,-44.403 123.597,-28.801 50.403,-9.597 44.398,-2.403 50.398,0 61.202,2.403 40.8,9.597 46.8,9.602 4.8,-3.602 -4.8,-18 -16.8,-12 -58.8,-12 -55.2,-7.199 -68.4,0 -55.199,4.801 -96,16.801 L 732,867.602" inkscape:connector-curvature="0" id="path20" style="stroke:#000000;stroke-width:8;stroke-miterlimit:4;stroke-dasharray:none;fill:none;stroke-opacity:1"/>
      <path d="m 646.801,909.602 204,-104.403 61.199,-27.597 45.602,-14.403 46.798,-12 33.6,-9.597 62.4,-2.403 27.6,-2.398 14.4,0 9.6,-2.403 2.4,-14.398 -46.8,-14.398 -36,-2.403 -48,4.801 -65.998,16.801 -116.403,45.597 -135.597,78" inkscape:connector-curvature="0" id="path22" style="stroke:#000000;stroke-width:8;stroke-miterlimit:4;stroke-dasharray:none;fill:none;stroke-opacity:1"/>
      <path d="m 436.801,889.199 -14.403,-2.398 -13.199,-14.403 0,-16.796 13.199,-12 16.801,0 14.403,7.199 2.398,9.597 -4.801,14.403 -9.597,14.398" inkscape:connector-curvature="0" id="path24" style="stroke:#000000;stroke-width:8;stroke-miterlimit:4;stroke-dasharray:none;fill:none;stroke-opacity:1"/>
      <path d="m 1563.6,622.801 319.2,306" inkscape:connector-curvature="0" id="path26" style="stroke:#000000;stroke-width:8;stroke-miterlimit:4;stroke-dasharray:none;fill:none;stroke-opacity:1"/>
      <path d="M 1449.6,667.199 1840.8,1041.6" inkscape:connector-curvature="0" id="path28" style="stroke:#000000;stroke-width:8;stroke-miterlimit:4;stroke-dasharray:none;fill:none;stroke-opacity:1"/>
      <path d="M 1372.8,747.602 1765.2,1123.2" inkscape:connector-curvature="0" id="path30" style="stroke:#000000;stroke-width:8;stroke-miterlimit:4;stroke-dasharray:none;fill:none;stroke-opacity:1"/>
      <path d="M 1333.2,862.801 1647.6,1161.6" inkscape:connector-curvature="0" id="path32" style="stroke:#000000;stroke-width:8;stroke-miterlimit:4;stroke-dasharray:none;fill:none;stroke-opacity:1"/>
      <path d="m 1723.2,1144.8 -26.4,7.2 -27.6,9.6 -28.8,4.8 -30,0 -31.2,-2.4 -27.6,-2.4 -28.8,-9.6 -27.6,-9.6 -26.4,-13.2 -25.2,-16.8 -19.2,-16.8 -19.2,-19.2 -14.4,-18 -15.6,-21.6 -16.8,-32.4 -7.2,-24.002 -7.2,-26.398 -6,-27.602 -4.8,-31.199 0,-27.597 4.8,-32.403 8.4,-26.398 7.2,-25.199 12,-26.403 7.2,-14.398 9.6,-12 25.2,-27.602 24,-25.199 22.8,-16.801 26.4,-14.398 30,-14.403 28.8,-7.199 24,-8.398 30,0 28.8,-2.403 34.8,4.801 25.2,6 28.8,12 30,14.403 19.2,9.597 21.6,20.403 22.8,19.199 21.6,21.597 16.8,27.602 16.8,24 13.2,25.199 7.2,28.801 2.4,27.602 4.8,31.199 -2.4,27.597 -2.4,31.204 -7.2,27.597 -9.6,24 -13.2,32.401 -16.8,24 -16.8,19.2 -20.4,25.2 -24,16.8 -24,16.8 -27.6,13.2" inkscape:connector-curvature="0" id="path34" style="stroke:#000000;stroke-width:8;stroke-miterlimit:4;stroke-dasharray:none;fill:none;stroke-opacity:1"/>
      <path d="m 3679.2,74.3984 -99.6,19.2032 -69.6,13.1994 -51.6,19.199 -63.6,25.199 -67.2,32.403 -124.8,69.597 -128.4,70.801 -63.6,21.602 -76.8,28.796 -76.8,13.204 -57.6,13.199 -69.6,0 -70.8,-9.602 -70.8,-22.801 -69.6,-34.796 L 2442,276 2390.4,228 2338.8,196.801 2298,168 l -36,-10.801 -37.2,-15.597 -39.6,-13.204 -63.6,-9.597" inkscape:connector-curvature="0" id="path36" style="stroke:#000000;stroke-width:8;stroke-miterlimit:4;stroke-dasharray:none;fill:none;stroke-opacity:1"/>
      <path d="m 2188.8,132 54,0 48,2.398 48,-8.398 84,-19.199 63.6,-26.4026 70.8,-15.5976 L 2634,45.6016 2682,36 2767.2,33.6016 2880,42 l 54,7.1992 178.8,21.6016 70.8,9.5976 63.6,7.2032 64.8,6 127.2,6 63.6,-6 55.2,-6 54,-7.2032 28.8,0" inkscape:connector-curvature="0" id="path38" style="stroke:#000000;stroke-width:8;stroke-miterlimit:4;stroke-dasharray:none;fill:none;stroke-opacity:1"/>
      <path d="M 2572.8,356.398 2550,324 l -6,-25.199 -9.6,-32.403 -3.6,-32.398 13.2,-57.602 19.2,-28.796 19.2,-28.801 31.2,-25.1994 36,-19.2032 73.2,-9.5976 54,6 42,7.1992 51.6,34.801 31.2,38.398 16.8,28.801 9.6,60 -7.2,58.801 -15.6,31.199 -15.6,26.398 -32.4,31.204" inkscape:connector-curvature="0" id="path40" style="stroke:#000000;stroke-width:8;stroke-miterlimit:4;stroke-dasharray:none;fill:none;stroke-opacity:1"/>
      <path d="m 3649.2,804 -99.6,19.199 -69.6,13.199 -51.6,19.204 -63.6,25.199 -67.2,32.398 -124.8,69.602 -128.4,70.799 -63.6,22.8 -76.8,28.8 -76.8,12 -57.6,13.2 -69.6,0 -70.8,-9.6 -70.8,-22.8 -69.6,-34.8 -76.8,-57.6 -51.6,-47.998 -50.4,-31.204 -42,-28.796 -34.8,-10.801 -38.4,-15.602 -38.4,-13.199 -64.8,-8.398" inkscape:connector-curvature="0" id="path42" style="stroke:#000000;stroke-width:8;stroke-miterlimit:4;stroke-dasharray:none;fill:none;stroke-opacity:1"/>
      <path d="m 2158.8,861.602 54,0 48,3.597 49.2,-9.597 82.8,-19.204 63.6,-26.398 70.8,-15.602 76.8,-19.199 48,-9.597 85.2,-2.403 112.8,9.602 54,6 178.8,21.597 70.8,9.602 63.6,7.199 64.8,6 127.2,6 63.6,-6 55.2,-6 54,-7.199 28.8,0" inkscape:connector-curvature="0" id="path44" style="stroke:#000000;stroke-width:8;stroke-miterlimit:4;stroke-dasharray:none;fill:none;stroke-opacity:1"/>
      <path d="m 2542.8,1086 -22.8,-32.4 -6,-25.2 -9.6,-32.4 -3.6,-32.398 13.2,-57.602 19.2,-27.602 19.2,-28.796 31.2,-26.403 36,-19.199 73.2,-9.602 54,6 42,7.204 51.6,34.796 31.2,38.403 16.8,28.801 9.6,61.199 -7.2,57.599 -15.6,32.4 -15.6,25.2 -32.4,31.2" inkscape:connector-curvature="0" id="path46" style="stroke:#000000;stroke-width:8;stroke-miterlimit:4;stroke-dasharray:none;fill:none;stroke-opacity:1"/>
      <path d="m 2007.6,9.60156 -754.8,0 9.6,63.59764 9.6,41.9998 15.6,40.801 22.8,32.398 19.2,28.801 25.2,34.801 28.8,26.398 36,25.204 27.6,19.199 42,19.199 42,13.199 28.8,6 50.4,6 39.6,0 34.8,-6 38.4,-6 40.8,-10.801 28.8,-8.398 38.4,-26.398 32.4,-21.602 28.8,-22.801 25.2,-32.398 26.4,-34.801 21.6,-34.801 15.6,-32.398 13.2,-48.0002 L 2004,48 2007.6,9.60156" inkscape:connector-curvature="0" id="path48" style="stroke:#000000;stroke-width:8;stroke-miterlimit:4;stroke-dasharray:none;fill:none;stroke-opacity:1"/>
    </g>
  </g>
</svg>
