<?xml version="1.0" encoding="UTF-8"?>
<!-- Created with Inkscape (http://www.inkscape.org/) -->
<svg xmlns:dc="http://purl.org/dc/elements/1.1/" xmlns:cc="http://creativecommons.org/ns#" xmlns:rdf="http://www.w3.org/1999/02/22-rdf-syntax-ns#" xmlns:svg="http://www.w3.org/2000/svg" xmlns="http://www.w3.org/2000/svg" xmlns:inkscape="http://www.inkscape.org/namespaces/inkscape" version="1.1" width="765" height="990" id="svg2" xml:space="preserve">
  <metadata id="metadata8">
    <rdf:RDF>
      <cc:Work rdf:about="">
        <dc:format>image/svg+xml</dc:format>
        <dc:type rdf:resource="http://purl.org/dc/dcmitype/StillImage"/>
      </cc:Work>
    </rdf:RDF>
  </metadata>
  <defs id="defs6"/>
  <g transform="matrix(1.25,0,0,-1.25,0,990)" id="g10">
    <g transform="scale(0.1,0.1)" id="g12">
      <path d="m 1467.6,1105.2 1387.2,0 0,349.2 -1387.2,0 0,-349.2" inkscape:connector-curvature="0" id="path14" style="stroke:#000000;stroke-width:8;stroke-miterlimit:4;stroke-dasharray:none;fill:none;stroke-opacity:1"/>
      <path d="m 1843.2,1454.4 210,-349.2" inkscape:connector-curvature="0" id="path16" style="stroke:#000000;stroke-width:8;stroke-miterlimit:4;stroke-dasharray:none;fill:none;stroke-opacity:1"/>
      <path d="M 2061.6,1454.4 2268,1105.2" inkscape:connector-curvature="0" id="path18" style="stroke:#000000;stroke-width:8;stroke-miterlimit:4;stroke-dasharray:none;fill:none;stroke-opacity:1"/>
      <path d="m 2277.6,1454.4 208.8,-349.2" inkscape:connector-curvature="0" id="path20" style="stroke:#000000;stroke-width:8;stroke-miterlimit:4;stroke-dasharray:none;fill:none;stroke-opacity:1"/>
      <path d="m 1438.8,236.398 24,21.602 42,16.801 73.2,31.199 81.6,25.199 92.4,25.199 135.6,31.204 117.6,13.199 92.4,13.199 104.4,6 94.8,-6 110.4,-6 108,-13.199 102,-22.801 87.6,-21.602 82.8,-25.199 82.8,-25.199 62.4,-25.199 26.4,-13.199 18,-21.602 3.6,-3.602 -21.6,-22.796 L 2898,176.398 2781.6,132 l -114,-34.8008 -127.2,-28.8008 -94.8,-9.5976 -102,-12 -133.2,-7.1992 -85.2,7.1992 -91.2,6 -82.8,6 -120,19.1992 -133.2,31.199 -96,32.403 -87.6,38.398 -57.6,31.199 -18,25.199" inkscape:connector-curvature="0" id="path22" style="stroke:#000000;stroke-width:8;stroke-miterlimit:4;stroke-dasharray:none;fill:none;stroke-opacity:1"/>
      <path d="m 3963.6,180 -28.8,-13.199 -42,3.597 -37.2,25.204 -25.2,48 -3.6,46.796 13.2,38.403 31.2,34.801 44.4,13.199 48,-9.602 37.2,-34.801 22.8,-51.597 -3.6,-40.801 -19.2,-34.801 -34.8,-28.801 0,3.602 73.2,-162 -235.2,0 73.2,165.602" inkscape:connector-curvature="0" id="path24" style="stroke:#000000;stroke-width:8;stroke-miterlimit:4;stroke-dasharray:none;fill:none;stroke-opacity:1"/>
      <path d="m 3832.8,234 -168,-88.801 0,253.199 165.6,-88.796" inkscape:connector-curvature="0" id="path26" style="stroke:#000000;stroke-width:8;stroke-miterlimit:4;stroke-dasharray:none;fill:none;stroke-opacity:1"/>
      <path d="m 4016.4,306 162,82.801 0,-234 -158.4,75.597" inkscape:connector-curvature="0" id="path28" style="stroke:#000000;stroke-width:8;stroke-miterlimit:4;stroke-dasharray:none;fill:none;stroke-opacity:1"/>
      <path d="m 3852,351.602 -34.8,66 -6,139.199 116.4,658.799 16.8,73.2 21.6,70.8 32.4,50.4 50.4,28.8 44.4,6 44.4,0 79.2,-13.2 46.8,-27.6 48,-50.4 34.8,-86.4 13.2,-60 8.4,-86.4 -8.4,-193.198 -22.8,-193.204 -19.2,-386.398 6,-102 22.8,-97.199 34.8,-54.0002 44.4,-55.1992" inkscape:connector-curvature="0" id="path30" style="stroke:#000000;stroke-width:8;stroke-miterlimit:4;stroke-dasharray:none;fill:none;stroke-opacity:1"/>
      <path d="m 3954,1309.2 9.6,-159.6 66,-544.799 3.6,-175.199 -19.2,-56.403 -21.6,-32.398" inkscape:connector-curvature="0" id="path32" style="stroke:#000000;stroke-width:8;stroke-miterlimit:4;stroke-dasharray:none;fill:none;stroke-opacity:1"/>
      <path d="m 708,1074 -69.602,6 -111.597,-6 -81.602,9.6 -25.199,-9.6 -19.199,-25.2 6,-44.4 L 438,902.398 498,804 694.801,570 796.801,475.199 942,338.398 1252.8,33.6016 l 32.4,0 8.4,16.7968 L 1281.6,78 1148.4,382.801 1129.2,440.398 1028.4,684 936,842.398 862.801,943.199 810,1016.4 l -44.398,70.8 -48,62.4 -57.602,67.2 -56.398,38.4 -16.801,66 -12,73.2 -19.199,46.8 -52.801,13.2 -90,0 -98.403,-3.6 -46.796,-12 L 246,1432.8 84,1410 36,1388.4 20.3984,1365.6 16.8008,1321.2 36,1353.6 l 31.1992,15.6 95.9998,0 98.403,-3.6 50.398,-12 -42,50.4 -8.398,34.8" inkscape:connector-curvature="0" id="path34" style="stroke:#000000;stroke-width:8;stroke-miterlimit:4;stroke-dasharray:none;fill:none;stroke-opacity:1"/>
      <path d="m 366,1371.6 9.602,3.6 6,15.6 -6,15.6 -13.204,9.6 -12,-9.6 -3.597,-18 6,-10.8 9.597,-6" inkscape:connector-curvature="0" id="path36" style="stroke:#000000;stroke-width:8;stroke-miterlimit:4;stroke-dasharray:none;fill:none;stroke-opacity:1"/>
      <path d="m 33.6016,1340.4 126.0004,3.6 98.398,-13.2 28.801,-15.6 9.597,-32.4 2.403,-34.8 -28.801,-69.6 -12,-85.2 15.602,-105.598 13.199,-46.801 34.801,-94.801 40.796,-76.801 98.403,-168 L 590.398,354 603.602,259.199 586.801,97.1992 571.199,81.6016 480,72 372,75.6016 366,60 318,52.8008 312,44.3984 321.602,31.1992 594,39.6016 l 282,-12 12,12 -6,16.7968 -44.398,0 L 812.398,78 l -162,3.6016 -18,13.1992 L 650.398,294 768,234 834,429.602 961.199,112.801 1005.6,56.3984 1050,31.1992 l 67.2,0 37.2,13.1992 9.6,18 -31.2,86.4026" inkscape:connector-curvature="0" id="path38" style="stroke:#000000;stroke-width:8;stroke-miterlimit:4;stroke-dasharray:none;fill:none;stroke-opacity:1"/>
      <path d="M 346.801,792 387.602,560.398 385.199,382.801 352.801,201.602 324,110.398 306,88.8008 153.602,78 138,56.3984 102,52.8008 90,44.3984 l 12,-13.1992 117.602,8.4024 34.796,-2.4024" inkscape:connector-curvature="0" id="path40" style="stroke:#000000;stroke-width:8;stroke-miterlimit:4;stroke-dasharray:none;fill:none;stroke-opacity:1"/>
      <path d="m 368.398,75.6016 -54,-7.2032 0,0 -31.199,-6 L 264,37.1992 l 13.199,-6 19.199,19.1992 18,2.4024" inkscape:connector-curvature="0" id="path42" style="stroke:#000000;stroke-width:8;stroke-miterlimit:4;stroke-dasharray:none;fill:none;stroke-opacity:1"/>
      <path d="m 366,78 69.602,260.398 106.796,-63.597 22.801,117.597" inkscape:connector-curvature="0" id="path44" style="stroke:#000000;stroke-width:8;stroke-miterlimit:4;stroke-dasharray:none;fill:none;stroke-opacity:1"/>
      <path d="m 144,75.6016 -50.3984,-7.2032 0,0 -32.4024,-6 -18,-25.1992 8.4024,-6 22.7968,19.1992 25.2032,2.4024" inkscape:connector-curvature="0" id="path46" style="stroke:#000000;stroke-width:8;stroke-miterlimit:4;stroke-dasharray:none;fill:none;stroke-opacity:1"/>
      <path d="m 818.398,78 60,-6 28.801,-9.6016 19.199,-25.1992 -9.597,-6 -21.602,19.1992 -16.801,2.4024" inkscape:connector-curvature="0" id="path48" style="stroke:#000000;stroke-width:8;stroke-miterlimit:4;stroke-dasharray:none;fill:none;stroke-opacity:1"/>
      <path d="m 3478.8,1030.8 -2.4,3.6 -7.2,8.4 -20.4,12 -16.8,14.4 -14.4,15.6 -9.6,16.8 -14.4,24 -7.2,33.6 2.4,37.2 4.8,36 7.2,39.6 2.4,40.8 -4.8,36 -7.2,24 -7.2,13.2 -9.6,12 -8.4,12 -9.6,9.6 -14.4,9.6 -9.6,7.2 -14.4,4.8 -16.8,4.8 -12,2.4 -15.6,0 -14.4,-2.4 -14.4,-4.8 -12,-7.2 -14.4,-9.6 -19.2,-21.6 -7.2,-14.4 -8.4,-21.6 -6,-18 -2.4,-26.4 0,-21.6 6,-26.4 3.6,-20.4 4.8,-19.2 19.2,-43.2 16.8,-24 19.2,-25.2 25.2,-26.4 28.8,-26.4 31.2,-24 39.6,-22.8 36,-12 21.6,-4.8 19.2,-4.8 18,0 12,2.4 2.4,7.2" inkscape:connector-curvature="0" id="path50" style="stroke:#000000;stroke-width:8;stroke-miterlimit:4;stroke-dasharray:none;fill:none;stroke-opacity:1"/>
      <path d="m 3487.2,534 -3.6,4.801 -7.2,7.199 -20.4,12 -16.8,14.398 -14.4,16.801 -9.6,16.801 -14.4,22.801 -6,33.597 1.2,38.403 4.8,36 7.2,39.597 2.4,40.801 -4.8,34.801 -7.2,24 -7.2,14.398 -8.4,12 -10.8,10.801 -9.6,10.801 -13.2,9.602 -9.6,6 -14.4,4.796 -16.8,4.801 -12,2.403 -16.8,0 -13.2,-2.403 -14.4,-4.801 -12,-7.199 -14.4,-9.597 -19.2,-20.403 -7.2,-14.398 -9.6,-21.602 -4.8,-19.199 -1.2,-25.199 0,-21.602 3.6,-26.398 4.8,-21.602 4.8,-19.199 19.2,-42 16.8,-24 19.2,-26.398 26.4,-25.204 27.6,-26.398 31.2,-24 39.6,-24 36,-12 21.6,-4.801 18,-3.597 20.4,0 10.8,1.199 3.6,7.199" inkscape:connector-curvature="0" id="path52" style="stroke:#000000;stroke-width:8;stroke-miterlimit:4;stroke-dasharray:none;fill:none;stroke-opacity:1"/>
      <path d="M 3478.8,31.1992 3476.4,36 3469.2,43.1992 3448.8,54 3432,68.3984 3417.6,85.1992 3408,102 l -14.4,24 -7.2,32.398 2.4,38.403 4.8,36 7.2,40.801 2.4,39.597 -4.8,36 -7.2,22.801 -7.2,14.398 -9.6,12 -8.4,12 -9.6,9.602 -14.4,9.602 -9.6,7.199 -14.4,4.801 -16.8,4.796 -12,2.403 -15.6,0 -14.4,-2.403 -14.4,-4.796 -12,-7.204 -14.4,-9.597 -19.2,-20.403 -7.2,-14.398 -8.4,-21.602 -6,-19.199 -2.4,-26.398 0,-21.602 6,-25.199 3.6,-21.602 4.8,-19.199 19.2,-43.199 16.8,-22.801 19.2,-26.398 25.2,-26.403 28.8,-26.398 31.2,-24 39.6,-22.8008 36,-12 21.6,-4.8008 19.2,-4.7968 18,0 12,2.3984 2.4,7.1992" inkscape:connector-curvature="0" id="path54" style="stroke:#000000;stroke-width:8;stroke-miterlimit:4;stroke-dasharray:none;fill:none;stroke-opacity:1"/>
    </g>
  </g>
</svg>
