<?xml version="1.0" encoding="UTF-8"?>
<!-- Created with Inkscape (http://www.inkscape.org/) -->
<svg xmlns:dc="http://purl.org/dc/elements/1.1/" xmlns:cc="http://creativecommons.org/ns#" xmlns:rdf="http://www.w3.org/1999/02/22-rdf-syntax-ns#" xmlns:svg="http://www.w3.org/2000/svg" xmlns="http://www.w3.org/2000/svg" xmlns:inkscape="http://www.inkscape.org/namespaces/inkscape" version="1.1" width="765" height="990" id="svg2" xml:space="preserve">
  <metadata id="metadata8">
    <rdf:RDF>
      <cc:Work rdf:about="">
        <dc:format>image/svg+xml</dc:format>
        <dc:type rdf:resource="http://purl.org/dc/dcmitype/StillImage"/>
      </cc:Work>
    </rdf:RDF>
  </metadata>
  <defs id="defs6"/>
  <g transform="matrix(1.25,0,0,-1.25,0,990)" id="g10">
    <g transform="scale(0.1,0.1)" id="g12">
      <path d="m 1884,150 -159.6,21.602 -61.2,-6 -57.6,-19.204 -67.2,-34.796 L 1414.8,73.1992 1146,46.8008 873.602,56.3984 756,79.1992 l -70.801,32.4028 -32.398,48 -28.801,96 10.801,152.398 24,64.801 22.801,54 54,34.801 377.998,0" inkscape:connector-curvature="0" id="path14" style="stroke:#000000;stroke-width:8;stroke-miterlimit:4;stroke-dasharray:none;fill:none;stroke-opacity:1"/>
      <path d="m 852,568.801 -51.602,0 L 727.199,594 669.602,625.199 631.199,657.602 589.199,702 570,741.602 564,766.801 634.801,728.398 756,699.602 844.801,696 966,696 l 76.8,3.602 103.2,9.597 105.6,0 86.4,-9.597 66,-42 70.8,-56.403 42,-51.597 63.6,-57.602 82.8,-13.199 74.4,-6 69.6,12 73.2,19.199 0,-351.602" inkscape:connector-curvature="0" id="path16" style="stroke:#000000;stroke-width:8;stroke-miterlimit:4;stroke-dasharray:none;fill:none;stroke-opacity:1"/>
      <path d="m 337.199,231.602 -38.398,48 -48,48 -38.403,40.796 -40.796,44.403 -51.602,51.597 -51.6016,38.403 -54,38.398 101.9996,914.401 32.403,-9.6 34.801,-15.6 28.796,-22.8 28.801,-34.8 25.199,-42 13.204,-44.4 9.597,-38.4 9.602,-51.6 44.398,-1176.0016 -60,-3.5976 12,265.1992" inkscape:connector-curvature="0" id="path18" style="stroke:#000000;stroke-width:8;stroke-miterlimit:4;stroke-dasharray:none;fill:none;stroke-opacity:1"/>
      <path d="m 1950,1449.6 -1198.801,0 -63.597,-13.2 L 624,1404 l -63.602,-44.4 -45.597,-38.4 -37.199,-44.4 -36,-51.6 -21.602,-32.4 -13.199,-43.2 -9.602,-39.6 -3.597,-31.2 1556.398,0" inkscape:connector-curvature="0" id="path20" style="stroke:#000000;stroke-width:8;stroke-miterlimit:4;stroke-dasharray:none;fill:none;stroke-opacity:1"/>
    </g>
  </g>
</svg>
