<?xml version="1.0" encoding="UTF-8"?>
<!-- Created with Inkscape (http://www.inkscape.org/) -->
<svg xmlns:dc="http://purl.org/dc/elements/1.1/" xmlns:cc="http://creativecommons.org/ns#" xmlns:rdf="http://www.w3.org/1999/02/22-rdf-syntax-ns#" xmlns:svg="http://www.w3.org/2000/svg" xmlns="http://www.w3.org/2000/svg" xmlns:inkscape="http://www.inkscape.org/namespaces/inkscape" version="1.1" width="765" height="990" id="svg2" xml:space="preserve">
  <metadata id="metadata8">
    <rdf:RDF>
      <cc:Work rdf:about="">
        <dc:format>image/svg+xml</dc:format>
        <dc:type rdf:resource="http://purl.org/dc/dcmitype/StillImage"/>
      </cc:Work>
    </rdf:RDF>
  </metadata>
  <defs id="defs6"/>
  <g transform="matrix(1.25,0,0,-1.25,0,990)" id="g10">
    <g transform="scale(0.1,0.1)" id="g12">
      <path d="m 1180.8,658.801 -172.8,-32.403 28.8,-69.597 92.4,-144 38.4,-96 -115.2,32.398 -136.798,31.199 -234,34.801 -114,0 -115.204,-12 -92.398,-16.801 -22.801,-6 L 279.602,357.602 250.801,338.398 81.6016,280.801 66,272.398 62.3984,259.199 66,240 l 12,-13.199 16.8008,0 34.8012,9.597 42,15.602 98.398,32.398 44.398,6 48,-9.597 134.403,-54 16.801,3.597 18,15.602 -2.403,15.602 -20.398,22.796 -117.602,38.403 90,19.199 86.403,7.199 105.597,2.403 108,-13.204 124.801,-25.199 146.4,-44.398 166.8,-44.403 28.8,-3.597 42,3.597 12,12 15.6,13.204 3.6,28.796 -3.6,28.801 -136.8,357.602" inkscape:connector-curvature="0" id="path14" style="stroke:#000000;stroke-width:8;stroke-miterlimit:4;stroke-dasharray:none;fill:none;stroke-opacity:1"/>
      <path d="m 66,274.801 -26.3984,-2.403 -13.2032,-16.796 -6,-19.204 -6,-12 54,6" inkscape:connector-curvature="0" id="path16" style="stroke:#000000;stroke-width:8;stroke-miterlimit:4;stroke-dasharray:none;fill:none;stroke-opacity:1"/>
      <path d="m 522,272.398 22.801,-7.199 12,-13.199 10.801,-15.602 2.398,-12 -50.398,6" inkscape:connector-curvature="0" id="path18" style="stroke:#000000;stroke-width:8;stroke-miterlimit:4;stroke-dasharray:none;fill:none;stroke-opacity:1"/>
      <path d="m 496.801,1084.8 22.801,6 19.199,13.2 9.597,15.6 2.403,15.6 -2.403,28.8 -13.199,19.2 -15.597,9.6 -26.403,7.2 -25.199,-3.6 -19.199,-13.2 -12,-19.2 -3.602,-19.2 3.602,-21.6 12,-16.8 19.199,-15.6 22.801,-6" inkscape:connector-curvature="0" id="path20" style="stroke:#000000;stroke-width:8;stroke-miterlimit:4;stroke-dasharray:none;fill:none;stroke-opacity:1"/>
      <path d="m 848.398,1090.8 28.801,0 25.199,15.6 16.801,19.2 0,16.8 -7.199,27.6 -21.602,22.8 -13.199,7.2 -22.801,0 -21.597,-3.6 -19.199,-13.2 -9.602,-21.6 0,-19.2 2.398,-26.4 13.204,-15.6 15.597,-6 19.199,-7.2" inkscape:connector-curvature="0" id="path22" style="stroke:#000000;stroke-width:8;stroke-miterlimit:4;stroke-dasharray:none;fill:none;stroke-opacity:1"/>
      <path d="m 714,876 0,-466.801" inkscape:connector-curvature="0" id="path24" style="stroke:#000000;stroke-width:8;stroke-miterlimit:4;stroke-dasharray:none;fill:none;stroke-opacity:1"/>
      <path d="m 714,342 0,-326.3984 -60,0 0,330.0004" inkscape:connector-curvature="0" id="path26" style="stroke:#000000;stroke-width:8;stroke-miterlimit:4;stroke-dasharray:none;fill:none;stroke-opacity:1"/>
      <path d="M 654,415.199 654,876" inkscape:connector-curvature="0" id="path28" style="stroke:#000000;stroke-width:8;stroke-miterlimit:4;stroke-dasharray:none;fill:none;stroke-opacity:1"/>
      <path d="m 627.602,876 -92.403,-280.801 -6,-28.801 0,-38.398 12,-28.801 19.199,-19.199 19.204,-13.199 70.796,-9.602" inkscape:connector-curvature="0" id="path30" style="stroke:#000000;stroke-width:8;stroke-miterlimit:4;stroke-dasharray:none;fill:none;stroke-opacity:1"/>
      <path d="m 717.602,457.199 40.796,3.602 26.403,6 31.199,22.801 19.199,38.398 0,44.398 L 736.801,876" inkscape:connector-curvature="0" id="path32" style="stroke:#000000;stroke-width:8;stroke-miterlimit:4;stroke-dasharray:none;fill:none;stroke-opacity:1"/>
      <path d="m 1036.8,879.602 -718.8,0 0,226.798 13.199,22.8 21.602,15.6 22.801,-2.4 38.398,-19.2 60,-54 61.199,-45.6 54,-25.202 67.199,-13.199 61.204,0 40.796,7.199 38.403,18.002 64.801,45.6 46.796,44.4 39.602,32.4 44.398,19.2 31.202,-7.2 15.6,-28.8 0,-236.398" inkscape:connector-curvature="0" id="path34" style="stroke:#000000;stroke-width:8;stroke-miterlimit:4;stroke-dasharray:none;fill:none;stroke-opacity:1"/>
      <path d="m 544.801,1027.2 54,374.4 28.801,31.2 19.199,13.2 26.398,9.6 31.199,-3.6 34.801,-21.6 19.199,-45.6 55.204,-364.8" inkscape:connector-curvature="0" id="path36" style="stroke:#000000;stroke-width:8;stroke-miterlimit:4;stroke-dasharray:none;fill:none;stroke-opacity:1"/>
    </g>
  </g>
</svg>
