<?xml version="1.0" encoding="UTF-8"?>
<!-- Created with Inkscape (http://www.inkscape.org/) -->
<svg xmlns:dc="http://purl.org/dc/elements/1.1/" xmlns:cc="http://creativecommons.org/ns#" xmlns:rdf="http://www.w3.org/1999/02/22-rdf-syntax-ns#" xmlns:svg="http://www.w3.org/2000/svg" xmlns="http://www.w3.org/2000/svg" xmlns:inkscape="http://www.inkscape.org/namespaces/inkscape" version="1.1" width="765" height="990" id="svg2" xml:space="preserve">
  <metadata id="metadata8">
    <rdf:RDF>
      <cc:Work rdf:about="">
        <dc:format>image/svg+xml</dc:format>
        <dc:type rdf:resource="http://purl.org/dc/dcmitype/StillImage"/>
      </cc:Work>
    </rdf:RDF>
  </metadata>
  <defs id="defs6"/>
  <g transform="matrix(1.25,0,0,-1.25,0,990)" id="g10">
    <g transform="scale(0.1,0.1)" id="g12">
      <path d="m 4099.2,946.801 -3.6,-48 -2.4,-69.602 2.4,-63.597 7.2,-61.204 0,-51.597 -9.6,-54 -9.6,-60 -13.2,-61.199 -13.2,-76.801 -6,-80.403 -12,-73.199 -10.8,-61.199 0,-57.602 10.8,-46.7964 2.4,-19.2032 3.6,-13.1992 -3.6,-15.5976 -15.6,-16.8008 -274.8,0 0,28.8008 34.8,6 36,10.7968 24,6 36,15.6016 28.8,19.199 15.6,19.199 9.6,42 6,63.602 -8.4,102 -19.2,132 -16.8,121.199 -15.6,117.602 -6,103.199 -3.6,98.398 3.6,86.403 15.6,70.799 13.2,25.2 25.2,28.8 28.8,9.6 0,51.6 -73.2,6 -76.8,-76.8 37.2,-28.8 36,102 -9.6,9.6 -7.2,57.6 -40.8,6 0,13.2 21.6,32.4 7.2,22.8 6,15.6 9.6,13.2 3.6,21.6 13.2,26.4 19.2,25.2 18,15.6 28.8,13.2 26.4,6 44.4,0 28.8,-9.6 19.2,-6 25.2,-19.2 15.6,-16.8 7.2,-6 22.8,-38.4 6,-21.6 6,-32.4 3.6,-19.2 3.6,-25.2 0,-304.802" inkscape:connector-curvature="0" id="path14" style="stroke:#000000;stroke-width:8;stroke-miterlimit:4;stroke-dasharray:none;fill:none;stroke-opacity:1"/>
      <path d="m 3868.8,1344 134.4,-3.6 7.2,-19.2 2.4,0 19.2,-2.4 19.2,-16.8 0,-25.2 -6,-15.6 -13.2,-19.2 -6,-3.6 0,-284.4 134.4,-3.602" inkscape:connector-curvature="0" id="path16" style="stroke:#000000;stroke-width:8;stroke-miterlimit:4;stroke-dasharray:none;fill:none;stroke-opacity:1"/>
      <path d="m 3904.8,1282.8 18,-12 26.4,9.6" inkscape:connector-curvature="0" id="path18" style="stroke:#000000;stroke-width:8;stroke-miterlimit:4;stroke-dasharray:none;fill:none;stroke-opacity:1"/>
      <path d="m 1609.2,877.199 0,-860.3982 67.2,0 0,860.3982" inkscape:connector-curvature="0" id="path20" style="stroke:#000000;stroke-width:8;stroke-miterlimit:4;stroke-dasharray:none;fill:none;stroke-opacity:1"/>
      <path d="m 1282.8,880.801 720,0 0,226.799 -13.2,25.2 -13.2,16.8 -31.2,0 -19.2,-4.8 -19.2,-12 -63.6,-57.6 -57.6,-51.6 -45.6,-21.6 -54,-13.199 -45.6,-3.602 -40.8,3.602 -54,13.199 -45.6,21.6 -56.4,51.6 -64.8,57.6 -19.2,12 -19.2,4.8 -31.2,0 -13.2,-16.8 -13.2,-25.2 0,-226.799" inkscape:connector-curvature="0" id="path22" style="stroke:#000000;stroke-width:8;stroke-miterlimit:4;stroke-dasharray:none;fill:none;stroke-opacity:1"/>
      <path d="m 1774.8,1023.6 -57.6,378 -25.2,31.2 -18,13.2 -26.4,9.6 -9.6,0 -25.2,-9.6 -19.2,-13.2 -25.2,-31.2 -58.8,-378" inkscape:connector-curvature="0" id="path24" style="stroke:#000000;stroke-width:8;stroke-miterlimit:4;stroke-dasharray:none;fill:none;stroke-opacity:1"/>
      <path d="m 14.3984,1414.8 0,-294 105.6016,12 159.602,-6 130.796,-19.2 134.403,-38.4" inkscape:connector-curvature="0" id="path26" style="stroke:#000000;stroke-width:8;stroke-miterlimit:4;stroke-dasharray:none;fill:none;stroke-opacity:1"/>
      <path d="m 544.801,1455.6 0,-1438.7992 67.199,0 0,1438.7992 -67.199,0 L 410.398,1424.4 279.602,1411.2 120,1404 14.3984,1414.8" inkscape:connector-curvature="0" id="path28" style="stroke:#000000;stroke-width:8;stroke-miterlimit:4;stroke-dasharray:none;fill:none;stroke-opacity:1"/>
      <path d="m 2703.6,1452 -15.6,-322.8 -7.2,-274.802 -6,-210 -15.6,-151.199 -13.2,-144 6,-153.597 9.6,-48 6,-37.204 -2.4,-39.5972 -19.2,-25.1992 -28.8,-19.2032 -34.8,-6 -64.8,15.6016 -25.2,19.1992 -42,9.6016 -96,-48 -396,3.5976 -15.6,50.4024 12,26.3984 36,5.9998 136.8,28.801 115.2,57.602 76.8,28.796 67.2,15.602 48,42 15.6,40.801 3.6,45.597 -6,67.204 -3.6,88.796 -7.2,243.602 -2.4,242.4 -26.4,451.2 295.2,0" inkscape:connector-curvature="0" id="path30" style="stroke:#000000;stroke-width:8;stroke-miterlimit:4;stroke-dasharray:none;fill:none;stroke-opacity:1"/>
      <path d="m 3138,1330.8 -36,-18 -26.4,-32.4 -9.6,-27.6 -6,-26.4 8.4,-42 21.6,-26.4 20.4,-18 36,-12 26.4,-8.4 32.4,0 37.2,14.4 28.8,15.6 18,20.4 20.4,30 15.6,34.8 9.6,30 2.4,30 -2.4,21.6 -7.2,34.8 -14.4,30 -24,30 -24,20.4 -20.4,9.6 -20.4,8.4 -30,2.4 -24,3.6 -30,0 -36,-3.6 -38.4,-10.8 -32.4,-18 -20.4,-18 -25.2,-20.4 -16.8,-21.6 -18,-32.4 -18,-33.6 -6,-28.8 -6,-42 -2.4,-42 2.4,-32.4 2.4,-48 18,-46.8 27.6,-54 46.8,-62.399 74.4,-72 108,-86.403 231.6,-130.796" inkscape:connector-curvature="0" id="path32" style="stroke:#000000;stroke-width:8;stroke-miterlimit:4;stroke-dasharray:none;fill:none;stroke-opacity:1"/>
      <path d="m 2901.6,553.199 237.6,-536.3982 120,0 -238.8,536.3982 -118.8,0" inkscape:connector-curvature="0" id="path34" style="stroke:#000000;stroke-width:8;stroke-miterlimit:4;stroke-dasharray:none;fill:none;stroke-opacity:1"/>
      <path d="m 3261.6,553.199 238.8,-536.3982 118.8,0 -237.6,536.3982 -120,0" inkscape:connector-curvature="0" id="path36" style="stroke:#000000;stroke-width:8;stroke-miterlimit:4;stroke-dasharray:none;fill:none;stroke-opacity:1"/>
      <path d="m 1086,231.602 -37.2,48 -48,48 -39.601,40.796 -40.801,45.602 -51.597,50.398 -50.403,38.403 -55.199,38.398 103.199,914.401 31.204,-9.6 34.796,-15.6 28.801,-22.8 28.801,-34.8 26.4,-42 13.2,-44.4 8.4,-38.4 10.8,-51.6 L 1093.2,20.3984 1032,16.8008 1045.2,282" inkscape:connector-curvature="0" id="path38" style="stroke:#000000;stroke-width:8;stroke-miterlimit:4;stroke-dasharray:none;fill:none;stroke-opacity:1"/>
    </g>
  </g>
</svg>
