<?xml version="1.0" encoding="UTF-8"?>
<!-- Created with Inkscape (http://www.inkscape.org/) -->
<svg xmlns:dc="http://purl.org/dc/elements/1.1/" xmlns:cc="http://creativecommons.org/ns#" xmlns:rdf="http://www.w3.org/1999/02/22-rdf-syntax-ns#" xmlns:svg="http://www.w3.org/2000/svg" xmlns="http://www.w3.org/2000/svg" xmlns:inkscape="http://www.inkscape.org/namespaces/inkscape" version="1.1" width="765" height="990" id="svg2" xml:space="preserve">
  <metadata id="metadata8">
    <rdf:RDF>
      <cc:Work rdf:about="">
        <dc:format>image/svg+xml</dc:format>
        <dc:type rdf:resource="http://purl.org/dc/dcmitype/StillImage"/>
      </cc:Work>
    </rdf:RDF>
  </metadata>
  <defs id="defs6"/>
  <g transform="matrix(1.25,0,0,-1.25,0,990)" id="g10">
    <g transform="scale(0.1,0.1)" id="g12">
      <path d="m 340.801,877.199 0,-860.3982 67.199,0 0,860.3982" inkscape:connector-curvature="0" id="path14" style="stroke:#000000;stroke-width:8;stroke-miterlimit:4;stroke-dasharray:none;fill:none;stroke-opacity:1"/>
      <path d="m 14.3984,880.801 718.8006,0 0,226.799 -13.199,25.2 -12,16.8 -32.398,0 -19.204,-4.8 -19.199,-12 -63.597,-57.6 L 516,1023.6 471.602,1002 417.602,988.801 372,985.199 331.199,988.801 276,1002 l -44.398,21.6 -57.602,51.6 -63.602,57.6 -19.1988,12 -19.1992,4.8 -32.3984,0 -13.2032,-16.8 -12,-25.2 0,-226.799" inkscape:connector-curvature="0" id="path16" style="stroke:#000000;stroke-width:8;stroke-miterlimit:4;stroke-dasharray:none;fill:none;stroke-opacity:1"/>
      <path d="m 506.398,1023.6 -57.597,378 -25.199,31.2 -19.204,13.2 -25.199,9.6 -10.801,0 -25.199,-9.6 -18,-13.2 -26.398,-31.2 -57.602,-378" inkscape:connector-curvature="0" id="path18" style="stroke:#000000;stroke-width:8;stroke-miterlimit:4;stroke-dasharray:none;fill:none;stroke-opacity:1"/>
      <path d="m 1544.4,1453.2 -15.6,-324 -7.2,-274.802 -6,-210 -15.6,-151.199 -13.2,-144 7.2,-153.597 8.4,-48 7.2,-37.204 -3.6,-39.5972 -19.2,-25.1992 -28.8,-19.2032 -34.8,-6 -64.8,15.6016 -25.2,19.1992 -42,9.6016 -96,-48 -396.001,3.5976 -15.597,50.4024 12,26.3984 36,5.9998 136.796,28.801 115.202,57.602 76.8,28.796 67.2,15.602 48,42 15.6,40.801 3.6,45.597 -6,67.204 -3.6,88.796 -6,243.602 -3.6,242.4 -25.2,451.2 294,0" inkscape:connector-curvature="0" id="path20" style="stroke:#000000;stroke-width:8;stroke-miterlimit:4;stroke-dasharray:none;fill:none;stroke-opacity:1"/>
      <path d="m 2952,1442.4 34.8,-12 42,-26.4 44.4,-44.4 13.2,-51.6 6,-31.2 0,-51.6 -15.6,-54 -22.8,-48 -28.8,-28.8 -34.8,-19.2 -38.4,-13.2 -1058.4,0 -73.2,3.6 -42,19.2 -31.2,21.6 -32.4,48 -15.6,45.6 -6,40.8 6,48 9.6,48 21.6,38.4 36,36 44.4,25.2 32.4,6 1108.8,0 -28.8,-48 -22.8,-44.4 -9.6,-48 -2.4,-44.4 2.4,-48 13.2,-49.2 19.2,-46.8 28.8,-45.6 -48,26.4 -115.2,38.4 -88.8,25.2 -96,19.2 -86.4,22.8 -122.4,2.4 -57.6,0 -117.6,-12 -92.4,-22.8 -76.8,-19.2 -109.2,-38.4 -102,-42" inkscape:connector-curvature="0" id="path22" style="stroke:#000000;stroke-width:8;stroke-miterlimit:4;stroke-dasharray:none;fill:none;stroke-opacity:1"/>
      <path d="m 2946,1442.4 -109.2,-48 -99.6,-34.8 -76.8,-19.2 -85.2,-22.8 -109.2,-6 -73.2,-6 -124.8,8.4 -102,16.8 -90,22.8 -80.4,21.6 -114,38.4 -45.6,22.8 28.8,-42 19.2,-44.4 9.6,-48 3.6,-44.4 -3.6,-48 -9.6,-49.2 -19.2,-46.8 -28.8,-45.6" inkscape:connector-curvature="0" id="path24" style="stroke:#000000;stroke-width:8;stroke-miterlimit:4;stroke-dasharray:none;fill:none;stroke-opacity:1"/>
    </g>
  </g>
</svg>
