<?xml version="1.0" encoding="UTF-8"?>
<!-- Created with Inkscape (http://www.inkscape.org/) -->
<svg xmlns:dc="http://purl.org/dc/elements/1.1/" xmlns:cc="http://creativecommons.org/ns#" xmlns:rdf="http://www.w3.org/1999/02/22-rdf-syntax-ns#" xmlns:svg="http://www.w3.org/2000/svg" xmlns="http://www.w3.org/2000/svg" xmlns:inkscape="http://www.inkscape.org/namespaces/inkscape" version="1.1" width="765" height="990" id="svg2" xml:space="preserve">
  <metadata id="metadata8">
    <rdf:RDF>
      <cc:Work rdf:about="">
        <dc:format>image/svg+xml</dc:format>
        <dc:type rdf:resource="http://purl.org/dc/dcmitype/StillImage"/>
      </cc:Work>
    </rdf:RDF>
  </metadata>
  <defs id="defs6"/>
  <g transform="matrix(1.25,0,0,-1.25,0,990)" id="g10">
    <g transform="scale(0.1,0.1)" id="g12">
      <path d="M 349.199,250.801 309.602,300 260.398,349.199 220.801,392.398 177.602,439.199 124.801,492 72,530.398 16.8008,571.199 121.199,1513.2 l 33.602,-9.6 36,-15.6 30,-24 30,-36 25.199,-43.2 13.199,-45.6 10.801,-39.6 9.602,-52.8 L 356.398,33.6016 292.801,30 306,303.602" inkscape:connector-curvature="0" id="path14" style="stroke:#000000;stroke-width:8;stroke-miterlimit:4;stroke-dasharray:none;fill:none;stroke-opacity:1"/>
      <path d="M 824.398,820.801 1224,1206" inkscape:connector-curvature="0" id="path16" style="stroke:#000000;stroke-width:8;stroke-miterlimit:4;stroke-dasharray:none;fill:none;stroke-opacity:1"/>
      <path d="M 679.199,877.199 1171.2,1346.4" inkscape:connector-curvature="0" id="path18" style="stroke:#000000;stroke-width:8;stroke-miterlimit:4;stroke-dasharray:none;fill:none;stroke-opacity:1"/>
      <path d="M 584.398,978 1076.4,1448.4" inkscape:connector-curvature="0" id="path20" style="stroke:#000000;stroke-width:8;stroke-miterlimit:4;stroke-dasharray:none;fill:none;stroke-opacity:1"/>
      <path d="m 535.199,1123.2 393.602,374.4" inkscape:connector-curvature="0" id="path22" style="stroke:#000000;stroke-width:8;stroke-miterlimit:4;stroke-dasharray:none;fill:none;stroke-opacity:1"/>
      <path d="m 1024.8,1476 -33.601,9.6 -34.801,12 -36,6 -37.199,0 -40.801,-2.4 -33.597,-3.6 -37.199,-12 -33.602,-12 -33.602,-15.6 -30,-21.6 -25.199,-21.6 -24,-25.2 L 606,1368 l -18,-27.6 -21.602,-39.6 -8.398,-31.2 -9.602,-33.6 -6,-33.6 -7.199,-39.6 0,-34.8 7.199,-39.6 8.403,-33.6 9.597,-31.2 L 576,990 l 8.398,-18 13.204,-15.602 30,-33.597 31.199,-31.199 L 686.398,870 720,852 l 37.199,-18 37.199,-9.602 30,-9.597 37.204,0 37.199,-3.602 42,7.199 31.199,6 37.2,15.602 36,18 25.2,12 27.6,25.199 27.6,25.199 27.6,26.403 21.6,34.801 21.6,29.998 15.6,31.2 8.4,37.2 3.6,33.6 6,39.6 -2.4,33.6 -3.6,40.8 -9.6,33.6 -12,30 -15.6,39.6 -21.6,31.2 -21.6,25.2 -24,30 -31.2,22.8 -30,20.4 -33.6,15.6" inkscape:connector-curvature="0" id="path24" style="stroke:#000000;stroke-width:8;stroke-miterlimit:4;stroke-dasharray:none;fill:none;stroke-opacity:1"/>
      <path d="M 824.398,28.8008 1224,412.801" inkscape:connector-curvature="0" id="path26" style="stroke:#000000;stroke-width:8;stroke-miterlimit:4;stroke-dasharray:none;fill:none;stroke-opacity:1"/>
      <path d="M 679.199,84 1171.2,555.602" inkscape:connector-curvature="0" id="path28" style="stroke:#000000;stroke-width:8;stroke-miterlimit:4;stroke-dasharray:none;fill:none;stroke-opacity:1"/>
      <path d="M 584.398,186 1076.4,656.398" inkscape:connector-curvature="0" id="path30" style="stroke:#000000;stroke-width:8;stroke-miterlimit:4;stroke-dasharray:none;fill:none;stroke-opacity:1"/>
      <path d="M 535.199,330 928.801,705.602" inkscape:connector-curvature="0" id="path32" style="stroke:#000000;stroke-width:8;stroke-miterlimit:4;stroke-dasharray:none;fill:none;stroke-opacity:1"/>
      <path d="m 1024.8,684 -33.601,9.602 -34.801,12 -36,6 -37.199,0 -40.801,-2.403 -33.597,-3.597 -37.199,-12 -33.602,-12 -33.602,-15.602 -30,-21.602 -25.199,-21.597 -24,-24 L 606,576 588,548.398 566.398,508.801 558,478.801 548.398,444 l -6,-33.602 -7.199,-39.597 0,-34.801 7.199,-39.602 8.403,-33.597 9.597,-30 L 576,198 l 8.398,-18 13.204,-15.602 30,-33.597 L 658.801,99.6016 686.398,79.1992 720,60 l 37.199,-18 37.199,-9.6016 30,-9.5976 37.204,0 37.199,-2.4024 42,6 31.199,6 37.2,15.6016 36,18 25.2,13.1992 27.6,23.9998 27.6,24 27.6,28.801 21.6,33.602 21.6,30 15.6,31.199 8.4,36 3.6,34.801 6,39.597 -2.4,33.602 -3.6,40.801 -9.6,33.597 -12,30 -15.6,40.801 -21.6,30 -21.6,25.199 -24,30 -31.2,22.801 -30,20.398 -33.6,15.602" inkscape:connector-curvature="0" id="path34" style="stroke:#000000;stroke-width:8;stroke-miterlimit:4;stroke-dasharray:none;fill:none;stroke-opacity:1"/>
      <path d="m 2324.4,474 -43.2,4.801 -45.6,8.398 -36,20.403 -30,20.398 -52.8,55.199 -49.2,56.403 -46.8,62.398 -22.8,50.398 -16.8,38.403 -22.8,73.199 -6,86.398 6,38.403 22.8,46.799 39.6,49.2 -62.4,20.4 -45.6,36 -76.8,102 54,-154.8 36,-129.599 6,-64.801 9.6,-54 16.8,-51.602 16.8,-46.796 26.4,-43.204 26.4,-45.597 32.4,-36 36,-39.602 30,-33.597 24,-22.801 15.6,-13.199 -69.6,22.796 -72,26.403 -66,33.597 -68.4,69.602 -40.8,55.199 -28.8,49.199 -30,66 -26.4,76.801 -20.4,72 -9.6,69.601 -6,56.4 6,58.8 16.8,46.8 56.4,74.4 28.8,33.6 -75.6,33.6 -58.8,45.6 -66,92.4 39.6,-138 39.6,-135.6 -7.2,-92.4 3.6,-69.6 13.2,-68.402 9.6,-63.597 20.4,-55.199 19.2,-50.403 24,-49.199 32.4,-62.398 82.8,-102 -66,36 -62.4,39.597 -69.6,60 -69.6,64.801 -45.6,73.199 -24,68.403 -15.6,76.798 6,72 9.6,30 20.4,39.6 26.4,28.8 -62.4,33.6 -58.8,46.8 -76.8,98.4 49.2,-145.2 52.8,-148.8 10.8,-52.8 2.4,-38.402 16.8,-63.597 32.4,-78 26.4,-40.801 40.8,-42 32.4,-33.602 45.6,-39.597 46.8,-32.403 58.8,-36 66,-40.796 154.8,-62.403 128.4,-43.199 96,-15.602 39.6,-7.199 0,20.403" inkscape:connector-curvature="0" id="path36" style="stroke:#000000;stroke-width:8;stroke-miterlimit:4;stroke-dasharray:none;fill:none;stroke-opacity:1"/>
      <path d="m 2536.8,732 0,-312 70.8,0 0,312 -70.8,0" inkscape:connector-curvature="0" id="path38" style="stroke:#000000;stroke-width:8;stroke-miterlimit:4;stroke-dasharray:none;fill:none;stroke-opacity:1"/>
      <path d="m 2802,1462.8 0,-313.2 69.6,0 0,313.2 -69.6,0" inkscape:connector-curvature="0" id="path40" style="stroke:#000000;stroke-width:8;stroke-miterlimit:4;stroke-dasharray:none;fill:none;stroke-opacity:1"/>
      <path d="m 3066,732 0,-312 72,0 0,312 -69.6,0" inkscape:connector-curvature="0" id="path42" style="stroke:#000000;stroke-width:8;stroke-miterlimit:4;stroke-dasharray:none;fill:none;stroke-opacity:1"/>
    </g>
  </g>
</svg>
