<?xml version="1.0" encoding="UTF-8"?>
<!-- Created with Inkscape (http://www.inkscape.org/) -->
<svg xmlns:dc="http://purl.org/dc/elements/1.1/" xmlns:cc="http://creativecommons.org/ns#" xmlns:rdf="http://www.w3.org/1999/02/22-rdf-syntax-ns#" xmlns:svg="http://www.w3.org/2000/svg" xmlns="http://www.w3.org/2000/svg" xmlns:inkscape="http://www.inkscape.org/namespaces/inkscape" version="1.1" width="765" height="990" id="svg2" xml:space="preserve">
  <metadata id="metadata8">
    <rdf:RDF>
      <cc:Work rdf:about="">
        <dc:format>image/svg+xml</dc:format>
        <dc:type rdf:resource="http://purl.org/dc/dcmitype/StillImage"/>
      </cc:Work>
    </rdf:RDF>
  </metadata>
  <defs id="defs6"/>
  <g transform="matrix(1.25,0,0,-1.25,0,990)" id="g10">
    <g transform="scale(0.1,0.1)" id="g12">
      <path d="m 152.398,645.602 28.801,0 0,-621.602 -28.801,0 0,621.602" inkscape:connector-curvature="0" id="path14" style="stroke:#000000;stroke-width:8;stroke-miterlimit:4;stroke-dasharray:none;fill:none;stroke-opacity:1"/>
      <path d="m 152.398,607.199 -137.9996,0 0,-26.398 137.9996,0" inkscape:connector-curvature="0" id="path16" style="stroke:#000000;stroke-width:8;stroke-miterlimit:4;stroke-dasharray:none;fill:none;stroke-opacity:1"/>
      <path d="m 152.398,538.801 -137.9996,0 0,-26.403 137.9996,0" inkscape:connector-curvature="0" id="path18" style="stroke:#000000;stroke-width:8;stroke-miterlimit:4;stroke-dasharray:none;fill:none;stroke-opacity:1"/>
      <path d="m 152.398,201.602 -123.5972,94.796 -8.4024,14.403 -6,15.597 7.2032,25.204 10.7968,9.597 10.8008,7.199 13.1992,-1.199 13.2032,-3.597 6,-6 7.1992,-8.403 1.1992,-10.801 -2.3984,-7.199 -7.2032,-9.597 -9.5976,-4.801 -9.6016,0 -14.3984,8.398 L 38.3984,336" inkscape:connector-curvature="0" id="path20" style="stroke:#000000;stroke-width:8;stroke-miterlimit:4;stroke-dasharray:none;fill:none;stroke-opacity:1"/>
      <path d="m 152.398,200.398 -107.9996,0 L 152.398,24" inkscape:connector-curvature="0" id="path22" style="stroke:#000000;stroke-width:8;stroke-miterlimit:4;stroke-dasharray:none;fill:none;stroke-opacity:1"/>
      <path d="m 526.801,483.602 -3.602,-19.204 -16.801,-6 -15.597,-14.398 -3.602,-12 1.199,-14.398 8.403,-18 20.398,-27.602 33.602,-33.602 90,-54 48,-26.398 39.597,-16.801 24,-15.597 14.403,-9.602 32.398,-33.602 3.602,-1.199 0,16.801 -13.199,54 -20.403,82.801 -18,70.801 -24,57.597 L 704.398,504 684,529.199 662.398,549.602 645.602,558 618,564 597.602,562.801 574.801,554.398 523.199,510 l -22.801,-16.801 -12,-3.597 -10.796,2.398 -6,13.199 6,18 18,22.801 15.597,25.199 7.199,21.602 1.204,21.597 -7.204,14.403 -13.199,10.801 -16.801,6 -15.597,-2.403 -15.602,-6 -9.597,-7.199 -8.403,-4.801 -4.801,-8.398 -4.796,-14.403 L 426,588 l 6,-6 7.199,-6 4.801,-6 1.199,-8.398 -1.199,-12 -36,-67.204 -6,-21.597 0,-20.403 7.199,-21.597 14.403,-13.199 L 474,372 l 10.801,-14.398 38.398,-49.204 12,-15.597 L 552,278.398 596.398,258 l 4.801,-1.199 6,-19.199 30,-44.403 4.801,-10.801 2.398,-9.597 L 658.801,70.8008 656.398,60 654,55.1992 l -8.398,-2.3984 -49.204,-3.6016 -31.199,-2.3984 -9.597,-6 -1.204,-9.6016 8.403,-6" inkscape:connector-curvature="0" id="path24" style="stroke:#000000;stroke-width:8;stroke-miterlimit:4;stroke-dasharray:none;fill:none;stroke-opacity:1"/>
      <path d="M 561.602,44.3984 550.801,40.8008 544.801,36 543.602,25.1992 554.398,30" inkscape:connector-curvature="0" id="path26" style="stroke:#000000;stroke-width:8;stroke-miterlimit:4;stroke-dasharray:none;fill:none;stroke-opacity:1"/>
      <path d="m 586.801,40.8008 -13.199,-1.1992 -4.801,-7.2032 -1.199,-6 12,2.4024" inkscape:connector-curvature="0" id="path28" style="stroke:#000000;stroke-width:8;stroke-miterlimit:4;stroke-dasharray:none;fill:none;stroke-opacity:1"/>
      <path d="m 616.801,46.8008 -21.602,-3.6016 -14.398,-4.8008 0,-8.3984 7.199,-4.8008 13.199,1.1992 62.403,6 49.199,-7.1992 L 720,26.3984 720,36 717.602,42 684,50.3984 680.398,55.1992 672,150 l 1.199,18 -4.801,13.199 -7.199,24 -4.801,49.199" inkscape:connector-curvature="0" id="path30" style="stroke:#000000;stroke-width:8;stroke-miterlimit:4;stroke-dasharray:none;fill:none;stroke-opacity:1"/>
      <path d="m 658.801,240 27.597,-7.199 34.801,-4.801 25.199,0" inkscape:connector-curvature="0" id="path32" style="stroke:#000000;stroke-width:8;stroke-miterlimit:4;stroke-dasharray:none;fill:none;stroke-opacity:1"/>
      <path d="m 720,39.6016 7.199,-1.2032 6,-6 1.199,-6 L 721.199,30" inkscape:connector-curvature="0" id="path34" style="stroke:#000000;stroke-width:8;stroke-miterlimit:4;stroke-dasharray:none;fill:none;stroke-opacity:1"/>
      <path d="M 548.398,282 558,193.199 556.801,180 492,62.3984 l -3.602,-6 -7.199,-1.1992 -82.801,-8.3984 -6,-3.6016 0,-2.3984 -9.597,-1.1992 -3.602,-2.4024 L 378,30 l -1.199,-6 10.801,8.3984 2.398,-6 10.801,0" inkscape:connector-curvature="0" id="path36" style="stroke:#000000;stroke-width:8;stroke-miterlimit:4;stroke-dasharray:none;fill:none;stroke-opacity:1"/>
      <path d="m 416.398,39.6016 -10.796,-2.4024 -4.801,-6 2.398,-6 L 417.602,30" inkscape:connector-curvature="0" id="path38" style="stroke:#000000;stroke-width:8;stroke-miterlimit:4;stroke-dasharray:none;fill:none;stroke-opacity:1"/>
      <path d="m 462,46.8008 -34.801,-6 -9.597,-1.1992 0,-9.6016 6,-4.8008 55.199,6 18,2.4024 31.199,-4.8008 13.199,-3.6016" inkscape:connector-curvature="0" id="path40" style="stroke:#000000;stroke-width:8;stroke-miterlimit:4;stroke-dasharray:none;fill:none;stroke-opacity:1"/>
      <path d="m 548.398,40.8008 -30,7.1992 -2.398,3.6016 1.199,7.1992 48,87.5972 7.199,7.204 7.204,14.398 2.398,13.199 25.199,57.602" inkscape:connector-curvature="0" id="path42" style="stroke:#000000;stroke-width:8;stroke-miterlimit:4;stroke-dasharray:none;fill:none;stroke-opacity:1"/>
      <path d="m 427.199,619.199 -50.398,-9.597 -10.801,-6 -12,-9.602 -6,-18 7.199,6 16.801,8.398 21.602,6 13.199,0 15.597,2.403" inkscape:connector-curvature="0" id="path44" style="stroke:#000000;stroke-width:8;stroke-miterlimit:4;stroke-dasharray:none;fill:none;stroke-opacity:1"/>
      <path d="m 350.398,577.199 20.403,3.602 22.801,1.199 18,-3.602 13.199,2.403 7.199,0" inkscape:connector-curvature="0" id="path46" style="stroke:#000000;stroke-width:8;stroke-miterlimit:4;stroke-dasharray:none;fill:none;stroke-opacity:1"/>
      <path d="m 453.602,614.398 3.597,-8.398 3.602,-2.398 4.801,0 4.796,4.796 0,6 -3.597,3.602 -4.801,1.199 -3.602,-1.199 -4.796,-4.801" inkscape:connector-curvature="0" id="path48" style="stroke:#000000;stroke-width:8;stroke-miterlimit:4;stroke-dasharray:none;fill:none;stroke-opacity:1"/>
      <path d="m 997.199,237.602 -4.801,14.398 -13.199,9.602 -34.801,3.597 14.403,-34.801" inkscape:connector-curvature="0" id="path50" style="stroke:#000000;stroke-width:8;stroke-miterlimit:4;stroke-dasharray:none;fill:none;stroke-opacity:1"/>
      <path d="m 961.199,265.199 0,204 -2.398,6 -2.403,4.801 -2.398,2.398 -2.398,0 L 948,480 l -2.398,-7.199 -1.204,-7.199 -4.796,-8.403 -3.602,-6 -1.199,-9.597 -2.403,-7.204 -2.398,-3.597 -3.602,1.199 1.204,9.602 2.398,9.597 -2.398,9.602 -1.204,9.597 1.204,7.204 0,8.398 4.796,6 7.204,7.199 3.597,8.403 1.199,6 1.204,8.398 0,20.398 -1.204,6 4.801,0 7.199,-6 4.801,-4.796 1.199,-6 0,-8.403 -1.199,-8.398 -2.398,-7.199 -1.199,-4.801 -3.602,-7.199 -1.199,-1.204 -1.199,-7.199 -2.403,-4.801 2.403,7.204 4.796,-2.403 6,-1.199 3.602,-6 2.398,-4.801 0,-211.199" inkscape:connector-curvature="0" id="path52" style="stroke:#000000;stroke-width:8;stroke-miterlimit:4;stroke-dasharray:none;fill:none;stroke-opacity:1"/>
      <path d="m 940.801,482.398 -4.801,-12" inkscape:connector-curvature="0" id="path54" style="stroke:#000000;stroke-width:8;stroke-miterlimit:4;stroke-dasharray:none;fill:none;stroke-opacity:1"/>
      <path d="m 1080,486 -4.8,26.398 -9.6,25.204 82.8,0 32.4,102 7.2,-1.204 L 1148.4,480" inkscape:connector-curvature="0" id="path56" style="stroke:#000000;stroke-width:8;stroke-miterlimit:4;stroke-dasharray:none;fill:none;stroke-opacity:1"/>
      <path d="m 1071.6,537.602 3.6,15.597 4.8,9.602 3.6,8.398 8.4,7.199 6,7.204 9.6,2.398 7.2,4.801 7.2,3.597 6,7.204 4.8,6 6,7.199 1.2,4.801 0,7.199 1.2,7.199 7.2,3.602 4.8,1.199 8.4,0 3.6,-1.199 3.6,-4.801 0,-8.403 -3.6,-7.199 -3.6,-2.398 -3.6,-3.602 -2.4,-4.801 0,-13.199 1.2,-3.597 1.2,-3.602 3.6,-7.199" inkscape:connector-curvature="0" id="path58" style="stroke:#000000;stroke-width:8;stroke-miterlimit:4;stroke-dasharray:none;fill:none;stroke-opacity:1"/>
      <path d="m 1102.8,586.801 -20.4,32.398 -2.4,9.602 2.4,4.801 2.4,4.796 3.6,2.403 9.6,0 3.6,-2.403 3.6,-3.597 0,-3.602 -2.4,-4.801 -1.2,-2.398 -1.2,-2.398 -3.6,0" inkscape:connector-curvature="0" id="path60" style="stroke:#000000;stroke-width:8;stroke-miterlimit:4;stroke-dasharray:none;fill:none;stroke-opacity:1"/>
      <path d="m 1232.4,20.3984 -301.201,0 73.201,30 -45.599,140.4026 0,13.199 -1.199,9.602 1.199,12 3.597,6 3.602,6 7.199,2.398 4.801,2.398 6,0 3.602,-2.398 3.597,0 6,-2.398 8.401,-7.204 82.8,-102 7.2,162 2.4,22.801 4.8,18 4.8,9.602 9.6,10.801 8.4,4.796 6,4.801 24,0 13.2,-6 6,-8.398 4.8,-10.801 8.4,-13.199 1.2,-14.403 2.4,-16.796 1.2,-9.602 0,-214.8008 -3.6,-10.8008 -2.4,-8.3984 45.6,-27.6016" inkscape:connector-curvature="0" id="path62" style="stroke:#000000;stroke-width:8;stroke-miterlimit:4;stroke-dasharray:none;fill:none;stroke-opacity:1"/>
      <path d="m 1093.2,265.199 -27.6,-1.199 0,19.199 4.8,26.403 4.8,21.597 8.4,20.403 12,14.398 7.2,13.199 14.4,14.403 10.8,14.398 4.8,13.199 3.6,13.199 0,21.602 -4.8,10.801 -4.8,8.398 -7.2,7.199 -2.4,3.602 -15.6,1.199 -13.2,0 -13.2,-3.597 -9.6,-1.204 -6,-3.597 -7.2,-4.801 -4.8,-4.801 -6,-4.801 -6,-3.597 -9.6,-4.801 -4.8,-1.199 -4.8,-6 -6,-2.403 -1.2,-3.597 -2.4,-1.199 -1.2,-4.801 7.2,2.398 6,2.403 7.2,1.199 4.8,-1.199 6,0" inkscape:connector-curvature="0" id="path64" style="stroke:#000000;stroke-width:8;stroke-miterlimit:4;stroke-dasharray:none;fill:none;stroke-opacity:1"/>
      <path d="m 1010.4,436.801 7.2,-1.199 8.4,-4.801 4.8,-3.602 6,-4.801 4.8,-6 6,-7.199 4.8,-8.398 9.6,-7.199 8.4,-4.801 9.6,-6 7.2,-8.403 3.6,-6 1.2,-4.796" inkscape:connector-curvature="0" id="path66" style="stroke:#000000;stroke-width:8;stroke-miterlimit:4;stroke-dasharray:none;fill:none;stroke-opacity:1"/>
      <path d="m 1194,265.199 28.8,0 -3.6,111.602 -10.8,44.398 -14.4,25.199 -18,18 -19.2,13.204 -10.8,4.796 -10.8,1.204 -21.6,2.398" inkscape:connector-curvature="0" id="path68" style="stroke:#000000;stroke-width:8;stroke-miterlimit:4;stroke-dasharray:none;fill:none;stroke-opacity:1"/>
      <path d="m 1065.6,459.602 8.4,-4.801 4.8,4.801 -7.2,6 -4.8,-6" inkscape:connector-curvature="0" id="path70" style="stroke:#000000;stroke-width:8;stroke-miterlimit:4;stroke-dasharray:none;fill:none;stroke-opacity:1"/>
    </g>
  </g>
</svg>
