<?xml version="1.0" encoding="UTF-8"?>
<!-- Created with Inkscape (http://www.inkscape.org/) -->
<svg xmlns:dc="http://purl.org/dc/elements/1.1/" xmlns:cc="http://creativecommons.org/ns#" xmlns:rdf="http://www.w3.org/1999/02/22-rdf-syntax-ns#" xmlns:svg="http://www.w3.org/2000/svg" xmlns="http://www.w3.org/2000/svg" xmlns:inkscape="http://www.inkscape.org/namespaces/inkscape" version="1.1" width="765" height="990" id="svg2" xml:space="preserve">
  <metadata id="metadata8">
    <rdf:RDF>
      <cc:Work rdf:about="">
        <dc:format>image/svg+xml</dc:format>
        <dc:type rdf:resource="http://purl.org/dc/dcmitype/StillImage"/>
      </cc:Work>
    </rdf:RDF>
  </metadata>
  <defs id="defs6"/>
  <g transform="matrix(1.25,0,0,-1.25,0,990)" id="g10">
    <g transform="scale(0.1,0.1)" id="g12">
      <path d="m 14.3984,12 0,64.8008 117.6016,0 0,340.8012 132,0 0,217.199 70.801,0 0,-622.801 -320.4026,0" inkscape:connector-curvature="0" id="path14" style="stroke:#000000;stroke-width:8;stroke-miterlimit:4;stroke-dasharray:none;fill:none;stroke-opacity:1"/>
      <path d="m 788.398,476.398 -326.398,0 4.801,27.602 4.801,18 6,18 9.597,13.199 8.403,13.199 10.796,15.602 13.204,10.801 14.398,10.801 13.199,8.398 18,8.398 18,4.801 12,3.602 21.602,2.398 16.801,0 15.597,-2.398 L 666,625.199 682.801,621.602 696,618 712.801,606 726,596.398 739.199,586.801 750,573.602 760.801,558 l 9.597,-14.398 7.204,-14.403 6,-20.398 3.597,-15.602 1.199,-16.801" inkscape:connector-curvature="0" id="path16" style="stroke:#000000;stroke-width:8;stroke-miterlimit:4;stroke-dasharray:none;fill:none;stroke-opacity:1"/>
      <path d="m 510,282 -7.199,-9.602 -3.602,-9.597 -3.597,-12 0,-26.403 1.199,-15.597 3.597,-15.602 2.403,-13.199 4.801,-14.398 7.199,-19.204 6,-19.199 18,-31.199 10.801,-13.1992 14.398,-18 L 580.801,50.3984 595.199,39.6016 609.602,30 624,24 637.199,20.3984 650.398,18 l 13.204,-3.6016 25.199,0 9.597,4.8008 12,3.6016 10.801,6 10.801,4.8008 9.602,8.3984 7.199,8.3984 7.199,8.4024 3.602,10.8008 7.199,13.1992 1.199,8.3984 2.398,14.4028 -1.199,12 L 768,132 l -3.602,12 -6,14.398 -7.199,14.403 -9.597,14.398 -10.801,14.403 -10.801,12 -12,12 -13.199,12 -15.602,8.398 -14.398,12 -20.403,10.801 -15.597,8.398 -18,6 -19.199,4.801 -16.801,3.602 -15.602,2.398 -10.801,0 -12,-2.398 -7.199,-1.204 -8.398,-1.199 L 510,282" inkscape:connector-curvature="0" id="path18" style="stroke:#000000;stroke-width:8;stroke-miterlimit:4;stroke-dasharray:none;fill:none;stroke-opacity:1"/>
      <path d="m 1117.2,270 4.8,-82.801 -7.2,-85.199 -14.4,-58.8008 45.6,-30 L 856.801,12 l 57.597,31.1992 -40.796,155.9998 -2.403,20.403 2.403,16.796 8.398,10.801 8.398,4.801 8.403,1.199 7.199,0 8.398,-4.801 6,-2.398 78,-86.398 2.402,43.199 6,31.199 1.2,25.199 3.6,38.403 -9.6,6 -4.801,6 -4.801,7.199 -2.398,4.801 1.199,7.199 2.403,9.597 6,10.801 11.998,13.199 10.8,15.602 12,14.398 9.6,15.602 6,8.398 0,18 -4.8,7.204 -37.2,4.796 -4.8,25.204 -9.598,14.398 -2.403,6 8.403,10.801 3.598,8.398 8.4,18 74.4,0 12,-3.597 2.4,-13.204 -4.8,-8.398 -9.6,-8.398 -4.8,-9.602 -1.2,-7.199 -1.2,-207.602 88.8,-1.199 -7.2,234 -4.8,20.398 -4.8,14.403 -7.2,12 -7.2,9.597 -10.8,10.801 -8.4,3.602 -6,3.597 -12,3.602 -10.8,1.199 -9.6,1.199 -14.4,-1.199 -9.6,-1.199 -8.4,-6 -4.8,-1.199 -8.4,-8.403 -12,-9.597 -4.8,-10.801 -1.2,-9.602 -3.6,-6" inkscape:connector-curvature="0" id="path20" style="stroke:#000000;stroke-width:8;stroke-miterlimit:4;stroke-dasharray:none;fill:none;stroke-opacity:1"/>
      <path d="m 1027.2,495.602 22.8,2.398 -7.2,7.199 -8.4,0 -7.2,-7.199" inkscape:connector-curvature="0" id="path22" style="stroke:#000000;stroke-width:8;stroke-miterlimit:4;stroke-dasharray:none;fill:none;stroke-opacity:1"/>
      <path d="m 1058.4,578.398 2.4,13.204 -2.4,13.199 -7.2,14.398 -12,15.602 105.6,0 L 1128,612 l -4.8,-10.801 -1.2,-10.801 2.4,-18" inkscape:connector-curvature="0" id="path24" style="stroke:#000000;stroke-width:8;stroke-miterlimit:4;stroke-dasharray:none;fill:none;stroke-opacity:1"/>
    </g>
  </g>
</svg>
