<?xml version="1.0" encoding="UTF-8"?>
<!-- Created with Inkscape (http://www.inkscape.org/) -->
<svg xmlns:dc="http://purl.org/dc/elements/1.1/" xmlns:cc="http://creativecommons.org/ns#" xmlns:rdf="http://www.w3.org/1999/02/22-rdf-syntax-ns#" xmlns:svg="http://www.w3.org/2000/svg" xmlns="http://www.w3.org/2000/svg" xmlns:inkscape="http://www.inkscape.org/namespaces/inkscape" version="1.1" width="765" height="990" id="svg2" xml:space="preserve">
  <metadata id="metadata8">
    <rdf:RDF>
      <cc:Work rdf:about="">
        <dc:format>image/svg+xml</dc:format>
        <dc:type rdf:resource="http://purl.org/dc/dcmitype/StillImage"/>
      </cc:Work>
    </rdf:RDF>
  </metadata>
  <defs id="defs6"/>
  <g transform="matrix(1.25,0,0,-1.25,0,990)" id="g10">
    <g transform="scale(0.1,0.1)" id="g12">
      <path d="m 340.801,877.199 0,-860.3982 67.199,0 0,860.3982" inkscape:connector-curvature="0" id="path14" style="stroke:#000000;stroke-width:8;stroke-miterlimit:4;stroke-dasharray:none;fill:none;stroke-opacity:1"/>
      <path d="m 14.3984,880.801 718.8006,0 0,226.799 -13.199,25.2 -12,16.8 -32.398,0 -19.204,-3.6 -19.199,-13.2 -63.597,-57.6 -57.602,-50.4 -44.398,-22.8 -54,-13.199 -45.602,-3.602 -40.801,3.602 -54,13.199 -45.597,22.8 -57.602,50.4 -63.602,57.6 -19.1988,13.2 -19.1992,3.6 -32.3984,0 -13.2032,-16.8 -12,-25.2 0,-226.799" inkscape:connector-curvature="0" id="path16" style="stroke:#000000;stroke-width:8;stroke-miterlimit:4;stroke-dasharray:none;fill:none;stroke-opacity:1"/>
      <path d="m 506.398,1024.8 -57.597,376.8 -25.199,32.4 -19.204,12 -25.199,9.6 -9.597,0 -26.403,-9.6 -18,-12 -26.398,-32.4 -57.602,-376.8" inkscape:connector-curvature="0" id="path18" style="stroke:#000000;stroke-width:8;stroke-miterlimit:4;stroke-dasharray:none;fill:none;stroke-opacity:1"/>
      <path d="m 1057.2,1011.6 -39.6,-19.202 -27.6,-34.796 -9.602,-28.801 -6,-28.801 8.403,-44.398 22.799,-28.801 22.8,-20.403 38.4,-12 27.6,-9.597 36,0 38.4,15.597 31.2,16.801 19.2,22.801 22.8,31.199 15.6,38.403 10.8,31.199 2.4,32.398 -2.4,22.801 -7.2,38.4 -15.6,32.4 -26.4,31.2 -25.2,22.8 -22.8,9.6 -21.6,9.6 -32.4,3.6 -25.2,2.4 -32.4,0 -38.4,-2.4 -40.802,-13.2 -36,-19.2 -21.597,-19.2 -25.199,-22.8 -20.403,-22.8 -19.199,-34.8 -19.199,-34.799 -6,-31.199 -6,-45.602 -3.602,-44.398 3.602,-36 2.398,-50.403 20.403,-51.597 L 877.199,660 928.801,592.801 1009.2,516 l 114,-92.398 249.6,-140.403" inkscape:connector-curvature="0" id="path20" style="stroke:#000000;stroke-width:8;stroke-miterlimit:4;stroke-dasharray:none;fill:none;stroke-opacity:1"/>
      <path d="m 2182.8,1472.4 -15.6,-322.8 -6,-274.799 -7.2,-211.199 -15.6,-150 -13.2,-144 7.2,-153.602 9.6,-48 6,-38.398 -3.6,-38.4028 L 2125.2,66 l -28.8,-20.3984 -34.8,-6 -63.6,16.7968 -25.2,19.2032 -42,9.5976 -96,-48 -396,2.4024 -15.6,51.5976 12,25.1988 36,7.204 136.8,27.597 115.2,58.801 76.8,28.801 67.2,15.597 46.8,42 16.8,40.801 3.6,45.602 -7.2,67.199 -2.4,88.801 -7.2,243.597 -3.6,242.402 -25.2,451.2 294,0" inkscape:connector-curvature="0" id="path22" style="stroke:#000000;stroke-width:8;stroke-miterlimit:4;stroke-dasharray:none;fill:none;stroke-opacity:1"/>
    </g>
  </g>
</svg>
