<?xml version="1.0" encoding="UTF-8"?>
<!-- Created with Inkscape (http://www.inkscape.org/) -->
<svg xmlns:dc="http://purl.org/dc/elements/1.1/" xmlns:cc="http://creativecommons.org/ns#" xmlns:rdf="http://www.w3.org/1999/02/22-rdf-syntax-ns#" xmlns:svg="http://www.w3.org/2000/svg" xmlns="http://www.w3.org/2000/svg" xmlns:inkscape="http://www.inkscape.org/namespaces/inkscape" version="1.1" width="765" height="990" id="svg2" xml:space="preserve">
  <metadata id="metadata8">
    <rdf:RDF>
      <cc:Work rdf:about="">
        <dc:format>image/svg+xml</dc:format>
        <dc:type rdf:resource="http://purl.org/dc/dcmitype/StillImage"/>
      </cc:Work>
    </rdf:RDF>
  </metadata>
  <defs id="defs6"/>
  <g transform="matrix(1.25,0,0,-1.25,0,990)" id="g10">
    <g transform="scale(0.1,0.1)" id="g12">
      <path d="m 711.602,1071.6 -70.801,6 -111.602,-6 -82.801,8.4 -26.398,-8.4 -19.199,-26.4 7.199,-44.4 31.199,-103.198 61.199,-98.403 198,-236.398 102,-96 147.602,-138 313.2,-307.1994 32.4,0 8.4,16.7968 -12,28.8008 -134.4,307.1988 -19.2,57.602 -102,246 -92.4,159.602 -74.398,102 -54,74.398 -44.403,69.6 -49.199,64.8 -56.398,66 -57.602,39.6 -16.801,66 -12,74.4 -19.199,48 -55.199,12 -88.801,0 -99.602,-3.6 -48,-12 -21.597,-7.2 -163.1994,-21.6 -48,-22.8 L 18,1365.6 14.3984,1320 33.6016,1352.4 66,1368 l 94.801,0 99.597,-2.4 51.602,-13.2 -42,50.4 -9.602,36" inkscape:connector-curvature="0" id="path14" style="stroke:#000000;stroke-width:8;stroke-miterlimit:4;stroke-dasharray:none;fill:none;stroke-opacity:1"/>
      <path d="m 366,1371.6 9.602,2.4 6,16.8 -6,15.6 -13.204,9.6 -13.199,-9.6 -2.398,-19.2 7.199,-9.6 8.398,-6" inkscape:connector-curvature="0" id="path16" style="stroke:#000000;stroke-width:8;stroke-miterlimit:4;stroke-dasharray:none;fill:none;stroke-opacity:1"/>
      <path d="m 30,1339.2 128.398,3.6 98.403,-13.2 28.801,-15.6 9.597,-32.4 3.602,-34.8 -28.801,-69.6 -13.199,-87.6 16.801,-105.6 12,-46.801 34.796,-96 42,-76.801 L 462,594 592.801,344.398 606,249.602 589.199,86.3984 573.602,69.6016 481.199,61.1992 372,63.6016 366,48 l -48,-7.1992 -6,-8.4024 8.398,-13.1992 276,9.6016 284.403,-13.1992 13.199,13.1992 -7.199,15.5976 -44.403,0 L 817.199,67.1992 654,69.6016 634.801,82.8008 654,284.398 l 117.602,-61.199 67.199,198 L 967.199,102 1011.6,44.3984 1056,19.1992 l 68.4,0 37.2,13.1992 9.6,18 L 1140,138" inkscape:connector-curvature="0" id="path18" style="stroke:#000000;stroke-width:8;stroke-miterlimit:4;stroke-dasharray:none;fill:none;stroke-opacity:1"/>
      <path d="m 346.801,786 42,-232.801 L 385.199,374.398 354,192 325.199,98.3984 304.801,76.8008 151.199,67.1992 135.602,44.3984 100.801,40.8008 87.6016,32.3984 100.801,19.1992 l 118.801,9.6016 34.796,-3.6016" inkscape:connector-curvature="0" id="path20" style="stroke:#000000;stroke-width:8;stroke-miterlimit:4;stroke-dasharray:none;fill:none;stroke-opacity:1"/>
      <path d="m 369.602,63.6016 -55.204,-6 0,0 L 283.199,50.3984 264,25.1992 l 13.199,-6 18,19.1992 19.199,2.4024" inkscape:connector-curvature="0" id="path22" style="stroke:#000000;stroke-width:8;stroke-miterlimit:4;stroke-dasharray:none;fill:none;stroke-opacity:1"/>
      <path d="m 366,67.1992 70.801,261.6018 108,-63.602 L 567.602,384" inkscape:connector-curvature="0" id="path24" style="stroke:#000000;stroke-width:8;stroke-miterlimit:4;stroke-dasharray:none;fill:none;stroke-opacity:1"/>
      <path d="m 142.801,63.6016 -51.6018,-6 0,0 -32.3984,-7.2032 -19.1992,-25.1992 9.5976,-6 L 72,38.3984 97.1992,40.8008" inkscape:connector-curvature="0" id="path26" style="stroke:#000000;stroke-width:8;stroke-miterlimit:4;stroke-dasharray:none;fill:none;stroke-opacity:1"/>
      <path d="m 823.199,67.1992 61.199,-6 28.801,-10.8008 18,-25.1992 -8.398,-6 L 900,38.3984 884.398,40.8008" inkscape:connector-curvature="0" id="path28" style="stroke:#000000;stroke-width:8;stroke-miterlimit:4;stroke-dasharray:none;fill:none;stroke-opacity:1"/>
      <path d="m 1522.8,1484.4 511.2,0 0,-511.201 -511.2,0 0,511.201" inkscape:connector-curvature="0" id="path30" style="stroke:#000000;stroke-width:8;stroke-miterlimit:4;stroke-dasharray:none;fill:none;stroke-opacity:1"/>
      <path d="m 2157.6,10.8008 -754.8,0 9.6,63.5976 9.6,41.9996 15.6,40.801 22.8,32.403 19.2,28.796 25.2,34.801 28.8,26.403 36,25.199 27.6,19.199 42,19.199 42,13.199 28.8,6 50.4,6 39.6,0 34.8,-6 38.4,-6 40.8,-10.796 28.8,-8.403 38.4,-26.398 32.4,-22.801 28.8,-21.602 25.2,-32.398 26.4,-34.801 21.6,-34.801 15.6,-32.398 13.2,-48 9.6,-34.8008 3.6,-38.3984" inkscape:connector-curvature="0" id="path32" style="stroke:#000000;stroke-width:8;stroke-miterlimit:4;stroke-dasharray:none;fill:none;stroke-opacity:1"/>
      <path d="m 2760,873.602 -31.2,-16.801 -32.4,-19.199 -22.8,-25.204 -9.6,-32.398 0,-40.801 22.8,-45.597 54,-54 64.8,-40.801 236.4,-80.403 300,-44.398 194.4,-7.199 176.4,26.398 -240,98.403 L 3249.6,732 3073.2,837.602 2852.4,914.398 2689.2,930 l -25.2,22.801 -6,42 80.4,163.199 31.2,108 -3.6,55.2 -8.4,54 -22.8,38.4 -32.4,31.2 -50.4,19.2 -45.6,0 -48,-6 -66,-54 -42,-54 -22.8,-19.2 -159.6,-57.6 -15.6,-28.8 171.6,19.2" inkscape:connector-curvature="0" id="path34" style="stroke:#000000;stroke-width:8;stroke-miterlimit:4;stroke-dasharray:none;fill:none;stroke-opacity:1"/>
      <path d="m 2443.2,1339.2 3.6,-66 22.8,-39.6" inkscape:connector-curvature="0" id="path36" style="stroke:#000000;stroke-width:8;stroke-miterlimit:4;stroke-dasharray:none;fill:none;stroke-opacity:1"/>
      <path d="m 2596.8,1339.2 9.6,10.8 3.6,12 -6,9.6 -16.8,3.6 -9.6,-6 0,-19.2 13.2,-10.8" inkscape:connector-curvature="0" id="path38" style="stroke:#000000;stroke-width:8;stroke-miterlimit:4;stroke-dasharray:none;fill:none;stroke-opacity:1"/>
      <path d="m 2264.4,1240.8 13.2,-15.6 117.6,6 76.8,-3.6 122.4,-22.8 40.8,4.8 -31.2,-58.8 -90,-127.2 L 2437.2,914.398 2421.6,870 2418,825.602 2424,768 2452.8,710.398 2575.2,588 l 169.2,-134.398 96,-48 150,-34.801 102,-22.801 61.2,-44.398 22.8,-69.602 -3.6,-109.199 -19.2,-15.602 -136.8,0 -42,-7.199 -3.6,-19.1992" inkscape:connector-curvature="0" id="path40" style="stroke:#000000;stroke-width:8;stroke-miterlimit:4;stroke-dasharray:none;fill:none;stroke-opacity:1"/>
      <path d="m 2971.2,99.6016 -25.2,-16.8008 25.2,3.5976" inkscape:connector-curvature="0" id="path42" style="stroke:#000000;stroke-width:8;stroke-miterlimit:4;stroke-dasharray:none;fill:none;stroke-opacity:1"/>
      <path d="m 3054,86.3984 -85.2,-6 L 2946,73.1992 2948.4,54 3067.2,64.8008" inkscape:connector-curvature="0" id="path44" style="stroke:#000000;stroke-width:8;stroke-miterlimit:4;stroke-dasharray:none;fill:none;stroke-opacity:1"/>
      <path d="M 2942.4,70.8008 2923.2,54 2946,54" inkscape:connector-curvature="0" id="path46" style="stroke:#000000;stroke-width:8;stroke-miterlimit:4;stroke-dasharray:none;fill:none;stroke-opacity:1"/>
      <path d="M 3096,64.8008 3042,54 l 9.6,-19.1992 69.6,16.8008 80.4,0 19.2,2.3984 9.6,26.3984 0,89.9996 12,82.801 7.2,94.801 -36,55.199" inkscape:connector-curvature="0" id="path48" style="stroke:#000000;stroke-width:8;stroke-miterlimit:4;stroke-dasharray:none;fill:none;stroke-opacity:1"/>
      <path d="m 3032.4,48 -20.4,-19.1992 30,6" inkscape:connector-curvature="0" id="path50" style="stroke:#000000;stroke-width:8;stroke-miterlimit:4;stroke-dasharray:none;fill:none;stroke-opacity:1"/>
      <path d="m 3252,355.199 74.4,-13.199 92.4,0 82.8,16.801 157.2,-28.801 44.4,-3.602 48,6 51.6,28.801 -282,105.602" inkscape:connector-curvature="0" id="path52" style="stroke:#000000;stroke-width:8;stroke-miterlimit:4;stroke-dasharray:none;fill:none;stroke-opacity:1"/>
      <path d="m 2834.4,412.801 34.8,-57.602 6,-67.199 -22.8,-115.199 -28.8,-67.199 -94.8,-6.0004 -74.4,0 L 2604,90 2600.4,64.8008" inkscape:connector-curvature="0" id="path54" style="stroke:#000000;stroke-width:8;stroke-miterlimit:4;stroke-dasharray:none;fill:none;stroke-opacity:1"/>
      <path d="m 2604,82.8008 -28.8,-15.6016 25.2,0" inkscape:connector-curvature="0" id="path56" style="stroke:#000000;stroke-width:8;stroke-miterlimit:4;stroke-dasharray:none;fill:none;stroke-opacity:1"/>
      <path d="m 2722.8,80.3984 -105.6,-7.1992 -22.8,-8.3984 6,-19.1992 130.8,6 -38.4,-13.2032 19.2,-9.5976 103.2,16.8008 34.8,0 9.6,8.3984 15.6,61.199 51.6,140.403 67.2,112.796" inkscape:connector-curvature="0" id="path58" style="stroke:#000000;stroke-width:8;stroke-miterlimit:4;stroke-dasharray:none;fill:none;stroke-opacity:1"/>
      <path d="m 2596.8,61.1992 -21.6,-26.3984 21.6,10.8008" inkscape:connector-curvature="0" id="path60" style="stroke:#000000;stroke-width:8;stroke-miterlimit:4;stroke-dasharray:none;fill:none;stroke-opacity:1"/>
      <path d="m 2689.2,38.3984 -18,-13.1992 38.4,0" inkscape:connector-curvature="0" id="path62" style="stroke:#000000;stroke-width:8;stroke-miterlimit:4;stroke-dasharray:none;fill:none;stroke-opacity:1"/>
    </g>
  </g>
</svg>
