<?xml version="1.0" encoding="UTF-8"?>
<!-- Created with Inkscape (http://www.inkscape.org/) -->
<svg xmlns:dc="http://purl.org/dc/elements/1.1/" xmlns:cc="http://creativecommons.org/ns#" xmlns:rdf="http://www.w3.org/1999/02/22-rdf-syntax-ns#" xmlns:svg="http://www.w3.org/2000/svg" xmlns="http://www.w3.org/2000/svg" xmlns:inkscape="http://www.inkscape.org/namespaces/inkscape" version="1.1" width="765" height="990" id="svg2" xml:space="preserve">
  <metadata id="metadata8">
    <rdf:RDF>
      <cc:Work rdf:about="">
        <dc:format>image/svg+xml</dc:format>
        <dc:type rdf:resource="http://purl.org/dc/dcmitype/StillImage"/>
      </cc:Work>
    </rdf:RDF>
  </metadata>
  <defs id="defs6"/>
  <g transform="matrix(1.25,0,0,-1.25,0,990)" id="g10">
    <g transform="scale(0.1,0.1)" id="g12">
      <path d="m 306,955.199 741.6,0 0,-30 30,-4.801 45.6,-14.398 32.4,-19.199 40.8,-30 37.2,-38.403 33.6,-46.796 25.2,-46.801 21.6,-57.602 14.4,-58.801 7.2,-98.398 -7.2,-50.398 -22.8,-58.801 -26.4,-27.602 -21.6,-4.801 -34.8,2.403 -26.4,22.801 -12,26.398 -4.8,28.801 -2.4,22.801 7.2,75.597 9.6,82.801 -7.2,85.199 -21.6,61.199 -32.4,49.204 -31.2,37.199 -37.2,13.199 -16.8,0 0,-26.398 -97.202,0 0,-51.602 -144,0 0,51.602 -264,0 0,-51.602 -139.199,0 0,51.602 -97.199,0" inkscape:connector-curvature="0" id="path14" style="stroke:#000000;stroke-width:8;stroke-miterlimit:4;stroke-dasharray:none;fill:none;stroke-opacity:1"/>
      <path d="m 349.199,955.199 96,466.801 16.801,28.8 12,9.6 14.398,4.8 22.801,0 21.602,-12 4.801,-14.4 0,-16.8" inkscape:connector-curvature="0" id="path16" style="stroke:#000000;stroke-width:8;stroke-miterlimit:4;stroke-dasharray:none;fill:none;stroke-opacity:1"/>
      <path d="M 442.801,955.199 540,1424.4 l 13.199,21.6 10.801,12 22.801,4.8 21.597,-7.2 12,-9.6 7.204,-15.6" inkscape:connector-curvature="0" id="path18" style="stroke:#000000;stroke-width:8;stroke-miterlimit:4;stroke-dasharray:none;fill:none;stroke-opacity:1"/>
      <path d="M 530.398,955.199 625.199,1422 636,1443.6 l 16.801,14.4 19.199,2.4 21.602,-2.4 18,-14.4 4.796,-19.2" inkscape:connector-curvature="0" id="path20" style="stroke:#000000;stroke-width:8;stroke-miterlimit:4;stroke-dasharray:none;fill:none;stroke-opacity:1"/>
      <path d="m 618,955.199 96,460.801 14.398,27.6 16.801,14.4 28.801,2.4 10.801,-2.4 14.398,-9.6 7.199,-24" inkscape:connector-curvature="0" id="path22" style="stroke:#000000;stroke-width:8;stroke-miterlimit:4;stroke-dasharray:none;fill:none;stroke-opacity:1"/>
      <path d="M 711.602,955.199 804,1413.6 l 9.602,25.2 9.597,14.4 22.801,9.6 26.398,-4.8 19.204,-12 7.199,-16.8" inkscape:connector-curvature="0" id="path24" style="stroke:#000000;stroke-width:8;stroke-miterlimit:4;stroke-dasharray:none;fill:none;stroke-opacity:1"/>
      <path d="M 806.398,955.199 894,1411.2 l 7.199,25.2 14.403,19.2 25.199,4.8 4.801,2.4 21.597,-9.6 14.403,-14.4 0,-14.4" inkscape:connector-curvature="0" id="path26" style="stroke:#000000;stroke-width:8;stroke-miterlimit:4;stroke-dasharray:none;fill:none;stroke-opacity:1"/>
      <path d="m 889.199,955.199 92.403,471.601 9.597,19.2 13.201,12 14.4,2.4 21.6,0 19.2,-7.2 9.6,-14.4 4.8,-25.2 L 979.199,955.199 306,955.199 306,924 271.199,918 225.602,903.602 190.801,884.398 152.398,852 115.199,813.602 60,717.602 42,661.199 25.1992,603.602 18,505.199 25.1992,453.602 50.3984,398.398 76.8008,370.801 96,367.199 l 34.801,1.199 28.801,22.801 9.597,26.403 4.801,28.796 2.398,22.801 -7.199,75.602 -12,82.801 7.199,82.796 20.403,61.204 31.199,51.597 31.199,36 34.801,14.403 24,2.398 0,-21.602" inkscape:connector-curvature="0" id="path28" style="stroke:#000000;stroke-width:8;stroke-miterlimit:4;stroke-dasharray:none;fill:none;stroke-opacity:1"/>
      <path d="m 2577.6,804 -727.2,0 -44.4,-15.602 -43.2,-10.796 -44.4,-4.801 -50.4,0 -51.6,13.199 -25.2,10.801 -16.8,7.199 -44.4,30 -13.2,18 -3.6,21.602 21.6,8.398 26.4,-13.199 43.2,-27.602 31.2,-12 45.6,-8.398 28.8,0 31.2,4.801 34.8,13.199 -9.6,16.801 -16.8,0 -42,-3.602 -42,3.602 -30,18 13.2,24 30,-10.801 26.4,0 26.4,3.597 24,4.801 24,0 32.4,-8.398 36,-21.602 114,16.801 85.2,13.199 87.6,4.801 98.4,-4.801 81.6,-4.801 69.6,-6 43.2,-2.398 22.8,315.6 104.4,0 24,-393.6" inkscape:connector-curvature="0" id="path30" style="stroke:#000000;stroke-width:8;stroke-miterlimit:4;stroke-dasharray:none;fill:none;stroke-opacity:1"/>
      <path d="m 2005.2,1455.6 0,-394.8 87.6,0 0,394.8 -87.6,0" inkscape:connector-curvature="0" id="path32" style="stroke:#000000;stroke-width:8;stroke-miterlimit:4;stroke-dasharray:none;fill:none;stroke-opacity:1"/>
      <path d="m 931.199,38.3984 -3.597,6 L 918,55.1992 888,70.8008 865.199,91.1992 846,114 l -13.199,22.801 -19.199,32.398 -9.602,45.602 2.398,52.801 7.204,48 9.597,56.398 3.602,55.199 -7.199,49.199 L 810,508.801 800.398,528 787.199,543.602 774,560.398 l -13.199,13.204 -19.199,13.199 -13.204,9.597 -19.199,6 -22.801,7.204 -16.796,3.597 -22.801,0 -19.199,-3.597 -19.204,-7.204 -16.796,-8.398 -19.204,-13.199 -26.398,-30 -9.602,-19.199 -13.199,-30 -6,-25.204 -3.597,-37.199 0,-28.801 6,-36 7.199,-28.796 6,-26.403 26.398,-58.801 L 582,228 608.398,192 643.199,156 682.801,120 726,87.6016 l 54,-32.4024 50.398,-16.8008 28.801,-6 26.403,-7.1992 25.199,0 16.801,3.6016 3.597,9.5976" inkscape:connector-curvature="0" id="path34" style="stroke:#000000;stroke-width:8;stroke-miterlimit:4;stroke-dasharray:none;fill:none;stroke-opacity:1"/>
      <path d="m 2540.4,536.398 21.6,4.801 18,10.801 13.2,20.398 3.6,16.801 2.4,36 -6,16.801 -13.2,21.602 -13.2,9.597 -13.2,8.403 -32.4,4.796 -909.6,0 -28.8,-4.796 -14.4,-4.801 -13.2,-8.403 L 1542,648 l -8.4,-32.398 8.4,-38.403 8.4,-13.199 18,-13.199 13.2,-9.602 21.6,-4.801 932.4,0" inkscape:connector-curvature="0" id="path36" style="stroke:#000000;stroke-width:8;stroke-miterlimit:4;stroke-dasharray:none;fill:none;stroke-opacity:1"/>
      <path d="m 1670.4,409.199 0,-393.5974 69.6,0 0,393.5974 -69.6,0" inkscape:connector-curvature="0" id="path38" style="stroke:#000000;stroke-width:8;stroke-miterlimit:4;stroke-dasharray:none;fill:none;stroke-opacity:1"/>
      <path d="m 2020.8,409.199 0,-393.5974 72,0 0,393.5974 -72,0" inkscape:connector-curvature="0" id="path40" style="stroke:#000000;stroke-width:8;stroke-miterlimit:4;stroke-dasharray:none;fill:none;stroke-opacity:1"/>
      <path d="m 2374.8,409.199 0,-393.5974 70.8,0 0,393.5974 -70.8,0" inkscape:connector-curvature="0" id="path42" style="stroke:#000000;stroke-width:8;stroke-miterlimit:4;stroke-dasharray:none;fill:none;stroke-opacity:1"/>
    </g>
  </g>
</svg>
