<?xml version="1.0" encoding="UTF-8"?>
<!-- Created with Inkscape (http://www.inkscape.org/) -->
<svg xmlns:dc="http://purl.org/dc/elements/1.1/" xmlns:cc="http://creativecommons.org/ns#" xmlns:rdf="http://www.w3.org/1999/02/22-rdf-syntax-ns#" xmlns:svg="http://www.w3.org/2000/svg" xmlns="http://www.w3.org/2000/svg" xmlns:inkscape="http://www.inkscape.org/namespaces/inkscape" version="1.1" width="765" height="990" id="svg2" xml:space="preserve">
  <metadata id="metadata8">
    <rdf:RDF>
      <cc:Work rdf:about="">
        <dc:format>image/svg+xml</dc:format>
        <dc:type rdf:resource="http://purl.org/dc/dcmitype/StillImage"/>
      </cc:Work>
    </rdf:RDF>
  </metadata>
  <defs id="defs6"/>
  <g transform="matrix(1.25,0,0,-1.25,0,990)" id="g10">
    <g transform="scale(0.1,0.1)" id="g12">
      <path d="m 408,879.602 0,-864.0004 -67.199,0 0,864.0004" inkscape:connector-curvature="0" id="path14" style="stroke:#000000;stroke-width:8;stroke-miterlimit:4;stroke-dasharray:none;fill:none;stroke-opacity:1"/>
      <path d="m 733.199,879.602 -718.8006,0 0,226.798 12,25.2 13.2032,16.8 32.3984,0 19.1992,-3.6 19.1988,-13.2 63.602,-56.4 57.602,-51.6 44.398,-22.8 55.199,-11.999 44.403,-3.602 42,3.602 54,11.999 44.398,22.8 57.602,51.6 63.597,56.4 19.199,13.2 19.204,3.6 32.398,0 12,-16.8 13.199,-25.2 0,-226.798" inkscape:connector-curvature="0" id="path16" style="stroke:#000000;stroke-width:8;stroke-miterlimit:4;stroke-dasharray:none;fill:none;stroke-opacity:1"/>
      <path d="m 241.199,1023.6 57.602,376.8 25.199,32.4 19.199,13.2 25.199,9.6 10.801,0 25.199,-9.6 19.204,-13.2 25.199,-32.4 57.597,-376.8" inkscape:connector-curvature="0" id="path18" style="stroke:#000000;stroke-width:8;stroke-miterlimit:4;stroke-dasharray:none;fill:none;stroke-opacity:1"/>
      <path d="m 558,1087.2 -26.398,3.6 -15.602,13.2 -9.602,15.6 -6,15.6 2.403,28.8 13.199,19.2 15.602,9.6 26.398,7.2 25.199,-3.6 19.199,-13.2 12,-19.2 0,-40.8 -12,-16.8 -19.199,-15.6 -25.199,-3.6" inkscape:connector-curvature="0" id="path20" style="stroke:#000000;stroke-width:8;stroke-miterlimit:4;stroke-dasharray:none;fill:none;stroke-opacity:1"/>
      <path d="m 202.801,1090.8 -28.801,0 -28.801,15.6 -9.597,19.2 -3.602,15.6 7.199,28.8 21.602,22.8 13.199,7.2 22.801,0 22.801,-3.6 18,-13.2 9.597,-22.8 0,-19.2 -6,-25.2 -9.597,-15.6 -16.801,-6 -12,-3.6" inkscape:connector-curvature="0" id="path22" style="stroke:#000000;stroke-width:8;stroke-miterlimit:4;stroke-dasharray:none;fill:none;stroke-opacity:1"/>
      <path d="M 429.602,876 522,595.199 l 7.199,-28.801 0,-39.597 L 516,498 496.801,480 477.602,466.801 408,457.199" inkscape:connector-curvature="0" id="path24" style="stroke:#000000;stroke-width:8;stroke-miterlimit:4;stroke-dasharray:none;fill:none;stroke-opacity:1"/>
      <path d="m 340.801,457.199 -67.199,9.602 -32.403,22.801 L 222,526.801 222,572.398 320.398,876" inkscape:connector-curvature="0" id="path26" style="stroke:#000000;stroke-width:8;stroke-miterlimit:4;stroke-dasharray:none;fill:none;stroke-opacity:1"/>
      <path d="m 1134,255.602 415.2,399.597" inkscape:connector-curvature="0" id="path28" style="stroke:#000000;stroke-width:8;stroke-miterlimit:4;stroke-dasharray:none;fill:none;stroke-opacity:1"/>
      <path d="m 984,313.199 511.2,489.602" inkscape:connector-curvature="0" id="path30" style="stroke:#000000;stroke-width:8;stroke-miterlimit:4;stroke-dasharray:none;fill:none;stroke-opacity:1"/>
      <path d="M 884.398,418.801 1395.6,908.398" inkscape:connector-curvature="0" id="path32" style="stroke:#000000;stroke-width:8;stroke-miterlimit:4;stroke-dasharray:none;fill:none;stroke-opacity:1"/>
      <path d="M 834,568.801 1242,960" inkscape:connector-curvature="0" id="path34" style="stroke:#000000;stroke-width:8;stroke-miterlimit:4;stroke-dasharray:none;fill:none;stroke-opacity:1"/>
      <path d="m 1341.6,937.199 -34.8,9.602 -36,13.199 -37.2,6 -39.6,0 -40.8,-3.602 L 1118.4,960 1080,946.801 1044,933.602 1009.2,918 976.801,895.199 951.602,872.398 926.398,847.199 907.199,824.398 888,795.602 865.199,754.801 855.602,722.398 846,687.602 l -6,-34.801 -6,-42 0,-34.801 6,-42 9.602,-36 9.597,-31.199 L 874.801,432 884.398,412.801 897.602,396 928.801,361.199 961.199,328.801 990,307.199 l 34.8,-20.398 39.6,-18 37.2,-10.801 32.4,-8.398 38.4,0 38.4,-3.602 44.4,6 32.4,6 38.4,16.801 38.4,19.199 25.2,13.199 28.8,25.199 28.8,25.204 28.8,28.796 22.8,34.801 21.6,32.403 15.6,32.398 10.8,38.398 2.4,34.801 7.2,42 -3.6,34.801 -3.6,42 -9.6,34.801 -12,32.398 -16.8,42 -22.8,31.199 -21.6,25.204 -25.2,32.398 -32.4,22.801 -32.4,21.597 -34.8,16.801" inkscape:connector-curvature="0" id="path36" style="stroke:#000000;stroke-width:8;stroke-miterlimit:4;stroke-dasharray:none;fill:none;stroke-opacity:1"/>
      <path d="m 2383.2,1461.6 -15.6,-322.8 -6,-274.8 -7.2,-211.199 -15.6,-150 -13.2,-144 7.2,-153.602 9.6,-48 6,-38.398 -3.6,-38.4026 L 2325.6,54 l -28.8,-19.1992 -34.8,-6 -64.8,15.5976 -24,20.4024 -42,8.3984 -96,-48 -397.2,3.6016 -15.6,51.5976 13.2,25.2036 34.8,6 138,28.796 114,58.801 76.8,27.602 68.4,15.597 46.8,42 16.8,42 2.4,44.403 -6,67.199 -2.4,90 -7.2,242.398 -3.6,243.602 -25.2,451.2 294,0" inkscape:connector-curvature="0" id="path38" style="stroke:#000000;stroke-width:8;stroke-miterlimit:4;stroke-dasharray:none;fill:none;stroke-opacity:1"/>
    </g>
  </g>
</svg>
