<?xml version="1.0" encoding="UTF-8"?>
<!-- Created with Inkscape (http://www.inkscape.org/) -->
<svg xmlns:dc="http://purl.org/dc/elements/1.1/" xmlns:cc="http://creativecommons.org/ns#" xmlns:rdf="http://www.w3.org/1999/02/22-rdf-syntax-ns#" xmlns:svg="http://www.w3.org/2000/svg" xmlns="http://www.w3.org/2000/svg" xmlns:inkscape="http://www.inkscape.org/namespaces/inkscape" version="1.1" width="765" height="990" id="svg2" xml:space="preserve">
  <metadata id="metadata8">
    <rdf:RDF>
      <cc:Work rdf:about="">
        <dc:format>image/svg+xml</dc:format>
        <dc:type rdf:resource="http://purl.org/dc/dcmitype/StillImage"/>
      </cc:Work>
    </rdf:RDF>
  </metadata>
  <defs id="defs6"/>
  <g transform="matrix(1.25,0,0,-1.25,0,990)" id="g10">
    <g transform="scale(0.1,0.1)" id="g12">
      <path d="m 4208.4,1116 -98.4,19.2 -70.8,12 -51.6,20.4 -63.6,25.2 -67.2,31.2 -124.8,70.8 -127.2,70.8 -64.8,21.6 -76.8,28.8 -76.8,13.2 -57.6,13.2 -69.6,0 -70.8,-9.6 -70.8,-22.8 -69.6,-34.8 -76.8,-57.6 -51.6,-48 -50.4,-32.4 -42,-28.8 -34.8,-9.6 -38.4,-15.6 -38.4,-13.2 -63.6,-9.6" inkscape:connector-curvature="0" id="path14" style="stroke:#000000;stroke-width:8;stroke-miterlimit:4;stroke-dasharray:none;fill:none;stroke-opacity:1"/>
      <path d="m 2718,1173.6 55.2,0 48,2.4 48,-8.4 82.8,-20.4 64.8,-25.2 69.6,-15.6 76.8,-19.2 48,-9.6 86.4,-2.4 111.6,8.4 54,7.2 178.8,21.6 70.8,9.6 63.6,7.2 64.8,6 127.2,6 64.8,-6 54,-6 54,-7.2 28.8,0" inkscape:connector-curvature="0" id="path16" style="stroke:#000000;stroke-width:8;stroke-miterlimit:4;stroke-dasharray:none;fill:none;stroke-opacity:1"/>
      <path d="m 3102,1398 -21.6,-32.4 -7.2,-25.2 -9.6,-32.4 -2.4,-32.4 12,-57.6 19.2,-28.8 19.2,-28.8 32.4,-25.2 34.8,-19.2 73.2,-9.6 55.2,6 40.8,6 51.6,36 32.4,38.4 15.6,28.8 9.6,60 -6,58.8 -16.8,31.2 -15.6,26.4 -32.4,31.2" inkscape:connector-curvature="0" id="path18" style="stroke:#000000;stroke-width:8;stroke-miterlimit:4;stroke-dasharray:none;fill:none;stroke-opacity:1"/>
      <path d="m 4226.4,78 -99.6,20.3984 -69.6,13.2036 -51.6,18 -63.6,25.199 -67.2,32.398 L 3750,258 l -128.4,70.801 -63.6,21.597 -76.8,28.801 -76.8,13.199 -57.6,13.204 -69.6,0 -70.8,-10.801 -69.6,-21.602 -70.8,-36 -76.8,-56.398 -50.4,-49.199 -51.6,-31.204 -42,-28.796 -34.8,-9.602 -38.4,-15.602 -38.4,-13.199 -63.6,-9.597" inkscape:connector-curvature="0" id="path20" style="stroke:#000000;stroke-width:8;stroke-miterlimit:4;stroke-dasharray:none;fill:none;stroke-opacity:1"/>
      <path d="m 2737.2,135.602 54,0 48,3.597 48,-9.597 82.8,-18 63.6,-26.4028 70.8,-15.5976 76.8,-19.2032 48,-9.5976 86.4,-3.6016 111.6,9.6016 54,6 180,22.8008 69.6,9.5976 63.6,6 63.6,7.1992 128.4,5.9996 64.8,-5.9996 54,-7.1992 54,-6 28.8,0" inkscape:connector-curvature="0" id="path22" style="stroke:#000000;stroke-width:8;stroke-miterlimit:4;stroke-dasharray:none;fill:none;stroke-opacity:1"/>
      <path d="m 3120,360 -21.6,-31.199 -6,-26.403 -10.8,-31.199 -2.4,-32.398 13.2,-57.602 18,-28.801 19.2,-28.796 L 3162,98.3984 3196.8,78 l 73.2,-8.3984 55.2,6 40.8,6 51.6,36.0004 32.4,37.199 15.6,28.801 9.6,61.199 -6,57.597 -16.8,32.403 -15.6,25.199 -32.4,32.398" inkscape:connector-curvature="0" id="path24" style="stroke:#000000;stroke-width:8;stroke-miterlimit:4;stroke-dasharray:none;fill:none;stroke-opacity:1"/>
      <path d="m 457.199,502.801 182.403,0 L 636,570 l 18,86.398 18,52.801 37.199,81.602 L 876,1084.8 l 8.398,63.6 3.602,30 -6,55.2 -9.602,36 -15.597,45.6 -26.403,43.2 -21.597,24 -54,51.6 -43.199,14.4 -87.602,9.6 -73.199,-9.6 -30,-12 -36,-24 -33.602,-36 -15.597,-21.6 -14.403,-18" inkscape:connector-curvature="0" id="path26" style="stroke:#000000;stroke-width:8;stroke-miterlimit:4;stroke-dasharray:none;fill:none;stroke-opacity:1"/>
      <path d="M 411.602,1334.4 385.199,1321.2 86.3984,1263.6 60,1243.2 l -21.6016,-15.6 -18,-33.6 -6,-48 3.6016,-13.2 8.3984,-6 6,0 15.6016,6 6,27.6 18,27.6 27.6016,24 30.0004,9.6 39.597,12 246,33.6 6,2.4 36,-6" inkscape:connector-curvature="0" id="path28" style="stroke:#000000;stroke-width:8;stroke-miterlimit:4;stroke-dasharray:none;fill:none;stroke-opacity:1"/>
      <path d="m 415.199,1334.4 42,-73.2 0,-39.6" inkscape:connector-curvature="0" id="path30" style="stroke:#000000;stroke-width:8;stroke-miterlimit:4;stroke-dasharray:none;fill:none;stroke-opacity:1"/>
      <path d="m 60,1164 26.3984,18 45.6016,12 118.801,12 118.801,15.6 91.199,0 24,-3.6 48,-12 85.199,-15.6 45.602,-2.4 33.597,2.4 36,9.6 21.602,-12 8.398,-15.6 3.602,-36 -3.602,-30 -14.398,-37.2 L 615.602,894 548.398,787.199 l -27.597,-54 -33.602,-63.597 -18,-81.602 -12,-85.199" inkscape:connector-curvature="0" id="path32" style="stroke:#000000;stroke-width:8;stroke-miterlimit:4;stroke-dasharray:none;fill:none;stroke-opacity:1"/>
      <path d="M 717.602,1446 876,1388.4 l 154.8,-39.6 63.6,-12 54,-2.4 67.2,0 72,2.4 55.2,12 54,12 7.2,-6 -7.2,-20.4 -20.4,-15.6 -73.2,-15.6 -72,-8.4 -82.8,0 -69.6,4.8 -117.601,21.6 -67.199,21.6" inkscape:connector-curvature="0" id="path34" style="stroke:#000000;stroke-width:8;stroke-miterlimit:4;stroke-dasharray:none;fill:none;stroke-opacity:1"/>
      <path d="m 808.801,1388.4 118.801,-63.6 118.798,-61.2 72,-36 55.2,-21.6 60,-15.6 43.2,-4.8 78,-9.6 33.6,6 15.6,3.6 12,-9.6 2.4,-18 -45.6,-15.6 -54,-6 -61.2,9.6 -84,18 -73.2,24 -69.6,33.6 -170.402,97.2" inkscape:connector-curvature="0" id="path36" style="stroke:#000000;stroke-width:8;stroke-miterlimit:4;stroke-dasharray:none;fill:none;stroke-opacity:1"/>
      <path d="m 554.398,1370.4 -19.199,-3.6 -14.398,-18 0,-21.6 14.398,-14.4 21.602,0 21.597,8.4 2.403,13.2 -4.801,18 -15.602,18" inkscape:connector-curvature="0" id="path38" style="stroke:#000000;stroke-width:8;stroke-miterlimit:4;stroke-dasharray:none;fill:none;stroke-opacity:1"/>
      <path d="m 1612.8,596.398 255.6,-574.7964 127.2,0 -254.4,574.7964 -128.4,0" inkscape:connector-curvature="0" id="path40" style="stroke:#000000;stroke-width:8;stroke-miterlimit:4;stroke-dasharray:none;fill:none;stroke-opacity:1"/>
      <path d="m 1999.2,596.398 255.6,-574.7964 128.4,0 -255.6,574.7964 -128.4,0" inkscape:connector-curvature="0" id="path42" style="stroke:#000000;stroke-width:8;stroke-miterlimit:4;stroke-dasharray:none;fill:none;stroke-opacity:1"/>
      <path d="m 910.801,19.1992 -716.403,0 9.602,61.1992 8.398,38.4026 15.602,39.597 21.602,31.204 18,26.398 24,33.602 27.597,24 33.602,25.199 26.398,18 39.602,18 39.597,12 27.602,6 48,6 37.199,0 32.403,-6 36,-6 40.796,-9.602 26.403,-8.398 37.199,-24 30,-21.602 27.602,-21.597 24,-30 24,-33.602 21.597,-33.602 14.403,-30 12,-45.5972 9.597,-33.6016 3.602,-36" inkscape:connector-curvature="0" id="path44" style="stroke:#000000;stroke-width:8;stroke-miterlimit:4;stroke-dasharray:none;fill:none;stroke-opacity:1"/>
      <path d="M 1923.6,746.398 2338.8,1146" inkscape:connector-curvature="0" id="path46" style="stroke:#000000;stroke-width:8;stroke-miterlimit:4;stroke-dasharray:none;fill:none;stroke-opacity:1"/>
      <path d="m 1773.6,804 511.2,489.6" inkscape:connector-curvature="0" id="path48" style="stroke:#000000;stroke-width:8;stroke-miterlimit:4;stroke-dasharray:none;fill:none;stroke-opacity:1"/>
      <path d="M 1674,909.602 2185.2,1399.2" inkscape:connector-curvature="0" id="path50" style="stroke:#000000;stroke-width:8;stroke-miterlimit:4;stroke-dasharray:none;fill:none;stroke-opacity:1"/>
      <path d="m 1622.4,1059.6 409.2,390" inkscape:connector-curvature="0" id="path52" style="stroke:#000000;stroke-width:8;stroke-miterlimit:4;stroke-dasharray:none;fill:none;stroke-opacity:1"/>
      <path d="m 2131.2,1428 -34.8,8.4 -36,13.2 -38.4,7.2 -38.4,0 -40.8,-3.6 -34.8,-3.6 -39.6,-13.2 -34.8,-12 -34.8,-16.8 -32.4,-21.6 -25.2,-22.8 -26.4,-25.2 -18,-22.8 -19.2,-28.8 -22.8,-40.8 -9.6,-32.4 -9.6,-36 -6,-34.8 -7.2,-42 0,-34.8 7.2,-40.8 8.4,-35.999 10.8,-31.199 15.6,-34.801 9.6,-20.403 12,-15.597 32.4,-34.801 32.4,-32.398 28.8,-22.801 34.8,-19.199 38.4,-18 38.4,-10.801 32.4,-8.403 38.4,0 38.4,-3.597 44.4,6 32.4,6 37.2,16.801 39.6,19.199 25.2,12 28.8,26.398 28.8,25.199 28.8,28.801 21.6,34.801 22.8,32.398 15.6,32.403 9.6,38.399 3.6,34.8 6,42 -2.4,34.8 -3.6,42 -9.6,34.8 -13.2,31.2 -15.6,42 -22.8,32.4 -21.6,25.2 -25.2,32.4 -32.4,21.6 -32.4,22.8 -34.8,16.8" inkscape:connector-curvature="0" id="path54" style="stroke:#000000;stroke-width:8;stroke-miterlimit:4;stroke-dasharray:none;fill:none;stroke-opacity:1"/>
    </g>
  </g>
</svg>
