<?xml version="1.0" encoding="UTF-8"?>
<!-- Created with Inkscape (http://www.inkscape.org/) -->
<svg xmlns:dc="http://purl.org/dc/elements/1.1/" xmlns:cc="http://creativecommons.org/ns#" xmlns:rdf="http://www.w3.org/1999/02/22-rdf-syntax-ns#" xmlns:svg="http://www.w3.org/2000/svg" xmlns="http://www.w3.org/2000/svg" xmlns:inkscape="http://www.inkscape.org/namespaces/inkscape" version="1.1" width="765" height="990" id="svg2" xml:space="preserve">
  <metadata id="metadata8">
    <rdf:RDF>
      <cc:Work rdf:about="">
        <dc:format>image/svg+xml</dc:format>
        <dc:type rdf:resource="http://purl.org/dc/dcmitype/StillImage"/>
      </cc:Work>
    </rdf:RDF>
  </metadata>
  <defs id="defs6"/>
  <g transform="matrix(1.25,0,0,-1.25,0,990)" id="g10">
    <g transform="scale(0.1,0.1)" id="g12">
      <path d="m 590.398,1168.8 1327.202,0 0,333.6 -1327.202,0 0,-333.6" inkscape:connector-curvature="0" id="path14" style="stroke:#000000;stroke-width:8;stroke-miterlimit:4;stroke-dasharray:none;fill:none;stroke-opacity:1"/>
      <path d="M 950.398,1502.4 1150.8,1168.8" inkscape:connector-curvature="0" id="path16" style="stroke:#000000;stroke-width:8;stroke-miterlimit:4;stroke-dasharray:none;fill:none;stroke-opacity:1"/>
      <path d="m 1159.2,1502.4 198,-333.6" inkscape:connector-curvature="0" id="path18" style="stroke:#000000;stroke-width:8;stroke-miterlimit:4;stroke-dasharray:none;fill:none;stroke-opacity:1"/>
      <path d="M 1366.8,1502.4 1566,1168.8" inkscape:connector-curvature="0" id="path20" style="stroke:#000000;stroke-width:8;stroke-miterlimit:4;stroke-dasharray:none;fill:none;stroke-opacity:1"/>
      <path d="m 525.602,814.801 24,21.597 39.597,14.403 69.602,31.199 79.199,24 87.602,25.199 130.796,30 111.602,12 88.8,12 99.6,6 91.2,-6 105.6,-6 103.2,-12 97.2,-21.597 84,-21.602 80.4,-24 78,-24 61.2,-25.199 24,-10.801 18,-21.602 2.4,-3.597 -20.4,-20.403 -57.6,-37.199 -112.8,-42 -109.2,-33.597 -121.2,-27.602 -91.2,-8.398 -97.2,-13.204 -127.2,-4.796 -81.6,4.796 -87.6,6 -79.2,7.204 -115.201,18 -127.199,30 -90,30 -85.199,36 -55.199,31.199 -18,24" inkscape:connector-curvature="0" id="path22" style="stroke:#000000;stroke-width:8;stroke-miterlimit:4;stroke-dasharray:none;fill:none;stroke-opacity:1"/>
      <path d="m 1440,28.8008 -2.4,6 -7.2,7.1992 -24,13.1992 -18,15.6016 -15.6,18 -9.6,18.0002 -15.6,26.398 -7.2,36 2.4,40.801 4.8,39.602 7.2,44.398 3.6,43.199 -6,39.602 -7.2,25.199 -8.4,15.602 -9.6,13.199 -10.8,13.199 -9.6,9.602 -15.6,10.796 -10.8,8.403 -15.6,4.801 -18,4.796 -13.2,2.403 -18,0 -15.6,-2.403 -15.6,-4.796 -13.2,-8.403 -15.6,-9.597 -20.4,-24 -8.4,-15.602 -9.6,-22.801 -6,-20.398 -2.4,-28.801 0,-22.801 4.8,-28.801 6,-24 4.8,-20.398 20.4,-46.801 19.2,-26.398 20.4,-27.602 28.8,-28.801 31.2,-28.7964 L 1278,68.3984 1321.2,42 1360.8,28.8008 1383.6,24 l 20.4,-4.8008 20.4,0 13.2,2.4024 2.4,7.1992" inkscape:connector-curvature="0" id="path24" style="stroke:#000000;stroke-width:8;stroke-miterlimit:4;stroke-dasharray:none;fill:none;stroke-opacity:1"/>
      <path d="m 349.199,240 -39.597,49.199 -49.204,49.199 -39.597,43.204 -43.199,46.796 L 124.801,480 72,519.602 16.8008,559.199 122.398,1502.4 l 32.403,-9.6 36,-15.6 30,-24 30,-36 26.398,-43.2 12,-45.6 L 300,1288.8 309.602,1236 356.398,21.6016 294,19.1992 306,292.801" inkscape:connector-curvature="0" id="path26" style="stroke:#000000;stroke-width:8;stroke-miterlimit:4;stroke-dasharray:none;fill:none;stroke-opacity:1"/>
    </g>
  </g>
</svg>
