<?xml version="1.0" encoding="UTF-8"?>
<!-- Created with Inkscape (http://www.inkscape.org/) -->
<svg xmlns:dc="http://purl.org/dc/elements/1.1/" xmlns:cc="http://creativecommons.org/ns#" xmlns:rdf="http://www.w3.org/1999/02/22-rdf-syntax-ns#" xmlns:svg="http://www.w3.org/2000/svg" xmlns="http://www.w3.org/2000/svg" xmlns:inkscape="http://www.inkscape.org/namespaces/inkscape" version="1.1" width="765" height="990" id="svg2" xml:space="preserve">
  <metadata id="metadata8">
    <rdf:RDF>
      <cc:Work rdf:about="">
        <dc:format>image/svg+xml</dc:format>
        <dc:type rdf:resource="http://purl.org/dc/dcmitype/StillImage"/>
      </cc:Work>
    </rdf:RDF>
  </metadata>
  <defs id="defs6"/>
  <g transform="matrix(1.25,0,0,-1.25,0,990)" id="g10">
    <g transform="scale(0.1,0.1)" id="g12">
      <path d="M 349.199,250.801 309.602,300 260.398,349.199 220.801,392.398 177.602,439.199 124.801,490.801 72,530.398 16.8008,571.199 122.398,1513.2 l 32.403,-9.6 36,-15.6 30,-24 30,-36 26.398,-43.2 12,-45.6 10.801,-39.6 9.602,-52.8 L 356.398,32.3984 294,30 307.199,303.602" inkscape:connector-curvature="0" id="path14" style="stroke:#000000;stroke-width:8;stroke-miterlimit:4;stroke-dasharray:none;fill:none;stroke-opacity:1"/>
      <path d="m 1227.6,45.6016 39.6,10.7968 46.8,6 58.8,20.4024 20.4,30.0002 19.2,108 39.6,132 9.6,33.597 0,28.801 37.2,82.801 64.8,198 20.4,49.199 9.6,49.199 6,56.403 -6,66 -9.6,94.799" inkscape:connector-curvature="0" id="path16" style="stroke:#000000;stroke-width:8;stroke-miterlimit:4;stroke-dasharray:none;fill:none;stroke-opacity:1"/>
      <path d="m 1561.2,1186.8 38.4,7.2 0,52.8 -42,9.6 -9.6,7.2 -7.2,2.4 0,60 -32.4,28.8 28.8,22.8 33.6,46.8 6,22.8 22.8,27.6 20.4,19.2 33.6,13.2 28.8,0 30,-3.6 22.8,-9.6 22.8,-19.2 20.4,-27.6 6,-26.4 0,-32.4 -6,-36 -9.6,-26.4 -10.8,-26.4 -16.8,-22.8 -12,-30 0,-46.8 55.2,-15.6 16.8,-20.4 13.2,-36 -3.6,-39.6 0,-30 -6,-39.6 -3.6,-39.601 -6,-55.199 2.4,-76.801 13.2,-32.398 7.2,-26.403 6,-39.597 0,-30 -3.6,-30 -6,-22.801 -9.6,-36 9.6,-105.602 3.6,-49.199 0,-26.398 2.4,-39.602 24,-128.398 2.4,-56.403 3.6,-45.597 3.6,-50.403 6,-41.9996 10.8,-33.5976 L 1863.6,36 1844.4,30 1824,43.1992 1801.2,32.3984 1656,30 l 0,15.6016 82.8,13.1992 45.6,24 13.2,22.8012 3.6,22.796 -45.6,188.403 -3.6,19.199 -10.8,13.199 -6,30 -22.8,109.199" inkscape:connector-curvature="0" id="path18" style="stroke:#000000;stroke-width:8;stroke-miterlimit:4;stroke-dasharray:none;fill:none;stroke-opacity:1"/>
      <path d="m 1599.6,488.398 -22.8,-46.796 -22.8,-43.204 -9.6,-22.796 -9.6,-39.602 -13.2,-52.801 -27.6,-75.597 -36,-72 -22.8,-52.8012 3.6,-26.4024 -3.6,-13.1992 0,-7.1992 -16.8,-3.6016 L 1408.8,30 1395.6,39.6016 1386,30 l -162,0 3.6,15.6016" inkscape:connector-curvature="0" id="path20" style="stroke:#000000;stroke-width:8;stroke-miterlimit:4;stroke-dasharray:none;fill:none;stroke-opacity:1"/>
      <path d="m 1494,494.398 316.8,0" inkscape:connector-curvature="0" id="path22" style="stroke:#000000;stroke-width:8;stroke-miterlimit:4;stroke-dasharray:none;fill:none;stroke-opacity:1"/>
      <path d="m 1603.2,847.199 188.4,56.403" inkscape:connector-curvature="0" id="path24" style="stroke:#000000;stroke-width:8;stroke-miterlimit:4;stroke-dasharray:none;fill:none;stroke-opacity:1"/>
      <path d="m 1573.2,1424.4 112.8,-49.2 9.6,13.2 16.8,3.6 9.6,-3.6 0,-19.2 -3.6,-16.8 -6,-13.2 -7.2,-20.4 0,-16.8 16.8,-9.6 16.8,-13.2" inkscape:connector-curvature="0" id="path26" style="stroke:#000000;stroke-width:8;stroke-miterlimit:4;stroke-dasharray:none;fill:none;stroke-opacity:1"/>
      <path d="m 1573.2,1362 24,7.2 13.2,-20.4 -33.6,13.2" inkscape:connector-curvature="0" id="path28" style="stroke:#000000;stroke-width:8;stroke-miterlimit:4;stroke-dasharray:none;fill:none;stroke-opacity:1"/>
      <path d="m 1580.4,1011.6 -9.6,40.8 -43.2,15.6 -45.6,0 -56.4,3.6 -69.6,9.6 -19.2,13.2 -16.8,22.8 -26.4,46.8 -19.2,58.8 -16.8,49.2 -16.8,46.8 -2.4,13.2 -27.6,30 -26.4,30 10.8,2.4 32.4,-22.8 7.2,6 -10.8,20.4 -6,20.4 -13.2,13.2 -20.4,28.8 0,16.8 13.2,-2.4 24,-27.6 13.2,-22.8 9.6,-19.2 9.6,-16.8 3.6,-26.4 9.6,-16.8 13.2,-16.8 20.4,-22.8 26.4,-42 22.8,-33.6 15.6,-39.6 14.4,-30 32.4,-9.6 30,0 22.8,-3.6 33.6,0" inkscape:connector-curvature="0" id="path30" style="stroke:#000000;stroke-width:8;stroke-miterlimit:4;stroke-dasharray:none;fill:none;stroke-opacity:1"/>
      <path d="m 1399.2,1158 -26.4,69.6 -13.2,49.2 -9.6,49.2 -13.2,51.6 -16.8,16.8 -22.8,20.4 -9.6,16.8 9.6,2.4 30,-19.2 6,3.6 -19.2,36 -13.2,15.6 -16.8,13.2 -13.2,20.4 -3.6,9.6 13.2,-2.4 20.4,-16.8 13.2,-13.2 19.2,-22.8 16.8,-26.4 6,-20.4 7.2,-16.8 9.6,-25.2 20.4,-33.6 19.2,-36 19.2,-46.8 13.2,-30 13.2,-32.4 7.2,-13.2 13.2,-3.6 82.8,13.2" inkscape:connector-curvature="0" id="path32" style="stroke:#000000;stroke-width:8;stroke-miterlimit:4;stroke-dasharray:none;fill:none;stroke-opacity:1"/>
      <path d="m 746.398,1084.8 -39.597,-19.2 -28.801,-36 -10.801,-29.998 -7.199,-30 10.801,-45.602 22.801,-30 22.796,-20.398 39.602,-12 30,-10.801 36,0 39.602,16.801 33.597,16.796 19.199,22.801 22.801,33.602 16.801,38.398 9.602,33.601 3.597,33.6 -3.597,22.8 -6,39.6 -16.801,32.4 -26.403,33.6 -26.398,22.8 -22.801,9.6 -22.801,9.6 -33.597,3.6 -26.403,3.6 -32.398,0 -39.602,-3.6 -43.199,-13.2 -36,-19.2 -22.801,-20.4 -26.398,-22.8 -20.398,-22.8 -19.204,-37.2 -20.398,-36 -6,-32.4 -7.199,-46.798 -3.602,-45.602 3.602,-37.199 3.597,-51.602 19.204,-54 30,-58.801 52.796,-69.597 82.801,-78 117.602,-96 257.999,-145.199" inkscape:connector-curvature="0" id="path34" style="stroke:#000000;stroke-width:8;stroke-miterlimit:4;stroke-dasharray:none;fill:none;stroke-opacity:1"/>
      <path d="m 2366.4,1375.2 -37.2,-18 -26.4,-33.6 -9.6,-27.6 -6,-27.6 8.4,-43.2 22.8,-26.4 20.4,-19.2 37.2,-12 27.6,-8.4 32.4,0 37.2,14.4 31.2,15.6 18,21.6 20.4,30 15.6,37.2 9.6,30 2.4,31.2 -2.4,20.4 -6,37.2 -15.6,31.2 -24,30 -25.2,21.6 -20.4,8.4 -21.6,9.6 -30,2.4 -25.2,3.6 -30,0 -37.2,-3.6 -39.6,-12 -33.6,-18 -21.6,-18 -24,-21.6 -18,-21.6 -18,-33.6 -19.2,-33.6 -6,-30 -6,-43.2 -3.6,-43.2 3.6,-33.6 3.6,-48 18,-49.2 27.6,-55.2 48,-63.598 76.8,-73.204 110.4,-88.796 237.6,-134.403" inkscape:connector-curvature="0" id="path36" style="stroke:#000000;stroke-width:8;stroke-miterlimit:4;stroke-dasharray:none;fill:none;stroke-opacity:1"/>
      <path d="m 2152.8,570 244.8,-549.6016 121.2,0 L 2275.2,570 l -122.4,0" inkscape:connector-curvature="0" id="path38" style="stroke:#000000;stroke-width:8;stroke-miterlimit:4;stroke-dasharray:none;fill:none;stroke-opacity:1"/>
      <path d="M 2522.4,570 2766,20.3984 l 122.4,0 L 2644.8,570 l -122.4,0" inkscape:connector-curvature="0" id="path40" style="stroke:#000000;stroke-width:8;stroke-miterlimit:4;stroke-dasharray:none;fill:none;stroke-opacity:1"/>
    </g>
  </g>
</svg>
