<?xml version="1.0" encoding="UTF-8"?>
<!-- Created with Inkscape (http://www.inkscape.org/) -->
<svg xmlns:dc="http://purl.org/dc/elements/1.1/" xmlns:cc="http://creativecommons.org/ns#" xmlns:rdf="http://www.w3.org/1999/02/22-rdf-syntax-ns#" xmlns:svg="http://www.w3.org/2000/svg" xmlns="http://www.w3.org/2000/svg" xmlns:inkscape="http://www.inkscape.org/namespaces/inkscape" version="1.1" width="765" height="990" id="svg2" xml:space="preserve">
  <metadata id="metadata8">
    <rdf:RDF>
      <cc:Work rdf:about="">
        <dc:format>image/svg+xml</dc:format>
        <dc:type rdf:resource="http://purl.org/dc/dcmitype/StillImage"/>
      </cc:Work>
    </rdf:RDF>
  </metadata>
  <defs id="defs6"/>
  <g transform="matrix(1.25,0,0,-1.25,0,990)" id="g10">
    <g transform="scale(0.1,0.1)" id="g12">
      <path d="M 507.602,1335.6 492,1374 l -30,61.2 -19.199,31.2 517.199,0 -31.199,-54 -22.801,-54 -7.199,-22.8" inkscape:connector-curvature="0" id="path14" style="stroke:#000000;stroke-width:8;stroke-miterlimit:4;stroke-dasharray:none;fill:none;stroke-opacity:1"/>
      <path d="m 446.398,1185.6 -117.597,64.8 -27.602,-91.2 61.199,-45.6 42,-31.2 57.602,-61.2" inkscape:connector-curvature="0" id="path16" style="stroke:#000000;stroke-width:8;stroke-miterlimit:4;stroke-dasharray:none;fill:none;stroke-opacity:1"/>
      <path d="m 960,1185.6 114,64.8 31.2,-94.8 -52.8,-31.2 -62.4,-57.6 -42,-45.6" inkscape:connector-curvature="0" id="path18" style="stroke:#000000;stroke-width:8;stroke-miterlimit:4;stroke-dasharray:none;fill:none;stroke-opacity:1"/>
      <path d="m 531.602,1066.8 7.199,24 14.398,26.4 24,26.4 30,27.6 54,18 34.801,4.8 42,-4.8 45.602,-14.4 38.398,-22.8 19.199,-27.6 19.199,-22.8 15.602,-42 -62.398,38.4 -45.602,15.6 -37.199,10.8 -31.199,3.6 -38.403,-7.2 -38.398,-7.2 -45.602,-22.8 -31.199,-24 -14.398,-7.2" inkscape:connector-curvature="0" id="path20" style="stroke:#000000;stroke-width:8;stroke-miterlimit:4;stroke-dasharray:none;fill:none;stroke-opacity:1"/>
      <path d="m 553.199,657.602 62.403,249.597 26.398,33.602 26.398,12 31.204,7.199 42,-7.199 30,-24 15.597,-26.403 66,-248.398" inkscape:connector-curvature="0" id="path22" style="stroke:#000000;stroke-width:8;stroke-miterlimit:4;stroke-dasharray:none;fill:none;stroke-opacity:1"/>
      <path d="m 706.801,603.602 -56.403,3.597 -27.597,8.403 -22.801,3.597 -38.398,19.199 -26.403,34.801 -22.801,33.602 -15.597,38.398 -12,46.801 -14.403,61.199 -24,321.601 4.801,57.6 7.199,26.4 3.602,22.8 19.199,31.2 22.801,22.8 38.398,22.8 34.801,10.8 30,4.8 92.403,7.2 106.796,-7.2 46.801,-8.4 37.199,-22.8 24,-15.6 18,-30 19.204,-61.2 3.597,-50.4 -18,-278.401 -8.398,-76.801 -22.801,-85.199 -15.602,-38.398 -22.796,-38.403 -14.403,-18 -24,-20.398 -26.398,-14.398 -34.801,-8.403 -61.199,-3.597" inkscape:connector-curvature="0" id="path24" style="stroke:#000000;stroke-width:8;stroke-miterlimit:4;stroke-dasharray:none;fill:none;stroke-opacity:1"/>
      <path d="m 1192.8,624 15.6,30 26.4,31.199 12,12 22.8,14.403 38.4,3.597 42,-14.398 27.6,-27.602 10.8,-19.199 7.2,-14.398 12,-43.204 0,-569.9996 -1393.2016,0 0,569.9996 14.4024,62.403 12,18 27.5976,24 37.2036,14.398 24,0 22.796,-7.199 30,-19.199 22.801,-30 L 220.801,624 228,589.199 l 8.398,-26.398 7.204,-24 15.597,-49.199 12,-30 10.801,-22.801 12,-24 10.801,-14.403 15.597,-24 30,-33.597 20.403,-19.199 10.801,-15.602 22.796,-19.199 26.403,-19.199 15.597,-10.801 19.204,-15.602 22.796,-8.398 31.204,-15.602 22.796,-7.199 31.204,-7.199 15.597,-7.199 26.403,-8.403 22.796,0 26.403,-3.597 22.801,0 34.796,-3.602 22.801,3.602 38.403,0 15.597,3.597 30,8.403 24,7.199 30,7.199 19.199,10.801 22.801,12 22.801,8.398 22.801,15.602 19.199,14.398 19.2,15.602 19.2,15.597 19.2,19.204 19.2,19.199 19.2,14.398 12,24 19.2,26.403 10.8,14.398 15.6,27.602 7.2,19.199 12,26.398 7.2,24 8.4,26.403 7.2,22.796 7.2,30 0,24" inkscape:connector-curvature="0" id="path26" style="stroke:#000000;stroke-width:8;stroke-miterlimit:4;stroke-dasharray:none;fill:none;stroke-opacity:1"/>
      <path d="m 2436,1110 -753.6,0 9.6,63.6 9.6,42 15.6,42 22.8,32.4 19.2,28.8 25.2,34.8 28.8,25.2 34.8,25.2 28.8,20.4 42,18 40.8,13.2 28.8,6 51.6,7.2 38.4,0 34.8,-7.2 39.6,-6 40.8,-9.6 28.8,-9.6 38.4,-25.2 32.4,-22.8 28.8,-22.8 25.2,-31.2 25.2,-34.8 22.8,-36 15.6,-32.4 13.2,-46.8 9.6,-36 2.4,-38.4" inkscape:connector-curvature="0" id="path28" style="stroke:#000000;stroke-width:8;stroke-miterlimit:4;stroke-dasharray:none;fill:none;stroke-opacity:1"/>
      <path d="M 1858.8,82.8008 2077.2,282 2281.2,82.8008" inkscape:connector-curvature="0" id="path30" style="stroke:#000000;stroke-width:8;stroke-miterlimit:4;stroke-dasharray:none;fill:none;stroke-opacity:1"/>
      <path d="m 2364,172.801 -192,195.597 205.2,194.403" inkscape:connector-curvature="0" id="path32" style="stroke:#000000;stroke-width:8;stroke-miterlimit:4;stroke-dasharray:none;fill:none;stroke-opacity:1"/>
      <path d="M 2287.2,662.398 2083.2,468 1878,679.199" inkscape:connector-curvature="0" id="path34" style="stroke:#000000;stroke-width:8;stroke-miterlimit:4;stroke-dasharray:none;fill:none;stroke-opacity:1"/>
      <path d="M 1789.2,591.602 1987.2,380.398 1776,180" inkscape:connector-curvature="0" id="path36" style="stroke:#000000;stroke-width:8;stroke-miterlimit:4;stroke-dasharray:none;fill:none;stroke-opacity:1"/>
      <path d="m 2044.8,16.8008 88.8,2.3984 51.6,13.1992 44.4,19.2032 51.6,34.7968 38.4,35.9996 38.4,40.801 25.2,42 25.2,44.403 13.2,44.398 6,51.602 0,51.597 -15.6,88.801 -19.2,48 -28.8,48 -32.4,45.602 -48,40.796 -37.2,26.403 -39.6,15.597 -34.8,12 -48,10.801 -46.8,2.403 -64.8,0 -51.6,-13.204 -48,-18 -44.4,-25.199 -40.8,-36 -38.4,-44.398 -36,-45.602 -15.6,-31.199 -13.2,-36 -12,-60 0,-57.602 6,-42 6,-44.398 16.8,-45.602 22.8,-50.398 37.2,-48 38.4,-36 44.4,-34.8008 45.6,-21.5976 54,-20.4024 61.2,-8.3984" inkscape:connector-curvature="0" id="path38" style="stroke:#000000;stroke-width:8;stroke-miterlimit:4;stroke-dasharray:none;fill:none;stroke-opacity:1"/>
    </g>
  </g>
</svg>
