<?xml version="1.0" encoding="UTF-8"?>
<!-- Created with Inkscape (http://www.inkscape.org/) -->
<svg xmlns:dc="http://purl.org/dc/elements/1.1/" xmlns:cc="http://creativecommons.org/ns#" xmlns:rdf="http://www.w3.org/1999/02/22-rdf-syntax-ns#" xmlns:svg="http://www.w3.org/2000/svg" xmlns="http://www.w3.org/2000/svg" xmlns:inkscape="http://www.inkscape.org/namespaces/inkscape" version="1.1" width="765" height="990" id="svg2" xml:space="preserve">
  <metadata id="metadata8">
    <rdf:RDF>
      <cc:Work rdf:about="">
        <dc:format>image/svg+xml</dc:format>
        <dc:type rdf:resource="http://purl.org/dc/dcmitype/StillImage"/>
      </cc:Work>
    </rdf:RDF>
  </metadata>
  <defs id="defs6"/>
  <g transform="matrix(1.25,0,0,-1.25,0,990)" id="g10">
    <g transform="scale(0.1,0.1)" id="g12">
      <path d="m 481.199,211.199 192,0 -3.597,70.801 19.199,92.398 19.199,54 38.398,86.403 175.204,309.597 9.597,67.204 3.602,32.398 -6,57.602 -9.602,38.398 -16.801,48 -28.796,44.4 -21.602,25.2 -57.602,55.2 -45.597,15.6 -92.403,9.6 -76.796,-9.6 -31.204,-13.2 L 510,1170 474,1131.6 458.398,1110 442.801,1089.6" inkscape:connector-curvature="0" id="path14" style="stroke:#000000;stroke-width:8;stroke-miterlimit:4;stroke-dasharray:none;fill:none;stroke-opacity:1"/>
      <path d="M 433.199,1087.2 404.398,1074 91.1992,1012.8 62.3984,991.199 39.6016,975.602 20.3984,940.801 l -6,-51.602 2.4024,-13.199 9.5976,-6 7.2032,0 15.5976,6 6,28.801 19.1992,28.801 28.8006,25.199 32.403,9.597 42,13.204 259.199,34.798 6,3.6 38.398,-7.2" inkscape:connector-curvature="0" id="path16" style="stroke:#000000;stroke-width:8;stroke-miterlimit:4;stroke-dasharray:none;fill:none;stroke-opacity:1"/>
      <path d="m 436.801,1087.2 44.398,-76.8 0,-42.002" inkscape:connector-curvature="0" id="path18" style="stroke:#000000;stroke-width:8;stroke-miterlimit:4;stroke-dasharray:none;fill:none;stroke-opacity:1"/>
      <path d="m 62.3984,907.199 28.8008,20.403 47.9998,13.199 123.602,12 126,15.597 96,0 25.199,-3.597 50.398,-12 90,-16.801 48,-2.398 34.801,2.398 38.403,10.801 22.796,-13.199 L 804,918 807.602,879.602 804,847.199 788.398,808.801 648,624 577.199,511.199 l -28.801,-57.597 -34.796,-66 -20.403,-86.403 -12,-90" inkscape:connector-curvature="0" id="path20" style="stroke:#000000;stroke-width:8;stroke-miterlimit:4;stroke-dasharray:none;fill:none;stroke-opacity:1"/>
      <path d="m 756,1204.8 165.602,-60 163.198,-42 67.2,-13.2 57.6,-2.4 70.8,0 76.8,2.4 56.4,13.2 58.8,13.2 6,-6 -6,-22.8 -22.8,-16.8 -76.8,-15.6 -76.8,-9.6 -86.4,0 -73.2,7.2 -124.8,21.6 -69.6,22.8" inkscape:connector-curvature="0" id="path22" style="stroke:#000000;stroke-width:8;stroke-miterlimit:4;stroke-dasharray:none;fill:none;stroke-opacity:1"/>
      <path d="m 852,1144.8 124.801,-67.2 124.799,-64.8 76.8,-37.198 57.6,-22.801 63.6,-16.801 44.4,-6 82.8,-9.602 36,7.204 15.6,2.398 12,-9.602 3.6,-19.199 -46.8,-15.597 -58.8,-6 -63.6,9.597 -88.8,18 -76.8,26.403 -74.4,34.796 L 906,1070.4" inkscape:connector-curvature="0" id="path24" style="stroke:#000000;stroke-width:8;stroke-miterlimit:4;stroke-dasharray:none;fill:none;stroke-opacity:1"/>
      <path d="M 583.199,1125.6 564,1122 l -15.602,-19.2 0,-21.6 15.602,-16.8 22.801,0 21.597,9.6 3.602,13.2 -6,19.2 -16.801,19.2" inkscape:connector-curvature="0" id="path26" style="stroke:#000000;stroke-width:8;stroke-miterlimit:4;stroke-dasharray:none;fill:none;stroke-opacity:1"/>
      <path d="m 1903.2,276 415.2,399.602" inkscape:connector-curvature="0" id="path28" style="stroke:#000000;stroke-width:8;stroke-miterlimit:4;stroke-dasharray:none;fill:none;stroke-opacity:1"/>
      <path d="m 1753.2,333.602 511.2,489.597" inkscape:connector-curvature="0" id="path30" style="stroke:#000000;stroke-width:8;stroke-miterlimit:4;stroke-dasharray:none;fill:none;stroke-opacity:1"/>
      <path d="m 1653.6,439.199 511.2,489.602" inkscape:connector-curvature="0" id="path32" style="stroke:#000000;stroke-width:8;stroke-miterlimit:4;stroke-dasharray:none;fill:none;stroke-opacity:1"/>
      <path d="m 1603.2,590.398 408,390" inkscape:connector-curvature="0" id="path34" style="stroke:#000000;stroke-width:8;stroke-miterlimit:4;stroke-dasharray:none;fill:none;stroke-opacity:1"/>
      <path d="m 2110.8,957.602 -34.8,9.597 -36,13.199 -37.2,6 -39.6,0 -40.8,-3.597 -34.8,-2.403 -38.4,-13.199 -34.8,-13.199 -36,-15.602 -32.4,-22.796 -25.2,-21.602 -25.2,-26.398 -19.2,-22.801 -19.2,-27.602 -22.8,-42 -9.6,-31.199 -9.6,-36 -6,-34.801 -6,-42 0,-34.801 6,-42 9.6,-34.796 9.6,-32.403 15.6,-34.801 9.6,-19.199 13.2,-16.801 31.2,-34.796 32.4,-31.204 28.8,-22.796 34.8,-19.204 39.6,-19.199 37.2,-9.597 32.4,-9.602 38.4,0 38.4,-2.398 44.4,6 32.4,6 38.4,16.796 38.4,19.204 25.2,12 28.8,25.199 28.8,26.398 28.8,28.801 22.8,34.801 22.8,32.398 15.6,31.199 9.6,38.403 2.4,36 7.2,40.801 -3.6,34.796 -3.6,42 -9.6,34.801 -12,32.403 -16.8,42 -22.8,31.199 -21.6,26.398 -25.2,31.199 -32.4,22.801 -32.4,22.801 -34.8,15.602" inkscape:connector-curvature="0" id="path36" style="stroke:#000000;stroke-width:8;stroke-miterlimit:4;stroke-dasharray:none;fill:none;stroke-opacity:1"/>
      <path d="m 3226.8,460.801 -754.8,0 9.6,64.801 9.6,40.796 15.6,42 22.8,32.403 19.2,28.801 25.2,34.796 28.8,25.204 34.8,26.398 28.8,19.199 42,18 42,13.199 27.6,6 51.6,7.204 38.4,0 36,-7.204 38.4,-6 40.8,-9.597 28.8,-9.602 38.4,-25.199 32.4,-22.801 28.8,-22.801 25.2,-31.199 25.2,-34.801 22.8,-36 15.6,-32.398 13.2,-46.801 9.6,-36 3.6,-38.398" inkscape:connector-curvature="0" id="path38" style="stroke:#000000;stroke-width:8;stroke-miterlimit:4;stroke-dasharray:none;fill:none;stroke-opacity:1"/>
      <path d="m 3607.2,1309.2 -52.8,-12 -37.2,-26.4 -38.4,-50.4 -12,-46.8 -6,-32.4 0,-55.2 14.4,-52.8 20.4,-52.802 30,-26.398 28.8,-20.398 52.8,-12 1080,0 73.2,6 38.4,14.398 34.8,26.398 36,46.802 10.8,44.4 9.6,43.2 -6,50.4 -12,50.4 -26.4,37.2 -40.8,36 -40.8,26.4 -30,2.4 -1126.8,0" inkscape:connector-curvature="0" id="path40" style="stroke:#000000;stroke-width:8;stroke-miterlimit:4;stroke-dasharray:none;fill:none;stroke-opacity:1"/>
      <path d="m 3974.4,1185.6 -20.4,-6 -12,-12 -14.4,-16.8 -3.6,-18 -2.4,-8.4 0,-21.6 2.4,-16.8 12,-18 6,-12 12,-4.8 20.4,-7.2 414,0 18,7.2 10.8,12 12,16.8 6,14.4 0,32.4 -6,18 -9.6,14.4 -13.2,14.4 -18,6 -6,2.4 -408,0" inkscape:connector-curvature="0" id="path42" style="stroke:#000000;stroke-width:8;stroke-miterlimit:4;stroke-dasharray:none;fill:none;stroke-opacity:1"/>
      <path d="m 3471.6,744 0,-727.1992 128.4,0 0,727.1992 -128.4,0" inkscape:connector-curvature="0" id="path44" style="stroke:#000000;stroke-width:8;stroke-miterlimit:4;stroke-dasharray:none;fill:none;stroke-opacity:1"/>
      <path d="m 4117.2,744 0,-727.1992 132,0 0,727.1992 -132,0" inkscape:connector-curvature="0" id="path46" style="stroke:#000000;stroke-width:8;stroke-miterlimit:4;stroke-dasharray:none;fill:none;stroke-opacity:1"/>
      <path d="m 4770,744 0,-727.1992 129.6,0 0,727.1992 -129.6,0" inkscape:connector-curvature="0" id="path48" style="stroke:#000000;stroke-width:8;stroke-miterlimit:4;stroke-dasharray:none;fill:none;stroke-opacity:1"/>
    </g>
  </g>
</svg>
