<?xml version="1.0" encoding="UTF-8"?>
<!-- Created with Inkscape (http://www.inkscape.org/) -->
<svg xmlns:dc="http://purl.org/dc/elements/1.1/" xmlns:cc="http://creativecommons.org/ns#" xmlns:rdf="http://www.w3.org/1999/02/22-rdf-syntax-ns#" xmlns:svg="http://www.w3.org/2000/svg" xmlns="http://www.w3.org/2000/svg" xmlns:inkscape="http://www.inkscape.org/namespaces/inkscape" version="1.1" width="765" height="990" id="svg2" xml:space="preserve">
  <metadata id="metadata8">
    <rdf:RDF>
      <cc:Work rdf:about="">
        <dc:format>image/svg+xml</dc:format>
        <dc:type rdf:resource="http://purl.org/dc/dcmitype/StillImage"/>
      </cc:Work>
    </rdf:RDF>
  </metadata>
  <defs id="defs6"/>
  <g transform="matrix(1.25,0,0,-1.25,0,990)" id="g10">
    <g transform="scale(0.1,0.1)" id="g12">
      <path d="m 408,901.199 0,-863.9998 -68.398,0 0,863.9998" inkscape:connector-curvature="0" id="path14" style="stroke:#000000;stroke-width:8;stroke-miterlimit:4;stroke-dasharray:none;fill:none;stroke-opacity:1"/>
      <path d="m 733.199,901.199 -718.8006,0 0,225.601 12,26.4 13.2032,15.6 32.3984,0 19.1992,-3.6 19.1988,-12 63.602,-57.6 57.602,-51.6 44.398,-21.6 55.199,-13.2 44.403,-3.6 40.796,3.6 55.204,13.2 44.398,21.6 57.602,51.6 63.597,57.6 19.199,12 19.204,3.6 32.398,0 12,-15.6 13.199,-26.4 0,-225.601" inkscape:connector-curvature="0" id="path16" style="stroke:#000000;stroke-width:8;stroke-miterlimit:4;stroke-dasharray:none;fill:none;stroke-opacity:1"/>
      <path d="m 241.199,1044 57.602,378 25.199,31.2 19.199,13.2 25.199,9.6 10.801,0 25.199,-9.6 19.204,-13.2 25.199,-31.2 57.597,-378" inkscape:connector-curvature="0" id="path18" style="stroke:#000000;stroke-width:8;stroke-miterlimit:4;stroke-dasharray:none;fill:none;stroke-opacity:1"/>
      <path d="m 558,1107.6 -26.398,3.6 -15.602,13.2 -9.602,15.6 -6,15.6 2.403,28.8 13.199,20.4 15.602,8.4 26.398,7.2 25.199,-3.6 19.199,-12 12,-20.4 0,-40.8 -12,-16.8 -19.199,-15.6 -25.199,-3.6" inkscape:connector-curvature="0" id="path20" style="stroke:#000000;stroke-width:8;stroke-miterlimit:4;stroke-dasharray:none;fill:none;stroke-opacity:1"/>
      <path d="m 202.801,1111.2 -28.801,0 -28.801,15.6 -9.597,20.4 -3.602,15.6 7.199,28.8 21.602,21.6 13.199,7.2 22.801,0 22.801,-3.6 18,-12 9.597,-22.8 0,-19.2 -6,-26.4 -9.597,-15.6 -16.801,-6 -12,-3.6" inkscape:connector-curvature="0" id="path22" style="stroke:#000000;stroke-width:8;stroke-miterlimit:4;stroke-dasharray:none;fill:none;stroke-opacity:1"/>
      <path d="M 429.602,896.398 522,615.602 l 7.199,-28.801 0,-38.403 L 516,519.602 496.801,500.398 477.602,487.199 408,478.801" inkscape:connector-curvature="0" id="path24" style="stroke:#000000;stroke-width:8;stroke-miterlimit:4;stroke-dasharray:none;fill:none;stroke-opacity:1"/>
      <path d="m 339.602,478.801 -66,8.398 L 241.199,510 222,548.398 l 0,44.403 98.398,303.597" inkscape:connector-curvature="0" id="path26" style="stroke:#000000;stroke-width:8;stroke-miterlimit:4;stroke-dasharray:none;fill:none;stroke-opacity:1"/>
      <path d="m 2452.8,1453.2 -15.6,-322.8 -6,-274.798 -7.2,-211.204 -15.6,-151.199 -13.2,-144 7.2,-153.597 9.6,-48 6,-37.204 -3.6,-39.5972 -19.2,-25.1992 -28.8,-19.2032 -34.8,-6 L 2268,36 l -25.2,19.1992 -42,9.6016 -96,-48 -397.2,3.5976 -15.6,50.4024 13.2,26.3984 34.8,5.9998 138,28.801 115.2,57.602 76.8,28.796 67.2,15.602 46.8,42 16.8,40.801 3.6,45.597 -7.2,67.204 -2.4,88.796 -7.2,243.602 -3.6,242.4 -25.2,451.2 294,0" inkscape:connector-curvature="0" id="path28" style="stroke:#000000;stroke-width:8;stroke-miterlimit:4;stroke-dasharray:none;fill:none;stroke-opacity:1"/>
      <path d="m 1143.6,1338 -37.2,-19.2 -27.6,-33.6 -9.6,-27.6 -6,-27.6 9.6,-42 20.4,-27.6 22.8,-19.2 36,-10.8 27.6,-9.6 33.6,0 37.2,14.4 30,15.6 18,21.6 21.6,30 15.6,37.2 9.6,31.2 2.4,30 -2.4,21.6 -7.2,37.2 -15.6,30 -24,31.2 -24,20.4 -21.6,9.6 -21.6,8.4 -30,3.6 -25.2,3.6 -30,0 -37.2,-3.6 -39.6,-12 -33.6,-19.2 -21.6,-18 -24,-20.4 -18,-22.8 -19.199,-32.4 -18,-33.6 -6,-31.2 -6,-43.2 -3.602,-42 3.602,-33.6 3.597,-49.2 18,-49.2 27.602,-55.2 49.2,-63.601 75.6,-73.199 110.4,-88.801 237.6,-135.597" inkscape:connector-curvature="0" id="path30" style="stroke:#000000;stroke-width:8;stroke-miterlimit:4;stroke-dasharray:none;fill:none;stroke-opacity:1"/>
      <path d="M 843.602,577.199 1088.4,26.3984 l 121.2,0 -243.6,550.8006 -122.398,0" inkscape:connector-curvature="0" id="path32" style="stroke:#000000;stroke-width:8;stroke-miterlimit:4;stroke-dasharray:none;fill:none;stroke-opacity:1"/>
      <path d="M 1213.2,577.199 1458,26.3984 l 122.4,0 -244.8,550.8006 -122.4,0" inkscape:connector-curvature="0" id="path34" style="stroke:#000000;stroke-width:8;stroke-miterlimit:4;stroke-dasharray:none;fill:none;stroke-opacity:1"/>
    </g>
  </g>
</svg>
