<?xml version="1.0" encoding="UTF-8"?>
<!-- Created with Inkscape (http://www.inkscape.org/) -->
<svg xmlns:dc="http://purl.org/dc/elements/1.1/" xmlns:cc="http://creativecommons.org/ns#" xmlns:rdf="http://www.w3.org/1999/02/22-rdf-syntax-ns#" xmlns:svg="http://www.w3.org/2000/svg" xmlns="http://www.w3.org/2000/svg" xmlns:inkscape="http://www.inkscape.org/namespaces/inkscape" version="1.1" width="765" height="990" id="svg2" xml:space="preserve">
  <metadata id="metadata8">
    <rdf:RDF>
      <cc:Work rdf:about="">
        <dc:format>image/svg+xml</dc:format>
        <dc:type rdf:resource="http://purl.org/dc/dcmitype/StillImage"/>
      </cc:Work>
    </rdf:RDF>
  </metadata>
  <defs id="defs6"/>
  <g transform="matrix(1.25,0,0,-1.25,0,990)" id="g10">
    <g transform="scale(0.1,0.1)" id="g12">
      <path d="M 349.199,250.801 309.602,300 260.398,349.199 220.801,392.398 177.602,439.199 124.801,490.801 72,530.398 16.8008,571.199 122.398,1513.2 l 32.403,-9.6 36,-15.6 30,-24 30,-36 26.398,-43.2 12,-45.6 10.801,-39.6 9.602,-52.8 L 356.398,32.3984 294,30 306,303.602" inkscape:connector-curvature="0" id="path14" style="stroke:#000000;stroke-width:8;stroke-miterlimit:4;stroke-dasharray:none;fill:none;stroke-opacity:1"/>
      <path d="m 1786.8,36 39.6,9.6016 45.6,7.1992 60,19.1992 19.2,30 20.4,109.199 39.6,132 9.6,32.403 0,30 36,82.796 66,196.801 20.4,50.403 9.6,49.199 6,56.398 -6,66 -9.6,94.801" inkscape:connector-curvature="0" id="path16" style="stroke:#000000;stroke-width:8;stroke-miterlimit:4;stroke-dasharray:none;fill:none;stroke-opacity:1"/>
      <path d="m 2119.2,1177.2 39.6,7.2 0,51.6 -42,10.8 -10.8,6 -6,3.6 0,58.8 -32.4,30 28.8,22.8 33.6,46.8 6,22.8 22.8,26.4 20.4,19.2 32.4,13.2 30,0 30,-2.4 22.8,-10.8 22.8,-19.2 19.2,-26.4 7.2,-26.4 0,-33.6 -7.2,-36 -8.4,-26.4 -10.8,-25.2 -16.8,-24 -13.2,-30 0,-45.6 56.4,-16.8 16.8,-19.2 13.2,-37.2 -3.6,-38.4 0,-30 -6,-39.6 -3.6,-39.598 -7.2,-56.403 3.6,-75.597 13.2,-32.403 7.2,-27.597 6,-38.403 0,-30 -3.6,-30 -6,-22.801 -9.6,-36 9.6,-105.597 3.6,-49.199 0,-27.602 2.4,-39.602 24,-128.398 2.4,-56.398 3.6,-45.602 3.6,-49.199 6,-43.1994 9.6,-32.4024 -6,-16.8008 -19.2,-6 -20.4,12 -22.8,-9.5976 -145.2,-2.4024 0,15.6016 82.8,13.1992 45.6,22.8008 13.2,24 3.6,22.801 -45.6,187.199 -3.6,20.398 -10.8,13.204 -6,30 -22.8,109.199" inkscape:connector-curvature="0" id="path18" style="stroke:#000000;stroke-width:8;stroke-miterlimit:4;stroke-dasharray:none;fill:none;stroke-opacity:1"/>
      <path d="M 2158.8,478.801 2136,432 2113.2,388.801 2103.6,366 2094,326.398 2080.8,273.602 2053.2,198 l -36,-72 -22.8,-54 3.6,-26.3984 -3.6,-13.2032 0,-6 -16.8,-3.5976 -9.6,-2.4024 -13.2,9.6016 -9.6,-9.6016 -162,0 3.6,15.6016" inkscape:connector-curvature="0" id="path20" style="stroke:#000000;stroke-width:8;stroke-miterlimit:4;stroke-dasharray:none;fill:none;stroke-opacity:1"/>
      <path d="m 2053.2,484.801 316.8,0" inkscape:connector-curvature="0" id="path22" style="stroke:#000000;stroke-width:8;stroke-miterlimit:4;stroke-dasharray:none;fill:none;stroke-opacity:1"/>
      <path d="M 2162.4,837.602 2350.8,894" inkscape:connector-curvature="0" id="path24" style="stroke:#000000;stroke-width:8;stroke-miterlimit:4;stroke-dasharray:none;fill:none;stroke-opacity:1"/>
      <path d="m 2132.4,1414.8 112.8,-49.2 9.6,12 16.8,4.8 9.6,-4.8 0,-19.2 -3.6,-16.8 -6,-13.2 -7.2,-19.2 0,-16.8 16.8,-9.6 16.8,-13.2" inkscape:connector-curvature="0" id="path26" style="stroke:#000000;stroke-width:8;stroke-miterlimit:4;stroke-dasharray:none;fill:none;stroke-opacity:1"/>
      <path d="m 2132.4,1352.4 24,6 12,-19.2 -32.4,13.2" inkscape:connector-curvature="0" id="path28" style="stroke:#000000;stroke-width:8;stroke-miterlimit:4;stroke-dasharray:none;fill:none;stroke-opacity:1"/>
      <path d="m 2139.6,1002 -9.6,39.6 -43.2,16.8 -46.8,0 -55.2,3.6 -69.6,9.6 -19.2,13.2 -16.8,22.8 -26.4,46.8 -19.2,58.8 -16.8,49.2 -16.8,46.8 -3.6,13.2 -26.4,30 -26.4,30 10.8,2.4 32.4,-22.8 6,6 -9.6,20.4 -6,19.2 -13.2,13.2 -20.4,30 0,16.8 13.2,-3.6 22.8,-26.4 13.2,-22.8 10.8,-20.4 9.6,-16.8 3.6,-25.2 9.6,-16.8 13.2,-16.8 20.4,-22.8 25.2,-43.2 24,-32.4 15.6,-40.8 14.4,-28.8 32.4,-9.6 30,0 22.8,-3.6 32.4,0" inkscape:connector-curvature="0" id="path30" style="stroke:#000000;stroke-width:8;stroke-miterlimit:4;stroke-dasharray:none;fill:none;stroke-opacity:1"/>
      <path d="m 1958.4,1147.2 -26.4,69.6 -13.2,49.2 -9.6,49.2 -13.2,52.8 -16.8,16.8 -22.8,20.4 -9.6,15.6 9.6,3.6 28.8,-19.2 7.2,2.4 -20.4,37.2 -12,15.6 -18,13.2 -12,20.4 -3.6,9.6 13.2,-3.6 20.4,-16.8 12,-13.2 20.4,-22.8 16.8,-26.4 6,-19.2 7.2,-16.8 9.6,-26.4 19.2,-32.4 20.4,-36 19.2,-46.8 13.2,-30 13.2,-33.6 7.2,-12 13.2,-3.6 81.6,13.2" inkscape:connector-curvature="0" id="path32" style="stroke:#000000;stroke-width:8;stroke-miterlimit:4;stroke-dasharray:none;fill:none;stroke-opacity:1"/>
      <path d="m 1059.6,1084.8 -148.799,-6 -38.403,-7.2 -43.199,-30 -13.199,-30 2.398,-49.202 10.801,-45.597 L 908.398,794.398 978,732 l 38.4,-13.199 33.6,0 28.8,13.199 7.2,22.801 0,20.398 -16.8,36 -22.8,39.602 -39.6,36 49.2,-9.602 56.4,0 33.6,3.602 25.2,6 26.4,20.398 10.8,25.199 16.8,76.802 -10.8,75.6 -32.4,49.2 -145.2,156 -39.601,42 -26.398,43.2 -33.602,52.8 -36,36 -42,26.4 -50.398,9.6 -45.602,3.6 L 714,1490.4 680.398,1467.6 654,1444.8 l -13.199,-30 -2.403,-9.6 -26.398,-14.4 -50.398,-15.6 -13.204,-13.2 -13.199,-22.8 24,9.6 36,0 39.602,-3.6 26.398,-9.6" inkscape:connector-curvature="0" id="path34" style="stroke:#000000;stroke-width:8;stroke-miterlimit:4;stroke-dasharray:none;fill:none;stroke-opacity:1"/>
      <path d="m 638.398,1405.2 9.602,-22.8 9.602,-24" inkscape:connector-curvature="0" id="path36" style="stroke:#000000;stroke-width:8;stroke-miterlimit:4;stroke-dasharray:none;fill:none;stroke-opacity:1"/>
      <path d="m 535.199,1339.2 26.403,-7.2 33.597,-9.6 22.801,-20.4 39.602,-45.6 9.597,-33.6 7.199,-28.8 15.602,-156 16.801,-72 20.398,-55.199 81.602,-135.602 39.597,-62.398 66,-112.801 52.801,-72 79.201,-79.199 92.4,-109.199 26.4,-36 0,-20.403 L 1116,92.3984 1106.4,82.8008 1086,75.6016 927.602,66 888,58.8008 l -15.602,-6 L 859.199,36 l 0,-9.6016 9.602,-3.5976 22.801,16.8008 L 904.801,22.8008 1095.6,36 l 181.2,-6 20.4,2.3984 0,10.8008 -3.6,9.6016 16.8,-30 15.6,0 -6,26.3984 -16.8,13.1992 L 1290,72 l -128.4,7.1992 63.6,194.4028 6,26.398 -3.6,19.199 -45.6,126 49.2,-13.199 75.6,-13.199 62.4,0 66,9.597 52.8,26.403 69.6,-9.602 51.6,0 27.6,9.602 2.4,20.398 -16.8,39.602 -36,32.398 -15.6,13.199 -7.2,6 -49.2,110.403 -49.2,87.597 -43.2,79.204 -58.8,75.597 -66,60 -69.6,58.801" inkscape:connector-curvature="0" id="path38" style="stroke:#000000;stroke-width:8;stroke-miterlimit:4;stroke-dasharray:none;fill:none;stroke-opacity:1"/>
      <path d="M 910.801,603.602 980.398,306 973.199,270 914.398,96 891.602,72 872.398,72 714,66 674.398,52.8008 657.602,39.6016 l -6,-13.2032 6,-6 30,22.8008 28.796,-20.3984 142.801,3.5976" inkscape:connector-curvature="0" id="path40" style="stroke:#000000;stroke-width:8;stroke-miterlimit:4;stroke-dasharray:none;fill:none;stroke-opacity:1"/>
      <path d="m 963.602,66 0,26.3984 9.597,33.6016 76.801,174 0,16.801 -16.8,141.597" inkscape:connector-curvature="0" id="path42" style="stroke:#000000;stroke-width:8;stroke-miterlimit:4;stroke-dasharray:none;fill:none;stroke-opacity:1"/>
      <path d="m 706.801,1384.8 9.597,20.4 16.801,6 22.801,0 24,-9.6 9.602,-10.8 3.597,-8.4 -16.801,-7.2 -39.597,-7.2 -20.403,7.2 -9.597,9.6" inkscape:connector-curvature="0" id="path44" style="stroke:#000000;stroke-width:8;stroke-miterlimit:4;stroke-dasharray:none;fill:none;stroke-opacity:1"/>
    </g>
  </g>
</svg>
