<?xml version="1.0" encoding="UTF-8"?>
<!-- Created with Inkscape (http://www.inkscape.org/) -->
<svg xmlns:dc="http://purl.org/dc/elements/1.1/" xmlns:cc="http://creativecommons.org/ns#" xmlns:rdf="http://www.w3.org/1999/02/22-rdf-syntax-ns#" xmlns:svg="http://www.w3.org/2000/svg" xmlns="http://www.w3.org/2000/svg" xmlns:inkscape="http://www.inkscape.org/namespaces/inkscape" version="1.1" width="765" height="990" id="svg2" xml:space="preserve">
  <metadata id="metadata8">
    <rdf:RDF>
      <cc:Work rdf:about="">
        <dc:format>image/svg+xml</dc:format>
        <dc:type rdf:resource="http://purl.org/dc/dcmitype/StillImage"/>
      </cc:Work>
    </rdf:RDF>
  </metadata>
  <defs id="defs6"/>
  <g transform="matrix(1.25,0,0,-1.25,0,990)" id="g10">
    <g transform="scale(0.1,0.1)" id="g12">
      <path d="M 932.398,321.602 813.602,300 835.199,250.801 896.398,150 925.199,85.1992 844.801,105.602 750,127.199 l -164.398,26.403 -78,-1.204 -78,-6 L 364.801,130.801 348,127.199 307.199,112.801 288,97.1992 l -118.801,-36 -7.199,-8.3984 -3.602,-8.4024 2.403,-13.1992 8.398,-9.5976 10.801,-2.4024 26.398,9.6016 27.602,10.8008 64.801,22.7968 33.597,2.4024 34.801,-3.6016 92.403,-39.5976 10.796,1.1992 12,12 0,10.8008 -15.597,16.7968 -81.602,24 63.602,14.4026 58.801,6 73.199,2.398 75.597,-9.5974 85.204,-16.8008 103.199,-30 116.398,-33.6016 19.199,-3.5976 27.602,3.5976 9.6,7.1992 10.8,12 2.4,18 -2.4,22.8008 -96.002,245.9998" inkscape:connector-curvature="0" id="path14" style="stroke:#000000;stroke-width:8;stroke-miterlimit:4;stroke-dasharray:none;fill:none;stroke-opacity:1"/>
      <path d="M 162,55.1992 142.801,52.8008 132,42 l -3.602,-10.8008 -3.597,-12 37.199,3.6016" inkscape:connector-curvature="0" id="path16" style="stroke:#000000;stroke-width:8;stroke-miterlimit:4;stroke-dasharray:none;fill:none;stroke-opacity:1"/>
      <path d="m 478.801,52.8008 14.398,-3.6016 7.199,-10.8008 7.204,-9.5976 3.597,-9.6016 -37.199,6" inkscape:connector-curvature="0" id="path18" style="stroke:#000000;stroke-width:8;stroke-miterlimit:4;stroke-dasharray:none;fill:none;stroke-opacity:1"/>
      <path d="m 234,1065.6 565.199,0 0,-21.6 21.602,-3.6 36,-12 24,-14.4 32.398,-22.801 27.602,-28.801 25.199,-36 19.199,-36 L 1002,846 l 10.8,-44.398 6,-74.403 -6,-39.597 -16.8,-44.403 -20.398,-20.398 -16.801,-3.602 -26.403,1.199 -19.199,16.801 -9.597,20.403 -3.602,22.796 -2.398,16.801 6,57.602 7.199,63.597 -6,64.801 L 888,930 l -24,37.199 -24,27.602 -27.602,10.799 -13.199,0 0,-20.401 -74.398,0 0,-38.398 -110.403,0 0,38.398 -200.398,0 0,-38.398 -105.602,0 0,38.398 -74.398,0" inkscape:connector-curvature="0" id="path20" style="stroke:#000000;stroke-width:8;stroke-miterlimit:4;stroke-dasharray:none;fill:none;stroke-opacity:1"/>
      <path d="m 267.602,1065.6 72,356.4 13.199,22.8 9.597,7.2 10.801,3.6 16.801,0 16.801,-9.6 3.597,-10.8 0,-13.2" inkscape:connector-curvature="0" id="path22" style="stroke:#000000;stroke-width:8;stroke-miterlimit:4;stroke-dasharray:none;fill:none;stroke-opacity:1"/>
      <path d="m 338.398,1065.6 73.204,357.6 9.597,16.8 9.602,9.6 16.801,3.6 16.796,-4.8 9.602,-8.4 6,-10.8" inkscape:connector-curvature="0" id="path24" style="stroke:#000000;stroke-width:8;stroke-miterlimit:4;stroke-dasharray:none;fill:none;stroke-opacity:1"/>
      <path d="m 404.398,1065.6 73.204,356.4 7.199,16.8 13.199,10.8 14.398,2.4 16.801,-2.4 13.199,-10.8 3.602,-15.6" inkscape:connector-curvature="0" id="path26" style="stroke:#000000;stroke-width:8;stroke-miterlimit:4;stroke-dasharray:none;fill:none;stroke-opacity:1"/>
      <path d="m 471.602,1065.6 73.199,352.8 10.801,20.4 13.199,10.8 22.801,2.4 7.199,-2.4 10.801,-7.2 4.796,-19.2" inkscape:connector-curvature="0" id="path28" style="stroke:#000000;stroke-width:8;stroke-miterlimit:4;stroke-dasharray:none;fill:none;stroke-opacity:1"/>
      <path d="m 542.398,1065.6 70.801,350.4 7.199,19.2 7.204,10.8 16.796,7.2 20.403,-3.6 15.597,-9.6 6,-13.2" inkscape:connector-curvature="0" id="path30" style="stroke:#000000;stroke-width:8;stroke-miterlimit:4;stroke-dasharray:none;fill:none;stroke-opacity:1"/>
      <path d="m 614.398,1065.6 67.204,349.2 6,18 10.796,15.6 19.204,3.6 3.597,1.2 16.801,-7.2 10.801,-10.8 0,-12" inkscape:connector-curvature="0" id="path32" style="stroke:#000000;stroke-width:8;stroke-miterlimit:4;stroke-dasharray:none;fill:none;stroke-opacity:1"/>
      <path d="m 678,1065.6 70.801,360 7.199,14.4 9.602,9.6 10.796,2.4 16.801,0 15.602,-6 7.199,-10.8 3.602,-19.2 -73.204,-350.4 -512.398,0 0,-24 -26.398,-3.6 -36,-10.8 -25.204,-15.6 -30,-23.998 -27.5972,-30 -43.1992,-73.204 -12,-42 L 20.3984,798 l -6,-74.398 6,-39.602 18,-43.199 20.4024,-20.403 14.3984,-3.597 26.4024,2.398 22.7964,16.801 7.204,19.199 3.597,22.801 2.403,16.801 -6,58.801 L 120,816 l 6,63.602 14.398,46.796 24,39.602 24,27.602 26.403,10.798 19.199,1.2 0,-16.799" inkscape:connector-curvature="0" id="path34" style="stroke:#000000;stroke-width:8;stroke-miterlimit:4;stroke-dasharray:none;fill:none;stroke-opacity:1"/>
      <path d="m 499.199,742.801 -22.801,-12 -16.796,-20.403 -6,-16.796 -3.602,-16.801 6,-25.199 13.199,-16.801 13.199,-12 21.602,-7.199 16.801,-6 21.597,0 21.602,9.597 18,9.602 12,13.199 13.199,19.199 8.403,21.602 6,18 L 624,720 621.602,733.199 618,756 608.398,774 594,792 l -15.602,13.199 -13.199,6 -13.199,6 -18,1.199 -14.398,2.403 -19.204,0 -21.597,-2.403 -25.199,-7.199 -19.204,-10.801 -13.199,-12 -15.597,-13.199 -10.801,-12 -10.801,-20.398 -12,-20.403 -3.602,-19.199 -3.597,-26.398 -2.403,-25.199 2.403,-20.403 2.398,-30 10.801,-30 16.801,-33.597 30,-39.602 45.597,-44.398 67.204,-54 L 682.801,318" inkscape:connector-curvature="0" id="path36" style="stroke:#000000;stroke-width:8;stroke-miterlimit:4;stroke-dasharray:none;fill:none;stroke-opacity:1"/>
    </g>
  </g>
</svg>
