<?xml version="1.0" encoding="UTF-8"?>
<!-- Created with Inkscape (http://www.inkscape.org/) -->
<svg xmlns:dc="http://purl.org/dc/elements/1.1/" xmlns:cc="http://creativecommons.org/ns#" xmlns:rdf="http://www.w3.org/1999/02/22-rdf-syntax-ns#" xmlns:svg="http://www.w3.org/2000/svg" xmlns="http://www.w3.org/2000/svg" xmlns:inkscape="http://www.inkscape.org/namespaces/inkscape" version="1.1" width="765" height="990" id="svg2" xml:space="preserve">
  <metadata id="metadata8">
    <rdf:RDF>
      <cc:Work rdf:about="">
        <dc:format>image/svg+xml</dc:format>
        <dc:type rdf:resource="http://purl.org/dc/dcmitype/StillImage"/>
      </cc:Work>
    </rdf:RDF>
  </metadata>
  <defs id="defs6"/>
  <g transform="matrix(1.25,0,0,-1.25,0,990)" id="g10">
    <g transform="scale(0.1,0.1)" id="g12">
      <path d="m 1544.4,1461.6 -15.6,-322.8 -7.2,-274.8 -6,-211.199 -15.6,-150 -13.2,-144 6,-153.602 9.6,-48 6,-38.398 L 1506,80.3984 1486.8,54 1458,34.8008 l -34.8,-6 -64.8,16.8008 -25.2,19.1992 -42,8.3984 -96,-48 -396.001,3.6016 -15.597,51.5976 12,25.2036 36,6 136.796,28.796 115.202,58.801 76.8,28.801 67.2,15.602 48,40.796 15.6,42 3.6,44.403 -6,68.398 -3.6,88.801 -7.2,243.602 -2.4,242.398 -26.4,451.2 295.2,0" inkscape:connector-curvature="0" id="path14" style="stroke:#000000;stroke-width:8;stroke-miterlimit:4;stroke-dasharray:none;fill:none;stroke-opacity:1"/>
      <path d="m 340.801,876 0,-860.3984 67.199,0 L 408,876" inkscape:connector-curvature="0" id="path16" style="stroke:#000000;stroke-width:8;stroke-miterlimit:4;stroke-dasharray:none;fill:none;stroke-opacity:1"/>
      <path d="m 14.3984,879.602 718.8006,0 0,226.798 -13.199,25.2 -12,16.8 -32.398,0 -19.204,-3.6 -19.199,-13.2 -63.597,-56.4 L 516,1023.6 471.602,1000.8 416.398,988.801 372,985.199 331.199,988.801 276,1000.8 l -44.398,22.8 -57.602,51.6 -63.602,56.4 -19.1988,13.2 -19.1992,3.6 -32.3984,0 -13.2032,-16.8 -12,-25.2 0,-226.798" inkscape:connector-curvature="0" id="path18" style="stroke:#000000;stroke-width:8;stroke-miterlimit:4;stroke-dasharray:none;fill:none;stroke-opacity:1"/>
      <path d="m 506.398,1023.6 -57.597,376.8 -25.199,32.4 -19.204,13.2 -25.199,9.6 -10.801,0 -25.199,-9.6 -18,-13.2 -26.398,-32.4 -57.602,-376.8" inkscape:connector-curvature="0" id="path20" style="stroke:#000000;stroke-width:8;stroke-miterlimit:4;stroke-dasharray:none;fill:none;stroke-opacity:1"/>
      <path d="M 2032.8,745.199 2448,1144.8" inkscape:connector-curvature="0" id="path22" style="stroke:#000000;stroke-width:8;stroke-miterlimit:4;stroke-dasharray:none;fill:none;stroke-opacity:1"/>
      <path d="M 1882.8,802.801 2394,1292.4" inkscape:connector-curvature="0" id="path24" style="stroke:#000000;stroke-width:8;stroke-miterlimit:4;stroke-dasharray:none;fill:none;stroke-opacity:1"/>
      <path d="M 1783.2,908.398 2294.4,1398" inkscape:connector-curvature="0" id="path26" style="stroke:#000000;stroke-width:8;stroke-miterlimit:4;stroke-dasharray:none;fill:none;stroke-opacity:1"/>
      <path d="m 1732.8,1059.6 408,390" inkscape:connector-curvature="0" id="path28" style="stroke:#000000;stroke-width:8;stroke-miterlimit:4;stroke-dasharray:none;fill:none;stroke-opacity:1"/>
      <path d="m 2240.4,1426.8 -34.8,9.6 -36,13.2 -37.2,6 -39.6,0 -40.8,-2.4 -34.8,-3.6 -38.4,-13.2 -36,-12 -34.8,-16.8 -32.4,-22.8 -25.2,-21.6 -25.2,-26.4 -19.2,-22.8 -19.2,-27.6 -22.8,-42 -9.6,-31.2 -9.6,-36 -6,-34.8 -6,-42 0,-34.8 6,-42 9.6,-34.799 9.6,-32.403 15.6,-34.796 9.6,-19.204 13.2,-16.796 31.2,-34.801 32.4,-31.199 28.8,-22.801 34.8,-19.199 39.6,-19.204 37.2,-9.597 32.4,-9.602 38.4,0 38.4,-3.597 44.4,7.199 32.4,6 38.4,15.597 38.4,19.204 25.2,13.199 28.8,25.199 28.8,26.398 28.8,27.602 22.8,36 21.6,32.398 15.6,31.204 10.8,38.398 2.4,36 7.2,40.8 -3.6,34.8 -3.6,42 -9.6,34.8 -12,32.4 -16.8,42 -22.8,31.2 -21.6,26.4 -25.2,31.2 -32.4,22.8 -32.4,22.8 -34.8,15.6" inkscape:connector-curvature="0" id="path30" style="stroke:#000000;stroke-width:8;stroke-miterlimit:4;stroke-dasharray:none;fill:none;stroke-opacity:1"/>
    </g>
  </g>
</svg>
