<?xml version="1.0" encoding="UTF-8"?>
<!-- Created with Inkscape (http://www.inkscape.org/) -->
<svg xmlns:dc="http://purl.org/dc/elements/1.1/" xmlns:cc="http://creativecommons.org/ns#" xmlns:rdf="http://www.w3.org/1999/02/22-rdf-syntax-ns#" xmlns:svg="http://www.w3.org/2000/svg" xmlns="http://www.w3.org/2000/svg" xmlns:inkscape="http://www.inkscape.org/namespaces/inkscape" version="1.1" width="765" height="990" id="svg2" xml:space="preserve">
  <metadata id="metadata8">
    <rdf:RDF>
      <cc:Work rdf:about="">
        <dc:format>image/svg+xml</dc:format>
        <dc:type rdf:resource="http://purl.org/dc/dcmitype/StillImage"/>
      </cc:Work>
    </rdf:RDF>
  </metadata>
  <defs id="defs6"/>
  <g transform="matrix(1.25,0,0,-1.25,0,990)" id="g10">
    <g transform="scale(0.1,0.1)" id="g12">
      <path d="M 565.199,544.801 574.801,360 554.398,81.6016 650.398,18 26.3984,18 145.199,79.1992 67.1992,446.398 l 2.4024,37.204 12,18 L 102,516 l 15.602,6 15.597,0 19.199,-6 L 168,511.199 327.602,312 l 0,70.801 9.597,68.398 9.602,38.403 8.398,34.796 4.801,32.403 0,24 -20.398,16.801 -14.403,15.597 -10.801,15.602 -2.398,14.398 4.801,18 L 330,684 l 22.801,25.199 25.199,32.403 22.801,43.199 20.398,33.597 7.199,30 -2.398,22.801 -2.398,25.199 -15.602,18 -58.801,7.204 -14.398,30 -7.199,26.398 -10.801,14.398 10.801,18.002 16.796,20.4 10.801,22.8 2.403,10.8 126,-6 22.796,-9.6 0,-13.2 -4.796,-16.8 -10.801,-8.4 -9.602,-13.201 -7.199,-14.398 -7.199,-433.199 156,0 -9.602,488.398 -10.801,43.2 -27.597,36 -20.403,22.8 -25.199,9.6 -32.398,6 -18,2.4 -25.199,-6 -20.403,-4.8 -22.801,-4.8 -15.597,-13.2 -14.403,-14.4 -15.597,-26.4 -7.199,-21.6" inkscape:connector-curvature="0" id="path14" style="stroke:#000000;stroke-width:8;stroke-miterlimit:4;stroke-dasharray:none;fill:none;stroke-opacity:1"/>
      <path d="m 375.602,1010.4 43.199,-2.4 -13.199,10.8 -15.602,2.4 -14.398,-13.2" inkscape:connector-curvature="0" id="path16" style="stroke:#000000;stroke-width:8;stroke-miterlimit:4;stroke-dasharray:none;fill:none;stroke-opacity:1"/>
      <path d="m 170.398,513.602 -34.796,43.199 -22.801,10.801 -56.4026,0 L 72,496.801" inkscape:connector-curvature="0" id="path18" style="stroke:#000000;stroke-width:8;stroke-miterlimit:4;stroke-dasharray:none;fill:none;stroke-opacity:1"/>
      <path d="m 99.6016,567.602 0,354 81.5974,73.199 -164.3982,0 80.3984,-73.199" inkscape:connector-curvature="0" id="path20" style="stroke:#000000;stroke-width:8;stroke-miterlimit:4;stroke-dasharray:none;fill:none;stroke-opacity:1"/>
      <path d="m 393.602,1158 0,36 64.796,0 0,188.4 73.204,0 0,120 38.398,0 0,-344.4 -176.398,0" inkscape:connector-curvature="0" id="path22" style="stroke:#000000;stroke-width:8;stroke-miterlimit:4;stroke-dasharray:none;fill:none;stroke-opacity:1"/>
    </g>
  </g>
</svg>
