<?xml version="1.0" encoding="UTF-8"?>
<!-- Created with Inkscape (http://www.inkscape.org/) -->
<svg xmlns:dc="http://purl.org/dc/elements/1.1/" xmlns:cc="http://creativecommons.org/ns#" xmlns:rdf="http://www.w3.org/1999/02/22-rdf-syntax-ns#" xmlns:svg="http://www.w3.org/2000/svg" xmlns="http://www.w3.org/2000/svg" xmlns:inkscape="http://www.inkscape.org/namespaces/inkscape" version="1.1" width="765" height="990" id="svg2" xml:space="preserve">
  <metadata id="metadata8">
    <rdf:RDF>
      <cc:Work rdf:about="">
        <dc:format>image/svg+xml</dc:format>
        <dc:type rdf:resource="http://purl.org/dc/dcmitype/StillImage"/>
      </cc:Work>
    </rdf:RDF>
  </metadata>
  <defs id="defs6"/>
  <g transform="matrix(1.25,0,0,-1.25,0,990)" id="g10">
    <g transform="scale(0.1,0.1)" id="g12">
      <path d="m 1298.4,249.602 182.4,0 73.2,-234.0004 -326.4,0 70.8,234.0004" inkscape:connector-curvature="0" id="path14" style="stroke:#000000;stroke-width:8;stroke-miterlimit:4;stroke-dasharray:none;fill:none;stroke-opacity:1"/>
      <path d="M 1442.4,249.602 1557.6,396 1596,290.398 l -7.2,-54 9.6,-54 26.4,-61.199 25.2,-34.8006 22.8,-19.1992 15.6,2.4024 6,32.3984 0,51.602 -2.4,31.199 -13.2,45.597 -22.8,34.801 -12,15.602 -22.8,9.597 -6,-2.398 -13.2,-13.199" inkscape:connector-curvature="0" id="path16" style="stroke:#000000;stroke-width:8;stroke-miterlimit:4;stroke-dasharray:none;fill:none;stroke-opacity:1"/>
      <path d="m 1624.8,290.398 -45.6,128.403 -2.4,13.199 -7.2,9.602 -8.4,0 -147.6,-192" inkscape:connector-curvature="0" id="path18" style="stroke:#000000;stroke-width:8;stroke-miterlimit:4;stroke-dasharray:none;fill:none;stroke-opacity:1"/>
      <path d="m 1350,249.602 -128.4,172.796 -9.6,13.204 -6,-3.602 -7.2,-9.602 L 1144.8,288 1116,268.801 1096.8,240 l -15.6,-44.398 -7.2,-32.403 -2.4,-36 2.4,-25.199 3.6,-21.6016 9.6,-7.1992 32.4,22.8008 21.6,31.199 16.8,19.199 15.6,38.403 3.6,32.398 2.4,28.801 -2.4,19.199 -9.6,13.199 -6,2.403 -16.8,0" inkscape:connector-curvature="0" id="path20" style="stroke:#000000;stroke-width:8;stroke-miterlimit:4;stroke-dasharray:none;fill:none;stroke-opacity:1"/>
      <path d="m 1167.6,278.398 40.8,99.602 7.2,15.602 9.6,-9.602 98.4,-134.398" inkscape:connector-curvature="0" id="path22" style="stroke:#000000;stroke-width:8;stroke-miterlimit:4;stroke-dasharray:none;fill:none;stroke-opacity:1"/>
      <path d="m 1390.8,249.602 0,971.998 19.2,3.6 13.2,7.2 19.2,18 9.6,16.8 9.6,28.8 2.4,38.4 3.6,25.2 3.6,21.6 15.6,22.8 13.2,6 21.6,4.8 19.2,6 -6,9.6 -82.8,19.2 -61.2,6 -86.4,-6 -70.8,-13.2 0,-15.6 20.4,-3.6 31.2,-19.2 9.6,-13.2 7.2,-12 6,-42 0,-26.4 9.6,-34.8 6,-19.2 28.8,-21.6 22.8,-7.2 -3.6,-971.998" inkscape:connector-curvature="0" id="path24" style="stroke:#000000;stroke-width:8;stroke-miterlimit:4;stroke-dasharray:none;fill:none;stroke-opacity:1"/>
      <path d="m 1410,249.602 147.6,637.199 28.8,0 21.6,15.597 16.8,12 13.2,26.403 12,38.398 3.6,25.201 9.6,22.8 25.2,15.6 13.2,3.6 21.6,0 19.2,2.4 -3.6,9.6 -105.6,45.6 -44.4,15.6 -76.8,6 -67.2,3.6 -2.4,-15.6 15.6,-7.2 28.8,-25.2 9.6,-16.8 3.6,-12 -9.6,-38.4 -3.6,-28.801 0,-34.801 3.6,-19.199 21.6,-32.398 22.8,-9.602 -140.4,-639.597" inkscape:connector-curvature="0" id="path26" style="stroke:#000000;stroke-width:8;stroke-miterlimit:4;stroke-dasharray:none;fill:none;stroke-opacity:1"/>
      <path d="m 1362,249.602 -144,637.199 -27.6,0 -22.8,15.597 -16.8,12 -12,26.403 -13.2,38.398 0,25.201 -12,22.8 -26.4,19.2 -34.8,0 -19.2,2.4 3.6,9.6 76.8,36 54,19.2 96,12 67.2,3.6 2.4,-15.6 -15.6,-7.2 -28.8,-25.2 -9.6,-16.8 -3.6,-12 9.6,-38.4 3.6,-28.801 0,-54 -21.6,-32.398 -22.8,-9.602 130.8,-639.597" inkscape:connector-curvature="0" id="path28" style="stroke:#000000;stroke-width:8;stroke-miterlimit:4;stroke-dasharray:none;fill:none;stroke-opacity:1"/>
      <path d="m 484.801,994.801 18,-86.403 22.801,-102 0,-109.199 -15.602,-48 -61.199,-15.597 -82.801,-26.403 -70.801,-34.801 -38.398,-28.796 70.801,0 L 379.199,534 426,520.801 l 19.199,-12 3.602,-9.602 6,-19.199" inkscape:connector-curvature="0" id="path30" style="stroke:#000000;stroke-width:8;stroke-miterlimit:4;stroke-dasharray:none;fill:none;stroke-opacity:1"/>
      <path d="M 256.801,543.602 231.602,524.398 208.801,432 l -15.602,-90 -9.597,-90 -12,-85.199 L 154.801,102 135.602,76.8008 103.199,57.6016 68.3984,48 39.6016,44.3984 18,40.8008 14.3984,15.6016 l 115.2036,3.5976 31.199,9.6016 22.801,-9.6016 28.796,0 13.204,6 6,13.1992 -3.602,12 -2.398,16.8008 0,34.8008 2.398,36 16.801,46.801 15.597,39.597 13.204,48 6,48 6,44.403 3.597,31.199 6,22.801 13.199,48 25.204,32.398 15.597,9.602" inkscape:connector-curvature="0" id="path32" style="stroke:#000000;stroke-width:8;stroke-miterlimit:4;stroke-dasharray:none;fill:none;stroke-opacity:1"/>
      <path d="m 362.398,534 -15.597,-21.602 -6,-45.597 21.597,-63.602 32.403,-82.801 19.199,-51.597 25.199,-54 9.602,-45.602 0,-42 L 436.801,96 420,73.1992 400.801,54 l -21.602,-9.6016 -36,-3.5976 0,-21.6016 61.199,2.4024 28.801,10.7968 44.403,28.8008 28.796,6 22.801,13.1992 9.602,21.6016 -9.602,22.801 -13.199,15.597 -13.199,44.403 -8.403,51.597 -9.597,57.602 -3.602,42 -9.597,34.801 -16.801,44.398 -2.403,28.801 0,32.398 42,19.204 50.403,13.199 54,3.597 48,2.403 36,3.597 L 714,534 730.801,562.801 727.199,620.398 720,675.602 711.602,720 698.398,764.398 691.199,816 l 7.199,60 13.204,48 25.199,70.801 42,-54 28.801,-38.403 40.796,-64.796 -6,-50.403 0,-74.398 2.403,-60 -6,-32.403 -28.801,-31.199 -9.602,-32.398 19.204,-3.602 22.796,36 12,-10.801 -6,-28.796 -9.597,-28.801 L 816,501.602 804,486 816,472.801 844.801,492 l 20.398,16.801 15.602,34.801 3.597,22.796 -3.597,51.602 15.597,44.398 12,63.602 4.801,51.602 6,46.796 -3.597,30 -31.204,63.602 -36,63.602 -54,67.198 -32.398,32.4 -42,22.8 -34.801,2.4 0,61.2 38.403,32.4 28.796,32.4 19.204,31.2 19.199,32.4 13.199,34.8 0,28.8 -9.602,28.8 -15.597,26.4 -22.801,21.6 -22.801,13.2 -31.199,6 -36,-3.6 -38.398,-12 -25.204,-19.2 -16.796,-26.4 -18,-25.2 115.199,-31.2 -9.602,-22.8 18,-13.2 16.801,-9.6 3.602,-16.8 -9.602,-25.2 -7.199,-28.8 7.199,-21.6 2.398,-9.6" inkscape:connector-curvature="0" id="path34" style="stroke:#000000;stroke-width:8;stroke-miterlimit:4;stroke-dasharray:none;fill:none;stroke-opacity:1"/>
      <path d="m 573.602,1298.4 38.398,-12 -9.602,25.2 -13.199,3.6 -15.597,-10.8" inkscape:connector-curvature="0" id="path36" style="stroke:#000000;stroke-width:8;stroke-miterlimit:4;stroke-dasharray:none;fill:none;stroke-opacity:1"/>
      <path d="m 573.602,1369.2 -34.801,-34.8 -28.801,-22.8 -22.801,-19.2 0,-16.8 32.403,-31.2 0,-32.4 2.398,-19.2 48,-18 0,-58.8 -54,-2.4 -44.398,-19.2 -26.403,-22.8 -50.398,-42 -34.801,-37.202 -42,-49.199 31.199,74.401 22.801,63.6 13.199,44.4 3.602,16.8 40.801,21.6 28.796,26.4 -13.199,9.6 -37.199,-13.2 12,19.2 19.199,15.6 22.801,13.2 25.199,6 22.801,7.2 -28.801,12 -36,-6 -37.199,-15.6 -32.398,-28.8 -13.204,-32.4 0,-9.6 -28.796,-38.4 -25.204,-38.4 -19.199,-42 L 270,1008 264,979.199 256.801,940.801 250.801,912 264,879.602 279.602,866.398 318,864 l 22.801,6 34.801,25.199 38.398,42 38.398,32.403 28.801,25.199" inkscape:connector-curvature="0" id="path38" style="stroke:#000000;stroke-width:8;stroke-miterlimit:4;stroke-dasharray:none;fill:none;stroke-opacity:1"/>
    </g>
  </g>
</svg>
