<?xml version="1.0" encoding="UTF-8"?>
<!-- Created with Inkscape (http://www.inkscape.org/) -->
<svg xmlns:dc="http://purl.org/dc/elements/1.1/" xmlns:cc="http://creativecommons.org/ns#" xmlns:rdf="http://www.w3.org/1999/02/22-rdf-syntax-ns#" xmlns:svg="http://www.w3.org/2000/svg" xmlns="http://www.w3.org/2000/svg" xmlns:inkscape="http://www.inkscape.org/namespaces/inkscape" version="1.1" width="765" height="990" id="svg2" xml:space="preserve">
  <metadata id="metadata8">
    <rdf:RDF>
      <cc:Work rdf:about="">
        <dc:format>image/svg+xml</dc:format>
        <dc:type rdf:resource="http://purl.org/dc/dcmitype/StillImage"/>
      </cc:Work>
    </rdf:RDF>
  </metadata>
  <defs id="defs6"/>
  <g transform="matrix(1.25,0,0,-1.25,0,990)" id="g10">
    <g transform="scale(0.1,0.1)" id="g12">
      <path d="M 2872.8,289.199 2713.2,312 l -61.2,-7.199 -57.6,-19.199 -67.2,-34.801 -123.6,-38.403 -268.8,-25.199 -271.2,9.602 -118.8,22.801 -70.8,31.199 -32.4,48 -28.8,96 10.8,153.597 25.2,63.602 21.6,55.199 55.2,34.801 376.8,0" inkscape:connector-curvature="0" id="path14" style="stroke:#000000;stroke-width:8;stroke-miterlimit:4;stroke-dasharray:none;fill:none;stroke-opacity:1"/>
      <path d="m 1840.8,708 -51.6,0 -73.2,25.199 -57.6,32.403 -38.4,32.398 -42,44.398 -19.2,38.403 -6,26.398 70.8,-39.597 121.2,-28.801 88.8,-2.403 122.4,0 76.8,2.403 102,10.801 105.6,0 86.4,-10.801 66,-40.801 70.8,-57.602 42,-51.597 63.6,-57.602 82.8,-12 74.4,-7.199 70.8,13.199 72,19.199 0,-351.597" inkscape:connector-curvature="0" id="path16" style="stroke:#000000;stroke-width:8;stroke-miterlimit:4;stroke-dasharray:none;fill:none;stroke-opacity:1"/>
      <path d="m 807.602,1071.6 -70.801,7.2 -111.602,-7.2 -82.801,9.6 -26.398,-9.6 -19.199,-25.2 6,-44.4 L 542.398,883.199 558,850.801 596.398,800.398 691.199,681.602 896.398,468 1044,330 1357.2,22.8008 l 31.2,0 9.6,16.8008 -12,28.7968 -134.4,307.2036 -19.2,57.597 -51.6,127.199 -15.6,32.403 -40.8,86.398 -76.8,130.801 -80.401,130.801 -54,74.399 -48,69.6 -48,63.6 -57.597,67.2 -57.602,38.4 -16.801,67.2 -12,74.4 -19.199,48 -55.199,12 -90,0 -98.403,-3.6 -48,-12 -22.796,-7.2 -162,-21.6 -48,-22.8 -15.602,-21.6 -4.801,-45.6 20.403,32.4 31.199,15.6 96,0 99.597,-2.4 51.602,-13.2 -42,50.4 -9.602,36" inkscape:connector-curvature="0" id="path18" style="stroke:#000000;stroke-width:8;stroke-miterlimit:4;stroke-dasharray:none;fill:none;stroke-opacity:1"/>
      <path d="m 462,1372.8 9.602,2.4 6,16.8 -6,15.6 -13.204,9.6 -13.199,-9.6 -2.398,-19.2 6,-9.6 9.597,-6" inkscape:connector-curvature="0" id="path20" style="stroke:#000000;stroke-width:8;stroke-miterlimit:4;stroke-dasharray:none;fill:none;stroke-opacity:1"/>
      <path d="m 126,1340.4 128.398,3.6 98.403,-13.2 28.801,-15.6 9.597,-32.4 3.602,-34.8 -28.801,-70.8 -13.199,-86.4 15.597,-105.601 13.204,-46.801 19.199,-57.597 13.199,-26.403 44.398,-90 163.204,-294 L 688.801,345.602 702,250.801 685.199,87.6016 669.602,70.8008 577.199,61.1992 468,64.8008 462,48 l -48,-6 -6,-9.6016 8.398,-12 L 691.199,30 976.801,16.8008 l 12,13.1992 -6,15.6016 -44.403,0 -25.199,22.7968 -164.398,2.4024 -18,13.1992 18,201.602 118.801,-61.204 67.199,198 128.399,-319.199 44.4,-57.5974 44.4,-25.2032 67.2,0 38.4,12 9.6,19.2032 L 1236,138" inkscape:connector-curvature="0" id="path22" style="stroke:#000000;stroke-width:8;stroke-miterlimit:4;stroke-dasharray:none;fill:none;stroke-opacity:1"/>
      <path d="m 442.801,787.199 25.199,-96 9.602,-98.398 3.597,-38.403 0,-178.796 L 448.801,193.199 420,99.6016 400.801,76.8008 247.199,68.3984 231.602,45.6016 196.801,42 l -13.199,-9.6016 13.199,-12 L 314.398,30 349.199,26.3984" inkscape:connector-curvature="0" id="path24" style="stroke:#000000;stroke-width:8;stroke-miterlimit:4;stroke-dasharray:none;fill:none;stroke-opacity:1"/>
      <path d="m 465.602,64.8008 -55.204,-6 0,0 L 379.199,51.6016 360,26.3984 l 12,-6 19.199,19.2032 L 410.398,42" inkscape:connector-curvature="0" id="path26" style="stroke:#000000;stroke-width:8;stroke-miterlimit:4;stroke-dasharray:none;fill:none;stroke-opacity:1"/>
      <path d="M 462,68.3984 531.602,330 640.801,266.398 662.398,384" inkscape:connector-curvature="0" id="path28" style="stroke:#000000;stroke-width:8;stroke-miterlimit:4;stroke-dasharray:none;fill:none;stroke-opacity:1"/>
      <path d="m 237.602,64.8008 -51.602,-6 0,0 -31.199,-7.1992 -19.199,-25.2032 9.597,-6 L 168,39.6016 193.199,42" inkscape:connector-curvature="0" id="path30" style="stroke:#000000;stroke-width:8;stroke-miterlimit:4;stroke-dasharray:none;fill:none;stroke-opacity:1"/>
      <path d="m 919.199,68.3984 60,-7.1992 28.801,-9.5976 19.2,-25.2032 -8.4,-6 L 996,39.6016 979.199,42" inkscape:connector-curvature="0" id="path32" style="stroke:#000000;stroke-width:8;stroke-miterlimit:4;stroke-dasharray:none;fill:none;stroke-opacity:1"/>
      <path d="m 1453.2,883.199 -454.802,0" inkscape:connector-curvature="0" id="path34" style="stroke:#000000;stroke-width:8;stroke-miterlimit:4;stroke-dasharray:none;fill:none;stroke-opacity:1"/>
      <path d="m 397.199,883.199 -69.597,0 L 270,870 214.801,844.801 158.398,804 120,771.602 85.1992,733.199 l -30,-38.398 -18,-38.403 L 24,618 l -7.1992,-32.398 -2.4024,-28.801 1438.8016,0" inkscape:connector-curvature="0" id="path36" style="stroke:#000000;stroke-width:8;stroke-miterlimit:4;stroke-dasharray:none;fill:none;stroke-opacity:1"/>
    </g>
  </g>
</svg>
