<?xml version="1.0" encoding="UTF-8"?>
<!-- Created with Inkscape (http://www.inkscape.org/) -->
<svg xmlns:dc="http://purl.org/dc/elements/1.1/" xmlns:cc="http://creativecommons.org/ns#" xmlns:rdf="http://www.w3.org/1999/02/22-rdf-syntax-ns#" xmlns:svg="http://www.w3.org/2000/svg" xmlns="http://www.w3.org/2000/svg" xmlns:inkscape="http://www.inkscape.org/namespaces/inkscape" version="1.1" width="765" height="990" id="svg2" xml:space="preserve">
  <metadata id="metadata8">
    <rdf:RDF>
      <cc:Work rdf:about="">
        <dc:format>image/svg+xml</dc:format>
        <dc:type rdf:resource="http://purl.org/dc/dcmitype/StillImage"/>
      </cc:Work>
    </rdf:RDF>
  </metadata>
  <defs id="defs6"/>
  <g transform="matrix(1.25,0,0,-1.25,0,990)" id="g10">
    <g transform="scale(0.1,0.1)" id="g12">
      <path d="m 439.199,667.199 -43.199,3.602 -68.398,-3.602 -50.403,6 -15.597,-6 -12,-15.597 3.597,-27.602 19.199,-62.398 37.204,-60 121.199,-144 62.398,-58.801 90,-84 L 774,27.6016 l 19.199,0 6,9.5976 -8.398,18 -81.602,185.9998 -12,36 -62.398,150 -55.199,97.199 -45.602,62.403 -32.398,45.597 -27.602,42 -30,39.602 -34.801,40.801 -34.801,22.801 -9.597,42 -8.403,44.398 -10.796,28.801 -33.602,8.398 -55.199,0 -60,-2.398 -28.801,-8.403 -14.398,-3.597 -98.4028,-13.199 -30,-14.403 -9.5976,-12 -2.4024,-27.597 12,19.199 19.1992,9.597 58.8006,0 60,-1.199 31.199,-8.398 -25.199,31.199 -6,20.398" inkscape:connector-curvature="0" id="path14" style="stroke:#000000;stroke-width:8;stroke-miterlimit:4;stroke-dasharray:none;fill:none;stroke-opacity:1"/>
      <path d="m 228,850.801 6,1.199 3.602,10.801 -3.602,8.398 -8.398,6 -7.204,-6 -2.398,-12 4.801,-4.801 4.801,-3.597" inkscape:connector-curvature="0" id="path16" style="stroke:#000000;stroke-width:8;stroke-miterlimit:4;stroke-dasharray:none;fill:none;stroke-opacity:1"/>
      <path d="m 24,830.398 78,2.403 60,-8.403 16.801,-9.597 6,-19.199 2.398,-21.602 -18,-43.199 -7.199,-51.602 9.602,-64.801 7.199,-28.796 21.597,-58.801 L 225.602,480 286.801,376.801 366,224.398 374.398,165.602 364.801,66 l -9.602,-9.6016 -56.398,-6 -67.199,2.4024 -3.602,-9.6016 -28.801,-3.5976 -4.801,-6 6,-8.4024 168,6 L 541.199,24 l 8.403,7.1992 -3.602,9.6016 -27.602,0 -15.597,14.3984 -99.602,1.1992 -10.801,8.4024 10.801,122.3982 72,-37.199 42,121.199 78,-195.5974 26.403,-34.8008 27.597,-15.6016 40.801,0 22.801,8.4024 7.199,10.7968 -20.398,52.8008" inkscape:connector-curvature="0" id="path18" style="stroke:#000000;stroke-width:8;stroke-miterlimit:4;stroke-dasharray:none;fill:none;stroke-opacity:1"/>
      <path d="M 216,493.199 241.199,350.398 240,241.199 220.801,130.801 202.801,74.3984 190.801,60 97.1992,55.1992 87.6016,40.8008 66,39.6016 l -7.1992,-6 7.1992,-8.4024 72,6 21.602,-2.3984" inkscape:connector-curvature="0" id="path20" style="stroke:#000000;stroke-width:8;stroke-miterlimit:4;stroke-dasharray:none;fill:none;stroke-opacity:1"/>
      <path d="m 230.398,52.8008 -33.597,-3.6016 0,0 -19.199,-4.8008 -12,-15.5976 8.398,-3.6016 10.801,12 12,2.4024" inkscape:connector-curvature="0" id="path22" style="stroke:#000000;stroke-width:8;stroke-miterlimit:4;stroke-dasharray:none;fill:none;stroke-opacity:1"/>
      <path d="m 228,55.1992 43.199,159.6018 66,-39.602 13.199,73.199" inkscape:connector-curvature="0" id="path24" style="stroke:#000000;stroke-width:8;stroke-miterlimit:4;stroke-dasharray:none;fill:none;stroke-opacity:1"/>
      <path d="M 91.1992,52.8008 60,49.1992 l 0,0 -19.1992,-4.8008 -12,-15.5976 6,-3.6016 14.3984,12 15.6016,2.4024" inkscape:connector-curvature="0" id="path26" style="stroke:#000000;stroke-width:8;stroke-miterlimit:4;stroke-dasharray:none;fill:none;stroke-opacity:1"/>
      <path d="m 506.398,55.1992 37.204,-4.8008 18,-6 10.796,-15.5976 -4.796,-3.6016 -14.403,12 -9.597,2.4024" inkscape:connector-curvature="0" id="path28" style="stroke:#000000;stroke-width:8;stroke-miterlimit:4;stroke-dasharray:none;fill:none;stroke-opacity:1"/>
      <path d="m 1282.8,661.199 -43.2,3.602 -67.2,-3.602 -51.6,6 -15.6,-6 -10.8,-15.597 3.6,-27.602 19.2,-62.398 37.2,-60 121.2,-145.204 62.4,-57.597 88.8,-84 190.8,-187.1994 20.4,0 6,9.5976 -8.4,18 -81.6,187.1988 -12,34.801 -62.4,150 -56.4,97.199 -44.4,62.403 -33.6,45.597 -27.6,42 -28.8,39.602 -34.8,40.801 -34.8,24 -10.8,39.597 -7.2,45.602 -12,28.801 -32.4,8.398 -55.2,0 -60,-2.398 -30,-7.199 L 998.398,882 898.801,867.602 870,854.398 860.398,840 858,812.398 l 12,20.403 19.199,9.597 58.801,0 60,-2.398 31.2,-7.199 -25.2,31.199 -6,21.602" inkscape:connector-curvature="0" id="path30" style="stroke:#000000;stroke-width:8;stroke-miterlimit:4;stroke-dasharray:none;fill:none;stroke-opacity:1"/>
      <path d="m 1072.8,843.602 6,2.398 3.6,9.602 -3.6,10.796 -8.4,4.801 -7.2,-4.801 -2.4,-12 3.6,-6 6,-4.796" inkscape:connector-curvature="0" id="path32" style="stroke:#000000;stroke-width:8;stroke-miterlimit:4;stroke-dasharray:none;fill:none;stroke-opacity:1"/>
      <path d="m 867.602,824.398 78,2.403 61.198,-7.199 16.8,-10.801 6,-19.199 2.4,-21.602 -18,-42 -7.2,-54 9.6,-63.602 7.2,-28.796 21.6,-58.801 25.2,-46.801 61.2,-103.199 79.2,-152.403 8.4,-58.796 -10.8,-99.602 -9.6,-9.6016 -56.4,-6 -66,2.4024 -3.6,-9.6016 -30,-3.5976 -3.6,-6 6,-8.4024 168,6 L 1386,18 l 8.4,7.1992 -3.6,9.6016 -27.6,0 -15.6,14.3984 -99.6,1.1992 -12,8.4024 12,122.3982 72,-37.199 40.8,121.199 78,-195.5974 27.6,-34.8008 26.4,-15.6016 42,0 22.8,8.4024 6,10.7968 -19.2,52.8008" inkscape:connector-curvature="0" id="path34" style="stroke:#000000;stroke-width:8;stroke-miterlimit:4;stroke-dasharray:none;fill:none;stroke-opacity:1"/>
      <path d="M 1060.8,487.199 1086,345.602 1084.8,236.398 1064.4,124.801 1047.6,68.3984 1035.6,54 942,49.1992 l -9.602,-14.3984 -21.597,-1.1992 -8.403,-6 8.403,-8.4024 72,6 21.599,-2.3984" inkscape:connector-curvature="0" id="path36" style="stroke:#000000;stroke-width:8;stroke-miterlimit:4;stroke-dasharray:none;fill:none;stroke-opacity:1"/>
      <path d="m 1074,46.8008 -32.4,-3.6016 0,0 -19.2,-4.8008 -12,-15.5976 7.2,-3.6016 12,12 12,2.4024" inkscape:connector-curvature="0" id="path38" style="stroke:#000000;stroke-width:8;stroke-miterlimit:4;stroke-dasharray:none;fill:none;stroke-opacity:1"/>
      <path d="m 1072.8,49.1992 43.2,159.6018 66,-38.403 13.2,70.801" inkscape:connector-curvature="0" id="path40" style="stroke:#000000;stroke-width:8;stroke-miterlimit:4;stroke-dasharray:none;fill:none;stroke-opacity:1"/>
      <path d="m 936,46.8008 -31.199,-3.6016 0,0 -19.199,-4.8008 -12,-15.5976 6,-3.6016 14.398,12 15.602,2.4024" inkscape:connector-curvature="0" id="path42" style="stroke:#000000;stroke-width:8;stroke-miterlimit:4;stroke-dasharray:none;fill:none;stroke-opacity:1"/>
      <path d="m 1351.2,49.1992 37.2,-4.8008 18,-6 10.8,-15.5976 -6,-3.6016 -13.2,12 -9.6,2.4024" inkscape:connector-curvature="0" id="path44" style="stroke:#000000;stroke-width:8;stroke-miterlimit:4;stroke-dasharray:none;fill:none;stroke-opacity:1"/>
      <path d="m 2068.8,280.801 -24,2.398 -27.6,4.801 -21.6,12 -18,12 -31.2,33.602 -28.8,32.398 -27.6,37.199 -13.2,28.801 -9.6,24 -14.4,43.199 -3.6,50.403 3.6,24 14.4,26.398 22.8,28.801 -37.2,12 -26.4,21.597 -45.6,60 31.2,-91.199 21.6,-75.597 3.6,-39.602 6,-31.199 9.6,-31.199 9.6,-27.602 15.6,-25.199 15.6,-26.403 19.2,-21.597 22.8,-24 16.8,-19.199 14.4,-13.204 8.4,-8.398 -39.6,14.398 -43.2,15.602 -39.6,19.199 -40.8,40.801 -22.8,32.398 -18,30 -18,38.403 -15.6,45.597 -10.8,42 -6,42 -3.6,32.403 3.6,34.801 9.6,27.597 33.6,45.602 16.8,19.199 -44.4,19.199 -34.8,27.602 -39.6,54 24,-81.602 22.8,-80.398 -3.6,-54 1.2,-40.801 8.4,-40.801 6,-37.199 12,-33.602 10.8,-28.796 14.4,-30 19.2,-36 49.2,-61.204 -39.6,21.602 -37.2,24 -40.8,34.801 -40.8,38.398 -27.6,43.199 -13.2,40.801 -9.6,45.602 3.6,43.199 6,16.801 12,22.801 15.6,18 -37.2,20.398 -34.8,26.398 -45.6,58.801 30,-85.199 31.2,-88.801 4.8,-31.199 2.4,-22.801 9.6,-37.199 19.2,-46.801 15.6,-24 24,-25.199 19.2,-19.199 27.6,-24 27.6,-19.199 34.8,-21.602 38.4,-22.801 91.2,-37.199 76.8,-25.199 56.4,-9.602 22.8,-3.597 0,10.796" inkscape:connector-curvature="0" id="path46" style="stroke:#000000;stroke-width:8;stroke-miterlimit:4;stroke-dasharray:none;fill:none;stroke-opacity:1"/>
    </g>
  </g>
</svg>
