<?xml version="1.0" encoding="UTF-8"?>
<!-- Created with Inkscape (http://www.inkscape.org/) -->
<svg xmlns:dc="http://purl.org/dc/elements/1.1/" xmlns:cc="http://creativecommons.org/ns#" xmlns:rdf="http://www.w3.org/1999/02/22-rdf-syntax-ns#" xmlns:svg="http://www.w3.org/2000/svg" xmlns="http://www.w3.org/2000/svg" xmlns:inkscape="http://www.inkscape.org/namespaces/inkscape" version="1.1" width="765" height="990" id="svg2" xml:space="preserve">
  <metadata id="metadata8">
    <rdf:RDF>
      <cc:Work rdf:about="">
        <dc:format>image/svg+xml</dc:format>
        <dc:type rdf:resource="http://purl.org/dc/dcmitype/StillImage"/>
      </cc:Work>
    </rdf:RDF>
  </metadata>
  <defs id="defs6"/>
  <g transform="matrix(1.25,0,0,-1.25,0,990)" id="g10">
    <g transform="scale(0.1,0.1)" id="g12">
      <path d="m 1522.8,27.6016 0,372.0004 18,50.398 24,26.398 40.8,30 32.4,6 32.4,-9.597 24,-8.403 30,-30 40.8,-70.796 40.8,-58.801 44.4,-52.801 39.6,-24 43.2,-6 44.4,12 30,18 28.8,28.801 68.4,94.801 32.4,42 30,32.398 30,14.398 25.2,12 27.6,0 24,-6 37.2,-18 44.4,-44.398 42,-56.398 44.4,-61.204 32.4,-32.398 30,-24 32.4,-9.602 20.4,-2.398 40.8,6 36,26.398 24,26.403 25.2,36 21.6,32.398 58.8,91.199 30,24 34.8,14.403 48,0 32.4,-16.801 26.4,-27.602 26.4,-64.796 0,-372.0004 -1438.8,0" inkscape:connector-curvature="0" id="path14" style="stroke:#000000;stroke-width:8;stroke-miterlimit:4;stroke-dasharray:none;fill:none;stroke-opacity:1"/>
      <path d="m 264,1017.6 -55.199,-923.9984 0,-32.4024 32.398,-34.8008 25.199,-6 22.801,-3.5976 19.199,0 25.204,9.5976 L 354,42 366,64.8008 308.398,1017.6" inkscape:connector-curvature="0" id="path16" style="stroke:#000000;stroke-width:8;stroke-miterlimit:4;stroke-dasharray:none;fill:none;stroke-opacity:1"/>
      <path d="m 573.602,1017.6 -15.602,67.2 -28.801,64.8 -42,50.4 -25.199,25.2 -44.398,25.2 -38.403,13.2 -32.398,9.6 -38.403,7.2 -48,0 -60,-13.2 -64.796,-34.8 L 91.1992,1192.8 72,1171.2 46.8008,1129.2 26.3984,1081.2 18,1050 l -3.6016,-32.4 559.2036,0" inkscape:connector-curvature="0" id="path18" style="stroke:#000000;stroke-width:8;stroke-miterlimit:4;stroke-dasharray:none;fill:none;stroke-opacity:1"/>
      <path d="m 266.398,1276.8 -18,153.6 6,15.6 19.204,9.6 25.199,-3.6 19.199,-6 3.602,-19.2 -13.204,-144" inkscape:connector-curvature="0" id="path20" style="stroke:#000000;stroke-width:8;stroke-miterlimit:4;stroke-dasharray:none;fill:none;stroke-opacity:1"/>
      <path d="m 1364.4,1452 -15.6,-322.8 -6,-274.802 -7.2,-211.199 -15.6,-150 -13.2,-144 7.2,-153.597 9.6,-48 6,-37.204 -3.6,-39.5972 -19.2,-25.1992 -28.8,-19.2032 -34.8,-6 -64.8,15.6016 -24,19.1992 -42,9.6016 -96,-48 -397.201,3.5976 -15.597,50.4024 13.199,26.3984 34.801,5.9998 138,28.801 115.199,57.602 76.801,28.796 67.198,15.602 46.8,42 16.8,40.801 2.4,45.597 -6,67.204 -2.4,88.796 -7.2,243.602 -3.6,242.4 -25.2,451.2 294,0" inkscape:connector-curvature="0" id="path22" style="stroke:#000000;stroke-width:8;stroke-miterlimit:4;stroke-dasharray:none;fill:none;stroke-opacity:1"/>
      <path d="m 2223.6,1399.2 -32.4,0 -48,-10.8 -44.4,-8.4 -28.8,-13.2 -28.8,-19.2 -28.8,-19.2 -28.8,-32.4 -22.8,-34.8 -15.6,-38.4 -9.6,-48 -2.4,-51.6 2.4,-34.8 13.2,-44.4 19.2,-44.398 25.2,-42 34.8,-32.403 30,-15.597 31.2,-15.602 28.8,-10.801 32.4,-2.398 69.6,-6 44.4,2.398 45.6,6 38.4,10.801 25.2,8.398 22.8,16.801 19.2,12 21.6,20.403 20.4,25.199 18,28.799 7.2,19.2 9.6,19.2 6,21.6 3.6,26.4 6,38.4 -3.6,28.8 -2.4,31.2 -13.2,38.4 -15.6,42 -22.8,25.2 -32.4,32.4 -25.2,19.2 -25.2,19.2 -51.6,19.2 -44.4,9.6 -44.4,3.6" inkscape:connector-curvature="0" id="path24" style="stroke:#000000;stroke-width:8;stroke-miterlimit:4;stroke-dasharray:none;fill:none;stroke-opacity:1"/>
      <path d="m 2086.8,1372.8 -26.4,0 -9.6,9.6 -6,9.6 -3.6,19.2 3.6,19.2 8.4,13.2 16.8,6 300,0 13.2,-6 9.6,-13.2 3.6,-15.6 0,-9.6 -3.6,-13.2 -6,-9.6 -13.2,-9.6 -25.2,0" inkscape:connector-curvature="0" id="path26" style="stroke:#000000;stroke-width:8;stroke-miterlimit:4;stroke-dasharray:none;fill:none;stroke-opacity:1"/>
    </g>
  </g>
</svg>
