<?xml version="1.0" encoding="UTF-8"?>
<!-- Created with Inkscape (http://www.inkscape.org/) -->
<svg xmlns:dc="http://purl.org/dc/elements/1.1/" xmlns:cc="http://creativecommons.org/ns#" xmlns:rdf="http://www.w3.org/1999/02/22-rdf-syntax-ns#" xmlns:svg="http://www.w3.org/2000/svg" xmlns="http://www.w3.org/2000/svg" xmlns:inkscape="http://www.inkscape.org/namespaces/inkscape" version="1.1" width="765" height="990" id="svg2" xml:space="preserve">
  <metadata id="metadata8">
    <rdf:RDF>
      <cc:Work rdf:about="">
        <dc:format>image/svg+xml</dc:format>
        <dc:type rdf:resource="http://purl.org/dc/dcmitype/StillImage"/>
      </cc:Work>
    </rdf:RDF>
  </metadata>
  <defs id="defs6"/>
  <g transform="matrix(1.25,0,0,-1.25,0,990)" id="g10">
    <g transform="scale(0.1,0.1)" id="g12">
      <path d="M 295.199,441.602 266.398,444 222,441.602 188.398,445.199 177.602,441.602 170.398,432 172.801,412.801 186,372 210,332.398 289.199,237.602 330,200.398 390,144 514.801,21.6016 l 12,0 4.801,7.1992 -6,10.8008 L 472.801,163.199 464.398,186 423.602,284.398 386.398,348 l -28.796,40.801 -22.801,30 -16.801,27.597 -19.199,25.204 -24,27.597 -22.801,15.602 -6,26.398 -4.801,28.801 -8.398,19.199 -21.602,6 -36,0 -39.597,-1.199 -19.204,-6 -8.398,-2.398 -66,-8.403 -19.1992,-9.597 -6,-8.403 -1.1992,-18 7.1992,13.199 13.1992,6 38.3984,0 L 114,559.199 134.398,554.398 117.602,574.801 114,588" inkscape:connector-curvature="0" id="path14" style="stroke:#000000;stroke-width:8;stroke-miterlimit:4;stroke-dasharray:none;fill:none;stroke-opacity:1"/>
      <path d="m 156,561.602 3.602,1.199 2.398,6 -2.398,7.199 -4.801,3.602 L 150,576 l -1.199,-8.398 2.398,-3.602 3.602,-2.398" inkscape:connector-curvature="0" id="path16" style="stroke:#000000;stroke-width:8;stroke-miterlimit:4;stroke-dasharray:none;fill:none;stroke-opacity:1"/>
      <path d="m 21.6016,549.602 51.5976,1.199 39.6018,-6 12,-6 3.597,-13.199 1.204,-13.204 -12,-28.796 -4.801,-33.602 6,-43.199 6,-19.199 14.398,-38.403 15.602,-31.199 39.597,-67.199 52.801,-99.602 4.801,-38.398 -6,-66.0002 -6,-6 -37.199,-3.6016 -44.403,1.1992 -2.398,-6 L 136.801,30 l -2.403,-3.6016 4.801,-6 109.199,4.8008 114,-6 4.801,6 -2.398,6 -18,0 -10.801,8.4024 -64.801,1.1992 -7.199,4.8008 7.199,81.5974 48,-24 26.403,79.199 L 397.199,54 l 18,-22.8008 16.801,-10.8008 27.602,0 15.597,6 3.602,7.2032 -13.199,34.7968" inkscape:connector-curvature="0" id="path18" style="stroke:#000000;stroke-width:8;stroke-miterlimit:4;stroke-dasharray:none;fill:none;stroke-opacity:1"/>
      <path d="M 148.801,327.602 165.602,234 164.398,163.199 151.199,90 140.398,52.8008 132,43.1992 70.8008,39.6016 l -6,-8.4024 L 50.3984,30 l -4.7968,-3.6016 4.7968,-6 46.8008,4.8008 14.4028,-2.3984" inkscape:connector-curvature="0" id="path20" style="stroke:#000000;stroke-width:8;stroke-miterlimit:4;stroke-dasharray:none;fill:none;stroke-opacity:1"/>
      <path d="M 157.199,38.3984 135.602,36 l 0,0 -12,-2.3984 -8.403,-10.8008 4.801,-2.4024 8.398,8.4024 7.204,1.1992" inkscape:connector-curvature="0" id="path22" style="stroke:#000000;stroke-width:8;stroke-miterlimit:4;stroke-dasharray:none;fill:none;stroke-opacity:1"/>
      <path d="M 156,39.6016 183.602,144 228,118.801 l 8.398,48" inkscape:connector-curvature="0" id="path24" style="stroke:#000000;stroke-width:8;stroke-miterlimit:4;stroke-dasharray:none;fill:none;stroke-opacity:1"/>
      <path d="M 67.1992,38.3984 46.8008,36 l 0,0 L 33.6016,33.6016 25.1992,22.8008 30,20.3984 38.3984,28.8008 49.1992,30" inkscape:connector-curvature="0" id="path26" style="stroke:#000000;stroke-width:8;stroke-miterlimit:4;stroke-dasharray:none;fill:none;stroke-opacity:1"/>
      <path d="m 339.602,39.6016 24,-2.4024 12,-3.5976 7.199,-10.8008 -3.602,-2.4024 -9.597,8.4024 -6,1.1992" inkscape:connector-curvature="0" id="path28" style="stroke:#000000;stroke-width:8;stroke-miterlimit:4;stroke-dasharray:none;fill:none;stroke-opacity:1"/>
      <path d="m 580.801,556.801 9.597,9.597 19.204,6 18,0 18,-4.796 10.796,-6 8.403,-10.801 7.199,-13.199 -44.398,-474.0004 7.199,-24 14.398,-13.2032 13.199,-7.1992 14.403,-3.5976 20.398,1.1992 14.403,6 10.796,12 8.403,12 L 738,66 696,536.398 692.398,552 684,566.398 666,582 646.801,589.199 621.602,591.602 600,588 583.199,579.602 570,566.398 l 0,-6 3.602,-4.796 6,0" inkscape:connector-curvature="0" id="path30" style="stroke:#000000;stroke-width:8;stroke-miterlimit:4;stroke-dasharray:none;fill:none;stroke-opacity:1"/>
      <path d="m 864,136.801 0,40.801 43.199,50.398 -4.801,19.199 -6,19.199 -6,31.204 -4.796,22.796 L 882,342 l 1.199,24 7.199,20.398 10.801,19.204 0,8.398 -4.801,3.602 -8.398,-1.204 -7.199,-6 -6,-7.199 -7.199,-7.199 -6,2.398 -2.403,4.801 0,3.602 6,7.199 -6,-4.801 -6,-1.199 -8.398,3.602 -9.602,9.597 -4.801,6 1.204,7.199 6,8.403 18,19.199 19.199,21.602 3.597,1.199 L 882,498 l 4.801,6 7.199,3.602 9.602,-2.403 4.796,-6 -4.796,-6 -6,-16.801" inkscape:connector-curvature="0" id="path32" style="stroke:#000000;stroke-width:8;stroke-miterlimit:4;stroke-dasharray:none;fill:none;stroke-opacity:1"/>
      <path d="M 879.602,483.602 888,486 l 10.801,0" inkscape:connector-curvature="0" id="path34" style="stroke:#000000;stroke-width:8;stroke-miterlimit:4;stroke-dasharray:none;fill:none;stroke-opacity:1"/>
      <path d="m 908.398,498 3.602,3.602 9.602,0 4.796,-3.602 3.602,-9.602 0,-16.796" inkscape:connector-curvature="0" id="path36" style="stroke:#000000;stroke-width:8;stroke-miterlimit:4;stroke-dasharray:none;fill:none;stroke-opacity:1"/>
      <path d="M 931.199,477.602 942,472.801 955.199,456 l 15.602,-24 18,-37.199 2.398,-12 4.801,-12 363.6,0 20.4,15.597 15.6,14.403 22.8,28.801 12,18 6,20.398 3.6,15.602 0,9.597 -3.6,13.199 -2.4,9.602 -7.2,8.398 -10.8,7.204 -7.2,3.597 -19.2,0 -14.4,-2.398 -13.2,-6 -12,-9.602 -8.4,-9.597 -7.2,-6 2.4,-10.801 -2.4,-13.199 -4.8,-9.602 -14.4,-10.801 -7.2,-4.801 -6,0 -12,2.403 -6,9.597 -1.2,10.801 3.6,8.403 3.6,7.199 8.4,8.398 9.6,4.801 9.6,0 6,4.801 25.2,26.398 8.4,7.199 16.8,6 14.4,3.602 22.8,-1.199 18,-7.199 12,-13.204 9.6,-16.796 1.2,-8.403 1.2,-16.801 -1.2,-14.398 0,-12 -3.6,-15.602 -12,-28.796 -10.8,-16.801 L 1410,378 l -12,-14.398 -3.6,-32.403 0,-33.597 -4.8,-33.602 -4.8,-15.602 3.6,-4.796 10.8,-15.602 9.6,-16.801 4.8,-21.597 -2.4,-16.801 -6,-32.403 -1.2,-32.398 -26.4,0 -6,-6 0,-6 2.4,-1.1992 4.8,-2.4024 1.2,1.2032 1.2,-1.2032 6,3.6016 2.4,6 -6,6 -30,0 1.2,12 4.8,7.199 10.8,7.199 13.2,2.403 1.2,19.199 0,21.602 -3.6,21.597 -15.6,26.403 -20.4,22.796 -3.6,20.403 -7.2,32.398 -16.8,32.403 -365.998,0 -6,-12 -4.801,-16.801 L 936,276 l -1.199,-19.199 3.597,-19.199 9.602,-32.403 -16.801,-16.801 -7.199,7.204 -32.398,-26.403 -1.204,-32.398 1.204,-2.403 -1.204,-26.398 -31.199,0 -6,-4.801 0,-5.9998 2.403,-2.3984 2.398,-1.1992 4.801,-1.2032 3.597,1.2032 4.801,2.3984 1.199,6 -4.796,6 -32.403,0 0,12 7.199,10.801 10.801,4.801 9.602,1.199" inkscape:connector-curvature="0" id="path38" style="stroke:#000000;stroke-width:8;stroke-miterlimit:4;stroke-dasharray:none;fill:none;stroke-opacity:1"/>
      <path d="m 882,456 1.199,-3.602 8.403,2.403 -3.602,4.801 -4.801,-2.403" inkscape:connector-curvature="0" id="path40" style="stroke:#000000;stroke-width:8;stroke-miterlimit:4;stroke-dasharray:none;fill:none;stroke-opacity:1"/>
      <path d="m 1024.8,271.199 241.2,0 0,-177.5974 -241.2,0 0,177.5974" inkscape:connector-curvature="0" id="path42" style="stroke:#000000;stroke-width:8;stroke-miterlimit:4;stroke-dasharray:none;fill:none;stroke-opacity:1"/>
      <path d="m 1024.8,93.6016 241.199,0 0,177.598 -241.199,0 0,-177.598 z" inkscape:connector-curvature="0" id="path44" style="stroke:#000000;stroke-width:8;stroke-miterlimit:4;stroke-dasharray:none;fill:none;stroke-opacity:1"/>
    </g>
  </g>
</svg>
