<?xml version="1.0" encoding="UTF-8"?>
<!-- Created with Inkscape (http://www.inkscape.org/) -->
<svg xmlns:dc="http://purl.org/dc/elements/1.1/" xmlns:cc="http://creativecommons.org/ns#" xmlns:rdf="http://www.w3.org/1999/02/22-rdf-syntax-ns#" xmlns:svg="http://www.w3.org/2000/svg" xmlns="http://www.w3.org/2000/svg" xmlns:inkscape="http://www.inkscape.org/namespaces/inkscape" version="1.1" width="765" height="990" id="svg2" xml:space="preserve">
  <metadata id="metadata8">
    <rdf:RDF>
      <cc:Work rdf:about="">
        <dc:format>image/svg+xml</dc:format>
        <dc:type rdf:resource="http://purl.org/dc/dcmitype/StillImage"/>
      </cc:Work>
    </rdf:RDF>
  </metadata>
  <defs id="defs6"/>
  <g transform="matrix(1.25,0,0,-1.25,0,990)" id="g10">
    <g transform="scale(0.1,0.1)" id="g12">
      <path d="m 242.398,558 3.602,6 4.801,3.602 6,2.398 6,-1.199 4.801,-3.602 1.199,-3.597 2.398,-6 0,-84 -199.199,0 0,84 2.3984,6 1.2032,3.597 3.5976,3.602 6,1.199 7.1992,-2.398 4.8008,-3.602 2.4024,-6" inkscape:connector-curvature="0" id="path14" style="stroke:#000000;stroke-width:8;stroke-miterlimit:4;stroke-dasharray:none;fill:none;stroke-opacity:1"/>
      <path d="m 176.398,633.602 -10.796,0 -6,-1.204 -3.602,0 -3.602,-2.398 -2.398,0 -3.602,-1.199 -3.597,-2.403 L 138,625.199 135.602,624 132,621.602 l -2.398,-1.204 -2.403,-2.398 -3.597,-3.602 -6,-4.796 -1.204,-2.403 L 114,606 l -3.602,-4.801 -2.398,-6 -1.199,-3.597 -2.403,-2.403 -1.199,-8.398 -2.398,-2.403 0,-4.796 -1.1994,-2.403 0,-14.398 1.1994,-4.801 2.398,-7.199 0,-3.602 1.199,-3.597 2.403,-4.801 1.199,-2.403 3.602,-3.597 0,-2.403 3.597,-3.597 1.199,-2.403 2.403,-3.597 6,-3.602 3.597,-2.398 3.602,-3.602 1.199,-1.199 3.602,-2.398 3.597,-1.204 3.602,-1.199 3.602,-2.398 3.597,0 2.403,-1.199 4.796,-1.204 26.403,0 3.597,1.204 3.602,1.199 3.602,0 2.398,2.398 4.801,1.199 3.597,1.204 2.403,2.398 2.398,1.199 3.602,3.602 3.597,2.398 4.801,3.602 3.602,3.597 1.199,2.403 2.398,3.597 2.403,2.403 2.398,3.597 1.199,2.403 1.204,4.801 1.199,3.597 1.199,3.602 1.199,7.199 1.199,4.801 0,14.398 -1.199,2.403 0,4.796 -1.199,2.403 -1.199,6 -2.403,4.801 -1.199,3.597 -2.398,3.602 -3.602,7.199 -2.398,1.199 -2.403,2.403 -6,4.796 L 216,618 l -2.398,2.398 -2.403,1.204 -4.801,2.398 -2.398,1.199 -3.602,1.199 -3.597,2.403 -3.602,1.199 -3.597,0 -3.602,2.398 -2.398,0 -3.602,1.204 -9.602,0" inkscape:connector-curvature="0" id="path16" style="stroke:#000000;stroke-width:8;stroke-miterlimit:4;stroke-dasharray:none;fill:none;stroke-opacity:1"/>
      <path d="m 286.801,14.3984 -274.801,0 66,25.2032 -38.3984,129.5974 -1.2032,12 -1.1992,10.801 1.1992,9.602 2.4024,6 3.5976,4.796 6,2.403 4.8008,1.199 9.6016,0 2.3984,-1.199 6,-2.403 7.1992,-6 75.6016,-93.597 7.199,147.597 3.602,22.801 3.597,15.602 2.403,9.597 9.597,8.403 9.602,6 4.801,3.597 7.199,1.204 7.199,0 6,-1.204 13.199,-7.199 6,-7.199 4.801,-8.398 6,-12 2.403,-13.204 L 252,264 253.199,253.199 253.199,54 250.801,46.8008 246,39.6016 289.199,12" inkscape:connector-curvature="0" id="path18" style="stroke:#000000;stroke-width:8;stroke-miterlimit:4;stroke-dasharray:none;fill:none;stroke-opacity:1"/>
      <path d="m 162,237.602 -25.199,0 1.199,40.796 3.602,20.403 6,15.597 6,15.602" inkscape:connector-curvature="0" id="path20" style="stroke:#000000;stroke-width:8;stroke-miterlimit:4;stroke-dasharray:none;fill:none;stroke-opacity:1"/>
      <path d="m 254.398,237.602 24,0 L 280.801,342 276,362.398 268.801,382.801 254.398,408 l -15.597,15.602 -19.199,12 -20.403,4.796 -21.597,3.602" inkscape:connector-curvature="0" id="path22" style="stroke:#000000;stroke-width:8;stroke-miterlimit:4;stroke-dasharray:none;fill:none;stroke-opacity:1"/>
      <path d="m 152.398,427.199 7.204,-3.597 3.597,3.597 -4.801,6 -4.796,-6" inkscape:connector-curvature="0" id="path24" style="stroke:#000000;stroke-width:8;stroke-miterlimit:4;stroke-dasharray:none;fill:none;stroke-opacity:1"/>
      <path d="m 152.398,330 -3.597,4.801 -1.199,13.199 10.796,24 20.403,25.199 3.597,4.801 3.602,7.199 2.398,9.602 -1.199,8.398 -3.597,8.403 -7.204,8.398 -14.398,1.199 -14.398,-2.398 -10.801,-2.403 -8.403,-7.199 -12,0 -14.398,-3.597 -15.6016,-7.204 -12,-6 L 55.1992,400.801 44.3984,390 l -4.7968,-7.199 3.5976,-2.403 15.6016,13.204 18,14.398 13.1992,6 14.398,3.602 14.403,0 12,-2.403 9.597,-3.597 7.204,-8.403 -1.204,-10.801 -12,-22.796 -8.398,-19.204 -7.199,-21.597 4.801,-13.199 8.398,-8.403 13.199,-2.398" inkscape:connector-curvature="0" id="path26" style="stroke:#000000;stroke-width:8;stroke-miterlimit:4;stroke-dasharray:none;fill:none;stroke-opacity:1"/>
    </g>
  </g>
</svg>
