<?xml version="1.0" encoding="UTF-8"?>
<!-- Created with Inkscape (http://www.inkscape.org/) -->
<svg xmlns:dc="http://purl.org/dc/elements/1.1/" xmlns:cc="http://creativecommons.org/ns#" xmlns:rdf="http://www.w3.org/1999/02/22-rdf-syntax-ns#" xmlns:svg="http://www.w3.org/2000/svg" xmlns="http://www.w3.org/2000/svg" xmlns:inkscape="http://www.inkscape.org/namespaces/inkscape" version="1.1" width="765" height="990" id="svg2" xml:space="preserve">
  <metadata id="metadata8">
    <rdf:RDF>
      <cc:Work rdf:about="">
        <dc:format>image/svg+xml</dc:format>
        <dc:type rdf:resource="http://purl.org/dc/dcmitype/StillImage"/>
      </cc:Work>
    </rdf:RDF>
  </metadata>
  <defs id="defs6"/>
  <g transform="matrix(1.25,0,0,-1.25,0,990)" id="g10">
    <g transform="scale(0.1,0.1)" id="g12">
      <path d="m 4352.4,1278 72,0 112.8,141.6 96,-122.4 92.4,122.4 92.4,-122.4 91.2,122.4 96,-122.4 88.8,122.4 96,-122.4 88.8,122.4 99.6,-122.4 92.4,122.4 92.4,-122.4 87.6,122.4 118.8,-141.6 73.2,0 -187.2,228 -96,-126 -88.8,126 -90,-135.6 -105.6,135.6 -85.2,-126 -98.4,126 -86.4,-126 -96,126 -94.8,-135.6 L 4722,1506 4633.2,1376.4 4530,1506 4352.4,1278" inkscape:connector-curvature="0" id="path14" style="stroke:#000000;stroke-width:8;stroke-miterlimit:4;stroke-dasharray:none;fill:none;stroke-opacity:1"/>
      <path d="m 4352.4,651.602 72,0 112.8,138 96,-121.204 92.4,121.204 92.4,-121.204 91.2,121.204 96,-121.204 88.8,121.204 96,-121.204 88.8,121.204 99.6,-121.204 92.4,121.204 92.4,-121.204 87.6,121.204 118.8,-138 73.2,0 -187.2,223.199 -96,-121.199 -88.8,121.199 L 5380.8,744 5275.2,874.801 5190,753.602 5091.6,874.801 5005.2,753.602 4909.2,874.801 4814.4,744 4722,874.801 4633.2,750 4530,874.801 4352.4,651.602" inkscape:connector-curvature="0" id="path16" style="stroke:#000000;stroke-width:8;stroke-miterlimit:4;stroke-dasharray:none;fill:none;stroke-opacity:1"/>
      <path d="m 4352.4,21.6016 72,0 112.8,138.0004 96,-118.8012 92.4,118.8012 92.4,-118.8012 91.2,118.8012 96,-118.8012 88.8,118.8012 96,-118.8012 88.8,118.8012 99.6,-118.8012 92.4,118.8012 92.4,-118.8012 87.6,118.8012 118.8,-138.0004 73.2,0 -187.2,226.7964 -96,-124.796 -88.8,124.796 L 5380.8,114 5275.2,248.398 5190,123.602 5091.6,248.398 5005.2,123.602 4909.2,248.398 4814.4,114 4722,248.398 4633.2,120 4530,248.398 4352.4,21.6016" inkscape:connector-curvature="0" id="path18" style="stroke:#000000;stroke-width:8;stroke-miterlimit:4;stroke-dasharray:none;fill:none;stroke-opacity:1"/>
      <path d="m 735.602,1119.6 -73.204,7.2 -115.199,-7.2 -85.199,9.6 -26.398,-9.6 -20.403,-26.4 7.199,-45.6 L 454.801,942 517.199,840 722.398,595.199 828,495.602 979.199,354 1302,37.1992 l 33.6,0 L 1345.2,54 1332,84 1194,400.801 1173.6,459.602 1068,714 l -96,165.602 -75.602,105.597 -55.199,75.601 -46.801,72 -49.199,66 -60,69.6 -58.801,39.6 -16.796,68.4 -13.204,76.8 -19.199,49.2 -56.398,13.2 -92.403,0 -102,-3.6 -49.199,-13.2 -24,-6 L 85.1992,1470 36,1446 19.1992,1423.2 16.8008,1376.4 36,1410 l 33.6016,16.8 98.3984,0 102,-3.6 52.801,-13.2 -43.199,52.8 -9.602,36" inkscape:connector-curvature="0" id="path20" style="stroke:#000000;stroke-width:8;stroke-miterlimit:4;stroke-dasharray:none;fill:none;stroke-opacity:1"/>
      <path d="m 379.199,1430.4 9.602,2.4 7.199,16.8 -7.199,16.8 -13.199,9.6 -13.204,-9.6 -3.597,-20.4 7.199,-9.6 9.602,-6" inkscape:connector-curvature="0" id="path22" style="stroke:#000000;stroke-width:8;stroke-miterlimit:4;stroke-dasharray:none;fill:none;stroke-opacity:1"/>
      <path d="m 32.3984,1396.8 131.9996,3.6 102,-13.2 30,-16.8 10.801,-32.4 2.403,-37.2 -30,-72 -13.204,-88.8 16.801,-109.2 13.199,-49.198 36,-99.602 43.204,-79.199 102,-174 135.597,-258 13.199,-99.602 -16.796,-168 L 592.801,87.6016 498,78 385.199,80.3984 379.199,64.8008 330,57.6016 322.801,48 l 9.597,-13.1992 284.403,9.5976 292.801,-13.1992 13.199,13.1992 -6,16.8008 -45.602,0 L 843.602,84 l -168,3.6016 -19.204,13.1994 19.204,207.597 L 798,246 866.398,450 999.602,120 1045.2,61.1992 l 45.6,-26.3984 69.6,0 L 1200,48 l 9.6,19.1992 -32.4,89.9998" inkscape:connector-curvature="0" id="path24" style="stroke:#000000;stroke-width:8;stroke-miterlimit:4;stroke-dasharray:none;fill:none;stroke-opacity:1"/>
      <path d="M 358.801,825.602 402,585.602 399.602,400.801 366,212.398 336,116.398 316.801,93.6016 158.398,84 141.602,61.1992 105.602,57.6016 92.3984,48 105.602,34.8008 228,44.3984 264,40.8008" inkscape:connector-curvature="0" id="path26" style="stroke:#000000;stroke-width:8;stroke-miterlimit:4;stroke-dasharray:none;fill:none;stroke-opacity:1"/>
      <path d="m 382.801,80.3984 -56.403,-6 0,0 L 294,67.1992 273.602,40.8008 l 13.199,-6 20.398,19.1992 19.199,3.6016" inkscape:connector-curvature="0" id="path28" style="stroke:#000000;stroke-width:8;stroke-miterlimit:4;stroke-dasharray:none;fill:none;stroke-opacity:1"/>
      <path d="m 379.199,84 72,270 L 564,289.199 586.801,410.398" inkscape:connector-curvature="0" id="path30" style="stroke:#000000;stroke-width:8;stroke-miterlimit:4;stroke-dasharray:none;fill:none;stroke-opacity:1"/>
      <path d="m 147.602,80.3984 -51.602,-6 0,0 -33.6016,-7.1992 -19.1992,-26.3984 9.6016,-6 L 75.6016,54 102,57.6016" inkscape:connector-curvature="0" id="path32" style="stroke:#000000;stroke-width:8;stroke-miterlimit:4;stroke-dasharray:none;fill:none;stroke-opacity:1"/>
      <path d="m 850.801,84 62.398,-6 30,-10.8008 19.199,-26.3984 -9.597,-6 L 930,54 913.199,57.6016" inkscape:connector-curvature="0" id="path34" style="stroke:#000000;stroke-width:8;stroke-miterlimit:4;stroke-dasharray:none;fill:none;stroke-opacity:1"/>
      <path d="m 1808.4,660 -82.8,0 -9.6,37.199 -20.4,49.199 -16.8,19.204 -36,24 -94.8,9.597 -92.4,-6 0,64.801 12,56.398 26.4,62.403 60,65.999 56.4,33.6 55.2,19.2 62.4,20.4 63.6,0 79.2,-6 79.2,-20.4 85.2,-39.6 75.6,-52.801 75.6,-79.199 73.2,-98.398 32.4,-76.801 13.2,-75.602 3.6,-52.801 -3.6,-56.398 -13.2,-49.199 -19.2,-45.602 -19.2,-27.597 -37.2,-22.801 -55.2,-28.801 -75.6,-10.801 -86.4,16.801 -36,26.398 -37.2,39.602 -19.2,72 -3.6,46.801 22.8,58.801 16.8,50.398 -6,68.398 -22.8,20.403 -30,7.199 -30,0 -30,-14.398 -15.6,-42 0,-63.602" inkscape:connector-curvature="0" id="path36" style="stroke:#000000;stroke-width:8;stroke-miterlimit:4;stroke-dasharray:none;fill:none;stroke-opacity:1"/>
      <path d="m 3249.6,1522.8 -16.8,-333.6 -7.2,-284.399 -6,-217.199 -16.8,-154.801 -13.2,-148.801 6,-158.398 10.8,-49.204 6,-39.597 -3.6,-39.6018 -19.2,-26.3984 -30,-19.1992 -36,-7.2032 -66,16.8008 -26.4,19.1992 -42,10.8008 -99.6,-50.3984 -409.2,3.5976 -16.8,52.8008 13.2,26.4028 37.2,6 141.6,30 118.8,60 79.2,30 68.4,15.597 50.4,43.199 16.8,43.204 2.4,45.597 -7.2,69.602 -2.4,92.398 -7.2,250.801 -2.4,250.8 -26.4,464.4 303.6,0" inkscape:connector-curvature="0" id="path38" style="stroke:#000000;stroke-width:8;stroke-miterlimit:4;stroke-dasharray:none;fill:none;stroke-opacity:1"/>
      <path d="m 3794.4,1087.2 -39.6,-20.4 -30,-36 -9.6,-28.8 -7.2,-30 9.6,-46.801 24,-28.801 22.8,-20.398 39.6,-13.199 30,-9.602 36,0 39.6,16.801 32.4,15.602 20.4,24 22.8,32.398 16.8,39.602 9.6,33.598 3.6,32.4 -3.6,22.8 -7.2,39.6 -15.6,33.6 -26.4,32.4 -26.4,24 -22.8,9.6 -24,9.6 -32.4,3.6 -26.4,2.4 -33.6,0 -39.6,-2.4 -42,-13.2 -36,-20.4 -24,-19.2 -26.4,-24 -19.2,-22.8 -20.4,-36 -19.2,-36 -7.2,-33.6 -6,-45.6 -3.6,-46.801 3.6,-36 3.6,-52.801 19.2,-52.796 30,-60 52.8,-68.403 L 3744,576 3862.8,480 4119.6,334.801" inkscape:connector-curvature="0" id="path40" style="stroke:#000000;stroke-width:8;stroke-miterlimit:4;stroke-dasharray:none;fill:none;stroke-opacity:1"/>
    </g>
  </g>
</svg>
