<?xml version="1.0" encoding="UTF-8"?>
<!-- Created with Inkscape (http://www.inkscape.org/) -->
<svg xmlns:dc="http://purl.org/dc/elements/1.1/" xmlns:cc="http://creativecommons.org/ns#" xmlns:rdf="http://www.w3.org/1999/02/22-rdf-syntax-ns#" xmlns:svg="http://www.w3.org/2000/svg" xmlns="http://www.w3.org/2000/svg" xmlns:inkscape="http://www.inkscape.org/namespaces/inkscape" version="1.1" width="765" height="990" id="svg2" xml:space="preserve">
  <metadata id="metadata8">
    <rdf:RDF>
      <cc:Work rdf:about="">
        <dc:format>image/svg+xml</dc:format>
        <dc:type rdf:resource="http://purl.org/dc/dcmitype/StillImage"/>
      </cc:Work>
    </rdf:RDF>
  </metadata>
  <defs id="defs6"/>
  <g transform="matrix(1.25,0,0,-1.25,0,990)" id="g10">
    <g transform="scale(0.1,0.1)" id="g12">
      <path d="m 1542,180 -27.6,-13.199 -42,3.597 -38.4,25.204 -25.2,48 -3.6,48 12,38.398 33.6,34.801 43.2,13.199 48,-9.602 39.6,-34.796 21.6,-51.602 -3.6,-40.801 -18,-36 -36,-28.801 0,3.602 73.2,-163.1992 -236.4,0 74.4,165.5972" inkscape:connector-curvature="0" id="path14" style="stroke:#000000;stroke-width:8;stroke-miterlimit:4;stroke-dasharray:none;fill:none;stroke-opacity:1"/>
      <path d="m 1411.2,234 -169.2,-88.801 0,255.602 166.8,-90" inkscape:connector-curvature="0" id="path16" style="stroke:#000000;stroke-width:8;stroke-miterlimit:4;stroke-dasharray:none;fill:none;stroke-opacity:1"/>
      <path d="m 1597.2,308.398 162,82.801 0,-236.398 -159.6,76.801" inkscape:connector-curvature="0" id="path18" style="stroke:#000000;stroke-width:8;stroke-miterlimit:4;stroke-dasharray:none;fill:none;stroke-opacity:1"/>
      <path d="m 1430.4,352.801 -34.8,67.199 -6,140.398 117.6,664.802 15.6,73.2 22.8,70.8 32.4,51.6 50.4,28.8 45.6,6 44.4,0 80.4,-12 48,-28.8 46.8,-51.6 36,-86.4 12,-61.2 10.8,-86.4 -10.8,-194.399 -21.6,-195.602 -19.2,-390 6,-102 22.8,-99.597 34.8,-54.0004 44.4,-54" inkscape:connector-curvature="0" id="path20" style="stroke:#000000;stroke-width:8;stroke-miterlimit:4;stroke-dasharray:none;fill:none;stroke-opacity:1"/>
      <path d="m 1533.6,1318.8 8.4,-160.8 68.4,-549.602 2.4,-175.199 -19.2,-57.597 -22.8,-32.403" inkscape:connector-curvature="0" id="path22" style="stroke:#000000;stroke-width:8;stroke-miterlimit:4;stroke-dasharray:none;fill:none;stroke-opacity:1"/>
      <path d="m 379.199,670.801 148.801,0 -2.398,55.199 15.597,72 14.403,42 30,68.398 138,242.402 7.199,52.8 2.398,25.2 -4.801,44.4 -7.199,30 -12,37.2 -22.801,34.8 -18,20.4 -44.398,43.2 -36,12 -72,7.2 -60,-7.2 -25.199,-9.6 -30,-20.4 -27.602,-30 -12,-18 -12,-14.4" inkscape:connector-curvature="0" id="path24" style="stroke:#000000;stroke-width:8;stroke-miterlimit:4;stroke-dasharray:none;fill:none;stroke-opacity:1"/>
      <path d="m 340.801,1356 -21.602,-9.6 -244.8006,-48 -22.7968,-18 -16.8008,-12 -15.6016,-27.6 -4.8008,-39.6 2.4024,-10.8 7.1992,-4.8 4.8008,0 13.1992,4.8 4.8008,22.8 14.3984,22.8 22.8008,20.4 25.199,7.2 32.403,9.6 201.597,27.6 6,2.4 30,-4.8" inkscape:connector-curvature="0" id="path26" style="stroke:#000000;stroke-width:8;stroke-miterlimit:4;stroke-dasharray:none;fill:none;stroke-opacity:1"/>
      <path d="m 343.199,1356 36,-60 0,-32.4" inkscape:connector-curvature="0" id="path28" style="stroke:#000000;stroke-width:8;stroke-miterlimit:4;stroke-dasharray:none;fill:none;stroke-opacity:1"/>
      <path d="m 51.6016,1215.6 22.7968,15.6 37.2036,9.6 97.199,9.6 97.199,13.2 75.602,0 19.199,-2.4 40.801,-10.8 69.597,-12 37.199,-2.4 27.602,2.4 30,7.2 18,-9.6 7.199,-12 2.403,-30 -2.403,-25.2 L 618,1138.8 508.801,992.398 453.602,906 430.801,860.398 403.199,807.602 388.801,740.398 379.199,670.801" inkscape:connector-curvature="0" id="path30" style="stroke:#000000;stroke-width:8;stroke-miterlimit:4;stroke-dasharray:none;fill:none;stroke-opacity:1"/>
      <path d="m 592.801,1448.4 130.801,-48 127.199,-32.4 52.801,-9.6 44.398,-2.4 55.2,0 60,2.4 45.6,9.6 44.4,10.8 4.8,-6 -4.8,-16.8 -18,-13.2 -60,-12 -58.8,-7.2 -68.4,0 -56.398,4.8 -98.403,18 -54,16.8" inkscape:connector-curvature="0" id="path32" style="stroke:#000000;stroke-width:8;stroke-miterlimit:4;stroke-dasharray:none;fill:none;stroke-opacity:1"/>
      <path d="m 668.398,1400.4 98.403,-51.6 97.199,-50.4 60,-30 44.398,-18 50.402,-12 34.8,-4.8 64.8,-7.2 27.6,4.8 12,2.4 9.6,-7.2 3.6,-15.6 -38.4,-12 -44.4,-4.8 -50.4,7.2 -69.602,14.4 -60,20.4 -57.597,27.6 -139.199,79.2" inkscape:connector-curvature="0" id="path34" style="stroke:#000000;stroke-width:8;stroke-miterlimit:4;stroke-dasharray:none;fill:none;stroke-opacity:1"/>
      <path d="M 458.398,1386 444,1383.6 430.801,1368 l 0,-16.8 13.199,-13.2 16.801,0 18,8.4 2.398,9.6 -4.801,14.4 -13.199,15.6" inkscape:connector-curvature="0" id="path36" style="stroke:#000000;stroke-width:8;stroke-miterlimit:4;stroke-dasharray:none;fill:none;stroke-opacity:1"/>
      <path d="M 412.801,26.3984 738,339.602" inkscape:connector-curvature="0" id="path38" style="stroke:#000000;stroke-width:8;stroke-miterlimit:4;stroke-dasharray:none;fill:none;stroke-opacity:1"/>
      <path d="M 295.199,72 694.801,453.602" inkscape:connector-curvature="0" id="path40" style="stroke:#000000;stroke-width:8;stroke-miterlimit:4;stroke-dasharray:none;fill:none;stroke-opacity:1"/>
      <path d="M 218.398,154.801 618,537.602" inkscape:connector-curvature="0" id="path42" style="stroke:#000000;stroke-width:8;stroke-miterlimit:4;stroke-dasharray:none;fill:none;stroke-opacity:1"/>
      <path d="M 178.801,271.199 498,577.199" inkscape:connector-curvature="0" id="path44" style="stroke:#000000;stroke-width:8;stroke-miterlimit:4;stroke-dasharray:none;fill:none;stroke-opacity:1"/>
      <path d="m 574.801,559.199 -26.403,8.403 -27.597,9.597 -30,4.801 -30,0 -32.403,-2.398 -27.597,-2.403 -30,-9.597 -27.602,-10.801 -27.597,-12 -25.204,-18 -19.199,-18 -20.398,-20.403 -15.602,-16.796 -14.398,-22.801 -18,-32.403 -7.199,-25.199 -7.204,-27.597 -4.796,-26.403 -4.801,-33.597 0,-26.403 4.801,-33.597 7.199,-26.403 L 198,192 l 13.199,-27.602 7.199,-15.597 9.602,-12 25.199,-27.602 25.199,-25.199 22.801,-16.8008 26.403,-15.5976 30,-14.4024 30,-8.3984 25.199,-7.1992 30,0 30,-2.4024 34.801,4.8008 25.199,4.8008 30,13.1992 30,14.3984 20.398,10.8008 21.602,19.1992 22.801,20.4026 22.796,22.801 16.801,27.597 18,24 12,25.199 8.403,30 L 738,264 742.801,296.398 740.398,324 738,356.398 729.602,384 720,409.199 708,441.602 690,466.801 673.199,486 l -20.398,25.199 -25.199,18 -25.204,18 -27.597,12" inkscape:connector-curvature="0" id="path46" style="stroke:#000000;stroke-width:8;stroke-miterlimit:4;stroke-dasharray:none;fill:none;stroke-opacity:1"/>
    </g>
  </g>
</svg>
