<?xml version="1.0" encoding="iso-8859-1"?>
<!-- Generator: Adobe Illustrator 16.0.1, SVG Export Plug-In . SVG Version: 6.00 Build 0)  -->
<!DOCTYPE svg PUBLIC "-//W3C//DTD SVG 1.1//EN" "http://www.w3.org/Graphics/SVG/1.1/DTD/svg11.dtd">
<svg version="1.1" id="Ebene_1" xmlns="http://www.w3.org/2000/svg" xmlns:xlink="http://www.w3.org/1999/xlink" x="0px" y="0px"
	 width="92.186px" height="148.115px" viewBox="0 0 92.186 148.115" style="enable-background:new 0 0 92.186 148.115;"
	 xml:space="preserve">
<g>
	<line style="fill:none;stroke:#000000;stroke-miterlimit:1;" x1="49.867" y1="27.45" x2="44.834" y2="26.992"/>
	<line style="fill:none;stroke:#000000;stroke-miterlimit:1;" x1="44.834" y1="26.992" x2="36.828" y2="27.45"/>
	<line style="fill:none;stroke:#000000;stroke-miterlimit:1;" x1="36.828" y1="27.45" x2="30.881" y2="26.764"/>
	<line style="fill:none;stroke:#000000;stroke-miterlimit:1;" x1="30.881" y1="26.764" x2="29.051" y2="27.45"/>
	<line style="fill:none;stroke:#000000;stroke-miterlimit:1;" x1="29.051" y1="27.45" x2="27.678" y2="29.28"/>
	<line style="fill:none;stroke:#000000;stroke-miterlimit:1;" x1="27.678" y1="29.28" x2="28.136" y2="32.482"/>
	<line style="fill:none;stroke:#000000;stroke-miterlimit:1;" x1="28.136" y1="32.482" x2="30.423" y2="39.802"/>
	<line style="fill:none;stroke:#000000;stroke-miterlimit:1;" x1="30.423" y1="39.802" x2="34.77" y2="46.894"/>
	<line style="fill:none;stroke:#000000;stroke-miterlimit:1;" x1="34.77" y1="46.894" x2="48.951" y2="63.821"/>
	<line style="fill:none;stroke:#000000;stroke-miterlimit:1;" x1="48.951" y1="63.821" x2="56.271" y2="70.683"/>
	<line style="fill:none;stroke:#000000;stroke-miterlimit:1;" x1="56.271" y1="70.683" x2="66.795" y2="80.52"/>
	<line style="fill:none;stroke:#000000;stroke-miterlimit:1;" x1="66.795" y1="80.52" x2="89.211" y2="102.479"/>
	<line style="fill:none;stroke:#000000;stroke-miterlimit:1;" x1="89.211" y1="102.479" x2="91.498" y2="102.479"/>
	<line style="fill:none;stroke:#000000;stroke-miterlimit:1;" x1="91.498" y1="102.479" x2="92.186" y2="101.336"/>
	<line style="fill:none;stroke:#000000;stroke-miterlimit:1;" x1="92.186" y1="101.336" x2="91.27" y2="99.277"/>
	<line style="fill:none;stroke:#000000;stroke-miterlimit:1;" x1="91.27" y1="99.277" x2="81.662" y2="77.316"/>
	<line style="fill:none;stroke:#000000;stroke-miterlimit:1;" x1="81.662" y1="77.316" x2="80.291" y2="73.2"/>
	<line style="fill:none;stroke:#000000;stroke-miterlimit:1;" x1="80.291" y1="73.2" x2="72.971" y2="55.586"/>
	<line style="fill:none;stroke:#000000;stroke-miterlimit:1;" x1="72.971" y1="55.586" x2="66.336" y2="44.148"/>
	<line style="fill:none;stroke:#000000;stroke-miterlimit:1;" x1="66.336" y1="44.148" x2="61.076" y2="36.829"/>
	<line style="fill:none;stroke:#000000;stroke-miterlimit:1;" x1="61.076" y1="36.829" x2="57.188" y2="31.567"/>
	<line style="fill:none;stroke:#000000;stroke-miterlimit:1;" x1="57.188" y1="31.567" x2="53.984" y2="26.535"/>
	<line style="fill:none;stroke:#000000;stroke-miterlimit:1;" x1="53.984" y1="26.535" x2="50.553" y2="21.96"/>
	<line style="fill:none;stroke:#000000;stroke-miterlimit:1;" x1="50.553" y1="21.96" x2="46.436" y2="17.156"/>
	<line style="fill:none;stroke:#000000;stroke-miterlimit:1;" x1="46.436" y1="17.156" x2="42.318" y2="14.411"/>
	<line style="fill:none;stroke:#000000;stroke-miterlimit:1;" x1="42.318" y1="14.411" x2="41.174" y2="9.607"/>
	<line style="fill:none;stroke:#000000;stroke-miterlimit:1;" x1="41.174" y1="9.607" x2="40.259" y2="4.346"/>
	<line style="fill:none;stroke:#000000;stroke-miterlimit:1;" x1="40.259" y1="4.346" x2="38.887" y2="0.915"/>
	<line style="fill:none;stroke:#000000;stroke-miterlimit:1;" x1="38.887" y1="0.915" x2="34.998" y2="0"/>
	<line style="fill:none;stroke:#000000;stroke-miterlimit:1;" x1="34.998" y1="0" x2="28.593" y2="0"/>
	<line style="fill:none;stroke:#000000;stroke-miterlimit:1;" x1="28.593" y1="0" x2="21.502" y2="0.229"/>
	<line style="fill:none;stroke:#000000;stroke-miterlimit:1;" x1="21.502" y1="0.229" x2="18.071" y2="1.144"/>
	<line style="fill:none;stroke:#000000;stroke-miterlimit:1;" x1="18.071" y1="1.144" x2="16.47" y2="1.602"/>
	<line style="fill:none;stroke:#000000;stroke-miterlimit:1;" x1="16.47" y1="1.602" x2="4.804" y2="3.203"/>
	<line style="fill:none;stroke:#000000;stroke-miterlimit:1;" x1="4.804" y1="3.203" x2="1.372" y2="4.804"/>
	<line style="fill:none;stroke:#000000;stroke-miterlimit:1;" x1="1.372" y1="4.804" x2="0.229" y2="6.405"/>
	<line style="fill:none;stroke:#000000;stroke-miterlimit:1;" x1="0.229" y1="6.405" x2="0" y2="9.607"/>
	<line style="fill:none;stroke:#000000;stroke-miterlimit:1;" x1="0" y1="9.607" x2="1.372" y2="7.32"/>
	<line style="fill:none;stroke:#000000;stroke-miterlimit:1;" x1="1.372" y1="7.32" x2="3.66" y2="6.176"/>
	<line style="fill:none;stroke:#000000;stroke-miterlimit:1;" x1="3.66" y1="6.176" x2="10.522" y2="6.176"/>
	<line style="fill:none;stroke:#000000;stroke-miterlimit:1;" x1="10.522" y1="6.176" x2="17.613" y2="6.405"/>
	<line style="fill:none;stroke:#000000;stroke-miterlimit:1;" x1="17.613" y1="6.405" x2="21.273" y2="7.32"/>
	<line style="fill:none;stroke:#000000;stroke-miterlimit:1;" x1="21.273" y1="7.32" x2="18.3" y2="3.66"/>
	<line style="fill:none;stroke:#000000;stroke-miterlimit:1;" x1="18.3" y1="3.66" x2="17.613" y2="1.144"/>
	<line style="fill:none;stroke:#000000;stroke-miterlimit:1;" x1="25.162" y1="5.948" x2="25.848" y2="5.719"/>
	<line style="fill:none;stroke:#000000;stroke-miterlimit:1;" x1="25.848" y1="5.719" x2="26.306" y2="4.575"/>
	<line style="fill:none;stroke:#000000;stroke-miterlimit:1;" x1="26.306" y1="4.575" x2="25.848" y2="3.431"/>
	<line style="fill:none;stroke:#000000;stroke-miterlimit:1;" x1="25.848" y1="3.431" x2="24.933" y2="2.745"/>
	<line style="fill:none;stroke:#000000;stroke-miterlimit:1;" x1="24.933" y1="2.745" x2="24.019" y2="3.431"/>
	<line style="fill:none;stroke:#000000;stroke-miterlimit:1;" x1="24.019" y1="3.431" x2="23.79" y2="4.804"/>
	<line style="fill:none;stroke:#000000;stroke-miterlimit:1;" x1="23.79" y1="4.804" x2="24.247" y2="5.49"/>
	<line style="fill:none;stroke:#000000;stroke-miterlimit:1;" x1="24.247" y1="5.49" x2="24.933" y2="5.948"/>
	<line style="fill:none;stroke:#000000;stroke-miterlimit:1;" x1="1.144" y1="8.235" x2="10.293" y2="8.006"/>
	<line style="fill:none;stroke:#000000;stroke-miterlimit:1;" x1="10.293" y1="8.006" x2="17.385" y2="8.921"/>
	<line style="fill:none;stroke:#000000;stroke-miterlimit:1;" x1="17.385" y1="8.921" x2="19.443" y2="10.065"/>
	<line style="fill:none;stroke:#000000;stroke-miterlimit:1;" x1="19.443" y1="10.065" x2="20.129" y2="12.353"/>
	<line style="fill:none;stroke:#000000;stroke-miterlimit:1;" x1="20.129" y1="12.353" x2="20.358" y2="14.869"/>
	<line style="fill:none;stroke:#000000;stroke-miterlimit:1;" x1="20.358" y1="14.869" x2="18.3" y2="19.901"/>
	<line style="fill:none;stroke:#000000;stroke-miterlimit:1;" x1="18.3" y1="19.901" x2="17.385" y2="26.078"/>
	<line style="fill:none;stroke:#000000;stroke-miterlimit:1;" x1="17.385" y1="26.078" x2="18.528" y2="33.626"/>
	<line style="fill:none;stroke:#000000;stroke-miterlimit:1;" x1="18.528" y1="33.626" x2="19.443" y2="37.057"/>
	<line style="fill:none;stroke:#000000;stroke-miterlimit:1;" x1="19.443" y1="37.057" x2="21.959" y2="43.92"/>
	<line style="fill:none;stroke:#000000;stroke-miterlimit:1;" x1="21.959" y1="43.92" x2="24.933" y2="49.41"/>
	<line style="fill:none;stroke:#000000;stroke-miterlimit:1;" x1="24.933" y1="49.41" x2="32.024" y2="61.533"/>
	<line style="fill:none;stroke:#000000;stroke-miterlimit:1;" x1="32.024" y1="61.533" x2="41.403" y2="79.375"/>
	<line style="fill:none;stroke:#000000;stroke-miterlimit:1;" x1="41.403" y1="79.375" x2="42.318" y2="86.238"/>
	<line style="fill:none;stroke:#000000;stroke-miterlimit:1;" x1="42.318" y1="86.238" x2="41.174" y2="97.904"/>
	<line style="fill:none;stroke:#000000;stroke-miterlimit:1;" x1="41.174" y1="97.904" x2="40.031" y2="99.049"/>
	<line style="fill:none;stroke:#000000;stroke-miterlimit:1;" x1="40.031" y1="99.049" x2="33.397" y2="99.734"/>
	<line style="fill:none;stroke:#000000;stroke-miterlimit:1;" x1="33.397" y1="99.734" x2="25.62" y2="99.506"/>
	<line style="fill:none;stroke:#000000;stroke-miterlimit:1;" x1="25.62" y1="99.506" x2="25.162" y2="100.648"/>
	<line style="fill:none;stroke:#000000;stroke-miterlimit:1;" x1="25.162" y1="100.648" x2="21.731" y2="101.107"/>
	<line style="fill:none;stroke:#000000;stroke-miterlimit:1;" x1="21.731" y1="101.107" x2="21.273" y2="101.793"/>
	<line style="fill:none;stroke:#000000;stroke-miterlimit:1;" x1="21.273" y1="101.793" x2="21.959" y2="102.707"/>
	<line style="fill:none;stroke:#000000;stroke-miterlimit:1;" x1="21.959" y1="102.707" x2="41.632" y2="102.021"/>
	<line style="fill:none;stroke:#000000;stroke-miterlimit:1;" x1="41.632" y1="102.021" x2="61.99" y2="102.938"/>
	<line style="fill:none;stroke:#000000;stroke-miterlimit:1;" x1="61.99" y1="102.938" x2="62.906" y2="102.021"/>
	<line style="fill:none;stroke:#000000;stroke-miterlimit:1;" x1="62.906" y1="102.021" x2="62.447" y2="100.879"/>
	<line style="fill:none;stroke:#000000;stroke-miterlimit:1;" x1="62.447" y1="100.879" x2="59.246" y2="100.879"/>
	<line style="fill:none;stroke:#000000;stroke-miterlimit:1;" x1="59.246" y1="100.879" x2="57.416" y2="99.277"/>
	<line style="fill:none;stroke:#000000;stroke-miterlimit:1;" x1="57.416" y1="99.277" x2="45.75" y2="99.049"/>
	<line style="fill:none;stroke:#000000;stroke-miterlimit:1;" x1="45.75" y1="99.049" x2="44.377" y2="98.133"/>
	<line style="fill:none;stroke:#000000;stroke-miterlimit:1;" x1="44.377" y1="98.133" x2="45.75" y2="83.723"/>
	<line style="fill:none;stroke:#000000;stroke-miterlimit:1;" x1="45.75" y1="83.723" x2="54.213" y2="88.068"/>
	<line style="fill:none;stroke:#000000;stroke-miterlimit:1;" x1="54.213" y1="88.068" x2="59.018" y2="73.886"/>
	<line style="fill:none;stroke:#000000;stroke-miterlimit:1;" x1="59.018" y1="73.886" x2="68.166" y2="96.76"/>
	<line style="fill:none;stroke:#000000;stroke-miterlimit:1;" x1="68.166" y1="96.76" x2="71.369" y2="100.879"/>
	<line style="fill:none;stroke:#000000;stroke-miterlimit:1;" x1="71.369" y1="100.879" x2="74.572" y2="102.707"/>
	<line style="fill:none;stroke:#000000;stroke-miterlimit:1;" x1="74.572" y1="102.707" x2="79.375" y2="102.707"/>
	<line style="fill:none;stroke:#000000;stroke-miterlimit:1;" x1="79.375" y1="102.707" x2="82.121" y2="101.793"/>
	<line style="fill:none;stroke:#000000;stroke-miterlimit:1;" x1="82.121" y1="101.793" x2="82.807" y2="100.42"/>
	<line style="fill:none;stroke:#000000;stroke-miterlimit:1;" x1="82.807" y1="100.42" x2="80.52" y2="94.244"/>
	<line style="fill:none;stroke:#000000;stroke-miterlimit:1;" x1="23.79" y1="47.809" x2="26.763" y2="64.507"/>
	<line style="fill:none;stroke:#000000;stroke-miterlimit:1;" x1="26.763" y1="64.507" x2="26.535" y2="77.316"/>
	<line style="fill:none;stroke:#000000;stroke-miterlimit:1;" x1="26.535" y1="77.316" x2="24.247" y2="90.355"/>
	<line style="fill:none;stroke:#000000;stroke-miterlimit:1;" x1="24.247" y1="90.355" x2="22.188" y2="96.988"/>
	<line style="fill:none;stroke:#000000;stroke-miterlimit:1;" x1="22.188" y1="96.988" x2="20.816" y2="98.59"/>
	<line style="fill:none;stroke:#000000;stroke-miterlimit:1;" x1="20.816" y1="98.59" x2="9.836" y2="99.277"/>
	<line style="fill:none;stroke:#000000;stroke-miterlimit:1;" x1="9.836" y1="99.277" x2="8.692" y2="100.879"/>
	<line style="fill:none;stroke:#000000;stroke-miterlimit:1;" x1="8.692" y1="100.879" x2="6.176" y2="101.107"/>
	<line style="fill:none;stroke:#000000;stroke-miterlimit:1;" x1="6.176" y1="101.107" x2="5.261" y2="101.793"/>
	<line style="fill:none;stroke:#000000;stroke-miterlimit:1;" x1="5.261" y1="101.793" x2="6.176" y2="102.707"/>
	<line style="fill:none;stroke:#000000;stroke-miterlimit:1;" x1="6.176" y1="102.707" x2="14.64" y2="102.021"/>
	<line style="fill:none;stroke:#000000;stroke-miterlimit:1;" x1="14.64" y1="102.021" x2="17.156" y2="102.25"/>
	<line style="fill:none;stroke:#000000;stroke-miterlimit:1;" x1="25.391" y1="99.506" x2="21.502" y2="99.963"/>
	<line style="fill:none;stroke:#000000;stroke-miterlimit:1;" x1="21.502" y1="99.963" x2="21.502" y2="99.963"/>
	<line style="fill:none;stroke:#000000;stroke-miterlimit:1;" x1="21.502" y1="99.963" x2="19.215" y2="100.42"/>
	<line style="fill:none;stroke:#000000;stroke-miterlimit:1;" x1="19.215" y1="100.42" x2="17.842" y2="102.25"/>
	<line style="fill:none;stroke:#000000;stroke-miterlimit:1;" x1="17.842" y1="102.25" x2="18.757" y2="102.707"/>
	<line style="fill:none;stroke:#000000;stroke-miterlimit:1;" x1="18.757" y1="102.707" x2="20.129" y2="101.336"/>
	<line style="fill:none;stroke:#000000;stroke-miterlimit:1;" x1="20.129" y1="101.336" x2="21.502" y2="101.107"/>
	<line style="fill:none;stroke:#000000;stroke-miterlimit:1;" x1="25.162" y1="99.277" x2="30.194" y2="80.52"/>
	<line style="fill:none;stroke:#000000;stroke-miterlimit:1;" x1="30.194" y1="80.52" x2="37.972" y2="85.094"/>
	<line style="fill:none;stroke:#000000;stroke-miterlimit:1;" x1="37.972" y1="85.094" x2="39.573" y2="76.631"/>
	<line style="fill:none;stroke:#000000;stroke-miterlimit:1;" x1="9.15" y1="99.506" x2="5.49" y2="99.963"/>
	<line style="fill:none;stroke:#000000;stroke-miterlimit:1;" x1="5.49" y1="99.963" x2="5.49" y2="99.963"/>
	<line style="fill:none;stroke:#000000;stroke-miterlimit:1;" x1="5.49" y1="99.963" x2="3.202" y2="100.42"/>
	<line style="fill:none;stroke:#000000;stroke-miterlimit:1;" x1="3.202" y1="100.42" x2="1.83" y2="102.25"/>
	<line style="fill:none;stroke:#000000;stroke-miterlimit:1;" x1="1.83" y1="102.25" x2="2.516" y2="102.707"/>
	<line style="fill:none;stroke:#000000;stroke-miterlimit:1;" x1="2.516" y1="102.707" x2="4.117" y2="101.336"/>
	<line style="fill:none;stroke:#000000;stroke-miterlimit:1;" x1="4.117" y1="101.336" x2="5.947" y2="101.107"/>
	<line style="fill:none;stroke:#000000;stroke-miterlimit:1;" x1="57.873" y1="99.277" x2="62.219" y2="99.734"/>
	<line style="fill:none;stroke:#000000;stroke-miterlimit:1;" x1="62.219" y1="99.734" x2="64.277" y2="100.42"/>
	<line style="fill:none;stroke:#000000;stroke-miterlimit:1;" x1="64.277" y1="100.42" x2="65.65" y2="102.25"/>
	<line style="fill:none;stroke:#000000;stroke-miterlimit:1;" x1="65.65" y1="102.25" x2="64.965" y2="102.707"/>
	<line style="fill:none;stroke:#000000;stroke-miterlimit:1;" x1="64.965" y1="102.707" x2="63.363" y2="101.336"/>
	<line style="fill:none;stroke:#000000;stroke-miterlimit:1;" x1="63.363" y1="101.336" x2="62.219" y2="101.107"/>
	<line style="fill:none;stroke:#000000;stroke-miterlimit:1;" x1="5.003" y1="106.939" x2="5.003" y2="148.115"/>
	<line style="fill:none;stroke:#000000;stroke-miterlimit:1;" x1="5.003" y1="148.115" x2="12.324" y2="148.115"/>
	<line style="fill:none;stroke:#000000;stroke-miterlimit:1;" x1="12.324" y1="148.115" x2="12.324" y2="106.939"/>
	<line style="fill:none;stroke:#000000;stroke-miterlimit:1;" x1="12.324" y1="106.939" x2="5.003" y2="106.939"/>
	<line style="fill:none;stroke:#000000;stroke-miterlimit:1;" x1="41.604" y1="106.939" x2="41.604" y2="148.115"/>
	<line style="fill:none;stroke:#000000;stroke-miterlimit:1;" x1="41.604" y1="148.115" x2="49.152" y2="148.115"/>
	<line style="fill:none;stroke:#000000;stroke-miterlimit:1;" x1="49.152" y1="148.115" x2="49.152" y2="106.939"/>
	<line style="fill:none;stroke:#000000;stroke-miterlimit:1;" x1="49.152" y1="106.939" x2="41.604" y2="106.939"/>
	<line style="fill:none;stroke:#000000;stroke-miterlimit:1;" x1="78.66" y1="106.939" x2="78.66" y2="148.115"/>
	<line style="fill:none;stroke:#000000;stroke-miterlimit:1;" x1="78.66" y1="148.115" x2="85.98" y2="148.115"/>
	<line style="fill:none;stroke:#000000;stroke-miterlimit:1;" x1="85.98" y1="148.115" x2="85.98" y2="106.939"/>
	<line style="fill:none;stroke:#000000;stroke-miterlimit:1;" x1="85.98" y1="106.939" x2="78.66" y2="106.939"/>
</g>
</svg>
