<?xml version="1.0" encoding="iso-8859-1"?>
<!-- Generator: Adobe Illustrator 16.0.1, SVG Export Plug-In . SVG Version: 6.00 Build 0)  -->
<!DOCTYPE svg PUBLIC "-//W3C//DTD SVG 1.1//EN" "http://www.w3.org/Graphics/SVG/1.1/DTD/svg11.dtd">
<svg version="1.1" id="Ebene_1" xmlns="http://www.w3.org/2000/svg" xmlns:xlink="http://www.w3.org/1999/xlink" x="0px" y="0px"
	 width="138.797px" height="148.114px" viewBox="0 0 138.797 148.114" style="enable-background:new 0 0 138.797 148.114;"
	 xml:space="preserve">
<g>
	<line style="fill:none;stroke:#000000;stroke-miterlimit:1;" x1="30.33" y1="53.719" x2="108.467" y2="53.719"/>
	<line style="fill:none;stroke:#000000;stroke-miterlimit:1;" x1="108.467" y1="53.719" x2="108.467" y2="56.804"/>
	<line style="fill:none;stroke:#000000;stroke-miterlimit:1;" x1="108.467" y1="56.804" x2="111.552" y2="57.318"/>
	<line style="fill:none;stroke:#000000;stroke-miterlimit:1;" x1="111.552" y1="57.318" x2="116.435" y2="58.86"/>
	<line style="fill:none;stroke:#000000;stroke-miterlimit:1;" x1="116.435" y1="58.86" x2="119.776" y2="60.916"/>
	<line style="fill:none;stroke:#000000;stroke-miterlimit:1;" x1="119.776" y1="60.916" x2="124.146" y2="64"/>
	<line style="fill:none;stroke:#000000;stroke-miterlimit:1;" x1="124.146" y1="64" x2="128.002" y2="68.113"/>
	<line style="fill:none;stroke:#000000;stroke-miterlimit:1;" x1="128.002" y1="68.113" x2="131.6" y2="72.997"/>
	<line style="fill:none;stroke:#000000;stroke-miterlimit:1;" x1="131.6" y1="72.997" x2="134.17" y2="77.88"/>
	<line style="fill:none;stroke:#000000;stroke-miterlimit:1;" x1="134.17" y1="77.88" x2="136.483" y2="84.049"/>
	<line style="fill:none;stroke:#000000;stroke-miterlimit:1;" x1="136.483" y1="84.049" x2="138.025" y2="90.218"/>
	<line style="fill:none;stroke:#000000;stroke-miterlimit:1;" x1="138.025" y1="90.218" x2="138.797" y2="100.499"/>
	<line style="fill:none;stroke:#000000;stroke-miterlimit:1;" x1="138.797" y1="100.499" x2="138.025" y2="105.896"/>
	<line style="fill:none;stroke:#000000;stroke-miterlimit:1;" x1="138.025" y1="105.896" x2="135.712" y2="112.065"/>
	<line style="fill:none;stroke:#000000;stroke-miterlimit:1;" x1="135.712" y1="112.065" x2="132.885" y2="114.893"/>
	<line style="fill:none;stroke:#000000;stroke-miterlimit:1;" x1="132.885" y1="114.893" x2="130.572" y2="115.407"/>
	<line style="fill:none;stroke:#000000;stroke-miterlimit:1;" x1="130.572" y1="115.407" x2="126.974" y2="115.149"/>
	<line style="fill:none;stroke:#000000;stroke-miterlimit:1;" x1="126.974" y1="115.149" x2="124.146" y2="112.837"/>
	<line style="fill:none;stroke:#000000;stroke-miterlimit:1;" x1="124.146" y1="112.837" x2="122.86" y2="110.009"/>
	<line style="fill:none;stroke:#000000;stroke-miterlimit:1;" x1="122.86" y1="110.009" x2="122.347" y2="106.925"/>
	<line style="fill:none;stroke:#000000;stroke-miterlimit:1;" x1="122.347" y1="106.925" x2="122.09" y2="104.611"/>
	<line style="fill:none;stroke:#000000;stroke-miterlimit:1;" x1="122.09" y1="104.611" x2="122.86" y2="96.644"/>
	<line style="fill:none;stroke:#000000;stroke-miterlimit:1;" x1="122.86" y1="96.644" x2="123.889" y2="87.904"/>
	<line style="fill:none;stroke:#000000;stroke-miterlimit:1;" x1="123.889" y1="87.904" x2="123.118" y2="78.908"/>
	<line style="fill:none;stroke:#000000;stroke-miterlimit:1;" x1="123.118" y1="78.908" x2="120.805" y2="72.482"/>
	<line style="fill:none;stroke:#000000;stroke-miterlimit:1;" x1="120.805" y1="72.482" x2="117.463" y2="67.342"/>
	<line style="fill:none;stroke:#000000;stroke-miterlimit:1;" x1="117.463" y1="67.342" x2="114.122" y2="63.486"/>
	<line style="fill:none;stroke:#000000;stroke-miterlimit:1;" x1="114.122" y1="63.486" x2="110.267" y2="61.944"/>
	<line style="fill:none;stroke:#000000;stroke-miterlimit:1;" x1="110.267" y1="61.944" x2="108.467" y2="61.944"/>
	<line style="fill:none;stroke:#000000;stroke-miterlimit:1;" x1="108.467" y1="61.944" x2="108.467" y2="64.771"/>
	<line style="fill:none;stroke:#000000;stroke-miterlimit:1;" x1="108.467" y1="64.771" x2="98.186" y2="64.771"/>
	<line style="fill:none;stroke:#000000;stroke-miterlimit:1;" x1="98.186" y1="64.771" x2="98.186" y2="70.169"/>
	<line style="fill:none;stroke:#000000;stroke-miterlimit:1;" x1="98.186" y1="70.169" x2="83.021" y2="70.169"/>
	<line style="fill:none;stroke:#000000;stroke-miterlimit:1;" x1="83.021" y1="70.169" x2="83.021" y2="64.771"/>
	<line style="fill:none;stroke:#000000;stroke-miterlimit:1;" x1="83.021" y1="64.771" x2="55.262" y2="64.771"/>
	<line style="fill:none;stroke:#000000;stroke-miterlimit:1;" x1="55.262" y1="64.771" x2="55.262" y2="70.169"/>
	<line style="fill:none;stroke:#000000;stroke-miterlimit:1;" x1="55.262" y1="70.169" x2="40.611" y2="70.169"/>
	<line style="fill:none;stroke:#000000;stroke-miterlimit:1;" x1="40.611" y1="70.169" x2="40.611" y2="64.771"/>
	<line style="fill:none;stroke:#000000;stroke-miterlimit:1;" x1="40.611" y1="64.771" x2="30.33" y2="64.771"/>
	<line style="fill:none;stroke:#000000;stroke-miterlimit:1;" x1="34.956" y1="53.719" x2="44.98" y2="4.626"/>
	<line style="fill:none;stroke:#000000;stroke-miterlimit:1;" x1="44.98" y1="4.626" x2="46.78" y2="1.542"/>
	<line style="fill:none;stroke:#000000;stroke-miterlimit:1;" x1="46.78" y1="1.542" x2="48.065" y2="0.514"/>
	<line style="fill:none;stroke:#000000;stroke-miterlimit:1;" x1="48.065" y1="0.514" x2="49.607" y2="0"/>
	<line style="fill:none;stroke:#000000;stroke-miterlimit:1;" x1="49.607" y1="0" x2="51.92" y2="0"/>
	<line style="fill:none;stroke:#000000;stroke-miterlimit:1;" x1="51.92" y1="0" x2="54.233" y2="1.285"/>
	<line style="fill:none;stroke:#000000;stroke-miterlimit:1;" x1="54.233" y1="1.285" x2="54.748" y2="2.827"/>
	<line style="fill:none;stroke:#000000;stroke-miterlimit:1;" x1="54.748" y1="2.827" x2="54.748" y2="4.626"/>
	<line style="fill:none;stroke:#000000;stroke-miterlimit:1;" x1="44.723" y1="53.719" x2="55.004" y2="4.369"/>
	<line style="fill:none;stroke:#000000;stroke-miterlimit:1;" x1="55.004" y1="4.369" x2="56.29" y2="2.056"/>
	<line style="fill:none;stroke:#000000;stroke-miterlimit:1;" x1="56.29" y1="2.056" x2="57.575" y2="0.771"/>
	<line style="fill:none;stroke:#000000;stroke-miterlimit:1;" x1="57.575" y1="0.771" x2="59.888" y2="0.257"/>
	<line style="fill:none;stroke:#000000;stroke-miterlimit:1;" x1="59.888" y1="0.257" x2="62.202" y2="1.028"/>
	<line style="fill:none;stroke:#000000;stroke-miterlimit:1;" x1="62.202" y1="1.028" x2="63.487" y2="2.056"/>
	<line style="fill:none;stroke:#000000;stroke-miterlimit:1;" x1="63.487" y1="2.056" x2="64.258" y2="3.598"/>
	<line style="fill:none;stroke:#000000;stroke-miterlimit:1;" x1="53.977" y1="53.719" x2="64" y2="4.626"/>
	<line style="fill:none;stroke:#000000;stroke-miterlimit:1;" x1="64" y1="4.626" x2="65.029" y2="2.313"/>
	<line style="fill:none;stroke:#000000;stroke-miterlimit:1;" x1="65.029" y1="2.313" x2="66.828" y2="0.771"/>
	<line style="fill:none;stroke:#000000;stroke-miterlimit:1;" x1="66.828" y1="0.771" x2="68.884" y2="0.514"/>
	<line style="fill:none;stroke:#000000;stroke-miterlimit:1;" x1="68.884" y1="0.514" x2="71.197" y2="0.771"/>
	<line style="fill:none;stroke:#000000;stroke-miterlimit:1;" x1="71.197" y1="0.771" x2="72.997" y2="2.313"/>
	<line style="fill:none;stroke:#000000;stroke-miterlimit:1;" x1="72.997" y1="2.313" x2="73.511" y2="4.369"/>
	<line style="fill:none;stroke:#000000;stroke-miterlimit:1;" x1="63.229" y1="53.719" x2="73.254" y2="5.141"/>
	<line style="fill:none;stroke:#000000;stroke-miterlimit:1;" x1="73.254" y1="5.141" x2="74.796" y2="2.313"/>
	<line style="fill:none;stroke:#000000;stroke-miterlimit:1;" x1="74.796" y1="2.313" x2="76.595" y2="0.771"/>
	<line style="fill:none;stroke:#000000;stroke-miterlimit:1;" x1="76.595" y1="0.771" x2="79.68" y2="0.514"/>
	<line style="fill:none;stroke:#000000;stroke-miterlimit:1;" x1="79.68" y1="0.514" x2="80.708" y2="0.771"/>
	<line style="fill:none;stroke:#000000;stroke-miterlimit:1;" x1="80.708" y1="0.771" x2="82.25" y2="1.799"/>
	<line style="fill:none;stroke:#000000;stroke-miterlimit:1;" x1="82.25" y1="1.799" x2="83.021" y2="4.369"/>
	<line style="fill:none;stroke:#000000;stroke-miterlimit:1;" x1="72.997" y1="53.719" x2="82.764" y2="5.397"/>
	<line style="fill:none;stroke:#000000;stroke-miterlimit:1;" x1="82.764" y1="5.397" x2="83.792" y2="2.827"/>
	<line style="fill:none;stroke:#000000;stroke-miterlimit:1;" x1="83.792" y1="2.827" x2="84.82" y2="1.285"/>
	<line style="fill:none;stroke:#000000;stroke-miterlimit:1;" x1="84.82" y1="1.285" x2="87.134" y2="0.257"/>
	<line style="fill:none;stroke:#000000;stroke-miterlimit:1;" x1="87.134" y1="0.257" x2="89.961" y2="0.771"/>
	<line style="fill:none;stroke:#000000;stroke-miterlimit:1;" x1="89.961" y1="0.771" x2="92.017" y2="2.056"/>
	<line style="fill:none;stroke:#000000;stroke-miterlimit:1;" x1="92.017" y1="2.056" x2="92.788" y2="3.855"/>
	<line style="fill:none;stroke:#000000;stroke-miterlimit:1;" x1="83.021" y1="53.719" x2="92.274" y2="5.654"/>
	<line style="fill:none;stroke:#000000;stroke-miterlimit:1;" x1="92.274" y1="5.654" x2="93.045" y2="3.084"/>
	<line style="fill:none;stroke:#000000;stroke-miterlimit:1;" x1="93.045" y1="3.084" x2="94.587" y2="1.028"/>
	<line style="fill:none;stroke:#000000;stroke-miterlimit:1;" x1="94.587" y1="1.028" x2="97.157" y2="0.514"/>
	<line style="fill:none;stroke:#000000;stroke-miterlimit:1;" x1="97.157" y1="0.514" x2="97.672" y2="0.257"/>
	<line style="fill:none;stroke:#000000;stroke-miterlimit:1;" x1="97.672" y1="0.257" x2="99.985" y2="1.285"/>
	<line style="fill:none;stroke:#000000;stroke-miterlimit:1;" x1="99.985" y1="1.285" x2="101.527" y2="2.827"/>
	<line style="fill:none;stroke:#000000;stroke-miterlimit:1;" x1="101.527" y1="2.827" x2="101.527" y2="4.369"/>
	<line style="fill:none;stroke:#000000;stroke-miterlimit:1;" x1="91.76" y1="53.719" x2="101.527" y2="4.112"/>
	<line style="fill:none;stroke:#000000;stroke-miterlimit:1;" x1="101.527" y1="4.112" x2="102.556" y2="2.056"/>
	<line style="fill:none;stroke:#000000;stroke-miterlimit:1;" x1="102.556" y1="2.056" x2="103.841" y2="0.771"/>
	<line style="fill:none;stroke:#000000;stroke-miterlimit:1;" x1="103.841" y1="0.771" x2="105.383" y2="0.514"/>
	<line style="fill:none;stroke:#000000;stroke-miterlimit:1;" x1="105.383" y1="0.514" x2="107.696" y2="0.514"/>
	<line style="fill:none;stroke:#000000;stroke-miterlimit:1;" x1="107.696" y1="0.514" x2="109.752" y2="1.285"/>
	<line style="fill:none;stroke:#000000;stroke-miterlimit:1;" x1="109.752" y1="1.285" x2="110.78" y2="2.827"/>
	<line style="fill:none;stroke:#000000;stroke-miterlimit:1;" x1="110.78" y1="2.827" x2="111.294" y2="5.397"/>
	<line style="fill:none;stroke:#000000;stroke-miterlimit:1;" x1="111.294" y1="5.397" x2="101.271" y2="53.719"/>
	<line style="fill:none;stroke:#000000;stroke-miterlimit:1;" x1="101.271" y1="53.719" x2="30.33" y2="53.719"/>
	<line style="fill:none;stroke:#000000;stroke-miterlimit:1;" x1="30.33" y1="53.719" x2="30.33" y2="57.061"/>
	<line style="fill:none;stroke:#000000;stroke-miterlimit:1;" x1="30.33" y1="57.061" x2="26.731" y2="57.575"/>
	<line style="fill:none;stroke:#000000;stroke-miterlimit:1;" x1="26.731" y1="57.575" x2="21.848" y2="59.117"/>
	<line style="fill:none;stroke:#000000;stroke-miterlimit:1;" x1="21.848" y1="59.117" x2="18.249" y2="61.173"/>
	<line style="fill:none;stroke:#000000;stroke-miterlimit:1;" x1="18.249" y1="61.173" x2="14.137" y2="64.515"/>
	<line style="fill:none;stroke:#000000;stroke-miterlimit:1;" x1="14.137" y1="64.515" x2="10.281" y2="68.627"/>
	<line style="fill:none;stroke:#000000;stroke-miterlimit:1;" x1="10.281" y1="68.627" x2="4.37" y2="78.651"/>
	<line style="fill:none;stroke:#000000;stroke-miterlimit:1;" x1="4.37" y1="78.651" x2="2.57" y2="84.563"/>
	<line style="fill:none;stroke:#000000;stroke-miterlimit:1;" x1="2.57" y1="84.563" x2="0.771" y2="90.731"/>
	<line style="fill:none;stroke:#000000;stroke-miterlimit:1;" x1="0.771" y1="90.731" x2="0" y2="101.013"/>
	<line style="fill:none;stroke:#000000;stroke-miterlimit:1;" x1="0" y1="101.013" x2="0.771" y2="106.411"/>
	<line style="fill:none;stroke:#000000;stroke-miterlimit:1;" x1="0.771" y1="106.411" x2="3.341" y2="112.322"/>
	<line style="fill:none;stroke:#000000;stroke-miterlimit:1;" x1="3.341" y1="112.322" x2="6.168" y2="115.149"/>
	<line style="fill:none;stroke:#000000;stroke-miterlimit:1;" x1="6.168" y1="115.149" x2="8.225" y2="115.664"/>
	<line style="fill:none;stroke:#000000;stroke-miterlimit:1;" x1="8.225" y1="115.664" x2="11.823" y2="115.407"/>
	<line style="fill:none;stroke:#000000;stroke-miterlimit:1;" x1="11.823" y1="115.407" x2="14.908" y2="113.094"/>
	<line style="fill:none;stroke:#000000;stroke-miterlimit:1;" x1="14.908" y1="113.094" x2="15.936" y2="110.267"/>
	<line style="fill:none;stroke:#000000;stroke-miterlimit:1;" x1="15.936" y1="110.267" x2="16.45" y2="107.182"/>
	<line style="fill:none;stroke:#000000;stroke-miterlimit:1;" x1="16.45" y1="107.182" x2="16.707" y2="104.868"/>
	<line style="fill:none;stroke:#000000;stroke-miterlimit:1;" x1="16.707" y1="104.868" x2="15.936" y2="96.9"/>
	<line style="fill:none;stroke:#000000;stroke-miterlimit:1;" x1="15.936" y1="96.9" x2="14.651" y2="88.161"/>
	<line style="fill:none;stroke:#000000;stroke-miterlimit:1;" x1="14.651" y1="88.161" x2="15.422" y2="79.423"/>
	<line style="fill:none;stroke:#000000;stroke-miterlimit:1;" x1="15.422" y1="79.423" x2="17.478" y2="72.997"/>
	<line style="fill:none;stroke:#000000;stroke-miterlimit:1;" x1="17.478" y1="72.997" x2="20.819" y2="67.599"/>
	<line style="fill:none;stroke:#000000;stroke-miterlimit:1;" x1="20.819" y1="67.599" x2="24.161" y2="63.744"/>
	<line style="fill:none;stroke:#000000;stroke-miterlimit:1;" x1="24.161" y1="63.744" x2="27.759" y2="62.201"/>
	<line style="fill:none;stroke:#000000;stroke-miterlimit:1;" x1="27.759" y1="62.201" x2="30.33" y2="61.944"/>
	<line style="fill:none;stroke:#000000;stroke-miterlimit:1;" x1="30.33" y1="61.944" x2="30.33" y2="64.258"/>
	<line style="fill:none;stroke:#000000;stroke-miterlimit:1;" x1="66.957" y1="89.511" x2="63.872" y2="91.053"/>
	<line style="fill:none;stroke:#000000;stroke-miterlimit:1;" x1="63.872" y1="91.053" x2="61.559" y2="93.881"/>
	<line style="fill:none;stroke:#000000;stroke-miterlimit:1;" x1="61.559" y1="93.881" x2="60.788" y2="96.193"/>
	<line style="fill:none;stroke:#000000;stroke-miterlimit:1;" x1="60.788" y1="96.193" x2="60.274" y2="98.507"/>
	<line style="fill:none;stroke:#000000;stroke-miterlimit:1;" x1="60.274" y1="98.507" x2="61.045" y2="102.105"/>
	<line style="fill:none;stroke:#000000;stroke-miterlimit:1;" x1="61.045" y1="102.105" x2="62.844" y2="104.419"/>
	<line style="fill:none;stroke:#000000;stroke-miterlimit:1;" x1="62.844" y1="104.419" x2="64.643" y2="105.961"/>
	<line style="fill:none;stroke:#000000;stroke-miterlimit:1;" x1="64.643" y1="105.961" x2="67.728" y2="106.989"/>
	<line style="fill:none;stroke:#000000;stroke-miterlimit:1;" x1="67.728" y1="106.989" x2="70.041" y2="107.76"/>
	<line style="fill:none;stroke:#000000;stroke-miterlimit:1;" x1="70.041" y1="107.76" x2="72.868" y2="107.76"/>
	<line style="fill:none;stroke:#000000;stroke-miterlimit:1;" x1="72.868" y1="107.76" x2="75.952" y2="106.475"/>
	<line style="fill:none;stroke:#000000;stroke-miterlimit:1;" x1="75.952" y1="106.475" x2="78.522" y2="105.189"/>
	<line style="fill:none;stroke:#000000;stroke-miterlimit:1;" x1="78.522" y1="105.189" x2="80.065" y2="103.391"/>
	<line style="fill:none;stroke:#000000;stroke-miterlimit:1;" x1="80.065" y1="103.391" x2="81.864" y2="100.82"/>
	<line style="fill:none;stroke:#000000;stroke-miterlimit:1;" x1="81.864" y1="100.82" x2="83.149" y2="97.736"/>
	<line style="fill:none;stroke:#000000;stroke-miterlimit:1;" x1="83.149" y1="97.736" x2="83.921" y2="95.166"/>
	<line style="fill:none;stroke:#000000;stroke-miterlimit:1;" x1="83.921" y1="95.166" x2="84.178" y2="92.596"/>
	<line style="fill:none;stroke:#000000;stroke-miterlimit:1;" x1="84.178" y1="92.596" x2="83.921" y2="90.796"/>
	<line style="fill:none;stroke:#000000;stroke-miterlimit:1;" x1="83.921" y1="90.796" x2="83.406" y2="87.712"/>
	<line style="fill:none;stroke:#000000;stroke-miterlimit:1;" x1="83.406" y1="87.712" x2="82.121" y2="85.142"/>
	<line style="fill:none;stroke:#000000;stroke-miterlimit:1;" x1="82.121" y1="85.142" x2="80.065" y2="82.571"/>
	<line style="fill:none;stroke:#000000;stroke-miterlimit:1;" x1="80.065" y1="82.571" x2="78.009" y2="80.771"/>
	<line style="fill:none;stroke:#000000;stroke-miterlimit:1;" x1="78.009" y1="80.771" x2="76.21" y2="80.001"/>
	<line style="fill:none;stroke:#000000;stroke-miterlimit:1;" x1="76.21" y1="80.001" x2="74.41" y2="79.229"/>
	<line style="fill:none;stroke:#000000;stroke-miterlimit:1;" x1="74.41" y1="79.229" x2="71.84" y2="78.973"/>
	<line style="fill:none;stroke:#000000;stroke-miterlimit:1;" x1="71.84" y1="78.973" x2="69.784" y2="78.716"/>
	<line style="fill:none;stroke:#000000;stroke-miterlimit:1;" x1="69.784" y1="78.716" x2="67.213" y2="78.716"/>
	<line style="fill:none;stroke:#000000;stroke-miterlimit:1;" x1="67.213" y1="78.716" x2="64.129" y2="78.973"/>
	<line style="fill:none;stroke:#000000;stroke-miterlimit:1;" x1="64.129" y1="78.973" x2="60.788" y2="80.001"/>
	<line style="fill:none;stroke:#000000;stroke-miterlimit:1;" x1="60.788" y1="80.001" x2="57.96" y2="81.543"/>
	<line style="fill:none;stroke:#000000;stroke-miterlimit:1;" x1="57.96" y1="81.543" x2="56.161" y2="83.085"/>
	<line style="fill:none;stroke:#000000;stroke-miterlimit:1;" x1="56.161" y1="83.085" x2="54.105" y2="84.885"/>
	<line style="fill:none;stroke:#000000;stroke-miterlimit:1;" x1="54.105" y1="84.885" x2="52.563" y2="86.684"/>
	<line style="fill:none;stroke:#000000;stroke-miterlimit:1;" x1="52.563" y1="86.684" x2="51.021" y2="89.511"/>
	<line style="fill:none;stroke:#000000;stroke-miterlimit:1;" x1="51.021" y1="89.511" x2="49.479" y2="92.338"/>
	<line style="fill:none;stroke:#000000;stroke-miterlimit:1;" x1="49.479" y1="92.338" x2="48.964" y2="94.908"/>
	<line style="fill:none;stroke:#000000;stroke-miterlimit:1;" x1="48.964" y1="94.908" x2="48.45" y2="98.507"/>
	<line style="fill:none;stroke:#000000;stroke-miterlimit:1;" x1="48.45" y1="98.507" x2="48.193" y2="102.105"/>
	<line style="fill:none;stroke:#000000;stroke-miterlimit:1;" x1="48.193" y1="102.105" x2="48.45" y2="104.933"/>
	<line style="fill:none;stroke:#000000;stroke-miterlimit:1;" x1="48.45" y1="104.933" x2="48.708" y2="109.045"/>
	<line style="fill:none;stroke:#000000;stroke-miterlimit:1;" x1="48.708" y1="109.045" x2="50.25" y2="113.158"/>
	<line style="fill:none;stroke:#000000;stroke-miterlimit:1;" x1="50.25" y1="113.158" x2="52.563" y2="117.784"/>
	<line style="fill:none;stroke:#000000;stroke-miterlimit:1;" x1="52.563" y1="117.784" x2="56.675" y2="123.182"/>
	<line style="fill:none;stroke:#000000;stroke-miterlimit:1;" x1="56.675" y1="123.182" x2="63.101" y2="129.351"/>
	<line style="fill:none;stroke:#000000;stroke-miterlimit:1;" x1="63.101" y1="129.351" x2="72.354" y2="136.805"/>
	<line style="fill:none;stroke:#000000;stroke-miterlimit:1;" x1="72.354" y1="136.805" x2="92.402" y2="148.114"/>
</g>
</svg>
