<?xml version="1.0" encoding="iso-8859-1"?>
<!-- Generator: Adobe Illustrator 16.0.1, SVG Export Plug-In . SVG Version: 6.00 Build 0)  -->
<!DOCTYPE svg PUBLIC "-//W3C//DTD SVG 1.1//EN" "http://www.w3.org/Graphics/SVG/1.1/DTD/svg11.dtd">
<svg version="1.1" id="Ebene_1" xmlns="http://www.w3.org/2000/svg" xmlns:xlink="http://www.w3.org/1999/xlink" x="0px" y="0px"
	 width="316.965px" height="148.114px" viewBox="0 0 316.965 148.114" style="enable-background:new 0 0 316.965 148.114;"
	 xml:space="preserve">
<g>
	<line style="fill:none;stroke:#000000;stroke-miterlimit:1;" x1="33.572" y1="59.575" x2="33.572" y2="148.114"/>
	<line style="fill:none;stroke:#000000;stroke-miterlimit:1;" x1="33.572" y1="148.114" x2="40.484" y2="148.114"/>
	<line style="fill:none;stroke:#000000;stroke-miterlimit:1;" x1="40.484" y1="148.114" x2="40.484" y2="59.575"/>
	<line style="fill:none;stroke:#000000;stroke-miterlimit:1;" x1="0" y1="59.246" x2="74.057" y2="59.246"/>
	<line style="fill:none;stroke:#000000;stroke-miterlimit:1;" x1="74.057" y1="59.246" x2="74.057" y2="35.876"/>
	<line style="fill:none;stroke:#000000;stroke-miterlimit:1;" x1="74.057" y1="35.876" x2="72.741" y2="33.243"/>
	<line style="fill:none;stroke:#000000;stroke-miterlimit:1;" x1="72.741" y1="33.243" x2="71.424" y2="31.598"/>
	<line style="fill:none;stroke:#000000;stroke-miterlimit:1;" x1="71.424" y1="31.598" x2="69.778" y2="31.598"/>
	<line style="fill:none;stroke:#000000;stroke-miterlimit:1;" x1="69.778" y1="31.598" x2="68.132" y2="31.598"/>
	<line style="fill:none;stroke:#000000;stroke-miterlimit:1;" x1="68.132" y1="31.598" x2="66.158" y2="31.927"/>
	<line style="fill:none;stroke:#000000;stroke-miterlimit:1;" x1="66.158" y1="31.927" x2="64.183" y2="33.243"/>
	<line style="fill:none;stroke:#000000;stroke-miterlimit:1;" x1="64.183" y1="33.243" x2="57.6" y2="39.168"/>
	<line style="fill:none;stroke:#000000;stroke-miterlimit:1;" x1="57.6" y1="39.168" x2="51.675" y2="44.434"/>
	<line style="fill:none;stroke:#000000;stroke-miterlimit:1;" x1="51.675" y1="44.434" x2="47.067" y2="46.738"/>
	<line style="fill:none;stroke:#000000;stroke-miterlimit:1;" x1="47.067" y1="46.738" x2="41.472" y2="48.055"/>
	<line style="fill:none;stroke:#000000;stroke-miterlimit:1;" x1="41.472" y1="48.055" x2="36.864" y2="48.384"/>
	<line style="fill:none;stroke:#000000;stroke-miterlimit:1;" x1="36.864" y1="48.384" x2="32.585" y2="48.055"/>
	<line style="fill:none;stroke:#000000;stroke-miterlimit:1;" x1="32.585" y1="48.055" x2="26.99" y2="46.738"/>
	<line style="fill:none;stroke:#000000;stroke-miterlimit:1;" x1="26.99" y1="46.738" x2="22.382" y2="44.434"/>
	<line style="fill:none;stroke:#000000;stroke-miterlimit:1;" x1="22.382" y1="44.434" x2="16.457" y2="39.168"/>
	<line style="fill:none;stroke:#000000;stroke-miterlimit:1;" x1="16.457" y1="39.168" x2="9.874" y2="33.243"/>
	<line style="fill:none;stroke:#000000;stroke-miterlimit:1;" x1="9.874" y1="33.243" x2="7.899" y2="31.927"/>
	<line style="fill:none;stroke:#000000;stroke-miterlimit:1;" x1="7.899" y1="31.927" x2="5.924" y2="31.598"/>
	<line style="fill:none;stroke:#000000;stroke-miterlimit:1;" x1="5.924" y1="31.598" x2="4.279" y2="31.598"/>
	<line style="fill:none;stroke:#000000;stroke-miterlimit:1;" x1="4.279" y1="31.598" x2="2.633" y2="31.598"/>
	<line style="fill:none;stroke:#000000;stroke-miterlimit:1;" x1="2.633" y1="31.598" x2="1.316" y2="33.243"/>
	<line style="fill:none;stroke:#000000;stroke-miterlimit:1;" x1="1.316" y1="33.243" x2="0" y2="35.876"/>
	<line style="fill:none;stroke:#000000;stroke-miterlimit:1;" x1="0" y1="35.876" x2="0" y2="59.246"/>
	<line style="fill:none;stroke:#000000;stroke-miterlimit:1;" x1="50.688" y1="44.434" x2="44.763" y2="5.595"/>
	<line style="fill:none;stroke:#000000;stroke-miterlimit:1;" x1="44.763" y1="5.595" x2="42.13" y2="2.304"/>
	<line style="fill:none;stroke:#000000;stroke-miterlimit:1;" x1="42.13" y1="2.304" x2="40.155" y2="0.987"/>
	<line style="fill:none;stroke:#000000;stroke-miterlimit:1;" x1="40.155" y1="0.987" x2="37.522" y2="0"/>
	<line style="fill:none;stroke:#000000;stroke-miterlimit:1;" x1="37.522" y1="0" x2="36.535" y2="0"/>
	<line style="fill:none;stroke:#000000;stroke-miterlimit:1;" x1="36.535" y1="0" x2="33.902" y2="0.987"/>
	<line style="fill:none;stroke:#000000;stroke-miterlimit:1;" x1="33.902" y1="0.987" x2="31.927" y2="2.304"/>
	<line style="fill:none;stroke:#000000;stroke-miterlimit:1;" x1="31.927" y1="2.304" x2="29.293" y2="5.595"/>
	<line style="fill:none;stroke:#000000;stroke-miterlimit:1;" x1="29.293" y1="5.595" x2="23.369" y2="44.434"/>
	<line style="fill:none;stroke:#000000;stroke-miterlimit:1;" x1="157.536" y1="0.329" x2="155.89" y2="33.572"/>
	<line style="fill:none;stroke:#000000;stroke-miterlimit:1;" x1="155.89" y1="33.572" x2="155.232" y2="61.879"/>
	<line style="fill:none;stroke:#000000;stroke-miterlimit:1;" x1="155.232" y1="61.879" x2="154.574" y2="83.603"/>
	<line style="fill:none;stroke:#000000;stroke-miterlimit:1;" x1="154.574" y1="83.603" x2="152.928" y2="99.072"/>
	<line style="fill:none;stroke:#000000;stroke-miterlimit:1;" x1="152.928" y1="99.072" x2="151.611" y2="113.884"/>
	<line style="fill:none;stroke:#000000;stroke-miterlimit:1;" x1="151.611" y1="113.884" x2="152.27" y2="129.683"/>
	<line style="fill:none;stroke:#000000;stroke-miterlimit:1;" x1="152.27" y1="129.683" x2="153.257" y2="134.619"/>
	<line style="fill:none;stroke:#000000;stroke-miterlimit:1;" x1="153.257" y1="134.619" x2="153.916" y2="138.569"/>
	<line style="fill:none;stroke:#000000;stroke-miterlimit:1;" x1="153.916" y1="138.569" x2="153.586" y2="142.519"/>
	<line style="fill:none;stroke:#000000;stroke-miterlimit:1;" x1="153.586" y1="142.519" x2="151.611" y2="145.151"/>
	<line style="fill:none;stroke:#000000;stroke-miterlimit:1;" x1="151.611" y1="145.151" x2="148.649" y2="147.127"/>
	<line style="fill:none;stroke:#000000;stroke-miterlimit:1;" x1="148.649" y1="147.127" x2="145.028" y2="147.785"/>
	<line style="fill:none;stroke:#000000;stroke-miterlimit:1;" x1="145.028" y1="147.785" x2="138.446" y2="146.14"/>
	<line style="fill:none;stroke:#000000;stroke-miterlimit:1;" x1="138.446" y1="146.14" x2="135.812" y2="144.164"/>
	<line style="fill:none;stroke:#000000;stroke-miterlimit:1;" x1="135.812" y1="144.164" x2="131.534" y2="143.177"/>
	<line style="fill:none;stroke:#000000;stroke-miterlimit:1;" x1="131.534" y1="143.177" x2="121.659" y2="148.114"/>
	<line style="fill:none;stroke:#000000;stroke-miterlimit:1;" x1="121.659" y1="148.114" x2="80.846" y2="147.785"/>
	<line style="fill:none;stroke:#000000;stroke-miterlimit:1;" x1="80.846" y1="147.785" x2="79.2" y2="142.519"/>
	<line style="fill:none;stroke:#000000;stroke-miterlimit:1;" x1="79.2" y1="142.519" x2="80.517" y2="139.886"/>
	<line style="fill:none;stroke:#000000;stroke-miterlimit:1;" x1="80.517" y1="139.886" x2="84.137" y2="139.228"/>
	<line style="fill:none;stroke:#000000;stroke-miterlimit:1;" x1="84.137" y1="139.228" x2="98.29" y2="136.265"/>
	<line style="fill:none;stroke:#000000;stroke-miterlimit:1;" x1="98.29" y1="136.265" x2="110.139" y2="130.341"/>
	<line style="fill:none;stroke:#000000;stroke-miterlimit:1;" x1="110.139" y1="130.341" x2="118.039" y2="127.378"/>
	<line style="fill:none;stroke:#000000;stroke-miterlimit:1;" x1="118.039" y1="127.378" x2="124.951" y2="125.732"/>
	<line style="fill:none;stroke:#000000;stroke-miterlimit:1;" x1="124.951" y1="125.732" x2="129.888" y2="121.453"/>
	<line style="fill:none;stroke:#000000;stroke-miterlimit:1;" x1="129.888" y1="121.453" x2="131.534" y2="117.175"/>
	<line style="fill:none;stroke:#000000;stroke-miterlimit:1;" x1="131.534" y1="117.175" x2="131.863" y2="112.566"/>
	<line style="fill:none;stroke:#000000;stroke-miterlimit:1;" x1="131.863" y1="112.566" x2="131.205" y2="105.654"/>
	<line style="fill:none;stroke:#000000;stroke-miterlimit:1;" x1="131.205" y1="105.654" x2="130.875" y2="96.438"/>
	<line style="fill:none;stroke:#000000;stroke-miterlimit:1;" x1="130.875" y1="96.438" x2="130.217" y2="71.424"/>
	<line style="fill:none;stroke:#000000;stroke-miterlimit:1;" x1="130.217" y1="71.424" x2="129.888" y2="46.409"/>
	<line style="fill:none;stroke:#000000;stroke-miterlimit:1;" x1="129.888" y1="46.409" x2="127.255" y2="0"/>
	<line style="fill:none;stroke:#000000;stroke-miterlimit:1;" x1="127.255" y1="0" x2="157.536" y2="0"/>
	<line style="fill:none;stroke:#000000;stroke-miterlimit:1;" x1="302.482" y1="1.357" x2="306.104" y2="2.674"/>
	<line style="fill:none;stroke:#000000;stroke-miterlimit:1;" x1="306.104" y1="2.674" x2="310.381" y2="5.307"/>
	<line style="fill:none;stroke:#000000;stroke-miterlimit:1;" x1="310.381" y1="5.307" x2="314.99" y2="9.915"/>
	<line style="fill:none;stroke:#000000;stroke-miterlimit:1;" x1="314.99" y1="9.915" x2="316.307" y2="15.182"/>
	<line style="fill:none;stroke:#000000;stroke-miterlimit:1;" x1="316.307" y1="15.182" x2="316.965" y2="18.473"/>
	<line style="fill:none;stroke:#000000;stroke-miterlimit:1;" x1="316.965" y1="18.473" x2="316.965" y2="23.739"/>
	<line style="fill:none;stroke:#000000;stroke-miterlimit:1;" x1="316.965" y1="23.739" x2="315.318" y2="29.335"/>
	<line style="fill:none;stroke:#000000;stroke-miterlimit:1;" x1="315.318" y1="29.335" x2="313.016" y2="34.272"/>
	<line style="fill:none;stroke:#000000;stroke-miterlimit:1;" x1="313.016" y1="34.272" x2="310.053" y2="37.234"/>
	<line style="fill:none;stroke:#000000;stroke-miterlimit:1;" x1="310.053" y1="37.234" x2="306.432" y2="39.209"/>
	<line style="fill:none;stroke:#000000;stroke-miterlimit:1;" x1="306.432" y1="39.209" x2="302.482" y2="40.525"/>
	<line style="fill:none;stroke:#000000;stroke-miterlimit:1;" x1="302.482" y1="40.525" x2="193.535" y2="40.525"/>
	<line style="fill:none;stroke:#000000;stroke-miterlimit:1;" x1="193.535" y1="40.525" x2="185.965" y2="40.196"/>
	<line style="fill:none;stroke:#000000;stroke-miterlimit:1;" x1="185.965" y1="40.196" x2="181.688" y2="38.222"/>
	<line style="fill:none;stroke:#000000;stroke-miterlimit:1;" x1="181.688" y1="38.222" x2="178.395" y2="35.917"/>
	<line style="fill:none;stroke:#000000;stroke-miterlimit:1;" x1="178.395" y1="35.917" x2="175.104" y2="30.98"/>
	<line style="fill:none;stroke:#000000;stroke-miterlimit:1;" x1="175.104" y1="30.98" x2="173.459" y2="26.373"/>
	<line style="fill:none;stroke:#000000;stroke-miterlimit:1;" x1="173.459" y1="26.373" x2="172.801" y2="22.094"/>
	<line style="fill:none;stroke:#000000;stroke-miterlimit:1;" x1="172.801" y1="22.094" x2="173.459" y2="17.156"/>
	<line style="fill:none;stroke:#000000;stroke-miterlimit:1;" x1="173.459" y1="17.156" x2="174.445" y2="12.219"/>
	<line style="fill:none;stroke:#000000;stroke-miterlimit:1;" x1="174.445" y1="12.219" x2="176.75" y2="8.27"/>
	<line style="fill:none;stroke:#000000;stroke-miterlimit:1;" x1="176.75" y1="8.27" x2="180.371" y2="4.649"/>
	<line style="fill:none;stroke:#000000;stroke-miterlimit:1;" x1="180.371" y1="4.649" x2="184.979" y2="2.016"/>
	<line style="fill:none;stroke:#000000;stroke-miterlimit:1;" x1="184.979" y1="2.016" x2="188.27" y2="1.357"/>
	<line style="fill:none;stroke:#000000;stroke-miterlimit:1;" x1="188.27" y1="1.357" x2="302.482" y2="1.357"/>
	<line style="fill:none;stroke:#000000;stroke-miterlimit:1;" x1="302.482" y1="1.357" x2="299.52" y2="6.295"/>
	<line style="fill:none;stroke:#000000;stroke-miterlimit:1;" x1="299.52" y1="6.295" x2="297.217" y2="10.903"/>
	<line style="fill:none;stroke:#000000;stroke-miterlimit:1;" x1="297.217" y1="10.903" x2="296.229" y2="15.84"/>
	<line style="fill:none;stroke:#000000;stroke-miterlimit:1;" x1="296.229" y1="15.84" x2="295.898" y2="20.448"/>
	<line style="fill:none;stroke:#000000;stroke-miterlimit:1;" x1="295.898" y1="20.448" x2="296.229" y2="25.385"/>
	<line style="fill:none;stroke:#000000;stroke-miterlimit:1;" x1="296.229" y1="25.385" x2="297.545" y2="30.322"/>
	<line style="fill:none;stroke:#000000;stroke-miterlimit:1;" x1="297.545" y1="30.322" x2="299.52" y2="35.259"/>
	<line style="fill:none;stroke:#000000;stroke-miterlimit:1;" x1="299.52" y1="35.259" x2="302.482" y2="39.867"/>
	<line style="fill:none;stroke:#000000;stroke-miterlimit:1;" x1="302.482" y1="39.867" x2="297.545" y2="37.234"/>
	<line style="fill:none;stroke:#000000;stroke-miterlimit:1;" x1="297.545" y1="37.234" x2="285.695" y2="33.284"/>
	<line style="fill:none;stroke:#000000;stroke-miterlimit:1;" x1="285.695" y1="33.284" x2="276.48" y2="30.651"/>
	<line style="fill:none;stroke:#000000;stroke-miterlimit:1;" x1="276.48" y1="30.651" x2="266.605" y2="28.676"/>
	<line style="fill:none;stroke:#000000;stroke-miterlimit:1;" x1="266.605" y1="28.676" x2="257.719" y2="26.373"/>
	<line style="fill:none;stroke:#000000;stroke-miterlimit:1;" x1="257.719" y1="26.373" x2="245.211" y2="26.043"/>
	<line style="fill:none;stroke:#000000;stroke-miterlimit:1;" x1="245.211" y1="26.043" x2="239.287" y2="26.043"/>
	<line style="fill:none;stroke:#000000;stroke-miterlimit:1;" x1="239.287" y1="26.043" x2="227.109" y2="27.36"/>
	<line style="fill:none;stroke:#000000;stroke-miterlimit:1;" x1="227.109" y1="27.36" x2="217.562" y2="29.664"/>
	<line style="fill:none;stroke:#000000;stroke-miterlimit:1;" x1="217.562" y1="29.664" x2="209.664" y2="31.639"/>
	<line style="fill:none;stroke:#000000;stroke-miterlimit:1;" x1="209.664" y1="31.639" x2="198.473" y2="35.588"/>
	<line style="fill:none;stroke:#000000;stroke-miterlimit:1;" x1="198.473" y1="35.588" x2="187.941" y2="39.867"/>
	<line style="fill:none;stroke:#000000;stroke-miterlimit:1;" x1="301.824" y1="1.357" x2="290.633" y2="6.295"/>
	<line style="fill:none;stroke:#000000;stroke-miterlimit:1;" x1="290.633" y1="6.295" x2="280.43" y2="9.915"/>
	<line style="fill:none;stroke:#000000;stroke-miterlimit:1;" x1="280.43" y1="9.915" x2="272.529" y2="11.89"/>
	<line style="fill:none;stroke:#000000;stroke-miterlimit:1;" x1="272.529" y1="11.89" x2="263.643" y2="14.194"/>
	<line style="fill:none;stroke:#000000;stroke-miterlimit:1;" x1="263.643" y1="14.194" x2="252.453" y2="14.853"/>
	<line style="fill:none;stroke:#000000;stroke-miterlimit:1;" x1="252.453" y1="14.853" x2="244.883" y2="15.511"/>
	<line style="fill:none;stroke:#000000;stroke-miterlimit:1;" x1="244.883" y1="15.511" x2="232.045" y2="14.523"/>
	<line style="fill:none;stroke:#000000;stroke-miterlimit:1;" x1="232.045" y1="14.523" x2="221.514" y2="12.877"/>
	<line style="fill:none;stroke:#000000;stroke-miterlimit:1;" x1="221.514" y1="12.877" x2="212.297" y2="10.574"/>
	<line style="fill:none;stroke:#000000;stroke-miterlimit:1;" x1="212.297" y1="10.574" x2="204.068" y2="8.27"/>
	<line style="fill:none;stroke:#000000;stroke-miterlimit:1;" x1="204.068" y1="8.27" x2="192.219" y2="4.32"/>
	<line style="fill:none;stroke:#000000;stroke-miterlimit:1;" x1="192.219" y1="4.32" x2="187.611" y2="2.016"/>
	<line style="fill:none;stroke:#000000;stroke-miterlimit:1;" x1="187.611" y1="2.016" x2="190.574" y2="6.295"/>
	<line style="fill:none;stroke:#000000;stroke-miterlimit:1;" x1="190.574" y1="6.295" x2="192.549" y2="10.903"/>
	<line style="fill:none;stroke:#000000;stroke-miterlimit:1;" x1="192.549" y1="10.903" x2="193.535" y2="15.84"/>
	<line style="fill:none;stroke:#000000;stroke-miterlimit:1;" x1="193.535" y1="15.84" x2="193.865" y2="20.448"/>
	<line style="fill:none;stroke:#000000;stroke-miterlimit:1;" x1="193.865" y1="20.448" x2="193.535" y2="25.385"/>
	<line style="fill:none;stroke:#000000;stroke-miterlimit:1;" x1="193.535" y1="25.385" x2="192.549" y2="30.322"/>
	<line style="fill:none;stroke:#000000;stroke-miterlimit:1;" x1="192.549" y1="30.322" x2="190.574" y2="35.259"/>
	<line style="fill:none;stroke:#000000;stroke-miterlimit:1;" x1="190.574" y1="35.259" x2="187.611" y2="39.867"/>
</g>
</svg>
