<?xml version="1.0" encoding="iso-8859-1"?>
<!-- Generator: Adobe Illustrator 16.0.1, SVG Export Plug-In . SVG Version: 6.00 Build 0)  -->
<!DOCTYPE svg PUBLIC "-//W3C//DTD SVG 1.1//EN" "http://www.w3.org/Graphics/SVG/1.1/DTD/svg11.dtd">
<svg version="1.1" id="Ebene_1" xmlns="http://www.w3.org/2000/svg" xmlns:xlink="http://www.w3.org/1999/xlink" x="0px" y="0px"
	 width="249.449px" height="149.431px" viewBox="0 0 249.449 149.431" style="enable-background:new 0 0 249.449 149.431;"
	 xml:space="preserve">
<g>
	<line style="fill:none;stroke:#000000;stroke-miterlimit:1;" x1="50.85" y1="13.69" x2="49.273" y2="9.748"/>
	<line style="fill:none;stroke:#000000;stroke-miterlimit:1;" x1="49.273" y1="9.748" x2="46.119" y2="3.441"/>
	<line style="fill:none;stroke:#000000;stroke-miterlimit:1;" x1="46.119" y1="3.441" x2="44.148" y2="0.288"/>
	<line style="fill:none;stroke:#000000;stroke-miterlimit:1;" x1="44.148" y1="0.288" x2="97.363" y2="0.288"/>
	<line style="fill:none;stroke:#000000;stroke-miterlimit:1;" x1="97.363" y1="0.288" x2="94.209" y2="5.806"/>
	<line style="fill:none;stroke:#000000;stroke-miterlimit:1;" x1="94.209" y1="5.806" x2="91.845" y2="11.325"/>
	<line style="fill:none;stroke:#000000;stroke-miterlimit:1;" x1="91.845" y1="11.325" x2="91.056" y2="13.69"/>
	<line style="fill:none;stroke:#000000;stroke-miterlimit:1;" x1="44.542" y1="29.063" x2="32.323" y2="22.362"/>
	<line style="fill:none;stroke:#000000;stroke-miterlimit:1;" x1="32.323" y1="22.362" x2="29.563" y2="31.822"/>
	<line style="fill:none;stroke:#000000;stroke-miterlimit:1;" x1="29.563" y1="31.822" x2="35.871" y2="36.553"/>
	<line style="fill:none;stroke:#000000;stroke-miterlimit:1;" x1="35.871" y1="36.553" x2="40.207" y2="39.706"/>
	<line style="fill:none;stroke:#000000;stroke-miterlimit:1;" x1="40.207" y1="39.706" x2="46.119" y2="46.013"/>
	<line style="fill:none;stroke:#000000;stroke-miterlimit:1;" x1="97.363" y1="29.063" x2="109.188" y2="22.362"/>
	<line style="fill:none;stroke:#000000;stroke-miterlimit:1;" x1="109.188" y1="22.362" x2="112.342" y2="32.217"/>
	<line style="fill:none;stroke:#000000;stroke-miterlimit:1;" x1="112.342" y1="32.217" x2="106.824" y2="35.37"/>
	<line style="fill:none;stroke:#000000;stroke-miterlimit:1;" x1="106.824" y1="35.37" x2="100.517" y2="41.283"/>
	<line style="fill:none;stroke:#000000;stroke-miterlimit:1;" x1="100.517" y1="41.283" x2="96.181" y2="46.013"/>
	<line style="fill:none;stroke:#000000;stroke-miterlimit:1;" x1="53.215" y1="41.283" x2="54.003" y2="38.918"/>
	<line style="fill:none;stroke:#000000;stroke-miterlimit:1;" x1="54.003" y1="38.918" x2="55.58" y2="36.158"/>
	<line style="fill:none;stroke:#000000;stroke-miterlimit:1;" x1="55.58" y1="36.158" x2="57.945" y2="33.399"/>
	<line style="fill:none;stroke:#000000;stroke-miterlimit:1;" x1="57.945" y1="33.399" x2="61.098" y2="30.64"/>
	<line style="fill:none;stroke:#000000;stroke-miterlimit:1;" x1="61.098" y1="30.64" x2="66.617" y2="28.669"/>
	<line style="fill:none;stroke:#000000;stroke-miterlimit:1;" x1="66.617" y1="28.669" x2="70.165" y2="28.275"/>
	<line style="fill:none;stroke:#000000;stroke-miterlimit:1;" x1="70.165" y1="28.275" x2="74.5" y2="28.669"/>
	<line style="fill:none;stroke:#000000;stroke-miterlimit:1;" x1="74.5" y1="28.669" x2="79.231" y2="30.246"/>
	<line style="fill:none;stroke:#000000;stroke-miterlimit:1;" x1="79.231" y1="30.246" x2="83.172" y2="32.611"/>
	<line style="fill:none;stroke:#000000;stroke-miterlimit:1;" x1="83.172" y1="32.611" x2="85.144" y2="35.37"/>
	<line style="fill:none;stroke:#000000;stroke-miterlimit:1;" x1="85.144" y1="35.37" x2="87.114" y2="37.735"/>
	<line style="fill:none;stroke:#000000;stroke-miterlimit:1;" x1="87.114" y1="37.735" x2="88.691" y2="42.071"/>
	<line style="fill:none;stroke:#000000;stroke-miterlimit:1;" x1="88.691" y1="42.071" x2="82.384" y2="38.129"/>
	<line style="fill:none;stroke:#000000;stroke-miterlimit:1;" x1="82.384" y1="38.129" x2="77.654" y2="36.553"/>
	<line style="fill:none;stroke:#000000;stroke-miterlimit:1;" x1="77.654" y1="36.553" x2="73.712" y2="35.37"/>
	<line style="fill:none;stroke:#000000;stroke-miterlimit:1;" x1="73.712" y1="35.37" x2="70.559" y2="34.976"/>
	<line style="fill:none;stroke:#000000;stroke-miterlimit:1;" x1="70.559" y1="34.976" x2="66.617" y2="35.764"/>
	<line style="fill:none;stroke:#000000;stroke-miterlimit:1;" x1="66.617" y1="35.764" x2="62.675" y2="36.553"/>
	<line style="fill:none;stroke:#000000;stroke-miterlimit:1;" x1="62.675" y1="36.553" x2="57.945" y2="38.918"/>
	<line style="fill:none;stroke:#000000;stroke-miterlimit:1;" x1="57.945" y1="38.918" x2="54.792" y2="41.283"/>
	<line style="fill:none;stroke:#000000;stroke-miterlimit:1;" x1="54.792" y1="41.283" x2="53.215" y2="42.071"/>
	<line style="fill:none;stroke:#000000;stroke-miterlimit:1;" x1="55.58" y1="83.46" x2="61.887" y2="57.838"/>
	<line style="fill:none;stroke:#000000;stroke-miterlimit:1;" x1="61.887" y1="57.838" x2="64.646" y2="54.291"/>
	<line style="fill:none;stroke:#000000;stroke-miterlimit:1;" x1="64.646" y1="54.291" x2="67.405" y2="53.108"/>
	<line style="fill:none;stroke:#000000;stroke-miterlimit:1;" x1="67.405" y1="53.108" x2="70.559" y2="52.32"/>
	<line style="fill:none;stroke:#000000;stroke-miterlimit:1;" x1="70.559" y1="52.32" x2="74.895" y2="53.108"/>
	<line style="fill:none;stroke:#000000;stroke-miterlimit:1;" x1="74.895" y1="53.108" x2="78.048" y2="55.474"/>
	<line style="fill:none;stroke:#000000;stroke-miterlimit:1;" x1="78.048" y1="55.474" x2="79.625" y2="58.232"/>
	<line style="fill:none;stroke:#000000;stroke-miterlimit:1;" x1="79.625" y1="58.232" x2="86.326" y2="83.854"/>
	<line style="fill:none;stroke:#000000;stroke-miterlimit:1;" x1="71.347" y1="88.979" x2="65.435" y2="88.585"/>
	<line style="fill:none;stroke:#000000;stroke-miterlimit:1;" x1="65.435" y1="88.585" x2="62.675" y2="87.797"/>
	<line style="fill:none;stroke:#000000;stroke-miterlimit:1;" x1="62.675" y1="87.797" x2="60.31" y2="87.402"/>
	<line style="fill:none;stroke:#000000;stroke-miterlimit:1;" x1="60.31" y1="87.402" x2="56.368" y2="85.432"/>
	<line style="fill:none;stroke:#000000;stroke-miterlimit:1;" x1="56.368" y1="85.432" x2="53.609" y2="81.884"/>
	<line style="fill:none;stroke:#000000;stroke-miterlimit:1;" x1="53.609" y1="81.884" x2="51.244" y2="78.336"/>
	<line style="fill:none;stroke:#000000;stroke-miterlimit:1;" x1="51.244" y1="78.336" x2="49.667" y2="74.394"/>
	<line style="fill:none;stroke:#000000;stroke-miterlimit:1;" x1="49.667" y1="74.394" x2="48.484" y2="69.664"/>
	<line style="fill:none;stroke:#000000;stroke-miterlimit:1;" x1="48.484" y1="69.664" x2="46.908" y2="63.357"/>
	<line style="fill:none;stroke:#000000;stroke-miterlimit:1;" x1="46.908" y1="63.357" x2="44.542" y2="30.246"/>
	<line style="fill:none;stroke:#000000;stroke-miterlimit:1;" x1="44.542" y1="30.246" x2="44.937" y2="24.333"/>
	<line style="fill:none;stroke:#000000;stroke-miterlimit:1;" x1="44.937" y1="24.333" x2="45.725" y2="21.574"/>
	<line style="fill:none;stroke:#000000;stroke-miterlimit:1;" x1="45.725" y1="21.574" x2="46.119" y2="19.208"/>
	<line style="fill:none;stroke:#000000;stroke-miterlimit:1;" x1="46.119" y1="19.208" x2="48.09" y2="16.055"/>
	<line style="fill:none;stroke:#000000;stroke-miterlimit:1;" x1="48.09" y1="16.055" x2="50.456" y2="13.69"/>
	<line style="fill:none;stroke:#000000;stroke-miterlimit:1;" x1="50.456" y1="13.69" x2="54.397" y2="11.325"/>
	<line style="fill:none;stroke:#000000;stroke-miterlimit:1;" x1="54.397" y1="11.325" x2="57.945" y2="10.143"/>
	<line style="fill:none;stroke:#000000;stroke-miterlimit:1;" x1="57.945" y1="10.143" x2="61.098" y2="9.748"/>
	<line style="fill:none;stroke:#000000;stroke-miterlimit:1;" x1="61.098" y1="9.748" x2="70.559" y2="8.96"/>
	<line style="fill:none;stroke:#000000;stroke-miterlimit:1;" x1="70.559" y1="8.96" x2="81.596" y2="9.748"/>
	<line style="fill:none;stroke:#000000;stroke-miterlimit:1;" x1="81.596" y1="9.748" x2="86.326" y2="10.537"/>
	<line style="fill:none;stroke:#000000;stroke-miterlimit:1;" x1="86.326" y1="10.537" x2="90.268" y2="12.901"/>
	<line style="fill:none;stroke:#000000;stroke-miterlimit:1;" x1="90.268" y1="12.901" x2="92.633" y2="14.479"/>
	<line style="fill:none;stroke:#000000;stroke-miterlimit:1;" x1="92.633" y1="14.479" x2="94.604" y2="17.632"/>
	<line style="fill:none;stroke:#000000;stroke-miterlimit:1;" x1="94.604" y1="17.632" x2="96.575" y2="23.939"/>
	<line style="fill:none;stroke:#000000;stroke-miterlimit:1;" x1="96.575" y1="23.939" x2="96.969" y2="29.063"/>
	<line style="fill:none;stroke:#000000;stroke-miterlimit:1;" x1="96.969" y1="29.063" x2="94.998" y2="57.838"/>
	<line style="fill:none;stroke:#000000;stroke-miterlimit:1;" x1="94.998" y1="57.838" x2="94.209" y2="65.722"/>
	<line style="fill:none;stroke:#000000;stroke-miterlimit:1;" x1="94.209" y1="65.722" x2="91.845" y2="74.394"/>
	<line style="fill:none;stroke:#000000;stroke-miterlimit:1;" x1="91.845" y1="74.394" x2="90.268" y2="78.336"/>
	<line style="fill:none;stroke:#000000;stroke-miterlimit:1;" x1="90.268" y1="78.336" x2="87.903" y2="82.278"/>
	<line style="fill:none;stroke:#000000;stroke-miterlimit:1;" x1="87.903" y1="82.278" x2="86.326" y2="84.249"/>
	<line style="fill:none;stroke:#000000;stroke-miterlimit:1;" x1="86.326" y1="84.249" x2="83.961" y2="86.22"/>
	<line style="fill:none;stroke:#000000;stroke-miterlimit:1;" x1="83.961" y1="86.22" x2="81.202" y2="87.797"/>
	<line style="fill:none;stroke:#000000;stroke-miterlimit:1;" x1="81.202" y1="87.797" x2="77.654" y2="88.585"/>
	<line style="fill:none;stroke:#000000;stroke-miterlimit:1;" x1="77.654" y1="88.585" x2="71.347" y2="88.979"/>
	<line style="fill:none;stroke:#000000;stroke-miterlimit:1;" x1="121.408" y1="86.909" x2="122.985" y2="83.756"/>
	<line style="fill:none;stroke:#000000;stroke-miterlimit:1;" x1="122.985" y1="83.756" x2="125.744" y2="80.603"/>
	<line style="fill:none;stroke:#000000;stroke-miterlimit:1;" x1="125.744" y1="80.603" x2="126.928" y2="79.42"/>
	<line style="fill:none;stroke:#000000;stroke-miterlimit:1;" x1="126.928" y1="79.42" x2="129.291" y2="77.844"/>
	<line style="fill:none;stroke:#000000;stroke-miterlimit:1;" x1="129.291" y1="77.844" x2="133.234" y2="77.449"/>
	<line style="fill:none;stroke:#000000;stroke-miterlimit:1;" x1="133.234" y1="77.449" x2="137.57" y2="79.025"/>
	<line style="fill:none;stroke:#000000;stroke-miterlimit:1;" x1="137.57" y1="79.025" x2="140.33" y2="81.785"/>
	<line style="fill:none;stroke:#000000;stroke-miterlimit:1;" x1="140.33" y1="81.785" x2="141.512" y2="83.756"/>
	<line style="fill:none;stroke:#000000;stroke-miterlimit:1;" x1="141.512" y1="83.756" x2="142.301" y2="85.333"/>
	<line style="fill:none;stroke:#000000;stroke-miterlimit:1;" x1="142.301" y1="85.333" x2="143.482" y2="89.669"/>
	<line style="fill:none;stroke:#000000;stroke-miterlimit:1;" x1="143.482" y1="89.669" x2="143.482" y2="148.402"/>
	<line style="fill:none;stroke:#000000;stroke-miterlimit:1;" x1="143.482" y1="148.402" x2="0" y2="148.402"/>
	<line style="fill:none;stroke:#000000;stroke-miterlimit:1;" x1="0" y1="148.402" x2="0" y2="89.669"/>
	<line style="fill:none;stroke:#000000;stroke-miterlimit:1;" x1="0" y1="89.669" x2="1.577" y2="83.362"/>
	<line style="fill:none;stroke:#000000;stroke-miterlimit:1;" x1="1.577" y1="83.362" x2="2.759" y2="81.391"/>
	<line style="fill:none;stroke:#000000;stroke-miterlimit:1;" x1="2.759" y1="81.391" x2="5.519" y2="79.025"/>
	<line style="fill:none;stroke:#000000;stroke-miterlimit:1;" x1="5.519" y1="79.025" x2="9.46" y2="77.449"/>
	<line style="fill:none;stroke:#000000;stroke-miterlimit:1;" x1="9.46" y1="77.449" x2="11.826" y2="77.449"/>
	<line style="fill:none;stroke:#000000;stroke-miterlimit:1;" x1="11.826" y1="77.449" x2="14.19" y2="78.237"/>
	<line style="fill:none;stroke:#000000;stroke-miterlimit:1;" x1="14.19" y1="78.237" x2="17.344" y2="80.208"/>
	<line style="fill:none;stroke:#000000;stroke-miterlimit:1;" x1="17.344" y1="80.208" x2="19.709" y2="83.362"/>
	<line style="fill:none;stroke:#000000;stroke-miterlimit:1;" x1="19.709" y1="83.362" x2="21.286" y2="86.909"/>
	<line style="fill:none;stroke:#000000;stroke-miterlimit:1;" x1="21.286" y1="86.909" x2="22.074" y2="90.457"/>
	<line style="fill:none;stroke:#000000;stroke-miterlimit:1;" x1="22.074" y1="90.457" x2="22.863" y2="93.217"/>
	<line style="fill:none;stroke:#000000;stroke-miterlimit:1;" x1="22.863" y1="93.217" x2="23.651" y2="95.582"/>
	<line style="fill:none;stroke:#000000;stroke-miterlimit:1;" x1="23.651" y1="95.582" x2="25.228" y2="100.706"/>
	<line style="fill:none;stroke:#000000;stroke-miterlimit:1;" x1="25.228" y1="100.706" x2="26.41" y2="103.859"/>
	<line style="fill:none;stroke:#000000;stroke-miterlimit:1;" x1="26.41" y1="103.859" x2="27.593" y2="106.225"/>
	<line style="fill:none;stroke:#000000;stroke-miterlimit:1;" x1="27.593" y1="106.225" x2="28.775" y2="108.59"/>
	<line style="fill:none;stroke:#000000;stroke-miterlimit:1;" x1="28.775" y1="108.59" x2="29.958" y2="110.166"/>
	<line style="fill:none;stroke:#000000;stroke-miterlimit:1;" x1="29.958" y1="110.166" x2="31.535" y2="112.531"/>
	<line style="fill:none;stroke:#000000;stroke-miterlimit:1;" x1="31.535" y1="112.531" x2="34.688" y2="116.079"/>
	<line style="fill:none;stroke:#000000;stroke-miterlimit:1;" x1="34.688" y1="116.079" x2="36.659" y2="118.05"/>
	<line style="fill:none;stroke:#000000;stroke-miterlimit:1;" x1="36.659" y1="118.05" x2="37.841" y2="119.627"/>
	<line style="fill:none;stroke:#000000;stroke-miterlimit:1;" x1="37.841" y1="119.627" x2="40.207" y2="121.598"/>
	<line style="fill:none;stroke:#000000;stroke-miterlimit:1;" x1="40.207" y1="121.598" x2="42.966" y2="123.568"/>
	<line style="fill:none;stroke:#000000;stroke-miterlimit:1;" x1="42.966" y1="123.568" x2="44.542" y2="124.751"/>
	<line style="fill:none;stroke:#000000;stroke-miterlimit:1;" x1="44.542" y1="124.751" x2="46.514" y2="126.328"/>
	<line style="fill:none;stroke:#000000;stroke-miterlimit:1;" x1="46.514" y1="126.328" x2="48.878" y2="127.116"/>
	<line style="fill:none;stroke:#000000;stroke-miterlimit:1;" x1="48.878" y1="127.116" x2="52.032" y2="128.693"/>
	<line style="fill:none;stroke:#000000;stroke-miterlimit:1;" x1="52.032" y1="128.693" x2="54.397" y2="129.481"/>
	<line style="fill:none;stroke:#000000;stroke-miterlimit:1;" x1="54.397" y1="129.481" x2="57.551" y2="130.27"/>
	<line style="fill:none;stroke:#000000;stroke-miterlimit:1;" x1="57.551" y1="130.27" x2="59.127" y2="131.058"/>
	<line style="fill:none;stroke:#000000;stroke-miterlimit:1;" x1="59.127" y1="131.058" x2="61.887" y2="131.847"/>
	<line style="fill:none;stroke:#000000;stroke-miterlimit:1;" x1="61.887" y1="131.847" x2="64.252" y2="131.847"/>
	<line style="fill:none;stroke:#000000;stroke-miterlimit:1;" x1="64.252" y1="131.847" x2="67.011" y2="132.24"/>
	<line style="fill:none;stroke:#000000;stroke-miterlimit:1;" x1="67.011" y1="132.24" x2="69.376" y2="132.24"/>
	<line style="fill:none;stroke:#000000;stroke-miterlimit:1;" x1="69.376" y1="132.24" x2="72.924" y2="132.635"/>
	<line style="fill:none;stroke:#000000;stroke-miterlimit:1;" x1="72.924" y1="132.635" x2="75.289" y2="132.24"/>
	<line style="fill:none;stroke:#000000;stroke-miterlimit:1;" x1="75.289" y1="132.24" x2="79.231" y2="132.24"/>
	<line style="fill:none;stroke:#000000;stroke-miterlimit:1;" x1="79.231" y1="132.24" x2="80.808" y2="131.847"/>
	<line style="fill:none;stroke:#000000;stroke-miterlimit:1;" x1="80.808" y1="131.847" x2="83.961" y2="131.058"/>
	<line style="fill:none;stroke:#000000;stroke-miterlimit:1;" x1="83.961" y1="131.058" x2="86.326" y2="130.27"/>
	<line style="fill:none;stroke:#000000;stroke-miterlimit:1;" x1="86.326" y1="130.27" x2="89.479" y2="129.481"/>
	<line style="fill:none;stroke:#000000;stroke-miterlimit:1;" x1="89.479" y1="129.481" x2="91.451" y2="128.299"/>
	<line style="fill:none;stroke:#000000;stroke-miterlimit:1;" x1="91.451" y1="128.299" x2="93.815" y2="127.116"/>
	<line style="fill:none;stroke:#000000;stroke-miterlimit:1;" x1="93.815" y1="127.116" x2="96.181" y2="126.328"/>
	<line style="fill:none;stroke:#000000;stroke-miterlimit:1;" x1="96.181" y1="126.328" x2="98.546" y2="124.751"/>
	<line style="fill:none;stroke:#000000;stroke-miterlimit:1;" x1="98.546" y1="124.751" x2="100.517" y2="123.175"/>
	<line style="fill:none;stroke:#000000;stroke-miterlimit:1;" x1="100.517" y1="123.175" x2="102.488" y2="121.598"/>
	<line style="fill:none;stroke:#000000;stroke-miterlimit:1;" x1="102.488" y1="121.598" x2="104.458" y2="120.021"/>
	<line style="fill:none;stroke:#000000;stroke-miterlimit:1;" x1="104.458" y1="120.021" x2="106.429" y2="118.05"/>
	<line style="fill:none;stroke:#000000;stroke-miterlimit:1;" x1="106.429" y1="118.05" x2="108.4" y2="116.079"/>
	<line style="fill:none;stroke:#000000;stroke-miterlimit:1;" x1="108.4" y1="116.079" x2="110.371" y2="114.502"/>
	<line style="fill:none;stroke:#000000;stroke-miterlimit:1;" x1="110.371" y1="114.502" x2="111.554" y2="112.137"/>
	<line style="fill:none;stroke:#000000;stroke-miterlimit:1;" x1="111.554" y1="112.137" x2="113.525" y2="109.378"/>
	<line style="fill:none;stroke:#000000;stroke-miterlimit:1;" x1="113.525" y1="109.378" x2="114.707" y2="107.801"/>
	<line style="fill:none;stroke:#000000;stroke-miterlimit:1;" x1="114.707" y1="107.801" x2="116.284" y2="105.042"/>
	<line style="fill:none;stroke:#000000;stroke-miterlimit:1;" x1="116.284" y1="105.042" x2="117.072" y2="103.071"/>
	<line style="fill:none;stroke:#000000;stroke-miterlimit:1;" x1="117.072" y1="103.071" x2="118.255" y2="100.312"/>
	<line style="fill:none;stroke:#000000;stroke-miterlimit:1;" x1="118.255" y1="100.312" x2="119.043" y2="97.946"/>
	<line style="fill:none;stroke:#000000;stroke-miterlimit:1;" x1="119.043" y1="97.946" x2="119.832" y2="95.188"/>
	<line style="fill:none;stroke:#000000;stroke-miterlimit:1;" x1="119.832" y1="95.188" x2="120.62" y2="92.822"/>
	<line style="fill:none;stroke:#000000;stroke-miterlimit:1;" x1="120.62" y1="92.822" x2="121.408" y2="89.669"/>
	<line style="fill:none;stroke:#000000;stroke-miterlimit:1;" x1="121.408" y1="89.669" x2="121.408" y2="87.304"/>
	<line style="fill:none;stroke:#000000;stroke-miterlimit:1;" x1="249.449" y1="36.864" x2="171.771" y2="36.864"/>
	<line style="fill:none;stroke:#000000;stroke-miterlimit:1;" x1="171.771" y1="36.864" x2="172.758" y2="30.281"/>
	<line style="fill:none;stroke:#000000;stroke-miterlimit:1;" x1="172.758" y1="30.281" x2="173.746" y2="26.002"/>
	<line style="fill:none;stroke:#000000;stroke-miterlimit:1;" x1="173.746" y1="26.002" x2="175.393" y2="21.723"/>
	<line style="fill:none;stroke:#000000;stroke-miterlimit:1;" x1="175.393" y1="21.723" x2="177.695" y2="18.432"/>
	<line style="fill:none;stroke:#000000;stroke-miterlimit:1;" x1="177.695" y1="18.432" x2="179.67" y2="15.47"/>
	<line style="fill:none;stroke:#000000;stroke-miterlimit:1;" x1="179.67" y1="15.47" x2="182.305" y2="11.849"/>
	<line style="fill:none;stroke:#000000;stroke-miterlimit:1;" x1="182.305" y1="11.849" x2="185.266" y2="9.216"/>
	<line style="fill:none;stroke:#000000;stroke-miterlimit:1;" x1="185.266" y1="9.216" x2="188.887" y2="6.583"/>
	<line style="fill:none;stroke:#000000;stroke-miterlimit:1;" x1="188.887" y1="6.583" x2="191.85" y2="4.608"/>
	<line style="fill:none;stroke:#000000;stroke-miterlimit:1;" x1="191.85" y1="4.608" x2="196.127" y2="2.633"/>
	<line style="fill:none;stroke:#000000;stroke-miterlimit:1;" x1="196.127" y1="2.633" x2="200.406" y2="1.316"/>
	<line style="fill:none;stroke:#000000;stroke-miterlimit:1;" x1="200.406" y1="1.316" x2="203.369" y2="0.658"/>
	<line style="fill:none;stroke:#000000;stroke-miterlimit:1;" x1="203.369" y1="0.658" x2="208.635" y2="0"/>
	<line style="fill:none;stroke:#000000;stroke-miterlimit:1;" x1="208.635" y1="0" x2="212.586" y2="0"/>
	<line style="fill:none;stroke:#000000;stroke-miterlimit:1;" x1="212.586" y1="0" x2="216.205" y2="0.658"/>
	<line style="fill:none;stroke:#000000;stroke-miterlimit:1;" x1="216.205" y1="0.658" x2="220.156" y2="1.316"/>
	<line style="fill:none;stroke:#000000;stroke-miterlimit:1;" x1="220.156" y1="1.316" x2="224.434" y2="2.304"/>
	<line style="fill:none;stroke:#000000;stroke-miterlimit:1;" x1="224.434" y1="2.304" x2="227.396" y2="3.291"/>
	<line style="fill:none;stroke:#000000;stroke-miterlimit:1;" x1="227.396" y1="3.291" x2="231.346" y2="5.924"/>
	<line style="fill:none;stroke:#000000;stroke-miterlimit:1;" x1="231.346" y1="5.924" x2="234.637" y2="8.229"/>
	<line style="fill:none;stroke:#000000;stroke-miterlimit:1;" x1="234.637" y1="8.229" x2="237.6" y2="10.532"/>
	<line style="fill:none;stroke:#000000;stroke-miterlimit:1;" x1="237.6" y1="10.532" x2="240.232" y2="13.824"/>
	<line style="fill:none;stroke:#000000;stroke-miterlimit:1;" x1="240.232" y1="13.824" x2="242.865" y2="17.444"/>
	<line style="fill:none;stroke:#000000;stroke-miterlimit:1;" x1="242.865" y1="17.444" x2="245.17" y2="21.065"/>
	<line style="fill:none;stroke:#000000;stroke-miterlimit:1;" x1="245.17" y1="21.065" x2="246.816" y2="24.356"/>
	<line style="fill:none;stroke:#000000;stroke-miterlimit:1;" x1="246.816" y1="24.356" x2="248.133" y2="29.293"/>
	<line style="fill:none;stroke:#000000;stroke-miterlimit:1;" x1="248.133" y1="29.293" x2="249.119" y2="32.914"/>
	<line style="fill:none;stroke:#000000;stroke-miterlimit:1;" x1="249.119" y1="32.914" x2="249.449" y2="36.864"/>
	<line style="fill:none;stroke:#000000;stroke-miterlimit:1;" x1="189.998" y1="142.519" x2="212.379" y2="122.111"/>
	<line style="fill:none;stroke:#000000;stroke-miterlimit:1;" x1="212.379" y1="122.111" x2="233.445" y2="142.519"/>
	<line style="fill:none;stroke:#000000;stroke-miterlimit:1;" x1="242.002" y1="133.303" x2="222.254" y2="113.225"/>
	<line style="fill:none;stroke:#000000;stroke-miterlimit:1;" x1="222.254" y1="113.225" x2="243.318" y2="93.147"/>
	<line style="fill:none;stroke:#000000;stroke-miterlimit:1;" x1="234.104" y1="82.943" x2="213.037" y2="103.021"/>
	<line style="fill:none;stroke:#000000;stroke-miterlimit:1;" x1="213.037" y1="103.021" x2="191.973" y2="81.298"/>
	<line style="fill:none;stroke:#000000;stroke-miterlimit:1;" x1="182.756" y1="90.185" x2="203.164" y2="111.908"/>
	<line style="fill:none;stroke:#000000;stroke-miterlimit:1;" x1="203.164" y1="111.908" x2="181.439" y2="132.645"/>
	<line style="fill:none;stroke:#000000;stroke-miterlimit:1;" x1="209.088" y1="149.431" x2="218.305" y2="149.102"/>
	<line style="fill:none;stroke:#000000;stroke-miterlimit:1;" x1="218.305" y1="149.102" x2="223.57" y2="147.785"/>
	<line style="fill:none;stroke:#000000;stroke-miterlimit:1;" x1="223.57" y1="147.785" x2="228.178" y2="145.811"/>
	<line style="fill:none;stroke:#000000;stroke-miterlimit:1;" x1="228.178" y1="145.811" x2="233.445" y2="142.189"/>
	<line style="fill:none;stroke:#000000;stroke-miterlimit:1;" x1="233.445" y1="142.189" x2="237.395" y2="138.569"/>
	<line style="fill:none;stroke:#000000;stroke-miterlimit:1;" x1="237.395" y1="138.569" x2="241.344" y2="134.29"/>
	<line style="fill:none;stroke:#000000;stroke-miterlimit:1;" x1="241.344" y1="134.29" x2="243.977" y2="130.012"/>
	<line style="fill:none;stroke:#000000;stroke-miterlimit:1;" x1="243.977" y1="130.012" x2="246.609" y2="125.403"/>
	<line style="fill:none;stroke:#000000;stroke-miterlimit:1;" x1="246.609" y1="125.403" x2="247.928" y2="120.795"/>
	<line style="fill:none;stroke:#000000;stroke-miterlimit:1;" x1="247.928" y1="120.795" x2="248.586" y2="115.529"/>
	<line style="fill:none;stroke:#000000;stroke-miterlimit:1;" x1="248.586" y1="115.529" x2="248.586" y2="110.263"/>
	<line style="fill:none;stroke:#000000;stroke-miterlimit:1;" x1="248.586" y1="110.263" x2="246.939" y2="101.047"/>
	<line style="fill:none;stroke:#000000;stroke-miterlimit:1;" x1="246.939" y1="101.047" x2="244.965" y2="96.109"/>
	<line style="fill:none;stroke:#000000;stroke-miterlimit:1;" x1="244.965" y1="96.109" x2="242.002" y2="91.172"/>
	<line style="fill:none;stroke:#000000;stroke-miterlimit:1;" x1="242.002" y1="91.172" x2="238.711" y2="86.564"/>
	<line style="fill:none;stroke:#000000;stroke-miterlimit:1;" x1="238.711" y1="86.564" x2="233.773" y2="82.285"/>
	<line style="fill:none;stroke:#000000;stroke-miterlimit:1;" x1="233.773" y1="82.285" x2="229.824" y2="79.652"/>
	<line style="fill:none;stroke:#000000;stroke-miterlimit:1;" x1="229.824" y1="79.652" x2="225.875" y2="78.007"/>
	<line style="fill:none;stroke:#000000;stroke-miterlimit:1;" x1="225.875" y1="78.007" x2="222.254" y2="76.69"/>
	<line style="fill:none;stroke:#000000;stroke-miterlimit:1;" x1="222.254" y1="76.69" x2="217.316" y2="75.703"/>
	<line style="fill:none;stroke:#000000;stroke-miterlimit:1;" x1="217.316" y1="75.703" x2="212.379" y2="75.373"/>
	<line style="fill:none;stroke:#000000;stroke-miterlimit:1;" x1="212.379" y1="75.373" x2="205.797" y2="75.373"/>
	<line style="fill:none;stroke:#000000;stroke-miterlimit:1;" x1="205.797" y1="75.373" x2="200.529" y2="76.69"/>
	<line style="fill:none;stroke:#000000;stroke-miterlimit:1;" x1="200.529" y1="76.69" x2="195.594" y2="78.665"/>
	<line style="fill:none;stroke:#000000;stroke-miterlimit:1;" x1="195.594" y1="78.665" x2="190.984" y2="81.298"/>
	<line style="fill:none;stroke:#000000;stroke-miterlimit:1;" x1="190.984" y1="81.298" x2="186.707" y2="84.919"/>
	<line style="fill:none;stroke:#000000;stroke-miterlimit:1;" x1="186.707" y1="84.919" x2="182.756" y2="89.526"/>
	<line style="fill:none;stroke:#000000;stroke-miterlimit:1;" x1="182.756" y1="89.526" x2="179.137" y2="94.135"/>
	<line style="fill:none;stroke:#000000;stroke-miterlimit:1;" x1="179.137" y1="94.135" x2="177.49" y2="97.426"/>
	<line style="fill:none;stroke:#000000;stroke-miterlimit:1;" x1="177.49" y1="97.426" x2="176.174" y2="101.047"/>
	<line style="fill:none;stroke:#000000;stroke-miterlimit:1;" x1="176.174" y1="101.047" x2="174.857" y2="107.301"/>
	<line style="fill:none;stroke:#000000;stroke-miterlimit:1;" x1="174.857" y1="107.301" x2="174.857" y2="113.225"/>
	<line style="fill:none;stroke:#000000;stroke-miterlimit:1;" x1="174.857" y1="113.225" x2="175.516" y2="117.504"/>
	<line style="fill:none;stroke:#000000;stroke-miterlimit:1;" x1="175.516" y1="117.504" x2="176.174" y2="122.111"/>
	<line style="fill:none;stroke:#000000;stroke-miterlimit:1;" x1="176.174" y1="122.111" x2="177.82" y2="126.72"/>
	<line style="fill:none;stroke:#000000;stroke-miterlimit:1;" x1="177.82" y1="126.72" x2="180.123" y2="131.986"/>
	<line style="fill:none;stroke:#000000;stroke-miterlimit:1;" x1="180.123" y1="131.986" x2="184.072" y2="136.923"/>
	<line style="fill:none;stroke:#000000;stroke-miterlimit:1;" x1="184.072" y1="136.923" x2="188.023" y2="140.544"/>
	<line style="fill:none;stroke:#000000;stroke-miterlimit:1;" x1="188.023" y1="140.544" x2="192.631" y2="144.164"/>
	<line style="fill:none;stroke:#000000;stroke-miterlimit:1;" x1="192.631" y1="144.164" x2="197.238" y2="146.469"/>
	<line style="fill:none;stroke:#000000;stroke-miterlimit:1;" x1="197.238" y1="146.469" x2="202.834" y2="148.443"/>
	<line style="fill:none;stroke:#000000;stroke-miterlimit:1;" x1="202.834" y1="148.443" x2="209.088" y2="149.431"/>
</g>
</svg>
