<?xml version="1.0" encoding="iso-8859-1"?>
<!-- Generator: Adobe Illustrator 16.0.1, SVG Export Plug-In . SVG Version: 6.00 Build 0)  -->
<!DOCTYPE svg PUBLIC "-//W3C//DTD SVG 1.1//EN" "http://www.w3.org/Graphics/SVG/1.1/DTD/svg11.dtd">
<svg version="1.1" id="Ebene_1" xmlns="http://www.w3.org/2000/svg" xmlns:xlink="http://www.w3.org/1999/xlink" x="0px" y="0px"
	 width="390.035px" height="151.734px" viewBox="0 0 390.035 151.734" style="enable-background:new 0 0 390.035 151.734;"
	 xml:space="preserve">
<g>
	<line style="fill:none;stroke:#000000;stroke-miterlimit:1;" x1="71.753" y1="42.583" x2="64.512" y2="41.924"/>
	<line style="fill:none;stroke:#000000;stroke-miterlimit:1;" x1="64.512" y1="41.924" x2="52.992" y2="42.583"/>
	<line style="fill:none;stroke:#000000;stroke-miterlimit:1;" x1="52.992" y1="42.583" x2="44.435" y2="41.595"/>
	<line style="fill:none;stroke:#000000;stroke-miterlimit:1;" x1="44.435" y1="41.595" x2="41.801" y2="42.583"/>
	<line style="fill:none;stroke:#000000;stroke-miterlimit:1;" x1="41.801" y1="42.583" x2="39.826" y2="45.216"/>
	<line style="fill:none;stroke:#000000;stroke-miterlimit:1;" x1="39.826" y1="45.216" x2="40.485" y2="49.824"/>
	<line style="fill:none;stroke:#000000;stroke-miterlimit:1;" x1="40.485" y1="49.824" x2="43.776" y2="60.356"/>
	<line style="fill:none;stroke:#000000;stroke-miterlimit:1;" x1="43.776" y1="60.356" x2="50.03" y2="70.56"/>
	<line style="fill:none;stroke:#000000;stroke-miterlimit:1;" x1="50.03" y1="70.56" x2="70.437" y2="94.916"/>
	<line style="fill:none;stroke:#000000;stroke-miterlimit:1;" x1="70.437" y1="94.916" x2="80.969" y2="104.791"/>
	<line style="fill:none;stroke:#000000;stroke-miterlimit:1;" x1="80.969" y1="104.791" x2="96.11" y2="118.943"/>
	<line style="fill:none;stroke:#000000;stroke-miterlimit:1;" x1="96.11" y1="118.943" x2="128.366" y2="150.541"/>
	<line style="fill:none;stroke:#000000;stroke-miterlimit:1;" x1="128.366" y1="150.541" x2="131.657" y2="150.541"/>
	<line style="fill:none;stroke:#000000;stroke-miterlimit:1;" x1="131.657" y1="150.541" x2="132.645" y2="148.896"/>
	<line style="fill:none;stroke:#000000;stroke-miterlimit:1;" x1="132.645" y1="148.896" x2="131.328" y2="145.934"/>
	<line style="fill:none;stroke:#000000;stroke-miterlimit:1;" x1="131.328" y1="145.934" x2="117.504" y2="114.336"/>
	<line style="fill:none;stroke:#000000;stroke-miterlimit:1;" x1="117.504" y1="114.336" x2="115.529" y2="108.412"/>
	<line style="fill:none;stroke:#000000;stroke-miterlimit:1;" x1="115.529" y1="108.412" x2="104.997" y2="83.066"/>
	<line style="fill:none;stroke:#000000;stroke-miterlimit:1;" x1="104.997" y1="83.066" x2="95.452" y2="66.61"/>
	<line style="fill:none;stroke:#000000;stroke-miterlimit:1;" x1="95.452" y1="66.61" x2="87.881" y2="56.078"/>
	<line style="fill:none;stroke:#000000;stroke-miterlimit:1;" x1="87.881" y1="56.078" x2="82.286" y2="48.507"/>
	<line style="fill:none;stroke:#000000;stroke-miterlimit:1;" x1="82.286" y1="48.507" x2="77.678" y2="41.266"/>
	<line style="fill:none;stroke:#000000;stroke-miterlimit:1;" x1="77.678" y1="41.266" x2="72.741" y2="34.683"/>
	<line style="fill:none;stroke:#000000;stroke-miterlimit:1;" x1="72.741" y1="34.683" x2="66.816" y2="27.771"/>
	<line style="fill:none;stroke:#000000;stroke-miterlimit:1;" x1="66.816" y1="27.771" x2="60.892" y2="23.822"/>
	<line style="fill:none;stroke:#000000;stroke-miterlimit:1;" x1="60.892" y1="23.822" x2="59.246" y2="16.91"/>
	<line style="fill:none;stroke:#000000;stroke-miterlimit:1;" x1="59.246" y1="16.91" x2="57.929" y2="9.339"/>
	<line style="fill:none;stroke:#000000;stroke-miterlimit:1;" x1="57.929" y1="9.339" x2="55.955" y2="4.402"/>
	<line style="fill:none;stroke:#000000;stroke-miterlimit:1;" x1="55.955" y1="4.402" x2="50.359" y2="3.085"/>
	<line style="fill:none;stroke:#000000;stroke-miterlimit:1;" x1="50.359" y1="3.085" x2="41.143" y2="3.085"/>
	<line style="fill:none;stroke:#000000;stroke-miterlimit:1;" x1="41.143" y1="3.085" x2="30.939" y2="3.415"/>
	<line style="fill:none;stroke:#000000;stroke-miterlimit:1;" x1="30.939" y1="3.415" x2="26.002" y2="4.731"/>
	<line style="fill:none;stroke:#000000;stroke-miterlimit:1;" x1="26.002" y1="4.731" x2="23.698" y2="5.39"/>
	<line style="fill:none;stroke:#000000;stroke-miterlimit:1;" x1="23.698" y1="5.39" x2="6.912" y2="7.694"/>
	<line style="fill:none;stroke:#000000;stroke-miterlimit:1;" x1="6.912" y1="7.694" x2="1.975" y2="9.998"/>
	<line style="fill:none;stroke:#000000;stroke-miterlimit:1;" x1="1.975" y1="9.998" x2="0.329" y2="12.302"/>
	<line style="fill:none;stroke:#000000;stroke-miterlimit:1;" x1="0.329" y1="12.302" x2="0" y2="16.91"/>
	<line style="fill:none;stroke:#000000;stroke-miterlimit:1;" x1="0" y1="16.91" x2="1.975" y2="13.618"/>
	<line style="fill:none;stroke:#000000;stroke-miterlimit:1;" x1="1.975" y1="13.618" x2="5.267" y2="11.973"/>
	<line style="fill:none;stroke:#000000;stroke-miterlimit:1;" x1="5.267" y1="11.973" x2="15.141" y2="11.973"/>
	<line style="fill:none;stroke:#000000;stroke-miterlimit:1;" x1="15.141" y1="11.973" x2="25.344" y2="12.302"/>
	<line style="fill:none;stroke:#000000;stroke-miterlimit:1;" x1="25.344" y1="12.302" x2="30.61" y2="13.618"/>
	<line style="fill:none;stroke:#000000;stroke-miterlimit:1;" x1="30.61" y1="13.618" x2="26.332" y2="8.352"/>
	<line style="fill:none;stroke:#000000;stroke-miterlimit:1;" x1="26.332" y1="8.352" x2="25.344" y2="4.731"/>
	<line style="fill:none;stroke:#000000;stroke-miterlimit:1;" x1="36.206" y1="11.643" x2="37.193" y2="11.314"/>
	<line style="fill:none;stroke:#000000;stroke-miterlimit:1;" x1="37.193" y1="11.314" x2="37.852" y2="9.668"/>
	<line style="fill:none;stroke:#000000;stroke-miterlimit:1;" x1="37.852" y1="9.668" x2="37.193" y2="8.023"/>
	<line style="fill:none;stroke:#000000;stroke-miterlimit:1;" x1="37.193" y1="8.023" x2="35.876" y2="7.035"/>
	<line style="fill:none;stroke:#000000;stroke-miterlimit:1;" x1="35.876" y1="7.035" x2="34.56" y2="8.023"/>
	<line style="fill:none;stroke:#000000;stroke-miterlimit:1;" x1="34.56" y1="8.023" x2="34.231" y2="9.998"/>
	<line style="fill:none;stroke:#000000;stroke-miterlimit:1;" x1="34.231" y1="9.998" x2="34.889" y2="10.985"/>
	<line style="fill:none;stroke:#000000;stroke-miterlimit:1;" x1="34.889" y1="10.985" x2="35.876" y2="11.643"/>
	<line style="fill:none;stroke:#000000;stroke-miterlimit:1;" x1="1.646" y1="14.935" x2="14.812" y2="14.605"/>
	<line style="fill:none;stroke:#000000;stroke-miterlimit:1;" x1="14.812" y1="14.605" x2="25.015" y2="15.922"/>
	<line style="fill:none;stroke:#000000;stroke-miterlimit:1;" x1="25.015" y1="15.922" x2="27.977" y2="17.568"/>
	<line style="fill:none;stroke:#000000;stroke-miterlimit:1;" x1="27.977" y1="17.568" x2="28.965" y2="20.859"/>
	<line style="fill:none;stroke:#000000;stroke-miterlimit:1;" x1="28.965" y1="20.859" x2="29.294" y2="24.48"/>
	<line style="fill:none;stroke:#000000;stroke-miterlimit:1;" x1="29.294" y1="24.48" x2="26.332" y2="31.721"/>
	<line style="fill:none;stroke:#000000;stroke-miterlimit:1;" x1="26.332" y1="31.721" x2="25.015" y2="40.608"/>
	<line style="fill:none;stroke:#000000;stroke-miterlimit:1;" x1="25.015" y1="40.608" x2="26.661" y2="51.47"/>
	<line style="fill:none;stroke:#000000;stroke-miterlimit:1;" x1="26.661" y1="51.47" x2="27.977" y2="56.407"/>
	<line style="fill:none;stroke:#000000;stroke-miterlimit:1;" x1="27.977" y1="56.407" x2="31.598" y2="66.281"/>
	<line style="fill:none;stroke:#000000;stroke-miterlimit:1;" x1="31.598" y1="66.281" x2="35.876" y2="74.181"/>
	<line style="fill:none;stroke:#000000;stroke-miterlimit:1;" x1="35.876" y1="74.181" x2="46.08" y2="91.625"/>
	<line style="fill:none;stroke:#000000;stroke-miterlimit:1;" x1="46.08" y1="91.625" x2="59.575" y2="117.299"/>
	<line style="fill:none;stroke:#000000;stroke-miterlimit:1;" x1="59.575" y1="117.299" x2="60.892" y2="127.172"/>
	<line style="fill:none;stroke:#000000;stroke-miterlimit:1;" x1="60.892" y1="127.172" x2="59.246" y2="143.959"/>
	<line style="fill:none;stroke:#000000;stroke-miterlimit:1;" x1="59.246" y1="143.959" x2="57.6" y2="145.604"/>
	<line style="fill:none;stroke:#000000;stroke-miterlimit:1;" x1="57.6" y1="145.604" x2="48.055" y2="146.592"/>
	<line style="fill:none;stroke:#000000;stroke-miterlimit:1;" x1="48.055" y1="146.592" x2="36.864" y2="146.264"/>
	<line style="fill:none;stroke:#000000;stroke-miterlimit:1;" x1="36.864" y1="146.264" x2="36.206" y2="147.908"/>
	<line style="fill:none;stroke:#000000;stroke-miterlimit:1;" x1="36.206" y1="147.908" x2="31.269" y2="148.566"/>
	<line style="fill:none;stroke:#000000;stroke-miterlimit:1;" x1="31.269" y1="148.566" x2="30.61" y2="149.555"/>
	<line style="fill:none;stroke:#000000;stroke-miterlimit:1;" x1="30.61" y1="149.555" x2="31.598" y2="150.871"/>
	<line style="fill:none;stroke:#000000;stroke-miterlimit:1;" x1="31.598" y1="150.871" x2="59.904" y2="149.883"/>
	<line style="fill:none;stroke:#000000;stroke-miterlimit:1;" x1="59.904" y1="149.883" x2="89.198" y2="151.199"/>
	<line style="fill:none;stroke:#000000;stroke-miterlimit:1;" x1="89.198" y1="151.199" x2="90.514" y2="149.883"/>
	<line style="fill:none;stroke:#000000;stroke-miterlimit:1;" x1="90.514" y1="149.883" x2="89.856" y2="148.238"/>
	<line style="fill:none;stroke:#000000;stroke-miterlimit:1;" x1="89.856" y1="148.238" x2="85.248" y2="148.238"/>
	<line style="fill:none;stroke:#000000;stroke-miterlimit:1;" x1="85.248" y1="148.238" x2="82.615" y2="145.934"/>
	<line style="fill:none;stroke:#000000;stroke-miterlimit:1;" x1="82.615" y1="145.934" x2="65.829" y2="145.604"/>
	<line style="fill:none;stroke:#000000;stroke-miterlimit:1;" x1="65.829" y1="145.604" x2="63.854" y2="144.287"/>
	<line style="fill:none;stroke:#000000;stroke-miterlimit:1;" x1="63.854" y1="144.287" x2="65.829" y2="123.553"/>
	<line style="fill:none;stroke:#000000;stroke-miterlimit:1;" x1="65.829" y1="123.553" x2="78.007" y2="129.805"/>
	<line style="fill:none;stroke:#000000;stroke-miterlimit:1;" x1="78.007" y1="129.805" x2="84.919" y2="109.398"/>
	<line style="fill:none;stroke:#000000;stroke-miterlimit:1;" x1="84.919" y1="109.398" x2="98.084" y2="142.312"/>
	<line style="fill:none;stroke:#000000;stroke-miterlimit:1;" x1="98.084" y1="142.312" x2="102.693" y2="148.238"/>
	<line style="fill:none;stroke:#000000;stroke-miterlimit:1;" x1="102.693" y1="148.238" x2="107.301" y2="150.871"/>
	<line style="fill:none;stroke:#000000;stroke-miterlimit:1;" x1="107.301" y1="150.871" x2="114.213" y2="150.871"/>
	<line style="fill:none;stroke:#000000;stroke-miterlimit:1;" x1="114.213" y1="150.871" x2="118.163" y2="149.555"/>
	<line style="fill:none;stroke:#000000;stroke-miterlimit:1;" x1="118.163" y1="149.555" x2="119.15" y2="147.58"/>
	<line style="fill:none;stroke:#000000;stroke-miterlimit:1;" x1="119.15" y1="147.58" x2="115.858" y2="138.693"/>
	<line style="fill:none;stroke:#000000;stroke-miterlimit:1;" x1="34.231" y1="71.876" x2="38.51" y2="95.904"/>
	<line style="fill:none;stroke:#000000;stroke-miterlimit:1;" x1="38.51" y1="95.904" x2="38.181" y2="114.336"/>
	<line style="fill:none;stroke:#000000;stroke-miterlimit:1;" x1="38.181" y1="114.336" x2="34.889" y2="133.098"/>
	<line style="fill:none;stroke:#000000;stroke-miterlimit:1;" x1="34.889" y1="133.098" x2="31.927" y2="142.643"/>
	<line style="fill:none;stroke:#000000;stroke-miterlimit:1;" x1="31.927" y1="142.643" x2="29.952" y2="144.945"/>
	<line style="fill:none;stroke:#000000;stroke-miterlimit:1;" x1="29.952" y1="144.945" x2="14.153" y2="145.934"/>
	<line style="fill:none;stroke:#000000;stroke-miterlimit:1;" x1="14.153" y1="145.934" x2="12.507" y2="148.238"/>
	<line style="fill:none;stroke:#000000;stroke-miterlimit:1;" x1="12.507" y1="148.238" x2="8.887" y2="148.566"/>
	<line style="fill:none;stroke:#000000;stroke-miterlimit:1;" x1="8.887" y1="148.566" x2="7.57" y2="149.555"/>
	<line style="fill:none;stroke:#000000;stroke-miterlimit:1;" x1="7.57" y1="149.555" x2="8.887" y2="150.871"/>
	<line style="fill:none;stroke:#000000;stroke-miterlimit:1;" x1="8.887" y1="150.871" x2="21.065" y2="149.883"/>
	<line style="fill:none;stroke:#000000;stroke-miterlimit:1;" x1="21.065" y1="149.883" x2="24.686" y2="150.213"/>
	<line style="fill:none;stroke:#000000;stroke-miterlimit:1;" x1="36.535" y1="146.264" x2="30.939" y2="146.922"/>
	<line style="fill:none;stroke:#000000;stroke-miterlimit:1;" x1="30.939" y1="146.922" x2="30.939" y2="146.922"/>
	<line style="fill:none;stroke:#000000;stroke-miterlimit:1;" x1="30.939" y1="146.922" x2="27.648" y2="147.58"/>
	<line style="fill:none;stroke:#000000;stroke-miterlimit:1;" x1="27.648" y1="147.58" x2="25.673" y2="150.213"/>
	<line style="fill:none;stroke:#000000;stroke-miterlimit:1;" x1="25.673" y1="150.213" x2="26.99" y2="150.871"/>
	<line style="fill:none;stroke:#000000;stroke-miterlimit:1;" x1="26.99" y1="150.871" x2="28.965" y2="148.896"/>
	<line style="fill:none;stroke:#000000;stroke-miterlimit:1;" x1="28.965" y1="148.896" x2="30.939" y2="148.566"/>
	<line style="fill:none;stroke:#000000;stroke-miterlimit:1;" x1="36.206" y1="145.934" x2="43.447" y2="118.943"/>
	<line style="fill:none;stroke:#000000;stroke-miterlimit:1;" x1="43.447" y1="118.943" x2="54.638" y2="125.527"/>
	<line style="fill:none;stroke:#000000;stroke-miterlimit:1;" x1="54.638" y1="125.527" x2="56.942" y2="113.348"/>
	<line style="fill:none;stroke:#000000;stroke-miterlimit:1;" x1="13.166" y1="146.264" x2="7.899" y2="146.922"/>
	<line style="fill:none;stroke:#000000;stroke-miterlimit:1;" x1="7.899" y1="146.922" x2="7.899" y2="146.922"/>
	<line style="fill:none;stroke:#000000;stroke-miterlimit:1;" x1="7.899" y1="146.922" x2="4.608" y2="147.58"/>
	<line style="fill:none;stroke:#000000;stroke-miterlimit:1;" x1="4.608" y1="147.58" x2="2.633" y2="150.213"/>
	<line style="fill:none;stroke:#000000;stroke-miterlimit:1;" x1="2.633" y1="150.213" x2="3.621" y2="150.871"/>
	<line style="fill:none;stroke:#000000;stroke-miterlimit:1;" x1="3.621" y1="150.871" x2="5.925" y2="148.896"/>
	<line style="fill:none;stroke:#000000;stroke-miterlimit:1;" x1="5.925" y1="148.896" x2="8.558" y2="148.566"/>
	<line style="fill:none;stroke:#000000;stroke-miterlimit:1;" x1="83.273" y1="145.934" x2="89.527" y2="146.592"/>
	<line style="fill:none;stroke:#000000;stroke-miterlimit:1;" x1="89.527" y1="146.592" x2="92.489" y2="147.58"/>
	<line style="fill:none;stroke:#000000;stroke-miterlimit:1;" x1="92.489" y1="147.58" x2="94.464" y2="150.213"/>
	<line style="fill:none;stroke:#000000;stroke-miterlimit:1;" x1="94.464" y1="150.213" x2="93.477" y2="150.871"/>
	<line style="fill:none;stroke:#000000;stroke-miterlimit:1;" x1="93.477" y1="150.871" x2="91.173" y2="148.896"/>
	<line style="fill:none;stroke:#000000;stroke-miterlimit:1;" x1="91.173" y1="148.896" x2="89.527" y2="148.566"/>
	<line style="fill:none;stroke:#000000;stroke-miterlimit:1;" x1="155.314" y1="0" x2="207.977" y2="0"/>
	<line style="fill:none;stroke:#000000;stroke-miterlimit:1;" x1="207.977" y1="0" x2="207.977" y2="52.663"/>
	<line style="fill:none;stroke:#000000;stroke-miterlimit:1;" x1="207.977" y1="52.663" x2="155.314" y2="52.663"/>
	<line style="fill:none;stroke:#000000;stroke-miterlimit:1;" x1="155.314" y1="52.663" x2="155.314" y2="0"/>
	<line style="fill:none;stroke:#000000;stroke-miterlimit:1;" x1="220.648" y1="151.734" x2="142.972" y2="151.734"/>
	<line style="fill:none;stroke:#000000;stroke-miterlimit:1;" x1="142.972" y1="151.734" x2="143.959" y2="145.152"/>
	<line style="fill:none;stroke:#000000;stroke-miterlimit:1;" x1="143.959" y1="145.152" x2="144.946" y2="140.873"/>
	<line style="fill:none;stroke:#000000;stroke-miterlimit:1;" x1="144.946" y1="140.873" x2="146.592" y2="136.594"/>
	<line style="fill:none;stroke:#000000;stroke-miterlimit:1;" x1="146.592" y1="136.594" x2="148.896" y2="133.303"/>
	<line style="fill:none;stroke:#000000;stroke-miterlimit:1;" x1="148.896" y1="133.303" x2="150.871" y2="130.34"/>
	<line style="fill:none;stroke:#000000;stroke-miterlimit:1;" x1="150.871" y1="130.34" x2="153.504" y2="126.721"/>
	<line style="fill:none;stroke:#000000;stroke-miterlimit:1;" x1="153.504" y1="126.721" x2="156.466" y2="124.086"/>
	<line style="fill:none;stroke:#000000;stroke-miterlimit:1;" x1="156.466" y1="124.086" x2="160.087" y2="121.453"/>
	<line style="fill:none;stroke:#000000;stroke-miterlimit:1;" x1="160.087" y1="121.453" x2="163.049" y2="119.479"/>
	<line style="fill:none;stroke:#000000;stroke-miterlimit:1;" x1="163.049" y1="119.479" x2="167.328" y2="117.504"/>
	<line style="fill:none;stroke:#000000;stroke-miterlimit:1;" x1="167.328" y1="117.504" x2="171.607" y2="116.188"/>
	<line style="fill:none;stroke:#000000;stroke-miterlimit:1;" x1="171.607" y1="116.188" x2="174.569" y2="115.529"/>
	<line style="fill:none;stroke:#000000;stroke-miterlimit:1;" x1="174.569" y1="115.529" x2="179.835" y2="114.871"/>
	<line style="fill:none;stroke:#000000;stroke-miterlimit:1;" x1="179.835" y1="114.871" x2="183.785" y2="114.871"/>
	<line style="fill:none;stroke:#000000;stroke-miterlimit:1;" x1="183.785" y1="114.871" x2="187.406" y2="115.529"/>
	<line style="fill:none;stroke:#000000;stroke-miterlimit:1;" x1="187.406" y1="115.529" x2="191.355" y2="116.188"/>
	<line style="fill:none;stroke:#000000;stroke-miterlimit:1;" x1="191.355" y1="116.188" x2="195.634" y2="117.174"/>
	<line style="fill:none;stroke:#000000;stroke-miterlimit:1;" x1="195.634" y1="117.174" x2="198.598" y2="118.162"/>
	<line style="fill:none;stroke:#000000;stroke-miterlimit:1;" x1="198.598" y1="118.162" x2="202.547" y2="120.795"/>
	<line style="fill:none;stroke:#000000;stroke-miterlimit:1;" x1="202.547" y1="120.795" x2="205.838" y2="123.1"/>
	<line style="fill:none;stroke:#000000;stroke-miterlimit:1;" x1="205.838" y1="123.1" x2="208.801" y2="125.402"/>
	<line style="fill:none;stroke:#000000;stroke-miterlimit:1;" x1="208.801" y1="125.402" x2="211.434" y2="128.695"/>
	<line style="fill:none;stroke:#000000;stroke-miterlimit:1;" x1="211.434" y1="128.695" x2="214.066" y2="132.314"/>
	<line style="fill:none;stroke:#000000;stroke-miterlimit:1;" x1="214.066" y1="132.314" x2="216.371" y2="135.936"/>
	<line style="fill:none;stroke:#000000;stroke-miterlimit:1;" x1="216.371" y1="135.936" x2="218.016" y2="139.227"/>
	<line style="fill:none;stroke:#000000;stroke-miterlimit:1;" x1="218.016" y1="139.227" x2="219.332" y2="144.164"/>
	<line style="fill:none;stroke:#000000;stroke-miterlimit:1;" x1="219.332" y1="144.164" x2="220.32" y2="147.785"/>
	<line style="fill:none;stroke:#000000;stroke-miterlimit:1;" x1="220.32" y1="147.785" x2="220.648" y2="151.734"/>
	<line style="fill:none;stroke:#000000;stroke-miterlimit:1;" x1="282.734" y1="62.948" x2="279.443" y2="64.594"/>
	<line style="fill:none;stroke:#000000;stroke-miterlimit:1;" x1="279.443" y1="64.594" x2="276.15" y2="66.569"/>
	<line style="fill:none;stroke:#000000;stroke-miterlimit:1;" x1="276.15" y1="66.569" x2="273.848" y2="69.202"/>
	<line style="fill:none;stroke:#000000;stroke-miterlimit:1;" x1="273.848" y1="69.202" x2="272.859" y2="72.494"/>
	<line style="fill:none;stroke:#000000;stroke-miterlimit:1;" x1="272.859" y1="72.494" x2="272.859" y2="76.771"/>
	<line style="fill:none;stroke:#000000;stroke-miterlimit:1;" x1="272.859" y1="76.771" x2="275.164" y2="81.381"/>
	<line style="fill:none;stroke:#000000;stroke-miterlimit:1;" x1="275.164" y1="81.381" x2="280.76" y2="86.977"/>
	<line style="fill:none;stroke:#000000;stroke-miterlimit:1;" x1="280.76" y1="86.977" x2="287.342" y2="91.254"/>
	<line style="fill:none;stroke:#000000;stroke-miterlimit:1;" x1="287.342" y1="91.254" x2="311.699" y2="99.482"/>
	<line style="fill:none;stroke:#000000;stroke-miterlimit:1;" x1="311.699" y1="99.482" x2="342.639" y2="104.092"/>
	<line style="fill:none;stroke:#000000;stroke-miterlimit:1;" x1="342.639" y1="104.092" x2="362.715" y2="104.75"/>
	<line style="fill:none;stroke:#000000;stroke-miterlimit:1;" x1="362.715" y1="104.75" x2="380.818" y2="102.117"/>
	<line style="fill:none;stroke:#000000;stroke-miterlimit:1;" x1="380.818" y1="102.117" x2="356.133" y2="91.912"/>
	<line style="fill:none;stroke:#000000;stroke-miterlimit:1;" x1="356.133" y1="91.912" x2="333.092" y2="77.432"/>
	<line style="fill:none;stroke:#000000;stroke-miterlimit:1;" x1="333.092" y1="77.432" x2="314.99" y2="66.569"/>
	<line style="fill:none;stroke:#000000;stroke-miterlimit:1;" x1="314.99" y1="66.569" x2="292.279" y2="58.669"/>
	<line style="fill:none;stroke:#000000;stroke-miterlimit:1;" x1="292.279" y1="58.669" x2="275.492" y2="57.024"/>
	<line style="fill:none;stroke:#000000;stroke-miterlimit:1;" x1="275.492" y1="57.024" x2="272.859" y2="54.72"/>
	<line style="fill:none;stroke:#000000;stroke-miterlimit:1;" x1="272.859" y1="54.72" x2="272.201" y2="50.441"/>
	<line style="fill:none;stroke:#000000;stroke-miterlimit:1;" x1="272.201" y1="50.441" x2="280.43" y2="33.655"/>
	<line style="fill:none;stroke:#000000;stroke-miterlimit:1;" x1="280.43" y1="33.655" x2="283.721" y2="22.464"/>
	<line style="fill:none;stroke:#000000;stroke-miterlimit:1;" x1="283.721" y1="22.464" x2="283.393" y2="16.869"/>
	<line style="fill:none;stroke:#000000;stroke-miterlimit:1;" x1="283.393" y1="16.869" x2="282.404" y2="11.273"/>
	<line style="fill:none;stroke:#000000;stroke-miterlimit:1;" x1="282.404" y1="11.273" x2="280.102" y2="7.323"/>
	<line style="fill:none;stroke:#000000;stroke-miterlimit:1;" x1="280.102" y1="7.323" x2="276.809" y2="4.032"/>
	<line style="fill:none;stroke:#000000;stroke-miterlimit:1;" x1="276.809" y1="4.032" x2="271.543" y2="2.057"/>
	<line style="fill:none;stroke:#000000;stroke-miterlimit:1;" x1="271.543" y1="2.057" x2="266.936" y2="2.057"/>
	<line style="fill:none;stroke:#000000;stroke-miterlimit:1;" x1="266.936" y1="2.057" x2="261.998" y2="2.715"/>
	<line style="fill:none;stroke:#000000;stroke-miterlimit:1;" x1="261.998" y1="2.715" x2="255.086" y2="8.311"/>
	<line style="fill:none;stroke:#000000;stroke-miterlimit:1;" x1="255.086" y1="8.311" x2="250.807" y2="13.906"/>
	<line style="fill:none;stroke:#000000;stroke-miterlimit:1;" x1="250.807" y1="13.906" x2="248.504" y2="15.881"/>
	<line style="fill:none;stroke:#000000;stroke-miterlimit:1;" x1="248.504" y1="15.881" x2="232.045" y2="21.806"/>
	<line style="fill:none;stroke:#000000;stroke-miterlimit:1;" x1="232.045" y1="21.806" x2="230.4" y2="24.768"/>
	<line style="fill:none;stroke:#000000;stroke-miterlimit:1;" x1="230.4" y1="24.768" x2="248.174" y2="22.793"/>
	<line style="fill:none;stroke:#000000;stroke-miterlimit:1;" x1="250.148" y1="14.894" x2="250.479" y2="21.806"/>
	<line style="fill:none;stroke:#000000;stroke-miterlimit:1;" x1="250.479" y1="21.806" x2="252.781" y2="25.755"/>
	<line style="fill:none;stroke:#000000;stroke-miterlimit:1;" x1="265.947" y1="14.894" x2="266.936" y2="13.906"/>
	<line style="fill:none;stroke:#000000;stroke-miterlimit:1;" x1="266.936" y1="13.906" x2="267.264" y2="12.589"/>
	<line style="fill:none;stroke:#000000;stroke-miterlimit:1;" x1="267.264" y1="12.589" x2="266.605" y2="11.602"/>
	<line style="fill:none;stroke:#000000;stroke-miterlimit:1;" x1="266.605" y1="11.602" x2="264.961" y2="11.273"/>
	<line style="fill:none;stroke:#000000;stroke-miterlimit:1;" x1="264.961" y1="11.273" x2="263.973" y2="11.931"/>
	<line style="fill:none;stroke:#000000;stroke-miterlimit:1;" x1="263.973" y1="11.931" x2="263.973" y2="13.906"/>
	<line style="fill:none;stroke:#000000;stroke-miterlimit:1;" x1="263.973" y1="13.906" x2="265.289" y2="14.894"/>
	<line style="fill:none;stroke:#000000;stroke-miterlimit:1;" x1="231.717" y1="25.097" x2="233.033" y2="26.743"/>
	<line style="fill:none;stroke:#000000;stroke-miterlimit:1;" x1="233.033" y1="26.743" x2="245.211" y2="26.084"/>
	<line style="fill:none;stroke:#000000;stroke-miterlimit:1;" x1="245.211" y1="26.084" x2="253.111" y2="26.414"/>
	<line style="fill:none;stroke:#000000;stroke-miterlimit:1;" x1="253.111" y1="26.414" x2="265.619" y2="28.718"/>
	<line style="fill:none;stroke:#000000;stroke-miterlimit:1;" x1="265.619" y1="28.718" x2="269.896" y2="28.389"/>
	<line style="fill:none;stroke:#000000;stroke-miterlimit:1;" x1="269.896" y1="28.389" x2="266.605" y2="34.313"/>
	<line style="fill:none;stroke:#000000;stroke-miterlimit:1;" x1="266.605" y1="34.313" x2="257.391" y2="47.479"/>
	<line style="fill:none;stroke:#000000;stroke-miterlimit:1;" x1="257.391" y1="47.479" x2="249.49" y2="58.669"/>
	<line style="fill:none;stroke:#000000;stroke-miterlimit:1;" x1="249.49" y1="58.669" x2="247.844" y2="63.278"/>
	<line style="fill:none;stroke:#000000;stroke-miterlimit:1;" x1="247.844" y1="63.278" x2="247.516" y2="67.886"/>
	<line style="fill:none;stroke:#000000;stroke-miterlimit:1;" x1="247.516" y1="67.886" x2="248.174" y2="73.81"/>
	<line style="fill:none;stroke:#000000;stroke-miterlimit:1;" x1="248.174" y1="73.81" x2="251.137" y2="79.734"/>
	<line style="fill:none;stroke:#000000;stroke-miterlimit:1;" x1="251.137" y1="79.734" x2="263.645" y2="92.242"/>
	<line style="fill:none;stroke:#000000;stroke-miterlimit:1;" x1="263.645" y1="92.242" x2="281.088" y2="106.066"/>
	<line style="fill:none;stroke:#000000;stroke-miterlimit:1;" x1="281.088" y1="106.066" x2="290.963" y2="111.004"/>
	<line style="fill:none;stroke:#000000;stroke-miterlimit:1;" x1="290.963" y1="111.004" x2="306.432" y2="114.623"/>
	<line style="fill:none;stroke:#000000;stroke-miterlimit:1;" x1="306.432" y1="114.623" x2="316.965" y2="116.928"/>
	<line style="fill:none;stroke:#000000;stroke-miterlimit:1;" x1="316.965" y1="116.928" x2="323.219" y2="121.535"/>
	<line style="fill:none;stroke:#000000;stroke-miterlimit:1;" x1="323.219" y1="121.535" x2="325.521" y2="128.777"/>
	<line style="fill:none;stroke:#000000;stroke-miterlimit:1;" x1="325.521" y1="128.777" x2="325.193" y2="139.969"/>
	<line style="fill:none;stroke:#000000;stroke-miterlimit:1;" x1="325.193" y1="139.969" x2="323.219" y2="141.613"/>
	<line style="fill:none;stroke:#000000;stroke-miterlimit:1;" x1="323.219" y1="141.613" x2="309.064" y2="141.613"/>
	<line style="fill:none;stroke:#000000;stroke-miterlimit:1;" x1="309.064" y1="141.613" x2="304.787" y2="142.271"/>
	<line style="fill:none;stroke:#000000;stroke-miterlimit:1;" x1="304.787" y1="142.271" x2="304.457" y2="144.246"/>
	<line style="fill:none;stroke:#000000;stroke-miterlimit:1;" x1="304.457" y1="142.602" x2="301.824" y2="144.246"/>
	<line style="fill:none;stroke:#000000;stroke-miterlimit:1;" x1="301.824" y1="144.246" x2="304.457" y2="143.918"/>
	<line style="fill:none;stroke:#000000;stroke-miterlimit:1;" x1="313.016" y1="143.918" x2="304.129" y2="144.576"/>
	<line style="fill:none;stroke:#000000;stroke-miterlimit:1;" x1="304.129" y1="144.576" x2="301.824" y2="145.234"/>
	<line style="fill:none;stroke:#000000;stroke-miterlimit:1;" x1="301.824" y1="145.234" x2="302.152" y2="147.209"/>
	<line style="fill:none;stroke:#000000;stroke-miterlimit:1;" x1="302.152" y1="147.209" x2="314.332" y2="146.221"/>
	<line style="fill:none;stroke:#000000;stroke-miterlimit:1;" x1="301.494" y1="145.562" x2="299.52" y2="147.209"/>
	<line style="fill:none;stroke:#000000;stroke-miterlimit:1;" x1="299.52" y1="147.209" x2="301.824" y2="147.209"/>
	<line style="fill:none;stroke:#000000;stroke-miterlimit:1;" x1="317.293" y1="146.221" x2="311.699" y2="147.209"/>
	<line style="fill:none;stroke:#000000;stroke-miterlimit:1;" x1="311.699" y1="147.209" x2="312.686" y2="149.184"/>
	<line style="fill:none;stroke:#000000;stroke-miterlimit:1;" x1="312.686" y1="149.184" x2="319.928" y2="147.539"/>
	<line style="fill:none;stroke:#000000;stroke-miterlimit:1;" x1="319.928" y1="147.539" x2="324.205" y2="147.539"/>
	<line style="fill:none;stroke:#000000;stroke-miterlimit:1;" x1="324.205" y1="147.539" x2="328.156" y2="147.539"/>
	<line style="fill:none;stroke:#000000;stroke-miterlimit:1;" x1="328.156" y1="147.539" x2="330.131" y2="147.209"/>
	<line style="fill:none;stroke:#000000;stroke-miterlimit:1;" x1="330.131" y1="147.209" x2="331.117" y2="144.576"/>
	<line style="fill:none;stroke:#000000;stroke-miterlimit:1;" x1="331.117" y1="144.576" x2="331.117" y2="135.359"/>
	<line style="fill:none;stroke:#000000;stroke-miterlimit:1;" x1="331.117" y1="135.359" x2="332.434" y2="126.803"/>
	<line style="fill:none;stroke:#000000;stroke-miterlimit:1;" x1="332.434" y1="126.803" x2="333.092" y2="116.928"/>
	<line style="fill:none;stroke:#000000;stroke-miterlimit:1;" x1="333.092" y1="116.928" x2="329.473" y2="111.332"/>
	<line style="fill:none;stroke:#000000;stroke-miterlimit:1;" x1="310.711" y1="147.867" x2="308.736" y2="149.842"/>
	<line style="fill:none;stroke:#000000;stroke-miterlimit:1;" x1="308.736" y1="149.842" x2="311.699" y2="149.184"/>
	<line style="fill:none;stroke:#000000;stroke-miterlimit:1;" x1="333.422" y1="116.27" x2="340.992" y2="117.586"/>
	<line style="fill:none;stroke:#000000;stroke-miterlimit:1;" x1="340.992" y1="117.586" x2="350.537" y2="117.586"/>
	<line style="fill:none;stroke:#000000;stroke-miterlimit:1;" x1="350.537" y1="117.586" x2="359.096" y2="115.941"/>
	<line style="fill:none;stroke:#000000;stroke-miterlimit:1;" x1="359.096" y1="115.941" x2="375.223" y2="118.902"/>
	<line style="fill:none;stroke:#000000;stroke-miterlimit:1;" x1="375.223" y1="118.902" x2="379.83" y2="119.232"/>
	<line style="fill:none;stroke:#000000;stroke-miterlimit:1;" x1="379.83" y1="119.232" x2="384.768" y2="118.574"/>
	<line style="fill:none;stroke:#000000;stroke-miterlimit:1;" x1="384.768" y1="118.574" x2="390.035" y2="115.611"/>
	<line style="fill:none;stroke:#000000;stroke-miterlimit:1;" x1="390.035" y1="115.611" x2="361.07" y2="104.75"/>
	<line style="fill:none;stroke:#000000;stroke-miterlimit:1;" x1="290.305" y1="110.346" x2="293.924" y2="116.27"/>
	<line style="fill:none;stroke:#000000;stroke-miterlimit:1;" x1="293.924" y1="116.27" x2="294.582" y2="123.182"/>
	<line style="fill:none;stroke:#000000;stroke-miterlimit:1;" x1="294.582" y1="123.182" x2="292.279" y2="135.031"/>
	<line style="fill:none;stroke:#000000;stroke-miterlimit:1;" x1="292.279" y1="135.031" x2="289.316" y2="141.943"/>
	<line style="fill:none;stroke:#000000;stroke-miterlimit:1;" x1="289.316" y1="141.943" x2="279.443" y2="142.602"/>
	<line style="fill:none;stroke:#000000;stroke-miterlimit:1;" x1="279.443" y1="142.602" x2="271.873" y2="142.602"/>
	<line style="fill:none;stroke:#000000;stroke-miterlimit:1;" x1="271.873" y1="142.602" x2="266.605" y2="143.588"/>
	<line style="fill:none;stroke:#000000;stroke-miterlimit:1;" x1="266.605" y1="143.588" x2="266.277" y2="146.221"/>
	<line style="fill:none;stroke:#000000;stroke-miterlimit:1;" x1="266.605" y1="144.246" x2="263.645" y2="145.893"/>
	<line style="fill:none;stroke:#000000;stroke-miterlimit:1;" x1="263.645" y1="145.893" x2="266.277" y2="145.893"/>
	<line style="fill:none;stroke:#000000;stroke-miterlimit:1;" x1="278.783" y1="144.576" x2="267.922" y2="145.234"/>
	<line style="fill:none;stroke:#000000;stroke-miterlimit:1;" x1="267.922" y1="145.234" x2="265.619" y2="146.221"/>
	<line style="fill:none;stroke:#000000;stroke-miterlimit:1;" x1="265.619" y1="146.221" x2="266.277" y2="148.197"/>
	<line style="fill:none;stroke:#000000;stroke-miterlimit:1;" x1="266.277" y1="148.197" x2="279.771" y2="147.539"/>
	<line style="fill:none;stroke:#000000;stroke-miterlimit:1;" x1="279.771" y1="147.539" x2="275.822" y2="148.855"/>
	<line style="fill:none;stroke:#000000;stroke-miterlimit:1;" x1="275.822" y1="148.855" x2="277.797" y2="149.842"/>
	<line style="fill:none;stroke:#000000;stroke-miterlimit:1;" x1="277.797" y1="149.842" x2="288.33" y2="148.197"/>
	<line style="fill:none;stroke:#000000;stroke-miterlimit:1;" x1="288.33" y1="148.197" x2="291.949" y2="148.197"/>
	<line style="fill:none;stroke:#000000;stroke-miterlimit:1;" x1="291.949" y1="148.197" x2="292.938" y2="147.209"/>
	<line style="fill:none;stroke:#000000;stroke-miterlimit:1;" x1="292.938" y1="147.209" x2="294.582" y2="140.955"/>
	<line style="fill:none;stroke:#000000;stroke-miterlimit:1;" x1="294.582" y1="140.955" x2="299.85" y2="126.473"/>
	<line style="fill:none;stroke:#000000;stroke-miterlimit:1;" x1="299.85" y1="126.473" x2="306.762" y2="114.953"/>
	<line style="fill:none;stroke:#000000;stroke-miterlimit:1;" x1="265.947" y1="146.551" x2="263.645" y2="149.184"/>
	<line style="fill:none;stroke:#000000;stroke-miterlimit:1;" x1="263.645" y1="149.184" x2="265.947" y2="148.197"/>
	<line style="fill:none;stroke:#000000;stroke-miterlimit:1;" x1="275.492" y1="148.855" x2="273.518" y2="150.172"/>
	<line style="fill:none;stroke:#000000;stroke-miterlimit:1;" x1="273.518" y1="150.172" x2="277.467" y2="150.172"/>
</g>
</svg>
