<?xml version="1.0" encoding="iso-8859-1"?>
<!-- Generator: Adobe Illustrator 16.0.1, SVG Export Plug-In . SVG Version: 6.00 Build 0)  -->
<!DOCTYPE svg PUBLIC "-//W3C//DTD SVG 1.1//EN" "http://www.w3.org/Graphics/SVG/1.1/DTD/svg11.dtd">
<svg version="1.1" id="Ebene_1" xmlns="http://www.w3.org/2000/svg" xmlns:xlink="http://www.w3.org/1999/xlink" x="0px" y="0px"
	 width="336.426px" height="148.114px" viewBox="0 0 336.426 148.114" style="enable-background:new 0 0 336.426 148.114;"
	 xml:space="preserve">
<g>
	<line style="fill:none;stroke:#000000;stroke-miterlimit:1;" x1="112.896" y1="39.497" x2="105.655" y2="38.839"/>
	<line style="fill:none;stroke:#000000;stroke-miterlimit:1;" x1="105.655" y1="38.839" x2="94.135" y2="39.497"/>
	<line style="fill:none;stroke:#000000;stroke-miterlimit:1;" x1="94.135" y1="39.497" x2="85.577" y2="38.51"/>
	<line style="fill:none;stroke:#000000;stroke-miterlimit:1;" x1="85.577" y1="38.51" x2="82.944" y2="39.497"/>
	<line style="fill:none;stroke:#000000;stroke-miterlimit:1;" x1="82.944" y1="39.497" x2="80.969" y2="42.13"/>
	<line style="fill:none;stroke:#000000;stroke-miterlimit:1;" x1="80.969" y1="42.13" x2="81.627" y2="46.738"/>
	<line style="fill:none;stroke:#000000;stroke-miterlimit:1;" x1="81.627" y1="46.738" x2="84.919" y2="57.271"/>
	<line style="fill:none;stroke:#000000;stroke-miterlimit:1;" x1="84.919" y1="57.271" x2="91.173" y2="67.475"/>
	<line style="fill:none;stroke:#000000;stroke-miterlimit:1;" x1="91.173" y1="67.475" x2="111.58" y2="91.831"/>
	<line style="fill:none;stroke:#000000;stroke-miterlimit:1;" x1="111.58" y1="91.831" x2="122.112" y2="101.705"/>
	<line style="fill:none;stroke:#000000;stroke-miterlimit:1;" x1="122.112" y1="101.705" x2="137.252" y2="115.858"/>
	<line style="fill:none;stroke:#000000;stroke-miterlimit:1;" x1="137.252" y1="115.858" x2="169.508" y2="147.456"/>
	<line style="fill:none;stroke:#000000;stroke-miterlimit:1;" x1="169.508" y1="147.456" x2="172.801" y2="147.456"/>
	<line style="fill:none;stroke:#000000;stroke-miterlimit:1;" x1="172.801" y1="147.456" x2="173.787" y2="145.811"/>
	<line style="fill:none;stroke:#000000;stroke-miterlimit:1;" x1="173.787" y1="145.811" x2="172.471" y2="142.849"/>
	<line style="fill:none;stroke:#000000;stroke-miterlimit:1;" x1="172.471" y1="142.849" x2="158.647" y2="111.25"/>
	<line style="fill:none;stroke:#000000;stroke-miterlimit:1;" x1="158.647" y1="111.25" x2="156.672" y2="105.326"/>
	<line style="fill:none;stroke:#000000;stroke-miterlimit:1;" x1="156.672" y1="105.326" x2="146.14" y2="79.981"/>
	<line style="fill:none;stroke:#000000;stroke-miterlimit:1;" x1="146.14" y1="79.981" x2="136.594" y2="63.525"/>
	<line style="fill:none;stroke:#000000;stroke-miterlimit:1;" x1="136.594" y1="63.525" x2="129.024" y2="52.992"/>
	<line style="fill:none;stroke:#000000;stroke-miterlimit:1;" x1="129.024" y1="52.992" x2="123.429" y2="45.422"/>
	<line style="fill:none;stroke:#000000;stroke-miterlimit:1;" x1="123.429" y1="45.422" x2="118.821" y2="38.181"/>
	<line style="fill:none;stroke:#000000;stroke-miterlimit:1;" x1="118.821" y1="38.181" x2="113.883" y2="31.598"/>
	<line style="fill:none;stroke:#000000;stroke-miterlimit:1;" x1="113.883" y1="31.598" x2="107.959" y2="24.686"/>
	<line style="fill:none;stroke:#000000;stroke-miterlimit:1;" x1="107.959" y1="24.686" x2="102.034" y2="20.736"/>
	<line style="fill:none;stroke:#000000;stroke-miterlimit:1;" x1="102.034" y1="20.736" x2="100.389" y2="13.824"/>
	<line style="fill:none;stroke:#000000;stroke-miterlimit:1;" x1="100.389" y1="13.824" x2="99.072" y2="6.254"/>
	<line style="fill:none;stroke:#000000;stroke-miterlimit:1;" x1="99.072" y1="6.254" x2="97.097" y2="1.317"/>
	<line style="fill:none;stroke:#000000;stroke-miterlimit:1;" x1="97.097" y1="1.317" x2="91.502" y2="0"/>
	<line style="fill:none;stroke:#000000;stroke-miterlimit:1;" x1="91.502" y1="0" x2="82.286" y2="0"/>
	<line style="fill:none;stroke:#000000;stroke-miterlimit:1;" x1="82.286" y1="0" x2="72.083" y2="0.329"/>
	<line style="fill:none;stroke:#000000;stroke-miterlimit:1;" x1="72.083" y1="0.329" x2="67.145" y2="1.646"/>
	<line style="fill:none;stroke:#000000;stroke-miterlimit:1;" x1="67.145" y1="1.646" x2="64.841" y2="2.304"/>
	<line style="fill:none;stroke:#000000;stroke-miterlimit:1;" x1="64.841" y1="2.304" x2="48.055" y2="4.608"/>
	<line style="fill:none;stroke:#000000;stroke-miterlimit:1;" x1="48.055" y1="4.608" x2="43.118" y2="6.912"/>
	<line style="fill:none;stroke:#000000;stroke-miterlimit:1;" x1="43.118" y1="6.912" x2="41.472" y2="9.216"/>
	<line style="fill:none;stroke:#000000;stroke-miterlimit:1;" x1="41.472" y1="9.216" x2="41.143" y2="13.824"/>
	<line style="fill:none;stroke:#000000;stroke-miterlimit:1;" x1="41.143" y1="13.824" x2="43.118" y2="10.533"/>
	<line style="fill:none;stroke:#000000;stroke-miterlimit:1;" x1="43.118" y1="10.533" x2="46.409" y2="8.887"/>
	<line style="fill:none;stroke:#000000;stroke-miterlimit:1;" x1="46.409" y1="8.887" x2="56.284" y2="8.887"/>
	<line style="fill:none;stroke:#000000;stroke-miterlimit:1;" x1="56.284" y1="8.887" x2="66.487" y2="9.216"/>
	<line style="fill:none;stroke:#000000;stroke-miterlimit:1;" x1="66.487" y1="9.216" x2="71.753" y2="10.533"/>
	<line style="fill:none;stroke:#000000;stroke-miterlimit:1;" x1="71.753" y1="10.533" x2="67.474" y2="5.267"/>
	<line style="fill:none;stroke:#000000;stroke-miterlimit:1;" x1="67.474" y1="5.267" x2="66.487" y2="1.646"/>
	<line style="fill:none;stroke:#000000;stroke-miterlimit:1;" x1="77.349" y1="8.558" x2="78.336" y2="8.229"/>
	<line style="fill:none;stroke:#000000;stroke-miterlimit:1;" x1="78.336" y1="8.229" x2="78.994" y2="6.583"/>
	<line style="fill:none;stroke:#000000;stroke-miterlimit:1;" x1="78.994" y1="6.583" x2="78.336" y2="4.938"/>
	<line style="fill:none;stroke:#000000;stroke-miterlimit:1;" x1="78.336" y1="4.938" x2="77.02" y2="3.95"/>
	<line style="fill:none;stroke:#000000;stroke-miterlimit:1;" x1="77.02" y1="3.95" x2="75.703" y2="4.938"/>
	<line style="fill:none;stroke:#000000;stroke-miterlimit:1;" x1="75.703" y1="4.938" x2="75.374" y2="6.912"/>
	<line style="fill:none;stroke:#000000;stroke-miterlimit:1;" x1="75.374" y1="6.912" x2="76.032" y2="7.899"/>
	<line style="fill:none;stroke:#000000;stroke-miterlimit:1;" x1="76.032" y1="7.899" x2="77.02" y2="8.558"/>
	<line style="fill:none;stroke:#000000;stroke-miterlimit:1;" x1="42.789" y1="11.849" x2="55.955" y2="11.52"/>
	<line style="fill:none;stroke:#000000;stroke-miterlimit:1;" x1="55.955" y1="11.52" x2="66.158" y2="12.837"/>
	<line style="fill:none;stroke:#000000;stroke-miterlimit:1;" x1="66.158" y1="12.837" x2="69.12" y2="14.482"/>
	<line style="fill:none;stroke:#000000;stroke-miterlimit:1;" x1="69.12" y1="14.482" x2="70.107" y2="17.774"/>
	<line style="fill:none;stroke:#000000;stroke-miterlimit:1;" x1="70.107" y1="17.774" x2="70.437" y2="21.395"/>
	<line style="fill:none;stroke:#000000;stroke-miterlimit:1;" x1="70.437" y1="21.395" x2="67.474" y2="28.636"/>
	<line style="fill:none;stroke:#000000;stroke-miterlimit:1;" x1="67.474" y1="28.636" x2="66.158" y2="37.522"/>
	<line style="fill:none;stroke:#000000;stroke-miterlimit:1;" x1="66.158" y1="37.522" x2="67.804" y2="48.384"/>
	<line style="fill:none;stroke:#000000;stroke-miterlimit:1;" x1="67.804" y1="48.384" x2="69.12" y2="53.321"/>
	<line style="fill:none;stroke:#000000;stroke-miterlimit:1;" x1="69.12" y1="53.321" x2="72.741" y2="63.196"/>
	<line style="fill:none;stroke:#000000;stroke-miterlimit:1;" x1="72.741" y1="63.196" x2="77.02" y2="71.095"/>
	<line style="fill:none;stroke:#000000;stroke-miterlimit:1;" x1="77.02" y1="71.095" x2="87.223" y2="88.54"/>
	<line style="fill:none;stroke:#000000;stroke-miterlimit:1;" x1="87.223" y1="88.54" x2="100.718" y2="114.213"/>
	<line style="fill:none;stroke:#000000;stroke-miterlimit:1;" x1="100.718" y1="114.213" x2="102.034" y2="124.087"/>
	<line style="fill:none;stroke:#000000;stroke-miterlimit:1;" x1="102.034" y1="124.087" x2="100.389" y2="140.873"/>
	<line style="fill:none;stroke:#000000;stroke-miterlimit:1;" x1="100.389" y1="140.873" x2="98.743" y2="142.519"/>
	<line style="fill:none;stroke:#000000;stroke-miterlimit:1;" x1="98.743" y1="142.519" x2="89.198" y2="143.507"/>
	<line style="fill:none;stroke:#000000;stroke-miterlimit:1;" x1="89.198" y1="143.507" x2="78.007" y2="143.178"/>
	<line style="fill:none;stroke:#000000;stroke-miterlimit:1;" x1="78.007" y1="143.178" x2="77.349" y2="144.823"/>
	<line style="fill:none;stroke:#000000;stroke-miterlimit:1;" x1="77.349" y1="144.823" x2="72.412" y2="145.481"/>
	<line style="fill:none;stroke:#000000;stroke-miterlimit:1;" x1="72.412" y1="145.481" x2="71.753" y2="146.469"/>
	<line style="fill:none;stroke:#000000;stroke-miterlimit:1;" x1="71.753" y1="146.469" x2="72.741" y2="147.785"/>
	<line style="fill:none;stroke:#000000;stroke-miterlimit:1;" x1="72.741" y1="147.785" x2="101.047" y2="146.798"/>
	<line style="fill:none;stroke:#000000;stroke-miterlimit:1;" x1="101.047" y1="146.798" x2="130.341" y2="148.114"/>
	<line style="fill:none;stroke:#000000;stroke-miterlimit:1;" x1="130.341" y1="148.114" x2="131.657" y2="146.798"/>
	<line style="fill:none;stroke:#000000;stroke-miterlimit:1;" x1="131.657" y1="146.798" x2="130.999" y2="145.152"/>
	<line style="fill:none;stroke:#000000;stroke-miterlimit:1;" x1="130.999" y1="145.152" x2="126.391" y2="145.152"/>
	<line style="fill:none;stroke:#000000;stroke-miterlimit:1;" x1="126.391" y1="145.152" x2="123.758" y2="142.849"/>
	<line style="fill:none;stroke:#000000;stroke-miterlimit:1;" x1="123.758" y1="142.849" x2="106.972" y2="142.519"/>
	<line style="fill:none;stroke:#000000;stroke-miterlimit:1;" x1="106.972" y1="142.519" x2="104.997" y2="141.202"/>
	<line style="fill:none;stroke:#000000;stroke-miterlimit:1;" x1="104.997" y1="141.202" x2="106.972" y2="120.467"/>
	<line style="fill:none;stroke:#000000;stroke-miterlimit:1;" x1="106.972" y1="120.467" x2="119.15" y2="126.72"/>
	<line style="fill:none;stroke:#000000;stroke-miterlimit:1;" x1="119.15" y1="126.72" x2="126.062" y2="106.313"/>
	<line style="fill:none;stroke:#000000;stroke-miterlimit:1;" x1="126.062" y1="106.313" x2="139.228" y2="139.228"/>
	<line style="fill:none;stroke:#000000;stroke-miterlimit:1;" x1="139.228" y1="139.228" x2="143.835" y2="145.152"/>
	<line style="fill:none;stroke:#000000;stroke-miterlimit:1;" x1="143.835" y1="145.152" x2="148.443" y2="147.785"/>
	<line style="fill:none;stroke:#000000;stroke-miterlimit:1;" x1="148.443" y1="147.785" x2="155.355" y2="147.785"/>
	<line style="fill:none;stroke:#000000;stroke-miterlimit:1;" x1="155.355" y1="147.785" x2="159.305" y2="146.469"/>
	<line style="fill:none;stroke:#000000;stroke-miterlimit:1;" x1="159.305" y1="146.469" x2="160.292" y2="144.494"/>
	<line style="fill:none;stroke:#000000;stroke-miterlimit:1;" x1="160.292" y1="144.494" x2="157.001" y2="135.607"/>
	<line style="fill:none;stroke:#000000;stroke-miterlimit:1;" x1="75.374" y1="68.791" x2="79.653" y2="92.818"/>
	<line style="fill:none;stroke:#000000;stroke-miterlimit:1;" x1="79.653" y1="92.818" x2="79.324" y2="111.25"/>
	<line style="fill:none;stroke:#000000;stroke-miterlimit:1;" x1="79.324" y1="111.25" x2="76.032" y2="130.012"/>
	<line style="fill:none;stroke:#000000;stroke-miterlimit:1;" x1="76.032" y1="130.012" x2="73.07" y2="139.557"/>
	<line style="fill:none;stroke:#000000;stroke-miterlimit:1;" x1="73.07" y1="139.557" x2="71.095" y2="141.86"/>
	<line style="fill:none;stroke:#000000;stroke-miterlimit:1;" x1="71.095" y1="141.86" x2="55.296" y2="142.849"/>
	<line style="fill:none;stroke:#000000;stroke-miterlimit:1;" x1="55.296" y1="142.849" x2="53.65" y2="145.152"/>
	<line style="fill:none;stroke:#000000;stroke-miterlimit:1;" x1="53.65" y1="145.152" x2="50.03" y2="145.481"/>
	<line style="fill:none;stroke:#000000;stroke-miterlimit:1;" x1="50.03" y1="145.481" x2="48.713" y2="146.469"/>
	<line style="fill:none;stroke:#000000;stroke-miterlimit:1;" x1="48.713" y1="146.469" x2="50.03" y2="147.785"/>
	<line style="fill:none;stroke:#000000;stroke-miterlimit:1;" x1="50.03" y1="147.785" x2="62.208" y2="146.798"/>
	<line style="fill:none;stroke:#000000;stroke-miterlimit:1;" x1="62.208" y1="146.798" x2="65.829" y2="147.127"/>
	<line style="fill:none;stroke:#000000;stroke-miterlimit:1;" x1="77.678" y1="143.178" x2="72.083" y2="143.836"/>
	<line style="fill:none;stroke:#000000;stroke-miterlimit:1;" x1="72.083" y1="143.836" x2="72.083" y2="143.836"/>
	<line style="fill:none;stroke:#000000;stroke-miterlimit:1;" x1="72.083" y1="143.836" x2="68.791" y2="144.494"/>
	<line style="fill:none;stroke:#000000;stroke-miterlimit:1;" x1="68.791" y1="144.494" x2="66.816" y2="147.127"/>
	<line style="fill:none;stroke:#000000;stroke-miterlimit:1;" x1="66.816" y1="147.127" x2="68.133" y2="147.785"/>
	<line style="fill:none;stroke:#000000;stroke-miterlimit:1;" x1="68.133" y1="147.785" x2="70.107" y2="145.811"/>
	<line style="fill:none;stroke:#000000;stroke-miterlimit:1;" x1="70.107" y1="145.811" x2="72.083" y2="145.481"/>
	<line style="fill:none;stroke:#000000;stroke-miterlimit:1;" x1="77.349" y1="142.849" x2="84.59" y2="115.858"/>
	<line style="fill:none;stroke:#000000;stroke-miterlimit:1;" x1="84.59" y1="115.858" x2="95.781" y2="122.441"/>
	<line style="fill:none;stroke:#000000;stroke-miterlimit:1;" x1="95.781" y1="122.441" x2="98.084" y2="110.263"/>
	<line style="fill:none;stroke:#000000;stroke-miterlimit:1;" x1="54.309" y1="143.178" x2="49.042" y2="143.836"/>
	<line style="fill:none;stroke:#000000;stroke-miterlimit:1;" x1="49.042" y1="143.836" x2="49.042" y2="143.836"/>
	<line style="fill:none;stroke:#000000;stroke-miterlimit:1;" x1="49.042" y1="143.836" x2="45.751" y2="144.494"/>
	<line style="fill:none;stroke:#000000;stroke-miterlimit:1;" x1="45.751" y1="144.494" x2="43.776" y2="147.127"/>
	<line style="fill:none;stroke:#000000;stroke-miterlimit:1;" x1="43.776" y1="147.127" x2="44.764" y2="147.785"/>
	<line style="fill:none;stroke:#000000;stroke-miterlimit:1;" x1="44.764" y1="147.785" x2="47.067" y2="145.811"/>
	<line style="fill:none;stroke:#000000;stroke-miterlimit:1;" x1="47.067" y1="145.811" x2="49.701" y2="145.481"/>
	<line style="fill:none;stroke:#000000;stroke-miterlimit:1;" x1="124.416" y1="142.849" x2="130.67" y2="143.507"/>
	<line style="fill:none;stroke:#000000;stroke-miterlimit:1;" x1="130.67" y1="143.507" x2="133.632" y2="144.494"/>
	<line style="fill:none;stroke:#000000;stroke-miterlimit:1;" x1="133.632" y1="144.494" x2="135.607" y2="147.127"/>
	<line style="fill:none;stroke:#000000;stroke-miterlimit:1;" x1="135.607" y1="147.127" x2="134.62" y2="147.785"/>
	<line style="fill:none;stroke:#000000;stroke-miterlimit:1;" x1="134.62" y1="147.785" x2="132.315" y2="145.811"/>
	<line style="fill:none;stroke:#000000;stroke-miterlimit:1;" x1="132.315" y1="145.811" x2="130.67" y2="145.481"/>
	<line style="fill:none;stroke:#000000;stroke-miterlimit:1;" x1="0" y1="68.915" x2="52.663" y2="68.915"/>
	<line style="fill:none;stroke:#000000;stroke-miterlimit:1;" x1="52.663" y1="68.915" x2="52.663" y2="121.577"/>
	<line style="fill:none;stroke:#000000;stroke-miterlimit:1;" x1="52.663" y1="121.577" x2="0" y2="121.577"/>
	<line style="fill:none;stroke:#000000;stroke-miterlimit:1;" x1="0" y1="121.577" x2="0" y2="68.915"/>
	<line style="fill:none;stroke:#000000;stroke-miterlimit:1;" x1="213.449" y1="38.592" x2="135.771" y2="38.592"/>
	<line style="fill:none;stroke:#000000;stroke-miterlimit:1;" x1="135.771" y1="38.592" x2="136.759" y2="32.009"/>
	<line style="fill:none;stroke:#000000;stroke-miterlimit:1;" x1="136.759" y1="32.009" x2="137.747" y2="27.73"/>
	<line style="fill:none;stroke:#000000;stroke-miterlimit:1;" x1="137.747" y1="27.73" x2="139.392" y2="23.452"/>
	<line style="fill:none;stroke:#000000;stroke-miterlimit:1;" x1="139.392" y1="23.452" x2="141.696" y2="20.16"/>
	<line style="fill:none;stroke:#000000;stroke-miterlimit:1;" x1="141.696" y1="20.16" x2="143.671" y2="17.198"/>
	<line style="fill:none;stroke:#000000;stroke-miterlimit:1;" x1="143.671" y1="17.198" x2="146.304" y2="13.577"/>
	<line style="fill:none;stroke:#000000;stroke-miterlimit:1;" x1="146.304" y1="13.577" x2="149.266" y2="10.944"/>
	<line style="fill:none;stroke:#000000;stroke-miterlimit:1;" x1="149.266" y1="10.944" x2="152.887" y2="8.311"/>
	<line style="fill:none;stroke:#000000;stroke-miterlimit:1;" x1="152.887" y1="8.311" x2="155.849" y2="6.336"/>
	<line style="fill:none;stroke:#000000;stroke-miterlimit:1;" x1="155.849" y1="6.336" x2="160.128" y2="4.361"/>
	<line style="fill:none;stroke:#000000;stroke-miterlimit:1;" x1="160.128" y1="4.361" x2="164.407" y2="3.045"/>
	<line style="fill:none;stroke:#000000;stroke-miterlimit:1;" x1="164.407" y1="3.045" x2="167.369" y2="2.387"/>
	<line style="fill:none;stroke:#000000;stroke-miterlimit:1;" x1="167.369" y1="2.387" x2="172.635" y2="1.728"/>
	<line style="fill:none;stroke:#000000;stroke-miterlimit:1;" x1="172.635" y1="1.728" x2="176.586" y2="1.728"/>
	<line style="fill:none;stroke:#000000;stroke-miterlimit:1;" x1="176.586" y1="1.728" x2="180.205" y2="2.387"/>
	<line style="fill:none;stroke:#000000;stroke-miterlimit:1;" x1="180.205" y1="2.387" x2="184.156" y2="3.045"/>
	<line style="fill:none;stroke:#000000;stroke-miterlimit:1;" x1="184.156" y1="3.045" x2="188.434" y2="4.032"/>
	<line style="fill:none;stroke:#000000;stroke-miterlimit:1;" x1="188.434" y1="4.032" x2="191.396" y2="5.02"/>
	<line style="fill:none;stroke:#000000;stroke-miterlimit:1;" x1="191.396" y1="5.02" x2="195.346" y2="7.653"/>
	<line style="fill:none;stroke:#000000;stroke-miterlimit:1;" x1="195.346" y1="7.653" x2="198.639" y2="9.957"/>
	<line style="fill:none;stroke:#000000;stroke-miterlimit:1;" x1="198.639" y1="9.957" x2="201.6" y2="12.261"/>
	<line style="fill:none;stroke:#000000;stroke-miterlimit:1;" x1="201.6" y1="12.261" x2="204.232" y2="15.552"/>
	<line style="fill:none;stroke:#000000;stroke-miterlimit:1;" x1="204.232" y1="15.552" x2="206.867" y2="19.173"/>
	<line style="fill:none;stroke:#000000;stroke-miterlimit:1;" x1="206.867" y1="19.173" x2="209.17" y2="22.793"/>
	<line style="fill:none;stroke:#000000;stroke-miterlimit:1;" x1="209.17" y1="22.793" x2="210.816" y2="26.085"/>
	<line style="fill:none;stroke:#000000;stroke-miterlimit:1;" x1="210.816" y1="26.085" x2="212.133" y2="31.022"/>
	<line style="fill:none;stroke:#000000;stroke-miterlimit:1;" x1="212.133" y1="31.022" x2="213.119" y2="34.643"/>
	<line style="fill:none;stroke:#000000;stroke-miterlimit:1;" x1="213.119" y1="34.643" x2="213.449" y2="38.592"/>
	<line style="fill:none;stroke:#000000;stroke-miterlimit:1;" x1="291.662" y1="56.243" x2="290.016" y2="61.509"/>
	<line style="fill:none;stroke:#000000;stroke-miterlimit:1;" x1="290.016" y1="61.509" x2="287.055" y2="69.737"/>
	<line style="fill:none;stroke:#000000;stroke-miterlimit:1;" x1="287.055" y1="69.737" x2="282.117" y2="79.282"/>
	<line style="fill:none;stroke:#000000;stroke-miterlimit:1;" x1="282.117" y1="79.282" x2="276.85" y2="87.182"/>
	<line style="fill:none;stroke:#000000;stroke-miterlimit:1;" x1="276.85" y1="87.182" x2="272.9" y2="93.765"/>
	<line style="fill:none;stroke:#000000;stroke-miterlimit:1;" x1="272.9" y1="93.765" x2="268.621" y2="99.36"/>
	<line style="fill:none;stroke:#000000;stroke-miterlimit:1;" x1="268.621" y1="99.36" x2="266.977" y2="102.651"/>
	<line style="fill:none;stroke:#000000;stroke-miterlimit:1;" x1="266.977" y1="102.651" x2="266.318" y2="105.285"/>
	<line style="fill:none;stroke:#000000;stroke-miterlimit:1;" x1="266.318" y1="105.285" x2="265.988" y2="107.589"/>
	<line style="fill:none;stroke:#000000;stroke-miterlimit:1;" x1="265.988" y1="107.589" x2="266.646" y2="111.209"/>
	<line style="fill:none;stroke:#000000;stroke-miterlimit:1;" x1="266.646" y1="111.209" x2="266.977" y2="113.514"/>
	<line style="fill:none;stroke:#000000;stroke-miterlimit:1;" x1="266.977" y1="113.514" x2="266.318" y2="116.476"/>
	<line style="fill:none;stroke:#000000;stroke-miterlimit:1;" x1="266.318" y1="116.476" x2="265.33" y2="118.45"/>
	<line style="fill:none;stroke:#000000;stroke-miterlimit:1;" x1="265.33" y1="118.45" x2="262.367" y2="120.097"/>
	<line style="fill:none;stroke:#000000;stroke-miterlimit:1;" x1="262.367" y1="120.097" x2="258.748" y2="120.097"/>
	<line style="fill:none;stroke:#000000;stroke-miterlimit:1;" x1="258.748" y1="120.097" x2="254.797" y2="118.45"/>
	<line style="fill:none;stroke:#000000;stroke-miterlimit:1;" x1="254.797" y1="118.45" x2="253.48" y2="118.121"/>
	<line style="fill:none;stroke:#000000;stroke-miterlimit:1;" x1="253.48" y1="118.121" x2="250.52" y2="118.779"/>
	<line style="fill:none;stroke:#000000;stroke-miterlimit:1;" x1="250.52" y1="118.779" x2="246.568" y2="120.426"/>
	<line style="fill:none;stroke:#000000;stroke-miterlimit:1;" x1="246.568" y1="120.426" x2="223.857" y2="120.426"/>
	<line style="fill:none;stroke:#000000;stroke-miterlimit:1;" x1="223.857" y1="120.426" x2="223.199" y2="117.134"/>
	<line style="fill:none;stroke:#000000;stroke-miterlimit:1;" x1="223.199" y1="117.134" x2="225.176" y2="115.159"/>
	<line style="fill:none;stroke:#000000;stroke-miterlimit:1;" x1="225.176" y1="115.159" x2="230.77" y2="114.501"/>
	<line style="fill:none;stroke:#000000;stroke-miterlimit:1;" x1="230.77" y1="114.501" x2="238.34" y2="112.526"/>
	<line style="fill:none;stroke:#000000;stroke-miterlimit:1;" x1="238.34" y1="112.526" x2="245.252" y2="109.234"/>
	<line style="fill:none;stroke:#000000;stroke-miterlimit:1;" x1="245.252" y1="109.234" x2="250.52" y2="104.626"/>
	<line style="fill:none;stroke:#000000;stroke-miterlimit:1;" x1="250.52" y1="104.626" x2="254.797" y2="99.36"/>
	<line style="fill:none;stroke:#000000;stroke-miterlimit:1;" x1="254.797" y1="99.36" x2="256.115" y2="96.397"/>
	<line style="fill:none;stroke:#000000;stroke-miterlimit:1;" x1="256.115" y1="96.397" x2="258.748" y2="88.827"/>
	<line style="fill:none;stroke:#000000;stroke-miterlimit:1;" x1="258.748" y1="88.827" x2="265.66" y2="70.066"/>
	<line style="fill:none;stroke:#000000;stroke-miterlimit:1;" x1="265.66" y1="70.066" x2="269.938" y2="60.851"/>
	<line style="fill:none;stroke:#000000;stroke-miterlimit:1;" x1="269.938" y1="60.851" x2="274.547" y2="51.964"/>
	<line style="fill:none;stroke:#000000;stroke-miterlimit:1;" x1="274.547" y1="51.964" x2="278.496" y2="45.381"/>
	<line style="fill:none;stroke:#000000;stroke-miterlimit:1;" x1="278.496" y1="45.381" x2="281.787" y2="40.114"/>
	<line style="fill:none;stroke:#000000;stroke-miterlimit:1;" x1="281.787" y1="40.114" x2="284.75" y2="36.165"/>
	<line style="fill:none;stroke:#000000;stroke-miterlimit:1;" x1="284.75" y1="36.165" x2="287.055" y2="33.203"/>
	<line style="fill:none;stroke:#000000;stroke-miterlimit:1;" x1="287.055" y1="33.203" x2="289.029" y2="32.215"/>
	<line style="fill:none;stroke:#000000;stroke-miterlimit:1;" x1="289.029" y1="32.215" x2="290.674" y2="31.886"/>
	<line style="fill:none;stroke:#000000;stroke-miterlimit:1;" x1="290.674" y1="31.886" x2="291.99" y2="32.215"/>
	<line style="fill:none;stroke:#000000;stroke-miterlimit:1;" x1="291.99" y1="32.215" x2="294.625" y2="32.544"/>
	<line style="fill:none;stroke:#000000;stroke-miterlimit:1;" x1="294.625" y1="32.544" x2="298.574" y2="38.14"/>
	<line style="fill:none;stroke:#000000;stroke-miterlimit:1;" x1="298.574" y1="38.14" x2="305.156" y2="49.001"/>
	<line style="fill:none;stroke:#000000;stroke-miterlimit:1;" x1="305.156" y1="49.001" x2="311.74" y2="59.534"/>
	<line style="fill:none;stroke:#000000;stroke-miterlimit:1;" x1="311.74" y1="59.534" x2="319.311" y2="72.7"/>
	<line style="fill:none;stroke:#000000;stroke-miterlimit:1;" x1="319.311" y1="72.7" x2="325.234" y2="85.536"/>
	<line style="fill:none;stroke:#000000;stroke-miterlimit:1;" x1="325.234" y1="85.536" x2="329.514" y2="96.728"/>
	<line style="fill:none;stroke:#000000;stroke-miterlimit:1;" x1="329.514" y1="96.728" x2="330.83" y2="101.993"/>
	<line style="fill:none;stroke:#000000;stroke-miterlimit:1;" x1="330.83" y1="101.993" x2="333.135" y2="107.26"/>
	<line style="fill:none;stroke:#000000;stroke-miterlimit:1;" x1="333.135" y1="107.26" x2="336.096" y2="112.196"/>
	<line style="fill:none;stroke:#000000;stroke-miterlimit:1;" x1="336.096" y1="112.196" x2="336.426" y2="114.501"/>
	<line style="fill:none;stroke:#000000;stroke-miterlimit:1;" x1="336.426" y1="114.501" x2="336.096" y2="117.134"/>
	<line style="fill:none;stroke:#000000;stroke-miterlimit:1;" x1="336.096" y1="117.134" x2="335.109" y2="119.108"/>
	<line style="fill:none;stroke:#000000;stroke-miterlimit:1;" x1="335.109" y1="119.108" x2="333.135" y2="120.097"/>
	<line style="fill:none;stroke:#000000;stroke-miterlimit:1;" x1="333.135" y1="120.097" x2="330.172" y2="120.755"/>
	<line style="fill:none;stroke:#000000;stroke-miterlimit:1;" x1="330.172" y1="120.755" x2="327.209" y2="120.097"/>
	<line style="fill:none;stroke:#000000;stroke-miterlimit:1;" x1="327.209" y1="120.097" x2="326.223" y2="119.108"/>
	<line style="fill:none;stroke:#000000;stroke-miterlimit:1;" x1="326.223" y1="119.108" x2="323.918" y2="118.45"/>
	<line style="fill:none;stroke:#000000;stroke-miterlimit:1;" x1="323.918" y1="118.45" x2="321.613" y2="118.45"/>
	<line style="fill:none;stroke:#000000;stroke-miterlimit:1;" x1="321.613" y1="118.45" x2="319.311" y2="120.426"/>
	<line style="fill:none;stroke:#000000;stroke-miterlimit:1;" x1="319.311" y1="120.426" x2="291.662" y2="120.426"/>
	<line style="fill:none;stroke:#000000;stroke-miterlimit:1;" x1="291.662" y1="120.426" x2="291.332" y2="118.121"/>
	<line style="fill:none;stroke:#000000;stroke-miterlimit:1;" x1="291.332" y1="118.121" x2="292.32" y2="116.476"/>
	<line style="fill:none;stroke:#000000;stroke-miterlimit:1;" x1="292.32" y1="116.476" x2="299.561" y2="114.501"/>
	<line style="fill:none;stroke:#000000;stroke-miterlimit:1;" x1="299.561" y1="114.501" x2="305.814" y2="112.855"/>
	<line style="fill:none;stroke:#000000;stroke-miterlimit:1;" x1="305.814" y1="112.855" x2="310.424" y2="111.209"/>
	<line style="fill:none;stroke:#000000;stroke-miterlimit:1;" x1="310.424" y1="111.209" x2="314.701" y2="109.234"/>
	<line style="fill:none;stroke:#000000;stroke-miterlimit:1;" x1="314.701" y1="109.234" x2="317.006" y2="106.931"/>
	<line style="fill:none;stroke:#000000;stroke-miterlimit:1;" x1="317.006" y1="106.931" x2="318.322" y2="104.297"/>
	<line style="fill:none;stroke:#000000;stroke-miterlimit:1;" x1="318.322" y1="104.297" x2="318.322" y2="102.322"/>
	<line style="fill:none;stroke:#000000;stroke-miterlimit:1;" x1="318.322" y1="102.322" x2="317.334" y2="99.689"/>
	<line style="fill:none;stroke:#000000;stroke-miterlimit:1;" x1="317.334" y1="99.689" x2="313.385" y2="93.765"/>
	<line style="fill:none;stroke:#000000;stroke-miterlimit:1;" x1="313.385" y1="93.765" x2="306.803" y2="82.574"/>
	<line style="fill:none;stroke:#000000;stroke-miterlimit:1;" x1="306.803" y1="82.574" x2="300.549" y2="74.016"/>
	<line style="fill:none;stroke:#000000;stroke-miterlimit:1;" x1="300.549" y1="74.016" x2="295.941" y2="65.788"/>
	<line style="fill:none;stroke:#000000;stroke-miterlimit:1;" x1="295.941" y1="65.788" x2="293.637" y2="59.205"/>
	<line style="fill:none;stroke:#000000;stroke-miterlimit:1;" x1="293.637" y1="59.205" x2="291.99" y2="55.913"/>
</g>
</svg>
