<?xml version="1.0" encoding="iso-8859-1"?>
<!-- Generator: Adobe Illustrator 16.0.1, SVG Export Plug-In . SVG Version: 6.00 Build 0)  -->
<!DOCTYPE svg PUBLIC "-//W3C//DTD SVG 1.1//EN" "http://www.w3.org/Graphics/SVG/1.1/DTD/svg11.dtd">
<svg version="1.1" id="Ebene_1" xmlns="http://www.w3.org/2000/svg" xmlns:xlink="http://www.w3.org/1999/xlink" x="0px" y="0px"
	 width="359.795px" height="149.719px" viewBox="0 0 359.795 149.719" style="enable-background:new 0 0 359.795 149.719;"
	 xml:space="preserve">
<g>
	<line style="fill:none;stroke:#000000;stroke-miterlimit:1;" x1="71.753" y1="40.567" x2="64.512" y2="39.909"/>
	<line style="fill:none;stroke:#000000;stroke-miterlimit:1;" x1="64.512" y1="39.909" x2="52.992" y2="40.567"/>
	<line style="fill:none;stroke:#000000;stroke-miterlimit:1;" x1="52.992" y1="40.567" x2="44.434" y2="39.58"/>
	<line style="fill:none;stroke:#000000;stroke-miterlimit:1;" x1="44.434" y1="39.58" x2="41.801" y2="40.567"/>
	<line style="fill:none;stroke:#000000;stroke-miterlimit:1;" x1="41.801" y1="40.567" x2="39.826" y2="43.2"/>
	<line style="fill:none;stroke:#000000;stroke-miterlimit:1;" x1="39.826" y1="43.2" x2="40.484" y2="47.808"/>
	<line style="fill:none;stroke:#000000;stroke-miterlimit:1;" x1="40.484" y1="47.808" x2="43.776" y2="58.341"/>
	<line style="fill:none;stroke:#000000;stroke-miterlimit:1;" x1="43.776" y1="58.341" x2="50.03" y2="68.544"/>
	<line style="fill:none;stroke:#000000;stroke-miterlimit:1;" x1="50.03" y1="68.544" x2="70.437" y2="92.9"/>
	<line style="fill:none;stroke:#000000;stroke-miterlimit:1;" x1="70.437" y1="92.9" x2="80.969" y2="102.775"/>
	<line style="fill:none;stroke:#000000;stroke-miterlimit:1;" x1="80.969" y1="102.775" x2="96.11" y2="116.928"/>
	<line style="fill:none;stroke:#000000;stroke-miterlimit:1;" x1="96.11" y1="116.928" x2="128.366" y2="148.525"/>
	<line style="fill:none;stroke:#000000;stroke-miterlimit:1;" x1="128.366" y1="148.525" x2="131.657" y2="148.525"/>
	<line style="fill:none;stroke:#000000;stroke-miterlimit:1;" x1="131.657" y1="148.525" x2="132.645" y2="146.88"/>
	<line style="fill:none;stroke:#000000;stroke-miterlimit:1;" x1="132.645" y1="146.88" x2="131.328" y2="143.918"/>
	<line style="fill:none;stroke:#000000;stroke-miterlimit:1;" x1="131.328" y1="143.918" x2="117.504" y2="112.32"/>
	<line style="fill:none;stroke:#000000;stroke-miterlimit:1;" x1="117.504" y1="112.32" x2="115.529" y2="106.396"/>
	<line style="fill:none;stroke:#000000;stroke-miterlimit:1;" x1="115.529" y1="106.396" x2="104.997" y2="81.052"/>
	<line style="fill:none;stroke:#000000;stroke-miterlimit:1;" x1="104.997" y1="81.052" x2="95.451" y2="64.594"/>
	<line style="fill:none;stroke:#000000;stroke-miterlimit:1;" x1="95.451" y1="64.594" x2="87.881" y2="54.062"/>
	<line style="fill:none;stroke:#000000;stroke-miterlimit:1;" x1="87.881" y1="54.062" x2="82.286" y2="46.492"/>
	<line style="fill:none;stroke:#000000;stroke-miterlimit:1;" x1="82.286" y1="46.492" x2="77.678" y2="39.25"/>
	<line style="fill:none;stroke:#000000;stroke-miterlimit:1;" x1="77.678" y1="39.25" x2="72.741" y2="32.667"/>
	<line style="fill:none;stroke:#000000;stroke-miterlimit:1;" x1="72.741" y1="32.667" x2="66.816" y2="25.755"/>
	<line style="fill:none;stroke:#000000;stroke-miterlimit:1;" x1="66.816" y1="25.755" x2="60.891" y2="21.806"/>
	<line style="fill:none;stroke:#000000;stroke-miterlimit:1;" x1="60.891" y1="21.806" x2="59.246" y2="14.894"/>
	<line style="fill:none;stroke:#000000;stroke-miterlimit:1;" x1="59.246" y1="14.894" x2="57.929" y2="7.323"/>
	<line style="fill:none;stroke:#000000;stroke-miterlimit:1;" x1="57.929" y1="7.323" x2="55.954" y2="2.386"/>
	<line style="fill:none;stroke:#000000;stroke-miterlimit:1;" x1="55.954" y1="2.386" x2="50.359" y2="1.07"/>
	<line style="fill:none;stroke:#000000;stroke-miterlimit:1;" x1="50.359" y1="1.07" x2="41.143" y2="1.07"/>
	<line style="fill:none;stroke:#000000;stroke-miterlimit:1;" x1="41.143" y1="1.07" x2="30.939" y2="1.399"/>
	<line style="fill:none;stroke:#000000;stroke-miterlimit:1;" x1="30.939" y1="1.399" x2="26.002" y2="2.715"/>
	<line style="fill:none;stroke:#000000;stroke-miterlimit:1;" x1="26.002" y1="2.715" x2="23.698" y2="3.374"/>
	<line style="fill:none;stroke:#000000;stroke-miterlimit:1;" x1="23.698" y1="3.374" x2="6.912" y2="5.678"/>
	<line style="fill:none;stroke:#000000;stroke-miterlimit:1;" x1="6.912" y1="5.678" x2="1.975" y2="7.982"/>
	<line style="fill:none;stroke:#000000;stroke-miterlimit:1;" x1="1.975" y1="7.982" x2="0.329" y2="10.286"/>
	<line style="fill:none;stroke:#000000;stroke-miterlimit:1;" x1="0.329" y1="10.286" x2="0" y2="14.894"/>
	<line style="fill:none;stroke:#000000;stroke-miterlimit:1;" x1="0" y1="14.894" x2="1.975" y2="11.603"/>
	<line style="fill:none;stroke:#000000;stroke-miterlimit:1;" x1="1.975" y1="11.603" x2="5.266" y2="9.957"/>
	<line style="fill:none;stroke:#000000;stroke-miterlimit:1;" x1="5.266" y1="9.957" x2="15.141" y2="9.957"/>
	<line style="fill:none;stroke:#000000;stroke-miterlimit:1;" x1="15.141" y1="9.957" x2="25.344" y2="10.286"/>
	<line style="fill:none;stroke:#000000;stroke-miterlimit:1;" x1="25.344" y1="10.286" x2="30.61" y2="11.603"/>
	<line style="fill:none;stroke:#000000;stroke-miterlimit:1;" x1="30.61" y1="11.603" x2="26.332" y2="6.336"/>
	<line style="fill:none;stroke:#000000;stroke-miterlimit:1;" x1="26.332" y1="6.336" x2="25.344" y2="2.715"/>
	<line style="fill:none;stroke:#000000;stroke-miterlimit:1;" x1="36.206" y1="9.627" x2="37.193" y2="9.298"/>
	<line style="fill:none;stroke:#000000;stroke-miterlimit:1;" x1="37.193" y1="9.298" x2="37.852" y2="7.653"/>
	<line style="fill:none;stroke:#000000;stroke-miterlimit:1;" x1="37.852" y1="7.653" x2="37.193" y2="6.007"/>
	<line style="fill:none;stroke:#000000;stroke-miterlimit:1;" x1="37.193" y1="6.007" x2="35.876" y2="5.02"/>
	<line style="fill:none;stroke:#000000;stroke-miterlimit:1;" x1="35.876" y1="5.02" x2="34.56" y2="6.007"/>
	<line style="fill:none;stroke:#000000;stroke-miterlimit:1;" x1="34.56" y1="6.007" x2="34.231" y2="7.982"/>
	<line style="fill:none;stroke:#000000;stroke-miterlimit:1;" x1="34.231" y1="7.982" x2="34.889" y2="8.969"/>
	<line style="fill:none;stroke:#000000;stroke-miterlimit:1;" x1="34.889" y1="8.969" x2="35.876" y2="9.627"/>
	<line style="fill:none;stroke:#000000;stroke-miterlimit:1;" x1="1.646" y1="12.919" x2="14.812" y2="12.59"/>
	<line style="fill:none;stroke:#000000;stroke-miterlimit:1;" x1="14.812" y1="12.59" x2="25.015" y2="13.906"/>
	<line style="fill:none;stroke:#000000;stroke-miterlimit:1;" x1="25.015" y1="13.906" x2="27.977" y2="15.552"/>
	<line style="fill:none;stroke:#000000;stroke-miterlimit:1;" x1="27.977" y1="15.552" x2="28.964" y2="18.844"/>
	<line style="fill:none;stroke:#000000;stroke-miterlimit:1;" x1="28.964" y1="18.844" x2="29.293" y2="22.464"/>
	<line style="fill:none;stroke:#000000;stroke-miterlimit:1;" x1="29.293" y1="22.464" x2="26.332" y2="29.705"/>
	<line style="fill:none;stroke:#000000;stroke-miterlimit:1;" x1="26.332" y1="29.705" x2="25.015" y2="38.592"/>
	<line style="fill:none;stroke:#000000;stroke-miterlimit:1;" x1="25.015" y1="38.592" x2="26.661" y2="49.454"/>
	<line style="fill:none;stroke:#000000;stroke-miterlimit:1;" x1="26.661" y1="49.454" x2="27.977" y2="54.391"/>
	<line style="fill:none;stroke:#000000;stroke-miterlimit:1;" x1="27.977" y1="54.391" x2="31.598" y2="64.265"/>
	<line style="fill:none;stroke:#000000;stroke-miterlimit:1;" x1="31.598" y1="64.265" x2="35.876" y2="72.165"/>
	<line style="fill:none;stroke:#000000;stroke-miterlimit:1;" x1="35.876" y1="72.165" x2="46.08" y2="89.609"/>
	<line style="fill:none;stroke:#000000;stroke-miterlimit:1;" x1="46.08" y1="89.609" x2="59.575" y2="115.282"/>
	<line style="fill:none;stroke:#000000;stroke-miterlimit:1;" x1="59.575" y1="115.282" x2="60.891" y2="125.156"/>
	<line style="fill:none;stroke:#000000;stroke-miterlimit:1;" x1="60.891" y1="125.156" x2="59.246" y2="141.943"/>
	<line style="fill:none;stroke:#000000;stroke-miterlimit:1;" x1="59.246" y1="141.943" x2="57.6" y2="143.589"/>
	<line style="fill:none;stroke:#000000;stroke-miterlimit:1;" x1="57.6" y1="143.589" x2="48.055" y2="144.576"/>
	<line style="fill:none;stroke:#000000;stroke-miterlimit:1;" x1="48.055" y1="144.576" x2="36.864" y2="144.247"/>
	<line style="fill:none;stroke:#000000;stroke-miterlimit:1;" x1="36.864" y1="144.247" x2="36.206" y2="145.893"/>
	<line style="fill:none;stroke:#000000;stroke-miterlimit:1;" x1="36.206" y1="145.893" x2="31.269" y2="146.551"/>
	<line style="fill:none;stroke:#000000;stroke-miterlimit:1;" x1="31.269" y1="146.551" x2="30.61" y2="147.538"/>
	<line style="fill:none;stroke:#000000;stroke-miterlimit:1;" x1="30.61" y1="147.538" x2="31.598" y2="148.854"/>
	<line style="fill:none;stroke:#000000;stroke-miterlimit:1;" x1="31.598" y1="148.854" x2="59.904" y2="147.867"/>
	<line style="fill:none;stroke:#000000;stroke-miterlimit:1;" x1="59.904" y1="147.867" x2="89.198" y2="149.185"/>
	<line style="fill:none;stroke:#000000;stroke-miterlimit:1;" x1="89.198" y1="149.185" x2="90.514" y2="147.867"/>
	<line style="fill:none;stroke:#000000;stroke-miterlimit:1;" x1="90.514" y1="147.867" x2="89.856" y2="146.222"/>
	<line style="fill:none;stroke:#000000;stroke-miterlimit:1;" x1="89.856" y1="146.222" x2="85.248" y2="146.222"/>
	<line style="fill:none;stroke:#000000;stroke-miterlimit:1;" x1="85.248" y1="146.222" x2="82.615" y2="143.918"/>
	<line style="fill:none;stroke:#000000;stroke-miterlimit:1;" x1="82.615" y1="143.918" x2="65.829" y2="143.589"/>
	<line style="fill:none;stroke:#000000;stroke-miterlimit:1;" x1="65.829" y1="143.589" x2="63.854" y2="142.272"/>
	<line style="fill:none;stroke:#000000;stroke-miterlimit:1;" x1="63.854" y1="142.272" x2="65.829" y2="121.536"/>
	<line style="fill:none;stroke:#000000;stroke-miterlimit:1;" x1="65.829" y1="121.536" x2="78.007" y2="127.79"/>
	<line style="fill:none;stroke:#000000;stroke-miterlimit:1;" x1="78.007" y1="127.79" x2="84.919" y2="107.383"/>
	<line style="fill:none;stroke:#000000;stroke-miterlimit:1;" x1="84.919" y1="107.383" x2="98.084" y2="140.297"/>
	<line style="fill:none;stroke:#000000;stroke-miterlimit:1;" x1="98.084" y1="140.297" x2="102.692" y2="146.222"/>
	<line style="fill:none;stroke:#000000;stroke-miterlimit:1;" x1="102.692" y1="146.222" x2="107.3" y2="148.854"/>
	<line style="fill:none;stroke:#000000;stroke-miterlimit:1;" x1="107.3" y1="148.854" x2="114.212" y2="148.854"/>
	<line style="fill:none;stroke:#000000;stroke-miterlimit:1;" x1="114.212" y1="148.854" x2="118.162" y2="147.538"/>
	<line style="fill:none;stroke:#000000;stroke-miterlimit:1;" x1="118.162" y1="147.538" x2="119.149" y2="145.563"/>
	<line style="fill:none;stroke:#000000;stroke-miterlimit:1;" x1="119.149" y1="145.563" x2="115.858" y2="136.677"/>
	<line style="fill:none;stroke:#000000;stroke-miterlimit:1;" x1="34.231" y1="69.861" x2="38.51" y2="93.888"/>
	<line style="fill:none;stroke:#000000;stroke-miterlimit:1;" x1="38.51" y1="93.888" x2="38.181" y2="112.32"/>
	<line style="fill:none;stroke:#000000;stroke-miterlimit:1;" x1="38.181" y1="112.32" x2="34.889" y2="131.081"/>
	<line style="fill:none;stroke:#000000;stroke-miterlimit:1;" x1="34.889" y1="131.081" x2="31.927" y2="140.626"/>
	<line style="fill:none;stroke:#000000;stroke-miterlimit:1;" x1="31.927" y1="140.626" x2="29.952" y2="142.931"/>
	<line style="fill:none;stroke:#000000;stroke-miterlimit:1;" x1="29.952" y1="142.931" x2="14.153" y2="143.918"/>
	<line style="fill:none;stroke:#000000;stroke-miterlimit:1;" x1="14.153" y1="143.918" x2="12.507" y2="146.222"/>
	<line style="fill:none;stroke:#000000;stroke-miterlimit:1;" x1="12.507" y1="146.222" x2="8.887" y2="146.551"/>
	<line style="fill:none;stroke:#000000;stroke-miterlimit:1;" x1="8.887" y1="146.551" x2="7.57" y2="147.538"/>
	<line style="fill:none;stroke:#000000;stroke-miterlimit:1;" x1="7.57" y1="147.538" x2="8.887" y2="148.854"/>
	<line style="fill:none;stroke:#000000;stroke-miterlimit:1;" x1="8.887" y1="148.854" x2="21.065" y2="147.867"/>
	<line style="fill:none;stroke:#000000;stroke-miterlimit:1;" x1="21.065" y1="147.867" x2="24.686" y2="148.196"/>
	<line style="fill:none;stroke:#000000;stroke-miterlimit:1;" x1="36.535" y1="144.247" x2="30.939" y2="144.905"/>
	<line style="fill:none;stroke:#000000;stroke-miterlimit:1;" x1="30.939" y1="144.905" x2="30.939" y2="144.905"/>
	<line style="fill:none;stroke:#000000;stroke-miterlimit:1;" x1="30.939" y1="144.905" x2="27.648" y2="145.563"/>
	<line style="fill:none;stroke:#000000;stroke-miterlimit:1;" x1="27.648" y1="145.563" x2="25.673" y2="148.196"/>
	<line style="fill:none;stroke:#000000;stroke-miterlimit:1;" x1="25.673" y1="148.196" x2="26.99" y2="148.854"/>
	<line style="fill:none;stroke:#000000;stroke-miterlimit:1;" x1="26.99" y1="148.854" x2="28.964" y2="146.88"/>
	<line style="fill:none;stroke:#000000;stroke-miterlimit:1;" x1="28.964" y1="146.88" x2="30.939" y2="146.551"/>
	<line style="fill:none;stroke:#000000;stroke-miterlimit:1;" x1="36.206" y1="143.918" x2="43.447" y2="116.928"/>
	<line style="fill:none;stroke:#000000;stroke-miterlimit:1;" x1="43.447" y1="116.928" x2="54.638" y2="123.511"/>
	<line style="fill:none;stroke:#000000;stroke-miterlimit:1;" x1="54.638" y1="123.511" x2="56.941" y2="111.333"/>
	<line style="fill:none;stroke:#000000;stroke-miterlimit:1;" x1="13.166" y1="144.247" x2="7.899" y2="144.905"/>
	<line style="fill:none;stroke:#000000;stroke-miterlimit:1;" x1="7.899" y1="144.905" x2="7.899" y2="144.905"/>
	<line style="fill:none;stroke:#000000;stroke-miterlimit:1;" x1="7.899" y1="144.905" x2="4.608" y2="145.563"/>
	<line style="fill:none;stroke:#000000;stroke-miterlimit:1;" x1="4.608" y1="145.563" x2="2.633" y2="148.196"/>
	<line style="fill:none;stroke:#000000;stroke-miterlimit:1;" x1="2.633" y1="148.196" x2="3.621" y2="148.854"/>
	<line style="fill:none;stroke:#000000;stroke-miterlimit:1;" x1="3.621" y1="148.854" x2="5.924" y2="146.88"/>
	<line style="fill:none;stroke:#000000;stroke-miterlimit:1;" x1="5.924" y1="146.88" x2="8.558" y2="146.551"/>
	<line style="fill:none;stroke:#000000;stroke-miterlimit:1;" x1="83.273" y1="143.918" x2="89.527" y2="144.576"/>
	<line style="fill:none;stroke:#000000;stroke-miterlimit:1;" x1="89.527" y1="144.576" x2="92.489" y2="145.563"/>
	<line style="fill:none;stroke:#000000;stroke-miterlimit:1;" x1="92.489" y1="145.563" x2="94.464" y2="148.196"/>
	<line style="fill:none;stroke:#000000;stroke-miterlimit:1;" x1="94.464" y1="148.196" x2="93.477" y2="148.854"/>
	<line style="fill:none;stroke:#000000;stroke-miterlimit:1;" x1="93.477" y1="148.854" x2="91.172" y2="146.88"/>
	<line style="fill:none;stroke:#000000;stroke-miterlimit:1;" x1="91.172" y1="146.88" x2="89.527" y2="146.551"/>
	<line style="fill:none;stroke:#000000;stroke-miterlimit:1;" x1="160.457" y1="1.07" x2="213.119" y2="1.07"/>
	<line style="fill:none;stroke:#000000;stroke-miterlimit:1;" x1="213.119" y1="1.07" x2="213.119" y2="53.732"/>
	<line style="fill:none;stroke:#000000;stroke-miterlimit:1;" x1="213.119" y1="53.732" x2="160.457" y2="53.732"/>
	<line style="fill:none;stroke:#000000;stroke-miterlimit:1;" x1="160.457" y1="53.732" x2="160.457" y2="1.07"/>
	<line style="fill:none;stroke:#000000;stroke-miterlimit:1;" x1="227.85" y1="149.719" x2="150.171" y2="149.719"/>
	<line style="fill:none;stroke:#000000;stroke-miterlimit:1;" x1="150.171" y1="149.719" x2="151.159" y2="143.136"/>
	<line style="fill:none;stroke:#000000;stroke-miterlimit:1;" x1="151.159" y1="143.136" x2="152.146" y2="138.857"/>
	<line style="fill:none;stroke:#000000;stroke-miterlimit:1;" x1="152.146" y1="138.857" x2="153.792" y2="134.578"/>
	<line style="fill:none;stroke:#000000;stroke-miterlimit:1;" x1="153.792" y1="134.578" x2="156.096" y2="131.287"/>
	<line style="fill:none;stroke:#000000;stroke-miterlimit:1;" x1="156.096" y1="131.287" x2="158.071" y2="128.324"/>
	<line style="fill:none;stroke:#000000;stroke-miterlimit:1;" x1="158.071" y1="128.324" x2="160.704" y2="124.704"/>
	<line style="fill:none;stroke:#000000;stroke-miterlimit:1;" x1="160.704" y1="124.704" x2="163.666" y2="122.071"/>
	<line style="fill:none;stroke:#000000;stroke-miterlimit:1;" x1="163.666" y1="122.071" x2="167.287" y2="119.438"/>
	<line style="fill:none;stroke:#000000;stroke-miterlimit:1;" x1="167.287" y1="119.438" x2="170.249" y2="117.463"/>
	<line style="fill:none;stroke:#000000;stroke-miterlimit:1;" x1="170.249" y1="117.463" x2="174.528" y2="115.488"/>
	<line style="fill:none;stroke:#000000;stroke-miterlimit:1;" x1="174.528" y1="115.488" x2="178.807" y2="114.172"/>
	<line style="fill:none;stroke:#000000;stroke-miterlimit:1;" x1="178.807" y1="114.172" x2="181.77" y2="113.514"/>
	<line style="fill:none;stroke:#000000;stroke-miterlimit:1;" x1="181.77" y1="113.514" x2="187.035" y2="112.854"/>
	<line style="fill:none;stroke:#000000;stroke-miterlimit:1;" x1="187.035" y1="112.854" x2="190.984" y2="112.854"/>
	<line style="fill:none;stroke:#000000;stroke-miterlimit:1;" x1="190.984" y1="112.854" x2="194.605" y2="113.514"/>
	<line style="fill:none;stroke:#000000;stroke-miterlimit:1;" x1="194.605" y1="113.514" x2="198.555" y2="114.172"/>
	<line style="fill:none;stroke:#000000;stroke-miterlimit:1;" x1="198.555" y1="114.172" x2="202.834" y2="115.159"/>
	<line style="fill:none;stroke:#000000;stroke-miterlimit:1;" x1="202.834" y1="115.159" x2="205.797" y2="116.146"/>
	<line style="fill:none;stroke:#000000;stroke-miterlimit:1;" x1="205.797" y1="116.146" x2="209.746" y2="118.779"/>
	<line style="fill:none;stroke:#000000;stroke-miterlimit:1;" x1="209.746" y1="118.779" x2="213.037" y2="121.083"/>
	<line style="fill:none;stroke:#000000;stroke-miterlimit:1;" x1="213.037" y1="121.083" x2="216" y2="123.388"/>
	<line style="fill:none;stroke:#000000;stroke-miterlimit:1;" x1="216" y1="123.388" x2="218.633" y2="126.679"/>
	<line style="fill:none;stroke:#000000;stroke-miterlimit:1;" x1="218.633" y1="126.679" x2="221.266" y2="130.3"/>
	<line style="fill:none;stroke:#000000;stroke-miterlimit:1;" x1="221.266" y1="130.3" x2="223.57" y2="133.92"/>
	<line style="fill:none;stroke:#000000;stroke-miterlimit:1;" x1="223.57" y1="133.92" x2="225.217" y2="137.212"/>
	<line style="fill:none;stroke:#000000;stroke-miterlimit:1;" x1="225.217" y1="137.212" x2="226.533" y2="142.148"/>
	<line style="fill:none;stroke:#000000;stroke-miterlimit:1;" x1="226.533" y1="142.148" x2="227.52" y2="145.77"/>
	<line style="fill:none;stroke:#000000;stroke-miterlimit:1;" x1="227.52" y1="145.77" x2="227.85" y2="149.719"/>
	<line style="fill:none;stroke:#000000;stroke-miterlimit:1;" x1="269.773" y1="11.191" x2="268.457" y2="7.899"/>
	<line style="fill:none;stroke:#000000;stroke-miterlimit:1;" x1="268.457" y1="7.899" x2="265.824" y2="2.633"/>
	<line style="fill:none;stroke:#000000;stroke-miterlimit:1;" x1="265.824" y1="2.633" x2="264.178" y2="0"/>
	<line style="fill:none;stroke:#000000;stroke-miterlimit:1;" x1="264.178" y1="0" x2="308.613" y2="0"/>
	<line style="fill:none;stroke:#000000;stroke-miterlimit:1;" x1="308.613" y1="0" x2="305.979" y2="4.608"/>
	<line style="fill:none;stroke:#000000;stroke-miterlimit:1;" x1="305.979" y1="4.608" x2="304.004" y2="9.216"/>
	<line style="fill:none;stroke:#000000;stroke-miterlimit:1;" x1="304.004" y1="9.216" x2="303.346" y2="11.191"/>
	<line style="fill:none;stroke:#000000;stroke-miterlimit:1;" x1="264.508" y1="24.027" x2="254.305" y2="18.432"/>
	<line style="fill:none;stroke:#000000;stroke-miterlimit:1;" x1="254.305" y1="18.432" x2="252" y2="26.332"/>
	<line style="fill:none;stroke:#000000;stroke-miterlimit:1;" x1="252" y1="26.332" x2="257.266" y2="30.281"/>
	<line style="fill:none;stroke:#000000;stroke-miterlimit:1;" x1="257.266" y1="30.281" x2="260.887" y2="32.915"/>
	<line style="fill:none;stroke:#000000;stroke-miterlimit:1;" x1="260.887" y1="32.915" x2="265.824" y2="38.181"/>
	<line style="fill:none;stroke:#000000;stroke-miterlimit:1;" x1="308.613" y1="24.027" x2="318.486" y2="18.432"/>
	<line style="fill:none;stroke:#000000;stroke-miterlimit:1;" x1="318.486" y1="18.432" x2="321.119" y2="26.661"/>
	<line style="fill:none;stroke:#000000;stroke-miterlimit:1;" x1="321.119" y1="26.661" x2="316.512" y2="29.294"/>
	<line style="fill:none;stroke:#000000;stroke-miterlimit:1;" x1="316.512" y1="29.294" x2="311.246" y2="34.231"/>
	<line style="fill:none;stroke:#000000;stroke-miterlimit:1;" x1="311.246" y1="34.231" x2="307.625" y2="38.181"/>
	<line style="fill:none;stroke:#000000;stroke-miterlimit:1;" x1="271.748" y1="34.231" x2="272.406" y2="32.256"/>
	<line style="fill:none;stroke:#000000;stroke-miterlimit:1;" x1="272.406" y1="32.256" x2="273.723" y2="29.952"/>
	<line style="fill:none;stroke:#000000;stroke-miterlimit:1;" x1="273.723" y1="29.952" x2="275.697" y2="27.648"/>
	<line style="fill:none;stroke:#000000;stroke-miterlimit:1;" x1="275.697" y1="27.648" x2="278.332" y2="25.344"/>
	<line style="fill:none;stroke:#000000;stroke-miterlimit:1;" x1="278.332" y1="25.344" x2="282.939" y2="23.698"/>
	<line style="fill:none;stroke:#000000;stroke-miterlimit:1;" x1="282.939" y1="23.698" x2="285.902" y2="23.369"/>
	<line style="fill:none;stroke:#000000;stroke-miterlimit:1;" x1="285.902" y1="23.369" x2="289.521" y2="23.698"/>
	<line style="fill:none;stroke:#000000;stroke-miterlimit:1;" x1="289.521" y1="23.698" x2="293.473" y2="25.015"/>
	<line style="fill:none;stroke:#000000;stroke-miterlimit:1;" x1="293.473" y1="25.015" x2="296.764" y2="26.99"/>
	<line style="fill:none;stroke:#000000;stroke-miterlimit:1;" x1="296.764" y1="26.99" x2="298.408" y2="29.294"/>
	<line style="fill:none;stroke:#000000;stroke-miterlimit:1;" x1="298.408" y1="29.294" x2="300.055" y2="31.269"/>
	<line style="fill:none;stroke:#000000;stroke-miterlimit:1;" x1="300.055" y1="31.269" x2="301.371" y2="34.889"/>
	<line style="fill:none;stroke:#000000;stroke-miterlimit:1;" x1="301.371" y1="34.889" x2="296.105" y2="31.598"/>
	<line style="fill:none;stroke:#000000;stroke-miterlimit:1;" x1="296.105" y1="31.598" x2="292.156" y2="30.281"/>
	<line style="fill:none;stroke:#000000;stroke-miterlimit:1;" x1="292.156" y1="30.281" x2="288.863" y2="29.294"/>
	<line style="fill:none;stroke:#000000;stroke-miterlimit:1;" x1="288.863" y1="29.294" x2="286.23" y2="28.965"/>
	<line style="fill:none;stroke:#000000;stroke-miterlimit:1;" x1="286.23" y1="28.965" x2="282.939" y2="29.623"/>
	<line style="fill:none;stroke:#000000;stroke-miterlimit:1;" x1="282.939" y1="29.623" x2="279.648" y2="30.281"/>
	<line style="fill:none;stroke:#000000;stroke-miterlimit:1;" x1="279.648" y1="30.281" x2="275.697" y2="32.256"/>
	<line style="fill:none;stroke:#000000;stroke-miterlimit:1;" x1="275.697" y1="32.256" x2="273.064" y2="34.231"/>
	<line style="fill:none;stroke:#000000;stroke-miterlimit:1;" x1="273.064" y1="34.231" x2="271.748" y2="34.889"/>
	<line style="fill:none;stroke:#000000;stroke-miterlimit:1;" x1="273.723" y1="69.449" x2="278.99" y2="48.055"/>
	<line style="fill:none;stroke:#000000;stroke-miterlimit:1;" x1="278.99" y1="48.055" x2="281.293" y2="45.093"/>
	<line style="fill:none;stroke:#000000;stroke-miterlimit:1;" x1="281.293" y1="45.093" x2="283.598" y2="44.105"/>
	<line style="fill:none;stroke:#000000;stroke-miterlimit:1;" x1="283.598" y1="44.105" x2="286.23" y2="43.447"/>
	<line style="fill:none;stroke:#000000;stroke-miterlimit:1;" x1="286.23" y1="43.447" x2="289.852" y2="44.105"/>
	<line style="fill:none;stroke:#000000;stroke-miterlimit:1;" x1="289.852" y1="44.105" x2="292.484" y2="46.08"/>
	<line style="fill:none;stroke:#000000;stroke-miterlimit:1;" x1="292.484" y1="46.08" x2="293.801" y2="48.384"/>
	<line style="fill:none;stroke:#000000;stroke-miterlimit:1;" x1="293.801" y1="48.384" x2="299.396" y2="69.778"/>
	<line style="fill:none;stroke:#000000;stroke-miterlimit:1;" x1="286.889" y1="74.057" x2="281.951" y2="73.728"/>
	<line style="fill:none;stroke:#000000;stroke-miterlimit:1;" x1="281.951" y1="73.728" x2="279.648" y2="73.07"/>
	<line style="fill:none;stroke:#000000;stroke-miterlimit:1;" x1="279.648" y1="73.07" x2="277.674" y2="72.741"/>
	<line style="fill:none;stroke:#000000;stroke-miterlimit:1;" x1="277.674" y1="72.741" x2="274.381" y2="71.095"/>
	<line style="fill:none;stroke:#000000;stroke-miterlimit:1;" x1="274.381" y1="71.095" x2="272.078" y2="68.133"/>
	<line style="fill:none;stroke:#000000;stroke-miterlimit:1;" x1="272.078" y1="68.133" x2="270.104" y2="65.17"/>
	<line style="fill:none;stroke:#000000;stroke-miterlimit:1;" x1="270.104" y1="65.17" x2="268.787" y2="61.879"/>
	<line style="fill:none;stroke:#000000;stroke-miterlimit:1;" x1="268.787" y1="61.879" x2="267.799" y2="57.929"/>
	<line style="fill:none;stroke:#000000;stroke-miterlimit:1;" x1="267.799" y1="57.929" x2="266.482" y2="52.663"/>
	<line style="fill:none;stroke:#000000;stroke-miterlimit:1;" x1="266.482" y1="52.663" x2="264.508" y2="25.015"/>
	<line style="fill:none;stroke:#000000;stroke-miterlimit:1;" x1="264.508" y1="25.015" x2="264.836" y2="20.078"/>
	<line style="fill:none;stroke:#000000;stroke-miterlimit:1;" x1="264.836" y1="20.078" x2="265.494" y2="17.774"/>
	<line style="fill:none;stroke:#000000;stroke-miterlimit:1;" x1="265.494" y1="17.774" x2="265.824" y2="15.799"/>
	<line style="fill:none;stroke:#000000;stroke-miterlimit:1;" x1="265.824" y1="15.799" x2="267.469" y2="13.166"/>
	<line style="fill:none;stroke:#000000;stroke-miterlimit:1;" x1="267.469" y1="13.166" x2="269.445" y2="11.191"/>
	<line style="fill:none;stroke:#000000;stroke-miterlimit:1;" x1="269.445" y1="11.191" x2="272.736" y2="9.216"/>
	<line style="fill:none;stroke:#000000;stroke-miterlimit:1;" x1="272.736" y1="9.216" x2="275.697" y2="8.229"/>
	<line style="fill:none;stroke:#000000;stroke-miterlimit:1;" x1="275.697" y1="8.229" x2="278.332" y2="7.899"/>
	<line style="fill:none;stroke:#000000;stroke-miterlimit:1;" x1="278.332" y1="7.899" x2="286.23" y2="7.241"/>
	<line style="fill:none;stroke:#000000;stroke-miterlimit:1;" x1="286.23" y1="7.241" x2="295.447" y2="7.899"/>
	<line style="fill:none;stroke:#000000;stroke-miterlimit:1;" x1="295.447" y1="7.899" x2="299.396" y2="8.558"/>
	<line style="fill:none;stroke:#000000;stroke-miterlimit:1;" x1="299.396" y1="8.558" x2="302.688" y2="10.533"/>
	<line style="fill:none;stroke:#000000;stroke-miterlimit:1;" x1="302.688" y1="10.533" x2="304.662" y2="11.849"/>
	<line style="fill:none;stroke:#000000;stroke-miterlimit:1;" x1="304.662" y1="11.849" x2="306.309" y2="14.482"/>
	<line style="fill:none;stroke:#000000;stroke-miterlimit:1;" x1="306.309" y1="14.482" x2="307.955" y2="19.749"/>
	<line style="fill:none;stroke:#000000;stroke-miterlimit:1;" x1="307.955" y1="19.749" x2="308.283" y2="24.027"/>
	<line style="fill:none;stroke:#000000;stroke-miterlimit:1;" x1="308.283" y1="24.027" x2="306.637" y2="48.055"/>
	<line style="fill:none;stroke:#000000;stroke-miterlimit:1;" x1="306.637" y1="48.055" x2="305.979" y2="54.638"/>
	<line style="fill:none;stroke:#000000;stroke-miterlimit:1;" x1="305.979" y1="54.638" x2="304.004" y2="61.879"/>
	<line style="fill:none;stroke:#000000;stroke-miterlimit:1;" x1="304.004" y1="61.879" x2="302.688" y2="65.17"/>
	<line style="fill:none;stroke:#000000;stroke-miterlimit:1;" x1="302.688" y1="65.17" x2="300.713" y2="68.462"/>
	<line style="fill:none;stroke:#000000;stroke-miterlimit:1;" x1="300.713" y1="68.462" x2="299.396" y2="70.107"/>
	<line style="fill:none;stroke:#000000;stroke-miterlimit:1;" x1="299.396" y1="70.107" x2="297.422" y2="71.753"/>
	<line style="fill:none;stroke:#000000;stroke-miterlimit:1;" x1="297.422" y1="71.753" x2="295.117" y2="73.07"/>
	<line style="fill:none;stroke:#000000;stroke-miterlimit:1;" x1="295.117" y1="73.07" x2="292.156" y2="73.728"/>
	<line style="fill:none;stroke:#000000;stroke-miterlimit:1;" x1="292.156" y1="73.728" x2="286.889" y2="74.057"/>
	<line style="fill:none;stroke:#000000;stroke-miterlimit:1;" x1="346.629" y1="0.041" x2="346.629" y2="59.287"/>
	<line style="fill:none;stroke:#000000;stroke-miterlimit:1;" x1="346.629" y1="59.287" x2="359.795" y2="59.287"/>
	<line style="fill:none;stroke:#000000;stroke-miterlimit:1;" x1="359.795" y1="59.287" x2="359.795" y2="0.041"/>
	<line style="fill:none;stroke:#000000;stroke-miterlimit:1;" x1="359.795" y1="0.041" x2="346.629" y2="0.041"/>
	<line style="fill:none;stroke:#000000;stroke-miterlimit:1;" x1="313.838" y1="95.41" x2="310.547" y2="95.41"/>
	<line style="fill:none;stroke:#000000;stroke-miterlimit:1;" x1="310.547" y1="95.41" x2="305.609" y2="96.397"/>
	<line style="fill:none;stroke:#000000;stroke-miterlimit:1;" x1="305.609" y1="96.397" x2="301.002" y2="97.385"/>
	<line style="fill:none;stroke:#000000;stroke-miterlimit:1;" x1="301.002" y1="97.385" x2="298.039" y2="98.702"/>
	<line style="fill:none;stroke:#000000;stroke-miterlimit:1;" x1="298.039" y1="98.702" x2="295.076" y2="100.677"/>
	<line style="fill:none;stroke:#000000;stroke-miterlimit:1;" x1="295.076" y1="100.677" x2="292.113" y2="102.651"/>
	<line style="fill:none;stroke:#000000;stroke-miterlimit:1;" x1="292.113" y1="102.651" x2="289.152" y2="105.943"/>
	<line style="fill:none;stroke:#000000;stroke-miterlimit:1;" x1="289.152" y1="105.943" x2="286.848" y2="109.563"/>
	<line style="fill:none;stroke:#000000;stroke-miterlimit:1;" x1="286.848" y1="109.563" x2="285.203" y2="113.514"/>
	<line style="fill:none;stroke:#000000;stroke-miterlimit:1;" x1="285.203" y1="113.514" x2="284.215" y2="118.45"/>
	<line style="fill:none;stroke:#000000;stroke-miterlimit:1;" x1="284.215" y1="118.45" x2="283.885" y2="123.717"/>
	<line style="fill:none;stroke:#000000;stroke-miterlimit:1;" x1="283.885" y1="123.717" x2="284.215" y2="127.337"/>
	<line style="fill:none;stroke:#000000;stroke-miterlimit:1;" x1="284.215" y1="127.337" x2="285.531" y2="131.945"/>
	<line style="fill:none;stroke:#000000;stroke-miterlimit:1;" x1="285.531" y1="131.945" x2="287.506" y2="136.554"/>
	<line style="fill:none;stroke:#000000;stroke-miterlimit:1;" x1="287.506" y1="136.554" x2="290.139" y2="140.832"/>
	<line style="fill:none;stroke:#000000;stroke-miterlimit:1;" x1="290.139" y1="140.832" x2="293.76" y2="144.123"/>
	<line style="fill:none;stroke:#000000;stroke-miterlimit:1;" x1="293.76" y1="144.123" x2="296.723" y2="145.77"/>
	<line style="fill:none;stroke:#000000;stroke-miterlimit:1;" x1="296.723" y1="145.77" x2="300.014" y2="147.415"/>
	<line style="fill:none;stroke:#000000;stroke-miterlimit:1;" x1="300.014" y1="147.415" x2="302.977" y2="148.402"/>
	<line style="fill:none;stroke:#000000;stroke-miterlimit:1;" x1="302.977" y1="148.402" x2="306.268" y2="148.731"/>
	<line style="fill:none;stroke:#000000;stroke-miterlimit:1;" x1="306.268" y1="148.731" x2="313.508" y2="149.39"/>
	<line style="fill:none;stroke:#000000;stroke-miterlimit:1;" x1="313.508" y1="149.39" x2="318.117" y2="149.061"/>
	<line style="fill:none;stroke:#000000;stroke-miterlimit:1;" x1="318.117" y1="149.061" x2="322.725" y2="148.402"/>
	<line style="fill:none;stroke:#000000;stroke-miterlimit:1;" x1="322.725" y1="148.402" x2="326.674" y2="147.415"/>
	<line style="fill:none;stroke:#000000;stroke-miterlimit:1;" x1="326.674" y1="147.415" x2="329.307" y2="146.428"/>
	<line style="fill:none;stroke:#000000;stroke-miterlimit:1;" x1="329.307" y1="146.428" x2="331.611" y2="144.782"/>
	<line style="fill:none;stroke:#000000;stroke-miterlimit:1;" x1="331.611" y1="144.782" x2="333.586" y2="143.465"/>
	<line style="fill:none;stroke:#000000;stroke-miterlimit:1;" x1="333.586" y1="143.465" x2="335.891" y2="141.49"/>
	<line style="fill:none;stroke:#000000;stroke-miterlimit:1;" x1="335.891" y1="141.49" x2="337.865" y2="138.857"/>
	<line style="fill:none;stroke:#000000;stroke-miterlimit:1;" x1="337.865" y1="138.857" x2="339.84" y2="135.895"/>
	<line style="fill:none;stroke:#000000;stroke-miterlimit:1;" x1="339.84" y1="135.895" x2="340.498" y2="133.92"/>
	<line style="fill:none;stroke:#000000;stroke-miterlimit:1;" x1="340.498" y1="133.92" x2="341.486" y2="131.945"/>
	<line style="fill:none;stroke:#000000;stroke-miterlimit:1;" x1="341.486" y1="131.945" x2="342.145" y2="129.642"/>
	<line style="fill:none;stroke:#000000;stroke-miterlimit:1;" x1="342.145" y1="129.642" x2="342.473" y2="127.008"/>
	<line style="fill:none;stroke:#000000;stroke-miterlimit:1;" x1="342.473" y1="127.008" x2="343.131" y2="123.059"/>
	<line style="fill:none;stroke:#000000;stroke-miterlimit:1;" x1="343.131" y1="123.059" x2="342.803" y2="120.096"/>
	<line style="fill:none;stroke:#000000;stroke-miterlimit:1;" x1="342.803" y1="120.096" x2="342.473" y2="116.805"/>
	<line style="fill:none;stroke:#000000;stroke-miterlimit:1;" x1="342.473" y1="116.805" x2="341.156" y2="112.854"/>
	<line style="fill:none;stroke:#000000;stroke-miterlimit:1;" x1="341.156" y1="112.854" x2="339.51" y2="108.576"/>
	<line style="fill:none;stroke:#000000;stroke-miterlimit:1;" x1="339.51" y1="108.576" x2="337.207" y2="105.943"/>
	<line style="fill:none;stroke:#000000;stroke-miterlimit:1;" x1="337.207" y1="105.943" x2="333.916" y2="102.651"/>
	<line style="fill:none;stroke:#000000;stroke-miterlimit:1;" x1="333.916" y1="102.651" x2="331.281" y2="100.677"/>
	<line style="fill:none;stroke:#000000;stroke-miterlimit:1;" x1="331.281" y1="100.677" x2="328.648" y2="98.702"/>
	<line style="fill:none;stroke:#000000;stroke-miterlimit:1;" x1="328.648" y1="98.702" x2="323.383" y2="96.727"/>
	<line style="fill:none;stroke:#000000;stroke-miterlimit:1;" x1="323.383" y1="96.727" x2="318.775" y2="95.739"/>
	<line style="fill:none;stroke:#000000;stroke-miterlimit:1;" x1="318.775" y1="95.739" x2="314.166" y2="95.41"/>
	<line style="fill:none;stroke:#000000;stroke-miterlimit:1;" x1="299.684" y1="98.044" x2="297.051" y2="98.044"/>
	<line style="fill:none;stroke:#000000;stroke-miterlimit:1;" x1="297.051" y1="98.044" x2="296.064" y2="97.056"/>
	<line style="fill:none;stroke:#000000;stroke-miterlimit:1;" x1="296.064" y1="97.056" x2="295.406" y2="96.068"/>
	<line style="fill:none;stroke:#000000;stroke-miterlimit:1;" x1="295.406" y1="96.068" x2="295.076" y2="94.094"/>
	<line style="fill:none;stroke:#000000;stroke-miterlimit:1;" x1="295.076" y1="94.094" x2="295.406" y2="92.119"/>
	<line style="fill:none;stroke:#000000;stroke-miterlimit:1;" x1="295.406" y1="92.119" x2="296.393" y2="90.803"/>
	<line style="fill:none;stroke:#000000;stroke-miterlimit:1;" x1="296.393" y1="90.803" x2="298.039" y2="90.145"/>
	<line style="fill:none;stroke:#000000;stroke-miterlimit:1;" x1="298.039" y1="90.145" x2="328.979" y2="90.145"/>
	<line style="fill:none;stroke:#000000;stroke-miterlimit:1;" x1="328.979" y1="90.145" x2="330.295" y2="90.803"/>
	<line style="fill:none;stroke:#000000;stroke-miterlimit:1;" x1="330.295" y1="90.803" x2="331.281" y2="92.119"/>
	<line style="fill:none;stroke:#000000;stroke-miterlimit:1;" x1="331.281" y1="92.119" x2="331.611" y2="93.765"/>
	<line style="fill:none;stroke:#000000;stroke-miterlimit:1;" x1="331.611" y1="93.765" x2="331.611" y2="94.752"/>
	<line style="fill:none;stroke:#000000;stroke-miterlimit:1;" x1="331.611" y1="94.752" x2="331.281" y2="96.068"/>
	<line style="fill:none;stroke:#000000;stroke-miterlimit:1;" x1="331.281" y1="96.068" x2="330.623" y2="97.056"/>
	<line style="fill:none;stroke:#000000;stroke-miterlimit:1;" x1="330.623" y1="97.056" x2="329.307" y2="98.044"/>
	<line style="fill:none;stroke:#000000;stroke-miterlimit:1;" x1="329.307" y1="98.044" x2="326.674" y2="98.044"/>
</g>
</svg>
