<?xml version="1.0" encoding="iso-8859-1"?>
<!-- Generator: Adobe Illustrator 16.0.1, SVG Export Plug-In . SVG Version: 6.00 Build 0)  -->
<!DOCTYPE svg PUBLIC "-//W3C//DTD SVG 1.1//EN" "http://www.w3.org/Graphics/SVG/1.1/DTD/svg11.dtd">
<svg version="1.1" id="Ebene_1" xmlns="http://www.w3.org/2000/svg" xmlns:xlink="http://www.w3.org/1999/xlink" x="0px" y="0px"
	 width="200.777px" height="148.114px" viewBox="0 0 200.777 148.114" style="enable-background:new 0 0 200.777 148.114;"
	 xml:space="preserve">
<g>
	<line style="fill:none;stroke:#000000;stroke-miterlimit:1;" x1="26.416" y1="41.199" x2="86.343" y2="41.199"/>
	<line style="fill:none;stroke:#000000;stroke-miterlimit:1;" x1="86.343" y1="41.199" x2="86.343" y2="43.565"/>
	<line style="fill:none;stroke:#000000;stroke-miterlimit:1;" x1="86.343" y1="43.565" x2="88.708" y2="43.959"/>
	<line style="fill:none;stroke:#000000;stroke-miterlimit:1;" x1="88.708" y1="43.959" x2="92.454" y2="45.142"/>
	<line style="fill:none;stroke:#000000;stroke-miterlimit:1;" x1="92.454" y1="45.142" x2="95.016" y2="46.719"/>
	<line style="fill:none;stroke:#000000;stroke-miterlimit:1;" x1="95.016" y1="46.719" x2="98.367" y2="49.084"/>
	<line style="fill:none;stroke:#000000;stroke-miterlimit:1;" x1="98.367" y1="49.084" x2="101.324" y2="52.238"/>
	<line style="fill:none;stroke:#000000;stroke-miterlimit:1;" x1="101.324" y1="52.238" x2="104.084" y2="55.984"/>
	<line style="fill:none;stroke:#000000;stroke-miterlimit:1;" x1="104.084" y1="55.984" x2="106.055" y2="59.729"/>
	<line style="fill:none;stroke:#000000;stroke-miterlimit:1;" x1="106.055" y1="59.729" x2="107.83" y2="64.46"/>
	<line style="fill:none;stroke:#000000;stroke-miterlimit:1;" x1="107.83" y1="64.46" x2="109.012" y2="69.191"/>
	<line style="fill:none;stroke:#000000;stroke-miterlimit:1;" x1="109.012" y1="69.191" x2="109.604" y2="77.076"/>
	<line style="fill:none;stroke:#000000;stroke-miterlimit:1;" x1="109.604" y1="77.076" x2="109.012" y2="81.216"/>
	<line style="fill:none;stroke:#000000;stroke-miterlimit:1;" x1="109.012" y1="81.216" x2="107.238" y2="85.947"/>
	<line style="fill:none;stroke:#000000;stroke-miterlimit:1;" x1="107.238" y1="85.947" x2="105.07" y2="88.115"/>
	<line style="fill:none;stroke:#000000;stroke-miterlimit:1;" x1="105.07" y1="88.115" x2="103.295" y2="88.51"/>
	<line style="fill:none;stroke:#000000;stroke-miterlimit:1;" x1="103.295" y1="88.51" x2="100.536" y2="88.312"/>
	<line style="fill:none;stroke:#000000;stroke-miterlimit:1;" x1="100.536" y1="88.312" x2="98.367" y2="86.538"/>
	<line style="fill:none;stroke:#000000;stroke-miterlimit:1;" x1="98.367" y1="86.538" x2="97.382" y2="84.37"/>
	<line style="fill:none;stroke:#000000;stroke-miterlimit:1;" x1="97.382" y1="84.37" x2="96.987" y2="82.005"/>
	<line style="fill:none;stroke:#000000;stroke-miterlimit:1;" x1="96.987" y1="82.005" x2="96.791" y2="80.23"/>
	<line style="fill:none;stroke:#000000;stroke-miterlimit:1;" x1="96.791" y1="80.23" x2="97.382" y2="74.119"/>
	<line style="fill:none;stroke:#000000;stroke-miterlimit:1;" x1="97.382" y1="74.119" x2="98.17" y2="67.417"/>
	<line style="fill:none;stroke:#000000;stroke-miterlimit:1;" x1="98.17" y1="67.417" x2="97.579" y2="60.518"/>
	<line style="fill:none;stroke:#000000;stroke-miterlimit:1;" x1="97.579" y1="60.518" x2="95.805" y2="55.589"/>
	<line style="fill:none;stroke:#000000;stroke-miterlimit:1;" x1="95.805" y1="55.589" x2="93.242" y2="51.647"/>
	<line style="fill:none;stroke:#000000;stroke-miterlimit:1;" x1="93.242" y1="51.647" x2="90.679" y2="48.69"/>
	<line style="fill:none;stroke:#000000;stroke-miterlimit:1;" x1="90.679" y1="48.69" x2="87.723" y2="47.507"/>
	<line style="fill:none;stroke:#000000;stroke-miterlimit:1;" x1="87.723" y1="47.507" x2="86.343" y2="47.507"/>
	<line style="fill:none;stroke:#000000;stroke-miterlimit:1;" x1="86.343" y1="47.507" x2="86.343" y2="49.676"/>
	<line style="fill:none;stroke:#000000;stroke-miterlimit:1;" x1="86.343" y1="49.676" x2="78.458" y2="49.676"/>
	<line style="fill:none;stroke:#000000;stroke-miterlimit:1;" x1="78.458" y1="49.676" x2="78.458" y2="53.815"/>
	<line style="fill:none;stroke:#000000;stroke-miterlimit:1;" x1="78.458" y1="53.815" x2="66.827" y2="53.815"/>
	<line style="fill:none;stroke:#000000;stroke-miterlimit:1;" x1="66.827" y1="53.815" x2="66.827" y2="49.676"/>
	<line style="fill:none;stroke:#000000;stroke-miterlimit:1;" x1="66.827" y1="49.676" x2="45.538" y2="49.676"/>
	<line style="fill:none;stroke:#000000;stroke-miterlimit:1;" x1="45.538" y1="49.676" x2="45.538" y2="53.815"/>
	<line style="fill:none;stroke:#000000;stroke-miterlimit:1;" x1="45.538" y1="53.815" x2="34.301" y2="53.815"/>
	<line style="fill:none;stroke:#000000;stroke-miterlimit:1;" x1="34.301" y1="53.815" x2="34.301" y2="49.676"/>
	<line style="fill:none;stroke:#000000;stroke-miterlimit:1;" x1="34.301" y1="49.676" x2="26.416" y2="49.676"/>
	<line style="fill:none;stroke:#000000;stroke-miterlimit:1;" x1="29.964" y1="41.199" x2="37.652" y2="3.548"/>
	<line style="fill:none;stroke:#000000;stroke-miterlimit:1;" x1="37.652" y1="3.548" x2="39.032" y2="1.183"/>
	<line style="fill:none;stroke:#000000;stroke-miterlimit:1;" x1="39.032" y1="1.183" x2="40.018" y2="0.394"/>
	<line style="fill:none;stroke:#000000;stroke-miterlimit:1;" x1="40.018" y1="0.394" x2="41.201" y2="0"/>
	<line style="fill:none;stroke:#000000;stroke-miterlimit:1;" x1="41.201" y1="0" x2="42.975" y2="0"/>
	<line style="fill:none;stroke:#000000;stroke-miterlimit:1;" x1="42.975" y1="0" x2="44.749" y2="0.985"/>
	<line style="fill:none;stroke:#000000;stroke-miterlimit:1;" x1="44.749" y1="0.985" x2="45.143" y2="2.168"/>
	<line style="fill:none;stroke:#000000;stroke-miterlimit:1;" x1="45.143" y1="2.168" x2="45.143" y2="3.548"/>
	<line style="fill:none;stroke:#000000;stroke-miterlimit:1;" x1="37.455" y1="41.199" x2="45.34" y2="3.351"/>
	<line style="fill:none;stroke:#000000;stroke-miterlimit:1;" x1="45.34" y1="3.351" x2="46.326" y2="1.577"/>
	<line style="fill:none;stroke:#000000;stroke-miterlimit:1;" x1="46.326" y1="1.577" x2="47.312" y2="0.591"/>
	<line style="fill:none;stroke:#000000;stroke-miterlimit:1;" x1="47.312" y1="0.591" x2="49.085" y2="0.197"/>
	<line style="fill:none;stroke:#000000;stroke-miterlimit:1;" x1="49.085" y1="0.197" x2="50.86" y2="0.788"/>
	<line style="fill:none;stroke:#000000;stroke-miterlimit:1;" x1="50.86" y1="0.788" x2="51.845" y2="1.577"/>
	<line style="fill:none;stroke:#000000;stroke-miterlimit:1;" x1="51.845" y1="1.577" x2="52.437" y2="2.76"/>
	<line style="fill:none;stroke:#000000;stroke-miterlimit:1;" x1="44.552" y1="41.199" x2="52.24" y2="3.548"/>
	<line style="fill:none;stroke:#000000;stroke-miterlimit:1;" x1="52.24" y1="3.548" x2="53.028" y2="1.774"/>
	<line style="fill:none;stroke:#000000;stroke-miterlimit:1;" x1="53.028" y1="1.774" x2="54.408" y2="0.591"/>
	<line style="fill:none;stroke:#000000;stroke-miterlimit:1;" x1="54.408" y1="0.591" x2="55.985" y2="0.394"/>
	<line style="fill:none;stroke:#000000;stroke-miterlimit:1;" x1="55.985" y1="0.394" x2="57.759" y2="0.591"/>
	<line style="fill:none;stroke:#000000;stroke-miterlimit:1;" x1="57.759" y1="0.591" x2="59.139" y2="1.774"/>
	<line style="fill:none;stroke:#000000;stroke-miterlimit:1;" x1="59.139" y1="1.774" x2="59.533" y2="3.351"/>
	<line style="fill:none;stroke:#000000;stroke-miterlimit:1;" x1="51.648" y1="41.199" x2="59.336" y2="3.942"/>
	<line style="fill:none;stroke:#000000;stroke-miterlimit:1;" x1="59.336" y1="3.942" x2="60.519" y2="1.774"/>
	<line style="fill:none;stroke:#000000;stroke-miterlimit:1;" x1="60.519" y1="1.774" x2="61.899" y2="0.591"/>
	<line style="fill:none;stroke:#000000;stroke-miterlimit:1;" x1="61.899" y1="0.591" x2="64.265" y2="0.394"/>
	<line style="fill:none;stroke:#000000;stroke-miterlimit:1;" x1="64.265" y1="0.394" x2="65.053" y2="0.591"/>
	<line style="fill:none;stroke:#000000;stroke-miterlimit:1;" x1="65.053" y1="0.591" x2="66.236" y2="1.38"/>
	<line style="fill:none;stroke:#000000;stroke-miterlimit:1;" x1="66.236" y1="1.38" x2="66.827" y2="3.351"/>
	<line style="fill:none;stroke:#000000;stroke-miterlimit:1;" x1="59.139" y1="41.199" x2="66.63" y2="4.14"/>
	<line style="fill:none;stroke:#000000;stroke-miterlimit:1;" x1="66.63" y1="4.14" x2="67.418" y2="2.168"/>
	<line style="fill:none;stroke:#000000;stroke-miterlimit:1;" x1="67.418" y1="2.168" x2="68.207" y2="0.985"/>
	<line style="fill:none;stroke:#000000;stroke-miterlimit:1;" x1="68.207" y1="0.985" x2="69.981" y2="0.197"/>
	<line style="fill:none;stroke:#000000;stroke-miterlimit:1;" x1="69.981" y1="0.197" x2="72.149" y2="0.591"/>
	<line style="fill:none;stroke:#000000;stroke-miterlimit:1;" x1="72.149" y1="0.591" x2="73.727" y2="1.577"/>
	<line style="fill:none;stroke:#000000;stroke-miterlimit:1;" x1="73.727" y1="1.577" x2="74.318" y2="2.957"/>
	<line style="fill:none;stroke:#000000;stroke-miterlimit:1;" x1="66.827" y1="41.199" x2="73.924" y2="4.336"/>
	<line style="fill:none;stroke:#000000;stroke-miterlimit:1;" x1="73.924" y1="4.336" x2="74.515" y2="2.365"/>
	<line style="fill:none;stroke:#000000;stroke-miterlimit:1;" x1="74.515" y1="2.365" x2="75.698" y2="0.788"/>
	<line style="fill:none;stroke:#000000;stroke-miterlimit:1;" x1="75.698" y1="0.788" x2="77.669" y2="0.394"/>
	<line style="fill:none;stroke:#000000;stroke-miterlimit:1;" x1="77.669" y1="0.394" x2="78.063" y2="0.197"/>
	<line style="fill:none;stroke:#000000;stroke-miterlimit:1;" x1="78.063" y1="0.197" x2="79.837" y2="0.985"/>
	<line style="fill:none;stroke:#000000;stroke-miterlimit:1;" x1="79.837" y1="0.985" x2="81.02" y2="2.168"/>
	<line style="fill:none;stroke:#000000;stroke-miterlimit:1;" x1="81.02" y1="2.168" x2="81.02" y2="3.351"/>
	<line style="fill:none;stroke:#000000;stroke-miterlimit:1;" x1="73.529" y1="41.199" x2="81.02" y2="3.154"/>
	<line style="fill:none;stroke:#000000;stroke-miterlimit:1;" x1="81.02" y1="3.154" x2="81.809" y2="1.577"/>
	<line style="fill:none;stroke:#000000;stroke-miterlimit:1;" x1="81.809" y1="1.577" x2="82.794" y2="0.591"/>
	<line style="fill:none;stroke:#000000;stroke-miterlimit:1;" x1="82.794" y1="0.591" x2="83.977" y2="0.394"/>
	<line style="fill:none;stroke:#000000;stroke-miterlimit:1;" x1="83.977" y1="0.394" x2="85.751" y2="0.394"/>
	<line style="fill:none;stroke:#000000;stroke-miterlimit:1;" x1="85.751" y1="0.394" x2="87.328" y2="0.985"/>
	<line style="fill:none;stroke:#000000;stroke-miterlimit:1;" x1="87.328" y1="0.985" x2="88.117" y2="2.168"/>
	<line style="fill:none;stroke:#000000;stroke-miterlimit:1;" x1="88.117" y1="2.168" x2="88.511" y2="4.14"/>
	<line style="fill:none;stroke:#000000;stroke-miterlimit:1;" x1="88.511" y1="4.14" x2="80.823" y2="41.199"/>
	<line style="fill:none;stroke:#000000;stroke-miterlimit:1;" x1="80.823" y1="41.199" x2="26.416" y2="41.199"/>
	<line style="fill:none;stroke:#000000;stroke-miterlimit:1;" x1="26.416" y1="41.199" x2="26.416" y2="43.762"/>
	<line style="fill:none;stroke:#000000;stroke-miterlimit:1;" x1="26.416" y1="43.762" x2="23.656" y2="44.156"/>
	<line style="fill:none;stroke:#000000;stroke-miterlimit:1;" x1="23.656" y1="44.156" x2="19.911" y2="45.339"/>
	<line style="fill:none;stroke:#000000;stroke-miterlimit:1;" x1="19.911" y1="45.339" x2="17.151" y2="46.916"/>
	<line style="fill:none;stroke:#000000;stroke-miterlimit:1;" x1="17.151" y1="46.916" x2="13.997" y2="49.479"/>
	<line style="fill:none;stroke:#000000;stroke-miterlimit:1;" x1="13.997" y1="49.479" x2="11.04" y2="52.633"/>
	<line style="fill:none;stroke:#000000;stroke-miterlimit:1;" x1="11.04" y1="52.633" x2="6.506" y2="60.32"/>
	<line style="fill:none;stroke:#000000;stroke-miterlimit:1;" x1="6.506" y1="60.32" x2="5.126" y2="64.854"/>
	<line style="fill:none;stroke:#000000;stroke-miterlimit:1;" x1="5.126" y1="64.854" x2="3.747" y2="69.585"/>
	<line style="fill:none;stroke:#000000;stroke-miterlimit:1;" x1="3.747" y1="69.585" x2="3.155" y2="77.471"/>
	<line style="fill:none;stroke:#000000;stroke-miterlimit:1;" x1="3.155" y1="77.471" x2="3.747" y2="81.61"/>
	<line style="fill:none;stroke:#000000;stroke-miterlimit:1;" x1="3.747" y1="81.61" x2="5.718" y2="86.145"/>
	<line style="fill:none;stroke:#000000;stroke-miterlimit:1;" x1="5.718" y1="86.145" x2="7.886" y2="88.312"/>
	<line style="fill:none;stroke:#000000;stroke-miterlimit:1;" x1="7.886" y1="88.312" x2="9.463" y2="88.707"/>
	<line style="fill:none;stroke:#000000;stroke-miterlimit:1;" x1="9.463" y1="88.707" x2="12.223" y2="88.51"/>
	<line style="fill:none;stroke:#000000;stroke-miterlimit:1;" x1="12.223" y1="88.51" x2="14.588" y2="86.735"/>
	<line style="fill:none;stroke:#000000;stroke-miterlimit:1;" x1="14.588" y1="86.735" x2="15.377" y2="84.567"/>
	<line style="fill:none;stroke:#000000;stroke-miterlimit:1;" x1="15.377" y1="84.567" x2="15.771" y2="82.201"/>
	<line style="fill:none;stroke:#000000;stroke-miterlimit:1;" x1="15.771" y1="82.201" x2="15.968" y2="80.428"/>
	<line style="fill:none;stroke:#000000;stroke-miterlimit:1;" x1="15.968" y1="80.428" x2="15.377" y2="74.316"/>
	<line style="fill:none;stroke:#000000;stroke-miterlimit:1;" x1="15.377" y1="74.316" x2="14.392" y2="67.614"/>
	<line style="fill:none;stroke:#000000;stroke-miterlimit:1;" x1="14.392" y1="67.614" x2="14.983" y2="60.912"/>
	<line style="fill:none;stroke:#000000;stroke-miterlimit:1;" x1="14.983" y1="60.912" x2="16.56" y2="55.984"/>
	<line style="fill:none;stroke:#000000;stroke-miterlimit:1;" x1="16.56" y1="55.984" x2="19.123" y2="51.844"/>
	<line style="fill:none;stroke:#000000;stroke-miterlimit:1;" x1="19.123" y1="51.844" x2="21.685" y2="48.887"/>
	<line style="fill:none;stroke:#000000;stroke-miterlimit:1;" x1="21.685" y1="48.887" x2="24.445" y2="47.705"/>
	<line style="fill:none;stroke:#000000;stroke-miterlimit:1;" x1="24.445" y1="47.705" x2="26.416" y2="47.507"/>
	<line style="fill:none;stroke:#000000;stroke-miterlimit:1;" x1="26.416" y1="47.507" x2="26.416" y2="49.281"/>
	<line style="fill:none;stroke:#000000;stroke-miterlimit:1;" x1="54.507" y1="68.649" x2="52.141" y2="69.832"/>
	<line style="fill:none;stroke:#000000;stroke-miterlimit:1;" x1="52.141" y1="69.832" x2="50.367" y2="72"/>
	<line style="fill:none;stroke:#000000;stroke-miterlimit:1;" x1="50.367" y1="72" x2="49.776" y2="73.774"/>
	<line style="fill:none;stroke:#000000;stroke-miterlimit:1;" x1="49.776" y1="73.774" x2="49.381" y2="75.549"/>
	<line style="fill:none;stroke:#000000;stroke-miterlimit:1;" x1="49.381" y1="75.549" x2="49.973" y2="78.309"/>
	<line style="fill:none;stroke:#000000;stroke-miterlimit:1;" x1="49.973" y1="78.309" x2="51.353" y2="80.082"/>
	<line style="fill:none;stroke:#000000;stroke-miterlimit:1;" x1="51.353" y1="80.082" x2="52.732" y2="81.266"/>
	<line style="fill:none;stroke:#000000;stroke-miterlimit:1;" x1="52.732" y1="81.266" x2="55.098" y2="82.054"/>
	<line style="fill:none;stroke:#000000;stroke-miterlimit:1;" x1="55.098" y1="82.054" x2="56.872" y2="82.646"/>
	<line style="fill:none;stroke:#000000;stroke-miterlimit:1;" x1="56.872" y1="82.646" x2="59.041" y2="82.646"/>
	<line style="fill:none;stroke:#000000;stroke-miterlimit:1;" x1="59.041" y1="82.646" x2="61.406" y2="81.659"/>
	<line style="fill:none;stroke:#000000;stroke-miterlimit:1;" x1="61.406" y1="81.659" x2="63.377" y2="80.674"/>
	<line style="fill:none;stroke:#000000;stroke-miterlimit:1;" x1="63.377" y1="80.674" x2="64.56" y2="79.294"/>
	<line style="fill:none;stroke:#000000;stroke-miterlimit:1;" x1="64.56" y1="79.294" x2="65.94" y2="77.322"/>
	<line style="fill:none;stroke:#000000;stroke-miterlimit:1;" x1="65.94" y1="77.322" x2="66.926" y2="74.957"/>
	<line style="fill:none;stroke:#000000;stroke-miterlimit:1;" x1="66.926" y1="74.957" x2="67.517" y2="72.986"/>
	<line style="fill:none;stroke:#000000;stroke-miterlimit:1;" x1="67.517" y1="72.986" x2="67.714" y2="71.015"/>
	<line style="fill:none;stroke:#000000;stroke-miterlimit:1;" x1="67.714" y1="71.015" x2="67.517" y2="69.635"/>
	<line style="fill:none;stroke:#000000;stroke-miterlimit:1;" x1="67.517" y1="69.635" x2="67.123" y2="67.269"/>
	<line style="fill:none;stroke:#000000;stroke-miterlimit:1;" x1="67.123" y1="67.269" x2="66.137" y2="65.298"/>
	<line style="fill:none;stroke:#000000;stroke-miterlimit:1;" x1="66.137" y1="65.298" x2="64.56" y2="63.327"/>
	<line style="fill:none;stroke:#000000;stroke-miterlimit:1;" x1="64.56" y1="63.327" x2="62.983" y2="61.947"/>
	<line style="fill:none;stroke:#000000;stroke-miterlimit:1;" x1="62.983" y1="61.947" x2="61.603" y2="61.355"/>
	<line style="fill:none;stroke:#000000;stroke-miterlimit:1;" x1="61.603" y1="61.355" x2="60.223" y2="60.764"/>
	<line style="fill:none;stroke:#000000;stroke-miterlimit:1;" x1="60.223" y1="60.764" x2="58.252" y2="60.567"/>
	<line style="fill:none;stroke:#000000;stroke-miterlimit:1;" x1="58.252" y1="60.567" x2="56.675" y2="60.37"/>
	<line style="fill:none;stroke:#000000;stroke-miterlimit:1;" x1="56.675" y1="60.37" x2="54.704" y2="60.37"/>
	<line style="fill:none;stroke:#000000;stroke-miterlimit:1;" x1="54.704" y1="60.37" x2="52.338" y2="60.567"/>
	<line style="fill:none;stroke:#000000;stroke-miterlimit:1;" x1="52.338" y1="60.567" x2="49.776" y2="61.355"/>
	<line style="fill:none;stroke:#000000;stroke-miterlimit:1;" x1="49.776" y1="61.355" x2="47.607" y2="62.538"/>
	<line style="fill:none;stroke:#000000;stroke-miterlimit:1;" x1="47.607" y1="62.538" x2="46.228" y2="63.721"/>
	<line style="fill:none;stroke:#000000;stroke-miterlimit:1;" x1="46.228" y1="63.721" x2="44.65" y2="65.101"/>
	<line style="fill:none;stroke:#000000;stroke-miterlimit:1;" x1="44.65" y1="65.101" x2="43.468" y2="66.481"/>
	<line style="fill:none;stroke:#000000;stroke-miterlimit:1;" x1="43.468" y1="66.481" x2="42.285" y2="68.649"/>
	<line style="fill:none;stroke:#000000;stroke-miterlimit:1;" x1="42.285" y1="68.649" x2="41.102" y2="70.817"/>
	<line style="fill:none;stroke:#000000;stroke-miterlimit:1;" x1="41.102" y1="70.817" x2="40.708" y2="72.789"/>
	<line style="fill:none;stroke:#000000;stroke-miterlimit:1;" x1="40.708" y1="72.789" x2="40.313" y2="75.549"/>
	<line style="fill:none;stroke:#000000;stroke-miterlimit:1;" x1="40.313" y1="75.549" x2="40.116" y2="78.309"/>
	<line style="fill:none;stroke:#000000;stroke-miterlimit:1;" x1="40.116" y1="78.309" x2="40.313" y2="80.477"/>
	<line style="fill:none;stroke:#000000;stroke-miterlimit:1;" x1="40.313" y1="80.477" x2="40.511" y2="83.631"/>
	<line style="fill:none;stroke:#000000;stroke-miterlimit:1;" x1="40.511" y1="83.631" x2="41.693" y2="86.785"/>
	<line style="fill:none;stroke:#000000;stroke-miterlimit:1;" x1="41.693" y1="86.785" x2="43.468" y2="90.333"/>
	<line style="fill:none;stroke:#000000;stroke-miterlimit:1;" x1="43.468" y1="90.333" x2="46.622" y2="94.473"/>
	<line style="fill:none;stroke:#000000;stroke-miterlimit:1;" x1="46.622" y1="94.473" x2="51.55" y2="99.204"/>
	<line style="fill:none;stroke:#000000;stroke-miterlimit:1;" x1="51.55" y1="99.204" x2="58.646" y2="104.921"/>
	<line style="fill:none;stroke:#000000;stroke-miterlimit:1;" x1="58.646" y1="104.921" x2="74.022" y2="113.594"/>
	<line style="fill:none;stroke:#000000;stroke-miterlimit:1;" x1="0" y1="148.114" x2="0" y2="131.453"/>
	<line style="fill:none;stroke:#000000;stroke-miterlimit:1;" x1="0" y1="131.453" x2="113.09" y2="131.453"/>
	<line style="fill:none;stroke:#000000;stroke-miterlimit:1;" x1="113.09" y1="131.453" x2="113.09" y2="148.114"/>
	<line style="fill:none;stroke:#000000;stroke-miterlimit:1;" x1="113.09" y1="148.114" x2="0" y2="148.114"/>
	<line style="fill:none;stroke:#000000;stroke-miterlimit:1;" x1="33.826" y1="118.832" x2="46.952" y2="131.453"/>
	<line style="fill:none;stroke:#000000;stroke-miterlimit:1;" x1="79.263" y1="118.832" x2="66.137" y2="131.453"/>
	<line style="fill:none;stroke:#000000;stroke-miterlimit:1;" x1="46.447" y1="131.453" x2="46.952" y2="128.677"/>
	<line style="fill:none;stroke:#000000;stroke-miterlimit:1;" x1="46.952" y1="128.677" x2="47.962" y2="126.405"/>
	<line style="fill:none;stroke:#000000;stroke-miterlimit:1;" x1="47.962" y1="126.405" x2="49.729" y2="124.133"/>
	<line style="fill:none;stroke:#000000;stroke-miterlimit:1;" x1="49.729" y1="124.133" x2="50.991" y2="123.123"/>
	<line style="fill:none;stroke:#000000;stroke-miterlimit:1;" x1="50.991" y1="123.123" x2="53.01" y2="121.861"/>
	<line style="fill:none;stroke:#000000;stroke-miterlimit:1;" x1="53.01" y1="121.861" x2="55.787" y2="121.608"/>
	<line style="fill:none;stroke:#000000;stroke-miterlimit:1;" x1="55.787" y1="121.608" x2="57.807" y2="121.608"/>
	<line style="fill:none;stroke:#000000;stroke-miterlimit:1;" x1="57.807" y1="121.608" x2="59.826" y2="121.861"/>
	<line style="fill:none;stroke:#000000;stroke-miterlimit:1;" x1="59.826" y1="121.861" x2="61.593" y2="122.871"/>
	<line style="fill:none;stroke:#000000;stroke-miterlimit:1;" x1="61.593" y1="122.871" x2="63.36" y2="124.386"/>
	<line style="fill:none;stroke:#000000;stroke-miterlimit:1;" x1="63.36" y1="124.386" x2="64.622" y2="126.152"/>
	<line style="fill:none;stroke:#000000;stroke-miterlimit:1;" x1="64.622" y1="126.152" x2="65.379" y2="127.92"/>
	<line style="fill:none;stroke:#000000;stroke-miterlimit:1;" x1="65.379" y1="127.92" x2="65.884" y2="131.453"/>
	<line style="fill:none;stroke:#000000;stroke-miterlimit:1;" x1="149.43" y1="61.549" x2="148.113" y2="58.258"/>
	<line style="fill:none;stroke:#000000;stroke-miterlimit:1;" x1="148.113" y1="58.258" x2="145.48" y2="52.992"/>
	<line style="fill:none;stroke:#000000;stroke-miterlimit:1;" x1="145.48" y1="52.992" x2="143.836" y2="50.358"/>
	<line style="fill:none;stroke:#000000;stroke-miterlimit:1;" x1="143.836" y1="50.358" x2="188.27" y2="50.358"/>
	<line style="fill:none;stroke:#000000;stroke-miterlimit:1;" x1="188.27" y1="50.358" x2="185.637" y2="54.967"/>
	<line style="fill:none;stroke:#000000;stroke-miterlimit:1;" x1="185.637" y1="54.967" x2="183.662" y2="59.575"/>
	<line style="fill:none;stroke:#000000;stroke-miterlimit:1;" x1="183.662" y1="59.575" x2="183.004" y2="61.549"/>
	<line style="fill:none;stroke:#000000;stroke-miterlimit:1;" x1="144.164" y1="74.386" x2="133.961" y2="68.791"/>
	<line style="fill:none;stroke:#000000;stroke-miterlimit:1;" x1="133.961" y1="68.791" x2="131.656" y2="76.69"/>
	<line style="fill:none;stroke:#000000;stroke-miterlimit:1;" x1="131.656" y1="76.69" x2="136.924" y2="80.64"/>
	<line style="fill:none;stroke:#000000;stroke-miterlimit:1;" x1="136.924" y1="80.64" x2="140.543" y2="83.272"/>
	<line style="fill:none;stroke:#000000;stroke-miterlimit:1;" x1="140.543" y1="83.272" x2="145.48" y2="88.539"/>
	<line style="fill:none;stroke:#000000;stroke-miterlimit:1;" x1="188.27" y1="74.386" x2="198.145" y2="68.791"/>
	<line style="fill:none;stroke:#000000;stroke-miterlimit:1;" x1="198.145" y1="68.791" x2="200.777" y2="77.02"/>
	<line style="fill:none;stroke:#000000;stroke-miterlimit:1;" x1="200.777" y1="77.02" x2="196.168" y2="79.652"/>
	<line style="fill:none;stroke:#000000;stroke-miterlimit:1;" x1="196.168" y1="79.652" x2="190.902" y2="84.59"/>
	<line style="fill:none;stroke:#000000;stroke-miterlimit:1;" x1="190.902" y1="84.59" x2="187.281" y2="88.539"/>
	<line style="fill:none;stroke:#000000;stroke-miterlimit:1;" x1="151.406" y1="84.59" x2="152.064" y2="82.614"/>
	<line style="fill:none;stroke:#000000;stroke-miterlimit:1;" x1="152.064" y1="82.614" x2="153.381" y2="80.311"/>
	<line style="fill:none;stroke:#000000;stroke-miterlimit:1;" x1="153.381" y1="80.311" x2="155.355" y2="78.007"/>
	<line style="fill:none;stroke:#000000;stroke-miterlimit:1;" x1="155.355" y1="78.007" x2="157.988" y2="75.702"/>
	<line style="fill:none;stroke:#000000;stroke-miterlimit:1;" x1="157.988" y1="75.702" x2="162.596" y2="74.057"/>
	<line style="fill:none;stroke:#000000;stroke-miterlimit:1;" x1="162.596" y1="74.057" x2="165.559" y2="73.728"/>
	<line style="fill:none;stroke:#000000;stroke-miterlimit:1;" x1="165.559" y1="73.728" x2="169.18" y2="74.057"/>
	<line style="fill:none;stroke:#000000;stroke-miterlimit:1;" x1="169.18" y1="74.057" x2="173.129" y2="75.373"/>
	<line style="fill:none;stroke:#000000;stroke-miterlimit:1;" x1="173.129" y1="75.373" x2="176.42" y2="77.349"/>
	<line style="fill:none;stroke:#000000;stroke-miterlimit:1;" x1="176.42" y1="77.349" x2="178.066" y2="79.652"/>
	<line style="fill:none;stroke:#000000;stroke-miterlimit:1;" x1="178.066" y1="79.652" x2="179.711" y2="81.627"/>
	<line style="fill:none;stroke:#000000;stroke-miterlimit:1;" x1="179.711" y1="81.627" x2="181.029" y2="85.248"/>
	<line style="fill:none;stroke:#000000;stroke-miterlimit:1;" x1="181.029" y1="85.248" x2="175.762" y2="81.956"/>
	<line style="fill:none;stroke:#000000;stroke-miterlimit:1;" x1="175.762" y1="81.956" x2="171.812" y2="80.64"/>
	<line style="fill:none;stroke:#000000;stroke-miterlimit:1;" x1="171.812" y1="80.64" x2="168.521" y2="79.652"/>
	<line style="fill:none;stroke:#000000;stroke-miterlimit:1;" x1="168.521" y1="79.652" x2="165.889" y2="79.323"/>
	<line style="fill:none;stroke:#000000;stroke-miterlimit:1;" x1="165.889" y1="79.323" x2="162.596" y2="79.981"/>
	<line style="fill:none;stroke:#000000;stroke-miterlimit:1;" x1="162.596" y1="79.981" x2="159.305" y2="80.64"/>
	<line style="fill:none;stroke:#000000;stroke-miterlimit:1;" x1="159.305" y1="80.64" x2="155.355" y2="82.614"/>
	<line style="fill:none;stroke:#000000;stroke-miterlimit:1;" x1="155.355" y1="82.614" x2="152.723" y2="84.59"/>
	<line style="fill:none;stroke:#000000;stroke-miterlimit:1;" x1="152.723" y1="84.59" x2="151.406" y2="85.248"/>
	<line style="fill:none;stroke:#000000;stroke-miterlimit:1;" x1="153.381" y1="119.808" x2="158.646" y2="98.413"/>
	<line style="fill:none;stroke:#000000;stroke-miterlimit:1;" x1="158.646" y1="98.413" x2="160.951" y2="95.451"/>
	<line style="fill:none;stroke:#000000;stroke-miterlimit:1;" x1="160.951" y1="95.451" x2="163.254" y2="94.464"/>
	<line style="fill:none;stroke:#000000;stroke-miterlimit:1;" x1="163.254" y1="94.464" x2="165.889" y2="93.806"/>
	<line style="fill:none;stroke:#000000;stroke-miterlimit:1;" x1="165.889" y1="93.806" x2="169.508" y2="94.464"/>
	<line style="fill:none;stroke:#000000;stroke-miterlimit:1;" x1="169.508" y1="94.464" x2="172.141" y2="96.438"/>
	<line style="fill:none;stroke:#000000;stroke-miterlimit:1;" x1="172.141" y1="96.438" x2="173.459" y2="98.742"/>
	<line style="fill:none;stroke:#000000;stroke-miterlimit:1;" x1="173.459" y1="98.742" x2="179.053" y2="120.137"/>
	<line style="fill:none;stroke:#000000;stroke-miterlimit:1;" x1="166.547" y1="124.416" x2="161.609" y2="124.087"/>
	<line style="fill:none;stroke:#000000;stroke-miterlimit:1;" x1="161.609" y1="124.087" x2="159.305" y2="123.429"/>
	<line style="fill:none;stroke:#000000;stroke-miterlimit:1;" x1="159.305" y1="123.429" x2="157.33" y2="123.1"/>
	<line style="fill:none;stroke:#000000;stroke-miterlimit:1;" x1="157.33" y1="123.1" x2="154.039" y2="121.453"/>
	<line style="fill:none;stroke:#000000;stroke-miterlimit:1;" x1="154.039" y1="121.453" x2="151.734" y2="118.491"/>
	<line style="fill:none;stroke:#000000;stroke-miterlimit:1;" x1="151.734" y1="118.491" x2="149.76" y2="115.529"/>
	<line style="fill:none;stroke:#000000;stroke-miterlimit:1;" x1="149.76" y1="115.529" x2="148.443" y2="112.237"/>
	<line style="fill:none;stroke:#000000;stroke-miterlimit:1;" x1="148.443" y1="112.237" x2="147.455" y2="108.288"/>
	<line style="fill:none;stroke:#000000;stroke-miterlimit:1;" x1="147.455" y1="108.288" x2="146.139" y2="103.021"/>
	<line style="fill:none;stroke:#000000;stroke-miterlimit:1;" x1="146.139" y1="103.021" x2="144.164" y2="75.373"/>
	<line style="fill:none;stroke:#000000;stroke-miterlimit:1;" x1="144.164" y1="75.373" x2="144.494" y2="70.437"/>
	<line style="fill:none;stroke:#000000;stroke-miterlimit:1;" x1="144.494" y1="70.437" x2="145.152" y2="68.132"/>
	<line style="fill:none;stroke:#000000;stroke-miterlimit:1;" x1="145.152" y1="68.132" x2="145.48" y2="66.157"/>
	<line style="fill:none;stroke:#000000;stroke-miterlimit:1;" x1="145.48" y1="66.157" x2="147.127" y2="63.524"/>
	<line style="fill:none;stroke:#000000;stroke-miterlimit:1;" x1="147.127" y1="63.524" x2="149.102" y2="61.549"/>
	<line style="fill:none;stroke:#000000;stroke-miterlimit:1;" x1="149.102" y1="61.549" x2="152.393" y2="59.575"/>
	<line style="fill:none;stroke:#000000;stroke-miterlimit:1;" x1="152.393" y1="59.575" x2="155.355" y2="58.587"/>
	<line style="fill:none;stroke:#000000;stroke-miterlimit:1;" x1="155.355" y1="58.587" x2="157.988" y2="58.258"/>
	<line style="fill:none;stroke:#000000;stroke-miterlimit:1;" x1="157.988" y1="58.258" x2="165.889" y2="57.6"/>
	<line style="fill:none;stroke:#000000;stroke-miterlimit:1;" x1="165.889" y1="57.6" x2="175.104" y2="58.258"/>
	<line style="fill:none;stroke:#000000;stroke-miterlimit:1;" x1="175.104" y1="58.258" x2="179.053" y2="58.917"/>
	<line style="fill:none;stroke:#000000;stroke-miterlimit:1;" x1="179.053" y1="58.917" x2="182.346" y2="60.891"/>
	<line style="fill:none;stroke:#000000;stroke-miterlimit:1;" x1="182.346" y1="60.891" x2="184.32" y2="62.208"/>
	<line style="fill:none;stroke:#000000;stroke-miterlimit:1;" x1="184.32" y1="62.208" x2="185.965" y2="64.841"/>
	<line style="fill:none;stroke:#000000;stroke-miterlimit:1;" x1="185.965" y1="64.841" x2="187.611" y2="70.107"/>
	<line style="fill:none;stroke:#000000;stroke-miterlimit:1;" x1="187.611" y1="70.107" x2="187.939" y2="74.386"/>
	<line style="fill:none;stroke:#000000;stroke-miterlimit:1;" x1="187.939" y1="74.386" x2="186.295" y2="98.413"/>
	<line style="fill:none;stroke:#000000;stroke-miterlimit:1;" x1="186.295" y1="98.413" x2="185.637" y2="104.996"/>
	<line style="fill:none;stroke:#000000;stroke-miterlimit:1;" x1="185.637" y1="104.996" x2="183.662" y2="112.237"/>
	<line style="fill:none;stroke:#000000;stroke-miterlimit:1;" x1="183.662" y1="112.237" x2="182.346" y2="115.529"/>
	<line style="fill:none;stroke:#000000;stroke-miterlimit:1;" x1="182.346" y1="115.529" x2="180.369" y2="118.82"/>
	<line style="fill:none;stroke:#000000;stroke-miterlimit:1;" x1="180.369" y1="118.82" x2="179.053" y2="120.466"/>
	<line style="fill:none;stroke:#000000;stroke-miterlimit:1;" x1="179.053" y1="120.466" x2="177.078" y2="122.111"/>
	<line style="fill:none;stroke:#000000;stroke-miterlimit:1;" x1="177.078" y1="122.111" x2="174.775" y2="123.429"/>
	<line style="fill:none;stroke:#000000;stroke-miterlimit:1;" x1="174.775" y1="123.429" x2="171.812" y2="124.087"/>
	<line style="fill:none;stroke:#000000;stroke-miterlimit:1;" x1="171.812" y1="124.087" x2="166.547" y2="124.416"/>
</g>
</svg>
