<?xml version="1.0" encoding="iso-8859-1"?>
<!-- Generator: Adobe Illustrator 16.0.1, SVG Export Plug-In . SVG Version: 6.00 Build 0)  -->
<!DOCTYPE svg PUBLIC "-//W3C//DTD SVG 1.1//EN" "http://www.w3.org/Graphics/SVG/1.1/DTD/svg11.dtd">
<svg version="1.1" id="Ebene_1" xmlns="http://www.w3.org/2000/svg" xmlns:xlink="http://www.w3.org/1999/xlink" x="0px" y="0px"
	 width="327.333px" height="148.114px" viewBox="0 0 327.333 148.114" style="enable-background:new 0 0 327.333 148.114;"
	 xml:space="preserve">
<g>
	<line style="fill:none;stroke:#000000;stroke-miterlimit:1;" x1="81.627" y1="39.498" x2="74.387" y2="38.839"/>
	<line style="fill:none;stroke:#000000;stroke-miterlimit:1;" x1="74.387" y1="38.839" x2="62.867" y2="39.498"/>
	<line style="fill:none;stroke:#000000;stroke-miterlimit:1;" x1="62.867" y1="39.498" x2="54.309" y2="38.51"/>
	<line style="fill:none;stroke:#000000;stroke-miterlimit:1;" x1="54.309" y1="38.51" x2="51.676" y2="39.498"/>
	<line style="fill:none;stroke:#000000;stroke-miterlimit:1;" x1="51.676" y1="39.498" x2="49.701" y2="42.13"/>
	<line style="fill:none;stroke:#000000;stroke-miterlimit:1;" x1="49.701" y1="42.13" x2="50.359" y2="46.738"/>
	<line style="fill:none;stroke:#000000;stroke-miterlimit:1;" x1="50.359" y1="46.738" x2="54.309" y2="58.917"/>
	<line style="fill:none;stroke:#000000;stroke-miterlimit:1;" x1="54.309" y1="58.917" x2="55.955" y2="62.208"/>
	<line style="fill:none;stroke:#000000;stroke-miterlimit:1;" x1="55.955" y1="62.208" x2="59.904" y2="67.475"/>
	<line style="fill:none;stroke:#000000;stroke-miterlimit:1;" x1="59.904" y1="67.475" x2="69.778" y2="79.652"/>
	<line style="fill:none;stroke:#000000;stroke-miterlimit:1;" x1="69.778" y1="79.652" x2="90.844" y2="101.705"/>
	<line style="fill:none;stroke:#000000;stroke-miterlimit:1;" x1="90.844" y1="101.705" x2="105.984" y2="115.858"/>
	<line style="fill:none;stroke:#000000;stroke-miterlimit:1;" x1="105.984" y1="115.858" x2="138.24" y2="147.456"/>
	<line style="fill:none;stroke:#000000;stroke-miterlimit:1;" x1="138.24" y1="147.456" x2="141.532" y2="147.456"/>
	<line style="fill:none;stroke:#000000;stroke-miterlimit:1;" x1="141.532" y1="147.456" x2="142.519" y2="145.811"/>
	<line style="fill:none;stroke:#000000;stroke-miterlimit:1;" x1="142.519" y1="145.811" x2="141.203" y2="142.849"/>
	<line style="fill:none;stroke:#000000;stroke-miterlimit:1;" x1="141.203" y1="142.849" x2="127.378" y2="111.251"/>
	<line style="fill:none;stroke:#000000;stroke-miterlimit:1;" x1="127.378" y1="111.251" x2="125.404" y2="105.326"/>
	<line style="fill:none;stroke:#000000;stroke-miterlimit:1;" x1="125.404" y1="105.326" x2="120.137" y2="92.16"/>
	<line style="fill:none;stroke:#000000;stroke-miterlimit:1;" x1="120.137" y1="92.16" x2="118.492" y2="88.869"/>
	<line style="fill:none;stroke:#000000;stroke-miterlimit:1;" x1="118.492" y1="88.869" x2="114.213" y2="79.981"/>
	<line style="fill:none;stroke:#000000;stroke-miterlimit:1;" x1="114.213" y1="79.981" x2="106.313" y2="66.487"/>
	<line style="fill:none;stroke:#000000;stroke-miterlimit:1;" x1="106.313" y1="66.487" x2="98.085" y2="52.992"/>
	<line style="fill:none;stroke:#000000;stroke-miterlimit:1;" x1="98.085" y1="52.992" x2="92.489" y2="45.422"/>
	<line style="fill:none;stroke:#000000;stroke-miterlimit:1;" x1="92.489" y1="45.422" x2="87.552" y2="38.181"/>
	<line style="fill:none;stroke:#000000;stroke-miterlimit:1;" x1="87.552" y1="38.181" x2="82.615" y2="31.598"/>
	<line style="fill:none;stroke:#000000;stroke-miterlimit:1;" x1="82.615" y1="31.598" x2="76.69" y2="24.686"/>
	<line style="fill:none;stroke:#000000;stroke-miterlimit:1;" x1="76.69" y1="24.686" x2="70.766" y2="20.736"/>
	<line style="fill:none;stroke:#000000;stroke-miterlimit:1;" x1="70.766" y1="20.736" x2="69.12" y2="13.824"/>
	<line style="fill:none;stroke:#000000;stroke-miterlimit:1;" x1="69.12" y1="13.824" x2="67.804" y2="6.254"/>
	<line style="fill:none;stroke:#000000;stroke-miterlimit:1;" x1="67.804" y1="6.254" x2="65.829" y2="1.317"/>
	<line style="fill:none;stroke:#000000;stroke-miterlimit:1;" x1="65.829" y1="1.317" x2="60.233" y2="0"/>
	<line style="fill:none;stroke:#000000;stroke-miterlimit:1;" x1="60.233" y1="0" x2="51.018" y2="0"/>
	<line style="fill:none;stroke:#000000;stroke-miterlimit:1;" x1="51.018" y1="0" x2="40.814" y2="0.329"/>
	<line style="fill:none;stroke:#000000;stroke-miterlimit:1;" x1="40.814" y1="0.329" x2="35.877" y2="1.646"/>
	<line style="fill:none;stroke:#000000;stroke-miterlimit:1;" x1="35.877" y1="1.646" x2="33.573" y2="2.304"/>
	<line style="fill:none;stroke:#000000;stroke-miterlimit:1;" x1="33.573" y1="2.304" x2="16.787" y2="4.608"/>
	<line style="fill:none;stroke:#000000;stroke-miterlimit:1;" x1="16.787" y1="4.608" x2="11.85" y2="6.912"/>
	<line style="fill:none;stroke:#000000;stroke-miterlimit:1;" x1="11.85" y1="6.912" x2="10.204" y2="9.216"/>
	<line style="fill:none;stroke:#000000;stroke-miterlimit:1;" x1="10.204" y1="9.216" x2="9.875" y2="13.824"/>
	<line style="fill:none;stroke:#000000;stroke-miterlimit:1;" x1="9.875" y1="13.824" x2="11.85" y2="10.533"/>
	<line style="fill:none;stroke:#000000;stroke-miterlimit:1;" x1="11.85" y1="10.533" x2="15.141" y2="8.887"/>
	<line style="fill:none;stroke:#000000;stroke-miterlimit:1;" x1="15.141" y1="8.887" x2="25.015" y2="8.887"/>
	<line style="fill:none;stroke:#000000;stroke-miterlimit:1;" x1="25.015" y1="8.887" x2="35.219" y2="9.216"/>
	<line style="fill:none;stroke:#000000;stroke-miterlimit:1;" x1="35.219" y1="9.216" x2="40.485" y2="10.533"/>
	<line style="fill:none;stroke:#000000;stroke-miterlimit:1;" x1="40.485" y1="10.533" x2="36.206" y2="5.267"/>
	<line style="fill:none;stroke:#000000;stroke-miterlimit:1;" x1="36.206" y1="5.267" x2="35.219" y2="1.646"/>
	<line style="fill:none;stroke:#000000;stroke-miterlimit:1;" x1="46.08" y1="8.558" x2="47.068" y2="8.229"/>
	<line style="fill:none;stroke:#000000;stroke-miterlimit:1;" x1="47.068" y1="8.229" x2="47.726" y2="6.583"/>
	<line style="fill:none;stroke:#000000;stroke-miterlimit:1;" x1="47.726" y1="6.583" x2="47.068" y2="4.938"/>
	<line style="fill:none;stroke:#000000;stroke-miterlimit:1;" x1="47.068" y1="4.938" x2="45.751" y2="3.95"/>
	<line style="fill:none;stroke:#000000;stroke-miterlimit:1;" x1="45.751" y1="3.95" x2="44.435" y2="4.938"/>
	<line style="fill:none;stroke:#000000;stroke-miterlimit:1;" x1="44.435" y1="4.938" x2="44.105" y2="6.912"/>
	<line style="fill:none;stroke:#000000;stroke-miterlimit:1;" x1="44.105" y1="6.912" x2="44.764" y2="7.899"/>
	<line style="fill:none;stroke:#000000;stroke-miterlimit:1;" x1="44.764" y1="7.899" x2="45.751" y2="8.558"/>
	<line style="fill:none;stroke:#000000;stroke-miterlimit:1;" x1="11.52" y1="11.85" x2="24.686" y2="11.52"/>
	<line style="fill:none;stroke:#000000;stroke-miterlimit:1;" x1="24.686" y1="11.52" x2="34.889" y2="12.837"/>
	<line style="fill:none;stroke:#000000;stroke-miterlimit:1;" x1="34.889" y1="12.837" x2="37.852" y2="14.482"/>
	<line style="fill:none;stroke:#000000;stroke-miterlimit:1;" x1="37.852" y1="14.482" x2="38.839" y2="17.774"/>
	<line style="fill:none;stroke:#000000;stroke-miterlimit:1;" x1="38.839" y1="17.774" x2="39.168" y2="21.395"/>
	<line style="fill:none;stroke:#000000;stroke-miterlimit:1;" x1="39.168" y1="21.395" x2="36.206" y2="28.636"/>
	<line style="fill:none;stroke:#000000;stroke-miterlimit:1;" x1="36.206" y1="28.636" x2="34.889" y2="37.522"/>
	<line style="fill:none;stroke:#000000;stroke-miterlimit:1;" x1="34.889" y1="37.522" x2="36.535" y2="48.384"/>
	<line style="fill:none;stroke:#000000;stroke-miterlimit:1;" x1="36.535" y1="48.384" x2="37.852" y2="53.321"/>
	<line style="fill:none;stroke:#000000;stroke-miterlimit:1;" x1="37.852" y1="53.321" x2="39.827" y2="59.246"/>
	<line style="fill:none;stroke:#000000;stroke-miterlimit:1;" x1="39.827" y1="59.246" x2="41.143" y2="61.879"/>
	<line style="fill:none;stroke:#000000;stroke-miterlimit:1;" x1="41.143" y1="61.879" x2="45.751" y2="71.095"/>
	<line style="fill:none;stroke:#000000;stroke-miterlimit:1;" x1="45.751" y1="71.095" x2="62.538" y2="101.376"/>
	<line style="fill:none;stroke:#000000;stroke-miterlimit:1;" x1="62.538" y1="101.376" x2="69.449" y2="114.213"/>
	<line style="fill:none;stroke:#000000;stroke-miterlimit:1;" x1="69.449" y1="114.213" x2="70.766" y2="124.087"/>
	<line style="fill:none;stroke:#000000;stroke-miterlimit:1;" x1="70.766" y1="124.087" x2="69.12" y2="140.873"/>
	<line style="fill:none;stroke:#000000;stroke-miterlimit:1;" x1="69.12" y1="140.873" x2="67.475" y2="142.52"/>
	<line style="fill:none;stroke:#000000;stroke-miterlimit:1;" x1="67.475" y1="142.52" x2="57.929" y2="143.507"/>
	<line style="fill:none;stroke:#000000;stroke-miterlimit:1;" x1="57.929" y1="143.507" x2="46.738" y2="143.178"/>
	<line style="fill:none;stroke:#000000;stroke-miterlimit:1;" x1="46.738" y1="143.178" x2="46.08" y2="144.823"/>
	<line style="fill:none;stroke:#000000;stroke-miterlimit:1;" x1="46.08" y1="144.823" x2="41.143" y2="145.481"/>
	<line style="fill:none;stroke:#000000;stroke-miterlimit:1;" x1="41.143" y1="145.481" x2="40.485" y2="146.469"/>
	<line style="fill:none;stroke:#000000;stroke-miterlimit:1;" x1="40.485" y1="146.469" x2="41.472" y2="147.785"/>
	<line style="fill:none;stroke:#000000;stroke-miterlimit:1;" x1="41.472" y1="147.785" x2="69.778" y2="146.798"/>
	<line style="fill:none;stroke:#000000;stroke-miterlimit:1;" x1="69.778" y1="146.798" x2="99.072" y2="148.114"/>
	<line style="fill:none;stroke:#000000;stroke-miterlimit:1;" x1="99.072" y1="148.114" x2="100.389" y2="146.798"/>
	<line style="fill:none;stroke:#000000;stroke-miterlimit:1;" x1="100.389" y1="146.798" x2="99.73" y2="145.152"/>
	<line style="fill:none;stroke:#000000;stroke-miterlimit:1;" x1="99.73" y1="145.152" x2="95.123" y2="145.152"/>
	<line style="fill:none;stroke:#000000;stroke-miterlimit:1;" x1="95.123" y1="145.152" x2="92.489" y2="142.849"/>
	<line style="fill:none;stroke:#000000;stroke-miterlimit:1;" x1="92.489" y1="142.849" x2="75.703" y2="142.52"/>
	<line style="fill:none;stroke:#000000;stroke-miterlimit:1;" x1="75.703" y1="142.52" x2="73.728" y2="141.202"/>
	<line style="fill:none;stroke:#000000;stroke-miterlimit:1;" x1="73.728" y1="141.202" x2="75.703" y2="120.467"/>
	<line style="fill:none;stroke:#000000;stroke-miterlimit:1;" x1="75.703" y1="120.467" x2="87.881" y2="126.721"/>
	<line style="fill:none;stroke:#000000;stroke-miterlimit:1;" x1="87.881" y1="126.721" x2="94.793" y2="106.313"/>
	<line style="fill:none;stroke:#000000;stroke-miterlimit:1;" x1="94.793" y1="106.313" x2="107.959" y2="139.228"/>
	<line style="fill:none;stroke:#000000;stroke-miterlimit:1;" x1="107.959" y1="139.228" x2="112.567" y2="145.152"/>
	<line style="fill:none;stroke:#000000;stroke-miterlimit:1;" x1="112.567" y1="145.152" x2="117.175" y2="147.785"/>
	<line style="fill:none;stroke:#000000;stroke-miterlimit:1;" x1="117.175" y1="147.785" x2="124.087" y2="147.785"/>
	<line style="fill:none;stroke:#000000;stroke-miterlimit:1;" x1="124.087" y1="147.785" x2="128.037" y2="146.469"/>
	<line style="fill:none;stroke:#000000;stroke-miterlimit:1;" x1="128.037" y1="146.469" x2="129.024" y2="144.494"/>
	<line style="fill:none;stroke:#000000;stroke-miterlimit:1;" x1="129.024" y1="144.494" x2="125.733" y2="135.607"/>
	<line style="fill:none;stroke:#000000;stroke-miterlimit:1;" x1="44.105" y1="68.791" x2="46.738" y2="78.665"/>
	<line style="fill:none;stroke:#000000;stroke-miterlimit:1;" x1="46.738" y1="78.665" x2="47.726" y2="88.869"/>
	<line style="fill:none;stroke:#000000;stroke-miterlimit:1;" x1="47.726" y1="88.869" x2="48.055" y2="92.818"/>
	<line style="fill:none;stroke:#000000;stroke-miterlimit:1;" x1="48.055" y1="92.818" x2="48.055" y2="111.251"/>
	<line style="fill:none;stroke:#000000;stroke-miterlimit:1;" x1="48.055" y1="111.251" x2="44.764" y2="130.012"/>
	<line style="fill:none;stroke:#000000;stroke-miterlimit:1;" x1="44.764" y1="130.012" x2="41.801" y2="139.557"/>
	<line style="fill:none;stroke:#000000;stroke-miterlimit:1;" x1="41.801" y1="139.557" x2="39.827" y2="141.86"/>
	<line style="fill:none;stroke:#000000;stroke-miterlimit:1;" x1="39.827" y1="141.86" x2="24.028" y2="142.849"/>
	<line style="fill:none;stroke:#000000;stroke-miterlimit:1;" x1="24.028" y1="142.849" x2="22.382" y2="145.152"/>
	<line style="fill:none;stroke:#000000;stroke-miterlimit:1;" x1="22.382" y1="145.152" x2="18.761" y2="145.481"/>
	<line style="fill:none;stroke:#000000;stroke-miterlimit:1;" x1="18.761" y1="145.481" x2="17.445" y2="146.469"/>
	<line style="fill:none;stroke:#000000;stroke-miterlimit:1;" x1="17.445" y1="146.469" x2="18.761" y2="147.785"/>
	<line style="fill:none;stroke:#000000;stroke-miterlimit:1;" x1="18.761" y1="147.785" x2="30.939" y2="146.798"/>
	<line style="fill:none;stroke:#000000;stroke-miterlimit:1;" x1="30.939" y1="146.798" x2="34.56" y2="147.127"/>
	<line style="fill:none;stroke:#000000;stroke-miterlimit:1;" x1="46.409" y1="143.178" x2="40.814" y2="143.836"/>
	<line style="fill:none;stroke:#000000;stroke-miterlimit:1;" x1="40.814" y1="143.836" x2="40.814" y2="143.836"/>
	<line style="fill:none;stroke:#000000;stroke-miterlimit:1;" x1="40.814" y1="143.836" x2="37.522" y2="144.494"/>
	<line style="fill:none;stroke:#000000;stroke-miterlimit:1;" x1="37.522" y1="144.494" x2="35.548" y2="147.127"/>
	<line style="fill:none;stroke:#000000;stroke-miterlimit:1;" x1="35.548" y1="147.127" x2="36.864" y2="147.785"/>
	<line style="fill:none;stroke:#000000;stroke-miterlimit:1;" x1="36.864" y1="147.785" x2="38.839" y2="145.811"/>
	<line style="fill:none;stroke:#000000;stroke-miterlimit:1;" x1="38.839" y1="145.811" x2="40.814" y2="145.481"/>
	<line style="fill:none;stroke:#000000;stroke-miterlimit:1;" x1="46.08" y1="142.849" x2="53.321" y2="115.858"/>
	<line style="fill:none;stroke:#000000;stroke-miterlimit:1;" x1="53.321" y1="115.858" x2="64.512" y2="122.441"/>
	<line style="fill:none;stroke:#000000;stroke-miterlimit:1;" x1="64.512" y1="122.441" x2="66.816" y2="110.263"/>
	<line style="fill:none;stroke:#000000;stroke-miterlimit:1;" x1="23.04" y1="143.178" x2="17.774" y2="143.836"/>
	<line style="fill:none;stroke:#000000;stroke-miterlimit:1;" x1="17.774" y1="143.836" x2="17.774" y2="143.836"/>
	<line style="fill:none;stroke:#000000;stroke-miterlimit:1;" x1="17.774" y1="143.836" x2="14.482" y2="144.494"/>
	<line style="fill:none;stroke:#000000;stroke-miterlimit:1;" x1="14.482" y1="144.494" x2="12.508" y2="147.127"/>
	<line style="fill:none;stroke:#000000;stroke-miterlimit:1;" x1="12.508" y1="147.127" x2="13.495" y2="147.785"/>
	<line style="fill:none;stroke:#000000;stroke-miterlimit:1;" x1="13.495" y1="147.785" x2="15.799" y2="145.811"/>
	<line style="fill:none;stroke:#000000;stroke-miterlimit:1;" x1="15.799" y1="145.811" x2="18.432" y2="145.481"/>
	<line style="fill:none;stroke:#000000;stroke-miterlimit:1;" x1="93.147" y1="142.849" x2="99.401" y2="143.507"/>
	<line style="fill:none;stroke:#000000;stroke-miterlimit:1;" x1="99.401" y1="143.507" x2="102.364" y2="144.494"/>
	<line style="fill:none;stroke:#000000;stroke-miterlimit:1;" x1="102.364" y1="144.494" x2="104.338" y2="147.127"/>
	<line style="fill:none;stroke:#000000;stroke-miterlimit:1;" x1="104.338" y1="147.127" x2="103.351" y2="147.785"/>
	<line style="fill:none;stroke:#000000;stroke-miterlimit:1;" x1="103.351" y1="147.785" x2="101.047" y2="145.811"/>
	<line style="fill:none;stroke:#000000;stroke-miterlimit:1;" x1="101.047" y1="145.811" x2="99.401" y2="145.481"/>
	<line style="fill:none;stroke:#000000;stroke-miterlimit:1;" x1="148.114" y1="58.917" x2="101.376" y2="58.917"/>
	<line style="fill:none;stroke:#000000;stroke-miterlimit:1;" x1="39.498" y1="58.917" x2="32.256" y2="58.917"/>
	<line style="fill:none;stroke:#000000;stroke-miterlimit:1;" x1="32.256" y1="58.917" x2="26.332" y2="60.233"/>
	<line style="fill:none;stroke:#000000;stroke-miterlimit:1;" x1="26.332" y1="60.233" x2="20.736" y2="62.867"/>
	<line style="fill:none;stroke:#000000;stroke-miterlimit:1;" x1="20.736" y1="62.867" x2="14.812" y2="67.146"/>
	<line style="fill:none;stroke:#000000;stroke-miterlimit:1;" x1="14.812" y1="67.146" x2="10.862" y2="70.437"/>
	<line style="fill:none;stroke:#000000;stroke-miterlimit:1;" x1="10.862" y1="70.437" x2="7.241" y2="74.387"/>
	<line style="fill:none;stroke:#000000;stroke-miterlimit:1;" x1="7.241" y1="74.387" x2="4.279" y2="78.336"/>
	<line style="fill:none;stroke:#000000;stroke-miterlimit:1;" x1="4.279" y1="78.336" x2="2.304" y2="82.286"/>
	<line style="fill:none;stroke:#000000;stroke-miterlimit:1;" x1="2.304" y1="82.286" x2="0.988" y2="86.235"/>
	<line style="fill:none;stroke:#000000;stroke-miterlimit:1;" x1="0.988" y1="86.235" x2="0.33" y2="89.527"/>
	<line style="fill:none;stroke:#000000;stroke-miterlimit:1;" x1="0.33" y1="89.527" x2="0" y2="92.489"/>
	<line style="fill:none;stroke:#000000;stroke-miterlimit:1;" x1="0" y1="92.489" x2="148.114" y2="92.489"/>
	<line style="fill:none;stroke:#000000;stroke-miterlimit:1;" x1="186.789" y1="96.233" x2="191.396" y2="107.753"/>
	<line style="fill:none;stroke:#000000;stroke-miterlimit:1;" x1="191.396" y1="107.753" x2="188.435" y2="108.412"/>
	<line style="fill:none;stroke:#000000;stroke-miterlimit:1;" x1="188.435" y1="108.412" x2="183.826" y2="96.233"/>
	<line style="fill:none;stroke:#000000;stroke-miterlimit:1;" x1="175.269" y1="71.219" x2="162.761" y2="33.696"/>
	<line style="fill:none;stroke:#000000;stroke-miterlimit:1;" x1="162.761" y1="33.696" x2="162.103" y2="28.43"/>
	<line style="fill:none;stroke:#000000;stroke-miterlimit:1;" x1="162.103" y1="28.43" x2="162.432" y2="25.139"/>
	<line style="fill:none;stroke:#000000;stroke-miterlimit:1;" x1="162.432" y1="25.139" x2="164.407" y2="22.834"/>
	<line style="fill:none;stroke:#000000;stroke-miterlimit:1;" x1="164.407" y1="22.834" x2="167.698" y2="20.86"/>
	<line style="fill:none;stroke:#000000;stroke-miterlimit:1;" x1="167.698" y1="20.86" x2="172.636" y2="19.543"/>
	<line style="fill:none;stroke:#000000;stroke-miterlimit:1;" x1="172.636" y1="19.543" x2="176.585" y2="20.201"/>
	<line style="fill:none;stroke:#000000;stroke-miterlimit:1;" x1="176.585" y1="20.201" x2="180.535" y2="22.834"/>
	<line style="fill:none;stroke:#000000;stroke-miterlimit:1;" x1="180.535" y1="22.834" x2="183.497" y2="28.101"/>
	<line style="fill:none;stroke:#000000;stroke-miterlimit:1;" x1="183.497" y1="28.101" x2="183.826" y2="33.696"/>
	<line style="fill:none;stroke:#000000;stroke-miterlimit:1;" x1="183.826" y1="33.696" x2="183.497" y2="36"/>
	<line style="fill:none;stroke:#000000;stroke-miterlimit:1;" x1="183.497" y1="36" x2="182.51" y2="38.962"/>
	<line style="fill:none;stroke:#000000;stroke-miterlimit:1;" x1="182.51" y1="38.962" x2="180.864" y2="40.938"/>
	<line style="fill:none;stroke:#000000;stroke-miterlimit:1;" x1="180.864" y1="40.938" x2="178.89" y2="40.279"/>
	<line style="fill:none;stroke:#000000;stroke-miterlimit:1;" x1="178.89" y1="40.279" x2="179.877" y2="36.659"/>
	<line style="fill:none;stroke:#000000;stroke-miterlimit:1;" x1="179.877" y1="36.659" x2="180.206" y2="34.025"/>
	<line style="fill:none;stroke:#000000;stroke-miterlimit:1;" x1="180.206" y1="34.025" x2="179.877" y2="31.063"/>
	<line style="fill:none;stroke:#000000;stroke-miterlimit:1;" x1="179.877" y1="31.063" x2="179.548" y2="29.417"/>
	<line style="fill:none;stroke:#000000;stroke-miterlimit:1;" x1="179.548" y1="29.417" x2="177.573" y2="26.126"/>
	<line style="fill:none;stroke:#000000;stroke-miterlimit:1;" x1="177.573" y1="26.126" x2="174.61" y2="23.822"/>
	<line style="fill:none;stroke:#000000;stroke-miterlimit:1;" x1="174.61" y1="23.822" x2="171.648" y2="23.822"/>
	<line style="fill:none;stroke:#000000;stroke-miterlimit:1;" x1="171.648" y1="23.822" x2="168.686" y2="24.48"/>
	<line style="fill:none;stroke:#000000;stroke-miterlimit:1;" x1="168.686" y1="24.48" x2="167.04" y2="26.455"/>
	<line style="fill:none;stroke:#000000;stroke-miterlimit:1;" x1="167.04" y1="26.455" x2="165.395" y2="29.747"/>
	<line style="fill:none;stroke:#000000;stroke-miterlimit:1;" x1="165.395" y1="29.747" x2="165.724" y2="32.38"/>
	<line style="fill:none;stroke:#000000;stroke-miterlimit:1;" x1="165.724" y1="32.38" x2="178.89" y2="71.219"/>
	<line style="fill:none;stroke:#000000;stroke-miterlimit:1;" x1="327.333" y1="92.942" x2="203.575" y2="92.942"/>
	<line style="fill:none;stroke:#000000;stroke-miterlimit:1;" x1="203.575" y1="92.942" x2="199.296" y2="93.271"/>
	<line style="fill:none;stroke:#000000;stroke-miterlimit:1;" x1="199.296" y1="93.271" x2="195.676" y2="94.259"/>
	<line style="fill:none;stroke:#000000;stroke-miterlimit:1;" x1="195.676" y1="94.259" x2="186.131" y2="96.233"/>
	<line style="fill:none;stroke:#000000;stroke-miterlimit:1;" x1="186.131" y1="96.233" x2="182.181" y2="96.233"/>
	<line style="fill:none;stroke:#000000;stroke-miterlimit:1;" x1="182.181" y1="96.233" x2="173.952" y2="96.233"/>
	<line style="fill:none;stroke:#000000;stroke-miterlimit:1;" x1="173.952" y1="96.233" x2="170.661" y2="94.588"/>
	<line style="fill:none;stroke:#000000;stroke-miterlimit:1;" x1="170.661" y1="94.588" x2="167.698" y2="92.942"/>
	<line style="fill:none;stroke:#000000;stroke-miterlimit:1;" x1="167.698" y1="92.942" x2="166.382" y2="91.625"/>
	<line style="fill:none;stroke:#000000;stroke-miterlimit:1;" x1="166.382" y1="91.625" x2="165.724" y2="88.334"/>
	<line style="fill:none;stroke:#000000;stroke-miterlimit:1;" x1="165.724" y1="88.334" x2="165.395" y2="83.067"/>
	<line style="fill:none;stroke:#000000;stroke-miterlimit:1;" x1="165.395" y1="83.067" x2="166.053" y2="79.118"/>
	<line style="fill:none;stroke:#000000;stroke-miterlimit:1;" x1="166.053" y1="79.118" x2="169.674" y2="76.484"/>
	<line style="fill:none;stroke:#000000;stroke-miterlimit:1;" x1="181.852" y1="76.813" x2="176.256" y2="77.144"/>
	<line style="fill:none;stroke:#000000;stroke-miterlimit:1;" x1="176.256" y1="77.144" x2="170.99" y2="76.813"/>
	<line style="fill:none;stroke:#000000;stroke-miterlimit:1;" x1="170.99" y1="76.813" x2="165.395" y2="75.168"/>
	<line style="fill:none;stroke:#000000;stroke-miterlimit:1;" x1="165.395" y1="75.168" x2="162.432" y2="73.193"/>
	<line style="fill:none;stroke:#000000;stroke-miterlimit:1;" x1="162.432" y1="73.193" x2="160.787" y2="71.219"/>
	<line style="fill:none;stroke:#000000;stroke-miterlimit:1;" x1="160.787" y1="71.219" x2="160.458" y2="69.244"/>
	<line style="fill:none;stroke:#000000;stroke-miterlimit:1;" x1="160.458" y1="69.244" x2="167.698" y2="71.219"/>
	<line style="fill:none;stroke:#000000;stroke-miterlimit:1;" x1="167.698" y1="71.219" x2="186.131" y2="71.548"/>
	<line style="fill:none;stroke:#000000;stroke-miterlimit:1;" x1="186.131" y1="71.548" x2="191.396" y2="73.193"/>
	<line style="fill:none;stroke:#000000;stroke-miterlimit:1;" x1="191.396" y1="73.193" x2="198.967" y2="79.776"/>
	<line style="fill:none;stroke:#000000;stroke-miterlimit:1;" x1="198.967" y1="79.776" x2="201.601" y2="80.105"/>
	<line style="fill:none;stroke:#000000;stroke-miterlimit:1;" x1="201.601" y1="80.105" x2="204.562" y2="79.447"/>
	<line style="fill:none;stroke:#000000;stroke-miterlimit:1;" x1="204.562" y1="79.447" x2="210.487" y2="78.131"/>
	<line style="fill:none;stroke:#000000;stroke-miterlimit:1;" x1="210.487" y1="78.131" x2="225.957" y2="75.168"/>
	<line style="fill:none;stroke:#000000;stroke-miterlimit:1;" x1="225.957" y1="75.168" x2="240.769" y2="73.193"/>
	<line style="fill:none;stroke:#000000;stroke-miterlimit:1;" x1="240.769" y1="73.193" x2="254.263" y2="72.864"/>
	<line style="fill:none;stroke:#000000;stroke-miterlimit:1;" x1="254.263" y1="72.864" x2="272.037" y2="74.181"/>
	<line style="fill:none;stroke:#000000;stroke-miterlimit:1;" x1="272.037" y1="74.181" x2="287.507" y2="76.155"/>
	<line style="fill:none;stroke:#000000;stroke-miterlimit:1;" x1="287.507" y1="76.155" x2="302.318" y2="79.447"/>
	<line style="fill:none;stroke:#000000;stroke-miterlimit:1;" x1="327.333" y1="92.942" x2="324.699" y2="30.405"/>
	<line style="fill:none;stroke:#000000;stroke-miterlimit:1;" x1="324.699" y1="30.405" x2="307.255" y2="30.405"/>
	<line style="fill:none;stroke:#000000;stroke-miterlimit:1;" x1="307.255" y1="30.405" x2="302.647" y2="79.447"/>
</g>
</svg>
