<?xml version="1.0" encoding="iso-8859-1"?>
<!-- Generator: Adobe Illustrator 16.0.1, SVG Export Plug-In . SVG Version: 6.00 Build 0)  -->
<!DOCTYPE svg PUBLIC "-//W3C//DTD SVG 1.1//EN" "http://www.w3.org/Graphics/SVG/1.1/DTD/svg11.dtd">
<svg version="1.1" id="Ebene_1" xmlns="http://www.w3.org/2000/svg" xmlns:xlink="http://www.w3.org/1999/xlink" x="0px" y="0px"
	 width="143.016px" height="148.113px" viewBox="0 0 143.016 148.113" style="enable-background:new 0 0 143.016 148.113;"
	 xml:space="preserve">
<g>
	<line style="fill:none;stroke:#000000;stroke-miterlimit:1;" x1="31.251" y1="55.353" x2="111.764" y2="55.353"/>
	<line style="fill:none;stroke:#000000;stroke-miterlimit:1;" x1="111.764" y1="55.353" x2="111.764" y2="58.531"/>
	<line style="fill:none;stroke:#000000;stroke-miterlimit:1;" x1="111.764" y1="58.531" x2="114.943" y2="59.06"/>
	<line style="fill:none;stroke:#000000;stroke-miterlimit:1;" x1="114.943" y1="59.06" x2="119.975" y2="60.649"/>
	<line style="fill:none;stroke:#000000;stroke-miterlimit:1;" x1="119.975" y1="60.649" x2="123.418" y2="62.768"/>
	<line style="fill:none;stroke:#000000;stroke-miterlimit:1;" x1="123.418" y1="62.768" x2="127.92" y2="65.946"/>
	<line style="fill:none;stroke:#000000;stroke-miterlimit:1;" x1="127.92" y1="65.946" x2="131.893" y2="70.184"/>
	<line style="fill:none;stroke:#000000;stroke-miterlimit:1;" x1="131.893" y1="70.184" x2="135.6" y2="75.215"/>
	<line style="fill:none;stroke:#000000;stroke-miterlimit:1;" x1="135.6" y1="75.215" x2="138.248" y2="80.248"/>
	<line style="fill:none;stroke:#000000;stroke-miterlimit:1;" x1="138.248" y1="80.248" x2="140.633" y2="86.604"/>
	<line style="fill:none;stroke:#000000;stroke-miterlimit:1;" x1="140.633" y1="86.604" x2="142.221" y2="92.961"/>
	<line style="fill:none;stroke:#000000;stroke-miterlimit:1;" x1="142.221" y1="92.961" x2="143.016" y2="103.555"/>
	<line style="fill:none;stroke:#000000;stroke-miterlimit:1;" x1="143.016" y1="103.555" x2="142.221" y2="109.115"/>
	<line style="fill:none;stroke:#000000;stroke-miterlimit:1;" x1="142.221" y1="109.115" x2="139.838" y2="115.473"/>
	<line style="fill:none;stroke:#000000;stroke-miterlimit:1;" x1="139.838" y1="115.473" x2="136.924" y2="118.385"/>
	<line style="fill:none;stroke:#000000;stroke-miterlimit:1;" x1="136.924" y1="118.385" x2="134.541" y2="118.916"/>
	<line style="fill:none;stroke:#000000;stroke-miterlimit:1;" x1="134.541" y1="118.916" x2="130.834" y2="118.65"/>
	<line style="fill:none;stroke:#000000;stroke-miterlimit:1;" x1="130.834" y1="118.65" x2="127.92" y2="116.268"/>
	<line style="fill:none;stroke:#000000;stroke-miterlimit:1;" x1="127.92" y1="116.268" x2="126.596" y2="113.354"/>
	<line style="fill:none;stroke:#000000;stroke-miterlimit:1;" x1="126.596" y1="113.354" x2="126.066" y2="110.176"/>
	<line style="fill:none;stroke:#000000;stroke-miterlimit:1;" x1="126.066" y1="110.176" x2="125.801" y2="107.791"/>
	<line style="fill:none;stroke:#000000;stroke-miterlimit:1;" x1="125.801" y1="107.791" x2="126.596" y2="99.582"/>
	<line style="fill:none;stroke:#000000;stroke-miterlimit:1;" x1="126.596" y1="99.582" x2="127.654" y2="90.576"/>
	<line style="fill:none;stroke:#000000;stroke-miterlimit:1;" x1="127.654" y1="90.576" x2="126.861" y2="81.307"/>
	<line style="fill:none;stroke:#000000;stroke-miterlimit:1;" x1="126.861" y1="81.307" x2="124.477" y2="74.686"/>
	<line style="fill:none;stroke:#000000;stroke-miterlimit:1;" x1="124.477" y1="74.686" x2="121.033" y2="69.389"/>
	<line style="fill:none;stroke:#000000;stroke-miterlimit:1;" x1="121.033" y1="69.389" x2="117.592" y2="65.417"/>
	<line style="fill:none;stroke:#000000;stroke-miterlimit:1;" x1="117.592" y1="65.417" x2="113.619" y2="63.828"/>
	<line style="fill:none;stroke:#000000;stroke-miterlimit:1;" x1="113.619" y1="63.828" x2="111.764" y2="63.828"/>
	<line style="fill:none;stroke:#000000;stroke-miterlimit:1;" x1="111.764" y1="63.828" x2="111.764" y2="66.741"/>
	<line style="fill:none;stroke:#000000;stroke-miterlimit:1;" x1="111.764" y1="66.741" x2="101.17" y2="66.741"/>
	<line style="fill:none;stroke:#000000;stroke-miterlimit:1;" x1="101.17" y1="66.741" x2="101.17" y2="72.302"/>
	<line style="fill:none;stroke:#000000;stroke-miterlimit:1;" x1="101.17" y1="72.302" x2="85.545" y2="72.302"/>
	<line style="fill:none;stroke:#000000;stroke-miterlimit:1;" x1="85.545" y1="72.302" x2="85.545" y2="66.741"/>
	<line style="fill:none;stroke:#000000;stroke-miterlimit:1;" x1="85.545" y1="66.741" x2="56.941" y2="66.741"/>
	<line style="fill:none;stroke:#000000;stroke-miterlimit:1;" x1="56.941" y1="66.741" x2="56.941" y2="72.302"/>
	<line style="fill:none;stroke:#000000;stroke-miterlimit:1;" x1="56.941" y1="72.302" x2="41.846" y2="72.302"/>
	<line style="fill:none;stroke:#000000;stroke-miterlimit:1;" x1="41.846" y1="72.302" x2="41.846" y2="66.741"/>
	<line style="fill:none;stroke:#000000;stroke-miterlimit:1;" x1="41.846" y1="66.741" x2="31.251" y2="66.741"/>
	<line style="fill:none;stroke:#000000;stroke-miterlimit:1;" x1="36.019" y1="55.353" x2="46.348" y2="4.767"/>
	<line style="fill:none;stroke:#000000;stroke-miterlimit:1;" x1="46.348" y1="4.767" x2="48.202" y2="1.589"/>
	<line style="fill:none;stroke:#000000;stroke-miterlimit:1;" x1="48.202" y1="1.589" x2="49.526" y2="0.53"/>
	<line style="fill:none;stroke:#000000;stroke-miterlimit:1;" x1="49.526" y1="0.53" x2="51.115" y2="0"/>
	<line style="fill:none;stroke:#000000;stroke-miterlimit:1;" x1="51.115" y1="0" x2="53.499" y2="0"/>
	<line style="fill:none;stroke:#000000;stroke-miterlimit:1;" x1="53.499" y1="0" x2="55.882" y2="1.324"/>
	<line style="fill:none;stroke:#000000;stroke-miterlimit:1;" x1="55.882" y1="1.324" x2="56.412" y2="2.913"/>
	<line style="fill:none;stroke:#000000;stroke-miterlimit:1;" x1="56.412" y1="2.913" x2="56.412" y2="4.767"/>
	<line style="fill:none;stroke:#000000;stroke-miterlimit:1;" x1="46.083" y1="55.353" x2="56.677" y2="4.502"/>
	<line style="fill:none;stroke:#000000;stroke-miterlimit:1;" x1="56.677" y1="4.502" x2="58.001" y2="2.119"/>
	<line style="fill:none;stroke:#000000;stroke-miterlimit:1;" x1="58.001" y1="2.119" x2="59.325" y2="0.794"/>
	<line style="fill:none;stroke:#000000;stroke-miterlimit:1;" x1="59.325" y1="0.794" x2="61.709" y2="0.265"/>
	<line style="fill:none;stroke:#000000;stroke-miterlimit:1;" x1="61.709" y1="0.265" x2="64.092" y2="1.059"/>
	<line style="fill:none;stroke:#000000;stroke-miterlimit:1;" x1="64.092" y1="1.059" x2="65.417" y2="2.119"/>
	<line style="fill:none;stroke:#000000;stroke-miterlimit:1;" x1="65.417" y1="2.119" x2="66.211" y2="3.708"/>
	<line style="fill:none;stroke:#000000;stroke-miterlimit:1;" x1="55.617" y1="55.353" x2="65.946" y2="4.767"/>
	<line style="fill:none;stroke:#000000;stroke-miterlimit:1;" x1="65.946" y1="4.767" x2="67.006" y2="2.383"/>
	<line style="fill:none;stroke:#000000;stroke-miterlimit:1;" x1="67.006" y1="2.383" x2="68.86" y2="0.794"/>
	<line style="fill:none;stroke:#000000;stroke-miterlimit:1;" x1="68.86" y1="0.794" x2="70.979" y2="0.53"/>
	<line style="fill:none;stroke:#000000;stroke-miterlimit:1;" x1="70.979" y1="0.53" x2="73.361" y2="0.794"/>
	<line style="fill:none;stroke:#000000;stroke-miterlimit:1;" x1="73.361" y1="0.794" x2="75.217" y2="2.383"/>
	<line style="fill:none;stroke:#000000;stroke-miterlimit:1;" x1="75.217" y1="2.383" x2="75.746" y2="4.502"/>
	<line style="fill:none;stroke:#000000;stroke-miterlimit:1;" x1="65.152" y1="55.353" x2="75.48" y2="5.297"/>
	<line style="fill:none;stroke:#000000;stroke-miterlimit:1;" x1="75.48" y1="5.297" x2="77.07" y2="2.383"/>
	<line style="fill:none;stroke:#000000;stroke-miterlimit:1;" x1="77.07" y1="2.383" x2="78.924" y2="0.794"/>
	<line style="fill:none;stroke:#000000;stroke-miterlimit:1;" x1="78.924" y1="0.794" x2="82.102" y2="0.53"/>
	<line style="fill:none;stroke:#000000;stroke-miterlimit:1;" x1="82.102" y1="0.53" x2="83.162" y2="0.794"/>
	<line style="fill:none;stroke:#000000;stroke-miterlimit:1;" x1="83.162" y1="0.794" x2="84.75" y2="1.854"/>
	<line style="fill:none;stroke:#000000;stroke-miterlimit:1;" x1="84.75" y1="1.854" x2="85.545" y2="4.502"/>
	<line style="fill:none;stroke:#000000;stroke-miterlimit:1;" x1="75.217" y1="55.353" x2="85.279" y2="5.562"/>
	<line style="fill:none;stroke:#000000;stroke-miterlimit:1;" x1="85.279" y1="5.562" x2="86.34" y2="2.913"/>
	<line style="fill:none;stroke:#000000;stroke-miterlimit:1;" x1="86.34" y1="2.913" x2="87.398" y2="1.324"/>
	<line style="fill:none;stroke:#000000;stroke-miterlimit:1;" x1="87.398" y1="1.324" x2="89.783" y2="0.265"/>
	<line style="fill:none;stroke:#000000;stroke-miterlimit:1;" x1="89.783" y1="0.265" x2="92.695" y2="0.794"/>
	<line style="fill:none;stroke:#000000;stroke-miterlimit:1;" x1="92.695" y1="0.794" x2="94.814" y2="2.119"/>
	<line style="fill:none;stroke:#000000;stroke-miterlimit:1;" x1="94.814" y1="2.119" x2="95.609" y2="3.973"/>
	<line style="fill:none;stroke:#000000;stroke-miterlimit:1;" x1="85.545" y1="55.353" x2="95.08" y2="5.827"/>
	<line style="fill:none;stroke:#000000;stroke-miterlimit:1;" x1="95.08" y1="5.827" x2="95.873" y2="3.178"/>
	<line style="fill:none;stroke:#000000;stroke-miterlimit:1;" x1="95.873" y1="3.178" x2="97.463" y2="1.059"/>
	<line style="fill:none;stroke:#000000;stroke-miterlimit:1;" x1="97.463" y1="1.059" x2="100.111" y2="0.53"/>
	<line style="fill:none;stroke:#000000;stroke-miterlimit:1;" x1="100.111" y1="0.53" x2="100.641" y2="0.265"/>
	<line style="fill:none;stroke:#000000;stroke-miterlimit:1;" x1="100.641" y1="0.265" x2="103.025" y2="1.324"/>
	<line style="fill:none;stroke:#000000;stroke-miterlimit:1;" x1="103.025" y1="1.324" x2="104.613" y2="2.913"/>
	<line style="fill:none;stroke:#000000;stroke-miterlimit:1;" x1="104.613" y1="2.913" x2="104.613" y2="4.502"/>
	<line style="fill:none;stroke:#000000;stroke-miterlimit:1;" x1="94.549" y1="55.353" x2="104.613" y2="4.237"/>
	<line style="fill:none;stroke:#000000;stroke-miterlimit:1;" x1="104.613" y1="4.237" x2="105.674" y2="2.119"/>
	<line style="fill:none;stroke:#000000;stroke-miterlimit:1;" x1="105.674" y1="2.119" x2="106.998" y2="0.794"/>
	<line style="fill:none;stroke:#000000;stroke-miterlimit:1;" x1="106.998" y1="0.794" x2="108.586" y2="0.53"/>
	<line style="fill:none;stroke:#000000;stroke-miterlimit:1;" x1="108.586" y1="0.53" x2="110.971" y2="0.53"/>
	<line style="fill:none;stroke:#000000;stroke-miterlimit:1;" x1="110.971" y1="0.53" x2="113.088" y2="1.324"/>
	<line style="fill:none;stroke:#000000;stroke-miterlimit:1;" x1="113.088" y1="1.324" x2="114.148" y2="2.913"/>
	<line style="fill:none;stroke:#000000;stroke-miterlimit:1;" x1="114.148" y1="2.913" x2="114.678" y2="5.562"/>
	<line style="fill:none;stroke:#000000;stroke-miterlimit:1;" x1="114.678" y1="5.562" x2="104.35" y2="55.353"/>
	<line style="fill:none;stroke:#000000;stroke-miterlimit:1;" x1="104.35" y1="55.353" x2="31.251" y2="55.353"/>
	<line style="fill:none;stroke:#000000;stroke-miterlimit:1;" x1="31.251" y1="55.353" x2="31.251" y2="58.795"/>
	<line style="fill:none;stroke:#000000;stroke-miterlimit:1;" x1="31.251" y1="58.795" x2="27.544" y2="59.325"/>
	<line style="fill:none;stroke:#000000;stroke-miterlimit:1;" x1="27.544" y1="59.325" x2="22.512" y2="60.914"/>
	<line style="fill:none;stroke:#000000;stroke-miterlimit:1;" x1="22.512" y1="60.914" x2="18.804" y2="63.033"/>
	<line style="fill:none;stroke:#000000;stroke-miterlimit:1;" x1="18.804" y1="63.033" x2="14.566" y2="66.476"/>
	<line style="fill:none;stroke:#000000;stroke-miterlimit:1;" x1="14.566" y1="66.476" x2="10.594" y2="70.713"/>
	<line style="fill:none;stroke:#000000;stroke-miterlimit:1;" x1="10.594" y1="70.713" x2="4.502" y2="81.043"/>
	<line style="fill:none;stroke:#000000;stroke-miterlimit:1;" x1="4.502" y1="81.043" x2="2.648" y2="87.133"/>
	<line style="fill:none;stroke:#000000;stroke-miterlimit:1;" x1="2.648" y1="87.133" x2="0.794" y2="93.49"/>
	<line style="fill:none;stroke:#000000;stroke-miterlimit:1;" x1="0.794" y1="93.49" x2="0" y2="104.084"/>
	<line style="fill:none;stroke:#000000;stroke-miterlimit:1;" x1="0" y1="104.084" x2="0.794" y2="109.646"/>
	<line style="fill:none;stroke:#000000;stroke-miterlimit:1;" x1="0.794" y1="109.646" x2="3.443" y2="115.736"/>
	<line style="fill:none;stroke:#000000;stroke-miterlimit:1;" x1="3.443" y1="115.736" x2="6.356" y2="118.65"/>
	<line style="fill:none;stroke:#000000;stroke-miterlimit:1;" x1="6.356" y1="118.65" x2="8.475" y2="119.18"/>
	<line style="fill:none;stroke:#000000;stroke-miterlimit:1;" x1="8.475" y1="119.18" x2="12.183" y2="118.916"/>
	<line style="fill:none;stroke:#000000;stroke-miterlimit:1;" x1="12.183" y1="118.916" x2="15.361" y2="116.531"/>
	<line style="fill:none;stroke:#000000;stroke-miterlimit:1;" x1="15.361" y1="116.531" x2="16.42" y2="113.619"/>
	<line style="fill:none;stroke:#000000;stroke-miterlimit:1;" x1="16.42" y1="113.619" x2="16.95" y2="110.439"/>
	<line style="fill:none;stroke:#000000;stroke-miterlimit:1;" x1="16.95" y1="110.439" x2="17.215" y2="108.057"/>
	<line style="fill:none;stroke:#000000;stroke-miterlimit:1;" x1="17.215" y1="108.057" x2="16.42" y2="99.846"/>
	<line style="fill:none;stroke:#000000;stroke-miterlimit:1;" x1="16.42" y1="99.846" x2="15.096" y2="90.842"/>
	<line style="fill:none;stroke:#000000;stroke-miterlimit:1;" x1="15.096" y1="90.842" x2="15.891" y2="81.836"/>
	<line style="fill:none;stroke:#000000;stroke-miterlimit:1;" x1="15.891" y1="81.836" x2="18.009" y2="75.215"/>
	<line style="fill:none;stroke:#000000;stroke-miterlimit:1;" x1="18.009" y1="75.215" x2="21.453" y2="69.654"/>
	<line style="fill:none;stroke:#000000;stroke-miterlimit:1;" x1="21.453" y1="69.654" x2="24.896" y2="65.681"/>
	<line style="fill:none;stroke:#000000;stroke-miterlimit:1;" x1="24.896" y1="65.681" x2="28.603" y2="64.092"/>
	<line style="fill:none;stroke:#000000;stroke-miterlimit:1;" x1="28.603" y1="64.092" x2="31.251" y2="63.828"/>
	<line style="fill:none;stroke:#000000;stroke-miterlimit:1;" x1="31.251" y1="63.828" x2="31.251" y2="66.211"/>
	<line style="fill:none;stroke:#000000;stroke-miterlimit:1;" x1="57.339" y1="97.529" x2="56.279" y2="94.881"/>
	<line style="fill:none;stroke:#000000;stroke-miterlimit:1;" x1="56.279" y1="94.881" x2="54.161" y2="90.643"/>
	<line style="fill:none;stroke:#000000;stroke-miterlimit:1;" x1="54.161" y1="90.643" x2="52.836" y2="88.523"/>
	<line style="fill:none;stroke:#000000;stroke-miterlimit:1;" x1="52.836" y1="88.523" x2="88.59" y2="88.523"/>
	<line style="fill:none;stroke:#000000;stroke-miterlimit:1;" x1="88.59" y1="88.523" x2="86.473" y2="92.232"/>
	<line style="fill:none;stroke:#000000;stroke-miterlimit:1;" x1="86.473" y1="92.232" x2="84.883" y2="95.939"/>
	<line style="fill:none;stroke:#000000;stroke-miterlimit:1;" x1="84.883" y1="95.939" x2="84.354" y2="97.529"/>
	<line style="fill:none;stroke:#000000;stroke-miterlimit:1;" x1="53.102" y1="107.857" x2="44.891" y2="103.355"/>
	<line style="fill:none;stroke:#000000;stroke-miterlimit:1;" x1="44.891" y1="103.355" x2="43.037" y2="109.711"/>
	<line style="fill:none;stroke:#000000;stroke-miterlimit:1;" x1="43.037" y1="109.711" x2="47.275" y2="112.891"/>
	<line style="fill:none;stroke:#000000;stroke-miterlimit:1;" x1="47.275" y1="112.891" x2="50.188" y2="115.008"/>
	<line style="fill:none;stroke:#000000;stroke-miterlimit:1;" x1="50.188" y1="115.008" x2="54.161" y2="119.246"/>
	<line style="fill:none;stroke:#000000;stroke-miterlimit:1;" x1="88.59" y1="107.857" x2="96.535" y2="103.355"/>
	<line style="fill:none;stroke:#000000;stroke-miterlimit:1;" x1="96.535" y1="103.355" x2="98.654" y2="109.977"/>
	<line style="fill:none;stroke:#000000;stroke-miterlimit:1;" x1="98.654" y1="109.977" x2="94.947" y2="112.096"/>
	<line style="fill:none;stroke:#000000;stroke-miterlimit:1;" x1="94.947" y1="112.096" x2="90.709" y2="116.068"/>
	<line style="fill:none;stroke:#000000;stroke-miterlimit:1;" x1="90.709" y1="116.068" x2="87.797" y2="119.246"/>
	<line style="fill:none;stroke:#000000;stroke-miterlimit:1;" x1="58.928" y1="116.068" x2="59.458" y2="114.479"/>
	<line style="fill:none;stroke:#000000;stroke-miterlimit:1;" x1="59.458" y1="114.479" x2="60.517" y2="112.625"/>
	<line style="fill:none;stroke:#000000;stroke-miterlimit:1;" x1="60.517" y1="112.625" x2="62.106" y2="110.771"/>
	<line style="fill:none;stroke:#000000;stroke-miterlimit:1;" x1="62.106" y1="110.771" x2="64.225" y2="108.918"/>
	<line style="fill:none;stroke:#000000;stroke-miterlimit:1;" x1="64.225" y1="108.918" x2="67.933" y2="107.594"/>
	<line style="fill:none;stroke:#000000;stroke-miterlimit:1;" x1="67.933" y1="107.594" x2="70.316" y2="107.328"/>
	<line style="fill:none;stroke:#000000;stroke-miterlimit:1;" x1="70.316" y1="107.328" x2="73.23" y2="107.594"/>
	<line style="fill:none;stroke:#000000;stroke-miterlimit:1;" x1="73.23" y1="107.594" x2="76.408" y2="108.652"/>
	<line style="fill:none;stroke:#000000;stroke-miterlimit:1;" x1="76.408" y1="108.652" x2="79.057" y2="110.242"/>
	<line style="fill:none;stroke:#000000;stroke-miterlimit:1;" x1="79.057" y1="110.242" x2="80.381" y2="112.096"/>
	<line style="fill:none;stroke:#000000;stroke-miterlimit:1;" x1="80.381" y1="112.096" x2="81.705" y2="113.684"/>
	<line style="fill:none;stroke:#000000;stroke-miterlimit:1;" x1="81.705" y1="113.684" x2="82.764" y2="116.598"/>
	<line style="fill:none;stroke:#000000;stroke-miterlimit:1;" x1="82.764" y1="116.598" x2="78.527" y2="113.949"/>
	<line style="fill:none;stroke:#000000;stroke-miterlimit:1;" x1="78.527" y1="113.949" x2="75.348" y2="112.891"/>
	<line style="fill:none;stroke:#000000;stroke-miterlimit:1;" x1="75.348" y1="112.891" x2="72.699" y2="112.096"/>
	<line style="fill:none;stroke:#000000;stroke-miterlimit:1;" x1="72.699" y1="112.096" x2="70.581" y2="111.83"/>
	<line style="fill:none;stroke:#000000;stroke-miterlimit:1;" x1="70.581" y1="111.83" x2="67.933" y2="112.359"/>
	<line style="fill:none;stroke:#000000;stroke-miterlimit:1;" x1="67.933" y1="112.359" x2="65.284" y2="112.891"/>
	<line style="fill:none;stroke:#000000;stroke-miterlimit:1;" x1="65.284" y1="112.891" x2="62.106" y2="114.479"/>
	<line style="fill:none;stroke:#000000;stroke-miterlimit:1;" x1="62.106" y1="114.479" x2="59.987" y2="116.068"/>
	<line style="fill:none;stroke:#000000;stroke-miterlimit:1;" x1="59.987" y1="116.068" x2="58.928" y2="116.598"/>
	<line style="fill:none;stroke:#000000;stroke-miterlimit:1;" x1="60.517" y1="144.406" x2="64.754" y2="127.191"/>
	<line style="fill:none;stroke:#000000;stroke-miterlimit:1;" x1="64.754" y1="127.191" x2="66.608" y2="124.809"/>
	<line style="fill:none;stroke:#000000;stroke-miterlimit:1;" x1="66.608" y1="124.809" x2="68.462" y2="124.014"/>
	<line style="fill:none;stroke:#000000;stroke-miterlimit:1;" x1="68.462" y1="124.014" x2="70.581" y2="123.484"/>
	<line style="fill:none;stroke:#000000;stroke-miterlimit:1;" x1="70.581" y1="123.484" x2="73.494" y2="124.014"/>
	<line style="fill:none;stroke:#000000;stroke-miterlimit:1;" x1="73.494" y1="124.014" x2="75.613" y2="125.602"/>
	<line style="fill:none;stroke:#000000;stroke-miterlimit:1;" x1="75.613" y1="125.602" x2="76.672" y2="127.457"/>
	<line style="fill:none;stroke:#000000;stroke-miterlimit:1;" x1="76.672" y1="127.457" x2="81.176" y2="144.672"/>
	<line style="fill:none;stroke:#000000;stroke-miterlimit:1;" x1="71.111" y1="148.113" x2="67.138" y2="147.85"/>
	<line style="fill:none;stroke:#000000;stroke-miterlimit:1;" x1="67.138" y1="147.85" x2="65.284" y2="147.32"/>
	<line style="fill:none;stroke:#000000;stroke-miterlimit:1;" x1="65.284" y1="147.32" x2="63.695" y2="147.055"/>
	<line style="fill:none;stroke:#000000;stroke-miterlimit:1;" x1="63.695" y1="147.055" x2="61.047" y2="145.73"/>
	<line style="fill:none;stroke:#000000;stroke-miterlimit:1;" x1="61.047" y1="145.73" x2="59.193" y2="143.348"/>
	<line style="fill:none;stroke:#000000;stroke-miterlimit:1;" x1="59.193" y1="143.348" x2="57.604" y2="140.963"/>
	<line style="fill:none;stroke:#000000;stroke-miterlimit:1;" x1="57.604" y1="140.963" x2="56.544" y2="138.314"/>
	<line style="fill:none;stroke:#000000;stroke-miterlimit:1;" x1="56.544" y1="138.314" x2="55.75" y2="135.137"/>
	<line style="fill:none;stroke:#000000;stroke-miterlimit:1;" x1="55.75" y1="135.137" x2="54.69" y2="130.898"/>
	<line style="fill:none;stroke:#000000;stroke-miterlimit:1;" x1="54.69" y1="130.898" x2="53.102" y2="108.652"/>
	<line style="fill:none;stroke:#000000;stroke-miterlimit:1;" x1="53.102" y1="108.652" x2="53.366" y2="104.68"/>
	<line style="fill:none;stroke:#000000;stroke-miterlimit:1;" x1="53.366" y1="104.68" x2="53.896" y2="102.826"/>
	<line style="fill:none;stroke:#000000;stroke-miterlimit:1;" x1="53.896" y1="102.826" x2="54.161" y2="101.236"/>
	<line style="fill:none;stroke:#000000;stroke-miterlimit:1;" x1="54.161" y1="101.236" x2="55.485" y2="99.117"/>
	<line style="fill:none;stroke:#000000;stroke-miterlimit:1;" x1="55.485" y1="99.117" x2="57.074" y2="97.529"/>
	<line style="fill:none;stroke:#000000;stroke-miterlimit:1;" x1="57.074" y1="97.529" x2="59.723" y2="95.939"/>
	<line style="fill:none;stroke:#000000;stroke-miterlimit:1;" x1="59.723" y1="95.939" x2="62.106" y2="95.145"/>
	<line style="fill:none;stroke:#000000;stroke-miterlimit:1;" x1="62.106" y1="95.145" x2="64.225" y2="94.881"/>
	<line style="fill:none;stroke:#000000;stroke-miterlimit:1;" x1="64.225" y1="94.881" x2="70.581" y2="94.352"/>
	<line style="fill:none;stroke:#000000;stroke-miterlimit:1;" x1="70.581" y1="94.352" x2="77.996" y2="94.881"/>
	<line style="fill:none;stroke:#000000;stroke-miterlimit:1;" x1="77.996" y1="94.881" x2="81.176" y2="95.41"/>
	<line style="fill:none;stroke:#000000;stroke-miterlimit:1;" x1="81.176" y1="95.41" x2="83.824" y2="97"/>
	<line style="fill:none;stroke:#000000;stroke-miterlimit:1;" x1="83.824" y1="97" x2="85.412" y2="98.059"/>
	<line style="fill:none;stroke:#000000;stroke-miterlimit:1;" x1="85.412" y1="98.059" x2="86.736" y2="100.178"/>
	<line style="fill:none;stroke:#000000;stroke-miterlimit:1;" x1="86.736" y1="100.178" x2="88.061" y2="104.414"/>
	<line style="fill:none;stroke:#000000;stroke-miterlimit:1;" x1="88.061" y1="104.414" x2="88.326" y2="107.857"/>
	<line style="fill:none;stroke:#000000;stroke-miterlimit:1;" x1="88.326" y1="107.857" x2="87.002" y2="127.191"/>
	<line style="fill:none;stroke:#000000;stroke-miterlimit:1;" x1="87.002" y1="127.191" x2="86.473" y2="132.488"/>
	<line style="fill:none;stroke:#000000;stroke-miterlimit:1;" x1="86.473" y1="132.488" x2="84.883" y2="138.314"/>
	<line style="fill:none;stroke:#000000;stroke-miterlimit:1;" x1="84.883" y1="138.314" x2="83.824" y2="140.963"/>
	<line style="fill:none;stroke:#000000;stroke-miterlimit:1;" x1="83.824" y1="140.963" x2="82.234" y2="143.611"/>
	<line style="fill:none;stroke:#000000;stroke-miterlimit:1;" x1="82.234" y1="143.611" x2="81.176" y2="144.936"/>
	<line style="fill:none;stroke:#000000;stroke-miterlimit:1;" x1="81.176" y1="144.936" x2="79.586" y2="146.26"/>
	<line style="fill:none;stroke:#000000;stroke-miterlimit:1;" x1="79.586" y1="146.26" x2="77.732" y2="147.32"/>
	<line style="fill:none;stroke:#000000;stroke-miterlimit:1;" x1="77.732" y1="147.32" x2="75.348" y2="147.85"/>
	<line style="fill:none;stroke:#000000;stroke-miterlimit:1;" x1="75.348" y1="147.85" x2="71.111" y2="148.113"/>
</g>
</svg>
