<?xml version="1.0" encoding="iso-8859-1"?>
<!-- Generator: Adobe Illustrator 16.0.1, SVG Export Plug-In . SVG Version: 6.00 Build 0)  -->
<!DOCTYPE svg PUBLIC "-//W3C//DTD SVG 1.1//EN" "http://www.w3.org/Graphics/SVG/1.1/DTD/svg11.dtd">
<svg version="1.1" id="Ebene_1" xmlns="http://www.w3.org/2000/svg" xmlns:xlink="http://www.w3.org/1999/xlink" x="0px" y="0px"
	 width="314.258px" height="148.155px" viewBox="0 0 314.258 148.155" style="enable-background:new 0 0 314.258 148.155;"
	 xml:space="preserve">
<g>
	<line style="fill:none;stroke:#000000;stroke-miterlimit:1;" x1="81.627" y1="39.538" x2="74.386" y2="38.88"/>
	<line style="fill:none;stroke:#000000;stroke-miterlimit:1;" x1="74.386" y1="38.88" x2="62.866" y2="39.538"/>
	<line style="fill:none;stroke:#000000;stroke-miterlimit:1;" x1="62.866" y1="39.538" x2="54.309" y2="38.551"/>
	<line style="fill:none;stroke:#000000;stroke-miterlimit:1;" x1="54.309" y1="38.551" x2="51.676" y2="39.538"/>
	<line style="fill:none;stroke:#000000;stroke-miterlimit:1;" x1="51.676" y1="39.538" x2="49.701" y2="42.171"/>
	<line style="fill:none;stroke:#000000;stroke-miterlimit:1;" x1="49.701" y1="42.171" x2="50.359" y2="46.779"/>
	<line style="fill:none;stroke:#000000;stroke-miterlimit:1;" x1="50.359" y1="46.779" x2="54.309" y2="58.958"/>
	<line style="fill:none;stroke:#000000;stroke-miterlimit:1;" x1="54.309" y1="58.958" x2="55.955" y2="62.249"/>
	<line style="fill:none;stroke:#000000;stroke-miterlimit:1;" x1="55.955" y1="62.249" x2="59.904" y2="67.515"/>
	<line style="fill:none;stroke:#000000;stroke-miterlimit:1;" x1="59.904" y1="67.515" x2="69.778" y2="79.693"/>
	<line style="fill:none;stroke:#000000;stroke-miterlimit:1;" x1="69.778" y1="79.693" x2="90.844" y2="101.746"/>
	<line style="fill:none;stroke:#000000;stroke-miterlimit:1;" x1="90.844" y1="101.746" x2="105.984" y2="115.899"/>
	<line style="fill:none;stroke:#000000;stroke-miterlimit:1;" x1="105.984" y1="115.899" x2="138.24" y2="147.497"/>
	<line style="fill:none;stroke:#000000;stroke-miterlimit:1;" x1="138.24" y1="147.497" x2="141.532" y2="147.497"/>
	<line style="fill:none;stroke:#000000;stroke-miterlimit:1;" x1="141.532" y1="147.497" x2="142.519" y2="145.852"/>
	<line style="fill:none;stroke:#000000;stroke-miterlimit:1;" x1="142.519" y1="145.852" x2="141.203" y2="142.889"/>
	<line style="fill:none;stroke:#000000;stroke-miterlimit:1;" x1="141.203" y1="142.889" x2="127.378" y2="111.291"/>
	<line style="fill:none;stroke:#000000;stroke-miterlimit:1;" x1="127.378" y1="111.291" x2="125.403" y2="105.366"/>
	<line style="fill:none;stroke:#000000;stroke-miterlimit:1;" x1="125.403" y1="105.366" x2="120.137" y2="92.201"/>
	<line style="fill:none;stroke:#000000;stroke-miterlimit:1;" x1="120.137" y1="92.201" x2="118.492" y2="88.909"/>
	<line style="fill:none;stroke:#000000;stroke-miterlimit:1;" x1="118.492" y1="88.909" x2="114.213" y2="80.022"/>
	<line style="fill:none;stroke:#000000;stroke-miterlimit:1;" x1="114.213" y1="80.022" x2="106.313" y2="66.528"/>
	<line style="fill:none;stroke:#000000;stroke-miterlimit:1;" x1="106.313" y1="66.528" x2="98.085" y2="53.033"/>
	<line style="fill:none;stroke:#000000;stroke-miterlimit:1;" x1="98.085" y1="53.033" x2="92.489" y2="45.462"/>
	<line style="fill:none;stroke:#000000;stroke-miterlimit:1;" x1="92.489" y1="45.462" x2="87.552" y2="38.222"/>
	<line style="fill:none;stroke:#000000;stroke-miterlimit:1;" x1="87.552" y1="38.222" x2="82.615" y2="31.639"/>
	<line style="fill:none;stroke:#000000;stroke-miterlimit:1;" x1="82.615" y1="31.639" x2="76.69" y2="24.727"/>
	<line style="fill:none;stroke:#000000;stroke-miterlimit:1;" x1="76.69" y1="24.727" x2="70.766" y2="20.777"/>
	<line style="fill:none;stroke:#000000;stroke-miterlimit:1;" x1="70.766" y1="20.777" x2="69.12" y2="13.865"/>
	<line style="fill:none;stroke:#000000;stroke-miterlimit:1;" x1="69.12" y1="13.865" x2="67.804" y2="6.294"/>
	<line style="fill:none;stroke:#000000;stroke-miterlimit:1;" x1="67.804" y1="6.294" x2="65.829" y2="1.357"/>
	<line style="fill:none;stroke:#000000;stroke-miterlimit:1;" x1="65.829" y1="1.357" x2="60.233" y2="0.041"/>
	<line style="fill:none;stroke:#000000;stroke-miterlimit:1;" x1="60.233" y1="0.041" x2="51.017" y2="0.041"/>
	<line style="fill:none;stroke:#000000;stroke-miterlimit:1;" x1="51.017" y1="0.041" x2="40.814" y2="0.37"/>
	<line style="fill:none;stroke:#000000;stroke-miterlimit:1;" x1="40.814" y1="0.37" x2="35.877" y2="1.687"/>
	<line style="fill:none;stroke:#000000;stroke-miterlimit:1;" x1="35.877" y1="1.687" x2="33.573" y2="2.345"/>
	<line style="fill:none;stroke:#000000;stroke-miterlimit:1;" x1="33.573" y1="2.345" x2="16.787" y2="4.649"/>
	<line style="fill:none;stroke:#000000;stroke-miterlimit:1;" x1="16.787" y1="4.649" x2="11.849" y2="6.953"/>
	<line style="fill:none;stroke:#000000;stroke-miterlimit:1;" x1="11.849" y1="6.953" x2="10.204" y2="9.257"/>
	<line style="fill:none;stroke:#000000;stroke-miterlimit:1;" x1="10.204" y1="9.257" x2="9.875" y2="13.865"/>
	<line style="fill:none;stroke:#000000;stroke-miterlimit:1;" x1="9.875" y1="13.865" x2="11.849" y2="10.573"/>
	<line style="fill:none;stroke:#000000;stroke-miterlimit:1;" x1="11.849" y1="10.573" x2="15.141" y2="8.928"/>
	<line style="fill:none;stroke:#000000;stroke-miterlimit:1;" x1="15.141" y1="8.928" x2="25.015" y2="8.928"/>
	<line style="fill:none;stroke:#000000;stroke-miterlimit:1;" x1="25.015" y1="8.928" x2="35.218" y2="9.257"/>
	<line style="fill:none;stroke:#000000;stroke-miterlimit:1;" x1="35.218" y1="9.257" x2="40.485" y2="10.573"/>
	<line style="fill:none;stroke:#000000;stroke-miterlimit:1;" x1="40.485" y1="10.573" x2="36.206" y2="5.307"/>
	<line style="fill:none;stroke:#000000;stroke-miterlimit:1;" x1="36.206" y1="5.307" x2="35.218" y2="1.687"/>
	<line style="fill:none;stroke:#000000;stroke-miterlimit:1;" x1="46.08" y1="8.599" x2="47.067" y2="8.27"/>
	<line style="fill:none;stroke:#000000;stroke-miterlimit:1;" x1="47.067" y1="8.27" x2="47.726" y2="6.624"/>
	<line style="fill:none;stroke:#000000;stroke-miterlimit:1;" x1="47.726" y1="6.624" x2="47.067" y2="4.978"/>
	<line style="fill:none;stroke:#000000;stroke-miterlimit:1;" x1="47.067" y1="4.978" x2="45.751" y2="3.991"/>
	<line style="fill:none;stroke:#000000;stroke-miterlimit:1;" x1="45.751" y1="3.991" x2="44.435" y2="4.978"/>
	<line style="fill:none;stroke:#000000;stroke-miterlimit:1;" x1="44.435" y1="4.978" x2="44.105" y2="6.953"/>
	<line style="fill:none;stroke:#000000;stroke-miterlimit:1;" x1="44.105" y1="6.953" x2="44.764" y2="7.94"/>
	<line style="fill:none;stroke:#000000;stroke-miterlimit:1;" x1="44.764" y1="7.94" x2="45.751" y2="8.599"/>
	<line style="fill:none;stroke:#000000;stroke-miterlimit:1;" x1="11.52" y1="11.89" x2="24.686" y2="11.561"/>
	<line style="fill:none;stroke:#000000;stroke-miterlimit:1;" x1="24.686" y1="11.561" x2="34.889" y2="12.877"/>
	<line style="fill:none;stroke:#000000;stroke-miterlimit:1;" x1="34.889" y1="12.877" x2="37.852" y2="14.523"/>
	<line style="fill:none;stroke:#000000;stroke-miterlimit:1;" x1="37.852" y1="14.523" x2="38.839" y2="17.814"/>
	<line style="fill:none;stroke:#000000;stroke-miterlimit:1;" x1="38.839" y1="17.814" x2="39.168" y2="21.435"/>
	<line style="fill:none;stroke:#000000;stroke-miterlimit:1;" x1="39.168" y1="21.435" x2="36.206" y2="28.676"/>
	<line style="fill:none;stroke:#000000;stroke-miterlimit:1;" x1="36.206" y1="28.676" x2="34.889" y2="37.563"/>
	<line style="fill:none;stroke:#000000;stroke-miterlimit:1;" x1="34.889" y1="37.563" x2="36.535" y2="48.425"/>
	<line style="fill:none;stroke:#000000;stroke-miterlimit:1;" x1="36.535" y1="48.425" x2="37.852" y2="53.362"/>
	<line style="fill:none;stroke:#000000;stroke-miterlimit:1;" x1="37.852" y1="53.362" x2="39.827" y2="59.287"/>
	<line style="fill:none;stroke:#000000;stroke-miterlimit:1;" x1="39.827" y1="59.287" x2="41.143" y2="61.92"/>
	<line style="fill:none;stroke:#000000;stroke-miterlimit:1;" x1="41.143" y1="61.92" x2="45.751" y2="71.136"/>
	<line style="fill:none;stroke:#000000;stroke-miterlimit:1;" x1="45.751" y1="71.136" x2="62.537" y2="101.417"/>
	<line style="fill:none;stroke:#000000;stroke-miterlimit:1;" x1="62.537" y1="101.417" x2="69.449" y2="114.254"/>
	<line style="fill:none;stroke:#000000;stroke-miterlimit:1;" x1="69.449" y1="114.254" x2="70.766" y2="124.128"/>
	<line style="fill:none;stroke:#000000;stroke-miterlimit:1;" x1="70.766" y1="124.128" x2="69.12" y2="140.914"/>
	<line style="fill:none;stroke:#000000;stroke-miterlimit:1;" x1="69.12" y1="140.914" x2="67.475" y2="142.56"/>
	<line style="fill:none;stroke:#000000;stroke-miterlimit:1;" x1="67.475" y1="142.56" x2="57.929" y2="143.547"/>
	<line style="fill:none;stroke:#000000;stroke-miterlimit:1;" x1="57.929" y1="143.547" x2="46.738" y2="143.218"/>
	<line style="fill:none;stroke:#000000;stroke-miterlimit:1;" x1="46.738" y1="143.218" x2="46.08" y2="144.864"/>
	<line style="fill:none;stroke:#000000;stroke-miterlimit:1;" x1="46.08" y1="144.864" x2="41.143" y2="145.522"/>
	<line style="fill:none;stroke:#000000;stroke-miterlimit:1;" x1="41.143" y1="145.522" x2="40.485" y2="146.51"/>
	<line style="fill:none;stroke:#000000;stroke-miterlimit:1;" x1="40.485" y1="146.51" x2="41.472" y2="147.826"/>
	<line style="fill:none;stroke:#000000;stroke-miterlimit:1;" x1="41.472" y1="147.826" x2="69.778" y2="146.839"/>
	<line style="fill:none;stroke:#000000;stroke-miterlimit:1;" x1="69.778" y1="146.839" x2="99.072" y2="148.155"/>
	<line style="fill:none;stroke:#000000;stroke-miterlimit:1;" x1="99.072" y1="148.155" x2="100.389" y2="146.839"/>
	<line style="fill:none;stroke:#000000;stroke-miterlimit:1;" x1="100.389" y1="146.839" x2="99.73" y2="145.192"/>
	<line style="fill:none;stroke:#000000;stroke-miterlimit:1;" x1="99.73" y1="145.192" x2="95.123" y2="145.192"/>
	<line style="fill:none;stroke:#000000;stroke-miterlimit:1;" x1="95.123" y1="145.192" x2="92.489" y2="142.889"/>
	<line style="fill:none;stroke:#000000;stroke-miterlimit:1;" x1="92.489" y1="142.889" x2="75.703" y2="142.56"/>
	<line style="fill:none;stroke:#000000;stroke-miterlimit:1;" x1="75.703" y1="142.56" x2="73.728" y2="141.243"/>
	<line style="fill:none;stroke:#000000;stroke-miterlimit:1;" x1="73.728" y1="141.243" x2="75.703" y2="120.507"/>
	<line style="fill:none;stroke:#000000;stroke-miterlimit:1;" x1="75.703" y1="120.507" x2="87.881" y2="126.761"/>
	<line style="fill:none;stroke:#000000;stroke-miterlimit:1;" x1="87.881" y1="126.761" x2="94.793" y2="106.354"/>
	<line style="fill:none;stroke:#000000;stroke-miterlimit:1;" x1="94.793" y1="106.354" x2="107.959" y2="139.269"/>
	<line style="fill:none;stroke:#000000;stroke-miterlimit:1;" x1="107.959" y1="139.269" x2="112.567" y2="145.192"/>
	<line style="fill:none;stroke:#000000;stroke-miterlimit:1;" x1="112.567" y1="145.192" x2="117.175" y2="147.826"/>
	<line style="fill:none;stroke:#000000;stroke-miterlimit:1;" x1="117.175" y1="147.826" x2="124.087" y2="147.826"/>
	<line style="fill:none;stroke:#000000;stroke-miterlimit:1;" x1="124.087" y1="147.826" x2="128.037" y2="146.51"/>
	<line style="fill:none;stroke:#000000;stroke-miterlimit:1;" x1="128.037" y1="146.51" x2="129.024" y2="144.534"/>
	<line style="fill:none;stroke:#000000;stroke-miterlimit:1;" x1="129.024" y1="144.534" x2="125.733" y2="135.647"/>
	<line style="fill:none;stroke:#000000;stroke-miterlimit:1;" x1="44.105" y1="68.832" x2="46.738" y2="78.706"/>
	<line style="fill:none;stroke:#000000;stroke-miterlimit:1;" x1="46.738" y1="78.706" x2="47.726" y2="88.909"/>
	<line style="fill:none;stroke:#000000;stroke-miterlimit:1;" x1="47.726" y1="88.909" x2="48.055" y2="92.859"/>
	<line style="fill:none;stroke:#000000;stroke-miterlimit:1;" x1="48.055" y1="92.859" x2="48.055" y2="111.291"/>
	<line style="fill:none;stroke:#000000;stroke-miterlimit:1;" x1="48.055" y1="111.291" x2="44.764" y2="130.053"/>
	<line style="fill:none;stroke:#000000;stroke-miterlimit:1;" x1="44.764" y1="130.053" x2="41.801" y2="139.598"/>
	<line style="fill:none;stroke:#000000;stroke-miterlimit:1;" x1="41.801" y1="139.598" x2="39.827" y2="141.901"/>
	<line style="fill:none;stroke:#000000;stroke-miterlimit:1;" x1="39.827" y1="141.901" x2="24.027" y2="142.889"/>
	<line style="fill:none;stroke:#000000;stroke-miterlimit:1;" x1="24.027" y1="142.889" x2="22.382" y2="145.192"/>
	<line style="fill:none;stroke:#000000;stroke-miterlimit:1;" x1="22.382" y1="145.192" x2="18.761" y2="145.522"/>
	<line style="fill:none;stroke:#000000;stroke-miterlimit:1;" x1="18.761" y1="145.522" x2="17.445" y2="146.51"/>
	<line style="fill:none;stroke:#000000;stroke-miterlimit:1;" x1="17.445" y1="146.51" x2="18.761" y2="147.826"/>
	<line style="fill:none;stroke:#000000;stroke-miterlimit:1;" x1="18.761" y1="147.826" x2="30.939" y2="146.839"/>
	<line style="fill:none;stroke:#000000;stroke-miterlimit:1;" x1="30.939" y1="146.839" x2="34.56" y2="147.168"/>
	<line style="fill:none;stroke:#000000;stroke-miterlimit:1;" x1="46.409" y1="143.218" x2="40.814" y2="143.876"/>
	<line style="fill:none;stroke:#000000;stroke-miterlimit:1;" x1="40.814" y1="143.876" x2="40.814" y2="143.876"/>
	<line style="fill:none;stroke:#000000;stroke-miterlimit:1;" x1="40.814" y1="143.876" x2="37.522" y2="144.534"/>
	<line style="fill:none;stroke:#000000;stroke-miterlimit:1;" x1="37.522" y1="144.534" x2="35.547" y2="147.168"/>
	<line style="fill:none;stroke:#000000;stroke-miterlimit:1;" x1="35.547" y1="147.168" x2="36.864" y2="147.826"/>
	<line style="fill:none;stroke:#000000;stroke-miterlimit:1;" x1="36.864" y1="147.826" x2="38.839" y2="145.852"/>
	<line style="fill:none;stroke:#000000;stroke-miterlimit:1;" x1="38.839" y1="145.852" x2="40.814" y2="145.522"/>
	<line style="fill:none;stroke:#000000;stroke-miterlimit:1;" x1="46.08" y1="142.889" x2="53.321" y2="115.899"/>
	<line style="fill:none;stroke:#000000;stroke-miterlimit:1;" x1="53.321" y1="115.899" x2="64.512" y2="122.482"/>
	<line style="fill:none;stroke:#000000;stroke-miterlimit:1;" x1="64.512" y1="122.482" x2="66.816" y2="110.304"/>
	<line style="fill:none;stroke:#000000;stroke-miterlimit:1;" x1="23.04" y1="143.218" x2="17.774" y2="143.876"/>
	<line style="fill:none;stroke:#000000;stroke-miterlimit:1;" x1="17.774" y1="143.876" x2="17.774" y2="143.876"/>
	<line style="fill:none;stroke:#000000;stroke-miterlimit:1;" x1="17.774" y1="143.876" x2="14.482" y2="144.534"/>
	<line style="fill:none;stroke:#000000;stroke-miterlimit:1;" x1="14.482" y1="144.534" x2="12.508" y2="147.168"/>
	<line style="fill:none;stroke:#000000;stroke-miterlimit:1;" x1="12.508" y1="147.168" x2="13.495" y2="147.826"/>
	<line style="fill:none;stroke:#000000;stroke-miterlimit:1;" x1="13.495" y1="147.826" x2="15.799" y2="145.852"/>
	<line style="fill:none;stroke:#000000;stroke-miterlimit:1;" x1="15.799" y1="145.852" x2="18.432" y2="145.522"/>
	<line style="fill:none;stroke:#000000;stroke-miterlimit:1;" x1="93.147" y1="142.889" x2="99.401" y2="143.547"/>
	<line style="fill:none;stroke:#000000;stroke-miterlimit:1;" x1="99.401" y1="143.547" x2="102.364" y2="144.534"/>
	<line style="fill:none;stroke:#000000;stroke-miterlimit:1;" x1="102.364" y1="144.534" x2="104.338" y2="147.168"/>
	<line style="fill:none;stroke:#000000;stroke-miterlimit:1;" x1="104.338" y1="147.168" x2="103.351" y2="147.826"/>
	<line style="fill:none;stroke:#000000;stroke-miterlimit:1;" x1="103.351" y1="147.826" x2="101.047" y2="145.852"/>
	<line style="fill:none;stroke:#000000;stroke-miterlimit:1;" x1="101.047" y1="145.852" x2="99.401" y2="145.522"/>
	<line style="fill:none;stroke:#000000;stroke-miterlimit:1;" x1="148.114" y1="58.958" x2="101.376" y2="58.958"/>
	<line style="fill:none;stroke:#000000;stroke-miterlimit:1;" x1="39.497" y1="58.958" x2="32.256" y2="58.958"/>
	<line style="fill:none;stroke:#000000;stroke-miterlimit:1;" x1="32.256" y1="58.958" x2="26.332" y2="60.274"/>
	<line style="fill:none;stroke:#000000;stroke-miterlimit:1;" x1="26.332" y1="60.274" x2="20.736" y2="62.907"/>
	<line style="fill:none;stroke:#000000;stroke-miterlimit:1;" x1="20.736" y1="62.907" x2="14.812" y2="67.186"/>
	<line style="fill:none;stroke:#000000;stroke-miterlimit:1;" x1="14.812" y1="67.186" x2="10.862" y2="70.478"/>
	<line style="fill:none;stroke:#000000;stroke-miterlimit:1;" x1="10.862" y1="70.478" x2="7.241" y2="74.427"/>
	<line style="fill:none;stroke:#000000;stroke-miterlimit:1;" x1="7.241" y1="74.427" x2="4.279" y2="78.377"/>
	<line style="fill:none;stroke:#000000;stroke-miterlimit:1;" x1="4.279" y1="78.377" x2="2.304" y2="82.326"/>
	<line style="fill:none;stroke:#000000;stroke-miterlimit:1;" x1="2.304" y1="82.326" x2="0.988" y2="86.276"/>
	<line style="fill:none;stroke:#000000;stroke-miterlimit:1;" x1="0.988" y1="86.276" x2="0.329" y2="89.567"/>
	<line style="fill:none;stroke:#000000;stroke-miterlimit:1;" x1="0.329" y1="89.567" x2="0" y2="92.53"/>
	<line style="fill:none;stroke:#000000;stroke-miterlimit:1;" x1="0" y1="92.53" x2="148.114" y2="92.53"/>
	<line style="fill:none;stroke:#000000;stroke-miterlimit:1;" x1="273.779" y1="63.689" x2="269.25" y2="58.594"/>
	<line style="fill:none;stroke:#000000;stroke-miterlimit:1;" x1="269.25" y1="58.594" x2="264.155" y2="54.915"/>
	<line style="fill:none;stroke:#000000;stroke-miterlimit:1;" x1="264.155" y1="54.915" x2="257.078" y2="50.952"/>
	<line style="fill:none;stroke:#000000;stroke-miterlimit:1;" x1="257.078" y1="50.952" x2="251.7" y2="48.97"/>
	<line style="fill:none;stroke:#000000;stroke-miterlimit:1;" x1="251.7" y1="48.97" x2="242.075" y2="47.272"/>
	<line style="fill:none;stroke:#000000;stroke-miterlimit:1;" x1="242.075" y1="47.272" x2="212.07" y2="45.856"/>
	<line style="fill:none;stroke:#000000;stroke-miterlimit:1;" x1="212.07" y1="45.856" x2="204.145" y2="43.875"/>
	<line style="fill:none;stroke:#000000;stroke-miterlimit:1;" x1="204.145" y1="43.875" x2="196.502" y2="41.327"/>
	<line style="fill:none;stroke:#000000;stroke-miterlimit:1;" x1="196.502" y1="41.327" x2="191.124" y2="37.364"/>
	<line style="fill:none;stroke:#000000;stroke-miterlimit:1;" x1="191.124" y1="37.364" x2="187.444" y2="34.534"/>
	<line style="fill:none;stroke:#000000;stroke-miterlimit:1;" x1="187.444" y1="34.534" x2="183.198" y2="31.137"/>
	<line style="fill:none;stroke:#000000;stroke-miterlimit:1;" x1="183.198" y1="31.137" x2="180.65" y2="26.891"/>
	<line style="fill:none;stroke:#000000;stroke-miterlimit:1;" x1="180.65" y1="26.891" x2="178.386" y2="22.079"/>
	<line style="fill:none;stroke:#000000;stroke-miterlimit:1;" x1="178.386" y1="22.079" x2="177.819" y2="17.55"/>
	<line style="fill:none;stroke:#000000;stroke-miterlimit:1;" x1="177.819" y1="17.55" x2="178.386" y2="13.587"/>
	<line style="fill:none;stroke:#000000;stroke-miterlimit:1;" x1="178.386" y1="13.587" x2="178.952" y2="11.889"/>
	<line style="fill:none;stroke:#000000;stroke-miterlimit:1;" x1="215.185" y1="17.267" x2="215.185" y2="21.513"/>
	<line style="fill:none;stroke:#000000;stroke-miterlimit:1;" x1="215.185" y1="21.513" x2="212.354" y2="25.476"/>
	<line style="fill:none;stroke:#000000;stroke-miterlimit:1;" x1="212.354" y1="25.476" x2="208.391" y2="27.74"/>
	<line style="fill:none;stroke:#000000;stroke-miterlimit:1;" x1="208.391" y1="27.74" x2="198.2" y2="25.476"/>
	<line style="fill:none;stroke:#000000;stroke-miterlimit:1;" x1="198.2" y1="25.476" x2="188.293" y2="20.38"/>
	<line style="fill:none;stroke:#000000;stroke-miterlimit:1;" x1="188.293" y1="20.38" x2="182.915" y2="16.417"/>
	<line style="fill:none;stroke:#000000;stroke-miterlimit:1;" x1="182.915" y1="16.417" x2="179.235" y2="11.889"/>
	<line style="fill:none;stroke:#000000;stroke-miterlimit:1;" x1="179.235" y1="11.889" x2="178.386" y2="7.359"/>
	<line style="fill:none;stroke:#000000;stroke-miterlimit:1;" x1="178.386" y1="7.359" x2="178.386" y2="4.812"/>
	<line style="fill:none;stroke:#000000;stroke-miterlimit:1;" x1="178.386" y1="4.812" x2="178.952" y2="0"/>
	<line style="fill:none;stroke:#000000;stroke-miterlimit:1;" x1="178.952" y1="0" x2="186.312" y2="5.095"/>
	<line style="fill:none;stroke:#000000;stroke-miterlimit:1;" x1="186.312" y1="5.095" x2="194.804" y2="9.907"/>
	<line style="fill:none;stroke:#000000;stroke-miterlimit:1;" x1="194.804" y1="9.907" x2="203.013" y2="13.587"/>
	<line style="fill:none;stroke:#000000;stroke-miterlimit:1;" x1="203.013" y1="13.587" x2="212.07" y2="16.417"/>
	<line style="fill:none;stroke:#000000;stroke-miterlimit:1;" x1="212.07" y1="16.417" x2="218.581" y2="17.55"/>
	<line style="fill:none;stroke:#000000;stroke-miterlimit:1;" x1="218.581" y1="17.55" x2="233.301" y2="18.399"/>
	<line style="fill:none;stroke:#000000;stroke-miterlimit:1;" x1="233.301" y1="18.399" x2="250.284" y2="19.814"/>
	<line style="fill:none;stroke:#000000;stroke-miterlimit:1;" x1="250.284" y1="19.814" x2="266.985" y2="22.645"/>
	<line style="fill:none;stroke:#000000;stroke-miterlimit:1;" x1="266.985" y1="22.645" x2="281.705" y2="28.306"/>
	<line style="fill:none;stroke:#000000;stroke-miterlimit:1;" x1="281.705" y1="28.306" x2="295.009" y2="36.798"/>
	<line style="fill:none;stroke:#000000;stroke-miterlimit:1;" x1="295.009" y1="36.798" x2="305.199" y2="48.121"/>
	<line style="fill:none;stroke:#000000;stroke-miterlimit:1;" x1="305.199" y1="48.121" x2="311.993" y2="59.443"/>
	<line style="fill:none;stroke:#000000;stroke-miterlimit:1;" x1="311.993" y1="59.443" x2="314.258" y2="63.407"/>
	<line style="fill:none;stroke:#000000;stroke-miterlimit:1;" x1="314.258" y1="63.407" x2="274.062" y2="63.407"/>
	<line style="fill:none;stroke:#000000;stroke-miterlimit:1;" x1="193.389" y1="137.641" x2="197.352" y2="147.548"/>
	<line style="fill:none;stroke:#000000;stroke-miterlimit:1;" x1="197.352" y1="147.548" x2="194.804" y2="148.114"/>
	<line style="fill:none;stroke:#000000;stroke-miterlimit:1;" x1="194.804" y1="148.114" x2="190.841" y2="137.641"/>
	<line style="fill:none;stroke:#000000;stroke-miterlimit:1;" x1="183.481" y1="116.128" x2="172.725" y2="83.858"/>
	<line style="fill:none;stroke:#000000;stroke-miterlimit:1;" x1="172.725" y1="83.858" x2="172.158" y2="79.329"/>
	<line style="fill:none;stroke:#000000;stroke-miterlimit:1;" x1="172.158" y1="79.329" x2="172.441" y2="76.498"/>
	<line style="fill:none;stroke:#000000;stroke-miterlimit:1;" x1="172.441" y1="76.498" x2="174.14" y2="74.517"/>
	<line style="fill:none;stroke:#000000;stroke-miterlimit:1;" x1="174.14" y1="74.517" x2="176.971" y2="72.818"/>
	<line style="fill:none;stroke:#000000;stroke-miterlimit:1;" x1="176.971" y1="72.818" x2="181.217" y2="71.686"/>
	<line style="fill:none;stroke:#000000;stroke-miterlimit:1;" x1="181.217" y1="71.686" x2="184.613" y2="72.252"/>
	<line style="fill:none;stroke:#000000;stroke-miterlimit:1;" x1="184.613" y1="72.252" x2="188.01" y2="74.517"/>
	<line style="fill:none;stroke:#000000;stroke-miterlimit:1;" x1="188.01" y1="74.517" x2="190.558" y2="79.046"/>
	<line style="fill:none;stroke:#000000;stroke-miterlimit:1;" x1="190.558" y1="79.046" x2="190.841" y2="83.858"/>
	<line style="fill:none;stroke:#000000;stroke-miterlimit:1;" x1="190.841" y1="83.858" x2="190.558" y2="85.84"/>
	<line style="fill:none;stroke:#000000;stroke-miterlimit:1;" x1="190.558" y1="85.84" x2="189.708" y2="88.387"/>
	<line style="fill:none;stroke:#000000;stroke-miterlimit:1;" x1="189.708" y1="88.387" x2="188.293" y2="90.086"/>
	<line style="fill:none;stroke:#000000;stroke-miterlimit:1;" x1="188.293" y1="90.086" x2="186.595" y2="89.52"/>
	<line style="fill:none;stroke:#000000;stroke-miterlimit:1;" x1="186.595" y1="89.52" x2="187.444" y2="86.405"/>
	<line style="fill:none;stroke:#000000;stroke-miterlimit:1;" x1="187.444" y1="86.405" x2="187.727" y2="84.142"/>
	<line style="fill:none;stroke:#000000;stroke-miterlimit:1;" x1="187.727" y1="84.142" x2="187.444" y2="81.594"/>
	<line style="fill:none;stroke:#000000;stroke-miterlimit:1;" x1="187.444" y1="81.594" x2="187.161" y2="80.178"/>
	<line style="fill:none;stroke:#000000;stroke-miterlimit:1;" x1="187.161" y1="80.178" x2="185.463" y2="77.348"/>
	<line style="fill:none;stroke:#000000;stroke-miterlimit:1;" x1="185.463" y1="77.348" x2="182.915" y2="75.366"/>
	<line style="fill:none;stroke:#000000;stroke-miterlimit:1;" x1="182.915" y1="75.366" x2="180.367" y2="75.366"/>
	<line style="fill:none;stroke:#000000;stroke-miterlimit:1;" x1="180.367" y1="75.366" x2="177.819" y2="75.933"/>
	<line style="fill:none;stroke:#000000;stroke-miterlimit:1;" x1="177.819" y1="75.933" x2="176.404" y2="77.631"/>
	<line style="fill:none;stroke:#000000;stroke-miterlimit:1;" x1="176.404" y1="77.631" x2="174.989" y2="80.461"/>
	<line style="fill:none;stroke:#000000;stroke-miterlimit:1;" x1="174.989" y1="80.461" x2="175.272" y2="82.726"/>
	<line style="fill:none;stroke:#000000;stroke-miterlimit:1;" x1="175.272" y1="82.726" x2="186.595" y2="116.128"/>
	<line style="fill:none;stroke:#000000;stroke-miterlimit:1;" x1="314.258" y1="134.81" x2="207.824" y2="134.81"/>
	<line style="fill:none;stroke:#000000;stroke-miterlimit:1;" x1="207.824" y1="134.81" x2="204.145" y2="135.093"/>
	<line style="fill:none;stroke:#000000;stroke-miterlimit:1;" x1="204.145" y1="135.093" x2="201.031" y2="135.942"/>
	<line style="fill:none;stroke:#000000;stroke-miterlimit:1;" x1="201.031" y1="135.942" x2="192.822" y2="137.641"/>
	<line style="fill:none;stroke:#000000;stroke-miterlimit:1;" x1="192.822" y1="137.641" x2="189.426" y2="137.641"/>
	<line style="fill:none;stroke:#000000;stroke-miterlimit:1;" x1="189.426" y1="137.641" x2="182.349" y2="137.641"/>
	<line style="fill:none;stroke:#000000;stroke-miterlimit:1;" x1="182.349" y1="137.641" x2="179.519" y2="136.226"/>
	<line style="fill:none;stroke:#000000;stroke-miterlimit:1;" x1="179.519" y1="136.226" x2="176.971" y2="134.81"/>
	<line style="fill:none;stroke:#000000;stroke-miterlimit:1;" x1="176.971" y1="134.81" x2="175.838" y2="133.678"/>
	<line style="fill:none;stroke:#000000;stroke-miterlimit:1;" x1="175.838" y1="133.678" x2="175.272" y2="130.847"/>
	<line style="fill:none;stroke:#000000;stroke-miterlimit:1;" x1="175.272" y1="130.847" x2="174.989" y2="126.318"/>
	<line style="fill:none;stroke:#000000;stroke-miterlimit:1;" x1="174.989" y1="126.318" x2="175.555" y2="122.921"/>
	<line style="fill:none;stroke:#000000;stroke-miterlimit:1;" x1="175.555" y1="122.921" x2="178.669" y2="120.656"/>
	<line style="fill:none;stroke:#000000;stroke-miterlimit:1;" x1="189.143" y1="120.939" x2="184.33" y2="121.223"/>
	<line style="fill:none;stroke:#000000;stroke-miterlimit:1;" x1="184.33" y1="121.223" x2="179.801" y2="120.939"/>
	<line style="fill:none;stroke:#000000;stroke-miterlimit:1;" x1="179.801" y1="120.939" x2="174.989" y2="119.524"/>
	<line style="fill:none;stroke:#000000;stroke-miterlimit:1;" x1="174.989" y1="119.524" x2="172.441" y2="117.826"/>
	<line style="fill:none;stroke:#000000;stroke-miterlimit:1;" x1="172.441" y1="117.826" x2="171.026" y2="116.128"/>
	<line style="fill:none;stroke:#000000;stroke-miterlimit:1;" x1="171.026" y1="116.128" x2="170.743" y2="114.429"/>
	<line style="fill:none;stroke:#000000;stroke-miterlimit:1;" x1="170.743" y1="114.429" x2="176.971" y2="116.128"/>
	<line style="fill:none;stroke:#000000;stroke-miterlimit:1;" x1="176.971" y1="116.128" x2="192.822" y2="116.411"/>
	<line style="fill:none;stroke:#000000;stroke-miterlimit:1;" x1="192.822" y1="116.411" x2="197.352" y2="117.826"/>
	<line style="fill:none;stroke:#000000;stroke-miterlimit:1;" x1="197.352" y1="117.826" x2="203.861" y2="123.487"/>
	<line style="fill:none;stroke:#000000;stroke-miterlimit:1;" x1="203.861" y1="123.487" x2="206.126" y2="123.771"/>
	<line style="fill:none;stroke:#000000;stroke-miterlimit:1;" x1="206.126" y1="123.771" x2="208.674" y2="123.204"/>
	<line style="fill:none;stroke:#000000;stroke-miterlimit:1;" x1="208.674" y1="123.204" x2="213.769" y2="122.072"/>
	<line style="fill:none;stroke:#000000;stroke-miterlimit:1;" x1="213.769" y1="122.072" x2="227.073" y2="119.524"/>
	<line style="fill:none;stroke:#000000;stroke-miterlimit:1;" x1="227.073" y1="119.524" x2="239.812" y2="117.826"/>
	<line style="fill:none;stroke:#000000;stroke-miterlimit:1;" x1="239.812" y1="117.826" x2="251.417" y2="117.543"/>
	<line style="fill:none;stroke:#000000;stroke-miterlimit:1;" x1="251.417" y1="117.543" x2="266.702" y2="118.675"/>
	<line style="fill:none;stroke:#000000;stroke-miterlimit:1;" x1="266.702" y1="118.675" x2="280.007" y2="120.374"/>
	<line style="fill:none;stroke:#000000;stroke-miterlimit:1;" x1="280.007" y1="120.374" x2="292.744" y2="123.204"/>
	<line style="fill:none;stroke:#000000;stroke-miterlimit:1;" x1="314.258" y1="134.81" x2="311.993" y2="81.027"/>
	<line style="fill:none;stroke:#000000;stroke-miterlimit:1;" x1="311.993" y1="81.027" x2="296.99" y2="81.027"/>
	<line style="fill:none;stroke:#000000;stroke-miterlimit:1;" x1="296.99" y1="81.027" x2="293.027" y2="123.204"/>
</g>
</svg>
