<?xml version="1.0" encoding="iso-8859-1"?>
<!-- Generator: Adobe Illustrator 16.0.1, SVG Export Plug-In . SVG Version: 6.00 Build 0)  -->
<!DOCTYPE svg PUBLIC "-//W3C//DTD SVG 1.1//EN" "http://www.w3.org/Graphics/SVG/1.1/DTD/svg11.dtd">
<svg version="1.1" id="Ebene_1" xmlns="http://www.w3.org/2000/svg" xmlns:xlink="http://www.w3.org/1999/xlink" x="0px" y="0px"
	 width="271.707px" height="148.115px" viewBox="0 0 271.707 148.115" style="enable-background:new 0 0 271.707 148.115;"
	 xml:space="preserve">
<g>
	<line style="fill:none;stroke:#000000;stroke-miterlimit:1;" x1="33.244" y1="126.062" x2="29.294" y2="121.125"/>
	<line style="fill:none;stroke:#000000;stroke-miterlimit:1;" x1="29.294" y1="121.125" x2="24.356" y2="116.188"/>
	<line style="fill:none;stroke:#000000;stroke-miterlimit:1;" x1="24.356" y1="116.188" x2="20.407" y2="111.908"/>
	<line style="fill:none;stroke:#000000;stroke-miterlimit:1;" x1="20.407" y1="111.908" x2="16.128" y2="107.301"/>
	<line style="fill:none;stroke:#000000;stroke-miterlimit:1;" x1="16.128" y1="107.301" x2="10.862" y2="102.035"/>
	<line style="fill:none;stroke:#000000;stroke-miterlimit:1;" x1="10.862" y1="102.035" x2="5.595" y2="98.084"/>
	<line style="fill:none;stroke:#000000;stroke-miterlimit:1;" x1="5.595" y1="98.084" x2="0" y2="94.135"/>
	<line style="fill:none;stroke:#000000;stroke-miterlimit:1;" x1="0" y1="94.135" x2="10.533" y2="0"/>
	<line style="fill:none;stroke:#000000;stroke-miterlimit:1;" x1="10.533" y1="0" x2="13.824" y2="0.988"/>
	<line style="fill:none;stroke:#000000;stroke-miterlimit:1;" x1="13.824" y1="0.988" x2="17.444" y2="2.633"/>
	<line style="fill:none;stroke:#000000;stroke-miterlimit:1;" x1="17.444" y1="2.633" x2="20.407" y2="4.937"/>
	<line style="fill:none;stroke:#000000;stroke-miterlimit:1;" x1="20.407" y1="4.937" x2="23.369" y2="8.558"/>
	<line style="fill:none;stroke:#000000;stroke-miterlimit:1;" x1="23.369" y1="8.558" x2="26.002" y2="12.837"/>
	<line style="fill:none;stroke:#000000;stroke-miterlimit:1;" x1="26.002" y1="12.837" x2="27.319" y2="17.445"/>
	<line style="fill:none;stroke:#000000;stroke-miterlimit:1;" x1="27.319" y1="17.445" x2="28.306" y2="21.395"/>
	<line style="fill:none;stroke:#000000;stroke-miterlimit:1;" x1="28.306" y1="21.395" x2="29.294" y2="26.661"/>
	<line style="fill:none;stroke:#000000;stroke-miterlimit:1;" x1="29.294" y1="26.661" x2="33.902" y2="147.785"/>
	<line style="fill:none;stroke:#000000;stroke-miterlimit:1;" x1="33.902" y1="147.785" x2="27.648" y2="148.115"/>
	<line style="fill:none;stroke:#000000;stroke-miterlimit:1;" x1="27.648" y1="148.115" x2="28.964" y2="120.795"/>
	<line style="fill:none;stroke:#000000;stroke-miterlimit:1;" x1="84.754" y1="148.115" x2="84.754" y2="24.686"/>
	<line style="fill:none;stroke:#000000;stroke-miterlimit:1;" x1="84.754" y1="24.686" x2="65.006" y2="0"/>
	<line style="fill:none;stroke:#000000;stroke-miterlimit:1;" x1="65.006" y1="0" x2="45.257" y2="24.686"/>
	<line style="fill:none;stroke:#000000;stroke-miterlimit:1;" x1="84.754" y1="24.686" x2="104.503" y2="0"/>
	<line style="fill:none;stroke:#000000;stroke-miterlimit:1;" x1="104.503" y1="0" x2="124.251" y2="24.686"/>
	<line style="fill:none;stroke:#000000;stroke-miterlimit:1;" x1="271.707" y1="101.541" x2="255.25" y2="99.236"/>
	<line style="fill:none;stroke:#000000;stroke-miterlimit:1;" x1="255.25" y1="99.236" x2="248.997" y2="99.895"/>
	<line style="fill:none;stroke:#000000;stroke-miterlimit:1;" x1="248.997" y1="99.895" x2="243.072" y2="101.869"/>
	<line style="fill:none;stroke:#000000;stroke-miterlimit:1;" x1="243.072" y1="101.869" x2="236.16" y2="105.49"/>
	<line style="fill:none;stroke:#000000;stroke-miterlimit:1;" x1="236.16" y1="105.49" x2="223.323" y2="109.439"/>
	<line style="fill:none;stroke:#000000;stroke-miterlimit:1;" x1="223.323" y1="109.439" x2="195.676" y2="112.074"/>
	<line style="fill:none;stroke:#000000;stroke-miterlimit:1;" x1="195.676" y1="112.074" x2="167.698" y2="111.086"/>
	<line style="fill:none;stroke:#000000;stroke-miterlimit:1;" x1="167.698" y1="111.086" x2="155.521" y2="108.781"/>
	<line style="fill:none;stroke:#000000;stroke-miterlimit:1;" x1="155.521" y1="108.781" x2="148.279" y2="105.49"/>
	<line style="fill:none;stroke:#000000;stroke-miterlimit:1;" x1="148.279" y1="105.49" x2="144.987" y2="100.553"/>
	<line style="fill:none;stroke:#000000;stroke-miterlimit:1;" x1="144.987" y1="100.553" x2="142.025" y2="90.68"/>
	<line style="fill:none;stroke:#000000;stroke-miterlimit:1;" x1="142.025" y1="90.68" x2="143.013" y2="74.88"/>
	<line style="fill:none;stroke:#000000;stroke-miterlimit:1;" x1="143.013" y1="74.88" x2="145.646" y2="68.297"/>
	<line style="fill:none;stroke:#000000;stroke-miterlimit:1;" x1="145.646" y1="68.297" x2="147.95" y2="62.702"/>
	<line style="fill:none;stroke:#000000;stroke-miterlimit:1;" x1="147.95" y1="62.702" x2="153.545" y2="59.081"/>
	<line style="fill:none;stroke:#000000;stroke-miterlimit:1;" x1="153.545" y1="59.081" x2="192.384" y2="59.081"/>
	<line style="fill:none;stroke:#000000;stroke-miterlimit:1;" x1="165.395" y1="58.423" x2="160.128" y2="58.423"/>
	<line style="fill:none;stroke:#000000;stroke-miterlimit:1;" x1="160.128" y1="58.423" x2="152.558" y2="55.79"/>
	<line style="fill:none;stroke:#000000;stroke-miterlimit:1;" x1="152.558" y1="55.79" x2="146.633" y2="52.499"/>
	<line style="fill:none;stroke:#000000;stroke-miterlimit:1;" x1="146.633" y1="52.499" x2="142.684" y2="49.207"/>
	<line style="fill:none;stroke:#000000;stroke-miterlimit:1;" x1="142.684" y1="49.207" x2="138.404" y2="44.599"/>
	<line style="fill:none;stroke:#000000;stroke-miterlimit:1;" x1="138.404" y1="44.599" x2="136.43" y2="40.649"/>
	<line style="fill:none;stroke:#000000;stroke-miterlimit:1;" x1="136.43" y1="40.649" x2="135.771" y2="38.016"/>
	<line style="fill:none;stroke:#000000;stroke-miterlimit:1;" x1="135.771" y1="38.016" x2="143.013" y2="41.966"/>
	<line style="fill:none;stroke:#000000;stroke-miterlimit:1;" x1="143.013" y1="41.966" x2="155.521" y2="44.928"/>
	<line style="fill:none;stroke:#000000;stroke-miterlimit:1;" x1="155.521" y1="44.928" x2="164.736" y2="45.257"/>
	<line style="fill:none;stroke:#000000;stroke-miterlimit:1;" x1="164.736" y1="45.257" x2="177.243" y2="45.257"/>
	<line style="fill:none;stroke:#000000;stroke-miterlimit:1;" x1="177.243" y1="45.257" x2="185.143" y2="44.928"/>
	<line style="fill:none;stroke:#000000;stroke-miterlimit:1;" x1="185.143" y1="44.928" x2="195.676" y2="43.941"/>
	<line style="fill:none;stroke:#000000;stroke-miterlimit:1;" x1="195.676" y1="43.941" x2="206.537" y2="43.941"/>
	<line style="fill:none;stroke:#000000;stroke-miterlimit:1;" x1="206.537" y1="43.941" x2="215.424" y2="44.928"/>
	<line style="fill:none;stroke:#000000;stroke-miterlimit:1;" x1="215.424" y1="44.928" x2="222.336" y2="49.207"/>
	<line style="fill:none;stroke:#000000;stroke-miterlimit:1;" x1="222.336" y1="49.207" x2="229.577" y2="55.131"/>
	<line style="fill:none;stroke:#000000;stroke-miterlimit:1;" x1="229.577" y1="55.131" x2="233.856" y2="60.398"/>
	<line style="fill:none;stroke:#000000;stroke-miterlimit:1;" x1="233.856" y1="60.398" x2="240.438" y2="66.322"/>
	<line style="fill:none;stroke:#000000;stroke-miterlimit:1;" x1="240.438" y1="66.322" x2="248.997" y2="67.639"/>
	<line style="fill:none;stroke:#000000;stroke-miterlimit:1;" x1="248.997" y1="67.639" x2="256.567" y2="68.297"/>
	<line style="fill:none;stroke:#000000;stroke-miterlimit:1;" x1="256.567" y1="68.297" x2="263.808" y2="66.981"/>
	<line style="fill:none;stroke:#000000;stroke-miterlimit:1;" x1="263.808" y1="66.981" x2="271.378" y2="65.006"/>
	<line style="fill:none;stroke:#000000;stroke-miterlimit:1;" x1="271.378" y1="65.006" x2="271.378" y2="101.211"/>
</g>
</svg>
