<?xml version="1.0" encoding="iso-8859-1"?>
<!-- Generator: Adobe Illustrator 16.0.1, SVG Export Plug-In . SVG Version: 6.00 Build 0)  -->
<!DOCTYPE svg PUBLIC "-//W3C//DTD SVG 1.1//EN" "http://www.w3.org/Graphics/SVG/1.1/DTD/svg11.dtd">
<svg version="1.1" id="Ebene_1" xmlns="http://www.w3.org/2000/svg" xmlns:xlink="http://www.w3.org/1999/xlink" x="0px" y="0px"
	 width="309.365px" height="149.043px" viewBox="0 0 309.365 149.043" style="enable-background:new 0 0 309.365 149.043;"
	 xml:space="preserve">
<g>
	<line style="fill:none;stroke:#000000;stroke-miterlimit:1;" x1="295.922" y1="56.642" x2="281.488" y2="54.621"/>
	<line style="fill:none;stroke:#000000;stroke-miterlimit:1;" x1="281.488" y1="54.621" x2="276.004" y2="55.199"/>
	<line style="fill:none;stroke:#000000;stroke-miterlimit:1;" x1="276.004" y1="55.199" x2="270.807" y2="56.931"/>
	<line style="fill:none;stroke:#000000;stroke-miterlimit:1;" x1="270.807" y1="56.931" x2="264.746" y2="60.106"/>
	<line style="fill:none;stroke:#000000;stroke-miterlimit:1;" x1="264.746" y1="60.106" x2="253.486" y2="63.57"/>
	<line style="fill:none;stroke:#000000;stroke-miterlimit:1;" x1="253.486" y1="63.57" x2="229.238" y2="65.879"/>
	<line style="fill:none;stroke:#000000;stroke-miterlimit:1;" x1="229.238" y1="65.879" x2="204.701" y2="65.013"/>
	<line style="fill:none;stroke:#000000;stroke-miterlimit:1;" x1="204.701" y1="65.013" x2="194.021" y2="62.993"/>
	<line style="fill:none;stroke:#000000;stroke-miterlimit:1;" x1="194.021" y1="62.993" x2="187.67" y2="60.106"/>
	<line style="fill:none;stroke:#000000;stroke-miterlimit:1;" x1="187.67" y1="60.106" x2="184.783" y2="55.776"/>
	<line style="fill:none;stroke:#000000;stroke-miterlimit:1;" x1="184.783" y1="55.776" x2="182.186" y2="47.116"/>
	<line style="fill:none;stroke:#000000;stroke-miterlimit:1;" x1="182.186" y1="47.116" x2="183.051" y2="33.26"/>
	<line style="fill:none;stroke:#000000;stroke-miterlimit:1;" x1="183.051" y1="33.26" x2="185.361" y2="27.486"/>
	<line style="fill:none;stroke:#000000;stroke-miterlimit:1;" x1="185.361" y1="27.486" x2="187.381" y2="22.579"/>
	<line style="fill:none;stroke:#000000;stroke-miterlimit:1;" x1="187.381" y1="22.579" x2="192.289" y2="19.403"/>
	<line style="fill:none;stroke:#000000;stroke-miterlimit:1;" x1="192.289" y1="19.403" x2="226.352" y2="19.403"/>
	<line style="fill:none;stroke:#000000;stroke-miterlimit:1;" x1="202.682" y1="18.826" x2="198.062" y2="18.826"/>
	<line style="fill:none;stroke:#000000;stroke-miterlimit:1;" x1="198.062" y1="18.826" x2="191.422" y2="16.517"/>
	<line style="fill:none;stroke:#000000;stroke-miterlimit:1;" x1="191.422" y1="16.517" x2="186.227" y2="13.63"/>
	<line style="fill:none;stroke:#000000;stroke-miterlimit:1;" x1="186.227" y1="13.63" x2="182.764" y2="10.743"/>
	<line style="fill:none;stroke:#000000;stroke-miterlimit:1;" x1="182.764" y1="10.743" x2="179.01" y2="6.702"/>
	<line style="fill:none;stroke:#000000;stroke-miterlimit:1;" x1="179.01" y1="6.702" x2="177.277" y2="3.238"/>
	<line style="fill:none;stroke:#000000;stroke-miterlimit:1;" x1="177.277" y1="3.238" x2="176.701" y2="0.929"/>
	<line style="fill:none;stroke:#000000;stroke-miterlimit:1;" x1="176.701" y1="0.929" x2="183.051" y2="4.393"/>
	<line style="fill:none;stroke:#000000;stroke-miterlimit:1;" x1="183.051" y1="4.393" x2="194.021" y2="6.991"/>
	<line style="fill:none;stroke:#000000;stroke-miterlimit:1;" x1="194.021" y1="6.991" x2="202.104" y2="7.279"/>
	<line style="fill:none;stroke:#000000;stroke-miterlimit:1;" x1="202.104" y1="7.279" x2="213.072" y2="7.279"/>
	<line style="fill:none;stroke:#000000;stroke-miterlimit:1;" x1="213.072" y1="7.279" x2="220.002" y2="6.991"/>
	<line style="fill:none;stroke:#000000;stroke-miterlimit:1;" x1="220.002" y1="6.991" x2="229.238" y2="6.125"/>
	<line style="fill:none;stroke:#000000;stroke-miterlimit:1;" x1="229.238" y1="6.125" x2="238.766" y2="6.125"/>
	<line style="fill:none;stroke:#000000;stroke-miterlimit:1;" x1="238.766" y1="6.125" x2="246.559" y2="6.991"/>
	<line style="fill:none;stroke:#000000;stroke-miterlimit:1;" x1="246.559" y1="6.991" x2="252.621" y2="10.743"/>
	<line style="fill:none;stroke:#000000;stroke-miterlimit:1;" x1="252.621" y1="10.743" x2="258.973" y2="15.939"/>
	<line style="fill:none;stroke:#000000;stroke-miterlimit:1;" x1="258.973" y1="15.939" x2="262.725" y2="20.558"/>
	<line style="fill:none;stroke:#000000;stroke-miterlimit:1;" x1="262.725" y1="20.558" x2="268.498" y2="25.754"/>
	<line style="fill:none;stroke:#000000;stroke-miterlimit:1;" x1="268.498" y1="25.754" x2="276.004" y2="26.909"/>
	<line style="fill:none;stroke:#000000;stroke-miterlimit:1;" x1="276.004" y1="26.909" x2="282.643" y2="27.486"/>
	<line style="fill:none;stroke:#000000;stroke-miterlimit:1;" x1="282.643" y1="27.486" x2="288.994" y2="26.332"/>
	<line style="fill:none;stroke:#000000;stroke-miterlimit:1;" x1="288.994" y1="26.332" x2="295.633" y2="24.6"/>
	<line style="fill:none;stroke:#000000;stroke-miterlimit:1;" x1="295.633" y1="24.6" x2="295.633" y2="56.354"/>
	<line style="fill:none;stroke:#000000;stroke-miterlimit:1;" x1="81.627" y1="39.498" x2="74.386" y2="38.839"/>
	<line style="fill:none;stroke:#000000;stroke-miterlimit:1;" x1="74.386" y1="38.839" x2="62.866" y2="39.498"/>
	<line style="fill:none;stroke:#000000;stroke-miterlimit:1;" x1="62.866" y1="39.498" x2="54.309" y2="38.51"/>
	<line style="fill:none;stroke:#000000;stroke-miterlimit:1;" x1="54.309" y1="38.51" x2="51.675" y2="39.498"/>
	<line style="fill:none;stroke:#000000;stroke-miterlimit:1;" x1="51.675" y1="39.498" x2="49.701" y2="42.13"/>
	<line style="fill:none;stroke:#000000;stroke-miterlimit:1;" x1="49.701" y1="42.13" x2="50.359" y2="46.738"/>
	<line style="fill:none;stroke:#000000;stroke-miterlimit:1;" x1="50.359" y1="46.738" x2="54.309" y2="58.917"/>
	<line style="fill:none;stroke:#000000;stroke-miterlimit:1;" x1="54.309" y1="58.917" x2="55.955" y2="62.208"/>
	<line style="fill:none;stroke:#000000;stroke-miterlimit:1;" x1="55.955" y1="62.208" x2="59.904" y2="67.475"/>
	<line style="fill:none;stroke:#000000;stroke-miterlimit:1;" x1="59.904" y1="67.475" x2="69.778" y2="79.652"/>
	<line style="fill:none;stroke:#000000;stroke-miterlimit:1;" x1="69.778" y1="79.652" x2="90.844" y2="101.705"/>
	<line style="fill:none;stroke:#000000;stroke-miterlimit:1;" x1="90.844" y1="101.705" x2="105.984" y2="115.858"/>
	<line style="fill:none;stroke:#000000;stroke-miterlimit:1;" x1="105.984" y1="115.858" x2="138.24" y2="147.456"/>
	<line style="fill:none;stroke:#000000;stroke-miterlimit:1;" x1="138.24" y1="147.456" x2="141.532" y2="147.456"/>
	<line style="fill:none;stroke:#000000;stroke-miterlimit:1;" x1="141.532" y1="147.456" x2="142.519" y2="145.811"/>
	<line style="fill:none;stroke:#000000;stroke-miterlimit:1;" x1="142.519" y1="145.811" x2="141.203" y2="142.849"/>
	<line style="fill:none;stroke:#000000;stroke-miterlimit:1;" x1="141.203" y1="142.849" x2="127.378" y2="111.251"/>
	<line style="fill:none;stroke:#000000;stroke-miterlimit:1;" x1="127.378" y1="111.251" x2="125.404" y2="105.326"/>
	<line style="fill:none;stroke:#000000;stroke-miterlimit:1;" x1="125.404" y1="105.326" x2="120.137" y2="92.16"/>
	<line style="fill:none;stroke:#000000;stroke-miterlimit:1;" x1="120.137" y1="92.16" x2="118.492" y2="88.869"/>
	<line style="fill:none;stroke:#000000;stroke-miterlimit:1;" x1="118.492" y1="88.869" x2="114.213" y2="79.981"/>
	<line style="fill:none;stroke:#000000;stroke-miterlimit:1;" x1="114.213" y1="79.981" x2="106.313" y2="66.487"/>
	<line style="fill:none;stroke:#000000;stroke-miterlimit:1;" x1="106.313" y1="66.487" x2="98.084" y2="52.992"/>
	<line style="fill:none;stroke:#000000;stroke-miterlimit:1;" x1="98.084" y1="52.992" x2="92.489" y2="45.422"/>
	<line style="fill:none;stroke:#000000;stroke-miterlimit:1;" x1="92.489" y1="45.422" x2="87.552" y2="38.181"/>
	<line style="fill:none;stroke:#000000;stroke-miterlimit:1;" x1="87.552" y1="38.181" x2="82.615" y2="31.598"/>
	<line style="fill:none;stroke:#000000;stroke-miterlimit:1;" x1="82.615" y1="31.598" x2="76.69" y2="24.686"/>
	<line style="fill:none;stroke:#000000;stroke-miterlimit:1;" x1="76.69" y1="24.686" x2="70.766" y2="20.736"/>
	<line style="fill:none;stroke:#000000;stroke-miterlimit:1;" x1="70.766" y1="20.736" x2="69.12" y2="13.824"/>
	<line style="fill:none;stroke:#000000;stroke-miterlimit:1;" x1="69.12" y1="13.824" x2="67.804" y2="6.254"/>
	<line style="fill:none;stroke:#000000;stroke-miterlimit:1;" x1="67.804" y1="6.254" x2="65.829" y2="1.317"/>
	<line style="fill:none;stroke:#000000;stroke-miterlimit:1;" x1="65.829" y1="1.317" x2="60.233" y2="0"/>
	<line style="fill:none;stroke:#000000;stroke-miterlimit:1;" x1="60.233" y1="0" x2="51.017" y2="0"/>
	<line style="fill:none;stroke:#000000;stroke-miterlimit:1;" x1="51.017" y1="0" x2="40.814" y2="0.329"/>
	<line style="fill:none;stroke:#000000;stroke-miterlimit:1;" x1="40.814" y1="0.329" x2="35.876" y2="1.646"/>
	<line style="fill:none;stroke:#000000;stroke-miterlimit:1;" x1="35.876" y1="1.646" x2="33.573" y2="2.304"/>
	<line style="fill:none;stroke:#000000;stroke-miterlimit:1;" x1="33.573" y1="2.304" x2="16.787" y2="4.608"/>
	<line style="fill:none;stroke:#000000;stroke-miterlimit:1;" x1="16.787" y1="4.608" x2="11.849" y2="6.912"/>
	<line style="fill:none;stroke:#000000;stroke-miterlimit:1;" x1="11.849" y1="6.912" x2="10.204" y2="9.216"/>
	<line style="fill:none;stroke:#000000;stroke-miterlimit:1;" x1="10.204" y1="9.216" x2="9.875" y2="13.824"/>
	<line style="fill:none;stroke:#000000;stroke-miterlimit:1;" x1="9.875" y1="13.824" x2="11.849" y2="10.533"/>
	<line style="fill:none;stroke:#000000;stroke-miterlimit:1;" x1="11.849" y1="10.533" x2="15.141" y2="8.887"/>
	<line style="fill:none;stroke:#000000;stroke-miterlimit:1;" x1="15.141" y1="8.887" x2="25.015" y2="8.887"/>
	<line style="fill:none;stroke:#000000;stroke-miterlimit:1;" x1="25.015" y1="8.887" x2="35.218" y2="9.216"/>
	<line style="fill:none;stroke:#000000;stroke-miterlimit:1;" x1="35.218" y1="9.216" x2="40.485" y2="10.533"/>
	<line style="fill:none;stroke:#000000;stroke-miterlimit:1;" x1="40.485" y1="10.533" x2="36.206" y2="5.267"/>
	<line style="fill:none;stroke:#000000;stroke-miterlimit:1;" x1="36.206" y1="5.267" x2="35.218" y2="1.646"/>
	<line style="fill:none;stroke:#000000;stroke-miterlimit:1;" x1="46.08" y1="8.558" x2="47.067" y2="8.229"/>
	<line style="fill:none;stroke:#000000;stroke-miterlimit:1;" x1="47.067" y1="8.229" x2="47.726" y2="6.583"/>
	<line style="fill:none;stroke:#000000;stroke-miterlimit:1;" x1="47.726" y1="6.583" x2="47.067" y2="4.938"/>
	<line style="fill:none;stroke:#000000;stroke-miterlimit:1;" x1="47.067" y1="4.938" x2="45.751" y2="3.95"/>
	<line style="fill:none;stroke:#000000;stroke-miterlimit:1;" x1="45.751" y1="3.95" x2="44.435" y2="4.938"/>
	<line style="fill:none;stroke:#000000;stroke-miterlimit:1;" x1="44.435" y1="4.938" x2="44.105" y2="6.912"/>
	<line style="fill:none;stroke:#000000;stroke-miterlimit:1;" x1="44.105" y1="6.912" x2="44.764" y2="7.899"/>
	<line style="fill:none;stroke:#000000;stroke-miterlimit:1;" x1="44.764" y1="7.899" x2="45.751" y2="8.558"/>
	<line style="fill:none;stroke:#000000;stroke-miterlimit:1;" x1="11.52" y1="11.849" x2="24.686" y2="11.52"/>
	<line style="fill:none;stroke:#000000;stroke-miterlimit:1;" x1="24.686" y1="11.52" x2="34.889" y2="12.837"/>
	<line style="fill:none;stroke:#000000;stroke-miterlimit:1;" x1="34.889" y1="12.837" x2="37.852" y2="14.482"/>
	<line style="fill:none;stroke:#000000;stroke-miterlimit:1;" x1="37.852" y1="14.482" x2="38.839" y2="17.774"/>
	<line style="fill:none;stroke:#000000;stroke-miterlimit:1;" x1="38.839" y1="17.774" x2="39.168" y2="21.395"/>
	<line style="fill:none;stroke:#000000;stroke-miterlimit:1;" x1="39.168" y1="21.395" x2="36.206" y2="28.636"/>
	<line style="fill:none;stroke:#000000;stroke-miterlimit:1;" x1="36.206" y1="28.636" x2="34.889" y2="37.522"/>
	<line style="fill:none;stroke:#000000;stroke-miterlimit:1;" x1="34.889" y1="37.522" x2="36.535" y2="48.384"/>
	<line style="fill:none;stroke:#000000;stroke-miterlimit:1;" x1="36.535" y1="48.384" x2="37.852" y2="53.321"/>
	<line style="fill:none;stroke:#000000;stroke-miterlimit:1;" x1="37.852" y1="53.321" x2="39.826" y2="59.246"/>
	<line style="fill:none;stroke:#000000;stroke-miterlimit:1;" x1="39.826" y1="59.246" x2="41.143" y2="61.879"/>
	<line style="fill:none;stroke:#000000;stroke-miterlimit:1;" x1="41.143" y1="61.879" x2="45.751" y2="71.095"/>
	<line style="fill:none;stroke:#000000;stroke-miterlimit:1;" x1="45.751" y1="71.095" x2="62.537" y2="101.376"/>
	<line style="fill:none;stroke:#000000;stroke-miterlimit:1;" x1="62.537" y1="101.376" x2="69.449" y2="114.213"/>
	<line style="fill:none;stroke:#000000;stroke-miterlimit:1;" x1="69.449" y1="114.213" x2="70.766" y2="124.087"/>
	<line style="fill:none;stroke:#000000;stroke-miterlimit:1;" x1="70.766" y1="124.087" x2="69.12" y2="140.873"/>
	<line style="fill:none;stroke:#000000;stroke-miterlimit:1;" x1="69.12" y1="140.873" x2="67.475" y2="142.52"/>
	<line style="fill:none;stroke:#000000;stroke-miterlimit:1;" x1="67.475" y1="142.52" x2="57.929" y2="143.507"/>
	<line style="fill:none;stroke:#000000;stroke-miterlimit:1;" x1="57.929" y1="143.507" x2="46.738" y2="143.178"/>
	<line style="fill:none;stroke:#000000;stroke-miterlimit:1;" x1="46.738" y1="143.178" x2="46.08" y2="144.823"/>
	<line style="fill:none;stroke:#000000;stroke-miterlimit:1;" x1="46.08" y1="144.823" x2="41.143" y2="145.481"/>
	<line style="fill:none;stroke:#000000;stroke-miterlimit:1;" x1="41.143" y1="145.481" x2="40.485" y2="146.469"/>
	<line style="fill:none;stroke:#000000;stroke-miterlimit:1;" x1="40.485" y1="146.469" x2="41.472" y2="147.785"/>
	<line style="fill:none;stroke:#000000;stroke-miterlimit:1;" x1="41.472" y1="147.785" x2="69.778" y2="146.798"/>
	<line style="fill:none;stroke:#000000;stroke-miterlimit:1;" x1="69.778" y1="146.798" x2="99.072" y2="148.114"/>
	<line style="fill:none;stroke:#000000;stroke-miterlimit:1;" x1="99.072" y1="148.114" x2="100.389" y2="146.798"/>
	<line style="fill:none;stroke:#000000;stroke-miterlimit:1;" x1="100.389" y1="146.798" x2="99.73" y2="145.152"/>
	<line style="fill:none;stroke:#000000;stroke-miterlimit:1;" x1="99.73" y1="145.152" x2="95.123" y2="145.152"/>
	<line style="fill:none;stroke:#000000;stroke-miterlimit:1;" x1="95.123" y1="145.152" x2="92.489" y2="142.849"/>
	<line style="fill:none;stroke:#000000;stroke-miterlimit:1;" x1="92.489" y1="142.849" x2="75.703" y2="142.52"/>
	<line style="fill:none;stroke:#000000;stroke-miterlimit:1;" x1="75.703" y1="142.52" x2="73.728" y2="141.202"/>
	<line style="fill:none;stroke:#000000;stroke-miterlimit:1;" x1="73.728" y1="141.202" x2="75.703" y2="120.467"/>
	<line style="fill:none;stroke:#000000;stroke-miterlimit:1;" x1="75.703" y1="120.467" x2="87.881" y2="126.72"/>
	<line style="fill:none;stroke:#000000;stroke-miterlimit:1;" x1="87.881" y1="126.72" x2="94.793" y2="106.313"/>
	<line style="fill:none;stroke:#000000;stroke-miterlimit:1;" x1="94.793" y1="106.313" x2="107.959" y2="139.228"/>
	<line style="fill:none;stroke:#000000;stroke-miterlimit:1;" x1="107.959" y1="139.228" x2="112.567" y2="145.152"/>
	<line style="fill:none;stroke:#000000;stroke-miterlimit:1;" x1="112.567" y1="145.152" x2="117.175" y2="147.785"/>
	<line style="fill:none;stroke:#000000;stroke-miterlimit:1;" x1="117.175" y1="147.785" x2="124.087" y2="147.785"/>
	<line style="fill:none;stroke:#000000;stroke-miterlimit:1;" x1="124.087" y1="147.785" x2="128.037" y2="146.469"/>
	<line style="fill:none;stroke:#000000;stroke-miterlimit:1;" x1="128.037" y1="146.469" x2="129.024" y2="144.494"/>
	<line style="fill:none;stroke:#000000;stroke-miterlimit:1;" x1="129.024" y1="144.494" x2="125.733" y2="135.607"/>
	<line style="fill:none;stroke:#000000;stroke-miterlimit:1;" x1="44.105" y1="68.791" x2="46.738" y2="78.665"/>
	<line style="fill:none;stroke:#000000;stroke-miterlimit:1;" x1="46.738" y1="78.665" x2="47.726" y2="88.869"/>
	<line style="fill:none;stroke:#000000;stroke-miterlimit:1;" x1="47.726" y1="88.869" x2="48.055" y2="92.818"/>
	<line style="fill:none;stroke:#000000;stroke-miterlimit:1;" x1="48.055" y1="92.818" x2="48.055" y2="111.251"/>
	<line style="fill:none;stroke:#000000;stroke-miterlimit:1;" x1="48.055" y1="111.251" x2="44.764" y2="130.012"/>
	<line style="fill:none;stroke:#000000;stroke-miterlimit:1;" x1="44.764" y1="130.012" x2="41.801" y2="139.557"/>
	<line style="fill:none;stroke:#000000;stroke-miterlimit:1;" x1="41.801" y1="139.557" x2="39.826" y2="141.86"/>
	<line style="fill:none;stroke:#000000;stroke-miterlimit:1;" x1="39.826" y1="141.86" x2="24.027" y2="142.849"/>
	<line style="fill:none;stroke:#000000;stroke-miterlimit:1;" x1="24.027" y1="142.849" x2="22.382" y2="145.152"/>
	<line style="fill:none;stroke:#000000;stroke-miterlimit:1;" x1="22.382" y1="145.152" x2="18.761" y2="145.481"/>
	<line style="fill:none;stroke:#000000;stroke-miterlimit:1;" x1="18.761" y1="145.481" x2="17.445" y2="146.469"/>
	<line style="fill:none;stroke:#000000;stroke-miterlimit:1;" x1="17.445" y1="146.469" x2="18.761" y2="147.785"/>
	<line style="fill:none;stroke:#000000;stroke-miterlimit:1;" x1="18.761" y1="147.785" x2="30.939" y2="146.798"/>
	<line style="fill:none;stroke:#000000;stroke-miterlimit:1;" x1="30.939" y1="146.798" x2="34.56" y2="147.127"/>
	<line style="fill:none;stroke:#000000;stroke-miterlimit:1;" x1="46.409" y1="143.178" x2="40.814" y2="143.836"/>
	<line style="fill:none;stroke:#000000;stroke-miterlimit:1;" x1="40.814" y1="143.836" x2="40.814" y2="143.836"/>
	<line style="fill:none;stroke:#000000;stroke-miterlimit:1;" x1="40.814" y1="143.836" x2="37.522" y2="144.494"/>
	<line style="fill:none;stroke:#000000;stroke-miterlimit:1;" x1="37.522" y1="144.494" x2="35.547" y2="147.127"/>
	<line style="fill:none;stroke:#000000;stroke-miterlimit:1;" x1="35.547" y1="147.127" x2="36.864" y2="147.785"/>
	<line style="fill:none;stroke:#000000;stroke-miterlimit:1;" x1="36.864" y1="147.785" x2="38.839" y2="145.811"/>
	<line style="fill:none;stroke:#000000;stroke-miterlimit:1;" x1="38.839" y1="145.811" x2="40.814" y2="145.481"/>
	<line style="fill:none;stroke:#000000;stroke-miterlimit:1;" x1="46.08" y1="142.849" x2="53.321" y2="115.858"/>
	<line style="fill:none;stroke:#000000;stroke-miterlimit:1;" x1="53.321" y1="115.858" x2="64.512" y2="122.441"/>
	<line style="fill:none;stroke:#000000;stroke-miterlimit:1;" x1="64.512" y1="122.441" x2="66.816" y2="110.263"/>
	<line style="fill:none;stroke:#000000;stroke-miterlimit:1;" x1="23.04" y1="143.178" x2="17.774" y2="143.836"/>
	<line style="fill:none;stroke:#000000;stroke-miterlimit:1;" x1="17.774" y1="143.836" x2="17.774" y2="143.836"/>
	<line style="fill:none;stroke:#000000;stroke-miterlimit:1;" x1="17.774" y1="143.836" x2="14.482" y2="144.494"/>
	<line style="fill:none;stroke:#000000;stroke-miterlimit:1;" x1="14.482" y1="144.494" x2="12.507" y2="147.127"/>
	<line style="fill:none;stroke:#000000;stroke-miterlimit:1;" x1="12.507" y1="147.127" x2="13.495" y2="147.785"/>
	<line style="fill:none;stroke:#000000;stroke-miterlimit:1;" x1="13.495" y1="147.785" x2="15.799" y2="145.811"/>
	<line style="fill:none;stroke:#000000;stroke-miterlimit:1;" x1="15.799" y1="145.811" x2="18.432" y2="145.481"/>
	<line style="fill:none;stroke:#000000;stroke-miterlimit:1;" x1="93.147" y1="142.849" x2="99.401" y2="143.507"/>
	<line style="fill:none;stroke:#000000;stroke-miterlimit:1;" x1="99.401" y1="143.507" x2="102.364" y2="144.494"/>
	<line style="fill:none;stroke:#000000;stroke-miterlimit:1;" x1="102.364" y1="144.494" x2="104.338" y2="147.127"/>
	<line style="fill:none;stroke:#000000;stroke-miterlimit:1;" x1="104.338" y1="147.127" x2="103.351" y2="147.785"/>
	<line style="fill:none;stroke:#000000;stroke-miterlimit:1;" x1="103.351" y1="147.785" x2="101.047" y2="145.811"/>
	<line style="fill:none;stroke:#000000;stroke-miterlimit:1;" x1="101.047" y1="145.811" x2="99.401" y2="145.481"/>
	<line style="fill:none;stroke:#000000;stroke-miterlimit:1;" x1="148.114" y1="58.917" x2="101.376" y2="58.917"/>
	<line style="fill:none;stroke:#000000;stroke-miterlimit:1;" x1="39.497" y1="58.917" x2="32.256" y2="58.917"/>
	<line style="fill:none;stroke:#000000;stroke-miterlimit:1;" x1="32.256" y1="58.917" x2="26.332" y2="60.233"/>
	<line style="fill:none;stroke:#000000;stroke-miterlimit:1;" x1="26.332" y1="60.233" x2="20.736" y2="62.867"/>
	<line style="fill:none;stroke:#000000;stroke-miterlimit:1;" x1="20.736" y1="62.867" x2="14.812" y2="67.146"/>
	<line style="fill:none;stroke:#000000;stroke-miterlimit:1;" x1="14.812" y1="67.146" x2="10.862" y2="70.437"/>
	<line style="fill:none;stroke:#000000;stroke-miterlimit:1;" x1="10.862" y1="70.437" x2="7.241" y2="74.387"/>
	<line style="fill:none;stroke:#000000;stroke-miterlimit:1;" x1="7.241" y1="74.387" x2="4.279" y2="78.336"/>
	<line style="fill:none;stroke:#000000;stroke-miterlimit:1;" x1="4.279" y1="78.336" x2="2.304" y2="82.286"/>
	<line style="fill:none;stroke:#000000;stroke-miterlimit:1;" x1="2.304" y1="82.286" x2="0.988" y2="86.235"/>
	<line style="fill:none;stroke:#000000;stroke-miterlimit:1;" x1="0.988" y1="86.235" x2="0.329" y2="89.527"/>
	<line style="fill:none;stroke:#000000;stroke-miterlimit:1;" x1="0.329" y1="89.527" x2="0" y2="92.489"/>
	<line style="fill:none;stroke:#000000;stroke-miterlimit:1;" x1="0" y1="92.489" x2="148.114" y2="92.489"/>
	<line style="fill:none;stroke:#000000;stroke-miterlimit:1;" x1="184.82" y1="138.251" x2="188.904" y2="148.459"/>
	<line style="fill:none;stroke:#000000;stroke-miterlimit:1;" x1="188.904" y1="148.459" x2="186.277" y2="149.043"/>
	<line style="fill:none;stroke:#000000;stroke-miterlimit:1;" x1="186.277" y1="149.043" x2="182.195" y2="138.251"/>
	<line style="fill:none;stroke:#000000;stroke-miterlimit:1;" x1="174.611" y1="116.083" x2="163.527" y2="82.832"/>
	<line style="fill:none;stroke:#000000;stroke-miterlimit:1;" x1="163.527" y1="82.832" x2="162.943" y2="78.166"/>
	<line style="fill:none;stroke:#000000;stroke-miterlimit:1;" x1="162.943" y1="78.166" x2="163.236" y2="75.249"/>
	<line style="fill:none;stroke:#000000;stroke-miterlimit:1;" x1="163.236" y1="75.249" x2="164.986" y2="73.207"/>
	<line style="fill:none;stroke:#000000;stroke-miterlimit:1;" x1="164.986" y1="73.207" x2="167.902" y2="71.457"/>
	<line style="fill:none;stroke:#000000;stroke-miterlimit:1;" x1="167.902" y1="71.457" x2="172.277" y2="70.291"/>
	<line style="fill:none;stroke:#000000;stroke-miterlimit:1;" x1="172.277" y1="70.291" x2="175.777" y2="70.874"/>
	<line style="fill:none;stroke:#000000;stroke-miterlimit:1;" x1="175.777" y1="70.874" x2="179.277" y2="73.207"/>
	<line style="fill:none;stroke:#000000;stroke-miterlimit:1;" x1="179.277" y1="73.207" x2="181.902" y2="77.874"/>
	<line style="fill:none;stroke:#000000;stroke-miterlimit:1;" x1="181.902" y1="77.874" x2="182.195" y2="82.832"/>
	<line style="fill:none;stroke:#000000;stroke-miterlimit:1;" x1="182.195" y1="82.832" x2="181.902" y2="84.874"/>
	<line style="fill:none;stroke:#000000;stroke-miterlimit:1;" x1="181.902" y1="84.874" x2="181.027" y2="87.499"/>
	<line style="fill:none;stroke:#000000;stroke-miterlimit:1;" x1="181.027" y1="87.499" x2="179.57" y2="89.249"/>
	<line style="fill:none;stroke:#000000;stroke-miterlimit:1;" x1="179.57" y1="89.249" x2="177.82" y2="88.666"/>
	<line style="fill:none;stroke:#000000;stroke-miterlimit:1;" x1="177.82" y1="88.666" x2="178.695" y2="85.457"/>
	<line style="fill:none;stroke:#000000;stroke-miterlimit:1;" x1="178.695" y1="85.457" x2="178.986" y2="83.124"/>
	<line style="fill:none;stroke:#000000;stroke-miterlimit:1;" x1="178.986" y1="83.124" x2="178.695" y2="80.499"/>
	<line style="fill:none;stroke:#000000;stroke-miterlimit:1;" x1="178.695" y1="80.499" x2="178.402" y2="79.041"/>
	<line style="fill:none;stroke:#000000;stroke-miterlimit:1;" x1="178.402" y1="79.041" x2="176.652" y2="76.124"/>
	<line style="fill:none;stroke:#000000;stroke-miterlimit:1;" x1="176.652" y1="76.124" x2="174.027" y2="74.082"/>
	<line style="fill:none;stroke:#000000;stroke-miterlimit:1;" x1="174.027" y1="74.082" x2="171.402" y2="74.082"/>
	<line style="fill:none;stroke:#000000;stroke-miterlimit:1;" x1="171.402" y1="74.082" x2="168.777" y2="74.666"/>
	<line style="fill:none;stroke:#000000;stroke-miterlimit:1;" x1="168.777" y1="74.666" x2="167.32" y2="76.415"/>
	<line style="fill:none;stroke:#000000;stroke-miterlimit:1;" x1="167.32" y1="76.415" x2="165.861" y2="79.332"/>
	<line style="fill:none;stroke:#000000;stroke-miterlimit:1;" x1="165.861" y1="79.332" x2="166.152" y2="81.666"/>
	<line style="fill:none;stroke:#000000;stroke-miterlimit:1;" x1="166.152" y1="81.666" x2="177.82" y2="116.083"/>
	<line style="fill:none;stroke:#000000;stroke-miterlimit:1;" x1="309.365" y1="135.334" x2="199.695" y2="135.334"/>
	<line style="fill:none;stroke:#000000;stroke-miterlimit:1;" x1="199.695" y1="135.334" x2="195.904" y2="135.626"/>
	<line style="fill:none;stroke:#000000;stroke-miterlimit:1;" x1="195.904" y1="135.626" x2="192.695" y2="136.501"/>
	<line style="fill:none;stroke:#000000;stroke-miterlimit:1;" x1="192.695" y1="136.501" x2="184.236" y2="138.251"/>
	<line style="fill:none;stroke:#000000;stroke-miterlimit:1;" x1="184.236" y1="138.251" x2="180.736" y2="138.251"/>
	<line style="fill:none;stroke:#000000;stroke-miterlimit:1;" x1="180.736" y1="138.251" x2="173.445" y2="138.251"/>
	<line style="fill:none;stroke:#000000;stroke-miterlimit:1;" x1="173.445" y1="138.251" x2="170.527" y2="136.792"/>
	<line style="fill:none;stroke:#000000;stroke-miterlimit:1;" x1="170.527" y1="136.792" x2="167.902" y2="135.334"/>
	<line style="fill:none;stroke:#000000;stroke-miterlimit:1;" x1="167.902" y1="135.334" x2="166.736" y2="134.167"/>
	<line style="fill:none;stroke:#000000;stroke-miterlimit:1;" x1="166.736" y1="134.167" x2="166.152" y2="131.251"/>
	<line style="fill:none;stroke:#000000;stroke-miterlimit:1;" x1="166.152" y1="131.251" x2="165.861" y2="126.584"/>
	<line style="fill:none;stroke:#000000;stroke-miterlimit:1;" x1="165.861" y1="126.584" x2="166.443" y2="123.084"/>
	<line style="fill:none;stroke:#000000;stroke-miterlimit:1;" x1="166.443" y1="123.084" x2="169.652" y2="120.75"/>
	<line style="fill:none;stroke:#000000;stroke-miterlimit:1;" x1="180.445" y1="121.042" x2="175.486" y2="121.334"/>
	<line style="fill:none;stroke:#000000;stroke-miterlimit:1;" x1="175.486" y1="121.334" x2="170.82" y2="121.042"/>
	<line style="fill:none;stroke:#000000;stroke-miterlimit:1;" x1="170.82" y1="121.042" x2="165.861" y2="119.584"/>
	<line style="fill:none;stroke:#000000;stroke-miterlimit:1;" x1="165.861" y1="119.584" x2="163.236" y2="117.833"/>
	<line style="fill:none;stroke:#000000;stroke-miterlimit:1;" x1="163.236" y1="117.833" x2="161.777" y2="116.083"/>
	<line style="fill:none;stroke:#000000;stroke-miterlimit:1;" x1="161.777" y1="116.083" x2="161.486" y2="114.333"/>
	<line style="fill:none;stroke:#000000;stroke-miterlimit:1;" x1="161.486" y1="114.333" x2="167.902" y2="116.083"/>
	<line style="fill:none;stroke:#000000;stroke-miterlimit:1;" x1="167.902" y1="116.083" x2="184.236" y2="116.375"/>
	<line style="fill:none;stroke:#000000;stroke-miterlimit:1;" x1="184.236" y1="116.375" x2="188.904" y2="117.833"/>
	<line style="fill:none;stroke:#000000;stroke-miterlimit:1;" x1="188.904" y1="117.833" x2="195.611" y2="123.667"/>
	<line style="fill:none;stroke:#000000;stroke-miterlimit:1;" x1="195.611" y1="123.667" x2="197.945" y2="123.959"/>
	<line style="fill:none;stroke:#000000;stroke-miterlimit:1;" x1="197.945" y1="123.959" x2="200.57" y2="123.375"/>
	<line style="fill:none;stroke:#000000;stroke-miterlimit:1;" x1="200.57" y1="123.375" x2="205.82" y2="122.209"/>
	<line style="fill:none;stroke:#000000;stroke-miterlimit:1;" x1="205.82" y1="122.209" x2="219.529" y2="119.584"/>
	<line style="fill:none;stroke:#000000;stroke-miterlimit:1;" x1="219.529" y1="119.584" x2="232.654" y2="117.833"/>
	<line style="fill:none;stroke:#000000;stroke-miterlimit:1;" x1="232.654" y1="117.833" x2="244.613" y2="117.542"/>
	<line style="fill:none;stroke:#000000;stroke-miterlimit:1;" x1="244.613" y1="117.542" x2="260.363" y2="118.708"/>
	<line style="fill:none;stroke:#000000;stroke-miterlimit:1;" x1="260.363" y1="118.708" x2="274.072" y2="120.459"/>
	<line style="fill:none;stroke:#000000;stroke-miterlimit:1;" x1="274.072" y1="120.459" x2="287.197" y2="123.375"/>
	<line style="fill:none;stroke:#000000;stroke-miterlimit:1;" x1="309.365" y1="135.334" x2="307.031" y2="79.916"/>
	<line style="fill:none;stroke:#000000;stroke-miterlimit:1;" x1="307.031" y1="79.916" x2="291.572" y2="79.916"/>
	<line style="fill:none;stroke:#000000;stroke-miterlimit:1;" x1="291.572" y1="79.916" x2="287.49" y2="123.375"/>
</g>
</svg>
