<?xml version="1.0" encoding="iso-8859-1"?>
<!-- Generator: Adobe Illustrator 16.0.1, SVG Export Plug-In . SVG Version: 6.00 Build 0)  -->
<!DOCTYPE svg PUBLIC "-//W3C//DTD SVG 1.1//EN" "http://www.w3.org/Graphics/SVG/1.1/DTD/svg11.dtd">
<svg version="1.1" id="Ebene_1" xmlns="http://www.w3.org/2000/svg" xmlns:xlink="http://www.w3.org/1999/xlink" x="0px" y="0px"
	 width="199.379px" height="148.115px" viewBox="0 0 199.379 148.115" style="enable-background:new 0 0 199.379 148.115;"
	 xml:space="preserve">
<g>
	<line style="fill:none;stroke:#000000;stroke-miterlimit:1;" x1="192.508" y1="134.455" x2="176.051" y2="132.15"/>
	<line style="fill:none;stroke:#000000;stroke-miterlimit:1;" x1="176.051" y1="132.15" x2="169.797" y2="132.809"/>
	<line style="fill:none;stroke:#000000;stroke-miterlimit:1;" x1="169.797" y1="132.809" x2="163.871" y2="134.783"/>
	<line style="fill:none;stroke:#000000;stroke-miterlimit:1;" x1="163.871" y1="134.783" x2="156.961" y2="138.404"/>
	<line style="fill:none;stroke:#000000;stroke-miterlimit:1;" x1="156.961" y1="138.404" x2="144.123" y2="142.354"/>
	<line style="fill:none;stroke:#000000;stroke-miterlimit:1;" x1="144.123" y1="142.354" x2="116.475" y2="144.988"/>
	<line style="fill:none;stroke:#000000;stroke-miterlimit:1;" x1="116.475" y1="144.988" x2="88.499" y2="144"/>
	<line style="fill:none;stroke:#000000;stroke-miterlimit:1;" x1="88.499" y1="144" x2="76.32" y2="141.695"/>
	<line style="fill:none;stroke:#000000;stroke-miterlimit:1;" x1="76.32" y1="141.695" x2="69.079" y2="138.404"/>
	<line style="fill:none;stroke:#000000;stroke-miterlimit:1;" x1="69.079" y1="138.404" x2="65.788" y2="133.467"/>
	<line style="fill:none;stroke:#000000;stroke-miterlimit:1;" x1="65.788" y1="133.467" x2="62.825" y2="123.594"/>
	<line style="fill:none;stroke:#000000;stroke-miterlimit:1;" x1="62.825" y1="123.594" x2="63.812" y2="107.795"/>
	<line style="fill:none;stroke:#000000;stroke-miterlimit:1;" x1="63.812" y1="107.795" x2="66.446" y2="101.211"/>
	<line style="fill:none;stroke:#000000;stroke-miterlimit:1;" x1="66.446" y1="101.211" x2="68.75" y2="95.615"/>
	<line style="fill:none;stroke:#000000;stroke-miterlimit:1;" x1="68.75" y1="95.615" x2="74.345" y2="91.996"/>
	<line style="fill:none;stroke:#000000;stroke-miterlimit:1;" x1="74.345" y1="91.996" x2="113.184" y2="91.996"/>
	<line style="fill:none;stroke:#000000;stroke-miterlimit:1;" x1="86.194" y1="91.338" x2="80.928" y2="91.338"/>
	<line style="fill:none;stroke:#000000;stroke-miterlimit:1;" x1="80.928" y1="91.338" x2="73.358" y2="88.703"/>
	<line style="fill:none;stroke:#000000;stroke-miterlimit:1;" x1="73.358" y1="88.703" x2="67.433" y2="85.412"/>
	<line style="fill:none;stroke:#000000;stroke-miterlimit:1;" x1="67.433" y1="85.412" x2="63.483" y2="82.121"/>
	<line style="fill:none;stroke:#000000;stroke-miterlimit:1;" x1="63.483" y1="82.121" x2="59.205" y2="77.514"/>
	<line style="fill:none;stroke:#000000;stroke-miterlimit:1;" x1="59.205" y1="77.514" x2="57.229" y2="73.563"/>
	<line style="fill:none;stroke:#000000;stroke-miterlimit:1;" x1="57.229" y1="73.563" x2="56.571" y2="70.93"/>
	<line style="fill:none;stroke:#000000;stroke-miterlimit:1;" x1="56.571" y1="70.93" x2="63.812" y2="74.88"/>
	<line style="fill:none;stroke:#000000;stroke-miterlimit:1;" x1="63.812" y1="74.88" x2="76.32" y2="77.842"/>
	<line style="fill:none;stroke:#000000;stroke-miterlimit:1;" x1="76.32" y1="77.842" x2="85.536" y2="78.172"/>
	<line style="fill:none;stroke:#000000;stroke-miterlimit:1;" x1="85.536" y1="78.172" x2="98.043" y2="78.172"/>
	<line style="fill:none;stroke:#000000;stroke-miterlimit:1;" x1="98.043" y1="78.172" x2="105.943" y2="77.842"/>
	<line style="fill:none;stroke:#000000;stroke-miterlimit:1;" x1="105.943" y1="77.842" x2="116.475" y2="76.855"/>
	<line style="fill:none;stroke:#000000;stroke-miterlimit:1;" x1="116.475" y1="76.855" x2="127.338" y2="76.855"/>
	<line style="fill:none;stroke:#000000;stroke-miterlimit:1;" x1="127.338" y1="76.855" x2="136.225" y2="77.842"/>
	<line style="fill:none;stroke:#000000;stroke-miterlimit:1;" x1="136.225" y1="77.842" x2="143.137" y2="82.121"/>
	<line style="fill:none;stroke:#000000;stroke-miterlimit:1;" x1="143.137" y1="82.121" x2="150.377" y2="88.045"/>
	<line style="fill:none;stroke:#000000;stroke-miterlimit:1;" x1="150.377" y1="88.045" x2="154.656" y2="93.312"/>
	<line style="fill:none;stroke:#000000;stroke-miterlimit:1;" x1="154.656" y1="93.312" x2="161.238" y2="99.236"/>
	<line style="fill:none;stroke:#000000;stroke-miterlimit:1;" x1="161.238" y1="99.236" x2="169.797" y2="100.553"/>
	<line style="fill:none;stroke:#000000;stroke-miterlimit:1;" x1="169.797" y1="100.553" x2="177.367" y2="101.211"/>
	<line style="fill:none;stroke:#000000;stroke-miterlimit:1;" x1="177.367" y1="101.211" x2="184.607" y2="99.895"/>
	<line style="fill:none;stroke:#000000;stroke-miterlimit:1;" x1="184.607" y1="99.895" x2="192.178" y2="97.92"/>
	<line style="fill:none;stroke:#000000;stroke-miterlimit:1;" x1="192.178" y1="97.92" x2="192.178" y2="134.125"/>
	<line style="fill:none;stroke:#000000;stroke-miterlimit:1;" x1="33.244" y1="126.062" x2="29.294" y2="121.125"/>
	<line style="fill:none;stroke:#000000;stroke-miterlimit:1;" x1="29.294" y1="121.125" x2="24.356" y2="116.188"/>
	<line style="fill:none;stroke:#000000;stroke-miterlimit:1;" x1="24.356" y1="116.188" x2="20.407" y2="111.908"/>
	<line style="fill:none;stroke:#000000;stroke-miterlimit:1;" x1="20.407" y1="111.908" x2="16.128" y2="107.301"/>
	<line style="fill:none;stroke:#000000;stroke-miterlimit:1;" x1="16.128" y1="107.301" x2="10.862" y2="102.035"/>
	<line style="fill:none;stroke:#000000;stroke-miterlimit:1;" x1="10.862" y1="102.035" x2="5.595" y2="98.084"/>
	<line style="fill:none;stroke:#000000;stroke-miterlimit:1;" x1="5.595" y1="98.084" x2="0" y2="94.135"/>
	<line style="fill:none;stroke:#000000;stroke-miterlimit:1;" x1="0" y1="94.135" x2="10.533" y2="0"/>
	<line style="fill:none;stroke:#000000;stroke-miterlimit:1;" x1="10.533" y1="0" x2="13.824" y2="0.987"/>
	<line style="fill:none;stroke:#000000;stroke-miterlimit:1;" x1="13.824" y1="0.987" x2="17.444" y2="2.633"/>
	<line style="fill:none;stroke:#000000;stroke-miterlimit:1;" x1="17.444" y1="2.633" x2="20.407" y2="4.937"/>
	<line style="fill:none;stroke:#000000;stroke-miterlimit:1;" x1="20.407" y1="4.937" x2="23.369" y2="8.558"/>
	<line style="fill:none;stroke:#000000;stroke-miterlimit:1;" x1="23.369" y1="8.558" x2="26.002" y2="12.836"/>
	<line style="fill:none;stroke:#000000;stroke-miterlimit:1;" x1="26.002" y1="12.836" x2="27.319" y2="17.444"/>
	<line style="fill:none;stroke:#000000;stroke-miterlimit:1;" x1="27.319" y1="17.444" x2="28.306" y2="21.394"/>
	<line style="fill:none;stroke:#000000;stroke-miterlimit:1;" x1="28.306" y1="21.394" x2="29.294" y2="26.661"/>
	<line style="fill:none;stroke:#000000;stroke-miterlimit:1;" x1="29.294" y1="26.661" x2="33.902" y2="147.785"/>
	<line style="fill:none;stroke:#000000;stroke-miterlimit:1;" x1="33.902" y1="147.785" x2="27.648" y2="148.115"/>
	<line style="fill:none;stroke:#000000;stroke-miterlimit:1;" x1="27.648" y1="148.115" x2="28.964" y2="120.795"/>
	<line style="fill:none;stroke:#000000;stroke-miterlimit:1;" x1="199.379" y1="0.658" x2="75.95" y2="0.658"/>
	<line style="fill:none;stroke:#000000;stroke-miterlimit:1;" x1="75.95" y1="0.658" x2="69.367" y2="1.975"/>
	<line style="fill:none;stroke:#000000;stroke-miterlimit:1;" x1="69.367" y1="1.975" x2="62.784" y2="5.266"/>
	<line style="fill:none;stroke:#000000;stroke-miterlimit:1;" x1="62.784" y1="5.266" x2="56.201" y2="9.875"/>
	<line style="fill:none;stroke:#000000;stroke-miterlimit:1;" x1="56.201" y1="9.875" x2="51.593" y2="13.824"/>
	<line style="fill:none;stroke:#000000;stroke-miterlimit:1;" x1="51.593" y1="13.824" x2="47.644" y2="18.432"/>
	<line style="fill:none;stroke:#000000;stroke-miterlimit:1;" x1="47.644" y1="18.432" x2="44.023" y2="23.698"/>
	<line style="fill:none;stroke:#000000;stroke-miterlimit:1;" x1="44.023" y1="23.698" x2="41.719" y2="26.99"/>
	<line style="fill:none;stroke:#000000;stroke-miterlimit:1;" x1="41.719" y1="26.99" x2="40.402" y2="31.598"/>
	<line style="fill:none;stroke:#000000;stroke-miterlimit:1;" x1="40.402" y1="31.598" x2="39.415" y2="35.547"/>
	<line style="fill:none;stroke:#000000;stroke-miterlimit:1;" x1="39.415" y1="35.547" x2="39.086" y2="38.839"/>
	<line style="fill:none;stroke:#000000;stroke-miterlimit:1;" x1="39.086" y1="38.839" x2="199.379" y2="38.839"/>
</g>
</svg>
