<?xml version="1.0" encoding="iso-8859-1"?>
<!-- Generator: Adobe Illustrator 16.0.1, SVG Export Plug-In . SVG Version: 6.00 Build 0)  -->
<!DOCTYPE svg PUBLIC "-//W3C//DTD SVG 1.1//EN" "http://www.w3.org/Graphics/SVG/1.1/DTD/svg11.dtd">
<svg version="1.1" id="Ebene_1" xmlns="http://www.w3.org/2000/svg" xmlns:xlink="http://www.w3.org/1999/xlink" x="0px" y="0px"
	 width="457.879px" height="150.213px" viewBox="0 0 457.879 150.213" style="enable-background:new 0 0 457.879 150.213;"
	 xml:space="preserve">
<g>
	<line style="fill:none;stroke:#000000;stroke-miterlimit:1;" x1="81.627" y1="41.595" x2="74.386" y2="40.937"/>
	<line style="fill:none;stroke:#000000;stroke-miterlimit:1;" x1="74.386" y1="40.937" x2="62.866" y2="41.595"/>
	<line style="fill:none;stroke:#000000;stroke-miterlimit:1;" x1="62.866" y1="41.595" x2="54.309" y2="40.608"/>
	<line style="fill:none;stroke:#000000;stroke-miterlimit:1;" x1="54.309" y1="40.608" x2="51.676" y2="41.595"/>
	<line style="fill:none;stroke:#000000;stroke-miterlimit:1;" x1="51.676" y1="41.595" x2="49.701" y2="44.229"/>
	<line style="fill:none;stroke:#000000;stroke-miterlimit:1;" x1="49.701" y1="44.229" x2="50.359" y2="48.836"/>
	<line style="fill:none;stroke:#000000;stroke-miterlimit:1;" x1="50.359" y1="48.836" x2="54.309" y2="61.015"/>
	<line style="fill:none;stroke:#000000;stroke-miterlimit:1;" x1="54.309" y1="61.015" x2="55.955" y2="64.306"/>
	<line style="fill:none;stroke:#000000;stroke-miterlimit:1;" x1="55.955" y1="64.306" x2="59.904" y2="69.572"/>
	<line style="fill:none;stroke:#000000;stroke-miterlimit:1;" x1="59.904" y1="69.572" x2="69.778" y2="81.751"/>
	<line style="fill:none;stroke:#000000;stroke-miterlimit:1;" x1="69.778" y1="81.751" x2="90.844" y2="103.804"/>
	<line style="fill:none;stroke:#000000;stroke-miterlimit:1;" x1="90.844" y1="103.804" x2="105.984" y2="117.956"/>
	<line style="fill:none;stroke:#000000;stroke-miterlimit:1;" x1="105.984" y1="117.956" x2="138.24" y2="149.554"/>
	<line style="fill:none;stroke:#000000;stroke-miterlimit:1;" x1="138.24" y1="149.554" x2="141.532" y2="149.554"/>
	<line style="fill:none;stroke:#000000;stroke-miterlimit:1;" x1="141.532" y1="149.554" x2="142.519" y2="147.908"/>
	<line style="fill:none;stroke:#000000;stroke-miterlimit:1;" x1="142.519" y1="147.908" x2="141.203" y2="144.946"/>
	<line style="fill:none;stroke:#000000;stroke-miterlimit:1;" x1="141.203" y1="144.946" x2="127.378" y2="113.349"/>
	<line style="fill:none;stroke:#000000;stroke-miterlimit:1;" x1="127.378" y1="113.349" x2="125.404" y2="107.424"/>
	<line style="fill:none;stroke:#000000;stroke-miterlimit:1;" x1="125.404" y1="107.424" x2="120.137" y2="94.258"/>
	<line style="fill:none;stroke:#000000;stroke-miterlimit:1;" x1="120.137" y1="94.258" x2="118.492" y2="90.967"/>
	<line style="fill:none;stroke:#000000;stroke-miterlimit:1;" x1="118.492" y1="90.967" x2="114.213" y2="82.08"/>
	<line style="fill:none;stroke:#000000;stroke-miterlimit:1;" x1="114.213" y1="82.08" x2="106.313" y2="68.585"/>
	<line style="fill:none;stroke:#000000;stroke-miterlimit:1;" x1="106.313" y1="68.585" x2="98.084" y2="55.09"/>
	<line style="fill:none;stroke:#000000;stroke-miterlimit:1;" x1="98.084" y1="55.09" x2="92.489" y2="47.52"/>
	<line style="fill:none;stroke:#000000;stroke-miterlimit:1;" x1="92.489" y1="47.52" x2="87.552" y2="40.279"/>
	<line style="fill:none;stroke:#000000;stroke-miterlimit:1;" x1="87.552" y1="40.279" x2="82.615" y2="33.696"/>
	<line style="fill:none;stroke:#000000;stroke-miterlimit:1;" x1="82.615" y1="33.696" x2="76.69" y2="26.784"/>
	<line style="fill:none;stroke:#000000;stroke-miterlimit:1;" x1="76.69" y1="26.784" x2="70.766" y2="22.834"/>
	<line style="fill:none;stroke:#000000;stroke-miterlimit:1;" x1="70.766" y1="22.834" x2="69.12" y2="15.922"/>
	<line style="fill:none;stroke:#000000;stroke-miterlimit:1;" x1="69.12" y1="15.922" x2="67.804" y2="8.352"/>
	<line style="fill:none;stroke:#000000;stroke-miterlimit:1;" x1="67.804" y1="8.352" x2="65.829" y2="3.415"/>
	<line style="fill:none;stroke:#000000;stroke-miterlimit:1;" x1="65.829" y1="3.415" x2="60.233" y2="2.098"/>
	<line style="fill:none;stroke:#000000;stroke-miterlimit:1;" x1="60.233" y1="2.098" x2="51.017" y2="2.098"/>
	<line style="fill:none;stroke:#000000;stroke-miterlimit:1;" x1="51.017" y1="2.098" x2="40.814" y2="2.427"/>
	<line style="fill:none;stroke:#000000;stroke-miterlimit:1;" x1="40.814" y1="2.427" x2="35.876" y2="3.744"/>
	<line style="fill:none;stroke:#000000;stroke-miterlimit:1;" x1="35.876" y1="3.744" x2="33.573" y2="4.402"/>
	<line style="fill:none;stroke:#000000;stroke-miterlimit:1;" x1="33.573" y1="4.402" x2="16.787" y2="6.706"/>
	<line style="fill:none;stroke:#000000;stroke-miterlimit:1;" x1="16.787" y1="6.706" x2="11.849" y2="9.01"/>
	<line style="fill:none;stroke:#000000;stroke-miterlimit:1;" x1="11.849" y1="9.01" x2="10.204" y2="11.314"/>
	<line style="fill:none;stroke:#000000;stroke-miterlimit:1;" x1="10.204" y1="11.314" x2="9.875" y2="15.922"/>
	<line style="fill:none;stroke:#000000;stroke-miterlimit:1;" x1="9.875" y1="15.922" x2="11.849" y2="12.631"/>
	<line style="fill:none;stroke:#000000;stroke-miterlimit:1;" x1="11.849" y1="12.631" x2="15.141" y2="10.985"/>
	<line style="fill:none;stroke:#000000;stroke-miterlimit:1;" x1="15.141" y1="10.985" x2="25.015" y2="10.985"/>
	<line style="fill:none;stroke:#000000;stroke-miterlimit:1;" x1="25.015" y1="10.985" x2="35.218" y2="11.314"/>
	<line style="fill:none;stroke:#000000;stroke-miterlimit:1;" x1="35.218" y1="11.314" x2="40.485" y2="12.631"/>
	<line style="fill:none;stroke:#000000;stroke-miterlimit:1;" x1="40.485" y1="12.631" x2="36.206" y2="7.364"/>
	<line style="fill:none;stroke:#000000;stroke-miterlimit:1;" x1="36.206" y1="7.364" x2="35.218" y2="3.744"/>
	<line style="fill:none;stroke:#000000;stroke-miterlimit:1;" x1="46.08" y1="10.656" x2="47.067" y2="10.327"/>
	<line style="fill:none;stroke:#000000;stroke-miterlimit:1;" x1="47.067" y1="10.327" x2="47.726" y2="8.681"/>
	<line style="fill:none;stroke:#000000;stroke-miterlimit:1;" x1="47.726" y1="8.681" x2="47.067" y2="7.035"/>
	<line style="fill:none;stroke:#000000;stroke-miterlimit:1;" x1="47.067" y1="7.035" x2="45.751" y2="6.048"/>
	<line style="fill:none;stroke:#000000;stroke-miterlimit:1;" x1="45.751" y1="6.048" x2="44.435" y2="7.035"/>
	<line style="fill:none;stroke:#000000;stroke-miterlimit:1;" x1="44.435" y1="7.035" x2="44.105" y2="9.01"/>
	<line style="fill:none;stroke:#000000;stroke-miterlimit:1;" x1="44.105" y1="9.01" x2="44.764" y2="9.998"/>
	<line style="fill:none;stroke:#000000;stroke-miterlimit:1;" x1="44.764" y1="9.998" x2="45.751" y2="10.656"/>
	<line style="fill:none;stroke:#000000;stroke-miterlimit:1;" x1="11.52" y1="13.947" x2="24.686" y2="13.618"/>
	<line style="fill:none;stroke:#000000;stroke-miterlimit:1;" x1="24.686" y1="13.618" x2="34.889" y2="14.935"/>
	<line style="fill:none;stroke:#000000;stroke-miterlimit:1;" x1="34.889" y1="14.935" x2="37.852" y2="16.581"/>
	<line style="fill:none;stroke:#000000;stroke-miterlimit:1;" x1="37.852" y1="16.581" x2="38.839" y2="19.872"/>
	<line style="fill:none;stroke:#000000;stroke-miterlimit:1;" x1="38.839" y1="19.872" x2="39.168" y2="23.492"/>
	<line style="fill:none;stroke:#000000;stroke-miterlimit:1;" x1="39.168" y1="23.492" x2="36.206" y2="30.733"/>
	<line style="fill:none;stroke:#000000;stroke-miterlimit:1;" x1="36.206" y1="30.733" x2="34.889" y2="39.621"/>
	<line style="fill:none;stroke:#000000;stroke-miterlimit:1;" x1="34.889" y1="39.621" x2="36.535" y2="50.482"/>
	<line style="fill:none;stroke:#000000;stroke-miterlimit:1;" x1="36.535" y1="50.482" x2="37.852" y2="55.419"/>
	<line style="fill:none;stroke:#000000;stroke-miterlimit:1;" x1="37.852" y1="55.419" x2="39.827" y2="61.344"/>
	<line style="fill:none;stroke:#000000;stroke-miterlimit:1;" x1="39.827" y1="61.344" x2="41.143" y2="63.977"/>
	<line style="fill:none;stroke:#000000;stroke-miterlimit:1;" x1="41.143" y1="63.977" x2="45.751" y2="73.193"/>
	<line style="fill:none;stroke:#000000;stroke-miterlimit:1;" x1="45.751" y1="73.193" x2="62.537" y2="103.474"/>
	<line style="fill:none;stroke:#000000;stroke-miterlimit:1;" x1="62.537" y1="103.474" x2="69.449" y2="116.311"/>
	<line style="fill:none;stroke:#000000;stroke-miterlimit:1;" x1="69.449" y1="116.311" x2="70.766" y2="126.185"/>
	<line style="fill:none;stroke:#000000;stroke-miterlimit:1;" x1="70.766" y1="126.185" x2="69.12" y2="142.972"/>
	<line style="fill:none;stroke:#000000;stroke-miterlimit:1;" x1="69.12" y1="142.972" x2="67.475" y2="144.617"/>
	<line style="fill:none;stroke:#000000;stroke-miterlimit:1;" x1="67.475" y1="144.617" x2="57.929" y2="145.604"/>
	<line style="fill:none;stroke:#000000;stroke-miterlimit:1;" x1="57.929" y1="145.604" x2="46.738" y2="145.275"/>
	<line style="fill:none;stroke:#000000;stroke-miterlimit:1;" x1="46.738" y1="145.275" x2="46.08" y2="146.921"/>
	<line style="fill:none;stroke:#000000;stroke-miterlimit:1;" x1="46.08" y1="146.921" x2="41.143" y2="147.579"/>
	<line style="fill:none;stroke:#000000;stroke-miterlimit:1;" x1="41.143" y1="147.579" x2="40.485" y2="148.566"/>
	<line style="fill:none;stroke:#000000;stroke-miterlimit:1;" x1="40.485" y1="148.566" x2="41.472" y2="149.883"/>
	<line style="fill:none;stroke:#000000;stroke-miterlimit:1;" x1="41.472" y1="149.883" x2="69.778" y2="148.896"/>
	<line style="fill:none;stroke:#000000;stroke-miterlimit:1;" x1="69.778" y1="148.896" x2="99.072" y2="150.213"/>
	<line style="fill:none;stroke:#000000;stroke-miterlimit:1;" x1="99.072" y1="150.213" x2="100.389" y2="148.896"/>
	<line style="fill:none;stroke:#000000;stroke-miterlimit:1;" x1="100.389" y1="148.896" x2="99.73" y2="147.25"/>
	<line style="fill:none;stroke:#000000;stroke-miterlimit:1;" x1="99.73" y1="147.25" x2="95.123" y2="147.25"/>
	<line style="fill:none;stroke:#000000;stroke-miterlimit:1;" x1="95.123" y1="147.25" x2="92.489" y2="144.946"/>
	<line style="fill:none;stroke:#000000;stroke-miterlimit:1;" x1="92.489" y1="144.946" x2="75.703" y2="144.617"/>
	<line style="fill:none;stroke:#000000;stroke-miterlimit:1;" x1="75.703" y1="144.617" x2="73.728" y2="143.301"/>
	<line style="fill:none;stroke:#000000;stroke-miterlimit:1;" x1="73.728" y1="143.301" x2="75.703" y2="122.564"/>
	<line style="fill:none;stroke:#000000;stroke-miterlimit:1;" x1="75.703" y1="122.564" x2="87.881" y2="128.818"/>
	<line style="fill:none;stroke:#000000;stroke-miterlimit:1;" x1="87.881" y1="128.818" x2="94.793" y2="108.411"/>
	<line style="fill:none;stroke:#000000;stroke-miterlimit:1;" x1="94.793" y1="108.411" x2="107.959" y2="141.325"/>
	<line style="fill:none;stroke:#000000;stroke-miterlimit:1;" x1="107.959" y1="141.325" x2="112.567" y2="147.25"/>
	<line style="fill:none;stroke:#000000;stroke-miterlimit:1;" x1="112.567" y1="147.25" x2="117.175" y2="149.883"/>
	<line style="fill:none;stroke:#000000;stroke-miterlimit:1;" x1="117.175" y1="149.883" x2="124.087" y2="149.883"/>
	<line style="fill:none;stroke:#000000;stroke-miterlimit:1;" x1="124.087" y1="149.883" x2="128.037" y2="148.566"/>
	<line style="fill:none;stroke:#000000;stroke-miterlimit:1;" x1="128.037" y1="148.566" x2="129.024" y2="146.592"/>
	<line style="fill:none;stroke:#000000;stroke-miterlimit:1;" x1="129.024" y1="146.592" x2="125.733" y2="137.705"/>
	<line style="fill:none;stroke:#000000;stroke-miterlimit:1;" x1="44.105" y1="70.889" x2="46.738" y2="80.764"/>
	<line style="fill:none;stroke:#000000;stroke-miterlimit:1;" x1="46.738" y1="80.764" x2="47.726" y2="90.967"/>
	<line style="fill:none;stroke:#000000;stroke-miterlimit:1;" x1="47.726" y1="90.967" x2="48.055" y2="94.916"/>
	<line style="fill:none;stroke:#000000;stroke-miterlimit:1;" x1="48.055" y1="94.916" x2="48.055" y2="113.349"/>
	<line style="fill:none;stroke:#000000;stroke-miterlimit:1;" x1="48.055" y1="113.349" x2="44.764" y2="132.109"/>
	<line style="fill:none;stroke:#000000;stroke-miterlimit:1;" x1="44.764" y1="132.109" x2="41.801" y2="141.654"/>
	<line style="fill:none;stroke:#000000;stroke-miterlimit:1;" x1="41.801" y1="141.654" x2="39.827" y2="143.959"/>
	<line style="fill:none;stroke:#000000;stroke-miterlimit:1;" x1="39.827" y1="143.959" x2="24.027" y2="144.946"/>
	<line style="fill:none;stroke:#000000;stroke-miterlimit:1;" x1="24.027" y1="144.946" x2="22.382" y2="147.25"/>
	<line style="fill:none;stroke:#000000;stroke-miterlimit:1;" x1="22.382" y1="147.25" x2="18.761" y2="147.579"/>
	<line style="fill:none;stroke:#000000;stroke-miterlimit:1;" x1="18.761" y1="147.579" x2="17.445" y2="148.566"/>
	<line style="fill:none;stroke:#000000;stroke-miterlimit:1;" x1="17.445" y1="148.566" x2="18.761" y2="149.883"/>
	<line style="fill:none;stroke:#000000;stroke-miterlimit:1;" x1="18.761" y1="149.883" x2="30.939" y2="148.896"/>
	<line style="fill:none;stroke:#000000;stroke-miterlimit:1;" x1="30.939" y1="148.896" x2="34.56" y2="149.225"/>
	<line style="fill:none;stroke:#000000;stroke-miterlimit:1;" x1="46.409" y1="145.275" x2="40.814" y2="145.934"/>
	<line style="fill:none;stroke:#000000;stroke-miterlimit:1;" x1="40.814" y1="145.934" x2="40.814" y2="145.934"/>
	<line style="fill:none;stroke:#000000;stroke-miterlimit:1;" x1="40.814" y1="145.934" x2="37.522" y2="146.592"/>
	<line style="fill:none;stroke:#000000;stroke-miterlimit:1;" x1="37.522" y1="146.592" x2="35.547" y2="149.225"/>
	<line style="fill:none;stroke:#000000;stroke-miterlimit:1;" x1="35.547" y1="149.225" x2="36.864" y2="149.883"/>
	<line style="fill:none;stroke:#000000;stroke-miterlimit:1;" x1="36.864" y1="149.883" x2="38.839" y2="147.908"/>
	<line style="fill:none;stroke:#000000;stroke-miterlimit:1;" x1="38.839" y1="147.908" x2="40.814" y2="147.579"/>
	<line style="fill:none;stroke:#000000;stroke-miterlimit:1;" x1="46.08" y1="144.946" x2="53.321" y2="117.956"/>
	<line style="fill:none;stroke:#000000;stroke-miterlimit:1;" x1="53.321" y1="117.956" x2="64.512" y2="124.539"/>
	<line style="fill:none;stroke:#000000;stroke-miterlimit:1;" x1="64.512" y1="124.539" x2="66.816" y2="112.361"/>
	<line style="fill:none;stroke:#000000;stroke-miterlimit:1;" x1="23.04" y1="145.275" x2="17.774" y2="145.934"/>
	<line style="fill:none;stroke:#000000;stroke-miterlimit:1;" x1="17.774" y1="145.934" x2="17.774" y2="145.934"/>
	<line style="fill:none;stroke:#000000;stroke-miterlimit:1;" x1="17.774" y1="145.934" x2="14.482" y2="146.592"/>
	<line style="fill:none;stroke:#000000;stroke-miterlimit:1;" x1="14.482" y1="146.592" x2="12.507" y2="149.225"/>
	<line style="fill:none;stroke:#000000;stroke-miterlimit:1;" x1="12.507" y1="149.225" x2="13.495" y2="149.883"/>
	<line style="fill:none;stroke:#000000;stroke-miterlimit:1;" x1="13.495" y1="149.883" x2="15.799" y2="147.908"/>
	<line style="fill:none;stroke:#000000;stroke-miterlimit:1;" x1="15.799" y1="147.908" x2="18.432" y2="147.579"/>
	<line style="fill:none;stroke:#000000;stroke-miterlimit:1;" x1="93.147" y1="144.946" x2="99.401" y2="145.604"/>
	<line style="fill:none;stroke:#000000;stroke-miterlimit:1;" x1="99.401" y1="145.604" x2="102.364" y2="146.592"/>
	<line style="fill:none;stroke:#000000;stroke-miterlimit:1;" x1="102.364" y1="146.592" x2="104.338" y2="149.225"/>
	<line style="fill:none;stroke:#000000;stroke-miterlimit:1;" x1="104.338" y1="149.225" x2="103.351" y2="149.883"/>
	<line style="fill:none;stroke:#000000;stroke-miterlimit:1;" x1="103.351" y1="149.883" x2="101.047" y2="147.908"/>
	<line style="fill:none;stroke:#000000;stroke-miterlimit:1;" x1="101.047" y1="147.908" x2="99.401" y2="147.579"/>
	<line style="fill:none;stroke:#000000;stroke-miterlimit:1;" x1="148.114" y1="61.015" x2="101.376" y2="61.015"/>
	<line style="fill:none;stroke:#000000;stroke-miterlimit:1;" x1="39.497" y1="61.015" x2="32.256" y2="61.015"/>
	<line style="fill:none;stroke:#000000;stroke-miterlimit:1;" x1="32.256" y1="61.015" x2="26.332" y2="62.331"/>
	<line style="fill:none;stroke:#000000;stroke-miterlimit:1;" x1="26.332" y1="62.331" x2="20.736" y2="64.964"/>
	<line style="fill:none;stroke:#000000;stroke-miterlimit:1;" x1="20.736" y1="64.964" x2="14.812" y2="69.243"/>
	<line style="fill:none;stroke:#000000;stroke-miterlimit:1;" x1="14.812" y1="69.243" x2="10.862" y2="72.535"/>
	<line style="fill:none;stroke:#000000;stroke-miterlimit:1;" x1="10.862" y1="72.535" x2="7.241" y2="76.484"/>
	<line style="fill:none;stroke:#000000;stroke-miterlimit:1;" x1="7.241" y1="76.484" x2="4.279" y2="80.435"/>
	<line style="fill:none;stroke:#000000;stroke-miterlimit:1;" x1="4.279" y1="80.435" x2="2.304" y2="84.384"/>
	<line style="fill:none;stroke:#000000;stroke-miterlimit:1;" x1="2.304" y1="84.384" x2="0.988" y2="88.334"/>
	<line style="fill:none;stroke:#000000;stroke-miterlimit:1;" x1="0.988" y1="88.334" x2="0.329" y2="91.625"/>
	<line style="fill:none;stroke:#000000;stroke-miterlimit:1;" x1="0.329" y1="91.625" x2="0" y2="94.587"/>
	<line style="fill:none;stroke:#000000;stroke-miterlimit:1;" x1="0" y1="94.587" x2="148.114" y2="94.587"/>
	<line style="fill:none;stroke:#000000;stroke-miterlimit:1;" x1="311.822" y1="63.524" x2="295.365" y2="61.22"/>
	<line style="fill:none;stroke:#000000;stroke-miterlimit:1;" x1="295.365" y1="61.22" x2="289.111" y2="61.879"/>
	<line style="fill:none;stroke:#000000;stroke-miterlimit:1;" x1="289.111" y1="61.879" x2="283.186" y2="63.854"/>
	<line style="fill:none;stroke:#000000;stroke-miterlimit:1;" x1="283.186" y1="63.854" x2="276.275" y2="67.474"/>
	<line style="fill:none;stroke:#000000;stroke-miterlimit:1;" x1="276.275" y1="67.474" x2="263.438" y2="71.424"/>
	<line style="fill:none;stroke:#000000;stroke-miterlimit:1;" x1="263.438" y1="71.424" x2="235.789" y2="74.057"/>
	<line style="fill:none;stroke:#000000;stroke-miterlimit:1;" x1="235.789" y1="74.057" x2="207.812" y2="73.069"/>
	<line style="fill:none;stroke:#000000;stroke-miterlimit:1;" x1="207.812" y1="73.069" x2="195.634" y2="70.766"/>
	<line style="fill:none;stroke:#000000;stroke-miterlimit:1;" x1="195.634" y1="70.766" x2="188.393" y2="67.474"/>
	<line style="fill:none;stroke:#000000;stroke-miterlimit:1;" x1="188.393" y1="67.474" x2="185.102" y2="62.537"/>
	<line style="fill:none;stroke:#000000;stroke-miterlimit:1;" x1="185.102" y1="62.537" x2="182.14" y2="52.663"/>
	<line style="fill:none;stroke:#000000;stroke-miterlimit:1;" x1="182.14" y1="52.663" x2="183.127" y2="36.864"/>
	<line style="fill:none;stroke:#000000;stroke-miterlimit:1;" x1="183.127" y1="36.864" x2="185.76" y2="30.281"/>
	<line style="fill:none;stroke:#000000;stroke-miterlimit:1;" x1="185.76" y1="30.281" x2="188.064" y2="24.686"/>
	<line style="fill:none;stroke:#000000;stroke-miterlimit:1;" x1="188.064" y1="24.686" x2="193.66" y2="21.065"/>
	<line style="fill:none;stroke:#000000;stroke-miterlimit:1;" x1="193.66" y1="21.065" x2="232.498" y2="21.065"/>
	<line style="fill:none;stroke:#000000;stroke-miterlimit:1;" x1="205.509" y1="20.407" x2="200.243" y2="20.407"/>
	<line style="fill:none;stroke:#000000;stroke-miterlimit:1;" x1="200.243" y1="20.407" x2="192.672" y2="17.773"/>
	<line style="fill:none;stroke:#000000;stroke-miterlimit:1;" x1="192.672" y1="17.773" x2="186.748" y2="14.482"/>
	<line style="fill:none;stroke:#000000;stroke-miterlimit:1;" x1="186.748" y1="14.482" x2="182.798" y2="11.19"/>
	<line style="fill:none;stroke:#000000;stroke-miterlimit:1;" x1="182.798" y1="11.19" x2="178.519" y2="6.583"/>
	<line style="fill:none;stroke:#000000;stroke-miterlimit:1;" x1="178.519" y1="6.583" x2="176.544" y2="2.633"/>
	<line style="fill:none;stroke:#000000;stroke-miterlimit:1;" x1="176.544" y1="2.633" x2="175.886" y2="0"/>
	<line style="fill:none;stroke:#000000;stroke-miterlimit:1;" x1="175.886" y1="0" x2="183.127" y2="3.95"/>
	<line style="fill:none;stroke:#000000;stroke-miterlimit:1;" x1="183.127" y1="3.95" x2="195.634" y2="6.912"/>
	<line style="fill:none;stroke:#000000;stroke-miterlimit:1;" x1="195.634" y1="6.912" x2="204.851" y2="7.241"/>
	<line style="fill:none;stroke:#000000;stroke-miterlimit:1;" x1="204.851" y1="7.241" x2="217.358" y2="7.241"/>
	<line style="fill:none;stroke:#000000;stroke-miterlimit:1;" x1="217.358" y1="7.241" x2="225.257" y2="6.912"/>
	<line style="fill:none;stroke:#000000;stroke-miterlimit:1;" x1="225.257" y1="6.912" x2="235.789" y2="5.924"/>
	<line style="fill:none;stroke:#000000;stroke-miterlimit:1;" x1="235.789" y1="5.924" x2="246.652" y2="5.924"/>
	<line style="fill:none;stroke:#000000;stroke-miterlimit:1;" x1="246.652" y1="5.924" x2="255.539" y2="6.912"/>
	<line style="fill:none;stroke:#000000;stroke-miterlimit:1;" x1="255.539" y1="6.912" x2="262.451" y2="11.19"/>
	<line style="fill:none;stroke:#000000;stroke-miterlimit:1;" x1="262.451" y1="11.19" x2="269.691" y2="17.115"/>
	<line style="fill:none;stroke:#000000;stroke-miterlimit:1;" x1="269.691" y1="17.115" x2="273.971" y2="22.381"/>
	<line style="fill:none;stroke:#000000;stroke-miterlimit:1;" x1="273.971" y1="22.381" x2="280.553" y2="28.306"/>
	<line style="fill:none;stroke:#000000;stroke-miterlimit:1;" x1="280.553" y1="28.306" x2="289.111" y2="29.623"/>
	<line style="fill:none;stroke:#000000;stroke-miterlimit:1;" x1="289.111" y1="29.623" x2="296.682" y2="30.281"/>
	<line style="fill:none;stroke:#000000;stroke-miterlimit:1;" x1="296.682" y1="30.281" x2="303.922" y2="28.964"/>
	<line style="fill:none;stroke:#000000;stroke-miterlimit:1;" x1="303.922" y1="28.964" x2="311.492" y2="26.99"/>
	<line style="fill:none;stroke:#000000;stroke-miterlimit:1;" x1="311.492" y1="26.99" x2="311.492" y2="63.195"/>
	<line style="fill:none;stroke:#000000;stroke-miterlimit:1;" x1="457.879" y1="63.524" x2="441.422" y2="61.22"/>
	<line style="fill:none;stroke:#000000;stroke-miterlimit:1;" x1="441.422" y1="61.22" x2="435.168" y2="61.879"/>
	<line style="fill:none;stroke:#000000;stroke-miterlimit:1;" x1="435.168" y1="61.879" x2="429.244" y2="63.854"/>
	<line style="fill:none;stroke:#000000;stroke-miterlimit:1;" x1="429.244" y1="63.854" x2="422.332" y2="67.474"/>
	<line style="fill:none;stroke:#000000;stroke-miterlimit:1;" x1="422.332" y1="67.474" x2="409.494" y2="71.424"/>
	<line style="fill:none;stroke:#000000;stroke-miterlimit:1;" x1="409.494" y1="71.424" x2="381.848" y2="74.057"/>
	<line style="fill:none;stroke:#000000;stroke-miterlimit:1;" x1="381.848" y1="74.057" x2="353.869" y2="73.069"/>
	<line style="fill:none;stroke:#000000;stroke-miterlimit:1;" x1="353.869" y1="73.069" x2="341.691" y2="70.766"/>
	<line style="fill:none;stroke:#000000;stroke-miterlimit:1;" x1="341.691" y1="70.766" x2="334.451" y2="67.474"/>
	<line style="fill:none;stroke:#000000;stroke-miterlimit:1;" x1="334.451" y1="67.474" x2="331.158" y2="62.537"/>
	<line style="fill:none;stroke:#000000;stroke-miterlimit:1;" x1="331.158" y1="62.537" x2="328.197" y2="52.663"/>
	<line style="fill:none;stroke:#000000;stroke-miterlimit:1;" x1="328.197" y1="52.663" x2="329.184" y2="36.864"/>
	<line style="fill:none;stroke:#000000;stroke-miterlimit:1;" x1="329.184" y1="36.864" x2="331.816" y2="30.281"/>
	<line style="fill:none;stroke:#000000;stroke-miterlimit:1;" x1="331.816" y1="30.281" x2="334.121" y2="24.686"/>
	<line style="fill:none;stroke:#000000;stroke-miterlimit:1;" x1="334.121" y1="24.686" x2="339.717" y2="21.065"/>
	<line style="fill:none;stroke:#000000;stroke-miterlimit:1;" x1="339.717" y1="21.065" x2="378.555" y2="21.065"/>
	<line style="fill:none;stroke:#000000;stroke-miterlimit:1;" x1="351.566" y1="20.407" x2="346.299" y2="20.407"/>
	<line style="fill:none;stroke:#000000;stroke-miterlimit:1;" x1="346.299" y1="20.407" x2="338.729" y2="17.773"/>
	<line style="fill:none;stroke:#000000;stroke-miterlimit:1;" x1="338.729" y1="17.773" x2="332.805" y2="14.482"/>
	<line style="fill:none;stroke:#000000;stroke-miterlimit:1;" x1="332.805" y1="14.482" x2="328.855" y2="11.19"/>
	<line style="fill:none;stroke:#000000;stroke-miterlimit:1;" x1="328.855" y1="11.19" x2="324.576" y2="6.583"/>
	<line style="fill:none;stroke:#000000;stroke-miterlimit:1;" x1="324.576" y1="6.583" x2="322.602" y2="2.633"/>
	<line style="fill:none;stroke:#000000;stroke-miterlimit:1;" x1="322.602" y1="2.633" x2="321.943" y2="0"/>
	<line style="fill:none;stroke:#000000;stroke-miterlimit:1;" x1="321.943" y1="0" x2="329.184" y2="3.95"/>
	<line style="fill:none;stroke:#000000;stroke-miterlimit:1;" x1="329.184" y1="3.95" x2="341.691" y2="6.912"/>
	<line style="fill:none;stroke:#000000;stroke-miterlimit:1;" x1="341.691" y1="6.912" x2="350.908" y2="7.241"/>
	<line style="fill:none;stroke:#000000;stroke-miterlimit:1;" x1="350.908" y1="7.241" x2="363.414" y2="7.241"/>
	<line style="fill:none;stroke:#000000;stroke-miterlimit:1;" x1="363.414" y1="7.241" x2="371.314" y2="6.912"/>
	<line style="fill:none;stroke:#000000;stroke-miterlimit:1;" x1="371.314" y1="6.912" x2="381.848" y2="5.924"/>
	<line style="fill:none;stroke:#000000;stroke-miterlimit:1;" x1="381.848" y1="5.924" x2="392.709" y2="5.924"/>
	<line style="fill:none;stroke:#000000;stroke-miterlimit:1;" x1="392.709" y1="5.924" x2="401.596" y2="6.912"/>
	<line style="fill:none;stroke:#000000;stroke-miterlimit:1;" x1="401.596" y1="6.912" x2="408.508" y2="11.19"/>
	<line style="fill:none;stroke:#000000;stroke-miterlimit:1;" x1="408.508" y1="11.19" x2="415.748" y2="17.115"/>
	<line style="fill:none;stroke:#000000;stroke-miterlimit:1;" x1="415.748" y1="17.115" x2="420.027" y2="22.381"/>
	<line style="fill:none;stroke:#000000;stroke-miterlimit:1;" x1="420.027" y1="22.381" x2="426.611" y2="28.306"/>
	<line style="fill:none;stroke:#000000;stroke-miterlimit:1;" x1="426.611" y1="28.306" x2="435.168" y2="29.623"/>
	<line style="fill:none;stroke:#000000;stroke-miterlimit:1;" x1="435.168" y1="29.623" x2="442.738" y2="30.281"/>
	<line style="fill:none;stroke:#000000;stroke-miterlimit:1;" x1="442.738" y1="30.281" x2="449.98" y2="28.964"/>
	<line style="fill:none;stroke:#000000;stroke-miterlimit:1;" x1="449.98" y1="28.964" x2="457.551" y2="26.99"/>
	<line style="fill:none;stroke:#000000;stroke-miterlimit:1;" x1="457.551" y1="26.99" x2="457.551" y2="63.195"/>
	<line style="fill:none;stroke:#000000;stroke-miterlimit:1;" x1="189.257" y1="89.115" x2="189.257" y2="148.361"/>
	<line style="fill:none;stroke:#000000;stroke-miterlimit:1;" x1="189.257" y1="148.361" x2="199.79" y2="148.361"/>
	<line style="fill:none;stroke:#000000;stroke-miterlimit:1;" x1="199.79" y1="148.361" x2="199.79" y2="89.115"/>
	<line style="fill:none;stroke:#000000;stroke-miterlimit:1;" x1="199.79" y1="89.115" x2="189.257" y2="89.115"/>
	<line style="fill:none;stroke:#000000;stroke-miterlimit:1;" x1="241.92" y1="89.115" x2="241.92" y2="148.361"/>
	<line style="fill:none;stroke:#000000;stroke-miterlimit:1;" x1="241.92" y1="148.361" x2="252.781" y2="148.361"/>
	<line style="fill:none;stroke:#000000;stroke-miterlimit:1;" x1="252.781" y1="148.361" x2="252.781" y2="89.115"/>
	<line style="fill:none;stroke:#000000;stroke-miterlimit:1;" x1="252.781" y1="89.115" x2="241.92" y2="89.115"/>
	<line style="fill:none;stroke:#000000;stroke-miterlimit:1;" x1="295.242" y1="89.115" x2="295.242" y2="148.361"/>
	<line style="fill:none;stroke:#000000;stroke-miterlimit:1;" x1="295.242" y1="148.361" x2="305.773" y2="148.361"/>
	<line style="fill:none;stroke:#000000;stroke-miterlimit:1;" x1="305.773" y1="148.361" x2="305.773" y2="89.115"/>
	<line style="fill:none;stroke:#000000;stroke-miterlimit:1;" x1="305.773" y1="89.115" x2="295.242" y2="89.115"/>
</g>
</svg>
