<?xml version="1.0" encoding="iso-8859-1"?>
<!-- Generator: Adobe Illustrator 16.0.1, SVG Export Plug-In . SVG Version: 6.00 Build 0)  -->
<!DOCTYPE svg PUBLIC "-//W3C//DTD SVG 1.1//EN" "http://www.w3.org/Graphics/SVG/1.1/DTD/svg11.dtd">
<svg version="1.1" id="Ebene_1" xmlns="http://www.w3.org/2000/svg" xmlns:xlink="http://www.w3.org/1999/xlink" x="0px" y="0px"
	 width="328.96px" height="149.184px" viewBox="0 0 328.96 149.184" style="enable-background:new 0 0 328.96 149.184;"
	 xml:space="preserve">
<g>
	<line style="fill:none;stroke:#000000;stroke-miterlimit:1;" x1="71.753" y1="40.567" x2="64.512" y2="39.909"/>
	<line style="fill:none;stroke:#000000;stroke-miterlimit:1;" x1="64.512" y1="39.909" x2="52.992" y2="40.567"/>
	<line style="fill:none;stroke:#000000;stroke-miterlimit:1;" x1="52.992" y1="40.567" x2="44.435" y2="39.58"/>
	<line style="fill:none;stroke:#000000;stroke-miterlimit:1;" x1="44.435" y1="39.58" x2="41.801" y2="40.567"/>
	<line style="fill:none;stroke:#000000;stroke-miterlimit:1;" x1="41.801" y1="40.567" x2="39.826" y2="43.2"/>
	<line style="fill:none;stroke:#000000;stroke-miterlimit:1;" x1="39.826" y1="43.2" x2="40.485" y2="47.808"/>
	<line style="fill:none;stroke:#000000;stroke-miterlimit:1;" x1="40.485" y1="47.808" x2="43.776" y2="58.34"/>
	<line style="fill:none;stroke:#000000;stroke-miterlimit:1;" x1="43.776" y1="58.34" x2="50.03" y2="68.544"/>
	<line style="fill:none;stroke:#000000;stroke-miterlimit:1;" x1="50.03" y1="68.544" x2="70.437" y2="92.9"/>
	<line style="fill:none;stroke:#000000;stroke-miterlimit:1;" x1="70.437" y1="92.9" x2="80.969" y2="102.774"/>
	<line style="fill:none;stroke:#000000;stroke-miterlimit:1;" x1="80.969" y1="102.774" x2="96.11" y2="116.928"/>
	<line style="fill:none;stroke:#000000;stroke-miterlimit:1;" x1="96.11" y1="116.928" x2="128.366" y2="148.525"/>
	<line style="fill:none;stroke:#000000;stroke-miterlimit:1;" x1="128.366" y1="148.525" x2="131.657" y2="148.525"/>
	<line style="fill:none;stroke:#000000;stroke-miterlimit:1;" x1="131.657" y1="148.525" x2="132.645" y2="146.88"/>
	<line style="fill:none;stroke:#000000;stroke-miterlimit:1;" x1="132.645" y1="146.88" x2="131.328" y2="143.918"/>
	<line style="fill:none;stroke:#000000;stroke-miterlimit:1;" x1="131.328" y1="143.918" x2="117.504" y2="112.32"/>
	<line style="fill:none;stroke:#000000;stroke-miterlimit:1;" x1="117.504" y1="112.32" x2="115.529" y2="106.396"/>
	<line style="fill:none;stroke:#000000;stroke-miterlimit:1;" x1="115.529" y1="106.396" x2="104.997" y2="81.052"/>
	<line style="fill:none;stroke:#000000;stroke-miterlimit:1;" x1="104.997" y1="81.052" x2="95.452" y2="64.594"/>
	<line style="fill:none;stroke:#000000;stroke-miterlimit:1;" x1="95.452" y1="64.594" x2="87.881" y2="54.062"/>
	<line style="fill:none;stroke:#000000;stroke-miterlimit:1;" x1="87.881" y1="54.062" x2="82.286" y2="46.491"/>
	<line style="fill:none;stroke:#000000;stroke-miterlimit:1;" x1="82.286" y1="46.491" x2="77.678" y2="39.25"/>
	<line style="fill:none;stroke:#000000;stroke-miterlimit:1;" x1="77.678" y1="39.25" x2="72.741" y2="32.667"/>
	<line style="fill:none;stroke:#000000;stroke-miterlimit:1;" x1="72.741" y1="32.667" x2="66.816" y2="25.755"/>
	<line style="fill:none;stroke:#000000;stroke-miterlimit:1;" x1="66.816" y1="25.755" x2="60.892" y2="21.806"/>
	<line style="fill:none;stroke:#000000;stroke-miterlimit:1;" x1="60.892" y1="21.806" x2="59.246" y2="14.894"/>
	<line style="fill:none;stroke:#000000;stroke-miterlimit:1;" x1="59.246" y1="14.894" x2="57.929" y2="7.323"/>
	<line style="fill:none;stroke:#000000;stroke-miterlimit:1;" x1="57.929" y1="7.323" x2="55.955" y2="2.386"/>
	<line style="fill:none;stroke:#000000;stroke-miterlimit:1;" x1="55.955" y1="2.386" x2="50.359" y2="1.07"/>
	<line style="fill:none;stroke:#000000;stroke-miterlimit:1;" x1="50.359" y1="1.07" x2="41.143" y2="1.07"/>
	<line style="fill:none;stroke:#000000;stroke-miterlimit:1;" x1="41.143" y1="1.07" x2="30.939" y2="1.399"/>
	<line style="fill:none;stroke:#000000;stroke-miterlimit:1;" x1="30.939" y1="1.399" x2="26.002" y2="2.715"/>
	<line style="fill:none;stroke:#000000;stroke-miterlimit:1;" x1="26.002" y1="2.715" x2="23.698" y2="3.374"/>
	<line style="fill:none;stroke:#000000;stroke-miterlimit:1;" x1="23.698" y1="3.374" x2="6.912" y2="5.678"/>
	<line style="fill:none;stroke:#000000;stroke-miterlimit:1;" x1="6.912" y1="5.678" x2="1.975" y2="7.981"/>
	<line style="fill:none;stroke:#000000;stroke-miterlimit:1;" x1="1.975" y1="7.981" x2="0.329" y2="10.286"/>
	<line style="fill:none;stroke:#000000;stroke-miterlimit:1;" x1="0.329" y1="10.286" x2="0" y2="14.894"/>
	<line style="fill:none;stroke:#000000;stroke-miterlimit:1;" x1="0" y1="14.894" x2="1.975" y2="11.602"/>
	<line style="fill:none;stroke:#000000;stroke-miterlimit:1;" x1="1.975" y1="11.602" x2="5.267" y2="9.957"/>
	<line style="fill:none;stroke:#000000;stroke-miterlimit:1;" x1="5.267" y1="9.957" x2="15.141" y2="9.957"/>
	<line style="fill:none;stroke:#000000;stroke-miterlimit:1;" x1="15.141" y1="9.957" x2="25.344" y2="10.286"/>
	<line style="fill:none;stroke:#000000;stroke-miterlimit:1;" x1="25.344" y1="10.286" x2="30.61" y2="11.602"/>
	<line style="fill:none;stroke:#000000;stroke-miterlimit:1;" x1="30.61" y1="11.602" x2="26.332" y2="6.336"/>
	<line style="fill:none;stroke:#000000;stroke-miterlimit:1;" x1="26.332" y1="6.336" x2="25.344" y2="2.715"/>
	<line style="fill:none;stroke:#000000;stroke-miterlimit:1;" x1="36.206" y1="9.627" x2="37.193" y2="9.298"/>
	<line style="fill:none;stroke:#000000;stroke-miterlimit:1;" x1="37.193" y1="9.298" x2="37.852" y2="7.652"/>
	<line style="fill:none;stroke:#000000;stroke-miterlimit:1;" x1="37.852" y1="7.652" x2="37.193" y2="6.007"/>
	<line style="fill:none;stroke:#000000;stroke-miterlimit:1;" x1="37.193" y1="6.007" x2="35.876" y2="5.02"/>
	<line style="fill:none;stroke:#000000;stroke-miterlimit:1;" x1="35.876" y1="5.02" x2="34.56" y2="6.007"/>
	<line style="fill:none;stroke:#000000;stroke-miterlimit:1;" x1="34.56" y1="6.007" x2="34.231" y2="7.981"/>
	<line style="fill:none;stroke:#000000;stroke-miterlimit:1;" x1="34.231" y1="7.981" x2="34.889" y2="8.969"/>
	<line style="fill:none;stroke:#000000;stroke-miterlimit:1;" x1="34.889" y1="8.969" x2="35.876" y2="9.627"/>
	<line style="fill:none;stroke:#000000;stroke-miterlimit:1;" x1="1.646" y1="12.919" x2="14.812" y2="12.59"/>
	<line style="fill:none;stroke:#000000;stroke-miterlimit:1;" x1="14.812" y1="12.59" x2="25.015" y2="13.906"/>
	<line style="fill:none;stroke:#000000;stroke-miterlimit:1;" x1="25.015" y1="13.906" x2="27.977" y2="15.552"/>
	<line style="fill:none;stroke:#000000;stroke-miterlimit:1;" x1="27.977" y1="15.552" x2="28.965" y2="18.843"/>
	<line style="fill:none;stroke:#000000;stroke-miterlimit:1;" x1="28.965" y1="18.843" x2="29.294" y2="22.464"/>
	<line style="fill:none;stroke:#000000;stroke-miterlimit:1;" x1="29.294" y1="22.464" x2="26.332" y2="29.705"/>
	<line style="fill:none;stroke:#000000;stroke-miterlimit:1;" x1="26.332" y1="29.705" x2="25.015" y2="38.592"/>
	<line style="fill:none;stroke:#000000;stroke-miterlimit:1;" x1="25.015" y1="38.592" x2="26.661" y2="49.454"/>
	<line style="fill:none;stroke:#000000;stroke-miterlimit:1;" x1="26.661" y1="49.454" x2="27.977" y2="54.391"/>
	<line style="fill:none;stroke:#000000;stroke-miterlimit:1;" x1="27.977" y1="54.391" x2="31.598" y2="64.265"/>
	<line style="fill:none;stroke:#000000;stroke-miterlimit:1;" x1="31.598" y1="64.265" x2="35.876" y2="72.165"/>
	<line style="fill:none;stroke:#000000;stroke-miterlimit:1;" x1="35.876" y1="72.165" x2="46.08" y2="89.609"/>
	<line style="fill:none;stroke:#000000;stroke-miterlimit:1;" x1="46.08" y1="89.609" x2="59.575" y2="115.282"/>
	<line style="fill:none;stroke:#000000;stroke-miterlimit:1;" x1="59.575" y1="115.282" x2="60.892" y2="125.156"/>
	<line style="fill:none;stroke:#000000;stroke-miterlimit:1;" x1="60.892" y1="125.156" x2="59.246" y2="141.942"/>
	<line style="fill:none;stroke:#000000;stroke-miterlimit:1;" x1="59.246" y1="141.942" x2="57.6" y2="143.589"/>
	<line style="fill:none;stroke:#000000;stroke-miterlimit:1;" x1="57.6" y1="143.589" x2="48.055" y2="144.576"/>
	<line style="fill:none;stroke:#000000;stroke-miterlimit:1;" x1="48.055" y1="144.576" x2="36.864" y2="144.247"/>
	<line style="fill:none;stroke:#000000;stroke-miterlimit:1;" x1="36.864" y1="144.247" x2="36.206" y2="145.893"/>
	<line style="fill:none;stroke:#000000;stroke-miterlimit:1;" x1="36.206" y1="145.893" x2="31.269" y2="146.551"/>
	<line style="fill:none;stroke:#000000;stroke-miterlimit:1;" x1="31.269" y1="146.551" x2="30.61" y2="147.538"/>
	<line style="fill:none;stroke:#000000;stroke-miterlimit:1;" x1="30.61" y1="147.538" x2="31.598" y2="148.854"/>
	<line style="fill:none;stroke:#000000;stroke-miterlimit:1;" x1="31.598" y1="148.854" x2="59.904" y2="147.867"/>
	<line style="fill:none;stroke:#000000;stroke-miterlimit:1;" x1="59.904" y1="147.867" x2="89.198" y2="149.184"/>
	<line style="fill:none;stroke:#000000;stroke-miterlimit:1;" x1="89.198" y1="149.184" x2="90.514" y2="147.867"/>
	<line style="fill:none;stroke:#000000;stroke-miterlimit:1;" x1="90.514" y1="147.867" x2="89.856" y2="146.222"/>
	<line style="fill:none;stroke:#000000;stroke-miterlimit:1;" x1="89.856" y1="146.222" x2="85.248" y2="146.222"/>
	<line style="fill:none;stroke:#000000;stroke-miterlimit:1;" x1="85.248" y1="146.222" x2="82.615" y2="143.918"/>
	<line style="fill:none;stroke:#000000;stroke-miterlimit:1;" x1="82.615" y1="143.918" x2="65.829" y2="143.589"/>
	<line style="fill:none;stroke:#000000;stroke-miterlimit:1;" x1="65.829" y1="143.589" x2="63.854" y2="142.272"/>
	<line style="fill:none;stroke:#000000;stroke-miterlimit:1;" x1="63.854" y1="142.272" x2="65.829" y2="121.536"/>
	<line style="fill:none;stroke:#000000;stroke-miterlimit:1;" x1="65.829" y1="121.536" x2="78.007" y2="127.79"/>
	<line style="fill:none;stroke:#000000;stroke-miterlimit:1;" x1="78.007" y1="127.79" x2="84.919" y2="107.383"/>
	<line style="fill:none;stroke:#000000;stroke-miterlimit:1;" x1="84.919" y1="107.383" x2="98.084" y2="140.297"/>
	<line style="fill:none;stroke:#000000;stroke-miterlimit:1;" x1="98.084" y1="140.297" x2="102.693" y2="146.222"/>
	<line style="fill:none;stroke:#000000;stroke-miterlimit:1;" x1="102.693" y1="146.222" x2="107.301" y2="148.854"/>
	<line style="fill:none;stroke:#000000;stroke-miterlimit:1;" x1="107.301" y1="148.854" x2="114.213" y2="148.854"/>
	<line style="fill:none;stroke:#000000;stroke-miterlimit:1;" x1="114.213" y1="148.854" x2="118.163" y2="147.538"/>
	<line style="fill:none;stroke:#000000;stroke-miterlimit:1;" x1="118.163" y1="147.538" x2="119.15" y2="145.563"/>
	<line style="fill:none;stroke:#000000;stroke-miterlimit:1;" x1="119.15" y1="145.563" x2="115.858" y2="136.677"/>
	<line style="fill:none;stroke:#000000;stroke-miterlimit:1;" x1="34.231" y1="69.86" x2="38.51" y2="93.888"/>
	<line style="fill:none;stroke:#000000;stroke-miterlimit:1;" x1="38.51" y1="93.888" x2="38.181" y2="112.32"/>
	<line style="fill:none;stroke:#000000;stroke-miterlimit:1;" x1="38.181" y1="112.32" x2="34.889" y2="131.081"/>
	<line style="fill:none;stroke:#000000;stroke-miterlimit:1;" x1="34.889" y1="131.081" x2="31.927" y2="140.626"/>
	<line style="fill:none;stroke:#000000;stroke-miterlimit:1;" x1="31.927" y1="140.626" x2="29.952" y2="142.931"/>
	<line style="fill:none;stroke:#000000;stroke-miterlimit:1;" x1="29.952" y1="142.931" x2="14.153" y2="143.918"/>
	<line style="fill:none;stroke:#000000;stroke-miterlimit:1;" x1="14.153" y1="143.918" x2="12.507" y2="146.222"/>
	<line style="fill:none;stroke:#000000;stroke-miterlimit:1;" x1="12.507" y1="146.222" x2="8.887" y2="146.551"/>
	<line style="fill:none;stroke:#000000;stroke-miterlimit:1;" x1="8.887" y1="146.551" x2="7.57" y2="147.538"/>
	<line style="fill:none;stroke:#000000;stroke-miterlimit:1;" x1="7.57" y1="147.538" x2="8.887" y2="148.854"/>
	<line style="fill:none;stroke:#000000;stroke-miterlimit:1;" x1="8.887" y1="148.854" x2="21.065" y2="147.867"/>
	<line style="fill:none;stroke:#000000;stroke-miterlimit:1;" x1="21.065" y1="147.867" x2="24.686" y2="148.196"/>
	<line style="fill:none;stroke:#000000;stroke-miterlimit:1;" x1="36.535" y1="144.247" x2="30.939" y2="144.905"/>
	<line style="fill:none;stroke:#000000;stroke-miterlimit:1;" x1="30.939" y1="144.905" x2="30.939" y2="144.905"/>
	<line style="fill:none;stroke:#000000;stroke-miterlimit:1;" x1="30.939" y1="144.905" x2="27.648" y2="145.563"/>
	<line style="fill:none;stroke:#000000;stroke-miterlimit:1;" x1="27.648" y1="145.563" x2="25.673" y2="148.196"/>
	<line style="fill:none;stroke:#000000;stroke-miterlimit:1;" x1="25.673" y1="148.196" x2="26.99" y2="148.854"/>
	<line style="fill:none;stroke:#000000;stroke-miterlimit:1;" x1="26.99" y1="148.854" x2="28.965" y2="146.88"/>
	<line style="fill:none;stroke:#000000;stroke-miterlimit:1;" x1="28.965" y1="146.88" x2="30.939" y2="146.551"/>
	<line style="fill:none;stroke:#000000;stroke-miterlimit:1;" x1="36.206" y1="143.918" x2="43.447" y2="116.928"/>
	<line style="fill:none;stroke:#000000;stroke-miterlimit:1;" x1="43.447" y1="116.928" x2="54.638" y2="123.511"/>
	<line style="fill:none;stroke:#000000;stroke-miterlimit:1;" x1="54.638" y1="123.511" x2="56.942" y2="111.333"/>
	<line style="fill:none;stroke:#000000;stroke-miterlimit:1;" x1="13.166" y1="144.247" x2="7.899" y2="144.905"/>
	<line style="fill:none;stroke:#000000;stroke-miterlimit:1;" x1="7.899" y1="144.905" x2="7.899" y2="144.905"/>
	<line style="fill:none;stroke:#000000;stroke-miterlimit:1;" x1="7.899" y1="144.905" x2="4.608" y2="145.563"/>
	<line style="fill:none;stroke:#000000;stroke-miterlimit:1;" x1="4.608" y1="145.563" x2="2.633" y2="148.196"/>
	<line style="fill:none;stroke:#000000;stroke-miterlimit:1;" x1="2.633" y1="148.196" x2="3.621" y2="148.854"/>
	<line style="fill:none;stroke:#000000;stroke-miterlimit:1;" x1="3.621" y1="148.854" x2="5.925" y2="146.88"/>
	<line style="fill:none;stroke:#000000;stroke-miterlimit:1;" x1="5.925" y1="146.88" x2="8.558" y2="146.551"/>
	<line style="fill:none;stroke:#000000;stroke-miterlimit:1;" x1="83.273" y1="143.918" x2="89.527" y2="144.576"/>
	<line style="fill:none;stroke:#000000;stroke-miterlimit:1;" x1="89.527" y1="144.576" x2="92.489" y2="145.563"/>
	<line style="fill:none;stroke:#000000;stroke-miterlimit:1;" x1="92.489" y1="145.563" x2="94.464" y2="148.196"/>
	<line style="fill:none;stroke:#000000;stroke-miterlimit:1;" x1="94.464" y1="148.196" x2="93.477" y2="148.854"/>
	<line style="fill:none;stroke:#000000;stroke-miterlimit:1;" x1="93.477" y1="148.854" x2="91.173" y2="146.88"/>
	<line style="fill:none;stroke:#000000;stroke-miterlimit:1;" x1="91.173" y1="146.88" x2="89.527" y2="146.551"/>
	<line style="fill:none;stroke:#000000;stroke-miterlimit:1;" x1="142.861" y1="18.732" x2="145.212" y2="16.675"/>
	<line style="fill:none;stroke:#000000;stroke-miterlimit:1;" x1="145.212" y1="16.675" x2="149.033" y2="15.205"/>
	<line style="fill:none;stroke:#000000;stroke-miterlimit:1;" x1="149.033" y1="15.205" x2="155.792" y2="12.267"/>
	<line style="fill:none;stroke:#000000;stroke-miterlimit:1;" x1="155.792" y1="12.267" x2="163.433" y2="9.916"/>
	<line style="fill:none;stroke:#000000;stroke-miterlimit:1;" x1="163.433" y1="9.916" x2="171.955" y2="7.564"/>
	<line style="fill:none;stroke:#000000;stroke-miterlimit:1;" x1="171.955" y1="7.564" x2="184.592" y2="4.625"/>
	<line style="fill:none;stroke:#000000;stroke-miterlimit:1;" x1="184.592" y1="4.625" x2="195.466" y2="3.45"/>
	<line style="fill:none;stroke:#000000;stroke-miterlimit:1;" x1="195.466" y1="3.45" x2="203.988" y2="2.274"/>
	<line style="fill:none;stroke:#000000;stroke-miterlimit:1;" x1="203.988" y1="2.274" x2="213.686" y2="1.687"/>
	<line style="fill:none;stroke:#000000;stroke-miterlimit:1;" x1="213.686" y1="1.687" x2="222.502" y2="2.274"/>
	<line style="fill:none;stroke:#000000;stroke-miterlimit:1;" x1="222.502" y1="2.274" x2="232.788" y2="2.862"/>
	<line style="fill:none;stroke:#000000;stroke-miterlimit:1;" x1="232.788" y1="2.862" x2="242.779" y2="4.038"/>
	<line style="fill:none;stroke:#000000;stroke-miterlimit:1;" x1="242.779" y1="4.038" x2="252.184" y2="6.095"/>
	<line style="fill:none;stroke:#000000;stroke-miterlimit:1;" x1="252.184" y1="6.095" x2="260.412" y2="8.152"/>
	<line style="fill:none;stroke:#000000;stroke-miterlimit:1;" x1="260.412" y1="8.152" x2="268.053" y2="10.503"/>
	<line style="fill:none;stroke:#000000;stroke-miterlimit:1;" x1="268.053" y1="10.503" x2="275.694" y2="12.854"/>
	<line style="fill:none;stroke:#000000;stroke-miterlimit:1;" x1="275.694" y1="12.854" x2="281.571" y2="15.205"/>
	<line style="fill:none;stroke:#000000;stroke-miterlimit:1;" x1="281.571" y1="15.205" x2="283.923" y2="16.381"/>
	<line style="fill:none;stroke:#000000;stroke-miterlimit:1;" x1="283.923" y1="16.381" x2="285.686" y2="18.438"/>
	<line style="fill:none;stroke:#000000;stroke-miterlimit:1;" x1="285.686" y1="18.438" x2="285.979" y2="18.732"/>
	<line style="fill:none;stroke:#000000;stroke-miterlimit:1;" x1="285.979" y1="18.732" x2="283.923" y2="20.789"/>
	<line style="fill:none;stroke:#000000;stroke-miterlimit:1;" x1="283.923" y1="20.789" x2="278.339" y2="24.315"/>
	<line style="fill:none;stroke:#000000;stroke-miterlimit:1;" x1="278.339" y1="24.315" x2="267.466" y2="28.43"/>
	<line style="fill:none;stroke:#000000;stroke-miterlimit:1;" x1="267.466" y1="28.43" x2="256.886" y2="31.662"/>
	<line style="fill:none;stroke:#000000;stroke-miterlimit:1;" x1="256.886" y1="31.662" x2="245.131" y2="34.307"/>
	<line style="fill:none;stroke:#000000;stroke-miterlimit:1;" x1="245.131" y1="34.307" x2="236.314" y2="35.189"/>
	<line style="fill:none;stroke:#000000;stroke-miterlimit:1;" x1="236.314" y1="35.189" x2="226.91" y2="36.364"/>
	<line style="fill:none;stroke:#000000;stroke-miterlimit:1;" x1="226.91" y1="36.364" x2="214.567" y2="36.952"/>
	<line style="fill:none;stroke:#000000;stroke-miterlimit:1;" x1="214.567" y1="36.952" x2="206.633" y2="36.364"/>
	<line style="fill:none;stroke:#000000;stroke-miterlimit:1;" x1="206.633" y1="36.364" x2="198.11" y2="35.777"/>
	<line style="fill:none;stroke:#000000;stroke-miterlimit:1;" x1="198.11" y1="35.777" x2="190.47" y2="35.189"/>
	<line style="fill:none;stroke:#000000;stroke-miterlimit:1;" x1="190.47" y1="35.189" x2="179.302" y2="33.426"/>
	<line style="fill:none;stroke:#000000;stroke-miterlimit:1;" x1="179.302" y1="33.426" x2="166.959" y2="30.487"/>
	<line style="fill:none;stroke:#000000;stroke-miterlimit:1;" x1="166.959" y1="30.487" x2="158.143" y2="27.548"/>
	<line style="fill:none;stroke:#000000;stroke-miterlimit:1;" x1="158.143" y1="27.548" x2="149.915" y2="24.021"/>
	<line style="fill:none;stroke:#000000;stroke-miterlimit:1;" x1="149.915" y1="24.021" x2="144.625" y2="21.083"/>
	<line style="fill:none;stroke:#000000;stroke-miterlimit:1;" x1="144.625" y1="21.083" x2="142.861" y2="18.732"/>
	<line style="fill:none;stroke:#000000;stroke-miterlimit:1;" x1="255.968" y1="98.63" x2="258.612" y2="104.801"/>
	<line style="fill:none;stroke:#000000;stroke-miterlimit:1;" x1="258.612" y1="104.801" x2="263.021" y2="110.679"/>
	<line style="fill:none;stroke:#000000;stroke-miterlimit:1;" x1="263.021" y1="110.679" x2="272.719" y2="116.851"/>
	<line style="fill:none;stroke:#000000;stroke-miterlimit:1;" x1="272.719" y1="116.851" x2="274.481" y2="118.613"/>
	<line style="fill:none;stroke:#000000;stroke-miterlimit:1;" x1="274.481" y1="118.613" x2="275.069" y2="121.552"/>
	<line style="fill:none;stroke:#000000;stroke-miterlimit:1;" x1="275.069" y1="121.552" x2="275.363" y2="140.36"/>
	<line style="fill:none;stroke:#000000;stroke-miterlimit:1;" x1="275.363" y1="140.36" x2="273.307" y2="142.711"/>
	<line style="fill:none;stroke:#000000;stroke-miterlimit:1;" x1="273.307" y1="142.711" x2="271.249" y2="145.65"/>
	<line style="fill:none;stroke:#000000;stroke-miterlimit:1;" x1="271.249" y1="145.65" x2="270.661" y2="148.883"/>
	<line style="fill:none;stroke:#000000;stroke-miterlimit:1;" x1="270.661" y1="148.883" x2="273.601" y2="148.001"/>
	<line style="fill:none;stroke:#000000;stroke-miterlimit:1;" x1="273.013" y1="143.593" x2="278.302" y2="143.593"/>
	<line style="fill:none;stroke:#000000;stroke-miterlimit:1;" x1="275.363" y1="144.181" x2="273.894" y2="148.589"/>
	<line style="fill:none;stroke:#000000;stroke-miterlimit:1;" x1="273.894" y1="148.589" x2="277.715" y2="148.589"/>
	<line style="fill:none;stroke:#000000;stroke-miterlimit:1;" x1="277.715" y1="148.589" x2="278.596" y2="143.593"/>
	<line style="fill:none;stroke:#000000;stroke-miterlimit:1;" x1="278.596" y1="143.593" x2="281.241" y2="142.417"/>
	<line style="fill:none;stroke:#000000;stroke-miterlimit:1;" x1="281.241" y1="142.417" x2="282.122" y2="140.654"/>
	<line style="fill:none;stroke:#000000;stroke-miterlimit:1;" x1="282.122" y1="140.654" x2="281.241" y2="128.018"/>
	<line style="fill:none;stroke:#000000;stroke-miterlimit:1;" x1="281.241" y1="128.018" x2="282.71" y2="115.969"/>
	<line style="fill:none;stroke:#000000;stroke-miterlimit:1;" x1="282.71" y1="115.969" x2="282.416" y2="113.323"/>
	<line style="fill:none;stroke:#000000;stroke-miterlimit:1;" x1="282.416" y1="113.323" x2="280.065" y2="108.621"/>
	<line style="fill:none;stroke:#000000;stroke-miterlimit:1;" x1="280.065" y1="108.621" x2="279.184" y2="103.92"/>
	<line style="fill:none;stroke:#000000;stroke-miterlimit:1;" x1="279.184" y1="103.92" x2="282.122" y2="87.462"/>
	<line style="fill:none;stroke:#000000;stroke-miterlimit:1;" x1="282.122" y1="87.462" x2="281.829" y2="83.348"/>
	<line style="fill:none;stroke:#000000;stroke-miterlimit:1;" x1="281.829" y1="83.348" x2="278.302" y2="78.939"/>
	<line style="fill:none;stroke:#000000;stroke-miterlimit:1;" x1="282.416" y1="88.05" x2="282.416" y2="107.74"/>
	<line style="fill:none;stroke:#000000;stroke-miterlimit:1;" x1="282.416" y1="107.74" x2="283.886" y2="116.263"/>
	<line style="fill:none;stroke:#000000;stroke-miterlimit:1;" x1="283.886" y1="116.263" x2="289.47" y2="126.842"/>
	<line style="fill:none;stroke:#000000;stroke-miterlimit:1;" x1="289.47" y1="126.842" x2="290.058" y2="120.671"/>
	<line style="fill:none;stroke:#000000;stroke-miterlimit:1;" x1="290.058" y1="120.671" x2="288.882" y2="114.499"/>
	<line style="fill:none;stroke:#000000;stroke-miterlimit:1;" x1="288.882" y1="114.499" x2="286.53" y2="110.091"/>
	<line style="fill:none;stroke:#000000;stroke-miterlimit:1;" x1="286.53" y1="110.091" x2="285.062" y2="102.744"/>
	<line style="fill:none;stroke:#000000;stroke-miterlimit:1;" x1="285.062" y1="102.744" x2="284.768" y2="82.761"/>
	<line style="fill:none;stroke:#000000;stroke-miterlimit:1;" x1="284.768" y1="82.761" x2="283.004" y2="78.646"/>
	<line style="fill:none;stroke:#000000;stroke-miterlimit:1;" x1="283.004" y1="78.646" x2="280.653" y2="76.883"/>
	<line style="fill:none;stroke:#000000;stroke-miterlimit:1;" x1="280.653" y1="76.883" x2="273.894" y2="74.532"/>
	<line style="fill:none;stroke:#000000;stroke-miterlimit:1;" x1="273.894" y1="74.532" x2="265.371" y2="73.356"/>
	<line style="fill:none;stroke:#000000;stroke-miterlimit:1;" x1="265.371" y1="73.356" x2="255.968" y2="73.356"/>
	<line style="fill:none;stroke:#000000;stroke-miterlimit:1;" x1="255.968" y1="73.356" x2="235.983" y2="76.883"/>
	<line style="fill:none;stroke:#000000;stroke-miterlimit:1;" x1="235.983" y1="76.883" x2="225.11" y2="77.471"/>
	<line style="fill:none;stroke:#000000;stroke-miterlimit:1;" x1="225.11" y1="77.471" x2="213.649" y2="77.177"/>
	<line style="fill:none;stroke:#000000;stroke-miterlimit:1;" x1="213.649" y1="77.177" x2="191.314" y2="71.005"/>
	<line style="fill:none;stroke:#000000;stroke-miterlimit:1;" x1="191.314" y1="71.005" x2="178.384" y2="68.654"/>
	<line style="fill:none;stroke:#000000;stroke-miterlimit:1;" x1="171.037" y1="71.887" x2="173.682" y2="71.005"/>
	<line style="fill:none;stroke:#000000;stroke-miterlimit:1;" x1="173.682" y1="71.005" x2="176.62" y2="71.005"/>
	<line style="fill:none;stroke:#000000;stroke-miterlimit:1;" x1="176.62" y1="71.005" x2="179.56" y2="65.421"/>
	<line style="fill:none;stroke:#000000;stroke-miterlimit:1;" x1="179.56" y1="65.421" x2="176.62" y2="65.127"/>
	<line style="fill:none;stroke:#000000;stroke-miterlimit:1;" x1="176.62" y1="65.127" x2="173.094" y2="66.009"/>
	<line style="fill:none;stroke:#000000;stroke-miterlimit:1;" x1="173.094" y1="66.009" x2="171.037" y2="68.654"/>
	<line style="fill:none;stroke:#000000;stroke-miterlimit:1;" x1="171.037" y1="68.654" x2="168.979" y2="69.536"/>
	<line style="fill:none;stroke:#000000;stroke-miterlimit:1;" x1="172.506" y1="66.597" x2="171.625" y2="66.303"/>
	<line style="fill:none;stroke:#000000;stroke-miterlimit:1;" x1="170.449" y1="67.185" x2="174.27" y2="64.54"/>
	<line style="fill:none;stroke:#000000;stroke-miterlimit:1;" x1="174.27" y1="64.54" x2="176.914" y2="61.601"/>
	<line style="fill:none;stroke:#000000;stroke-miterlimit:1;" x1="176.914" y1="61.601" x2="178.972" y2="55.724"/>
	<line style="fill:none;stroke:#000000;stroke-miterlimit:1;" x1="178.972" y1="55.724" x2="178.972" y2="52.197"/>
	<line style="fill:none;stroke:#000000;stroke-miterlimit:1;" x1="178.972" y1="52.197" x2="178.384" y2="46.613"/>
	<line style="fill:none;stroke:#000000;stroke-miterlimit:1;" x1="178.384" y1="46.613" x2="176.62" y2="43.381"/>
	<line style="fill:none;stroke:#000000;stroke-miterlimit:1;" x1="176.62" y1="43.381" x2="176.326" y2="51.609"/>
	<line style="fill:none;stroke:#000000;stroke-miterlimit:1;" x1="176.326" y1="51.609" x2="174.857" y2="57.193"/>
	<line style="fill:none;stroke:#000000;stroke-miterlimit:1;" x1="174.857" y1="57.193" x2="171.331" y2="61.601"/>
	<line style="fill:none;stroke:#000000;stroke-miterlimit:1;" x1="171.331" y1="61.601" x2="165.453" y2="65.127"/>
	<line style="fill:none;stroke:#000000;stroke-miterlimit:1;" x1="165.453" y1="65.127" x2="166.041" y2="67.185"/>
	<line style="fill:none;stroke:#000000;stroke-miterlimit:1;" x1="167.217" y1="64.246" x2="165.159" y2="63.658"/>
	<line style="fill:none;stroke:#000000;stroke-miterlimit:1;" x1="165.159" y1="63.658" x2="161.339" y2="63.658"/>
	<line style="fill:none;stroke:#000000;stroke-miterlimit:1;" x1="161.339" y1="63.658" x2="158.694" y2="63.952"/>
	<line style="fill:none;stroke:#000000;stroke-miterlimit:1;" x1="158.694" y1="63.952" x2="157.225" y2="65.127"/>
	<line style="fill:none;stroke:#000000;stroke-miterlimit:1;" x1="157.225" y1="65.127" x2="156.049" y2="67.479"/>
	<line style="fill:none;stroke:#000000;stroke-miterlimit:1;" x1="156.049" y1="67.479" x2="154.286" y2="71.005"/>
	<line style="fill:none;stroke:#000000;stroke-miterlimit:1;" x1="154.286" y1="71.005" x2="149.584" y2="75.119"/>
	<line style="fill:none;stroke:#000000;stroke-miterlimit:1;" x1="149.584" y1="75.119" x2="146.057" y2="78.059"/>
	<line style="fill:none;stroke:#000000;stroke-miterlimit:1;" x1="146.057" y1="78.059" x2="142.825" y2="80.115"/>
	<line style="fill:none;stroke:#000000;stroke-miterlimit:1;" x1="142.825" y1="80.115" x2="141.943" y2="81.879"/>
	<line style="fill:none;stroke:#000000;stroke-miterlimit:1;" x1="141.943" y1="81.879" x2="143.119" y2="84.817"/>
	<line style="fill:none;stroke:#000000;stroke-miterlimit:1;" x1="143.119" y1="84.817" x2="146.351" y2="88.05"/>
	<line style="fill:none;stroke:#000000;stroke-miterlimit:1;" x1="146.351" y1="88.05" x2="152.522" y2="87.756"/>
	<line style="fill:none;stroke:#000000;stroke-miterlimit:1;" x1="148.702" y1="83.936" x2="146.057" y2="83.936"/>
	<line style="fill:none;stroke:#000000;stroke-miterlimit:1;" x1="146.057" y1="83.936" x2="147.233" y2="85.405"/>
	<line style="fill:none;stroke:#000000;stroke-miterlimit:1;" x1="158.988" y1="76.001" x2="160.164" y2="75.707"/>
	<line style="fill:none;stroke:#000000;stroke-miterlimit:1;" x1="160.164" y1="75.707" x2="161.339" y2="73.944"/>
	<line style="fill:none;stroke:#000000;stroke-miterlimit:1;" x1="161.339" y1="73.944" x2="162.514" y2="73.944"/>
	<line style="fill:none;stroke:#000000;stroke-miterlimit:1;" x1="162.514" y1="73.944" x2="164.278" y2="76.589"/>
	<line style="fill:none;stroke:#000000;stroke-miterlimit:1;" x1="163.396" y1="75.414" x2="162.221" y2="76.295"/>
	<line style="fill:none;stroke:#000000;stroke-miterlimit:1;" x1="162.221" y1="76.295" x2="161.339" y2="76.295"/>
	<line style="fill:none;stroke:#000000;stroke-miterlimit:1;" x1="161.339" y1="76.295" x2="160.164" y2="75.119"/>
	<line style="fill:none;stroke:#000000;stroke-miterlimit:1;" x1="157.812" y1="63.952" x2="154.58" y2="62.483"/>
	<line style="fill:none;stroke:#000000;stroke-miterlimit:1;" x1="154.58" y1="62.483" x2="150.759" y2="59.25"/>
	<line style="fill:none;stroke:#000000;stroke-miterlimit:1;" x1="150.759" y1="59.25" x2="148.996" y2="55.724"/>
	<line style="fill:none;stroke:#000000;stroke-miterlimit:1;" x1="148.996" y1="55.724" x2="148.408" y2="51.903"/>
	<line style="fill:none;stroke:#000000;stroke-miterlimit:1;" x1="148.408" y1="51.903" x2="149.584" y2="43.968"/>
	<line style="fill:none;stroke:#000000;stroke-miterlimit:1;" x1="149.584" y1="43.968" x2="147.233" y2="46.319"/>
	<line style="fill:none;stroke:#000000;stroke-miterlimit:1;" x1="147.233" y1="46.319" x2="145.176" y2="51.903"/>
	<line style="fill:none;stroke:#000000;stroke-miterlimit:1;" x1="145.176" y1="51.903" x2="145.176" y2="57.781"/>
	<line style="fill:none;stroke:#000000;stroke-miterlimit:1;" x1="145.176" y1="57.781" x2="148.408" y2="63.07"/>
	<line style="fill:none;stroke:#000000;stroke-miterlimit:1;" x1="148.408" y1="63.07" x2="151.935" y2="65.715"/>
	<line style="fill:none;stroke:#000000;stroke-miterlimit:1;" x1="151.935" y1="65.715" x2="156.049" y2="67.479"/>
	<line style="fill:none;stroke:#000000;stroke-miterlimit:1;" x1="142.531" y1="83.936" x2="142.237" y2="85.993"/>
	<line style="fill:none;stroke:#000000;stroke-miterlimit:1;" x1="142.237" y1="85.993" x2="145.47" y2="89.813"/>
	<line style="fill:none;stroke:#000000;stroke-miterlimit:1;" x1="145.47" y1="89.813" x2="148.996" y2="90.695"/>
	<line style="fill:none;stroke:#000000;stroke-miterlimit:1;" x1="148.996" y1="90.695" x2="153.992" y2="89.813"/>
	<line style="fill:none;stroke:#000000;stroke-miterlimit:1;" x1="153.992" y1="89.813" x2="158.988" y2="88.932"/>
	<line style="fill:none;stroke:#000000;stroke-miterlimit:1;" x1="158.988" y1="88.932" x2="168.098" y2="88.638"/>
	<line style="fill:none;stroke:#000000;stroke-miterlimit:1;" x1="168.098" y1="88.638" x2="171.625" y2="86.287"/>
	<line style="fill:none;stroke:#000000;stroke-miterlimit:1;" x1="171.625" y1="86.287" x2="175.151" y2="82.761"/>
	<line style="fill:none;stroke:#000000;stroke-miterlimit:1;" x1="168.392" y1="88.638" x2="171.625" y2="96.278"/>
	<line style="fill:none;stroke:#000000;stroke-miterlimit:1;" x1="171.625" y1="96.278" x2="174.563" y2="104.801"/>
	<line style="fill:none;stroke:#000000;stroke-miterlimit:1;" x1="174.563" y1="104.801" x2="178.384" y2="110.973"/>
	<line style="fill:none;stroke:#000000;stroke-miterlimit:1;" x1="178.384" y1="110.973" x2="184.262" y2="115.675"/>
	<line style="fill:none;stroke:#000000;stroke-miterlimit:1;" x1="184.262" y1="115.675" x2="189.257" y2="118.025"/>
	<line style="fill:none;stroke:#000000;stroke-miterlimit:1;" x1="189.257" y1="118.025" x2="196.604" y2="119.201"/>
	<line style="fill:none;stroke:#000000;stroke-miterlimit:1;" x1="207.478" y1="115.675" x2="210.416" y2="114.793"/>
	<line style="fill:none;stroke:#000000;stroke-miterlimit:1;" x1="210.416" y1="114.793" x2="213.649" y2="114.499"/>
	<line style="fill:none;stroke:#000000;stroke-miterlimit:1;" x1="213.649" y1="114.499" x2="217.764" y2="115.381"/>
	<line style="fill:none;stroke:#000000;stroke-miterlimit:1;" x1="217.764" y1="115.381" x2="221.584" y2="115.675"/>
	<line style="fill:none;stroke:#000000;stroke-miterlimit:1;" x1="221.584" y1="115.675" x2="227.461" y2="115.675"/>
	<line style="fill:none;stroke:#000000;stroke-miterlimit:1;" x1="227.461" y1="115.675" x2="234.515" y2="115.675"/>
	<line style="fill:none;stroke:#000000;stroke-miterlimit:1;" x1="234.515" y1="115.675" x2="240.098" y2="116.851"/>
	<line style="fill:none;stroke:#000000;stroke-miterlimit:1;" x1="238.923" y1="118.319" x2="242.155" y2="116.851"/>
	<line style="fill:none;stroke:#000000;stroke-miterlimit:1;" x1="242.155" y1="116.851" x2="245.976" y2="115.381"/>
	<line style="fill:none;stroke:#000000;stroke-miterlimit:1;" x1="245.976" y1="115.381" x2="256.556" y2="112.735"/>
	<line style="fill:none;stroke:#000000;stroke-miterlimit:1;" x1="256.556" y1="112.735" x2="265.959" y2="112.148"/>
	<line style="fill:none;stroke:#000000;stroke-miterlimit:1;" x1="186.024" y1="93.634" x2="186.612" y2="100.393"/>
	<line style="fill:none;stroke:#000000;stroke-miterlimit:1;" x1="186.612" y1="100.393" x2="189.257" y2="107.74"/>
	<line style="fill:none;stroke:#000000;stroke-miterlimit:1;" x1="189.257" y1="107.74" x2="195.429" y2="115.969"/>
	<line style="fill:none;stroke:#000000;stroke-miterlimit:1;" x1="195.429" y1="115.969" x2="196.604" y2="118.025"/>
	<line style="fill:none;stroke:#000000;stroke-miterlimit:1;" x1="196.604" y1="118.025" x2="196.604" y2="120.377"/>
	<line style="fill:none;stroke:#000000;stroke-miterlimit:1;" x1="196.604" y1="120.377" x2="195.429" y2="136.834"/>
	<line style="fill:none;stroke:#000000;stroke-miterlimit:1;" x1="195.429" y1="136.834" x2="194.253" y2="139.185"/>
	<line style="fill:none;stroke:#000000;stroke-miterlimit:1;" x1="194.253" y1="139.185" x2="190.727" y2="145.062"/>
	<line style="fill:none;stroke:#000000;stroke-miterlimit:1;" x1="190.727" y1="145.062" x2="188.964" y2="149.177"/>
	<line style="fill:none;stroke:#000000;stroke-miterlimit:1;" x1="188.964" y1="149.177" x2="191.902" y2="148.001"/>
	<line style="fill:none;stroke:#000000;stroke-miterlimit:1;" x1="191.021" y1="144.769" x2="196.898" y2="145.062"/>
	<line style="fill:none;stroke:#000000;stroke-miterlimit:1;" x1="192.784" y1="145.062" x2="191.902" y2="149.177"/>
	<line style="fill:none;stroke:#000000;stroke-miterlimit:1;" x1="191.902" y1="149.177" x2="197.192" y2="148.001"/>
	<line style="fill:none;stroke:#000000;stroke-miterlimit:1;" x1="197.192" y1="148.001" x2="197.779" y2="144.181"/>
	<line style="fill:none;stroke:#000000;stroke-miterlimit:1;" x1="197.779" y1="144.181" x2="200.131" y2="143.299"/>
	<line style="fill:none;stroke:#000000;stroke-miterlimit:1;" x1="200.131" y1="143.299" x2="201.307" y2="141.536"/>
	<line style="fill:none;stroke:#000000;stroke-miterlimit:1;" x1="201.307" y1="141.536" x2="201.307" y2="139.772"/>
	<line style="fill:none;stroke:#000000;stroke-miterlimit:1;" x1="201.307" y1="139.772" x2="202.188" y2="131.544"/>
	<line style="fill:none;stroke:#000000;stroke-miterlimit:1;" x1="202.188" y1="131.544" x2="205.127" y2="120.671"/>
	<line style="fill:none;stroke:#000000;stroke-miterlimit:1;" x1="205.127" y1="120.671" x2="207.184" y2="115.381"/>
	<line style="fill:none;stroke:#000000;stroke-miterlimit:1;" x1="207.184" y1="115.381" x2="208.065" y2="111.561"/>
	<line style="fill:none;stroke:#000000;stroke-miterlimit:1;" x1="208.065" y1="111.561" x2="206.302" y2="106.858"/>
	<line style="fill:none;stroke:#000000;stroke-miterlimit:1;" x1="183.086" y1="114.499" x2="177.502" y2="133.308"/>
	<line style="fill:none;stroke:#000000;stroke-miterlimit:1;" x1="177.502" y1="133.308" x2="175.445" y2="137.422"/>
	<line style="fill:none;stroke:#000000;stroke-miterlimit:1;" x1="175.445" y1="137.422" x2="171.919" y2="141.83"/>
	<line style="fill:none;stroke:#000000;stroke-miterlimit:1;" x1="171.919" y1="141.83" x2="168.392" y2="146.238"/>
	<line style="fill:none;stroke:#000000;stroke-miterlimit:1;" x1="168.392" y1="146.238" x2="167.217" y2="148.883"/>
	<line style="fill:none;stroke:#000000;stroke-miterlimit:1;" x1="167.217" y1="148.883" x2="169.861" y2="147.707"/>
	<line style="fill:none;stroke:#000000;stroke-miterlimit:1;" x1="170.449" y1="143.593" x2="175.739" y2="145.356"/>
	<line style="fill:none;stroke:#000000;stroke-miterlimit:1;" x1="171.625" y1="145.356" x2="169.567" y2="149.177"/>
	<line style="fill:none;stroke:#000000;stroke-miterlimit:1;" x1="169.567" y1="149.177" x2="174.857" y2="148.295"/>
	<line style="fill:none;stroke:#000000;stroke-miterlimit:1;" x1="174.857" y1="148.295" x2="176.033" y2="144.475"/>
	<line style="fill:none;stroke:#000000;stroke-miterlimit:1;" x1="176.033" y1="144.475" x2="178.384" y2="144.475"/>
	<line style="fill:none;stroke:#000000;stroke-miterlimit:1;" x1="178.384" y1="144.475" x2="180.147" y2="143.005"/>
	<line style="fill:none;stroke:#000000;stroke-miterlimit:1;" x1="180.147" y1="143.005" x2="182.792" y2="135.364"/>
	<line style="fill:none;stroke:#000000;stroke-miterlimit:1;" x1="182.792" y1="135.364" x2="186.024" y2="127.43"/>
	<line style="fill:none;stroke:#000000;stroke-miterlimit:1;" x1="186.024" y1="127.43" x2="190.139" y2="123.315"/>
	<line style="fill:none;stroke:#000000;stroke-miterlimit:1;" x1="190.139" y1="123.315" x2="191.021" y2="118.613"/>
	<line style="fill:none;stroke:#000000;stroke-miterlimit:1;" x1="245.976" y1="115.675" x2="247.151" y2="118.319"/>
	<line style="fill:none;stroke:#000000;stroke-miterlimit:1;" x1="247.151" y1="118.319" x2="246.563" y2="120.671"/>
	<line style="fill:none;stroke:#000000;stroke-miterlimit:1;" x1="246.563" y1="120.671" x2="236.571" y2="141.242"/>
	<line style="fill:none;stroke:#000000;stroke-miterlimit:1;" x1="236.571" y1="141.242" x2="234.221" y2="143.299"/>
	<line style="fill:none;stroke:#000000;stroke-miterlimit:1;" x1="234.221" y1="143.299" x2="231.869" y2="145.356"/>
	<line style="fill:none;stroke:#000000;stroke-miterlimit:1;" x1="231.869" y1="145.356" x2="230.106" y2="148.883"/>
	<line style="fill:none;stroke:#000000;stroke-miterlimit:1;" x1="230.106" y1="148.883" x2="232.751" y2="148.295"/>
	<line style="fill:none;stroke:#000000;stroke-miterlimit:1;" x1="232.751" y1="145.356" x2="238.629" y2="144.475"/>
	<line style="fill:none;stroke:#000000;stroke-miterlimit:1;" x1="233.927" y1="145.944" x2="232.751" y2="149.177"/>
	<line style="fill:none;stroke:#000000;stroke-miterlimit:1;" x1="232.751" y1="149.177" x2="238.629" y2="148.295"/>
	<line style="fill:none;stroke:#000000;stroke-miterlimit:1;" x1="238.629" y1="148.295" x2="238.923" y2="144.181"/>
	<line style="fill:none;stroke:#000000;stroke-miterlimit:1;" x1="238.923" y1="144.181" x2="241.861" y2="142.711"/>
	<line style="fill:none;stroke:#000000;stroke-miterlimit:1;" x1="241.861" y1="142.711" x2="249.796" y2="128.312"/>
	<line style="fill:none;stroke:#000000;stroke-miterlimit:1;" x1="249.796" y1="128.312" x2="254.204" y2="123.903"/>
	<line style="fill:none;stroke:#000000;stroke-miterlimit:1;" x1="254.204" y1="123.903" x2="254.792" y2="121.552"/>
	<line style="fill:none;stroke:#000000;stroke-miterlimit:1;" x1="254.792" y1="121.552" x2="257.143" y2="116.263"/>
	<line style="fill:none;stroke:#000000;stroke-miterlimit:1;" x1="257.143" y1="116.263" x2="260.082" y2="112.735"/>
	<line style="fill:none;stroke:#000000;stroke-miterlimit:1;" x1="320.914" y1="110.445" x2="320.914" y2="148.114"/>
	<line style="fill:none;stroke:#000000;stroke-miterlimit:1;" x1="320.914" y1="148.114" x2="328.96" y2="148.114"/>
	<line style="fill:none;stroke:#000000;stroke-miterlimit:1;" x1="328.96" y1="148.114" x2="328.96" y2="110.445"/>
	<line style="fill:none;stroke:#000000;stroke-miterlimit:1;" x1="328.96" y1="110.445" x2="320.914" y2="110.445"/>
	<line style="fill:none;stroke:#000000;stroke-miterlimit:1;" x1="320.914" y1="54.125" x2="320.914" y2="92.16"/>
	<line style="fill:none;stroke:#000000;stroke-miterlimit:1;" x1="320.914" y1="92.16" x2="328.96" y2="92.16"/>
	<line style="fill:none;stroke:#000000;stroke-miterlimit:1;" x1="328.96" y1="92.16" x2="328.96" y2="54.125"/>
	<line style="fill:none;stroke:#000000;stroke-miterlimit:1;" x1="328.96" y1="54.125" x2="320.914" y2="54.125"/>
	<line style="fill:none;stroke:#000000;stroke-miterlimit:1;" x1="320.914" y1="0" x2="320.914" y2="38.034"/>
	<line style="fill:none;stroke:#000000;stroke-miterlimit:1;" x1="320.914" y1="38.034" x2="328.96" y2="38.034"/>
	<line style="fill:none;stroke:#000000;stroke-miterlimit:1;" x1="328.96" y1="38.034" x2="328.96" y2="0"/>
	<line style="fill:none;stroke:#000000;stroke-miterlimit:1;" x1="328.96" y1="0" x2="320.914" y2="0"/>
</g>
</svg>
