<?xml version="1.0" encoding="iso-8859-1"?>
<!-- Generator: Adobe Illustrator 16.0.1, SVG Export Plug-In . SVG Version: 6.00 Build 0)  -->
<!DOCTYPE svg PUBLIC "-//W3C//DTD SVG 1.1//EN" "http://www.w3.org/Graphics/SVG/1.1/DTD/svg11.dtd">
<svg version="1.1" id="Ebene_1" xmlns="http://www.w3.org/2000/svg" xmlns:xlink="http://www.w3.org/1999/xlink" x="0px" y="0px"
	 width="221.857px" height="148.813px" viewBox="0 0 221.857 148.813" style="enable-background:new 0 0 221.857 148.813;"
	 xml:space="preserve">
<g>
	<line style="fill:none;stroke:#000000;stroke-miterlimit:1;" x1="71.753" y1="40.197" x2="64.512" y2="39.539"/>
	<line style="fill:none;stroke:#000000;stroke-miterlimit:1;" x1="64.512" y1="39.539" x2="52.992" y2="40.197"/>
	<line style="fill:none;stroke:#000000;stroke-miterlimit:1;" x1="52.992" y1="40.197" x2="44.434" y2="39.209"/>
	<line style="fill:none;stroke:#000000;stroke-miterlimit:1;" x1="44.434" y1="39.209" x2="41.801" y2="40.197"/>
	<line style="fill:none;stroke:#000000;stroke-miterlimit:1;" x1="41.801" y1="40.197" x2="39.826" y2="42.83"/>
	<line style="fill:none;stroke:#000000;stroke-miterlimit:1;" x1="39.826" y1="42.83" x2="40.484" y2="47.438"/>
	<line style="fill:none;stroke:#000000;stroke-miterlimit:1;" x1="40.484" y1="47.438" x2="43.776" y2="57.97"/>
	<line style="fill:none;stroke:#000000;stroke-miterlimit:1;" x1="43.776" y1="57.97" x2="50.03" y2="68.174"/>
	<line style="fill:none;stroke:#000000;stroke-miterlimit:1;" x1="50.03" y1="68.174" x2="70.437" y2="92.53"/>
	<line style="fill:none;stroke:#000000;stroke-miterlimit:1;" x1="70.437" y1="92.53" x2="80.969" y2="102.404"/>
	<line style="fill:none;stroke:#000000;stroke-miterlimit:1;" x1="80.969" y1="102.404" x2="96.109" y2="116.558"/>
	<line style="fill:none;stroke:#000000;stroke-miterlimit:1;" x1="96.109" y1="116.558" x2="128.365" y2="148.155"/>
	<line style="fill:none;stroke:#000000;stroke-miterlimit:1;" x1="128.365" y1="148.155" x2="131.656" y2="148.155"/>
	<line style="fill:none;stroke:#000000;stroke-miterlimit:1;" x1="131.656" y1="148.155" x2="132.645" y2="146.51"/>
	<line style="fill:none;stroke:#000000;stroke-miterlimit:1;" x1="132.645" y1="146.51" x2="131.328" y2="143.548"/>
	<line style="fill:none;stroke:#000000;stroke-miterlimit:1;" x1="131.328" y1="143.548" x2="117.504" y2="111.95"/>
	<line style="fill:none;stroke:#000000;stroke-miterlimit:1;" x1="117.504" y1="111.95" x2="115.529" y2="106.025"/>
	<line style="fill:none;stroke:#000000;stroke-miterlimit:1;" x1="115.529" y1="106.025" x2="104.997" y2="80.682"/>
	<line style="fill:none;stroke:#000000;stroke-miterlimit:1;" x1="104.997" y1="80.682" x2="95.451" y2="64.224"/>
	<line style="fill:none;stroke:#000000;stroke-miterlimit:1;" x1="95.451" y1="64.224" x2="87.881" y2="53.691"/>
	<line style="fill:none;stroke:#000000;stroke-miterlimit:1;" x1="87.881" y1="53.691" x2="82.286" y2="46.121"/>
	<line style="fill:none;stroke:#000000;stroke-miterlimit:1;" x1="82.286" y1="46.121" x2="77.678" y2="38.88"/>
	<line style="fill:none;stroke:#000000;stroke-miterlimit:1;" x1="77.678" y1="38.88" x2="72.74" y2="32.297"/>
	<line style="fill:none;stroke:#000000;stroke-miterlimit:1;" x1="72.74" y1="32.297" x2="66.816" y2="25.385"/>
	<line style="fill:none;stroke:#000000;stroke-miterlimit:1;" x1="66.816" y1="25.385" x2="60.891" y2="21.436"/>
	<line style="fill:none;stroke:#000000;stroke-miterlimit:1;" x1="60.891" y1="21.436" x2="59.246" y2="14.523"/>
	<line style="fill:none;stroke:#000000;stroke-miterlimit:1;" x1="59.246" y1="14.523" x2="57.929" y2="6.953"/>
	<line style="fill:none;stroke:#000000;stroke-miterlimit:1;" x1="57.929" y1="6.953" x2="55.954" y2="2.016"/>
	<line style="fill:none;stroke:#000000;stroke-miterlimit:1;" x1="55.954" y1="2.016" x2="50.359" y2="0.7"/>
	<line style="fill:none;stroke:#000000;stroke-miterlimit:1;" x1="50.359" y1="0.7" x2="41.143" y2="0.7"/>
	<line style="fill:none;stroke:#000000;stroke-miterlimit:1;" x1="41.143" y1="0.7" x2="30.939" y2="1.029"/>
	<line style="fill:none;stroke:#000000;stroke-miterlimit:1;" x1="30.939" y1="1.029" x2="26.002" y2="2.345"/>
	<line style="fill:none;stroke:#000000;stroke-miterlimit:1;" x1="26.002" y1="2.345" x2="23.698" y2="3.003"/>
	<line style="fill:none;stroke:#000000;stroke-miterlimit:1;" x1="23.698" y1="3.003" x2="6.912" y2="5.308"/>
	<line style="fill:none;stroke:#000000;stroke-miterlimit:1;" x1="6.912" y1="5.308" x2="1.975" y2="7.611"/>
	<line style="fill:none;stroke:#000000;stroke-miterlimit:1;" x1="1.975" y1="7.611" x2="0.329" y2="9.916"/>
	<line style="fill:none;stroke:#000000;stroke-miterlimit:1;" x1="0.329" y1="9.916" x2="0" y2="14.523"/>
	<line style="fill:none;stroke:#000000;stroke-miterlimit:1;" x1="0" y1="14.523" x2="1.975" y2="11.232"/>
	<line style="fill:none;stroke:#000000;stroke-miterlimit:1;" x1="1.975" y1="11.232" x2="5.266" y2="9.586"/>
	<line style="fill:none;stroke:#000000;stroke-miterlimit:1;" x1="5.266" y1="9.586" x2="15.141" y2="9.586"/>
	<line style="fill:none;stroke:#000000;stroke-miterlimit:1;" x1="15.141" y1="9.586" x2="25.344" y2="9.916"/>
	<line style="fill:none;stroke:#000000;stroke-miterlimit:1;" x1="25.344" y1="9.916" x2="30.61" y2="11.232"/>
	<line style="fill:none;stroke:#000000;stroke-miterlimit:1;" x1="30.61" y1="11.232" x2="26.331" y2="5.966"/>
	<line style="fill:none;stroke:#000000;stroke-miterlimit:1;" x1="26.331" y1="5.966" x2="25.344" y2="2.345"/>
	<line style="fill:none;stroke:#000000;stroke-miterlimit:1;" x1="36.206" y1="9.257" x2="37.193" y2="8.928"/>
	<line style="fill:none;stroke:#000000;stroke-miterlimit:1;" x1="37.193" y1="8.928" x2="37.851" y2="7.282"/>
	<line style="fill:none;stroke:#000000;stroke-miterlimit:1;" x1="37.851" y1="7.282" x2="37.193" y2="5.637"/>
	<line style="fill:none;stroke:#000000;stroke-miterlimit:1;" x1="37.193" y1="5.637" x2="35.876" y2="4.649"/>
	<line style="fill:none;stroke:#000000;stroke-miterlimit:1;" x1="35.876" y1="4.649" x2="34.56" y2="5.637"/>
	<line style="fill:none;stroke:#000000;stroke-miterlimit:1;" x1="34.56" y1="5.637" x2="34.23" y2="7.611"/>
	<line style="fill:none;stroke:#000000;stroke-miterlimit:1;" x1="34.23" y1="7.611" x2="34.889" y2="8.599"/>
	<line style="fill:none;stroke:#000000;stroke-miterlimit:1;" x1="34.889" y1="8.599" x2="35.876" y2="9.257"/>
	<line style="fill:none;stroke:#000000;stroke-miterlimit:1;" x1="1.646" y1="12.549" x2="14.811" y2="12.22"/>
	<line style="fill:none;stroke:#000000;stroke-miterlimit:1;" x1="14.811" y1="12.22" x2="25.015" y2="13.536"/>
	<line style="fill:none;stroke:#000000;stroke-miterlimit:1;" x1="25.015" y1="13.536" x2="27.977" y2="15.182"/>
	<line style="fill:none;stroke:#000000;stroke-miterlimit:1;" x1="27.977" y1="15.182" x2="28.964" y2="18.473"/>
	<line style="fill:none;stroke:#000000;stroke-miterlimit:1;" x1="28.964" y1="18.473" x2="29.293" y2="22.094"/>
	<line style="fill:none;stroke:#000000;stroke-miterlimit:1;" x1="29.293" y1="22.094" x2="26.331" y2="29.335"/>
	<line style="fill:none;stroke:#000000;stroke-miterlimit:1;" x1="26.331" y1="29.335" x2="25.015" y2="38.222"/>
	<line style="fill:none;stroke:#000000;stroke-miterlimit:1;" x1="25.015" y1="38.222" x2="26.661" y2="49.083"/>
	<line style="fill:none;stroke:#000000;stroke-miterlimit:1;" x1="26.661" y1="49.083" x2="27.977" y2="54.021"/>
	<line style="fill:none;stroke:#000000;stroke-miterlimit:1;" x1="27.977" y1="54.021" x2="31.598" y2="63.895"/>
	<line style="fill:none;stroke:#000000;stroke-miterlimit:1;" x1="31.598" y1="63.895" x2="35.876" y2="71.794"/>
	<line style="fill:none;stroke:#000000;stroke-miterlimit:1;" x1="35.876" y1="71.794" x2="46.08" y2="89.239"/>
	<line style="fill:none;stroke:#000000;stroke-miterlimit:1;" x1="46.08" y1="89.239" x2="59.575" y2="114.912"/>
	<line style="fill:none;stroke:#000000;stroke-miterlimit:1;" x1="59.575" y1="114.912" x2="60.891" y2="124.786"/>
	<line style="fill:none;stroke:#000000;stroke-miterlimit:1;" x1="60.891" y1="124.786" x2="59.246" y2="141.572"/>
	<line style="fill:none;stroke:#000000;stroke-miterlimit:1;" x1="59.246" y1="141.572" x2="57.6" y2="143.219"/>
	<line style="fill:none;stroke:#000000;stroke-miterlimit:1;" x1="57.6" y1="143.219" x2="48.055" y2="144.206"/>
	<line style="fill:none;stroke:#000000;stroke-miterlimit:1;" x1="48.055" y1="144.206" x2="36.864" y2="143.877"/>
	<line style="fill:none;stroke:#000000;stroke-miterlimit:1;" x1="36.864" y1="143.877" x2="36.206" y2="145.522"/>
	<line style="fill:none;stroke:#000000;stroke-miterlimit:1;" x1="36.206" y1="145.522" x2="31.269" y2="146.181"/>
	<line style="fill:none;stroke:#000000;stroke-miterlimit:1;" x1="31.269" y1="146.181" x2="30.61" y2="147.168"/>
	<line style="fill:none;stroke:#000000;stroke-miterlimit:1;" x1="30.61" y1="147.168" x2="31.598" y2="148.484"/>
	<line style="fill:none;stroke:#000000;stroke-miterlimit:1;" x1="31.598" y1="148.484" x2="59.904" y2="147.497"/>
	<line style="fill:none;stroke:#000000;stroke-miterlimit:1;" x1="59.904" y1="147.497" x2="89.198" y2="148.813"/>
	<line style="fill:none;stroke:#000000;stroke-miterlimit:1;" x1="89.198" y1="148.813" x2="90.514" y2="147.497"/>
	<line style="fill:none;stroke:#000000;stroke-miterlimit:1;" x1="90.514" y1="147.497" x2="89.856" y2="145.852"/>
	<line style="fill:none;stroke:#000000;stroke-miterlimit:1;" x1="89.856" y1="145.852" x2="85.248" y2="145.852"/>
	<line style="fill:none;stroke:#000000;stroke-miterlimit:1;" x1="85.248" y1="145.852" x2="82.615" y2="143.548"/>
	<line style="fill:none;stroke:#000000;stroke-miterlimit:1;" x1="82.615" y1="143.548" x2="65.829" y2="143.219"/>
	<line style="fill:none;stroke:#000000;stroke-miterlimit:1;" x1="65.829" y1="143.219" x2="63.854" y2="141.902"/>
	<line style="fill:none;stroke:#000000;stroke-miterlimit:1;" x1="63.854" y1="141.902" x2="65.829" y2="121.166"/>
	<line style="fill:none;stroke:#000000;stroke-miterlimit:1;" x1="65.829" y1="121.166" x2="78.007" y2="127.42"/>
	<line style="fill:none;stroke:#000000;stroke-miterlimit:1;" x1="78.007" y1="127.42" x2="84.918" y2="107.013"/>
	<line style="fill:none;stroke:#000000;stroke-miterlimit:1;" x1="84.918" y1="107.013" x2="98.084" y2="139.927"/>
	<line style="fill:none;stroke:#000000;stroke-miterlimit:1;" x1="98.084" y1="139.927" x2="102.692" y2="145.852"/>
	<line style="fill:none;stroke:#000000;stroke-miterlimit:1;" x1="102.692" y1="145.852" x2="107.3" y2="148.484"/>
	<line style="fill:none;stroke:#000000;stroke-miterlimit:1;" x1="107.3" y1="148.484" x2="114.213" y2="148.484"/>
	<line style="fill:none;stroke:#000000;stroke-miterlimit:1;" x1="114.213" y1="148.484" x2="118.162" y2="147.168"/>
	<line style="fill:none;stroke:#000000;stroke-miterlimit:1;" x1="118.162" y1="147.168" x2="119.15" y2="145.193"/>
	<line style="fill:none;stroke:#000000;stroke-miterlimit:1;" x1="119.15" y1="145.193" x2="115.857" y2="136.307"/>
	<line style="fill:none;stroke:#000000;stroke-miterlimit:1;" x1="34.23" y1="69.49" x2="38.51" y2="93.518"/>
	<line style="fill:none;stroke:#000000;stroke-miterlimit:1;" x1="38.51" y1="93.518" x2="38.18" y2="111.95"/>
	<line style="fill:none;stroke:#000000;stroke-miterlimit:1;" x1="38.18" y1="111.95" x2="34.889" y2="130.711"/>
	<line style="fill:none;stroke:#000000;stroke-miterlimit:1;" x1="34.889" y1="130.711" x2="31.927" y2="140.256"/>
	<line style="fill:none;stroke:#000000;stroke-miterlimit:1;" x1="31.927" y1="140.256" x2="29.952" y2="142.561"/>
	<line style="fill:none;stroke:#000000;stroke-miterlimit:1;" x1="29.952" y1="142.561" x2="14.153" y2="143.548"/>
	<line style="fill:none;stroke:#000000;stroke-miterlimit:1;" x1="14.153" y1="143.548" x2="12.507" y2="145.852"/>
	<line style="fill:none;stroke:#000000;stroke-miterlimit:1;" x1="12.507" y1="145.852" x2="8.887" y2="146.181"/>
	<line style="fill:none;stroke:#000000;stroke-miterlimit:1;" x1="8.887" y1="146.181" x2="7.57" y2="147.168"/>
	<line style="fill:none;stroke:#000000;stroke-miterlimit:1;" x1="7.57" y1="147.168" x2="8.887" y2="148.484"/>
	<line style="fill:none;stroke:#000000;stroke-miterlimit:1;" x1="8.887" y1="148.484" x2="21.065" y2="147.497"/>
	<line style="fill:none;stroke:#000000;stroke-miterlimit:1;" x1="21.065" y1="147.497" x2="24.686" y2="147.826"/>
	<line style="fill:none;stroke:#000000;stroke-miterlimit:1;" x1="36.535" y1="143.877" x2="30.939" y2="144.535"/>
	<line style="fill:none;stroke:#000000;stroke-miterlimit:1;" x1="30.939" y1="144.535" x2="30.939" y2="144.535"/>
	<line style="fill:none;stroke:#000000;stroke-miterlimit:1;" x1="30.939" y1="144.535" x2="27.648" y2="145.193"/>
	<line style="fill:none;stroke:#000000;stroke-miterlimit:1;" x1="27.648" y1="145.193" x2="25.673" y2="147.826"/>
	<line style="fill:none;stroke:#000000;stroke-miterlimit:1;" x1="25.673" y1="147.826" x2="26.99" y2="148.484"/>
	<line style="fill:none;stroke:#000000;stroke-miterlimit:1;" x1="26.99" y1="148.484" x2="28.964" y2="146.51"/>
	<line style="fill:none;stroke:#000000;stroke-miterlimit:1;" x1="28.964" y1="146.51" x2="30.939" y2="146.181"/>
	<line style="fill:none;stroke:#000000;stroke-miterlimit:1;" x1="36.206" y1="143.548" x2="43.447" y2="116.558"/>
	<line style="fill:none;stroke:#000000;stroke-miterlimit:1;" x1="43.447" y1="116.558" x2="54.638" y2="123.141"/>
	<line style="fill:none;stroke:#000000;stroke-miterlimit:1;" x1="54.638" y1="123.141" x2="56.941" y2="110.963"/>
	<line style="fill:none;stroke:#000000;stroke-miterlimit:1;" x1="13.166" y1="143.877" x2="7.899" y2="144.535"/>
	<line style="fill:none;stroke:#000000;stroke-miterlimit:1;" x1="7.899" y1="144.535" x2="7.899" y2="144.535"/>
	<line style="fill:none;stroke:#000000;stroke-miterlimit:1;" x1="7.899" y1="144.535" x2="4.608" y2="145.193"/>
	<line style="fill:none;stroke:#000000;stroke-miterlimit:1;" x1="4.608" y1="145.193" x2="2.633" y2="147.826"/>
	<line style="fill:none;stroke:#000000;stroke-miterlimit:1;" x1="2.633" y1="147.826" x2="3.621" y2="148.484"/>
	<line style="fill:none;stroke:#000000;stroke-miterlimit:1;" x1="3.621" y1="148.484" x2="5.924" y2="146.51"/>
	<line style="fill:none;stroke:#000000;stroke-miterlimit:1;" x1="5.924" y1="146.51" x2="8.558" y2="146.181"/>
	<line style="fill:none;stroke:#000000;stroke-miterlimit:1;" x1="83.273" y1="143.548" x2="89.527" y2="144.206"/>
	<line style="fill:none;stroke:#000000;stroke-miterlimit:1;" x1="89.527" y1="144.206" x2="92.489" y2="145.193"/>
	<line style="fill:none;stroke:#000000;stroke-miterlimit:1;" x1="92.489" y1="145.193" x2="94.464" y2="147.826"/>
	<line style="fill:none;stroke:#000000;stroke-miterlimit:1;" x1="94.464" y1="147.826" x2="93.477" y2="148.484"/>
	<line style="fill:none;stroke:#000000;stroke-miterlimit:1;" x1="93.477" y1="148.484" x2="91.172" y2="146.51"/>
	<line style="fill:none;stroke:#000000;stroke-miterlimit:1;" x1="91.172" y1="146.51" x2="89.527" y2="146.181"/>
	<line style="fill:none;stroke:#000000;stroke-miterlimit:1;" x1="181.105" y1="23.608" x2="181.105" y2="69.701"/>
	<line style="fill:none;stroke:#000000;stroke-miterlimit:1;" x1="181.105" y1="69.701" x2="140.914" y2="69.701"/>
	<line style="fill:none;stroke:#000000;stroke-miterlimit:1;" x1="140.914" y1="69.701" x2="140.914" y2="0"/>
	<line style="fill:none;stroke:#000000;stroke-miterlimit:1;" x1="140.914" y1="0" x2="221.857" y2="0"/>
	<line style="fill:none;stroke:#000000;stroke-miterlimit:1;" x1="221.857" y1="0" x2="221.857" y2="69.701"/>
	<line style="fill:none;stroke:#000000;stroke-miterlimit:1;" x1="221.857" y1="69.701" x2="214.549" y2="69.701"/>
	<line style="fill:none;stroke:#000000;stroke-miterlimit:1;" x1="214.549" y1="69.701" x2="214.549" y2="7.87"/>
	<line style="fill:none;stroke:#000000;stroke-miterlimit:1;" x1="214.549" y1="7.87" x2="147.941" y2="7.87"/>
	<line style="fill:none;stroke:#000000;stroke-miterlimit:1;" x1="147.941" y1="7.87" x2="147.941" y2="62.675"/>
	<line style="fill:none;stroke:#000000;stroke-miterlimit:1;" x1="147.941" y1="62.675" x2="174.359" y2="62.675"/>
	<line style="fill:none;stroke:#000000;stroke-miterlimit:1;" x1="174.359" y1="62.675" x2="174.359" y2="23.608"/>
	<line style="fill:none;stroke:#000000;stroke-miterlimit:1;" x1="174.359" y1="23.608" x2="181.105" y2="23.608"/>
	<line style="fill:none;stroke:#000000;stroke-miterlimit:1;" x1="205.732" y1="105.113" x2="207.699" y2="107.924"/>
	<line style="fill:none;stroke:#000000;stroke-miterlimit:1;" x1="207.699" y1="107.924" x2="209.666" y2="111.297"/>
	<line style="fill:none;stroke:#000000;stroke-miterlimit:1;" x1="209.666" y1="111.297" x2="210.791" y2="114.107"/>
	<line style="fill:none;stroke:#000000;stroke-miterlimit:1;" x1="210.791" y1="114.107" x2="211.914" y2="117.761"/>
	<line style="fill:none;stroke:#000000;stroke-miterlimit:1;" x1="211.914" y1="117.761" x2="212.477" y2="120.29"/>
	<line style="fill:none;stroke:#000000;stroke-miterlimit:1;" x1="212.477" y1="120.29" x2="213.039" y2="123.663"/>
	<line style="fill:none;stroke:#000000;stroke-miterlimit:1;" x1="213.039" y1="123.663" x2="213.039" y2="127.598"/>
	<line style="fill:none;stroke:#000000;stroke-miterlimit:1;" x1="213.039" y1="127.598" x2="212.758" y2="131.532"/>
	<line style="fill:none;stroke:#000000;stroke-miterlimit:1;" x1="212.758" y1="131.532" x2="211.914" y2="134.624"/>
	<line style="fill:none;stroke:#000000;stroke-miterlimit:1;" x1="211.914" y1="134.624" x2="210.791" y2="137.153"/>
	<line style="fill:none;stroke:#000000;stroke-miterlimit:1;" x1="210.791" y1="137.153" x2="209.104" y2="139.964"/>
	<line style="fill:none;stroke:#000000;stroke-miterlimit:1;" x1="209.104" y1="139.964" x2="207.418" y2="141.932"/>
	<line style="fill:none;stroke:#000000;stroke-miterlimit:1;" x1="207.418" y1="141.932" x2="204.607" y2="144.461"/>
	<line style="fill:none;stroke:#000000;stroke-miterlimit:1;" x1="204.607" y1="144.461" x2="201.797" y2="145.866"/>
	<line style="fill:none;stroke:#000000;stroke-miterlimit:1;" x1="201.797" y1="145.866" x2="198.705" y2="147.271"/>
	<line style="fill:none;stroke:#000000;stroke-miterlimit:1;" x1="198.705" y1="147.271" x2="195.613" y2="147.833"/>
	<line style="fill:none;stroke:#000000;stroke-miterlimit:1;" x1="195.613" y1="147.833" x2="191.68" y2="148.114"/>
	<line style="fill:none;stroke:#000000;stroke-miterlimit:1;" x1="191.68" y1="148.114" x2="187.182" y2="147.553"/>
	<line style="fill:none;stroke:#000000;stroke-miterlimit:1;" x1="187.182" y1="147.553" x2="183.811" y2="146.428"/>
	<line style="fill:none;stroke:#000000;stroke-miterlimit:1;" x1="183.811" y1="146.428" x2="179.875" y2="145.022"/>
	<line style="fill:none;stroke:#000000;stroke-miterlimit:1;" x1="179.875" y1="145.022" x2="175.939" y2="142.774"/>
	<line style="fill:none;stroke:#000000;stroke-miterlimit:1;" x1="175.939" y1="142.774" x2="173.129" y2="140.807"/>
	<line style="fill:none;stroke:#000000;stroke-miterlimit:1;" x1="173.129" y1="140.807" x2="169.758" y2="137.716"/>
	<line style="fill:none;stroke:#000000;stroke-miterlimit:1;" x1="169.758" y1="137.716" x2="167.508" y2="134.905"/>
	<line style="fill:none;stroke:#000000;stroke-miterlimit:1;" x1="167.508" y1="134.905" x2="164.697" y2="131.532"/>
	<line style="fill:none;stroke:#000000;stroke-miterlimit:1;" x1="164.697" y1="131.532" x2="161.887" y2="127.879"/>
	<line style="fill:none;stroke:#000000;stroke-miterlimit:1;" x1="161.887" y1="127.879" x2="159.92" y2="124.787"/>
	<line style="fill:none;stroke:#000000;stroke-miterlimit:1;" x1="159.92" y1="124.787" x2="158.516" y2="121.977"/>
	<line style="fill:none;stroke:#000000;stroke-miterlimit:1;" x1="158.516" y1="121.977" x2="156.828" y2="118.604"/>
	<line style="fill:none;stroke:#000000;stroke-miterlimit:1;" x1="156.828" y1="118.604" x2="155.705" y2="115.231"/>
	<line style="fill:none;stroke:#000000;stroke-miterlimit:1;" x1="155.705" y1="115.231" x2="154.861" y2="110.734"/>
	<line style="fill:none;stroke:#000000;stroke-miterlimit:1;" x1="154.861" y1="110.734" x2="154.58" y2="106.519"/>
	<line style="fill:none;stroke:#000000;stroke-miterlimit:1;" x1="154.58" y1="106.519" x2="154.861" y2="99.492"/>
	<line style="fill:none;stroke:#000000;stroke-miterlimit:1;" x1="154.861" y1="99.492" x2="155.705" y2="96.682"/>
	<line style="fill:none;stroke:#000000;stroke-miterlimit:1;" x1="155.705" y1="96.682" x2="156.828" y2="93.871"/>
	<line style="fill:none;stroke:#000000;stroke-miterlimit:1;" x1="156.828" y1="93.871" x2="158.516" y2="91.342"/>
	<line style="fill:none;stroke:#000000;stroke-miterlimit:1;" x1="158.516" y1="91.342" x2="160.764" y2="89.375"/>
	<line style="fill:none;stroke:#000000;stroke-miterlimit:1;" x1="160.764" y1="89.375" x2="163.293" y2="87.126"/>
	<line style="fill:none;stroke:#000000;stroke-miterlimit:1;" x1="163.293" y1="87.126" x2="166.947" y2="85.439"/>
	<line style="fill:none;stroke:#000000;stroke-miterlimit:1;" x1="166.947" y1="85.439" x2="169.195" y2="84.878"/>
	<line style="fill:none;stroke:#000000;stroke-miterlimit:1;" x1="169.195" y1="84.878" x2="172.568" y2="84.878"/>
	<line style="fill:none;stroke:#000000;stroke-miterlimit:1;" x1="172.568" y1="84.878" x2="176.502" y2="85.439"/>
	<line style="fill:none;stroke:#000000;stroke-miterlimit:1;" x1="176.502" y1="85.439" x2="180.156" y2="86.002"/>
	<line style="fill:none;stroke:#000000;stroke-miterlimit:1;" x1="180.156" y1="86.002" x2="184.371" y2="87.407"/>
	<line style="fill:none;stroke:#000000;stroke-miterlimit:1;" x1="184.371" y1="87.407" x2="188.307" y2="89.094"/>
	<line style="fill:none;stroke:#000000;stroke-miterlimit:1;" x1="188.307" y1="89.094" x2="191.117" y2="90.78"/>
	<line style="fill:none;stroke:#000000;stroke-miterlimit:1;" x1="191.117" y1="90.78" x2="193.928" y2="92.466"/>
	<line style="fill:none;stroke:#000000;stroke-miterlimit:1;" x1="193.928" y1="92.466" x2="196.738" y2="94.996"/>
	<line style="fill:none;stroke:#000000;stroke-miterlimit:1;" x1="196.738" y1="94.996" x2="199.83" y2="98.087"/>
	<line style="fill:none;stroke:#000000;stroke-miterlimit:1;" x1="199.83" y1="98.087" x2="202.359" y2="101.179"/>
	<line style="fill:none;stroke:#000000;stroke-miterlimit:1;" x1="202.359" y1="101.179" x2="204.607" y2="103.989"/>
	<line style="fill:none;stroke:#000000;stroke-miterlimit:1;" x1="204.607" y1="103.989" x2="205.732" y2="105.113"/>
	<line style="fill:none;stroke:#000000;stroke-miterlimit:1;" x1="207.699" y1="107.924" x2="209.104" y2="106.519"/>
	<line style="fill:none;stroke:#000000;stroke-miterlimit:1;" x1="209.104" y1="106.519" x2="210.791" y2="104.832"/>
	<line style="fill:none;stroke:#000000;stroke-miterlimit:1;" x1="210.791" y1="104.832" x2="211.354" y2="103.427"/>
	<line style="fill:none;stroke:#000000;stroke-miterlimit:1;" x1="211.354" y1="103.427" x2="212.195" y2="100.336"/>
	<line style="fill:none;stroke:#000000;stroke-miterlimit:1;" x1="212.195" y1="100.336" x2="211.914" y2="97.807"/>
	<line style="fill:none;stroke:#000000;stroke-miterlimit:1;" x1="211.914" y1="97.807" x2="211.354" y2="95.558"/>
	<line style="fill:none;stroke:#000000;stroke-miterlimit:1;" x1="211.354" y1="95.558" x2="210.791" y2="93.871"/>
	<line style="fill:none;stroke:#000000;stroke-miterlimit:1;" x1="210.791" y1="93.871" x2="209.666" y2="92.747"/>
	<line style="fill:none;stroke:#000000;stroke-miterlimit:1;" x1="209.666" y1="92.747" x2="208.262" y2="91.061"/>
	<line style="fill:none;stroke:#000000;stroke-miterlimit:1;" x1="208.262" y1="91.061" x2="206.855" y2="89.937"/>
	<line style="fill:none;stroke:#000000;stroke-miterlimit:1;" x1="206.855" y1="89.937" x2="204.045" y2="88.812"/>
	<line style="fill:none;stroke:#000000;stroke-miterlimit:1;" x1="204.045" y1="88.812" x2="202.359" y2="88.812"/>
	<line style="fill:none;stroke:#000000;stroke-miterlimit:1;" x1="202.359" y1="88.812" x2="199.83" y2="88.812"/>
	<line style="fill:none;stroke:#000000;stroke-miterlimit:1;" x1="199.83" y1="88.812" x2="197.301" y2="89.937"/>
	<line style="fill:none;stroke:#000000;stroke-miterlimit:1;" x1="197.301" y1="89.937" x2="195.051" y2="91.342"/>
	<line style="fill:none;stroke:#000000;stroke-miterlimit:1;" x1="195.051" y1="91.342" x2="193.928" y2="92.186"/>
	<line style="fill:none;stroke:#000000;stroke-miterlimit:1;" x1="170.318" y1="138.277" x2="168.633" y2="139.401"/>
	<line style="fill:none;stroke:#000000;stroke-miterlimit:1;" x1="168.633" y1="139.401" x2="166.385" y2="140.526"/>
	<line style="fill:none;stroke:#000000;stroke-miterlimit:1;" x1="166.385" y1="140.526" x2="164.697" y2="141.088"/>
	<line style="fill:none;stroke:#000000;stroke-miterlimit:1;" x1="164.697" y1="141.088" x2="161.887" y2="141.088"/>
	<line style="fill:none;stroke:#000000;stroke-miterlimit:1;" x1="161.887" y1="141.088" x2="159.076" y2="140.526"/>
	<line style="fill:none;stroke:#000000;stroke-miterlimit:1;" x1="159.076" y1="140.526" x2="157.391" y2="139.401"/>
	<line style="fill:none;stroke:#000000;stroke-miterlimit:1;" x1="157.391" y1="139.401" x2="155.986" y2="138.277"/>
	<line style="fill:none;stroke:#000000;stroke-miterlimit:1;" x1="155.986" y1="138.277" x2="155.143" y2="137.153"/>
	<line style="fill:none;stroke:#000000;stroke-miterlimit:1;" x1="155.143" y1="137.153" x2="153.736" y2="135.467"/>
	<line style="fill:none;stroke:#000000;stroke-miterlimit:1;" x1="153.736" y1="135.467" x2="152.895" y2="133.5"/>
	<line style="fill:none;stroke:#000000;stroke-miterlimit:1;" x1="152.895" y1="133.5" x2="152.332" y2="130.689"/>
	<line style="fill:none;stroke:#000000;stroke-miterlimit:1;" x1="152.332" y1="130.689" x2="152.613" y2="128.722"/>
	<line style="fill:none;stroke:#000000;stroke-miterlimit:1;" x1="152.613" y1="128.722" x2="153.457" y2="126.474"/>
	<line style="fill:none;stroke:#000000;stroke-miterlimit:1;" x1="153.457" y1="126.474" x2="154.58" y2="124.225"/>
	<line style="fill:none;stroke:#000000;stroke-miterlimit:1;" x1="154.58" y1="124.225" x2="156.547" y2="122.258"/>
	<line style="fill:none;stroke:#000000;stroke-miterlimit:1;" x1="156.547" y1="122.258" x2="157.953" y2="121.414"/>
</g>
</svg>
