<?xml version="1.0" encoding="iso-8859-1"?>
<!-- Generator: Adobe Illustrator 16.0.1, SVG Export Plug-In . SVG Version: 6.00 Build 0)  -->
<!DOCTYPE svg PUBLIC "-//W3C//DTD SVG 1.1//EN" "http://www.w3.org/Graphics/SVG/1.1/DTD/svg11.dtd">
<svg version="1.1" id="Ebene_1" xmlns="http://www.w3.org/2000/svg" xmlns:xlink="http://www.w3.org/1999/xlink" x="0px" y="0px"
	 width="690.295px" height="150.789px" viewBox="0 0 690.295 150.789" style="enable-background:new 0 0 690.295 150.789;"
	 xml:space="preserve">
<g>
	
		<line style="fill:none;stroke:#C0C0C0;stroke-linejoin:bevel;stroke-miterlimit:10;" x1="359.588" y1="98.331" x2="359.588" y2="150.789"/>
	
		<line style="fill:none;stroke:#C0C0C0;stroke-linejoin:bevel;stroke-miterlimit:10;" x1="359.588" y1="150.789" x2="536.502" y2="150.789"/>
	
		<line style="fill:none;stroke:#C0C0C0;stroke-linejoin:bevel;stroke-miterlimit:10;" x1="536.502" y1="150.789" x2="536.502" y2="98.331"/>
	<line style="fill:none;stroke:#000000;stroke-miterlimit:1;" x1="102.158" y1="127.091" x2="98.208" y2="122.153"/>
	<line style="fill:none;stroke:#000000;stroke-miterlimit:1;" x1="98.208" y1="122.153" x2="93.271" y2="117.216"/>
	<line style="fill:none;stroke:#000000;stroke-miterlimit:1;" x1="93.271" y1="117.216" x2="89.321" y2="112.938"/>
	<line style="fill:none;stroke:#000000;stroke-miterlimit:1;" x1="89.321" y1="112.938" x2="85.042" y2="108.329"/>
	<line style="fill:none;stroke:#000000;stroke-miterlimit:1;" x1="85.042" y1="108.329" x2="79.776" y2="103.062"/>
	<line style="fill:none;stroke:#000000;stroke-miterlimit:1;" x1="79.776" y1="103.062" x2="74.51" y2="99.113"/>
	<line style="fill:none;stroke:#000000;stroke-miterlimit:1;" x1="74.51" y1="99.113" x2="68.914" y2="95.163"/>
	<line style="fill:none;stroke:#000000;stroke-miterlimit:1;" x1="68.914" y1="95.163" x2="79.447" y2="1.029"/>
	<line style="fill:none;stroke:#000000;stroke-miterlimit:1;" x1="79.447" y1="1.029" x2="82.738" y2="2.016"/>
	<line style="fill:none;stroke:#000000;stroke-miterlimit:1;" x1="82.738" y1="2.016" x2="86.359" y2="3.662"/>
	<line style="fill:none;stroke:#000000;stroke-miterlimit:1;" x1="86.359" y1="3.662" x2="89.321" y2="5.966"/>
	<line style="fill:none;stroke:#000000;stroke-miterlimit:1;" x1="89.321" y1="5.966" x2="92.283" y2="9.586"/>
	<line style="fill:none;stroke:#000000;stroke-miterlimit:1;" x1="92.283" y1="9.586" x2="94.917" y2="13.865"/>
	<line style="fill:none;stroke:#000000;stroke-miterlimit:1;" x1="94.917" y1="13.865" x2="96.233" y2="18.473"/>
	<line style="fill:none;stroke:#000000;stroke-miterlimit:1;" x1="96.233" y1="18.473" x2="97.221" y2="22.423"/>
	<line style="fill:none;stroke:#000000;stroke-miterlimit:1;" x1="97.221" y1="22.423" x2="98.208" y2="27.689"/>
	<line style="fill:none;stroke:#000000;stroke-miterlimit:1;" x1="98.208" y1="27.689" x2="102.816" y2="148.813"/>
	<line style="fill:none;stroke:#000000;stroke-miterlimit:1;" x1="102.816" y1="148.813" x2="96.562" y2="149.143"/>
	<line style="fill:none;stroke:#000000;stroke-miterlimit:1;" x1="96.562" y1="149.143" x2="97.879" y2="121.824"/>
	<line style="fill:none;stroke:#000000;stroke-miterlimit:1;" x1="169.813" y1="24.221" x2="169.813" y2="70.867"/>
	<line style="fill:none;stroke:#000000;stroke-miterlimit:1;" x1="169.813" y1="70.867" x2="210.486" y2="70.867"/>
	<line style="fill:none;stroke:#000000;stroke-miterlimit:1;" x1="210.486" y1="70.867" x2="210.486" y2="0.329"/>
	<line style="fill:none;stroke:#000000;stroke-miterlimit:1;" x1="210.486" y1="0.329" x2="128.571" y2="0.329"/>
	<line style="fill:none;stroke:#000000;stroke-miterlimit:1;" x1="128.571" y1="0.329" x2="128.571" y2="70.867"/>
	<line style="fill:none;stroke:#000000;stroke-miterlimit:1;" x1="128.571" y1="70.867" x2="135.966" y2="70.867"/>
	<line style="fill:none;stroke:#000000;stroke-miterlimit:1;" x1="135.966" y1="70.867" x2="135.966" y2="8.293"/>
	<line style="fill:none;stroke:#000000;stroke-miterlimit:1;" x1="135.966" y1="8.293" x2="203.375" y2="8.293"/>
	<line style="fill:none;stroke:#000000;stroke-miterlimit:1;" x1="203.375" y1="8.293" x2="203.375" y2="63.756"/>
	<line style="fill:none;stroke:#000000;stroke-miterlimit:1;" x1="203.375" y1="63.756" x2="176.639" y2="63.756"/>
	<line style="fill:none;stroke:#000000;stroke-miterlimit:1;" x1="176.639" y1="63.756" x2="176.639" y2="24.221"/>
	<line style="fill:none;stroke:#000000;stroke-miterlimit:1;" x1="176.639" y1="24.221" x2="169.813" y2="24.221"/>
	<line style="fill:none;stroke:#000000;stroke-miterlimit:1;" x1="193.278" y1="104.927" x2="195.269" y2="107.771"/>
	<line style="fill:none;stroke:#000000;stroke-miterlimit:1;" x1="195.269" y1="107.771" x2="197.26" y2="111.184"/>
	<line style="fill:none;stroke:#000000;stroke-miterlimit:1;" x1="197.26" y1="111.184" x2="198.398" y2="114.028"/>
	<line style="fill:none;stroke:#000000;stroke-miterlimit:1;" x1="198.398" y1="114.028" x2="199.536" y2="117.726"/>
	<line style="fill:none;stroke:#000000;stroke-miterlimit:1;" x1="199.536" y1="117.726" x2="200.104" y2="120.285"/>
	<line style="fill:none;stroke:#000000;stroke-miterlimit:1;" x1="200.104" y1="120.285" x2="200.673" y2="123.698"/>
	<line style="fill:none;stroke:#000000;stroke-miterlimit:1;" x1="200.673" y1="123.698" x2="200.673" y2="127.681"/>
	<line style="fill:none;stroke:#000000;stroke-miterlimit:1;" x1="200.673" y1="127.681" x2="200.389" y2="131.662"/>
	<line style="fill:none;stroke:#000000;stroke-miterlimit:1;" x1="200.389" y1="131.662" x2="199.536" y2="134.791"/>
	<line style="fill:none;stroke:#000000;stroke-miterlimit:1;" x1="199.536" y1="134.791" x2="198.398" y2="137.351"/>
	<line style="fill:none;stroke:#000000;stroke-miterlimit:1;" x1="198.398" y1="137.351" x2="196.691" y2="140.195"/>
	<line style="fill:none;stroke:#000000;stroke-miterlimit:1;" x1="196.691" y1="140.195" x2="194.985" y2="142.187"/>
	<line style="fill:none;stroke:#000000;stroke-miterlimit:1;" x1="194.985" y1="142.187" x2="192.14" y2="144.746"/>
	<line style="fill:none;stroke:#000000;stroke-miterlimit:1;" x1="192.14" y1="144.746" x2="189.296" y2="146.168"/>
	<line style="fill:none;stroke:#000000;stroke-miterlimit:1;" x1="189.296" y1="146.168" x2="186.167" y2="147.59"/>
	<line style="fill:none;stroke:#000000;stroke-miterlimit:1;" x1="186.167" y1="147.59" x2="183.039" y2="148.159"/>
	<line style="fill:none;stroke:#000000;stroke-miterlimit:1;" x1="183.039" y1="148.159" x2="179.057" y2="148.443"/>
	<line style="fill:none;stroke:#000000;stroke-miterlimit:1;" x1="179.057" y1="148.443" x2="174.506" y2="147.875"/>
	<line style="fill:none;stroke:#000000;stroke-miterlimit:1;" x1="174.506" y1="147.875" x2="171.093" y2="146.737"/>
	<line style="fill:none;stroke:#000000;stroke-miterlimit:1;" x1="171.093" y1="146.737" x2="167.111" y2="145.314"/>
	<line style="fill:none;stroke:#000000;stroke-miterlimit:1;" x1="167.111" y1="145.314" x2="163.129" y2="143.039"/>
	<line style="fill:none;stroke:#000000;stroke-miterlimit:1;" x1="163.129" y1="143.039" x2="160.285" y2="141.049"/>
	<line style="fill:none;stroke:#000000;stroke-miterlimit:1;" x1="160.285" y1="141.049" x2="156.872" y2="137.92"/>
	<line style="fill:none;stroke:#000000;stroke-miterlimit:1;" x1="156.872" y1="137.92" x2="154.596" y2="135.075"/>
	<line style="fill:none;stroke:#000000;stroke-miterlimit:1;" x1="154.596" y1="135.075" x2="151.752" y2="131.662"/>
	<line style="fill:none;stroke:#000000;stroke-miterlimit:1;" x1="151.752" y1="131.662" x2="148.908" y2="127.965"/>
	<line style="fill:none;stroke:#000000;stroke-miterlimit:1;" x1="148.908" y1="127.965" x2="146.917" y2="124.836"/>
	<line style="fill:none;stroke:#000000;stroke-miterlimit:1;" x1="146.917" y1="124.836" x2="145.495" y2="121.992"/>
	<line style="fill:none;stroke:#000000;stroke-miterlimit:1;" x1="145.495" y1="121.992" x2="143.788" y2="118.579"/>
	<line style="fill:none;stroke:#000000;stroke-miterlimit:1;" x1="143.788" y1="118.579" x2="142.65" y2="115.166"/>
	<line style="fill:none;stroke:#000000;stroke-miterlimit:1;" x1="142.65" y1="115.166" x2="141.797" y2="110.615"/>
	<line style="fill:none;stroke:#000000;stroke-miterlimit:1;" x1="141.797" y1="110.615" x2="141.513" y2="106.349"/>
	<line style="fill:none;stroke:#000000;stroke-miterlimit:1;" x1="141.513" y1="106.349" x2="141.797" y2="99.238"/>
	<line style="fill:none;stroke:#000000;stroke-miterlimit:1;" x1="141.797" y1="99.238" x2="142.65" y2="96.394"/>
	<line style="fill:none;stroke:#000000;stroke-miterlimit:1;" x1="142.65" y1="96.394" x2="143.788" y2="93.55"/>
	<line style="fill:none;stroke:#000000;stroke-miterlimit:1;" x1="143.788" y1="93.55" x2="145.495" y2="90.989"/>
	<line style="fill:none;stroke:#000000;stroke-miterlimit:1;" x1="145.495" y1="90.989" x2="147.77" y2="88.999"/>
	<line style="fill:none;stroke:#000000;stroke-miterlimit:1;" x1="147.77" y1="88.999" x2="150.33" y2="86.724"/>
	<line style="fill:none;stroke:#000000;stroke-miterlimit:1;" x1="150.33" y1="86.724" x2="154.027" y2="85.017"/>
	<line style="fill:none;stroke:#000000;stroke-miterlimit:1;" x1="154.027" y1="85.017" x2="156.303" y2="84.448"/>
	<line style="fill:none;stroke:#000000;stroke-miterlimit:1;" x1="156.303" y1="84.448" x2="159.716" y2="84.448"/>
	<line style="fill:none;stroke:#000000;stroke-miterlimit:1;" x1="159.716" y1="84.448" x2="163.698" y2="85.017"/>
	<line style="fill:none;stroke:#000000;stroke-miterlimit:1;" x1="163.698" y1="85.017" x2="167.396" y2="85.586"/>
	<line style="fill:none;stroke:#000000;stroke-miterlimit:1;" x1="167.396" y1="85.586" x2="171.662" y2="87.008"/>
	<line style="fill:none;stroke:#000000;stroke-miterlimit:1;" x1="171.662" y1="87.008" x2="175.644" y2="88.714"/>
	<line style="fill:none;stroke:#000000;stroke-miterlimit:1;" x1="175.644" y1="88.714" x2="178.488" y2="90.421"/>
	<line style="fill:none;stroke:#000000;stroke-miterlimit:1;" x1="178.488" y1="90.421" x2="181.332" y2="92.127"/>
	<line style="fill:none;stroke:#000000;stroke-miterlimit:1;" x1="181.332" y1="92.127" x2="184.176" y2="94.688"/>
	<line style="fill:none;stroke:#000000;stroke-miterlimit:1;" x1="184.176" y1="94.688" x2="187.305" y2="97.815"/>
	<line style="fill:none;stroke:#000000;stroke-miterlimit:1;" x1="187.305" y1="97.815" x2="189.865" y2="100.944"/>
	<line style="fill:none;stroke:#000000;stroke-miterlimit:1;" x1="189.865" y1="100.944" x2="192.14" y2="103.789"/>
	<line style="fill:none;stroke:#000000;stroke-miterlimit:1;" x1="192.14" y1="103.789" x2="193.278" y2="104.927"/>
	<line style="fill:none;stroke:#000000;stroke-miterlimit:1;" x1="195.269" y1="107.771" x2="196.691" y2="106.349"/>
	<line style="fill:none;stroke:#000000;stroke-miterlimit:1;" x1="196.691" y1="106.349" x2="198.398" y2="104.642"/>
	<line style="fill:none;stroke:#000000;stroke-miterlimit:1;" x1="198.398" y1="104.642" x2="198.967" y2="103.22"/>
	<line style="fill:none;stroke:#000000;stroke-miterlimit:1;" x1="198.967" y1="103.22" x2="199.82" y2="100.091"/>
	<line style="fill:none;stroke:#000000;stroke-miterlimit:1;" x1="199.82" y1="100.091" x2="199.536" y2="97.531"/>
	<line style="fill:none;stroke:#000000;stroke-miterlimit:1;" x1="199.536" y1="97.531" x2="198.967" y2="95.256"/>
	<line style="fill:none;stroke:#000000;stroke-miterlimit:1;" x1="198.967" y1="95.256" x2="198.398" y2="93.55"/>
	<line style="fill:none;stroke:#000000;stroke-miterlimit:1;" x1="198.398" y1="93.55" x2="197.26" y2="92.412"/>
	<line style="fill:none;stroke:#000000;stroke-miterlimit:1;" x1="197.26" y1="92.412" x2="195.838" y2="90.705"/>
	<line style="fill:none;stroke:#000000;stroke-miterlimit:1;" x1="195.838" y1="90.705" x2="194.416" y2="89.567"/>
	<line style="fill:none;stroke:#000000;stroke-miterlimit:1;" x1="194.416" y1="89.567" x2="191.572" y2="88.43"/>
	<line style="fill:none;stroke:#000000;stroke-miterlimit:1;" x1="191.572" y1="88.43" x2="189.865" y2="88.43"/>
	<line style="fill:none;stroke:#000000;stroke-miterlimit:1;" x1="189.865" y1="88.43" x2="187.305" y2="88.43"/>
	<line style="fill:none;stroke:#000000;stroke-miterlimit:1;" x1="187.305" y1="88.43" x2="184.745" y2="89.567"/>
	<line style="fill:none;stroke:#000000;stroke-miterlimit:1;" x1="184.745" y1="89.567" x2="182.47" y2="90.989"/>
	<line style="fill:none;stroke:#000000;stroke-miterlimit:1;" x1="182.47" y1="90.989" x2="181.332" y2="91.843"/>
	<line style="fill:none;stroke:#000000;stroke-miterlimit:1;" x1="157.44" y1="138.488" x2="155.734" y2="139.626"/>
	<line style="fill:none;stroke:#000000;stroke-miterlimit:1;" x1="155.734" y1="139.626" x2="153.458" y2="140.764"/>
	<line style="fill:none;stroke:#000000;stroke-miterlimit:1;" x1="153.458" y1="140.764" x2="151.752" y2="141.333"/>
	<line style="fill:none;stroke:#000000;stroke-miterlimit:1;" x1="151.752" y1="141.333" x2="148.908" y2="141.333"/>
	<line style="fill:none;stroke:#000000;stroke-miterlimit:1;" x1="148.908" y1="141.333" x2="146.063" y2="140.764"/>
	<line style="fill:none;stroke:#000000;stroke-miterlimit:1;" x1="146.063" y1="140.764" x2="144.357" y2="139.626"/>
	<line style="fill:none;stroke:#000000;stroke-miterlimit:1;" x1="144.357" y1="139.626" x2="142.935" y2="138.488"/>
	<line style="fill:none;stroke:#000000;stroke-miterlimit:1;" x1="142.935" y1="138.488" x2="142.082" y2="137.351"/>
	<line style="fill:none;stroke:#000000;stroke-miterlimit:1;" x1="142.082" y1="137.351" x2="140.66" y2="135.645"/>
	<line style="fill:none;stroke:#000000;stroke-miterlimit:1;" x1="140.66" y1="135.645" x2="139.806" y2="133.653"/>
	<line style="fill:none;stroke:#000000;stroke-miterlimit:1;" x1="139.806" y1="133.653" x2="139.237" y2="130.81"/>
	<line style="fill:none;stroke:#000000;stroke-miterlimit:1;" x1="139.237" y1="130.81" x2="139.522" y2="128.818"/>
	<line style="fill:none;stroke:#000000;stroke-miterlimit:1;" x1="139.522" y1="128.818" x2="140.375" y2="126.543"/>
	<line style="fill:none;stroke:#000000;stroke-miterlimit:1;" x1="140.375" y1="126.543" x2="141.513" y2="124.268"/>
	<line style="fill:none;stroke:#000000;stroke-miterlimit:1;" x1="141.513" y1="124.268" x2="143.504" y2="122.276"/>
	<line style="fill:none;stroke:#000000;stroke-miterlimit:1;" x1="143.504" y1="122.276" x2="144.926" y2="121.423"/>
	<line style="fill:none;stroke:#000000;stroke-miterlimit:1;" x1="293.924" y1="40.526" x2="286.684" y2="39.868"/>
	<line style="fill:none;stroke:#000000;stroke-miterlimit:1;" x1="286.684" y1="39.868" x2="275.164" y2="40.526"/>
	<line style="fill:none;stroke:#000000;stroke-miterlimit:1;" x1="275.164" y1="40.526" x2="266.606" y2="39.538"/>
	<line style="fill:none;stroke:#000000;stroke-miterlimit:1;" x1="266.606" y1="39.538" x2="263.973" y2="40.526"/>
	<line style="fill:none;stroke:#000000;stroke-miterlimit:1;" x1="263.973" y1="40.526" x2="261.998" y2="43.159"/>
	<line style="fill:none;stroke:#000000;stroke-miterlimit:1;" x1="261.998" y1="43.159" x2="262.656" y2="47.767"/>
	<line style="fill:none;stroke:#000000;stroke-miterlimit:1;" x1="262.656" y1="47.767" x2="265.947" y2="58.299"/>
	<line style="fill:none;stroke:#000000;stroke-miterlimit:1;" x1="265.947" y1="58.299" x2="272.201" y2="68.503"/>
	<line style="fill:none;stroke:#000000;stroke-miterlimit:1;" x1="272.201" y1="68.503" x2="292.608" y2="92.859"/>
	<line style="fill:none;stroke:#000000;stroke-miterlimit:1;" x1="292.608" y1="92.859" x2="303.141" y2="102.733"/>
	<line style="fill:none;stroke:#000000;stroke-miterlimit:1;" x1="303.141" y1="102.733" x2="318.281" y2="116.887"/>
	<line style="fill:none;stroke:#000000;stroke-miterlimit:1;" x1="318.281" y1="116.887" x2="350.537" y2="148.484"/>
	<line style="fill:none;stroke:#000000;stroke-miterlimit:1;" x1="350.537" y1="148.484" x2="353.828" y2="148.484"/>
	<line style="fill:none;stroke:#000000;stroke-miterlimit:1;" x1="353.828" y1="148.484" x2="354.816" y2="146.839"/>
	<line style="fill:none;stroke:#000000;stroke-miterlimit:1;" x1="354.816" y1="146.839" x2="353.5" y2="143.877"/>
	<line style="fill:none;stroke:#000000;stroke-miterlimit:1;" x1="353.5" y1="143.877" x2="339.675" y2="112.279"/>
	<line style="fill:none;stroke:#000000;stroke-miterlimit:1;" x1="339.675" y1="112.279" x2="337.701" y2="106.354"/>
	<line style="fill:none;stroke:#000000;stroke-miterlimit:1;" x1="337.701" y1="106.354" x2="327.168" y2="81.011"/>
	<line style="fill:none;stroke:#000000;stroke-miterlimit:1;" x1="327.168" y1="81.011" x2="317.623" y2="64.553"/>
	<line style="fill:none;stroke:#000000;stroke-miterlimit:1;" x1="317.623" y1="64.553" x2="310.053" y2="54.021"/>
	<line style="fill:none;stroke:#000000;stroke-miterlimit:1;" x1="310.053" y1="54.021" x2="304.457" y2="46.45"/>
	<line style="fill:none;stroke:#000000;stroke-miterlimit:1;" x1="304.457" y1="46.45" x2="299.849" y2="39.209"/>
	<line style="fill:none;stroke:#000000;stroke-miterlimit:1;" x1="299.849" y1="39.209" x2="294.912" y2="32.626"/>
	<line style="fill:none;stroke:#000000;stroke-miterlimit:1;" x1="294.912" y1="32.626" x2="288.987" y2="25.714"/>
	<line style="fill:none;stroke:#000000;stroke-miterlimit:1;" x1="288.987" y1="25.714" x2="283.063" y2="21.765"/>
	<line style="fill:none;stroke:#000000;stroke-miterlimit:1;" x1="283.063" y1="21.765" x2="281.417" y2="14.853"/>
	<line style="fill:none;stroke:#000000;stroke-miterlimit:1;" x1="281.417" y1="14.853" x2="280.101" y2="7.282"/>
	<line style="fill:none;stroke:#000000;stroke-miterlimit:1;" x1="280.101" y1="7.282" x2="278.125" y2="2.345"/>
	<line style="fill:none;stroke:#000000;stroke-miterlimit:1;" x1="278.125" y1="2.345" x2="272.53" y2="1.029"/>
	<line style="fill:none;stroke:#000000;stroke-miterlimit:1;" x1="272.53" y1="1.029" x2="263.314" y2="1.029"/>
	<line style="fill:none;stroke:#000000;stroke-miterlimit:1;" x1="263.314" y1="1.029" x2="253.111" y2="1.358"/>
	<line style="fill:none;stroke:#000000;stroke-miterlimit:1;" x1="253.111" y1="1.358" x2="248.174" y2="2.674"/>
	<line style="fill:none;stroke:#000000;stroke-miterlimit:1;" x1="248.174" y1="2.674" x2="245.87" y2="3.333"/>
	<line style="fill:none;stroke:#000000;stroke-miterlimit:1;" x1="245.87" y1="3.333" x2="229.083" y2="5.637"/>
	<line style="fill:none;stroke:#000000;stroke-miterlimit:1;" x1="229.083" y1="5.637" x2="224.146" y2="7.94"/>
	<line style="fill:none;stroke:#000000;stroke-miterlimit:1;" x1="224.146" y1="7.94" x2="222.5" y2="10.245"/>
	<line style="fill:none;stroke:#000000;stroke-miterlimit:1;" x1="222.5" y1="10.245" x2="222.171" y2="14.853"/>
	<line style="fill:none;stroke:#000000;stroke-miterlimit:1;" x1="222.171" y1="14.853" x2="224.146" y2="11.561"/>
	<line style="fill:none;stroke:#000000;stroke-miterlimit:1;" x1="224.146" y1="11.561" x2="227.438" y2="9.916"/>
	<line style="fill:none;stroke:#000000;stroke-miterlimit:1;" x1="227.438" y1="9.916" x2="237.312" y2="9.916"/>
	<line style="fill:none;stroke:#000000;stroke-miterlimit:1;" x1="237.312" y1="9.916" x2="247.516" y2="10.245"/>
	<line style="fill:none;stroke:#000000;stroke-miterlimit:1;" x1="247.516" y1="10.245" x2="252.782" y2="11.561"/>
	<line style="fill:none;stroke:#000000;stroke-miterlimit:1;" x1="252.782" y1="11.561" x2="248.503" y2="6.295"/>
	<line style="fill:none;stroke:#000000;stroke-miterlimit:1;" x1="248.503" y1="6.295" x2="247.516" y2="2.674"/>
	<line style="fill:none;stroke:#000000;stroke-miterlimit:1;" x1="258.377" y1="9.586" x2="259.365" y2="9.257"/>
	<line style="fill:none;stroke:#000000;stroke-miterlimit:1;" x1="259.365" y1="9.257" x2="260.023" y2="7.611"/>
	<line style="fill:none;stroke:#000000;stroke-miterlimit:1;" x1="260.023" y1="7.611" x2="259.365" y2="5.966"/>
	<line style="fill:none;stroke:#000000;stroke-miterlimit:1;" x1="259.365" y1="5.966" x2="258.048" y2="4.979"/>
	<line style="fill:none;stroke:#000000;stroke-miterlimit:1;" x1="258.048" y1="4.979" x2="256.731" y2="5.966"/>
	<line style="fill:none;stroke:#000000;stroke-miterlimit:1;" x1="256.731" y1="5.966" x2="256.402" y2="7.94"/>
	<line style="fill:none;stroke:#000000;stroke-miterlimit:1;" x1="256.402" y1="7.94" x2="257.061" y2="8.928"/>
	<line style="fill:none;stroke:#000000;stroke-miterlimit:1;" x1="257.061" y1="8.928" x2="258.048" y2="9.586"/>
	<line style="fill:none;stroke:#000000;stroke-miterlimit:1;" x1="223.817" y1="12.878" x2="236.983" y2="12.549"/>
	<line style="fill:none;stroke:#000000;stroke-miterlimit:1;" x1="236.983" y1="12.549" x2="247.186" y2="13.865"/>
	<line style="fill:none;stroke:#000000;stroke-miterlimit:1;" x1="247.186" y1="13.865" x2="250.148" y2="15.511"/>
	<line style="fill:none;stroke:#000000;stroke-miterlimit:1;" x1="250.148" y1="15.511" x2="251.136" y2="18.802"/>
	<line style="fill:none;stroke:#000000;stroke-miterlimit:1;" x1="251.136" y1="18.802" x2="251.465" y2="22.423"/>
	<line style="fill:none;stroke:#000000;stroke-miterlimit:1;" x1="251.465" y1="22.423" x2="248.503" y2="29.664"/>
	<line style="fill:none;stroke:#000000;stroke-miterlimit:1;" x1="248.503" y1="29.664" x2="247.186" y2="38.551"/>
	<line style="fill:none;stroke:#000000;stroke-miterlimit:1;" x1="247.186" y1="38.551" x2="248.832" y2="49.413"/>
	<line style="fill:none;stroke:#000000;stroke-miterlimit:1;" x1="248.832" y1="49.413" x2="250.148" y2="54.35"/>
	<line style="fill:none;stroke:#000000;stroke-miterlimit:1;" x1="250.148" y1="54.35" x2="253.769" y2="64.224"/>
	<line style="fill:none;stroke:#000000;stroke-miterlimit:1;" x1="253.769" y1="64.224" x2="258.048" y2="72.124"/>
	<line style="fill:none;stroke:#000000;stroke-miterlimit:1;" x1="258.048" y1="72.124" x2="268.251" y2="89.568"/>
	<line style="fill:none;stroke:#000000;stroke-miterlimit:1;" x1="268.251" y1="89.568" x2="281.746" y2="115.241"/>
	<line style="fill:none;stroke:#000000;stroke-miterlimit:1;" x1="281.746" y1="115.241" x2="283.063" y2="125.115"/>
	<line style="fill:none;stroke:#000000;stroke-miterlimit:1;" x1="283.063" y1="125.115" x2="281.417" y2="141.901"/>
	<line style="fill:none;stroke:#000000;stroke-miterlimit:1;" x1="281.417" y1="141.901" x2="279.771" y2="143.548"/>
	<line style="fill:none;stroke:#000000;stroke-miterlimit:1;" x1="279.771" y1="143.548" x2="270.226" y2="144.535"/>
	<line style="fill:none;stroke:#000000;stroke-miterlimit:1;" x1="270.226" y1="144.535" x2="259.036" y2="144.206"/>
	<line style="fill:none;stroke:#000000;stroke-miterlimit:1;" x1="259.036" y1="144.206" x2="258.377" y2="145.852"/>
	<line style="fill:none;stroke:#000000;stroke-miterlimit:1;" x1="258.377" y1="145.852" x2="253.44" y2="146.51"/>
	<line style="fill:none;stroke:#000000;stroke-miterlimit:1;" x1="253.44" y1="146.51" x2="252.782" y2="147.497"/>
	<line style="fill:none;stroke:#000000;stroke-miterlimit:1;" x1="252.782" y1="147.497" x2="253.769" y2="148.813"/>
	<line style="fill:none;stroke:#000000;stroke-miterlimit:1;" x1="253.769" y1="148.813" x2="282.076" y2="147.826"/>
	<line style="fill:none;stroke:#000000;stroke-miterlimit:1;" x1="282.076" y1="147.826" x2="311.369" y2="149.143"/>
	<line style="fill:none;stroke:#000000;stroke-miterlimit:1;" x1="311.369" y1="149.143" x2="312.686" y2="147.826"/>
	<line style="fill:none;stroke:#000000;stroke-miterlimit:1;" x1="312.686" y1="147.826" x2="312.027" y2="146.181"/>
	<line style="fill:none;stroke:#000000;stroke-miterlimit:1;" x1="312.027" y1="146.181" x2="307.419" y2="146.181"/>
	<line style="fill:none;stroke:#000000;stroke-miterlimit:1;" x1="307.419" y1="146.181" x2="304.786" y2="143.877"/>
	<line style="fill:none;stroke:#000000;stroke-miterlimit:1;" x1="304.786" y1="143.877" x2="288" y2="143.548"/>
	<line style="fill:none;stroke:#000000;stroke-miterlimit:1;" x1="288" y1="143.548" x2="286.025" y2="142.23"/>
	<line style="fill:none;stroke:#000000;stroke-miterlimit:1;" x1="286.025" y1="142.23" x2="288" y2="121.495"/>
	<line style="fill:none;stroke:#000000;stroke-miterlimit:1;" x1="288" y1="121.495" x2="300.178" y2="127.749"/>
	<line style="fill:none;stroke:#000000;stroke-miterlimit:1;" x1="300.178" y1="127.749" x2="307.09" y2="107.342"/>
	<line style="fill:none;stroke:#000000;stroke-miterlimit:1;" x1="307.09" y1="107.342" x2="320.256" y2="140.256"/>
	<line style="fill:none;stroke:#000000;stroke-miterlimit:1;" x1="320.256" y1="140.256" x2="324.864" y2="146.181"/>
	<line style="fill:none;stroke:#000000;stroke-miterlimit:1;" x1="324.864" y1="146.181" x2="329.472" y2="148.813"/>
	<line style="fill:none;stroke:#000000;stroke-miterlimit:1;" x1="329.472" y1="148.813" x2="336.384" y2="148.813"/>
	<line style="fill:none;stroke:#000000;stroke-miterlimit:1;" x1="336.384" y1="148.813" x2="340.333" y2="147.497"/>
	<line style="fill:none;stroke:#000000;stroke-miterlimit:1;" x1="340.333" y1="147.497" x2="341.321" y2="145.522"/>
	<line style="fill:none;stroke:#000000;stroke-miterlimit:1;" x1="341.321" y1="145.522" x2="338.03" y2="136.636"/>
	<line style="fill:none;stroke:#000000;stroke-miterlimit:1;" x1="256.402" y1="69.819" x2="260.681" y2="93.847"/>
	<line style="fill:none;stroke:#000000;stroke-miterlimit:1;" x1="260.681" y1="93.847" x2="260.352" y2="112.279"/>
	<line style="fill:none;stroke:#000000;stroke-miterlimit:1;" x1="260.352" y1="112.279" x2="257.061" y2="131.04"/>
	<line style="fill:none;stroke:#000000;stroke-miterlimit:1;" x1="257.061" y1="131.04" x2="254.098" y2="140.585"/>
	<line style="fill:none;stroke:#000000;stroke-miterlimit:1;" x1="254.098" y1="140.585" x2="252.124" y2="142.89"/>
	<line style="fill:none;stroke:#000000;stroke-miterlimit:1;" x1="252.124" y1="142.89" x2="236.325" y2="143.877"/>
	<line style="fill:none;stroke:#000000;stroke-miterlimit:1;" x1="236.325" y1="143.877" x2="234.679" y2="146.181"/>
	<line style="fill:none;stroke:#000000;stroke-miterlimit:1;" x1="234.679" y1="146.181" x2="231.058" y2="146.51"/>
	<line style="fill:none;stroke:#000000;stroke-miterlimit:1;" x1="231.058" y1="146.51" x2="229.742" y2="147.497"/>
	<line style="fill:none;stroke:#000000;stroke-miterlimit:1;" x1="229.742" y1="147.497" x2="231.058" y2="148.813"/>
	<line style="fill:none;stroke:#000000;stroke-miterlimit:1;" x1="231.058" y1="148.813" x2="243.236" y2="147.826"/>
	<line style="fill:none;stroke:#000000;stroke-miterlimit:1;" x1="243.236" y1="147.826" x2="246.857" y2="148.155"/>
	<line style="fill:none;stroke:#000000;stroke-miterlimit:1;" x1="258.706" y1="144.206" x2="253.111" y2="144.864"/>
	<line style="fill:none;stroke:#000000;stroke-miterlimit:1;" x1="253.111" y1="144.864" x2="253.111" y2="144.864"/>
	<line style="fill:none;stroke:#000000;stroke-miterlimit:1;" x1="253.111" y1="144.864" x2="249.819" y2="145.522"/>
	<line style="fill:none;stroke:#000000;stroke-miterlimit:1;" x1="249.819" y1="145.522" x2="247.845" y2="148.155"/>
	<line style="fill:none;stroke:#000000;stroke-miterlimit:1;" x1="247.845" y1="148.155" x2="249.161" y2="148.813"/>
	<line style="fill:none;stroke:#000000;stroke-miterlimit:1;" x1="249.161" y1="148.813" x2="251.136" y2="146.839"/>
	<line style="fill:none;stroke:#000000;stroke-miterlimit:1;" x1="251.136" y1="146.839" x2="253.111" y2="146.51"/>
	<line style="fill:none;stroke:#000000;stroke-miterlimit:1;" x1="258.377" y1="143.877" x2="265.618" y2="116.887"/>
	<line style="fill:none;stroke:#000000;stroke-miterlimit:1;" x1="265.618" y1="116.887" x2="276.809" y2="123.47"/>
	<line style="fill:none;stroke:#000000;stroke-miterlimit:1;" x1="276.809" y1="123.47" x2="279.113" y2="111.291"/>
	<line style="fill:none;stroke:#000000;stroke-miterlimit:1;" x1="235.337" y1="144.206" x2="230.071" y2="144.864"/>
	<line style="fill:none;stroke:#000000;stroke-miterlimit:1;" x1="230.071" y1="144.864" x2="230.071" y2="144.864"/>
	<line style="fill:none;stroke:#000000;stroke-miterlimit:1;" x1="230.071" y1="144.864" x2="226.779" y2="145.522"/>
	<line style="fill:none;stroke:#000000;stroke-miterlimit:1;" x1="226.779" y1="145.522" x2="224.805" y2="148.155"/>
	<line style="fill:none;stroke:#000000;stroke-miterlimit:1;" x1="224.805" y1="148.155" x2="225.792" y2="148.813"/>
	<line style="fill:none;stroke:#000000;stroke-miterlimit:1;" x1="225.792" y1="148.813" x2="228.096" y2="146.839"/>
	<line style="fill:none;stroke:#000000;stroke-miterlimit:1;" x1="228.096" y1="146.839" x2="230.729" y2="146.51"/>
	<line style="fill:none;stroke:#000000;stroke-miterlimit:1;" x1="305.444" y1="143.877" x2="311.698" y2="144.535"/>
	<line style="fill:none;stroke:#000000;stroke-miterlimit:1;" x1="311.698" y1="144.535" x2="314.661" y2="145.522"/>
	<line style="fill:none;stroke:#000000;stroke-miterlimit:1;" x1="314.661" y1="145.522" x2="316.635" y2="148.155"/>
	<line style="fill:none;stroke:#000000;stroke-miterlimit:1;" x1="316.635" y1="148.155" x2="315.648" y2="148.813"/>
	<line style="fill:none;stroke:#000000;stroke-miterlimit:1;" x1="315.648" y1="148.813" x2="313.344" y2="146.839"/>
	<line style="fill:none;stroke:#000000;stroke-miterlimit:1;" x1="313.344" y1="146.839" x2="311.698" y2="146.51"/>
	<line style="fill:none;stroke:#000000;stroke-miterlimit:1;" x1="387.895" y1="5.883" x2="384.604" y2="5.883"/>
	<line style="fill:none;stroke:#000000;stroke-miterlimit:1;" x1="384.604" y1="5.883" x2="379.666" y2="6.871"/>
	<line style="fill:none;stroke:#000000;stroke-miterlimit:1;" x1="379.666" y1="6.871" x2="375.059" y2="7.858"/>
	<line style="fill:none;stroke:#000000;stroke-miterlimit:1;" x1="375.059" y1="7.858" x2="372.096" y2="9.175"/>
	<line style="fill:none;stroke:#000000;stroke-miterlimit:1;" x1="372.096" y1="9.175" x2="369.133" y2="11.15"/>
	<line style="fill:none;stroke:#000000;stroke-miterlimit:1;" x1="369.133" y1="11.15" x2="366.172" y2="13.125"/>
	<line style="fill:none;stroke:#000000;stroke-miterlimit:1;" x1="366.172" y1="13.125" x2="363.209" y2="16.416"/>
	<line style="fill:none;stroke:#000000;stroke-miterlimit:1;" x1="363.209" y1="16.416" x2="360.904" y2="20.037"/>
	<line style="fill:none;stroke:#000000;stroke-miterlimit:1;" x1="360.904" y1="20.037" x2="359.26" y2="23.986"/>
	<line style="fill:none;stroke:#000000;stroke-miterlimit:1;" x1="359.26" y1="23.986" x2="358.271" y2="28.923"/>
	<line style="fill:none;stroke:#000000;stroke-miterlimit:1;" x1="358.271" y1="28.923" x2="357.943" y2="34.19"/>
	<line style="fill:none;stroke:#000000;stroke-miterlimit:1;" x1="357.943" y1="34.19" x2="358.271" y2="37.811"/>
	<line style="fill:none;stroke:#000000;stroke-miterlimit:1;" x1="358.271" y1="37.811" x2="359.588" y2="42.418"/>
	<line style="fill:none;stroke:#000000;stroke-miterlimit:1;" x1="359.588" y1="42.418" x2="361.562" y2="47.026"/>
	<line style="fill:none;stroke:#000000;stroke-miterlimit:1;" x1="361.562" y1="47.026" x2="364.197" y2="51.305"/>
	<line style="fill:none;stroke:#000000;stroke-miterlimit:1;" x1="364.197" y1="51.305" x2="367.816" y2="54.597"/>
	<line style="fill:none;stroke:#000000;stroke-miterlimit:1;" x1="367.816" y1="54.597" x2="370.779" y2="56.242"/>
	<line style="fill:none;stroke:#000000;stroke-miterlimit:1;" x1="370.779" y1="56.242" x2="374.07" y2="57.888"/>
	<line style="fill:none;stroke:#000000;stroke-miterlimit:1;" x1="374.07" y1="57.888" x2="377.033" y2="58.875"/>
	<line style="fill:none;stroke:#000000;stroke-miterlimit:1;" x1="377.033" y1="58.875" x2="380.324" y2="59.205"/>
	<line style="fill:none;stroke:#000000;stroke-miterlimit:1;" x1="380.324" y1="59.205" x2="387.566" y2="59.863"/>
	<line style="fill:none;stroke:#000000;stroke-miterlimit:1;" x1="387.566" y1="59.863" x2="392.174" y2="59.534"/>
	<line style="fill:none;stroke:#000000;stroke-miterlimit:1;" x1="392.174" y1="59.534" x2="396.781" y2="58.875"/>
	<line style="fill:none;stroke:#000000;stroke-miterlimit:1;" x1="396.781" y1="58.875" x2="400.73" y2="57.888"/>
	<line style="fill:none;stroke:#000000;stroke-miterlimit:1;" x1="400.73" y1="57.888" x2="403.365" y2="56.9"/>
	<line style="fill:none;stroke:#000000;stroke-miterlimit:1;" x1="403.365" y1="56.9" x2="405.668" y2="55.255"/>
	<line style="fill:none;stroke:#000000;stroke-miterlimit:1;" x1="405.668" y1="55.255" x2="407.643" y2="53.938"/>
	<line style="fill:none;stroke:#000000;stroke-miterlimit:1;" x1="407.643" y1="53.938" x2="409.947" y2="51.963"/>
	<line style="fill:none;stroke:#000000;stroke-miterlimit:1;" x1="409.947" y1="51.963" x2="411.922" y2="49.33"/>
	<line style="fill:none;stroke:#000000;stroke-miterlimit:1;" x1="411.922" y1="49.33" x2="413.896" y2="46.368"/>
	<line style="fill:none;stroke:#000000;stroke-miterlimit:1;" x1="413.896" y1="46.368" x2="414.555" y2="44.393"/>
	<line style="fill:none;stroke:#000000;stroke-miterlimit:1;" x1="414.555" y1="44.393" x2="415.543" y2="42.418"/>
	<line style="fill:none;stroke:#000000;stroke-miterlimit:1;" x1="415.543" y1="42.418" x2="416.201" y2="40.114"/>
	<line style="fill:none;stroke:#000000;stroke-miterlimit:1;" x1="416.201" y1="40.114" x2="416.531" y2="37.481"/>
	<line style="fill:none;stroke:#000000;stroke-miterlimit:1;" x1="416.531" y1="37.481" x2="417.189" y2="33.531"/>
	<line style="fill:none;stroke:#000000;stroke-miterlimit:1;" x1="417.189" y1="33.531" x2="416.859" y2="30.569"/>
	<line style="fill:none;stroke:#000000;stroke-miterlimit:1;" x1="416.859" y1="30.569" x2="416.531" y2="27.278"/>
	<line style="fill:none;stroke:#000000;stroke-miterlimit:1;" x1="416.531" y1="27.278" x2="415.213" y2="23.328"/>
	<line style="fill:none;stroke:#000000;stroke-miterlimit:1;" x1="415.213" y1="23.328" x2="413.568" y2="19.049"/>
	<line style="fill:none;stroke:#000000;stroke-miterlimit:1;" x1="413.568" y1="19.049" x2="411.264" y2="16.416"/>
	<line style="fill:none;stroke:#000000;stroke-miterlimit:1;" x1="411.264" y1="16.416" x2="407.973" y2="13.125"/>
	<line style="fill:none;stroke:#000000;stroke-miterlimit:1;" x1="407.973" y1="13.125" x2="405.34" y2="11.15"/>
	<line style="fill:none;stroke:#000000;stroke-miterlimit:1;" x1="405.34" y1="11.15" x2="402.707" y2="9.175"/>
	<line style="fill:none;stroke:#000000;stroke-miterlimit:1;" x1="402.707" y1="9.175" x2="397.439" y2="7.2"/>
	<line style="fill:none;stroke:#000000;stroke-miterlimit:1;" x1="397.439" y1="7.2" x2="392.832" y2="6.212"/>
	<line style="fill:none;stroke:#000000;stroke-miterlimit:1;" x1="392.832" y1="6.212" x2="388.225" y2="5.883"/>
	<line style="fill:none;stroke:#000000;stroke-miterlimit:1;" x1="373.742" y1="8.517" x2="371.109" y2="8.517"/>
	<line style="fill:none;stroke:#000000;stroke-miterlimit:1;" x1="371.109" y1="8.517" x2="370.121" y2="7.529"/>
	<line style="fill:none;stroke:#000000;stroke-miterlimit:1;" x1="370.121" y1="7.529" x2="369.463" y2="6.542"/>
	<line style="fill:none;stroke:#000000;stroke-miterlimit:1;" x1="369.463" y1="6.542" x2="369.133" y2="4.567"/>
	<line style="fill:none;stroke:#000000;stroke-miterlimit:1;" x1="369.133" y1="4.567" x2="369.463" y2="2.592"/>
	<line style="fill:none;stroke:#000000;stroke-miterlimit:1;" x1="369.463" y1="2.592" x2="370.451" y2="1.275"/>
	<line style="fill:none;stroke:#000000;stroke-miterlimit:1;" x1="370.451" y1="1.275" x2="372.096" y2="0.617"/>
	<line style="fill:none;stroke:#000000;stroke-miterlimit:1;" x1="372.096" y1="0.617" x2="403.035" y2="0.617"/>
	<line style="fill:none;stroke:#000000;stroke-miterlimit:1;" x1="403.035" y1="0.617" x2="404.352" y2="1.275"/>
	<line style="fill:none;stroke:#000000;stroke-miterlimit:1;" x1="404.352" y1="1.275" x2="405.34" y2="2.592"/>
	<line style="fill:none;stroke:#000000;stroke-miterlimit:1;" x1="405.34" y1="2.592" x2="405.668" y2="4.238"/>
	<line style="fill:none;stroke:#000000;stroke-miterlimit:1;" x1="405.668" y1="4.238" x2="405.668" y2="5.225"/>
	<line style="fill:none;stroke:#000000;stroke-miterlimit:1;" x1="405.668" y1="5.225" x2="405.34" y2="6.542"/>
	<line style="fill:none;stroke:#000000;stroke-miterlimit:1;" x1="405.34" y1="6.542" x2="404.682" y2="7.529"/>
	<line style="fill:none;stroke:#000000;stroke-miterlimit:1;" x1="404.682" y1="7.529" x2="403.365" y2="8.517"/>
	<line style="fill:none;stroke:#000000;stroke-miterlimit:1;" x1="403.365" y1="8.517" x2="400.73" y2="8.517"/>
	<line style="fill:none;stroke:#000000;stroke-miterlimit:1;" x1="490.629" y1="0" x2="490.629" y2="59.246"/>
	<line style="fill:none;stroke:#000000;stroke-miterlimit:1;" x1="490.629" y1="59.246" x2="503.795" y2="59.246"/>
	<line style="fill:none;stroke:#000000;stroke-miterlimit:1;" x1="503.795" y1="59.246" x2="503.795" y2="0"/>
	<line style="fill:none;stroke:#000000;stroke-miterlimit:1;" x1="503.795" y1="0" x2="490.629" y2="0"/>
	<line style="fill:none;stroke:#000000;stroke-miterlimit:1;" x1="364.115" y1="105.613" x2="504.988" y2="105.613"/>
	<line style="fill:none;stroke:#000000;stroke-miterlimit:1;" x1="504.988" y1="105.613" x2="509.596" y2="106.272"/>
	<line style="fill:none;stroke:#000000;stroke-miterlimit:1;" x1="509.596" y1="106.272" x2="514.203" y2="107.589"/>
	<line style="fill:none;stroke:#000000;stroke-miterlimit:1;" x1="514.203" y1="107.589" x2="518.152" y2="110.88"/>
	<line style="fill:none;stroke:#000000;stroke-miterlimit:1;" x1="518.152" y1="110.88" x2="522.762" y2="117.792"/>
	<line style="fill:none;stroke:#000000;stroke-miterlimit:1;" x1="522.762" y1="117.792" x2="524.406" y2="124.375"/>
	<line style="fill:none;stroke:#000000;stroke-miterlimit:1;" x1="524.406" y1="124.375" x2="524.078" y2="130.958"/>
	<line style="fill:none;stroke:#000000;stroke-miterlimit:1;" x1="524.078" y1="130.958" x2="523.42" y2="131.945"/>
	<line style="fill:none;stroke:#000000;stroke-miterlimit:1;" x1="523.42" y1="131.945" x2="520.787" y2="135.236"/>
	<line style="fill:none;stroke:#000000;stroke-miterlimit:1;" x1="520.787" y1="135.236" x2="518.811" y2="136.553"/>
	<line style="fill:none;stroke:#000000;stroke-miterlimit:1;" x1="518.811" y1="136.553" x2="515.191" y2="136.553"/>
	<line style="fill:none;stroke:#000000;stroke-miterlimit:1;" x1="515.191" y1="136.553" x2="511.9" y2="134.578"/>
	<line style="fill:none;stroke:#000000;stroke-miterlimit:1;" x1="511.9" y1="134.578" x2="508.938" y2="128.983"/>
	<line style="fill:none;stroke:#000000;stroke-miterlimit:1;" x1="508.938" y1="128.983" x2="508.279" y2="124.704"/>
	<line style="fill:none;stroke:#000000;stroke-miterlimit:1;" x1="508.279" y1="124.704" x2="509.266" y2="120.425"/>
	<line style="fill:none;stroke:#000000;stroke-miterlimit:1;" x1="509.266" y1="120.425" x2="510.912" y2="116.146"/>
	<line style="fill:none;stroke:#000000;stroke-miterlimit:1;" x1="510.912" y1="116.146" x2="510.912" y2="111.867"/>
	<line style="fill:none;stroke:#000000;stroke-miterlimit:1;" x1="510.912" y1="111.867" x2="508.279" y2="108.576"/>
	<line style="fill:none;stroke:#000000;stroke-miterlimit:1;" x1="508.279" y1="108.576" x2="506.633" y2="106.602"/>
	<line style="fill:none;stroke:#000000;stroke-miterlimit:1;" x1="506.633" y1="106.602" x2="505.646" y2="105.943"/>
	<line style="fill:none;stroke:#000000;stroke-miterlimit:1;" x1="505.646" y1="105.943" x2="503.012" y2="110.551"/>
	<line style="fill:none;stroke:#000000;stroke-miterlimit:1;" x1="503.012" y1="110.551" x2="499.393" y2="116.805"/>
	<line style="fill:none;stroke:#000000;stroke-miterlimit:1;" x1="499.393" y1="116.805" x2="494.455" y2="122.729"/>
	<line style="fill:none;stroke:#000000;stroke-miterlimit:1;" x1="494.455" y1="122.729" x2="490.176" y2="127.995"/>
	<line style="fill:none;stroke:#000000;stroke-miterlimit:1;" x1="490.176" y1="127.995" x2="484.58" y2="133.262"/>
	<line style="fill:none;stroke:#000000;stroke-miterlimit:1;" x1="484.58" y1="133.262" x2="477.998" y2="137.87"/>
	<line style="fill:none;stroke:#000000;stroke-miterlimit:1;" x1="477.998" y1="137.87" x2="470.098" y2="142.478"/>
	<line style="fill:none;stroke:#000000;stroke-miterlimit:1;" x1="470.098" y1="142.478" x2="464.832" y2="144.452"/>
	<line style="fill:none;stroke:#000000;stroke-miterlimit:1;" x1="464.832" y1="144.452" x2="456.932" y2="147.086"/>
	<line style="fill:none;stroke:#000000;stroke-miterlimit:1;" x1="456.932" y1="147.086" x2="448.375" y2="148.402"/>
	<line style="fill:none;stroke:#000000;stroke-miterlimit:1;" x1="448.375" y1="148.402" x2="441.793" y2="149.061"/>
	<line style="fill:none;stroke:#000000;stroke-miterlimit:1;" x1="441.793" y1="149.061" x2="434.551" y2="149.39"/>
	<line style="fill:none;stroke:#000000;stroke-miterlimit:1;" x1="434.551" y1="149.39" x2="424.348" y2="149.061"/>
	<line style="fill:none;stroke:#000000;stroke-miterlimit:1;" x1="424.348" y1="149.061" x2="416.447" y2="147.744"/>
	<line style="fill:none;stroke:#000000;stroke-miterlimit:1;" x1="416.447" y1="147.744" x2="407.561" y2="144.452"/>
	<line style="fill:none;stroke:#000000;stroke-miterlimit:1;" x1="407.561" y1="144.452" x2="399.662" y2="141.819"/>
	<line style="fill:none;stroke:#000000;stroke-miterlimit:1;" x1="399.662" y1="141.819" x2="388.471" y2="135.236"/>
	<line style="fill:none;stroke:#000000;stroke-miterlimit:1;" x1="388.471" y1="135.236" x2="380.572" y2="128.653"/>
	<line style="fill:none;stroke:#000000;stroke-miterlimit:1;" x1="380.572" y1="128.653" x2="372.344" y2="119.767"/>
	<line style="fill:none;stroke:#000000;stroke-miterlimit:1;" x1="372.344" y1="119.767" x2="367.734" y2="112.854"/>
	<line style="fill:none;stroke:#000000;stroke-miterlimit:1;" x1="367.734" y1="112.854" x2="364.115" y2="105.613"/>
	<line style="fill:none;stroke:#000000;stroke-miterlimit:1;" x1="690.295" y1="37.811" x2="688.648" y2="45.051"/>
	<line style="fill:none;stroke:#000000;stroke-miterlimit:1;" x1="688.648" y1="45.051" x2="672.85" y2="41.76"/>
	<line style="fill:none;stroke:#000000;stroke-miterlimit:1;" x1="672.85" y1="41.76" x2="657.709" y2="39.456"/>
	<line style="fill:none;stroke:#000000;stroke-miterlimit:1;" x1="657.709" y1="39.456" x2="662.318" y2="43.406"/>
	<line style="fill:none;stroke:#000000;stroke-miterlimit:1;" x1="662.318" y1="43.406" x2="667.584" y2="53.28"/>
	<line style="fill:none;stroke:#000000;stroke-miterlimit:1;" x1="667.584" y1="53.28" x2="670.217" y2="63.154"/>
	<line style="fill:none;stroke:#000000;stroke-miterlimit:1;" x1="670.217" y1="63.154" x2="671.205" y2="89.814"/>
	<line style="fill:none;stroke:#000000;stroke-miterlimit:1;" x1="671.205" y1="89.814" x2="673.508" y2="112.854"/>
	<line style="fill:none;stroke:#000000;stroke-miterlimit:1;" x1="673.508" y1="112.854" x2="677.129" y2="122.4"/>
	<line style="fill:none;stroke:#000000;stroke-miterlimit:1;" x1="677.129" y1="122.4" x2="684.699" y2="131.945"/>
	<line style="fill:none;stroke:#000000;stroke-miterlimit:1;" x1="684.699" y1="131.945" x2="678.775" y2="135.565"/>
	<line style="fill:none;stroke:#000000;stroke-miterlimit:1;" x1="678.775" y1="135.565" x2="672.85" y2="126.021"/>
	<line style="fill:none;stroke:#000000;stroke-miterlimit:1;" x1="672.85" y1="126.021" x2="668.9" y2="118.779"/>
	<line style="fill:none;stroke:#000000;stroke-miterlimit:1;" x1="668.9" y1="118.779" x2="666.596" y2="111.209"/>
	<line style="fill:none;stroke:#000000;stroke-miterlimit:1;" x1="666.596" y1="111.209" x2="664.951" y2="91.461"/>
	<line style="fill:none;stroke:#000000;stroke-miterlimit:1;" x1="664.951" y1="91.461" x2="662.977" y2="61.509"/>
	<line style="fill:none;stroke:#000000;stroke-miterlimit:1;" x1="662.977" y1="61.509" x2="660.672" y2="54.926"/>
	<line style="fill:none;stroke:#000000;stroke-miterlimit:1;" x1="660.672" y1="54.926" x2="657.051" y2="48.014"/>
	<line style="fill:none;stroke:#000000;stroke-miterlimit:1;" x1="657.051" y1="48.014" x2="653.76" y2="44.064"/>
	<line style="fill:none;stroke:#000000;stroke-miterlimit:1;" x1="653.76" y1="44.064" x2="649.811" y2="40.114"/>
	<line style="fill:none;stroke:#000000;stroke-miterlimit:1;" x1="649.811" y1="40.114" x2="643.557" y2="37.811"/>
	<line style="fill:none;stroke:#000000;stroke-miterlimit:1;" x1="643.557" y1="37.811" x2="637.303" y2="36.823"/>
	<line style="fill:none;stroke:#000000;stroke-miterlimit:1;" x1="637.303" y1="36.823" x2="606.363" y2="36.165"/>
	<line style="fill:none;stroke:#000000;stroke-miterlimit:1;" x1="606.363" y1="36.165" x2="571.803" y2="37.811"/>
	<line style="fill:none;stroke:#000000;stroke-miterlimit:1;" x1="571.803" y1="37.811" x2="538.23" y2="41.76"/>
	<line style="fill:none;stroke:#000000;stroke-miterlimit:1;" x1="538.23" y1="41.76" x2="534.609" y2="42.089"/>
	<line style="fill:none;stroke:#000000;stroke-miterlimit:1;" x1="534.609" y1="42.089" x2="530.66" y2="41.76"/>
	<line style="fill:none;stroke:#000000;stroke-miterlimit:1;" x1="530.66" y1="41.76" x2="528.686" y2="38.798"/>
	<line style="fill:none;stroke:#000000;stroke-miterlimit:1;" x1="528.686" y1="38.798" x2="529.674" y2="33.202"/>
	<line style="fill:none;stroke:#000000;stroke-miterlimit:1;" x1="529.674" y1="33.202" x2="537.244" y2="21.353"/>
	<line style="fill:none;stroke:#000000;stroke-miterlimit:1;" x1="537.244" y1="21.353" x2="540.535" y2="17.074"/>
	<line style="fill:none;stroke:#000000;stroke-miterlimit:1;" x1="540.535" y1="17.074" x2="543.168" y2="17.074"/>
	<line style="fill:none;stroke:#000000;stroke-miterlimit:1;" x1="543.168" y1="17.074" x2="543.498" y2="19.049"/>
	<line style="fill:none;stroke:#000000;stroke-miterlimit:1;" x1="543.498" y1="19.049" x2="538.23" y2="31.886"/>
	<line style="fill:none;stroke:#000000;stroke-miterlimit:1;" x1="538.23" y1="31.886" x2="537.902" y2="34.19"/>
	<line style="fill:none;stroke:#000000;stroke-miterlimit:1;" x1="537.902" y1="34.19" x2="539.219" y2="35.506"/>
	<line style="fill:none;stroke:#000000;stroke-miterlimit:1;" x1="539.219" y1="35.506" x2="548.764" y2="33.861"/>
	<line style="fill:none;stroke:#000000;stroke-miterlimit:1;" x1="548.764" y1="33.861" x2="566.537" y2="31.557"/>
	<line style="fill:none;stroke:#000000;stroke-miterlimit:1;" x1="566.537" y1="31.557" x2="593.855" y2="29.252"/>
	<line style="fill:none;stroke:#000000;stroke-miterlimit:1;" x1="593.855" y1="29.252" x2="621.176" y2="28.594"/>
	<line style="fill:none;stroke:#000000;stroke-miterlimit:1;" x1="621.176" y1="28.594" x2="648.494" y2="30.898"/>
	<line style="fill:none;stroke:#000000;stroke-miterlimit:1;" x1="648.494" y1="30.898" x2="673.508" y2="34.848"/>
	<line style="fill:none;stroke:#000000;stroke-miterlimit:1;" x1="673.508" y1="34.848" x2="689.965" y2="38.14"/>
	<line style="fill:none;stroke:#000000;stroke-miterlimit:1;" x1="0" y1="95.657" x2="52.663" y2="95.657"/>
	<line style="fill:none;stroke:#000000;stroke-miterlimit:1;" x1="52.663" y1="95.657" x2="52.663" y2="148.32"/>
	<line style="fill:none;stroke:#000000;stroke-miterlimit:1;" x1="52.663" y1="148.32" x2="0" y2="148.32"/>
	<line style="fill:none;stroke:#000000;stroke-miterlimit:1;" x1="0" y1="148.32" x2="0" y2="95.657"/>
</g>
</svg>
