<?xml version="1.0" encoding="iso-8859-1"?>
<!-- Generator: Adobe Illustrator 16.0.1, SVG Export Plug-In . SVG Version: 6.00 Build 0)  -->
<!DOCTYPE svg PUBLIC "-//W3C//DTD SVG 1.1//EN" "http://www.w3.org/Graphics/SVG/1.1/DTD/svg11.dtd">
<svg version="1.1" id="Ebene_1" xmlns="http://www.w3.org/2000/svg" xmlns:xlink="http://www.w3.org/1999/xlink" x="0px" y="0px"
	 width="537.778px" height="148.113px" viewBox="0 0 537.778 148.113" style="enable-background:new 0 0 537.778 148.113;"
	 xml:space="preserve">
<g>
	<line style="fill:none;stroke:#000000;stroke-miterlimit:1;" x1="71.753" y1="39.497" x2="64.512" y2="38.839"/>
	<line style="fill:none;stroke:#000000;stroke-miterlimit:1;" x1="64.512" y1="38.839" x2="52.992" y2="39.497"/>
	<line style="fill:none;stroke:#000000;stroke-miterlimit:1;" x1="52.992" y1="39.497" x2="44.435" y2="38.51"/>
	<line style="fill:none;stroke:#000000;stroke-miterlimit:1;" x1="44.435" y1="38.51" x2="41.801" y2="39.497"/>
	<line style="fill:none;stroke:#000000;stroke-miterlimit:1;" x1="41.801" y1="39.497" x2="39.827" y2="42.13"/>
	<line style="fill:none;stroke:#000000;stroke-miterlimit:1;" x1="39.827" y1="42.13" x2="40.485" y2="46.738"/>
	<line style="fill:none;stroke:#000000;stroke-miterlimit:1;" x1="40.485" y1="46.738" x2="43.776" y2="57.271"/>
	<line style="fill:none;stroke:#000000;stroke-miterlimit:1;" x1="43.776" y1="57.271" x2="50.03" y2="67.474"/>
	<line style="fill:none;stroke:#000000;stroke-miterlimit:1;" x1="50.03" y1="67.474" x2="70.437" y2="91.83"/>
	<line style="fill:none;stroke:#000000;stroke-miterlimit:1;" x1="70.437" y1="91.83" x2="80.969" y2="101.705"/>
	<line style="fill:none;stroke:#000000;stroke-miterlimit:1;" x1="80.969" y1="101.705" x2="96.11" y2="115.857"/>
	<line style="fill:none;stroke:#000000;stroke-miterlimit:1;" x1="96.11" y1="115.857" x2="128.366" y2="147.455"/>
	<line style="fill:none;stroke:#000000;stroke-miterlimit:1;" x1="128.366" y1="147.455" x2="131.657" y2="147.455"/>
	<line style="fill:none;stroke:#000000;stroke-miterlimit:1;" x1="131.657" y1="147.455" x2="132.645" y2="145.811"/>
	<line style="fill:none;stroke:#000000;stroke-miterlimit:1;" x1="132.645" y1="145.811" x2="131.328" y2="142.848"/>
	<line style="fill:none;stroke:#000000;stroke-miterlimit:1;" x1="131.328" y1="142.848" x2="117.504" y2="111.25"/>
	<line style="fill:none;stroke:#000000;stroke-miterlimit:1;" x1="117.504" y1="111.25" x2="115.529" y2="105.326"/>
	<line style="fill:none;stroke:#000000;stroke-miterlimit:1;" x1="115.529" y1="105.326" x2="104.997" y2="79.982"/>
	<line style="fill:none;stroke:#000000;stroke-miterlimit:1;" x1="104.997" y1="79.982" x2="95.452" y2="63.524"/>
	<line style="fill:none;stroke:#000000;stroke-miterlimit:1;" x1="95.452" y1="63.524" x2="87.881" y2="52.992"/>
	<line style="fill:none;stroke:#000000;stroke-miterlimit:1;" x1="87.881" y1="52.992" x2="82.286" y2="45.421"/>
	<line style="fill:none;stroke:#000000;stroke-miterlimit:1;" x1="82.286" y1="45.421" x2="77.678" y2="38.181"/>
	<line style="fill:none;stroke:#000000;stroke-miterlimit:1;" x1="77.678" y1="38.181" x2="72.741" y2="31.598"/>
	<line style="fill:none;stroke:#000000;stroke-miterlimit:1;" x1="72.741" y1="31.598" x2="66.816" y2="24.686"/>
	<line style="fill:none;stroke:#000000;stroke-miterlimit:1;" x1="66.816" y1="24.686" x2="60.892" y2="20.736"/>
	<line style="fill:none;stroke:#000000;stroke-miterlimit:1;" x1="60.892" y1="20.736" x2="59.246" y2="13.824"/>
	<line style="fill:none;stroke:#000000;stroke-miterlimit:1;" x1="59.246" y1="13.824" x2="57.929" y2="6.253"/>
	<line style="fill:none;stroke:#000000;stroke-miterlimit:1;" x1="57.929" y1="6.253" x2="55.955" y2="1.316"/>
	<line style="fill:none;stroke:#000000;stroke-miterlimit:1;" x1="55.955" y1="1.316" x2="50.359" y2="0"/>
	<line style="fill:none;stroke:#000000;stroke-miterlimit:1;" x1="50.359" y1="0" x2="41.143" y2="0"/>
	<line style="fill:none;stroke:#000000;stroke-miterlimit:1;" x1="41.143" y1="0" x2="30.939" y2="0.329"/>
	<line style="fill:none;stroke:#000000;stroke-miterlimit:1;" x1="30.939" y1="0.329" x2="26.002" y2="1.646"/>
	<line style="fill:none;stroke:#000000;stroke-miterlimit:1;" x1="26.002" y1="1.646" x2="23.699" y2="2.304"/>
	<line style="fill:none;stroke:#000000;stroke-miterlimit:1;" x1="23.699" y1="2.304" x2="6.912" y2="4.608"/>
	<line style="fill:none;stroke:#000000;stroke-miterlimit:1;" x1="6.912" y1="4.608" x2="1.975" y2="6.912"/>
	<line style="fill:none;stroke:#000000;stroke-miterlimit:1;" x1="1.975" y1="6.912" x2="0.329" y2="9.216"/>
	<line style="fill:none;stroke:#000000;stroke-miterlimit:1;" x1="0.329" y1="9.216" x2="0" y2="13.824"/>
	<line style="fill:none;stroke:#000000;stroke-miterlimit:1;" x1="0" y1="13.824" x2="1.975" y2="10.533"/>
	<line style="fill:none;stroke:#000000;stroke-miterlimit:1;" x1="1.975" y1="10.533" x2="5.267" y2="8.887"/>
	<line style="fill:none;stroke:#000000;stroke-miterlimit:1;" x1="5.267" y1="8.887" x2="15.141" y2="8.887"/>
	<line style="fill:none;stroke:#000000;stroke-miterlimit:1;" x1="15.141" y1="8.887" x2="25.344" y2="9.216"/>
	<line style="fill:none;stroke:#000000;stroke-miterlimit:1;" x1="25.344" y1="9.216" x2="30.61" y2="10.533"/>
	<line style="fill:none;stroke:#000000;stroke-miterlimit:1;" x1="30.61" y1="10.533" x2="26.332" y2="5.266"/>
	<line style="fill:none;stroke:#000000;stroke-miterlimit:1;" x1="26.332" y1="5.266" x2="25.344" y2="1.646"/>
	<line style="fill:none;stroke:#000000;stroke-miterlimit:1;" x1="36.206" y1="8.558" x2="37.193" y2="8.229"/>
	<line style="fill:none;stroke:#000000;stroke-miterlimit:1;" x1="37.193" y1="8.229" x2="37.852" y2="6.583"/>
	<line style="fill:none;stroke:#000000;stroke-miterlimit:1;" x1="37.852" y1="6.583" x2="37.193" y2="4.937"/>
	<line style="fill:none;stroke:#000000;stroke-miterlimit:1;" x1="37.193" y1="4.937" x2="35.877" y2="3.95"/>
	<line style="fill:none;stroke:#000000;stroke-miterlimit:1;" x1="35.877" y1="3.95" x2="34.56" y2="4.937"/>
	<line style="fill:none;stroke:#000000;stroke-miterlimit:1;" x1="34.56" y1="4.937" x2="34.231" y2="6.912"/>
	<line style="fill:none;stroke:#000000;stroke-miterlimit:1;" x1="34.231" y1="6.912" x2="34.889" y2="7.899"/>
	<line style="fill:none;stroke:#000000;stroke-miterlimit:1;" x1="34.889" y1="7.899" x2="35.877" y2="8.558"/>
	<line style="fill:none;stroke:#000000;stroke-miterlimit:1;" x1="1.646" y1="11.849" x2="14.812" y2="11.52"/>
	<line style="fill:none;stroke:#000000;stroke-miterlimit:1;" x1="14.812" y1="11.52" x2="25.015" y2="12.836"/>
	<line style="fill:none;stroke:#000000;stroke-miterlimit:1;" x1="25.015" y1="12.836" x2="27.978" y2="14.482"/>
	<line style="fill:none;stroke:#000000;stroke-miterlimit:1;" x1="27.978" y1="14.482" x2="28.965" y2="17.773"/>
	<line style="fill:none;stroke:#000000;stroke-miterlimit:1;" x1="28.965" y1="17.773" x2="29.294" y2="21.394"/>
	<line style="fill:none;stroke:#000000;stroke-miterlimit:1;" x1="29.294" y1="21.394" x2="26.332" y2="28.635"/>
	<line style="fill:none;stroke:#000000;stroke-miterlimit:1;" x1="26.332" y1="28.635" x2="25.015" y2="37.522"/>
	<line style="fill:none;stroke:#000000;stroke-miterlimit:1;" x1="25.015" y1="37.522" x2="26.661" y2="48.384"/>
	<line style="fill:none;stroke:#000000;stroke-miterlimit:1;" x1="26.661" y1="48.384" x2="27.978" y2="53.321"/>
	<line style="fill:none;stroke:#000000;stroke-miterlimit:1;" x1="27.978" y1="53.321" x2="31.598" y2="63.195"/>
	<line style="fill:none;stroke:#000000;stroke-miterlimit:1;" x1="31.598" y1="63.195" x2="35.877" y2="71.095"/>
	<line style="fill:none;stroke:#000000;stroke-miterlimit:1;" x1="35.877" y1="71.095" x2="46.08" y2="88.539"/>
	<line style="fill:none;stroke:#000000;stroke-miterlimit:1;" x1="46.08" y1="88.539" x2="59.575" y2="114.213"/>
	<line style="fill:none;stroke:#000000;stroke-miterlimit:1;" x1="59.575" y1="114.213" x2="60.892" y2="124.086"/>
	<line style="fill:none;stroke:#000000;stroke-miterlimit:1;" x1="60.892" y1="124.086" x2="59.246" y2="140.873"/>
	<line style="fill:none;stroke:#000000;stroke-miterlimit:1;" x1="59.246" y1="140.873" x2="57.6" y2="142.52"/>
	<line style="fill:none;stroke:#000000;stroke-miterlimit:1;" x1="57.6" y1="142.52" x2="48.055" y2="143.506"/>
	<line style="fill:none;stroke:#000000;stroke-miterlimit:1;" x1="48.055" y1="143.506" x2="36.864" y2="143.178"/>
	<line style="fill:none;stroke:#000000;stroke-miterlimit:1;" x1="36.864" y1="143.178" x2="36.206" y2="144.822"/>
	<line style="fill:none;stroke:#000000;stroke-miterlimit:1;" x1="36.206" y1="144.822" x2="31.269" y2="145.48"/>
	<line style="fill:none;stroke:#000000;stroke-miterlimit:1;" x1="31.269" y1="145.48" x2="30.61" y2="146.469"/>
	<line style="fill:none;stroke:#000000;stroke-miterlimit:1;" x1="30.61" y1="146.469" x2="31.598" y2="147.785"/>
	<line style="fill:none;stroke:#000000;stroke-miterlimit:1;" x1="31.598" y1="147.785" x2="59.904" y2="146.797"/>
	<line style="fill:none;stroke:#000000;stroke-miterlimit:1;" x1="59.904" y1="146.797" x2="89.198" y2="148.113"/>
	<line style="fill:none;stroke:#000000;stroke-miterlimit:1;" x1="89.198" y1="148.113" x2="90.515" y2="146.797"/>
	<line style="fill:none;stroke:#000000;stroke-miterlimit:1;" x1="90.515" y1="146.797" x2="89.856" y2="145.152"/>
	<line style="fill:none;stroke:#000000;stroke-miterlimit:1;" x1="89.856" y1="145.152" x2="85.248" y2="145.152"/>
	<line style="fill:none;stroke:#000000;stroke-miterlimit:1;" x1="85.248" y1="145.152" x2="82.615" y2="142.848"/>
	<line style="fill:none;stroke:#000000;stroke-miterlimit:1;" x1="82.615" y1="142.848" x2="65.829" y2="142.52"/>
	<line style="fill:none;stroke:#000000;stroke-miterlimit:1;" x1="65.829" y1="142.52" x2="63.854" y2="141.203"/>
	<line style="fill:none;stroke:#000000;stroke-miterlimit:1;" x1="63.854" y1="141.203" x2="65.829" y2="120.467"/>
	<line style="fill:none;stroke:#000000;stroke-miterlimit:1;" x1="65.829" y1="120.467" x2="78.007" y2="126.721"/>
	<line style="fill:none;stroke:#000000;stroke-miterlimit:1;" x1="78.007" y1="126.721" x2="84.919" y2="106.312"/>
	<line style="fill:none;stroke:#000000;stroke-miterlimit:1;" x1="84.919" y1="106.312" x2="98.085" y2="139.227"/>
	<line style="fill:none;stroke:#000000;stroke-miterlimit:1;" x1="98.085" y1="139.227" x2="102.693" y2="145.152"/>
	<line style="fill:none;stroke:#000000;stroke-miterlimit:1;" x1="102.693" y1="145.152" x2="107.301" y2="147.785"/>
	<line style="fill:none;stroke:#000000;stroke-miterlimit:1;" x1="107.301" y1="147.785" x2="114.213" y2="147.785"/>
	<line style="fill:none;stroke:#000000;stroke-miterlimit:1;" x1="114.213" y1="147.785" x2="118.163" y2="146.469"/>
	<line style="fill:none;stroke:#000000;stroke-miterlimit:1;" x1="118.163" y1="146.469" x2="119.15" y2="144.494"/>
	<line style="fill:none;stroke:#000000;stroke-miterlimit:1;" x1="119.15" y1="144.494" x2="115.858" y2="135.607"/>
	<line style="fill:none;stroke:#000000;stroke-miterlimit:1;" x1="34.231" y1="68.791" x2="38.51" y2="92.818"/>
	<line style="fill:none;stroke:#000000;stroke-miterlimit:1;" x1="38.51" y1="92.818" x2="38.181" y2="111.25"/>
	<line style="fill:none;stroke:#000000;stroke-miterlimit:1;" x1="38.181" y1="111.25" x2="34.889" y2="130.012"/>
	<line style="fill:none;stroke:#000000;stroke-miterlimit:1;" x1="34.889" y1="130.012" x2="31.927" y2="139.557"/>
	<line style="fill:none;stroke:#000000;stroke-miterlimit:1;" x1="31.927" y1="139.557" x2="29.952" y2="141.861"/>
	<line style="fill:none;stroke:#000000;stroke-miterlimit:1;" x1="29.952" y1="141.861" x2="14.153" y2="142.848"/>
	<line style="fill:none;stroke:#000000;stroke-miterlimit:1;" x1="14.153" y1="142.848" x2="12.508" y2="145.152"/>
	<line style="fill:none;stroke:#000000;stroke-miterlimit:1;" x1="12.508" y1="145.152" x2="8.887" y2="145.48"/>
	<line style="fill:none;stroke:#000000;stroke-miterlimit:1;" x1="8.887" y1="145.48" x2="7.57" y2="146.469"/>
	<line style="fill:none;stroke:#000000;stroke-miterlimit:1;" x1="7.57" y1="146.469" x2="8.887" y2="147.785"/>
	<line style="fill:none;stroke:#000000;stroke-miterlimit:1;" x1="8.887" y1="147.785" x2="21.065" y2="146.797"/>
	<line style="fill:none;stroke:#000000;stroke-miterlimit:1;" x1="21.065" y1="146.797" x2="24.686" y2="147.127"/>
	<line style="fill:none;stroke:#000000;stroke-miterlimit:1;" x1="36.535" y1="143.178" x2="30.939" y2="143.836"/>
	<line style="fill:none;stroke:#000000;stroke-miterlimit:1;" x1="30.939" y1="143.836" x2="30.939" y2="143.836"/>
	<line style="fill:none;stroke:#000000;stroke-miterlimit:1;" x1="30.939" y1="143.836" x2="27.648" y2="144.494"/>
	<line style="fill:none;stroke:#000000;stroke-miterlimit:1;" x1="27.648" y1="144.494" x2="25.673" y2="147.127"/>
	<line style="fill:none;stroke:#000000;stroke-miterlimit:1;" x1="25.673" y1="147.127" x2="26.99" y2="147.785"/>
	<line style="fill:none;stroke:#000000;stroke-miterlimit:1;" x1="26.99" y1="147.785" x2="28.965" y2="145.811"/>
	<line style="fill:none;stroke:#000000;stroke-miterlimit:1;" x1="28.965" y1="145.811" x2="30.939" y2="145.48"/>
	<line style="fill:none;stroke:#000000;stroke-miterlimit:1;" x1="36.206" y1="142.848" x2="43.447" y2="115.857"/>
	<line style="fill:none;stroke:#000000;stroke-miterlimit:1;" x1="43.447" y1="115.857" x2="54.638" y2="122.441"/>
	<line style="fill:none;stroke:#000000;stroke-miterlimit:1;" x1="54.638" y1="122.441" x2="56.942" y2="110.264"/>
	<line style="fill:none;stroke:#000000;stroke-miterlimit:1;" x1="13.166" y1="143.178" x2="7.899" y2="143.836"/>
	<line style="fill:none;stroke:#000000;stroke-miterlimit:1;" x1="7.899" y1="143.836" x2="7.899" y2="143.836"/>
	<line style="fill:none;stroke:#000000;stroke-miterlimit:1;" x1="7.899" y1="143.836" x2="4.608" y2="144.494"/>
	<line style="fill:none;stroke:#000000;stroke-miterlimit:1;" x1="4.608" y1="144.494" x2="2.633" y2="147.127"/>
	<line style="fill:none;stroke:#000000;stroke-miterlimit:1;" x1="2.633" y1="147.127" x2="3.621" y2="147.785"/>
	<line style="fill:none;stroke:#000000;stroke-miterlimit:1;" x1="3.621" y1="147.785" x2="5.925" y2="145.811"/>
	<line style="fill:none;stroke:#000000;stroke-miterlimit:1;" x1="5.925" y1="145.811" x2="8.558" y2="145.48"/>
	<line style="fill:none;stroke:#000000;stroke-miterlimit:1;" x1="83.273" y1="142.848" x2="89.527" y2="143.506"/>
	<line style="fill:none;stroke:#000000;stroke-miterlimit:1;" x1="89.527" y1="143.506" x2="92.489" y2="144.494"/>
	<line style="fill:none;stroke:#000000;stroke-miterlimit:1;" x1="92.489" y1="144.494" x2="94.464" y2="147.127"/>
	<line style="fill:none;stroke:#000000;stroke-miterlimit:1;" x1="94.464" y1="147.127" x2="93.477" y2="147.785"/>
	<line style="fill:none;stroke:#000000;stroke-miterlimit:1;" x1="93.477" y1="147.785" x2="91.173" y2="145.811"/>
	<line style="fill:none;stroke:#000000;stroke-miterlimit:1;" x1="91.173" y1="145.811" x2="89.527" y2="145.48"/>
	<line style="fill:none;stroke:#000000;stroke-miterlimit:1;" x1="184.402" y1="148.113" x2="151.817" y2="99.072"/>
	<line style="fill:none;stroke:#000000;stroke-miterlimit:1;" x1="151.817" y1="99.072" x2="149.513" y2="92.16"/>
	<line style="fill:none;stroke:#000000;stroke-miterlimit:1;" x1="149.513" y1="92.16" x2="148.855" y2="86.234"/>
	<line style="fill:none;stroke:#000000;stroke-miterlimit:1;" x1="148.855" y1="86.234" x2="149.842" y2="80.641"/>
	<line style="fill:none;stroke:#000000;stroke-miterlimit:1;" x1="149.842" y1="80.641" x2="151.159" y2="78.006"/>
	<line style="fill:none;stroke:#000000;stroke-miterlimit:1;" x1="151.159" y1="78.006" x2="153.134" y2="75.045"/>
	<line style="fill:none;stroke:#000000;stroke-miterlimit:1;" x1="153.134" y1="75.045" x2="155.767" y2="72.741"/>
	<line style="fill:none;stroke:#000000;stroke-miterlimit:1;" x1="155.767" y1="72.741" x2="158.4" y2="71.095"/>
	<line style="fill:none;stroke:#000000;stroke-miterlimit:1;" x1="158.4" y1="71.095" x2="159.388" y2="70.437"/>
	<line style="fill:none;stroke:#000000;stroke-miterlimit:1;" x1="159.388" y1="70.437" x2="164.325" y2="69.778"/>
	<line style="fill:none;stroke:#000000;stroke-miterlimit:1;" x1="164.325" y1="69.778" x2="169.262" y2="67.803"/>
	<line style="fill:none;stroke:#000000;stroke-miterlimit:1;" x1="169.262" y1="67.803" x2="172.882" y2="64.512"/>
	<line style="fill:none;stroke:#000000;stroke-miterlimit:1;" x1="172.882" y1="64.512" x2="175.845" y2="61.22"/>
	<line style="fill:none;stroke:#000000;stroke-miterlimit:1;" x1="175.845" y1="61.22" x2="177.491" y2="58.258"/>
	<line style="fill:none;stroke:#000000;stroke-miterlimit:1;" x1="177.491" y1="58.258" x2="178.478" y2="52.333"/>
	<line style="fill:none;stroke:#000000;stroke-miterlimit:1;" x1="178.478" y1="52.333" x2="177.82" y2="47.067"/>
	<line style="fill:none;stroke:#000000;stroke-miterlimit:1;" x1="177.82" y1="47.067" x2="176.174" y2="44.105"/>
	<line style="fill:none;stroke:#000000;stroke-miterlimit:1;" x1="176.174" y1="44.105" x2="174.528" y2="41.472"/>
	<line style="fill:none;stroke:#000000;stroke-miterlimit:1;" x1="174.528" y1="41.472" x2="171.566" y2="38.51"/>
	<line style="fill:none;stroke:#000000;stroke-miterlimit:1;" x1="171.566" y1="38.51" x2="168.933" y2="37.193"/>
	<line style="fill:none;stroke:#000000;stroke-miterlimit:1;" x1="168.933" y1="37.193" x2="164.654" y2="35.218"/>
	<line style="fill:none;stroke:#000000;stroke-miterlimit:1;" x1="164.654" y1="35.218" x2="159.388" y2="33.902"/>
	<line style="fill:none;stroke:#000000;stroke-miterlimit:1;" x1="159.388" y1="33.902" x2="156.754" y2="32.256"/>
	<line style="fill:none;stroke:#000000;stroke-miterlimit:1;" x1="156.754" y1="32.256" x2="152.146" y2="28.635"/>
	<line style="fill:none;stroke:#000000;stroke-miterlimit:1;" x1="152.146" y1="28.635" x2="150.172" y2="25.344"/>
	<line style="fill:none;stroke:#000000;stroke-miterlimit:1;" x1="150.172" y1="25.344" x2="149.184" y2="22.382"/>
	<line style="fill:none;stroke:#000000;stroke-miterlimit:1;" x1="149.184" y1="22.382" x2="148.197" y2="16.457"/>
	<line style="fill:none;stroke:#000000;stroke-miterlimit:1;" x1="148.197" y1="16.457" x2="148.855" y2="11.191"/>
	<line style="fill:none;stroke:#000000;stroke-miterlimit:1;" x1="148.855" y1="11.191" x2="150.172" y2="8.558"/>
	<line style="fill:none;stroke:#000000;stroke-miterlimit:1;" x1="150.172" y1="8.558" x2="152.146" y2="5.595"/>
	<line style="fill:none;stroke:#000000;stroke-miterlimit:1;" x1="152.146" y1="5.595" x2="155.109" y2="2.962"/>
	<line style="fill:none;stroke:#000000;stroke-miterlimit:1;" x1="155.109" y1="2.962" x2="157.083" y2="1.316"/>
	<line style="fill:none;stroke:#000000;stroke-miterlimit:1;" x1="157.083" y1="1.316" x2="160.704" y2="0.329"/>
	<line style="fill:none;stroke:#000000;stroke-miterlimit:1;" x1="160.704" y1="0.329" x2="163.337" y2="0"/>
	<line style="fill:none;stroke:#000000;stroke-miterlimit:1;" x1="141.943" y1="148.113" x2="175.187" y2="97.098"/>
	<line style="fill:none;stroke:#000000;stroke-miterlimit:1;" x1="175.187" y1="97.098" x2="176.832" y2="93.146"/>
	<line style="fill:none;stroke:#000000;stroke-miterlimit:1;" x1="176.832" y1="93.146" x2="177.161" y2="86.234"/>
	<line style="fill:none;stroke:#000000;stroke-miterlimit:1;" x1="177.161" y1="86.234" x2="176.503" y2="80.641"/>
	<line style="fill:none;stroke:#000000;stroke-miterlimit:1;" x1="176.503" y1="80.641" x2="175.187" y2="78.006"/>
	<line style="fill:none;stroke:#000000;stroke-miterlimit:1;" x1="175.187" y1="78.006" x2="173.541" y2="75.703"/>
	<line style="fill:none;stroke:#000000;stroke-miterlimit:1;" x1="173.541" y1="75.703" x2="170.579" y2="72.741"/>
	<line style="fill:none;stroke:#000000;stroke-miterlimit:1;" x1="170.579" y1="72.741" x2="167.945" y2="71.095"/>
	<line style="fill:none;stroke:#000000;stroke-miterlimit:1;" x1="167.945" y1="71.095" x2="166.958" y2="70.437"/>
	<line style="fill:none;stroke:#000000;stroke-miterlimit:1;" x1="166.958" y1="70.437" x2="159.059" y2="68.791"/>
	<line style="fill:none;stroke:#000000;stroke-miterlimit:1;" x1="159.059" y1="68.791" x2="157.083" y2="67.803"/>
	<line style="fill:none;stroke:#000000;stroke-miterlimit:1;" x1="157.083" y1="67.803" x2="154.78" y2="66.487"/>
	<line style="fill:none;stroke:#000000;stroke-miterlimit:1;" x1="154.78" y1="66.487" x2="152.476" y2="64.183"/>
	<line style="fill:none;stroke:#000000;stroke-miterlimit:1;" x1="152.476" y1="64.183" x2="150.172" y2="60.891"/>
	<line style="fill:none;stroke:#000000;stroke-miterlimit:1;" x1="150.172" y1="60.891" x2="148.855" y2="57.929"/>
	<line style="fill:none;stroke:#000000;stroke-miterlimit:1;" x1="148.855" y1="57.929" x2="147.539" y2="52.004"/>
	<line style="fill:none;stroke:#000000;stroke-miterlimit:1;" x1="147.539" y1="52.004" x2="148.526" y2="46.409"/>
	<line style="fill:none;stroke:#000000;stroke-miterlimit:1;" x1="148.526" y1="46.409" x2="150.501" y2="43.776"/>
	<line style="fill:none;stroke:#000000;stroke-miterlimit:1;" x1="150.501" y1="43.776" x2="152.146" y2="41.143"/>
	<line style="fill:none;stroke:#000000;stroke-miterlimit:1;" x1="152.146" y1="41.143" x2="155.438" y2="38.181"/>
	<line style="fill:none;stroke:#000000;stroke-miterlimit:1;" x1="155.438" y1="38.181" x2="157.742" y2="36.864"/>
	<line style="fill:none;stroke:#000000;stroke-miterlimit:1;" x1="157.742" y1="36.864" x2="161.692" y2="35.218"/>
	<line style="fill:none;stroke:#000000;stroke-miterlimit:1;" x1="161.692" y1="35.218" x2="166.629" y2="33.572"/>
	<line style="fill:none;stroke:#000000;stroke-miterlimit:1;" x1="166.629" y1="33.572" x2="169.591" y2="31.598"/>
	<line style="fill:none;stroke:#000000;stroke-miterlimit:1;" x1="169.591" y1="31.598" x2="173.211" y2="28.964"/>
	<line style="fill:none;stroke:#000000;stroke-miterlimit:1;" x1="173.211" y1="28.964" x2="176.174" y2="25.015"/>
	<line style="fill:none;stroke:#000000;stroke-miterlimit:1;" x1="176.174" y1="25.015" x2="176.832" y2="22.052"/>
	<line style="fill:none;stroke:#000000;stroke-miterlimit:1;" x1="176.832" y1="22.052" x2="178.149" y2="16.128"/>
	<line style="fill:none;stroke:#000000;stroke-miterlimit:1;" x1="178.149" y1="16.128" x2="177.161" y2="10.862"/>
	<line style="fill:none;stroke:#000000;stroke-miterlimit:1;" x1="177.161" y1="10.862" x2="175.845" y2="8.229"/>
	<line style="fill:none;stroke:#000000;stroke-miterlimit:1;" x1="175.845" y1="8.229" x2="173.87" y2="5.266"/>
	<line style="fill:none;stroke:#000000;stroke-miterlimit:1;" x1="173.87" y1="5.266" x2="170.908" y2="2.633"/>
	<line style="fill:none;stroke:#000000;stroke-miterlimit:1;" x1="170.908" y1="2.633" x2="167.616" y2="0.658"/>
	<line style="fill:none;stroke:#000000;stroke-miterlimit:1;" x1="167.616" y1="0.658" x2="163.337" y2="0"/>
	<line style="fill:none;stroke:#000000;stroke-miterlimit:1;" x1="331.417" y1="42.658" x2="333.996" y2="44.27"/>
	<line style="fill:none;stroke:#000000;stroke-miterlimit:1;" x1="333.996" y1="44.27" x2="335.93" y2="44.915"/>
	<line style="fill:none;stroke:#000000;stroke-miterlimit:1;" x1="335.93" y1="44.915" x2="336.897" y2="44.915"/>
	<line style="fill:none;stroke:#000000;stroke-miterlimit:1;" x1="336.897" y1="44.915" x2="337.864" y2="43.947"/>
	<line style="fill:none;stroke:#000000;stroke-miterlimit:1;" x1="337.864" y1="43.947" x2="339.153" y2="42.658"/>
	<line style="fill:none;stroke:#000000;stroke-miterlimit:1;" x1="339.153" y1="42.658" x2="345.601" y2="31.376"/>
	<line style="fill:none;stroke:#000000;stroke-miterlimit:1;" x1="345.601" y1="31.376" x2="345.601" y2="29.765"/>
	<line style="fill:none;stroke:#000000;stroke-miterlimit:1;" x1="345.601" y1="29.765" x2="345.278" y2="29.12"/>
	<line style="fill:none;stroke:#000000;stroke-miterlimit:1;" x1="345.278" y1="29.12" x2="344.633" y2="28.153"/>
	<line style="fill:none;stroke:#000000;stroke-miterlimit:1;" x1="344.633" y1="28.153" x2="342.377" y2="26.863"/>
	<line style="fill:none;stroke:#000000;stroke-miterlimit:1;" x1="342.377" y1="26.863" x2="289.514" y2="2.043"/>
	<line style="fill:none;stroke:#000000;stroke-miterlimit:1;" x1="289.514" y1="2.043" x2="288.224" y2="1.721"/>
	<line style="fill:none;stroke:#000000;stroke-miterlimit:1;" x1="288.224" y1="1.721" x2="286.612" y2="1.399"/>
	<line style="fill:none;stroke:#000000;stroke-miterlimit:1;" x1="286.612" y1="1.399" x2="285.001" y2="2.043"/>
	<line style="fill:none;stroke:#000000;stroke-miterlimit:1;" x1="285.001" y1="2.043" x2="283.389" y2="3.01"/>
	<line style="fill:none;stroke:#000000;stroke-miterlimit:1;" x1="283.389" y1="3.01" x2="282.744" y2="3.978"/>
	<line style="fill:none;stroke:#000000;stroke-miterlimit:1;" x1="282.744" y1="3.978" x2="282.1" y2="5.912"/>
	<line style="fill:none;stroke:#000000;stroke-miterlimit:1;" x1="282.1" y1="5.912" x2="282.1" y2="7.201"/>
	<line style="fill:none;stroke:#000000;stroke-miterlimit:1;" x1="282.1" y1="7.201" x2="282.744" y2="8.812"/>
	<line style="fill:none;stroke:#000000;stroke-miterlimit:1;" x1="282.744" y1="8.812" x2="283.711" y2="10.102"/>
	<line style="fill:none;stroke:#000000;stroke-miterlimit:1;" x1="283.711" y1="10.102" x2="285.323" y2="11.713"/>
	<line style="fill:none;stroke:#000000;stroke-miterlimit:1;" x1="285.323" y1="11.713" x2="331.417" y2="42.658"/>
	<line style="fill:none;stroke:#000000;stroke-miterlimit:1;" x1="213.943" y1="88.045" x2="213.943" y2="147.291"/>
	<line style="fill:none;stroke:#000000;stroke-miterlimit:1;" x1="213.943" y1="147.291" x2="224.476" y2="147.291"/>
	<line style="fill:none;stroke:#000000;stroke-miterlimit:1;" x1="224.476" y1="147.291" x2="224.476" y2="88.045"/>
	<line style="fill:none;stroke:#000000;stroke-miterlimit:1;" x1="224.476" y1="88.045" x2="213.943" y2="88.045"/>
	<line style="fill:none;stroke:#000000;stroke-miterlimit:1;" x1="266.606" y1="88.045" x2="266.606" y2="147.291"/>
	<line style="fill:none;stroke:#000000;stroke-miterlimit:1;" x1="266.606" y1="147.291" x2="277.468" y2="147.291"/>
	<line style="fill:none;stroke:#000000;stroke-miterlimit:1;" x1="277.468" y1="147.291" x2="277.468" y2="88.045"/>
	<line style="fill:none;stroke:#000000;stroke-miterlimit:1;" x1="277.468" y1="88.045" x2="266.606" y2="88.045"/>
	<line style="fill:none;stroke:#000000;stroke-miterlimit:1;" x1="319.927" y1="88.045" x2="319.927" y2="147.291"/>
	<line style="fill:none;stroke:#000000;stroke-miterlimit:1;" x1="319.927" y1="147.291" x2="330.46" y2="147.291"/>
	<line style="fill:none;stroke:#000000;stroke-miterlimit:1;" x1="330.46" y1="147.291" x2="330.46" y2="88.045"/>
	<line style="fill:none;stroke:#000000;stroke-miterlimit:1;" x1="330.46" y1="88.045" x2="319.927" y2="88.045"/>
	<line style="fill:none;stroke:#000000;stroke-miterlimit:1;" x1="273.558" y1="37.823" x2="197.486" y2="37.823"/>
	<line style="fill:none;stroke:#000000;stroke-miterlimit:1;" x1="197.486" y1="37.823" x2="198.453" y2="31.376"/>
	<line style="fill:none;stroke:#000000;stroke-miterlimit:1;" x1="198.453" y1="31.376" x2="199.42" y2="27.186"/>
	<line style="fill:none;stroke:#000000;stroke-miterlimit:1;" x1="199.42" y1="27.186" x2="201.032" y2="22.996"/>
	<line style="fill:none;stroke:#000000;stroke-miterlimit:1;" x1="201.032" y1="22.996" x2="203.288" y2="19.772"/>
	<line style="fill:none;stroke:#000000;stroke-miterlimit:1;" x1="203.288" y1="19.772" x2="205.222" y2="16.871"/>
	<line style="fill:none;stroke:#000000;stroke-miterlimit:1;" x1="205.222" y1="16.871" x2="207.801" y2="13.325"/>
	<line style="fill:none;stroke:#000000;stroke-miterlimit:1;" x1="207.801" y1="13.325" x2="210.702" y2="10.747"/>
	<line style="fill:none;stroke:#000000;stroke-miterlimit:1;" x1="210.702" y1="10.747" x2="214.248" y2="8.168"/>
	<line style="fill:none;stroke:#000000;stroke-miterlimit:1;" x1="214.248" y1="8.168" x2="217.148" y2="6.234"/>
	<line style="fill:none;stroke:#000000;stroke-miterlimit:1;" x1="217.148" y1="6.234" x2="221.339" y2="4.3"/>
	<line style="fill:none;stroke:#000000;stroke-miterlimit:1;" x1="221.339" y1="4.3" x2="225.529" y2="3.01"/>
	<line style="fill:none;stroke:#000000;stroke-miterlimit:1;" x1="225.529" y1="3.01" x2="228.43" y2="2.366"/>
	<line style="fill:none;stroke:#000000;stroke-miterlimit:1;" x1="228.43" y1="2.366" x2="233.588" y2="1.721"/>
	<line style="fill:none;stroke:#000000;stroke-miterlimit:1;" x1="233.588" y1="1.721" x2="237.456" y2="1.721"/>
	<line style="fill:none;stroke:#000000;stroke-miterlimit:1;" x1="237.456" y1="1.721" x2="241.001" y2="2.366"/>
	<line style="fill:none;stroke:#000000;stroke-miterlimit:1;" x1="241.001" y1="2.366" x2="244.87" y2="3.01"/>
	<line style="fill:none;stroke:#000000;stroke-miterlimit:1;" x1="244.87" y1="3.01" x2="249.06" y2="3.978"/>
	<line style="fill:none;stroke:#000000;stroke-miterlimit:1;" x1="249.06" y1="3.978" x2="251.961" y2="4.944"/>
	<line style="fill:none;stroke:#000000;stroke-miterlimit:1;" x1="251.961" y1="4.944" x2="255.829" y2="7.523"/>
	<line style="fill:none;stroke:#000000;stroke-miterlimit:1;" x1="255.829" y1="7.523" x2="259.053" y2="9.78"/>
	<line style="fill:none;stroke:#000000;stroke-miterlimit:1;" x1="259.053" y1="9.78" x2="261.954" y2="12.036"/>
	<line style="fill:none;stroke:#000000;stroke-miterlimit:1;" x1="261.954" y1="12.036" x2="264.532" y2="15.259"/>
	<line style="fill:none;stroke:#000000;stroke-miterlimit:1;" x1="264.532" y1="15.259" x2="267.111" y2="18.805"/>
	<line style="fill:none;stroke:#000000;stroke-miterlimit:1;" x1="267.111" y1="18.805" x2="269.367" y2="22.351"/>
	<line style="fill:none;stroke:#000000;stroke-miterlimit:1;" x1="269.367" y1="22.351" x2="270.979" y2="25.574"/>
	<line style="fill:none;stroke:#000000;stroke-miterlimit:1;" x1="270.979" y1="25.574" x2="272.269" y2="30.409"/>
	<line style="fill:none;stroke:#000000;stroke-miterlimit:1;" x1="272.269" y1="30.409" x2="273.235" y2="33.955"/>
	<line style="fill:none;stroke:#000000;stroke-miterlimit:1;" x1="273.235" y1="33.955" x2="273.558" y2="37.823"/>
	<line style="fill:none;stroke:#000000;stroke-miterlimit:1;" x1="534.692" y1="51.593" x2="374.4" y2="51.593"/>
	<line style="fill:none;stroke:#000000;stroke-miterlimit:1;" x1="374.4" y1="51.593" x2="374.4" y2="14.071"/>
	<line style="fill:none;stroke:#000000;stroke-miterlimit:1;" x1="374.4" y1="14.071" x2="534.692" y2="14.071"/>
	<line style="fill:none;stroke:#000000;stroke-miterlimit:1;" x1="534.692" y1="14.071" x2="534.692" y2="51.593"/>
	<line style="fill:none;stroke:#000000;stroke-miterlimit:1;" x1="383.616" y1="14.071" x2="383.616" y2="0.247"/>
	<line style="fill:none;stroke:#000000;stroke-miterlimit:1;" x1="383.616" y1="0.247" x2="392.832" y2="0.247"/>
	<line style="fill:none;stroke:#000000;stroke-miterlimit:1;" x1="392.832" y1="0.247" x2="392.832" y2="14.071"/>
	<line style="fill:none;stroke:#000000;stroke-miterlimit:1;" x1="405.011" y1="14.071" x2="405.011" y2="0.247"/>
	<line style="fill:none;stroke:#000000;stroke-miterlimit:1;" x1="405.011" y1="0.247" x2="414.885" y2="0.247"/>
	<line style="fill:none;stroke:#000000;stroke-miterlimit:1;" x1="414.885" y1="0.247" x2="414.885" y2="14.071"/>
	<line style="fill:none;stroke:#000000;stroke-miterlimit:1;" x1="427.722" y1="14.071" x2="427.722" y2="0.247"/>
	<line style="fill:none;stroke:#000000;stroke-miterlimit:1;" x1="427.722" y1="0.247" x2="436.938" y2="0.247"/>
	<line style="fill:none;stroke:#000000;stroke-miterlimit:1;" x1="436.938" y1="0.247" x2="436.938" y2="14.071"/>
	<line style="fill:none;stroke:#000000;stroke-miterlimit:1;" x1="450.104" y1="14.071" x2="450.104" y2="0.247"/>
	<line style="fill:none;stroke:#000000;stroke-miterlimit:1;" x1="450.104" y1="0.247" x2="459.319" y2="0.247"/>
	<line style="fill:none;stroke:#000000;stroke-miterlimit:1;" x1="459.319" y1="0.247" x2="459.319" y2="14.071"/>
	<line style="fill:none;stroke:#000000;stroke-miterlimit:1;" x1="471.826" y1="14.071" x2="471.826" y2="0.247"/>
	<line style="fill:none;stroke:#000000;stroke-miterlimit:1;" x1="471.826" y1="0.247" x2="481.701" y2="0.247"/>
	<line style="fill:none;stroke:#000000;stroke-miterlimit:1;" x1="481.701" y1="0.247" x2="481.701" y2="14.071"/>
	<line style="fill:none;stroke:#000000;stroke-miterlimit:1;" x1="494.208" y1="14.071" x2="494.208" y2="0.247"/>
	<line style="fill:none;stroke:#000000;stroke-miterlimit:1;" x1="494.208" y1="0.247" x2="504.082" y2="0.247"/>
	<line style="fill:none;stroke:#000000;stroke-miterlimit:1;" x1="504.082" y1="0.247" x2="504.082" y2="14.071"/>
	<line style="fill:none;stroke:#000000;stroke-miterlimit:1;" x1="516.261" y1="14.071" x2="516.261" y2="0.247"/>
	<line style="fill:none;stroke:#000000;stroke-miterlimit:1;" x1="516.261" y1="0.247" x2="525.806" y2="0.247"/>
	<line style="fill:none;stroke:#000000;stroke-miterlimit:1;" x1="525.806" y1="0.247" x2="525.806" y2="14.071"/>
	<line style="fill:none;stroke:#000000;stroke-miterlimit:1;" x1="377.486" y1="147.127" x2="385.386" y2="147.127"/>
	<line style="fill:none;stroke:#000000;stroke-miterlimit:1;" x1="385.386" y1="147.127" x2="397.563" y2="131.986"/>
	<line style="fill:none;stroke:#000000;stroke-miterlimit:1;" x1="397.563" y1="131.986" x2="407.768" y2="145.152"/>
	<line style="fill:none;stroke:#000000;stroke-miterlimit:1;" x1="407.768" y1="145.152" x2="417.642" y2="131.986"/>
	<line style="fill:none;stroke:#000000;stroke-miterlimit:1;" x1="417.642" y1="131.986" x2="427.516" y2="145.152"/>
	<line style="fill:none;stroke:#000000;stroke-miterlimit:1;" x1="427.516" y1="145.152" x2="437.39" y2="131.986"/>
	<line style="fill:none;stroke:#000000;stroke-miterlimit:1;" x1="437.39" y1="131.986" x2="447.594" y2="145.152"/>
	<line style="fill:none;stroke:#000000;stroke-miterlimit:1;" x1="447.594" y1="145.152" x2="457.139" y2="131.986"/>
	<line style="fill:none;stroke:#000000;stroke-miterlimit:1;" x1="457.139" y1="131.986" x2="467.671" y2="145.152"/>
	<line style="fill:none;stroke:#000000;stroke-miterlimit:1;" x1="467.671" y1="145.152" x2="477.545" y2="131.986"/>
	<line style="fill:none;stroke:#000000;stroke-miterlimit:1;" x1="477.545" y1="131.986" x2="487.749" y2="145.152"/>
	<line style="fill:none;stroke:#000000;stroke-miterlimit:1;" x1="487.749" y1="145.152" x2="497.952" y2="131.986"/>
	<line style="fill:none;stroke:#000000;stroke-miterlimit:1;" x1="497.952" y1="131.986" x2="507.826" y2="145.152"/>
	<line style="fill:none;stroke:#000000;stroke-miterlimit:1;" x1="507.826" y1="145.152" x2="517.372" y2="131.986"/>
	<line style="fill:none;stroke:#000000;stroke-miterlimit:1;" x1="517.372" y1="131.986" x2="529.879" y2="147.127"/>
	<line style="fill:none;stroke:#000000;stroke-miterlimit:1;" x1="529.879" y1="147.127" x2="537.778" y2="147.127"/>
	<line style="fill:none;stroke:#000000;stroke-miterlimit:1;" x1="537.778" y1="147.127" x2="517.701" y2="122.77"/>
	<line style="fill:none;stroke:#000000;stroke-miterlimit:1;" x1="517.701" y1="122.77" x2="507.497" y2="135.936"/>
	<line style="fill:none;stroke:#000000;stroke-miterlimit:1;" x1="507.497" y1="135.936" x2="497.952" y2="122.77"/>
	<line style="fill:none;stroke:#000000;stroke-miterlimit:1;" x1="497.952" y1="122.77" x2="488.078" y2="137.252"/>
	<line style="fill:none;stroke:#000000;stroke-miterlimit:1;" x1="488.078" y1="137.252" x2="476.887" y2="122.77"/>
	<line style="fill:none;stroke:#000000;stroke-miterlimit:1;" x1="476.887" y1="122.77" x2="467.671" y2="135.936"/>
	<line style="fill:none;stroke:#000000;stroke-miterlimit:1;" x1="467.671" y1="135.936" x2="457.139" y2="122.77"/>
	<line style="fill:none;stroke:#000000;stroke-miterlimit:1;" x1="457.139" y1="122.77" x2="447.923" y2="135.936"/>
	<line style="fill:none;stroke:#000000;stroke-miterlimit:1;" x1="447.923" y1="135.936" x2="437.39" y2="122.77"/>
	<line style="fill:none;stroke:#000000;stroke-miterlimit:1;" x1="437.39" y1="122.77" x2="427.516" y2="137.252"/>
	<line style="fill:none;stroke:#000000;stroke-miterlimit:1;" x1="427.516" y1="137.252" x2="417.312" y2="122.77"/>
	<line style="fill:none;stroke:#000000;stroke-miterlimit:1;" x1="417.312" y1="122.77" x2="407.768" y2="136.594"/>
	<line style="fill:none;stroke:#000000;stroke-miterlimit:1;" x1="407.768" y1="136.594" x2="396.576" y2="122.77"/>
	<line style="fill:none;stroke:#000000;stroke-miterlimit:1;" x1="396.576" y1="122.77" x2="377.486" y2="147.127"/>
</g>
</svg>
