<?xml version="1.0" encoding="iso-8859-1"?>
<!-- Generator: Adobe Illustrator 16.0.1, SVG Export Plug-In . SVG Version: 6.00 Build 0)  -->
<!DOCTYPE svg PUBLIC "-//W3C//DTD SVG 1.1//EN" "http://www.w3.org/Graphics/SVG/1.1/DTD/svg11.dtd">
<svg version="1.1" id="Ebene_1" xmlns="http://www.w3.org/2000/svg" xmlns:xlink="http://www.w3.org/1999/xlink" x="0px" y="0px"
	 width="484.992px" height="148.114px" viewBox="0 0 484.992 148.114" style="enable-background:new 0 0 484.992 148.114;"
	 xml:space="preserve">
<g>
	<line style="fill:none;stroke:#000000;stroke-miterlimit:1;" x1="71.753" y1="39.497" x2="64.512" y2="38.839"/>
	<line style="fill:none;stroke:#000000;stroke-miterlimit:1;" x1="64.512" y1="38.839" x2="52.992" y2="39.497"/>
	<line style="fill:none;stroke:#000000;stroke-miterlimit:1;" x1="52.992" y1="39.497" x2="44.434" y2="38.51"/>
	<line style="fill:none;stroke:#000000;stroke-miterlimit:1;" x1="44.434" y1="38.51" x2="41.801" y2="39.497"/>
	<line style="fill:none;stroke:#000000;stroke-miterlimit:1;" x1="41.801" y1="39.497" x2="39.826" y2="42.13"/>
	<line style="fill:none;stroke:#000000;stroke-miterlimit:1;" x1="39.826" y1="42.13" x2="40.484" y2="46.738"/>
	<line style="fill:none;stroke:#000000;stroke-miterlimit:1;" x1="40.484" y1="46.738" x2="43.776" y2="57.271"/>
	<line style="fill:none;stroke:#000000;stroke-miterlimit:1;" x1="43.776" y1="57.271" x2="50.029" y2="67.474"/>
	<line style="fill:none;stroke:#000000;stroke-miterlimit:1;" x1="50.029" y1="67.474" x2="70.437" y2="91.831"/>
	<line style="fill:none;stroke:#000000;stroke-miterlimit:1;" x1="70.437" y1="91.831" x2="80.969" y2="101.705"/>
	<line style="fill:none;stroke:#000000;stroke-miterlimit:1;" x1="80.969" y1="101.705" x2="96.109" y2="115.858"/>
	<line style="fill:none;stroke:#000000;stroke-miterlimit:1;" x1="96.109" y1="115.858" x2="128.366" y2="147.456"/>
	<line style="fill:none;stroke:#000000;stroke-miterlimit:1;" x1="128.366" y1="147.456" x2="131.657" y2="147.456"/>
	<line style="fill:none;stroke:#000000;stroke-miterlimit:1;" x1="131.657" y1="147.456" x2="132.645" y2="145.811"/>
	<line style="fill:none;stroke:#000000;stroke-miterlimit:1;" x1="132.645" y1="145.811" x2="131.328" y2="142.848"/>
	<line style="fill:none;stroke:#000000;stroke-miterlimit:1;" x1="131.328" y1="142.848" x2="117.504" y2="111.25"/>
	<line style="fill:none;stroke:#000000;stroke-miterlimit:1;" x1="117.504" y1="111.25" x2="115.529" y2="105.326"/>
	<line style="fill:none;stroke:#000000;stroke-miterlimit:1;" x1="115.529" y1="105.326" x2="104.997" y2="79.981"/>
	<line style="fill:none;stroke:#000000;stroke-miterlimit:1;" x1="104.997" y1="79.981" x2="95.451" y2="63.524"/>
	<line style="fill:none;stroke:#000000;stroke-miterlimit:1;" x1="95.451" y1="63.524" x2="87.881" y2="52.992"/>
	<line style="fill:none;stroke:#000000;stroke-miterlimit:1;" x1="87.881" y1="52.992" x2="82.286" y2="45.422"/>
	<line style="fill:none;stroke:#000000;stroke-miterlimit:1;" x1="82.286" y1="45.422" x2="77.678" y2="38.181"/>
	<line style="fill:none;stroke:#000000;stroke-miterlimit:1;" x1="77.678" y1="38.181" x2="72.74" y2="31.598"/>
	<line style="fill:none;stroke:#000000;stroke-miterlimit:1;" x1="72.74" y1="31.598" x2="66.816" y2="24.686"/>
	<line style="fill:none;stroke:#000000;stroke-miterlimit:1;" x1="66.816" y1="24.686" x2="60.891" y2="20.736"/>
	<line style="fill:none;stroke:#000000;stroke-miterlimit:1;" x1="60.891" y1="20.736" x2="59.246" y2="13.824"/>
	<line style="fill:none;stroke:#000000;stroke-miterlimit:1;" x1="59.246" y1="13.824" x2="57.929" y2="6.254"/>
	<line style="fill:none;stroke:#000000;stroke-miterlimit:1;" x1="57.929" y1="6.254" x2="55.954" y2="1.316"/>
	<line style="fill:none;stroke:#000000;stroke-miterlimit:1;" x1="55.954" y1="1.316" x2="50.359" y2="0"/>
	<line style="fill:none;stroke:#000000;stroke-miterlimit:1;" x1="50.359" y1="0" x2="41.143" y2="0"/>
	<line style="fill:none;stroke:#000000;stroke-miterlimit:1;" x1="41.143" y1="0" x2="30.939" y2="0.329"/>
	<line style="fill:none;stroke:#000000;stroke-miterlimit:1;" x1="30.939" y1="0.329" x2="26.002" y2="1.646"/>
	<line style="fill:none;stroke:#000000;stroke-miterlimit:1;" x1="26.002" y1="1.646" x2="23.698" y2="2.304"/>
	<line style="fill:none;stroke:#000000;stroke-miterlimit:1;" x1="23.698" y1="2.304" x2="6.912" y2="4.608"/>
	<line style="fill:none;stroke:#000000;stroke-miterlimit:1;" x1="6.912" y1="4.608" x2="1.975" y2="6.912"/>
	<line style="fill:none;stroke:#000000;stroke-miterlimit:1;" x1="1.975" y1="6.912" x2="0.329" y2="9.216"/>
	<line style="fill:none;stroke:#000000;stroke-miterlimit:1;" x1="0.329" y1="9.216" x2="0" y2="13.824"/>
	<line style="fill:none;stroke:#000000;stroke-miterlimit:1;" x1="0" y1="13.824" x2="1.975" y2="10.533"/>
	<line style="fill:none;stroke:#000000;stroke-miterlimit:1;" x1="1.975" y1="10.533" x2="5.266" y2="8.887"/>
	<line style="fill:none;stroke:#000000;stroke-miterlimit:1;" x1="5.266" y1="8.887" x2="15.14" y2="8.887"/>
	<line style="fill:none;stroke:#000000;stroke-miterlimit:1;" x1="15.14" y1="8.887" x2="25.344" y2="9.216"/>
	<line style="fill:none;stroke:#000000;stroke-miterlimit:1;" x1="25.344" y1="9.216" x2="30.61" y2="10.533"/>
	<line style="fill:none;stroke:#000000;stroke-miterlimit:1;" x1="30.61" y1="10.533" x2="26.331" y2="5.266"/>
	<line style="fill:none;stroke:#000000;stroke-miterlimit:1;" x1="26.331" y1="5.266" x2="25.344" y2="1.646"/>
	<line style="fill:none;stroke:#000000;stroke-miterlimit:1;" x1="36.206" y1="8.558" x2="37.193" y2="8.229"/>
	<line style="fill:none;stroke:#000000;stroke-miterlimit:1;" x1="37.193" y1="8.229" x2="37.851" y2="6.583"/>
	<line style="fill:none;stroke:#000000;stroke-miterlimit:1;" x1="37.851" y1="6.583" x2="37.193" y2="4.937"/>
	<line style="fill:none;stroke:#000000;stroke-miterlimit:1;" x1="37.193" y1="4.937" x2="35.876" y2="3.95"/>
	<line style="fill:none;stroke:#000000;stroke-miterlimit:1;" x1="35.876" y1="3.95" x2="34.56" y2="4.937"/>
	<line style="fill:none;stroke:#000000;stroke-miterlimit:1;" x1="34.56" y1="4.937" x2="34.23" y2="6.912"/>
	<line style="fill:none;stroke:#000000;stroke-miterlimit:1;" x1="34.23" y1="6.912" x2="34.889" y2="7.899"/>
	<line style="fill:none;stroke:#000000;stroke-miterlimit:1;" x1="34.889" y1="7.899" x2="35.876" y2="8.558"/>
	<line style="fill:none;stroke:#000000;stroke-miterlimit:1;" x1="1.646" y1="11.849" x2="14.811" y2="11.52"/>
	<line style="fill:none;stroke:#000000;stroke-miterlimit:1;" x1="14.811" y1="11.52" x2="25.015" y2="12.836"/>
	<line style="fill:none;stroke:#000000;stroke-miterlimit:1;" x1="25.015" y1="12.836" x2="27.977" y2="14.482"/>
	<line style="fill:none;stroke:#000000;stroke-miterlimit:1;" x1="27.977" y1="14.482" x2="28.964" y2="17.773"/>
	<line style="fill:none;stroke:#000000;stroke-miterlimit:1;" x1="28.964" y1="17.773" x2="29.293" y2="21.394"/>
	<line style="fill:none;stroke:#000000;stroke-miterlimit:1;" x1="29.293" y1="21.394" x2="26.331" y2="28.635"/>
	<line style="fill:none;stroke:#000000;stroke-miterlimit:1;" x1="26.331" y1="28.635" x2="25.015" y2="37.522"/>
	<line style="fill:none;stroke:#000000;stroke-miterlimit:1;" x1="25.015" y1="37.522" x2="26.66" y2="48.384"/>
	<line style="fill:none;stroke:#000000;stroke-miterlimit:1;" x1="26.66" y1="48.384" x2="27.977" y2="53.321"/>
	<line style="fill:none;stroke:#000000;stroke-miterlimit:1;" x1="27.977" y1="53.321" x2="31.598" y2="63.195"/>
	<line style="fill:none;stroke:#000000;stroke-miterlimit:1;" x1="31.598" y1="63.195" x2="35.876" y2="71.095"/>
	<line style="fill:none;stroke:#000000;stroke-miterlimit:1;" x1="35.876" y1="71.095" x2="46.08" y2="88.539"/>
	<line style="fill:none;stroke:#000000;stroke-miterlimit:1;" x1="46.08" y1="88.539" x2="59.575" y2="114.213"/>
	<line style="fill:none;stroke:#000000;stroke-miterlimit:1;" x1="59.575" y1="114.213" x2="60.891" y2="124.087"/>
	<line style="fill:none;stroke:#000000;stroke-miterlimit:1;" x1="60.891" y1="124.087" x2="59.246" y2="140.873"/>
	<line style="fill:none;stroke:#000000;stroke-miterlimit:1;" x1="59.246" y1="140.873" x2="57.6" y2="142.519"/>
	<line style="fill:none;stroke:#000000;stroke-miterlimit:1;" x1="57.6" y1="142.519" x2="48.055" y2="143.506"/>
	<line style="fill:none;stroke:#000000;stroke-miterlimit:1;" x1="48.055" y1="143.506" x2="36.864" y2="143.177"/>
	<line style="fill:none;stroke:#000000;stroke-miterlimit:1;" x1="36.864" y1="143.177" x2="36.206" y2="144.823"/>
	<line style="fill:none;stroke:#000000;stroke-miterlimit:1;" x1="36.206" y1="144.823" x2="31.269" y2="145.481"/>
	<line style="fill:none;stroke:#000000;stroke-miterlimit:1;" x1="31.269" y1="145.481" x2="30.61" y2="146.469"/>
	<line style="fill:none;stroke:#000000;stroke-miterlimit:1;" x1="30.61" y1="146.469" x2="31.598" y2="147.785"/>
	<line style="fill:none;stroke:#000000;stroke-miterlimit:1;" x1="31.598" y1="147.785" x2="59.904" y2="146.798"/>
	<line style="fill:none;stroke:#000000;stroke-miterlimit:1;" x1="59.904" y1="146.798" x2="89.197" y2="148.114"/>
	<line style="fill:none;stroke:#000000;stroke-miterlimit:1;" x1="89.197" y1="148.114" x2="90.514" y2="146.798"/>
	<line style="fill:none;stroke:#000000;stroke-miterlimit:1;" x1="90.514" y1="146.798" x2="89.856" y2="145.152"/>
	<line style="fill:none;stroke:#000000;stroke-miterlimit:1;" x1="89.856" y1="145.152" x2="85.248" y2="145.152"/>
	<line style="fill:none;stroke:#000000;stroke-miterlimit:1;" x1="85.248" y1="145.152" x2="82.615" y2="142.848"/>
	<line style="fill:none;stroke:#000000;stroke-miterlimit:1;" x1="82.615" y1="142.848" x2="65.828" y2="142.519"/>
	<line style="fill:none;stroke:#000000;stroke-miterlimit:1;" x1="65.828" y1="142.519" x2="63.854" y2="141.202"/>
	<line style="fill:none;stroke:#000000;stroke-miterlimit:1;" x1="63.854" y1="141.202" x2="65.828" y2="120.466"/>
	<line style="fill:none;stroke:#000000;stroke-miterlimit:1;" x1="65.828" y1="120.466" x2="78.007" y2="126.72"/>
	<line style="fill:none;stroke:#000000;stroke-miterlimit:1;" x1="78.007" y1="126.72" x2="84.918" y2="106.313"/>
	<line style="fill:none;stroke:#000000;stroke-miterlimit:1;" x1="84.918" y1="106.313" x2="98.084" y2="139.228"/>
	<line style="fill:none;stroke:#000000;stroke-miterlimit:1;" x1="98.084" y1="139.228" x2="102.692" y2="145.152"/>
	<line style="fill:none;stroke:#000000;stroke-miterlimit:1;" x1="102.692" y1="145.152" x2="107.3" y2="147.785"/>
	<line style="fill:none;stroke:#000000;stroke-miterlimit:1;" x1="107.3" y1="147.785" x2="114.212" y2="147.785"/>
	<line style="fill:none;stroke:#000000;stroke-miterlimit:1;" x1="114.212" y1="147.785" x2="118.162" y2="146.469"/>
	<line style="fill:none;stroke:#000000;stroke-miterlimit:1;" x1="118.162" y1="146.469" x2="119.149" y2="144.494"/>
	<line style="fill:none;stroke:#000000;stroke-miterlimit:1;" x1="119.149" y1="144.494" x2="115.858" y2="135.606"/>
	<line style="fill:none;stroke:#000000;stroke-miterlimit:1;" x1="34.23" y1="68.791" x2="38.509" y2="92.818"/>
	<line style="fill:none;stroke:#000000;stroke-miterlimit:1;" x1="38.509" y1="92.818" x2="38.18" y2="111.25"/>
	<line style="fill:none;stroke:#000000;stroke-miterlimit:1;" x1="38.18" y1="111.25" x2="34.889" y2="130.012"/>
	<line style="fill:none;stroke:#000000;stroke-miterlimit:1;" x1="34.889" y1="130.012" x2="31.927" y2="139.557"/>
	<line style="fill:none;stroke:#000000;stroke-miterlimit:1;" x1="31.927" y1="139.557" x2="29.952" y2="141.86"/>
	<line style="fill:none;stroke:#000000;stroke-miterlimit:1;" x1="29.952" y1="141.86" x2="14.153" y2="142.848"/>
	<line style="fill:none;stroke:#000000;stroke-miterlimit:1;" x1="14.153" y1="142.848" x2="12.507" y2="145.152"/>
	<line style="fill:none;stroke:#000000;stroke-miterlimit:1;" x1="12.507" y1="145.152" x2="8.887" y2="145.481"/>
	<line style="fill:none;stroke:#000000;stroke-miterlimit:1;" x1="8.887" y1="145.481" x2="7.57" y2="146.469"/>
	<line style="fill:none;stroke:#000000;stroke-miterlimit:1;" x1="7.57" y1="146.469" x2="8.887" y2="147.785"/>
	<line style="fill:none;stroke:#000000;stroke-miterlimit:1;" x1="8.887" y1="147.785" x2="21.065" y2="146.798"/>
	<line style="fill:none;stroke:#000000;stroke-miterlimit:1;" x1="21.065" y1="146.798" x2="24.686" y2="147.127"/>
	<line style="fill:none;stroke:#000000;stroke-miterlimit:1;" x1="36.535" y1="143.177" x2="30.939" y2="143.835"/>
	<line style="fill:none;stroke:#000000;stroke-miterlimit:1;" x1="30.939" y1="143.835" x2="30.939" y2="143.835"/>
	<line style="fill:none;stroke:#000000;stroke-miterlimit:1;" x1="30.939" y1="143.835" x2="27.648" y2="144.494"/>
	<line style="fill:none;stroke:#000000;stroke-miterlimit:1;" x1="27.648" y1="144.494" x2="25.673" y2="147.127"/>
	<line style="fill:none;stroke:#000000;stroke-miterlimit:1;" x1="25.673" y1="147.127" x2="26.99" y2="147.785"/>
	<line style="fill:none;stroke:#000000;stroke-miterlimit:1;" x1="26.99" y1="147.785" x2="28.964" y2="145.811"/>
	<line style="fill:none;stroke:#000000;stroke-miterlimit:1;" x1="28.964" y1="145.811" x2="30.939" y2="145.481"/>
	<line style="fill:none;stroke:#000000;stroke-miterlimit:1;" x1="36.206" y1="142.848" x2="43.447" y2="115.858"/>
	<line style="fill:none;stroke:#000000;stroke-miterlimit:1;" x1="43.447" y1="115.858" x2="54.638" y2="122.441"/>
	<line style="fill:none;stroke:#000000;stroke-miterlimit:1;" x1="54.638" y1="122.441" x2="56.941" y2="110.263"/>
	<line style="fill:none;stroke:#000000;stroke-miterlimit:1;" x1="13.166" y1="143.177" x2="7.899" y2="143.835"/>
	<line style="fill:none;stroke:#000000;stroke-miterlimit:1;" x1="7.899" y1="143.835" x2="7.899" y2="143.835"/>
	<line style="fill:none;stroke:#000000;stroke-miterlimit:1;" x1="7.899" y1="143.835" x2="4.608" y2="144.494"/>
	<line style="fill:none;stroke:#000000;stroke-miterlimit:1;" x1="4.608" y1="144.494" x2="2.633" y2="147.127"/>
	<line style="fill:none;stroke:#000000;stroke-miterlimit:1;" x1="2.633" y1="147.127" x2="3.621" y2="147.785"/>
	<line style="fill:none;stroke:#000000;stroke-miterlimit:1;" x1="3.621" y1="147.785" x2="5.924" y2="145.811"/>
	<line style="fill:none;stroke:#000000;stroke-miterlimit:1;" x1="5.924" y1="145.811" x2="8.558" y2="145.481"/>
	<line style="fill:none;stroke:#000000;stroke-miterlimit:1;" x1="83.273" y1="142.848" x2="89.527" y2="143.506"/>
	<line style="fill:none;stroke:#000000;stroke-miterlimit:1;" x1="89.527" y1="143.506" x2="92.489" y2="144.494"/>
	<line style="fill:none;stroke:#000000;stroke-miterlimit:1;" x1="92.489" y1="144.494" x2="94.464" y2="147.127"/>
	<line style="fill:none;stroke:#000000;stroke-miterlimit:1;" x1="94.464" y1="147.127" x2="93.477" y2="147.785"/>
	<line style="fill:none;stroke:#000000;stroke-miterlimit:1;" x1="93.477" y1="147.785" x2="91.172" y2="145.811"/>
	<line style="fill:none;stroke:#000000;stroke-miterlimit:1;" x1="91.172" y1="145.811" x2="89.527" y2="145.481"/>
	<line style="fill:none;stroke:#000000;stroke-miterlimit:1;" x1="191.561" y1="148.114" x2="158.976" y2="99.072"/>
	<line style="fill:none;stroke:#000000;stroke-miterlimit:1;" x1="158.976" y1="99.072" x2="156.672" y2="92.16"/>
	<line style="fill:none;stroke:#000000;stroke-miterlimit:1;" x1="156.672" y1="92.16" x2="156.014" y2="86.235"/>
	<line style="fill:none;stroke:#000000;stroke-miterlimit:1;" x1="156.014" y1="86.235" x2="157.001" y2="80.64"/>
	<line style="fill:none;stroke:#000000;stroke-miterlimit:1;" x1="157.001" y1="80.64" x2="158.317" y2="78.007"/>
	<line style="fill:none;stroke:#000000;stroke-miterlimit:1;" x1="158.317" y1="78.007" x2="160.292" y2="75.045"/>
	<line style="fill:none;stroke:#000000;stroke-miterlimit:1;" x1="160.292" y1="75.045" x2="162.925" y2="72.741"/>
	<line style="fill:none;stroke:#000000;stroke-miterlimit:1;" x1="162.925" y1="72.741" x2="165.559" y2="71.095"/>
	<line style="fill:none;stroke:#000000;stroke-miterlimit:1;" x1="165.559" y1="71.095" x2="166.546" y2="70.437"/>
	<line style="fill:none;stroke:#000000;stroke-miterlimit:1;" x1="166.546" y1="70.437" x2="171.483" y2="69.778"/>
	<line style="fill:none;stroke:#000000;stroke-miterlimit:1;" x1="171.483" y1="69.778" x2="176.42" y2="67.803"/>
	<line style="fill:none;stroke:#000000;stroke-miterlimit:1;" x1="176.42" y1="67.803" x2="180.041" y2="64.512"/>
	<line style="fill:none;stroke:#000000;stroke-miterlimit:1;" x1="180.041" y1="64.512" x2="183.003" y2="61.221"/>
	<line style="fill:none;stroke:#000000;stroke-miterlimit:1;" x1="183.003" y1="61.221" x2="184.649" y2="58.258"/>
	<line style="fill:none;stroke:#000000;stroke-miterlimit:1;" x1="184.649" y1="58.258" x2="185.636" y2="52.333"/>
	<line style="fill:none;stroke:#000000;stroke-miterlimit:1;" x1="185.636" y1="52.333" x2="184.978" y2="47.067"/>
	<line style="fill:none;stroke:#000000;stroke-miterlimit:1;" x1="184.978" y1="47.067" x2="183.333" y2="44.105"/>
	<line style="fill:none;stroke:#000000;stroke-miterlimit:1;" x1="183.333" y1="44.105" x2="181.687" y2="41.472"/>
	<line style="fill:none;stroke:#000000;stroke-miterlimit:1;" x1="181.687" y1="41.472" x2="178.725" y2="38.51"/>
	<line style="fill:none;stroke:#000000;stroke-miterlimit:1;" x1="178.725" y1="38.51" x2="176.091" y2="37.193"/>
	<line style="fill:none;stroke:#000000;stroke-miterlimit:1;" x1="176.091" y1="37.193" x2="171.812" y2="35.218"/>
	<line style="fill:none;stroke:#000000;stroke-miterlimit:1;" x1="171.812" y1="35.218" x2="166.546" y2="33.902"/>
	<line style="fill:none;stroke:#000000;stroke-miterlimit:1;" x1="166.546" y1="33.902" x2="163.913" y2="32.256"/>
	<line style="fill:none;stroke:#000000;stroke-miterlimit:1;" x1="163.913" y1="32.256" x2="159.305" y2="28.635"/>
	<line style="fill:none;stroke:#000000;stroke-miterlimit:1;" x1="159.305" y1="28.635" x2="157.33" y2="25.344"/>
	<line style="fill:none;stroke:#000000;stroke-miterlimit:1;" x1="157.33" y1="25.344" x2="156.343" y2="22.382"/>
	<line style="fill:none;stroke:#000000;stroke-miterlimit:1;" x1="156.343" y1="22.382" x2="155.355" y2="16.457"/>
	<line style="fill:none;stroke:#000000;stroke-miterlimit:1;" x1="155.355" y1="16.457" x2="156.014" y2="11.191"/>
	<line style="fill:none;stroke:#000000;stroke-miterlimit:1;" x1="156.014" y1="11.191" x2="157.33" y2="8.558"/>
	<line style="fill:none;stroke:#000000;stroke-miterlimit:1;" x1="157.33" y1="8.558" x2="159.305" y2="5.595"/>
	<line style="fill:none;stroke:#000000;stroke-miterlimit:1;" x1="159.305" y1="5.595" x2="162.267" y2="2.962"/>
	<line style="fill:none;stroke:#000000;stroke-miterlimit:1;" x1="162.267" y1="2.962" x2="164.242" y2="1.316"/>
	<line style="fill:none;stroke:#000000;stroke-miterlimit:1;" x1="164.242" y1="1.316" x2="167.863" y2="0.329"/>
	<line style="fill:none;stroke:#000000;stroke-miterlimit:1;" x1="167.863" y1="0.329" x2="170.496" y2="0"/>
	<line style="fill:none;stroke:#000000;stroke-miterlimit:1;" x1="149.102" y1="148.114" x2="182.345" y2="97.097"/>
	<line style="fill:none;stroke:#000000;stroke-miterlimit:1;" x1="182.345" y1="97.097" x2="183.991" y2="93.147"/>
	<line style="fill:none;stroke:#000000;stroke-miterlimit:1;" x1="183.991" y1="93.147" x2="184.32" y2="86.235"/>
	<line style="fill:none;stroke:#000000;stroke-miterlimit:1;" x1="184.32" y1="86.235" x2="183.662" y2="80.64"/>
	<line style="fill:none;stroke:#000000;stroke-miterlimit:1;" x1="183.662" y1="80.64" x2="182.345" y2="78.007"/>
	<line style="fill:none;stroke:#000000;stroke-miterlimit:1;" x1="182.345" y1="78.007" x2="180.699" y2="75.703"/>
	<line style="fill:none;stroke:#000000;stroke-miterlimit:1;" x1="180.699" y1="75.703" x2="177.737" y2="72.741"/>
	<line style="fill:none;stroke:#000000;stroke-miterlimit:1;" x1="177.737" y1="72.741" x2="175.104" y2="71.095"/>
	<line style="fill:none;stroke:#000000;stroke-miterlimit:1;" x1="175.104" y1="71.095" x2="174.116" y2="70.437"/>
	<line style="fill:none;stroke:#000000;stroke-miterlimit:1;" x1="174.116" y1="70.437" x2="166.217" y2="68.791"/>
	<line style="fill:none;stroke:#000000;stroke-miterlimit:1;" x1="166.217" y1="68.791" x2="164.242" y2="67.803"/>
	<line style="fill:none;stroke:#000000;stroke-miterlimit:1;" x1="164.242" y1="67.803" x2="161.938" y2="66.487"/>
	<line style="fill:none;stroke:#000000;stroke-miterlimit:1;" x1="161.938" y1="66.487" x2="159.634" y2="64.183"/>
	<line style="fill:none;stroke:#000000;stroke-miterlimit:1;" x1="159.634" y1="64.183" x2="157.33" y2="60.892"/>
	<line style="fill:none;stroke:#000000;stroke-miterlimit:1;" x1="157.33" y1="60.892" x2="156.014" y2="57.929"/>
	<line style="fill:none;stroke:#000000;stroke-miterlimit:1;" x1="156.014" y1="57.929" x2="154.697" y2="52.004"/>
	<line style="fill:none;stroke:#000000;stroke-miterlimit:1;" x1="154.697" y1="52.004" x2="155.685" y2="46.409"/>
	<line style="fill:none;stroke:#000000;stroke-miterlimit:1;" x1="155.685" y1="46.409" x2="157.659" y2="43.776"/>
	<line style="fill:none;stroke:#000000;stroke-miterlimit:1;" x1="157.659" y1="43.776" x2="159.305" y2="41.143"/>
	<line style="fill:none;stroke:#000000;stroke-miterlimit:1;" x1="159.305" y1="41.143" x2="162.596" y2="38.181"/>
	<line style="fill:none;stroke:#000000;stroke-miterlimit:1;" x1="162.596" y1="38.181" x2="164.9" y2="36.864"/>
	<line style="fill:none;stroke:#000000;stroke-miterlimit:1;" x1="164.9" y1="36.864" x2="168.85" y2="35.218"/>
	<line style="fill:none;stroke:#000000;stroke-miterlimit:1;" x1="168.85" y1="35.218" x2="173.787" y2="33.572"/>
	<line style="fill:none;stroke:#000000;stroke-miterlimit:1;" x1="173.787" y1="33.572" x2="176.75" y2="31.598"/>
	<line style="fill:none;stroke:#000000;stroke-miterlimit:1;" x1="176.75" y1="31.598" x2="180.37" y2="28.964"/>
	<line style="fill:none;stroke:#000000;stroke-miterlimit:1;" x1="180.37" y1="28.964" x2="183.333" y2="25.015"/>
	<line style="fill:none;stroke:#000000;stroke-miterlimit:1;" x1="183.333" y1="25.015" x2="183.991" y2="22.053"/>
	<line style="fill:none;stroke:#000000;stroke-miterlimit:1;" x1="183.991" y1="22.053" x2="185.307" y2="16.128"/>
	<line style="fill:none;stroke:#000000;stroke-miterlimit:1;" x1="185.307" y1="16.128" x2="184.32" y2="10.862"/>
	<line style="fill:none;stroke:#000000;stroke-miterlimit:1;" x1="184.32" y1="10.862" x2="183.003" y2="8.229"/>
	<line style="fill:none;stroke:#000000;stroke-miterlimit:1;" x1="183.003" y1="8.229" x2="181.028" y2="5.266"/>
	<line style="fill:none;stroke:#000000;stroke-miterlimit:1;" x1="181.028" y1="5.266" x2="178.066" y2="2.633"/>
	<line style="fill:none;stroke:#000000;stroke-miterlimit:1;" x1="178.066" y1="2.633" x2="174.775" y2="0.658"/>
	<line style="fill:none;stroke:#000000;stroke-miterlimit:1;" x1="174.775" y1="0.658" x2="170.496" y2="0"/>
	<line style="fill:none;stroke:#000000;stroke-miterlimit:1;" x1="291.746" y1="43.227" x2="206.904" y2="43.227"/>
	<line style="fill:none;stroke:#000000;stroke-miterlimit:1;" x1="206.904" y1="43.227" x2="207.983" y2="36.036"/>
	<line style="fill:none;stroke:#000000;stroke-miterlimit:1;" x1="207.983" y1="36.036" x2="209.062" y2="31.363"/>
	<line style="fill:none;stroke:#000000;stroke-miterlimit:1;" x1="209.062" y1="31.363" x2="210.859" y2="26.689"/>
	<line style="fill:none;stroke:#000000;stroke-miterlimit:1;" x1="210.859" y1="26.689" x2="213.375" y2="23.094"/>
	<line style="fill:none;stroke:#000000;stroke-miterlimit:1;" x1="213.375" y1="23.094" x2="215.532" y2="19.859"/>
	<line style="fill:none;stroke:#000000;stroke-miterlimit:1;" x1="215.532" y1="19.859" x2="218.408" y2="15.904"/>
	<line style="fill:none;stroke:#000000;stroke-miterlimit:1;" x1="218.408" y1="15.904" x2="221.644" y2="13.028"/>
	<line style="fill:none;stroke:#000000;stroke-miterlimit:1;" x1="221.644" y1="13.028" x2="225.599" y2="10.152"/>
	<line style="fill:none;stroke:#000000;stroke-miterlimit:1;" x1="225.599" y1="10.152" x2="228.834" y2="7.995"/>
	<line style="fill:none;stroke:#000000;stroke-miterlimit:1;" x1="228.834" y1="7.995" x2="233.507" y2="5.838"/>
	<line style="fill:none;stroke:#000000;stroke-miterlimit:1;" x1="233.507" y1="5.838" x2="238.181" y2="4.4"/>
	<line style="fill:none;stroke:#000000;stroke-miterlimit:1;" x1="238.181" y1="4.4" x2="241.417" y2="3.681"/>
	<line style="fill:none;stroke:#000000;stroke-miterlimit:1;" x1="241.417" y1="3.681" x2="247.169" y2="2.962"/>
	<line style="fill:none;stroke:#000000;stroke-miterlimit:1;" x1="247.169" y1="2.962" x2="251.482" y2="2.962"/>
	<line style="fill:none;stroke:#000000;stroke-miterlimit:1;" x1="251.482" y1="2.962" x2="255.438" y2="3.681"/>
	<line style="fill:none;stroke:#000000;stroke-miterlimit:1;" x1="255.438" y1="3.681" x2="259.751" y2="4.4"/>
	<line style="fill:none;stroke:#000000;stroke-miterlimit:1;" x1="259.751" y1="4.4" x2="264.425" y2="5.479"/>
	<line style="fill:none;stroke:#000000;stroke-miterlimit:1;" x1="264.425" y1="5.479" x2="267.66" y2="6.557"/>
	<line style="fill:none;stroke:#000000;stroke-miterlimit:1;" x1="267.66" y1="6.557" x2="271.974" y2="9.433"/>
	<line style="fill:none;stroke:#000000;stroke-miterlimit:1;" x1="271.974" y1="9.433" x2="275.569" y2="11.95"/>
	<line style="fill:none;stroke:#000000;stroke-miterlimit:1;" x1="275.569" y1="11.95" x2="278.805" y2="14.466"/>
	<line style="fill:none;stroke:#000000;stroke-miterlimit:1;" x1="278.805" y1="14.466" x2="281.681" y2="18.062"/>
	<line style="fill:none;stroke:#000000;stroke-miterlimit:1;" x1="281.681" y1="18.062" x2="284.557" y2="22.016"/>
	<line style="fill:none;stroke:#000000;stroke-miterlimit:1;" x1="284.557" y1="22.016" x2="287.073" y2="25.97"/>
	<line style="fill:none;stroke:#000000;stroke-miterlimit:1;" x1="287.073" y1="25.97" x2="288.871" y2="29.565"/>
	<line style="fill:none;stroke:#000000;stroke-miterlimit:1;" x1="288.871" y1="29.565" x2="290.309" y2="34.958"/>
	<line style="fill:none;stroke:#000000;stroke-miterlimit:1;" x1="290.309" y1="34.958" x2="291.387" y2="38.912"/>
	<line style="fill:none;stroke:#000000;stroke-miterlimit:1;" x1="291.387" y1="38.912" x2="291.746" y2="43.227"/>
	<line style="fill:none;stroke:#000000;stroke-miterlimit:1;" x1="242.136" y1="82.252" x2="242.136" y2="146.962"/>
	<line style="fill:none;stroke:#000000;stroke-miterlimit:1;" x1="242.136" y1="146.962" x2="256.516" y2="146.962"/>
	<line style="fill:none;stroke:#000000;stroke-miterlimit:1;" x1="256.516" y1="146.962" x2="256.516" y2="82.252"/>
	<line style="fill:none;stroke:#000000;stroke-miterlimit:1;" x1="256.516" y1="82.252" x2="242.136" y2="82.252"/>
	<line style="fill:none;stroke:#000000;stroke-miterlimit:1;" x1="484.992" y1="108.946" x2="310.875" y2="108.946"/>
	<line style="fill:none;stroke:#000000;stroke-miterlimit:1;" x1="310.875" y1="108.946" x2="310.875" y2="118.491"/>
	<line style="fill:none;stroke:#000000;stroke-miterlimit:1;" x1="310.875" y1="118.491" x2="484.992" y2="118.491"/>
	<line style="fill:none;stroke:#000000;stroke-miterlimit:1;" x1="484.992" y1="118.491" x2="484.992" y2="108.946"/>
	<line style="fill:none;stroke:#000000;stroke-miterlimit:1;" x1="331.611" y1="45.751" x2="330.295" y2="48.713"/>
	<line style="fill:none;stroke:#000000;stroke-miterlimit:1;" x1="330.295" y1="48.713" x2="329.966" y2="51.346"/>
	<line style="fill:none;stroke:#000000;stroke-miterlimit:1;" x1="329.966" y1="51.346" x2="331.611" y2="55.954"/>
	<line style="fill:none;stroke:#000000;stroke-miterlimit:1;" x1="331.611" y1="55.954" x2="333.915" y2="57.929"/>
	<line style="fill:none;stroke:#000000;stroke-miterlimit:1;" x1="333.915" y1="57.929" x2="335.89" y2="59.246"/>
	<line style="fill:none;stroke:#000000;stroke-miterlimit:1;" x1="335.89" y1="59.246" x2="339.182" y2="59.904"/>
	<line style="fill:none;stroke:#000000;stroke-miterlimit:1;" x1="339.182" y1="59.904" x2="342.144" y2="59.575"/>
	<line style="fill:none;stroke:#000000;stroke-miterlimit:1;" x1="342.144" y1="59.575" x2="344.777" y2="59.246"/>
	<line style="fill:none;stroke:#000000;stroke-miterlimit:1;" x1="344.777" y1="59.246" x2="348.397" y2="56.942"/>
	<line style="fill:none;stroke:#000000;stroke-miterlimit:1;" x1="348.397" y1="56.942" x2="350.701" y2="54.638"/>
	<line style="fill:none;stroke:#000000;stroke-miterlimit:1;" x1="350.701" y1="54.638" x2="351.689" y2="52.004"/>
	<line style="fill:none;stroke:#000000;stroke-miterlimit:1;" x1="351.689" y1="52.004" x2="353.006" y2="47.067"/>
	<line style="fill:none;stroke:#000000;stroke-miterlimit:1;" x1="353.006" y1="47.067" x2="353.006" y2="43.776"/>
	<line style="fill:none;stroke:#000000;stroke-miterlimit:1;" x1="353.006" y1="43.776" x2="352.677" y2="40.484"/>
	<line style="fill:none;stroke:#000000;stroke-miterlimit:1;" x1="352.677" y1="40.484" x2="350.701" y2="36.206"/>
	<line style="fill:none;stroke:#000000;stroke-miterlimit:1;" x1="350.701" y1="36.206" x2="347.739" y2="32.914"/>
	<line style="fill:none;stroke:#000000;stroke-miterlimit:1;" x1="347.739" y1="32.914" x2="344.777" y2="30.939"/>
	<line style="fill:none;stroke:#000000;stroke-miterlimit:1;" x1="344.777" y1="30.939" x2="338.853" y2="29.623"/>
	<line style="fill:none;stroke:#000000;stroke-miterlimit:1;" x1="338.853" y1="29.623" x2="335.231" y2="29.623"/>
	<line style="fill:none;stroke:#000000;stroke-miterlimit:1;" x1="335.231" y1="29.623" x2="331.282" y2="30.61"/>
	<line style="fill:none;stroke:#000000;stroke-miterlimit:1;" x1="331.282" y1="30.61" x2="327.661" y2="31.927"/>
	<line style="fill:none;stroke:#000000;stroke-miterlimit:1;" x1="327.661" y1="31.927" x2="324.37" y2="33.902"/>
	<line style="fill:none;stroke:#000000;stroke-miterlimit:1;" x1="324.37" y1="33.902" x2="322.066" y2="35.876"/>
	<line style="fill:none;stroke:#000000;stroke-miterlimit:1;" x1="322.066" y1="35.876" x2="319.762" y2="39.168"/>
	<line style="fill:none;stroke:#000000;stroke-miterlimit:1;" x1="319.762" y1="39.168" x2="318.445" y2="42.459"/>
	<line style="fill:none;stroke:#000000;stroke-miterlimit:1;" x1="318.445" y1="42.459" x2="316.8" y2="48.384"/>
	<line style="fill:none;stroke:#000000;stroke-miterlimit:1;" x1="316.8" y1="48.384" x2="317.129" y2="53.65"/>
	<line style="fill:none;stroke:#000000;stroke-miterlimit:1;" x1="317.129" y1="53.65" x2="318.116" y2="58.587"/>
	<line style="fill:none;stroke:#000000;stroke-miterlimit:1;" x1="318.116" y1="58.587" x2="320.091" y2="63.195"/>
	<line style="fill:none;stroke:#000000;stroke-miterlimit:1;" x1="320.091" y1="63.195" x2="327.99" y2="73.399"/>
	<line style="fill:none;stroke:#000000;stroke-miterlimit:1;" x1="327.99" y1="73.399" x2="340.827" y2="87.552"/>
	<line style="fill:none;stroke:#000000;stroke-miterlimit:1;" x1="340.827" y1="87.552" x2="353.993" y2="102.363"/>
	<line style="fill:none;stroke:#000000;stroke-miterlimit:1;" x1="353.993" y1="102.363" x2="358.601" y2="108.946"/>
	<line style="fill:none;stroke:#000000;stroke-miterlimit:1;" x1="446.153" y1="45.751" x2="444.507" y2="48.713"/>
	<line style="fill:none;stroke:#000000;stroke-miterlimit:1;" x1="444.507" y1="48.713" x2="444.507" y2="51.346"/>
	<line style="fill:none;stroke:#000000;stroke-miterlimit:1;" x1="444.507" y1="51.346" x2="445.824" y2="55.954"/>
	<line style="fill:none;stroke:#000000;stroke-miterlimit:1;" x1="445.824" y1="55.954" x2="448.128" y2="57.929"/>
	<line style="fill:none;stroke:#000000;stroke-miterlimit:1;" x1="448.128" y1="57.929" x2="450.103" y2="59.246"/>
	<line style="fill:none;stroke:#000000;stroke-miterlimit:1;" x1="450.103" y1="59.246" x2="453.724" y2="59.904"/>
	<line style="fill:none;stroke:#000000;stroke-miterlimit:1;" x1="453.724" y1="59.904" x2="456.686" y2="59.575"/>
	<line style="fill:none;stroke:#000000;stroke-miterlimit:1;" x1="456.686" y1="59.575" x2="458.989" y2="59.246"/>
	<line style="fill:none;stroke:#000000;stroke-miterlimit:1;" x1="458.989" y1="59.246" x2="462.939" y2="56.942"/>
	<line style="fill:none;stroke:#000000;stroke-miterlimit:1;" x1="462.939" y1="56.942" x2="464.914" y2="54.638"/>
	<line style="fill:none;stroke:#000000;stroke-miterlimit:1;" x1="464.914" y1="54.638" x2="466.23" y2="52.004"/>
	<line style="fill:none;stroke:#000000;stroke-miterlimit:1;" x1="466.23" y1="52.004" x2="467.218" y2="47.067"/>
	<line style="fill:none;stroke:#000000;stroke-miterlimit:1;" x1="467.218" y1="47.067" x2="467.547" y2="43.776"/>
	<line style="fill:none;stroke:#000000;stroke-miterlimit:1;" x1="467.547" y1="43.776" x2="467.218" y2="40.484"/>
	<line style="fill:none;stroke:#000000;stroke-miterlimit:1;" x1="467.218" y1="40.484" x2="465.243" y2="36.206"/>
	<line style="fill:none;stroke:#000000;stroke-miterlimit:1;" x1="465.243" y1="36.206" x2="462.281" y2="32.914"/>
	<line style="fill:none;stroke:#000000;stroke-miterlimit:1;" x1="462.281" y1="32.914" x2="459.318" y2="30.939"/>
	<line style="fill:none;stroke:#000000;stroke-miterlimit:1;" x1="459.318" y1="30.939" x2="453.395" y2="29.623"/>
	<line style="fill:none;stroke:#000000;stroke-miterlimit:1;" x1="453.395" y1="29.623" x2="449.444" y2="29.623"/>
	<line style="fill:none;stroke:#000000;stroke-miterlimit:1;" x1="449.444" y1="29.623" x2="445.824" y2="30.61"/>
	<line style="fill:none;stroke:#000000;stroke-miterlimit:1;" x1="445.824" y1="30.61" x2="442.203" y2="31.927"/>
	<line style="fill:none;stroke:#000000;stroke-miterlimit:1;" x1="442.203" y1="31.927" x2="438.912" y2="33.902"/>
	<line style="fill:none;stroke:#000000;stroke-miterlimit:1;" x1="438.912" y1="33.902" x2="436.607" y2="35.876"/>
	<line style="fill:none;stroke:#000000;stroke-miterlimit:1;" x1="436.607" y1="35.876" x2="433.975" y2="39.168"/>
	<line style="fill:none;stroke:#000000;stroke-miterlimit:1;" x1="433.975" y1="39.168" x2="432.658" y2="42.459"/>
	<line style="fill:none;stroke:#000000;stroke-miterlimit:1;" x1="432.658" y1="42.459" x2="431.671" y2="45.751"/>
	<line style="fill:none;stroke:#000000;stroke-miterlimit:1;" x1="431.671" y1="45.751" x2="431.342" y2="53.65"/>
	<line style="fill:none;stroke:#000000;stroke-miterlimit:1;" x1="431.342" y1="53.65" x2="432.658" y2="58.587"/>
	<line style="fill:none;stroke:#000000;stroke-miterlimit:1;" x1="432.658" y1="58.587" x2="434.633" y2="63.195"/>
	<line style="fill:none;stroke:#000000;stroke-miterlimit:1;" x1="434.633" y1="63.195" x2="442.532" y2="73.399"/>
	<line style="fill:none;stroke:#000000;stroke-miterlimit:1;" x1="442.532" y1="73.399" x2="455.369" y2="87.552"/>
	<line style="fill:none;stroke:#000000;stroke-miterlimit:1;" x1="455.369" y1="87.552" x2="468.535" y2="102.363"/>
	<line style="fill:none;stroke:#000000;stroke-miterlimit:1;" x1="468.535" y1="102.363" x2="473.143" y2="108.946"/>
	<line style="fill:none;stroke:#000000;stroke-miterlimit:1;" x1="388.882" y1="45.751" x2="387.565" y2="48.713"/>
	<line style="fill:none;stroke:#000000;stroke-miterlimit:1;" x1="387.565" y1="48.713" x2="387.236" y2="51.346"/>
	<line style="fill:none;stroke:#000000;stroke-miterlimit:1;" x1="387.236" y1="51.346" x2="388.882" y2="55.954"/>
	<line style="fill:none;stroke:#000000;stroke-miterlimit:1;" x1="388.882" y1="55.954" x2="391.187" y2="57.929"/>
	<line style="fill:none;stroke:#000000;stroke-miterlimit:1;" x1="391.187" y1="57.929" x2="393.161" y2="59.246"/>
	<line style="fill:none;stroke:#000000;stroke-miterlimit:1;" x1="393.161" y1="59.246" x2="396.452" y2="59.904"/>
	<line style="fill:none;stroke:#000000;stroke-miterlimit:1;" x1="396.452" y1="59.904" x2="399.415" y2="59.575"/>
	<line style="fill:none;stroke:#000000;stroke-miterlimit:1;" x1="399.415" y1="59.575" x2="402.048" y2="59.246"/>
	<line style="fill:none;stroke:#000000;stroke-miterlimit:1;" x1="402.048" y1="59.246" x2="405.668" y2="56.942"/>
	<line style="fill:none;stroke:#000000;stroke-miterlimit:1;" x1="405.668" y1="56.942" x2="407.644" y2="54.638"/>
	<line style="fill:none;stroke:#000000;stroke-miterlimit:1;" x1="407.644" y1="54.638" x2="408.96" y2="52.004"/>
	<line style="fill:none;stroke:#000000;stroke-miterlimit:1;" x1="408.96" y1="52.004" x2="410.276" y2="47.067"/>
	<line style="fill:none;stroke:#000000;stroke-miterlimit:1;" x1="410.276" y1="47.067" x2="410.276" y2="43.776"/>
	<line style="fill:none;stroke:#000000;stroke-miterlimit:1;" x1="410.276" y1="43.776" x2="409.947" y2="40.484"/>
	<line style="fill:none;stroke:#000000;stroke-miterlimit:1;" x1="409.947" y1="40.484" x2="407.973" y2="36.206"/>
	<line style="fill:none;stroke:#000000;stroke-miterlimit:1;" x1="407.973" y1="36.206" x2="405.01" y2="32.914"/>
	<line style="fill:none;stroke:#000000;stroke-miterlimit:1;" x1="405.01" y1="32.914" x2="402.048" y2="30.939"/>
	<line style="fill:none;stroke:#000000;stroke-miterlimit:1;" x1="402.048" y1="30.939" x2="396.123" y2="29.623"/>
	<line style="fill:none;stroke:#000000;stroke-miterlimit:1;" x1="396.123" y1="29.623" x2="392.503" y2="29.623"/>
	<line style="fill:none;stroke:#000000;stroke-miterlimit:1;" x1="392.503" y1="29.623" x2="388.553" y2="30.61"/>
	<line style="fill:none;stroke:#000000;stroke-miterlimit:1;" x1="388.553" y1="30.61" x2="384.933" y2="31.927"/>
	<line style="fill:none;stroke:#000000;stroke-miterlimit:1;" x1="384.933" y1="31.927" x2="381.312" y2="33.902"/>
	<line style="fill:none;stroke:#000000;stroke-miterlimit:1;" x1="381.312" y1="33.902" x2="379.337" y2="35.876"/>
	<line style="fill:none;stroke:#000000;stroke-miterlimit:1;" x1="379.337" y1="35.876" x2="377.033" y2="39.168"/>
	<line style="fill:none;stroke:#000000;stroke-miterlimit:1;" x1="377.033" y1="39.168" x2="375.717" y2="42.459"/>
	<line style="fill:none;stroke:#000000;stroke-miterlimit:1;" x1="375.717" y1="42.459" x2="374.399" y2="45.751"/>
	<line style="fill:none;stroke:#000000;stroke-miterlimit:1;" x1="374.399" y1="45.751" x2="374.399" y2="53.65"/>
	<line style="fill:none;stroke:#000000;stroke-miterlimit:1;" x1="374.399" y1="53.65" x2="375.387" y2="58.587"/>
	<line style="fill:none;stroke:#000000;stroke-miterlimit:1;" x1="375.387" y1="58.587" x2="377.362" y2="63.195"/>
	<line style="fill:none;stroke:#000000;stroke-miterlimit:1;" x1="377.362" y1="63.195" x2="385.262" y2="73.399"/>
	<line style="fill:none;stroke:#000000;stroke-miterlimit:1;" x1="385.262" y1="73.399" x2="398.098" y2="87.552"/>
	<line style="fill:none;stroke:#000000;stroke-miterlimit:1;" x1="398.098" y1="87.552" x2="411.264" y2="102.363"/>
	<line style="fill:none;stroke:#000000;stroke-miterlimit:1;" x1="411.264" y1="102.363" x2="415.872" y2="108.946"/>
</g>
</svg>
