<?xml version="1.0" encoding="iso-8859-1"?>
<!-- Generator: Adobe Illustrator 16.0.1, SVG Export Plug-In . SVG Version: 6.00 Build 0)  -->
<!DOCTYPE svg PUBLIC "-//W3C//DTD SVG 1.1//EN" "http://www.w3.org/Graphics/SVG/1.1/DTD/svg11.dtd">
<svg version="1.1" id="Ebene_1" xmlns="http://www.w3.org/2000/svg" xmlns:xlink="http://www.w3.org/1999/xlink" x="0px" y="0px"
	 width="479.895px" height="151.405px" viewBox="0 0 479.895 151.405" style="enable-background:new 0 0 479.895 151.405;"
	 xml:space="preserve">
<g>
	<line style="fill:none;stroke:#000000;stroke-miterlimit:1;" x1="71.753" y1="39.497" x2="64.512" y2="38.839"/>
	<line style="fill:none;stroke:#000000;stroke-miterlimit:1;" x1="64.512" y1="38.839" x2="52.992" y2="39.497"/>
	<line style="fill:none;stroke:#000000;stroke-miterlimit:1;" x1="52.992" y1="39.497" x2="44.434" y2="38.51"/>
	<line style="fill:none;stroke:#000000;stroke-miterlimit:1;" x1="44.434" y1="38.51" x2="41.801" y2="39.497"/>
	<line style="fill:none;stroke:#000000;stroke-miterlimit:1;" x1="41.801" y1="39.497" x2="39.826" y2="42.13"/>
	<line style="fill:none;stroke:#000000;stroke-miterlimit:1;" x1="39.826" y1="42.13" x2="40.484" y2="46.738"/>
	<line style="fill:none;stroke:#000000;stroke-miterlimit:1;" x1="40.484" y1="46.738" x2="43.776" y2="57.271"/>
	<line style="fill:none;stroke:#000000;stroke-miterlimit:1;" x1="43.776" y1="57.271" x2="50.029" y2="67.474"/>
	<line style="fill:none;stroke:#000000;stroke-miterlimit:1;" x1="50.029" y1="67.474" x2="70.437" y2="91.831"/>
	<line style="fill:none;stroke:#000000;stroke-miterlimit:1;" x1="70.437" y1="91.831" x2="80.969" y2="101.705"/>
	<line style="fill:none;stroke:#000000;stroke-miterlimit:1;" x1="80.969" y1="101.705" x2="96.109" y2="115.858"/>
	<line style="fill:none;stroke:#000000;stroke-miterlimit:1;" x1="96.109" y1="115.858" x2="128.365" y2="147.456"/>
	<line style="fill:none;stroke:#000000;stroke-miterlimit:1;" x1="128.365" y1="147.456" x2="131.657" y2="147.456"/>
	<line style="fill:none;stroke:#000000;stroke-miterlimit:1;" x1="131.657" y1="147.456" x2="132.645" y2="145.811"/>
	<line style="fill:none;stroke:#000000;stroke-miterlimit:1;" x1="132.645" y1="145.811" x2="131.328" y2="142.848"/>
	<line style="fill:none;stroke:#000000;stroke-miterlimit:1;" x1="131.328" y1="142.848" x2="117.504" y2="111.25"/>
	<line style="fill:none;stroke:#000000;stroke-miterlimit:1;" x1="117.504" y1="111.25" x2="115.529" y2="105.326"/>
	<line style="fill:none;stroke:#000000;stroke-miterlimit:1;" x1="115.529" y1="105.326" x2="104.996" y2="79.981"/>
	<line style="fill:none;stroke:#000000;stroke-miterlimit:1;" x1="104.996" y1="79.981" x2="95.451" y2="63.524"/>
	<line style="fill:none;stroke:#000000;stroke-miterlimit:1;" x1="95.451" y1="63.524" x2="87.881" y2="52.992"/>
	<line style="fill:none;stroke:#000000;stroke-miterlimit:1;" x1="87.881" y1="52.992" x2="82.286" y2="45.422"/>
	<line style="fill:none;stroke:#000000;stroke-miterlimit:1;" x1="82.286" y1="45.422" x2="77.677" y2="38.181"/>
	<line style="fill:none;stroke:#000000;stroke-miterlimit:1;" x1="77.677" y1="38.181" x2="72.74" y2="31.598"/>
	<line style="fill:none;stroke:#000000;stroke-miterlimit:1;" x1="72.74" y1="31.598" x2="66.816" y2="24.686"/>
	<line style="fill:none;stroke:#000000;stroke-miterlimit:1;" x1="66.816" y1="24.686" x2="60.891" y2="20.736"/>
	<line style="fill:none;stroke:#000000;stroke-miterlimit:1;" x1="60.891" y1="20.736" x2="59.246" y2="13.824"/>
	<line style="fill:none;stroke:#000000;stroke-miterlimit:1;" x1="59.246" y1="13.824" x2="57.929" y2="6.254"/>
	<line style="fill:none;stroke:#000000;stroke-miterlimit:1;" x1="57.929" y1="6.254" x2="55.954" y2="1.316"/>
	<line style="fill:none;stroke:#000000;stroke-miterlimit:1;" x1="55.954" y1="1.316" x2="50.358" y2="0"/>
	<line style="fill:none;stroke:#000000;stroke-miterlimit:1;" x1="50.358" y1="0" x2="41.143" y2="0"/>
	<line style="fill:none;stroke:#000000;stroke-miterlimit:1;" x1="41.143" y1="0" x2="30.939" y2="0.329"/>
	<line style="fill:none;stroke:#000000;stroke-miterlimit:1;" x1="30.939" y1="0.329" x2="26.002" y2="1.646"/>
	<line style="fill:none;stroke:#000000;stroke-miterlimit:1;" x1="26.002" y1="1.646" x2="23.698" y2="2.304"/>
	<line style="fill:none;stroke:#000000;stroke-miterlimit:1;" x1="23.698" y1="2.304" x2="6.912" y2="4.608"/>
	<line style="fill:none;stroke:#000000;stroke-miterlimit:1;" x1="6.912" y1="4.608" x2="1.975" y2="6.912"/>
	<line style="fill:none;stroke:#000000;stroke-miterlimit:1;" x1="1.975" y1="6.912" x2="0.329" y2="9.216"/>
	<line style="fill:none;stroke:#000000;stroke-miterlimit:1;" x1="0.329" y1="9.216" x2="0" y2="13.824"/>
	<line style="fill:none;stroke:#000000;stroke-miterlimit:1;" x1="0" y1="13.824" x2="1.975" y2="10.533"/>
	<line style="fill:none;stroke:#000000;stroke-miterlimit:1;" x1="1.975" y1="10.533" x2="5.266" y2="8.887"/>
	<line style="fill:none;stroke:#000000;stroke-miterlimit:1;" x1="5.266" y1="8.887" x2="15.14" y2="8.887"/>
	<line style="fill:none;stroke:#000000;stroke-miterlimit:1;" x1="15.14" y1="8.887" x2="25.344" y2="9.216"/>
	<line style="fill:none;stroke:#000000;stroke-miterlimit:1;" x1="25.344" y1="9.216" x2="30.61" y2="10.533"/>
	<line style="fill:none;stroke:#000000;stroke-miterlimit:1;" x1="30.61" y1="10.533" x2="26.331" y2="5.266"/>
	<line style="fill:none;stroke:#000000;stroke-miterlimit:1;" x1="26.331" y1="5.266" x2="25.344" y2="1.646"/>
	<line style="fill:none;stroke:#000000;stroke-miterlimit:1;" x1="36.206" y1="8.558" x2="37.193" y2="8.229"/>
	<line style="fill:none;stroke:#000000;stroke-miterlimit:1;" x1="37.193" y1="8.229" x2="37.851" y2="6.583"/>
	<line style="fill:none;stroke:#000000;stroke-miterlimit:1;" x1="37.851" y1="6.583" x2="37.193" y2="4.937"/>
	<line style="fill:none;stroke:#000000;stroke-miterlimit:1;" x1="37.193" y1="4.937" x2="35.876" y2="3.95"/>
	<line style="fill:none;stroke:#000000;stroke-miterlimit:1;" x1="35.876" y1="3.95" x2="34.56" y2="4.937"/>
	<line style="fill:none;stroke:#000000;stroke-miterlimit:1;" x1="34.56" y1="4.937" x2="34.23" y2="6.912"/>
	<line style="fill:none;stroke:#000000;stroke-miterlimit:1;" x1="34.23" y1="6.912" x2="34.889" y2="7.899"/>
	<line style="fill:none;stroke:#000000;stroke-miterlimit:1;" x1="34.889" y1="7.899" x2="35.876" y2="8.558"/>
	<line style="fill:none;stroke:#000000;stroke-miterlimit:1;" x1="1.646" y1="11.849" x2="14.811" y2="11.52"/>
	<line style="fill:none;stroke:#000000;stroke-miterlimit:1;" x1="14.811" y1="11.52" x2="25.015" y2="12.836"/>
	<line style="fill:none;stroke:#000000;stroke-miterlimit:1;" x1="25.015" y1="12.836" x2="27.977" y2="14.482"/>
	<line style="fill:none;stroke:#000000;stroke-miterlimit:1;" x1="27.977" y1="14.482" x2="28.964" y2="17.773"/>
	<line style="fill:none;stroke:#000000;stroke-miterlimit:1;" x1="28.964" y1="17.773" x2="29.293" y2="21.394"/>
	<line style="fill:none;stroke:#000000;stroke-miterlimit:1;" x1="29.293" y1="21.394" x2="26.331" y2="28.635"/>
	<line style="fill:none;stroke:#000000;stroke-miterlimit:1;" x1="26.331" y1="28.635" x2="25.015" y2="37.522"/>
	<line style="fill:none;stroke:#000000;stroke-miterlimit:1;" x1="25.015" y1="37.522" x2="26.66" y2="48.384"/>
	<line style="fill:none;stroke:#000000;stroke-miterlimit:1;" x1="26.66" y1="48.384" x2="27.977" y2="53.321"/>
	<line style="fill:none;stroke:#000000;stroke-miterlimit:1;" x1="27.977" y1="53.321" x2="31.598" y2="63.195"/>
	<line style="fill:none;stroke:#000000;stroke-miterlimit:1;" x1="31.598" y1="63.195" x2="35.876" y2="71.095"/>
	<line style="fill:none;stroke:#000000;stroke-miterlimit:1;" x1="35.876" y1="71.095" x2="46.08" y2="88.539"/>
	<line style="fill:none;stroke:#000000;stroke-miterlimit:1;" x1="46.08" y1="88.539" x2="59.575" y2="114.213"/>
	<line style="fill:none;stroke:#000000;stroke-miterlimit:1;" x1="59.575" y1="114.213" x2="60.891" y2="124.087"/>
	<line style="fill:none;stroke:#000000;stroke-miterlimit:1;" x1="60.891" y1="124.087" x2="59.246" y2="140.873"/>
	<line style="fill:none;stroke:#000000;stroke-miterlimit:1;" x1="59.246" y1="140.873" x2="57.6" y2="142.519"/>
	<line style="fill:none;stroke:#000000;stroke-miterlimit:1;" x1="57.6" y1="142.519" x2="48.055" y2="143.506"/>
	<line style="fill:none;stroke:#000000;stroke-miterlimit:1;" x1="48.055" y1="143.506" x2="36.864" y2="143.177"/>
	<line style="fill:none;stroke:#000000;stroke-miterlimit:1;" x1="36.864" y1="143.177" x2="36.206" y2="144.823"/>
	<line style="fill:none;stroke:#000000;stroke-miterlimit:1;" x1="36.206" y1="144.823" x2="31.269" y2="145.481"/>
	<line style="fill:none;stroke:#000000;stroke-miterlimit:1;" x1="31.269" y1="145.481" x2="30.61" y2="146.469"/>
	<line style="fill:none;stroke:#000000;stroke-miterlimit:1;" x1="30.61" y1="146.469" x2="31.598" y2="147.785"/>
	<line style="fill:none;stroke:#000000;stroke-miterlimit:1;" x1="31.598" y1="147.785" x2="59.904" y2="146.798"/>
	<line style="fill:none;stroke:#000000;stroke-miterlimit:1;" x1="59.904" y1="146.798" x2="89.197" y2="148.114"/>
	<line style="fill:none;stroke:#000000;stroke-miterlimit:1;" x1="89.197" y1="148.114" x2="90.514" y2="146.798"/>
	<line style="fill:none;stroke:#000000;stroke-miterlimit:1;" x1="90.514" y1="146.798" x2="89.856" y2="145.152"/>
	<line style="fill:none;stroke:#000000;stroke-miterlimit:1;" x1="89.856" y1="145.152" x2="85.248" y2="145.152"/>
	<line style="fill:none;stroke:#000000;stroke-miterlimit:1;" x1="85.248" y1="145.152" x2="82.615" y2="142.848"/>
	<line style="fill:none;stroke:#000000;stroke-miterlimit:1;" x1="82.615" y1="142.848" x2="65.828" y2="142.519"/>
	<line style="fill:none;stroke:#000000;stroke-miterlimit:1;" x1="65.828" y1="142.519" x2="63.854" y2="141.202"/>
	<line style="fill:none;stroke:#000000;stroke-miterlimit:1;" x1="63.854" y1="141.202" x2="65.828" y2="120.466"/>
	<line style="fill:none;stroke:#000000;stroke-miterlimit:1;" x1="65.828" y1="120.466" x2="78.007" y2="126.72"/>
	<line style="fill:none;stroke:#000000;stroke-miterlimit:1;" x1="78.007" y1="126.72" x2="84.918" y2="106.313"/>
	<line style="fill:none;stroke:#000000;stroke-miterlimit:1;" x1="84.918" y1="106.313" x2="98.084" y2="139.228"/>
	<line style="fill:none;stroke:#000000;stroke-miterlimit:1;" x1="98.084" y1="139.228" x2="102.692" y2="145.152"/>
	<line style="fill:none;stroke:#000000;stroke-miterlimit:1;" x1="102.692" y1="145.152" x2="107.3" y2="147.785"/>
	<line style="fill:none;stroke:#000000;stroke-miterlimit:1;" x1="107.3" y1="147.785" x2="114.212" y2="147.785"/>
	<line style="fill:none;stroke:#000000;stroke-miterlimit:1;" x1="114.212" y1="147.785" x2="118.162" y2="146.469"/>
	<line style="fill:none;stroke:#000000;stroke-miterlimit:1;" x1="118.162" y1="146.469" x2="119.149" y2="144.494"/>
	<line style="fill:none;stroke:#000000;stroke-miterlimit:1;" x1="119.149" y1="144.494" x2="115.858" y2="135.606"/>
	<line style="fill:none;stroke:#000000;stroke-miterlimit:1;" x1="34.23" y1="68.791" x2="38.509" y2="92.818"/>
	<line style="fill:none;stroke:#000000;stroke-miterlimit:1;" x1="38.509" y1="92.818" x2="38.18" y2="111.25"/>
	<line style="fill:none;stroke:#000000;stroke-miterlimit:1;" x1="38.18" y1="111.25" x2="34.889" y2="130.012"/>
	<line style="fill:none;stroke:#000000;stroke-miterlimit:1;" x1="34.889" y1="130.012" x2="31.927" y2="139.557"/>
	<line style="fill:none;stroke:#000000;stroke-miterlimit:1;" x1="31.927" y1="139.557" x2="29.952" y2="141.86"/>
	<line style="fill:none;stroke:#000000;stroke-miterlimit:1;" x1="29.952" y1="141.86" x2="14.153" y2="142.848"/>
	<line style="fill:none;stroke:#000000;stroke-miterlimit:1;" x1="14.153" y1="142.848" x2="12.507" y2="145.152"/>
	<line style="fill:none;stroke:#000000;stroke-miterlimit:1;" x1="12.507" y1="145.152" x2="8.887" y2="145.481"/>
	<line style="fill:none;stroke:#000000;stroke-miterlimit:1;" x1="8.887" y1="145.481" x2="7.57" y2="146.469"/>
	<line style="fill:none;stroke:#000000;stroke-miterlimit:1;" x1="7.57" y1="146.469" x2="8.887" y2="147.785"/>
	<line style="fill:none;stroke:#000000;stroke-miterlimit:1;" x1="8.887" y1="147.785" x2="21.065" y2="146.798"/>
	<line style="fill:none;stroke:#000000;stroke-miterlimit:1;" x1="21.065" y1="146.798" x2="24.686" y2="147.127"/>
	<line style="fill:none;stroke:#000000;stroke-miterlimit:1;" x1="36.535" y1="143.177" x2="30.939" y2="143.835"/>
	<line style="fill:none;stroke:#000000;stroke-miterlimit:1;" x1="30.939" y1="143.835" x2="30.939" y2="143.835"/>
	<line style="fill:none;stroke:#000000;stroke-miterlimit:1;" x1="30.939" y1="143.835" x2="27.648" y2="144.494"/>
	<line style="fill:none;stroke:#000000;stroke-miterlimit:1;" x1="27.648" y1="144.494" x2="25.673" y2="147.127"/>
	<line style="fill:none;stroke:#000000;stroke-miterlimit:1;" x1="25.673" y1="147.127" x2="26.989" y2="147.785"/>
	<line style="fill:none;stroke:#000000;stroke-miterlimit:1;" x1="26.989" y1="147.785" x2="28.964" y2="145.811"/>
	<line style="fill:none;stroke:#000000;stroke-miterlimit:1;" x1="28.964" y1="145.811" x2="30.939" y2="145.481"/>
	<line style="fill:none;stroke:#000000;stroke-miterlimit:1;" x1="36.206" y1="142.848" x2="43.447" y2="115.858"/>
	<line style="fill:none;stroke:#000000;stroke-miterlimit:1;" x1="43.447" y1="115.858" x2="54.638" y2="122.441"/>
	<line style="fill:none;stroke:#000000;stroke-miterlimit:1;" x1="54.638" y1="122.441" x2="56.941" y2="110.263"/>
	<line style="fill:none;stroke:#000000;stroke-miterlimit:1;" x1="13.166" y1="143.177" x2="7.899" y2="143.835"/>
	<line style="fill:none;stroke:#000000;stroke-miterlimit:1;" x1="7.899" y1="143.835" x2="7.899" y2="143.835"/>
	<line style="fill:none;stroke:#000000;stroke-miterlimit:1;" x1="7.899" y1="143.835" x2="4.608" y2="144.494"/>
	<line style="fill:none;stroke:#000000;stroke-miterlimit:1;" x1="4.608" y1="144.494" x2="2.633" y2="147.127"/>
	<line style="fill:none;stroke:#000000;stroke-miterlimit:1;" x1="2.633" y1="147.127" x2="3.62" y2="147.785"/>
	<line style="fill:none;stroke:#000000;stroke-miterlimit:1;" x1="3.62" y1="147.785" x2="5.924" y2="145.811"/>
	<line style="fill:none;stroke:#000000;stroke-miterlimit:1;" x1="5.924" y1="145.811" x2="8.558" y2="145.481"/>
	<line style="fill:none;stroke:#000000;stroke-miterlimit:1;" x1="83.273" y1="142.848" x2="89.527" y2="143.506"/>
	<line style="fill:none;stroke:#000000;stroke-miterlimit:1;" x1="89.527" y1="143.506" x2="92.489" y2="144.494"/>
	<line style="fill:none;stroke:#000000;stroke-miterlimit:1;" x1="92.489" y1="144.494" x2="94.464" y2="147.127"/>
	<line style="fill:none;stroke:#000000;stroke-miterlimit:1;" x1="94.464" y1="147.127" x2="93.477" y2="147.785"/>
	<line style="fill:none;stroke:#000000;stroke-miterlimit:1;" x1="93.477" y1="147.785" x2="91.172" y2="145.811"/>
	<line style="fill:none;stroke:#000000;stroke-miterlimit:1;" x1="91.172" y1="145.811" x2="89.527" y2="145.481"/>
	<line style="fill:none;stroke:#000000;stroke-miterlimit:1;" x1="214.601" y1="148.114" x2="182.016" y2="99.072"/>
	<line style="fill:none;stroke:#000000;stroke-miterlimit:1;" x1="182.016" y1="99.072" x2="179.712" y2="92.16"/>
	<line style="fill:none;stroke:#000000;stroke-miterlimit:1;" x1="179.712" y1="92.16" x2="179.054" y2="86.235"/>
	<line style="fill:none;stroke:#000000;stroke-miterlimit:1;" x1="179.054" y1="86.235" x2="180.041" y2="80.64"/>
	<line style="fill:none;stroke:#000000;stroke-miterlimit:1;" x1="180.041" y1="80.64" x2="181.357" y2="78.007"/>
	<line style="fill:none;stroke:#000000;stroke-miterlimit:1;" x1="181.357" y1="78.007" x2="183.333" y2="75.044"/>
	<line style="fill:none;stroke:#000000;stroke-miterlimit:1;" x1="183.333" y1="75.044" x2="185.965" y2="72.741"/>
	<line style="fill:none;stroke:#000000;stroke-miterlimit:1;" x1="185.965" y1="72.741" x2="188.599" y2="71.095"/>
	<line style="fill:none;stroke:#000000;stroke-miterlimit:1;" x1="188.599" y1="71.095" x2="189.586" y2="70.437"/>
	<line style="fill:none;stroke:#000000;stroke-miterlimit:1;" x1="189.586" y1="70.437" x2="194.523" y2="69.778"/>
	<line style="fill:none;stroke:#000000;stroke-miterlimit:1;" x1="194.523" y1="69.778" x2="199.46" y2="67.803"/>
	<line style="fill:none;stroke:#000000;stroke-miterlimit:1;" x1="199.46" y1="67.803" x2="203.081" y2="64.512"/>
	<line style="fill:none;stroke:#000000;stroke-miterlimit:1;" x1="203.081" y1="64.512" x2="206.043" y2="61.221"/>
	<line style="fill:none;stroke:#000000;stroke-miterlimit:1;" x1="206.043" y1="61.221" x2="207.689" y2="58.258"/>
	<line style="fill:none;stroke:#000000;stroke-miterlimit:1;" x1="207.689" y1="58.258" x2="208.676" y2="52.333"/>
	<line style="fill:none;stroke:#000000;stroke-miterlimit:1;" x1="208.676" y1="52.333" x2="208.018" y2="47.067"/>
	<line style="fill:none;stroke:#000000;stroke-miterlimit:1;" x1="208.018" y1="47.067" x2="206.373" y2="44.105"/>
	<line style="fill:none;stroke:#000000;stroke-miterlimit:1;" x1="206.373" y1="44.105" x2="204.727" y2="41.472"/>
	<line style="fill:none;stroke:#000000;stroke-miterlimit:1;" x1="204.727" y1="41.472" x2="201.764" y2="38.51"/>
	<line style="fill:none;stroke:#000000;stroke-miterlimit:1;" x1="201.764" y1="38.51" x2="199.131" y2="37.193"/>
	<line style="fill:none;stroke:#000000;stroke-miterlimit:1;" x1="199.131" y1="37.193" x2="194.853" y2="35.218"/>
	<line style="fill:none;stroke:#000000;stroke-miterlimit:1;" x1="194.853" y1="35.218" x2="189.586" y2="33.902"/>
	<line style="fill:none;stroke:#000000;stroke-miterlimit:1;" x1="189.586" y1="33.902" x2="186.953" y2="32.256"/>
	<line style="fill:none;stroke:#000000;stroke-miterlimit:1;" x1="186.953" y1="32.256" x2="182.345" y2="28.635"/>
	<line style="fill:none;stroke:#000000;stroke-miterlimit:1;" x1="182.345" y1="28.635" x2="180.37" y2="25.344"/>
	<line style="fill:none;stroke:#000000;stroke-miterlimit:1;" x1="180.37" y1="25.344" x2="179.383" y2="22.382"/>
	<line style="fill:none;stroke:#000000;stroke-miterlimit:1;" x1="179.383" y1="22.382" x2="178.395" y2="16.457"/>
	<line style="fill:none;stroke:#000000;stroke-miterlimit:1;" x1="178.395" y1="16.457" x2="179.054" y2="11.191"/>
	<line style="fill:none;stroke:#000000;stroke-miterlimit:1;" x1="179.054" y1="11.191" x2="180.37" y2="8.558"/>
	<line style="fill:none;stroke:#000000;stroke-miterlimit:1;" x1="180.37" y1="8.558" x2="182.345" y2="5.595"/>
	<line style="fill:none;stroke:#000000;stroke-miterlimit:1;" x1="182.345" y1="5.595" x2="185.307" y2="2.962"/>
	<line style="fill:none;stroke:#000000;stroke-miterlimit:1;" x1="185.307" y1="2.962" x2="187.282" y2="1.316"/>
	<line style="fill:none;stroke:#000000;stroke-miterlimit:1;" x1="187.282" y1="1.316" x2="190.903" y2="0.329"/>
	<line style="fill:none;stroke:#000000;stroke-miterlimit:1;" x1="190.903" y1="0.329" x2="193.536" y2="0"/>
	<line style="fill:none;stroke:#000000;stroke-miterlimit:1;" x1="172.142" y1="148.114" x2="205.385" y2="97.097"/>
	<line style="fill:none;stroke:#000000;stroke-miterlimit:1;" x1="205.385" y1="97.097" x2="207.031" y2="93.147"/>
	<line style="fill:none;stroke:#000000;stroke-miterlimit:1;" x1="207.031" y1="93.147" x2="207.36" y2="86.235"/>
	<line style="fill:none;stroke:#000000;stroke-miterlimit:1;" x1="207.36" y1="86.235" x2="206.702" y2="80.64"/>
	<line style="fill:none;stroke:#000000;stroke-miterlimit:1;" x1="206.702" y1="80.64" x2="205.385" y2="78.007"/>
	<line style="fill:none;stroke:#000000;stroke-miterlimit:1;" x1="205.385" y1="78.007" x2="203.739" y2="75.703"/>
	<line style="fill:none;stroke:#000000;stroke-miterlimit:1;" x1="203.739" y1="75.703" x2="200.777" y2="72.741"/>
	<line style="fill:none;stroke:#000000;stroke-miterlimit:1;" x1="200.777" y1="72.741" x2="198.144" y2="71.095"/>
	<line style="fill:none;stroke:#000000;stroke-miterlimit:1;" x1="198.144" y1="71.095" x2="197.156" y2="70.437"/>
	<line style="fill:none;stroke:#000000;stroke-miterlimit:1;" x1="197.156" y1="70.437" x2="189.257" y2="68.791"/>
	<line style="fill:none;stroke:#000000;stroke-miterlimit:1;" x1="189.257" y1="68.791" x2="187.282" y2="67.803"/>
	<line style="fill:none;stroke:#000000;stroke-miterlimit:1;" x1="187.282" y1="67.803" x2="184.978" y2="66.487"/>
	<line style="fill:none;stroke:#000000;stroke-miterlimit:1;" x1="184.978" y1="66.487" x2="182.674" y2="64.183"/>
	<line style="fill:none;stroke:#000000;stroke-miterlimit:1;" x1="182.674" y1="64.183" x2="180.37" y2="60.892"/>
	<line style="fill:none;stroke:#000000;stroke-miterlimit:1;" x1="180.37" y1="60.892" x2="179.054" y2="57.929"/>
	<line style="fill:none;stroke:#000000;stroke-miterlimit:1;" x1="179.054" y1="57.929" x2="177.737" y2="52.004"/>
	<line style="fill:none;stroke:#000000;stroke-miterlimit:1;" x1="177.737" y1="52.004" x2="178.724" y2="46.409"/>
	<line style="fill:none;stroke:#000000;stroke-miterlimit:1;" x1="178.724" y1="46.409" x2="180.699" y2="43.776"/>
	<line style="fill:none;stroke:#000000;stroke-miterlimit:1;" x1="180.699" y1="43.776" x2="182.345" y2="41.143"/>
	<line style="fill:none;stroke:#000000;stroke-miterlimit:1;" x1="182.345" y1="41.143" x2="185.636" y2="38.181"/>
	<line style="fill:none;stroke:#000000;stroke-miterlimit:1;" x1="185.636" y1="38.181" x2="187.94" y2="36.864"/>
	<line style="fill:none;stroke:#000000;stroke-miterlimit:1;" x1="187.94" y1="36.864" x2="191.89" y2="35.218"/>
	<line style="fill:none;stroke:#000000;stroke-miterlimit:1;" x1="191.89" y1="35.218" x2="196.827" y2="33.573"/>
	<line style="fill:none;stroke:#000000;stroke-miterlimit:1;" x1="196.827" y1="33.573" x2="199.79" y2="31.598"/>
	<line style="fill:none;stroke:#000000;stroke-miterlimit:1;" x1="199.79" y1="31.598" x2="203.41" y2="28.964"/>
	<line style="fill:none;stroke:#000000;stroke-miterlimit:1;" x1="203.41" y1="28.964" x2="206.373" y2="25.015"/>
	<line style="fill:none;stroke:#000000;stroke-miterlimit:1;" x1="206.373" y1="25.015" x2="207.031" y2="22.053"/>
	<line style="fill:none;stroke:#000000;stroke-miterlimit:1;" x1="207.031" y1="22.053" x2="208.347" y2="16.128"/>
	<line style="fill:none;stroke:#000000;stroke-miterlimit:1;" x1="208.347" y1="16.128" x2="207.36" y2="10.862"/>
	<line style="fill:none;stroke:#000000;stroke-miterlimit:1;" x1="207.36" y1="10.862" x2="206.043" y2="8.229"/>
	<line style="fill:none;stroke:#000000;stroke-miterlimit:1;" x1="206.043" y1="8.229" x2="204.068" y2="5.266"/>
	<line style="fill:none;stroke:#000000;stroke-miterlimit:1;" x1="204.068" y1="5.266" x2="201.106" y2="2.633"/>
	<line style="fill:none;stroke:#000000;stroke-miterlimit:1;" x1="201.106" y1="2.633" x2="197.814" y2="0.658"/>
	<line style="fill:none;stroke:#000000;stroke-miterlimit:1;" x1="197.814" y1="0.658" x2="193.536" y2="0"/>
	<line style="fill:none;stroke:#000000;stroke-miterlimit:1;" x1="271.543" y1="43.447" x2="267.593" y2="45.422"/>
	<line style="fill:none;stroke:#000000;stroke-miterlimit:1;" x1="267.593" y1="45.422" x2="264.631" y2="49.042"/>
	<line style="fill:none;stroke:#000000;stroke-miterlimit:1;" x1="264.631" y1="49.042" x2="263.644" y2="52.004"/>
	<line style="fill:none;stroke:#000000;stroke-miterlimit:1;" x1="263.644" y1="52.004" x2="262.985" y2="54.967"/>
	<line style="fill:none;stroke:#000000;stroke-miterlimit:1;" x1="262.985" y1="54.967" x2="263.973" y2="59.575"/>
	<line style="fill:none;stroke:#000000;stroke-miterlimit:1;" x1="263.973" y1="59.575" x2="266.276" y2="62.537"/>
	<line style="fill:none;stroke:#000000;stroke-miterlimit:1;" x1="266.276" y1="62.537" x2="268.58" y2="64.512"/>
	<line style="fill:none;stroke:#000000;stroke-miterlimit:1;" x1="268.58" y1="64.512" x2="272.53" y2="65.829"/>
	<line style="fill:none;stroke:#000000;stroke-miterlimit:1;" x1="272.53" y1="65.829" x2="275.492" y2="66.816"/>
	<line style="fill:none;stroke:#000000;stroke-miterlimit:1;" x1="275.492" y1="66.816" x2="279.113" y2="66.816"/>
	<line style="fill:none;stroke:#000000;stroke-miterlimit:1;" x1="279.113" y1="66.816" x2="283.062" y2="65.17"/>
	<line style="fill:none;stroke:#000000;stroke-miterlimit:1;" x1="283.062" y1="65.17" x2="286.354" y2="63.524"/>
	<line style="fill:none;stroke:#000000;stroke-miterlimit:1;" x1="286.354" y1="63.524" x2="288.329" y2="61.221"/>
	<line style="fill:none;stroke:#000000;stroke-miterlimit:1;" x1="288.329" y1="61.221" x2="290.633" y2="57.929"/>
	<line style="fill:none;stroke:#000000;stroke-miterlimit:1;" x1="290.633" y1="57.929" x2="292.278" y2="53.979"/>
	<line style="fill:none;stroke:#000000;stroke-miterlimit:1;" x1="292.278" y1="53.979" x2="293.266" y2="50.688"/>
	<line style="fill:none;stroke:#000000;stroke-miterlimit:1;" x1="293.266" y1="50.688" x2="293.596" y2="47.396"/>
	<line style="fill:none;stroke:#000000;stroke-miterlimit:1;" x1="293.596" y1="47.396" x2="293.266" y2="45.093"/>
	<line style="fill:none;stroke:#000000;stroke-miterlimit:1;" x1="293.266" y1="45.093" x2="292.607" y2="41.143"/>
	<line style="fill:none;stroke:#000000;stroke-miterlimit:1;" x1="292.607" y1="41.143" x2="290.962" y2="37.852"/>
	<line style="fill:none;stroke:#000000;stroke-miterlimit:1;" x1="290.962" y1="37.852" x2="288.329" y2="34.56"/>
	<line style="fill:none;stroke:#000000;stroke-miterlimit:1;" x1="288.329" y1="34.56" x2="285.695" y2="32.256"/>
	<line style="fill:none;stroke:#000000;stroke-miterlimit:1;" x1="285.695" y1="32.256" x2="283.392" y2="31.269"/>
	<line style="fill:none;stroke:#000000;stroke-miterlimit:1;" x1="283.392" y1="31.269" x2="281.088" y2="30.281"/>
	<line style="fill:none;stroke:#000000;stroke-miterlimit:1;" x1="281.088" y1="30.281" x2="277.796" y2="29.952"/>
	<line style="fill:none;stroke:#000000;stroke-miterlimit:1;" x1="277.796" y1="29.952" x2="275.163" y2="29.623"/>
	<line style="fill:none;stroke:#000000;stroke-miterlimit:1;" x1="275.163" y1="29.623" x2="271.872" y2="29.623"/>
	<line style="fill:none;stroke:#000000;stroke-miterlimit:1;" x1="271.872" y1="29.623" x2="267.922" y2="29.952"/>
	<line style="fill:none;stroke:#000000;stroke-miterlimit:1;" x1="267.922" y1="29.952" x2="263.644" y2="31.269"/>
	<line style="fill:none;stroke:#000000;stroke-miterlimit:1;" x1="263.644" y1="31.269" x2="260.022" y2="33.243"/>
	<line style="fill:none;stroke:#000000;stroke-miterlimit:1;" x1="260.022" y1="33.243" x2="257.719" y2="35.218"/>
	<line style="fill:none;stroke:#000000;stroke-miterlimit:1;" x1="257.719" y1="35.218" x2="255.086" y2="37.522"/>
	<line style="fill:none;stroke:#000000;stroke-miterlimit:1;" x1="255.086" y1="37.522" x2="253.11" y2="39.826"/>
	<line style="fill:none;stroke:#000000;stroke-miterlimit:1;" x1="253.11" y1="39.826" x2="251.136" y2="43.447"/>
	<line style="fill:none;stroke:#000000;stroke-miterlimit:1;" x1="251.136" y1="43.447" x2="249.161" y2="47.067"/>
	<line style="fill:none;stroke:#000000;stroke-miterlimit:1;" x1="249.161" y1="47.067" x2="248.503" y2="50.359"/>
	<line style="fill:none;stroke:#000000;stroke-miterlimit:1;" x1="248.503" y1="50.359" x2="247.845" y2="54.967"/>
	<line style="fill:none;stroke:#000000;stroke-miterlimit:1;" x1="247.845" y1="54.967" x2="247.516" y2="59.575"/>
	<line style="fill:none;stroke:#000000;stroke-miterlimit:1;" x1="247.516" y1="59.575" x2="247.845" y2="63.195"/>
	<line style="fill:none;stroke:#000000;stroke-miterlimit:1;" x1="247.845" y1="63.195" x2="248.174" y2="68.462"/>
	<line style="fill:none;stroke:#000000;stroke-miterlimit:1;" x1="248.174" y1="68.462" x2="250.148" y2="73.728"/>
	<line style="fill:none;stroke:#000000;stroke-miterlimit:1;" x1="250.148" y1="73.728" x2="253.11" y2="79.652"/>
	<line style="fill:none;stroke:#000000;stroke-miterlimit:1;" x1="253.11" y1="79.652" x2="258.377" y2="86.564"/>
	<line style="fill:none;stroke:#000000;stroke-miterlimit:1;" x1="258.377" y1="86.564" x2="266.605" y2="94.464"/>
	<line style="fill:none;stroke:#000000;stroke-miterlimit:1;" x1="266.605" y1="94.464" x2="278.455" y2="104.009"/>
	<line style="fill:none;stroke:#000000;stroke-miterlimit:1;" x1="278.455" y1="104.009" x2="304.128" y2="118.491"/>
	<line style="fill:none;stroke:#000000;stroke-miterlimit:1;" x1="479.895" y1="65.915" x2="342.434" y2="65.915"/>
	<line style="fill:none;stroke:#000000;stroke-miterlimit:1;" x1="342.434" y1="65.915" x2="342.434" y2="73.451"/>
	<line style="fill:none;stroke:#000000;stroke-miterlimit:1;" x1="342.434" y1="73.451" x2="479.895" y2="73.451"/>
	<line style="fill:none;stroke:#000000;stroke-miterlimit:1;" x1="479.895" y1="73.451" x2="479.895" y2="65.915"/>
	<line style="fill:none;stroke:#000000;stroke-miterlimit:1;" x1="358.805" y1="16.024" x2="357.765" y2="18.363"/>
	<line style="fill:none;stroke:#000000;stroke-miterlimit:1;" x1="357.765" y1="18.363" x2="357.505" y2="20.441"/>
	<line style="fill:none;stroke:#000000;stroke-miterlimit:1;" x1="357.505" y1="20.441" x2="358.805" y2="24.079"/>
	<line style="fill:none;stroke:#000000;stroke-miterlimit:1;" x1="358.805" y1="24.079" x2="360.623" y2="25.639"/>
	<line style="fill:none;stroke:#000000;stroke-miterlimit:1;" x1="360.623" y1="25.639" x2="362.183" y2="26.678"/>
	<line style="fill:none;stroke:#000000;stroke-miterlimit:1;" x1="362.183" y1="26.678" x2="364.781" y2="27.198"/>
	<line style="fill:none;stroke:#000000;stroke-miterlimit:1;" x1="364.781" y1="27.198" x2="367.12" y2="26.938"/>
	<line style="fill:none;stroke:#000000;stroke-miterlimit:1;" x1="367.12" y1="26.938" x2="369.198" y2="26.678"/>
	<line style="fill:none;stroke:#000000;stroke-miterlimit:1;" x1="369.198" y1="26.678" x2="372.057" y2="24.859"/>
	<line style="fill:none;stroke:#000000;stroke-miterlimit:1;" x1="372.057" y1="24.859" x2="373.876" y2="23.04"/>
	<line style="fill:none;stroke:#000000;stroke-miterlimit:1;" x1="373.876" y1="23.04" x2="374.655" y2="20.961"/>
	<line style="fill:none;stroke:#000000;stroke-miterlimit:1;" x1="374.655" y1="20.961" x2="375.694" y2="17.063"/>
	<line style="fill:none;stroke:#000000;stroke-miterlimit:1;" x1="375.694" y1="17.063" x2="375.694" y2="14.465"/>
	<line style="fill:none;stroke:#000000;stroke-miterlimit:1;" x1="375.694" y1="14.465" x2="375.435" y2="11.866"/>
	<line style="fill:none;stroke:#000000;stroke-miterlimit:1;" x1="375.435" y1="11.866" x2="373.876" y2="8.488"/>
	<line style="fill:none;stroke:#000000;stroke-miterlimit:1;" x1="373.876" y1="8.488" x2="371.537" y2="5.89"/>
	<line style="fill:none;stroke:#000000;stroke-miterlimit:1;" x1="371.537" y1="5.89" x2="369.198" y2="4.331"/>
	<line style="fill:none;stroke:#000000;stroke-miterlimit:1;" x1="369.198" y1="4.331" x2="364.521" y2="3.292"/>
	<line style="fill:none;stroke:#000000;stroke-miterlimit:1;" x1="364.521" y1="3.292" x2="361.663" y2="3.292"/>
	<line style="fill:none;stroke:#000000;stroke-miterlimit:1;" x1="361.663" y1="3.292" x2="358.545" y2="4.071"/>
	<line style="fill:none;stroke:#000000;stroke-miterlimit:1;" x1="358.545" y1="4.071" x2="355.687" y2="5.11"/>
	<line style="fill:none;stroke:#000000;stroke-miterlimit:1;" x1="355.687" y1="5.11" x2="353.088" y2="6.669"/>
	<line style="fill:none;stroke:#000000;stroke-miterlimit:1;" x1="353.088" y1="6.669" x2="351.269" y2="8.229"/>
	<line style="fill:none;stroke:#000000;stroke-miterlimit:1;" x1="351.269" y1="8.229" x2="349.45" y2="10.827"/>
	<line style="fill:none;stroke:#000000;stroke-miterlimit:1;" x1="349.45" y1="10.827" x2="348.41" y2="13.426"/>
	<line style="fill:none;stroke:#000000;stroke-miterlimit:1;" x1="348.41" y1="13.426" x2="347.111" y2="18.103"/>
	<line style="fill:none;stroke:#000000;stroke-miterlimit:1;" x1="347.111" y1="18.103" x2="347.371" y2="22.26"/>
	<line style="fill:none;stroke:#000000;stroke-miterlimit:1;" x1="347.371" y1="22.26" x2="348.15" y2="26.158"/>
	<line style="fill:none;stroke:#000000;stroke-miterlimit:1;" x1="348.15" y1="26.158" x2="349.71" y2="29.796"/>
	<line style="fill:none;stroke:#000000;stroke-miterlimit:1;" x1="349.71" y1="29.796" x2="355.946" y2="37.852"/>
	<line style="fill:none;stroke:#000000;stroke-miterlimit:1;" x1="355.946" y1="37.852" x2="366.08" y2="49.025"/>
	<line style="fill:none;stroke:#000000;stroke-miterlimit:1;" x1="366.08" y1="49.025" x2="376.475" y2="60.718"/>
	<line style="fill:none;stroke:#000000;stroke-miterlimit:1;" x1="376.475" y1="60.718" x2="380.112" y2="65.915"/>
	<line style="fill:none;stroke:#000000;stroke-miterlimit:1;" x1="449.232" y1="16.024" x2="447.933" y2="18.363"/>
	<line style="fill:none;stroke:#000000;stroke-miterlimit:1;" x1="447.933" y1="18.363" x2="447.933" y2="20.441"/>
	<line style="fill:none;stroke:#000000;stroke-miterlimit:1;" x1="447.933" y1="20.441" x2="448.973" y2="24.079"/>
	<line style="fill:none;stroke:#000000;stroke-miterlimit:1;" x1="448.973" y1="24.079" x2="450.791" y2="25.639"/>
	<line style="fill:none;stroke:#000000;stroke-miterlimit:1;" x1="450.791" y1="25.639" x2="452.351" y2="26.678"/>
	<line style="fill:none;stroke:#000000;stroke-miterlimit:1;" x1="452.351" y1="26.678" x2="455.209" y2="27.198"/>
	<line style="fill:none;stroke:#000000;stroke-miterlimit:1;" x1="455.209" y1="27.198" x2="457.547" y2="26.938"/>
	<line style="fill:none;stroke:#000000;stroke-miterlimit:1;" x1="457.547" y1="26.938" x2="459.366" y2="26.678"/>
	<line style="fill:none;stroke:#000000;stroke-miterlimit:1;" x1="459.366" y1="26.678" x2="462.484" y2="24.859"/>
	<line style="fill:none;stroke:#000000;stroke-miterlimit:1;" x1="462.484" y1="24.859" x2="464.044" y2="23.04"/>
	<line style="fill:none;stroke:#000000;stroke-miterlimit:1;" x1="464.044" y1="23.04" x2="465.083" y2="20.961"/>
	<line style="fill:none;stroke:#000000;stroke-miterlimit:1;" x1="465.083" y1="20.961" x2="465.862" y2="17.063"/>
	<line style="fill:none;stroke:#000000;stroke-miterlimit:1;" x1="465.862" y1="17.063" x2="466.122" y2="14.465"/>
	<line style="fill:none;stroke:#000000;stroke-miterlimit:1;" x1="466.122" y1="14.465" x2="465.862" y2="11.866"/>
	<line style="fill:none;stroke:#000000;stroke-miterlimit:1;" x1="465.862" y1="11.866" x2="464.304" y2="8.488"/>
	<line style="fill:none;stroke:#000000;stroke-miterlimit:1;" x1="464.304" y1="8.488" x2="461.965" y2="5.89"/>
	<line style="fill:none;stroke:#000000;stroke-miterlimit:1;" x1="461.965" y1="5.89" x2="459.626" y2="4.331"/>
	<line style="fill:none;stroke:#000000;stroke-miterlimit:1;" x1="459.626" y1="4.331" x2="454.949" y2="3.292"/>
	<line style="fill:none;stroke:#000000;stroke-miterlimit:1;" x1="454.949" y1="3.292" x2="451.831" y2="3.292"/>
	<line style="fill:none;stroke:#000000;stroke-miterlimit:1;" x1="451.831" y1="3.292" x2="448.973" y2="4.071"/>
	<line style="fill:none;stroke:#000000;stroke-miterlimit:1;" x1="448.973" y1="4.071" x2="446.114" y2="5.11"/>
	<line style="fill:none;stroke:#000000;stroke-miterlimit:1;" x1="446.114" y1="5.11" x2="443.516" y2="6.669"/>
	<line style="fill:none;stroke:#000000;stroke-miterlimit:1;" x1="443.516" y1="6.669" x2="441.696" y2="8.229"/>
	<line style="fill:none;stroke:#000000;stroke-miterlimit:1;" x1="441.696" y1="8.229" x2="439.618" y2="10.827"/>
	<line style="fill:none;stroke:#000000;stroke-miterlimit:1;" x1="439.618" y1="10.827" x2="438.578" y2="13.426"/>
	<line style="fill:none;stroke:#000000;stroke-miterlimit:1;" x1="438.578" y1="13.426" x2="437.799" y2="16.024"/>
	<line style="fill:none;stroke:#000000;stroke-miterlimit:1;" x1="437.799" y1="16.024" x2="437.539" y2="22.26"/>
	<line style="fill:none;stroke:#000000;stroke-miterlimit:1;" x1="437.539" y1="22.26" x2="438.578" y2="26.158"/>
	<line style="fill:none;stroke:#000000;stroke-miterlimit:1;" x1="438.578" y1="26.158" x2="440.138" y2="29.796"/>
	<line style="fill:none;stroke:#000000;stroke-miterlimit:1;" x1="440.138" y1="29.796" x2="446.374" y2="37.852"/>
	<line style="fill:none;stroke:#000000;stroke-miterlimit:1;" x1="446.374" y1="37.852" x2="456.508" y2="49.025"/>
	<line style="fill:none;stroke:#000000;stroke-miterlimit:1;" x1="456.508" y1="49.025" x2="466.902" y2="60.718"/>
	<line style="fill:none;stroke:#000000;stroke-miterlimit:1;" x1="466.902" y1="60.718" x2="470.54" y2="65.915"/>
	<line style="fill:none;stroke:#000000;stroke-miterlimit:1;" x1="404.019" y1="16.024" x2="402.979" y2="18.363"/>
	<line style="fill:none;stroke:#000000;stroke-miterlimit:1;" x1="402.979" y1="18.363" x2="402.719" y2="20.441"/>
	<line style="fill:none;stroke:#000000;stroke-miterlimit:1;" x1="402.719" y1="20.441" x2="404.019" y2="24.079"/>
	<line style="fill:none;stroke:#000000;stroke-miterlimit:1;" x1="404.019" y1="24.079" x2="405.837" y2="25.639"/>
	<line style="fill:none;stroke:#000000;stroke-miterlimit:1;" x1="405.837" y1="25.639" x2="407.396" y2="26.678"/>
	<line style="fill:none;stroke:#000000;stroke-miterlimit:1;" x1="407.396" y1="26.678" x2="409.995" y2="27.198"/>
	<line style="fill:none;stroke:#000000;stroke-miterlimit:1;" x1="409.995" y1="27.198" x2="412.334" y2="26.938"/>
	<line style="fill:none;stroke:#000000;stroke-miterlimit:1;" x1="412.334" y1="26.938" x2="414.412" y2="26.678"/>
	<line style="fill:none;stroke:#000000;stroke-miterlimit:1;" x1="414.412" y1="26.678" x2="417.271" y2="24.859"/>
	<line style="fill:none;stroke:#000000;stroke-miterlimit:1;" x1="417.271" y1="24.859" x2="418.83" y2="23.04"/>
	<line style="fill:none;stroke:#000000;stroke-miterlimit:1;" x1="418.83" y1="23.04" x2="419.869" y2="20.961"/>
	<line style="fill:none;stroke:#000000;stroke-miterlimit:1;" x1="419.869" y1="20.961" x2="420.908" y2="17.063"/>
	<line style="fill:none;stroke:#000000;stroke-miterlimit:1;" x1="420.908" y1="17.063" x2="420.908" y2="14.465"/>
	<line style="fill:none;stroke:#000000;stroke-miterlimit:1;" x1="420.908" y1="14.465" x2="420.648" y2="11.866"/>
	<line style="fill:none;stroke:#000000;stroke-miterlimit:1;" x1="420.648" y1="11.866" x2="419.09" y2="8.488"/>
	<line style="fill:none;stroke:#000000;stroke-miterlimit:1;" x1="419.09" y1="8.488" x2="416.751" y2="5.89"/>
	<line style="fill:none;stroke:#000000;stroke-miterlimit:1;" x1="416.751" y1="5.89" x2="414.412" y2="4.331"/>
	<line style="fill:none;stroke:#000000;stroke-miterlimit:1;" x1="414.412" y1="4.331" x2="409.735" y2="3.292"/>
	<line style="fill:none;stroke:#000000;stroke-miterlimit:1;" x1="409.735" y1="3.292" x2="406.877" y2="3.292"/>
	<line style="fill:none;stroke:#000000;stroke-miterlimit:1;" x1="406.877" y1="3.292" x2="403.759" y2="4.071"/>
	<line style="fill:none;stroke:#000000;stroke-miterlimit:1;" x1="403.759" y1="4.071" x2="400.9" y2="5.11"/>
	<line style="fill:none;stroke:#000000;stroke-miterlimit:1;" x1="400.9" y1="5.11" x2="398.042" y2="6.669"/>
	<line style="fill:none;stroke:#000000;stroke-miterlimit:1;" x1="398.042" y1="6.669" x2="396.482" y2="8.229"/>
	<line style="fill:none;stroke:#000000;stroke-miterlimit:1;" x1="396.482" y1="8.229" x2="394.664" y2="10.827"/>
	<line style="fill:none;stroke:#000000;stroke-miterlimit:1;" x1="394.664" y1="10.827" x2="393.624" y2="13.426"/>
	<line style="fill:none;stroke:#000000;stroke-miterlimit:1;" x1="393.624" y1="13.426" x2="392.585" y2="16.024"/>
	<line style="fill:none;stroke:#000000;stroke-miterlimit:1;" x1="392.585" y1="16.024" x2="392.585" y2="22.26"/>
	<line style="fill:none;stroke:#000000;stroke-miterlimit:1;" x1="392.585" y1="22.26" x2="393.364" y2="26.158"/>
	<line style="fill:none;stroke:#000000;stroke-miterlimit:1;" x1="393.364" y1="26.158" x2="394.924" y2="29.796"/>
	<line style="fill:none;stroke:#000000;stroke-miterlimit:1;" x1="394.924" y1="29.796" x2="401.16" y2="37.852"/>
	<line style="fill:none;stroke:#000000;stroke-miterlimit:1;" x1="401.16" y1="37.852" x2="411.294" y2="49.025"/>
	<line style="fill:none;stroke:#000000;stroke-miterlimit:1;" x1="411.294" y1="49.025" x2="421.688" y2="60.718"/>
	<line style="fill:none;stroke:#000000;stroke-miterlimit:1;" x1="421.688" y1="60.718" x2="425.326" y2="65.915"/>
	<line style="fill:none;stroke:#000000;stroke-miterlimit:1;" x1="382.061" y1="137.374" x2="384.14" y2="138.673"/>
	<line style="fill:none;stroke:#000000;stroke-miterlimit:1;" x1="384.14" y1="138.673" x2="385.699" y2="139.192"/>
	<line style="fill:none;stroke:#000000;stroke-miterlimit:1;" x1="385.699" y1="139.192" x2="386.479" y2="139.192"/>
	<line style="fill:none;stroke:#000000;stroke-miterlimit:1;" x1="386.479" y1="139.192" x2="387.258" y2="138.413"/>
	<line style="fill:none;stroke:#000000;stroke-miterlimit:1;" x1="387.258" y1="138.413" x2="388.298" y2="137.374"/>
	<line style="fill:none;stroke:#000000;stroke-miterlimit:1;" x1="388.298" y1="137.374" x2="393.494" y2="128.279"/>
	<line style="fill:none;stroke:#000000;stroke-miterlimit:1;" x1="393.494" y1="128.279" x2="393.494" y2="126.979"/>
	<line style="fill:none;stroke:#000000;stroke-miterlimit:1;" x1="393.494" y1="126.979" x2="393.234" y2="126.46"/>
	<line style="fill:none;stroke:#000000;stroke-miterlimit:1;" x1="393.234" y1="126.46" x2="392.715" y2="125.681"/>
	<line style="fill:none;stroke:#000000;stroke-miterlimit:1;" x1="392.715" y1="125.681" x2="390.896" y2="124.642"/>
	<line style="fill:none;stroke:#000000;stroke-miterlimit:1;" x1="390.896" y1="124.642" x2="348.28" y2="104.633"/>
	<line style="fill:none;stroke:#000000;stroke-miterlimit:1;" x1="348.28" y1="104.633" x2="347.241" y2="104.373"/>
	<line style="fill:none;stroke:#000000;stroke-miterlimit:1;" x1="347.241" y1="104.373" x2="345.942" y2="104.113"/>
	<line style="fill:none;stroke:#000000;stroke-miterlimit:1;" x1="345.942" y1="104.113" x2="344.643" y2="104.633"/>
	<line style="fill:none;stroke:#000000;stroke-miterlimit:1;" x1="344.643" y1="104.633" x2="343.344" y2="105.412"/>
	<line style="fill:none;stroke:#000000;stroke-miterlimit:1;" x1="343.344" y1="105.412" x2="342.824" y2="106.191"/>
	<line style="fill:none;stroke:#000000;stroke-miterlimit:1;" x1="342.824" y1="106.191" x2="342.304" y2="107.751"/>
	<line style="fill:none;stroke:#000000;stroke-miterlimit:1;" x1="342.304" y1="107.751" x2="342.304" y2="108.79"/>
	<line style="fill:none;stroke:#000000;stroke-miterlimit:1;" x1="342.304" y1="108.79" x2="342.824" y2="110.09"/>
	<line style="fill:none;stroke:#000000;stroke-miterlimit:1;" x1="342.824" y1="110.09" x2="343.604" y2="111.129"/>
	<line style="fill:none;stroke:#000000;stroke-miterlimit:1;" x1="343.604" y1="111.129" x2="344.902" y2="112.429"/>
	<line style="fill:none;stroke:#000000;stroke-miterlimit:1;" x1="344.902" y1="112.429" x2="382.061" y2="137.374"/>
	<line style="fill:none;stroke:#000000;stroke-miterlimit:1;" x1="469.37" y1="104.633" x2="469.37" y2="151.405"/>
	<line style="fill:none;stroke:#000000;stroke-miterlimit:1;" x1="469.37" y1="151.405" x2="479.765" y2="151.405"/>
	<line style="fill:none;stroke:#000000;stroke-miterlimit:1;" x1="479.765" y1="151.405" x2="479.765" y2="104.633"/>
	<line style="fill:none;stroke:#000000;stroke-miterlimit:1;" x1="479.765" y1="104.633" x2="469.37" y2="104.633"/>
</g>
</svg>
