<?xml version="1.0" encoding="iso-8859-1"?>
<!-- Generator: Adobe Illustrator 16.0.1, SVG Export Plug-In . SVG Version: 6.00 Build 0)  -->
<!DOCTYPE svg PUBLIC "-//W3C//DTD SVG 1.1//EN" "http://www.w3.org/Graphics/SVG/1.1/DTD/svg11.dtd">
<svg version="1.1" id="Ebene_1" xmlns="http://www.w3.org/2000/svg" xmlns:xlink="http://www.w3.org/1999/xlink" x="0px" y="0px"
	 width="367.488px" height="148.114px" viewBox="0 0 367.488 148.114" style="enable-background:new 0 0 367.488 148.114;"
	 xml:space="preserve">
<g>
	<line style="fill:none;stroke:#000000;stroke-miterlimit:1;" x1="71.753" y1="39.497" x2="64.512" y2="38.839"/>
	<line style="fill:none;stroke:#000000;stroke-miterlimit:1;" x1="64.512" y1="38.839" x2="52.992" y2="39.497"/>
	<line style="fill:none;stroke:#000000;stroke-miterlimit:1;" x1="52.992" y1="39.497" x2="44.435" y2="38.51"/>
	<line style="fill:none;stroke:#000000;stroke-miterlimit:1;" x1="44.435" y1="38.51" x2="41.801" y2="39.497"/>
	<line style="fill:none;stroke:#000000;stroke-miterlimit:1;" x1="41.801" y1="39.497" x2="39.826" y2="42.13"/>
	<line style="fill:none;stroke:#000000;stroke-miterlimit:1;" x1="39.826" y1="42.13" x2="40.485" y2="46.738"/>
	<line style="fill:none;stroke:#000000;stroke-miterlimit:1;" x1="40.485" y1="46.738" x2="43.776" y2="57.271"/>
	<line style="fill:none;stroke:#000000;stroke-miterlimit:1;" x1="43.776" y1="57.271" x2="50.03" y2="67.474"/>
	<line style="fill:none;stroke:#000000;stroke-miterlimit:1;" x1="50.03" y1="67.474" x2="70.437" y2="91.831"/>
	<line style="fill:none;stroke:#000000;stroke-miterlimit:1;" x1="70.437" y1="91.831" x2="80.969" y2="101.705"/>
	<line style="fill:none;stroke:#000000;stroke-miterlimit:1;" x1="80.969" y1="101.705" x2="96.11" y2="115.858"/>
	<line style="fill:none;stroke:#000000;stroke-miterlimit:1;" x1="96.11" y1="115.858" x2="128.366" y2="147.456"/>
	<line style="fill:none;stroke:#000000;stroke-miterlimit:1;" x1="128.366" y1="147.456" x2="131.657" y2="147.456"/>
	<line style="fill:none;stroke:#000000;stroke-miterlimit:1;" x1="131.657" y1="147.456" x2="132.645" y2="145.811"/>
	<line style="fill:none;stroke:#000000;stroke-miterlimit:1;" x1="132.645" y1="145.811" x2="131.328" y2="142.848"/>
	<line style="fill:none;stroke:#000000;stroke-miterlimit:1;" x1="131.328" y1="142.848" x2="117.504" y2="111.25"/>
	<line style="fill:none;stroke:#000000;stroke-miterlimit:1;" x1="117.504" y1="111.25" x2="115.529" y2="105.325"/>
	<line style="fill:none;stroke:#000000;stroke-miterlimit:1;" x1="115.529" y1="105.325" x2="104.997" y2="79.981"/>
	<line style="fill:none;stroke:#000000;stroke-miterlimit:1;" x1="104.997" y1="79.981" x2="95.452" y2="63.524"/>
	<line style="fill:none;stroke:#000000;stroke-miterlimit:1;" x1="95.452" y1="63.524" x2="87.881" y2="52.992"/>
	<line style="fill:none;stroke:#000000;stroke-miterlimit:1;" x1="87.881" y1="52.992" x2="82.286" y2="45.422"/>
	<line style="fill:none;stroke:#000000;stroke-miterlimit:1;" x1="82.286" y1="45.422" x2="77.678" y2="38.181"/>
	<line style="fill:none;stroke:#000000;stroke-miterlimit:1;" x1="77.678" y1="38.181" x2="72.741" y2="31.598"/>
	<line style="fill:none;stroke:#000000;stroke-miterlimit:1;" x1="72.741" y1="31.598" x2="66.816" y2="24.686"/>
	<line style="fill:none;stroke:#000000;stroke-miterlimit:1;" x1="66.816" y1="24.686" x2="60.892" y2="20.736"/>
	<line style="fill:none;stroke:#000000;stroke-miterlimit:1;" x1="60.892" y1="20.736" x2="59.246" y2="13.824"/>
	<line style="fill:none;stroke:#000000;stroke-miterlimit:1;" x1="59.246" y1="13.824" x2="57.929" y2="6.254"/>
	<line style="fill:none;stroke:#000000;stroke-miterlimit:1;" x1="57.929" y1="6.254" x2="55.955" y2="1.316"/>
	<line style="fill:none;stroke:#000000;stroke-miterlimit:1;" x1="55.955" y1="1.316" x2="50.359" y2="0"/>
	<line style="fill:none;stroke:#000000;stroke-miterlimit:1;" x1="50.359" y1="0" x2="41.143" y2="0"/>
	<line style="fill:none;stroke:#000000;stroke-miterlimit:1;" x1="41.143" y1="0" x2="30.939" y2="0.329"/>
	<line style="fill:none;stroke:#000000;stroke-miterlimit:1;" x1="30.939" y1="0.329" x2="26.002" y2="1.646"/>
	<line style="fill:none;stroke:#000000;stroke-miterlimit:1;" x1="26.002" y1="1.646" x2="23.698" y2="2.304"/>
	<line style="fill:none;stroke:#000000;stroke-miterlimit:1;" x1="23.698" y1="2.304" x2="6.912" y2="4.608"/>
	<line style="fill:none;stroke:#000000;stroke-miterlimit:1;" x1="6.912" y1="4.608" x2="1.975" y2="6.912"/>
	<line style="fill:none;stroke:#000000;stroke-miterlimit:1;" x1="1.975" y1="6.912" x2="0.329" y2="9.216"/>
	<line style="fill:none;stroke:#000000;stroke-miterlimit:1;" x1="0.329" y1="9.216" x2="0" y2="13.824"/>
	<line style="fill:none;stroke:#000000;stroke-miterlimit:1;" x1="0" y1="13.824" x2="1.975" y2="10.533"/>
	<line style="fill:none;stroke:#000000;stroke-miterlimit:1;" x1="1.975" y1="10.533" x2="5.267" y2="8.887"/>
	<line style="fill:none;stroke:#000000;stroke-miterlimit:1;" x1="5.267" y1="8.887" x2="15.141" y2="8.887"/>
	<line style="fill:none;stroke:#000000;stroke-miterlimit:1;" x1="15.141" y1="8.887" x2="25.344" y2="9.216"/>
	<line style="fill:none;stroke:#000000;stroke-miterlimit:1;" x1="25.344" y1="9.216" x2="30.61" y2="10.533"/>
	<line style="fill:none;stroke:#000000;stroke-miterlimit:1;" x1="30.61" y1="10.533" x2="26.332" y2="5.266"/>
	<line style="fill:none;stroke:#000000;stroke-miterlimit:1;" x1="26.332" y1="5.266" x2="25.344" y2="1.646"/>
	<line style="fill:none;stroke:#000000;stroke-miterlimit:1;" x1="36.206" y1="8.558" x2="37.193" y2="8.229"/>
	<line style="fill:none;stroke:#000000;stroke-miterlimit:1;" x1="37.193" y1="8.229" x2="37.852" y2="6.583"/>
	<line style="fill:none;stroke:#000000;stroke-miterlimit:1;" x1="37.852" y1="6.583" x2="37.193" y2="4.937"/>
	<line style="fill:none;stroke:#000000;stroke-miterlimit:1;" x1="37.193" y1="4.937" x2="35.876" y2="3.95"/>
	<line style="fill:none;stroke:#000000;stroke-miterlimit:1;" x1="35.876" y1="3.95" x2="34.56" y2="4.937"/>
	<line style="fill:none;stroke:#000000;stroke-miterlimit:1;" x1="34.56" y1="4.937" x2="34.231" y2="6.912"/>
	<line style="fill:none;stroke:#000000;stroke-miterlimit:1;" x1="34.231" y1="6.912" x2="34.889" y2="7.899"/>
	<line style="fill:none;stroke:#000000;stroke-miterlimit:1;" x1="34.889" y1="7.899" x2="35.876" y2="8.558"/>
	<line style="fill:none;stroke:#000000;stroke-miterlimit:1;" x1="1.646" y1="11.849" x2="14.812" y2="11.52"/>
	<line style="fill:none;stroke:#000000;stroke-miterlimit:1;" x1="14.812" y1="11.52" x2="25.015" y2="12.836"/>
	<line style="fill:none;stroke:#000000;stroke-miterlimit:1;" x1="25.015" y1="12.836" x2="27.977" y2="14.482"/>
	<line style="fill:none;stroke:#000000;stroke-miterlimit:1;" x1="27.977" y1="14.482" x2="28.965" y2="17.773"/>
	<line style="fill:none;stroke:#000000;stroke-miterlimit:1;" x1="28.965" y1="17.773" x2="29.294" y2="21.394"/>
	<line style="fill:none;stroke:#000000;stroke-miterlimit:1;" x1="29.294" y1="21.394" x2="26.332" y2="28.635"/>
	<line style="fill:none;stroke:#000000;stroke-miterlimit:1;" x1="26.332" y1="28.635" x2="25.015" y2="37.522"/>
	<line style="fill:none;stroke:#000000;stroke-miterlimit:1;" x1="25.015" y1="37.522" x2="26.661" y2="48.384"/>
	<line style="fill:none;stroke:#000000;stroke-miterlimit:1;" x1="26.661" y1="48.384" x2="27.977" y2="53.321"/>
	<line style="fill:none;stroke:#000000;stroke-miterlimit:1;" x1="27.977" y1="53.321" x2="31.598" y2="63.195"/>
	<line style="fill:none;stroke:#000000;stroke-miterlimit:1;" x1="31.598" y1="63.195" x2="35.876" y2="71.095"/>
	<line style="fill:none;stroke:#000000;stroke-miterlimit:1;" x1="35.876" y1="71.095" x2="46.08" y2="88.539"/>
	<line style="fill:none;stroke:#000000;stroke-miterlimit:1;" x1="46.08" y1="88.539" x2="59.575" y2="114.213"/>
	<line style="fill:none;stroke:#000000;stroke-miterlimit:1;" x1="59.575" y1="114.213" x2="60.892" y2="124.087"/>
	<line style="fill:none;stroke:#000000;stroke-miterlimit:1;" x1="60.892" y1="124.087" x2="59.246" y2="140.873"/>
	<line style="fill:none;stroke:#000000;stroke-miterlimit:1;" x1="59.246" y1="140.873" x2="57.6" y2="142.519"/>
	<line style="fill:none;stroke:#000000;stroke-miterlimit:1;" x1="57.6" y1="142.519" x2="48.055" y2="143.506"/>
	<line style="fill:none;stroke:#000000;stroke-miterlimit:1;" x1="48.055" y1="143.506" x2="36.864" y2="143.177"/>
	<line style="fill:none;stroke:#000000;stroke-miterlimit:1;" x1="36.864" y1="143.177" x2="36.206" y2="144.823"/>
	<line style="fill:none;stroke:#000000;stroke-miterlimit:1;" x1="36.206" y1="144.823" x2="31.269" y2="145.481"/>
	<line style="fill:none;stroke:#000000;stroke-miterlimit:1;" x1="31.269" y1="145.481" x2="30.61" y2="146.469"/>
	<line style="fill:none;stroke:#000000;stroke-miterlimit:1;" x1="30.61" y1="146.469" x2="31.598" y2="147.785"/>
	<line style="fill:none;stroke:#000000;stroke-miterlimit:1;" x1="31.598" y1="147.785" x2="59.904" y2="146.798"/>
	<line style="fill:none;stroke:#000000;stroke-miterlimit:1;" x1="59.904" y1="146.798" x2="89.198" y2="148.114"/>
	<line style="fill:none;stroke:#000000;stroke-miterlimit:1;" x1="89.198" y1="148.114" x2="90.515" y2="146.798"/>
	<line style="fill:none;stroke:#000000;stroke-miterlimit:1;" x1="90.515" y1="146.798" x2="89.856" y2="145.152"/>
	<line style="fill:none;stroke:#000000;stroke-miterlimit:1;" x1="89.856" y1="145.152" x2="85.248" y2="145.152"/>
	<line style="fill:none;stroke:#000000;stroke-miterlimit:1;" x1="85.248" y1="145.152" x2="82.615" y2="142.848"/>
	<line style="fill:none;stroke:#000000;stroke-miterlimit:1;" x1="82.615" y1="142.848" x2="65.829" y2="142.519"/>
	<line style="fill:none;stroke:#000000;stroke-miterlimit:1;" x1="65.829" y1="142.519" x2="63.854" y2="141.202"/>
	<line style="fill:none;stroke:#000000;stroke-miterlimit:1;" x1="63.854" y1="141.202" x2="65.829" y2="120.466"/>
	<line style="fill:none;stroke:#000000;stroke-miterlimit:1;" x1="65.829" y1="120.466" x2="78.007" y2="126.72"/>
	<line style="fill:none;stroke:#000000;stroke-miterlimit:1;" x1="78.007" y1="126.72" x2="84.919" y2="106.313"/>
	<line style="fill:none;stroke:#000000;stroke-miterlimit:1;" x1="84.919" y1="106.313" x2="98.084" y2="139.228"/>
	<line style="fill:none;stroke:#000000;stroke-miterlimit:1;" x1="98.084" y1="139.228" x2="102.693" y2="145.152"/>
	<line style="fill:none;stroke:#000000;stroke-miterlimit:1;" x1="102.693" y1="145.152" x2="107.301" y2="147.785"/>
	<line style="fill:none;stroke:#000000;stroke-miterlimit:1;" x1="107.301" y1="147.785" x2="114.213" y2="147.785"/>
	<line style="fill:none;stroke:#000000;stroke-miterlimit:1;" x1="114.213" y1="147.785" x2="118.163" y2="146.469"/>
	<line style="fill:none;stroke:#000000;stroke-miterlimit:1;" x1="118.163" y1="146.469" x2="119.15" y2="144.493"/>
	<line style="fill:none;stroke:#000000;stroke-miterlimit:1;" x1="119.15" y1="144.493" x2="115.858" y2="135.606"/>
	<line style="fill:none;stroke:#000000;stroke-miterlimit:1;" x1="34.231" y1="68.791" x2="38.51" y2="92.818"/>
	<line style="fill:none;stroke:#000000;stroke-miterlimit:1;" x1="38.51" y1="92.818" x2="38.181" y2="111.25"/>
	<line style="fill:none;stroke:#000000;stroke-miterlimit:1;" x1="38.181" y1="111.25" x2="34.889" y2="130.012"/>
	<line style="fill:none;stroke:#000000;stroke-miterlimit:1;" x1="34.889" y1="130.012" x2="31.927" y2="139.557"/>
	<line style="fill:none;stroke:#000000;stroke-miterlimit:1;" x1="31.927" y1="139.557" x2="29.952" y2="141.86"/>
	<line style="fill:none;stroke:#000000;stroke-miterlimit:1;" x1="29.952" y1="141.86" x2="14.153" y2="142.848"/>
	<line style="fill:none;stroke:#000000;stroke-miterlimit:1;" x1="14.153" y1="142.848" x2="12.507" y2="145.152"/>
	<line style="fill:none;stroke:#000000;stroke-miterlimit:1;" x1="12.507" y1="145.152" x2="8.887" y2="145.481"/>
	<line style="fill:none;stroke:#000000;stroke-miterlimit:1;" x1="8.887" y1="145.481" x2="7.57" y2="146.469"/>
	<line style="fill:none;stroke:#000000;stroke-miterlimit:1;" x1="7.57" y1="146.469" x2="8.887" y2="147.785"/>
	<line style="fill:none;stroke:#000000;stroke-miterlimit:1;" x1="8.887" y1="147.785" x2="21.065" y2="146.798"/>
	<line style="fill:none;stroke:#000000;stroke-miterlimit:1;" x1="21.065" y1="146.798" x2="24.686" y2="147.127"/>
	<line style="fill:none;stroke:#000000;stroke-miterlimit:1;" x1="36.535" y1="143.177" x2="30.939" y2="143.835"/>
	<line style="fill:none;stroke:#000000;stroke-miterlimit:1;" x1="30.939" y1="143.835" x2="30.939" y2="143.835"/>
	<line style="fill:none;stroke:#000000;stroke-miterlimit:1;" x1="30.939" y1="143.835" x2="27.648" y2="144.493"/>
	<line style="fill:none;stroke:#000000;stroke-miterlimit:1;" x1="27.648" y1="144.493" x2="25.673" y2="147.127"/>
	<line style="fill:none;stroke:#000000;stroke-miterlimit:1;" x1="25.673" y1="147.127" x2="26.99" y2="147.785"/>
	<line style="fill:none;stroke:#000000;stroke-miterlimit:1;" x1="26.99" y1="147.785" x2="28.965" y2="145.811"/>
	<line style="fill:none;stroke:#000000;stroke-miterlimit:1;" x1="28.965" y1="145.811" x2="30.939" y2="145.481"/>
	<line style="fill:none;stroke:#000000;stroke-miterlimit:1;" x1="36.206" y1="142.848" x2="43.447" y2="115.858"/>
	<line style="fill:none;stroke:#000000;stroke-miterlimit:1;" x1="43.447" y1="115.858" x2="54.638" y2="122.441"/>
	<line style="fill:none;stroke:#000000;stroke-miterlimit:1;" x1="54.638" y1="122.441" x2="56.942" y2="110.263"/>
	<line style="fill:none;stroke:#000000;stroke-miterlimit:1;" x1="13.166" y1="143.177" x2="7.899" y2="143.835"/>
	<line style="fill:none;stroke:#000000;stroke-miterlimit:1;" x1="7.899" y1="143.835" x2="7.899" y2="143.835"/>
	<line style="fill:none;stroke:#000000;stroke-miterlimit:1;" x1="7.899" y1="143.835" x2="4.608" y2="144.493"/>
	<line style="fill:none;stroke:#000000;stroke-miterlimit:1;" x1="4.608" y1="144.493" x2="2.633" y2="147.127"/>
	<line style="fill:none;stroke:#000000;stroke-miterlimit:1;" x1="2.633" y1="147.127" x2="3.621" y2="147.785"/>
	<line style="fill:none;stroke:#000000;stroke-miterlimit:1;" x1="3.621" y1="147.785" x2="5.925" y2="145.811"/>
	<line style="fill:none;stroke:#000000;stroke-miterlimit:1;" x1="5.925" y1="145.811" x2="8.558" y2="145.481"/>
	<line style="fill:none;stroke:#000000;stroke-miterlimit:1;" x1="83.273" y1="142.848" x2="89.527" y2="143.506"/>
	<line style="fill:none;stroke:#000000;stroke-miterlimit:1;" x1="89.527" y1="143.506" x2="92.489" y2="144.493"/>
	<line style="fill:none;stroke:#000000;stroke-miterlimit:1;" x1="92.489" y1="144.493" x2="94.464" y2="147.127"/>
	<line style="fill:none;stroke:#000000;stroke-miterlimit:1;" x1="94.464" y1="147.127" x2="93.477" y2="147.785"/>
	<line style="fill:none;stroke:#000000;stroke-miterlimit:1;" x1="93.477" y1="147.785" x2="91.173" y2="145.811"/>
	<line style="fill:none;stroke:#000000;stroke-miterlimit:1;" x1="91.173" y1="145.811" x2="89.527" y2="145.481"/>
	<line style="fill:none;stroke:#000000;stroke-miterlimit:1;" x1="159.388" y1="43.735" x2="162.021" y2="45.38"/>
	<line style="fill:none;stroke:#000000;stroke-miterlimit:1;" x1="162.021" y1="45.38" x2="163.996" y2="46.039"/>
	<line style="fill:none;stroke:#000000;stroke-miterlimit:1;" x1="163.996" y1="46.039" x2="164.983" y2="46.039"/>
	<line style="fill:none;stroke:#000000;stroke-miterlimit:1;" x1="164.983" y1="46.039" x2="165.97" y2="45.051"/>
	<line style="fill:none;stroke:#000000;stroke-miterlimit:1;" x1="165.97" y1="45.051" x2="167.287" y2="43.735"/>
	<line style="fill:none;stroke:#000000;stroke-miterlimit:1;" x1="167.287" y1="43.735" x2="173.87" y2="32.215"/>
	<line style="fill:none;stroke:#000000;stroke-miterlimit:1;" x1="173.87" y1="32.215" x2="173.87" y2="30.569"/>
	<line style="fill:none;stroke:#000000;stroke-miterlimit:1;" x1="173.87" y1="30.569" x2="173.541" y2="29.911"/>
	<line style="fill:none;stroke:#000000;stroke-miterlimit:1;" x1="173.541" y1="29.911" x2="172.882" y2="28.923"/>
	<line style="fill:none;stroke:#000000;stroke-miterlimit:1;" x1="172.882" y1="28.923" x2="170.579" y2="27.607"/>
	<line style="fill:none;stroke:#000000;stroke-miterlimit:1;" x1="170.579" y1="27.607" x2="116.599" y2="2.263"/>
	<line style="fill:none;stroke:#000000;stroke-miterlimit:1;" x1="116.599" y1="2.263" x2="115.282" y2="1.934"/>
	<line style="fill:none;stroke:#000000;stroke-miterlimit:1;" x1="115.282" y1="1.934" x2="113.637" y2="1.604"/>
	<line style="fill:none;stroke:#000000;stroke-miterlimit:1;" x1="113.637" y1="1.604" x2="111.991" y2="2.263"/>
	<line style="fill:none;stroke:#000000;stroke-miterlimit:1;" x1="111.991" y1="2.263" x2="110.345" y2="3.25"/>
	<line style="fill:none;stroke:#000000;stroke-miterlimit:1;" x1="110.345" y1="3.25" x2="109.687" y2="4.238"/>
	<line style="fill:none;stroke:#000000;stroke-miterlimit:1;" x1="109.687" y1="4.238" x2="109.029" y2="6.212"/>
	<line style="fill:none;stroke:#000000;stroke-miterlimit:1;" x1="109.029" y1="6.212" x2="109.029" y2="7.529"/>
	<line style="fill:none;stroke:#000000;stroke-miterlimit:1;" x1="109.029" y1="7.529" x2="109.687" y2="9.175"/>
	<line style="fill:none;stroke:#000000;stroke-miterlimit:1;" x1="109.687" y1="9.175" x2="110.674" y2="10.491"/>
	<line style="fill:none;stroke:#000000;stroke-miterlimit:1;" x1="110.674" y1="10.491" x2="112.32" y2="12.137"/>
	<line style="fill:none;stroke:#000000;stroke-miterlimit:1;" x1="112.32" y1="12.137" x2="159.388" y2="43.735"/>
	<line style="fill:none;stroke:#000000;stroke-miterlimit:1;" x1="367.488" y1="138.157" x2="193.371" y2="138.157"/>
	<line style="fill:none;stroke:#000000;stroke-miterlimit:1;" x1="193.371" y1="138.157" x2="193.371" y2="147.703"/>
	<line style="fill:none;stroke:#000000;stroke-miterlimit:1;" x1="193.371" y1="147.703" x2="367.488" y2="147.703"/>
	<line style="fill:none;stroke:#000000;stroke-miterlimit:1;" x1="367.488" y1="147.703" x2="367.488" y2="138.157"/>
	<line style="fill:none;stroke:#000000;stroke-miterlimit:1;" x1="214.107" y1="74.962" x2="212.791" y2="77.925"/>
	<line style="fill:none;stroke:#000000;stroke-miterlimit:1;" x1="212.791" y1="77.925" x2="212.462" y2="80.558"/>
	<line style="fill:none;stroke:#000000;stroke-miterlimit:1;" x1="212.462" y1="80.558" x2="214.107" y2="85.166"/>
	<line style="fill:none;stroke:#000000;stroke-miterlimit:1;" x1="214.107" y1="85.166" x2="216.411" y2="87.141"/>
	<line style="fill:none;stroke:#000000;stroke-miterlimit:1;" x1="216.411" y1="87.141" x2="218.387" y2="88.457"/>
	<line style="fill:none;stroke:#000000;stroke-miterlimit:1;" x1="218.387" y1="88.457" x2="221.678" y2="89.115"/>
	<line style="fill:none;stroke:#000000;stroke-miterlimit:1;" x1="221.678" y1="89.115" x2="224.64" y2="88.786"/>
	<line style="fill:none;stroke:#000000;stroke-miterlimit:1;" x1="224.64" y1="88.786" x2="227.273" y2="88.457"/>
	<line style="fill:none;stroke:#000000;stroke-miterlimit:1;" x1="227.273" y1="88.457" x2="230.894" y2="86.153"/>
	<line style="fill:none;stroke:#000000;stroke-miterlimit:1;" x1="230.894" y1="86.153" x2="233.198" y2="83.849"/>
	<line style="fill:none;stroke:#000000;stroke-miterlimit:1;" x1="233.198" y1="83.849" x2="234.186" y2="81.216"/>
	<line style="fill:none;stroke:#000000;stroke-miterlimit:1;" x1="234.186" y1="81.216" x2="235.502" y2="76.278"/>
	<line style="fill:none;stroke:#000000;stroke-miterlimit:1;" x1="235.502" y1="76.278" x2="235.502" y2="72.987"/>
	<line style="fill:none;stroke:#000000;stroke-miterlimit:1;" x1="235.502" y1="72.987" x2="235.173" y2="69.696"/>
	<line style="fill:none;stroke:#000000;stroke-miterlimit:1;" x1="235.173" y1="69.696" x2="233.198" y2="65.417"/>
	<line style="fill:none;stroke:#000000;stroke-miterlimit:1;" x1="233.198" y1="65.417" x2="230.235" y2="62.125"/>
	<line style="fill:none;stroke:#000000;stroke-miterlimit:1;" x1="230.235" y1="62.125" x2="227.273" y2="60.151"/>
	<line style="fill:none;stroke:#000000;stroke-miterlimit:1;" x1="227.273" y1="60.151" x2="221.349" y2="58.834"/>
	<line style="fill:none;stroke:#000000;stroke-miterlimit:1;" x1="221.349" y1="58.834" x2="217.729" y2="58.834"/>
	<line style="fill:none;stroke:#000000;stroke-miterlimit:1;" x1="217.729" y1="58.834" x2="213.778" y2="59.822"/>
	<line style="fill:none;stroke:#000000;stroke-miterlimit:1;" x1="213.778" y1="59.822" x2="210.158" y2="61.138"/>
	<line style="fill:none;stroke:#000000;stroke-miterlimit:1;" x1="210.158" y1="61.138" x2="206.866" y2="63.113"/>
	<line style="fill:none;stroke:#000000;stroke-miterlimit:1;" x1="206.866" y1="63.113" x2="204.562" y2="65.088"/>
	<line style="fill:none;stroke:#000000;stroke-miterlimit:1;" x1="204.562" y1="65.088" x2="202.259" y2="68.379"/>
	<line style="fill:none;stroke:#000000;stroke-miterlimit:1;" x1="202.259" y1="68.379" x2="200.941" y2="71.671"/>
	<line style="fill:none;stroke:#000000;stroke-miterlimit:1;" x1="200.941" y1="71.671" x2="199.296" y2="77.596"/>
	<line style="fill:none;stroke:#000000;stroke-miterlimit:1;" x1="199.296" y1="77.596" x2="199.625" y2="82.861"/>
	<line style="fill:none;stroke:#000000;stroke-miterlimit:1;" x1="199.625" y1="82.861" x2="200.612" y2="87.799"/>
	<line style="fill:none;stroke:#000000;stroke-miterlimit:1;" x1="200.612" y1="87.799" x2="202.588" y2="92.407"/>
	<line style="fill:none;stroke:#000000;stroke-miterlimit:1;" x1="202.588" y1="92.407" x2="210.487" y2="102.61"/>
	<line style="fill:none;stroke:#000000;stroke-miterlimit:1;" x1="210.487" y1="102.61" x2="223.323" y2="116.764"/>
	<line style="fill:none;stroke:#000000;stroke-miterlimit:1;" x1="223.323" y1="116.764" x2="236.489" y2="131.575"/>
	<line style="fill:none;stroke:#000000;stroke-miterlimit:1;" x1="236.489" y1="131.575" x2="241.098" y2="138.157"/>
	<line style="fill:none;stroke:#000000;stroke-miterlimit:1;" x1="328.649" y1="74.962" x2="327.004" y2="77.925"/>
	<line style="fill:none;stroke:#000000;stroke-miterlimit:1;" x1="327.004" y1="77.925" x2="327.004" y2="80.558"/>
	<line style="fill:none;stroke:#000000;stroke-miterlimit:1;" x1="327.004" y1="80.558" x2="328.32" y2="85.166"/>
	<line style="fill:none;stroke:#000000;stroke-miterlimit:1;" x1="328.32" y1="85.166" x2="330.624" y2="87.141"/>
	<line style="fill:none;stroke:#000000;stroke-miterlimit:1;" x1="330.624" y1="87.141" x2="332.599" y2="88.457"/>
	<line style="fill:none;stroke:#000000;stroke-miterlimit:1;" x1="332.599" y1="88.457" x2="336.22" y2="89.115"/>
	<line style="fill:none;stroke:#000000;stroke-miterlimit:1;" x1="336.22" y1="89.115" x2="339.182" y2="88.786"/>
	<line style="fill:none;stroke:#000000;stroke-miterlimit:1;" x1="339.182" y1="88.786" x2="341.485" y2="88.457"/>
	<line style="fill:none;stroke:#000000;stroke-miterlimit:1;" x1="341.485" y1="88.457" x2="345.436" y2="86.153"/>
	<line style="fill:none;stroke:#000000;stroke-miterlimit:1;" x1="345.436" y1="86.153" x2="347.41" y2="83.849"/>
	<line style="fill:none;stroke:#000000;stroke-miterlimit:1;" x1="347.41" y1="83.849" x2="348.727" y2="81.216"/>
	<line style="fill:none;stroke:#000000;stroke-miterlimit:1;" x1="348.727" y1="81.216" x2="349.715" y2="76.278"/>
	<line style="fill:none;stroke:#000000;stroke-miterlimit:1;" x1="349.715" y1="76.278" x2="350.044" y2="72.987"/>
	<line style="fill:none;stroke:#000000;stroke-miterlimit:1;" x1="350.044" y1="72.987" x2="349.715" y2="69.696"/>
	<line style="fill:none;stroke:#000000;stroke-miterlimit:1;" x1="349.715" y1="69.696" x2="347.739" y2="65.417"/>
	<line style="fill:none;stroke:#000000;stroke-miterlimit:1;" x1="347.739" y1="65.417" x2="344.777" y2="62.125"/>
	<line style="fill:none;stroke:#000000;stroke-miterlimit:1;" x1="344.777" y1="62.125" x2="341.815" y2="60.151"/>
	<line style="fill:none;stroke:#000000;stroke-miterlimit:1;" x1="341.815" y1="60.151" x2="335.891" y2="58.834"/>
	<line style="fill:none;stroke:#000000;stroke-miterlimit:1;" x1="335.891" y1="58.834" x2="331.94" y2="58.834"/>
	<line style="fill:none;stroke:#000000;stroke-miterlimit:1;" x1="331.94" y1="58.834" x2="328.32" y2="59.822"/>
	<line style="fill:none;stroke:#000000;stroke-miterlimit:1;" x1="328.32" y1="59.822" x2="324.699" y2="61.138"/>
	<line style="fill:none;stroke:#000000;stroke-miterlimit:1;" x1="324.699" y1="61.138" x2="321.408" y2="63.113"/>
	<line style="fill:none;stroke:#000000;stroke-miterlimit:1;" x1="321.408" y1="63.113" x2="319.104" y2="65.088"/>
	<line style="fill:none;stroke:#000000;stroke-miterlimit:1;" x1="319.104" y1="65.088" x2="316.471" y2="68.379"/>
	<line style="fill:none;stroke:#000000;stroke-miterlimit:1;" x1="316.471" y1="68.379" x2="315.154" y2="71.671"/>
	<line style="fill:none;stroke:#000000;stroke-miterlimit:1;" x1="315.154" y1="71.671" x2="314.167" y2="74.962"/>
	<line style="fill:none;stroke:#000000;stroke-miterlimit:1;" x1="314.167" y1="74.962" x2="313.838" y2="82.861"/>
	<line style="fill:none;stroke:#000000;stroke-miterlimit:1;" x1="313.838" y1="82.861" x2="315.154" y2="87.799"/>
	<line style="fill:none;stroke:#000000;stroke-miterlimit:1;" x1="315.154" y1="87.799" x2="317.129" y2="92.407"/>
	<line style="fill:none;stroke:#000000;stroke-miterlimit:1;" x1="317.129" y1="92.407" x2="325.028" y2="102.61"/>
	<line style="fill:none;stroke:#000000;stroke-miterlimit:1;" x1="325.028" y1="102.61" x2="337.865" y2="116.764"/>
	<line style="fill:none;stroke:#000000;stroke-miterlimit:1;" x1="337.865" y1="116.764" x2="351.031" y2="131.575"/>
	<line style="fill:none;stroke:#000000;stroke-miterlimit:1;" x1="351.031" y1="131.575" x2="355.639" y2="138.157"/>
	<line style="fill:none;stroke:#000000;stroke-miterlimit:1;" x1="271.378" y1="74.962" x2="270.062" y2="77.925"/>
	<line style="fill:none;stroke:#000000;stroke-miterlimit:1;" x1="270.062" y1="77.925" x2="269.732" y2="80.558"/>
	<line style="fill:none;stroke:#000000;stroke-miterlimit:1;" x1="269.732" y1="80.558" x2="271.378" y2="85.166"/>
	<line style="fill:none;stroke:#000000;stroke-miterlimit:1;" x1="271.378" y1="85.166" x2="273.683" y2="87.141"/>
	<line style="fill:none;stroke:#000000;stroke-miterlimit:1;" x1="273.683" y1="87.141" x2="275.657" y2="88.457"/>
	<line style="fill:none;stroke:#000000;stroke-miterlimit:1;" x1="275.657" y1="88.457" x2="278.948" y2="89.115"/>
	<line style="fill:none;stroke:#000000;stroke-miterlimit:1;" x1="278.948" y1="89.115" x2="281.911" y2="88.786"/>
	<line style="fill:none;stroke:#000000;stroke-miterlimit:1;" x1="281.911" y1="88.786" x2="284.544" y2="88.457"/>
	<line style="fill:none;stroke:#000000;stroke-miterlimit:1;" x1="284.544" y1="88.457" x2="288.165" y2="86.153"/>
	<line style="fill:none;stroke:#000000;stroke-miterlimit:1;" x1="288.165" y1="86.153" x2="290.14" y2="83.849"/>
	<line style="fill:none;stroke:#000000;stroke-miterlimit:1;" x1="290.14" y1="83.849" x2="291.456" y2="81.216"/>
	<line style="fill:none;stroke:#000000;stroke-miterlimit:1;" x1="291.456" y1="81.216" x2="292.772" y2="76.278"/>
	<line style="fill:none;stroke:#000000;stroke-miterlimit:1;" x1="292.772" y1="76.278" x2="292.772" y2="72.987"/>
	<line style="fill:none;stroke:#000000;stroke-miterlimit:1;" x1="292.772" y1="72.987" x2="292.443" y2="69.696"/>
	<line style="fill:none;stroke:#000000;stroke-miterlimit:1;" x1="292.443" y1="69.696" x2="290.469" y2="65.417"/>
	<line style="fill:none;stroke:#000000;stroke-miterlimit:1;" x1="290.469" y1="65.417" x2="287.507" y2="62.125"/>
	<line style="fill:none;stroke:#000000;stroke-miterlimit:1;" x1="287.507" y1="62.125" x2="284.544" y2="60.151"/>
	<line style="fill:none;stroke:#000000;stroke-miterlimit:1;" x1="284.544" y1="60.151" x2="278.619" y2="58.834"/>
	<line style="fill:none;stroke:#000000;stroke-miterlimit:1;" x1="278.619" y1="58.834" x2="274.999" y2="58.834"/>
	<line style="fill:none;stroke:#000000;stroke-miterlimit:1;" x1="274.999" y1="58.834" x2="271.049" y2="59.822"/>
	<line style="fill:none;stroke:#000000;stroke-miterlimit:1;" x1="271.049" y1="59.822" x2="267.429" y2="61.138"/>
	<line style="fill:none;stroke:#000000;stroke-miterlimit:1;" x1="267.429" y1="61.138" x2="263.808" y2="63.113"/>
	<line style="fill:none;stroke:#000000;stroke-miterlimit:1;" x1="263.808" y1="63.113" x2="261.833" y2="65.088"/>
	<line style="fill:none;stroke:#000000;stroke-miterlimit:1;" x1="261.833" y1="65.088" x2="259.529" y2="68.379"/>
	<line style="fill:none;stroke:#000000;stroke-miterlimit:1;" x1="259.529" y1="68.379" x2="258.213" y2="71.671"/>
	<line style="fill:none;stroke:#000000;stroke-miterlimit:1;" x1="258.213" y1="71.671" x2="256.896" y2="74.962"/>
	<line style="fill:none;stroke:#000000;stroke-miterlimit:1;" x1="256.896" y1="74.962" x2="256.896" y2="82.861"/>
	<line style="fill:none;stroke:#000000;stroke-miterlimit:1;" x1="256.896" y1="82.861" x2="257.884" y2="87.799"/>
	<line style="fill:none;stroke:#000000;stroke-miterlimit:1;" x1="257.884" y1="87.799" x2="259.858" y2="92.407"/>
	<line style="fill:none;stroke:#000000;stroke-miterlimit:1;" x1="259.858" y1="92.407" x2="267.758" y2="102.61"/>
	<line style="fill:none;stroke:#000000;stroke-miterlimit:1;" x1="267.758" y1="102.61" x2="280.595" y2="116.764"/>
	<line style="fill:none;stroke:#000000;stroke-miterlimit:1;" x1="280.595" y1="116.764" x2="293.76" y2="131.575"/>
	<line style="fill:none;stroke:#000000;stroke-miterlimit:1;" x1="293.76" y1="131.575" x2="298.368" y2="138.157"/>
</g>
</svg>
