<?xml version="1.0" encoding="iso-8859-1"?>
<!-- Generator: Adobe Illustrator 16.0.1, SVG Export Plug-In . SVG Version: 6.00 Build 0)  -->
<!DOCTYPE svg PUBLIC "-//W3C//DTD SVG 1.1//EN" "http://www.w3.org/Graphics/SVG/1.1/DTD/svg11.dtd">
<svg version="1.1" id="Ebene_1" xmlns="http://www.w3.org/2000/svg" xmlns:xlink="http://www.w3.org/1999/xlink" x="0px" y="0px"
	 width="352.43px" height="149.348px" viewBox="0 0 352.43 149.348" style="enable-background:new 0 0 352.43 149.348;"
	 xml:space="preserve">
<g>
	<line style="fill:none;stroke:#000000;stroke-miterlimit:1;" x1="42.459" y1="148.115" x2="9.875" y2="99.072"/>
	<line style="fill:none;stroke:#000000;stroke-miterlimit:1;" x1="9.875" y1="99.072" x2="7.57" y2="92.16"/>
	<line style="fill:none;stroke:#000000;stroke-miterlimit:1;" x1="7.57" y1="92.16" x2="6.912" y2="86.236"/>
	<line style="fill:none;stroke:#000000;stroke-miterlimit:1;" x1="6.912" y1="86.236" x2="7.899" y2="80.641"/>
	<line style="fill:none;stroke:#000000;stroke-miterlimit:1;" x1="7.899" y1="80.641" x2="9.216" y2="78.006"/>
	<line style="fill:none;stroke:#000000;stroke-miterlimit:1;" x1="9.216" y1="78.006" x2="11.191" y2="75.045"/>
	<line style="fill:none;stroke:#000000;stroke-miterlimit:1;" x1="11.191" y1="75.045" x2="13.824" y2="72.741"/>
	<line style="fill:none;stroke:#000000;stroke-miterlimit:1;" x1="13.824" y1="72.741" x2="16.458" y2="71.095"/>
	<line style="fill:none;stroke:#000000;stroke-miterlimit:1;" x1="16.458" y1="71.095" x2="17.445" y2="70.437"/>
	<line style="fill:none;stroke:#000000;stroke-miterlimit:1;" x1="17.445" y1="70.437" x2="22.382" y2="69.778"/>
	<line style="fill:none;stroke:#000000;stroke-miterlimit:1;" x1="22.382" y1="69.778" x2="27.319" y2="67.803"/>
	<line style="fill:none;stroke:#000000;stroke-miterlimit:1;" x1="27.319" y1="67.803" x2="30.939" y2="64.512"/>
	<line style="fill:none;stroke:#000000;stroke-miterlimit:1;" x1="30.939" y1="64.512" x2="33.902" y2="61.221"/>
	<line style="fill:none;stroke:#000000;stroke-miterlimit:1;" x1="33.902" y1="61.221" x2="35.547" y2="58.258"/>
	<line style="fill:none;stroke:#000000;stroke-miterlimit:1;" x1="35.547" y1="58.258" x2="36.535" y2="52.333"/>
	<line style="fill:none;stroke:#000000;stroke-miterlimit:1;" x1="36.535" y1="52.333" x2="35.877" y2="47.067"/>
	<line style="fill:none;stroke:#000000;stroke-miterlimit:1;" x1="35.877" y1="47.067" x2="34.231" y2="44.105"/>
	<line style="fill:none;stroke:#000000;stroke-miterlimit:1;" x1="34.231" y1="44.105" x2="32.585" y2="41.472"/>
	<line style="fill:none;stroke:#000000;stroke-miterlimit:1;" x1="32.585" y1="41.472" x2="29.623" y2="38.51"/>
	<line style="fill:none;stroke:#000000;stroke-miterlimit:1;" x1="29.623" y1="38.51" x2="26.99" y2="37.193"/>
	<line style="fill:none;stroke:#000000;stroke-miterlimit:1;" x1="26.99" y1="37.193" x2="22.711" y2="35.218"/>
	<line style="fill:none;stroke:#000000;stroke-miterlimit:1;" x1="22.711" y1="35.218" x2="17.445" y2="33.902"/>
	<line style="fill:none;stroke:#000000;stroke-miterlimit:1;" x1="17.445" y1="33.902" x2="14.812" y2="32.256"/>
	<line style="fill:none;stroke:#000000;stroke-miterlimit:1;" x1="14.812" y1="32.256" x2="10.204" y2="28.635"/>
	<line style="fill:none;stroke:#000000;stroke-miterlimit:1;" x1="10.204" y1="28.635" x2="8.229" y2="25.344"/>
	<line style="fill:none;stroke:#000000;stroke-miterlimit:1;" x1="8.229" y1="25.344" x2="7.241" y2="22.382"/>
	<line style="fill:none;stroke:#000000;stroke-miterlimit:1;" x1="7.241" y1="22.382" x2="6.254" y2="16.457"/>
	<line style="fill:none;stroke:#000000;stroke-miterlimit:1;" x1="6.254" y1="16.457" x2="6.912" y2="11.191"/>
	<line style="fill:none;stroke:#000000;stroke-miterlimit:1;" x1="6.912" y1="11.191" x2="8.229" y2="8.558"/>
	<line style="fill:none;stroke:#000000;stroke-miterlimit:1;" x1="8.229" y1="8.558" x2="10.204" y2="5.595"/>
	<line style="fill:none;stroke:#000000;stroke-miterlimit:1;" x1="10.204" y1="5.595" x2="13.166" y2="2.962"/>
	<line style="fill:none;stroke:#000000;stroke-miterlimit:1;" x1="13.166" y1="2.962" x2="15.141" y2="1.316"/>
	<line style="fill:none;stroke:#000000;stroke-miterlimit:1;" x1="15.141" y1="1.316" x2="18.761" y2="0.329"/>
	<line style="fill:none;stroke:#000000;stroke-miterlimit:1;" x1="18.761" y1="0.329" x2="21.395" y2="0"/>
	<line style="fill:none;stroke:#000000;stroke-miterlimit:1;" x1="0" y1="148.115" x2="33.244" y2="97.098"/>
	<line style="fill:none;stroke:#000000;stroke-miterlimit:1;" x1="33.244" y1="97.098" x2="34.889" y2="93.146"/>
	<line style="fill:none;stroke:#000000;stroke-miterlimit:1;" x1="34.889" y1="93.146" x2="35.218" y2="86.236"/>
	<line style="fill:none;stroke:#000000;stroke-miterlimit:1;" x1="35.218" y1="86.236" x2="34.56" y2="80.641"/>
	<line style="fill:none;stroke:#000000;stroke-miterlimit:1;" x1="34.56" y1="80.641" x2="33.244" y2="78.006"/>
	<line style="fill:none;stroke:#000000;stroke-miterlimit:1;" x1="33.244" y1="78.006" x2="31.598" y2="75.703"/>
	<line style="fill:none;stroke:#000000;stroke-miterlimit:1;" x1="31.598" y1="75.703" x2="28.636" y2="72.741"/>
	<line style="fill:none;stroke:#000000;stroke-miterlimit:1;" x1="28.636" y1="72.741" x2="26.002" y2="71.095"/>
	<line style="fill:none;stroke:#000000;stroke-miterlimit:1;" x1="26.002" y1="71.095" x2="25.015" y2="70.437"/>
	<line style="fill:none;stroke:#000000;stroke-miterlimit:1;" x1="25.015" y1="70.437" x2="17.116" y2="68.791"/>
	<line style="fill:none;stroke:#000000;stroke-miterlimit:1;" x1="17.116" y1="68.791" x2="15.141" y2="67.803"/>
	<line style="fill:none;stroke:#000000;stroke-miterlimit:1;" x1="15.141" y1="67.803" x2="12.837" y2="66.487"/>
	<line style="fill:none;stroke:#000000;stroke-miterlimit:1;" x1="12.837" y1="66.487" x2="10.533" y2="64.183"/>
	<line style="fill:none;stroke:#000000;stroke-miterlimit:1;" x1="10.533" y1="64.183" x2="8.229" y2="60.892"/>
	<line style="fill:none;stroke:#000000;stroke-miterlimit:1;" x1="8.229" y1="60.892" x2="6.912" y2="57.929"/>
	<line style="fill:none;stroke:#000000;stroke-miterlimit:1;" x1="6.912" y1="57.929" x2="5.596" y2="52.004"/>
	<line style="fill:none;stroke:#000000;stroke-miterlimit:1;" x1="5.596" y1="52.004" x2="6.583" y2="46.409"/>
	<line style="fill:none;stroke:#000000;stroke-miterlimit:1;" x1="6.583" y1="46.409" x2="8.558" y2="43.776"/>
	<line style="fill:none;stroke:#000000;stroke-miterlimit:1;" x1="8.558" y1="43.776" x2="10.204" y2="41.143"/>
	<line style="fill:none;stroke:#000000;stroke-miterlimit:1;" x1="10.204" y1="41.143" x2="13.495" y2="38.181"/>
	<line style="fill:none;stroke:#000000;stroke-miterlimit:1;" x1="13.495" y1="38.181" x2="15.799" y2="36.864"/>
	<line style="fill:none;stroke:#000000;stroke-miterlimit:1;" x1="15.799" y1="36.864" x2="19.749" y2="35.218"/>
	<line style="fill:none;stroke:#000000;stroke-miterlimit:1;" x1="19.749" y1="35.218" x2="24.686" y2="33.573"/>
	<line style="fill:none;stroke:#000000;stroke-miterlimit:1;" x1="24.686" y1="33.573" x2="27.648" y2="31.598"/>
	<line style="fill:none;stroke:#000000;stroke-miterlimit:1;" x1="27.648" y1="31.598" x2="31.269" y2="28.964"/>
	<line style="fill:none;stroke:#000000;stroke-miterlimit:1;" x1="31.269" y1="28.964" x2="34.231" y2="25.015"/>
	<line style="fill:none;stroke:#000000;stroke-miterlimit:1;" x1="34.231" y1="25.015" x2="34.889" y2="22.053"/>
	<line style="fill:none;stroke:#000000;stroke-miterlimit:1;" x1="34.889" y1="22.053" x2="36.206" y2="16.128"/>
	<line style="fill:none;stroke:#000000;stroke-miterlimit:1;" x1="36.206" y1="16.128" x2="35.218" y2="10.862"/>
	<line style="fill:none;stroke:#000000;stroke-miterlimit:1;" x1="35.218" y1="10.862" x2="33.902" y2="8.229"/>
	<line style="fill:none;stroke:#000000;stroke-miterlimit:1;" x1="33.902" y1="8.229" x2="31.927" y2="5.266"/>
	<line style="fill:none;stroke:#000000;stroke-miterlimit:1;" x1="31.927" y1="5.266" x2="28.965" y2="2.633"/>
	<line style="fill:none;stroke:#000000;stroke-miterlimit:1;" x1="28.965" y1="2.633" x2="25.673" y2="0.658"/>
	<line style="fill:none;stroke:#000000;stroke-miterlimit:1;" x1="25.673" y1="0.658" x2="21.395" y2="0"/>
	<line style="fill:none;stroke:#000000;stroke-miterlimit:1;" x1="137.788" y1="42.5" x2="140.421" y2="44.146"/>
	<line style="fill:none;stroke:#000000;stroke-miterlimit:1;" x1="140.421" y1="44.146" x2="142.396" y2="44.805"/>
	<line style="fill:none;stroke:#000000;stroke-miterlimit:1;" x1="142.396" y1="44.805" x2="143.383" y2="44.805"/>
	<line style="fill:none;stroke:#000000;stroke-miterlimit:1;" x1="143.383" y1="44.805" x2="144.371" y2="43.817"/>
	<line style="fill:none;stroke:#000000;stroke-miterlimit:1;" x1="144.371" y1="43.817" x2="145.687" y2="42.5"/>
	<line style="fill:none;stroke:#000000;stroke-miterlimit:1;" x1="145.687" y1="42.5" x2="152.27" y2="30.98"/>
	<line style="fill:none;stroke:#000000;stroke-miterlimit:1;" x1="152.27" y1="30.98" x2="152.27" y2="29.335"/>
	<line style="fill:none;stroke:#000000;stroke-miterlimit:1;" x1="152.27" y1="29.335" x2="151.941" y2="28.677"/>
	<line style="fill:none;stroke:#000000;stroke-miterlimit:1;" x1="151.941" y1="28.677" x2="151.283" y2="27.689"/>
	<line style="fill:none;stroke:#000000;stroke-miterlimit:1;" x1="151.283" y1="27.689" x2="148.979" y2="26.373"/>
	<line style="fill:none;stroke:#000000;stroke-miterlimit:1;" x1="148.979" y1="26.373" x2="94.999" y2="1.029"/>
	<line style="fill:none;stroke:#000000;stroke-miterlimit:1;" x1="94.999" y1="1.029" x2="93.683" y2="0.699"/>
	<line style="fill:none;stroke:#000000;stroke-miterlimit:1;" x1="93.683" y1="0.699" x2="92.037" y2="0.37"/>
	<line style="fill:none;stroke:#000000;stroke-miterlimit:1;" x1="92.037" y1="0.37" x2="90.391" y2="1.029"/>
	<line style="fill:none;stroke:#000000;stroke-miterlimit:1;" x1="90.391" y1="1.029" x2="88.745" y2="2.016"/>
	<line style="fill:none;stroke:#000000;stroke-miterlimit:1;" x1="88.745" y1="2.016" x2="88.087" y2="3.003"/>
	<line style="fill:none;stroke:#000000;stroke-miterlimit:1;" x1="88.087" y1="3.003" x2="87.429" y2="4.978"/>
	<line style="fill:none;stroke:#000000;stroke-miterlimit:1;" x1="87.429" y1="4.978" x2="87.429" y2="6.295"/>
	<line style="fill:none;stroke:#000000;stroke-miterlimit:1;" x1="87.429" y1="6.295" x2="88.087" y2="7.94"/>
	<line style="fill:none;stroke:#000000;stroke-miterlimit:1;" x1="88.087" y1="7.94" x2="89.075" y2="9.257"/>
	<line style="fill:none;stroke:#000000;stroke-miterlimit:1;" x1="89.075" y1="9.257" x2="90.72" y2="10.903"/>
	<line style="fill:none;stroke:#000000;stroke-miterlimit:1;" x1="90.72" y1="10.903" x2="137.788" y2="42.5"/>
	<line style="fill:none;stroke:#000000;stroke-miterlimit:1;" x1="68.915" y1="90.104" x2="68.915" y2="149.348"/>
	<line style="fill:none;stroke:#000000;stroke-miterlimit:1;" x1="68.915" y1="149.348" x2="79.447" y2="149.348"/>
	<line style="fill:none;stroke:#000000;stroke-miterlimit:1;" x1="79.447" y1="149.348" x2="79.447" y2="90.104"/>
	<line style="fill:none;stroke:#000000;stroke-miterlimit:1;" x1="79.447" y1="90.104" x2="68.915" y2="90.104"/>
	<line style="fill:none;stroke:#000000;stroke-miterlimit:1;" x1="121.577" y1="90.104" x2="121.577" y2="149.348"/>
	<line style="fill:none;stroke:#000000;stroke-miterlimit:1;" x1="121.577" y1="149.348" x2="132.439" y2="149.348"/>
	<line style="fill:none;stroke:#000000;stroke-miterlimit:1;" x1="132.439" y1="149.348" x2="132.439" y2="90.104"/>
	<line style="fill:none;stroke:#000000;stroke-miterlimit:1;" x1="132.439" y1="90.104" x2="121.577" y2="90.104"/>
	<line style="fill:none;stroke:#000000;stroke-miterlimit:1;" x1="174.898" y1="90.104" x2="174.898" y2="149.348"/>
	<line style="fill:none;stroke:#000000;stroke-miterlimit:1;" x1="174.898" y1="149.348" x2="185.432" y2="149.348"/>
	<line style="fill:none;stroke:#000000;stroke-miterlimit:1;" x1="185.432" y1="149.348" x2="185.432" y2="90.104"/>
	<line style="fill:none;stroke:#000000;stroke-miterlimit:1;" x1="185.432" y1="90.104" x2="174.898" y2="90.104"/>
	<line style="fill:none;stroke:#000000;stroke-miterlimit:1;" x1="203.658" y1="23.739" x2="210.898" y2="23.739"/>
	<line style="fill:none;stroke:#000000;stroke-miterlimit:1;" x1="210.898" y1="23.739" x2="222.09" y2="9.586"/>
	<line style="fill:none;stroke:#000000;stroke-miterlimit:1;" x1="222.09" y1="9.586" x2="231.635" y2="21.765"/>
	<line style="fill:none;stroke:#000000;stroke-miterlimit:1;" x1="231.635" y1="21.765" x2="240.85" y2="9.586"/>
	<line style="fill:none;stroke:#000000;stroke-miterlimit:1;" x1="240.85" y1="9.586" x2="250.066" y2="21.765"/>
	<line style="fill:none;stroke:#000000;stroke-miterlimit:1;" x1="250.066" y1="21.765" x2="259.283" y2="9.586"/>
	<line style="fill:none;stroke:#000000;stroke-miterlimit:1;" x1="259.283" y1="9.586" x2="268.828" y2="21.765"/>
	<line style="fill:none;stroke:#000000;stroke-miterlimit:1;" x1="268.828" y1="21.765" x2="277.715" y2="9.586"/>
	<line style="fill:none;stroke:#000000;stroke-miterlimit:1;" x1="277.715" y1="9.586" x2="287.26" y2="21.765"/>
	<line style="fill:none;stroke:#000000;stroke-miterlimit:1;" x1="287.26" y1="21.765" x2="296.146" y2="9.586"/>
	<line style="fill:none;stroke:#000000;stroke-miterlimit:1;" x1="296.146" y1="9.586" x2="306.021" y2="21.765"/>
	<line style="fill:none;stroke:#000000;stroke-miterlimit:1;" x1="306.021" y1="21.765" x2="315.236" y2="9.586"/>
	<line style="fill:none;stroke:#000000;stroke-miterlimit:1;" x1="315.236" y1="9.586" x2="324.453" y2="21.765"/>
	<line style="fill:none;stroke:#000000;stroke-miterlimit:1;" x1="324.453" y1="21.765" x2="333.34" y2="9.586"/>
	<line style="fill:none;stroke:#000000;stroke-miterlimit:1;" x1="333.34" y1="9.586" x2="345.189" y2="23.739"/>
	<line style="fill:none;stroke:#000000;stroke-miterlimit:1;" x1="345.189" y1="23.739" x2="352.43" y2="23.739"/>
	<line style="fill:none;stroke:#000000;stroke-miterlimit:1;" x1="352.43" y1="23.739" x2="333.668" y2="1.029"/>
	<line style="fill:none;stroke:#000000;stroke-miterlimit:1;" x1="333.668" y1="1.029" x2="324.123" y2="13.536"/>
	<line style="fill:none;stroke:#000000;stroke-miterlimit:1;" x1="324.123" y1="13.536" x2="315.236" y2="1.029"/>
	<line style="fill:none;stroke:#000000;stroke-miterlimit:1;" x1="315.236" y1="1.029" x2="306.35" y2="14.523"/>
	<line style="fill:none;stroke:#000000;stroke-miterlimit:1;" x1="306.35" y1="14.523" x2="295.816" y2="1.029"/>
	<line style="fill:none;stroke:#000000;stroke-miterlimit:1;" x1="295.816" y1="1.029" x2="287.26" y2="13.536"/>
	<line style="fill:none;stroke:#000000;stroke-miterlimit:1;" x1="287.26" y1="13.536" x2="277.385" y2="1.029"/>
	<line style="fill:none;stroke:#000000;stroke-miterlimit:1;" x1="277.385" y1="1.029" x2="268.828" y2="13.536"/>
	<line style="fill:none;stroke:#000000;stroke-miterlimit:1;" x1="268.828" y1="13.536" x2="259.283" y2="1.029"/>
	<line style="fill:none;stroke:#000000;stroke-miterlimit:1;" x1="259.283" y1="1.029" x2="249.738" y2="14.523"/>
	<line style="fill:none;stroke:#000000;stroke-miterlimit:1;" x1="249.738" y1="14.523" x2="240.521" y2="1.029"/>
	<line style="fill:none;stroke:#000000;stroke-miterlimit:1;" x1="240.521" y1="1.029" x2="231.635" y2="13.865"/>
	<line style="fill:none;stroke:#000000;stroke-miterlimit:1;" x1="231.635" y1="13.865" x2="221.432" y2="1.029"/>
	<line style="fill:none;stroke:#000000;stroke-miterlimit:1;" x1="221.432" y1="1.029" x2="203.658" y2="23.739"/>
	<line style="fill:none;stroke:#000000;stroke-miterlimit:1;" x1="203.658" y1="86.277" x2="210.898" y2="86.277"/>
	<line style="fill:none;stroke:#000000;stroke-miterlimit:1;" x1="210.898" y1="86.277" x2="222.09" y2="72.453"/>
	<line style="fill:none;stroke:#000000;stroke-miterlimit:1;" x1="222.09" y1="72.453" x2="231.635" y2="84.631"/>
	<line style="fill:none;stroke:#000000;stroke-miterlimit:1;" x1="231.635" y1="84.631" x2="240.85" y2="72.453"/>
	<line style="fill:none;stroke:#000000;stroke-miterlimit:1;" x1="240.85" y1="72.453" x2="250.066" y2="84.631"/>
	<line style="fill:none;stroke:#000000;stroke-miterlimit:1;" x1="250.066" y1="84.631" x2="259.283" y2="72.453"/>
	<line style="fill:none;stroke:#000000;stroke-miterlimit:1;" x1="259.283" y1="72.453" x2="268.828" y2="84.631"/>
	<line style="fill:none;stroke:#000000;stroke-miterlimit:1;" x1="268.828" y1="84.631" x2="277.715" y2="72.453"/>
	<line style="fill:none;stroke:#000000;stroke-miterlimit:1;" x1="277.715" y1="72.453" x2="287.26" y2="84.631"/>
	<line style="fill:none;stroke:#000000;stroke-miterlimit:1;" x1="287.26" y1="84.631" x2="296.146" y2="72.453"/>
	<line style="fill:none;stroke:#000000;stroke-miterlimit:1;" x1="296.146" y1="72.453" x2="306.021" y2="84.631"/>
	<line style="fill:none;stroke:#000000;stroke-miterlimit:1;" x1="306.021" y1="84.631" x2="315.236" y2="72.453"/>
	<line style="fill:none;stroke:#000000;stroke-miterlimit:1;" x1="315.236" y1="72.453" x2="324.453" y2="84.631"/>
	<line style="fill:none;stroke:#000000;stroke-miterlimit:1;" x1="324.453" y1="84.631" x2="333.34" y2="72.453"/>
	<line style="fill:none;stroke:#000000;stroke-miterlimit:1;" x1="333.34" y1="72.453" x2="345.189" y2="86.277"/>
	<line style="fill:none;stroke:#000000;stroke-miterlimit:1;" x1="345.189" y1="86.277" x2="352.43" y2="86.277"/>
	<line style="fill:none;stroke:#000000;stroke-miterlimit:1;" x1="352.43" y1="86.277" x2="333.668" y2="63.895"/>
	<line style="fill:none;stroke:#000000;stroke-miterlimit:1;" x1="333.668" y1="63.895" x2="324.123" y2="76.072"/>
	<line style="fill:none;stroke:#000000;stroke-miterlimit:1;" x1="324.123" y1="76.072" x2="315.236" y2="63.895"/>
	<line style="fill:none;stroke:#000000;stroke-miterlimit:1;" x1="315.236" y1="63.895" x2="306.35" y2="77.061"/>
	<line style="fill:none;stroke:#000000;stroke-miterlimit:1;" x1="306.35" y1="77.061" x2="295.816" y2="63.895"/>
	<line style="fill:none;stroke:#000000;stroke-miterlimit:1;" x1="295.816" y1="63.895" x2="287.26" y2="76.072"/>
	<line style="fill:none;stroke:#000000;stroke-miterlimit:1;" x1="287.26" y1="76.072" x2="277.385" y2="63.895"/>
	<line style="fill:none;stroke:#000000;stroke-miterlimit:1;" x1="277.385" y1="63.895" x2="268.828" y2="76.072"/>
	<line style="fill:none;stroke:#000000;stroke-miterlimit:1;" x1="268.828" y1="76.072" x2="259.283" y2="63.895"/>
	<line style="fill:none;stroke:#000000;stroke-miterlimit:1;" x1="259.283" y1="63.895" x2="249.738" y2="77.061"/>
	<line style="fill:none;stroke:#000000;stroke-miterlimit:1;" x1="249.738" y1="77.061" x2="240.521" y2="63.895"/>
	<line style="fill:none;stroke:#000000;stroke-miterlimit:1;" x1="240.521" y1="63.895" x2="231.635" y2="76.402"/>
	<line style="fill:none;stroke:#000000;stroke-miterlimit:1;" x1="231.635" y1="76.402" x2="221.432" y2="63.895"/>
	<line style="fill:none;stroke:#000000;stroke-miterlimit:1;" x1="221.432" y1="63.895" x2="203.658" y2="86.277"/>
	<line style="fill:none;stroke:#000000;stroke-miterlimit:1;" x1="203.658" y1="149.143" x2="210.898" y2="149.143"/>
	<line style="fill:none;stroke:#000000;stroke-miterlimit:1;" x1="210.898" y1="149.143" x2="222.09" y2="135.318"/>
	<line style="fill:none;stroke:#000000;stroke-miterlimit:1;" x1="222.09" y1="135.318" x2="231.635" y2="147.168"/>
	<line style="fill:none;stroke:#000000;stroke-miterlimit:1;" x1="231.635" y1="147.168" x2="240.85" y2="135.318"/>
	<line style="fill:none;stroke:#000000;stroke-miterlimit:1;" x1="240.85" y1="135.318" x2="250.066" y2="147.168"/>
	<line style="fill:none;stroke:#000000;stroke-miterlimit:1;" x1="250.066" y1="147.168" x2="259.283" y2="135.318"/>
	<line style="fill:none;stroke:#000000;stroke-miterlimit:1;" x1="259.283" y1="135.318" x2="268.828" y2="147.168"/>
	<line style="fill:none;stroke:#000000;stroke-miterlimit:1;" x1="268.828" y1="147.168" x2="277.715" y2="135.318"/>
	<line style="fill:none;stroke:#000000;stroke-miterlimit:1;" x1="277.715" y1="135.318" x2="287.26" y2="147.168"/>
	<line style="fill:none;stroke:#000000;stroke-miterlimit:1;" x1="287.26" y1="147.168" x2="296.146" y2="135.318"/>
	<line style="fill:none;stroke:#000000;stroke-miterlimit:1;" x1="296.146" y1="135.318" x2="306.021" y2="147.168"/>
	<line style="fill:none;stroke:#000000;stroke-miterlimit:1;" x1="306.021" y1="147.168" x2="315.236" y2="135.318"/>
	<line style="fill:none;stroke:#000000;stroke-miterlimit:1;" x1="315.236" y1="135.318" x2="324.453" y2="147.168"/>
	<line style="fill:none;stroke:#000000;stroke-miterlimit:1;" x1="324.453" y1="147.168" x2="333.34" y2="135.318"/>
	<line style="fill:none;stroke:#000000;stroke-miterlimit:1;" x1="333.34" y1="135.318" x2="345.189" y2="149.143"/>
	<line style="fill:none;stroke:#000000;stroke-miterlimit:1;" x1="345.189" y1="149.143" x2="352.43" y2="149.143"/>
	<line style="fill:none;stroke:#000000;stroke-miterlimit:1;" x1="352.43" y1="149.143" x2="333.668" y2="126.432"/>
	<line style="fill:none;stroke:#000000;stroke-miterlimit:1;" x1="333.668" y1="126.432" x2="324.123" y2="138.939"/>
	<line style="fill:none;stroke:#000000;stroke-miterlimit:1;" x1="324.123" y1="138.939" x2="315.236" y2="126.432"/>
	<line style="fill:none;stroke:#000000;stroke-miterlimit:1;" x1="315.236" y1="126.432" x2="306.35" y2="139.928"/>
	<line style="fill:none;stroke:#000000;stroke-miterlimit:1;" x1="306.35" y1="139.928" x2="295.816" y2="126.432"/>
	<line style="fill:none;stroke:#000000;stroke-miterlimit:1;" x1="295.816" y1="126.432" x2="287.26" y2="138.939"/>
	<line style="fill:none;stroke:#000000;stroke-miterlimit:1;" x1="287.26" y1="138.939" x2="277.385" y2="126.432"/>
	<line style="fill:none;stroke:#000000;stroke-miterlimit:1;" x1="277.385" y1="126.432" x2="268.828" y2="138.939"/>
	<line style="fill:none;stroke:#000000;stroke-miterlimit:1;" x1="268.828" y1="138.939" x2="259.283" y2="126.432"/>
	<line style="fill:none;stroke:#000000;stroke-miterlimit:1;" x1="259.283" y1="126.432" x2="249.738" y2="139.928"/>
	<line style="fill:none;stroke:#000000;stroke-miterlimit:1;" x1="249.738" y1="139.928" x2="240.521" y2="126.432"/>
	<line style="fill:none;stroke:#000000;stroke-miterlimit:1;" x1="240.521" y1="126.432" x2="231.635" y2="139.268"/>
	<line style="fill:none;stroke:#000000;stroke-miterlimit:1;" x1="231.635" y1="139.268" x2="221.432" y2="126.432"/>
	<line style="fill:none;stroke:#000000;stroke-miterlimit:1;" x1="221.432" y1="126.432" x2="203.658" y2="149.143"/>
</g>
</svg>
