<?xml version="1.0" encoding="iso-8859-1"?>
<!-- Generator: Adobe Illustrator 16.0.1, SVG Export Plug-In . SVG Version: 6.00 Build 0)  -->
<!DOCTYPE svg PUBLIC "-//W3C//DTD SVG 1.1//EN" "http://www.w3.org/Graphics/SVG/1.1/DTD/svg11.dtd">
<svg version="1.1" id="Ebene_1" xmlns="http://www.w3.org/2000/svg" xmlns:xlink="http://www.w3.org/1999/xlink" x="0px" y="0px"
	 width="328.156px" height="148.114px" viewBox="0 0 328.156 148.114" style="enable-background:new 0 0 328.156 148.114;"
	 xml:space="preserve">
<g>
	<line style="fill:none;stroke:#000000;stroke-miterlimit:1;" x1="0" y1="56.572" x2="52.663" y2="56.572"/>
	<line style="fill:none;stroke:#000000;stroke-miterlimit:1;" x1="52.663" y1="56.572" x2="52.663" y2="109.234"/>
	<line style="fill:none;stroke:#000000;stroke-miterlimit:1;" x1="52.663" y1="109.234" x2="0" y2="109.234"/>
	<line style="fill:none;stroke:#000000;stroke-miterlimit:1;" x1="0" y1="109.234" x2="0" y2="56.572"/>
	<line style="fill:none;stroke:#000000;stroke-miterlimit:1;" x1="130.381" y1="39.497" x2="123.141" y2="38.839"/>
	<line style="fill:none;stroke:#000000;stroke-miterlimit:1;" x1="123.141" y1="38.839" x2="111.621" y2="39.497"/>
	<line style="fill:none;stroke:#000000;stroke-miterlimit:1;" x1="111.621" y1="39.497" x2="103.063" y2="38.51"/>
	<line style="fill:none;stroke:#000000;stroke-miterlimit:1;" x1="103.063" y1="38.51" x2="100.43" y2="39.497"/>
	<line style="fill:none;stroke:#000000;stroke-miterlimit:1;" x1="100.43" y1="39.497" x2="98.455" y2="42.13"/>
	<line style="fill:none;stroke:#000000;stroke-miterlimit:1;" x1="98.455" y1="42.13" x2="99.113" y2="46.738"/>
	<line style="fill:none;stroke:#000000;stroke-miterlimit:1;" x1="99.113" y1="46.738" x2="102.404" y2="57.271"/>
	<line style="fill:none;stroke:#000000;stroke-miterlimit:1;" x1="102.404" y1="57.271" x2="108.658" y2="67.475"/>
	<line style="fill:none;stroke:#000000;stroke-miterlimit:1;" x1="108.658" y1="67.475" x2="129.065" y2="91.831"/>
	<line style="fill:none;stroke:#000000;stroke-miterlimit:1;" x1="129.065" y1="91.831" x2="139.598" y2="101.705"/>
	<line style="fill:none;stroke:#000000;stroke-miterlimit:1;" x1="139.598" y1="101.705" x2="154.738" y2="115.858"/>
	<line style="fill:none;stroke:#000000;stroke-miterlimit:1;" x1="154.738" y1="115.858" x2="186.994" y2="147.456"/>
	<line style="fill:none;stroke:#000000;stroke-miterlimit:1;" x1="186.994" y1="147.456" x2="190.285" y2="147.456"/>
	<line style="fill:none;stroke:#000000;stroke-miterlimit:1;" x1="190.285" y1="147.456" x2="191.273" y2="145.811"/>
	<line style="fill:none;stroke:#000000;stroke-miterlimit:1;" x1="191.273" y1="145.811" x2="189.957" y2="142.849"/>
	<line style="fill:none;stroke:#000000;stroke-miterlimit:1;" x1="189.957" y1="142.849" x2="176.133" y2="111.25"/>
	<line style="fill:none;stroke:#000000;stroke-miterlimit:1;" x1="176.133" y1="111.25" x2="174.158" y2="105.326"/>
	<line style="fill:none;stroke:#000000;stroke-miterlimit:1;" x1="174.158" y1="105.326" x2="163.625" y2="79.981"/>
	<line style="fill:none;stroke:#000000;stroke-miterlimit:1;" x1="163.625" y1="79.981" x2="154.08" y2="63.525"/>
	<line style="fill:none;stroke:#000000;stroke-miterlimit:1;" x1="154.08" y1="63.525" x2="146.51" y2="52.992"/>
	<line style="fill:none;stroke:#000000;stroke-miterlimit:1;" x1="146.51" y1="52.992" x2="140.914" y2="45.422"/>
	<line style="fill:none;stroke:#000000;stroke-miterlimit:1;" x1="140.914" y1="45.422" x2="136.306" y2="38.181"/>
	<line style="fill:none;stroke:#000000;stroke-miterlimit:1;" x1="136.306" y1="38.181" x2="131.369" y2="31.598"/>
	<line style="fill:none;stroke:#000000;stroke-miterlimit:1;" x1="131.369" y1="31.598" x2="125.444" y2="24.686"/>
	<line style="fill:none;stroke:#000000;stroke-miterlimit:1;" x1="125.444" y1="24.686" x2="119.52" y2="20.736"/>
	<line style="fill:none;stroke:#000000;stroke-miterlimit:1;" x1="119.52" y1="20.736" x2="117.874" y2="13.824"/>
	<line style="fill:none;stroke:#000000;stroke-miterlimit:1;" x1="117.874" y1="13.824" x2="116.558" y2="6.254"/>
	<line style="fill:none;stroke:#000000;stroke-miterlimit:1;" x1="116.558" y1="6.254" x2="114.583" y2="1.317"/>
	<line style="fill:none;stroke:#000000;stroke-miterlimit:1;" x1="114.583" y1="1.317" x2="108.987" y2="0"/>
	<line style="fill:none;stroke:#000000;stroke-miterlimit:1;" x1="108.987" y1="0" x2="99.771" y2="0"/>
	<line style="fill:none;stroke:#000000;stroke-miterlimit:1;" x1="99.771" y1="0" x2="89.568" y2="0.329"/>
	<line style="fill:none;stroke:#000000;stroke-miterlimit:1;" x1="89.568" y1="0.329" x2="84.631" y2="1.646"/>
	<line style="fill:none;stroke:#000000;stroke-miterlimit:1;" x1="84.631" y1="1.646" x2="82.327" y2="2.304"/>
	<line style="fill:none;stroke:#000000;stroke-miterlimit:1;" x1="82.327" y1="2.304" x2="65.541" y2="4.608"/>
	<line style="fill:none;stroke:#000000;stroke-miterlimit:1;" x1="65.541" y1="4.608" x2="60.604" y2="6.912"/>
	<line style="fill:none;stroke:#000000;stroke-miterlimit:1;" x1="60.604" y1="6.912" x2="58.958" y2="9.216"/>
	<line style="fill:none;stroke:#000000;stroke-miterlimit:1;" x1="58.958" y1="9.216" x2="58.628" y2="13.824"/>
	<line style="fill:none;stroke:#000000;stroke-miterlimit:1;" x1="58.628" y1="13.824" x2="60.604" y2="10.533"/>
	<line style="fill:none;stroke:#000000;stroke-miterlimit:1;" x1="60.604" y1="10.533" x2="63.895" y2="8.887"/>
	<line style="fill:none;stroke:#000000;stroke-miterlimit:1;" x1="63.895" y1="8.887" x2="73.769" y2="8.887"/>
	<line style="fill:none;stroke:#000000;stroke-miterlimit:1;" x1="73.769" y1="8.887" x2="83.973" y2="9.216"/>
	<line style="fill:none;stroke:#000000;stroke-miterlimit:1;" x1="83.973" y1="9.216" x2="89.239" y2="10.533"/>
	<line style="fill:none;stroke:#000000;stroke-miterlimit:1;" x1="89.239" y1="10.533" x2="84.96" y2="5.267"/>
	<line style="fill:none;stroke:#000000;stroke-miterlimit:1;" x1="84.96" y1="5.267" x2="83.973" y2="1.646"/>
	<line style="fill:none;stroke:#000000;stroke-miterlimit:1;" x1="94.834" y1="8.558" x2="95.822" y2="8.229"/>
	<line style="fill:none;stroke:#000000;stroke-miterlimit:1;" x1="95.822" y1="8.229" x2="96.48" y2="6.583"/>
	<line style="fill:none;stroke:#000000;stroke-miterlimit:1;" x1="96.48" y1="6.583" x2="95.822" y2="4.938"/>
	<line style="fill:none;stroke:#000000;stroke-miterlimit:1;" x1="95.822" y1="4.938" x2="94.505" y2="3.95"/>
	<line style="fill:none;stroke:#000000;stroke-miterlimit:1;" x1="94.505" y1="3.95" x2="93.188" y2="4.938"/>
	<line style="fill:none;stroke:#000000;stroke-miterlimit:1;" x1="93.188" y1="4.938" x2="92.859" y2="6.912"/>
	<line style="fill:none;stroke:#000000;stroke-miterlimit:1;" x1="92.859" y1="6.912" x2="93.518" y2="7.899"/>
	<line style="fill:none;stroke:#000000;stroke-miterlimit:1;" x1="93.518" y1="7.899" x2="94.505" y2="8.558"/>
	<line style="fill:none;stroke:#000000;stroke-miterlimit:1;" x1="60.274" y1="11.849" x2="73.44" y2="11.52"/>
	<line style="fill:none;stroke:#000000;stroke-miterlimit:1;" x1="73.44" y1="11.52" x2="83.643" y2="12.837"/>
	<line style="fill:none;stroke:#000000;stroke-miterlimit:1;" x1="83.643" y1="12.837" x2="86.605" y2="14.482"/>
	<line style="fill:none;stroke:#000000;stroke-miterlimit:1;" x1="86.605" y1="14.482" x2="87.593" y2="17.774"/>
	<line style="fill:none;stroke:#000000;stroke-miterlimit:1;" x1="87.593" y1="17.774" x2="87.922" y2="21.395"/>
	<line style="fill:none;stroke:#000000;stroke-miterlimit:1;" x1="87.922" y1="21.395" x2="84.96" y2="28.636"/>
	<line style="fill:none;stroke:#000000;stroke-miterlimit:1;" x1="84.96" y1="28.636" x2="83.643" y2="37.522"/>
	<line style="fill:none;stroke:#000000;stroke-miterlimit:1;" x1="83.643" y1="37.522" x2="85.289" y2="48.384"/>
	<line style="fill:none;stroke:#000000;stroke-miterlimit:1;" x1="85.289" y1="48.384" x2="86.605" y2="53.321"/>
	<line style="fill:none;stroke:#000000;stroke-miterlimit:1;" x1="86.605" y1="53.321" x2="90.226" y2="63.196"/>
	<line style="fill:none;stroke:#000000;stroke-miterlimit:1;" x1="90.226" y1="63.196" x2="94.505" y2="71.095"/>
	<line style="fill:none;stroke:#000000;stroke-miterlimit:1;" x1="94.505" y1="71.095" x2="104.708" y2="88.54"/>
	<line style="fill:none;stroke:#000000;stroke-miterlimit:1;" x1="104.708" y1="88.54" x2="118.203" y2="114.213"/>
	<line style="fill:none;stroke:#000000;stroke-miterlimit:1;" x1="118.203" y1="114.213" x2="119.52" y2="124.087"/>
	<line style="fill:none;stroke:#000000;stroke-miterlimit:1;" x1="119.52" y1="124.087" x2="117.874" y2="140.873"/>
	<line style="fill:none;stroke:#000000;stroke-miterlimit:1;" x1="117.874" y1="140.873" x2="116.229" y2="142.519"/>
	<line style="fill:none;stroke:#000000;stroke-miterlimit:1;" x1="116.229" y1="142.519" x2="106.683" y2="143.507"/>
	<line style="fill:none;stroke:#000000;stroke-miterlimit:1;" x1="106.683" y1="143.507" x2="95.493" y2="143.178"/>
	<line style="fill:none;stroke:#000000;stroke-miterlimit:1;" x1="95.493" y1="143.178" x2="94.834" y2="144.823"/>
	<line style="fill:none;stroke:#000000;stroke-miterlimit:1;" x1="94.834" y1="144.823" x2="89.897" y2="145.481"/>
	<line style="fill:none;stroke:#000000;stroke-miterlimit:1;" x1="89.897" y1="145.481" x2="89.239" y2="146.469"/>
	<line style="fill:none;stroke:#000000;stroke-miterlimit:1;" x1="89.239" y1="146.469" x2="90.226" y2="147.785"/>
	<line style="fill:none;stroke:#000000;stroke-miterlimit:1;" x1="90.226" y1="147.785" x2="118.532" y2="146.798"/>
	<line style="fill:none;stroke:#000000;stroke-miterlimit:1;" x1="118.532" y1="146.798" x2="147.826" y2="148.114"/>
	<line style="fill:none;stroke:#000000;stroke-miterlimit:1;" x1="147.826" y1="148.114" x2="149.143" y2="146.798"/>
	<line style="fill:none;stroke:#000000;stroke-miterlimit:1;" x1="149.143" y1="146.798" x2="148.484" y2="145.152"/>
	<line style="fill:none;stroke:#000000;stroke-miterlimit:1;" x1="148.484" y1="145.152" x2="143.876" y2="145.152"/>
	<line style="fill:none;stroke:#000000;stroke-miterlimit:1;" x1="143.876" y1="145.152" x2="141.243" y2="142.849"/>
	<line style="fill:none;stroke:#000000;stroke-miterlimit:1;" x1="141.243" y1="142.849" x2="124.457" y2="142.519"/>
	<line style="fill:none;stroke:#000000;stroke-miterlimit:1;" x1="124.457" y1="142.519" x2="122.482" y2="141.202"/>
	<line style="fill:none;stroke:#000000;stroke-miterlimit:1;" x1="122.482" y1="141.202" x2="124.457" y2="120.467"/>
	<line style="fill:none;stroke:#000000;stroke-miterlimit:1;" x1="124.457" y1="120.467" x2="136.635" y2="126.72"/>
	<line style="fill:none;stroke:#000000;stroke-miterlimit:1;" x1="136.635" y1="126.72" x2="143.547" y2="106.313"/>
	<line style="fill:none;stroke:#000000;stroke-miterlimit:1;" x1="143.547" y1="106.313" x2="156.713" y2="139.228"/>
	<line style="fill:none;stroke:#000000;stroke-miterlimit:1;" x1="156.713" y1="139.228" x2="161.321" y2="145.152"/>
	<line style="fill:none;stroke:#000000;stroke-miterlimit:1;" x1="161.321" y1="145.152" x2="165.93" y2="147.785"/>
	<line style="fill:none;stroke:#000000;stroke-miterlimit:1;" x1="165.93" y1="147.785" x2="172.842" y2="147.785"/>
	<line style="fill:none;stroke:#000000;stroke-miterlimit:1;" x1="172.842" y1="147.785" x2="176.791" y2="146.469"/>
	<line style="fill:none;stroke:#000000;stroke-miterlimit:1;" x1="176.791" y1="146.469" x2="177.777" y2="144.494"/>
	<line style="fill:none;stroke:#000000;stroke-miterlimit:1;" x1="177.777" y1="144.494" x2="174.486" y2="135.607"/>
	<line style="fill:none;stroke:#000000;stroke-miterlimit:1;" x1="92.859" y1="68.791" x2="97.138" y2="92.818"/>
	<line style="fill:none;stroke:#000000;stroke-miterlimit:1;" x1="97.138" y1="92.818" x2="96.809" y2="111.25"/>
	<line style="fill:none;stroke:#000000;stroke-miterlimit:1;" x1="96.809" y1="111.25" x2="93.518" y2="130.012"/>
	<line style="fill:none;stroke:#000000;stroke-miterlimit:1;" x1="93.518" y1="130.012" x2="90.555" y2="139.557"/>
	<line style="fill:none;stroke:#000000;stroke-miterlimit:1;" x1="90.555" y1="139.557" x2="88.581" y2="141.86"/>
	<line style="fill:none;stroke:#000000;stroke-miterlimit:1;" x1="88.581" y1="141.86" x2="72.782" y2="142.849"/>
	<line style="fill:none;stroke:#000000;stroke-miterlimit:1;" x1="72.782" y1="142.849" x2="71.136" y2="145.152"/>
	<line style="fill:none;stroke:#000000;stroke-miterlimit:1;" x1="71.136" y1="145.152" x2="67.515" y2="145.481"/>
	<line style="fill:none;stroke:#000000;stroke-miterlimit:1;" x1="67.515" y1="145.481" x2="66.199" y2="146.469"/>
	<line style="fill:none;stroke:#000000;stroke-miterlimit:1;" x1="66.199" y1="146.469" x2="67.515" y2="147.785"/>
	<line style="fill:none;stroke:#000000;stroke-miterlimit:1;" x1="67.515" y1="147.785" x2="79.693" y2="146.798"/>
	<line style="fill:none;stroke:#000000;stroke-miterlimit:1;" x1="79.693" y1="146.798" x2="83.314" y2="147.127"/>
	<line style="fill:none;stroke:#000000;stroke-miterlimit:1;" x1="95.163" y1="143.178" x2="89.568" y2="143.836"/>
	<line style="fill:none;stroke:#000000;stroke-miterlimit:1;" x1="89.568" y1="143.836" x2="89.568" y2="143.836"/>
	<line style="fill:none;stroke:#000000;stroke-miterlimit:1;" x1="89.568" y1="143.836" x2="86.276" y2="144.494"/>
	<line style="fill:none;stroke:#000000;stroke-miterlimit:1;" x1="86.276" y1="144.494" x2="84.302" y2="147.127"/>
	<line style="fill:none;stroke:#000000;stroke-miterlimit:1;" x1="84.302" y1="147.127" x2="85.618" y2="147.785"/>
	<line style="fill:none;stroke:#000000;stroke-miterlimit:1;" x1="85.618" y1="147.785" x2="87.593" y2="145.811"/>
	<line style="fill:none;stroke:#000000;stroke-miterlimit:1;" x1="87.593" y1="145.811" x2="89.568" y2="145.481"/>
	<line style="fill:none;stroke:#000000;stroke-miterlimit:1;" x1="94.834" y1="142.849" x2="102.075" y2="115.858"/>
	<line style="fill:none;stroke:#000000;stroke-miterlimit:1;" x1="102.075" y1="115.858" x2="113.266" y2="122.441"/>
	<line style="fill:none;stroke:#000000;stroke-miterlimit:1;" x1="113.266" y1="122.441" x2="115.57" y2="110.263"/>
	<line style="fill:none;stroke:#000000;stroke-miterlimit:1;" x1="71.794" y1="143.178" x2="66.528" y2="143.836"/>
	<line style="fill:none;stroke:#000000;stroke-miterlimit:1;" x1="66.528" y1="143.836" x2="66.528" y2="143.836"/>
	<line style="fill:none;stroke:#000000;stroke-miterlimit:1;" x1="66.528" y1="143.836" x2="63.236" y2="144.494"/>
	<line style="fill:none;stroke:#000000;stroke-miterlimit:1;" x1="63.236" y1="144.494" x2="61.262" y2="147.127"/>
	<line style="fill:none;stroke:#000000;stroke-miterlimit:1;" x1="61.262" y1="147.127" x2="62.249" y2="147.785"/>
	<line style="fill:none;stroke:#000000;stroke-miterlimit:1;" x1="62.249" y1="147.785" x2="64.553" y2="145.811"/>
	<line style="fill:none;stroke:#000000;stroke-miterlimit:1;" x1="64.553" y1="145.811" x2="67.186" y2="145.481"/>
	<line style="fill:none;stroke:#000000;stroke-miterlimit:1;" x1="141.902" y1="142.849" x2="148.155" y2="143.507"/>
	<line style="fill:none;stroke:#000000;stroke-miterlimit:1;" x1="148.155" y1="143.507" x2="151.118" y2="144.494"/>
	<line style="fill:none;stroke:#000000;stroke-miterlimit:1;" x1="151.118" y1="144.494" x2="153.092" y2="147.127"/>
	<line style="fill:none;stroke:#000000;stroke-miterlimit:1;" x1="153.092" y1="147.127" x2="152.105" y2="147.785"/>
	<line style="fill:none;stroke:#000000;stroke-miterlimit:1;" x1="152.105" y1="147.785" x2="149.801" y2="145.811"/>
	<line style="fill:none;stroke:#000000;stroke-miterlimit:1;" x1="149.801" y1="145.811" x2="148.155" y2="145.481"/>
	<line style="fill:none;stroke:#000000;stroke-miterlimit:1;" x1="247.145" y1="148.114" x2="214.561" y2="99.072"/>
	<line style="fill:none;stroke:#000000;stroke-miterlimit:1;" x1="214.561" y1="99.072" x2="212.256" y2="92.16"/>
	<line style="fill:none;stroke:#000000;stroke-miterlimit:1;" x1="212.256" y1="92.16" x2="211.598" y2="86.235"/>
	<line style="fill:none;stroke:#000000;stroke-miterlimit:1;" x1="211.598" y1="86.235" x2="212.586" y2="80.641"/>
	<line style="fill:none;stroke:#000000;stroke-miterlimit:1;" x1="212.586" y1="80.641" x2="213.902" y2="78.007"/>
	<line style="fill:none;stroke:#000000;stroke-miterlimit:1;" x1="213.902" y1="78.007" x2="215.877" y2="75.045"/>
	<line style="fill:none;stroke:#000000;stroke-miterlimit:1;" x1="215.877" y1="75.045" x2="218.51" y2="72.741"/>
	<line style="fill:none;stroke:#000000;stroke-miterlimit:1;" x1="218.51" y1="72.741" x2="221.143" y2="71.095"/>
	<line style="fill:none;stroke:#000000;stroke-miterlimit:1;" x1="221.143" y1="71.095" x2="222.131" y2="70.437"/>
	<line style="fill:none;stroke:#000000;stroke-miterlimit:1;" x1="222.131" y1="70.437" x2="227.066" y2="69.778"/>
	<line style="fill:none;stroke:#000000;stroke-miterlimit:1;" x1="227.066" y1="69.778" x2="232.004" y2="67.804"/>
	<line style="fill:none;stroke:#000000;stroke-miterlimit:1;" x1="232.004" y1="67.804" x2="235.625" y2="64.512"/>
	<line style="fill:none;stroke:#000000;stroke-miterlimit:1;" x1="235.625" y1="64.512" x2="238.588" y2="61.221"/>
	<line style="fill:none;stroke:#000000;stroke-miterlimit:1;" x1="238.588" y1="61.221" x2="240.232" y2="58.258"/>
	<line style="fill:none;stroke:#000000;stroke-miterlimit:1;" x1="240.232" y1="58.258" x2="241.221" y2="52.334"/>
	<line style="fill:none;stroke:#000000;stroke-miterlimit:1;" x1="241.221" y1="52.334" x2="240.562" y2="47.067"/>
	<line style="fill:none;stroke:#000000;stroke-miterlimit:1;" x1="240.562" y1="47.067" x2="238.916" y2="44.105"/>
	<line style="fill:none;stroke:#000000;stroke-miterlimit:1;" x1="238.916" y1="44.105" x2="237.271" y2="41.472"/>
	<line style="fill:none;stroke:#000000;stroke-miterlimit:1;" x1="237.271" y1="41.472" x2="234.309" y2="38.51"/>
	<line style="fill:none;stroke:#000000;stroke-miterlimit:1;" x1="234.309" y1="38.51" x2="231.676" y2="37.193"/>
	<line style="fill:none;stroke:#000000;stroke-miterlimit:1;" x1="231.676" y1="37.193" x2="227.396" y2="35.218"/>
	<line style="fill:none;stroke:#000000;stroke-miterlimit:1;" x1="227.396" y1="35.218" x2="222.131" y2="33.902"/>
	<line style="fill:none;stroke:#000000;stroke-miterlimit:1;" x1="222.131" y1="33.902" x2="219.496" y2="32.256"/>
	<line style="fill:none;stroke:#000000;stroke-miterlimit:1;" x1="219.496" y1="32.256" x2="214.889" y2="28.636"/>
	<line style="fill:none;stroke:#000000;stroke-miterlimit:1;" x1="214.889" y1="28.636" x2="212.914" y2="25.344"/>
	<line style="fill:none;stroke:#000000;stroke-miterlimit:1;" x1="212.914" y1="25.344" x2="211.928" y2="22.382"/>
	<line style="fill:none;stroke:#000000;stroke-miterlimit:1;" x1="211.928" y1="22.382" x2="210.939" y2="16.457"/>
	<line style="fill:none;stroke:#000000;stroke-miterlimit:1;" x1="210.939" y1="16.457" x2="211.598" y2="11.191"/>
	<line style="fill:none;stroke:#000000;stroke-miterlimit:1;" x1="211.598" y1="11.191" x2="212.914" y2="8.558"/>
	<line style="fill:none;stroke:#000000;stroke-miterlimit:1;" x1="212.914" y1="8.558" x2="214.889" y2="5.596"/>
	<line style="fill:none;stroke:#000000;stroke-miterlimit:1;" x1="214.889" y1="5.596" x2="217.852" y2="2.962"/>
	<line style="fill:none;stroke:#000000;stroke-miterlimit:1;" x1="217.852" y1="2.962" x2="219.826" y2="1.317"/>
	<line style="fill:none;stroke:#000000;stroke-miterlimit:1;" x1="219.826" y1="1.317" x2="223.447" y2="0.329"/>
	<line style="fill:none;stroke:#000000;stroke-miterlimit:1;" x1="223.447" y1="0.329" x2="226.08" y2="0"/>
	<line style="fill:none;stroke:#000000;stroke-miterlimit:1;" x1="204.686" y1="148.114" x2="237.93" y2="97.098"/>
	<line style="fill:none;stroke:#000000;stroke-miterlimit:1;" x1="237.93" y1="97.098" x2="239.574" y2="93.147"/>
	<line style="fill:none;stroke:#000000;stroke-miterlimit:1;" x1="239.574" y1="93.147" x2="239.904" y2="86.235"/>
	<line style="fill:none;stroke:#000000;stroke-miterlimit:1;" x1="239.904" y1="86.235" x2="239.246" y2="80.641"/>
	<line style="fill:none;stroke:#000000;stroke-miterlimit:1;" x1="239.246" y1="80.641" x2="237.93" y2="78.007"/>
	<line style="fill:none;stroke:#000000;stroke-miterlimit:1;" x1="237.93" y1="78.007" x2="236.283" y2="75.703"/>
	<line style="fill:none;stroke:#000000;stroke-miterlimit:1;" x1="236.283" y1="75.703" x2="233.32" y2="72.741"/>
	<line style="fill:none;stroke:#000000;stroke-miterlimit:1;" x1="233.32" y1="72.741" x2="230.688" y2="71.095"/>
	<line style="fill:none;stroke:#000000;stroke-miterlimit:1;" x1="230.688" y1="71.095" x2="229.701" y2="70.437"/>
	<line style="fill:none;stroke:#000000;stroke-miterlimit:1;" x1="229.701" y1="70.437" x2="221.801" y2="68.791"/>
	<line style="fill:none;stroke:#000000;stroke-miterlimit:1;" x1="221.801" y1="68.791" x2="219.826" y2="67.804"/>
	<line style="fill:none;stroke:#000000;stroke-miterlimit:1;" x1="219.826" y1="67.804" x2="217.521" y2="66.487"/>
	<line style="fill:none;stroke:#000000;stroke-miterlimit:1;" x1="217.521" y1="66.487" x2="215.219" y2="64.183"/>
	<line style="fill:none;stroke:#000000;stroke-miterlimit:1;" x1="215.219" y1="64.183" x2="212.914" y2="60.892"/>
	<line style="fill:none;stroke:#000000;stroke-miterlimit:1;" x1="212.914" y1="60.892" x2="211.598" y2="57.929"/>
	<line style="fill:none;stroke:#000000;stroke-miterlimit:1;" x1="211.598" y1="57.929" x2="210.281" y2="52.005"/>
	<line style="fill:none;stroke:#000000;stroke-miterlimit:1;" x1="210.281" y1="52.005" x2="211.268" y2="46.409"/>
	<line style="fill:none;stroke:#000000;stroke-miterlimit:1;" x1="211.268" y1="46.409" x2="213.244" y2="43.776"/>
	<line style="fill:none;stroke:#000000;stroke-miterlimit:1;" x1="213.244" y1="43.776" x2="214.889" y2="41.143"/>
	<line style="fill:none;stroke:#000000;stroke-miterlimit:1;" x1="214.889" y1="41.143" x2="218.18" y2="38.181"/>
	<line style="fill:none;stroke:#000000;stroke-miterlimit:1;" x1="218.18" y1="38.181" x2="220.484" y2="36.864"/>
	<line style="fill:none;stroke:#000000;stroke-miterlimit:1;" x1="220.484" y1="36.864" x2="224.434" y2="35.218"/>
	<line style="fill:none;stroke:#000000;stroke-miterlimit:1;" x1="224.434" y1="35.218" x2="229.371" y2="33.573"/>
	<line style="fill:none;stroke:#000000;stroke-miterlimit:1;" x1="229.371" y1="33.573" x2="232.334" y2="31.598"/>
	<line style="fill:none;stroke:#000000;stroke-miterlimit:1;" x1="232.334" y1="31.598" x2="235.955" y2="28.965"/>
	<line style="fill:none;stroke:#000000;stroke-miterlimit:1;" x1="235.955" y1="28.965" x2="238.916" y2="25.015"/>
	<line style="fill:none;stroke:#000000;stroke-miterlimit:1;" x1="238.916" y1="25.015" x2="239.574" y2="22.053"/>
	<line style="fill:none;stroke:#000000;stroke-miterlimit:1;" x1="239.574" y1="22.053" x2="240.891" y2="16.128"/>
	<line style="fill:none;stroke:#000000;stroke-miterlimit:1;" x1="240.891" y1="16.128" x2="239.904" y2="10.862"/>
	<line style="fill:none;stroke:#000000;stroke-miterlimit:1;" x1="239.904" y1="10.862" x2="238.588" y2="8.229"/>
	<line style="fill:none;stroke:#000000;stroke-miterlimit:1;" x1="238.588" y1="8.229" x2="236.613" y2="5.267"/>
	<line style="fill:none;stroke:#000000;stroke-miterlimit:1;" x1="236.613" y1="5.267" x2="233.65" y2="2.633"/>
	<line style="fill:none;stroke:#000000;stroke-miterlimit:1;" x1="233.65" y1="2.633" x2="230.359" y2="0.658"/>
	<line style="fill:none;stroke:#000000;stroke-miterlimit:1;" x1="230.359" y1="0.658" x2="226.08" y2="0"/>
	<line style="fill:none;stroke:#000000;stroke-miterlimit:1;" x1="313.674" y1="42.501" x2="316.307" y2="44.146"/>
	<line style="fill:none;stroke:#000000;stroke-miterlimit:1;" x1="316.307" y1="44.146" x2="318.281" y2="44.805"/>
	<line style="fill:none;stroke:#000000;stroke-miterlimit:1;" x1="318.281" y1="44.805" x2="319.268" y2="44.805"/>
	<line style="fill:none;stroke:#000000;stroke-miterlimit:1;" x1="319.268" y1="44.805" x2="320.256" y2="43.817"/>
	<line style="fill:none;stroke:#000000;stroke-miterlimit:1;" x1="320.256" y1="43.817" x2="321.572" y2="42.501"/>
	<line style="fill:none;stroke:#000000;stroke-miterlimit:1;" x1="321.572" y1="42.501" x2="328.156" y2="30.98"/>
	<line style="fill:none;stroke:#000000;stroke-miterlimit:1;" x1="328.156" y1="30.98" x2="328.156" y2="29.335"/>
	<line style="fill:none;stroke:#000000;stroke-miterlimit:1;" x1="328.156" y1="29.335" x2="327.826" y2="28.677"/>
	<line style="fill:none;stroke:#000000;stroke-miterlimit:1;" x1="327.826" y1="28.677" x2="327.168" y2="27.689"/>
	<line style="fill:none;stroke:#000000;stroke-miterlimit:1;" x1="327.168" y1="27.689" x2="324.863" y2="26.373"/>
	<line style="fill:none;stroke:#000000;stroke-miterlimit:1;" x1="324.863" y1="26.373" x2="270.885" y2="1.029"/>
	<line style="fill:none;stroke:#000000;stroke-miterlimit:1;" x1="270.885" y1="1.029" x2="269.568" y2="0.7"/>
	<line style="fill:none;stroke:#000000;stroke-miterlimit:1;" x1="269.568" y1="0.7" x2="267.922" y2="0.371"/>
	<line style="fill:none;stroke:#000000;stroke-miterlimit:1;" x1="267.922" y1="0.371" x2="266.277" y2="1.029"/>
	<line style="fill:none;stroke:#000000;stroke-miterlimit:1;" x1="266.277" y1="1.029" x2="264.631" y2="2.016"/>
	<line style="fill:none;stroke:#000000;stroke-miterlimit:1;" x1="264.631" y1="2.016" x2="263.973" y2="3.003"/>
	<line style="fill:none;stroke:#000000;stroke-miterlimit:1;" x1="263.973" y1="3.003" x2="263.314" y2="4.979"/>
	<line style="fill:none;stroke:#000000;stroke-miterlimit:1;" x1="263.314" y1="4.979" x2="263.314" y2="6.295"/>
	<line style="fill:none;stroke:#000000;stroke-miterlimit:1;" x1="263.314" y1="6.295" x2="263.973" y2="7.941"/>
	<line style="fill:none;stroke:#000000;stroke-miterlimit:1;" x1="263.973" y1="7.941" x2="264.959" y2="9.257"/>
	<line style="fill:none;stroke:#000000;stroke-miterlimit:1;" x1="264.959" y1="9.257" x2="266.605" y2="10.903"/>
	<line style="fill:none;stroke:#000000;stroke-miterlimit:1;" x1="266.605" y1="10.903" x2="313.674" y2="42.501"/>
</g>
</svg>
