<?xml version="1.0" encoding="iso-8859-1"?>
<!-- Generator: Adobe Illustrator 16.0.1, SVG Export Plug-In . SVG Version: 6.00 Build 0)  -->
<!DOCTYPE svg PUBLIC "-//W3C//DTD SVG 1.1//EN" "http://www.w3.org/Graphics/SVG/1.1/DTD/svg11.dtd">
<svg version="1.1" id="Ebene_1" xmlns="http://www.w3.org/2000/svg" xmlns:xlink="http://www.w3.org/1999/xlink" x="0px" y="0px"
	 width="248.175px" height="148.114px" viewBox="0 0 248.175 148.114" style="enable-background:new 0 0 248.175 148.114;"
	 xml:space="preserve">
<g>
	<line style="fill:none;stroke:#000000;stroke-miterlimit:1;" x1="200.739" y1="129.875" x2="200.739" y2="25.517"/>
	<line style="fill:none;stroke:#000000;stroke-miterlimit:1;" x1="200.739" y1="25.517" x2="198.449" y2="25.19"/>
	<line style="fill:none;stroke:#000000;stroke-miterlimit:1;" x1="198.449" y1="25.19" x2="197.469" y2="24.208"/>
	<line style="fill:none;stroke:#000000;stroke-miterlimit:1;" x1="197.469" y1="24.208" x2="195.179" y2="22.573"/>
	<line style="fill:none;stroke:#000000;stroke-miterlimit:1;" x1="195.179" y1="22.573" x2="193.87" y2="20.61"/>
	<line style="fill:none;stroke:#000000;stroke-miterlimit:1;" x1="193.87" y1="20.61" x2="193.216" y2="17.666"/>
	<line style="fill:none;stroke:#000000;stroke-miterlimit:1;" x1="193.216" y1="17.666" x2="192.562" y2="13.413"/>
	<line style="fill:none;stroke:#000000;stroke-miterlimit:1;" x1="192.562" y1="13.413" x2="192.562" y2="10.469"/>
	<line style="fill:none;stroke:#000000;stroke-miterlimit:1;" x1="192.562" y1="10.469" x2="192.234" y2="8.179"/>
	<line style="fill:none;stroke:#000000;stroke-miterlimit:1;" x1="192.234" y1="8.179" x2="190.271" y2="5.562"/>
	<line style="fill:none;stroke:#000000;stroke-miterlimit:1;" x1="190.271" y1="5.562" x2="188.963" y2="4.907"/>
	<line style="fill:none;stroke:#000000;stroke-miterlimit:1;" x1="188.963" y1="4.907" x2="186.673" y2="4.58"/>
	<line style="fill:none;stroke:#000000;stroke-miterlimit:1;" x1="186.673" y1="4.58" x2="184.383" y2="3.926"/>
	<line style="fill:none;stroke:#000000;stroke-miterlimit:1;" x1="184.383" y1="3.926" x2="185.037" y2="2.617"/>
	<line style="fill:none;stroke:#000000;stroke-miterlimit:1;" x1="185.037" y1="2.617" x2="193.87" y2="0.654"/>
	<line style="fill:none;stroke:#000000;stroke-miterlimit:1;" x1="193.87" y1="0.654" x2="200.739" y2="0"/>
	<line style="fill:none;stroke:#000000;stroke-miterlimit:1;" x1="200.739" y1="0" x2="210.227" y2="0.654"/>
	<line style="fill:none;stroke:#000000;stroke-miterlimit:1;" x1="210.227" y1="0.654" x2="217.751" y2="2.29"/>
	<line style="fill:none;stroke:#000000;stroke-miterlimit:1;" x1="217.751" y1="2.29" x2="217.751" y2="3.926"/>
	<line style="fill:none;stroke:#000000;stroke-miterlimit:1;" x1="217.751" y1="3.926" x2="215.788" y2="4.253"/>
	<line style="fill:none;stroke:#000000;stroke-miterlimit:1;" x1="215.788" y1="4.253" x2="212.189" y2="6.216"/>
	<line style="fill:none;stroke:#000000;stroke-miterlimit:1;" x1="212.189" y1="6.216" x2="211.208" y2="7.524"/>
	<line style="fill:none;stroke:#000000;stroke-miterlimit:1;" x1="211.208" y1="7.524" x2="210.227" y2="8.833"/>
	<line style="fill:none;stroke:#000000;stroke-miterlimit:1;" x1="210.227" y1="8.833" x2="209.899" y2="13.413"/>
	<line style="fill:none;stroke:#000000;stroke-miterlimit:1;" x1="209.899" y1="13.413" x2="209.572" y2="16.357"/>
	<line style="fill:none;stroke:#000000;stroke-miterlimit:1;" x1="209.572" y1="16.357" x2="208.918" y2="20.283"/>
	<line style="fill:none;stroke:#000000;stroke-miterlimit:1;" x1="208.918" y1="20.283" x2="207.937" y2="22.246"/>
	<line style="fill:none;stroke:#000000;stroke-miterlimit:1;" x1="207.937" y1="22.246" x2="204.992" y2="24.863"/>
	<line style="fill:none;stroke:#000000;stroke-miterlimit:1;" x1="204.992" y1="24.863" x2="202.375" y2="25.517"/>
	<line style="fill:none;stroke:#000000;stroke-miterlimit:1;" x1="202.375" y1="25.517" x2="202.375" y2="129.875"/>
	<line style="fill:none;stroke:#000000;stroke-miterlimit:1;" x1="190.926" y1="132.492" x2="174.568" y2="63.793"/>
	<line style="fill:none;stroke:#000000;stroke-miterlimit:1;" x1="174.568" y1="63.793" x2="172.933" y2="63.793"/>
	<line style="fill:none;stroke:#000000;stroke-miterlimit:1;" x1="172.933" y1="63.793" x2="171.297" y2="63.793"/>
	<line style="fill:none;stroke:#000000;stroke-miterlimit:1;" x1="171.297" y1="63.793" x2="169.007" y2="61.83"/>
	<line style="fill:none;stroke:#000000;stroke-miterlimit:1;" x1="169.007" y1="61.83" x2="167.371" y2="60.521"/>
	<line style="fill:none;stroke:#000000;stroke-miterlimit:1;" x1="167.371" y1="60.521" x2="165.735" y2="57.577"/>
	<line style="fill:none;stroke:#000000;stroke-miterlimit:1;" x1="165.735" y1="57.577" x2="164.427" y2="53.651"/>
	<line style="fill:none;stroke:#000000;stroke-miterlimit:1;" x1="164.427" y1="53.651" x2="164.1" y2="50.707"/>
	<line style="fill:none;stroke:#000000;stroke-miterlimit:1;" x1="164.1" y1="50.707" x2="163.118" y2="48.417"/>
	<line style="fill:none;stroke:#000000;stroke-miterlimit:1;" x1="163.118" y1="48.417" x2="160.174" y2="46.454"/>
	<line style="fill:none;stroke:#000000;stroke-miterlimit:1;" x1="160.174" y1="46.454" x2="158.865" y2="46.127"/>
	<line style="fill:none;stroke:#000000;stroke-miterlimit:1;" x1="158.865" y1="46.127" x2="156.575" y2="46.127"/>
	<line style="fill:none;stroke:#000000;stroke-miterlimit:1;" x1="156.575" y1="46.127" x2="154.285" y2="46.127"/>
	<line style="fill:none;stroke:#000000;stroke-miterlimit:1;" x1="154.285" y1="46.127" x2="154.612" y2="44.818"/>
	<line style="fill:none;stroke:#000000;stroke-miterlimit:1;" x1="154.612" y1="44.818" x2="166.062" y2="39.912"/>
	<line style="fill:none;stroke:#000000;stroke-miterlimit:1;" x1="166.062" y1="39.912" x2="170.97" y2="38.276"/>
	<line style="fill:none;stroke:#000000;stroke-miterlimit:1;" x1="170.97" y1="38.276" x2="179.148" y2="37.294"/>
	<line style="fill:none;stroke:#000000;stroke-miterlimit:1;" x1="179.148" y1="37.294" x2="187" y2="37.294"/>
	<line style="fill:none;stroke:#000000;stroke-miterlimit:1;" x1="187" y1="37.294" x2="187.327" y2="38.93"/>
	<line style="fill:none;stroke:#000000;stroke-miterlimit:1;" x1="187.327" y1="38.93" x2="185.364" y2="39.912"/>
	<line style="fill:none;stroke:#000000;stroke-miterlimit:1;" x1="185.364" y1="39.912" x2="182.093" y2="42.529"/>
	<line style="fill:none;stroke:#000000;stroke-miterlimit:1;" x1="182.093" y1="42.529" x2="181.438" y2="44.164"/>
	<line style="fill:none;stroke:#000000;stroke-miterlimit:1;" x1="181.438" y1="44.164" x2="180.784" y2="45.473"/>
	<line style="fill:none;stroke:#000000;stroke-miterlimit:1;" x1="180.784" y1="45.473" x2="181.766" y2="50.053"/>
	<line style="fill:none;stroke:#000000;stroke-miterlimit:1;" x1="181.766" y1="50.053" x2="182.093" y2="52.67"/>
	<line style="fill:none;stroke:#000000;stroke-miterlimit:1;" x1="182.093" y1="52.67" x2="182.093" y2="56.596"/>
	<line style="fill:none;stroke:#000000;stroke-miterlimit:1;" x1="182.093" y1="56.596" x2="181.766" y2="58.886"/>
	<line style="fill:none;stroke:#000000;stroke-miterlimit:1;" x1="181.766" y1="58.886" x2="179.476" y2="62.157"/>
	<line style="fill:none;stroke:#000000;stroke-miterlimit:1;" x1="179.476" y1="62.157" x2="176.858" y2="63.139"/>
	<line style="fill:none;stroke:#000000;stroke-miterlimit:1;" x1="176.858" y1="63.139" x2="192.562" y2="131.511"/>
	<line style="fill:none;stroke:#000000;stroke-miterlimit:1;" x1="211.862" y1="131.838" x2="227.893" y2="63.793"/>
	<line style="fill:none;stroke:#000000;stroke-miterlimit:1;" x1="227.893" y1="63.793" x2="229.528" y2="63.793"/>
	<line style="fill:none;stroke:#000000;stroke-miterlimit:1;" x1="229.528" y1="63.793" x2="231.164" y2="63.793"/>
	<line style="fill:none;stroke:#000000;stroke-miterlimit:1;" x1="231.164" y1="63.793" x2="233.454" y2="61.83"/>
	<line style="fill:none;stroke:#000000;stroke-miterlimit:1;" x1="233.454" y1="61.83" x2="234.763" y2="60.521"/>
	<line style="fill:none;stroke:#000000;stroke-miterlimit:1;" x1="234.763" y1="60.521" x2="236.398" y2="57.577"/>
	<line style="fill:none;stroke:#000000;stroke-miterlimit:1;" x1="236.398" y1="57.577" x2="237.707" y2="53.651"/>
	<line style="fill:none;stroke:#000000;stroke-miterlimit:1;" x1="237.707" y1="53.651" x2="238.034" y2="50.707"/>
	<line style="fill:none;stroke:#000000;stroke-miterlimit:1;" x1="238.034" y1="50.707" x2="239.343" y2="48.417"/>
	<line style="fill:none;stroke:#000000;stroke-miterlimit:1;" x1="239.343" y1="48.417" x2="242.287" y2="46.454"/>
	<line style="fill:none;stroke:#000000;stroke-miterlimit:1;" x1="242.287" y1="46.454" x2="243.595" y2="46.127"/>
	<line style="fill:none;stroke:#000000;stroke-miterlimit:1;" x1="243.595" y1="46.127" x2="245.885" y2="46.127"/>
	<line style="fill:none;stroke:#000000;stroke-miterlimit:1;" x1="245.885" y1="46.127" x2="248.175" y2="46.127"/>
	<line style="fill:none;stroke:#000000;stroke-miterlimit:1;" x1="248.175" y1="46.127" x2="247.848" y2="44.818"/>
	<line style="fill:none;stroke:#000000;stroke-miterlimit:1;" x1="247.848" y1="44.818" x2="239.67" y2="40.893"/>
	<line style="fill:none;stroke:#000000;stroke-miterlimit:1;" x1="239.67" y1="40.893" x2="233.454" y2="38.93"/>
	<line style="fill:none;stroke:#000000;stroke-miterlimit:1;" x1="233.454" y1="38.93" x2="223.312" y2="37.294"/>
	<line style="fill:none;stroke:#000000;stroke-miterlimit:1;" x1="223.312" y1="37.294" x2="215.461" y2="37.294"/>
	<line style="fill:none;stroke:#000000;stroke-miterlimit:1;" x1="215.461" y1="37.294" x2="215.134" y2="38.93"/>
	<line style="fill:none;stroke:#000000;stroke-miterlimit:1;" x1="215.134" y1="38.93" x2="217.097" y2="39.584"/>
	<line style="fill:none;stroke:#000000;stroke-miterlimit:1;" x1="217.097" y1="39.584" x2="220.368" y2="42.529"/>
	<line style="fill:none;stroke:#000000;stroke-miterlimit:1;" x1="220.368" y1="42.529" x2="221.022" y2="44.164"/>
	<line style="fill:none;stroke:#000000;stroke-miterlimit:1;" x1="221.022" y1="44.164" x2="221.677" y2="45.473"/>
	<line style="fill:none;stroke:#000000;stroke-miterlimit:1;" x1="221.677" y1="45.473" x2="220.695" y2="50.053"/>
	<line style="fill:none;stroke:#000000;stroke-miterlimit:1;" x1="220.695" y1="50.053" x2="220.368" y2="52.67"/>
	<line style="fill:none;stroke:#000000;stroke-miterlimit:1;" x1="220.368" y1="52.67" x2="220.368" y2="57.25"/>
	<line style="fill:none;stroke:#000000;stroke-miterlimit:1;" x1="220.368" y1="57.25" x2="220.368" y2="58.886"/>
	<line style="fill:none;stroke:#000000;stroke-miterlimit:1;" x1="220.368" y1="58.886" x2="222.658" y2="62.157"/>
	<line style="fill:none;stroke:#000000;stroke-miterlimit:1;" x1="222.658" y1="62.157" x2="225.603" y2="63.139"/>
	<line style="fill:none;stroke:#000000;stroke-miterlimit:1;" x1="225.603" y1="63.139" x2="209.899" y2="131.184"/>
	<line style="fill:none;stroke:#000000;stroke-miterlimit:1;" x1="226.887" y1="148.114" x2="177.724" y2="148.114"/>
	<line style="fill:none;stroke:#000000;stroke-miterlimit:1;" x1="177.724" y1="148.114" x2="176.955" y2="147.154"/>
	<line style="fill:none;stroke:#000000;stroke-miterlimit:1;" x1="176.955" y1="147.154" x2="177.34" y2="146.002"/>
	<line style="fill:none;stroke:#000000;stroke-miterlimit:1;" x1="177.34" y1="146.002" x2="179.068" y2="144.466"/>
	<line style="fill:none;stroke:#000000;stroke-miterlimit:1;" x1="179.068" y1="144.466" x2="181.564" y2="141.585"/>
	<line style="fill:none;stroke:#000000;stroke-miterlimit:1;" x1="181.564" y1="141.585" x2="182.524" y2="139.089"/>
	<line style="fill:none;stroke:#000000;stroke-miterlimit:1;" x1="182.524" y1="139.089" x2="183.293" y2="134.096"/>
	<line style="fill:none;stroke:#000000;stroke-miterlimit:1;" x1="183.293" y1="134.096" x2="183.101" y2="130.446"/>
	<line style="fill:none;stroke:#000000;stroke-miterlimit:1;" x1="183.101" y1="130.446" x2="183.101" y2="128.718"/>
	<line style="fill:none;stroke:#000000;stroke-miterlimit:1;" x1="183.101" y1="128.718" x2="185.405" y2="131.215"/>
	<line style="fill:none;stroke:#000000;stroke-miterlimit:1;" x1="185.405" y1="131.215" x2="186.941" y2="132.943"/>
	<line style="fill:none;stroke:#000000;stroke-miterlimit:1;" x1="186.941" y1="132.943" x2="188.862" y2="133.327"/>
	<line style="fill:none;stroke:#000000;stroke-miterlimit:1;" x1="188.862" y1="133.327" x2="190.591" y2="133.327"/>
	<line style="fill:none;stroke:#000000;stroke-miterlimit:1;" x1="190.591" y1="133.327" x2="192.511" y2="132.943"/>
	<line style="fill:none;stroke:#000000;stroke-miterlimit:1;" x1="192.511" y1="132.943" x2="194.623" y2="131.599"/>
	<line style="fill:none;stroke:#000000;stroke-miterlimit:1;" x1="194.623" y1="131.599" x2="196.736" y2="129.103"/>
	<line style="fill:none;stroke:#000000;stroke-miterlimit:1;" x1="196.736" y1="129.103" x2="198.656" y2="131.982"/>
	<line style="fill:none;stroke:#000000;stroke-miterlimit:1;" x1="198.656" y1="131.982" x2="200.769" y2="133.135"/>
	<line style="fill:none;stroke:#000000;stroke-miterlimit:1;" x1="200.769" y1="133.135" x2="202.497" y2="133.327"/>
	<line style="fill:none;stroke:#000000;stroke-miterlimit:1;" x1="202.497" y1="133.327" x2="204.609" y2="131.791"/>
	<line style="fill:none;stroke:#000000;stroke-miterlimit:1;" x1="204.609" y1="131.791" x2="206.338" y2="128.91"/>
	<line style="fill:none;stroke:#000000;stroke-miterlimit:1;" x1="206.338" y1="128.91" x2="207.875" y2="131.022"/>
	<line style="fill:none;stroke:#000000;stroke-miterlimit:1;" x1="207.875" y1="131.022" x2="209.411" y2="132.559"/>
	<line style="fill:none;stroke:#000000;stroke-miterlimit:1;" x1="209.411" y1="132.559" x2="211.716" y2="133.711"/>
	<line style="fill:none;stroke:#000000;stroke-miterlimit:1;" x1="211.716" y1="133.711" x2="215.364" y2="133.711"/>
	<line style="fill:none;stroke:#000000;stroke-miterlimit:1;" x1="215.364" y1="133.711" x2="217.861" y2="132.367"/>
	<line style="fill:none;stroke:#000000;stroke-miterlimit:1;" x1="217.861" y1="132.367" x2="219.397" y2="130.831"/>
	<line style="fill:none;stroke:#000000;stroke-miterlimit:1;" x1="219.397" y1="130.831" x2="221.126" y2="128.526"/>
	<line style="fill:none;stroke:#000000;stroke-miterlimit:1;" x1="221.126" y1="128.526" x2="220.741" y2="134.287"/>
	<line style="fill:none;stroke:#000000;stroke-miterlimit:1;" x1="220.741" y1="134.287" x2="221.126" y2="136.208"/>
	<line style="fill:none;stroke:#000000;stroke-miterlimit:1;" x1="221.126" y1="136.208" x2="222.277" y2="139.089"/>
	<line style="fill:none;stroke:#000000;stroke-miterlimit:1;" x1="222.277" y1="139.089" x2="224.391" y2="142.354"/>
	<line style="fill:none;stroke:#000000;stroke-miterlimit:1;" x1="224.391" y1="142.354" x2="225.927" y2="144.466"/>
	<line style="fill:none;stroke:#000000;stroke-miterlimit:1;" x1="225.927" y1="144.466" x2="227.271" y2="145.426"/>
	<line style="fill:none;stroke:#000000;stroke-miterlimit:1;" x1="227.271" y1="145.426" x2="227.655" y2="146.962"/>
	<line style="fill:none;stroke:#000000;stroke-miterlimit:1;" x1="227.655" y1="146.962" x2="227.079" y2="147.923"/>
	<line style="fill:none;stroke:#000000;stroke-miterlimit:1;" x1="58.917" y1="148.114" x2="0" y2="148.114"/>
	<line style="fill:none;stroke:#000000;stroke-miterlimit:1;" x1="0" y1="148.114" x2="0" y2="139.886"/>
	<line style="fill:none;stroke:#000000;stroke-miterlimit:1;" x1="0" y1="139.886" x2="17.773" y2="139.886"/>
	<line style="fill:none;stroke:#000000;stroke-miterlimit:1;" x1="17.773" y1="139.886" x2="12.178" y2="136.595"/>
	<line style="fill:none;stroke:#000000;stroke-miterlimit:1;" x1="12.178" y1="136.595" x2="8.558" y2="132.974"/>
	<line style="fill:none;stroke:#000000;stroke-miterlimit:1;" x1="8.558" y1="132.974" x2="6.253" y2="130.67"/>
	<line style="fill:none;stroke:#000000;stroke-miterlimit:1;" x1="6.253" y1="130.67" x2="3.95" y2="127.708"/>
	<line style="fill:none;stroke:#000000;stroke-miterlimit:1;" x1="3.95" y1="127.708" x2="1.646" y2="123.758"/>
	<line style="fill:none;stroke:#000000;stroke-miterlimit:1;" x1="1.646" y1="123.758" x2="0.658" y2="119.479"/>
	<line style="fill:none;stroke:#000000;stroke-miterlimit:1;" x1="0.658" y1="119.479" x2="0" y2="114.213"/>
	<line style="fill:none;stroke:#000000;stroke-miterlimit:1;" x1="0" y1="114.213" x2="0" y2="109.275"/>
	<line style="fill:none;stroke:#000000;stroke-miterlimit:1;" x1="0" y1="109.275" x2="0.987" y2="105.326"/>
	<line style="fill:none;stroke:#000000;stroke-miterlimit:1;" x1="0.987" y1="105.326" x2="1.975" y2="100.718"/>
	<line style="fill:none;stroke:#000000;stroke-miterlimit:1;" x1="1.975" y1="100.718" x2="5.266" y2="95.122"/>
	<line style="fill:none;stroke:#000000;stroke-miterlimit:1;" x1="5.266" y1="95.122" x2="7.899" y2="91.831"/>
	<line style="fill:none;stroke:#000000;stroke-miterlimit:1;" x1="7.899" y1="91.831" x2="10.862" y2="88.869"/>
	<line style="fill:none;stroke:#000000;stroke-miterlimit:1;" x1="10.862" y1="88.869" x2="14.482" y2="86.235"/>
	<line style="fill:none;stroke:#000000;stroke-miterlimit:1;" x1="14.482" y1="86.235" x2="19.749" y2="84.59"/>
	<line style="fill:none;stroke:#000000;stroke-miterlimit:1;" x1="19.749" y1="84.59" x2="22.382" y2="83.603"/>
	<line style="fill:none;stroke:#000000;stroke-miterlimit:1;" x1="22.382" y1="83.603" x2="27.648" y2="82.944"/>
	<line style="fill:none;stroke:#000000;stroke-miterlimit:1;" x1="27.648" y1="82.944" x2="34.56" y2="82.944"/>
	<line style="fill:none;stroke:#000000;stroke-miterlimit:1;" x1="34.56" y1="82.944" x2="42.13" y2="85.248"/>
	<line style="fill:none;stroke:#000000;stroke-miterlimit:1;" x1="42.13" y1="85.248" x2="46.409" y2="86.894"/>
	<line style="fill:none;stroke:#000000;stroke-miterlimit:1;" x1="46.409" y1="86.894" x2="50.03" y2="89.527"/>
	<line style="fill:none;stroke:#000000;stroke-miterlimit:1;" x1="50.03" y1="89.527" x2="53.321" y2="92.818"/>
	<line style="fill:none;stroke:#000000;stroke-miterlimit:1;" x1="53.321" y1="92.818" x2="57.6" y2="99.401"/>
	<line style="fill:none;stroke:#000000;stroke-miterlimit:1;" x1="57.6" y1="99.401" x2="59.575" y2="104.997"/>
	<line style="fill:none;stroke:#000000;stroke-miterlimit:1;" x1="59.575" y1="104.997" x2="60.562" y2="113.884"/>
	<line style="fill:none;stroke:#000000;stroke-miterlimit:1;" x1="60.562" y1="113.884" x2="59.575" y2="119.15"/>
	<line style="fill:none;stroke:#000000;stroke-miterlimit:1;" x1="59.575" y1="119.15" x2="56.941" y2="127.05"/>
	<line style="fill:none;stroke:#000000;stroke-miterlimit:1;" x1="56.941" y1="127.05" x2="53.979" y2="130.999"/>
	<line style="fill:none;stroke:#000000;stroke-miterlimit:1;" x1="53.979" y1="130.999" x2="51.346" y2="133.962"/>
	<line style="fill:none;stroke:#000000;stroke-miterlimit:1;" x1="51.346" y1="133.962" x2="47.067" y2="136.924"/>
	<line style="fill:none;stroke:#000000;stroke-miterlimit:1;" x1="47.067" y1="136.924" x2="42.13" y2="139.886"/>
	<line style="fill:none;stroke:#000000;stroke-miterlimit:1;" x1="42.13" y1="139.886" x2="58.917" y2="139.886"/>
	<line style="fill:none;stroke:#000000;stroke-miterlimit:1;" x1="58.917" y1="139.886" x2="58.917" y2="148.114"/>
	<line style="fill:none;stroke:#000000;stroke-miterlimit:1;" x1="27.977" y1="136.266" x2="24.686" y2="135.278"/>
	<line style="fill:none;stroke:#000000;stroke-miterlimit:1;" x1="24.686" y1="135.278" x2="20.407" y2="133.962"/>
	<line style="fill:none;stroke:#000000;stroke-miterlimit:1;" x1="20.407" y1="133.962" x2="16.128" y2="131.657"/>
	<line style="fill:none;stroke:#000000;stroke-miterlimit:1;" x1="16.128" y1="131.657" x2="13.824" y2="129.354"/>
	<line style="fill:none;stroke:#000000;stroke-miterlimit:1;" x1="13.824" y1="129.354" x2="11.849" y2="126.721"/>
	<line style="fill:none;stroke:#000000;stroke-miterlimit:1;" x1="11.849" y1="126.721" x2="10.203" y2="124.416"/>
	<line style="fill:none;stroke:#000000;stroke-miterlimit:1;" x1="10.203" y1="124.416" x2="9.216" y2="122.112"/>
	<line style="fill:none;stroke:#000000;stroke-miterlimit:1;" x1="9.216" y1="122.112" x2="7.899" y2="116.188"/>
	<line style="fill:none;stroke:#000000;stroke-miterlimit:1;" x1="7.899" y1="116.188" x2="7.899" y2="109.934"/>
	<line style="fill:none;stroke:#000000;stroke-miterlimit:1;" x1="7.899" y1="109.934" x2="10.203" y2="102.363"/>
	<line style="fill:none;stroke:#000000;stroke-miterlimit:1;" x1="10.203" y1="102.363" x2="13.166" y2="98.085"/>
	<line style="fill:none;stroke:#000000;stroke-miterlimit:1;" x1="13.166" y1="98.085" x2="15.141" y2="96.11"/>
	<line style="fill:none;stroke:#000000;stroke-miterlimit:1;" x1="15.141" y1="96.11" x2="16.786" y2="94.793"/>
	<line style="fill:none;stroke:#000000;stroke-miterlimit:1;" x1="16.786" y1="94.793" x2="20.078" y2="92.818"/>
	<line style="fill:none;stroke:#000000;stroke-miterlimit:1;" x1="20.078" y1="92.818" x2="28.306" y2="90.844"/>
	<line style="fill:none;stroke:#000000;stroke-miterlimit:1;" x1="28.306" y1="90.844" x2="31.927" y2="90.844"/>
	<line style="fill:none;stroke:#000000;stroke-miterlimit:1;" x1="31.927" y1="90.844" x2="37.193" y2="92.16"/>
	<line style="fill:none;stroke:#000000;stroke-miterlimit:1;" x1="37.193" y1="92.16" x2="43.447" y2="94.793"/>
	<line style="fill:none;stroke:#000000;stroke-miterlimit:1;" x1="43.447" y1="94.793" x2="46.08" y2="96.439"/>
	<line style="fill:none;stroke:#000000;stroke-miterlimit:1;" x1="46.08" y1="96.439" x2="48.384" y2="99.73"/>
	<line style="fill:none;stroke:#000000;stroke-miterlimit:1;" x1="48.384" y1="99.73" x2="50.688" y2="102.363"/>
	<line style="fill:none;stroke:#000000;stroke-miterlimit:1;" x1="50.688" y1="102.363" x2="52.663" y2="109.604"/>
	<line style="fill:none;stroke:#000000;stroke-miterlimit:1;" x1="52.663" y1="109.604" x2="52.663" y2="116.846"/>
	<line style="fill:none;stroke:#000000;stroke-miterlimit:1;" x1="52.663" y1="116.846" x2="52.004" y2="119.15"/>
	<line style="fill:none;stroke:#000000;stroke-miterlimit:1;" x1="52.004" y1="119.15" x2="51.346" y2="121.783"/>
	<line style="fill:none;stroke:#000000;stroke-miterlimit:1;" x1="51.346" y1="121.783" x2="47.396" y2="127.379"/>
	<line style="fill:none;stroke:#000000;stroke-miterlimit:1;" x1="47.396" y1="127.379" x2="46.409" y2="128.695"/>
	<line style="fill:none;stroke:#000000;stroke-miterlimit:1;" x1="46.409" y1="128.695" x2="43.118" y2="131.328"/>
	<line style="fill:none;stroke:#000000;stroke-miterlimit:1;" x1="43.118" y1="131.328" x2="39.497" y2="134.29"/>
	<line style="fill:none;stroke:#000000;stroke-miterlimit:1;" x1="39.497" y1="134.29" x2="32.256" y2="135.937"/>
	<line style="fill:none;stroke:#000000;stroke-miterlimit:1;" x1="32.256" y1="135.937" x2="27.977" y2="136.266"/>
	<line style="fill:none;stroke:#000000;stroke-miterlimit:1;" x1="16.457" y1="131.328" x2="103.68" y2="0"/>
	<line style="fill:none;stroke:#000000;stroke-miterlimit:1;" x1="103.68" y1="0" x2="151.734" y2="108.288"/>
	<line style="fill:none;stroke:#000000;stroke-miterlimit:1;" x1="103.68" y1="0" x2="122.77" y2="116.188"/>
	<line style="fill:none;stroke:#000000;stroke-miterlimit:1;" x1="121.454" y1="103.352" x2="146.469" y2="95.122"/>
	<line style="fill:none;stroke:#000000;stroke-miterlimit:1;" x1="133.961" y1="99.73" x2="138.898" y2="111.251"/>
</g>
</svg>
