<?xml version="1.0" encoding="iso-8859-1"?>
<!-- Generator: Adobe Illustrator 16.0.1, SVG Export Plug-In . SVG Version: 6.00 Build 0)  -->
<!DOCTYPE svg PUBLIC "-//W3C//DTD SVG 1.1//EN" "http://www.w3.org/Graphics/SVG/1.1/DTD/svg11.dtd">
<svg version="1.1" id="Ebene_1" xmlns="http://www.w3.org/2000/svg" xmlns:xlink="http://www.w3.org/1999/xlink" x="0px" y="0px"
	 width="175.904px" height="148.155px" viewBox="0 0 175.904 148.155" style="enable-background:new 0 0 175.904 148.155;"
	 xml:space="preserve">
<g>
	<line style="fill:none;stroke:#000000;stroke-miterlimit:1;" x1="23.866" y1="56.364" x2="56.872" y2="24.627"/>
	<line style="fill:none;stroke:#000000;stroke-miterlimit:1;" x1="11.933" y1="51.794" x2="52.556" y2="12.948"/>
	<line style="fill:none;stroke:#000000;stroke-miterlimit:1;" x1="4.062" y1="43.416" x2="44.685" y2="4.57"/>
	<line style="fill:none;stroke:#000000;stroke-miterlimit:1;" x1="0" y1="31.482" x2="32.498" y2="0.508"/>
	<line style="fill:none;stroke:#000000;stroke-miterlimit:1;" x1="40.369" y1="2.285" x2="37.576" y2="1.523"/>
	<line style="fill:none;stroke:#000000;stroke-miterlimit:1;" x1="37.576" y1="1.523" x2="34.783" y2="0.508"/>
	<line style="fill:none;stroke:#000000;stroke-miterlimit:1;" x1="34.783" y1="0.508" x2="31.736" y2="0"/>
	<line style="fill:none;stroke:#000000;stroke-miterlimit:1;" x1="31.736" y1="0" x2="28.69" y2="0"/>
	<line style="fill:none;stroke:#000000;stroke-miterlimit:1;" x1="28.69" y1="0" x2="25.389" y2="0.254"/>
	<line style="fill:none;stroke:#000000;stroke-miterlimit:1;" x1="25.389" y1="0.254" x2="22.596" y2="0.508"/>
	<line style="fill:none;stroke:#000000;stroke-miterlimit:1;" x1="22.596" y1="0.508" x2="19.55" y2="1.523"/>
	<line style="fill:none;stroke:#000000;stroke-miterlimit:1;" x1="19.55" y1="1.523" x2="16.757" y2="2.539"/>
	<line style="fill:none;stroke:#000000;stroke-miterlimit:1;" x1="16.757" y1="2.539" x2="13.964" y2="3.809"/>
	<line style="fill:none;stroke:#000000;stroke-miterlimit:1;" x1="13.964" y1="3.809" x2="11.425" y2="5.585"/>
	<line style="fill:none;stroke:#000000;stroke-miterlimit:1;" x1="11.425" y1="5.585" x2="9.394" y2="7.363"/>
	<line style="fill:none;stroke:#000000;stroke-miterlimit:1;" x1="9.394" y1="7.363" x2="7.363" y2="9.394"/>
	<line style="fill:none;stroke:#000000;stroke-miterlimit:1;" x1="7.363" y1="9.394" x2="5.84" y2="11.171"/>
	<line style="fill:none;stroke:#000000;stroke-miterlimit:1;" x1="5.84" y1="11.171" x2="4.316" y2="13.456"/>
	<line style="fill:none;stroke:#000000;stroke-miterlimit:1;" x1="4.316" y1="13.456" x2="2.539" y2="16.757"/>
	<line style="fill:none;stroke:#000000;stroke-miterlimit:1;" x1="2.539" y1="16.757" x2="1.777" y2="19.296"/>
	<line style="fill:none;stroke:#000000;stroke-miterlimit:1;" x1="1.777" y1="19.296" x2="1.016" y2="22.088"/>
	<line style="fill:none;stroke:#000000;stroke-miterlimit:1;" x1="1.016" y1="22.088" x2="0.508" y2="24.881"/>
	<line style="fill:none;stroke:#000000;stroke-miterlimit:1;" x1="0.508" y1="24.881" x2="0" y2="28.182"/>
	<line style="fill:none;stroke:#000000;stroke-miterlimit:1;" x1="0" y1="28.182" x2="0" y2="30.975"/>
	<line style="fill:none;stroke:#000000;stroke-miterlimit:1;" x1="0" y1="30.975" x2="0.508" y2="34.275"/>
	<line style="fill:none;stroke:#000000;stroke-miterlimit:1;" x1="0.508" y1="34.275" x2="1.27" y2="37.068"/>
	<line style="fill:none;stroke:#000000;stroke-miterlimit:1;" x1="1.27" y1="37.068" x2="2.031" y2="39.607"/>
	<line style="fill:none;stroke:#000000;stroke-miterlimit:1;" x1="2.031" y1="39.607" x2="3.301" y2="42.4"/>
	<line style="fill:none;stroke:#000000;stroke-miterlimit:1;" x1="3.301" y1="42.4" x2="4.062" y2="43.923"/>
	<line style="fill:none;stroke:#000000;stroke-miterlimit:1;" x1="4.062" y1="43.923" x2="5.078" y2="45.192"/>
	<line style="fill:none;stroke:#000000;stroke-miterlimit:1;" x1="5.078" y1="45.192" x2="7.617" y2="47.985"/>
	<line style="fill:none;stroke:#000000;stroke-miterlimit:1;" x1="7.617" y1="47.985" x2="10.156" y2="50.524"/>
	<line style="fill:none;stroke:#000000;stroke-miterlimit:1;" x1="10.156" y1="50.524" x2="12.441" y2="52.302"/>
	<line style="fill:none;stroke:#000000;stroke-miterlimit:1;" x1="12.441" y1="52.302" x2="15.233" y2="53.825"/>
	<line style="fill:none;stroke:#000000;stroke-miterlimit:1;" x1="15.233" y1="53.825" x2="18.28" y2="55.348"/>
	<line style="fill:none;stroke:#000000;stroke-miterlimit:1;" x1="18.28" y1="55.348" x2="21.327" y2="56.11"/>
	<line style="fill:none;stroke:#000000;stroke-miterlimit:1;" x1="21.327" y1="56.11" x2="23.866" y2="56.872"/>
	<line style="fill:none;stroke:#000000;stroke-miterlimit:1;" x1="23.866" y1="56.872" x2="26.913" y2="56.872"/>
	<line style="fill:none;stroke:#000000;stroke-miterlimit:1;" x1="26.913" y1="56.872" x2="29.959" y2="57.125"/>
	<line style="fill:none;stroke:#000000;stroke-miterlimit:1;" x1="29.959" y1="57.125" x2="33.514" y2="56.618"/>
	<line style="fill:none;stroke:#000000;stroke-miterlimit:1;" x1="33.514" y1="56.618" x2="36.053" y2="56.11"/>
	<line style="fill:none;stroke:#000000;stroke-miterlimit:1;" x1="36.053" y1="56.11" x2="39.099" y2="54.84"/>
	<line style="fill:none;stroke:#000000;stroke-miterlimit:1;" x1="39.099" y1="54.84" x2="42.146" y2="53.317"/>
	<line style="fill:none;stroke:#000000;stroke-miterlimit:1;" x1="42.146" y1="53.317" x2="44.177" y2="52.302"/>
	<line style="fill:none;stroke:#000000;stroke-miterlimit:1;" x1="44.177" y1="52.302" x2="46.462" y2="50.271"/>
	<line style="fill:none;stroke:#000000;stroke-miterlimit:1;" x1="46.462" y1="50.271" x2="48.747" y2="48.239"/>
	<line style="fill:none;stroke:#000000;stroke-miterlimit:1;" x1="48.747" y1="48.239" x2="51.032" y2="45.954"/>
	<line style="fill:none;stroke:#000000;stroke-miterlimit:1;" x1="51.032" y1="45.954" x2="52.81" y2="43.162"/>
	<line style="fill:none;stroke:#000000;stroke-miterlimit:1;" x1="52.81" y1="43.162" x2="54.586" y2="40.623"/>
	<line style="fill:none;stroke:#000000;stroke-miterlimit:1;" x1="54.586" y1="40.623" x2="55.856" y2="38.083"/>
	<line style="fill:none;stroke:#000000;stroke-miterlimit:1;" x1="55.856" y1="38.083" x2="56.618" y2="35.037"/>
	<line style="fill:none;stroke:#000000;stroke-miterlimit:1;" x1="56.618" y1="35.037" x2="56.872" y2="32.244"/>
	<line style="fill:none;stroke:#000000;stroke-miterlimit:1;" x1="56.872" y1="32.244" x2="57.379" y2="28.943"/>
	<line style="fill:none;stroke:#000000;stroke-miterlimit:1;" x1="57.379" y1="28.943" x2="57.125" y2="26.151"/>
	<line style="fill:none;stroke:#000000;stroke-miterlimit:1;" x1="57.125" y1="26.151" x2="56.872" y2="22.85"/>
	<line style="fill:none;stroke:#000000;stroke-miterlimit:1;" x1="56.872" y1="22.85" x2="56.11" y2="20.058"/>
	<line style="fill:none;stroke:#000000;stroke-miterlimit:1;" x1="56.11" y1="20.058" x2="55.094" y2="17.519"/>
	<line style="fill:none;stroke:#000000;stroke-miterlimit:1;" x1="55.094" y1="17.519" x2="53.825" y2="14.218"/>
	<line style="fill:none;stroke:#000000;stroke-miterlimit:1;" x1="53.825" y1="14.218" x2="52.048" y2="11.679"/>
	<line style="fill:none;stroke:#000000;stroke-miterlimit:1;" x1="52.048" y1="11.679" x2="50.271" y2="9.648"/>
	<line style="fill:none;stroke:#000000;stroke-miterlimit:1;" x1="50.271" y1="9.648" x2="48.239" y2="7.109"/>
	<line style="fill:none;stroke:#000000;stroke-miterlimit:1;" x1="48.239" y1="7.109" x2="45.701" y2="5.332"/>
	<line style="fill:none;stroke:#000000;stroke-miterlimit:1;" x1="45.701" y1="5.332" x2="43.162" y2="3.555"/>
	<line style="fill:none;stroke:#000000;stroke-miterlimit:1;" x1="43.162" y1="3.555" x2="40.369" y2="2.285"/>
	<line style="fill:none;stroke:#000000;stroke-miterlimit:1;" x1="7.496" y1="113.751" x2="16.526" y2="148.114"/>
	<line style="fill:none;stroke:#000000;stroke-miterlimit:1;" x1="16.526" y1="148.114" x2="44.87" y2="148.114"/>
	<line style="fill:none;stroke:#000000;stroke-miterlimit:1;" x1="44.87" y1="148.114" x2="53.649" y2="113.751"/>
	<line style="fill:none;stroke:#000000;stroke-miterlimit:1;" x1="53.649" y1="113.751" x2="7.496" y2="113.751"/>
	<line style="fill:none;stroke:#000000;stroke-miterlimit:1;" x1="36.592" y1="113.751" x2="36.091" y2="109.737"/>
	<line style="fill:none;stroke:#000000;stroke-miterlimit:1;" x1="36.091" y1="109.737" x2="34.586" y2="105.725"/>
	<line style="fill:none;stroke:#000000;stroke-miterlimit:1;" x1="34.586" y1="105.725" x2="31.827" y2="102.464"/>
	<line style="fill:none;stroke:#000000;stroke-miterlimit:1;" x1="31.827" y1="102.464" x2="28.817" y2="99.955"/>
	<line style="fill:none;stroke:#000000;stroke-miterlimit:1;" x1="28.817" y1="99.955" x2="25.305" y2="97.447"/>
	<line style="fill:none;stroke:#000000;stroke-miterlimit:1;" x1="25.305" y1="97.447" x2="23.298" y2="94.938"/>
	<line style="fill:none;stroke:#000000;stroke-miterlimit:1;" x1="23.298" y1="94.938" x2="22.295" y2="91.427"/>
	<line style="fill:none;stroke:#000000;stroke-miterlimit:1;" x1="22.295" y1="91.427" x2="23.048" y2="87.665"/>
	<line style="fill:none;stroke:#000000;stroke-miterlimit:1;" x1="23.048" y1="87.665" x2="22.797" y2="83.902"/>
	<line style="fill:none;stroke:#000000;stroke-miterlimit:1;" x1="22.797" y1="83.902" x2="21.542" y2="80.391"/>
	<line style="fill:none;stroke:#000000;stroke-miterlimit:1;" x1="21.542" y1="80.391" x2="19.285" y2="77.381"/>
	<line style="fill:none;stroke:#000000;stroke-miterlimit:1;" x1="19.285" y1="77.381" x2="16.526" y2="75.123"/>
	<line style="fill:none;stroke:#000000;stroke-miterlimit:1;" x1="16.526" y1="75.123" x2="13.516" y2="72.866"/>
	<line style="fill:none;stroke:#000000;stroke-miterlimit:1;" x1="13.516" y1="72.866" x2="11.008" y2="70.859"/>
	<line style="fill:none;stroke:#000000;stroke-miterlimit:1;" x1="11.008" y1="70.859" x2="9.503" y2="69.104"/>
	<line style="fill:none;stroke:#000000;stroke-miterlimit:1;" x1="9.503" y1="69.104" x2="9.503" y2="70.608"/>
	<line style="fill:none;stroke:#000000;stroke-miterlimit:1;" x1="9.503" y1="70.608" x2="10.506" y2="73.117"/>
	<line style="fill:none;stroke:#000000;stroke-miterlimit:1;" x1="10.506" y1="73.117" x2="12.764" y2="75.876"/>
	<line style="fill:none;stroke:#000000;stroke-miterlimit:1;" x1="12.764" y1="75.876" x2="15.021" y2="78.635"/>
	<line style="fill:none;stroke:#000000;stroke-miterlimit:1;" x1="15.021" y1="78.635" x2="16.526" y2="80.642"/>
	<line style="fill:none;stroke:#000000;stroke-miterlimit:1;" x1="16.526" y1="80.642" x2="17.279" y2="83.4"/>
	<line style="fill:none;stroke:#000000;stroke-miterlimit:1;" x1="17.279" y1="83.4" x2="17.529" y2="85.658"/>
	<line style="fill:none;stroke:#000000;stroke-miterlimit:1;" x1="17.529" y1="85.658" x2="17.028" y2="88.919"/>
	<line style="fill:none;stroke:#000000;stroke-miterlimit:1;" x1="17.028" y1="88.919" x2="16.275" y2="91.427"/>
	<line style="fill:none;stroke:#000000;stroke-miterlimit:1;" x1="16.275" y1="91.427" x2="16.275" y2="94.938"/>
	<line style="fill:none;stroke:#000000;stroke-miterlimit:1;" x1="16.275" y1="94.938" x2="17.279" y2="97.447"/>
	<line style="fill:none;stroke:#000000;stroke-miterlimit:1;" x1="17.279" y1="97.447" x2="19.787" y2="100.958"/>
	<line style="fill:none;stroke:#000000;stroke-miterlimit:1;" x1="19.787" y1="100.958" x2="22.546" y2="103.718"/>
	<line style="fill:none;stroke:#000000;stroke-miterlimit:1;" x1="22.546" y1="103.718" x2="25.054" y2="105.975"/>
	<line style="fill:none;stroke:#000000;stroke-miterlimit:1;" x1="25.054" y1="105.975" x2="26.309" y2="108.232"/>
	<line style="fill:none;stroke:#000000;stroke-miterlimit:1;" x1="26.309" y1="108.232" x2="26.559" y2="110.239"/>
	<line style="fill:none;stroke:#000000;stroke-miterlimit:1;" x1="26.559" y1="110.239" x2="26.559" y2="112.246"/>
	<line style="fill:none;stroke:#000000;stroke-miterlimit:1;" x1="26.559" y1="112.246" x2="26.058" y2="113.751"/>
	<line style="fill:none;stroke:#000000;stroke-miterlimit:1;" x1="144.422" y1="144.441" x2="156.449" y2="133.476"/>
	<line style="fill:none;stroke:#000000;stroke-miterlimit:1;" x1="156.449" y1="133.476" x2="167.77" y2="144.441"/>
	<line style="fill:none;stroke:#000000;stroke-miterlimit:1;" x1="172.367" y1="139.489" x2="161.756" y2="128.7"/>
	<line style="fill:none;stroke:#000000;stroke-miterlimit:1;" x1="161.756" y1="128.7" x2="173.074" y2="117.911"/>
	<line style="fill:none;stroke:#000000;stroke-miterlimit:1;" x1="168.123" y1="112.428" x2="156.803" y2="123.217"/>
	<line style="fill:none;stroke:#000000;stroke-miterlimit:1;" x1="156.803" y1="123.217" x2="145.484" y2="111.544"/>
	<line style="fill:none;stroke:#000000;stroke-miterlimit:1;" x1="140.531" y1="116.319" x2="151.498" y2="127.992"/>
	<line style="fill:none;stroke:#000000;stroke-miterlimit:1;" x1="151.498" y1="127.992" x2="139.824" y2="139.135"/>
	<line style="fill:none;stroke:#000000;stroke-miterlimit:1;" x1="154.682" y1="148.155" x2="159.633" y2="147.979"/>
	<line style="fill:none;stroke:#000000;stroke-miterlimit:1;" x1="159.633" y1="147.979" x2="162.463" y2="147.271"/>
	<line style="fill:none;stroke:#000000;stroke-miterlimit:1;" x1="162.463" y1="147.271" x2="164.939" y2="146.21"/>
	<line style="fill:none;stroke:#000000;stroke-miterlimit:1;" x1="164.939" y1="146.21" x2="167.77" y2="144.265"/>
	<line style="fill:none;stroke:#000000;stroke-miterlimit:1;" x1="167.77" y1="144.265" x2="169.891" y2="142.318"/>
	<line style="fill:none;stroke:#000000;stroke-miterlimit:1;" x1="169.891" y1="142.318" x2="172.014" y2="140.02"/>
	<line style="fill:none;stroke:#000000;stroke-miterlimit:1;" x1="172.014" y1="140.02" x2="173.43" y2="137.72"/>
	<line style="fill:none;stroke:#000000;stroke-miterlimit:1;" x1="173.43" y1="137.72" x2="174.844" y2="135.244"/>
	<line style="fill:none;stroke:#000000;stroke-miterlimit:1;" x1="174.844" y1="135.244" x2="175.551" y2="132.768"/>
	<line style="fill:none;stroke:#000000;stroke-miterlimit:1;" x1="175.551" y1="132.768" x2="175.904" y2="129.938"/>
	<line style="fill:none;stroke:#000000;stroke-miterlimit:1;" x1="175.904" y1="129.938" x2="175.904" y2="127.108"/>
	<line style="fill:none;stroke:#000000;stroke-miterlimit:1;" x1="175.904" y1="127.108" x2="175.021" y2="122.155"/>
	<line style="fill:none;stroke:#000000;stroke-miterlimit:1;" x1="175.021" y1="122.155" x2="173.959" y2="119.503"/>
	<line style="fill:none;stroke:#000000;stroke-miterlimit:1;" x1="173.959" y1="119.503" x2="172.367" y2="116.85"/>
	<line style="fill:none;stroke:#000000;stroke-miterlimit:1;" x1="172.367" y1="116.85" x2="170.6" y2="114.373"/>
	<line style="fill:none;stroke:#000000;stroke-miterlimit:1;" x1="170.6" y1="114.373" x2="167.945" y2="112.074"/>
	<line style="fill:none;stroke:#000000;stroke-miterlimit:1;" x1="167.945" y1="112.074" x2="165.824" y2="110.659"/>
	<line style="fill:none;stroke:#000000;stroke-miterlimit:1;" x1="165.824" y1="110.659" x2="163.701" y2="109.774"/>
	<line style="fill:none;stroke:#000000;stroke-miterlimit:1;" x1="163.701" y1="109.774" x2="161.756" y2="109.067"/>
	<line style="fill:none;stroke:#000000;stroke-miterlimit:1;" x1="161.756" y1="109.067" x2="159.102" y2="108.537"/>
	<line style="fill:none;stroke:#000000;stroke-miterlimit:1;" x1="159.102" y1="108.537" x2="156.449" y2="108.36"/>
	<line style="fill:none;stroke:#000000;stroke-miterlimit:1;" x1="156.449" y1="108.36" x2="152.912" y2="108.36"/>
	<line style="fill:none;stroke:#000000;stroke-miterlimit:1;" x1="152.912" y1="108.36" x2="150.082" y2="109.067"/>
	<line style="fill:none;stroke:#000000;stroke-miterlimit:1;" x1="150.082" y1="109.067" x2="147.43" y2="110.129"/>
	<line style="fill:none;stroke:#000000;stroke-miterlimit:1;" x1="147.43" y1="110.129" x2="144.953" y2="111.544"/>
	<line style="fill:none;stroke:#000000;stroke-miterlimit:1;" x1="144.953" y1="111.544" x2="142.654" y2="113.489"/>
	<line style="fill:none;stroke:#000000;stroke-miterlimit:1;" x1="142.654" y1="113.489" x2="140.531" y2="115.965"/>
	<line style="fill:none;stroke:#000000;stroke-miterlimit:1;" x1="140.531" y1="115.965" x2="138.586" y2="118.441"/>
	<line style="fill:none;stroke:#000000;stroke-miterlimit:1;" x1="138.586" y1="118.441" x2="137.701" y2="120.21"/>
	<line style="fill:none;stroke:#000000;stroke-miterlimit:1;" x1="137.701" y1="120.21" x2="136.994" y2="122.155"/>
	<line style="fill:none;stroke:#000000;stroke-miterlimit:1;" x1="136.994" y1="122.155" x2="136.287" y2="125.517"/>
	<line style="fill:none;stroke:#000000;stroke-miterlimit:1;" x1="136.287" y1="125.517" x2="136.287" y2="128.7"/>
	<line style="fill:none;stroke:#000000;stroke-miterlimit:1;" x1="136.287" y1="128.7" x2="136.641" y2="130.999"/>
	<line style="fill:none;stroke:#000000;stroke-miterlimit:1;" x1="136.641" y1="130.999" x2="136.994" y2="133.476"/>
	<line style="fill:none;stroke:#000000;stroke-miterlimit:1;" x1="136.994" y1="133.476" x2="137.879" y2="135.951"/>
	<line style="fill:none;stroke:#000000;stroke-miterlimit:1;" x1="137.879" y1="135.951" x2="139.117" y2="138.781"/>
	<line style="fill:none;stroke:#000000;stroke-miterlimit:1;" x1="139.117" y1="138.781" x2="141.238" y2="141.435"/>
	<line style="fill:none;stroke:#000000;stroke-miterlimit:1;" x1="141.238" y1="141.435" x2="143.361" y2="143.38"/>
	<line style="fill:none;stroke:#000000;stroke-miterlimit:1;" x1="143.361" y1="143.38" x2="145.838" y2="145.325"/>
	<line style="fill:none;stroke:#000000;stroke-miterlimit:1;" x1="145.838" y1="145.325" x2="148.314" y2="146.563"/>
	<line style="fill:none;stroke:#000000;stroke-miterlimit:1;" x1="148.314" y1="146.563" x2="151.32" y2="147.625"/>
	<line style="fill:none;stroke:#000000;stroke-miterlimit:1;" x1="151.32" y1="147.625" x2="154.682" y2="148.155"/>
	<line style="fill:none;stroke:#000000;stroke-miterlimit:1;" x1="127.549" y1="142.526" x2="74.677" y2="142.526"/>
	<line style="fill:none;stroke:#000000;stroke-miterlimit:1;" x1="74.677" y1="142.526" x2="75.349" y2="138.046"/>
	<line style="fill:none;stroke:#000000;stroke-miterlimit:1;" x1="75.349" y1="138.046" x2="76.021" y2="135.134"/>
	<line style="fill:none;stroke:#000000;stroke-miterlimit:1;" x1="76.021" y1="135.134" x2="77.142" y2="132.221"/>
	<line style="fill:none;stroke:#000000;stroke-miterlimit:1;" x1="77.142" y1="132.221" x2="78.71" y2="129.98"/>
	<line style="fill:none;stroke:#000000;stroke-miterlimit:1;" x1="78.71" y1="129.98" x2="80.054" y2="127.964"/>
	<line style="fill:none;stroke:#000000;stroke-miterlimit:1;" x1="80.054" y1="127.964" x2="81.846" y2="125.5"/>
	<line style="fill:none;stroke:#000000;stroke-miterlimit:1;" x1="81.846" y1="125.5" x2="83.863" y2="123.708"/>
	<line style="fill:none;stroke:#000000;stroke-miterlimit:1;" x1="83.863" y1="123.708" x2="86.327" y2="121.915"/>
	<line style="fill:none;stroke:#000000;stroke-miterlimit:1;" x1="86.327" y1="121.915" x2="88.344" y2="120.571"/>
	<line style="fill:none;stroke:#000000;stroke-miterlimit:1;" x1="88.344" y1="120.571" x2="91.256" y2="119.227"/>
	<line style="fill:none;stroke:#000000;stroke-miterlimit:1;" x1="91.256" y1="119.227" x2="94.168" y2="118.331"/>
	<line style="fill:none;stroke:#000000;stroke-miterlimit:1;" x1="94.168" y1="118.331" x2="96.184" y2="117.883"/>
	<line style="fill:none;stroke:#000000;stroke-miterlimit:1;" x1="96.184" y1="117.883" x2="99.77" y2="117.435"/>
	<line style="fill:none;stroke:#000000;stroke-miterlimit:1;" x1="99.77" y1="117.435" x2="102.457" y2="117.435"/>
	<line style="fill:none;stroke:#000000;stroke-miterlimit:1;" x1="102.457" y1="117.435" x2="104.922" y2="117.883"/>
	<line style="fill:none;stroke:#000000;stroke-miterlimit:1;" x1="104.922" y1="117.883" x2="107.609" y2="118.331"/>
	<line style="fill:none;stroke:#000000;stroke-miterlimit:1;" x1="107.609" y1="118.331" x2="110.523" y2="119.003"/>
	<line style="fill:none;stroke:#000000;stroke-miterlimit:1;" x1="110.523" y1="119.003" x2="112.539" y2="119.675"/>
	<line style="fill:none;stroke:#000000;stroke-miterlimit:1;" x1="112.539" y1="119.675" x2="115.227" y2="121.468"/>
	<line style="fill:none;stroke:#000000;stroke-miterlimit:1;" x1="115.227" y1="121.468" x2="117.467" y2="123.035"/>
	<line style="fill:none;stroke:#000000;stroke-miterlimit:1;" x1="117.467" y1="123.035" x2="119.484" y2="124.604"/>
	<line style="fill:none;stroke:#000000;stroke-miterlimit:1;" x1="119.484" y1="124.604" x2="121.275" y2="126.844"/>
	<line style="fill:none;stroke:#000000;stroke-miterlimit:1;" x1="121.275" y1="126.844" x2="123.068" y2="129.309"/>
	<line style="fill:none;stroke:#000000;stroke-miterlimit:1;" x1="123.068" y1="129.309" x2="124.637" y2="131.772"/>
	<line style="fill:none;stroke:#000000;stroke-miterlimit:1;" x1="124.637" y1="131.772" x2="125.758" y2="134.014"/>
	<line style="fill:none;stroke:#000000;stroke-miterlimit:1;" x1="125.758" y1="134.014" x2="126.652" y2="137.374"/>
	<line style="fill:none;stroke:#000000;stroke-miterlimit:1;" x1="126.652" y1="137.374" x2="127.324" y2="139.838"/>
	<line style="fill:none;stroke:#000000;stroke-miterlimit:1;" x1="127.324" y1="139.838" x2="127.549" y2="142.526"/>
	<line style="fill:none;stroke:#000000;stroke-miterlimit:1;" x1="116.516" y1="84.502" x2="129.285" y2="84.502"/>
	<line style="fill:none;stroke:#000000;stroke-miterlimit:1;" x1="129.285" y1="84.502" x2="134.438" y2="100.856"/>
	<line style="fill:none;stroke:#000000;stroke-miterlimit:1;" x1="134.438" y1="100.856" x2="111.586" y2="100.856"/>
	<line style="fill:none;stroke:#000000;stroke-miterlimit:1;" x1="111.586" y1="100.856" x2="116.516" y2="84.502"/>
	<line style="fill:none;stroke:#000000;stroke-miterlimit:1;" x1="123.236" y1="84.502" x2="123.236" y2="16.396"/>
	<line style="fill:none;stroke:#000000;stroke-miterlimit:1;" x1="123.236" y1="16.396" x2="124.357" y2="16.171"/>
	<line style="fill:none;stroke:#000000;stroke-miterlimit:1;" x1="124.357" y1="16.171" x2="125.252" y2="15.724"/>
	<line style="fill:none;stroke:#000000;stroke-miterlimit:1;" x1="125.252" y1="15.724" x2="126.598" y2="14.379"/>
	<line style="fill:none;stroke:#000000;stroke-miterlimit:1;" x1="126.598" y1="14.379" x2="127.27" y2="13.259"/>
	<line style="fill:none;stroke:#000000;stroke-miterlimit:1;" x1="127.27" y1="13.259" x2="127.941" y2="11.243"/>
	<line style="fill:none;stroke:#000000;stroke-miterlimit:1;" x1="127.941" y1="11.243" x2="128.166" y2="8.554"/>
	<line style="fill:none;stroke:#000000;stroke-miterlimit:1;" x1="128.166" y1="8.554" x2="128.389" y2="6.762"/>
	<line style="fill:none;stroke:#000000;stroke-miterlimit:1;" x1="128.389" y1="6.762" x2="128.613" y2="5.194"/>
	<line style="fill:none;stroke:#000000;stroke-miterlimit:1;" x1="128.613" y1="5.194" x2="129.734" y2="3.625"/>
	<line style="fill:none;stroke:#000000;stroke-miterlimit:1;" x1="129.734" y1="3.625" x2="130.629" y2="3.178"/>
	<line style="fill:none;stroke:#000000;stroke-miterlimit:1;" x1="130.629" y1="3.178" x2="132.197" y2="2.954"/>
	<line style="fill:none;stroke:#000000;stroke-miterlimit:1;" x1="132.197" y1="2.954" x2="133.543" y2="2.505"/>
	<line style="fill:none;stroke:#000000;stroke-miterlimit:1;" x1="133.543" y1="2.505" x2="133.094" y2="1.833"/>
	<line style="fill:none;stroke:#000000;stroke-miterlimit:1;" x1="133.094" y1="1.833" x2="127.27" y2="0.489"/>
	<line style="fill:none;stroke:#000000;stroke-miterlimit:1;" x1="127.27" y1="0.489" x2="123.012" y2="0.041"/>
	<line style="fill:none;stroke:#000000;stroke-miterlimit:1;" x1="123.012" y1="0.041" x2="116.963" y2="0.489"/>
	<line style="fill:none;stroke:#000000;stroke-miterlimit:1;" x1="116.963" y1="0.489" x2="112.035" y2="1.385"/>
	<line style="fill:none;stroke:#000000;stroke-miterlimit:1;" x1="112.035" y1="1.385" x2="112.035" y2="2.505"/>
	<line style="fill:none;stroke:#000000;stroke-miterlimit:1;" x1="112.035" y1="2.505" x2="113.379" y2="2.729"/>
	<line style="fill:none;stroke:#000000;stroke-miterlimit:1;" x1="113.379" y1="2.729" x2="115.619" y2="4.074"/>
	<line style="fill:none;stroke:#000000;stroke-miterlimit:1;" x1="115.619" y1="4.074" x2="116.291" y2="4.97"/>
	<line style="fill:none;stroke:#000000;stroke-miterlimit:1;" x1="116.291" y1="4.97" x2="116.74" y2="5.866"/>
	<line style="fill:none;stroke:#000000;stroke-miterlimit:1;" x1="116.74" y1="5.866" x2="117.188" y2="8.778"/>
	<line style="fill:none;stroke:#000000;stroke-miterlimit:1;" x1="117.188" y1="8.778" x2="117.188" y2="10.571"/>
	<line style="fill:none;stroke:#000000;stroke-miterlimit:1;" x1="117.188" y1="10.571" x2="117.859" y2="13.035"/>
	<line style="fill:none;stroke:#000000;stroke-miterlimit:1;" x1="117.859" y1="13.035" x2="118.309" y2="14.379"/>
	<line style="fill:none;stroke:#000000;stroke-miterlimit:1;" x1="118.309" y1="14.379" x2="120.324" y2="15.947"/>
	<line style="fill:none;stroke:#000000;stroke-miterlimit:1;" x1="120.324" y1="15.947" x2="121.893" y2="16.396"/>
	<line style="fill:none;stroke:#000000;stroke-miterlimit:1;" x1="121.893" y1="16.396" x2="121.893" y2="84.502"/>
	<line style="fill:none;stroke:#000000;stroke-miterlimit:1;" x1="126.373" y1="84.502" x2="136.678" y2="39.919"/>
	<line style="fill:none;stroke:#000000;stroke-miterlimit:1;" x1="136.678" y1="39.919" x2="137.799" y2="39.919"/>
	<line style="fill:none;stroke:#000000;stroke-miterlimit:1;" x1="137.799" y1="39.919" x2="138.695" y2="39.919"/>
	<line style="fill:none;stroke:#000000;stroke-miterlimit:1;" x1="138.695" y1="39.919" x2="140.264" y2="38.799"/>
	<line style="fill:none;stroke:#000000;stroke-miterlimit:1;" x1="140.264" y1="38.799" x2="141.383" y2="37.903"/>
	<line style="fill:none;stroke:#000000;stroke-miterlimit:1;" x1="141.383" y1="37.903" x2="142.279" y2="36.11"/>
	<line style="fill:none;stroke:#000000;stroke-miterlimit:1;" x1="142.279" y1="36.11" x2="143.176" y2="33.422"/>
	<line style="fill:none;stroke:#000000;stroke-miterlimit:1;" x1="143.176" y1="33.422" x2="143.4" y2="31.63"/>
	<line style="fill:none;stroke:#000000;stroke-miterlimit:1;" x1="143.4" y1="31.63" x2="144.072" y2="30.062"/>
	<line style="fill:none;stroke:#000000;stroke-miterlimit:1;" x1="144.072" y1="30.062" x2="145.863" y2="28.941"/>
	<line style="fill:none;stroke:#000000;stroke-miterlimit:1;" x1="145.863" y1="28.941" x2="146.76" y2="28.717"/>
	<line style="fill:none;stroke:#000000;stroke-miterlimit:1;" x1="146.76" y1="28.717" x2="148.328" y2="28.717"/>
	<line style="fill:none;stroke:#000000;stroke-miterlimit:1;" x1="148.328" y1="28.717" x2="149.672" y2="28.493"/>
	<line style="fill:none;stroke:#000000;stroke-miterlimit:1;" x1="149.672" y1="28.493" x2="149.449" y2="27.821"/>
	<line style="fill:none;stroke:#000000;stroke-miterlimit:1;" x1="149.449" y1="27.821" x2="142.055" y2="24.685"/>
	<line style="fill:none;stroke:#000000;stroke-miterlimit:1;" x1="142.055" y1="24.685" x2="138.918" y2="23.564"/>
	<line style="fill:none;stroke:#000000;stroke-miterlimit:1;" x1="138.918" y1="23.564" x2="133.543" y2="23.117"/>
	<line style="fill:none;stroke:#000000;stroke-miterlimit:1;" x1="133.543" y1="23.117" x2="128.838" y2="22.893"/>
	<line style="fill:none;stroke:#000000;stroke-miterlimit:1;" x1="128.838" y1="22.893" x2="128.613" y2="24.013"/>
	<line style="fill:none;stroke:#000000;stroke-miterlimit:1;" x1="128.613" y1="24.013" x2="129.734" y2="24.461"/>
	<line style="fill:none;stroke:#000000;stroke-miterlimit:1;" x1="129.734" y1="24.461" x2="131.75" y2="26.253"/>
	<line style="fill:none;stroke:#000000;stroke-miterlimit:1;" x1="131.75" y1="26.253" x2="132.422" y2="27.373"/>
	<line style="fill:none;stroke:#000000;stroke-miterlimit:1;" x1="132.422" y1="27.373" x2="132.646" y2="28.27"/>
	<line style="fill:none;stroke:#000000;stroke-miterlimit:1;" x1="132.646" y1="28.27" x2="131.975" y2="30.958"/>
	<line style="fill:none;stroke:#000000;stroke-miterlimit:1;" x1="131.975" y1="30.958" x2="131.75" y2="32.974"/>
	<line style="fill:none;stroke:#000000;stroke-miterlimit:1;" x1="131.75" y1="32.974" x2="131.75" y2="35.438"/>
	<line style="fill:none;stroke:#000000;stroke-miterlimit:1;" x1="131.75" y1="35.438" x2="131.975" y2="36.783"/>
	<line style="fill:none;stroke:#000000;stroke-miterlimit:1;" x1="131.975" y1="36.783" x2="133.543" y2="39.023"/>
	<line style="fill:none;stroke:#000000;stroke-miterlimit:1;" x1="133.543" y1="39.023" x2="135.109" y2="39.695"/>
	<line style="fill:none;stroke:#000000;stroke-miterlimit:1;" x1="135.109" y1="39.695" x2="125.252" y2="84.502"/>
	<line style="fill:none;stroke:#000000;stroke-miterlimit:1;" x1="118.756" y1="84.502" x2="108.674" y2="39.919"/>
	<line style="fill:none;stroke:#000000;stroke-miterlimit:1;" x1="108.674" y1="39.919" x2="107.555" y2="39.919"/>
	<line style="fill:none;stroke:#000000;stroke-miterlimit:1;" x1="107.555" y1="39.919" x2="106.658" y2="39.919"/>
	<line style="fill:none;stroke:#000000;stroke-miterlimit:1;" x1="106.658" y1="39.919" x2="105.09" y2="38.799"/>
	<line style="fill:none;stroke:#000000;stroke-miterlimit:1;" x1="105.09" y1="38.799" x2="103.969" y2="37.903"/>
	<line style="fill:none;stroke:#000000;stroke-miterlimit:1;" x1="103.969" y1="37.903" x2="103.074" y2="36.11"/>
	<line style="fill:none;stroke:#000000;stroke-miterlimit:1;" x1="103.074" y1="36.11" x2="102.178" y2="33.422"/>
	<line style="fill:none;stroke:#000000;stroke-miterlimit:1;" x1="102.178" y1="33.422" x2="102.178" y2="31.63"/>
	<line style="fill:none;stroke:#000000;stroke-miterlimit:1;" x1="102.178" y1="31.63" x2="101.281" y2="30.062"/>
	<line style="fill:none;stroke:#000000;stroke-miterlimit:1;" x1="101.281" y1="30.062" x2="99.488" y2="28.717"/>
	<line style="fill:none;stroke:#000000;stroke-miterlimit:1;" x1="99.488" y1="28.717" x2="98.594" y2="28.717"/>
	<line style="fill:none;stroke:#000000;stroke-miterlimit:1;" x1="98.594" y1="28.717" x2="97.025" y2="28.717"/>
	<line style="fill:none;stroke:#000000;stroke-miterlimit:1;" x1="97.025" y1="28.717" x2="95.68" y2="28.493"/>
	<line style="fill:none;stroke:#000000;stroke-miterlimit:1;" x1="95.68" y1="28.493" x2="95.904" y2="27.821"/>
	<line style="fill:none;stroke:#000000;stroke-miterlimit:1;" x1="95.904" y1="27.821" x2="101.281" y2="25.357"/>
	<line style="fill:none;stroke:#000000;stroke-miterlimit:1;" x1="101.281" y1="25.357" x2="105.09" y2="24.013"/>
	<line style="fill:none;stroke:#000000;stroke-miterlimit:1;" x1="105.09" y1="24.013" x2="111.811" y2="23.117"/>
	<line style="fill:none;stroke:#000000;stroke-miterlimit:1;" x1="111.811" y1="23.117" x2="116.516" y2="22.893"/>
	<line style="fill:none;stroke:#000000;stroke-miterlimit:1;" x1="116.516" y1="22.893" x2="116.74" y2="24.013"/>
	<line style="fill:none;stroke:#000000;stroke-miterlimit:1;" x1="116.74" y1="24.013" x2="115.619" y2="24.461"/>
	<line style="fill:none;stroke:#000000;stroke-miterlimit:1;" x1="115.619" y1="24.461" x2="113.604" y2="26.253"/>
	<line style="fill:none;stroke:#000000;stroke-miterlimit:1;" x1="113.604" y1="26.253" x2="112.932" y2="27.373"/>
	<line style="fill:none;stroke:#000000;stroke-miterlimit:1;" x1="112.932" y1="27.373" x2="112.707" y2="28.27"/>
	<line style="fill:none;stroke:#000000;stroke-miterlimit:1;" x1="112.707" y1="28.27" x2="113.379" y2="30.958"/>
	<line style="fill:none;stroke:#000000;stroke-miterlimit:1;" x1="113.379" y1="30.958" x2="113.604" y2="32.974"/>
	<line style="fill:none;stroke:#000000;stroke-miterlimit:1;" x1="113.604" y1="32.974" x2="113.604" y2="35.887"/>
	<line style="fill:none;stroke:#000000;stroke-miterlimit:1;" x1="113.604" y1="35.887" x2="113.604" y2="36.783"/>
	<line style="fill:none;stroke:#000000;stroke-miterlimit:1;" x1="113.604" y1="36.783" x2="112.035" y2="39.023"/>
	<line style="fill:none;stroke:#000000;stroke-miterlimit:1;" x1="112.035" y1="39.023" x2="110.467" y2="39.695"/>
	<line style="fill:none;stroke:#000000;stroke-miterlimit:1;" x1="110.467" y1="39.695" x2="119.875" y2="84.502"/>
</g>
</svg>
