<?xml version="1.0" encoding="iso-8859-1"?>
<!-- Generator: Adobe Illustrator 16.0.1, SVG Export Plug-In . SVG Version: 6.00 Build 0)  -->
<!DOCTYPE svg PUBLIC "-//W3C//DTD SVG 1.1//EN" "http://www.w3.org/Graphics/SVG/1.1/DTD/svg11.dtd">
<svg version="1.1" id="Ebene_1" xmlns="http://www.w3.org/2000/svg" xmlns:xlink="http://www.w3.org/1999/xlink" x="0px" y="0px"
	 width="306.904px" height="148.525px" viewBox="0 0 306.904 148.525" style="enable-background:new 0 0 306.904 148.525;"
	 xml:space="preserve">
<g>
	<line style="fill:none;stroke:#000000;stroke-miterlimit:1;" x1="23.866" y1="56.364" x2="56.872" y2="24.627"/>
	<line style="fill:none;stroke:#000000;stroke-miterlimit:1;" x1="11.933" y1="51.794" x2="52.556" y2="12.948"/>
	<line style="fill:none;stroke:#000000;stroke-miterlimit:1;" x1="4.062" y1="43.416" x2="44.685" y2="4.57"/>
	<line style="fill:none;stroke:#000000;stroke-miterlimit:1;" x1="0" y1="31.482" x2="32.498" y2="0.508"/>
	<line style="fill:none;stroke:#000000;stroke-miterlimit:1;" x1="40.369" y1="2.285" x2="37.576" y2="1.523"/>
	<line style="fill:none;stroke:#000000;stroke-miterlimit:1;" x1="37.576" y1="1.523" x2="34.783" y2="0.508"/>
	<line style="fill:none;stroke:#000000;stroke-miterlimit:1;" x1="34.783" y1="0.508" x2="31.737" y2="0"/>
	<line style="fill:none;stroke:#000000;stroke-miterlimit:1;" x1="31.737" y1="0" x2="28.69" y2="0"/>
	<line style="fill:none;stroke:#000000;stroke-miterlimit:1;" x1="28.69" y1="0" x2="25.389" y2="0.254"/>
	<line style="fill:none;stroke:#000000;stroke-miterlimit:1;" x1="25.389" y1="0.254" x2="22.597" y2="0.508"/>
	<line style="fill:none;stroke:#000000;stroke-miterlimit:1;" x1="22.597" y1="0.508" x2="19.55" y2="1.523"/>
	<line style="fill:none;stroke:#000000;stroke-miterlimit:1;" x1="19.55" y1="1.523" x2="16.757" y2="2.539"/>
	<line style="fill:none;stroke:#000000;stroke-miterlimit:1;" x1="16.757" y1="2.539" x2="13.964" y2="3.809"/>
	<line style="fill:none;stroke:#000000;stroke-miterlimit:1;" x1="13.964" y1="3.809" x2="11.425" y2="5.585"/>
	<line style="fill:none;stroke:#000000;stroke-miterlimit:1;" x1="11.425" y1="5.585" x2="9.394" y2="7.363"/>
	<line style="fill:none;stroke:#000000;stroke-miterlimit:1;" x1="9.394" y1="7.363" x2="7.363" y2="9.394"/>
	<line style="fill:none;stroke:#000000;stroke-miterlimit:1;" x1="7.363" y1="9.394" x2="5.84" y2="11.171"/>
	<line style="fill:none;stroke:#000000;stroke-miterlimit:1;" x1="5.84" y1="11.171" x2="4.316" y2="13.456"/>
	<line style="fill:none;stroke:#000000;stroke-miterlimit:1;" x1="4.316" y1="13.456" x2="2.539" y2="16.757"/>
	<line style="fill:none;stroke:#000000;stroke-miterlimit:1;" x1="2.539" y1="16.757" x2="1.777" y2="19.296"/>
	<line style="fill:none;stroke:#000000;stroke-miterlimit:1;" x1="1.777" y1="19.296" x2="1.016" y2="22.088"/>
	<line style="fill:none;stroke:#000000;stroke-miterlimit:1;" x1="1.016" y1="22.088" x2="0.508" y2="24.881"/>
	<line style="fill:none;stroke:#000000;stroke-miterlimit:1;" x1="0.508" y1="24.881" x2="0" y2="28.182"/>
	<line style="fill:none;stroke:#000000;stroke-miterlimit:1;" x1="0" y1="28.182" x2="0" y2="30.975"/>
	<line style="fill:none;stroke:#000000;stroke-miterlimit:1;" x1="0" y1="30.975" x2="0.508" y2="34.275"/>
	<line style="fill:none;stroke:#000000;stroke-miterlimit:1;" x1="0.508" y1="34.275" x2="1.27" y2="37.068"/>
	<line style="fill:none;stroke:#000000;stroke-miterlimit:1;" x1="1.27" y1="37.068" x2="2.031" y2="39.607"/>
	<line style="fill:none;stroke:#000000;stroke-miterlimit:1;" x1="2.031" y1="39.607" x2="3.301" y2="42.4"/>
	<line style="fill:none;stroke:#000000;stroke-miterlimit:1;" x1="3.301" y1="42.4" x2="4.062" y2="43.923"/>
	<line style="fill:none;stroke:#000000;stroke-miterlimit:1;" x1="4.062" y1="43.923" x2="5.078" y2="45.192"/>
	<line style="fill:none;stroke:#000000;stroke-miterlimit:1;" x1="5.078" y1="45.192" x2="7.617" y2="47.985"/>
	<line style="fill:none;stroke:#000000;stroke-miterlimit:1;" x1="7.617" y1="47.985" x2="10.156" y2="50.524"/>
	<line style="fill:none;stroke:#000000;stroke-miterlimit:1;" x1="10.156" y1="50.524" x2="12.441" y2="52.302"/>
	<line style="fill:none;stroke:#000000;stroke-miterlimit:1;" x1="12.441" y1="52.302" x2="15.234" y2="53.825"/>
	<line style="fill:none;stroke:#000000;stroke-miterlimit:1;" x1="15.234" y1="53.825" x2="18.28" y2="55.348"/>
	<line style="fill:none;stroke:#000000;stroke-miterlimit:1;" x1="18.28" y1="55.348" x2="21.327" y2="56.11"/>
	<line style="fill:none;stroke:#000000;stroke-miterlimit:1;" x1="21.327" y1="56.11" x2="23.866" y2="56.872"/>
	<line style="fill:none;stroke:#000000;stroke-miterlimit:1;" x1="23.866" y1="56.872" x2="26.913" y2="56.872"/>
	<line style="fill:none;stroke:#000000;stroke-miterlimit:1;" x1="26.913" y1="56.872" x2="29.959" y2="57.125"/>
	<line style="fill:none;stroke:#000000;stroke-miterlimit:1;" x1="29.959" y1="57.125" x2="33.514" y2="56.618"/>
	<line style="fill:none;stroke:#000000;stroke-miterlimit:1;" x1="33.514" y1="56.618" x2="36.053" y2="56.11"/>
	<line style="fill:none;stroke:#000000;stroke-miterlimit:1;" x1="36.053" y1="56.11" x2="39.1" y2="54.84"/>
	<line style="fill:none;stroke:#000000;stroke-miterlimit:1;" x1="39.1" y1="54.84" x2="42.146" y2="53.317"/>
	<line style="fill:none;stroke:#000000;stroke-miterlimit:1;" x1="42.146" y1="53.317" x2="44.177" y2="52.302"/>
	<line style="fill:none;stroke:#000000;stroke-miterlimit:1;" x1="44.177" y1="52.302" x2="46.462" y2="50.271"/>
	<line style="fill:none;stroke:#000000;stroke-miterlimit:1;" x1="46.462" y1="50.271" x2="48.747" y2="48.239"/>
	<line style="fill:none;stroke:#000000;stroke-miterlimit:1;" x1="48.747" y1="48.239" x2="51.032" y2="45.954"/>
	<line style="fill:none;stroke:#000000;stroke-miterlimit:1;" x1="51.032" y1="45.954" x2="52.81" y2="43.162"/>
	<line style="fill:none;stroke:#000000;stroke-miterlimit:1;" x1="52.81" y1="43.162" x2="54.587" y2="40.623"/>
	<line style="fill:none;stroke:#000000;stroke-miterlimit:1;" x1="54.587" y1="40.623" x2="55.856" y2="38.083"/>
	<line style="fill:none;stroke:#000000;stroke-miterlimit:1;" x1="55.856" y1="38.083" x2="56.618" y2="35.037"/>
	<line style="fill:none;stroke:#000000;stroke-miterlimit:1;" x1="56.618" y1="35.037" x2="56.872" y2="32.244"/>
	<line style="fill:none;stroke:#000000;stroke-miterlimit:1;" x1="56.872" y1="32.244" x2="57.379" y2="28.943"/>
	<line style="fill:none;stroke:#000000;stroke-miterlimit:1;" x1="57.379" y1="28.943" x2="57.125" y2="26.151"/>
	<line style="fill:none;stroke:#000000;stroke-miterlimit:1;" x1="57.125" y1="26.151" x2="56.872" y2="22.85"/>
	<line style="fill:none;stroke:#000000;stroke-miterlimit:1;" x1="56.872" y1="22.85" x2="56.11" y2="20.058"/>
	<line style="fill:none;stroke:#000000;stroke-miterlimit:1;" x1="56.11" y1="20.058" x2="55.095" y2="17.519"/>
	<line style="fill:none;stroke:#000000;stroke-miterlimit:1;" x1="55.095" y1="17.519" x2="53.825" y2="14.218"/>
	<line style="fill:none;stroke:#000000;stroke-miterlimit:1;" x1="53.825" y1="14.218" x2="52.048" y2="11.679"/>
	<line style="fill:none;stroke:#000000;stroke-miterlimit:1;" x1="52.048" y1="11.679" x2="50.271" y2="9.648"/>
	<line style="fill:none;stroke:#000000;stroke-miterlimit:1;" x1="50.271" y1="9.648" x2="48.239" y2="7.109"/>
	<line style="fill:none;stroke:#000000;stroke-miterlimit:1;" x1="48.239" y1="7.109" x2="45.701" y2="5.332"/>
	<line style="fill:none;stroke:#000000;stroke-miterlimit:1;" x1="45.701" y1="5.332" x2="43.162" y2="3.555"/>
	<line style="fill:none;stroke:#000000;stroke-miterlimit:1;" x1="43.162" y1="3.555" x2="40.369" y2="2.285"/>
	<line style="fill:none;stroke:#000000;stroke-miterlimit:1;" x1="7.497" y1="113.751" x2="16.526" y2="148.114"/>
	<line style="fill:none;stroke:#000000;stroke-miterlimit:1;" x1="16.526" y1="148.114" x2="44.87" y2="148.114"/>
	<line style="fill:none;stroke:#000000;stroke-miterlimit:1;" x1="44.87" y1="148.114" x2="53.649" y2="113.751"/>
	<line style="fill:none;stroke:#000000;stroke-miterlimit:1;" x1="53.649" y1="113.751" x2="7.497" y2="113.751"/>
	<line style="fill:none;stroke:#000000;stroke-miterlimit:1;" x1="36.592" y1="113.751" x2="36.091" y2="109.737"/>
	<line style="fill:none;stroke:#000000;stroke-miterlimit:1;" x1="36.091" y1="109.737" x2="34.586" y2="105.725"/>
	<line style="fill:none;stroke:#000000;stroke-miterlimit:1;" x1="34.586" y1="105.725" x2="31.827" y2="102.464"/>
	<line style="fill:none;stroke:#000000;stroke-miterlimit:1;" x1="31.827" y1="102.464" x2="28.817" y2="99.955"/>
	<line style="fill:none;stroke:#000000;stroke-miterlimit:1;" x1="28.817" y1="99.955" x2="25.305" y2="97.447"/>
	<line style="fill:none;stroke:#000000;stroke-miterlimit:1;" x1="25.305" y1="97.447" x2="23.298" y2="94.938"/>
	<line style="fill:none;stroke:#000000;stroke-miterlimit:1;" x1="23.298" y1="94.938" x2="22.295" y2="91.427"/>
	<line style="fill:none;stroke:#000000;stroke-miterlimit:1;" x1="22.295" y1="91.427" x2="23.048" y2="87.665"/>
	<line style="fill:none;stroke:#000000;stroke-miterlimit:1;" x1="23.048" y1="87.665" x2="22.797" y2="83.902"/>
	<line style="fill:none;stroke:#000000;stroke-miterlimit:1;" x1="22.797" y1="83.902" x2="21.543" y2="80.391"/>
	<line style="fill:none;stroke:#000000;stroke-miterlimit:1;" x1="21.543" y1="80.391" x2="19.285" y2="77.381"/>
	<line style="fill:none;stroke:#000000;stroke-miterlimit:1;" x1="19.285" y1="77.381" x2="16.526" y2="75.123"/>
	<line style="fill:none;stroke:#000000;stroke-miterlimit:1;" x1="16.526" y1="75.123" x2="13.516" y2="72.866"/>
	<line style="fill:none;stroke:#000000;stroke-miterlimit:1;" x1="13.516" y1="72.866" x2="11.008" y2="70.859"/>
	<line style="fill:none;stroke:#000000;stroke-miterlimit:1;" x1="11.008" y1="70.859" x2="9.503" y2="69.104"/>
	<line style="fill:none;stroke:#000000;stroke-miterlimit:1;" x1="9.503" y1="69.104" x2="9.503" y2="70.608"/>
	<line style="fill:none;stroke:#000000;stroke-miterlimit:1;" x1="9.503" y1="70.608" x2="10.506" y2="73.117"/>
	<line style="fill:none;stroke:#000000;stroke-miterlimit:1;" x1="10.506" y1="73.117" x2="12.764" y2="75.876"/>
	<line style="fill:none;stroke:#000000;stroke-miterlimit:1;" x1="12.764" y1="75.876" x2="15.021" y2="78.635"/>
	<line style="fill:none;stroke:#000000;stroke-miterlimit:1;" x1="15.021" y1="78.635" x2="16.526" y2="80.642"/>
	<line style="fill:none;stroke:#000000;stroke-miterlimit:1;" x1="16.526" y1="80.642" x2="17.279" y2="83.4"/>
	<line style="fill:none;stroke:#000000;stroke-miterlimit:1;" x1="17.279" y1="83.4" x2="17.529" y2="85.658"/>
	<line style="fill:none;stroke:#000000;stroke-miterlimit:1;" x1="17.529" y1="85.658" x2="17.028" y2="88.919"/>
	<line style="fill:none;stroke:#000000;stroke-miterlimit:1;" x1="17.028" y1="88.919" x2="16.275" y2="91.427"/>
	<line style="fill:none;stroke:#000000;stroke-miterlimit:1;" x1="16.275" y1="91.427" x2="16.275" y2="94.938"/>
	<line style="fill:none;stroke:#000000;stroke-miterlimit:1;" x1="16.275" y1="94.938" x2="17.279" y2="97.447"/>
	<line style="fill:none;stroke:#000000;stroke-miterlimit:1;" x1="17.279" y1="97.447" x2="19.787" y2="100.958"/>
	<line style="fill:none;stroke:#000000;stroke-miterlimit:1;" x1="19.787" y1="100.958" x2="22.546" y2="103.718"/>
	<line style="fill:none;stroke:#000000;stroke-miterlimit:1;" x1="22.546" y1="103.718" x2="25.054" y2="105.975"/>
	<line style="fill:none;stroke:#000000;stroke-miterlimit:1;" x1="25.054" y1="105.975" x2="26.309" y2="108.232"/>
	<line style="fill:none;stroke:#000000;stroke-miterlimit:1;" x1="26.309" y1="108.232" x2="26.56" y2="110.239"/>
	<line style="fill:none;stroke:#000000;stroke-miterlimit:1;" x1="26.56" y1="110.239" x2="26.56" y2="112.246"/>
	<line style="fill:none;stroke:#000000;stroke-miterlimit:1;" x1="26.56" y1="112.246" x2="26.058" y2="113.751"/>
	<line style="fill:none;stroke:#000000;stroke-miterlimit:1;" x1="193.555" y1="82.147" x2="197.006" y2="81.883"/>
	<line style="fill:none;stroke:#000000;stroke-miterlimit:1;" x1="197.006" y1="81.883" x2="200.721" y2="81.087"/>
	<line style="fill:none;stroke:#000000;stroke-miterlimit:1;" x1="200.721" y1="81.087" x2="203.639" y2="79.494"/>
	<line style="fill:none;stroke:#000000;stroke-miterlimit:1;" x1="203.639" y1="79.494" x2="206.027" y2="77.902"/>
	<line style="fill:none;stroke:#000000;stroke-miterlimit:1;" x1="206.027" y1="77.902" x2="210.273" y2="73.391"/>
	<line style="fill:none;stroke:#000000;stroke-miterlimit:1;" x1="210.273" y1="73.391" x2="214.254" y2="68.879"/>
	<line style="fill:none;stroke:#000000;stroke-miterlimit:1;" x1="214.254" y1="68.879" x2="217.971" y2="63.837"/>
	<line style="fill:none;stroke:#000000;stroke-miterlimit:1;" x1="217.971" y1="63.837" x2="219.828" y2="59.856"/>
	<line style="fill:none;stroke:#000000;stroke-miterlimit:1;" x1="219.828" y1="59.856" x2="221.154" y2="56.671"/>
	<line style="fill:none;stroke:#000000;stroke-miterlimit:1;" x1="221.154" y1="56.671" x2="223.012" y2="50.833"/>
	<line style="fill:none;stroke:#000000;stroke-miterlimit:1;" x1="223.012" y1="50.833" x2="223.543" y2="43.934"/>
	<line style="fill:none;stroke:#000000;stroke-miterlimit:1;" x1="223.543" y1="43.934" x2="223.012" y2="40.749"/>
	<line style="fill:none;stroke:#000000;stroke-miterlimit:1;" x1="223.012" y1="40.749" x2="221.154" y2="37.034"/>
	<line style="fill:none;stroke:#000000;stroke-miterlimit:1;" x1="221.154" y1="37.034" x2="217.971" y2="33.053"/>
	<line style="fill:none;stroke:#000000;stroke-miterlimit:1;" x1="217.971" y1="33.053" x2="223.012" y2="31.46"/>
	<line style="fill:none;stroke:#000000;stroke-miterlimit:1;" x1="223.012" y1="31.46" x2="226.727" y2="28.542"/>
	<line style="fill:none;stroke:#000000;stroke-miterlimit:1;" x1="226.727" y1="28.542" x2="232.83" y2="20.315"/>
	<line style="fill:none;stroke:#000000;stroke-miterlimit:1;" x1="232.83" y1="20.315" x2="228.586" y2="32.788"/>
	<line style="fill:none;stroke:#000000;stroke-miterlimit:1;" x1="228.586" y1="32.788" x2="225.666" y2="43.137"/>
	<line style="fill:none;stroke:#000000;stroke-miterlimit:1;" x1="225.666" y1="43.137" x2="225.135" y2="48.445"/>
	<line style="fill:none;stroke:#000000;stroke-miterlimit:1;" x1="225.135" y1="48.445" x2="224.34" y2="52.691"/>
	<line style="fill:none;stroke:#000000;stroke-miterlimit:1;" x1="224.34" y1="52.691" x2="223.012" y2="56.937"/>
	<line style="fill:none;stroke:#000000;stroke-miterlimit:1;" x1="223.012" y1="56.937" x2="221.686" y2="60.652"/>
	<line style="fill:none;stroke:#000000;stroke-miterlimit:1;" x1="221.686" y1="60.652" x2="219.562" y2="64.102"/>
	<line style="fill:none;stroke:#000000;stroke-miterlimit:1;" x1="219.562" y1="64.102" x2="217.439" y2="67.817"/>
	<line style="fill:none;stroke:#000000;stroke-miterlimit:1;" x1="217.439" y1="67.817" x2="214.785" y2="70.737"/>
	<line style="fill:none;stroke:#000000;stroke-miterlimit:1;" x1="214.785" y1="70.737" x2="211.865" y2="73.921"/>
	<line style="fill:none;stroke:#000000;stroke-miterlimit:1;" x1="211.865" y1="73.921" x2="209.479" y2="76.575"/>
	<line style="fill:none;stroke:#000000;stroke-miterlimit:1;" x1="209.479" y1="76.575" x2="207.619" y2="78.433"/>
	<line style="fill:none;stroke:#000000;stroke-miterlimit:1;" x1="207.619" y1="78.433" x2="206.293" y2="79.494"/>
	<line style="fill:none;stroke:#000000;stroke-miterlimit:1;" x1="206.293" y1="79.494" x2="211.865" y2="77.637"/>
	<line style="fill:none;stroke:#000000;stroke-miterlimit:1;" x1="211.865" y1="77.637" x2="217.705" y2="75.514"/>
	<line style="fill:none;stroke:#000000;stroke-miterlimit:1;" x1="217.705" y1="75.514" x2="223.012" y2="72.86"/>
	<line style="fill:none;stroke:#000000;stroke-miterlimit:1;" x1="223.012" y1="72.86" x2="228.586" y2="67.287"/>
	<line style="fill:none;stroke:#000000;stroke-miterlimit:1;" x1="228.586" y1="67.287" x2="231.77" y2="62.775"/>
	<line style="fill:none;stroke:#000000;stroke-miterlimit:1;" x1="231.77" y1="62.775" x2="234.158" y2="58.794"/>
	<line style="fill:none;stroke:#000000;stroke-miterlimit:1;" x1="234.158" y1="58.794" x2="236.547" y2="53.487"/>
	<line style="fill:none;stroke:#000000;stroke-miterlimit:1;" x1="236.547" y1="53.487" x2="238.67" y2="47.383"/>
	<line style="fill:none;stroke:#000000;stroke-miterlimit:1;" x1="238.67" y1="47.383" x2="240.262" y2="41.545"/>
	<line style="fill:none;stroke:#000000;stroke-miterlimit:1;" x1="240.262" y1="41.545" x2="241.059" y2="35.972"/>
	<line style="fill:none;stroke:#000000;stroke-miterlimit:1;" x1="241.059" y1="35.972" x2="241.588" y2="31.46"/>
	<line style="fill:none;stroke:#000000;stroke-miterlimit:1;" x1="241.588" y1="31.46" x2="241.059" y2="26.684"/>
	<line style="fill:none;stroke:#000000;stroke-miterlimit:1;" x1="241.059" y1="26.684" x2="239.73" y2="22.969"/>
	<line style="fill:none;stroke:#000000;stroke-miterlimit:1;" x1="239.73" y1="22.969" x2="235.219" y2="16.865"/>
	<line style="fill:none;stroke:#000000;stroke-miterlimit:1;" x1="235.219" y1="16.865" x2="232.83" y2="14.211"/>
	<line style="fill:none;stroke:#000000;stroke-miterlimit:1;" x1="232.83" y1="14.211" x2="238.936" y2="11.557"/>
	<line style="fill:none;stroke:#000000;stroke-miterlimit:1;" x1="238.936" y1="11.557" x2="243.711" y2="7.842"/>
	<line style="fill:none;stroke:#000000;stroke-miterlimit:1;" x1="243.711" y1="7.842" x2="249.02" y2="0.412"/>
	<line style="fill:none;stroke:#000000;stroke-miterlimit:1;" x1="249.02" y1="0.412" x2="245.834" y2="11.557"/>
	<line style="fill:none;stroke:#000000;stroke-miterlimit:1;" x1="245.834" y1="11.557" x2="242.65" y2="22.438"/>
	<line style="fill:none;stroke:#000000;stroke-miterlimit:1;" x1="242.65" y1="22.438" x2="243.182" y2="29.868"/>
	<line style="fill:none;stroke:#000000;stroke-miterlimit:1;" x1="243.182" y1="29.868" x2="242.916" y2="35.441"/>
	<line style="fill:none;stroke:#000000;stroke-miterlimit:1;" x1="242.916" y1="35.441" x2="241.854" y2="41.014"/>
	<line style="fill:none;stroke:#000000;stroke-miterlimit:1;" x1="241.854" y1="41.014" x2="241.059" y2="46.057"/>
	<line style="fill:none;stroke:#000000;stroke-miterlimit:1;" x1="241.059" y1="46.057" x2="239.465" y2="50.568"/>
	<line style="fill:none;stroke:#000000;stroke-miterlimit:1;" x1="239.465" y1="50.568" x2="237.873" y2="54.549"/>
	<line style="fill:none;stroke:#000000;stroke-miterlimit:1;" x1="237.873" y1="54.549" x2="236.016" y2="58.529"/>
	<line style="fill:none;stroke:#000000;stroke-miterlimit:1;" x1="236.016" y1="58.529" x2="233.361" y2="63.571"/>
	<line style="fill:none;stroke:#000000;stroke-miterlimit:1;" x1="233.361" y1="63.571" x2="226.727" y2="71.798"/>
	<line style="fill:none;stroke:#000000;stroke-miterlimit:1;" x1="226.727" y1="71.798" x2="232.035" y2="68.879"/>
	<line style="fill:none;stroke:#000000;stroke-miterlimit:1;" x1="232.035" y1="68.879" x2="237.076" y2="65.694"/>
	<line style="fill:none;stroke:#000000;stroke-miterlimit:1;" x1="237.076" y1="65.694" x2="242.65" y2="60.917"/>
	<line style="fill:none;stroke:#000000;stroke-miterlimit:1;" x1="242.65" y1="60.917" x2="248.223" y2="55.61"/>
	<line style="fill:none;stroke:#000000;stroke-miterlimit:1;" x1="248.223" y1="55.61" x2="251.938" y2="49.772"/>
	<line style="fill:none;stroke:#000000;stroke-miterlimit:1;" x1="251.938" y1="49.772" x2="253.797" y2="44.199"/>
	<line style="fill:none;stroke:#000000;stroke-miterlimit:1;" x1="253.797" y1="44.199" x2="255.123" y2="38.095"/>
	<line style="fill:none;stroke:#000000;stroke-miterlimit:1;" x1="255.123" y1="38.095" x2="254.592" y2="32.257"/>
	<line style="fill:none;stroke:#000000;stroke-miterlimit:1;" x1="254.592" y1="32.257" x2="253.797" y2="29.868"/>
	<line style="fill:none;stroke:#000000;stroke-miterlimit:1;" x1="253.797" y1="29.868" x2="252.203" y2="26.684"/>
	<line style="fill:none;stroke:#000000;stroke-miterlimit:1;" x1="252.203" y1="26.684" x2="250.08" y2="24.295"/>
	<line style="fill:none;stroke:#000000;stroke-miterlimit:1;" x1="250.08" y1="24.295" x2="255.123" y2="21.642"/>
	<line style="fill:none;stroke:#000000;stroke-miterlimit:1;" x1="255.123" y1="21.642" x2="259.9" y2="17.926"/>
	<line style="fill:none;stroke:#000000;stroke-miterlimit:1;" x1="259.9" y1="17.926" x2="266.004" y2="9.965"/>
	<line style="fill:none;stroke:#000000;stroke-miterlimit:1;" x1="266.004" y1="9.965" x2="262.023" y2="21.642"/>
	<line style="fill:none;stroke:#000000;stroke-miterlimit:1;" x1="262.023" y1="21.642" x2="257.777" y2="33.583"/>
	<line style="fill:none;stroke:#000000;stroke-miterlimit:1;" x1="257.777" y1="33.583" x2="256.98" y2="37.83"/>
	<line style="fill:none;stroke:#000000;stroke-miterlimit:1;" x1="256.98" y1="37.83" x2="256.715" y2="41.014"/>
	<line style="fill:none;stroke:#000000;stroke-miterlimit:1;" x1="256.715" y1="41.014" x2="255.389" y2="46.057"/>
	<line style="fill:none;stroke:#000000;stroke-miterlimit:1;" x1="255.389" y1="46.057" x2="252.734" y2="52.426"/>
	<line style="fill:none;stroke:#000000;stroke-miterlimit:1;" x1="252.734" y1="52.426" x2="250.611" y2="55.61"/>
	<line style="fill:none;stroke:#000000;stroke-miterlimit:1;" x1="250.611" y1="55.61" x2="247.428" y2="59.06"/>
	<line style="fill:none;stroke:#000000;stroke-miterlimit:1;" x1="247.428" y1="59.06" x2="244.773" y2="61.714"/>
	<line style="fill:none;stroke:#000000;stroke-miterlimit:1;" x1="244.773" y1="61.714" x2="241.059" y2="64.898"/>
	<line style="fill:none;stroke:#000000;stroke-miterlimit:1;" x1="241.059" y1="64.898" x2="237.342" y2="67.552"/>
	<line style="fill:none;stroke:#000000;stroke-miterlimit:1;" x1="237.342" y1="67.552" x2="232.566" y2="70.471"/>
	<line style="fill:none;stroke:#000000;stroke-miterlimit:1;" x1="232.566" y1="70.471" x2="227.258" y2="73.656"/>
	<line style="fill:none;stroke:#000000;stroke-miterlimit:1;" x1="227.258" y1="73.656" x2="214.785" y2="78.698"/>
	<line style="fill:none;stroke:#000000;stroke-miterlimit:1;" x1="214.785" y1="78.698" x2="204.436" y2="82.147"/>
	<line style="fill:none;stroke:#000000;stroke-miterlimit:1;" x1="204.436" y1="82.147" x2="196.74" y2="83.475"/>
	<line style="fill:none;stroke:#000000;stroke-miterlimit:1;" x1="196.74" y1="83.475" x2="193.555" y2="84.006"/>
	<line style="fill:none;stroke:#000000;stroke-miterlimit:1;" x1="193.555" y1="84.006" x2="193.555" y2="82.413"/>
	<line style="fill:none;stroke:#000000;stroke-miterlimit:1;" x1="108.949" y1="126.103" x2="105" y2="121.166"/>
	<line style="fill:none;stroke:#000000;stroke-miterlimit:1;" x1="105" y1="121.166" x2="100.062" y2="116.229"/>
	<line style="fill:none;stroke:#000000;stroke-miterlimit:1;" x1="100.062" y1="116.229" x2="96.113" y2="111.95"/>
	<line style="fill:none;stroke:#000000;stroke-miterlimit:1;" x1="96.113" y1="111.95" x2="91.834" y2="107.342"/>
	<line style="fill:none;stroke:#000000;stroke-miterlimit:1;" x1="91.834" y1="107.342" x2="86.567" y2="102.075"/>
	<line style="fill:none;stroke:#000000;stroke-miterlimit:1;" x1="86.567" y1="102.075" x2="81.301" y2="98.126"/>
	<line style="fill:none;stroke:#000000;stroke-miterlimit:1;" x1="81.301" y1="98.126" x2="75.706" y2="94.176"/>
	<line style="fill:none;stroke:#000000;stroke-miterlimit:1;" x1="75.706" y1="94.176" x2="86.238" y2="0.041"/>
	<line style="fill:none;stroke:#000000;stroke-miterlimit:1;" x1="86.238" y1="0.041" x2="89.53" y2="1.028"/>
	<line style="fill:none;stroke:#000000;stroke-miterlimit:1;" x1="89.53" y1="1.028" x2="93.15" y2="2.674"/>
	<line style="fill:none;stroke:#000000;stroke-miterlimit:1;" x1="93.15" y1="2.674" x2="96.113" y2="4.979"/>
	<line style="fill:none;stroke:#000000;stroke-miterlimit:1;" x1="96.113" y1="4.979" x2="99.075" y2="8.599"/>
	<line style="fill:none;stroke:#000000;stroke-miterlimit:1;" x1="99.075" y1="8.599" x2="101.708" y2="12.878"/>
	<line style="fill:none;stroke:#000000;stroke-miterlimit:1;" x1="101.708" y1="12.878" x2="103.025" y2="17.486"/>
	<line style="fill:none;stroke:#000000;stroke-miterlimit:1;" x1="103.025" y1="17.486" x2="104.012" y2="21.436"/>
	<line style="fill:none;stroke:#000000;stroke-miterlimit:1;" x1="104.012" y1="21.436" x2="105" y2="26.702"/>
	<line style="fill:none;stroke:#000000;stroke-miterlimit:1;" x1="105" y1="26.702" x2="109.607" y2="147.826"/>
	<line style="fill:none;stroke:#000000;stroke-miterlimit:1;" x1="109.607" y1="147.826" x2="103.354" y2="148.155"/>
	<line style="fill:none;stroke:#000000;stroke-miterlimit:1;" x1="103.354" y1="148.155" x2="104.67" y2="120.837"/>
	<line style="fill:none;stroke:#000000;stroke-miterlimit:1;" x1="155.234" y1="126.103" x2="151.285" y2="121.166"/>
	<line style="fill:none;stroke:#000000;stroke-miterlimit:1;" x1="151.285" y1="121.166" x2="146.348" y2="116.229"/>
	<line style="fill:none;stroke:#000000;stroke-miterlimit:1;" x1="146.348" y1="116.229" x2="142.398" y2="111.95"/>
	<line style="fill:none;stroke:#000000;stroke-miterlimit:1;" x1="142.398" y1="111.95" x2="138.12" y2="107.342"/>
	<line style="fill:none;stroke:#000000;stroke-miterlimit:1;" x1="138.12" y1="107.342" x2="132.853" y2="102.075"/>
	<line style="fill:none;stroke:#000000;stroke-miterlimit:1;" x1="132.853" y1="102.075" x2="127.587" y2="98.126"/>
	<line style="fill:none;stroke:#000000;stroke-miterlimit:1;" x1="127.587" y1="98.126" x2="121.992" y2="94.176"/>
	<line style="fill:none;stroke:#000000;stroke-miterlimit:1;" x1="121.992" y1="94.176" x2="132.524" y2="0.041"/>
	<line style="fill:none;stroke:#000000;stroke-miterlimit:1;" x1="132.524" y1="0.041" x2="135.815" y2="1.028"/>
	<line style="fill:none;stroke:#000000;stroke-miterlimit:1;" x1="135.815" y1="1.028" x2="139.436" y2="2.674"/>
	<line style="fill:none;stroke:#000000;stroke-miterlimit:1;" x1="139.436" y1="2.674" x2="142.398" y2="4.979"/>
	<line style="fill:none;stroke:#000000;stroke-miterlimit:1;" x1="142.398" y1="4.979" x2="145.361" y2="8.599"/>
	<line style="fill:none;stroke:#000000;stroke-miterlimit:1;" x1="145.361" y1="8.599" x2="147.994" y2="12.878"/>
	<line style="fill:none;stroke:#000000;stroke-miterlimit:1;" x1="147.994" y1="12.878" x2="149.311" y2="17.486"/>
	<line style="fill:none;stroke:#000000;stroke-miterlimit:1;" x1="149.311" y1="17.486" x2="150.298" y2="21.436"/>
	<line style="fill:none;stroke:#000000;stroke-miterlimit:1;" x1="150.298" y1="21.436" x2="151.285" y2="26.702"/>
	<line style="fill:none;stroke:#000000;stroke-miterlimit:1;" x1="151.285" y1="26.702" x2="155.893" y2="147.826"/>
	<line style="fill:none;stroke:#000000;stroke-miterlimit:1;" x1="155.893" y1="147.826" x2="149.64" y2="148.155"/>
	<line style="fill:none;stroke:#000000;stroke-miterlimit:1;" x1="149.64" y1="148.155" x2="150.956" y2="120.837"/>
	<line style="fill:none;stroke:#000000;stroke-miterlimit:1;" x1="232.963" y1="130.745" x2="170.334" y2="130.745"/>
	<line style="fill:none;stroke:#000000;stroke-miterlimit:1;" x1="170.334" y1="130.745" x2="171.131" y2="125.438"/>
	<line style="fill:none;stroke:#000000;stroke-miterlimit:1;" x1="171.131" y1="125.438" x2="171.926" y2="121.988"/>
	<line style="fill:none;stroke:#000000;stroke-miterlimit:1;" x1="171.926" y1="121.988" x2="173.254" y2="118.538"/>
	<line style="fill:none;stroke:#000000;stroke-miterlimit:1;" x1="173.254" y1="118.538" x2="175.111" y2="115.884"/>
	<line style="fill:none;stroke:#000000;stroke-miterlimit:1;" x1="175.111" y1="115.884" x2="176.703" y2="113.496"/>
	<line style="fill:none;stroke:#000000;stroke-miterlimit:1;" x1="176.703" y1="113.496" x2="178.826" y2="110.576"/>
	<line style="fill:none;stroke:#000000;stroke-miterlimit:1;" x1="178.826" y1="110.576" x2="181.215" y2="108.453"/>
	<line style="fill:none;stroke:#000000;stroke-miterlimit:1;" x1="181.215" y1="108.453" x2="184.135" y2="106.33"/>
	<line style="fill:none;stroke:#000000;stroke-miterlimit:1;" x1="184.135" y1="106.33" x2="186.523" y2="104.738"/>
	<line style="fill:none;stroke:#000000;stroke-miterlimit:1;" x1="186.523" y1="104.738" x2="189.973" y2="103.146"/>
	<line style="fill:none;stroke:#000000;stroke-miterlimit:1;" x1="189.973" y1="103.146" x2="193.422" y2="102.085"/>
	<line style="fill:none;stroke:#000000;stroke-miterlimit:1;" x1="193.422" y1="102.085" x2="195.811" y2="101.554"/>
	<line style="fill:none;stroke:#000000;stroke-miterlimit:1;" x1="195.811" y1="101.554" x2="200.057" y2="101.023"/>
	<line style="fill:none;stroke:#000000;stroke-miterlimit:1;" x1="200.057" y1="101.023" x2="203.242" y2="101.023"/>
	<line style="fill:none;stroke:#000000;stroke-miterlimit:1;" x1="203.242" y1="101.023" x2="206.16" y2="101.554"/>
	<line style="fill:none;stroke:#000000;stroke-miterlimit:1;" x1="206.16" y1="101.554" x2="209.346" y2="102.085"/>
	<line style="fill:none;stroke:#000000;stroke-miterlimit:1;" x1="209.346" y1="102.085" x2="212.795" y2="102.881"/>
	<line style="fill:none;stroke:#000000;stroke-miterlimit:1;" x1="212.795" y1="102.881" x2="215.184" y2="103.677"/>
	<line style="fill:none;stroke:#000000;stroke-miterlimit:1;" x1="215.184" y1="103.677" x2="218.367" y2="105.8"/>
	<line style="fill:none;stroke:#000000;stroke-miterlimit:1;" x1="218.367" y1="105.8" x2="221.021" y2="107.657"/>
	<line style="fill:none;stroke:#000000;stroke-miterlimit:1;" x1="221.021" y1="107.657" x2="223.41" y2="109.515"/>
	<line style="fill:none;stroke:#000000;stroke-miterlimit:1;" x1="223.41" y1="109.515" x2="225.533" y2="112.169"/>
	<line style="fill:none;stroke:#000000;stroke-miterlimit:1;" x1="225.533" y1="112.169" x2="227.656" y2="115.088"/>
	<line style="fill:none;stroke:#000000;stroke-miterlimit:1;" x1="227.656" y1="115.088" x2="229.514" y2="118.007"/>
	<line style="fill:none;stroke:#000000;stroke-miterlimit:1;" x1="229.514" y1="118.007" x2="230.84" y2="120.661"/>
	<line style="fill:none;stroke:#000000;stroke-miterlimit:1;" x1="230.84" y1="120.661" x2="231.902" y2="124.642"/>
	<line style="fill:none;stroke:#000000;stroke-miterlimit:1;" x1="231.902" y1="124.642" x2="232.699" y2="127.561"/>
	<line style="fill:none;stroke:#000000;stroke-miterlimit:1;" x1="232.699" y1="127.561" x2="232.963" y2="130.745"/>
	<line style="fill:none;stroke:#000000;stroke-miterlimit:1;" x1="259.668" y1="142.953" x2="277.713" y2="126.499"/>
	<line style="fill:none;stroke:#000000;stroke-miterlimit:1;" x1="277.713" y1="126.499" x2="294.697" y2="142.953"/>
	<line style="fill:none;stroke:#000000;stroke-miterlimit:1;" x1="301.598" y1="135.522" x2="285.674" y2="119.334"/>
	<line style="fill:none;stroke:#000000;stroke-miterlimit:1;" x1="285.674" y1="119.334" x2="302.658" y2="103.146"/>
	<line style="fill:none;stroke:#000000;stroke-miterlimit:1;" x1="295.229" y1="94.919" x2="278.244" y2="111.107"/>
	<line style="fill:none;stroke:#000000;stroke-miterlimit:1;" x1="278.244" y1="111.107" x2="261.26" y2="93.593"/>
	<line style="fill:none;stroke:#000000;stroke-miterlimit:1;" x1="253.828" y1="100.758" x2="270.283" y2="118.272"/>
	<line style="fill:none;stroke:#000000;stroke-miterlimit:1;" x1="270.283" y1="118.272" x2="252.768" y2="134.991"/>
	<line style="fill:none;stroke:#000000;stroke-miterlimit:1;" x1="275.059" y1="148.525" x2="282.49" y2="148.261"/>
	<line style="fill:none;stroke:#000000;stroke-miterlimit:1;" x1="282.49" y1="148.261" x2="286.736" y2="147.199"/>
	<line style="fill:none;stroke:#000000;stroke-miterlimit:1;" x1="286.736" y1="147.199" x2="290.451" y2="145.606"/>
	<line style="fill:none;stroke:#000000;stroke-miterlimit:1;" x1="290.451" y1="145.606" x2="294.697" y2="142.688"/>
	<line style="fill:none;stroke:#000000;stroke-miterlimit:1;" x1="294.697" y1="142.688" x2="297.883" y2="139.769"/>
	<line style="fill:none;stroke:#000000;stroke-miterlimit:1;" x1="297.883" y1="139.769" x2="301.066" y2="136.318"/>
	<line style="fill:none;stroke:#000000;stroke-miterlimit:1;" x1="301.066" y1="136.318" x2="303.189" y2="132.868"/>
	<line style="fill:none;stroke:#000000;stroke-miterlimit:1;" x1="303.189" y1="132.868" x2="305.312" y2="129.153"/>
	<line style="fill:none;stroke:#000000;stroke-miterlimit:1;" x1="305.312" y1="129.153" x2="306.373" y2="125.438"/>
	<line style="fill:none;stroke:#000000;stroke-miterlimit:1;" x1="306.373" y1="125.438" x2="306.904" y2="121.191"/>
	<line style="fill:none;stroke:#000000;stroke-miterlimit:1;" x1="306.904" y1="121.191" x2="306.904" y2="116.945"/>
	<line style="fill:none;stroke:#000000;stroke-miterlimit:1;" x1="306.904" y1="116.945" x2="305.578" y2="109.515"/>
	<line style="fill:none;stroke:#000000;stroke-miterlimit:1;" x1="305.578" y1="109.515" x2="303.986" y2="105.534"/>
	<line style="fill:none;stroke:#000000;stroke-miterlimit:1;" x1="303.986" y1="105.534" x2="301.598" y2="101.554"/>
	<line style="fill:none;stroke:#000000;stroke-miterlimit:1;" x1="301.598" y1="101.554" x2="298.943" y2="97.839"/>
	<line style="fill:none;stroke:#000000;stroke-miterlimit:1;" x1="298.943" y1="97.839" x2="294.963" y2="94.389"/>
	<line style="fill:none;stroke:#000000;stroke-miterlimit:1;" x1="294.963" y1="94.389" x2="291.777" y2="92.266"/>
	<line style="fill:none;stroke:#000000;stroke-miterlimit:1;" x1="291.777" y1="92.266" x2="288.594" y2="90.938"/>
	<line style="fill:none;stroke:#000000;stroke-miterlimit:1;" x1="288.594" y1="90.938" x2="285.674" y2="89.877"/>
	<line style="fill:none;stroke:#000000;stroke-miterlimit:1;" x1="285.674" y1="89.877" x2="281.693" y2="89.081"/>
	<line style="fill:none;stroke:#000000;stroke-miterlimit:1;" x1="281.693" y1="89.081" x2="277.713" y2="88.815"/>
	<line style="fill:none;stroke:#000000;stroke-miterlimit:1;" x1="277.713" y1="88.815" x2="272.406" y2="88.815"/>
	<line style="fill:none;stroke:#000000;stroke-miterlimit:1;" x1="272.406" y1="88.815" x2="268.16" y2="89.877"/>
	<line style="fill:none;stroke:#000000;stroke-miterlimit:1;" x1="268.16" y1="89.877" x2="264.18" y2="91.47"/>
	<line style="fill:none;stroke:#000000;stroke-miterlimit:1;" x1="264.18" y1="91.47" x2="260.463" y2="93.593"/>
	<line style="fill:none;stroke:#000000;stroke-miterlimit:1;" x1="260.463" y1="93.593" x2="257.014" y2="96.512"/>
	<line style="fill:none;stroke:#000000;stroke-miterlimit:1;" x1="257.014" y1="96.512" x2="253.828" y2="100.227"/>
	<line style="fill:none;stroke:#000000;stroke-miterlimit:1;" x1="253.828" y1="100.227" x2="250.91" y2="103.942"/>
	<line style="fill:none;stroke:#000000;stroke-miterlimit:1;" x1="250.91" y1="103.942" x2="249.584" y2="106.596"/>
	<line style="fill:none;stroke:#000000;stroke-miterlimit:1;" x1="249.584" y1="106.596" x2="248.521" y2="109.515"/>
	<line style="fill:none;stroke:#000000;stroke-miterlimit:1;" x1="248.521" y1="109.515" x2="247.461" y2="114.558"/>
	<line style="fill:none;stroke:#000000;stroke-miterlimit:1;" x1="247.461" y1="114.558" x2="247.461" y2="119.334"/>
	<line style="fill:none;stroke:#000000;stroke-miterlimit:1;" x1="247.461" y1="119.334" x2="247.99" y2="122.784"/>
	<line style="fill:none;stroke:#000000;stroke-miterlimit:1;" x1="247.99" y1="122.784" x2="248.521" y2="126.499"/>
	<line style="fill:none;stroke:#000000;stroke-miterlimit:1;" x1="248.521" y1="126.499" x2="249.848" y2="130.215"/>
	<line style="fill:none;stroke:#000000;stroke-miterlimit:1;" x1="249.848" y1="130.215" x2="251.705" y2="134.461"/>
	<line style="fill:none;stroke:#000000;stroke-miterlimit:1;" x1="251.705" y1="134.461" x2="254.891" y2="138.441"/>
	<line style="fill:none;stroke:#000000;stroke-miterlimit:1;" x1="254.891" y1="138.441" x2="258.074" y2="141.36"/>
	<line style="fill:none;stroke:#000000;stroke-miterlimit:1;" x1="258.074" y1="141.36" x2="261.791" y2="144.279"/>
	<line style="fill:none;stroke:#000000;stroke-miterlimit:1;" x1="261.791" y1="144.279" x2="265.506" y2="146.138"/>
	<line style="fill:none;stroke:#000000;stroke-miterlimit:1;" x1="265.506" y1="146.138" x2="270.018" y2="147.729"/>
	<line style="fill:none;stroke:#000000;stroke-miterlimit:1;" x1="270.018" y1="147.729" x2="275.059" y2="148.525"/>
</g>
</svg>
