<?xml version="1.0" encoding="iso-8859-1"?>
<!-- Generator: Adobe Illustrator 16.0.1, SVG Export Plug-In . SVG Version: 6.00 Build 0)  -->
<!DOCTYPE svg PUBLIC "-//W3C//DTD SVG 1.1//EN" "http://www.w3.org/Graphics/SVG/1.1/DTD/svg11.dtd">
<svg version="1.1" id="Ebene_1" xmlns="http://www.w3.org/2000/svg" xmlns:xlink="http://www.w3.org/1999/xlink" x="0px" y="0px"
	 width="215.99px" height="149.102px" viewBox="0 0 215.99 149.102" style="enable-background:new 0 0 215.99 149.102;"
	 xml:space="preserve">
<g>
	<line style="fill:none;stroke:#000000;stroke-miterlimit:1;" x1="29.068" y1="51.486" x2="103.957" y2="51.486"/>
	<line style="fill:none;stroke:#000000;stroke-miterlimit:1;" x1="103.957" y1="51.486" x2="103.957" y2="54.442"/>
	<line style="fill:none;stroke:#000000;stroke-miterlimit:1;" x1="103.957" y1="54.442" x2="106.913" y2="54.935"/>
	<line style="fill:none;stroke:#000000;stroke-miterlimit:1;" x1="106.913" y1="54.935" x2="111.594" y2="56.413"/>
	<line style="fill:none;stroke:#000000;stroke-miterlimit:1;" x1="111.594" y1="56.413" x2="114.797" y2="58.383"/>
	<line style="fill:none;stroke:#000000;stroke-miterlimit:1;" x1="114.797" y1="58.383" x2="118.984" y2="61.339"/>
	<line style="fill:none;stroke:#000000;stroke-miterlimit:1;" x1="118.984" y1="61.339" x2="122.68" y2="65.281"/>
	<line style="fill:none;stroke:#000000;stroke-miterlimit:1;" x1="122.68" y1="65.281" x2="126.127" y2="69.961"/>
	<line style="fill:none;stroke:#000000;stroke-miterlimit:1;" x1="126.127" y1="69.961" x2="128.592" y2="74.642"/>
	<line style="fill:none;stroke:#000000;stroke-miterlimit:1;" x1="128.592" y1="74.642" x2="130.809" y2="80.555"/>
	<line style="fill:none;stroke:#000000;stroke-miterlimit:1;" x1="130.809" y1="80.555" x2="132.287" y2="86.467"/>
	<line style="fill:none;stroke:#000000;stroke-miterlimit:1;" x1="132.287" y1="86.467" x2="133.025" y2="96.32"/>
	<line style="fill:none;stroke:#000000;stroke-miterlimit:1;" x1="133.025" y1="96.32" x2="132.287" y2="101.494"/>
	<line style="fill:none;stroke:#000000;stroke-miterlimit:1;" x1="132.287" y1="101.494" x2="130.07" y2="107.406"/>
	<line style="fill:none;stroke:#000000;stroke-miterlimit:1;" x1="130.07" y1="107.406" x2="127.359" y2="110.115"/>
	<line style="fill:none;stroke:#000000;stroke-miterlimit:1;" x1="127.359" y1="110.115" x2="125.143" y2="110.607"/>
	<line style="fill:none;stroke:#000000;stroke-miterlimit:1;" x1="125.143" y1="110.607" x2="121.693" y2="110.361"/>
	<line style="fill:none;stroke:#000000;stroke-miterlimit:1;" x1="121.693" y1="110.361" x2="118.984" y2="108.145"/>
	<line style="fill:none;stroke:#000000;stroke-miterlimit:1;" x1="118.984" y1="108.145" x2="117.752" y2="105.436"/>
	<line style="fill:none;stroke:#000000;stroke-miterlimit:1;" x1="117.752" y1="105.436" x2="117.26" y2="102.479"/>
	<line style="fill:none;stroke:#000000;stroke-miterlimit:1;" x1="117.26" y1="102.479" x2="117.014" y2="100.262"/>
	<line style="fill:none;stroke:#000000;stroke-miterlimit:1;" x1="117.014" y1="100.262" x2="117.752" y2="92.625"/>
	<line style="fill:none;stroke:#000000;stroke-miterlimit:1;" x1="117.752" y1="92.625" x2="118.738" y2="84.25"/>
	<line style="fill:none;stroke:#000000;stroke-miterlimit:1;" x1="118.738" y1="84.25" x2="117.998" y2="75.627"/>
	<line style="fill:none;stroke:#000000;stroke-miterlimit:1;" x1="117.998" y1="75.627" x2="115.781" y2="69.469"/>
	<line style="fill:none;stroke:#000000;stroke-miterlimit:1;" x1="115.781" y1="69.469" x2="112.578" y2="64.542"/>
	<line style="fill:none;stroke:#000000;stroke-miterlimit:1;" x1="112.578" y1="64.542" x2="109.377" y2="60.847"/>
	<line style="fill:none;stroke:#000000;stroke-miterlimit:1;" x1="109.377" y1="60.847" x2="105.681" y2="59.369"/>
	<line style="fill:none;stroke:#000000;stroke-miterlimit:1;" x1="105.681" y1="59.369" x2="103.957" y2="59.369"/>
	<line style="fill:none;stroke:#000000;stroke-miterlimit:1;" x1="103.957" y1="59.369" x2="103.957" y2="62.079"/>
	<line style="fill:none;stroke:#000000;stroke-miterlimit:1;" x1="103.957" y1="62.079" x2="94.103" y2="62.079"/>
	<line style="fill:none;stroke:#000000;stroke-miterlimit:1;" x1="94.103" y1="62.079" x2="94.103" y2="67.252"/>
	<line style="fill:none;stroke:#000000;stroke-miterlimit:1;" x1="94.103" y1="67.252" x2="79.569" y2="67.252"/>
	<line style="fill:none;stroke:#000000;stroke-miterlimit:1;" x1="79.569" y1="67.252" x2="79.569" y2="62.079"/>
	<line style="fill:none;stroke:#000000;stroke-miterlimit:1;" x1="79.569" y1="62.079" x2="52.964" y2="62.079"/>
	<line style="fill:none;stroke:#000000;stroke-miterlimit:1;" x1="52.964" y1="62.079" x2="52.964" y2="67.252"/>
	<line style="fill:none;stroke:#000000;stroke-miterlimit:1;" x1="52.964" y1="67.252" x2="38.922" y2="67.252"/>
	<line style="fill:none;stroke:#000000;stroke-miterlimit:1;" x1="38.922" y1="67.252" x2="38.922" y2="62.079"/>
	<line style="fill:none;stroke:#000000;stroke-miterlimit:1;" x1="38.922" y1="62.079" x2="29.068" y2="62.079"/>
	<line style="fill:none;stroke:#000000;stroke-miterlimit:1;" x1="33.502" y1="51.486" x2="43.11" y2="4.434"/>
	<line style="fill:none;stroke:#000000;stroke-miterlimit:1;" x1="43.11" y1="4.434" x2="44.834" y2="1.478"/>
	<line style="fill:none;stroke:#000000;stroke-miterlimit:1;" x1="44.834" y1="1.478" x2="46.066" y2="0.493"/>
	<line style="fill:none;stroke:#000000;stroke-miterlimit:1;" x1="46.066" y1="0.493" x2="47.544" y2="0"/>
	<line style="fill:none;stroke:#000000;stroke-miterlimit:1;" x1="47.544" y1="0" x2="49.761" y2="0"/>
	<line style="fill:none;stroke:#000000;stroke-miterlimit:1;" x1="49.761" y1="0" x2="51.979" y2="1.231"/>
	<line style="fill:none;stroke:#000000;stroke-miterlimit:1;" x1="51.979" y1="1.231" x2="52.471" y2="2.709"/>
	<line style="fill:none;stroke:#000000;stroke-miterlimit:1;" x1="52.471" y1="2.709" x2="52.471" y2="4.434"/>
	<line style="fill:none;stroke:#000000;stroke-miterlimit:1;" x1="42.864" y1="51.486" x2="52.717" y2="4.188"/>
	<line style="fill:none;stroke:#000000;stroke-miterlimit:1;" x1="52.717" y1="4.188" x2="53.949" y2="1.971"/>
	<line style="fill:none;stroke:#000000;stroke-miterlimit:1;" x1="53.949" y1="1.971" x2="55.181" y2="0.739"/>
	<line style="fill:none;stroke:#000000;stroke-miterlimit:1;" x1="55.181" y1="0.739" x2="57.398" y2="0.246"/>
	<line style="fill:none;stroke:#000000;stroke-miterlimit:1;" x1="57.398" y1="0.246" x2="59.615" y2="0.985"/>
	<line style="fill:none;stroke:#000000;stroke-miterlimit:1;" x1="59.615" y1="0.985" x2="60.847" y2="1.971"/>
	<line style="fill:none;stroke:#000000;stroke-miterlimit:1;" x1="60.847" y1="1.971" x2="61.586" y2="3.449"/>
	<line style="fill:none;stroke:#000000;stroke-miterlimit:1;" x1="51.732" y1="51.486" x2="61.339" y2="4.434"/>
	<line style="fill:none;stroke:#000000;stroke-miterlimit:1;" x1="61.339" y1="4.434" x2="62.325" y2="2.217"/>
	<line style="fill:none;stroke:#000000;stroke-miterlimit:1;" x1="62.325" y1="2.217" x2="64.049" y2="0.739"/>
	<line style="fill:none;stroke:#000000;stroke-miterlimit:1;" x1="64.049" y1="0.739" x2="66.02" y2="0.493"/>
	<line style="fill:none;stroke:#000000;stroke-miterlimit:1;" x1="66.02" y1="0.493" x2="68.237" y2="0.739"/>
	<line style="fill:none;stroke:#000000;stroke-miterlimit:1;" x1="68.237" y1="0.739" x2="69.961" y2="2.217"/>
	<line style="fill:none;stroke:#000000;stroke-miterlimit:1;" x1="69.961" y1="2.217" x2="70.454" y2="4.188"/>
	<line style="fill:none;stroke:#000000;stroke-miterlimit:1;" x1="60.601" y1="51.486" x2="70.208" y2="4.927"/>
	<line style="fill:none;stroke:#000000;stroke-miterlimit:1;" x1="70.208" y1="4.927" x2="71.686" y2="2.217"/>
	<line style="fill:none;stroke:#000000;stroke-miterlimit:1;" x1="71.686" y1="2.217" x2="73.41" y2="0.739"/>
	<line style="fill:none;stroke:#000000;stroke-miterlimit:1;" x1="73.41" y1="0.739" x2="76.366" y2="0.493"/>
	<line style="fill:none;stroke:#000000;stroke-miterlimit:1;" x1="76.366" y1="0.493" x2="77.352" y2="0.739"/>
	<line style="fill:none;stroke:#000000;stroke-miterlimit:1;" x1="77.352" y1="0.739" x2="78.83" y2="1.724"/>
	<line style="fill:none;stroke:#000000;stroke-miterlimit:1;" x1="78.83" y1="1.724" x2="79.569" y2="4.188"/>
	<line style="fill:none;stroke:#000000;stroke-miterlimit:1;" x1="69.961" y1="51.486" x2="79.323" y2="5.173"/>
	<line style="fill:none;stroke:#000000;stroke-miterlimit:1;" x1="79.323" y1="5.173" x2="80.308" y2="2.709"/>
	<line style="fill:none;stroke:#000000;stroke-miterlimit:1;" x1="80.308" y1="2.709" x2="81.293" y2="1.231"/>
	<line style="fill:none;stroke:#000000;stroke-miterlimit:1;" x1="81.293" y1="1.231" x2="83.51" y2="0.246"/>
	<line style="fill:none;stroke:#000000;stroke-miterlimit:1;" x1="83.51" y1="0.246" x2="86.22" y2="0.739"/>
	<line style="fill:none;stroke:#000000;stroke-miterlimit:1;" x1="86.22" y1="0.739" x2="88.191" y2="1.971"/>
	<line style="fill:none;stroke:#000000;stroke-miterlimit:1;" x1="88.191" y1="1.971" x2="88.93" y2="3.695"/>
	<line style="fill:none;stroke:#000000;stroke-miterlimit:1;" x1="79.569" y1="51.486" x2="88.437" y2="5.419"/>
	<line style="fill:none;stroke:#000000;stroke-miterlimit:1;" x1="88.437" y1="5.419" x2="89.176" y2="2.956"/>
	<line style="fill:none;stroke:#000000;stroke-miterlimit:1;" x1="89.176" y1="2.956" x2="90.654" y2="0.985"/>
	<line style="fill:none;stroke:#000000;stroke-miterlimit:1;" x1="90.654" y1="0.985" x2="93.118" y2="0.493"/>
	<line style="fill:none;stroke:#000000;stroke-miterlimit:1;" x1="93.118" y1="0.493" x2="93.61" y2="0.246"/>
	<line style="fill:none;stroke:#000000;stroke-miterlimit:1;" x1="93.61" y1="0.246" x2="95.828" y2="1.231"/>
	<line style="fill:none;stroke:#000000;stroke-miterlimit:1;" x1="95.828" y1="1.231" x2="97.306" y2="2.709"/>
	<line style="fill:none;stroke:#000000;stroke-miterlimit:1;" x1="97.306" y1="2.709" x2="97.306" y2="4.188"/>
	<line style="fill:none;stroke:#000000;stroke-miterlimit:1;" x1="87.945" y1="51.486" x2="97.306" y2="3.941"/>
	<line style="fill:none;stroke:#000000;stroke-miterlimit:1;" x1="97.306" y1="3.941" x2="98.291" y2="1.971"/>
	<line style="fill:none;stroke:#000000;stroke-miterlimit:1;" x1="98.291" y1="1.971" x2="99.523" y2="0.739"/>
	<line style="fill:none;stroke:#000000;stroke-miterlimit:1;" x1="99.523" y1="0.739" x2="101.001" y2="0.493"/>
	<line style="fill:none;stroke:#000000;stroke-miterlimit:1;" x1="101.001" y1="0.493" x2="103.218" y2="0.493"/>
	<line style="fill:none;stroke:#000000;stroke-miterlimit:1;" x1="103.218" y1="0.493" x2="105.188" y2="1.231"/>
	<line style="fill:none;stroke:#000000;stroke-miterlimit:1;" x1="105.188" y1="1.231" x2="106.174" y2="2.709"/>
	<line style="fill:none;stroke:#000000;stroke-miterlimit:1;" x1="106.174" y1="2.709" x2="106.667" y2="5.173"/>
	<line style="fill:none;stroke:#000000;stroke-miterlimit:1;" x1="106.667" y1="5.173" x2="97.059" y2="51.486"/>
	<line style="fill:none;stroke:#000000;stroke-miterlimit:1;" x1="97.059" y1="51.486" x2="29.068" y2="51.486"/>
	<line style="fill:none;stroke:#000000;stroke-miterlimit:1;" x1="29.068" y1="51.486" x2="29.068" y2="54.688"/>
	<line style="fill:none;stroke:#000000;stroke-miterlimit:1;" x1="29.068" y1="54.688" x2="25.62" y2="55.181"/>
	<line style="fill:none;stroke:#000000;stroke-miterlimit:1;" x1="25.62" y1="55.181" x2="20.939" y2="56.659"/>
	<line style="fill:none;stroke:#000000;stroke-miterlimit:1;" x1="20.939" y1="56.659" x2="17.49" y2="58.63"/>
	<line style="fill:none;stroke:#000000;stroke-miterlimit:1;" x1="17.49" y1="58.63" x2="13.549" y2="61.833"/>
	<line style="fill:none;stroke:#000000;stroke-miterlimit:1;" x1="13.549" y1="61.833" x2="9.854" y2="65.774"/>
	<line style="fill:none;stroke:#000000;stroke-miterlimit:1;" x1="9.854" y1="65.774" x2="4.188" y2="75.381"/>
	<line style="fill:none;stroke:#000000;stroke-miterlimit:1;" x1="4.188" y1="75.381" x2="2.463" y2="81.047"/>
	<line style="fill:none;stroke:#000000;stroke-miterlimit:1;" x1="2.463" y1="81.047" x2="0.739" y2="86.959"/>
	<line style="fill:none;stroke:#000000;stroke-miterlimit:1;" x1="0.739" y1="86.959" x2="0" y2="96.812"/>
	<line style="fill:none;stroke:#000000;stroke-miterlimit:1;" x1="0" y1="96.812" x2="0.739" y2="101.986"/>
	<line style="fill:none;stroke:#000000;stroke-miterlimit:1;" x1="0.739" y1="101.986" x2="3.202" y2="107.652"/>
	<line style="fill:none;stroke:#000000;stroke-miterlimit:1;" x1="3.202" y1="107.652" x2="5.912" y2="110.361"/>
	<line style="fill:none;stroke:#000000;stroke-miterlimit:1;" x1="5.912" y1="110.361" x2="7.883" y2="110.855"/>
	<line style="fill:none;stroke:#000000;stroke-miterlimit:1;" x1="7.883" y1="110.855" x2="11.332" y2="110.607"/>
	<line style="fill:none;stroke:#000000;stroke-miterlimit:1;" x1="11.332" y1="110.607" x2="14.288" y2="108.391"/>
	<line style="fill:none;stroke:#000000;stroke-miterlimit:1;" x1="14.288" y1="108.391" x2="15.273" y2="105.682"/>
	<line style="fill:none;stroke:#000000;stroke-miterlimit:1;" x1="15.273" y1="105.682" x2="15.766" y2="102.725"/>
	<line style="fill:none;stroke:#000000;stroke-miterlimit:1;" x1="15.766" y1="102.725" x2="16.012" y2="100.508"/>
	<line style="fill:none;stroke:#000000;stroke-miterlimit:1;" x1="16.012" y1="100.508" x2="15.273" y2="92.871"/>
	<line style="fill:none;stroke:#000000;stroke-miterlimit:1;" x1="15.273" y1="92.871" x2="14.042" y2="84.496"/>
	<line style="fill:none;stroke:#000000;stroke-miterlimit:1;" x1="14.042" y1="84.496" x2="14.78" y2="76.121"/>
	<line style="fill:none;stroke:#000000;stroke-miterlimit:1;" x1="14.78" y1="76.121" x2="16.751" y2="69.961"/>
	<line style="fill:none;stroke:#000000;stroke-miterlimit:1;" x1="16.751" y1="69.961" x2="19.954" y2="64.789"/>
	<line style="fill:none;stroke:#000000;stroke-miterlimit:1;" x1="19.954" y1="64.789" x2="23.156" y2="61.093"/>
	<line style="fill:none;stroke:#000000;stroke-miterlimit:1;" x1="23.156" y1="61.093" x2="26.605" y2="59.615"/>
	<line style="fill:none;stroke:#000000;stroke-miterlimit:1;" x1="26.605" y1="59.615" x2="29.068" y2="59.369"/>
	<line style="fill:none;stroke:#000000;stroke-miterlimit:1;" x1="29.068" y1="59.369" x2="29.068" y2="61.586"/>
	<line style="fill:none;stroke:#000000;stroke-miterlimit:1;" x1="65.712" y1="91.947" x2="62.756" y2="93.426"/>
	<line style="fill:none;stroke:#000000;stroke-miterlimit:1;" x1="62.756" y1="93.426" x2="60.539" y2="96.135"/>
	<line style="fill:none;stroke:#000000;stroke-miterlimit:1;" x1="60.539" y1="96.135" x2="59.8" y2="98.354"/>
	<line style="fill:none;stroke:#000000;stroke-miterlimit:1;" x1="59.8" y1="98.354" x2="59.307" y2="100.57"/>
	<line style="fill:none;stroke:#000000;stroke-miterlimit:1;" x1="59.307" y1="100.57" x2="60.046" y2="104.02"/>
	<line style="fill:none;stroke:#000000;stroke-miterlimit:1;" x1="60.046" y1="104.02" x2="61.771" y2="106.236"/>
	<line style="fill:none;stroke:#000000;stroke-miterlimit:1;" x1="61.771" y1="106.236" x2="63.495" y2="107.713"/>
	<line style="fill:none;stroke:#000000;stroke-miterlimit:1;" x1="63.495" y1="107.713" x2="66.451" y2="108.699"/>
	<line style="fill:none;stroke:#000000;stroke-miterlimit:1;" x1="66.451" y1="108.699" x2="68.668" y2="109.438"/>
	<line style="fill:none;stroke:#000000;stroke-miterlimit:1;" x1="68.668" y1="109.438" x2="71.378" y2="109.438"/>
	<line style="fill:none;stroke:#000000;stroke-miterlimit:1;" x1="71.378" y1="109.438" x2="74.334" y2="108.207"/>
	<line style="fill:none;stroke:#000000;stroke-miterlimit:1;" x1="74.334" y1="108.207" x2="76.797" y2="106.975"/>
	<line style="fill:none;stroke:#000000;stroke-miterlimit:1;" x1="76.797" y1="106.975" x2="78.275" y2="105.25"/>
	<line style="fill:none;stroke:#000000;stroke-miterlimit:1;" x1="78.275" y1="105.25" x2="80" y2="102.787"/>
	<line style="fill:none;stroke:#000000;stroke-miterlimit:1;" x1="80" y1="102.787" x2="81.232" y2="99.83"/>
	<line style="fill:none;stroke:#000000;stroke-miterlimit:1;" x1="81.232" y1="99.83" x2="81.971" y2="97.367"/>
	<line style="fill:none;stroke:#000000;stroke-miterlimit:1;" x1="81.971" y1="97.367" x2="82.217" y2="94.904"/>
	<line style="fill:none;stroke:#000000;stroke-miterlimit:1;" x1="82.217" y1="94.904" x2="81.971" y2="93.18"/>
	<line style="fill:none;stroke:#000000;stroke-miterlimit:1;" x1="81.971" y1="93.18" x2="81.478" y2="90.223"/>
	<line style="fill:none;stroke:#000000;stroke-miterlimit:1;" x1="81.478" y1="90.223" x2="80.246" y2="87.76"/>
	<line style="fill:none;stroke:#000000;stroke-miterlimit:1;" x1="80.246" y1="87.76" x2="78.275" y2="85.297"/>
	<line style="fill:none;stroke:#000000;stroke-miterlimit:1;" x1="78.275" y1="85.297" x2="76.305" y2="83.572"/>
	<line style="fill:none;stroke:#000000;stroke-miterlimit:1;" x1="76.305" y1="83.572" x2="74.581" y2="82.834"/>
	<line style="fill:none;stroke:#000000;stroke-miterlimit:1;" x1="74.581" y1="82.834" x2="72.856" y2="82.094"/>
	<line style="fill:none;stroke:#000000;stroke-miterlimit:1;" x1="72.856" y1="82.094" x2="70.393" y2="81.848"/>
	<line style="fill:none;stroke:#000000;stroke-miterlimit:1;" x1="70.393" y1="81.848" x2="68.422" y2="81.602"/>
	<line style="fill:none;stroke:#000000;stroke-miterlimit:1;" x1="68.422" y1="81.602" x2="65.958" y2="81.602"/>
	<line style="fill:none;stroke:#000000;stroke-miterlimit:1;" x1="65.958" y1="81.602" x2="63.002" y2="81.848"/>
	<line style="fill:none;stroke:#000000;stroke-miterlimit:1;" x1="63.002" y1="81.848" x2="59.8" y2="82.834"/>
	<line style="fill:none;stroke:#000000;stroke-miterlimit:1;" x1="59.8" y1="82.834" x2="57.09" y2="84.311"/>
	<line style="fill:none;stroke:#000000;stroke-miterlimit:1;" x1="57.09" y1="84.311" x2="55.366" y2="85.789"/>
	<line style="fill:none;stroke:#000000;stroke-miterlimit:1;" x1="55.366" y1="85.789" x2="53.395" y2="87.514"/>
	<line style="fill:none;stroke:#000000;stroke-miterlimit:1;" x1="53.395" y1="87.514" x2="51.917" y2="89.238"/>
	<line style="fill:none;stroke:#000000;stroke-miterlimit:1;" x1="51.917" y1="89.238" x2="50.438" y2="91.947"/>
	<line style="fill:none;stroke:#000000;stroke-miterlimit:1;" x1="50.438" y1="91.947" x2="48.96" y2="94.658"/>
	<line style="fill:none;stroke:#000000;stroke-miterlimit:1;" x1="48.96" y1="94.658" x2="48.468" y2="97.121"/>
	<line style="fill:none;stroke:#000000;stroke-miterlimit:1;" x1="48.468" y1="97.121" x2="47.975" y2="100.57"/>
	<line style="fill:none;stroke:#000000;stroke-miterlimit:1;" x1="47.975" y1="100.57" x2="47.729" y2="104.02"/>
	<line style="fill:none;stroke:#000000;stroke-miterlimit:1;" x1="47.729" y1="104.02" x2="47.975" y2="106.729"/>
	<line style="fill:none;stroke:#000000;stroke-miterlimit:1;" x1="47.975" y1="106.729" x2="48.222" y2="110.67"/>
	<line style="fill:none;stroke:#000000;stroke-miterlimit:1;" x1="48.222" y1="110.67" x2="49.7" y2="114.611"/>
	<line style="fill:none;stroke:#000000;stroke-miterlimit:1;" x1="49.7" y1="114.611" x2="51.917" y2="119.045"/>
	<line style="fill:none;stroke:#000000;stroke-miterlimit:1;" x1="51.917" y1="119.045" x2="55.858" y2="124.219"/>
	<line style="fill:none;stroke:#000000;stroke-miterlimit:1;" x1="55.858" y1="124.219" x2="62.017" y2="130.131"/>
	<line style="fill:none;stroke:#000000;stroke-miterlimit:1;" x1="62.017" y1="130.131" x2="70.885" y2="137.275"/>
	<line style="fill:none;stroke:#000000;stroke-miterlimit:1;" x1="70.885" y1="137.275" x2="90.1" y2="148.113"/>
	<line style="fill:none;stroke:#000000;stroke-miterlimit:1;" x1="165.568" y1="11.977" x2="164.275" y2="8.745"/>
	<line style="fill:none;stroke:#000000;stroke-miterlimit:1;" x1="164.275" y1="8.745" x2="161.689" y2="3.573"/>
	<line style="fill:none;stroke:#000000;stroke-miterlimit:1;" x1="161.689" y1="3.573" x2="160.072" y2="0.987"/>
	<line style="fill:none;stroke:#000000;stroke-miterlimit:1;" x1="160.072" y1="0.987" x2="203.707" y2="0.987"/>
	<line style="fill:none;stroke:#000000;stroke-miterlimit:1;" x1="203.707" y1="0.987" x2="201.121" y2="5.512"/>
	<line style="fill:none;stroke:#000000;stroke-miterlimit:1;" x1="201.121" y1="5.512" x2="199.182" y2="10.038"/>
	<line style="fill:none;stroke:#000000;stroke-miterlimit:1;" x1="199.182" y1="10.038" x2="198.535" y2="11.977"/>
	<line style="fill:none;stroke:#000000;stroke-miterlimit:1;" x1="160.396" y1="24.582" x2="150.377" y2="19.087"/>
	<line style="fill:none;stroke:#000000;stroke-miterlimit:1;" x1="150.377" y1="19.087" x2="148.113" y2="26.845"/>
	<line style="fill:none;stroke:#000000;stroke-miterlimit:1;" x1="148.113" y1="26.845" x2="153.285" y2="30.723"/>
	<line style="fill:none;stroke:#000000;stroke-miterlimit:1;" x1="153.285" y1="30.723" x2="156.842" y2="33.309"/>
	<line style="fill:none;stroke:#000000;stroke-miterlimit:1;" x1="156.842" y1="33.309" x2="161.689" y2="38.48"/>
	<line style="fill:none;stroke:#000000;stroke-miterlimit:1;" x1="203.707" y1="24.582" x2="213.404" y2="19.087"/>
	<line style="fill:none;stroke:#000000;stroke-miterlimit:1;" x1="213.404" y1="19.087" x2="215.99" y2="27.168"/>
	<line style="fill:none;stroke:#000000;stroke-miterlimit:1;" x1="215.99" y1="27.168" x2="211.465" y2="29.754"/>
	<line style="fill:none;stroke:#000000;stroke-miterlimit:1;" x1="211.465" y1="29.754" x2="206.293" y2="34.602"/>
	<line style="fill:none;stroke:#000000;stroke-miterlimit:1;" x1="206.293" y1="34.602" x2="202.738" y2="38.48"/>
	<line style="fill:none;stroke:#000000;stroke-miterlimit:1;" x1="167.508" y1="34.602" x2="168.154" y2="32.663"/>
	<line style="fill:none;stroke:#000000;stroke-miterlimit:1;" x1="168.154" y1="32.663" x2="169.447" y2="30.4"/>
	<line style="fill:none;stroke:#000000;stroke-miterlimit:1;" x1="169.447" y1="30.4" x2="171.385" y2="28.138"/>
	<line style="fill:none;stroke:#000000;stroke-miterlimit:1;" x1="171.385" y1="28.138" x2="173.971" y2="25.875"/>
	<line style="fill:none;stroke:#000000;stroke-miterlimit:1;" x1="173.971" y1="25.875" x2="178.496" y2="24.259"/>
	<line style="fill:none;stroke:#000000;stroke-miterlimit:1;" x1="178.496" y1="24.259" x2="181.406" y2="23.936"/>
	<line style="fill:none;stroke:#000000;stroke-miterlimit:1;" x1="181.406" y1="23.936" x2="184.961" y2="24.259"/>
	<line style="fill:none;stroke:#000000;stroke-miterlimit:1;" x1="184.961" y1="24.259" x2="188.84" y2="25.552"/>
	<line style="fill:none;stroke:#000000;stroke-miterlimit:1;" x1="188.84" y1="25.552" x2="192.072" y2="27.491"/>
	<line style="fill:none;stroke:#000000;stroke-miterlimit:1;" x1="192.072" y1="27.491" x2="193.688" y2="29.754"/>
	<line style="fill:none;stroke:#000000;stroke-miterlimit:1;" x1="193.688" y1="29.754" x2="195.305" y2="31.693"/>
	<line style="fill:none;stroke:#000000;stroke-miterlimit:1;" x1="195.305" y1="31.693" x2="196.596" y2="35.249"/>
	<line style="fill:none;stroke:#000000;stroke-miterlimit:1;" x1="196.596" y1="35.249" x2="191.426" y2="32.016"/>
	<line style="fill:none;stroke:#000000;stroke-miterlimit:1;" x1="191.426" y1="32.016" x2="187.547" y2="30.723"/>
	<line style="fill:none;stroke:#000000;stroke-miterlimit:1;" x1="187.547" y1="30.723" x2="184.314" y2="29.754"/>
	<line style="fill:none;stroke:#000000;stroke-miterlimit:1;" x1="184.314" y1="29.754" x2="181.729" y2="29.431"/>
	<line style="fill:none;stroke:#000000;stroke-miterlimit:1;" x1="181.729" y1="29.431" x2="178.496" y2="30.077"/>
	<line style="fill:none;stroke:#000000;stroke-miterlimit:1;" x1="178.496" y1="30.077" x2="175.264" y2="30.723"/>
	<line style="fill:none;stroke:#000000;stroke-miterlimit:1;" x1="175.264" y1="30.723" x2="171.385" y2="32.663"/>
	<line style="fill:none;stroke:#000000;stroke-miterlimit:1;" x1="171.385" y1="32.663" x2="168.801" y2="34.602"/>
	<line style="fill:none;stroke:#000000;stroke-miterlimit:1;" x1="168.801" y1="34.602" x2="167.508" y2="35.249"/>
	<line style="fill:none;stroke:#000000;stroke-miterlimit:1;" x1="169.447" y1="69.186" x2="174.617" y2="48.177"/>
	<line style="fill:none;stroke:#000000;stroke-miterlimit:1;" x1="174.617" y1="48.177" x2="176.881" y2="45.268"/>
	<line style="fill:none;stroke:#000000;stroke-miterlimit:1;" x1="176.881" y1="45.268" x2="179.143" y2="44.298"/>
	<line style="fill:none;stroke:#000000;stroke-miterlimit:1;" x1="179.143" y1="44.298" x2="181.729" y2="43.652"/>
	<line style="fill:none;stroke:#000000;stroke-miterlimit:1;" x1="181.729" y1="43.652" x2="185.283" y2="44.298"/>
	<line style="fill:none;stroke:#000000;stroke-miterlimit:1;" x1="185.283" y1="44.298" x2="187.869" y2="46.238"/>
	<line style="fill:none;stroke:#000000;stroke-miterlimit:1;" x1="187.869" y1="46.238" x2="189.162" y2="48.5"/>
	<line style="fill:none;stroke:#000000;stroke-miterlimit:1;" x1="189.162" y1="48.5" x2="194.658" y2="69.509"/>
	<line style="fill:none;stroke:#000000;stroke-miterlimit:1;" x1="182.375" y1="73.711" x2="177.527" y2="73.388"/>
	<line style="fill:none;stroke:#000000;stroke-miterlimit:1;" x1="177.527" y1="73.388" x2="175.264" y2="72.742"/>
	<line style="fill:none;stroke:#000000;stroke-miterlimit:1;" x1="175.264" y1="72.742" x2="173.324" y2="72.418"/>
	<line style="fill:none;stroke:#000000;stroke-miterlimit:1;" x1="173.324" y1="72.418" x2="170.094" y2="70.802"/>
	<line style="fill:none;stroke:#000000;stroke-miterlimit:1;" x1="170.094" y1="70.802" x2="167.83" y2="67.894"/>
	<line style="fill:none;stroke:#000000;stroke-miterlimit:1;" x1="167.83" y1="67.894" x2="165.891" y2="64.984"/>
	<line style="fill:none;stroke:#000000;stroke-miterlimit:1;" x1="165.891" y1="64.984" x2="164.598" y2="61.752"/>
	<line style="fill:none;stroke:#000000;stroke-miterlimit:1;" x1="164.598" y1="61.752" x2="163.629" y2="57.874"/>
	<line style="fill:none;stroke:#000000;stroke-miterlimit:1;" x1="163.629" y1="57.874" x2="162.336" y2="52.702"/>
	<line style="fill:none;stroke:#000000;stroke-miterlimit:1;" x1="162.336" y1="52.702" x2="160.396" y2="25.552"/>
	<line style="fill:none;stroke:#000000;stroke-miterlimit:1;" x1="160.396" y1="25.552" x2="160.719" y2="20.704"/>
	<line style="fill:none;stroke:#000000;stroke-miterlimit:1;" x1="160.719" y1="20.704" x2="161.365" y2="18.441"/>
	<line style="fill:none;stroke:#000000;stroke-miterlimit:1;" x1="161.365" y1="18.441" x2="161.689" y2="16.502"/>
	<line style="fill:none;stroke:#000000;stroke-miterlimit:1;" x1="161.689" y1="16.502" x2="163.305" y2="13.916"/>
	<line style="fill:none;stroke:#000000;stroke-miterlimit:1;" x1="163.305" y1="13.916" x2="165.244" y2="11.977"/>
	<line style="fill:none;stroke:#000000;stroke-miterlimit:1;" x1="165.244" y1="11.977" x2="168.477" y2="10.038"/>
	<line style="fill:none;stroke:#000000;stroke-miterlimit:1;" x1="168.477" y1="10.038" x2="171.385" y2="9.068"/>
	<line style="fill:none;stroke:#000000;stroke-miterlimit:1;" x1="171.385" y1="9.068" x2="173.971" y2="8.745"/>
	<line style="fill:none;stroke:#000000;stroke-miterlimit:1;" x1="173.971" y1="8.745" x2="181.729" y2="8.098"/>
	<line style="fill:none;stroke:#000000;stroke-miterlimit:1;" x1="181.729" y1="8.098" x2="190.779" y2="8.745"/>
	<line style="fill:none;stroke:#000000;stroke-miterlimit:1;" x1="190.779" y1="8.745" x2="194.658" y2="9.391"/>
	<line style="fill:none;stroke:#000000;stroke-miterlimit:1;" x1="194.658" y1="9.391" x2="197.889" y2="11.331"/>
	<line style="fill:none;stroke:#000000;stroke-miterlimit:1;" x1="197.889" y1="11.331" x2="199.828" y2="12.623"/>
	<line style="fill:none;stroke:#000000;stroke-miterlimit:1;" x1="199.828" y1="12.623" x2="201.445" y2="15.209"/>
	<line style="fill:none;stroke:#000000;stroke-miterlimit:1;" x1="201.445" y1="15.209" x2="203.061" y2="20.38"/>
	<line style="fill:none;stroke:#000000;stroke-miterlimit:1;" x1="203.061" y1="20.38" x2="203.385" y2="24.582"/>
	<line style="fill:none;stroke:#000000;stroke-miterlimit:1;" x1="203.385" y1="24.582" x2="201.768" y2="48.177"/>
	<line style="fill:none;stroke:#000000;stroke-miterlimit:1;" x1="201.768" y1="48.177" x2="201.121" y2="54.642"/>
	<line style="fill:none;stroke:#000000;stroke-miterlimit:1;" x1="201.121" y1="54.642" x2="199.182" y2="61.752"/>
	<line style="fill:none;stroke:#000000;stroke-miterlimit:1;" x1="199.182" y1="61.752" x2="197.889" y2="64.984"/>
	<line style="fill:none;stroke:#000000;stroke-miterlimit:1;" x1="197.889" y1="64.984" x2="195.951" y2="68.216"/>
	<line style="fill:none;stroke:#000000;stroke-miterlimit:1;" x1="195.951" y1="68.216" x2="194.658" y2="69.833"/>
	<line style="fill:none;stroke:#000000;stroke-miterlimit:1;" x1="194.658" y1="69.833" x2="192.719" y2="71.449"/>
	<line style="fill:none;stroke:#000000;stroke-miterlimit:1;" x1="192.719" y1="71.449" x2="190.455" y2="72.742"/>
	<line style="fill:none;stroke:#000000;stroke-miterlimit:1;" x1="190.455" y1="72.742" x2="187.547" y2="73.388"/>
	<line style="fill:none;stroke:#000000;stroke-miterlimit:1;" x1="187.547" y1="73.388" x2="182.375" y2="73.711"/>
	<line style="fill:none;stroke:#000000;stroke-miterlimit:1;" x1="175.385" y1="90.922" x2="175.385" y2="149.102"/>
	<line style="fill:none;stroke:#000000;stroke-miterlimit:1;" x1="175.385" y1="149.102" x2="188.314" y2="149.102"/>
	<line style="fill:none;stroke:#000000;stroke-miterlimit:1;" x1="188.314" y1="149.102" x2="188.314" y2="90.922"/>
	<line style="fill:none;stroke:#000000;stroke-miterlimit:1;" x1="188.314" y1="90.922" x2="175.385" y2="90.922"/>
</g>
</svg>
