<?xml version="1.0" encoding="iso-8859-1"?>
<!-- Generator: Adobe Illustrator 16.0.1, SVG Export Plug-In . SVG Version: 6.00 Build 0)  -->
<!DOCTYPE svg PUBLIC "-//W3C//DTD SVG 1.1//EN" "http://www.w3.org/Graphics/SVG/1.1/DTD/svg11.dtd">
<svg version="1.1" id="Ebene_1" xmlns="http://www.w3.org/2000/svg" xmlns:xlink="http://www.w3.org/1999/xlink" x="0px" y="0px"
	 width="261.258px" height="149.102px" viewBox="0 0 261.258 149.102" style="enable-background:new 0 0 261.258 149.102;"
	 xml:space="preserve">
<g>
	<line style="fill:none;stroke:#000000;stroke-miterlimit:1;" x1="24.697" y1="59.314" x2="58.852" y2="26.473"/>
	<line style="fill:none;stroke:#000000;stroke-miterlimit:1;" x1="12.349" y1="54.584" x2="54.385" y2="14.387"/>
	<line style="fill:none;stroke:#000000;stroke-miterlimit:1;" x1="4.204" y1="45.915" x2="46.241" y2="5.717"/>
	<line style="fill:none;stroke:#000000;stroke-miterlimit:1;" x1="0" y1="33.566" x2="33.63" y2="1.513"/>
	<line style="fill:none;stroke:#000000;stroke-miterlimit:1;" x1="41.774" y1="3.352" x2="38.884" y2="2.564"/>
	<line style="fill:none;stroke:#000000;stroke-miterlimit:1;" x1="38.884" y1="2.564" x2="35.994" y2="1.513"/>
	<line style="fill:none;stroke:#000000;stroke-miterlimit:1;" x1="35.994" y1="1.513" x2="32.841" y2="0.988"/>
	<line style="fill:none;stroke:#000000;stroke-miterlimit:1;" x1="32.841" y1="0.988" x2="29.689" y2="0.988"/>
	<line style="fill:none;stroke:#000000;stroke-miterlimit:1;" x1="29.689" y1="0.988" x2="26.273" y2="1.25"/>
	<line style="fill:none;stroke:#000000;stroke-miterlimit:1;" x1="26.273" y1="1.25" x2="23.383" y2="1.513"/>
	<line style="fill:none;stroke:#000000;stroke-miterlimit:1;" x1="23.383" y1="1.513" x2="20.23" y2="2.564"/>
	<line style="fill:none;stroke:#000000;stroke-miterlimit:1;" x1="20.23" y1="2.564" x2="17.34" y2="3.615"/>
	<line style="fill:none;stroke:#000000;stroke-miterlimit:1;" x1="17.34" y1="3.615" x2="14.45" y2="4.929"/>
	<line style="fill:none;stroke:#000000;stroke-miterlimit:1;" x1="14.45" y1="4.929" x2="11.823" y2="6.768"/>
	<line style="fill:none;stroke:#000000;stroke-miterlimit:1;" x1="11.823" y1="6.768" x2="9.721" y2="8.607"/>
	<line style="fill:none;stroke:#000000;stroke-miterlimit:1;" x1="9.721" y1="8.607" x2="7.619" y2="10.708"/>
	<line style="fill:none;stroke:#000000;stroke-miterlimit:1;" x1="7.619" y1="10.708" x2="6.043" y2="12.548"/>
	<line style="fill:none;stroke:#000000;stroke-miterlimit:1;" x1="6.043" y1="12.548" x2="4.467" y2="14.912"/>
	<line style="fill:none;stroke:#000000;stroke-miterlimit:1;" x1="4.467" y1="14.912" x2="2.627" y2="18.328"/>
	<line style="fill:none;stroke:#000000;stroke-miterlimit:1;" x1="2.627" y1="18.328" x2="1.839" y2="20.955"/>
	<line style="fill:none;stroke:#000000;stroke-miterlimit:1;" x1="1.839" y1="20.955" x2="1.051" y2="23.845"/>
	<line style="fill:none;stroke:#000000;stroke-miterlimit:1;" x1="1.051" y1="23.845" x2="0.526" y2="26.735"/>
	<line style="fill:none;stroke:#000000;stroke-miterlimit:1;" x1="0.526" y1="26.735" x2="0" y2="30.151"/>
	<line style="fill:none;stroke:#000000;stroke-miterlimit:1;" x1="0" y1="30.151" x2="0" y2="33.041"/>
	<line style="fill:none;stroke:#000000;stroke-miterlimit:1;" x1="0" y1="33.041" x2="0.526" y2="36.456"/>
	<line style="fill:none;stroke:#000000;stroke-miterlimit:1;" x1="0.526" y1="36.456" x2="1.314" y2="39.346"/>
	<line style="fill:none;stroke:#000000;stroke-miterlimit:1;" x1="1.314" y1="39.346" x2="2.102" y2="41.974"/>
	<line style="fill:none;stroke:#000000;stroke-miterlimit:1;" x1="2.102" y1="41.974" x2="3.416" y2="44.864"/>
	<line style="fill:none;stroke:#000000;stroke-miterlimit:1;" x1="3.416" y1="44.864" x2="4.204" y2="46.44"/>
	<line style="fill:none;stroke:#000000;stroke-miterlimit:1;" x1="4.204" y1="46.44" x2="5.255" y2="47.754"/>
	<line style="fill:none;stroke:#000000;stroke-miterlimit:1;" x1="5.255" y1="47.754" x2="7.882" y2="50.644"/>
	<line style="fill:none;stroke:#000000;stroke-miterlimit:1;" x1="7.882" y1="50.644" x2="10.509" y2="53.271"/>
	<line style="fill:none;stroke:#000000;stroke-miterlimit:1;" x1="10.509" y1="53.271" x2="12.874" y2="55.11"/>
	<line style="fill:none;stroke:#000000;stroke-miterlimit:1;" x1="12.874" y1="55.11" x2="15.764" y2="56.687"/>
	<line style="fill:none;stroke:#000000;stroke-miterlimit:1;" x1="15.764" y1="56.687" x2="18.917" y2="58.263"/>
	<line style="fill:none;stroke:#000000;stroke-miterlimit:1;" x1="18.917" y1="58.263" x2="22.069" y2="59.051"/>
	<line style="fill:none;stroke:#000000;stroke-miterlimit:1;" x1="22.069" y1="59.051" x2="24.697" y2="59.839"/>
	<line style="fill:none;stroke:#000000;stroke-miterlimit:1;" x1="24.697" y1="59.839" x2="27.85" y2="59.839"/>
	<line style="fill:none;stroke:#000000;stroke-miterlimit:1;" x1="27.85" y1="59.839" x2="31.002" y2="60.102"/>
	<line style="fill:none;stroke:#000000;stroke-miterlimit:1;" x1="31.002" y1="60.102" x2="34.681" y2="59.577"/>
	<line style="fill:none;stroke:#000000;stroke-miterlimit:1;" x1="34.681" y1="59.577" x2="37.308" y2="59.051"/>
	<line style="fill:none;stroke:#000000;stroke-miterlimit:1;" x1="37.308" y1="59.051" x2="40.46" y2="57.737"/>
	<line style="fill:none;stroke:#000000;stroke-miterlimit:1;" x1="40.46" y1="57.737" x2="43.613" y2="56.161"/>
	<line style="fill:none;stroke:#000000;stroke-miterlimit:1;" x1="43.613" y1="56.161" x2="45.715" y2="55.11"/>
	<line style="fill:none;stroke:#000000;stroke-miterlimit:1;" x1="45.715" y1="55.11" x2="48.08" y2="53.008"/>
	<line style="fill:none;stroke:#000000;stroke-miterlimit:1;" x1="48.08" y1="53.008" x2="50.444" y2="50.906"/>
	<line style="fill:none;stroke:#000000;stroke-miterlimit:1;" x1="50.444" y1="50.906" x2="52.809" y2="48.542"/>
	<line style="fill:none;stroke:#000000;stroke-miterlimit:1;" x1="52.809" y1="48.542" x2="54.648" y2="45.652"/>
	<line style="fill:none;stroke:#000000;stroke-miterlimit:1;" x1="54.648" y1="45.652" x2="56.487" y2="43.024"/>
	<line style="fill:none;stroke:#000000;stroke-miterlimit:1;" x1="56.487" y1="43.024" x2="57.801" y2="40.397"/>
	<line style="fill:none;stroke:#000000;stroke-miterlimit:1;" x1="57.801" y1="40.397" x2="58.589" y2="37.245"/>
	<line style="fill:none;stroke:#000000;stroke-miterlimit:1;" x1="58.589" y1="37.245" x2="58.852" y2="34.354"/>
	<line style="fill:none;stroke:#000000;stroke-miterlimit:1;" x1="58.852" y1="34.354" x2="59.377" y2="30.939"/>
	<line style="fill:none;stroke:#000000;stroke-miterlimit:1;" x1="59.377" y1="30.939" x2="59.115" y2="28.049"/>
	<line style="fill:none;stroke:#000000;stroke-miterlimit:1;" x1="59.115" y1="28.049" x2="58.852" y2="24.633"/>
	<line style="fill:none;stroke:#000000;stroke-miterlimit:1;" x1="58.852" y1="24.633" x2="58.063" y2="21.743"/>
	<line style="fill:none;stroke:#000000;stroke-miterlimit:1;" x1="58.063" y1="21.743" x2="57.013" y2="19.116"/>
	<line style="fill:none;stroke:#000000;stroke-miterlimit:1;" x1="57.013" y1="19.116" x2="55.699" y2="15.701"/>
	<line style="fill:none;stroke:#000000;stroke-miterlimit:1;" x1="55.699" y1="15.701" x2="53.86" y2="13.073"/>
	<line style="fill:none;stroke:#000000;stroke-miterlimit:1;" x1="53.86" y1="13.073" x2="52.021" y2="10.971"/>
	<line style="fill:none;stroke:#000000;stroke-miterlimit:1;" x1="52.021" y1="10.971" x2="49.919" y2="8.344"/>
	<line style="fill:none;stroke:#000000;stroke-miterlimit:1;" x1="49.919" y1="8.344" x2="47.292" y2="6.505"/>
	<line style="fill:none;stroke:#000000;stroke-miterlimit:1;" x1="47.292" y1="6.505" x2="44.665" y2="4.666"/>
	<line style="fill:none;stroke:#000000;stroke-miterlimit:1;" x1="44.665" y1="4.666" x2="41.774" y2="3.352"/>
	<line style="fill:none;stroke:#000000;stroke-miterlimit:1;" x1="7.39" y1="113.107" x2="16.848" y2="149.102"/>
	<line style="fill:none;stroke:#000000;stroke-miterlimit:1;" x1="16.848" y1="149.102" x2="46.536" y2="149.102"/>
	<line style="fill:none;stroke:#000000;stroke-miterlimit:1;" x1="46.536" y1="149.102" x2="55.732" y2="113.107"/>
	<line style="fill:none;stroke:#000000;stroke-miterlimit:1;" x1="55.732" y1="113.107" x2="7.39" y2="113.107"/>
	<line style="fill:none;stroke:#000000;stroke-miterlimit:1;" x1="37.866" y1="113.107" x2="37.341" y2="108.904"/>
	<line style="fill:none;stroke:#000000;stroke-miterlimit:1;" x1="37.341" y1="108.904" x2="35.764" y2="104.7"/>
	<line style="fill:none;stroke:#000000;stroke-miterlimit:1;" x1="35.764" y1="104.7" x2="32.875" y2="101.285"/>
	<line style="fill:none;stroke:#000000;stroke-miterlimit:1;" x1="32.875" y1="101.285" x2="29.722" y2="98.657"/>
	<line style="fill:none;stroke:#000000;stroke-miterlimit:1;" x1="29.722" y1="98.657" x2="26.043" y2="96.03"/>
	<line style="fill:none;stroke:#000000;stroke-miterlimit:1;" x1="26.043" y1="96.03" x2="23.941" y2="93.403"/>
	<line style="fill:none;stroke:#000000;stroke-miterlimit:1;" x1="23.941" y1="93.403" x2="22.891" y2="89.725"/>
	<line style="fill:none;stroke:#000000;stroke-miterlimit:1;" x1="22.891" y1="89.725" x2="23.679" y2="85.784"/>
	<line style="fill:none;stroke:#000000;stroke-miterlimit:1;" x1="23.679" y1="85.784" x2="23.416" y2="81.843"/>
	<line style="fill:none;stroke:#000000;stroke-miterlimit:1;" x1="23.416" y1="81.843" x2="22.103" y2="78.165"/>
	<line style="fill:none;stroke:#000000;stroke-miterlimit:1;" x1="22.103" y1="78.165" x2="19.738" y2="75.012"/>
	<line style="fill:none;stroke:#000000;stroke-miterlimit:1;" x1="19.738" y1="75.012" x2="16.848" y2="72.647"/>
	<line style="fill:none;stroke:#000000;stroke-miterlimit:1;" x1="16.848" y1="72.647" x2="13.695" y2="70.283"/>
	<line style="fill:none;stroke:#000000;stroke-miterlimit:1;" x1="13.695" y1="70.283" x2="11.068" y2="68.181"/>
	<line style="fill:none;stroke:#000000;stroke-miterlimit:1;" x1="11.068" y1="68.181" x2="9.491" y2="66.342"/>
	<line style="fill:none;stroke:#000000;stroke-miterlimit:1;" x1="9.491" y1="66.342" x2="9.491" y2="67.918"/>
	<line style="fill:none;stroke:#000000;stroke-miterlimit:1;" x1="9.491" y1="67.918" x2="10.542" y2="70.545"/>
	<line style="fill:none;stroke:#000000;stroke-miterlimit:1;" x1="10.542" y1="70.545" x2="12.907" y2="73.436"/>
	<line style="fill:none;stroke:#000000;stroke-miterlimit:1;" x1="12.907" y1="73.436" x2="15.271" y2="76.325"/>
	<line style="fill:none;stroke:#000000;stroke-miterlimit:1;" x1="15.271" y1="76.325" x2="16.848" y2="78.428"/>
	<line style="fill:none;stroke:#000000;stroke-miterlimit:1;" x1="16.848" y1="78.428" x2="17.636" y2="81.317"/>
	<line style="fill:none;stroke:#000000;stroke-miterlimit:1;" x1="17.636" y1="81.317" x2="17.899" y2="83.682"/>
	<line style="fill:none;stroke:#000000;stroke-miterlimit:1;" x1="17.899" y1="83.682" x2="17.373" y2="87.098"/>
	<line style="fill:none;stroke:#000000;stroke-miterlimit:1;" x1="17.373" y1="87.098" x2="16.585" y2="89.725"/>
	<line style="fill:none;stroke:#000000;stroke-miterlimit:1;" x1="16.585" y1="89.725" x2="16.585" y2="93.403"/>
	<line style="fill:none;stroke:#000000;stroke-miterlimit:1;" x1="16.585" y1="93.403" x2="17.636" y2="96.03"/>
	<line style="fill:none;stroke:#000000;stroke-miterlimit:1;" x1="17.636" y1="96.03" x2="20.263" y2="99.709"/>
	<line style="fill:none;stroke:#000000;stroke-miterlimit:1;" x1="20.263" y1="99.709" x2="23.153" y2="102.599"/>
	<line style="fill:none;stroke:#000000;stroke-miterlimit:1;" x1="23.153" y1="102.599" x2="25.781" y2="104.963"/>
	<line style="fill:none;stroke:#000000;stroke-miterlimit:1;" x1="25.781" y1="104.963" x2="27.094" y2="107.328"/>
	<line style="fill:none;stroke:#000000;stroke-miterlimit:1;" x1="27.094" y1="107.328" x2="27.357" y2="109.43"/>
	<line style="fill:none;stroke:#000000;stroke-miterlimit:1;" x1="27.357" y1="109.43" x2="27.357" y2="111.531"/>
	<line style="fill:none;stroke:#000000;stroke-miterlimit:1;" x1="27.357" y1="111.531" x2="26.832" y2="113.107"/>
	<line style="fill:none;stroke:#000000;stroke-miterlimit:1;" x1="109.811" y1="124.087" x2="128.572" y2="124.087"/>
	<line style="fill:none;stroke:#000000;stroke-miterlimit:1;" x1="128.572" y1="124.087" x2="136.142" y2="148.114"/>
	<line style="fill:none;stroke:#000000;stroke-miterlimit:1;" x1="136.142" y1="148.114" x2="102.569" y2="148.114"/>
	<line style="fill:none;stroke:#000000;stroke-miterlimit:1;" x1="102.569" y1="148.114" x2="109.811" y2="124.087"/>
	<line style="fill:none;stroke:#000000;stroke-miterlimit:1;" x1="119.685" y1="124.087" x2="119.685" y2="24.028"/>
	<line style="fill:none;stroke:#000000;stroke-miterlimit:1;" x1="119.685" y1="24.028" x2="121.331" y2="23.698"/>
	<line style="fill:none;stroke:#000000;stroke-miterlimit:1;" x1="121.331" y1="23.698" x2="122.647" y2="23.04"/>
	<line style="fill:none;stroke:#000000;stroke-miterlimit:1;" x1="122.647" y1="23.04" x2="124.622" y2="21.065"/>
	<line style="fill:none;stroke:#000000;stroke-miterlimit:1;" x1="124.622" y1="21.065" x2="125.609" y2="19.419"/>
	<line style="fill:none;stroke:#000000;stroke-miterlimit:1;" x1="125.609" y1="19.419" x2="126.597" y2="16.458"/>
	<line style="fill:none;stroke:#000000;stroke-miterlimit:1;" x1="126.597" y1="16.458" x2="126.926" y2="12.508"/>
	<line style="fill:none;stroke:#000000;stroke-miterlimit:1;" x1="126.926" y1="12.508" x2="127.255" y2="9.875"/>
	<line style="fill:none;stroke:#000000;stroke-miterlimit:1;" x1="127.255" y1="9.875" x2="127.584" y2="7.57"/>
	<line style="fill:none;stroke:#000000;stroke-miterlimit:1;" x1="127.584" y1="7.57" x2="129.23" y2="5.267"/>
	<line style="fill:none;stroke:#000000;stroke-miterlimit:1;" x1="129.23" y1="5.267" x2="130.546" y2="4.608"/>
	<line style="fill:none;stroke:#000000;stroke-miterlimit:1;" x1="130.546" y1="4.608" x2="132.851" y2="4.279"/>
	<line style="fill:none;stroke:#000000;stroke-miterlimit:1;" x1="132.851" y1="4.279" x2="134.825" y2="3.621"/>
	<line style="fill:none;stroke:#000000;stroke-miterlimit:1;" x1="134.825" y1="3.621" x2="134.167" y2="2.633"/>
	<line style="fill:none;stroke:#000000;stroke-miterlimit:1;" x1="134.167" y1="2.633" x2="125.609" y2="0.659"/>
	<line style="fill:none;stroke:#000000;stroke-miterlimit:1;" x1="125.609" y1="0.659" x2="119.355" y2="0"/>
	<line style="fill:none;stroke:#000000;stroke-miterlimit:1;" x1="119.355" y1="0" x2="110.469" y2="0.659"/>
	<line style="fill:none;stroke:#000000;stroke-miterlimit:1;" x1="110.469" y1="0.659" x2="103.228" y2="1.975"/>
	<line style="fill:none;stroke:#000000;stroke-miterlimit:1;" x1="103.228" y1="1.975" x2="103.228" y2="3.621"/>
	<line style="fill:none;stroke:#000000;stroke-miterlimit:1;" x1="103.228" y1="3.621" x2="105.203" y2="3.95"/>
	<line style="fill:none;stroke:#000000;stroke-miterlimit:1;" x1="105.203" y1="3.95" x2="108.494" y2="5.925"/>
	<line style="fill:none;stroke:#000000;stroke-miterlimit:1;" x1="108.494" y1="5.925" x2="109.481" y2="7.241"/>
	<line style="fill:none;stroke:#000000;stroke-miterlimit:1;" x1="109.481" y1="7.241" x2="110.14" y2="8.558"/>
	<line style="fill:none;stroke:#000000;stroke-miterlimit:1;" x1="110.14" y1="8.558" x2="110.798" y2="12.837"/>
	<line style="fill:none;stroke:#000000;stroke-miterlimit:1;" x1="110.798" y1="12.837" x2="110.798" y2="15.47"/>
	<line style="fill:none;stroke:#000000;stroke-miterlimit:1;" x1="110.798" y1="15.47" x2="111.785" y2="19.09"/>
	<line style="fill:none;stroke:#000000;stroke-miterlimit:1;" x1="111.785" y1="19.09" x2="112.443" y2="21.065"/>
	<line style="fill:none;stroke:#000000;stroke-miterlimit:1;" x1="112.443" y1="21.065" x2="115.406" y2="23.369"/>
	<line style="fill:none;stroke:#000000;stroke-miterlimit:1;" x1="115.406" y1="23.369" x2="117.71" y2="24.028"/>
	<line style="fill:none;stroke:#000000;stroke-miterlimit:1;" x1="117.71" y1="24.028" x2="117.71" y2="124.087"/>
	<line style="fill:none;stroke:#000000;stroke-miterlimit:1;" x1="124.293" y1="124.087" x2="139.434" y2="58.588"/>
	<line style="fill:none;stroke:#000000;stroke-miterlimit:1;" x1="139.434" y1="58.588" x2="141.079" y2="58.588"/>
	<line style="fill:none;stroke:#000000;stroke-miterlimit:1;" x1="141.079" y1="58.588" x2="142.396" y2="58.588"/>
	<line style="fill:none;stroke:#000000;stroke-miterlimit:1;" x1="142.396" y1="58.588" x2="144.699" y2="56.942"/>
	<line style="fill:none;stroke:#000000;stroke-miterlimit:1;" x1="144.699" y1="56.942" x2="146.346" y2="55.625"/>
	<line style="fill:none;stroke:#000000;stroke-miterlimit:1;" x1="146.346" y1="55.625" x2="147.662" y2="52.992"/>
	<line style="fill:none;stroke:#000000;stroke-miterlimit:1;" x1="147.662" y1="52.992" x2="148.979" y2="49.042"/>
	<line style="fill:none;stroke:#000000;stroke-miterlimit:1;" x1="148.979" y1="49.042" x2="149.308" y2="46.409"/>
	<line style="fill:none;stroke:#000000;stroke-miterlimit:1;" x1="149.308" y1="46.409" x2="150.295" y2="44.105"/>
	<line style="fill:none;stroke:#000000;stroke-miterlimit:1;" x1="150.295" y1="44.105" x2="152.928" y2="42.459"/>
	<line style="fill:none;stroke:#000000;stroke-miterlimit:1;" x1="152.928" y1="42.459" x2="154.245" y2="42.13"/>
	<line style="fill:none;stroke:#000000;stroke-miterlimit:1;" x1="154.245" y1="42.13" x2="156.549" y2="42.13"/>
	<line style="fill:none;stroke:#000000;stroke-miterlimit:1;" x1="156.549" y1="42.13" x2="158.523" y2="41.801"/>
	<line style="fill:none;stroke:#000000;stroke-miterlimit:1;" x1="158.523" y1="41.801" x2="158.194" y2="40.814"/>
	<line style="fill:none;stroke:#000000;stroke-miterlimit:1;" x1="158.194" y1="40.814" x2="147.333" y2="36.206"/>
	<line style="fill:none;stroke:#000000;stroke-miterlimit:1;" x1="147.333" y1="36.206" x2="142.725" y2="34.56"/>
	<line style="fill:none;stroke:#000000;stroke-miterlimit:1;" x1="142.725" y1="34.56" x2="134.825" y2="33.902"/>
	<line style="fill:none;stroke:#000000;stroke-miterlimit:1;" x1="134.825" y1="33.902" x2="127.913" y2="33.573"/>
	<line style="fill:none;stroke:#000000;stroke-miterlimit:1;" x1="127.913" y1="33.573" x2="127.584" y2="35.219"/>
	<line style="fill:none;stroke:#000000;stroke-miterlimit:1;" x1="127.584" y1="35.219" x2="129.23" y2="35.877"/>
	<line style="fill:none;stroke:#000000;stroke-miterlimit:1;" x1="129.23" y1="35.877" x2="132.192" y2="38.51"/>
	<line style="fill:none;stroke:#000000;stroke-miterlimit:1;" x1="132.192" y1="38.51" x2="133.18" y2="40.156"/>
	<line style="fill:none;stroke:#000000;stroke-miterlimit:1;" x1="133.18" y1="40.156" x2="133.509" y2="41.472"/>
	<line style="fill:none;stroke:#000000;stroke-miterlimit:1;" x1="133.509" y1="41.472" x2="132.521" y2="45.422"/>
	<line style="fill:none;stroke:#000000;stroke-miterlimit:1;" x1="132.521" y1="45.422" x2="132.192" y2="48.384"/>
	<line style="fill:none;stroke:#000000;stroke-miterlimit:1;" x1="132.192" y1="48.384" x2="132.192" y2="52.005"/>
	<line style="fill:none;stroke:#000000;stroke-miterlimit:1;" x1="132.192" y1="52.005" x2="132.521" y2="53.979"/>
	<line style="fill:none;stroke:#000000;stroke-miterlimit:1;" x1="132.521" y1="53.979" x2="134.825" y2="57.271"/>
	<line style="fill:none;stroke:#000000;stroke-miterlimit:1;" x1="134.825" y1="57.271" x2="137.129" y2="58.258"/>
	<line style="fill:none;stroke:#000000;stroke-miterlimit:1;" x1="137.129" y1="58.258" x2="122.647" y2="124.087"/>
	<line style="fill:none;stroke:#000000;stroke-miterlimit:1;" x1="113.102" y1="124.087" x2="98.291" y2="58.588"/>
	<line style="fill:none;stroke:#000000;stroke-miterlimit:1;" x1="98.291" y1="58.588" x2="96.645" y2="58.588"/>
	<line style="fill:none;stroke:#000000;stroke-miterlimit:1;" x1="96.645" y1="58.588" x2="95.328" y2="58.588"/>
	<line style="fill:none;stroke:#000000;stroke-miterlimit:1;" x1="95.328" y1="58.588" x2="93.024" y2="56.942"/>
	<line style="fill:none;stroke:#000000;stroke-miterlimit:1;" x1="93.024" y1="56.942" x2="91.378" y2="55.625"/>
	<line style="fill:none;stroke:#000000;stroke-miterlimit:1;" x1="91.378" y1="55.625" x2="90.062" y2="52.992"/>
	<line style="fill:none;stroke:#000000;stroke-miterlimit:1;" x1="90.062" y1="52.992" x2="88.745" y2="49.042"/>
	<line style="fill:none;stroke:#000000;stroke-miterlimit:1;" x1="88.745" y1="49.042" x2="88.745" y2="46.409"/>
	<line style="fill:none;stroke:#000000;stroke-miterlimit:1;" x1="88.745" y1="46.409" x2="87.429" y2="44.105"/>
	<line style="fill:none;stroke:#000000;stroke-miterlimit:1;" x1="87.429" y1="44.105" x2="84.795" y2="42.13"/>
	<line style="fill:none;stroke:#000000;stroke-miterlimit:1;" x1="84.795" y1="42.13" x2="83.479" y2="42.13"/>
	<line style="fill:none;stroke:#000000;stroke-miterlimit:1;" x1="83.479" y1="42.13" x2="81.175" y2="42.13"/>
	<line style="fill:none;stroke:#000000;stroke-miterlimit:1;" x1="81.175" y1="42.13" x2="79.2" y2="41.801"/>
	<line style="fill:none;stroke:#000000;stroke-miterlimit:1;" x1="79.2" y1="41.801" x2="79.529" y2="40.814"/>
	<line style="fill:none;stroke:#000000;stroke-miterlimit:1;" x1="79.529" y1="40.814" x2="87.429" y2="37.193"/>
	<line style="fill:none;stroke:#000000;stroke-miterlimit:1;" x1="87.429" y1="37.193" x2="93.024" y2="35.219"/>
	<line style="fill:none;stroke:#000000;stroke-miterlimit:1;" x1="93.024" y1="35.219" x2="102.898" y2="33.902"/>
	<line style="fill:none;stroke:#000000;stroke-miterlimit:1;" x1="102.898" y1="33.902" x2="109.811" y2="33.573"/>
	<line style="fill:none;stroke:#000000;stroke-miterlimit:1;" x1="109.811" y1="33.573" x2="110.14" y2="35.219"/>
	<line style="fill:none;stroke:#000000;stroke-miterlimit:1;" x1="110.14" y1="35.219" x2="108.494" y2="35.877"/>
	<line style="fill:none;stroke:#000000;stroke-miterlimit:1;" x1="108.494" y1="35.877" x2="105.532" y2="38.51"/>
	<line style="fill:none;stroke:#000000;stroke-miterlimit:1;" x1="105.532" y1="38.51" x2="104.544" y2="40.156"/>
	<line style="fill:none;stroke:#000000;stroke-miterlimit:1;" x1="104.544" y1="40.156" x2="104.215" y2="41.472"/>
	<line style="fill:none;stroke:#000000;stroke-miterlimit:1;" x1="104.215" y1="41.472" x2="105.203" y2="45.422"/>
	<line style="fill:none;stroke:#000000;stroke-miterlimit:1;" x1="105.203" y1="45.422" x2="105.532" y2="48.384"/>
	<line style="fill:none;stroke:#000000;stroke-miterlimit:1;" x1="105.532" y1="48.384" x2="105.532" y2="52.663"/>
	<line style="fill:none;stroke:#000000;stroke-miterlimit:1;" x1="105.532" y1="52.663" x2="105.532" y2="53.979"/>
	<line style="fill:none;stroke:#000000;stroke-miterlimit:1;" x1="105.532" y1="53.979" x2="103.228" y2="57.271"/>
	<line style="fill:none;stroke:#000000;stroke-miterlimit:1;" x1="103.228" y1="57.271" x2="100.924" y2="58.258"/>
	<line style="fill:none;stroke:#000000;stroke-miterlimit:1;" x1="100.924" y1="58.258" x2="114.748" y2="124.087"/>
	<line style="fill:none;stroke:#000000;stroke-miterlimit:1;" x1="259.735" y1="37.563" x2="182.058" y2="37.563"/>
	<line style="fill:none;stroke:#000000;stroke-miterlimit:1;" x1="182.058" y1="37.563" x2="183.045" y2="30.981"/>
	<line style="fill:none;stroke:#000000;stroke-miterlimit:1;" x1="183.045" y1="30.981" x2="184.032" y2="26.702"/>
	<line style="fill:none;stroke:#000000;stroke-miterlimit:1;" x1="184.032" y1="26.702" x2="185.678" y2="22.423"/>
	<line style="fill:none;stroke:#000000;stroke-miterlimit:1;" x1="185.678" y1="22.423" x2="187.982" y2="19.132"/>
	<line style="fill:none;stroke:#000000;stroke-miterlimit:1;" x1="187.982" y1="19.132" x2="189.957" y2="16.169"/>
	<line style="fill:none;stroke:#000000;stroke-miterlimit:1;" x1="189.957" y1="16.169" x2="192.59" y2="12.549"/>
	<line style="fill:none;stroke:#000000;stroke-miterlimit:1;" x1="192.59" y1="12.549" x2="195.552" y2="9.916"/>
	<line style="fill:none;stroke:#000000;stroke-miterlimit:1;" x1="195.552" y1="9.916" x2="199.173" y2="7.282"/>
	<line style="fill:none;stroke:#000000;stroke-miterlimit:1;" x1="199.173" y1="7.282" x2="202.135" y2="5.308"/>
	<line style="fill:none;stroke:#000000;stroke-miterlimit:1;" x1="202.135" y1="5.308" x2="206.414" y2="3.333"/>
	<line style="fill:none;stroke:#000000;stroke-miterlimit:1;" x1="206.414" y1="3.333" x2="210.692" y2="2.016"/>
	<line style="fill:none;stroke:#000000;stroke-miterlimit:1;" x1="210.692" y1="2.016" x2="213.655" y2="1.358"/>
	<line style="fill:none;stroke:#000000;stroke-miterlimit:1;" x1="213.655" y1="1.358" x2="218.921" y2="0.7"/>
	<line style="fill:none;stroke:#000000;stroke-miterlimit:1;" x1="218.921" y1="0.7" x2="222.871" y2="0.7"/>
	<line style="fill:none;stroke:#000000;stroke-miterlimit:1;" x1="222.871" y1="0.7" x2="226.491" y2="1.358"/>
	<line style="fill:none;stroke:#000000;stroke-miterlimit:1;" x1="226.491" y1="1.358" x2="230.441" y2="2.016"/>
	<line style="fill:none;stroke:#000000;stroke-miterlimit:1;" x1="230.441" y1="2.016" x2="234.721" y2="3.003"/>
	<line style="fill:none;stroke:#000000;stroke-miterlimit:1;" x1="234.721" y1="3.003" x2="237.683" y2="3.991"/>
	<line style="fill:none;stroke:#000000;stroke-miterlimit:1;" x1="237.683" y1="3.991" x2="241.632" y2="6.624"/>
	<line style="fill:none;stroke:#000000;stroke-miterlimit:1;" x1="241.632" y1="6.624" x2="244.924" y2="8.928"/>
	<line style="fill:none;stroke:#000000;stroke-miterlimit:1;" x1="244.924" y1="8.928" x2="247.886" y2="11.232"/>
	<line style="fill:none;stroke:#000000;stroke-miterlimit:1;" x1="247.886" y1="11.232" x2="250.52" y2="14.523"/>
	<line style="fill:none;stroke:#000000;stroke-miterlimit:1;" x1="250.52" y1="14.523" x2="253.152" y2="18.144"/>
	<line style="fill:none;stroke:#000000;stroke-miterlimit:1;" x1="253.152" y1="18.144" x2="255.456" y2="21.765"/>
	<line style="fill:none;stroke:#000000;stroke-miterlimit:1;" x1="255.456" y1="21.765" x2="257.102" y2="25.056"/>
	<line style="fill:none;stroke:#000000;stroke-miterlimit:1;" x1="257.102" y1="25.056" x2="258.419" y2="29.993"/>
	<line style="fill:none;stroke:#000000;stroke-miterlimit:1;" x1="258.419" y1="29.993" x2="259.406" y2="33.614"/>
	<line style="fill:none;stroke:#000000;stroke-miterlimit:1;" x1="259.406" y1="33.614" x2="259.735" y2="37.563"/>
	<line style="fill:none;stroke:#000000;stroke-miterlimit:1;" x1="218.798" y1="111.867" x2="220.443" y2="111.867"/>
	<line style="fill:none;stroke:#000000;stroke-miterlimit:1;" x1="220.443" y1="111.867" x2="223.077" y2="110.88"/>
	<line style="fill:none;stroke:#000000;stroke-miterlimit:1;" x1="223.077" y1="110.88" x2="224.723" y2="109.234"/>
	<line style="fill:none;stroke:#000000;stroke-miterlimit:1;" x1="224.723" y1="109.234" x2="225.71" y2="107.26"/>
	<line style="fill:none;stroke:#000000;stroke-miterlimit:1;" x1="225.71" y1="107.26" x2="226.368" y2="104.627"/>
	<line style="fill:none;stroke:#000000;stroke-miterlimit:1;" x1="226.368" y1="104.627" x2="225.381" y2="102.322"/>
	<line style="fill:none;stroke:#000000;stroke-miterlimit:1;" x1="225.381" y1="102.322" x2="224.394" y2="100.019"/>
	<line style="fill:none;stroke:#000000;stroke-miterlimit:1;" x1="224.394" y1="100.019" x2="222.09" y2="98.702"/>
	<line style="fill:none;stroke:#000000;stroke-miterlimit:1;" x1="222.09" y1="98.702" x2="219.785" y2="98.044"/>
	<line style="fill:none;stroke:#000000;stroke-miterlimit:1;" x1="219.785" y1="98.044" x2="216.494" y2="98.373"/>
	<line style="fill:none;stroke:#000000;stroke-miterlimit:1;" x1="216.494" y1="98.373" x2="214.52" y2="99.031"/>
	<line style="fill:none;stroke:#000000;stroke-miterlimit:1;" x1="214.52" y1="99.031" x2="212.873" y2="101.006"/>
	<line style="fill:none;stroke:#000000;stroke-miterlimit:1;" x1="212.873" y1="101.006" x2="211.886" y2="104.627"/>
	<line style="fill:none;stroke:#000000;stroke-miterlimit:1;" x1="211.886" y1="104.627" x2="212.215" y2="107.918"/>
	<line style="fill:none;stroke:#000000;stroke-miterlimit:1;" x1="212.215" y1="107.918" x2="213.86" y2="109.893"/>
	<line style="fill:none;stroke:#000000;stroke-miterlimit:1;" x1="213.86" y1="109.893" x2="215.507" y2="111.538"/>
	<line style="fill:none;stroke:#000000;stroke-miterlimit:1;" x1="215.507" y1="111.538" x2="217.152" y2="111.867"/>
	<line style="fill:none;stroke:#000000;stroke-miterlimit:1;" x1="217.152" y1="111.867" x2="218.469" y2="111.867"/>
	<line style="fill:none;stroke:#000000;stroke-miterlimit:1;" x1="257.966" y1="90.474" x2="257.308" y2="89.157"/>
	<line style="fill:none;stroke:#000000;stroke-miterlimit:1;" x1="257.308" y1="89.157" x2="255.991" y2="86.853"/>
	<line style="fill:none;stroke:#000000;stroke-miterlimit:1;" x1="255.991" y1="86.853" x2="255.333" y2="85.536"/>
	<line style="fill:none;stroke:#000000;stroke-miterlimit:1;" x1="255.333" y1="85.536" x2="254.017" y2="83.562"/>
	<line style="fill:none;stroke:#000000;stroke-miterlimit:1;" x1="254.017" y1="83.562" x2="253.028" y2="81.916"/>
	<line style="fill:none;stroke:#000000;stroke-miterlimit:1;" x1="253.028" y1="81.916" x2="251.054" y2="79.94"/>
	<line style="fill:none;stroke:#000000;stroke-miterlimit:1;" x1="251.054" y1="79.94" x2="250.396" y2="78.624"/>
	<line style="fill:none;stroke:#000000;stroke-miterlimit:1;" x1="250.396" y1="78.624" x2="248.421" y2="76.979"/>
	<line style="fill:none;stroke:#000000;stroke-miterlimit:1;" x1="248.421" y1="76.979" x2="246.775" y2="75.662"/>
	<line style="fill:none;stroke:#000000;stroke-miterlimit:1;" x1="246.775" y1="75.662" x2="244.8" y2="74.016"/>
	<line style="fill:none;stroke:#000000;stroke-miterlimit:1;" x1="244.8" y1="74.016" x2="243.483" y2="73.029"/>
	<line style="fill:none;stroke:#000000;stroke-miterlimit:1;" x1="243.483" y1="73.029" x2="241.509" y2="71.383"/>
	<line style="fill:none;stroke:#000000;stroke-miterlimit:1;" x1="241.509" y1="71.383" x2="239.863" y2="70.396"/>
	<line style="fill:none;stroke:#000000;stroke-miterlimit:1;" x1="239.863" y1="70.396" x2="237.559" y2="69.408"/>
	<line style="fill:none;stroke:#000000;stroke-miterlimit:1;" x1="237.559" y1="69.408" x2="236.242" y2="68.421"/>
	<line style="fill:none;stroke:#000000;stroke-miterlimit:1;" x1="236.242" y1="68.421" x2="233.938" y2="67.763"/>
	<line style="fill:none;stroke:#000000;stroke-miterlimit:1;" x1="233.938" y1="67.763" x2="231.964" y2="67.104"/>
	<line style="fill:none;stroke:#000000;stroke-miterlimit:1;" x1="231.964" y1="67.104" x2="229.33" y2="66.446"/>
	<line style="fill:none;stroke:#000000;stroke-miterlimit:1;" x1="229.33" y1="66.446" x2="228.014" y2="65.788"/>
	<line style="fill:none;stroke:#000000;stroke-miterlimit:1;" x1="228.014" y1="65.788" x2="225.381" y2="65.458"/>
	<line style="fill:none;stroke:#000000;stroke-miterlimit:1;" x1="225.381" y1="65.458" x2="223.406" y2="65.129"/>
	<line style="fill:none;stroke:#000000;stroke-miterlimit:1;" x1="223.406" y1="65.129" x2="221.102" y2="65.129"/>
	<line style="fill:none;stroke:#000000;stroke-miterlimit:1;" x1="221.102" y1="65.129" x2="219.127" y2="65.129"/>
	<line style="fill:none;stroke:#000000;stroke-miterlimit:1;" x1="219.127" y1="65.129" x2="217.152" y2="65.458"/>
	<line style="fill:none;stroke:#000000;stroke-miterlimit:1;" x1="217.152" y1="65.458" x2="215.507" y2="65.788"/>
	<line style="fill:none;stroke:#000000;stroke-miterlimit:1;" x1="215.507" y1="65.788" x2="213.531" y2="66.117"/>
	<line style="fill:none;stroke:#000000;stroke-miterlimit:1;" x1="213.531" y1="66.117" x2="211.886" y2="66.446"/>
	<line style="fill:none;stroke:#000000;stroke-miterlimit:1;" x1="211.886" y1="66.446" x2="209.911" y2="66.775"/>
	<line style="fill:none;stroke:#000000;stroke-miterlimit:1;" x1="209.911" y1="66.775" x2="208.266" y2="67.434"/>
	<line style="fill:none;stroke:#000000;stroke-miterlimit:1;" x1="208.266" y1="67.434" x2="205.303" y2="68.092"/>
	<line style="fill:none;stroke:#000000;stroke-miterlimit:1;" x1="205.303" y1="68.092" x2="203.657" y2="69.079"/>
	<line style="fill:none;stroke:#000000;stroke-miterlimit:1;" x1="203.657" y1="69.079" x2="201.354" y2="69.737"/>
	<line style="fill:none;stroke:#000000;stroke-miterlimit:1;" x1="201.354" y1="69.737" x2="199.708" y2="70.725"/>
	<line style="fill:none;stroke:#000000;stroke-miterlimit:1;" x1="199.708" y1="70.725" x2="197.732" y2="72.042"/>
	<line style="fill:none;stroke:#000000;stroke-miterlimit:1;" x1="197.732" y1="72.042" x2="196.087" y2="73.358"/>
	<line style="fill:none;stroke:#000000;stroke-miterlimit:1;" x1="196.087" y1="73.358" x2="194.441" y2="74.345"/>
	<line style="fill:none;stroke:#000000;stroke-miterlimit:1;" x1="194.441" y1="74.345" x2="192.796" y2="75.662"/>
	<line style="fill:none;stroke:#000000;stroke-miterlimit:1;" x1="192.796" y1="75.662" x2="190.82" y2="77.637"/>
	<line style="fill:none;stroke:#000000;stroke-miterlimit:1;" x1="190.82" y1="77.637" x2="189.175" y2="78.953"/>
	<line style="fill:none;stroke:#000000;stroke-miterlimit:1;" x1="189.175" y1="78.953" x2="188.188" y2="80.599"/>
	<line style="fill:none;stroke:#000000;stroke-miterlimit:1;" x1="188.188" y1="80.599" x2="187.2" y2="81.916"/>
	<line style="fill:none;stroke:#000000;stroke-miterlimit:1;" x1="187.2" y1="81.916" x2="185.555" y2="84.22"/>
	<line style="fill:none;stroke:#000000;stroke-miterlimit:1;" x1="185.555" y1="84.22" x2="184.896" y2="85.536"/>
	<line style="fill:none;stroke:#000000;stroke-miterlimit:1;" x1="184.896" y1="85.536" x2="183.25" y2="87.511"/>
	<line style="fill:none;stroke:#000000;stroke-miterlimit:1;" x1="183.25" y1="87.511" x2="182.263" y2="89.486"/>
	<line style="fill:none;stroke:#000000;stroke-miterlimit:1;" x1="182.263" y1="89.486" x2="181.604" y2="91.461"/>
	<line style="fill:none;stroke:#000000;stroke-miterlimit:1;" x1="181.604" y1="91.461" x2="181.275" y2="93.106"/>
	<line style="fill:none;stroke:#000000;stroke-miterlimit:1;" x1="181.275" y1="93.106" x2="180.288" y2="95.41"/>
	<line style="fill:none;stroke:#000000;stroke-miterlimit:1;" x1="180.288" y1="95.41" x2="179.63" y2="97.386"/>
	<line style="fill:none;stroke:#000000;stroke-miterlimit:1;" x1="179.63" y1="97.386" x2="179.301" y2="100.019"/>
	<line style="fill:none;stroke:#000000;stroke-miterlimit:1;" x1="179.301" y1="100.019" x2="179.301" y2="101.993"/>
	<line style="fill:none;stroke:#000000;stroke-miterlimit:1;" x1="179.301" y1="101.993" x2="178.972" y2="105.285"/>
	<line style="fill:none;stroke:#000000;stroke-miterlimit:1;" x1="178.972" y1="105.285" x2="178.972" y2="107.26"/>
	<line style="fill:none;stroke:#000000;stroke-miterlimit:1;" x1="178.972" y1="107.26" x2="178.972" y2="110.551"/>
	<line style="fill:none;stroke:#000000;stroke-miterlimit:1;" x1="178.972" y1="110.551" x2="179.301" y2="112.526"/>
	<line style="fill:none;stroke:#000000;stroke-miterlimit:1;" x1="179.301" y1="112.526" x2="179.959" y2="114.83"/>
	<line style="fill:none;stroke:#000000;stroke-miterlimit:1;" x1="179.959" y1="114.83" x2="180.288" y2="116.805"/>
	<line style="fill:none;stroke:#000000;stroke-miterlimit:1;" x1="180.288" y1="116.805" x2="180.946" y2="119.108"/>
	<line style="fill:none;stroke:#000000;stroke-miterlimit:1;" x1="180.946" y1="119.108" x2="181.604" y2="120.755"/>
	<line style="fill:none;stroke:#000000;stroke-miterlimit:1;" x1="181.604" y1="120.755" x2="182.921" y2="123.388"/>
	<line style="fill:none;stroke:#000000;stroke-miterlimit:1;" x1="182.921" y1="123.388" x2="183.58" y2="125.362"/>
	<line style="fill:none;stroke:#000000;stroke-miterlimit:1;" x1="183.58" y1="125.362" x2="185.226" y2="127.337"/>
	<line style="fill:none;stroke:#000000;stroke-miterlimit:1;" x1="185.226" y1="127.337" x2="185.884" y2="128.654"/>
	<line style="fill:none;stroke:#000000;stroke-miterlimit:1;" x1="185.884" y1="128.654" x2="187.2" y2="130.629"/>
	<line style="fill:none;stroke:#000000;stroke-miterlimit:1;" x1="187.2" y1="130.629" x2="188.517" y2="131.945"/>
	<line style="fill:none;stroke:#000000;stroke-miterlimit:1;" x1="188.517" y1="131.945" x2="190.162" y2="133.92"/>
	<line style="fill:none;stroke:#000000;stroke-miterlimit:1;" x1="190.162" y1="133.92" x2="191.479" y2="135.236"/>
	<line style="fill:none;stroke:#000000;stroke-miterlimit:1;" x1="191.479" y1="135.236" x2="193.125" y2="136.883"/>
	<line style="fill:none;stroke:#000000;stroke-miterlimit:1;" x1="193.125" y1="136.883" x2="195.1" y2="138.199"/>
	<line style="fill:none;stroke:#000000;stroke-miterlimit:1;" x1="195.1" y1="138.199" x2="197.403" y2="139.845"/>
	<line style="fill:none;stroke:#000000;stroke-miterlimit:1;" x1="197.403" y1="139.845" x2="198.391" y2="140.503"/>
	<line style="fill:none;stroke:#000000;stroke-miterlimit:1;" x1="198.391" y1="140.503" x2="200.037" y2="141.819"/>
	<line style="fill:none;stroke:#000000;stroke-miterlimit:1;" x1="200.037" y1="141.819" x2="202.012" y2="142.478"/>
	<line style="fill:none;stroke:#000000;stroke-miterlimit:1;" x1="202.012" y1="142.478" x2="204.645" y2="143.466"/>
	<line style="fill:none;stroke:#000000;stroke-miterlimit:1;" x1="204.645" y1="143.466" x2="206.619" y2="144.124"/>
	<line style="fill:none;stroke:#000000;stroke-miterlimit:1;" x1="206.619" y1="144.124" x2="208.924" y2="145.111"/>
	<line style="fill:none;stroke:#000000;stroke-miterlimit:1;" x1="208.924" y1="145.111" x2="210.24" y2="145.44"/>
	<line style="fill:none;stroke:#000000;stroke-miterlimit:1;" x1="210.24" y1="145.44" x2="212.544" y2="146.099"/>
	<line style="fill:none;stroke:#000000;stroke-miterlimit:1;" x1="212.544" y1="146.099" x2="214.52" y2="146.099"/>
	<line style="fill:none;stroke:#000000;stroke-miterlimit:1;" x1="214.52" y1="146.099" x2="217.152" y2="146.428"/>
	<line style="fill:none;stroke:#000000;stroke-miterlimit:1;" x1="217.152" y1="146.428" x2="218.469" y2="146.428"/>
	<line style="fill:none;stroke:#000000;stroke-miterlimit:1;" x1="218.469" y1="146.428" x2="221.431" y2="146.757"/>
	<line style="fill:none;stroke:#000000;stroke-miterlimit:1;" x1="221.431" y1="146.757" x2="223.406" y2="146.428"/>
	<line style="fill:none;stroke:#000000;stroke-miterlimit:1;" x1="223.406" y1="146.428" x2="226.368" y2="146.099"/>
	<line style="fill:none;stroke:#000000;stroke-miterlimit:1;" x1="226.368" y1="146.099" x2="227.685" y2="145.77"/>
	<line style="fill:none;stroke:#000000;stroke-miterlimit:1;" x1="227.685" y1="145.77" x2="230.647" y2="145.44"/>
	<line style="fill:none;stroke:#000000;stroke-miterlimit:1;" x1="230.647" y1="145.44" x2="232.293" y2="144.782"/>
	<line style="fill:none;stroke:#000000;stroke-miterlimit:1;" x1="232.293" y1="144.782" x2="234.926" y2="144.124"/>
	<line style="fill:none;stroke:#000000;stroke-miterlimit:1;" x1="234.926" y1="144.124" x2="236.571" y2="143.466"/>
	<line style="fill:none;stroke:#000000;stroke-miterlimit:1;" x1="236.571" y1="143.466" x2="238.218" y2="142.148"/>
	<line style="fill:none;stroke:#000000;stroke-miterlimit:1;" x1="238.218" y1="142.148" x2="240.192" y2="141.49"/>
	<line style="fill:none;stroke:#000000;stroke-miterlimit:1;" x1="240.192" y1="141.49" x2="242.167" y2="140.174"/>
	<line style="fill:none;stroke:#000000;stroke-miterlimit:1;" x1="242.167" y1="140.174" x2="243.812" y2="138.857"/>
	<line style="fill:none;stroke:#000000;stroke-miterlimit:1;" x1="243.812" y1="138.857" x2="245.459" y2="137.87"/>
	<line style="fill:none;stroke:#000000;stroke-miterlimit:1;" x1="245.459" y1="137.87" x2="247.104" y2="136.554"/>
	<line style="fill:none;stroke:#000000;stroke-miterlimit:1;" x1="247.104" y1="136.554" x2="248.75" y2="134.907"/>
	<line style="fill:none;stroke:#000000;stroke-miterlimit:1;" x1="248.75" y1="134.907" x2="250.066" y2="133.262"/>
	<line style="fill:none;stroke:#000000;stroke-miterlimit:1;" x1="250.066" y1="133.262" x2="251.712" y2="131.945"/>
	<line style="fill:none;stroke:#000000;stroke-miterlimit:1;" x1="251.712" y1="131.945" x2="252.699" y2="130.3"/>
	<line style="fill:none;stroke:#000000;stroke-miterlimit:1;" x1="252.699" y1="130.3" x2="254.346" y2="127.666"/>
	<line style="fill:none;stroke:#000000;stroke-miterlimit:1;" x1="254.346" y1="127.666" x2="255.333" y2="126.679"/>
	<line style="fill:none;stroke:#000000;stroke-miterlimit:1;" x1="255.333" y1="126.679" x2="256.649" y2="124.375"/>
	<line style="fill:none;stroke:#000000;stroke-miterlimit:1;" x1="256.649" y1="124.375" x2="257.308" y2="122.729"/>
	<line style="fill:none;stroke:#000000;stroke-miterlimit:1;" x1="257.308" y1="122.729" x2="258.295" y2="120.755"/>
	<line style="fill:none;stroke:#000000;stroke-miterlimit:1;" x1="258.295" y1="120.755" x2="258.953" y2="118.779"/>
	<line style="fill:none;stroke:#000000;stroke-miterlimit:1;" x1="258.953" y1="118.779" x2="259.611" y2="116.476"/>
	<line style="fill:none;stroke:#000000;stroke-miterlimit:1;" x1="259.611" y1="116.476" x2="260.27" y2="114.501"/>
	<line style="fill:none;stroke:#000000;stroke-miterlimit:1;" x1="260.27" y1="114.501" x2="260.599" y2="111.867"/>
	<line style="fill:none;stroke:#000000;stroke-miterlimit:1;" x1="260.599" y1="111.867" x2="260.928" y2="110.222"/>
	<line style="fill:none;stroke:#000000;stroke-miterlimit:1;" x1="260.928" y1="110.222" x2="261.258" y2="107.918"/>
	<line style="fill:none;stroke:#000000;stroke-miterlimit:1;" x1="261.258" y1="107.918" x2="261.258" y2="105.614"/>
	<line style="fill:none;stroke:#000000;stroke-miterlimit:1;" x1="261.258" y1="105.614" x2="261.258" y2="103.31"/>
	<line style="fill:none;stroke:#000000;stroke-miterlimit:1;" x1="261.258" y1="103.31" x2="260.928" y2="101.006"/>
	<line style="fill:none;stroke:#000000;stroke-miterlimit:1;" x1="260.928" y1="101.006" x2="260.599" y2="99.031"/>
	<line style="fill:none;stroke:#000000;stroke-miterlimit:1;" x1="260.599" y1="99.031" x2="259.94" y2="96.728"/>
	<line style="fill:none;stroke:#000000;stroke-miterlimit:1;" x1="259.94" y1="96.728" x2="259.282" y2="94.752"/>
	<line style="fill:none;stroke:#000000;stroke-miterlimit:1;" x1="259.282" y1="94.752" x2="258.624" y2="92.777"/>
	<line style="fill:none;stroke:#000000;stroke-miterlimit:1;" x1="258.624" y1="92.777" x2="257.966" y2="90.803"/>
</g>
</svg>
