<?xml version="1.0" encoding="iso-8859-1"?>
<!-- Generator: Adobe Illustrator 16.0.1, SVG Export Plug-In . SVG Version: 6.00 Build 0)  -->
<!DOCTYPE svg PUBLIC "-//W3C//DTD SVG 1.1//EN" "http://www.w3.org/Graphics/SVG/1.1/DTD/svg11.dtd">
<svg version="1.1" id="Ebene_1" xmlns="http://www.w3.org/2000/svg" xmlns:xlink="http://www.w3.org/1999/xlink" x="0px" y="0px"
	 width="158.523px" height="149.102px" viewBox="0 0 158.523 149.102" style="enable-background:new 0 0 158.523 149.102;"
	 xml:space="preserve">
<g>
	<line style="fill:none;stroke:#000000;stroke-miterlimit:1;" x1="24.697" y1="59.314" x2="58.852" y2="26.473"/>
	<line style="fill:none;stroke:#000000;stroke-miterlimit:1;" x1="12.349" y1="54.584" x2="54.385" y2="14.387"/>
	<line style="fill:none;stroke:#000000;stroke-miterlimit:1;" x1="4.204" y1="45.915" x2="46.241" y2="5.717"/>
	<line style="fill:none;stroke:#000000;stroke-miterlimit:1;" x1="0" y1="33.566" x2="33.63" y2="1.513"/>
	<line style="fill:none;stroke:#000000;stroke-miterlimit:1;" x1="41.774" y1="3.352" x2="38.884" y2="2.564"/>
	<line style="fill:none;stroke:#000000;stroke-miterlimit:1;" x1="38.884" y1="2.564" x2="35.994" y2="1.513"/>
	<line style="fill:none;stroke:#000000;stroke-miterlimit:1;" x1="35.994" y1="1.513" x2="32.841" y2="0.988"/>
	<line style="fill:none;stroke:#000000;stroke-miterlimit:1;" x1="32.841" y1="0.988" x2="29.688" y2="0.988"/>
	<line style="fill:none;stroke:#000000;stroke-miterlimit:1;" x1="29.688" y1="0.988" x2="26.273" y2="1.25"/>
	<line style="fill:none;stroke:#000000;stroke-miterlimit:1;" x1="26.273" y1="1.25" x2="23.383" y2="1.513"/>
	<line style="fill:none;stroke:#000000;stroke-miterlimit:1;" x1="23.383" y1="1.513" x2="20.23" y2="2.564"/>
	<line style="fill:none;stroke:#000000;stroke-miterlimit:1;" x1="20.23" y1="2.564" x2="17.34" y2="3.615"/>
	<line style="fill:none;stroke:#000000;stroke-miterlimit:1;" x1="17.34" y1="3.615" x2="14.45" y2="4.929"/>
	<line style="fill:none;stroke:#000000;stroke-miterlimit:1;" x1="14.45" y1="4.929" x2="11.823" y2="6.768"/>
	<line style="fill:none;stroke:#000000;stroke-miterlimit:1;" x1="11.823" y1="6.768" x2="9.721" y2="8.607"/>
	<line style="fill:none;stroke:#000000;stroke-miterlimit:1;" x1="9.721" y1="8.607" x2="7.619" y2="10.708"/>
	<line style="fill:none;stroke:#000000;stroke-miterlimit:1;" x1="7.619" y1="10.708" x2="6.043" y2="12.548"/>
	<line style="fill:none;stroke:#000000;stroke-miterlimit:1;" x1="6.043" y1="12.548" x2="4.467" y2="14.912"/>
	<line style="fill:none;stroke:#000000;stroke-miterlimit:1;" x1="4.467" y1="14.912" x2="2.627" y2="18.328"/>
	<line style="fill:none;stroke:#000000;stroke-miterlimit:1;" x1="2.627" y1="18.328" x2="1.839" y2="20.955"/>
	<line style="fill:none;stroke:#000000;stroke-miterlimit:1;" x1="1.839" y1="20.955" x2="1.051" y2="23.845"/>
	<line style="fill:none;stroke:#000000;stroke-miterlimit:1;" x1="1.051" y1="23.845" x2="0.525" y2="26.735"/>
	<line style="fill:none;stroke:#000000;stroke-miterlimit:1;" x1="0.525" y1="26.735" x2="0" y2="30.151"/>
	<line style="fill:none;stroke:#000000;stroke-miterlimit:1;" x1="0" y1="30.151" x2="0" y2="33.041"/>
	<line style="fill:none;stroke:#000000;stroke-miterlimit:1;" x1="0" y1="33.041" x2="0.525" y2="36.456"/>
	<line style="fill:none;stroke:#000000;stroke-miterlimit:1;" x1="0.525" y1="36.456" x2="1.314" y2="39.346"/>
	<line style="fill:none;stroke:#000000;stroke-miterlimit:1;" x1="1.314" y1="39.346" x2="2.102" y2="41.974"/>
	<line style="fill:none;stroke:#000000;stroke-miterlimit:1;" x1="2.102" y1="41.974" x2="3.416" y2="44.864"/>
	<line style="fill:none;stroke:#000000;stroke-miterlimit:1;" x1="3.416" y1="44.864" x2="4.204" y2="46.44"/>
	<line style="fill:none;stroke:#000000;stroke-miterlimit:1;" x1="4.204" y1="46.44" x2="5.255" y2="47.754"/>
	<line style="fill:none;stroke:#000000;stroke-miterlimit:1;" x1="5.255" y1="47.754" x2="7.882" y2="50.644"/>
	<line style="fill:none;stroke:#000000;stroke-miterlimit:1;" x1="7.882" y1="50.644" x2="10.509" y2="53.271"/>
	<line style="fill:none;stroke:#000000;stroke-miterlimit:1;" x1="10.509" y1="53.271" x2="12.874" y2="55.11"/>
	<line style="fill:none;stroke:#000000;stroke-miterlimit:1;" x1="12.874" y1="55.11" x2="15.764" y2="56.687"/>
	<line style="fill:none;stroke:#000000;stroke-miterlimit:1;" x1="15.764" y1="56.687" x2="18.917" y2="58.263"/>
	<line style="fill:none;stroke:#000000;stroke-miterlimit:1;" x1="18.917" y1="58.263" x2="22.069" y2="59.051"/>
	<line style="fill:none;stroke:#000000;stroke-miterlimit:1;" x1="22.069" y1="59.051" x2="24.697" y2="59.839"/>
	<line style="fill:none;stroke:#000000;stroke-miterlimit:1;" x1="24.697" y1="59.839" x2="27.85" y2="59.839"/>
	<line style="fill:none;stroke:#000000;stroke-miterlimit:1;" x1="27.85" y1="59.839" x2="31.002" y2="60.102"/>
	<line style="fill:none;stroke:#000000;stroke-miterlimit:1;" x1="31.002" y1="60.102" x2="34.681" y2="59.577"/>
	<line style="fill:none;stroke:#000000;stroke-miterlimit:1;" x1="34.681" y1="59.577" x2="37.308" y2="59.051"/>
	<line style="fill:none;stroke:#000000;stroke-miterlimit:1;" x1="37.308" y1="59.051" x2="40.46" y2="57.737"/>
	<line style="fill:none;stroke:#000000;stroke-miterlimit:1;" x1="40.46" y1="57.737" x2="43.613" y2="56.161"/>
	<line style="fill:none;stroke:#000000;stroke-miterlimit:1;" x1="43.613" y1="56.161" x2="45.715" y2="55.11"/>
	<line style="fill:none;stroke:#000000;stroke-miterlimit:1;" x1="45.715" y1="55.11" x2="48.08" y2="53.008"/>
	<line style="fill:none;stroke:#000000;stroke-miterlimit:1;" x1="48.08" y1="53.008" x2="50.444" y2="50.906"/>
	<line style="fill:none;stroke:#000000;stroke-miterlimit:1;" x1="50.444" y1="50.906" x2="52.809" y2="48.542"/>
	<line style="fill:none;stroke:#000000;stroke-miterlimit:1;" x1="52.809" y1="48.542" x2="54.648" y2="45.652"/>
	<line style="fill:none;stroke:#000000;stroke-miterlimit:1;" x1="54.648" y1="45.652" x2="56.487" y2="43.024"/>
	<line style="fill:none;stroke:#000000;stroke-miterlimit:1;" x1="56.487" y1="43.024" x2="57.801" y2="40.397"/>
	<line style="fill:none;stroke:#000000;stroke-miterlimit:1;" x1="57.801" y1="40.397" x2="58.589" y2="37.245"/>
	<line style="fill:none;stroke:#000000;stroke-miterlimit:1;" x1="58.589" y1="37.245" x2="58.852" y2="34.354"/>
	<line style="fill:none;stroke:#000000;stroke-miterlimit:1;" x1="58.852" y1="34.354" x2="59.377" y2="30.939"/>
	<line style="fill:none;stroke:#000000;stroke-miterlimit:1;" x1="59.377" y1="30.939" x2="59.114" y2="28.049"/>
	<line style="fill:none;stroke:#000000;stroke-miterlimit:1;" x1="59.114" y1="28.049" x2="58.852" y2="24.633"/>
	<line style="fill:none;stroke:#000000;stroke-miterlimit:1;" x1="58.852" y1="24.633" x2="58.063" y2="21.743"/>
	<line style="fill:none;stroke:#000000;stroke-miterlimit:1;" x1="58.063" y1="21.743" x2="57.013" y2="19.116"/>
	<line style="fill:none;stroke:#000000;stroke-miterlimit:1;" x1="57.013" y1="19.116" x2="55.699" y2="15.701"/>
	<line style="fill:none;stroke:#000000;stroke-miterlimit:1;" x1="55.699" y1="15.701" x2="53.86" y2="13.073"/>
	<line style="fill:none;stroke:#000000;stroke-miterlimit:1;" x1="53.86" y1="13.073" x2="52.021" y2="10.971"/>
	<line style="fill:none;stroke:#000000;stroke-miterlimit:1;" x1="52.021" y1="10.971" x2="49.919" y2="8.344"/>
	<line style="fill:none;stroke:#000000;stroke-miterlimit:1;" x1="49.919" y1="8.344" x2="47.292" y2="6.505"/>
	<line style="fill:none;stroke:#000000;stroke-miterlimit:1;" x1="47.292" y1="6.505" x2="44.665" y2="4.666"/>
	<line style="fill:none;stroke:#000000;stroke-miterlimit:1;" x1="44.665" y1="4.666" x2="41.774" y2="3.352"/>
	<line style="fill:none;stroke:#000000;stroke-miterlimit:1;" x1="7.39" y1="113.107" x2="16.848" y2="149.102"/>
	<line style="fill:none;stroke:#000000;stroke-miterlimit:1;" x1="16.848" y1="149.102" x2="46.536" y2="149.102"/>
	<line style="fill:none;stroke:#000000;stroke-miterlimit:1;" x1="46.536" y1="149.102" x2="55.732" y2="113.107"/>
	<line style="fill:none;stroke:#000000;stroke-miterlimit:1;" x1="55.732" y1="113.107" x2="7.39" y2="113.107"/>
	<line style="fill:none;stroke:#000000;stroke-miterlimit:1;" x1="37.866" y1="113.107" x2="37.341" y2="108.904"/>
	<line style="fill:none;stroke:#000000;stroke-miterlimit:1;" x1="37.341" y1="108.904" x2="35.764" y2="104.7"/>
	<line style="fill:none;stroke:#000000;stroke-miterlimit:1;" x1="35.764" y1="104.7" x2="32.875" y2="101.285"/>
	<line style="fill:none;stroke:#000000;stroke-miterlimit:1;" x1="32.875" y1="101.285" x2="29.722" y2="98.657"/>
	<line style="fill:none;stroke:#000000;stroke-miterlimit:1;" x1="29.722" y1="98.657" x2="26.043" y2="96.03"/>
	<line style="fill:none;stroke:#000000;stroke-miterlimit:1;" x1="26.043" y1="96.03" x2="23.941" y2="93.403"/>
	<line style="fill:none;stroke:#000000;stroke-miterlimit:1;" x1="23.941" y1="93.403" x2="22.891" y2="89.725"/>
	<line style="fill:none;stroke:#000000;stroke-miterlimit:1;" x1="22.891" y1="89.725" x2="23.679" y2="85.784"/>
	<line style="fill:none;stroke:#000000;stroke-miterlimit:1;" x1="23.679" y1="85.784" x2="23.416" y2="81.843"/>
	<line style="fill:none;stroke:#000000;stroke-miterlimit:1;" x1="23.416" y1="81.843" x2="22.103" y2="78.165"/>
	<line style="fill:none;stroke:#000000;stroke-miterlimit:1;" x1="22.103" y1="78.165" x2="19.738" y2="75.012"/>
	<line style="fill:none;stroke:#000000;stroke-miterlimit:1;" x1="19.738" y1="75.012" x2="16.848" y2="72.647"/>
	<line style="fill:none;stroke:#000000;stroke-miterlimit:1;" x1="16.848" y1="72.647" x2="13.695" y2="70.283"/>
	<line style="fill:none;stroke:#000000;stroke-miterlimit:1;" x1="13.695" y1="70.283" x2="11.068" y2="68.181"/>
	<line style="fill:none;stroke:#000000;stroke-miterlimit:1;" x1="11.068" y1="68.181" x2="9.491" y2="66.342"/>
	<line style="fill:none;stroke:#000000;stroke-miterlimit:1;" x1="9.491" y1="66.342" x2="9.491" y2="67.918"/>
	<line style="fill:none;stroke:#000000;stroke-miterlimit:1;" x1="9.491" y1="67.918" x2="10.542" y2="70.545"/>
	<line style="fill:none;stroke:#000000;stroke-miterlimit:1;" x1="10.542" y1="70.545" x2="12.907" y2="73.436"/>
	<line style="fill:none;stroke:#000000;stroke-miterlimit:1;" x1="12.907" y1="73.436" x2="15.271" y2="76.325"/>
	<line style="fill:none;stroke:#000000;stroke-miterlimit:1;" x1="15.271" y1="76.325" x2="16.848" y2="78.428"/>
	<line style="fill:none;stroke:#000000;stroke-miterlimit:1;" x1="16.848" y1="78.428" x2="17.636" y2="81.317"/>
	<line style="fill:none;stroke:#000000;stroke-miterlimit:1;" x1="17.636" y1="81.317" x2="17.898" y2="83.682"/>
	<line style="fill:none;stroke:#000000;stroke-miterlimit:1;" x1="17.898" y1="83.682" x2="17.373" y2="87.098"/>
	<line style="fill:none;stroke:#000000;stroke-miterlimit:1;" x1="17.373" y1="87.098" x2="16.585" y2="89.725"/>
	<line style="fill:none;stroke:#000000;stroke-miterlimit:1;" x1="16.585" y1="89.725" x2="16.585" y2="93.403"/>
	<line style="fill:none;stroke:#000000;stroke-miterlimit:1;" x1="16.585" y1="93.403" x2="17.636" y2="96.03"/>
	<line style="fill:none;stroke:#000000;stroke-miterlimit:1;" x1="17.636" y1="96.03" x2="20.263" y2="99.709"/>
	<line style="fill:none;stroke:#000000;stroke-miterlimit:1;" x1="20.263" y1="99.709" x2="23.153" y2="102.599"/>
	<line style="fill:none;stroke:#000000;stroke-miterlimit:1;" x1="23.153" y1="102.599" x2="25.781" y2="104.963"/>
	<line style="fill:none;stroke:#000000;stroke-miterlimit:1;" x1="25.781" y1="104.963" x2="27.094" y2="107.328"/>
	<line style="fill:none;stroke:#000000;stroke-miterlimit:1;" x1="27.094" y1="107.328" x2="27.357" y2="109.43"/>
	<line style="fill:none;stroke:#000000;stroke-miterlimit:1;" x1="27.357" y1="109.43" x2="27.357" y2="111.531"/>
	<line style="fill:none;stroke:#000000;stroke-miterlimit:1;" x1="27.357" y1="111.531" x2="26.832" y2="113.107"/>
	<line style="fill:none;stroke:#000000;stroke-miterlimit:1;" x1="109.811" y1="124.087" x2="128.571" y2="124.087"/>
	<line style="fill:none;stroke:#000000;stroke-miterlimit:1;" x1="128.571" y1="124.087" x2="136.142" y2="148.114"/>
	<line style="fill:none;stroke:#000000;stroke-miterlimit:1;" x1="136.142" y1="148.114" x2="102.569" y2="148.114"/>
	<line style="fill:none;stroke:#000000;stroke-miterlimit:1;" x1="102.569" y1="148.114" x2="109.811" y2="124.087"/>
	<line style="fill:none;stroke:#000000;stroke-miterlimit:1;" x1="119.685" y1="124.087" x2="119.685" y2="24.028"/>
	<line style="fill:none;stroke:#000000;stroke-miterlimit:1;" x1="119.685" y1="24.028" x2="121.33" y2="23.698"/>
	<line style="fill:none;stroke:#000000;stroke-miterlimit:1;" x1="121.33" y1="23.698" x2="122.647" y2="23.04"/>
	<line style="fill:none;stroke:#000000;stroke-miterlimit:1;" x1="122.647" y1="23.04" x2="124.622" y2="21.065"/>
	<line style="fill:none;stroke:#000000;stroke-miterlimit:1;" x1="124.622" y1="21.065" x2="125.609" y2="19.419"/>
	<line style="fill:none;stroke:#000000;stroke-miterlimit:1;" x1="125.609" y1="19.419" x2="126.597" y2="16.458"/>
	<line style="fill:none;stroke:#000000;stroke-miterlimit:1;" x1="126.597" y1="16.458" x2="126.926" y2="12.508"/>
	<line style="fill:none;stroke:#000000;stroke-miterlimit:1;" x1="126.926" y1="12.508" x2="127.255" y2="9.875"/>
	<line style="fill:none;stroke:#000000;stroke-miterlimit:1;" x1="127.255" y1="9.875" x2="127.584" y2="7.57"/>
	<line style="fill:none;stroke:#000000;stroke-miterlimit:1;" x1="127.584" y1="7.57" x2="129.229" y2="5.267"/>
	<line style="fill:none;stroke:#000000;stroke-miterlimit:1;" x1="129.229" y1="5.267" x2="130.547" y2="4.608"/>
	<line style="fill:none;stroke:#000000;stroke-miterlimit:1;" x1="130.547" y1="4.608" x2="132.851" y2="4.279"/>
	<line style="fill:none;stroke:#000000;stroke-miterlimit:1;" x1="132.851" y1="4.279" x2="134.825" y2="3.621"/>
	<line style="fill:none;stroke:#000000;stroke-miterlimit:1;" x1="134.825" y1="3.621" x2="134.167" y2="2.633"/>
	<line style="fill:none;stroke:#000000;stroke-miterlimit:1;" x1="134.167" y1="2.633" x2="125.609" y2="0.659"/>
	<line style="fill:none;stroke:#000000;stroke-miterlimit:1;" x1="125.609" y1="0.659" x2="119.355" y2="0"/>
	<line style="fill:none;stroke:#000000;stroke-miterlimit:1;" x1="119.355" y1="0" x2="110.469" y2="0.659"/>
	<line style="fill:none;stroke:#000000;stroke-miterlimit:1;" x1="110.469" y1="0.659" x2="103.228" y2="1.975"/>
	<line style="fill:none;stroke:#000000;stroke-miterlimit:1;" x1="103.228" y1="1.975" x2="103.228" y2="3.621"/>
	<line style="fill:none;stroke:#000000;stroke-miterlimit:1;" x1="103.228" y1="3.621" x2="105.202" y2="3.95"/>
	<line style="fill:none;stroke:#000000;stroke-miterlimit:1;" x1="105.202" y1="3.95" x2="108.494" y2="5.925"/>
	<line style="fill:none;stroke:#000000;stroke-miterlimit:1;" x1="108.494" y1="5.925" x2="109.481" y2="7.241"/>
	<line style="fill:none;stroke:#000000;stroke-miterlimit:1;" x1="109.481" y1="7.241" x2="110.14" y2="8.558"/>
	<line style="fill:none;stroke:#000000;stroke-miterlimit:1;" x1="110.14" y1="8.558" x2="110.798" y2="12.837"/>
	<line style="fill:none;stroke:#000000;stroke-miterlimit:1;" x1="110.798" y1="12.837" x2="110.798" y2="15.47"/>
	<line style="fill:none;stroke:#000000;stroke-miterlimit:1;" x1="110.798" y1="15.47" x2="111.785" y2="19.09"/>
	<line style="fill:none;stroke:#000000;stroke-miterlimit:1;" x1="111.785" y1="19.09" x2="112.443" y2="21.065"/>
	<line style="fill:none;stroke:#000000;stroke-miterlimit:1;" x1="112.443" y1="21.065" x2="115.406" y2="23.369"/>
	<line style="fill:none;stroke:#000000;stroke-miterlimit:1;" x1="115.406" y1="23.369" x2="117.71" y2="24.028"/>
	<line style="fill:none;stroke:#000000;stroke-miterlimit:1;" x1="117.71" y1="24.028" x2="117.71" y2="124.087"/>
	<line style="fill:none;stroke:#000000;stroke-miterlimit:1;" x1="124.293" y1="124.087" x2="139.434" y2="58.588"/>
	<line style="fill:none;stroke:#000000;stroke-miterlimit:1;" x1="139.434" y1="58.588" x2="141.079" y2="58.588"/>
	<line style="fill:none;stroke:#000000;stroke-miterlimit:1;" x1="141.079" y1="58.588" x2="142.396" y2="58.588"/>
	<line style="fill:none;stroke:#000000;stroke-miterlimit:1;" x1="142.396" y1="58.588" x2="144.699" y2="56.942"/>
	<line style="fill:none;stroke:#000000;stroke-miterlimit:1;" x1="144.699" y1="56.942" x2="146.346" y2="55.625"/>
	<line style="fill:none;stroke:#000000;stroke-miterlimit:1;" x1="146.346" y1="55.625" x2="147.662" y2="52.992"/>
	<line style="fill:none;stroke:#000000;stroke-miterlimit:1;" x1="147.662" y1="52.992" x2="148.979" y2="49.042"/>
	<line style="fill:none;stroke:#000000;stroke-miterlimit:1;" x1="148.979" y1="49.042" x2="149.308" y2="46.409"/>
	<line style="fill:none;stroke:#000000;stroke-miterlimit:1;" x1="149.308" y1="46.409" x2="150.295" y2="44.105"/>
	<line style="fill:none;stroke:#000000;stroke-miterlimit:1;" x1="150.295" y1="44.105" x2="152.928" y2="42.459"/>
	<line style="fill:none;stroke:#000000;stroke-miterlimit:1;" x1="152.928" y1="42.459" x2="154.245" y2="42.13"/>
	<line style="fill:none;stroke:#000000;stroke-miterlimit:1;" x1="154.245" y1="42.13" x2="156.549" y2="42.13"/>
	<line style="fill:none;stroke:#000000;stroke-miterlimit:1;" x1="156.549" y1="42.13" x2="158.523" y2="41.801"/>
	<line style="fill:none;stroke:#000000;stroke-miterlimit:1;" x1="158.523" y1="41.801" x2="158.194" y2="40.814"/>
	<line style="fill:none;stroke:#000000;stroke-miterlimit:1;" x1="158.194" y1="40.814" x2="147.333" y2="36.206"/>
	<line style="fill:none;stroke:#000000;stroke-miterlimit:1;" x1="147.333" y1="36.206" x2="142.725" y2="34.56"/>
	<line style="fill:none;stroke:#000000;stroke-miterlimit:1;" x1="142.725" y1="34.56" x2="134.825" y2="33.902"/>
	<line style="fill:none;stroke:#000000;stroke-miterlimit:1;" x1="134.825" y1="33.902" x2="127.913" y2="33.573"/>
	<line style="fill:none;stroke:#000000;stroke-miterlimit:1;" x1="127.913" y1="33.573" x2="127.584" y2="35.219"/>
	<line style="fill:none;stroke:#000000;stroke-miterlimit:1;" x1="127.584" y1="35.219" x2="129.229" y2="35.877"/>
	<line style="fill:none;stroke:#000000;stroke-miterlimit:1;" x1="129.229" y1="35.877" x2="132.192" y2="38.51"/>
	<line style="fill:none;stroke:#000000;stroke-miterlimit:1;" x1="132.192" y1="38.51" x2="133.18" y2="40.156"/>
	<line style="fill:none;stroke:#000000;stroke-miterlimit:1;" x1="133.18" y1="40.156" x2="133.509" y2="41.472"/>
	<line style="fill:none;stroke:#000000;stroke-miterlimit:1;" x1="133.509" y1="41.472" x2="132.521" y2="45.422"/>
	<line style="fill:none;stroke:#000000;stroke-miterlimit:1;" x1="132.521" y1="45.422" x2="132.192" y2="48.384"/>
	<line style="fill:none;stroke:#000000;stroke-miterlimit:1;" x1="132.192" y1="48.384" x2="132.192" y2="52.005"/>
	<line style="fill:none;stroke:#000000;stroke-miterlimit:1;" x1="132.192" y1="52.005" x2="132.521" y2="53.979"/>
	<line style="fill:none;stroke:#000000;stroke-miterlimit:1;" x1="132.521" y1="53.979" x2="134.825" y2="57.271"/>
	<line style="fill:none;stroke:#000000;stroke-miterlimit:1;" x1="134.825" y1="57.271" x2="137.129" y2="58.258"/>
	<line style="fill:none;stroke:#000000;stroke-miterlimit:1;" x1="137.129" y1="58.258" x2="122.647" y2="124.087"/>
	<line style="fill:none;stroke:#000000;stroke-miterlimit:1;" x1="113.102" y1="124.087" x2="98.29" y2="58.588"/>
	<line style="fill:none;stroke:#000000;stroke-miterlimit:1;" x1="98.29" y1="58.588" x2="96.645" y2="58.588"/>
	<line style="fill:none;stroke:#000000;stroke-miterlimit:1;" x1="96.645" y1="58.588" x2="95.328" y2="58.588"/>
	<line style="fill:none;stroke:#000000;stroke-miterlimit:1;" x1="95.328" y1="58.588" x2="93.024" y2="56.942"/>
	<line style="fill:none;stroke:#000000;stroke-miterlimit:1;" x1="93.024" y1="56.942" x2="91.379" y2="55.625"/>
	<line style="fill:none;stroke:#000000;stroke-miterlimit:1;" x1="91.379" y1="55.625" x2="90.062" y2="52.992"/>
	<line style="fill:none;stroke:#000000;stroke-miterlimit:1;" x1="90.062" y1="52.992" x2="88.745" y2="49.042"/>
	<line style="fill:none;stroke:#000000;stroke-miterlimit:1;" x1="88.745" y1="49.042" x2="88.745" y2="46.409"/>
	<line style="fill:none;stroke:#000000;stroke-miterlimit:1;" x1="88.745" y1="46.409" x2="87.429" y2="44.105"/>
	<line style="fill:none;stroke:#000000;stroke-miterlimit:1;" x1="87.429" y1="44.105" x2="84.796" y2="42.13"/>
	<line style="fill:none;stroke:#000000;stroke-miterlimit:1;" x1="84.796" y1="42.13" x2="83.479" y2="42.13"/>
	<line style="fill:none;stroke:#000000;stroke-miterlimit:1;" x1="83.479" y1="42.13" x2="81.175" y2="42.13"/>
	<line style="fill:none;stroke:#000000;stroke-miterlimit:1;" x1="81.175" y1="42.13" x2="79.2" y2="41.801"/>
	<line style="fill:none;stroke:#000000;stroke-miterlimit:1;" x1="79.2" y1="41.801" x2="79.529" y2="40.814"/>
	<line style="fill:none;stroke:#000000;stroke-miterlimit:1;" x1="79.529" y1="40.814" x2="87.429" y2="37.193"/>
	<line style="fill:none;stroke:#000000;stroke-miterlimit:1;" x1="87.429" y1="37.193" x2="93.024" y2="35.219"/>
	<line style="fill:none;stroke:#000000;stroke-miterlimit:1;" x1="93.024" y1="35.219" x2="102.898" y2="33.902"/>
	<line style="fill:none;stroke:#000000;stroke-miterlimit:1;" x1="102.898" y1="33.902" x2="109.811" y2="33.573"/>
	<line style="fill:none;stroke:#000000;stroke-miterlimit:1;" x1="109.811" y1="33.573" x2="110.14" y2="35.219"/>
	<line style="fill:none;stroke:#000000;stroke-miterlimit:1;" x1="110.14" y1="35.219" x2="108.494" y2="35.877"/>
	<line style="fill:none;stroke:#000000;stroke-miterlimit:1;" x1="108.494" y1="35.877" x2="105.531" y2="38.51"/>
	<line style="fill:none;stroke:#000000;stroke-miterlimit:1;" x1="105.531" y1="38.51" x2="104.544" y2="40.156"/>
	<line style="fill:none;stroke:#000000;stroke-miterlimit:1;" x1="104.544" y1="40.156" x2="104.215" y2="41.472"/>
	<line style="fill:none;stroke:#000000;stroke-miterlimit:1;" x1="104.215" y1="41.472" x2="105.202" y2="45.422"/>
	<line style="fill:none;stroke:#000000;stroke-miterlimit:1;" x1="105.202" y1="45.422" x2="105.531" y2="48.384"/>
	<line style="fill:none;stroke:#000000;stroke-miterlimit:1;" x1="105.531" y1="48.384" x2="105.531" y2="52.663"/>
	<line style="fill:none;stroke:#000000;stroke-miterlimit:1;" x1="105.531" y1="52.663" x2="105.531" y2="53.979"/>
	<line style="fill:none;stroke:#000000;stroke-miterlimit:1;" x1="105.531" y1="53.979" x2="103.228" y2="57.271"/>
	<line style="fill:none;stroke:#000000;stroke-miterlimit:1;" x1="103.228" y1="57.271" x2="100.924" y2="58.258"/>
	<line style="fill:none;stroke:#000000;stroke-miterlimit:1;" x1="100.924" y1="58.258" x2="114.748" y2="124.087"/>
</g>
</svg>
