<?xml version="1.0" encoding="iso-8859-1"?>
<!-- Generator: Adobe Illustrator 16.0.1, SVG Export Plug-In . SVG Version: 6.00 Build 0)  -->
<!DOCTYPE svg PUBLIC "-//W3C//DTD SVG 1.1//EN" "http://www.w3.org/Graphics/SVG/1.1/DTD/svg11.dtd">
<svg version="1.1" id="Ebene_1" xmlns="http://www.w3.org/2000/svg" xmlns:xlink="http://www.w3.org/1999/xlink" x="0px" y="0px"
	 width="363.621px" height="149.473px" viewBox="0 0 363.621 149.473" style="enable-background:new 0 0 363.621 149.473;"
	 xml:space="preserve">
<g>
	<line style="fill:none;stroke:#000000;stroke-miterlimit:1;" x1="30.939" y1="111.415" x2="73.728" y2="70.272"/>
	<line style="fill:none;stroke:#000000;stroke-miterlimit:1;" x1="15.47" y1="105.49" x2="68.133" y2="55.132"/>
	<line style="fill:none;stroke:#000000;stroke-miterlimit:1;" x1="5.266" y1="94.629" x2="57.929" y2="44.27"/>
	<line style="fill:none;stroke:#000000;stroke-miterlimit:1;" x1="0" y1="79.159" x2="42.13" y2="39.003"/>
	<line style="fill:none;stroke:#000000;stroke-miterlimit:1;" x1="52.334" y1="41.308" x2="48.713" y2="40.32"/>
	<line style="fill:none;stroke:#000000;stroke-miterlimit:1;" x1="48.713" y1="40.32" x2="45.093" y2="39.003"/>
	<line style="fill:none;stroke:#000000;stroke-miterlimit:1;" x1="45.093" y1="39.003" x2="41.143" y2="38.345"/>
	<line style="fill:none;stroke:#000000;stroke-miterlimit:1;" x1="41.143" y1="38.345" x2="37.193" y2="38.345"/>
	<line style="fill:none;stroke:#000000;stroke-miterlimit:1;" x1="37.193" y1="38.345" x2="32.914" y2="38.674"/>
	<line style="fill:none;stroke:#000000;stroke-miterlimit:1;" x1="32.914" y1="38.674" x2="29.294" y2="39.003"/>
	<line style="fill:none;stroke:#000000;stroke-miterlimit:1;" x1="29.294" y1="39.003" x2="25.344" y2="40.32"/>
	<line style="fill:none;stroke:#000000;stroke-miterlimit:1;" x1="25.344" y1="40.32" x2="21.724" y2="41.637"/>
	<line style="fill:none;stroke:#000000;stroke-miterlimit:1;" x1="21.724" y1="41.637" x2="18.103" y2="43.282"/>
	<line style="fill:none;stroke:#000000;stroke-miterlimit:1;" x1="18.103" y1="43.282" x2="14.812" y2="45.586"/>
	<line style="fill:none;stroke:#000000;stroke-miterlimit:1;" x1="14.812" y1="45.586" x2="12.178" y2="47.891"/>
	<line style="fill:none;stroke:#000000;stroke-miterlimit:1;" x1="12.178" y1="47.891" x2="9.545" y2="50.523"/>
	<line style="fill:none;stroke:#000000;stroke-miterlimit:1;" x1="9.545" y1="50.523" x2="7.57" y2="52.828"/>
	<line style="fill:none;stroke:#000000;stroke-miterlimit:1;" x1="7.57" y1="52.828" x2="5.595" y2="55.79"/>
	<line style="fill:none;stroke:#000000;stroke-miterlimit:1;" x1="5.595" y1="55.79" x2="3.292" y2="60.069"/>
	<line style="fill:none;stroke:#000000;stroke-miterlimit:1;" x1="3.292" y1="60.069" x2="2.304" y2="63.36"/>
	<line style="fill:none;stroke:#000000;stroke-miterlimit:1;" x1="2.304" y1="63.36" x2="1.316" y2="66.981"/>
	<line style="fill:none;stroke:#000000;stroke-miterlimit:1;" x1="1.316" y1="66.981" x2="0.658" y2="70.602"/>
	<line style="fill:none;stroke:#000000;stroke-miterlimit:1;" x1="0.658" y1="70.602" x2="0" y2="74.88"/>
	<line style="fill:none;stroke:#000000;stroke-miterlimit:1;" x1="0" y1="74.88" x2="0" y2="78.501"/>
	<line style="fill:none;stroke:#000000;stroke-miterlimit:1;" x1="0" y1="78.501" x2="0.658" y2="82.779"/>
	<line style="fill:none;stroke:#000000;stroke-miterlimit:1;" x1="0.658" y1="82.779" x2="1.646" y2="86.4"/>
	<line style="fill:none;stroke:#000000;stroke-miterlimit:1;" x1="1.646" y1="86.4" x2="2.633" y2="89.691"/>
	<line style="fill:none;stroke:#000000;stroke-miterlimit:1;" x1="2.633" y1="89.691" x2="4.279" y2="93.312"/>
	<line style="fill:none;stroke:#000000;stroke-miterlimit:1;" x1="4.279" y1="93.312" x2="5.266" y2="95.287"/>
	<line style="fill:none;stroke:#000000;stroke-miterlimit:1;" x1="5.266" y1="95.287" x2="6.583" y2="96.933"/>
	<line style="fill:none;stroke:#000000;stroke-miterlimit:1;" x1="6.583" y1="96.933" x2="9.875" y2="100.554"/>
	<line style="fill:none;stroke:#000000;stroke-miterlimit:1;" x1="9.875" y1="100.554" x2="13.166" y2="103.845"/>
	<line style="fill:none;stroke:#000000;stroke-miterlimit:1;" x1="13.166" y1="103.845" x2="16.128" y2="106.148"/>
	<line style="fill:none;stroke:#000000;stroke-miterlimit:1;" x1="16.128" y1="106.148" x2="19.749" y2="108.124"/>
	<line style="fill:none;stroke:#000000;stroke-miterlimit:1;" x1="19.749" y1="108.124" x2="23.698" y2="110.099"/>
	<line style="fill:none;stroke:#000000;stroke-miterlimit:1;" x1="23.698" y1="110.099" x2="27.648" y2="111.086"/>
	<line style="fill:none;stroke:#000000;stroke-miterlimit:1;" x1="27.648" y1="111.086" x2="30.939" y2="112.073"/>
	<line style="fill:none;stroke:#000000;stroke-miterlimit:1;" x1="30.939" y1="112.073" x2="34.889" y2="112.073"/>
	<line style="fill:none;stroke:#000000;stroke-miterlimit:1;" x1="34.889" y1="112.073" x2="38.839" y2="112.402"/>
	<line style="fill:none;stroke:#000000;stroke-miterlimit:1;" x1="38.839" y1="112.402" x2="43.447" y2="111.744"/>
	<line style="fill:none;stroke:#000000;stroke-miterlimit:1;" x1="43.447" y1="111.744" x2="46.738" y2="111.086"/>
	<line style="fill:none;stroke:#000000;stroke-miterlimit:1;" x1="46.738" y1="111.086" x2="50.688" y2="109.44"/>
	<line style="fill:none;stroke:#000000;stroke-miterlimit:1;" x1="50.688" y1="109.44" x2="54.638" y2="107.466"/>
	<line style="fill:none;stroke:#000000;stroke-miterlimit:1;" x1="54.638" y1="107.466" x2="57.271" y2="106.148"/>
	<line style="fill:none;stroke:#000000;stroke-miterlimit:1;" x1="57.271" y1="106.148" x2="60.233" y2="103.516"/>
	<line style="fill:none;stroke:#000000;stroke-miterlimit:1;" x1="60.233" y1="103.516" x2="63.195" y2="100.883"/>
	<line style="fill:none;stroke:#000000;stroke-miterlimit:1;" x1="63.195" y1="100.883" x2="66.158" y2="97.92"/>
	<line style="fill:none;stroke:#000000;stroke-miterlimit:1;" x1="66.158" y1="97.92" x2="68.462" y2="94.3"/>
	<line style="fill:none;stroke:#000000;stroke-miterlimit:1;" x1="68.462" y1="94.3" x2="70.766" y2="91.008"/>
	<line style="fill:none;stroke:#000000;stroke-miterlimit:1;" x1="70.766" y1="91.008" x2="72.412" y2="87.717"/>
	<line style="fill:none;stroke:#000000;stroke-miterlimit:1;" x1="72.412" y1="87.717" x2="73.399" y2="83.767"/>
	<line style="fill:none;stroke:#000000;stroke-miterlimit:1;" x1="73.399" y1="83.767" x2="73.728" y2="80.146"/>
	<line style="fill:none;stroke:#000000;stroke-miterlimit:1;" x1="73.728" y1="80.146" x2="74.386" y2="75.867"/>
	<line style="fill:none;stroke:#000000;stroke-miterlimit:1;" x1="74.386" y1="75.867" x2="74.057" y2="72.247"/>
	<line style="fill:none;stroke:#000000;stroke-miterlimit:1;" x1="74.057" y1="72.247" x2="73.728" y2="67.968"/>
	<line style="fill:none;stroke:#000000;stroke-miterlimit:1;" x1="73.728" y1="67.968" x2="72.741" y2="64.348"/>
	<line style="fill:none;stroke:#000000;stroke-miterlimit:1;" x1="72.741" y1="64.348" x2="71.424" y2="61.056"/>
	<line style="fill:none;stroke:#000000;stroke-miterlimit:1;" x1="71.424" y1="61.056" x2="69.778" y2="56.777"/>
	<line style="fill:none;stroke:#000000;stroke-miterlimit:1;" x1="69.778" y1="56.777" x2="67.474" y2="53.486"/>
	<line style="fill:none;stroke:#000000;stroke-miterlimit:1;" x1="67.474" y1="53.486" x2="65.17" y2="50.853"/>
	<line style="fill:none;stroke:#000000;stroke-miterlimit:1;" x1="65.17" y1="50.853" x2="62.537" y2="47.562"/>
	<line style="fill:none;stroke:#000000;stroke-miterlimit:1;" x1="62.537" y1="47.562" x2="59.246" y2="45.257"/>
	<line style="fill:none;stroke:#000000;stroke-miterlimit:1;" x1="59.246" y1="45.257" x2="55.954" y2="42.953"/>
	<line style="fill:none;stroke:#000000;stroke-miterlimit:1;" x1="55.954" y1="42.953" x2="52.334" y2="41.308"/>
	<line style="fill:none;stroke:#000000;stroke-miterlimit:1;" x1="162.679" y1="1.687" x2="161.033" y2="34.931"/>
	<line style="fill:none;stroke:#000000;stroke-miterlimit:1;" x1="161.033" y1="34.931" x2="160.375" y2="63.237"/>
	<line style="fill:none;stroke:#000000;stroke-miterlimit:1;" x1="160.375" y1="63.237" x2="159.717" y2="84.96"/>
	<line style="fill:none;stroke:#000000;stroke-miterlimit:1;" x1="159.717" y1="84.96" x2="158.071" y2="100.43"/>
	<line style="fill:none;stroke:#000000;stroke-miterlimit:1;" x1="158.071" y1="100.43" x2="156.754" y2="115.241"/>
	<line style="fill:none;stroke:#000000;stroke-miterlimit:1;" x1="156.754" y1="115.241" x2="157.413" y2="131.04"/>
	<line style="fill:none;stroke:#000000;stroke-miterlimit:1;" x1="157.413" y1="131.04" x2="158.4" y2="135.978"/>
	<line style="fill:none;stroke:#000000;stroke-miterlimit:1;" x1="158.4" y1="135.978" x2="159.059" y2="139.927"/>
	<line style="fill:none;stroke:#000000;stroke-miterlimit:1;" x1="159.059" y1="139.927" x2="158.729" y2="143.877"/>
	<line style="fill:none;stroke:#000000;stroke-miterlimit:1;" x1="158.729" y1="143.877" x2="156.754" y2="146.51"/>
	<line style="fill:none;stroke:#000000;stroke-miterlimit:1;" x1="156.754" y1="146.51" x2="153.792" y2="148.484"/>
	<line style="fill:none;stroke:#000000;stroke-miterlimit:1;" x1="153.792" y1="148.484" x2="150.171" y2="149.144"/>
	<line style="fill:none;stroke:#000000;stroke-miterlimit:1;" x1="150.171" y1="149.144" x2="143.589" y2="147.497"/>
	<line style="fill:none;stroke:#000000;stroke-miterlimit:1;" x1="143.589" y1="147.497" x2="140.956" y2="145.522"/>
	<line style="fill:none;stroke:#000000;stroke-miterlimit:1;" x1="140.956" y1="145.522" x2="136.677" y2="144.535"/>
	<line style="fill:none;stroke:#000000;stroke-miterlimit:1;" x1="136.677" y1="144.535" x2="126.802" y2="149.473"/>
	<line style="fill:none;stroke:#000000;stroke-miterlimit:1;" x1="126.802" y1="149.473" x2="85.989" y2="149.144"/>
	<line style="fill:none;stroke:#000000;stroke-miterlimit:1;" x1="85.989" y1="149.144" x2="84.343" y2="143.877"/>
	<line style="fill:none;stroke:#000000;stroke-miterlimit:1;" x1="84.343" y1="143.877" x2="85.66" y2="141.243"/>
	<line style="fill:none;stroke:#000000;stroke-miterlimit:1;" x1="85.66" y1="141.243" x2="89.28" y2="140.585"/>
	<line style="fill:none;stroke:#000000;stroke-miterlimit:1;" x1="89.28" y1="140.585" x2="103.433" y2="137.623"/>
	<line style="fill:none;stroke:#000000;stroke-miterlimit:1;" x1="103.433" y1="137.623" x2="115.282" y2="131.698"/>
	<line style="fill:none;stroke:#000000;stroke-miterlimit:1;" x1="115.282" y1="131.698" x2="123.182" y2="128.736"/>
	<line style="fill:none;stroke:#000000;stroke-miterlimit:1;" x1="123.182" y1="128.736" x2="130.094" y2="127.091"/>
	<line style="fill:none;stroke:#000000;stroke-miterlimit:1;" x1="130.094" y1="127.091" x2="135.031" y2="122.812"/>
	<line style="fill:none;stroke:#000000;stroke-miterlimit:1;" x1="135.031" y1="122.812" x2="136.677" y2="118.533"/>
	<line style="fill:none;stroke:#000000;stroke-miterlimit:1;" x1="136.677" y1="118.533" x2="137.006" y2="113.925"/>
	<line style="fill:none;stroke:#000000;stroke-miterlimit:1;" x1="137.006" y1="113.925" x2="136.348" y2="107.013"/>
	<line style="fill:none;stroke:#000000;stroke-miterlimit:1;" x1="136.348" y1="107.013" x2="136.019" y2="97.797"/>
	<line style="fill:none;stroke:#000000;stroke-miterlimit:1;" x1="136.019" y1="97.797" x2="135.36" y2="72.782"/>
	<line style="fill:none;stroke:#000000;stroke-miterlimit:1;" x1="135.36" y1="72.782" x2="135.031" y2="47.767"/>
	<line style="fill:none;stroke:#000000;stroke-miterlimit:1;" x1="135.031" y1="47.767" x2="132.398" y2="1.358"/>
	<line style="fill:none;stroke:#000000;stroke-miterlimit:1;" x1="132.398" y1="1.358" x2="162.679" y2="1.358"/>
	<line style="fill:none;stroke:#000000;stroke-miterlimit:1;" x1="204.438" y1="125.444" x2="223.2" y2="125.444"/>
	<line style="fill:none;stroke:#000000;stroke-miterlimit:1;" x1="223.2" y1="125.444" x2="230.771" y2="149.473"/>
	<line style="fill:none;stroke:#000000;stroke-miterlimit:1;" x1="230.771" y1="149.473" x2="197.198" y2="149.473"/>
	<line style="fill:none;stroke:#000000;stroke-miterlimit:1;" x1="197.198" y1="149.473" x2="204.438" y2="125.444"/>
	<line style="fill:none;stroke:#000000;stroke-miterlimit:1;" x1="214.313" y1="125.444" x2="214.313" y2="25.385"/>
	<line style="fill:none;stroke:#000000;stroke-miterlimit:1;" x1="214.313" y1="25.385" x2="215.959" y2="25.056"/>
	<line style="fill:none;stroke:#000000;stroke-miterlimit:1;" x1="215.959" y1="25.056" x2="217.275" y2="24.398"/>
	<line style="fill:none;stroke:#000000;stroke-miterlimit:1;" x1="217.275" y1="24.398" x2="219.25" y2="22.423"/>
	<line style="fill:none;stroke:#000000;stroke-miterlimit:1;" x1="219.25" y1="22.423" x2="220.237" y2="20.777"/>
	<line style="fill:none;stroke:#000000;stroke-miterlimit:1;" x1="220.237" y1="20.777" x2="221.226" y2="17.815"/>
	<line style="fill:none;stroke:#000000;stroke-miterlimit:1;" x1="221.226" y1="17.815" x2="221.555" y2="13.865"/>
	<line style="fill:none;stroke:#000000;stroke-miterlimit:1;" x1="221.555" y1="13.865" x2="221.884" y2="11.232"/>
	<line style="fill:none;stroke:#000000;stroke-miterlimit:1;" x1="221.884" y1="11.232" x2="222.213" y2="8.928"/>
	<line style="fill:none;stroke:#000000;stroke-miterlimit:1;" x1="222.213" y1="8.928" x2="223.858" y2="6.624"/>
	<line style="fill:none;stroke:#000000;stroke-miterlimit:1;" x1="223.858" y1="6.624" x2="225.175" y2="5.966"/>
	<line style="fill:none;stroke:#000000;stroke-miterlimit:1;" x1="225.175" y1="5.966" x2="227.479" y2="5.637"/>
	<line style="fill:none;stroke:#000000;stroke-miterlimit:1;" x1="227.479" y1="5.637" x2="229.454" y2="4.979"/>
	<line style="fill:none;stroke:#000000;stroke-miterlimit:1;" x1="229.454" y1="4.979" x2="228.796" y2="3.991"/>
	<line style="fill:none;stroke:#000000;stroke-miterlimit:1;" x1="228.796" y1="3.991" x2="220.237" y2="2.016"/>
	<line style="fill:none;stroke:#000000;stroke-miterlimit:1;" x1="220.237" y1="2.016" x2="213.984" y2="1.358"/>
	<line style="fill:none;stroke:#000000;stroke-miterlimit:1;" x1="213.984" y1="1.358" x2="205.097" y2="2.016"/>
	<line style="fill:none;stroke:#000000;stroke-miterlimit:1;" x1="205.097" y1="2.016" x2="197.856" y2="3.333"/>
	<line style="fill:none;stroke:#000000;stroke-miterlimit:1;" x1="197.856" y1="3.333" x2="197.856" y2="4.979"/>
	<line style="fill:none;stroke:#000000;stroke-miterlimit:1;" x1="197.856" y1="4.979" x2="199.831" y2="5.308"/>
	<line style="fill:none;stroke:#000000;stroke-miterlimit:1;" x1="199.831" y1="5.308" x2="203.122" y2="7.282"/>
	<line style="fill:none;stroke:#000000;stroke-miterlimit:1;" x1="203.122" y1="7.282" x2="204.109" y2="8.599"/>
	<line style="fill:none;stroke:#000000;stroke-miterlimit:1;" x1="204.109" y1="8.599" x2="204.769" y2="9.916"/>
	<line style="fill:none;stroke:#000000;stroke-miterlimit:1;" x1="204.769" y1="9.916" x2="205.427" y2="14.194"/>
	<line style="fill:none;stroke:#000000;stroke-miterlimit:1;" x1="205.427" y1="14.194" x2="205.427" y2="16.828"/>
	<line style="fill:none;stroke:#000000;stroke-miterlimit:1;" x1="205.427" y1="16.828" x2="206.414" y2="20.448"/>
	<line style="fill:none;stroke:#000000;stroke-miterlimit:1;" x1="206.414" y1="20.448" x2="207.072" y2="22.423"/>
	<line style="fill:none;stroke:#000000;stroke-miterlimit:1;" x1="207.072" y1="22.423" x2="210.034" y2="24.727"/>
	<line style="fill:none;stroke:#000000;stroke-miterlimit:1;" x1="210.034" y1="24.727" x2="212.338" y2="25.385"/>
	<line style="fill:none;stroke:#000000;stroke-miterlimit:1;" x1="212.338" y1="25.385" x2="212.338" y2="125.444"/>
	<line style="fill:none;stroke:#000000;stroke-miterlimit:1;" x1="218.921" y1="125.444" x2="234.062" y2="59.945"/>
	<line style="fill:none;stroke:#000000;stroke-miterlimit:1;" x1="234.062" y1="59.945" x2="235.707" y2="59.945"/>
	<line style="fill:none;stroke:#000000;stroke-miterlimit:1;" x1="235.707" y1="59.945" x2="237.024" y2="59.945"/>
	<line style="fill:none;stroke:#000000;stroke-miterlimit:1;" x1="237.024" y1="59.945" x2="239.328" y2="58.3"/>
	<line style="fill:none;stroke:#000000;stroke-miterlimit:1;" x1="239.328" y1="58.3" x2="240.974" y2="56.983"/>
	<line style="fill:none;stroke:#000000;stroke-miterlimit:1;" x1="240.974" y1="56.983" x2="242.29" y2="54.35"/>
	<line style="fill:none;stroke:#000000;stroke-miterlimit:1;" x1="242.29" y1="54.35" x2="243.606" y2="50.4"/>
	<line style="fill:none;stroke:#000000;stroke-miterlimit:1;" x1="243.606" y1="50.4" x2="243.937" y2="47.767"/>
	<line style="fill:none;stroke:#000000;stroke-miterlimit:1;" x1="243.937" y1="47.767" x2="244.924" y2="45.463"/>
	<line style="fill:none;stroke:#000000;stroke-miterlimit:1;" x1="244.924" y1="45.463" x2="247.557" y2="43.817"/>
	<line style="fill:none;stroke:#000000;stroke-miterlimit:1;" x1="247.557" y1="43.817" x2="248.873" y2="43.488"/>
	<line style="fill:none;stroke:#000000;stroke-miterlimit:1;" x1="248.873" y1="43.488" x2="251.177" y2="43.488"/>
	<line style="fill:none;stroke:#000000;stroke-miterlimit:1;" x1="251.177" y1="43.488" x2="253.152" y2="43.159"/>
	<line style="fill:none;stroke:#000000;stroke-miterlimit:1;" x1="253.152" y1="43.159" x2="252.823" y2="42.172"/>
	<line style="fill:none;stroke:#000000;stroke-miterlimit:1;" x1="252.823" y1="42.172" x2="241.961" y2="37.563"/>
	<line style="fill:none;stroke:#000000;stroke-miterlimit:1;" x1="241.961" y1="37.563" x2="237.354" y2="35.918"/>
	<line style="fill:none;stroke:#000000;stroke-miterlimit:1;" x1="237.354" y1="35.918" x2="229.454" y2="35.26"/>
	<line style="fill:none;stroke:#000000;stroke-miterlimit:1;" x1="229.454" y1="35.26" x2="222.542" y2="34.931"/>
	<line style="fill:none;stroke:#000000;stroke-miterlimit:1;" x1="222.542" y1="34.931" x2="222.213" y2="36.576"/>
	<line style="fill:none;stroke:#000000;stroke-miterlimit:1;" x1="222.213" y1="36.576" x2="223.858" y2="37.234"/>
	<line style="fill:none;stroke:#000000;stroke-miterlimit:1;" x1="223.858" y1="37.234" x2="226.82" y2="39.868"/>
	<line style="fill:none;stroke:#000000;stroke-miterlimit:1;" x1="226.82" y1="39.868" x2="227.808" y2="41.513"/>
	<line style="fill:none;stroke:#000000;stroke-miterlimit:1;" x1="227.808" y1="41.513" x2="228.138" y2="42.83"/>
	<line style="fill:none;stroke:#000000;stroke-miterlimit:1;" x1="228.138" y1="42.83" x2="227.149" y2="46.78"/>
	<line style="fill:none;stroke:#000000;stroke-miterlimit:1;" x1="227.149" y1="46.78" x2="226.82" y2="49.742"/>
	<line style="fill:none;stroke:#000000;stroke-miterlimit:1;" x1="226.82" y1="49.742" x2="226.82" y2="53.362"/>
	<line style="fill:none;stroke:#000000;stroke-miterlimit:1;" x1="226.82" y1="53.362" x2="227.149" y2="55.337"/>
	<line style="fill:none;stroke:#000000;stroke-miterlimit:1;" x1="227.149" y1="55.337" x2="229.454" y2="58.629"/>
	<line style="fill:none;stroke:#000000;stroke-miterlimit:1;" x1="229.454" y1="58.629" x2="231.758" y2="59.616"/>
	<line style="fill:none;stroke:#000000;stroke-miterlimit:1;" x1="231.758" y1="59.616" x2="217.275" y2="125.444"/>
	<line style="fill:none;stroke:#000000;stroke-miterlimit:1;" x1="207.73" y1="125.444" x2="192.919" y2="59.945"/>
	<line style="fill:none;stroke:#000000;stroke-miterlimit:1;" x1="192.919" y1="59.945" x2="191.273" y2="59.945"/>
	<line style="fill:none;stroke:#000000;stroke-miterlimit:1;" x1="191.273" y1="59.945" x2="189.957" y2="59.945"/>
	<line style="fill:none;stroke:#000000;stroke-miterlimit:1;" x1="189.957" y1="59.945" x2="187.652" y2="58.3"/>
	<line style="fill:none;stroke:#000000;stroke-miterlimit:1;" x1="187.652" y1="58.3" x2="186.007" y2="56.983"/>
	<line style="fill:none;stroke:#000000;stroke-miterlimit:1;" x1="186.007" y1="56.983" x2="184.69" y2="54.35"/>
	<line style="fill:none;stroke:#000000;stroke-miterlimit:1;" x1="184.69" y1="54.35" x2="183.374" y2="50.4"/>
	<line style="fill:none;stroke:#000000;stroke-miterlimit:1;" x1="183.374" y1="50.4" x2="183.374" y2="47.767"/>
	<line style="fill:none;stroke:#000000;stroke-miterlimit:1;" x1="183.374" y1="47.767" x2="182.058" y2="45.463"/>
	<line style="fill:none;stroke:#000000;stroke-miterlimit:1;" x1="182.058" y1="45.463" x2="179.424" y2="43.488"/>
	<line style="fill:none;stroke:#000000;stroke-miterlimit:1;" x1="179.424" y1="43.488" x2="178.107" y2="43.488"/>
	<line style="fill:none;stroke:#000000;stroke-miterlimit:1;" x1="178.107" y1="43.488" x2="175.804" y2="43.488"/>
	<line style="fill:none;stroke:#000000;stroke-miterlimit:1;" x1="175.804" y1="43.488" x2="173.829" y2="43.159"/>
	<line style="fill:none;stroke:#000000;stroke-miterlimit:1;" x1="173.829" y1="43.159" x2="174.158" y2="42.172"/>
	<line style="fill:none;stroke:#000000;stroke-miterlimit:1;" x1="174.158" y1="42.172" x2="182.058" y2="38.551"/>
	<line style="fill:none;stroke:#000000;stroke-miterlimit:1;" x1="182.058" y1="38.551" x2="187.652" y2="36.576"/>
	<line style="fill:none;stroke:#000000;stroke-miterlimit:1;" x1="187.652" y1="36.576" x2="197.527" y2="35.26"/>
	<line style="fill:none;stroke:#000000;stroke-miterlimit:1;" x1="197.527" y1="35.26" x2="204.438" y2="34.931"/>
	<line style="fill:none;stroke:#000000;stroke-miterlimit:1;" x1="204.438" y1="34.931" x2="204.769" y2="36.576"/>
	<line style="fill:none;stroke:#000000;stroke-miterlimit:1;" x1="204.769" y1="36.576" x2="203.122" y2="37.234"/>
	<line style="fill:none;stroke:#000000;stroke-miterlimit:1;" x1="203.122" y1="37.234" x2="200.16" y2="39.868"/>
	<line style="fill:none;stroke:#000000;stroke-miterlimit:1;" x1="200.16" y1="39.868" x2="199.173" y2="41.513"/>
	<line style="fill:none;stroke:#000000;stroke-miterlimit:1;" x1="199.173" y1="41.513" x2="198.844" y2="42.83"/>
	<line style="fill:none;stroke:#000000;stroke-miterlimit:1;" x1="198.844" y1="42.83" x2="199.831" y2="46.78"/>
	<line style="fill:none;stroke:#000000;stroke-miterlimit:1;" x1="199.831" y1="46.78" x2="200.16" y2="49.742"/>
	<line style="fill:none;stroke:#000000;stroke-miterlimit:1;" x1="200.16" y1="49.742" x2="200.16" y2="54.021"/>
	<line style="fill:none;stroke:#000000;stroke-miterlimit:1;" x1="200.16" y1="54.021" x2="200.16" y2="55.337"/>
	<line style="fill:none;stroke:#000000;stroke-miterlimit:1;" x1="200.16" y1="55.337" x2="197.856" y2="58.629"/>
	<line style="fill:none;stroke:#000000;stroke-miterlimit:1;" x1="197.856" y1="58.629" x2="195.552" y2="59.616"/>
	<line style="fill:none;stroke:#000000;stroke-miterlimit:1;" x1="195.552" y1="59.616" x2="209.376" y2="125.444"/>
	<line style="fill:none;stroke:#000000;stroke-miterlimit:1;" x1="363.621" y1="36.864" x2="285.943" y2="36.864"/>
	<line style="fill:none;stroke:#000000;stroke-miterlimit:1;" x1="285.943" y1="36.864" x2="286.931" y2="30.281"/>
	<line style="fill:none;stroke:#000000;stroke-miterlimit:1;" x1="286.931" y1="30.281" x2="287.918" y2="26.002"/>
	<line style="fill:none;stroke:#000000;stroke-miterlimit:1;" x1="287.918" y1="26.002" x2="289.563" y2="21.724"/>
	<line style="fill:none;stroke:#000000;stroke-miterlimit:1;" x1="289.563" y1="21.724" x2="291.867" y2="18.432"/>
	<line style="fill:none;stroke:#000000;stroke-miterlimit:1;" x1="291.867" y1="18.432" x2="293.843" y2="15.47"/>
	<line style="fill:none;stroke:#000000;stroke-miterlimit:1;" x1="293.843" y1="15.47" x2="296.476" y2="11.85"/>
	<line style="fill:none;stroke:#000000;stroke-miterlimit:1;" x1="296.476" y1="11.85" x2="299.438" y2="9.216"/>
	<line style="fill:none;stroke:#000000;stroke-miterlimit:1;" x1="299.438" y1="9.216" x2="303.059" y2="6.583"/>
	<line style="fill:none;stroke:#000000;stroke-miterlimit:1;" x1="303.059" y1="6.583" x2="306.021" y2="4.608"/>
	<line style="fill:none;stroke:#000000;stroke-miterlimit:1;" x1="306.021" y1="4.608" x2="310.3" y2="2.633"/>
	<line style="fill:none;stroke:#000000;stroke-miterlimit:1;" x1="310.3" y1="2.633" x2="314.578" y2="1.317"/>
	<line style="fill:none;stroke:#000000;stroke-miterlimit:1;" x1="314.578" y1="1.317" x2="317.541" y2="0.659"/>
	<line style="fill:none;stroke:#000000;stroke-miterlimit:1;" x1="317.541" y1="0.659" x2="322.807" y2="0"/>
	<line style="fill:none;stroke:#000000;stroke-miterlimit:1;" x1="322.807" y1="0" x2="326.757" y2="0"/>
	<line style="fill:none;stroke:#000000;stroke-miterlimit:1;" x1="326.757" y1="0" x2="330.377" y2="0.659"/>
	<line style="fill:none;stroke:#000000;stroke-miterlimit:1;" x1="330.377" y1="0.659" x2="334.327" y2="1.317"/>
	<line style="fill:none;stroke:#000000;stroke-miterlimit:1;" x1="334.327" y1="1.317" x2="338.605" y2="2.304"/>
	<line style="fill:none;stroke:#000000;stroke-miterlimit:1;" x1="338.605" y1="2.304" x2="341.568" y2="3.292"/>
	<line style="fill:none;stroke:#000000;stroke-miterlimit:1;" x1="341.568" y1="3.292" x2="345.518" y2="5.925"/>
	<line style="fill:none;stroke:#000000;stroke-miterlimit:1;" x1="345.518" y1="5.925" x2="348.81" y2="8.229"/>
	<line style="fill:none;stroke:#000000;stroke-miterlimit:1;" x1="348.81" y1="8.229" x2="351.771" y2="10.533"/>
	<line style="fill:none;stroke:#000000;stroke-miterlimit:1;" x1="351.771" y1="10.533" x2="354.404" y2="13.824"/>
	<line style="fill:none;stroke:#000000;stroke-miterlimit:1;" x1="354.404" y1="13.824" x2="357.038" y2="17.445"/>
	<line style="fill:none;stroke:#000000;stroke-miterlimit:1;" x1="357.038" y1="17.445" x2="359.342" y2="21.065"/>
	<line style="fill:none;stroke:#000000;stroke-miterlimit:1;" x1="359.342" y1="21.065" x2="360.987" y2="24.357"/>
	<line style="fill:none;stroke:#000000;stroke-miterlimit:1;" x1="360.987" y1="24.357" x2="362.304" y2="29.294"/>
	<line style="fill:none;stroke:#000000;stroke-miterlimit:1;" x1="362.304" y1="29.294" x2="363.291" y2="32.915"/>
	<line style="fill:none;stroke:#000000;stroke-miterlimit:1;" x1="363.291" y1="32.915" x2="363.621" y2="36.864"/>
	<line style="fill:none;stroke:#000000;stroke-miterlimit:1;" x1="304.169" y1="142.52" x2="326.551" y2="122.112"/>
	<line style="fill:none;stroke:#000000;stroke-miterlimit:1;" x1="326.551" y1="122.112" x2="347.616" y2="142.52"/>
	<line style="fill:none;stroke:#000000;stroke-miterlimit:1;" x1="356.174" y1="133.303" x2="336.425" y2="113.226"/>
	<line style="fill:none;stroke:#000000;stroke-miterlimit:1;" x1="336.425" y1="113.226" x2="357.49" y2="93.147"/>
	<line style="fill:none;stroke:#000000;stroke-miterlimit:1;" x1="348.274" y1="82.944" x2="327.209" y2="103.021"/>
	<line style="fill:none;stroke:#000000;stroke-miterlimit:1;" x1="327.209" y1="103.021" x2="306.145" y2="81.299"/>
	<line style="fill:none;stroke:#000000;stroke-miterlimit:1;" x1="296.928" y1="90.186" x2="317.335" y2="111.909"/>
	<line style="fill:none;stroke:#000000;stroke-miterlimit:1;" x1="317.335" y1="111.909" x2="295.611" y2="132.645"/>
	<line style="fill:none;stroke:#000000;stroke-miterlimit:1;" x1="323.26" y1="149.431" x2="332.476" y2="149.102"/>
	<line style="fill:none;stroke:#000000;stroke-miterlimit:1;" x1="332.476" y1="149.102" x2="337.742" y2="147.785"/>
	<line style="fill:none;stroke:#000000;stroke-miterlimit:1;" x1="337.742" y1="147.785" x2="342.35" y2="145.811"/>
	<line style="fill:none;stroke:#000000;stroke-miterlimit:1;" x1="342.35" y1="145.811" x2="347.616" y2="142.19"/>
	<line style="fill:none;stroke:#000000;stroke-miterlimit:1;" x1="347.616" y1="142.19" x2="351.565" y2="138.569"/>
	<line style="fill:none;stroke:#000000;stroke-miterlimit:1;" x1="351.565" y1="138.569" x2="355.516" y2="134.29"/>
	<line style="fill:none;stroke:#000000;stroke-miterlimit:1;" x1="355.516" y1="134.29" x2="358.148" y2="130.012"/>
	<line style="fill:none;stroke:#000000;stroke-miterlimit:1;" x1="358.148" y1="130.012" x2="360.782" y2="125.403"/>
	<line style="fill:none;stroke:#000000;stroke-miterlimit:1;" x1="360.782" y1="125.403" x2="362.099" y2="120.796"/>
	<line style="fill:none;stroke:#000000;stroke-miterlimit:1;" x1="362.099" y1="120.796" x2="362.757" y2="115.529"/>
	<line style="fill:none;stroke:#000000;stroke-miterlimit:1;" x1="362.757" y1="115.529" x2="362.757" y2="110.263"/>
	<line style="fill:none;stroke:#000000;stroke-miterlimit:1;" x1="362.757" y1="110.263" x2="361.111" y2="101.047"/>
	<line style="fill:none;stroke:#000000;stroke-miterlimit:1;" x1="361.111" y1="101.047" x2="359.136" y2="96.11"/>
	<line style="fill:none;stroke:#000000;stroke-miterlimit:1;" x1="359.136" y1="96.11" x2="356.174" y2="91.173"/>
	<line style="fill:none;stroke:#000000;stroke-miterlimit:1;" x1="356.174" y1="91.173" x2="352.883" y2="86.564"/>
	<line style="fill:none;stroke:#000000;stroke-miterlimit:1;" x1="352.883" y1="86.564" x2="347.945" y2="82.286"/>
	<line style="fill:none;stroke:#000000;stroke-miterlimit:1;" x1="347.945" y1="82.286" x2="343.995" y2="79.652"/>
	<line style="fill:none;stroke:#000000;stroke-miterlimit:1;" x1="343.995" y1="79.652" x2="340.046" y2="78.007"/>
	<line style="fill:none;stroke:#000000;stroke-miterlimit:1;" x1="340.046" y1="78.007" x2="336.425" y2="76.69"/>
	<line style="fill:none;stroke:#000000;stroke-miterlimit:1;" x1="336.425" y1="76.69" x2="331.488" y2="75.703"/>
	<line style="fill:none;stroke:#000000;stroke-miterlimit:1;" x1="331.488" y1="75.703" x2="326.551" y2="75.374"/>
	<line style="fill:none;stroke:#000000;stroke-miterlimit:1;" x1="326.551" y1="75.374" x2="319.968" y2="75.374"/>
	<line style="fill:none;stroke:#000000;stroke-miterlimit:1;" x1="319.968" y1="75.374" x2="314.702" y2="76.69"/>
	<line style="fill:none;stroke:#000000;stroke-miterlimit:1;" x1="314.702" y1="76.69" x2="309.765" y2="78.665"/>
	<line style="fill:none;stroke:#000000;stroke-miterlimit:1;" x1="309.765" y1="78.665" x2="305.156" y2="81.299"/>
	<line style="fill:none;stroke:#000000;stroke-miterlimit:1;" x1="305.156" y1="81.299" x2="300.878" y2="84.919"/>
	<line style="fill:none;stroke:#000000;stroke-miterlimit:1;" x1="300.878" y1="84.919" x2="296.928" y2="89.527"/>
	<line style="fill:none;stroke:#000000;stroke-miterlimit:1;" x1="296.928" y1="89.527" x2="293.308" y2="94.135"/>
	<line style="fill:none;stroke:#000000;stroke-miterlimit:1;" x1="293.308" y1="94.135" x2="291.662" y2="97.427"/>
	<line style="fill:none;stroke:#000000;stroke-miterlimit:1;" x1="291.662" y1="97.427" x2="290.345" y2="101.047"/>
	<line style="fill:none;stroke:#000000;stroke-miterlimit:1;" x1="290.345" y1="101.047" x2="289.028" y2="107.301"/>
	<line style="fill:none;stroke:#000000;stroke-miterlimit:1;" x1="289.028" y1="107.301" x2="289.028" y2="113.226"/>
	<line style="fill:none;stroke:#000000;stroke-miterlimit:1;" x1="289.028" y1="113.226" x2="289.687" y2="117.504"/>
	<line style="fill:none;stroke:#000000;stroke-miterlimit:1;" x1="289.687" y1="117.504" x2="290.345" y2="122.112"/>
	<line style="fill:none;stroke:#000000;stroke-miterlimit:1;" x1="290.345" y1="122.112" x2="291.991" y2="126.72"/>
	<line style="fill:none;stroke:#000000;stroke-miterlimit:1;" x1="291.991" y1="126.72" x2="294.295" y2="131.986"/>
	<line style="fill:none;stroke:#000000;stroke-miterlimit:1;" x1="294.295" y1="131.986" x2="298.244" y2="136.924"/>
	<line style="fill:none;stroke:#000000;stroke-miterlimit:1;" x1="298.244" y1="136.924" x2="302.194" y2="140.544"/>
	<line style="fill:none;stroke:#000000;stroke-miterlimit:1;" x1="302.194" y1="140.544" x2="306.803" y2="144.165"/>
	<line style="fill:none;stroke:#000000;stroke-miterlimit:1;" x1="306.803" y1="144.165" x2="311.41" y2="146.469"/>
	<line style="fill:none;stroke:#000000;stroke-miterlimit:1;" x1="311.41" y1="146.469" x2="317.006" y2="148.443"/>
	<line style="fill:none;stroke:#000000;stroke-miterlimit:1;" x1="317.006" y1="148.443" x2="323.26" y2="149.431"/>
</g>
</svg>
