<?xml version="1.0" encoding="iso-8859-1"?>
<!-- Generator: Adobe Illustrator 16.0.1, SVG Export Plug-In . SVG Version: 6.00 Build 0)  -->
<!DOCTYPE svg PUBLIC "-//W3C//DTD SVG 1.1//EN" "http://www.w3.org/Graphics/SVG/1.1/DTD/svg11.dtd">
<svg version="1.1" id="Ebene_1" xmlns="http://www.w3.org/2000/svg" xmlns:xlink="http://www.w3.org/1999/xlink" x="0px" y="0px"
	 width="174.363px" height="148.114px" viewBox="0 0 174.363 148.114" style="enable-background:new 0 0 174.363 148.114;"
	 xml:space="preserve">
<g>
	<line style="fill:none;stroke:#000000;stroke-miterlimit:1;" x1="140.462" y1="116.188" x2="140.462" y2="22.382"/>
	<line style="fill:none;stroke:#000000;stroke-miterlimit:1;" x1="140.462" y1="22.382" x2="142.107" y2="22.053"/>
	<line style="fill:none;stroke:#000000;stroke-miterlimit:1;" x1="142.107" y1="22.053" x2="143.095" y2="21.394"/>
	<line style="fill:none;stroke:#000000;stroke-miterlimit:1;" x1="143.095" y1="21.394" x2="145.069" y2="19.749"/>
	<line style="fill:none;stroke:#000000;stroke-miterlimit:1;" x1="145.069" y1="19.749" x2="146.057" y2="18.103"/>
	<line style="fill:none;stroke:#000000;stroke-miterlimit:1;" x1="146.057" y1="18.103" x2="146.716" y2="15.47"/>
	<line style="fill:none;stroke:#000000;stroke-miterlimit:1;" x1="146.716" y1="15.47" x2="147.374" y2="11.849"/>
	<line style="fill:none;stroke:#000000;stroke-miterlimit:1;" x1="147.374" y1="11.849" x2="147.374" y2="9.216"/>
	<line style="fill:none;stroke:#000000;stroke-miterlimit:1;" x1="147.374" y1="9.216" x2="147.703" y2="7.241"/>
	<line style="fill:none;stroke:#000000;stroke-miterlimit:1;" x1="147.703" y1="7.241" x2="149.349" y2="4.937"/>
	<line style="fill:none;stroke:#000000;stroke-miterlimit:1;" x1="149.349" y1="4.937" x2="150.665" y2="4.279"/>
	<line style="fill:none;stroke:#000000;stroke-miterlimit:1;" x1="150.665" y1="4.279" x2="152.64" y2="3.95"/>
	<line style="fill:none;stroke:#000000;stroke-miterlimit:1;" x1="152.64" y1="3.95" x2="154.615" y2="3.292"/>
	<line style="fill:none;stroke:#000000;stroke-miterlimit:1;" x1="154.615" y1="3.292" x2="153.956" y2="2.304"/>
	<line style="fill:none;stroke:#000000;stroke-miterlimit:1;" x1="153.956" y1="2.304" x2="146.057" y2="0.658"/>
	<line style="fill:none;stroke:#000000;stroke-miterlimit:1;" x1="146.057" y1="0.658" x2="140.133" y2="0"/>
	<line style="fill:none;stroke:#000000;stroke-miterlimit:1;" x1="140.133" y1="0" x2="131.904" y2="0.658"/>
	<line style="fill:none;stroke:#000000;stroke-miterlimit:1;" x1="131.904" y1="0.658" x2="124.992" y2="1.975"/>
	<line style="fill:none;stroke:#000000;stroke-miterlimit:1;" x1="124.992" y1="1.975" x2="124.992" y2="3.292"/>
	<line style="fill:none;stroke:#000000;stroke-miterlimit:1;" x1="124.992" y1="3.292" x2="126.967" y2="3.95"/>
	<line style="fill:none;stroke:#000000;stroke-miterlimit:1;" x1="126.967" y1="3.95" x2="130.258" y2="5.595"/>
	<line style="fill:none;stroke:#000000;stroke-miterlimit:1;" x1="130.258" y1="5.595" x2="130.916" y2="6.912"/>
	<line style="fill:none;stroke:#000000;stroke-miterlimit:1;" x1="130.916" y1="6.912" x2="131.575" y2="7.899"/>
	<line style="fill:none;stroke:#000000;stroke-miterlimit:1;" x1="131.575" y1="7.899" x2="132.233" y2="11.849"/>
	<line style="fill:none;stroke:#000000;stroke-miterlimit:1;" x1="132.233" y1="11.849" x2="132.233" y2="14.482"/>
	<line style="fill:none;stroke:#000000;stroke-miterlimit:1;" x1="132.233" y1="14.482" x2="132.892" y2="17.773"/>
	<line style="fill:none;stroke:#000000;stroke-miterlimit:1;" x1="132.892" y1="17.773" x2="133.879" y2="19.749"/>
	<line style="fill:none;stroke:#000000;stroke-miterlimit:1;" x1="133.879" y1="19.749" x2="136.512" y2="22.053"/>
	<line style="fill:none;stroke:#000000;stroke-miterlimit:1;" x1="136.512" y1="22.053" x2="138.816" y2="22.382"/>
	<line style="fill:none;stroke:#000000;stroke-miterlimit:1;" x1="138.816" y1="22.382" x2="138.816" y2="116.188"/>
	<line style="fill:none;stroke:#000000;stroke-miterlimit:1;" x1="142.437" y1="115.858" x2="156.59" y2="54.309"/>
	<line style="fill:none;stroke:#000000;stroke-miterlimit:1;" x1="156.59" y1="54.309" x2="158.235" y2="54.638"/>
	<line style="fill:none;stroke:#000000;stroke-miterlimit:1;" x1="158.235" y1="54.638" x2="159.552" y2="54.309"/>
	<line style="fill:none;stroke:#000000;stroke-miterlimit:1;" x1="159.552" y1="54.309" x2="161.526" y2="52.992"/>
	<line style="fill:none;stroke:#000000;stroke-miterlimit:1;" x1="161.526" y1="52.992" x2="163.173" y2="51.675"/>
	<line style="fill:none;stroke:#000000;stroke-miterlimit:1;" x1="163.173" y1="51.675" x2="164.16" y2="49.042"/>
	<line style="fill:none;stroke:#000000;stroke-miterlimit:1;" x1="164.16" y1="49.042" x2="165.477" y2="45.751"/>
	<line style="fill:none;stroke:#000000;stroke-miterlimit:1;" x1="165.477" y1="45.751" x2="166.135" y2="43.118"/>
	<line style="fill:none;stroke:#000000;stroke-miterlimit:1;" x1="166.135" y1="43.118" x2="166.793" y2="41.143"/>
	<line style="fill:none;stroke:#000000;stroke-miterlimit:1;" x1="166.793" y1="41.143" x2="169.097" y2="39.168"/>
	<line style="fill:none;stroke:#000000;stroke-miterlimit:1;" x1="169.097" y1="39.168" x2="170.414" y2="38.839"/>
	<line style="fill:none;stroke:#000000;stroke-miterlimit:1;" x1="170.414" y1="38.839" x2="172.389" y2="39.168"/>
	<line style="fill:none;stroke:#000000;stroke-miterlimit:1;" x1="172.389" y1="39.168" x2="174.363" y2="38.839"/>
	<line style="fill:none;stroke:#000000;stroke-miterlimit:1;" x1="174.363" y1="38.839" x2="174.034" y2="37.852"/>
	<line style="fill:none;stroke:#000000;stroke-miterlimit:1;" x1="174.034" y1="37.852" x2="164.16" y2="33.572"/>
	<line style="fill:none;stroke:#000000;stroke-miterlimit:1;" x1="164.16" y1="33.572" x2="159.552" y2="31.927"/>
	<line style="fill:none;stroke:#000000;stroke-miterlimit:1;" x1="159.552" y1="31.927" x2="152.311" y2="31.269"/>
	<line style="fill:none;stroke:#000000;stroke-miterlimit:1;" x1="152.311" y1="31.269" x2="145.728" y2="31.269"/>
	<line style="fill:none;stroke:#000000;stroke-miterlimit:1;" x1="145.728" y1="31.269" x2="145.398" y2="32.585"/>
	<line style="fill:none;stroke:#000000;stroke-miterlimit:1;" x1="145.398" y1="32.585" x2="147.374" y2="33.243"/>
	<line style="fill:none;stroke:#000000;stroke-miterlimit:1;" x1="147.374" y1="33.243" x2="150.007" y2="35.876"/>
	<line style="fill:none;stroke:#000000;stroke-miterlimit:1;" x1="150.007" y1="35.876" x2="150.665" y2="37.193"/>
	<line style="fill:none;stroke:#000000;stroke-miterlimit:1;" x1="150.665" y1="37.193" x2="150.994" y2="38.51"/>
	<line style="fill:none;stroke:#000000;stroke-miterlimit:1;" x1="150.994" y1="38.51" x2="150.336" y2="42.13"/>
	<line style="fill:none;stroke:#000000;stroke-miterlimit:1;" x1="150.336" y1="42.13" x2="150.007" y2="44.763"/>
	<line style="fill:none;stroke:#000000;stroke-miterlimit:1;" x1="150.007" y1="44.763" x2="150.007" y2="48.384"/>
	<line style="fill:none;stroke:#000000;stroke-miterlimit:1;" x1="150.007" y1="48.384" x2="150.336" y2="50.359"/>
	<line style="fill:none;stroke:#000000;stroke-miterlimit:1;" x1="150.336" y1="50.359" x2="152.311" y2="52.992"/>
	<line style="fill:none;stroke:#000000;stroke-miterlimit:1;" x1="152.311" y1="52.992" x2="154.615" y2="53.979"/>
	<line style="fill:none;stroke:#000000;stroke-miterlimit:1;" x1="154.615" y1="53.979" x2="141.12" y2="115.858"/>
	<line style="fill:none;stroke:#000000;stroke-miterlimit:1;" x1="136.512" y1="116.188" x2="123.018" y2="54.967"/>
	<line style="fill:none;stroke:#000000;stroke-miterlimit:1;" x1="123.018" y1="54.967" x2="121.371" y2="54.967"/>
	<line style="fill:none;stroke:#000000;stroke-miterlimit:1;" x1="121.371" y1="54.967" x2="120.055" y2="54.638"/>
	<line style="fill:none;stroke:#000000;stroke-miterlimit:1;" x1="120.055" y1="54.638" x2="117.751" y2="53.321"/>
	<line style="fill:none;stroke:#000000;stroke-miterlimit:1;" x1="117.751" y1="53.321" x2="116.435" y2="52.004"/>
	<line style="fill:none;stroke:#000000;stroke-miterlimit:1;" x1="116.435" y1="52.004" x2="115.117" y2="49.372"/>
	<line style="fill:none;stroke:#000000;stroke-miterlimit:1;" x1="115.117" y1="49.372" x2="113.801" y2="46.08"/>
	<line style="fill:none;stroke:#000000;stroke-miterlimit:1;" x1="113.801" y1="46.08" x2="113.801" y2="43.447"/>
	<line style="fill:none;stroke:#000000;stroke-miterlimit:1;" x1="113.801" y1="43.447" x2="112.813" y2="41.472"/>
	<line style="fill:none;stroke:#000000;stroke-miterlimit:1;" x1="112.813" y1="41.472" x2="110.181" y2="39.497"/>
	<line style="fill:none;stroke:#000000;stroke-miterlimit:1;" x1="110.181" y1="39.497" x2="108.864" y2="39.168"/>
	<line style="fill:none;stroke:#000000;stroke-miterlimit:1;" x1="108.864" y1="39.168" x2="106.889" y2="39.497"/>
	<line style="fill:none;stroke:#000000;stroke-miterlimit:1;" x1="106.889" y1="39.497" x2="104.914" y2="39.168"/>
	<line style="fill:none;stroke:#000000;stroke-miterlimit:1;" x1="104.914" y1="39.168" x2="105.243" y2="38.181"/>
	<line style="fill:none;stroke:#000000;stroke-miterlimit:1;" x1="105.243" y1="38.181" x2="112.484" y2="34.56"/>
	<line style="fill:none;stroke:#000000;stroke-miterlimit:1;" x1="112.484" y1="34.56" x2="117.751" y2="32.914"/>
	<line style="fill:none;stroke:#000000;stroke-miterlimit:1;" x1="117.751" y1="32.914" x2="126.967" y2="31.598"/>
	<line style="fill:none;stroke:#000000;stroke-miterlimit:1;" x1="126.967" y1="31.598" x2="133.55" y2="31.598"/>
	<line style="fill:none;stroke:#000000;stroke-miterlimit:1;" x1="133.55" y1="31.598" x2="133.879" y2="32.914"/>
	<line style="fill:none;stroke:#000000;stroke-miterlimit:1;" x1="133.879" y1="32.914" x2="132.233" y2="33.572"/>
	<line style="fill:none;stroke:#000000;stroke-miterlimit:1;" x1="132.233" y1="33.572" x2="129.6" y2="36.206"/>
	<line style="fill:none;stroke:#000000;stroke-miterlimit:1;" x1="129.6" y1="36.206" x2="128.612" y2="37.522"/>
	<line style="fill:none;stroke:#000000;stroke-miterlimit:1;" x1="128.612" y1="37.522" x2="128.283" y2="38.839"/>
	<line style="fill:none;stroke:#000000;stroke-miterlimit:1;" x1="128.283" y1="38.839" x2="129.271" y2="42.459"/>
	<line style="fill:none;stroke:#000000;stroke-miterlimit:1;" x1="129.271" y1="42.459" x2="129.6" y2="45.093"/>
	<line style="fill:none;stroke:#000000;stroke-miterlimit:1;" x1="129.6" y1="45.093" x2="129.6" y2="49.372"/>
	<line style="fill:none;stroke:#000000;stroke-miterlimit:1;" x1="129.6" y1="49.372" x2="129.271" y2="50.688"/>
	<line style="fill:none;stroke:#000000;stroke-miterlimit:1;" x1="129.271" y1="50.688" x2="127.296" y2="53.321"/>
	<line style="fill:none;stroke:#000000;stroke-miterlimit:1;" x1="127.296" y1="53.321" x2="125.321" y2="54.309"/>
	<line style="fill:none;stroke:#000000;stroke-miterlimit:1;" x1="125.321" y1="54.309" x2="137.828" y2="116.188"/>
	<line style="fill:none;stroke:#000000;stroke-miterlimit:1;" x1="145.069" y1="116.846" x2="159.223" y2="92.818"/>
	<line style="fill:none;stroke:#000000;stroke-miterlimit:1;" x1="159.223" y1="92.818" x2="159.881" y2="92.818"/>
	<line style="fill:none;stroke:#000000;stroke-miterlimit:1;" x1="159.881" y1="92.818" x2="160.868" y2="93.147"/>
	<line style="fill:none;stroke:#000000;stroke-miterlimit:1;" x1="160.868" y1="93.147" x2="167.451" y2="114.213"/>
	<line style="fill:none;stroke:#000000;stroke-miterlimit:1;" x1="167.451" y1="114.213" x2="166.793" y2="115.529"/>
	<line style="fill:none;stroke:#000000;stroke-miterlimit:1;" x1="166.793" y1="115.529" x2="166.464" y2="118.162"/>
	<line style="fill:none;stroke:#000000;stroke-miterlimit:1;" x1="166.464" y1="118.162" x2="170.085" y2="127.049"/>
	<line style="fill:none;stroke:#000000;stroke-miterlimit:1;" x1="170.085" y1="127.049" x2="171.73" y2="129.024"/>
	<line style="fill:none;stroke:#000000;stroke-miterlimit:1;" x1="171.73" y1="129.024" x2="172.718" y2="130.012"/>
	<line style="fill:none;stroke:#000000;stroke-miterlimit:1;" x1="172.718" y1="130.012" x2="173.376" y2="130.012"/>
	<line style="fill:none;stroke:#000000;stroke-miterlimit:1;" x1="173.376" y1="130.012" x2="174.034" y2="129.354"/>
	<line style="fill:none;stroke:#000000;stroke-miterlimit:1;" x1="174.034" y1="129.354" x2="174.034" y2="128.036"/>
	<line style="fill:none;stroke:#000000;stroke-miterlimit:1;" x1="174.034" y1="128.036" x2="174.034" y2="118.162"/>
	<line style="fill:none;stroke:#000000;stroke-miterlimit:1;" x1="174.034" y1="118.162" x2="173.047" y2="115.529"/>
	<line style="fill:none;stroke:#000000;stroke-miterlimit:1;" x1="173.047" y1="115.529" x2="172.06" y2="114.542"/>
	<line style="fill:none;stroke:#000000;stroke-miterlimit:1;" x1="172.06" y1="114.542" x2="170.743" y2="113.884"/>
	<line style="fill:none;stroke:#000000;stroke-miterlimit:1;" x1="170.743" y1="113.884" x2="169.426" y2="113.555"/>
	<line style="fill:none;stroke:#000000;stroke-miterlimit:1;" x1="169.426" y1="113.555" x2="168.109" y2="113.884"/>
	<line style="fill:none;stroke:#000000;stroke-miterlimit:1;" x1="168.109" y1="113.884" x2="167.122" y2="114.871"/>
	<line style="fill:none;stroke:#000000;stroke-miterlimit:1;" x1="169.756" y1="113.555" x2="162.186" y2="87.881"/>
	<line style="fill:none;stroke:#000000;stroke-miterlimit:1;" x1="162.186" y1="87.881" x2="160.868" y2="86.894"/>
	<line style="fill:none;stroke:#000000;stroke-miterlimit:1;" x1="160.868" y1="86.894" x2="160.21" y2="87.552"/>
	<line style="fill:none;stroke:#000000;stroke-miterlimit:1;" x1="160.21" y1="87.552" x2="142.766" y2="116.188"/>
	<line style="fill:none;stroke:#000000;stroke-miterlimit:1;" x1="134.537" y1="116.846" x2="120.384" y2="92.818"/>
	<line style="fill:none;stroke:#000000;stroke-miterlimit:1;" x1="120.384" y1="92.818" x2="119.726" y2="92.818"/>
	<line style="fill:none;stroke:#000000;stroke-miterlimit:1;" x1="119.726" y1="92.818" x2="118.738" y2="93.147"/>
	<line style="fill:none;stroke:#000000;stroke-miterlimit:1;" x1="118.738" y1="93.147" x2="112.155" y2="114.213"/>
	<line style="fill:none;stroke:#000000;stroke-miterlimit:1;" x1="112.155" y1="114.213" x2="112.813" y2="115.529"/>
	<line style="fill:none;stroke:#000000;stroke-miterlimit:1;" x1="112.813" y1="115.529" x2="113.143" y2="118.162"/>
	<line style="fill:none;stroke:#000000;stroke-miterlimit:1;" x1="113.143" y1="118.162" x2="109.522" y2="127.049"/>
	<line style="fill:none;stroke:#000000;stroke-miterlimit:1;" x1="109.522" y1="127.049" x2="107.877" y2="129.024"/>
	<line style="fill:none;stroke:#000000;stroke-miterlimit:1;" x1="107.877" y1="129.024" x2="106.889" y2="130.012"/>
	<line style="fill:none;stroke:#000000;stroke-miterlimit:1;" x1="106.889" y1="130.012" x2="106.23" y2="130.012"/>
	<line style="fill:none;stroke:#000000;stroke-miterlimit:1;" x1="106.23" y1="130.012" x2="105.572" y2="129.354"/>
	<line style="fill:none;stroke:#000000;stroke-miterlimit:1;" x1="105.572" y1="129.354" x2="105.572" y2="128.036"/>
	<line style="fill:none;stroke:#000000;stroke-miterlimit:1;" x1="105.572" y1="128.036" x2="105.572" y2="118.162"/>
	<line style="fill:none;stroke:#000000;stroke-miterlimit:1;" x1="105.572" y1="118.162" x2="106.56" y2="115.529"/>
	<line style="fill:none;stroke:#000000;stroke-miterlimit:1;" x1="106.56" y1="115.529" x2="107.547" y2="114.542"/>
	<line style="fill:none;stroke:#000000;stroke-miterlimit:1;" x1="107.547" y1="114.542" x2="108.864" y2="113.884"/>
	<line style="fill:none;stroke:#000000;stroke-miterlimit:1;" x1="108.864" y1="113.884" x2="110.181" y2="113.555"/>
	<line style="fill:none;stroke:#000000;stroke-miterlimit:1;" x1="110.181" y1="113.555" x2="111.497" y2="113.884"/>
	<line style="fill:none;stroke:#000000;stroke-miterlimit:1;" x1="111.497" y1="113.884" x2="112.484" y2="114.871"/>
	<line style="fill:none;stroke:#000000;stroke-miterlimit:1;" x1="109.852" y1="113.555" x2="117.422" y2="87.881"/>
	<line style="fill:none;stroke:#000000;stroke-miterlimit:1;" x1="117.422" y1="87.881" x2="118.738" y2="86.894"/>
	<line style="fill:none;stroke:#000000;stroke-miterlimit:1;" x1="118.738" y1="86.894" x2="119.396" y2="87.552"/>
	<line style="fill:none;stroke:#000000;stroke-miterlimit:1;" x1="119.396" y1="87.552" x2="136.841" y2="116.188"/>
	<line style="fill:none;stroke:#000000;stroke-miterlimit:1;" x1="138.486" y1="115.858" x2="137.17" y2="116.188"/>
	<line style="fill:none;stroke:#000000;stroke-miterlimit:1;" x1="137.17" y1="116.188" x2="133.879" y2="116.846"/>
	<line style="fill:none;stroke:#000000;stroke-miterlimit:1;" x1="133.879" y1="116.846" x2="131.246" y2="117.833"/>
	<line style="fill:none;stroke:#000000;stroke-miterlimit:1;" x1="131.246" y1="117.833" x2="128.283" y2="119.808"/>
	<line style="fill:none;stroke:#000000;stroke-miterlimit:1;" x1="128.283" y1="119.808" x2="126.638" y2="121.454"/>
	<line style="fill:none;stroke:#000000;stroke-miterlimit:1;" x1="126.638" y1="121.454" x2="125.65" y2="122.771"/>
	<line style="fill:none;stroke:#000000;stroke-miterlimit:1;" x1="125.65" y1="122.771" x2="124.334" y2="124.087"/>
	<line style="fill:none;stroke:#000000;stroke-miterlimit:1;" x1="124.334" y1="124.087" x2="123.676" y2="125.732"/>
	<line style="fill:none;stroke:#000000;stroke-miterlimit:1;" x1="123.676" y1="125.732" x2="123.347" y2="127.707"/>
	<line style="fill:none;stroke:#000000;stroke-miterlimit:1;" x1="123.347" y1="127.707" x2="122.688" y2="129.683"/>
	<line style="fill:none;stroke:#000000;stroke-miterlimit:1;" x1="122.688" y1="129.683" x2="122.358" y2="131.328"/>
	<line style="fill:none;stroke:#000000;stroke-miterlimit:1;" x1="122.358" y1="131.328" x2="122.358" y2="134.29"/>
	<line style="fill:none;stroke:#000000;stroke-miterlimit:1;" x1="122.358" y1="134.29" x2="123.018" y2="135.936"/>
	<line style="fill:none;stroke:#000000;stroke-miterlimit:1;" x1="123.018" y1="135.936" x2="123.347" y2="137.253"/>
	<line style="fill:none;stroke:#000000;stroke-miterlimit:1;" x1="123.347" y1="137.253" x2="124.005" y2="138.898"/>
	<line style="fill:none;stroke:#000000;stroke-miterlimit:1;" x1="124.005" y1="138.898" x2="124.992" y2="140.544"/>
	<line style="fill:none;stroke:#000000;stroke-miterlimit:1;" x1="124.992" y1="140.544" x2="126.638" y2="142.519"/>
	<line style="fill:none;stroke:#000000;stroke-miterlimit:1;" x1="126.638" y1="142.519" x2="127.625" y2="143.506"/>
	<line style="fill:none;stroke:#000000;stroke-miterlimit:1;" x1="127.625" y1="143.506" x2="128.283" y2="144.164"/>
	<line style="fill:none;stroke:#000000;stroke-miterlimit:1;" x1="128.283" y1="144.164" x2="129.6" y2="145.152"/>
	<line style="fill:none;stroke:#000000;stroke-miterlimit:1;" x1="129.6" y1="145.152" x2="130.587" y2="145.481"/>
	<line style="fill:none;stroke:#000000;stroke-miterlimit:1;" x1="130.587" y1="145.481" x2="132.892" y2="146.798"/>
	<line style="fill:none;stroke:#000000;stroke-miterlimit:1;" x1="132.892" y1="146.798" x2="133.55" y2="147.127"/>
	<line style="fill:none;stroke:#000000;stroke-miterlimit:1;" x1="133.55" y1="147.127" x2="135.524" y2="147.456"/>
	<line style="fill:none;stroke:#000000;stroke-miterlimit:1;" x1="135.524" y1="147.456" x2="137.17" y2="147.785"/>
	<line style="fill:none;stroke:#000000;stroke-miterlimit:1;" x1="137.17" y1="147.785" x2="138.816" y2="148.114"/>
	<line style="fill:none;stroke:#000000;stroke-miterlimit:1;" x1="138.816" y1="148.114" x2="140.462" y2="148.114"/>
	<line style="fill:none;stroke:#000000;stroke-miterlimit:1;" x1="140.462" y1="148.114" x2="142.437" y2="148.114"/>
	<line style="fill:none;stroke:#000000;stroke-miterlimit:1;" x1="142.437" y1="148.114" x2="143.753" y2="147.456"/>
	<line style="fill:none;stroke:#000000;stroke-miterlimit:1;" x1="143.753" y1="147.456" x2="147.045" y2="146.798"/>
	<line style="fill:none;stroke:#000000;stroke-miterlimit:1;" x1="147.045" y1="146.798" x2="148.361" y2="145.811"/>
	<line style="fill:none;stroke:#000000;stroke-miterlimit:1;" x1="148.361" y1="145.811" x2="149.349" y2="145.481"/>
	<line style="fill:none;stroke:#000000;stroke-miterlimit:1;" x1="149.349" y1="145.481" x2="150.665" y2="144.823"/>
	<line style="fill:none;stroke:#000000;stroke-miterlimit:1;" x1="150.665" y1="144.823" x2="151.652" y2="143.835"/>
	<line style="fill:none;stroke:#000000;stroke-miterlimit:1;" x1="151.652" y1="143.835" x2="152.64" y2="143.177"/>
	<line style="fill:none;stroke:#000000;stroke-miterlimit:1;" x1="152.64" y1="143.177" x2="153.627" y2="142.189"/>
	<line style="fill:none;stroke:#000000;stroke-miterlimit:1;" x1="153.627" y1="142.189" x2="154.615" y2="140.873"/>
	<line style="fill:none;stroke:#000000;stroke-miterlimit:1;" x1="154.615" y1="140.873" x2="155.273" y2="139.228"/>
	<line style="fill:none;stroke:#000000;stroke-miterlimit:1;" x1="155.273" y1="139.228" x2="155.603" y2="138.24"/>
	<line style="fill:none;stroke:#000000;stroke-miterlimit:1;" x1="155.603" y1="138.24" x2="156.261" y2="137.253"/>
	<line style="fill:none;stroke:#000000;stroke-miterlimit:1;" x1="156.261" y1="137.253" x2="156.59" y2="135.936"/>
	<line style="fill:none;stroke:#000000;stroke-miterlimit:1;" x1="156.59" y1="135.936" x2="156.919" y2="134.619"/>
	<line style="fill:none;stroke:#000000;stroke-miterlimit:1;" x1="156.919" y1="134.619" x2="157.248" y2="132.645"/>
	<line style="fill:none;stroke:#000000;stroke-miterlimit:1;" x1="157.248" y1="132.645" x2="157.248" y2="130.999"/>
	<line style="fill:none;stroke:#000000;stroke-miterlimit:1;" x1="157.248" y1="130.999" x2="156.919" y2="129.683"/>
	<line style="fill:none;stroke:#000000;stroke-miterlimit:1;" x1="156.919" y1="129.683" x2="156.59" y2="128.365"/>
	<line style="fill:none;stroke:#000000;stroke-miterlimit:1;" x1="156.59" y1="128.365" x2="156.261" y2="126.391"/>
	<line style="fill:none;stroke:#000000;stroke-miterlimit:1;" x1="156.261" y1="126.391" x2="155.932" y2="125.403"/>
	<line style="fill:none;stroke:#000000;stroke-miterlimit:1;" x1="155.932" y1="125.403" x2="154.615" y2="123.429"/>
	<line style="fill:none;stroke:#000000;stroke-miterlimit:1;" x1="154.615" y1="123.429" x2="153.627" y2="122.441"/>
	<line style="fill:none;stroke:#000000;stroke-miterlimit:1;" x1="153.627" y1="122.441" x2="152.64" y2="121.125"/>
	<line style="fill:none;stroke:#000000;stroke-miterlimit:1;" x1="152.64" y1="121.125" x2="151.981" y2="120.466"/>
	<line style="fill:none;stroke:#000000;stroke-miterlimit:1;" x1="151.981" y1="120.466" x2="149.349" y2="118.491"/>
	<line style="fill:none;stroke:#000000;stroke-miterlimit:1;" x1="149.349" y1="118.491" x2="147.374" y2="117.504"/>
	<line style="fill:none;stroke:#000000;stroke-miterlimit:1;" x1="147.374" y1="117.504" x2="145.398" y2="116.846"/>
	<line style="fill:none;stroke:#000000;stroke-miterlimit:1;" x1="145.398" y1="116.846" x2="142.766" y2="116.188"/>
	<line style="fill:none;stroke:#000000;stroke-miterlimit:1;" x1="142.766" y1="116.188" x2="141.778" y2="115.858"/>
	<line style="fill:none;stroke:#000000;stroke-miterlimit:1;" x1="141.778" y1="115.858" x2="140.462" y2="115.858"/>
	<line style="fill:none;stroke:#000000;stroke-miterlimit:1;" x1="133.879" y1="117.175" x2="140.133" y2="125.403"/>
	<line style="fill:none;stroke:#000000;stroke-miterlimit:1;" x1="140.133" y1="125.403" x2="149.02" y2="118.491"/>
	<line style="fill:none;stroke:#000000;stroke-miterlimit:1;" x1="155.932" y1="126.391" x2="145.728" y2="132.974"/>
	<line style="fill:none;stroke:#000000;stroke-miterlimit:1;" x1="145.728" y1="132.974" x2="154.615" y2="140.215"/>
	<line style="fill:none;stroke:#000000;stroke-miterlimit:1;" x1="146.716" y1="146.14" x2="139.475" y2="138.24"/>
	<line style="fill:none;stroke:#000000;stroke-miterlimit:1;" x1="139.475" y1="138.24" x2="131.575" y2="145.481"/>
	<line style="fill:none;stroke:#000000;stroke-miterlimit:1;" x1="124.334" y1="138.898" x2="131.904" y2="131.986"/>
	<line style="fill:none;stroke:#000000;stroke-miterlimit:1;" x1="131.904" y1="131.986" x2="124.334" y2="124.416"/>
	<line style="fill:none;stroke:#000000;stroke-miterlimit:1;" x1="48.384" y1="47.396" x2="50.359" y2="56.283"/>
	<line style="fill:none;stroke:#000000;stroke-miterlimit:1;" x1="50.359" y1="56.283" x2="52.663" y2="66.816"/>
	<line style="fill:none;stroke:#000000;stroke-miterlimit:1;" x1="52.663" y1="66.816" x2="52.663" y2="78.007"/>
	<line style="fill:none;stroke:#000000;stroke-miterlimit:1;" x1="52.663" y1="78.007" x2="51.017" y2="82.944"/>
	<line style="fill:none;stroke:#000000;stroke-miterlimit:1;" x1="51.017" y1="82.944" x2="44.763" y2="84.59"/>
	<line style="fill:none;stroke:#000000;stroke-miterlimit:1;" x1="44.763" y1="84.59" x2="36.206" y2="87.223"/>
	<line style="fill:none;stroke:#000000;stroke-miterlimit:1;" x1="36.206" y1="87.223" x2="28.964" y2="90.844"/>
	<line style="fill:none;stroke:#000000;stroke-miterlimit:1;" x1="28.964" y1="90.844" x2="25.015" y2="93.806"/>
	<line style="fill:none;stroke:#000000;stroke-miterlimit:1;" x1="25.015" y1="93.806" x2="32.256" y2="93.806"/>
	<line style="fill:none;stroke:#000000;stroke-miterlimit:1;" x1="32.256" y1="93.806" x2="37.522" y2="94.793"/>
	<line style="fill:none;stroke:#000000;stroke-miterlimit:1;" x1="37.522" y1="94.793" x2="42.459" y2="96.109"/>
	<line style="fill:none;stroke:#000000;stroke-miterlimit:1;" x1="42.459" y1="96.109" x2="44.434" y2="97.426"/>
	<line style="fill:none;stroke:#000000;stroke-miterlimit:1;" x1="44.434" y1="97.426" x2="44.763" y2="98.414"/>
	<line style="fill:none;stroke:#000000;stroke-miterlimit:1;" x1="44.763" y1="98.414" x2="45.422" y2="100.389"/>
	<line style="fill:none;stroke:#000000;stroke-miterlimit:1;" x1="25.015" y1="93.806" x2="22.382" y2="95.78"/>
	<line style="fill:none;stroke:#000000;stroke-miterlimit:1;" x1="22.382" y1="95.78" x2="20.078" y2="105.326"/>
	<line style="fill:none;stroke:#000000;stroke-miterlimit:1;" x1="20.078" y1="105.326" x2="18.432" y2="114.542"/>
	<line style="fill:none;stroke:#000000;stroke-miterlimit:1;" x1="18.432" y1="114.542" x2="17.444" y2="123.758"/>
	<line style="fill:none;stroke:#000000;stroke-miterlimit:1;" x1="17.444" y1="123.758" x2="16.128" y2="132.645"/>
	<line style="fill:none;stroke:#000000;stroke-miterlimit:1;" x1="16.128" y1="132.645" x2="14.482" y2="139.228"/>
	<line style="fill:none;stroke:#000000;stroke-miterlimit:1;" x1="14.482" y1="139.228" x2="12.507" y2="141.86"/>
	<line style="fill:none;stroke:#000000;stroke-miterlimit:1;" x1="12.507" y1="141.86" x2="9.216" y2="143.835"/>
	<line style="fill:none;stroke:#000000;stroke-miterlimit:1;" x1="9.216" y1="143.835" x2="5.595" y2="144.823"/>
	<line style="fill:none;stroke:#000000;stroke-miterlimit:1;" x1="5.595" y1="144.823" x2="2.633" y2="145.152"/>
	<line style="fill:none;stroke:#000000;stroke-miterlimit:1;" x1="2.633" y1="145.152" x2="0.329" y2="145.481"/>
	<line style="fill:none;stroke:#000000;stroke-miterlimit:1;" x1="0.329" y1="145.481" x2="0" y2="148.114"/>
	<line style="fill:none;stroke:#000000;stroke-miterlimit:1;" x1="0" y1="148.114" x2="11.849" y2="147.785"/>
	<line style="fill:none;stroke:#000000;stroke-miterlimit:1;" x1="11.849" y1="147.785" x2="15.141" y2="146.798"/>
	<line style="fill:none;stroke:#000000;stroke-miterlimit:1;" x1="15.141" y1="146.798" x2="17.444" y2="147.785"/>
	<line style="fill:none;stroke:#000000;stroke-miterlimit:1;" x1="17.444" y1="147.785" x2="20.407" y2="147.785"/>
	<line style="fill:none;stroke:#000000;stroke-miterlimit:1;" x1="20.407" y1="147.785" x2="21.723" y2="147.127"/>
	<line style="fill:none;stroke:#000000;stroke-miterlimit:1;" x1="21.723" y1="147.127" x2="22.382" y2="145.811"/>
	<line style="fill:none;stroke:#000000;stroke-miterlimit:1;" x1="22.382" y1="145.811" x2="22.053" y2="144.494"/>
	<line style="fill:none;stroke:#000000;stroke-miterlimit:1;" x1="22.053" y1="144.494" x2="21.723" y2="142.848"/>
	<line style="fill:none;stroke:#000000;stroke-miterlimit:1;" x1="21.723" y1="142.848" x2="21.723" y2="139.228"/>
	<line style="fill:none;stroke:#000000;stroke-miterlimit:1;" x1="21.723" y1="139.228" x2="22.053" y2="135.606"/>
	<line style="fill:none;stroke:#000000;stroke-miterlimit:1;" x1="22.053" y1="135.606" x2="23.698" y2="130.67"/>
	<line style="fill:none;stroke:#000000;stroke-miterlimit:1;" x1="23.698" y1="130.67" x2="25.344" y2="126.72"/>
	<line style="fill:none;stroke:#000000;stroke-miterlimit:1;" x1="25.344" y1="126.72" x2="26.661" y2="121.783"/>
	<line style="fill:none;stroke:#000000;stroke-miterlimit:1;" x1="26.661" y1="121.783" x2="27.319" y2="116.846"/>
	<line style="fill:none;stroke:#000000;stroke-miterlimit:1;" x1="27.319" y1="116.846" x2="27.977" y2="112.237"/>
	<line style="fill:none;stroke:#000000;stroke-miterlimit:1;" x1="27.977" y1="112.237" x2="28.306" y2="108.946"/>
	<line style="fill:none;stroke:#000000;stroke-miterlimit:1;" x1="28.306" y1="108.946" x2="28.964" y2="106.643"/>
	<line style="fill:none;stroke:#000000;stroke-miterlimit:1;" x1="28.964" y1="106.643" x2="30.281" y2="101.705"/>
	<line style="fill:none;stroke:#000000;stroke-miterlimit:1;" x1="30.281" y1="101.705" x2="32.914" y2="98.414"/>
	<line style="fill:none;stroke:#000000;stroke-miterlimit:1;" x1="32.914" y1="98.414" x2="34.56" y2="97.426"/>
	<line style="fill:none;stroke:#000000;stroke-miterlimit:1;" x1="35.876" y1="94.793" x2="34.231" y2="97.097"/>
	<line style="fill:none;stroke:#000000;stroke-miterlimit:1;" x1="34.231" y1="97.097" x2="33.572" y2="101.705"/>
	<line style="fill:none;stroke:#000000;stroke-miterlimit:1;" x1="33.572" y1="101.705" x2="35.876" y2="108.288"/>
	<line style="fill:none;stroke:#000000;stroke-miterlimit:1;" x1="35.876" y1="108.288" x2="39.168" y2="116.846"/>
	<line style="fill:none;stroke:#000000;stroke-miterlimit:1;" x1="39.168" y1="116.846" x2="41.143" y2="122.112"/>
	<line style="fill:none;stroke:#000000;stroke-miterlimit:1;" x1="41.143" y1="122.112" x2="43.776" y2="127.707"/>
	<line style="fill:none;stroke:#000000;stroke-miterlimit:1;" x1="43.776" y1="127.707" x2="44.763" y2="132.315"/>
	<line style="fill:none;stroke:#000000;stroke-miterlimit:1;" x1="44.763" y1="132.315" x2="44.763" y2="136.595"/>
	<line style="fill:none;stroke:#000000;stroke-miterlimit:1;" x1="44.763" y1="136.595" x2="43.447" y2="139.886"/>
	<line style="fill:none;stroke:#000000;stroke-miterlimit:1;" x1="43.447" y1="139.886" x2="41.801" y2="142.189"/>
	<line style="fill:none;stroke:#000000;stroke-miterlimit:1;" x1="41.801" y1="142.189" x2="39.826" y2="144.164"/>
	<line style="fill:none;stroke:#000000;stroke-miterlimit:1;" x1="39.826" y1="144.164" x2="37.522" y2="145.152"/>
	<line style="fill:none;stroke:#000000;stroke-miterlimit:1;" x1="37.522" y1="145.152" x2="33.902" y2="145.481"/>
	<line style="fill:none;stroke:#000000;stroke-miterlimit:1;" x1="33.902" y1="145.481" x2="33.902" y2="147.785"/>
	<line style="fill:none;stroke:#000000;stroke-miterlimit:1;" x1="33.902" y1="147.785" x2="40.155" y2="147.456"/>
	<line style="fill:none;stroke:#000000;stroke-miterlimit:1;" x1="40.155" y1="147.456" x2="43.118" y2="146.469"/>
	<line style="fill:none;stroke:#000000;stroke-miterlimit:1;" x1="43.118" y1="146.469" x2="47.726" y2="143.506"/>
	<line style="fill:none;stroke:#000000;stroke-miterlimit:1;" x1="47.726" y1="143.506" x2="50.688" y2="142.848"/>
	<line style="fill:none;stroke:#000000;stroke-miterlimit:1;" x1="50.688" y1="142.848" x2="52.992" y2="141.531"/>
	<line style="fill:none;stroke:#000000;stroke-miterlimit:1;" x1="52.992" y1="141.531" x2="53.979" y2="139.228"/>
	<line style="fill:none;stroke:#000000;stroke-miterlimit:1;" x1="53.979" y1="139.228" x2="52.992" y2="136.924"/>
	<line style="fill:none;stroke:#000000;stroke-miterlimit:1;" x1="52.992" y1="136.924" x2="51.675" y2="135.277"/>
	<line style="fill:none;stroke:#000000;stroke-miterlimit:1;" x1="51.675" y1="135.277" x2="50.359" y2="130.67"/>
	<line style="fill:none;stroke:#000000;stroke-miterlimit:1;" x1="50.359" y1="130.67" x2="49.371" y2="125.403"/>
	<line style="fill:none;stroke:#000000;stroke-miterlimit:1;" x1="49.371" y1="125.403" x2="48.384" y2="119.479"/>
	<line style="fill:none;stroke:#000000;stroke-miterlimit:1;" x1="48.384" y1="119.479" x2="48.055" y2="115.2"/>
	<line style="fill:none;stroke:#000000;stroke-miterlimit:1;" x1="48.055" y1="115.2" x2="47.067" y2="111.579"/>
	<line style="fill:none;stroke:#000000;stroke-miterlimit:1;" x1="47.067" y1="111.579" x2="45.422" y2="106.972"/>
	<line style="fill:none;stroke:#000000;stroke-miterlimit:1;" x1="45.422" y1="106.972" x2="45.092" y2="104.009"/>
	<line style="fill:none;stroke:#000000;stroke-miterlimit:1;" x1="45.092" y1="104.009" x2="45.092" y2="100.718"/>
	<line style="fill:none;stroke:#000000;stroke-miterlimit:1;" x1="45.092" y1="100.718" x2="49.371" y2="98.743"/>
	<line style="fill:none;stroke:#000000;stroke-miterlimit:1;" x1="49.371" y1="98.743" x2="54.638" y2="97.426"/>
	<line style="fill:none;stroke:#000000;stroke-miterlimit:1;" x1="54.638" y1="97.426" x2="60.233" y2="97.097"/>
	<line style="fill:none;stroke:#000000;stroke-miterlimit:1;" x1="60.233" y1="97.097" x2="65.17" y2="96.768"/>
	<line style="fill:none;stroke:#000000;stroke-miterlimit:1;" x1="65.17" y1="96.768" x2="68.791" y2="96.438"/>
	<line style="fill:none;stroke:#000000;stroke-miterlimit:1;" x1="68.791" y1="96.438" x2="72.082" y2="94.793"/>
	<line style="fill:none;stroke:#000000;stroke-miterlimit:1;" x1="72.082" y1="94.793" x2="73.728" y2="91.831"/>
	<line style="fill:none;stroke:#000000;stroke-miterlimit:1;" x1="73.728" y1="91.831" x2="73.399" y2="85.906"/>
	<line style="fill:none;stroke:#000000;stroke-miterlimit:1;" x1="73.399" y1="85.906" x2="72.74" y2="80.311"/>
	<line style="fill:none;stroke:#000000;stroke-miterlimit:1;" x1="72.74" y1="80.311" x2="71.753" y2="75.703"/>
	<line style="fill:none;stroke:#000000;stroke-miterlimit:1;" x1="71.753" y1="75.703" x2="70.437" y2="71.095"/>
	<line style="fill:none;stroke:#000000;stroke-miterlimit:1;" x1="70.437" y1="71.095" x2="69.778" y2="65.829"/>
	<line style="fill:none;stroke:#000000;stroke-miterlimit:1;" x1="69.778" y1="65.829" x2="70.437" y2="59.575"/>
	<line style="fill:none;stroke:#000000;stroke-miterlimit:1;" x1="70.437" y1="59.575" x2="71.753" y2="54.638"/>
	<line style="fill:none;stroke:#000000;stroke-miterlimit:1;" x1="71.753" y1="54.638" x2="74.386" y2="47.396"/>
	<line style="fill:none;stroke:#000000;stroke-miterlimit:1;" x1="74.386" y1="47.396" x2="78.665" y2="52.992"/>
	<line style="fill:none;stroke:#000000;stroke-miterlimit:1;" x1="78.665" y1="52.992" x2="81.627" y2="56.942"/>
	<line style="fill:none;stroke:#000000;stroke-miterlimit:1;" x1="81.627" y1="56.942" x2="85.906" y2="63.524"/>
	<line style="fill:none;stroke:#000000;stroke-miterlimit:1;" x1="85.906" y1="63.524" x2="85.248" y2="68.791"/>
	<line style="fill:none;stroke:#000000;stroke-miterlimit:1;" x1="85.248" y1="68.791" x2="85.248" y2="76.361"/>
	<line style="fill:none;stroke:#000000;stroke-miterlimit:1;" x1="85.248" y1="76.361" x2="85.577" y2="82.615"/>
	<line style="fill:none;stroke:#000000;stroke-miterlimit:1;" x1="85.577" y1="82.615" x2="84.919" y2="85.906"/>
	<line style="fill:none;stroke:#000000;stroke-miterlimit:1;" x1="84.919" y1="85.906" x2="81.957" y2="89.197"/>
	<line style="fill:none;stroke:#000000;stroke-miterlimit:1;" x1="81.957" y1="89.197" x2="80.969" y2="92.489"/>
	<line style="fill:none;stroke:#000000;stroke-miterlimit:1;" x1="80.969" y1="92.489" x2="82.944" y2="92.818"/>
	<line style="fill:none;stroke:#000000;stroke-miterlimit:1;" x1="82.944" y1="92.818" x2="85.248" y2="89.197"/>
	<line style="fill:none;stroke:#000000;stroke-miterlimit:1;" x1="85.248" y1="89.197" x2="86.564" y2="90.186"/>
	<line style="fill:none;stroke:#000000;stroke-miterlimit:1;" x1="86.564" y1="90.186" x2="85.906" y2="93.147"/>
	<line style="fill:none;stroke:#000000;stroke-miterlimit:1;" x1="85.906" y1="93.147" x2="84.919" y2="96.109"/>
	<line style="fill:none;stroke:#000000;stroke-miterlimit:1;" x1="84.919" y1="96.109" x2="82.615" y2="98.085"/>
	<line style="fill:none;stroke:#000000;stroke-miterlimit:1;" x1="82.615" y1="98.085" x2="81.298" y2="99.73"/>
	<line style="fill:none;stroke:#000000;stroke-miterlimit:1;" x1="81.298" y1="99.73" x2="82.615" y2="101.047"/>
	<line style="fill:none;stroke:#000000;stroke-miterlimit:1;" x1="82.615" y1="101.047" x2="85.577" y2="99.072"/>
	<line style="fill:none;stroke:#000000;stroke-miterlimit:1;" x1="85.577" y1="99.072" x2="87.552" y2="97.426"/>
	<line style="fill:none;stroke:#000000;stroke-miterlimit:1;" x1="87.552" y1="97.426" x2="89.197" y2="93.806"/>
	<line style="fill:none;stroke:#000000;stroke-miterlimit:1;" x1="89.197" y1="93.806" x2="89.526" y2="91.502"/>
	<line style="fill:none;stroke:#000000;stroke-miterlimit:1;" x1="89.526" y1="91.502" x2="89.197" y2="86.235"/>
	<line style="fill:none;stroke:#000000;stroke-miterlimit:1;" x1="89.197" y1="86.235" x2="90.844" y2="81.627"/>
	<line style="fill:none;stroke:#000000;stroke-miterlimit:1;" x1="90.844" y1="81.627" x2="92.16" y2="75.045"/>
	<line style="fill:none;stroke:#000000;stroke-miterlimit:1;" x1="92.16" y1="75.045" x2="92.489" y2="69.778"/>
	<line style="fill:none;stroke:#000000;stroke-miterlimit:1;" x1="92.489" y1="69.778" x2="93.147" y2="64.841"/>
	<line style="fill:none;stroke:#000000;stroke-miterlimit:1;" x1="93.147" y1="64.841" x2="92.818" y2="61.879"/>
	<line style="fill:none;stroke:#000000;stroke-miterlimit:1;" x1="92.818" y1="61.879" x2="89.526" y2="55.296"/>
	<line style="fill:none;stroke:#000000;stroke-miterlimit:1;" x1="89.526" y1="55.296" x2="85.906" y2="48.713"/>
	<line style="fill:none;stroke:#000000;stroke-miterlimit:1;" x1="85.906" y1="48.713" x2="80.311" y2="41.801"/>
	<line style="fill:none;stroke:#000000;stroke-miterlimit:1;" x1="80.311" y1="41.801" x2="77.02" y2="38.51"/>
	<line style="fill:none;stroke:#000000;stroke-miterlimit:1;" x1="77.02" y1="38.51" x2="72.74" y2="36.206"/>
	<line style="fill:none;stroke:#000000;stroke-miterlimit:1;" x1="72.74" y1="36.206" x2="69.12" y2="35.876"/>
	<line style="fill:none;stroke:#000000;stroke-miterlimit:1;" x1="69.12" y1="35.876" x2="69.12" y2="29.623"/>
	<line style="fill:none;stroke:#000000;stroke-miterlimit:1;" x1="69.12" y1="29.623" x2="73.07" y2="26.332"/>
	<line style="fill:none;stroke:#000000;stroke-miterlimit:1;" x1="73.07" y1="26.332" x2="76.032" y2="23.04"/>
	<line style="fill:none;stroke:#000000;stroke-miterlimit:1;" x1="76.032" y1="23.04" x2="78.007" y2="19.749"/>
	<line style="fill:none;stroke:#000000;stroke-miterlimit:1;" x1="78.007" y1="19.749" x2="79.981" y2="16.457"/>
	<line style="fill:none;stroke:#000000;stroke-miterlimit:1;" x1="79.981" y1="16.457" x2="81.298" y2="12.836"/>
	<line style="fill:none;stroke:#000000;stroke-miterlimit:1;" x1="81.298" y1="12.836" x2="81.298" y2="9.874"/>
	<line style="fill:none;stroke:#000000;stroke-miterlimit:1;" x1="81.298" y1="9.874" x2="80.311" y2="6.912"/>
	<line style="fill:none;stroke:#000000;stroke-miterlimit:1;" x1="80.311" y1="6.912" x2="78.665" y2="4.279"/>
	<line style="fill:none;stroke:#000000;stroke-miterlimit:1;" x1="78.665" y1="4.279" x2="76.361" y2="1.975"/>
	<line style="fill:none;stroke:#000000;stroke-miterlimit:1;" x1="76.361" y1="1.975" x2="74.057" y2="0.658"/>
	<line style="fill:none;stroke:#000000;stroke-miterlimit:1;" x1="74.057" y1="0.658" x2="70.766" y2="0"/>
	<line style="fill:none;stroke:#000000;stroke-miterlimit:1;" x1="70.766" y1="0" x2="67.145" y2="0.329"/>
	<line style="fill:none;stroke:#000000;stroke-miterlimit:1;" x1="67.145" y1="0.329" x2="63.195" y2="1.646"/>
	<line style="fill:none;stroke:#000000;stroke-miterlimit:1;" x1="63.195" y1="1.646" x2="60.562" y2="3.621"/>
	<line style="fill:none;stroke:#000000;stroke-miterlimit:1;" x1="60.562" y1="3.621" x2="58.917" y2="6.254"/>
	<line style="fill:none;stroke:#000000;stroke-miterlimit:1;" x1="58.917" y1="6.254" x2="56.941" y2="8.887"/>
	<line style="fill:none;stroke:#000000;stroke-miterlimit:1;" x1="56.941" y1="8.887" x2="68.791" y2="12.178"/>
	<line style="fill:none;stroke:#000000;stroke-miterlimit:1;" x1="68.791" y1="12.178" x2="67.803" y2="14.482"/>
	<line style="fill:none;stroke:#000000;stroke-miterlimit:1;" x1="67.803" y1="14.482" x2="69.778" y2="15.799"/>
	<line style="fill:none;stroke:#000000;stroke-miterlimit:1;" x1="69.778" y1="15.799" x2="71.424" y2="16.786"/>
	<line style="fill:none;stroke:#000000;stroke-miterlimit:1;" x1="71.424" y1="16.786" x2="71.753" y2="18.432"/>
	<line style="fill:none;stroke:#000000;stroke-miterlimit:1;" x1="71.753" y1="18.432" x2="70.766" y2="21.065"/>
	<line style="fill:none;stroke:#000000;stroke-miterlimit:1;" x1="70.766" y1="21.065" x2="70.107" y2="24.027"/>
	<line style="fill:none;stroke:#000000;stroke-miterlimit:1;" x1="70.107" y1="24.027" x2="70.766" y2="26.332"/>
	<line style="fill:none;stroke:#000000;stroke-miterlimit:1;" x1="70.766" y1="26.332" x2="71.095" y2="27.319"/>
	<line style="fill:none;stroke:#000000;stroke-miterlimit:1;" x1="57.6" y1="16.128" x2="61.55" y2="17.444"/>
	<line style="fill:none;stroke:#000000;stroke-miterlimit:1;" x1="61.55" y1="17.444" x2="60.562" y2="14.812"/>
	<line style="fill:none;stroke:#000000;stroke-miterlimit:1;" x1="60.562" y1="14.812" x2="59.246" y2="14.482"/>
	<line style="fill:none;stroke:#000000;stroke-miterlimit:1;" x1="59.246" y1="14.482" x2="57.6" y2="15.47"/>
	<line style="fill:none;stroke:#000000;stroke-miterlimit:1;" x1="57.6" y1="8.887" x2="53.979" y2="12.507"/>
	<line style="fill:none;stroke:#000000;stroke-miterlimit:1;" x1="53.979" y1="12.507" x2="51.017" y2="14.812"/>
	<line style="fill:none;stroke:#000000;stroke-miterlimit:1;" x1="51.017" y1="14.812" x2="48.713" y2="16.786"/>
	<line style="fill:none;stroke:#000000;stroke-miterlimit:1;" x1="48.713" y1="16.786" x2="48.713" y2="18.432"/>
	<line style="fill:none;stroke:#000000;stroke-miterlimit:1;" x1="48.713" y1="18.432" x2="52.004" y2="21.724"/>
	<line style="fill:none;stroke:#000000;stroke-miterlimit:1;" x1="52.004" y1="21.724" x2="52.004" y2="25.015"/>
	<line style="fill:none;stroke:#000000;stroke-miterlimit:1;" x1="52.004" y1="25.015" x2="52.333" y2="26.99"/>
	<line style="fill:none;stroke:#000000;stroke-miterlimit:1;" x1="52.333" y1="26.99" x2="57.271" y2="28.964"/>
	<line style="fill:none;stroke:#000000;stroke-miterlimit:1;" x1="57.271" y1="28.964" x2="57.271" y2="34.889"/>
	<line style="fill:none;stroke:#000000;stroke-miterlimit:1;" x1="57.271" y1="34.889" x2="51.675" y2="35.218"/>
	<line style="fill:none;stroke:#000000;stroke-miterlimit:1;" x1="51.675" y1="35.218" x2="47.067" y2="37.193"/>
	<line style="fill:none;stroke:#000000;stroke-miterlimit:1;" x1="47.067" y1="37.193" x2="44.434" y2="39.497"/>
	<line style="fill:none;stroke:#000000;stroke-miterlimit:1;" x1="44.434" y1="39.497" x2="39.168" y2="43.776"/>
	<line style="fill:none;stroke:#000000;stroke-miterlimit:1;" x1="39.168" y1="43.776" x2="35.547" y2="47.726"/>
	<line style="fill:none;stroke:#000000;stroke-miterlimit:1;" x1="35.547" y1="47.726" x2="31.269" y2="52.663"/>
	<line style="fill:none;stroke:#000000;stroke-miterlimit:1;" x1="31.269" y1="52.663" x2="34.56" y2="45.093"/>
	<line style="fill:none;stroke:#000000;stroke-miterlimit:1;" x1="34.56" y1="45.093" x2="36.864" y2="38.51"/>
	<line style="fill:none;stroke:#000000;stroke-miterlimit:1;" x1="36.864" y1="38.51" x2="38.181" y2="33.902"/>
	<line style="fill:none;stroke:#000000;stroke-miterlimit:1;" x1="38.181" y1="33.902" x2="38.51" y2="32.256"/>
	<line style="fill:none;stroke:#000000;stroke-miterlimit:1;" x1="38.51" y1="32.256" x2="42.789" y2="29.952"/>
	<line style="fill:none;stroke:#000000;stroke-miterlimit:1;" x1="42.789" y1="29.952" x2="45.751" y2="27.319"/>
	<line style="fill:none;stroke:#000000;stroke-miterlimit:1;" x1="45.751" y1="27.319" x2="44.434" y2="26.332"/>
	<line style="fill:none;stroke:#000000;stroke-miterlimit:1;" x1="44.434" y1="26.332" x2="40.484" y2="27.648"/>
	<line style="fill:none;stroke:#000000;stroke-miterlimit:1;" x1="40.484" y1="27.648" x2="41.801" y2="25.673"/>
	<line style="fill:none;stroke:#000000;stroke-miterlimit:1;" x1="41.801" y1="25.673" x2="43.776" y2="24.027"/>
	<line style="fill:none;stroke:#000000;stroke-miterlimit:1;" x1="43.776" y1="24.027" x2="46.08" y2="22.711"/>
	<line style="fill:none;stroke:#000000;stroke-miterlimit:1;" x1="46.08" y1="22.711" x2="48.713" y2="22.053"/>
	<line style="fill:none;stroke:#000000;stroke-miterlimit:1;" x1="48.713" y1="22.053" x2="51.017" y2="21.394"/>
	<line style="fill:none;stroke:#000000;stroke-miterlimit:1;" x1="51.017" y1="21.394" x2="48.055" y2="20.078"/>
	<line style="fill:none;stroke:#000000;stroke-miterlimit:1;" x1="48.055" y1="20.078" x2="44.434" y2="20.736"/>
	<line style="fill:none;stroke:#000000;stroke-miterlimit:1;" x1="44.434" y1="20.736" x2="40.484" y2="22.382"/>
	<line style="fill:none;stroke:#000000;stroke-miterlimit:1;" x1="40.484" y1="22.382" x2="37.193" y2="25.344"/>
	<line style="fill:none;stroke:#000000;stroke-miterlimit:1;" x1="37.193" y1="25.344" x2="35.876" y2="28.635"/>
	<line style="fill:none;stroke:#000000;stroke-miterlimit:1;" x1="35.876" y1="28.635" x2="35.876" y2="29.623"/>
	<line style="fill:none;stroke:#000000;stroke-miterlimit:1;" x1="35.876" y1="29.623" x2="32.914" y2="33.572"/>
	<line style="fill:none;stroke:#000000;stroke-miterlimit:1;" x1="32.914" y1="33.572" x2="30.281" y2="37.522"/>
	<line style="fill:none;stroke:#000000;stroke-miterlimit:1;" x1="30.281" y1="37.522" x2="28.306" y2="41.801"/>
	<line style="fill:none;stroke:#000000;stroke-miterlimit:1;" x1="28.306" y1="41.801" x2="26.332" y2="46.08"/>
	<line style="fill:none;stroke:#000000;stroke-miterlimit:1;" x1="26.332" y1="46.08" x2="25.673" y2="49.042"/>
	<line style="fill:none;stroke:#000000;stroke-miterlimit:1;" x1="25.673" y1="49.042" x2="25.015" y2="52.992"/>
	<line style="fill:none;stroke:#000000;stroke-miterlimit:1;" x1="25.015" y1="52.992" x2="24.356" y2="55.954"/>
	<line style="fill:none;stroke:#000000;stroke-miterlimit:1;" x1="24.356" y1="55.954" x2="25.673" y2="59.246"/>
	<line style="fill:none;stroke:#000000;stroke-miterlimit:1;" x1="25.673" y1="59.246" x2="27.319" y2="60.562"/>
	<line style="fill:none;stroke:#000000;stroke-miterlimit:1;" x1="27.319" y1="60.562" x2="31.269" y2="60.892"/>
	<line style="fill:none;stroke:#000000;stroke-miterlimit:1;" x1="31.269" y1="60.892" x2="33.572" y2="60.233"/>
	<line style="fill:none;stroke:#000000;stroke-miterlimit:1;" x1="33.572" y1="60.233" x2="37.193" y2="57.6"/>
	<line style="fill:none;stroke:#000000;stroke-miterlimit:1;" x1="37.193" y1="57.6" x2="41.143" y2="53.321"/>
	<line style="fill:none;stroke:#000000;stroke-miterlimit:1;" x1="41.143" y1="53.321" x2="45.092" y2="50.03"/>
	<line style="fill:none;stroke:#000000;stroke-miterlimit:1;" x1="45.092" y1="50.03" x2="48.055" y2="47.396"/>
</g>
</svg>
