<?xml version="1.0" encoding="iso-8859-1"?>
<!-- Generator: Adobe Illustrator 16.0.1, SVG Export Plug-In . SVG Version: 6.00 Build 0)  -->
<!DOCTYPE svg PUBLIC "-//W3C//DTD SVG 1.1//EN" "http://www.w3.org/Graphics/SVG/1.1/DTD/svg11.dtd">
<svg version="1.1" id="Ebene_1" xmlns="http://www.w3.org/2000/svg" xmlns:xlink="http://www.w3.org/1999/xlink" x="0px" y="0px"
	 width="258.541px" height="148.114px" viewBox="0 0 258.541 148.114" style="enable-background:new 0 0 258.541 148.114;"
	 xml:space="preserve">
<g>
	<line style="fill:none;stroke:#000000;stroke-miterlimit:1;" x1="60.891" y1="93.477" x2="52.333" y2="93.147"/>
	<line style="fill:none;stroke:#000000;stroke-miterlimit:1;" x1="52.333" y1="93.147" x2="45.421" y2="96.109"/>
	<line style="fill:none;stroke:#000000;stroke-miterlimit:1;" x1="45.421" y1="96.109" x2="42.13" y2="97.756"/>
	<line style="fill:none;stroke:#000000;stroke-miterlimit:1;" x1="42.13" y1="97.756" x2="38.839" y2="102.034"/>
	<line style="fill:none;stroke:#000000;stroke-miterlimit:1;" x1="38.839" y1="102.034" x2="37.522" y2="106.643"/>
	<line style="fill:none;stroke:#000000;stroke-miterlimit:1;" x1="37.522" y1="106.643" x2="37.522" y2="111.25"/>
	<line style="fill:none;stroke:#000000;stroke-miterlimit:1;" x1="37.522" y1="111.25" x2="39.168" y2="114.871"/>
	<line style="fill:none;stroke:#000000;stroke-miterlimit:1;" x1="39.168" y1="114.871" x2="43.776" y2="118.82"/>
	<line style="fill:none;stroke:#000000;stroke-miterlimit:1;" x1="43.776" y1="118.82" x2="49.7" y2="121.454"/>
	<line style="fill:none;stroke:#000000;stroke-miterlimit:1;" x1="49.7" y1="121.454" x2="54.967" y2="123.429"/>
	<line style="fill:none;stroke:#000000;stroke-miterlimit:1;" x1="58.917" y1="123.429" x2="64.512" y2="123.429"/>
	<line style="fill:none;stroke:#000000;stroke-miterlimit:1;" x1="64.512" y1="123.429" x2="69.449" y2="123.429"/>
	<line style="fill:none;stroke:#000000;stroke-miterlimit:1;" x1="69.449" y1="123.429" x2="73.728" y2="122.441"/>
	<line style="fill:none;stroke:#000000;stroke-miterlimit:1;" x1="77.678" y1="121.454" x2="83.273" y2="117.504"/>
	<line style="fill:none;stroke:#000000;stroke-miterlimit:1;" x1="83.273" y1="117.504" x2="91.501" y2="123.758"/>
	<line style="fill:none;stroke:#000000;stroke-miterlimit:1;" x1="91.501" y1="123.758" x2="100.717" y2="129.354"/>
	<line style="fill:none;stroke:#000000;stroke-miterlimit:1;" x1="100.717" y1="129.354" x2="107.3" y2="131.657"/>
	<line style="fill:none;stroke:#000000;stroke-miterlimit:1;" x1="111.579" y1="132.315" x2="133.303" y2="135.607"/>
	<line style="fill:none;stroke:#000000;stroke-miterlimit:1;" x1="133.303" y1="135.607" x2="137.91" y2="137.911"/>
	<line style="fill:none;stroke:#000000;stroke-miterlimit:1;" x1="137.91" y1="137.911" x2="139.886" y2="142.189"/>
	<line style="fill:none;stroke:#000000;stroke-miterlimit:1;" x1="139.886" y1="142.189" x2="140.873" y2="148.114"/>
	<line style="fill:none;stroke:#000000;stroke-miterlimit:1;" x1="140.873" y1="148.114" x2="142.519" y2="146.14"/>
	<line style="fill:none;stroke:#000000;stroke-miterlimit:1;" x1="142.519" y1="146.14" x2="143.177" y2="142.189"/>
	<line style="fill:none;stroke:#000000;stroke-miterlimit:1;" x1="143.177" y1="142.189" x2="143.177" y2="137.911"/>
	<line style="fill:none;stroke:#000000;stroke-miterlimit:1;" x1="143.177" y1="137.911" x2="141.531" y2="132.315"/>
	<line style="fill:none;stroke:#000000;stroke-miterlimit:1;" x1="141.531" y1="132.315" x2="138.569" y2="126.72"/>
	<line style="fill:none;stroke:#000000;stroke-miterlimit:1;" x1="138.569" y1="126.72" x2="134.619" y2="121.125"/>
	<line style="fill:none;stroke:#000000;stroke-miterlimit:1;" x1="134.619" y1="121.125" x2="129.682" y2="115.529"/>
	<line style="fill:none;stroke:#000000;stroke-miterlimit:1;" x1="129.682" y1="115.529" x2="120.137" y2="107.959"/>
	<line style="fill:none;stroke:#000000;stroke-miterlimit:1;" x1="120.137" y1="107.959" x2="112.896" y2="103.68"/>
	<line style="fill:none;stroke:#000000;stroke-miterlimit:1;" x1="112.896" y1="103.68" x2="106.313" y2="101.047"/>
	<line style="fill:none;stroke:#000000;stroke-miterlimit:1;" x1="106.313" y1="101.047" x2="100.717" y2="99.401"/>
	<line style="fill:none;stroke:#000000;stroke-miterlimit:1;" x1="100.717" y1="99.401" x2="95.122" y2="98.414"/>
	<line style="fill:none;stroke:#000000;stroke-miterlimit:1;" x1="95.122" y1="98.414" x2="87.223" y2="99.401"/>
	<line style="fill:none;stroke:#000000;stroke-miterlimit:1;" x1="87.223" y1="99.401" x2="84.589" y2="103.021"/>
	<line style="fill:none;stroke:#000000;stroke-miterlimit:1;" x1="84.589" y1="103.021" x2="83.931" y2="108.617"/>
	<line style="fill:none;stroke:#000000;stroke-miterlimit:1;" x1="83.931" y1="104.997" x2="82.286" y2="102.034"/>
	<line style="fill:none;stroke:#000000;stroke-miterlimit:1;" x1="82.286" y1="102.034" x2="79.323" y2="98.085"/>
	<line style="fill:none;stroke:#000000;stroke-miterlimit:1;" x1="79.323" y1="98.085" x2="74.386" y2="95.451"/>
	<line style="fill:none;stroke:#000000;stroke-miterlimit:1;" x1="74.386" y1="95.451" x2="65.499" y2="93.806"/>
	<line style="fill:none;stroke:#000000;stroke-miterlimit:1;" x1="57.271" y1="99.73" x2="77.348" y2="69.12"/>
	<line style="fill:none;stroke:#000000;stroke-miterlimit:1;" x1="77.348" y1="69.12" x2="90.185" y2="53.65"/>
	<line style="fill:none;stroke:#000000;stroke-miterlimit:1;" x1="90.185" y1="53.65" x2="105.326" y2="37.852"/>
	<line style="fill:none;stroke:#000000;stroke-miterlimit:1;" x1="105.326" y1="37.852" x2="124.745" y2="23.698"/>
	<line style="fill:none;stroke:#000000;stroke-miterlimit:1;" x1="124.745" y1="23.698" x2="131.657" y2="20.736"/>
	<line style="fill:none;stroke:#000000;stroke-miterlimit:1;" x1="131.657" y1="20.736" x2="137.252" y2="20.078"/>
	<line style="fill:none;stroke:#000000;stroke-miterlimit:1;" x1="137.252" y1="20.078" x2="145.48" y2="19.749"/>
	<line style="fill:none;stroke:#000000;stroke-miterlimit:1;" x1="145.48" y1="19.749" x2="153.709" y2="21.065"/>
	<line style="fill:none;stroke:#000000;stroke-miterlimit:1;" x1="153.709" y1="21.065" x2="118.82" y2="72.741"/>
	<line style="fill:none;stroke:#000000;stroke-miterlimit:1;" x1="118.82" y1="72.741" x2="99.73" y2="92.818"/>
	<line style="fill:none;stroke:#000000;stroke-miterlimit:1;" x1="99.73" y1="92.818" x2="89.526" y2="89.198"/>
	<line style="fill:none;stroke:#000000;stroke-miterlimit:1;" x1="89.526" y1="89.198" x2="82.286" y2="88.539"/>
	<line style="fill:none;stroke:#000000;stroke-miterlimit:1;" x1="82.286" y1="88.539" x2="75.044" y2="89.198"/>
	<line style="fill:none;stroke:#000000;stroke-miterlimit:1;" x1="75.044" y1="89.198" x2="68.132" y2="91.831"/>
	<line style="fill:none;stroke:#000000;stroke-miterlimit:1;" x1="68.132" y1="91.831" x2="59.575" y2="99.072"/>
	<line style="fill:none;stroke:#000000;stroke-miterlimit:1;" x1="51.346" y1="93.806" x2="50.358" y2="81.628"/>
	<line style="fill:none;stroke:#000000;stroke-miterlimit:1;" x1="50.358" y1="81.628" x2="50.688" y2="62.537"/>
	<line style="fill:none;stroke:#000000;stroke-miterlimit:1;" x1="50.688" y1="62.537" x2="54.638" y2="39.168"/>
	<line style="fill:none;stroke:#000000;stroke-miterlimit:1;" x1="54.638" y1="39.168" x2="57.6" y2="29.952"/>
	<line style="fill:none;stroke:#000000;stroke-miterlimit:1;" x1="57.6" y1="29.952" x2="62.208" y2="20.736"/>
	<line style="fill:none;stroke:#000000;stroke-miterlimit:1;" x1="62.208" y1="20.736" x2="66.816" y2="13.495"/>
	<line style="fill:none;stroke:#000000;stroke-miterlimit:1;" x1="66.816" y1="13.495" x2="71.424" y2="8.229"/>
	<line style="fill:none;stroke:#000000;stroke-miterlimit:1;" x1="71.424" y1="8.229" x2="75.374" y2="5.267"/>
	<line style="fill:none;stroke:#000000;stroke-miterlimit:1;" x1="75.374" y1="5.267" x2="79.323" y2="2.633"/>
	<line style="fill:none;stroke:#000000;stroke-miterlimit:1;" x1="79.323" y1="2.633" x2="87.223" y2="0"/>
	<line style="fill:none;stroke:#000000;stroke-miterlimit:1;" x1="87.223" y1="0" x2="85.577" y2="58.258"/>
	<line style="fill:none;stroke:#000000;stroke-miterlimit:1;" x1="38.18" y1="102.692" x2="31.598" y2="94.793"/>
	<line style="fill:none;stroke:#000000;stroke-miterlimit:1;" x1="31.598" y1="94.793" x2="27.648" y2="85.577"/>
	<line style="fill:none;stroke:#000000;stroke-miterlimit:1;" x1="27.648" y1="85.577" x2="26.002" y2="70.107"/>
	<line style="fill:none;stroke:#000000;stroke-miterlimit:1;" x1="26.002" y1="70.107" x2="21.723" y2="58.258"/>
	<line style="fill:none;stroke:#000000;stroke-miterlimit:1;" x1="21.723" y1="58.258" x2="19.749" y2="51.017"/>
	<line style="fill:none;stroke:#000000;stroke-miterlimit:1;" x1="19.749" y1="51.017" x2="19.749" y2="40.814"/>
	<line style="fill:none;stroke:#000000;stroke-miterlimit:1;" x1="19.749" y1="40.814" x2="17.773" y2="43.118"/>
	<line style="fill:none;stroke:#000000;stroke-miterlimit:1;" x1="17.773" y1="43.118" x2="16.457" y2="50.688"/>
	<line style="fill:none;stroke:#000000;stroke-miterlimit:1;" x1="16.457" y1="50.688" x2="18.761" y2="62.537"/>
	<line style="fill:none;stroke:#000000;stroke-miterlimit:1;" x1="18.761" y1="62.537" x2="21.394" y2="71.753"/>
	<line style="fill:none;stroke:#000000;stroke-miterlimit:1;" x1="21.394" y1="71.753" x2="24.356" y2="91.831"/>
	<line style="fill:none;stroke:#000000;stroke-miterlimit:1;" x1="24.356" y1="91.831" x2="22.052" y2="85.577"/>
	<line style="fill:none;stroke:#000000;stroke-miterlimit:1;" x1="22.052" y1="85.577" x2="14.153" y2="76.361"/>
	<line style="fill:none;stroke:#000000;stroke-miterlimit:1;" x1="14.153" y1="76.361" x2="6.253" y2="63.854"/>
	<line style="fill:none;stroke:#000000;stroke-miterlimit:1;" x1="6.253" y1="63.854" x2="1.975" y2="48.055"/>
	<line style="fill:none;stroke:#000000;stroke-miterlimit:1;" x1="1.975" y1="48.055" x2="0.987" y2="48.384"/>
	<line style="fill:none;stroke:#000000;stroke-miterlimit:1;" x1="0.987" y1="48.384" x2="0" y2="55.625"/>
	<line style="fill:none;stroke:#000000;stroke-miterlimit:1;" x1="0" y1="55.625" x2="0.987" y2="61.879"/>
	<line style="fill:none;stroke:#000000;stroke-miterlimit:1;" x1="0.987" y1="61.879" x2="3.291" y2="68.133"/>
	<line style="fill:none;stroke:#000000;stroke-miterlimit:1;" x1="3.291" y1="68.133" x2="11.849" y2="79.652"/>
	<line style="fill:none;stroke:#000000;stroke-miterlimit:1;" x1="11.849" y1="79.652" x2="19.419" y2="88.539"/>
	<line style="fill:none;stroke:#000000;stroke-miterlimit:1;" x1="19.419" y1="88.539" x2="22.052" y2="94.464"/>
	<line style="fill:none;stroke:#000000;stroke-miterlimit:1;" x1="22.052" y1="94.464" x2="21.394" y2="102.034"/>
	<line style="fill:none;stroke:#000000;stroke-miterlimit:1;" x1="21.394" y1="102.034" x2="22.052" y2="111.25"/>
	<line style="fill:none;stroke:#000000;stroke-miterlimit:1;" x1="22.052" y1="111.25" x2="25.015" y2="118.491"/>
	<line style="fill:none;stroke:#000000;stroke-miterlimit:1;" x1="25.015" y1="118.491" x2="32.585" y2="127.378"/>
	<line style="fill:none;stroke:#000000;stroke-miterlimit:1;" x1="32.585" y1="127.378" x2="33.901" y2="124.087"/>
	<line style="fill:none;stroke:#000000;stroke-miterlimit:1;" x1="33.901" y1="124.087" x2="33.243" y2="121.125"/>
	<line style="fill:none;stroke:#000000;stroke-miterlimit:1;" x1="34.23" y1="126.391" x2="36.206" y2="123.429"/>
	<line style="fill:none;stroke:#000000;stroke-miterlimit:1;" x1="36.206" y1="123.429" x2="37.851" y2="118.491"/>
	<line style="fill:none;stroke:#000000;stroke-miterlimit:1;" x1="37.851" y1="118.491" x2="38.509" y2="113.226"/>
	<line style="fill:none;stroke:#000000;stroke-miterlimit:1;" x1="28.964" y1="114.871" x2="29.952" y2="114.213"/>
	<line style="fill:none;stroke:#000000;stroke-miterlimit:1;" x1="29.952" y1="114.213" x2="29.952" y2="111.25"/>
	<line style="fill:none;stroke:#000000;stroke-miterlimit:1;" x1="29.952" y1="111.25" x2="29.293" y2="109.604"/>
	<line style="fill:none;stroke:#000000;stroke-miterlimit:1;" x1="29.293" y1="109.604" x2="27.648" y2="108.946"/>
	<line style="fill:none;stroke:#000000;stroke-miterlimit:1;" x1="27.648" y1="108.946" x2="26.331" y2="109.934"/>
	<line style="fill:none;stroke:#000000;stroke-miterlimit:1;" x1="26.331" y1="109.934" x2="26.331" y2="112.237"/>
	<line style="fill:none;stroke:#000000;stroke-miterlimit:1;" x1="26.331" y1="112.237" x2="27.648" y2="114.213"/>
	<line style="fill:none;stroke:#000000;stroke-miterlimit:1;" x1="27.648" y1="114.213" x2="29.293" y2="114.542"/>
	<line style="fill:none;stroke:#000000;stroke-miterlimit:1;" x1="44.434" y1="119.479" x2="48.055" y2="129.683"/>
	<line style="fill:none;stroke:#000000;stroke-miterlimit:1;" x1="48.055" y1="129.683" x2="47.726" y2="132.645"/>
	<line style="fill:none;stroke:#000000;stroke-miterlimit:1;" x1="47.726" y1="132.645" x2="42.459" y2="142.848"/>
	<line style="fill:none;stroke:#000000;stroke-miterlimit:1;" x1="42.459" y1="142.848" x2="39.826" y2="144.494"/>
	<line style="fill:none;stroke:#000000;stroke-miterlimit:1;" x1="39.826" y1="144.494" x2="33.572" y2="144.823"/>
	<line style="fill:none;stroke:#000000;stroke-miterlimit:1;" x1="33.572" y1="144.823" x2="32.585" y2="145.811"/>
	<line style="fill:none;stroke:#000000;stroke-miterlimit:1;" x1="32.585" y1="145.811" x2="31.598" y2="145.152"/>
	<line style="fill:none;stroke:#000000;stroke-miterlimit:1;" x1="31.598" y1="145.152" x2="30.281" y2="146.798"/>
	<line style="fill:none;stroke:#000000;stroke-miterlimit:1;" x1="30.281" y1="146.798" x2="30.939" y2="147.785"/>
	<line style="fill:none;stroke:#000000;stroke-miterlimit:1;" x1="30.939" y1="147.785" x2="31.598" y2="147.127"/>
	<line style="fill:none;stroke:#000000;stroke-miterlimit:1;" x1="31.598" y1="147.127" x2="33.243" y2="146.798"/>
	<line style="fill:none;stroke:#000000;stroke-miterlimit:1;" x1="33.243" y1="146.798" x2="33.572" y2="148.114"/>
	<line style="fill:none;stroke:#000000;stroke-miterlimit:1;" x1="33.572" y1="148.114" x2="43.447" y2="148.114"/>
	<line style="fill:none;stroke:#000000;stroke-miterlimit:1;" x1="49.042" y1="121.783" x2="51.346" y2="130.341"/>
	<line style="fill:none;stroke:#000000;stroke-miterlimit:1;" x1="51.346" y1="130.341" x2="50.688" y2="132.974"/>
	<line style="fill:none;stroke:#000000;stroke-miterlimit:1;" x1="50.688" y1="132.974" x2="45.092" y2="145.152"/>
	<line style="fill:none;stroke:#000000;stroke-miterlimit:1;" x1="53.979" y1="115.529" x2="53.65" y2="117.833"/>
	<line style="fill:none;stroke:#000000;stroke-miterlimit:1;" x1="53.65" y1="117.833" x2="57.271" y2="127.049"/>
	<line style="fill:none;stroke:#000000;stroke-miterlimit:1;" x1="57.271" y1="127.049" x2="57.6" y2="130.012"/>
	<line style="fill:none;stroke:#000000;stroke-miterlimit:1;" x1="57.6" y1="130.012" x2="56.941" y2="132.974"/>
	<line style="fill:none;stroke:#000000;stroke-miterlimit:1;" x1="56.941" y1="132.974" x2="52.992" y2="143.177"/>
	<line style="fill:none;stroke:#000000;stroke-miterlimit:1;" x1="52.992" y1="143.177" x2="51.675" y2="144.494"/>
	<line style="fill:none;stroke:#000000;stroke-miterlimit:1;" x1="51.675" y1="144.494" x2="45.421" y2="144.823"/>
	<line style="fill:none;stroke:#000000;stroke-miterlimit:1;" x1="45.421" y1="144.823" x2="44.434" y2="145.811"/>
	<line style="fill:none;stroke:#000000;stroke-miterlimit:1;" x1="44.434" y1="145.811" x2="43.776" y2="148.114"/>
	<line style="fill:none;stroke:#000000;stroke-miterlimit:1;" x1="43.776" y1="148.114" x2="44.763" y2="148.114"/>
	<line style="fill:none;stroke:#000000;stroke-miterlimit:1;" x1="44.763" y1="148.114" x2="46.08" y2="146.469"/>
	<line style="fill:none;stroke:#000000;stroke-miterlimit:1;" x1="46.08" y1="146.469" x2="46.409" y2="148.114"/>
	<line style="fill:none;stroke:#000000;stroke-miterlimit:1;" x1="46.409" y1="148.114" x2="53.979" y2="147.785"/>
	<line style="fill:none;stroke:#000000;stroke-miterlimit:1;" x1="53.979" y1="147.785" x2="60.562" y2="131.328"/>
	<line style="fill:none;stroke:#000000;stroke-miterlimit:1;" x1="60.562" y1="131.328" x2="60.562" y2="128.695"/>
	<line style="fill:none;stroke:#000000;stroke-miterlimit:1;" x1="60.562" y1="128.695" x2="56.612" y2="117.833"/>
	<line style="fill:none;stroke:#000000;stroke-miterlimit:1;" x1="65.17" y1="123.758" x2="67.474" y2="129.024"/>
	<line style="fill:none;stroke:#000000;stroke-miterlimit:1;" x1="67.474" y1="129.024" x2="67.803" y2="131.657"/>
	<line style="fill:none;stroke:#000000;stroke-miterlimit:1;" x1="67.803" y1="131.657" x2="65.17" y2="143.836"/>
	<line style="fill:none;stroke:#000000;stroke-miterlimit:1;" x1="65.17" y1="143.836" x2="63.854" y2="144.823"/>
	<line style="fill:none;stroke:#000000;stroke-miterlimit:1;" x1="63.854" y1="144.823" x2="58.258" y2="144.823"/>
	<line style="fill:none;stroke:#000000;stroke-miterlimit:1;" x1="58.258" y1="144.823" x2="57.929" y2="146.14"/>
	<line style="fill:none;stroke:#000000;stroke-miterlimit:1;" x1="57.929" y1="146.14" x2="56.612" y2="145.152"/>
	<line style="fill:none;stroke:#000000;stroke-miterlimit:1;" x1="56.612" y1="145.152" x2="55.296" y2="147.127"/>
	<line style="fill:none;stroke:#000000;stroke-miterlimit:1;" x1="55.296" y1="147.127" x2="55.954" y2="148.114"/>
	<line style="fill:none;stroke:#000000;stroke-miterlimit:1;" x1="55.954" y1="148.114" x2="57.6" y2="146.798"/>
	<line style="fill:none;stroke:#000000;stroke-miterlimit:1;" x1="57.6" y1="146.798" x2="57.929" y2="148.114"/>
	<line style="fill:none;stroke:#000000;stroke-miterlimit:1;" x1="57.929" y1="148.114" x2="64.183" y2="147.785"/>
	<line style="fill:none;stroke:#000000;stroke-miterlimit:1;" x1="68.132" y1="123.1" x2="70.766" y2="129.354"/>
	<line style="fill:none;stroke:#000000;stroke-miterlimit:1;" x1="70.766" y1="129.354" x2="70.766" y2="131.986"/>
	<line style="fill:none;stroke:#000000;stroke-miterlimit:1;" x1="70.766" y1="131.986" x2="68.132" y2="145.152"/>
	<line style="fill:none;stroke:#000000;stroke-miterlimit:1;" x1="71.095" y1="113.884" x2="70.766" y2="116.517"/>
	<line style="fill:none;stroke:#000000;stroke-miterlimit:1;" x1="70.766" y1="116.517" x2="76.361" y2="125.732"/>
	<line style="fill:none;stroke:#000000;stroke-miterlimit:1;" x1="76.361" y1="125.732" x2="76.69" y2="129.024"/>
	<line style="fill:none;stroke:#000000;stroke-miterlimit:1;" x1="76.69" y1="129.024" x2="75.044" y2="143.177"/>
	<line style="fill:none;stroke:#000000;stroke-miterlimit:1;" x1="75.044" y1="143.177" x2="73.728" y2="145.152"/>
	<line style="fill:none;stroke:#000000;stroke-miterlimit:1;" x1="73.728" y1="145.152" x2="68.132" y2="145.152"/>
	<line style="fill:none;stroke:#000000;stroke-miterlimit:1;" x1="68.132" y1="145.152" x2="67.474" y2="146.14"/>
	<line style="fill:none;stroke:#000000;stroke-miterlimit:1;" x1="67.474" y1="146.14" x2="66.158" y2="145.811"/>
	<line style="fill:none;stroke:#000000;stroke-miterlimit:1;" x1="66.158" y1="145.811" x2="64.841" y2="147.127"/>
	<line style="fill:none;stroke:#000000;stroke-miterlimit:1;" x1="64.841" y1="147.127" x2="65.17" y2="148.114"/>
	<line style="fill:none;stroke:#000000;stroke-miterlimit:1;" x1="65.17" y1="148.114" x2="66.816" y2="146.798"/>
	<line style="fill:none;stroke:#000000;stroke-miterlimit:1;" x1="66.816" y1="146.798" x2="67.474" y2="148.114"/>
	<line style="fill:none;stroke:#000000;stroke-miterlimit:1;" x1="67.474" y1="148.114" x2="76.361" y2="147.785"/>
	<line style="fill:none;stroke:#000000;stroke-miterlimit:1;" x1="76.361" y1="147.785" x2="78.007" y2="146.14"/>
	<line style="fill:none;stroke:#000000;stroke-miterlimit:1;" x1="78.007" y1="146.14" x2="79.981" y2="127.707"/>
	<line style="fill:none;stroke:#000000;stroke-miterlimit:1;" x1="79.981" y1="127.707" x2="78.994" y2="124.087"/>
	<line style="fill:none;stroke:#000000;stroke-miterlimit:1;" x1="78.994" y1="124.087" x2="73.728" y2="115.858"/>
	<line style="fill:none;stroke:#000000;stroke-miterlimit:1;" x1="81.627" y1="110.592" x2="90.185" y2="109.275"/>
	<line style="fill:none;stroke:#000000;stroke-miterlimit:1;" x1="90.185" y1="109.275" x2="100.717" y2="109.604"/>
	<line style="fill:none;stroke:#000000;stroke-miterlimit:1;" x1="100.717" y1="109.604" x2="102.692" y2="110.592"/>
	<line style="fill:none;stroke:#000000;stroke-miterlimit:1;" x1="102.692" y1="110.592" x2="104.009" y2="112.567"/>
	<line style="fill:none;stroke:#000000;stroke-miterlimit:1;" x1="104.009" y1="112.567" x2="111.908" y2="132.974"/>
	<line style="fill:none;stroke:#000000;stroke-miterlimit:1;" x1="111.908" y1="132.974" x2="114.871" y2="135.607"/>
	<line style="fill:none;stroke:#000000;stroke-miterlimit:1;" x1="114.871" y1="135.607" x2="126.72" y2="145.152"/>
	<line style="fill:none;stroke:#000000;stroke-miterlimit:1;" x1="126.72" y1="145.152" x2="128.695" y2="145.811"/>
	<line style="fill:none;stroke:#000000;stroke-miterlimit:1;" x1="128.695" y1="145.811" x2="130.011" y2="148.114"/>
	<line style="fill:none;stroke:#000000;stroke-miterlimit:1;" x1="130.011" y1="148.114" x2="126.72" y2="146.469"/>
	<line style="fill:none;stroke:#000000;stroke-miterlimit:1;" x1="126.72" y1="146.469" x2="124.087" y2="147.456"/>
	<line style="fill:none;stroke:#000000;stroke-miterlimit:1;" x1="124.087" y1="147.456" x2="112.237" y2="138.569"/>
	<line style="fill:none;stroke:#000000;stroke-miterlimit:1;" x1="112.237" y1="138.569" x2="108.617" y2="133.961"/>
	<line style="fill:none;stroke:#000000;stroke-miterlimit:1;" x1="108.617" y1="133.961" x2="105.655" y2="127.378"/>
	<line style="fill:none;stroke:#000000;stroke-miterlimit:1;" x1="105.655" y1="127.378" x2="100.059" y2="114.871"/>
	<line style="fill:none;stroke:#000000;stroke-miterlimit:1;" x1="100.059" y1="114.871" x2="98.414" y2="113.884"/>
	<line style="fill:none;stroke:#000000;stroke-miterlimit:1;" x1="98.414" y1="113.884" x2="88.868" y2="115.2"/>
	<line style="fill:none;stroke:#000000;stroke-miterlimit:1;" x1="88.868" y1="115.2" x2="80.64" y2="115.858"/>
	<line style="fill:none;stroke:#000000;stroke-miterlimit:1;" x1="258.541" y1="137.746" x2="254.263" y2="137.417"/>
	<line style="fill:none;stroke:#000000;stroke-miterlimit:1;" x1="254.263" y1="137.417" x2="249.654" y2="136.43"/>
	<line style="fill:none;stroke:#000000;stroke-miterlimit:1;" x1="249.654" y1="136.43" x2="246.034" y2="134.455"/>
	<line style="fill:none;stroke:#000000;stroke-miterlimit:1;" x1="246.034" y1="134.455" x2="243.072" y2="132.48"/>
	<line style="fill:none;stroke:#000000;stroke-miterlimit:1;" x1="243.072" y1="132.48" x2="237.806" y2="126.885"/>
	<line style="fill:none;stroke:#000000;stroke-miterlimit:1;" x1="237.806" y1="126.885" x2="232.868" y2="121.289"/>
	<line style="fill:none;stroke:#000000;stroke-miterlimit:1;" x1="232.868" y1="121.289" x2="228.261" y2="115.035"/>
	<line style="fill:none;stroke:#000000;stroke-miterlimit:1;" x1="228.261" y1="115.035" x2="225.956" y2="110.099"/>
	<line style="fill:none;stroke:#000000;stroke-miterlimit:1;" x1="225.956" y1="110.099" x2="224.311" y2="106.148"/>
	<line style="fill:none;stroke:#000000;stroke-miterlimit:1;" x1="224.311" y1="106.148" x2="222.007" y2="98.907"/>
	<line style="fill:none;stroke:#000000;stroke-miterlimit:1;" x1="222.007" y1="98.907" x2="221.349" y2="90.35"/>
	<line style="fill:none;stroke:#000000;stroke-miterlimit:1;" x1="221.349" y1="90.35" x2="222.007" y2="86.4"/>
	<line style="fill:none;stroke:#000000;stroke-miterlimit:1;" x1="222.007" y1="86.4" x2="224.311" y2="81.792"/>
	<line style="fill:none;stroke:#000000;stroke-miterlimit:1;" x1="224.311" y1="81.792" x2="228.261" y2="76.854"/>
	<line style="fill:none;stroke:#000000;stroke-miterlimit:1;" x1="228.261" y1="76.854" x2="222.007" y2="74.88"/>
	<line style="fill:none;stroke:#000000;stroke-miterlimit:1;" x1="222.007" y1="74.88" x2="217.398" y2="71.259"/>
	<line style="fill:none;stroke:#000000;stroke-miterlimit:1;" x1="217.398" y1="71.259" x2="209.828" y2="61.056"/>
	<line style="fill:none;stroke:#000000;stroke-miterlimit:1;" x1="209.828" y1="61.056" x2="215.095" y2="76.525"/>
	<line style="fill:none;stroke:#000000;stroke-miterlimit:1;" x1="215.095" y1="76.525" x2="218.715" y2="89.362"/>
	<line style="fill:none;stroke:#000000;stroke-miterlimit:1;" x1="218.715" y1="89.362" x2="219.373" y2="95.945"/>
	<line style="fill:none;stroke:#000000;stroke-miterlimit:1;" x1="219.373" y1="95.945" x2="220.361" y2="101.212"/>
	<line style="fill:none;stroke:#000000;stroke-miterlimit:1;" x1="220.361" y1="101.212" x2="222.007" y2="106.478"/>
	<line style="fill:none;stroke:#000000;stroke-miterlimit:1;" x1="222.007" y1="106.478" x2="223.652" y2="111.086"/>
	<line style="fill:none;stroke:#000000;stroke-miterlimit:1;" x1="223.652" y1="111.086" x2="226.285" y2="115.364"/>
	<line style="fill:none;stroke:#000000;stroke-miterlimit:1;" x1="226.285" y1="115.364" x2="228.919" y2="119.973"/>
	<line style="fill:none;stroke:#000000;stroke-miterlimit:1;" x1="228.919" y1="119.973" x2="232.21" y2="123.593"/>
	<line style="fill:none;stroke:#000000;stroke-miterlimit:1;" x1="232.21" y1="123.593" x2="235.831" y2="127.543"/>
	<line style="fill:none;stroke:#000000;stroke-miterlimit:1;" x1="235.831" y1="127.543" x2="238.793" y2="130.834"/>
	<line style="fill:none;stroke:#000000;stroke-miterlimit:1;" x1="238.793" y1="130.834" x2="241.097" y2="133.139"/>
	<line style="fill:none;stroke:#000000;stroke-miterlimit:1;" x1="241.097" y1="133.139" x2="242.742" y2="134.455"/>
	<line style="fill:none;stroke:#000000;stroke-miterlimit:1;" x1="242.742" y1="134.455" x2="235.831" y2="132.151"/>
	<line style="fill:none;stroke:#000000;stroke-miterlimit:1;" x1="235.831" y1="132.151" x2="228.59" y2="129.518"/>
	<line style="fill:none;stroke:#000000;stroke-miterlimit:1;" x1="228.59" y1="129.518" x2="222.007" y2="126.227"/>
	<line style="fill:none;stroke:#000000;stroke-miterlimit:1;" x1="222.007" y1="126.227" x2="215.095" y2="119.314"/>
	<line style="fill:none;stroke:#000000;stroke-miterlimit:1;" x1="215.095" y1="119.314" x2="211.145" y2="113.719"/>
	<line style="fill:none;stroke:#000000;stroke-miterlimit:1;" x1="211.145" y1="113.719" x2="208.183" y2="108.782"/>
	<line style="fill:none;stroke:#000000;stroke-miterlimit:1;" x1="208.183" y1="108.782" x2="205.221" y2="102.199"/>
	<line style="fill:none;stroke:#000000;stroke-miterlimit:1;" x1="205.221" y1="102.199" x2="202.587" y2="94.629"/>
	<line style="fill:none;stroke:#000000;stroke-miterlimit:1;" x1="202.587" y1="94.629" x2="200.612" y2="87.388"/>
	<line style="fill:none;stroke:#000000;stroke-miterlimit:1;" x1="200.612" y1="87.388" x2="199.625" y2="80.476"/>
	<line style="fill:none;stroke:#000000;stroke-miterlimit:1;" x1="199.625" y1="80.476" x2="198.967" y2="74.88"/>
	<line style="fill:none;stroke:#000000;stroke-miterlimit:1;" x1="198.967" y1="74.88" x2="199.625" y2="68.956"/>
	<line style="fill:none;stroke:#000000;stroke-miterlimit:1;" x1="199.625" y1="68.956" x2="201.271" y2="64.348"/>
	<line style="fill:none;stroke:#000000;stroke-miterlimit:1;" x1="201.271" y1="64.348" x2="206.866" y2="56.777"/>
	<line style="fill:none;stroke:#000000;stroke-miterlimit:1;" x1="206.866" y1="56.777" x2="209.828" y2="53.486"/>
	<line style="fill:none;stroke:#000000;stroke-miterlimit:1;" x1="209.828" y1="53.486" x2="202.258" y2="50.194"/>
	<line style="fill:none;stroke:#000000;stroke-miterlimit:1;" x1="202.258" y1="50.194" x2="196.334" y2="45.586"/>
	<line style="fill:none;stroke:#000000;stroke-miterlimit:1;" x1="196.334" y1="45.586" x2="189.751" y2="36.37"/>
	<line style="fill:none;stroke:#000000;stroke-miterlimit:1;" x1="189.751" y1="36.37" x2="193.7" y2="50.194"/>
	<line style="fill:none;stroke:#000000;stroke-miterlimit:1;" x1="193.7" y1="50.194" x2="197.65" y2="63.689"/>
	<line style="fill:none;stroke:#000000;stroke-miterlimit:1;" x1="197.65" y1="63.689" x2="196.992" y2="72.905"/>
	<line style="fill:none;stroke:#000000;stroke-miterlimit:1;" x1="196.992" y1="72.905" x2="197.321" y2="79.817"/>
	<line style="fill:none;stroke:#000000;stroke-miterlimit:1;" x1="197.321" y1="79.817" x2="198.638" y2="86.729"/>
	<line style="fill:none;stroke:#000000;stroke-miterlimit:1;" x1="198.638" y1="86.729" x2="199.625" y2="92.982"/>
	<line style="fill:none;stroke:#000000;stroke-miterlimit:1;" x1="199.625" y1="92.982" x2="201.6" y2="98.578"/>
	<line style="fill:none;stroke:#000000;stroke-miterlimit:1;" x1="201.6" y1="98.578" x2="203.574" y2="103.516"/>
	<line style="fill:none;stroke:#000000;stroke-miterlimit:1;" x1="203.574" y1="103.516" x2="205.879" y2="108.453"/>
	<line style="fill:none;stroke:#000000;stroke-miterlimit:1;" x1="205.879" y1="108.453" x2="209.17" y2="114.706"/>
	<line style="fill:none;stroke:#000000;stroke-miterlimit:1;" x1="209.17" y1="114.706" x2="217.398" y2="124.91"/>
	<line style="fill:none;stroke:#000000;stroke-miterlimit:1;" x1="217.398" y1="124.91" x2="210.815" y2="121.289"/>
	<line style="fill:none;stroke:#000000;stroke-miterlimit:1;" x1="210.815" y1="121.289" x2="204.562" y2="117.34"/>
	<line style="fill:none;stroke:#000000;stroke-miterlimit:1;" x1="204.562" y1="117.34" x2="197.65" y2="111.415"/>
	<line style="fill:none;stroke:#000000;stroke-miterlimit:1;" x1="197.65" y1="111.415" x2="190.738" y2="104.832"/>
	<line style="fill:none;stroke:#000000;stroke-miterlimit:1;" x1="190.738" y1="104.832" x2="186.13" y2="97.591"/>
	<line style="fill:none;stroke:#000000;stroke-miterlimit:1;" x1="186.13" y1="97.591" x2="183.826" y2="90.679"/>
	<line style="fill:none;stroke:#000000;stroke-miterlimit:1;" x1="183.826" y1="90.679" x2="182.181" y2="83.108"/>
	<line style="fill:none;stroke:#000000;stroke-miterlimit:1;" x1="182.181" y1="83.108" x2="182.839" y2="75.867"/>
	<line style="fill:none;stroke:#000000;stroke-miterlimit:1;" x1="182.839" y1="75.867" x2="183.826" y2="72.905"/>
	<line style="fill:none;stroke:#000000;stroke-miterlimit:1;" x1="183.826" y1="72.905" x2="185.801" y2="68.956"/>
	<line style="fill:none;stroke:#000000;stroke-miterlimit:1;" x1="185.801" y1="68.956" x2="188.434" y2="65.993"/>
	<line style="fill:none;stroke:#000000;stroke-miterlimit:1;" x1="188.434" y1="65.993" x2="182.181" y2="62.702"/>
	<line style="fill:none;stroke:#000000;stroke-miterlimit:1;" x1="182.181" y1="62.702" x2="176.256" y2="58.094"/>
	<line style="fill:none;stroke:#000000;stroke-miterlimit:1;" x1="176.256" y1="58.094" x2="168.686" y2="48.22"/>
	<line style="fill:none;stroke:#000000;stroke-miterlimit:1;" x1="168.686" y1="48.22" x2="173.623" y2="62.702"/>
	<line style="fill:none;stroke:#000000;stroke-miterlimit:1;" x1="173.623" y1="62.702" x2="178.889" y2="77.514"/>
	<line style="fill:none;stroke:#000000;stroke-miterlimit:1;" x1="178.889" y1="77.514" x2="179.876" y2="82.779"/>
	<line style="fill:none;stroke:#000000;stroke-miterlimit:1;" x1="179.876" y1="82.779" x2="180.205" y2="86.729"/>
	<line style="fill:none;stroke:#000000;stroke-miterlimit:1;" x1="180.205" y1="86.729" x2="181.852" y2="92.982"/>
	<line style="fill:none;stroke:#000000;stroke-miterlimit:1;" x1="181.852" y1="92.982" x2="185.143" y2="100.883"/>
	<line style="fill:none;stroke:#000000;stroke-miterlimit:1;" x1="185.143" y1="100.883" x2="187.775" y2="104.832"/>
	<line style="fill:none;stroke:#000000;stroke-miterlimit:1;" x1="187.775" y1="104.832" x2="191.726" y2="109.111"/>
	<line style="fill:none;stroke:#000000;stroke-miterlimit:1;" x1="191.726" y1="109.111" x2="195.017" y2="112.402"/>
	<line style="fill:none;stroke:#000000;stroke-miterlimit:1;" x1="195.017" y1="112.402" x2="199.625" y2="116.352"/>
	<line style="fill:none;stroke:#000000;stroke-miterlimit:1;" x1="199.625" y1="116.352" x2="204.232" y2="119.644"/>
	<line style="fill:none;stroke:#000000;stroke-miterlimit:1;" x1="204.232" y1="119.644" x2="210.157" y2="123.264"/>
	<line style="fill:none;stroke:#000000;stroke-miterlimit:1;" x1="210.157" y1="123.264" x2="216.74" y2="127.214"/>
	<line style="fill:none;stroke:#000000;stroke-miterlimit:1;" x1="216.74" y1="127.214" x2="232.21" y2="133.468"/>
	<line style="fill:none;stroke:#000000;stroke-miterlimit:1;" x1="232.21" y1="133.468" x2="245.047" y2="137.746"/>
	<line style="fill:none;stroke:#000000;stroke-miterlimit:1;" x1="245.047" y1="137.746" x2="254.592" y2="139.393"/>
	<line style="fill:none;stroke:#000000;stroke-miterlimit:1;" x1="254.592" y1="139.393" x2="258.541" y2="140.051"/>
	<line style="fill:none;stroke:#000000;stroke-miterlimit:1;" x1="258.541" y1="140.051" x2="258.541" y2="138.075"/>
</g>
</svg>
