<?xml version="1.0" encoding="iso-8859-1"?>
<!-- Generator: Adobe Illustrator 16.0.1, SVG Export Plug-In . SVG Version: 6.00 Build 0)  -->
<!DOCTYPE svg PUBLIC "-//W3C//DTD SVG 1.1//EN" "http://www.w3.org/Graphics/SVG/1.1/DTD/svg11.dtd">
<svg version="1.1" id="Ebene_1" xmlns="http://www.w3.org/2000/svg" xmlns:xlink="http://www.w3.org/1999/xlink" x="0px" y="0px"
	 width="249.449px" height="148.443px" viewBox="0 0 249.449 148.443" style="enable-background:new 0 0 249.449 148.443;"
	 xml:space="preserve">
<g>
	<line style="fill:none;stroke:#000000;stroke-miterlimit:1;" x1="58.917" y1="148.443" x2="0" y2="148.443"/>
	<line style="fill:none;stroke:#000000;stroke-miterlimit:1;" x1="0" y1="148.443" x2="0" y2="140.215"/>
	<line style="fill:none;stroke:#000000;stroke-miterlimit:1;" x1="0" y1="140.215" x2="17.774" y2="140.215"/>
	<line style="fill:none;stroke:#000000;stroke-miterlimit:1;" x1="17.774" y1="140.215" x2="12.178" y2="136.924"/>
	<line style="fill:none;stroke:#000000;stroke-miterlimit:1;" x1="12.178" y1="136.924" x2="8.558" y2="133.303"/>
	<line style="fill:none;stroke:#000000;stroke-miterlimit:1;" x1="8.558" y1="133.303" x2="6.254" y2="130.998"/>
	<line style="fill:none;stroke:#000000;stroke-miterlimit:1;" x1="6.254" y1="130.998" x2="3.95" y2="128.037"/>
	<line style="fill:none;stroke:#000000;stroke-miterlimit:1;" x1="3.95" y1="128.037" x2="1.646" y2="124.086"/>
	<line style="fill:none;stroke:#000000;stroke-miterlimit:1;" x1="1.646" y1="124.086" x2="0.658" y2="119.809"/>
	<line style="fill:none;stroke:#000000;stroke-miterlimit:1;" x1="0.658" y1="119.809" x2="0" y2="114.541"/>
	<line style="fill:none;stroke:#000000;stroke-miterlimit:1;" x1="0" y1="114.541" x2="0" y2="109.604"/>
	<line style="fill:none;stroke:#000000;stroke-miterlimit:1;" x1="0" y1="109.604" x2="0.987" y2="105.654"/>
	<line style="fill:none;stroke:#000000;stroke-miterlimit:1;" x1="0.987" y1="105.654" x2="1.975" y2="101.047"/>
	<line style="fill:none;stroke:#000000;stroke-miterlimit:1;" x1="1.975" y1="101.047" x2="5.267" y2="95.451"/>
	<line style="fill:none;stroke:#000000;stroke-miterlimit:1;" x1="5.267" y1="95.451" x2="7.899" y2="92.16"/>
	<line style="fill:none;stroke:#000000;stroke-miterlimit:1;" x1="7.899" y1="92.16" x2="10.862" y2="89.197"/>
	<line style="fill:none;stroke:#000000;stroke-miterlimit:1;" x1="10.862" y1="89.197" x2="14.482" y2="86.564"/>
	<line style="fill:none;stroke:#000000;stroke-miterlimit:1;" x1="14.482" y1="86.564" x2="19.749" y2="84.918"/>
	<line style="fill:none;stroke:#000000;stroke-miterlimit:1;" x1="19.749" y1="84.918" x2="22.382" y2="83.932"/>
	<line style="fill:none;stroke:#000000;stroke-miterlimit:1;" x1="22.382" y1="83.932" x2="27.648" y2="83.273"/>
	<line style="fill:none;stroke:#000000;stroke-miterlimit:1;" x1="27.648" y1="83.273" x2="34.56" y2="83.273"/>
	<line style="fill:none;stroke:#000000;stroke-miterlimit:1;" x1="34.56" y1="83.273" x2="42.13" y2="85.576"/>
	<line style="fill:none;stroke:#000000;stroke-miterlimit:1;" x1="42.13" y1="85.576" x2="46.409" y2="87.223"/>
	<line style="fill:none;stroke:#000000;stroke-miterlimit:1;" x1="46.409" y1="87.223" x2="50.03" y2="89.855"/>
	<line style="fill:none;stroke:#000000;stroke-miterlimit:1;" x1="50.03" y1="89.855" x2="53.321" y2="93.146"/>
	<line style="fill:none;stroke:#000000;stroke-miterlimit:1;" x1="53.321" y1="93.146" x2="57.6" y2="99.73"/>
	<line style="fill:none;stroke:#000000;stroke-miterlimit:1;" x1="57.6" y1="99.73" x2="59.575" y2="105.326"/>
	<line style="fill:none;stroke:#000000;stroke-miterlimit:1;" x1="59.575" y1="105.326" x2="60.562" y2="114.213"/>
	<line style="fill:none;stroke:#000000;stroke-miterlimit:1;" x1="60.562" y1="114.213" x2="59.575" y2="119.479"/>
	<line style="fill:none;stroke:#000000;stroke-miterlimit:1;" x1="59.575" y1="119.479" x2="56.942" y2="127.379"/>
	<line style="fill:none;stroke:#000000;stroke-miterlimit:1;" x1="56.942" y1="127.379" x2="53.979" y2="131.328"/>
	<line style="fill:none;stroke:#000000;stroke-miterlimit:1;" x1="53.979" y1="131.328" x2="51.346" y2="134.291"/>
	<line style="fill:none;stroke:#000000;stroke-miterlimit:1;" x1="51.346" y1="134.291" x2="47.067" y2="137.252"/>
	<line style="fill:none;stroke:#000000;stroke-miterlimit:1;" x1="47.067" y1="137.252" x2="42.13" y2="140.215"/>
	<line style="fill:none;stroke:#000000;stroke-miterlimit:1;" x1="42.13" y1="140.215" x2="58.917" y2="140.215"/>
	<line style="fill:none;stroke:#000000;stroke-miterlimit:1;" x1="58.917" y1="140.215" x2="58.917" y2="148.443"/>
	<line style="fill:none;stroke:#000000;stroke-miterlimit:1;" x1="27.977" y1="136.594" x2="24.686" y2="135.607"/>
	<line style="fill:none;stroke:#000000;stroke-miterlimit:1;" x1="24.686" y1="135.607" x2="20.407" y2="134.291"/>
	<line style="fill:none;stroke:#000000;stroke-miterlimit:1;" x1="20.407" y1="134.291" x2="16.128" y2="131.986"/>
	<line style="fill:none;stroke:#000000;stroke-miterlimit:1;" x1="16.128" y1="131.986" x2="13.824" y2="129.682"/>
	<line style="fill:none;stroke:#000000;stroke-miterlimit:1;" x1="13.824" y1="129.682" x2="11.849" y2="127.049"/>
	<line style="fill:none;stroke:#000000;stroke-miterlimit:1;" x1="11.849" y1="127.049" x2="10.204" y2="124.744"/>
	<line style="fill:none;stroke:#000000;stroke-miterlimit:1;" x1="10.204" y1="124.744" x2="9.216" y2="122.441"/>
	<line style="fill:none;stroke:#000000;stroke-miterlimit:1;" x1="9.216" y1="122.441" x2="7.899" y2="116.516"/>
	<line style="fill:none;stroke:#000000;stroke-miterlimit:1;" x1="7.899" y1="116.516" x2="7.899" y2="110.262"/>
	<line style="fill:none;stroke:#000000;stroke-miterlimit:1;" x1="7.899" y1="110.262" x2="10.204" y2="102.693"/>
	<line style="fill:none;stroke:#000000;stroke-miterlimit:1;" x1="10.204" y1="102.693" x2="13.166" y2="98.414"/>
	<line style="fill:none;stroke:#000000;stroke-miterlimit:1;" x1="13.166" y1="98.414" x2="15.141" y2="96.439"/>
	<line style="fill:none;stroke:#000000;stroke-miterlimit:1;" x1="15.141" y1="96.439" x2="16.786" y2="95.123"/>
	<line style="fill:none;stroke:#000000;stroke-miterlimit:1;" x1="16.786" y1="95.123" x2="20.078" y2="93.146"/>
	<line style="fill:none;stroke:#000000;stroke-miterlimit:1;" x1="20.078" y1="93.146" x2="28.306" y2="91.172"/>
	<line style="fill:none;stroke:#000000;stroke-miterlimit:1;" x1="28.306" y1="91.172" x2="31.927" y2="91.172"/>
	<line style="fill:none;stroke:#000000;stroke-miterlimit:1;" x1="31.927" y1="91.172" x2="37.193" y2="92.488"/>
	<line style="fill:none;stroke:#000000;stroke-miterlimit:1;" x1="37.193" y1="92.488" x2="43.447" y2="95.123"/>
	<line style="fill:none;stroke:#000000;stroke-miterlimit:1;" x1="43.447" y1="95.123" x2="46.08" y2="96.768"/>
	<line style="fill:none;stroke:#000000;stroke-miterlimit:1;" x1="46.08" y1="96.768" x2="48.384" y2="100.059"/>
	<line style="fill:none;stroke:#000000;stroke-miterlimit:1;" x1="48.384" y1="100.059" x2="50.688" y2="102.693"/>
	<line style="fill:none;stroke:#000000;stroke-miterlimit:1;" x1="50.688" y1="102.693" x2="52.663" y2="109.934"/>
	<line style="fill:none;stroke:#000000;stroke-miterlimit:1;" x1="52.663" y1="109.934" x2="52.663" y2="117.174"/>
	<line style="fill:none;stroke:#000000;stroke-miterlimit:1;" x1="52.663" y1="117.174" x2="52.005" y2="119.479"/>
	<line style="fill:none;stroke:#000000;stroke-miterlimit:1;" x1="52.005" y1="119.479" x2="51.346" y2="122.111"/>
	<line style="fill:none;stroke:#000000;stroke-miterlimit:1;" x1="51.346" y1="122.111" x2="47.396" y2="127.707"/>
	<line style="fill:none;stroke:#000000;stroke-miterlimit:1;" x1="47.396" y1="127.707" x2="46.409" y2="129.023"/>
	<line style="fill:none;stroke:#000000;stroke-miterlimit:1;" x1="46.409" y1="129.023" x2="43.118" y2="131.656"/>
	<line style="fill:none;stroke:#000000;stroke-miterlimit:1;" x1="43.118" y1="131.656" x2="39.497" y2="134.619"/>
	<line style="fill:none;stroke:#000000;stroke-miterlimit:1;" x1="39.497" y1="134.619" x2="32.256" y2="136.266"/>
	<line style="fill:none;stroke:#000000;stroke-miterlimit:1;" x1="32.256" y1="136.266" x2="27.977" y2="136.594"/>
	<line style="fill:none;stroke:#000000;stroke-miterlimit:1;" x1="16.457" y1="131.656" x2="103.68" y2="0.329"/>
	<line style="fill:none;stroke:#000000;stroke-miterlimit:1;" x1="103.68" y1="0.329" x2="151.734" y2="108.617"/>
	<line style="fill:none;stroke:#000000;stroke-miterlimit:1;" x1="103.68" y1="0.329" x2="122.771" y2="116.516"/>
	<line style="fill:none;stroke:#000000;stroke-miterlimit:1;" x1="121.454" y1="103.68" x2="146.469" y2="95.451"/>
	<line style="fill:none;stroke:#000000;stroke-miterlimit:1;" x1="133.961" y1="100.059" x2="138.898" y2="111.58"/>
	<line style="fill:none;stroke:#000000;stroke-miterlimit:1;" x1="189.998" y1="141.49" x2="212.379" y2="121.084"/>
	<line style="fill:none;stroke:#000000;stroke-miterlimit:1;" x1="212.379" y1="121.084" x2="233.445" y2="141.49"/>
	<line style="fill:none;stroke:#000000;stroke-miterlimit:1;" x1="242.002" y1="132.273" x2="222.254" y2="112.197"/>
	<line style="fill:none;stroke:#000000;stroke-miterlimit:1;" x1="222.254" y1="112.197" x2="243.318" y2="92.119"/>
	<line style="fill:none;stroke:#000000;stroke-miterlimit:1;" x1="234.104" y1="81.916" x2="213.037" y2="101.992"/>
	<line style="fill:none;stroke:#000000;stroke-miterlimit:1;" x1="213.037" y1="101.992" x2="191.973" y2="80.27"/>
	<line style="fill:none;stroke:#000000;stroke-miterlimit:1;" x1="182.756" y1="89.156" x2="203.164" y2="110.879"/>
	<line style="fill:none;stroke:#000000;stroke-miterlimit:1;" x1="203.164" y1="110.879" x2="181.439" y2="131.615"/>
	<line style="fill:none;stroke:#000000;stroke-miterlimit:1;" x1="209.088" y1="148.402" x2="218.305" y2="148.072"/>
	<line style="fill:none;stroke:#000000;stroke-miterlimit:1;" x1="218.305" y1="148.072" x2="223.57" y2="146.756"/>
	<line style="fill:none;stroke:#000000;stroke-miterlimit:1;" x1="223.57" y1="146.756" x2="228.178" y2="144.781"/>
	<line style="fill:none;stroke:#000000;stroke-miterlimit:1;" x1="228.178" y1="144.781" x2="233.445" y2="141.16"/>
	<line style="fill:none;stroke:#000000;stroke-miterlimit:1;" x1="233.445" y1="141.16" x2="237.395" y2="137.541"/>
	<line style="fill:none;stroke:#000000;stroke-miterlimit:1;" x1="237.395" y1="137.541" x2="241.344" y2="133.262"/>
	<line style="fill:none;stroke:#000000;stroke-miterlimit:1;" x1="241.344" y1="133.262" x2="243.977" y2="128.982"/>
	<line style="fill:none;stroke:#000000;stroke-miterlimit:1;" x1="243.977" y1="128.982" x2="246.611" y2="124.375"/>
	<line style="fill:none;stroke:#000000;stroke-miterlimit:1;" x1="246.611" y1="124.375" x2="247.928" y2="119.768"/>
	<line style="fill:none;stroke:#000000;stroke-miterlimit:1;" x1="247.928" y1="119.768" x2="248.586" y2="114.5"/>
	<line style="fill:none;stroke:#000000;stroke-miterlimit:1;" x1="248.586" y1="114.5" x2="248.586" y2="109.234"/>
	<line style="fill:none;stroke:#000000;stroke-miterlimit:1;" x1="248.586" y1="109.234" x2="246.939" y2="100.018"/>
	<line style="fill:none;stroke:#000000;stroke-miterlimit:1;" x1="246.939" y1="100.018" x2="244.965" y2="95.08"/>
	<line style="fill:none;stroke:#000000;stroke-miterlimit:1;" x1="244.965" y1="95.08" x2="242.002" y2="90.145"/>
	<line style="fill:none;stroke:#000000;stroke-miterlimit:1;" x1="242.002" y1="90.145" x2="238.711" y2="85.535"/>
	<line style="fill:none;stroke:#000000;stroke-miterlimit:1;" x1="238.711" y1="85.535" x2="233.773" y2="81.258"/>
	<line style="fill:none;stroke:#000000;stroke-miterlimit:1;" x1="233.773" y1="81.258" x2="229.824" y2="78.623"/>
	<line style="fill:none;stroke:#000000;stroke-miterlimit:1;" x1="229.824" y1="78.623" x2="225.875" y2="76.979"/>
	<line style="fill:none;stroke:#000000;stroke-miterlimit:1;" x1="225.875" y1="76.979" x2="222.254" y2="75.662"/>
	<line style="fill:none;stroke:#000000;stroke-miterlimit:1;" x1="222.254" y1="75.662" x2="217.316" y2="74.674"/>
	<line style="fill:none;stroke:#000000;stroke-miterlimit:1;" x1="217.316" y1="74.674" x2="212.379" y2="74.345"/>
	<line style="fill:none;stroke:#000000;stroke-miterlimit:1;" x1="212.379" y1="74.345" x2="205.797" y2="74.345"/>
	<line style="fill:none;stroke:#000000;stroke-miterlimit:1;" x1="205.797" y1="74.345" x2="200.531" y2="75.662"/>
	<line style="fill:none;stroke:#000000;stroke-miterlimit:1;" x1="200.531" y1="75.662" x2="195.594" y2="77.637"/>
	<line style="fill:none;stroke:#000000;stroke-miterlimit:1;" x1="195.594" y1="77.637" x2="190.984" y2="80.27"/>
	<line style="fill:none;stroke:#000000;stroke-miterlimit:1;" x1="190.984" y1="80.27" x2="186.707" y2="83.891"/>
	<line style="fill:none;stroke:#000000;stroke-miterlimit:1;" x1="186.707" y1="83.891" x2="182.756" y2="88.498"/>
	<line style="fill:none;stroke:#000000;stroke-miterlimit:1;" x1="182.756" y1="88.498" x2="179.137" y2="93.105"/>
	<line style="fill:none;stroke:#000000;stroke-miterlimit:1;" x1="179.137" y1="93.105" x2="177.49" y2="96.398"/>
	<line style="fill:none;stroke:#000000;stroke-miterlimit:1;" x1="177.49" y1="96.398" x2="176.174" y2="100.018"/>
	<line style="fill:none;stroke:#000000;stroke-miterlimit:1;" x1="176.174" y1="100.018" x2="174.857" y2="106.271"/>
	<line style="fill:none;stroke:#000000;stroke-miterlimit:1;" x1="174.857" y1="106.271" x2="174.857" y2="112.197"/>
	<line style="fill:none;stroke:#000000;stroke-miterlimit:1;" x1="174.857" y1="112.197" x2="175.516" y2="116.475"/>
	<line style="fill:none;stroke:#000000;stroke-miterlimit:1;" x1="175.516" y1="116.475" x2="176.174" y2="121.084"/>
	<line style="fill:none;stroke:#000000;stroke-miterlimit:1;" x1="176.174" y1="121.084" x2="177.82" y2="125.691"/>
	<line style="fill:none;stroke:#000000;stroke-miterlimit:1;" x1="177.82" y1="125.691" x2="180.123" y2="130.957"/>
	<line style="fill:none;stroke:#000000;stroke-miterlimit:1;" x1="180.123" y1="130.957" x2="184.074" y2="135.895"/>
	<line style="fill:none;stroke:#000000;stroke-miterlimit:1;" x1="184.074" y1="135.895" x2="188.023" y2="139.516"/>
	<line style="fill:none;stroke:#000000;stroke-miterlimit:1;" x1="188.023" y1="139.516" x2="192.631" y2="143.137"/>
	<line style="fill:none;stroke:#000000;stroke-miterlimit:1;" x1="192.631" y1="143.137" x2="197.238" y2="145.439"/>
	<line style="fill:none;stroke:#000000;stroke-miterlimit:1;" x1="197.238" y1="145.439" x2="202.834" y2="147.414"/>
	<line style="fill:none;stroke:#000000;stroke-miterlimit:1;" x1="202.834" y1="147.414" x2="209.088" y2="148.402"/>
	<line style="fill:none;stroke:#000000;stroke-miterlimit:1;" x1="249.449" y1="36.864" x2="171.771" y2="36.864"/>
	<line style="fill:none;stroke:#000000;stroke-miterlimit:1;" x1="171.771" y1="36.864" x2="172.76" y2="30.281"/>
	<line style="fill:none;stroke:#000000;stroke-miterlimit:1;" x1="172.76" y1="30.281" x2="173.746" y2="26.002"/>
	<line style="fill:none;stroke:#000000;stroke-miterlimit:1;" x1="173.746" y1="26.002" x2="175.393" y2="21.723"/>
	<line style="fill:none;stroke:#000000;stroke-miterlimit:1;" x1="175.393" y1="21.723" x2="177.695" y2="18.432"/>
	<line style="fill:none;stroke:#000000;stroke-miterlimit:1;" x1="177.695" y1="18.432" x2="179.672" y2="15.47"/>
	<line style="fill:none;stroke:#000000;stroke-miterlimit:1;" x1="179.672" y1="15.47" x2="182.305" y2="11.849"/>
	<line style="fill:none;stroke:#000000;stroke-miterlimit:1;" x1="182.305" y1="11.849" x2="185.266" y2="9.216"/>
	<line style="fill:none;stroke:#000000;stroke-miterlimit:1;" x1="185.266" y1="9.216" x2="188.887" y2="6.583"/>
	<line style="fill:none;stroke:#000000;stroke-miterlimit:1;" x1="188.887" y1="6.583" x2="191.85" y2="4.608"/>
	<line style="fill:none;stroke:#000000;stroke-miterlimit:1;" x1="191.85" y1="4.608" x2="196.129" y2="2.633"/>
	<line style="fill:none;stroke:#000000;stroke-miterlimit:1;" x1="196.129" y1="2.633" x2="200.406" y2="1.316"/>
	<line style="fill:none;stroke:#000000;stroke-miterlimit:1;" x1="200.406" y1="1.316" x2="203.369" y2="0.658"/>
	<line style="fill:none;stroke:#000000;stroke-miterlimit:1;" x1="203.369" y1="0.658" x2="208.635" y2="0"/>
	<line style="fill:none;stroke:#000000;stroke-miterlimit:1;" x1="208.635" y1="0" x2="212.586" y2="0"/>
	<line style="fill:none;stroke:#000000;stroke-miterlimit:1;" x1="212.586" y1="0" x2="216.205" y2="0.658"/>
	<line style="fill:none;stroke:#000000;stroke-miterlimit:1;" x1="216.205" y1="0.658" x2="220.156" y2="1.316"/>
	<line style="fill:none;stroke:#000000;stroke-miterlimit:1;" x1="220.156" y1="1.316" x2="224.434" y2="2.304"/>
	<line style="fill:none;stroke:#000000;stroke-miterlimit:1;" x1="224.434" y1="2.304" x2="227.396" y2="3.292"/>
	<line style="fill:none;stroke:#000000;stroke-miterlimit:1;" x1="227.396" y1="3.292" x2="231.346" y2="5.924"/>
	<line style="fill:none;stroke:#000000;stroke-miterlimit:1;" x1="231.346" y1="5.924" x2="234.639" y2="8.229"/>
	<line style="fill:none;stroke:#000000;stroke-miterlimit:1;" x1="234.639" y1="8.229" x2="237.6" y2="10.532"/>
	<line style="fill:none;stroke:#000000;stroke-miterlimit:1;" x1="237.6" y1="10.532" x2="240.232" y2="13.824"/>
	<line style="fill:none;stroke:#000000;stroke-miterlimit:1;" x1="240.232" y1="13.824" x2="242.867" y2="17.444"/>
	<line style="fill:none;stroke:#000000;stroke-miterlimit:1;" x1="242.867" y1="17.444" x2="245.17" y2="21.065"/>
	<line style="fill:none;stroke:#000000;stroke-miterlimit:1;" x1="245.17" y1="21.065" x2="246.816" y2="24.356"/>
	<line style="fill:none;stroke:#000000;stroke-miterlimit:1;" x1="246.816" y1="24.356" x2="248.133" y2="29.293"/>
	<line style="fill:none;stroke:#000000;stroke-miterlimit:1;" x1="248.133" y1="29.293" x2="249.121" y2="32.914"/>
	<line style="fill:none;stroke:#000000;stroke-miterlimit:1;" x1="249.121" y1="32.914" x2="249.449" y2="36.864"/>
</g>
</svg>
