<?xml version="1.0" encoding="iso-8859-1"?>
<!-- Generator: Adobe Illustrator 16.0.1, SVG Export Plug-In . SVG Version: 6.00 Build 0)  -->
<!DOCTYPE svg PUBLIC "-//W3C//DTD SVG 1.1//EN" "http://www.w3.org/Graphics/SVG/1.1/DTD/svg11.dtd">
<svg version="1.1" id="Ebene_1" xmlns="http://www.w3.org/2000/svg" xmlns:xlink="http://www.w3.org/1999/xlink" x="0px" y="0px"
	 width="195.328px" height="149.102px" viewBox="0 0 195.328 149.102" style="enable-background:new 0 0 195.328 149.102;"
	 xml:space="preserve">
<g>
	<line style="fill:none;stroke:#000000;stroke-miterlimit:1;" x1="26.326" y1="38.462" x2="82.271" y2="38.462"/>
	<line style="fill:none;stroke:#000000;stroke-miterlimit:1;" x1="82.271" y1="38.462" x2="82.271" y2="40.67"/>
	<line style="fill:none;stroke:#000000;stroke-miterlimit:1;" x1="82.271" y1="40.67" x2="84.479" y2="41.039"/>
	<line style="fill:none;stroke:#000000;stroke-miterlimit:1;" x1="84.479" y1="41.039" x2="87.976" y2="42.143"/>
	<line style="fill:none;stroke:#000000;stroke-miterlimit:1;" x1="87.976" y1="42.143" x2="90.368" y2="43.615"/>
	<line style="fill:none;stroke:#000000;stroke-miterlimit:1;" x1="90.368" y1="43.615" x2="93.497" y2="45.823"/>
	<line style="fill:none;stroke:#000000;stroke-miterlimit:1;" x1="93.497" y1="45.823" x2="96.257" y2="48.768"/>
	<line style="fill:none;stroke:#000000;stroke-miterlimit:1;" x1="96.257" y1="48.768" x2="98.833" y2="52.264"/>
	<line style="fill:none;stroke:#000000;stroke-miterlimit:1;" x1="98.833" y1="52.264" x2="100.674" y2="55.761"/>
	<line style="fill:none;stroke:#000000;stroke-miterlimit:1;" x1="100.674" y1="55.761" x2="102.33" y2="60.178"/>
	<line style="fill:none;stroke:#000000;stroke-miterlimit:1;" x1="102.33" y1="60.178" x2="103.434" y2="64.594"/>
	<line style="fill:none;stroke:#000000;stroke-miterlimit:1;" x1="103.434" y1="64.594" x2="103.986" y2="71.956"/>
	<line style="fill:none;stroke:#000000;stroke-miterlimit:1;" x1="103.986" y1="71.956" x2="103.434" y2="75.82"/>
	<line style="fill:none;stroke:#000000;stroke-miterlimit:1;" x1="103.434" y1="75.82" x2="101.777" y2="80.237"/>
	<line style="fill:none;stroke:#000000;stroke-miterlimit:1;" x1="101.777" y1="80.237" x2="99.754" y2="82.261"/>
	<line style="fill:none;stroke:#000000;stroke-miterlimit:1;" x1="99.754" y1="82.261" x2="98.097" y2="82.629"/>
	<line style="fill:none;stroke:#000000;stroke-miterlimit:1;" x1="98.097" y1="82.629" x2="95.521" y2="82.445"/>
	<line style="fill:none;stroke:#000000;stroke-miterlimit:1;" x1="95.521" y1="82.445" x2="93.497" y2="80.789"/>
	<line style="fill:none;stroke:#000000;stroke-miterlimit:1;" x1="93.497" y1="80.789" x2="92.576" y2="78.765"/>
	<line style="fill:none;stroke:#000000;stroke-miterlimit:1;" x1="92.576" y1="78.765" x2="92.208" y2="76.557"/>
	<line style="fill:none;stroke:#000000;stroke-miterlimit:1;" x1="92.208" y1="76.557" x2="92.024" y2="74.9"/>
	<line style="fill:none;stroke:#000000;stroke-miterlimit:1;" x1="92.024" y1="74.9" x2="92.576" y2="69.195"/>
	<line style="fill:none;stroke:#000000;stroke-miterlimit:1;" x1="92.576" y1="69.195" x2="93.312" y2="62.938"/>
	<line style="fill:none;stroke:#000000;stroke-miterlimit:1;" x1="93.312" y1="62.938" x2="92.76" y2="56.497"/>
	<line style="fill:none;stroke:#000000;stroke-miterlimit:1;" x1="92.76" y1="56.497" x2="91.104" y2="51.896"/>
	<line style="fill:none;stroke:#000000;stroke-miterlimit:1;" x1="91.104" y1="51.896" x2="88.712" y2="48.216"/>
	<line style="fill:none;stroke:#000000;stroke-miterlimit:1;" x1="88.712" y1="48.216" x2="86.319" y2="45.455"/>
	<line style="fill:none;stroke:#000000;stroke-miterlimit:1;" x1="86.319" y1="45.455" x2="83.559" y2="44.351"/>
	<line style="fill:none;stroke:#000000;stroke-miterlimit:1;" x1="83.559" y1="44.351" x2="82.271" y2="44.351"/>
	<line style="fill:none;stroke:#000000;stroke-miterlimit:1;" x1="82.271" y1="44.351" x2="82.271" y2="46.375"/>
	<line style="fill:none;stroke:#000000;stroke-miterlimit:1;" x1="82.271" y1="46.375" x2="74.91" y2="46.375"/>
	<line style="fill:none;stroke:#000000;stroke-miterlimit:1;" x1="74.91" y1="46.375" x2="74.91" y2="50.24"/>
	<line style="fill:none;stroke:#000000;stroke-miterlimit:1;" x1="74.91" y1="50.24" x2="64.052" y2="50.24"/>
	<line style="fill:none;stroke:#000000;stroke-miterlimit:1;" x1="64.052" y1="50.24" x2="64.052" y2="46.375"/>
	<line style="fill:none;stroke:#000000;stroke-miterlimit:1;" x1="64.052" y1="46.375" x2="44.177" y2="46.375"/>
	<line style="fill:none;stroke:#000000;stroke-miterlimit:1;" x1="44.177" y1="46.375" x2="44.177" y2="50.24"/>
	<line style="fill:none;stroke:#000000;stroke-miterlimit:1;" x1="44.177" y1="50.24" x2="33.687" y2="50.24"/>
	<line style="fill:none;stroke:#000000;stroke-miterlimit:1;" x1="33.687" y1="50.24" x2="33.687" y2="46.375"/>
	<line style="fill:none;stroke:#000000;stroke-miterlimit:1;" x1="33.687" y1="46.375" x2="26.326" y2="46.375"/>
	<line style="fill:none;stroke:#000000;stroke-miterlimit:1;" x1="29.638" y1="38.462" x2="36.815" y2="3.312"/>
	<line style="fill:none;stroke:#000000;stroke-miterlimit:1;" x1="36.815" y1="3.312" x2="38.104" y2="1.104"/>
	<line style="fill:none;stroke:#000000;stroke-miterlimit:1;" x1="38.104" y1="1.104" x2="39.024" y2="0.368"/>
	<line style="fill:none;stroke:#000000;stroke-miterlimit:1;" x1="39.024" y1="0.368" x2="40.128" y2="0"/>
	<line style="fill:none;stroke:#000000;stroke-miterlimit:1;" x1="40.128" y1="0" x2="41.784" y2="0"/>
	<line style="fill:none;stroke:#000000;stroke-miterlimit:1;" x1="41.784" y1="0" x2="43.44" y2="0.92"/>
	<line style="fill:none;stroke:#000000;stroke-miterlimit:1;" x1="43.44" y1="0.92" x2="43.809" y2="2.024"/>
	<line style="fill:none;stroke:#000000;stroke-miterlimit:1;" x1="43.809" y1="2.024" x2="43.809" y2="3.312"/>
	<line style="fill:none;stroke:#000000;stroke-miterlimit:1;" x1="36.631" y1="38.462" x2="43.993" y2="3.128"/>
	<line style="fill:none;stroke:#000000;stroke-miterlimit:1;" x1="43.993" y1="3.128" x2="44.913" y2="1.472"/>
	<line style="fill:none;stroke:#000000;stroke-miterlimit:1;" x1="44.913" y1="1.472" x2="45.833" y2="0.552"/>
	<line style="fill:none;stroke:#000000;stroke-miterlimit:1;" x1="45.833" y1="0.552" x2="47.489" y2="0.184"/>
	<line style="fill:none;stroke:#000000;stroke-miterlimit:1;" x1="47.489" y1="0.184" x2="49.146" y2="0.736"/>
	<line style="fill:none;stroke:#000000;stroke-miterlimit:1;" x1="49.146" y1="0.736" x2="50.065" y2="1.472"/>
	<line style="fill:none;stroke:#000000;stroke-miterlimit:1;" x1="50.065" y1="1.472" x2="50.618" y2="2.576"/>
	<line style="fill:none;stroke:#000000;stroke-miterlimit:1;" x1="43.256" y1="38.462" x2="50.434" y2="3.312"/>
	<line style="fill:none;stroke:#000000;stroke-miterlimit:1;" x1="50.434" y1="3.312" x2="51.17" y2="1.656"/>
	<line style="fill:none;stroke:#000000;stroke-miterlimit:1;" x1="51.17" y1="1.656" x2="52.458" y2="0.552"/>
	<line style="fill:none;stroke:#000000;stroke-miterlimit:1;" x1="52.458" y1="0.552" x2="53.93" y2="0.368"/>
	<line style="fill:none;stroke:#000000;stroke-miterlimit:1;" x1="53.93" y1="0.368" x2="55.586" y2="0.552"/>
	<line style="fill:none;stroke:#000000;stroke-miterlimit:1;" x1="55.586" y1="0.552" x2="56.875" y2="1.656"/>
	<line style="fill:none;stroke:#000000;stroke-miterlimit:1;" x1="56.875" y1="1.656" x2="57.243" y2="3.128"/>
	<line style="fill:none;stroke:#000000;stroke-miterlimit:1;" x1="49.881" y1="38.462" x2="57.059" y2="3.681"/>
	<line style="fill:none;stroke:#000000;stroke-miterlimit:1;" x1="57.059" y1="3.681" x2="58.163" y2="1.656"/>
	<line style="fill:none;stroke:#000000;stroke-miterlimit:1;" x1="58.163" y1="1.656" x2="59.451" y2="0.552"/>
	<line style="fill:none;stroke:#000000;stroke-miterlimit:1;" x1="59.451" y1="0.552" x2="61.659" y2="0.368"/>
	<line style="fill:none;stroke:#000000;stroke-miterlimit:1;" x1="61.659" y1="0.368" x2="62.396" y2="0.552"/>
	<line style="fill:none;stroke:#000000;stroke-miterlimit:1;" x1="62.396" y1="0.552" x2="63.5" y2="1.288"/>
	<line style="fill:none;stroke:#000000;stroke-miterlimit:1;" x1="63.5" y1="1.288" x2="64.052" y2="3.128"/>
	<line style="fill:none;stroke:#000000;stroke-miterlimit:1;" x1="56.875" y1="38.462" x2="63.868" y2="3.865"/>
	<line style="fill:none;stroke:#000000;stroke-miterlimit:1;" x1="63.868" y1="3.865" x2="64.604" y2="2.024"/>
	<line style="fill:none;stroke:#000000;stroke-miterlimit:1;" x1="64.604" y1="2.024" x2="65.34" y2="0.92"/>
	<line style="fill:none;stroke:#000000;stroke-miterlimit:1;" x1="65.34" y1="0.92" x2="66.996" y2="0.184"/>
	<line style="fill:none;stroke:#000000;stroke-miterlimit:1;" x1="66.996" y1="0.184" x2="69.021" y2="0.552"/>
	<line style="fill:none;stroke:#000000;stroke-miterlimit:1;" x1="69.021" y1="0.552" x2="70.493" y2="1.472"/>
	<line style="fill:none;stroke:#000000;stroke-miterlimit:1;" x1="70.493" y1="1.472" x2="71.045" y2="2.76"/>
	<line style="fill:none;stroke:#000000;stroke-miterlimit:1;" x1="64.052" y1="38.462" x2="70.677" y2="4.049"/>
	<line style="fill:none;stroke:#000000;stroke-miterlimit:1;" x1="70.677" y1="4.049" x2="71.229" y2="2.208"/>
	<line style="fill:none;stroke:#000000;stroke-miterlimit:1;" x1="71.229" y1="2.208" x2="72.333" y2="0.736"/>
	<line style="fill:none;stroke:#000000;stroke-miterlimit:1;" x1="72.333" y1="0.736" x2="74.173" y2="0.368"/>
	<line style="fill:none;stroke:#000000;stroke-miterlimit:1;" x1="74.173" y1="0.368" x2="74.542" y2="0.184"/>
	<line style="fill:none;stroke:#000000;stroke-miterlimit:1;" x1="74.542" y1="0.184" x2="76.198" y2="0.92"/>
	<line style="fill:none;stroke:#000000;stroke-miterlimit:1;" x1="76.198" y1="0.92" x2="77.302" y2="2.024"/>
	<line style="fill:none;stroke:#000000;stroke-miterlimit:1;" x1="77.302" y1="2.024" x2="77.302" y2="3.128"/>
	<line style="fill:none;stroke:#000000;stroke-miterlimit:1;" x1="70.309" y1="38.462" x2="77.302" y2="2.944"/>
	<line style="fill:none;stroke:#000000;stroke-miterlimit:1;" x1="77.302" y1="2.944" x2="78.038" y2="1.472"/>
	<line style="fill:none;stroke:#000000;stroke-miterlimit:1;" x1="78.038" y1="1.472" x2="78.958" y2="0.552"/>
	<line style="fill:none;stroke:#000000;stroke-miterlimit:1;" x1="78.958" y1="0.552" x2="80.062" y2="0.368"/>
	<line style="fill:none;stroke:#000000;stroke-miterlimit:1;" x1="80.062" y1="0.368" x2="81.719" y2="0.368"/>
	<line style="fill:none;stroke:#000000;stroke-miterlimit:1;" x1="81.719" y1="0.368" x2="83.191" y2="0.92"/>
	<line style="fill:none;stroke:#000000;stroke-miterlimit:1;" x1="83.191" y1="0.92" x2="83.927" y2="2.024"/>
	<line style="fill:none;stroke:#000000;stroke-miterlimit:1;" x1="83.927" y1="2.024" x2="84.295" y2="3.865"/>
	<line style="fill:none;stroke:#000000;stroke-miterlimit:1;" x1="84.295" y1="3.865" x2="77.118" y2="38.462"/>
	<line style="fill:none;stroke:#000000;stroke-miterlimit:1;" x1="77.118" y1="38.462" x2="26.326" y2="38.462"/>
	<line style="fill:none;stroke:#000000;stroke-miterlimit:1;" x1="26.326" y1="38.462" x2="26.326" y2="40.854"/>
	<line style="fill:none;stroke:#000000;stroke-miterlimit:1;" x1="26.326" y1="40.854" x2="23.75" y2="41.223"/>
	<line style="fill:none;stroke:#000000;stroke-miterlimit:1;" x1="23.75" y1="41.223" x2="20.253" y2="42.327"/>
	<line style="fill:none;stroke:#000000;stroke-miterlimit:1;" x1="20.253" y1="42.327" x2="17.676" y2="43.799"/>
	<line style="fill:none;stroke:#000000;stroke-miterlimit:1;" x1="17.676" y1="43.799" x2="14.732" y2="46.191"/>
	<line style="fill:none;stroke:#000000;stroke-miterlimit:1;" x1="14.732" y1="46.191" x2="11.971" y2="49.136"/>
	<line style="fill:none;stroke:#000000;stroke-miterlimit:1;" x1="11.971" y1="49.136" x2="7.739" y2="56.313"/>
	<line style="fill:none;stroke:#000000;stroke-miterlimit:1;" x1="7.739" y1="56.313" x2="6.451" y2="60.546"/>
	<line style="fill:none;stroke:#000000;stroke-miterlimit:1;" x1="6.451" y1="60.546" x2="5.162" y2="64.962"/>
	<line style="fill:none;stroke:#000000;stroke-miterlimit:1;" x1="5.162" y1="64.962" x2="4.61" y2="72.324"/>
	<line style="fill:none;stroke:#000000;stroke-miterlimit:1;" x1="4.61" y1="72.324" x2="5.162" y2="76.188"/>
	<line style="fill:none;stroke:#000000;stroke-miterlimit:1;" x1="5.162" y1="76.188" x2="7.002" y2="80.421"/>
	<line style="fill:none;stroke:#000000;stroke-miterlimit:1;" x1="7.002" y1="80.421" x2="9.027" y2="82.445"/>
	<line style="fill:none;stroke:#000000;stroke-miterlimit:1;" x1="9.027" y1="82.445" x2="10.499" y2="82.813"/>
	<line style="fill:none;stroke:#000000;stroke-miterlimit:1;" x1="10.499" y1="82.813" x2="13.076" y2="82.629"/>
	<line style="fill:none;stroke:#000000;stroke-miterlimit:1;" x1="13.076" y1="82.629" x2="15.284" y2="80.973"/>
	<line style="fill:none;stroke:#000000;stroke-miterlimit:1;" x1="15.284" y1="80.973" x2="16.02" y2="78.948"/>
	<line style="fill:none;stroke:#000000;stroke-miterlimit:1;" x1="16.02" y1="78.948" x2="16.388" y2="76.74"/>
	<line style="fill:none;stroke:#000000;stroke-miterlimit:1;" x1="16.388" y1="76.74" x2="16.572" y2="75.084"/>
	<line style="fill:none;stroke:#000000;stroke-miterlimit:1;" x1="16.572" y1="75.084" x2="16.02" y2="69.379"/>
	<line style="fill:none;stroke:#000000;stroke-miterlimit:1;" x1="16.02" y1="69.379" x2="15.1" y2="63.122"/>
	<line style="fill:none;stroke:#000000;stroke-miterlimit:1;" x1="15.1" y1="63.122" x2="15.652" y2="56.865"/>
	<line style="fill:none;stroke:#000000;stroke-miterlimit:1;" x1="15.652" y1="56.865" x2="17.124" y2="52.264"/>
	<line style="fill:none;stroke:#000000;stroke-miterlimit:1;" x1="17.124" y1="52.264" x2="19.517" y2="48.4"/>
	<line style="fill:none;stroke:#000000;stroke-miterlimit:1;" x1="19.517" y1="48.4" x2="21.909" y2="45.639"/>
	<line style="fill:none;stroke:#000000;stroke-miterlimit:1;" x1="21.909" y1="45.639" x2="24.485" y2="44.535"/>
	<line style="fill:none;stroke:#000000;stroke-miterlimit:1;" x1="24.485" y1="44.535" x2="26.326" y2="44.351"/>
	<line style="fill:none;stroke:#000000;stroke-miterlimit:1;" x1="26.326" y1="44.351" x2="26.326" y2="46.007"/>
	<line style="fill:none;stroke:#000000;stroke-miterlimit:1;" x1="54.85" y1="68.689" x2="52.642" y2="69.793"/>
	<line style="fill:none;stroke:#000000;stroke-miterlimit:1;" x1="52.642" y1="69.793" x2="50.986" y2="71.817"/>
	<line style="fill:none;stroke:#000000;stroke-miterlimit:1;" x1="50.986" y1="71.817" x2="50.434" y2="73.474"/>
	<line style="fill:none;stroke:#000000;stroke-miterlimit:1;" x1="50.434" y1="73.474" x2="50.065" y2="75.13"/>
	<line style="fill:none;stroke:#000000;stroke-miterlimit:1;" x1="50.065" y1="75.13" x2="50.618" y2="77.706"/>
	<line style="fill:none;stroke:#000000;stroke-miterlimit:1;" x1="50.618" y1="77.706" x2="51.906" y2="79.362"/>
	<line style="fill:none;stroke:#000000;stroke-miterlimit:1;" x1="51.906" y1="79.362" x2="53.194" y2="80.467"/>
	<line style="fill:none;stroke:#000000;stroke-miterlimit:1;" x1="53.194" y1="80.467" x2="55.402" y2="81.203"/>
	<line style="fill:none;stroke:#000000;stroke-miterlimit:1;" x1="55.402" y1="81.203" x2="57.059" y2="81.755"/>
	<line style="fill:none;stroke:#000000;stroke-miterlimit:1;" x1="57.059" y1="81.755" x2="59.083" y2="81.755"/>
	<line style="fill:none;stroke:#000000;stroke-miterlimit:1;" x1="59.083" y1="81.755" x2="61.292" y2="80.835"/>
	<line style="fill:none;stroke:#000000;stroke-miterlimit:1;" x1="61.292" y1="80.835" x2="63.132" y2="79.915"/>
	<line style="fill:none;stroke:#000000;stroke-miterlimit:1;" x1="63.132" y1="79.915" x2="64.236" y2="78.627"/>
	<line style="fill:none;stroke:#000000;stroke-miterlimit:1;" x1="64.236" y1="78.627" x2="65.524" y2="76.786"/>
	<line style="fill:none;stroke:#000000;stroke-miterlimit:1;" x1="65.524" y1="76.786" x2="66.444" y2="74.578"/>
	<line style="fill:none;stroke:#000000;stroke-miterlimit:1;" x1="66.444" y1="74.578" x2="66.996" y2="72.738"/>
	<line style="fill:none;stroke:#000000;stroke-miterlimit:1;" x1="66.996" y1="72.738" x2="67.18" y2="70.897"/>
	<line style="fill:none;stroke:#000000;stroke-miterlimit:1;" x1="67.18" y1="70.897" x2="66.996" y2="69.609"/>
	<line style="fill:none;stroke:#000000;stroke-miterlimit:1;" x1="66.996" y1="69.609" x2="66.628" y2="67.401"/>
	<line style="fill:none;stroke:#000000;stroke-miterlimit:1;" x1="66.628" y1="67.401" x2="65.708" y2="65.561"/>
	<line style="fill:none;stroke:#000000;stroke-miterlimit:1;" x1="65.708" y1="65.561" x2="64.236" y2="63.72"/>
	<line style="fill:none;stroke:#000000;stroke-miterlimit:1;" x1="64.236" y1="63.72" x2="62.764" y2="62.432"/>
	<line style="fill:none;stroke:#000000;stroke-miterlimit:1;" x1="62.764" y1="62.432" x2="61.476" y2="61.88"/>
	<line style="fill:none;stroke:#000000;stroke-miterlimit:1;" x1="61.476" y1="61.88" x2="60.187" y2="61.328"/>
	<line style="fill:none;stroke:#000000;stroke-miterlimit:1;" x1="60.187" y1="61.328" x2="58.347" y2="61.144"/>
	<line style="fill:none;stroke:#000000;stroke-miterlimit:1;" x1="58.347" y1="61.144" x2="56.875" y2="60.96"/>
	<line style="fill:none;stroke:#000000;stroke-miterlimit:1;" x1="56.875" y1="60.96" x2="55.034" y2="60.96"/>
	<line style="fill:none;stroke:#000000;stroke-miterlimit:1;" x1="55.034" y1="60.96" x2="52.826" y2="61.144"/>
	<line style="fill:none;stroke:#000000;stroke-miterlimit:1;" x1="52.826" y1="61.144" x2="50.434" y2="61.88"/>
	<line style="fill:none;stroke:#000000;stroke-miterlimit:1;" x1="50.434" y1="61.88" x2="48.409" y2="62.984"/>
	<line style="fill:none;stroke:#000000;stroke-miterlimit:1;" x1="48.409" y1="62.984" x2="47.121" y2="64.088"/>
	<line style="fill:none;stroke:#000000;stroke-miterlimit:1;" x1="47.121" y1="64.088" x2="45.649" y2="65.376"/>
	<line style="fill:none;stroke:#000000;stroke-miterlimit:1;" x1="45.649" y1="65.376" x2="44.544" y2="66.665"/>
	<line style="fill:none;stroke:#000000;stroke-miterlimit:1;" x1="44.544" y1="66.665" x2="43.44" y2="68.689"/>
	<line style="fill:none;stroke:#000000;stroke-miterlimit:1;" x1="43.44" y1="68.689" x2="42.336" y2="70.713"/>
	<line style="fill:none;stroke:#000000;stroke-miterlimit:1;" x1="42.336" y1="70.713" x2="41.968" y2="72.554"/>
	<line style="fill:none;stroke:#000000;stroke-miterlimit:1;" x1="41.968" y1="72.554" x2="41.6" y2="75.13"/>
	<line style="fill:none;stroke:#000000;stroke-miterlimit:1;" x1="41.6" y1="75.13" x2="41.416" y2="77.706"/>
	<line style="fill:none;stroke:#000000;stroke-miterlimit:1;" x1="41.416" y1="77.706" x2="41.6" y2="79.73"/>
	<line style="fill:none;stroke:#000000;stroke-miterlimit:1;" x1="41.6" y1="79.73" x2="41.784" y2="82.675"/>
	<line style="fill:none;stroke:#000000;stroke-miterlimit:1;" x1="41.784" y1="82.675" x2="42.888" y2="85.62"/>
	<line style="fill:none;stroke:#000000;stroke-miterlimit:1;" x1="42.888" y1="85.62" x2="44.544" y2="88.933"/>
	<line style="fill:none;stroke:#000000;stroke-miterlimit:1;" x1="44.544" y1="88.933" x2="47.489" y2="92.797"/>
	<line style="fill:none;stroke:#000000;stroke-miterlimit:1;" x1="47.489" y1="92.797" x2="52.09" y2="97.214"/>
	<line style="fill:none;stroke:#000000;stroke-miterlimit:1;" x1="52.09" y1="97.214" x2="58.715" y2="102.551"/>
	<line style="fill:none;stroke:#000000;stroke-miterlimit:1;" x1="58.715" y1="102.551" x2="73.069" y2="110.647"/>
	<line style="fill:none;stroke:#000000;stroke-miterlimit:1;" x1="0" y1="148.114" x2="0" y2="131.886"/>
	<line style="fill:none;stroke:#000000;stroke-miterlimit:1;" x1="0" y1="131.886" x2="110.156" y2="131.886"/>
	<line style="fill:none;stroke:#000000;stroke-miterlimit:1;" x1="110.156" y1="131.886" x2="110.156" y2="148.114"/>
	<line style="fill:none;stroke:#000000;stroke-miterlimit:1;" x1="110.156" y1="148.114" x2="0" y2="148.114"/>
	<line style="fill:none;stroke:#000000;stroke-miterlimit:1;" x1="32.948" y1="119.592" x2="45.734" y2="131.886"/>
	<line style="fill:none;stroke:#000000;stroke-miterlimit:1;" x1="77.208" y1="119.592" x2="64.421" y2="131.886"/>
	<line style="fill:none;stroke:#000000;stroke-miterlimit:1;" x1="45.243" y1="131.886" x2="45.734" y2="129.182"/>
	<line style="fill:none;stroke:#000000;stroke-miterlimit:1;" x1="45.734" y1="129.182" x2="46.718" y2="126.969"/>
	<line style="fill:none;stroke:#000000;stroke-miterlimit:1;" x1="46.718" y1="126.969" x2="48.439" y2="124.755"/>
	<line style="fill:none;stroke:#000000;stroke-miterlimit:1;" x1="48.439" y1="124.755" x2="49.668" y2="123.771"/>
	<line style="fill:none;stroke:#000000;stroke-miterlimit:1;" x1="49.668" y1="123.771" x2="51.636" y2="122.542"/>
	<line style="fill:none;stroke:#000000;stroke-miterlimit:1;" x1="51.636" y1="122.542" x2="54.34" y2="122.297"/>
	<line style="fill:none;stroke:#000000;stroke-miterlimit:1;" x1="54.34" y1="122.297" x2="56.307" y2="122.297"/>
	<line style="fill:none;stroke:#000000;stroke-miterlimit:1;" x1="56.307" y1="122.297" x2="58.274" y2="122.542"/>
	<line style="fill:none;stroke:#000000;stroke-miterlimit:1;" x1="58.274" y1="122.542" x2="59.996" y2="123.525"/>
	<line style="fill:none;stroke:#000000;stroke-miterlimit:1;" x1="59.996" y1="123.525" x2="61.717" y2="125.001"/>
	<line style="fill:none;stroke:#000000;stroke-miterlimit:1;" x1="61.717" y1="125.001" x2="62.946" y2="126.723"/>
	<line style="fill:none;stroke:#000000;stroke-miterlimit:1;" x1="62.946" y1="126.723" x2="63.684" y2="128.443"/>
	<line style="fill:none;stroke:#000000;stroke-miterlimit:1;" x1="63.684" y1="128.443" x2="64.176" y2="131.886"/>
	<line style="fill:none;stroke:#000000;stroke-miterlimit:1;" x1="144.209" y1="12.129" x2="142.898" y2="8.852"/>
	<line style="fill:none;stroke:#000000;stroke-miterlimit:1;" x1="142.898" y1="8.852" x2="140.277" y2="3.609"/>
	<line style="fill:none;stroke:#000000;stroke-miterlimit:1;" x1="140.277" y1="3.609" x2="138.639" y2="0.987"/>
	<line style="fill:none;stroke:#000000;stroke-miterlimit:1;" x1="138.639" y1="0.987" x2="182.876" y2="0.987"/>
	<line style="fill:none;stroke:#000000;stroke-miterlimit:1;" x1="182.876" y1="0.987" x2="180.255" y2="5.575"/>
	<line style="fill:none;stroke:#000000;stroke-miterlimit:1;" x1="180.255" y1="5.575" x2="178.289" y2="10.163"/>
	<line style="fill:none;stroke:#000000;stroke-miterlimit:1;" x1="178.289" y1="10.163" x2="177.634" y2="12.129"/>
	<line style="fill:none;stroke:#000000;stroke-miterlimit:1;" x1="138.966" y1="24.909" x2="128.808" y2="19.338"/>
	<line style="fill:none;stroke:#000000;stroke-miterlimit:1;" x1="128.808" y1="19.338" x2="126.515" y2="27.202"/>
	<line style="fill:none;stroke:#000000;stroke-miterlimit:1;" x1="126.515" y1="27.202" x2="131.757" y2="31.135"/>
	<line style="fill:none;stroke:#000000;stroke-miterlimit:1;" x1="131.757" y1="31.135" x2="135.361" y2="33.756"/>
	<line style="fill:none;stroke:#000000;stroke-miterlimit:1;" x1="135.361" y1="33.756" x2="140.277" y2="38.999"/>
	<line style="fill:none;stroke:#000000;stroke-miterlimit:1;" x1="182.876" y1="24.909" x2="192.707" y2="19.338"/>
	<line style="fill:none;stroke:#000000;stroke-miterlimit:1;" x1="192.707" y1="19.338" x2="195.328" y2="27.53"/>
	<line style="fill:none;stroke:#000000;stroke-miterlimit:1;" x1="195.328" y1="27.53" x2="190.741" y2="30.151"/>
	<line style="fill:none;stroke:#000000;stroke-miterlimit:1;" x1="190.741" y1="30.151" x2="185.498" y2="35.067"/>
	<line style="fill:none;stroke:#000000;stroke-miterlimit:1;" x1="185.498" y1="35.067" x2="181.894" y2="38.999"/>
	<line style="fill:none;stroke:#000000;stroke-miterlimit:1;" x1="146.176" y1="35.067" x2="146.831" y2="33.101"/>
	<line style="fill:none;stroke:#000000;stroke-miterlimit:1;" x1="146.831" y1="33.101" x2="148.142" y2="30.807"/>
	<line style="fill:none;stroke:#000000;stroke-miterlimit:1;" x1="148.142" y1="30.807" x2="150.107" y2="28.513"/>
	<line style="fill:none;stroke:#000000;stroke-miterlimit:1;" x1="150.107" y1="28.513" x2="152.729" y2="26.219"/>
	<line style="fill:none;stroke:#000000;stroke-miterlimit:1;" x1="152.729" y1="26.219" x2="157.316" y2="24.581"/>
	<line style="fill:none;stroke:#000000;stroke-miterlimit:1;" x1="157.316" y1="24.581" x2="160.266" y2="24.253"/>
	<line style="fill:none;stroke:#000000;stroke-miterlimit:1;" x1="160.266" y1="24.253" x2="163.87" y2="24.581"/>
	<line style="fill:none;stroke:#000000;stroke-miterlimit:1;" x1="163.87" y1="24.581" x2="167.803" y2="25.892"/>
	<line style="fill:none;stroke:#000000;stroke-miterlimit:1;" x1="167.803" y1="25.892" x2="171.079" y2="27.858"/>
	<line style="fill:none;stroke:#000000;stroke-miterlimit:1;" x1="171.079" y1="27.858" x2="172.718" y2="30.151"/>
	<line style="fill:none;stroke:#000000;stroke-miterlimit:1;" x1="172.718" y1="30.151" x2="174.356" y2="32.118"/>
	<line style="fill:none;stroke:#000000;stroke-miterlimit:1;" x1="174.356" y1="32.118" x2="175.667" y2="35.722"/>
	<line style="fill:none;stroke:#000000;stroke-miterlimit:1;" x1="175.667" y1="35.722" x2="170.424" y2="32.445"/>
	<line style="fill:none;stroke:#000000;stroke-miterlimit:1;" x1="170.424" y1="32.445" x2="166.492" y2="31.135"/>
	<line style="fill:none;stroke:#000000;stroke-miterlimit:1;" x1="166.492" y1="31.135" x2="163.215" y2="30.151"/>
	<line style="fill:none;stroke:#000000;stroke-miterlimit:1;" x1="163.215" y1="30.151" x2="160.594" y2="29.824"/>
	<line style="fill:none;stroke:#000000;stroke-miterlimit:1;" x1="160.594" y1="29.824" x2="157.316" y2="30.479"/>
	<line style="fill:none;stroke:#000000;stroke-miterlimit:1;" x1="157.316" y1="30.479" x2="154.04" y2="31.135"/>
	<line style="fill:none;stroke:#000000;stroke-miterlimit:1;" x1="154.04" y1="31.135" x2="150.107" y2="33.101"/>
	<line style="fill:none;stroke:#000000;stroke-miterlimit:1;" x1="150.107" y1="33.101" x2="147.486" y2="35.067"/>
	<line style="fill:none;stroke:#000000;stroke-miterlimit:1;" x1="147.486" y1="35.067" x2="146.176" y2="35.722"/>
	<line style="fill:none;stroke:#000000;stroke-miterlimit:1;" x1="148.142" y1="70.129" x2="153.385" y2="48.83"/>
	<line style="fill:none;stroke:#000000;stroke-miterlimit:1;" x1="153.385" y1="48.83" x2="155.679" y2="45.88"/>
	<line style="fill:none;stroke:#000000;stroke-miterlimit:1;" x1="155.679" y1="45.88" x2="157.972" y2="44.897"/>
	<line style="fill:none;stroke:#000000;stroke-miterlimit:1;" x1="157.972" y1="44.897" x2="160.594" y2="44.242"/>
	<line style="fill:none;stroke:#000000;stroke-miterlimit:1;" x1="160.594" y1="44.242" x2="164.198" y2="44.897"/>
	<line style="fill:none;stroke:#000000;stroke-miterlimit:1;" x1="164.198" y1="44.897" x2="166.819" y2="46.863"/>
	<line style="fill:none;stroke:#000000;stroke-miterlimit:1;" x1="166.819" y1="46.863" x2="168.13" y2="49.157"/>
	<line style="fill:none;stroke:#000000;stroke-miterlimit:1;" x1="168.13" y1="49.157" x2="173.701" y2="70.457"/>
	<line style="fill:none;stroke:#000000;stroke-miterlimit:1;" x1="161.249" y1="74.717" x2="156.334" y2="74.389"/>
	<line style="fill:none;stroke:#000000;stroke-miterlimit:1;" x1="156.334" y1="74.389" x2="154.04" y2="73.734"/>
	<line style="fill:none;stroke:#000000;stroke-miterlimit:1;" x1="154.04" y1="73.734" x2="152.073" y2="73.406"/>
	<line style="fill:none;stroke:#000000;stroke-miterlimit:1;" x1="152.073" y1="73.406" x2="148.797" y2="71.768"/>
	<line style="fill:none;stroke:#000000;stroke-miterlimit:1;" x1="148.797" y1="71.768" x2="146.503" y2="68.818"/>
	<line style="fill:none;stroke:#000000;stroke-miterlimit:1;" x1="146.503" y1="68.818" x2="144.537" y2="65.869"/>
	<line style="fill:none;stroke:#000000;stroke-miterlimit:1;" x1="144.537" y1="65.869" x2="143.227" y2="62.592"/>
	<line style="fill:none;stroke:#000000;stroke-miterlimit:1;" x1="143.227" y1="62.592" x2="142.243" y2="58.66"/>
	<line style="fill:none;stroke:#000000;stroke-miterlimit:1;" x1="142.243" y1="58.66" x2="140.933" y2="53.417"/>
	<line style="fill:none;stroke:#000000;stroke-miterlimit:1;" x1="140.933" y1="53.417" x2="138.966" y2="25.892"/>
	<line style="fill:none;stroke:#000000;stroke-miterlimit:1;" x1="138.966" y1="25.892" x2="139.294" y2="20.976"/>
	<line style="fill:none;stroke:#000000;stroke-miterlimit:1;" x1="139.294" y1="20.976" x2="139.949" y2="18.683"/>
	<line style="fill:none;stroke:#000000;stroke-miterlimit:1;" x1="139.949" y1="18.683" x2="140.277" y2="16.716"/>
	<line style="fill:none;stroke:#000000;stroke-miterlimit:1;" x1="140.277" y1="16.716" x2="141.915" y2="14.095"/>
	<line style="fill:none;stroke:#000000;stroke-miterlimit:1;" x1="141.915" y1="14.095" x2="143.882" y2="12.129"/>
	<line style="fill:none;stroke:#000000;stroke-miterlimit:1;" x1="143.882" y1="12.129" x2="147.158" y2="10.163"/>
	<line style="fill:none;stroke:#000000;stroke-miterlimit:1;" x1="147.158" y1="10.163" x2="150.107" y2="9.18"/>
	<line style="fill:none;stroke:#000000;stroke-miterlimit:1;" x1="150.107" y1="9.18" x2="152.729" y2="8.852"/>
	<line style="fill:none;stroke:#000000;stroke-miterlimit:1;" x1="152.729" y1="8.852" x2="160.594" y2="8.196"/>
	<line style="fill:none;stroke:#000000;stroke-miterlimit:1;" x1="160.594" y1="8.196" x2="169.769" y2="8.852"/>
	<line style="fill:none;stroke:#000000;stroke-miterlimit:1;" x1="169.769" y1="8.852" x2="173.701" y2="9.507"/>
	<line style="fill:none;stroke:#000000;stroke-miterlimit:1;" x1="173.701" y1="9.507" x2="176.978" y2="11.474"/>
	<line style="fill:none;stroke:#000000;stroke-miterlimit:1;" x1="176.978" y1="11.474" x2="178.944" y2="12.784"/>
	<line style="fill:none;stroke:#000000;stroke-miterlimit:1;" x1="178.944" y1="12.784" x2="180.582" y2="15.406"/>
	<line style="fill:none;stroke:#000000;stroke-miterlimit:1;" x1="180.582" y1="15.406" x2="182.221" y2="20.648"/>
	<line style="fill:none;stroke:#000000;stroke-miterlimit:1;" x1="182.221" y1="20.648" x2="182.549" y2="24.909"/>
	<line style="fill:none;stroke:#000000;stroke-miterlimit:1;" x1="182.549" y1="24.909" x2="180.91" y2="48.83"/>
	<line style="fill:none;stroke:#000000;stroke-miterlimit:1;" x1="180.91" y1="48.83" x2="180.255" y2="55.383"/>
	<line style="fill:none;stroke:#000000;stroke-miterlimit:1;" x1="180.255" y1="55.383" x2="178.289" y2="62.592"/>
	<line style="fill:none;stroke:#000000;stroke-miterlimit:1;" x1="178.289" y1="62.592" x2="176.978" y2="65.869"/>
	<line style="fill:none;stroke:#000000;stroke-miterlimit:1;" x1="176.978" y1="65.869" x2="175.012" y2="69.146"/>
	<line style="fill:none;stroke:#000000;stroke-miterlimit:1;" x1="175.012" y1="69.146" x2="173.701" y2="70.785"/>
	<line style="fill:none;stroke:#000000;stroke-miterlimit:1;" x1="173.701" y1="70.785" x2="171.735" y2="72.423"/>
	<line style="fill:none;stroke:#000000;stroke-miterlimit:1;" x1="171.735" y1="72.423" x2="169.441" y2="73.734"/>
	<line style="fill:none;stroke:#000000;stroke-miterlimit:1;" x1="169.441" y1="73.734" x2="166.492" y2="74.389"/>
	<line style="fill:none;stroke:#000000;stroke-miterlimit:1;" x1="166.492" y1="74.389" x2="161.249" y2="74.717"/>
	<line style="fill:none;stroke:#000000;stroke-miterlimit:1;" x1="154.163" y1="90.118" x2="154.163" y2="149.102"/>
	<line style="fill:none;stroke:#000000;stroke-miterlimit:1;" x1="154.163" y1="149.102" x2="167.271" y2="149.102"/>
	<line style="fill:none;stroke:#000000;stroke-miterlimit:1;" x1="167.271" y1="149.102" x2="167.271" y2="90.118"/>
	<line style="fill:none;stroke:#000000;stroke-miterlimit:1;" x1="167.271" y1="90.118" x2="154.163" y2="90.118"/>
</g>
</svg>
