<?xml version="1.0" encoding="iso-8859-1"?>
<!-- Generator: Adobe Illustrator 16.0.1, SVG Export Plug-In . SVG Version: 6.00 Build 0)  -->
<!DOCTYPE svg PUBLIC "-//W3C//DTD SVG 1.1//EN" "http://www.w3.org/Graphics/SVG/1.1/DTD/svg11.dtd">
<svg version="1.1" id="Ebene_1" xmlns="http://www.w3.org/2000/svg" xmlns:xlink="http://www.w3.org/1999/xlink" x="0px" y="0px"
	 width="47.643px" height="148.113px" viewBox="0 0 47.643 148.113" style="enable-background:new 0 0 47.643 148.113;"
	 xml:space="preserve">
<g>
	<line style="fill:none;stroke:#000000;stroke-miterlimit:1;" x1="18.227" y1="79.783" x2="30.289" y2="79.783"/>
	<line style="fill:none;stroke:#000000;stroke-miterlimit:1;" x1="30.289" y1="79.783" x2="35.156" y2="95.232"/>
	<line style="fill:none;stroke:#000000;stroke-miterlimit:1;" x1="35.156" y1="95.232" x2="13.571" y2="95.232"/>
	<line style="fill:none;stroke:#000000;stroke-miterlimit:1;" x1="13.571" y1="95.232" x2="18.227" y2="79.783"/>
	<line style="fill:none;stroke:#000000;stroke-miterlimit:1;" x1="27.75" y1="79.783" x2="35.369" y2="70.049"/>
	<line style="fill:none;stroke:#000000;stroke-miterlimit:1;" x1="35.369" y1="70.049" x2="37.908" y2="77.033"/>
	<line style="fill:none;stroke:#000000;stroke-miterlimit:1;" x1="37.908" y1="77.033" x2="37.484" y2="80.631"/>
	<line style="fill:none;stroke:#000000;stroke-miterlimit:1;" x1="37.484" y1="80.631" x2="38.119" y2="84.229"/>
	<line style="fill:none;stroke:#000000;stroke-miterlimit:1;" x1="38.119" y1="84.229" x2="39.812" y2="88.25"/>
	<line style="fill:none;stroke:#000000;stroke-miterlimit:1;" x1="39.812" y1="88.25" x2="41.506" y2="90.578"/>
	<line style="fill:none;stroke:#000000;stroke-miterlimit:1;" x1="41.506" y1="90.578" x2="42.986" y2="91.848"/>
	<line style="fill:none;stroke:#000000;stroke-miterlimit:1;" x1="42.986" y1="91.848" x2="44.045" y2="91.635"/>
	<line style="fill:none;stroke:#000000;stroke-miterlimit:1;" x1="44.045" y1="91.635" x2="44.469" y2="89.52"/>
	<line style="fill:none;stroke:#000000;stroke-miterlimit:1;" x1="44.469" y1="89.52" x2="44.469" y2="86.133"/>
	<line style="fill:none;stroke:#000000;stroke-miterlimit:1;" x1="44.469" y1="86.133" x2="44.258" y2="84.018"/>
	<line style="fill:none;stroke:#000000;stroke-miterlimit:1;" x1="44.258" y1="84.018" x2="43.41" y2="81.055"/>
	<line style="fill:none;stroke:#000000;stroke-miterlimit:1;" x1="43.41" y1="81.055" x2="41.93" y2="78.727"/>
	<line style="fill:none;stroke:#000000;stroke-miterlimit:1;" x1="41.93" y1="78.727" x2="41.082" y2="77.668"/>
	<line style="fill:none;stroke:#000000;stroke-miterlimit:1;" x1="41.082" y1="77.668" x2="39.602" y2="77.033"/>
	<line style="fill:none;stroke:#000000;stroke-miterlimit:1;" x1="39.602" y1="77.033" x2="39.178" y2="77.244"/>
	<line style="fill:none;stroke:#000000;stroke-miterlimit:1;" x1="39.178" y1="77.244" x2="38.332" y2="78.092"/>
	<line style="fill:none;stroke:#000000;stroke-miterlimit:1;" x1="39.812" y1="77.033" x2="36.85" y2="68.568"/>
	<line style="fill:none;stroke:#000000;stroke-miterlimit:1;" x1="36.85" y1="68.568" x2="36.639" y2="67.721"/>
	<line style="fill:none;stroke:#000000;stroke-miterlimit:1;" x1="36.639" y1="67.721" x2="36.215" y2="67.086"/>
	<line style="fill:none;stroke:#000000;stroke-miterlimit:1;" x1="36.215" y1="67.086" x2="35.58" y2="67.086"/>
	<line style="fill:none;stroke:#000000;stroke-miterlimit:1;" x1="35.58" y1="67.086" x2="25.846" y2="79.783"/>
	<line style="fill:none;stroke:#000000;stroke-miterlimit:1;" x1="21.612" y1="79.783" x2="13.147" y2="68.356"/>
	<line style="fill:none;stroke:#000000;stroke-miterlimit:1;" x1="13.147" y1="68.356" x2="12.512" y2="67.51"/>
	<line style="fill:none;stroke:#000000;stroke-miterlimit:1;" x1="12.512" y1="67.51" x2="12.089" y2="67.721"/>
	<line style="fill:none;stroke:#000000;stroke-miterlimit:1;" x1="12.089" y1="67.721" x2="11.666" y2="68.356"/>
	<line style="fill:none;stroke:#000000;stroke-miterlimit:1;" x1="11.666" y1="68.356" x2="8.068" y2="77.244"/>
	<line style="fill:none;stroke:#000000;stroke-miterlimit:1;" x1="8.068" y1="77.244" x2="6.164" y2="78.514"/>
	<line style="fill:none;stroke:#000000;stroke-miterlimit:1;" x1="6.164" y1="78.514" x2="4.894" y2="80.42"/>
	<line style="fill:none;stroke:#000000;stroke-miterlimit:1;" x1="4.894" y1="80.42" x2="3.835" y2="83.383"/>
	<line style="fill:none;stroke:#000000;stroke-miterlimit:1;" x1="3.835" y1="83.383" x2="3.413" y2="85.498"/>
	<line style="fill:none;stroke:#000000;stroke-miterlimit:1;" x1="3.413" y1="85.498" x2="3.201" y2="87.826"/>
	<line style="fill:none;stroke:#000000;stroke-miterlimit:1;" x1="3.201" y1="87.826" x2="3.413" y2="89.52"/>
	<line style="fill:none;stroke:#000000;stroke-miterlimit:1;" x1="3.413" y1="89.52" x2="3.624" y2="91"/>
	<line style="fill:none;stroke:#000000;stroke-miterlimit:1;" x1="3.624" y1="91" x2="4.259" y2="91.424"/>
	<line style="fill:none;stroke:#000000;stroke-miterlimit:1;" x1="4.259" y1="91.424" x2="6.375" y2="89.943"/>
	<line style="fill:none;stroke:#000000;stroke-miterlimit:1;" x1="6.375" y1="89.943" x2="7.856" y2="87.826"/>
	<line style="fill:none;stroke:#000000;stroke-miterlimit:1;" x1="7.856" y1="87.826" x2="8.915" y2="86.557"/>
	<line style="fill:none;stroke:#000000;stroke-miterlimit:1;" x1="8.915" y1="86.557" x2="9.973" y2="84.018"/>
	<line style="fill:none;stroke:#000000;stroke-miterlimit:1;" x1="9.973" y1="84.018" x2="10.185" y2="81.9"/>
	<line style="fill:none;stroke:#000000;stroke-miterlimit:1;" x1="10.185" y1="81.9" x2="10.396" y2="79.996"/>
	<line style="fill:none;stroke:#000000;stroke-miterlimit:1;" x1="10.396" y1="79.996" x2="10.185" y2="78.727"/>
	<line style="fill:none;stroke:#000000;stroke-miterlimit:1;" x1="10.185" y1="78.727" x2="9.55" y2="77.879"/>
	<line style="fill:none;stroke:#000000;stroke-miterlimit:1;" x1="9.55" y1="77.879" x2="9.126" y2="77.668"/>
	<line style="fill:none;stroke:#000000;stroke-miterlimit:1;" x1="9.126" y1="77.668" x2="8.068" y2="77.668"/>
	<line style="fill:none;stroke:#000000;stroke-miterlimit:1;" x1="9.55" y1="77.879" x2="12.301" y2="71.319"/>
	<line style="fill:none;stroke:#000000;stroke-miterlimit:1;" x1="12.301" y1="71.319" x2="12.724" y2="70.261"/>
	<line style="fill:none;stroke:#000000;stroke-miterlimit:1;" x1="12.724" y1="70.261" x2="13.359" y2="70.896"/>
	<line style="fill:none;stroke:#000000;stroke-miterlimit:1;" x1="13.359" y1="70.896" x2="19.919" y2="79.783"/>
	<line style="fill:none;stroke:#000000;stroke-miterlimit:1;" x1="24.364" y1="79.783" x2="24.364" y2="15.449"/>
	<line style="fill:none;stroke:#000000;stroke-miterlimit:1;" x1="24.364" y1="15.449" x2="25.633" y2="15.237"/>
	<line style="fill:none;stroke:#000000;stroke-miterlimit:1;" x1="25.633" y1="15.237" x2="26.48" y2="14.814"/>
	<line style="fill:none;stroke:#000000;stroke-miterlimit:1;" x1="26.48" y1="14.814" x2="27.75" y2="13.544"/>
	<line style="fill:none;stroke:#000000;stroke-miterlimit:1;" x1="27.75" y1="13.544" x2="28.385" y2="12.486"/>
	<line style="fill:none;stroke:#000000;stroke-miterlimit:1;" x1="28.385" y1="12.486" x2="29.02" y2="10.581"/>
	<line style="fill:none;stroke:#000000;stroke-miterlimit:1;" x1="29.02" y1="10.581" x2="29.23" y2="8.042"/>
	<line style="fill:none;stroke:#000000;stroke-miterlimit:1;" x1="29.23" y1="8.042" x2="29.443" y2="6.349"/>
	<line style="fill:none;stroke:#000000;stroke-miterlimit:1;" x1="29.443" y1="6.349" x2="29.654" y2="4.867"/>
	<line style="fill:none;stroke:#000000;stroke-miterlimit:1;" x1="29.654" y1="4.867" x2="30.713" y2="3.386"/>
	<line style="fill:none;stroke:#000000;stroke-miterlimit:1;" x1="30.713" y1="3.386" x2="31.559" y2="2.962"/>
	<line style="fill:none;stroke:#000000;stroke-miterlimit:1;" x1="31.559" y1="2.962" x2="33.041" y2="2.751"/>
	<line style="fill:none;stroke:#000000;stroke-miterlimit:1;" x1="33.041" y1="2.751" x2="34.311" y2="2.328"/>
	<line style="fill:none;stroke:#000000;stroke-miterlimit:1;" x1="34.311" y1="2.328" x2="33.887" y2="1.693"/>
	<line style="fill:none;stroke:#000000;stroke-miterlimit:1;" x1="33.887" y1="1.693" x2="28.385" y2="0.423"/>
	<line style="fill:none;stroke:#000000;stroke-miterlimit:1;" x1="28.385" y1="0.423" x2="24.364" y2="0"/>
	<line style="fill:none;stroke:#000000;stroke-miterlimit:1;" x1="24.364" y1="0" x2="18.65" y2="0.423"/>
	<line style="fill:none;stroke:#000000;stroke-miterlimit:1;" x1="18.65" y1="0.423" x2="13.994" y2="1.27"/>
	<line style="fill:none;stroke:#000000;stroke-miterlimit:1;" x1="13.994" y1="1.27" x2="13.994" y2="2.328"/>
	<line style="fill:none;stroke:#000000;stroke-miterlimit:1;" x1="13.994" y1="2.328" x2="15.264" y2="2.54"/>
	<line style="fill:none;stroke:#000000;stroke-miterlimit:1;" x1="15.264" y1="2.54" x2="17.38" y2="3.809"/>
	<line style="fill:none;stroke:#000000;stroke-miterlimit:1;" x1="17.38" y1="3.809" x2="18.015" y2="4.656"/>
	<line style="fill:none;stroke:#000000;stroke-miterlimit:1;" x1="18.015" y1="4.656" x2="18.438" y2="5.502"/>
	<line style="fill:none;stroke:#000000;stroke-miterlimit:1;" x1="18.438" y1="5.502" x2="18.861" y2="8.253"/>
	<line style="fill:none;stroke:#000000;stroke-miterlimit:1;" x1="18.861" y1="8.253" x2="18.861" y2="9.946"/>
	<line style="fill:none;stroke:#000000;stroke-miterlimit:1;" x1="18.861" y1="9.946" x2="19.496" y2="12.274"/>
	<line style="fill:none;stroke:#000000;stroke-miterlimit:1;" x1="19.496" y1="12.274" x2="19.919" y2="13.544"/>
	<line style="fill:none;stroke:#000000;stroke-miterlimit:1;" x1="19.919" y1="13.544" x2="21.824" y2="15.025"/>
	<line style="fill:none;stroke:#000000;stroke-miterlimit:1;" x1="21.824" y1="15.025" x2="23.306" y2="15.449"/>
	<line style="fill:none;stroke:#000000;stroke-miterlimit:1;" x1="23.306" y1="15.449" x2="23.094" y2="79.783"/>
	<line style="fill:none;stroke:#000000;stroke-miterlimit:1;" x1="25.633" y1="79.783" x2="35.369" y2="37.67"/>
	<line style="fill:none;stroke:#000000;stroke-miterlimit:1;" x1="35.369" y1="37.67" x2="36.426" y2="37.67"/>
	<line style="fill:none;stroke:#000000;stroke-miterlimit:1;" x1="36.426" y1="37.67" x2="37.273" y2="37.67"/>
	<line style="fill:none;stroke:#000000;stroke-miterlimit:1;" x1="37.273" y1="37.67" x2="38.754" y2="36.612"/>
	<line style="fill:none;stroke:#000000;stroke-miterlimit:1;" x1="38.754" y1="36.612" x2="39.812" y2="35.765"/>
	<line style="fill:none;stroke:#000000;stroke-miterlimit:1;" x1="39.812" y1="35.765" x2="40.658" y2="34.072"/>
	<line style="fill:none;stroke:#000000;stroke-miterlimit:1;" x1="40.658" y1="34.072" x2="41.506" y2="31.533"/>
	<line style="fill:none;stroke:#000000;stroke-miterlimit:1;" x1="41.506" y1="31.533" x2="41.717" y2="29.839"/>
	<line style="fill:none;stroke:#000000;stroke-miterlimit:1;" x1="41.717" y1="29.839" x2="42.352" y2="28.358"/>
	<line style="fill:none;stroke:#000000;stroke-miterlimit:1;" x1="42.352" y1="28.358" x2="44.045" y2="27.3"/>
	<line style="fill:none;stroke:#000000;stroke-miterlimit:1;" x1="44.045" y1="27.3" x2="44.893" y2="27.088"/>
	<line style="fill:none;stroke:#000000;stroke-miterlimit:1;" x1="44.893" y1="27.088" x2="46.373" y2="27.088"/>
	<line style="fill:none;stroke:#000000;stroke-miterlimit:1;" x1="46.373" y1="27.088" x2="47.643" y2="26.877"/>
	<line style="fill:none;stroke:#000000;stroke-miterlimit:1;" x1="47.643" y1="26.877" x2="47.432" y2="26.242"/>
	<line style="fill:none;stroke:#000000;stroke-miterlimit:1;" x1="47.432" y1="26.242" x2="40.447" y2="23.279"/>
	<line style="fill:none;stroke:#000000;stroke-miterlimit:1;" x1="40.447" y1="23.279" x2="37.484" y2="22.221"/>
	<line style="fill:none;stroke:#000000;stroke-miterlimit:1;" x1="37.484" y1="22.221" x2="32.406" y2="21.798"/>
	<line style="fill:none;stroke:#000000;stroke-miterlimit:1;" x1="32.406" y1="21.798" x2="27.961" y2="21.586"/>
	<line style="fill:none;stroke:#000000;stroke-miterlimit:1;" x1="27.961" y1="21.586" x2="27.75" y2="22.644"/>
	<line style="fill:none;stroke:#000000;stroke-miterlimit:1;" x1="27.75" y1="22.644" x2="28.809" y2="23.067"/>
	<line style="fill:none;stroke:#000000;stroke-miterlimit:1;" x1="28.809" y1="23.067" x2="30.713" y2="24.76"/>
	<line style="fill:none;stroke:#000000;stroke-miterlimit:1;" x1="30.713" y1="24.76" x2="31.348" y2="25.819"/>
	<line style="fill:none;stroke:#000000;stroke-miterlimit:1;" x1="31.348" y1="25.819" x2="31.559" y2="26.665"/>
	<line style="fill:none;stroke:#000000;stroke-miterlimit:1;" x1="31.559" y1="26.665" x2="30.924" y2="29.205"/>
	<line style="fill:none;stroke:#000000;stroke-miterlimit:1;" x1="30.924" y1="29.205" x2="30.713" y2="31.109"/>
	<line style="fill:none;stroke:#000000;stroke-miterlimit:1;" x1="30.713" y1="31.109" x2="30.713" y2="33.437"/>
	<line style="fill:none;stroke:#000000;stroke-miterlimit:1;" x1="30.713" y1="33.437" x2="30.924" y2="34.707"/>
	<line style="fill:none;stroke:#000000;stroke-miterlimit:1;" x1="30.924" y1="34.707" x2="32.406" y2="36.823"/>
	<line style="fill:none;stroke:#000000;stroke-miterlimit:1;" x1="32.406" y1="36.823" x2="33.887" y2="37.458"/>
	<line style="fill:none;stroke:#000000;stroke-miterlimit:1;" x1="33.887" y1="37.458" x2="24.576" y2="79.783"/>
	<line style="fill:none;stroke:#000000;stroke-miterlimit:1;" x1="22.459" y1="79.783" x2="12.936" y2="37.67"/>
	<line style="fill:none;stroke:#000000;stroke-miterlimit:1;" x1="12.936" y1="37.67" x2="11.877" y2="37.67"/>
	<line style="fill:none;stroke:#000000;stroke-miterlimit:1;" x1="11.877" y1="37.67" x2="11.031" y2="37.67"/>
	<line style="fill:none;stroke:#000000;stroke-miterlimit:1;" x1="11.031" y1="37.67" x2="9.55" y2="36.612"/>
	<line style="fill:none;stroke:#000000;stroke-miterlimit:1;" x1="9.55" y1="36.612" x2="8.492" y2="35.765"/>
	<line style="fill:none;stroke:#000000;stroke-miterlimit:1;" x1="8.492" y1="35.765" x2="7.645" y2="34.072"/>
	<line style="fill:none;stroke:#000000;stroke-miterlimit:1;" x1="7.645" y1="34.072" x2="6.798" y2="31.533"/>
	<line style="fill:none;stroke:#000000;stroke-miterlimit:1;" x1="6.798" y1="31.533" x2="6.798" y2="29.839"/>
	<line style="fill:none;stroke:#000000;stroke-miterlimit:1;" x1="6.798" y1="29.839" x2="5.952" y2="28.358"/>
	<line style="fill:none;stroke:#000000;stroke-miterlimit:1;" x1="5.952" y1="28.358" x2="4.259" y2="27.088"/>
	<line style="fill:none;stroke:#000000;stroke-miterlimit:1;" x1="4.259" y1="27.088" x2="3.413" y2="27.088"/>
	<line style="fill:none;stroke:#000000;stroke-miterlimit:1;" x1="3.413" y1="27.088" x2="1.931" y2="27.088"/>
	<line style="fill:none;stroke:#000000;stroke-miterlimit:1;" x1="1.931" y1="27.088" x2="0.661" y2="26.877"/>
	<line style="fill:none;stroke:#000000;stroke-miterlimit:1;" x1="0.661" y1="26.877" x2="0.873" y2="26.242"/>
	<line style="fill:none;stroke:#000000;stroke-miterlimit:1;" x1="0.873" y1="26.242" x2="5.952" y2="23.914"/>
	<line style="fill:none;stroke:#000000;stroke-miterlimit:1;" x1="5.952" y1="23.914" x2="9.55" y2="22.644"/>
	<line style="fill:none;stroke:#000000;stroke-miterlimit:1;" x1="9.55" y1="22.644" x2="15.898" y2="21.798"/>
	<line style="fill:none;stroke:#000000;stroke-miterlimit:1;" x1="15.898" y1="21.798" x2="20.343" y2="21.586"/>
	<line style="fill:none;stroke:#000000;stroke-miterlimit:1;" x1="20.343" y1="21.586" x2="20.554" y2="22.644"/>
	<line style="fill:none;stroke:#000000;stroke-miterlimit:1;" x1="20.554" y1="22.644" x2="19.496" y2="23.067"/>
	<line style="fill:none;stroke:#000000;stroke-miterlimit:1;" x1="19.496" y1="23.067" x2="17.591" y2="24.76"/>
	<line style="fill:none;stroke:#000000;stroke-miterlimit:1;" x1="17.591" y1="24.76" x2="16.957" y2="25.819"/>
	<line style="fill:none;stroke:#000000;stroke-miterlimit:1;" x1="16.957" y1="25.819" x2="16.745" y2="26.665"/>
	<line style="fill:none;stroke:#000000;stroke-miterlimit:1;" x1="16.745" y1="26.665" x2="17.38" y2="29.205"/>
	<line style="fill:none;stroke:#000000;stroke-miterlimit:1;" x1="17.38" y1="29.205" x2="17.591" y2="31.109"/>
	<line style="fill:none;stroke:#000000;stroke-miterlimit:1;" x1="17.591" y1="31.109" x2="17.591" y2="33.86"/>
	<line style="fill:none;stroke:#000000;stroke-miterlimit:1;" x1="17.591" y1="33.86" x2="17.591" y2="34.707"/>
	<line style="fill:none;stroke:#000000;stroke-miterlimit:1;" x1="17.591" y1="34.707" x2="16.11" y2="36.823"/>
	<line style="fill:none;stroke:#000000;stroke-miterlimit:1;" x1="16.11" y1="36.823" x2="14.629" y2="37.458"/>
	<line style="fill:none;stroke:#000000;stroke-miterlimit:1;" x1="14.629" y1="37.458" x2="23.306" y2="79.783"/>
	<line style="fill:none;stroke:#000000;stroke-miterlimit:1;" x1="9.735" y1="143.67" x2="24.125" y2="130.549"/>
	<line style="fill:none;stroke:#000000;stroke-miterlimit:1;" x1="24.125" y1="130.549" x2="37.67" y2="143.67"/>
	<line style="fill:none;stroke:#000000;stroke-miterlimit:1;" x1="43.172" y1="137.744" x2="30.475" y2="124.834"/>
	<line style="fill:none;stroke:#000000;stroke-miterlimit:1;" x1="30.475" y1="124.834" x2="44.02" y2="111.926"/>
	<line style="fill:none;stroke:#000000;stroke-miterlimit:1;" x1="38.094" y1="105.365" x2="24.549" y2="118.273"/>
	<line style="fill:none;stroke:#000000;stroke-miterlimit:1;" x1="24.549" y1="118.273" x2="11.004" y2="104.307"/>
	<line style="fill:none;stroke:#000000;stroke-miterlimit:1;" x1="5.079" y1="110.021" x2="18.2" y2="123.988"/>
	<line style="fill:none;stroke:#000000;stroke-miterlimit:1;" x1="18.2" y1="123.988" x2="4.232" y2="137.32"/>
	<line style="fill:none;stroke:#000000;stroke-miterlimit:1;" x1="22.009" y1="148.113" x2="27.936" y2="147.902"/>
	<line style="fill:none;stroke:#000000;stroke-miterlimit:1;" x1="27.936" y1="147.902" x2="31.32" y2="147.057"/>
	<line style="fill:none;stroke:#000000;stroke-miterlimit:1;" x1="31.32" y1="147.057" x2="34.283" y2="145.787"/>
	<line style="fill:none;stroke:#000000;stroke-miterlimit:1;" x1="34.283" y1="145.787" x2="37.67" y2="143.459"/>
	<line style="fill:none;stroke:#000000;stroke-miterlimit:1;" x1="37.67" y1="143.459" x2="40.209" y2="141.131"/>
	<line style="fill:none;stroke:#000000;stroke-miterlimit:1;" x1="40.209" y1="141.131" x2="42.748" y2="138.379"/>
	<line style="fill:none;stroke:#000000;stroke-miterlimit:1;" x1="42.748" y1="138.379" x2="44.441" y2="135.629"/>
	<line style="fill:none;stroke:#000000;stroke-miterlimit:1;" x1="44.441" y1="135.629" x2="46.135" y2="132.666"/>
	<line style="fill:none;stroke:#000000;stroke-miterlimit:1;" x1="46.135" y1="132.666" x2="46.982" y2="129.703"/>
	<line style="fill:none;stroke:#000000;stroke-miterlimit:1;" x1="46.982" y1="129.703" x2="47.404" y2="126.316"/>
	<line style="fill:none;stroke:#000000;stroke-miterlimit:1;" x1="47.404" y1="126.316" x2="47.404" y2="122.93"/>
	<line style="fill:none;stroke:#000000;stroke-miterlimit:1;" x1="47.404" y1="122.93" x2="46.348" y2="117.004"/>
	<line style="fill:none;stroke:#000000;stroke-miterlimit:1;" x1="46.348" y1="117.004" x2="45.076" y2="113.83"/>
	<line style="fill:none;stroke:#000000;stroke-miterlimit:1;" x1="45.076" y1="113.83" x2="43.172" y2="110.656"/>
	<line style="fill:none;stroke:#000000;stroke-miterlimit:1;" x1="43.172" y1="110.656" x2="41.057" y2="107.693"/>
	<line style="fill:none;stroke:#000000;stroke-miterlimit:1;" x1="41.057" y1="107.693" x2="37.881" y2="104.941"/>
	<line style="fill:none;stroke:#000000;stroke-miterlimit:1;" x1="37.881" y1="104.941" x2="35.342" y2="103.248"/>
	<line style="fill:none;stroke:#000000;stroke-miterlimit:1;" x1="35.342" y1="103.248" x2="32.803" y2="102.191"/>
	<line style="fill:none;stroke:#000000;stroke-miterlimit:1;" x1="32.803" y1="102.191" x2="30.475" y2="101.344"/>
	<line style="fill:none;stroke:#000000;stroke-miterlimit:1;" x1="30.475" y1="101.344" x2="27.301" y2="100.709"/>
	<line style="fill:none;stroke:#000000;stroke-miterlimit:1;" x1="27.301" y1="100.709" x2="24.125" y2="100.498"/>
	<line style="fill:none;stroke:#000000;stroke-miterlimit:1;" x1="24.125" y1="100.498" x2="19.893" y2="100.498"/>
	<line style="fill:none;stroke:#000000;stroke-miterlimit:1;" x1="19.893" y1="100.498" x2="16.507" y2="101.344"/>
	<line style="fill:none;stroke:#000000;stroke-miterlimit:1;" x1="16.507" y1="101.344" x2="13.333" y2="102.613"/>
	<line style="fill:none;stroke:#000000;stroke-miterlimit:1;" x1="13.333" y1="102.613" x2="10.37" y2="104.307"/>
	<line style="fill:none;stroke:#000000;stroke-miterlimit:1;" x1="10.37" y1="104.307" x2="7.619" y2="106.635"/>
	<line style="fill:none;stroke:#000000;stroke-miterlimit:1;" x1="7.619" y1="106.635" x2="5.079" y2="109.598"/>
	<line style="fill:none;stroke:#000000;stroke-miterlimit:1;" x1="5.079" y1="109.598" x2="2.751" y2="112.561"/>
	<line style="fill:none;stroke:#000000;stroke-miterlimit:1;" x1="2.751" y1="112.561" x2="1.693" y2="114.676"/>
	<line style="fill:none;stroke:#000000;stroke-miterlimit:1;" x1="1.693" y1="114.676" x2="0.846" y2="117.004"/>
	<line style="fill:none;stroke:#000000;stroke-miterlimit:1;" x1="0.846" y1="117.004" x2="0" y2="121.025"/>
	<line style="fill:none;stroke:#000000;stroke-miterlimit:1;" x1="0" y1="121.025" x2="0" y2="124.834"/>
	<line style="fill:none;stroke:#000000;stroke-miterlimit:1;" x1="0" y1="124.834" x2="0.423" y2="127.586"/>
	<line style="fill:none;stroke:#000000;stroke-miterlimit:1;" x1="0.423" y1="127.586" x2="0.846" y2="130.549"/>
	<line style="fill:none;stroke:#000000;stroke-miterlimit:1;" x1="0.846" y1="130.549" x2="1.904" y2="133.512"/>
	<line style="fill:none;stroke:#000000;stroke-miterlimit:1;" x1="1.904" y1="133.512" x2="3.386" y2="136.898"/>
	<line style="fill:none;stroke:#000000;stroke-miterlimit:1;" x1="3.386" y1="136.898" x2="5.925" y2="140.072"/>
	<line style="fill:none;stroke:#000000;stroke-miterlimit:1;" x1="5.925" y1="140.072" x2="8.465" y2="142.4"/>
	<line style="fill:none;stroke:#000000;stroke-miterlimit:1;" x1="8.465" y1="142.4" x2="11.428" y2="144.729"/>
	<line style="fill:none;stroke:#000000;stroke-miterlimit:1;" x1="11.428" y1="144.729" x2="14.391" y2="146.209"/>
	<line style="fill:none;stroke:#000000;stroke-miterlimit:1;" x1="14.391" y1="146.209" x2="17.988" y2="147.479"/>
	<line style="fill:none;stroke:#000000;stroke-miterlimit:1;" x1="17.988" y1="147.479" x2="22.009" y2="148.113"/>
</g>
</svg>
