<?xml version="1.0" encoding="iso-8859-1"?>
<!-- Generator: Adobe Illustrator 16.0.1, SVG Export Plug-In . SVG Version: 6.00 Build 0)  -->
<!DOCTYPE svg PUBLIC "-//W3C//DTD SVG 1.1//EN" "http://www.w3.org/Graphics/SVG/1.1/DTD/svg11.dtd">
<svg version="1.1" id="Ebene_1" xmlns="http://www.w3.org/2000/svg" xmlns:xlink="http://www.w3.org/1999/xlink" x="0px" y="0px"
	 width="177.984px" height="148.114px" viewBox="0 0 177.984 148.114" style="enable-background:new 0 0 177.984 148.114;"
	 xml:space="preserve">
<g>
	<line style="fill:none;stroke:#000000;stroke-miterlimit:1;" x1="132.232" y1="124.087" x2="150.994" y2="124.087"/>
	<line style="fill:none;stroke:#000000;stroke-miterlimit:1;" x1="150.994" y1="124.087" x2="158.564" y2="148.114"/>
	<line style="fill:none;stroke:#000000;stroke-miterlimit:1;" x1="158.564" y1="148.114" x2="124.992" y2="148.114"/>
	<line style="fill:none;stroke:#000000;stroke-miterlimit:1;" x1="124.992" y1="148.114" x2="132.232" y2="124.087"/>
	<line style="fill:none;stroke:#000000;stroke-miterlimit:1;" x1="147.045" y1="124.087" x2="158.893" y2="108.946"/>
	<line style="fill:none;stroke:#000000;stroke-miterlimit:1;" x1="158.893" y1="108.946" x2="162.844" y2="119.808"/>
	<line style="fill:none;stroke:#000000;stroke-miterlimit:1;" x1="162.844" y1="119.808" x2="162.186" y2="125.403"/>
	<line style="fill:none;stroke:#000000;stroke-miterlimit:1;" x1="162.186" y1="125.403" x2="163.172" y2="130.999"/>
	<line style="fill:none;stroke:#000000;stroke-miterlimit:1;" x1="163.172" y1="130.999" x2="165.805" y2="137.253"/>
	<line style="fill:none;stroke:#000000;stroke-miterlimit:1;" x1="165.805" y1="137.253" x2="168.439" y2="140.873"/>
	<line style="fill:none;stroke:#000000;stroke-miterlimit:1;" x1="168.439" y1="140.873" x2="170.742" y2="142.848"/>
	<line style="fill:none;stroke:#000000;stroke-miterlimit:1;" x1="170.742" y1="142.848" x2="172.389" y2="142.519"/>
	<line style="fill:none;stroke:#000000;stroke-miterlimit:1;" x1="172.389" y1="142.519" x2="173.047" y2="139.228"/>
	<line style="fill:none;stroke:#000000;stroke-miterlimit:1;" x1="173.047" y1="139.228" x2="173.047" y2="133.961"/>
	<line style="fill:none;stroke:#000000;stroke-miterlimit:1;" x1="173.047" y1="133.961" x2="172.717" y2="130.67"/>
	<line style="fill:none;stroke:#000000;stroke-miterlimit:1;" x1="172.717" y1="130.67" x2="171.4" y2="126.062"/>
	<line style="fill:none;stroke:#000000;stroke-miterlimit:1;" x1="171.4" y1="126.062" x2="169.098" y2="122.441"/>
	<line style="fill:none;stroke:#000000;stroke-miterlimit:1;" x1="169.098" y1="122.441" x2="167.781" y2="120.796"/>
	<line style="fill:none;stroke:#000000;stroke-miterlimit:1;" x1="167.781" y1="120.796" x2="165.477" y2="119.808"/>
	<line style="fill:none;stroke:#000000;stroke-miterlimit:1;" x1="165.477" y1="119.808" x2="164.818" y2="120.138"/>
	<line style="fill:none;stroke:#000000;stroke-miterlimit:1;" x1="164.818" y1="120.138" x2="163.502" y2="121.454"/>
	<line style="fill:none;stroke:#000000;stroke-miterlimit:1;" x1="165.805" y1="119.808" x2="161.197" y2="106.643"/>
	<line style="fill:none;stroke:#000000;stroke-miterlimit:1;" x1="161.197" y1="106.643" x2="160.869" y2="105.326"/>
	<line style="fill:none;stroke:#000000;stroke-miterlimit:1;" x1="160.869" y1="105.326" x2="160.211" y2="104.339"/>
	<line style="fill:none;stroke:#000000;stroke-miterlimit:1;" x1="160.211" y1="104.339" x2="159.223" y2="104.339"/>
	<line style="fill:none;stroke:#000000;stroke-miterlimit:1;" x1="159.223" y1="104.339" x2="144.082" y2="124.087"/>
	<line style="fill:none;stroke:#000000;stroke-miterlimit:1;" x1="137.5" y1="124.087" x2="124.334" y2="106.313"/>
	<line style="fill:none;stroke:#000000;stroke-miterlimit:1;" x1="124.334" y1="106.313" x2="123.346" y2="104.997"/>
	<line style="fill:none;stroke:#000000;stroke-miterlimit:1;" x1="123.346" y1="104.997" x2="122.688" y2="105.326"/>
	<line style="fill:none;stroke:#000000;stroke-miterlimit:1;" x1="122.688" y1="105.326" x2="122.029" y2="106.313"/>
	<line style="fill:none;stroke:#000000;stroke-miterlimit:1;" x1="122.029" y1="106.313" x2="116.434" y2="120.138"/>
	<line style="fill:none;stroke:#000000;stroke-miterlimit:1;" x1="116.434" y1="120.138" x2="113.473" y2="122.112"/>
	<line style="fill:none;stroke:#000000;stroke-miterlimit:1;" x1="113.473" y1="122.112" x2="111.496" y2="125.074"/>
	<line style="fill:none;stroke:#000000;stroke-miterlimit:1;" x1="111.496" y1="125.074" x2="109.852" y2="129.683"/>
	<line style="fill:none;stroke:#000000;stroke-miterlimit:1;" x1="109.852" y1="129.683" x2="109.193" y2="132.974"/>
	<line style="fill:none;stroke:#000000;stroke-miterlimit:1;" x1="109.193" y1="132.974" x2="108.863" y2="136.595"/>
	<line style="fill:none;stroke:#000000;stroke-miterlimit:1;" x1="108.863" y1="136.595" x2="109.193" y2="139.228"/>
	<line style="fill:none;stroke:#000000;stroke-miterlimit:1;" x1="109.193" y1="139.228" x2="109.521" y2="141.531"/>
	<line style="fill:none;stroke:#000000;stroke-miterlimit:1;" x1="109.521" y1="141.531" x2="110.51" y2="142.189"/>
	<line style="fill:none;stroke:#000000;stroke-miterlimit:1;" x1="110.51" y1="142.189" x2="113.801" y2="139.886"/>
	<line style="fill:none;stroke:#000000;stroke-miterlimit:1;" x1="113.801" y1="139.886" x2="116.105" y2="136.595"/>
	<line style="fill:none;stroke:#000000;stroke-miterlimit:1;" x1="116.105" y1="136.595" x2="117.75" y2="134.619"/>
	<line style="fill:none;stroke:#000000;stroke-miterlimit:1;" x1="117.75" y1="134.619" x2="119.396" y2="130.67"/>
	<line style="fill:none;stroke:#000000;stroke-miterlimit:1;" x1="119.396" y1="130.67" x2="119.725" y2="127.378"/>
	<line style="fill:none;stroke:#000000;stroke-miterlimit:1;" x1="119.725" y1="127.378" x2="120.055" y2="124.416"/>
	<line style="fill:none;stroke:#000000;stroke-miterlimit:1;" x1="120.055" y1="124.416" x2="119.725" y2="122.441"/>
	<line style="fill:none;stroke:#000000;stroke-miterlimit:1;" x1="119.725" y1="122.441" x2="118.738" y2="121.125"/>
	<line style="fill:none;stroke:#000000;stroke-miterlimit:1;" x1="118.738" y1="121.125" x2="118.08" y2="120.796"/>
	<line style="fill:none;stroke:#000000;stroke-miterlimit:1;" x1="118.08" y1="120.796" x2="116.434" y2="120.796"/>
	<line style="fill:none;stroke:#000000;stroke-miterlimit:1;" x1="118.738" y1="121.125" x2="123.018" y2="110.921"/>
	<line style="fill:none;stroke:#000000;stroke-miterlimit:1;" x1="123.018" y1="110.921" x2="123.676" y2="109.275"/>
	<line style="fill:none;stroke:#000000;stroke-miterlimit:1;" x1="123.676" y1="109.275" x2="124.662" y2="110.263"/>
	<line style="fill:none;stroke:#000000;stroke-miterlimit:1;" x1="124.662" y1="110.263" x2="134.865" y2="124.087"/>
	<line style="fill:none;stroke:#000000;stroke-miterlimit:1;" x1="141.777" y1="124.087" x2="141.777" y2="24.027"/>
	<line style="fill:none;stroke:#000000;stroke-miterlimit:1;" x1="141.777" y1="24.027" x2="143.754" y2="23.698"/>
	<line style="fill:none;stroke:#000000;stroke-miterlimit:1;" x1="143.754" y1="23.698" x2="145.07" y2="23.04"/>
	<line style="fill:none;stroke:#000000;stroke-miterlimit:1;" x1="145.07" y1="23.04" x2="147.045" y2="21.065"/>
	<line style="fill:none;stroke:#000000;stroke-miterlimit:1;" x1="147.045" y1="21.065" x2="148.031" y2="19.419"/>
	<line style="fill:none;stroke:#000000;stroke-miterlimit:1;" x1="148.031" y1="19.419" x2="149.02" y2="16.457"/>
	<line style="fill:none;stroke:#000000;stroke-miterlimit:1;" x1="149.02" y1="16.457" x2="149.348" y2="12.507"/>
	<line style="fill:none;stroke:#000000;stroke-miterlimit:1;" x1="149.348" y1="12.507" x2="149.678" y2="9.875"/>
	<line style="fill:none;stroke:#000000;stroke-miterlimit:1;" x1="149.678" y1="9.875" x2="150.006" y2="7.57"/>
	<line style="fill:none;stroke:#000000;stroke-miterlimit:1;" x1="150.006" y1="7.57" x2="151.652" y2="5.267"/>
	<line style="fill:none;stroke:#000000;stroke-miterlimit:1;" x1="151.652" y1="5.267" x2="152.969" y2="4.608"/>
	<line style="fill:none;stroke:#000000;stroke-miterlimit:1;" x1="152.969" y1="4.608" x2="155.273" y2="4.279"/>
	<line style="fill:none;stroke:#000000;stroke-miterlimit:1;" x1="155.273" y1="4.279" x2="157.248" y2="3.621"/>
	<line style="fill:none;stroke:#000000;stroke-miterlimit:1;" x1="157.248" y1="3.621" x2="156.59" y2="2.633"/>
	<line style="fill:none;stroke:#000000;stroke-miterlimit:1;" x1="156.59" y1="2.633" x2="148.031" y2="0.658"/>
	<line style="fill:none;stroke:#000000;stroke-miterlimit:1;" x1="148.031" y1="0.658" x2="141.777" y2="0"/>
	<line style="fill:none;stroke:#000000;stroke-miterlimit:1;" x1="141.777" y1="0" x2="132.891" y2="0.658"/>
	<line style="fill:none;stroke:#000000;stroke-miterlimit:1;" x1="132.891" y1="0.658" x2="125.65" y2="1.975"/>
	<line style="fill:none;stroke:#000000;stroke-miterlimit:1;" x1="125.65" y1="1.975" x2="125.65" y2="3.621"/>
	<line style="fill:none;stroke:#000000;stroke-miterlimit:1;" x1="125.65" y1="3.621" x2="127.625" y2="3.95"/>
	<line style="fill:none;stroke:#000000;stroke-miterlimit:1;" x1="127.625" y1="3.95" x2="130.916" y2="5.925"/>
	<line style="fill:none;stroke:#000000;stroke-miterlimit:1;" x1="130.916" y1="5.925" x2="131.904" y2="7.241"/>
	<line style="fill:none;stroke:#000000;stroke-miterlimit:1;" x1="131.904" y1="7.241" x2="132.562" y2="8.558"/>
	<line style="fill:none;stroke:#000000;stroke-miterlimit:1;" x1="132.562" y1="8.558" x2="133.221" y2="12.837"/>
	<line style="fill:none;stroke:#000000;stroke-miterlimit:1;" x1="133.221" y1="12.837" x2="133.221" y2="15.47"/>
	<line style="fill:none;stroke:#000000;stroke-miterlimit:1;" x1="133.221" y1="15.47" x2="134.207" y2="19.09"/>
	<line style="fill:none;stroke:#000000;stroke-miterlimit:1;" x1="134.207" y1="19.09" x2="134.865" y2="21.065"/>
	<line style="fill:none;stroke:#000000;stroke-miterlimit:1;" x1="134.865" y1="21.065" x2="137.828" y2="23.369"/>
	<line style="fill:none;stroke:#000000;stroke-miterlimit:1;" x1="137.828" y1="23.369" x2="140.133" y2="24.027"/>
	<line style="fill:none;stroke:#000000;stroke-miterlimit:1;" x1="140.133" y1="24.027" x2="139.803" y2="124.087"/>
	<line style="fill:none;stroke:#000000;stroke-miterlimit:1;" x1="143.754" y1="124.087" x2="158.893" y2="58.587"/>
	<line style="fill:none;stroke:#000000;stroke-miterlimit:1;" x1="158.893" y1="58.587" x2="160.539" y2="58.587"/>
	<line style="fill:none;stroke:#000000;stroke-miterlimit:1;" x1="160.539" y1="58.587" x2="161.855" y2="58.587"/>
	<line style="fill:none;stroke:#000000;stroke-miterlimit:1;" x1="161.855" y1="58.587" x2="164.16" y2="56.942"/>
	<line style="fill:none;stroke:#000000;stroke-miterlimit:1;" x1="164.16" y1="56.942" x2="165.805" y2="55.625"/>
	<line style="fill:none;stroke:#000000;stroke-miterlimit:1;" x1="165.805" y1="55.625" x2="167.123" y2="52.992"/>
	<line style="fill:none;stroke:#000000;stroke-miterlimit:1;" x1="167.123" y1="52.992" x2="168.439" y2="49.042"/>
	<line style="fill:none;stroke:#000000;stroke-miterlimit:1;" x1="168.439" y1="49.042" x2="168.768" y2="46.409"/>
	<line style="fill:none;stroke:#000000;stroke-miterlimit:1;" x1="168.768" y1="46.409" x2="169.756" y2="44.105"/>
	<line style="fill:none;stroke:#000000;stroke-miterlimit:1;" x1="169.756" y1="44.105" x2="172.389" y2="42.459"/>
	<line style="fill:none;stroke:#000000;stroke-miterlimit:1;" x1="172.389" y1="42.459" x2="173.705" y2="42.13"/>
	<line style="fill:none;stroke:#000000;stroke-miterlimit:1;" x1="173.705" y1="42.13" x2="176.01" y2="42.13"/>
	<line style="fill:none;stroke:#000000;stroke-miterlimit:1;" x1="176.01" y1="42.13" x2="177.984" y2="41.801"/>
	<line style="fill:none;stroke:#000000;stroke-miterlimit:1;" x1="177.984" y1="41.801" x2="177.654" y2="40.814"/>
	<line style="fill:none;stroke:#000000;stroke-miterlimit:1;" x1="177.654" y1="40.814" x2="166.793" y2="36.206"/>
	<line style="fill:none;stroke:#000000;stroke-miterlimit:1;" x1="166.793" y1="36.206" x2="162.186" y2="34.56"/>
	<line style="fill:none;stroke:#000000;stroke-miterlimit:1;" x1="162.186" y1="34.56" x2="154.285" y2="33.902"/>
	<line style="fill:none;stroke:#000000;stroke-miterlimit:1;" x1="154.285" y1="33.902" x2="147.373" y2="33.573"/>
	<line style="fill:none;stroke:#000000;stroke-miterlimit:1;" x1="147.373" y1="33.573" x2="147.045" y2="35.218"/>
	<line style="fill:none;stroke:#000000;stroke-miterlimit:1;" x1="147.045" y1="35.218" x2="148.689" y2="35.876"/>
	<line style="fill:none;stroke:#000000;stroke-miterlimit:1;" x1="148.689" y1="35.876" x2="151.652" y2="38.51"/>
	<line style="fill:none;stroke:#000000;stroke-miterlimit:1;" x1="151.652" y1="38.51" x2="152.641" y2="40.155"/>
	<line style="fill:none;stroke:#000000;stroke-miterlimit:1;" x1="152.641" y1="40.155" x2="152.969" y2="41.472"/>
	<line style="fill:none;stroke:#000000;stroke-miterlimit:1;" x1="152.969" y1="41.472" x2="151.982" y2="45.422"/>
	<line style="fill:none;stroke:#000000;stroke-miterlimit:1;" x1="151.982" y1="45.422" x2="151.652" y2="48.384"/>
	<line style="fill:none;stroke:#000000;stroke-miterlimit:1;" x1="151.652" y1="48.384" x2="151.652" y2="52.005"/>
	<line style="fill:none;stroke:#000000;stroke-miterlimit:1;" x1="151.652" y1="52.005" x2="151.982" y2="53.979"/>
	<line style="fill:none;stroke:#000000;stroke-miterlimit:1;" x1="151.982" y1="53.979" x2="154.285" y2="57.271"/>
	<line style="fill:none;stroke:#000000;stroke-miterlimit:1;" x1="154.285" y1="57.271" x2="156.59" y2="58.258"/>
	<line style="fill:none;stroke:#000000;stroke-miterlimit:1;" x1="156.59" y1="58.258" x2="142.107" y2="124.087"/>
	<line style="fill:none;stroke:#000000;stroke-miterlimit:1;" x1="138.816" y1="124.087" x2="124.004" y2="58.587"/>
	<line style="fill:none;stroke:#000000;stroke-miterlimit:1;" x1="124.004" y1="58.587" x2="122.359" y2="58.587"/>
	<line style="fill:none;stroke:#000000;stroke-miterlimit:1;" x1="122.359" y1="58.587" x2="121.043" y2="58.587"/>
	<line style="fill:none;stroke:#000000;stroke-miterlimit:1;" x1="121.043" y1="58.587" x2="118.738" y2="56.942"/>
	<line style="fill:none;stroke:#000000;stroke-miterlimit:1;" x1="118.738" y1="56.942" x2="117.092" y2="55.625"/>
	<line style="fill:none;stroke:#000000;stroke-miterlimit:1;" x1="117.092" y1="55.625" x2="115.775" y2="52.992"/>
	<line style="fill:none;stroke:#000000;stroke-miterlimit:1;" x1="115.775" y1="52.992" x2="114.459" y2="49.042"/>
	<line style="fill:none;stroke:#000000;stroke-miterlimit:1;" x1="114.459" y1="49.042" x2="114.459" y2="46.409"/>
	<line style="fill:none;stroke:#000000;stroke-miterlimit:1;" x1="114.459" y1="46.409" x2="113.143" y2="44.105"/>
	<line style="fill:none;stroke:#000000;stroke-miterlimit:1;" x1="113.143" y1="44.105" x2="110.51" y2="42.13"/>
	<line style="fill:none;stroke:#000000;stroke-miterlimit:1;" x1="110.51" y1="42.13" x2="109.193" y2="42.13"/>
	<line style="fill:none;stroke:#000000;stroke-miterlimit:1;" x1="109.193" y1="42.13" x2="106.889" y2="42.13"/>
	<line style="fill:none;stroke:#000000;stroke-miterlimit:1;" x1="106.889" y1="42.13" x2="104.914" y2="41.801"/>
	<line style="fill:none;stroke:#000000;stroke-miterlimit:1;" x1="104.914" y1="41.801" x2="105.244" y2="40.814"/>
	<line style="fill:none;stroke:#000000;stroke-miterlimit:1;" x1="105.244" y1="40.814" x2="113.143" y2="37.193"/>
	<line style="fill:none;stroke:#000000;stroke-miterlimit:1;" x1="113.143" y1="37.193" x2="118.738" y2="35.218"/>
	<line style="fill:none;stroke:#000000;stroke-miterlimit:1;" x1="118.738" y1="35.218" x2="128.613" y2="33.902"/>
	<line style="fill:none;stroke:#000000;stroke-miterlimit:1;" x1="128.613" y1="33.902" x2="135.523" y2="33.573"/>
	<line style="fill:none;stroke:#000000;stroke-miterlimit:1;" x1="135.523" y1="33.573" x2="135.854" y2="35.218"/>
	<line style="fill:none;stroke:#000000;stroke-miterlimit:1;" x1="135.854" y1="35.218" x2="134.207" y2="35.876"/>
	<line style="fill:none;stroke:#000000;stroke-miterlimit:1;" x1="134.207" y1="35.876" x2="131.246" y2="38.51"/>
	<line style="fill:none;stroke:#000000;stroke-miterlimit:1;" x1="131.246" y1="38.51" x2="130.258" y2="40.155"/>
	<line style="fill:none;stroke:#000000;stroke-miterlimit:1;" x1="130.258" y1="40.155" x2="129.93" y2="41.472"/>
	<line style="fill:none;stroke:#000000;stroke-miterlimit:1;" x1="129.93" y1="41.472" x2="130.916" y2="45.422"/>
	<line style="fill:none;stroke:#000000;stroke-miterlimit:1;" x1="130.916" y1="45.422" x2="131.246" y2="48.384"/>
	<line style="fill:none;stroke:#000000;stroke-miterlimit:1;" x1="131.246" y1="48.384" x2="131.246" y2="52.663"/>
	<line style="fill:none;stroke:#000000;stroke-miterlimit:1;" x1="131.246" y1="52.663" x2="131.246" y2="53.979"/>
	<line style="fill:none;stroke:#000000;stroke-miterlimit:1;" x1="131.246" y1="53.979" x2="128.941" y2="57.271"/>
	<line style="fill:none;stroke:#000000;stroke-miterlimit:1;" x1="128.941" y1="57.271" x2="126.637" y2="58.258"/>
	<line style="fill:none;stroke:#000000;stroke-miterlimit:1;" x1="126.637" y1="58.258" x2="140.133" y2="124.087"/>
	<line style="fill:none;stroke:#000000;stroke-miterlimit:1;" x1="48.384" y1="47.396" x2="50.359" y2="56.284"/>
	<line style="fill:none;stroke:#000000;stroke-miterlimit:1;" x1="50.359" y1="56.284" x2="52.663" y2="66.816"/>
	<line style="fill:none;stroke:#000000;stroke-miterlimit:1;" x1="52.663" y1="66.816" x2="52.663" y2="78.007"/>
	<line style="fill:none;stroke:#000000;stroke-miterlimit:1;" x1="52.663" y1="78.007" x2="51.017" y2="82.944"/>
	<line style="fill:none;stroke:#000000;stroke-miterlimit:1;" x1="51.017" y1="82.944" x2="44.763" y2="84.59"/>
	<line style="fill:none;stroke:#000000;stroke-miterlimit:1;" x1="44.763" y1="84.59" x2="36.206" y2="87.223"/>
	<line style="fill:none;stroke:#000000;stroke-miterlimit:1;" x1="36.206" y1="87.223" x2="28.964" y2="90.844"/>
	<line style="fill:none;stroke:#000000;stroke-miterlimit:1;" x1="28.964" y1="90.844" x2="25.015" y2="93.806"/>
	<line style="fill:none;stroke:#000000;stroke-miterlimit:1;" x1="25.015" y1="93.806" x2="32.256" y2="93.806"/>
	<line style="fill:none;stroke:#000000;stroke-miterlimit:1;" x1="32.256" y1="93.806" x2="37.522" y2="94.793"/>
	<line style="fill:none;stroke:#000000;stroke-miterlimit:1;" x1="37.522" y1="94.793" x2="42.459" y2="96.109"/>
	<line style="fill:none;stroke:#000000;stroke-miterlimit:1;" x1="42.459" y1="96.109" x2="44.434" y2="97.427"/>
	<line style="fill:none;stroke:#000000;stroke-miterlimit:1;" x1="44.434" y1="97.427" x2="44.763" y2="98.414"/>
	<line style="fill:none;stroke:#000000;stroke-miterlimit:1;" x1="44.763" y1="98.414" x2="45.421" y2="100.389"/>
	<line style="fill:none;stroke:#000000;stroke-miterlimit:1;" x1="25.015" y1="93.806" x2="22.381" y2="95.78"/>
	<line style="fill:none;stroke:#000000;stroke-miterlimit:1;" x1="22.381" y1="95.78" x2="20.078" y2="105.326"/>
	<line style="fill:none;stroke:#000000;stroke-miterlimit:1;" x1="20.078" y1="105.326" x2="18.432" y2="114.542"/>
	<line style="fill:none;stroke:#000000;stroke-miterlimit:1;" x1="18.432" y1="114.542" x2="17.444" y2="123.758"/>
	<line style="fill:none;stroke:#000000;stroke-miterlimit:1;" x1="17.444" y1="123.758" x2="16.128" y2="132.645"/>
	<line style="fill:none;stroke:#000000;stroke-miterlimit:1;" x1="16.128" y1="132.645" x2="14.482" y2="139.228"/>
	<line style="fill:none;stroke:#000000;stroke-miterlimit:1;" x1="14.482" y1="139.228" x2="12.507" y2="141.86"/>
	<line style="fill:none;stroke:#000000;stroke-miterlimit:1;" x1="12.507" y1="141.86" x2="9.216" y2="143.836"/>
	<line style="fill:none;stroke:#000000;stroke-miterlimit:1;" x1="9.216" y1="143.836" x2="5.595" y2="144.823"/>
	<line style="fill:none;stroke:#000000;stroke-miterlimit:1;" x1="5.595" y1="144.823" x2="2.633" y2="145.152"/>
	<line style="fill:none;stroke:#000000;stroke-miterlimit:1;" x1="2.633" y1="145.152" x2="0.329" y2="145.481"/>
	<line style="fill:none;stroke:#000000;stroke-miterlimit:1;" x1="0.329" y1="145.481" x2="0" y2="148.114"/>
	<line style="fill:none;stroke:#000000;stroke-miterlimit:1;" x1="0" y1="148.114" x2="11.849" y2="147.785"/>
	<line style="fill:none;stroke:#000000;stroke-miterlimit:1;" x1="11.849" y1="147.785" x2="15.14" y2="146.798"/>
	<line style="fill:none;stroke:#000000;stroke-miterlimit:1;" x1="15.14" y1="146.798" x2="17.444" y2="147.785"/>
	<line style="fill:none;stroke:#000000;stroke-miterlimit:1;" x1="17.444" y1="147.785" x2="20.407" y2="147.785"/>
	<line style="fill:none;stroke:#000000;stroke-miterlimit:1;" x1="20.407" y1="147.785" x2="21.723" y2="147.127"/>
	<line style="fill:none;stroke:#000000;stroke-miterlimit:1;" x1="21.723" y1="147.127" x2="22.381" y2="145.811"/>
	<line style="fill:none;stroke:#000000;stroke-miterlimit:1;" x1="22.381" y1="145.811" x2="22.052" y2="144.494"/>
	<line style="fill:none;stroke:#000000;stroke-miterlimit:1;" x1="22.052" y1="144.494" x2="21.723" y2="142.848"/>
	<line style="fill:none;stroke:#000000;stroke-miterlimit:1;" x1="21.723" y1="142.848" x2="21.723" y2="139.228"/>
	<line style="fill:none;stroke:#000000;stroke-miterlimit:1;" x1="21.723" y1="139.228" x2="22.052" y2="135.606"/>
	<line style="fill:none;stroke:#000000;stroke-miterlimit:1;" x1="22.052" y1="135.606" x2="23.698" y2="130.67"/>
	<line style="fill:none;stroke:#000000;stroke-miterlimit:1;" x1="23.698" y1="130.67" x2="25.344" y2="126.72"/>
	<line style="fill:none;stroke:#000000;stroke-miterlimit:1;" x1="25.344" y1="126.72" x2="26.66" y2="121.783"/>
	<line style="fill:none;stroke:#000000;stroke-miterlimit:1;" x1="26.66" y1="121.783" x2="27.319" y2="116.846"/>
	<line style="fill:none;stroke:#000000;stroke-miterlimit:1;" x1="27.319" y1="116.846" x2="27.977" y2="112.237"/>
	<line style="fill:none;stroke:#000000;stroke-miterlimit:1;" x1="27.977" y1="112.237" x2="28.306" y2="108.946"/>
	<line style="fill:none;stroke:#000000;stroke-miterlimit:1;" x1="28.306" y1="108.946" x2="28.964" y2="106.643"/>
	<line style="fill:none;stroke:#000000;stroke-miterlimit:1;" x1="28.964" y1="106.643" x2="30.281" y2="101.705"/>
	<line style="fill:none;stroke:#000000;stroke-miterlimit:1;" x1="30.281" y1="101.705" x2="32.914" y2="98.414"/>
	<line style="fill:none;stroke:#000000;stroke-miterlimit:1;" x1="32.914" y1="98.414" x2="34.56" y2="97.427"/>
	<line style="fill:none;stroke:#000000;stroke-miterlimit:1;" x1="35.876" y1="94.793" x2="34.23" y2="97.098"/>
	<line style="fill:none;stroke:#000000;stroke-miterlimit:1;" x1="34.23" y1="97.098" x2="33.572" y2="101.705"/>
	<line style="fill:none;stroke:#000000;stroke-miterlimit:1;" x1="33.572" y1="101.705" x2="35.876" y2="108.288"/>
	<line style="fill:none;stroke:#000000;stroke-miterlimit:1;" x1="35.876" y1="108.288" x2="39.168" y2="116.846"/>
	<line style="fill:none;stroke:#000000;stroke-miterlimit:1;" x1="39.168" y1="116.846" x2="41.143" y2="122.112"/>
	<line style="fill:none;stroke:#000000;stroke-miterlimit:1;" x1="41.143" y1="122.112" x2="43.776" y2="127.708"/>
	<line style="fill:none;stroke:#000000;stroke-miterlimit:1;" x1="43.776" y1="127.708" x2="44.763" y2="132.315"/>
	<line style="fill:none;stroke:#000000;stroke-miterlimit:1;" x1="44.763" y1="132.315" x2="44.763" y2="136.595"/>
	<line style="fill:none;stroke:#000000;stroke-miterlimit:1;" x1="44.763" y1="136.595" x2="43.447" y2="139.886"/>
	<line style="fill:none;stroke:#000000;stroke-miterlimit:1;" x1="43.447" y1="139.886" x2="41.801" y2="142.189"/>
	<line style="fill:none;stroke:#000000;stroke-miterlimit:1;" x1="41.801" y1="142.189" x2="39.826" y2="144.165"/>
	<line style="fill:none;stroke:#000000;stroke-miterlimit:1;" x1="39.826" y1="144.165" x2="37.522" y2="145.152"/>
	<line style="fill:none;stroke:#000000;stroke-miterlimit:1;" x1="37.522" y1="145.152" x2="33.901" y2="145.481"/>
	<line style="fill:none;stroke:#000000;stroke-miterlimit:1;" x1="33.901" y1="145.481" x2="33.901" y2="147.785"/>
	<line style="fill:none;stroke:#000000;stroke-miterlimit:1;" x1="33.901" y1="147.785" x2="40.155" y2="147.456"/>
	<line style="fill:none;stroke:#000000;stroke-miterlimit:1;" x1="40.155" y1="147.456" x2="43.118" y2="146.469"/>
	<line style="fill:none;stroke:#000000;stroke-miterlimit:1;" x1="43.118" y1="146.469" x2="47.726" y2="143.507"/>
	<line style="fill:none;stroke:#000000;stroke-miterlimit:1;" x1="47.726" y1="143.507" x2="50.688" y2="142.848"/>
	<line style="fill:none;stroke:#000000;stroke-miterlimit:1;" x1="50.688" y1="142.848" x2="52.992" y2="141.531"/>
	<line style="fill:none;stroke:#000000;stroke-miterlimit:1;" x1="52.992" y1="141.531" x2="53.979" y2="139.228"/>
	<line style="fill:none;stroke:#000000;stroke-miterlimit:1;" x1="53.979" y1="139.228" x2="52.992" y2="136.924"/>
	<line style="fill:none;stroke:#000000;stroke-miterlimit:1;" x1="52.992" y1="136.924" x2="51.675" y2="135.277"/>
	<line style="fill:none;stroke:#000000;stroke-miterlimit:1;" x1="51.675" y1="135.277" x2="50.359" y2="130.67"/>
	<line style="fill:none;stroke:#000000;stroke-miterlimit:1;" x1="50.359" y1="130.67" x2="49.371" y2="125.403"/>
	<line style="fill:none;stroke:#000000;stroke-miterlimit:1;" x1="49.371" y1="125.403" x2="48.384" y2="119.479"/>
	<line style="fill:none;stroke:#000000;stroke-miterlimit:1;" x1="48.384" y1="119.479" x2="48.055" y2="115.2"/>
	<line style="fill:none;stroke:#000000;stroke-miterlimit:1;" x1="48.055" y1="115.2" x2="47.067" y2="111.579"/>
	<line style="fill:none;stroke:#000000;stroke-miterlimit:1;" x1="47.067" y1="111.579" x2="45.421" y2="106.972"/>
	<line style="fill:none;stroke:#000000;stroke-miterlimit:1;" x1="45.421" y1="106.972" x2="45.092" y2="104.009"/>
	<line style="fill:none;stroke:#000000;stroke-miterlimit:1;" x1="45.092" y1="104.009" x2="45.092" y2="100.718"/>
	<line style="fill:none;stroke:#000000;stroke-miterlimit:1;" x1="45.092" y1="100.718" x2="49.371" y2="98.743"/>
	<line style="fill:none;stroke:#000000;stroke-miterlimit:1;" x1="49.371" y1="98.743" x2="54.638" y2="97.427"/>
	<line style="fill:none;stroke:#000000;stroke-miterlimit:1;" x1="54.638" y1="97.427" x2="60.233" y2="97.098"/>
	<line style="fill:none;stroke:#000000;stroke-miterlimit:1;" x1="60.233" y1="97.098" x2="65.17" y2="96.769"/>
	<line style="fill:none;stroke:#000000;stroke-miterlimit:1;" x1="65.17" y1="96.769" x2="68.791" y2="96.438"/>
	<line style="fill:none;stroke:#000000;stroke-miterlimit:1;" x1="68.791" y1="96.438" x2="72.082" y2="94.793"/>
	<line style="fill:none;stroke:#000000;stroke-miterlimit:1;" x1="72.082" y1="94.793" x2="73.728" y2="91.831"/>
	<line style="fill:none;stroke:#000000;stroke-miterlimit:1;" x1="73.728" y1="91.831" x2="73.398" y2="85.906"/>
	<line style="fill:none;stroke:#000000;stroke-miterlimit:1;" x1="73.398" y1="85.906" x2="72.74" y2="80.311"/>
	<line style="fill:none;stroke:#000000;stroke-miterlimit:1;" x1="72.74" y1="80.311" x2="71.753" y2="75.703"/>
	<line style="fill:none;stroke:#000000;stroke-miterlimit:1;" x1="71.753" y1="75.703" x2="70.437" y2="71.095"/>
	<line style="fill:none;stroke:#000000;stroke-miterlimit:1;" x1="70.437" y1="71.095" x2="69.778" y2="65.829"/>
	<line style="fill:none;stroke:#000000;stroke-miterlimit:1;" x1="69.778" y1="65.829" x2="70.437" y2="59.575"/>
	<line style="fill:none;stroke:#000000;stroke-miterlimit:1;" x1="70.437" y1="59.575" x2="71.753" y2="54.638"/>
	<line style="fill:none;stroke:#000000;stroke-miterlimit:1;" x1="71.753" y1="54.638" x2="74.386" y2="47.396"/>
	<line style="fill:none;stroke:#000000;stroke-miterlimit:1;" x1="74.386" y1="47.396" x2="78.665" y2="52.992"/>
	<line style="fill:none;stroke:#000000;stroke-miterlimit:1;" x1="78.665" y1="52.992" x2="81.627" y2="56.942"/>
	<line style="fill:none;stroke:#000000;stroke-miterlimit:1;" x1="81.627" y1="56.942" x2="85.906" y2="63.524"/>
	<line style="fill:none;stroke:#000000;stroke-miterlimit:1;" x1="85.906" y1="63.524" x2="85.248" y2="68.791"/>
	<line style="fill:none;stroke:#000000;stroke-miterlimit:1;" x1="85.248" y1="68.791" x2="85.248" y2="76.361"/>
	<line style="fill:none;stroke:#000000;stroke-miterlimit:1;" x1="85.248" y1="76.361" x2="85.577" y2="82.615"/>
	<line style="fill:none;stroke:#000000;stroke-miterlimit:1;" x1="85.577" y1="82.615" x2="84.918" y2="85.906"/>
	<line style="fill:none;stroke:#000000;stroke-miterlimit:1;" x1="84.918" y1="85.906" x2="81.957" y2="89.198"/>
	<line style="fill:none;stroke:#000000;stroke-miterlimit:1;" x1="81.957" y1="89.198" x2="80.969" y2="92.489"/>
	<line style="fill:none;stroke:#000000;stroke-miterlimit:1;" x1="80.969" y1="92.489" x2="82.944" y2="92.818"/>
	<line style="fill:none;stroke:#000000;stroke-miterlimit:1;" x1="82.944" y1="92.818" x2="85.248" y2="89.198"/>
	<line style="fill:none;stroke:#000000;stroke-miterlimit:1;" x1="85.248" y1="89.198" x2="86.564" y2="90.186"/>
	<line style="fill:none;stroke:#000000;stroke-miterlimit:1;" x1="86.564" y1="90.186" x2="85.906" y2="93.147"/>
	<line style="fill:none;stroke:#000000;stroke-miterlimit:1;" x1="85.906" y1="93.147" x2="84.918" y2="96.109"/>
	<line style="fill:none;stroke:#000000;stroke-miterlimit:1;" x1="84.918" y1="96.109" x2="82.615" y2="98.085"/>
	<line style="fill:none;stroke:#000000;stroke-miterlimit:1;" x1="82.615" y1="98.085" x2="81.298" y2="99.73"/>
	<line style="fill:none;stroke:#000000;stroke-miterlimit:1;" x1="81.298" y1="99.73" x2="82.615" y2="101.047"/>
	<line style="fill:none;stroke:#000000;stroke-miterlimit:1;" x1="82.615" y1="101.047" x2="85.577" y2="99.072"/>
	<line style="fill:none;stroke:#000000;stroke-miterlimit:1;" x1="85.577" y1="99.072" x2="87.552" y2="97.427"/>
	<line style="fill:none;stroke:#000000;stroke-miterlimit:1;" x1="87.552" y1="97.427" x2="89.198" y2="93.806"/>
	<line style="fill:none;stroke:#000000;stroke-miterlimit:1;" x1="89.198" y1="93.806" x2="89.527" y2="91.502"/>
	<line style="fill:none;stroke:#000000;stroke-miterlimit:1;" x1="89.527" y1="91.502" x2="89.198" y2="86.235"/>
	<line style="fill:none;stroke:#000000;stroke-miterlimit:1;" x1="89.198" y1="86.235" x2="90.844" y2="81.628"/>
	<line style="fill:none;stroke:#000000;stroke-miterlimit:1;" x1="90.844" y1="81.628" x2="92.16" y2="75.045"/>
	<line style="fill:none;stroke:#000000;stroke-miterlimit:1;" x1="92.16" y1="75.045" x2="92.488" y2="69.778"/>
	<line style="fill:none;stroke:#000000;stroke-miterlimit:1;" x1="92.488" y1="69.778" x2="93.146" y2="64.841"/>
	<line style="fill:none;stroke:#000000;stroke-miterlimit:1;" x1="93.146" y1="64.841" x2="92.818" y2="61.879"/>
	<line style="fill:none;stroke:#000000;stroke-miterlimit:1;" x1="92.818" y1="61.879" x2="89.527" y2="55.296"/>
	<line style="fill:none;stroke:#000000;stroke-miterlimit:1;" x1="89.527" y1="55.296" x2="85.906" y2="48.713"/>
	<line style="fill:none;stroke:#000000;stroke-miterlimit:1;" x1="85.906" y1="48.713" x2="80.311" y2="41.801"/>
	<line style="fill:none;stroke:#000000;stroke-miterlimit:1;" x1="80.311" y1="41.801" x2="77.019" y2="38.51"/>
	<line style="fill:none;stroke:#000000;stroke-miterlimit:1;" x1="77.019" y1="38.51" x2="72.74" y2="36.206"/>
	<line style="fill:none;stroke:#000000;stroke-miterlimit:1;" x1="72.74" y1="36.206" x2="69.12" y2="35.876"/>
	<line style="fill:none;stroke:#000000;stroke-miterlimit:1;" x1="69.12" y1="35.876" x2="69.12" y2="29.623"/>
	<line style="fill:none;stroke:#000000;stroke-miterlimit:1;" x1="69.12" y1="29.623" x2="73.069" y2="26.332"/>
	<line style="fill:none;stroke:#000000;stroke-miterlimit:1;" x1="73.069" y1="26.332" x2="76.032" y2="23.04"/>
	<line style="fill:none;stroke:#000000;stroke-miterlimit:1;" x1="76.032" y1="23.04" x2="78.007" y2="19.749"/>
	<line style="fill:none;stroke:#000000;stroke-miterlimit:1;" x1="78.007" y1="19.749" x2="79.981" y2="16.457"/>
	<line style="fill:none;stroke:#000000;stroke-miterlimit:1;" x1="79.981" y1="16.457" x2="81.298" y2="12.837"/>
	<line style="fill:none;stroke:#000000;stroke-miterlimit:1;" x1="81.298" y1="12.837" x2="81.298" y2="9.875"/>
	<line style="fill:none;stroke:#000000;stroke-miterlimit:1;" x1="81.298" y1="9.875" x2="80.311" y2="6.912"/>
	<line style="fill:none;stroke:#000000;stroke-miterlimit:1;" x1="80.311" y1="6.912" x2="78.665" y2="4.279"/>
	<line style="fill:none;stroke:#000000;stroke-miterlimit:1;" x1="78.665" y1="4.279" x2="76.361" y2="1.975"/>
	<line style="fill:none;stroke:#000000;stroke-miterlimit:1;" x1="76.361" y1="1.975" x2="74.057" y2="0.658"/>
	<line style="fill:none;stroke:#000000;stroke-miterlimit:1;" x1="74.057" y1="0.658" x2="70.766" y2="0"/>
	<line style="fill:none;stroke:#000000;stroke-miterlimit:1;" x1="70.766" y1="0" x2="67.145" y2="0.329"/>
	<line style="fill:none;stroke:#000000;stroke-miterlimit:1;" x1="67.145" y1="0.329" x2="63.195" y2="1.646"/>
	<line style="fill:none;stroke:#000000;stroke-miterlimit:1;" x1="63.195" y1="1.646" x2="60.562" y2="3.621"/>
	<line style="fill:none;stroke:#000000;stroke-miterlimit:1;" x1="60.562" y1="3.621" x2="58.917" y2="6.254"/>
	<line style="fill:none;stroke:#000000;stroke-miterlimit:1;" x1="58.917" y1="6.254" x2="56.941" y2="8.887"/>
	<line style="fill:none;stroke:#000000;stroke-miterlimit:1;" x1="56.941" y1="8.887" x2="68.791" y2="12.178"/>
	<line style="fill:none;stroke:#000000;stroke-miterlimit:1;" x1="68.791" y1="12.178" x2="67.803" y2="14.482"/>
	<line style="fill:none;stroke:#000000;stroke-miterlimit:1;" x1="67.803" y1="14.482" x2="69.778" y2="15.799"/>
	<line style="fill:none;stroke:#000000;stroke-miterlimit:1;" x1="69.778" y1="15.799" x2="71.424" y2="16.786"/>
	<line style="fill:none;stroke:#000000;stroke-miterlimit:1;" x1="71.424" y1="16.786" x2="71.753" y2="18.432"/>
	<line style="fill:none;stroke:#000000;stroke-miterlimit:1;" x1="71.753" y1="18.432" x2="70.766" y2="21.065"/>
	<line style="fill:none;stroke:#000000;stroke-miterlimit:1;" x1="70.766" y1="21.065" x2="70.107" y2="24.027"/>
	<line style="fill:none;stroke:#000000;stroke-miterlimit:1;" x1="70.107" y1="24.027" x2="70.766" y2="26.332"/>
	<line style="fill:none;stroke:#000000;stroke-miterlimit:1;" x1="70.766" y1="26.332" x2="71.095" y2="27.319"/>
	<line style="fill:none;stroke:#000000;stroke-miterlimit:1;" x1="57.6" y1="16.128" x2="61.549" y2="17.445"/>
	<line style="fill:none;stroke:#000000;stroke-miterlimit:1;" x1="61.549" y1="17.445" x2="60.562" y2="14.812"/>
	<line style="fill:none;stroke:#000000;stroke-miterlimit:1;" x1="60.562" y1="14.812" x2="59.246" y2="14.482"/>
	<line style="fill:none;stroke:#000000;stroke-miterlimit:1;" x1="59.246" y1="14.482" x2="57.6" y2="15.47"/>
	<line style="fill:none;stroke:#000000;stroke-miterlimit:1;" x1="57.6" y1="8.887" x2="53.979" y2="12.507"/>
	<line style="fill:none;stroke:#000000;stroke-miterlimit:1;" x1="53.979" y1="12.507" x2="51.017" y2="14.812"/>
	<line style="fill:none;stroke:#000000;stroke-miterlimit:1;" x1="51.017" y1="14.812" x2="48.713" y2="16.786"/>
	<line style="fill:none;stroke:#000000;stroke-miterlimit:1;" x1="48.713" y1="16.786" x2="48.713" y2="18.432"/>
	<line style="fill:none;stroke:#000000;stroke-miterlimit:1;" x1="48.713" y1="18.432" x2="52.004" y2="21.724"/>
	<line style="fill:none;stroke:#000000;stroke-miterlimit:1;" x1="52.004" y1="21.724" x2="52.004" y2="25.015"/>
	<line style="fill:none;stroke:#000000;stroke-miterlimit:1;" x1="52.004" y1="25.015" x2="52.333" y2="26.99"/>
	<line style="fill:none;stroke:#000000;stroke-miterlimit:1;" x1="52.333" y1="26.99" x2="57.271" y2="28.965"/>
	<line style="fill:none;stroke:#000000;stroke-miterlimit:1;" x1="57.271" y1="28.965" x2="57.271" y2="34.889"/>
	<line style="fill:none;stroke:#000000;stroke-miterlimit:1;" x1="57.271" y1="34.889" x2="51.675" y2="35.218"/>
	<line style="fill:none;stroke:#000000;stroke-miterlimit:1;" x1="51.675" y1="35.218" x2="47.067" y2="37.193"/>
	<line style="fill:none;stroke:#000000;stroke-miterlimit:1;" x1="47.067" y1="37.193" x2="44.434" y2="39.497"/>
	<line style="fill:none;stroke:#000000;stroke-miterlimit:1;" x1="44.434" y1="39.497" x2="39.168" y2="43.776"/>
	<line style="fill:none;stroke:#000000;stroke-miterlimit:1;" x1="39.168" y1="43.776" x2="35.547" y2="47.726"/>
	<line style="fill:none;stroke:#000000;stroke-miterlimit:1;" x1="35.547" y1="47.726" x2="31.269" y2="52.663"/>
	<line style="fill:none;stroke:#000000;stroke-miterlimit:1;" x1="31.269" y1="52.663" x2="34.56" y2="45.093"/>
	<line style="fill:none;stroke:#000000;stroke-miterlimit:1;" x1="34.56" y1="45.093" x2="36.864" y2="38.51"/>
	<line style="fill:none;stroke:#000000;stroke-miterlimit:1;" x1="36.864" y1="38.51" x2="38.18" y2="33.902"/>
	<line style="fill:none;stroke:#000000;stroke-miterlimit:1;" x1="38.18" y1="33.902" x2="38.509" y2="32.256"/>
	<line style="fill:none;stroke:#000000;stroke-miterlimit:1;" x1="38.509" y1="32.256" x2="42.789" y2="29.952"/>
	<line style="fill:none;stroke:#000000;stroke-miterlimit:1;" x1="42.789" y1="29.952" x2="45.75" y2="27.319"/>
	<line style="fill:none;stroke:#000000;stroke-miterlimit:1;" x1="45.75" y1="27.319" x2="44.434" y2="26.332"/>
	<line style="fill:none;stroke:#000000;stroke-miterlimit:1;" x1="44.434" y1="26.332" x2="40.484" y2="27.648"/>
	<line style="fill:none;stroke:#000000;stroke-miterlimit:1;" x1="40.484" y1="27.648" x2="41.801" y2="25.673"/>
	<line style="fill:none;stroke:#000000;stroke-miterlimit:1;" x1="41.801" y1="25.673" x2="43.776" y2="24.027"/>
	<line style="fill:none;stroke:#000000;stroke-miterlimit:1;" x1="43.776" y1="24.027" x2="46.08" y2="22.711"/>
	<line style="fill:none;stroke:#000000;stroke-miterlimit:1;" x1="46.08" y1="22.711" x2="48.713" y2="22.053"/>
	<line style="fill:none;stroke:#000000;stroke-miterlimit:1;" x1="48.713" y1="22.053" x2="51.017" y2="21.395"/>
	<line style="fill:none;stroke:#000000;stroke-miterlimit:1;" x1="51.017" y1="21.395" x2="48.055" y2="20.078"/>
	<line style="fill:none;stroke:#000000;stroke-miterlimit:1;" x1="48.055" y1="20.078" x2="44.434" y2="20.736"/>
	<line style="fill:none;stroke:#000000;stroke-miterlimit:1;" x1="44.434" y1="20.736" x2="40.484" y2="22.382"/>
	<line style="fill:none;stroke:#000000;stroke-miterlimit:1;" x1="40.484" y1="22.382" x2="37.193" y2="25.344"/>
	<line style="fill:none;stroke:#000000;stroke-miterlimit:1;" x1="37.193" y1="25.344" x2="35.876" y2="28.636"/>
	<line style="fill:none;stroke:#000000;stroke-miterlimit:1;" x1="35.876" y1="28.636" x2="35.876" y2="29.623"/>
	<line style="fill:none;stroke:#000000;stroke-miterlimit:1;" x1="35.876" y1="29.623" x2="32.914" y2="33.573"/>
	<line style="fill:none;stroke:#000000;stroke-miterlimit:1;" x1="32.914" y1="33.573" x2="30.281" y2="37.522"/>
	<line style="fill:none;stroke:#000000;stroke-miterlimit:1;" x1="30.281" y1="37.522" x2="28.306" y2="41.801"/>
	<line style="fill:none;stroke:#000000;stroke-miterlimit:1;" x1="28.306" y1="41.801" x2="26.331" y2="46.08"/>
	<line style="fill:none;stroke:#000000;stroke-miterlimit:1;" x1="26.331" y1="46.08" x2="25.673" y2="49.042"/>
	<line style="fill:none;stroke:#000000;stroke-miterlimit:1;" x1="25.673" y1="49.042" x2="25.015" y2="52.992"/>
	<line style="fill:none;stroke:#000000;stroke-miterlimit:1;" x1="25.015" y1="52.992" x2="24.356" y2="55.955"/>
	<line style="fill:none;stroke:#000000;stroke-miterlimit:1;" x1="24.356" y1="55.955" x2="25.673" y2="59.246"/>
	<line style="fill:none;stroke:#000000;stroke-miterlimit:1;" x1="25.673" y1="59.246" x2="27.319" y2="60.562"/>
	<line style="fill:none;stroke:#000000;stroke-miterlimit:1;" x1="27.319" y1="60.562" x2="31.269" y2="60.892"/>
	<line style="fill:none;stroke:#000000;stroke-miterlimit:1;" x1="31.269" y1="60.892" x2="33.572" y2="60.233"/>
	<line style="fill:none;stroke:#000000;stroke-miterlimit:1;" x1="33.572" y1="60.233" x2="37.193" y2="57.6"/>
	<line style="fill:none;stroke:#000000;stroke-miterlimit:1;" x1="37.193" y1="57.6" x2="41.143" y2="53.321"/>
	<line style="fill:none;stroke:#000000;stroke-miterlimit:1;" x1="41.143" y1="53.321" x2="45.092" y2="50.03"/>
	<line style="fill:none;stroke:#000000;stroke-miterlimit:1;" x1="45.092" y1="50.03" x2="48.055" y2="47.396"/>
</g>
</svg>
