<?xml version="1.0" encoding="iso-8859-1"?>
<!-- Generator: Adobe Illustrator 16.0.1, SVG Export Plug-In . SVG Version: 6.00 Build 0)  -->
<!DOCTYPE svg PUBLIC "-//W3C//DTD SVG 1.1//EN" "http://www.w3.org/Graphics/SVG/1.1/DTD/svg11.dtd">
<svg version="1.1" id="Ebene_1" xmlns="http://www.w3.org/2000/svg" xmlns:xlink="http://www.w3.org/1999/xlink" x="0px" y="0px"
	 width="294.994px" height="119.109px" viewBox="0 0 294.994 119.109" style="enable-background:new 0 0 294.994 119.109;"
	 xml:space="preserve">
<g>
	<line style="fill:none;stroke:#000000;stroke-miterlimit:1;" x1="39.168" y1="32.874" x2="40.814" y2="32.874"/>
	<line style="fill:none;stroke:#000000;stroke-miterlimit:1;" x1="40.814" y1="32.874" x2="41.801" y2="32.544"/>
	<line style="fill:none;stroke:#000000;stroke-miterlimit:1;" x1="41.801" y1="32.544" x2="43.447" y2="31.228"/>
	<line style="fill:none;stroke:#000000;stroke-miterlimit:1;" x1="43.447" y1="31.228" x2="43.776" y2="30.24"/>
	<line style="fill:none;stroke:#000000;stroke-miterlimit:1;" x1="43.776" y1="30.24" x2="44.105" y2="28.594"/>
	<line style="fill:none;stroke:#000000;stroke-miterlimit:1;" x1="44.105" y1="28.594" x2="43.447" y2="26.949"/>
	<line style="fill:none;stroke:#000000;stroke-miterlimit:1;" x1="43.447" y1="26.949" x2="42.789" y2="25.632"/>
	<line style="fill:none;stroke:#000000;stroke-miterlimit:1;" x1="42.789" y1="25.632" x2="41.472" y2="24.645"/>
	<line style="fill:none;stroke:#000000;stroke-miterlimit:1;" x1="41.472" y1="24.645" x2="39.827" y2="24.315"/>
	<line style="fill:none;stroke:#000000;stroke-miterlimit:1;" x1="39.827" y1="24.315" x2="37.852" y2="24.645"/>
	<line style="fill:none;stroke:#000000;stroke-miterlimit:1;" x1="37.852" y1="24.645" x2="36.535" y2="24.974"/>
	<line style="fill:none;stroke:#000000;stroke-miterlimit:1;" x1="36.535" y1="24.974" x2="35.548" y2="26.291"/>
	<line style="fill:none;stroke:#000000;stroke-miterlimit:1;" x1="35.548" y1="26.291" x2="34.889" y2="28.594"/>
	<line style="fill:none;stroke:#000000;stroke-miterlimit:1;" x1="34.889" y1="28.594" x2="35.219" y2="30.569"/>
	<line style="fill:none;stroke:#000000;stroke-miterlimit:1;" x1="35.219" y1="30.569" x2="36.206" y2="31.557"/>
	<line style="fill:none;stroke:#000000;stroke-miterlimit:1;" x1="36.206" y1="31.557" x2="37.193" y2="32.874"/>
	<line style="fill:none;stroke:#000000;stroke-miterlimit:1;" x1="37.193" y1="32.874" x2="38.181" y2="32.874"/>
	<line style="fill:none;stroke:#000000;stroke-miterlimit:1;" x1="38.181" y1="32.874" x2="39.168" y2="33.203"/>
	<line style="fill:none;stroke:#000000;stroke-miterlimit:1;" x1="65.5" y1="18.391" x2="64.183" y2="15.758"/>
	<line style="fill:none;stroke:#000000;stroke-miterlimit:1;" x1="64.183" y1="15.758" x2="62.538" y2="13.125"/>
	<line style="fill:none;stroke:#000000;stroke-miterlimit:1;" x1="62.538" y1="13.125" x2="60.892" y2="10.492"/>
	<line style="fill:none;stroke:#000000;stroke-miterlimit:1;" x1="60.892" y1="10.492" x2="58.917" y2="8.846"/>
	<line style="fill:none;stroke:#000000;stroke-miterlimit:1;" x1="58.917" y1="8.846" x2="56.613" y2="6.542"/>
	<line style="fill:none;stroke:#000000;stroke-miterlimit:1;" x1="56.613" y1="6.542" x2="54.309" y2="4.896"/>
	<line style="fill:none;stroke:#000000;stroke-miterlimit:1;" x1="54.309" y1="4.896" x2="51.676" y2="3.58"/>
	<line style="fill:none;stroke:#000000;stroke-miterlimit:1;" x1="51.676" y1="3.58" x2="49.042" y2="2.592"/>
	<line style="fill:none;stroke:#000000;stroke-miterlimit:1;" x1="49.042" y1="2.592" x2="46.08" y2="1.276"/>
	<line style="fill:none;stroke:#000000;stroke-miterlimit:1;" x1="46.08" y1="1.276" x2="43.118" y2="0.946"/>
	<line style="fill:none;stroke:#000000;stroke-miterlimit:1;" x1="43.118" y1="0.946" x2="40.156" y2="0.617"/>
	<line style="fill:none;stroke:#000000;stroke-miterlimit:1;" x1="40.156" y1="0.617" x2="37.522" y2="0.946"/>
	<line style="fill:none;stroke:#000000;stroke-miterlimit:1;" x1="37.522" y1="0.946" x2="34.889" y2="1.276"/>
	<line style="fill:none;stroke:#000000;stroke-miterlimit:1;" x1="34.889" y1="1.276" x2="32.256" y2="1.605"/>
	<line style="fill:none;stroke:#000000;stroke-miterlimit:1;" x1="32.256" y1="1.605" x2="29.623" y2="2.592"/>
	<line style="fill:none;stroke:#000000;stroke-miterlimit:1;" x1="29.623" y1="2.592" x2="26.661" y2="3.909"/>
	<line style="fill:none;stroke:#000000;stroke-miterlimit:1;" x1="26.661" y1="3.909" x2="24.028" y2="5.225"/>
	<line style="fill:none;stroke:#000000;stroke-miterlimit:1;" x1="24.028" y1="5.225" x2="21.724" y2="6.871"/>
	<line style="fill:none;stroke:#000000;stroke-miterlimit:1;" x1="21.724" y1="6.871" x2="19.09" y2="9.175"/>
	<line style="fill:none;stroke:#000000;stroke-miterlimit:1;" x1="19.09" y1="9.175" x2="17.445" y2="11.15"/>
	<line style="fill:none;stroke:#000000;stroke-miterlimit:1;" x1="17.445" y1="11.15" x2="15.47" y2="13.783"/>
	<line style="fill:none;stroke:#000000;stroke-miterlimit:1;" x1="15.47" y1="13.783" x2="14.153" y2="16.087"/>
	<line style="fill:none;stroke:#000000;stroke-miterlimit:1;" x1="14.153" y1="16.087" x2="12.837" y2="18.72"/>
	<line style="fill:none;stroke:#000000;stroke-miterlimit:1;" x1="12.837" y1="18.72" x2="12.179" y2="21.354"/>
	<line style="fill:none;stroke:#000000;stroke-miterlimit:1;" x1="12.179" y1="21.354" x2="11.191" y2="24.974"/>
	<line style="fill:none;stroke:#000000;stroke-miterlimit:1;" x1="11.191" y1="24.974" x2="11.191" y2="28.265"/>
	<line style="fill:none;stroke:#000000;stroke-miterlimit:1;" x1="11.191" y1="28.265" x2="11.191" y2="31.557"/>
	<line style="fill:none;stroke:#000000;stroke-miterlimit:1;" x1="11.191" y1="31.557" x2="11.85" y2="34.848"/>
	<line style="fill:none;stroke:#000000;stroke-miterlimit:1;" x1="11.85" y1="34.848" x2="12.508" y2="38.14"/>
	<line style="fill:none;stroke:#000000;stroke-miterlimit:1;" x1="12.508" y1="38.14" x2="13.824" y2="40.773"/>
	<line style="fill:none;stroke:#000000;stroke-miterlimit:1;" x1="13.824" y1="40.773" x2="15.141" y2="43.406"/>
	<line style="fill:none;stroke:#000000;stroke-miterlimit:1;" x1="15.141" y1="43.406" x2="16.787" y2="45.71"/>
	<line style="fill:none;stroke:#000000;stroke-miterlimit:1;" x1="16.787" y1="45.71" x2="19.09" y2="48.014"/>
	<line style="fill:none;stroke:#000000;stroke-miterlimit:1;" x1="19.09" y1="48.014" x2="20.736" y2="49.989"/>
	<line style="fill:none;stroke:#000000;stroke-miterlimit:1;" x1="20.736" y1="49.989" x2="23.699" y2="51.963"/>
	<line style="fill:none;stroke:#000000;stroke-miterlimit:1;" x1="23.699" y1="51.963" x2="25.673" y2="53.609"/>
	<line style="fill:none;stroke:#000000;stroke-miterlimit:1;" x1="25.673" y1="53.609" x2="28.965" y2="54.597"/>
	<line style="fill:none;stroke:#000000;stroke-miterlimit:1;" x1="28.965" y1="54.597" x2="31.927" y2="55.584"/>
	<line style="fill:none;stroke:#000000;stroke-miterlimit:1;" x1="31.927" y1="55.584" x2="34.231" y2="56.572"/>
	<line style="fill:none;stroke:#000000;stroke-miterlimit:1;" x1="34.231" y1="56.572" x2="37.522" y2="56.572"/>
	<line style="fill:none;stroke:#000000;stroke-miterlimit:1;" x1="37.522" y1="56.572" x2="40.485" y2="56.572"/>
	<line style="fill:none;stroke:#000000;stroke-miterlimit:1;" x1="40.485" y1="56.572" x2="43.776" y2="56.572"/>
	<line style="fill:none;stroke:#000000;stroke-miterlimit:1;" x1="43.776" y1="56.572" x2="46.739" y2="55.914"/>
	<line style="fill:none;stroke:#000000;stroke-miterlimit:1;" x1="46.739" y1="55.914" x2="49.701" y2="55.255"/>
	<line style="fill:none;stroke:#000000;stroke-miterlimit:1;" x1="49.701" y1="55.255" x2="52.005" y2="54.268"/>
	<line style="fill:none;stroke:#000000;stroke-miterlimit:1;" x1="52.005" y1="54.268" x2="54.638" y2="52.622"/>
	<line style="fill:none;stroke:#000000;stroke-miterlimit:1;" x1="54.638" y1="52.622" x2="57.271" y2="50.647"/>
	<line style="fill:none;stroke:#000000;stroke-miterlimit:1;" x1="57.271" y1="50.647" x2="59.246" y2="48.672"/>
	<line style="fill:none;stroke:#000000;stroke-miterlimit:1;" x1="59.246" y1="48.672" x2="61.221" y2="46.697"/>
	<line style="fill:none;stroke:#000000;stroke-miterlimit:1;" x1="61.221" y1="46.697" x2="63.196" y2="43.735"/>
	<line style="fill:none;stroke:#000000;stroke-miterlimit:1;" x1="63.196" y1="43.735" x2="64.512" y2="41.431"/>
	<line style="fill:none;stroke:#000000;stroke-miterlimit:1;" x1="64.512" y1="41.431" x2="65.829" y2="38.798"/>
	<line style="fill:none;stroke:#000000;stroke-miterlimit:1;" x1="65.829" y1="38.798" x2="66.487" y2="35.835"/>
	<line style="fill:none;stroke:#000000;stroke-miterlimit:1;" x1="66.487" y1="35.835" x2="67.475" y2="32.874"/>
	<line style="fill:none;stroke:#000000;stroke-miterlimit:1;" x1="67.475" y1="32.874" x2="67.804" y2="30.24"/>
	<line style="fill:none;stroke:#000000;stroke-miterlimit:1;" x1="67.804" y1="30.24" x2="67.804" y2="26.949"/>
	<line style="fill:none;stroke:#000000;stroke-miterlimit:1;" x1="67.804" y1="26.949" x2="67.475" y2="23.986"/>
	<line style="fill:none;stroke:#000000;stroke-miterlimit:1;" x1="67.475" y1="23.986" x2="66.487" y2="21.024"/>
	<line style="fill:none;stroke:#000000;stroke-miterlimit:1;" x1="66.487" y1="21.024" x2="65.829" y2="18.391"/>
	<line style="fill:none;stroke:#000000;stroke-miterlimit:1;" x1="80.311" y1="118.451" x2="55.625" y2="52.293"/>
	<line style="fill:none;stroke:#000000;stroke-miterlimit:1;" x1="40.156" y1="119.109" x2="40.156" y2="56.901"/>
	<line style="fill:none;stroke:#000000;stroke-miterlimit:1;" x1="0" y1="118.451" x2="23.369" y2="52.622"/>
	<line style="fill:none;stroke:#000000;stroke-miterlimit:1;" x1="97.714" y1="20.736" x2="100.348" y2="18.432"/>
	<line style="fill:none;stroke:#000000;stroke-miterlimit:1;" x1="100.348" y1="18.432" x2="104.626" y2="16.787"/>
	<line style="fill:none;stroke:#000000;stroke-miterlimit:1;" x1="104.626" y1="16.787" x2="112.197" y2="13.495"/>
	<line style="fill:none;stroke:#000000;stroke-miterlimit:1;" x1="112.197" y1="13.495" x2="120.754" y2="10.862"/>
	<line style="fill:none;stroke:#000000;stroke-miterlimit:1;" x1="120.754" y1="10.862" x2="130.3" y2="8.229"/>
	<line style="fill:none;stroke:#000000;stroke-miterlimit:1;" x1="130.3" y1="8.229" x2="144.453" y2="4.938"/>
	<line style="fill:none;stroke:#000000;stroke-miterlimit:1;" x1="144.453" y1="4.938" x2="156.631" y2="3.621"/>
	<line style="fill:none;stroke:#000000;stroke-miterlimit:1;" x1="156.631" y1="3.621" x2="166.177" y2="2.304"/>
	<line style="fill:none;stroke:#000000;stroke-miterlimit:1;" x1="166.177" y1="2.304" x2="177.038" y2="1.646"/>
	<line style="fill:none;stroke:#000000;stroke-miterlimit:1;" x1="177.038" y1="1.646" x2="186.912" y2="2.304"/>
	<line style="fill:none;stroke:#000000;stroke-miterlimit:1;" x1="186.912" y1="2.304" x2="198.433" y2="2.962"/>
	<line style="fill:none;stroke:#000000;stroke-miterlimit:1;" x1="198.433" y1="2.962" x2="209.623" y2="4.279"/>
	<line style="fill:none;stroke:#000000;stroke-miterlimit:1;" x1="209.623" y1="4.279" x2="220.155" y2="6.583"/>
	<line style="fill:none;stroke:#000000;stroke-miterlimit:1;" x1="220.155" y1="6.583" x2="229.372" y2="8.887"/>
	<line style="fill:none;stroke:#000000;stroke-miterlimit:1;" x1="229.372" y1="8.887" x2="237.93" y2="11.52"/>
	<line style="fill:none;stroke:#000000;stroke-miterlimit:1;" x1="237.93" y1="11.52" x2="246.487" y2="14.153"/>
	<line style="fill:none;stroke:#000000;stroke-miterlimit:1;" x1="246.487" y1="14.153" x2="253.07" y2="16.787"/>
	<line style="fill:none;stroke:#000000;stroke-miterlimit:1;" x1="253.07" y1="16.787" x2="255.703" y2="18.103"/>
	<line style="fill:none;stroke:#000000;stroke-miterlimit:1;" x1="255.703" y1="18.103" x2="257.678" y2="20.407"/>
	<line style="fill:none;stroke:#000000;stroke-miterlimit:1;" x1="257.678" y1="20.407" x2="258.007" y2="20.736"/>
	<line style="fill:none;stroke:#000000;stroke-miterlimit:1;" x1="258.007" y1="20.736" x2="255.703" y2="23.04"/>
	<line style="fill:none;stroke:#000000;stroke-miterlimit:1;" x1="255.703" y1="23.04" x2="249.449" y2="26.99"/>
	<line style="fill:none;stroke:#000000;stroke-miterlimit:1;" x1="249.449" y1="26.99" x2="237.271" y2="31.598"/>
	<line style="fill:none;stroke:#000000;stroke-miterlimit:1;" x1="237.271" y1="31.598" x2="225.422" y2="35.218"/>
	<line style="fill:none;stroke:#000000;stroke-miterlimit:1;" x1="225.422" y1="35.218" x2="212.256" y2="38.181"/>
	<line style="fill:none;stroke:#000000;stroke-miterlimit:1;" x1="212.256" y1="38.181" x2="202.382" y2="39.168"/>
	<line style="fill:none;stroke:#000000;stroke-miterlimit:1;" x1="202.382" y1="39.168" x2="191.85" y2="40.485"/>
	<line style="fill:none;stroke:#000000;stroke-miterlimit:1;" x1="191.85" y1="40.485" x2="178.025" y2="41.143"/>
	<line style="fill:none;stroke:#000000;stroke-miterlimit:1;" x1="178.025" y1="41.143" x2="169.139" y2="40.485"/>
	<line style="fill:none;stroke:#000000;stroke-miterlimit:1;" x1="169.139" y1="40.485" x2="159.594" y2="39.827"/>
	<line style="fill:none;stroke:#000000;stroke-miterlimit:1;" x1="159.594" y1="39.827" x2="151.036" y2="39.168"/>
	<line style="fill:none;stroke:#000000;stroke-miterlimit:1;" x1="151.036" y1="39.168" x2="138.528" y2="37.193"/>
	<line style="fill:none;stroke:#000000;stroke-miterlimit:1;" x1="138.528" y1="37.193" x2="124.704" y2="33.902"/>
	<line style="fill:none;stroke:#000000;stroke-miterlimit:1;" x1="124.704" y1="33.902" x2="114.83" y2="30.61"/>
	<line style="fill:none;stroke:#000000;stroke-miterlimit:1;" x1="114.83" y1="30.61" x2="105.614" y2="26.661"/>
	<line style="fill:none;stroke:#000000;stroke-miterlimit:1;" x1="105.614" y1="26.661" x2="99.689" y2="23.369"/>
	<line style="fill:none;stroke:#000000;stroke-miterlimit:1;" x1="99.689" y1="23.369" x2="97.714" y2="20.736"/>
	<line style="fill:none;stroke:#000000;stroke-miterlimit:1;" x1="281.829" y1="0" x2="281.829" y2="59.246"/>
	<line style="fill:none;stroke:#000000;stroke-miterlimit:1;" x1="281.829" y1="59.246" x2="294.994" y2="59.246"/>
	<line style="fill:none;stroke:#000000;stroke-miterlimit:1;" x1="294.994" y1="59.246" x2="294.994" y2="0"/>
	<line style="fill:none;stroke:#000000;stroke-miterlimit:1;" x1="294.994" y1="0" x2="281.829" y2="0"/>
</g>
</svg>
