<?xml version="1.0" encoding="iso-8859-1"?>
<!-- Generator: Adobe Illustrator 16.0.1, SVG Export Plug-In . SVG Version: 6.00 Build 0)  -->
<!DOCTYPE svg PUBLIC "-//W3C//DTD SVG 1.1//EN" "http://www.w3.org/Graphics/SVG/1.1/DTD/svg11.dtd">
<svg version="1.1" id="Ebene_1" xmlns="http://www.w3.org/2000/svg" xmlns:xlink="http://www.w3.org/1999/xlink" x="0px" y="0px"
	 width="256.406px" height="148.114px" viewBox="0 0 256.406 148.114" style="enable-background:new 0 0 256.406 148.114;"
	 xml:space="preserve">
<g>
	<line style="fill:none;stroke:#000000;stroke-miterlimit:1;" x1="48.055" y1="130.628" x2="67.804" y2="130.628"/>
	<line style="fill:none;stroke:#000000;stroke-miterlimit:1;" x1="67.804" y1="130.628" x2="67.475" y2="123.387"/>
	<line style="fill:none;stroke:#000000;stroke-miterlimit:1;" x1="67.475" y1="123.387" x2="69.449" y2="113.842"/>
	<line style="fill:none;stroke:#000000;stroke-miterlimit:1;" x1="69.449" y1="113.842" x2="71.424" y2="108.247"/>
	<line style="fill:none;stroke:#000000;stroke-miterlimit:1;" x1="71.424" y1="108.247" x2="75.374" y2="99.359"/>
	<line style="fill:none;stroke:#000000;stroke-miterlimit:1;" x1="75.374" y1="99.359" x2="93.477" y2="67.433"/>
	<line style="fill:none;stroke:#000000;stroke-miterlimit:1;" x1="93.477" y1="67.433" x2="94.464" y2="60.521"/>
	<line style="fill:none;stroke:#000000;stroke-miterlimit:1;" x1="94.464" y1="60.521" x2="94.793" y2="57.229"/>
	<line style="fill:none;stroke:#000000;stroke-miterlimit:1;" x1="94.793" y1="57.229" x2="94.135" y2="51.305"/>
	<line style="fill:none;stroke:#000000;stroke-miterlimit:1;" x1="94.135" y1="51.305" x2="93.147" y2="47.355"/>
	<line style="fill:none;stroke:#000000;stroke-miterlimit:1;" x1="93.147" y1="47.355" x2="91.502" y2="42.418"/>
	<line style="fill:none;stroke:#000000;stroke-miterlimit:1;" x1="91.502" y1="42.418" x2="88.54" y2="37.81"/>
	<line style="fill:none;stroke:#000000;stroke-miterlimit:1;" x1="88.54" y1="37.81" x2="86.236" y2="35.177"/>
	<line style="fill:none;stroke:#000000;stroke-miterlimit:1;" x1="86.236" y1="35.177" x2="80.311" y2="29.582"/>
	<line style="fill:none;stroke:#000000;stroke-miterlimit:1;" x1="80.311" y1="29.582" x2="75.703" y2="27.936"/>
	<line style="fill:none;stroke:#000000;stroke-miterlimit:1;" x1="75.703" y1="27.936" x2="66.158" y2="26.948"/>
	<line style="fill:none;stroke:#000000;stroke-miterlimit:1;" x1="66.158" y1="26.948" x2="58.258" y2="27.936"/>
	<line style="fill:none;stroke:#000000;stroke-miterlimit:1;" x1="58.258" y1="27.936" x2="54.967" y2="29.252"/>
	<line style="fill:none;stroke:#000000;stroke-miterlimit:1;" x1="54.967" y1="29.252" x2="51.017" y2="31.885"/>
	<line style="fill:none;stroke:#000000;stroke-miterlimit:1;" x1="51.017" y1="31.885" x2="47.396" y2="35.835"/>
	<line style="fill:none;stroke:#000000;stroke-miterlimit:1;" x1="47.396" y1="35.835" x2="45.751" y2="38.139"/>
	<line style="fill:none;stroke:#000000;stroke-miterlimit:1;" x1="45.751" y1="38.139" x2="44.105" y2="40.114"/>
	<line style="fill:none;stroke:#000000;stroke-miterlimit:1;" x1="43.118" y1="40.443" x2="40.156" y2="41.76"/>
	<line style="fill:none;stroke:#000000;stroke-miterlimit:1;" x1="40.156" y1="41.76" x2="7.899" y2="48.014"/>
	<line style="fill:none;stroke:#000000;stroke-miterlimit:1;" x1="7.899" y1="48.014" x2="4.938" y2="50.317"/>
	<line style="fill:none;stroke:#000000;stroke-miterlimit:1;" x1="4.938" y1="50.317" x2="2.633" y2="51.963"/>
	<line style="fill:none;stroke:#000000;stroke-miterlimit:1;" x1="2.633" y1="51.963" x2="0.658" y2="55.584"/>
	<line style="fill:none;stroke:#000000;stroke-miterlimit:1;" x1="0.658" y1="55.584" x2="0" y2="60.85"/>
	<line style="fill:none;stroke:#000000;stroke-miterlimit:1;" x1="0" y1="60.85" x2="0.329" y2="62.167"/>
	<line style="fill:none;stroke:#000000;stroke-miterlimit:1;" x1="0.329" y1="62.167" x2="1.317" y2="62.825"/>
	<line style="fill:none;stroke:#000000;stroke-miterlimit:1;" x1="1.317" y1="62.825" x2="1.975" y2="62.825"/>
	<line style="fill:none;stroke:#000000;stroke-miterlimit:1;" x1="1.975" y1="62.825" x2="3.621" y2="62.167"/>
	<line style="fill:none;stroke:#000000;stroke-miterlimit:1;" x1="3.621" y1="62.167" x2="4.279" y2="59.204"/>
	<line style="fill:none;stroke:#000000;stroke-miterlimit:1;" x1="4.279" y1="59.204" x2="6.254" y2="56.242"/>
	<line style="fill:none;stroke:#000000;stroke-miterlimit:1;" x1="6.254" y1="56.242" x2="9.216" y2="53.609"/>
	<line style="fill:none;stroke:#000000;stroke-miterlimit:1;" x1="9.216" y1="53.609" x2="12.508" y2="52.622"/>
	<line style="fill:none;stroke:#000000;stroke-miterlimit:1;" x1="12.508" y1="52.622" x2="16.787" y2="51.305"/>
	<line style="fill:none;stroke:#000000;stroke-miterlimit:1;" x1="16.787" y1="51.305" x2="43.447" y2="47.685"/>
	<line style="fill:none;stroke:#000000;stroke-miterlimit:1;" x1="43.447" y1="47.685" x2="44.105" y2="47.355"/>
	<line style="fill:none;stroke:#000000;stroke-miterlimit:1;" x1="44.105" y1="47.355" x2="48.055" y2="48.014"/>
	<line style="fill:none;stroke:#000000;stroke-miterlimit:1;" x1="43.447" y1="40.443" x2="48.055" y2="48.343"/>
	<line style="fill:none;stroke:#000000;stroke-miterlimit:1;" x1="48.055" y1="48.343" x2="48.055" y2="52.622"/>
	<line style="fill:none;stroke:#000000;stroke-miterlimit:1;" x1="4.938" y1="58.875" x2="7.899" y2="56.9"/>
	<line style="fill:none;stroke:#000000;stroke-miterlimit:1;" x1="7.899" y1="56.9" x2="12.837" y2="55.584"/>
	<line style="fill:none;stroke:#000000;stroke-miterlimit:1;" x1="12.837" y1="55.584" x2="25.673" y2="54.267"/>
	<line style="fill:none;stroke:#000000;stroke-miterlimit:1;" x1="25.673" y1="54.267" x2="38.51" y2="52.622"/>
	<line style="fill:none;stroke:#000000;stroke-miterlimit:1;" x1="38.51" y1="52.622" x2="43.776" y2="52.622"/>
	<line style="fill:none;stroke:#000000;stroke-miterlimit:1;" x1="43.776" y1="52.622" x2="48.384" y2="52.622"/>
	<line style="fill:none;stroke:#000000;stroke-miterlimit:1;" x1="48.384" y1="52.622" x2="51.017" y2="52.951"/>
	<line style="fill:none;stroke:#000000;stroke-miterlimit:1;" x1="51.017" y1="52.951" x2="56.284" y2="54.267"/>
	<line style="fill:none;stroke:#000000;stroke-miterlimit:1;" x1="56.284" y1="54.267" x2="65.5" y2="55.913"/>
	<line style="fill:none;stroke:#000000;stroke-miterlimit:1;" x1="65.5" y1="55.913" x2="70.437" y2="56.242"/>
	<line style="fill:none;stroke:#000000;stroke-miterlimit:1;" x1="70.437" y1="56.242" x2="74.057" y2="55.913"/>
	<line style="fill:none;stroke:#000000;stroke-miterlimit:1;" x1="74.057" y1="55.913" x2="78.007" y2="54.925"/>
	<line style="fill:none;stroke:#000000;stroke-miterlimit:1;" x1="78.007" y1="54.925" x2="80.311" y2="56.242"/>
	<line style="fill:none;stroke:#000000;stroke-miterlimit:1;" x1="80.311" y1="56.242" x2="81.298" y2="57.888"/>
	<line style="fill:none;stroke:#000000;stroke-miterlimit:1;" x1="81.298" y1="57.888" x2="81.627" y2="61.837"/>
	<line style="fill:none;stroke:#000000;stroke-miterlimit:1;" x1="81.627" y1="61.837" x2="81.298" y2="65.129"/>
	<line style="fill:none;stroke:#000000;stroke-miterlimit:1;" x1="81.298" y1="65.129" x2="79.653" y2="69.079"/>
	<line style="fill:none;stroke:#000000;stroke-miterlimit:1;" x1="79.653" y1="69.079" x2="65.17" y2="88.169"/>
	<line style="fill:none;stroke:#000000;stroke-miterlimit:1;" x1="65.17" y1="88.169" x2="57.929" y2="99.688"/>
	<line style="fill:none;stroke:#000000;stroke-miterlimit:1;" x1="57.929" y1="99.688" x2="54.967" y2="105.613"/>
	<line style="fill:none;stroke:#000000;stroke-miterlimit:1;" x1="54.967" y1="105.613" x2="51.347" y2="112.525"/>
	<line style="fill:none;stroke:#000000;stroke-miterlimit:1;" x1="51.347" y1="112.525" x2="49.372" y2="121.412"/>
	<line style="fill:none;stroke:#000000;stroke-miterlimit:1;" x1="49.372" y1="121.412" x2="48.055" y2="130.628"/>
	<line style="fill:none;stroke:#000000;stroke-miterlimit:1;" x1="76.361" y1="28.265" x2="93.477" y2="34.519"/>
	<line style="fill:none;stroke:#000000;stroke-miterlimit:1;" x1="93.477" y1="34.519" x2="110.263" y2="38.797"/>
	<line style="fill:none;stroke:#000000;stroke-miterlimit:1;" x1="110.263" y1="38.797" x2="117.175" y2="40.114"/>
	<line style="fill:none;stroke:#000000;stroke-miterlimit:1;" x1="117.175" y1="40.114" x2="123.1" y2="40.443"/>
	<line style="fill:none;stroke:#000000;stroke-miterlimit:1;" x1="123.1" y1="40.443" x2="130.341" y2="40.443"/>
	<line style="fill:none;stroke:#000000;stroke-miterlimit:1;" x1="130.341" y1="40.443" x2="138.24" y2="40.114"/>
	<line style="fill:none;stroke:#000000;stroke-miterlimit:1;" x1="138.24" y1="40.114" x2="144.165" y2="38.797"/>
	<line style="fill:none;stroke:#000000;stroke-miterlimit:1;" x1="144.165" y1="38.797" x2="150.089" y2="37.481"/>
	<line style="fill:none;stroke:#000000;stroke-miterlimit:1;" x1="150.089" y1="37.481" x2="150.748" y2="38.139"/>
	<line style="fill:none;stroke:#000000;stroke-miterlimit:1;" x1="150.748" y1="38.139" x2="150.089" y2="40.443"/>
	<line style="fill:none;stroke:#000000;stroke-miterlimit:1;" x1="150.089" y1="40.443" x2="147.785" y2="42.089"/>
	<line style="fill:none;stroke:#000000;stroke-miterlimit:1;" x1="147.785" y1="42.089" x2="139.886" y2="43.734"/>
	<line style="fill:none;stroke:#000000;stroke-miterlimit:1;" x1="139.886" y1="43.734" x2="131.986" y2="44.722"/>
	<line style="fill:none;stroke:#000000;stroke-miterlimit:1;" x1="131.986" y1="44.722" x2="123.1" y2="44.722"/>
	<line style="fill:none;stroke:#000000;stroke-miterlimit:1;" x1="123.1" y1="44.722" x2="115.529" y2="44.063"/>
	<line style="fill:none;stroke:#000000;stroke-miterlimit:1;" x1="115.529" y1="44.063" x2="102.693" y2="41.76"/>
	<line style="fill:none;stroke:#000000;stroke-miterlimit:1;" x1="102.693" y1="41.76" x2="95.452" y2="39.456"/>
	<line style="fill:none;stroke:#000000;stroke-miterlimit:1;" x1="86.236" y1="34.519" x2="99.072" y2="41.431"/>
	<line style="fill:none;stroke:#000000;stroke-miterlimit:1;" x1="99.072" y1="41.431" x2="111.909" y2="48.014"/>
	<line style="fill:none;stroke:#000000;stroke-miterlimit:1;" x1="111.909" y1="48.014" x2="119.808" y2="51.963"/>
	<line style="fill:none;stroke:#000000;stroke-miterlimit:1;" x1="119.808" y1="51.963" x2="125.733" y2="54.267"/>
	<line style="fill:none;stroke:#000000;stroke-miterlimit:1;" x1="125.733" y1="54.267" x2="132.315" y2="55.913"/>
	<line style="fill:none;stroke:#000000;stroke-miterlimit:1;" x1="132.315" y1="55.913" x2="136.924" y2="56.571"/>
	<line style="fill:none;stroke:#000000;stroke-miterlimit:1;" x1="136.924" y1="56.571" x2="145.481" y2="57.559"/>
	<line style="fill:none;stroke:#000000;stroke-miterlimit:1;" x1="145.481" y1="57.559" x2="149.102" y2="56.9"/>
	<line style="fill:none;stroke:#000000;stroke-miterlimit:1;" x1="149.102" y1="56.9" x2="150.748" y2="56.571"/>
	<line style="fill:none;stroke:#000000;stroke-miterlimit:1;" x1="150.748" y1="56.571" x2="152.064" y2="57.559"/>
	<line style="fill:none;stroke:#000000;stroke-miterlimit:1;" x1="152.064" y1="57.559" x2="152.394" y2="59.534"/>
	<line style="fill:none;stroke:#000000;stroke-miterlimit:1;" x1="152.394" y1="59.534" x2="147.456" y2="61.179"/>
	<line style="fill:none;stroke:#000000;stroke-miterlimit:1;" x1="147.456" y1="61.179" x2="141.531" y2="61.837"/>
	<line style="fill:none;stroke:#000000;stroke-miterlimit:1;" x1="141.531" y1="61.837" x2="134.949" y2="60.85"/>
	<line style="fill:none;stroke:#000000;stroke-miterlimit:1;" x1="134.949" y1="60.85" x2="125.733" y2="58.875"/>
	<line style="fill:none;stroke:#000000;stroke-miterlimit:1;" x1="125.733" y1="58.875" x2="117.833" y2="56.242"/>
	<line style="fill:none;stroke:#000000;stroke-miterlimit:1;" x1="117.833" y1="56.242" x2="110.263" y2="52.622"/>
	<line style="fill:none;stroke:#000000;stroke-miterlimit:1;" x1="110.263" y1="52.622" x2="91.831" y2="42.089"/>
	<line style="fill:none;stroke:#000000;stroke-miterlimit:1;" x1="58.587" y1="36.494" x2="56.613" y2="36.823"/>
	<line style="fill:none;stroke:#000000;stroke-miterlimit:1;" x1="56.613" y1="36.823" x2="54.967" y2="38.797"/>
	<line style="fill:none;stroke:#000000;stroke-miterlimit:1;" x1="54.967" y1="38.797" x2="54.967" y2="41.102"/>
	<line style="fill:none;stroke:#000000;stroke-miterlimit:1;" x1="54.967" y1="41.102" x2="56.613" y2="42.747"/>
	<line style="fill:none;stroke:#000000;stroke-miterlimit:1;" x1="56.613" y1="42.747" x2="58.917" y2="42.747"/>
	<line style="fill:none;stroke:#000000;stroke-miterlimit:1;" x1="58.917" y1="42.747" x2="61.221" y2="41.76"/>
	<line style="fill:none;stroke:#000000;stroke-miterlimit:1;" x1="61.221" y1="41.76" x2="61.55" y2="40.443"/>
	<line style="fill:none;stroke:#000000;stroke-miterlimit:1;" x1="61.55" y1="40.443" x2="60.892" y2="38.468"/>
	<line style="fill:none;stroke:#000000;stroke-miterlimit:1;" x1="60.892" y1="38.468" x2="59.246" y2="36.494"/>
	<line style="fill:none;stroke:#000000;stroke-miterlimit:1;" x1="201.209" y1="75.351" x2="245.333" y2="32.923"/>
	<line style="fill:none;stroke:#000000;stroke-miterlimit:1;" x1="185.256" y1="69.241" x2="239.562" y2="17.31"/>
	<line style="fill:none;stroke:#000000;stroke-miterlimit:1;" x1="174.733" y1="58.041" x2="229.041" y2="6.109"/>
	<line style="fill:none;stroke:#000000;stroke-miterlimit:1;" x1="169.303" y1="42.088" x2="212.749" y2="0.679"/>
	<line style="fill:none;stroke:#000000;stroke-miterlimit:1;" x1="223.271" y1="3.055" x2="219.537" y2="2.036"/>
	<line style="fill:none;stroke:#000000;stroke-miterlimit:1;" x1="219.537" y1="2.036" x2="215.804" y2="0.679"/>
	<line style="fill:none;stroke:#000000;stroke-miterlimit:1;" x1="215.804" y1="0.679" x2="211.73" y2="0"/>
	<line style="fill:none;stroke:#000000;stroke-miterlimit:1;" x1="211.73" y1="0" x2="207.657" y2="0"/>
	<line style="fill:none;stroke:#000000;stroke-miterlimit:1;" x1="207.657" y1="0" x2="203.245" y2="0.339"/>
	<line style="fill:none;stroke:#000000;stroke-miterlimit:1;" x1="203.245" y1="0.339" x2="199.512" y2="0.679"/>
	<line style="fill:none;stroke:#000000;stroke-miterlimit:1;" x1="199.512" y1="0.679" x2="195.438" y2="2.036"/>
	<line style="fill:none;stroke:#000000;stroke-miterlimit:1;" x1="195.438" y1="2.036" x2="191.705" y2="3.394"/>
	<line style="fill:none;stroke:#000000;stroke-miterlimit:1;" x1="191.705" y1="3.394" x2="187.971" y2="5.091"/>
	<line style="fill:none;stroke:#000000;stroke-miterlimit:1;" x1="187.971" y1="5.091" x2="184.577" y2="7.467"/>
	<line style="fill:none;stroke:#000000;stroke-miterlimit:1;" x1="184.577" y1="7.467" x2="181.861" y2="9.843"/>
	<line style="fill:none;stroke:#000000;stroke-miterlimit:1;" x1="181.861" y1="9.843" x2="179.146" y2="12.558"/>
	<line style="fill:none;stroke:#000000;stroke-miterlimit:1;" x1="179.146" y1="12.558" x2="177.109" y2="14.934"/>
	<line style="fill:none;stroke:#000000;stroke-miterlimit:1;" x1="177.109" y1="14.934" x2="175.073" y2="17.989"/>
	<line style="fill:none;stroke:#000000;stroke-miterlimit:1;" x1="175.073" y1="17.989" x2="172.697" y2="22.401"/>
	<line style="fill:none;stroke:#000000;stroke-miterlimit:1;" x1="172.697" y1="22.401" x2="171.679" y2="25.796"/>
	<line style="fill:none;stroke:#000000;stroke-miterlimit:1;" x1="171.679" y1="25.796" x2="170.66" y2="29.529"/>
	<line style="fill:none;stroke:#000000;stroke-miterlimit:1;" x1="170.66" y1="29.529" x2="169.981" y2="33.263"/>
	<line style="fill:none;stroke:#000000;stroke-miterlimit:1;" x1="169.981" y1="33.263" x2="169.303" y2="37.675"/>
	<line style="fill:none;stroke:#000000;stroke-miterlimit:1;" x1="169.303" y1="37.675" x2="169.303" y2="41.409"/>
	<line style="fill:none;stroke:#000000;stroke-miterlimit:1;" x1="169.303" y1="41.409" x2="169.981" y2="45.821"/>
	<line style="fill:none;stroke:#000000;stroke-miterlimit:1;" x1="169.981" y1="45.821" x2="171" y2="49.555"/>
	<line style="fill:none;stroke:#000000;stroke-miterlimit:1;" x1="171" y1="49.555" x2="172.019" y2="52.949"/>
	<line style="fill:none;stroke:#000000;stroke-miterlimit:1;" x1="172.019" y1="52.949" x2="173.716" y2="56.683"/>
	<line style="fill:none;stroke:#000000;stroke-miterlimit:1;" x1="173.716" y1="56.683" x2="174.733" y2="58.719"/>
	<line style="fill:none;stroke:#000000;stroke-miterlimit:1;" x1="174.733" y1="58.719" x2="176.092" y2="60.417"/>
	<line style="fill:none;stroke:#000000;stroke-miterlimit:1;" x1="176.092" y1="60.417" x2="179.485" y2="64.15"/>
	<line style="fill:none;stroke:#000000;stroke-miterlimit:1;" x1="179.485" y1="64.15" x2="182.88" y2="67.544"/>
	<line style="fill:none;stroke:#000000;stroke-miterlimit:1;" x1="182.88" y1="67.544" x2="185.935" y2="69.92"/>
	<line style="fill:none;stroke:#000000;stroke-miterlimit:1;" x1="185.935" y1="69.92" x2="189.668" y2="71.957"/>
	<line style="fill:none;stroke:#000000;stroke-miterlimit:1;" x1="189.668" y1="71.957" x2="193.741" y2="73.993"/>
	<line style="fill:none;stroke:#000000;stroke-miterlimit:1;" x1="193.741" y1="73.993" x2="197.814" y2="75.012"/>
	<line style="fill:none;stroke:#000000;stroke-miterlimit:1;" x1="197.814" y1="75.012" x2="201.209" y2="76.029"/>
	<line style="fill:none;stroke:#000000;stroke-miterlimit:1;" x1="201.209" y1="76.029" x2="205.281" y2="76.029"/>
	<line style="fill:none;stroke:#000000;stroke-miterlimit:1;" x1="205.281" y1="76.029" x2="209.354" y2="76.369"/>
	<line style="fill:none;stroke:#000000;stroke-miterlimit:1;" x1="209.354" y1="76.369" x2="214.106" y2="75.69"/>
	<line style="fill:none;stroke:#000000;stroke-miterlimit:1;" x1="214.106" y1="75.69" x2="217.501" y2="75.012"/>
	<line style="fill:none;stroke:#000000;stroke-miterlimit:1;" x1="217.501" y1="75.012" x2="221.573" y2="73.314"/>
	<line style="fill:none;stroke:#000000;stroke-miterlimit:1;" x1="221.573" y1="73.314" x2="225.646" y2="71.278"/>
	<line style="fill:none;stroke:#000000;stroke-miterlimit:1;" x1="225.646" y1="71.278" x2="228.362" y2="69.92"/>
	<line style="fill:none;stroke:#000000;stroke-miterlimit:1;" x1="228.362" y1="69.92" x2="231.417" y2="67.205"/>
	<line style="fill:none;stroke:#000000;stroke-miterlimit:1;" x1="231.417" y1="67.205" x2="234.472" y2="64.489"/>
	<line style="fill:none;stroke:#000000;stroke-miterlimit:1;" x1="234.472" y1="64.489" x2="237.526" y2="61.435"/>
	<line style="fill:none;stroke:#000000;stroke-miterlimit:1;" x1="237.526" y1="61.435" x2="239.902" y2="57.701"/>
	<line style="fill:none;stroke:#000000;stroke-miterlimit:1;" x1="239.902" y1="57.701" x2="242.278" y2="54.307"/>
	<line style="fill:none;stroke:#000000;stroke-miterlimit:1;" x1="242.278" y1="54.307" x2="243.976" y2="50.913"/>
	<line style="fill:none;stroke:#000000;stroke-miterlimit:1;" x1="243.976" y1="50.913" x2="244.993" y2="46.84"/>
	<line style="fill:none;stroke:#000000;stroke-miterlimit:1;" x1="244.993" y1="46.84" x2="245.333" y2="43.106"/>
	<line style="fill:none;stroke:#000000;stroke-miterlimit:1;" x1="245.333" y1="43.106" x2="246.012" y2="38.693"/>
	<line style="fill:none;stroke:#000000;stroke-miterlimit:1;" x1="246.012" y1="38.693" x2="245.673" y2="34.96"/>
	<line style="fill:none;stroke:#000000;stroke-miterlimit:1;" x1="245.673" y1="34.96" x2="245.333" y2="30.547"/>
	<line style="fill:none;stroke:#000000;stroke-miterlimit:1;" x1="245.333" y1="30.547" x2="244.314" y2="26.814"/>
	<line style="fill:none;stroke:#000000;stroke-miterlimit:1;" x1="244.314" y1="26.814" x2="242.957" y2="23.42"/>
	<line style="fill:none;stroke:#000000;stroke-miterlimit:1;" x1="242.957" y1="23.42" x2="241.26" y2="19.007"/>
	<line style="fill:none;stroke:#000000;stroke-miterlimit:1;" x1="241.26" y1="19.007" x2="238.884" y2="15.613"/>
	<line style="fill:none;stroke:#000000;stroke-miterlimit:1;" x1="238.884" y1="15.613" x2="236.508" y2="12.897"/>
	<line style="fill:none;stroke:#000000;stroke-miterlimit:1;" x1="236.508" y1="12.897" x2="233.793" y2="9.503"/>
	<line style="fill:none;stroke:#000000;stroke-miterlimit:1;" x1="233.793" y1="9.503" x2="230.398" y2="7.127"/>
	<line style="fill:none;stroke:#000000;stroke-miterlimit:1;" x1="230.398" y1="7.127" x2="227.004" y2="4.751"/>
	<line style="fill:none;stroke:#000000;stroke-miterlimit:1;" x1="227.004" y1="4.751" x2="223.271" y2="3.055"/>
	<line style="fill:none;stroke:#000000;stroke-miterlimit:1;" x1="174.606" y1="87.019" x2="201.76" y2="148.114"/>
	<line style="fill:none;stroke:#000000;stroke-miterlimit:1;" x1="201.76" y1="148.114" x2="215.337" y2="148.114"/>
	<line style="fill:none;stroke:#000000;stroke-miterlimit:1;" x1="215.337" y1="148.114" x2="188.184" y2="87.019"/>
	<line style="fill:none;stroke:#000000;stroke-miterlimit:1;" x1="188.184" y1="87.019" x2="174.606" y2="87.019"/>
	<line style="fill:none;stroke:#000000;stroke-miterlimit:1;" x1="215.676" y1="87.019" x2="242.83" y2="148.114"/>
	<line style="fill:none;stroke:#000000;stroke-miterlimit:1;" x1="242.83" y1="148.114" x2="256.406" y2="148.114"/>
	<line style="fill:none;stroke:#000000;stroke-miterlimit:1;" x1="256.406" y1="148.114" x2="229.253" y2="87.019"/>
	<line style="fill:none;stroke:#000000;stroke-miterlimit:1;" x1="229.253" y1="87.019" x2="215.676" y2="87.019"/>
</g>
</svg>
