<?xml version="1.0" encoding="iso-8859-1"?>
<!-- Generator: Adobe Illustrator 16.0.1, SVG Export Plug-In . SVG Version: 6.00 Build 0)  -->
<!DOCTYPE svg PUBLIC "-//W3C//DTD SVG 1.1//EN" "http://www.w3.org/Graphics/SVG/1.1/DTD/svg11.dtd">
<svg version="1.1" id="Ebene_1" xmlns="http://www.w3.org/2000/svg" xmlns:xlink="http://www.w3.org/1999/xlink" x="0px" y="0px"
	 width="89.43px" height="148.115px" viewBox="0 0 89.43 148.115" style="enable-background:new 0 0 89.43 148.115;"
	 xml:space="preserve">
<g>
	<line style="fill:none;stroke:#000000;stroke-miterlimit:1;" x1="19.542" y1="34.612" x2="69.887" y2="34.612"/>
	<line style="fill:none;stroke:#000000;stroke-miterlimit:1;" x1="69.887" y1="34.612" x2="69.887" y2="36.6"/>
	<line style="fill:none;stroke:#000000;stroke-miterlimit:1;" x1="69.887" y1="36.6" x2="71.875" y2="36.931"/>
	<line style="fill:none;stroke:#000000;stroke-miterlimit:1;" x1="71.875" y1="36.931" x2="75.021" y2="37.925"/>
	<line style="fill:none;stroke:#000000;stroke-miterlimit:1;" x1="75.021" y1="37.925" x2="77.174" y2="39.25"/>
	<line style="fill:none;stroke:#000000;stroke-miterlimit:1;" x1="77.174" y1="39.25" x2="79.99" y2="41.237"/>
	<line style="fill:none;stroke:#000000;stroke-miterlimit:1;" x1="79.99" y1="41.237" x2="82.473" y2="43.887"/>
	<line style="fill:none;stroke:#000000;stroke-miterlimit:1;" x1="82.473" y1="43.887" x2="84.793" y2="47.033"/>
	<line style="fill:none;stroke:#000000;stroke-miterlimit:1;" x1="84.793" y1="47.033" x2="86.447" y2="50.18"/>
	<line style="fill:none;stroke:#000000;stroke-miterlimit:1;" x1="86.447" y1="50.18" x2="87.939" y2="54.154"/>
	<line style="fill:none;stroke:#000000;stroke-miterlimit:1;" x1="87.939" y1="54.154" x2="88.932" y2="58.129"/>
	<line style="fill:none;stroke:#000000;stroke-miterlimit:1;" x1="88.932" y1="58.129" x2="89.43" y2="64.753"/>
	<line style="fill:none;stroke:#000000;stroke-miterlimit:1;" x1="89.43" y1="64.753" x2="88.932" y2="68.231"/>
	<line style="fill:none;stroke:#000000;stroke-miterlimit:1;" x1="88.932" y1="68.231" x2="87.441" y2="72.206"/>
	<line style="fill:none;stroke:#000000;stroke-miterlimit:1;" x1="87.441" y1="72.206" x2="85.621" y2="74.027"/>
	<line style="fill:none;stroke:#000000;stroke-miterlimit:1;" x1="85.621" y1="74.027" x2="84.129" y2="74.359"/>
	<line style="fill:none;stroke:#000000;stroke-miterlimit:1;" x1="84.129" y1="74.359" x2="81.811" y2="74.193"/>
	<line style="fill:none;stroke:#000000;stroke-miterlimit:1;" x1="81.811" y1="74.193" x2="79.99" y2="72.703"/>
	<line style="fill:none;stroke:#000000;stroke-miterlimit:1;" x1="79.99" y1="72.703" x2="79.162" y2="70.881"/>
	<line style="fill:none;stroke:#000000;stroke-miterlimit:1;" x1="79.162" y1="70.881" x2="78.83" y2="68.894"/>
	<line style="fill:none;stroke:#000000;stroke-miterlimit:1;" x1="78.83" y1="68.894" x2="78.664" y2="67.403"/>
	<line style="fill:none;stroke:#000000;stroke-miterlimit:1;" x1="78.664" y1="67.403" x2="79.162" y2="62.269"/>
	<line style="fill:none;stroke:#000000;stroke-miterlimit:1;" x1="79.162" y1="62.269" x2="79.824" y2="56.639"/>
	<line style="fill:none;stroke:#000000;stroke-miterlimit:1;" x1="79.824" y1="56.639" x2="79.326" y2="50.842"/>
	<line style="fill:none;stroke:#000000;stroke-miterlimit:1;" x1="79.326" y1="50.842" x2="77.836" y2="46.702"/>
	<line style="fill:none;stroke:#000000;stroke-miterlimit:1;" x1="77.836" y1="46.702" x2="75.684" y2="43.39"/>
	<line style="fill:none;stroke:#000000;stroke-miterlimit:1;" x1="75.684" y1="43.39" x2="73.531" y2="40.906"/>
	<line style="fill:none;stroke:#000000;stroke-miterlimit:1;" x1="73.531" y1="40.906" x2="71.047" y2="39.912"/>
	<line style="fill:none;stroke:#000000;stroke-miterlimit:1;" x1="71.047" y1="39.912" x2="69.887" y2="39.912"/>
	<line style="fill:none;stroke:#000000;stroke-miterlimit:1;" x1="69.887" y1="39.912" x2="69.887" y2="41.733"/>
	<line style="fill:none;stroke:#000000;stroke-miterlimit:1;" x1="69.887" y1="41.733" x2="63.264" y2="41.733"/>
	<line style="fill:none;stroke:#000000;stroke-miterlimit:1;" x1="63.264" y1="41.733" x2="63.264" y2="45.211"/>
	<line style="fill:none;stroke:#000000;stroke-miterlimit:1;" x1="63.264" y1="45.211" x2="53.492" y2="45.211"/>
	<line style="fill:none;stroke:#000000;stroke-miterlimit:1;" x1="53.492" y1="45.211" x2="53.492" y2="41.733"/>
	<line style="fill:none;stroke:#000000;stroke-miterlimit:1;" x1="53.492" y1="41.733" x2="35.606" y2="41.733"/>
	<line style="fill:none;stroke:#000000;stroke-miterlimit:1;" x1="35.606" y1="41.733" x2="35.606" y2="45.211"/>
	<line style="fill:none;stroke:#000000;stroke-miterlimit:1;" x1="35.606" y1="45.211" x2="26.167" y2="45.211"/>
	<line style="fill:none;stroke:#000000;stroke-miterlimit:1;" x1="26.167" y1="45.211" x2="26.167" y2="41.733"/>
	<line style="fill:none;stroke:#000000;stroke-miterlimit:1;" x1="26.167" y1="41.733" x2="19.542" y2="41.733"/>
	<line style="fill:none;stroke:#000000;stroke-miterlimit:1;" x1="22.523" y1="34.612" x2="28.982" y2="2.981"/>
	<line style="fill:none;stroke:#000000;stroke-miterlimit:1;" x1="28.982" y1="2.981" x2="30.141" y2="0.994"/>
	<line style="fill:none;stroke:#000000;stroke-miterlimit:1;" x1="30.141" y1="0.994" x2="30.969" y2="0.331"/>
	<line style="fill:none;stroke:#000000;stroke-miterlimit:1;" x1="30.969" y1="0.331" x2="31.963" y2="0"/>
	<line style="fill:none;stroke:#000000;stroke-miterlimit:1;" x1="31.963" y1="0" x2="33.453" y2="0"/>
	<line style="fill:none;stroke:#000000;stroke-miterlimit:1;" x1="33.453" y1="0" x2="34.944" y2="0.828"/>
	<line style="fill:none;stroke:#000000;stroke-miterlimit:1;" x1="34.944" y1="0.828" x2="35.275" y2="1.822"/>
	<line style="fill:none;stroke:#000000;stroke-miterlimit:1;" x1="35.275" y1="1.822" x2="35.275" y2="2.981"/>
	<line style="fill:none;stroke:#000000;stroke-miterlimit:1;" x1="28.816" y1="34.612" x2="35.44" y2="2.815"/>
	<line style="fill:none;stroke:#000000;stroke-miterlimit:1;" x1="35.44" y1="2.815" x2="36.269" y2="1.325"/>
	<line style="fill:none;stroke:#000000;stroke-miterlimit:1;" x1="36.269" y1="1.325" x2="37.097" y2="0.497"/>
	<line style="fill:none;stroke:#000000;stroke-miterlimit:1;" x1="37.097" y1="0.497" x2="38.587" y2="0.166"/>
	<line style="fill:none;stroke:#000000;stroke-miterlimit:1;" x1="38.587" y1="0.166" x2="40.078" y2="0.663"/>
	<line style="fill:none;stroke:#000000;stroke-miterlimit:1;" x1="40.078" y1="0.663" x2="40.906" y2="1.325"/>
	<line style="fill:none;stroke:#000000;stroke-miterlimit:1;" x1="40.906" y1="1.325" x2="41.402" y2="2.318"/>
	<line style="fill:none;stroke:#000000;stroke-miterlimit:1;" x1="34.778" y1="34.612" x2="41.237" y2="2.981"/>
	<line style="fill:none;stroke:#000000;stroke-miterlimit:1;" x1="41.237" y1="2.981" x2="41.899" y2="1.491"/>
	<line style="fill:none;stroke:#000000;stroke-miterlimit:1;" x1="41.899" y1="1.491" x2="43.059" y2="0.497"/>
	<line style="fill:none;stroke:#000000;stroke-miterlimit:1;" x1="43.059" y1="0.497" x2="44.383" y2="0.331"/>
	<line style="fill:none;stroke:#000000;stroke-miterlimit:1;" x1="44.383" y1="0.331" x2="45.873" y2="0.497"/>
	<line style="fill:none;stroke:#000000;stroke-miterlimit:1;" x1="45.873" y1="0.497" x2="47.033" y2="1.491"/>
	<line style="fill:none;stroke:#000000;stroke-miterlimit:1;" x1="47.033" y1="1.491" x2="47.365" y2="2.815"/>
	<line style="fill:none;stroke:#000000;stroke-miterlimit:1;" x1="40.74" y1="34.612" x2="47.199" y2="3.312"/>
	<line style="fill:none;stroke:#000000;stroke-miterlimit:1;" x1="47.199" y1="3.312" x2="48.193" y2="1.491"/>
	<line style="fill:none;stroke:#000000;stroke-miterlimit:1;" x1="48.193" y1="1.491" x2="49.352" y2="0.497"/>
	<line style="fill:none;stroke:#000000;stroke-miterlimit:1;" x1="49.352" y1="0.497" x2="51.34" y2="0.331"/>
	<line style="fill:none;stroke:#000000;stroke-miterlimit:1;" x1="51.34" y1="0.331" x2="52.002" y2="0.497"/>
	<line style="fill:none;stroke:#000000;stroke-miterlimit:1;" x1="52.002" y1="0.497" x2="52.996" y2="1.159"/>
	<line style="fill:none;stroke:#000000;stroke-miterlimit:1;" x1="52.996" y1="1.159" x2="53.492" y2="2.815"/>
	<line style="fill:none;stroke:#000000;stroke-miterlimit:1;" x1="47.033" y1="34.612" x2="53.326" y2="3.478"/>
	<line style="fill:none;stroke:#000000;stroke-miterlimit:1;" x1="53.326" y1="3.478" x2="53.988" y2="1.822"/>
	<line style="fill:none;stroke:#000000;stroke-miterlimit:1;" x1="53.988" y1="1.822" x2="54.65" y2="0.828"/>
	<line style="fill:none;stroke:#000000;stroke-miterlimit:1;" x1="54.65" y1="0.828" x2="56.143" y2="0.166"/>
	<line style="fill:none;stroke:#000000;stroke-miterlimit:1;" x1="56.143" y1="0.166" x2="57.963" y2="0.497"/>
	<line style="fill:none;stroke:#000000;stroke-miterlimit:1;" x1="57.963" y1="0.497" x2="59.289" y2="1.325"/>
	<line style="fill:none;stroke:#000000;stroke-miterlimit:1;" x1="59.289" y1="1.325" x2="59.785" y2="2.484"/>
	<line style="fill:none;stroke:#000000;stroke-miterlimit:1;" x1="53.492" y1="34.612" x2="59.453" y2="3.644"/>
	<line style="fill:none;stroke:#000000;stroke-miterlimit:1;" x1="59.453" y1="3.644" x2="59.951" y2="1.987"/>
	<line style="fill:none;stroke:#000000;stroke-miterlimit:1;" x1="59.951" y1="1.987" x2="60.945" y2="0.663"/>
	<line style="fill:none;stroke:#000000;stroke-miterlimit:1;" x1="60.945" y1="0.663" x2="62.6" y2="0.331"/>
	<line style="fill:none;stroke:#000000;stroke-miterlimit:1;" x1="62.6" y1="0.331" x2="62.932" y2="0.166"/>
	<line style="fill:none;stroke:#000000;stroke-miterlimit:1;" x1="62.932" y1="0.166" x2="64.422" y2="0.828"/>
	<line style="fill:none;stroke:#000000;stroke-miterlimit:1;" x1="64.422" y1="0.828" x2="65.416" y2="1.822"/>
	<line style="fill:none;stroke:#000000;stroke-miterlimit:1;" x1="65.416" y1="1.822" x2="65.416" y2="2.815"/>
	<line style="fill:none;stroke:#000000;stroke-miterlimit:1;" x1="59.123" y1="34.612" x2="65.416" y2="2.65"/>
	<line style="fill:none;stroke:#000000;stroke-miterlimit:1;" x1="65.416" y1="2.65" x2="66.078" y2="1.325"/>
	<line style="fill:none;stroke:#000000;stroke-miterlimit:1;" x1="66.078" y1="1.325" x2="66.906" y2="0.497"/>
	<line style="fill:none;stroke:#000000;stroke-miterlimit:1;" x1="66.906" y1="0.497" x2="67.9" y2="0.331"/>
	<line style="fill:none;stroke:#000000;stroke-miterlimit:1;" x1="67.9" y1="0.331" x2="69.391" y2="0.331"/>
	<line style="fill:none;stroke:#000000;stroke-miterlimit:1;" x1="69.391" y1="0.331" x2="70.715" y2="0.828"/>
	<line style="fill:none;stroke:#000000;stroke-miterlimit:1;" x1="70.715" y1="0.828" x2="71.377" y2="1.822"/>
	<line style="fill:none;stroke:#000000;stroke-miterlimit:1;" x1="71.377" y1="1.822" x2="71.709" y2="3.478"/>
	<line style="fill:none;stroke:#000000;stroke-miterlimit:1;" x1="71.709" y1="3.478" x2="65.25" y2="34.612"/>
	<line style="fill:none;stroke:#000000;stroke-miterlimit:1;" x1="65.25" y1="34.612" x2="19.542" y2="34.612"/>
	<line style="fill:none;stroke:#000000;stroke-miterlimit:1;" x1="19.542" y1="34.612" x2="19.542" y2="36.765"/>
	<line style="fill:none;stroke:#000000;stroke-miterlimit:1;" x1="19.542" y1="36.765" x2="17.224" y2="37.097"/>
	<line style="fill:none;stroke:#000000;stroke-miterlimit:1;" x1="17.224" y1="37.097" x2="14.077" y2="38.09"/>
	<line style="fill:none;stroke:#000000;stroke-miterlimit:1;" x1="14.077" y1="38.09" x2="11.758" y2="39.415"/>
	<line style="fill:none;stroke:#000000;stroke-miterlimit:1;" x1="11.758" y1="39.415" x2="9.108" y2="41.568"/>
	<line style="fill:none;stroke:#000000;stroke-miterlimit:1;" x1="9.108" y1="41.568" x2="6.625" y2="44.218"/>
	<line style="fill:none;stroke:#000000;stroke-miterlimit:1;" x1="6.625" y1="44.218" x2="2.815" y2="50.676"/>
	<line style="fill:none;stroke:#000000;stroke-miterlimit:1;" x1="2.815" y1="50.676" x2="1.656" y2="54.485"/>
	<line style="fill:none;stroke:#000000;stroke-miterlimit:1;" x1="1.656" y1="54.485" x2="0.497" y2="58.46"/>
	<line style="fill:none;stroke:#000000;stroke-miterlimit:1;" x1="0.497" y1="58.46" x2="0" y2="65.084"/>
	<line style="fill:none;stroke:#000000;stroke-miterlimit:1;" x1="0" y1="65.084" x2="0.497" y2="68.562"/>
	<line style="fill:none;stroke:#000000;stroke-miterlimit:1;" x1="0.497" y1="68.562" x2="2.153" y2="72.372"/>
	<line style="fill:none;stroke:#000000;stroke-miterlimit:1;" x1="2.153" y1="72.372" x2="3.975" y2="74.193"/>
	<line style="fill:none;stroke:#000000;stroke-miterlimit:1;" x1="3.975" y1="74.193" x2="5.3" y2="74.524"/>
	<line style="fill:none;stroke:#000000;stroke-miterlimit:1;" x1="5.3" y1="74.524" x2="7.618" y2="74.359"/>
	<line style="fill:none;stroke:#000000;stroke-miterlimit:1;" x1="7.618" y1="74.359" x2="9.605" y2="72.868"/>
	<line style="fill:none;stroke:#000000;stroke-miterlimit:1;" x1="9.605" y1="72.868" x2="10.268" y2="71.046"/>
	<line style="fill:none;stroke:#000000;stroke-miterlimit:1;" x1="10.268" y1="71.046" x2="10.599" y2="69.059"/>
	<line style="fill:none;stroke:#000000;stroke-miterlimit:1;" x1="10.599" y1="69.059" x2="10.765" y2="67.569"/>
	<line style="fill:none;stroke:#000000;stroke-miterlimit:1;" x1="10.765" y1="67.569" x2="10.268" y2="62.435"/>
	<line style="fill:none;stroke:#000000;stroke-miterlimit:1;" x1="10.268" y1="62.435" x2="9.44" y2="56.804"/>
	<line style="fill:none;stroke:#000000;stroke-miterlimit:1;" x1="9.44" y1="56.804" x2="9.937" y2="51.173"/>
	<line style="fill:none;stroke:#000000;stroke-miterlimit:1;" x1="9.937" y1="51.173" x2="11.262" y2="47.033"/>
	<line style="fill:none;stroke:#000000;stroke-miterlimit:1;" x1="11.262" y1="47.033" x2="13.415" y2="43.555"/>
	<line style="fill:none;stroke:#000000;stroke-miterlimit:1;" x1="13.415" y1="43.555" x2="15.567" y2="41.071"/>
	<line style="fill:none;stroke:#000000;stroke-miterlimit:1;" x1="15.567" y1="41.071" x2="17.886" y2="40.078"/>
	<line style="fill:none;stroke:#000000;stroke-miterlimit:1;" x1="17.886" y1="40.078" x2="19.542" y2="39.912"/>
	<line style="fill:none;stroke:#000000;stroke-miterlimit:1;" x1="19.542" y1="39.912" x2="19.542" y2="41.402"/>
	<line style="fill:none;stroke:#000000;stroke-miterlimit:1;" x1="45.211" y1="61.814" x2="43.224" y2="62.808"/>
	<line style="fill:none;stroke:#000000;stroke-miterlimit:1;" x1="43.224" y1="62.808" x2="41.734" y2="64.629"/>
	<line style="fill:none;stroke:#000000;stroke-miterlimit:1;" x1="41.734" y1="64.629" x2="41.237" y2="66.12"/>
	<line style="fill:none;stroke:#000000;stroke-miterlimit:1;" x1="41.237" y1="66.12" x2="40.906" y2="67.61"/>
	<line style="fill:none;stroke:#000000;stroke-miterlimit:1;" x1="40.906" y1="67.61" x2="41.402" y2="69.929"/>
	<line style="fill:none;stroke:#000000;stroke-miterlimit:1;" x1="41.402" y1="69.929" x2="42.562" y2="71.419"/>
	<line style="fill:none;stroke:#000000;stroke-miterlimit:1;" x1="42.562" y1="71.419" x2="43.721" y2="72.413"/>
	<line style="fill:none;stroke:#000000;stroke-miterlimit:1;" x1="43.721" y1="72.413" x2="45.709" y2="73.075"/>
	<line style="fill:none;stroke:#000000;stroke-miterlimit:1;" x1="45.709" y1="73.075" x2="47.199" y2="73.572"/>
	<line style="fill:none;stroke:#000000;stroke-miterlimit:1;" x1="47.199" y1="73.572" x2="49.02" y2="73.572"/>
	<line style="fill:none;stroke:#000000;stroke-miterlimit:1;" x1="49.02" y1="73.572" x2="51.008" y2="72.744"/>
	<line style="fill:none;stroke:#000000;stroke-miterlimit:1;" x1="51.008" y1="72.744" x2="52.664" y2="71.916"/>
	<line style="fill:none;stroke:#000000;stroke-miterlimit:1;" x1="52.664" y1="71.916" x2="53.658" y2="70.757"/>
	<line style="fill:none;stroke:#000000;stroke-miterlimit:1;" x1="53.658" y1="70.757" x2="54.816" y2="69.101"/>
	<line style="fill:none;stroke:#000000;stroke-miterlimit:1;" x1="54.816" y1="69.101" x2="55.645" y2="67.113"/>
	<line style="fill:none;stroke:#000000;stroke-miterlimit:1;" x1="55.645" y1="67.113" x2="56.143" y2="65.457"/>
	<line style="fill:none;stroke:#000000;stroke-miterlimit:1;" x1="56.143" y1="65.457" x2="56.307" y2="63.801"/>
	<line style="fill:none;stroke:#000000;stroke-miterlimit:1;" x1="56.307" y1="63.801" x2="56.143" y2="62.642"/>
	<line style="fill:none;stroke:#000000;stroke-miterlimit:1;" x1="56.143" y1="62.642" x2="55.811" y2="60.654"/>
	<line style="fill:none;stroke:#000000;stroke-miterlimit:1;" x1="55.811" y1="60.654" x2="54.982" y2="58.999"/>
	<line style="fill:none;stroke:#000000;stroke-miterlimit:1;" x1="54.982" y1="58.999" x2="53.658" y2="57.342"/>
	<line style="fill:none;stroke:#000000;stroke-miterlimit:1;" x1="53.658" y1="57.342" x2="52.332" y2="56.183"/>
	<line style="fill:none;stroke:#000000;stroke-miterlimit:1;" x1="52.332" y1="56.183" x2="51.174" y2="55.686"/>
	<line style="fill:none;stroke:#000000;stroke-miterlimit:1;" x1="51.174" y1="55.686" x2="50.014" y2="55.189"/>
	<line style="fill:none;stroke:#000000;stroke-miterlimit:1;" x1="50.014" y1="55.189" x2="48.357" y2="55.024"/>
	<line style="fill:none;stroke:#000000;stroke-miterlimit:1;" x1="48.357" y1="55.024" x2="47.033" y2="54.858"/>
	<line style="fill:none;stroke:#000000;stroke-miterlimit:1;" x1="47.033" y1="54.858" x2="45.377" y2="54.858"/>
	<line style="fill:none;stroke:#000000;stroke-miterlimit:1;" x1="45.377" y1="54.858" x2="43.39" y2="55.024"/>
	<line style="fill:none;stroke:#000000;stroke-miterlimit:1;" x1="43.39" y1="55.024" x2="41.237" y2="55.686"/>
	<line style="fill:none;stroke:#000000;stroke-miterlimit:1;" x1="41.237" y1="55.686" x2="39.415" y2="56.68"/>
	<line style="fill:none;stroke:#000000;stroke-miterlimit:1;" x1="39.415" y1="56.68" x2="38.256" y2="57.673"/>
	<line style="fill:none;stroke:#000000;stroke-miterlimit:1;" x1="38.256" y1="57.673" x2="36.931" y2="58.833"/>
	<line style="fill:none;stroke:#000000;stroke-miterlimit:1;" x1="36.931" y1="58.833" x2="35.938" y2="59.992"/>
	<line style="fill:none;stroke:#000000;stroke-miterlimit:1;" x1="35.938" y1="59.992" x2="34.944" y2="61.814"/>
	<line style="fill:none;stroke:#000000;stroke-miterlimit:1;" x1="34.944" y1="61.814" x2="33.95" y2="63.635"/>
	<line style="fill:none;stroke:#000000;stroke-miterlimit:1;" x1="33.95" y1="63.635" x2="33.619" y2="65.292"/>
	<line style="fill:none;stroke:#000000;stroke-miterlimit:1;" x1="33.619" y1="65.292" x2="33.288" y2="67.61"/>
	<line style="fill:none;stroke:#000000;stroke-miterlimit:1;" x1="33.288" y1="67.61" x2="33.122" y2="69.929"/>
	<line style="fill:none;stroke:#000000;stroke-miterlimit:1;" x1="33.122" y1="69.929" x2="33.288" y2="71.75"/>
	<line style="fill:none;stroke:#000000;stroke-miterlimit:1;" x1="33.288" y1="71.75" x2="33.453" y2="74.4"/>
	<line style="fill:none;stroke:#000000;stroke-miterlimit:1;" x1="33.453" y1="74.4" x2="34.447" y2="77.051"/>
	<line style="fill:none;stroke:#000000;stroke-miterlimit:1;" x1="34.447" y1="77.051" x2="35.938" y2="80.031"/>
	<line style="fill:none;stroke:#000000;stroke-miterlimit:1;" x1="35.938" y1="80.031" x2="38.587" y2="83.508"/>
	<line style="fill:none;stroke:#000000;stroke-miterlimit:1;" x1="38.587" y1="83.508" x2="42.728" y2="87.482"/>
	<line style="fill:none;stroke:#000000;stroke-miterlimit:1;" x1="42.728" y1="87.482" x2="48.689" y2="92.285"/>
	<line style="fill:none;stroke:#000000;stroke-miterlimit:1;" x1="48.689" y1="92.285" x2="61.607" y2="99.572"/>
	<line style="fill:none;stroke:#000000;stroke-miterlimit:1;" x1="5.89" y1="108.285" x2="5.89" y2="148.115"/>
	<line style="fill:none;stroke:#000000;stroke-miterlimit:1;" x1="5.89" y1="148.115" x2="12.971" y2="148.115"/>
	<line style="fill:none;stroke:#000000;stroke-miterlimit:1;" x1="12.971" y1="148.115" x2="12.971" y2="108.285"/>
	<line style="fill:none;stroke:#000000;stroke-miterlimit:1;" x1="12.971" y1="108.285" x2="5.89" y2="108.285"/>
	<line style="fill:none;stroke:#000000;stroke-miterlimit:1;" x1="41.293" y1="108.285" x2="41.293" y2="148.115"/>
	<line style="fill:none;stroke:#000000;stroke-miterlimit:1;" x1="41.293" y1="148.115" x2="48.596" y2="148.115"/>
	<line style="fill:none;stroke:#000000;stroke-miterlimit:1;" x1="48.596" y1="148.115" x2="48.596" y2="108.285"/>
	<line style="fill:none;stroke:#000000;stroke-miterlimit:1;" x1="48.596" y1="108.285" x2="41.293" y2="108.285"/>
	<line style="fill:none;stroke:#000000;stroke-miterlimit:1;" x1="77.141" y1="108.285" x2="77.141" y2="148.115"/>
	<line style="fill:none;stroke:#000000;stroke-miterlimit:1;" x1="77.141" y1="148.115" x2="84.221" y2="148.115"/>
	<line style="fill:none;stroke:#000000;stroke-miterlimit:1;" x1="84.221" y1="148.115" x2="84.221" y2="108.285"/>
	<line style="fill:none;stroke:#000000;stroke-miterlimit:1;" x1="84.221" y1="108.285" x2="77.141" y2="108.285"/>
</g>
</svg>
