<?xml version="1.0" encoding="iso-8859-1"?>
<!-- Generator: Adobe Illustrator 16.0.1, SVG Export Plug-In . SVG Version: 6.00 Build 0)  -->
<!DOCTYPE svg PUBLIC "-//W3C//DTD SVG 1.1//EN" "http://www.w3.org/Graphics/SVG/1.1/DTD/svg11.dtd">
<svg version="1.1" id="Ebene_1" xmlns="http://www.w3.org/2000/svg" xmlns:xlink="http://www.w3.org/1999/xlink" x="0px" y="0px"
	 width="274.217px" height="148.731px" viewBox="0 0 274.217 148.731" style="enable-background:new 0 0 274.217 148.731;"
	 xml:space="preserve">
<g>
	<line style="fill:none;stroke:#000000;stroke-miterlimit:1;" x1="217.604" y1="14.811" x2="228.795" y2="14.811"/>
	<line style="fill:none;stroke:#000000;stroke-miterlimit:1;" x1="228.795" y1="14.811" x2="230.77" y2="15.799"/>
	<line style="fill:none;stroke:#000000;stroke-miterlimit:1;" x1="230.77" y1="15.799" x2="232.086" y2="20.407"/>
	<line style="fill:none;stroke:#000000;stroke-miterlimit:1;" x1="232.086" y1="20.407" x2="234.061" y2="20.407"/>
	<line style="fill:none;stroke:#000000;stroke-miterlimit:1;" x1="234.061" y1="20.407" x2="234.391" y2="17.773"/>
	<line style="fill:none;stroke:#000000;stroke-miterlimit:1;" x1="234.391" y1="17.773" x2="236.695" y2="15.47"/>
	<line style="fill:none;stroke:#000000;stroke-miterlimit:1;" x1="236.695" y1="15.47" x2="238.998" y2="15.799"/>
	<line style="fill:none;stroke:#000000;stroke-miterlimit:1;" x1="238.998" y1="15.799" x2="239.986" y2="17.773"/>
	<line style="fill:none;stroke:#000000;stroke-miterlimit:1;" x1="239.986" y1="17.773" x2="239.986" y2="19.749"/>
	<line style="fill:none;stroke:#000000;stroke-miterlimit:1;" x1="239.986" y1="19.749" x2="237.354" y2="23.698"/>
	<line style="fill:none;stroke:#000000;stroke-miterlimit:1;" x1="237.354" y1="23.698" x2="236.365" y2="27.977"/>
	<line style="fill:none;stroke:#000000;stroke-miterlimit:1;" x1="236.365" y1="27.977" x2="237.354" y2="32.256"/>
	<line style="fill:none;stroke:#000000;stroke-miterlimit:1;" x1="237.354" y1="32.256" x2="238.34" y2="33.572"/>
	<line style="fill:none;stroke:#000000;stroke-miterlimit:1;" x1="238.34" y1="33.572" x2="240.973" y2="34.889"/>
	<line style="fill:none;stroke:#000000;stroke-miterlimit:1;" x1="240.973" y1="34.889" x2="243.936" y2="34.889"/>
	<line style="fill:none;stroke:#000000;stroke-miterlimit:1;" x1="243.936" y1="34.889" x2="246.24" y2="32.914"/>
	<line style="fill:none;stroke:#000000;stroke-miterlimit:1;" x1="246.24" y1="32.914" x2="248.543" y2="28.306"/>
	<line style="fill:none;stroke:#000000;stroke-miterlimit:1;" x1="248.543" y1="28.306" x2="250.189" y2="22.71"/>
	<line style="fill:none;stroke:#000000;stroke-miterlimit:1;" x1="250.189" y1="22.71" x2="250.848" y2="16.457"/>
	<line style="fill:none;stroke:#000000;stroke-miterlimit:1;" x1="250.848" y1="16.457" x2="249.861" y2="9.874"/>
	<line style="fill:none;stroke:#000000;stroke-miterlimit:1;" x1="249.861" y1="9.874" x2="246.898" y2="5.266"/>
	<line style="fill:none;stroke:#000000;stroke-miterlimit:1;" x1="246.898" y1="5.266" x2="242.291" y2="1.646"/>
	<line style="fill:none;stroke:#000000;stroke-miterlimit:1;" x1="242.291" y1="1.646" x2="237.682" y2="0"/>
	<line style="fill:none;stroke:#000000;stroke-miterlimit:1;" x1="237.682" y1="0" x2="232.416" y2="0"/>
	<line style="fill:none;stroke:#000000;stroke-miterlimit:1;" x1="232.416" y1="0" x2="228.795" y2="0.329"/>
	<line style="fill:none;stroke:#000000;stroke-miterlimit:1;" x1="228.795" y1="0.329" x2="225.832" y2="1.316"/>
	<line style="fill:none;stroke:#000000;stroke-miterlimit:1;" x1="225.832" y1="1.316" x2="222.541" y2="3.949"/>
	<line style="fill:none;stroke:#000000;stroke-miterlimit:1;" x1="222.541" y1="3.949" x2="219.908" y2="7.57"/>
	<line style="fill:none;stroke:#000000;stroke-miterlimit:1;" x1="219.908" y1="7.57" x2="217.934" y2="11.19"/>
	<line style="fill:none;stroke:#000000;stroke-miterlimit:1;" x1="219.58" y1="18.103" x2="221.225" y2="18.761"/>
	<line style="fill:none;stroke:#000000;stroke-miterlimit:1;" x1="221.225" y1="18.761" x2="223.529" y2="18.103"/>
	<line style="fill:none;stroke:#000000;stroke-miterlimit:1;" x1="223.529" y1="18.103" x2="221.555" y2="17.115"/>
	<line style="fill:none;stroke:#000000;stroke-miterlimit:1;" x1="221.555" y1="17.115" x2="219.58" y2="17.444"/>
	<line style="fill:none;stroke:#000000;stroke-miterlimit:1;" x1="218.262" y1="11.52" x2="216.945" y2="16.128"/>
	<line style="fill:none;stroke:#000000;stroke-miterlimit:1;" x1="216.945" y1="16.128" x2="215.301" y2="20.078"/>
	<line style="fill:none;stroke:#000000;stroke-miterlimit:1;" x1="215.301" y1="20.078" x2="212.996" y2="23.04"/>
	<line style="fill:none;stroke:#000000;stroke-miterlimit:1;" x1="212.996" y1="23.04" x2="213.654" y2="24.027"/>
	<line style="fill:none;stroke:#000000;stroke-miterlimit:1;" x1="213.654" y1="24.027" x2="216.287" y2="26.331"/>
	<line style="fill:none;stroke:#000000;stroke-miterlimit:1;" x1="216.287" y1="26.331" x2="217.604" y2="29.623"/>
	<line style="fill:none;stroke:#000000;stroke-miterlimit:1;" x1="217.604" y1="29.623" x2="218.922" y2="32.914"/>
	<line style="fill:none;stroke:#000000;stroke-miterlimit:1;" x1="218.922" y1="32.914" x2="224.846" y2="32.914"/>
	<line style="fill:none;stroke:#000000;stroke-miterlimit:1;" x1="224.846" y1="32.914" x2="225.504" y2="38.509"/>
	<line style="fill:none;stroke:#000000;stroke-miterlimit:1;" x1="225.504" y1="38.509" x2="224.516" y2="39.826"/>
	<line style="fill:none;stroke:#000000;stroke-miterlimit:1;" x1="224.516" y1="39.826" x2="215.959" y2="41.801"/>
	<line style="fill:none;stroke:#000000;stroke-miterlimit:1;" x1="215.959" y1="41.801" x2="207.072" y2="46.738"/>
	<line style="fill:none;stroke:#000000;stroke-miterlimit:1;" x1="207.072" y1="46.738" x2="182.715" y2="58.917"/>
	<line style="fill:none;stroke:#000000;stroke-miterlimit:1;" x1="182.715" y1="58.917" x2="199.83" y2="37.193"/>
	<line style="fill:none;stroke:#000000;stroke-miterlimit:1;" x1="199.83" y1="37.193" x2="202.135" y2="35.876"/>
	<line style="fill:none;stroke:#000000;stroke-miterlimit:1;" x1="202.135" y1="35.876" x2="205.426" y2="36.535"/>
	<line style="fill:none;stroke:#000000;stroke-miterlimit:1;" x1="205.426" y1="36.535" x2="209.375" y2="36.535"/>
	<line style="fill:none;stroke:#000000;stroke-miterlimit:1;" x1="209.375" y1="36.535" x2="212.338" y2="34.889"/>
	<line style="fill:none;stroke:#000000;stroke-miterlimit:1;" x1="212.338" y1="34.889" x2="212.668" y2="33.572"/>
	<line style="fill:none;stroke:#000000;stroke-miterlimit:1;" x1="212.668" y1="33.572" x2="212.668" y2="32.256"/>
	<line style="fill:none;stroke:#000000;stroke-miterlimit:1;" x1="212.668" y1="32.256" x2="210.691" y2="30.281"/>
	<line style="fill:none;stroke:#000000;stroke-miterlimit:1;" x1="210.691" y1="30.281" x2="215.629" y2="29.623"/>
	<line style="fill:none;stroke:#000000;stroke-miterlimit:1;" x1="215.629" y1="29.623" x2="214.971" y2="27.977"/>
	<line style="fill:none;stroke:#000000;stroke-miterlimit:1;" x1="214.971" y1="27.977" x2="207.73" y2="28.306"/>
	<line style="fill:none;stroke:#000000;stroke-miterlimit:1;" x1="207.73" y1="28.306" x2="200.488" y2="28.964"/>
	<line style="fill:none;stroke:#000000;stroke-miterlimit:1;" x1="200.488" y1="28.964" x2="197.527" y2="30.61"/>
	<line style="fill:none;stroke:#000000;stroke-miterlimit:1;" x1="197.527" y1="30.61" x2="194.234" y2="33.243"/>
	<line style="fill:none;stroke:#000000;stroke-miterlimit:1;" x1="194.234" y1="33.243" x2="189.299" y2="37.522"/>
	<line style="fill:none;stroke:#000000;stroke-miterlimit:1;" x1="189.299" y1="37.522" x2="178.766" y2="49.7"/>
	<line style="fill:none;stroke:#000000;stroke-miterlimit:1;" x1="178.766" y1="49.7" x2="174.486" y2="55.625"/>
	<line style="fill:none;stroke:#000000;stroke-miterlimit:1;" x1="174.486" y1="55.625" x2="172.184" y2="59.575"/>
	<line style="fill:none;stroke:#000000;stroke-miterlimit:1;" x1="172.184" y1="59.575" x2="171.195" y2="63.524"/>
	<line style="fill:none;stroke:#000000;stroke-miterlimit:1;" x1="171.195" y1="63.524" x2="171.523" y2="65.828"/>
	<line style="fill:none;stroke:#000000;stroke-miterlimit:1;" x1="171.523" y1="65.828" x2="174.158" y2="69.12"/>
	<line style="fill:none;stroke:#000000;stroke-miterlimit:1;" x1="174.158" y1="69.12" x2="178.107" y2="69.778"/>
	<line style="fill:none;stroke:#000000;stroke-miterlimit:1;" x1="178.107" y1="69.778" x2="183.373" y2="68.461"/>
	<line style="fill:none;stroke:#000000;stroke-miterlimit:1;" x1="183.373" y1="68.461" x2="198.186" y2="62.866"/>
	<line style="fill:none;stroke:#000000;stroke-miterlimit:1;" x1="198.186" y1="62.866" x2="212.996" y2="55.625"/>
	<line style="fill:none;stroke:#000000;stroke-miterlimit:1;" x1="212.996" y1="55.625" x2="214.971" y2="55.296"/>
	<line style="fill:none;stroke:#000000;stroke-miterlimit:1;" x1="214.971" y1="55.296" x2="216.617" y2="55.625"/>
	<line style="fill:none;stroke:#000000;stroke-miterlimit:1;" x1="216.617" y1="55.625" x2="220.238" y2="71.424"/>
	<line style="fill:none;stroke:#000000;stroke-miterlimit:1;" x1="220.238" y1="71.424" x2="221.883" y2="86.894"/>
	<line style="fill:none;stroke:#000000;stroke-miterlimit:1;" x1="221.883" y1="86.894" x2="222.541" y2="91.502"/>
	<line style="fill:none;stroke:#000000;stroke-miterlimit:1;" x1="222.541" y1="91.502" x2="220.566" y2="112.566"/>
	<line style="fill:none;stroke:#000000;stroke-miterlimit:1;" x1="220.566" y1="112.566" x2="206.414" y2="97.097"/>
	<line style="fill:none;stroke:#000000;stroke-miterlimit:1;" x1="206.414" y1="97.097" x2="200.818" y2="91.502"/>
	<line style="fill:none;stroke:#000000;stroke-miterlimit:1;" x1="200.818" y1="91.502" x2="193.576" y2="86.235"/>
	<line style="fill:none;stroke:#000000;stroke-miterlimit:1;" x1="193.576" y1="86.235" x2="188.969" y2="85.577"/>
	<line style="fill:none;stroke:#000000;stroke-miterlimit:1;" x1="188.969" y1="85.577" x2="185.348" y2="85.577"/>
	<line style="fill:none;stroke:#000000;stroke-miterlimit:1;" x1="185.348" y1="85.577" x2="182.057" y2="87.223"/>
	<line style="fill:none;stroke:#000000;stroke-miterlimit:1;" x1="182.057" y1="87.223" x2="179.754" y2="89.526"/>
	<line style="fill:none;stroke:#000000;stroke-miterlimit:1;" x1="179.754" y1="89.526" x2="179.094" y2="94.464"/>
	<line style="fill:none;stroke:#000000;stroke-miterlimit:1;" x1="179.094" y1="94.464" x2="183.373" y2="110.921"/>
	<line style="fill:none;stroke:#000000;stroke-miterlimit:1;" x1="183.373" y1="110.921" x2="187.652" y2="126.391"/>
	<line style="fill:none;stroke:#000000;stroke-miterlimit:1;" x1="193.906" y1="87.552" x2="186.994" y2="94.793"/>
	<line style="fill:none;stroke:#000000;stroke-miterlimit:1;" x1="186.994" y1="94.793" x2="191.932" y2="101.705"/>
	<line style="fill:none;stroke:#000000;stroke-miterlimit:1;" x1="191.932" y1="101.705" x2="194.234" y2="106.642"/>
	<line style="fill:none;stroke:#000000;stroke-miterlimit:1;" x1="194.234" y1="106.642" x2="195.881" y2="113.554"/>
	<line style="fill:none;stroke:#000000;stroke-miterlimit:1;" x1="195.881" y1="113.554" x2="197.197" y2="122.111"/>
	<line style="fill:none;stroke:#000000;stroke-miterlimit:1;" x1="247.227" y1="106.642" x2="240.973" y2="107.301"/>
	<line style="fill:none;stroke:#000000;stroke-miterlimit:1;" x1="240.973" y1="107.301" x2="220.566" y2="112.566"/>
	<line style="fill:none;stroke:#000000;stroke-miterlimit:1;" x1="220.566" y1="112.566" x2="207.73" y2="117.504"/>
	<line style="fill:none;stroke:#000000;stroke-miterlimit:1;" x1="207.73" y1="117.504" x2="194.564" y2="123.1"/>
	<line style="fill:none;stroke:#000000;stroke-miterlimit:1;" x1="194.564" y1="123.1" x2="189.299" y2="125.732"/>
	<line style="fill:none;stroke:#000000;stroke-miterlimit:1;" x1="189.299" y1="125.732" x2="184.689" y2="128.694"/>
	<line style="fill:none;stroke:#000000;stroke-miterlimit:1;" x1="184.689" y1="128.694" x2="180.74" y2="133.303"/>
	<line style="fill:none;stroke:#000000;stroke-miterlimit:1;" x1="180.74" y1="133.303" x2="179.424" y2="136.594"/>
	<line style="fill:none;stroke:#000000;stroke-miterlimit:1;" x1="179.424" y1="136.594" x2="179.424" y2="140.215"/>
	<line style="fill:none;stroke:#000000;stroke-miterlimit:1;" x1="179.424" y1="140.215" x2="180.412" y2="142.848"/>
	<line style="fill:none;stroke:#000000;stroke-miterlimit:1;" x1="180.412" y1="142.848" x2="182.387" y2="145.151"/>
	<line style="fill:none;stroke:#000000;stroke-miterlimit:1;" x1="182.387" y1="145.151" x2="187.652" y2="147.785"/>
	<line style="fill:none;stroke:#000000;stroke-miterlimit:1;" x1="187.652" y1="147.785" x2="194.564" y2="147.785"/>
	<line style="fill:none;stroke:#000000;stroke-miterlimit:1;" x1="194.564" y1="147.785" x2="228.467" y2="143.177"/>
	<line style="fill:none;stroke:#000000;stroke-miterlimit:1;" x1="228.467" y1="143.177" x2="237.023" y2="142.189"/>
	<line style="fill:none;stroke:#000000;stroke-miterlimit:1;" x1="237.023" y1="142.189" x2="243.936" y2="143.177"/>
	<line style="fill:none;stroke:#000000;stroke-miterlimit:1;" x1="243.936" y1="143.177" x2="255.455" y2="147.127"/>
	<line style="fill:none;stroke:#000000;stroke-miterlimit:1;" x1="255.455" y1="147.127" x2="261.381" y2="147.785"/>
	<line style="fill:none;stroke:#000000;stroke-miterlimit:1;" x1="261.381" y1="147.785" x2="266.646" y2="147.785"/>
	<line style="fill:none;stroke:#000000;stroke-miterlimit:1;" x1="266.646" y1="147.785" x2="266.318" y2="145.48"/>
	<line style="fill:none;stroke:#000000;stroke-miterlimit:1;" x1="266.318" y1="145.48" x2="261.709" y2="145.151"/>
	<line style="fill:none;stroke:#000000;stroke-miterlimit:1;" x1="261.709" y1="145.151" x2="254.797" y2="142.848"/>
	<line style="fill:none;stroke:#000000;stroke-miterlimit:1;" x1="254.797" y1="142.848" x2="249.201" y2="138.569"/>
	<line style="fill:none;stroke:#000000;stroke-miterlimit:1;" x1="249.201" y1="138.569" x2="248.215" y2="135.277"/>
	<line style="fill:none;stroke:#000000;stroke-miterlimit:1;" x1="248.215" y1="135.277" x2="245.252" y2="134.619"/>
	<line style="fill:none;stroke:#000000;stroke-miterlimit:1;" x1="245.252" y1="134.619" x2="240.973" y2="136.923"/>
	<line style="fill:none;stroke:#000000;stroke-miterlimit:1;" x1="240.973" y1="136.923" x2="237.023" y2="136.923"/>
	<line style="fill:none;stroke:#000000;stroke-miterlimit:1;" x1="237.023" y1="136.923" x2="225.504" y2="133.961"/>
	<line style="fill:none;stroke:#000000;stroke-miterlimit:1;" x1="225.504" y1="133.961" x2="218.592" y2="133.303"/>
	<line style="fill:none;stroke:#000000;stroke-miterlimit:1;" x1="218.592" y1="133.303" x2="204.109" y2="134.619"/>
	<line style="fill:none;stroke:#000000;stroke-miterlimit:1;" x1="204.109" y1="134.619" x2="193.248" y2="138.569"/>
	<line style="fill:none;stroke:#000000;stroke-miterlimit:1;" x1="193.248" y1="138.569" x2="190.285" y2="134.29"/>
	<line style="fill:none;stroke:#000000;stroke-miterlimit:1;" x1="190.285" y1="134.29" x2="185.348" y2="129.682"/>
	<line style="fill:none;stroke:#000000;stroke-miterlimit:1;" x1="179.754" y1="140.215" x2="173.17" y2="143.506"/>
	<line style="fill:none;stroke:#000000;stroke-miterlimit:1;" x1="173.17" y1="143.506" x2="165.6" y2="145.48"/>
	<line style="fill:none;stroke:#000000;stroke-miterlimit:1;" x1="165.6" y1="145.48" x2="165.6" y2="148.114"/>
	<line style="fill:none;stroke:#000000;stroke-miterlimit:1;" x1="165.6" y1="148.114" x2="171.523" y2="148.114"/>
	<line style="fill:none;stroke:#000000;stroke-miterlimit:1;" x1="171.523" y1="148.114" x2="181.729" y2="144.493"/>
	<line style="fill:none;stroke:#000000;stroke-miterlimit:1;" x1="245.252" y1="134.619" x2="246.898" y2="132.315"/>
	<line style="fill:none;stroke:#000000;stroke-miterlimit:1;" x1="246.898" y1="132.315" x2="247.885" y2="129.023"/>
	<line style="fill:none;stroke:#000000;stroke-miterlimit:1;" x1="247.885" y1="129.023" x2="248.873" y2="122.441"/>
	<line style="fill:none;stroke:#000000;stroke-miterlimit:1;" x1="248.873" y1="122.441" x2="248.873" y2="117.504"/>
	<line style="fill:none;stroke:#000000;stroke-miterlimit:1;" x1="248.873" y1="117.504" x2="247.557" y2="111.25"/>
	<line style="fill:none;stroke:#000000;stroke-miterlimit:1;" x1="247.557" y1="111.25" x2="247.227" y2="105.983"/>
	<line style="fill:none;stroke:#000000;stroke-miterlimit:1;" x1="247.227" y1="105.983" x2="247.227" y2="95.451"/>
	<line style="fill:none;stroke:#000000;stroke-miterlimit:1;" x1="247.227" y1="95.451" x2="248.543" y2="84.919"/>
	<line style="fill:none;stroke:#000000;stroke-miterlimit:1;" x1="248.543" y1="84.919" x2="249.861" y2="73.069"/>
	<line style="fill:none;stroke:#000000;stroke-miterlimit:1;" x1="249.861" y1="73.069" x2="252.164" y2="60.891"/>
	<line style="fill:none;stroke:#000000;stroke-miterlimit:1;" x1="252.164" y1="60.891" x2="254.469" y2="58.587"/>
	<line style="fill:none;stroke:#000000;stroke-miterlimit:1;" x1="254.469" y1="58.587" x2="257.102" y2="62.208"/>
	<line style="fill:none;stroke:#000000;stroke-miterlimit:1;" x1="257.102" y1="62.208" x2="260.723" y2="74.386"/>
	<line style="fill:none;stroke:#000000;stroke-miterlimit:1;" x1="260.723" y1="74.386" x2="265.33" y2="86.235"/>
	<line style="fill:none;stroke:#000000;stroke-miterlimit:1;" x1="265.33" y1="86.235" x2="264.014" y2="92.489"/>
	<line style="fill:none;stroke:#000000;stroke-miterlimit:1;" x1="264.014" y1="92.489" x2="263.684" y2="98.413"/>
	<line style="fill:none;stroke:#000000;stroke-miterlimit:1;" x1="263.684" y1="98.413" x2="264.014" y2="105.325"/>
	<line style="fill:none;stroke:#000000;stroke-miterlimit:1;" x1="264.014" y1="105.325" x2="265" y2="112.566"/>
	<line style="fill:none;stroke:#000000;stroke-miterlimit:1;" x1="265" y1="112.566" x2="263.025" y2="118.491"/>
	<line style="fill:none;stroke:#000000;stroke-miterlimit:1;" x1="263.025" y1="118.491" x2="262.367" y2="124.416"/>
	<line style="fill:none;stroke:#000000;stroke-miterlimit:1;" x1="262.367" y1="124.416" x2="262.697" y2="126.391"/>
	<line style="fill:none;stroke:#000000;stroke-miterlimit:1;" x1="262.697" y1="126.391" x2="263.355" y2="128.365"/>
	<line style="fill:none;stroke:#000000;stroke-miterlimit:1;" x1="263.355" y1="128.365" x2="264.342" y2="128.365"/>
	<line style="fill:none;stroke:#000000;stroke-miterlimit:1;" x1="264.342" y1="128.365" x2="265" y2="125.074"/>
	<line style="fill:none;stroke:#000000;stroke-miterlimit:1;" x1="265" y1="125.074" x2="265.988" y2="125.074"/>
	<line style="fill:none;stroke:#000000;stroke-miterlimit:1;" x1="265.988" y1="125.074" x2="267.305" y2="125.403"/>
	<line style="fill:none;stroke:#000000;stroke-miterlimit:1;" x1="267.305" y1="125.403" x2="269.279" y2="125.074"/>
	<line style="fill:none;stroke:#000000;stroke-miterlimit:1;" x1="269.279" y1="125.074" x2="271.254" y2="124.087"/>
	<line style="fill:none;stroke:#000000;stroke-miterlimit:1;" x1="271.254" y1="124.087" x2="271.912" y2="121.782"/>
	<line style="fill:none;stroke:#000000;stroke-miterlimit:1;" x1="271.912" y1="121.782" x2="272.242" y2="119.808"/>
	<line style="fill:none;stroke:#000000;stroke-miterlimit:1;" x1="272.242" y1="119.808" x2="271.584" y2="117.175"/>
	<line style="fill:none;stroke:#000000;stroke-miterlimit:1;" x1="271.584" y1="117.175" x2="269.938" y2="113.883"/>
	<line style="fill:none;stroke:#000000;stroke-miterlimit:1;" x1="269.938" y1="113.883" x2="272.9" y2="100.389"/>
	<line style="fill:none;stroke:#000000;stroke-miterlimit:1;" x1="272.9" y1="100.389" x2="273.889" y2="93.806"/>
	<line style="fill:none;stroke:#000000;stroke-miterlimit:1;" x1="273.889" y1="93.806" x2="274.217" y2="86.894"/>
	<line style="fill:none;stroke:#000000;stroke-miterlimit:1;" x1="274.217" y1="86.894" x2="272.9" y2="79.981"/>
	<line style="fill:none;stroke:#000000;stroke-miterlimit:1;" x1="272.9" y1="79.981" x2="269.279" y2="66.816"/>
	<line style="fill:none;stroke:#000000;stroke-miterlimit:1;" x1="269.279" y1="66.816" x2="263.684" y2="53.979"/>
	<line style="fill:none;stroke:#000000;stroke-miterlimit:1;" x1="263.684" y1="53.979" x2="260.723" y2="47.396"/>
	<line style="fill:none;stroke:#000000;stroke-miterlimit:1;" x1="260.723" y1="47.396" x2="255.785" y2="41.801"/>
	<line style="fill:none;stroke:#000000;stroke-miterlimit:1;" x1="255.785" y1="41.801" x2="251.836" y2="40.155"/>
	<line style="fill:none;stroke:#000000;stroke-miterlimit:1;" x1="251.836" y1="40.155" x2="247.557" y2="39.826"/>
	<line style="fill:none;stroke:#000000;stroke-miterlimit:1;" x1="247.557" y1="39.826" x2="243.607" y2="39.497"/>
	<line style="fill:none;stroke:#000000;stroke-miterlimit:1;" x1="243.607" y1="39.497" x2="243.277" y2="35.218"/>
	<line style="fill:none;stroke:#000000;stroke-miterlimit:1;" x1="39.168" y1="46.244" x2="40.813" y2="46.244"/>
	<line style="fill:none;stroke:#000000;stroke-miterlimit:1;" x1="40.813" y1="46.244" x2="41.801" y2="45.915"/>
	<line style="fill:none;stroke:#000000;stroke-miterlimit:1;" x1="41.801" y1="45.915" x2="43.447" y2="44.599"/>
	<line style="fill:none;stroke:#000000;stroke-miterlimit:1;" x1="43.447" y1="44.599" x2="43.776" y2="43.611"/>
	<line style="fill:none;stroke:#000000;stroke-miterlimit:1;" x1="43.776" y1="43.611" x2="44.105" y2="41.965"/>
	<line style="fill:none;stroke:#000000;stroke-miterlimit:1;" x1="44.105" y1="41.965" x2="43.447" y2="40.32"/>
	<line style="fill:none;stroke:#000000;stroke-miterlimit:1;" x1="43.447" y1="40.32" x2="42.789" y2="39.003"/>
	<line style="fill:none;stroke:#000000;stroke-miterlimit:1;" x1="42.789" y1="39.003" x2="41.472" y2="38.016"/>
	<line style="fill:none;stroke:#000000;stroke-miterlimit:1;" x1="41.472" y1="38.016" x2="39.826" y2="37.687"/>
	<line style="fill:none;stroke:#000000;stroke-miterlimit:1;" x1="39.826" y1="37.687" x2="37.851" y2="38.016"/>
	<line style="fill:none;stroke:#000000;stroke-miterlimit:1;" x1="37.851" y1="38.016" x2="36.535" y2="38.345"/>
	<line style="fill:none;stroke:#000000;stroke-miterlimit:1;" x1="36.535" y1="38.345" x2="35.547" y2="39.662"/>
	<line style="fill:none;stroke:#000000;stroke-miterlimit:1;" x1="35.547" y1="39.662" x2="34.889" y2="41.965"/>
	<line style="fill:none;stroke:#000000;stroke-miterlimit:1;" x1="34.889" y1="41.965" x2="35.218" y2="43.94"/>
	<line style="fill:none;stroke:#000000;stroke-miterlimit:1;" x1="35.218" y1="43.94" x2="36.206" y2="44.928"/>
	<line style="fill:none;stroke:#000000;stroke-miterlimit:1;" x1="36.206" y1="44.928" x2="37.193" y2="46.244"/>
	<line style="fill:none;stroke:#000000;stroke-miterlimit:1;" x1="37.193" y1="46.244" x2="38.18" y2="46.244"/>
	<line style="fill:none;stroke:#000000;stroke-miterlimit:1;" x1="38.18" y1="46.244" x2="39.168" y2="46.573"/>
	<line style="fill:none;stroke:#000000;stroke-miterlimit:1;" x1="65.499" y1="31.762" x2="64.183" y2="29.129"/>
	<line style="fill:none;stroke:#000000;stroke-miterlimit:1;" x1="64.183" y1="29.129" x2="62.537" y2="26.496"/>
	<line style="fill:none;stroke:#000000;stroke-miterlimit:1;" x1="62.537" y1="26.496" x2="60.891" y2="23.863"/>
	<line style="fill:none;stroke:#000000;stroke-miterlimit:1;" x1="60.891" y1="23.863" x2="58.917" y2="22.217"/>
	<line style="fill:none;stroke:#000000;stroke-miterlimit:1;" x1="58.917" y1="22.217" x2="56.612" y2="19.913"/>
	<line style="fill:none;stroke:#000000;stroke-miterlimit:1;" x1="56.612" y1="19.913" x2="54.308" y2="18.267"/>
	<line style="fill:none;stroke:#000000;stroke-miterlimit:1;" x1="54.308" y1="18.267" x2="51.675" y2="16.951"/>
	<line style="fill:none;stroke:#000000;stroke-miterlimit:1;" x1="51.675" y1="16.951" x2="49.042" y2="15.963"/>
	<line style="fill:none;stroke:#000000;stroke-miterlimit:1;" x1="49.042" y1="15.963" x2="46.08" y2="14.646"/>
	<line style="fill:none;stroke:#000000;stroke-miterlimit:1;" x1="46.08" y1="14.646" x2="43.118" y2="14.317"/>
	<line style="fill:none;stroke:#000000;stroke-miterlimit:1;" x1="43.118" y1="14.317" x2="40.155" y2="13.988"/>
	<line style="fill:none;stroke:#000000;stroke-miterlimit:1;" x1="40.155" y1="13.988" x2="37.522" y2="14.317"/>
	<line style="fill:none;stroke:#000000;stroke-miterlimit:1;" x1="37.522" y1="14.317" x2="34.889" y2="14.646"/>
	<line style="fill:none;stroke:#000000;stroke-miterlimit:1;" x1="34.889" y1="14.646" x2="32.256" y2="14.976"/>
	<line style="fill:none;stroke:#000000;stroke-miterlimit:1;" x1="32.256" y1="14.976" x2="29.623" y2="15.963"/>
	<line style="fill:none;stroke:#000000;stroke-miterlimit:1;" x1="29.623" y1="15.963" x2="26.66" y2="17.28"/>
	<line style="fill:none;stroke:#000000;stroke-miterlimit:1;" x1="26.66" y1="17.28" x2="24.027" y2="18.596"/>
	<line style="fill:none;stroke:#000000;stroke-miterlimit:1;" x1="24.027" y1="18.596" x2="21.723" y2="20.242"/>
	<line style="fill:none;stroke:#000000;stroke-miterlimit:1;" x1="21.723" y1="20.242" x2="19.09" y2="22.546"/>
	<line style="fill:none;stroke:#000000;stroke-miterlimit:1;" x1="19.09" y1="22.546" x2="17.444" y2="24.521"/>
	<line style="fill:none;stroke:#000000;stroke-miterlimit:1;" x1="17.444" y1="24.521" x2="15.469" y2="27.154"/>
	<line style="fill:none;stroke:#000000;stroke-miterlimit:1;" x1="15.469" y1="27.154" x2="14.153" y2="29.458"/>
	<line style="fill:none;stroke:#000000;stroke-miterlimit:1;" x1="14.153" y1="29.458" x2="12.836" y2="32.091"/>
	<line style="fill:none;stroke:#000000;stroke-miterlimit:1;" x1="12.836" y1="32.091" x2="12.178" y2="34.724"/>
	<line style="fill:none;stroke:#000000;stroke-miterlimit:1;" x1="12.178" y1="34.724" x2="11.19" y2="38.345"/>
	<line style="fill:none;stroke:#000000;stroke-miterlimit:1;" x1="11.19" y1="38.345" x2="11.19" y2="41.636"/>
	<line style="fill:none;stroke:#000000;stroke-miterlimit:1;" x1="11.19" y1="41.636" x2="11.19" y2="44.928"/>
	<line style="fill:none;stroke:#000000;stroke-miterlimit:1;" x1="11.19" y1="44.928" x2="11.849" y2="48.219"/>
	<line style="fill:none;stroke:#000000;stroke-miterlimit:1;" x1="11.849" y1="48.219" x2="12.507" y2="51.511"/>
	<line style="fill:none;stroke:#000000;stroke-miterlimit:1;" x1="12.507" y1="51.511" x2="13.824" y2="54.144"/>
	<line style="fill:none;stroke:#000000;stroke-miterlimit:1;" x1="13.824" y1="54.144" x2="15.14" y2="56.777"/>
	<line style="fill:none;stroke:#000000;stroke-miterlimit:1;" x1="15.14" y1="56.777" x2="16.786" y2="59.081"/>
	<line style="fill:none;stroke:#000000;stroke-miterlimit:1;" x1="16.786" y1="59.081" x2="19.09" y2="61.385"/>
	<line style="fill:none;stroke:#000000;stroke-miterlimit:1;" x1="19.09" y1="61.385" x2="20.736" y2="63.36"/>
	<line style="fill:none;stroke:#000000;stroke-miterlimit:1;" x1="20.736" y1="63.36" x2="23.698" y2="65.334"/>
	<line style="fill:none;stroke:#000000;stroke-miterlimit:1;" x1="23.698" y1="65.334" x2="25.673" y2="66.98"/>
	<line style="fill:none;stroke:#000000;stroke-miterlimit:1;" x1="25.673" y1="66.98" x2="28.964" y2="67.968"/>
	<line style="fill:none;stroke:#000000;stroke-miterlimit:1;" x1="28.964" y1="67.968" x2="31.927" y2="68.955"/>
	<line style="fill:none;stroke:#000000;stroke-miterlimit:1;" x1="31.927" y1="68.955" x2="34.23" y2="69.942"/>
	<line style="fill:none;stroke:#000000;stroke-miterlimit:1;" x1="34.23" y1="69.942" x2="37.522" y2="69.942"/>
	<line style="fill:none;stroke:#000000;stroke-miterlimit:1;" x1="37.522" y1="69.942" x2="40.484" y2="69.942"/>
	<line style="fill:none;stroke:#000000;stroke-miterlimit:1;" x1="40.484" y1="69.942" x2="43.776" y2="69.942"/>
	<line style="fill:none;stroke:#000000;stroke-miterlimit:1;" x1="43.776" y1="69.942" x2="46.738" y2="69.284"/>
	<line style="fill:none;stroke:#000000;stroke-miterlimit:1;" x1="46.738" y1="69.284" x2="49.7" y2="68.626"/>
	<line style="fill:none;stroke:#000000;stroke-miterlimit:1;" x1="49.7" y1="68.626" x2="52.004" y2="67.639"/>
	<line style="fill:none;stroke:#000000;stroke-miterlimit:1;" x1="52.004" y1="67.639" x2="54.638" y2="65.993"/>
	<line style="fill:none;stroke:#000000;stroke-miterlimit:1;" x1="54.638" y1="65.993" x2="57.271" y2="64.018"/>
	<line style="fill:none;stroke:#000000;stroke-miterlimit:1;" x1="57.271" y1="64.018" x2="59.246" y2="62.043"/>
	<line style="fill:none;stroke:#000000;stroke-miterlimit:1;" x1="59.246" y1="62.043" x2="61.22" y2="60.068"/>
	<line style="fill:none;stroke:#000000;stroke-miterlimit:1;" x1="61.22" y1="60.068" x2="63.195" y2="57.106"/>
	<line style="fill:none;stroke:#000000;stroke-miterlimit:1;" x1="63.195" y1="57.106" x2="64.512" y2="54.802"/>
	<line style="fill:none;stroke:#000000;stroke-miterlimit:1;" x1="64.512" y1="54.802" x2="65.828" y2="52.169"/>
	<line style="fill:none;stroke:#000000;stroke-miterlimit:1;" x1="65.828" y1="52.169" x2="66.487" y2="49.207"/>
	<line style="fill:none;stroke:#000000;stroke-miterlimit:1;" x1="66.487" y1="49.207" x2="67.474" y2="46.244"/>
	<line style="fill:none;stroke:#000000;stroke-miterlimit:1;" x1="67.474" y1="46.244" x2="67.803" y2="43.611"/>
	<line style="fill:none;stroke:#000000;stroke-miterlimit:1;" x1="67.803" y1="43.611" x2="67.803" y2="40.32"/>
	<line style="fill:none;stroke:#000000;stroke-miterlimit:1;" x1="67.803" y1="40.32" x2="67.474" y2="37.357"/>
	<line style="fill:none;stroke:#000000;stroke-miterlimit:1;" x1="67.474" y1="37.357" x2="66.487" y2="34.395"/>
	<line style="fill:none;stroke:#000000;stroke-miterlimit:1;" x1="66.487" y1="34.395" x2="65.828" y2="31.762"/>
	<line style="fill:none;stroke:#000000;stroke-miterlimit:1;" x1="80.311" y1="131.821" x2="55.625" y2="65.664"/>
	<line style="fill:none;stroke:#000000;stroke-miterlimit:1;" x1="40.155" y1="132.479" x2="40.155" y2="70.272"/>
	<line style="fill:none;stroke:#000000;stroke-miterlimit:1;" x1="0" y1="131.821" x2="23.369" y2="65.993"/>
	<line style="fill:none;stroke:#000000;stroke-miterlimit:1;" x1="114.542" y1="13.824" x2="110.592" y2="15.799"/>
	<line style="fill:none;stroke:#000000;stroke-miterlimit:1;" x1="110.592" y1="15.799" x2="107.629" y2="19.419"/>
	<line style="fill:none;stroke:#000000;stroke-miterlimit:1;" x1="107.629" y1="19.419" x2="106.642" y2="22.381"/>
	<line style="fill:none;stroke:#000000;stroke-miterlimit:1;" x1="106.642" y1="22.381" x2="105.984" y2="25.344"/>
	<line style="fill:none;stroke:#000000;stroke-miterlimit:1;" x1="105.984" y1="25.344" x2="106.971" y2="29.952"/>
	<line style="fill:none;stroke:#000000;stroke-miterlimit:1;" x1="106.971" y1="29.952" x2="109.275" y2="32.914"/>
	<line style="fill:none;stroke:#000000;stroke-miterlimit:1;" x1="109.275" y1="32.914" x2="111.579" y2="34.889"/>
	<line style="fill:none;stroke:#000000;stroke-miterlimit:1;" x1="111.579" y1="34.889" x2="115.529" y2="36.206"/>
	<line style="fill:none;stroke:#000000;stroke-miterlimit:1;" x1="115.529" y1="36.206" x2="118.491" y2="37.193"/>
	<line style="fill:none;stroke:#000000;stroke-miterlimit:1;" x1="118.491" y1="37.193" x2="122.112" y2="37.193"/>
	<line style="fill:none;stroke:#000000;stroke-miterlimit:1;" x1="122.112" y1="37.193" x2="126.062" y2="35.547"/>
	<line style="fill:none;stroke:#000000;stroke-miterlimit:1;" x1="126.062" y1="35.547" x2="129.353" y2="33.901"/>
	<line style="fill:none;stroke:#000000;stroke-miterlimit:1;" x1="129.353" y1="33.901" x2="131.328" y2="31.598"/>
	<line style="fill:none;stroke:#000000;stroke-miterlimit:1;" x1="131.328" y1="31.598" x2="133.632" y2="28.306"/>
	<line style="fill:none;stroke:#000000;stroke-miterlimit:1;" x1="133.632" y1="28.306" x2="135.277" y2="24.356"/>
	<line style="fill:none;stroke:#000000;stroke-miterlimit:1;" x1="135.277" y1="24.356" x2="136.265" y2="21.065"/>
	<line style="fill:none;stroke:#000000;stroke-miterlimit:1;" x1="136.265" y1="21.065" x2="136.594" y2="17.773"/>
	<line style="fill:none;stroke:#000000;stroke-miterlimit:1;" x1="136.594" y1="17.773" x2="136.265" y2="15.47"/>
	<line style="fill:none;stroke:#000000;stroke-miterlimit:1;" x1="136.265" y1="15.47" x2="135.606" y2="11.52"/>
	<line style="fill:none;stroke:#000000;stroke-miterlimit:1;" x1="135.606" y1="11.52" x2="133.961" y2="8.229"/>
	<line style="fill:none;stroke:#000000;stroke-miterlimit:1;" x1="133.961" y1="8.229" x2="131.328" y2="4.937"/>
	<line style="fill:none;stroke:#000000;stroke-miterlimit:1;" x1="131.328" y1="4.937" x2="128.695" y2="2.633"/>
	<line style="fill:none;stroke:#000000;stroke-miterlimit:1;" x1="128.695" y1="2.633" x2="126.391" y2="1.646"/>
	<line style="fill:none;stroke:#000000;stroke-miterlimit:1;" x1="126.391" y1="1.646" x2="124.086" y2="0.658"/>
	<line style="fill:none;stroke:#000000;stroke-miterlimit:1;" x1="124.086" y1="0.658" x2="120.795" y2="0.329"/>
	<line style="fill:none;stroke:#000000;stroke-miterlimit:1;" x1="120.795" y1="0.329" x2="118.162" y2="0"/>
	<line style="fill:none;stroke:#000000;stroke-miterlimit:1;" x1="118.162" y1="0" x2="114.871" y2="0"/>
	<line style="fill:none;stroke:#000000;stroke-miterlimit:1;" x1="114.871" y1="0" x2="110.921" y2="0.329"/>
	<line style="fill:none;stroke:#000000;stroke-miterlimit:1;" x1="110.921" y1="0.329" x2="106.642" y2="1.646"/>
	<line style="fill:none;stroke:#000000;stroke-miterlimit:1;" x1="106.642" y1="1.646" x2="103.021" y2="3.62"/>
	<line style="fill:none;stroke:#000000;stroke-miterlimit:1;" x1="103.021" y1="3.62" x2="100.717" y2="5.595"/>
	<line style="fill:none;stroke:#000000;stroke-miterlimit:1;" x1="100.717" y1="5.595" x2="98.084" y2="7.899"/>
	<line style="fill:none;stroke:#000000;stroke-miterlimit:1;" x1="98.084" y1="7.899" x2="96.109" y2="10.203"/>
	<line style="fill:none;stroke:#000000;stroke-miterlimit:1;" x1="96.109" y1="10.203" x2="94.135" y2="13.824"/>
	<line style="fill:none;stroke:#000000;stroke-miterlimit:1;" x1="94.135" y1="13.824" x2="92.16" y2="17.444"/>
	<line style="fill:none;stroke:#000000;stroke-miterlimit:1;" x1="92.16" y1="17.444" x2="91.501" y2="20.736"/>
	<line style="fill:none;stroke:#000000;stroke-miterlimit:1;" x1="91.501" y1="20.736" x2="90.843" y2="25.344"/>
	<line style="fill:none;stroke:#000000;stroke-miterlimit:1;" x1="90.843" y1="25.344" x2="90.514" y2="29.952"/>
	<line style="fill:none;stroke:#000000;stroke-miterlimit:1;" x1="90.514" y1="29.952" x2="90.843" y2="33.572"/>
	<line style="fill:none;stroke:#000000;stroke-miterlimit:1;" x1="90.843" y1="33.572" x2="91.172" y2="38.839"/>
	<line style="fill:none;stroke:#000000;stroke-miterlimit:1;" x1="91.172" y1="38.839" x2="93.147" y2="44.105"/>
	<line style="fill:none;stroke:#000000;stroke-miterlimit:1;" x1="93.147" y1="44.105" x2="96.109" y2="50.029"/>
	<line style="fill:none;stroke:#000000;stroke-miterlimit:1;" x1="96.109" y1="50.029" x2="101.376" y2="56.941"/>
	<line style="fill:none;stroke:#000000;stroke-miterlimit:1;" x1="101.376" y1="56.941" x2="109.604" y2="64.841"/>
	<line style="fill:none;stroke:#000000;stroke-miterlimit:1;" x1="109.604" y1="64.841" x2="121.454" y2="74.386"/>
	<line style="fill:none;stroke:#000000;stroke-miterlimit:1;" x1="121.454" y1="74.386" x2="147.127" y2="88.868"/>
	
		<line style="fill:none;stroke:#C0C0C0;stroke-linejoin:bevel;stroke-miterlimit:10;" x1="142.561" y1="146.674" x2="124.045" y2="148.731"/>
	
		<line style="fill:none;stroke:#C0C0C0;stroke-linejoin:bevel;stroke-miterlimit:10;" x1="124.045" y1="148.731" x2="107.588" y2="145.646"/>
	
		<line style="fill:none;stroke:#C0C0C0;stroke-linejoin:bevel;stroke-miterlimit:10;" x1="107.588" y1="145.646" x2="95.246" y2="134.331"/>
	
		<line style="fill:none;stroke:#C0C0C0;stroke-linejoin:bevel;stroke-miterlimit:10;" x1="95.246" y1="134.331" x2="90.103" y2="107.588"/>
	
		<line style="fill:none;stroke:#C0C0C0;stroke-linejoin:bevel;stroke-miterlimit:10;" x1="90.103" y1="107.588" x2="105.531" y2="99.359"/>
	
		<line style="fill:none;stroke:#C0C0C0;stroke-linejoin:bevel;stroke-miterlimit:10;" x1="105.531" y1="99.359" x2="151.816" y2="98.331"/>
	
		<line style="fill:none;stroke:#C0C0C0;stroke-linejoin:bevel;stroke-miterlimit:10;" x1="151.816" y1="98.331" x2="165.188" y2="109.646"/>
	
		<line style="fill:none;stroke:#C0C0C0;stroke-linejoin:bevel;stroke-miterlimit:10;" x1="165.188" y1="109.646" x2="166.217" y2="128.16"/>
	
		<line style="fill:none;stroke:#C0C0C0;stroke-linejoin:bevel;stroke-miterlimit:10;" x1="166.217" y1="128.16" x2="160.045" y2="143.588"/>
</g>
</svg>
