<?xml version="1.0" encoding="iso-8859-1"?>
<!-- Generator: Adobe Illustrator 16.0.1, SVG Export Plug-In . SVG Version: 6.00 Build 0)  -->
<!DOCTYPE svg PUBLIC "-//W3C//DTD SVG 1.1//EN" "http://www.w3.org/Graphics/SVG/1.1/DTD/svg11.dtd">
<svg version="1.1" id="Ebene_1" xmlns="http://www.w3.org/2000/svg" xmlns:xlink="http://www.w3.org/1999/xlink" x="0px" y="0px"
	 width="158.217px" height="149.184px" viewBox="0 0 158.217 149.184" style="enable-background:new 0 0 158.217 149.184;"
	 xml:space="preserve">
<g>
	<line style="fill:none;stroke:#000000;stroke-miterlimit:1;" x1="77.695" y1="79.555" x2="77.695" y2="69.091"/>
	<line style="fill:none;stroke:#000000;stroke-miterlimit:1;" x1="77.695" y1="69.091" x2="73.117" y2="68.873"/>
	<line style="fill:none;stroke:#000000;stroke-miterlimit:1;" x1="73.117" y1="68.873" x2="70.064" y2="68"/>
	<line style="fill:none;stroke:#000000;stroke-miterlimit:1;" x1="70.064" y1="68" x2="67.013" y2="66.692"/>
	<line style="fill:none;stroke:#000000;stroke-miterlimit:1;" x1="67.013" y1="66.692" x2="64.396" y2="64.948"/>
	<line style="fill:none;stroke:#000000;stroke-miterlimit:1;" x1="64.396" y1="64.948" x2="62.434" y2="63.204"/>
	<line style="fill:none;stroke:#000000;stroke-miterlimit:1;" x1="62.434" y1="63.204" x2="60.908" y2="60.806"/>
	<line style="fill:none;stroke:#000000;stroke-miterlimit:1;" x1="60.908" y1="60.806" x2="59.818" y2="58.408"/>
	<line style="fill:none;stroke:#000000;stroke-miterlimit:1;" x1="59.818" y1="58.408" x2="59.382" y2="55.356"/>
	<line style="fill:none;stroke:#000000;stroke-miterlimit:1;" x1="59.382" y1="55.356" x2="59.818" y2="52.085"/>
	<line style="fill:none;stroke:#000000;stroke-miterlimit:1;" x1="59.818" y1="52.085" x2="61.126" y2="47.507"/>
	<line style="fill:none;stroke:#000000;stroke-miterlimit:1;" x1="61.126" y1="47.507" x2="70.719" y2="27.886"/>
	<line style="fill:none;stroke:#000000;stroke-miterlimit:1;" x1="70.719" y1="27.886" x2="73.117" y2="22"/>
	<line style="fill:none;stroke:#000000;stroke-miterlimit:1;" x1="73.117" y1="22" x2="73.989" y2="18.947"/>
	<line style="fill:none;stroke:#000000;stroke-miterlimit:1;" x1="73.989" y1="18.947" x2="74.207" y2="16.113"/>
	<line style="fill:none;stroke:#000000;stroke-miterlimit:1;" x1="74.207" y1="16.113" x2="74.425" y2="13.279"/>
	<line style="fill:none;stroke:#000000;stroke-miterlimit:1;" x1="74.425" y1="13.279" x2="73.335" y2="10.008"/>
	<line style="fill:none;stroke:#000000;stroke-miterlimit:1;" x1="73.335" y1="10.008" x2="71.809" y2="7.174"/>
	<line style="fill:none;stroke:#000000;stroke-miterlimit:1;" x1="71.809" y1="7.174" x2="69.847" y2="4.994"/>
	<line style="fill:none;stroke:#000000;stroke-miterlimit:1;" x1="69.847" y1="4.994" x2="67.23" y2="3.25"/>
	<line style="fill:none;stroke:#000000;stroke-miterlimit:1;" x1="67.23" y1="3.25" x2="65.269" y2="2.378"/>
	<line style="fill:none;stroke:#000000;stroke-miterlimit:1;" x1="65.269" y1="2.378" x2="62.434" y2="1.724"/>
	<line style="fill:none;stroke:#000000;stroke-miterlimit:1;" x1="62.434" y1="1.724" x2="59.164" y2="1.07"/>
	<line style="fill:none;stroke:#000000;stroke-miterlimit:1;" x1="59.164" y1="1.07" x2="52.188" y2="1.506"/>
	<line style="fill:none;stroke:#000000;stroke-miterlimit:1;" x1="52.188" y1="1.506" x2="50.007" y2="1.724"/>
	<line style="fill:none;stroke:#000000;stroke-miterlimit:1;" x1="50.007" y1="1.724" x2="46.301" y2="3.032"/>
	<line style="fill:none;stroke:#000000;stroke-miterlimit:1;" x1="46.301" y1="3.032" x2="41.723" y2="6.084"/>
	<line style="fill:none;stroke:#000000;stroke-miterlimit:1;" x1="41.723" y1="6.084" x2="39.106" y2="8.264"/>
	<line style="fill:none;stroke:#000000;stroke-miterlimit:1;" x1="39.106" y1="8.264" x2="37.798" y2="9.354"/>
	<line style="fill:none;stroke:#000000;stroke-miterlimit:1;" x1="37.798" y1="9.354" x2="36.708" y2="10.008"/>
	<line style="fill:none;stroke:#000000;stroke-miterlimit:1;" x1="36.708" y1="10.008" x2="40.851" y2="16.767"/>
	<line style="fill:none;stroke:#000000;stroke-miterlimit:1;" x1="40.851" y1="16.767" x2="41.068" y2="23.089"/>
	<line style="fill:none;stroke:#000000;stroke-miterlimit:1;" x1="41.068" y1="23.089" x2="37.145" y2="22.436"/>
	<line style="fill:none;stroke:#000000;stroke-miterlimit:1;" x1="37.145" y1="22.436" x2="32.566" y2="22.436"/>
	<line style="fill:none;stroke:#000000;stroke-miterlimit:1;" x1="32.566" y1="22.436" x2="24.281" y2="22.436"/>
	<line style="fill:none;stroke:#000000;stroke-miterlimit:1;" x1="24.281" y1="22.436" x2="14.035" y2="23.089"/>
	<line style="fill:none;stroke:#000000;stroke-miterlimit:1;" x1="14.035" y1="23.089" x2="9.021" y2="24.18"/>
	<line style="fill:none;stroke:#000000;stroke-miterlimit:1;" x1="9.021" y1="24.18" x2="6.84" y2="25.706"/>
	<line style="fill:none;stroke:#000000;stroke-miterlimit:1;" x1="36.49" y1="10.227" x2="34.092" y2="11.099"/>
	<line style="fill:none;stroke:#000000;stroke-miterlimit:1;" x1="34.092" y1="11.099" x2="9.457" y2="16.549"/>
	<line style="fill:none;stroke:#000000;stroke-miterlimit:1;" x1="9.457" y1="16.549" x2="5.968" y2="18.075"/>
	<line style="fill:none;stroke:#000000;stroke-miterlimit:1;" x1="5.968" y1="18.075" x2="4.224" y2="19.819"/>
	<line style="fill:none;stroke:#000000;stroke-miterlimit:1;" x1="4.224" y1="19.819" x2="2.48" y2="22.872"/>
	<line style="fill:none;stroke:#000000;stroke-miterlimit:1;" x1="2.48" y1="22.872" x2="2.48" y2="25.27"/>
	<line style="fill:none;stroke:#000000;stroke-miterlimit:1;" x1="2.48" y1="25.27" x2="2.044" y2="27.232"/>
	<line style="fill:none;stroke:#000000;stroke-miterlimit:1;" x1="2.044" y1="27.232" x2="2.48" y2="28.54"/>
	<line style="fill:none;stroke:#000000;stroke-miterlimit:1;" x1="2.48" y1="28.54" x2="3.352" y2="28.976"/>
	<line style="fill:none;stroke:#000000;stroke-miterlimit:1;" x1="3.352" y1="28.976" x2="3.788" y2="28.976"/>
	<line style="fill:none;stroke:#000000;stroke-miterlimit:1;" x1="3.788" y1="28.976" x2="5.096" y2="28.54"/>
	<line style="fill:none;stroke:#000000;stroke-miterlimit:1;" x1="5.096" y1="28.54" x2="7.712" y2="23.744"/>
	<line style="fill:none;stroke:#000000;stroke-miterlimit:1;" x1="7.712" y1="23.744" x2="10.765" y2="21.563"/>
	<line style="fill:none;stroke:#000000;stroke-miterlimit:1;" x1="10.765" y1="21.563" x2="12.945" y2="20.473"/>
	<line style="fill:none;stroke:#000000;stroke-miterlimit:1;" x1="12.945" y1="20.473" x2="16.215" y2="19.601"/>
	<line style="fill:none;stroke:#000000;stroke-miterlimit:1;" x1="16.215" y1="19.601" x2="36.926" y2="16.331"/>
	<line style="fill:none;stroke:#000000;stroke-miterlimit:1;" x1="36.926" y1="16.331" x2="39.106" y2="16.549"/>
	<line style="fill:none;stroke:#000000;stroke-miterlimit:1;" x1="39.106" y1="16.549" x2="40.851" y2="17.203"/>
	<line style="fill:none;stroke:#000000;stroke-miterlimit:1;" x1="65.05" y1="2.378" x2="69.411" y2="2.378"/>
	<line style="fill:none;stroke:#000000;stroke-miterlimit:1;" x1="69.411" y1="2.378" x2="74.861" y2="3.686"/>
	<line style="fill:none;stroke:#000000;stroke-miterlimit:1;" x1="74.861" y1="3.686" x2="79.439" y2="5.43"/>
	<line style="fill:none;stroke:#000000;stroke-miterlimit:1;" x1="79.439" y1="5.43" x2="84.018" y2="8.046"/>
	<line style="fill:none;stroke:#000000;stroke-miterlimit:1;" x1="84.018" y1="8.046" x2="88.596" y2="11.971"/>
	<line style="fill:none;stroke:#000000;stroke-miterlimit:1;" x1="88.596" y1="11.971" x2="93.828" y2="19.165"/>
	<line style="fill:none;stroke:#000000;stroke-miterlimit:1;" x1="93.828" y1="19.165" x2="97.534" y2="27.667"/>
	<line style="fill:none;stroke:#000000;stroke-miterlimit:1;" x1="97.534" y1="27.667" x2="99.061" y2="37.479"/>
	<line style="fill:none;stroke:#000000;stroke-miterlimit:1;" x1="99.061" y1="37.479" x2="88.814" y2="37.696"/>
	<line style="fill:none;stroke:#000000;stroke-miterlimit:1;" x1="88.814" y1="37.696" x2="87.724" y2="28.758"/>
	<line style="fill:none;stroke:#000000;stroke-miterlimit:1;" x1="87.724" y1="28.758" x2="86.416" y2="22.872"/>
	<line style="fill:none;stroke:#000000;stroke-miterlimit:1;" x1="86.416" y1="22.872" x2="85.107" y2="18.947"/>
	<line style="fill:none;stroke:#000000;stroke-miterlimit:1;" x1="85.107" y1="18.947" x2="83.582" y2="15.459"/>
	<line style="fill:none;stroke:#000000;stroke-miterlimit:1;" x1="83.582" y1="15.459" x2="81.838" y2="13.497"/>
	<line style="fill:none;stroke:#000000;stroke-miterlimit:1;" x1="81.838" y1="13.497" x2="79.221" y2="10.88"/>
	<line style="fill:none;stroke:#000000;stroke-miterlimit:1;" x1="79.221" y1="10.88" x2="75.515" y2="8.046"/>
	<line style="fill:none;stroke:#000000;stroke-miterlimit:1;" x1="75.515" y1="8.046" x2="72.027" y2="6.956"/>
	<line style="fill:none;stroke:#000000;stroke-miterlimit:1;" x1="40.851" y1="22.872" x2="49.135" y2="24.18"/>
	<line style="fill:none;stroke:#000000;stroke-miterlimit:1;" x1="49.135" y1="24.18" x2="52.405" y2="24.833"/>
	<line style="fill:none;stroke:#000000;stroke-miterlimit:1;" x1="52.405" y1="24.833" x2="55.458" y2="24.833"/>
	<line style="fill:none;stroke:#000000;stroke-miterlimit:1;" x1="55.458" y1="24.833" x2="56.984" y2="25.706"/>
	<line style="fill:none;stroke:#000000;stroke-miterlimit:1;" x1="56.984" y1="25.706" x2="58.074" y2="27.45"/>
	<line style="fill:none;stroke:#000000;stroke-miterlimit:1;" x1="58.074" y1="27.45" x2="58.292" y2="28.758"/>
	<line style="fill:none;stroke:#000000;stroke-miterlimit:1;" x1="58.292" y1="28.758" x2="57.856" y2="30.72"/>
	<line style="fill:none;stroke:#000000;stroke-miterlimit:1;" x1="57.856" y1="30.72" x2="54.368" y2="39.004"/>
	<line style="fill:none;stroke:#000000;stroke-miterlimit:1;" x1="54.368" y1="39.004" x2="50.443" y2="49.469"/>
	<line style="fill:none;stroke:#000000;stroke-miterlimit:1;" x1="50.443" y1="49.469" x2="49.571" y2="55.574"/>
	<line style="fill:none;stroke:#000000;stroke-miterlimit:1;" x1="49.571" y1="55.574" x2="50.661" y2="63.422"/>
	<line style="fill:none;stroke:#000000;stroke-miterlimit:1;" x1="50.661" y1="63.422" x2="53.06" y2="69.091"/>
	<line style="fill:none;stroke:#000000;stroke-miterlimit:1;" x1="53.06" y1="69.091" x2="54.585" y2="71.053"/>
	<line style="fill:none;stroke:#000000;stroke-miterlimit:1;" x1="54.585" y1="71.053" x2="56.548" y2="73.015"/>
	<line style="fill:none;stroke:#000000;stroke-miterlimit:1;" x1="56.548" y1="73.015" x2="61.998" y2="76.504"/>
	<line style="fill:none;stroke:#000000;stroke-miterlimit:1;" x1="61.998" y1="76.504" x2="69.628" y2="78.902"/>
	<line style="fill:none;stroke:#000000;stroke-miterlimit:1;" x1="69.628" y1="78.902" x2="77.695" y2="79.555"/>
	<line style="fill:none;stroke:#000000;stroke-miterlimit:1;" x1="53.06" y1="8.264" x2="51.751" y2="8.482"/>
	<line style="fill:none;stroke:#000000;stroke-miterlimit:1;" x1="51.751" y1="8.482" x2="50.443" y2="10.008"/>
	<line style="fill:none;stroke:#000000;stroke-miterlimit:1;" x1="50.443" y1="10.008" x2="50.443" y2="11.752"/>
	<line style="fill:none;stroke:#000000;stroke-miterlimit:1;" x1="50.443" y1="11.752" x2="51.751" y2="12.843"/>
	<line style="fill:none;stroke:#000000;stroke-miterlimit:1;" x1="51.751" y1="12.843" x2="53.496" y2="12.843"/>
	<line style="fill:none;stroke:#000000;stroke-miterlimit:1;" x1="53.496" y1="12.843" x2="54.804" y2="11.971"/>
	<line style="fill:none;stroke:#000000;stroke-miterlimit:1;" x1="54.804" y1="11.971" x2="55.24" y2="11.099"/>
	<line style="fill:none;stroke:#000000;stroke-miterlimit:1;" x1="55.24" y1="11.099" x2="55.021" y2="9.572"/>
	<line style="fill:none;stroke:#000000;stroke-miterlimit:1;" x1="55.021" y1="9.572" x2="53.713" y2="8.264"/>
	<line style="fill:none;stroke:#000000;stroke-miterlimit:1;" x1="150.172" y1="110.445" x2="150.172" y2="148.115"/>
	<line style="fill:none;stroke:#000000;stroke-miterlimit:1;" x1="150.172" y1="148.115" x2="158.217" y2="148.115"/>
	<line style="fill:none;stroke:#000000;stroke-miterlimit:1;" x1="158.217" y1="148.115" x2="158.217" y2="110.445"/>
	<line style="fill:none;stroke:#000000;stroke-miterlimit:1;" x1="158.217" y1="110.445" x2="150.172" y2="110.445"/>
	<line style="fill:none;stroke:#000000;stroke-miterlimit:1;" x1="150.172" y1="54.126" x2="150.172" y2="92.16"/>
	<line style="fill:none;stroke:#000000;stroke-miterlimit:1;" x1="150.172" y1="92.16" x2="158.217" y2="92.16"/>
	<line style="fill:none;stroke:#000000;stroke-miterlimit:1;" x1="158.217" y1="92.16" x2="158.217" y2="54.126"/>
	<line style="fill:none;stroke:#000000;stroke-miterlimit:1;" x1="158.217" y1="54.126" x2="150.172" y2="54.126"/>
	<line style="fill:none;stroke:#000000;stroke-miterlimit:1;" x1="150.172" y1="0" x2="150.172" y2="38.035"/>
	<line style="fill:none;stroke:#000000;stroke-miterlimit:1;" x1="150.172" y1="38.035" x2="158.217" y2="38.035"/>
	<line style="fill:none;stroke:#000000;stroke-miterlimit:1;" x1="158.217" y1="38.035" x2="158.217" y2="0"/>
	<line style="fill:none;stroke:#000000;stroke-miterlimit:1;" x1="158.217" y1="0" x2="150.172" y2="0"/>
	<line style="fill:none;stroke:#000000;stroke-miterlimit:1;" x1="20.493" y1="142.779" x2="48.835" y2="115.527"/>
	<line style="fill:none;stroke:#000000;stroke-miterlimit:1;" x1="10.247" y1="138.855" x2="45.129" y2="105.5"/>
	<line style="fill:none;stroke:#000000;stroke-miterlimit:1;" x1="3.488" y1="131.662" x2="38.371" y2="98.305"/>
	<line style="fill:none;stroke:#000000;stroke-miterlimit:1;" x1="0" y1="121.414" x2="27.906" y2="94.816"/>
	<line style="fill:none;stroke:#000000;stroke-miterlimit:1;" x1="34.665" y1="96.342" x2="32.266" y2="95.689"/>
	<line style="fill:none;stroke:#000000;stroke-miterlimit:1;" x1="32.266" y1="95.689" x2="29.868" y2="94.816"/>
	<line style="fill:none;stroke:#000000;stroke-miterlimit:1;" x1="29.868" y1="94.816" x2="27.252" y2="94.381"/>
	<line style="fill:none;stroke:#000000;stroke-miterlimit:1;" x1="27.252" y1="94.381" x2="24.636" y2="94.381"/>
	<line style="fill:none;stroke:#000000;stroke-miterlimit:1;" x1="24.636" y1="94.381" x2="21.801" y2="94.598"/>
	<line style="fill:none;stroke:#000000;stroke-miterlimit:1;" x1="21.801" y1="94.598" x2="19.403" y2="94.816"/>
	<line style="fill:none;stroke:#000000;stroke-miterlimit:1;" x1="19.403" y1="94.816" x2="16.787" y2="95.689"/>
	<line style="fill:none;stroke:#000000;stroke-miterlimit:1;" x1="16.787" y1="95.689" x2="14.389" y2="96.561"/>
	<line style="fill:none;stroke:#000000;stroke-miterlimit:1;" x1="14.389" y1="96.561" x2="11.991" y2="97.65"/>
	<line style="fill:none;stroke:#000000;stroke-miterlimit:1;" x1="11.991" y1="97.65" x2="9.811" y2="99.178"/>
	<line style="fill:none;stroke:#000000;stroke-miterlimit:1;" x1="9.811" y1="99.178" x2="8.066" y2="100.703"/>
	<line style="fill:none;stroke:#000000;stroke-miterlimit:1;" x1="8.066" y1="100.703" x2="6.322" y2="102.447"/>
	<line style="fill:none;stroke:#000000;stroke-miterlimit:1;" x1="6.322" y1="102.447" x2="5.014" y2="103.973"/>
	<line style="fill:none;stroke:#000000;stroke-miterlimit:1;" x1="5.014" y1="103.973" x2="3.706" y2="105.936"/>
	<line style="fill:none;stroke:#000000;stroke-miterlimit:1;" x1="3.706" y1="105.936" x2="2.18" y2="108.77"/>
	<line style="fill:none;stroke:#000000;stroke-miterlimit:1;" x1="2.18" y1="108.77" x2="1.526" y2="110.949"/>
	<line style="fill:none;stroke:#000000;stroke-miterlimit:1;" x1="1.526" y1="110.949" x2="0.872" y2="113.348"/>
	<line style="fill:none;stroke:#000000;stroke-miterlimit:1;" x1="0.872" y1="113.348" x2="0.436" y2="115.746"/>
	<line style="fill:none;stroke:#000000;stroke-miterlimit:1;" x1="0.436" y1="115.746" x2="0" y2="118.58"/>
	<line style="fill:none;stroke:#000000;stroke-miterlimit:1;" x1="0" y1="118.58" x2="0" y2="120.979"/>
	<line style="fill:none;stroke:#000000;stroke-miterlimit:1;" x1="0" y1="120.979" x2="0.436" y2="123.812"/>
	<line style="fill:none;stroke:#000000;stroke-miterlimit:1;" x1="0.436" y1="123.812" x2="1.09" y2="126.211"/>
	<line style="fill:none;stroke:#000000;stroke-miterlimit:1;" x1="1.09" y1="126.211" x2="1.744" y2="128.391"/>
	<line style="fill:none;stroke:#000000;stroke-miterlimit:1;" x1="1.744" y1="128.391" x2="2.834" y2="130.789"/>
	<line style="fill:none;stroke:#000000;stroke-miterlimit:1;" x1="2.834" y1="130.789" x2="3.488" y2="132.098"/>
	<line style="fill:none;stroke:#000000;stroke-miterlimit:1;" x1="3.488" y1="132.098" x2="4.36" y2="133.188"/>
	<line style="fill:none;stroke:#000000;stroke-miterlimit:1;" x1="4.36" y1="133.188" x2="6.541" y2="135.586"/>
	<line style="fill:none;stroke:#000000;stroke-miterlimit:1;" x1="6.541" y1="135.586" x2="8.721" y2="137.766"/>
	<line style="fill:none;stroke:#000000;stroke-miterlimit:1;" x1="8.721" y1="137.766" x2="10.683" y2="139.291"/>
	<line style="fill:none;stroke:#000000;stroke-miterlimit:1;" x1="10.683" y1="139.291" x2="13.081" y2="140.6"/>
	<line style="fill:none;stroke:#000000;stroke-miterlimit:1;" x1="13.081" y1="140.6" x2="15.697" y2="141.908"/>
	<line style="fill:none;stroke:#000000;stroke-miterlimit:1;" x1="15.697" y1="141.908" x2="18.313" y2="142.562"/>
	<line style="fill:none;stroke:#000000;stroke-miterlimit:1;" x1="18.313" y1="142.562" x2="20.493" y2="143.217"/>
	<line style="fill:none;stroke:#000000;stroke-miterlimit:1;" x1="20.493" y1="143.217" x2="23.109" y2="143.217"/>
	<line style="fill:none;stroke:#000000;stroke-miterlimit:1;" x1="23.109" y1="143.217" x2="25.726" y2="143.434"/>
	<line style="fill:none;stroke:#000000;stroke-miterlimit:1;" x1="25.726" y1="143.434" x2="28.778" y2="142.998"/>
	<line style="fill:none;stroke:#000000;stroke-miterlimit:1;" x1="28.778" y1="142.998" x2="30.958" y2="142.562"/>
	<line style="fill:none;stroke:#000000;stroke-miterlimit:1;" x1="30.958" y1="142.562" x2="33.574" y2="141.473"/>
	<line style="fill:none;stroke:#000000;stroke-miterlimit:1;" x1="33.574" y1="141.473" x2="36.19" y2="140.164"/>
	<line style="fill:none;stroke:#000000;stroke-miterlimit:1;" x1="36.19" y1="140.164" x2="37.935" y2="139.291"/>
	<line style="fill:none;stroke:#000000;stroke-miterlimit:1;" x1="37.935" y1="139.291" x2="39.897" y2="137.547"/>
	<line style="fill:none;stroke:#000000;stroke-miterlimit:1;" x1="39.897" y1="137.547" x2="41.859" y2="135.803"/>
	<line style="fill:none;stroke:#000000;stroke-miterlimit:1;" x1="41.859" y1="135.803" x2="43.821" y2="133.842"/>
	<line style="fill:none;stroke:#000000;stroke-miterlimit:1;" x1="43.821" y1="133.842" x2="45.347" y2="131.443"/>
	<line style="fill:none;stroke:#000000;stroke-miterlimit:1;" x1="45.347" y1="131.443" x2="46.873" y2="129.264"/>
	<line style="fill:none;stroke:#000000;stroke-miterlimit:1;" x1="46.873" y1="129.264" x2="47.963" y2="127.082"/>
	<line style="fill:none;stroke:#000000;stroke-miterlimit:1;" x1="47.963" y1="127.082" x2="48.617" y2="124.467"/>
	<line style="fill:none;stroke:#000000;stroke-miterlimit:1;" x1="48.617" y1="124.467" x2="48.835" y2="122.068"/>
	<line style="fill:none;stroke:#000000;stroke-miterlimit:1;" x1="48.835" y1="122.068" x2="49.271" y2="119.234"/>
	<line style="fill:none;stroke:#000000;stroke-miterlimit:1;" x1="49.271" y1="119.234" x2="49.053" y2="116.836"/>
	<line style="fill:none;stroke:#000000;stroke-miterlimit:1;" x1="49.053" y1="116.836" x2="48.835" y2="114.002"/>
	<line style="fill:none;stroke:#000000;stroke-miterlimit:1;" x1="48.835" y1="114.002" x2="48.181" y2="111.604"/>
	<line style="fill:none;stroke:#000000;stroke-miterlimit:1;" x1="48.181" y1="111.604" x2="47.309" y2="109.424"/>
	<line style="fill:none;stroke:#000000;stroke-miterlimit:1;" x1="47.309" y1="109.424" x2="46.219" y2="106.59"/>
	<line style="fill:none;stroke:#000000;stroke-miterlimit:1;" x1="46.219" y1="106.59" x2="44.693" y2="104.41"/>
	<line style="fill:none;stroke:#000000;stroke-miterlimit:1;" x1="44.693" y1="104.41" x2="43.167" y2="102.666"/>
	<line style="fill:none;stroke:#000000;stroke-miterlimit:1;" x1="43.167" y1="102.666" x2="41.423" y2="100.484"/>
	<line style="fill:none;stroke:#000000;stroke-miterlimit:1;" x1="41.423" y1="100.484" x2="39.243" y2="98.959"/>
	<line style="fill:none;stroke:#000000;stroke-miterlimit:1;" x1="39.243" y1="98.959" x2="37.062" y2="97.434"/>
	<line style="fill:none;stroke:#000000;stroke-miterlimit:1;" x1="37.062" y1="97.434" x2="34.665" y2="96.342"/>
	<line style="fill:none;stroke:#000000;stroke-miterlimit:1;" x1="86.771" y1="99.477" x2="84.154" y2="100.785"/>
	<line style="fill:none;stroke:#000000;stroke-miterlimit:1;" x1="84.154" y1="100.785" x2="82.191" y2="103.184"/>
	<line style="fill:none;stroke:#000000;stroke-miterlimit:1;" x1="82.191" y1="103.184" x2="81.538" y2="105.145"/>
	<line style="fill:none;stroke:#000000;stroke-miterlimit:1;" x1="81.538" y1="105.145" x2="81.102" y2="107.107"/>
	<line style="fill:none;stroke:#000000;stroke-miterlimit:1;" x1="81.102" y1="107.107" x2="81.756" y2="110.16"/>
	<line style="fill:none;stroke:#000000;stroke-miterlimit:1;" x1="81.756" y1="110.16" x2="83.282" y2="112.121"/>
	<line style="fill:none;stroke:#000000;stroke-miterlimit:1;" x1="83.282" y1="112.121" x2="84.808" y2="113.43"/>
	<line style="fill:none;stroke:#000000;stroke-miterlimit:1;" x1="84.808" y1="113.43" x2="87.424" y2="114.301"/>
	<line style="fill:none;stroke:#000000;stroke-miterlimit:1;" x1="87.424" y1="114.301" x2="89.387" y2="114.955"/>
	<line style="fill:none;stroke:#000000;stroke-miterlimit:1;" x1="89.387" y1="114.955" x2="91.784" y2="114.955"/>
	<line style="fill:none;stroke:#000000;stroke-miterlimit:1;" x1="91.784" y1="114.955" x2="94.4" y2="113.865"/>
	<line style="fill:none;stroke:#000000;stroke-miterlimit:1;" x1="94.4" y1="113.865" x2="96.581" y2="112.775"/>
	<line style="fill:none;stroke:#000000;stroke-miterlimit:1;" x1="96.581" y1="112.775" x2="97.889" y2="111.25"/>
	<line style="fill:none;stroke:#000000;stroke-miterlimit:1;" x1="97.889" y1="111.25" x2="99.415" y2="109.068"/>
	<line style="fill:none;stroke:#000000;stroke-miterlimit:1;" x1="99.415" y1="109.068" x2="100.505" y2="106.453"/>
	<line style="fill:none;stroke:#000000;stroke-miterlimit:1;" x1="100.505" y1="106.453" x2="101.159" y2="104.273"/>
	<line style="fill:none;stroke:#000000;stroke-miterlimit:1;" x1="101.159" y1="104.273" x2="101.377" y2="102.094"/>
	<line style="fill:none;stroke:#000000;stroke-miterlimit:1;" x1="101.377" y1="102.094" x2="101.159" y2="100.566"/>
	<line style="fill:none;stroke:#000000;stroke-miterlimit:1;" x1="101.159" y1="100.566" x2="100.723" y2="97.951"/>
	<line style="fill:none;stroke:#000000;stroke-miterlimit:1;" x1="100.723" y1="97.951" x2="99.633" y2="95.77"/>
	<line style="fill:none;stroke:#000000;stroke-miterlimit:1;" x1="99.633" y1="95.77" x2="97.889" y2="93.59"/>
	<line style="fill:none;stroke:#000000;stroke-miterlimit:1;" x1="97.889" y1="93.59" x2="96.145" y2="92.064"/>
	<line style="fill:none;stroke:#000000;stroke-miterlimit:1;" x1="96.145" y1="92.064" x2="94.619" y2="91.41"/>
	<line style="fill:none;stroke:#000000;stroke-miterlimit:1;" x1="94.619" y1="91.41" x2="93.093" y2="90.756"/>
	<line style="fill:none;stroke:#000000;stroke-miterlimit:1;" x1="93.093" y1="90.756" x2="90.912" y2="90.537"/>
	<line style="fill:none;stroke:#000000;stroke-miterlimit:1;" x1="90.912" y1="90.537" x2="89.168" y2="90.32"/>
	<line style="fill:none;stroke:#000000;stroke-miterlimit:1;" x1="89.168" y1="90.32" x2="86.988" y2="90.32"/>
	<line style="fill:none;stroke:#000000;stroke-miterlimit:1;" x1="86.988" y1="90.32" x2="84.372" y2="90.537"/>
	<line style="fill:none;stroke:#000000;stroke-miterlimit:1;" x1="84.372" y1="90.537" x2="81.538" y2="91.41"/>
	<line style="fill:none;stroke:#000000;stroke-miterlimit:1;" x1="81.538" y1="91.41" x2="79.14" y2="92.719"/>
	<line style="fill:none;stroke:#000000;stroke-miterlimit:1;" x1="79.14" y1="92.719" x2="77.613" y2="94.025"/>
	<line style="fill:none;stroke:#000000;stroke-miterlimit:1;" x1="77.613" y1="94.025" x2="75.869" y2="95.553"/>
	<line style="fill:none;stroke:#000000;stroke-miterlimit:1;" x1="75.869" y1="95.553" x2="74.561" y2="97.078"/>
	<line style="fill:none;stroke:#000000;stroke-miterlimit:1;" x1="74.561" y1="97.078" x2="73.253" y2="99.477"/>
	<line style="fill:none;stroke:#000000;stroke-miterlimit:1;" x1="73.253" y1="99.477" x2="71.945" y2="101.875"/>
	<line style="fill:none;stroke:#000000;stroke-miterlimit:1;" x1="71.945" y1="101.875" x2="71.509" y2="104.055"/>
	<line style="fill:none;stroke:#000000;stroke-miterlimit:1;" x1="71.509" y1="104.055" x2="71.073" y2="107.107"/>
	<line style="fill:none;stroke:#000000;stroke-miterlimit:1;" x1="71.073" y1="107.107" x2="70.855" y2="110.16"/>
	<line style="fill:none;stroke:#000000;stroke-miterlimit:1;" x1="70.855" y1="110.16" x2="71.073" y2="112.557"/>
	<line style="fill:none;stroke:#000000;stroke-miterlimit:1;" x1="71.073" y1="112.557" x2="71.291" y2="116.045"/>
	<line style="fill:none;stroke:#000000;stroke-miterlimit:1;" x1="71.291" y1="116.045" x2="72.599" y2="119.533"/>
	<line style="fill:none;stroke:#000000;stroke-miterlimit:1;" x1="72.599" y1="119.533" x2="74.561" y2="123.459"/>
	<line style="fill:none;stroke:#000000;stroke-miterlimit:1;" x1="74.561" y1="123.459" x2="78.049" y2="128.037"/>
	<line style="fill:none;stroke:#000000;stroke-miterlimit:1;" x1="78.049" y1="128.037" x2="83.5" y2="133.27"/>
	<line style="fill:none;stroke:#000000;stroke-miterlimit:1;" x1="83.5" y1="133.27" x2="91.349" y2="139.592"/>
	<line style="fill:none;stroke:#000000;stroke-miterlimit:1;" x1="91.349" y1="139.592" x2="108.354" y2="149.184"/>
</g>
</svg>
