<?xml version="1.0" encoding="iso-8859-1"?>
<!-- Generator: Adobe Illustrator 16.0.1, SVG Export Plug-In . SVG Version: 6.00 Build 0)  -->
<!DOCTYPE svg PUBLIC "-//W3C//DTD SVG 1.1//EN" "http://www.w3.org/Graphics/SVG/1.1/DTD/svg11.dtd">
<svg version="1.1" id="Ebene_1" xmlns="http://www.w3.org/2000/svg" xmlns:xlink="http://www.w3.org/1999/xlink" x="0px" y="0px"
	 width="68.057px" height="148.114px" viewBox="0 0 68.057 148.114" style="enable-background:new 0 0 68.057 148.114;"
	 xml:space="preserve">
<g>
	<line style="fill:none;stroke:#000000;stroke-miterlimit:1;" x1="21.174" y1="45.685" x2="29.876" y2="45.685"/>
	<line style="fill:none;stroke:#000000;stroke-miterlimit:1;" x1="29.876" y1="45.685" x2="29.731" y2="42.494"/>
	<line style="fill:none;stroke:#000000;stroke-miterlimit:1;" x1="29.731" y1="42.494" x2="30.602" y2="38.289"/>
	<line style="fill:none;stroke:#000000;stroke-miterlimit:1;" x1="30.602" y1="38.289" x2="31.472" y2="35.823"/>
	<line style="fill:none;stroke:#000000;stroke-miterlimit:1;" x1="31.472" y1="35.823" x2="33.212" y2="31.907"/>
	<line style="fill:none;stroke:#000000;stroke-miterlimit:1;" x1="33.212" y1="31.907" x2="41.188" y2="17.839"/>
	<line style="fill:none;stroke:#000000;stroke-miterlimit:1;" x1="41.188" y1="17.839" x2="41.624" y2="14.793"/>
	<line style="fill:none;stroke:#000000;stroke-miterlimit:1;" x1="41.624" y1="14.793" x2="41.77" y2="13.343"/>
	<line style="fill:none;stroke:#000000;stroke-miterlimit:1;" x1="41.77" y1="13.343" x2="41.479" y2="10.732"/>
	<line style="fill:none;stroke:#000000;stroke-miterlimit:1;" x1="41.479" y1="10.732" x2="41.044" y2="8.992"/>
	<line style="fill:none;stroke:#000000;stroke-miterlimit:1;" x1="41.044" y1="8.992" x2="40.318" y2="6.816"/>
	<line style="fill:none;stroke:#000000;stroke-miterlimit:1;" x1="40.318" y1="6.816" x2="39.014" y2="4.786"/>
	<line style="fill:none;stroke:#000000;stroke-miterlimit:1;" x1="39.014" y1="4.786" x2="37.998" y2="3.626"/>
	<line style="fill:none;stroke:#000000;stroke-miterlimit:1;" x1="37.998" y1="3.626" x2="35.388" y2="1.16"/>
	<line style="fill:none;stroke:#000000;stroke-miterlimit:1;" x1="35.388" y1="1.16" x2="33.357" y2="0.435"/>
	<line style="fill:none;stroke:#000000;stroke-miterlimit:1;" x1="33.357" y1="0.435" x2="29.151" y2="0"/>
	<line style="fill:none;stroke:#000000;stroke-miterlimit:1;" x1="29.151" y1="0" x2="25.67" y2="0.435"/>
	<line style="fill:none;stroke:#000000;stroke-miterlimit:1;" x1="25.67" y1="0.435" x2="24.22" y2="1.015"/>
	<line style="fill:none;stroke:#000000;stroke-miterlimit:1;" x1="24.22" y1="1.015" x2="22.48" y2="2.175"/>
	<line style="fill:none;stroke:#000000;stroke-miterlimit:1;" x1="22.48" y1="2.175" x2="20.884" y2="3.916"/>
	<line style="fill:none;stroke:#000000;stroke-miterlimit:1;" x1="20.884" y1="3.916" x2="20.159" y2="4.931"/>
	<line style="fill:none;stroke:#000000;stroke-miterlimit:1;" x1="20.159" y1="4.931" x2="19.434" y2="5.801"/>
	<line style="fill:none;stroke:#000000;stroke-miterlimit:1;" x1="18.999" y1="5.946" x2="17.694" y2="6.526"/>
	<line style="fill:none;stroke:#000000;stroke-miterlimit:1;" x1="17.694" y1="6.526" x2="3.48" y2="9.282"/>
	<line style="fill:none;stroke:#000000;stroke-miterlimit:1;" x1="3.48" y1="9.282" x2="2.175" y2="10.297"/>
	<line style="fill:none;stroke:#000000;stroke-miterlimit:1;" x1="2.175" y1="10.297" x2="1.16" y2="11.022"/>
	<line style="fill:none;stroke:#000000;stroke-miterlimit:1;" x1="1.16" y1="11.022" x2="0.29" y2="12.618"/>
	<line style="fill:none;stroke:#000000;stroke-miterlimit:1;" x1="0.29" y1="12.618" x2="0" y2="14.938"/>
	<line style="fill:none;stroke:#000000;stroke-miterlimit:1;" x1="0" y1="14.938" x2="0.145" y2="15.519"/>
	<line style="fill:none;stroke:#000000;stroke-miterlimit:1;" x1="0.145" y1="15.519" x2="0.58" y2="15.809"/>
	<line style="fill:none;stroke:#000000;stroke-miterlimit:1;" x1="0.58" y1="15.809" x2="0.87" y2="15.809"/>
	<line style="fill:none;stroke:#000000;stroke-miterlimit:1;" x1="0.87" y1="15.809" x2="1.595" y2="15.519"/>
	<line style="fill:none;stroke:#000000;stroke-miterlimit:1;" x1="1.595" y1="15.519" x2="1.885" y2="14.213"/>
	<line style="fill:none;stroke:#000000;stroke-miterlimit:1;" x1="1.885" y1="14.213" x2="2.755" y2="12.908"/>
	<line style="fill:none;stroke:#000000;stroke-miterlimit:1;" x1="2.755" y1="12.908" x2="4.061" y2="11.748"/>
	<line style="fill:none;stroke:#000000;stroke-miterlimit:1;" x1="4.061" y1="11.748" x2="5.511" y2="11.312"/>
	<line style="fill:none;stroke:#000000;stroke-miterlimit:1;" x1="5.511" y1="11.312" x2="7.396" y2="10.732"/>
	<line style="fill:none;stroke:#000000;stroke-miterlimit:1;" x1="7.396" y1="10.732" x2="19.144" y2="9.137"/>
	<line style="fill:none;stroke:#000000;stroke-miterlimit:1;" x1="19.144" y1="9.137" x2="19.434" y2="8.992"/>
	<line style="fill:none;stroke:#000000;stroke-miterlimit:1;" x1="19.434" y1="8.992" x2="21.174" y2="9.282"/>
	<line style="fill:none;stroke:#000000;stroke-miterlimit:1;" x1="19.144" y1="5.946" x2="21.174" y2="9.427"/>
	<line style="fill:none;stroke:#000000;stroke-miterlimit:1;" x1="21.174" y1="9.427" x2="21.174" y2="11.312"/>
	<line style="fill:none;stroke:#000000;stroke-miterlimit:1;" x1="2.175" y1="14.068" x2="3.48" y2="13.198"/>
	<line style="fill:none;stroke:#000000;stroke-miterlimit:1;" x1="3.48" y1="13.198" x2="5.656" y2="12.618"/>
	<line style="fill:none;stroke:#000000;stroke-miterlimit:1;" x1="5.656" y1="12.618" x2="11.312" y2="12.038"/>
	<line style="fill:none;stroke:#000000;stroke-miterlimit:1;" x1="11.312" y1="12.038" x2="16.969" y2="11.312"/>
	<line style="fill:none;stroke:#000000;stroke-miterlimit:1;" x1="16.969" y1="11.312" x2="19.289" y2="11.312"/>
	<line style="fill:none;stroke:#000000;stroke-miterlimit:1;" x1="19.289" y1="11.312" x2="21.319" y2="11.312"/>
	<line style="fill:none;stroke:#000000;stroke-miterlimit:1;" x1="21.319" y1="11.312" x2="22.48" y2="11.458"/>
	<line style="fill:none;stroke:#000000;stroke-miterlimit:1;" x1="22.48" y1="11.458" x2="24.8" y2="12.038"/>
	<line style="fill:none;stroke:#000000;stroke-miterlimit:1;" x1="24.8" y1="12.038" x2="28.861" y2="12.763"/>
	<line style="fill:none;stroke:#000000;stroke-miterlimit:1;" x1="28.861" y1="12.763" x2="31.037" y2="12.908"/>
	<line style="fill:none;stroke:#000000;stroke-miterlimit:1;" x1="31.037" y1="12.908" x2="32.632" y2="12.763"/>
	<line style="fill:none;stroke:#000000;stroke-miterlimit:1;" x1="32.632" y1="12.763" x2="34.373" y2="12.328"/>
	<line style="fill:none;stroke:#000000;stroke-miterlimit:1;" x1="34.373" y1="12.328" x2="35.388" y2="12.908"/>
	<line style="fill:none;stroke:#000000;stroke-miterlimit:1;" x1="35.388" y1="12.908" x2="35.823" y2="13.633"/>
	<line style="fill:none;stroke:#000000;stroke-miterlimit:1;" x1="35.823" y1="13.633" x2="35.968" y2="15.374"/>
	<line style="fill:none;stroke:#000000;stroke-miterlimit:1;" x1="35.968" y1="15.374" x2="35.823" y2="16.824"/>
	<line style="fill:none;stroke:#000000;stroke-miterlimit:1;" x1="35.823" y1="16.824" x2="35.098" y2="18.564"/>
	<line style="fill:none;stroke:#000000;stroke-miterlimit:1;" x1="35.098" y1="18.564" x2="28.716" y2="26.976"/>
	<line style="fill:none;stroke:#000000;stroke-miterlimit:1;" x1="28.716" y1="26.976" x2="25.525" y2="32.052"/>
	<line style="fill:none;stroke:#000000;stroke-miterlimit:1;" x1="25.525" y1="32.052" x2="24.22" y2="34.663"/>
	<line style="fill:none;stroke:#000000;stroke-miterlimit:1;" x1="24.22" y1="34.663" x2="22.625" y2="37.708"/>
	<line style="fill:none;stroke:#000000;stroke-miterlimit:1;" x1="22.625" y1="37.708" x2="21.755" y2="41.624"/>
	<line style="fill:none;stroke:#000000;stroke-miterlimit:1;" x1="21.755" y1="41.624" x2="21.174" y2="45.685"/>
	<line style="fill:none;stroke:#000000;stroke-miterlimit:1;" x1="33.647" y1="0.58" x2="41.188" y2="3.335"/>
	<line style="fill:none;stroke:#000000;stroke-miterlimit:1;" x1="41.188" y1="3.335" x2="48.586" y2="5.221"/>
	<line style="fill:none;stroke:#000000;stroke-miterlimit:1;" x1="48.586" y1="5.221" x2="51.631" y2="5.801"/>
	<line style="fill:none;stroke:#000000;stroke-miterlimit:1;" x1="51.631" y1="5.801" x2="54.242" y2="5.946"/>
	<line style="fill:none;stroke:#000000;stroke-miterlimit:1;" x1="54.242" y1="5.946" x2="57.433" y2="5.946"/>
	<line style="fill:none;stroke:#000000;stroke-miterlimit:1;" x1="57.433" y1="5.946" x2="60.913" y2="5.801"/>
	<line style="fill:none;stroke:#000000;stroke-miterlimit:1;" x1="60.913" y1="5.801" x2="63.524" y2="5.221"/>
	<line style="fill:none;stroke:#000000;stroke-miterlimit:1;" x1="63.524" y1="5.221" x2="66.135" y2="4.641"/>
	<line style="fill:none;stroke:#000000;stroke-miterlimit:1;" x1="66.135" y1="4.641" x2="66.425" y2="4.931"/>
	<line style="fill:none;stroke:#000000;stroke-miterlimit:1;" x1="66.425" y1="4.931" x2="66.135" y2="5.946"/>
	<line style="fill:none;stroke:#000000;stroke-miterlimit:1;" x1="66.135" y1="5.946" x2="65.119" y2="6.671"/>
	<line style="fill:none;stroke:#000000;stroke-miterlimit:1;" x1="65.119" y1="6.671" x2="61.639" y2="7.396"/>
	<line style="fill:none;stroke:#000000;stroke-miterlimit:1;" x1="61.639" y1="7.396" x2="58.158" y2="7.832"/>
	<line style="fill:none;stroke:#000000;stroke-miterlimit:1;" x1="58.158" y1="7.832" x2="54.242" y2="7.832"/>
	<line style="fill:none;stroke:#000000;stroke-miterlimit:1;" x1="54.242" y1="7.832" x2="50.906" y2="7.542"/>
	<line style="fill:none;stroke:#000000;stroke-miterlimit:1;" x1="50.906" y1="7.542" x2="45.25" y2="6.526"/>
	<line style="fill:none;stroke:#000000;stroke-miterlimit:1;" x1="45.25" y1="6.526" x2="42.06" y2="5.511"/>
	<line style="fill:none;stroke:#000000;stroke-miterlimit:1;" x1="37.998" y1="3.335" x2="43.654" y2="6.381"/>
	<line style="fill:none;stroke:#000000;stroke-miterlimit:1;" x1="43.654" y1="6.381" x2="49.311" y2="9.282"/>
	<line style="fill:none;stroke:#000000;stroke-miterlimit:1;" x1="49.311" y1="9.282" x2="52.792" y2="11.022"/>
	<line style="fill:none;stroke:#000000;stroke-miterlimit:1;" x1="52.792" y1="11.022" x2="55.402" y2="12.038"/>
	<line style="fill:none;stroke:#000000;stroke-miterlimit:1;" x1="55.402" y1="12.038" x2="58.303" y2="12.763"/>
	<line style="fill:none;stroke:#000000;stroke-miterlimit:1;" x1="58.303" y1="12.763" x2="60.333" y2="13.053"/>
	<line style="fill:none;stroke:#000000;stroke-miterlimit:1;" x1="60.333" y1="13.053" x2="64.104" y2="13.488"/>
	<line style="fill:none;stroke:#000000;stroke-miterlimit:1;" x1="64.104" y1="13.488" x2="65.699" y2="13.198"/>
	<line style="fill:none;stroke:#000000;stroke-miterlimit:1;" x1="65.699" y1="13.198" x2="66.425" y2="13.053"/>
	<line style="fill:none;stroke:#000000;stroke-miterlimit:1;" x1="66.425" y1="13.053" x2="67.005" y2="13.488"/>
	<line style="fill:none;stroke:#000000;stroke-miterlimit:1;" x1="67.005" y1="13.488" x2="67.149" y2="14.358"/>
	<line style="fill:none;stroke:#000000;stroke-miterlimit:1;" x1="67.149" y1="14.358" x2="64.975" y2="15.083"/>
	<line style="fill:none;stroke:#000000;stroke-miterlimit:1;" x1="64.975" y1="15.083" x2="62.363" y2="15.374"/>
	<line style="fill:none;stroke:#000000;stroke-miterlimit:1;" x1="62.363" y1="15.374" x2="59.463" y2="14.938"/>
	<line style="fill:none;stroke:#000000;stroke-miterlimit:1;" x1="59.463" y1="14.938" x2="55.402" y2="14.068"/>
	<line style="fill:none;stroke:#000000;stroke-miterlimit:1;" x1="55.402" y1="14.068" x2="51.921" y2="12.908"/>
	<line style="fill:none;stroke:#000000;stroke-miterlimit:1;" x1="51.921" y1="12.908" x2="48.586" y2="11.312"/>
	<line style="fill:none;stroke:#000000;stroke-miterlimit:1;" x1="48.586" y1="11.312" x2="40.464" y2="6.671"/>
	<line style="fill:none;stroke:#000000;stroke-miterlimit:1;" x1="25.815" y1="4.206" x2="24.945" y2="4.351"/>
	<line style="fill:none;stroke:#000000;stroke-miterlimit:1;" x1="24.945" y1="4.351" x2="24.22" y2="5.221"/>
	<line style="fill:none;stroke:#000000;stroke-miterlimit:1;" x1="24.22" y1="5.221" x2="24.22" y2="6.236"/>
	<line style="fill:none;stroke:#000000;stroke-miterlimit:1;" x1="24.22" y1="6.236" x2="24.945" y2="6.961"/>
	<line style="fill:none;stroke:#000000;stroke-miterlimit:1;" x1="24.945" y1="6.961" x2="25.96" y2="6.961"/>
	<line style="fill:none;stroke:#000000;stroke-miterlimit:1;" x1="25.96" y1="6.961" x2="26.976" y2="6.526"/>
	<line style="fill:none;stroke:#000000;stroke-miterlimit:1;" x1="26.976" y1="6.526" x2="27.121" y2="5.946"/>
	<line style="fill:none;stroke:#000000;stroke-miterlimit:1;" x1="27.121" y1="5.946" x2="26.831" y2="5.076"/>
	<line style="fill:none;stroke:#000000;stroke-miterlimit:1;" x1="26.831" y1="5.076" x2="26.105" y2="4.206"/>
	<line style="fill:none;stroke:#000000;stroke-miterlimit:1;" x1="21.628" y1="97.353" x2="30.33" y2="97.353"/>
	<line style="fill:none;stroke:#000000;stroke-miterlimit:1;" x1="30.33" y1="97.353" x2="30.185" y2="94.162"/>
	<line style="fill:none;stroke:#000000;stroke-miterlimit:1;" x1="30.185" y1="94.162" x2="31.055" y2="89.956"/>
	<line style="fill:none;stroke:#000000;stroke-miterlimit:1;" x1="31.055" y1="89.956" x2="31.925" y2="87.49"/>
	<line style="fill:none;stroke:#000000;stroke-miterlimit:1;" x1="31.925" y1="87.49" x2="33.666" y2="83.575"/>
	<line style="fill:none;stroke:#000000;stroke-miterlimit:1;" x1="33.666" y1="83.575" x2="41.643" y2="69.507"/>
	<line style="fill:none;stroke:#000000;stroke-miterlimit:1;" x1="41.643" y1="69.507" x2="42.077" y2="66.461"/>
	<line style="fill:none;stroke:#000000;stroke-miterlimit:1;" x1="42.077" y1="66.461" x2="42.223" y2="65.011"/>
	<line style="fill:none;stroke:#000000;stroke-miterlimit:1;" x1="42.223" y1="65.011" x2="41.933" y2="62.4"/>
	<line style="fill:none;stroke:#000000;stroke-miterlimit:1;" x1="41.933" y1="62.4" x2="41.497" y2="60.66"/>
	<line style="fill:none;stroke:#000000;stroke-miterlimit:1;" x1="41.497" y1="60.66" x2="40.772" y2="58.484"/>
	<line style="fill:none;stroke:#000000;stroke-miterlimit:1;" x1="40.772" y1="58.484" x2="39.467" y2="56.454"/>
	<line style="fill:none;stroke:#000000;stroke-miterlimit:1;" x1="39.467" y1="56.454" x2="38.451" y2="55.293"/>
	<line style="fill:none;stroke:#000000;stroke-miterlimit:1;" x1="38.451" y1="55.293" x2="35.841" y2="52.828"/>
	<line style="fill:none;stroke:#000000;stroke-miterlimit:1;" x1="35.841" y1="52.828" x2="33.811" y2="52.103"/>
	<line style="fill:none;stroke:#000000;stroke-miterlimit:1;" x1="33.811" y1="52.103" x2="29.604" y2="51.667"/>
	<line style="fill:none;stroke:#000000;stroke-miterlimit:1;" x1="29.604" y1="51.667" x2="26.124" y2="52.103"/>
	<line style="fill:none;stroke:#000000;stroke-miterlimit:1;" x1="26.124" y1="52.103" x2="24.673" y2="52.683"/>
	<line style="fill:none;stroke:#000000;stroke-miterlimit:1;" x1="24.673" y1="52.683" x2="22.933" y2="53.843"/>
	<line style="fill:none;stroke:#000000;stroke-miterlimit:1;" x1="22.933" y1="53.843" x2="21.338" y2="55.583"/>
	<line style="fill:none;stroke:#000000;stroke-miterlimit:1;" x1="21.338" y1="55.583" x2="20.612" y2="56.599"/>
	<line style="fill:none;stroke:#000000;stroke-miterlimit:1;" x1="20.612" y1="56.599" x2="19.887" y2="57.469"/>
	<line style="fill:none;stroke:#000000;stroke-miterlimit:1;" x1="19.452" y1="57.614" x2="18.147" y2="58.194"/>
	<line style="fill:none;stroke:#000000;stroke-miterlimit:1;" x1="18.147" y1="58.194" x2="3.934" y2="60.95"/>
	<line style="fill:none;stroke:#000000;stroke-miterlimit:1;" x1="3.934" y1="60.95" x2="2.628" y2="61.965"/>
	<line style="fill:none;stroke:#000000;stroke-miterlimit:1;" x1="2.628" y1="61.965" x2="1.613" y2="62.69"/>
	<line style="fill:none;stroke:#000000;stroke-miterlimit:1;" x1="1.613" y1="62.69" x2="0.743" y2="64.286"/>
	<line style="fill:none;stroke:#000000;stroke-miterlimit:1;" x1="0.743" y1="64.286" x2="0.453" y2="66.606"/>
	<line style="fill:none;stroke:#000000;stroke-miterlimit:1;" x1="0.453" y1="66.606" x2="0.598" y2="67.186"/>
	<line style="fill:none;stroke:#000000;stroke-miterlimit:1;" x1="0.598" y1="67.186" x2="1.033" y2="67.476"/>
	<line style="fill:none;stroke:#000000;stroke-miterlimit:1;" x1="1.033" y1="67.476" x2="1.323" y2="67.476"/>
	<line style="fill:none;stroke:#000000;stroke-miterlimit:1;" x1="1.323" y1="67.476" x2="2.048" y2="67.186"/>
	<line style="fill:none;stroke:#000000;stroke-miterlimit:1;" x1="2.048" y1="67.186" x2="2.338" y2="65.881"/>
	<line style="fill:none;stroke:#000000;stroke-miterlimit:1;" x1="2.338" y1="65.881" x2="3.208" y2="64.576"/>
	<line style="fill:none;stroke:#000000;stroke-miterlimit:1;" x1="3.208" y1="64.576" x2="4.514" y2="63.416"/>
	<line style="fill:none;stroke:#000000;stroke-miterlimit:1;" x1="4.514" y1="63.416" x2="5.964" y2="62.98"/>
	<line style="fill:none;stroke:#000000;stroke-miterlimit:1;" x1="5.964" y1="62.98" x2="7.85" y2="62.4"/>
	<line style="fill:none;stroke:#000000;stroke-miterlimit:1;" x1="7.85" y1="62.4" x2="19.597" y2="60.805"/>
	<line style="fill:none;stroke:#000000;stroke-miterlimit:1;" x1="19.597" y1="60.805" x2="19.887" y2="60.66"/>
	<line style="fill:none;stroke:#000000;stroke-miterlimit:1;" x1="19.887" y1="60.66" x2="21.628" y2="60.95"/>
	<line style="fill:none;stroke:#000000;stroke-miterlimit:1;" x1="19.597" y1="57.614" x2="21.628" y2="61.095"/>
	<line style="fill:none;stroke:#000000;stroke-miterlimit:1;" x1="21.628" y1="61.095" x2="21.628" y2="62.98"/>
	<line style="fill:none;stroke:#000000;stroke-miterlimit:1;" x1="2.628" y1="65.736" x2="3.934" y2="64.866"/>
	<line style="fill:none;stroke:#000000;stroke-miterlimit:1;" x1="3.934" y1="64.866" x2="6.109" y2="64.286"/>
	<line style="fill:none;stroke:#000000;stroke-miterlimit:1;" x1="6.109" y1="64.286" x2="11.766" y2="63.706"/>
	<line style="fill:none;stroke:#000000;stroke-miterlimit:1;" x1="11.766" y1="63.706" x2="17.422" y2="62.98"/>
	<line style="fill:none;stroke:#000000;stroke-miterlimit:1;" x1="17.422" y1="62.98" x2="19.742" y2="62.98"/>
	<line style="fill:none;stroke:#000000;stroke-miterlimit:1;" x1="19.742" y1="62.98" x2="21.773" y2="62.98"/>
	<line style="fill:none;stroke:#000000;stroke-miterlimit:1;" x1="21.773" y1="62.98" x2="22.933" y2="63.125"/>
	<line style="fill:none;stroke:#000000;stroke-miterlimit:1;" x1="22.933" y1="63.125" x2="25.253" y2="63.706"/>
	<line style="fill:none;stroke:#000000;stroke-miterlimit:1;" x1="25.253" y1="63.706" x2="29.314" y2="64.431"/>
	<line style="fill:none;stroke:#000000;stroke-miterlimit:1;" x1="29.314" y1="64.431" x2="31.49" y2="64.576"/>
	<line style="fill:none;stroke:#000000;stroke-miterlimit:1;" x1="31.49" y1="64.576" x2="33.085" y2="64.431"/>
	<line style="fill:none;stroke:#000000;stroke-miterlimit:1;" x1="33.085" y1="64.431" x2="34.825" y2="63.996"/>
	<line style="fill:none;stroke:#000000;stroke-miterlimit:1;" x1="34.825" y1="63.996" x2="35.841" y2="64.576"/>
	<line style="fill:none;stroke:#000000;stroke-miterlimit:1;" x1="35.841" y1="64.576" x2="36.276" y2="65.301"/>
	<line style="fill:none;stroke:#000000;stroke-miterlimit:1;" x1="36.276" y1="65.301" x2="36.421" y2="67.041"/>
	<line style="fill:none;stroke:#000000;stroke-miterlimit:1;" x1="36.421" y1="67.041" x2="36.276" y2="68.491"/>
	<line style="fill:none;stroke:#000000;stroke-miterlimit:1;" x1="36.276" y1="68.491" x2="35.551" y2="70.232"/>
	<line style="fill:none;stroke:#000000;stroke-miterlimit:1;" x1="35.551" y1="70.232" x2="29.169" y2="78.644"/>
	<line style="fill:none;stroke:#000000;stroke-miterlimit:1;" x1="29.169" y1="78.644" x2="25.979" y2="83.72"/>
	<line style="fill:none;stroke:#000000;stroke-miterlimit:1;" x1="25.979" y1="83.72" x2="24.673" y2="86.33"/>
	<line style="fill:none;stroke:#000000;stroke-miterlimit:1;" x1="24.673" y1="86.33" x2="23.078" y2="89.376"/>
	<line style="fill:none;stroke:#000000;stroke-miterlimit:1;" x1="23.078" y1="89.376" x2="22.208" y2="93.292"/>
	<line style="fill:none;stroke:#000000;stroke-miterlimit:1;" x1="22.208" y1="93.292" x2="21.628" y2="97.353"/>
	<line style="fill:none;stroke:#000000;stroke-miterlimit:1;" x1="34.101" y1="52.248" x2="41.643" y2="55.003"/>
	<line style="fill:none;stroke:#000000;stroke-miterlimit:1;" x1="41.643" y1="55.003" x2="49.039" y2="56.889"/>
	<line style="fill:none;stroke:#000000;stroke-miterlimit:1;" x1="49.039" y1="56.889" x2="52.085" y2="57.469"/>
	<line style="fill:none;stroke:#000000;stroke-miterlimit:1;" x1="52.085" y1="57.469" x2="54.695" y2="57.614"/>
	<line style="fill:none;stroke:#000000;stroke-miterlimit:1;" x1="54.695" y1="57.614" x2="57.886" y2="57.614"/>
	<line style="fill:none;stroke:#000000;stroke-miterlimit:1;" x1="57.886" y1="57.614" x2="61.366" y2="57.469"/>
	<line style="fill:none;stroke:#000000;stroke-miterlimit:1;" x1="61.366" y1="57.469" x2="63.978" y2="56.889"/>
	<line style="fill:none;stroke:#000000;stroke-miterlimit:1;" x1="63.978" y1="56.889" x2="66.588" y2="56.309"/>
	<line style="fill:none;stroke:#000000;stroke-miterlimit:1;" x1="66.588" y1="56.309" x2="66.878" y2="56.599"/>
	<line style="fill:none;stroke:#000000;stroke-miterlimit:1;" x1="66.878" y1="56.599" x2="66.588" y2="57.614"/>
	<line style="fill:none;stroke:#000000;stroke-miterlimit:1;" x1="66.588" y1="57.614" x2="65.572" y2="58.339"/>
	<line style="fill:none;stroke:#000000;stroke-miterlimit:1;" x1="65.572" y1="58.339" x2="62.092" y2="59.064"/>
	<line style="fill:none;stroke:#000000;stroke-miterlimit:1;" x1="62.092" y1="59.064" x2="58.611" y2="59.5"/>
	<line style="fill:none;stroke:#000000;stroke-miterlimit:1;" x1="58.611" y1="59.5" x2="54.695" y2="59.5"/>
	<line style="fill:none;stroke:#000000;stroke-miterlimit:1;" x1="54.695" y1="59.5" x2="51.359" y2="59.209"/>
	<line style="fill:none;stroke:#000000;stroke-miterlimit:1;" x1="51.359" y1="59.209" x2="45.703" y2="58.194"/>
	<line style="fill:none;stroke:#000000;stroke-miterlimit:1;" x1="45.703" y1="58.194" x2="42.513" y2="57.179"/>
	<line style="fill:none;stroke:#000000;stroke-miterlimit:1;" x1="38.451" y1="55.003" x2="44.107" y2="58.049"/>
	<line style="fill:none;stroke:#000000;stroke-miterlimit:1;" x1="44.107" y1="58.049" x2="49.764" y2="60.95"/>
	<line style="fill:none;stroke:#000000;stroke-miterlimit:1;" x1="49.764" y1="60.95" x2="53.245" y2="62.69"/>
	<line style="fill:none;stroke:#000000;stroke-miterlimit:1;" x1="53.245" y1="62.69" x2="55.855" y2="63.706"/>
	<line style="fill:none;stroke:#000000;stroke-miterlimit:1;" x1="55.855" y1="63.706" x2="58.756" y2="64.431"/>
	<line style="fill:none;stroke:#000000;stroke-miterlimit:1;" x1="58.756" y1="64.431" x2="60.786" y2="64.721"/>
	<line style="fill:none;stroke:#000000;stroke-miterlimit:1;" x1="60.786" y1="64.721" x2="64.558" y2="65.156"/>
	<line style="fill:none;stroke:#000000;stroke-miterlimit:1;" x1="64.558" y1="65.156" x2="66.152" y2="64.866"/>
	<line style="fill:none;stroke:#000000;stroke-miterlimit:1;" x1="66.152" y1="64.866" x2="66.878" y2="64.721"/>
	<line style="fill:none;stroke:#000000;stroke-miterlimit:1;" x1="66.878" y1="64.721" x2="67.458" y2="65.156"/>
	<line style="fill:none;stroke:#000000;stroke-miterlimit:1;" x1="67.458" y1="65.156" x2="67.603" y2="66.026"/>
	<line style="fill:none;stroke:#000000;stroke-miterlimit:1;" x1="67.603" y1="66.026" x2="65.428" y2="66.751"/>
	<line style="fill:none;stroke:#000000;stroke-miterlimit:1;" x1="65.428" y1="66.751" x2="62.817" y2="67.041"/>
	<line style="fill:none;stroke:#000000;stroke-miterlimit:1;" x1="62.817" y1="67.041" x2="59.916" y2="66.606"/>
	<line style="fill:none;stroke:#000000;stroke-miterlimit:1;" x1="59.916" y1="66.606" x2="55.855" y2="65.736"/>
	<line style="fill:none;stroke:#000000;stroke-miterlimit:1;" x1="55.855" y1="65.736" x2="52.375" y2="64.576"/>
	<line style="fill:none;stroke:#000000;stroke-miterlimit:1;" x1="52.375" y1="64.576" x2="49.039" y2="62.98"/>
	<line style="fill:none;stroke:#000000;stroke-miterlimit:1;" x1="49.039" y1="62.98" x2="40.917" y2="58.339"/>
	<line style="fill:none;stroke:#000000;stroke-miterlimit:1;" x1="26.269" y1="55.874" x2="25.398" y2="56.019"/>
	<line style="fill:none;stroke:#000000;stroke-miterlimit:1;" x1="25.398" y1="56.019" x2="24.673" y2="56.889"/>
	<line style="fill:none;stroke:#000000;stroke-miterlimit:1;" x1="24.673" y1="56.889" x2="24.673" y2="57.904"/>
	<line style="fill:none;stroke:#000000;stroke-miterlimit:1;" x1="24.673" y1="57.904" x2="25.398" y2="58.629"/>
	<line style="fill:none;stroke:#000000;stroke-miterlimit:1;" x1="25.398" y1="58.629" x2="26.414" y2="58.629"/>
	<line style="fill:none;stroke:#000000;stroke-miterlimit:1;" x1="26.414" y1="58.629" x2="27.429" y2="58.194"/>
	<line style="fill:none;stroke:#000000;stroke-miterlimit:1;" x1="27.429" y1="58.194" x2="27.574" y2="57.614"/>
	<line style="fill:none;stroke:#000000;stroke-miterlimit:1;" x1="27.574" y1="57.614" x2="27.284" y2="56.744"/>
	<line style="fill:none;stroke:#000000;stroke-miterlimit:1;" x1="27.284" y1="56.744" x2="26.559" y2="55.874"/>
	<line style="fill:none;stroke:#000000;stroke-miterlimit:1;" x1="22.081" y1="148.114" x2="30.783" y2="148.114"/>
	<line style="fill:none;stroke:#000000;stroke-miterlimit:1;" x1="30.783" y1="148.114" x2="30.638" y2="144.924"/>
	<line style="fill:none;stroke:#000000;stroke-miterlimit:1;" x1="30.638" y1="144.924" x2="31.508" y2="140.718"/>
	<line style="fill:none;stroke:#000000;stroke-miterlimit:1;" x1="31.508" y1="140.718" x2="32.378" y2="138.252"/>
	<line style="fill:none;stroke:#000000;stroke-miterlimit:1;" x1="32.378" y1="138.252" x2="34.119" y2="134.336"/>
	<line style="fill:none;stroke:#000000;stroke-miterlimit:1;" x1="34.119" y1="134.336" x2="42.096" y2="120.268"/>
	<line style="fill:none;stroke:#000000;stroke-miterlimit:1;" x1="42.096" y1="120.268" x2="42.53" y2="117.223"/>
	<line style="fill:none;stroke:#000000;stroke-miterlimit:1;" x1="42.53" y1="117.223" x2="42.676" y2="115.772"/>
	<line style="fill:none;stroke:#000000;stroke-miterlimit:1;" x1="42.676" y1="115.772" x2="42.386" y2="113.161"/>
	<line style="fill:none;stroke:#000000;stroke-miterlimit:1;" x1="42.386" y1="113.161" x2="41.95" y2="111.421"/>
	<line style="fill:none;stroke:#000000;stroke-miterlimit:1;" x1="41.95" y1="111.421" x2="41.226" y2="109.245"/>
	<line style="fill:none;stroke:#000000;stroke-miterlimit:1;" x1="41.226" y1="109.245" x2="39.92" y2="107.215"/>
	<line style="fill:none;stroke:#000000;stroke-miterlimit:1;" x1="39.92" y1="107.215" x2="38.904" y2="106.055"/>
	<line style="fill:none;stroke:#000000;stroke-miterlimit:1;" x1="38.904" y1="106.055" x2="36.294" y2="103.589"/>
	<line style="fill:none;stroke:#000000;stroke-miterlimit:1;" x1="36.294" y1="103.589" x2="34.264" y2="102.864"/>
	<line style="fill:none;stroke:#000000;stroke-miterlimit:1;" x1="34.264" y1="102.864" x2="30.058" y2="102.429"/>
	<line style="fill:none;stroke:#000000;stroke-miterlimit:1;" x1="30.058" y1="102.429" x2="26.577" y2="102.864"/>
	<line style="fill:none;stroke:#000000;stroke-miterlimit:1;" x1="26.577" y1="102.864" x2="25.126" y2="103.444"/>
	<line style="fill:none;stroke:#000000;stroke-miterlimit:1;" x1="25.126" y1="103.444" x2="23.386" y2="104.604"/>
	<line style="fill:none;stroke:#000000;stroke-miterlimit:1;" x1="23.386" y1="104.604" x2="21.791" y2="106.345"/>
	<line style="fill:none;stroke:#000000;stroke-miterlimit:1;" x1="21.791" y1="106.345" x2="21.066" y2="107.36"/>
	<line style="fill:none;stroke:#000000;stroke-miterlimit:1;" x1="21.066" y1="107.36" x2="20.341" y2="108.23"/>
	<line style="fill:none;stroke:#000000;stroke-miterlimit:1;" x1="19.905" y1="108.375" x2="18.6" y2="108.955"/>
	<line style="fill:none;stroke:#000000;stroke-miterlimit:1;" x1="18.6" y1="108.955" x2="4.387" y2="111.711"/>
	<line style="fill:none;stroke:#000000;stroke-miterlimit:1;" x1="4.387" y1="111.711" x2="3.082" y2="112.727"/>
	<line style="fill:none;stroke:#000000;stroke-miterlimit:1;" x1="3.082" y1="112.727" x2="2.066" y2="113.451"/>
	<line style="fill:none;stroke:#000000;stroke-miterlimit:1;" x1="2.066" y1="113.451" x2="1.196" y2="115.047"/>
	<line style="fill:none;stroke:#000000;stroke-miterlimit:1;" x1="1.196" y1="115.047" x2="0.906" y2="117.367"/>
	<line style="fill:none;stroke:#000000;stroke-miterlimit:1;" x1="0.906" y1="117.367" x2="1.051" y2="117.947"/>
	<line style="fill:none;stroke:#000000;stroke-miterlimit:1;" x1="1.051" y1="117.947" x2="1.486" y2="118.237"/>
	<line style="fill:none;stroke:#000000;stroke-miterlimit:1;" x1="1.486" y1="118.237" x2="1.776" y2="118.237"/>
	<line style="fill:none;stroke:#000000;stroke-miterlimit:1;" x1="1.776" y1="118.237" x2="2.501" y2="117.947"/>
	<line style="fill:none;stroke:#000000;stroke-miterlimit:1;" x1="2.501" y1="117.947" x2="2.792" y2="116.643"/>
	<line style="fill:none;stroke:#000000;stroke-miterlimit:1;" x1="2.792" y1="116.643" x2="3.662" y2="115.337"/>
	<line style="fill:none;stroke:#000000;stroke-miterlimit:1;" x1="3.662" y1="115.337" x2="4.967" y2="114.177"/>
	<line style="fill:none;stroke:#000000;stroke-miterlimit:1;" x1="4.967" y1="114.177" x2="6.417" y2="113.741"/>
	<line style="fill:none;stroke:#000000;stroke-miterlimit:1;" x1="6.417" y1="113.741" x2="8.303" y2="113.161"/>
	<line style="fill:none;stroke:#000000;stroke-miterlimit:1;" x1="8.303" y1="113.161" x2="20.05" y2="111.566"/>
	<line style="fill:none;stroke:#000000;stroke-miterlimit:1;" x1="20.05" y1="111.566" x2="20.341" y2="111.421"/>
	<line style="fill:none;stroke:#000000;stroke-miterlimit:1;" x1="20.341" y1="111.421" x2="22.081" y2="111.711"/>
	<line style="fill:none;stroke:#000000;stroke-miterlimit:1;" x1="20.05" y1="108.375" x2="22.081" y2="111.856"/>
	<line style="fill:none;stroke:#000000;stroke-miterlimit:1;" x1="22.081" y1="111.856" x2="22.081" y2="113.741"/>
	<line style="fill:none;stroke:#000000;stroke-miterlimit:1;" x1="3.082" y1="116.497" x2="4.387" y2="115.627"/>
	<line style="fill:none;stroke:#000000;stroke-miterlimit:1;" x1="4.387" y1="115.627" x2="6.562" y2="115.047"/>
	<line style="fill:none;stroke:#000000;stroke-miterlimit:1;" x1="6.562" y1="115.047" x2="12.219" y2="114.467"/>
	<line style="fill:none;stroke:#000000;stroke-miterlimit:1;" x1="12.219" y1="114.467" x2="17.875" y2="113.741"/>
	<line style="fill:none;stroke:#000000;stroke-miterlimit:1;" x1="17.875" y1="113.741" x2="20.195" y2="113.741"/>
	<line style="fill:none;stroke:#000000;stroke-miterlimit:1;" x1="20.195" y1="113.741" x2="22.226" y2="113.741"/>
	<line style="fill:none;stroke:#000000;stroke-miterlimit:1;" x1="22.226" y1="113.741" x2="23.386" y2="113.887"/>
	<line style="fill:none;stroke:#000000;stroke-miterlimit:1;" x1="23.386" y1="113.887" x2="25.707" y2="114.467"/>
	<line style="fill:none;stroke:#000000;stroke-miterlimit:1;" x1="25.707" y1="114.467" x2="29.768" y2="115.191"/>
	<line style="fill:none;stroke:#000000;stroke-miterlimit:1;" x1="29.768" y1="115.191" x2="31.943" y2="115.337"/>
	<line style="fill:none;stroke:#000000;stroke-miterlimit:1;" x1="31.943" y1="115.337" x2="33.539" y2="115.191"/>
	<line style="fill:none;stroke:#000000;stroke-miterlimit:1;" x1="33.539" y1="115.191" x2="35.279" y2="114.757"/>
	<line style="fill:none;stroke:#000000;stroke-miterlimit:1;" x1="35.279" y1="114.757" x2="36.294" y2="115.337"/>
	<line style="fill:none;stroke:#000000;stroke-miterlimit:1;" x1="36.294" y1="115.337" x2="36.729" y2="116.062"/>
	<line style="fill:none;stroke:#000000;stroke-miterlimit:1;" x1="36.729" y1="116.062" x2="36.874" y2="117.803"/>
	<line style="fill:none;stroke:#000000;stroke-miterlimit:1;" x1="36.874" y1="117.803" x2="36.729" y2="119.253"/>
	<line style="fill:none;stroke:#000000;stroke-miterlimit:1;" x1="36.729" y1="119.253" x2="36.004" y2="120.993"/>
	<line style="fill:none;stroke:#000000;stroke-miterlimit:1;" x1="36.004" y1="120.993" x2="29.623" y2="129.405"/>
	<line style="fill:none;stroke:#000000;stroke-miterlimit:1;" x1="29.623" y1="129.405" x2="26.432" y2="134.481"/>
	<line style="fill:none;stroke:#000000;stroke-miterlimit:1;" x1="26.432" y1="134.481" x2="25.126" y2="137.092"/>
	<line style="fill:none;stroke:#000000;stroke-miterlimit:1;" x1="25.126" y1="137.092" x2="23.531" y2="140.138"/>
	<line style="fill:none;stroke:#000000;stroke-miterlimit:1;" x1="23.531" y1="140.138" x2="22.661" y2="144.054"/>
	<line style="fill:none;stroke:#000000;stroke-miterlimit:1;" x1="22.661" y1="144.054" x2="22.081" y2="148.114"/>
	<line style="fill:none;stroke:#000000;stroke-miterlimit:1;" x1="34.554" y1="103.009" x2="42.096" y2="105.765"/>
	<line style="fill:none;stroke:#000000;stroke-miterlimit:1;" x1="42.096" y1="105.765" x2="49.492" y2="107.65"/>
	<line style="fill:none;stroke:#000000;stroke-miterlimit:1;" x1="49.492" y1="107.65" x2="52.538" y2="108.23"/>
	<line style="fill:none;stroke:#000000;stroke-miterlimit:1;" x1="52.538" y1="108.23" x2="55.148" y2="108.375"/>
	<line style="fill:none;stroke:#000000;stroke-miterlimit:1;" x1="55.148" y1="108.375" x2="58.339" y2="108.375"/>
	<line style="fill:none;stroke:#000000;stroke-miterlimit:1;" x1="58.339" y1="108.375" x2="61.819" y2="108.23"/>
	<line style="fill:none;stroke:#000000;stroke-miterlimit:1;" x1="61.819" y1="108.23" x2="64.431" y2="107.65"/>
	<line style="fill:none;stroke:#000000;stroke-miterlimit:1;" x1="64.431" y1="107.65" x2="67.041" y2="107.07"/>
	<line style="fill:none;stroke:#000000;stroke-miterlimit:1;" x1="67.041" y1="107.07" x2="67.331" y2="107.36"/>
	<line style="fill:none;stroke:#000000;stroke-miterlimit:1;" x1="67.331" y1="107.36" x2="67.041" y2="108.375"/>
	<line style="fill:none;stroke:#000000;stroke-miterlimit:1;" x1="67.041" y1="108.375" x2="66.025" y2="109.101"/>
	<line style="fill:none;stroke:#000000;stroke-miterlimit:1;" x1="66.025" y1="109.101" x2="62.545" y2="109.825"/>
	<line style="fill:none;stroke:#000000;stroke-miterlimit:1;" x1="62.545" y1="109.825" x2="59.064" y2="110.261"/>
	<line style="fill:none;stroke:#000000;stroke-miterlimit:1;" x1="59.064" y1="110.261" x2="55.148" y2="110.261"/>
	<line style="fill:none;stroke:#000000;stroke-miterlimit:1;" x1="55.148" y1="110.261" x2="51.812" y2="109.971"/>
	<line style="fill:none;stroke:#000000;stroke-miterlimit:1;" x1="51.812" y1="109.971" x2="46.156" y2="108.955"/>
	<line style="fill:none;stroke:#000000;stroke-miterlimit:1;" x1="46.156" y1="108.955" x2="42.966" y2="107.94"/>
	<line style="fill:none;stroke:#000000;stroke-miterlimit:1;" x1="38.904" y1="105.765" x2="44.561" y2="108.811"/>
	<line style="fill:none;stroke:#000000;stroke-miterlimit:1;" x1="44.561" y1="108.811" x2="50.217" y2="111.711"/>
	<line style="fill:none;stroke:#000000;stroke-miterlimit:1;" x1="50.217" y1="111.711" x2="53.698" y2="113.451"/>
	<line style="fill:none;stroke:#000000;stroke-miterlimit:1;" x1="53.698" y1="113.451" x2="56.309" y2="114.467"/>
	<line style="fill:none;stroke:#000000;stroke-miterlimit:1;" x1="56.309" y1="114.467" x2="59.209" y2="115.191"/>
	<line style="fill:none;stroke:#000000;stroke-miterlimit:1;" x1="59.209" y1="115.191" x2="61.239" y2="115.482"/>
	<line style="fill:none;stroke:#000000;stroke-miterlimit:1;" x1="61.239" y1="115.482" x2="65.011" y2="115.917"/>
	<line style="fill:none;stroke:#000000;stroke-miterlimit:1;" x1="65.011" y1="115.917" x2="66.605" y2="115.627"/>
	<line style="fill:none;stroke:#000000;stroke-miterlimit:1;" x1="66.605" y1="115.627" x2="67.331" y2="115.482"/>
	<line style="fill:none;stroke:#000000;stroke-miterlimit:1;" x1="67.331" y1="115.482" x2="67.911" y2="115.917"/>
	<line style="fill:none;stroke:#000000;stroke-miterlimit:1;" x1="67.911" y1="115.917" x2="68.057" y2="116.787"/>
	<line style="fill:none;stroke:#000000;stroke-miterlimit:1;" x1="68.057" y1="116.787" x2="65.881" y2="117.513"/>
	<line style="fill:none;stroke:#000000;stroke-miterlimit:1;" x1="65.881" y1="117.513" x2="63.271" y2="117.803"/>
	<line style="fill:none;stroke:#000000;stroke-miterlimit:1;" x1="63.271" y1="117.803" x2="60.369" y2="117.367"/>
	<line style="fill:none;stroke:#000000;stroke-miterlimit:1;" x1="60.369" y1="117.367" x2="56.309" y2="116.497"/>
	<line style="fill:none;stroke:#000000;stroke-miterlimit:1;" x1="56.309" y1="116.497" x2="52.828" y2="115.337"/>
	<line style="fill:none;stroke:#000000;stroke-miterlimit:1;" x1="52.828" y1="115.337" x2="49.492" y2="113.741"/>
	<line style="fill:none;stroke:#000000;stroke-miterlimit:1;" x1="49.492" y1="113.741" x2="41.37" y2="109.101"/>
	<line style="fill:none;stroke:#000000;stroke-miterlimit:1;" x1="26.722" y1="106.635" x2="25.852" y2="106.78"/>
	<line style="fill:none;stroke:#000000;stroke-miterlimit:1;" x1="25.852" y1="106.78" x2="25.126" y2="107.65"/>
	<line style="fill:none;stroke:#000000;stroke-miterlimit:1;" x1="25.126" y1="107.65" x2="25.126" y2="108.665"/>
	<line style="fill:none;stroke:#000000;stroke-miterlimit:1;" x1="25.126" y1="108.665" x2="25.852" y2="109.391"/>
	<line style="fill:none;stroke:#000000;stroke-miterlimit:1;" x1="25.852" y1="109.391" x2="26.867" y2="109.391"/>
	<line style="fill:none;stroke:#000000;stroke-miterlimit:1;" x1="26.867" y1="109.391" x2="27.882" y2="108.955"/>
	<line style="fill:none;stroke:#000000;stroke-miterlimit:1;" x1="27.882" y1="108.955" x2="28.027" y2="108.375"/>
	<line style="fill:none;stroke:#000000;stroke-miterlimit:1;" x1="28.027" y1="108.375" x2="27.737" y2="107.505"/>
	<line style="fill:none;stroke:#000000;stroke-miterlimit:1;" x1="27.737" y1="107.505" x2="27.012" y2="106.635"/>
</g>
</svg>
