<?xml version="1.0" encoding="iso-8859-1"?>
<!-- Generator: Adobe Illustrator 16.0.1, SVG Export Plug-In . SVG Version: 6.00 Build 0)  -->
<!DOCTYPE svg PUBLIC "-//W3C//DTD SVG 1.1//EN" "http://www.w3.org/Graphics/SVG/1.1/DTD/svg11.dtd">
<svg version="1.1" id="Ebene_1" xmlns="http://www.w3.org/2000/svg" xmlns:xlink="http://www.w3.org/1999/xlink" x="0px" y="0px"
	 width="336.451px" height="148.115px" viewBox="0 0 336.451 148.115" style="enable-background:new 0 0 336.451 148.115;"
	 xml:space="preserve">
<g>
	<line style="fill:none;stroke:#000000;stroke-miterlimit:1;" x1="119.52" y1="37.522" x2="115.57" y2="41.801"/>
	<line style="fill:none;stroke:#000000;stroke-miterlimit:1;" x1="115.57" y1="41.801" x2="114.254" y2="47.067"/>
	<line style="fill:none;stroke:#000000;stroke-miterlimit:1;" x1="114.254" y1="47.067" x2="115.241" y2="52.334"/>
	<line style="fill:none;stroke:#000000;stroke-miterlimit:1;" x1="115.241" y1="52.334" x2="117.545" y2="56.284"/>
	<line style="fill:none;stroke:#000000;stroke-miterlimit:1;" x1="117.545" y1="56.284" x2="123.799" y2="62.208"/>
	<line style="fill:none;stroke:#000000;stroke-miterlimit:1;" x1="123.799" y1="62.208" x2="134.661" y2="68.133"/>
	<line style="fill:none;stroke:#000000;stroke-miterlimit:1;" x1="134.661" y1="68.133" x2="153.422" y2="75.045"/>
	<line style="fill:none;stroke:#000000;stroke-miterlimit:1;" x1="153.422" y1="75.045" x2="175.804" y2="79.652"/>
	<line style="fill:none;stroke:#000000;stroke-miterlimit:1;" x1="175.804" y1="79.652" x2="198.186" y2="82.285"/>
	<line style="fill:none;stroke:#000000;stroke-miterlimit:1;" x1="198.186" y1="82.285" x2="205.427" y2="82.943"/>
	<line style="fill:none;stroke:#000000;stroke-miterlimit:1;" x1="205.427" y1="82.943" x2="210.034" y2="83.273"/>
	<line style="fill:none;stroke:#000000;stroke-miterlimit:1;" x1="210.034" y1="83.273" x2="212.338" y2="82.615"/>
	<line style="fill:none;stroke:#000000;stroke-miterlimit:1;" x1="212.338" y1="82.615" x2="213.655" y2="81.299"/>
	<line style="fill:none;stroke:#000000;stroke-miterlimit:1;" x1="213.655" y1="81.299" x2="213.655" y2="79.652"/>
	<line style="fill:none;stroke:#000000;stroke-miterlimit:1;" x1="213.655" y1="79.652" x2="212.009" y2="78.336"/>
	<line style="fill:none;stroke:#000000;stroke-miterlimit:1;" x1="212.009" y1="78.336" x2="203.122" y2="76.691"/>
	<line style="fill:none;stroke:#000000;stroke-miterlimit:1;" x1="203.122" y1="76.691" x2="197.527" y2="74.057"/>
	<line style="fill:none;stroke:#000000;stroke-miterlimit:1;" x1="197.527" y1="74.057" x2="194.235" y2="71.753"/>
	<line style="fill:none;stroke:#000000;stroke-miterlimit:1;" x1="194.235" y1="71.753" x2="186.336" y2="65.17"/>
	<line style="fill:none;stroke:#000000;stroke-miterlimit:1;" x1="186.336" y1="65.17" x2="174.487" y2="54.309"/>
	<line style="fill:none;stroke:#000000;stroke-miterlimit:1;" x1="174.487" y1="54.309" x2="162.638" y2="45.093"/>
	<line style="fill:none;stroke:#000000;stroke-miterlimit:1;" x1="162.638" y1="45.093" x2="151.776" y2="39.168"/>
	<line style="fill:none;stroke:#000000;stroke-miterlimit:1;" x1="151.776" y1="39.168" x2="141.244" y2="34.889"/>
	<line style="fill:none;stroke:#000000;stroke-miterlimit:1;" x1="141.244" y1="34.889" x2="133.344" y2="32.585"/>
	<line style="fill:none;stroke:#000000;stroke-miterlimit:1;" x1="133.344" y1="32.585" x2="126.432" y2="32.256"/>
	<line style="fill:none;stroke:#000000;stroke-miterlimit:1;" x1="126.432" y1="32.256" x2="120.507" y2="33.573"/>
	<line style="fill:none;stroke:#000000;stroke-miterlimit:1;" x1="120.507" y1="33.573" x2="115.899" y2="35.876"/>
	<line style="fill:none;stroke:#000000;stroke-miterlimit:1;" x1="115.899" y1="35.876" x2="112.608" y2="37.852"/>
	<line style="fill:none;stroke:#000000;stroke-miterlimit:1;" x1="112.608" y1="37.852" x2="110.962" y2="39.497"/>
	<line style="fill:none;stroke:#000000;stroke-miterlimit:1;" x1="110.962" y1="39.497" x2="108.658" y2="39.827"/>
	<line style="fill:none;stroke:#000000;stroke-miterlimit:1;" x1="108.658" y1="39.827" x2="106.025" y2="39.168"/>
	<line style="fill:none;stroke:#000000;stroke-miterlimit:1;" x1="106.025" y1="39.168" x2="105.696" y2="36.864"/>
	<line style="fill:none;stroke:#000000;stroke-miterlimit:1;" x1="105.696" y1="36.864" x2="118.533" y2="26.332"/>
	<line style="fill:none;stroke:#000000;stroke-miterlimit:1;" x1="118.533" y1="26.332" x2="121.166" y2="23.369"/>
	<line style="fill:none;stroke:#000000;stroke-miterlimit:1;" x1="121.166" y1="23.369" x2="122.812" y2="19.749"/>
	<line style="fill:none;stroke:#000000;stroke-miterlimit:1;" x1="122.812" y1="19.749" x2="123.141" y2="16.458"/>
	<line style="fill:none;stroke:#000000;stroke-miterlimit:1;" x1="123.141" y1="16.458" x2="122.812" y2="13.495"/>
	<line style="fill:none;stroke:#000000;stroke-miterlimit:1;" x1="119.849" y1="11.191" x2="133.344" y2="17.445"/>
	<line style="fill:none;stroke:#000000;stroke-miterlimit:1;" x1="133.344" y1="17.445" x2="147.497" y2="22.711"/>
	<line style="fill:none;stroke:#000000;stroke-miterlimit:1;" x1="147.497" y1="22.711" x2="160.005" y2="25.344"/>
	<line style="fill:none;stroke:#000000;stroke-miterlimit:1;" x1="160.005" y1="25.344" x2="173.17" y2="26.332"/>
	<line style="fill:none;stroke:#000000;stroke-miterlimit:1;" x1="173.17" y1="26.332" x2="183.045" y2="26.661"/>
	<line style="fill:none;stroke:#000000;stroke-miterlimit:1;" x1="183.045" y1="26.661" x2="190.286" y2="25.673"/>
	<line style="fill:none;stroke:#000000;stroke-miterlimit:1;" x1="190.286" y1="25.673" x2="180.082" y2="24.027"/>
	<line style="fill:none;stroke:#000000;stroke-miterlimit:1;" x1="180.082" y1="24.027" x2="168.562" y2="23.04"/>
	<line style="fill:none;stroke:#000000;stroke-miterlimit:1;" x1="168.562" y1="23.04" x2="155.726" y2="21.065"/>
	<line style="fill:none;stroke:#000000;stroke-miterlimit:1;" x1="155.726" y1="21.065" x2="146.51" y2="18.432"/>
	<line style="fill:none;stroke:#000000;stroke-miterlimit:1;" x1="146.51" y1="18.432" x2="135.319" y2="14.482"/>
	<line style="fill:none;stroke:#000000;stroke-miterlimit:1;" x1="135.319" y1="14.482" x2="126.761" y2="10.862"/>
	<line style="fill:none;stroke:#000000;stroke-miterlimit:1;" x1="126.761" y1="10.862" x2="121.495" y2="7.241"/>
	<line style="fill:none;stroke:#000000;stroke-miterlimit:1;" x1="121.495" y1="7.241" x2="139.269" y2="14.153"/>
	<line style="fill:none;stroke:#000000;stroke-miterlimit:1;" x1="139.269" y1="14.153" x2="150.459" y2="16.128"/>
	<line style="fill:none;stroke:#000000;stroke-miterlimit:1;" x1="150.459" y1="16.128" x2="156.384" y2="17.116"/>
	<line style="fill:none;stroke:#000000;stroke-miterlimit:1;" x1="156.384" y1="17.116" x2="168.892" y2="18.103"/>
	<line style="fill:none;stroke:#000000;stroke-miterlimit:1;" x1="168.892" y1="18.103" x2="180.411" y2="17.445"/>
	<line style="fill:none;stroke:#000000;stroke-miterlimit:1;" x1="180.411" y1="17.445" x2="187.323" y2="16.787"/>
	<line style="fill:none;stroke:#000000;stroke-miterlimit:1;" x1="187.323" y1="16.787" x2="192.919" y2="16.458"/>
	<line style="fill:none;stroke:#000000;stroke-miterlimit:1;" x1="192.919" y1="16.458" x2="180.74" y2="15.47"/>
	<line style="fill:none;stroke:#000000;stroke-miterlimit:1;" x1="180.74" y1="15.47" x2="170.208" y2="14.482"/>
	<line style="fill:none;stroke:#000000;stroke-miterlimit:1;" x1="170.208" y1="14.482" x2="160.005" y2="14.153"/>
	<line style="fill:none;stroke:#000000;stroke-miterlimit:1;" x1="160.005" y1="14.153" x2="151.118" y2="12.837"/>
	<line style="fill:none;stroke:#000000;stroke-miterlimit:1;" x1="151.118" y1="12.837" x2="140.256" y2="10.533"/>
	<line style="fill:none;stroke:#000000;stroke-miterlimit:1;" x1="140.256" y1="10.533" x2="130.382" y2="7.57"/>
	<line style="fill:none;stroke:#000000;stroke-miterlimit:1;" x1="130.382" y1="7.57" x2="123.799" y2="4.608"/>
	<line style="fill:none;stroke:#000000;stroke-miterlimit:1;" x1="123.799" y1="4.608" x2="119.191" y2="1.646"/>
	<line style="fill:none;stroke:#000000;stroke-miterlimit:1;" x1="119.191" y1="1.646" x2="115.57" y2="0.329"/>
	<line style="fill:none;stroke:#000000;stroke-miterlimit:1;" x1="115.57" y1="0.329" x2="112.279" y2="0"/>
	<line style="fill:none;stroke:#000000;stroke-miterlimit:1;" x1="112.279" y1="0" x2="105.038" y2="0.988"/>
	<line style="fill:none;stroke:#000000;stroke-miterlimit:1;" x1="105.038" y1="0.988" x2="99.442" y2="2.962"/>
	<line style="fill:none;stroke:#000000;stroke-miterlimit:1;" x1="99.442" y1="2.962" x2="97.138" y2="4.608"/>
	<line style="fill:none;stroke:#000000;stroke-miterlimit:1;" x1="97.138" y1="4.608" x2="95.822" y2="6.912"/>
	<line style="fill:none;stroke:#000000;stroke-miterlimit:1;" x1="95.822" y1="6.912" x2="95.493" y2="7.57"/>
	<line style="fill:none;stroke:#000000;stroke-miterlimit:1;" x1="95.493" y1="7.57" x2="95.493" y2="10.204"/>
	<line style="fill:none;stroke:#000000;stroke-miterlimit:1;" x1="95.493" y1="10.204" x2="97.138" y2="12.837"/>
	<line style="fill:none;stroke:#000000;stroke-miterlimit:1;" x1="97.138" y1="12.837" x2="99.113" y2="13.495"/>
	<line style="fill:none;stroke:#000000;stroke-miterlimit:1;" x1="99.113" y1="13.495" x2="101.088" y2="14.153"/>
	<line style="fill:none;stroke:#000000;stroke-miterlimit:1;" x1="101.088" y1="14.153" x2="104.708" y2="15.141"/>
	<line style="fill:none;stroke:#000000;stroke-miterlimit:1;" x1="104.708" y1="15.141" x2="108.658" y2="15.141"/>
	<line style="fill:none;stroke:#000000;stroke-miterlimit:1;" x1="108.658" y1="15.141" x2="110.962" y2="14.153"/>
	<line style="fill:none;stroke:#000000;stroke-miterlimit:1;" x1="110.962" y1="14.153" x2="112.937" y2="13.824"/>
	<line style="fill:none;stroke:#000000;stroke-miterlimit:1;" x1="112.937" y1="13.824" x2="113.925" y2="15.47"/>
	<line style="fill:none;stroke:#000000;stroke-miterlimit:1;" x1="113.925" y1="15.47" x2="114.254" y2="18.432"/>
	<line style="fill:none;stroke:#000000;stroke-miterlimit:1;" x1="114.254" y1="18.432" x2="110.633" y2="22.711"/>
	<line style="fill:none;stroke:#000000;stroke-miterlimit:1;" x1="110.633" y1="22.711" x2="104.708" y2="26.99"/>
	<line style="fill:none;stroke:#000000;stroke-miterlimit:1;" x1="104.708" y1="26.99" x2="99.113" y2="32.256"/>
	<line style="fill:none;stroke:#000000;stroke-miterlimit:1;" x1="99.113" y1="32.256" x2="96.48" y2="35.876"/>
	<line style="fill:none;stroke:#000000;stroke-miterlimit:1;" x1="96.48" y1="35.876" x2="94.505" y2="38.839"/>
	<line style="fill:none;stroke:#000000;stroke-miterlimit:1;" x1="94.505" y1="38.839" x2="93.518" y2="44.105"/>
	<line style="fill:none;stroke:#000000;stroke-miterlimit:1;" x1="93.518" y1="44.105" x2="94.176" y2="47.067"/>
	<line style="fill:none;stroke:#000000;stroke-miterlimit:1;" x1="94.176" y1="47.067" x2="98.126" y2="52.992"/>
	<line style="fill:none;stroke:#000000;stroke-miterlimit:1;" x1="98.126" y1="52.992" x2="108.329" y2="64.183"/>
	<line style="fill:none;stroke:#000000;stroke-miterlimit:1;" x1="108.329" y1="64.183" x2="114.583" y2="69.778"/>
	<line style="fill:none;stroke:#000000;stroke-miterlimit:1;" x1="114.583" y1="69.778" x2="121.824" y2="75.045"/>
	<line style="fill:none;stroke:#000000;stroke-miterlimit:1;" x1="121.824" y1="75.045" x2="132.356" y2="79.652"/>
	<line style="fill:none;stroke:#000000;stroke-miterlimit:1;" x1="132.356" y1="79.652" x2="138.61" y2="88.869"/>
	<line style="fill:none;stroke:#000000;stroke-miterlimit:1;" x1="138.61" y1="88.869" x2="145.193" y2="96.439"/>
	<line style="fill:none;stroke:#000000;stroke-miterlimit:1;" x1="145.193" y1="96.439" x2="149.472" y2="101.047"/>
	<line style="fill:none;stroke:#000000;stroke-miterlimit:1;" x1="149.472" y1="101.047" x2="150.789" y2="104.01"/>
	<line style="fill:none;stroke:#000000;stroke-miterlimit:1;" x1="150.789" y1="104.01" x2="152.764" y2="125.404"/>
	<line style="fill:none;stroke:#000000;stroke-miterlimit:1;" x1="152.764" y1="125.404" x2="152.764" y2="139.229"/>
	<line style="fill:none;stroke:#000000;stroke-miterlimit:1;" x1="152.764" y1="139.229" x2="152.105" y2="141.531"/>
	<line style="fill:none;stroke:#000000;stroke-miterlimit:1;" x1="152.105" y1="141.531" x2="149.801" y2="142.189"/>
	<line style="fill:none;stroke:#000000;stroke-miterlimit:1;" x1="149.801" y1="142.189" x2="135.648" y2="144.164"/>
	<line style="fill:none;stroke:#000000;stroke-miterlimit:1;" x1="135.648" y1="144.164" x2="134.661" y2="144.494"/>
	<line style="fill:none;stroke:#000000;stroke-miterlimit:1;" x1="134.661" y1="144.494" x2="132.686" y2="144.822"/>
	<line style="fill:none;stroke:#000000;stroke-miterlimit:1;" x1="132.686" y1="144.822" x2="131.698" y2="146.139"/>
	<line style="fill:none;stroke:#000000;stroke-miterlimit:1;" x1="131.698" y1="146.139" x2="131.698" y2="148.115"/>
	<line style="fill:none;stroke:#000000;stroke-miterlimit:1;" x1="131.698" y1="148.115" x2="133.673" y2="147.127"/>
	<line style="fill:none;stroke:#000000;stroke-miterlimit:1;" x1="133.673" y1="147.127" x2="135.977" y2="147.785"/>
	<line style="fill:none;stroke:#000000;stroke-miterlimit:1;" x1="145.522" y1="144.164" x2="137.294" y2="145.48"/>
	<line style="fill:none;stroke:#000000;stroke-miterlimit:1;" x1="137.294" y1="145.48" x2="135.977" y2="146.469"/>
	<line style="fill:none;stroke:#000000;stroke-miterlimit:1;" x1="135.977" y1="146.469" x2="136.306" y2="148.115"/>
	<line style="fill:none;stroke:#000000;stroke-miterlimit:1;" x1="136.306" y1="148.115" x2="138.939" y2="146.799"/>
	<line style="fill:none;stroke:#000000;stroke-miterlimit:1;" x1="138.939" y1="146.799" x2="140.915" y2="148.115"/>
	<line style="fill:none;stroke:#000000;stroke-miterlimit:1;" x1="140.915" y1="148.115" x2="154.08" y2="146.469"/>
	<line style="fill:none;stroke:#000000;stroke-miterlimit:1;" x1="154.08" y1="146.469" x2="164.284" y2="148.115"/>
	<line style="fill:none;stroke:#000000;stroke-miterlimit:1;" x1="164.284" y1="148.115" x2="164.613" y2="146.469"/>
	<line style="fill:none;stroke:#000000;stroke-miterlimit:1;" x1="164.613" y1="146.469" x2="163.954" y2="144.822"/>
	<line style="fill:none;stroke:#000000;stroke-miterlimit:1;" x1="163.954" y1="144.822" x2="161.321" y2="144.164"/>
	<line style="fill:none;stroke:#000000;stroke-miterlimit:1;" x1="161.321" y1="144.164" x2="158.359" y2="143.178"/>
	<line style="fill:none;stroke:#000000;stroke-miterlimit:1;" x1="158.359" y1="143.178" x2="157.372" y2="142.848"/>
	<line style="fill:none;stroke:#000000;stroke-miterlimit:1;" x1="157.372" y1="142.848" x2="156.384" y2="140.873"/>
	<line style="fill:none;stroke:#000000;stroke-miterlimit:1;" x1="156.384" y1="140.873" x2="156.055" y2="106.971"/>
	<line style="fill:none;stroke:#000000;stroke-miterlimit:1;" x1="156.055" y1="106.971" x2="156.713" y2="103.021"/>
	<line style="fill:none;stroke:#000000;stroke-miterlimit:1;" x1="156.713" y1="103.021" x2="156.713" y2="101.705"/>
	<line style="fill:none;stroke:#000000;stroke-miterlimit:1;" x1="156.713" y1="101.705" x2="154.409" y2="97.426"/>
	<line style="fill:none;stroke:#000000;stroke-miterlimit:1;" x1="154.409" y1="97.426" x2="152.105" y2="93.477"/>
	<line style="fill:none;stroke:#000000;stroke-miterlimit:1;" x1="152.105" y1="93.477" x2="144.535" y2="81.299"/>
	<line style="fill:none;stroke:#000000;stroke-miterlimit:1;" x1="147.497" y1="84.92" x2="159.346" y2="86.236"/>
	<line style="fill:none;stroke:#000000;stroke-miterlimit:1;" x1="159.346" y1="86.236" x2="169.221" y2="85.906"/>
	<line style="fill:none;stroke:#000000;stroke-miterlimit:1;" x1="169.221" y1="85.906" x2="181.729" y2="84.59"/>
	<line style="fill:none;stroke:#000000;stroke-miterlimit:1;" x1="181.729" y1="84.59" x2="187.981" y2="90.186"/>
	<line style="fill:none;stroke:#000000;stroke-miterlimit:1;" x1="187.981" y1="90.186" x2="195.552" y2="97.098"/>
	<line style="fill:none;stroke:#000000;stroke-miterlimit:1;" x1="195.552" y1="97.098" x2="199.173" y2="97.426"/>
	<line style="fill:none;stroke:#000000;stroke-miterlimit:1;" x1="199.173" y1="97.426" x2="202.793" y2="96.439"/>
	<line style="fill:none;stroke:#000000;stroke-miterlimit:1;" x1="202.793" y1="96.439" x2="206.743" y2="93.148"/>
	<line style="fill:none;stroke:#000000;stroke-miterlimit:1;" x1="206.743" y1="93.148" x2="207.401" y2="90.514"/>
	<line style="fill:none;stroke:#000000;stroke-miterlimit:1;" x1="207.401" y1="90.514" x2="199.502" y2="82.285"/>
	<line style="fill:none;stroke:#000000;stroke-miterlimit:1;" x1="95.493" y1="7.241" x2="66.857" y2="24.686"/>
	<line style="fill:none;stroke:#000000;stroke-miterlimit:1;" x1="66.857" y1="24.686" x2="99.771" y2="13.824"/>
	<line style="fill:none;stroke:#000000;stroke-miterlimit:1;" x1="95.822" y1="11.849" x2="66.857" y2="24.686"/>
	<line style="fill:none;stroke:#000000;stroke-miterlimit:1;" x1="102.076" y1="6.583" x2="100.43" y2="7.57"/>
	<line style="fill:none;stroke:#000000;stroke-miterlimit:1;" x1="100.43" y1="7.57" x2="101.417" y2="9.216"/>
	<line style="fill:none;stroke:#000000;stroke-miterlimit:1;" x1="101.417" y1="9.216" x2="103.063" y2="8.558"/>
	<line style="fill:none;stroke:#000000;stroke-miterlimit:1;" x1="103.063" y1="8.558" x2="102.405" y2="7.241"/>
	<line style="fill:none;stroke:#000000;stroke-miterlimit:1;" x1="165.271" y1="145.152" x2="167.904" y2="145.811"/>
	<line style="fill:none;stroke:#000000;stroke-miterlimit:1;" x1="167.904" y1="145.811" x2="169.221" y2="146.799"/>
	<line style="fill:none;stroke:#000000;stroke-miterlimit:1;" x1="169.221" y1="146.799" x2="169.55" y2="147.457"/>
	<line style="fill:none;stroke:#000000;stroke-miterlimit:1;" x1="169.55" y1="147.457" x2="167.904" y2="148.115"/>
	<line style="fill:none;stroke:#000000;stroke-miterlimit:1;" x1="167.904" y1="148.115" x2="165.6" y2="147.785"/>
	<line style="fill:none;stroke:#000000;stroke-miterlimit:1;" x1="115.899" y1="71.095" x2="122.812" y2="84.26"/>
	<line style="fill:none;stroke:#000000;stroke-miterlimit:1;" x1="122.812" y1="84.26" x2="130.711" y2="96.109"/>
	<line style="fill:none;stroke:#000000;stroke-miterlimit:1;" x1="130.711" y1="96.109" x2="131.369" y2="99.072"/>
	<line style="fill:none;stroke:#000000;stroke-miterlimit:1;" x1="131.369" y1="99.072" x2="109.975" y2="137.582"/>
	<line style="fill:none;stroke:#000000;stroke-miterlimit:1;" x1="109.975" y1="137.582" x2="108.987" y2="139.229"/>
	<line style="fill:none;stroke:#000000;stroke-miterlimit:1;" x1="108.987" y1="139.229" x2="108" y2="140.873"/>
	<line style="fill:none;stroke:#000000;stroke-miterlimit:1;" x1="108" y1="140.873" x2="105.696" y2="141.531"/>
	<line style="fill:none;stroke:#000000;stroke-miterlimit:1;" x1="105.696" y1="141.531" x2="97.797" y2="142.848"/>
	<line style="fill:none;stroke:#000000;stroke-miterlimit:1;" x1="97.797" y1="142.848" x2="92.53" y2="143.836"/>
	<line style="fill:none;stroke:#000000;stroke-miterlimit:1;" x1="92.53" y1="143.836" x2="90.556" y2="144.822"/>
	<line style="fill:none;stroke:#000000;stroke-miterlimit:1;" x1="90.556" y1="144.822" x2="89.239" y2="145.152"/>
	<line style="fill:none;stroke:#000000;stroke-miterlimit:1;" x1="89.239" y1="145.152" x2="87.264" y2="145.48"/>
	<line style="fill:none;stroke:#000000;stroke-miterlimit:1;" x1="87.264" y1="145.48" x2="86.606" y2="146.139"/>
	<line style="fill:none;stroke:#000000;stroke-miterlimit:1;" x1="86.606" y1="146.139" x2="85.947" y2="147.785"/>
	<line style="fill:none;stroke:#000000;stroke-miterlimit:1;" x1="85.947" y1="147.785" x2="87.922" y2="146.799"/>
	<line style="fill:none;stroke:#000000;stroke-miterlimit:1;" x1="87.922" y1="146.799" x2="90.227" y2="147.785"/>
	<line style="fill:none;stroke:#000000;stroke-miterlimit:1;" x1="93.847" y1="145.811" x2="92.53" y2="145.811"/>
	<line style="fill:none;stroke:#000000;stroke-miterlimit:1;" x1="92.53" y1="145.811" x2="90.885" y2="146.139"/>
	<line style="fill:none;stroke:#000000;stroke-miterlimit:1;" x1="90.885" y1="146.139" x2="90.227" y2="147.457"/>
	<line style="fill:none;stroke:#000000;stroke-miterlimit:1;" x1="90.227" y1="147.457" x2="90.885" y2="147.785"/>
	<line style="fill:none;stroke:#000000;stroke-miterlimit:1;" x1="90.885" y1="147.785" x2="92.859" y2="147.127"/>
	<line style="fill:none;stroke:#000000;stroke-miterlimit:1;" x1="94.176" y1="145.48" x2="96.48" y2="144.822"/>
	<line style="fill:none;stroke:#000000;stroke-miterlimit:1;" x1="96.48" y1="144.822" x2="101.747" y2="144.494"/>
	<line style="fill:none;stroke:#000000;stroke-miterlimit:1;" x1="93.188" y1="147.127" x2="95.822" y2="148.115"/>
	<line style="fill:none;stroke:#000000;stroke-miterlimit:1;" x1="95.822" y1="148.115" x2="108" y2="146.799"/>
	<line style="fill:none;stroke:#000000;stroke-miterlimit:1;" x1="108" y1="146.799" x2="109.975" y2="146.469"/>
	<line style="fill:none;stroke:#000000;stroke-miterlimit:1;" x1="109.975" y1="146.469" x2="119.849" y2="148.115"/>
	<line style="fill:none;stroke:#000000;stroke-miterlimit:1;" x1="119.849" y1="148.115" x2="120.178" y2="146.469"/>
	<line style="fill:none;stroke:#000000;stroke-miterlimit:1;" x1="120.178" y1="146.469" x2="119.849" y2="144.822"/>
	<line style="fill:none;stroke:#000000;stroke-miterlimit:1;" x1="119.849" y1="144.822" x2="116.887" y2="144.164"/>
	<line style="fill:none;stroke:#000000;stroke-miterlimit:1;" x1="116.887" y1="144.164" x2="112.937" y2="142.848"/>
	<line style="fill:none;stroke:#000000;stroke-miterlimit:1;" x1="112.608" y1="142.52" x2="112.279" y2="140.873"/>
	<line style="fill:none;stroke:#000000;stroke-miterlimit:1;" x1="112.279" y1="140.873" x2="132.686" y2="106.971"/>
	<line style="fill:none;stroke:#000000;stroke-miterlimit:1;" x1="132.686" y1="106.971" x2="137.623" y2="98.084"/>
	<line style="fill:none;stroke:#000000;stroke-miterlimit:1;" x1="137.623" y1="98.084" x2="137.623" y2="95.123"/>
	<line style="fill:none;stroke:#000000;stroke-miterlimit:1;" x1="137.623" y1="95.123" x2="134.002" y2="82.615"/>
	<line style="fill:none;stroke:#000000;stroke-miterlimit:1;" x1="120.836" y1="145.152" x2="123.141" y2="145.811"/>
	<line style="fill:none;stroke:#000000;stroke-miterlimit:1;" x1="123.141" y1="145.811" x2="124.457" y2="146.799"/>
	<line style="fill:none;stroke:#000000;stroke-miterlimit:1;" x1="124.457" y1="146.799" x2="124.786" y2="147.457"/>
	<line style="fill:none;stroke:#000000;stroke-miterlimit:1;" x1="124.786" y1="147.457" x2="123.141" y2="148.115"/>
	<line style="fill:none;stroke:#000000;stroke-miterlimit:1;" x1="123.141" y1="148.115" x2="120.836" y2="147.785"/>
	<line style="fill:none;stroke:#000000;stroke-miterlimit:1;" x1="30.939" y1="118.285" x2="73.728" y2="77.143"/>
	<line style="fill:none;stroke:#000000;stroke-miterlimit:1;" x1="15.47" y1="112.361" x2="68.133" y2="62.002"/>
	<line style="fill:none;stroke:#000000;stroke-miterlimit:1;" x1="5.266" y1="101.5" x2="57.929" y2="51.141"/>
	<line style="fill:none;stroke:#000000;stroke-miterlimit:1;" x1="0" y1="86.029" x2="42.13" y2="45.875"/>
	<line style="fill:none;stroke:#000000;stroke-miterlimit:1;" x1="52.334" y1="48.178" x2="48.713" y2="47.191"/>
	<line style="fill:none;stroke:#000000;stroke-miterlimit:1;" x1="48.713" y1="47.191" x2="45.093" y2="45.875"/>
	<line style="fill:none;stroke:#000000;stroke-miterlimit:1;" x1="45.093" y1="45.875" x2="41.143" y2="45.216"/>
	<line style="fill:none;stroke:#000000;stroke-miterlimit:1;" x1="41.143" y1="45.216" x2="37.193" y2="45.216"/>
	<line style="fill:none;stroke:#000000;stroke-miterlimit:1;" x1="37.193" y1="45.216" x2="32.915" y2="45.545"/>
	<line style="fill:none;stroke:#000000;stroke-miterlimit:1;" x1="32.915" y1="45.545" x2="29.294" y2="45.875"/>
	<line style="fill:none;stroke:#000000;stroke-miterlimit:1;" x1="29.294" y1="45.875" x2="25.344" y2="47.191"/>
	<line style="fill:none;stroke:#000000;stroke-miterlimit:1;" x1="25.344" y1="47.191" x2="21.724" y2="48.507"/>
	<line style="fill:none;stroke:#000000;stroke-miterlimit:1;" x1="21.724" y1="48.507" x2="18.103" y2="50.153"/>
	<line style="fill:none;stroke:#000000;stroke-miterlimit:1;" x1="18.103" y1="50.153" x2="14.812" y2="52.458"/>
	<line style="fill:none;stroke:#000000;stroke-miterlimit:1;" x1="14.812" y1="52.458" x2="12.178" y2="54.761"/>
	<line style="fill:none;stroke:#000000;stroke-miterlimit:1;" x1="12.178" y1="54.761" x2="9.545" y2="57.395"/>
	<line style="fill:none;stroke:#000000;stroke-miterlimit:1;" x1="9.545" y1="57.395" x2="7.57" y2="59.698"/>
	<line style="fill:none;stroke:#000000;stroke-miterlimit:1;" x1="7.57" y1="59.698" x2="5.596" y2="62.661"/>
	<line style="fill:none;stroke:#000000;stroke-miterlimit:1;" x1="5.596" y1="62.661" x2="3.292" y2="66.939"/>
	<line style="fill:none;stroke:#000000;stroke-miterlimit:1;" x1="3.292" y1="66.939" x2="2.304" y2="70.231"/>
	<line style="fill:none;stroke:#000000;stroke-miterlimit:1;" x1="2.304" y1="70.231" x2="1.316" y2="73.852"/>
	<line style="fill:none;stroke:#000000;stroke-miterlimit:1;" x1="1.316" y1="73.852" x2="0.658" y2="77.473"/>
	<line style="fill:none;stroke:#000000;stroke-miterlimit:1;" x1="0.658" y1="77.473" x2="0" y2="81.752"/>
	<line style="fill:none;stroke:#000000;stroke-miterlimit:1;" x1="0" y1="81.752" x2="0" y2="85.371"/>
	<line style="fill:none;stroke:#000000;stroke-miterlimit:1;" x1="0" y1="85.371" x2="0.658" y2="89.65"/>
	<line style="fill:none;stroke:#000000;stroke-miterlimit:1;" x1="0.658" y1="89.65" x2="1.646" y2="93.271"/>
	<line style="fill:none;stroke:#000000;stroke-miterlimit:1;" x1="1.646" y1="93.271" x2="2.633" y2="96.562"/>
	<line style="fill:none;stroke:#000000;stroke-miterlimit:1;" x1="2.633" y1="96.562" x2="4.279" y2="100.184"/>
	<line style="fill:none;stroke:#000000;stroke-miterlimit:1;" x1="4.279" y1="100.184" x2="5.266" y2="102.158"/>
	<line style="fill:none;stroke:#000000;stroke-miterlimit:1;" x1="5.266" y1="102.158" x2="6.583" y2="103.803"/>
	<line style="fill:none;stroke:#000000;stroke-miterlimit:1;" x1="6.583" y1="103.803" x2="9.875" y2="107.424"/>
	<line style="fill:none;stroke:#000000;stroke-miterlimit:1;" x1="9.875" y1="107.424" x2="13.166" y2="110.715"/>
	<line style="fill:none;stroke:#000000;stroke-miterlimit:1;" x1="13.166" y1="110.715" x2="16.128" y2="113.02"/>
	<line style="fill:none;stroke:#000000;stroke-miterlimit:1;" x1="16.128" y1="113.02" x2="19.749" y2="114.994"/>
	<line style="fill:none;stroke:#000000;stroke-miterlimit:1;" x1="19.749" y1="114.994" x2="23.698" y2="116.969"/>
	<line style="fill:none;stroke:#000000;stroke-miterlimit:1;" x1="23.698" y1="116.969" x2="27.648" y2="117.957"/>
	<line style="fill:none;stroke:#000000;stroke-miterlimit:1;" x1="27.648" y1="117.957" x2="30.939" y2="118.943"/>
	<line style="fill:none;stroke:#000000;stroke-miterlimit:1;" x1="30.939" y1="118.943" x2="34.889" y2="118.943"/>
	<line style="fill:none;stroke:#000000;stroke-miterlimit:1;" x1="34.889" y1="118.943" x2="38.839" y2="119.273"/>
	<line style="fill:none;stroke:#000000;stroke-miterlimit:1;" x1="38.839" y1="119.273" x2="43.447" y2="118.615"/>
	<line style="fill:none;stroke:#000000;stroke-miterlimit:1;" x1="43.447" y1="118.615" x2="46.738" y2="117.957"/>
	<line style="fill:none;stroke:#000000;stroke-miterlimit:1;" x1="46.738" y1="117.957" x2="50.688" y2="116.311"/>
	<line style="fill:none;stroke:#000000;stroke-miterlimit:1;" x1="50.688" y1="116.311" x2="54.638" y2="114.336"/>
	<line style="fill:none;stroke:#000000;stroke-miterlimit:1;" x1="54.638" y1="114.336" x2="57.271" y2="113.02"/>
	<line style="fill:none;stroke:#000000;stroke-miterlimit:1;" x1="57.271" y1="113.02" x2="60.233" y2="110.387"/>
	<line style="fill:none;stroke:#000000;stroke-miterlimit:1;" x1="60.233" y1="110.387" x2="63.195" y2="107.754"/>
	<line style="fill:none;stroke:#000000;stroke-miterlimit:1;" x1="63.195" y1="107.754" x2="66.158" y2="104.791"/>
	<line style="fill:none;stroke:#000000;stroke-miterlimit:1;" x1="66.158" y1="104.791" x2="68.462" y2="101.17"/>
	<line style="fill:none;stroke:#000000;stroke-miterlimit:1;" x1="68.462" y1="101.17" x2="70.766" y2="97.879"/>
	<line style="fill:none;stroke:#000000;stroke-miterlimit:1;" x1="70.766" y1="97.879" x2="72.412" y2="94.588"/>
	<line style="fill:none;stroke:#000000;stroke-miterlimit:1;" x1="72.412" y1="94.588" x2="73.399" y2="90.639"/>
	<line style="fill:none;stroke:#000000;stroke-miterlimit:1;" x1="73.399" y1="90.639" x2="73.728" y2="87.018"/>
	<line style="fill:none;stroke:#000000;stroke-miterlimit:1;" x1="73.728" y1="87.018" x2="74.386" y2="82.738"/>
	<line style="fill:none;stroke:#000000;stroke-miterlimit:1;" x1="74.386" y1="82.738" x2="74.057" y2="79.117"/>
	<line style="fill:none;stroke:#000000;stroke-miterlimit:1;" x1="74.057" y1="79.117" x2="73.728" y2="74.839"/>
	<line style="fill:none;stroke:#000000;stroke-miterlimit:1;" x1="73.728" y1="74.839" x2="72.741" y2="71.218"/>
	<line style="fill:none;stroke:#000000;stroke-miterlimit:1;" x1="72.741" y1="71.218" x2="71.424" y2="67.927"/>
	<line style="fill:none;stroke:#000000;stroke-miterlimit:1;" x1="71.424" y1="67.927" x2="69.778" y2="63.648"/>
	<line style="fill:none;stroke:#000000;stroke-miterlimit:1;" x1="69.778" y1="63.648" x2="67.474" y2="60.357"/>
	<line style="fill:none;stroke:#000000;stroke-miterlimit:1;" x1="67.474" y1="60.357" x2="65.17" y2="57.724"/>
	<line style="fill:none;stroke:#000000;stroke-miterlimit:1;" x1="65.17" y1="57.724" x2="62.537" y2="54.432"/>
	<line style="fill:none;stroke:#000000;stroke-miterlimit:1;" x1="62.537" y1="54.432" x2="59.246" y2="52.128"/>
	<line style="fill:none;stroke:#000000;stroke-miterlimit:1;" x1="59.246" y1="52.128" x2="55.954" y2="49.824"/>
	<line style="fill:none;stroke:#000000;stroke-miterlimit:1;" x1="55.954" y1="49.824" x2="52.334" y2="48.178"/>
	<line style="fill:none;stroke:#000000;stroke-miterlimit:1;" x1="271.632" y1="12.827" x2="267.968" y2="14.659"/>
	<line style="fill:none;stroke:#000000;stroke-miterlimit:1;" x1="267.968" y1="14.659" x2="265.219" y2="18.018"/>
	<line style="fill:none;stroke:#000000;stroke-miterlimit:1;" x1="265.219" y1="18.018" x2="264.303" y2="20.767"/>
	<line style="fill:none;stroke:#000000;stroke-miterlimit:1;" x1="264.303" y1="20.767" x2="263.691" y2="23.515"/>
	<line style="fill:none;stroke:#000000;stroke-miterlimit:1;" x1="263.691" y1="23.515" x2="264.608" y2="27.791"/>
	<line style="fill:none;stroke:#000000;stroke-miterlimit:1;" x1="264.608" y1="27.791" x2="266.746" y2="30.539"/>
	<line style="fill:none;stroke:#000000;stroke-miterlimit:1;" x1="266.746" y1="30.539" x2="268.884" y2="32.372"/>
	<line style="fill:none;stroke:#000000;stroke-miterlimit:1;" x1="268.884" y1="32.372" x2="272.548" y2="33.593"/>
	<line style="fill:none;stroke:#000000;stroke-miterlimit:1;" x1="272.548" y1="33.593" x2="275.297" y2="34.509"/>
	<line style="fill:none;stroke:#000000;stroke-miterlimit:1;" x1="275.297" y1="34.509" x2="278.656" y2="34.509"/>
	<line style="fill:none;stroke:#000000;stroke-miterlimit:1;" x1="278.656" y1="34.509" x2="282.32" y2="32.982"/>
	<line style="fill:none;stroke:#000000;stroke-miterlimit:1;" x1="282.32" y1="32.982" x2="285.375" y2="31.456"/>
	<line style="fill:none;stroke:#000000;stroke-miterlimit:1;" x1="285.375" y1="31.456" x2="287.207" y2="29.317"/>
	<line style="fill:none;stroke:#000000;stroke-miterlimit:1;" x1="287.207" y1="29.317" x2="289.345" y2="26.264"/>
	<line style="fill:none;stroke:#000000;stroke-miterlimit:1;" x1="289.345" y1="26.264" x2="290.872" y2="22.599"/>
	<line style="fill:none;stroke:#000000;stroke-miterlimit:1;" x1="290.872" y1="22.599" x2="291.788" y2="19.545"/>
	<line style="fill:none;stroke:#000000;stroke-miterlimit:1;" x1="291.788" y1="19.545" x2="292.093" y2="16.491"/>
	<line style="fill:none;stroke:#000000;stroke-miterlimit:1;" x1="292.093" y1="16.491" x2="291.788" y2="14.354"/>
	<line style="fill:none;stroke:#000000;stroke-miterlimit:1;" x1="291.788" y1="14.354" x2="291.177" y2="10.689"/>
	<line style="fill:none;stroke:#000000;stroke-miterlimit:1;" x1="291.177" y1="10.689" x2="289.65" y2="7.635"/>
	<line style="fill:none;stroke:#000000;stroke-miterlimit:1;" x1="289.65" y1="7.635" x2="287.207" y2="4.581"/>
	<line style="fill:none;stroke:#000000;stroke-miterlimit:1;" x1="287.207" y1="4.581" x2="284.764" y2="2.443"/>
	<line style="fill:none;stroke:#000000;stroke-miterlimit:1;" x1="284.764" y1="2.443" x2="282.626" y2="1.527"/>
	<line style="fill:none;stroke:#000000;stroke-miterlimit:1;" x1="282.626" y1="1.527" x2="280.488" y2="0.611"/>
	<line style="fill:none;stroke:#000000;stroke-miterlimit:1;" x1="280.488" y1="0.611" x2="277.435" y2="0.306"/>
	<line style="fill:none;stroke:#000000;stroke-miterlimit:1;" x1="277.435" y1="0.306" x2="274.991" y2="0"/>
	<line style="fill:none;stroke:#000000;stroke-miterlimit:1;" x1="274.991" y1="0" x2="271.938" y2="0"/>
	<line style="fill:none;stroke:#000000;stroke-miterlimit:1;" x1="271.938" y1="0" x2="268.272" y2="0.306"/>
	<line style="fill:none;stroke:#000000;stroke-miterlimit:1;" x1="268.272" y1="0.306" x2="264.303" y2="1.527"/>
	<line style="fill:none;stroke:#000000;stroke-miterlimit:1;" x1="264.303" y1="1.527" x2="260.943" y2="3.359"/>
	<line style="fill:none;stroke:#000000;stroke-miterlimit:1;" x1="260.943" y1="3.359" x2="258.806" y2="5.192"/>
	<line style="fill:none;stroke:#000000;stroke-miterlimit:1;" x1="258.806" y1="5.192" x2="256.362" y2="7.33"/>
	<line style="fill:none;stroke:#000000;stroke-miterlimit:1;" x1="256.362" y1="7.33" x2="254.53" y2="9.467"/>
	<line style="fill:none;stroke:#000000;stroke-miterlimit:1;" x1="254.53" y1="9.467" x2="252.698" y2="12.827"/>
	<line style="fill:none;stroke:#000000;stroke-miterlimit:1;" x1="252.698" y1="12.827" x2="250.865" y2="16.186"/>
	<line style="fill:none;stroke:#000000;stroke-miterlimit:1;" x1="250.865" y1="16.186" x2="250.255" y2="19.24"/>
	<line style="fill:none;stroke:#000000;stroke-miterlimit:1;" x1="250.255" y1="19.24" x2="249.644" y2="23.515"/>
	<line style="fill:none;stroke:#000000;stroke-miterlimit:1;" x1="249.644" y1="23.515" x2="249.339" y2="27.791"/>
	<line style="fill:none;stroke:#000000;stroke-miterlimit:1;" x1="249.339" y1="27.791" x2="249.644" y2="31.15"/>
	<line style="fill:none;stroke:#000000;stroke-miterlimit:1;" x1="249.644" y1="31.15" x2="249.949" y2="36.036"/>
	<line style="fill:none;stroke:#000000;stroke-miterlimit:1;" x1="249.949" y1="36.036" x2="251.781" y2="40.922"/>
	<line style="fill:none;stroke:#000000;stroke-miterlimit:1;" x1="251.781" y1="40.922" x2="254.53" y2="46.419"/>
	<line style="fill:none;stroke:#000000;stroke-miterlimit:1;" x1="254.53" y1="46.419" x2="259.416" y2="52.833"/>
	<line style="fill:none;stroke:#000000;stroke-miterlimit:1;" x1="259.416" y1="52.833" x2="267.051" y2="60.162"/>
	<line style="fill:none;stroke:#000000;stroke-miterlimit:1;" x1="267.051" y1="60.162" x2="278.045" y2="69.018"/>
	<line style="fill:none;stroke:#000000;stroke-miterlimit:1;" x1="278.045" y1="69.018" x2="301.865" y2="82.455"/>
	<line style="fill:none;stroke:#000000;stroke-miterlimit:1;" x1="228.343" y1="93.145" x2="228.343" y2="148.115"/>
	<line style="fill:none;stroke:#000000;stroke-miterlimit:1;" x1="228.343" y1="148.115" x2="238.115" y2="148.115"/>
	<line style="fill:none;stroke:#000000;stroke-miterlimit:1;" x1="238.115" y1="148.115" x2="238.115" y2="93.145"/>
	<line style="fill:none;stroke:#000000;stroke-miterlimit:1;" x1="238.115" y1="93.145" x2="228.343" y2="93.145"/>
	<line style="fill:none;stroke:#000000;stroke-miterlimit:1;" x1="277.205" y1="93.145" x2="277.205" y2="148.115"/>
	<line style="fill:none;stroke:#000000;stroke-miterlimit:1;" x1="277.205" y1="148.115" x2="287.283" y2="148.115"/>
	<line style="fill:none;stroke:#000000;stroke-miterlimit:1;" x1="287.283" y1="148.115" x2="287.283" y2="93.145"/>
	<line style="fill:none;stroke:#000000;stroke-miterlimit:1;" x1="287.283" y1="93.145" x2="277.205" y2="93.145"/>
	<line style="fill:none;stroke:#000000;stroke-miterlimit:1;" x1="326.679" y1="93.145" x2="326.679" y2="148.115"/>
	<line style="fill:none;stroke:#000000;stroke-miterlimit:1;" x1="326.679" y1="148.115" x2="336.451" y2="148.115"/>
	<line style="fill:none;stroke:#000000;stroke-miterlimit:1;" x1="336.451" y1="148.115" x2="336.451" y2="93.145"/>
	<line style="fill:none;stroke:#000000;stroke-miterlimit:1;" x1="336.451" y1="93.145" x2="326.679" y2="93.145"/>
</g>
</svg>
