<?xml version="1.0" encoding="iso-8859-1"?>
<!-- Generator: Adobe Illustrator 16.0.1, SVG Export Plug-In . SVG Version: 6.00 Build 0)  -->
<!DOCTYPE svg PUBLIC "-//W3C//DTD SVG 1.1//EN" "http://www.w3.org/Graphics/SVG/1.1/DTD/svg11.dtd">
<svg version="1.1" id="Ebene_1" xmlns="http://www.w3.org/2000/svg" xmlns:xlink="http://www.w3.org/1999/xlink" x="0px" y="0px"
	 width="383.945px" height="148.115px" viewBox="0 0 383.945 148.115" style="enable-background:new 0 0 383.945 148.115;"
	 xml:space="preserve">
<g>
	<line style="fill:none;stroke:#000000;stroke-miterlimit:1;" x1="52.663" y1="37.522" x2="48.713" y2="41.801"/>
	<line style="fill:none;stroke:#000000;stroke-miterlimit:1;" x1="48.713" y1="41.801" x2="47.396" y2="47.068"/>
	<line style="fill:none;stroke:#000000;stroke-miterlimit:1;" x1="47.396" y1="47.068" x2="48.384" y2="52.334"/>
	<line style="fill:none;stroke:#000000;stroke-miterlimit:1;" x1="48.384" y1="52.334" x2="50.688" y2="56.284"/>
	<line style="fill:none;stroke:#000000;stroke-miterlimit:1;" x1="50.688" y1="56.284" x2="56.942" y2="62.208"/>
	<line style="fill:none;stroke:#000000;stroke-miterlimit:1;" x1="56.942" y1="62.208" x2="67.804" y2="68.133"/>
	<line style="fill:none;stroke:#000000;stroke-miterlimit:1;" x1="67.804" y1="68.133" x2="86.564" y2="75.045"/>
	<line style="fill:none;stroke:#000000;stroke-miterlimit:1;" x1="86.564" y1="75.045" x2="108.946" y2="79.652"/>
	<line style="fill:none;stroke:#000000;stroke-miterlimit:1;" x1="108.946" y1="79.652" x2="131.328" y2="82.285"/>
	<line style="fill:none;stroke:#000000;stroke-miterlimit:1;" x1="131.328" y1="82.285" x2="138.569" y2="82.943"/>
	<line style="fill:none;stroke:#000000;stroke-miterlimit:1;" x1="138.569" y1="82.943" x2="143.177" y2="83.273"/>
	<line style="fill:none;stroke:#000000;stroke-miterlimit:1;" x1="143.177" y1="83.273" x2="145.481" y2="82.615"/>
	<line style="fill:none;stroke:#000000;stroke-miterlimit:1;" x1="145.481" y1="82.615" x2="146.798" y2="81.299"/>
	<line style="fill:none;stroke:#000000;stroke-miterlimit:1;" x1="146.798" y1="81.299" x2="146.798" y2="79.652"/>
	<line style="fill:none;stroke:#000000;stroke-miterlimit:1;" x1="146.798" y1="79.652" x2="145.152" y2="78.336"/>
	<line style="fill:none;stroke:#000000;stroke-miterlimit:1;" x1="145.152" y1="78.336" x2="136.265" y2="76.691"/>
	<line style="fill:none;stroke:#000000;stroke-miterlimit:1;" x1="136.265" y1="76.691" x2="130.67" y2="74.057"/>
	<line style="fill:none;stroke:#000000;stroke-miterlimit:1;" x1="130.67" y1="74.057" x2="127.378" y2="71.753"/>
	<line style="fill:none;stroke:#000000;stroke-miterlimit:1;" x1="127.378" y1="71.753" x2="119.479" y2="65.17"/>
	<line style="fill:none;stroke:#000000;stroke-miterlimit:1;" x1="119.479" y1="65.17" x2="107.63" y2="54.309"/>
	<line style="fill:none;stroke:#000000;stroke-miterlimit:1;" x1="107.63" y1="54.309" x2="95.781" y2="45.093"/>
	<line style="fill:none;stroke:#000000;stroke-miterlimit:1;" x1="95.781" y1="45.093" x2="84.919" y2="39.168"/>
	<line style="fill:none;stroke:#000000;stroke-miterlimit:1;" x1="84.919" y1="39.168" x2="74.386" y2="34.889"/>
	<line style="fill:none;stroke:#000000;stroke-miterlimit:1;" x1="74.386" y1="34.889" x2="66.487" y2="32.585"/>
	<line style="fill:none;stroke:#000000;stroke-miterlimit:1;" x1="66.487" y1="32.585" x2="59.575" y2="32.256"/>
	<line style="fill:none;stroke:#000000;stroke-miterlimit:1;" x1="59.575" y1="32.256" x2="53.65" y2="33.573"/>
	<line style="fill:none;stroke:#000000;stroke-miterlimit:1;" x1="53.65" y1="33.573" x2="49.042" y2="35.877"/>
	<line style="fill:none;stroke:#000000;stroke-miterlimit:1;" x1="49.042" y1="35.877" x2="45.751" y2="37.852"/>
	<line style="fill:none;stroke:#000000;stroke-miterlimit:1;" x1="45.751" y1="37.852" x2="44.105" y2="39.498"/>
	<line style="fill:none;stroke:#000000;stroke-miterlimit:1;" x1="44.105" y1="39.498" x2="41.801" y2="39.827"/>
	<line style="fill:none;stroke:#000000;stroke-miterlimit:1;" x1="41.801" y1="39.827" x2="39.168" y2="39.168"/>
	<line style="fill:none;stroke:#000000;stroke-miterlimit:1;" x1="39.168" y1="39.168" x2="38.839" y2="36.864"/>
	<line style="fill:none;stroke:#000000;stroke-miterlimit:1;" x1="38.839" y1="36.864" x2="51.675" y2="26.332"/>
	<line style="fill:none;stroke:#000000;stroke-miterlimit:1;" x1="51.675" y1="26.332" x2="54.309" y2="23.369"/>
	<line style="fill:none;stroke:#000000;stroke-miterlimit:1;" x1="54.309" y1="23.369" x2="55.954" y2="19.749"/>
	<line style="fill:none;stroke:#000000;stroke-miterlimit:1;" x1="55.954" y1="19.749" x2="56.284" y2="16.458"/>
	<line style="fill:none;stroke:#000000;stroke-miterlimit:1;" x1="56.284" y1="16.458" x2="55.954" y2="13.495"/>
	<line style="fill:none;stroke:#000000;stroke-miterlimit:1;" x1="52.992" y1="11.191" x2="66.487" y2="17.445"/>
	<line style="fill:none;stroke:#000000;stroke-miterlimit:1;" x1="66.487" y1="17.445" x2="80.64" y2="22.711"/>
	<line style="fill:none;stroke:#000000;stroke-miterlimit:1;" x1="80.64" y1="22.711" x2="93.147" y2="25.344"/>
	<line style="fill:none;stroke:#000000;stroke-miterlimit:1;" x1="93.147" y1="25.344" x2="106.313" y2="26.332"/>
	<line style="fill:none;stroke:#000000;stroke-miterlimit:1;" x1="106.313" y1="26.332" x2="116.188" y2="26.661"/>
	<line style="fill:none;stroke:#000000;stroke-miterlimit:1;" x1="116.188" y1="26.661" x2="123.429" y2="25.673"/>
	<line style="fill:none;stroke:#000000;stroke-miterlimit:1;" x1="123.429" y1="25.673" x2="113.225" y2="24.028"/>
	<line style="fill:none;stroke:#000000;stroke-miterlimit:1;" x1="113.225" y1="24.028" x2="101.705" y2="23.04"/>
	<line style="fill:none;stroke:#000000;stroke-miterlimit:1;" x1="101.705" y1="23.04" x2="88.869" y2="21.065"/>
	<line style="fill:none;stroke:#000000;stroke-miterlimit:1;" x1="88.869" y1="21.065" x2="79.653" y2="18.432"/>
	<line style="fill:none;stroke:#000000;stroke-miterlimit:1;" x1="79.653" y1="18.432" x2="68.462" y2="14.482"/>
	<line style="fill:none;stroke:#000000;stroke-miterlimit:1;" x1="68.462" y1="14.482" x2="59.904" y2="10.862"/>
	<line style="fill:none;stroke:#000000;stroke-miterlimit:1;" x1="59.904" y1="10.862" x2="54.638" y2="7.241"/>
	<line style="fill:none;stroke:#000000;stroke-miterlimit:1;" x1="54.638" y1="7.241" x2="72.412" y2="14.153"/>
	<line style="fill:none;stroke:#000000;stroke-miterlimit:1;" x1="72.412" y1="14.153" x2="83.603" y2="16.128"/>
	<line style="fill:none;stroke:#000000;stroke-miterlimit:1;" x1="83.603" y1="16.128" x2="89.527" y2="17.116"/>
	<line style="fill:none;stroke:#000000;stroke-miterlimit:1;" x1="89.527" y1="17.116" x2="102.034" y2="18.103"/>
	<line style="fill:none;stroke:#000000;stroke-miterlimit:1;" x1="102.034" y1="18.103" x2="113.554" y2="17.445"/>
	<line style="fill:none;stroke:#000000;stroke-miterlimit:1;" x1="113.554" y1="17.445" x2="120.466" y2="16.787"/>
	<line style="fill:none;stroke:#000000;stroke-miterlimit:1;" x1="120.466" y1="16.787" x2="126.062" y2="16.458"/>
	<line style="fill:none;stroke:#000000;stroke-miterlimit:1;" x1="126.062" y1="16.458" x2="113.883" y2="15.47"/>
	<line style="fill:none;stroke:#000000;stroke-miterlimit:1;" x1="113.883" y1="15.47" x2="103.351" y2="14.482"/>
	<line style="fill:none;stroke:#000000;stroke-miterlimit:1;" x1="103.351" y1="14.482" x2="93.147" y2="14.153"/>
	<line style="fill:none;stroke:#000000;stroke-miterlimit:1;" x1="93.147" y1="14.153" x2="84.261" y2="12.837"/>
	<line style="fill:none;stroke:#000000;stroke-miterlimit:1;" x1="84.261" y1="12.837" x2="73.399" y2="10.533"/>
	<line style="fill:none;stroke:#000000;stroke-miterlimit:1;" x1="73.399" y1="10.533" x2="63.524" y2="7.57"/>
	<line style="fill:none;stroke:#000000;stroke-miterlimit:1;" x1="63.524" y1="7.57" x2="56.942" y2="4.608"/>
	<line style="fill:none;stroke:#000000;stroke-miterlimit:1;" x1="56.942" y1="4.608" x2="52.334" y2="1.646"/>
	<line style="fill:none;stroke:#000000;stroke-miterlimit:1;" x1="52.334" y1="1.646" x2="48.713" y2="0.329"/>
	<line style="fill:none;stroke:#000000;stroke-miterlimit:1;" x1="48.713" y1="0.329" x2="45.422" y2="0"/>
	<line style="fill:none;stroke:#000000;stroke-miterlimit:1;" x1="45.422" y1="0" x2="38.181" y2="0.988"/>
	<line style="fill:none;stroke:#000000;stroke-miterlimit:1;" x1="38.181" y1="0.988" x2="32.585" y2="2.962"/>
	<line style="fill:none;stroke:#000000;stroke-miterlimit:1;" x1="32.585" y1="2.962" x2="30.281" y2="4.608"/>
	<line style="fill:none;stroke:#000000;stroke-miterlimit:1;" x1="30.281" y1="4.608" x2="28.965" y2="6.912"/>
	<line style="fill:none;stroke:#000000;stroke-miterlimit:1;" x1="28.965" y1="6.912" x2="28.635" y2="7.57"/>
	<line style="fill:none;stroke:#000000;stroke-miterlimit:1;" x1="28.635" y1="7.57" x2="28.635" y2="10.204"/>
	<line style="fill:none;stroke:#000000;stroke-miterlimit:1;" x1="28.635" y1="10.204" x2="30.281" y2="12.837"/>
	<line style="fill:none;stroke:#000000;stroke-miterlimit:1;" x1="30.281" y1="12.837" x2="32.256" y2="13.495"/>
	<line style="fill:none;stroke:#000000;stroke-miterlimit:1;" x1="32.256" y1="13.495" x2="34.231" y2="14.153"/>
	<line style="fill:none;stroke:#000000;stroke-miterlimit:1;" x1="34.231" y1="14.153" x2="37.852" y2="15.141"/>
	<line style="fill:none;stroke:#000000;stroke-miterlimit:1;" x1="37.852" y1="15.141" x2="41.801" y2="15.141"/>
	<line style="fill:none;stroke:#000000;stroke-miterlimit:1;" x1="41.801" y1="15.141" x2="44.105" y2="14.153"/>
	<line style="fill:none;stroke:#000000;stroke-miterlimit:1;" x1="44.105" y1="14.153" x2="46.08" y2="13.824"/>
	<line style="fill:none;stroke:#000000;stroke-miterlimit:1;" x1="46.08" y1="13.824" x2="47.067" y2="15.47"/>
	<line style="fill:none;stroke:#000000;stroke-miterlimit:1;" x1="47.067" y1="15.47" x2="47.396" y2="18.432"/>
	<line style="fill:none;stroke:#000000;stroke-miterlimit:1;" x1="47.396" y1="18.432" x2="43.776" y2="22.711"/>
	<line style="fill:none;stroke:#000000;stroke-miterlimit:1;" x1="43.776" y1="22.711" x2="37.852" y2="26.99"/>
	<line style="fill:none;stroke:#000000;stroke-miterlimit:1;" x1="37.852" y1="26.99" x2="32.256" y2="32.256"/>
	<line style="fill:none;stroke:#000000;stroke-miterlimit:1;" x1="32.256" y1="32.256" x2="29.623" y2="35.877"/>
	<line style="fill:none;stroke:#000000;stroke-miterlimit:1;" x1="29.623" y1="35.877" x2="27.648" y2="38.839"/>
	<line style="fill:none;stroke:#000000;stroke-miterlimit:1;" x1="27.648" y1="38.839" x2="26.661" y2="44.105"/>
	<line style="fill:none;stroke:#000000;stroke-miterlimit:1;" x1="26.661" y1="44.105" x2="27.319" y2="47.068"/>
	<line style="fill:none;stroke:#000000;stroke-miterlimit:1;" x1="27.319" y1="47.068" x2="31.269" y2="52.992"/>
	<line style="fill:none;stroke:#000000;stroke-miterlimit:1;" x1="31.269" y1="52.992" x2="41.472" y2="64.183"/>
	<line style="fill:none;stroke:#000000;stroke-miterlimit:1;" x1="41.472" y1="64.183" x2="47.726" y2="69.778"/>
	<line style="fill:none;stroke:#000000;stroke-miterlimit:1;" x1="47.726" y1="69.778" x2="54.967" y2="75.045"/>
	<line style="fill:none;stroke:#000000;stroke-miterlimit:1;" x1="54.967" y1="75.045" x2="65.5" y2="79.652"/>
	<line style="fill:none;stroke:#000000;stroke-miterlimit:1;" x1="65.5" y1="79.652" x2="71.753" y2="88.869"/>
	<line style="fill:none;stroke:#000000;stroke-miterlimit:1;" x1="71.753" y1="88.869" x2="78.336" y2="96.439"/>
	<line style="fill:none;stroke:#000000;stroke-miterlimit:1;" x1="78.336" y1="96.439" x2="82.615" y2="101.047"/>
	<line style="fill:none;stroke:#000000;stroke-miterlimit:1;" x1="82.615" y1="101.047" x2="83.932" y2="104.01"/>
	<line style="fill:none;stroke:#000000;stroke-miterlimit:1;" x1="83.932" y1="104.01" x2="85.906" y2="125.404"/>
	<line style="fill:none;stroke:#000000;stroke-miterlimit:1;" x1="85.906" y1="125.404" x2="85.906" y2="139.229"/>
	<line style="fill:none;stroke:#000000;stroke-miterlimit:1;" x1="85.906" y1="139.229" x2="85.248" y2="141.531"/>
	<line style="fill:none;stroke:#000000;stroke-miterlimit:1;" x1="85.248" y1="141.531" x2="82.944" y2="142.189"/>
	<line style="fill:none;stroke:#000000;stroke-miterlimit:1;" x1="82.944" y1="142.189" x2="68.791" y2="144.164"/>
	<line style="fill:none;stroke:#000000;stroke-miterlimit:1;" x1="68.791" y1="144.164" x2="67.804" y2="144.494"/>
	<line style="fill:none;stroke:#000000;stroke-miterlimit:1;" x1="67.804" y1="144.494" x2="65.829" y2="144.822"/>
	<line style="fill:none;stroke:#000000;stroke-miterlimit:1;" x1="65.829" y1="144.822" x2="64.841" y2="146.139"/>
	<line style="fill:none;stroke:#000000;stroke-miterlimit:1;" x1="64.841" y1="146.139" x2="64.841" y2="148.115"/>
	<line style="fill:none;stroke:#000000;stroke-miterlimit:1;" x1="64.841" y1="148.115" x2="66.816" y2="147.127"/>
	<line style="fill:none;stroke:#000000;stroke-miterlimit:1;" x1="66.816" y1="147.127" x2="69.12" y2="147.785"/>
	<line style="fill:none;stroke:#000000;stroke-miterlimit:1;" x1="78.665" y1="144.164" x2="70.437" y2="145.48"/>
	<line style="fill:none;stroke:#000000;stroke-miterlimit:1;" x1="70.437" y1="145.48" x2="69.12" y2="146.469"/>
	<line style="fill:none;stroke:#000000;stroke-miterlimit:1;" x1="69.12" y1="146.469" x2="69.449" y2="148.115"/>
	<line style="fill:none;stroke:#000000;stroke-miterlimit:1;" x1="69.449" y1="148.115" x2="72.083" y2="146.799"/>
	<line style="fill:none;stroke:#000000;stroke-miterlimit:1;" x1="72.083" y1="146.799" x2="74.057" y2="148.115"/>
	<line style="fill:none;stroke:#000000;stroke-miterlimit:1;" x1="74.057" y1="148.115" x2="87.223" y2="146.469"/>
	<line style="fill:none;stroke:#000000;stroke-miterlimit:1;" x1="87.223" y1="146.469" x2="97.426" y2="148.115"/>
	<line style="fill:none;stroke:#000000;stroke-miterlimit:1;" x1="97.426" y1="148.115" x2="97.755" y2="146.469"/>
	<line style="fill:none;stroke:#000000;stroke-miterlimit:1;" x1="97.755" y1="146.469" x2="97.097" y2="144.822"/>
	<line style="fill:none;stroke:#000000;stroke-miterlimit:1;" x1="97.097" y1="144.822" x2="94.464" y2="144.164"/>
	<line style="fill:none;stroke:#000000;stroke-miterlimit:1;" x1="94.464" y1="144.164" x2="91.502" y2="143.178"/>
	<line style="fill:none;stroke:#000000;stroke-miterlimit:1;" x1="91.502" y1="143.178" x2="90.514" y2="142.848"/>
	<line style="fill:none;stroke:#000000;stroke-miterlimit:1;" x1="90.514" y1="142.848" x2="89.527" y2="140.873"/>
	<line style="fill:none;stroke:#000000;stroke-miterlimit:1;" x1="89.527" y1="140.873" x2="89.198" y2="106.971"/>
	<line style="fill:none;stroke:#000000;stroke-miterlimit:1;" x1="89.198" y1="106.971" x2="89.856" y2="103.021"/>
	<line style="fill:none;stroke:#000000;stroke-miterlimit:1;" x1="89.856" y1="103.021" x2="89.856" y2="101.705"/>
	<line style="fill:none;stroke:#000000;stroke-miterlimit:1;" x1="89.856" y1="101.705" x2="87.552" y2="97.426"/>
	<line style="fill:none;stroke:#000000;stroke-miterlimit:1;" x1="87.552" y1="97.426" x2="85.248" y2="93.477"/>
	<line style="fill:none;stroke:#000000;stroke-miterlimit:1;" x1="85.248" y1="93.477" x2="77.678" y2="81.299"/>
	<line style="fill:none;stroke:#000000;stroke-miterlimit:1;" x1="80.64" y1="84.92" x2="92.489" y2="86.236"/>
	<line style="fill:none;stroke:#000000;stroke-miterlimit:1;" x1="92.489" y1="86.236" x2="102.363" y2="85.906"/>
	<line style="fill:none;stroke:#000000;stroke-miterlimit:1;" x1="102.363" y1="85.906" x2="114.871" y2="84.59"/>
	<line style="fill:none;stroke:#000000;stroke-miterlimit:1;" x1="114.871" y1="84.59" x2="121.125" y2="90.186"/>
	<line style="fill:none;stroke:#000000;stroke-miterlimit:1;" x1="121.125" y1="90.186" x2="128.695" y2="97.098"/>
	<line style="fill:none;stroke:#000000;stroke-miterlimit:1;" x1="128.695" y1="97.098" x2="132.315" y2="97.426"/>
	<line style="fill:none;stroke:#000000;stroke-miterlimit:1;" x1="132.315" y1="97.426" x2="135.936" y2="96.439"/>
	<line style="fill:none;stroke:#000000;stroke-miterlimit:1;" x1="135.936" y1="96.439" x2="139.886" y2="93.148"/>
	<line style="fill:none;stroke:#000000;stroke-miterlimit:1;" x1="139.886" y1="93.148" x2="140.544" y2="90.514"/>
	<line style="fill:none;stroke:#000000;stroke-miterlimit:1;" x1="140.544" y1="90.514" x2="132.645" y2="82.285"/>
	<line style="fill:none;stroke:#000000;stroke-miterlimit:1;" x1="28.635" y1="7.241" x2="0" y2="24.686"/>
	<line style="fill:none;stroke:#000000;stroke-miterlimit:1;" x1="0" y1="24.686" x2="32.915" y2="13.824"/>
	<line style="fill:none;stroke:#000000;stroke-miterlimit:1;" x1="28.965" y1="11.849" x2="0" y2="24.686"/>
	<line style="fill:none;stroke:#000000;stroke-miterlimit:1;" x1="35.218" y1="6.583" x2="33.573" y2="7.57"/>
	<line style="fill:none;stroke:#000000;stroke-miterlimit:1;" x1="33.573" y1="7.57" x2="34.56" y2="9.216"/>
	<line style="fill:none;stroke:#000000;stroke-miterlimit:1;" x1="34.56" y1="9.216" x2="36.206" y2="8.558"/>
	<line style="fill:none;stroke:#000000;stroke-miterlimit:1;" x1="36.206" y1="8.558" x2="35.547" y2="7.241"/>
	<line style="fill:none;stroke:#000000;stroke-miterlimit:1;" x1="98.414" y1="145.152" x2="101.047" y2="145.811"/>
	<line style="fill:none;stroke:#000000;stroke-miterlimit:1;" x1="101.047" y1="145.811" x2="102.363" y2="146.799"/>
	<line style="fill:none;stroke:#000000;stroke-miterlimit:1;" x1="102.363" y1="146.799" x2="102.693" y2="147.457"/>
	<line style="fill:none;stroke:#000000;stroke-miterlimit:1;" x1="102.693" y1="147.457" x2="101.047" y2="148.115"/>
	<line style="fill:none;stroke:#000000;stroke-miterlimit:1;" x1="101.047" y1="148.115" x2="98.743" y2="147.785"/>
	<line style="fill:none;stroke:#000000;stroke-miterlimit:1;" x1="49.042" y1="71.095" x2="55.954" y2="84.26"/>
	<line style="fill:none;stroke:#000000;stroke-miterlimit:1;" x1="55.954" y1="84.26" x2="63.854" y2="96.109"/>
	<line style="fill:none;stroke:#000000;stroke-miterlimit:1;" x1="63.854" y1="96.109" x2="64.512" y2="99.072"/>
	<line style="fill:none;stroke:#000000;stroke-miterlimit:1;" x1="64.512" y1="99.072" x2="43.118" y2="137.582"/>
	<line style="fill:none;stroke:#000000;stroke-miterlimit:1;" x1="43.118" y1="137.582" x2="42.13" y2="139.229"/>
	<line style="fill:none;stroke:#000000;stroke-miterlimit:1;" x1="42.13" y1="139.229" x2="41.143" y2="140.873"/>
	<line style="fill:none;stroke:#000000;stroke-miterlimit:1;" x1="41.143" y1="140.873" x2="38.839" y2="141.531"/>
	<line style="fill:none;stroke:#000000;stroke-miterlimit:1;" x1="38.839" y1="141.531" x2="30.939" y2="142.848"/>
	<line style="fill:none;stroke:#000000;stroke-miterlimit:1;" x1="30.939" y1="142.848" x2="25.673" y2="143.836"/>
	<line style="fill:none;stroke:#000000;stroke-miterlimit:1;" x1="25.673" y1="143.836" x2="23.698" y2="144.822"/>
	<line style="fill:none;stroke:#000000;stroke-miterlimit:1;" x1="23.698" y1="144.822" x2="22.382" y2="145.152"/>
	<line style="fill:none;stroke:#000000;stroke-miterlimit:1;" x1="22.382" y1="145.152" x2="20.407" y2="145.48"/>
	<line style="fill:none;stroke:#000000;stroke-miterlimit:1;" x1="20.407" y1="145.48" x2="19.749" y2="146.139"/>
	<line style="fill:none;stroke:#000000;stroke-miterlimit:1;" x1="19.749" y1="146.139" x2="19.09" y2="147.785"/>
	<line style="fill:none;stroke:#000000;stroke-miterlimit:1;" x1="19.09" y1="147.785" x2="21.065" y2="146.799"/>
	<line style="fill:none;stroke:#000000;stroke-miterlimit:1;" x1="21.065" y1="146.799" x2="23.369" y2="147.785"/>
	<line style="fill:none;stroke:#000000;stroke-miterlimit:1;" x1="26.99" y1="145.811" x2="25.673" y2="145.811"/>
	<line style="fill:none;stroke:#000000;stroke-miterlimit:1;" x1="25.673" y1="145.811" x2="24.027" y2="146.139"/>
	<line style="fill:none;stroke:#000000;stroke-miterlimit:1;" x1="24.027" y1="146.139" x2="23.369" y2="147.457"/>
	<line style="fill:none;stroke:#000000;stroke-miterlimit:1;" x1="23.369" y1="147.457" x2="24.027" y2="147.785"/>
	<line style="fill:none;stroke:#000000;stroke-miterlimit:1;" x1="24.027" y1="147.785" x2="26.002" y2="147.127"/>
	<line style="fill:none;stroke:#000000;stroke-miterlimit:1;" x1="27.319" y1="145.48" x2="29.623" y2="144.822"/>
	<line style="fill:none;stroke:#000000;stroke-miterlimit:1;" x1="29.623" y1="144.822" x2="34.889" y2="144.494"/>
	<line style="fill:none;stroke:#000000;stroke-miterlimit:1;" x1="26.332" y1="147.127" x2="28.965" y2="148.115"/>
	<line style="fill:none;stroke:#000000;stroke-miterlimit:1;" x1="28.965" y1="148.115" x2="41.143" y2="146.799"/>
	<line style="fill:none;stroke:#000000;stroke-miterlimit:1;" x1="41.143" y1="146.799" x2="43.118" y2="146.469"/>
	<line style="fill:none;stroke:#000000;stroke-miterlimit:1;" x1="43.118" y1="146.469" x2="52.992" y2="148.115"/>
	<line style="fill:none;stroke:#000000;stroke-miterlimit:1;" x1="52.992" y1="148.115" x2="53.321" y2="146.469"/>
	<line style="fill:none;stroke:#000000;stroke-miterlimit:1;" x1="53.321" y1="146.469" x2="52.992" y2="144.822"/>
	<line style="fill:none;stroke:#000000;stroke-miterlimit:1;" x1="52.992" y1="144.822" x2="50.03" y2="144.164"/>
	<line style="fill:none;stroke:#000000;stroke-miterlimit:1;" x1="50.03" y1="144.164" x2="46.08" y2="142.848"/>
	<line style="fill:none;stroke:#000000;stroke-miterlimit:1;" x1="45.751" y1="142.52" x2="45.422" y2="140.873"/>
	<line style="fill:none;stroke:#000000;stroke-miterlimit:1;" x1="45.422" y1="140.873" x2="65.829" y2="106.971"/>
	<line style="fill:none;stroke:#000000;stroke-miterlimit:1;" x1="65.829" y1="106.971" x2="70.766" y2="98.084"/>
	<line style="fill:none;stroke:#000000;stroke-miterlimit:1;" x1="70.766" y1="98.084" x2="70.766" y2="95.123"/>
	<line style="fill:none;stroke:#000000;stroke-miterlimit:1;" x1="70.766" y1="95.123" x2="67.145" y2="82.615"/>
	<line style="fill:none;stroke:#000000;stroke-miterlimit:1;" x1="53.979" y1="145.152" x2="56.284" y2="145.811"/>
	<line style="fill:none;stroke:#000000;stroke-miterlimit:1;" x1="56.284" y1="145.811" x2="57.6" y2="146.799"/>
	<line style="fill:none;stroke:#000000;stroke-miterlimit:1;" x1="57.6" y1="146.799" x2="57.929" y2="147.457"/>
	<line style="fill:none;stroke:#000000;stroke-miterlimit:1;" x1="57.929" y1="147.457" x2="56.284" y2="148.115"/>
	<line style="fill:none;stroke:#000000;stroke-miterlimit:1;" x1="56.284" y1="148.115" x2="53.979" y2="147.785"/>
	<line style="fill:none;stroke:#000000;stroke-miterlimit:1;" x1="151.279" y1="52.193" x2="175.038" y2="29.348"/>
	<line style="fill:none;stroke:#000000;stroke-miterlimit:1;" x1="142.689" y1="48.903" x2="171.931" y2="20.941"/>
	<line style="fill:none;stroke:#000000;stroke-miterlimit:1;" x1="137.023" y1="42.872" x2="166.265" y2="14.91"/>
	<line style="fill:none;stroke:#000000;stroke-miterlimit:1;" x1="134.099" y1="34.282" x2="157.493" y2="11.985"/>
	<line style="fill:none;stroke:#000000;stroke-miterlimit:1;" x1="163.158" y1="13.265" x2="161.148" y2="12.716"/>
	<line style="fill:none;stroke:#000000;stroke-miterlimit:1;" x1="161.148" y1="12.716" x2="159.137" y2="11.985"/>
	<line style="fill:none;stroke:#000000;stroke-miterlimit:1;" x1="159.137" y1="11.985" x2="156.944" y2="11.62"/>
	<line style="fill:none;stroke:#000000;stroke-miterlimit:1;" x1="156.944" y1="11.62" x2="154.751" y2="11.62"/>
	<line style="fill:none;stroke:#000000;stroke-miterlimit:1;" x1="154.751" y1="11.62" x2="152.375" y2="11.803"/>
	<line style="fill:none;stroke:#000000;stroke-miterlimit:1;" x1="152.375" y1="11.803" x2="150.365" y2="11.985"/>
	<line style="fill:none;stroke:#000000;stroke-miterlimit:1;" x1="150.365" y1="11.985" x2="148.172" y2="12.716"/>
	<line style="fill:none;stroke:#000000;stroke-miterlimit:1;" x1="148.172" y1="12.716" x2="146.162" y2="13.448"/>
	<line style="fill:none;stroke:#000000;stroke-miterlimit:1;" x1="146.162" y1="13.448" x2="144.151" y2="14.361"/>
	<line style="fill:none;stroke:#000000;stroke-miterlimit:1;" x1="144.151" y1="14.361" x2="142.324" y2="15.641"/>
	<line style="fill:none;stroke:#000000;stroke-miterlimit:1;" x1="142.324" y1="15.641" x2="140.861" y2="16.92"/>
	<line style="fill:none;stroke:#000000;stroke-miterlimit:1;" x1="140.861" y1="16.92" x2="139.399" y2="18.382"/>
	<line style="fill:none;stroke:#000000;stroke-miterlimit:1;" x1="139.399" y1="18.382" x2="138.303" y2="19.662"/>
	<line style="fill:none;stroke:#000000;stroke-miterlimit:1;" x1="138.303" y1="19.662" x2="137.206" y2="21.306"/>
	<line style="fill:none;stroke:#000000;stroke-miterlimit:1;" x1="137.206" y1="21.306" x2="135.927" y2="23.682"/>
	<line style="fill:none;stroke:#000000;stroke-miterlimit:1;" x1="135.927" y1="23.682" x2="135.378" y2="25.51"/>
	<line style="fill:none;stroke:#000000;stroke-miterlimit:1;" x1="135.378" y1="25.51" x2="134.83" y2="27.52"/>
	<line style="fill:none;stroke:#000000;stroke-miterlimit:1;" x1="134.83" y1="27.52" x2="134.465" y2="29.53"/>
	<line style="fill:none;stroke:#000000;stroke-miterlimit:1;" x1="134.465" y1="29.53" x2="134.099" y2="31.906"/>
	<line style="fill:none;stroke:#000000;stroke-miterlimit:1;" x1="134.099" y1="31.906" x2="134.099" y2="33.917"/>
	<line style="fill:none;stroke:#000000;stroke-miterlimit:1;" x1="134.099" y1="33.917" x2="134.465" y2="36.292"/>
	<line style="fill:none;stroke:#000000;stroke-miterlimit:1;" x1="134.465" y1="36.292" x2="135.013" y2="38.303"/>
	<line style="fill:none;stroke:#000000;stroke-miterlimit:1;" x1="135.013" y1="38.303" x2="135.562" y2="40.13"/>
	<line style="fill:none;stroke:#000000;stroke-miterlimit:1;" x1="135.562" y1="40.13" x2="136.475" y2="42.141"/>
	<line style="fill:none;stroke:#000000;stroke-miterlimit:1;" x1="136.475" y1="42.141" x2="137.023" y2="43.237"/>
	<line style="fill:none;stroke:#000000;stroke-miterlimit:1;" x1="137.023" y1="43.237" x2="137.754" y2="44.151"/>
	<line style="fill:none;stroke:#000000;stroke-miterlimit:1;" x1="137.754" y1="44.151" x2="139.582" y2="46.162"/>
	<line style="fill:none;stroke:#000000;stroke-miterlimit:1;" x1="139.582" y1="46.162" x2="141.41" y2="47.989"/>
	<line style="fill:none;stroke:#000000;stroke-miterlimit:1;" x1="141.41" y1="47.989" x2="143.055" y2="49.269"/>
	<line style="fill:none;stroke:#000000;stroke-miterlimit:1;" x1="143.055" y1="49.269" x2="145.065" y2="50.365"/>
	<line style="fill:none;stroke:#000000;stroke-miterlimit:1;" x1="145.065" y1="50.365" x2="147.258" y2="51.462"/>
	<line style="fill:none;stroke:#000000;stroke-miterlimit:1;" x1="147.258" y1="51.462" x2="149.451" y2="52.01"/>
	<line style="fill:none;stroke:#000000;stroke-miterlimit:1;" x1="149.451" y1="52.01" x2="151.279" y2="52.558"/>
	<line style="fill:none;stroke:#000000;stroke-miterlimit:1;" x1="151.279" y1="52.558" x2="153.472" y2="52.558"/>
	<line style="fill:none;stroke:#000000;stroke-miterlimit:1;" x1="153.472" y1="52.558" x2="155.665" y2="52.741"/>
	<line style="fill:none;stroke:#000000;stroke-miterlimit:1;" x1="155.665" y1="52.741" x2="158.224" y2="52.375"/>
	<line style="fill:none;stroke:#000000;stroke-miterlimit:1;" x1="158.224" y1="52.375" x2="160.051" y2="52.01"/>
	<line style="fill:none;stroke:#000000;stroke-miterlimit:1;" x1="160.051" y1="52.01" x2="162.245" y2="51.096"/>
	<line style="fill:none;stroke:#000000;stroke-miterlimit:1;" x1="162.245" y1="51.096" x2="164.438" y2="50"/>
	<line style="fill:none;stroke:#000000;stroke-miterlimit:1;" x1="164.438" y1="50" x2="165.899" y2="49.269"/>
	<line style="fill:none;stroke:#000000;stroke-miterlimit:1;" x1="165.899" y1="49.269" x2="167.544" y2="47.807"/>
	<line style="fill:none;stroke:#000000;stroke-miterlimit:1;" x1="167.544" y1="47.807" x2="169.189" y2="46.344"/>
	<line style="fill:none;stroke:#000000;stroke-miterlimit:1;" x1="169.189" y1="46.344" x2="170.834" y2="44.7"/>
	<line style="fill:none;stroke:#000000;stroke-miterlimit:1;" x1="170.834" y1="44.7" x2="172.113" y2="42.689"/>
	<line style="fill:none;stroke:#000000;stroke-miterlimit:1;" x1="172.113" y1="42.689" x2="173.393" y2="40.862"/>
	<line style="fill:none;stroke:#000000;stroke-miterlimit:1;" x1="173.393" y1="40.862" x2="174.307" y2="39.034"/>
	<line style="fill:none;stroke:#000000;stroke-miterlimit:1;" x1="174.307" y1="39.034" x2="174.855" y2="36.841"/>
	<line style="fill:none;stroke:#000000;stroke-miterlimit:1;" x1="174.855" y1="36.841" x2="175.038" y2="34.831"/>
	<line style="fill:none;stroke:#000000;stroke-miterlimit:1;" x1="175.038" y1="34.831" x2="175.403" y2="32.455"/>
	<line style="fill:none;stroke:#000000;stroke-miterlimit:1;" x1="175.403" y1="32.455" x2="175.22" y2="30.444"/>
	<line style="fill:none;stroke:#000000;stroke-miterlimit:1;" x1="175.22" y1="30.444" x2="175.038" y2="28.068"/>
	<line style="fill:none;stroke:#000000;stroke-miterlimit:1;" x1="175.038" y1="28.068" x2="174.489" y2="26.058"/>
	<line style="fill:none;stroke:#000000;stroke-miterlimit:1;" x1="174.489" y1="26.058" x2="173.758" y2="24.23"/>
	<line style="fill:none;stroke:#000000;stroke-miterlimit:1;" x1="173.758" y1="24.23" x2="172.844" y2="21.854"/>
	<line style="fill:none;stroke:#000000;stroke-miterlimit:1;" x1="172.844" y1="21.854" x2="171.565" y2="20.027"/>
	<line style="fill:none;stroke:#000000;stroke-miterlimit:1;" x1="171.565" y1="20.027" x2="170.286" y2="18.565"/>
	<line style="fill:none;stroke:#000000;stroke-miterlimit:1;" x1="170.286" y1="18.565" x2="168.824" y2="16.737"/>
	<line style="fill:none;stroke:#000000;stroke-miterlimit:1;" x1="168.824" y1="16.737" x2="166.996" y2="15.458"/>
	<line style="fill:none;stroke:#000000;stroke-miterlimit:1;" x1="166.996" y1="15.458" x2="165.168" y2="14.179"/>
	<line style="fill:none;stroke:#000000;stroke-miterlimit:1;" x1="165.168" y1="14.179" x2="163.158" y2="13.265"/>
	<line style="fill:none;stroke:#000000;stroke-miterlimit:1;" x1="214.312" y1="48.795" x2="210.363" y2="50.771"/>
	<line style="fill:none;stroke:#000000;stroke-miterlimit:1;" x1="210.363" y1="50.771" x2="207.4" y2="54.391"/>
	<line style="fill:none;stroke:#000000;stroke-miterlimit:1;" x1="207.4" y1="54.391" x2="206.414" y2="57.354"/>
	<line style="fill:none;stroke:#000000;stroke-miterlimit:1;" x1="206.414" y1="57.354" x2="205.756" y2="60.315"/>
	<line style="fill:none;stroke:#000000;stroke-miterlimit:1;" x1="205.756" y1="60.315" x2="206.742" y2="64.923"/>
	<line style="fill:none;stroke:#000000;stroke-miterlimit:1;" x1="206.742" y1="64.923" x2="209.047" y2="67.886"/>
	<line style="fill:none;stroke:#000000;stroke-miterlimit:1;" x1="209.047" y1="67.886" x2="211.352" y2="69.861"/>
	<line style="fill:none;stroke:#000000;stroke-miterlimit:1;" x1="211.352" y1="69.861" x2="215.301" y2="71.177"/>
	<line style="fill:none;stroke:#000000;stroke-miterlimit:1;" x1="215.301" y1="71.177" x2="218.264" y2="72.165"/>
	<line style="fill:none;stroke:#000000;stroke-miterlimit:1;" x1="218.264" y1="72.165" x2="221.883" y2="72.165"/>
	<line style="fill:none;stroke:#000000;stroke-miterlimit:1;" x1="221.883" y1="72.165" x2="225.834" y2="70.519"/>
	<line style="fill:none;stroke:#000000;stroke-miterlimit:1;" x1="225.834" y1="70.519" x2="229.125" y2="68.874"/>
	<line style="fill:none;stroke:#000000;stroke-miterlimit:1;" x1="229.125" y1="68.874" x2="231.1" y2="66.569"/>
	<line style="fill:none;stroke:#000000;stroke-miterlimit:1;" x1="231.1" y1="66.569" x2="233.404" y2="63.278"/>
	<line style="fill:none;stroke:#000000;stroke-miterlimit:1;" x1="233.404" y1="63.278" x2="235.049" y2="59.328"/>
	<line style="fill:none;stroke:#000000;stroke-miterlimit:1;" x1="235.049" y1="59.328" x2="236.037" y2="56.037"/>
	<line style="fill:none;stroke:#000000;stroke-miterlimit:1;" x1="236.037" y1="56.037" x2="236.365" y2="52.745"/>
	<line style="fill:none;stroke:#000000;stroke-miterlimit:1;" x1="236.365" y1="52.745" x2="236.037" y2="50.441"/>
	<line style="fill:none;stroke:#000000;stroke-miterlimit:1;" x1="236.037" y1="50.441" x2="235.379" y2="46.492"/>
	<line style="fill:none;stroke:#000000;stroke-miterlimit:1;" x1="235.379" y1="46.492" x2="233.732" y2="43.2"/>
	<line style="fill:none;stroke:#000000;stroke-miterlimit:1;" x1="233.732" y1="43.2" x2="231.1" y2="39.909"/>
	<line style="fill:none;stroke:#000000;stroke-miterlimit:1;" x1="231.1" y1="39.909" x2="228.467" y2="37.605"/>
	<line style="fill:none;stroke:#000000;stroke-miterlimit:1;" x1="228.467" y1="37.605" x2="226.162" y2="36.617"/>
	<line style="fill:none;stroke:#000000;stroke-miterlimit:1;" x1="226.162" y1="36.617" x2="223.857" y2="35.63"/>
	<line style="fill:none;stroke:#000000;stroke-miterlimit:1;" x1="223.857" y1="35.63" x2="220.566" y2="35.301"/>
	<line style="fill:none;stroke:#000000;stroke-miterlimit:1;" x1="220.566" y1="35.301" x2="217.934" y2="34.972"/>
	<line style="fill:none;stroke:#000000;stroke-miterlimit:1;" x1="217.934" y1="34.972" x2="214.643" y2="34.972"/>
	<line style="fill:none;stroke:#000000;stroke-miterlimit:1;" x1="214.643" y1="34.972" x2="210.693" y2="35.301"/>
	<line style="fill:none;stroke:#000000;stroke-miterlimit:1;" x1="210.693" y1="35.301" x2="206.414" y2="36.617"/>
	<line style="fill:none;stroke:#000000;stroke-miterlimit:1;" x1="206.414" y1="36.617" x2="202.793" y2="38.592"/>
	<line style="fill:none;stroke:#000000;stroke-miterlimit:1;" x1="202.793" y1="38.592" x2="200.488" y2="40.567"/>
	<line style="fill:none;stroke:#000000;stroke-miterlimit:1;" x1="200.488" y1="40.567" x2="197.855" y2="42.871"/>
	<line style="fill:none;stroke:#000000;stroke-miterlimit:1;" x1="197.855" y1="42.871" x2="195.881" y2="45.175"/>
	<line style="fill:none;stroke:#000000;stroke-miterlimit:1;" x1="195.881" y1="45.175" x2="193.906" y2="48.795"/>
	<line style="fill:none;stroke:#000000;stroke-miterlimit:1;" x1="193.906" y1="48.795" x2="191.932" y2="52.416"/>
	<line style="fill:none;stroke:#000000;stroke-miterlimit:1;" x1="191.932" y1="52.416" x2="191.273" y2="55.708"/>
	<line style="fill:none;stroke:#000000;stroke-miterlimit:1;" x1="191.273" y1="55.708" x2="190.615" y2="60.315"/>
	<line style="fill:none;stroke:#000000;stroke-miterlimit:1;" x1="190.615" y1="60.315" x2="190.286" y2="64.923"/>
	<line style="fill:none;stroke:#000000;stroke-miterlimit:1;" x1="190.286" y1="64.923" x2="190.615" y2="68.544"/>
	<line style="fill:none;stroke:#000000;stroke-miterlimit:1;" x1="190.615" y1="68.544" x2="190.944" y2="73.811"/>
	<line style="fill:none;stroke:#000000;stroke-miterlimit:1;" x1="190.944" y1="73.811" x2="192.918" y2="79.076"/>
	<line style="fill:none;stroke:#000000;stroke-miterlimit:1;" x1="192.918" y1="79.076" x2="195.881" y2="85.002"/>
	<line style="fill:none;stroke:#000000;stroke-miterlimit:1;" x1="195.881" y1="85.002" x2="201.148" y2="91.914"/>
	<line style="fill:none;stroke:#000000;stroke-miterlimit:1;" x1="201.148" y1="91.914" x2="209.377" y2="99.812"/>
	<line style="fill:none;stroke:#000000;stroke-miterlimit:1;" x1="209.377" y1="99.812" x2="221.225" y2="109.357"/>
	<line style="fill:none;stroke:#000000;stroke-miterlimit:1;" x1="221.225" y1="109.357" x2="246.898" y2="123.84"/>
	<line style="fill:none;stroke:#000000;stroke-miterlimit:1;" x1="267.428" y1="49.989" x2="267.428" y2="109.234"/>
	<line style="fill:none;stroke:#000000;stroke-miterlimit:1;" x1="267.428" y1="109.234" x2="277.961" y2="109.234"/>
	<line style="fill:none;stroke:#000000;stroke-miterlimit:1;" x1="277.961" y1="109.234" x2="277.961" y2="49.989"/>
	<line style="fill:none;stroke:#000000;stroke-miterlimit:1;" x1="277.961" y1="49.989" x2="267.428" y2="49.989"/>
	<line style="fill:none;stroke:#000000;stroke-miterlimit:1;" x1="320.092" y1="49.989" x2="320.092" y2="109.234"/>
	<line style="fill:none;stroke:#000000;stroke-miterlimit:1;" x1="320.092" y1="109.234" x2="330.953" y2="109.234"/>
	<line style="fill:none;stroke:#000000;stroke-miterlimit:1;" x1="330.953" y1="109.234" x2="330.953" y2="49.989"/>
	<line style="fill:none;stroke:#000000;stroke-miterlimit:1;" x1="330.953" y1="49.989" x2="320.092" y2="49.989"/>
	<line style="fill:none;stroke:#000000;stroke-miterlimit:1;" x1="373.412" y1="49.989" x2="373.412" y2="109.234"/>
	<line style="fill:none;stroke:#000000;stroke-miterlimit:1;" x1="373.412" y1="109.234" x2="383.945" y2="109.234"/>
	<line style="fill:none;stroke:#000000;stroke-miterlimit:1;" x1="383.945" y1="109.234" x2="383.945" y2="49.989"/>
	<line style="fill:none;stroke:#000000;stroke-miterlimit:1;" x1="383.945" y1="49.989" x2="373.412" y2="49.989"/>
</g>
</svg>
