<?xml version="1.0" encoding="iso-8859-1"?>
<!-- Generator: Adobe Illustrator 16.0.1, SVG Export Plug-In . SVG Version: 6.00 Build 0)  -->
<!DOCTYPE svg PUBLIC "-//W3C//DTD SVG 1.1//EN" "http://www.w3.org/Graphics/SVG/1.1/DTD/svg11.dtd">
<svg version="1.1" id="Ebene_1" xmlns="http://www.w3.org/2000/svg" xmlns:xlink="http://www.w3.org/1999/xlink" x="0px" y="0px"
	 width="96.219px" height="148.114px" viewBox="0 0 96.219 148.114" style="enable-background:new 0 0 96.219 148.114;"
	 xml:space="preserve">
<g>
	<line style="fill:none;stroke:#000000;stroke-miterlimit:1;" x1="21.025" y1="37.24" x2="75.193" y2="37.24"/>
	<line style="fill:none;stroke:#000000;stroke-miterlimit:1;" x1="75.193" y1="37.24" x2="75.193" y2="39.378"/>
	<line style="fill:none;stroke:#000000;stroke-miterlimit:1;" x1="75.193" y1="39.378" x2="77.331" y2="39.734"/>
	<line style="fill:none;stroke:#000000;stroke-miterlimit:1;" x1="77.331" y1="39.734" x2="80.717" y2="40.804"/>
	<line style="fill:none;stroke:#000000;stroke-miterlimit:1;" x1="80.717" y1="40.804" x2="83.033" y2="42.229"/>
	<line style="fill:none;stroke:#000000;stroke-miterlimit:1;" x1="83.033" y1="42.229" x2="86.062" y2="44.367"/>
	<line style="fill:none;stroke:#000000;stroke-miterlimit:1;" x1="86.062" y1="44.367" x2="88.734" y2="47.218"/>
	<line style="fill:none;stroke:#000000;stroke-miterlimit:1;" x1="88.734" y1="47.218" x2="91.229" y2="50.604"/>
	<line style="fill:none;stroke:#000000;stroke-miterlimit:1;" x1="91.229" y1="50.604" x2="93.011" y2="53.989"/>
	<line style="fill:none;stroke:#000000;stroke-miterlimit:1;" x1="93.011" y1="53.989" x2="94.615" y2="58.266"/>
	<line style="fill:none;stroke:#000000;stroke-miterlimit:1;" x1="94.615" y1="58.266" x2="95.684" y2="62.542"/>
	<line style="fill:none;stroke:#000000;stroke-miterlimit:1;" x1="95.684" y1="62.542" x2="96.219" y2="69.669"/>
	<line style="fill:none;stroke:#000000;stroke-miterlimit:1;" x1="96.219" y1="69.669" x2="95.684" y2="73.411"/>
	<line style="fill:none;stroke:#000000;stroke-miterlimit:1;" x1="95.684" y1="73.411" x2="94.08" y2="77.688"/>
	<line style="fill:none;stroke:#000000;stroke-miterlimit:1;" x1="94.08" y1="77.688" x2="92.12" y2="79.647"/>
	<line style="fill:none;stroke:#000000;stroke-miterlimit:1;" x1="92.12" y1="79.647" x2="90.517" y2="80.004"/>
	<line style="fill:none;stroke:#000000;stroke-miterlimit:1;" x1="90.517" y1="80.004" x2="88.022" y2="79.825"/>
	<line style="fill:none;stroke:#000000;stroke-miterlimit:1;" x1="88.022" y1="79.825" x2="86.062" y2="78.222"/>
	<line style="fill:none;stroke:#000000;stroke-miterlimit:1;" x1="86.062" y1="78.222" x2="85.171" y2="76.262"/>
	<line style="fill:none;stroke:#000000;stroke-miterlimit:1;" x1="85.171" y1="76.262" x2="84.814" y2="74.124"/>
	<line style="fill:none;stroke:#000000;stroke-miterlimit:1;" x1="84.814" y1="74.124" x2="84.637" y2="72.52"/>
	<line style="fill:none;stroke:#000000;stroke-miterlimit:1;" x1="84.637" y1="72.52" x2="85.171" y2="66.997"/>
	<line style="fill:none;stroke:#000000;stroke-miterlimit:1;" x1="85.171" y1="66.997" x2="85.884" y2="60.938"/>
	<line style="fill:none;stroke:#000000;stroke-miterlimit:1;" x1="85.884" y1="60.938" x2="85.35" y2="54.702"/>
	<line style="fill:none;stroke:#000000;stroke-miterlimit:1;" x1="85.35" y1="54.702" x2="83.746" y2="50.248"/>
	<line style="fill:none;stroke:#000000;stroke-miterlimit:1;" x1="83.746" y1="50.248" x2="81.43" y2="46.684"/>
	<line style="fill:none;stroke:#000000;stroke-miterlimit:1;" x1="81.43" y1="46.684" x2="79.113" y2="44.011"/>
	<line style="fill:none;stroke:#000000;stroke-miterlimit:1;" x1="79.113" y1="44.011" x2="76.44" y2="42.942"/>
	<line style="fill:none;stroke:#000000;stroke-miterlimit:1;" x1="76.44" y1="42.942" x2="75.193" y2="42.942"/>
	<line style="fill:none;stroke:#000000;stroke-miterlimit:1;" x1="75.193" y1="42.942" x2="75.193" y2="44.902"/>
	<line style="fill:none;stroke:#000000;stroke-miterlimit:1;" x1="75.193" y1="44.902" x2="68.065" y2="44.902"/>
	<line style="fill:none;stroke:#000000;stroke-miterlimit:1;" x1="68.065" y1="44.902" x2="68.065" y2="48.644"/>
	<line style="fill:none;stroke:#000000;stroke-miterlimit:1;" x1="68.065" y1="48.644" x2="57.553" y2="48.644"/>
	<line style="fill:none;stroke:#000000;stroke-miterlimit:1;" x1="57.553" y1="48.644" x2="57.553" y2="44.902"/>
	<line style="fill:none;stroke:#000000;stroke-miterlimit:1;" x1="57.553" y1="44.902" x2="38.309" y2="44.902"/>
	<line style="fill:none;stroke:#000000;stroke-miterlimit:1;" x1="38.309" y1="44.902" x2="38.309" y2="48.644"/>
	<line style="fill:none;stroke:#000000;stroke-miterlimit:1;" x1="38.309" y1="48.644" x2="28.153" y2="48.644"/>
	<line style="fill:none;stroke:#000000;stroke-miterlimit:1;" x1="28.153" y1="48.644" x2="28.153" y2="44.902"/>
	<line style="fill:none;stroke:#000000;stroke-miterlimit:1;" x1="28.153" y1="44.902" x2="21.025" y2="44.902"/>
	<line style="fill:none;stroke:#000000;stroke-miterlimit:1;" x1="24.233" y1="37.24" x2="31.182" y2="3.207"/>
	<line style="fill:none;stroke:#000000;stroke-miterlimit:1;" x1="31.182" y1="3.207" x2="32.429" y2="1.069"/>
	<line style="fill:none;stroke:#000000;stroke-miterlimit:1;" x1="32.429" y1="1.069" x2="33.32" y2="0.356"/>
	<line style="fill:none;stroke:#000000;stroke-miterlimit:1;" x1="33.32" y1="0.356" x2="34.389" y2="0"/>
	<line style="fill:none;stroke:#000000;stroke-miterlimit:1;" x1="34.389" y1="0" x2="35.993" y2="0"/>
	<line style="fill:none;stroke:#000000;stroke-miterlimit:1;" x1="35.993" y1="0" x2="37.596" y2="0.891"/>
	<line style="fill:none;stroke:#000000;stroke-miterlimit:1;" x1="37.596" y1="0.891" x2="37.953" y2="1.96"/>
	<line style="fill:none;stroke:#000000;stroke-miterlimit:1;" x1="37.953" y1="1.96" x2="37.953" y2="3.207"/>
	<line style="fill:none;stroke:#000000;stroke-miterlimit:1;" x1="31.003" y1="37.24" x2="38.131" y2="3.029"/>
	<line style="fill:none;stroke:#000000;stroke-miterlimit:1;" x1="38.131" y1="3.029" x2="39.022" y2="1.425"/>
	<line style="fill:none;stroke:#000000;stroke-miterlimit:1;" x1="39.022" y1="1.425" x2="39.913" y2="0.534"/>
	<line style="fill:none;stroke:#000000;stroke-miterlimit:1;" x1="39.913" y1="0.534" x2="41.517" y2="0.178"/>
	<line style="fill:none;stroke:#000000;stroke-miterlimit:1;" x1="41.517" y1="0.178" x2="43.12" y2="0.712"/>
	<line style="fill:none;stroke:#000000;stroke-miterlimit:1;" x1="43.12" y1="0.712" x2="44.011" y2="1.425"/>
	<line style="fill:none;stroke:#000000;stroke-miterlimit:1;" x1="44.011" y1="1.425" x2="44.545" y2="2.495"/>
	<line style="fill:none;stroke:#000000;stroke-miterlimit:1;" x1="37.418" y1="37.24" x2="44.367" y2="3.207"/>
	<line style="fill:none;stroke:#000000;stroke-miterlimit:1;" x1="44.367" y1="3.207" x2="45.08" y2="1.604"/>
	<line style="fill:none;stroke:#000000;stroke-miterlimit:1;" x1="45.08" y1="1.604" x2="46.327" y2="0.534"/>
	<line style="fill:none;stroke:#000000;stroke-miterlimit:1;" x1="46.327" y1="0.534" x2="47.753" y2="0.356"/>
	<line style="fill:none;stroke:#000000;stroke-miterlimit:1;" x1="47.753" y1="0.356" x2="49.356" y2="0.534"/>
	<line style="fill:none;stroke:#000000;stroke-miterlimit:1;" x1="49.356" y1="0.534" x2="50.604" y2="1.604"/>
	<line style="fill:none;stroke:#000000;stroke-miterlimit:1;" x1="50.604" y1="1.604" x2="50.96" y2="3.029"/>
	<line style="fill:none;stroke:#000000;stroke-miterlimit:1;" x1="43.833" y1="37.24" x2="50.782" y2="3.563"/>
	<line style="fill:none;stroke:#000000;stroke-miterlimit:1;" x1="50.782" y1="3.563" x2="51.851" y2="1.604"/>
	<line style="fill:none;stroke:#000000;stroke-miterlimit:1;" x1="51.851" y1="1.604" x2="53.099" y2="0.534"/>
	<line style="fill:none;stroke:#000000;stroke-miterlimit:1;" x1="53.099" y1="0.534" x2="55.236" y2="0.356"/>
	<line style="fill:none;stroke:#000000;stroke-miterlimit:1;" x1="55.236" y1="0.356" x2="55.949" y2="0.534"/>
	<line style="fill:none;stroke:#000000;stroke-miterlimit:1;" x1="55.949" y1="0.534" x2="57.019" y2="1.247"/>
	<line style="fill:none;stroke:#000000;stroke-miterlimit:1;" x1="57.019" y1="1.247" x2="57.553" y2="3.029"/>
	<line style="fill:none;stroke:#000000;stroke-miterlimit:1;" x1="50.604" y1="37.24" x2="57.375" y2="3.742"/>
	<line style="fill:none;stroke:#000000;stroke-miterlimit:1;" x1="57.375" y1="3.742" x2="58.087" y2="1.96"/>
	<line style="fill:none;stroke:#000000;stroke-miterlimit:1;" x1="58.087" y1="1.96" x2="58.8" y2="0.891"/>
	<line style="fill:none;stroke:#000000;stroke-miterlimit:1;" x1="58.8" y1="0.891" x2="60.403" y2="0.178"/>
	<line style="fill:none;stroke:#000000;stroke-miterlimit:1;" x1="60.403" y1="0.178" x2="62.363" y2="0.534"/>
	<line style="fill:none;stroke:#000000;stroke-miterlimit:1;" x1="62.363" y1="0.534" x2="63.789" y2="1.425"/>
	<line style="fill:none;stroke:#000000;stroke-miterlimit:1;" x1="63.789" y1="1.425" x2="64.324" y2="2.673"/>
	<line style="fill:none;stroke:#000000;stroke-miterlimit:1;" x1="57.553" y1="37.24" x2="63.968" y2="3.92"/>
	<line style="fill:none;stroke:#000000;stroke-miterlimit:1;" x1="63.968" y1="3.92" x2="64.502" y2="2.138"/>
	<line style="fill:none;stroke:#000000;stroke-miterlimit:1;" x1="64.502" y1="2.138" x2="65.571" y2="0.712"/>
	<line style="fill:none;stroke:#000000;stroke-miterlimit:1;" x1="65.571" y1="0.712" x2="67.353" y2="0.356"/>
	<line style="fill:none;stroke:#000000;stroke-miterlimit:1;" x1="67.353" y1="0.356" x2="67.709" y2="0.178"/>
	<line style="fill:none;stroke:#000000;stroke-miterlimit:1;" x1="67.709" y1="0.178" x2="69.312" y2="0.891"/>
	<line style="fill:none;stroke:#000000;stroke-miterlimit:1;" x1="69.312" y1="0.891" x2="70.382" y2="1.96"/>
	<line style="fill:none;stroke:#000000;stroke-miterlimit:1;" x1="70.382" y1="1.96" x2="70.382" y2="3.029"/>
	<line style="fill:none;stroke:#000000;stroke-miterlimit:1;" x1="63.611" y1="37.24" x2="70.382" y2="2.851"/>
	<line style="fill:none;stroke:#000000;stroke-miterlimit:1;" x1="70.382" y1="2.851" x2="71.095" y2="1.425"/>
	<line style="fill:none;stroke:#000000;stroke-miterlimit:1;" x1="71.095" y1="1.425" x2="71.985" y2="0.534"/>
	<line style="fill:none;stroke:#000000;stroke-miterlimit:1;" x1="71.985" y1="0.534" x2="73.055" y2="0.356"/>
	<line style="fill:none;stroke:#000000;stroke-miterlimit:1;" x1="73.055" y1="0.356" x2="74.658" y2="0.356"/>
	<line style="fill:none;stroke:#000000;stroke-miterlimit:1;" x1="74.658" y1="0.356" x2="76.084" y2="0.891"/>
	<line style="fill:none;stroke:#000000;stroke-miterlimit:1;" x1="76.084" y1="0.891" x2="76.797" y2="1.96"/>
	<line style="fill:none;stroke:#000000;stroke-miterlimit:1;" x1="76.797" y1="1.96" x2="77.153" y2="3.742"/>
	<line style="fill:none;stroke:#000000;stroke-miterlimit:1;" x1="77.153" y1="3.742" x2="70.204" y2="37.24"/>
	<line style="fill:none;stroke:#000000;stroke-miterlimit:1;" x1="70.204" y1="37.24" x2="21.025" y2="37.24"/>
	<line style="fill:none;stroke:#000000;stroke-miterlimit:1;" x1="21.025" y1="37.24" x2="21.025" y2="39.557"/>
	<line style="fill:none;stroke:#000000;stroke-miterlimit:1;" x1="21.025" y1="39.557" x2="18.531" y2="39.913"/>
	<line style="fill:none;stroke:#000000;stroke-miterlimit:1;" x1="18.531" y1="39.913" x2="15.146" y2="40.982"/>
	<line style="fill:none;stroke:#000000;stroke-miterlimit:1;" x1="15.146" y1="40.982" x2="12.651" y2="42.407"/>
	<line style="fill:none;stroke:#000000;stroke-miterlimit:1;" x1="12.651" y1="42.407" x2="9.8" y2="44.724"/>
	<line style="fill:none;stroke:#000000;stroke-miterlimit:1;" x1="9.8" y1="44.724" x2="7.127" y2="47.575"/>
	<line style="fill:none;stroke:#000000;stroke-miterlimit:1;" x1="7.127" y1="47.575" x2="3.029" y2="54.524"/>
	<line style="fill:none;stroke:#000000;stroke-miterlimit:1;" x1="3.029" y1="54.524" x2="1.782" y2="58.622"/>
	<line style="fill:none;stroke:#000000;stroke-miterlimit:1;" x1="1.782" y1="58.622" x2="0.534" y2="62.898"/>
	<line style="fill:none;stroke:#000000;stroke-miterlimit:1;" x1="0.534" y1="62.898" x2="0" y2="70.026"/>
	<line style="fill:none;stroke:#000000;stroke-miterlimit:1;" x1="0" y1="70.026" x2="0.534" y2="73.768"/>
	<line style="fill:none;stroke:#000000;stroke-miterlimit:1;" x1="0.534" y1="73.768" x2="2.316" y2="77.865"/>
	<line style="fill:none;stroke:#000000;stroke-miterlimit:1;" x1="2.316" y1="77.865" x2="4.276" y2="79.825"/>
	<line style="fill:none;stroke:#000000;stroke-miterlimit:1;" x1="4.276" y1="79.825" x2="5.702" y2="80.182"/>
	<line style="fill:none;stroke:#000000;stroke-miterlimit:1;" x1="5.702" y1="80.182" x2="8.196" y2="80.004"/>
	<line style="fill:none;stroke:#000000;stroke-miterlimit:1;" x1="8.196" y1="80.004" x2="10.334" y2="78.4"/>
	<line style="fill:none;stroke:#000000;stroke-miterlimit:1;" x1="10.334" y1="78.4" x2="11.047" y2="76.44"/>
	<line style="fill:none;stroke:#000000;stroke-miterlimit:1;" x1="11.047" y1="76.44" x2="11.403" y2="74.302"/>
	<line style="fill:none;stroke:#000000;stroke-miterlimit:1;" x1="11.403" y1="74.302" x2="11.582" y2="72.698"/>
	<line style="fill:none;stroke:#000000;stroke-miterlimit:1;" x1="11.582" y1="72.698" x2="11.047" y2="67.175"/>
	<line style="fill:none;stroke:#000000;stroke-miterlimit:1;" x1="11.047" y1="67.175" x2="10.156" y2="61.117"/>
	<line style="fill:none;stroke:#000000;stroke-miterlimit:1;" x1="10.156" y1="61.117" x2="10.691" y2="55.058"/>
	<line style="fill:none;stroke:#000000;stroke-miterlimit:1;" x1="10.691" y1="55.058" x2="12.116" y2="50.604"/>
	<line style="fill:none;stroke:#000000;stroke-miterlimit:1;" x1="12.116" y1="50.604" x2="14.433" y2="46.862"/>
	<line style="fill:none;stroke:#000000;stroke-miterlimit:1;" x1="14.433" y1="46.862" x2="16.749" y2="44.189"/>
	<line style="fill:none;stroke:#000000;stroke-miterlimit:1;" x1="16.749" y1="44.189" x2="19.244" y2="43.12"/>
	<line style="fill:none;stroke:#000000;stroke-miterlimit:1;" x1="19.244" y1="43.12" x2="21.025" y2="42.942"/>
	<line style="fill:none;stroke:#000000;stroke-miterlimit:1;" x1="21.025" y1="42.942" x2="21.025" y2="44.545"/>
	<line style="fill:none;stroke:#000000;stroke-miterlimit:1;" x1="50.047" y1="90.562" x2="42.029" y2="90.918"/>
	<line style="fill:none;stroke:#000000;stroke-miterlimit:1;" x1="42.029" y1="90.918" x2="39.891" y2="91.274"/>
	<line style="fill:none;stroke:#000000;stroke-miterlimit:1;" x1="39.891" y1="91.274" x2="37.574" y2="92.878"/>
	<line style="fill:none;stroke:#000000;stroke-miterlimit:1;" x1="37.574" y1="92.878" x2="36.861" y2="94.481"/>
	<line style="fill:none;stroke:#000000;stroke-miterlimit:1;" x1="36.861" y1="94.481" x2="37.04" y2="97.154"/>
	<line style="fill:none;stroke:#000000;stroke-miterlimit:1;" x1="37.04" y1="97.154" x2="37.574" y2="99.648"/>
	<line style="fill:none;stroke:#000000;stroke-miterlimit:1;" x1="37.574" y1="99.648" x2="41.851" y2="106.241"/>
	<line style="fill:none;stroke:#000000;stroke-miterlimit:1;" x1="41.851" y1="106.241" x2="45.592" y2="109.627"/>
	<line style="fill:none;stroke:#000000;stroke-miterlimit:1;" x1="45.592" y1="109.627" x2="47.73" y2="110.34"/>
	<line style="fill:none;stroke:#000000;stroke-miterlimit:1;" x1="47.73" y1="110.34" x2="49.513" y2="110.34"/>
	<line style="fill:none;stroke:#000000;stroke-miterlimit:1;" x1="49.513" y1="110.34" x2="51.116" y2="109.627"/>
	<line style="fill:none;stroke:#000000;stroke-miterlimit:1;" x1="51.116" y1="109.627" x2="51.473" y2="108.38"/>
	<line style="fill:none;stroke:#000000;stroke-miterlimit:1;" x1="51.473" y1="108.38" x2="51.473" y2="107.311"/>
	<line style="fill:none;stroke:#000000;stroke-miterlimit:1;" x1="51.473" y1="107.311" x2="50.581" y2="105.351"/>
	<line style="fill:none;stroke:#000000;stroke-miterlimit:1;" x1="50.581" y1="105.351" x2="49.334" y2="103.212"/>
	<line style="fill:none;stroke:#000000;stroke-miterlimit:1;" x1="49.334" y1="103.212" x2="47.196" y2="101.252"/>
	<line style="fill:none;stroke:#000000;stroke-miterlimit:1;" x1="47.196" y1="101.252" x2="49.869" y2="101.787"/>
	<line style="fill:none;stroke:#000000;stroke-miterlimit:1;" x1="49.869" y1="101.787" x2="52.897" y2="101.787"/>
	<line style="fill:none;stroke:#000000;stroke-miterlimit:1;" x1="52.897" y1="101.787" x2="54.68" y2="101.608"/>
	<line style="fill:none;stroke:#000000;stroke-miterlimit:1;" x1="54.68" y1="101.608" x2="56.105" y2="101.252"/>
	<line style="fill:none;stroke:#000000;stroke-miterlimit:1;" x1="56.105" y1="101.252" x2="57.53" y2="100.183"/>
	<line style="fill:none;stroke:#000000;stroke-miterlimit:1;" x1="57.53" y1="100.183" x2="58.065" y2="98.758"/>
	<line style="fill:none;stroke:#000000;stroke-miterlimit:1;" x1="58.065" y1="98.758" x2="58.956" y2="94.659"/>
	<line style="fill:none;stroke:#000000;stroke-miterlimit:1;" x1="58.956" y1="94.659" x2="58.422" y2="90.562"/>
	<line style="fill:none;stroke:#000000;stroke-miterlimit:1;" x1="58.422" y1="90.562" x2="56.64" y2="87.889"/>
	<line style="fill:none;stroke:#000000;stroke-miterlimit:1;" x1="56.64" y1="87.889" x2="48.8" y2="79.514"/>
	<line style="fill:none;stroke:#000000;stroke-miterlimit:1;" x1="48.8" y1="79.514" x2="46.662" y2="77.197"/>
	<line style="fill:none;stroke:#000000;stroke-miterlimit:1;" x1="46.662" y1="77.197" x2="45.236" y2="74.881"/>
	<line style="fill:none;stroke:#000000;stroke-miterlimit:1;" x1="45.236" y1="74.881" x2="43.454" y2="72.03"/>
	<line style="fill:none;stroke:#000000;stroke-miterlimit:1;" x1="43.454" y1="72.03" x2="41.494" y2="70.07"/>
	<line style="fill:none;stroke:#000000;stroke-miterlimit:1;" x1="41.494" y1="70.07" x2="39.178" y2="68.645"/>
	<line style="fill:none;stroke:#000000;stroke-miterlimit:1;" x1="39.178" y1="68.645" x2="36.505" y2="68.11"/>
	<line style="fill:none;stroke:#000000;stroke-miterlimit:1;" x1="36.505" y1="68.11" x2="34.01" y2="67.932"/>
	<line style="fill:none;stroke:#000000;stroke-miterlimit:1;" x1="34.01" y1="67.932" x2="31.338" y2="68.645"/>
	<line style="fill:none;stroke:#000000;stroke-miterlimit:1;" x1="31.338" y1="68.645" x2="29.556" y2="69.892"/>
	<line style="fill:none;stroke:#000000;stroke-miterlimit:1;" x1="29.556" y1="69.892" x2="28.13" y2="71.139"/>
	<line style="fill:none;stroke:#000000;stroke-miterlimit:1;" x1="28.13" y1="71.139" x2="27.417" y2="72.743"/>
	<line style="fill:none;stroke:#000000;stroke-miterlimit:1;" x1="27.417" y1="72.743" x2="27.239" y2="73.277"/>
	<line style="fill:none;stroke:#000000;stroke-miterlimit:1;" x1="27.239" y1="73.277" x2="25.814" y2="73.99"/>
	<line style="fill:none;stroke:#000000;stroke-miterlimit:1;" x1="25.814" y1="73.99" x2="23.141" y2="74.881"/>
	<line style="fill:none;stroke:#000000;stroke-miterlimit:1;" x1="23.141" y1="74.881" x2="22.429" y2="75.594"/>
	<line style="fill:none;stroke:#000000;stroke-miterlimit:1;" x1="22.429" y1="75.594" x2="21.716" y2="76.841"/>
	<line style="fill:none;stroke:#000000;stroke-miterlimit:1;" x1="21.716" y1="76.841" x2="22.963" y2="76.307"/>
	<line style="fill:none;stroke:#000000;stroke-miterlimit:1;" x1="22.963" y1="76.307" x2="24.923" y2="76.307"/>
	<line style="fill:none;stroke:#000000;stroke-miterlimit:1;" x1="24.923" y1="76.307" x2="27.062" y2="76.484"/>
	<line style="fill:none;stroke:#000000;stroke-miterlimit:1;" x1="27.062" y1="76.484" x2="28.487" y2="77.02"/>
	<line style="fill:none;stroke:#000000;stroke-miterlimit:1;" x1="27.239" y1="73.277" x2="27.774" y2="74.525"/>
	<line style="fill:none;stroke:#000000;stroke-miterlimit:1;" x1="27.774" y1="74.525" x2="28.309" y2="75.772"/>
	<line style="fill:none;stroke:#000000;stroke-miterlimit:1;" x1="21.716" y1="76.841" x2="23.141" y2="77.197"/>
	<line style="fill:none;stroke:#000000;stroke-miterlimit:1;" x1="23.141" y1="77.197" x2="24.923" y2="77.732"/>
	<line style="fill:none;stroke:#000000;stroke-miterlimit:1;" x1="24.923" y1="77.732" x2="26.17" y2="78.801"/>
	<line style="fill:none;stroke:#000000;stroke-miterlimit:1;" x1="26.17" y1="78.801" x2="28.309" y2="81.296"/>
	<line style="fill:none;stroke:#000000;stroke-miterlimit:1;" x1="28.309" y1="81.296" x2="28.843" y2="83.077"/>
	<line style="fill:none;stroke:#000000;stroke-miterlimit:1;" x1="28.843" y1="83.077" x2="29.2" y2="84.682"/>
	<line style="fill:none;stroke:#000000;stroke-miterlimit:1;" x1="29.2" y1="84.682" x2="30.09" y2="93.056"/>
	<line style="fill:none;stroke:#000000;stroke-miterlimit:1;" x1="30.09" y1="93.056" x2="30.981" y2="96.976"/>
	<line style="fill:none;stroke:#000000;stroke-miterlimit:1;" x1="30.981" y1="96.976" x2="32.05" y2="100.005"/>
	<line style="fill:none;stroke:#000000;stroke-miterlimit:1;" x1="32.05" y1="100.005" x2="36.505" y2="107.311"/>
	<line style="fill:none;stroke:#000000;stroke-miterlimit:1;" x1="36.505" y1="107.311" x2="38.643" y2="110.696"/>
	<line style="fill:none;stroke:#000000;stroke-miterlimit:1;" x1="38.643" y1="110.696" x2="42.207" y2="116.754"/>
	<line style="fill:none;stroke:#000000;stroke-miterlimit:1;" x1="42.207" y1="116.754" x2="45.058" y2="120.674"/>
	<line style="fill:none;stroke:#000000;stroke-miterlimit:1;" x1="45.058" y1="120.674" x2="49.334" y2="124.95"/>
	<line style="fill:none;stroke:#000000;stroke-miterlimit:1;" x1="49.334" y1="124.95" x2="54.323" y2="130.83"/>
	<line style="fill:none;stroke:#000000;stroke-miterlimit:1;" x1="54.323" y1="130.83" x2="55.749" y2="132.79"/>
	<line style="fill:none;stroke:#000000;stroke-miterlimit:1;" x1="55.749" y1="132.79" x2="55.749" y2="133.859"/>
	<line style="fill:none;stroke:#000000;stroke-miterlimit:1;" x1="55.749" y1="133.859" x2="53.076" y2="144.194"/>
	<line style="fill:none;stroke:#000000;stroke-miterlimit:1;" x1="53.076" y1="144.194" x2="52.541" y2="144.729"/>
	<line style="fill:none;stroke:#000000;stroke-miterlimit:1;" x1="52.541" y1="144.729" x2="51.473" y2="145.085"/>
	<line style="fill:none;stroke:#000000;stroke-miterlimit:1;" x1="51.473" y1="145.085" x2="42.919" y2="145.62"/>
	<line style="fill:none;stroke:#000000;stroke-miterlimit:1;" x1="42.919" y1="145.62" x2="40.781" y2="145.976"/>
	<line style="fill:none;stroke:#000000;stroke-miterlimit:1;" x1="40.781" y1="145.976" x2="39.891" y2="146.332"/>
	<line style="fill:none;stroke:#000000;stroke-miterlimit:1;" x1="39.891" y1="146.332" x2="39.178" y2="147.224"/>
	<line style="fill:none;stroke:#000000;stroke-miterlimit:1;" x1="39.178" y1="147.224" x2="39.178" y2="147.758"/>
	<line style="fill:none;stroke:#000000;stroke-miterlimit:1;" x1="39.178" y1="147.758" x2="39.712" y2="147.936"/>
	<line style="fill:none;stroke:#000000;stroke-miterlimit:1;" x1="39.712" y1="147.936" x2="40.959" y2="147.045"/>
	<line style="fill:none;stroke:#000000;stroke-miterlimit:1;" x1="40.959" y1="147.045" x2="41.672" y2="147.936"/>
	<line style="fill:none;stroke:#000000;stroke-miterlimit:1;" x1="41.672" y1="147.936" x2="52.007" y2="147.224"/>
	<line style="fill:none;stroke:#000000;stroke-miterlimit:1;" x1="52.007" y1="147.224" x2="61.807" y2="147.58"/>
	<line style="fill:none;stroke:#000000;stroke-miterlimit:1;" x1="61.807" y1="147.58" x2="62.876" y2="147.401"/>
	<line style="fill:none;stroke:#000000;stroke-miterlimit:1;" x1="62.876" y1="147.401" x2="62.876" y2="146.867"/>
	<line style="fill:none;stroke:#000000;stroke-miterlimit:1;" x1="62.876" y1="146.867" x2="62.698" y2="146.332"/>
	<line style="fill:none;stroke:#000000;stroke-miterlimit:1;" x1="62.698" y1="146.332" x2="63.589" y2="147.936"/>
	<line style="fill:none;stroke:#000000;stroke-miterlimit:1;" x1="63.589" y1="147.936" x2="64.479" y2="147.936"/>
	<line style="fill:none;stroke:#000000;stroke-miterlimit:1;" x1="64.479" y1="147.936" x2="64.123" y2="146.511"/>
	<line style="fill:none;stroke:#000000;stroke-miterlimit:1;" x1="64.123" y1="146.511" x2="63.232" y2="145.798"/>
	<line style="fill:none;stroke:#000000;stroke-miterlimit:1;" x1="63.232" y1="145.798" x2="62.52" y2="145.264"/>
	<line style="fill:none;stroke:#000000;stroke-miterlimit:1;" x1="62.52" y1="145.264" x2="55.57" y2="144.907"/>
	<line style="fill:none;stroke:#000000;stroke-miterlimit:1;" x1="55.57" y1="144.907" x2="58.956" y2="134.395"/>
	<line style="fill:none;stroke:#000000;stroke-miterlimit:1;" x1="58.956" y1="134.395" x2="59.312" y2="132.969"/>
	<line style="fill:none;stroke:#000000;stroke-miterlimit:1;" x1="59.312" y1="132.969" x2="59.134" y2="131.899"/>
	<line style="fill:none;stroke:#000000;stroke-miterlimit:1;" x1="59.134" y1="131.899" x2="56.64" y2="125.129"/>
	<line style="fill:none;stroke:#000000;stroke-miterlimit:1;" x1="56.64" y1="125.129" x2="59.312" y2="125.842"/>
	<line style="fill:none;stroke:#000000;stroke-miterlimit:1;" x1="59.312" y1="125.842" x2="63.41" y2="126.554"/>
	<line style="fill:none;stroke:#000000;stroke-miterlimit:1;" x1="63.41" y1="126.554" x2="66.796" y2="126.554"/>
	<line style="fill:none;stroke:#000000;stroke-miterlimit:1;" x1="66.796" y1="126.554" x2="70.359" y2="126.02"/>
	<line style="fill:none;stroke:#000000;stroke-miterlimit:1;" x1="70.359" y1="126.02" x2="73.211" y2="124.594"/>
	<line style="fill:none;stroke:#000000;stroke-miterlimit:1;" x1="73.211" y1="124.594" x2="76.952" y2="125.129"/>
	<line style="fill:none;stroke:#000000;stroke-miterlimit:1;" x1="76.952" y1="125.129" x2="79.804" y2="125.129"/>
	<line style="fill:none;stroke:#000000;stroke-miterlimit:1;" x1="79.804" y1="125.129" x2="81.229" y2="124.594"/>
	<line style="fill:none;stroke:#000000;stroke-miterlimit:1;" x1="81.229" y1="124.594" x2="81.407" y2="123.525"/>
	<line style="fill:none;stroke:#000000;stroke-miterlimit:1;" x1="81.407" y1="123.525" x2="80.516" y2="121.387"/>
	<line style="fill:none;stroke:#000000;stroke-miterlimit:1;" x1="80.516" y1="121.387" x2="78.556" y2="119.604"/>
	<line style="fill:none;stroke:#000000;stroke-miterlimit:1;" x1="78.556" y1="119.604" x2="77.665" y2="118.893"/>
	<line style="fill:none;stroke:#000000;stroke-miterlimit:1;" x1="77.665" y1="118.893" x2="77.309" y2="118.536"/>
	<line style="fill:none;stroke:#000000;stroke-miterlimit:1;" x1="77.309" y1="118.536" x2="74.636" y2="112.656"/>
	<line style="fill:none;stroke:#000000;stroke-miterlimit:1;" x1="74.636" y1="112.656" x2="71.963" y2="107.845"/>
	<line style="fill:none;stroke:#000000;stroke-miterlimit:1;" x1="71.963" y1="107.845" x2="69.646" y2="103.568"/>
	<line style="fill:none;stroke:#000000;stroke-miterlimit:1;" x1="69.646" y1="103.568" x2="66.439" y2="99.471"/>
	<line style="fill:none;stroke:#000000;stroke-miterlimit:1;" x1="66.439" y1="99.471" x2="62.876" y2="96.263"/>
	<line style="fill:none;stroke:#000000;stroke-miterlimit:1;" x1="62.876" y1="96.263" x2="59.134" y2="93.056"/>
	<line style="fill:none;stroke:#000000;stroke-miterlimit:1;" x1="42.029" y1="116.576" x2="45.771" y2="132.612"/>
	<line style="fill:none;stroke:#000000;stroke-miterlimit:1;" x1="45.771" y1="132.612" x2="45.414" y2="134.572"/>
	<line style="fill:none;stroke:#000000;stroke-miterlimit:1;" x1="45.414" y1="134.572" x2="42.207" y2="144.016"/>
	<line style="fill:none;stroke:#000000;stroke-miterlimit:1;" x1="42.207" y1="144.016" x2="40.959" y2="145.264"/>
	<line style="fill:none;stroke:#000000;stroke-miterlimit:1;" x1="40.959" y1="145.264" x2="39.891" y2="145.264"/>
	<line style="fill:none;stroke:#000000;stroke-miterlimit:1;" x1="39.891" y1="145.264" x2="31.338" y2="145.62"/>
	<line style="fill:none;stroke:#000000;stroke-miterlimit:1;" x1="31.338" y1="145.62" x2="29.2" y2="146.332"/>
	<line style="fill:none;stroke:#000000;stroke-miterlimit:1;" x1="29.2" y1="146.332" x2="28.309" y2="147.045"/>
	<line style="fill:none;stroke:#000000;stroke-miterlimit:1;" x1="28.309" y1="147.045" x2="27.952" y2="147.758"/>
	<line style="fill:none;stroke:#000000;stroke-miterlimit:1;" x1="27.952" y1="147.758" x2="28.309" y2="148.114"/>
	<line style="fill:none;stroke:#000000;stroke-miterlimit:1;" x1="28.309" y1="148.114" x2="29.912" y2="146.867"/>
	<line style="fill:none;stroke:#000000;stroke-miterlimit:1;" x1="29.912" y1="146.867" x2="31.516" y2="147.936"/>
	<line style="fill:none;stroke:#000000;stroke-miterlimit:1;" x1="31.516" y1="147.936" x2="39.178" y2="147.758"/>
	<line style="fill:none;stroke:#000000;stroke-miterlimit:1;" x1="44.879" y1="145.62" x2="44.879" y2="144.194"/>
	<line style="fill:none;stroke:#000000;stroke-miterlimit:1;" x1="44.879" y1="144.194" x2="45.414" y2="142.412"/>
	<line style="fill:none;stroke:#000000;stroke-miterlimit:1;" x1="45.414" y1="142.412" x2="49.513" y2="132.969"/>
	<line style="fill:none;stroke:#000000;stroke-miterlimit:1;" x1="49.513" y1="132.969" x2="49.513" y2="132.078"/>
	<line style="fill:none;stroke:#000000;stroke-miterlimit:1;" x1="49.513" y1="132.078" x2="48.621" y2="124.416"/>
	<line style="fill:none;stroke:#000000;stroke-miterlimit:1;" x1="30.981" y1="74.347" x2="31.516" y2="73.277"/>
	<line style="fill:none;stroke:#000000;stroke-miterlimit:1;" x1="31.516" y1="73.277" x2="32.407" y2="72.921"/>
	<line style="fill:none;stroke:#000000;stroke-miterlimit:1;" x1="32.407" y1="72.921" x2="33.654" y2="72.921"/>
	<line style="fill:none;stroke:#000000;stroke-miterlimit:1;" x1="33.654" y1="72.921" x2="34.901" y2="73.456"/>
	<line style="fill:none;stroke:#000000;stroke-miterlimit:1;" x1="34.901" y1="73.456" x2="35.436" y2="73.99"/>
	<line style="fill:none;stroke:#000000;stroke-miterlimit:1;" x1="35.436" y1="73.99" x2="35.614" y2="74.525"/>
	<line style="fill:none;stroke:#000000;stroke-miterlimit:1;" x1="35.614" y1="74.525" x2="34.723" y2="74.881"/>
	<line style="fill:none;stroke:#000000;stroke-miterlimit:1;" x1="34.723" y1="74.881" x2="32.585" y2="75.237"/>
	<line style="fill:none;stroke:#000000;stroke-miterlimit:1;" x1="32.585" y1="75.237" x2="31.516" y2="74.881"/>
	<line style="fill:none;stroke:#000000;stroke-miterlimit:1;" x1="31.516" y1="74.881" x2="30.981" y2="74.347"/>
</g>
</svg>
