<?xml version="1.0" encoding="iso-8859-1"?>
<!-- Generator: Adobe Illustrator 16.0.1, SVG Export Plug-In . SVG Version: 6.00 Build 0)  -->
<!DOCTYPE svg PUBLIC "-//W3C//DTD SVG 1.1//EN" "http://www.w3.org/Graphics/SVG/1.1/DTD/svg11.dtd">
<svg version="1.1" id="Ebene_1" xmlns="http://www.w3.org/2000/svg" xmlns:xlink="http://www.w3.org/1999/xlink" x="0px" y="0px"
	 width="138.876px" height="148.115px" viewBox="0 0 138.876 148.115" style="enable-background:new 0 0 138.876 148.115;"
	 xml:space="preserve">
<g>
	<line style="fill:none;stroke:#000000;stroke-miterlimit:1;" x1="43.792" y1="94.484" x2="61.79" y2="94.484"/>
	<line style="fill:none;stroke:#000000;stroke-miterlimit:1;" x1="61.79" y1="94.484" x2="61.489" y2="87.885"/>
	<line style="fill:none;stroke:#000000;stroke-miterlimit:1;" x1="61.489" y1="87.885" x2="63.289" y2="79.186"/>
	<line style="fill:none;stroke:#000000;stroke-miterlimit:1;" x1="63.289" y1="79.186" x2="65.089" y2="74.087"/>
	<line style="fill:none;stroke:#000000;stroke-miterlimit:1;" x1="65.089" y1="74.087" x2="68.688" y2="65.989"/>
	<line style="fill:none;stroke:#000000;stroke-miterlimit:1;" x1="68.688" y1="65.989" x2="85.186" y2="36.894"/>
	<line style="fill:none;stroke:#000000;stroke-miterlimit:1;" x1="85.186" y1="36.894" x2="86.085" y2="30.595"/>
	<line style="fill:none;stroke:#000000;stroke-miterlimit:1;" x1="86.085" y1="30.595" x2="86.385" y2="27.595"/>
	<line style="fill:none;stroke:#000000;stroke-miterlimit:1;" x1="86.385" y1="27.595" x2="85.785" y2="22.196"/>
	<line style="fill:none;stroke:#000000;stroke-miterlimit:1;" x1="85.785" y1="22.196" x2="84.886" y2="18.597"/>
	<line style="fill:none;stroke:#000000;stroke-miterlimit:1;" x1="84.886" y1="18.597" x2="83.386" y2="14.098"/>
	<line style="fill:none;stroke:#000000;stroke-miterlimit:1;" x1="83.386" y1="14.098" x2="80.687" y2="9.898"/>
	<line style="fill:none;stroke:#000000;stroke-miterlimit:1;" x1="80.687" y1="9.898" x2="78.587" y2="7.499"/>
	<line style="fill:none;stroke:#000000;stroke-miterlimit:1;" x1="78.587" y1="7.499" x2="73.188" y2="2.4"/>
	<line style="fill:none;stroke:#000000;stroke-miterlimit:1;" x1="73.188" y1="2.4" x2="68.988" y2="0.9"/>
	<line style="fill:none;stroke:#000000;stroke-miterlimit:1;" x1="68.988" y1="0.9" x2="60.29" y2="0"/>
	<line style="fill:none;stroke:#000000;stroke-miterlimit:1;" x1="60.29" y1="0" x2="53.091" y2="0.9"/>
	<line style="fill:none;stroke:#000000;stroke-miterlimit:1;" x1="53.091" y1="0.9" x2="50.091" y2="2.1"/>
	<line style="fill:none;stroke:#000000;stroke-miterlimit:1;" x1="50.091" y1="2.1" x2="46.492" y2="4.5"/>
	<line style="fill:none;stroke:#000000;stroke-miterlimit:1;" x1="46.492" y1="4.5" x2="43.193" y2="8.099"/>
	<line style="fill:none;stroke:#000000;stroke-miterlimit:1;" x1="43.193" y1="8.099" x2="41.693" y2="10.198"/>
	<line style="fill:none;stroke:#000000;stroke-miterlimit:1;" x1="41.693" y1="10.198" x2="40.193" y2="11.998"/>
	<line style="fill:none;stroke:#000000;stroke-miterlimit:1;" x1="39.293" y1="12.298" x2="36.594" y2="13.498"/>
	<line style="fill:none;stroke:#000000;stroke-miterlimit:1;" x1="36.594" y1="13.498" x2="7.199" y2="19.197"/>
	<line style="fill:none;stroke:#000000;stroke-miterlimit:1;" x1="7.199" y1="19.197" x2="4.5" y2="21.296"/>
	<line style="fill:none;stroke:#000000;stroke-miterlimit:1;" x1="4.5" y1="21.296" x2="2.4" y2="22.796"/>
	<line style="fill:none;stroke:#000000;stroke-miterlimit:1;" x1="2.4" y1="22.796" x2="0.6" y2="26.096"/>
	<line style="fill:none;stroke:#000000;stroke-miterlimit:1;" x1="0.6" y1="26.096" x2="0" y2="30.895"/>
	<line style="fill:none;stroke:#000000;stroke-miterlimit:1;" x1="0" y1="30.895" x2="0.3" y2="32.095"/>
	<line style="fill:none;stroke:#000000;stroke-miterlimit:1;" x1="0.3" y1="32.095" x2="1.2" y2="32.694"/>
	<line style="fill:none;stroke:#000000;stroke-miterlimit:1;" x1="1.2" y1="32.694" x2="1.8" y2="32.694"/>
	<line style="fill:none;stroke:#000000;stroke-miterlimit:1;" x1="1.8" y1="32.694" x2="3.3" y2="32.095"/>
	<line style="fill:none;stroke:#000000;stroke-miterlimit:1;" x1="3.3" y1="32.095" x2="3.899" y2="29.395"/>
	<line style="fill:none;stroke:#000000;stroke-miterlimit:1;" x1="3.899" y1="29.395" x2="5.699" y2="26.695"/>
	<line style="fill:none;stroke:#000000;stroke-miterlimit:1;" x1="5.699" y1="26.695" x2="8.399" y2="24.296"/>
	<line style="fill:none;stroke:#000000;stroke-miterlimit:1;" x1="8.399" y1="24.296" x2="11.398" y2="23.396"/>
	<line style="fill:none;stroke:#000000;stroke-miterlimit:1;" x1="11.398" y1="23.396" x2="15.297" y2="22.196"/>
	<line style="fill:none;stroke:#000000;stroke-miterlimit:1;" x1="15.297" y1="22.196" x2="39.593" y2="18.897"/>
	<line style="fill:none;stroke:#000000;stroke-miterlimit:1;" x1="39.593" y1="18.897" x2="40.193" y2="18.597"/>
	<line style="fill:none;stroke:#000000;stroke-miterlimit:1;" x1="40.193" y1="18.597" x2="43.792" y2="19.197"/>
	<line style="fill:none;stroke:#000000;stroke-miterlimit:1;" x1="39.593" y1="12.298" x2="43.792" y2="19.497"/>
	<line style="fill:none;stroke:#000000;stroke-miterlimit:1;" x1="43.792" y1="19.497" x2="43.792" y2="23.396"/>
	<line style="fill:none;stroke:#000000;stroke-miterlimit:1;" x1="4.5" y1="29.095" x2="7.199" y2="27.295"/>
	<line style="fill:none;stroke:#000000;stroke-miterlimit:1;" x1="7.199" y1="27.295" x2="11.698" y2="26.096"/>
	<line style="fill:none;stroke:#000000;stroke-miterlimit:1;" x1="11.698" y1="26.096" x2="23.396" y2="24.896"/>
	<line style="fill:none;stroke:#000000;stroke-miterlimit:1;" x1="23.396" y1="24.896" x2="35.094" y2="23.396"/>
	<line style="fill:none;stroke:#000000;stroke-miterlimit:1;" x1="35.094" y1="23.396" x2="39.893" y2="23.396"/>
	<line style="fill:none;stroke:#000000;stroke-miterlimit:1;" x1="39.893" y1="23.396" x2="44.092" y2="23.396"/>
	<line style="fill:none;stroke:#000000;stroke-miterlimit:1;" x1="44.092" y1="23.396" x2="46.492" y2="23.696"/>
	<line style="fill:none;stroke:#000000;stroke-miterlimit:1;" x1="46.492" y1="23.696" x2="51.291" y2="24.896"/>
	<line style="fill:none;stroke:#000000;stroke-miterlimit:1;" x1="51.291" y1="24.896" x2="59.69" y2="26.396"/>
	<line style="fill:none;stroke:#000000;stroke-miterlimit:1;" x1="59.69" y1="26.396" x2="64.189" y2="26.695"/>
	<line style="fill:none;stroke:#000000;stroke-miterlimit:1;" x1="64.189" y1="26.695" x2="67.488" y2="26.396"/>
	<line style="fill:none;stroke:#000000;stroke-miterlimit:1;" x1="67.488" y1="26.396" x2="71.088" y2="25.496"/>
	<line style="fill:none;stroke:#000000;stroke-miterlimit:1;" x1="71.088" y1="25.496" x2="73.188" y2="26.695"/>
	<line style="fill:none;stroke:#000000;stroke-miterlimit:1;" x1="73.188" y1="26.695" x2="74.087" y2="28.195"/>
	<line style="fill:none;stroke:#000000;stroke-miterlimit:1;" x1="74.087" y1="28.195" x2="74.387" y2="31.794"/>
	<line style="fill:none;stroke:#000000;stroke-miterlimit:1;" x1="74.387" y1="31.794" x2="74.087" y2="34.794"/>
	<line style="fill:none;stroke:#000000;stroke-miterlimit:1;" x1="74.087" y1="34.794" x2="72.588" y2="38.394"/>
	<line style="fill:none;stroke:#000000;stroke-miterlimit:1;" x1="72.588" y1="38.394" x2="59.39" y2="55.791"/>
	<line style="fill:none;stroke:#000000;stroke-miterlimit:1;" x1="59.39" y1="55.791" x2="52.791" y2="66.289"/>
	<line style="fill:none;stroke:#000000;stroke-miterlimit:1;" x1="52.791" y1="66.289" x2="50.091" y2="71.688"/>
	<line style="fill:none;stroke:#000000;stroke-miterlimit:1;" x1="50.091" y1="71.688" x2="46.792" y2="77.986"/>
	<line style="fill:none;stroke:#000000;stroke-miterlimit:1;" x1="46.792" y1="77.986" x2="44.992" y2="86.086"/>
	<line style="fill:none;stroke:#000000;stroke-miterlimit:1;" x1="44.992" y1="86.086" x2="43.792" y2="94.484"/>
	<line style="fill:none;stroke:#000000;stroke-miterlimit:1;" x1="69.588" y1="1.2" x2="85.186" y2="6.899"/>
	<line style="fill:none;stroke:#000000;stroke-miterlimit:1;" x1="85.186" y1="6.899" x2="100.482" y2="10.798"/>
	<line style="fill:none;stroke:#000000;stroke-miterlimit:1;" x1="100.482" y1="10.798" x2="106.781" y2="11.998"/>
	<line style="fill:none;stroke:#000000;stroke-miterlimit:1;" x1="106.781" y1="11.998" x2="112.181" y2="12.298"/>
	<line style="fill:none;stroke:#000000;stroke-miterlimit:1;" x1="112.181" y1="12.298" x2="118.779" y2="12.298"/>
	<line style="fill:none;stroke:#000000;stroke-miterlimit:1;" x1="118.779" y1="12.298" x2="125.979" y2="11.998"/>
	<line style="fill:none;stroke:#000000;stroke-miterlimit:1;" x1="125.979" y1="11.998" x2="131.377" y2="10.798"/>
	<line style="fill:none;stroke:#000000;stroke-miterlimit:1;" x1="131.377" y1="10.798" x2="136.776" y2="9.599"/>
	<line style="fill:none;stroke:#000000;stroke-miterlimit:1;" x1="136.776" y1="9.599" x2="137.376" y2="10.198"/>
	<line style="fill:none;stroke:#000000;stroke-miterlimit:1;" x1="137.376" y1="10.198" x2="136.776" y2="12.298"/>
	<line style="fill:none;stroke:#000000;stroke-miterlimit:1;" x1="136.776" y1="12.298" x2="134.677" y2="13.798"/>
	<line style="fill:none;stroke:#000000;stroke-miterlimit:1;" x1="134.677" y1="13.798" x2="127.478" y2="15.297"/>
	<line style="fill:none;stroke:#000000;stroke-miterlimit:1;" x1="127.478" y1="15.297" x2="120.279" y2="16.197"/>
	<line style="fill:none;stroke:#000000;stroke-miterlimit:1;" x1="120.279" y1="16.197" x2="112.181" y2="16.197"/>
	<line style="fill:none;stroke:#000000;stroke-miterlimit:1;" x1="112.181" y1="16.197" x2="105.282" y2="15.597"/>
	<line style="fill:none;stroke:#000000;stroke-miterlimit:1;" x1="105.282" y1="15.597" x2="93.584" y2="13.498"/>
	<line style="fill:none;stroke:#000000;stroke-miterlimit:1;" x1="93.584" y1="13.498" x2="86.985" y2="11.398"/>
	<line style="fill:none;stroke:#000000;stroke-miterlimit:1;" x1="78.587" y1="6.899" x2="90.284" y2="13.198"/>
	<line style="fill:none;stroke:#000000;stroke-miterlimit:1;" x1="90.284" y1="13.198" x2="101.982" y2="19.197"/>
	<line style="fill:none;stroke:#000000;stroke-miterlimit:1;" x1="101.982" y1="19.197" x2="109.181" y2="22.796"/>
	<line style="fill:none;stroke:#000000;stroke-miterlimit:1;" x1="109.181" y1="22.796" x2="114.58" y2="24.896"/>
	<line style="fill:none;stroke:#000000;stroke-miterlimit:1;" x1="114.58" y1="24.896" x2="120.579" y2="26.396"/>
	<line style="fill:none;stroke:#000000;stroke-miterlimit:1;" x1="120.579" y1="26.396" x2="124.778" y2="26.996"/>
	<line style="fill:none;stroke:#000000;stroke-miterlimit:1;" x1="124.778" y1="26.996" x2="132.577" y2="27.896"/>
	<line style="fill:none;stroke:#000000;stroke-miterlimit:1;" x1="132.577" y1="27.896" x2="135.876" y2="27.295"/>
	<line style="fill:none;stroke:#000000;stroke-miterlimit:1;" x1="135.876" y1="27.295" x2="137.376" y2="26.996"/>
	<line style="fill:none;stroke:#000000;stroke-miterlimit:1;" x1="137.376" y1="26.996" x2="138.576" y2="27.896"/>
	<line style="fill:none;stroke:#000000;stroke-miterlimit:1;" x1="138.576" y1="27.896" x2="138.876" y2="29.695"/>
	<line style="fill:none;stroke:#000000;stroke-miterlimit:1;" x1="138.876" y1="29.695" x2="134.377" y2="31.195"/>
	<line style="fill:none;stroke:#000000;stroke-miterlimit:1;" x1="134.377" y1="31.195" x2="128.978" y2="31.794"/>
	<line style="fill:none;stroke:#000000;stroke-miterlimit:1;" x1="128.978" y1="31.794" x2="122.979" y2="30.895"/>
	<line style="fill:none;stroke:#000000;stroke-miterlimit:1;" x1="122.979" y1="30.895" x2="114.58" y2="29.095"/>
	<line style="fill:none;stroke:#000000;stroke-miterlimit:1;" x1="114.58" y1="29.095" x2="107.382" y2="26.695"/>
	<line style="fill:none;stroke:#000000;stroke-miterlimit:1;" x1="107.382" y1="26.695" x2="100.482" y2="23.396"/>
	<line style="fill:none;stroke:#000000;stroke-miterlimit:1;" x1="100.482" y1="23.396" x2="83.686" y2="13.798"/>
	<line style="fill:none;stroke:#000000;stroke-miterlimit:1;" x1="53.391" y1="8.699" x2="51.591" y2="8.999"/>
	<line style="fill:none;stroke:#000000;stroke-miterlimit:1;" x1="51.591" y1="8.999" x2="50.091" y2="10.798"/>
	<line style="fill:none;stroke:#000000;stroke-miterlimit:1;" x1="50.091" y1="10.798" x2="50.091" y2="12.898"/>
	<line style="fill:none;stroke:#000000;stroke-miterlimit:1;" x1="50.091" y1="12.898" x2="51.591" y2="14.397"/>
	<line style="fill:none;stroke:#000000;stroke-miterlimit:1;" x1="51.591" y1="14.397" x2="53.691" y2="14.397"/>
	<line style="fill:none;stroke:#000000;stroke-miterlimit:1;" x1="53.691" y1="14.397" x2="55.791" y2="13.498"/>
	<line style="fill:none;stroke:#000000;stroke-miterlimit:1;" x1="55.791" y1="13.498" x2="56.09" y2="12.298"/>
	<line style="fill:none;stroke:#000000;stroke-miterlimit:1;" x1="56.09" y1="12.298" x2="55.49" y2="10.499"/>
	<line style="fill:none;stroke:#000000;stroke-miterlimit:1;" x1="55.49" y1="10.499" x2="53.991" y2="8.699"/>
	<line style="fill:none;stroke:#000000;stroke-miterlimit:1;" x1="76.368" y1="146.016" x2="78.768" y2="147.514"/>
	<line style="fill:none;stroke:#000000;stroke-miterlimit:1;" x1="78.768" y1="147.514" x2="80.567" y2="148.115"/>
	<line style="fill:none;stroke:#000000;stroke-miterlimit:1;" x1="80.567" y1="148.115" x2="81.468" y2="148.115"/>
	<line style="fill:none;stroke:#000000;stroke-miterlimit:1;" x1="81.468" y1="148.115" x2="82.367" y2="147.215"/>
	<line style="fill:none;stroke:#000000;stroke-miterlimit:1;" x1="82.367" y1="147.215" x2="83.567" y2="146.016"/>
	<line style="fill:none;stroke:#000000;stroke-miterlimit:1;" x1="83.567" y1="146.016" x2="89.566" y2="135.518"/>
	<line style="fill:none;stroke:#000000;stroke-miterlimit:1;" x1="89.566" y1="135.518" x2="89.566" y2="134.018"/>
	<line style="fill:none;stroke:#000000;stroke-miterlimit:1;" x1="89.566" y1="134.018" x2="89.266" y2="133.418"/>
	<line style="fill:none;stroke:#000000;stroke-miterlimit:1;" x1="89.266" y1="133.418" x2="88.666" y2="132.518"/>
	<line style="fill:none;stroke:#000000;stroke-miterlimit:1;" x1="88.666" y1="132.518" x2="86.566" y2="131.318"/>
	<line style="fill:none;stroke:#000000;stroke-miterlimit:1;" x1="86.566" y1="131.318" x2="37.375" y2="108.221"/>
	<line style="fill:none;stroke:#000000;stroke-miterlimit:1;" x1="37.375" y1="108.221" x2="36.175" y2="107.922"/>
	<line style="fill:none;stroke:#000000;stroke-miterlimit:1;" x1="36.175" y1="107.922" x2="34.676" y2="107.621"/>
	<line style="fill:none;stroke:#000000;stroke-miterlimit:1;" x1="34.676" y1="107.621" x2="33.176" y2="108.221"/>
	<line style="fill:none;stroke:#000000;stroke-miterlimit:1;" x1="33.176" y1="108.221" x2="31.676" y2="109.121"/>
	<line style="fill:none;stroke:#000000;stroke-miterlimit:1;" x1="31.676" y1="109.121" x2="31.076" y2="110.021"/>
	<line style="fill:none;stroke:#000000;stroke-miterlimit:1;" x1="31.076" y1="110.021" x2="30.476" y2="111.82"/>
	<line style="fill:none;stroke:#000000;stroke-miterlimit:1;" x1="30.476" y1="111.82" x2="30.476" y2="113.021"/>
	<line style="fill:none;stroke:#000000;stroke-miterlimit:1;" x1="30.476" y1="113.021" x2="31.076" y2="114.52"/>
	<line style="fill:none;stroke:#000000;stroke-miterlimit:1;" x1="31.076" y1="114.52" x2="31.976" y2="115.721"/>
	<line style="fill:none;stroke:#000000;stroke-miterlimit:1;" x1="31.976" y1="115.721" x2="33.476" y2="117.221"/>
	<line style="fill:none;stroke:#000000;stroke-miterlimit:1;" x1="33.476" y1="117.221" x2="76.368" y2="146.016"/>
</g>
</svg>
