<?xml version="1.0" encoding="iso-8859-1"?>
<!-- Generator: Adobe Illustrator 16.0.1, SVG Export Plug-In . SVG Version: 6.00 Build 0)  -->
<!DOCTYPE svg PUBLIC "-//W3C//DTD SVG 1.1//EN" "http://www.w3.org/Graphics/SVG/1.1/DTD/svg11.dtd">
<svg version="1.1" id="Ebene_1" xmlns="http://www.w3.org/2000/svg" xmlns:xlink="http://www.w3.org/1999/xlink" x="0px" y="0px"
	 width="502.971px" height="132.936px" viewBox="0 0 502.971 132.936" style="enable-background:new 0 0 502.971 132.936;"
	 xml:space="preserve">
<g>
	<line style="fill:none;stroke:#000000;stroke-miterlimit:1;" x1="48.055" y1="113.02" x2="67.803" y2="113.02"/>
	<line style="fill:none;stroke:#000000;stroke-miterlimit:1;" x1="67.803" y1="113.02" x2="67.474" y2="105.778"/>
	<line style="fill:none;stroke:#000000;stroke-miterlimit:1;" x1="67.474" y1="105.778" x2="69.449" y2="96.233"/>
	<line style="fill:none;stroke:#000000;stroke-miterlimit:1;" x1="69.449" y1="96.233" x2="71.424" y2="90.638"/>
	<line style="fill:none;stroke:#000000;stroke-miterlimit:1;" x1="71.424" y1="90.638" x2="75.374" y2="81.751"/>
	<line style="fill:none;stroke:#000000;stroke-miterlimit:1;" x1="75.374" y1="81.751" x2="93.477" y2="49.824"/>
	<line style="fill:none;stroke:#000000;stroke-miterlimit:1;" x1="93.477" y1="49.824" x2="94.464" y2="42.912"/>
	<line style="fill:none;stroke:#000000;stroke-miterlimit:1;" x1="94.464" y1="42.912" x2="94.793" y2="39.621"/>
	<line style="fill:none;stroke:#000000;stroke-miterlimit:1;" x1="94.793" y1="39.621" x2="94.135" y2="33.696"/>
	<line style="fill:none;stroke:#000000;stroke-miterlimit:1;" x1="94.135" y1="33.696" x2="93.147" y2="29.747"/>
	<line style="fill:none;stroke:#000000;stroke-miterlimit:1;" x1="93.147" y1="29.747" x2="91.501" y2="24.81"/>
	<line style="fill:none;stroke:#000000;stroke-miterlimit:1;" x1="91.501" y1="24.81" x2="88.539" y2="20.201"/>
	<line style="fill:none;stroke:#000000;stroke-miterlimit:1;" x1="88.539" y1="20.201" x2="86.235" y2="17.568"/>
	<line style="fill:none;stroke:#000000;stroke-miterlimit:1;" x1="86.235" y1="17.568" x2="80.311" y2="11.973"/>
	<line style="fill:none;stroke:#000000;stroke-miterlimit:1;" x1="80.311" y1="11.973" x2="75.703" y2="10.327"/>
	<line style="fill:none;stroke:#000000;stroke-miterlimit:1;" x1="75.703" y1="10.327" x2="66.158" y2="9.34"/>
	<line style="fill:none;stroke:#000000;stroke-miterlimit:1;" x1="66.158" y1="9.34" x2="58.258" y2="10.327"/>
	<line style="fill:none;stroke:#000000;stroke-miterlimit:1;" x1="58.258" y1="10.327" x2="54.967" y2="11.644"/>
	<line style="fill:none;stroke:#000000;stroke-miterlimit:1;" x1="54.967" y1="11.644" x2="51.017" y2="14.277"/>
	<line style="fill:none;stroke:#000000;stroke-miterlimit:1;" x1="51.017" y1="14.277" x2="47.396" y2="18.227"/>
	<line style="fill:none;stroke:#000000;stroke-miterlimit:1;" x1="47.396" y1="18.227" x2="45.75" y2="20.53"/>
	<line style="fill:none;stroke:#000000;stroke-miterlimit:1;" x1="45.75" y1="20.53" x2="44.105" y2="22.505"/>
	<line style="fill:none;stroke:#000000;stroke-miterlimit:1;" x1="43.118" y1="22.834" x2="40.155" y2="24.151"/>
	<line style="fill:none;stroke:#000000;stroke-miterlimit:1;" x1="40.155" y1="24.151" x2="7.899" y2="30.405"/>
	<line style="fill:none;stroke:#000000;stroke-miterlimit:1;" x1="7.899" y1="30.405" x2="4.937" y2="32.709"/>
	<line style="fill:none;stroke:#000000;stroke-miterlimit:1;" x1="4.937" y1="32.709" x2="2.633" y2="34.354"/>
	<line style="fill:none;stroke:#000000;stroke-miterlimit:1;" x1="2.633" y1="34.354" x2="0.658" y2="37.975"/>
	<line style="fill:none;stroke:#000000;stroke-miterlimit:1;" x1="0.658" y1="37.975" x2="0" y2="43.241"/>
	<line style="fill:none;stroke:#000000;stroke-miterlimit:1;" x1="0" y1="43.241" x2="0.329" y2="44.558"/>
	<line style="fill:none;stroke:#000000;stroke-miterlimit:1;" x1="0.329" y1="44.558" x2="1.316" y2="45.216"/>
	<line style="fill:none;stroke:#000000;stroke-miterlimit:1;" x1="1.316" y1="45.216" x2="1.975" y2="45.216"/>
	<line style="fill:none;stroke:#000000;stroke-miterlimit:1;" x1="1.975" y1="45.216" x2="3.621" y2="44.558"/>
	<line style="fill:none;stroke:#000000;stroke-miterlimit:1;" x1="3.621" y1="44.558" x2="4.279" y2="41.596"/>
	<line style="fill:none;stroke:#000000;stroke-miterlimit:1;" x1="4.279" y1="41.596" x2="6.253" y2="38.633"/>
	<line style="fill:none;stroke:#000000;stroke-miterlimit:1;" x1="6.253" y1="38.633" x2="9.216" y2="36"/>
	<line style="fill:none;stroke:#000000;stroke-miterlimit:1;" x1="9.216" y1="36" x2="12.507" y2="35.013"/>
	<line style="fill:none;stroke:#000000;stroke-miterlimit:1;" x1="12.507" y1="35.013" x2="16.786" y2="33.696"/>
	<line style="fill:none;stroke:#000000;stroke-miterlimit:1;" x1="16.786" y1="33.696" x2="43.447" y2="30.076"/>
	<line style="fill:none;stroke:#000000;stroke-miterlimit:1;" x1="43.447" y1="30.076" x2="44.105" y2="29.747"/>
	<line style="fill:none;stroke:#000000;stroke-miterlimit:1;" x1="44.105" y1="29.747" x2="48.055" y2="30.405"/>
	<line style="fill:none;stroke:#000000;stroke-miterlimit:1;" x1="43.447" y1="22.834" x2="48.055" y2="30.734"/>
	<line style="fill:none;stroke:#000000;stroke-miterlimit:1;" x1="48.055" y1="30.734" x2="48.055" y2="35.013"/>
	<line style="fill:none;stroke:#000000;stroke-miterlimit:1;" x1="4.937" y1="41.267" x2="7.899" y2="39.292"/>
	<line style="fill:none;stroke:#000000;stroke-miterlimit:1;" x1="7.899" y1="39.292" x2="12.836" y2="37.975"/>
	<line style="fill:none;stroke:#000000;stroke-miterlimit:1;" x1="12.836" y1="37.975" x2="25.673" y2="36.659"/>
	<line style="fill:none;stroke:#000000;stroke-miterlimit:1;" x1="25.673" y1="36.659" x2="38.51" y2="35.013"/>
	<line style="fill:none;stroke:#000000;stroke-miterlimit:1;" x1="38.51" y1="35.013" x2="43.776" y2="35.013"/>
	<line style="fill:none;stroke:#000000;stroke-miterlimit:1;" x1="43.776" y1="35.013" x2="48.384" y2="35.013"/>
	<line style="fill:none;stroke:#000000;stroke-miterlimit:1;" x1="48.384" y1="35.013" x2="51.017" y2="35.342"/>
	<line style="fill:none;stroke:#000000;stroke-miterlimit:1;" x1="51.017" y1="35.342" x2="56.283" y2="36.659"/>
	<line style="fill:none;stroke:#000000;stroke-miterlimit:1;" x1="56.283" y1="36.659" x2="65.5" y2="38.304"/>
	<line style="fill:none;stroke:#000000;stroke-miterlimit:1;" x1="65.5" y1="38.304" x2="70.437" y2="38.633"/>
	<line style="fill:none;stroke:#000000;stroke-miterlimit:1;" x1="70.437" y1="38.633" x2="74.057" y2="38.304"/>
	<line style="fill:none;stroke:#000000;stroke-miterlimit:1;" x1="74.057" y1="38.304" x2="78.007" y2="37.317"/>
	<line style="fill:none;stroke:#000000;stroke-miterlimit:1;" x1="78.007" y1="37.317" x2="80.311" y2="38.633"/>
	<line style="fill:none;stroke:#000000;stroke-miterlimit:1;" x1="80.311" y1="38.633" x2="81.298" y2="40.279"/>
	<line style="fill:none;stroke:#000000;stroke-miterlimit:1;" x1="81.298" y1="40.279" x2="81.627" y2="44.229"/>
	<line style="fill:none;stroke:#000000;stroke-miterlimit:1;" x1="81.627" y1="44.229" x2="81.298" y2="47.52"/>
	<line style="fill:none;stroke:#000000;stroke-miterlimit:1;" x1="81.298" y1="47.52" x2="79.652" y2="51.47"/>
	<line style="fill:none;stroke:#000000;stroke-miterlimit:1;" x1="79.652" y1="51.47" x2="65.17" y2="70.561"/>
	<line style="fill:none;stroke:#000000;stroke-miterlimit:1;" x1="65.17" y1="70.561" x2="57.929" y2="82.08"/>
	<line style="fill:none;stroke:#000000;stroke-miterlimit:1;" x1="57.929" y1="82.08" x2="54.967" y2="88.005"/>
	<line style="fill:none;stroke:#000000;stroke-miterlimit:1;" x1="54.967" y1="88.005" x2="51.346" y2="94.917"/>
	<line style="fill:none;stroke:#000000;stroke-miterlimit:1;" x1="51.346" y1="94.917" x2="49.371" y2="103.804"/>
	<line style="fill:none;stroke:#000000;stroke-miterlimit:1;" x1="49.371" y1="103.804" x2="48.055" y2="113.02"/>
	<line style="fill:none;stroke:#000000;stroke-miterlimit:1;" x1="76.361" y1="10.656" x2="93.477" y2="16.91"/>
	<line style="fill:none;stroke:#000000;stroke-miterlimit:1;" x1="93.477" y1="16.91" x2="110.263" y2="21.189"/>
	<line style="fill:none;stroke:#000000;stroke-miterlimit:1;" x1="110.263" y1="21.189" x2="117.175" y2="22.505"/>
	<line style="fill:none;stroke:#000000;stroke-miterlimit:1;" x1="117.175" y1="22.505" x2="123.099" y2="22.834"/>
	<line style="fill:none;stroke:#000000;stroke-miterlimit:1;" x1="123.099" y1="22.834" x2="130.34" y2="22.834"/>
	<line style="fill:none;stroke:#000000;stroke-miterlimit:1;" x1="130.34" y1="22.834" x2="138.24" y2="22.505"/>
	<line style="fill:none;stroke:#000000;stroke-miterlimit:1;" x1="138.24" y1="22.505" x2="144.165" y2="21.189"/>
	<line style="fill:none;stroke:#000000;stroke-miterlimit:1;" x1="144.165" y1="21.189" x2="150.089" y2="19.872"/>
	<line style="fill:none;stroke:#000000;stroke-miterlimit:1;" x1="150.089" y1="19.872" x2="150.747" y2="20.53"/>
	<line style="fill:none;stroke:#000000;stroke-miterlimit:1;" x1="150.747" y1="20.53" x2="150.089" y2="22.834"/>
	<line style="fill:none;stroke:#000000;stroke-miterlimit:1;" x1="150.089" y1="22.834" x2="147.785" y2="24.48"/>
	<line style="fill:none;stroke:#000000;stroke-miterlimit:1;" x1="147.785" y1="24.48" x2="139.886" y2="26.126"/>
	<line style="fill:none;stroke:#000000;stroke-miterlimit:1;" x1="139.886" y1="26.126" x2="131.986" y2="27.113"/>
	<line style="fill:none;stroke:#000000;stroke-miterlimit:1;" x1="131.986" y1="27.113" x2="123.099" y2="27.113"/>
	<line style="fill:none;stroke:#000000;stroke-miterlimit:1;" x1="123.099" y1="27.113" x2="115.529" y2="26.455"/>
	<line style="fill:none;stroke:#000000;stroke-miterlimit:1;" x1="115.529" y1="26.455" x2="102.692" y2="24.151"/>
	<line style="fill:none;stroke:#000000;stroke-miterlimit:1;" x1="102.692" y1="24.151" x2="95.451" y2="21.847"/>
	<line style="fill:none;stroke:#000000;stroke-miterlimit:1;" x1="86.235" y1="16.91" x2="99.072" y2="23.822"/>
	<line style="fill:none;stroke:#000000;stroke-miterlimit:1;" x1="99.072" y1="23.822" x2="111.908" y2="30.405"/>
	<line style="fill:none;stroke:#000000;stroke-miterlimit:1;" x1="111.908" y1="30.405" x2="119.808" y2="34.354"/>
	<line style="fill:none;stroke:#000000;stroke-miterlimit:1;" x1="119.808" y1="34.354" x2="125.732" y2="36.659"/>
	<line style="fill:none;stroke:#000000;stroke-miterlimit:1;" x1="125.732" y1="36.659" x2="132.315" y2="38.304"/>
	<line style="fill:none;stroke:#000000;stroke-miterlimit:1;" x1="132.315" y1="38.304" x2="136.923" y2="38.962"/>
	<line style="fill:none;stroke:#000000;stroke-miterlimit:1;" x1="136.923" y1="38.962" x2="145.481" y2="39.95"/>
	<line style="fill:none;stroke:#000000;stroke-miterlimit:1;" x1="145.481" y1="39.95" x2="149.102" y2="39.292"/>
	<line style="fill:none;stroke:#000000;stroke-miterlimit:1;" x1="149.102" y1="39.292" x2="150.747" y2="38.962"/>
	<line style="fill:none;stroke:#000000;stroke-miterlimit:1;" x1="150.747" y1="38.962" x2="152.064" y2="39.95"/>
	<line style="fill:none;stroke:#000000;stroke-miterlimit:1;" x1="152.064" y1="39.95" x2="152.393" y2="41.925"/>
	<line style="fill:none;stroke:#000000;stroke-miterlimit:1;" x1="152.393" y1="41.925" x2="147.456" y2="43.57"/>
	<line style="fill:none;stroke:#000000;stroke-miterlimit:1;" x1="147.456" y1="43.57" x2="141.531" y2="44.229"/>
	<line style="fill:none;stroke:#000000;stroke-miterlimit:1;" x1="141.531" y1="44.229" x2="134.948" y2="43.241"/>
	<line style="fill:none;stroke:#000000;stroke-miterlimit:1;" x1="134.948" y1="43.241" x2="125.732" y2="41.267"/>
	<line style="fill:none;stroke:#000000;stroke-miterlimit:1;" x1="125.732" y1="41.267" x2="117.833" y2="38.633"/>
	<line style="fill:none;stroke:#000000;stroke-miterlimit:1;" x1="117.833" y1="38.633" x2="110.263" y2="35.013"/>
	<line style="fill:none;stroke:#000000;stroke-miterlimit:1;" x1="110.263" y1="35.013" x2="91.831" y2="24.48"/>
	<line style="fill:none;stroke:#000000;stroke-miterlimit:1;" x1="58.587" y1="18.885" x2="56.612" y2="19.214"/>
	<line style="fill:none;stroke:#000000;stroke-miterlimit:1;" x1="56.612" y1="19.214" x2="54.967" y2="21.189"/>
	<line style="fill:none;stroke:#000000;stroke-miterlimit:1;" x1="54.967" y1="21.189" x2="54.967" y2="23.493"/>
	<line style="fill:none;stroke:#000000;stroke-miterlimit:1;" x1="54.967" y1="23.493" x2="56.612" y2="25.139"/>
	<line style="fill:none;stroke:#000000;stroke-miterlimit:1;" x1="56.612" y1="25.139" x2="58.917" y2="25.139"/>
	<line style="fill:none;stroke:#000000;stroke-miterlimit:1;" x1="58.917" y1="25.139" x2="61.22" y2="24.151"/>
	<line style="fill:none;stroke:#000000;stroke-miterlimit:1;" x1="61.22" y1="24.151" x2="61.549" y2="22.834"/>
	<line style="fill:none;stroke:#000000;stroke-miterlimit:1;" x1="61.549" y1="22.834" x2="60.891" y2="20.86"/>
	<line style="fill:none;stroke:#000000;stroke-miterlimit:1;" x1="60.891" y1="20.86" x2="59.246" y2="18.885"/>
	<line style="fill:none;stroke:#000000;stroke-miterlimit:1;" x1="194.482" y1="106.272" x2="237.271" y2="65.129"/>
	<line style="fill:none;stroke:#000000;stroke-miterlimit:1;" x1="179.012" y1="100.348" x2="231.675" y2="49.989"/>
	<line style="fill:none;stroke:#000000;stroke-miterlimit:1;" x1="168.809" y1="89.486" x2="221.472" y2="39.127"/>
	<line style="fill:none;stroke:#000000;stroke-miterlimit:1;" x1="163.542" y1="74.017" x2="205.673" y2="33.861"/>
	<line style="fill:none;stroke:#000000;stroke-miterlimit:1;" x1="215.876" y1="36.165" x2="212.256" y2="35.177"/>
	<line style="fill:none;stroke:#000000;stroke-miterlimit:1;" x1="212.256" y1="35.177" x2="208.635" y2="33.861"/>
	<line style="fill:none;stroke:#000000;stroke-miterlimit:1;" x1="208.635" y1="33.861" x2="204.686" y2="33.203"/>
	<line style="fill:none;stroke:#000000;stroke-miterlimit:1;" x1="204.686" y1="33.203" x2="200.736" y2="33.203"/>
	<line style="fill:none;stroke:#000000;stroke-miterlimit:1;" x1="200.736" y1="33.203" x2="196.457" y2="33.532"/>
	<line style="fill:none;stroke:#000000;stroke-miterlimit:1;" x1="196.457" y1="33.532" x2="192.836" y2="33.861"/>
	<line style="fill:none;stroke:#000000;stroke-miterlimit:1;" x1="192.836" y1="33.861" x2="188.887" y2="35.177"/>
	<line style="fill:none;stroke:#000000;stroke-miterlimit:1;" x1="188.887" y1="35.177" x2="185.266" y2="36.494"/>
	<line style="fill:none;stroke:#000000;stroke-miterlimit:1;" x1="185.266" y1="36.494" x2="181.646" y2="38.14"/>
	<line style="fill:none;stroke:#000000;stroke-miterlimit:1;" x1="181.646" y1="38.14" x2="178.354" y2="40.444"/>
	<line style="fill:none;stroke:#000000;stroke-miterlimit:1;" x1="178.354" y1="40.444" x2="175.721" y2="42.748"/>
	<line style="fill:none;stroke:#000000;stroke-miterlimit:1;" x1="175.721" y1="42.748" x2="173.088" y2="45.381"/>
	<line style="fill:none;stroke:#000000;stroke-miterlimit:1;" x1="173.088" y1="45.381" x2="171.113" y2="47.685"/>
	<line style="fill:none;stroke:#000000;stroke-miterlimit:1;" x1="171.113" y1="47.685" x2="169.138" y2="50.647"/>
	<line style="fill:none;stroke:#000000;stroke-miterlimit:1;" x1="169.138" y1="50.647" x2="166.834" y2="54.926"/>
	<line style="fill:none;stroke:#000000;stroke-miterlimit:1;" x1="166.834" y1="54.926" x2="165.847" y2="58.217"/>
	<line style="fill:none;stroke:#000000;stroke-miterlimit:1;" x1="165.847" y1="58.217" x2="164.859" y2="61.838"/>
	<line style="fill:none;stroke:#000000;stroke-miterlimit:1;" x1="164.859" y1="61.838" x2="164.201" y2="65.458"/>
	<line style="fill:none;stroke:#000000;stroke-miterlimit:1;" x1="164.201" y1="65.458" x2="163.542" y2="69.737"/>
	<line style="fill:none;stroke:#000000;stroke-miterlimit:1;" x1="163.542" y1="69.737" x2="163.542" y2="73.358"/>
	<line style="fill:none;stroke:#000000;stroke-miterlimit:1;" x1="163.542" y1="73.358" x2="164.201" y2="77.637"/>
	<line style="fill:none;stroke:#000000;stroke-miterlimit:1;" x1="164.201" y1="77.637" x2="165.188" y2="81.258"/>
	<line style="fill:none;stroke:#000000;stroke-miterlimit:1;" x1="165.188" y1="81.258" x2="166.176" y2="84.549"/>
	<line style="fill:none;stroke:#000000;stroke-miterlimit:1;" x1="166.176" y1="84.549" x2="167.822" y2="88.169"/>
	<line style="fill:none;stroke:#000000;stroke-miterlimit:1;" x1="167.822" y1="88.169" x2="168.809" y2="90.145"/>
	<line style="fill:none;stroke:#000000;stroke-miterlimit:1;" x1="168.809" y1="90.145" x2="170.125" y2="91.79"/>
	<line style="fill:none;stroke:#000000;stroke-miterlimit:1;" x1="170.125" y1="91.79" x2="173.417" y2="95.41"/>
	<line style="fill:none;stroke:#000000;stroke-miterlimit:1;" x1="173.417" y1="95.41" x2="176.708" y2="98.702"/>
	<line style="fill:none;stroke:#000000;stroke-miterlimit:1;" x1="176.708" y1="98.702" x2="179.671" y2="101.006"/>
	<line style="fill:none;stroke:#000000;stroke-miterlimit:1;" x1="179.671" y1="101.006" x2="183.292" y2="102.98"/>
	<line style="fill:none;stroke:#000000;stroke-miterlimit:1;" x1="183.292" y1="102.98" x2="187.241" y2="104.956"/>
	<line style="fill:none;stroke:#000000;stroke-miterlimit:1;" x1="187.241" y1="104.956" x2="191.191" y2="105.943"/>
	<line style="fill:none;stroke:#000000;stroke-miterlimit:1;" x1="191.191" y1="105.943" x2="194.482" y2="106.931"/>
	<line style="fill:none;stroke:#000000;stroke-miterlimit:1;" x1="194.482" y1="106.931" x2="198.432" y2="106.931"/>
	<line style="fill:none;stroke:#000000;stroke-miterlimit:1;" x1="198.432" y1="106.931" x2="202.381" y2="107.26"/>
	<line style="fill:none;stroke:#000000;stroke-miterlimit:1;" x1="202.381" y1="107.26" x2="206.99" y2="106.602"/>
	<line style="fill:none;stroke:#000000;stroke-miterlimit:1;" x1="206.99" y1="106.602" x2="210.281" y2="105.943"/>
	<line style="fill:none;stroke:#000000;stroke-miterlimit:1;" x1="210.281" y1="105.943" x2="214.231" y2="104.298"/>
	<line style="fill:none;stroke:#000000;stroke-miterlimit:1;" x1="214.231" y1="104.298" x2="218.18" y2="102.322"/>
	<line style="fill:none;stroke:#000000;stroke-miterlimit:1;" x1="218.18" y1="102.322" x2="220.813" y2="101.006"/>
	<line style="fill:none;stroke:#000000;stroke-miterlimit:1;" x1="220.813" y1="101.006" x2="223.776" y2="98.373"/>
	<line style="fill:none;stroke:#000000;stroke-miterlimit:1;" x1="223.776" y1="98.373" x2="226.738" y2="95.739"/>
	<line style="fill:none;stroke:#000000;stroke-miterlimit:1;" x1="226.738" y1="95.739" x2="229.701" y2="92.777"/>
	<line style="fill:none;stroke:#000000;stroke-miterlimit:1;" x1="229.701" y1="92.777" x2="232.004" y2="89.157"/>
	<line style="fill:none;stroke:#000000;stroke-miterlimit:1;" x1="232.004" y1="89.157" x2="234.309" y2="85.865"/>
	<line style="fill:none;stroke:#000000;stroke-miterlimit:1;" x1="234.309" y1="85.865" x2="235.954" y2="82.574"/>
	<line style="fill:none;stroke:#000000;stroke-miterlimit:1;" x1="235.954" y1="82.574" x2="236.941" y2="78.624"/>
	<line style="fill:none;stroke:#000000;stroke-miterlimit:1;" x1="236.941" y1="78.624" x2="237.271" y2="75.004"/>
	<line style="fill:none;stroke:#000000;stroke-miterlimit:1;" x1="237.271" y1="75.004" x2="237.929" y2="70.725"/>
	<line style="fill:none;stroke:#000000;stroke-miterlimit:1;" x1="237.929" y1="70.725" x2="237.6" y2="67.104"/>
	<line style="fill:none;stroke:#000000;stroke-miterlimit:1;" x1="237.6" y1="67.104" x2="237.271" y2="62.825"/>
	<line style="fill:none;stroke:#000000;stroke-miterlimit:1;" x1="237.271" y1="62.825" x2="236.283" y2="59.205"/>
	<line style="fill:none;stroke:#000000;stroke-miterlimit:1;" x1="236.283" y1="59.205" x2="234.967" y2="55.914"/>
	<line style="fill:none;stroke:#000000;stroke-miterlimit:1;" x1="234.967" y1="55.914" x2="233.321" y2="51.635"/>
	<line style="fill:none;stroke:#000000;stroke-miterlimit:1;" x1="233.321" y1="51.635" x2="231.017" y2="48.343"/>
	<line style="fill:none;stroke:#000000;stroke-miterlimit:1;" x1="231.017" y1="48.343" x2="228.713" y2="45.71"/>
	<line style="fill:none;stroke:#000000;stroke-miterlimit:1;" x1="228.713" y1="45.71" x2="226.08" y2="42.418"/>
	<line style="fill:none;stroke:#000000;stroke-miterlimit:1;" x1="226.08" y1="42.418" x2="222.789" y2="40.114"/>
	<line style="fill:none;stroke:#000000;stroke-miterlimit:1;" x1="222.789" y1="40.114" x2="219.497" y2="37.811"/>
	<line style="fill:none;stroke:#000000;stroke-miterlimit:1;" x1="219.497" y1="37.811" x2="215.876" y2="36.165"/>
	<line style="fill:none;stroke:#000000;stroke-miterlimit:1;" x1="330.707" y1="87.265" x2="253.029" y2="87.265"/>
	<line style="fill:none;stroke:#000000;stroke-miterlimit:1;" x1="253.029" y1="87.265" x2="254.016" y2="80.682"/>
	<line style="fill:none;stroke:#000000;stroke-miterlimit:1;" x1="254.016" y1="80.682" x2="255.004" y2="76.402"/>
	<line style="fill:none;stroke:#000000;stroke-miterlimit:1;" x1="255.004" y1="76.402" x2="256.648" y2="72.124"/>
	<line style="fill:none;stroke:#000000;stroke-miterlimit:1;" x1="256.648" y1="72.124" x2="258.953" y2="68.832"/>
	<line style="fill:none;stroke:#000000;stroke-miterlimit:1;" x1="258.953" y1="68.832" x2="260.928" y2="65.87"/>
	<line style="fill:none;stroke:#000000;stroke-miterlimit:1;" x1="260.928" y1="65.87" x2="263.561" y2="62.25"/>
	<line style="fill:none;stroke:#000000;stroke-miterlimit:1;" x1="263.561" y1="62.25" x2="266.523" y2="59.616"/>
	<line style="fill:none;stroke:#000000;stroke-miterlimit:1;" x1="266.523" y1="59.616" x2="270.145" y2="56.983"/>
	<line style="fill:none;stroke:#000000;stroke-miterlimit:1;" x1="270.145" y1="56.983" x2="273.105" y2="55.008"/>
	<line style="fill:none;stroke:#000000;stroke-miterlimit:1;" x1="273.105" y1="55.008" x2="277.385" y2="53.033"/>
	<line style="fill:none;stroke:#000000;stroke-miterlimit:1;" x1="277.385" y1="53.033" x2="281.664" y2="51.717"/>
	<line style="fill:none;stroke:#000000;stroke-miterlimit:1;" x1="281.664" y1="51.717" x2="284.627" y2="51.059"/>
	<line style="fill:none;stroke:#000000;stroke-miterlimit:1;" x1="284.627" y1="51.059" x2="289.893" y2="50.4"/>
	<line style="fill:none;stroke:#000000;stroke-miterlimit:1;" x1="289.893" y1="50.4" x2="293.842" y2="50.4"/>
	<line style="fill:none;stroke:#000000;stroke-miterlimit:1;" x1="293.842" y1="50.4" x2="297.463" y2="51.059"/>
	<line style="fill:none;stroke:#000000;stroke-miterlimit:1;" x1="297.463" y1="51.059" x2="301.412" y2="51.717"/>
	<line style="fill:none;stroke:#000000;stroke-miterlimit:1;" x1="301.412" y1="51.717" x2="305.691" y2="52.704"/>
	<line style="fill:none;stroke:#000000;stroke-miterlimit:1;" x1="305.691" y1="52.704" x2="308.654" y2="53.691"/>
	<line style="fill:none;stroke:#000000;stroke-miterlimit:1;" x1="308.654" y1="53.691" x2="312.604" y2="56.325"/>
	<line style="fill:none;stroke:#000000;stroke-miterlimit:1;" x1="312.604" y1="56.325" x2="315.895" y2="58.629"/>
	<line style="fill:none;stroke:#000000;stroke-miterlimit:1;" x1="315.895" y1="58.629" x2="318.857" y2="60.933"/>
	<line style="fill:none;stroke:#000000;stroke-miterlimit:1;" x1="318.857" y1="60.933" x2="321.49" y2="64.224"/>
	<line style="fill:none;stroke:#000000;stroke-miterlimit:1;" x1="321.49" y1="64.224" x2="324.123" y2="67.845"/>
	<line style="fill:none;stroke:#000000;stroke-miterlimit:1;" x1="324.123" y1="67.845" x2="326.428" y2="71.466"/>
	<line style="fill:none;stroke:#000000;stroke-miterlimit:1;" x1="326.428" y1="71.466" x2="328.072" y2="74.757"/>
	<line style="fill:none;stroke:#000000;stroke-miterlimit:1;" x1="328.072" y1="74.757" x2="329.389" y2="79.694"/>
	<line style="fill:none;stroke:#000000;stroke-miterlimit:1;" x1="329.389" y1="79.694" x2="330.377" y2="83.314"/>
	<line style="fill:none;stroke:#000000;stroke-miterlimit:1;" x1="330.377" y1="83.314" x2="330.707" y2="87.265"/>
	<line style="fill:none;stroke:#000000;stroke-miterlimit:1;" x1="369.959" y1="0" x2="364.521" y2="1.208"/>
	<line style="fill:none;stroke:#000000;stroke-miterlimit:1;" x1="364.521" y1="1.208" x2="360.596" y2="3.927"/>
	<line style="fill:none;stroke:#000000;stroke-miterlimit:1;" x1="360.596" y1="3.927" x2="356.67" y2="9.062"/>
	<line style="fill:none;stroke:#000000;stroke-miterlimit:1;" x1="356.67" y1="9.062" x2="355.461" y2="13.894"/>
	<line style="fill:none;stroke:#000000;stroke-miterlimit:1;" x1="355.461" y1="13.894" x2="354.857" y2="17.216"/>
	<line style="fill:none;stroke:#000000;stroke-miterlimit:1;" x1="354.857" y1="17.216" x2="354.857" y2="22.955"/>
	<line style="fill:none;stroke:#000000;stroke-miterlimit:1;" x1="354.857" y1="22.955" x2="356.367" y2="28.392"/>
	<line style="fill:none;stroke:#000000;stroke-miterlimit:1;" x1="356.367" y1="28.392" x2="358.48" y2="33.829"/>
	<line style="fill:none;stroke:#000000;stroke-miterlimit:1;" x1="358.48" y1="33.829" x2="361.502" y2="36.547"/>
	<line style="fill:none;stroke:#000000;stroke-miterlimit:1;" x1="361.502" y1="36.547" x2="364.521" y2="38.661"/>
	<line style="fill:none;stroke:#000000;stroke-miterlimit:1;" x1="364.521" y1="38.661" x2="369.959" y2="39.869"/>
	<line style="fill:none;stroke:#000000;stroke-miterlimit:1;" x1="369.959" y1="39.869" x2="481.109" y2="39.869"/>
	<line style="fill:none;stroke:#000000;stroke-miterlimit:1;" x1="481.109" y1="39.869" x2="488.66" y2="39.265"/>
	<line style="fill:none;stroke:#000000;stroke-miterlimit:1;" x1="488.66" y1="39.265" x2="492.586" y2="37.755"/>
	<line style="fill:none;stroke:#000000;stroke-miterlimit:1;" x1="492.586" y1="37.755" x2="496.211" y2="35.037"/>
	<line style="fill:none;stroke:#000000;stroke-miterlimit:1;" x1="496.211" y1="35.037" x2="499.836" y2="30.204"/>
	<line style="fill:none;stroke:#000000;stroke-miterlimit:1;" x1="499.836" y1="30.204" x2="501.043" y2="25.673"/>
	<line style="fill:none;stroke:#000000;stroke-miterlimit:1;" x1="501.043" y1="25.673" x2="501.949" y2="21.143"/>
	<line style="fill:none;stroke:#000000;stroke-miterlimit:1;" x1="501.949" y1="21.143" x2="501.346" y2="16.008"/>
	<line style="fill:none;stroke:#000000;stroke-miterlimit:1;" x1="501.346" y1="16.008" x2="500.137" y2="10.874"/>
	<line style="fill:none;stroke:#000000;stroke-miterlimit:1;" x1="500.137" y1="10.874" x2="497.42" y2="6.947"/>
	<line style="fill:none;stroke:#000000;stroke-miterlimit:1;" x1="497.42" y1="6.947" x2="493.191" y2="3.323"/>
	<line style="fill:none;stroke:#000000;stroke-miterlimit:1;" x1="493.191" y1="3.323" x2="488.963" y2="0.604"/>
	<line style="fill:none;stroke:#000000;stroke-miterlimit:1;" x1="488.963" y1="0.604" x2="485.941" y2="0.302"/>
	<line style="fill:none;stroke:#000000;stroke-miterlimit:1;" x1="485.941" y1="0.302" x2="369.959" y2="0.302"/>
	<line style="fill:none;stroke:#000000;stroke-miterlimit:1;" x1="407.713" y1="12.686" x2="405.6" y2="13.29"/>
	<line style="fill:none;stroke:#000000;stroke-miterlimit:1;" x1="405.6" y1="13.29" x2="404.391" y2="14.498"/>
	<line style="fill:none;stroke:#000000;stroke-miterlimit:1;" x1="404.391" y1="14.498" x2="402.881" y2="16.311"/>
	<line style="fill:none;stroke:#000000;stroke-miterlimit:1;" x1="402.881" y1="16.311" x2="402.58" y2="18.123"/>
	<line style="fill:none;stroke:#000000;stroke-miterlimit:1;" x1="402.58" y1="18.123" x2="402.277" y2="19.029"/>
	<line style="fill:none;stroke:#000000;stroke-miterlimit:1;" x1="402.277" y1="19.029" x2="402.277" y2="21.143"/>
	<line style="fill:none;stroke:#000000;stroke-miterlimit:1;" x1="402.277" y1="21.143" x2="402.58" y2="22.955"/>
	<line style="fill:none;stroke:#000000;stroke-miterlimit:1;" x1="402.58" y1="22.955" x2="403.787" y2="24.768"/>
	<line style="fill:none;stroke:#000000;stroke-miterlimit:1;" x1="403.787" y1="24.768" x2="404.391" y2="25.976"/>
	<line style="fill:none;stroke:#000000;stroke-miterlimit:1;" x1="404.391" y1="25.976" x2="405.6" y2="26.58"/>
	<line style="fill:none;stroke:#000000;stroke-miterlimit:1;" x1="405.6" y1="26.58" x2="407.713" y2="27.184"/>
	<line style="fill:none;stroke:#000000;stroke-miterlimit:1;" x1="407.713" y1="27.184" x2="447.885" y2="27.184"/>
	<line style="fill:none;stroke:#000000;stroke-miterlimit:1;" x1="447.885" y1="27.184" x2="450.301" y2="27.184"/>
	<line style="fill:none;stroke:#000000;stroke-miterlimit:1;" x1="450.301" y1="27.184" x2="452.113" y2="26.58"/>
	<line style="fill:none;stroke:#000000;stroke-miterlimit:1;" x1="452.113" y1="26.58" x2="453.322" y2="25.372"/>
	<line style="fill:none;stroke:#000000;stroke-miterlimit:1;" x1="453.322" y1="25.372" x2="454.529" y2="23.559"/>
	<line style="fill:none;stroke:#000000;stroke-miterlimit:1;" x1="454.529" y1="23.559" x2="455.135" y2="22.049"/>
	<line style="fill:none;stroke:#000000;stroke-miterlimit:1;" x1="455.135" y1="22.049" x2="455.135" y2="20.539"/>
	<line style="fill:none;stroke:#000000;stroke-miterlimit:1;" x1="455.135" y1="20.539" x2="455.135" y2="18.727"/>
	<line style="fill:none;stroke:#000000;stroke-miterlimit:1;" x1="455.135" y1="18.727" x2="454.529" y2="16.915"/>
	<line style="fill:none;stroke:#000000;stroke-miterlimit:1;" x1="454.529" y1="16.915" x2="453.623" y2="15.404"/>
	<line style="fill:none;stroke:#000000;stroke-miterlimit:1;" x1="453.623" y1="15.404" x2="452.113" y2="13.894"/>
	<line style="fill:none;stroke:#000000;stroke-miterlimit:1;" x1="452.113" y1="13.894" x2="450.301" y2="13.29"/>
	<line style="fill:none;stroke:#000000;stroke-miterlimit:1;" x1="450.301" y1="13.29" x2="449.697" y2="12.988"/>
	<line style="fill:none;stroke:#000000;stroke-miterlimit:1;" x1="449.697" y1="12.988" x2="407.713" y2="12.988"/>
	<line style="fill:none;stroke:#000000;stroke-miterlimit:1;" x1="355.879" y1="58.143" x2="355.879" y2="132.936"/>
	<line style="fill:none;stroke:#000000;stroke-miterlimit:1;" x1="355.879" y1="132.936" x2="369.176" y2="132.936"/>
	<line style="fill:none;stroke:#000000;stroke-miterlimit:1;" x1="369.176" y1="132.936" x2="369.176" y2="58.143"/>
	<line style="fill:none;stroke:#000000;stroke-miterlimit:1;" x1="369.176" y1="58.143" x2="355.879" y2="58.143"/>
	<line style="fill:none;stroke:#000000;stroke-miterlimit:1;" x1="422.361" y1="58.143" x2="422.361" y2="132.936"/>
	<line style="fill:none;stroke:#000000;stroke-miterlimit:1;" x1="422.361" y1="132.936" x2="436.072" y2="132.936"/>
	<line style="fill:none;stroke:#000000;stroke-miterlimit:1;" x1="436.072" y1="132.936" x2="436.072" y2="58.143"/>
	<line style="fill:none;stroke:#000000;stroke-miterlimit:1;" x1="436.072" y1="58.143" x2="422.361" y2="58.143"/>
	<line style="fill:none;stroke:#000000;stroke-miterlimit:1;" x1="489.674" y1="58.143" x2="489.674" y2="132.936"/>
	<line style="fill:none;stroke:#000000;stroke-miterlimit:1;" x1="489.674" y1="132.936" x2="502.971" y2="132.936"/>
	<line style="fill:none;stroke:#000000;stroke-miterlimit:1;" x1="502.971" y1="132.936" x2="502.971" y2="58.143"/>
	<line style="fill:none;stroke:#000000;stroke-miterlimit:1;" x1="502.971" y1="58.143" x2="489.674" y2="58.143"/>
</g>
</svg>
