<?xml version="1.0" encoding="iso-8859-1"?>
<!-- Generator: Adobe Illustrator 16.0.1, SVG Export Plug-In . SVG Version: 6.00 Build 0)  -->
<!DOCTYPE svg PUBLIC "-//W3C//DTD SVG 1.1//EN" "http://www.w3.org/Graphics/SVG/1.1/DTD/svg11.dtd">
<svg version="1.1" id="Ebene_1" xmlns="http://www.w3.org/2000/svg" xmlns:xlink="http://www.w3.org/1999/xlink" x="0px" y="0px"
	 width="282.574px" height="148.443px" viewBox="0 0 282.574 148.443" style="enable-background:new 0 0 282.574 148.443;"
	 xml:space="preserve">
<g>
	<line style="fill:none;stroke:#000000;stroke-miterlimit:1;" x1="52.663" y1="37.852" x2="48.713" y2="42.13"/>
	<line style="fill:none;stroke:#000000;stroke-miterlimit:1;" x1="48.713" y1="42.13" x2="47.396" y2="47.396"/>
	<line style="fill:none;stroke:#000000;stroke-miterlimit:1;" x1="47.396" y1="47.396" x2="48.384" y2="52.663"/>
	<line style="fill:none;stroke:#000000;stroke-miterlimit:1;" x1="48.384" y1="52.663" x2="50.688" y2="56.613"/>
	<line style="fill:none;stroke:#000000;stroke-miterlimit:1;" x1="50.688" y1="56.613" x2="56.942" y2="62.537"/>
	<line style="fill:none;stroke:#000000;stroke-miterlimit:1;" x1="56.942" y1="62.537" x2="67.803" y2="68.462"/>
	<line style="fill:none;stroke:#000000;stroke-miterlimit:1;" x1="67.803" y1="68.462" x2="86.564" y2="75.373"/>
	<line style="fill:none;stroke:#000000;stroke-miterlimit:1;" x1="86.564" y1="75.373" x2="108.946" y2="79.981"/>
	<line style="fill:none;stroke:#000000;stroke-miterlimit:1;" x1="108.946" y1="79.981" x2="131.328" y2="82.615"/>
	<line style="fill:none;stroke:#000000;stroke-miterlimit:1;" x1="131.328" y1="82.615" x2="138.569" y2="83.273"/>
	<line style="fill:none;stroke:#000000;stroke-miterlimit:1;" x1="138.569" y1="83.273" x2="143.178" y2="83.603"/>
	<line style="fill:none;stroke:#000000;stroke-miterlimit:1;" x1="143.178" y1="83.603" x2="145.48" y2="82.944"/>
	<line style="fill:none;stroke:#000000;stroke-miterlimit:1;" x1="145.48" y1="82.944" x2="146.797" y2="81.628"/>
	<line style="fill:none;stroke:#000000;stroke-miterlimit:1;" x1="146.797" y1="81.628" x2="146.797" y2="79.981"/>
	<line style="fill:none;stroke:#000000;stroke-miterlimit:1;" x1="146.797" y1="79.981" x2="145.152" y2="78.665"/>
	<line style="fill:none;stroke:#000000;stroke-miterlimit:1;" x1="145.152" y1="78.665" x2="136.265" y2="77.02"/>
	<line style="fill:none;stroke:#000000;stroke-miterlimit:1;" x1="136.265" y1="77.02" x2="130.67" y2="74.386"/>
	<line style="fill:none;stroke:#000000;stroke-miterlimit:1;" x1="130.67" y1="74.386" x2="127.378" y2="72.083"/>
	<line style="fill:none;stroke:#000000;stroke-miterlimit:1;" x1="127.378" y1="72.083" x2="119.479" y2="65.5"/>
	<line style="fill:none;stroke:#000000;stroke-miterlimit:1;" x1="119.479" y1="65.5" x2="107.63" y2="54.638"/>
	<line style="fill:none;stroke:#000000;stroke-miterlimit:1;" x1="107.63" y1="54.638" x2="95.781" y2="45.422"/>
	<line style="fill:none;stroke:#000000;stroke-miterlimit:1;" x1="95.781" y1="45.422" x2="84.919" y2="39.497"/>
	<line style="fill:none;stroke:#000000;stroke-miterlimit:1;" x1="84.919" y1="39.497" x2="74.386" y2="35.218"/>
	<line style="fill:none;stroke:#000000;stroke-miterlimit:1;" x1="74.386" y1="35.218" x2="66.487" y2="32.914"/>
	<line style="fill:none;stroke:#000000;stroke-miterlimit:1;" x1="66.487" y1="32.914" x2="59.575" y2="32.585"/>
	<line style="fill:none;stroke:#000000;stroke-miterlimit:1;" x1="59.575" y1="32.585" x2="53.65" y2="33.902"/>
	<line style="fill:none;stroke:#000000;stroke-miterlimit:1;" x1="53.65" y1="33.902" x2="49.042" y2="36.206"/>
	<line style="fill:none;stroke:#000000;stroke-miterlimit:1;" x1="49.042" y1="36.206" x2="45.751" y2="38.181"/>
	<line style="fill:none;stroke:#000000;stroke-miterlimit:1;" x1="45.751" y1="38.181" x2="44.105" y2="39.826"/>
	<line style="fill:none;stroke:#000000;stroke-miterlimit:1;" x1="44.105" y1="39.826" x2="41.801" y2="40.155"/>
	<line style="fill:none;stroke:#000000;stroke-miterlimit:1;" x1="41.801" y1="40.155" x2="39.168" y2="39.497"/>
	<line style="fill:none;stroke:#000000;stroke-miterlimit:1;" x1="39.168" y1="39.497" x2="38.839" y2="37.193"/>
	<line style="fill:none;stroke:#000000;stroke-miterlimit:1;" x1="38.839" y1="37.193" x2="51.675" y2="26.661"/>
	<line style="fill:none;stroke:#000000;stroke-miterlimit:1;" x1="51.675" y1="26.661" x2="54.309" y2="23.698"/>
	<line style="fill:none;stroke:#000000;stroke-miterlimit:1;" x1="54.309" y1="23.698" x2="55.954" y2="20.078"/>
	<line style="fill:none;stroke:#000000;stroke-miterlimit:1;" x1="55.954" y1="20.078" x2="56.283" y2="16.786"/>
	<line style="fill:none;stroke:#000000;stroke-miterlimit:1;" x1="56.283" y1="16.786" x2="55.954" y2="13.824"/>
	<line style="fill:none;stroke:#000000;stroke-miterlimit:1;" x1="52.992" y1="11.52" x2="66.487" y2="17.774"/>
	<line style="fill:none;stroke:#000000;stroke-miterlimit:1;" x1="66.487" y1="17.774" x2="80.64" y2="23.04"/>
	<line style="fill:none;stroke:#000000;stroke-miterlimit:1;" x1="80.64" y1="23.04" x2="93.147" y2="25.673"/>
	<line style="fill:none;stroke:#000000;stroke-miterlimit:1;" x1="93.147" y1="25.673" x2="106.313" y2="26.661"/>
	<line style="fill:none;stroke:#000000;stroke-miterlimit:1;" x1="106.313" y1="26.661" x2="116.188" y2="26.99"/>
	<line style="fill:none;stroke:#000000;stroke-miterlimit:1;" x1="116.188" y1="26.99" x2="123.429" y2="26.002"/>
	<line style="fill:none;stroke:#000000;stroke-miterlimit:1;" x1="123.429" y1="26.002" x2="113.225" y2="24.356"/>
	<line style="fill:none;stroke:#000000;stroke-miterlimit:1;" x1="113.225" y1="24.356" x2="101.705" y2="23.369"/>
	<line style="fill:none;stroke:#000000;stroke-miterlimit:1;" x1="101.705" y1="23.369" x2="88.869" y2="21.395"/>
	<line style="fill:none;stroke:#000000;stroke-miterlimit:1;" x1="88.869" y1="21.395" x2="79.653" y2="18.761"/>
	<line style="fill:none;stroke:#000000;stroke-miterlimit:1;" x1="79.653" y1="18.761" x2="68.462" y2="14.812"/>
	<line style="fill:none;stroke:#000000;stroke-miterlimit:1;" x1="68.462" y1="14.812" x2="59.904" y2="11.191"/>
	<line style="fill:none;stroke:#000000;stroke-miterlimit:1;" x1="59.904" y1="11.191" x2="54.638" y2="7.57"/>
	<line style="fill:none;stroke:#000000;stroke-miterlimit:1;" x1="54.638" y1="7.57" x2="72.412" y2="14.482"/>
	<line style="fill:none;stroke:#000000;stroke-miterlimit:1;" x1="72.412" y1="14.482" x2="83.603" y2="16.457"/>
	<line style="fill:none;stroke:#000000;stroke-miterlimit:1;" x1="83.603" y1="16.457" x2="89.527" y2="17.444"/>
	<line style="fill:none;stroke:#000000;stroke-miterlimit:1;" x1="89.527" y1="17.444" x2="102.034" y2="18.432"/>
	<line style="fill:none;stroke:#000000;stroke-miterlimit:1;" x1="102.034" y1="18.432" x2="113.554" y2="17.774"/>
	<line style="fill:none;stroke:#000000;stroke-miterlimit:1;" x1="113.554" y1="17.774" x2="120.466" y2="17.115"/>
	<line style="fill:none;stroke:#000000;stroke-miterlimit:1;" x1="120.466" y1="17.115" x2="126.062" y2="16.786"/>
	<line style="fill:none;stroke:#000000;stroke-miterlimit:1;" x1="126.062" y1="16.786" x2="113.883" y2="15.799"/>
	<line style="fill:none;stroke:#000000;stroke-miterlimit:1;" x1="113.883" y1="15.799" x2="103.351" y2="14.812"/>
	<line style="fill:none;stroke:#000000;stroke-miterlimit:1;" x1="103.351" y1="14.812" x2="93.147" y2="14.482"/>
	<line style="fill:none;stroke:#000000;stroke-miterlimit:1;" x1="93.147" y1="14.482" x2="84.261" y2="13.166"/>
	<line style="fill:none;stroke:#000000;stroke-miterlimit:1;" x1="84.261" y1="13.166" x2="73.399" y2="10.862"/>
	<line style="fill:none;stroke:#000000;stroke-miterlimit:1;" x1="73.399" y1="10.862" x2="63.524" y2="7.899"/>
	<line style="fill:none;stroke:#000000;stroke-miterlimit:1;" x1="63.524" y1="7.899" x2="56.942" y2="4.937"/>
	<line style="fill:none;stroke:#000000;stroke-miterlimit:1;" x1="56.942" y1="4.937" x2="52.333" y2="1.975"/>
	<line style="fill:none;stroke:#000000;stroke-miterlimit:1;" x1="52.333" y1="1.975" x2="48.713" y2="0.658"/>
	<line style="fill:none;stroke:#000000;stroke-miterlimit:1;" x1="48.713" y1="0.658" x2="45.422" y2="0.329"/>
	<line style="fill:none;stroke:#000000;stroke-miterlimit:1;" x1="45.422" y1="0.329" x2="38.181" y2="1.316"/>
	<line style="fill:none;stroke:#000000;stroke-miterlimit:1;" x1="38.181" y1="1.316" x2="32.585" y2="3.292"/>
	<line style="fill:none;stroke:#000000;stroke-miterlimit:1;" x1="32.585" y1="3.292" x2="30.281" y2="4.937"/>
	<line style="fill:none;stroke:#000000;stroke-miterlimit:1;" x1="30.281" y1="4.937" x2="28.964" y2="7.241"/>
	<line style="fill:none;stroke:#000000;stroke-miterlimit:1;" x1="28.964" y1="7.241" x2="28.635" y2="7.899"/>
	<line style="fill:none;stroke:#000000;stroke-miterlimit:1;" x1="28.635" y1="7.899" x2="28.635" y2="10.533"/>
	<line style="fill:none;stroke:#000000;stroke-miterlimit:1;" x1="28.635" y1="10.533" x2="30.281" y2="13.166"/>
	<line style="fill:none;stroke:#000000;stroke-miterlimit:1;" x1="30.281" y1="13.166" x2="32.256" y2="13.824"/>
	<line style="fill:none;stroke:#000000;stroke-miterlimit:1;" x1="32.256" y1="13.824" x2="34.231" y2="14.482"/>
	<line style="fill:none;stroke:#000000;stroke-miterlimit:1;" x1="34.231" y1="14.482" x2="37.852" y2="15.47"/>
	<line style="fill:none;stroke:#000000;stroke-miterlimit:1;" x1="37.852" y1="15.47" x2="41.801" y2="15.47"/>
	<line style="fill:none;stroke:#000000;stroke-miterlimit:1;" x1="41.801" y1="15.47" x2="44.105" y2="14.482"/>
	<line style="fill:none;stroke:#000000;stroke-miterlimit:1;" x1="44.105" y1="14.482" x2="46.08" y2="14.153"/>
	<line style="fill:none;stroke:#000000;stroke-miterlimit:1;" x1="46.08" y1="14.153" x2="47.067" y2="15.799"/>
	<line style="fill:none;stroke:#000000;stroke-miterlimit:1;" x1="47.067" y1="15.799" x2="47.396" y2="18.761"/>
	<line style="fill:none;stroke:#000000;stroke-miterlimit:1;" x1="47.396" y1="18.761" x2="43.776" y2="23.04"/>
	<line style="fill:none;stroke:#000000;stroke-miterlimit:1;" x1="43.776" y1="23.04" x2="37.852" y2="27.319"/>
	<line style="fill:none;stroke:#000000;stroke-miterlimit:1;" x1="37.852" y1="27.319" x2="32.256" y2="32.585"/>
	<line style="fill:none;stroke:#000000;stroke-miterlimit:1;" x1="32.256" y1="32.585" x2="29.623" y2="36.206"/>
	<line style="fill:none;stroke:#000000;stroke-miterlimit:1;" x1="29.623" y1="36.206" x2="27.648" y2="39.168"/>
	<line style="fill:none;stroke:#000000;stroke-miterlimit:1;" x1="27.648" y1="39.168" x2="26.661" y2="44.435"/>
	<line style="fill:none;stroke:#000000;stroke-miterlimit:1;" x1="26.661" y1="44.435" x2="27.319" y2="47.396"/>
	<line style="fill:none;stroke:#000000;stroke-miterlimit:1;" x1="27.319" y1="47.396" x2="31.269" y2="53.321"/>
	<line style="fill:none;stroke:#000000;stroke-miterlimit:1;" x1="31.269" y1="53.321" x2="41.472" y2="64.512"/>
	<line style="fill:none;stroke:#000000;stroke-miterlimit:1;" x1="41.472" y1="64.512" x2="47.726" y2="70.107"/>
	<line style="fill:none;stroke:#000000;stroke-miterlimit:1;" x1="47.726" y1="70.107" x2="54.967" y2="75.373"/>
	<line style="fill:none;stroke:#000000;stroke-miterlimit:1;" x1="54.967" y1="75.373" x2="65.5" y2="79.981"/>
	<line style="fill:none;stroke:#000000;stroke-miterlimit:1;" x1="65.5" y1="79.981" x2="71.753" y2="89.197"/>
	<line style="fill:none;stroke:#000000;stroke-miterlimit:1;" x1="71.753" y1="89.197" x2="78.336" y2="96.768"/>
	<line style="fill:none;stroke:#000000;stroke-miterlimit:1;" x1="78.336" y1="96.768" x2="82.615" y2="101.376"/>
	<line style="fill:none;stroke:#000000;stroke-miterlimit:1;" x1="82.615" y1="101.376" x2="83.932" y2="104.338"/>
	<line style="fill:none;stroke:#000000;stroke-miterlimit:1;" x1="83.932" y1="104.338" x2="85.906" y2="125.732"/>
	<line style="fill:none;stroke:#000000;stroke-miterlimit:1;" x1="85.906" y1="125.732" x2="85.906" y2="139.557"/>
	<line style="fill:none;stroke:#000000;stroke-miterlimit:1;" x1="85.906" y1="139.557" x2="85.248" y2="141.86"/>
	<line style="fill:none;stroke:#000000;stroke-miterlimit:1;" x1="85.248" y1="141.86" x2="82.944" y2="142.519"/>
	<line style="fill:none;stroke:#000000;stroke-miterlimit:1;" x1="82.944" y1="142.519" x2="68.791" y2="144.494"/>
	<line style="fill:none;stroke:#000000;stroke-miterlimit:1;" x1="68.791" y1="144.494" x2="67.803" y2="144.823"/>
	<line style="fill:none;stroke:#000000;stroke-miterlimit:1;" x1="67.803" y1="144.823" x2="65.829" y2="145.152"/>
	<line style="fill:none;stroke:#000000;stroke-miterlimit:1;" x1="65.829" y1="145.152" x2="64.841" y2="146.469"/>
	<line style="fill:none;stroke:#000000;stroke-miterlimit:1;" x1="64.841" y1="146.469" x2="64.841" y2="148.443"/>
	<line style="fill:none;stroke:#000000;stroke-miterlimit:1;" x1="64.841" y1="148.443" x2="66.816" y2="147.456"/>
	<line style="fill:none;stroke:#000000;stroke-miterlimit:1;" x1="66.816" y1="147.456" x2="69.12" y2="148.114"/>
	<line style="fill:none;stroke:#000000;stroke-miterlimit:1;" x1="78.665" y1="144.494" x2="70.437" y2="145.811"/>
	<line style="fill:none;stroke:#000000;stroke-miterlimit:1;" x1="70.437" y1="145.811" x2="69.12" y2="146.798"/>
	<line style="fill:none;stroke:#000000;stroke-miterlimit:1;" x1="69.12" y1="146.798" x2="69.449" y2="148.443"/>
	<line style="fill:none;stroke:#000000;stroke-miterlimit:1;" x1="69.449" y1="148.443" x2="72.083" y2="147.127"/>
	<line style="fill:none;stroke:#000000;stroke-miterlimit:1;" x1="72.083" y1="147.127" x2="74.057" y2="148.443"/>
	<line style="fill:none;stroke:#000000;stroke-miterlimit:1;" x1="74.057" y1="148.443" x2="87.223" y2="146.798"/>
	<line style="fill:none;stroke:#000000;stroke-miterlimit:1;" x1="87.223" y1="146.798" x2="97.426" y2="148.443"/>
	<line style="fill:none;stroke:#000000;stroke-miterlimit:1;" x1="97.426" y1="148.443" x2="97.755" y2="146.798"/>
	<line style="fill:none;stroke:#000000;stroke-miterlimit:1;" x1="97.755" y1="146.798" x2="97.097" y2="145.152"/>
	<line style="fill:none;stroke:#000000;stroke-miterlimit:1;" x1="97.097" y1="145.152" x2="94.464" y2="144.494"/>
	<line style="fill:none;stroke:#000000;stroke-miterlimit:1;" x1="94.464" y1="144.494" x2="91.502" y2="143.506"/>
	<line style="fill:none;stroke:#000000;stroke-miterlimit:1;" x1="91.502" y1="143.506" x2="90.514" y2="143.177"/>
	<line style="fill:none;stroke:#000000;stroke-miterlimit:1;" x1="90.514" y1="143.177" x2="89.527" y2="141.202"/>
	<line style="fill:none;stroke:#000000;stroke-miterlimit:1;" x1="89.527" y1="141.202" x2="89.198" y2="107.301"/>
	<line style="fill:none;stroke:#000000;stroke-miterlimit:1;" x1="89.198" y1="107.301" x2="89.856" y2="103.351"/>
	<line style="fill:none;stroke:#000000;stroke-miterlimit:1;" x1="89.856" y1="103.351" x2="89.856" y2="102.034"/>
	<line style="fill:none;stroke:#000000;stroke-miterlimit:1;" x1="89.856" y1="102.034" x2="87.552" y2="97.756"/>
	<line style="fill:none;stroke:#000000;stroke-miterlimit:1;" x1="87.552" y1="97.756" x2="85.248" y2="93.806"/>
	<line style="fill:none;stroke:#000000;stroke-miterlimit:1;" x1="85.248" y1="93.806" x2="77.678" y2="81.628"/>
	<line style="fill:none;stroke:#000000;stroke-miterlimit:1;" x1="80.64" y1="85.248" x2="92.489" y2="86.564"/>
	<line style="fill:none;stroke:#000000;stroke-miterlimit:1;" x1="92.489" y1="86.564" x2="102.363" y2="86.235"/>
	<line style="fill:none;stroke:#000000;stroke-miterlimit:1;" x1="102.363" y1="86.235" x2="114.871" y2="84.919"/>
	<line style="fill:none;stroke:#000000;stroke-miterlimit:1;" x1="114.871" y1="84.919" x2="121.125" y2="90.515"/>
	<line style="fill:none;stroke:#000000;stroke-miterlimit:1;" x1="121.125" y1="90.515" x2="128.695" y2="97.427"/>
	<line style="fill:none;stroke:#000000;stroke-miterlimit:1;" x1="128.695" y1="97.427" x2="132.315" y2="97.756"/>
	<line style="fill:none;stroke:#000000;stroke-miterlimit:1;" x1="132.315" y1="97.756" x2="135.936" y2="96.768"/>
	<line style="fill:none;stroke:#000000;stroke-miterlimit:1;" x1="135.936" y1="96.768" x2="139.886" y2="93.477"/>
	<line style="fill:none;stroke:#000000;stroke-miterlimit:1;" x1="139.886" y1="93.477" x2="140.544" y2="90.844"/>
	<line style="fill:none;stroke:#000000;stroke-miterlimit:1;" x1="140.544" y1="90.844" x2="132.645" y2="82.615"/>
	<line style="fill:none;stroke:#000000;stroke-miterlimit:1;" x1="28.635" y1="7.57" x2="0" y2="25.015"/>
	<line style="fill:none;stroke:#000000;stroke-miterlimit:1;" x1="0" y1="25.015" x2="32.914" y2="14.153"/>
	<line style="fill:none;stroke:#000000;stroke-miterlimit:1;" x1="28.964" y1="12.178" x2="0" y2="25.015"/>
	<line style="fill:none;stroke:#000000;stroke-miterlimit:1;" x1="35.218" y1="6.912" x2="33.573" y2="7.899"/>
	<line style="fill:none;stroke:#000000;stroke-miterlimit:1;" x1="33.573" y1="7.899" x2="34.56" y2="9.545"/>
	<line style="fill:none;stroke:#000000;stroke-miterlimit:1;" x1="34.56" y1="9.545" x2="36.206" y2="8.887"/>
	<line style="fill:none;stroke:#000000;stroke-miterlimit:1;" x1="36.206" y1="8.887" x2="35.547" y2="7.57"/>
	<line style="fill:none;stroke:#000000;stroke-miterlimit:1;" x1="98.414" y1="145.481" x2="101.047" y2="146.14"/>
	<line style="fill:none;stroke:#000000;stroke-miterlimit:1;" x1="101.047" y1="146.14" x2="102.363" y2="147.127"/>
	<line style="fill:none;stroke:#000000;stroke-miterlimit:1;" x1="102.363" y1="147.127" x2="102.692" y2="147.785"/>
	<line style="fill:none;stroke:#000000;stroke-miterlimit:1;" x1="102.692" y1="147.785" x2="101.047" y2="148.443"/>
	<line style="fill:none;stroke:#000000;stroke-miterlimit:1;" x1="101.047" y1="148.443" x2="98.743" y2="148.114"/>
	<line style="fill:none;stroke:#000000;stroke-miterlimit:1;" x1="49.042" y1="71.424" x2="55.954" y2="84.59"/>
	<line style="fill:none;stroke:#000000;stroke-miterlimit:1;" x1="55.954" y1="84.59" x2="63.854" y2="96.438"/>
	<line style="fill:none;stroke:#000000;stroke-miterlimit:1;" x1="63.854" y1="96.438" x2="64.512" y2="99.401"/>
	<line style="fill:none;stroke:#000000;stroke-miterlimit:1;" x1="64.512" y1="99.401" x2="43.118" y2="137.911"/>
	<line style="fill:none;stroke:#000000;stroke-miterlimit:1;" x1="43.118" y1="137.911" x2="42.13" y2="139.557"/>
	<line style="fill:none;stroke:#000000;stroke-miterlimit:1;" x1="42.13" y1="139.557" x2="41.143" y2="141.202"/>
	<line style="fill:none;stroke:#000000;stroke-miterlimit:1;" x1="41.143" y1="141.202" x2="38.839" y2="141.86"/>
	<line style="fill:none;stroke:#000000;stroke-miterlimit:1;" x1="38.839" y1="141.86" x2="30.939" y2="143.177"/>
	<line style="fill:none;stroke:#000000;stroke-miterlimit:1;" x1="30.939" y1="143.177" x2="25.673" y2="144.165"/>
	<line style="fill:none;stroke:#000000;stroke-miterlimit:1;" x1="25.673" y1="144.165" x2="23.698" y2="145.152"/>
	<line style="fill:none;stroke:#000000;stroke-miterlimit:1;" x1="23.698" y1="145.152" x2="22.382" y2="145.481"/>
	<line style="fill:none;stroke:#000000;stroke-miterlimit:1;" x1="22.382" y1="145.481" x2="20.407" y2="145.811"/>
	<line style="fill:none;stroke:#000000;stroke-miterlimit:1;" x1="20.407" y1="145.811" x2="19.749" y2="146.469"/>
	<line style="fill:none;stroke:#000000;stroke-miterlimit:1;" x1="19.749" y1="146.469" x2="19.09" y2="148.114"/>
	<line style="fill:none;stroke:#000000;stroke-miterlimit:1;" x1="19.09" y1="148.114" x2="21.065" y2="147.127"/>
	<line style="fill:none;stroke:#000000;stroke-miterlimit:1;" x1="21.065" y1="147.127" x2="23.369" y2="148.114"/>
	<line style="fill:none;stroke:#000000;stroke-miterlimit:1;" x1="26.99" y1="146.14" x2="25.673" y2="146.14"/>
	<line style="fill:none;stroke:#000000;stroke-miterlimit:1;" x1="25.673" y1="146.14" x2="24.027" y2="146.469"/>
	<line style="fill:none;stroke:#000000;stroke-miterlimit:1;" x1="24.027" y1="146.469" x2="23.369" y2="147.785"/>
	<line style="fill:none;stroke:#000000;stroke-miterlimit:1;" x1="23.369" y1="147.785" x2="24.027" y2="148.114"/>
	<line style="fill:none;stroke:#000000;stroke-miterlimit:1;" x1="24.027" y1="148.114" x2="26.002" y2="147.456"/>
	<line style="fill:none;stroke:#000000;stroke-miterlimit:1;" x1="27.319" y1="145.811" x2="29.623" y2="145.152"/>
	<line style="fill:none;stroke:#000000;stroke-miterlimit:1;" x1="29.623" y1="145.152" x2="34.889" y2="144.823"/>
	<line style="fill:none;stroke:#000000;stroke-miterlimit:1;" x1="26.332" y1="147.456" x2="28.964" y2="148.443"/>
	<line style="fill:none;stroke:#000000;stroke-miterlimit:1;" x1="28.964" y1="148.443" x2="41.143" y2="147.127"/>
	<line style="fill:none;stroke:#000000;stroke-miterlimit:1;" x1="41.143" y1="147.127" x2="43.118" y2="146.798"/>
	<line style="fill:none;stroke:#000000;stroke-miterlimit:1;" x1="43.118" y1="146.798" x2="52.992" y2="148.443"/>
	<line style="fill:none;stroke:#000000;stroke-miterlimit:1;" x1="52.992" y1="148.443" x2="53.321" y2="146.798"/>
	<line style="fill:none;stroke:#000000;stroke-miterlimit:1;" x1="53.321" y1="146.798" x2="52.992" y2="145.152"/>
	<line style="fill:none;stroke:#000000;stroke-miterlimit:1;" x1="52.992" y1="145.152" x2="50.03" y2="144.494"/>
	<line style="fill:none;stroke:#000000;stroke-miterlimit:1;" x1="50.03" y1="144.494" x2="46.08" y2="143.177"/>
	<line style="fill:none;stroke:#000000;stroke-miterlimit:1;" x1="45.751" y1="142.848" x2="45.422" y2="141.202"/>
	<line style="fill:none;stroke:#000000;stroke-miterlimit:1;" x1="45.422" y1="141.202" x2="65.829" y2="107.301"/>
	<line style="fill:none;stroke:#000000;stroke-miterlimit:1;" x1="65.829" y1="107.301" x2="70.766" y2="98.414"/>
	<line style="fill:none;stroke:#000000;stroke-miterlimit:1;" x1="70.766" y1="98.414" x2="70.766" y2="95.451"/>
	<line style="fill:none;stroke:#000000;stroke-miterlimit:1;" x1="70.766" y1="95.451" x2="67.145" y2="82.944"/>
	<line style="fill:none;stroke:#000000;stroke-miterlimit:1;" x1="53.979" y1="145.481" x2="56.283" y2="146.14"/>
	<line style="fill:none;stroke:#000000;stroke-miterlimit:1;" x1="56.283" y1="146.14" x2="57.6" y2="147.127"/>
	<line style="fill:none;stroke:#000000;stroke-miterlimit:1;" x1="57.6" y1="147.127" x2="57.929" y2="147.785"/>
	<line style="fill:none;stroke:#000000;stroke-miterlimit:1;" x1="57.929" y1="147.785" x2="56.283" y2="148.443"/>
	<line style="fill:none;stroke:#000000;stroke-miterlimit:1;" x1="56.283" y1="148.443" x2="53.979" y2="148.114"/>
	<line style="fill:none;stroke:#000000;stroke-miterlimit:1;" x1="270.223" y1="42.583" x2="273.264" y2="43.688"/>
	<line style="fill:none;stroke:#000000;stroke-miterlimit:1;" x1="273.264" y1="43.688" x2="276.857" y2="45.9"/>
	<line style="fill:none;stroke:#000000;stroke-miterlimit:1;" x1="276.857" y1="45.9" x2="280.727" y2="49.771"/>
	<line style="fill:none;stroke:#000000;stroke-miterlimit:1;" x1="280.727" y1="49.771" x2="281.832" y2="54.194"/>
	<line style="fill:none;stroke:#000000;stroke-miterlimit:1;" x1="281.832" y1="54.194" x2="282.387" y2="56.958"/>
	<line style="fill:none;stroke:#000000;stroke-miterlimit:1;" x1="282.387" y1="56.958" x2="282.387" y2="61.382"/>
	<line style="fill:none;stroke:#000000;stroke-miterlimit:1;" x1="282.387" y1="61.382" x2="281.004" y2="66.082"/>
	<line style="fill:none;stroke:#000000;stroke-miterlimit:1;" x1="281.004" y1="66.082" x2="279.068" y2="70.228"/>
	<line style="fill:none;stroke:#000000;stroke-miterlimit:1;" x1="279.068" y1="70.228" x2="276.58" y2="72.716"/>
	<line style="fill:none;stroke:#000000;stroke-miterlimit:1;" x1="276.58" y1="72.716" x2="273.539" y2="74.375"/>
	<line style="fill:none;stroke:#000000;stroke-miterlimit:1;" x1="273.539" y1="74.375" x2="270.223" y2="75.48"/>
	<line style="fill:none;stroke:#000000;stroke-miterlimit:1;" x1="270.223" y1="75.48" x2="178.715" y2="75.48"/>
	<line style="fill:none;stroke:#000000;stroke-miterlimit:1;" x1="178.715" y1="75.48" x2="172.355" y2="75.205"/>
	<line style="fill:none;stroke:#000000;stroke-miterlimit:1;" x1="172.355" y1="75.205" x2="168.762" y2="73.546"/>
	<line style="fill:none;stroke:#000000;stroke-miterlimit:1;" x1="168.762" y1="73.546" x2="165.998" y2="71.61"/>
	<line style="fill:none;stroke:#000000;stroke-miterlimit:1;" x1="165.998" y1="71.61" x2="163.232" y2="67.464"/>
	<line style="fill:none;stroke:#000000;stroke-miterlimit:1;" x1="163.232" y1="67.464" x2="161.852" y2="63.593"/>
	<line style="fill:none;stroke:#000000;stroke-miterlimit:1;" x1="161.852" y1="63.593" x2="161.299" y2="60"/>
	<line style="fill:none;stroke:#000000;stroke-miterlimit:1;" x1="161.299" y1="60" x2="161.852" y2="55.853"/>
	<line style="fill:none;stroke:#000000;stroke-miterlimit:1;" x1="161.852" y1="55.853" x2="162.68" y2="51.706"/>
	<line style="fill:none;stroke:#000000;stroke-miterlimit:1;" x1="162.68" y1="51.706" x2="164.615" y2="48.388"/>
	<line style="fill:none;stroke:#000000;stroke-miterlimit:1;" x1="164.615" y1="48.388" x2="167.656" y2="45.347"/>
	<line style="fill:none;stroke:#000000;stroke-miterlimit:1;" x1="167.656" y1="45.347" x2="171.527" y2="43.136"/>
	<line style="fill:none;stroke:#000000;stroke-miterlimit:1;" x1="171.527" y1="43.136" x2="174.291" y2="42.583"/>
	<line style="fill:none;stroke:#000000;stroke-miterlimit:1;" x1="174.291" y1="42.583" x2="270.223" y2="42.583"/>
	<line style="fill:none;stroke:#000000;stroke-miterlimit:1;" x1="270.223" y1="42.583" x2="267.734" y2="46.729"/>
	<line style="fill:none;stroke:#000000;stroke-miterlimit:1;" x1="267.734" y1="46.729" x2="265.799" y2="50.6"/>
	<line style="fill:none;stroke:#000000;stroke-miterlimit:1;" x1="265.799" y1="50.6" x2="264.969" y2="54.747"/>
	<line style="fill:none;stroke:#000000;stroke-miterlimit:1;" x1="264.969" y1="54.747" x2="264.693" y2="58.617"/>
	<line style="fill:none;stroke:#000000;stroke-miterlimit:1;" x1="264.693" y1="58.617" x2="264.969" y2="62.764"/>
	<line style="fill:none;stroke:#000000;stroke-miterlimit:1;" x1="264.969" y1="62.764" x2="266.074" y2="66.911"/>
	<line style="fill:none;stroke:#000000;stroke-miterlimit:1;" x1="266.074" y1="66.911" x2="267.734" y2="71.058"/>
	<line style="fill:none;stroke:#000000;stroke-miterlimit:1;" x1="267.734" y1="71.058" x2="270.223" y2="74.928"/>
	<line style="fill:none;stroke:#000000;stroke-miterlimit:1;" x1="270.223" y1="74.928" x2="266.074" y2="72.716"/>
	<line style="fill:none;stroke:#000000;stroke-miterlimit:1;" x1="266.074" y1="72.716" x2="256.123" y2="69.399"/>
	<line style="fill:none;stroke:#000000;stroke-miterlimit:1;" x1="256.123" y1="69.399" x2="248.381" y2="67.187"/>
	<line style="fill:none;stroke:#000000;stroke-miterlimit:1;" x1="248.381" y1="67.187" x2="240.088" y2="65.528"/>
	<line style="fill:none;stroke:#000000;stroke-miterlimit:1;" x1="240.088" y1="65.528" x2="232.623" y2="63.593"/>
	<line style="fill:none;stroke:#000000;stroke-miterlimit:1;" x1="232.623" y1="63.593" x2="222.119" y2="63.317"/>
	<line style="fill:none;stroke:#000000;stroke-miterlimit:1;" x1="222.119" y1="63.317" x2="217.143" y2="63.317"/>
	<line style="fill:none;stroke:#000000;stroke-miterlimit:1;" x1="217.143" y1="63.317" x2="206.914" y2="64.423"/>
	<line style="fill:none;stroke:#000000;stroke-miterlimit:1;" x1="206.914" y1="64.423" x2="198.896" y2="66.358"/>
	<line style="fill:none;stroke:#000000;stroke-miterlimit:1;" x1="198.896" y1="66.358" x2="192.262" y2="68.017"/>
	<line style="fill:none;stroke:#000000;stroke-miterlimit:1;" x1="192.262" y1="68.017" x2="182.861" y2="71.334"/>
	<line style="fill:none;stroke:#000000;stroke-miterlimit:1;" x1="182.861" y1="71.334" x2="174.016" y2="74.928"/>
	<line style="fill:none;stroke:#000000;stroke-miterlimit:1;" x1="269.668" y1="42.583" x2="260.27" y2="46.729"/>
	<line style="fill:none;stroke:#000000;stroke-miterlimit:1;" x1="260.27" y1="46.729" x2="251.699" y2="49.771"/>
	<line style="fill:none;stroke:#000000;stroke-miterlimit:1;" x1="251.699" y1="49.771" x2="245.064" y2="51.429"/>
	<line style="fill:none;stroke:#000000;stroke-miterlimit:1;" x1="245.064" y1="51.429" x2="237.6" y2="53.364"/>
	<line style="fill:none;stroke:#000000;stroke-miterlimit:1;" x1="237.6" y1="53.364" x2="228.201" y2="53.917"/>
	<line style="fill:none;stroke:#000000;stroke-miterlimit:1;" x1="228.201" y1="53.917" x2="221.842" y2="54.47"/>
	<line style="fill:none;stroke:#000000;stroke-miterlimit:1;" x1="221.842" y1="54.47" x2="211.061" y2="53.641"/>
	<line style="fill:none;stroke:#000000;stroke-miterlimit:1;" x1="211.061" y1="53.641" x2="202.213" y2="52.259"/>
	<line style="fill:none;stroke:#000000;stroke-miterlimit:1;" x1="202.213" y1="52.259" x2="194.473" y2="50.323"/>
	<line style="fill:none;stroke:#000000;stroke-miterlimit:1;" x1="194.473" y1="50.323" x2="187.561" y2="48.388"/>
	<line style="fill:none;stroke:#000000;stroke-miterlimit:1;" x1="187.561" y1="48.388" x2="177.609" y2="45.071"/>
	<line style="fill:none;stroke:#000000;stroke-miterlimit:1;" x1="177.609" y1="45.071" x2="173.738" y2="43.136"/>
	<line style="fill:none;stroke:#000000;stroke-miterlimit:1;" x1="173.738" y1="43.136" x2="176.227" y2="46.729"/>
	<line style="fill:none;stroke:#000000;stroke-miterlimit:1;" x1="176.227" y1="46.729" x2="177.885" y2="50.6"/>
	<line style="fill:none;stroke:#000000;stroke-miterlimit:1;" x1="177.885" y1="50.6" x2="178.715" y2="54.747"/>
	<line style="fill:none;stroke:#000000;stroke-miterlimit:1;" x1="178.715" y1="54.747" x2="178.992" y2="58.617"/>
	<line style="fill:none;stroke:#000000;stroke-miterlimit:1;" x1="178.992" y1="58.617" x2="178.715" y2="62.764"/>
	<line style="fill:none;stroke:#000000;stroke-miterlimit:1;" x1="178.715" y1="62.764" x2="177.885" y2="66.911"/>
	<line style="fill:none;stroke:#000000;stroke-miterlimit:1;" x1="177.885" y1="66.911" x2="176.227" y2="71.058"/>
	<line style="fill:none;stroke:#000000;stroke-miterlimit:1;" x1="176.227" y1="71.058" x2="173.738" y2="74.928"/>
	<line style="fill:none;stroke:#000000;stroke-miterlimit:1;" x1="270.391" y1="33.069" x2="274.865" y2="31.826"/>
	<line style="fill:none;stroke:#000000;stroke-miterlimit:1;" x1="274.865" y1="31.826" x2="277.85" y2="29.34"/>
	<line style="fill:none;stroke:#000000;stroke-miterlimit:1;" x1="277.85" y1="29.34" x2="281.082" y2="25.361"/>
	<line style="fill:none;stroke:#000000;stroke-miterlimit:1;" x1="281.082" y1="25.361" x2="282.324" y2="21.383"/>
	<line style="fill:none;stroke:#000000;stroke-miterlimit:1;" x1="282.324" y1="21.383" x2="282.324" y2="18.399"/>
	<line style="fill:none;stroke:#000000;stroke-miterlimit:1;" x1="282.324" y1="18.399" x2="282.574" y2="13.924"/>
	<line style="fill:none;stroke:#000000;stroke-miterlimit:1;" x1="282.574" y1="13.924" x2="281.33" y2="9.448"/>
	<line style="fill:none;stroke:#000000;stroke-miterlimit:1;" x1="281.33" y1="9.448" x2="279.59" y2="4.973"/>
	<line style="fill:none;stroke:#000000;stroke-miterlimit:1;" x1="279.59" y1="4.973" x2="277.352" y2="2.486"/>
	<line style="fill:none;stroke:#000000;stroke-miterlimit:1;" x1="277.352" y1="2.486" x2="274.865" y2="0.995"/>
	<line style="fill:none;stroke:#000000;stroke-miterlimit:1;" x1="274.865" y1="0.995" x2="268.4" y2="0"/>
	<line style="fill:none;stroke:#000000;stroke-miterlimit:1;" x1="268.4" y1="0" x2="175.658" y2="0"/>
	<line style="fill:none;stroke:#000000;stroke-miterlimit:1;" x1="175.658" y1="0" x2="169.193" y2="0.995"/>
	<line style="fill:none;stroke:#000000;stroke-miterlimit:1;" x1="169.193" y1="0.995" x2="166.707" y2="2.486"/>
	<line style="fill:none;stroke:#000000;stroke-miterlimit:1;" x1="166.707" y1="2.486" x2="164.469" y2="4.973"/>
	<line style="fill:none;stroke:#000000;stroke-miterlimit:1;" x1="164.469" y1="4.973" x2="162.48" y2="9.448"/>
	<line style="fill:none;stroke:#000000;stroke-miterlimit:1;" x1="162.48" y1="9.448" x2="161.486" y2="13.924"/>
	<line style="fill:none;stroke:#000000;stroke-miterlimit:1;" x1="161.486" y1="13.924" x2="161.734" y2="18.399"/>
	<line style="fill:none;stroke:#000000;stroke-miterlimit:1;" x1="161.734" y1="18.399" x2="161.982" y2="21.383"/>
	<line style="fill:none;stroke:#000000;stroke-miterlimit:1;" x1="161.982" y1="21.383" x2="162.977" y2="25.361"/>
	<line style="fill:none;stroke:#000000;stroke-miterlimit:1;" x1="162.977" y1="25.361" x2="166.209" y2="29.34"/>
	<line style="fill:none;stroke:#000000;stroke-miterlimit:1;" x1="166.209" y1="29.34" x2="169.441" y2="31.826"/>
	<line style="fill:none;stroke:#000000;stroke-miterlimit:1;" x1="169.441" y1="31.826" x2="173.42" y2="33.069"/>
	<line style="fill:none;stroke:#000000;stroke-miterlimit:1;" x1="173.42" y1="33.069" x2="270.391" y2="33.069"/>
	<line style="fill:none;stroke:#000000;stroke-miterlimit:1;" x1="227.227" y1="0.44" x2="248.166" y2="32.286"/>
	<line style="fill:none;stroke:#000000;stroke-miterlimit:1;" x1="215.447" y1="0.44" x2="236.824" y2="32.286"/>
	<line style="fill:none;stroke:#000000;stroke-miterlimit:1;" x1="204.105" y1="0.44" x2="225.045" y2="32.286"/>
	<line style="fill:none;stroke:#000000;stroke-miterlimit:1;" x1="192.328" y1="0.44" x2="213.703" y2="32.286"/>
	<line style="fill:none;stroke:#000000;stroke-miterlimit:1;" x1="161.109" y1="86.544" x2="161.109" y2="148.114"/>
	<line style="fill:none;stroke:#000000;stroke-miterlimit:1;" x1="161.109" y1="148.114" x2="172.057" y2="148.114"/>
	<line style="fill:none;stroke:#000000;stroke-miterlimit:1;" x1="172.057" y1="148.114" x2="172.057" y2="86.544"/>
	<line style="fill:none;stroke:#000000;stroke-miterlimit:1;" x1="172.057" y1="86.544" x2="161.109" y2="86.544"/>
	<line style="fill:none;stroke:#000000;stroke-miterlimit:1;" x1="215.84" y1="86.544" x2="215.84" y2="148.114"/>
	<line style="fill:none;stroke:#000000;stroke-miterlimit:1;" x1="215.84" y1="148.114" x2="227.127" y2="148.114"/>
	<line style="fill:none;stroke:#000000;stroke-miterlimit:1;" x1="227.127" y1="148.114" x2="227.127" y2="86.544"/>
	<line style="fill:none;stroke:#000000;stroke-miterlimit:1;" x1="227.127" y1="86.544" x2="215.84" y2="86.544"/>
	<line style="fill:none;stroke:#000000;stroke-miterlimit:1;" x1="271.252" y1="86.544" x2="271.252" y2="148.114"/>
	<line style="fill:none;stroke:#000000;stroke-miterlimit:1;" x1="271.252" y1="148.114" x2="282.197" y2="148.114"/>
	<line style="fill:none;stroke:#000000;stroke-miterlimit:1;" x1="282.197" y1="148.114" x2="282.197" y2="86.544"/>
	<line style="fill:none;stroke:#000000;stroke-miterlimit:1;" x1="282.197" y1="86.544" x2="271.252" y2="86.544"/>
</g>
</svg>
