<?xml version="1.0" encoding="iso-8859-1"?>
<!-- Generator: Adobe Illustrator 16.0.1, SVG Export Plug-In . SVG Version: 6.00 Build 0)  -->
<!DOCTYPE svg PUBLIC "-//W3C//DTD SVG 1.1//EN" "http://www.w3.org/Graphics/SVG/1.1/DTD/svg11.dtd">
<svg version="1.1" id="Ebene_1" xmlns="http://www.w3.org/2000/svg" xmlns:xlink="http://www.w3.org/1999/xlink" x="0px" y="0px"
	 width="253.875px" height="149.184px" viewBox="0 0 253.875 149.184" style="enable-background:new 0 0 253.875 149.184;"
	 xml:space="preserve">
<g>
	<line style="fill:none;stroke:#000000;stroke-miterlimit:1;" x1="30.939" y1="119.355" x2="73.728" y2="78.213"/>
	<line style="fill:none;stroke:#000000;stroke-miterlimit:1;" x1="15.47" y1="113.432" x2="68.133" y2="63.072"/>
	<line style="fill:none;stroke:#000000;stroke-miterlimit:1;" x1="5.267" y1="102.568" x2="57.929" y2="52.21"/>
	<line style="fill:none;stroke:#000000;stroke-miterlimit:1;" x1="0" y1="87.1" x2="42.13" y2="46.944"/>
	<line style="fill:none;stroke:#000000;stroke-miterlimit:1;" x1="52.334" y1="49.248" x2="48.713" y2="48.261"/>
	<line style="fill:none;stroke:#000000;stroke-miterlimit:1;" x1="48.713" y1="48.261" x2="45.093" y2="46.944"/>
	<line style="fill:none;stroke:#000000;stroke-miterlimit:1;" x1="45.093" y1="46.944" x2="41.143" y2="46.286"/>
	<line style="fill:none;stroke:#000000;stroke-miterlimit:1;" x1="41.143" y1="46.286" x2="37.193" y2="46.286"/>
	<line style="fill:none;stroke:#000000;stroke-miterlimit:1;" x1="37.193" y1="46.286" x2="32.915" y2="46.615"/>
	<line style="fill:none;stroke:#000000;stroke-miterlimit:1;" x1="32.915" y1="46.615" x2="29.294" y2="46.944"/>
	<line style="fill:none;stroke:#000000;stroke-miterlimit:1;" x1="29.294" y1="46.944" x2="25.344" y2="48.261"/>
	<line style="fill:none;stroke:#000000;stroke-miterlimit:1;" x1="25.344" y1="48.261" x2="21.724" y2="49.577"/>
	<line style="fill:none;stroke:#000000;stroke-miterlimit:1;" x1="21.724" y1="49.577" x2="18.103" y2="51.223"/>
	<line style="fill:none;stroke:#000000;stroke-miterlimit:1;" x1="18.103" y1="51.223" x2="14.812" y2="53.527"/>
	<line style="fill:none;stroke:#000000;stroke-miterlimit:1;" x1="14.812" y1="53.527" x2="12.178" y2="55.831"/>
	<line style="fill:none;stroke:#000000;stroke-miterlimit:1;" x1="12.178" y1="55.831" x2="9.545" y2="58.464"/>
	<line style="fill:none;stroke:#000000;stroke-miterlimit:1;" x1="9.545" y1="58.464" x2="7.57" y2="60.768"/>
	<line style="fill:none;stroke:#000000;stroke-miterlimit:1;" x1="7.57" y1="60.768" x2="5.596" y2="63.73"/>
	<line style="fill:none;stroke:#000000;stroke-miterlimit:1;" x1="5.596" y1="63.73" x2="3.292" y2="68.009"/>
	<line style="fill:none;stroke:#000000;stroke-miterlimit:1;" x1="3.292" y1="68.009" x2="2.304" y2="71.3"/>
	<line style="fill:none;stroke:#000000;stroke-miterlimit:1;" x1="2.304" y1="71.3" x2="1.317" y2="74.921"/>
	<line style="fill:none;stroke:#000000;stroke-miterlimit:1;" x1="1.317" y1="74.921" x2="0.658" y2="78.541"/>
	<line style="fill:none;stroke:#000000;stroke-miterlimit:1;" x1="0.658" y1="78.541" x2="0" y2="82.82"/>
	<line style="fill:none;stroke:#000000;stroke-miterlimit:1;" x1="0" y1="82.82" x2="0" y2="86.441"/>
	<line style="fill:none;stroke:#000000;stroke-miterlimit:1;" x1="0" y1="86.441" x2="0.658" y2="90.721"/>
	<line style="fill:none;stroke:#000000;stroke-miterlimit:1;" x1="0.658" y1="90.721" x2="1.646" y2="94.34"/>
	<line style="fill:none;stroke:#000000;stroke-miterlimit:1;" x1="1.646" y1="94.34" x2="2.633" y2="97.633"/>
	<line style="fill:none;stroke:#000000;stroke-miterlimit:1;" x1="2.633" y1="97.633" x2="4.279" y2="101.252"/>
	<line style="fill:none;stroke:#000000;stroke-miterlimit:1;" x1="4.279" y1="101.252" x2="5.267" y2="103.227"/>
	<line style="fill:none;stroke:#000000;stroke-miterlimit:1;" x1="5.267" y1="103.227" x2="6.583" y2="104.873"/>
	<line style="fill:none;stroke:#000000;stroke-miterlimit:1;" x1="6.583" y1="104.873" x2="9.875" y2="108.494"/>
	<line style="fill:none;stroke:#000000;stroke-miterlimit:1;" x1="9.875" y1="108.494" x2="13.166" y2="111.785"/>
	<line style="fill:none;stroke:#000000;stroke-miterlimit:1;" x1="13.166" y1="111.785" x2="16.128" y2="114.09"/>
	<line style="fill:none;stroke:#000000;stroke-miterlimit:1;" x1="16.128" y1="114.09" x2="19.749" y2="116.064"/>
	<line style="fill:none;stroke:#000000;stroke-miterlimit:1;" x1="19.749" y1="116.064" x2="23.698" y2="118.039"/>
	<line style="fill:none;stroke:#000000;stroke-miterlimit:1;" x1="23.698" y1="118.039" x2="27.648" y2="119.025"/>
	<line style="fill:none;stroke:#000000;stroke-miterlimit:1;" x1="27.648" y1="119.025" x2="30.939" y2="120.014"/>
	<line style="fill:none;stroke:#000000;stroke-miterlimit:1;" x1="30.939" y1="120.014" x2="34.889" y2="120.014"/>
	<line style="fill:none;stroke:#000000;stroke-miterlimit:1;" x1="34.889" y1="120.014" x2="38.839" y2="120.344"/>
	<line style="fill:none;stroke:#000000;stroke-miterlimit:1;" x1="38.839" y1="120.344" x2="43.447" y2="119.686"/>
	<line style="fill:none;stroke:#000000;stroke-miterlimit:1;" x1="43.447" y1="119.686" x2="46.738" y2="119.025"/>
	<line style="fill:none;stroke:#000000;stroke-miterlimit:1;" x1="46.738" y1="119.025" x2="50.688" y2="117.381"/>
	<line style="fill:none;stroke:#000000;stroke-miterlimit:1;" x1="50.688" y1="117.381" x2="54.638" y2="115.406"/>
	<line style="fill:none;stroke:#000000;stroke-miterlimit:1;" x1="54.638" y1="115.406" x2="57.271" y2="114.09"/>
	<line style="fill:none;stroke:#000000;stroke-miterlimit:1;" x1="57.271" y1="114.09" x2="60.233" y2="111.455"/>
	<line style="fill:none;stroke:#000000;stroke-miterlimit:1;" x1="60.233" y1="111.455" x2="63.195" y2="108.822"/>
	<line style="fill:none;stroke:#000000;stroke-miterlimit:1;" x1="63.195" y1="108.822" x2="66.158" y2="105.861"/>
	<line style="fill:none;stroke:#000000;stroke-miterlimit:1;" x1="66.158" y1="105.861" x2="68.462" y2="102.24"/>
	<line style="fill:none;stroke:#000000;stroke-miterlimit:1;" x1="68.462" y1="102.24" x2="70.766" y2="98.949"/>
	<line style="fill:none;stroke:#000000;stroke-miterlimit:1;" x1="70.766" y1="98.949" x2="72.412" y2="95.656"/>
	<line style="fill:none;stroke:#000000;stroke-miterlimit:1;" x1="72.412" y1="95.656" x2="73.399" y2="91.707"/>
	<line style="fill:none;stroke:#000000;stroke-miterlimit:1;" x1="73.399" y1="91.707" x2="73.728" y2="88.086"/>
	<line style="fill:none;stroke:#000000;stroke-miterlimit:1;" x1="73.728" y1="88.086" x2="74.386" y2="83.809"/>
	<line style="fill:none;stroke:#000000;stroke-miterlimit:1;" x1="74.386" y1="83.809" x2="74.057" y2="80.188"/>
	<line style="fill:none;stroke:#000000;stroke-miterlimit:1;" x1="74.057" y1="80.188" x2="73.728" y2="75.908"/>
	<line style="fill:none;stroke:#000000;stroke-miterlimit:1;" x1="73.728" y1="75.908" x2="72.741" y2="72.288"/>
	<line style="fill:none;stroke:#000000;stroke-miterlimit:1;" x1="72.741" y1="72.288" x2="71.424" y2="68.997"/>
	<line style="fill:none;stroke:#000000;stroke-miterlimit:1;" x1="71.424" y1="68.997" x2="69.778" y2="64.718"/>
	<line style="fill:none;stroke:#000000;stroke-miterlimit:1;" x1="69.778" y1="64.718" x2="67.475" y2="61.426"/>
	<line style="fill:none;stroke:#000000;stroke-miterlimit:1;" x1="67.475" y1="61.426" x2="65.17" y2="58.793"/>
	<line style="fill:none;stroke:#000000;stroke-miterlimit:1;" x1="65.17" y1="58.793" x2="62.537" y2="55.501"/>
	<line style="fill:none;stroke:#000000;stroke-miterlimit:1;" x1="62.537" y1="55.501" x2="59.246" y2="53.198"/>
	<line style="fill:none;stroke:#000000;stroke-miterlimit:1;" x1="59.246" y1="53.198" x2="55.955" y2="50.894"/>
	<line style="fill:none;stroke:#000000;stroke-miterlimit:1;" x1="55.955" y1="50.894" x2="52.334" y2="49.248"/>
	<line style="fill:none;stroke:#000000;stroke-miterlimit:1;" x1="132.891" y1="38.592" x2="128.941" y2="42.871"/>
	<line style="fill:none;stroke:#000000;stroke-miterlimit:1;" x1="128.941" y1="42.871" x2="127.625" y2="48.137"/>
	<line style="fill:none;stroke:#000000;stroke-miterlimit:1;" x1="127.625" y1="48.137" x2="128.613" y2="53.403"/>
	<line style="fill:none;stroke:#000000;stroke-miterlimit:1;" x1="128.613" y1="53.403" x2="130.916" y2="57.353"/>
	<line style="fill:none;stroke:#000000;stroke-miterlimit:1;" x1="130.916" y1="57.353" x2="137.17" y2="63.278"/>
	<line style="fill:none;stroke:#000000;stroke-miterlimit:1;" x1="137.17" y1="63.278" x2="148.031" y2="69.202"/>
	<line style="fill:none;stroke:#000000;stroke-miterlimit:1;" x1="148.031" y1="69.202" x2="166.793" y2="76.115"/>
	<line style="fill:none;stroke:#000000;stroke-miterlimit:1;" x1="166.793" y1="76.115" x2="189.176" y2="80.723"/>
	<line style="fill:none;stroke:#000000;stroke-miterlimit:1;" x1="189.176" y1="80.723" x2="211.557" y2="83.355"/>
	<line style="fill:none;stroke:#000000;stroke-miterlimit:1;" x1="211.557" y1="83.355" x2="218.797" y2="84.014"/>
	<line style="fill:none;stroke:#000000;stroke-miterlimit:1;" x1="218.797" y1="84.014" x2="223.406" y2="84.344"/>
	<line style="fill:none;stroke:#000000;stroke-miterlimit:1;" x1="223.406" y1="84.344" x2="225.709" y2="83.684"/>
	<line style="fill:none;stroke:#000000;stroke-miterlimit:1;" x1="225.709" y1="83.684" x2="227.027" y2="82.367"/>
	<line style="fill:none;stroke:#000000;stroke-miterlimit:1;" x1="227.027" y1="82.367" x2="227.027" y2="80.723"/>
	<line style="fill:none;stroke:#000000;stroke-miterlimit:1;" x1="227.027" y1="80.723" x2="225.381" y2="79.406"/>
	<line style="fill:none;stroke:#000000;stroke-miterlimit:1;" x1="225.381" y1="79.406" x2="216.494" y2="77.76"/>
	<line style="fill:none;stroke:#000000;stroke-miterlimit:1;" x1="216.494" y1="77.76" x2="210.898" y2="75.127"/>
	<line style="fill:none;stroke:#000000;stroke-miterlimit:1;" x1="210.898" y1="75.127" x2="207.607" y2="72.823"/>
	<line style="fill:none;stroke:#000000;stroke-miterlimit:1;" x1="207.607" y1="72.823" x2="199.707" y2="66.24"/>
	<line style="fill:none;stroke:#000000;stroke-miterlimit:1;" x1="199.707" y1="66.24" x2="187.859" y2="55.378"/>
	<line style="fill:none;stroke:#000000;stroke-miterlimit:1;" x1="187.859" y1="55.378" x2="176.01" y2="46.162"/>
	<line style="fill:none;stroke:#000000;stroke-miterlimit:1;" x1="176.01" y1="46.162" x2="165.148" y2="40.238"/>
	<line style="fill:none;stroke:#000000;stroke-miterlimit:1;" x1="165.148" y1="40.238" x2="154.615" y2="35.959"/>
	<line style="fill:none;stroke:#000000;stroke-miterlimit:1;" x1="154.615" y1="35.959" x2="146.715" y2="33.655"/>
	<line style="fill:none;stroke:#000000;stroke-miterlimit:1;" x1="146.715" y1="33.655" x2="139.803" y2="33.326"/>
	<line style="fill:none;stroke:#000000;stroke-miterlimit:1;" x1="139.803" y1="33.326" x2="133.879" y2="34.642"/>
	<line style="fill:none;stroke:#000000;stroke-miterlimit:1;" x1="133.879" y1="34.642" x2="129.271" y2="36.946"/>
	<line style="fill:none;stroke:#000000;stroke-miterlimit:1;" x1="129.271" y1="36.946" x2="125.979" y2="38.921"/>
	<line style="fill:none;stroke:#000000;stroke-miterlimit:1;" x1="125.979" y1="38.921" x2="124.334" y2="40.567"/>
	<line style="fill:none;stroke:#000000;stroke-miterlimit:1;" x1="124.334" y1="40.567" x2="122.03" y2="40.896"/>
	<line style="fill:none;stroke:#000000;stroke-miterlimit:1;" x1="122.03" y1="40.896" x2="119.396" y2="40.238"/>
	<line style="fill:none;stroke:#000000;stroke-miterlimit:1;" x1="119.396" y1="40.238" x2="119.067" y2="37.934"/>
	<line style="fill:none;stroke:#000000;stroke-miterlimit:1;" x1="119.067" y1="37.934" x2="131.904" y2="27.401"/>
	<line style="fill:none;stroke:#000000;stroke-miterlimit:1;" x1="131.904" y1="27.401" x2="134.537" y2="24.439"/>
	<line style="fill:none;stroke:#000000;stroke-miterlimit:1;" x1="134.537" y1="24.439" x2="136.184" y2="20.818"/>
	<line style="fill:none;stroke:#000000;stroke-miterlimit:1;" x1="136.184" y1="20.818" x2="136.512" y2="17.527"/>
	<line style="fill:none;stroke:#000000;stroke-miterlimit:1;" x1="136.512" y1="17.527" x2="136.184" y2="14.564"/>
	<line style="fill:none;stroke:#000000;stroke-miterlimit:1;" x1="133.221" y1="12.261" x2="146.715" y2="18.514"/>
	<line style="fill:none;stroke:#000000;stroke-miterlimit:1;" x1="146.715" y1="18.514" x2="160.869" y2="23.781"/>
	<line style="fill:none;stroke:#000000;stroke-miterlimit:1;" x1="160.869" y1="23.781" x2="173.377" y2="26.414"/>
	<line style="fill:none;stroke:#000000;stroke-miterlimit:1;" x1="173.377" y1="26.414" x2="186.541" y2="27.401"/>
	<line style="fill:none;stroke:#000000;stroke-miterlimit:1;" x1="186.541" y1="27.401" x2="196.416" y2="27.73"/>
	<line style="fill:none;stroke:#000000;stroke-miterlimit:1;" x1="196.416" y1="27.73" x2="203.658" y2="26.743"/>
	<line style="fill:none;stroke:#000000;stroke-miterlimit:1;" x1="203.658" y1="26.743" x2="193.453" y2="25.097"/>
	<line style="fill:none;stroke:#000000;stroke-miterlimit:1;" x1="193.453" y1="25.097" x2="181.934" y2="24.11"/>
	<line style="fill:none;stroke:#000000;stroke-miterlimit:1;" x1="181.934" y1="24.11" x2="169.098" y2="22.135"/>
	<line style="fill:none;stroke:#000000;stroke-miterlimit:1;" x1="169.098" y1="22.135" x2="159.881" y2="19.501"/>
	<line style="fill:none;stroke:#000000;stroke-miterlimit:1;" x1="159.881" y1="19.501" x2="148.689" y2="15.552"/>
	<line style="fill:none;stroke:#000000;stroke-miterlimit:1;" x1="148.689" y1="15.552" x2="140.133" y2="11.931"/>
	<line style="fill:none;stroke:#000000;stroke-miterlimit:1;" x1="140.133" y1="11.931" x2="134.867" y2="8.311"/>
	<line style="fill:none;stroke:#000000;stroke-miterlimit:1;" x1="134.867" y1="8.311" x2="152.641" y2="15.223"/>
	<line style="fill:none;stroke:#000000;stroke-miterlimit:1;" x1="152.641" y1="15.223" x2="163.83" y2="17.198"/>
	<line style="fill:none;stroke:#000000;stroke-miterlimit:1;" x1="163.83" y1="17.198" x2="169.756" y2="18.185"/>
	<line style="fill:none;stroke:#000000;stroke-miterlimit:1;" x1="169.756" y1="18.185" x2="182.264" y2="19.172"/>
	<line style="fill:none;stroke:#000000;stroke-miterlimit:1;" x1="182.264" y1="19.172" x2="193.783" y2="18.514"/>
	<line style="fill:none;stroke:#000000;stroke-miterlimit:1;" x1="193.783" y1="18.514" x2="200.695" y2="17.856"/>
	<line style="fill:none;stroke:#000000;stroke-miterlimit:1;" x1="200.695" y1="17.856" x2="206.291" y2="17.527"/>
	<line style="fill:none;stroke:#000000;stroke-miterlimit:1;" x1="206.291" y1="17.527" x2="194.111" y2="16.54"/>
	<line style="fill:none;stroke:#000000;stroke-miterlimit:1;" x1="194.111" y1="16.54" x2="183.58" y2="15.552"/>
	<line style="fill:none;stroke:#000000;stroke-miterlimit:1;" x1="183.58" y1="15.552" x2="173.377" y2="15.223"/>
	<line style="fill:none;stroke:#000000;stroke-miterlimit:1;" x1="173.377" y1="15.223" x2="164.49" y2="13.906"/>
	<line style="fill:none;stroke:#000000;stroke-miterlimit:1;" x1="164.49" y1="13.906" x2="153.627" y2="11.602"/>
	<line style="fill:none;stroke:#000000;stroke-miterlimit:1;" x1="153.627" y1="11.602" x2="143.754" y2="8.64"/>
	<line style="fill:none;stroke:#000000;stroke-miterlimit:1;" x1="143.754" y1="8.64" x2="137.17" y2="5.678"/>
	<line style="fill:none;stroke:#000000;stroke-miterlimit:1;" x1="137.17" y1="5.678" x2="132.562" y2="2.715"/>
	<line style="fill:none;stroke:#000000;stroke-miterlimit:1;" x1="132.562" y1="2.715" x2="128.941" y2="1.399"/>
	<line style="fill:none;stroke:#000000;stroke-miterlimit:1;" x1="128.941" y1="1.399" x2="125.65" y2="1.07"/>
	<line style="fill:none;stroke:#000000;stroke-miterlimit:1;" x1="125.65" y1="1.07" x2="118.409" y2="2.057"/>
	<line style="fill:none;stroke:#000000;stroke-miterlimit:1;" x1="118.409" y1="2.057" x2="112.814" y2="4.032"/>
	<line style="fill:none;stroke:#000000;stroke-miterlimit:1;" x1="112.814" y1="4.032" x2="110.51" y2="5.678"/>
	<line style="fill:none;stroke:#000000;stroke-miterlimit:1;" x1="110.51" y1="5.678" x2="109.193" y2="7.982"/>
	<line style="fill:none;stroke:#000000;stroke-miterlimit:1;" x1="109.193" y1="7.982" x2="108.864" y2="8.64"/>
	<line style="fill:none;stroke:#000000;stroke-miterlimit:1;" x1="108.864" y1="8.64" x2="108.864" y2="11.273"/>
	<line style="fill:none;stroke:#000000;stroke-miterlimit:1;" x1="108.864" y1="11.273" x2="110.51" y2="13.906"/>
	<line style="fill:none;stroke:#000000;stroke-miterlimit:1;" x1="110.51" y1="13.906" x2="112.485" y2="14.564"/>
	<line style="fill:none;stroke:#000000;stroke-miterlimit:1;" x1="112.485" y1="14.564" x2="114.459" y2="15.223"/>
	<line style="fill:none;stroke:#000000;stroke-miterlimit:1;" x1="114.459" y1="15.223" x2="118.08" y2="16.21"/>
	<line style="fill:none;stroke:#000000;stroke-miterlimit:1;" x1="118.08" y1="16.21" x2="122.03" y2="16.21"/>
	<line style="fill:none;stroke:#000000;stroke-miterlimit:1;" x1="122.03" y1="16.21" x2="124.334" y2="15.223"/>
	<line style="fill:none;stroke:#000000;stroke-miterlimit:1;" x1="124.334" y1="15.223" x2="126.309" y2="14.894"/>
	<line style="fill:none;stroke:#000000;stroke-miterlimit:1;" x1="126.309" y1="14.894" x2="127.296" y2="16.54"/>
	<line style="fill:none;stroke:#000000;stroke-miterlimit:1;" x1="127.296" y1="16.54" x2="127.625" y2="19.501"/>
	<line style="fill:none;stroke:#000000;stroke-miterlimit:1;" x1="127.625" y1="19.501" x2="124.005" y2="23.781"/>
	<line style="fill:none;stroke:#000000;stroke-miterlimit:1;" x1="124.005" y1="23.781" x2="118.08" y2="28.06"/>
	<line style="fill:none;stroke:#000000;stroke-miterlimit:1;" x1="118.08" y1="28.06" x2="112.485" y2="33.326"/>
	<line style="fill:none;stroke:#000000;stroke-miterlimit:1;" x1="112.485" y1="33.326" x2="109.852" y2="36.946"/>
	<line style="fill:none;stroke:#000000;stroke-miterlimit:1;" x1="109.852" y1="36.946" x2="107.876" y2="39.909"/>
	<line style="fill:none;stroke:#000000;stroke-miterlimit:1;" x1="107.876" y1="39.909" x2="106.889" y2="45.175"/>
	<line style="fill:none;stroke:#000000;stroke-miterlimit:1;" x1="106.889" y1="45.175" x2="107.547" y2="48.137"/>
	<line style="fill:none;stroke:#000000;stroke-miterlimit:1;" x1="107.547" y1="48.137" x2="111.497" y2="54.062"/>
	<line style="fill:none;stroke:#000000;stroke-miterlimit:1;" x1="111.497" y1="54.062" x2="121.701" y2="65.252"/>
	<line style="fill:none;stroke:#000000;stroke-miterlimit:1;" x1="121.701" y1="65.252" x2="127.955" y2="70.848"/>
	<line style="fill:none;stroke:#000000;stroke-miterlimit:1;" x1="127.955" y1="70.848" x2="135.195" y2="76.115"/>
	<line style="fill:none;stroke:#000000;stroke-miterlimit:1;" x1="135.195" y1="76.115" x2="145.729" y2="80.723"/>
	<line style="fill:none;stroke:#000000;stroke-miterlimit:1;" x1="145.729" y1="80.723" x2="151.982" y2="89.938"/>
	<line style="fill:none;stroke:#000000;stroke-miterlimit:1;" x1="151.982" y1="89.938" x2="158.564" y2="97.508"/>
	<line style="fill:none;stroke:#000000;stroke-miterlimit:1;" x1="158.564" y1="97.508" x2="162.844" y2="102.117"/>
	<line style="fill:none;stroke:#000000;stroke-miterlimit:1;" x1="162.844" y1="102.117" x2="164.16" y2="105.078"/>
	<line style="fill:none;stroke:#000000;stroke-miterlimit:1;" x1="164.16" y1="105.078" x2="166.135" y2="126.473"/>
	<line style="fill:none;stroke:#000000;stroke-miterlimit:1;" x1="166.135" y1="126.473" x2="166.135" y2="140.297"/>
	<line style="fill:none;stroke:#000000;stroke-miterlimit:1;" x1="166.135" y1="140.297" x2="165.477" y2="142.602"/>
	<line style="fill:none;stroke:#000000;stroke-miterlimit:1;" x1="165.477" y1="142.602" x2="163.172" y2="143.26"/>
	<line style="fill:none;stroke:#000000;stroke-miterlimit:1;" x1="163.172" y1="143.26" x2="149.02" y2="145.234"/>
	<line style="fill:none;stroke:#000000;stroke-miterlimit:1;" x1="149.02" y1="145.234" x2="148.031" y2="145.562"/>
	<line style="fill:none;stroke:#000000;stroke-miterlimit:1;" x1="148.031" y1="145.562" x2="146.057" y2="145.893"/>
	<line style="fill:none;stroke:#000000;stroke-miterlimit:1;" x1="146.057" y1="145.893" x2="145.07" y2="147.209"/>
	<line style="fill:none;stroke:#000000;stroke-miterlimit:1;" x1="145.07" y1="147.209" x2="145.07" y2="149.184"/>
	<line style="fill:none;stroke:#000000;stroke-miterlimit:1;" x1="145.07" y1="149.184" x2="147.045" y2="148.197"/>
	<line style="fill:none;stroke:#000000;stroke-miterlimit:1;" x1="147.045" y1="148.197" x2="149.35" y2="148.855"/>
	<line style="fill:none;stroke:#000000;stroke-miterlimit:1;" x1="158.895" y1="145.234" x2="150.666" y2="146.551"/>
	<line style="fill:none;stroke:#000000;stroke-miterlimit:1;" x1="150.666" y1="146.551" x2="149.35" y2="147.539"/>
	<line style="fill:none;stroke:#000000;stroke-miterlimit:1;" x1="149.35" y1="147.539" x2="149.678" y2="149.184"/>
	<line style="fill:none;stroke:#000000;stroke-miterlimit:1;" x1="149.678" y1="149.184" x2="152.311" y2="147.867"/>
	<line style="fill:none;stroke:#000000;stroke-miterlimit:1;" x1="152.311" y1="147.867" x2="154.285" y2="149.184"/>
	<line style="fill:none;stroke:#000000;stroke-miterlimit:1;" x1="154.285" y1="149.184" x2="167.451" y2="147.539"/>
	<line style="fill:none;stroke:#000000;stroke-miterlimit:1;" x1="167.451" y1="147.539" x2="177.654" y2="149.184"/>
	<line style="fill:none;stroke:#000000;stroke-miterlimit:1;" x1="177.654" y1="149.184" x2="177.984" y2="147.539"/>
	<line style="fill:none;stroke:#000000;stroke-miterlimit:1;" x1="177.984" y1="147.539" x2="177.326" y2="145.893"/>
	<line style="fill:none;stroke:#000000;stroke-miterlimit:1;" x1="177.326" y1="145.893" x2="174.693" y2="145.234"/>
	<line style="fill:none;stroke:#000000;stroke-miterlimit:1;" x1="174.693" y1="145.234" x2="171.73" y2="144.246"/>
	<line style="fill:none;stroke:#000000;stroke-miterlimit:1;" x1="171.73" y1="144.246" x2="170.742" y2="143.918"/>
	<line style="fill:none;stroke:#000000;stroke-miterlimit:1;" x1="170.742" y1="143.918" x2="169.756" y2="141.943"/>
	<line style="fill:none;stroke:#000000;stroke-miterlimit:1;" x1="169.756" y1="141.943" x2="169.426" y2="108.041"/>
	<line style="fill:none;stroke:#000000;stroke-miterlimit:1;" x1="169.426" y1="108.041" x2="170.084" y2="104.092"/>
	<line style="fill:none;stroke:#000000;stroke-miterlimit:1;" x1="170.084" y1="104.092" x2="170.084" y2="102.775"/>
	<line style="fill:none;stroke:#000000;stroke-miterlimit:1;" x1="170.084" y1="102.775" x2="167.781" y2="98.496"/>
	<line style="fill:none;stroke:#000000;stroke-miterlimit:1;" x1="167.781" y1="98.496" x2="165.477" y2="94.547"/>
	<line style="fill:none;stroke:#000000;stroke-miterlimit:1;" x1="165.477" y1="94.547" x2="157.906" y2="82.367"/>
	<line style="fill:none;stroke:#000000;stroke-miterlimit:1;" x1="160.869" y1="85.988" x2="172.719" y2="87.305"/>
	<line style="fill:none;stroke:#000000;stroke-miterlimit:1;" x1="172.719" y1="87.305" x2="182.592" y2="86.977"/>
	<line style="fill:none;stroke:#000000;stroke-miterlimit:1;" x1="182.592" y1="86.977" x2="195.1" y2="85.66"/>
	<line style="fill:none;stroke:#000000;stroke-miterlimit:1;" x1="195.1" y1="85.66" x2="201.354" y2="91.254"/>
	<line style="fill:none;stroke:#000000;stroke-miterlimit:1;" x1="201.354" y1="91.254" x2="208.924" y2="98.166"/>
	<line style="fill:none;stroke:#000000;stroke-miterlimit:1;" x1="208.924" y1="98.166" x2="212.545" y2="98.496"/>
	<line style="fill:none;stroke:#000000;stroke-miterlimit:1;" x1="212.545" y1="98.496" x2="216.164" y2="97.508"/>
	<line style="fill:none;stroke:#000000;stroke-miterlimit:1;" x1="216.164" y1="97.508" x2="220.115" y2="94.217"/>
	<line style="fill:none;stroke:#000000;stroke-miterlimit:1;" x1="220.115" y1="94.217" x2="220.773" y2="91.584"/>
	<line style="fill:none;stroke:#000000;stroke-miterlimit:1;" x1="220.773" y1="91.584" x2="212.873" y2="83.355"/>
	<line style="fill:none;stroke:#000000;stroke-miterlimit:1;" x1="108.864" y1="8.311" x2="80.229" y2="25.755"/>
	<line style="fill:none;stroke:#000000;stroke-miterlimit:1;" x1="80.229" y1="25.755" x2="113.143" y2="14.894"/>
	<line style="fill:none;stroke:#000000;stroke-miterlimit:1;" x1="109.193" y1="12.919" x2="80.229" y2="25.755"/>
	<line style="fill:none;stroke:#000000;stroke-miterlimit:1;" x1="115.447" y1="7.652" x2="113.801" y2="8.64"/>
	<line style="fill:none;stroke:#000000;stroke-miterlimit:1;" x1="113.801" y1="8.64" x2="114.789" y2="10.286"/>
	<line style="fill:none;stroke:#000000;stroke-miterlimit:1;" x1="114.789" y1="10.286" x2="116.435" y2="9.627"/>
	<line style="fill:none;stroke:#000000;stroke-miterlimit:1;" x1="116.435" y1="9.627" x2="115.776" y2="8.311"/>
	<line style="fill:none;stroke:#000000;stroke-miterlimit:1;" x1="178.643" y1="146.223" x2="181.275" y2="146.881"/>
	<line style="fill:none;stroke:#000000;stroke-miterlimit:1;" x1="181.275" y1="146.881" x2="182.592" y2="147.867"/>
	<line style="fill:none;stroke:#000000;stroke-miterlimit:1;" x1="182.592" y1="147.867" x2="182.922" y2="148.525"/>
	<line style="fill:none;stroke:#000000;stroke-miterlimit:1;" x1="182.922" y1="148.525" x2="181.275" y2="149.184"/>
	<line style="fill:none;stroke:#000000;stroke-miterlimit:1;" x1="181.275" y1="149.184" x2="178.971" y2="148.855"/>
	<line style="fill:none;stroke:#000000;stroke-miterlimit:1;" x1="129.271" y1="72.165" x2="136.184" y2="85.33"/>
	<line style="fill:none;stroke:#000000;stroke-miterlimit:1;" x1="136.184" y1="85.33" x2="144.082" y2="97.18"/>
	<line style="fill:none;stroke:#000000;stroke-miterlimit:1;" x1="144.082" y1="97.18" x2="144.74" y2="100.143"/>
	<line style="fill:none;stroke:#000000;stroke-miterlimit:1;" x1="144.74" y1="100.143" x2="123.346" y2="138.652"/>
	<line style="fill:none;stroke:#000000;stroke-miterlimit:1;" x1="123.346" y1="138.652" x2="122.359" y2="140.297"/>
	<line style="fill:none;stroke:#000000;stroke-miterlimit:1;" x1="122.359" y1="140.297" x2="121.372" y2="141.943"/>
	<line style="fill:none;stroke:#000000;stroke-miterlimit:1;" x1="121.372" y1="141.943" x2="119.067" y2="142.602"/>
	<line style="fill:none;stroke:#000000;stroke-miterlimit:1;" x1="119.067" y1="142.602" x2="111.168" y2="143.918"/>
	<line style="fill:none;stroke:#000000;stroke-miterlimit:1;" x1="111.168" y1="143.918" x2="105.902" y2="144.904"/>
	<line style="fill:none;stroke:#000000;stroke-miterlimit:1;" x1="105.902" y1="144.904" x2="103.927" y2="145.893"/>
	<line style="fill:none;stroke:#000000;stroke-miterlimit:1;" x1="103.927" y1="145.893" x2="102.61" y2="146.223"/>
	<line style="fill:none;stroke:#000000;stroke-miterlimit:1;" x1="102.61" y1="146.223" x2="100.636" y2="146.551"/>
	<line style="fill:none;stroke:#000000;stroke-miterlimit:1;" x1="100.636" y1="146.551" x2="99.977" y2="147.209"/>
	<line style="fill:none;stroke:#000000;stroke-miterlimit:1;" x1="99.977" y1="147.209" x2="99.319" y2="148.855"/>
	<line style="fill:none;stroke:#000000;stroke-miterlimit:1;" x1="99.319" y1="148.855" x2="101.294" y2="147.867"/>
	<line style="fill:none;stroke:#000000;stroke-miterlimit:1;" x1="101.294" y1="147.867" x2="103.598" y2="148.855"/>
	<line style="fill:none;stroke:#000000;stroke-miterlimit:1;" x1="107.218" y1="146.881" x2="105.902" y2="146.881"/>
	<line style="fill:none;stroke:#000000;stroke-miterlimit:1;" x1="105.902" y1="146.881" x2="104.256" y2="147.209"/>
	<line style="fill:none;stroke:#000000;stroke-miterlimit:1;" x1="104.256" y1="147.209" x2="103.598" y2="148.525"/>
	<line style="fill:none;stroke:#000000;stroke-miterlimit:1;" x1="103.598" y1="148.525" x2="104.256" y2="148.855"/>
	<line style="fill:none;stroke:#000000;stroke-miterlimit:1;" x1="104.256" y1="148.855" x2="106.231" y2="148.197"/>
	<line style="fill:none;stroke:#000000;stroke-miterlimit:1;" x1="107.547" y1="146.551" x2="109.852" y2="145.893"/>
	<line style="fill:none;stroke:#000000;stroke-miterlimit:1;" x1="109.852" y1="145.893" x2="115.118" y2="145.562"/>
	<line style="fill:none;stroke:#000000;stroke-miterlimit:1;" x1="106.56" y1="148.197" x2="109.193" y2="149.184"/>
	<line style="fill:none;stroke:#000000;stroke-miterlimit:1;" x1="109.193" y1="149.184" x2="121.372" y2="147.867"/>
	<line style="fill:none;stroke:#000000;stroke-miterlimit:1;" x1="121.372" y1="147.867" x2="123.346" y2="147.539"/>
	<line style="fill:none;stroke:#000000;stroke-miterlimit:1;" x1="123.346" y1="147.539" x2="133.221" y2="149.184"/>
	<line style="fill:none;stroke:#000000;stroke-miterlimit:1;" x1="133.221" y1="149.184" x2="133.551" y2="147.539"/>
	<line style="fill:none;stroke:#000000;stroke-miterlimit:1;" x1="133.551" y1="147.539" x2="133.221" y2="145.893"/>
	<line style="fill:none;stroke:#000000;stroke-miterlimit:1;" x1="133.221" y1="145.893" x2="130.258" y2="145.234"/>
	<line style="fill:none;stroke:#000000;stroke-miterlimit:1;" x1="130.258" y1="145.234" x2="126.309" y2="143.918"/>
	<line style="fill:none;stroke:#000000;stroke-miterlimit:1;" x1="125.979" y1="143.588" x2="125.65" y2="141.943"/>
	<line style="fill:none;stroke:#000000;stroke-miterlimit:1;" x1="125.65" y1="141.943" x2="146.057" y2="108.041"/>
	<line style="fill:none;stroke:#000000;stroke-miterlimit:1;" x1="146.057" y1="108.041" x2="150.994" y2="99.154"/>
	<line style="fill:none;stroke:#000000;stroke-miterlimit:1;" x1="150.994" y1="99.154" x2="150.994" y2="96.191"/>
	<line style="fill:none;stroke:#000000;stroke-miterlimit:1;" x1="150.994" y1="96.191" x2="147.373" y2="83.684"/>
	<line style="fill:none;stroke:#000000;stroke-miterlimit:1;" x1="134.209" y1="146.223" x2="136.512" y2="146.881"/>
	<line style="fill:none;stroke:#000000;stroke-miterlimit:1;" x1="136.512" y1="146.881" x2="137.828" y2="147.867"/>
	<line style="fill:none;stroke:#000000;stroke-miterlimit:1;" x1="137.828" y1="147.867" x2="138.158" y2="148.525"/>
	<line style="fill:none;stroke:#000000;stroke-miterlimit:1;" x1="138.158" y1="148.525" x2="136.512" y2="149.184"/>
	<line style="fill:none;stroke:#000000;stroke-miterlimit:1;" x1="136.512" y1="149.184" x2="134.209" y2="148.855"/>
	<line style="fill:none;stroke:#000000;stroke-miterlimit:1;" x1="245.828" y1="110.445" x2="245.828" y2="148.115"/>
	<line style="fill:none;stroke:#000000;stroke-miterlimit:1;" x1="245.828" y1="148.115" x2="253.875" y2="148.115"/>
	<line style="fill:none;stroke:#000000;stroke-miterlimit:1;" x1="253.875" y1="148.115" x2="253.875" y2="110.445"/>
	<line style="fill:none;stroke:#000000;stroke-miterlimit:1;" x1="253.875" y1="110.445" x2="245.828" y2="110.445"/>
	<line style="fill:none;stroke:#000000;stroke-miterlimit:1;" x1="245.828" y1="54.125" x2="245.828" y2="92.16"/>
	<line style="fill:none;stroke:#000000;stroke-miterlimit:1;" x1="245.828" y1="92.16" x2="253.875" y2="92.16"/>
	<line style="fill:none;stroke:#000000;stroke-miterlimit:1;" x1="253.875" y1="92.16" x2="253.875" y2="54.125"/>
	<line style="fill:none;stroke:#000000;stroke-miterlimit:1;" x1="253.875" y1="54.125" x2="245.828" y2="54.125"/>
	<line style="fill:none;stroke:#000000;stroke-miterlimit:1;" x1="245.828" y1="0" x2="245.828" y2="38.034"/>
	<line style="fill:none;stroke:#000000;stroke-miterlimit:1;" x1="245.828" y1="38.034" x2="253.875" y2="38.034"/>
	<line style="fill:none;stroke:#000000;stroke-miterlimit:1;" x1="253.875" y1="38.034" x2="253.875" y2="0"/>
	<line style="fill:none;stroke:#000000;stroke-miterlimit:1;" x1="253.875" y1="0" x2="245.828" y2="0"/>
</g>
</svg>
