<?xml version="1.0" encoding="iso-8859-1"?>
<!-- Generator: Adobe Illustrator 16.0.1, SVG Export Plug-In . SVG Version: 6.00 Build 0)  -->
<!DOCTYPE svg PUBLIC "-//W3C//DTD SVG 1.1//EN" "http://www.w3.org/Graphics/SVG/1.1/DTD/svg11.dtd">
<svg version="1.1" id="Ebene_1" xmlns="http://www.w3.org/2000/svg" xmlns:xlink="http://www.w3.org/1999/xlink" x="0px" y="0px"
	 width="235.471px" height="103.68px" viewBox="0 0 235.471 103.68" style="enable-background:new 0 0 235.471 103.68;"
	 xml:space="preserve">
<g>
	<line style="fill:none;stroke:#000000;stroke-miterlimit:1;" x1="48.055" y1="103.68" x2="67.803" y2="103.68"/>
	<line style="fill:none;stroke:#000000;stroke-miterlimit:1;" x1="67.803" y1="103.68" x2="67.474" y2="96.439"/>
	<line style="fill:none;stroke:#000000;stroke-miterlimit:1;" x1="67.474" y1="96.439" x2="69.449" y2="86.895"/>
	<line style="fill:none;stroke:#000000;stroke-miterlimit:1;" x1="69.449" y1="86.895" x2="71.424" y2="81.299"/>
	<line style="fill:none;stroke:#000000;stroke-miterlimit:1;" x1="71.424" y1="81.299" x2="75.374" y2="72.412"/>
	<line style="fill:none;stroke:#000000;stroke-miterlimit:1;" x1="75.374" y1="72.412" x2="93.477" y2="40.485"/>
	<line style="fill:none;stroke:#000000;stroke-miterlimit:1;" x1="93.477" y1="40.485" x2="94.464" y2="33.573"/>
	<line style="fill:none;stroke:#000000;stroke-miterlimit:1;" x1="94.464" y1="33.573" x2="94.793" y2="30.281"/>
	<line style="fill:none;stroke:#000000;stroke-miterlimit:1;" x1="94.793" y1="30.281" x2="94.135" y2="24.357"/>
	<line style="fill:none;stroke:#000000;stroke-miterlimit:1;" x1="94.135" y1="24.357" x2="93.147" y2="20.407"/>
	<line style="fill:none;stroke:#000000;stroke-miterlimit:1;" x1="93.147" y1="20.407" x2="91.501" y2="15.47"/>
	<line style="fill:none;stroke:#000000;stroke-miterlimit:1;" x1="91.501" y1="15.47" x2="88.539" y2="10.862"/>
	<line style="fill:none;stroke:#000000;stroke-miterlimit:1;" x1="88.539" y1="10.862" x2="86.235" y2="8.229"/>
	<line style="fill:none;stroke:#000000;stroke-miterlimit:1;" x1="86.235" y1="8.229" x2="80.311" y2="2.633"/>
	<line style="fill:none;stroke:#000000;stroke-miterlimit:1;" x1="80.311" y1="2.633" x2="75.703" y2="0.988"/>
	<line style="fill:none;stroke:#000000;stroke-miterlimit:1;" x1="75.703" y1="0.988" x2="66.158" y2="0"/>
	<line style="fill:none;stroke:#000000;stroke-miterlimit:1;" x1="66.158" y1="0" x2="58.258" y2="0.988"/>
	<line style="fill:none;stroke:#000000;stroke-miterlimit:1;" x1="58.258" y1="0.988" x2="54.967" y2="2.304"/>
	<line style="fill:none;stroke:#000000;stroke-miterlimit:1;" x1="54.967" y1="2.304" x2="51.017" y2="4.938"/>
	<line style="fill:none;stroke:#000000;stroke-miterlimit:1;" x1="51.017" y1="4.938" x2="47.396" y2="8.887"/>
	<line style="fill:none;stroke:#000000;stroke-miterlimit:1;" x1="47.396" y1="8.887" x2="45.75" y2="11.191"/>
	<line style="fill:none;stroke:#000000;stroke-miterlimit:1;" x1="45.75" y1="11.191" x2="44.105" y2="13.166"/>
	<line style="fill:none;stroke:#000000;stroke-miterlimit:1;" x1="43.118" y1="13.495" x2="40.155" y2="14.812"/>
	<line style="fill:none;stroke:#000000;stroke-miterlimit:1;" x1="40.155" y1="14.812" x2="7.899" y2="21.065"/>
	<line style="fill:none;stroke:#000000;stroke-miterlimit:1;" x1="7.899" y1="21.065" x2="4.937" y2="23.369"/>
	<line style="fill:none;stroke:#000000;stroke-miterlimit:1;" x1="4.937" y1="23.369" x2="2.633" y2="25.015"/>
	<line style="fill:none;stroke:#000000;stroke-miterlimit:1;" x1="2.633" y1="25.015" x2="0.658" y2="28.636"/>
	<line style="fill:none;stroke:#000000;stroke-miterlimit:1;" x1="0.658" y1="28.636" x2="0" y2="33.902"/>
	<line style="fill:none;stroke:#000000;stroke-miterlimit:1;" x1="0" y1="33.902" x2="0.329" y2="35.218"/>
	<line style="fill:none;stroke:#000000;stroke-miterlimit:1;" x1="0.329" y1="35.218" x2="1.316" y2="35.877"/>
	<line style="fill:none;stroke:#000000;stroke-miterlimit:1;" x1="1.316" y1="35.877" x2="1.975" y2="35.877"/>
	<line style="fill:none;stroke:#000000;stroke-miterlimit:1;" x1="1.975" y1="35.877" x2="3.621" y2="35.218"/>
	<line style="fill:none;stroke:#000000;stroke-miterlimit:1;" x1="3.621" y1="35.218" x2="4.279" y2="32.256"/>
	<line style="fill:none;stroke:#000000;stroke-miterlimit:1;" x1="4.279" y1="32.256" x2="6.253" y2="29.294"/>
	<line style="fill:none;stroke:#000000;stroke-miterlimit:1;" x1="6.253" y1="29.294" x2="9.216" y2="26.661"/>
	<line style="fill:none;stroke:#000000;stroke-miterlimit:1;" x1="9.216" y1="26.661" x2="12.507" y2="25.673"/>
	<line style="fill:none;stroke:#000000;stroke-miterlimit:1;" x1="12.507" y1="25.673" x2="16.786" y2="24.357"/>
	<line style="fill:none;stroke:#000000;stroke-miterlimit:1;" x1="16.786" y1="24.357" x2="43.447" y2="20.736"/>
	<line style="fill:none;stroke:#000000;stroke-miterlimit:1;" x1="43.447" y1="20.736" x2="44.105" y2="20.407"/>
	<line style="fill:none;stroke:#000000;stroke-miterlimit:1;" x1="44.105" y1="20.407" x2="48.055" y2="21.065"/>
	<line style="fill:none;stroke:#000000;stroke-miterlimit:1;" x1="43.447" y1="13.495" x2="48.055" y2="21.395"/>
	<line style="fill:none;stroke:#000000;stroke-miterlimit:1;" x1="48.055" y1="21.395" x2="48.055" y2="25.673"/>
	<line style="fill:none;stroke:#000000;stroke-miterlimit:1;" x1="4.937" y1="31.927" x2="7.899" y2="29.952"/>
	<line style="fill:none;stroke:#000000;stroke-miterlimit:1;" x1="7.899" y1="29.952" x2="12.836" y2="28.636"/>
	<line style="fill:none;stroke:#000000;stroke-miterlimit:1;" x1="12.836" y1="28.636" x2="25.673" y2="27.319"/>
	<line style="fill:none;stroke:#000000;stroke-miterlimit:1;" x1="25.673" y1="27.319" x2="38.509" y2="25.673"/>
	<line style="fill:none;stroke:#000000;stroke-miterlimit:1;" x1="38.509" y1="25.673" x2="43.776" y2="25.673"/>
	<line style="fill:none;stroke:#000000;stroke-miterlimit:1;" x1="43.776" y1="25.673" x2="48.384" y2="25.673"/>
	<line style="fill:none;stroke:#000000;stroke-miterlimit:1;" x1="48.384" y1="25.673" x2="51.017" y2="26.002"/>
	<line style="fill:none;stroke:#000000;stroke-miterlimit:1;" x1="51.017" y1="26.002" x2="56.283" y2="27.319"/>
	<line style="fill:none;stroke:#000000;stroke-miterlimit:1;" x1="56.283" y1="27.319" x2="65.499" y2="28.965"/>
	<line style="fill:none;stroke:#000000;stroke-miterlimit:1;" x1="65.499" y1="28.965" x2="70.437" y2="29.294"/>
	<line style="fill:none;stroke:#000000;stroke-miterlimit:1;" x1="70.437" y1="29.294" x2="74.057" y2="28.965"/>
	<line style="fill:none;stroke:#000000;stroke-miterlimit:1;" x1="74.057" y1="28.965" x2="78.007" y2="27.978"/>
	<line style="fill:none;stroke:#000000;stroke-miterlimit:1;" x1="78.007" y1="27.978" x2="80.311" y2="29.294"/>
	<line style="fill:none;stroke:#000000;stroke-miterlimit:1;" x1="80.311" y1="29.294" x2="81.298" y2="30.939"/>
	<line style="fill:none;stroke:#000000;stroke-miterlimit:1;" x1="81.298" y1="30.939" x2="81.627" y2="34.889"/>
	<line style="fill:none;stroke:#000000;stroke-miterlimit:1;" x1="81.627" y1="34.889" x2="81.298" y2="38.181"/>
	<line style="fill:none;stroke:#000000;stroke-miterlimit:1;" x1="81.298" y1="38.181" x2="79.652" y2="42.13"/>
	<line style="fill:none;stroke:#000000;stroke-miterlimit:1;" x1="79.652" y1="42.13" x2="65.17" y2="61.221"/>
	<line style="fill:none;stroke:#000000;stroke-miterlimit:1;" x1="65.17" y1="61.221" x2="57.929" y2="72.74"/>
	<line style="fill:none;stroke:#000000;stroke-miterlimit:1;" x1="57.929" y1="72.74" x2="54.967" y2="78.666"/>
	<line style="fill:none;stroke:#000000;stroke-miterlimit:1;" x1="54.967" y1="78.666" x2="51.346" y2="85.578"/>
	<line style="fill:none;stroke:#000000;stroke-miterlimit:1;" x1="51.346" y1="85.578" x2="49.371" y2="94.465"/>
	<line style="fill:none;stroke:#000000;stroke-miterlimit:1;" x1="49.371" y1="94.465" x2="48.055" y2="103.68"/>
	<line style="fill:none;stroke:#000000;stroke-miterlimit:1;" x1="76.361" y1="1.317" x2="93.477" y2="7.57"/>
	<line style="fill:none;stroke:#000000;stroke-miterlimit:1;" x1="93.477" y1="7.57" x2="110.263" y2="11.849"/>
	<line style="fill:none;stroke:#000000;stroke-miterlimit:1;" x1="110.263" y1="11.849" x2="117.175" y2="13.166"/>
	<line style="fill:none;stroke:#000000;stroke-miterlimit:1;" x1="117.175" y1="13.166" x2="123.1" y2="13.495"/>
	<line style="fill:none;stroke:#000000;stroke-miterlimit:1;" x1="123.1" y1="13.495" x2="130.34" y2="13.495"/>
	<line style="fill:none;stroke:#000000;stroke-miterlimit:1;" x1="130.34" y1="13.495" x2="138.24" y2="13.166"/>
	<line style="fill:none;stroke:#000000;stroke-miterlimit:1;" x1="138.24" y1="13.166" x2="144.164" y2="11.849"/>
	<line style="fill:none;stroke:#000000;stroke-miterlimit:1;" x1="144.164" y1="11.849" x2="150.09" y2="10.533"/>
	<line style="fill:none;stroke:#000000;stroke-miterlimit:1;" x1="150.09" y1="10.533" x2="150.748" y2="11.191"/>
	<line style="fill:none;stroke:#000000;stroke-miterlimit:1;" x1="150.748" y1="11.191" x2="150.09" y2="13.495"/>
	<line style="fill:none;stroke:#000000;stroke-miterlimit:1;" x1="150.09" y1="13.495" x2="147.785" y2="15.141"/>
	<line style="fill:none;stroke:#000000;stroke-miterlimit:1;" x1="147.785" y1="15.141" x2="139.885" y2="16.787"/>
	<line style="fill:none;stroke:#000000;stroke-miterlimit:1;" x1="139.885" y1="16.787" x2="131.986" y2="17.774"/>
	<line style="fill:none;stroke:#000000;stroke-miterlimit:1;" x1="131.986" y1="17.774" x2="123.1" y2="17.774"/>
	<line style="fill:none;stroke:#000000;stroke-miterlimit:1;" x1="123.1" y1="17.774" x2="115.529" y2="17.116"/>
	<line style="fill:none;stroke:#000000;stroke-miterlimit:1;" x1="115.529" y1="17.116" x2="102.692" y2="14.812"/>
	<line style="fill:none;stroke:#000000;stroke-miterlimit:1;" x1="102.692" y1="14.812" x2="95.451" y2="12.508"/>
	<line style="fill:none;stroke:#000000;stroke-miterlimit:1;" x1="86.235" y1="7.57" x2="99.072" y2="14.482"/>
	<line style="fill:none;stroke:#000000;stroke-miterlimit:1;" x1="99.072" y1="14.482" x2="111.908" y2="21.065"/>
	<line style="fill:none;stroke:#000000;stroke-miterlimit:1;" x1="111.908" y1="21.065" x2="119.809" y2="25.015"/>
	<line style="fill:none;stroke:#000000;stroke-miterlimit:1;" x1="119.809" y1="25.015" x2="125.732" y2="27.319"/>
	<line style="fill:none;stroke:#000000;stroke-miterlimit:1;" x1="125.732" y1="27.319" x2="132.314" y2="28.965"/>
	<line style="fill:none;stroke:#000000;stroke-miterlimit:1;" x1="132.314" y1="28.965" x2="136.924" y2="29.623"/>
	<line style="fill:none;stroke:#000000;stroke-miterlimit:1;" x1="136.924" y1="29.623" x2="145.48" y2="30.61"/>
	<line style="fill:none;stroke:#000000;stroke-miterlimit:1;" x1="145.48" y1="30.61" x2="149.102" y2="29.952"/>
	<line style="fill:none;stroke:#000000;stroke-miterlimit:1;" x1="149.102" y1="29.952" x2="150.748" y2="29.623"/>
	<line style="fill:none;stroke:#000000;stroke-miterlimit:1;" x1="150.748" y1="29.623" x2="152.064" y2="30.61"/>
	<line style="fill:none;stroke:#000000;stroke-miterlimit:1;" x1="152.064" y1="30.61" x2="152.393" y2="32.585"/>
	<line style="fill:none;stroke:#000000;stroke-miterlimit:1;" x1="152.393" y1="32.585" x2="147.455" y2="34.231"/>
	<line style="fill:none;stroke:#000000;stroke-miterlimit:1;" x1="147.455" y1="34.231" x2="141.531" y2="34.889"/>
	<line style="fill:none;stroke:#000000;stroke-miterlimit:1;" x1="141.531" y1="34.889" x2="134.949" y2="33.902"/>
	<line style="fill:none;stroke:#000000;stroke-miterlimit:1;" x1="134.949" y1="33.902" x2="125.732" y2="31.927"/>
	<line style="fill:none;stroke:#000000;stroke-miterlimit:1;" x1="125.732" y1="31.927" x2="117.833" y2="29.294"/>
	<line style="fill:none;stroke:#000000;stroke-miterlimit:1;" x1="117.833" y1="29.294" x2="110.263" y2="25.673"/>
	<line style="fill:none;stroke:#000000;stroke-miterlimit:1;" x1="110.263" y1="25.673" x2="91.831" y2="15.141"/>
	<line style="fill:none;stroke:#000000;stroke-miterlimit:1;" x1="58.587" y1="9.545" x2="56.612" y2="9.875"/>
	<line style="fill:none;stroke:#000000;stroke-miterlimit:1;" x1="56.612" y1="9.875" x2="54.967" y2="11.849"/>
	<line style="fill:none;stroke:#000000;stroke-miterlimit:1;" x1="54.967" y1="11.849" x2="54.967" y2="14.153"/>
	<line style="fill:none;stroke:#000000;stroke-miterlimit:1;" x1="54.967" y1="14.153" x2="56.612" y2="15.799"/>
	<line style="fill:none;stroke:#000000;stroke-miterlimit:1;" x1="56.612" y1="15.799" x2="58.917" y2="15.799"/>
	<line style="fill:none;stroke:#000000;stroke-miterlimit:1;" x1="58.917" y1="15.799" x2="61.22" y2="14.812"/>
	<line style="fill:none;stroke:#000000;stroke-miterlimit:1;" x1="61.22" y1="14.812" x2="61.549" y2="13.495"/>
	<line style="fill:none;stroke:#000000;stroke-miterlimit:1;" x1="61.549" y1="13.495" x2="60.891" y2="11.52"/>
	<line style="fill:none;stroke:#000000;stroke-miterlimit:1;" x1="60.891" y1="11.52" x2="59.246" y2="9.545"/>
	<line style="fill:none;stroke:#000000;stroke-miterlimit:1;" x1="177.43" y1="95.469" x2="181.973" y2="93.953"/>
	<line style="fill:none;stroke:#000000;stroke-miterlimit:1;" x1="181.973" y1="93.953" x2="187.02" y2="90.422"/>
	<line style="fill:none;stroke:#000000;stroke-miterlimit:1;" x1="187.02" y1="90.422" x2="189.543" y2="84.869"/>
	<line style="fill:none;stroke:#000000;stroke-miterlimit:1;" x1="189.543" y1="84.869" x2="189.039" y2="78.812"/>
	<line style="fill:none;stroke:#000000;stroke-miterlimit:1;" x1="189.039" y1="78.812" x2="186.516" y2="73.766"/>
	<line style="fill:none;stroke:#000000;stroke-miterlimit:1;" x1="186.516" y1="73.766" x2="182.479" y2="70.738"/>
	<line style="fill:none;stroke:#000000;stroke-miterlimit:1;" x1="182.479" y1="70.738" x2="175.412" y2="70.232"/>
	<line style="fill:none;stroke:#000000;stroke-miterlimit:1;" x1="175.412" y1="70.232" x2="169.859" y2="72.252"/>
	<line style="fill:none;stroke:#000000;stroke-miterlimit:1;" x1="169.859" y1="72.252" x2="167.336" y2="75.279"/>
	<line style="fill:none;stroke:#000000;stroke-miterlimit:1;" x1="167.336" y1="75.279" x2="165.318" y2="80.832"/>
	<line style="fill:none;stroke:#000000;stroke-miterlimit:1;" x1="165.318" y1="80.832" x2="166.328" y2="87.393"/>
	<line style="fill:none;stroke:#000000;stroke-miterlimit:1;" x1="166.328" y1="87.393" x2="169.355" y2="91.936"/>
	<line style="fill:none;stroke:#000000;stroke-miterlimit:1;" x1="169.355" y1="91.936" x2="174.402" y2="94.459"/>
	<line style="fill:none;stroke:#000000;stroke-miterlimit:1;" x1="174.402" y1="94.459" x2="176.926" y2="95.469"/>
	<line style="fill:none;stroke:#000000;stroke-miterlimit:1;" x1="200.646" y1="56.102" x2="204.684" y2="55.598"/>
	<line style="fill:none;stroke:#000000;stroke-miterlimit:1;" x1="204.684" y1="55.598" x2="208.723" y2="53.578"/>
	<line style="fill:none;stroke:#000000;stroke-miterlimit:1;" x1="208.723" y1="53.578" x2="211.75" y2="50.045"/>
	<line style="fill:none;stroke:#000000;stroke-miterlimit:1;" x1="211.75" y1="50.045" x2="212.76" y2="43.484"/>
	<line style="fill:none;stroke:#000000;stroke-miterlimit:1;" x1="212.76" y1="43.484" x2="211.246" y2="35.914"/>
	<line style="fill:none;stroke:#000000;stroke-miterlimit:1;" x1="211.246" y1="35.914" x2="205.189" y2="31.371"/>
	<line style="fill:none;stroke:#000000;stroke-miterlimit:1;" x1="205.189" y1="31.371" x2="199.637" y2="30.867"/>
	<line style="fill:none;stroke:#000000;stroke-miterlimit:1;" x1="199.637" y1="30.867" x2="194.59" y2="31.876"/>
	<line style="fill:none;stroke:#000000;stroke-miterlimit:1;" x1="194.59" y1="31.876" x2="190.553" y2="36.418"/>
	<line style="fill:none;stroke:#000000;stroke-miterlimit:1;" x1="190.553" y1="36.418" x2="188.533" y2="41.97"/>
	<line style="fill:none;stroke:#000000;stroke-miterlimit:1;" x1="188.533" y1="41.97" x2="189.039" y2="46.007"/>
	<line style="fill:none;stroke:#000000;stroke-miterlimit:1;" x1="189.039" y1="46.007" x2="190.553" y2="51.559"/>
	<line style="fill:none;stroke:#000000;stroke-miterlimit:1;" x1="190.553" y1="51.559" x2="194.59" y2="54.588"/>
	<line style="fill:none;stroke:#000000;stroke-miterlimit:1;" x1="194.59" y1="54.588" x2="200.646" y2="56.102"/>
	<line style="fill:none;stroke:#000000;stroke-miterlimit:1;" x1="223.357" y1="94.963" x2="227.9" y2="94.459"/>
	<line style="fill:none;stroke:#000000;stroke-miterlimit:1;" x1="227.9" y1="94.459" x2="231.938" y2="92.439"/>
	<line style="fill:none;stroke:#000000;stroke-miterlimit:1;" x1="231.938" y1="92.439" x2="234.967" y2="88.402"/>
	<line style="fill:none;stroke:#000000;stroke-miterlimit:1;" x1="234.967" y1="88.402" x2="235.471" y2="82.346"/>
	<line style="fill:none;stroke:#000000;stroke-miterlimit:1;" x1="235.471" y1="82.346" x2="234.461" y2="74.775"/>
	<line style="fill:none;stroke:#000000;stroke-miterlimit:1;" x1="234.461" y1="74.775" x2="228.406" y2="70.232"/>
	<line style="fill:none;stroke:#000000;stroke-miterlimit:1;" x1="228.406" y1="70.232" x2="222.854" y2="69.729"/>
	<line style="fill:none;stroke:#000000;stroke-miterlimit:1;" x1="222.854" y1="69.729" x2="217.303" y2="70.738"/>
	<line style="fill:none;stroke:#000000;stroke-miterlimit:1;" x1="217.303" y1="70.738" x2="213.77" y2="75.279"/>
	<line style="fill:none;stroke:#000000;stroke-miterlimit:1;" x1="213.77" y1="75.279" x2="211.75" y2="80.328"/>
	<line style="fill:none;stroke:#000000;stroke-miterlimit:1;" x1="211.75" y1="80.328" x2="212.254" y2="84.365"/>
	<line style="fill:none;stroke:#000000;stroke-miterlimit:1;" x1="212.254" y1="84.365" x2="213.77" y2="90.422"/>
	<line style="fill:none;stroke:#000000;stroke-miterlimit:1;" x1="213.77" y1="90.422" x2="217.303" y2="93.449"/>
	<line style="fill:none;stroke:#000000;stroke-miterlimit:1;" x1="217.303" y1="93.449" x2="223.863" y2="95.469"/>
</g>
</svg>
