<?xml version="1.0" encoding="iso-8859-1"?>
<!-- Generator: Adobe Illustrator 16.0.1, SVG Export Plug-In . SVG Version: 6.00 Build 0)  -->
<!DOCTYPE svg PUBLIC "-//W3C//DTD SVG 1.1//EN" "http://www.w3.org/Graphics/SVG/1.1/DTD/svg11.dtd">
<svg version="1.1" id="Ebene_1" xmlns="http://www.w3.org/2000/svg" xmlns:xlink="http://www.w3.org/1999/xlink" x="0px" y="0px"
	 width="294.459px" height="147.799px" viewBox="0 0 294.459 147.799" style="enable-background:new 0 0 294.459 147.799;"
	 xml:space="preserve">
<g>
	<line style="fill:none;stroke:#000000;stroke-miterlimit:1;" x1="47.385" y1="101.287" x2="66.451" y2="101.287"/>
	<line style="fill:none;stroke:#000000;stroke-miterlimit:1;" x1="66.451" y1="101.287" x2="66.133" y2="94.296"/>
	<line style="fill:none;stroke:#000000;stroke-miterlimit:1;" x1="66.133" y1="94.296" x2="68.04" y2="85.081"/>
	<line style="fill:none;stroke:#000000;stroke-miterlimit:1;" x1="68.04" y1="85.081" x2="69.946" y2="79.68"/>
	<line style="fill:none;stroke:#000000;stroke-miterlimit:1;" x1="69.946" y1="79.68" x2="73.759" y2="71.1"/>
	<line style="fill:none;stroke:#000000;stroke-miterlimit:1;" x1="73.759" y1="71.1" x2="91.236" y2="40.277"/>
	<line style="fill:none;stroke:#000000;stroke-miterlimit:1;" x1="91.236" y1="40.277" x2="92.189" y2="33.604"/>
	<line style="fill:none;stroke:#000000;stroke-miterlimit:1;" x1="92.189" y1="33.604" x2="92.507" y2="30.427"/>
	<line style="fill:none;stroke:#000000;stroke-miterlimit:1;" x1="92.507" y1="30.427" x2="91.871" y2="24.708"/>
	<line style="fill:none;stroke:#000000;stroke-miterlimit:1;" x1="91.871" y1="24.708" x2="90.918" y2="20.895"/>
	<line style="fill:none;stroke:#000000;stroke-miterlimit:1;" x1="90.918" y1="20.895" x2="89.329" y2="16.128"/>
	<line style="fill:none;stroke:#000000;stroke-miterlimit:1;" x1="89.329" y1="16.128" x2="86.469" y2="11.679"/>
	<line style="fill:none;stroke:#000000;stroke-miterlimit:1;" x1="86.469" y1="11.679" x2="84.245" y2="9.137"/>
	<line style="fill:none;stroke:#000000;stroke-miterlimit:1;" x1="84.245" y1="9.137" x2="78.525" y2="3.735"/>
	<line style="fill:none;stroke:#000000;stroke-miterlimit:1;" x1="78.525" y1="3.735" x2="74.077" y2="2.146"/>
	<line style="fill:none;stroke:#000000;stroke-miterlimit:1;" x1="74.077" y1="2.146" x2="64.862" y2="1.193"/>
	<line style="fill:none;stroke:#000000;stroke-miterlimit:1;" x1="64.862" y1="1.193" x2="57.236" y2="2.146"/>
	<line style="fill:none;stroke:#000000;stroke-miterlimit:1;" x1="57.236" y1="2.146" x2="54.058" y2="3.417"/>
	<line style="fill:none;stroke:#000000;stroke-miterlimit:1;" x1="54.058" y1="3.417" x2="50.245" y2="5.96"/>
	<line style="fill:none;stroke:#000000;stroke-miterlimit:1;" x1="50.245" y1="5.96" x2="46.75" y2="9.773"/>
	<line style="fill:none;stroke:#000000;stroke-miterlimit:1;" x1="46.75" y1="9.773" x2="45.161" y2="11.997"/>
	<line style="fill:none;stroke:#000000;stroke-miterlimit:1;" x1="45.161" y1="11.997" x2="43.572" y2="13.904"/>
	<line style="fill:none;stroke:#000000;stroke-miterlimit:1;" x1="42.619" y1="14.221" x2="39.759" y2="15.492"/>
	<line style="fill:none;stroke:#000000;stroke-miterlimit:1;" x1="39.759" y1="15.492" x2="8.619" y2="21.53"/>
	<line style="fill:none;stroke:#000000;stroke-miterlimit:1;" x1="8.619" y1="21.53" x2="5.759" y2="23.754"/>
	<line style="fill:none;stroke:#000000;stroke-miterlimit:1;" x1="5.759" y1="23.754" x2="3.535" y2="25.343"/>
	<line style="fill:none;stroke:#000000;stroke-miterlimit:1;" x1="3.535" y1="25.343" x2="1.628" y2="28.838"/>
	<line style="fill:none;stroke:#000000;stroke-miterlimit:1;" x1="1.628" y1="28.838" x2="0.993" y2="33.922"/>
	<line style="fill:none;stroke:#000000;stroke-miterlimit:1;" x1="0.993" y1="33.922" x2="1.311" y2="35.193"/>
	<line style="fill:none;stroke:#000000;stroke-miterlimit:1;" x1="1.311" y1="35.193" x2="2.264" y2="35.829"/>
	<line style="fill:none;stroke:#000000;stroke-miterlimit:1;" x1="2.264" y1="35.829" x2="2.899" y2="35.829"/>
	<line style="fill:none;stroke:#000000;stroke-miterlimit:1;" x1="2.899" y1="35.829" x2="4.488" y2="35.193"/>
	<line style="fill:none;stroke:#000000;stroke-miterlimit:1;" x1="4.488" y1="35.193" x2="5.124" y2="32.333"/>
	<line style="fill:none;stroke:#000000;stroke-miterlimit:1;" x1="5.124" y1="32.333" x2="7.03" y2="29.474"/>
	<line style="fill:none;stroke:#000000;stroke-miterlimit:1;" x1="7.03" y1="29.474" x2="9.89" y2="26.932"/>
	<line style="fill:none;stroke:#000000;stroke-miterlimit:1;" x1="9.89" y1="26.932" x2="13.068" y2="25.979"/>
	<line style="fill:none;stroke:#000000;stroke-miterlimit:1;" x1="13.068" y1="25.979" x2="17.199" y2="24.708"/>
	<line style="fill:none;stroke:#000000;stroke-miterlimit:1;" x1="17.199" y1="24.708" x2="42.937" y2="21.212"/>
	<line style="fill:none;stroke:#000000;stroke-miterlimit:1;" x1="42.937" y1="21.212" x2="43.572" y2="20.895"/>
	<line style="fill:none;stroke:#000000;stroke-miterlimit:1;" x1="43.572" y1="20.895" x2="47.385" y2="21.53"/>
	<line style="fill:none;stroke:#000000;stroke-miterlimit:1;" x1="42.937" y1="14.221" x2="47.385" y2="21.848"/>
	<line style="fill:none;stroke:#000000;stroke-miterlimit:1;" x1="47.385" y1="21.848" x2="47.385" y2="25.979"/>
	<line style="fill:none;stroke:#000000;stroke-miterlimit:1;" x1="5.759" y1="32.016" x2="8.619" y2="30.109"/>
	<line style="fill:none;stroke:#000000;stroke-miterlimit:1;" x1="8.619" y1="30.109" x2="13.385" y2="28.838"/>
	<line style="fill:none;stroke:#000000;stroke-miterlimit:1;" x1="13.385" y1="28.838" x2="25.778" y2="27.567"/>
	<line style="fill:none;stroke:#000000;stroke-miterlimit:1;" x1="25.778" y1="27.567" x2="38.17" y2="25.979"/>
	<line style="fill:none;stroke:#000000;stroke-miterlimit:1;" x1="38.17" y1="25.979" x2="43.254" y2="25.979"/>
	<line style="fill:none;stroke:#000000;stroke-miterlimit:1;" x1="43.254" y1="25.979" x2="47.703" y2="25.979"/>
	<line style="fill:none;stroke:#000000;stroke-miterlimit:1;" x1="47.703" y1="25.979" x2="50.245" y2="26.296"/>
	<line style="fill:none;stroke:#000000;stroke-miterlimit:1;" x1="50.245" y1="26.296" x2="55.329" y2="27.567"/>
	<line style="fill:none;stroke:#000000;stroke-miterlimit:1;" x1="55.329" y1="27.567" x2="64.227" y2="29.156"/>
	<line style="fill:none;stroke:#000000;stroke-miterlimit:1;" x1="64.227" y1="29.156" x2="68.993" y2="29.474"/>
	<line style="fill:none;stroke:#000000;stroke-miterlimit:1;" x1="68.993" y1="29.474" x2="72.488" y2="29.156"/>
	<line style="fill:none;stroke:#000000;stroke-miterlimit:1;" x1="72.488" y1="29.156" x2="76.301" y2="28.203"/>
	<line style="fill:none;stroke:#000000;stroke-miterlimit:1;" x1="76.301" y1="28.203" x2="78.525" y2="29.474"/>
	<line style="fill:none;stroke:#000000;stroke-miterlimit:1;" x1="78.525" y1="29.474" x2="79.479" y2="31.062"/>
	<line style="fill:none;stroke:#000000;stroke-miterlimit:1;" x1="79.479" y1="31.062" x2="79.796" y2="34.875"/>
	<line style="fill:none;stroke:#000000;stroke-miterlimit:1;" x1="79.796" y1="34.875" x2="79.479" y2="38.053"/>
	<line style="fill:none;stroke:#000000;stroke-miterlimit:1;" x1="79.479" y1="38.053" x2="77.89" y2="41.866"/>
	<line style="fill:none;stroke:#000000;stroke-miterlimit:1;" x1="77.89" y1="41.866" x2="63.909" y2="60.296"/>
	<line style="fill:none;stroke:#000000;stroke-miterlimit:1;" x1="63.909" y1="60.296" x2="56.918" y2="71.417"/>
	<line style="fill:none;stroke:#000000;stroke-miterlimit:1;" x1="56.918" y1="71.417" x2="54.058" y2="77.137"/>
	<line style="fill:none;stroke:#000000;stroke-miterlimit:1;" x1="54.058" y1="77.137" x2="50.563" y2="83.811"/>
	<line style="fill:none;stroke:#000000;stroke-miterlimit:1;" x1="50.563" y1="83.811" x2="48.656" y2="92.39"/>
	<line style="fill:none;stroke:#000000;stroke-miterlimit:1;" x1="48.656" y1="92.39" x2="47.385" y2="101.287"/>
	<line style="fill:none;stroke:#000000;stroke-miterlimit:1;" x1="74.712" y1="2.464" x2="91.236" y2="8.502"/>
	<line style="fill:none;stroke:#000000;stroke-miterlimit:1;" x1="91.236" y1="8.502" x2="107.441" y2="12.633"/>
	<line style="fill:none;stroke:#000000;stroke-miterlimit:1;" x1="107.441" y1="12.633" x2="114.114" y2="13.904"/>
	<line style="fill:none;stroke:#000000;stroke-miterlimit:1;" x1="114.114" y1="13.904" x2="119.834" y2="14.221"/>
	<line style="fill:none;stroke:#000000;stroke-miterlimit:1;" x1="119.834" y1="14.221" x2="126.825" y2="14.221"/>
	<line style="fill:none;stroke:#000000;stroke-miterlimit:1;" x1="126.825" y1="14.221" x2="134.451" y2="13.904"/>
	<line style="fill:none;stroke:#000000;stroke-miterlimit:1;" x1="134.451" y1="13.904" x2="140.17" y2="12.633"/>
	<line style="fill:none;stroke:#000000;stroke-miterlimit:1;" x1="140.17" y1="12.633" x2="145.89" y2="11.362"/>
	<line style="fill:none;stroke:#000000;stroke-miterlimit:1;" x1="145.89" y1="11.362" x2="146.525" y2="11.997"/>
	<line style="fill:none;stroke:#000000;stroke-miterlimit:1;" x1="146.525" y1="11.997" x2="145.89" y2="14.221"/>
	<line style="fill:none;stroke:#000000;stroke-miterlimit:1;" x1="145.89" y1="14.221" x2="143.666" y2="15.81"/>
	<line style="fill:none;stroke:#000000;stroke-miterlimit:1;" x1="143.666" y1="15.81" x2="136.04" y2="17.399"/>
	<line style="fill:none;stroke:#000000;stroke-miterlimit:1;" x1="136.04" y1="17.399" x2="128.413" y2="18.352"/>
	<line style="fill:none;stroke:#000000;stroke-miterlimit:1;" x1="128.413" y1="18.352" x2="119.834" y2="18.352"/>
	<line style="fill:none;stroke:#000000;stroke-miterlimit:1;" x1="119.834" y1="18.352" x2="112.525" y2="17.717"/>
	<line style="fill:none;stroke:#000000;stroke-miterlimit:1;" x1="112.525" y1="17.717" x2="100.133" y2="15.492"/>
	<line style="fill:none;stroke:#000000;stroke-miterlimit:1;" x1="100.133" y1="15.492" x2="93.143" y2="13.268"/>
	<line style="fill:none;stroke:#000000;stroke-miterlimit:1;" x1="84.245" y1="8.502" x2="96.638" y2="15.175"/>
	<line style="fill:none;stroke:#000000;stroke-miterlimit:1;" x1="96.638" y1="15.175" x2="109.03" y2="21.53"/>
	<line style="fill:none;stroke:#000000;stroke-miterlimit:1;" x1="109.03" y1="21.53" x2="116.656" y2="25.343"/>
	<line style="fill:none;stroke:#000000;stroke-miterlimit:1;" x1="116.656" y1="25.343" x2="122.376" y2="27.567"/>
	<line style="fill:none;stroke:#000000;stroke-miterlimit:1;" x1="122.376" y1="27.567" x2="128.731" y2="29.156"/>
	<line style="fill:none;stroke:#000000;stroke-miterlimit:1;" x1="128.731" y1="29.156" x2="133.18" y2="29.792"/>
	<line style="fill:none;stroke:#000000;stroke-miterlimit:1;" x1="133.18" y1="29.792" x2="141.441" y2="30.745"/>
	<line style="fill:none;stroke:#000000;stroke-miterlimit:1;" x1="141.441" y1="30.745" x2="144.937" y2="30.109"/>
	<line style="fill:none;stroke:#000000;stroke-miterlimit:1;" x1="144.937" y1="30.109" x2="146.525" y2="29.792"/>
	<line style="fill:none;stroke:#000000;stroke-miterlimit:1;" x1="146.525" y1="29.792" x2="147.797" y2="30.745"/>
	<line style="fill:none;stroke:#000000;stroke-miterlimit:1;" x1="147.797" y1="30.745" x2="148.114" y2="32.651"/>
	<line style="fill:none;stroke:#000000;stroke-miterlimit:1;" x1="148.114" y1="32.651" x2="143.348" y2="34.24"/>
	<line style="fill:none;stroke:#000000;stroke-miterlimit:1;" x1="143.348" y1="34.24" x2="137.628" y2="34.875"/>
	<line style="fill:none;stroke:#000000;stroke-miterlimit:1;" x1="137.628" y1="34.875" x2="131.273" y2="33.922"/>
	<line style="fill:none;stroke:#000000;stroke-miterlimit:1;" x1="131.273" y1="33.922" x2="122.376" y2="32.016"/>
	<line style="fill:none;stroke:#000000;stroke-miterlimit:1;" x1="122.376" y1="32.016" x2="114.75" y2="29.474"/>
	<line style="fill:none;stroke:#000000;stroke-miterlimit:1;" x1="114.75" y1="29.474" x2="107.441" y2="25.979"/>
	<line style="fill:none;stroke:#000000;stroke-miterlimit:1;" x1="107.441" y1="25.979" x2="89.647" y2="15.81"/>
	<line style="fill:none;stroke:#000000;stroke-miterlimit:1;" x1="57.554" y1="10.408" x2="55.647" y2="10.726"/>
	<line style="fill:none;stroke:#000000;stroke-miterlimit:1;" x1="55.647" y1="10.726" x2="54.058" y2="12.633"/>
	<line style="fill:none;stroke:#000000;stroke-miterlimit:1;" x1="54.058" y1="12.633" x2="54.058" y2="14.857"/>
	<line style="fill:none;stroke:#000000;stroke-miterlimit:1;" x1="54.058" y1="14.857" x2="55.647" y2="16.446"/>
	<line style="fill:none;stroke:#000000;stroke-miterlimit:1;" x1="55.647" y1="16.446" x2="57.872" y2="16.446"/>
	<line style="fill:none;stroke:#000000;stroke-miterlimit:1;" x1="57.872" y1="16.446" x2="60.096" y2="15.492"/>
	<line style="fill:none;stroke:#000000;stroke-miterlimit:1;" x1="60.096" y1="15.492" x2="60.414" y2="14.221"/>
	<line style="fill:none;stroke:#000000;stroke-miterlimit:1;" x1="60.414" y1="14.221" x2="59.778" y2="12.315"/>
	<line style="fill:none;stroke:#000000;stroke-miterlimit:1;" x1="59.778" y1="12.315" x2="58.189" y2="10.408"/>
	<line style="fill:none;stroke:#000000;stroke-miterlimit:1;" x1="177.942" y1="0" x2="177.942" y2="59.246"/>
	<line style="fill:none;stroke:#000000;stroke-miterlimit:1;" x1="177.942" y1="59.246" x2="188.476" y2="59.246"/>
	<line style="fill:none;stroke:#000000;stroke-miterlimit:1;" x1="188.476" y1="59.246" x2="188.476" y2="0"/>
	<line style="fill:none;stroke:#000000;stroke-miterlimit:1;" x1="188.476" y1="0" x2="177.942" y2="0"/>
	<line style="fill:none;stroke:#000000;stroke-miterlimit:1;" x1="230.605" y1="0" x2="230.605" y2="59.246"/>
	<line style="fill:none;stroke:#000000;stroke-miterlimit:1;" x1="230.605" y1="59.246" x2="241.468" y2="59.246"/>
	<line style="fill:none;stroke:#000000;stroke-miterlimit:1;" x1="241.468" y1="59.246" x2="241.468" y2="0"/>
	<line style="fill:none;stroke:#000000;stroke-miterlimit:1;" x1="241.468" y1="0" x2="230.605" y2="0"/>
	<line style="fill:none;stroke:#000000;stroke-miterlimit:1;" x1="283.927" y1="0" x2="283.927" y2="59.246"/>
	<line style="fill:none;stroke:#000000;stroke-miterlimit:1;" x1="283.927" y1="59.246" x2="294.459" y2="59.246"/>
	<line style="fill:none;stroke:#000000;stroke-miterlimit:1;" x1="294.459" y1="59.246" x2="294.459" y2="0"/>
	<line style="fill:none;stroke:#000000;stroke-miterlimit:1;" x1="294.459" y1="0" x2="283.927" y2="0"/>
	<line style="fill:none;stroke:#000000;stroke-miterlimit:1;" x1="125.196" y1="109.985" x2="128.691" y2="111.256"/>
	<line style="fill:none;stroke:#000000;stroke-miterlimit:1;" x1="128.691" y1="111.256" x2="132.822" y2="113.799"/>
	<line style="fill:none;stroke:#000000;stroke-miterlimit:1;" x1="132.822" y1="113.799" x2="137.271" y2="118.247"/>
	<line style="fill:none;stroke:#000000;stroke-miterlimit:1;" x1="137.271" y1="118.247" x2="138.542" y2="123.331"/>
	<line style="fill:none;stroke:#000000;stroke-miterlimit:1;" x1="138.542" y1="123.331" x2="139.177" y2="126.509"/>
	<line style="fill:none;stroke:#000000;stroke-miterlimit:1;" x1="139.177" y1="126.509" x2="139.177" y2="131.593"/>
	<line style="fill:none;stroke:#000000;stroke-miterlimit:1;" x1="139.177" y1="131.593" x2="137.588" y2="136.994"/>
	<line style="fill:none;stroke:#000000;stroke-miterlimit:1;" x1="137.588" y1="136.994" x2="135.364" y2="141.761"/>
	<line style="fill:none;stroke:#000000;stroke-miterlimit:1;" x1="135.364" y1="141.761" x2="132.504" y2="144.621"/>
	<line style="fill:none;stroke:#000000;stroke-miterlimit:1;" x1="132.504" y1="144.621" x2="129.009" y2="146.527"/>
	<line style="fill:none;stroke:#000000;stroke-miterlimit:1;" x1="129.009" y1="146.527" x2="125.196" y2="147.799"/>
	<line style="fill:none;stroke:#000000;stroke-miterlimit:1;" x1="125.196" y1="147.799" x2="20.019" y2="147.799"/>
	<line style="fill:none;stroke:#000000;stroke-miterlimit:1;" x1="20.019" y1="147.799" x2="12.71" y2="147.48"/>
	<line style="fill:none;stroke:#000000;stroke-miterlimit:1;" x1="12.71" y1="147.48" x2="8.58" y2="145.574"/>
	<line style="fill:none;stroke:#000000;stroke-miterlimit:1;" x1="8.58" y1="145.574" x2="5.402" y2="143.35"/>
	<line style="fill:none;stroke:#000000;stroke-miterlimit:1;" x1="5.402" y1="143.35" x2="2.224" y2="138.583"/>
	<line style="fill:none;stroke:#000000;stroke-miterlimit:1;" x1="2.224" y1="138.583" x2="0.635" y2="134.135"/>
	<line style="fill:none;stroke:#000000;stroke-miterlimit:1;" x1="0.635" y1="134.135" x2="0" y2="130.004"/>
	<line style="fill:none;stroke:#000000;stroke-miterlimit:1;" x1="0" y1="130.004" x2="0.635" y2="125.237"/>
	<line style="fill:none;stroke:#000000;stroke-miterlimit:1;" x1="0.635" y1="125.237" x2="1.589" y2="120.472"/>
	<line style="fill:none;stroke:#000000;stroke-miterlimit:1;" x1="1.589" y1="120.472" x2="3.813" y2="116.658"/>
	<line style="fill:none;stroke:#000000;stroke-miterlimit:1;" x1="3.813" y1="116.658" x2="7.309" y2="113.163"/>
	<line style="fill:none;stroke:#000000;stroke-miterlimit:1;" x1="7.309" y1="113.163" x2="11.757" y2="110.621"/>
	<line style="fill:none;stroke:#000000;stroke-miterlimit:1;" x1="11.757" y1="110.621" x2="14.935" y2="109.985"/>
	<line style="fill:none;stroke:#000000;stroke-miterlimit:1;" x1="14.935" y1="109.985" x2="125.196" y2="109.985"/>
	<line style="fill:none;stroke:#000000;stroke-miterlimit:1;" x1="125.196" y1="109.985" x2="122.336" y2="114.752"/>
	<line style="fill:none;stroke:#000000;stroke-miterlimit:1;" x1="122.336" y1="114.752" x2="120.112" y2="119.2"/>
	<line style="fill:none;stroke:#000000;stroke-miterlimit:1;" x1="120.112" y1="119.2" x2="119.159" y2="123.967"/>
	<line style="fill:none;stroke:#000000;stroke-miterlimit:1;" x1="119.159" y1="123.967" x2="118.841" y2="128.415"/>
	<line style="fill:none;stroke:#000000;stroke-miterlimit:1;" x1="118.841" y1="128.415" x2="119.159" y2="133.182"/>
	<line style="fill:none;stroke:#000000;stroke-miterlimit:1;" x1="119.159" y1="133.182" x2="120.43" y2="137.948"/>
	<line style="fill:none;stroke:#000000;stroke-miterlimit:1;" x1="120.43" y1="137.948" x2="122.336" y2="142.714"/>
	<line style="fill:none;stroke:#000000;stroke-miterlimit:1;" x1="122.336" y1="142.714" x2="125.196" y2="147.163"/>
	<line style="fill:none;stroke:#000000;stroke-miterlimit:1;" x1="125.196" y1="147.163" x2="120.43" y2="144.621"/>
	<line style="fill:none;stroke:#000000;stroke-miterlimit:1;" x1="120.43" y1="144.621" x2="108.99" y2="140.808"/>
	<line style="fill:none;stroke:#000000;stroke-miterlimit:1;" x1="108.99" y1="140.808" x2="100.093" y2="138.266"/>
	<line style="fill:none;stroke:#000000;stroke-miterlimit:1;" x1="100.093" y1="138.266" x2="90.561" y2="136.359"/>
	<line style="fill:none;stroke:#000000;stroke-miterlimit:1;" x1="90.561" y1="136.359" x2="81.981" y2="134.135"/>
	<line style="fill:none;stroke:#000000;stroke-miterlimit:1;" x1="81.981" y1="134.135" x2="69.906" y2="133.817"/>
	<line style="fill:none;stroke:#000000;stroke-miterlimit:1;" x1="69.906" y1="133.817" x2="64.187" y2="133.817"/>
	<line style="fill:none;stroke:#000000;stroke-miterlimit:1;" x1="64.187" y1="133.817" x2="52.43" y2="135.088"/>
	<line style="fill:none;stroke:#000000;stroke-miterlimit:1;" x1="52.43" y1="135.088" x2="43.215" y2="137.312"/>
	<line style="fill:none;stroke:#000000;stroke-miterlimit:1;" x1="43.215" y1="137.312" x2="35.589" y2="139.219"/>
	<line style="fill:none;stroke:#000000;stroke-miterlimit:1;" x1="35.589" y1="139.219" x2="24.785" y2="143.032"/>
	<line style="fill:none;stroke:#000000;stroke-miterlimit:1;" x1="24.785" y1="143.032" x2="14.617" y2="147.163"/>
	<line style="fill:none;stroke:#000000;stroke-miterlimit:1;" x1="124.561" y1="109.985" x2="113.757" y2="114.752"/>
	<line style="fill:none;stroke:#000000;stroke-miterlimit:1;" x1="113.757" y1="114.752" x2="103.906" y2="118.247"/>
	<line style="fill:none;stroke:#000000;stroke-miterlimit:1;" x1="103.906" y1="118.247" x2="96.28" y2="120.153"/>
	<line style="fill:none;stroke:#000000;stroke-miterlimit:1;" x1="96.28" y1="120.153" x2="87.701" y2="122.378"/>
	<line style="fill:none;stroke:#000000;stroke-miterlimit:1;" x1="87.701" y1="122.378" x2="76.897" y2="123.014"/>
	<line style="fill:none;stroke:#000000;stroke-miterlimit:1;" x1="76.897" y1="123.014" x2="69.589" y2="123.648"/>
	<line style="fill:none;stroke:#000000;stroke-miterlimit:1;" x1="69.589" y1="123.648" x2="57.196" y2="122.695"/>
	<line style="fill:none;stroke:#000000;stroke-miterlimit:1;" x1="57.196" y1="122.695" x2="47.028" y2="121.106"/>
	<line style="fill:none;stroke:#000000;stroke-miterlimit:1;" x1="47.028" y1="121.106" x2="38.131" y2="118.883"/>
	<line style="fill:none;stroke:#000000;stroke-miterlimit:1;" x1="38.131" y1="118.883" x2="30.187" y2="116.658"/>
	<line style="fill:none;stroke:#000000;stroke-miterlimit:1;" x1="30.187" y1="116.658" x2="18.748" y2="112.845"/>
	<line style="fill:none;stroke:#000000;stroke-miterlimit:1;" x1="18.748" y1="112.845" x2="14.299" y2="110.621"/>
	<line style="fill:none;stroke:#000000;stroke-miterlimit:1;" x1="14.299" y1="110.621" x2="17.159" y2="114.752"/>
	<line style="fill:none;stroke:#000000;stroke-miterlimit:1;" x1="17.159" y1="114.752" x2="19.065" y2="119.2"/>
	<line style="fill:none;stroke:#000000;stroke-miterlimit:1;" x1="19.065" y1="119.2" x2="20.019" y2="123.967"/>
	<line style="fill:none;stroke:#000000;stroke-miterlimit:1;" x1="20.019" y1="123.967" x2="20.336" y2="128.415"/>
	<line style="fill:none;stroke:#000000;stroke-miterlimit:1;" x1="20.336" y1="128.415" x2="20.019" y2="133.182"/>
	<line style="fill:none;stroke:#000000;stroke-miterlimit:1;" x1="20.019" y1="133.182" x2="19.065" y2="137.948"/>
	<line style="fill:none;stroke:#000000;stroke-miterlimit:1;" x1="19.065" y1="137.948" x2="17.159" y2="142.714"/>
	<line style="fill:none;stroke:#000000;stroke-miterlimit:1;" x1="17.159" y1="142.714" x2="14.299" y2="147.163"/>
</g>
</svg>
