<?xml version="1.0" encoding="iso-8859-1"?>
<!-- Generator: Adobe Illustrator 16.0.1, SVG Export Plug-In . SVG Version: 6.00 Build 0)  -->
<!DOCTYPE svg PUBLIC "-//W3C//DTD SVG 1.1//EN" "http://www.w3.org/Graphics/SVG/1.1/DTD/svg11.dtd">
<svg version="1.1" id="Ebene_1" xmlns="http://www.w3.org/2000/svg" xmlns:xlink="http://www.w3.org/1999/xlink" x="0px" y="0px"
	 width="490.464px" height="151.24px" viewBox="0 0 490.464 151.24" style="enable-background:new 0 0 490.464 151.24;"
	 xml:space="preserve">
<g>
	<line style="fill:none;stroke:#000000;stroke-miterlimit:1;" x1="97.591" y1="43.858" x2="82.779" y2="44.517"/>
	<line style="fill:none;stroke:#000000;stroke-miterlimit:1;" x1="82.779" y1="44.517" x2="78.83" y2="45.175"/>
	<line style="fill:none;stroke:#000000;stroke-miterlimit:1;" x1="78.83" y1="45.175" x2="74.551" y2="48.137"/>
	<line style="fill:none;stroke:#000000;stroke-miterlimit:1;" x1="74.551" y1="48.137" x2="73.234" y2="51.099"/>
	<line style="fill:none;stroke:#000000;stroke-miterlimit:1;" x1="73.234" y1="51.099" x2="73.563" y2="56.037"/>
	<line style="fill:none;stroke:#000000;stroke-miterlimit:1;" x1="73.563" y1="56.037" x2="74.551" y2="60.645"/>
	<line style="fill:none;stroke:#000000;stroke-miterlimit:1;" x1="74.551" y1="60.645" x2="82.45" y2="72.823"/>
	<line style="fill:none;stroke:#000000;stroke-miterlimit:1;" x1="82.45" y1="72.823" x2="89.362" y2="79.076"/>
	<line style="fill:none;stroke:#000000;stroke-miterlimit:1;" x1="89.362" y1="79.076" x2="93.312" y2="80.393"/>
	<line style="fill:none;stroke:#000000;stroke-miterlimit:1;" x1="93.312" y1="80.393" x2="96.604" y2="80.393"/>
	<line style="fill:none;stroke:#000000;stroke-miterlimit:1;" x1="96.604" y1="80.393" x2="99.566" y2="79.076"/>
	<line style="fill:none;stroke:#000000;stroke-miterlimit:1;" x1="99.566" y1="79.076" x2="100.224" y2="76.773"/>
	<line style="fill:none;stroke:#000000;stroke-miterlimit:1;" x1="100.224" y1="76.773" x2="100.224" y2="74.798"/>
	<line style="fill:none;stroke:#000000;stroke-miterlimit:1;" x1="100.224" y1="74.798" x2="98.578" y2="71.177"/>
	<line style="fill:none;stroke:#000000;stroke-miterlimit:1;" x1="98.578" y1="71.177" x2="96.274" y2="67.228"/>
	<line style="fill:none;stroke:#000000;stroke-miterlimit:1;" x1="96.274" y1="67.228" x2="92.325" y2="63.607"/>
	<line style="fill:none;stroke:#000000;stroke-miterlimit:1;" x1="92.325" y1="63.607" x2="97.262" y2="64.594"/>
	<line style="fill:none;stroke:#000000;stroke-miterlimit:1;" x1="97.262" y1="64.594" x2="102.857" y2="64.594"/>
	<line style="fill:none;stroke:#000000;stroke-miterlimit:1;" x1="102.857" y1="64.594" x2="106.148" y2="64.265"/>
	<line style="fill:none;stroke:#000000;stroke-miterlimit:1;" x1="106.148" y1="64.265" x2="108.782" y2="63.607"/>
	<line style="fill:none;stroke:#000000;stroke-miterlimit:1;" x1="108.782" y1="63.607" x2="111.415" y2="61.632"/>
	<line style="fill:none;stroke:#000000;stroke-miterlimit:1;" x1="111.415" y1="61.632" x2="112.402" y2="58.999"/>
	<line style="fill:none;stroke:#000000;stroke-miterlimit:1;" x1="112.402" y1="58.999" x2="114.048" y2="51.429"/>
	<line style="fill:none;stroke:#000000;stroke-miterlimit:1;" x1="114.048" y1="51.429" x2="113.061" y2="43.858"/>
	<line style="fill:none;stroke:#000000;stroke-miterlimit:1;" x1="113.061" y1="43.858" x2="109.769" y2="38.921"/>
	<line style="fill:none;stroke:#000000;stroke-miterlimit:1;" x1="109.769" y1="38.921" x2="95.287" y2="23.451"/>
	<line style="fill:none;stroke:#000000;stroke-miterlimit:1;" x1="95.287" y1="23.451" x2="91.337" y2="19.172"/>
	<line style="fill:none;stroke:#000000;stroke-miterlimit:1;" x1="91.337" y1="19.172" x2="88.704" y2="14.894"/>
	<line style="fill:none;stroke:#000000;stroke-miterlimit:1;" x1="88.704" y1="14.894" x2="85.413" y2="9.627"/>
	<line style="fill:none;stroke:#000000;stroke-miterlimit:1;" x1="85.413" y1="9.627" x2="81.792" y2="6.007"/>
	<line style="fill:none;stroke:#000000;stroke-miterlimit:1;" x1="81.792" y1="6.007" x2="77.513" y2="3.374"/>
	<line style="fill:none;stroke:#000000;stroke-miterlimit:1;" x1="77.513" y1="3.374" x2="72.576" y2="2.386"/>
	<line style="fill:none;stroke:#000000;stroke-miterlimit:1;" x1="72.576" y1="2.386" x2="67.968" y2="2.057"/>
	<line style="fill:none;stroke:#000000;stroke-miterlimit:1;" x1="67.968" y1="2.057" x2="63.031" y2="3.374"/>
	<line style="fill:none;stroke:#000000;stroke-miterlimit:1;" x1="63.031" y1="3.374" x2="59.739" y2="5.678"/>
	<line style="fill:none;stroke:#000000;stroke-miterlimit:1;" x1="59.739" y1="5.678" x2="57.106" y2="7.981"/>
	<line style="fill:none;stroke:#000000;stroke-miterlimit:1;" x1="57.106" y1="7.981" x2="55.79" y2="10.944"/>
	<line style="fill:none;stroke:#000000;stroke-miterlimit:1;" x1="55.79" y1="10.944" x2="55.46" y2="11.931"/>
	<line style="fill:none;stroke:#000000;stroke-miterlimit:1;" x1="55.46" y1="11.931" x2="52.828" y2="13.248"/>
	<line style="fill:none;stroke:#000000;stroke-miterlimit:1;" x1="52.828" y1="13.248" x2="47.89" y2="14.894"/>
	<line style="fill:none;stroke:#000000;stroke-miterlimit:1;" x1="47.89" y1="14.894" x2="46.574" y2="16.21"/>
	<line style="fill:none;stroke:#000000;stroke-miterlimit:1;" x1="46.574" y1="16.21" x2="45.257" y2="18.514"/>
	<line style="fill:none;stroke:#000000;stroke-miterlimit:1;" x1="45.257" y1="18.514" x2="47.561" y2="17.527"/>
	<line style="fill:none;stroke:#000000;stroke-miterlimit:1;" x1="47.561" y1="17.527" x2="51.182" y2="17.527"/>
	<line style="fill:none;stroke:#000000;stroke-miterlimit:1;" x1="51.182" y1="17.527" x2="55.131" y2="17.856"/>
	<line style="fill:none;stroke:#000000;stroke-miterlimit:1;" x1="55.131" y1="17.856" x2="57.765" y2="18.843"/>
	<line style="fill:none;stroke:#000000;stroke-miterlimit:1;" x1="55.46" y1="11.931" x2="56.448" y2="14.235"/>
	<line style="fill:none;stroke:#000000;stroke-miterlimit:1;" x1="56.448" y1="14.235" x2="57.436" y2="16.54"/>
	<line style="fill:none;stroke:#000000;stroke-miterlimit:1;" x1="45.257" y1="18.514" x2="47.89" y2="19.172"/>
	<line style="fill:none;stroke:#000000;stroke-miterlimit:1;" x1="47.89" y1="19.172" x2="51.182" y2="20.16"/>
	<line style="fill:none;stroke:#000000;stroke-miterlimit:1;" x1="51.182" y1="20.16" x2="53.486" y2="22.135"/>
	<line style="fill:none;stroke:#000000;stroke-miterlimit:1;" x1="53.486" y1="22.135" x2="57.436" y2="26.743"/>
	<line style="fill:none;stroke:#000000;stroke-miterlimit:1;" x1="57.436" y1="26.743" x2="58.423" y2="30.034"/>
	<line style="fill:none;stroke:#000000;stroke-miterlimit:1;" x1="58.423" y1="30.034" x2="59.081" y2="32.997"/>
	<line style="fill:none;stroke:#000000;stroke-miterlimit:1;" x1="59.081" y1="32.997" x2="60.727" y2="48.466"/>
	<line style="fill:none;stroke:#000000;stroke-miterlimit:1;" x1="60.727" y1="48.466" x2="62.373" y2="55.708"/>
	<line style="fill:none;stroke:#000000;stroke-miterlimit:1;" x1="62.373" y1="55.708" x2="64.348" y2="61.303"/>
	<line style="fill:none;stroke:#000000;stroke-miterlimit:1;" x1="64.348" y1="61.303" x2="72.576" y2="74.798"/>
	<line style="fill:none;stroke:#000000;stroke-miterlimit:1;" x1="72.576" y1="74.798" x2="76.526" y2="81.051"/>
	<line style="fill:none;stroke:#000000;stroke-miterlimit:1;" x1="76.526" y1="81.051" x2="83.108" y2="92.242"/>
	<line style="fill:none;stroke:#000000;stroke-miterlimit:1;" x1="83.108" y1="92.242" x2="88.375" y2="99.484"/>
	<line style="fill:none;stroke:#000000;stroke-miterlimit:1;" x1="88.375" y1="99.484" x2="96.274" y2="107.383"/>
	<line style="fill:none;stroke:#000000;stroke-miterlimit:1;" x1="96.274" y1="107.383" x2="105.49" y2="118.244"/>
	<line style="fill:none;stroke:#000000;stroke-miterlimit:1;" x1="105.49" y1="118.244" x2="108.124" y2="121.865"/>
	<line style="fill:none;stroke:#000000;stroke-miterlimit:1;" x1="108.124" y1="121.865" x2="108.124" y2="123.84"/>
	<line style="fill:none;stroke:#000000;stroke-miterlimit:1;" x1="108.124" y1="123.84" x2="103.187" y2="142.93"/>
	<line style="fill:none;stroke:#000000;stroke-miterlimit:1;" x1="103.187" y1="142.93" x2="102.199" y2="143.918"/>
	<line style="fill:none;stroke:#000000;stroke-miterlimit:1;" x1="102.199" y1="143.918" x2="100.224" y2="144.576"/>
	<line style="fill:none;stroke:#000000;stroke-miterlimit:1;" x1="100.224" y1="144.576" x2="84.425" y2="145.562"/>
	<line style="fill:none;stroke:#000000;stroke-miterlimit:1;" x1="84.425" y1="145.562" x2="80.476" y2="146.223"/>
	<line style="fill:none;stroke:#000000;stroke-miterlimit:1;" x1="80.476" y1="146.223" x2="78.83" y2="146.881"/>
	<line style="fill:none;stroke:#000000;stroke-miterlimit:1;" x1="78.83" y1="146.881" x2="77.513" y2="148.525"/>
	<line style="fill:none;stroke:#000000;stroke-miterlimit:1;" x1="77.513" y1="148.525" x2="77.513" y2="149.514"/>
	<line style="fill:none;stroke:#000000;stroke-miterlimit:1;" x1="77.513" y1="149.514" x2="78.5" y2="149.842"/>
	<line style="fill:none;stroke:#000000;stroke-miterlimit:1;" x1="78.5" y1="149.842" x2="80.805" y2="148.197"/>
	<line style="fill:none;stroke:#000000;stroke-miterlimit:1;" x1="80.805" y1="148.197" x2="82.121" y2="149.842"/>
	<line style="fill:none;stroke:#000000;stroke-miterlimit:1;" x1="82.121" y1="149.842" x2="101.211" y2="148.525"/>
	<line style="fill:none;stroke:#000000;stroke-miterlimit:1;" x1="101.211" y1="148.525" x2="119.314" y2="149.184"/>
	<line style="fill:none;stroke:#000000;stroke-miterlimit:1;" x1="119.314" y1="149.184" x2="121.289" y2="148.855"/>
	<line style="fill:none;stroke:#000000;stroke-miterlimit:1;" x1="121.289" y1="148.855" x2="121.289" y2="147.867"/>
	<line style="fill:none;stroke:#000000;stroke-miterlimit:1;" x1="121.289" y1="147.867" x2="120.96" y2="146.881"/>
	<line style="fill:none;stroke:#000000;stroke-miterlimit:1;" x1="120.96" y1="146.881" x2="122.605" y2="149.842"/>
	<line style="fill:none;stroke:#000000;stroke-miterlimit:1;" x1="122.605" y1="149.842" x2="124.251" y2="149.842"/>
	<line style="fill:none;stroke:#000000;stroke-miterlimit:1;" x1="124.251" y1="149.842" x2="123.593" y2="147.209"/>
	<line style="fill:none;stroke:#000000;stroke-miterlimit:1;" x1="123.593" y1="147.209" x2="121.947" y2="145.893"/>
	<line style="fill:none;stroke:#000000;stroke-miterlimit:1;" x1="121.947" y1="145.893" x2="120.631" y2="144.904"/>
	<line style="fill:none;stroke:#000000;stroke-miterlimit:1;" x1="120.631" y1="144.904" x2="107.794" y2="144.246"/>
	<line style="fill:none;stroke:#000000;stroke-miterlimit:1;" x1="107.794" y1="144.246" x2="114.048" y2="124.828"/>
	<line style="fill:none;stroke:#000000;stroke-miterlimit:1;" x1="114.048" y1="124.828" x2="114.706" y2="122.193"/>
	<line style="fill:none;stroke:#000000;stroke-miterlimit:1;" x1="114.706" y1="122.193" x2="114.377" y2="120.219"/>
	<line style="fill:none;stroke:#000000;stroke-miterlimit:1;" x1="114.377" y1="120.219" x2="109.769" y2="107.713"/>
	<line style="fill:none;stroke:#000000;stroke-miterlimit:1;" x1="109.769" y1="107.713" x2="114.706" y2="109.029"/>
	<line style="fill:none;stroke:#000000;stroke-miterlimit:1;" x1="114.706" y1="109.029" x2="122.276" y2="110.346"/>
	<line style="fill:none;stroke:#000000;stroke-miterlimit:1;" x1="122.276" y1="110.346" x2="128.53" y2="110.346"/>
	<line style="fill:none;stroke:#000000;stroke-miterlimit:1;" x1="128.53" y1="110.346" x2="135.113" y2="109.357"/>
	<line style="fill:none;stroke:#000000;stroke-miterlimit:1;" x1="135.113" y1="109.357" x2="140.379" y2="106.725"/>
	<line style="fill:none;stroke:#000000;stroke-miterlimit:1;" x1="140.379" y1="106.725" x2="147.292" y2="107.713"/>
	<line style="fill:none;stroke:#000000;stroke-miterlimit:1;" x1="147.292" y1="107.713" x2="152.558" y2="107.713"/>
	<line style="fill:none;stroke:#000000;stroke-miterlimit:1;" x1="152.558" y1="107.713" x2="155.191" y2="106.725"/>
	<line style="fill:none;stroke:#000000;stroke-miterlimit:1;" x1="155.191" y1="106.725" x2="155.52" y2="104.75"/>
	<line style="fill:none;stroke:#000000;stroke-miterlimit:1;" x1="155.52" y1="104.75" x2="153.874" y2="100.801"/>
	<line style="fill:none;stroke:#000000;stroke-miterlimit:1;" x1="153.874" y1="100.801" x2="150.254" y2="97.508"/>
	<line style="fill:none;stroke:#000000;stroke-miterlimit:1;" x1="150.254" y1="97.508" x2="148.608" y2="96.191"/>
	<line style="fill:none;stroke:#000000;stroke-miterlimit:1;" x1="148.608" y1="96.191" x2="147.95" y2="95.533"/>
	<line style="fill:none;stroke:#000000;stroke-miterlimit:1;" x1="147.95" y1="95.533" x2="143.013" y2="84.672"/>
	<line style="fill:none;stroke:#000000;stroke-miterlimit:1;" x1="143.013" y1="84.672" x2="138.075" y2="75.785"/>
	<line style="fill:none;stroke:#000000;stroke-miterlimit:1;" x1="138.075" y1="75.785" x2="133.796" y2="67.886"/>
	<line style="fill:none;stroke:#000000;stroke-miterlimit:1;" x1="133.796" y1="67.886" x2="127.872" y2="60.315"/>
	<line style="fill:none;stroke:#000000;stroke-miterlimit:1;" x1="127.872" y1="60.315" x2="121.289" y2="54.391"/>
	<line style="fill:none;stroke:#000000;stroke-miterlimit:1;" x1="121.289" y1="54.391" x2="114.377" y2="48.466"/>
	<line style="fill:none;stroke:#000000;stroke-miterlimit:1;" x1="82.779" y1="91.914" x2="89.691" y2="121.535"/>
	<line style="fill:none;stroke:#000000;stroke-miterlimit:1;" x1="89.691" y1="121.535" x2="89.033" y2="125.156"/>
	<line style="fill:none;stroke:#000000;stroke-miterlimit:1;" x1="89.033" y1="125.156" x2="83.108" y2="142.602"/>
	<line style="fill:none;stroke:#000000;stroke-miterlimit:1;" x1="83.108" y1="142.602" x2="80.805" y2="144.904"/>
	<line style="fill:none;stroke:#000000;stroke-miterlimit:1;" x1="80.805" y1="144.904" x2="78.83" y2="144.904"/>
	<line style="fill:none;stroke:#000000;stroke-miterlimit:1;" x1="78.83" y1="144.904" x2="63.031" y2="145.562"/>
	<line style="fill:none;stroke:#000000;stroke-miterlimit:1;" x1="63.031" y1="145.562" x2="59.081" y2="146.881"/>
	<line style="fill:none;stroke:#000000;stroke-miterlimit:1;" x1="59.081" y1="146.881" x2="57.436" y2="148.197"/>
	<line style="fill:none;stroke:#000000;stroke-miterlimit:1;" x1="57.436" y1="148.197" x2="56.777" y2="149.514"/>
	<line style="fill:none;stroke:#000000;stroke-miterlimit:1;" x1="56.777" y1="149.514" x2="57.436" y2="150.172"/>
	<line style="fill:none;stroke:#000000;stroke-miterlimit:1;" x1="57.436" y1="150.172" x2="60.397" y2="147.867"/>
	<line style="fill:none;stroke:#000000;stroke-miterlimit:1;" x1="60.397" y1="147.867" x2="63.36" y2="149.842"/>
	<line style="fill:none;stroke:#000000;stroke-miterlimit:1;" x1="63.36" y1="149.842" x2="77.513" y2="149.514"/>
	<line style="fill:none;stroke:#000000;stroke-miterlimit:1;" x1="88.046" y1="145.562" x2="88.046" y2="142.93"/>
	<line style="fill:none;stroke:#000000;stroke-miterlimit:1;" x1="88.046" y1="142.93" x2="89.033" y2="139.639"/>
	<line style="fill:none;stroke:#000000;stroke-miterlimit:1;" x1="89.033" y1="139.639" x2="96.604" y2="122.193"/>
	<line style="fill:none;stroke:#000000;stroke-miterlimit:1;" x1="96.604" y1="122.193" x2="96.604" y2="120.549"/>
	<line style="fill:none;stroke:#000000;stroke-miterlimit:1;" x1="96.604" y1="120.549" x2="94.958" y2="106.395"/>
	<line style="fill:none;stroke:#000000;stroke-miterlimit:1;" x1="62.373" y1="13.906" x2="63.36" y2="11.931"/>
	<line style="fill:none;stroke:#000000;stroke-miterlimit:1;" x1="63.36" y1="11.931" x2="65.006" y2="11.273"/>
	<line style="fill:none;stroke:#000000;stroke-miterlimit:1;" x1="65.006" y1="11.273" x2="67.31" y2="11.273"/>
	<line style="fill:none;stroke:#000000;stroke-miterlimit:1;" x1="67.31" y1="11.273" x2="69.614" y2="12.261"/>
	<line style="fill:none;stroke:#000000;stroke-miterlimit:1;" x1="69.614" y1="12.261" x2="70.601" y2="13.248"/>
	<line style="fill:none;stroke:#000000;stroke-miterlimit:1;" x1="70.601" y1="13.248" x2="70.93" y2="14.235"/>
	<line style="fill:none;stroke:#000000;stroke-miterlimit:1;" x1="70.93" y1="14.235" x2="69.285" y2="14.894"/>
	<line style="fill:none;stroke:#000000;stroke-miterlimit:1;" x1="69.285" y1="14.894" x2="65.335" y2="15.552"/>
	<line style="fill:none;stroke:#000000;stroke-miterlimit:1;" x1="65.335" y1="15.552" x2="63.36" y2="14.894"/>
	<line style="fill:none;stroke:#000000;stroke-miterlimit:1;" x1="63.36" y1="14.894" x2="62.373" y2="13.906"/>
	<line style="fill:none;stroke:#000000;stroke-miterlimit:1;" x1="33.244" y1="126.062" x2="29.294" y2="121.125"/>
	<line style="fill:none;stroke:#000000;stroke-miterlimit:1;" x1="29.294" y1="121.125" x2="24.356" y2="116.188"/>
	<line style="fill:none;stroke:#000000;stroke-miterlimit:1;" x1="24.356" y1="116.188" x2="20.407" y2="111.908"/>
	<line style="fill:none;stroke:#000000;stroke-miterlimit:1;" x1="20.407" y1="111.908" x2="16.128" y2="107.301"/>
	<line style="fill:none;stroke:#000000;stroke-miterlimit:1;" x1="16.128" y1="107.301" x2="10.862" y2="102.035"/>
	<line style="fill:none;stroke:#000000;stroke-miterlimit:1;" x1="10.862" y1="102.035" x2="5.595" y2="98.084"/>
	<line style="fill:none;stroke:#000000;stroke-miterlimit:1;" x1="5.595" y1="98.084" x2="0" y2="94.135"/>
	<line style="fill:none;stroke:#000000;stroke-miterlimit:1;" x1="0" y1="94.135" x2="10.533" y2="0"/>
	<line style="fill:none;stroke:#000000;stroke-miterlimit:1;" x1="10.533" y1="0" x2="13.824" y2="0.987"/>
	<line style="fill:none;stroke:#000000;stroke-miterlimit:1;" x1="13.824" y1="0.987" x2="17.444" y2="2.633"/>
	<line style="fill:none;stroke:#000000;stroke-miterlimit:1;" x1="17.444" y1="2.633" x2="20.407" y2="4.937"/>
	<line style="fill:none;stroke:#000000;stroke-miterlimit:1;" x1="20.407" y1="4.937" x2="23.369" y2="8.558"/>
	<line style="fill:none;stroke:#000000;stroke-miterlimit:1;" x1="23.369" y1="8.558" x2="26.002" y2="12.836"/>
	<line style="fill:none;stroke:#000000;stroke-miterlimit:1;" x1="26.002" y1="12.836" x2="27.319" y2="17.444"/>
	<line style="fill:none;stroke:#000000;stroke-miterlimit:1;" x1="27.319" y1="17.444" x2="28.306" y2="21.394"/>
	<line style="fill:none;stroke:#000000;stroke-miterlimit:1;" x1="28.306" y1="21.394" x2="29.294" y2="26.661"/>
	<line style="fill:none;stroke:#000000;stroke-miterlimit:1;" x1="29.294" y1="26.661" x2="33.902" y2="147.785"/>
	<line style="fill:none;stroke:#000000;stroke-miterlimit:1;" x1="33.902" y1="147.785" x2="27.648" y2="148.115"/>
	<line style="fill:none;stroke:#000000;stroke-miterlimit:1;" x1="27.648" y1="148.115" x2="28.964" y2="120.795"/>
	<line style="fill:none;stroke:#000000;stroke-miterlimit:1;" x1="201.457" y1="54.636" x2="277.936" y2="54.636"/>
	<line style="fill:none;stroke:#000000;stroke-miterlimit:1;" x1="277.936" y1="54.636" x2="277.936" y2="57.655"/>
	<line style="fill:none;stroke:#000000;stroke-miterlimit:1;" x1="277.936" y1="57.655" x2="280.955" y2="58.158"/>
	<line style="fill:none;stroke:#000000;stroke-miterlimit:1;" x1="280.955" y1="58.158" x2="285.734" y2="59.667"/>
	<line style="fill:none;stroke:#000000;stroke-miterlimit:1;" x1="285.734" y1="59.667" x2="289.005" y2="61.68"/>
	<line style="fill:none;stroke:#000000;stroke-miterlimit:1;" x1="289.005" y1="61.68" x2="293.281" y2="64.699"/>
	<line style="fill:none;stroke:#000000;stroke-miterlimit:1;" x1="293.281" y1="64.699" x2="297.056" y2="68.724"/>
	<line style="fill:none;stroke:#000000;stroke-miterlimit:1;" x1="297.056" y1="68.724" x2="300.577" y2="73.504"/>
	<line style="fill:none;stroke:#000000;stroke-miterlimit:1;" x1="300.577" y1="73.504" x2="303.093" y2="78.283"/>
	<line style="fill:none;stroke:#000000;stroke-miterlimit:1;" x1="303.093" y1="78.283" x2="305.357" y2="84.322"/>
	<line style="fill:none;stroke:#000000;stroke-miterlimit:1;" x1="305.357" y1="84.322" x2="306.867" y2="90.359"/>
	<line style="fill:none;stroke:#000000;stroke-miterlimit:1;" x1="306.867" y1="90.359" x2="307.621" y2="100.422"/>
	<line style="fill:none;stroke:#000000;stroke-miterlimit:1;" x1="307.621" y1="100.422" x2="306.867" y2="105.705"/>
	<line style="fill:none;stroke:#000000;stroke-miterlimit:1;" x1="306.867" y1="105.705" x2="304.603" y2="111.744"/>
	<line style="fill:none;stroke:#000000;stroke-miterlimit:1;" x1="304.603" y1="111.744" x2="301.835" y2="114.512"/>
	<line style="fill:none;stroke:#000000;stroke-miterlimit:1;" x1="301.835" y1="114.512" x2="299.571" y2="115.014"/>
	<line style="fill:none;stroke:#000000;stroke-miterlimit:1;" x1="299.571" y1="115.014" x2="296.049" y2="114.762"/>
	<line style="fill:none;stroke:#000000;stroke-miterlimit:1;" x1="296.049" y1="114.762" x2="293.281" y2="112.498"/>
	<line style="fill:none;stroke:#000000;stroke-miterlimit:1;" x1="293.281" y1="112.498" x2="292.023" y2="109.73"/>
	<line style="fill:none;stroke:#000000;stroke-miterlimit:1;" x1="292.023" y1="109.73" x2="291.521" y2="106.713"/>
	<line style="fill:none;stroke:#000000;stroke-miterlimit:1;" x1="291.521" y1="106.713" x2="291.27" y2="104.447"/>
	<line style="fill:none;stroke:#000000;stroke-miterlimit:1;" x1="291.27" y1="104.447" x2="292.023" y2="96.648"/>
	<line style="fill:none;stroke:#000000;stroke-miterlimit:1;" x1="292.023" y1="96.648" x2="293.03" y2="88.096"/>
	<line style="fill:none;stroke:#000000;stroke-miterlimit:1;" x1="293.03" y1="88.096" x2="292.275" y2="79.291"/>
	<line style="fill:none;stroke:#000000;stroke-miterlimit:1;" x1="292.275" y1="79.291" x2="290.012" y2="73.001"/>
	<line style="fill:none;stroke:#000000;stroke-miterlimit:1;" x1="290.012" y1="73.001" x2="286.741" y2="67.97"/>
	<line style="fill:none;stroke:#000000;stroke-miterlimit:1;" x1="286.741" y1="67.97" x2="283.471" y2="64.196"/>
	<line style="fill:none;stroke:#000000;stroke-miterlimit:1;" x1="283.471" y1="64.196" x2="279.696" y2="62.687"/>
	<line style="fill:none;stroke:#000000;stroke-miterlimit:1;" x1="279.696" y1="62.687" x2="277.936" y2="62.687"/>
	<line style="fill:none;stroke:#000000;stroke-miterlimit:1;" x1="277.936" y1="62.687" x2="277.936" y2="65.454"/>
	<line style="fill:none;stroke:#000000;stroke-miterlimit:1;" x1="277.936" y1="65.454" x2="267.873" y2="65.454"/>
	<line style="fill:none;stroke:#000000;stroke-miterlimit:1;" x1="267.873" y1="65.454" x2="267.873" y2="70.737"/>
	<line style="fill:none;stroke:#000000;stroke-miterlimit:1;" x1="267.873" y1="70.737" x2="253.03" y2="70.737"/>
	<line style="fill:none;stroke:#000000;stroke-miterlimit:1;" x1="253.03" y1="70.737" x2="253.03" y2="65.454"/>
	<line style="fill:none;stroke:#000000;stroke-miterlimit:1;" x1="253.03" y1="65.454" x2="225.86" y2="65.454"/>
	<line style="fill:none;stroke:#000000;stroke-miterlimit:1;" x1="225.86" y1="65.454" x2="225.86" y2="70.737"/>
	<line style="fill:none;stroke:#000000;stroke-miterlimit:1;" x1="225.86" y1="70.737" x2="211.52" y2="70.737"/>
	<line style="fill:none;stroke:#000000;stroke-miterlimit:1;" x1="211.52" y1="70.737" x2="211.52" y2="65.454"/>
	<line style="fill:none;stroke:#000000;stroke-miterlimit:1;" x1="211.52" y1="65.454" x2="201.457" y2="65.454"/>
	<line style="fill:none;stroke:#000000;stroke-miterlimit:1;" x1="205.985" y1="54.636" x2="215.797" y2="6.585"/>
	<line style="fill:none;stroke:#000000;stroke-miterlimit:1;" x1="215.797" y1="6.585" x2="217.558" y2="3.566"/>
	<line style="fill:none;stroke:#000000;stroke-miterlimit:1;" x1="217.558" y1="3.566" x2="218.816" y2="2.56"/>
	<line style="fill:none;stroke:#000000;stroke-miterlimit:1;" x1="218.816" y1="2.56" x2="220.325" y2="2.057"/>
	<line style="fill:none;stroke:#000000;stroke-miterlimit:1;" x1="220.325" y1="2.057" x2="222.589" y2="2.057"/>
	<line style="fill:none;stroke:#000000;stroke-miterlimit:1;" x1="222.589" y1="2.057" x2="224.854" y2="3.315"/>
	<line style="fill:none;stroke:#000000;stroke-miterlimit:1;" x1="224.854" y1="3.315" x2="225.356" y2="4.824"/>
	<line style="fill:none;stroke:#000000;stroke-miterlimit:1;" x1="225.356" y1="4.824" x2="225.356" y2="6.585"/>
	<line style="fill:none;stroke:#000000;stroke-miterlimit:1;" x1="215.545" y1="54.636" x2="225.608" y2="6.334"/>
	<line style="fill:none;stroke:#000000;stroke-miterlimit:1;" x1="225.608" y1="6.334" x2="226.866" y2="4.07"/>
	<line style="fill:none;stroke:#000000;stroke-miterlimit:1;" x1="226.866" y1="4.07" x2="228.124" y2="2.812"/>
	<line style="fill:none;stroke:#000000;stroke-miterlimit:1;" x1="228.124" y1="2.812" x2="230.388" y2="2.309"/>
	<line style="fill:none;stroke:#000000;stroke-miterlimit:1;" x1="230.388" y1="2.309" x2="232.652" y2="3.063"/>
	<line style="fill:none;stroke:#000000;stroke-miterlimit:1;" x1="232.652" y1="3.063" x2="233.91" y2="4.07"/>
	<line style="fill:none;stroke:#000000;stroke-miterlimit:1;" x1="233.91" y1="4.07" x2="234.665" y2="5.579"/>
	<line style="fill:none;stroke:#000000;stroke-miterlimit:1;" x1="224.602" y1="54.636" x2="234.414" y2="6.585"/>
	<line style="fill:none;stroke:#000000;stroke-miterlimit:1;" x1="234.414" y1="6.585" x2="235.42" y2="4.321"/>
	<line style="fill:none;stroke:#000000;stroke-miterlimit:1;" x1="235.42" y1="4.321" x2="237.181" y2="2.812"/>
	<line style="fill:none;stroke:#000000;stroke-miterlimit:1;" x1="237.181" y1="2.812" x2="239.193" y2="2.56"/>
	<line style="fill:none;stroke:#000000;stroke-miterlimit:1;" x1="239.193" y1="2.56" x2="241.458" y2="2.812"/>
	<line style="fill:none;stroke:#000000;stroke-miterlimit:1;" x1="241.458" y1="2.812" x2="243.219" y2="4.321"/>
	<line style="fill:none;stroke:#000000;stroke-miterlimit:1;" x1="243.219" y1="4.321" x2="243.722" y2="6.334"/>
	<line style="fill:none;stroke:#000000;stroke-miterlimit:1;" x1="233.659" y1="54.636" x2="243.47" y2="7.088"/>
	<line style="fill:none;stroke:#000000;stroke-miterlimit:1;" x1="243.47" y1="7.088" x2="244.979" y2="4.321"/>
	<line style="fill:none;stroke:#000000;stroke-miterlimit:1;" x1="244.979" y1="4.321" x2="246.74" y2="2.812"/>
	<line style="fill:none;stroke:#000000;stroke-miterlimit:1;" x1="246.74" y1="2.812" x2="249.76" y2="2.56"/>
	<line style="fill:none;stroke:#000000;stroke-miterlimit:1;" x1="249.76" y1="2.56" x2="250.766" y2="2.812"/>
	<line style="fill:none;stroke:#000000;stroke-miterlimit:1;" x1="250.766" y1="2.812" x2="252.275" y2="3.818"/>
	<line style="fill:none;stroke:#000000;stroke-miterlimit:1;" x1="252.275" y1="3.818" x2="253.03" y2="6.334"/>
	<line style="fill:none;stroke:#000000;stroke-miterlimit:1;" x1="243.219" y1="54.636" x2="252.778" y2="7.34"/>
	<line style="fill:none;stroke:#000000;stroke-miterlimit:1;" x1="252.778" y1="7.34" x2="253.784" y2="4.824"/>
	<line style="fill:none;stroke:#000000;stroke-miterlimit:1;" x1="253.784" y1="4.824" x2="254.791" y2="3.315"/>
	<line style="fill:none;stroke:#000000;stroke-miterlimit:1;" x1="254.791" y1="3.315" x2="257.055" y2="2.309"/>
	<line style="fill:none;stroke:#000000;stroke-miterlimit:1;" x1="257.055" y1="2.309" x2="259.822" y2="2.812"/>
	<line style="fill:none;stroke:#000000;stroke-miterlimit:1;" x1="259.822" y1="2.812" x2="261.835" y2="4.07"/>
	<line style="fill:none;stroke:#000000;stroke-miterlimit:1;" x1="261.835" y1="4.07" x2="262.59" y2="5.831"/>
	<line style="fill:none;stroke:#000000;stroke-miterlimit:1;" x1="253.03" y1="54.636" x2="262.087" y2="7.592"/>
	<line style="fill:none;stroke:#000000;stroke-miterlimit:1;" x1="262.087" y1="7.592" x2="262.841" y2="5.076"/>
	<line style="fill:none;stroke:#000000;stroke-miterlimit:1;" x1="262.841" y1="5.076" x2="264.351" y2="3.063"/>
	<line style="fill:none;stroke:#000000;stroke-miterlimit:1;" x1="264.351" y1="3.063" x2="266.866" y2="2.56"/>
	<line style="fill:none;stroke:#000000;stroke-miterlimit:1;" x1="266.866" y1="2.56" x2="267.369" y2="2.309"/>
	<line style="fill:none;stroke:#000000;stroke-miterlimit:1;" x1="267.369" y1="2.309" x2="269.634" y2="3.315"/>
	<line style="fill:none;stroke:#000000;stroke-miterlimit:1;" x1="269.634" y1="3.315" x2="271.144" y2="4.824"/>
	<line style="fill:none;stroke:#000000;stroke-miterlimit:1;" x1="271.144" y1="4.824" x2="271.144" y2="6.334"/>
	<line style="fill:none;stroke:#000000;stroke-miterlimit:1;" x1="261.583" y1="54.636" x2="271.144" y2="6.083"/>
	<line style="fill:none;stroke:#000000;stroke-miterlimit:1;" x1="271.144" y1="6.083" x2="272.149" y2="4.07"/>
	<line style="fill:none;stroke:#000000;stroke-miterlimit:1;" x1="272.149" y1="4.07" x2="273.407" y2="2.812"/>
	<line style="fill:none;stroke:#000000;stroke-miterlimit:1;" x1="273.407" y1="2.812" x2="274.917" y2="2.56"/>
	<line style="fill:none;stroke:#000000;stroke-miterlimit:1;" x1="274.917" y1="2.56" x2="277.181" y2="2.56"/>
	<line style="fill:none;stroke:#000000;stroke-miterlimit:1;" x1="277.181" y1="2.56" x2="279.193" y2="3.315"/>
	<line style="fill:none;stroke:#000000;stroke-miterlimit:1;" x1="279.193" y1="3.315" x2="280.2" y2="4.824"/>
	<line style="fill:none;stroke:#000000;stroke-miterlimit:1;" x1="280.2" y1="4.824" x2="280.703" y2="7.34"/>
	<line style="fill:none;stroke:#000000;stroke-miterlimit:1;" x1="280.703" y1="7.34" x2="270.892" y2="54.636"/>
	<line style="fill:none;stroke:#000000;stroke-miterlimit:1;" x1="270.892" y1="54.636" x2="201.457" y2="54.636"/>
	<line style="fill:none;stroke:#000000;stroke-miterlimit:1;" x1="201.457" y1="54.636" x2="201.457" y2="57.907"/>
	<line style="fill:none;stroke:#000000;stroke-miterlimit:1;" x1="201.457" y1="57.907" x2="197.935" y2="58.41"/>
	<line style="fill:none;stroke:#000000;stroke-miterlimit:1;" x1="197.935" y1="58.41" x2="193.155" y2="59.919"/>
	<line style="fill:none;stroke:#000000;stroke-miterlimit:1;" x1="193.155" y1="59.919" x2="189.633" y2="61.932"/>
	<line style="fill:none;stroke:#000000;stroke-miterlimit:1;" x1="189.633" y1="61.932" x2="185.608" y2="65.202"/>
	<line style="fill:none;stroke:#000000;stroke-miterlimit:1;" x1="185.608" y1="65.202" x2="181.834" y2="69.228"/>
	<line style="fill:none;stroke:#000000;stroke-miterlimit:1;" x1="181.834" y1="69.228" x2="176.048" y2="79.039"/>
	<line style="fill:none;stroke:#000000;stroke-miterlimit:1;" x1="176.048" y1="79.039" x2="174.287" y2="84.824"/>
	<line style="fill:none;stroke:#000000;stroke-miterlimit:1;" x1="174.287" y1="84.824" x2="172.526" y2="90.863"/>
	<line style="fill:none;stroke:#000000;stroke-miterlimit:1;" x1="172.526" y1="90.863" x2="171.771" y2="100.926"/>
	<line style="fill:none;stroke:#000000;stroke-miterlimit:1;" x1="171.771" y1="100.926" x2="172.526" y2="106.209"/>
	<line style="fill:none;stroke:#000000;stroke-miterlimit:1;" x1="172.526" y1="106.209" x2="175.042" y2="111.994"/>
	<line style="fill:none;stroke:#000000;stroke-miterlimit:1;" x1="175.042" y1="111.994" x2="177.809" y2="114.762"/>
	<line style="fill:none;stroke:#000000;stroke-miterlimit:1;" x1="177.809" y1="114.762" x2="179.822" y2="115.266"/>
	<line style="fill:none;stroke:#000000;stroke-miterlimit:1;" x1="179.822" y1="115.266" x2="183.344" y2="115.014"/>
	<line style="fill:none;stroke:#000000;stroke-miterlimit:1;" x1="183.344" y1="115.014" x2="186.363" y2="112.75"/>
	<line style="fill:none;stroke:#000000;stroke-miterlimit:1;" x1="186.363" y1="112.75" x2="187.369" y2="109.982"/>
	<line style="fill:none;stroke:#000000;stroke-miterlimit:1;" x1="187.369" y1="109.982" x2="187.872" y2="106.963"/>
	<line style="fill:none;stroke:#000000;stroke-miterlimit:1;" x1="187.872" y1="106.963" x2="188.124" y2="104.699"/>
	<line style="fill:none;stroke:#000000;stroke-miterlimit:1;" x1="188.124" y1="104.699" x2="187.369" y2="96.9"/>
	<line style="fill:none;stroke:#000000;stroke-miterlimit:1;" x1="187.369" y1="96.9" x2="186.111" y2="88.348"/>
	<line style="fill:none;stroke:#000000;stroke-miterlimit:1;" x1="186.111" y1="88.348" x2="186.866" y2="79.793"/>
	<line style="fill:none;stroke:#000000;stroke-miterlimit:1;" x1="186.866" y1="79.793" x2="188.878" y2="73.504"/>
	<line style="fill:none;stroke:#000000;stroke-miterlimit:1;" x1="188.878" y1="73.504" x2="192.149" y2="68.221"/>
	<line style="fill:none;stroke:#000000;stroke-miterlimit:1;" x1="192.149" y1="68.221" x2="195.419" y2="64.447"/>
	<line style="fill:none;stroke:#000000;stroke-miterlimit:1;" x1="195.419" y1="64.447" x2="198.941" y2="62.938"/>
	<line style="fill:none;stroke:#000000;stroke-miterlimit:1;" x1="198.941" y1="62.938" x2="201.457" y2="62.687"/>
	<line style="fill:none;stroke:#000000;stroke-miterlimit:1;" x1="201.457" y1="62.687" x2="201.457" y2="64.951"/>
	<line style="fill:none;stroke:#000000;stroke-miterlimit:1;" x1="238.879" y1="92.812" x2="235.86" y2="94.322"/>
	<line style="fill:none;stroke:#000000;stroke-miterlimit:1;" x1="235.86" y1="94.322" x2="233.596" y2="97.09"/>
	<line style="fill:none;stroke:#000000;stroke-miterlimit:1;" x1="233.596" y1="97.09" x2="232.841" y2="99.354"/>
	<line style="fill:none;stroke:#000000;stroke-miterlimit:1;" x1="232.841" y1="99.354" x2="232.338" y2="101.617"/>
	<line style="fill:none;stroke:#000000;stroke-miterlimit:1;" x1="232.338" y1="101.617" x2="233.093" y2="105.139"/>
	<line style="fill:none;stroke:#000000;stroke-miterlimit:1;" x1="233.093" y1="105.139" x2="234.854" y2="107.404"/>
	<line style="fill:none;stroke:#000000;stroke-miterlimit:1;" x1="234.854" y1="107.404" x2="236.615" y2="108.914"/>
	<line style="fill:none;stroke:#000000;stroke-miterlimit:1;" x1="236.615" y1="108.914" x2="239.634" y2="109.92"/>
	<line style="fill:none;stroke:#000000;stroke-miterlimit:1;" x1="239.634" y1="109.92" x2="241.897" y2="110.674"/>
	<line style="fill:none;stroke:#000000;stroke-miterlimit:1;" x1="241.897" y1="110.674" x2="244.665" y2="110.674"/>
	<line style="fill:none;stroke:#000000;stroke-miterlimit:1;" x1="244.665" y1="110.674" x2="247.684" y2="109.416"/>
	<line style="fill:none;stroke:#000000;stroke-miterlimit:1;" x1="247.684" y1="109.416" x2="250.199" y2="108.158"/>
	<line style="fill:none;stroke:#000000;stroke-miterlimit:1;" x1="250.199" y1="108.158" x2="251.709" y2="106.398"/>
	<line style="fill:none;stroke:#000000;stroke-miterlimit:1;" x1="251.709" y1="106.398" x2="253.47" y2="103.881"/>
	<line style="fill:none;stroke:#000000;stroke-miterlimit:1;" x1="253.47" y1="103.881" x2="254.728" y2="100.863"/>
	<line style="fill:none;stroke:#000000;stroke-miterlimit:1;" x1="254.728" y1="100.863" x2="255.482" y2="98.348"/>
	<line style="fill:none;stroke:#000000;stroke-miterlimit:1;" x1="255.482" y1="98.348" x2="255.734" y2="95.832"/>
	<line style="fill:none;stroke:#000000;stroke-miterlimit:1;" x1="255.734" y1="95.832" x2="255.482" y2="94.07"/>
	<line style="fill:none;stroke:#000000;stroke-miterlimit:1;" x1="255.482" y1="94.07" x2="254.979" y2="91.051"/>
	<line style="fill:none;stroke:#000000;stroke-miterlimit:1;" x1="254.979" y1="91.051" x2="253.722" y2="88.535"/>
	<line style="fill:none;stroke:#000000;stroke-miterlimit:1;" x1="253.722" y1="88.535" x2="251.709" y2="86.02"/>
	<line style="fill:none;stroke:#000000;stroke-miterlimit:1;" x1="251.709" y1="86.02" x2="249.696" y2="84.26"/>
	<line style="fill:none;stroke:#000000;stroke-miterlimit:1;" x1="249.696" y1="84.26" x2="247.936" y2="83.504"/>
	<line style="fill:none;stroke:#000000;stroke-miterlimit:1;" x1="247.936" y1="83.504" x2="246.175" y2="82.75"/>
	<line style="fill:none;stroke:#000000;stroke-miterlimit:1;" x1="246.175" y1="82.75" x2="243.659" y2="82.498"/>
	<line style="fill:none;stroke:#000000;stroke-miterlimit:1;" x1="243.659" y1="82.498" x2="241.646" y2="82.246"/>
	<line style="fill:none;stroke:#000000;stroke-miterlimit:1;" x1="241.646" y1="82.246" x2="239.13" y2="82.246"/>
	<line style="fill:none;stroke:#000000;stroke-miterlimit:1;" x1="239.13" y1="82.246" x2="236.111" y2="82.498"/>
	<line style="fill:none;stroke:#000000;stroke-miterlimit:1;" x1="236.111" y1="82.498" x2="232.841" y2="83.504"/>
	<line style="fill:none;stroke:#000000;stroke-miterlimit:1;" x1="232.841" y1="83.504" x2="230.074" y2="85.014"/>
	<line style="fill:none;stroke:#000000;stroke-miterlimit:1;" x1="230.074" y1="85.014" x2="228.312" y2="86.523"/>
	<line style="fill:none;stroke:#000000;stroke-miterlimit:1;" x1="228.312" y1="86.523" x2="226.3" y2="88.283"/>
	<line style="fill:none;stroke:#000000;stroke-miterlimit:1;" x1="226.3" y1="88.283" x2="224.791" y2="90.045"/>
	<line style="fill:none;stroke:#000000;stroke-miterlimit:1;" x1="224.791" y1="90.045" x2="223.281" y2="92.812"/>
	<line style="fill:none;stroke:#000000;stroke-miterlimit:1;" x1="223.281" y1="92.812" x2="221.772" y2="95.58"/>
	<line style="fill:none;stroke:#000000;stroke-miterlimit:1;" x1="221.772" y1="95.58" x2="221.269" y2="98.096"/>
	<line style="fill:none;stroke:#000000;stroke-miterlimit:1;" x1="221.269" y1="98.096" x2="220.766" y2="101.617"/>
	<line style="fill:none;stroke:#000000;stroke-miterlimit:1;" x1="220.766" y1="101.617" x2="220.514" y2="105.139"/>
	<line style="fill:none;stroke:#000000;stroke-miterlimit:1;" x1="220.514" y1="105.139" x2="220.766" y2="107.906"/>
	<line style="fill:none;stroke:#000000;stroke-miterlimit:1;" x1="220.766" y1="107.906" x2="221.017" y2="111.932"/>
	<line style="fill:none;stroke:#000000;stroke-miterlimit:1;" x1="221.017" y1="111.932" x2="222.526" y2="115.957"/>
	<line style="fill:none;stroke:#000000;stroke-miterlimit:1;" x1="222.526" y1="115.957" x2="224.791" y2="120.486"/>
	<line style="fill:none;stroke:#000000;stroke-miterlimit:1;" x1="224.791" y1="120.486" x2="228.816" y2="125.77"/>
	<line style="fill:none;stroke:#000000;stroke-miterlimit:1;" x1="228.816" y1="125.77" x2="235.105" y2="131.807"/>
	<line style="fill:none;stroke:#000000;stroke-miterlimit:1;" x1="235.105" y1="131.807" x2="244.162" y2="139.102"/>
	<line style="fill:none;stroke:#000000;stroke-miterlimit:1;" x1="244.162" y1="139.102" x2="263.785" y2="150.172"/>
	<line style="fill:none;stroke:#000000;stroke-miterlimit:1;" x1="326.057" y1="10.286" x2="326.057" y2="17.856"/>
	<line style="fill:none;stroke:#000000;stroke-miterlimit:1;" x1="326.057" y1="17.856" x2="379.378" y2="17.856"/>
	<line style="fill:none;stroke:#000000;stroke-miterlimit:1;" x1="379.378" y1="17.856" x2="381.683" y2="19.501"/>
	<line style="fill:none;stroke:#000000;stroke-miterlimit:1;" x1="381.683" y1="19.501" x2="387.277" y2="22.793"/>
	<line style="fill:none;stroke:#000000;stroke-miterlimit:1;" x1="387.277" y1="22.793" x2="392.544" y2="24.11"/>
	<line style="fill:none;stroke:#000000;stroke-miterlimit:1;" x1="392.544" y1="24.11" x2="399.785" y2="22.793"/>
	<line style="fill:none;stroke:#000000;stroke-miterlimit:1;" x1="399.785" y1="22.793" x2="404.723" y2="18.514"/>
	<line style="fill:none;stroke:#000000;stroke-miterlimit:1;" x1="404.723" y1="18.514" x2="406.368" y2="14.235"/>
	<line style="fill:none;stroke:#000000;stroke-miterlimit:1;" x1="406.368" y1="14.235" x2="405.052" y2="8.311"/>
	<line style="fill:none;stroke:#000000;stroke-miterlimit:1;" x1="405.052" y1="8.311" x2="400.114" y2="4.361"/>
	<line style="fill:none;stroke:#000000;stroke-miterlimit:1;" x1="400.114" y1="4.361" x2="394.519" y2="3.044"/>
	<line style="fill:none;stroke:#000000;stroke-miterlimit:1;" x1="394.519" y1="3.044" x2="387.606" y2="4.361"/>
	<line style="fill:none;stroke:#000000;stroke-miterlimit:1;" x1="387.606" y1="4.361" x2="381.683" y2="7.981"/>
	<line style="fill:none;stroke:#000000;stroke-miterlimit:1;" x1="381.683" y1="7.981" x2="379.378" y2="10.286"/>
	<line style="fill:none;stroke:#000000;stroke-miterlimit:1;" x1="379.378" y1="10.286" x2="326.057" y2="10.286"/>
	<line style="fill:none;stroke:#000000;stroke-miterlimit:1;" x1="486.35" y1="10.286" x2="486.35" y2="17.856"/>
	<line style="fill:none;stroke:#000000;stroke-miterlimit:1;" x1="486.35" y1="17.856" x2="433.357" y2="17.856"/>
	<line style="fill:none;stroke:#000000;stroke-miterlimit:1;" x1="433.357" y1="17.856" x2="430.725" y2="19.501"/>
	<line style="fill:none;stroke:#000000;stroke-miterlimit:1;" x1="430.725" y1="19.501" x2="425.129" y2="22.793"/>
	<line style="fill:none;stroke:#000000;stroke-miterlimit:1;" x1="425.129" y1="22.793" x2="419.533" y2="24.11"/>
	<line style="fill:none;stroke:#000000;stroke-miterlimit:1;" x1="419.533" y1="24.11" x2="412.293" y2="22.793"/>
	<line style="fill:none;stroke:#000000;stroke-miterlimit:1;" x1="412.293" y1="22.793" x2="407.685" y2="18.514"/>
	<line style="fill:none;stroke:#000000;stroke-miterlimit:1;" x1="407.685" y1="18.514" x2="406.368" y2="14.235"/>
	<line style="fill:none;stroke:#000000;stroke-miterlimit:1;" x1="406.368" y1="14.235" x2="407.355" y2="8.311"/>
	<line style="fill:none;stroke:#000000;stroke-miterlimit:1;" x1="407.355" y1="8.311" x2="412.293" y2="4.361"/>
	<line style="fill:none;stroke:#000000;stroke-miterlimit:1;" x1="412.293" y1="4.361" x2="417.888" y2="3.044"/>
	<line style="fill:none;stroke:#000000;stroke-miterlimit:1;" x1="417.888" y1="3.044" x2="424.8" y2="4.361"/>
	<line style="fill:none;stroke:#000000;stroke-miterlimit:1;" x1="424.8" y1="4.361" x2="430.725" y2="7.981"/>
	<line style="fill:none;stroke:#000000;stroke-miterlimit:1;" x1="430.725" y1="7.981" x2="433.357" y2="10.286"/>
	<line style="fill:none;stroke:#000000;stroke-miterlimit:1;" x1="433.357" y1="10.286" x2="486.35" y2="10.286"/>
	<line style="fill:none;stroke:#000000;stroke-miterlimit:1;" x1="330.172" y1="151.24" x2="338.071" y2="151.24"/>
	<line style="fill:none;stroke:#000000;stroke-miterlimit:1;" x1="338.071" y1="151.24" x2="350.249" y2="136.1"/>
	<line style="fill:none;stroke:#000000;stroke-miterlimit:1;" x1="350.249" y1="136.1" x2="360.452" y2="149.266"/>
	<line style="fill:none;stroke:#000000;stroke-miterlimit:1;" x1="360.452" y1="149.266" x2="370.327" y2="136.1"/>
	<line style="fill:none;stroke:#000000;stroke-miterlimit:1;" x1="370.327" y1="136.1" x2="380.201" y2="149.266"/>
	<line style="fill:none;stroke:#000000;stroke-miterlimit:1;" x1="380.201" y1="149.266" x2="390.075" y2="136.1"/>
	<line style="fill:none;stroke:#000000;stroke-miterlimit:1;" x1="390.075" y1="136.1" x2="400.279" y2="149.266"/>
	<line style="fill:none;stroke:#000000;stroke-miterlimit:1;" x1="400.279" y1="149.266" x2="409.824" y2="136.1"/>
	<line style="fill:none;stroke:#000000;stroke-miterlimit:1;" x1="409.824" y1="136.1" x2="420.356" y2="149.266"/>
	<line style="fill:none;stroke:#000000;stroke-miterlimit:1;" x1="420.356" y1="149.266" x2="430.23" y2="136.1"/>
	<line style="fill:none;stroke:#000000;stroke-miterlimit:1;" x1="430.23" y1="136.1" x2="440.435" y2="149.266"/>
	<line style="fill:none;stroke:#000000;stroke-miterlimit:1;" x1="440.435" y1="149.266" x2="450.638" y2="136.1"/>
	<line style="fill:none;stroke:#000000;stroke-miterlimit:1;" x1="450.638" y1="136.1" x2="460.512" y2="149.266"/>
	<line style="fill:none;stroke:#000000;stroke-miterlimit:1;" x1="460.512" y1="149.266" x2="470.057" y2="136.1"/>
	<line style="fill:none;stroke:#000000;stroke-miterlimit:1;" x1="470.057" y1="136.1" x2="482.564" y2="151.24"/>
	<line style="fill:none;stroke:#000000;stroke-miterlimit:1;" x1="482.564" y1="151.24" x2="490.464" y2="151.24"/>
	<line style="fill:none;stroke:#000000;stroke-miterlimit:1;" x1="490.464" y1="151.24" x2="470.387" y2="126.885"/>
	<line style="fill:none;stroke:#000000;stroke-miterlimit:1;" x1="470.387" y1="126.885" x2="460.183" y2="140.051"/>
	<line style="fill:none;stroke:#000000;stroke-miterlimit:1;" x1="460.183" y1="140.051" x2="450.638" y2="126.885"/>
	<line style="fill:none;stroke:#000000;stroke-miterlimit:1;" x1="450.638" y1="126.885" x2="440.764" y2="141.367"/>
	<line style="fill:none;stroke:#000000;stroke-miterlimit:1;" x1="440.764" y1="141.367" x2="429.572" y2="126.885"/>
	<line style="fill:none;stroke:#000000;stroke-miterlimit:1;" x1="429.572" y1="126.885" x2="420.356" y2="140.051"/>
	<line style="fill:none;stroke:#000000;stroke-miterlimit:1;" x1="420.356" y1="140.051" x2="409.824" y2="126.885"/>
	<line style="fill:none;stroke:#000000;stroke-miterlimit:1;" x1="409.824" y1="126.885" x2="400.608" y2="140.051"/>
	<line style="fill:none;stroke:#000000;stroke-miterlimit:1;" x1="400.608" y1="140.051" x2="390.075" y2="126.885"/>
	<line style="fill:none;stroke:#000000;stroke-miterlimit:1;" x1="390.075" y1="126.885" x2="380.201" y2="141.367"/>
	<line style="fill:none;stroke:#000000;stroke-miterlimit:1;" x1="380.201" y1="141.367" x2="369.998" y2="126.885"/>
	<line style="fill:none;stroke:#000000;stroke-miterlimit:1;" x1="369.998" y1="126.885" x2="360.452" y2="140.709"/>
	<line style="fill:none;stroke:#000000;stroke-miterlimit:1;" x1="360.452" y1="140.709" x2="349.262" y2="126.885"/>
	<line style="fill:none;stroke:#000000;stroke-miterlimit:1;" x1="349.262" y1="126.885" x2="330.172" y2="151.24"/>
</g>
</svg>
