<?xml version="1.0" encoding="iso-8859-1"?>
<!-- Generator: Adobe Illustrator 16.0.1, SVG Export Plug-In . SVG Version: 6.00 Build 0)  -->
<!DOCTYPE svg PUBLIC "-//W3C//DTD SVG 1.1//EN" "http://www.w3.org/Graphics/SVG/1.1/DTD/svg11.dtd">
<svg version="1.1" id="Ebene_1" xmlns="http://www.w3.org/2000/svg" xmlns:xlink="http://www.w3.org/1999/xlink" x="0px" y="0px"
	 width="271.695px" height="149.184px" viewBox="0 0 271.695 149.184" style="enable-background:new 0 0 271.695 149.184;"
	 xml:space="preserve">
<g>
	<line style="fill:none;stroke:#000000;stroke-miterlimit:1;" x1="113.896" y1="119.232" x2="113.896" y2="103.479"/>
	<line style="fill:none;stroke:#000000;stroke-miterlimit:1;" x1="113.896" y1="103.479" x2="107.003" y2="103.15"/>
	<line style="fill:none;stroke:#000000;stroke-miterlimit:1;" x1="107.003" y1="103.15" x2="102.408" y2="101.836"/>
	<line style="fill:none;stroke:#000000;stroke-miterlimit:1;" x1="102.408" y1="101.836" x2="97.813" y2="99.867"/>
	<line style="fill:none;stroke:#000000;stroke-miterlimit:1;" x1="97.813" y1="99.867" x2="93.874" y2="97.242"/>
	<line style="fill:none;stroke:#000000;stroke-miterlimit:1;" x1="93.874" y1="97.242" x2="90.92" y2="94.615"/>
	<line style="fill:none;stroke:#000000;stroke-miterlimit:1;" x1="90.92" y1="94.615" x2="88.623" y2="91.006"/>
	<line style="fill:none;stroke:#000000;stroke-miterlimit:1;" x1="88.623" y1="91.006" x2="86.981" y2="87.395"/>
	<line style="fill:none;stroke:#000000;stroke-miterlimit:1;" x1="86.981" y1="87.395" x2="86.325" y2="82.799"/>
	<line style="fill:none;stroke:#000000;stroke-miterlimit:1;" x1="86.325" y1="82.799" x2="86.981" y2="77.875"/>
	<line style="fill:none;stroke:#000000;stroke-miterlimit:1;" x1="86.981" y1="77.875" x2="88.951" y2="70.983"/>
	<line style="fill:none;stroke:#000000;stroke-miterlimit:1;" x1="88.951" y1="70.983" x2="103.393" y2="41.442"/>
	<line style="fill:none;stroke:#000000;stroke-miterlimit:1;" x1="103.393" y1="41.442" x2="107.003" y2="32.58"/>
	<line style="fill:none;stroke:#000000;stroke-miterlimit:1;" x1="107.003" y1="32.58" x2="108.316" y2="27.984"/>
	<line style="fill:none;stroke:#000000;stroke-miterlimit:1;" x1="108.316" y1="27.984" x2="108.645" y2="23.717"/>
	<line style="fill:none;stroke:#000000;stroke-miterlimit:1;" x1="108.645" y1="23.717" x2="108.973" y2="19.451"/>
	<line style="fill:none;stroke:#000000;stroke-miterlimit:1;" x1="108.973" y1="19.451" x2="107.332" y2="14.527"/>
	<line style="fill:none;stroke:#000000;stroke-miterlimit:1;" x1="107.332" y1="14.527" x2="105.034" y2="10.26"/>
	<line style="fill:none;stroke:#000000;stroke-miterlimit:1;" x1="105.034" y1="10.26" x2="102.08" y2="6.978"/>
	<line style="fill:none;stroke:#000000;stroke-miterlimit:1;" x1="102.08" y1="6.978" x2="98.141" y2="4.352"/>
	<line style="fill:none;stroke:#000000;stroke-miterlimit:1;" x1="98.141" y1="4.352" x2="95.187" y2="3.039"/>
	<line style="fill:none;stroke:#000000;stroke-miterlimit:1;" x1="95.187" y1="3.039" x2="90.92" y2="2.054"/>
	<line style="fill:none;stroke:#000000;stroke-miterlimit:1;" x1="90.92" y1="2.054" x2="85.997" y2="1.07"/>
	<line style="fill:none;stroke:#000000;stroke-miterlimit:1;" x1="85.997" y1="1.07" x2="75.493" y2="1.726"/>
	<line style="fill:none;stroke:#000000;stroke-miterlimit:1;" x1="75.493" y1="1.726" x2="72.211" y2="2.054"/>
	<line style="fill:none;stroke:#000000;stroke-miterlimit:1;" x1="72.211" y1="2.054" x2="66.631" y2="4.024"/>
	<line style="fill:none;stroke:#000000;stroke-miterlimit:1;" x1="66.631" y1="4.024" x2="59.738" y2="8.619"/>
	<line style="fill:none;stroke:#000000;stroke-miterlimit:1;" x1="59.738" y1="8.619" x2="55.799" y2="11.901"/>
	<line style="fill:none;stroke:#000000;stroke-miterlimit:1;" x1="55.799" y1="11.901" x2="53.83" y2="13.542"/>
	<line style="fill:none;stroke:#000000;stroke-miterlimit:1;" x1="53.83" y1="13.542" x2="52.189" y2="14.527"/>
	<line style="fill:none;stroke:#000000;stroke-miterlimit:1;" x1="52.189" y1="14.527" x2="58.425" y2="24.702"/>
	<line style="fill:none;stroke:#000000;stroke-miterlimit:1;" x1="58.425" y1="24.702" x2="58.753" y2="34.221"/>
	<line style="fill:none;stroke:#000000;stroke-miterlimit:1;" x1="58.753" y1="34.221" x2="52.845" y2="33.236"/>
	<line style="fill:none;stroke:#000000;stroke-miterlimit:1;" x1="52.845" y1="33.236" x2="45.953" y2="33.236"/>
	<line style="fill:none;stroke:#000000;stroke-miterlimit:1;" x1="45.953" y1="33.236" x2="33.479" y2="33.236"/>
	<line style="fill:none;stroke:#000000;stroke-miterlimit:1;" x1="33.479" y1="33.236" x2="18.053" y2="34.221"/>
	<line style="fill:none;stroke:#000000;stroke-miterlimit:1;" x1="18.053" y1="34.221" x2="10.503" y2="35.862"/>
	<line style="fill:none;stroke:#000000;stroke-miterlimit:1;" x1="10.503" y1="35.862" x2="7.221" y2="38.16"/>
	<line style="fill:none;stroke:#000000;stroke-miterlimit:1;" x1="51.861" y1="14.855" x2="48.25" y2="16.168"/>
	<line style="fill:none;stroke:#000000;stroke-miterlimit:1;" x1="48.25" y1="16.168" x2="11.16" y2="24.374"/>
	<line style="fill:none;stroke:#000000;stroke-miterlimit:1;" x1="11.16" y1="24.374" x2="5.908" y2="26.671"/>
	<line style="fill:none;stroke:#000000;stroke-miterlimit:1;" x1="5.908" y1="26.671" x2="3.283" y2="29.297"/>
	<line style="fill:none;stroke:#000000;stroke-miterlimit:1;" x1="3.283" y1="29.297" x2="0.657" y2="33.893"/>
	<line style="fill:none;stroke:#000000;stroke-miterlimit:1;" x1="0.657" y1="33.893" x2="0.657" y2="37.503"/>
	<line style="fill:none;stroke:#000000;stroke-miterlimit:1;" x1="0.657" y1="37.503" x2="0" y2="40.458"/>
	<line style="fill:none;stroke:#000000;stroke-miterlimit:1;" x1="0" y1="40.458" x2="0.657" y2="42.427"/>
	<line style="fill:none;stroke:#000000;stroke-miterlimit:1;" x1="0.657" y1="42.427" x2="1.97" y2="43.083"/>
	<line style="fill:none;stroke:#000000;stroke-miterlimit:1;" x1="1.97" y1="43.083" x2="2.626" y2="43.083"/>
	<line style="fill:none;stroke:#000000;stroke-miterlimit:1;" x1="2.626" y1="43.083" x2="4.595" y2="42.427"/>
	<line style="fill:none;stroke:#000000;stroke-miterlimit:1;" x1="4.595" y1="42.427" x2="8.534" y2="35.206"/>
	<line style="fill:none;stroke:#000000;stroke-miterlimit:1;" x1="8.534" y1="35.206" x2="13.129" y2="31.923"/>
	<line style="fill:none;stroke:#000000;stroke-miterlimit:1;" x1="13.129" y1="31.923" x2="16.412" y2="30.282"/>
	<line style="fill:none;stroke:#000000;stroke-miterlimit:1;" x1="16.412" y1="30.282" x2="21.335" y2="28.969"/>
	<line style="fill:none;stroke:#000000;stroke-miterlimit:1;" x1="21.335" y1="28.969" x2="52.517" y2="24.046"/>
	<line style="fill:none;stroke:#000000;stroke-miterlimit:1;" x1="52.517" y1="24.046" x2="55.799" y2="24.374"/>
	<line style="fill:none;stroke:#000000;stroke-miterlimit:1;" x1="55.799" y1="24.374" x2="58.425" y2="25.359"/>
	<line style="fill:none;stroke:#000000;stroke-miterlimit:1;" x1="94.859" y1="3.039" x2="101.423" y2="3.039"/>
	<line style="fill:none;stroke:#000000;stroke-miterlimit:1;" x1="101.423" y1="3.039" x2="109.629" y2="5.008"/>
	<line style="fill:none;stroke:#000000;stroke-miterlimit:1;" x1="109.629" y1="5.008" x2="116.522" y2="7.634"/>
	<line style="fill:none;stroke:#000000;stroke-miterlimit:1;" x1="116.522" y1="7.634" x2="123.415" y2="11.573"/>
	<line style="fill:none;stroke:#000000;stroke-miterlimit:1;" x1="123.415" y1="11.573" x2="130.308" y2="17.481"/>
	<line style="fill:none;stroke:#000000;stroke-miterlimit:1;" x1="130.308" y1="17.481" x2="138.186" y2="28.313"/>
	<line style="fill:none;stroke:#000000;stroke-miterlimit:1;" x1="138.186" y1="28.313" x2="143.766" y2="41.114"/>
	<line style="fill:none;stroke:#000000;stroke-miterlimit:1;" x1="143.766" y1="41.114" x2="146.062" y2="55.884"/>
	<line style="fill:none;stroke:#000000;stroke-miterlimit:1;" x1="146.062" y1="55.884" x2="130.636" y2="56.212"/>
	<line style="fill:none;stroke:#000000;stroke-miterlimit:1;" x1="130.636" y1="56.212" x2="128.995" y2="42.755"/>
	<line style="fill:none;stroke:#000000;stroke-miterlimit:1;" x1="128.995" y1="42.755" x2="127.025" y2="33.893"/>
	<line style="fill:none;stroke:#000000;stroke-miterlimit:1;" x1="127.025" y1="33.893" x2="125.056" y2="27.984"/>
	<line style="fill:none;stroke:#000000;stroke-miterlimit:1;" x1="125.056" y1="27.984" x2="122.759" y2="22.733"/>
	<line style="fill:none;stroke:#000000;stroke-miterlimit:1;" x1="122.759" y1="22.733" x2="120.133" y2="19.779"/>
	<line style="fill:none;stroke:#000000;stroke-miterlimit:1;" x1="120.133" y1="19.779" x2="116.194" y2="15.84"/>
	<line style="fill:none;stroke:#000000;stroke-miterlimit:1;" x1="116.194" y1="15.84" x2="110.614" y2="11.573"/>
	<line style="fill:none;stroke:#000000;stroke-miterlimit:1;" x1="110.614" y1="11.573" x2="105.362" y2="9.932"/>
	<line style="fill:none;stroke:#000000;stroke-miterlimit:1;" x1="58.425" y1="33.893" x2="70.898" y2="35.862"/>
	<line style="fill:none;stroke:#000000;stroke-miterlimit:1;" x1="70.898" y1="35.862" x2="75.822" y2="36.847"/>
	<line style="fill:none;stroke:#000000;stroke-miterlimit:1;" x1="75.822" y1="36.847" x2="80.417" y2="36.847"/>
	<line style="fill:none;stroke:#000000;stroke-miterlimit:1;" x1="80.417" y1="36.847" x2="82.714" y2="38.16"/>
	<line style="fill:none;stroke:#000000;stroke-miterlimit:1;" x1="82.714" y1="38.16" x2="84.355" y2="40.786"/>
	<line style="fill:none;stroke:#000000;stroke-miterlimit:1;" x1="84.355" y1="40.786" x2="84.684" y2="42.755"/>
	<line style="fill:none;stroke:#000000;stroke-miterlimit:1;" x1="84.684" y1="42.755" x2="84.027" y2="45.709"/>
	<line style="fill:none;stroke:#000000;stroke-miterlimit:1;" x1="84.027" y1="45.709" x2="78.775" y2="58.182"/>
	<line style="fill:none;stroke:#000000;stroke-miterlimit:1;" x1="78.775" y1="58.182" x2="72.868" y2="73.937"/>
	<line style="fill:none;stroke:#000000;stroke-miterlimit:1;" x1="72.868" y1="73.937" x2="71.555" y2="83.127"/>
	<line style="fill:none;stroke:#000000;stroke-miterlimit:1;" x1="71.555" y1="83.127" x2="73.196" y2="94.943"/>
	<line style="fill:none;stroke:#000000;stroke-miterlimit:1;" x1="73.196" y1="94.943" x2="76.806" y2="103.479"/>
	<line style="fill:none;stroke:#000000;stroke-miterlimit:1;" x1="76.806" y1="103.479" x2="79.104" y2="106.432"/>
	<line style="fill:none;stroke:#000000;stroke-miterlimit:1;" x1="79.104" y1="106.432" x2="82.058" y2="109.387"/>
	<line style="fill:none;stroke:#000000;stroke-miterlimit:1;" x1="82.058" y1="109.387" x2="90.264" y2="114.637"/>
	<line style="fill:none;stroke:#000000;stroke-miterlimit:1;" x1="90.264" y1="114.637" x2="101.752" y2="118.248"/>
	<line style="fill:none;stroke:#000000;stroke-miterlimit:1;" x1="101.752" y1="118.248" x2="113.896" y2="119.232"/>
	<line style="fill:none;stroke:#000000;stroke-miterlimit:1;" x1="76.806" y1="11.901" x2="74.837" y2="12.229"/>
	<line style="fill:none;stroke:#000000;stroke-miterlimit:1;" x1="74.837" y1="12.229" x2="72.868" y2="14.527"/>
	<line style="fill:none;stroke:#000000;stroke-miterlimit:1;" x1="72.868" y1="14.527" x2="72.868" y2="17.153"/>
	<line style="fill:none;stroke:#000000;stroke-miterlimit:1;" x1="72.868" y1="17.153" x2="74.837" y2="18.794"/>
	<line style="fill:none;stroke:#000000;stroke-miterlimit:1;" x1="74.837" y1="18.794" x2="77.463" y2="18.794"/>
	<line style="fill:none;stroke:#000000;stroke-miterlimit:1;" x1="77.463" y1="18.794" x2="79.432" y2="17.481"/>
	<line style="fill:none;stroke:#000000;stroke-miterlimit:1;" x1="79.432" y1="17.481" x2="80.088" y2="16.168"/>
	<line style="fill:none;stroke:#000000;stroke-miterlimit:1;" x1="80.088" y1="16.168" x2="79.76" y2="13.871"/>
	<line style="fill:none;stroke:#000000;stroke-miterlimit:1;" x1="79.76" y1="13.871" x2="77.791" y2="11.901"/>
	<line style="fill:none;stroke:#000000;stroke-miterlimit:1;" x1="30.115" y1="74.347" x2="26.177" y2="76.316"/>
	<line style="fill:none;stroke:#000000;stroke-miterlimit:1;" x1="26.177" y1="76.316" x2="23.223" y2="79.928"/>
	<line style="fill:none;stroke:#000000;stroke-miterlimit:1;" x1="23.223" y1="79.928" x2="22.238" y2="82.881"/>
	<line style="fill:none;stroke:#000000;stroke-miterlimit:1;" x1="22.238" y1="82.881" x2="21.582" y2="85.836"/>
	<line style="fill:none;stroke:#000000;stroke-miterlimit:1;" x1="21.582" y1="85.836" x2="22.566" y2="90.43"/>
	<line style="fill:none;stroke:#000000;stroke-miterlimit:1;" x1="22.566" y1="90.43" x2="24.864" y2="93.385"/>
	<line style="fill:none;stroke:#000000;stroke-miterlimit:1;" x1="24.864" y1="93.385" x2="27.161" y2="95.354"/>
	<line style="fill:none;stroke:#000000;stroke-miterlimit:1;" x1="27.161" y1="95.354" x2="31.1" y2="96.666"/>
	<line style="fill:none;stroke:#000000;stroke-miterlimit:1;" x1="31.1" y1="96.666" x2="34.054" y2="97.652"/>
	<line style="fill:none;stroke:#000000;stroke-miterlimit:1;" x1="34.054" y1="97.652" x2="37.665" y2="97.652"/>
	<line style="fill:none;stroke:#000000;stroke-miterlimit:1;" x1="37.665" y1="97.652" x2="41.604" y2="96.01"/>
	<line style="fill:none;stroke:#000000;stroke-miterlimit:1;" x1="41.604" y1="96.01" x2="44.886" y2="94.369"/>
	<line style="fill:none;stroke:#000000;stroke-miterlimit:1;" x1="44.886" y1="94.369" x2="46.855" y2="92.072"/>
	<line style="fill:none;stroke:#000000;stroke-miterlimit:1;" x1="46.855" y1="92.072" x2="49.153" y2="88.789"/>
	<line style="fill:none;stroke:#000000;stroke-miterlimit:1;" x1="49.153" y1="88.789" x2="50.794" y2="84.85"/>
	<line style="fill:none;stroke:#000000;stroke-miterlimit:1;" x1="50.794" y1="84.85" x2="51.779" y2="81.568"/>
	<line style="fill:none;stroke:#000000;stroke-miterlimit:1;" x1="51.779" y1="81.568" x2="52.107" y2="78.285"/>
	<line style="fill:none;stroke:#000000;stroke-miterlimit:1;" x1="52.107" y1="78.285" x2="51.779" y2="75.988"/>
	<line style="fill:none;stroke:#000000;stroke-miterlimit:1;" x1="51.779" y1="75.988" x2="51.122" y2="72.049"/>
	<line style="fill:none;stroke:#000000;stroke-miterlimit:1;" x1="51.122" y1="72.049" x2="49.481" y2="68.767"/>
	<line style="fill:none;stroke:#000000;stroke-miterlimit:1;" x1="49.481" y1="68.767" x2="46.855" y2="65.485"/>
	<line style="fill:none;stroke:#000000;stroke-miterlimit:1;" x1="46.855" y1="65.485" x2="44.229" y2="63.188"/>
	<line style="fill:none;stroke:#000000;stroke-miterlimit:1;" x1="44.229" y1="63.188" x2="41.932" y2="62.203"/>
	<line style="fill:none;stroke:#000000;stroke-miterlimit:1;" x1="41.932" y1="62.203" x2="39.634" y2="61.218"/>
	<line style="fill:none;stroke:#000000;stroke-miterlimit:1;" x1="39.634" y1="61.218" x2="36.352" y2="60.89"/>
	<line style="fill:none;stroke:#000000;stroke-miterlimit:1;" x1="36.352" y1="60.89" x2="33.726" y2="60.562"/>
	<line style="fill:none;stroke:#000000;stroke-miterlimit:1;" x1="33.726" y1="60.562" x2="30.443" y2="60.562"/>
	<line style="fill:none;stroke:#000000;stroke-miterlimit:1;" x1="30.443" y1="60.562" x2="26.505" y2="60.89"/>
	<line style="fill:none;stroke:#000000;stroke-miterlimit:1;" x1="26.505" y1="60.89" x2="22.238" y2="62.203"/>
	<line style="fill:none;stroke:#000000;stroke-miterlimit:1;" x1="22.238" y1="62.203" x2="18.627" y2="64.172"/>
	<line style="fill:none;stroke:#000000;stroke-miterlimit:1;" x1="18.627" y1="64.172" x2="16.33" y2="66.142"/>
	<line style="fill:none;stroke:#000000;stroke-miterlimit:1;" x1="16.33" y1="66.142" x2="13.704" y2="68.439"/>
	<line style="fill:none;stroke:#000000;stroke-miterlimit:1;" x1="13.704" y1="68.439" x2="11.734" y2="70.737"/>
	<line style="fill:none;stroke:#000000;stroke-miterlimit:1;" x1="11.734" y1="70.737" x2="9.765" y2="74.347"/>
	<line style="fill:none;stroke:#000000;stroke-miterlimit:1;" x1="9.765" y1="74.347" x2="7.795" y2="77.957"/>
	<line style="fill:none;stroke:#000000;stroke-miterlimit:1;" x1="7.795" y1="77.957" x2="7.139" y2="81.24"/>
	<line style="fill:none;stroke:#000000;stroke-miterlimit:1;" x1="7.139" y1="81.24" x2="6.483" y2="85.836"/>
	<line style="fill:none;stroke:#000000;stroke-miterlimit:1;" x1="6.483" y1="85.836" x2="6.154" y2="90.43"/>
	<line style="fill:none;stroke:#000000;stroke-miterlimit:1;" x1="6.154" y1="90.43" x2="6.483" y2="94.041"/>
	<line style="fill:none;stroke:#000000;stroke-miterlimit:1;" x1="6.483" y1="94.041" x2="6.811" y2="99.293"/>
	<line style="fill:none;stroke:#000000;stroke-miterlimit:1;" x1="6.811" y1="99.293" x2="8.78" y2="104.545"/>
	<line style="fill:none;stroke:#000000;stroke-miterlimit:1;" x1="8.78" y1="104.545" x2="11.734" y2="110.453"/>
	<line style="fill:none;stroke:#000000;stroke-miterlimit:1;" x1="11.734" y1="110.453" x2="16.986" y2="117.346"/>
	<line style="fill:none;stroke:#000000;stroke-miterlimit:1;" x1="16.986" y1="117.346" x2="25.192" y2="125.223"/>
	<line style="fill:none;stroke:#000000;stroke-miterlimit:1;" x1="25.192" y1="125.223" x2="37.008" y2="134.742"/>
	<line style="fill:none;stroke:#000000;stroke-miterlimit:1;" x1="37.008" y1="134.742" x2="62.61" y2="149.184"/>
	<line style="fill:none;stroke:#000000;stroke-miterlimit:1;" x1="211.182" y1="69.115" x2="251.654" y2="30.199"/>
	<line style="fill:none;stroke:#000000;stroke-miterlimit:1;" x1="196.549" y1="63.511" x2="246.361" y2="15.877"/>
	<line style="fill:none;stroke:#000000;stroke-miterlimit:1;" x1="186.898" y1="53.237" x2="236.711" y2="5.604"/>
	<line style="fill:none;stroke:#000000;stroke-miterlimit:1;" x1="181.916" y1="38.604" x2="221.768" y2="0.623"/>
	<line style="fill:none;stroke:#000000;stroke-miterlimit:1;" x1="231.418" y1="2.802" x2="227.994" y2="1.868"/>
	<line style="fill:none;stroke:#000000;stroke-miterlimit:1;" x1="227.994" y1="1.868" x2="224.568" y2="0.623"/>
	<line style="fill:none;stroke:#000000;stroke-miterlimit:1;" x1="224.568" y1="0.623" x2="220.832" y2="0"/>
	<line style="fill:none;stroke:#000000;stroke-miterlimit:1;" x1="220.832" y1="0" x2="217.098" y2="0"/>
	<line style="fill:none;stroke:#000000;stroke-miterlimit:1;" x1="217.098" y1="0" x2="213.049" y2="0.311"/>
	<line style="fill:none;stroke:#000000;stroke-miterlimit:1;" x1="213.049" y1="0.311" x2="209.625" y2="0.623"/>
	<line style="fill:none;stroke:#000000;stroke-miterlimit:1;" x1="209.625" y1="0.623" x2="205.889" y2="1.868"/>
	<line style="fill:none;stroke:#000000;stroke-miterlimit:1;" x1="205.889" y1="1.868" x2="202.465" y2="3.113"/>
	<line style="fill:none;stroke:#000000;stroke-miterlimit:1;" x1="202.465" y1="3.113" x2="199.039" y2="4.67"/>
	<line style="fill:none;stroke:#000000;stroke-miterlimit:1;" x1="199.039" y1="4.67" x2="195.926" y2="6.849"/>
	<line style="fill:none;stroke:#000000;stroke-miterlimit:1;" x1="195.926" y1="6.849" x2="193.436" y2="9.028"/>
	<line style="fill:none;stroke:#000000;stroke-miterlimit:1;" x1="193.436" y1="9.028" x2="190.945" y2="11.519"/>
	<line style="fill:none;stroke:#000000;stroke-miterlimit:1;" x1="190.945" y1="11.519" x2="189.078" y2="13.698"/>
	<line style="fill:none;stroke:#000000;stroke-miterlimit:1;" x1="189.078" y1="13.698" x2="187.209" y2="16.5"/>
	<line style="fill:none;stroke:#000000;stroke-miterlimit:1;" x1="187.209" y1="16.5" x2="185.029" y2="20.547"/>
	<line style="fill:none;stroke:#000000;stroke-miterlimit:1;" x1="185.029" y1="20.547" x2="184.096" y2="23.661"/>
	<line style="fill:none;stroke:#000000;stroke-miterlimit:1;" x1="184.096" y1="23.661" x2="183.162" y2="27.085"/>
	<line style="fill:none;stroke:#000000;stroke-miterlimit:1;" x1="183.162" y1="27.085" x2="182.539" y2="30.51"/>
	<line style="fill:none;stroke:#000000;stroke-miterlimit:1;" x1="182.539" y1="30.51" x2="181.916" y2="34.557"/>
	<line style="fill:none;stroke:#000000;stroke-miterlimit:1;" x1="181.916" y1="34.557" x2="181.916" y2="37.982"/>
	<line style="fill:none;stroke:#000000;stroke-miterlimit:1;" x1="181.916" y1="37.982" x2="182.539" y2="42.029"/>
	<line style="fill:none;stroke:#000000;stroke-miterlimit:1;" x1="182.539" y1="42.029" x2="183.473" y2="45.454"/>
	<line style="fill:none;stroke:#000000;stroke-miterlimit:1;" x1="183.473" y1="45.454" x2="184.408" y2="48.567"/>
	<line style="fill:none;stroke:#000000;stroke-miterlimit:1;" x1="184.408" y1="48.567" x2="185.965" y2="51.992"/>
	<line style="fill:none;stroke:#000000;stroke-miterlimit:1;" x1="185.965" y1="51.992" x2="186.898" y2="53.86"/>
	<line style="fill:none;stroke:#000000;stroke-miterlimit:1;" x1="186.898" y1="53.86" x2="188.143" y2="55.417"/>
	<line style="fill:none;stroke:#000000;stroke-miterlimit:1;" x1="188.143" y1="55.417" x2="191.256" y2="58.841"/>
	<line style="fill:none;stroke:#000000;stroke-miterlimit:1;" x1="191.256" y1="58.841" x2="194.369" y2="61.954"/>
	<line style="fill:none;stroke:#000000;stroke-miterlimit:1;" x1="194.369" y1="61.954" x2="197.172" y2="64.133"/>
	<line style="fill:none;stroke:#000000;stroke-miterlimit:1;" x1="197.172" y1="64.133" x2="200.596" y2="66.001"/>
	<line style="fill:none;stroke:#000000;stroke-miterlimit:1;" x1="200.596" y1="66.001" x2="204.332" y2="67.87"/>
	<line style="fill:none;stroke:#000000;stroke-miterlimit:1;" x1="204.332" y1="67.87" x2="208.068" y2="68.803"/>
	<line style="fill:none;stroke:#000000;stroke-miterlimit:1;" x1="208.068" y1="68.803" x2="211.182" y2="69.737"/>
	<line style="fill:none;stroke:#000000;stroke-miterlimit:1;" x1="211.182" y1="69.737" x2="214.918" y2="69.737"/>
	<line style="fill:none;stroke:#000000;stroke-miterlimit:1;" x1="214.918" y1="69.737" x2="218.654" y2="70.049"/>
	<line style="fill:none;stroke:#000000;stroke-miterlimit:1;" x1="218.654" y1="70.049" x2="223.012" y2="69.426"/>
	<line style="fill:none;stroke:#000000;stroke-miterlimit:1;" x1="223.012" y1="69.426" x2="226.125" y2="68.803"/>
	<line style="fill:none;stroke:#000000;stroke-miterlimit:1;" x1="226.125" y1="68.803" x2="229.861" y2="67.247"/>
	<line style="fill:none;stroke:#000000;stroke-miterlimit:1;" x1="229.861" y1="67.247" x2="233.598" y2="65.379"/>
	<line style="fill:none;stroke:#000000;stroke-miterlimit:1;" x1="233.598" y1="65.379" x2="236.088" y2="64.133"/>
	<line style="fill:none;stroke:#000000;stroke-miterlimit:1;" x1="236.088" y1="64.133" x2="238.891" y2="61.643"/>
	<line style="fill:none;stroke:#000000;stroke-miterlimit:1;" x1="238.891" y1="61.643" x2="241.691" y2="59.152"/>
	<line style="fill:none;stroke:#000000;stroke-miterlimit:1;" x1="241.691" y1="59.152" x2="244.494" y2="56.35"/>
	<line style="fill:none;stroke:#000000;stroke-miterlimit:1;" x1="244.494" y1="56.35" x2="246.674" y2="52.926"/>
	<line style="fill:none;stroke:#000000;stroke-miterlimit:1;" x1="246.674" y1="52.926" x2="248.852" y2="49.812"/>
	<line style="fill:none;stroke:#000000;stroke-miterlimit:1;" x1="248.852" y1="49.812" x2="250.408" y2="46.699"/>
	<line style="fill:none;stroke:#000000;stroke-miterlimit:1;" x1="250.408" y1="46.699" x2="251.344" y2="42.963"/>
	<line style="fill:none;stroke:#000000;stroke-miterlimit:1;" x1="251.344" y1="42.963" x2="251.654" y2="39.539"/>
	<line style="fill:none;stroke:#000000;stroke-miterlimit:1;" x1="251.654" y1="39.539" x2="252.277" y2="35.491"/>
	<line style="fill:none;stroke:#000000;stroke-miterlimit:1;" x1="252.277" y1="35.491" x2="251.965" y2="32.067"/>
	<line style="fill:none;stroke:#000000;stroke-miterlimit:1;" x1="251.965" y1="32.067" x2="251.654" y2="28.02"/>
	<line style="fill:none;stroke:#000000;stroke-miterlimit:1;" x1="251.654" y1="28.02" x2="250.721" y2="24.595"/>
	<line style="fill:none;stroke:#000000;stroke-miterlimit:1;" x1="250.721" y1="24.595" x2="249.475" y2="21.481"/>
	<line style="fill:none;stroke:#000000;stroke-miterlimit:1;" x1="249.475" y1="21.481" x2="247.918" y2="17.434"/>
	<line style="fill:none;stroke:#000000;stroke-miterlimit:1;" x1="247.918" y1="17.434" x2="245.738" y2="14.321"/>
	<line style="fill:none;stroke:#000000;stroke-miterlimit:1;" x1="245.738" y1="14.321" x2="243.561" y2="11.831"/>
	<line style="fill:none;stroke:#000000;stroke-miterlimit:1;" x1="243.561" y1="11.831" x2="241.068" y2="8.717"/>
	<line style="fill:none;stroke:#000000;stroke-miterlimit:1;" x1="241.068" y1="8.717" x2="237.955" y2="6.538"/>
	<line style="fill:none;stroke:#000000;stroke-miterlimit:1;" x1="237.955" y1="6.538" x2="234.842" y2="4.358"/>
	<line style="fill:none;stroke:#000000;stroke-miterlimit:1;" x1="234.842" y1="4.358" x2="231.418" y2="2.802"/>
	<line style="fill:none;stroke:#000000;stroke-miterlimit:1;" x1="161.486" y1="92.074" x2="161.486" y2="148.113"/>
	<line style="fill:none;stroke:#000000;stroke-miterlimit:1;" x1="161.486" y1="148.113" x2="171.449" y2="148.113"/>
	<line style="fill:none;stroke:#000000;stroke-miterlimit:1;" x1="171.449" y1="148.113" x2="171.449" y2="92.074"/>
	<line style="fill:none;stroke:#000000;stroke-miterlimit:1;" x1="171.449" y1="92.074" x2="161.486" y2="92.074"/>
	<line style="fill:none;stroke:#000000;stroke-miterlimit:1;" x1="211.299" y1="92.074" x2="211.299" y2="148.113"/>
	<line style="fill:none;stroke:#000000;stroke-miterlimit:1;" x1="211.299" y1="148.113" x2="221.572" y2="148.113"/>
	<line style="fill:none;stroke:#000000;stroke-miterlimit:1;" x1="221.572" y1="148.113" x2="221.572" y2="92.074"/>
	<line style="fill:none;stroke:#000000;stroke-miterlimit:1;" x1="221.572" y1="92.074" x2="211.299" y2="92.074"/>
	<line style="fill:none;stroke:#000000;stroke-miterlimit:1;" x1="261.734" y1="92.074" x2="261.734" y2="148.113"/>
	<line style="fill:none;stroke:#000000;stroke-miterlimit:1;" x1="261.734" y1="148.113" x2="271.695" y2="148.113"/>
	<line style="fill:none;stroke:#000000;stroke-miterlimit:1;" x1="271.695" y1="148.113" x2="271.695" y2="92.074"/>
	<line style="fill:none;stroke:#000000;stroke-miterlimit:1;" x1="271.695" y1="92.074" x2="261.734" y2="92.074"/>
</g>
</svg>
