<?xml version="1.0" encoding="iso-8859-1"?>
<!-- Generator: Adobe Illustrator 16.0.1, SVG Export Plug-In . SVG Version: 6.00 Build 0)  -->
<!DOCTYPE svg PUBLIC "-//W3C//DTD SVG 1.1//EN" "http://www.w3.org/Graphics/SVG/1.1/DTD/svg11.dtd">
<svg version="1.1" id="Ebene_1" xmlns="http://www.w3.org/2000/svg" xmlns:xlink="http://www.w3.org/1999/xlink" x="0px" y="0px"
	 width="206.561px" height="149.184px" viewBox="0 0 206.561 149.184" style="enable-background:new 0 0 206.561 149.184;"
	 xml:space="preserve">
<g>
	<line style="fill:none;stroke:#000000;stroke-miterlimit:1;" x1="52.663" y1="38.592" x2="48.713" y2="42.871"/>
	<line style="fill:none;stroke:#000000;stroke-miterlimit:1;" x1="48.713" y1="42.871" x2="47.397" y2="48.137"/>
	<line style="fill:none;stroke:#000000;stroke-miterlimit:1;" x1="47.397" y1="48.137" x2="48.384" y2="53.403"/>
	<line style="fill:none;stroke:#000000;stroke-miterlimit:1;" x1="48.384" y1="53.403" x2="50.688" y2="57.353"/>
	<line style="fill:none;stroke:#000000;stroke-miterlimit:1;" x1="50.688" y1="57.353" x2="56.942" y2="63.277"/>
	<line style="fill:none;stroke:#000000;stroke-miterlimit:1;" x1="56.942" y1="63.277" x2="67.804" y2="69.202"/>
	<line style="fill:none;stroke:#000000;stroke-miterlimit:1;" x1="67.804" y1="69.202" x2="86.565" y2="76.114"/>
	<line style="fill:none;stroke:#000000;stroke-miterlimit:1;" x1="86.565" y1="76.114" x2="108.946" y2="80.722"/>
	<line style="fill:none;stroke:#000000;stroke-miterlimit:1;" x1="108.946" y1="80.722" x2="131.328" y2="83.355"/>
	<line style="fill:none;stroke:#000000;stroke-miterlimit:1;" x1="131.328" y1="83.355" x2="138.569" y2="84.014"/>
	<line style="fill:none;stroke:#000000;stroke-miterlimit:1;" x1="138.569" y1="84.014" x2="143.178" y2="84.343"/>
	<line style="fill:none;stroke:#000000;stroke-miterlimit:1;" x1="143.178" y1="84.343" x2="145.481" y2="83.685"/>
	<line style="fill:none;stroke:#000000;stroke-miterlimit:1;" x1="145.481" y1="83.685" x2="146.798" y2="82.368"/>
	<line style="fill:none;stroke:#000000;stroke-miterlimit:1;" x1="146.798" y1="82.368" x2="146.798" y2="80.722"/>
	<line style="fill:none;stroke:#000000;stroke-miterlimit:1;" x1="146.798" y1="80.722" x2="145.152" y2="79.405"/>
	<line style="fill:none;stroke:#000000;stroke-miterlimit:1;" x1="145.152" y1="79.405" x2="136.266" y2="77.76"/>
	<line style="fill:none;stroke:#000000;stroke-miterlimit:1;" x1="136.266" y1="77.76" x2="130.67" y2="75.127"/>
	<line style="fill:none;stroke:#000000;stroke-miterlimit:1;" x1="130.67" y1="75.127" x2="127.379" y2="72.823"/>
	<line style="fill:none;stroke:#000000;stroke-miterlimit:1;" x1="127.379" y1="72.823" x2="119.479" y2="66.24"/>
	<line style="fill:none;stroke:#000000;stroke-miterlimit:1;" x1="119.479" y1="66.24" x2="107.63" y2="55.378"/>
	<line style="fill:none;stroke:#000000;stroke-miterlimit:1;" x1="107.63" y1="55.378" x2="95.781" y2="46.162"/>
	<line style="fill:none;stroke:#000000;stroke-miterlimit:1;" x1="95.781" y1="46.162" x2="84.919" y2="40.237"/>
	<line style="fill:none;stroke:#000000;stroke-miterlimit:1;" x1="84.919" y1="40.237" x2="74.387" y2="35.958"/>
	<line style="fill:none;stroke:#000000;stroke-miterlimit:1;" x1="74.387" y1="35.958" x2="66.487" y2="33.655"/>
	<line style="fill:none;stroke:#000000;stroke-miterlimit:1;" x1="66.487" y1="33.655" x2="59.575" y2="33.326"/>
	<line style="fill:none;stroke:#000000;stroke-miterlimit:1;" x1="59.575" y1="33.326" x2="53.65" y2="34.642"/>
	<line style="fill:none;stroke:#000000;stroke-miterlimit:1;" x1="53.65" y1="34.642" x2="49.042" y2="36.946"/>
	<line style="fill:none;stroke:#000000;stroke-miterlimit:1;" x1="49.042" y1="36.946" x2="45.751" y2="38.921"/>
	<line style="fill:none;stroke:#000000;stroke-miterlimit:1;" x1="45.751" y1="38.921" x2="44.105" y2="40.567"/>
	<line style="fill:none;stroke:#000000;stroke-miterlimit:1;" x1="44.105" y1="40.567" x2="41.801" y2="40.896"/>
	<line style="fill:none;stroke:#000000;stroke-miterlimit:1;" x1="41.801" y1="40.896" x2="39.168" y2="40.237"/>
	<line style="fill:none;stroke:#000000;stroke-miterlimit:1;" x1="39.168" y1="40.237" x2="38.839" y2="37.934"/>
	<line style="fill:none;stroke:#000000;stroke-miterlimit:1;" x1="38.839" y1="37.934" x2="51.676" y2="27.401"/>
	<line style="fill:none;stroke:#000000;stroke-miterlimit:1;" x1="51.676" y1="27.401" x2="54.309" y2="24.438"/>
	<line style="fill:none;stroke:#000000;stroke-miterlimit:1;" x1="54.309" y1="24.438" x2="55.955" y2="20.818"/>
	<line style="fill:none;stroke:#000000;stroke-miterlimit:1;" x1="55.955" y1="20.818" x2="56.284" y2="17.527"/>
	<line style="fill:none;stroke:#000000;stroke-miterlimit:1;" x1="56.284" y1="17.527" x2="55.955" y2="14.564"/>
	<line style="fill:none;stroke:#000000;stroke-miterlimit:1;" x1="52.992" y1="12.26" x2="66.487" y2="18.514"/>
	<line style="fill:none;stroke:#000000;stroke-miterlimit:1;" x1="66.487" y1="18.514" x2="80.64" y2="23.78"/>
	<line style="fill:none;stroke:#000000;stroke-miterlimit:1;" x1="80.64" y1="23.78" x2="93.147" y2="26.414"/>
	<line style="fill:none;stroke:#000000;stroke-miterlimit:1;" x1="93.147" y1="26.414" x2="106.313" y2="27.401"/>
	<line style="fill:none;stroke:#000000;stroke-miterlimit:1;" x1="106.313" y1="27.401" x2="116.188" y2="27.73"/>
	<line style="fill:none;stroke:#000000;stroke-miterlimit:1;" x1="116.188" y1="27.73" x2="123.429" y2="26.743"/>
	<line style="fill:none;stroke:#000000;stroke-miterlimit:1;" x1="123.429" y1="26.743" x2="113.226" y2="25.097"/>
	<line style="fill:none;stroke:#000000;stroke-miterlimit:1;" x1="113.226" y1="25.097" x2="101.705" y2="24.109"/>
	<line style="fill:none;stroke:#000000;stroke-miterlimit:1;" x1="101.705" y1="24.109" x2="88.869" y2="22.135"/>
	<line style="fill:none;stroke:#000000;stroke-miterlimit:1;" x1="88.869" y1="22.135" x2="79.653" y2="19.501"/>
	<line style="fill:none;stroke:#000000;stroke-miterlimit:1;" x1="79.653" y1="19.501" x2="68.462" y2="15.552"/>
	<line style="fill:none;stroke:#000000;stroke-miterlimit:1;" x1="68.462" y1="15.552" x2="59.904" y2="11.931"/>
	<line style="fill:none;stroke:#000000;stroke-miterlimit:1;" x1="59.904" y1="11.931" x2="54.638" y2="8.311"/>
	<line style="fill:none;stroke:#000000;stroke-miterlimit:1;" x1="54.638" y1="8.311" x2="72.412" y2="15.223"/>
	<line style="fill:none;stroke:#000000;stroke-miterlimit:1;" x1="72.412" y1="15.223" x2="83.603" y2="17.198"/>
	<line style="fill:none;stroke:#000000;stroke-miterlimit:1;" x1="83.603" y1="17.198" x2="89.527" y2="18.185"/>
	<line style="fill:none;stroke:#000000;stroke-miterlimit:1;" x1="89.527" y1="18.185" x2="102.035" y2="19.172"/>
	<line style="fill:none;stroke:#000000;stroke-miterlimit:1;" x1="102.035" y1="19.172" x2="113.555" y2="18.514"/>
	<line style="fill:none;stroke:#000000;stroke-miterlimit:1;" x1="113.555" y1="18.514" x2="120.467" y2="17.856"/>
	<line style="fill:none;stroke:#000000;stroke-miterlimit:1;" x1="120.467" y1="17.856" x2="126.062" y2="17.527"/>
	<line style="fill:none;stroke:#000000;stroke-miterlimit:1;" x1="126.062" y1="17.527" x2="113.884" y2="16.539"/>
	<line style="fill:none;stroke:#000000;stroke-miterlimit:1;" x1="113.884" y1="16.539" x2="103.351" y2="15.552"/>
	<line style="fill:none;stroke:#000000;stroke-miterlimit:1;" x1="103.351" y1="15.552" x2="93.147" y2="15.223"/>
	<line style="fill:none;stroke:#000000;stroke-miterlimit:1;" x1="93.147" y1="15.223" x2="84.261" y2="13.906"/>
	<line style="fill:none;stroke:#000000;stroke-miterlimit:1;" x1="84.261" y1="13.906" x2="73.399" y2="11.602"/>
	<line style="fill:none;stroke:#000000;stroke-miterlimit:1;" x1="73.399" y1="11.602" x2="63.525" y2="8.64"/>
	<line style="fill:none;stroke:#000000;stroke-miterlimit:1;" x1="63.525" y1="8.64" x2="56.942" y2="5.678"/>
	<line style="fill:none;stroke:#000000;stroke-miterlimit:1;" x1="56.942" y1="5.678" x2="52.334" y2="2.715"/>
	<line style="fill:none;stroke:#000000;stroke-miterlimit:1;" x1="52.334" y1="2.715" x2="48.713" y2="1.398"/>
	<line style="fill:none;stroke:#000000;stroke-miterlimit:1;" x1="48.713" y1="1.398" x2="45.422" y2="1.069"/>
	<line style="fill:none;stroke:#000000;stroke-miterlimit:1;" x1="45.422" y1="1.069" x2="38.181" y2="2.057"/>
	<line style="fill:none;stroke:#000000;stroke-miterlimit:1;" x1="38.181" y1="2.057" x2="32.585" y2="4.032"/>
	<line style="fill:none;stroke:#000000;stroke-miterlimit:1;" x1="32.585" y1="4.032" x2="30.281" y2="5.678"/>
	<line style="fill:none;stroke:#000000;stroke-miterlimit:1;" x1="30.281" y1="5.678" x2="28.965" y2="7.981"/>
	<line style="fill:none;stroke:#000000;stroke-miterlimit:1;" x1="28.965" y1="7.981" x2="28.636" y2="8.64"/>
	<line style="fill:none;stroke:#000000;stroke-miterlimit:1;" x1="28.636" y1="8.64" x2="28.636" y2="11.273"/>
	<line style="fill:none;stroke:#000000;stroke-miterlimit:1;" x1="28.636" y1="11.273" x2="30.281" y2="13.906"/>
	<line style="fill:none;stroke:#000000;stroke-miterlimit:1;" x1="30.281" y1="13.906" x2="32.256" y2="14.564"/>
	<line style="fill:none;stroke:#000000;stroke-miterlimit:1;" x1="32.256" y1="14.564" x2="34.231" y2="15.223"/>
	<line style="fill:none;stroke:#000000;stroke-miterlimit:1;" x1="34.231" y1="15.223" x2="37.852" y2="16.21"/>
	<line style="fill:none;stroke:#000000;stroke-miterlimit:1;" x1="37.852" y1="16.21" x2="41.801" y2="16.21"/>
	<line style="fill:none;stroke:#000000;stroke-miterlimit:1;" x1="41.801" y1="16.21" x2="44.105" y2="15.223"/>
	<line style="fill:none;stroke:#000000;stroke-miterlimit:1;" x1="44.105" y1="15.223" x2="46.08" y2="14.894"/>
	<line style="fill:none;stroke:#000000;stroke-miterlimit:1;" x1="46.08" y1="14.894" x2="47.067" y2="16.539"/>
	<line style="fill:none;stroke:#000000;stroke-miterlimit:1;" x1="47.067" y1="16.539" x2="47.397" y2="19.501"/>
	<line style="fill:none;stroke:#000000;stroke-miterlimit:1;" x1="47.397" y1="19.501" x2="43.776" y2="23.78"/>
	<line style="fill:none;stroke:#000000;stroke-miterlimit:1;" x1="43.776" y1="23.78" x2="37.852" y2="28.059"/>
	<line style="fill:none;stroke:#000000;stroke-miterlimit:1;" x1="37.852" y1="28.059" x2="32.256" y2="33.326"/>
	<line style="fill:none;stroke:#000000;stroke-miterlimit:1;" x1="32.256" y1="33.326" x2="29.623" y2="36.946"/>
	<line style="fill:none;stroke:#000000;stroke-miterlimit:1;" x1="29.623" y1="36.946" x2="27.648" y2="39.908"/>
	<line style="fill:none;stroke:#000000;stroke-miterlimit:1;" x1="27.648" y1="39.908" x2="26.661" y2="45.175"/>
	<line style="fill:none;stroke:#000000;stroke-miterlimit:1;" x1="26.661" y1="45.175" x2="27.319" y2="48.137"/>
	<line style="fill:none;stroke:#000000;stroke-miterlimit:1;" x1="27.319" y1="48.137" x2="31.269" y2="54.062"/>
	<line style="fill:none;stroke:#000000;stroke-miterlimit:1;" x1="31.269" y1="54.062" x2="41.472" y2="65.252"/>
	<line style="fill:none;stroke:#000000;stroke-miterlimit:1;" x1="41.472" y1="65.252" x2="47.726" y2="70.848"/>
	<line style="fill:none;stroke:#000000;stroke-miterlimit:1;" x1="47.726" y1="70.848" x2="54.967" y2="76.114"/>
	<line style="fill:none;stroke:#000000;stroke-miterlimit:1;" x1="54.967" y1="76.114" x2="65.5" y2="80.722"/>
	<line style="fill:none;stroke:#000000;stroke-miterlimit:1;" x1="65.5" y1="80.722" x2="71.753" y2="89.938"/>
	<line style="fill:none;stroke:#000000;stroke-miterlimit:1;" x1="71.753" y1="89.938" x2="78.336" y2="97.509"/>
	<line style="fill:none;stroke:#000000;stroke-miterlimit:1;" x1="78.336" y1="97.509" x2="82.615" y2="102.116"/>
	<line style="fill:none;stroke:#000000;stroke-miterlimit:1;" x1="82.615" y1="102.116" x2="83.932" y2="105.079"/>
	<line style="fill:none;stroke:#000000;stroke-miterlimit:1;" x1="83.932" y1="105.079" x2="85.906" y2="126.473"/>
	<line style="fill:none;stroke:#000000;stroke-miterlimit:1;" x1="85.906" y1="126.473" x2="85.906" y2="140.297"/>
	<line style="fill:none;stroke:#000000;stroke-miterlimit:1;" x1="85.906" y1="140.297" x2="85.248" y2="142.601"/>
	<line style="fill:none;stroke:#000000;stroke-miterlimit:1;" x1="85.248" y1="142.601" x2="82.944" y2="143.259"/>
	<line style="fill:none;stroke:#000000;stroke-miterlimit:1;" x1="82.944" y1="143.259" x2="68.791" y2="145.234"/>
	<line style="fill:none;stroke:#000000;stroke-miterlimit:1;" x1="68.791" y1="145.234" x2="67.804" y2="145.563"/>
	<line style="fill:none;stroke:#000000;stroke-miterlimit:1;" x1="67.804" y1="145.563" x2="65.829" y2="145.893"/>
	<line style="fill:none;stroke:#000000;stroke-miterlimit:1;" x1="65.829" y1="145.893" x2="64.841" y2="147.209"/>
	<line style="fill:none;stroke:#000000;stroke-miterlimit:1;" x1="64.841" y1="147.209" x2="64.841" y2="149.184"/>
	<line style="fill:none;stroke:#000000;stroke-miterlimit:1;" x1="64.841" y1="149.184" x2="66.816" y2="148.196"/>
	<line style="fill:none;stroke:#000000;stroke-miterlimit:1;" x1="66.816" y1="148.196" x2="69.12" y2="148.854"/>
	<line style="fill:none;stroke:#000000;stroke-miterlimit:1;" x1="78.666" y1="145.234" x2="70.437" y2="146.551"/>
	<line style="fill:none;stroke:#000000;stroke-miterlimit:1;" x1="70.437" y1="146.551" x2="69.12" y2="147.538"/>
	<line style="fill:none;stroke:#000000;stroke-miterlimit:1;" x1="69.12" y1="147.538" x2="69.449" y2="149.184"/>
	<line style="fill:none;stroke:#000000;stroke-miterlimit:1;" x1="69.449" y1="149.184" x2="72.083" y2="147.867"/>
	<line style="fill:none;stroke:#000000;stroke-miterlimit:1;" x1="72.083" y1="147.867" x2="74.057" y2="149.184"/>
	<line style="fill:none;stroke:#000000;stroke-miterlimit:1;" x1="74.057" y1="149.184" x2="87.223" y2="147.538"/>
	<line style="fill:none;stroke:#000000;stroke-miterlimit:1;" x1="87.223" y1="147.538" x2="97.426" y2="149.184"/>
	<line style="fill:none;stroke:#000000;stroke-miterlimit:1;" x1="97.426" y1="149.184" x2="97.756" y2="147.538"/>
	<line style="fill:none;stroke:#000000;stroke-miterlimit:1;" x1="97.756" y1="147.538" x2="97.097" y2="145.893"/>
	<line style="fill:none;stroke:#000000;stroke-miterlimit:1;" x1="97.097" y1="145.893" x2="94.464" y2="145.234"/>
	<line style="fill:none;stroke:#000000;stroke-miterlimit:1;" x1="94.464" y1="145.234" x2="91.502" y2="144.247"/>
	<line style="fill:none;stroke:#000000;stroke-miterlimit:1;" x1="91.502" y1="144.247" x2="90.515" y2="143.918"/>
	<line style="fill:none;stroke:#000000;stroke-miterlimit:1;" x1="90.515" y1="143.918" x2="89.527" y2="141.942"/>
	<line style="fill:none;stroke:#000000;stroke-miterlimit:1;" x1="89.527" y1="141.942" x2="89.198" y2="108.041"/>
	<line style="fill:none;stroke:#000000;stroke-miterlimit:1;" x1="89.198" y1="108.041" x2="89.856" y2="104.091"/>
	<line style="fill:none;stroke:#000000;stroke-miterlimit:1;" x1="89.856" y1="104.091" x2="89.856" y2="102.774"/>
	<line style="fill:none;stroke:#000000;stroke-miterlimit:1;" x1="89.856" y1="102.774" x2="87.552" y2="98.496"/>
	<line style="fill:none;stroke:#000000;stroke-miterlimit:1;" x1="87.552" y1="98.496" x2="85.248" y2="94.546"/>
	<line style="fill:none;stroke:#000000;stroke-miterlimit:1;" x1="85.248" y1="94.546" x2="77.678" y2="82.368"/>
	<line style="fill:none;stroke:#000000;stroke-miterlimit:1;" x1="80.64" y1="85.988" x2="92.489" y2="87.305"/>
	<line style="fill:none;stroke:#000000;stroke-miterlimit:1;" x1="92.489" y1="87.305" x2="102.364" y2="86.976"/>
	<line style="fill:none;stroke:#000000;stroke-miterlimit:1;" x1="102.364" y1="86.976" x2="114.871" y2="85.659"/>
	<line style="fill:none;stroke:#000000;stroke-miterlimit:1;" x1="114.871" y1="85.659" x2="121.125" y2="91.255"/>
	<line style="fill:none;stroke:#000000;stroke-miterlimit:1;" x1="121.125" y1="91.255" x2="128.695" y2="98.167"/>
	<line style="fill:none;stroke:#000000;stroke-miterlimit:1;" x1="128.695" y1="98.167" x2="132.315" y2="98.496"/>
	<line style="fill:none;stroke:#000000;stroke-miterlimit:1;" x1="132.315" y1="98.496" x2="135.937" y2="97.509"/>
	<line style="fill:none;stroke:#000000;stroke-miterlimit:1;" x1="135.937" y1="97.509" x2="139.886" y2="94.217"/>
	<line style="fill:none;stroke:#000000;stroke-miterlimit:1;" x1="139.886" y1="94.217" x2="140.544" y2="91.584"/>
	<line style="fill:none;stroke:#000000;stroke-miterlimit:1;" x1="140.544" y1="91.584" x2="132.645" y2="83.355"/>
	<line style="fill:none;stroke:#000000;stroke-miterlimit:1;" x1="28.636" y1="8.311" x2="0" y2="25.755"/>
	<line style="fill:none;stroke:#000000;stroke-miterlimit:1;" x1="0" y1="25.755" x2="32.915" y2="14.894"/>
	<line style="fill:none;stroke:#000000;stroke-miterlimit:1;" x1="28.965" y1="12.918" x2="0" y2="25.755"/>
	<line style="fill:none;stroke:#000000;stroke-miterlimit:1;" x1="35.218" y1="7.652" x2="33.573" y2="8.64"/>
	<line style="fill:none;stroke:#000000;stroke-miterlimit:1;" x1="33.573" y1="8.64" x2="34.56" y2="10.286"/>
	<line style="fill:none;stroke:#000000;stroke-miterlimit:1;" x1="34.56" y1="10.286" x2="36.206" y2="9.627"/>
	<line style="fill:none;stroke:#000000;stroke-miterlimit:1;" x1="36.206" y1="9.627" x2="35.548" y2="8.311"/>
	<line style="fill:none;stroke:#000000;stroke-miterlimit:1;" x1="98.414" y1="146.222" x2="101.047" y2="146.88"/>
	<line style="fill:none;stroke:#000000;stroke-miterlimit:1;" x1="101.047" y1="146.88" x2="102.364" y2="147.867"/>
	<line style="fill:none;stroke:#000000;stroke-miterlimit:1;" x1="102.364" y1="147.867" x2="102.693" y2="148.525"/>
	<line style="fill:none;stroke:#000000;stroke-miterlimit:1;" x1="102.693" y1="148.525" x2="101.047" y2="149.184"/>
	<line style="fill:none;stroke:#000000;stroke-miterlimit:1;" x1="101.047" y1="149.184" x2="98.743" y2="148.854"/>
	<line style="fill:none;stroke:#000000;stroke-miterlimit:1;" x1="49.042" y1="72.165" x2="55.955" y2="85.33"/>
	<line style="fill:none;stroke:#000000;stroke-miterlimit:1;" x1="55.955" y1="85.33" x2="63.854" y2="97.18"/>
	<line style="fill:none;stroke:#000000;stroke-miterlimit:1;" x1="63.854" y1="97.18" x2="64.512" y2="100.142"/>
	<line style="fill:none;stroke:#000000;stroke-miterlimit:1;" x1="64.512" y1="100.142" x2="43.118" y2="138.651"/>
	<line style="fill:none;stroke:#000000;stroke-miterlimit:1;" x1="43.118" y1="138.651" x2="42.13" y2="140.297"/>
	<line style="fill:none;stroke:#000000;stroke-miterlimit:1;" x1="42.13" y1="140.297" x2="41.143" y2="141.942"/>
	<line style="fill:none;stroke:#000000;stroke-miterlimit:1;" x1="41.143" y1="141.942" x2="38.839" y2="142.601"/>
	<line style="fill:none;stroke:#000000;stroke-miterlimit:1;" x1="38.839" y1="142.601" x2="30.939" y2="143.918"/>
	<line style="fill:none;stroke:#000000;stroke-miterlimit:1;" x1="30.939" y1="143.918" x2="25.673" y2="144.905"/>
	<line style="fill:none;stroke:#000000;stroke-miterlimit:1;" x1="25.673" y1="144.905" x2="23.698" y2="145.893"/>
	<line style="fill:none;stroke:#000000;stroke-miterlimit:1;" x1="23.698" y1="145.893" x2="22.382" y2="146.222"/>
	<line style="fill:none;stroke:#000000;stroke-miterlimit:1;" x1="22.382" y1="146.222" x2="20.407" y2="146.551"/>
	<line style="fill:none;stroke:#000000;stroke-miterlimit:1;" x1="20.407" y1="146.551" x2="19.749" y2="147.209"/>
	<line style="fill:none;stroke:#000000;stroke-miterlimit:1;" x1="19.749" y1="147.209" x2="19.09" y2="148.854"/>
	<line style="fill:none;stroke:#000000;stroke-miterlimit:1;" x1="19.09" y1="148.854" x2="21.065" y2="147.867"/>
	<line style="fill:none;stroke:#000000;stroke-miterlimit:1;" x1="21.065" y1="147.867" x2="23.369" y2="148.854"/>
	<line style="fill:none;stroke:#000000;stroke-miterlimit:1;" x1="26.99" y1="146.88" x2="25.673" y2="146.88"/>
	<line style="fill:none;stroke:#000000;stroke-miterlimit:1;" x1="25.673" y1="146.88" x2="24.028" y2="147.209"/>
	<line style="fill:none;stroke:#000000;stroke-miterlimit:1;" x1="24.028" y1="147.209" x2="23.369" y2="148.525"/>
	<line style="fill:none;stroke:#000000;stroke-miterlimit:1;" x1="23.369" y1="148.525" x2="24.028" y2="148.854"/>
	<line style="fill:none;stroke:#000000;stroke-miterlimit:1;" x1="24.028" y1="148.854" x2="26.002" y2="148.196"/>
	<line style="fill:none;stroke:#000000;stroke-miterlimit:1;" x1="27.319" y1="146.551" x2="29.623" y2="145.893"/>
	<line style="fill:none;stroke:#000000;stroke-miterlimit:1;" x1="29.623" y1="145.893" x2="34.889" y2="145.563"/>
	<line style="fill:none;stroke:#000000;stroke-miterlimit:1;" x1="26.332" y1="148.196" x2="28.965" y2="149.184"/>
	<line style="fill:none;stroke:#000000;stroke-miterlimit:1;" x1="28.965" y1="149.184" x2="41.143" y2="147.867"/>
	<line style="fill:none;stroke:#000000;stroke-miterlimit:1;" x1="41.143" y1="147.867" x2="43.118" y2="147.538"/>
	<line style="fill:none;stroke:#000000;stroke-miterlimit:1;" x1="43.118" y1="147.538" x2="52.992" y2="149.184"/>
	<line style="fill:none;stroke:#000000;stroke-miterlimit:1;" x1="52.992" y1="149.184" x2="53.321" y2="147.538"/>
	<line style="fill:none;stroke:#000000;stroke-miterlimit:1;" x1="53.321" y1="147.538" x2="52.992" y2="145.893"/>
	<line style="fill:none;stroke:#000000;stroke-miterlimit:1;" x1="52.992" y1="145.893" x2="50.03" y2="145.234"/>
	<line style="fill:none;stroke:#000000;stroke-miterlimit:1;" x1="50.03" y1="145.234" x2="46.08" y2="143.918"/>
	<line style="fill:none;stroke:#000000;stroke-miterlimit:1;" x1="45.751" y1="143.589" x2="45.422" y2="141.942"/>
	<line style="fill:none;stroke:#000000;stroke-miterlimit:1;" x1="45.422" y1="141.942" x2="65.829" y2="108.041"/>
	<line style="fill:none;stroke:#000000;stroke-miterlimit:1;" x1="65.829" y1="108.041" x2="70.766" y2="99.154"/>
	<line style="fill:none;stroke:#000000;stroke-miterlimit:1;" x1="70.766" y1="99.154" x2="70.766" y2="96.191"/>
	<line style="fill:none;stroke:#000000;stroke-miterlimit:1;" x1="70.766" y1="96.191" x2="67.146" y2="83.685"/>
	<line style="fill:none;stroke:#000000;stroke-miterlimit:1;" x1="53.979" y1="146.222" x2="56.284" y2="146.88"/>
	<line style="fill:none;stroke:#000000;stroke-miterlimit:1;" x1="56.284" y1="146.88" x2="57.6" y2="147.867"/>
	<line style="fill:none;stroke:#000000;stroke-miterlimit:1;" x1="57.6" y1="147.867" x2="57.929" y2="148.525"/>
	<line style="fill:none;stroke:#000000;stroke-miterlimit:1;" x1="57.929" y1="148.525" x2="56.284" y2="149.184"/>
	<line style="fill:none;stroke:#000000;stroke-miterlimit:1;" x1="56.284" y1="149.184" x2="53.979" y2="148.854"/>
	<line style="fill:none;stroke:#000000;stroke-miterlimit:1;" x1="151.368" y1="51.416" x2="179" y2="24.847"/>
	<line style="fill:none;stroke:#000000;stroke-miterlimit:1;" x1="141.378" y1="47.59" x2="175.387" y2="15.07"/>
	<line style="fill:none;stroke:#000000;stroke-miterlimit:1;" x1="134.789" y1="40.576" x2="168.798" y2="8.056"/>
	<line style="fill:none;stroke:#000000;stroke-miterlimit:1;" x1="131.388" y1="30.586" x2="158.595" y2="4.655"/>
	<line style="fill:none;stroke:#000000;stroke-miterlimit:1;" x1="165.184" y1="6.143" x2="162.846" y2="5.505"/>
	<line style="fill:none;stroke:#000000;stroke-miterlimit:1;" x1="162.846" y1="5.505" x2="160.508" y2="4.655"/>
	<line style="fill:none;stroke:#000000;stroke-miterlimit:1;" x1="160.508" y1="4.655" x2="157.957" y2="4.229"/>
	<line style="fill:none;stroke:#000000;stroke-miterlimit:1;" x1="157.957" y1="4.229" x2="155.406" y2="4.229"/>
	<line style="fill:none;stroke:#000000;stroke-miterlimit:1;" x1="155.406" y1="4.229" x2="152.644" y2="4.442"/>
	<line style="fill:none;stroke:#000000;stroke-miterlimit:1;" x1="152.644" y1="4.442" x2="150.306" y2="4.655"/>
	<line style="fill:none;stroke:#000000;stroke-miterlimit:1;" x1="150.306" y1="4.655" x2="147.755" y2="5.505"/>
	<line style="fill:none;stroke:#000000;stroke-miterlimit:1;" x1="147.755" y1="5.505" x2="145.417" y2="6.355"/>
	<line style="fill:none;stroke:#000000;stroke-miterlimit:1;" x1="145.417" y1="6.355" x2="143.078" y2="7.418"/>
	<line style="fill:none;stroke:#000000;stroke-miterlimit:1;" x1="143.078" y1="7.418" x2="140.953" y2="8.906"/>
	<line style="fill:none;stroke:#000000;stroke-miterlimit:1;" x1="140.953" y1="8.906" x2="139.253" y2="10.394"/>
	<line style="fill:none;stroke:#000000;stroke-miterlimit:1;" x1="139.253" y1="10.394" x2="137.552" y2="12.094"/>
	<line style="fill:none;stroke:#000000;stroke-miterlimit:1;" x1="137.552" y1="12.094" x2="136.277" y2="13.582"/>
	<line style="fill:none;stroke:#000000;stroke-miterlimit:1;" x1="136.277" y1="13.582" x2="135.002" y2="15.495"/>
	<line style="fill:none;stroke:#000000;stroke-miterlimit:1;" x1="135.002" y1="15.495" x2="133.514" y2="18.258"/>
	<line style="fill:none;stroke:#000000;stroke-miterlimit:1;" x1="133.514" y1="18.258" x2="132.876" y2="20.383"/>
	<line style="fill:none;stroke:#000000;stroke-miterlimit:1;" x1="132.876" y1="20.383" x2="132.238" y2="22.722"/>
	<line style="fill:none;stroke:#000000;stroke-miterlimit:1;" x1="132.238" y1="22.722" x2="131.813" y2="25.06"/>
	<line style="fill:none;stroke:#000000;stroke-miterlimit:1;" x1="131.813" y1="25.06" x2="131.388" y2="27.823"/>
	<line style="fill:none;stroke:#000000;stroke-miterlimit:1;" x1="131.388" y1="27.823" x2="131.388" y2="30.161"/>
	<line style="fill:none;stroke:#000000;stroke-miterlimit:1;" x1="131.388" y1="30.161" x2="131.813" y2="32.924"/>
	<line style="fill:none;stroke:#000000;stroke-miterlimit:1;" x1="131.813" y1="32.924" x2="132.451" y2="35.262"/>
	<line style="fill:none;stroke:#000000;stroke-miterlimit:1;" x1="132.451" y1="35.262" x2="133.089" y2="37.388"/>
	<line style="fill:none;stroke:#000000;stroke-miterlimit:1;" x1="133.089" y1="37.388" x2="134.151" y2="39.726"/>
	<line style="fill:none;stroke:#000000;stroke-miterlimit:1;" x1="134.151" y1="39.726" x2="134.789" y2="41.001"/>
	<line style="fill:none;stroke:#000000;stroke-miterlimit:1;" x1="134.789" y1="41.001" x2="135.64" y2="42.064"/>
	<line style="fill:none;stroke:#000000;stroke-miterlimit:1;" x1="135.64" y1="42.064" x2="137.765" y2="44.402"/>
	<line style="fill:none;stroke:#000000;stroke-miterlimit:1;" x1="137.765" y1="44.402" x2="139.891" y2="46.527"/>
	<line style="fill:none;stroke:#000000;stroke-miterlimit:1;" x1="139.891" y1="46.527" x2="141.804" y2="48.015"/>
	<line style="fill:none;stroke:#000000;stroke-miterlimit:1;" x1="141.804" y1="48.015" x2="144.142" y2="49.291"/>
	<line style="fill:none;stroke:#000000;stroke-miterlimit:1;" x1="144.142" y1="49.291" x2="146.692" y2="50.566"/>
	<line style="fill:none;stroke:#000000;stroke-miterlimit:1;" x1="146.692" y1="50.566" x2="149.242" y2="51.204"/>
	<line style="fill:none;stroke:#000000;stroke-miterlimit:1;" x1="149.242" y1="51.204" x2="151.368" y2="51.841"/>
	<line style="fill:none;stroke:#000000;stroke-miterlimit:1;" x1="151.368" y1="51.841" x2="153.919" y2="51.841"/>
	<line style="fill:none;stroke:#000000;stroke-miterlimit:1;" x1="153.919" y1="51.841" x2="156.47" y2="52.054"/>
	<line style="fill:none;stroke:#000000;stroke-miterlimit:1;" x1="156.47" y1="52.054" x2="159.445" y2="51.629"/>
	<line style="fill:none;stroke:#000000;stroke-miterlimit:1;" x1="159.445" y1="51.629" x2="161.57" y2="51.204"/>
	<line style="fill:none;stroke:#000000;stroke-miterlimit:1;" x1="161.57" y1="51.204" x2="164.121" y2="50.141"/>
	<line style="fill:none;stroke:#000000;stroke-miterlimit:1;" x1="164.121" y1="50.141" x2="166.672" y2="48.866"/>
	<line style="fill:none;stroke:#000000;stroke-miterlimit:1;" x1="166.672" y1="48.866" x2="168.372" y2="48.015"/>
	<line style="fill:none;stroke:#000000;stroke-miterlimit:1;" x1="168.372" y1="48.015" x2="170.285" y2="46.315"/>
	<line style="fill:none;stroke:#000000;stroke-miterlimit:1;" x1="170.285" y1="46.315" x2="172.198" y2="44.614"/>
	<line style="fill:none;stroke:#000000;stroke-miterlimit:1;" x1="172.198" y1="44.614" x2="174.111" y2="42.702"/>
	<line style="fill:none;stroke:#000000;stroke-miterlimit:1;" x1="174.111" y1="42.702" x2="175.6" y2="40.363"/>
	<line style="fill:none;stroke:#000000;stroke-miterlimit:1;" x1="175.6" y1="40.363" x2="177.087" y2="38.238"/>
	<line style="fill:none;stroke:#000000;stroke-miterlimit:1;" x1="177.087" y1="38.238" x2="178.149" y2="36.112"/>
	<line style="fill:none;stroke:#000000;stroke-miterlimit:1;" x1="178.149" y1="36.112" x2="178.787" y2="33.562"/>
	<line style="fill:none;stroke:#000000;stroke-miterlimit:1;" x1="178.787" y1="33.562" x2="179" y2="31.224"/>
	<line style="fill:none;stroke:#000000;stroke-miterlimit:1;" x1="179" y1="31.224" x2="179.425" y2="28.46"/>
	<line style="fill:none;stroke:#000000;stroke-miterlimit:1;" x1="179.425" y1="28.46" x2="179.213" y2="26.123"/>
	<line style="fill:none;stroke:#000000;stroke-miterlimit:1;" x1="179.213" y1="26.123" x2="179" y2="23.359"/>
	<line style="fill:none;stroke:#000000;stroke-miterlimit:1;" x1="179" y1="23.359" x2="178.362" y2="21.021"/>
	<line style="fill:none;stroke:#000000;stroke-miterlimit:1;" x1="178.362" y1="21.021" x2="177.512" y2="18.896"/>
	<line style="fill:none;stroke:#000000;stroke-miterlimit:1;" x1="177.512" y1="18.896" x2="176.449" y2="16.132"/>
	<line style="fill:none;stroke:#000000;stroke-miterlimit:1;" x1="176.449" y1="16.132" x2="174.962" y2="14.007"/>
	<line style="fill:none;stroke:#000000;stroke-miterlimit:1;" x1="174.962" y1="14.007" x2="173.474" y2="12.307"/>
	<line style="fill:none;stroke:#000000;stroke-miterlimit:1;" x1="173.474" y1="12.307" x2="171.773" y2="10.181"/>
	<line style="fill:none;stroke:#000000;stroke-miterlimit:1;" x1="171.773" y1="10.181" x2="169.647" y2="8.693"/>
	<line style="fill:none;stroke:#000000;stroke-miterlimit:1;" x1="169.647" y1="8.693" x2="167.522" y2="7.205"/>
	<line style="fill:none;stroke:#000000;stroke-miterlimit:1;" x1="167.522" y1="7.205" x2="165.184" y2="6.143"/>
	<line style="fill:none;stroke:#000000;stroke-miterlimit:1;" x1="198.515" y1="110.445" x2="198.515" y2="148.114"/>
	<line style="fill:none;stroke:#000000;stroke-miterlimit:1;" x1="198.515" y1="148.114" x2="206.561" y2="148.114"/>
	<line style="fill:none;stroke:#000000;stroke-miterlimit:1;" x1="206.561" y1="148.114" x2="206.561" y2="110.445"/>
	<line style="fill:none;stroke:#000000;stroke-miterlimit:1;" x1="206.561" y1="110.445" x2="198.515" y2="110.445"/>
	<line style="fill:none;stroke:#000000;stroke-miterlimit:1;" x1="198.515" y1="54.125" x2="198.515" y2="92.16"/>
	<line style="fill:none;stroke:#000000;stroke-miterlimit:1;" x1="198.515" y1="92.16" x2="206.561" y2="92.16"/>
	<line style="fill:none;stroke:#000000;stroke-miterlimit:1;" x1="206.561" y1="92.16" x2="206.561" y2="54.125"/>
	<line style="fill:none;stroke:#000000;stroke-miterlimit:1;" x1="206.561" y1="54.125" x2="198.515" y2="54.125"/>
	<line style="fill:none;stroke:#000000;stroke-miterlimit:1;" x1="198.515" y1="0" x2="198.515" y2="38.034"/>
	<line style="fill:none;stroke:#000000;stroke-miterlimit:1;" x1="198.515" y1="38.034" x2="206.561" y2="38.034"/>
	<line style="fill:none;stroke:#000000;stroke-miterlimit:1;" x1="206.561" y1="38.034" x2="206.561" y2="0"/>
	<line style="fill:none;stroke:#000000;stroke-miterlimit:1;" x1="206.561" y1="0" x2="198.515" y2="0"/>
</g>
</svg>
