<?xml version="1.0" encoding="iso-8859-1"?>
<!-- Generator: Adobe Illustrator 16.0.1, SVG Export Plug-In . SVG Version: 6.00 Build 0)  -->
<!DOCTYPE svg PUBLIC "-//W3C//DTD SVG 1.1//EN" "http://www.w3.org/Graphics/SVG/1.1/DTD/svg11.dtd">
<svg version="1.1" id="Ebene_1" xmlns="http://www.w3.org/2000/svg" xmlns:xlink="http://www.w3.org/1999/xlink" x="0px" y="0px"
	 width="236.9px" height="149.102px" viewBox="0 0 236.9 149.102" style="enable-background:new 0 0 236.9 149.102;"
	 xml:space="preserve">
<g>
	<line style="fill:none;stroke:#000000;stroke-miterlimit:1;" x1="99.363" y1="103.086" x2="99.363" y2="89.342"/>
	<line style="fill:none;stroke:#000000;stroke-miterlimit:1;" x1="99.363" y1="89.342" x2="93.35" y2="89.055"/>
	<line style="fill:none;stroke:#000000;stroke-miterlimit:1;" x1="93.35" y1="89.055" x2="89.341" y2="87.908"/>
	<line style="fill:none;stroke:#000000;stroke-miterlimit:1;" x1="89.341" y1="87.908" x2="85.332" y2="86.191"/>
	<line style="fill:none;stroke:#000000;stroke-miterlimit:1;" x1="85.332" y1="86.191" x2="81.896" y2="83.9"/>
	<line style="fill:none;stroke:#000000;stroke-miterlimit:1;" x1="81.896" y1="83.9" x2="79.318" y2="81.609"/>
	<line style="fill:none;stroke:#000000;stroke-miterlimit:1;" x1="79.318" y1="81.609" x2="77.314" y2="78.459"/>
	<line style="fill:none;stroke:#000000;stroke-miterlimit:1;" x1="77.314" y1="78.459" x2="75.882" y2="75.31"/>
	<line style="fill:none;stroke:#000000;stroke-miterlimit:1;" x1="75.882" y1="75.31" x2="75.31" y2="71.301"/>
	<line style="fill:none;stroke:#000000;stroke-miterlimit:1;" x1="75.31" y1="71.301" x2="75.882" y2="67.005"/>
	<line style="fill:none;stroke:#000000;stroke-miterlimit:1;" x1="75.882" y1="67.005" x2="77.601" y2="60.992"/>
	<line style="fill:none;stroke:#000000;stroke-miterlimit:1;" x1="77.601" y1="60.992" x2="90.2" y2="35.221"/>
	<line style="fill:none;stroke:#000000;stroke-miterlimit:1;" x1="90.2" y1="35.221" x2="93.35" y2="27.489"/>
	<line style="fill:none;stroke:#000000;stroke-miterlimit:1;" x1="93.35" y1="27.489" x2="94.495" y2="23.48"/>
	<line style="fill:none;stroke:#000000;stroke-miterlimit:1;" x1="94.495" y1="23.48" x2="94.781" y2="19.758"/>
	<line style="fill:none;stroke:#000000;stroke-miterlimit:1;" x1="94.781" y1="19.758" x2="95.068" y2="16.036"/>
	<line style="fill:none;stroke:#000000;stroke-miterlimit:1;" x1="95.068" y1="16.036" x2="93.636" y2="11.74"/>
	<line style="fill:none;stroke:#000000;stroke-miterlimit:1;" x1="93.636" y1="11.74" x2="91.632" y2="8.018"/>
	<line style="fill:none;stroke:#000000;stroke-miterlimit:1;" x1="91.632" y1="8.018" x2="89.055" y2="5.154"/>
	<line style="fill:none;stroke:#000000;stroke-miterlimit:1;" x1="89.055" y1="5.154" x2="85.618" y2="2.863"/>
	<line style="fill:none;stroke:#000000;stroke-miterlimit:1;" x1="85.618" y1="2.863" x2="83.041" y2="1.718"/>
	<line style="fill:none;stroke:#000000;stroke-miterlimit:1;" x1="83.041" y1="1.718" x2="79.318" y2="0.859"/>
	<line style="fill:none;stroke:#000000;stroke-miterlimit:1;" x1="79.318" y1="0.859" x2="75.023" y2="0"/>
	<line style="fill:none;stroke:#000000;stroke-miterlimit:1;" x1="75.023" y1="0" x2="65.86" y2="0.573"/>
	<line style="fill:none;stroke:#000000;stroke-miterlimit:1;" x1="65.86" y1="0.573" x2="62.997" y2="0.859"/>
	<line style="fill:none;stroke:#000000;stroke-miterlimit:1;" x1="62.997" y1="0.859" x2="58.129" y2="2.577"/>
	<line style="fill:none;stroke:#000000;stroke-miterlimit:1;" x1="58.129" y1="2.577" x2="52.115" y2="6.586"/>
	<line style="fill:none;stroke:#000000;stroke-miterlimit:1;" x1="52.115" y1="6.586" x2="48.679" y2="9.449"/>
	<line style="fill:none;stroke:#000000;stroke-miterlimit:1;" x1="48.679" y1="9.449" x2="46.961" y2="10.881"/>
	<line style="fill:none;stroke:#000000;stroke-miterlimit:1;" x1="46.961" y1="10.881" x2="45.529" y2="11.74"/>
	<line style="fill:none;stroke:#000000;stroke-miterlimit:1;" x1="45.529" y1="11.74" x2="50.97" y2="20.617"/>
	<line style="fill:none;stroke:#000000;stroke-miterlimit:1;" x1="50.97" y1="20.617" x2="51.256" y2="28.921"/>
	<line style="fill:none;stroke:#000000;stroke-miterlimit:1;" x1="51.256" y1="28.921" x2="46.102" y2="28.062"/>
	<line style="fill:none;stroke:#000000;stroke-miterlimit:1;" x1="46.102" y1="28.062" x2="40.089" y2="28.062"/>
	<line style="fill:none;stroke:#000000;stroke-miterlimit:1;" x1="40.089" y1="28.062" x2="29.208" y2="28.062"/>
	<line style="fill:none;stroke:#000000;stroke-miterlimit:1;" x1="29.208" y1="28.062" x2="15.749" y2="28.921"/>
	<line style="fill:none;stroke:#000000;stroke-miterlimit:1;" x1="15.749" y1="28.921" x2="9.163" y2="30.353"/>
	<line style="fill:none;stroke:#000000;stroke-miterlimit:1;" x1="9.163" y1="30.353" x2="6.299" y2="32.357"/>
	<line style="fill:none;stroke:#000000;stroke-miterlimit:1;" x1="45.243" y1="12.026" x2="42.093" y2="13.172"/>
	<line style="fill:none;stroke:#000000;stroke-miterlimit:1;" x1="42.093" y1="13.172" x2="9.736" y2="20.331"/>
	<line style="fill:none;stroke:#000000;stroke-miterlimit:1;" x1="9.736" y1="20.331" x2="5.154" y2="22.335"/>
	<line style="fill:none;stroke:#000000;stroke-miterlimit:1;" x1="5.154" y1="22.335" x2="2.863" y2="24.626"/>
	<line style="fill:none;stroke:#000000;stroke-miterlimit:1;" x1="2.863" y1="24.626" x2="0.572" y2="28.635"/>
	<line style="fill:none;stroke:#000000;stroke-miterlimit:1;" x1="0.572" y1="28.635" x2="0.572" y2="31.785"/>
	<line style="fill:none;stroke:#000000;stroke-miterlimit:1;" x1="0.572" y1="31.785" x2="0" y2="34.362"/>
	<line style="fill:none;stroke:#000000;stroke-miterlimit:1;" x1="0" y1="34.362" x2="0.572" y2="36.08"/>
	<line style="fill:none;stroke:#000000;stroke-miterlimit:1;" x1="0.572" y1="36.08" x2="1.718" y2="36.652"/>
	<line style="fill:none;stroke:#000000;stroke-miterlimit:1;" x1="1.718" y1="36.652" x2="2.291" y2="36.652"/>
	<line style="fill:none;stroke:#000000;stroke-miterlimit:1;" x1="2.291" y1="36.652" x2="4.009" y2="36.08"/>
	<line style="fill:none;stroke:#000000;stroke-miterlimit:1;" x1="4.009" y1="36.08" x2="7.445" y2="29.78"/>
	<line style="fill:none;stroke:#000000;stroke-miterlimit:1;" x1="7.445" y1="29.78" x2="11.454" y2="26.917"/>
	<line style="fill:none;stroke:#000000;stroke-miterlimit:1;" x1="11.454" y1="26.917" x2="14.317" y2="25.485"/>
	<line style="fill:none;stroke:#000000;stroke-miterlimit:1;" x1="14.317" y1="25.485" x2="18.612" y2="24.339"/>
	<line style="fill:none;stroke:#000000;stroke-miterlimit:1;" x1="18.612" y1="24.339" x2="45.816" y2="20.044"/>
	<line style="fill:none;stroke:#000000;stroke-miterlimit:1;" x1="45.816" y1="20.044" x2="48.679" y2="20.331"/>
	<line style="fill:none;stroke:#000000;stroke-miterlimit:1;" x1="48.679" y1="20.331" x2="50.97" y2="21.189"/>
	<line style="fill:none;stroke:#000000;stroke-miterlimit:1;" x1="82.755" y1="1.718" x2="88.482" y2="1.718"/>
	<line style="fill:none;stroke:#000000;stroke-miterlimit:1;" x1="88.482" y1="1.718" x2="95.641" y2="3.436"/>
	<line style="fill:none;stroke:#000000;stroke-miterlimit:1;" x1="95.641" y1="3.436" x2="101.654" y2="5.727"/>
	<line style="fill:none;stroke:#000000;stroke-miterlimit:1;" x1="101.654" y1="5.727" x2="107.667" y2="9.163"/>
	<line style="fill:none;stroke:#000000;stroke-miterlimit:1;" x1="107.667" y1="9.163" x2="113.681" y2="14.317"/>
	<line style="fill:none;stroke:#000000;stroke-miterlimit:1;" x1="113.681" y1="14.317" x2="120.553" y2="23.767"/>
	<line style="fill:none;stroke:#000000;stroke-miterlimit:1;" x1="120.553" y1="23.767" x2="125.421" y2="34.935"/>
	<line style="fill:none;stroke:#000000;stroke-miterlimit:1;" x1="125.421" y1="34.935" x2="127.426" y2="47.82"/>
	<line style="fill:none;stroke:#000000;stroke-miterlimit:1;" x1="127.426" y1="47.82" x2="113.967" y2="48.106"/>
	<line style="fill:none;stroke:#000000;stroke-miterlimit:1;" x1="113.967" y1="48.106" x2="112.535" y2="36.366"/>
	<line style="fill:none;stroke:#000000;stroke-miterlimit:1;" x1="112.535" y1="36.366" x2="110.817" y2="28.635"/>
	<line style="fill:none;stroke:#000000;stroke-miterlimit:1;" x1="110.817" y1="28.635" x2="109.099" y2="23.48"/>
	<line style="fill:none;stroke:#000000;stroke-miterlimit:1;" x1="109.099" y1="23.48" x2="107.095" y2="18.899"/>
	<line style="fill:none;stroke:#000000;stroke-miterlimit:1;" x1="107.095" y1="18.899" x2="104.804" y2="16.322"/>
	<line style="fill:none;stroke:#000000;stroke-miterlimit:1;" x1="104.804" y1="16.322" x2="101.368" y2="12.886"/>
	<line style="fill:none;stroke:#000000;stroke-miterlimit:1;" x1="101.368" y1="12.886" x2="96.5" y2="9.163"/>
	<line style="fill:none;stroke:#000000;stroke-miterlimit:1;" x1="96.5" y1="9.163" x2="91.918" y2="7.731"/>
	<line style="fill:none;stroke:#000000;stroke-miterlimit:1;" x1="50.97" y1="28.635" x2="61.851" y2="30.353"/>
	<line style="fill:none;stroke:#000000;stroke-miterlimit:1;" x1="61.851" y1="30.353" x2="66.146" y2="31.212"/>
	<line style="fill:none;stroke:#000000;stroke-miterlimit:1;" x1="66.146" y1="31.212" x2="70.155" y2="31.212"/>
	<line style="fill:none;stroke:#000000;stroke-miterlimit:1;" x1="70.155" y1="31.212" x2="72.16" y2="32.357"/>
	<line style="fill:none;stroke:#000000;stroke-miterlimit:1;" x1="72.16" y1="32.357" x2="73.592" y2="34.648"/>
	<line style="fill:none;stroke:#000000;stroke-miterlimit:1;" x1="73.592" y1="34.648" x2="73.878" y2="36.366"/>
	<line style="fill:none;stroke:#000000;stroke-miterlimit:1;" x1="73.878" y1="36.366" x2="73.305" y2="38.943"/>
	<line style="fill:none;stroke:#000000;stroke-miterlimit:1;" x1="73.305" y1="38.943" x2="68.724" y2="49.825"/>
	<line style="fill:none;stroke:#000000;stroke-miterlimit:1;" x1="68.724" y1="49.825" x2="63.569" y2="63.569"/>
	<line style="fill:none;stroke:#000000;stroke-miterlimit:1;" x1="63.569" y1="63.569" x2="62.424" y2="71.587"/>
	<line style="fill:none;stroke:#000000;stroke-miterlimit:1;" x1="62.424" y1="71.587" x2="63.856" y2="81.896"/>
	<line style="fill:none;stroke:#000000;stroke-miterlimit:1;" x1="63.856" y1="81.896" x2="67.005" y2="89.342"/>
	<line style="fill:none;stroke:#000000;stroke-miterlimit:1;" x1="67.005" y1="89.342" x2="69.01" y2="91.918"/>
	<line style="fill:none;stroke:#000000;stroke-miterlimit:1;" x1="69.01" y1="91.918" x2="71.587" y2="94.496"/>
	<line style="fill:none;stroke:#000000;stroke-miterlimit:1;" x1="71.587" y1="94.496" x2="78.746" y2="99.076"/>
	<line style="fill:none;stroke:#000000;stroke-miterlimit:1;" x1="78.746" y1="99.076" x2="88.768" y2="102.227"/>
	<line style="fill:none;stroke:#000000;stroke-miterlimit:1;" x1="88.768" y1="102.227" x2="99.363" y2="103.086"/>
	<line style="fill:none;stroke:#000000;stroke-miterlimit:1;" x1="67.005" y1="9.449" x2="65.288" y2="9.736"/>
	<line style="fill:none;stroke:#000000;stroke-miterlimit:1;" x1="65.288" y1="9.736" x2="63.569" y2="11.74"/>
	<line style="fill:none;stroke:#000000;stroke-miterlimit:1;" x1="63.569" y1="11.74" x2="63.569" y2="14.031"/>
	<line style="fill:none;stroke:#000000;stroke-miterlimit:1;" x1="63.569" y1="14.031" x2="65.288" y2="15.463"/>
	<line style="fill:none;stroke:#000000;stroke-miterlimit:1;" x1="65.288" y1="15.463" x2="67.578" y2="15.463"/>
	<line style="fill:none;stroke:#000000;stroke-miterlimit:1;" x1="67.578" y1="15.463" x2="69.296" y2="14.317"/>
	<line style="fill:none;stroke:#000000;stroke-miterlimit:1;" x1="69.296" y1="14.317" x2="69.869" y2="13.172"/>
	<line style="fill:none;stroke:#000000;stroke-miterlimit:1;" x1="69.869" y1="13.172" x2="69.583" y2="11.167"/>
	<line style="fill:none;stroke:#000000;stroke-miterlimit:1;" x1="69.583" y1="11.167" x2="67.865" y2="9.449"/>
	<line style="fill:none;stroke:#000000;stroke-miterlimit:1;" x1="101.582" y1="148.113" x2="34.004" y2="148.113"/>
	<line style="fill:none;stroke:#000000;stroke-miterlimit:1;" x1="34.004" y1="148.113" x2="34.863" y2="142.387"/>
	<line style="fill:none;stroke:#000000;stroke-miterlimit:1;" x1="34.863" y1="142.387" x2="35.722" y2="138.664"/>
	<line style="fill:none;stroke:#000000;stroke-miterlimit:1;" x1="35.722" y1="138.664" x2="37.154" y2="134.941"/>
	<line style="fill:none;stroke:#000000;stroke-miterlimit:1;" x1="37.154" y1="134.941" x2="39.158" y2="132.078"/>
	<line style="fill:none;stroke:#000000;stroke-miterlimit:1;" x1="39.158" y1="132.078" x2="40.876" y2="129.502"/>
	<line style="fill:none;stroke:#000000;stroke-miterlimit:1;" x1="40.876" y1="129.502" x2="43.167" y2="126.352"/>
	<line style="fill:none;stroke:#000000;stroke-miterlimit:1;" x1="43.167" y1="126.352" x2="45.744" y2="124.061"/>
	<line style="fill:none;stroke:#000000;stroke-miterlimit:1;" x1="45.744" y1="124.061" x2="48.894" y2="121.77"/>
	<line style="fill:none;stroke:#000000;stroke-miterlimit:1;" x1="48.894" y1="121.77" x2="51.471" y2="120.053"/>
	<line style="fill:none;stroke:#000000;stroke-miterlimit:1;" x1="51.471" y1="120.053" x2="55.194" y2="118.334"/>
	<line style="fill:none;stroke:#000000;stroke-miterlimit:1;" x1="55.194" y1="118.334" x2="58.916" y2="117.188"/>
	<line style="fill:none;stroke:#000000;stroke-miterlimit:1;" x1="58.916" y1="117.188" x2="61.493" y2="116.615"/>
	<line style="fill:none;stroke:#000000;stroke-miterlimit:1;" x1="61.493" y1="116.615" x2="66.075" y2="116.043"/>
	<line style="fill:none;stroke:#000000;stroke-miterlimit:1;" x1="66.075" y1="116.043" x2="69.511" y2="116.043"/>
	<line style="fill:none;stroke:#000000;stroke-miterlimit:1;" x1="69.511" y1="116.043" x2="72.661" y2="116.615"/>
	<line style="fill:none;stroke:#000000;stroke-miterlimit:1;" x1="72.661" y1="116.615" x2="76.097" y2="117.188"/>
	<line style="fill:none;stroke:#000000;stroke-miterlimit:1;" x1="76.097" y1="117.188" x2="79.82" y2="118.047"/>
	<line style="fill:none;stroke:#000000;stroke-miterlimit:1;" x1="79.82" y1="118.047" x2="82.397" y2="118.906"/>
	<line style="fill:none;stroke:#000000;stroke-miterlimit:1;" x1="82.397" y1="118.906" x2="85.833" y2="121.197"/>
	<line style="fill:none;stroke:#000000;stroke-miterlimit:1;" x1="85.833" y1="121.197" x2="88.697" y2="123.201"/>
	<line style="fill:none;stroke:#000000;stroke-miterlimit:1;" x1="88.697" y1="123.201" x2="91.273" y2="125.207"/>
	<line style="fill:none;stroke:#000000;stroke-miterlimit:1;" x1="91.273" y1="125.207" x2="93.564" y2="128.07"/>
	<line style="fill:none;stroke:#000000;stroke-miterlimit:1;" x1="93.564" y1="128.07" x2="95.855" y2="131.219"/>
	<line style="fill:none;stroke:#000000;stroke-miterlimit:1;" x1="95.855" y1="131.219" x2="97.86" y2="134.369"/>
	<line style="fill:none;stroke:#000000;stroke-miterlimit:1;" x1="97.86" y1="134.369" x2="99.292" y2="137.232"/>
	<line style="fill:none;stroke:#000000;stroke-miterlimit:1;" x1="99.292" y1="137.232" x2="100.437" y2="141.527"/>
	<line style="fill:none;stroke:#000000;stroke-miterlimit:1;" x1="100.437" y1="141.527" x2="101.296" y2="144.678"/>
	<line style="fill:none;stroke:#000000;stroke-miterlimit:1;" x1="101.296" y1="144.678" x2="101.582" y2="148.113"/>
	<line style="fill:none;stroke:#000000;stroke-miterlimit:1;" x1="179.004" y1="65.052" x2="216.52" y2="28.979"/>
	<line style="fill:none;stroke:#000000;stroke-miterlimit:1;" x1="165.44" y1="59.858" x2="211.613" y2="15.705"/>
	<line style="fill:none;stroke:#000000;stroke-miterlimit:1;" x1="156.494" y1="50.334" x2="202.667" y2="6.182"/>
	<line style="fill:none;stroke:#000000;stroke-miterlimit:1;" x1="151.877" y1="36.771" x2="188.815" y2="1.564"/>
	<line style="fill:none;stroke:#000000;stroke-miterlimit:1;" x1="197.762" y1="3.584" x2="194.587" y2="2.719"/>
	<line style="fill:none;stroke:#000000;stroke-miterlimit:1;" x1="194.587" y1="2.719" x2="191.413" y2="1.564"/>
	<line style="fill:none;stroke:#000000;stroke-miterlimit:1;" x1="191.413" y1="1.564" x2="187.95" y2="0.987"/>
	<line style="fill:none;stroke:#000000;stroke-miterlimit:1;" x1="187.95" y1="0.987" x2="184.486" y2="0.987"/>
	<line style="fill:none;stroke:#000000;stroke-miterlimit:1;" x1="184.486" y1="0.987" x2="180.735" y2="1.276"/>
	<line style="fill:none;stroke:#000000;stroke-miterlimit:1;" x1="180.735" y1="1.276" x2="177.561" y2="1.564"/>
	<line style="fill:none;stroke:#000000;stroke-miterlimit:1;" x1="177.561" y1="1.564" x2="174.098" y2="2.719"/>
	<line style="fill:none;stroke:#000000;stroke-miterlimit:1;" x1="174.098" y1="2.719" x2="170.924" y2="3.873"/>
	<line style="fill:none;stroke:#000000;stroke-miterlimit:1;" x1="170.924" y1="3.873" x2="167.749" y2="5.316"/>
	<line style="fill:none;stroke:#000000;stroke-miterlimit:1;" x1="167.749" y1="5.316" x2="164.863" y2="7.336"/>
	<line style="fill:none;stroke:#000000;stroke-miterlimit:1;" x1="164.863" y1="7.336" x2="162.555" y2="9.356"/>
	<line style="fill:none;stroke:#000000;stroke-miterlimit:1;" x1="162.555" y1="9.356" x2="160.246" y2="11.665"/>
	<line style="fill:none;stroke:#000000;stroke-miterlimit:1;" x1="160.246" y1="11.665" x2="158.515" y2="13.685"/>
	<line style="fill:none;stroke:#000000;stroke-miterlimit:1;" x1="158.515" y1="13.685" x2="156.783" y2="16.282"/>
	<line style="fill:none;stroke:#000000;stroke-miterlimit:1;" x1="156.783" y1="16.282" x2="154.763" y2="20.034"/>
	<line style="fill:none;stroke:#000000;stroke-miterlimit:1;" x1="154.763" y1="20.034" x2="153.897" y2="22.919"/>
	<line style="fill:none;stroke:#000000;stroke-miterlimit:1;" x1="153.897" y1="22.919" x2="153.031" y2="26.094"/>
	<line style="fill:none;stroke:#000000;stroke-miterlimit:1;" x1="153.031" y1="26.094" x2="152.454" y2="29.268"/>
	<line style="fill:none;stroke:#000000;stroke-miterlimit:1;" x1="152.454" y1="29.268" x2="151.877" y2="33.02"/>
	<line style="fill:none;stroke:#000000;stroke-miterlimit:1;" x1="151.877" y1="33.02" x2="151.877" y2="36.194"/>
	<line style="fill:none;stroke:#000000;stroke-miterlimit:1;" x1="151.877" y1="36.194" x2="152.454" y2="39.946"/>
	<line style="fill:none;stroke:#000000;stroke-miterlimit:1;" x1="152.454" y1="39.946" x2="153.32" y2="43.12"/>
	<line style="fill:none;stroke:#000000;stroke-miterlimit:1;" x1="153.32" y1="43.12" x2="154.186" y2="46.006"/>
	<line style="fill:none;stroke:#000000;stroke-miterlimit:1;" x1="154.186" y1="46.006" x2="155.629" y2="49.18"/>
	<line style="fill:none;stroke:#000000;stroke-miterlimit:1;" x1="155.629" y1="49.18" x2="156.494" y2="50.912"/>
	<line style="fill:none;stroke:#000000;stroke-miterlimit:1;" x1="156.494" y1="50.912" x2="157.648" y2="52.354"/>
	<line style="fill:none;stroke:#000000;stroke-miterlimit:1;" x1="157.648" y1="52.354" x2="160.534" y2="55.529"/>
	<line style="fill:none;stroke:#000000;stroke-miterlimit:1;" x1="160.534" y1="55.529" x2="163.42" y2="58.415"/>
	<line style="fill:none;stroke:#000000;stroke-miterlimit:1;" x1="163.42" y1="58.415" x2="166.018" y2="60.435"/>
	<line style="fill:none;stroke:#000000;stroke-miterlimit:1;" x1="166.018" y1="60.435" x2="169.192" y2="62.167"/>
	<line style="fill:none;stroke:#000000;stroke-miterlimit:1;" x1="169.192" y1="62.167" x2="172.655" y2="63.898"/>
	<line style="fill:none;stroke:#000000;stroke-miterlimit:1;" x1="172.655" y1="63.898" x2="176.118" y2="64.764"/>
	<line style="fill:none;stroke:#000000;stroke-miterlimit:1;" x1="176.118" y1="64.764" x2="179.004" y2="65.629"/>
	<line style="fill:none;stroke:#000000;stroke-miterlimit:1;" x1="179.004" y1="65.629" x2="182.467" y2="65.629"/>
	<line style="fill:none;stroke:#000000;stroke-miterlimit:1;" x1="182.467" y1="65.629" x2="185.93" y2="65.918"/>
	<line style="fill:none;stroke:#000000;stroke-miterlimit:1;" x1="185.93" y1="65.918" x2="189.97" y2="65.341"/>
	<line style="fill:none;stroke:#000000;stroke-miterlimit:1;" x1="189.97" y1="65.341" x2="192.855" y2="64.764"/>
	<line style="fill:none;stroke:#000000;stroke-miterlimit:1;" x1="192.855" y1="64.764" x2="196.318" y2="63.321"/>
	<line style="fill:none;stroke:#000000;stroke-miterlimit:1;" x1="196.318" y1="63.321" x2="199.781" y2="61.589"/>
	<line style="fill:none;stroke:#000000;stroke-miterlimit:1;" x1="199.781" y1="61.589" x2="202.09" y2="60.435"/>
	<line style="fill:none;stroke:#000000;stroke-miterlimit:1;" x1="202.09" y1="60.435" x2="204.688" y2="58.126"/>
	<line style="fill:none;stroke:#000000;stroke-miterlimit:1;" x1="204.688" y1="58.126" x2="207.285" y2="55.818"/>
	<line style="fill:none;stroke:#000000;stroke-miterlimit:1;" x1="207.285" y1="55.818" x2="209.882" y2="53.22"/>
	<line style="fill:none;stroke:#000000;stroke-miterlimit:1;" x1="209.882" y1="53.22" x2="211.902" y2="50.046"/>
	<line style="fill:none;stroke:#000000;stroke-miterlimit:1;" x1="211.902" y1="50.046" x2="213.922" y2="47.16"/>
	<line style="fill:none;stroke:#000000;stroke-miterlimit:1;" x1="213.922" y1="47.16" x2="215.365" y2="44.274"/>
	<line style="fill:none;stroke:#000000;stroke-miterlimit:1;" x1="215.365" y1="44.274" x2="216.23" y2="40.812"/>
	<line style="fill:none;stroke:#000000;stroke-miterlimit:1;" x1="216.23" y1="40.812" x2="216.52" y2="37.637"/>
	<line style="fill:none;stroke:#000000;stroke-miterlimit:1;" x1="216.52" y1="37.637" x2="217.097" y2="33.885"/>
	<line style="fill:none;stroke:#000000;stroke-miterlimit:1;" x1="217.097" y1="33.885" x2="216.808" y2="30.711"/>
	<line style="fill:none;stroke:#000000;stroke-miterlimit:1;" x1="216.808" y1="30.711" x2="216.52" y2="26.959"/>
	<line style="fill:none;stroke:#000000;stroke-miterlimit:1;" x1="216.52" y1="26.959" x2="215.653" y2="23.785"/>
	<line style="fill:none;stroke:#000000;stroke-miterlimit:1;" x1="215.653" y1="23.785" x2="214.499" y2="20.899"/>
	<line style="fill:none;stroke:#000000;stroke-miterlimit:1;" x1="214.499" y1="20.899" x2="213.057" y2="17.148"/>
	<line style="fill:none;stroke:#000000;stroke-miterlimit:1;" x1="213.057" y1="17.148" x2="211.036" y2="14.262"/>
	<line style="fill:none;stroke:#000000;stroke-miterlimit:1;" x1="211.036" y1="14.262" x2="209.017" y2="11.953"/>
	<line style="fill:none;stroke:#000000;stroke-miterlimit:1;" x1="209.017" y1="11.953" x2="206.708" y2="9.067"/>
	<line style="fill:none;stroke:#000000;stroke-miterlimit:1;" x1="206.708" y1="9.067" x2="203.821" y2="7.047"/>
	<line style="fill:none;stroke:#000000;stroke-miterlimit:1;" x1="203.821" y1="7.047" x2="200.936" y2="5.027"/>
	<line style="fill:none;stroke:#000000;stroke-miterlimit:1;" x1="200.936" y1="5.027" x2="197.762" y2="3.584"/>
	<line style="fill:none;stroke:#000000;stroke-miterlimit:1;" x1="134.742" y1="97.156" x2="134.742" y2="149.102"/>
	<line style="fill:none;stroke:#000000;stroke-miterlimit:1;" x1="134.742" y1="149.102" x2="143.978" y2="149.102"/>
	<line style="fill:none;stroke:#000000;stroke-miterlimit:1;" x1="143.978" y1="149.102" x2="143.978" y2="97.156"/>
	<line style="fill:none;stroke:#000000;stroke-miterlimit:1;" x1="143.978" y1="97.156" x2="134.742" y2="97.156"/>
	<line style="fill:none;stroke:#000000;stroke-miterlimit:1;" x1="180.916" y1="97.156" x2="180.916" y2="149.102"/>
	<line style="fill:none;stroke:#000000;stroke-miterlimit:1;" x1="180.916" y1="149.102" x2="190.438" y2="149.102"/>
	<line style="fill:none;stroke:#000000;stroke-miterlimit:1;" x1="190.438" y1="149.102" x2="190.438" y2="97.156"/>
	<line style="fill:none;stroke:#000000;stroke-miterlimit:1;" x1="190.438" y1="97.156" x2="180.916" y2="97.156"/>
	<line style="fill:none;stroke:#000000;stroke-miterlimit:1;" x1="227.666" y1="97.156" x2="227.666" y2="149.102"/>
	<line style="fill:none;stroke:#000000;stroke-miterlimit:1;" x1="227.666" y1="149.102" x2="236.9" y2="149.102"/>
	<line style="fill:none;stroke:#000000;stroke-miterlimit:1;" x1="236.9" y1="149.102" x2="236.9" y2="97.156"/>
	<line style="fill:none;stroke:#000000;stroke-miterlimit:1;" x1="236.9" y1="97.156" x2="227.666" y2="97.156"/>
</g>
</svg>
