<?xml version="1.0" encoding="iso-8859-1"?>
<!-- Generator: Adobe Illustrator 16.0.1, SVG Export Plug-In . SVG Version: 6.00 Build 0)  -->
<!DOCTYPE svg PUBLIC "-//W3C//DTD SVG 1.1//EN" "http://www.w3.org/Graphics/SVG/1.1/DTD/svg11.dtd">
<svg version="1.1" id="Ebene_1" xmlns="http://www.w3.org/2000/svg" xmlns:xlink="http://www.w3.org/1999/xlink" x="0px" y="0px"
	 width="328.961px" height="149.102px" viewBox="0 0 328.961 149.102" style="enable-background:new 0 0 328.961 149.102;"
	 xml:space="preserve">
<g>
	<line style="fill:none;stroke:#000000;stroke-miterlimit:1;" x1="52.663" y1="37.522" x2="48.713" y2="41.801"/>
	<line style="fill:none;stroke:#000000;stroke-miterlimit:1;" x1="48.713" y1="41.801" x2="47.396" y2="47.067"/>
	<line style="fill:none;stroke:#000000;stroke-miterlimit:1;" x1="47.396" y1="47.067" x2="48.384" y2="52.333"/>
	<line style="fill:none;stroke:#000000;stroke-miterlimit:1;" x1="48.384" y1="52.333" x2="50.688" y2="56.283"/>
	<line style="fill:none;stroke:#000000;stroke-miterlimit:1;" x1="50.688" y1="56.283" x2="56.941" y2="62.208"/>
	<line style="fill:none;stroke:#000000;stroke-miterlimit:1;" x1="56.941" y1="62.208" x2="67.803" y2="68.132"/>
	<line style="fill:none;stroke:#000000;stroke-miterlimit:1;" x1="67.803" y1="68.132" x2="86.564" y2="75.045"/>
	<line style="fill:none;stroke:#000000;stroke-miterlimit:1;" x1="86.564" y1="75.045" x2="108.946" y2="79.652"/>
	<line style="fill:none;stroke:#000000;stroke-miterlimit:1;" x1="108.946" y1="79.652" x2="131.328" y2="82.285"/>
	<line style="fill:none;stroke:#000000;stroke-miterlimit:1;" x1="131.328" y1="82.285" x2="138.569" y2="82.943"/>
	<line style="fill:none;stroke:#000000;stroke-miterlimit:1;" x1="138.569" y1="82.943" x2="143.177" y2="83.272"/>
	<line style="fill:none;stroke:#000000;stroke-miterlimit:1;" x1="143.177" y1="83.272" x2="145.481" y2="82.614"/>
	<line style="fill:none;stroke:#000000;stroke-miterlimit:1;" x1="145.481" y1="82.614" x2="146.797" y2="81.298"/>
	<line style="fill:none;stroke:#000000;stroke-miterlimit:1;" x1="146.797" y1="81.298" x2="146.797" y2="79.652"/>
	<line style="fill:none;stroke:#000000;stroke-miterlimit:1;" x1="146.797" y1="79.652" x2="145.152" y2="78.336"/>
	<line style="fill:none;stroke:#000000;stroke-miterlimit:1;" x1="145.152" y1="78.336" x2="136.265" y2="76.69"/>
	<line style="fill:none;stroke:#000000;stroke-miterlimit:1;" x1="136.265" y1="76.69" x2="130.669" y2="74.057"/>
	<line style="fill:none;stroke:#000000;stroke-miterlimit:1;" x1="130.669" y1="74.057" x2="127.378" y2="71.753"/>
	<line style="fill:none;stroke:#000000;stroke-miterlimit:1;" x1="127.378" y1="71.753" x2="119.479" y2="65.17"/>
	<line style="fill:none;stroke:#000000;stroke-miterlimit:1;" x1="119.479" y1="65.17" x2="107.629" y2="54.309"/>
	<line style="fill:none;stroke:#000000;stroke-miterlimit:1;" x1="107.629" y1="54.309" x2="95.78" y2="45.092"/>
	<line style="fill:none;stroke:#000000;stroke-miterlimit:1;" x1="95.78" y1="45.092" x2="84.919" y2="39.168"/>
	<line style="fill:none;stroke:#000000;stroke-miterlimit:1;" x1="84.919" y1="39.168" x2="74.386" y2="34.889"/>
	<line style="fill:none;stroke:#000000;stroke-miterlimit:1;" x1="74.386" y1="34.889" x2="66.487" y2="32.585"/>
	<line style="fill:none;stroke:#000000;stroke-miterlimit:1;" x1="66.487" y1="32.585" x2="59.575" y2="32.256"/>
	<line style="fill:none;stroke:#000000;stroke-miterlimit:1;" x1="59.575" y1="32.256" x2="53.65" y2="33.572"/>
	<line style="fill:none;stroke:#000000;stroke-miterlimit:1;" x1="53.65" y1="33.572" x2="49.042" y2="35.876"/>
	<line style="fill:none;stroke:#000000;stroke-miterlimit:1;" x1="49.042" y1="35.876" x2="45.751" y2="37.851"/>
	<line style="fill:none;stroke:#000000;stroke-miterlimit:1;" x1="45.751" y1="37.851" x2="44.105" y2="39.497"/>
	<line style="fill:none;stroke:#000000;stroke-miterlimit:1;" x1="44.105" y1="39.497" x2="41.801" y2="39.826"/>
	<line style="fill:none;stroke:#000000;stroke-miterlimit:1;" x1="41.801" y1="39.826" x2="39.168" y2="39.168"/>
	<line style="fill:none;stroke:#000000;stroke-miterlimit:1;" x1="39.168" y1="39.168" x2="38.839" y2="36.864"/>
	<line style="fill:none;stroke:#000000;stroke-miterlimit:1;" x1="38.839" y1="36.864" x2="51.675" y2="26.331"/>
	<line style="fill:none;stroke:#000000;stroke-miterlimit:1;" x1="51.675" y1="26.331" x2="54.309" y2="23.369"/>
	<line style="fill:none;stroke:#000000;stroke-miterlimit:1;" x1="54.309" y1="23.369" x2="55.954" y2="19.749"/>
	<line style="fill:none;stroke:#000000;stroke-miterlimit:1;" x1="55.954" y1="19.749" x2="56.283" y2="16.457"/>
	<line style="fill:none;stroke:#000000;stroke-miterlimit:1;" x1="56.283" y1="16.457" x2="55.954" y2="13.495"/>
	<line style="fill:none;stroke:#000000;stroke-miterlimit:1;" x1="52.992" y1="11.19" x2="66.487" y2="17.444"/>
	<line style="fill:none;stroke:#000000;stroke-miterlimit:1;" x1="66.487" y1="17.444" x2="80.64" y2="22.71"/>
	<line style="fill:none;stroke:#000000;stroke-miterlimit:1;" x1="80.64" y1="22.71" x2="93.147" y2="25.344"/>
	<line style="fill:none;stroke:#000000;stroke-miterlimit:1;" x1="93.147" y1="25.344" x2="106.313" y2="26.331"/>
	<line style="fill:none;stroke:#000000;stroke-miterlimit:1;" x1="106.313" y1="26.331" x2="116.188" y2="26.66"/>
	<line style="fill:none;stroke:#000000;stroke-miterlimit:1;" x1="116.188" y1="26.66" x2="123.428" y2="25.673"/>
	<line style="fill:none;stroke:#000000;stroke-miterlimit:1;" x1="123.428" y1="25.673" x2="113.225" y2="24.027"/>
	<line style="fill:none;stroke:#000000;stroke-miterlimit:1;" x1="113.225" y1="24.027" x2="101.705" y2="23.04"/>
	<line style="fill:none;stroke:#000000;stroke-miterlimit:1;" x1="101.705" y1="23.04" x2="88.869" y2="21.065"/>
	<line style="fill:none;stroke:#000000;stroke-miterlimit:1;" x1="88.869" y1="21.065" x2="79.652" y2="18.432"/>
	<line style="fill:none;stroke:#000000;stroke-miterlimit:1;" x1="79.652" y1="18.432" x2="68.461" y2="14.482"/>
	<line style="fill:none;stroke:#000000;stroke-miterlimit:1;" x1="68.461" y1="14.482" x2="59.904" y2="10.861"/>
	<line style="fill:none;stroke:#000000;stroke-miterlimit:1;" x1="59.904" y1="10.861" x2="54.638" y2="7.241"/>
	<line style="fill:none;stroke:#000000;stroke-miterlimit:1;" x1="54.638" y1="7.241" x2="72.411" y2="14.153"/>
	<line style="fill:none;stroke:#000000;stroke-miterlimit:1;" x1="72.411" y1="14.153" x2="83.602" y2="16.128"/>
	<line style="fill:none;stroke:#000000;stroke-miterlimit:1;" x1="83.602" y1="16.128" x2="89.527" y2="17.115"/>
	<line style="fill:none;stroke:#000000;stroke-miterlimit:1;" x1="89.527" y1="17.115" x2="102.034" y2="18.103"/>
	<line style="fill:none;stroke:#000000;stroke-miterlimit:1;" x1="102.034" y1="18.103" x2="113.554" y2="17.444"/>
	<line style="fill:none;stroke:#000000;stroke-miterlimit:1;" x1="113.554" y1="17.444" x2="120.466" y2="16.786"/>
	<line style="fill:none;stroke:#000000;stroke-miterlimit:1;" x1="120.466" y1="16.786" x2="126.062" y2="16.457"/>
	<line style="fill:none;stroke:#000000;stroke-miterlimit:1;" x1="126.062" y1="16.457" x2="113.883" y2="15.47"/>
	<line style="fill:none;stroke:#000000;stroke-miterlimit:1;" x1="113.883" y1="15.47" x2="103.351" y2="14.482"/>
	<line style="fill:none;stroke:#000000;stroke-miterlimit:1;" x1="103.351" y1="14.482" x2="93.147" y2="14.153"/>
	<line style="fill:none;stroke:#000000;stroke-miterlimit:1;" x1="93.147" y1="14.153" x2="84.26" y2="12.836"/>
	<line style="fill:none;stroke:#000000;stroke-miterlimit:1;" x1="84.26" y1="12.836" x2="73.399" y2="10.532"/>
	<line style="fill:none;stroke:#000000;stroke-miterlimit:1;" x1="73.399" y1="10.532" x2="63.524" y2="7.57"/>
	<line style="fill:none;stroke:#000000;stroke-miterlimit:1;" x1="63.524" y1="7.57" x2="56.941" y2="4.608"/>
	<line style="fill:none;stroke:#000000;stroke-miterlimit:1;" x1="56.941" y1="4.608" x2="52.333" y2="1.646"/>
	<line style="fill:none;stroke:#000000;stroke-miterlimit:1;" x1="52.333" y1="1.646" x2="48.713" y2="0.329"/>
	<line style="fill:none;stroke:#000000;stroke-miterlimit:1;" x1="48.713" y1="0.329" x2="45.421" y2="0"/>
	<line style="fill:none;stroke:#000000;stroke-miterlimit:1;" x1="45.421" y1="0" x2="38.181" y2="0.987"/>
	<line style="fill:none;stroke:#000000;stroke-miterlimit:1;" x1="38.181" y1="0.987" x2="32.585" y2="2.962"/>
	<line style="fill:none;stroke:#000000;stroke-miterlimit:1;" x1="32.585" y1="2.962" x2="30.281" y2="4.608"/>
	<line style="fill:none;stroke:#000000;stroke-miterlimit:1;" x1="30.281" y1="4.608" x2="28.964" y2="6.912"/>
	<line style="fill:none;stroke:#000000;stroke-miterlimit:1;" x1="28.964" y1="6.912" x2="28.635" y2="7.57"/>
	<line style="fill:none;stroke:#000000;stroke-miterlimit:1;" x1="28.635" y1="7.57" x2="28.635" y2="10.203"/>
	<line style="fill:none;stroke:#000000;stroke-miterlimit:1;" x1="28.635" y1="10.203" x2="30.281" y2="12.836"/>
	<line style="fill:none;stroke:#000000;stroke-miterlimit:1;" x1="30.281" y1="12.836" x2="32.256" y2="13.495"/>
	<line style="fill:none;stroke:#000000;stroke-miterlimit:1;" x1="32.256" y1="13.495" x2="34.231" y2="14.153"/>
	<line style="fill:none;stroke:#000000;stroke-miterlimit:1;" x1="34.231" y1="14.153" x2="37.851" y2="15.14"/>
	<line style="fill:none;stroke:#000000;stroke-miterlimit:1;" x1="37.851" y1="15.14" x2="41.801" y2="15.14"/>
	<line style="fill:none;stroke:#000000;stroke-miterlimit:1;" x1="41.801" y1="15.14" x2="44.105" y2="14.153"/>
	<line style="fill:none;stroke:#000000;stroke-miterlimit:1;" x1="44.105" y1="14.153" x2="46.08" y2="13.824"/>
	<line style="fill:none;stroke:#000000;stroke-miterlimit:1;" x1="46.08" y1="13.824" x2="47.067" y2="15.47"/>
	<line style="fill:none;stroke:#000000;stroke-miterlimit:1;" x1="47.067" y1="15.47" x2="47.396" y2="18.432"/>
	<line style="fill:none;stroke:#000000;stroke-miterlimit:1;" x1="47.396" y1="18.432" x2="43.776" y2="22.71"/>
	<line style="fill:none;stroke:#000000;stroke-miterlimit:1;" x1="43.776" y1="22.71" x2="37.851" y2="26.989"/>
	<line style="fill:none;stroke:#000000;stroke-miterlimit:1;" x1="37.851" y1="26.989" x2="32.256" y2="32.256"/>
	<line style="fill:none;stroke:#000000;stroke-miterlimit:1;" x1="32.256" y1="32.256" x2="29.623" y2="35.876"/>
	<line style="fill:none;stroke:#000000;stroke-miterlimit:1;" x1="29.623" y1="35.876" x2="27.648" y2="38.839"/>
	<line style="fill:none;stroke:#000000;stroke-miterlimit:1;" x1="27.648" y1="38.839" x2="26.661" y2="44.105"/>
	<line style="fill:none;stroke:#000000;stroke-miterlimit:1;" x1="26.661" y1="44.105" x2="27.319" y2="47.067"/>
	<line style="fill:none;stroke:#000000;stroke-miterlimit:1;" x1="27.319" y1="47.067" x2="31.269" y2="52.992"/>
	<line style="fill:none;stroke:#000000;stroke-miterlimit:1;" x1="31.269" y1="52.992" x2="41.472" y2="64.183"/>
	<line style="fill:none;stroke:#000000;stroke-miterlimit:1;" x1="41.472" y1="64.183" x2="47.726" y2="69.778"/>
	<line style="fill:none;stroke:#000000;stroke-miterlimit:1;" x1="47.726" y1="69.778" x2="54.967" y2="75.045"/>
	<line style="fill:none;stroke:#000000;stroke-miterlimit:1;" x1="54.967" y1="75.045" x2="65.5" y2="79.652"/>
	<line style="fill:none;stroke:#000000;stroke-miterlimit:1;" x1="65.5" y1="79.652" x2="71.753" y2="88.868"/>
	<line style="fill:none;stroke:#000000;stroke-miterlimit:1;" x1="71.753" y1="88.868" x2="78.336" y2="96.438"/>
	<line style="fill:none;stroke:#000000;stroke-miterlimit:1;" x1="78.336" y1="96.438" x2="82.615" y2="101.047"/>
	<line style="fill:none;stroke:#000000;stroke-miterlimit:1;" x1="82.615" y1="101.047" x2="83.931" y2="104.009"/>
	<line style="fill:none;stroke:#000000;stroke-miterlimit:1;" x1="83.931" y1="104.009" x2="85.906" y2="125.403"/>
	<line style="fill:none;stroke:#000000;stroke-miterlimit:1;" x1="85.906" y1="125.403" x2="85.906" y2="139.228"/>
	<line style="fill:none;stroke:#000000;stroke-miterlimit:1;" x1="85.906" y1="139.228" x2="85.248" y2="141.531"/>
	<line style="fill:none;stroke:#000000;stroke-miterlimit:1;" x1="85.248" y1="141.531" x2="82.944" y2="142.189"/>
	<line style="fill:none;stroke:#000000;stroke-miterlimit:1;" x1="82.944" y1="142.189" x2="68.791" y2="144.164"/>
	<line style="fill:none;stroke:#000000;stroke-miterlimit:1;" x1="68.791" y1="144.164" x2="67.803" y2="144.493"/>
	<line style="fill:none;stroke:#000000;stroke-miterlimit:1;" x1="67.803" y1="144.493" x2="65.829" y2="144.822"/>
	<line style="fill:none;stroke:#000000;stroke-miterlimit:1;" x1="65.829" y1="144.822" x2="64.841" y2="146.14"/>
	<line style="fill:none;stroke:#000000;stroke-miterlimit:1;" x1="64.841" y1="146.14" x2="64.841" y2="148.114"/>
	<line style="fill:none;stroke:#000000;stroke-miterlimit:1;" x1="64.841" y1="148.114" x2="66.816" y2="147.127"/>
	<line style="fill:none;stroke:#000000;stroke-miterlimit:1;" x1="66.816" y1="147.127" x2="69.12" y2="147.785"/>
	<line style="fill:none;stroke:#000000;stroke-miterlimit:1;" x1="78.665" y1="144.164" x2="70.437" y2="145.48"/>
	<line style="fill:none;stroke:#000000;stroke-miterlimit:1;" x1="70.437" y1="145.48" x2="69.12" y2="146.469"/>
	<line style="fill:none;stroke:#000000;stroke-miterlimit:1;" x1="69.12" y1="146.469" x2="69.449" y2="148.114"/>
	<line style="fill:none;stroke:#000000;stroke-miterlimit:1;" x1="69.449" y1="148.114" x2="72.082" y2="146.798"/>
	<line style="fill:none;stroke:#000000;stroke-miterlimit:1;" x1="72.082" y1="146.798" x2="74.057" y2="148.114"/>
	<line style="fill:none;stroke:#000000;stroke-miterlimit:1;" x1="74.057" y1="148.114" x2="87.223" y2="146.469"/>
	<line style="fill:none;stroke:#000000;stroke-miterlimit:1;" x1="87.223" y1="146.469" x2="97.426" y2="148.114"/>
	<line style="fill:none;stroke:#000000;stroke-miterlimit:1;" x1="97.426" y1="148.114" x2="97.755" y2="146.469"/>
	<line style="fill:none;stroke:#000000;stroke-miterlimit:1;" x1="97.755" y1="146.469" x2="97.097" y2="144.822"/>
	<line style="fill:none;stroke:#000000;stroke-miterlimit:1;" x1="97.097" y1="144.822" x2="94.464" y2="144.164"/>
	<line style="fill:none;stroke:#000000;stroke-miterlimit:1;" x1="94.464" y1="144.164" x2="91.501" y2="143.177"/>
	<line style="fill:none;stroke:#000000;stroke-miterlimit:1;" x1="91.501" y1="143.177" x2="90.514" y2="142.848"/>
	<line style="fill:none;stroke:#000000;stroke-miterlimit:1;" x1="90.514" y1="142.848" x2="89.527" y2="140.873"/>
	<line style="fill:none;stroke:#000000;stroke-miterlimit:1;" x1="89.527" y1="140.873" x2="89.198" y2="106.972"/>
	<line style="fill:none;stroke:#000000;stroke-miterlimit:1;" x1="89.198" y1="106.972" x2="89.856" y2="103.021"/>
	<line style="fill:none;stroke:#000000;stroke-miterlimit:1;" x1="89.856" y1="103.021" x2="89.856" y2="101.705"/>
	<line style="fill:none;stroke:#000000;stroke-miterlimit:1;" x1="89.856" y1="101.705" x2="87.552" y2="97.426"/>
	<line style="fill:none;stroke:#000000;stroke-miterlimit:1;" x1="87.552" y1="97.426" x2="85.248" y2="93.477"/>
	<line style="fill:none;stroke:#000000;stroke-miterlimit:1;" x1="85.248" y1="93.477" x2="77.678" y2="81.298"/>
	<line style="fill:none;stroke:#000000;stroke-miterlimit:1;" x1="80.64" y1="84.919" x2="92.489" y2="86.235"/>
	<line style="fill:none;stroke:#000000;stroke-miterlimit:1;" x1="92.489" y1="86.235" x2="102.363" y2="85.906"/>
	<line style="fill:none;stroke:#000000;stroke-miterlimit:1;" x1="102.363" y1="85.906" x2="114.871" y2="84.59"/>
	<line style="fill:none;stroke:#000000;stroke-miterlimit:1;" x1="114.871" y1="84.59" x2="121.125" y2="90.185"/>
	<line style="fill:none;stroke:#000000;stroke-miterlimit:1;" x1="121.125" y1="90.185" x2="128.695" y2="97.097"/>
	<line style="fill:none;stroke:#000000;stroke-miterlimit:1;" x1="128.695" y1="97.097" x2="132.315" y2="97.426"/>
	<line style="fill:none;stroke:#000000;stroke-miterlimit:1;" x1="132.315" y1="97.426" x2="135.936" y2="96.438"/>
	<line style="fill:none;stroke:#000000;stroke-miterlimit:1;" x1="135.936" y1="96.438" x2="139.886" y2="93.147"/>
	<line style="fill:none;stroke:#000000;stroke-miterlimit:1;" x1="139.886" y1="93.147" x2="140.544" y2="90.514"/>
	<line style="fill:none;stroke:#000000;stroke-miterlimit:1;" x1="140.544" y1="90.514" x2="132.645" y2="82.285"/>
	<line style="fill:none;stroke:#000000;stroke-miterlimit:1;" x1="28.635" y1="7.241" x2="0" y2="24.686"/>
	<line style="fill:none;stroke:#000000;stroke-miterlimit:1;" x1="0" y1="24.686" x2="32.914" y2="13.824"/>
	<line style="fill:none;stroke:#000000;stroke-miterlimit:1;" x1="28.964" y1="11.849" x2="0" y2="24.686"/>
	<line style="fill:none;stroke:#000000;stroke-miterlimit:1;" x1="35.218" y1="6.583" x2="33.572" y2="7.57"/>
	<line style="fill:none;stroke:#000000;stroke-miterlimit:1;" x1="33.572" y1="7.57" x2="34.56" y2="9.216"/>
	<line style="fill:none;stroke:#000000;stroke-miterlimit:1;" x1="34.56" y1="9.216" x2="36.206" y2="8.558"/>
	<line style="fill:none;stroke:#000000;stroke-miterlimit:1;" x1="36.206" y1="8.558" x2="35.547" y2="7.241"/>
	<line style="fill:none;stroke:#000000;stroke-miterlimit:1;" x1="98.414" y1="145.151" x2="101.047" y2="145.811"/>
	<line style="fill:none;stroke:#000000;stroke-miterlimit:1;" x1="101.047" y1="145.811" x2="102.363" y2="146.798"/>
	<line style="fill:none;stroke:#000000;stroke-miterlimit:1;" x1="102.363" y1="146.798" x2="102.692" y2="147.456"/>
	<line style="fill:none;stroke:#000000;stroke-miterlimit:1;" x1="102.692" y1="147.456" x2="101.047" y2="148.114"/>
	<line style="fill:none;stroke:#000000;stroke-miterlimit:1;" x1="101.047" y1="148.114" x2="98.743" y2="147.785"/>
	<line style="fill:none;stroke:#000000;stroke-miterlimit:1;" x1="49.042" y1="71.095" x2="55.954" y2="84.261"/>
	<line style="fill:none;stroke:#000000;stroke-miterlimit:1;" x1="55.954" y1="84.261" x2="63.854" y2="96.109"/>
	<line style="fill:none;stroke:#000000;stroke-miterlimit:1;" x1="63.854" y1="96.109" x2="64.512" y2="99.072"/>
	<line style="fill:none;stroke:#000000;stroke-miterlimit:1;" x1="64.512" y1="99.072" x2="43.118" y2="137.581"/>
	<line style="fill:none;stroke:#000000;stroke-miterlimit:1;" x1="43.118" y1="137.581" x2="42.13" y2="139.228"/>
	<line style="fill:none;stroke:#000000;stroke-miterlimit:1;" x1="42.13" y1="139.228" x2="41.143" y2="140.873"/>
	<line style="fill:none;stroke:#000000;stroke-miterlimit:1;" x1="41.143" y1="140.873" x2="38.839" y2="141.531"/>
	<line style="fill:none;stroke:#000000;stroke-miterlimit:1;" x1="38.839" y1="141.531" x2="30.939" y2="142.848"/>
	<line style="fill:none;stroke:#000000;stroke-miterlimit:1;" x1="30.939" y1="142.848" x2="25.673" y2="143.835"/>
	<line style="fill:none;stroke:#000000;stroke-miterlimit:1;" x1="25.673" y1="143.835" x2="23.698" y2="144.822"/>
	<line style="fill:none;stroke:#000000;stroke-miterlimit:1;" x1="23.698" y1="144.822" x2="22.382" y2="145.151"/>
	<line style="fill:none;stroke:#000000;stroke-miterlimit:1;" x1="22.382" y1="145.151" x2="20.407" y2="145.48"/>
	<line style="fill:none;stroke:#000000;stroke-miterlimit:1;" x1="20.407" y1="145.48" x2="19.749" y2="146.14"/>
	<line style="fill:none;stroke:#000000;stroke-miterlimit:1;" x1="19.749" y1="146.14" x2="19.09" y2="147.785"/>
	<line style="fill:none;stroke:#000000;stroke-miterlimit:1;" x1="19.09" y1="147.785" x2="21.065" y2="146.798"/>
	<line style="fill:none;stroke:#000000;stroke-miterlimit:1;" x1="21.065" y1="146.798" x2="23.369" y2="147.785"/>
	<line style="fill:none;stroke:#000000;stroke-miterlimit:1;" x1="26.99" y1="145.811" x2="25.673" y2="145.811"/>
	<line style="fill:none;stroke:#000000;stroke-miterlimit:1;" x1="25.673" y1="145.811" x2="24.027" y2="146.14"/>
	<line style="fill:none;stroke:#000000;stroke-miterlimit:1;" x1="24.027" y1="146.14" x2="23.369" y2="147.456"/>
	<line style="fill:none;stroke:#000000;stroke-miterlimit:1;" x1="23.369" y1="147.456" x2="24.027" y2="147.785"/>
	<line style="fill:none;stroke:#000000;stroke-miterlimit:1;" x1="24.027" y1="147.785" x2="26.002" y2="147.127"/>
	<line style="fill:none;stroke:#000000;stroke-miterlimit:1;" x1="27.319" y1="145.48" x2="29.623" y2="144.822"/>
	<line style="fill:none;stroke:#000000;stroke-miterlimit:1;" x1="29.623" y1="144.822" x2="34.889" y2="144.493"/>
	<line style="fill:none;stroke:#000000;stroke-miterlimit:1;" x1="26.332" y1="147.127" x2="28.964" y2="148.114"/>
	<line style="fill:none;stroke:#000000;stroke-miterlimit:1;" x1="28.964" y1="148.114" x2="41.143" y2="146.798"/>
	<line style="fill:none;stroke:#000000;stroke-miterlimit:1;" x1="41.143" y1="146.798" x2="43.118" y2="146.469"/>
	<line style="fill:none;stroke:#000000;stroke-miterlimit:1;" x1="43.118" y1="146.469" x2="52.992" y2="148.114"/>
	<line style="fill:none;stroke:#000000;stroke-miterlimit:1;" x1="52.992" y1="148.114" x2="53.321" y2="146.469"/>
	<line style="fill:none;stroke:#000000;stroke-miterlimit:1;" x1="53.321" y1="146.469" x2="52.992" y2="144.822"/>
	<line style="fill:none;stroke:#000000;stroke-miterlimit:1;" x1="52.992" y1="144.822" x2="50.03" y2="144.164"/>
	<line style="fill:none;stroke:#000000;stroke-miterlimit:1;" x1="50.03" y1="144.164" x2="46.08" y2="142.848"/>
	<line style="fill:none;stroke:#000000;stroke-miterlimit:1;" x1="45.751" y1="142.519" x2="45.421" y2="140.873"/>
	<line style="fill:none;stroke:#000000;stroke-miterlimit:1;" x1="45.421" y1="140.873" x2="65.829" y2="106.972"/>
	<line style="fill:none;stroke:#000000;stroke-miterlimit:1;" x1="65.829" y1="106.972" x2="70.766" y2="98.084"/>
	<line style="fill:none;stroke:#000000;stroke-miterlimit:1;" x1="70.766" y1="98.084" x2="70.766" y2="95.122"/>
	<line style="fill:none;stroke:#000000;stroke-miterlimit:1;" x1="70.766" y1="95.122" x2="67.145" y2="82.614"/>
	<line style="fill:none;stroke:#000000;stroke-miterlimit:1;" x1="53.979" y1="145.151" x2="56.283" y2="145.811"/>
	<line style="fill:none;stroke:#000000;stroke-miterlimit:1;" x1="56.283" y1="145.811" x2="57.6" y2="146.798"/>
	<line style="fill:none;stroke:#000000;stroke-miterlimit:1;" x1="57.6" y1="146.798" x2="57.929" y2="147.456"/>
	<line style="fill:none;stroke:#000000;stroke-miterlimit:1;" x1="57.929" y1="147.456" x2="56.283" y2="148.114"/>
	<line style="fill:none;stroke:#000000;stroke-miterlimit:1;" x1="56.283" y1="148.114" x2="53.979" y2="147.785"/>
	<line style="fill:none;stroke:#000000;stroke-miterlimit:1;" x1="182.318" y1="73.081" x2="223.934" y2="33.067"/>
	<line style="fill:none;stroke:#000000;stroke-miterlimit:1;" x1="167.273" y1="67.319" x2="218.492" y2="18.342"/>
	<line style="fill:none;stroke:#000000;stroke-miterlimit:1;" x1="157.35" y1="56.755" x2="208.568" y2="7.778"/>
	<line style="fill:none;stroke:#000000;stroke-miterlimit:1;" x1="152.229" y1="41.71" x2="193.203" y2="2.656"/>
	<line style="fill:none;stroke:#000000;stroke-miterlimit:1;" x1="203.127" y1="4.897" x2="199.605" y2="3.937"/>
	<line style="fill:none;stroke:#000000;stroke-miterlimit:1;" x1="199.605" y1="3.937" x2="196.084" y2="2.656"/>
	<line style="fill:none;stroke:#000000;stroke-miterlimit:1;" x1="196.084" y1="2.656" x2="192.242" y2="2.016"/>
	<line style="fill:none;stroke:#000000;stroke-miterlimit:1;" x1="192.242" y1="2.016" x2="188.402" y2="2.016"/>
	<line style="fill:none;stroke:#000000;stroke-miterlimit:1;" x1="188.402" y1="2.016" x2="184.24" y2="2.336"/>
	<line style="fill:none;stroke:#000000;stroke-miterlimit:1;" x1="184.24" y1="2.336" x2="180.719" y2="2.656"/>
	<line style="fill:none;stroke:#000000;stroke-miterlimit:1;" x1="180.719" y1="2.656" x2="176.877" y2="3.937"/>
	<line style="fill:none;stroke:#000000;stroke-miterlimit:1;" x1="176.877" y1="3.937" x2="173.355" y2="5.217"/>
	<line style="fill:none;stroke:#000000;stroke-miterlimit:1;" x1="173.355" y1="5.217" x2="169.834" y2="6.817"/>
	<line style="fill:none;stroke:#000000;stroke-miterlimit:1;" x1="169.834" y1="6.817" x2="166.633" y2="9.058"/>
	<line style="fill:none;stroke:#000000;stroke-miterlimit:1;" x1="166.633" y1="9.058" x2="164.073" y2="11.299"/>
	<line style="fill:none;stroke:#000000;stroke-miterlimit:1;" x1="164.073" y1="11.299" x2="161.512" y2="13.86"/>
	<line style="fill:none;stroke:#000000;stroke-miterlimit:1;" x1="161.512" y1="13.86" x2="159.591" y2="16.101"/>
	<line style="fill:none;stroke:#000000;stroke-miterlimit:1;" x1="159.591" y1="16.101" x2="157.67" y2="18.982"/>
	<line style="fill:none;stroke:#000000;stroke-miterlimit:1;" x1="157.67" y1="18.982" x2="155.43" y2="23.144"/>
	<line style="fill:none;stroke:#000000;stroke-miterlimit:1;" x1="155.43" y1="23.144" x2="154.469" y2="26.345"/>
	<line style="fill:none;stroke:#000000;stroke-miterlimit:1;" x1="154.469" y1="26.345" x2="153.509" y2="29.866"/>
	<line style="fill:none;stroke:#000000;stroke-miterlimit:1;" x1="153.509" y1="29.866" x2="152.869" y2="33.387"/>
	<line style="fill:none;stroke:#000000;stroke-miterlimit:1;" x1="152.869" y1="33.387" x2="152.229" y2="37.548"/>
	<line style="fill:none;stroke:#000000;stroke-miterlimit:1;" x1="152.229" y1="37.548" x2="152.229" y2="41.07"/>
	<line style="fill:none;stroke:#000000;stroke-miterlimit:1;" x1="152.229" y1="41.07" x2="152.869" y2="45.231"/>
	<line style="fill:none;stroke:#000000;stroke-miterlimit:1;" x1="152.869" y1="45.231" x2="153.829" y2="48.752"/>
	<line style="fill:none;stroke:#000000;stroke-miterlimit:1;" x1="153.829" y1="48.752" x2="154.79" y2="51.954"/>
	<line style="fill:none;stroke:#000000;stroke-miterlimit:1;" x1="154.79" y1="51.954" x2="156.39" y2="55.475"/>
	<line style="fill:none;stroke:#000000;stroke-miterlimit:1;" x1="156.39" y1="55.475" x2="157.35" y2="57.396"/>
	<line style="fill:none;stroke:#000000;stroke-miterlimit:1;" x1="157.35" y1="57.396" x2="158.631" y2="58.996"/>
	<line style="fill:none;stroke:#000000;stroke-miterlimit:1;" x1="158.631" y1="58.996" x2="161.832" y2="62.518"/>
	<line style="fill:none;stroke:#000000;stroke-miterlimit:1;" x1="161.832" y1="62.518" x2="165.033" y2="65.719"/>
	<line style="fill:none;stroke:#000000;stroke-miterlimit:1;" x1="165.033" y1="65.719" x2="167.914" y2="67.959"/>
	<line style="fill:none;stroke:#000000;stroke-miterlimit:1;" x1="167.914" y1="67.959" x2="171.436" y2="69.88"/>
	<line style="fill:none;stroke:#000000;stroke-miterlimit:1;" x1="171.436" y1="69.88" x2="175.277" y2="71.801"/>
	<line style="fill:none;stroke:#000000;stroke-miterlimit:1;" x1="175.277" y1="71.801" x2="179.117" y2="72.761"/>
	<line style="fill:none;stroke:#000000;stroke-miterlimit:1;" x1="179.117" y1="72.761" x2="182.318" y2="73.722"/>
	<line style="fill:none;stroke:#000000;stroke-miterlimit:1;" x1="182.318" y1="73.722" x2="186.16" y2="73.722"/>
	<line style="fill:none;stroke:#000000;stroke-miterlimit:1;" x1="186.16" y1="73.722" x2="190.002" y2="74.042"/>
	<line style="fill:none;stroke:#000000;stroke-miterlimit:1;" x1="190.002" y1="74.042" x2="194.484" y2="73.401"/>
	<line style="fill:none;stroke:#000000;stroke-miterlimit:1;" x1="194.484" y1="73.401" x2="197.686" y2="72.761"/>
	<line style="fill:none;stroke:#000000;stroke-miterlimit:1;" x1="197.686" y1="72.761" x2="201.525" y2="71.161"/>
	<line style="fill:none;stroke:#000000;stroke-miterlimit:1;" x1="201.525" y1="71.161" x2="205.367" y2="69.24"/>
	<line style="fill:none;stroke:#000000;stroke-miterlimit:1;" x1="205.367" y1="69.24" x2="207.928" y2="67.959"/>
	<line style="fill:none;stroke:#000000;stroke-miterlimit:1;" x1="207.928" y1="67.959" x2="210.809" y2="65.398"/>
	<line style="fill:none;stroke:#000000;stroke-miterlimit:1;" x1="210.809" y1="65.398" x2="213.691" y2="62.837"/>
	<line style="fill:none;stroke:#000000;stroke-miterlimit:1;" x1="213.691" y1="62.837" x2="216.572" y2="59.957"/>
	<line style="fill:none;stroke:#000000;stroke-miterlimit:1;" x1="216.572" y1="59.957" x2="218.812" y2="56.436"/>
	<line style="fill:none;stroke:#000000;stroke-miterlimit:1;" x1="218.812" y1="56.436" x2="221.053" y2="53.234"/>
	<line style="fill:none;stroke:#000000;stroke-miterlimit:1;" x1="221.053" y1="53.234" x2="222.654" y2="50.033"/>
	<line style="fill:none;stroke:#000000;stroke-miterlimit:1;" x1="222.654" y1="50.033" x2="223.613" y2="46.191"/>
	<line style="fill:none;stroke:#000000;stroke-miterlimit:1;" x1="223.613" y1="46.191" x2="223.934" y2="42.67"/>
	<line style="fill:none;stroke:#000000;stroke-miterlimit:1;" x1="223.934" y1="42.67" x2="224.574" y2="38.509"/>
	<line style="fill:none;stroke:#000000;stroke-miterlimit:1;" x1="224.574" y1="38.509" x2="224.254" y2="34.988"/>
	<line style="fill:none;stroke:#000000;stroke-miterlimit:1;" x1="224.254" y1="34.988" x2="223.934" y2="30.826"/>
	<line style="fill:none;stroke:#000000;stroke-miterlimit:1;" x1="223.934" y1="30.826" x2="222.975" y2="27.305"/>
	<line style="fill:none;stroke:#000000;stroke-miterlimit:1;" x1="222.975" y1="27.305" x2="221.693" y2="24.104"/>
	<line style="fill:none;stroke:#000000;stroke-miterlimit:1;" x1="221.693" y1="24.104" x2="220.094" y2="19.942"/>
	<line style="fill:none;stroke:#000000;stroke-miterlimit:1;" x1="220.094" y1="19.942" x2="217.852" y2="16.741"/>
	<line style="fill:none;stroke:#000000;stroke-miterlimit:1;" x1="217.852" y1="16.741" x2="215.611" y2="14.18"/>
	<line style="fill:none;stroke:#000000;stroke-miterlimit:1;" x1="215.611" y1="14.18" x2="213.051" y2="10.979"/>
	<line style="fill:none;stroke:#000000;stroke-miterlimit:1;" x1="213.051" y1="10.979" x2="209.85" y2="8.738"/>
	<line style="fill:none;stroke:#000000;stroke-miterlimit:1;" x1="209.85" y1="8.738" x2="206.648" y2="6.498"/>
	<line style="fill:none;stroke:#000000;stroke-miterlimit:1;" x1="206.648" y1="6.498" x2="203.127" y2="4.897"/>
	<line style="fill:none;stroke:#000000;stroke-miterlimit:1;" x1="267.631" y1="15.5" x2="263.789" y2="17.421"/>
	<line style="fill:none;stroke:#000000;stroke-miterlimit:1;" x1="263.789" y1="17.421" x2="260.908" y2="20.942"/>
	<line style="fill:none;stroke:#000000;stroke-miterlimit:1;" x1="260.908" y1="20.942" x2="259.947" y2="23.824"/>
	<line style="fill:none;stroke:#000000;stroke-miterlimit:1;" x1="259.947" y1="23.824" x2="259.307" y2="26.705"/>
	<line style="fill:none;stroke:#000000;stroke-miterlimit:1;" x1="259.307" y1="26.705" x2="260.268" y2="31.186"/>
	<line style="fill:none;stroke:#000000;stroke-miterlimit:1;" x1="260.268" y1="31.186" x2="262.508" y2="34.067"/>
	<line style="fill:none;stroke:#000000;stroke-miterlimit:1;" x1="262.508" y1="34.067" x2="264.748" y2="35.988"/>
	<line style="fill:none;stroke:#000000;stroke-miterlimit:1;" x1="264.748" y1="35.988" x2="268.59" y2="37.269"/>
	<line style="fill:none;stroke:#000000;stroke-miterlimit:1;" x1="268.59" y1="37.269" x2="271.471" y2="38.229"/>
	<line style="fill:none;stroke:#000000;stroke-miterlimit:1;" x1="271.471" y1="38.229" x2="274.992" y2="38.229"/>
	<line style="fill:none;stroke:#000000;stroke-miterlimit:1;" x1="274.992" y1="38.229" x2="278.834" y2="36.628"/>
	<line style="fill:none;stroke:#000000;stroke-miterlimit:1;" x1="278.834" y1="36.628" x2="282.035" y2="35.028"/>
	<line style="fill:none;stroke:#000000;stroke-miterlimit:1;" x1="282.035" y1="35.028" x2="283.955" y2="32.787"/>
	<line style="fill:none;stroke:#000000;stroke-miterlimit:1;" x1="283.955" y1="32.787" x2="286.197" y2="29.586"/>
	<line style="fill:none;stroke:#000000;stroke-miterlimit:1;" x1="286.197" y1="29.586" x2="287.797" y2="25.744"/>
	<line style="fill:none;stroke:#000000;stroke-miterlimit:1;" x1="287.797" y1="25.744" x2="288.758" y2="22.543"/>
	<line style="fill:none;stroke:#000000;stroke-miterlimit:1;" x1="288.758" y1="22.543" x2="289.078" y2="19.342"/>
	<line style="fill:none;stroke:#000000;stroke-miterlimit:1;" x1="289.078" y1="19.342" x2="288.758" y2="17.101"/>
	<line style="fill:none;stroke:#000000;stroke-miterlimit:1;" x1="288.758" y1="17.101" x2="288.117" y2="13.26"/>
	<line style="fill:none;stroke:#000000;stroke-miterlimit:1;" x1="288.117" y1="13.26" x2="286.518" y2="10.059"/>
	<line style="fill:none;stroke:#000000;stroke-miterlimit:1;" x1="286.518" y1="10.059" x2="283.955" y2="6.857"/>
	<line style="fill:none;stroke:#000000;stroke-miterlimit:1;" x1="283.955" y1="6.857" x2="281.395" y2="4.617"/>
	<line style="fill:none;stroke:#000000;stroke-miterlimit:1;" x1="281.395" y1="4.617" x2="279.154" y2="3.656"/>
	<line style="fill:none;stroke:#000000;stroke-miterlimit:1;" x1="279.154" y1="3.656" x2="276.914" y2="2.696"/>
	<line style="fill:none;stroke:#000000;stroke-miterlimit:1;" x1="276.914" y1="2.696" x2="273.713" y2="2.376"/>
	<line style="fill:none;stroke:#000000;stroke-miterlimit:1;" x1="273.713" y1="2.376" x2="271.15" y2="2.056"/>
	<line style="fill:none;stroke:#000000;stroke-miterlimit:1;" x1="271.15" y1="2.056" x2="267.949" y2="2.056"/>
	<line style="fill:none;stroke:#000000;stroke-miterlimit:1;" x1="267.949" y1="2.056" x2="264.109" y2="2.376"/>
	<line style="fill:none;stroke:#000000;stroke-miterlimit:1;" x1="264.109" y1="2.376" x2="259.947" y2="3.656"/>
	<line style="fill:none;stroke:#000000;stroke-miterlimit:1;" x1="259.947" y1="3.656" x2="256.426" y2="5.577"/>
	<line style="fill:none;stroke:#000000;stroke-miterlimit:1;" x1="256.426" y1="5.577" x2="254.186" y2="7.498"/>
	<line style="fill:none;stroke:#000000;stroke-miterlimit:1;" x1="254.186" y1="7.498" x2="251.625" y2="9.739"/>
	<line style="fill:none;stroke:#000000;stroke-miterlimit:1;" x1="251.625" y1="9.739" x2="249.703" y2="11.979"/>
	<line style="fill:none;stroke:#000000;stroke-miterlimit:1;" x1="249.703" y1="11.979" x2="247.783" y2="15.5"/>
	<line style="fill:none;stroke:#000000;stroke-miterlimit:1;" x1="247.783" y1="15.5" x2="245.861" y2="19.022"/>
	<line style="fill:none;stroke:#000000;stroke-miterlimit:1;" x1="245.861" y1="19.022" x2="245.223" y2="22.223"/>
	<line style="fill:none;stroke:#000000;stroke-miterlimit:1;" x1="245.223" y1="22.223" x2="244.582" y2="26.705"/>
	<line style="fill:none;stroke:#000000;stroke-miterlimit:1;" x1="244.582" y1="26.705" x2="244.262" y2="31.186"/>
	<line style="fill:none;stroke:#000000;stroke-miterlimit:1;" x1="244.262" y1="31.186" x2="244.582" y2="34.708"/>
	<line style="fill:none;stroke:#000000;stroke-miterlimit:1;" x1="244.582" y1="34.708" x2="244.902" y2="39.829"/>
	<line style="fill:none;stroke:#000000;stroke-miterlimit:1;" x1="244.902" y1="39.829" x2="246.822" y2="44.951"/>
	<line style="fill:none;stroke:#000000;stroke-miterlimit:1;" x1="246.822" y1="44.951" x2="249.703" y2="50.713"/>
	<line style="fill:none;stroke:#000000;stroke-miterlimit:1;" x1="249.703" y1="50.713" x2="254.826" y2="57.436"/>
	<line style="fill:none;stroke:#000000;stroke-miterlimit:1;" x1="254.826" y1="57.436" x2="262.828" y2="65.119"/>
	<line style="fill:none;stroke:#000000;stroke-miterlimit:1;" x1="262.828" y1="65.119" x2="274.352" y2="74.402"/>
	<line style="fill:none;stroke:#000000;stroke-miterlimit:1;" x1="274.352" y1="74.402" x2="299.322" y2="88.487"/>
	<line style="fill:none;stroke:#000000;stroke-miterlimit:1;" x1="285.566" y1="107.596" x2="289.26" y2="108.939"/>
	<line style="fill:none;stroke:#000000;stroke-miterlimit:1;" x1="289.26" y1="108.939" x2="293.627" y2="111.626"/>
	<line style="fill:none;stroke:#000000;stroke-miterlimit:1;" x1="293.627" y1="111.626" x2="298.328" y2="116.327"/>
	<line style="fill:none;stroke:#000000;stroke-miterlimit:1;" x1="298.328" y1="116.327" x2="299.672" y2="121.7"/>
	<line style="fill:none;stroke:#000000;stroke-miterlimit:1;" x1="299.672" y1="121.7" x2="300.344" y2="125.059"/>
	<line style="fill:none;stroke:#000000;stroke-miterlimit:1;" x1="300.344" y1="125.059" x2="300.344" y2="130.432"/>
	<line style="fill:none;stroke:#000000;stroke-miterlimit:1;" x1="300.344" y1="130.432" x2="298.664" y2="136.142"/>
	<line style="fill:none;stroke:#000000;stroke-miterlimit:1;" x1="298.664" y1="136.142" x2="296.312" y2="141.179"/>
	<line style="fill:none;stroke:#000000;stroke-miterlimit:1;" x1="296.312" y1="141.179" x2="293.291" y2="144.201"/>
	<line style="fill:none;stroke:#000000;stroke-miterlimit:1;" x1="293.291" y1="144.201" x2="289.596" y2="146.216"/>
	<line style="fill:none;stroke:#000000;stroke-miterlimit:1;" x1="289.596" y1="146.216" x2="285.566" y2="147.56"/>
	<line style="fill:none;stroke:#000000;stroke-miterlimit:1;" x1="285.566" y1="147.56" x2="174.406" y2="147.56"/>
	<line style="fill:none;stroke:#000000;stroke-miterlimit:1;" x1="174.406" y1="147.56" x2="166.684" y2="147.224"/>
	<line style="fill:none;stroke:#000000;stroke-miterlimit:1;" x1="166.684" y1="147.224" x2="162.317" y2="145.208"/>
	<line style="fill:none;stroke:#000000;stroke-miterlimit:1;" x1="162.317" y1="145.208" x2="158.959" y2="142.857"/>
	<line style="fill:none;stroke:#000000;stroke-miterlimit:1;" x1="158.959" y1="142.857" x2="155.601" y2="137.82"/>
	<line style="fill:none;stroke:#000000;stroke-miterlimit:1;" x1="155.601" y1="137.82" x2="153.921" y2="133.119"/>
	<line style="fill:none;stroke:#000000;stroke-miterlimit:1;" x1="153.921" y1="133.119" x2="153.25" y2="128.753"/>
	<line style="fill:none;stroke:#000000;stroke-miterlimit:1;" x1="153.25" y1="128.753" x2="153.921" y2="123.716"/>
	<line style="fill:none;stroke:#000000;stroke-miterlimit:1;" x1="153.921" y1="123.716" x2="154.929" y2="118.678"/>
	<line style="fill:none;stroke:#000000;stroke-miterlimit:1;" x1="154.929" y1="118.678" x2="157.28" y2="114.648"/>
	<line style="fill:none;stroke:#000000;stroke-miterlimit:1;" x1="157.28" y1="114.648" x2="160.974" y2="110.954"/>
	<line style="fill:none;stroke:#000000;stroke-miterlimit:1;" x1="160.974" y1="110.954" x2="165.675" y2="108.268"/>
	<line style="fill:none;stroke:#000000;stroke-miterlimit:1;" x1="165.675" y1="108.268" x2="169.033" y2="107.596"/>
	<line style="fill:none;stroke:#000000;stroke-miterlimit:1;" x1="169.033" y1="107.596" x2="285.566" y2="107.596"/>
	<line style="fill:none;stroke:#000000;stroke-miterlimit:1;" x1="285.566" y1="107.596" x2="282.543" y2="112.633"/>
	<line style="fill:none;stroke:#000000;stroke-miterlimit:1;" x1="282.543" y1="112.633" x2="280.193" y2="117.335"/>
	<line style="fill:none;stroke:#000000;stroke-miterlimit:1;" x1="280.193" y1="117.335" x2="279.186" y2="122.372"/>
	<line style="fill:none;stroke:#000000;stroke-miterlimit:1;" x1="279.186" y1="122.372" x2="278.85" y2="127.074"/>
	<line style="fill:none;stroke:#000000;stroke-miterlimit:1;" x1="278.85" y1="127.074" x2="279.186" y2="132.111"/>
	<line style="fill:none;stroke:#000000;stroke-miterlimit:1;" x1="279.186" y1="132.111" x2="280.529" y2="137.148"/>
	<line style="fill:none;stroke:#000000;stroke-miterlimit:1;" x1="280.529" y1="137.148" x2="282.543" y2="142.187"/>
	<line style="fill:none;stroke:#000000;stroke-miterlimit:1;" x1="282.543" y1="142.187" x2="285.566" y2="146.888"/>
	<line style="fill:none;stroke:#000000;stroke-miterlimit:1;" x1="285.566" y1="146.888" x2="280.529" y2="144.201"/>
	<line style="fill:none;stroke:#000000;stroke-miterlimit:1;" x1="280.529" y1="144.201" x2="268.439" y2="140.171"/>
	<line style="fill:none;stroke:#000000;stroke-miterlimit:1;" x1="268.439" y1="140.171" x2="259.035" y2="137.484"/>
	<line style="fill:none;stroke:#000000;stroke-miterlimit:1;" x1="259.035" y1="137.484" x2="248.961" y2="135.47"/>
	<line style="fill:none;stroke:#000000;stroke-miterlimit:1;" x1="248.961" y1="135.47" x2="239.895" y2="133.119"/>
	<line style="fill:none;stroke:#000000;stroke-miterlimit:1;" x1="239.895" y1="133.119" x2="227.133" y2="132.783"/>
	<line style="fill:none;stroke:#000000;stroke-miterlimit:1;" x1="227.133" y1="132.783" x2="221.088" y2="132.783"/>
	<line style="fill:none;stroke:#000000;stroke-miterlimit:1;" x1="221.088" y1="132.783" x2="208.662" y2="134.126"/>
	<line style="fill:none;stroke:#000000;stroke-miterlimit:1;" x1="208.662" y1="134.126" x2="198.922" y2="136.477"/>
	<line style="fill:none;stroke:#000000;stroke-miterlimit:1;" x1="198.922" y1="136.477" x2="190.863" y2="138.492"/>
	<line style="fill:none;stroke:#000000;stroke-miterlimit:1;" x1="190.863" y1="138.492" x2="179.445" y2="142.521"/>
	<line style="fill:none;stroke:#000000;stroke-miterlimit:1;" x1="179.445" y1="142.521" x2="168.697" y2="146.888"/>
	<line style="fill:none;stroke:#000000;stroke-miterlimit:1;" x1="284.895" y1="107.596" x2="273.477" y2="112.633"/>
	<line style="fill:none;stroke:#000000;stroke-miterlimit:1;" x1="273.477" y1="112.633" x2="263.066" y2="116.327"/>
	<line style="fill:none;stroke:#000000;stroke-miterlimit:1;" x1="263.066" y1="116.327" x2="255.006" y2="118.342"/>
	<line style="fill:none;stroke:#000000;stroke-miterlimit:1;" x1="255.006" y1="118.342" x2="245.939" y2="120.693"/>
	<line style="fill:none;stroke:#000000;stroke-miterlimit:1;" x1="245.939" y1="120.693" x2="234.52" y2="121.364"/>
	<line style="fill:none;stroke:#000000;stroke-miterlimit:1;" x1="234.52" y1="121.364" x2="226.797" y2="122.036"/>
	<line style="fill:none;stroke:#000000;stroke-miterlimit:1;" x1="226.797" y1="122.036" x2="213.699" y2="121.029"/>
	<line style="fill:none;stroke:#000000;stroke-miterlimit:1;" x1="213.699" y1="121.029" x2="202.953" y2="119.35"/>
	<line style="fill:none;stroke:#000000;stroke-miterlimit:1;" x1="202.953" y1="119.35" x2="193.549" y2="116.999"/>
	<line style="fill:none;stroke:#000000;stroke-miterlimit:1;" x1="193.549" y1="116.999" x2="185.154" y2="114.648"/>
	<line style="fill:none;stroke:#000000;stroke-miterlimit:1;" x1="185.154" y1="114.648" x2="173.064" y2="110.618"/>
	<line style="fill:none;stroke:#000000;stroke-miterlimit:1;" x1="173.064" y1="110.618" x2="168.361" y2="108.268"/>
	<line style="fill:none;stroke:#000000;stroke-miterlimit:1;" x1="168.361" y1="108.268" x2="171.385" y2="112.633"/>
	<line style="fill:none;stroke:#000000;stroke-miterlimit:1;" x1="171.385" y1="112.633" x2="173.4" y2="117.335"/>
	<line style="fill:none;stroke:#000000;stroke-miterlimit:1;" x1="173.4" y1="117.335" x2="174.406" y2="122.372"/>
	<line style="fill:none;stroke:#000000;stroke-miterlimit:1;" x1="174.406" y1="122.372" x2="174.742" y2="127.074"/>
	<line style="fill:none;stroke:#000000;stroke-miterlimit:1;" x1="174.742" y1="127.074" x2="174.406" y2="132.111"/>
	<line style="fill:none;stroke:#000000;stroke-miterlimit:1;" x1="174.406" y1="132.111" x2="173.4" y2="137.148"/>
	<line style="fill:none;stroke:#000000;stroke-miterlimit:1;" x1="173.4" y1="137.148" x2="171.385" y2="142.187"/>
	<line style="fill:none;stroke:#000000;stroke-miterlimit:1;" x1="171.385" y1="142.187" x2="168.361" y2="146.888"/>
	<line style="fill:none;stroke:#000000;stroke-miterlimit:1;" x1="320.914" y1="111.433" x2="320.914" y2="149.102"/>
	<line style="fill:none;stroke:#000000;stroke-miterlimit:1;" x1="320.914" y1="149.102" x2="328.961" y2="149.102"/>
	<line style="fill:none;stroke:#000000;stroke-miterlimit:1;" x1="328.961" y1="149.102" x2="328.961" y2="111.433"/>
	<line style="fill:none;stroke:#000000;stroke-miterlimit:1;" x1="328.961" y1="111.433" x2="320.914" y2="111.433"/>
	<line style="fill:none;stroke:#000000;stroke-miterlimit:1;" x1="320.914" y1="55.113" x2="320.914" y2="93.147"/>
	<line style="fill:none;stroke:#000000;stroke-miterlimit:1;" x1="320.914" y1="93.147" x2="328.961" y2="93.147"/>
	<line style="fill:none;stroke:#000000;stroke-miterlimit:1;" x1="328.961" y1="93.147" x2="328.961" y2="55.113"/>
	<line style="fill:none;stroke:#000000;stroke-miterlimit:1;" x1="328.961" y1="55.113" x2="320.914" y2="55.113"/>
	<line style="fill:none;stroke:#000000;stroke-miterlimit:1;" x1="320.914" y1="0.987" x2="320.914" y2="39.021"/>
	<line style="fill:none;stroke:#000000;stroke-miterlimit:1;" x1="320.914" y1="39.021" x2="328.961" y2="39.021"/>
	<line style="fill:none;stroke:#000000;stroke-miterlimit:1;" x1="328.961" y1="39.021" x2="328.961" y2="0.987"/>
	<line style="fill:none;stroke:#000000;stroke-miterlimit:1;" x1="328.961" y1="0.987" x2="320.914" y2="0.987"/>
</g>
</svg>
