<?xml version="1.0" encoding="iso-8859-1"?>
<!-- Generator: Adobe Illustrator 16.0.1, SVG Export Plug-In . SVG Version: 6.00 Build 0)  -->
<!DOCTYPE svg PUBLIC "-//W3C//DTD SVG 1.1//EN" "http://www.w3.org/Graphics/SVG/1.1/DTD/svg11.dtd">
<svg version="1.1" id="Ebene_1" xmlns="http://www.w3.org/2000/svg" xmlns:xlink="http://www.w3.org/1999/xlink" x="0px" y="0px"
	 width="215.754px" height="148.731px" viewBox="0 0 215.754 148.731" style="enable-background:new 0 0 215.754 148.731;"
	 xml:space="preserve">
<g>
	<line style="fill:none;stroke:#000000;stroke-miterlimit:1;" x1="48.96" y1="40.937" x2="51.017" y2="40.937"/>
	<line style="fill:none;stroke:#000000;stroke-miterlimit:1;" x1="51.017" y1="40.937" x2="52.251" y2="40.525"/>
	<line style="fill:none;stroke:#000000;stroke-miterlimit:1;" x1="52.251" y1="40.525" x2="54.309" y2="38.88"/>
	<line style="fill:none;stroke:#000000;stroke-miterlimit:1;" x1="54.309" y1="38.88" x2="54.72" y2="37.646"/>
	<line style="fill:none;stroke:#000000;stroke-miterlimit:1;" x1="54.72" y1="37.646" x2="55.131" y2="35.588"/>
	<line style="fill:none;stroke:#000000;stroke-miterlimit:1;" x1="55.131" y1="35.588" x2="54.309" y2="33.531"/>
	<line style="fill:none;stroke:#000000;stroke-miterlimit:1;" x1="54.309" y1="33.531" x2="53.485" y2="31.886"/>
	<line style="fill:none;stroke:#000000;stroke-miterlimit:1;" x1="53.485" y1="31.886" x2="51.84" y2="30.651"/>
	<line style="fill:none;stroke:#000000;stroke-miterlimit:1;" x1="51.84" y1="30.651" x2="49.783" y2="30.24"/>
	<line style="fill:none;stroke:#000000;stroke-miterlimit:1;" x1="49.783" y1="30.24" x2="47.314" y2="30.651"/>
	<line style="fill:none;stroke:#000000;stroke-miterlimit:1;" x1="47.314" y1="30.651" x2="45.668" y2="31.062"/>
	<line style="fill:none;stroke:#000000;stroke-miterlimit:1;" x1="45.668" y1="31.062" x2="44.434" y2="32.708"/>
	<line style="fill:none;stroke:#000000;stroke-miterlimit:1;" x1="44.434" y1="32.708" x2="43.611" y2="35.588"/>
	<line style="fill:none;stroke:#000000;stroke-miterlimit:1;" x1="43.611" y1="35.588" x2="44.022" y2="38.057"/>
	<line style="fill:none;stroke:#000000;stroke-miterlimit:1;" x1="44.022" y1="38.057" x2="45.257" y2="39.291"/>
	<line style="fill:none;stroke:#000000;stroke-miterlimit:1;" x1="45.257" y1="39.291" x2="46.491" y2="40.937"/>
	<line style="fill:none;stroke:#000000;stroke-miterlimit:1;" x1="46.491" y1="40.937" x2="47.726" y2="40.937"/>
	<line style="fill:none;stroke:#000000;stroke-miterlimit:1;" x1="47.726" y1="40.937" x2="48.96" y2="41.348"/>
	<line style="fill:none;stroke:#000000;stroke-miterlimit:1;" x1="81.874" y1="22.834" x2="80.229" y2="19.542"/>
	<line style="fill:none;stroke:#000000;stroke-miterlimit:1;" x1="80.229" y1="19.542" x2="78.171" y2="16.251"/>
	<line style="fill:none;stroke:#000000;stroke-miterlimit:1;" x1="78.171" y1="16.251" x2="76.114" y2="12.96"/>
	<line style="fill:none;stroke:#000000;stroke-miterlimit:1;" x1="76.114" y1="12.96" x2="73.646" y2="10.903"/>
	<line style="fill:none;stroke:#000000;stroke-miterlimit:1;" x1="73.646" y1="10.903" x2="70.766" y2="8.022"/>
	<line style="fill:none;stroke:#000000;stroke-miterlimit:1;" x1="70.766" y1="8.022" x2="67.886" y2="5.965"/>
	<line style="fill:none;stroke:#000000;stroke-miterlimit:1;" x1="67.886" y1="5.965" x2="64.594" y2="4.32"/>
	<line style="fill:none;stroke:#000000;stroke-miterlimit:1;" x1="64.594" y1="4.32" x2="61.303" y2="3.085"/>
	<line style="fill:none;stroke:#000000;stroke-miterlimit:1;" x1="61.303" y1="3.085" x2="57.6" y2="1.44"/>
	<line style="fill:none;stroke:#000000;stroke-miterlimit:1;" x1="57.6" y1="1.44" x2="53.897" y2="1.028"/>
	<line style="fill:none;stroke:#000000;stroke-miterlimit:1;" x1="53.897" y1="1.028" x2="50.194" y2="0.617"/>
	<line style="fill:none;stroke:#000000;stroke-miterlimit:1;" x1="50.194" y1="0.617" x2="46.903" y2="1.028"/>
	<line style="fill:none;stroke:#000000;stroke-miterlimit:1;" x1="46.903" y1="1.028" x2="43.611" y2="1.44"/>
	<line style="fill:none;stroke:#000000;stroke-miterlimit:1;" x1="43.611" y1="1.44" x2="40.32" y2="1.851"/>
	<line style="fill:none;stroke:#000000;stroke-miterlimit:1;" x1="40.32" y1="1.851" x2="37.028" y2="3.085"/>
	<line style="fill:none;stroke:#000000;stroke-miterlimit:1;" x1="37.028" y1="3.085" x2="33.326" y2="4.731"/>
	<line style="fill:none;stroke:#000000;stroke-miterlimit:1;" x1="33.326" y1="4.731" x2="30.034" y2="6.377"/>
	<line style="fill:none;stroke:#000000;stroke-miterlimit:1;" x1="30.034" y1="6.377" x2="27.154" y2="8.434"/>
	<line style="fill:none;stroke:#000000;stroke-miterlimit:1;" x1="27.154" y1="8.434" x2="23.863" y2="11.314"/>
	<line style="fill:none;stroke:#000000;stroke-miterlimit:1;" x1="23.863" y1="11.314" x2="21.806" y2="13.783"/>
	<line style="fill:none;stroke:#000000;stroke-miterlimit:1;" x1="21.806" y1="13.783" x2="19.337" y2="17.074"/>
	<line style="fill:none;stroke:#000000;stroke-miterlimit:1;" x1="19.337" y1="17.074" x2="17.691" y2="19.954"/>
	<line style="fill:none;stroke:#000000;stroke-miterlimit:1;" x1="17.691" y1="19.954" x2="16.045" y2="23.246"/>
	<line style="fill:none;stroke:#000000;stroke-miterlimit:1;" x1="16.045" y1="23.246" x2="15.223" y2="26.537"/>
	<line style="fill:none;stroke:#000000;stroke-miterlimit:1;" x1="15.223" y1="26.537" x2="13.988" y2="31.062"/>
	<line style="fill:none;stroke:#000000;stroke-miterlimit:1;" x1="13.988" y1="31.062" x2="13.988" y2="35.177"/>
	<line style="fill:none;stroke:#000000;stroke-miterlimit:1;" x1="13.988" y1="35.177" x2="13.988" y2="39.291"/>
	<line style="fill:none;stroke:#000000;stroke-miterlimit:1;" x1="13.988" y1="39.291" x2="14.811" y2="43.405"/>
	<line style="fill:none;stroke:#000000;stroke-miterlimit:1;" x1="14.811" y1="43.405" x2="15.634" y2="47.52"/>
	<line style="fill:none;stroke:#000000;stroke-miterlimit:1;" x1="15.634" y1="47.52" x2="17.28" y2="50.811"/>
	<line style="fill:none;stroke:#000000;stroke-miterlimit:1;" x1="17.28" y1="50.811" x2="18.925" y2="54.103"/>
	<line style="fill:none;stroke:#000000;stroke-miterlimit:1;" x1="18.925" y1="54.103" x2="20.983" y2="56.982"/>
	<line style="fill:none;stroke:#000000;stroke-miterlimit:1;" x1="20.983" y1="56.982" x2="23.863" y2="59.863"/>
	<line style="fill:none;stroke:#000000;stroke-miterlimit:1;" x1="23.863" y1="59.863" x2="25.92" y2="62.331"/>
	<line style="fill:none;stroke:#000000;stroke-miterlimit:1;" x1="25.92" y1="62.331" x2="29.623" y2="64.8"/>
	<line style="fill:none;stroke:#000000;stroke-miterlimit:1;" x1="29.623" y1="64.8" x2="32.091" y2="66.857"/>
	<line style="fill:none;stroke:#000000;stroke-miterlimit:1;" x1="32.091" y1="66.857" x2="36.206" y2="68.091"/>
	<line style="fill:none;stroke:#000000;stroke-miterlimit:1;" x1="36.206" y1="68.091" x2="39.908" y2="69.326"/>
	<line style="fill:none;stroke:#000000;stroke-miterlimit:1;" x1="39.908" y1="69.326" x2="42.789" y2="70.56"/>
	<line style="fill:none;stroke:#000000;stroke-miterlimit:1;" x1="42.789" y1="70.56" x2="46.903" y2="70.56"/>
	<line style="fill:none;stroke:#000000;stroke-miterlimit:1;" x1="46.903" y1="70.56" x2="50.605" y2="70.56"/>
	<line style="fill:none;stroke:#000000;stroke-miterlimit:1;" x1="50.605" y1="70.56" x2="54.72" y2="70.56"/>
	<line style="fill:none;stroke:#000000;stroke-miterlimit:1;" x1="54.72" y1="70.56" x2="58.423" y2="69.737"/>
	<line style="fill:none;stroke:#000000;stroke-miterlimit:1;" x1="58.423" y1="69.737" x2="62.125" y2="68.914"/>
	<line style="fill:none;stroke:#000000;stroke-miterlimit:1;" x1="62.125" y1="68.914" x2="65.005" y2="67.68"/>
	<line style="fill:none;stroke:#000000;stroke-miterlimit:1;" x1="65.005" y1="67.68" x2="68.297" y2="65.623"/>
	<line style="fill:none;stroke:#000000;stroke-miterlimit:1;" x1="68.297" y1="65.623" x2="71.588" y2="63.154"/>
	<line style="fill:none;stroke:#000000;stroke-miterlimit:1;" x1="71.588" y1="63.154" x2="74.057" y2="60.686"/>
	<line style="fill:none;stroke:#000000;stroke-miterlimit:1;" x1="74.057" y1="60.686" x2="76.525" y2="58.217"/>
	<line style="fill:none;stroke:#000000;stroke-miterlimit:1;" x1="76.525" y1="58.217" x2="78.994" y2="54.514"/>
	<line style="fill:none;stroke:#000000;stroke-miterlimit:1;" x1="78.994" y1="54.514" x2="80.64" y2="51.634"/>
	<line style="fill:none;stroke:#000000;stroke-miterlimit:1;" x1="80.64" y1="51.634" x2="82.286" y2="48.343"/>
	<line style="fill:none;stroke:#000000;stroke-miterlimit:1;" x1="82.286" y1="48.343" x2="83.108" y2="44.64"/>
	<line style="fill:none;stroke:#000000;stroke-miterlimit:1;" x1="83.108" y1="44.64" x2="84.343" y2="40.937"/>
	<line style="fill:none;stroke:#000000;stroke-miterlimit:1;" x1="84.343" y1="40.937" x2="84.754" y2="37.646"/>
	<line style="fill:none;stroke:#000000;stroke-miterlimit:1;" x1="84.754" y1="37.646" x2="84.754" y2="33.531"/>
	<line style="fill:none;stroke:#000000;stroke-miterlimit:1;" x1="84.754" y1="33.531" x2="84.343" y2="29.828"/>
	<line style="fill:none;stroke:#000000;stroke-miterlimit:1;" x1="84.343" y1="29.828" x2="83.108" y2="26.125"/>
	<line style="fill:none;stroke:#000000;stroke-miterlimit:1;" x1="83.108" y1="26.125" x2="82.286" y2="22.834"/>
	<line style="fill:none;stroke:#000000;stroke-miterlimit:1;" x1="100.388" y1="147.908" x2="69.531" y2="65.211"/>
	<line style="fill:none;stroke:#000000;stroke-miterlimit:1;" x1="50.194" y1="148.731" x2="50.194" y2="70.971"/>
	<line style="fill:none;stroke:#000000;stroke-miterlimit:1;" x1="0" y1="147.908" x2="29.211" y2="65.623"/>
	<line style="fill:none;stroke:#000000;stroke-miterlimit:1;" x1="193.701" y1="55.296" x2="188.105" y2="64.183"/>
	<line style="fill:none;stroke:#000000;stroke-miterlimit:1;" x1="188.105" y1="64.183" x2="183.168" y2="69.449"/>
	<line style="fill:none;stroke:#000000;stroke-miterlimit:1;" x1="183.168" y1="69.449" x2="180.205" y2="72.082"/>
	<line style="fill:none;stroke:#000000;stroke-miterlimit:1;" x1="180.205" y1="72.082" x2="175.268" y2="72.74"/>
	<line style="fill:none;stroke:#000000;stroke-miterlimit:1;" x1="175.268" y1="72.74" x2="166.381" y2="71.753"/>
	<line style="fill:none;stroke:#000000;stroke-miterlimit:1;" x1="166.381" y1="71.753" x2="156.508" y2="71.095"/>
	<line style="fill:none;stroke:#000000;stroke-miterlimit:1;" x1="156.508" y1="71.095" x2="148.607" y2="70.766"/>
	<line style="fill:none;stroke:#000000;stroke-miterlimit:1;" x1="148.607" y1="70.766" x2="146.633" y2="72.082"/>
	<line style="fill:none;stroke:#000000;stroke-miterlimit:1;" x1="146.633" y1="72.082" x2="144.328" y2="72.74"/>
	<line style="fill:none;stroke:#000000;stroke-miterlimit:1;" x1="144.328" y1="72.74" x2="142.025" y2="72.74"/>
	<line style="fill:none;stroke:#000000;stroke-miterlimit:1;" x1="142.025" y1="72.74" x2="140.051" y2="72.411"/>
	<line style="fill:none;stroke:#000000;stroke-miterlimit:1;" x1="140.051" y1="72.411" x2="138.734" y2="70.766"/>
	<line style="fill:none;stroke:#000000;stroke-miterlimit:1;" x1="138.734" y1="70.766" x2="138.734" y2="69.12"/>
	<line style="fill:none;stroke:#000000;stroke-miterlimit:1;" x1="138.734" y1="69.12" x2="139.062" y2="67.145"/>
	<line style="fill:none;stroke:#000000;stroke-miterlimit:1;" x1="139.062" y1="67.145" x2="140.051" y2="66.487"/>
	<line style="fill:none;stroke:#000000;stroke-miterlimit:1;" x1="140.051" y1="66.487" x2="143.342" y2="66.487"/>
	<line style="fill:none;stroke:#000000;stroke-miterlimit:1;" x1="143.342" y1="66.487" x2="139.721" y2="65.828"/>
	<line style="fill:none;stroke:#000000;stroke-miterlimit:1;" x1="139.721" y1="65.828" x2="139.721" y2="64.183"/>
	<line style="fill:none;stroke:#000000;stroke-miterlimit:1;" x1="139.721" y1="64.183" x2="145.646" y2="64.512"/>
	<line style="fill:none;stroke:#000000;stroke-miterlimit:1;" x1="145.646" y1="64.512" x2="148.279" y2="66.816"/>
	<line style="fill:none;stroke:#000000;stroke-miterlimit:1;" x1="148.279" y1="66.816" x2="154.861" y2="65.828"/>
	<line style="fill:none;stroke:#000000;stroke-miterlimit:1;" x1="154.861" y1="65.828" x2="161.115" y2="65.499"/>
	<line style="fill:none;stroke:#000000;stroke-miterlimit:1;" x1="161.115" y1="65.499" x2="165.395" y2="64.841"/>
	<line style="fill:none;stroke:#000000;stroke-miterlimit:1;" x1="165.395" y1="64.841" x2="170.99" y2="64.512"/>
	<line style="fill:none;stroke:#000000;stroke-miterlimit:1;" x1="170.99" y1="64.512" x2="176.584" y2="64.512"/>
	<line style="fill:none;stroke:#000000;stroke-miterlimit:1;" x1="176.584" y1="64.512" x2="180.205" y2="59.246"/>
	<line style="fill:none;stroke:#000000;stroke-miterlimit:1;" x1="180.205" y1="59.246" x2="184.154" y2="53.979"/>
	<line style="fill:none;stroke:#000000;stroke-miterlimit:1;" x1="184.154" y1="53.979" x2="189.75" y2="48.055"/>
	<line style="fill:none;stroke:#000000;stroke-miterlimit:1;" x1="177.244" y1="58.587" x2="168.686" y2="58.258"/>
	<line style="fill:none;stroke:#000000;stroke-miterlimit:1;" x1="168.686" y1="58.258" x2="159.469" y2="57.271"/>
	<line style="fill:none;stroke:#000000;stroke-miterlimit:1;" x1="159.469" y1="57.271" x2="151.57" y2="56.612"/>
	<line style="fill:none;stroke:#000000;stroke-miterlimit:1;" x1="151.57" y1="56.612" x2="145.316" y2="55.296"/>
	<line style="fill:none;stroke:#000000;stroke-miterlimit:1;" x1="145.316" y1="55.296" x2="142.025" y2="54.638"/>
	<line style="fill:none;stroke:#000000;stroke-miterlimit:1;" x1="142.025" y1="54.638" x2="139.721" y2="56.612"/>
	<line style="fill:none;stroke:#000000;stroke-miterlimit:1;" x1="139.721" y1="56.612" x2="137.088" y2="56.941"/>
	<line style="fill:none;stroke:#000000;stroke-miterlimit:1;" x1="137.088" y1="56.941" x2="135.113" y2="56.283"/>
	<line style="fill:none;stroke:#000000;stroke-miterlimit:1;" x1="135.113" y1="56.283" x2="133.797" y2="54.309"/>
	<line style="fill:none;stroke:#000000;stroke-miterlimit:1;" x1="133.797" y1="54.309" x2="133.797" y2="52.663"/>
	<line style="fill:none;stroke:#000000;stroke-miterlimit:1;" x1="133.797" y1="52.663" x2="134.125" y2="51.346"/>
	<line style="fill:none;stroke:#000000;stroke-miterlimit:1;" x1="134.125" y1="51.346" x2="135.113" y2="50.688"/>
	<line style="fill:none;stroke:#000000;stroke-miterlimit:1;" x1="135.113" y1="50.688" x2="137.746" y2="50.688"/>
	<line style="fill:none;stroke:#000000;stroke-miterlimit:1;" x1="137.746" y1="50.688" x2="139.393" y2="51.346"/>
	<line style="fill:none;stroke:#000000;stroke-miterlimit:1;" x1="139.393" y1="51.346" x2="140.051" y2="53.979"/>
	<line style="fill:none;stroke:#000000;stroke-miterlimit:1;" x1="140.051" y1="53.979" x2="139.062" y2="55.296"/>
	<line style="fill:none;stroke:#000000;stroke-miterlimit:1;" x1="139.062" y1="55.296" x2="137.088" y2="56.283"/>
	<line style="fill:none;stroke:#000000;stroke-miterlimit:1;" x1="137.088" y1="50.358" x2="134.455" y2="49.042"/>
	<line style="fill:none;stroke:#000000;stroke-miterlimit:1;" x1="134.455" y1="49.042" x2="134.455" y2="48.055"/>
	<line style="fill:none;stroke:#000000;stroke-miterlimit:1;" x1="134.455" y1="48.055" x2="139.393" y2="48.713"/>
	<line style="fill:none;stroke:#000000;stroke-miterlimit:1;" x1="139.393" y1="48.713" x2="142.354" y2="50.688"/>
	<line style="fill:none;stroke:#000000;stroke-miterlimit:1;" x1="142.354" y1="50.688" x2="151.57" y2="50.358"/>
	<line style="fill:none;stroke:#000000;stroke-miterlimit:1;" x1="151.57" y1="50.358" x2="165.064" y2="50.029"/>
	<line style="fill:none;stroke:#000000;stroke-miterlimit:1;" x1="165.064" y1="50.029" x2="171.648" y2="49.7"/>
	<line style="fill:none;stroke:#000000;stroke-miterlimit:1;" x1="171.648" y1="49.7" x2="178.561" y2="50.688"/>
	<line style="fill:none;stroke:#000000;stroke-miterlimit:1;" x1="143.342" y1="76.361" x2="142.684" y2="73.069"/>
	<line style="fill:none;stroke:#000000;stroke-miterlimit:1;" x1="141.695" y1="66.487" x2="139.062" y2="56.612"/>
	<line style="fill:none;stroke:#000000;stroke-miterlimit:1;" x1="137.416" y1="47.726" x2="129.846" y2="14.811"/>
	<line style="fill:none;stroke:#000000;stroke-miterlimit:1;" x1="129.846" y1="14.811" x2="123.922" y2="47.067"/>
	<line style="fill:none;stroke:#000000;stroke-miterlimit:1;" x1="123.922" y1="44.763" x2="114.377" y2="42.13"/>
	<line style="fill:none;stroke:#000000;stroke-miterlimit:1;" x1="119.314" y1="43.776" x2="118.326" y2="46.08"/>
	<line style="fill:none;stroke:#000000;stroke-miterlimit:1;" x1="113.061" y1="44.105" x2="129.518" y2="14.153"/>
	<line style="fill:none;stroke:#000000;stroke-miterlimit:1;" x1="177.244" y1="63.524" x2="177.244" y2="56.941"/>
	<line style="fill:none;stroke:#000000;stroke-miterlimit:1;" x1="177.244" y1="56.941" x2="177.902" y2="50.358"/>
	<line style="fill:none;stroke:#000000;stroke-miterlimit:1;" x1="177.902" y1="50.358" x2="178.561" y2="44.763"/>
	<line style="fill:none;stroke:#000000;stroke-miterlimit:1;" x1="178.561" y1="44.763" x2="180.205" y2="39.168"/>
	<line style="fill:none;stroke:#000000;stroke-miterlimit:1;" x1="180.205" y1="39.168" x2="181.521" y2="36.864"/>
	<line style="fill:none;stroke:#000000;stroke-miterlimit:1;" x1="181.521" y1="36.864" x2="183.168" y2="34.56"/>
	<line style="fill:none;stroke:#000000;stroke-miterlimit:1;" x1="183.168" y1="34.56" x2="185.143" y2="32.914"/>
	<line style="fill:none;stroke:#000000;stroke-miterlimit:1;" x1="185.143" y1="32.914" x2="188.105" y2="32.256"/>
	<line style="fill:none;stroke:#000000;stroke-miterlimit:1;" x1="188.105" y1="32.256" x2="187.117" y2="26.002"/>
	<line style="fill:none;stroke:#000000;stroke-miterlimit:1;" x1="187.117" y1="26.002" x2="179.877" y2="25.015"/>
	<line style="fill:none;stroke:#000000;stroke-miterlimit:1;" x1="179.877" y1="25.015" x2="176.914" y2="29.623"/>
	<line style="fill:none;stroke:#000000;stroke-miterlimit:1;" x1="176.914" y1="29.623" x2="174.281" y2="31.598"/>
	<line style="fill:none;stroke:#000000;stroke-miterlimit:1;" x1="174.281" y1="31.598" x2="173.293" y2="30.61"/>
	<line style="fill:none;stroke:#000000;stroke-miterlimit:1;" x1="173.293" y1="30.61" x2="176.256" y2="28.306"/>
	<line style="fill:none;stroke:#000000;stroke-miterlimit:1;" x1="176.256" y1="28.306" x2="178.23" y2="24.027"/>
	<line style="fill:none;stroke:#000000;stroke-miterlimit:1;" x1="178.23" y1="24.027" x2="177.902" y2="19.09"/>
	<line style="fill:none;stroke:#000000;stroke-miterlimit:1;" x1="177.902" y1="19.09" x2="175.598" y2="17.115"/>
	<line style="fill:none;stroke:#000000;stroke-miterlimit:1;" x1="175.598" y1="17.115" x2="175.926" y2="16.786"/>
	<line style="fill:none;stroke:#000000;stroke-miterlimit:1;" x1="175.926" y1="16.786" x2="179.219" y2="12.507"/>
	<line style="fill:none;stroke:#000000;stroke-miterlimit:1;" x1="179.219" y1="12.507" x2="179.877" y2="9.874"/>
	<line style="fill:none;stroke:#000000;stroke-miterlimit:1;" x1="179.877" y1="9.874" x2="194.029" y2="12.178"/>
	<line style="fill:none;stroke:#000000;stroke-miterlimit:1;" x1="194.029" y1="12.178" x2="195.018" y2="11.19"/>
	<line style="fill:none;stroke:#000000;stroke-miterlimit:1;" x1="195.018" y1="11.19" x2="196.992" y2="12.178"/>
	<line style="fill:none;stroke:#000000;stroke-miterlimit:1;" x1="196.992" y1="12.178" x2="196.992" y2="14.482"/>
	<line style="fill:none;stroke:#000000;stroke-miterlimit:1;" x1="196.992" y1="14.482" x2="196.334" y2="16.457"/>
	<line style="fill:none;stroke:#000000;stroke-miterlimit:1;" x1="196.334" y1="16.457" x2="193.371" y2="20.078"/>
	<line style="fill:none;stroke:#000000;stroke-miterlimit:1;" x1="193.371" y1="20.078" x2="194.029" y2="45.421"/>
	<line style="fill:none;stroke:#000000;stroke-miterlimit:1;" x1="194.029" y1="45.421" x2="207.195" y2="45.421"/>
	<line style="fill:none;stroke:#000000;stroke-miterlimit:1;" x1="207.195" y1="45.421" x2="205.879" y2="12.507"/>
	<line style="fill:none;stroke:#000000;stroke-miterlimit:1;" x1="205.879" y1="12.507" x2="204.232" y2="6.583"/>
	<line style="fill:none;stroke:#000000;stroke-miterlimit:1;" x1="204.232" y1="6.583" x2="201.271" y2="2.304"/>
	<line style="fill:none;stroke:#000000;stroke-miterlimit:1;" x1="201.271" y1="2.304" x2="197.32" y2="0.658"/>
	<line style="fill:none;stroke:#000000;stroke-miterlimit:1;" x1="197.32" y1="0.658" x2="193.043" y2="0"/>
	<line style="fill:none;stroke:#000000;stroke-miterlimit:1;" x1="193.043" y1="0" x2="188.764" y2="0.658"/>
	<line style="fill:none;stroke:#000000;stroke-miterlimit:1;" x1="188.764" y1="0.658" x2="185.143" y2="2.304"/>
	<line style="fill:none;stroke:#000000;stroke-miterlimit:1;" x1="185.143" y1="2.304" x2="182.51" y2="4.937"/>
	<line style="fill:none;stroke:#000000;stroke-miterlimit:1;" x1="182.51" y1="4.937" x2="180.535" y2="9.545"/>
	<line style="fill:none;stroke:#000000;stroke-miterlimit:1;" x1="200.283" y1="45.75" x2="199.953" y2="62.537"/>
	<line style="fill:none;stroke:#000000;stroke-miterlimit:1;" x1="181.521" y1="14.811" x2="186.459" y2="15.47"/>
	<line style="fill:none;stroke:#000000;stroke-miterlimit:1;" x1="186.459" y1="15.47" x2="184.484" y2="13.495"/>
	<line style="fill:none;stroke:#000000;stroke-miterlimit:1;" x1="184.484" y1="13.495" x2="181.521" y2="14.482"/>
	<line style="fill:none;stroke:#000000;stroke-miterlimit:1;" x1="176.584" y1="72.411" x2="175.598" y2="74.715"/>
	<line style="fill:none;stroke:#000000;stroke-miterlimit:1;" x1="175.598" y1="74.715" x2="168.027" y2="77.02"/>
	<line style="fill:none;stroke:#000000;stroke-miterlimit:1;" x1="168.027" y1="77.02" x2="156.508" y2="78.665"/>
	<line style="fill:none;stroke:#000000;stroke-miterlimit:1;" x1="156.508" y1="78.665" x2="147.621" y2="80.311"/>
	<line style="fill:none;stroke:#000000;stroke-miterlimit:1;" x1="147.621" y1="80.311" x2="141.367" y2="81.956"/>
	<line style="fill:none;stroke:#000000;stroke-miterlimit:1;" x1="141.367" y1="81.956" x2="137.416" y2="83.932"/>
	<line style="fill:none;stroke:#000000;stroke-miterlimit:1;" x1="137.416" y1="83.932" x2="135.113" y2="85.577"/>
	<line style="fill:none;stroke:#000000;stroke-miterlimit:1;" x1="135.113" y1="85.577" x2="133.467" y2="89.197"/>
	<line style="fill:none;stroke:#000000;stroke-miterlimit:1;" x1="133.467" y1="89.197" x2="132.15" y2="92.818"/>
	<line style="fill:none;stroke:#000000;stroke-miterlimit:1;" x1="132.15" y1="92.818" x2="132.48" y2="99.73"/>
	<line style="fill:none;stroke:#000000;stroke-miterlimit:1;" x1="132.48" y1="99.73" x2="131.164" y2="109.604"/>
	<line style="fill:none;stroke:#000000;stroke-miterlimit:1;" x1="131.164" y1="109.604" x2="130.506" y2="121.782"/>
	<line style="fill:none;stroke:#000000;stroke-miterlimit:1;" x1="130.506" y1="121.782" x2="129.846" y2="130.999"/>
	<line style="fill:none;stroke:#000000;stroke-miterlimit:1;" x1="129.846" y1="130.999" x2="128.529" y2="136.265"/>
	<line style="fill:none;stroke:#000000;stroke-miterlimit:1;" x1="128.529" y1="136.265" x2="127.213" y2="138.24"/>
	<line style="fill:none;stroke:#000000;stroke-miterlimit:1;" x1="127.213" y1="138.24" x2="124.252" y2="140.873"/>
	<line style="fill:none;stroke:#000000;stroke-miterlimit:1;" x1="124.252" y1="140.873" x2="120.631" y2="142.519"/>
	<line style="fill:none;stroke:#000000;stroke-miterlimit:1;" x1="120.631" y1="142.519" x2="117.668" y2="143.506"/>
	<line style="fill:none;stroke:#000000;stroke-miterlimit:1;" x1="117.668" y1="143.506" x2="114.047" y2="144.493"/>
	<line style="fill:none;stroke:#000000;stroke-miterlimit:1;" x1="114.047" y1="144.493" x2="111.414" y2="144.822"/>
	<line style="fill:none;stroke:#000000;stroke-miterlimit:1;" x1="111.414" y1="144.822" x2="111.086" y2="147.785"/>
	<line style="fill:none;stroke:#000000;stroke-miterlimit:1;" x1="111.086" y1="147.785" x2="120.959" y2="148.114"/>
	<line style="fill:none;stroke:#000000;stroke-miterlimit:1;" x1="120.959" y1="148.114" x2="126.555" y2="146.469"/>
	<line style="fill:none;stroke:#000000;stroke-miterlimit:1;" x1="126.555" y1="146.469" x2="130.834" y2="147.785"/>
	<line style="fill:none;stroke:#000000;stroke-miterlimit:1;" x1="130.834" y1="147.785" x2="133.797" y2="147.785"/>
	<line style="fill:none;stroke:#000000;stroke-miterlimit:1;" x1="133.797" y1="147.785" x2="135.771" y2="146.798"/>
	<line style="fill:none;stroke:#000000;stroke-miterlimit:1;" x1="135.771" y1="146.798" x2="137.088" y2="144.493"/>
	<line style="fill:none;stroke:#000000;stroke-miterlimit:1;" x1="137.088" y1="144.493" x2="136.758" y2="143.835"/>
	<line style="fill:none;stroke:#000000;stroke-miterlimit:1;" x1="136.758" y1="143.835" x2="136.1" y2="139.228"/>
	<line style="fill:none;stroke:#000000;stroke-miterlimit:1;" x1="136.1" y1="139.228" x2="136.758" y2="132.974"/>
	<line style="fill:none;stroke:#000000;stroke-miterlimit:1;" x1="136.758" y1="132.974" x2="138.734" y2="125.732"/>
	<line style="fill:none;stroke:#000000;stroke-miterlimit:1;" x1="138.734" y1="125.732" x2="141.367" y2="118.162"/>
	<line style="fill:none;stroke:#000000;stroke-miterlimit:1;" x1="141.367" y1="118.162" x2="142.684" y2="110.263"/>
	<line style="fill:none;stroke:#000000;stroke-miterlimit:1;" x1="142.684" y1="110.263" x2="143.012" y2="102.363"/>
	<line style="fill:none;stroke:#000000;stroke-miterlimit:1;" x1="143.012" y1="102.363" x2="144.328" y2="97.426"/>
	<line style="fill:none;stroke:#000000;stroke-miterlimit:1;" x1="144.328" y1="97.426" x2="146.305" y2="94.464"/>
	<line style="fill:none;stroke:#000000;stroke-miterlimit:1;" x1="146.305" y1="94.464" x2="149.266" y2="93.477"/>
	<line style="fill:none;stroke:#000000;stroke-miterlimit:1;" x1="149.266" y1="93.477" x2="150.912" y2="93.147"/>
	<line style="fill:none;stroke:#000000;stroke-miterlimit:1;" x1="153.215" y1="93.147" x2="151.57" y2="95.122"/>
	<line style="fill:none;stroke:#000000;stroke-miterlimit:1;" x1="151.57" y1="95.122" x2="149.596" y2="98.742"/>
	<line style="fill:none;stroke:#000000;stroke-miterlimit:1;" x1="149.596" y1="98.742" x2="148.607" y2="104.338"/>
	<line style="fill:none;stroke:#000000;stroke-miterlimit:1;" x1="148.607" y1="104.338" x2="149.266" y2="113.554"/>
	<line style="fill:none;stroke:#000000;stroke-miterlimit:1;" x1="149.266" y1="113.554" x2="149.596" y2="120.466"/>
	<line style="fill:none;stroke:#000000;stroke-miterlimit:1;" x1="149.596" y1="120.466" x2="150.254" y2="126.391"/>
	<line style="fill:none;stroke:#000000;stroke-miterlimit:1;" x1="150.254" y1="126.391" x2="150.582" y2="131.657"/>
	<line style="fill:none;stroke:#000000;stroke-miterlimit:1;" x1="150.582" y1="131.657" x2="149.924" y2="136.923"/>
	<line style="fill:none;stroke:#000000;stroke-miterlimit:1;" x1="149.924" y1="136.923" x2="148.279" y2="139.886"/>
	<line style="fill:none;stroke:#000000;stroke-miterlimit:1;" x1="148.279" y1="139.886" x2="145.646" y2="142.848"/>
	<line style="fill:none;stroke:#000000;stroke-miterlimit:1;" x1="145.646" y1="142.848" x2="144" y2="144.164"/>
	<line style="fill:none;stroke:#000000;stroke-miterlimit:1;" x1="144" y1="144.164" x2="143.342" y2="146.469"/>
	<line style="fill:none;stroke:#000000;stroke-miterlimit:1;" x1="143.342" y1="146.469" x2="143.342" y2="147.785"/>
	<line style="fill:none;stroke:#000000;stroke-miterlimit:1;" x1="143.342" y1="147.785" x2="146.633" y2="148.114"/>
	<line style="fill:none;stroke:#000000;stroke-miterlimit:1;" x1="147.621" y1="145.48" x2="146.963" y2="148.114"/>
	<line style="fill:none;stroke:#000000;stroke-miterlimit:1;" x1="146.963" y1="148.114" x2="152.229" y2="147.785"/>
	<line style="fill:none;stroke:#000000;stroke-miterlimit:1;" x1="152.229" y1="147.785" x2="152.887" y2="145.811"/>
	<line style="fill:none;stroke:#000000;stroke-miterlimit:1;" x1="152.887" y1="145.811" x2="152.887" y2="143.506"/>
	<line style="fill:none;stroke:#000000;stroke-miterlimit:1;" x1="152.887" y1="143.506" x2="152.557" y2="141.531"/>
	<line style="fill:none;stroke:#000000;stroke-miterlimit:1;" x1="152.557" y1="141.531" x2="153.215" y2="139.886"/>
	<line style="fill:none;stroke:#000000;stroke-miterlimit:1;" x1="153.215" y1="139.886" x2="153.875" y2="138.569"/>
	<line style="fill:none;stroke:#000000;stroke-miterlimit:1;" x1="153.875" y1="138.569" x2="156.836" y2="137.91"/>
	<line style="fill:none;stroke:#000000;stroke-miterlimit:1;" x1="156.836" y1="137.91" x2="156.178" y2="135.936"/>
	<line style="fill:none;stroke:#000000;stroke-miterlimit:1;" x1="156.178" y1="135.936" x2="155.52" y2="133.632"/>
	<line style="fill:none;stroke:#000000;stroke-miterlimit:1;" x1="155.52" y1="133.632" x2="156.508" y2="117.833"/>
	<line style="fill:none;stroke:#000000;stroke-miterlimit:1;" x1="156.508" y1="117.833" x2="157.166" y2="108.617"/>
	<line style="fill:none;stroke:#000000;stroke-miterlimit:1;" x1="157.166" y1="108.617" x2="157.494" y2="104.667"/>
	<line style="fill:none;stroke:#000000;stroke-miterlimit:1;" x1="157.494" y1="104.667" x2="157.494" y2="101.705"/>
	<line style="fill:none;stroke:#000000;stroke-miterlimit:1;" x1="157.494" y1="101.705" x2="158.482" y2="100.389"/>
	<line style="fill:none;stroke:#000000;stroke-miterlimit:1;" x1="158.482" y1="100.389" x2="159.799" y2="99.401"/>
	<line style="fill:none;stroke:#000000;stroke-miterlimit:1;" x1="159.799" y1="99.401" x2="199.295" y2="99.73"/>
	<line style="fill:none;stroke:#000000;stroke-miterlimit:1;" x1="199.295" y1="99.73" x2="199.953" y2="104.009"/>
	<line style="fill:none;stroke:#000000;stroke-miterlimit:1;" x1="199.953" y1="104.009" x2="200.941" y2="107.63"/>
	<line style="fill:none;stroke:#000000;stroke-miterlimit:1;" x1="200.941" y1="107.63" x2="202.258" y2="111.25"/>
	<line style="fill:none;stroke:#000000;stroke-miterlimit:1;" x1="202.258" y1="111.25" x2="205.221" y2="115.529"/>
	<line style="fill:none;stroke:#000000;stroke-miterlimit:1;" x1="205.221" y1="115.529" x2="207.195" y2="118.162"/>
	<line style="fill:none;stroke:#000000;stroke-miterlimit:1;" x1="207.195" y1="118.162" x2="208.842" y2="120.137"/>
	<line style="fill:none;stroke:#000000;stroke-miterlimit:1;" x1="208.842" y1="120.137" x2="207.854" y2="135.936"/>
	<line style="fill:none;stroke:#000000;stroke-miterlimit:1;" x1="207.854" y1="135.936" x2="206.865" y2="140.215"/>
	<line style="fill:none;stroke:#000000;stroke-miterlimit:1;" x1="206.865" y1="140.215" x2="204.562" y2="141.86"/>
	<line style="fill:none;stroke:#000000;stroke-miterlimit:1;" x1="204.562" y1="141.86" x2="203.246" y2="143.835"/>
	<line style="fill:none;stroke:#000000;stroke-miterlimit:1;" x1="203.246" y1="143.835" x2="201.93" y2="145.151"/>
	<line style="fill:none;stroke:#000000;stroke-miterlimit:1;" x1="201.93" y1="145.151" x2="201.6" y2="148.114"/>
	<line style="fill:none;stroke:#000000;stroke-miterlimit:1;" x1="201.6" y1="148.114" x2="204.562" y2="147.785"/>
	<line style="fill:none;stroke:#000000;stroke-miterlimit:1;" x1="205.879" y1="144.822" x2="204.891" y2="148.114"/>
	<line style="fill:none;stroke:#000000;stroke-miterlimit:1;" x1="204.891" y1="148.114" x2="210.816" y2="147.785"/>
	<line style="fill:none;stroke:#000000;stroke-miterlimit:1;" x1="210.816" y1="147.785" x2="211.145" y2="144.493"/>
	<line style="fill:none;stroke:#000000;stroke-miterlimit:1;" x1="211.145" y1="144.493" x2="210.816" y2="141.86"/>
	<line style="fill:none;stroke:#000000;stroke-miterlimit:1;" x1="210.816" y1="141.86" x2="212.133" y2="138.569"/>
	<line style="fill:none;stroke:#000000;stroke-miterlimit:1;" x1="212.133" y1="138.569" x2="212.791" y2="130.67"/>
	<line style="fill:none;stroke:#000000;stroke-miterlimit:1;" x1="212.791" y1="130.67" x2="212.791" y2="125.403"/>
	<line style="fill:none;stroke:#000000;stroke-miterlimit:1;" x1="212.791" y1="125.403" x2="214.107" y2="121.453"/>
	<line style="fill:none;stroke:#000000;stroke-miterlimit:1;" x1="214.107" y1="121.453" x2="215.424" y2="119.149"/>
	<line style="fill:none;stroke:#000000;stroke-miterlimit:1;" x1="215.424" y1="119.149" x2="215.754" y2="117.833"/>
	<line style="fill:none;stroke:#000000;stroke-miterlimit:1;" x1="215.754" y1="117.833" x2="211.803" y2="113.554"/>
	<line style="fill:none;stroke:#000000;stroke-miterlimit:1;" x1="211.803" y1="113.554" x2="209.828" y2="109.275"/>
	<line style="fill:none;stroke:#000000;stroke-miterlimit:1;" x1="209.828" y1="109.275" x2="209.5" y2="104.667"/>
	<line style="fill:none;stroke:#000000;stroke-miterlimit:1;" x1="209.5" y1="104.667" x2="209.5" y2="100.06"/>
	<line style="fill:none;stroke:#000000;stroke-miterlimit:1;" x1="209.5" y1="100.06" x2="211.475" y2="95.78"/>
	<line style="fill:none;stroke:#000000;stroke-miterlimit:1;" x1="211.475" y1="95.78" x2="213.119" y2="93.806"/>
	<line style="fill:none;stroke:#000000;stroke-miterlimit:1;" x1="213.119" y1="93.806" x2="214.436" y2="92.16"/>
	<line style="fill:none;stroke:#000000;stroke-miterlimit:1;" x1="214.436" y1="92.16" x2="215.094" y2="90.514"/>
	<line style="fill:none;stroke:#000000;stroke-miterlimit:1;" x1="215.094" y1="90.514" x2="215.424" y2="66.816"/>
	<line style="fill:none;stroke:#000000;stroke-miterlimit:1;" x1="215.424" y1="66.816" x2="214.766" y2="64.841"/>
	<line style="fill:none;stroke:#000000;stroke-miterlimit:1;" x1="214.766" y1="64.841" x2="212.461" y2="63.195"/>
	<line style="fill:none;stroke:#000000;stroke-miterlimit:1;" x1="212.461" y1="63.195" x2="204.232" y2="63.524"/>
	<line style="fill:none;stroke:#000000;stroke-miterlimit:1;" x1="204.232" y1="63.524" x2="201.6" y2="65.17"/>
	<line style="fill:none;stroke:#000000;stroke-miterlimit:1;" x1="201.6" y1="65.17" x2="199.295" y2="100.06"/>
	<line style="fill:none;stroke:#000000;stroke-miterlimit:1;" x1="199.625" y1="62.866" x2="199.295" y2="75.045"/>
	<line style="fill:none;stroke:#000000;stroke-miterlimit:1;" x1="199.295" y1="75.045" x2="198.967" y2="82.614"/>
	<line style="fill:none;stroke:#000000;stroke-miterlimit:1;" x1="198.967" y1="82.614" x2="198.637" y2="86.564"/>
	<line style="fill:none;stroke:#000000;stroke-miterlimit:1;" x1="198.637" y1="86.564" x2="197.32" y2="88.868"/>
	<line style="fill:none;stroke:#000000;stroke-miterlimit:1;" x1="197.32" y1="88.868" x2="196.004" y2="90.843"/>
	<line style="fill:none;stroke:#000000;stroke-miterlimit:1;" x1="196.004" y1="90.843" x2="192.713" y2="93.147"/>
	<line style="fill:none;stroke:#000000;stroke-miterlimit:1;" x1="151.24" y1="93.477" x2="199.625" y2="93.147"/>
</g>
</svg>
