<?xml version="1.0" encoding="iso-8859-1"?>
<!-- Generator: Adobe Illustrator 16.0.1, SVG Export Plug-In . SVG Version: 6.00 Build 0)  -->
<!DOCTYPE svg PUBLIC "-//W3C//DTD SVG 1.1//EN" "http://www.w3.org/Graphics/SVG/1.1/DTD/svg11.dtd">
<svg version="1.1" id="Ebene_1" xmlns="http://www.w3.org/2000/svg" xmlns:xlink="http://www.w3.org/1999/xlink" x="0px" y="0px"
	 width="96.959px" height="148.113px" viewBox="0 0 96.959 148.113" style="enable-background:new 0 0 96.959 148.113;"
	 xml:space="preserve">
<g>
	<line style="fill:none;stroke:#000000;stroke-miterlimit:1;" x1="34.245" y1="88.621" x2="37.43" y2="89.219"/>
	<line style="fill:none;stroke:#000000;stroke-miterlimit:1;" x1="37.43" y1="89.219" x2="42.208" y2="90.812"/>
	<line style="fill:none;stroke:#000000;stroke-miterlimit:1;" x1="42.208" y1="90.812" x2="46.588" y2="91.012"/>
	<line style="fill:none;stroke:#000000;stroke-miterlimit:1;" x1="46.588" y1="91.012" x2="54.154" y2="90.613"/>
	<line style="fill:none;stroke:#000000;stroke-miterlimit:1;" x1="54.154" y1="90.613" x2="57.738" y2="89.617"/>
	<line style="fill:none;stroke:#000000;stroke-miterlimit:1;" x1="57.738" y1="89.617" x2="61.719" y2="89.418"/>
	<line style="fill:none;stroke:#000000;stroke-miterlimit:1;" x1="61.719" y1="89.418" x2="65.9" y2="89.816"/>
	<line style="fill:none;stroke:#000000;stroke-miterlimit:1;" x1="65.9" y1="89.816" x2="71.275" y2="90.812"/>
	<line style="fill:none;stroke:#000000;stroke-miterlimit:1;" x1="71.275" y1="90.812" x2="76.652" y2="91.012"/>
	<line style="fill:none;stroke:#000000;stroke-miterlimit:1;" x1="76.652" y1="91.012" x2="81.629" y2="91.012"/>
	<line style="fill:none;stroke:#000000;stroke-miterlimit:1;" x1="81.629" y1="91.012" x2="85.611" y2="90.812"/>
	<line style="fill:none;stroke:#000000;stroke-miterlimit:1;" x1="85.611" y1="90.812" x2="89.395" y2="90.414"/>
	<line style="fill:none;stroke:#000000;stroke-miterlimit:1;" x1="89.395" y1="90.414" x2="93.973" y2="91.211"/>
	<line style="fill:none;stroke:#000000;stroke-miterlimit:1;" x1="93.973" y1="91.211" x2="95.566" y2="91.609"/>
	<line style="fill:none;stroke:#000000;stroke-miterlimit:1;" x1="95.566" y1="91.609" x2="96.76" y2="91.012"/>
	<line style="fill:none;stroke:#000000;stroke-miterlimit:1;" x1="96.76" y1="91.012" x2="96.959" y2="72.496"/>
	<line style="fill:none;stroke:#000000;stroke-miterlimit:1;" x1="96.959" y1="72.496" x2="94.371" y2="72.296"/>
	<line style="fill:none;stroke:#000000;stroke-miterlimit:1;" x1="94.371" y1="72.296" x2="93.973" y2="74.884"/>
	<line style="fill:none;stroke:#000000;stroke-miterlimit:1;" x1="93.973" y1="74.884" x2="93.773" y2="76.875"/>
	<line style="fill:none;stroke:#000000;stroke-miterlimit:1;" x1="93.773" y1="76.875" x2="92.777" y2="81.256"/>
	<line style="fill:none;stroke:#000000;stroke-miterlimit:1;" x1="92.777" y1="81.256" x2="91.584" y2="83.246"/>
	<line style="fill:none;stroke:#000000;stroke-miterlimit:1;" x1="91.584" y1="83.246" x2="89.594" y2="83.645"/>
	<line style="fill:none;stroke:#000000;stroke-miterlimit:1;" x1="89.594" y1="83.645" x2="87.203" y2="83.645"/>
	<line style="fill:none;stroke:#000000;stroke-miterlimit:1;" x1="87.203" y1="83.645" x2="82.824" y2="82.848"/>
	<line style="fill:none;stroke:#000000;stroke-miterlimit:1;" x1="82.824" y1="82.848" x2="76.055" y2="81.654"/>
	<line style="fill:none;stroke:#000000;stroke-miterlimit:1;" x1="76.055" y1="81.654" x2="67.295" y2="79.662"/>
	<line style="fill:none;stroke:#000000;stroke-miterlimit:1;" x1="67.295" y1="79.662" x2="58.932" y2="77.672"/>
	<line style="fill:none;stroke:#000000;stroke-miterlimit:1;" x1="58.932" y1="77.672" x2="50.969" y2="75.682"/>
	<line style="fill:none;stroke:#000000;stroke-miterlimit:1;" x1="50.969" y1="75.682" x2="44" y2="74.486"/>
	<line style="fill:none;stroke:#000000;stroke-miterlimit:1;" x1="44" y1="74.486" x2="37.43" y2="74.287"/>
	<line style="fill:none;stroke:#000000;stroke-miterlimit:1;" x1="37.43" y1="74.287" x2="29.665" y2="74.884"/>
	<line style="fill:none;stroke:#000000;stroke-miterlimit:1;" x1="29.665" y1="74.884" x2="25.882" y2="75.881"/>
	<line style="fill:none;stroke:#000000;stroke-miterlimit:1;" x1="25.882" y1="75.881" x2="22.299" y2="78.27"/>
	<line style="fill:none;stroke:#000000;stroke-miterlimit:1;" x1="22.299" y1="78.27" x2="19.511" y2="78.07"/>
	<line style="fill:none;stroke:#000000;stroke-miterlimit:1;" x1="19.511" y1="78.07" x2="18.516" y2="72.496"/>
	<line style="fill:none;stroke:#000000;stroke-miterlimit:1;" x1="18.516" y1="72.496" x2="22.697" y2="67.717"/>
	<line style="fill:none;stroke:#000000;stroke-miterlimit:1;" x1="22.697" y1="67.717" x2="24.688" y2="69.509"/>
	<line style="fill:none;stroke:#000000;stroke-miterlimit:1;" x1="24.688" y1="69.509" x2="18.715" y2="72.496"/>
	<line style="fill:none;stroke:#000000;stroke-miterlimit:1;" x1="18.715" y1="72.496" x2="14.335" y2="72.097"/>
	<line style="fill:none;stroke:#000000;stroke-miterlimit:1;" x1="14.335" y1="72.097" x2="13.539" y2="68.514"/>
	<line style="fill:none;stroke:#000000;stroke-miterlimit:1;" x1="13.539" y1="68.514" x2="12.742" y2="68.514"/>
	<line style="fill:none;stroke:#000000;stroke-miterlimit:1;" x1="12.742" y1="68.514" x2="11.349" y2="69.708"/>
	<line style="fill:none;stroke:#000000;stroke-miterlimit:1;" x1="11.349" y1="69.708" x2="9.357" y2="71.5"/>
	<line style="fill:none;stroke:#000000;stroke-miterlimit:1;" x1="9.357" y1="71.5" x2="8.362" y2="71.898"/>
	<line style="fill:none;stroke:#000000;stroke-miterlimit:1;" x1="8.362" y1="71.898" x2="7.367" y2="72.097"/>
	<line style="fill:none;stroke:#000000;stroke-miterlimit:1;" x1="7.367" y1="72.097" x2="5.973" y2="72.694"/>
	<line style="fill:none;stroke:#000000;stroke-miterlimit:1;" x1="5.973" y1="72.694" x2="4.38" y2="73.292"/>
	<line style="fill:none;stroke:#000000;stroke-miterlimit:1;" x1="4.38" y1="73.292" x2="2.389" y2="74.287"/>
	<line style="fill:none;stroke:#000000;stroke-miterlimit:1;" x1="2.389" y1="74.287" x2="1.195" y2="75.682"/>
	<line style="fill:none;stroke:#000000;stroke-miterlimit:1;" x1="1.195" y1="75.682" x2="0.597" y2="77.273"/>
	<line style="fill:none;stroke:#000000;stroke-miterlimit:1;" x1="0.597" y1="77.273" x2="0" y2="78.668"/>
	<line style="fill:none;stroke:#000000;stroke-miterlimit:1;" x1="0" y1="78.668" x2="0" y2="79.861"/>
	<line style="fill:none;stroke:#000000;stroke-miterlimit:1;" x1="0" y1="79.861" x2="0" y2="81.654"/>
	<line style="fill:none;stroke:#000000;stroke-miterlimit:1;" x1="0" y1="81.654" x2="0.398" y2="83.645"/>
	<line style="fill:none;stroke:#000000;stroke-miterlimit:1;" x1="0.398" y1="83.645" x2="1.195" y2="85.039"/>
	<line style="fill:none;stroke:#000000;stroke-miterlimit:1;" x1="1.195" y1="85.039" x2="2.19" y2="86.83"/>
	<line style="fill:none;stroke:#000000;stroke-miterlimit:1;" x1="2.19" y1="86.83" x2="3.186" y2="87.826"/>
	<line style="fill:none;stroke:#000000;stroke-miterlimit:1;" x1="3.186" y1="87.826" x2="3.783" y2="88.424"/>
	<line style="fill:none;stroke:#000000;stroke-miterlimit:1;" x1="3.783" y1="88.424" x2="6.371" y2="89.816"/>
	<line style="fill:none;stroke:#000000;stroke-miterlimit:1;" x1="6.371" y1="89.816" x2="9.955" y2="90.812"/>
	<line style="fill:none;stroke:#000000;stroke-miterlimit:1;" x1="9.955" y1="90.812" x2="13.14" y2="91.609"/>
	<line style="fill:none;stroke:#000000;stroke-miterlimit:1;" x1="13.14" y1="91.609" x2="33.448" y2="91.609"/>
	<line style="fill:none;stroke:#000000;stroke-miterlimit:1;" x1="7.566" y1="72.097" x2="7.964" y2="80.061"/>
	<line style="fill:none;stroke:#000000;stroke-miterlimit:1;" x1="7.964" y1="80.061" x2="10.353" y2="80.061"/>
	<line style="fill:none;stroke:#000000;stroke-miterlimit:1;" x1="10.353" y1="80.061" x2="10.154" y2="80.857"/>
	<line style="fill:none;stroke:#000000;stroke-miterlimit:1;" x1="10.154" y1="80.857" x2="10.154" y2="82.449"/>
	<line style="fill:none;stroke:#000000;stroke-miterlimit:1;" x1="10.154" y1="82.449" x2="11.149" y2="83.645"/>
	<line style="fill:none;stroke:#000000;stroke-miterlimit:1;" x1="11.149" y1="83.645" x2="12.742" y2="83.645"/>
	<line style="fill:none;stroke:#000000;stroke-miterlimit:1;" x1="12.742" y1="83.645" x2="13.937" y2="83.246"/>
	<line style="fill:none;stroke:#000000;stroke-miterlimit:1;" x1="13.937" y1="83.246" x2="15.131" y2="82.449"/>
	<line style="fill:none;stroke:#000000;stroke-miterlimit:1;" x1="15.131" y1="82.449" x2="15.529" y2="81.654"/>
	<line style="fill:none;stroke:#000000;stroke-miterlimit:1;" x1="15.529" y1="81.654" x2="34.045" y2="81.654"/>
	<line style="fill:none;stroke:#000000;stroke-miterlimit:1;" x1="34.045" y1="81.654" x2="34.045" y2="91.609"/>
	<line style="fill:none;stroke:#000000;stroke-miterlimit:1;" x1="11.547" y1="74.088" x2="12.344" y2="75.482"/>
	<line style="fill:none;stroke:#000000;stroke-miterlimit:1;" x1="12.344" y1="75.482" x2="11.946" y2="77.273"/>
	<line style="fill:none;stroke:#000000;stroke-miterlimit:1;" x1="32.179" y1="62.715" x2="44.125" y2="62.715"/>
	<line style="fill:none;stroke:#000000;stroke-miterlimit:1;" x1="44.125" y1="62.715" x2="43.925" y2="58.335"/>
	<line style="fill:none;stroke:#000000;stroke-miterlimit:1;" x1="43.925" y1="58.335" x2="45.12" y2="52.561"/>
	<line style="fill:none;stroke:#000000;stroke-miterlimit:1;" x1="45.12" y1="52.561" x2="46.314" y2="49.176"/>
	<line style="fill:none;stroke:#000000;stroke-miterlimit:1;" x1="46.314" y1="49.176" x2="48.704" y2="43.801"/>
	<line style="fill:none;stroke:#000000;stroke-miterlimit:1;" x1="48.704" y1="43.801" x2="59.654" y2="24.489"/>
	<line style="fill:none;stroke:#000000;stroke-miterlimit:1;" x1="59.654" y1="24.489" x2="60.252" y2="20.308"/>
	<line style="fill:none;stroke:#000000;stroke-miterlimit:1;" x1="60.252" y1="20.308" x2="60.451" y2="18.317"/>
	<line style="fill:none;stroke:#000000;stroke-miterlimit:1;" x1="60.451" y1="18.317" x2="60.053" y2="14.733"/>
	<line style="fill:none;stroke:#000000;stroke-miterlimit:1;" x1="60.053" y1="14.733" x2="59.455" y2="12.344"/>
	<line style="fill:none;stroke:#000000;stroke-miterlimit:1;" x1="59.455" y1="12.344" x2="58.459" y2="9.357"/>
	<line style="fill:none;stroke:#000000;stroke-miterlimit:1;" x1="58.459" y1="9.357" x2="56.668" y2="6.57"/>
	<line style="fill:none;stroke:#000000;stroke-miterlimit:1;" x1="56.668" y1="6.57" x2="55.273" y2="4.978"/>
	<line style="fill:none;stroke:#000000;stroke-miterlimit:1;" x1="55.273" y1="4.978" x2="51.689" y2="1.593"/>
	<line style="fill:none;stroke:#000000;stroke-miterlimit:1;" x1="51.689" y1="1.593" x2="48.903" y2="0.597"/>
	<line style="fill:none;stroke:#000000;stroke-miterlimit:1;" x1="48.903" y1="0.597" x2="43.129" y2="0"/>
	<line style="fill:none;stroke:#000000;stroke-miterlimit:1;" x1="43.129" y1="0" x2="38.351" y2="0.597"/>
	<line style="fill:none;stroke:#000000;stroke-miterlimit:1;" x1="38.351" y1="0.597" x2="36.36" y2="1.394"/>
	<line style="fill:none;stroke:#000000;stroke-miterlimit:1;" x1="36.36" y1="1.394" x2="33.971" y2="2.986"/>
	<line style="fill:none;stroke:#000000;stroke-miterlimit:1;" x1="33.971" y1="2.986" x2="31.781" y2="5.375"/>
	<line style="fill:none;stroke:#000000;stroke-miterlimit:1;" x1="31.781" y1="5.375" x2="30.785" y2="6.769"/>
	<line style="fill:none;stroke:#000000;stroke-miterlimit:1;" x1="30.785" y1="6.769" x2="29.79" y2="7.964"/>
	<line style="fill:none;stroke:#000000;stroke-miterlimit:1;" x1="29.192" y1="8.163" x2="27.4" y2="8.959"/>
	<line style="fill:none;stroke:#000000;stroke-miterlimit:1;" x1="27.4" y1="8.959" x2="7.889" y2="12.742"/>
	<line style="fill:none;stroke:#000000;stroke-miterlimit:1;" x1="7.889" y1="12.742" x2="6.097" y2="14.136"/>
	<line style="fill:none;stroke:#000000;stroke-miterlimit:1;" x1="6.097" y1="14.136" x2="4.704" y2="15.131"/>
	<line style="fill:none;stroke:#000000;stroke-miterlimit:1;" x1="4.704" y1="15.131" x2="3.509" y2="17.321"/>
	<line style="fill:none;stroke:#000000;stroke-miterlimit:1;" x1="3.509" y1="17.321" x2="3.111" y2="20.507"/>
	<line style="fill:none;stroke:#000000;stroke-miterlimit:1;" x1="3.111" y1="20.507" x2="3.31" y2="21.303"/>
	<line style="fill:none;stroke:#000000;stroke-miterlimit:1;" x1="3.31" y1="21.303" x2="3.907" y2="21.701"/>
	<line style="fill:none;stroke:#000000;stroke-miterlimit:1;" x1="3.907" y1="21.701" x2="4.306" y2="21.701"/>
	<line style="fill:none;stroke:#000000;stroke-miterlimit:1;" x1="4.306" y1="21.701" x2="5.301" y2="21.303"/>
	<line style="fill:none;stroke:#000000;stroke-miterlimit:1;" x1="5.301" y1="21.303" x2="5.699" y2="19.511"/>
	<line style="fill:none;stroke:#000000;stroke-miterlimit:1;" x1="5.699" y1="19.511" x2="6.894" y2="17.719"/>
	<line style="fill:none;stroke:#000000;stroke-miterlimit:1;" x1="6.894" y1="17.719" x2="8.686" y2="16.126"/>
	<line style="fill:none;stroke:#000000;stroke-miterlimit:1;" x1="8.686" y1="16.126" x2="10.677" y2="15.529"/>
	<line style="fill:none;stroke:#000000;stroke-miterlimit:1;" x1="10.677" y1="15.529" x2="13.265" y2="14.733"/>
	<line style="fill:none;stroke:#000000;stroke-miterlimit:1;" x1="13.265" y1="14.733" x2="29.392" y2="12.543"/>
	<line style="fill:none;stroke:#000000;stroke-miterlimit:1;" x1="29.392" y1="12.543" x2="29.79" y2="12.344"/>
	<line style="fill:none;stroke:#000000;stroke-miterlimit:1;" x1="29.79" y1="12.344" x2="32.179" y2="12.742"/>
	<line style="fill:none;stroke:#000000;stroke-miterlimit:1;" x1="29.392" y1="8.163" x2="32.179" y2="12.941"/>
	<line style="fill:none;stroke:#000000;stroke-miterlimit:1;" x1="32.179" y1="12.941" x2="32.179" y2="15.529"/>
	<line style="fill:none;stroke:#000000;stroke-miterlimit:1;" x1="6.097" y1="19.312" x2="7.889" y2="18.118"/>
	<line style="fill:none;stroke:#000000;stroke-miterlimit:1;" x1="7.889" y1="18.118" x2="10.875" y2="17.321"/>
	<line style="fill:none;stroke:#000000;stroke-miterlimit:1;" x1="10.875" y1="17.321" x2="18.64" y2="16.525"/>
	<line style="fill:none;stroke:#000000;stroke-miterlimit:1;" x1="18.64" y1="16.525" x2="26.405" y2="15.529"/>
	<line style="fill:none;stroke:#000000;stroke-miterlimit:1;" x1="26.405" y1="15.529" x2="29.59" y2="15.529"/>
	<line style="fill:none;stroke:#000000;stroke-miterlimit:1;" x1="29.59" y1="15.529" x2="32.378" y2="15.529"/>
	<line style="fill:none;stroke:#000000;stroke-miterlimit:1;" x1="32.378" y1="15.529" x2="33.971" y2="15.729"/>
	<line style="fill:none;stroke:#000000;stroke-miterlimit:1;" x1="33.971" y1="15.729" x2="37.156" y2="16.525"/>
	<line style="fill:none;stroke:#000000;stroke-miterlimit:1;" x1="37.156" y1="16.525" x2="42.731" y2="17.521"/>
	<line style="fill:none;stroke:#000000;stroke-miterlimit:1;" x1="42.731" y1="17.521" x2="45.717" y2="17.719"/>
	<line style="fill:none;stroke:#000000;stroke-miterlimit:1;" x1="45.717" y1="17.719" x2="47.907" y2="17.521"/>
	<line style="fill:none;stroke:#000000;stroke-miterlimit:1;" x1="47.907" y1="17.521" x2="50.297" y2="16.923"/>
	<line style="fill:none;stroke:#000000;stroke-miterlimit:1;" x1="50.297" y1="16.923" x2="51.689" y2="17.719"/>
	<line style="fill:none;stroke:#000000;stroke-miterlimit:1;" x1="51.689" y1="17.719" x2="52.287" y2="18.715"/>
	<line style="fill:none;stroke:#000000;stroke-miterlimit:1;" x1="52.287" y1="18.715" x2="52.486" y2="21.104"/>
	<line style="fill:none;stroke:#000000;stroke-miterlimit:1;" x1="52.486" y1="21.104" x2="52.287" y2="23.095"/>
	<line style="fill:none;stroke:#000000;stroke-miterlimit:1;" x1="52.287" y1="23.095" x2="51.291" y2="25.484"/>
	<line style="fill:none;stroke:#000000;stroke-miterlimit:1;" x1="51.291" y1="25.484" x2="42.532" y2="37.032"/>
	<line style="fill:none;stroke:#000000;stroke-miterlimit:1;" x1="42.532" y1="37.032" x2="38.152" y2="44"/>
	<line style="fill:none;stroke:#000000;stroke-miterlimit:1;" x1="38.152" y1="44" x2="36.36" y2="47.583"/>
	<line style="fill:none;stroke:#000000;stroke-miterlimit:1;" x1="36.36" y1="47.583" x2="34.17" y2="51.765"/>
	<line style="fill:none;stroke:#000000;stroke-miterlimit:1;" x1="34.17" y1="51.765" x2="32.975" y2="57.14"/>
	<line style="fill:none;stroke:#000000;stroke-miterlimit:1;" x1="32.975" y1="57.14" x2="32.179" y2="62.715"/>
	<line style="fill:none;stroke:#000000;stroke-miterlimit:1;" x1="49.301" y1="0.796" x2="59.654" y2="4.579"/>
	<line style="fill:none;stroke:#000000;stroke-miterlimit:1;" x1="59.654" y1="4.579" x2="69.809" y2="7.167"/>
	<line style="fill:none;stroke:#000000;stroke-miterlimit:1;" x1="69.809" y1="7.167" x2="73.988" y2="7.964"/>
	<line style="fill:none;stroke:#000000;stroke-miterlimit:1;" x1="73.988" y1="7.964" x2="77.572" y2="8.163"/>
	<line style="fill:none;stroke:#000000;stroke-miterlimit:1;" x1="77.572" y1="8.163" x2="81.953" y2="8.163"/>
	<line style="fill:none;stroke:#000000;stroke-miterlimit:1;" x1="81.953" y1="8.163" x2="86.73" y2="7.964"/>
	<line style="fill:none;stroke:#000000;stroke-miterlimit:1;" x1="86.73" y1="7.964" x2="90.314" y2="7.167"/>
	<line style="fill:none;stroke:#000000;stroke-miterlimit:1;" x1="90.314" y1="7.167" x2="93.898" y2="6.371"/>
	<line style="fill:none;stroke:#000000;stroke-miterlimit:1;" x1="93.898" y1="6.371" x2="94.297" y2="6.769"/>
	<line style="fill:none;stroke:#000000;stroke-miterlimit:1;" x1="94.297" y1="6.769" x2="93.898" y2="8.163"/>
	<line style="fill:none;stroke:#000000;stroke-miterlimit:1;" x1="93.898" y1="8.163" x2="92.504" y2="9.158"/>
	<line style="fill:none;stroke:#000000;stroke-miterlimit:1;" x1="92.504" y1="9.158" x2="87.727" y2="10.154"/>
	<line style="fill:none;stroke:#000000;stroke-miterlimit:1;" x1="87.727" y1="10.154" x2="82.947" y2="10.751"/>
	<line style="fill:none;stroke:#000000;stroke-miterlimit:1;" x1="82.947" y1="10.751" x2="77.572" y2="10.751"/>
	<line style="fill:none;stroke:#000000;stroke-miterlimit:1;" x1="77.572" y1="10.751" x2="72.994" y2="10.353"/>
	<line style="fill:none;stroke:#000000;stroke-miterlimit:1;" x1="72.994" y1="10.353" x2="65.229" y2="8.959"/>
	<line style="fill:none;stroke:#000000;stroke-miterlimit:1;" x1="65.229" y1="8.959" x2="60.848" y2="7.565"/>
	<line style="fill:none;stroke:#000000;stroke-miterlimit:1;" x1="55.273" y1="4.579" x2="63.039" y2="8.76"/>
	<line style="fill:none;stroke:#000000;stroke-miterlimit:1;" x1="63.039" y1="8.76" x2="70.803" y2="12.742"/>
	<line style="fill:none;stroke:#000000;stroke-miterlimit:1;" x1="70.803" y1="12.742" x2="75.582" y2="15.131"/>
	<line style="fill:none;stroke:#000000;stroke-miterlimit:1;" x1="75.582" y1="15.131" x2="79.166" y2="16.525"/>
	<line style="fill:none;stroke:#000000;stroke-miterlimit:1;" x1="79.166" y1="16.525" x2="83.146" y2="17.521"/>
	<line style="fill:none;stroke:#000000;stroke-miterlimit:1;" x1="83.146" y1="17.521" x2="85.934" y2="17.918"/>
	<line style="fill:none;stroke:#000000;stroke-miterlimit:1;" x1="85.934" y1="17.918" x2="91.111" y2="18.516"/>
	<line style="fill:none;stroke:#000000;stroke-miterlimit:1;" x1="91.111" y1="18.516" x2="93.301" y2="18.118"/>
	<line style="fill:none;stroke:#000000;stroke-miterlimit:1;" x1="93.301" y1="18.118" x2="94.297" y2="17.918"/>
	<line style="fill:none;stroke:#000000;stroke-miterlimit:1;" x1="94.297" y1="17.918" x2="95.092" y2="18.516"/>
	<line style="fill:none;stroke:#000000;stroke-miterlimit:1;" x1="95.092" y1="18.516" x2="95.291" y2="19.71"/>
	<line style="fill:none;stroke:#000000;stroke-miterlimit:1;" x1="95.291" y1="19.71" x2="92.305" y2="20.706"/>
	<line style="fill:none;stroke:#000000;stroke-miterlimit:1;" x1="92.305" y1="20.706" x2="88.723" y2="21.104"/>
	<line style="fill:none;stroke:#000000;stroke-miterlimit:1;" x1="88.723" y1="21.104" x2="84.74" y2="20.507"/>
	<line style="fill:none;stroke:#000000;stroke-miterlimit:1;" x1="84.74" y1="20.507" x2="79.166" y2="19.312"/>
	<line style="fill:none;stroke:#000000;stroke-miterlimit:1;" x1="79.166" y1="19.312" x2="74.387" y2="17.719"/>
	<line style="fill:none;stroke:#000000;stroke-miterlimit:1;" x1="74.387" y1="17.719" x2="69.809" y2="15.529"/>
	<line style="fill:none;stroke:#000000;stroke-miterlimit:1;" x1="69.809" y1="15.529" x2="58.658" y2="9.158"/>
	<line style="fill:none;stroke:#000000;stroke-miterlimit:1;" x1="38.55" y1="5.774" x2="37.355" y2="5.973"/>
	<line style="fill:none;stroke:#000000;stroke-miterlimit:1;" x1="37.355" y1="5.973" x2="36.36" y2="7.167"/>
	<line style="fill:none;stroke:#000000;stroke-miterlimit:1;" x1="36.36" y1="7.167" x2="36.36" y2="8.561"/>
	<line style="fill:none;stroke:#000000;stroke-miterlimit:1;" x1="36.36" y1="8.561" x2="37.355" y2="9.557"/>
	<line style="fill:none;stroke:#000000;stroke-miterlimit:1;" x1="37.355" y1="9.557" x2="38.749" y2="9.557"/>
	<line style="fill:none;stroke:#000000;stroke-miterlimit:1;" x1="38.749" y1="9.557" x2="40.143" y2="8.959"/>
	<line style="fill:none;stroke:#000000;stroke-miterlimit:1;" x1="40.143" y1="8.959" x2="40.342" y2="8.163"/>
	<line style="fill:none;stroke:#000000;stroke-miterlimit:1;" x1="40.342" y1="8.163" x2="39.943" y2="6.968"/>
	<line style="fill:none;stroke:#000000;stroke-miterlimit:1;" x1="39.943" y1="6.968" x2="38.948" y2="5.774"/>
	<line style="fill:none;stroke:#000000;stroke-miterlimit:1;" x1="4.978" y1="102.559" x2="4.978" y2="148.113"/>
	<line style="fill:none;stroke:#000000;stroke-miterlimit:1;" x1="4.978" y1="148.113" x2="13.076" y2="148.113"/>
	<line style="fill:none;stroke:#000000;stroke-miterlimit:1;" x1="13.076" y1="148.113" x2="13.076" y2="102.559"/>
	<line style="fill:none;stroke:#000000;stroke-miterlimit:1;" x1="13.076" y1="102.559" x2="4.978" y2="102.559"/>
	<line style="fill:none;stroke:#000000;stroke-miterlimit:1;" x1="45.471" y1="102.559" x2="45.471" y2="148.113"/>
	<line style="fill:none;stroke:#000000;stroke-miterlimit:1;" x1="45.471" y1="148.113" x2="53.822" y2="148.113"/>
	<line style="fill:none;stroke:#000000;stroke-miterlimit:1;" x1="53.822" y1="148.113" x2="53.822" y2="102.559"/>
	<line style="fill:none;stroke:#000000;stroke-miterlimit:1;" x1="53.822" y1="102.559" x2="45.471" y2="102.559"/>
	<line style="fill:none;stroke:#000000;stroke-miterlimit:1;" x1="86.471" y1="102.559" x2="86.471" y2="148.113"/>
	<line style="fill:none;stroke:#000000;stroke-miterlimit:1;" x1="86.471" y1="148.113" x2="94.57" y2="148.113"/>
	<line style="fill:none;stroke:#000000;stroke-miterlimit:1;" x1="94.57" y1="148.113" x2="94.57" y2="102.559"/>
	<line style="fill:none;stroke:#000000;stroke-miterlimit:1;" x1="94.57" y1="102.559" x2="86.471" y2="102.559"/>
</g>
</svg>
