<?xml version="1.0" encoding="iso-8859-1"?>
<!-- Generator: Adobe Illustrator 16.0.1, SVG Export Plug-In . SVG Version: 6.00 Build 0)  -->
<!DOCTYPE svg PUBLIC "-//W3C//DTD SVG 1.1//EN" "http://www.w3.org/Graphics/SVG/1.1/DTD/svg11.dtd">
<svg version="1.1" id="Ebene_1" xmlns="http://www.w3.org/2000/svg" xmlns:xlink="http://www.w3.org/1999/xlink" x="0px" y="0px"
	 width="192.508px" height="148.114px" viewBox="0 0 192.508 148.114" style="enable-background:new 0 0 192.508 148.114;"
	 xml:space="preserve">
<g>
	<line style="fill:none;stroke:#000000;stroke-miterlimit:1;" x1="39.168" y1="48.301" x2="40.813" y2="48.301"/>
	<line style="fill:none;stroke:#000000;stroke-miterlimit:1;" x1="40.813" y1="48.301" x2="41.801" y2="47.972"/>
	<line style="fill:none;stroke:#000000;stroke-miterlimit:1;" x1="41.801" y1="47.972" x2="43.447" y2="46.656"/>
	<line style="fill:none;stroke:#000000;stroke-miterlimit:1;" x1="43.447" y1="46.656" x2="43.776" y2="45.668"/>
	<line style="fill:none;stroke:#000000;stroke-miterlimit:1;" x1="43.776" y1="45.668" x2="44.105" y2="44.022"/>
	<line style="fill:none;stroke:#000000;stroke-miterlimit:1;" x1="44.105" y1="44.022" x2="43.447" y2="42.377"/>
	<line style="fill:none;stroke:#000000;stroke-miterlimit:1;" x1="43.447" y1="42.377" x2="42.789" y2="41.061"/>
	<line style="fill:none;stroke:#000000;stroke-miterlimit:1;" x1="42.789" y1="41.061" x2="41.472" y2="40.073"/>
	<line style="fill:none;stroke:#000000;stroke-miterlimit:1;" x1="41.472" y1="40.073" x2="39.826" y2="39.744"/>
	<line style="fill:none;stroke:#000000;stroke-miterlimit:1;" x1="39.826" y1="39.744" x2="37.852" y2="40.073"/>
	<line style="fill:none;stroke:#000000;stroke-miterlimit:1;" x1="37.852" y1="40.073" x2="36.535" y2="40.402"/>
	<line style="fill:none;stroke:#000000;stroke-miterlimit:1;" x1="36.535" y1="40.402" x2="35.547" y2="41.719"/>
	<line style="fill:none;stroke:#000000;stroke-miterlimit:1;" x1="35.547" y1="41.719" x2="34.889" y2="44.022"/>
	<line style="fill:none;stroke:#000000;stroke-miterlimit:1;" x1="34.889" y1="44.022" x2="35.218" y2="45.998"/>
	<line style="fill:none;stroke:#000000;stroke-miterlimit:1;" x1="35.218" y1="45.998" x2="36.206" y2="46.985"/>
	<line style="fill:none;stroke:#000000;stroke-miterlimit:1;" x1="36.206" y1="46.985" x2="37.193" y2="48.301"/>
	<line style="fill:none;stroke:#000000;stroke-miterlimit:1;" x1="37.193" y1="48.301" x2="38.181" y2="48.301"/>
	<line style="fill:none;stroke:#000000;stroke-miterlimit:1;" x1="38.181" y1="48.301" x2="39.168" y2="48.631"/>
	<line style="fill:none;stroke:#000000;stroke-miterlimit:1;" x1="65.5" y1="33.819" x2="64.183" y2="31.186"/>
	<line style="fill:none;stroke:#000000;stroke-miterlimit:1;" x1="64.183" y1="31.186" x2="62.537" y2="28.553"/>
	<line style="fill:none;stroke:#000000;stroke-miterlimit:1;" x1="62.537" y1="28.553" x2="60.891" y2="25.92"/>
	<line style="fill:none;stroke:#000000;stroke-miterlimit:1;" x1="60.891" y1="25.92" x2="58.917" y2="24.274"/>
	<line style="fill:none;stroke:#000000;stroke-miterlimit:1;" x1="58.917" y1="24.274" x2="56.612" y2="21.97"/>
	<line style="fill:none;stroke:#000000;stroke-miterlimit:1;" x1="56.612" y1="21.97" x2="54.309" y2="20.324"/>
	<line style="fill:none;stroke:#000000;stroke-miterlimit:1;" x1="54.309" y1="20.324" x2="51.675" y2="19.008"/>
	<line style="fill:none;stroke:#000000;stroke-miterlimit:1;" x1="51.675" y1="19.008" x2="49.042" y2="18.021"/>
	<line style="fill:none;stroke:#000000;stroke-miterlimit:1;" x1="49.042" y1="18.021" x2="46.08" y2="16.704"/>
	<line style="fill:none;stroke:#000000;stroke-miterlimit:1;" x1="46.08" y1="16.704" x2="43.118" y2="16.375"/>
	<line style="fill:none;stroke:#000000;stroke-miterlimit:1;" x1="43.118" y1="16.375" x2="40.155" y2="16.045"/>
	<line style="fill:none;stroke:#000000;stroke-miterlimit:1;" x1="40.155" y1="16.045" x2="37.522" y2="16.375"/>
	<line style="fill:none;stroke:#000000;stroke-miterlimit:1;" x1="37.522" y1="16.375" x2="34.889" y2="16.704"/>
	<line style="fill:none;stroke:#000000;stroke-miterlimit:1;" x1="34.889" y1="16.704" x2="32.256" y2="17.033"/>
	<line style="fill:none;stroke:#000000;stroke-miterlimit:1;" x1="32.256" y1="17.033" x2="29.623" y2="18.021"/>
	<line style="fill:none;stroke:#000000;stroke-miterlimit:1;" x1="29.623" y1="18.021" x2="26.661" y2="19.337"/>
	<line style="fill:none;stroke:#000000;stroke-miterlimit:1;" x1="26.661" y1="19.337" x2="24.027" y2="20.653"/>
	<line style="fill:none;stroke:#000000;stroke-miterlimit:1;" x1="24.027" y1="20.653" x2="21.723" y2="22.299"/>
	<line style="fill:none;stroke:#000000;stroke-miterlimit:1;" x1="21.723" y1="22.299" x2="19.09" y2="24.603"/>
	<line style="fill:none;stroke:#000000;stroke-miterlimit:1;" x1="19.09" y1="24.603" x2="17.444" y2="26.578"/>
	<line style="fill:none;stroke:#000000;stroke-miterlimit:1;" x1="17.444" y1="26.578" x2="15.47" y2="29.211"/>
	<line style="fill:none;stroke:#000000;stroke-miterlimit:1;" x1="15.47" y1="29.211" x2="14.153" y2="31.515"/>
	<line style="fill:none;stroke:#000000;stroke-miterlimit:1;" x1="14.153" y1="31.515" x2="12.836" y2="34.148"/>
	<line style="fill:none;stroke:#000000;stroke-miterlimit:1;" x1="12.836" y1="34.148" x2="12.178" y2="36.781"/>
	<line style="fill:none;stroke:#000000;stroke-miterlimit:1;" x1="12.178" y1="36.781" x2="11.191" y2="40.402"/>
	<line style="fill:none;stroke:#000000;stroke-miterlimit:1;" x1="11.191" y1="40.402" x2="11.191" y2="43.693"/>
	<line style="fill:none;stroke:#000000;stroke-miterlimit:1;" x1="11.191" y1="43.693" x2="11.191" y2="46.985"/>
	<line style="fill:none;stroke:#000000;stroke-miterlimit:1;" x1="11.191" y1="46.985" x2="11.849" y2="50.276"/>
	<line style="fill:none;stroke:#000000;stroke-miterlimit:1;" x1="11.849" y1="50.276" x2="12.507" y2="53.568"/>
	<line style="fill:none;stroke:#000000;stroke-miterlimit:1;" x1="12.507" y1="53.568" x2="13.824" y2="56.201"/>
	<line style="fill:none;stroke:#000000;stroke-miterlimit:1;" x1="13.824" y1="56.201" x2="15.141" y2="58.834"/>
	<line style="fill:none;stroke:#000000;stroke-miterlimit:1;" x1="15.141" y1="58.834" x2="16.786" y2="61.138"/>
	<line style="fill:none;stroke:#000000;stroke-miterlimit:1;" x1="16.786" y1="61.138" x2="19.09" y2="63.442"/>
	<line style="fill:none;stroke:#000000;stroke-miterlimit:1;" x1="19.09" y1="63.442" x2="20.736" y2="65.417"/>
	<line style="fill:none;stroke:#000000;stroke-miterlimit:1;" x1="20.736" y1="65.417" x2="23.698" y2="67.392"/>
	<line style="fill:none;stroke:#000000;stroke-miterlimit:1;" x1="23.698" y1="67.392" x2="25.673" y2="69.038"/>
	<line style="fill:none;stroke:#000000;stroke-miterlimit:1;" x1="25.673" y1="69.038" x2="28.964" y2="70.025"/>
	<line style="fill:none;stroke:#000000;stroke-miterlimit:1;" x1="28.964" y1="70.025" x2="31.927" y2="71.012"/>
	<line style="fill:none;stroke:#000000;stroke-miterlimit:1;" x1="31.927" y1="71.012" x2="34.231" y2="72"/>
	<line style="fill:none;stroke:#000000;stroke-miterlimit:1;" x1="34.231" y1="72" x2="37.522" y2="72"/>
	<line style="fill:none;stroke:#000000;stroke-miterlimit:1;" x1="37.522" y1="72" x2="40.484" y2="72"/>
	<line style="fill:none;stroke:#000000;stroke-miterlimit:1;" x1="40.484" y1="72" x2="43.776" y2="72"/>
	<line style="fill:none;stroke:#000000;stroke-miterlimit:1;" x1="43.776" y1="72" x2="46.738" y2="71.341"/>
	<line style="fill:none;stroke:#000000;stroke-miterlimit:1;" x1="46.738" y1="71.341" x2="49.701" y2="70.683"/>
	<line style="fill:none;stroke:#000000;stroke-miterlimit:1;" x1="49.701" y1="70.683" x2="52.004" y2="69.696"/>
	<line style="fill:none;stroke:#000000;stroke-miterlimit:1;" x1="52.004" y1="69.696" x2="54.638" y2="68.05"/>
	<line style="fill:none;stroke:#000000;stroke-miterlimit:1;" x1="54.638" y1="68.05" x2="57.271" y2="66.075"/>
	<line style="fill:none;stroke:#000000;stroke-miterlimit:1;" x1="57.271" y1="66.075" x2="59.246" y2="64.101"/>
	<line style="fill:none;stroke:#000000;stroke-miterlimit:1;" x1="59.246" y1="64.101" x2="61.221" y2="62.125"/>
	<line style="fill:none;stroke:#000000;stroke-miterlimit:1;" x1="61.221" y1="62.125" x2="63.195" y2="59.163"/>
	<line style="fill:none;stroke:#000000;stroke-miterlimit:1;" x1="63.195" y1="59.163" x2="64.512" y2="56.859"/>
	<line style="fill:none;stroke:#000000;stroke-miterlimit:1;" x1="64.512" y1="56.859" x2="65.829" y2="54.226"/>
	<line style="fill:none;stroke:#000000;stroke-miterlimit:1;" x1="65.829" y1="54.226" x2="66.487" y2="51.264"/>
	<line style="fill:none;stroke:#000000;stroke-miterlimit:1;" x1="66.487" y1="51.264" x2="67.474" y2="48.301"/>
	<line style="fill:none;stroke:#000000;stroke-miterlimit:1;" x1="67.474" y1="48.301" x2="67.803" y2="45.668"/>
	<line style="fill:none;stroke:#000000;stroke-miterlimit:1;" x1="67.803" y1="45.668" x2="67.803" y2="42.377"/>
	<line style="fill:none;stroke:#000000;stroke-miterlimit:1;" x1="67.803" y1="42.377" x2="67.474" y2="39.415"/>
	<line style="fill:none;stroke:#000000;stroke-miterlimit:1;" x1="67.474" y1="39.415" x2="66.487" y2="36.452"/>
	<line style="fill:none;stroke:#000000;stroke-miterlimit:1;" x1="66.487" y1="36.452" x2="65.829" y2="33.819"/>
	<line style="fill:none;stroke:#000000;stroke-miterlimit:1;" x1="80.311" y1="133.879" x2="55.625" y2="67.721"/>
	<line style="fill:none;stroke:#000000;stroke-miterlimit:1;" x1="40.155" y1="134.537" x2="40.155" y2="72.329"/>
	<line style="fill:none;stroke:#000000;stroke-miterlimit:1;" x1="0" y1="133.879" x2="23.369" y2="68.05"/>
	<line style="fill:none;stroke:#000000;stroke-miterlimit:1;" x1="179.67" y1="70.107" x2="180.33" y2="82.943"/>
	<line style="fill:none;stroke:#000000;stroke-miterlimit:1;" x1="180.33" y1="82.943" x2="179.67" y2="96.768"/>
	<line style="fill:none;stroke:#000000;stroke-miterlimit:1;" x1="179.67" y1="96.768" x2="175.721" y2="136.594"/>
	<line style="fill:none;stroke:#000000;stroke-miterlimit:1;" x1="175.721" y1="136.594" x2="192.508" y2="148.114"/>
	<line style="fill:none;stroke:#000000;stroke-miterlimit:1;" x1="192.508" y1="148.114" x2="99.031" y2="148.114"/>
	<line style="fill:none;stroke:#000000;stroke-miterlimit:1;" x1="99.031" y1="148.114" x2="118.779" y2="138.898"/>
	<line style="fill:none;stroke:#000000;stroke-miterlimit:1;" x1="118.779" y1="138.898" x2="107.918" y2="97.097"/>
	<line style="fill:none;stroke:#000000;stroke-miterlimit:1;" x1="107.918" y1="97.097" x2="107.588" y2="92.16"/>
	<line style="fill:none;stroke:#000000;stroke-miterlimit:1;" x1="107.588" y1="92.16" x2="108.576" y2="88.21"/>
	<line style="fill:none;stroke:#000000;stroke-miterlimit:1;" x1="108.576" y1="88.21" x2="109.893" y2="85.577"/>
	<line style="fill:none;stroke:#000000;stroke-miterlimit:1;" x1="109.893" y1="85.577" x2="111.867" y2="83.932"/>
	<line style="fill:none;stroke:#000000;stroke-miterlimit:1;" x1="111.867" y1="83.932" x2="115.158" y2="83.602"/>
	<line style="fill:none;stroke:#000000;stroke-miterlimit:1;" x1="115.158" y1="83.602" x2="118.779" y2="84.261"/>
	<line style="fill:none;stroke:#000000;stroke-miterlimit:1;" x1="118.779" y1="84.261" x2="123.387" y2="87.223"/>
	<line style="fill:none;stroke:#000000;stroke-miterlimit:1;" x1="123.387" y1="87.223" x2="127.338" y2="90.843"/>
	<line style="fill:none;stroke:#000000;stroke-miterlimit:1;" x1="127.338" y1="90.843" x2="143.137" y2="113.225"/>
	<line style="fill:none;stroke:#000000;stroke-miterlimit:1;" x1="143.137" y1="113.225" x2="144.453" y2="89.855"/>
	<line style="fill:none;stroke:#000000;stroke-miterlimit:1;" x1="144.453" y1="89.855" x2="145.439" y2="70.437"/>
	<line style="fill:none;stroke:#000000;stroke-miterlimit:1;" x1="145.439" y1="70.437" x2="148.402" y2="60.891"/>
	<line style="fill:none;stroke:#000000;stroke-miterlimit:1;" x1="148.402" y1="60.891" x2="151.693" y2="55.625"/>
	<line style="fill:none;stroke:#000000;stroke-miterlimit:1;" x1="151.693" y1="55.625" x2="153.998" y2="52.663"/>
	<line style="fill:none;stroke:#000000;stroke-miterlimit:1;" x1="153.998" y1="52.663" x2="159.594" y2="46.738"/>
	<line style="fill:none;stroke:#000000;stroke-miterlimit:1;" x1="159.594" y1="46.738" x2="159.594" y2="39.168"/>
	<line style="fill:none;stroke:#000000;stroke-miterlimit:1;" x1="159.594" y1="39.168" x2="157.289" y2="37.193"/>
	<line style="fill:none;stroke:#000000;stroke-miterlimit:1;" x1="157.289" y1="37.193" x2="148.072" y2="35.218"/>
	<line style="fill:none;stroke:#000000;stroke-miterlimit:1;" x1="148.072" y1="35.218" x2="144.781" y2="44.763"/>
	<line style="fill:none;stroke:#000000;stroke-miterlimit:1;" x1="144.781" y1="44.763" x2="142.148" y2="43.447"/>
	<line style="fill:none;stroke:#000000;stroke-miterlimit:1;" x1="142.148" y1="43.447" x2="147.414" y2="34.889"/>
	<line style="fill:none;stroke:#000000;stroke-miterlimit:1;" x1="147.414" y1="34.889" x2="148.072" y2="27.319"/>
	<line style="fill:none;stroke:#000000;stroke-miterlimit:1;" x1="148.072" y1="27.319" x2="142.479" y2="25.673"/>
	<line style="fill:none;stroke:#000000;stroke-miterlimit:1;" x1="142.479" y1="25.673" x2="142.148" y2="24.027"/>
	<line style="fill:none;stroke:#000000;stroke-miterlimit:1;" x1="142.148" y1="24.027" x2="144.781" y2="20.407"/>
	<line style="fill:none;stroke:#000000;stroke-miterlimit:1;" x1="144.781" y1="20.407" x2="146.756" y2="17.773"/>
	<line style="fill:none;stroke:#000000;stroke-miterlimit:1;" x1="146.756" y1="17.773" x2="148.072" y2="14.153"/>
	<line style="fill:none;stroke:#000000;stroke-miterlimit:1;" x1="148.072" y1="14.153" x2="166.506" y2="17.115"/>
	<line style="fill:none;stroke:#000000;stroke-miterlimit:1;" x1="166.506" y1="17.115" x2="167.822" y2="15.47"/>
	<line style="fill:none;stroke:#000000;stroke-miterlimit:1;" x1="167.822" y1="15.47" x2="170.455" y2="15.14"/>
	<line style="fill:none;stroke:#000000;stroke-miterlimit:1;" x1="170.455" y1="15.14" x2="171.771" y2="17.115"/>
	<line style="fill:none;stroke:#000000;stroke-miterlimit:1;" x1="171.771" y1="17.115" x2="171.771" y2="19.419"/>
	<line style="fill:none;stroke:#000000;stroke-miterlimit:1;" x1="171.771" y1="19.419" x2="171.113" y2="22.052"/>
	<line style="fill:none;stroke:#000000;stroke-miterlimit:1;" x1="171.113" y1="22.052" x2="168.809" y2="25.344"/>
	<line style="fill:none;stroke:#000000;stroke-miterlimit:1;" x1="168.809" y1="25.344" x2="169.139" y2="69.778"/>
	<line style="fill:none;stroke:#000000;stroke-miterlimit:1;" x1="169.139" y1="69.778" x2="187.24" y2="69.778"/>
	<line style="fill:none;stroke:#000000;stroke-miterlimit:1;" x1="187.24" y1="69.778" x2="184.279" y2="16.457"/>
	<line style="fill:none;stroke:#000000;stroke-miterlimit:1;" x1="184.279" y1="16.457" x2="182.633" y2="9.874"/>
	<line style="fill:none;stroke:#000000;stroke-miterlimit:1;" x1="182.633" y1="9.874" x2="180" y2="6.253"/>
	<line style="fill:none;stroke:#000000;stroke-miterlimit:1;" x1="180" y1="6.253" x2="176.709" y2="2.962"/>
	<line style="fill:none;stroke:#000000;stroke-miterlimit:1;" x1="176.709" y1="2.962" x2="173.088" y2="1.316"/>
	<line style="fill:none;stroke:#000000;stroke-miterlimit:1;" x1="173.088" y1="1.316" x2="168.48" y2="0"/>
	<line style="fill:none;stroke:#000000;stroke-miterlimit:1;" x1="168.48" y1="0" x2="162.555" y2="0.329"/>
	<line style="fill:none;stroke:#000000;stroke-miterlimit:1;" x1="162.555" y1="0.329" x2="157.619" y2="1.646"/>
	<line style="fill:none;stroke:#000000;stroke-miterlimit:1;" x1="157.619" y1="1.646" x2="154.326" y2="3.949"/>
	<line style="fill:none;stroke:#000000;stroke-miterlimit:1;" x1="154.326" y1="3.949" x2="152.352" y2="6.253"/>
	<line style="fill:none;stroke:#000000;stroke-miterlimit:1;" x1="152.352" y1="6.253" x2="150.707" y2="8.558"/>
	<line style="fill:none;stroke:#000000;stroke-miterlimit:1;" x1="150.707" y1="8.558" x2="149.061" y2="11.52"/>
	<line style="fill:none;stroke:#000000;stroke-miterlimit:1;" x1="149.061" y1="11.52" x2="148.072" y2="13.824"/>
	<line style="fill:none;stroke:#000000;stroke-miterlimit:1;" x1="151.035" y1="21.065" x2="156.961" y2="21.723"/>
	<line style="fill:none;stroke:#000000;stroke-miterlimit:1;" x1="156.961" y1="21.723" x2="154.984" y2="19.419"/>
	<line style="fill:none;stroke:#000000;stroke-miterlimit:1;" x1="154.984" y1="19.419" x2="153.34" y2="19.09"/>
	<line style="fill:none;stroke:#000000;stroke-miterlimit:1;" x1="153.34" y1="19.09" x2="151.365" y2="20.736"/>
	<line style="fill:none;stroke:#000000;stroke-miterlimit:1;" x1="122.07" y1="86.564" x2="118.451" y2="81.298"/>
	<line style="fill:none;stroke:#000000;stroke-miterlimit:1;" x1="118.451" y1="81.298" x2="115.158" y2="77.349"/>
	<line style="fill:none;stroke:#000000;stroke-miterlimit:1;" x1="115.158" y1="77.349" x2="109.562" y2="76.032"/>
	<line style="fill:none;stroke:#000000;stroke-miterlimit:1;" x1="109.562" y1="76.032" x2="105.285" y2="76.69"/>
	<line style="fill:none;stroke:#000000;stroke-miterlimit:1;" x1="105.285" y1="76.69" x2="108.246" y2="88.21"/>
	<line style="fill:none;stroke:#000000;stroke-miterlimit:1;" x1="109.234" y1="75.703" x2="108.904" y2="32.914"/>
	<line style="fill:none;stroke:#000000;stroke-miterlimit:1;" x1="108.904" y1="32.914" x2="108.576" y2="30.281"/>
	<line style="fill:none;stroke:#000000;stroke-miterlimit:1;" x1="108.576" y1="30.281" x2="107.918" y2="28.306"/>
	<line style="fill:none;stroke:#000000;stroke-miterlimit:1;" x1="107.918" y1="28.306" x2="106.271" y2="27.648"/>
	<line style="fill:none;stroke:#000000;stroke-miterlimit:1;" x1="106.271" y1="27.648" x2="104.627" y2="26.989"/>
	<line style="fill:none;stroke:#000000;stroke-miterlimit:1;" x1="104.627" y1="26.989" x2="103.639" y2="27.977"/>
	<line style="fill:none;stroke:#000000;stroke-miterlimit:1;" x1="103.639" y1="27.977" x2="102.98" y2="30.61"/>
	<line style="fill:none;stroke:#000000;stroke-miterlimit:1;" x1="102.98" y1="30.61" x2="102.652" y2="32.256"/>
	<line style="fill:none;stroke:#000000;stroke-miterlimit:1;" x1="102.652" y1="32.256" x2="101.992" y2="33.901"/>
	<line style="fill:none;stroke:#000000;stroke-miterlimit:1;" x1="101.992" y1="33.901" x2="100.676" y2="35.547"/>
	<line style="fill:none;stroke:#000000;stroke-miterlimit:1;" x1="100.676" y1="35.547" x2="100.348" y2="38.18"/>
	<line style="fill:none;stroke:#000000;stroke-miterlimit:1;" x1="100.348" y1="38.18" x2="100.018" y2="40.813"/>
	<line style="fill:none;stroke:#000000;stroke-miterlimit:1;" x1="100.018" y1="40.813" x2="99.689" y2="43.118"/>
	<line style="fill:none;stroke:#000000;stroke-miterlimit:1;" x1="99.689" y1="43.118" x2="99.031" y2="43.776"/>
	<line style="fill:none;stroke:#000000;stroke-miterlimit:1;" x1="99.031" y1="43.776" x2="98.373" y2="43.776"/>
	<line style="fill:none;stroke:#000000;stroke-miterlimit:1;" x1="98.373" y1="43.776" x2="97.715" y2="43.118"/>
	<line style="fill:none;stroke:#000000;stroke-miterlimit:1;" x1="97.715" y1="43.118" x2="98.043" y2="39.168"/>
	<line style="fill:none;stroke:#000000;stroke-miterlimit:1;" x1="98.043" y1="39.168" x2="98.373" y2="35.547"/>
	<line style="fill:none;stroke:#000000;stroke-miterlimit:1;" x1="98.373" y1="35.547" x2="97.715" y2="31.927"/>
	<line style="fill:none;stroke:#000000;stroke-miterlimit:1;" x1="97.715" y1="31.927" x2="98.373" y2="27.977"/>
	<line style="fill:none;stroke:#000000;stroke-miterlimit:1;" x1="98.373" y1="27.977" x2="100.348" y2="24.356"/>
	<line style="fill:none;stroke:#000000;stroke-miterlimit:1;" x1="100.348" y1="24.356" x2="101.664" y2="21.723"/>
	<line style="fill:none;stroke:#000000;stroke-miterlimit:1;" x1="101.664" y1="21.723" x2="102.98" y2="18.432"/>
	<line style="fill:none;stroke:#000000;stroke-miterlimit:1;" x1="102.98" y1="18.432" x2="103.639" y2="15.47"/>
	<line style="fill:none;stroke:#000000;stroke-miterlimit:1;" x1="103.639" y1="15.47" x2="103.969" y2="12.836"/>
	<line style="fill:none;stroke:#000000;stroke-miterlimit:1;" x1="103.969" y1="12.836" x2="103.969" y2="10.532"/>
	<line style="fill:none;stroke:#000000;stroke-miterlimit:1;" x1="103.969" y1="10.532" x2="103.639" y2="7.899"/>
	<line style="fill:none;stroke:#000000;stroke-miterlimit:1;" x1="103.639" y1="7.899" x2="106.271" y2="8.558"/>
	<line style="fill:none;stroke:#000000;stroke-miterlimit:1;" x1="106.271" y1="8.558" x2="108.246" y2="11.19"/>
	<line style="fill:none;stroke:#000000;stroke-miterlimit:1;" x1="108.246" y1="11.19" x2="108.576" y2="13.166"/>
	<line style="fill:none;stroke:#000000;stroke-miterlimit:1;" x1="108.576" y1="13.166" x2="108.576" y2="14.811"/>
	<line style="fill:none;stroke:#000000;stroke-miterlimit:1;" x1="108.576" y1="14.811" x2="108.246" y2="18.103"/>
	<line style="fill:none;stroke:#000000;stroke-miterlimit:1;" x1="108.246" y1="18.103" x2="107.918" y2="20.407"/>
	<line style="fill:none;stroke:#000000;stroke-miterlimit:1;" x1="107.918" y1="20.407" x2="106.602" y2="22.71"/>
	<line style="fill:none;stroke:#000000;stroke-miterlimit:1;" x1="106.602" y1="22.71" x2="105.285" y2="23.698"/>
	<line style="fill:none;stroke:#000000;stroke-miterlimit:1;" x1="105.285" y1="23.698" x2="104.297" y2="25.673"/>
	<line style="fill:none;stroke:#000000;stroke-miterlimit:1;" x1="104.297" y1="25.673" x2="104.955" y2="25.673"/>
	<line style="fill:none;stroke:#000000;stroke-miterlimit:1;" x1="104.955" y1="25.673" x2="106.602" y2="26.002"/>
	<line style="fill:none;stroke:#000000;stroke-miterlimit:1;" x1="106.602" y1="26.002" x2="108.246" y2="26.66"/>
	<line style="fill:none;stroke:#000000;stroke-miterlimit:1;" x1="108.246" y1="26.66" x2="110.223" y2="28.964"/>
	<line style="fill:none;stroke:#000000;stroke-miterlimit:1;" x1="110.223" y1="28.964" x2="110.881" y2="32.585"/>
	<line style="fill:none;stroke:#000000;stroke-miterlimit:1;" x1="110.881" y1="32.585" x2="110.881" y2="35.547"/>
	<line style="fill:none;stroke:#000000;stroke-miterlimit:1;" x1="110.881" y1="35.547" x2="110.881" y2="76.361"/>
	<line style="fill:none;stroke:#000000;stroke-miterlimit:1;" x1="101.334" y1="26.66" x2="100.348" y2="29.293"/>
</g>
</svg>
