<?xml version="1.0" encoding="iso-8859-1"?>
<!-- Generator: Adobe Illustrator 16.0.1, SVG Export Plug-In . SVG Version: 6.00 Build 0)  -->
<!DOCTYPE svg PUBLIC "-//W3C//DTD SVG 1.1//EN" "http://www.w3.org/Graphics/SVG/1.1/DTD/svg11.dtd">
<svg version="1.1" id="Ebene_1" xmlns="http://www.w3.org/2000/svg" xmlns:xlink="http://www.w3.org/1999/xlink" x="0px" y="0px"
	 width="90.957px" height="148.113px" viewBox="0 0 90.957 148.113" style="enable-background:new 0 0 90.957 148.113;"
	 xml:space="preserve">
<g>
	<line style="fill:none;stroke:#000000;stroke-miterlimit:1;" x1="49.201" y1="73.634" x2="44.237" y2="73.183"/>
	<line style="fill:none;stroke:#000000;stroke-miterlimit:1;" x1="44.237" y1="73.183" x2="36.337" y2="73.634"/>
	<line style="fill:none;stroke:#000000;stroke-miterlimit:1;" x1="36.337" y1="73.634" x2="30.469" y2="72.957"/>
	<line style="fill:none;stroke:#000000;stroke-miterlimit:1;" x1="30.469" y1="72.957" x2="28.664" y2="73.634"/>
	<line style="fill:none;stroke:#000000;stroke-miterlimit:1;" x1="28.664" y1="73.634" x2="27.31" y2="75.439"/>
	<line style="fill:none;stroke:#000000;stroke-miterlimit:1;" x1="27.31" y1="75.439" x2="27.761" y2="78.6"/>
	<line style="fill:none;stroke:#000000;stroke-miterlimit:1;" x1="27.761" y1="78.6" x2="30.018" y2="85.822"/>
	<line style="fill:none;stroke:#000000;stroke-miterlimit:1;" x1="30.018" y1="85.822" x2="34.306" y2="92.818"/>
	<line style="fill:none;stroke:#000000;stroke-miterlimit:1;" x1="34.306" y1="92.818" x2="48.299" y2="109.52"/>
	<line style="fill:none;stroke:#000000;stroke-miterlimit:1;" x1="48.299" y1="109.52" x2="55.521" y2="116.291"/>
	<line style="fill:none;stroke:#000000;stroke-miterlimit:1;" x1="55.521" y1="116.291" x2="65.904" y2="125.996"/>
	<line style="fill:none;stroke:#000000;stroke-miterlimit:1;" x1="65.904" y1="125.996" x2="88.021" y2="147.662"/>
	<line style="fill:none;stroke:#000000;stroke-miterlimit:1;" x1="88.021" y1="147.662" x2="90.279" y2="147.662"/>
	<line style="fill:none;stroke:#000000;stroke-miterlimit:1;" x1="90.279" y1="147.662" x2="90.957" y2="146.535"/>
	<line style="fill:none;stroke:#000000;stroke-miterlimit:1;" x1="90.957" y1="146.535" x2="90.053" y2="144.504"/>
	<line style="fill:none;stroke:#000000;stroke-miterlimit:1;" x1="90.053" y1="144.504" x2="80.574" y2="122.836"/>
	<line style="fill:none;stroke:#000000;stroke-miterlimit:1;" x1="80.574" y1="122.836" x2="79.221" y2="118.773"/>
	<line style="fill:none;stroke:#000000;stroke-miterlimit:1;" x1="79.221" y1="118.773" x2="71.998" y2="101.395"/>
	<line style="fill:none;stroke:#000000;stroke-miterlimit:1;" x1="71.998" y1="101.395" x2="65.453" y2="90.109"/>
	<line style="fill:none;stroke:#000000;stroke-miterlimit:1;" x1="65.453" y1="90.109" x2="60.262" y2="82.887"/>
	<line style="fill:none;stroke:#000000;stroke-miterlimit:1;" x1="60.262" y1="82.887" x2="56.424" y2="77.697"/>
	<line style="fill:none;stroke:#000000;stroke-miterlimit:1;" x1="56.424" y1="77.697" x2="53.264" y2="72.731"/>
	<line style="fill:none;stroke:#000000;stroke-miterlimit:1;" x1="53.264" y1="72.731" x2="49.879" y2="68.217"/>
	<line style="fill:none;stroke:#000000;stroke-miterlimit:1;" x1="49.879" y1="68.217" x2="45.817" y2="63.478"/>
	<line style="fill:none;stroke:#000000;stroke-miterlimit:1;" x1="45.817" y1="63.478" x2="41.754" y2="60.769"/>
	<line style="fill:none;stroke:#000000;stroke-miterlimit:1;" x1="41.754" y1="60.769" x2="40.625" y2="56.029"/>
	<line style="fill:none;stroke:#000000;stroke-miterlimit:1;" x1="40.625" y1="56.029" x2="39.723" y2="50.838"/>
	<line style="fill:none;stroke:#000000;stroke-miterlimit:1;" x1="39.723" y1="50.838" x2="38.369" y2="47.453"/>
	<line style="fill:none;stroke:#000000;stroke-miterlimit:1;" x1="38.369" y1="47.453" x2="34.532" y2="46.55"/>
	<line style="fill:none;stroke:#000000;stroke-miterlimit:1;" x1="34.532" y1="46.55" x2="28.212" y2="46.55"/>
	<line style="fill:none;stroke:#000000;stroke-miterlimit:1;" x1="28.212" y1="46.55" x2="21.215" y2="46.776"/>
	<line style="fill:none;stroke:#000000;stroke-miterlimit:1;" x1="21.215" y1="46.776" x2="17.83" y2="47.679"/>
	<line style="fill:none;stroke:#000000;stroke-miterlimit:1;" x1="17.83" y1="47.679" x2="16.25" y2="48.13"/>
	<line style="fill:none;stroke:#000000;stroke-miterlimit:1;" x1="16.25" y1="48.13" x2="4.74" y2="49.71"/>
	<line style="fill:none;stroke:#000000;stroke-miterlimit:1;" x1="4.74" y1="49.71" x2="1.354" y2="51.29"/>
	<line style="fill:none;stroke:#000000;stroke-miterlimit:1;" x1="1.354" y1="51.29" x2="0.226" y2="52.87"/>
	<line style="fill:none;stroke:#000000;stroke-miterlimit:1;" x1="0.226" y1="52.87" x2="0" y2="56.029"/>
	<line style="fill:none;stroke:#000000;stroke-miterlimit:1;" x1="0" y1="56.029" x2="1.354" y2="53.772"/>
	<line style="fill:none;stroke:#000000;stroke-miterlimit:1;" x1="1.354" y1="53.772" x2="3.611" y2="52.644"/>
	<line style="fill:none;stroke:#000000;stroke-miterlimit:1;" x1="3.611" y1="52.644" x2="10.382" y2="52.644"/>
	<line style="fill:none;stroke:#000000;stroke-miterlimit:1;" x1="10.382" y1="52.644" x2="17.378" y2="52.87"/>
	<line style="fill:none;stroke:#000000;stroke-miterlimit:1;" x1="17.378" y1="52.87" x2="20.99" y2="53.772"/>
	<line style="fill:none;stroke:#000000;stroke-miterlimit:1;" x1="20.99" y1="53.772" x2="18.056" y2="50.161"/>
	<line style="fill:none;stroke:#000000;stroke-miterlimit:1;" x1="18.056" y1="50.161" x2="17.378" y2="47.679"/>
	<line style="fill:none;stroke:#000000;stroke-miterlimit:1;" x1="24.827" y1="52.418" x2="25.504" y2="52.192"/>
	<line style="fill:none;stroke:#000000;stroke-miterlimit:1;" x1="25.504" y1="52.192" x2="25.955" y2="51.064"/>
	<line style="fill:none;stroke:#000000;stroke-miterlimit:1;" x1="25.955" y1="51.064" x2="25.504" y2="49.936"/>
	<line style="fill:none;stroke:#000000;stroke-miterlimit:1;" x1="25.504" y1="49.936" x2="24.601" y2="49.258"/>
	<line style="fill:none;stroke:#000000;stroke-miterlimit:1;" x1="24.601" y1="49.258" x2="23.698" y2="49.936"/>
	<line style="fill:none;stroke:#000000;stroke-miterlimit:1;" x1="23.698" y1="49.936" x2="23.473" y2="51.29"/>
	<line style="fill:none;stroke:#000000;stroke-miterlimit:1;" x1="23.473" y1="51.29" x2="23.924" y2="51.967"/>
	<line style="fill:none;stroke:#000000;stroke-miterlimit:1;" x1="23.924" y1="51.967" x2="24.601" y2="52.418"/>
	<line style="fill:none;stroke:#000000;stroke-miterlimit:1;" x1="1.128" y1="54.675" x2="10.156" y2="54.45"/>
	<line style="fill:none;stroke:#000000;stroke-miterlimit:1;" x1="10.156" y1="54.45" x2="17.153" y2="55.353"/>
	<line style="fill:none;stroke:#000000;stroke-miterlimit:1;" x1="17.153" y1="55.353" x2="19.184" y2="56.481"/>
	<line style="fill:none;stroke:#000000;stroke-miterlimit:1;" x1="19.184" y1="56.481" x2="19.861" y2="58.738"/>
	<line style="fill:none;stroke:#000000;stroke-miterlimit:1;" x1="19.861" y1="58.738" x2="20.087" y2="61.22"/>
	<line style="fill:none;stroke:#000000;stroke-miterlimit:1;" x1="20.087" y1="61.22" x2="18.056" y2="66.186"/>
	<line style="fill:none;stroke:#000000;stroke-miterlimit:1;" x1="18.056" y1="66.186" x2="17.153" y2="72.28"/>
	<line style="fill:none;stroke:#000000;stroke-miterlimit:1;" x1="17.153" y1="72.28" x2="18.281" y2="79.729"/>
	<line style="fill:none;stroke:#000000;stroke-miterlimit:1;" x1="18.281" y1="79.729" x2="19.184" y2="83.113"/>
	<line style="fill:none;stroke:#000000;stroke-miterlimit:1;" x1="19.184" y1="83.113" x2="21.667" y2="89.885"/>
	<line style="fill:none;stroke:#000000;stroke-miterlimit:1;" x1="21.667" y1="89.885" x2="24.601" y2="95.301"/>
	<line style="fill:none;stroke:#000000;stroke-miterlimit:1;" x1="24.601" y1="95.301" x2="31.598" y2="107.264"/>
	<line style="fill:none;stroke:#000000;stroke-miterlimit:1;" x1="31.598" y1="107.264" x2="40.851" y2="124.867"/>
	<line style="fill:none;stroke:#000000;stroke-miterlimit:1;" x1="40.851" y1="124.867" x2="41.754" y2="131.639"/>
	<line style="fill:none;stroke:#000000;stroke-miterlimit:1;" x1="41.754" y1="131.639" x2="40.625" y2="143.148"/>
	<line style="fill:none;stroke:#000000;stroke-miterlimit:1;" x1="40.625" y1="143.148" x2="39.497" y2="144.277"/>
	<line style="fill:none;stroke:#000000;stroke-miterlimit:1;" x1="39.497" y1="144.277" x2="32.952" y2="144.955"/>
	<line style="fill:none;stroke:#000000;stroke-miterlimit:1;" x1="32.952" y1="144.955" x2="25.278" y2="144.729"/>
	<line style="fill:none;stroke:#000000;stroke-miterlimit:1;" x1="25.278" y1="144.729" x2="24.827" y2="145.857"/>
	<line style="fill:none;stroke:#000000;stroke-miterlimit:1;" x1="24.827" y1="145.857" x2="21.441" y2="146.309"/>
	<line style="fill:none;stroke:#000000;stroke-miterlimit:1;" x1="21.441" y1="146.309" x2="20.99" y2="146.986"/>
	<line style="fill:none;stroke:#000000;stroke-miterlimit:1;" x1="20.99" y1="146.986" x2="21.667" y2="147.889"/>
	<line style="fill:none;stroke:#000000;stroke-miterlimit:1;" x1="21.667" y1="147.889" x2="41.077" y2="147.211"/>
	<line style="fill:none;stroke:#000000;stroke-miterlimit:1;" x1="41.077" y1="147.211" x2="61.164" y2="148.113"/>
	<line style="fill:none;stroke:#000000;stroke-miterlimit:1;" x1="61.164" y1="148.113" x2="62.066" y2="147.211"/>
	<line style="fill:none;stroke:#000000;stroke-miterlimit:1;" x1="62.066" y1="147.211" x2="61.615" y2="146.082"/>
	<line style="fill:none;stroke:#000000;stroke-miterlimit:1;" x1="61.615" y1="146.082" x2="58.455" y2="146.082"/>
	<line style="fill:none;stroke:#000000;stroke-miterlimit:1;" x1="58.455" y1="146.082" x2="56.65" y2="144.504"/>
	<line style="fill:none;stroke:#000000;stroke-miterlimit:1;" x1="56.65" y1="144.504" x2="45.14" y2="144.277"/>
	<line style="fill:none;stroke:#000000;stroke-miterlimit:1;" x1="45.14" y1="144.277" x2="43.785" y2="143.375"/>
	<line style="fill:none;stroke:#000000;stroke-miterlimit:1;" x1="43.785" y1="143.375" x2="45.14" y2="129.156"/>
	<line style="fill:none;stroke:#000000;stroke-miterlimit:1;" x1="45.14" y1="129.156" x2="53.49" y2="133.443"/>
	<line style="fill:none;stroke:#000000;stroke-miterlimit:1;" x1="53.49" y1="133.443" x2="58.23" y2="119.451"/>
	<line style="fill:none;stroke:#000000;stroke-miterlimit:1;" x1="58.23" y1="119.451" x2="67.258" y2="142.02"/>
	<line style="fill:none;stroke:#000000;stroke-miterlimit:1;" x1="67.258" y1="142.02" x2="70.418" y2="146.082"/>
	<line style="fill:none;stroke:#000000;stroke-miterlimit:1;" x1="70.418" y1="146.082" x2="73.578" y2="147.889"/>
	<line style="fill:none;stroke:#000000;stroke-miterlimit:1;" x1="73.578" y1="147.889" x2="78.316" y2="147.889"/>
	<line style="fill:none;stroke:#000000;stroke-miterlimit:1;" x1="78.316" y1="147.889" x2="81.025" y2="146.986"/>
	<line style="fill:none;stroke:#000000;stroke-miterlimit:1;" x1="81.025" y1="146.986" x2="81.703" y2="145.631"/>
	<line style="fill:none;stroke:#000000;stroke-miterlimit:1;" x1="81.703" y1="145.631" x2="79.445" y2="139.537"/>
	<line style="fill:none;stroke:#000000;stroke-miterlimit:1;" x1="23.473" y1="93.721" x2="26.407" y2="110.197"/>
	<line style="fill:none;stroke:#000000;stroke-miterlimit:1;" x1="26.407" y1="110.197" x2="26.181" y2="122.836"/>
	<line style="fill:none;stroke:#000000;stroke-miterlimit:1;" x1="26.181" y1="122.836" x2="23.924" y2="135.701"/>
	<line style="fill:none;stroke:#000000;stroke-miterlimit:1;" x1="23.924" y1="135.701" x2="21.893" y2="142.246"/>
	<line style="fill:none;stroke:#000000;stroke-miterlimit:1;" x1="21.893" y1="142.246" x2="20.539" y2="143.826"/>
	<line style="fill:none;stroke:#000000;stroke-miterlimit:1;" x1="20.539" y1="143.826" x2="9.705" y2="144.504"/>
	<line style="fill:none;stroke:#000000;stroke-miterlimit:1;" x1="9.705" y1="144.504" x2="8.577" y2="146.082"/>
	<line style="fill:none;stroke:#000000;stroke-miterlimit:1;" x1="8.577" y1="146.082" x2="6.094" y2="146.309"/>
	<line style="fill:none;stroke:#000000;stroke-miterlimit:1;" x1="6.094" y1="146.309" x2="5.191" y2="146.986"/>
	<line style="fill:none;stroke:#000000;stroke-miterlimit:1;" x1="5.191" y1="146.986" x2="6.094" y2="147.889"/>
	<line style="fill:none;stroke:#000000;stroke-miterlimit:1;" x1="6.094" y1="147.889" x2="14.445" y2="147.211"/>
	<line style="fill:none;stroke:#000000;stroke-miterlimit:1;" x1="14.445" y1="147.211" x2="16.927" y2="147.438"/>
	<line style="fill:none;stroke:#000000;stroke-miterlimit:1;" x1="25.052" y1="144.729" x2="21.215" y2="145.18"/>
	<line style="fill:none;stroke:#000000;stroke-miterlimit:1;" x1="21.215" y1="145.18" x2="21.215" y2="145.18"/>
	<line style="fill:none;stroke:#000000;stroke-miterlimit:1;" x1="21.215" y1="145.18" x2="18.958" y2="145.631"/>
	<line style="fill:none;stroke:#000000;stroke-miterlimit:1;" x1="18.958" y1="145.631" x2="17.604" y2="147.438"/>
	<line style="fill:none;stroke:#000000;stroke-miterlimit:1;" x1="17.604" y1="147.438" x2="18.507" y2="147.889"/>
	<line style="fill:none;stroke:#000000;stroke-miterlimit:1;" x1="18.507" y1="147.889" x2="19.861" y2="146.535"/>
	<line style="fill:none;stroke:#000000;stroke-miterlimit:1;" x1="19.861" y1="146.535" x2="21.215" y2="146.309"/>
	<line style="fill:none;stroke:#000000;stroke-miterlimit:1;" x1="24.827" y1="144.504" x2="29.792" y2="125.996"/>
	<line style="fill:none;stroke:#000000;stroke-miterlimit:1;" x1="29.792" y1="125.996" x2="37.466" y2="130.51"/>
	<line style="fill:none;stroke:#000000;stroke-miterlimit:1;" x1="37.466" y1="130.51" x2="39.046" y2="122.158"/>
	<line style="fill:none;stroke:#000000;stroke-miterlimit:1;" x1="9.028" y1="144.729" x2="5.417" y2="145.18"/>
	<line style="fill:none;stroke:#000000;stroke-miterlimit:1;" x1="5.417" y1="145.18" x2="5.417" y2="145.18"/>
	<line style="fill:none;stroke:#000000;stroke-miterlimit:1;" x1="5.417" y1="145.18" x2="3.16" y2="145.631"/>
	<line style="fill:none;stroke:#000000;stroke-miterlimit:1;" x1="3.16" y1="145.631" x2="1.806" y2="147.438"/>
	<line style="fill:none;stroke:#000000;stroke-miterlimit:1;" x1="1.806" y1="147.438" x2="2.482" y2="147.889"/>
	<line style="fill:none;stroke:#000000;stroke-miterlimit:1;" x1="2.482" y1="147.889" x2="4.062" y2="146.535"/>
	<line style="fill:none;stroke:#000000;stroke-miterlimit:1;" x1="4.062" y1="146.535" x2="5.868" y2="146.309"/>
	<line style="fill:none;stroke:#000000;stroke-miterlimit:1;" x1="57.102" y1="144.504" x2="61.391" y2="144.955"/>
	<line style="fill:none;stroke:#000000;stroke-miterlimit:1;" x1="61.391" y1="144.955" x2="63.422" y2="145.631"/>
	<line style="fill:none;stroke:#000000;stroke-miterlimit:1;" x1="63.422" y1="145.631" x2="64.775" y2="147.438"/>
	<line style="fill:none;stroke:#000000;stroke-miterlimit:1;" x1="64.775" y1="147.438" x2="64.098" y2="147.889"/>
	<line style="fill:none;stroke:#000000;stroke-miterlimit:1;" x1="64.098" y1="147.889" x2="62.518" y2="146.535"/>
	<line style="fill:none;stroke:#000000;stroke-miterlimit:1;" x1="62.518" y1="146.535" x2="61.391" y2="146.309"/>
	<line style="fill:none;stroke:#000000;stroke-miterlimit:1;" x1="9.169" y1="0" x2="27.225" y2="40.625"/>
	<line style="fill:none;stroke:#000000;stroke-miterlimit:1;" x1="27.225" y1="40.625" x2="36.252" y2="40.625"/>
	<line style="fill:none;stroke:#000000;stroke-miterlimit:1;" x1="36.252" y1="40.625" x2="18.197" y2="0"/>
	<line style="fill:none;stroke:#000000;stroke-miterlimit:1;" x1="18.197" y1="0" x2="9.169" y2="0"/>
	<line style="fill:none;stroke:#000000;stroke-miterlimit:1;" x1="36.479" y1="0" x2="54.535" y2="40.625"/>
	<line style="fill:none;stroke:#000000;stroke-miterlimit:1;" x1="54.535" y1="40.625" x2="63.562" y2="40.625"/>
	<line style="fill:none;stroke:#000000;stroke-miterlimit:1;" x1="63.562" y1="40.625" x2="45.506" y2="0"/>
	<line style="fill:none;stroke:#000000;stroke-miterlimit:1;" x1="45.506" y1="0" x2="36.479" y2="0"/>
</g>
</svg>
