<?xml version="1.0" encoding="iso-8859-1"?>
<!-- Generator: Adobe Illustrator 16.0.1, SVG Export Plug-In . SVG Version: 6.00 Build 0)  -->
<!DOCTYPE svg PUBLIC "-//W3C//DTD SVG 1.1//EN" "http://www.w3.org/Graphics/SVG/1.1/DTD/svg11.dtd">
<svg version="1.1" id="Ebene_1" xmlns="http://www.w3.org/2000/svg" xmlns:xlink="http://www.w3.org/1999/xlink" x="0px" y="0px"
	 width="240.191px" height="121.289px" viewBox="0 0 240.191 121.289" style="enable-background:new 0 0 240.191 121.289;"
	 xml:space="preserve">
<g>
	<line style="fill:none;stroke:#000000;stroke-miterlimit:1;" x1="114.213" y1="118.492" x2="114.213" y2="102.693"/>
	<line style="fill:none;stroke:#000000;stroke-miterlimit:1;" x1="114.213" y1="102.693" x2="107.301" y2="102.363"/>
	<line style="fill:none;stroke:#000000;stroke-miterlimit:1;" x1="107.301" y1="102.363" x2="102.693" y2="101.047"/>
	<line style="fill:none;stroke:#000000;stroke-miterlimit:1;" x1="102.693" y1="101.047" x2="98.085" y2="99.072"/>
	<line style="fill:none;stroke:#000000;stroke-miterlimit:1;" x1="98.085" y1="99.072" x2="94.135" y2="96.439"/>
	<line style="fill:none;stroke:#000000;stroke-miterlimit:1;" x1="94.135" y1="96.439" x2="91.173" y2="93.807"/>
	<line style="fill:none;stroke:#000000;stroke-miterlimit:1;" x1="91.173" y1="93.807" x2="88.869" y2="90.186"/>
	<line style="fill:none;stroke:#000000;stroke-miterlimit:1;" x1="88.869" y1="90.186" x2="87.223" y2="86.564"/>
	<line style="fill:none;stroke:#000000;stroke-miterlimit:1;" x1="87.223" y1="86.564" x2="86.565" y2="81.957"/>
	<line style="fill:none;stroke:#000000;stroke-miterlimit:1;" x1="86.565" y1="81.957" x2="87.223" y2="77.02"/>
	<line style="fill:none;stroke:#000000;stroke-miterlimit:1;" x1="87.223" y1="77.02" x2="89.198" y2="70.107"/>
	<line style="fill:none;stroke:#000000;stroke-miterlimit:1;" x1="89.198" y1="70.107" x2="103.68" y2="40.485"/>
	<line style="fill:none;stroke:#000000;stroke-miterlimit:1;" x1="103.68" y1="40.485" x2="107.301" y2="31.598"/>
	<line style="fill:none;stroke:#000000;stroke-miterlimit:1;" x1="107.301" y1="31.598" x2="108.617" y2="26.99"/>
	<line style="fill:none;stroke:#000000;stroke-miterlimit:1;" x1="108.617" y1="26.99" x2="108.947" y2="22.711"/>
	<line style="fill:none;stroke:#000000;stroke-miterlimit:1;" x1="108.947" y1="22.711" x2="109.276" y2="18.432"/>
	<line style="fill:none;stroke:#000000;stroke-miterlimit:1;" x1="109.276" y1="18.432" x2="107.63" y2="13.495"/>
	<line style="fill:none;stroke:#000000;stroke-miterlimit:1;" x1="107.63" y1="13.495" x2="105.326" y2="9.216"/>
	<line style="fill:none;stroke:#000000;stroke-miterlimit:1;" x1="105.326" y1="9.216" x2="102.364" y2="5.925"/>
	<line style="fill:none;stroke:#000000;stroke-miterlimit:1;" x1="102.364" y1="5.925" x2="98.414" y2="3.292"/>
	<line style="fill:none;stroke:#000000;stroke-miterlimit:1;" x1="98.414" y1="3.292" x2="95.452" y2="1.975"/>
	<line style="fill:none;stroke:#000000;stroke-miterlimit:1;" x1="95.452" y1="1.975" x2="91.173" y2="0.987"/>
	<line style="fill:none;stroke:#000000;stroke-miterlimit:1;" x1="91.173" y1="0.987" x2="86.236" y2="0"/>
	<line style="fill:none;stroke:#000000;stroke-miterlimit:1;" x1="86.236" y1="0" x2="75.703" y2="0.658"/>
	<line style="fill:none;stroke:#000000;stroke-miterlimit:1;" x1="75.703" y1="0.658" x2="72.412" y2="0.987"/>
	<line style="fill:none;stroke:#000000;stroke-miterlimit:1;" x1="72.412" y1="0.987" x2="66.816" y2="2.962"/>
	<line style="fill:none;stroke:#000000;stroke-miterlimit:1;" x1="66.816" y1="2.962" x2="59.904" y2="7.57"/>
	<line style="fill:none;stroke:#000000;stroke-miterlimit:1;" x1="59.904" y1="7.57" x2="55.955" y2="10.862"/>
	<line style="fill:none;stroke:#000000;stroke-miterlimit:1;" x1="55.955" y1="10.862" x2="53.979" y2="12.507"/>
	<line style="fill:none;stroke:#000000;stroke-miterlimit:1;" x1="53.979" y1="12.507" x2="52.334" y2="13.495"/>
	<line style="fill:none;stroke:#000000;stroke-miterlimit:1;" x1="52.334" y1="13.495" x2="58.588" y2="23.698"/>
	<line style="fill:none;stroke:#000000;stroke-miterlimit:1;" x1="58.588" y1="23.698" x2="58.917" y2="33.244"/>
	<line style="fill:none;stroke:#000000;stroke-miterlimit:1;" x1="58.917" y1="33.244" x2="52.992" y2="32.256"/>
	<line style="fill:none;stroke:#000000;stroke-miterlimit:1;" x1="52.992" y1="32.256" x2="46.08" y2="32.256"/>
	<line style="fill:none;stroke:#000000;stroke-miterlimit:1;" x1="46.08" y1="32.256" x2="33.573" y2="32.256"/>
	<line style="fill:none;stroke:#000000;stroke-miterlimit:1;" x1="33.573" y1="32.256" x2="18.103" y2="33.244"/>
	<line style="fill:none;stroke:#000000;stroke-miterlimit:1;" x1="18.103" y1="33.244" x2="10.533" y2="34.889"/>
	<line style="fill:none;stroke:#000000;stroke-miterlimit:1;" x1="10.533" y1="34.889" x2="7.241" y2="37.193"/>
	<line style="fill:none;stroke:#000000;stroke-miterlimit:1;" x1="52.005" y1="13.824" x2="48.384" y2="15.141"/>
	<line style="fill:none;stroke:#000000;stroke-miterlimit:1;" x1="48.384" y1="15.141" x2="11.191" y2="23.369"/>
	<line style="fill:none;stroke:#000000;stroke-miterlimit:1;" x1="11.191" y1="23.369" x2="5.925" y2="25.673"/>
	<line style="fill:none;stroke:#000000;stroke-miterlimit:1;" x1="5.925" y1="25.673" x2="3.292" y2="28.306"/>
	<line style="fill:none;stroke:#000000;stroke-miterlimit:1;" x1="3.292" y1="28.306" x2="0.659" y2="32.915"/>
	<line style="fill:none;stroke:#000000;stroke-miterlimit:1;" x1="0.659" y1="32.915" x2="0.659" y2="36.535"/>
	<line style="fill:none;stroke:#000000;stroke-miterlimit:1;" x1="0.659" y1="36.535" x2="0" y2="39.497"/>
	<line style="fill:none;stroke:#000000;stroke-miterlimit:1;" x1="0" y1="39.497" x2="0.659" y2="41.472"/>
	<line style="fill:none;stroke:#000000;stroke-miterlimit:1;" x1="0.659" y1="41.472" x2="1.975" y2="42.13"/>
	<line style="fill:none;stroke:#000000;stroke-miterlimit:1;" x1="1.975" y1="42.13" x2="2.633" y2="42.13"/>
	<line style="fill:none;stroke:#000000;stroke-miterlimit:1;" x1="2.633" y1="42.13" x2="4.608" y2="41.472"/>
	<line style="fill:none;stroke:#000000;stroke-miterlimit:1;" x1="4.608" y1="41.472" x2="8.558" y2="34.231"/>
	<line style="fill:none;stroke:#000000;stroke-miterlimit:1;" x1="8.558" y1="34.231" x2="13.166" y2="30.939"/>
	<line style="fill:none;stroke:#000000;stroke-miterlimit:1;" x1="13.166" y1="30.939" x2="16.458" y2="29.294"/>
	<line style="fill:none;stroke:#000000;stroke-miterlimit:1;" x1="16.458" y1="29.294" x2="21.395" y2="27.977"/>
	<line style="fill:none;stroke:#000000;stroke-miterlimit:1;" x1="21.395" y1="27.977" x2="52.663" y2="23.04"/>
	<line style="fill:none;stroke:#000000;stroke-miterlimit:1;" x1="52.663" y1="23.04" x2="55.955" y2="23.369"/>
	<line style="fill:none;stroke:#000000;stroke-miterlimit:1;" x1="55.955" y1="23.369" x2="58.588" y2="24.356"/>
	<line style="fill:none;stroke:#000000;stroke-miterlimit:1;" x1="95.123" y1="1.975" x2="101.706" y2="1.975"/>
	<line style="fill:none;stroke:#000000;stroke-miterlimit:1;" x1="101.706" y1="1.975" x2="109.934" y2="3.95"/>
	<line style="fill:none;stroke:#000000;stroke-miterlimit:1;" x1="109.934" y1="3.95" x2="116.846" y2="6.583"/>
	<line style="fill:none;stroke:#000000;stroke-miterlimit:1;" x1="116.846" y1="6.583" x2="123.758" y2="10.533"/>
	<line style="fill:none;stroke:#000000;stroke-miterlimit:1;" x1="123.758" y1="10.533" x2="130.67" y2="16.457"/>
	<line style="fill:none;stroke:#000000;stroke-miterlimit:1;" x1="130.67" y1="16.457" x2="138.57" y2="27.319"/>
	<line style="fill:none;stroke:#000000;stroke-miterlimit:1;" x1="138.57" y1="27.319" x2="144.164" y2="40.155"/>
	<line style="fill:none;stroke:#000000;stroke-miterlimit:1;" x1="144.164" y1="40.155" x2="146.469" y2="54.967"/>
	<line style="fill:none;stroke:#000000;stroke-miterlimit:1;" x1="146.469" y1="54.967" x2="131" y2="55.296"/>
	<line style="fill:none;stroke:#000000;stroke-miterlimit:1;" x1="131" y1="55.296" x2="129.354" y2="41.801"/>
	<line style="fill:none;stroke:#000000;stroke-miterlimit:1;" x1="129.354" y1="41.801" x2="127.379" y2="32.915"/>
	<line style="fill:none;stroke:#000000;stroke-miterlimit:1;" x1="127.379" y1="32.915" x2="125.404" y2="26.99"/>
	<line style="fill:none;stroke:#000000;stroke-miterlimit:1;" x1="125.404" y1="26.99" x2="123.1" y2="21.724"/>
	<line style="fill:none;stroke:#000000;stroke-miterlimit:1;" x1="123.1" y1="21.724" x2="120.466" y2="18.761"/>
	<line style="fill:none;stroke:#000000;stroke-miterlimit:1;" x1="120.466" y1="18.761" x2="116.517" y2="14.812"/>
	<line style="fill:none;stroke:#000000;stroke-miterlimit:1;" x1="116.517" y1="14.812" x2="110.921" y2="10.533"/>
	<line style="fill:none;stroke:#000000;stroke-miterlimit:1;" x1="110.921" y1="10.533" x2="105.655" y2="8.887"/>
	<line style="fill:none;stroke:#000000;stroke-miterlimit:1;" x1="58.588" y1="32.915" x2="71.095" y2="34.889"/>
	<line style="fill:none;stroke:#000000;stroke-miterlimit:1;" x1="71.095" y1="34.889" x2="76.032" y2="35.876"/>
	<line style="fill:none;stroke:#000000;stroke-miterlimit:1;" x1="76.032" y1="35.876" x2="80.64" y2="35.876"/>
	<line style="fill:none;stroke:#000000;stroke-miterlimit:1;" x1="80.64" y1="35.876" x2="82.944" y2="37.193"/>
	<line style="fill:none;stroke:#000000;stroke-miterlimit:1;" x1="82.944" y1="37.193" x2="84.59" y2="39.826"/>
	<line style="fill:none;stroke:#000000;stroke-miterlimit:1;" x1="84.59" y1="39.826" x2="84.919" y2="41.801"/>
	<line style="fill:none;stroke:#000000;stroke-miterlimit:1;" x1="84.919" y1="41.801" x2="84.261" y2="44.764"/>
	<line style="fill:none;stroke:#000000;stroke-miterlimit:1;" x1="84.261" y1="44.764" x2="78.995" y2="57.271"/>
	<line style="fill:none;stroke:#000000;stroke-miterlimit:1;" x1="78.995" y1="57.271" x2="73.07" y2="73.07"/>
	<line style="fill:none;stroke:#000000;stroke-miterlimit:1;" x1="73.07" y1="73.07" x2="71.753" y2="82.285"/>
	<line style="fill:none;stroke:#000000;stroke-miterlimit:1;" x1="71.753" y1="82.285" x2="73.399" y2="94.135"/>
	<line style="fill:none;stroke:#000000;stroke-miterlimit:1;" x1="73.399" y1="94.135" x2="77.02" y2="102.693"/>
	<line style="fill:none;stroke:#000000;stroke-miterlimit:1;" x1="77.02" y1="102.693" x2="79.324" y2="105.654"/>
	<line style="fill:none;stroke:#000000;stroke-miterlimit:1;" x1="79.324" y1="105.654" x2="82.286" y2="108.617"/>
	<line style="fill:none;stroke:#000000;stroke-miterlimit:1;" x1="82.286" y1="108.617" x2="90.515" y2="113.883"/>
	<line style="fill:none;stroke:#000000;stroke-miterlimit:1;" x1="90.515" y1="113.883" x2="102.035" y2="117.504"/>
	<line style="fill:none;stroke:#000000;stroke-miterlimit:1;" x1="102.035" y1="117.504" x2="114.213" y2="118.492"/>
	<line style="fill:none;stroke:#000000;stroke-miterlimit:1;" x1="77.02" y1="10.862" x2="75.045" y2="11.191"/>
	<line style="fill:none;stroke:#000000;stroke-miterlimit:1;" x1="75.045" y1="11.191" x2="73.07" y2="13.495"/>
	<line style="fill:none;stroke:#000000;stroke-miterlimit:1;" x1="73.07" y1="13.495" x2="73.07" y2="16.128"/>
	<line style="fill:none;stroke:#000000;stroke-miterlimit:1;" x1="73.07" y1="16.128" x2="75.045" y2="17.774"/>
	<line style="fill:none;stroke:#000000;stroke-miterlimit:1;" x1="75.045" y1="17.774" x2="77.678" y2="17.774"/>
	<line style="fill:none;stroke:#000000;stroke-miterlimit:1;" x1="77.678" y1="17.774" x2="79.653" y2="16.457"/>
	<line style="fill:none;stroke:#000000;stroke-miterlimit:1;" x1="79.653" y1="16.457" x2="80.311" y2="15.141"/>
	<line style="fill:none;stroke:#000000;stroke-miterlimit:1;" x1="80.311" y1="15.141" x2="79.982" y2="12.836"/>
	<line style="fill:none;stroke:#000000;stroke-miterlimit:1;" x1="79.982" y1="12.836" x2="78.007" y2="10.862"/>
	<line style="fill:none;stroke:#000000;stroke-miterlimit:1;" x1="240.191" y1="37.563" x2="162.514" y2="37.563"/>
	<line style="fill:none;stroke:#000000;stroke-miterlimit:1;" x1="162.514" y1="37.563" x2="163.502" y2="30.98"/>
	<line style="fill:none;stroke:#000000;stroke-miterlimit:1;" x1="163.502" y1="30.98" x2="164.49" y2="26.702"/>
	<line style="fill:none;stroke:#000000;stroke-miterlimit:1;" x1="164.49" y1="26.702" x2="166.135" y2="22.423"/>
	<line style="fill:none;stroke:#000000;stroke-miterlimit:1;" x1="166.135" y1="22.423" x2="168.439" y2="19.131"/>
	<line style="fill:none;stroke:#000000;stroke-miterlimit:1;" x1="168.439" y1="19.131" x2="170.414" y2="16.169"/>
	<line style="fill:none;stroke:#000000;stroke-miterlimit:1;" x1="170.414" y1="16.169" x2="173.047" y2="12.549"/>
	<line style="fill:none;stroke:#000000;stroke-miterlimit:1;" x1="173.047" y1="12.549" x2="176.01" y2="9.916"/>
	<line style="fill:none;stroke:#000000;stroke-miterlimit:1;" x1="176.01" y1="9.916" x2="179.631" y2="7.282"/>
	<line style="fill:none;stroke:#000000;stroke-miterlimit:1;" x1="179.631" y1="7.282" x2="182.592" y2="5.308"/>
	<line style="fill:none;stroke:#000000;stroke-miterlimit:1;" x1="182.592" y1="5.308" x2="186.871" y2="3.333"/>
	<line style="fill:none;stroke:#000000;stroke-miterlimit:1;" x1="186.871" y1="3.333" x2="191.15" y2="2.016"/>
	<line style="fill:none;stroke:#000000;stroke-miterlimit:1;" x1="191.15" y1="2.016" x2="194.111" y2="1.358"/>
	<line style="fill:none;stroke:#000000;stroke-miterlimit:1;" x1="194.111" y1="1.358" x2="199.379" y2="0.7"/>
	<line style="fill:none;stroke:#000000;stroke-miterlimit:1;" x1="199.379" y1="0.7" x2="203.328" y2="0.7"/>
	<line style="fill:none;stroke:#000000;stroke-miterlimit:1;" x1="203.328" y1="0.7" x2="206.949" y2="1.358"/>
	<line style="fill:none;stroke:#000000;stroke-miterlimit:1;" x1="206.949" y1="1.358" x2="210.898" y2="2.016"/>
	<line style="fill:none;stroke:#000000;stroke-miterlimit:1;" x1="210.898" y1="2.016" x2="215.178" y2="3.003"/>
	<line style="fill:none;stroke:#000000;stroke-miterlimit:1;" x1="215.178" y1="3.003" x2="218.141" y2="3.991"/>
	<line style="fill:none;stroke:#000000;stroke-miterlimit:1;" x1="218.141" y1="3.991" x2="222.09" y2="6.624"/>
	<line style="fill:none;stroke:#000000;stroke-miterlimit:1;" x1="222.09" y1="6.624" x2="225.381" y2="8.928"/>
	<line style="fill:none;stroke:#000000;stroke-miterlimit:1;" x1="225.381" y1="8.928" x2="228.344" y2="11.232"/>
	<line style="fill:none;stroke:#000000;stroke-miterlimit:1;" x1="228.344" y1="11.232" x2="230.977" y2="14.523"/>
	<line style="fill:none;stroke:#000000;stroke-miterlimit:1;" x1="230.977" y1="14.523" x2="233.609" y2="18.144"/>
	<line style="fill:none;stroke:#000000;stroke-miterlimit:1;" x1="233.609" y1="18.144" x2="235.914" y2="21.765"/>
	<line style="fill:none;stroke:#000000;stroke-miterlimit:1;" x1="235.914" y1="21.765" x2="237.559" y2="25.056"/>
	<line style="fill:none;stroke:#000000;stroke-miterlimit:1;" x1="237.559" y1="25.056" x2="238.875" y2="29.993"/>
	<line style="fill:none;stroke:#000000;stroke-miterlimit:1;" x1="238.875" y1="29.993" x2="239.863" y2="33.614"/>
	<line style="fill:none;stroke:#000000;stroke-miterlimit:1;" x1="239.863" y1="33.614" x2="240.191" y2="37.563"/>
	<line style="fill:none;stroke:#000000;stroke-miterlimit:1;" x1="175.062" y1="57.765" x2="173.418" y2="59.739"/>
	<line style="fill:none;stroke:#000000;stroke-miterlimit:1;" x1="173.418" y1="59.739" x2="172.43" y2="62.373"/>
	<line style="fill:none;stroke:#000000;stroke-miterlimit:1;" x1="172.43" y1="62.373" x2="171.771" y2="65.006"/>
	<line style="fill:none;stroke:#000000;stroke-miterlimit:1;" x1="171.771" y1="65.006" x2="171.771" y2="67.969"/>
	<line style="fill:none;stroke:#000000;stroke-miterlimit:1;" x1="171.771" y1="67.969" x2="171.771" y2="71.26"/>
	<line style="fill:none;stroke:#000000;stroke-miterlimit:1;" x1="171.771" y1="71.26" x2="172.102" y2="74.881"/>
	<line style="fill:none;stroke:#000000;stroke-miterlimit:1;" x1="172.102" y1="74.881" x2="172.76" y2="78.83"/>
	<line style="fill:none;stroke:#000000;stroke-miterlimit:1;" x1="172.76" y1="78.83" x2="173.418" y2="81.793"/>
	<line style="fill:none;stroke:#000000;stroke-miterlimit:1;" x1="173.418" y1="81.793" x2="174.404" y2="85.412"/>
	<line style="fill:none;stroke:#000000;stroke-miterlimit:1;" x1="174.404" y1="85.412" x2="176.051" y2="90.021"/>
	<line style="fill:none;stroke:#000000;stroke-miterlimit:1;" x1="176.051" y1="90.021" x2="177.695" y2="94.629"/>
	<line style="fill:none;stroke:#000000;stroke-miterlimit:1;" x1="177.695" y1="94.629" x2="181.975" y2="101.869"/>
	<line style="fill:none;stroke:#000000;stroke-miterlimit:1;" x1="181.975" y1="101.869" x2="184.607" y2="105.162"/>
	<line style="fill:none;stroke:#000000;stroke-miterlimit:1;" x1="184.607" y1="105.162" x2="187.9" y2="109.439"/>
	<line style="fill:none;stroke:#000000;stroke-miterlimit:1;" x1="187.9" y1="109.439" x2="191.85" y2="112.732"/>
	<line style="fill:none;stroke:#000000;stroke-miterlimit:1;" x1="191.85" y1="112.732" x2="195.471" y2="115.365"/>
	<line style="fill:none;stroke:#000000;stroke-miterlimit:1;" x1="195.471" y1="115.365" x2="198.762" y2="117.668"/>
	<line style="fill:none;stroke:#000000;stroke-miterlimit:1;" x1="198.762" y1="117.668" x2="202.053" y2="118.984"/>
	<line style="fill:none;stroke:#000000;stroke-miterlimit:1;" x1="202.053" y1="118.984" x2="205.344" y2="119.973"/>
	<line style="fill:none;stroke:#000000;stroke-miterlimit:1;" x1="205.344" y1="119.973" x2="208.635" y2="120.631"/>
	<line style="fill:none;stroke:#000000;stroke-miterlimit:1;" x1="208.635" y1="120.631" x2="211.598" y2="121.289"/>
	<line style="fill:none;stroke:#000000;stroke-miterlimit:1;" x1="211.598" y1="121.289" x2="214.23" y2="121.289"/>
	<line style="fill:none;stroke:#000000;stroke-miterlimit:1;" x1="214.23" y1="121.289" x2="217.523" y2="121.289"/>
	<line style="fill:none;stroke:#000000;stroke-miterlimit:1;" x1="217.523" y1="121.289" x2="220.156" y2="120.301"/>
	<line style="fill:none;stroke:#000000;stroke-miterlimit:1;" x1="220.156" y1="120.301" x2="222.789" y2="119.314"/>
	<line style="fill:none;stroke:#000000;stroke-miterlimit:1;" x1="222.789" y1="119.314" x2="225.422" y2="117.998"/>
	<line style="fill:none;stroke:#000000;stroke-miterlimit:1;" x1="225.422" y1="117.998" x2="228.055" y2="116.682"/>
	<line style="fill:none;stroke:#000000;stroke-miterlimit:1;" x1="228.055" y1="116.682" x2="230.359" y2="114.707"/>
	<line style="fill:none;stroke:#000000;stroke-miterlimit:1;" x1="230.359" y1="114.707" x2="232.004" y2="112.732"/>
	<line style="fill:none;stroke:#000000;stroke-miterlimit:1;" x1="232.004" y1="112.732" x2="233.65" y2="110.756"/>
	<line style="fill:none;stroke:#000000;stroke-miterlimit:1;" x1="233.65" y1="110.756" x2="234.639" y2="108.123"/>
	<line style="fill:none;stroke:#000000;stroke-miterlimit:1;" x1="234.639" y1="108.123" x2="236.283" y2="105.162"/>
	<line style="fill:none;stroke:#000000;stroke-miterlimit:1;" x1="236.283" y1="105.162" x2="236.613" y2="102.857"/>
	<line style="fill:none;stroke:#000000;stroke-miterlimit:1;" x1="236.613" y1="102.857" x2="237.271" y2="99.566"/>
	<line style="fill:none;stroke:#000000;stroke-miterlimit:1;" x1="237.271" y1="99.566" x2="236.941" y2="96.604"/>
	<line style="fill:none;stroke:#000000;stroke-miterlimit:1;" x1="236.941" y1="96.604" x2="236.613" y2="93.312"/>
	<line style="fill:none;stroke:#000000;stroke-miterlimit:1;" x1="236.613" y1="93.312" x2="235.625" y2="90.35"/>
	<line style="fill:none;stroke:#000000;stroke-miterlimit:1;" x1="235.625" y1="90.35" x2="234.309" y2="87.059"/>
	<line style="fill:none;stroke:#000000;stroke-miterlimit:1;" x1="234.309" y1="87.059" x2="232.664" y2="83.768"/>
	<line style="fill:none;stroke:#000000;stroke-miterlimit:1;" x1="232.664" y1="83.768" x2="230.359" y2="80.146"/>
	<line style="fill:none;stroke:#000000;stroke-miterlimit:1;" x1="230.359" y1="80.146" x2="227.727" y2="76.855"/>
	<line style="fill:none;stroke:#000000;stroke-miterlimit:1;" x1="227.727" y1="76.855" x2="225.094" y2="73.893"/>
	<line style="fill:none;stroke:#000000;stroke-miterlimit:1;" x1="225.094" y1="73.893" x2="222.131" y2="70.93"/>
	<line style="fill:none;stroke:#000000;stroke-miterlimit:1;" x1="222.131" y1="70.93" x2="219.168" y2="68.297"/>
	<line style="fill:none;stroke:#000000;stroke-miterlimit:1;" x1="219.168" y1="68.297" x2="215.547" y2="65.994"/>
	<line style="fill:none;stroke:#000000;stroke-miterlimit:1;" x1="215.547" y1="65.994" x2="211.928" y2="63.359"/>
	<line style="fill:none;stroke:#000000;stroke-miterlimit:1;" x1="211.928" y1="63.359" x2="206.99" y2="60.727"/>
	<line style="fill:none;stroke:#000000;stroke-miterlimit:1;" x1="206.99" y1="60.727" x2="203.369" y2="58.752"/>
	<line style="fill:none;stroke:#000000;stroke-miterlimit:1;" x1="203.369" y1="58.752" x2="199.09" y2="57.436"/>
	<line style="fill:none;stroke:#000000;stroke-miterlimit:1;" x1="199.09" y1="57.436" x2="194.482" y2="56.119"/>
	<line style="fill:none;stroke:#000000;stroke-miterlimit:1;" x1="194.482" y1="56.119" x2="190.533" y2="55.131"/>
	<line style="fill:none;stroke:#000000;stroke-miterlimit:1;" x1="190.533" y1="55.131" x2="186.912" y2="54.802"/>
	<line style="fill:none;stroke:#000000;stroke-miterlimit:1;" x1="186.912" y1="54.802" x2="184.279" y2="54.802"/>
	<line style="fill:none;stroke:#000000;stroke-miterlimit:1;" x1="184.279" y1="54.802" x2="181.316" y2="55.131"/>
	<line style="fill:none;stroke:#000000;stroke-miterlimit:1;" x1="181.316" y1="55.131" x2="179.672" y2="55.46"/>
	<line style="fill:none;stroke:#000000;stroke-miterlimit:1;" x1="179.672" y1="55.46" x2="177.695" y2="55.79"/>
	<line style="fill:none;stroke:#000000;stroke-miterlimit:1;" x1="177.695" y1="55.79" x2="175.062" y2="57.765"/>
</g>
</svg>
