<?xml version="1.0" encoding="iso-8859-1"?>
<!-- Generator: Adobe Illustrator 16.0.1, SVG Export Plug-In . SVG Version: 6.00 Build 0)  -->
<!DOCTYPE svg PUBLIC "-//W3C//DTD SVG 1.1//EN" "http://www.w3.org/Graphics/SVG/1.1/DTD/svg11.dtd">
<svg version="1.1" id="Ebene_1" xmlns="http://www.w3.org/2000/svg" xmlns:xlink="http://www.w3.org/1999/xlink" x="0px" y="0px"
	 width="250.643px" height="148.854px" viewBox="0 0 250.643 148.854" style="enable-background:new 0 0 250.643 148.854;"
	 xml:space="preserve">
<g>
	<line style="fill:none;stroke:#000000;stroke-miterlimit:1;" x1="77.678" y1="129.847" x2="0" y2="129.847"/>
	<line style="fill:none;stroke:#000000;stroke-miterlimit:1;" x1="0" y1="129.847" x2="0.988" y2="123.264"/>
	<line style="fill:none;stroke:#000000;stroke-miterlimit:1;" x1="0.988" y1="123.264" x2="1.975" y2="118.985"/>
	<line style="fill:none;stroke:#000000;stroke-miterlimit:1;" x1="1.975" y1="118.985" x2="3.621" y2="114.706"/>
	<line style="fill:none;stroke:#000000;stroke-miterlimit:1;" x1="3.621" y1="114.706" x2="5.925" y2="111.415"/>
	<line style="fill:none;stroke:#000000;stroke-miterlimit:1;" x1="5.925" y1="111.415" x2="7.9" y2="108.452"/>
	<line style="fill:none;stroke:#000000;stroke-miterlimit:1;" x1="7.9" y1="108.452" x2="10.533" y2="104.832"/>
	<line style="fill:none;stroke:#000000;stroke-miterlimit:1;" x1="10.533" y1="104.832" x2="13.495" y2="102.199"/>
	<line style="fill:none;stroke:#000000;stroke-miterlimit:1;" x1="13.495" y1="102.199" x2="17.116" y2="99.565"/>
	<line style="fill:none;stroke:#000000;stroke-miterlimit:1;" x1="17.116" y1="99.565" x2="20.078" y2="97.591"/>
	<line style="fill:none;stroke:#000000;stroke-miterlimit:1;" x1="20.078" y1="97.591" x2="24.357" y2="95.616"/>
	<line style="fill:none;stroke:#000000;stroke-miterlimit:1;" x1="24.357" y1="95.616" x2="28.636" y2="94.3"/>
	<line style="fill:none;stroke:#000000;stroke-miterlimit:1;" x1="28.636" y1="94.3" x2="31.598" y2="93.641"/>
	<line style="fill:none;stroke:#000000;stroke-miterlimit:1;" x1="31.598" y1="93.641" x2="36.864" y2="92.982"/>
	<line style="fill:none;stroke:#000000;stroke-miterlimit:1;" x1="36.864" y1="92.982" x2="40.814" y2="92.982"/>
	<line style="fill:none;stroke:#000000;stroke-miterlimit:1;" x1="40.814" y1="92.982" x2="44.435" y2="93.641"/>
	<line style="fill:none;stroke:#000000;stroke-miterlimit:1;" x1="44.435" y1="93.641" x2="48.384" y2="94.3"/>
	<line style="fill:none;stroke:#000000;stroke-miterlimit:1;" x1="48.384" y1="94.3" x2="52.663" y2="95.287"/>
	<line style="fill:none;stroke:#000000;stroke-miterlimit:1;" x1="52.663" y1="95.287" x2="55.625" y2="96.274"/>
	<line style="fill:none;stroke:#000000;stroke-miterlimit:1;" x1="55.625" y1="96.274" x2="59.575" y2="98.907"/>
	<line style="fill:none;stroke:#000000;stroke-miterlimit:1;" x1="59.575" y1="98.907" x2="62.867" y2="101.211"/>
	<line style="fill:none;stroke:#000000;stroke-miterlimit:1;" x1="62.867" y1="101.211" x2="65.829" y2="103.516"/>
	<line style="fill:none;stroke:#000000;stroke-miterlimit:1;" x1="65.829" y1="103.516" x2="68.462" y2="106.807"/>
	<line style="fill:none;stroke:#000000;stroke-miterlimit:1;" x1="68.462" y1="106.807" x2="71.095" y2="110.428"/>
	<line style="fill:none;stroke:#000000;stroke-miterlimit:1;" x1="71.095" y1="110.428" x2="73.399" y2="114.048"/>
	<line style="fill:none;stroke:#000000;stroke-miterlimit:1;" x1="73.399" y1="114.048" x2="75.045" y2="117.34"/>
	<line style="fill:none;stroke:#000000;stroke-miterlimit:1;" x1="75.045" y1="117.34" x2="76.361" y2="122.276"/>
	<line style="fill:none;stroke:#000000;stroke-miterlimit:1;" x1="76.361" y1="122.276" x2="77.349" y2="125.897"/>
	<line style="fill:none;stroke:#000000;stroke-miterlimit:1;" x1="77.349" y1="125.897" x2="77.678" y2="129.847"/>
	<line style="fill:none;stroke:#000000;stroke-miterlimit:1;" x1="188.434" y1="2.962" x2="186.789" y2="4.937"/>
	<line style="fill:none;stroke:#000000;stroke-miterlimit:1;" x1="186.789" y1="4.937" x2="185.801" y2="7.57"/>
	<line style="fill:none;stroke:#000000;stroke-miterlimit:1;" x1="185.801" y1="7.57" x2="185.143" y2="10.203"/>
	<line style="fill:none;stroke:#000000;stroke-miterlimit:1;" x1="185.143" y1="10.203" x2="185.143" y2="13.166"/>
	<line style="fill:none;stroke:#000000;stroke-miterlimit:1;" x1="185.143" y1="13.166" x2="185.143" y2="16.457"/>
	<line style="fill:none;stroke:#000000;stroke-miterlimit:1;" x1="185.143" y1="16.457" x2="185.473" y2="20.078"/>
	<line style="fill:none;stroke:#000000;stroke-miterlimit:1;" x1="185.473" y1="20.078" x2="186.131" y2="24.027"/>
	<line style="fill:none;stroke:#000000;stroke-miterlimit:1;" x1="186.131" y1="24.027" x2="186.789" y2="26.99"/>
	<line style="fill:none;stroke:#000000;stroke-miterlimit:1;" x1="186.789" y1="26.99" x2="187.775" y2="30.61"/>
	<line style="fill:none;stroke:#000000;stroke-miterlimit:1;" x1="187.775" y1="30.61" x2="189.422" y2="35.218"/>
	<line style="fill:none;stroke:#000000;stroke-miterlimit:1;" x1="189.422" y1="35.218" x2="191.068" y2="39.826"/>
	<line style="fill:none;stroke:#000000;stroke-miterlimit:1;" x1="191.068" y1="39.826" x2="195.346" y2="47.067"/>
	<line style="fill:none;stroke:#000000;stroke-miterlimit:1;" x1="195.346" y1="47.067" x2="197.98" y2="50.359"/>
	<line style="fill:none;stroke:#000000;stroke-miterlimit:1;" x1="197.98" y1="50.359" x2="201.271" y2="54.638"/>
	<line style="fill:none;stroke:#000000;stroke-miterlimit:1;" x1="201.271" y1="54.638" x2="205.221" y2="57.929"/>
	<line style="fill:none;stroke:#000000;stroke-miterlimit:1;" x1="205.221" y1="57.929" x2="208.842" y2="60.562"/>
	<line style="fill:none;stroke:#000000;stroke-miterlimit:1;" x1="208.842" y1="60.562" x2="212.133" y2="62.866"/>
	<line style="fill:none;stroke:#000000;stroke-miterlimit:1;" x1="212.133" y1="62.866" x2="215.424" y2="64.183"/>
	<line style="fill:none;stroke:#000000;stroke-miterlimit:1;" x1="215.424" y1="64.183" x2="218.715" y2="65.17"/>
	<line style="fill:none;stroke:#000000;stroke-miterlimit:1;" x1="218.715" y1="65.17" x2="222.008" y2="65.829"/>
	<line style="fill:none;stroke:#000000;stroke-miterlimit:1;" x1="222.008" y1="65.829" x2="224.969" y2="66.487"/>
	<line style="fill:none;stroke:#000000;stroke-miterlimit:1;" x1="224.969" y1="66.487" x2="227.602" y2="66.487"/>
	<line style="fill:none;stroke:#000000;stroke-miterlimit:1;" x1="227.602" y1="66.487" x2="230.895" y2="66.487"/>
	<line style="fill:none;stroke:#000000;stroke-miterlimit:1;" x1="230.895" y1="66.487" x2="233.527" y2="65.5"/>
	<line style="fill:none;stroke:#000000;stroke-miterlimit:1;" x1="233.527" y1="65.5" x2="236.16" y2="64.512"/>
	<line style="fill:none;stroke:#000000;stroke-miterlimit:1;" x1="236.16" y1="64.512" x2="238.793" y2="63.195"/>
	<line style="fill:none;stroke:#000000;stroke-miterlimit:1;" x1="238.793" y1="63.195" x2="241.426" y2="61.879"/>
	<line style="fill:none;stroke:#000000;stroke-miterlimit:1;" x1="241.426" y1="61.879" x2="243.73" y2="59.904"/>
	<line style="fill:none;stroke:#000000;stroke-miterlimit:1;" x1="243.73" y1="59.904" x2="245.377" y2="57.929"/>
	<line style="fill:none;stroke:#000000;stroke-miterlimit:1;" x1="245.377" y1="57.929" x2="247.021" y2="55.954"/>
	<line style="fill:none;stroke:#000000;stroke-miterlimit:1;" x1="247.021" y1="55.954" x2="248.01" y2="53.321"/>
	<line style="fill:none;stroke:#000000;stroke-miterlimit:1;" x1="248.01" y1="53.321" x2="249.654" y2="50.359"/>
	<line style="fill:none;stroke:#000000;stroke-miterlimit:1;" x1="249.654" y1="50.359" x2="249.984" y2="48.055"/>
	<line style="fill:none;stroke:#000000;stroke-miterlimit:1;" x1="249.984" y1="48.055" x2="250.643" y2="44.763"/>
	<line style="fill:none;stroke:#000000;stroke-miterlimit:1;" x1="250.643" y1="44.763" x2="250.312" y2="41.801"/>
	<line style="fill:none;stroke:#000000;stroke-miterlimit:1;" x1="250.312" y1="41.801" x2="249.984" y2="38.51"/>
	<line style="fill:none;stroke:#000000;stroke-miterlimit:1;" x1="249.984" y1="38.51" x2="248.996" y2="35.547"/>
	<line style="fill:none;stroke:#000000;stroke-miterlimit:1;" x1="248.996" y1="35.547" x2="247.68" y2="32.256"/>
	<line style="fill:none;stroke:#000000;stroke-miterlimit:1;" x1="247.68" y1="32.256" x2="246.035" y2="28.964"/>
	<line style="fill:none;stroke:#000000;stroke-miterlimit:1;" x1="246.035" y1="28.964" x2="243.73" y2="25.344"/>
	<line style="fill:none;stroke:#000000;stroke-miterlimit:1;" x1="243.73" y1="25.344" x2="241.098" y2="22.053"/>
	<line style="fill:none;stroke:#000000;stroke-miterlimit:1;" x1="241.098" y1="22.053" x2="238.465" y2="19.09"/>
	<line style="fill:none;stroke:#000000;stroke-miterlimit:1;" x1="238.465" y1="19.09" x2="235.502" y2="16.128"/>
	<line style="fill:none;stroke:#000000;stroke-miterlimit:1;" x1="235.502" y1="16.128" x2="232.539" y2="13.495"/>
	<line style="fill:none;stroke:#000000;stroke-miterlimit:1;" x1="232.539" y1="13.495" x2="228.92" y2="11.191"/>
	<line style="fill:none;stroke:#000000;stroke-miterlimit:1;" x1="228.92" y1="11.191" x2="225.299" y2="8.558"/>
	<line style="fill:none;stroke:#000000;stroke-miterlimit:1;" x1="225.299" y1="8.558" x2="220.361" y2="5.924"/>
	<line style="fill:none;stroke:#000000;stroke-miterlimit:1;" x1="220.361" y1="5.924" x2="216.74" y2="3.95"/>
	<line style="fill:none;stroke:#000000;stroke-miterlimit:1;" x1="216.74" y1="3.95" x2="212.463" y2="2.633"/>
	<line style="fill:none;stroke:#000000;stroke-miterlimit:1;" x1="212.463" y1="2.633" x2="207.854" y2="1.316"/>
	<line style="fill:none;stroke:#000000;stroke-miterlimit:1;" x1="207.854" y1="1.316" x2="203.904" y2="0.329"/>
	<line style="fill:none;stroke:#000000;stroke-miterlimit:1;" x1="203.904" y1="0.329" x2="200.283" y2="0"/>
	<line style="fill:none;stroke:#000000;stroke-miterlimit:1;" x1="200.283" y1="0" x2="197.65" y2="0"/>
	<line style="fill:none;stroke:#000000;stroke-miterlimit:1;" x1="197.65" y1="0" x2="194.688" y2="0.329"/>
	<line style="fill:none;stroke:#000000;stroke-miterlimit:1;" x1="194.688" y1="0.329" x2="193.043" y2="0.658"/>
	<line style="fill:none;stroke:#000000;stroke-miterlimit:1;" x1="193.043" y1="0.658" x2="191.068" y2="0.987"/>
	<line style="fill:none;stroke:#000000;stroke-miterlimit:1;" x1="191.068" y1="0.987" x2="188.434" y2="2.962"/>
	<line style="fill:none;stroke:#000000;stroke-miterlimit:1;" x1="99.978" y1="38.263" x2="96.028" y2="42.542"/>
	<line style="fill:none;stroke:#000000;stroke-miterlimit:1;" x1="96.028" y1="42.542" x2="94.711" y2="47.808"/>
	<line style="fill:none;stroke:#000000;stroke-miterlimit:1;" x1="94.711" y1="47.808" x2="95.699" y2="53.074"/>
	<line style="fill:none;stroke:#000000;stroke-miterlimit:1;" x1="95.699" y1="53.074" x2="98.002" y2="57.024"/>
	<line style="fill:none;stroke:#000000;stroke-miterlimit:1;" x1="98.002" y1="57.024" x2="104.256" y2="62.948"/>
	<line style="fill:none;stroke:#000000;stroke-miterlimit:1;" x1="104.256" y1="62.948" x2="115.118" y2="68.873"/>
	<line style="fill:none;stroke:#000000;stroke-miterlimit:1;" x1="115.118" y1="68.873" x2="133.879" y2="75.785"/>
	<line style="fill:none;stroke:#000000;stroke-miterlimit:1;" x1="133.879" y1="75.785" x2="156.262" y2="80.393"/>
	<line style="fill:none;stroke:#000000;stroke-miterlimit:1;" x1="156.262" y1="80.393" x2="178.643" y2="83.026"/>
	<line style="fill:none;stroke:#000000;stroke-miterlimit:1;" x1="178.643" y1="83.026" x2="185.883" y2="83.685"/>
	<line style="fill:none;stroke:#000000;stroke-miterlimit:1;" x1="185.883" y1="83.685" x2="190.492" y2="84.014"/>
	<line style="fill:none;stroke:#000000;stroke-miterlimit:1;" x1="190.492" y1="84.014" x2="192.795" y2="83.355"/>
	<line style="fill:none;stroke:#000000;stroke-miterlimit:1;" x1="192.795" y1="83.355" x2="194.111" y2="82.039"/>
	<line style="fill:none;stroke:#000000;stroke-miterlimit:1;" x1="194.111" y1="82.039" x2="194.111" y2="80.393"/>
	<line style="fill:none;stroke:#000000;stroke-miterlimit:1;" x1="194.111" y1="80.393" x2="192.467" y2="79.076"/>
	<line style="fill:none;stroke:#000000;stroke-miterlimit:1;" x1="192.467" y1="79.076" x2="183.58" y2="77.431"/>
	<line style="fill:none;stroke:#000000;stroke-miterlimit:1;" x1="183.58" y1="77.431" x2="177.984" y2="74.798"/>
	<line style="fill:none;stroke:#000000;stroke-miterlimit:1;" x1="177.984" y1="74.798" x2="174.693" y2="72.494"/>
	<line style="fill:none;stroke:#000000;stroke-miterlimit:1;" x1="174.693" y1="72.494" x2="166.793" y2="65.911"/>
	<line style="fill:none;stroke:#000000;stroke-miterlimit:1;" x1="166.793" y1="65.911" x2="154.943" y2="55.049"/>
	<line style="fill:none;stroke:#000000;stroke-miterlimit:1;" x1="154.943" y1="55.049" x2="143.096" y2="45.833"/>
	<line style="fill:none;stroke:#000000;stroke-miterlimit:1;" x1="143.096" y1="45.833" x2="132.232" y2="39.909"/>
	<line style="fill:none;stroke:#000000;stroke-miterlimit:1;" x1="132.232" y1="39.909" x2="121.701" y2="35.63"/>
	<line style="fill:none;stroke:#000000;stroke-miterlimit:1;" x1="121.701" y1="35.63" x2="113.801" y2="33.326"/>
	<line style="fill:none;stroke:#000000;stroke-miterlimit:1;" x1="113.801" y1="33.326" x2="106.889" y2="32.997"/>
	<line style="fill:none;stroke:#000000;stroke-miterlimit:1;" x1="106.889" y1="32.997" x2="100.965" y2="34.313"/>
	<line style="fill:none;stroke:#000000;stroke-miterlimit:1;" x1="100.965" y1="34.313" x2="96.357" y2="36.617"/>
	<line style="fill:none;stroke:#000000;stroke-miterlimit:1;" x1="96.357" y1="36.617" x2="93.065" y2="38.592"/>
	<line style="fill:none;stroke:#000000;stroke-miterlimit:1;" x1="93.065" y1="38.592" x2="91.419" y2="40.238"/>
	<line style="fill:none;stroke:#000000;stroke-miterlimit:1;" x1="91.419" y1="40.238" x2="89.116" y2="40.567"/>
	<line style="fill:none;stroke:#000000;stroke-miterlimit:1;" x1="89.116" y1="40.567" x2="86.482" y2="39.909"/>
	<line style="fill:none;stroke:#000000;stroke-miterlimit:1;" x1="86.482" y1="39.909" x2="86.153" y2="37.604"/>
	<line style="fill:none;stroke:#000000;stroke-miterlimit:1;" x1="86.153" y1="37.604" x2="98.99" y2="27.072"/>
	<line style="fill:none;stroke:#000000;stroke-miterlimit:1;" x1="98.99" y1="27.072" x2="101.623" y2="24.109"/>
	<line style="fill:none;stroke:#000000;stroke-miterlimit:1;" x1="101.623" y1="24.109" x2="103.269" y2="20.489"/>
	<line style="fill:none;stroke:#000000;stroke-miterlimit:1;" x1="103.269" y1="20.489" x2="103.598" y2="17.198"/>
	<line style="fill:none;stroke:#000000;stroke-miterlimit:1;" x1="103.598" y1="17.198" x2="103.269" y2="14.235"/>
	<line style="fill:none;stroke:#000000;stroke-miterlimit:1;" x1="100.307" y1="11.931" x2="113.801" y2="18.185"/>
	<line style="fill:none;stroke:#000000;stroke-miterlimit:1;" x1="113.801" y1="18.185" x2="127.955" y2="23.451"/>
	<line style="fill:none;stroke:#000000;stroke-miterlimit:1;" x1="127.955" y1="23.451" x2="140.463" y2="26.084"/>
	<line style="fill:none;stroke:#000000;stroke-miterlimit:1;" x1="140.463" y1="26.084" x2="153.627" y2="27.072"/>
	<line style="fill:none;stroke:#000000;stroke-miterlimit:1;" x1="153.627" y1="27.072" x2="163.502" y2="27.401"/>
	<line style="fill:none;stroke:#000000;stroke-miterlimit:1;" x1="163.502" y1="27.401" x2="170.742" y2="26.414"/>
	<line style="fill:none;stroke:#000000;stroke-miterlimit:1;" x1="170.742" y1="26.414" x2="160.539" y2="24.768"/>
	<line style="fill:none;stroke:#000000;stroke-miterlimit:1;" x1="160.539" y1="24.768" x2="149.02" y2="23.78"/>
	<line style="fill:none;stroke:#000000;stroke-miterlimit:1;" x1="149.02" y1="23.78" x2="136.184" y2="21.806"/>
	<line style="fill:none;stroke:#000000;stroke-miterlimit:1;" x1="136.184" y1="21.806" x2="126.967" y2="19.172"/>
	<line style="fill:none;stroke:#000000;stroke-miterlimit:1;" x1="126.967" y1="19.172" x2="115.776" y2="15.223"/>
	<line style="fill:none;stroke:#000000;stroke-miterlimit:1;" x1="115.776" y1="15.223" x2="107.219" y2="11.602"/>
	<line style="fill:none;stroke:#000000;stroke-miterlimit:1;" x1="107.219" y1="11.602" x2="101.952" y2="7.981"/>
	<line style="fill:none;stroke:#000000;stroke-miterlimit:1;" x1="101.952" y1="7.981" x2="119.726" y2="14.894"/>
	<line style="fill:none;stroke:#000000;stroke-miterlimit:1;" x1="119.726" y1="14.894" x2="130.916" y2="16.869"/>
	<line style="fill:none;stroke:#000000;stroke-miterlimit:1;" x1="130.916" y1="16.869" x2="136.842" y2="17.856"/>
	<line style="fill:none;stroke:#000000;stroke-miterlimit:1;" x1="136.842" y1="17.856" x2="149.35" y2="18.843"/>
	<line style="fill:none;stroke:#000000;stroke-miterlimit:1;" x1="149.35" y1="18.843" x2="160.869" y2="18.185"/>
	<line style="fill:none;stroke:#000000;stroke-miterlimit:1;" x1="160.869" y1="18.185" x2="167.781" y2="17.527"/>
	<line style="fill:none;stroke:#000000;stroke-miterlimit:1;" x1="167.781" y1="17.527" x2="173.377" y2="17.198"/>
	<line style="fill:none;stroke:#000000;stroke-miterlimit:1;" x1="173.377" y1="17.198" x2="161.197" y2="16.21"/>
	<line style="fill:none;stroke:#000000;stroke-miterlimit:1;" x1="161.197" y1="16.21" x2="150.666" y2="15.223"/>
	<line style="fill:none;stroke:#000000;stroke-miterlimit:1;" x1="150.666" y1="15.223" x2="140.463" y2="14.894"/>
	<line style="fill:none;stroke:#000000;stroke-miterlimit:1;" x1="140.463" y1="14.894" x2="131.574" y2="13.577"/>
	<line style="fill:none;stroke:#000000;stroke-miterlimit:1;" x1="131.574" y1="13.577" x2="120.713" y2="11.273"/>
	<line style="fill:none;stroke:#000000;stroke-miterlimit:1;" x1="120.713" y1="11.273" x2="110.839" y2="8.311"/>
	<line style="fill:none;stroke:#000000;stroke-miterlimit:1;" x1="110.839" y1="8.311" x2="104.256" y2="5.349"/>
	<line style="fill:none;stroke:#000000;stroke-miterlimit:1;" x1="104.256" y1="5.349" x2="99.648" y2="2.386"/>
	<line style="fill:none;stroke:#000000;stroke-miterlimit:1;" x1="99.648" y1="2.386" x2="96.028" y2="1.07"/>
	<line style="fill:none;stroke:#000000;stroke-miterlimit:1;" x1="96.028" y1="1.07" x2="92.736" y2="0.74"/>
	<line style="fill:none;stroke:#000000;stroke-miterlimit:1;" x1="92.736" y1="0.74" x2="85.495" y2="1.728"/>
	<line style="fill:none;stroke:#000000;stroke-miterlimit:1;" x1="85.495" y1="1.728" x2="79.9" y2="3.703"/>
	<line style="fill:none;stroke:#000000;stroke-miterlimit:1;" x1="79.9" y1="3.703" x2="77.596" y2="5.349"/>
	<line style="fill:none;stroke:#000000;stroke-miterlimit:1;" x1="77.596" y1="5.349" x2="76.279" y2="7.652"/>
	<line style="fill:none;stroke:#000000;stroke-miterlimit:1;" x1="76.279" y1="7.652" x2="75.95" y2="8.311"/>
	<line style="fill:none;stroke:#000000;stroke-miterlimit:1;" x1="75.95" y1="8.311" x2="75.95" y2="10.944"/>
	<line style="fill:none;stroke:#000000;stroke-miterlimit:1;" x1="75.95" y1="10.944" x2="77.596" y2="13.577"/>
	<line style="fill:none;stroke:#000000;stroke-miterlimit:1;" x1="77.596" y1="13.577" x2="79.57" y2="14.235"/>
	<line style="fill:none;stroke:#000000;stroke-miterlimit:1;" x1="79.57" y1="14.235" x2="81.545" y2="14.894"/>
	<line style="fill:none;stroke:#000000;stroke-miterlimit:1;" x1="81.545" y1="14.894" x2="85.166" y2="15.881"/>
	<line style="fill:none;stroke:#000000;stroke-miterlimit:1;" x1="85.166" y1="15.881" x2="89.116" y2="15.881"/>
	<line style="fill:none;stroke:#000000;stroke-miterlimit:1;" x1="89.116" y1="15.881" x2="91.419" y2="14.894"/>
	<line style="fill:none;stroke:#000000;stroke-miterlimit:1;" x1="91.419" y1="14.894" x2="93.395" y2="14.564"/>
	<line style="fill:none;stroke:#000000;stroke-miterlimit:1;" x1="93.395" y1="14.564" x2="94.382" y2="16.21"/>
	<line style="fill:none;stroke:#000000;stroke-miterlimit:1;" x1="94.382" y1="16.21" x2="94.711" y2="19.172"/>
	<line style="fill:none;stroke:#000000;stroke-miterlimit:1;" x1="94.711" y1="19.172" x2="91.09" y2="23.451"/>
	<line style="fill:none;stroke:#000000;stroke-miterlimit:1;" x1="91.09" y1="23.451" x2="85.166" y2="27.73"/>
	<line style="fill:none;stroke:#000000;stroke-miterlimit:1;" x1="85.166" y1="27.73" x2="79.57" y2="32.997"/>
	<line style="fill:none;stroke:#000000;stroke-miterlimit:1;" x1="79.57" y1="32.997" x2="76.938" y2="36.617"/>
	<line style="fill:none;stroke:#000000;stroke-miterlimit:1;" x1="76.938" y1="36.617" x2="74.962" y2="39.579"/>
	<line style="fill:none;stroke:#000000;stroke-miterlimit:1;" x1="74.962" y1="39.579" x2="73.975" y2="44.846"/>
	<line style="fill:none;stroke:#000000;stroke-miterlimit:1;" x1="73.975" y1="44.846" x2="74.633" y2="47.808"/>
	<line style="fill:none;stroke:#000000;stroke-miterlimit:1;" x1="74.633" y1="47.808" x2="78.583" y2="53.732"/>
	<line style="fill:none;stroke:#000000;stroke-miterlimit:1;" x1="78.583" y1="53.732" x2="88.787" y2="64.923"/>
	<line style="fill:none;stroke:#000000;stroke-miterlimit:1;" x1="88.787" y1="64.923" x2="95.04" y2="70.519"/>
	<line style="fill:none;stroke:#000000;stroke-miterlimit:1;" x1="95.04" y1="70.519" x2="102.281" y2="75.785"/>
	<line style="fill:none;stroke:#000000;stroke-miterlimit:1;" x1="102.281" y1="75.785" x2="112.814" y2="80.393"/>
	<line style="fill:none;stroke:#000000;stroke-miterlimit:1;" x1="112.814" y1="80.393" x2="119.068" y2="89.609"/>
	<line style="fill:none;stroke:#000000;stroke-miterlimit:1;" x1="119.068" y1="89.609" x2="125.65" y2="97.18"/>
	<line style="fill:none;stroke:#000000;stroke-miterlimit:1;" x1="125.65" y1="97.18" x2="129.93" y2="101.787"/>
	<line style="fill:none;stroke:#000000;stroke-miterlimit:1;" x1="129.93" y1="101.787" x2="131.246" y2="104.75"/>
	<line style="fill:none;stroke:#000000;stroke-miterlimit:1;" x1="131.246" y1="104.75" x2="133.221" y2="126.144"/>
	<line style="fill:none;stroke:#000000;stroke-miterlimit:1;" x1="133.221" y1="126.144" x2="133.221" y2="139.968"/>
	<line style="fill:none;stroke:#000000;stroke-miterlimit:1;" x1="133.221" y1="139.968" x2="132.562" y2="142.271"/>
	<line style="fill:none;stroke:#000000;stroke-miterlimit:1;" x1="132.562" y1="142.271" x2="130.258" y2="142.931"/>
	<line style="fill:none;stroke:#000000;stroke-miterlimit:1;" x1="130.258" y1="142.931" x2="116.105" y2="144.905"/>
	<line style="fill:none;stroke:#000000;stroke-miterlimit:1;" x1="116.105" y1="144.905" x2="115.118" y2="145.234"/>
	<line style="fill:none;stroke:#000000;stroke-miterlimit:1;" x1="115.118" y1="145.234" x2="113.143" y2="145.563"/>
	<line style="fill:none;stroke:#000000;stroke-miterlimit:1;" x1="113.143" y1="145.563" x2="112.156" y2="146.88"/>
	<line style="fill:none;stroke:#000000;stroke-miterlimit:1;" x1="112.156" y1="146.88" x2="112.156" y2="148.854"/>
	<line style="fill:none;stroke:#000000;stroke-miterlimit:1;" x1="112.156" y1="148.854" x2="114.13" y2="147.867"/>
	<line style="fill:none;stroke:#000000;stroke-miterlimit:1;" x1="114.13" y1="147.867" x2="116.435" y2="148.525"/>
	<line style="fill:none;stroke:#000000;stroke-miterlimit:1;" x1="125.98" y1="144.905" x2="117.751" y2="146.222"/>
	<line style="fill:none;stroke:#000000;stroke-miterlimit:1;" x1="117.751" y1="146.222" x2="116.435" y2="147.209"/>
	<line style="fill:none;stroke:#000000;stroke-miterlimit:1;" x1="116.435" y1="147.209" x2="116.764" y2="148.854"/>
	<line style="fill:none;stroke:#000000;stroke-miterlimit:1;" x1="116.764" y1="148.854" x2="119.397" y2="147.538"/>
	<line style="fill:none;stroke:#000000;stroke-miterlimit:1;" x1="119.397" y1="147.538" x2="121.372" y2="148.854"/>
	<line style="fill:none;stroke:#000000;stroke-miterlimit:1;" x1="121.372" y1="148.854" x2="134.537" y2="147.209"/>
	<line style="fill:none;stroke:#000000;stroke-miterlimit:1;" x1="134.537" y1="147.209" x2="144.74" y2="148.854"/>
	<line style="fill:none;stroke:#000000;stroke-miterlimit:1;" x1="144.74" y1="148.854" x2="145.07" y2="147.209"/>
	<line style="fill:none;stroke:#000000;stroke-miterlimit:1;" x1="145.07" y1="147.209" x2="144.412" y2="145.563"/>
	<line style="fill:none;stroke:#000000;stroke-miterlimit:1;" x1="144.412" y1="145.563" x2="141.779" y2="144.905"/>
	<line style="fill:none;stroke:#000000;stroke-miterlimit:1;" x1="141.779" y1="144.905" x2="138.816" y2="143.918"/>
	<line style="fill:none;stroke:#000000;stroke-miterlimit:1;" x1="138.816" y1="143.918" x2="137.828" y2="143.589"/>
	<line style="fill:none;stroke:#000000;stroke-miterlimit:1;" x1="137.828" y1="143.589" x2="136.842" y2="141.613"/>
	<line style="fill:none;stroke:#000000;stroke-miterlimit:1;" x1="136.842" y1="141.613" x2="136.512" y2="107.712"/>
	<line style="fill:none;stroke:#000000;stroke-miterlimit:1;" x1="136.512" y1="107.712" x2="137.17" y2="103.762"/>
	<line style="fill:none;stroke:#000000;stroke-miterlimit:1;" x1="137.17" y1="103.762" x2="137.17" y2="102.445"/>
	<line style="fill:none;stroke:#000000;stroke-miterlimit:1;" x1="137.17" y1="102.445" x2="134.867" y2="98.167"/>
	<line style="fill:none;stroke:#000000;stroke-miterlimit:1;" x1="134.867" y1="98.167" x2="132.562" y2="94.217"/>
	<line style="fill:none;stroke:#000000;stroke-miterlimit:1;" x1="132.562" y1="94.217" x2="124.992" y2="82.039"/>
	<line style="fill:none;stroke:#000000;stroke-miterlimit:1;" x1="127.955" y1="85.659" x2="139.803" y2="86.976"/>
	<line style="fill:none;stroke:#000000;stroke-miterlimit:1;" x1="139.803" y1="86.976" x2="149.678" y2="86.646"/>
	<line style="fill:none;stroke:#000000;stroke-miterlimit:1;" x1="149.678" y1="86.646" x2="162.186" y2="85.33"/>
	<line style="fill:none;stroke:#000000;stroke-miterlimit:1;" x1="162.186" y1="85.33" x2="168.439" y2="90.926"/>
	<line style="fill:none;stroke:#000000;stroke-miterlimit:1;" x1="168.439" y1="90.926" x2="176.01" y2="97.838"/>
	<line style="fill:none;stroke:#000000;stroke-miterlimit:1;" x1="176.01" y1="97.838" x2="179.631" y2="98.167"/>
	<line style="fill:none;stroke:#000000;stroke-miterlimit:1;" x1="179.631" y1="98.167" x2="183.25" y2="97.18"/>
	<line style="fill:none;stroke:#000000;stroke-miterlimit:1;" x1="183.25" y1="97.18" x2="187.201" y2="93.888"/>
	<line style="fill:none;stroke:#000000;stroke-miterlimit:1;" x1="187.201" y1="93.888" x2="187.859" y2="91.255"/>
	<line style="fill:none;stroke:#000000;stroke-miterlimit:1;" x1="187.859" y1="91.255" x2="179.959" y2="83.026"/>
	<line style="fill:none;stroke:#000000;stroke-miterlimit:1;" x1="75.95" y1="7.981" x2="47.314" y2="25.426"/>
	<line style="fill:none;stroke:#000000;stroke-miterlimit:1;" x1="47.314" y1="25.426" x2="80.229" y2="14.564"/>
	<line style="fill:none;stroke:#000000;stroke-miterlimit:1;" x1="76.279" y1="12.59" x2="47.314" y2="25.426"/>
	<line style="fill:none;stroke:#000000;stroke-miterlimit:1;" x1="82.533" y1="7.323" x2="80.887" y2="8.311"/>
	<line style="fill:none;stroke:#000000;stroke-miterlimit:1;" x1="80.887" y1="8.311" x2="81.875" y2="9.957"/>
	<line style="fill:none;stroke:#000000;stroke-miterlimit:1;" x1="81.875" y1="9.957" x2="83.52" y2="9.298"/>
	<line style="fill:none;stroke:#000000;stroke-miterlimit:1;" x1="83.52" y1="9.298" x2="82.862" y2="7.981"/>
	<line style="fill:none;stroke:#000000;stroke-miterlimit:1;" x1="145.729" y1="145.893" x2="148.361" y2="146.551"/>
	<line style="fill:none;stroke:#000000;stroke-miterlimit:1;" x1="148.361" y1="146.551" x2="149.678" y2="147.538"/>
	<line style="fill:none;stroke:#000000;stroke-miterlimit:1;" x1="149.678" y1="147.538" x2="150.008" y2="148.196"/>
	<line style="fill:none;stroke:#000000;stroke-miterlimit:1;" x1="150.008" y1="148.196" x2="148.361" y2="148.854"/>
	<line style="fill:none;stroke:#000000;stroke-miterlimit:1;" x1="148.361" y1="148.854" x2="146.057" y2="148.525"/>
	<line style="fill:none;stroke:#000000;stroke-miterlimit:1;" x1="96.357" y1="71.835" x2="103.269" y2="85.001"/>
	<line style="fill:none;stroke:#000000;stroke-miterlimit:1;" x1="103.269" y1="85.001" x2="111.168" y2="96.851"/>
	<line style="fill:none;stroke:#000000;stroke-miterlimit:1;" x1="111.168" y1="96.851" x2="111.827" y2="99.812"/>
	<line style="fill:none;stroke:#000000;stroke-miterlimit:1;" x1="111.827" y1="99.812" x2="90.432" y2="138.322"/>
	<line style="fill:none;stroke:#000000;stroke-miterlimit:1;" x1="90.432" y1="138.322" x2="89.445" y2="139.968"/>
	<line style="fill:none;stroke:#000000;stroke-miterlimit:1;" x1="89.445" y1="139.968" x2="88.458" y2="141.613"/>
	<line style="fill:none;stroke:#000000;stroke-miterlimit:1;" x1="88.458" y1="141.613" x2="86.153" y2="142.271"/>
	<line style="fill:none;stroke:#000000;stroke-miterlimit:1;" x1="86.153" y1="142.271" x2="78.254" y2="143.589"/>
	<line style="fill:none;stroke:#000000;stroke-miterlimit:1;" x1="78.254" y1="143.589" x2="72.988" y2="144.576"/>
	<line style="fill:none;stroke:#000000;stroke-miterlimit:1;" x1="72.988" y1="144.576" x2="71.013" y2="145.563"/>
	<line style="fill:none;stroke:#000000;stroke-miterlimit:1;" x1="71.013" y1="145.563" x2="69.696" y2="145.893"/>
	<line style="fill:none;stroke:#000000;stroke-miterlimit:1;" x1="69.696" y1="145.893" x2="67.721" y2="146.222"/>
	<line style="fill:none;stroke:#000000;stroke-miterlimit:1;" x1="67.721" y1="146.222" x2="67.063" y2="146.88"/>
	<line style="fill:none;stroke:#000000;stroke-miterlimit:1;" x1="67.063" y1="146.88" x2="66.405" y2="148.525"/>
	<line style="fill:none;stroke:#000000;stroke-miterlimit:1;" x1="66.405" y1="148.525" x2="68.38" y2="147.538"/>
	<line style="fill:none;stroke:#000000;stroke-miterlimit:1;" x1="68.38" y1="147.538" x2="70.684" y2="148.525"/>
	<line style="fill:none;stroke:#000000;stroke-miterlimit:1;" x1="74.304" y1="146.551" x2="72.988" y2="146.551"/>
	<line style="fill:none;stroke:#000000;stroke-miterlimit:1;" x1="72.988" y1="146.551" x2="71.342" y2="146.88"/>
	<line style="fill:none;stroke:#000000;stroke-miterlimit:1;" x1="71.342" y1="146.88" x2="70.684" y2="148.196"/>
	<line style="fill:none;stroke:#000000;stroke-miterlimit:1;" x1="70.684" y1="148.196" x2="71.342" y2="148.525"/>
	<line style="fill:none;stroke:#000000;stroke-miterlimit:1;" x1="71.342" y1="148.525" x2="73.317" y2="147.867"/>
	<line style="fill:none;stroke:#000000;stroke-miterlimit:1;" x1="74.633" y1="146.222" x2="76.938" y2="145.563"/>
	<line style="fill:none;stroke:#000000;stroke-miterlimit:1;" x1="76.938" y1="145.563" x2="82.204" y2="145.234"/>
	<line style="fill:none;stroke:#000000;stroke-miterlimit:1;" x1="73.646" y1="147.867" x2="76.279" y2="148.854"/>
	<line style="fill:none;stroke:#000000;stroke-miterlimit:1;" x1="76.279" y1="148.854" x2="88.458" y2="147.538"/>
	<line style="fill:none;stroke:#000000;stroke-miterlimit:1;" x1="88.458" y1="147.538" x2="90.432" y2="147.209"/>
	<line style="fill:none;stroke:#000000;stroke-miterlimit:1;" x1="90.432" y1="147.209" x2="100.307" y2="148.854"/>
	<line style="fill:none;stroke:#000000;stroke-miterlimit:1;" x1="100.307" y1="148.854" x2="100.636" y2="147.209"/>
	<line style="fill:none;stroke:#000000;stroke-miterlimit:1;" x1="100.636" y1="147.209" x2="100.307" y2="145.563"/>
	<line style="fill:none;stroke:#000000;stroke-miterlimit:1;" x1="100.307" y1="145.563" x2="97.344" y2="144.905"/>
	<line style="fill:none;stroke:#000000;stroke-miterlimit:1;" x1="97.344" y1="144.905" x2="93.395" y2="143.589"/>
	<line style="fill:none;stroke:#000000;stroke-miterlimit:1;" x1="93.065" y1="143.26" x2="92.736" y2="141.613"/>
	<line style="fill:none;stroke:#000000;stroke-miterlimit:1;" x1="92.736" y1="141.613" x2="113.143" y2="107.712"/>
	<line style="fill:none;stroke:#000000;stroke-miterlimit:1;" x1="113.143" y1="107.712" x2="118.08" y2="98.825"/>
	<line style="fill:none;stroke:#000000;stroke-miterlimit:1;" x1="118.08" y1="98.825" x2="118.08" y2="95.863"/>
	<line style="fill:none;stroke:#000000;stroke-miterlimit:1;" x1="118.08" y1="95.863" x2="114.459" y2="83.355"/>
	<line style="fill:none;stroke:#000000;stroke-miterlimit:1;" x1="101.294" y1="145.893" x2="103.598" y2="146.551"/>
	<line style="fill:none;stroke:#000000;stroke-miterlimit:1;" x1="103.598" y1="146.551" x2="104.915" y2="147.538"/>
	<line style="fill:none;stroke:#000000;stroke-miterlimit:1;" x1="104.915" y1="147.538" x2="105.244" y2="148.196"/>
	<line style="fill:none;stroke:#000000;stroke-miterlimit:1;" x1="105.244" y1="148.196" x2="103.598" y2="148.854"/>
	<line style="fill:none;stroke:#000000;stroke-miterlimit:1;" x1="103.598" y1="148.854" x2="101.294" y2="148.525"/>
</g>
</svg>
