<?xml version="1.0" encoding="iso-8859-1"?>
<!-- Generator: Adobe Illustrator 16.0.1, SVG Export Plug-In . SVG Version: 6.00 Build 0)  -->
<!DOCTYPE svg PUBLIC "-//W3C//DTD SVG 1.1//EN" "http://www.w3.org/Graphics/SVG/1.1/DTD/svg11.dtd">
<svg version="1.1" id="Ebene_1" xmlns="http://www.w3.org/2000/svg" xmlns:xlink="http://www.w3.org/1999/xlink" x="0px" y="0px"
	 width="243.277px" height="114.418px" viewBox="0 0 243.277 114.418" style="enable-background:new 0 0 243.277 114.418;"
	 xml:space="preserve">
<g>
	<line style="fill:none;stroke:#000000;stroke-miterlimit:1;" x1="243.277" y1="114.418" x2="165.6" y2="114.418"/>
	<line style="fill:none;stroke:#000000;stroke-miterlimit:1;" x1="165.6" y1="114.418" x2="166.588" y2="107.836"/>
	<line style="fill:none;stroke:#000000;stroke-miterlimit:1;" x1="166.588" y1="107.836" x2="167.574" y2="103.557"/>
	<line style="fill:none;stroke:#000000;stroke-miterlimit:1;" x1="167.574" y1="103.557" x2="169.221" y2="99.277"/>
	<line style="fill:none;stroke:#000000;stroke-miterlimit:1;" x1="169.221" y1="99.277" x2="171.525" y2="95.986"/>
	<line style="fill:none;stroke:#000000;stroke-miterlimit:1;" x1="171.525" y1="95.986" x2="173.5" y2="93.023"/>
	<line style="fill:none;stroke:#000000;stroke-miterlimit:1;" x1="173.5" y1="93.023" x2="176.133" y2="89.404"/>
	<line style="fill:none;stroke:#000000;stroke-miterlimit:1;" x1="176.133" y1="89.404" x2="179.094" y2="86.77"/>
	<line style="fill:none;stroke:#000000;stroke-miterlimit:1;" x1="179.094" y1="86.77" x2="182.715" y2="84.137"/>
	<line style="fill:none;stroke:#000000;stroke-miterlimit:1;" x1="182.715" y1="84.137" x2="185.678" y2="82.162"/>
	<line style="fill:none;stroke:#000000;stroke-miterlimit:1;" x1="185.678" y1="82.162" x2="189.957" y2="80.188"/>
	<line style="fill:none;stroke:#000000;stroke-miterlimit:1;" x1="189.957" y1="80.188" x2="194.234" y2="78.871"/>
	<line style="fill:none;stroke:#000000;stroke-miterlimit:1;" x1="194.234" y1="78.871" x2="197.197" y2="78.213"/>
	<line style="fill:none;stroke:#000000;stroke-miterlimit:1;" x1="197.197" y1="78.213" x2="202.463" y2="77.555"/>
	<line style="fill:none;stroke:#000000;stroke-miterlimit:1;" x1="202.463" y1="77.555" x2="206.414" y2="77.555"/>
	<line style="fill:none;stroke:#000000;stroke-miterlimit:1;" x1="206.414" y1="77.555" x2="210.033" y2="78.213"/>
	<line style="fill:none;stroke:#000000;stroke-miterlimit:1;" x1="210.033" y1="78.213" x2="213.984" y2="78.871"/>
	<line style="fill:none;stroke:#000000;stroke-miterlimit:1;" x1="213.984" y1="78.871" x2="218.264" y2="79.857"/>
	<line style="fill:none;stroke:#000000;stroke-miterlimit:1;" x1="218.264" y1="79.857" x2="221.225" y2="80.846"/>
	<line style="fill:none;stroke:#000000;stroke-miterlimit:1;" x1="221.225" y1="80.846" x2="225.174" y2="83.479"/>
	<line style="fill:none;stroke:#000000;stroke-miterlimit:1;" x1="225.174" y1="83.479" x2="228.467" y2="85.783"/>
	<line style="fill:none;stroke:#000000;stroke-miterlimit:1;" x1="228.467" y1="85.783" x2="231.428" y2="88.086"/>
	<line style="fill:none;stroke:#000000;stroke-miterlimit:1;" x1="231.428" y1="88.086" x2="234.062" y2="91.379"/>
	<line style="fill:none;stroke:#000000;stroke-miterlimit:1;" x1="234.062" y1="91.379" x2="236.695" y2="94.998"/>
	<line style="fill:none;stroke:#000000;stroke-miterlimit:1;" x1="236.695" y1="94.998" x2="238.998" y2="98.619"/>
	<line style="fill:none;stroke:#000000;stroke-miterlimit:1;" x1="238.998" y1="98.619" x2="240.645" y2="101.91"/>
	<line style="fill:none;stroke:#000000;stroke-miterlimit:1;" x1="240.645" y1="101.91" x2="241.961" y2="106.848"/>
	<line style="fill:none;stroke:#000000;stroke-miterlimit:1;" x1="241.961" y1="106.848" x2="242.949" y2="110.469"/>
	<line style="fill:none;stroke:#000000;stroke-miterlimit:1;" x1="242.949" y1="110.469" x2="243.277" y2="114.418"/>
	<line style="fill:none;stroke:#000000;stroke-miterlimit:1;" x1="177.119" y1="2.962" x2="175.475" y2="4.937"/>
	<line style="fill:none;stroke:#000000;stroke-miterlimit:1;" x1="175.475" y1="4.937" x2="174.486" y2="7.57"/>
	<line style="fill:none;stroke:#000000;stroke-miterlimit:1;" x1="174.486" y1="7.57" x2="173.828" y2="10.204"/>
	<line style="fill:none;stroke:#000000;stroke-miterlimit:1;" x1="173.828" y1="10.204" x2="173.828" y2="13.166"/>
	<line style="fill:none;stroke:#000000;stroke-miterlimit:1;" x1="173.828" y1="13.166" x2="173.828" y2="16.457"/>
	<line style="fill:none;stroke:#000000;stroke-miterlimit:1;" x1="173.828" y1="16.457" x2="174.158" y2="20.078"/>
	<line style="fill:none;stroke:#000000;stroke-miterlimit:1;" x1="174.158" y1="20.078" x2="174.816" y2="24.027"/>
	<line style="fill:none;stroke:#000000;stroke-miterlimit:1;" x1="174.816" y1="24.027" x2="175.475" y2="26.99"/>
	<line style="fill:none;stroke:#000000;stroke-miterlimit:1;" x1="175.475" y1="26.99" x2="176.461" y2="30.61"/>
	<line style="fill:none;stroke:#000000;stroke-miterlimit:1;" x1="176.461" y1="30.61" x2="178.107" y2="35.218"/>
	<line style="fill:none;stroke:#000000;stroke-miterlimit:1;" x1="178.107" y1="35.218" x2="179.754" y2="39.826"/>
	<line style="fill:none;stroke:#000000;stroke-miterlimit:1;" x1="179.754" y1="39.826" x2="184.031" y2="47.067"/>
	<line style="fill:none;stroke:#000000;stroke-miterlimit:1;" x1="184.031" y1="47.067" x2="186.664" y2="50.359"/>
	<line style="fill:none;stroke:#000000;stroke-miterlimit:1;" x1="186.664" y1="50.359" x2="189.957" y2="54.638"/>
	<line style="fill:none;stroke:#000000;stroke-miterlimit:1;" x1="189.957" y1="54.638" x2="193.906" y2="57.93"/>
	<line style="fill:none;stroke:#000000;stroke-miterlimit:1;" x1="193.906" y1="57.93" x2="197.527" y2="60.562"/>
	<line style="fill:none;stroke:#000000;stroke-miterlimit:1;" x1="197.527" y1="60.562" x2="200.818" y2="62.865"/>
	<line style="fill:none;stroke:#000000;stroke-miterlimit:1;" x1="200.818" y1="62.865" x2="204.109" y2="64.184"/>
	<line style="fill:none;stroke:#000000;stroke-miterlimit:1;" x1="204.109" y1="64.184" x2="207.4" y2="65.17"/>
	<line style="fill:none;stroke:#000000;stroke-miterlimit:1;" x1="207.4" y1="65.17" x2="210.693" y2="65.828"/>
	<line style="fill:none;stroke:#000000;stroke-miterlimit:1;" x1="210.693" y1="65.828" x2="213.654" y2="66.486"/>
	<line style="fill:none;stroke:#000000;stroke-miterlimit:1;" x1="213.654" y1="66.486" x2="216.287" y2="66.486"/>
	<line style="fill:none;stroke:#000000;stroke-miterlimit:1;" x1="216.287" y1="66.486" x2="219.58" y2="66.486"/>
	<line style="fill:none;stroke:#000000;stroke-miterlimit:1;" x1="219.58" y1="66.486" x2="222.213" y2="65.5"/>
	<line style="fill:none;stroke:#000000;stroke-miterlimit:1;" x1="222.213" y1="65.5" x2="224.846" y2="64.512"/>
	<line style="fill:none;stroke:#000000;stroke-miterlimit:1;" x1="224.846" y1="64.512" x2="227.479" y2="63.195"/>
	<line style="fill:none;stroke:#000000;stroke-miterlimit:1;" x1="227.479" y1="63.195" x2="230.111" y2="61.879"/>
	<line style="fill:none;stroke:#000000;stroke-miterlimit:1;" x1="230.111" y1="61.879" x2="232.416" y2="59.904"/>
	<line style="fill:none;stroke:#000000;stroke-miterlimit:1;" x1="232.416" y1="59.904" x2="234.062" y2="57.93"/>
	<line style="fill:none;stroke:#000000;stroke-miterlimit:1;" x1="234.062" y1="57.93" x2="235.707" y2="55.954"/>
	<line style="fill:none;stroke:#000000;stroke-miterlimit:1;" x1="235.707" y1="55.954" x2="236.695" y2="53.321"/>
	<line style="fill:none;stroke:#000000;stroke-miterlimit:1;" x1="236.695" y1="53.321" x2="238.34" y2="50.359"/>
	<line style="fill:none;stroke:#000000;stroke-miterlimit:1;" x1="238.34" y1="50.359" x2="238.67" y2="48.055"/>
	<line style="fill:none;stroke:#000000;stroke-miterlimit:1;" x1="238.67" y1="48.055" x2="239.328" y2="44.763"/>
	<line style="fill:none;stroke:#000000;stroke-miterlimit:1;" x1="239.328" y1="44.763" x2="238.998" y2="41.801"/>
	<line style="fill:none;stroke:#000000;stroke-miterlimit:1;" x1="238.998" y1="41.801" x2="238.67" y2="38.51"/>
	<line style="fill:none;stroke:#000000;stroke-miterlimit:1;" x1="238.67" y1="38.51" x2="237.682" y2="35.547"/>
	<line style="fill:none;stroke:#000000;stroke-miterlimit:1;" x1="237.682" y1="35.547" x2="236.365" y2="32.256"/>
	<line style="fill:none;stroke:#000000;stroke-miterlimit:1;" x1="236.365" y1="32.256" x2="234.721" y2="28.964"/>
	<line style="fill:none;stroke:#000000;stroke-miterlimit:1;" x1="234.721" y1="28.964" x2="232.416" y2="25.344"/>
	<line style="fill:none;stroke:#000000;stroke-miterlimit:1;" x1="232.416" y1="25.344" x2="229.783" y2="22.052"/>
	<line style="fill:none;stroke:#000000;stroke-miterlimit:1;" x1="229.783" y1="22.052" x2="227.15" y2="19.09"/>
	<line style="fill:none;stroke:#000000;stroke-miterlimit:1;" x1="227.15" y1="19.09" x2="224.188" y2="16.128"/>
	<line style="fill:none;stroke:#000000;stroke-miterlimit:1;" x1="224.188" y1="16.128" x2="221.225" y2="13.495"/>
	<line style="fill:none;stroke:#000000;stroke-miterlimit:1;" x1="221.225" y1="13.495" x2="217.604" y2="11.191"/>
	<line style="fill:none;stroke:#000000;stroke-miterlimit:1;" x1="217.604" y1="11.191" x2="213.984" y2="8.558"/>
	<line style="fill:none;stroke:#000000;stroke-miterlimit:1;" x1="213.984" y1="8.558" x2="209.047" y2="5.924"/>
	<line style="fill:none;stroke:#000000;stroke-miterlimit:1;" x1="209.047" y1="5.924" x2="205.426" y2="3.95"/>
	<line style="fill:none;stroke:#000000;stroke-miterlimit:1;" x1="205.426" y1="3.95" x2="201.146" y2="2.633"/>
	<line style="fill:none;stroke:#000000;stroke-miterlimit:1;" x1="201.146" y1="2.633" x2="196.539" y2="1.316"/>
	<line style="fill:none;stroke:#000000;stroke-miterlimit:1;" x1="196.539" y1="1.316" x2="192.59" y2="0.329"/>
	<line style="fill:none;stroke:#000000;stroke-miterlimit:1;" x1="192.59" y1="0.329" x2="188.969" y2="0"/>
	<line style="fill:none;stroke:#000000;stroke-miterlimit:1;" x1="188.969" y1="0" x2="186.336" y2="0"/>
	<line style="fill:none;stroke:#000000;stroke-miterlimit:1;" x1="186.336" y1="0" x2="183.373" y2="0.329"/>
	<line style="fill:none;stroke:#000000;stroke-miterlimit:1;" x1="183.373" y1="0.329" x2="181.729" y2="0.658"/>
	<line style="fill:none;stroke:#000000;stroke-miterlimit:1;" x1="181.729" y1="0.658" x2="179.754" y2="0.987"/>
	<line style="fill:none;stroke:#000000;stroke-miterlimit:1;" x1="179.754" y1="0.987" x2="177.119" y2="2.962"/>
	<line style="fill:none;stroke:#000000;stroke-miterlimit:1;" x1="51.346" y1="110.963" x2="71.424" y2="110.963"/>
	<line style="fill:none;stroke:#000000;stroke-miterlimit:1;" x1="71.424" y1="110.963" x2="71.095" y2="103.721"/>
	<line style="fill:none;stroke:#000000;stroke-miterlimit:1;" x1="71.095" y1="103.721" x2="72.74" y2="94.176"/>
	<line style="fill:none;stroke:#000000;stroke-miterlimit:1;" x1="72.74" y1="94.176" x2="75.044" y2="88.58"/>
	<line style="fill:none;stroke:#000000;stroke-miterlimit:1;" x1="75.044" y1="88.58" x2="78.665" y2="79.693"/>
	<line style="fill:none;stroke:#000000;stroke-miterlimit:1;" x1="78.665" y1="79.693" x2="96.768" y2="47.767"/>
	<line style="fill:none;stroke:#000000;stroke-miterlimit:1;" x1="96.768" y1="47.767" x2="98.084" y2="40.855"/>
	<line style="fill:none;stroke:#000000;stroke-miterlimit:1;" x1="98.084" y1="40.855" x2="98.084" y2="37.563"/>
	<line style="fill:none;stroke:#000000;stroke-miterlimit:1;" x1="98.084" y1="37.563" x2="97.755" y2="31.639"/>
	<line style="fill:none;stroke:#000000;stroke-miterlimit:1;" x1="97.755" y1="31.639" x2="96.768" y2="27.689"/>
	<line style="fill:none;stroke:#000000;stroke-miterlimit:1;" x1="96.768" y1="27.689" x2="93.806" y2="22.752"/>
	<line style="fill:none;stroke:#000000;stroke-miterlimit:1;" x1="93.806" y1="22.752" x2="90.185" y2="18.144"/>
	<line style="fill:none;stroke:#000000;stroke-miterlimit:1;" x1="90.185" y1="18.144" x2="87.881" y2="15.511"/>
	<line style="fill:none;stroke:#000000;stroke-miterlimit:1;" x1="87.881" y1="15.511" x2="81.957" y2="11.561"/>
	<line style="fill:none;stroke:#000000;stroke-miterlimit:1;" x1="81.957" y1="11.561" x2="78.665" y2="9.916"/>
	<line style="fill:none;stroke:#000000;stroke-miterlimit:1;" x1="78.665" y1="9.916" x2="74.057" y2="8.27"/>
	<line style="fill:none;stroke:#000000;stroke-miterlimit:1;" x1="74.057" y1="8.27" x2="67.474" y2="7.282"/>
	<line style="fill:none;stroke:#000000;stroke-miterlimit:1;" x1="67.474" y1="7.282" x2="58.258" y2="8.27"/>
	<line style="fill:none;stroke:#000000;stroke-miterlimit:1;" x1="58.258" y1="8.27" x2="54.967" y2="9.586"/>
	<line style="fill:none;stroke:#000000;stroke-miterlimit:1;" x1="54.967" y1="9.586" x2="51.017" y2="12.219"/>
	<line style="fill:none;stroke:#000000;stroke-miterlimit:1;" x1="51.017" y1="12.219" x2="47.396" y2="15.84"/>
	<line style="fill:none;stroke:#000000;stroke-miterlimit:1;" x1="47.396" y1="15.84" x2="46.08" y2="18.802"/>
	<line style="fill:none;stroke:#000000;stroke-miterlimit:1;" x1="46.08" y1="18.802" x2="44.434" y2="21.436"/>
	<line style="fill:none;stroke:#000000;stroke-miterlimit:1;" x1="44.434" y1="21.436" x2="5.924" y2="29.664"/>
	<line style="fill:none;stroke:#000000;stroke-miterlimit:1;" x1="5.924" y1="29.664" x2="2.962" y2="30.651"/>
	<line style="fill:none;stroke:#000000;stroke-miterlimit:1;" x1="2.962" y1="30.651" x2="1.316" y2="32.297"/>
	<line style="fill:none;stroke:#000000;stroke-miterlimit:1;" x1="1.316" y1="32.297" x2="0.329" y2="33.614"/>
	<line style="fill:none;stroke:#000000;stroke-miterlimit:1;" x1="0.329" y1="33.614" x2="0" y2="35.917"/>
	<line style="fill:none;stroke:#000000;stroke-miterlimit:1;" x1="0" y1="35.917" x2="47.396" y2="28.018"/>
	<line style="fill:none;stroke:#000000;stroke-miterlimit:1;" x1="0.329" y1="37.234" x2="2.633" y2="37.893"/>
	<line style="fill:none;stroke:#000000;stroke-miterlimit:1;" x1="2.633" y1="37.893" x2="7.241" y2="38.222"/>
	<line style="fill:none;stroke:#000000;stroke-miterlimit:1;" x1="7.241" y1="38.222" x2="48.384" y2="32.956"/>
	<line style="fill:none;stroke:#000000;stroke-miterlimit:1;" x1="48.384" y1="32.956" x2="47.396" y2="28.347"/>
	<line style="fill:none;stroke:#000000;stroke-miterlimit:1;" x1="47.396" y1="28.347" x2="44.763" y2="21.436"/>
	<line style="fill:none;stroke:#000000;stroke-miterlimit:1;" x1="49.042" y1="32.956" x2="51.017" y2="32.626"/>
	<line style="fill:none;stroke:#000000;stroke-miterlimit:1;" x1="51.017" y1="32.626" x2="54.309" y2="32.626"/>
	<line style="fill:none;stroke:#000000;stroke-miterlimit:1;" x1="54.309" y1="32.626" x2="65.5" y2="35.259"/>
	<line style="fill:none;stroke:#000000;stroke-miterlimit:1;" x1="65.5" y1="35.259" x2="70.766" y2="35.917"/>
	<line style="fill:none;stroke:#000000;stroke-miterlimit:1;" x1="70.766" y1="35.917" x2="74.057" y2="36.247"/>
	<line style="fill:none;stroke:#000000;stroke-miterlimit:1;" x1="74.057" y1="36.247" x2="83.273" y2="35.259"/>
	<line style="fill:none;stroke:#000000;stroke-miterlimit:1;" x1="83.273" y1="35.259" x2="86.235" y2="38.222"/>
	<line style="fill:none;stroke:#000000;stroke-miterlimit:1;" x1="86.235" y1="38.222" x2="86.894" y2="42.171"/>
	<line style="fill:none;stroke:#000000;stroke-miterlimit:1;" x1="86.894" y1="42.171" x2="86.564" y2="45.463"/>
	<line style="fill:none;stroke:#000000;stroke-miterlimit:1;" x1="86.564" y1="45.463" x2="84.918" y2="49.413"/>
	<line style="fill:none;stroke:#000000;stroke-miterlimit:1;" x1="84.918" y1="49.413" x2="70.437" y2="68.502"/>
	<line style="fill:none;stroke:#000000;stroke-miterlimit:1;" x1="70.437" y1="68.502" x2="61.879" y2="80.023"/>
	<line style="fill:none;stroke:#000000;stroke-miterlimit:1;" x1="61.879" y1="80.023" x2="58.587" y2="85.947"/>
	<line style="fill:none;stroke:#000000;stroke-miterlimit:1;" x1="58.587" y1="85.947" x2="54.967" y2="92.859"/>
	<line style="fill:none;stroke:#000000;stroke-miterlimit:1;" x1="54.967" y1="92.859" x2="52.663" y2="101.746"/>
	<line style="fill:none;stroke:#000000;stroke-miterlimit:1;" x1="52.663" y1="101.746" x2="51.346" y2="110.963"/>
	<line style="fill:none;stroke:#000000;stroke-miterlimit:1;" x1="78.336" y1="9.257" x2="95.122" y2="15.182"/>
	<line style="fill:none;stroke:#000000;stroke-miterlimit:1;" x1="95.122" y1="15.182" x2="111.908" y2="19.131"/>
	<line style="fill:none;stroke:#000000;stroke-miterlimit:1;" x1="111.908" y1="19.131" x2="118.82" y2="20.448"/>
	<line style="fill:none;stroke:#000000;stroke-miterlimit:1;" x1="118.82" y1="20.448" x2="124.744" y2="20.777"/>
	<line style="fill:none;stroke:#000000;stroke-miterlimit:1;" x1="124.744" y1="20.777" x2="131.656" y2="20.777"/>
	<line style="fill:none;stroke:#000000;stroke-miterlimit:1;" x1="131.656" y1="20.777" x2="139.885" y2="20.448"/>
	<line style="fill:none;stroke:#000000;stroke-miterlimit:1;" x1="139.885" y1="20.448" x2="145.48" y2="19.131"/>
	<line style="fill:none;stroke:#000000;stroke-miterlimit:1;" x1="145.48" y1="19.131" x2="151.734" y2="17.815"/>
	<line style="fill:none;stroke:#000000;stroke-miterlimit:1;" x1="151.734" y1="17.815" x2="152.393" y2="18.473"/>
	<line style="fill:none;stroke:#000000;stroke-miterlimit:1;" x1="152.393" y1="18.473" x2="151.734" y2="20.777"/>
	<line style="fill:none;stroke:#000000;stroke-miterlimit:1;" x1="151.734" y1="20.777" x2="149.432" y2="22.423"/>
	<line style="fill:none;stroke:#000000;stroke-miterlimit:1;" x1="149.432" y1="22.423" x2="141.531" y2="24.068"/>
	<line style="fill:none;stroke:#000000;stroke-miterlimit:1;" x1="141.531" y1="24.068" x2="133.961" y2="25.056"/>
	<line style="fill:none;stroke:#000000;stroke-miterlimit:1;" x1="133.961" y1="25.056" x2="124.744" y2="25.056"/>
	<line style="fill:none;stroke:#000000;stroke-miterlimit:1;" x1="124.744" y1="25.056" x2="117.175" y2="24.397"/>
	<line style="fill:none;stroke:#000000;stroke-miterlimit:1;" x1="117.175" y1="24.397" x2="104.338" y2="22.094"/>
	<line style="fill:none;stroke:#000000;stroke-miterlimit:1;" x1="104.338" y1="22.094" x2="97.097" y2="19.79"/>
	<line style="fill:none;stroke:#000000;stroke-miterlimit:1;" x1="85.577" y1="14.194" x2="113.225" y2="28.347"/>
	<line style="fill:none;stroke:#000000;stroke-miterlimit:1;" x1="113.225" y1="28.347" x2="121.454" y2="31.968"/>
	<line style="fill:none;stroke:#000000;stroke-miterlimit:1;" x1="121.454" y1="31.968" x2="127.707" y2="33.943"/>
	<line style="fill:none;stroke:#000000;stroke-miterlimit:1;" x1="127.707" y1="33.943" x2="133.961" y2="35.588"/>
	<line style="fill:none;stroke:#000000;stroke-miterlimit:1;" x1="133.961" y1="35.588" x2="138.568" y2="36.905"/>
	<line style="fill:none;stroke:#000000;stroke-miterlimit:1;" x1="138.568" y1="36.905" x2="147.127" y2="37.234"/>
	<line style="fill:none;stroke:#000000;stroke-miterlimit:1;" x1="147.127" y1="37.234" x2="150.748" y2="37.563"/>
	<line style="fill:none;stroke:#000000;stroke-miterlimit:1;" x1="150.748" y1="37.563" x2="152.723" y2="37.563"/>
	<line style="fill:none;stroke:#000000;stroke-miterlimit:1;" x1="152.723" y1="37.563" x2="154.039" y2="37.893"/>
	<line style="fill:none;stroke:#000000;stroke-miterlimit:1;" x1="154.039" y1="37.893" x2="154.367" y2="39.867"/>
	<line style="fill:none;stroke:#000000;stroke-miterlimit:1;" x1="154.367" y1="39.867" x2="148.113" y2="41.842"/>
	<line style="fill:none;stroke:#000000;stroke-miterlimit:1;" x1="148.113" y1="41.842" x2="143.178" y2="42.171"/>
	<line style="fill:none;stroke:#000000;stroke-miterlimit:1;" x1="143.178" y1="42.171" x2="136.594" y2="41.513"/>
	<line style="fill:none;stroke:#000000;stroke-miterlimit:1;" x1="136.594" y1="41.513" x2="127.707" y2="39.209"/>
	<line style="fill:none;stroke:#000000;stroke-miterlimit:1;" x1="127.707" y1="39.209" x2="111.908" y2="32.956"/>
	<line style="fill:none;stroke:#000000;stroke-miterlimit:1;" x1="111.908" y1="32.956" x2="93.477" y2="22.423"/>
	<line style="fill:none;stroke:#000000;stroke-miterlimit:1;" x1="56.941" y1="16.827" x2="54.967" y2="17.157"/>
	<line style="fill:none;stroke:#000000;stroke-miterlimit:1;" x1="54.967" y1="17.157" x2="53.321" y2="19.131"/>
	<line style="fill:none;stroke:#000000;stroke-miterlimit:1;" x1="53.321" y1="19.131" x2="53.321" y2="21.436"/>
	<line style="fill:none;stroke:#000000;stroke-miterlimit:1;" x1="53.321" y1="21.436" x2="54.967" y2="23.081"/>
	<line style="fill:none;stroke:#000000;stroke-miterlimit:1;" x1="54.967" y1="23.081" x2="57.271" y2="23.081"/>
	<line style="fill:none;stroke:#000000;stroke-miterlimit:1;" x1="57.271" y1="23.081" x2="59.246" y2="22.094"/>
	<line style="fill:none;stroke:#000000;stroke-miterlimit:1;" x1="59.246" y1="22.094" x2="59.575" y2="20.777"/>
	<line style="fill:none;stroke:#000000;stroke-miterlimit:1;" x1="59.575" y1="20.777" x2="58.917" y2="18.802"/>
	<line style="fill:none;stroke:#000000;stroke-miterlimit:1;" x1="58.917" y1="18.802" x2="57.6" y2="16.827"/>
</g>
</svg>
