<?xml version="1.0" encoding="iso-8859-1"?>
<!-- Generator: Adobe Illustrator 16.0.1, SVG Export Plug-In . SVG Version: 6.00 Build 0)  -->
<!DOCTYPE svg PUBLIC "-//W3C//DTD SVG 1.1//EN" "http://www.w3.org/Graphics/SVG/1.1/DTD/svg11.dtd">
<svg version="1.1" id="Ebene_1" xmlns="http://www.w3.org/2000/svg" xmlns:xlink="http://www.w3.org/1999/xlink" x="0px" y="0px"
	 width="248.873px" height="148.484px" viewBox="0 0 248.873 148.484" style="enable-background:new 0 0 248.873 148.484;"
	 xml:space="preserve">
<g>
	<line style="fill:none;stroke:#000000;stroke-miterlimit:1;" x1="50.759" y1="81.688" x2="66.506" y2="81.688"/>
	<line style="fill:none;stroke:#000000;stroke-miterlimit:1;" x1="66.506" y1="81.688" x2="66.248" y2="76.008"/>
	<line style="fill:none;stroke:#000000;stroke-miterlimit:1;" x1="66.248" y1="76.008" x2="67.539" y2="68.522"/>
	<line style="fill:none;stroke:#000000;stroke-miterlimit:1;" x1="67.539" y1="68.522" x2="69.346" y2="64.133"/>
	<line style="fill:none;stroke:#000000;stroke-miterlimit:1;" x1="69.346" y1="64.133" x2="72.186" y2="57.164"/>
	<line style="fill:none;stroke:#000000;stroke-miterlimit:1;" x1="72.186" y1="57.164" x2="86.384" y2="32.123"/>
	<line style="fill:none;stroke:#000000;stroke-miterlimit:1;" x1="86.384" y1="32.123" x2="87.417" y2="26.702"/>
	<line style="fill:none;stroke:#000000;stroke-miterlimit:1;" x1="87.417" y1="26.702" x2="87.417" y2="24.12"/>
	<line style="fill:none;stroke:#000000;stroke-miterlimit:1;" x1="87.417" y1="24.12" x2="87.158" y2="19.473"/>
	<line style="fill:none;stroke:#000000;stroke-miterlimit:1;" x1="87.158" y1="19.473" x2="86.384" y2="16.375"/>
	<line style="fill:none;stroke:#000000;stroke-miterlimit:1;" x1="86.384" y1="16.375" x2="84.061" y2="12.503"/>
	<line style="fill:none;stroke:#000000;stroke-miterlimit:1;" x1="84.061" y1="12.503" x2="81.221" y2="8.889"/>
	<line style="fill:none;stroke:#000000;stroke-miterlimit:1;" x1="81.221" y1="8.889" x2="79.414" y2="6.824"/>
	<line style="fill:none;stroke:#000000;stroke-miterlimit:1;" x1="79.414" y1="6.824" x2="74.767" y2="3.726"/>
	<line style="fill:none;stroke:#000000;stroke-miterlimit:1;" x1="74.767" y1="3.726" x2="72.186" y2="2.436"/>
	<line style="fill:none;stroke:#000000;stroke-miterlimit:1;" x1="72.186" y1="2.436" x2="68.571" y2="1.145"/>
	<line style="fill:none;stroke:#000000;stroke-miterlimit:1;" x1="68.571" y1="1.145" x2="63.408" y2="0.37"/>
	<line style="fill:none;stroke:#000000;stroke-miterlimit:1;" x1="63.408" y1="0.37" x2="56.18" y2="1.145"/>
	<line style="fill:none;stroke:#000000;stroke-miterlimit:1;" x1="56.18" y1="1.145" x2="53.599" y2="2.177"/>
	<line style="fill:none;stroke:#000000;stroke-miterlimit:1;" x1="53.599" y1="2.177" x2="50.501" y2="4.243"/>
	<line style="fill:none;stroke:#000000;stroke-miterlimit:1;" x1="50.501" y1="4.243" x2="47.661" y2="7.082"/>
	<line style="fill:none;stroke:#000000;stroke-miterlimit:1;" x1="47.661" y1="7.082" x2="46.628" y2="9.405"/>
	<line style="fill:none;stroke:#000000;stroke-miterlimit:1;" x1="46.628" y1="9.405" x2="45.338" y2="11.471"/>
	<line style="fill:none;stroke:#000000;stroke-miterlimit:1;" x1="45.338" y1="11.471" x2="15.134" y2="17.924"/>
	<line style="fill:none;stroke:#000000;stroke-miterlimit:1;" x1="15.134" y1="17.924" x2="12.811" y2="18.699"/>
	<line style="fill:none;stroke:#000000;stroke-miterlimit:1;" x1="12.811" y1="18.699" x2="11.52" y2="19.99"/>
	<line style="fill:none;stroke:#000000;stroke-miterlimit:1;" x1="11.52" y1="19.99" x2="10.746" y2="21.022"/>
	<line style="fill:none;stroke:#000000;stroke-miterlimit:1;" x1="10.746" y1="21.022" x2="10.487" y2="22.83"/>
	<line style="fill:none;stroke:#000000;stroke-miterlimit:1;" x1="10.487" y1="22.83" x2="47.661" y2="16.634"/>
	<line style="fill:none;stroke:#000000;stroke-miterlimit:1;" x1="10.746" y1="23.862" x2="12.553" y2="24.378"/>
	<line style="fill:none;stroke:#000000;stroke-miterlimit:1;" x1="12.553" y1="24.378" x2="16.167" y2="24.636"/>
	<line style="fill:none;stroke:#000000;stroke-miterlimit:1;" x1="16.167" y1="24.636" x2="48.436" y2="20.506"/>
	<line style="fill:none;stroke:#000000;stroke-miterlimit:1;" x1="48.436" y1="20.506" x2="47.661" y2="16.892"/>
	<line style="fill:none;stroke:#000000;stroke-miterlimit:1;" x1="47.661" y1="16.892" x2="45.596" y2="11.471"/>
	<line style="fill:none;stroke:#000000;stroke-miterlimit:1;" x1="48.952" y1="20.506" x2="50.501" y2="20.248"/>
	<line style="fill:none;stroke:#000000;stroke-miterlimit:1;" x1="50.501" y1="20.248" x2="53.083" y2="20.248"/>
	<line style="fill:none;stroke:#000000;stroke-miterlimit:1;" x1="53.083" y1="20.248" x2="61.859" y2="22.313"/>
	<line style="fill:none;stroke:#000000;stroke-miterlimit:1;" x1="61.859" y1="22.313" x2="65.99" y2="22.83"/>
	<line style="fill:none;stroke:#000000;stroke-miterlimit:1;" x1="65.99" y1="22.83" x2="68.571" y2="23.087"/>
	<line style="fill:none;stroke:#000000;stroke-miterlimit:1;" x1="68.571" y1="23.087" x2="75.8" y2="22.313"/>
	<line style="fill:none;stroke:#000000;stroke-miterlimit:1;" x1="75.8" y1="22.313" x2="78.123" y2="24.636"/>
	<line style="fill:none;stroke:#000000;stroke-miterlimit:1;" x1="78.123" y1="24.636" x2="78.639" y2="27.734"/>
	<line style="fill:none;stroke:#000000;stroke-miterlimit:1;" x1="78.639" y1="27.734" x2="78.381" y2="30.316"/>
	<line style="fill:none;stroke:#000000;stroke-miterlimit:1;" x1="78.381" y1="30.316" x2="77.09" y2="33.414"/>
	<line style="fill:none;stroke:#000000;stroke-miterlimit:1;" x1="77.09" y1="33.414" x2="65.732" y2="48.386"/>
	<line style="fill:none;stroke:#000000;stroke-miterlimit:1;" x1="65.732" y1="48.386" x2="59.02" y2="57.421"/>
	<line style="fill:none;stroke:#000000;stroke-miterlimit:1;" x1="59.02" y1="57.421" x2="56.438" y2="62.068"/>
	<line style="fill:none;stroke:#000000;stroke-miterlimit:1;" x1="56.438" y1="62.068" x2="53.599" y2="67.49"/>
	<line style="fill:none;stroke:#000000;stroke-miterlimit:1;" x1="53.599" y1="67.49" x2="51.792" y2="74.459"/>
	<line style="fill:none;stroke:#000000;stroke-miterlimit:1;" x1="51.792" y1="74.459" x2="50.759" y2="81.688"/>
	<line style="fill:none;stroke:#000000;stroke-miterlimit:1;" x1="71.927" y1="1.919" x2="85.093" y2="6.566"/>
	<line style="fill:none;stroke:#000000;stroke-miterlimit:1;" x1="85.093" y1="6.566" x2="98.259" y2="9.664"/>
	<line style="fill:none;stroke:#000000;stroke-miterlimit:1;" x1="98.259" y1="9.664" x2="103.68" y2="10.696"/>
	<line style="fill:none;stroke:#000000;stroke-miterlimit:1;" x1="103.68" y1="10.696" x2="108.327" y2="10.955"/>
	<line style="fill:none;stroke:#000000;stroke-miterlimit:1;" x1="108.327" y1="10.955" x2="113.748" y2="10.955"/>
	<line style="fill:none;stroke:#000000;stroke-miterlimit:1;" x1="113.748" y1="10.955" x2="120.202" y2="10.696"/>
	<line style="fill:none;stroke:#000000;stroke-miterlimit:1;" x1="120.202" y1="10.696" x2="124.59" y2="9.664"/>
	<line style="fill:none;stroke:#000000;stroke-miterlimit:1;" x1="124.59" y1="9.664" x2="129.495" y2="8.631"/>
	<line style="fill:none;stroke:#000000;stroke-miterlimit:1;" x1="129.495" y1="8.631" x2="130.012" y2="9.147"/>
	<line style="fill:none;stroke:#000000;stroke-miterlimit:1;" x1="130.012" y1="9.147" x2="129.495" y2="10.955"/>
	<line style="fill:none;stroke:#000000;stroke-miterlimit:1;" x1="129.495" y1="10.955" x2="127.688" y2="12.245"/>
	<line style="fill:none;stroke:#000000;stroke-miterlimit:1;" x1="127.688" y1="12.245" x2="121.492" y2="13.536"/>
	<line style="fill:none;stroke:#000000;stroke-miterlimit:1;" x1="121.492" y1="13.536" x2="115.555" y2="14.311"/>
	<line style="fill:none;stroke:#000000;stroke-miterlimit:1;" x1="115.555" y1="14.311" x2="108.327" y2="14.311"/>
	<line style="fill:none;stroke:#000000;stroke-miterlimit:1;" x1="108.327" y1="14.311" x2="102.389" y2="13.794"/>
	<line style="fill:none;stroke:#000000;stroke-miterlimit:1;" x1="102.389" y1="13.794" x2="92.321" y2="11.987"/>
	<line style="fill:none;stroke:#000000;stroke-miterlimit:1;" x1="92.321" y1="11.987" x2="86.642" y2="10.18"/>
	<line style="fill:none;stroke:#000000;stroke-miterlimit:1;" x1="77.606" y1="5.792" x2="99.292" y2="16.892"/>
	<line style="fill:none;stroke:#000000;stroke-miterlimit:1;" x1="99.292" y1="16.892" x2="105.745" y2="19.731"/>
	<line style="fill:none;stroke:#000000;stroke-miterlimit:1;" x1="105.745" y1="19.731" x2="110.65" y2="21.28"/>
	<line style="fill:none;stroke:#000000;stroke-miterlimit:1;" x1="110.65" y1="21.28" x2="115.555" y2="22.571"/>
	<line style="fill:none;stroke:#000000;stroke-miterlimit:1;" x1="115.555" y1="22.571" x2="119.169" y2="23.604"/>
	<line style="fill:none;stroke:#000000;stroke-miterlimit:1;" x1="119.169" y1="23.604" x2="125.881" y2="23.862"/>
	<line style="fill:none;stroke:#000000;stroke-miterlimit:1;" x1="125.881" y1="23.862" x2="128.721" y2="24.12"/>
	<line style="fill:none;stroke:#000000;stroke-miterlimit:1;" x1="128.721" y1="24.12" x2="130.27" y2="24.12"/>
	<line style="fill:none;stroke:#000000;stroke-miterlimit:1;" x1="130.27" y1="24.12" x2="131.302" y2="24.378"/>
	<line style="fill:none;stroke:#000000;stroke-miterlimit:1;" x1="131.302" y1="24.378" x2="131.561" y2="25.927"/>
	<line style="fill:none;stroke:#000000;stroke-miterlimit:1;" x1="131.561" y1="25.927" x2="126.655" y2="27.476"/>
	<line style="fill:none;stroke:#000000;stroke-miterlimit:1;" x1="126.655" y1="27.476" x2="122.783" y2="27.734"/>
	<line style="fill:none;stroke:#000000;stroke-miterlimit:1;" x1="122.783" y1="27.734" x2="117.62" y2="27.218"/>
	<line style="fill:none;stroke:#000000;stroke-miterlimit:1;" x1="117.62" y1="27.218" x2="110.65" y2="25.411"/>
	<line style="fill:none;stroke:#000000;stroke-miterlimit:1;" x1="110.65" y1="25.411" x2="98.259" y2="20.506"/>
	<line style="fill:none;stroke:#000000;stroke-miterlimit:1;" x1="98.259" y1="20.506" x2="83.802" y2="12.245"/>
	<line style="fill:none;stroke:#000000;stroke-miterlimit:1;" x1="55.147" y1="7.856" x2="53.599" y2="8.115"/>
	<line style="fill:none;stroke:#000000;stroke-miterlimit:1;" x1="53.599" y1="8.115" x2="52.308" y2="9.664"/>
	<line style="fill:none;stroke:#000000;stroke-miterlimit:1;" x1="52.308" y1="9.664" x2="52.308" y2="11.471"/>
	<line style="fill:none;stroke:#000000;stroke-miterlimit:1;" x1="52.308" y1="11.471" x2="53.599" y2="12.761"/>
	<line style="fill:none;stroke:#000000;stroke-miterlimit:1;" x1="53.599" y1="12.761" x2="55.406" y2="12.761"/>
	<line style="fill:none;stroke:#000000;stroke-miterlimit:1;" x1="55.406" y1="12.761" x2="56.955" y2="11.987"/>
	<line style="fill:none;stroke:#000000;stroke-miterlimit:1;" x1="56.955" y1="11.987" x2="57.213" y2="10.955"/>
	<line style="fill:none;stroke:#000000;stroke-miterlimit:1;" x1="57.213" y1="10.955" x2="56.696" y2="9.405"/>
	<line style="fill:none;stroke:#000000;stroke-miterlimit:1;" x1="56.696" y1="9.405" x2="55.664" y2="7.856"/>
	<line style="fill:none;stroke:#000000;stroke-miterlimit:1;" x1="163.296" y1="10.862" x2="164.612" y2="10.862"/>
	<line style="fill:none;stroke:#000000;stroke-miterlimit:1;" x1="164.612" y1="10.862" x2="165.271" y2="9.874"/>
	<line style="fill:none;stroke:#000000;stroke-miterlimit:1;" x1="165.271" y1="9.874" x2="165.271" y2="8.887"/>
	<line style="fill:none;stroke:#000000;stroke-miterlimit:1;" x1="165.271" y1="8.887" x2="164.283" y2="8.558"/>
	<line style="fill:none;stroke:#000000;stroke-miterlimit:1;" x1="164.283" y1="8.558" x2="162.967" y2="8.558"/>
	<line style="fill:none;stroke:#000000;stroke-miterlimit:1;" x1="162.967" y1="8.558" x2="162.309" y2="9.545"/>
	<line style="fill:none;stroke:#000000;stroke-miterlimit:1;" x1="162.309" y1="9.545" x2="162.638" y2="10.533"/>
	<line style="fill:none;stroke:#000000;stroke-miterlimit:1;" x1="162.638" y1="10.533" x2="163.625" y2="10.862"/>
	<line style="fill:none;stroke:#000000;stroke-miterlimit:1;" x1="189.956" y1="19.419" x2="185.349" y2="18.103"/>
	<line style="fill:none;stroke:#000000;stroke-miterlimit:1;" x1="185.349" y1="18.103" x2="180.74" y2="18.432"/>
	<line style="fill:none;stroke:#000000;stroke-miterlimit:1;" x1="180.74" y1="18.432" x2="174.487" y2="19.419"/>
	<line style="fill:none;stroke:#000000;stroke-miterlimit:1;" x1="174.487" y1="19.419" x2="163.954" y2="20.736"/>
	<line style="fill:none;stroke:#000000;stroke-miterlimit:1;" x1="163.954" y1="20.736" x2="155.396" y2="21.065"/>
	<line style="fill:none;stroke:#000000;stroke-miterlimit:1;" x1="155.396" y1="21.065" x2="152.105" y2="20.078"/>
	<line style="fill:none;stroke:#000000;stroke-miterlimit:1;" x1="152.105" y1="20.078" x2="150.13" y2="19.09"/>
	<line style="fill:none;stroke:#000000;stroke-miterlimit:1;" x1="150.13" y1="19.09" x2="149.143" y2="16.457"/>
	<line style="fill:none;stroke:#000000;stroke-miterlimit:1;" x1="149.143" y1="16.457" x2="149.143" y2="13.824"/>
	<line style="fill:none;stroke:#000000;stroke-miterlimit:1;" x1="149.143" y1="13.824" x2="149.801" y2="10.862"/>
	<line style="fill:none;stroke:#000000;stroke-miterlimit:1;" x1="149.801" y1="10.862" x2="152.435" y2="7.899"/>
	<line style="fill:none;stroke:#000000;stroke-miterlimit:1;" x1="152.435" y1="7.899" x2="155.726" y2="4.937"/>
	<line style="fill:none;stroke:#000000;stroke-miterlimit:1;" x1="155.726" y1="4.937" x2="159.347" y2="2.633"/>
	<line style="fill:none;stroke:#000000;stroke-miterlimit:1;" x1="159.347" y1="2.633" x2="162.309" y2="1.646"/>
	<line style="fill:none;stroke:#000000;stroke-miterlimit:1;" x1="162.309" y1="1.646" x2="164.941" y2="0.658"/>
	<line style="fill:none;stroke:#000000;stroke-miterlimit:1;" x1="164.941" y1="0.658" x2="171.524" y2="0"/>
	<line style="fill:none;stroke:#000000;stroke-miterlimit:1;" x1="171.524" y1="0" x2="175.804" y2="0"/>
	<line style="fill:none;stroke:#000000;stroke-miterlimit:1;" x1="175.804" y1="0" x2="182.716" y2="1.646"/>
	<line style="fill:none;stroke:#000000;stroke-miterlimit:1;" x1="182.716" y1="1.646" x2="191.273" y2="8.229"/>
	<line style="fill:none;stroke:#000000;stroke-miterlimit:1;" x1="191.273" y1="8.229" x2="199.173" y2="15.141"/>
	<line style="fill:none;stroke:#000000;stroke-miterlimit:1;" x1="199.173" y1="15.141" x2="207.401" y2="24.686"/>
	<line style="fill:none;stroke:#000000;stroke-miterlimit:1;" x1="207.401" y1="24.686" x2="210.363" y2="30.939"/>
	<line style="fill:none;stroke:#000000;stroke-miterlimit:1;" x1="210.363" y1="30.939" x2="211.351" y2="39.168"/>
	<line style="fill:none;stroke:#000000;stroke-miterlimit:1;" x1="211.351" y1="39.168" x2="209.705" y2="50.688"/>
	<line style="fill:none;stroke:#000000;stroke-miterlimit:1;" x1="209.705" y1="50.688" x2="207.73" y2="57.6"/>
	<line style="fill:none;stroke:#000000;stroke-miterlimit:1;" x1="207.73" y1="57.6" x2="205.097" y2="64.512"/>
	<line style="fill:none;stroke:#000000;stroke-miterlimit:1;" x1="205.097" y1="64.512" x2="199.173" y2="75.373"/>
	<line style="fill:none;stroke:#000000;stroke-miterlimit:1;" x1="199.173" y1="75.373" x2="190.286" y2="94.135"/>
	<line style="fill:none;stroke:#000000;stroke-miterlimit:1;" x1="190.286" y1="94.135" x2="186.336" y2="107.301"/>
	<line style="fill:none;stroke:#000000;stroke-miterlimit:1;" x1="186.336" y1="107.301" x2="185.349" y2="111.58"/>
	<line style="fill:none;stroke:#000000;stroke-miterlimit:1;" x1="185.349" y1="111.58" x2="184.361" y2="116.188"/>
	<line style="fill:none;stroke:#000000;stroke-miterlimit:1;" x1="184.361" y1="116.188" x2="185.349" y2="126.721"/>
	<line style="fill:none;stroke:#000000;stroke-miterlimit:1;" x1="185.349" y1="126.721" x2="188.64" y2="132.645"/>
	<line style="fill:none;stroke:#000000;stroke-miterlimit:1;" x1="188.64" y1="132.645" x2="193.906" y2="136.594"/>
	<line style="fill:none;stroke:#000000;stroke-miterlimit:1;" x1="193.906" y1="136.594" x2="200.489" y2="137.91"/>
	<line style="fill:none;stroke:#000000;stroke-miterlimit:1;" x1="200.489" y1="137.91" x2="206.743" y2="135.607"/>
	<line style="fill:none;stroke:#000000;stroke-miterlimit:1;" x1="206.743" y1="135.607" x2="210.034" y2="132.645"/>
	<line style="fill:none;stroke:#000000;stroke-miterlimit:1;" x1="210.034" y1="132.645" x2="212.009" y2="129.354"/>
	<line style="fill:none;stroke:#000000;stroke-miterlimit:1;" x1="212.009" y1="129.354" x2="214.313" y2="118.492"/>
	<line style="fill:none;stroke:#000000;stroke-miterlimit:1;" x1="214.313" y1="118.492" x2="213.984" y2="105.326"/>
	<line style="fill:none;stroke:#000000;stroke-miterlimit:1;" x1="213.984" y1="105.326" x2="212.009" y2="90.186"/>
	<line style="fill:none;stroke:#000000;stroke-miterlimit:1;" x1="212.009" y1="90.186" x2="212.338" y2="82.285"/>
	<line style="fill:none;stroke:#000000;stroke-miterlimit:1;" x1="212.338" y1="82.285" x2="213.326" y2="74.386"/>
	<line style="fill:none;stroke:#000000;stroke-miterlimit:1;" x1="213.326" y1="74.386" x2="215.63" y2="70.107"/>
	<line style="fill:none;stroke:#000000;stroke-miterlimit:1;" x1="215.63" y1="70.107" x2="218.921" y2="66.816"/>
	<line style="fill:none;stroke:#000000;stroke-miterlimit:1;" x1="218.921" y1="66.816" x2="221.884" y2="64.841"/>
	<line style="fill:none;stroke:#000000;stroke-miterlimit:1;" x1="221.884" y1="64.841" x2="225.833" y2="63.195"/>
	<line style="fill:none;stroke:#000000;stroke-miterlimit:1;" x1="225.833" y1="63.195" x2="231.429" y2="63.524"/>
	<line style="fill:none;stroke:#000000;stroke-miterlimit:1;" x1="231.429" y1="63.524" x2="236.695" y2="64.841"/>
	<line style="fill:none;stroke:#000000;stroke-miterlimit:1;" x1="236.695" y1="64.841" x2="241.303" y2="68.461"/>
	<line style="fill:none;stroke:#000000;stroke-miterlimit:1;" x1="241.303" y1="68.461" x2="244.595" y2="72.741"/>
	<line style="fill:none;stroke:#000000;stroke-miterlimit:1;" x1="244.595" y1="72.741" x2="247.228" y2="79.324"/>
	<line style="fill:none;stroke:#000000;stroke-miterlimit:1;" x1="247.228" y1="79.324" x2="248.544" y2="86.234"/>
	<line style="fill:none;stroke:#000000;stroke-miterlimit:1;" x1="248.544" y1="86.234" x2="246.569" y2="106.312"/>
	<line style="fill:none;stroke:#000000;stroke-miterlimit:1;" x1="246.569" y1="106.312" x2="242.619" y2="126.062"/>
	<line style="fill:none;stroke:#000000;stroke-miterlimit:1;" x1="242.619" y1="126.062" x2="242.948" y2="132.314"/>
	<line style="fill:none;stroke:#000000;stroke-miterlimit:1;" x1="242.948" y1="132.314" x2="244.265" y2="138.568"/>
	<line style="fill:none;stroke:#000000;stroke-miterlimit:1;" x1="244.265" y1="138.568" x2="248.873" y2="146.469"/>
	<line style="fill:none;stroke:#000000;stroke-miterlimit:1;" x1="248.873" y1="146.469" x2="248.544" y2="147.455"/>
	<line style="fill:none;stroke:#000000;stroke-miterlimit:1;" x1="248.544" y1="147.455" x2="245.911" y2="146.797"/>
	<line style="fill:none;stroke:#000000;stroke-miterlimit:1;" x1="245.911" y1="146.797" x2="239.328" y2="139.557"/>
	<line style="fill:none;stroke:#000000;stroke-miterlimit:1;" x1="239.328" y1="139.557" x2="237.024" y2="129.354"/>
	<line style="fill:none;stroke:#000000;stroke-miterlimit:1;" x1="237.024" y1="129.354" x2="237.024" y2="114.541"/>
	<line style="fill:none;stroke:#000000;stroke-miterlimit:1;" x1="237.024" y1="114.541" x2="239.657" y2="98.414"/>
	<line style="fill:none;stroke:#000000;stroke-miterlimit:1;" x1="239.657" y1="98.414" x2="239.986" y2="90.186"/>
	<line style="fill:none;stroke:#000000;stroke-miterlimit:1;" x1="239.986" y1="90.186" x2="239.657" y2="80.969"/>
	<line style="fill:none;stroke:#000000;stroke-miterlimit:1;" x1="239.657" y1="80.969" x2="236.695" y2="75.373"/>
	<line style="fill:none;stroke:#000000;stroke-miterlimit:1;" x1="236.695" y1="75.373" x2="235.049" y2="74.057"/>
	<line style="fill:none;stroke:#000000;stroke-miterlimit:1;" x1="235.049" y1="74.057" x2="232.745" y2="72.411"/>
	<line style="fill:none;stroke:#000000;stroke-miterlimit:1;" x1="232.745" y1="72.411" x2="227.808" y2="72.411"/>
	<line style="fill:none;stroke:#000000;stroke-miterlimit:1;" x1="227.808" y1="72.411" x2="223.529" y2="76.031"/>
	<line style="fill:none;stroke:#000000;stroke-miterlimit:1;" x1="223.529" y1="76.031" x2="221.226" y2="83.932"/>
	<line style="fill:none;stroke:#000000;stroke-miterlimit:1;" x1="221.226" y1="83.932" x2="221.226" y2="93.805"/>
	<line style="fill:none;stroke:#000000;stroke-miterlimit:1;" x1="221.226" y1="93.805" x2="224.517" y2="111.908"/>
	<line style="fill:none;stroke:#000000;stroke-miterlimit:1;" x1="224.517" y1="111.908" x2="224.517" y2="119.809"/>
	<line style="fill:none;stroke:#000000;stroke-miterlimit:1;" x1="224.517" y1="119.809" x2="223.529" y2="127.707"/>
	<line style="fill:none;stroke:#000000;stroke-miterlimit:1;" x1="223.529" y1="127.707" x2="219.25" y2="137.91"/>
	<line style="fill:none;stroke:#000000;stroke-miterlimit:1;" x1="219.25" y1="137.91" x2="216.288" y2="141.861"/>
	<line style="fill:none;stroke:#000000;stroke-miterlimit:1;" x1="216.288" y1="141.861" x2="211.021" y2="145.811"/>
	<line style="fill:none;stroke:#000000;stroke-miterlimit:1;" x1="211.021" y1="145.811" x2="205.426" y2="147.455"/>
	<line style="fill:none;stroke:#000000;stroke-miterlimit:1;" x1="205.426" y1="147.455" x2="199.831" y2="148.113"/>
	<line style="fill:none;stroke:#000000;stroke-miterlimit:1;" x1="199.831" y1="148.113" x2="188.969" y2="147.455"/>
	<line style="fill:none;stroke:#000000;stroke-miterlimit:1;" x1="188.969" y1="147.455" x2="182.716" y2="144.822"/>
	<line style="fill:none;stroke:#000000;stroke-miterlimit:1;" x1="182.716" y1="144.822" x2="177.12" y2="141.203"/>
	<line style="fill:none;stroke:#000000;stroke-miterlimit:1;" x1="177.12" y1="141.203" x2="172.512" y2="136.924"/>
	<line style="fill:none;stroke:#000000;stroke-miterlimit:1;" x1="172.512" y1="136.924" x2="169.221" y2="132.645"/>
	<line style="fill:none;stroke:#000000;stroke-miterlimit:1;" x1="169.221" y1="132.645" x2="165.6" y2="123.428"/>
	<line style="fill:none;stroke:#000000;stroke-miterlimit:1;" x1="165.6" y1="123.428" x2="164.612" y2="116.516"/>
	<line style="fill:none;stroke:#000000;stroke-miterlimit:1;" x1="164.612" y1="116.516" x2="164.941" y2="110.592"/>
	<line style="fill:none;stroke:#000000;stroke-miterlimit:1;" x1="164.941" y1="110.592" x2="166.587" y2="94.135"/>
	<line style="fill:none;stroke:#000000;stroke-miterlimit:1;" x1="166.587" y1="94.135" x2="165.6" y2="83.602"/>
	<line style="fill:none;stroke:#000000;stroke-miterlimit:1;" x1="165.6" y1="83.602" x2="164.612" y2="70.437"/>
	<line style="fill:none;stroke:#000000;stroke-miterlimit:1;" x1="164.612" y1="70.437" x2="160.334" y2="54.967"/>
	<line style="fill:none;stroke:#000000;stroke-miterlimit:1;" x1="160.334" y1="54.967" x2="160.005" y2="49.042"/>
	<line style="fill:none;stroke:#000000;stroke-miterlimit:1;" x1="160.005" y1="49.042" x2="159.676" y2="42.13"/>
	<line style="fill:none;stroke:#000000;stroke-miterlimit:1;" x1="159.676" y1="42.13" x2="161.979" y2="32.914"/>
	<line style="fill:none;stroke:#000000;stroke-miterlimit:1;" x1="161.979" y1="32.914" x2="165.6" y2="27.648"/>
	<line style="fill:none;stroke:#000000;stroke-miterlimit:1;" x1="165.6" y1="27.648" x2="170.208" y2="22.711"/>
	<line style="fill:none;stroke:#000000;stroke-miterlimit:1;" x1="170.208" y1="22.711" x2="178.107" y2="19.09"/>
	<line style="fill:none;stroke:#000000;stroke-miterlimit:1;" x1="24.266" y1="147.711" x2="57.826" y2="115.441"/>
	<line style="fill:none;stroke:#000000;stroke-miterlimit:1;" x1="12.133" y1="143.062" x2="53.438" y2="103.566"/>
	<line style="fill:none;stroke:#000000;stroke-miterlimit:1;" x1="4.13" y1="134.545" x2="45.435" y2="95.047"/>
	<line style="fill:none;stroke:#000000;stroke-miterlimit:1;" x1="0" y1="122.412" x2="33.043" y2="90.916"/>
	<line style="fill:none;stroke:#000000;stroke-miterlimit:1;" x1="41.046" y1="92.725" x2="38.207" y2="91.949"/>
	<line style="fill:none;stroke:#000000;stroke-miterlimit:1;" x1="38.207" y1="91.949" x2="35.367" y2="90.916"/>
	<line style="fill:none;stroke:#000000;stroke-miterlimit:1;" x1="35.367" y1="90.916" x2="32.269" y2="90.4"/>
	<line style="fill:none;stroke:#000000;stroke-miterlimit:1;" x1="32.269" y1="90.4" x2="29.171" y2="90.4"/>
	<line style="fill:none;stroke:#000000;stroke-miterlimit:1;" x1="29.171" y1="90.4" x2="25.815" y2="90.658"/>
	<line style="fill:none;stroke:#000000;stroke-miterlimit:1;" x1="25.815" y1="90.658" x2="22.976" y2="90.916"/>
	<line style="fill:none;stroke:#000000;stroke-miterlimit:1;" x1="22.976" y1="90.916" x2="19.877" y2="91.949"/>
	<line style="fill:none;stroke:#000000;stroke-miterlimit:1;" x1="19.877" y1="91.949" x2="17.038" y2="92.982"/>
	<line style="fill:none;stroke:#000000;stroke-miterlimit:1;" x1="17.038" y1="92.982" x2="14.198" y2="94.273"/>
	<line style="fill:none;stroke:#000000;stroke-miterlimit:1;" x1="14.198" y1="94.273" x2="11.617" y2="96.08"/>
	<line style="fill:none;stroke:#000000;stroke-miterlimit:1;" x1="11.617" y1="96.08" x2="9.552" y2="97.887"/>
	<line style="fill:none;stroke:#000000;stroke-miterlimit:1;" x1="9.552" y1="97.887" x2="7.486" y2="99.951"/>
	<line style="fill:none;stroke:#000000;stroke-miterlimit:1;" x1="7.486" y1="99.951" x2="5.938" y2="101.76"/>
	<line style="fill:none;stroke:#000000;stroke-miterlimit:1;" x1="5.938" y1="101.76" x2="4.389" y2="104.082"/>
	<line style="fill:none;stroke:#000000;stroke-miterlimit:1;" x1="4.389" y1="104.082" x2="2.582" y2="107.438"/>
	<line style="fill:none;stroke:#000000;stroke-miterlimit:1;" x1="2.582" y1="107.438" x2="1.807" y2="110.02"/>
	<line style="fill:none;stroke:#000000;stroke-miterlimit:1;" x1="1.807" y1="110.02" x2="1.033" y2="112.859"/>
	<line style="fill:none;stroke:#000000;stroke-miterlimit:1;" x1="1.033" y1="112.859" x2="0.516" y2="115.699"/>
	<line style="fill:none;stroke:#000000;stroke-miterlimit:1;" x1="0.516" y1="115.699" x2="0" y2="119.055"/>
	<line style="fill:none;stroke:#000000;stroke-miterlimit:1;" x1="0" y1="119.055" x2="0" y2="121.895"/>
	<line style="fill:none;stroke:#000000;stroke-miterlimit:1;" x1="0" y1="121.895" x2="0.516" y2="125.25"/>
	<line style="fill:none;stroke:#000000;stroke-miterlimit:1;" x1="0.516" y1="125.25" x2="1.291" y2="128.09"/>
	<line style="fill:none;stroke:#000000;stroke-miterlimit:1;" x1="1.291" y1="128.09" x2="2.065" y2="130.672"/>
	<line style="fill:none;stroke:#000000;stroke-miterlimit:1;" x1="2.065" y1="130.672" x2="3.356" y2="133.512"/>
	<line style="fill:none;stroke:#000000;stroke-miterlimit:1;" x1="3.356" y1="133.512" x2="4.13" y2="135.061"/>
	<line style="fill:none;stroke:#000000;stroke-miterlimit:1;" x1="4.13" y1="135.061" x2="5.163" y2="136.352"/>
	<line style="fill:none;stroke:#000000;stroke-miterlimit:1;" x1="5.163" y1="136.352" x2="7.745" y2="139.191"/>
	<line style="fill:none;stroke:#000000;stroke-miterlimit:1;" x1="7.745" y1="139.191" x2="10.326" y2="141.773"/>
	<line style="fill:none;stroke:#000000;stroke-miterlimit:1;" x1="10.326" y1="141.773" x2="12.649" y2="143.58"/>
	<line style="fill:none;stroke:#000000;stroke-miterlimit:1;" x1="12.649" y1="143.58" x2="15.489" y2="145.129"/>
	<line style="fill:none;stroke:#000000;stroke-miterlimit:1;" x1="15.489" y1="145.129" x2="18.587" y2="146.678"/>
	<line style="fill:none;stroke:#000000;stroke-miterlimit:1;" x1="18.587" y1="146.678" x2="21.685" y2="147.451"/>
	<line style="fill:none;stroke:#000000;stroke-miterlimit:1;" x1="21.685" y1="147.451" x2="24.266" y2="148.227"/>
	<line style="fill:none;stroke:#000000;stroke-miterlimit:1;" x1="24.266" y1="148.227" x2="27.364" y2="148.227"/>
	<line style="fill:none;stroke:#000000;stroke-miterlimit:1;" x1="27.364" y1="148.227" x2="30.462" y2="148.484"/>
	<line style="fill:none;stroke:#000000;stroke-miterlimit:1;" x1="30.462" y1="148.484" x2="34.076" y2="147.969"/>
	<line style="fill:none;stroke:#000000;stroke-miterlimit:1;" x1="34.076" y1="147.969" x2="36.657" y2="147.451"/>
	<line style="fill:none;stroke:#000000;stroke-miterlimit:1;" x1="36.657" y1="147.451" x2="39.755" y2="146.16"/>
	<line style="fill:none;stroke:#000000;stroke-miterlimit:1;" x1="39.755" y1="146.16" x2="42.853" y2="144.611"/>
	<line style="fill:none;stroke:#000000;stroke-miterlimit:1;" x1="42.853" y1="144.611" x2="44.918" y2="143.58"/>
	<line style="fill:none;stroke:#000000;stroke-miterlimit:1;" x1="44.918" y1="143.58" x2="47.242" y2="141.514"/>
	<line style="fill:none;stroke:#000000;stroke-miterlimit:1;" x1="47.242" y1="141.514" x2="49.565" y2="139.449"/>
	<line style="fill:none;stroke:#000000;stroke-miterlimit:1;" x1="49.565" y1="139.449" x2="51.888" y2="137.125"/>
	<line style="fill:none;stroke:#000000;stroke-miterlimit:1;" x1="51.888" y1="137.125" x2="53.695" y2="134.287"/>
	<line style="fill:none;stroke:#000000;stroke-miterlimit:1;" x1="53.695" y1="134.287" x2="55.502" y2="131.705"/>
	<line style="fill:none;stroke:#000000;stroke-miterlimit:1;" x1="55.502" y1="131.705" x2="56.793" y2="129.123"/>
	<line style="fill:none;stroke:#000000;stroke-miterlimit:1;" x1="56.793" y1="129.123" x2="57.568" y2="126.025"/>
	<line style="fill:none;stroke:#000000;stroke-miterlimit:1;" x1="57.568" y1="126.025" x2="57.826" y2="123.186"/>
	<line style="fill:none;stroke:#000000;stroke-miterlimit:1;" x1="57.826" y1="123.186" x2="58.342" y2="119.83"/>
	<line style="fill:none;stroke:#000000;stroke-miterlimit:1;" x1="58.342" y1="119.83" x2="58.084" y2="116.99"/>
	<line style="fill:none;stroke:#000000;stroke-miterlimit:1;" x1="58.084" y1="116.99" x2="57.826" y2="113.635"/>
	<line style="fill:none;stroke:#000000;stroke-miterlimit:1;" x1="57.826" y1="113.635" x2="57.051" y2="110.795"/>
	<line style="fill:none;stroke:#000000;stroke-miterlimit:1;" x1="57.051" y1="110.795" x2="56.019" y2="108.213"/>
	<line style="fill:none;stroke:#000000;stroke-miterlimit:1;" x1="56.019" y1="108.213" x2="54.728" y2="104.857"/>
	<line style="fill:none;stroke:#000000;stroke-miterlimit:1;" x1="54.728" y1="104.857" x2="52.921" y2="102.275"/>
	<line style="fill:none;stroke:#000000;stroke-miterlimit:1;" x1="52.921" y1="102.275" x2="51.114" y2="100.211"/>
	<line style="fill:none;stroke:#000000;stroke-miterlimit:1;" x1="51.114" y1="100.211" x2="49.049" y2="97.629"/>
	<line style="fill:none;stroke:#000000;stroke-miterlimit:1;" x1="49.049" y1="97.629" x2="46.467" y2="95.822"/>
	<line style="fill:none;stroke:#000000;stroke-miterlimit:1;" x1="46.467" y1="95.822" x2="43.886" y2="94.014"/>
	<line style="fill:none;stroke:#000000;stroke-miterlimit:1;" x1="43.886" y1="94.014" x2="41.046" y2="92.725"/>
	<line style="fill:none;stroke:#000000;stroke-miterlimit:1;" x1="134.336" y1="133.609" x2="73.412" y2="133.609"/>
	<line style="fill:none;stroke:#000000;stroke-miterlimit:1;" x1="73.412" y1="133.609" x2="74.186" y2="128.445"/>
	<line style="fill:none;stroke:#000000;stroke-miterlimit:1;" x1="74.186" y1="128.445" x2="74.96" y2="125.09"/>
	<line style="fill:none;stroke:#000000;stroke-miterlimit:1;" x1="74.96" y1="125.09" x2="76.251" y2="121.734"/>
	<line style="fill:none;stroke:#000000;stroke-miterlimit:1;" x1="76.251" y1="121.734" x2="78.059" y2="119.152"/>
	<line style="fill:none;stroke:#000000;stroke-miterlimit:1;" x1="78.059" y1="119.152" x2="79.607" y2="116.828"/>
	<line style="fill:none;stroke:#000000;stroke-miterlimit:1;" x1="79.607" y1="116.828" x2="81.672" y2="113.988"/>
	<line style="fill:none;stroke:#000000;stroke-miterlimit:1;" x1="81.672" y1="113.988" x2="83.996" y2="111.924"/>
	<line style="fill:none;stroke:#000000;stroke-miterlimit:1;" x1="83.996" y1="111.924" x2="86.835" y2="109.859"/>
	<line style="fill:none;stroke:#000000;stroke-miterlimit:1;" x1="86.835" y1="109.859" x2="89.159" y2="108.311"/>
	<line style="fill:none;stroke:#000000;stroke-miterlimit:1;" x1="89.159" y1="108.311" x2="92.515" y2="106.762"/>
	<line style="fill:none;stroke:#000000;stroke-miterlimit:1;" x1="92.515" y1="106.762" x2="95.871" y2="105.729"/>
	<line style="fill:none;stroke:#000000;stroke-miterlimit:1;" x1="95.871" y1="105.729" x2="98.194" y2="105.211"/>
	<line style="fill:none;stroke:#000000;stroke-miterlimit:1;" x1="98.194" y1="105.211" x2="102.325" y2="104.695"/>
	<line style="fill:none;stroke:#000000;stroke-miterlimit:1;" x1="102.325" y1="104.695" x2="105.422" y2="104.695"/>
	<line style="fill:none;stroke:#000000;stroke-miterlimit:1;" x1="105.422" y1="104.695" x2="108.262" y2="105.211"/>
	<line style="fill:none;stroke:#000000;stroke-miterlimit:1;" x1="108.262" y1="105.211" x2="111.36" y2="105.729"/>
	<line style="fill:none;stroke:#000000;stroke-miterlimit:1;" x1="111.36" y1="105.729" x2="114.716" y2="106.502"/>
	<line style="fill:none;stroke:#000000;stroke-miterlimit:1;" x1="114.716" y1="106.502" x2="117.039" y2="107.277"/>
	<line style="fill:none;stroke:#000000;stroke-miterlimit:1;" x1="117.039" y1="107.277" x2="120.137" y2="109.342"/>
	<line style="fill:none;stroke:#000000;stroke-miterlimit:1;" x1="120.137" y1="109.342" x2="122.719" y2="111.148"/>
	<line style="fill:none;stroke:#000000;stroke-miterlimit:1;" x1="122.719" y1="111.148" x2="125.042" y2="112.957"/>
	<line style="fill:none;stroke:#000000;stroke-miterlimit:1;" x1="125.042" y1="112.957" x2="127.107" y2="115.537"/>
	<line style="fill:none;stroke:#000000;stroke-miterlimit:1;" x1="127.107" y1="115.537" x2="129.173" y2="118.377"/>
	<line style="fill:none;stroke:#000000;stroke-miterlimit:1;" x1="129.173" y1="118.377" x2="130.979" y2="121.217"/>
	<line style="fill:none;stroke:#000000;stroke-miterlimit:1;" x1="130.979" y1="121.217" x2="132.271" y2="123.799"/>
	<line style="fill:none;stroke:#000000;stroke-miterlimit:1;" x1="132.271" y1="123.799" x2="133.303" y2="127.672"/>
	<line style="fill:none;stroke:#000000;stroke-miterlimit:1;" x1="133.303" y1="127.672" x2="134.077" y2="130.51"/>
	<line style="fill:none;stroke:#000000;stroke-miterlimit:1;" x1="134.077" y1="130.51" x2="134.336" y2="133.609"/>
</g>
</svg>
