<?xml version="1.0" encoding="iso-8859-1"?>
<!-- Generator: Adobe Illustrator 16.0.1, SVG Export Plug-In . SVG Version: 6.00 Build 0)  -->
<!DOCTYPE svg PUBLIC "-//W3C//DTD SVG 1.1//EN" "http://www.w3.org/Graphics/SVG/1.1/DTD/svg11.dtd">
<svg version="1.1" id="Ebene_1" xmlns="http://www.w3.org/2000/svg" xmlns:xlink="http://www.w3.org/1999/xlink" x="0px" y="0px"
	 width="224.939px" height="148.115px" viewBox="0 0 224.939 148.115" style="enable-background:new 0 0 224.939 148.115;"
	 xml:space="preserve">
<g>
	<line style="fill:none;stroke:#000000;stroke-miterlimit:1;" x1="192.523" y1="47.42" x2="220.292" y2="20.72"/>
	<line style="fill:none;stroke:#000000;stroke-miterlimit:1;" x1="182.484" y1="43.576" x2="216.661" y2="10.894"/>
	<line style="fill:none;stroke:#000000;stroke-miterlimit:1;" x1="175.862" y1="36.526" x2="210.039" y2="3.845"/>
	<line style="fill:none;stroke:#000000;stroke-miterlimit:1;" x1="172.445" y1="26.487" x2="199.786" y2="0.427"/>
	<line style="fill:none;stroke:#000000;stroke-miterlimit:1;" x1="206.408" y1="1.922" x2="204.059" y2="1.282"/>
	<line style="fill:none;stroke:#000000;stroke-miterlimit:1;" x1="204.059" y1="1.282" x2="201.709" y2="0.427"/>
	<line style="fill:none;stroke:#000000;stroke-miterlimit:1;" x1="201.709" y1="0.427" x2="199.146" y2="0"/>
	<line style="fill:none;stroke:#000000;stroke-miterlimit:1;" x1="199.146" y1="0" x2="196.582" y2="0"/>
	<line style="fill:none;stroke:#000000;stroke-miterlimit:1;" x1="196.582" y1="0" x2="193.806" y2="0.214"/>
	<line style="fill:none;stroke:#000000;stroke-miterlimit:1;" x1="193.806" y1="0.214" x2="191.456" y2="0.427"/>
	<line style="fill:none;stroke:#000000;stroke-miterlimit:1;" x1="191.456" y1="0.427" x2="188.893" y2="1.282"/>
	<line style="fill:none;stroke:#000000;stroke-miterlimit:1;" x1="188.893" y1="1.282" x2="186.543" y2="2.136"/>
	<line style="fill:none;stroke:#000000;stroke-miterlimit:1;" x1="186.543" y1="2.136" x2="184.193" y2="3.204"/>
	<line style="fill:none;stroke:#000000;stroke-miterlimit:1;" x1="184.193" y1="3.204" x2="182.057" y2="4.7"/>
	<line style="fill:none;stroke:#000000;stroke-miterlimit:1;" x1="182.057" y1="4.7" x2="180.349" y2="6.195"/>
	<line style="fill:none;stroke:#000000;stroke-miterlimit:1;" x1="180.349" y1="6.195" x2="178.64" y2="7.903"/>
	<line style="fill:none;stroke:#000000;stroke-miterlimit:1;" x1="178.64" y1="7.903" x2="177.357" y2="9.399"/>
	<line style="fill:none;stroke:#000000;stroke-miterlimit:1;" x1="177.357" y1="9.399" x2="176.076" y2="11.321"/>
	<line style="fill:none;stroke:#000000;stroke-miterlimit:1;" x1="176.076" y1="11.321" x2="174.581" y2="14.098"/>
	<line style="fill:none;stroke:#000000;stroke-miterlimit:1;" x1="174.581" y1="14.098" x2="173.94" y2="16.234"/>
	<line style="fill:none;stroke:#000000;stroke-miterlimit:1;" x1="173.94" y1="16.234" x2="173.299" y2="18.583"/>
	<line style="fill:none;stroke:#000000;stroke-miterlimit:1;" x1="173.299" y1="18.583" x2="172.872" y2="20.934"/>
	<line style="fill:none;stroke:#000000;stroke-miterlimit:1;" x1="172.872" y1="20.934" x2="172.445" y2="23.71"/>
	<line style="fill:none;stroke:#000000;stroke-miterlimit:1;" x1="172.445" y1="23.71" x2="172.445" y2="26.06"/>
	<line style="fill:none;stroke:#000000;stroke-miterlimit:1;" x1="172.445" y1="26.06" x2="172.872" y2="28.837"/>
	<line style="fill:none;stroke:#000000;stroke-miterlimit:1;" x1="172.872" y1="28.837" x2="173.513" y2="31.187"/>
	<line style="fill:none;stroke:#000000;stroke-miterlimit:1;" x1="173.513" y1="31.187" x2="174.153" y2="33.323"/>
	<line style="fill:none;stroke:#000000;stroke-miterlimit:1;" x1="174.153" y1="33.323" x2="175.222" y2="35.672"/>
	<line style="fill:none;stroke:#000000;stroke-miterlimit:1;" x1="175.222" y1="35.672" x2="175.862" y2="36.954"/>
	<line style="fill:none;stroke:#000000;stroke-miterlimit:1;" x1="175.862" y1="36.954" x2="176.717" y2="38.022"/>
	<line style="fill:none;stroke:#000000;stroke-miterlimit:1;" x1="176.717" y1="38.022" x2="178.854" y2="40.372"/>
	<line style="fill:none;stroke:#000000;stroke-miterlimit:1;" x1="178.854" y1="40.372" x2="180.989" y2="42.507"/>
	<line style="fill:none;stroke:#000000;stroke-miterlimit:1;" x1="180.989" y1="42.507" x2="182.911" y2="44.003"/>
	<line style="fill:none;stroke:#000000;stroke-miterlimit:1;" x1="182.911" y1="44.003" x2="185.262" y2="45.284"/>
	<line style="fill:none;stroke:#000000;stroke-miterlimit:1;" x1="185.262" y1="45.284" x2="187.824" y2="46.566"/>
	<line style="fill:none;stroke:#000000;stroke-miterlimit:1;" x1="187.824" y1="46.566" x2="190.388" y2="47.207"/>
	<line style="fill:none;stroke:#000000;stroke-miterlimit:1;" x1="190.388" y1="47.207" x2="192.523" y2="47.848"/>
	<line style="fill:none;stroke:#000000;stroke-miterlimit:1;" x1="192.523" y1="47.848" x2="195.087" y2="47.848"/>
	<line style="fill:none;stroke:#000000;stroke-miterlimit:1;" x1="195.087" y1="47.848" x2="197.65" y2="48.061"/>
	<line style="fill:none;stroke:#000000;stroke-miterlimit:1;" x1="197.65" y1="48.061" x2="200.641" y2="47.634"/>
	<line style="fill:none;stroke:#000000;stroke-miterlimit:1;" x1="200.641" y1="47.634" x2="202.776" y2="47.207"/>
	<line style="fill:none;stroke:#000000;stroke-miterlimit:1;" x1="202.776" y1="47.207" x2="205.34" y2="46.139"/>
	<line style="fill:none;stroke:#000000;stroke-miterlimit:1;" x1="205.34" y1="46.139" x2="207.903" y2="44.857"/>
	<line style="fill:none;stroke:#000000;stroke-miterlimit:1;" x1="207.903" y1="44.857" x2="209.612" y2="44.003"/>
	<line style="fill:none;stroke:#000000;stroke-miterlimit:1;" x1="209.612" y1="44.003" x2="211.534" y2="42.294"/>
	<line style="fill:none;stroke:#000000;stroke-miterlimit:1;" x1="211.534" y1="42.294" x2="213.457" y2="40.585"/>
	<line style="fill:none;stroke:#000000;stroke-miterlimit:1;" x1="213.457" y1="40.585" x2="215.38" y2="38.663"/>
	<line style="fill:none;stroke:#000000;stroke-miterlimit:1;" x1="215.38" y1="38.663" x2="216.875" y2="36.313"/>
	<line style="fill:none;stroke:#000000;stroke-miterlimit:1;" x1="216.875" y1="36.313" x2="218.37" y2="34.177"/>
	<line style="fill:none;stroke:#000000;stroke-miterlimit:1;" x1="218.37" y1="34.177" x2="219.438" y2="32.041"/>
	<line style="fill:none;stroke:#000000;stroke-miterlimit:1;" x1="219.438" y1="32.041" x2="220.079" y2="29.478"/>
	<line style="fill:none;stroke:#000000;stroke-miterlimit:1;" x1="220.079" y1="29.478" x2="220.292" y2="27.128"/>
	<line style="fill:none;stroke:#000000;stroke-miterlimit:1;" x1="220.292" y1="27.128" x2="220.72" y2="24.351"/>
	<line style="fill:none;stroke:#000000;stroke-miterlimit:1;" x1="220.72" y1="24.351" x2="220.506" y2="22.001"/>
	<line style="fill:none;stroke:#000000;stroke-miterlimit:1;" x1="220.506" y1="22.001" x2="220.292" y2="19.225"/>
	<line style="fill:none;stroke:#000000;stroke-miterlimit:1;" x1="220.292" y1="19.225" x2="219.651" y2="16.875"/>
	<line style="fill:none;stroke:#000000;stroke-miterlimit:1;" x1="219.651" y1="16.875" x2="218.797" y2="14.739"/>
	<line style="fill:none;stroke:#000000;stroke-miterlimit:1;" x1="218.797" y1="14.739" x2="217.729" y2="11.962"/>
	<line style="fill:none;stroke:#000000;stroke-miterlimit:1;" x1="217.729" y1="11.962" x2="216.234" y2="9.826"/>
	<line style="fill:none;stroke:#000000;stroke-miterlimit:1;" x1="216.234" y1="9.826" x2="214.738" y2="8.117"/>
	<line style="fill:none;stroke:#000000;stroke-miterlimit:1;" x1="214.738" y1="8.117" x2="213.03" y2="5.981"/>
	<line style="fill:none;stroke:#000000;stroke-miterlimit:1;" x1="213.03" y1="5.981" x2="210.894" y2="4.486"/>
	<line style="fill:none;stroke:#000000;stroke-miterlimit:1;" x1="210.894" y1="4.486" x2="208.758" y2="2.991"/>
	<line style="fill:none;stroke:#000000;stroke-miterlimit:1;" x1="208.758" y1="2.991" x2="206.408" y2="1.922"/>
	<line style="fill:none;stroke:#000000;stroke-miterlimit:1;" x1="221.471" y1="81.711" x2="171.06" y2="81.711"/>
	<line style="fill:none;stroke:#000000;stroke-miterlimit:1;" x1="171.06" y1="81.711" x2="171.7" y2="77.439"/>
	<line style="fill:none;stroke:#000000;stroke-miterlimit:1;" x1="171.7" y1="77.439" x2="172.342" y2="74.662"/>
	<line style="fill:none;stroke:#000000;stroke-miterlimit:1;" x1="172.342" y1="74.662" x2="173.409" y2="71.885"/>
	<line style="fill:none;stroke:#000000;stroke-miterlimit:1;" x1="173.409" y1="71.885" x2="174.904" y2="69.749"/>
	<line style="fill:none;stroke:#000000;stroke-miterlimit:1;" x1="174.904" y1="69.749" x2="176.187" y2="67.826"/>
	<line style="fill:none;stroke:#000000;stroke-miterlimit:1;" x1="176.187" y1="67.826" x2="177.896" y2="65.477"/>
	<line style="fill:none;stroke:#000000;stroke-miterlimit:1;" x1="177.896" y1="65.477" x2="179.817" y2="63.768"/>
	<line style="fill:none;stroke:#000000;stroke-miterlimit:1;" x1="179.817" y1="63.768" x2="182.167" y2="62.059"/>
	<line style="fill:none;stroke:#000000;stroke-miterlimit:1;" x1="182.167" y1="62.059" x2="184.09" y2="60.777"/>
	<line style="fill:none;stroke:#000000;stroke-miterlimit:1;" x1="184.09" y1="60.777" x2="186.866" y2="59.496"/>
	<line style="fill:none;stroke:#000000;stroke-miterlimit:1;" x1="186.866" y1="59.496" x2="189.644" y2="58.641"/>
	<line style="fill:none;stroke:#000000;stroke-miterlimit:1;" x1="189.644" y1="58.641" x2="191.566" y2="58.214"/>
	<line style="fill:none;stroke:#000000;stroke-miterlimit:1;" x1="191.566" y1="58.214" x2="194.983" y2="57.787"/>
	<line style="fill:none;stroke:#000000;stroke-miterlimit:1;" x1="194.983" y1="57.787" x2="197.547" y2="57.787"/>
	<line style="fill:none;stroke:#000000;stroke-miterlimit:1;" x1="197.547" y1="57.787" x2="199.896" y2="58.214"/>
	<line style="fill:none;stroke:#000000;stroke-miterlimit:1;" x1="199.896" y1="58.214" x2="202.46" y2="58.641"/>
	<line style="fill:none;stroke:#000000;stroke-miterlimit:1;" x1="202.46" y1="58.641" x2="205.236" y2="59.282"/>
	<line style="fill:none;stroke:#000000;stroke-miterlimit:1;" x1="205.236" y1="59.282" x2="207.159" y2="59.923"/>
	<line style="fill:none;stroke:#000000;stroke-miterlimit:1;" x1="207.159" y1="59.923" x2="209.723" y2="61.632"/>
	<line style="fill:none;stroke:#000000;stroke-miterlimit:1;" x1="209.723" y1="61.632" x2="211.858" y2="63.127"/>
	<line style="fill:none;stroke:#000000;stroke-miterlimit:1;" x1="211.858" y1="63.127" x2="213.781" y2="64.622"/>
	<line style="fill:none;stroke:#000000;stroke-miterlimit:1;" x1="213.781" y1="64.622" x2="215.489" y2="66.758"/>
	<line style="fill:none;stroke:#000000;stroke-miterlimit:1;" x1="215.489" y1="66.758" x2="217.198" y2="69.108"/>
	<line style="fill:none;stroke:#000000;stroke-miterlimit:1;" x1="217.198" y1="69.108" x2="218.693" y2="71.458"/>
	<line style="fill:none;stroke:#000000;stroke-miterlimit:1;" x1="218.693" y1="71.458" x2="219.762" y2="73.594"/>
	<line style="fill:none;stroke:#000000;stroke-miterlimit:1;" x1="219.762" y1="73.594" x2="220.616" y2="76.797"/>
	<line style="fill:none;stroke:#000000;stroke-miterlimit:1;" x1="220.616" y1="76.797" x2="221.257" y2="79.146"/>
	<line style="fill:none;stroke:#000000;stroke-miterlimit:1;" x1="221.257" y1="79.146" x2="221.471" y2="81.711"/>
	<line style="fill:none;stroke:#000000;stroke-miterlimit:1;" x1="173.466" y1="95.551" x2="172.104" y2="97.186"/>
	<line style="fill:none;stroke:#000000;stroke-miterlimit:1;" x1="172.104" y1="97.186" x2="171.287" y2="99.365"/>
	<line style="fill:none;stroke:#000000;stroke-miterlimit:1;" x1="171.287" y1="99.365" x2="170.743" y2="101.543"/>
	<line style="fill:none;stroke:#000000;stroke-miterlimit:1;" x1="170.743" y1="101.543" x2="170.743" y2="103.994"/>
	<line style="fill:none;stroke:#000000;stroke-miterlimit:1;" x1="170.743" y1="103.994" x2="170.743" y2="106.719"/>
	<line style="fill:none;stroke:#000000;stroke-miterlimit:1;" x1="170.743" y1="106.719" x2="171.015" y2="109.713"/>
	<line style="fill:none;stroke:#000000;stroke-miterlimit:1;" x1="171.015" y1="109.713" x2="171.56" y2="112.982"/>
	<line style="fill:none;stroke:#000000;stroke-miterlimit:1;" x1="171.56" y1="112.982" x2="172.104" y2="115.434"/>
	<line style="fill:none;stroke:#000000;stroke-miterlimit:1;" x1="172.104" y1="115.434" x2="172.922" y2="118.428"/>
	<line style="fill:none;stroke:#000000;stroke-miterlimit:1;" x1="172.922" y1="118.428" x2="174.283" y2="122.242"/>
	<line style="fill:none;stroke:#000000;stroke-miterlimit:1;" x1="174.283" y1="122.242" x2="175.645" y2="126.055"/>
	<line style="fill:none;stroke:#000000;stroke-miterlimit:1;" x1="175.645" y1="126.055" x2="179.186" y2="132.047"/>
	<line style="fill:none;stroke:#000000;stroke-miterlimit:1;" x1="179.186" y1="132.047" x2="181.364" y2="134.77"/>
	<line style="fill:none;stroke:#000000;stroke-miterlimit:1;" x1="181.364" y1="134.77" x2="184.088" y2="138.311"/>
	<line style="fill:none;stroke:#000000;stroke-miterlimit:1;" x1="184.088" y1="138.311" x2="187.355" y2="141.033"/>
	<line style="fill:none;stroke:#000000;stroke-miterlimit:1;" x1="187.355" y1="141.033" x2="190.352" y2="143.213"/>
	<line style="fill:none;stroke:#000000;stroke-miterlimit:1;" x1="190.352" y1="143.213" x2="193.075" y2="145.119"/>
	<line style="fill:none;stroke:#000000;stroke-miterlimit:1;" x1="193.075" y1="145.119" x2="195.799" y2="146.207"/>
	<line style="fill:none;stroke:#000000;stroke-miterlimit:1;" x1="195.799" y1="146.207" x2="198.522" y2="147.025"/>
	<line style="fill:none;stroke:#000000;stroke-miterlimit:1;" x1="198.522" y1="147.025" x2="201.245" y2="147.57"/>
	<line style="fill:none;stroke:#000000;stroke-miterlimit:1;" x1="201.245" y1="147.57" x2="203.696" y2="148.115"/>
	<line style="fill:none;stroke:#000000;stroke-miterlimit:1;" x1="203.696" y1="148.115" x2="205.875" y2="148.115"/>
	<line style="fill:none;stroke:#000000;stroke-miterlimit:1;" x1="205.875" y1="148.115" x2="208.599" y2="148.115"/>
	<line style="fill:none;stroke:#000000;stroke-miterlimit:1;" x1="208.599" y1="148.115" x2="210.777" y2="147.297"/>
	<line style="fill:none;stroke:#000000;stroke-miterlimit:1;" x1="210.777" y1="147.297" x2="212.956" y2="146.48"/>
	<line style="fill:none;stroke:#000000;stroke-miterlimit:1;" x1="212.956" y1="146.48" x2="215.135" y2="145.391"/>
	<line style="fill:none;stroke:#000000;stroke-miterlimit:1;" x1="215.135" y1="145.391" x2="217.314" y2="144.301"/>
	<line style="fill:none;stroke:#000000;stroke-miterlimit:1;" x1="217.314" y1="144.301" x2="219.221" y2="142.668"/>
	<line style="fill:none;stroke:#000000;stroke-miterlimit:1;" x1="219.221" y1="142.668" x2="220.582" y2="141.033"/>
	<line style="fill:none;stroke:#000000;stroke-miterlimit:1;" x1="220.582" y1="141.033" x2="221.943" y2="139.398"/>
	<line style="fill:none;stroke:#000000;stroke-miterlimit:1;" x1="221.943" y1="139.398" x2="222.761" y2="137.221"/>
	<line style="fill:none;stroke:#000000;stroke-miterlimit:1;" x1="222.761" y1="137.221" x2="224.123" y2="134.77"/>
	<line style="fill:none;stroke:#000000;stroke-miterlimit:1;" x1="224.123" y1="134.77" x2="224.395" y2="132.863"/>
	<line style="fill:none;stroke:#000000;stroke-miterlimit:1;" x1="224.395" y1="132.863" x2="224.939" y2="130.139"/>
	<line style="fill:none;stroke:#000000;stroke-miterlimit:1;" x1="224.939" y1="130.139" x2="224.667" y2="127.688"/>
	<line style="fill:none;stroke:#000000;stroke-miterlimit:1;" x1="224.667" y1="127.688" x2="224.395" y2="124.965"/>
	<line style="fill:none;stroke:#000000;stroke-miterlimit:1;" x1="224.395" y1="124.965" x2="223.578" y2="122.514"/>
	<line style="fill:none;stroke:#000000;stroke-miterlimit:1;" x1="223.578" y1="122.514" x2="222.488" y2="119.791"/>
	<line style="fill:none;stroke:#000000;stroke-miterlimit:1;" x1="222.488" y1="119.791" x2="221.127" y2="117.066"/>
	<line style="fill:none;stroke:#000000;stroke-miterlimit:1;" x1="221.127" y1="117.066" x2="219.221" y2="114.07"/>
	<line style="fill:none;stroke:#000000;stroke-miterlimit:1;" x1="219.221" y1="114.07" x2="217.042" y2="111.348"/>
	<line style="fill:none;stroke:#000000;stroke-miterlimit:1;" x1="217.042" y1="111.348" x2="214.863" y2="108.896"/>
	<line style="fill:none;stroke:#000000;stroke-miterlimit:1;" x1="214.863" y1="108.896" x2="212.412" y2="106.445"/>
	<line style="fill:none;stroke:#000000;stroke-miterlimit:1;" x1="212.412" y1="106.445" x2="209.961" y2="104.268"/>
	<line style="fill:none;stroke:#000000;stroke-miterlimit:1;" x1="209.961" y1="104.268" x2="206.965" y2="102.359"/>
	<line style="fill:none;stroke:#000000;stroke-miterlimit:1;" x1="206.965" y1="102.359" x2="203.969" y2="100.182"/>
	<line style="fill:none;stroke:#000000;stroke-miterlimit:1;" x1="203.969" y1="100.182" x2="199.884" y2="98.002"/>
	<line style="fill:none;stroke:#000000;stroke-miterlimit:1;" x1="199.884" y1="98.002" x2="196.888" y2="96.369"/>
	<line style="fill:none;stroke:#000000;stroke-miterlimit:1;" x1="196.888" y1="96.369" x2="193.348" y2="95.279"/>
	<line style="fill:none;stroke:#000000;stroke-miterlimit:1;" x1="193.348" y1="95.279" x2="189.535" y2="94.189"/>
	<line style="fill:none;stroke:#000000;stroke-miterlimit:1;" x1="189.535" y1="94.189" x2="186.267" y2="93.373"/>
	<line style="fill:none;stroke:#000000;stroke-miterlimit:1;" x1="186.267" y1="93.373" x2="183.271" y2="93.1"/>
	<line style="fill:none;stroke:#000000;stroke-miterlimit:1;" x1="183.271" y1="93.1" x2="181.092" y2="93.1"/>
	<line style="fill:none;stroke:#000000;stroke-miterlimit:1;" x1="181.092" y1="93.1" x2="178.641" y2="93.373"/>
	<line style="fill:none;stroke:#000000;stroke-miterlimit:1;" x1="178.641" y1="93.373" x2="177.279" y2="93.645"/>
	<line style="fill:none;stroke:#000000;stroke-miterlimit:1;" x1="177.279" y1="93.645" x2="175.645" y2="93.918"/>
	<line style="fill:none;stroke:#000000;stroke-miterlimit:1;" x1="175.645" y1="93.918" x2="173.466" y2="95.551"/>
	<line style="fill:none;stroke:#000000;stroke-miterlimit:1;" x1="48.055" y1="124.119" x2="67.803" y2="124.119"/>
	<line style="fill:none;stroke:#000000;stroke-miterlimit:1;" x1="67.803" y1="124.119" x2="67.474" y2="116.877"/>
	<line style="fill:none;stroke:#000000;stroke-miterlimit:1;" x1="67.474" y1="116.877" x2="69.449" y2="107.332"/>
	<line style="fill:none;stroke:#000000;stroke-miterlimit:1;" x1="69.449" y1="107.332" x2="71.424" y2="101.736"/>
	<line style="fill:none;stroke:#000000;stroke-miterlimit:1;" x1="71.424" y1="101.736" x2="75.374" y2="92.85"/>
	<line style="fill:none;stroke:#000000;stroke-miterlimit:1;" x1="75.374" y1="92.85" x2="93.477" y2="60.923"/>
	<line style="fill:none;stroke:#000000;stroke-miterlimit:1;" x1="93.477" y1="60.923" x2="94.464" y2="54.011"/>
	<line style="fill:none;stroke:#000000;stroke-miterlimit:1;" x1="94.464" y1="54.011" x2="94.793" y2="50.72"/>
	<line style="fill:none;stroke:#000000;stroke-miterlimit:1;" x1="94.793" y1="50.72" x2="94.135" y2="44.795"/>
	<line style="fill:none;stroke:#000000;stroke-miterlimit:1;" x1="94.135" y1="44.795" x2="93.147" y2="40.845"/>
	<line style="fill:none;stroke:#000000;stroke-miterlimit:1;" x1="93.147" y1="40.845" x2="91.501" y2="35.908"/>
	<line style="fill:none;stroke:#000000;stroke-miterlimit:1;" x1="91.501" y1="35.908" x2="88.539" y2="31.3"/>
	<line style="fill:none;stroke:#000000;stroke-miterlimit:1;" x1="88.539" y1="31.3" x2="86.235" y2="28.667"/>
	<line style="fill:none;stroke:#000000;stroke-miterlimit:1;" x1="86.235" y1="28.667" x2="80.311" y2="23.072"/>
	<line style="fill:none;stroke:#000000;stroke-miterlimit:1;" x1="80.311" y1="23.072" x2="75.703" y2="21.426"/>
	<line style="fill:none;stroke:#000000;stroke-miterlimit:1;" x1="75.703" y1="21.426" x2="66.158" y2="20.438"/>
	<line style="fill:none;stroke:#000000;stroke-miterlimit:1;" x1="66.158" y1="20.438" x2="58.258" y2="21.426"/>
	<line style="fill:none;stroke:#000000;stroke-miterlimit:1;" x1="58.258" y1="21.426" x2="54.967" y2="22.743"/>
	<line style="fill:none;stroke:#000000;stroke-miterlimit:1;" x1="54.967" y1="22.743" x2="51.017" y2="25.375"/>
	<line style="fill:none;stroke:#000000;stroke-miterlimit:1;" x1="51.017" y1="25.375" x2="47.396" y2="29.325"/>
	<line style="fill:none;stroke:#000000;stroke-miterlimit:1;" x1="47.396" y1="29.325" x2="45.751" y2="31.629"/>
	<line style="fill:none;stroke:#000000;stroke-miterlimit:1;" x1="45.751" y1="31.629" x2="44.105" y2="33.604"/>
	<line style="fill:none;stroke:#000000;stroke-miterlimit:1;" x1="43.118" y1="33.933" x2="40.155" y2="35.25"/>
	<line style="fill:none;stroke:#000000;stroke-miterlimit:1;" x1="40.155" y1="35.25" x2="7.899" y2="41.503"/>
	<line style="fill:none;stroke:#000000;stroke-miterlimit:1;" x1="7.899" y1="41.503" x2="4.937" y2="43.808"/>
	<line style="fill:none;stroke:#000000;stroke-miterlimit:1;" x1="4.937" y1="43.808" x2="2.633" y2="45.453"/>
	<line style="fill:none;stroke:#000000;stroke-miterlimit:1;" x1="2.633" y1="45.453" x2="0.658" y2="49.074"/>
	<line style="fill:none;stroke:#000000;stroke-miterlimit:1;" x1="0.658" y1="49.074" x2="0" y2="54.34"/>
	<line style="fill:none;stroke:#000000;stroke-miterlimit:1;" x1="0" y1="54.34" x2="0.329" y2="55.657"/>
	<line style="fill:none;stroke:#000000;stroke-miterlimit:1;" x1="0.329" y1="55.657" x2="1.316" y2="56.315"/>
	<line style="fill:none;stroke:#000000;stroke-miterlimit:1;" x1="1.316" y1="56.315" x2="1.975" y2="56.315"/>
	<line style="fill:none;stroke:#000000;stroke-miterlimit:1;" x1="1.975" y1="56.315" x2="3.621" y2="55.657"/>
	<line style="fill:none;stroke:#000000;stroke-miterlimit:1;" x1="3.621" y1="55.657" x2="4.279" y2="52.694"/>
	<line style="fill:none;stroke:#000000;stroke-miterlimit:1;" x1="4.279" y1="52.694" x2="6.253" y2="49.732"/>
	<line style="fill:none;stroke:#000000;stroke-miterlimit:1;" x1="6.253" y1="49.732" x2="9.216" y2="47.099"/>
	<line style="fill:none;stroke:#000000;stroke-miterlimit:1;" x1="9.216" y1="47.099" x2="12.507" y2="46.112"/>
	<line style="fill:none;stroke:#000000;stroke-miterlimit:1;" x1="12.507" y1="46.112" x2="16.786" y2="44.795"/>
	<line style="fill:none;stroke:#000000;stroke-miterlimit:1;" x1="16.786" y1="44.795" x2="43.447" y2="41.174"/>
	<line style="fill:none;stroke:#000000;stroke-miterlimit:1;" x1="43.447" y1="41.174" x2="44.105" y2="40.845"/>
	<line style="fill:none;stroke:#000000;stroke-miterlimit:1;" x1="44.105" y1="40.845" x2="48.055" y2="41.503"/>
	<line style="fill:none;stroke:#000000;stroke-miterlimit:1;" x1="43.447" y1="33.933" x2="48.055" y2="41.833"/>
	<line style="fill:none;stroke:#000000;stroke-miterlimit:1;" x1="48.055" y1="41.833" x2="48.055" y2="46.112"/>
	<line style="fill:none;stroke:#000000;stroke-miterlimit:1;" x1="4.937" y1="52.365" x2="7.899" y2="50.391"/>
	<line style="fill:none;stroke:#000000;stroke-miterlimit:1;" x1="7.899" y1="50.391" x2="12.836" y2="49.074"/>
	<line style="fill:none;stroke:#000000;stroke-miterlimit:1;" x1="12.836" y1="49.074" x2="25.673" y2="47.757"/>
	<line style="fill:none;stroke:#000000;stroke-miterlimit:1;" x1="25.673" y1="47.757" x2="38.51" y2="46.112"/>
	<line style="fill:none;stroke:#000000;stroke-miterlimit:1;" x1="38.51" y1="46.112" x2="43.776" y2="46.112"/>
	<line style="fill:none;stroke:#000000;stroke-miterlimit:1;" x1="43.776" y1="46.112" x2="48.384" y2="46.112"/>
	<line style="fill:none;stroke:#000000;stroke-miterlimit:1;" x1="48.384" y1="46.112" x2="51.017" y2="46.441"/>
	<line style="fill:none;stroke:#000000;stroke-miterlimit:1;" x1="51.017" y1="46.441" x2="56.283" y2="47.757"/>
	<line style="fill:none;stroke:#000000;stroke-miterlimit:1;" x1="56.283" y1="47.757" x2="65.5" y2="49.403"/>
	<line style="fill:none;stroke:#000000;stroke-miterlimit:1;" x1="65.5" y1="49.403" x2="70.437" y2="49.732"/>
	<line style="fill:none;stroke:#000000;stroke-miterlimit:1;" x1="70.437" y1="49.732" x2="74.057" y2="49.403"/>
	<line style="fill:none;stroke:#000000;stroke-miterlimit:1;" x1="74.057" y1="49.403" x2="78.007" y2="48.416"/>
	<line style="fill:none;stroke:#000000;stroke-miterlimit:1;" x1="78.007" y1="48.416" x2="80.311" y2="49.732"/>
	<line style="fill:none;stroke:#000000;stroke-miterlimit:1;" x1="80.311" y1="49.732" x2="81.298" y2="51.378"/>
	<line style="fill:none;stroke:#000000;stroke-miterlimit:1;" x1="81.298" y1="51.378" x2="81.627" y2="55.328"/>
	<line style="fill:none;stroke:#000000;stroke-miterlimit:1;" x1="81.627" y1="55.328" x2="81.298" y2="58.619"/>
	<line style="fill:none;stroke:#000000;stroke-miterlimit:1;" x1="81.298" y1="58.619" x2="79.652" y2="62.569"/>
	<line style="fill:none;stroke:#000000;stroke-miterlimit:1;" x1="79.652" y1="62.569" x2="65.17" y2="81.658"/>
	<line style="fill:none;stroke:#000000;stroke-miterlimit:1;" x1="65.17" y1="81.658" x2="57.929" y2="93.18"/>
	<line style="fill:none;stroke:#000000;stroke-miterlimit:1;" x1="57.929" y1="93.18" x2="54.967" y2="99.104"/>
	<line style="fill:none;stroke:#000000;stroke-miterlimit:1;" x1="54.967" y1="99.104" x2="51.346" y2="106.016"/>
	<line style="fill:none;stroke:#000000;stroke-miterlimit:1;" x1="51.346" y1="106.016" x2="49.371" y2="114.902"/>
	<line style="fill:none;stroke:#000000;stroke-miterlimit:1;" x1="49.371" y1="114.902" x2="48.055" y2="124.119"/>
	<line style="fill:none;stroke:#000000;stroke-miterlimit:1;" x1="76.361" y1="21.755" x2="93.477" y2="28.009"/>
	<line style="fill:none;stroke:#000000;stroke-miterlimit:1;" x1="93.477" y1="28.009" x2="110.263" y2="32.288"/>
	<line style="fill:none;stroke:#000000;stroke-miterlimit:1;" x1="110.263" y1="32.288" x2="117.175" y2="33.604"/>
	<line style="fill:none;stroke:#000000;stroke-miterlimit:1;" x1="117.175" y1="33.604" x2="123.1" y2="33.933"/>
	<line style="fill:none;stroke:#000000;stroke-miterlimit:1;" x1="123.1" y1="33.933" x2="130.341" y2="33.933"/>
	<line style="fill:none;stroke:#000000;stroke-miterlimit:1;" x1="130.341" y1="33.933" x2="138.24" y2="33.604"/>
	<line style="fill:none;stroke:#000000;stroke-miterlimit:1;" x1="138.24" y1="33.604" x2="144.164" y2="32.288"/>
	<line style="fill:none;stroke:#000000;stroke-miterlimit:1;" x1="144.164" y1="32.288" x2="150.089" y2="30.971"/>
	<line style="fill:none;stroke:#000000;stroke-miterlimit:1;" x1="150.089" y1="30.971" x2="150.747" y2="31.629"/>
	<line style="fill:none;stroke:#000000;stroke-miterlimit:1;" x1="150.747" y1="31.629" x2="150.089" y2="33.933"/>
	<line style="fill:none;stroke:#000000;stroke-miterlimit:1;" x1="150.089" y1="33.933" x2="147.785" y2="35.579"/>
	<line style="fill:none;stroke:#000000;stroke-miterlimit:1;" x1="147.785" y1="35.579" x2="139.886" y2="37.225"/>
	<line style="fill:none;stroke:#000000;stroke-miterlimit:1;" x1="139.886" y1="37.225" x2="131.986" y2="38.212"/>
	<line style="fill:none;stroke:#000000;stroke-miterlimit:1;" x1="131.986" y1="38.212" x2="123.1" y2="38.212"/>
	<line style="fill:none;stroke:#000000;stroke-miterlimit:1;" x1="123.1" y1="38.212" x2="115.529" y2="37.554"/>
	<line style="fill:none;stroke:#000000;stroke-miterlimit:1;" x1="115.529" y1="37.554" x2="102.692" y2="35.25"/>
	<line style="fill:none;stroke:#000000;stroke-miterlimit:1;" x1="102.692" y1="35.25" x2="95.451" y2="32.946"/>
	<line style="fill:none;stroke:#000000;stroke-miterlimit:1;" x1="86.235" y1="28.009" x2="99.072" y2="34.921"/>
	<line style="fill:none;stroke:#000000;stroke-miterlimit:1;" x1="99.072" y1="34.921" x2="111.908" y2="41.503"/>
	<line style="fill:none;stroke:#000000;stroke-miterlimit:1;" x1="111.908" y1="41.503" x2="119.808" y2="45.453"/>
	<line style="fill:none;stroke:#000000;stroke-miterlimit:1;" x1="119.808" y1="45.453" x2="125.732" y2="47.757"/>
	<line style="fill:none;stroke:#000000;stroke-miterlimit:1;" x1="125.732" y1="47.757" x2="132.315" y2="49.403"/>
	<line style="fill:none;stroke:#000000;stroke-miterlimit:1;" x1="132.315" y1="49.403" x2="136.924" y2="50.062"/>
	<line style="fill:none;stroke:#000000;stroke-miterlimit:1;" x1="136.924" y1="50.062" x2="145.481" y2="51.049"/>
	<line style="fill:none;stroke:#000000;stroke-miterlimit:1;" x1="145.481" y1="51.049" x2="149.102" y2="50.391"/>
	<line style="fill:none;stroke:#000000;stroke-miterlimit:1;" x1="149.102" y1="50.391" x2="150.747" y2="50.062"/>
	<line style="fill:none;stroke:#000000;stroke-miterlimit:1;" x1="150.747" y1="50.062" x2="152.063" y2="51.049"/>
	<line style="fill:none;stroke:#000000;stroke-miterlimit:1;" x1="152.063" y1="51.049" x2="152.393" y2="53.023"/>
	<line style="fill:none;stroke:#000000;stroke-miterlimit:1;" x1="152.393" y1="53.023" x2="147.456" y2="54.669"/>
	<line style="fill:none;stroke:#000000;stroke-miterlimit:1;" x1="147.456" y1="54.669" x2="141.531" y2="55.328"/>
	<line style="fill:none;stroke:#000000;stroke-miterlimit:1;" x1="141.531" y1="55.328" x2="134.948" y2="54.34"/>
	<line style="fill:none;stroke:#000000;stroke-miterlimit:1;" x1="134.948" y1="54.34" x2="125.732" y2="52.365"/>
	<line style="fill:none;stroke:#000000;stroke-miterlimit:1;" x1="125.732" y1="52.365" x2="117.833" y2="49.732"/>
	<line style="fill:none;stroke:#000000;stroke-miterlimit:1;" x1="117.833" y1="49.732" x2="110.263" y2="46.112"/>
	<line style="fill:none;stroke:#000000;stroke-miterlimit:1;" x1="110.263" y1="46.112" x2="91.831" y2="35.579"/>
	<line style="fill:none;stroke:#000000;stroke-miterlimit:1;" x1="58.587" y1="29.984" x2="56.612" y2="30.313"/>
	<line style="fill:none;stroke:#000000;stroke-miterlimit:1;" x1="56.612" y1="30.313" x2="54.967" y2="32.288"/>
	<line style="fill:none;stroke:#000000;stroke-miterlimit:1;" x1="54.967" y1="32.288" x2="54.967" y2="34.592"/>
	<line style="fill:none;stroke:#000000;stroke-miterlimit:1;" x1="54.967" y1="34.592" x2="56.612" y2="36.237"/>
	<line style="fill:none;stroke:#000000;stroke-miterlimit:1;" x1="56.612" y1="36.237" x2="58.917" y2="36.237"/>
	<line style="fill:none;stroke:#000000;stroke-miterlimit:1;" x1="58.917" y1="36.237" x2="61.221" y2="35.25"/>
	<line style="fill:none;stroke:#000000;stroke-miterlimit:1;" x1="61.221" y1="35.25" x2="61.55" y2="33.933"/>
	<line style="fill:none;stroke:#000000;stroke-miterlimit:1;" x1="61.55" y1="33.933" x2="60.891" y2="31.958"/>
	<line style="fill:none;stroke:#000000;stroke-miterlimit:1;" x1="60.891" y1="31.958" x2="59.246" y2="29.984"/>
</g>
</svg>
