<?xml version="1.0" encoding="iso-8859-1"?>
<!-- Generator: Adobe Illustrator 16.0.1, SVG Export Plug-In . SVG Version: 6.00 Build 0)  -->
<!DOCTYPE svg PUBLIC "-//W3C//DTD SVG 1.1//EN" "http://www.w3.org/Graphics/SVG/1.1/DTD/svg11.dtd">
<svg version="1.1" id="Ebene_1" xmlns="http://www.w3.org/2000/svg" xmlns:xlink="http://www.w3.org/1999/xlink" x="0px" y="0px"
	 width="255.621px" height="168.594px" viewBox="0 0 255.621 168.594" style="enable-background:new 0 0 255.621 168.594;"
	 xml:space="preserve">
<g>
	<line style="fill:none;stroke:#000000;stroke-miterlimit:1;" x1="48.055" y1="103.68" x2="67.804" y2="103.68"/>
	<line style="fill:none;stroke:#000000;stroke-miterlimit:1;" x1="67.804" y1="103.68" x2="67.474" y2="96.439"/>
	<line style="fill:none;stroke:#000000;stroke-miterlimit:1;" x1="67.474" y1="96.439" x2="69.449" y2="86.895"/>
	<line style="fill:none;stroke:#000000;stroke-miterlimit:1;" x1="69.449" y1="86.895" x2="71.424" y2="81.298"/>
	<line style="fill:none;stroke:#000000;stroke-miterlimit:1;" x1="71.424" y1="81.298" x2="75.374" y2="72.412"/>
	<line style="fill:none;stroke:#000000;stroke-miterlimit:1;" x1="75.374" y1="72.412" x2="93.477" y2="40.485"/>
	<line style="fill:none;stroke:#000000;stroke-miterlimit:1;" x1="93.477" y1="40.485" x2="94.464" y2="33.573"/>
	<line style="fill:none;stroke:#000000;stroke-miterlimit:1;" x1="94.464" y1="33.573" x2="94.793" y2="30.281"/>
	<line style="fill:none;stroke:#000000;stroke-miterlimit:1;" x1="94.793" y1="30.281" x2="94.135" y2="24.357"/>
	<line style="fill:none;stroke:#000000;stroke-miterlimit:1;" x1="94.135" y1="24.357" x2="93.147" y2="20.407"/>
	<line style="fill:none;stroke:#000000;stroke-miterlimit:1;" x1="93.147" y1="20.407" x2="91.502" y2="15.47"/>
	<line style="fill:none;stroke:#000000;stroke-miterlimit:1;" x1="91.502" y1="15.47" x2="88.54" y2="10.862"/>
	<line style="fill:none;stroke:#000000;stroke-miterlimit:1;" x1="88.54" y1="10.862" x2="86.235" y2="8.229"/>
	<line style="fill:none;stroke:#000000;stroke-miterlimit:1;" x1="86.235" y1="8.229" x2="80.311" y2="2.633"/>
	<line style="fill:none;stroke:#000000;stroke-miterlimit:1;" x1="80.311" y1="2.633" x2="75.703" y2="0.988"/>
	<line style="fill:none;stroke:#000000;stroke-miterlimit:1;" x1="75.703" y1="0.988" x2="66.158" y2="0"/>
	<line style="fill:none;stroke:#000000;stroke-miterlimit:1;" x1="66.158" y1="0" x2="58.258" y2="0.988"/>
	<line style="fill:none;stroke:#000000;stroke-miterlimit:1;" x1="58.258" y1="0.988" x2="54.967" y2="2.304"/>
	<line style="fill:none;stroke:#000000;stroke-miterlimit:1;" x1="54.967" y1="2.304" x2="51.017" y2="4.938"/>
	<line style="fill:none;stroke:#000000;stroke-miterlimit:1;" x1="51.017" y1="4.938" x2="47.396" y2="8.887"/>
	<line style="fill:none;stroke:#000000;stroke-miterlimit:1;" x1="47.396" y1="8.887" x2="45.751" y2="11.191"/>
	<line style="fill:none;stroke:#000000;stroke-miterlimit:1;" x1="45.751" y1="11.191" x2="44.105" y2="13.166"/>
	<line style="fill:none;stroke:#000000;stroke-miterlimit:1;" x1="43.118" y1="13.495" x2="40.155" y2="14.812"/>
	<line style="fill:none;stroke:#000000;stroke-miterlimit:1;" x1="40.155" y1="14.812" x2="7.899" y2="21.065"/>
	<line style="fill:none;stroke:#000000;stroke-miterlimit:1;" x1="7.899" y1="21.065" x2="4.937" y2="23.369"/>
	<line style="fill:none;stroke:#000000;stroke-miterlimit:1;" x1="4.937" y1="23.369" x2="2.633" y2="25.015"/>
	<line style="fill:none;stroke:#000000;stroke-miterlimit:1;" x1="2.633" y1="25.015" x2="0.658" y2="28.636"/>
	<line style="fill:none;stroke:#000000;stroke-miterlimit:1;" x1="0.658" y1="28.636" x2="0" y2="33.902"/>
	<line style="fill:none;stroke:#000000;stroke-miterlimit:1;" x1="0" y1="33.902" x2="0.329" y2="35.218"/>
	<line style="fill:none;stroke:#000000;stroke-miterlimit:1;" x1="0.329" y1="35.218" x2="1.316" y2="35.876"/>
	<line style="fill:none;stroke:#000000;stroke-miterlimit:1;" x1="1.316" y1="35.876" x2="1.975" y2="35.876"/>
	<line style="fill:none;stroke:#000000;stroke-miterlimit:1;" x1="1.975" y1="35.876" x2="3.621" y2="35.218"/>
	<line style="fill:none;stroke:#000000;stroke-miterlimit:1;" x1="3.621" y1="35.218" x2="4.279" y2="32.256"/>
	<line style="fill:none;stroke:#000000;stroke-miterlimit:1;" x1="4.279" y1="32.256" x2="6.254" y2="29.294"/>
	<line style="fill:none;stroke:#000000;stroke-miterlimit:1;" x1="6.254" y1="29.294" x2="9.216" y2="26.661"/>
	<line style="fill:none;stroke:#000000;stroke-miterlimit:1;" x1="9.216" y1="26.661" x2="12.507" y2="25.673"/>
	<line style="fill:none;stroke:#000000;stroke-miterlimit:1;" x1="12.507" y1="25.673" x2="16.786" y2="24.357"/>
	<line style="fill:none;stroke:#000000;stroke-miterlimit:1;" x1="16.786" y1="24.357" x2="43.447" y2="20.736"/>
	<line style="fill:none;stroke:#000000;stroke-miterlimit:1;" x1="43.447" y1="20.736" x2="44.105" y2="20.407"/>
	<line style="fill:none;stroke:#000000;stroke-miterlimit:1;" x1="44.105" y1="20.407" x2="48.055" y2="21.065"/>
	<line style="fill:none;stroke:#000000;stroke-miterlimit:1;" x1="43.447" y1="13.495" x2="48.055" y2="21.395"/>
	<line style="fill:none;stroke:#000000;stroke-miterlimit:1;" x1="48.055" y1="21.395" x2="48.055" y2="25.673"/>
	<line style="fill:none;stroke:#000000;stroke-miterlimit:1;" x1="4.937" y1="31.927" x2="7.899" y2="29.952"/>
	<line style="fill:none;stroke:#000000;stroke-miterlimit:1;" x1="7.899" y1="29.952" x2="12.836" y2="28.636"/>
	<line style="fill:none;stroke:#000000;stroke-miterlimit:1;" x1="12.836" y1="28.636" x2="25.673" y2="27.319"/>
	<line style="fill:none;stroke:#000000;stroke-miterlimit:1;" x1="25.673" y1="27.319" x2="38.51" y2="25.673"/>
	<line style="fill:none;stroke:#000000;stroke-miterlimit:1;" x1="38.51" y1="25.673" x2="43.776" y2="25.673"/>
	<line style="fill:none;stroke:#000000;stroke-miterlimit:1;" x1="43.776" y1="25.673" x2="48.384" y2="25.673"/>
	<line style="fill:none;stroke:#000000;stroke-miterlimit:1;" x1="48.384" y1="25.673" x2="51.017" y2="26.002"/>
	<line style="fill:none;stroke:#000000;stroke-miterlimit:1;" x1="51.017" y1="26.002" x2="56.284" y2="27.319"/>
	<line style="fill:none;stroke:#000000;stroke-miterlimit:1;" x1="56.284" y1="27.319" x2="65.5" y2="28.965"/>
	<line style="fill:none;stroke:#000000;stroke-miterlimit:1;" x1="65.5" y1="28.965" x2="70.437" y2="29.294"/>
	<line style="fill:none;stroke:#000000;stroke-miterlimit:1;" x1="70.437" y1="29.294" x2="74.057" y2="28.965"/>
	<line style="fill:none;stroke:#000000;stroke-miterlimit:1;" x1="74.057" y1="28.965" x2="78.007" y2="27.977"/>
	<line style="fill:none;stroke:#000000;stroke-miterlimit:1;" x1="78.007" y1="27.977" x2="80.311" y2="29.294"/>
	<line style="fill:none;stroke:#000000;stroke-miterlimit:1;" x1="80.311" y1="29.294" x2="81.298" y2="30.939"/>
	<line style="fill:none;stroke:#000000;stroke-miterlimit:1;" x1="81.298" y1="30.939" x2="81.627" y2="34.889"/>
	<line style="fill:none;stroke:#000000;stroke-miterlimit:1;" x1="81.627" y1="34.889" x2="81.298" y2="38.181"/>
	<line style="fill:none;stroke:#000000;stroke-miterlimit:1;" x1="81.298" y1="38.181" x2="79.653" y2="42.13"/>
	<line style="fill:none;stroke:#000000;stroke-miterlimit:1;" x1="79.653" y1="42.13" x2="65.17" y2="61.221"/>
	<line style="fill:none;stroke:#000000;stroke-miterlimit:1;" x1="65.17" y1="61.221" x2="57.929" y2="72.741"/>
	<line style="fill:none;stroke:#000000;stroke-miterlimit:1;" x1="57.929" y1="72.741" x2="54.967" y2="78.666"/>
	<line style="fill:none;stroke:#000000;stroke-miterlimit:1;" x1="54.967" y1="78.666" x2="51.346" y2="85.577"/>
	<line style="fill:none;stroke:#000000;stroke-miterlimit:1;" x1="51.346" y1="85.577" x2="49.372" y2="94.465"/>
	<line style="fill:none;stroke:#000000;stroke-miterlimit:1;" x1="49.372" y1="94.465" x2="48.055" y2="103.68"/>
	<line style="fill:none;stroke:#000000;stroke-miterlimit:1;" x1="76.361" y1="1.317" x2="93.477" y2="7.57"/>
	<line style="fill:none;stroke:#000000;stroke-miterlimit:1;" x1="93.477" y1="7.57" x2="110.263" y2="11.849"/>
	<line style="fill:none;stroke:#000000;stroke-miterlimit:1;" x1="110.263" y1="11.849" x2="117.175" y2="13.166"/>
	<line style="fill:none;stroke:#000000;stroke-miterlimit:1;" x1="117.175" y1="13.166" x2="123.1" y2="13.495"/>
	<line style="fill:none;stroke:#000000;stroke-miterlimit:1;" x1="123.1" y1="13.495" x2="130.341" y2="13.495"/>
	<line style="fill:none;stroke:#000000;stroke-miterlimit:1;" x1="130.341" y1="13.495" x2="138.24" y2="13.166"/>
	<line style="fill:none;stroke:#000000;stroke-miterlimit:1;" x1="138.24" y1="13.166" x2="144.165" y2="11.849"/>
	<line style="fill:none;stroke:#000000;stroke-miterlimit:1;" x1="144.165" y1="11.849" x2="150.089" y2="10.533"/>
	<line style="fill:none;stroke:#000000;stroke-miterlimit:1;" x1="150.089" y1="10.533" x2="150.747" y2="11.191"/>
	<line style="fill:none;stroke:#000000;stroke-miterlimit:1;" x1="150.747" y1="11.191" x2="150.089" y2="13.495"/>
	<line style="fill:none;stroke:#000000;stroke-miterlimit:1;" x1="150.089" y1="13.495" x2="147.785" y2="15.141"/>
	<line style="fill:none;stroke:#000000;stroke-miterlimit:1;" x1="147.785" y1="15.141" x2="139.886" y2="16.787"/>
	<line style="fill:none;stroke:#000000;stroke-miterlimit:1;" x1="139.886" y1="16.787" x2="131.986" y2="17.774"/>
	<line style="fill:none;stroke:#000000;stroke-miterlimit:1;" x1="131.986" y1="17.774" x2="123.1" y2="17.774"/>
	<line style="fill:none;stroke:#000000;stroke-miterlimit:1;" x1="123.1" y1="17.774" x2="115.529" y2="17.116"/>
	<line style="fill:none;stroke:#000000;stroke-miterlimit:1;" x1="115.529" y1="17.116" x2="102.692" y2="14.812"/>
	<line style="fill:none;stroke:#000000;stroke-miterlimit:1;" x1="102.692" y1="14.812" x2="95.452" y2="12.508"/>
	<line style="fill:none;stroke:#000000;stroke-miterlimit:1;" x1="86.235" y1="7.57" x2="99.072" y2="14.482"/>
	<line style="fill:none;stroke:#000000;stroke-miterlimit:1;" x1="99.072" y1="14.482" x2="111.909" y2="21.065"/>
	<line style="fill:none;stroke:#000000;stroke-miterlimit:1;" x1="111.909" y1="21.065" x2="119.808" y2="25.015"/>
	<line style="fill:none;stroke:#000000;stroke-miterlimit:1;" x1="119.808" y1="25.015" x2="125.732" y2="27.319"/>
	<line style="fill:none;stroke:#000000;stroke-miterlimit:1;" x1="125.732" y1="27.319" x2="132.315" y2="28.965"/>
	<line style="fill:none;stroke:#000000;stroke-miterlimit:1;" x1="132.315" y1="28.965" x2="136.924" y2="29.623"/>
	<line style="fill:none;stroke:#000000;stroke-miterlimit:1;" x1="136.924" y1="29.623" x2="145.481" y2="30.61"/>
	<line style="fill:none;stroke:#000000;stroke-miterlimit:1;" x1="145.481" y1="30.61" x2="149.102" y2="29.952"/>
	<line style="fill:none;stroke:#000000;stroke-miterlimit:1;" x1="149.102" y1="29.952" x2="150.747" y2="29.623"/>
	<line style="fill:none;stroke:#000000;stroke-miterlimit:1;" x1="150.747" y1="29.623" x2="152.064" y2="30.61"/>
	<line style="fill:none;stroke:#000000;stroke-miterlimit:1;" x1="152.064" y1="30.61" x2="152.394" y2="32.585"/>
	<line style="fill:none;stroke:#000000;stroke-miterlimit:1;" x1="152.394" y1="32.585" x2="147.456" y2="34.231"/>
	<line style="fill:none;stroke:#000000;stroke-miterlimit:1;" x1="147.456" y1="34.231" x2="141.531" y2="34.889"/>
	<line style="fill:none;stroke:#000000;stroke-miterlimit:1;" x1="141.531" y1="34.889" x2="134.948" y2="33.902"/>
	<line style="fill:none;stroke:#000000;stroke-miterlimit:1;" x1="134.948" y1="33.902" x2="125.732" y2="31.927"/>
	<line style="fill:none;stroke:#000000;stroke-miterlimit:1;" x1="125.732" y1="31.927" x2="117.833" y2="29.294"/>
	<line style="fill:none;stroke:#000000;stroke-miterlimit:1;" x1="117.833" y1="29.294" x2="110.263" y2="25.673"/>
	<line style="fill:none;stroke:#000000;stroke-miterlimit:1;" x1="110.263" y1="25.673" x2="91.831" y2="15.141"/>
	<line style="fill:none;stroke:#000000;stroke-miterlimit:1;" x1="58.587" y1="9.545" x2="56.613" y2="9.875"/>
	<line style="fill:none;stroke:#000000;stroke-miterlimit:1;" x1="56.613" y1="9.875" x2="54.967" y2="11.849"/>
	<line style="fill:none;stroke:#000000;stroke-miterlimit:1;" x1="54.967" y1="11.849" x2="54.967" y2="14.153"/>
	<line style="fill:none;stroke:#000000;stroke-miterlimit:1;" x1="54.967" y1="14.153" x2="56.613" y2="15.799"/>
	<line style="fill:none;stroke:#000000;stroke-miterlimit:1;" x1="56.613" y1="15.799" x2="58.917" y2="15.799"/>
	<line style="fill:none;stroke:#000000;stroke-miterlimit:1;" x1="58.917" y1="15.799" x2="61.221" y2="14.812"/>
	<line style="fill:none;stroke:#000000;stroke-miterlimit:1;" x1="61.221" y1="14.812" x2="61.55" y2="13.495"/>
	<line style="fill:none;stroke:#000000;stroke-miterlimit:1;" x1="61.55" y1="13.495" x2="60.892" y2="11.52"/>
	<line style="fill:none;stroke:#000000;stroke-miterlimit:1;" x1="60.892" y1="11.52" x2="59.246" y2="9.545"/>
	<line style="fill:none;stroke:#000000;stroke-miterlimit:1;" x1="255.621" y1="81.01" x2="177.943" y2="81.01"/>
	<line style="fill:none;stroke:#000000;stroke-miterlimit:1;" x1="177.943" y1="81.01" x2="178.931" y2="74.428"/>
	<line style="fill:none;stroke:#000000;stroke-miterlimit:1;" x1="178.931" y1="74.428" x2="179.918" y2="70.149"/>
	<line style="fill:none;stroke:#000000;stroke-miterlimit:1;" x1="179.918" y1="70.149" x2="181.563" y2="65.87"/>
	<line style="fill:none;stroke:#000000;stroke-miterlimit:1;" x1="181.563" y1="65.87" x2="183.867" y2="62.579"/>
	<line style="fill:none;stroke:#000000;stroke-miterlimit:1;" x1="183.867" y1="62.579" x2="185.843" y2="59.616"/>
	<line style="fill:none;stroke:#000000;stroke-miterlimit:1;" x1="185.843" y1="59.616" x2="188.476" y2="55.996"/>
	<line style="fill:none;stroke:#000000;stroke-miterlimit:1;" x1="188.476" y1="55.996" x2="191.438" y2="53.362"/>
	<line style="fill:none;stroke:#000000;stroke-miterlimit:1;" x1="191.438" y1="53.362" x2="195.059" y2="50.729"/>
	<line style="fill:none;stroke:#000000;stroke-miterlimit:1;" x1="195.059" y1="50.729" x2="198.021" y2="48.754"/>
	<line style="fill:none;stroke:#000000;stroke-miterlimit:1;" x1="198.021" y1="48.754" x2="202.3" y2="46.78"/>
	<line style="fill:none;stroke:#000000;stroke-miterlimit:1;" x1="202.3" y1="46.78" x2="206.578" y2="45.463"/>
	<line style="fill:none;stroke:#000000;stroke-miterlimit:1;" x1="206.578" y1="45.463" x2="209.541" y2="44.805"/>
	<line style="fill:none;stroke:#000000;stroke-miterlimit:1;" x1="209.541" y1="44.805" x2="214.807" y2="44.146"/>
	<line style="fill:none;stroke:#000000;stroke-miterlimit:1;" x1="214.807" y1="44.146" x2="218.757" y2="44.146"/>
	<line style="fill:none;stroke:#000000;stroke-miterlimit:1;" x1="218.757" y1="44.146" x2="222.377" y2="44.805"/>
	<line style="fill:none;stroke:#000000;stroke-miterlimit:1;" x1="222.377" y1="44.805" x2="226.327" y2="45.463"/>
	<line style="fill:none;stroke:#000000;stroke-miterlimit:1;" x1="226.327" y1="45.463" x2="230.605" y2="46.451"/>
	<line style="fill:none;stroke:#000000;stroke-miterlimit:1;" x1="230.605" y1="46.451" x2="233.568" y2="47.438"/>
	<line style="fill:none;stroke:#000000;stroke-miterlimit:1;" x1="233.568" y1="47.438" x2="237.518" y2="50.071"/>
	<line style="fill:none;stroke:#000000;stroke-miterlimit:1;" x1="237.518" y1="50.071" x2="240.81" y2="52.375"/>
	<line style="fill:none;stroke:#000000;stroke-miterlimit:1;" x1="240.81" y1="52.375" x2="243.771" y2="54.679"/>
	<line style="fill:none;stroke:#000000;stroke-miterlimit:1;" x1="243.771" y1="54.679" x2="246.404" y2="57.97"/>
	<line style="fill:none;stroke:#000000;stroke-miterlimit:1;" x1="246.404" y1="57.97" x2="249.038" y2="61.591"/>
	<line style="fill:none;stroke:#000000;stroke-miterlimit:1;" x1="249.038" y1="61.591" x2="251.342" y2="65.211"/>
	<line style="fill:none;stroke:#000000;stroke-miterlimit:1;" x1="251.342" y1="65.211" x2="252.987" y2="68.503"/>
	<line style="fill:none;stroke:#000000;stroke-miterlimit:1;" x1="252.987" y1="68.503" x2="254.304" y2="73.44"/>
	<line style="fill:none;stroke:#000000;stroke-miterlimit:1;" x1="254.304" y1="73.44" x2="255.292" y2="77.061"/>
	<line style="fill:none;stroke:#000000;stroke-miterlimit:1;" x1="255.292" y1="77.061" x2="255.621" y2="81.01"/>
	<line style="fill:none;stroke:#000000;stroke-miterlimit:1;" x1="78.259" y1="139.707" x2="77.924" y2="139.035"/>
	<line style="fill:none;stroke:#000000;stroke-miterlimit:1;" x1="77.924" y1="139.035" x2="77.253" y2="137.861"/>
	<line style="fill:none;stroke:#000000;stroke-miterlimit:1;" x1="77.253" y1="137.861" x2="76.918" y2="137.191"/>
	<line style="fill:none;stroke:#000000;stroke-miterlimit:1;" x1="76.918" y1="137.191" x2="76.247" y2="136.186"/>
	<line style="fill:none;stroke:#000000;stroke-miterlimit:1;" x1="76.247" y1="136.186" x2="75.744" y2="135.346"/>
	<line style="fill:none;stroke:#000000;stroke-miterlimit:1;" x1="75.744" y1="135.346" x2="74.738" y2="134.34"/>
	<line style="fill:none;stroke:#000000;stroke-miterlimit:1;" x1="74.738" y1="134.34" x2="74.402" y2="133.67"/>
	<line style="fill:none;stroke:#000000;stroke-miterlimit:1;" x1="74.402" y1="133.67" x2="73.396" y2="132.83"/>
	<line style="fill:none;stroke:#000000;stroke-miterlimit:1;" x1="73.396" y1="132.83" x2="72.558" y2="132.16"/>
	<line style="fill:none;stroke:#000000;stroke-miterlimit:1;" x1="72.558" y1="132.16" x2="71.551" y2="131.322"/>
	<line style="fill:none;stroke:#000000;stroke-miterlimit:1;" x1="71.551" y1="131.322" x2="70.88" y2="130.818"/>
	<line style="fill:none;stroke:#000000;stroke-miterlimit:1;" x1="70.88" y1="130.818" x2="69.874" y2="129.98"/>
	<line style="fill:none;stroke:#000000;stroke-miterlimit:1;" x1="69.874" y1="129.98" x2="69.036" y2="129.477"/>
	<line style="fill:none;stroke:#000000;stroke-miterlimit:1;" x1="69.036" y1="129.477" x2="67.862" y2="128.973"/>
	<line style="fill:none;stroke:#000000;stroke-miterlimit:1;" x1="67.862" y1="128.973" x2="67.191" y2="128.471"/>
	<line style="fill:none;stroke:#000000;stroke-miterlimit:1;" x1="67.191" y1="128.471" x2="66.017" y2="128.135"/>
	<line style="fill:none;stroke:#000000;stroke-miterlimit:1;" x1="66.017" y1="128.135" x2="65.011" y2="127.799"/>
	<line style="fill:none;stroke:#000000;stroke-miterlimit:1;" x1="65.011" y1="127.799" x2="63.669" y2="127.465"/>
	<line style="fill:none;stroke:#000000;stroke-miterlimit:1;" x1="63.669" y1="127.465" x2="62.999" y2="127.129"/>
	<line style="fill:none;stroke:#000000;stroke-miterlimit:1;" x1="62.999" y1="127.129" x2="61.657" y2="126.961"/>
	<line style="fill:none;stroke:#000000;stroke-miterlimit:1;" x1="61.657" y1="126.961" x2="60.65" y2="126.793"/>
	<line style="fill:none;stroke:#000000;stroke-miterlimit:1;" x1="60.65" y1="126.793" x2="59.477" y2="126.793"/>
	<line style="fill:none;stroke:#000000;stroke-miterlimit:1;" x1="59.477" y1="126.793" x2="58.47" y2="126.793"/>
	<line style="fill:none;stroke:#000000;stroke-miterlimit:1;" x1="58.47" y1="126.793" x2="57.464" y2="126.961"/>
	<line style="fill:none;stroke:#000000;stroke-miterlimit:1;" x1="57.464" y1="126.961" x2="56.625" y2="127.129"/>
	<line style="fill:none;stroke:#000000;stroke-miterlimit:1;" x1="56.625" y1="127.129" x2="55.619" y2="127.297"/>
	<line style="fill:none;stroke:#000000;stroke-miterlimit:1;" x1="55.619" y1="127.297" x2="54.781" y2="127.465"/>
	<line style="fill:none;stroke:#000000;stroke-miterlimit:1;" x1="54.781" y1="127.465" x2="53.774" y2="127.633"/>
	<line style="fill:none;stroke:#000000;stroke-miterlimit:1;" x1="53.774" y1="127.633" x2="52.936" y2="127.967"/>
	<line style="fill:none;stroke:#000000;stroke-miterlimit:1;" x1="52.936" y1="127.967" x2="51.427" y2="128.303"/>
	<line style="fill:none;stroke:#000000;stroke-miterlimit:1;" x1="51.427" y1="128.303" x2="50.588" y2="128.807"/>
	<line style="fill:none;stroke:#000000;stroke-miterlimit:1;" x1="50.588" y1="128.807" x2="49.415" y2="129.141"/>
	<line style="fill:none;stroke:#000000;stroke-miterlimit:1;" x1="49.415" y1="129.141" x2="48.576" y2="129.645"/>
	<line style="fill:none;stroke:#000000;stroke-miterlimit:1;" x1="48.576" y1="129.645" x2="47.569" y2="130.314"/>
	<line style="fill:none;stroke:#000000;stroke-miterlimit:1;" x1="47.569" y1="130.314" x2="46.731" y2="130.986"/>
	<line style="fill:none;stroke:#000000;stroke-miterlimit:1;" x1="46.731" y1="130.986" x2="45.893" y2="131.488"/>
	<line style="fill:none;stroke:#000000;stroke-miterlimit:1;" x1="45.893" y1="131.488" x2="45.054" y2="132.16"/>
	<line style="fill:none;stroke:#000000;stroke-miterlimit:1;" x1="45.054" y1="132.16" x2="44.048" y2="133.166"/>
	<line style="fill:none;stroke:#000000;stroke-miterlimit:1;" x1="44.048" y1="133.166" x2="43.209" y2="133.838"/>
	<line style="fill:none;stroke:#000000;stroke-miterlimit:1;" x1="43.209" y1="133.838" x2="42.706" y2="134.676"/>
	<line style="fill:none;stroke:#000000;stroke-miterlimit:1;" x1="42.706" y1="134.676" x2="42.203" y2="135.346"/>
	<line style="fill:none;stroke:#000000;stroke-miterlimit:1;" x1="42.203" y1="135.346" x2="41.365" y2="136.52"/>
	<line style="fill:none;stroke:#000000;stroke-miterlimit:1;" x1="41.365" y1="136.52" x2="41.029" y2="137.191"/>
	<line style="fill:none;stroke:#000000;stroke-miterlimit:1;" x1="41.029" y1="137.191" x2="40.19" y2="138.197"/>
	<line style="fill:none;stroke:#000000;stroke-miterlimit:1;" x1="40.19" y1="138.197" x2="39.688" y2="139.203"/>
	<line style="fill:none;stroke:#000000;stroke-miterlimit:1;" x1="39.688" y1="139.203" x2="39.352" y2="140.209"/>
	<line style="fill:none;stroke:#000000;stroke-miterlimit:1;" x1="39.352" y1="140.209" x2="39.185" y2="141.049"/>
	<line style="fill:none;stroke:#000000;stroke-miterlimit:1;" x1="39.185" y1="141.049" x2="38.681" y2="142.223"/>
	<line style="fill:none;stroke:#000000;stroke-miterlimit:1;" x1="38.681" y1="142.223" x2="38.346" y2="143.229"/>
	<line style="fill:none;stroke:#000000;stroke-miterlimit:1;" x1="38.346" y1="143.229" x2="38.178" y2="144.57"/>
	<line style="fill:none;stroke:#000000;stroke-miterlimit:1;" x1="38.178" y1="144.57" x2="38.178" y2="145.576"/>
	<line style="fill:none;stroke:#000000;stroke-miterlimit:1;" x1="38.178" y1="145.576" x2="38.01" y2="147.254"/>
	<line style="fill:none;stroke:#000000;stroke-miterlimit:1;" x1="38.01" y1="147.254" x2="38.01" y2="148.26"/>
	<line style="fill:none;stroke:#000000;stroke-miterlimit:1;" x1="38.01" y1="148.26" x2="38.01" y2="149.936"/>
	<line style="fill:none;stroke:#000000;stroke-miterlimit:1;" x1="38.01" y1="149.936" x2="38.178" y2="150.943"/>
	<line style="fill:none;stroke:#000000;stroke-miterlimit:1;" x1="38.178" y1="150.943" x2="38.514" y2="152.117"/>
	<line style="fill:none;stroke:#000000;stroke-miterlimit:1;" x1="38.514" y1="152.117" x2="38.681" y2="153.123"/>
	<line style="fill:none;stroke:#000000;stroke-miterlimit:1;" x1="38.681" y1="153.123" x2="39.017" y2="154.297"/>
	<line style="fill:none;stroke:#000000;stroke-miterlimit:1;" x1="39.017" y1="154.297" x2="39.352" y2="155.135"/>
	<line style="fill:none;stroke:#000000;stroke-miterlimit:1;" x1="39.352" y1="155.135" x2="40.023" y2="156.477"/>
	<line style="fill:none;stroke:#000000;stroke-miterlimit:1;" x1="40.023" y1="156.477" x2="40.358" y2="157.482"/>
	<line style="fill:none;stroke:#000000;stroke-miterlimit:1;" x1="40.358" y1="157.482" x2="41.197" y2="158.49"/>
	<line style="fill:none;stroke:#000000;stroke-miterlimit:1;" x1="41.197" y1="158.49" x2="41.532" y2="159.16"/>
	<line style="fill:none;stroke:#000000;stroke-miterlimit:1;" x1="41.532" y1="159.16" x2="42.203" y2="160.166"/>
	<line style="fill:none;stroke:#000000;stroke-miterlimit:1;" x1="42.203" y1="160.166" x2="42.874" y2="160.838"/>
	<line style="fill:none;stroke:#000000;stroke-miterlimit:1;" x1="42.874" y1="160.838" x2="43.712" y2="161.844"/>
	<line style="fill:none;stroke:#000000;stroke-miterlimit:1;" x1="43.712" y1="161.844" x2="44.383" y2="162.514"/>
	<line style="fill:none;stroke:#000000;stroke-miterlimit:1;" x1="44.383" y1="162.514" x2="45.222" y2="163.354"/>
	<line style="fill:none;stroke:#000000;stroke-miterlimit:1;" x1="45.222" y1="163.354" x2="46.228" y2="164.023"/>
	<line style="fill:none;stroke:#000000;stroke-miterlimit:1;" x1="46.228" y1="164.023" x2="47.402" y2="164.861"/>
	<line style="fill:none;stroke:#000000;stroke-miterlimit:1;" x1="47.402" y1="164.861" x2="47.905" y2="165.197"/>
	<line style="fill:none;stroke:#000000;stroke-miterlimit:1;" x1="47.905" y1="165.197" x2="48.744" y2="165.869"/>
	<line style="fill:none;stroke:#000000;stroke-miterlimit:1;" x1="48.744" y1="165.869" x2="49.75" y2="166.203"/>
	<line style="fill:none;stroke:#000000;stroke-miterlimit:1;" x1="49.75" y1="166.203" x2="51.091" y2="166.707"/>
	<line style="fill:none;stroke:#000000;stroke-miterlimit:1;" x1="51.091" y1="166.707" x2="52.098" y2="167.043"/>
	<line style="fill:none;stroke:#000000;stroke-miterlimit:1;" x1="52.098" y1="167.043" x2="53.271" y2="167.545"/>
	<line style="fill:none;stroke:#000000;stroke-miterlimit:1;" x1="53.271" y1="167.545" x2="53.942" y2="167.713"/>
	<line style="fill:none;stroke:#000000;stroke-miterlimit:1;" x1="53.942" y1="167.713" x2="55.116" y2="168.049"/>
	<line style="fill:none;stroke:#000000;stroke-miterlimit:1;" x1="55.116" y1="168.049" x2="56.123" y2="168.049"/>
	<line style="fill:none;stroke:#000000;stroke-miterlimit:1;" x1="56.123" y1="168.049" x2="57.464" y2="168.217"/>
	<line style="fill:none;stroke:#000000;stroke-miterlimit:1;" x1="57.464" y1="168.217" x2="58.135" y2="168.217"/>
	<line style="fill:none;stroke:#000000;stroke-miterlimit:1;" x1="58.135" y1="168.217" x2="59.644" y2="168.385"/>
	<line style="fill:none;stroke:#000000;stroke-miterlimit:1;" x1="59.644" y1="168.385" x2="60.65" y2="168.217"/>
	<line style="fill:none;stroke:#000000;stroke-miterlimit:1;" x1="60.65" y1="168.217" x2="62.16" y2="168.049"/>
	<line style="fill:none;stroke:#000000;stroke-miterlimit:1;" x1="62.16" y1="168.049" x2="62.831" y2="167.881"/>
	<line style="fill:none;stroke:#000000;stroke-miterlimit:1;" x1="62.831" y1="167.881" x2="64.34" y2="167.713"/>
	<line style="fill:none;stroke:#000000;stroke-miterlimit:1;" x1="64.34" y1="167.713" x2="65.179" y2="167.377"/>
	<line style="fill:none;stroke:#000000;stroke-miterlimit:1;" x1="65.179" y1="167.377" x2="66.52" y2="167.043"/>
	<line style="fill:none;stroke:#000000;stroke-miterlimit:1;" x1="66.52" y1="167.043" x2="67.358" y2="166.707"/>
	<line style="fill:none;stroke:#000000;stroke-miterlimit:1;" x1="67.358" y1="166.707" x2="68.197" y2="166.035"/>
	<line style="fill:none;stroke:#000000;stroke-miterlimit:1;" x1="68.197" y1="166.035" x2="69.203" y2="165.701"/>
	<line style="fill:none;stroke:#000000;stroke-miterlimit:1;" x1="69.203" y1="165.701" x2="70.209" y2="165.029"/>
	<line style="fill:none;stroke:#000000;stroke-miterlimit:1;" x1="70.209" y1="165.029" x2="71.048" y2="164.359"/>
	<line style="fill:none;stroke:#000000;stroke-miterlimit:1;" x1="71.048" y1="164.359" x2="71.887" y2="163.855"/>
	<line style="fill:none;stroke:#000000;stroke-miterlimit:1;" x1="71.887" y1="163.855" x2="72.725" y2="163.186"/>
	<line style="fill:none;stroke:#000000;stroke-miterlimit:1;" x1="72.725" y1="163.186" x2="73.563" y2="162.346"/>
	<line style="fill:none;stroke:#000000;stroke-miterlimit:1;" x1="73.563" y1="162.346" x2="74.234" y2="161.508"/>
	<line style="fill:none;stroke:#000000;stroke-miterlimit:1;" x1="74.234" y1="161.508" x2="75.073" y2="160.838"/>
	<line style="fill:none;stroke:#000000;stroke-miterlimit:1;" x1="75.073" y1="160.838" x2="75.576" y2="159.998"/>
	<line style="fill:none;stroke:#000000;stroke-miterlimit:1;" x1="75.576" y1="159.998" x2="76.415" y2="158.656"/>
	<line style="fill:none;stroke:#000000;stroke-miterlimit:1;" x1="76.415" y1="158.656" x2="76.918" y2="158.154"/>
	<line style="fill:none;stroke:#000000;stroke-miterlimit:1;" x1="76.918" y1="158.154" x2="77.588" y2="156.98"/>
	<line style="fill:none;stroke:#000000;stroke-miterlimit:1;" x1="77.588" y1="156.98" x2="77.924" y2="156.141"/>
	<line style="fill:none;stroke:#000000;stroke-miterlimit:1;" x1="77.924" y1="156.141" x2="78.427" y2="155.135"/>
	<line style="fill:none;stroke:#000000;stroke-miterlimit:1;" x1="78.427" y1="155.135" x2="78.763" y2="154.129"/>
	<line style="fill:none;stroke:#000000;stroke-miterlimit:1;" x1="78.763" y1="154.129" x2="79.098" y2="152.955"/>
	<line style="fill:none;stroke:#000000;stroke-miterlimit:1;" x1="79.098" y1="152.955" x2="79.433" y2="151.949"/>
	<line style="fill:none;stroke:#000000;stroke-miterlimit:1;" x1="79.433" y1="151.949" x2="79.601" y2="150.607"/>
	<line style="fill:none;stroke:#000000;stroke-miterlimit:1;" x1="79.601" y1="150.607" x2="79.769" y2="149.77"/>
	<line style="fill:none;stroke:#000000;stroke-miterlimit:1;" x1="79.769" y1="149.77" x2="79.937" y2="148.596"/>
	<line style="fill:none;stroke:#000000;stroke-miterlimit:1;" x1="79.937" y1="148.596" x2="79.937" y2="147.422"/>
	<line style="fill:none;stroke:#000000;stroke-miterlimit:1;" x1="79.937" y1="147.422" x2="79.937" y2="146.246"/>
	<line style="fill:none;stroke:#000000;stroke-miterlimit:1;" x1="79.937" y1="146.246" x2="79.769" y2="145.072"/>
	<line style="fill:none;stroke:#000000;stroke-miterlimit:1;" x1="79.769" y1="145.072" x2="79.601" y2="144.066"/>
	<line style="fill:none;stroke:#000000;stroke-miterlimit:1;" x1="79.601" y1="144.066" x2="79.266" y2="142.893"/>
	<line style="fill:none;stroke:#000000;stroke-miterlimit:1;" x1="79.266" y1="142.893" x2="78.93" y2="141.887"/>
	<line style="fill:none;stroke:#000000;stroke-miterlimit:1;" x1="78.93" y1="141.887" x2="78.595" y2="140.881"/>
	<line style="fill:none;stroke:#000000;stroke-miterlimit:1;" x1="78.595" y1="140.881" x2="78.259" y2="139.875"/>
	<line style="fill:none;stroke:#000000;stroke-miterlimit:1;" x1="237.265" y1="139.916" x2="236.93" y2="139.246"/>
	<line style="fill:none;stroke:#000000;stroke-miterlimit:1;" x1="236.93" y1="139.246" x2="236.259" y2="138.072"/>
	<line style="fill:none;stroke:#000000;stroke-miterlimit:1;" x1="236.259" y1="138.072" x2="235.924" y2="137.4"/>
	<line style="fill:none;stroke:#000000;stroke-miterlimit:1;" x1="235.924" y1="137.4" x2="235.253" y2="136.395"/>
	<line style="fill:none;stroke:#000000;stroke-miterlimit:1;" x1="235.253" y1="136.395" x2="234.749" y2="135.557"/>
	<line style="fill:none;stroke:#000000;stroke-miterlimit:1;" x1="234.749" y1="135.557" x2="233.743" y2="134.549"/>
	<line style="fill:none;stroke:#000000;stroke-miterlimit:1;" x1="233.743" y1="134.549" x2="233.408" y2="133.879"/>
	<line style="fill:none;stroke:#000000;stroke-miterlimit:1;" x1="233.408" y1="133.879" x2="232.401" y2="133.041"/>
	<line style="fill:none;stroke:#000000;stroke-miterlimit:1;" x1="232.401" y1="133.041" x2="231.563" y2="132.369"/>
	<line style="fill:none;stroke:#000000;stroke-miterlimit:1;" x1="231.563" y1="132.369" x2="230.557" y2="131.531"/>
	<line style="fill:none;stroke:#000000;stroke-miterlimit:1;" x1="230.557" y1="131.531" x2="229.886" y2="131.027"/>
	<line style="fill:none;stroke:#000000;stroke-miterlimit:1;" x1="229.886" y1="131.027" x2="228.88" y2="130.189"/>
	<line style="fill:none;stroke:#000000;stroke-miterlimit:1;" x1="228.88" y1="130.189" x2="228.041" y2="129.686"/>
	<line style="fill:none;stroke:#000000;stroke-miterlimit:1;" x1="228.041" y1="129.686" x2="226.867" y2="129.184"/>
	<line style="fill:none;stroke:#000000;stroke-miterlimit:1;" x1="226.867" y1="129.184" x2="226.196" y2="128.68"/>
	<line style="fill:none;stroke:#000000;stroke-miterlimit:1;" x1="226.196" y1="128.68" x2="225.022" y2="128.344"/>
	<line style="fill:none;stroke:#000000;stroke-miterlimit:1;" x1="225.022" y1="128.344" x2="224.017" y2="128.01"/>
	<line style="fill:none;stroke:#000000;stroke-miterlimit:1;" x1="224.017" y1="128.01" x2="222.675" y2="127.674"/>
	<line style="fill:none;stroke:#000000;stroke-miterlimit:1;" x1="222.675" y1="127.674" x2="222.004" y2="127.338"/>
	<line style="fill:none;stroke:#000000;stroke-miterlimit:1;" x1="222.004" y1="127.338" x2="220.662" y2="127.17"/>
	<line style="fill:none;stroke:#000000;stroke-miterlimit:1;" x1="220.662" y1="127.17" x2="219.656" y2="127.004"/>
	<line style="fill:none;stroke:#000000;stroke-miterlimit:1;" x1="219.656" y1="127.004" x2="218.482" y2="127.004"/>
	<line style="fill:none;stroke:#000000;stroke-miterlimit:1;" x1="218.482" y1="127.004" x2="217.476" y2="127.004"/>
	<line style="fill:none;stroke:#000000;stroke-miterlimit:1;" x1="217.476" y1="127.004" x2="216.47" y2="127.17"/>
	<line style="fill:none;stroke:#000000;stroke-miterlimit:1;" x1="216.47" y1="127.17" x2="215.631" y2="127.338"/>
	<line style="fill:none;stroke:#000000;stroke-miterlimit:1;" x1="215.631" y1="127.338" x2="214.625" y2="127.506"/>
	<line style="fill:none;stroke:#000000;stroke-miterlimit:1;" x1="214.625" y1="127.506" x2="213.786" y2="127.674"/>
	<line style="fill:none;stroke:#000000;stroke-miterlimit:1;" x1="213.786" y1="127.674" x2="212.78" y2="127.842"/>
	<line style="fill:none;stroke:#000000;stroke-miterlimit:1;" x1="212.78" y1="127.842" x2="211.941" y2="128.178"/>
	<line style="fill:none;stroke:#000000;stroke-miterlimit:1;" x1="211.941" y1="128.178" x2="210.433" y2="128.512"/>
	<line style="fill:none;stroke:#000000;stroke-miterlimit:1;" x1="210.433" y1="128.512" x2="209.594" y2="129.016"/>
	<line style="fill:none;stroke:#000000;stroke-miterlimit:1;" x1="209.594" y1="129.016" x2="208.42" y2="129.352"/>
	<line style="fill:none;stroke:#000000;stroke-miterlimit:1;" x1="208.42" y1="129.352" x2="207.581" y2="129.854"/>
	<line style="fill:none;stroke:#000000;stroke-miterlimit:1;" x1="207.581" y1="129.854" x2="206.575" y2="130.525"/>
	<line style="fill:none;stroke:#000000;stroke-miterlimit:1;" x1="206.575" y1="130.525" x2="205.736" y2="131.195"/>
	<line style="fill:none;stroke:#000000;stroke-miterlimit:1;" x1="205.736" y1="131.195" x2="204.898" y2="131.699"/>
	<line style="fill:none;stroke:#000000;stroke-miterlimit:1;" x1="204.898" y1="131.699" x2="204.06" y2="132.369"/>
	<line style="fill:none;stroke:#000000;stroke-miterlimit:1;" x1="204.06" y1="132.369" x2="203.054" y2="133.375"/>
	<line style="fill:none;stroke:#000000;stroke-miterlimit:1;" x1="203.054" y1="133.375" x2="202.215" y2="134.047"/>
	<line style="fill:none;stroke:#000000;stroke-miterlimit:1;" x1="202.215" y1="134.047" x2="201.712" y2="134.885"/>
	<line style="fill:none;stroke:#000000;stroke-miterlimit:1;" x1="201.712" y1="134.885" x2="201.209" y2="135.557"/>
	<line style="fill:none;stroke:#000000;stroke-miterlimit:1;" x1="201.209" y1="135.557" x2="200.37" y2="136.73"/>
	<line style="fill:none;stroke:#000000;stroke-miterlimit:1;" x1="200.37" y1="136.73" x2="200.035" y2="137.4"/>
	<line style="fill:none;stroke:#000000;stroke-miterlimit:1;" x1="200.035" y1="137.4" x2="199.196" y2="138.406"/>
	<line style="fill:none;stroke:#000000;stroke-miterlimit:1;" x1="199.196" y1="138.406" x2="198.693" y2="139.414"/>
	<line style="fill:none;stroke:#000000;stroke-miterlimit:1;" x1="198.693" y1="139.414" x2="198.357" y2="140.42"/>
	<line style="fill:none;stroke:#000000;stroke-miterlimit:1;" x1="198.357" y1="140.42" x2="198.19" y2="141.258"/>
	<line style="fill:none;stroke:#000000;stroke-miterlimit:1;" x1="198.19" y1="141.258" x2="197.687" y2="142.432"/>
	<line style="fill:none;stroke:#000000;stroke-miterlimit:1;" x1="197.687" y1="142.432" x2="197.352" y2="143.438"/>
	<line style="fill:none;stroke:#000000;stroke-miterlimit:1;" x1="197.352" y1="143.438" x2="197.184" y2="144.779"/>
	<line style="fill:none;stroke:#000000;stroke-miterlimit:1;" x1="197.184" y1="144.779" x2="197.184" y2="145.785"/>
	<line style="fill:none;stroke:#000000;stroke-miterlimit:1;" x1="197.184" y1="145.785" x2="197.017" y2="147.463"/>
	<line style="fill:none;stroke:#000000;stroke-miterlimit:1;" x1="197.017" y1="147.463" x2="197.017" y2="148.469"/>
	<line style="fill:none;stroke:#000000;stroke-miterlimit:1;" x1="197.017" y1="148.469" x2="197.017" y2="150.146"/>
	<line style="fill:none;stroke:#000000;stroke-miterlimit:1;" x1="197.017" y1="150.146" x2="197.184" y2="151.152"/>
	<line style="fill:none;stroke:#000000;stroke-miterlimit:1;" x1="197.184" y1="151.152" x2="197.52" y2="152.326"/>
	<line style="fill:none;stroke:#000000;stroke-miterlimit:1;" x1="197.52" y1="152.326" x2="197.687" y2="153.332"/>
	<line style="fill:none;stroke:#000000;stroke-miterlimit:1;" x1="197.687" y1="153.332" x2="198.022" y2="154.506"/>
	<line style="fill:none;stroke:#000000;stroke-miterlimit:1;" x1="198.022" y1="154.506" x2="198.357" y2="155.346"/>
	<line style="fill:none;stroke:#000000;stroke-miterlimit:1;" x1="198.357" y1="155.346" x2="199.028" y2="156.688"/>
	<line style="fill:none;stroke:#000000;stroke-miterlimit:1;" x1="199.028" y1="156.688" x2="199.364" y2="157.693"/>
	<line style="fill:none;stroke:#000000;stroke-miterlimit:1;" x1="199.364" y1="157.693" x2="200.202" y2="158.699"/>
	<line style="fill:none;stroke:#000000;stroke-miterlimit:1;" x1="200.202" y1="158.699" x2="200.538" y2="159.369"/>
	<line style="fill:none;stroke:#000000;stroke-miterlimit:1;" x1="200.538" y1="159.369" x2="201.209" y2="160.377"/>
	<line style="fill:none;stroke:#000000;stroke-miterlimit:1;" x1="201.209" y1="160.377" x2="201.88" y2="161.047"/>
	<line style="fill:none;stroke:#000000;stroke-miterlimit:1;" x1="201.88" y1="161.047" x2="202.718" y2="162.053"/>
	<line style="fill:none;stroke:#000000;stroke-miterlimit:1;" x1="202.718" y1="162.053" x2="203.389" y2="162.725"/>
	<line style="fill:none;stroke:#000000;stroke-miterlimit:1;" x1="203.389" y1="162.725" x2="204.228" y2="163.562"/>
	<line style="fill:none;stroke:#000000;stroke-miterlimit:1;" x1="204.228" y1="163.562" x2="205.233" y2="164.232"/>
	<line style="fill:none;stroke:#000000;stroke-miterlimit:1;" x1="205.233" y1="164.232" x2="206.407" y2="165.072"/>
	<line style="fill:none;stroke:#000000;stroke-miterlimit:1;" x1="206.407" y1="165.072" x2="206.911" y2="165.406"/>
	<line style="fill:none;stroke:#000000;stroke-miterlimit:1;" x1="206.911" y1="165.406" x2="207.749" y2="166.078"/>
	<line style="fill:none;stroke:#000000;stroke-miterlimit:1;" x1="207.749" y1="166.078" x2="208.756" y2="166.414"/>
	<line style="fill:none;stroke:#000000;stroke-miterlimit:1;" x1="208.756" y1="166.414" x2="210.097" y2="166.916"/>
	<line style="fill:none;stroke:#000000;stroke-miterlimit:1;" x1="210.097" y1="166.916" x2="211.104" y2="167.252"/>
	<line style="fill:none;stroke:#000000;stroke-miterlimit:1;" x1="211.104" y1="167.252" x2="212.277" y2="167.756"/>
	<line style="fill:none;stroke:#000000;stroke-miterlimit:1;" x1="212.277" y1="167.756" x2="212.948" y2="167.922"/>
	<line style="fill:none;stroke:#000000;stroke-miterlimit:1;" x1="212.948" y1="167.922" x2="214.122" y2="168.258"/>
	<line style="fill:none;stroke:#000000;stroke-miterlimit:1;" x1="214.122" y1="168.258" x2="215.128" y2="168.258"/>
	<line style="fill:none;stroke:#000000;stroke-miterlimit:1;" x1="215.128" y1="168.258" x2="216.47" y2="168.426"/>
	<line style="fill:none;stroke:#000000;stroke-miterlimit:1;" x1="216.47" y1="168.426" x2="217.141" y2="168.426"/>
	<line style="fill:none;stroke:#000000;stroke-miterlimit:1;" x1="217.141" y1="168.426" x2="218.649" y2="168.594"/>
	<line style="fill:none;stroke:#000000;stroke-miterlimit:1;" x1="218.649" y1="168.594" x2="219.656" y2="168.426"/>
	<line style="fill:none;stroke:#000000;stroke-miterlimit:1;" x1="219.656" y1="168.426" x2="221.165" y2="168.258"/>
	<line style="fill:none;stroke:#000000;stroke-miterlimit:1;" x1="221.165" y1="168.258" x2="221.836" y2="168.09"/>
	<line style="fill:none;stroke:#000000;stroke-miterlimit:1;" x1="221.836" y1="168.09" x2="223.346" y2="167.922"/>
	<line style="fill:none;stroke:#000000;stroke-miterlimit:1;" x1="223.346" y1="167.922" x2="224.185" y2="167.588"/>
	<line style="fill:none;stroke:#000000;stroke-miterlimit:1;" x1="224.185" y1="167.588" x2="225.525" y2="167.252"/>
	<line style="fill:none;stroke:#000000;stroke-miterlimit:1;" x1="225.525" y1="167.252" x2="226.364" y2="166.916"/>
	<line style="fill:none;stroke:#000000;stroke-miterlimit:1;" x1="226.364" y1="166.916" x2="227.203" y2="166.246"/>
	<line style="fill:none;stroke:#000000;stroke-miterlimit:1;" x1="227.203" y1="166.246" x2="228.209" y2="165.91"/>
	<line style="fill:none;stroke:#000000;stroke-miterlimit:1;" x1="228.209" y1="165.91" x2="229.215" y2="165.24"/>
	<line style="fill:none;stroke:#000000;stroke-miterlimit:1;" x1="229.215" y1="165.24" x2="230.054" y2="164.568"/>
	<line style="fill:none;stroke:#000000;stroke-miterlimit:1;" x1="230.054" y1="164.568" x2="230.893" y2="164.066"/>
	<line style="fill:none;stroke:#000000;stroke-miterlimit:1;" x1="230.893" y1="164.066" x2="231.73" y2="163.395"/>
	<line style="fill:none;stroke:#000000;stroke-miterlimit:1;" x1="231.73" y1="163.395" x2="232.569" y2="162.557"/>
	<line style="fill:none;stroke:#000000;stroke-miterlimit:1;" x1="232.569" y1="162.557" x2="233.24" y2="161.717"/>
	<line style="fill:none;stroke:#000000;stroke-miterlimit:1;" x1="233.24" y1="161.717" x2="234.079" y2="161.047"/>
	<line style="fill:none;stroke:#000000;stroke-miterlimit:1;" x1="234.079" y1="161.047" x2="234.582" y2="160.209"/>
	<line style="fill:none;stroke:#000000;stroke-miterlimit:1;" x1="234.582" y1="160.209" x2="235.42" y2="158.867"/>
	<line style="fill:none;stroke:#000000;stroke-miterlimit:1;" x1="235.42" y1="158.867" x2="235.924" y2="158.363"/>
	<line style="fill:none;stroke:#000000;stroke-miterlimit:1;" x1="235.924" y1="158.363" x2="236.595" y2="157.189"/>
	<line style="fill:none;stroke:#000000;stroke-miterlimit:1;" x1="236.595" y1="157.189" x2="236.93" y2="156.352"/>
	<line style="fill:none;stroke:#000000;stroke-miterlimit:1;" x1="236.93" y1="156.352" x2="237.433" y2="155.346"/>
	<line style="fill:none;stroke:#000000;stroke-miterlimit:1;" x1="237.433" y1="155.346" x2="237.769" y2="154.338"/>
	<line style="fill:none;stroke:#000000;stroke-miterlimit:1;" x1="237.769" y1="154.338" x2="238.104" y2="153.164"/>
	<line style="fill:none;stroke:#000000;stroke-miterlimit:1;" x1="238.104" y1="153.164" x2="238.438" y2="152.158"/>
	<line style="fill:none;stroke:#000000;stroke-miterlimit:1;" x1="238.438" y1="152.158" x2="238.606" y2="150.816"/>
	<line style="fill:none;stroke:#000000;stroke-miterlimit:1;" x1="238.606" y1="150.816" x2="238.774" y2="149.979"/>
	<line style="fill:none;stroke:#000000;stroke-miterlimit:1;" x1="238.774" y1="149.979" x2="238.942" y2="148.805"/>
	<line style="fill:none;stroke:#000000;stroke-miterlimit:1;" x1="238.942" y1="148.805" x2="238.942" y2="147.631"/>
	<line style="fill:none;stroke:#000000;stroke-miterlimit:1;" x1="238.942" y1="147.631" x2="238.942" y2="146.457"/>
	<line style="fill:none;stroke:#000000;stroke-miterlimit:1;" x1="238.942" y1="146.457" x2="238.774" y2="145.283"/>
	<line style="fill:none;stroke:#000000;stroke-miterlimit:1;" x1="238.774" y1="145.283" x2="238.606" y2="144.277"/>
	<line style="fill:none;stroke:#000000;stroke-miterlimit:1;" x1="238.606" y1="144.277" x2="238.271" y2="143.104"/>
	<line style="fill:none;stroke:#000000;stroke-miterlimit:1;" x1="238.271" y1="143.104" x2="237.936" y2="142.096"/>
	<line style="fill:none;stroke:#000000;stroke-miterlimit:1;" x1="237.936" y1="142.096" x2="237.601" y2="141.09"/>
	<line style="fill:none;stroke:#000000;stroke-miterlimit:1;" x1="237.601" y1="141.09" x2="237.265" y2="140.084"/>
</g>
</svg>
