<?xml version="1.0" encoding="iso-8859-1"?>
<!-- Generator: Adobe Illustrator 16.0.1, SVG Export Plug-In . SVG Version: 6.00 Build 0)  -->
<!DOCTYPE svg PUBLIC "-//W3C//DTD SVG 1.1//EN" "http://www.w3.org/Graphics/SVG/1.1/DTD/svg11.dtd">
<svg version="1.1" id="Ebene_1" xmlns="http://www.w3.org/2000/svg" xmlns:xlink="http://www.w3.org/1999/xlink" x="0px" y="0px"
	 width="397.687px" height="148.115px" viewBox="0 0 397.687 148.115" style="enable-background:new 0 0 397.687 148.115;"
	 xml:space="preserve">
<g>
	<line style="fill:none;stroke:#000000;stroke-miterlimit:1;" x1="395.835" y1="34.972" x2="385.632" y2="32.997"/>
	<line style="fill:none;stroke:#000000;stroke-miterlimit:1;" x1="385.632" y1="32.997" x2="378.391" y2="31.68"/>
	<line style="fill:none;stroke:#000000;stroke-miterlimit:1;" x1="378.391" y1="31.68" x2="373.124" y2="29.705"/>
	<line style="fill:none;stroke:#000000;stroke-miterlimit:1;" x1="373.124" y1="29.705" x2="366.542" y2="27.072"/>
	<line style="fill:none;stroke:#000000;stroke-miterlimit:1;" x1="366.542" y1="27.072" x2="359.63" y2="23.781"/>
	<line style="fill:none;stroke:#000000;stroke-miterlimit:1;" x1="359.63" y1="23.781" x2="346.793" y2="16.54"/>
	<line style="fill:none;stroke:#000000;stroke-miterlimit:1;" x1="346.793" y1="16.54" x2="333.627" y2="9.298"/>
	<line style="fill:none;stroke:#000000;stroke-miterlimit:1;" x1="333.627" y1="9.298" x2="327.044" y2="6.994"/>
	<line style="fill:none;stroke:#000000;stroke-miterlimit:1;" x1="327.044" y1="6.994" x2="319.145" y2="4.032"/>
	<line style="fill:none;stroke:#000000;stroke-miterlimit:1;" x1="319.145" y1="4.032" x2="311.245" y2="2.715"/>
	<line style="fill:none;stroke:#000000;stroke-miterlimit:1;" x1="311.245" y1="2.715" x2="305.321" y2="1.399"/>
	<line style="fill:none;stroke:#000000;stroke-miterlimit:1;" x1="305.321" y1="1.399" x2="298.08" y2="1.399"/>
	<line style="fill:none;stroke:#000000;stroke-miterlimit:1;" x1="298.08" y1="1.399" x2="290.839" y2="2.386"/>
	<line style="fill:none;stroke:#000000;stroke-miterlimit:1;" x1="290.839" y1="2.386" x2="283.598" y2="4.69"/>
	<line style="fill:none;stroke:#000000;stroke-miterlimit:1;" x1="283.598" y1="4.69" x2="276.356" y2="8.311"/>
	<line style="fill:none;stroke:#000000;stroke-miterlimit:1;" x1="276.356" y1="8.311" x2="268.457" y2="14.235"/>
	<line style="fill:none;stroke:#000000;stroke-miterlimit:1;" x1="268.457" y1="14.235" x2="263.19" y2="19.172"/>
	<line style="fill:none;stroke:#000000;stroke-miterlimit:1;" x1="263.19" y1="19.172" x2="257.925" y2="22.464"/>
	<line style="fill:none;stroke:#000000;stroke-miterlimit:1;" x1="257.925" y1="22.464" x2="253.646" y2="25.426"/>
	<line style="fill:none;stroke:#000000;stroke-miterlimit:1;" x1="253.646" y1="25.426" x2="250.025" y2="26.414"/>
	<line style="fill:none;stroke:#000000;stroke-miterlimit:1;" x1="250.025" y1="26.414" x2="246.075" y2="28.06"/>
	<line style="fill:none;stroke:#000000;stroke-miterlimit:1;" x1="246.075" y1="28.06" x2="242.126" y2="29.376"/>
	<line style="fill:none;stroke:#000000;stroke-miterlimit:1;" x1="242.126" y1="29.376" x2="235.543" y2="30.363"/>
	<line style="fill:none;stroke:#000000;stroke-miterlimit:1;" x1="242.455" y1="29.047" x2="248.05" y2="29.047"/>
	<line style="fill:none;stroke:#000000;stroke-miterlimit:1;" x1="248.05" y1="29.047" x2="252.987" y2="28.718"/>
	<line style="fill:none;stroke:#000000;stroke-miterlimit:1;" x1="252.987" y1="28.718" x2="257.925" y2="29.705"/>
	<line style="fill:none;stroke:#000000;stroke-miterlimit:1;" x1="257.925" y1="29.705" x2="266.482" y2="31.68"/>
	<line style="fill:none;stroke:#000000;stroke-miterlimit:1;" x1="266.482" y1="31.68" x2="273.065" y2="34.313"/>
	<line style="fill:none;stroke:#000000;stroke-miterlimit:1;" x1="273.065" y1="34.313" x2="280.306" y2="35.959"/>
	<line style="fill:none;stroke:#000000;stroke-miterlimit:1;" x1="280.306" y1="35.959" x2="288.205" y2="37.934"/>
	<line style="fill:none;stroke:#000000;stroke-miterlimit:1;" x1="288.205" y1="37.934" x2="293.143" y2="38.921"/>
	<line style="fill:none;stroke:#000000;stroke-miterlimit:1;" x1="293.143" y1="38.921" x2="302.029" y2="39.25"/>
	<line style="fill:none;stroke:#000000;stroke-miterlimit:1;" x1="302.029" y1="39.25" x2="313.55" y2="38.263"/>
	<line style="fill:none;stroke:#000000;stroke-miterlimit:1;" x1="313.55" y1="38.263" x2="319.145" y2="37.604"/>
	<line style="fill:none;stroke:#000000;stroke-miterlimit:1;" x1="319.145" y1="37.604" x2="337.577" y2="35.301"/>
	<line style="fill:none;stroke:#000000;stroke-miterlimit:1;" x1="337.577" y1="35.301" x2="344.818" y2="34.313"/>
	<line style="fill:none;stroke:#000000;stroke-miterlimit:1;" x1="344.818" y1="34.313" x2="351.401" y2="33.655"/>
	<line style="fill:none;stroke:#000000;stroke-miterlimit:1;" x1="351.401" y1="33.655" x2="357.983" y2="32.997"/>
	<line style="fill:none;stroke:#000000;stroke-miterlimit:1;" x1="357.983" y1="32.997" x2="371.149" y2="32.338"/>
	<line style="fill:none;stroke:#000000;stroke-miterlimit:1;" x1="371.149" y1="32.338" x2="377.732" y2="32.997"/>
	<line style="fill:none;stroke:#000000;stroke-miterlimit:1;" x1="377.732" y1="32.997" x2="383.328" y2="33.655"/>
	<line style="fill:none;stroke:#000000;stroke-miterlimit:1;" x1="383.328" y1="33.655" x2="388.923" y2="34.313"/>
	<line style="fill:none;stroke:#000000;stroke-miterlimit:1;" x1="388.923" y1="34.313" x2="391.886" y2="34.313"/>
	<line style="fill:none;stroke:#000000;stroke-miterlimit:1;" x1="281.952" y1="6.007" x2="279.647" y2="9.298"/>
	<line style="fill:none;stroke:#000000;stroke-miterlimit:1;" x1="279.647" y1="9.298" x2="278.989" y2="11.932"/>
	<line style="fill:none;stroke:#000000;stroke-miterlimit:1;" x1="278.989" y1="11.932" x2="278.002" y2="15.223"/>
	<line style="fill:none;stroke:#000000;stroke-miterlimit:1;" x1="278.002" y1="15.223" x2="277.673" y2="18.514"/>
	<line style="fill:none;stroke:#000000;stroke-miterlimit:1;" x1="277.673" y1="18.514" x2="278.989" y2="24.439"/>
	<line style="fill:none;stroke:#000000;stroke-miterlimit:1;" x1="278.989" y1="24.439" x2="280.965" y2="27.401"/>
	<line style="fill:none;stroke:#000000;stroke-miterlimit:1;" x1="280.965" y1="27.401" x2="282.939" y2="30.363"/>
	<line style="fill:none;stroke:#000000;stroke-miterlimit:1;" x1="282.939" y1="30.363" x2="286.23" y2="32.997"/>
	<line style="fill:none;stroke:#000000;stroke-miterlimit:1;" x1="286.23" y1="32.997" x2="289.852" y2="34.972"/>
	<line style="fill:none;stroke:#000000;stroke-miterlimit:1;" x1="289.852" y1="34.972" x2="297.422" y2="35.959"/>
	<line style="fill:none;stroke:#000000;stroke-miterlimit:1;" x1="297.422" y1="35.959" x2="303.017" y2="35.301"/>
	<line style="fill:none;stroke:#000000;stroke-miterlimit:1;" x1="303.017" y1="35.301" x2="307.296" y2="34.642"/>
	<line style="fill:none;stroke:#000000;stroke-miterlimit:1;" x1="307.296" y1="34.642" x2="312.562" y2="31.022"/>
	<line style="fill:none;stroke:#000000;stroke-miterlimit:1;" x1="312.562" y1="31.022" x2="315.854" y2="27.072"/>
	<line style="fill:none;stroke:#000000;stroke-miterlimit:1;" x1="315.854" y1="27.072" x2="317.499" y2="24.11"/>
	<line style="fill:none;stroke:#000000;stroke-miterlimit:1;" x1="317.499" y1="24.11" x2="318.486" y2="17.856"/>
	<line style="fill:none;stroke:#000000;stroke-miterlimit:1;" x1="318.486" y1="17.856" x2="317.828" y2="11.932"/>
	<line style="fill:none;stroke:#000000;stroke-miterlimit:1;" x1="317.828" y1="11.932" x2="316.183" y2="8.64"/>
	<line style="fill:none;stroke:#000000;stroke-miterlimit:1;" x1="316.183" y1="8.64" x2="314.537" y2="6.007"/>
	<line style="fill:none;stroke:#000000;stroke-miterlimit:1;" x1="314.537" y1="6.007" x2="311.245" y2="2.715"/>
	<line style="fill:none;stroke:#000000;stroke-miterlimit:1;" x1="116.64" y1="95.451" x2="122.564" y2="112.238"/>
	<line style="fill:none;stroke:#000000;stroke-miterlimit:1;" x1="122.564" y1="112.238" x2="122.564" y2="116.188"/>
	<line style="fill:none;stroke:#000000;stroke-miterlimit:1;" x1="122.564" y1="116.188" x2="121.906" y2="118.492"/>
	<line style="fill:none;stroke:#000000;stroke-miterlimit:1;" x1="121.906" y1="118.492" x2="111.374" y2="137.91"/>
	<line style="fill:none;stroke:#000000;stroke-miterlimit:1;" x1="111.374" y1="137.91" x2="109.728" y2="140.545"/>
	<line style="fill:none;stroke:#000000;stroke-miterlimit:1;" x1="109.728" y1="140.545" x2="107.424" y2="141.531"/>
	<line style="fill:none;stroke:#000000;stroke-miterlimit:1;" x1="107.424" y1="141.531" x2="105.12" y2="142.52"/>
	<line style="fill:none;stroke:#000000;stroke-miterlimit:1;" x1="105.12" y1="142.52" x2="92.283" y2="143.178"/>
	<line style="fill:none;stroke:#000000;stroke-miterlimit:1;" x1="92.283" y1="143.178" x2="89.321" y2="143.836"/>
	<line style="fill:none;stroke:#000000;stroke-miterlimit:1;" x1="89.321" y1="143.836" x2="87.346" y2="145.152"/>
	<line style="fill:none;stroke:#000000;stroke-miterlimit:1;" x1="87.346" y1="145.152" x2="86.029" y2="146.797"/>
	<line style="fill:none;stroke:#000000;stroke-miterlimit:1;" x1="86.029" y1="146.797" x2="85.7" y2="147.785"/>
	<line style="fill:none;stroke:#000000;stroke-miterlimit:1;" x1="85.7" y1="147.785" x2="87.346" y2="147.785"/>
	<line style="fill:none;stroke:#000000;stroke-miterlimit:1;" x1="87.346" y1="147.785" x2="88.992" y2="146.139"/>
	<line style="fill:none;stroke:#000000;stroke-miterlimit:1;" x1="88.992" y1="146.139" x2="90.638" y2="146.139"/>
	<line style="fill:none;stroke:#000000;stroke-miterlimit:1;" x1="90.638" y1="146.139" x2="91.296" y2="147.455"/>
	<line style="fill:none;stroke:#000000;stroke-miterlimit:1;" x1="91.296" y1="147.455" x2="103.474" y2="146.797"/>
	<line style="fill:none;stroke:#000000;stroke-miterlimit:1;" x1="103.474" y1="146.797" x2="111.374" y2="147.785"/>
	<line style="fill:none;stroke:#000000;stroke-miterlimit:1;" x1="111.374" y1="147.785" x2="113.349" y2="147.455"/>
	<line style="fill:none;stroke:#000000;stroke-miterlimit:1;" x1="113.349" y1="147.455" x2="114.665" y2="145.152"/>
	<line style="fill:none;stroke:#000000;stroke-miterlimit:1;" x1="114.665" y1="145.152" x2="116.311" y2="148.115"/>
	<line style="fill:none;stroke:#000000;stroke-miterlimit:1;" x1="116.311" y1="148.115" x2="117.627" y2="148.115"/>
	<line style="fill:none;stroke:#000000;stroke-miterlimit:1;" x1="117.627" y1="148.115" x2="117.957" y2="146.469"/>
	<line style="fill:none;stroke:#000000;stroke-miterlimit:1;" x1="117.957" y1="146.469" x2="116.64" y2="143.836"/>
	<line style="fill:none;stroke:#000000;stroke-miterlimit:1;" x1="116.64" y1="143.836" x2="115.981" y2="141.203"/>
	<line style="fill:none;stroke:#000000;stroke-miterlimit:1;" x1="115.981" y1="141.203" x2="117.627" y2="136.924"/>
	<line style="fill:none;stroke:#000000;stroke-miterlimit:1;" x1="117.627" y1="136.924" x2="122.564" y2="127.707"/>
	<line style="fill:none;stroke:#000000;stroke-miterlimit:1;" x1="122.564" y1="127.707" x2="124.868" y2="122.441"/>
	<line style="fill:none;stroke:#000000;stroke-miterlimit:1;" x1="124.868" y1="122.441" x2="126.514" y2="120.467"/>
	<line style="fill:none;stroke:#000000;stroke-miterlimit:1;" x1="126.514" y1="120.467" x2="128.489" y2="118.492"/>
	<line style="fill:none;stroke:#000000;stroke-miterlimit:1;" x1="128.489" y1="118.492" x2="128.489" y2="115.199"/>
	<line style="fill:none;stroke:#000000;stroke-miterlimit:1;" x1="128.489" y1="115.199" x2="134.084" y2="105.326"/>
	<line style="fill:none;stroke:#000000;stroke-miterlimit:1;" x1="116.311" y1="48.055" x2="110.386" y2="51.675"/>
	<line style="fill:none;stroke:#000000;stroke-miterlimit:1;" x1="110.386" y1="51.675" x2="103.803" y2="53.65"/>
	<line style="fill:none;stroke:#000000;stroke-miterlimit:1;" x1="103.803" y1="53.65" x2="100.183" y2="55.625"/>
	<line style="fill:none;stroke:#000000;stroke-miterlimit:1;" x1="100.183" y1="55.625" x2="98.537" y2="58.587"/>
	<line style="fill:none;stroke:#000000;stroke-miterlimit:1;" x1="98.537" y1="58.587" x2="99.854" y2="61.879"/>
	<line style="fill:none;stroke:#000000;stroke-miterlimit:1;" x1="99.854" y1="61.879" x2="102.816" y2="66.158"/>
	<line style="fill:none;stroke:#000000;stroke-miterlimit:1;" x1="102.816" y1="66.158" x2="108.411" y2="69.778"/>
	<line style="fill:none;stroke:#000000;stroke-miterlimit:1;" x1="108.411" y1="69.778" x2="193.33" y2="94.793"/>
	<line style="fill:none;stroke:#000000;stroke-miterlimit:1;" x1="193.33" y1="94.793" x2="197.609" y2="95.123"/>
	<line style="fill:none;stroke:#000000;stroke-miterlimit:1;" x1="197.609" y1="95.123" x2="201.888" y2="95.123"/>
	<line style="fill:none;stroke:#000000;stroke-miterlimit:1;" x1="201.888" y1="95.123" x2="205.18" y2="93.807"/>
	<line style="fill:none;stroke:#000000;stroke-miterlimit:1;" x1="205.18" y1="93.807" x2="206.167" y2="92.488"/>
	<line style="fill:none;stroke:#000000;stroke-miterlimit:1;" x1="206.167" y1="92.488" x2="204.191" y2="90.844"/>
	<line style="fill:none;stroke:#000000;stroke-miterlimit:1;" x1="204.191" y1="90.844" x2="179.177" y2="76.361"/>
	<line style="fill:none;stroke:#000000;stroke-miterlimit:1;" x1="179.177" y1="76.361" x2="163.378" y2="65.17"/>
	<line style="fill:none;stroke:#000000;stroke-miterlimit:1;" x1="163.378" y1="65.17" x2="157.454" y2="59.246"/>
	<line style="fill:none;stroke:#000000;stroke-miterlimit:1;" x1="157.454" y1="59.246" x2="153.504" y2="55.296"/>
	<line style="fill:none;stroke:#000000;stroke-miterlimit:1;" x1="153.504" y1="55.296" x2="149.554" y2="52.663"/>
	<line style="fill:none;stroke:#000000;stroke-miterlimit:1;" x1="149.554" y1="52.663" x2="144.617" y2="49.372"/>
	<line style="fill:none;stroke:#000000;stroke-miterlimit:1;" x1="144.617" y1="49.372" x2="140.009" y2="46.409"/>
	<line style="fill:none;stroke:#000000;stroke-miterlimit:1;" x1="140.009" y1="46.409" x2="133.426" y2="43.776"/>
	<line style="fill:none;stroke:#000000;stroke-miterlimit:1;" x1="133.426" y1="43.776" x2="128.818" y2="42.789"/>
	<line style="fill:none;stroke:#000000;stroke-miterlimit:1;" x1="128.818" y1="42.789" x2="123.881" y2="42.13"/>
	<line style="fill:none;stroke:#000000;stroke-miterlimit:1;" x1="123.881" y1="42.13" x2="117.957" y2="42.459"/>
	<line style="fill:none;stroke:#000000;stroke-miterlimit:1;" x1="117.957" y1="42.459" x2="113.678" y2="45.093"/>
	<line style="fill:none;stroke:#000000;stroke-miterlimit:1;" x1="113.678" y1="45.093" x2="108.082" y2="49.042"/>
	<line style="fill:none;stroke:#000000;stroke-miterlimit:1;" x1="108.082" y1="49.042" x2="106.107" y2="49.701"/>
	<line style="fill:none;stroke:#000000;stroke-miterlimit:1;" x1="106.107" y1="49.701" x2="103.803" y2="49.372"/>
	<line style="fill:none;stroke:#000000;stroke-miterlimit:1;" x1="103.803" y1="49.372" x2="102.487" y2="47.726"/>
	<line style="fill:none;stroke:#000000;stroke-miterlimit:1;" x1="102.487" y1="47.726" x2="102.487" y2="45.751"/>
	<line style="fill:none;stroke:#000000;stroke-miterlimit:1;" x1="102.487" y1="45.751" x2="103.803" y2="43.447"/>
	<line style="fill:none;stroke:#000000;stroke-miterlimit:1;" x1="103.803" y1="43.447" x2="116.311" y2="17.774"/>
	<line style="fill:none;stroke:#000000;stroke-miterlimit:1;" x1="116.311" y1="17.774" x2="116.64" y2="14.812"/>
	<line style="fill:none;stroke:#000000;stroke-miterlimit:1;" x1="116.64" y1="14.812" x2="116.969" y2="11.52"/>
	<line style="fill:none;stroke:#000000;stroke-miterlimit:1;" x1="116.969" y1="11.52" x2="116.64" y2="8.229"/>
	<line style="fill:none;stroke:#000000;stroke-miterlimit:1;" x1="116.64" y1="8.229" x2="115.323" y2="4.608"/>
	<line style="fill:none;stroke:#000000;stroke-miterlimit:1;" x1="115.323" y1="4.608" x2="113.678" y2="1.975"/>
	<line style="fill:none;stroke:#000000;stroke-miterlimit:1;" x1="113.678" y1="1.975" x2="111.044" y2="0.658"/>
	<line style="fill:none;stroke:#000000;stroke-miterlimit:1;" x1="111.044" y1="0.658" x2="108.082" y2="0"/>
	<line style="fill:none;stroke:#000000;stroke-miterlimit:1;" x1="108.082" y1="0" x2="105.12" y2="0"/>
	<line style="fill:none;stroke:#000000;stroke-miterlimit:1;" x1="105.12" y1="0" x2="101.829" y2="0.658"/>
	<line style="fill:none;stroke:#000000;stroke-miterlimit:1;" x1="101.829" y1="0.658" x2="98.537" y2="2.304"/>
	<line style="fill:none;stroke:#000000;stroke-miterlimit:1;" x1="98.537" y1="2.304" x2="96.233" y2="4.608"/>
	<line style="fill:none;stroke:#000000;stroke-miterlimit:1;" x1="96.233" y1="4.608" x2="94.917" y2="6.254"/>
	<line style="fill:none;stroke:#000000;stroke-miterlimit:1;" x1="94.917" y1="6.254" x2="93.6" y2="8.887"/>
	<line style="fill:none;stroke:#000000;stroke-miterlimit:1;" x1="93.6" y1="8.887" x2="92.941" y2="10.533"/>
	<line style="fill:none;stroke:#000000;stroke-miterlimit:1;" x1="92.941" y1="10.533" x2="92.941" y2="13.824"/>
	<line style="fill:none;stroke:#000000;stroke-miterlimit:1;" x1="92.941" y1="13.824" x2="94.258" y2="17.116"/>
	<line style="fill:none;stroke:#000000;stroke-miterlimit:1;" x1="94.258" y1="17.116" x2="95.575" y2="18.432"/>
	<line style="fill:none;stroke:#000000;stroke-miterlimit:1;" x1="95.575" y1="18.432" x2="98.537" y2="20.078"/>
	<line style="fill:none;stroke:#000000;stroke-miterlimit:1;" x1="98.537" y1="20.078" x2="100.183" y2="20.736"/>
	<line style="fill:none;stroke:#000000;stroke-miterlimit:1;" x1="100.183" y1="20.736" x2="102.816" y2="21.724"/>
	<line style="fill:none;stroke:#000000;stroke-miterlimit:1;" x1="102.816" y1="21.724" x2="102.816" y2="24.356"/>
	<line style="fill:none;stroke:#000000;stroke-miterlimit:1;" x1="102.816" y1="24.356" x2="101.829" y2="29.623"/>
	<line style="fill:none;stroke:#000000;stroke-miterlimit:1;" x1="101.829" y1="29.623" x2="99.195" y2="34.889"/>
	<line style="fill:none;stroke:#000000;stroke-miterlimit:1;" x1="99.195" y1="34.889" x2="94.917" y2="39.497"/>
	<line style="fill:none;stroke:#000000;stroke-miterlimit:1;" x1="94.917" y1="39.497" x2="90.309" y2="44.105"/>
	<line style="fill:none;stroke:#000000;stroke-miterlimit:1;" x1="90.309" y1="44.105" x2="84.384" y2="50.688"/>
	<line style="fill:none;stroke:#000000;stroke-miterlimit:1;" x1="84.384" y1="50.688" x2="82.409" y2="54.967"/>
	<line style="fill:none;stroke:#000000;stroke-miterlimit:1;" x1="82.409" y1="54.967" x2="81.75" y2="59.904"/>
	<line style="fill:none;stroke:#000000;stroke-miterlimit:1;" x1="81.75" y1="59.904" x2="82.409" y2="64.183"/>
	<line style="fill:none;stroke:#000000;stroke-miterlimit:1;" x1="82.409" y1="64.183" x2="85.042" y2="69.12"/>
	<line style="fill:none;stroke:#000000;stroke-miterlimit:1;" x1="85.042" y1="69.12" x2="91.954" y2="76.689"/>
	<line style="fill:none;stroke:#000000;stroke-miterlimit:1;" x1="91.954" y1="76.689" x2="116.311" y2="95.123"/>
	<line style="fill:none;stroke:#000000;stroke-miterlimit:1;" x1="116.311" y1="95.123" x2="129.806" y2="102.693"/>
	<line style="fill:none;stroke:#000000;stroke-miterlimit:1;" x1="129.806" y1="102.693" x2="134.414" y2="105.984"/>
	<line style="fill:none;stroke:#000000;stroke-miterlimit:1;" x1="134.414" y1="105.984" x2="137.705" y2="109.275"/>
	<line style="fill:none;stroke:#000000;stroke-miterlimit:1;" x1="137.705" y1="109.275" x2="140.667" y2="114.541"/>
	<line style="fill:none;stroke:#000000;stroke-miterlimit:1;" x1="140.667" y1="114.541" x2="142.971" y2="119.15"/>
	<line style="fill:none;stroke:#000000;stroke-miterlimit:1;" x1="142.971" y1="119.15" x2="146.921" y2="136.924"/>
	<line style="fill:none;stroke:#000000;stroke-miterlimit:1;" x1="146.921" y1="136.924" x2="146.921" y2="139.227"/>
	<line style="fill:none;stroke:#000000;stroke-miterlimit:1;" x1="146.921" y1="139.227" x2="145.275" y2="140.215"/>
	<line style="fill:none;stroke:#000000;stroke-miterlimit:1;" x1="145.275" y1="140.215" x2="142.971" y2="141.203"/>
	<line style="fill:none;stroke:#000000;stroke-miterlimit:1;" x1="142.971" y1="141.203" x2="126.185" y2="143.506"/>
	<line style="fill:none;stroke:#000000;stroke-miterlimit:1;" x1="126.185" y1="143.506" x2="124.539" y2="144.494"/>
	<line style="fill:none;stroke:#000000;stroke-miterlimit:1;" x1="124.539" y1="144.494" x2="123.223" y2="146.469"/>
	<line style="fill:none;stroke:#000000;stroke-miterlimit:1;" x1="123.223" y1="146.469" x2="122.894" y2="147.785"/>
	<line style="fill:none;stroke:#000000;stroke-miterlimit:1;" x1="122.894" y1="147.785" x2="124.21" y2="148.115"/>
	<line style="fill:none;stroke:#000000;stroke-miterlimit:1;" x1="124.21" y1="148.115" x2="125.856" y2="145.48"/>
	<line style="fill:none;stroke:#000000;stroke-miterlimit:1;" x1="125.856" y1="145.48" x2="126.514" y2="145.48"/>
	<line style="fill:none;stroke:#000000;stroke-miterlimit:1;" x1="126.514" y1="145.48" x2="127.172" y2="148.115"/>
	<line style="fill:none;stroke:#000000;stroke-miterlimit:1;" x1="127.172" y1="148.115" x2="143.958" y2="146.469"/>
	<line style="fill:none;stroke:#000000;stroke-miterlimit:1;" x1="143.958" y1="146.469" x2="149.883" y2="147.785"/>
	<line style="fill:none;stroke:#000000;stroke-miterlimit:1;" x1="149.883" y1="147.785" x2="151.529" y2="147.127"/>
	<line style="fill:none;stroke:#000000;stroke-miterlimit:1;" x1="151.529" y1="147.127" x2="151.858" y2="145.152"/>
	<line style="fill:none;stroke:#000000;stroke-miterlimit:1;" x1="151.858" y1="145.152" x2="154.491" y2="147.455"/>
	<line style="fill:none;stroke:#000000;stroke-miterlimit:1;" x1="154.491" y1="147.455" x2="155.808" y2="147.455"/>
	<line style="fill:none;stroke:#000000;stroke-miterlimit:1;" x1="155.808" y1="147.455" x2="156.137" y2="146.139"/>
	<line style="fill:none;stroke:#000000;stroke-miterlimit:1;" x1="156.137" y1="146.139" x2="155.808" y2="144.822"/>
	<line style="fill:none;stroke:#000000;stroke-miterlimit:1;" x1="155.808" y1="144.822" x2="153.175" y2="142.189"/>
	<line style="fill:none;stroke:#000000;stroke-miterlimit:1;" x1="153.175" y1="142.189" x2="151.529" y2="138.568"/>
	<line style="fill:none;stroke:#000000;stroke-miterlimit:1;" x1="151.529" y1="138.568" x2="150.542" y2="121.453"/>
	<line style="fill:none;stroke:#000000;stroke-miterlimit:1;" x1="150.542" y1="121.453" x2="151.529" y2="118.162"/>
	<line style="fill:none;stroke:#000000;stroke-miterlimit:1;" x1="151.529" y1="118.162" x2="150.542" y2="115.529"/>
	<line style="fill:none;stroke:#000000;stroke-miterlimit:1;" x1="150.542" y1="115.529" x2="150.871" y2="107.959"/>
	<line style="fill:none;stroke:#000000;stroke-miterlimit:1;" x1="150.871" y1="107.959" x2="151.529" y2="105.654"/>
	<line style="fill:none;stroke:#000000;stroke-miterlimit:1;" x1="151.529" y1="105.654" x2="162.391" y2="104.996"/>
	<line style="fill:none;stroke:#000000;stroke-miterlimit:1;" x1="162.391" y1="104.996" x2="166.34" y2="104.01"/>
	<line style="fill:none;stroke:#000000;stroke-miterlimit:1;" x1="190.697" y1="101.377" x2="197.609" y2="100.389"/>
	<line style="fill:none;stroke:#000000;stroke-miterlimit:1;" x1="197.609" y1="100.389" x2="200.571" y2="99.4"/>
	<line style="fill:none;stroke:#000000;stroke-miterlimit:1;" x1="200.571" y1="99.4" x2="202.546" y2="98.414"/>
	<line style="fill:none;stroke:#000000;stroke-miterlimit:1;" x1="202.546" y1="98.414" x2="202.217" y2="97.426"/>
	<line style="fill:none;stroke:#000000;stroke-miterlimit:1;" x1="202.217" y1="97.426" x2="191.355" y2="94.135"/>
	<line style="fill:none;stroke:#000000;stroke-miterlimit:1;" x1="154.491" y1="87.223" x2="174.569" y2="112.566"/>
	<line style="fill:none;stroke:#000000;stroke-miterlimit:1;" x1="174.569" y1="112.566" x2="176.215" y2="114.213"/>
	<line style="fill:none;stroke:#000000;stroke-miterlimit:1;" x1="176.215" y1="114.213" x2="177.86" y2="114.541"/>
	<line style="fill:none;stroke:#000000;stroke-miterlimit:1;" x1="177.86" y1="114.541" x2="179.177" y2="114.541"/>
	<line style="fill:none;stroke:#000000;stroke-miterlimit:1;" x1="179.177" y1="114.541" x2="180.165" y2="113.555"/>
	<line style="fill:none;stroke:#000000;stroke-miterlimit:1;" x1="180.165" y1="113.555" x2="180.165" y2="112.238"/>
	<line style="fill:none;stroke:#000000;stroke-miterlimit:1;" x1="180.165" y1="112.238" x2="180.165" y2="111.25"/>
	<line style="fill:none;stroke:#000000;stroke-miterlimit:1;" x1="162.72" y1="88.869" x2="179.835" y2="110.922"/>
	<line style="fill:none;stroke:#000000;stroke-miterlimit:1;" x1="179.835" y1="110.922" x2="181.481" y2="111.908"/>
	<line style="fill:none;stroke:#000000;stroke-miterlimit:1;" x1="181.481" y1="111.908" x2="183.127" y2="112.238"/>
	<line style="fill:none;stroke:#000000;stroke-miterlimit:1;" x1="183.127" y1="112.238" x2="184.443" y2="111.58"/>
	<line style="fill:none;stroke:#000000;stroke-miterlimit:1;" x1="184.443" y1="111.58" x2="185.102" y2="110.592"/>
	<line style="fill:none;stroke:#000000;stroke-miterlimit:1;" x1="185.102" y1="110.592" x2="185.102" y2="109.605"/>
	<line style="fill:none;stroke:#000000;stroke-miterlimit:1;" x1="169.632" y1="90.186" x2="185.102" y2="108.947"/>
	<line style="fill:none;stroke:#000000;stroke-miterlimit:1;" x1="185.102" y1="108.947" x2="186.089" y2="109.934"/>
	<line style="fill:none;stroke:#000000;stroke-miterlimit:1;" x1="186.089" y1="109.934" x2="187.406" y2="110.264"/>
	<line style="fill:none;stroke:#000000;stroke-miterlimit:1;" x1="187.406" y1="110.264" x2="188.722" y2="108.947"/>
	<line style="fill:none;stroke:#000000;stroke-miterlimit:1;" x1="188.722" y1="108.947" x2="188.722" y2="108.287"/>
	<line style="fill:none;stroke:#000000;stroke-miterlimit:1;" x1="188.722" y1="108.287" x2="188.722" y2="107.301"/>
	<line style="fill:none;stroke:#000000;stroke-miterlimit:1;" x1="177.531" y1="92.16" x2="189.051" y2="107.301"/>
	<line style="fill:none;stroke:#000000;stroke-miterlimit:1;" x1="189.051" y1="107.301" x2="190.697" y2="108.287"/>
	<line style="fill:none;stroke:#000000;stroke-miterlimit:1;" x1="190.697" y1="108.287" x2="191.685" y2="108.287"/>
	<line style="fill:none;stroke:#000000;stroke-miterlimit:1;" x1="191.685" y1="108.287" x2="192.672" y2="107.629"/>
	<line style="fill:none;stroke:#000000;stroke-miterlimit:1;" x1="192.672" y1="107.629" x2="193.33" y2="106.643"/>
	<line style="fill:none;stroke:#000000;stroke-miterlimit:1;" x1="193.33" y1="106.643" x2="193.33" y2="105.654"/>
	<line style="fill:none;stroke:#000000;stroke-miterlimit:1;" x1="193.33" y1="105.654" x2="184.443" y2="93.477"/>
	<line style="fill:none;stroke:#000000;stroke-miterlimit:1;" x1="99.524" y1="9.875" x2="100.183" y2="8.558"/>
	<line style="fill:none;stroke:#000000;stroke-miterlimit:1;" x1="100.183" y1="8.558" x2="101.499" y2="7.57"/>
	<line style="fill:none;stroke:#000000;stroke-miterlimit:1;" x1="101.499" y1="7.57" x2="103.145" y2="7.241"/>
	<line style="fill:none;stroke:#000000;stroke-miterlimit:1;" x1="103.145" y1="7.241" x2="104.461" y2="7.899"/>
	<line style="fill:none;stroke:#000000;stroke-miterlimit:1;" x1="104.461" y1="7.899" x2="104.791" y2="9.216"/>
	<line style="fill:none;stroke:#000000;stroke-miterlimit:1;" x1="104.791" y1="9.216" x2="104.132" y2="10.204"/>
	<line style="fill:none;stroke:#000000;stroke-miterlimit:1;" x1="104.132" y1="10.204" x2="102.816" y2="11.191"/>
	<line style="fill:none;stroke:#000000;stroke-miterlimit:1;" x1="102.816" y1="11.191" x2="101.17" y2="11.52"/>
	<line style="fill:none;stroke:#000000;stroke-miterlimit:1;" x1="101.17" y1="11.52" x2="100.183" y2="10.533"/>
	<line style="fill:none;stroke:#000000;stroke-miterlimit:1;" x1="100.183" y1="10.533" x2="99.854" y2="8.558"/>
	<line style="fill:none;stroke:#000000;stroke-miterlimit:1;" x1="107.095" y1="37.193" x2="132.438" y2="37.522"/>
	<line style="fill:none;stroke:#000000;stroke-miterlimit:1;" x1="132.438" y1="37.522" x2="132.438" y2="20.736"/>
	<line style="fill:none;stroke:#000000;stroke-miterlimit:1;" x1="132.438" y1="20.736" x2="131.122" y2="15.799"/>
	<line style="fill:none;stroke:#000000;stroke-miterlimit:1;" x1="131.122" y1="15.799" x2="127.501" y2="9.875"/>
	<line style="fill:none;stroke:#000000;stroke-miterlimit:1;" x1="127.501" y1="9.875" x2="124.868" y2="6.912"/>
	<line style="fill:none;stroke:#000000;stroke-miterlimit:1;" x1="124.868" y1="6.912" x2="122.235" y2="4.937"/>
	<line style="fill:none;stroke:#000000;stroke-miterlimit:1;" x1="122.235" y1="4.937" x2="119.931" y2="3.292"/>
	<line style="fill:none;stroke:#000000;stroke-miterlimit:1;" x1="119.931" y1="3.292" x2="116.64" y2="1.646"/>
	<line style="fill:none;stroke:#000000;stroke-miterlimit:1;" x1="116.64" y1="1.646" x2="114.336" y2="0.987"/>
	<line style="fill:none;stroke:#000000;stroke-miterlimit:1;" x1="114.336" y1="0.987" x2="112.032" y2="0.329"/>
	<line style="fill:none;stroke:#000000;stroke-miterlimit:1;" x1="112.032" y1="0.329" x2="110.057" y2="0.329"/>
	<line style="fill:none;stroke:#000000;stroke-miterlimit:1;" x1="110.057" y1="0.329" x2="108.082" y2="0"/>
	<line style="fill:none;stroke:#000000;stroke-miterlimit:1;" x1="93.929" y1="8.887" x2="91.954" y2="10.533"/>
	<line style="fill:none;stroke:#000000;stroke-miterlimit:1;" x1="91.954" y1="10.533" x2="89.979" y2="12.507"/>
	<line style="fill:none;stroke:#000000;stroke-miterlimit:1;" x1="89.979" y1="12.507" x2="87.346" y2="14.153"/>
	<line style="fill:none;stroke:#000000;stroke-miterlimit:1;" x1="87.346" y1="14.153" x2="83.067" y2="15.799"/>
	<line style="fill:none;stroke:#000000;stroke-miterlimit:1;" x1="83.067" y1="15.799" x2="77.143" y2="19.419"/>
	<line style="fill:none;stroke:#000000;stroke-miterlimit:1;" x1="77.143" y1="19.419" x2="71.876" y2="24.027"/>
	<line style="fill:none;stroke:#000000;stroke-miterlimit:1;" x1="71.876" y1="24.027" x2="68.256" y2="28.306"/>
	<line style="fill:none;stroke:#000000;stroke-miterlimit:1;" x1="68.256" y1="28.306" x2="63.648" y2="35.218"/>
	<line style="fill:none;stroke:#000000;stroke-miterlimit:1;" x1="63.648" y1="35.218" x2="61.673" y2="42.13"/>
	<line style="fill:none;stroke:#000000;stroke-miterlimit:1;" x1="61.673" y1="42.13" x2="60.686" y2="46.08"/>
	<line style="fill:none;stroke:#000000;stroke-miterlimit:1;" x1="60.686" y1="46.08" x2="60.686" y2="47.726"/>
	<line style="fill:none;stroke:#000000;stroke-miterlimit:1;" x1="60.686" y1="47.726" x2="61.673" y2="48.384"/>
	<line style="fill:none;stroke:#000000;stroke-miterlimit:1;" x1="61.673" y1="48.384" x2="62.331" y2="47.726"/>
	<line style="fill:none;stroke:#000000;stroke-miterlimit:1;" x1="62.331" y1="47.726" x2="64.635" y2="41.801"/>
	<line style="fill:none;stroke:#000000;stroke-miterlimit:1;" x1="64.635" y1="41.801" x2="69.243" y2="34.56"/>
	<line style="fill:none;stroke:#000000;stroke-miterlimit:1;" x1="69.243" y1="34.56" x2="73.851" y2="28.306"/>
	<line style="fill:none;stroke:#000000;stroke-miterlimit:1;" x1="73.851" y1="28.306" x2="77.801" y2="24.686"/>
	<line style="fill:none;stroke:#000000;stroke-miterlimit:1;" x1="77.801" y1="24.686" x2="82.409" y2="21.395"/>
	<line style="fill:none;stroke:#000000;stroke-miterlimit:1;" x1="82.409" y1="21.395" x2="88.004" y2="18.761"/>
	<line style="fill:none;stroke:#000000;stroke-miterlimit:1;" x1="88.004" y1="18.761" x2="91.625" y2="17.774"/>
	<line style="fill:none;stroke:#000000;stroke-miterlimit:1;" x1="91.625" y1="17.774" x2="94.258" y2="17.116"/>
	<line style="fill:none;stroke:#000000;stroke-miterlimit:1;" x1="62.99" y1="47.396" x2="64.635" y2="46.409"/>
	<line style="fill:none;stroke:#000000;stroke-miterlimit:1;" x1="64.635" y1="46.409" x2="69.572" y2="39.168"/>
	<line style="fill:none;stroke:#000000;stroke-miterlimit:1;" x1="69.572" y1="39.168" x2="72.864" y2="34.56"/>
	<line style="fill:none;stroke:#000000;stroke-miterlimit:1;" x1="72.864" y1="34.56" x2="77.143" y2="29.623"/>
	<line style="fill:none;stroke:#000000;stroke-miterlimit:1;" x1="77.143" y1="29.623" x2="82.08" y2="26.002"/>
	<line style="fill:none;stroke:#000000;stroke-miterlimit:1;" x1="82.08" y1="26.002" x2="86.688" y2="23.698"/>
	<line style="fill:none;stroke:#000000;stroke-miterlimit:1;" x1="86.688" y1="23.698" x2="90.638" y2="21.724"/>
	<line style="fill:none;stroke:#000000;stroke-miterlimit:1;" x1="90.638" y1="21.724" x2="98.537" y2="21.065"/>
	<line style="fill:none;stroke:#000000;stroke-miterlimit:1;" x1="98.537" y1="21.065" x2="101.499" y2="21.395"/>
	<line style="fill:none;stroke:#000000;stroke-miterlimit:1;" x1="397.687" y1="141.736" x2="387.483" y2="139.762"/>
	<line style="fill:none;stroke:#000000;stroke-miterlimit:1;" x1="387.483" y1="139.762" x2="380.242" y2="138.445"/>
	<line style="fill:none;stroke:#000000;stroke-miterlimit:1;" x1="380.242" y1="138.445" x2="374.976" y2="136.471"/>
	<line style="fill:none;stroke:#000000;stroke-miterlimit:1;" x1="374.976" y1="136.471" x2="368.393" y2="133.838"/>
	<line style="fill:none;stroke:#000000;stroke-miterlimit:1;" x1="368.393" y1="133.838" x2="361.481" y2="130.547"/>
	<line style="fill:none;stroke:#000000;stroke-miterlimit:1;" x1="361.481" y1="130.547" x2="348.645" y2="123.305"/>
	<line style="fill:none;stroke:#000000;stroke-miterlimit:1;" x1="348.645" y1="123.305" x2="335.479" y2="116.064"/>
	<line style="fill:none;stroke:#000000;stroke-miterlimit:1;" x1="335.479" y1="116.064" x2="328.896" y2="113.76"/>
	<line style="fill:none;stroke:#000000;stroke-miterlimit:1;" x1="328.896" y1="113.76" x2="320.996" y2="110.797"/>
	<line style="fill:none;stroke:#000000;stroke-miterlimit:1;" x1="320.996" y1="110.797" x2="313.097" y2="109.48"/>
	<line style="fill:none;stroke:#000000;stroke-miterlimit:1;" x1="313.097" y1="109.48" x2="307.173" y2="108.164"/>
	<line style="fill:none;stroke:#000000;stroke-miterlimit:1;" x1="307.173" y1="108.164" x2="299.932" y2="108.164"/>
	<line style="fill:none;stroke:#000000;stroke-miterlimit:1;" x1="299.932" y1="108.164" x2="292.69" y2="109.152"/>
	<line style="fill:none;stroke:#000000;stroke-miterlimit:1;" x1="292.69" y1="109.152" x2="285.449" y2="111.455"/>
	<line style="fill:none;stroke:#000000;stroke-miterlimit:1;" x1="285.449" y1="111.455" x2="278.208" y2="115.076"/>
	<line style="fill:none;stroke:#000000;stroke-miterlimit:1;" x1="278.208" y1="115.076" x2="270.309" y2="121.002"/>
	<line style="fill:none;stroke:#000000;stroke-miterlimit:1;" x1="270.309" y1="121.002" x2="265.042" y2="125.938"/>
	<line style="fill:none;stroke:#000000;stroke-miterlimit:1;" x1="265.042" y1="125.938" x2="259.775" y2="129.23"/>
	<line style="fill:none;stroke:#000000;stroke-miterlimit:1;" x1="259.775" y1="129.23" x2="255.497" y2="132.191"/>
	<line style="fill:none;stroke:#000000;stroke-miterlimit:1;" x1="255.497" y1="132.191" x2="251.876" y2="133.18"/>
	<line style="fill:none;stroke:#000000;stroke-miterlimit:1;" x1="251.876" y1="133.18" x2="247.927" y2="134.824"/>
	<line style="fill:none;stroke:#000000;stroke-miterlimit:1;" x1="247.927" y1="134.824" x2="243.977" y2="136.143"/>
	<line style="fill:none;stroke:#000000;stroke-miterlimit:1;" x1="243.977" y1="136.143" x2="237.395" y2="137.129"/>
	<line style="fill:none;stroke:#000000;stroke-miterlimit:1;" x1="244.307" y1="135.812" x2="249.901" y2="135.812"/>
	<line style="fill:none;stroke:#000000;stroke-miterlimit:1;" x1="249.901" y1="135.812" x2="254.839" y2="135.484"/>
	<line style="fill:none;stroke:#000000;stroke-miterlimit:1;" x1="254.839" y1="135.484" x2="259.775" y2="136.471"/>
	<line style="fill:none;stroke:#000000;stroke-miterlimit:1;" x1="259.775" y1="136.471" x2="268.334" y2="138.445"/>
	<line style="fill:none;stroke:#000000;stroke-miterlimit:1;" x1="268.334" y1="138.445" x2="274.916" y2="141.078"/>
	<line style="fill:none;stroke:#000000;stroke-miterlimit:1;" x1="274.916" y1="141.078" x2="282.157" y2="142.725"/>
	<line style="fill:none;stroke:#000000;stroke-miterlimit:1;" x1="282.157" y1="142.725" x2="290.057" y2="144.699"/>
	<line style="fill:none;stroke:#000000;stroke-miterlimit:1;" x1="290.057" y1="144.699" x2="294.994" y2="145.688"/>
	<line style="fill:none;stroke:#000000;stroke-miterlimit:1;" x1="294.994" y1="145.688" x2="303.881" y2="146.016"/>
	<line style="fill:none;stroke:#000000;stroke-miterlimit:1;" x1="303.881" y1="146.016" x2="315.401" y2="145.029"/>
	<line style="fill:none;stroke:#000000;stroke-miterlimit:1;" x1="315.401" y1="145.029" x2="320.996" y2="144.371"/>
	<line style="fill:none;stroke:#000000;stroke-miterlimit:1;" x1="320.996" y1="144.371" x2="339.429" y2="142.066"/>
	<line style="fill:none;stroke:#000000;stroke-miterlimit:1;" x1="339.429" y1="142.066" x2="346.67" y2="141.078"/>
	<line style="fill:none;stroke:#000000;stroke-miterlimit:1;" x1="346.67" y1="141.078" x2="353.252" y2="140.42"/>
	<line style="fill:none;stroke:#000000;stroke-miterlimit:1;" x1="353.252" y1="140.42" x2="359.835" y2="139.762"/>
	<line style="fill:none;stroke:#000000;stroke-miterlimit:1;" x1="359.835" y1="139.762" x2="373.001" y2="139.104"/>
	<line style="fill:none;stroke:#000000;stroke-miterlimit:1;" x1="373.001" y1="139.104" x2="379.584" y2="139.762"/>
	<line style="fill:none;stroke:#000000;stroke-miterlimit:1;" x1="379.584" y1="139.762" x2="385.18" y2="140.42"/>
	<line style="fill:none;stroke:#000000;stroke-miterlimit:1;" x1="385.18" y1="140.42" x2="390.774" y2="141.078"/>
	<line style="fill:none;stroke:#000000;stroke-miterlimit:1;" x1="390.774" y1="141.078" x2="393.737" y2="141.078"/>
	<line style="fill:none;stroke:#000000;stroke-miterlimit:1;" x1="283.804" y1="112.773" x2="281.499" y2="116.064"/>
	<line style="fill:none;stroke:#000000;stroke-miterlimit:1;" x1="281.499" y1="116.064" x2="280.841" y2="118.697"/>
	<line style="fill:none;stroke:#000000;stroke-miterlimit:1;" x1="280.841" y1="118.697" x2="279.854" y2="121.988"/>
	<line style="fill:none;stroke:#000000;stroke-miterlimit:1;" x1="279.854" y1="121.988" x2="279.524" y2="125.279"/>
	<line style="fill:none;stroke:#000000;stroke-miterlimit:1;" x1="279.524" y1="125.279" x2="280.841" y2="131.205"/>
	<line style="fill:none;stroke:#000000;stroke-miterlimit:1;" x1="280.841" y1="131.205" x2="282.815" y2="134.166"/>
	<line style="fill:none;stroke:#000000;stroke-miterlimit:1;" x1="282.815" y1="134.166" x2="284.791" y2="137.129"/>
	<line style="fill:none;stroke:#000000;stroke-miterlimit:1;" x1="284.791" y1="137.129" x2="288.082" y2="139.762"/>
	<line style="fill:none;stroke:#000000;stroke-miterlimit:1;" x1="288.082" y1="139.762" x2="291.703" y2="141.736"/>
	<line style="fill:none;stroke:#000000;stroke-miterlimit:1;" x1="291.703" y1="141.736" x2="299.273" y2="142.725"/>
	<line style="fill:none;stroke:#000000;stroke-miterlimit:1;" x1="299.273" y1="142.725" x2="304.868" y2="142.066"/>
	<line style="fill:none;stroke:#000000;stroke-miterlimit:1;" x1="304.868" y1="142.066" x2="309.147" y2="141.408"/>
	<line style="fill:none;stroke:#000000;stroke-miterlimit:1;" x1="309.147" y1="141.408" x2="314.413" y2="137.787"/>
	<line style="fill:none;stroke:#000000;stroke-miterlimit:1;" x1="314.413" y1="137.787" x2="317.705" y2="133.838"/>
	<line style="fill:none;stroke:#000000;stroke-miterlimit:1;" x1="317.705" y1="133.838" x2="319.351" y2="130.875"/>
	<line style="fill:none;stroke:#000000;stroke-miterlimit:1;" x1="319.351" y1="130.875" x2="320.338" y2="124.621"/>
	<line style="fill:none;stroke:#000000;stroke-miterlimit:1;" x1="320.338" y1="124.621" x2="319.68" y2="118.697"/>
	<line style="fill:none;stroke:#000000;stroke-miterlimit:1;" x1="319.68" y1="118.697" x2="318.034" y2="115.406"/>
	<line style="fill:none;stroke:#000000;stroke-miterlimit:1;" x1="318.034" y1="115.406" x2="316.389" y2="112.773"/>
	<line style="fill:none;stroke:#000000;stroke-miterlimit:1;" x1="316.389" y1="112.773" x2="313.097" y2="109.48"/>
	<line style="fill:none;stroke:#000000;stroke-miterlimit:1;" x1="77.678" y1="124.992" x2="0" y2="124.992"/>
	<line style="fill:none;stroke:#000000;stroke-miterlimit:1;" x1="0" y1="124.992" x2="0.987" y2="118.408"/>
	<line style="fill:none;stroke:#000000;stroke-miterlimit:1;" x1="0.987" y1="118.408" x2="1.975" y2="114.131"/>
	<line style="fill:none;stroke:#000000;stroke-miterlimit:1;" x1="1.975" y1="114.131" x2="3.621" y2="109.852"/>
	<line style="fill:none;stroke:#000000;stroke-miterlimit:1;" x1="3.621" y1="109.852" x2="5.924" y2="106.561"/>
	<line style="fill:none;stroke:#000000;stroke-miterlimit:1;" x1="5.924" y1="106.561" x2="7.899" y2="103.598"/>
	<line style="fill:none;stroke:#000000;stroke-miterlimit:1;" x1="7.899" y1="103.598" x2="10.532" y2="99.977"/>
	<line style="fill:none;stroke:#000000;stroke-miterlimit:1;" x1="10.532" y1="99.977" x2="13.495" y2="97.344"/>
	<line style="fill:none;stroke:#000000;stroke-miterlimit:1;" x1="13.495" y1="97.344" x2="17.115" y2="94.711"/>
	<line style="fill:none;stroke:#000000;stroke-miterlimit:1;" x1="17.115" y1="94.711" x2="20.078" y2="92.736"/>
	<line style="fill:none;stroke:#000000;stroke-miterlimit:1;" x1="20.078" y1="92.736" x2="24.356" y2="90.762"/>
	<line style="fill:none;stroke:#000000;stroke-miterlimit:1;" x1="24.356" y1="90.762" x2="28.635" y2="89.445"/>
	<line style="fill:none;stroke:#000000;stroke-miterlimit:1;" x1="28.635" y1="89.445" x2="31.598" y2="88.787"/>
	<line style="fill:none;stroke:#000000;stroke-miterlimit:1;" x1="31.598" y1="88.787" x2="36.864" y2="88.129"/>
	<line style="fill:none;stroke:#000000;stroke-miterlimit:1;" x1="36.864" y1="88.129" x2="40.813" y2="88.129"/>
	<line style="fill:none;stroke:#000000;stroke-miterlimit:1;" x1="40.813" y1="88.129" x2="44.434" y2="88.787"/>
	<line style="fill:none;stroke:#000000;stroke-miterlimit:1;" x1="44.434" y1="88.787" x2="48.384" y2="89.445"/>
	<line style="fill:none;stroke:#000000;stroke-miterlimit:1;" x1="48.384" y1="89.445" x2="52.663" y2="90.432"/>
	<line style="fill:none;stroke:#000000;stroke-miterlimit:1;" x1="52.663" y1="90.432" x2="55.625" y2="91.42"/>
	<line style="fill:none;stroke:#000000;stroke-miterlimit:1;" x1="55.625" y1="91.42" x2="59.575" y2="94.053"/>
	<line style="fill:none;stroke:#000000;stroke-miterlimit:1;" x1="59.575" y1="94.053" x2="62.866" y2="96.357"/>
	<line style="fill:none;stroke:#000000;stroke-miterlimit:1;" x1="62.866" y1="96.357" x2="65.829" y2="98.66"/>
	<line style="fill:none;stroke:#000000;stroke-miterlimit:1;" x1="65.829" y1="98.66" x2="68.461" y2="101.951"/>
	<line style="fill:none;stroke:#000000;stroke-miterlimit:1;" x1="68.461" y1="101.951" x2="71.095" y2="105.572"/>
	<line style="fill:none;stroke:#000000;stroke-miterlimit:1;" x1="71.095" y1="105.572" x2="73.398" y2="109.193"/>
	<line style="fill:none;stroke:#000000;stroke-miterlimit:1;" x1="73.398" y1="109.193" x2="75.044" y2="112.484"/>
	<line style="fill:none;stroke:#000000;stroke-miterlimit:1;" x1="75.044" y1="112.484" x2="76.361" y2="117.422"/>
	<line style="fill:none;stroke:#000000;stroke-miterlimit:1;" x1="76.361" y1="117.422" x2="77.349" y2="121.043"/>
	<line style="fill:none;stroke:#000000;stroke-miterlimit:1;" x1="77.349" y1="121.043" x2="77.678" y2="124.992"/>
	<line style="fill:none;stroke:#000000;stroke-miterlimit:1;" x1="156.763" y1="3.602" x2="177.037" y2="49.219"/>
	<line style="fill:none;stroke:#000000;stroke-miterlimit:1;" x1="177.037" y1="49.219" x2="187.174" y2="49.219"/>
	<line style="fill:none;stroke:#000000;stroke-miterlimit:1;" x1="187.174" y1="49.219" x2="166.9" y2="3.602"/>
	<line style="fill:none;stroke:#000000;stroke-miterlimit:1;" x1="166.9" y1="3.602" x2="156.763" y2="3.602"/>
	<line style="fill:none;stroke:#000000;stroke-miterlimit:1;" x1="187.428" y1="3.602" x2="207.702" y2="49.219"/>
	<line style="fill:none;stroke:#000000;stroke-miterlimit:1;" x1="207.702" y1="49.219" x2="217.839" y2="49.219"/>
	<line style="fill:none;stroke:#000000;stroke-miterlimit:1;" x1="217.839" y1="49.219" x2="197.565" y2="3.602"/>
	<line style="fill:none;stroke:#000000;stroke-miterlimit:1;" x1="197.565" y1="3.602" x2="187.428" y2="3.602"/>
</g>
</svg>
