<?xml version="1.0" encoding="iso-8859-1"?>
<!-- Generator: Adobe Illustrator 16.0.1, SVG Export Plug-In . SVG Version: 6.00 Build 0)  -->
<!DOCTYPE svg PUBLIC "-//W3C//DTD SVG 1.1//EN" "http://www.w3.org/Graphics/SVG/1.1/DTD/svg11.dtd">
<svg version="1.1" id="Ebene_1" xmlns="http://www.w3.org/2000/svg" xmlns:xlink="http://www.w3.org/1999/xlink" x="0px" y="0px"
	 width="433.687px" height="148.114px" viewBox="0 0 433.687 148.114" style="enable-background:new 0 0 433.687 148.114;"
	 xml:space="preserve">
<g>
	<line style="fill:none;stroke:#000000;stroke-miterlimit:1;" x1="431.835" y1="35.218" x2="421.632" y2="33.243"/>
	<line style="fill:none;stroke:#000000;stroke-miterlimit:1;" x1="421.632" y1="33.243" x2="414.391" y2="31.927"/>
	<line style="fill:none;stroke:#000000;stroke-miterlimit:1;" x1="414.391" y1="31.927" x2="409.124" y2="29.952"/>
	<line style="fill:none;stroke:#000000;stroke-miterlimit:1;" x1="409.124" y1="29.952" x2="402.542" y2="27.319"/>
	<line style="fill:none;stroke:#000000;stroke-miterlimit:1;" x1="402.542" y1="27.319" x2="395.63" y2="24.027"/>
	<line style="fill:none;stroke:#000000;stroke-miterlimit:1;" x1="395.63" y1="24.027" x2="382.793" y2="16.786"/>
	<line style="fill:none;stroke:#000000;stroke-miterlimit:1;" x1="382.793" y1="16.786" x2="369.627" y2="9.545"/>
	<line style="fill:none;stroke:#000000;stroke-miterlimit:1;" x1="369.627" y1="9.545" x2="363.044" y2="7.241"/>
	<line style="fill:none;stroke:#000000;stroke-miterlimit:1;" x1="363.044" y1="7.241" x2="355.145" y2="4.279"/>
	<line style="fill:none;stroke:#000000;stroke-miterlimit:1;" x1="355.145" y1="4.279" x2="347.245" y2="2.962"/>
	<line style="fill:none;stroke:#000000;stroke-miterlimit:1;" x1="347.245" y1="2.962" x2="341.321" y2="1.646"/>
	<line style="fill:none;stroke:#000000;stroke-miterlimit:1;" x1="341.321" y1="1.646" x2="334.08" y2="1.646"/>
	<line style="fill:none;stroke:#000000;stroke-miterlimit:1;" x1="334.08" y1="1.646" x2="326.839" y2="2.633"/>
	<line style="fill:none;stroke:#000000;stroke-miterlimit:1;" x1="326.839" y1="2.633" x2="319.598" y2="4.937"/>
	<line style="fill:none;stroke:#000000;stroke-miterlimit:1;" x1="319.598" y1="4.937" x2="312.356" y2="8.558"/>
	<line style="fill:none;stroke:#000000;stroke-miterlimit:1;" x1="312.356" y1="8.558" x2="304.457" y2="14.482"/>
	<line style="fill:none;stroke:#000000;stroke-miterlimit:1;" x1="304.457" y1="14.482" x2="299.19" y2="19.419"/>
	<line style="fill:none;stroke:#000000;stroke-miterlimit:1;" x1="299.19" y1="19.419" x2="293.925" y2="22.711"/>
	<line style="fill:none;stroke:#000000;stroke-miterlimit:1;" x1="293.925" y1="22.711" x2="289.646" y2="25.673"/>
	<line style="fill:none;stroke:#000000;stroke-miterlimit:1;" x1="289.646" y1="25.673" x2="286.025" y2="26.661"/>
	<line style="fill:none;stroke:#000000;stroke-miterlimit:1;" x1="286.025" y1="26.661" x2="282.075" y2="28.306"/>
	<line style="fill:none;stroke:#000000;stroke-miterlimit:1;" x1="282.075" y1="28.306" x2="278.126" y2="29.623"/>
	<line style="fill:none;stroke:#000000;stroke-miterlimit:1;" x1="278.126" y1="29.623" x2="271.543" y2="30.61"/>
	<line style="fill:none;stroke:#000000;stroke-miterlimit:1;" x1="278.455" y1="29.294" x2="284.05" y2="29.294"/>
	<line style="fill:none;stroke:#000000;stroke-miterlimit:1;" x1="284.05" y1="29.294" x2="288.987" y2="28.964"/>
	<line style="fill:none;stroke:#000000;stroke-miterlimit:1;" x1="288.987" y1="28.964" x2="293.925" y2="29.952"/>
	<line style="fill:none;stroke:#000000;stroke-miterlimit:1;" x1="293.925" y1="29.952" x2="302.482" y2="31.927"/>
	<line style="fill:none;stroke:#000000;stroke-miterlimit:1;" x1="302.482" y1="31.927" x2="309.065" y2="34.56"/>
	<line style="fill:none;stroke:#000000;stroke-miterlimit:1;" x1="309.065" y1="34.56" x2="316.307" y2="36.206"/>
	<line style="fill:none;stroke:#000000;stroke-miterlimit:1;" x1="316.307" y1="36.206" x2="324.205" y2="38.181"/>
	<line style="fill:none;stroke:#000000;stroke-miterlimit:1;" x1="324.205" y1="38.181" x2="329.143" y2="39.168"/>
	<line style="fill:none;stroke:#000000;stroke-miterlimit:1;" x1="329.143" y1="39.168" x2="338.029" y2="39.497"/>
	<line style="fill:none;stroke:#000000;stroke-miterlimit:1;" x1="338.029" y1="39.497" x2="349.55" y2="38.51"/>
	<line style="fill:none;stroke:#000000;stroke-miterlimit:1;" x1="349.55" y1="38.51" x2="355.145" y2="37.852"/>
	<line style="fill:none;stroke:#000000;stroke-miterlimit:1;" x1="355.145" y1="37.852" x2="373.577" y2="35.547"/>
	<line style="fill:none;stroke:#000000;stroke-miterlimit:1;" x1="373.577" y1="35.547" x2="380.818" y2="34.56"/>
	<line style="fill:none;stroke:#000000;stroke-miterlimit:1;" x1="380.818" y1="34.56" x2="387.401" y2="33.902"/>
	<line style="fill:none;stroke:#000000;stroke-miterlimit:1;" x1="387.401" y1="33.902" x2="393.983" y2="33.243"/>
	<line style="fill:none;stroke:#000000;stroke-miterlimit:1;" x1="393.983" y1="33.243" x2="407.149" y2="32.585"/>
	<line style="fill:none;stroke:#000000;stroke-miterlimit:1;" x1="407.149" y1="32.585" x2="413.732" y2="33.243"/>
	<line style="fill:none;stroke:#000000;stroke-miterlimit:1;" x1="413.732" y1="33.243" x2="419.328" y2="33.902"/>
	<line style="fill:none;stroke:#000000;stroke-miterlimit:1;" x1="419.328" y1="33.902" x2="424.923" y2="34.56"/>
	<line style="fill:none;stroke:#000000;stroke-miterlimit:1;" x1="424.923" y1="34.56" x2="427.886" y2="34.56"/>
	<line style="fill:none;stroke:#000000;stroke-miterlimit:1;" x1="317.952" y1="6.254" x2="315.647" y2="9.545"/>
	<line style="fill:none;stroke:#000000;stroke-miterlimit:1;" x1="315.647" y1="9.545" x2="314.989" y2="12.178"/>
	<line style="fill:none;stroke:#000000;stroke-miterlimit:1;" x1="314.989" y1="12.178" x2="314.002" y2="15.47"/>
	<line style="fill:none;stroke:#000000;stroke-miterlimit:1;" x1="314.002" y1="15.47" x2="313.673" y2="18.761"/>
	<line style="fill:none;stroke:#000000;stroke-miterlimit:1;" x1="313.673" y1="18.761" x2="314.989" y2="24.686"/>
	<line style="fill:none;stroke:#000000;stroke-miterlimit:1;" x1="314.989" y1="24.686" x2="316.965" y2="27.648"/>
	<line style="fill:none;stroke:#000000;stroke-miterlimit:1;" x1="316.965" y1="27.648" x2="318.939" y2="30.61"/>
	<line style="fill:none;stroke:#000000;stroke-miterlimit:1;" x1="318.939" y1="30.61" x2="322.23" y2="33.243"/>
	<line style="fill:none;stroke:#000000;stroke-miterlimit:1;" x1="322.23" y1="33.243" x2="325.852" y2="35.218"/>
	<line style="fill:none;stroke:#000000;stroke-miterlimit:1;" x1="325.852" y1="35.218" x2="333.422" y2="36.206"/>
	<line style="fill:none;stroke:#000000;stroke-miterlimit:1;" x1="333.422" y1="36.206" x2="339.017" y2="35.547"/>
	<line style="fill:none;stroke:#000000;stroke-miterlimit:1;" x1="339.017" y1="35.547" x2="343.296" y2="34.889"/>
	<line style="fill:none;stroke:#000000;stroke-miterlimit:1;" x1="343.296" y1="34.889" x2="348.562" y2="31.269"/>
	<line style="fill:none;stroke:#000000;stroke-miterlimit:1;" x1="348.562" y1="31.269" x2="351.854" y2="27.319"/>
	<line style="fill:none;stroke:#000000;stroke-miterlimit:1;" x1="351.854" y1="27.319" x2="353.499" y2="24.356"/>
	<line style="fill:none;stroke:#000000;stroke-miterlimit:1;" x1="353.499" y1="24.356" x2="354.486" y2="18.103"/>
	<line style="fill:none;stroke:#000000;stroke-miterlimit:1;" x1="354.486" y1="18.103" x2="353.828" y2="12.178"/>
	<line style="fill:none;stroke:#000000;stroke-miterlimit:1;" x1="353.828" y1="12.178" x2="352.183" y2="8.887"/>
	<line style="fill:none;stroke:#000000;stroke-miterlimit:1;" x1="352.183" y1="8.887" x2="350.537" y2="6.254"/>
	<line style="fill:none;stroke:#000000;stroke-miterlimit:1;" x1="350.537" y1="6.254" x2="347.245" y2="2.962"/>
	<line style="fill:none;stroke:#000000;stroke-miterlimit:1;" x1="433.687" y1="141.984" x2="423.483" y2="140.009"/>
	<line style="fill:none;stroke:#000000;stroke-miterlimit:1;" x1="423.483" y1="140.009" x2="416.242" y2="138.692"/>
	<line style="fill:none;stroke:#000000;stroke-miterlimit:1;" x1="416.242" y1="138.692" x2="410.976" y2="136.718"/>
	<line style="fill:none;stroke:#000000;stroke-miterlimit:1;" x1="410.976" y1="136.718" x2="404.393" y2="134.085"/>
	<line style="fill:none;stroke:#000000;stroke-miterlimit:1;" x1="404.393" y1="134.085" x2="397.48" y2="130.793"/>
	<line style="fill:none;stroke:#000000;stroke-miterlimit:1;" x1="397.48" y1="130.793" x2="384.645" y2="123.552"/>
	<line style="fill:none;stroke:#000000;stroke-miterlimit:1;" x1="384.645" y1="123.552" x2="371.479" y2="116.311"/>
	<line style="fill:none;stroke:#000000;stroke-miterlimit:1;" x1="371.479" y1="116.311" x2="364.896" y2="114.007"/>
	<line style="fill:none;stroke:#000000;stroke-miterlimit:1;" x1="364.896" y1="114.007" x2="356.996" y2="111.045"/>
	<line style="fill:none;stroke:#000000;stroke-miterlimit:1;" x1="356.996" y1="111.045" x2="349.097" y2="109.728"/>
	<line style="fill:none;stroke:#000000;stroke-miterlimit:1;" x1="349.097" y1="109.728" x2="343.173" y2="108.411"/>
	<line style="fill:none;stroke:#000000;stroke-miterlimit:1;" x1="343.173" y1="108.411" x2="335.932" y2="108.411"/>
	<line style="fill:none;stroke:#000000;stroke-miterlimit:1;" x1="335.932" y1="108.411" x2="328.69" y2="109.398"/>
	<line style="fill:none;stroke:#000000;stroke-miterlimit:1;" x1="328.69" y1="109.398" x2="321.449" y2="111.703"/>
	<line style="fill:none;stroke:#000000;stroke-miterlimit:1;" x1="321.449" y1="111.703" x2="314.208" y2="115.323"/>
	<line style="fill:none;stroke:#000000;stroke-miterlimit:1;" x1="314.208" y1="115.323" x2="306.309" y2="121.248"/>
	<line style="fill:none;stroke:#000000;stroke-miterlimit:1;" x1="306.309" y1="121.248" x2="301.042" y2="126.186"/>
	<line style="fill:none;stroke:#000000;stroke-miterlimit:1;" x1="301.042" y1="126.186" x2="295.775" y2="129.477"/>
	<line style="fill:none;stroke:#000000;stroke-miterlimit:1;" x1="295.775" y1="129.477" x2="291.497" y2="132.438"/>
	<line style="fill:none;stroke:#000000;stroke-miterlimit:1;" x1="291.497" y1="132.438" x2="287.876" y2="133.427"/>
	<line style="fill:none;stroke:#000000;stroke-miterlimit:1;" x1="287.876" y1="133.427" x2="283.927" y2="135.072"/>
	<line style="fill:none;stroke:#000000;stroke-miterlimit:1;" x1="283.927" y1="135.072" x2="279.977" y2="136.389"/>
	<line style="fill:none;stroke:#000000;stroke-miterlimit:1;" x1="279.977" y1="136.389" x2="273.395" y2="137.376"/>
	<line style="fill:none;stroke:#000000;stroke-miterlimit:1;" x1="280.307" y1="136.06" x2="285.901" y2="136.06"/>
	<line style="fill:none;stroke:#000000;stroke-miterlimit:1;" x1="285.901" y1="136.06" x2="290.839" y2="135.73"/>
	<line style="fill:none;stroke:#000000;stroke-miterlimit:1;" x1="290.839" y1="135.73" x2="295.775" y2="136.718"/>
	<line style="fill:none;stroke:#000000;stroke-miterlimit:1;" x1="295.775" y1="136.718" x2="304.334" y2="138.692"/>
	<line style="fill:none;stroke:#000000;stroke-miterlimit:1;" x1="304.334" y1="138.692" x2="310.916" y2="141.326"/>
	<line style="fill:none;stroke:#000000;stroke-miterlimit:1;" x1="310.916" y1="141.326" x2="318.157" y2="142.972"/>
	<line style="fill:none;stroke:#000000;stroke-miterlimit:1;" x1="318.157" y1="142.972" x2="326.057" y2="144.946"/>
	<line style="fill:none;stroke:#000000;stroke-miterlimit:1;" x1="326.057" y1="144.946" x2="330.994" y2="145.934"/>
	<line style="fill:none;stroke:#000000;stroke-miterlimit:1;" x1="330.994" y1="145.934" x2="339.881" y2="146.263"/>
	<line style="fill:none;stroke:#000000;stroke-miterlimit:1;" x1="339.881" y1="146.263" x2="351.401" y2="145.275"/>
	<line style="fill:none;stroke:#000000;stroke-miterlimit:1;" x1="351.401" y1="145.275" x2="356.996" y2="144.617"/>
	<line style="fill:none;stroke:#000000;stroke-miterlimit:1;" x1="356.996" y1="144.617" x2="375.429" y2="142.313"/>
	<line style="fill:none;stroke:#000000;stroke-miterlimit:1;" x1="375.429" y1="142.313" x2="382.67" y2="141.326"/>
	<line style="fill:none;stroke:#000000;stroke-miterlimit:1;" x1="382.67" y1="141.326" x2="389.252" y2="140.667"/>
	<line style="fill:none;stroke:#000000;stroke-miterlimit:1;" x1="389.252" y1="140.667" x2="395.835" y2="140.009"/>
	<line style="fill:none;stroke:#000000;stroke-miterlimit:1;" x1="395.835" y1="140.009" x2="409.001" y2="139.351"/>
	<line style="fill:none;stroke:#000000;stroke-miterlimit:1;" x1="409.001" y1="139.351" x2="415.584" y2="140.009"/>
	<line style="fill:none;stroke:#000000;stroke-miterlimit:1;" x1="415.584" y1="140.009" x2="421.18" y2="140.667"/>
	<line style="fill:none;stroke:#000000;stroke-miterlimit:1;" x1="421.18" y1="140.667" x2="426.774" y2="141.326"/>
	<line style="fill:none;stroke:#000000;stroke-miterlimit:1;" x1="426.774" y1="141.326" x2="429.737" y2="141.326"/>
	<line style="fill:none;stroke:#000000;stroke-miterlimit:1;" x1="319.804" y1="113.02" x2="317.499" y2="116.311"/>
	<line style="fill:none;stroke:#000000;stroke-miterlimit:1;" x1="317.499" y1="116.311" x2="316.841" y2="118.944"/>
	<line style="fill:none;stroke:#000000;stroke-miterlimit:1;" x1="316.841" y1="118.944" x2="315.854" y2="122.235"/>
	<line style="fill:none;stroke:#000000;stroke-miterlimit:1;" x1="315.854" y1="122.235" x2="315.524" y2="125.526"/>
	<line style="fill:none;stroke:#000000;stroke-miterlimit:1;" x1="315.524" y1="125.526" x2="316.841" y2="131.451"/>
	<line style="fill:none;stroke:#000000;stroke-miterlimit:1;" x1="316.841" y1="131.451" x2="318.815" y2="134.414"/>
	<line style="fill:none;stroke:#000000;stroke-miterlimit:1;" x1="318.815" y1="134.414" x2="320.791" y2="137.376"/>
	<line style="fill:none;stroke:#000000;stroke-miterlimit:1;" x1="320.791" y1="137.376" x2="324.082" y2="140.009"/>
	<line style="fill:none;stroke:#000000;stroke-miterlimit:1;" x1="324.082" y1="140.009" x2="327.703" y2="141.984"/>
	<line style="fill:none;stroke:#000000;stroke-miterlimit:1;" x1="327.703" y1="141.984" x2="335.273" y2="142.972"/>
	<line style="fill:none;stroke:#000000;stroke-miterlimit:1;" x1="335.273" y1="142.972" x2="340.868" y2="142.313"/>
	<line style="fill:none;stroke:#000000;stroke-miterlimit:1;" x1="340.868" y1="142.313" x2="345.147" y2="141.655"/>
	<line style="fill:none;stroke:#000000;stroke-miterlimit:1;" x1="345.147" y1="141.655" x2="350.413" y2="138.034"/>
	<line style="fill:none;stroke:#000000;stroke-miterlimit:1;" x1="350.413" y1="138.034" x2="353.705" y2="134.085"/>
	<line style="fill:none;stroke:#000000;stroke-miterlimit:1;" x1="353.705" y1="134.085" x2="355.351" y2="131.122"/>
	<line style="fill:none;stroke:#000000;stroke-miterlimit:1;" x1="355.351" y1="131.122" x2="356.338" y2="124.868"/>
	<line style="fill:none;stroke:#000000;stroke-miterlimit:1;" x1="356.338" y1="124.868" x2="355.68" y2="118.944"/>
	<line style="fill:none;stroke:#000000;stroke-miterlimit:1;" x1="355.68" y1="118.944" x2="354.034" y2="115.652"/>
	<line style="fill:none;stroke:#000000;stroke-miterlimit:1;" x1="354.034" y1="115.652" x2="352.389" y2="113.02"/>
	<line style="fill:none;stroke:#000000;stroke-miterlimit:1;" x1="352.389" y1="113.02" x2="349.097" y2="109.728"/>
	<line style="fill:none;stroke:#000000;stroke-miterlimit:1;" x1="45.598" y1="98.379" x2="64.336" y2="98.379"/>
	<line style="fill:none;stroke:#000000;stroke-miterlimit:1;" x1="64.336" y1="98.379" x2="64.024" y2="91.508"/>
	<line style="fill:none;stroke:#000000;stroke-miterlimit:1;" x1="64.024" y1="91.508" x2="65.898" y2="82.45"/>
	<line style="fill:none;stroke:#000000;stroke-miterlimit:1;" x1="65.898" y1="82.45" x2="67.771" y2="77.142"/>
	<line style="fill:none;stroke:#000000;stroke-miterlimit:1;" x1="67.771" y1="77.142" x2="71.52" y2="68.709"/>
	<line style="fill:none;stroke:#000000;stroke-miterlimit:1;" x1="71.52" y1="68.709" x2="88.697" y2="38.415"/>
	<line style="fill:none;stroke:#000000;stroke-miterlimit:1;" x1="88.697" y1="38.415" x2="89.634" y2="31.856"/>
	<line style="fill:none;stroke:#000000;stroke-miterlimit:1;" x1="89.634" y1="31.856" x2="89.946" y2="28.733"/>
	<line style="fill:none;stroke:#000000;stroke-miterlimit:1;" x1="89.946" y1="28.733" x2="89.321" y2="23.111"/>
	<line style="fill:none;stroke:#000000;stroke-miterlimit:1;" x1="89.321" y1="23.111" x2="88.384" y2="19.363"/>
	<line style="fill:none;stroke:#000000;stroke-miterlimit:1;" x1="88.384" y1="19.363" x2="86.823" y2="14.679"/>
	<line style="fill:none;stroke:#000000;stroke-miterlimit:1;" x1="86.823" y1="14.679" x2="84.012" y2="10.306"/>
	<line style="fill:none;stroke:#000000;stroke-miterlimit:1;" x1="84.012" y1="10.306" x2="81.826" y2="7.808"/>
	<line style="fill:none;stroke:#000000;stroke-miterlimit:1;" x1="81.826" y1="7.808" x2="76.204" y2="2.499"/>
	<line style="fill:none;stroke:#000000;stroke-miterlimit:1;" x1="76.204" y1="2.499" x2="71.832" y2="0.937"/>
	<line style="fill:none;stroke:#000000;stroke-miterlimit:1;" x1="71.832" y1="0.937" x2="62.774" y2="0"/>
	<line style="fill:none;stroke:#000000;stroke-miterlimit:1;" x1="62.774" y1="0" x2="55.279" y2="0.937"/>
	<line style="fill:none;stroke:#000000;stroke-miterlimit:1;" x1="55.279" y1="0.937" x2="52.156" y2="2.186"/>
	<line style="fill:none;stroke:#000000;stroke-miterlimit:1;" x1="52.156" y1="2.186" x2="48.408" y2="4.685"/>
	<line style="fill:none;stroke:#000000;stroke-miterlimit:1;" x1="48.408" y1="4.685" x2="44.973" y2="8.433"/>
	<line style="fill:none;stroke:#000000;stroke-miterlimit:1;" x1="44.973" y1="8.433" x2="43.411" y2="10.619"/>
	<line style="fill:none;stroke:#000000;stroke-miterlimit:1;" x1="43.411" y1="10.619" x2="41.85" y2="12.493"/>
	<line style="fill:none;stroke:#000000;stroke-miterlimit:1;" x1="40.913" y1="12.805" x2="38.102" y2="14.054"/>
	<line style="fill:none;stroke:#000000;stroke-miterlimit:1;" x1="38.102" y1="14.054" x2="7.495" y2="19.988"/>
	<line style="fill:none;stroke:#000000;stroke-miterlimit:1;" x1="7.495" y1="19.988" x2="4.685" y2="22.174"/>
	<line style="fill:none;stroke:#000000;stroke-miterlimit:1;" x1="4.685" y1="22.174" x2="2.499" y2="23.736"/>
	<line style="fill:none;stroke:#000000;stroke-miterlimit:1;" x1="2.499" y1="23.736" x2="0.625" y2="27.171"/>
	<line style="fill:none;stroke:#000000;stroke-miterlimit:1;" x1="0.625" y1="27.171" x2="0" y2="32.168"/>
	<line style="fill:none;stroke:#000000;stroke-miterlimit:1;" x1="0" y1="32.168" x2="0.312" y2="33.417"/>
	<line style="fill:none;stroke:#000000;stroke-miterlimit:1;" x1="0.312" y1="33.417" x2="1.249" y2="34.042"/>
	<line style="fill:none;stroke:#000000;stroke-miterlimit:1;" x1="1.249" y1="34.042" x2="1.874" y2="34.042"/>
	<line style="fill:none;stroke:#000000;stroke-miterlimit:1;" x1="1.874" y1="34.042" x2="3.435" y2="33.417"/>
	<line style="fill:none;stroke:#000000;stroke-miterlimit:1;" x1="3.435" y1="33.417" x2="4.06" y2="30.606"/>
	<line style="fill:none;stroke:#000000;stroke-miterlimit:1;" x1="4.06" y1="30.606" x2="5.934" y2="27.796"/>
	<line style="fill:none;stroke:#000000;stroke-miterlimit:1;" x1="5.934" y1="27.796" x2="8.745" y2="25.297"/>
	<line style="fill:none;stroke:#000000;stroke-miterlimit:1;" x1="8.745" y1="25.297" x2="11.868" y2="24.36"/>
	<line style="fill:none;stroke:#000000;stroke-miterlimit:1;" x1="11.868" y1="24.36" x2="15.928" y2="23.111"/>
	<line style="fill:none;stroke:#000000;stroke-miterlimit:1;" x1="15.928" y1="23.111" x2="41.225" y2="19.676"/>
	<line style="fill:none;stroke:#000000;stroke-miterlimit:1;" x1="41.225" y1="19.676" x2="41.85" y2="19.363"/>
	<line style="fill:none;stroke:#000000;stroke-miterlimit:1;" x1="41.85" y1="19.363" x2="45.598" y2="19.988"/>
	<line style="fill:none;stroke:#000000;stroke-miterlimit:1;" x1="41.225" y1="12.805" x2="45.598" y2="20.3"/>
	<line style="fill:none;stroke:#000000;stroke-miterlimit:1;" x1="45.598" y1="20.3" x2="45.598" y2="24.36"/>
	<line style="fill:none;stroke:#000000;stroke-miterlimit:1;" x1="4.685" y1="30.294" x2="7.495" y2="28.42"/>
	<line style="fill:none;stroke:#000000;stroke-miterlimit:1;" x1="7.495" y1="28.42" x2="12.18" y2="27.171"/>
	<line style="fill:none;stroke:#000000;stroke-miterlimit:1;" x1="12.18" y1="27.171" x2="24.36" y2="25.922"/>
	<line style="fill:none;stroke:#000000;stroke-miterlimit:1;" x1="24.36" y1="25.922" x2="36.541" y2="24.36"/>
	<line style="fill:none;stroke:#000000;stroke-miterlimit:1;" x1="36.541" y1="24.36" x2="41.538" y2="24.36"/>
	<line style="fill:none;stroke:#000000;stroke-miterlimit:1;" x1="41.538" y1="24.36" x2="45.91" y2="24.36"/>
	<line style="fill:none;stroke:#000000;stroke-miterlimit:1;" x1="45.91" y1="24.36" x2="48.408" y2="24.673"/>
	<line style="fill:none;stroke:#000000;stroke-miterlimit:1;" x1="48.408" y1="24.673" x2="53.405" y2="25.922"/>
	<line style="fill:none;stroke:#000000;stroke-miterlimit:1;" x1="53.405" y1="25.922" x2="62.15" y2="27.483"/>
	<line style="fill:none;stroke:#000000;stroke-miterlimit:1;" x1="62.15" y1="27.483" x2="66.835" y2="27.796"/>
	<line style="fill:none;stroke:#000000;stroke-miterlimit:1;" x1="66.835" y1="27.796" x2="70.27" y2="27.483"/>
	<line style="fill:none;stroke:#000000;stroke-miterlimit:1;" x1="70.27" y1="27.483" x2="74.018" y2="26.546"/>
	<line style="fill:none;stroke:#000000;stroke-miterlimit:1;" x1="74.018" y1="26.546" x2="76.204" y2="27.796"/>
	<line style="fill:none;stroke:#000000;stroke-miterlimit:1;" x1="76.204" y1="27.796" x2="77.141" y2="29.357"/>
	<line style="fill:none;stroke:#000000;stroke-miterlimit:1;" x1="77.141" y1="29.357" x2="77.453" y2="33.105"/>
	<line style="fill:none;stroke:#000000;stroke-miterlimit:1;" x1="77.453" y1="33.105" x2="77.141" y2="36.229"/>
	<line style="fill:none;stroke:#000000;stroke-miterlimit:1;" x1="77.141" y1="36.229" x2="75.58" y2="39.976"/>
	<line style="fill:none;stroke:#000000;stroke-miterlimit:1;" x1="75.58" y1="39.976" x2="61.838" y2="58.09"/>
	<line style="fill:none;stroke:#000000;stroke-miterlimit:1;" x1="61.838" y1="58.09" x2="54.967" y2="69.021"/>
	<line style="fill:none;stroke:#000000;stroke-miterlimit:1;" x1="54.967" y1="69.021" x2="52.156" y2="74.643"/>
	<line style="fill:none;stroke:#000000;stroke-miterlimit:1;" x1="52.156" y1="74.643" x2="48.721" y2="81.201"/>
	<line style="fill:none;stroke:#000000;stroke-miterlimit:1;" x1="48.721" y1="81.201" x2="46.847" y2="89.634"/>
	<line style="fill:none;stroke:#000000;stroke-miterlimit:1;" x1="46.847" y1="89.634" x2="45.598" y2="98.379"/>
	<line style="fill:none;stroke:#000000;stroke-miterlimit:1;" x1="72.457" y1="1.249" x2="88.697" y2="7.183"/>
	<line style="fill:none;stroke:#000000;stroke-miterlimit:1;" x1="88.697" y1="7.183" x2="104.625" y2="11.243"/>
	<line style="fill:none;stroke:#000000;stroke-miterlimit:1;" x1="104.625" y1="11.243" x2="111.183" y2="12.493"/>
	<line style="fill:none;stroke:#000000;stroke-miterlimit:1;" x1="111.183" y1="12.493" x2="116.805" y2="12.805"/>
	<line style="fill:none;stroke:#000000;stroke-miterlimit:1;" x1="116.805" y1="12.805" x2="123.676" y2="12.805"/>
	<line style="fill:none;stroke:#000000;stroke-miterlimit:1;" x1="123.676" y1="12.805" x2="131.171" y2="12.493"/>
	<line style="fill:none;stroke:#000000;stroke-miterlimit:1;" x1="131.171" y1="12.493" x2="136.793" y2="11.243"/>
	<line style="fill:none;stroke:#000000;stroke-miterlimit:1;" x1="136.793" y1="11.243" x2="142.415" y2="9.994"/>
	<line style="fill:none;stroke:#000000;stroke-miterlimit:1;" x1="142.415" y1="9.994" x2="143.039" y2="10.619"/>
	<line style="fill:none;stroke:#000000;stroke-miterlimit:1;" x1="143.039" y1="10.619" x2="142.415" y2="12.805"/>
	<line style="fill:none;stroke:#000000;stroke-miterlimit:1;" x1="142.415" y1="12.805" x2="140.228" y2="14.366"/>
	<line style="fill:none;stroke:#000000;stroke-miterlimit:1;" x1="140.228" y1="14.366" x2="132.733" y2="15.928"/>
	<line style="fill:none;stroke:#000000;stroke-miterlimit:1;" x1="132.733" y1="15.928" x2="125.237" y2="16.865"/>
	<line style="fill:none;stroke:#000000;stroke-miterlimit:1;" x1="125.237" y1="16.865" x2="116.805" y2="16.865"/>
	<line style="fill:none;stroke:#000000;stroke-miterlimit:1;" x1="116.805" y1="16.865" x2="109.622" y2="16.24"/>
	<line style="fill:none;stroke:#000000;stroke-miterlimit:1;" x1="109.622" y1="16.24" x2="97.441" y2="14.054"/>
	<line style="fill:none;stroke:#000000;stroke-miterlimit:1;" x1="97.441" y1="14.054" x2="90.57" y2="11.868"/>
	<line style="fill:none;stroke:#000000;stroke-miterlimit:1;" x1="81.826" y1="7.183" x2="94.006" y2="13.742"/>
	<line style="fill:none;stroke:#000000;stroke-miterlimit:1;" x1="94.006" y1="13.742" x2="106.186" y2="19.988"/>
	<line style="fill:none;stroke:#000000;stroke-miterlimit:1;" x1="106.186" y1="19.988" x2="113.682" y2="23.736"/>
	<line style="fill:none;stroke:#000000;stroke-miterlimit:1;" x1="113.682" y1="23.736" x2="119.303" y2="25.922"/>
	<line style="fill:none;stroke:#000000;stroke-miterlimit:1;" x1="119.303" y1="25.922" x2="125.549" y2="27.483"/>
	<line style="fill:none;stroke:#000000;stroke-miterlimit:1;" x1="125.549" y1="27.483" x2="129.922" y2="28.108"/>
	<line style="fill:none;stroke:#000000;stroke-miterlimit:1;" x1="129.922" y1="28.108" x2="138.042" y2="29.045"/>
	<line style="fill:none;stroke:#000000;stroke-miterlimit:1;" x1="138.042" y1="29.045" x2="141.478" y2="28.42"/>
	<line style="fill:none;stroke:#000000;stroke-miterlimit:1;" x1="141.478" y1="28.42" x2="143.039" y2="28.108"/>
	<line style="fill:none;stroke:#000000;stroke-miterlimit:1;" x1="143.039" y1="28.108" x2="144.288" y2="29.045"/>
	<line style="fill:none;stroke:#000000;stroke-miterlimit:1;" x1="144.288" y1="29.045" x2="144.601" y2="30.919"/>
	<line style="fill:none;stroke:#000000;stroke-miterlimit:1;" x1="144.601" y1="30.919" x2="139.916" y2="32.48"/>
	<line style="fill:none;stroke:#000000;stroke-miterlimit:1;" x1="139.916" y1="32.48" x2="134.294" y2="33.105"/>
	<line style="fill:none;stroke:#000000;stroke-miterlimit:1;" x1="134.294" y1="33.105" x2="128.048" y2="32.168"/>
	<line style="fill:none;stroke:#000000;stroke-miterlimit:1;" x1="128.048" y1="32.168" x2="119.303" y2="30.294"/>
	<line style="fill:none;stroke:#000000;stroke-miterlimit:1;" x1="119.303" y1="30.294" x2="111.808" y2="27.796"/>
	<line style="fill:none;stroke:#000000;stroke-miterlimit:1;" x1="111.808" y1="27.796" x2="104.625" y2="24.36"/>
	<line style="fill:none;stroke:#000000;stroke-miterlimit:1;" x1="104.625" y1="24.36" x2="87.135" y2="14.366"/>
	<line style="fill:none;stroke:#000000;stroke-miterlimit:1;" x1="55.591" y1="9.057" x2="53.718" y2="9.369"/>
	<line style="fill:none;stroke:#000000;stroke-miterlimit:1;" x1="53.718" y1="9.369" x2="52.156" y2="11.243"/>
	<line style="fill:none;stroke:#000000;stroke-miterlimit:1;" x1="52.156" y1="11.243" x2="52.156" y2="13.43"/>
	<line style="fill:none;stroke:#000000;stroke-miterlimit:1;" x1="52.156" y1="13.43" x2="53.718" y2="14.991"/>
	<line style="fill:none;stroke:#000000;stroke-miterlimit:1;" x1="53.718" y1="14.991" x2="55.904" y2="14.991"/>
	<line style="fill:none;stroke:#000000;stroke-miterlimit:1;" x1="55.904" y1="14.991" x2="58.09" y2="14.054"/>
	<line style="fill:none;stroke:#000000;stroke-miterlimit:1;" x1="58.09" y1="14.054" x2="58.402" y2="12.805"/>
	<line style="fill:none;stroke:#000000;stroke-miterlimit:1;" x1="58.402" y1="12.805" x2="57.778" y2="10.931"/>
	<line style="fill:none;stroke:#000000;stroke-miterlimit:1;" x1="57.778" y1="10.931" x2="56.216" y2="9.057"/>
	<line style="fill:none;stroke:#000000;stroke-miterlimit:1;" x1="164.571" y1="88.704" x2="190.903" y2="147.95"/>
	<line style="fill:none;stroke:#000000;stroke-miterlimit:1;" x1="190.903" y1="147.95" x2="204.068" y2="147.95"/>
	<line style="fill:none;stroke:#000000;stroke-miterlimit:1;" x1="204.068" y1="147.95" x2="177.737" y2="88.704"/>
	<line style="fill:none;stroke:#000000;stroke-miterlimit:1;" x1="177.737" y1="88.704" x2="164.571" y2="88.704"/>
	<line style="fill:none;stroke:#000000;stroke-miterlimit:1;" x1="204.397" y1="88.704" x2="230.729" y2="147.95"/>
	<line style="fill:none;stroke:#000000;stroke-miterlimit:1;" x1="230.729" y1="147.95" x2="243.895" y2="147.95"/>
	<line style="fill:none;stroke:#000000;stroke-miterlimit:1;" x1="243.895" y1="147.95" x2="217.563" y2="88.704"/>
	<line style="fill:none;stroke:#000000;stroke-miterlimit:1;" x1="217.563" y1="88.704" x2="204.397" y2="88.704"/>
	<line style="fill:none;stroke:#000000;stroke-miterlimit:1;" x1="92.249" y1="148.114" x2="18.543" y2="148.114"/>
	<line style="fill:none;stroke:#000000;stroke-miterlimit:1;" x1="18.543" y1="148.114" x2="19.48" y2="141.868"/>
	<line style="fill:none;stroke:#000000;stroke-miterlimit:1;" x1="19.48" y1="141.868" x2="20.417" y2="137.808"/>
	<line style="fill:none;stroke:#000000;stroke-miterlimit:1;" x1="20.417" y1="137.808" x2="21.979" y2="133.748"/>
	<line style="fill:none;stroke:#000000;stroke-miterlimit:1;" x1="21.979" y1="133.748" x2="24.165" y2="130.625"/>
	<line style="fill:none;stroke:#000000;stroke-miterlimit:1;" x1="24.165" y1="130.625" x2="26.039" y2="127.813"/>
	<line style="fill:none;stroke:#000000;stroke-miterlimit:1;" x1="26.039" y1="127.813" x2="28.538" y2="124.379"/>
	<line style="fill:none;stroke:#000000;stroke-miterlimit:1;" x1="28.538" y1="124.379" x2="31.348" y2="121.88"/>
	<line style="fill:none;stroke:#000000;stroke-miterlimit:1;" x1="31.348" y1="121.88" x2="34.784" y2="119.382"/>
	<line style="fill:none;stroke:#000000;stroke-miterlimit:1;" x1="34.784" y1="119.382" x2="37.594" y2="117.508"/>
	<line style="fill:none;stroke:#000000;stroke-miterlimit:1;" x1="37.594" y1="117.508" x2="41.654" y2="115.634"/>
	<line style="fill:none;stroke:#000000;stroke-miterlimit:1;" x1="41.654" y1="115.634" x2="45.714" y2="114.385"/>
	<line style="fill:none;stroke:#000000;stroke-miterlimit:1;" x1="45.714" y1="114.385" x2="48.525" y2="113.76"/>
	<line style="fill:none;stroke:#000000;stroke-miterlimit:1;" x1="48.525" y1="113.76" x2="53.522" y2="113.136"/>
	<line style="fill:none;stroke:#000000;stroke-miterlimit:1;" x1="53.522" y1="113.136" x2="57.27" y2="113.136"/>
	<line style="fill:none;stroke:#000000;stroke-miterlimit:1;" x1="57.27" y1="113.136" x2="60.706" y2="113.76"/>
	<line style="fill:none;stroke:#000000;stroke-miterlimit:1;" x1="60.706" y1="113.76" x2="64.453" y2="114.385"/>
	<line style="fill:none;stroke:#000000;stroke-miterlimit:1;" x1="64.453" y1="114.385" x2="68.513" y2="115.321"/>
	<line style="fill:none;stroke:#000000;stroke-miterlimit:1;" x1="68.513" y1="115.321" x2="71.324" y2="116.259"/>
	<line style="fill:none;stroke:#000000;stroke-miterlimit:1;" x1="71.324" y1="116.259" x2="75.072" y2="118.757"/>
	<line style="fill:none;stroke:#000000;stroke-miterlimit:1;" x1="75.072" y1="118.757" x2="78.195" y2="120.943"/>
	<line style="fill:none;stroke:#000000;stroke-miterlimit:1;" x1="78.195" y1="120.943" x2="81.006" y2="123.129"/>
	<line style="fill:none;stroke:#000000;stroke-miterlimit:1;" x1="81.006" y1="123.129" x2="83.504" y2="126.252"/>
	<line style="fill:none;stroke:#000000;stroke-miterlimit:1;" x1="83.504" y1="126.252" x2="86.003" y2="129.688"/>
	<line style="fill:none;stroke:#000000;stroke-miterlimit:1;" x1="86.003" y1="129.688" x2="88.189" y2="133.123"/>
	<line style="fill:none;stroke:#000000;stroke-miterlimit:1;" x1="88.189" y1="133.123" x2="89.75" y2="136.246"/>
	<line style="fill:none;stroke:#000000;stroke-miterlimit:1;" x1="89.75" y1="136.246" x2="91" y2="140.931"/>
	<line style="fill:none;stroke:#000000;stroke-miterlimit:1;" x1="91" y1="140.931" x2="91.937" y2="144.366"/>
	<line style="fill:none;stroke:#000000;stroke-miterlimit:1;" x1="91.937" y1="144.366" x2="92.249" y2="148.114"/>
	<line style="fill:none;stroke:#000000;stroke-miterlimit:1;" x1="196.539" y1="73.275" x2="239.328" y2="32.133"/>
	<line style="fill:none;stroke:#000000;stroke-miterlimit:1;" x1="181.069" y1="67.351" x2="233.732" y2="16.992"/>
	<line style="fill:none;stroke:#000000;stroke-miterlimit:1;" x1="170.866" y1="56.489" x2="223.529" y2="6.13"/>
	<line style="fill:none;stroke:#000000;stroke-miterlimit:1;" x1="165.6" y1="41.02" x2="207.73" y2="0.864"/>
	<line style="fill:none;stroke:#000000;stroke-miterlimit:1;" x1="217.934" y1="3.168" x2="214.313" y2="2.181"/>
	<line style="fill:none;stroke:#000000;stroke-miterlimit:1;" x1="214.313" y1="2.181" x2="210.692" y2="0.864"/>
	<line style="fill:none;stroke:#000000;stroke-miterlimit:1;" x1="210.692" y1="0.864" x2="206.743" y2="0.206"/>
	<line style="fill:none;stroke:#000000;stroke-miterlimit:1;" x1="206.743" y1="0.206" x2="202.793" y2="0.206"/>
	<line style="fill:none;stroke:#000000;stroke-miterlimit:1;" x1="202.793" y1="0.206" x2="198.514" y2="0.535"/>
	<line style="fill:none;stroke:#000000;stroke-miterlimit:1;" x1="198.514" y1="0.535" x2="194.894" y2="0.864"/>
	<line style="fill:none;stroke:#000000;stroke-miterlimit:1;" x1="194.894" y1="0.864" x2="190.944" y2="2.181"/>
	<line style="fill:none;stroke:#000000;stroke-miterlimit:1;" x1="190.944" y1="2.181" x2="187.323" y2="3.497"/>
	<line style="fill:none;stroke:#000000;stroke-miterlimit:1;" x1="187.323" y1="3.497" x2="183.703" y2="5.143"/>
	<line style="fill:none;stroke:#000000;stroke-miterlimit:1;" x1="183.703" y1="5.143" x2="180.411" y2="7.447"/>
	<line style="fill:none;stroke:#000000;stroke-miterlimit:1;" x1="180.411" y1="7.447" x2="177.778" y2="9.751"/>
	<line style="fill:none;stroke:#000000;stroke-miterlimit:1;" x1="177.778" y1="9.751" x2="175.145" y2="12.384"/>
	<line style="fill:none;stroke:#000000;stroke-miterlimit:1;" x1="175.145" y1="12.384" x2="173.17" y2="14.688"/>
	<line style="fill:none;stroke:#000000;stroke-miterlimit:1;" x1="173.17" y1="14.688" x2="171.195" y2="17.65"/>
	<line style="fill:none;stroke:#000000;stroke-miterlimit:1;" x1="171.195" y1="17.65" x2="168.891" y2="21.929"/>
	<line style="fill:none;stroke:#000000;stroke-miterlimit:1;" x1="168.891" y1="21.929" x2="167.904" y2="25.221"/>
	<line style="fill:none;stroke:#000000;stroke-miterlimit:1;" x1="167.904" y1="25.221" x2="166.917" y2="28.841"/>
	<line style="fill:none;stroke:#000000;stroke-miterlimit:1;" x1="166.917" y1="28.841" x2="166.258" y2="32.462"/>
	<line style="fill:none;stroke:#000000;stroke-miterlimit:1;" x1="166.258" y1="32.462" x2="165.6" y2="36.741"/>
	<line style="fill:none;stroke:#000000;stroke-miterlimit:1;" x1="165.6" y1="36.741" x2="165.6" y2="40.361"/>
	<line style="fill:none;stroke:#000000;stroke-miterlimit:1;" x1="165.6" y1="40.361" x2="166.258" y2="44.64"/>
	<line style="fill:none;stroke:#000000;stroke-miterlimit:1;" x1="166.258" y1="44.64" x2="167.246" y2="48.261"/>
	<line style="fill:none;stroke:#000000;stroke-miterlimit:1;" x1="167.246" y1="48.261" x2="168.233" y2="51.552"/>
	<line style="fill:none;stroke:#000000;stroke-miterlimit:1;" x1="168.233" y1="51.552" x2="169.879" y2="55.172"/>
	<line style="fill:none;stroke:#000000;stroke-miterlimit:1;" x1="169.879" y1="55.172" x2="170.866" y2="57.147"/>
	<line style="fill:none;stroke:#000000;stroke-miterlimit:1;" x1="170.866" y1="57.147" x2="172.183" y2="58.793"/>
	<line style="fill:none;stroke:#000000;stroke-miterlimit:1;" x1="172.183" y1="58.793" x2="175.474" y2="62.414"/>
	<line style="fill:none;stroke:#000000;stroke-miterlimit:1;" x1="175.474" y1="62.414" x2="178.766" y2="65.705"/>
	<line style="fill:none;stroke:#000000;stroke-miterlimit:1;" x1="178.766" y1="65.705" x2="181.728" y2="68.009"/>
	<line style="fill:none;stroke:#000000;stroke-miterlimit:1;" x1="181.728" y1="68.009" x2="185.349" y2="69.984"/>
	<line style="fill:none;stroke:#000000;stroke-miterlimit:1;" x1="185.349" y1="69.984" x2="189.298" y2="71.959"/>
	<line style="fill:none;stroke:#000000;stroke-miterlimit:1;" x1="189.298" y1="71.959" x2="193.248" y2="72.946"/>
	<line style="fill:none;stroke:#000000;stroke-miterlimit:1;" x1="193.248" y1="72.946" x2="196.539" y2="73.934"/>
	<line style="fill:none;stroke:#000000;stroke-miterlimit:1;" x1="196.539" y1="73.934" x2="200.489" y2="73.934"/>
	<line style="fill:none;stroke:#000000;stroke-miterlimit:1;" x1="200.489" y1="73.934" x2="204.438" y2="74.263"/>
	<line style="fill:none;stroke:#000000;stroke-miterlimit:1;" x1="204.438" y1="74.263" x2="209.047" y2="73.604"/>
	<line style="fill:none;stroke:#000000;stroke-miterlimit:1;" x1="209.047" y1="73.604" x2="212.338" y2="72.946"/>
	<line style="fill:none;stroke:#000000;stroke-miterlimit:1;" x1="212.338" y1="72.946" x2="216.288" y2="71.301"/>
	<line style="fill:none;stroke:#000000;stroke-miterlimit:1;" x1="216.288" y1="71.301" x2="220.237" y2="69.326"/>
	<line style="fill:none;stroke:#000000;stroke-miterlimit:1;" x1="220.237" y1="69.326" x2="222.871" y2="68.009"/>
	<line style="fill:none;stroke:#000000;stroke-miterlimit:1;" x1="222.871" y1="68.009" x2="225.833" y2="65.376"/>
	<line style="fill:none;stroke:#000000;stroke-miterlimit:1;" x1="225.833" y1="65.376" x2="228.795" y2="62.743"/>
	<line style="fill:none;stroke:#000000;stroke-miterlimit:1;" x1="228.795" y1="62.743" x2="231.758" y2="59.781"/>
	<line style="fill:none;stroke:#000000;stroke-miterlimit:1;" x1="231.758" y1="59.781" x2="234.062" y2="56.16"/>
	<line style="fill:none;stroke:#000000;stroke-miterlimit:1;" x1="234.062" y1="56.16" x2="236.365" y2="52.869"/>
	<line style="fill:none;stroke:#000000;stroke-miterlimit:1;" x1="236.365" y1="52.869" x2="238.012" y2="49.577"/>
	<line style="fill:none;stroke:#000000;stroke-miterlimit:1;" x1="238.012" y1="49.577" x2="238.999" y2="45.627"/>
	<line style="fill:none;stroke:#000000;stroke-miterlimit:1;" x1="238.999" y1="45.627" x2="239.328" y2="42.007"/>
	<line style="fill:none;stroke:#000000;stroke-miterlimit:1;" x1="239.328" y1="42.007" x2="239.986" y2="37.728"/>
	<line style="fill:none;stroke:#000000;stroke-miterlimit:1;" x1="239.986" y1="37.728" x2="239.657" y2="34.107"/>
	<line style="fill:none;stroke:#000000;stroke-miterlimit:1;" x1="239.657" y1="34.107" x2="239.328" y2="29.829"/>
	<line style="fill:none;stroke:#000000;stroke-miterlimit:1;" x1="239.328" y1="29.829" x2="238.341" y2="26.208"/>
	<line style="fill:none;stroke:#000000;stroke-miterlimit:1;" x1="238.341" y1="26.208" x2="237.023" y2="22.917"/>
	<line style="fill:none;stroke:#000000;stroke-miterlimit:1;" x1="237.023" y1="22.917" x2="235.378" y2="18.638"/>
	<line style="fill:none;stroke:#000000;stroke-miterlimit:1;" x1="235.378" y1="18.638" x2="233.074" y2="15.346"/>
	<line style="fill:none;stroke:#000000;stroke-miterlimit:1;" x1="233.074" y1="15.346" x2="230.771" y2="12.713"/>
	<line style="fill:none;stroke:#000000;stroke-miterlimit:1;" x1="230.771" y1="12.713" x2="228.137" y2="9.422"/>
	<line style="fill:none;stroke:#000000;stroke-miterlimit:1;" x1="228.137" y1="9.422" x2="224.846" y2="7.118"/>
	<line style="fill:none;stroke:#000000;stroke-miterlimit:1;" x1="224.846" y1="7.118" x2="221.554" y2="4.813"/>
	<line style="fill:none;stroke:#000000;stroke-miterlimit:1;" x1="221.554" y1="4.813" x2="217.934" y2="3.168"/>
</g>
</svg>
