<?xml version="1.0" encoding="iso-8859-1"?>
<!-- Generator: Adobe Illustrator 16.0.1, SVG Export Plug-In . SVG Version: 6.00 Build 0)  -->
<!DOCTYPE svg PUBLIC "-//W3C//DTD SVG 1.1//EN" "http://www.w3.org/Graphics/SVG/1.1/DTD/svg11.dtd">
<svg version="1.1" id="Ebene_1" xmlns="http://www.w3.org/2000/svg" xmlns:xlink="http://www.w3.org/1999/xlink" x="0px" y="0px"
	 width="369.093px" height="119.767px" viewBox="0 0 369.093 119.767" style="enable-background:new 0 0 369.093 119.767;"
	 xml:space="preserve">
<g>
	<line style="fill:none;stroke:#000000;stroke-miterlimit:1;" x1="178.478" y1="38.222" x2="100.8" y2="38.222"/>
	<line style="fill:none;stroke:#000000;stroke-miterlimit:1;" x1="100.8" y1="38.222" x2="101.787" y2="31.639"/>
	<line style="fill:none;stroke:#000000;stroke-miterlimit:1;" x1="101.787" y1="31.639" x2="102.774" y2="27.36"/>
	<line style="fill:none;stroke:#000000;stroke-miterlimit:1;" x1="102.774" y1="27.36" x2="104.42" y2="23.081"/>
	<line style="fill:none;stroke:#000000;stroke-miterlimit:1;" x1="104.42" y1="23.081" x2="106.724" y2="19.79"/>
	<line style="fill:none;stroke:#000000;stroke-miterlimit:1;" x1="106.724" y1="19.79" x2="108.699" y2="16.828"/>
	<line style="fill:none;stroke:#000000;stroke-miterlimit:1;" x1="108.699" y1="16.828" x2="111.333" y2="13.207"/>
	<line style="fill:none;stroke:#000000;stroke-miterlimit:1;" x1="111.333" y1="13.207" x2="114.294" y2="10.574"/>
	<line style="fill:none;stroke:#000000;stroke-miterlimit:1;" x1="114.294" y1="10.574" x2="117.915" y2="7.94"/>
	<line style="fill:none;stroke:#000000;stroke-miterlimit:1;" x1="117.915" y1="7.94" x2="120.877" y2="5.966"/>
	<line style="fill:none;stroke:#000000;stroke-miterlimit:1;" x1="120.877" y1="5.966" x2="125.156" y2="3.991"/>
	<line style="fill:none;stroke:#000000;stroke-miterlimit:1;" x1="125.156" y1="3.991" x2="129.435" y2="2.674"/>
	<line style="fill:none;stroke:#000000;stroke-miterlimit:1;" x1="129.435" y1="2.674" x2="132.397" y2="2.016"/>
	<line style="fill:none;stroke:#000000;stroke-miterlimit:1;" x1="132.397" y1="2.016" x2="137.664" y2="1.358"/>
	<line style="fill:none;stroke:#000000;stroke-miterlimit:1;" x1="137.664" y1="1.358" x2="141.613" y2="1.358"/>
	<line style="fill:none;stroke:#000000;stroke-miterlimit:1;" x1="141.613" y1="1.358" x2="145.234" y2="2.016"/>
	<line style="fill:none;stroke:#000000;stroke-miterlimit:1;" x1="145.234" y1="2.016" x2="149.184" y2="2.674"/>
	<line style="fill:none;stroke:#000000;stroke-miterlimit:1;" x1="149.184" y1="2.674" x2="153.463" y2="3.662"/>
	<line style="fill:none;stroke:#000000;stroke-miterlimit:1;" x1="153.463" y1="3.662" x2="156.425" y2="4.649"/>
	<line style="fill:none;stroke:#000000;stroke-miterlimit:1;" x1="156.425" y1="4.649" x2="160.375" y2="7.282"/>
	<line style="fill:none;stroke:#000000;stroke-miterlimit:1;" x1="160.375" y1="7.282" x2="163.666" y2="9.586"/>
	<line style="fill:none;stroke:#000000;stroke-miterlimit:1;" x1="163.666" y1="9.586" x2="166.628" y2="11.891"/>
	<line style="fill:none;stroke:#000000;stroke-miterlimit:1;" x1="166.628" y1="11.891" x2="169.262" y2="15.182"/>
	<line style="fill:none;stroke:#000000;stroke-miterlimit:1;" x1="169.262" y1="15.182" x2="171.895" y2="18.802"/>
	<line style="fill:none;stroke:#000000;stroke-miterlimit:1;" x1="171.895" y1="18.802" x2="174.199" y2="22.423"/>
	<line style="fill:none;stroke:#000000;stroke-miterlimit:1;" x1="174.199" y1="22.423" x2="175.844" y2="25.714"/>
	<line style="fill:none;stroke:#000000;stroke-miterlimit:1;" x1="175.844" y1="25.714" x2="177.161" y2="30.651"/>
	<line style="fill:none;stroke:#000000;stroke-miterlimit:1;" x1="177.161" y1="30.651" x2="178.148" y2="34.272"/>
	<line style="fill:none;stroke:#000000;stroke-miterlimit:1;" x1="178.148" y1="34.272" x2="178.478" y2="38.222"/>
	<line style="fill:none;stroke:#000000;stroke-miterlimit:1;" x1="179.506" y1="119.479" x2="101.828" y2="119.479"/>
	<line style="fill:none;stroke:#000000;stroke-miterlimit:1;" x1="101.828" y1="119.479" x2="102.816" y2="112.896"/>
	<line style="fill:none;stroke:#000000;stroke-miterlimit:1;" x1="102.816" y1="112.896" x2="103.803" y2="108.617"/>
	<line style="fill:none;stroke:#000000;stroke-miterlimit:1;" x1="103.803" y1="108.617" x2="105.449" y2="104.339"/>
	<line style="fill:none;stroke:#000000;stroke-miterlimit:1;" x1="105.449" y1="104.339" x2="107.753" y2="101.047"/>
	<line style="fill:none;stroke:#000000;stroke-miterlimit:1;" x1="107.753" y1="101.047" x2="109.728" y2="98.085"/>
	<line style="fill:none;stroke:#000000;stroke-miterlimit:1;" x1="109.728" y1="98.085" x2="112.361" y2="94.464"/>
	<line style="fill:none;stroke:#000000;stroke-miterlimit:1;" x1="112.361" y1="94.464" x2="115.323" y2="91.831"/>
	<line style="fill:none;stroke:#000000;stroke-miterlimit:1;" x1="115.323" y1="91.831" x2="118.944" y2="89.198"/>
	<line style="fill:none;stroke:#000000;stroke-miterlimit:1;" x1="118.944" y1="89.198" x2="121.906" y2="87.223"/>
	<line style="fill:none;stroke:#000000;stroke-miterlimit:1;" x1="121.906" y1="87.223" x2="126.185" y2="85.248"/>
	<line style="fill:none;stroke:#000000;stroke-miterlimit:1;" x1="126.185" y1="85.248" x2="130.464" y2="83.932"/>
	<line style="fill:none;stroke:#000000;stroke-miterlimit:1;" x1="130.464" y1="83.932" x2="133.426" y2="83.273"/>
	<line style="fill:none;stroke:#000000;stroke-miterlimit:1;" x1="133.426" y1="83.273" x2="138.692" y2="82.615"/>
	<line style="fill:none;stroke:#000000;stroke-miterlimit:1;" x1="138.692" y1="82.615" x2="142.642" y2="82.615"/>
	<line style="fill:none;stroke:#000000;stroke-miterlimit:1;" x1="142.642" y1="82.615" x2="146.263" y2="83.273"/>
	<line style="fill:none;stroke:#000000;stroke-miterlimit:1;" x1="146.263" y1="83.273" x2="150.212" y2="83.932"/>
	<line style="fill:none;stroke:#000000;stroke-miterlimit:1;" x1="150.212" y1="83.932" x2="154.491" y2="84.919"/>
	<line style="fill:none;stroke:#000000;stroke-miterlimit:1;" x1="154.491" y1="84.919" x2="157.454" y2="85.906"/>
	<line style="fill:none;stroke:#000000;stroke-miterlimit:1;" x1="157.454" y1="85.906" x2="161.403" y2="88.54"/>
	<line style="fill:none;stroke:#000000;stroke-miterlimit:1;" x1="161.403" y1="88.54" x2="164.695" y2="90.844"/>
	<line style="fill:none;stroke:#000000;stroke-miterlimit:1;" x1="164.695" y1="90.844" x2="167.657" y2="93.147"/>
	<line style="fill:none;stroke:#000000;stroke-miterlimit:1;" x1="167.657" y1="93.147" x2="170.29" y2="96.438"/>
	<line style="fill:none;stroke:#000000;stroke-miterlimit:1;" x1="170.29" y1="96.438" x2="172.923" y2="100.06"/>
	<line style="fill:none;stroke:#000000;stroke-miterlimit:1;" x1="172.923" y1="100.06" x2="175.227" y2="103.68"/>
	<line style="fill:none;stroke:#000000;stroke-miterlimit:1;" x1="175.227" y1="103.68" x2="176.873" y2="106.972"/>
	<line style="fill:none;stroke:#000000;stroke-miterlimit:1;" x1="176.873" y1="106.972" x2="178.189" y2="111.909"/>
	<line style="fill:none;stroke:#000000;stroke-miterlimit:1;" x1="178.189" y1="111.909" x2="179.177" y2="115.529"/>
	<line style="fill:none;stroke:#000000;stroke-miterlimit:1;" x1="179.177" y1="115.529" x2="179.506" y2="119.479"/>
	<line style="fill:none;stroke:#000000;stroke-miterlimit:1;" x1="366.007" y1="33.573" x2="355.804" y2="31.598"/>
	<line style="fill:none;stroke:#000000;stroke-miterlimit:1;" x1="355.804" y1="31.598" x2="348.562" y2="30.281"/>
	<line style="fill:none;stroke:#000000;stroke-miterlimit:1;" x1="348.562" y1="30.281" x2="343.296" y2="28.307"/>
	<line style="fill:none;stroke:#000000;stroke-miterlimit:1;" x1="343.296" y1="28.307" x2="336.713" y2="25.673"/>
	<line style="fill:none;stroke:#000000;stroke-miterlimit:1;" x1="336.713" y1="25.673" x2="329.801" y2="22.382"/>
	<line style="fill:none;stroke:#000000;stroke-miterlimit:1;" x1="329.801" y1="22.382" x2="316.965" y2="15.141"/>
	<line style="fill:none;stroke:#000000;stroke-miterlimit:1;" x1="316.965" y1="15.141" x2="303.799" y2="7.899"/>
	<line style="fill:none;stroke:#000000;stroke-miterlimit:1;" x1="303.799" y1="7.899" x2="297.216" y2="5.596"/>
	<line style="fill:none;stroke:#000000;stroke-miterlimit:1;" x1="297.216" y1="5.596" x2="289.316" y2="2.633"/>
	<line style="fill:none;stroke:#000000;stroke-miterlimit:1;" x1="289.316" y1="2.633" x2="281.417" y2="1.317"/>
	<line style="fill:none;stroke:#000000;stroke-miterlimit:1;" x1="281.417" y1="1.317" x2="275.492" y2="0"/>
	<line style="fill:none;stroke:#000000;stroke-miterlimit:1;" x1="275.492" y1="0" x2="268.251" y2="0"/>
	<line style="fill:none;stroke:#000000;stroke-miterlimit:1;" x1="268.251" y1="0" x2="261.01" y2="0.987"/>
	<line style="fill:none;stroke:#000000;stroke-miterlimit:1;" x1="261.01" y1="0.987" x2="253.769" y2="3.292"/>
	<line style="fill:none;stroke:#000000;stroke-miterlimit:1;" x1="253.769" y1="3.292" x2="246.527" y2="6.912"/>
	<line style="fill:none;stroke:#000000;stroke-miterlimit:1;" x1="246.527" y1="6.912" x2="238.628" y2="12.837"/>
	<line style="fill:none;stroke:#000000;stroke-miterlimit:1;" x1="238.628" y1="12.837" x2="233.362" y2="17.774"/>
	<line style="fill:none;stroke:#000000;stroke-miterlimit:1;" x1="233.362" y1="17.774" x2="228.096" y2="21.065"/>
	<line style="fill:none;stroke:#000000;stroke-miterlimit:1;" x1="228.096" y1="21.065" x2="223.817" y2="24.027"/>
	<line style="fill:none;stroke:#000000;stroke-miterlimit:1;" x1="223.817" y1="24.027" x2="220.196" y2="25.015"/>
	<line style="fill:none;stroke:#000000;stroke-miterlimit:1;" x1="220.196" y1="25.015" x2="216.247" y2="26.661"/>
	<line style="fill:none;stroke:#000000;stroke-miterlimit:1;" x1="216.247" y1="26.661" x2="212.297" y2="27.977"/>
	<line style="fill:none;stroke:#000000;stroke-miterlimit:1;" x1="212.297" y1="27.977" x2="205.714" y2="28.965"/>
	<line style="fill:none;stroke:#000000;stroke-miterlimit:1;" x1="212.626" y1="27.648" x2="218.222" y2="27.648"/>
	<line style="fill:none;stroke:#000000;stroke-miterlimit:1;" x1="218.222" y1="27.648" x2="223.158" y2="27.319"/>
	<line style="fill:none;stroke:#000000;stroke-miterlimit:1;" x1="223.158" y1="27.319" x2="228.096" y2="28.307"/>
	<line style="fill:none;stroke:#000000;stroke-miterlimit:1;" x1="228.096" y1="28.307" x2="236.653" y2="30.281"/>
	<line style="fill:none;stroke:#000000;stroke-miterlimit:1;" x1="236.653" y1="30.281" x2="243.236" y2="32.915"/>
	<line style="fill:none;stroke:#000000;stroke-miterlimit:1;" x1="243.236" y1="32.915" x2="250.478" y2="34.56"/>
	<line style="fill:none;stroke:#000000;stroke-miterlimit:1;" x1="250.478" y1="34.56" x2="258.377" y2="36.535"/>
	<line style="fill:none;stroke:#000000;stroke-miterlimit:1;" x1="258.377" y1="36.535" x2="263.314" y2="37.522"/>
	<line style="fill:none;stroke:#000000;stroke-miterlimit:1;" x1="263.314" y1="37.522" x2="272.201" y2="37.852"/>
	<line style="fill:none;stroke:#000000;stroke-miterlimit:1;" x1="272.201" y1="37.852" x2="283.721" y2="36.864"/>
	<line style="fill:none;stroke:#000000;stroke-miterlimit:1;" x1="283.721" y1="36.864" x2="289.316" y2="36.206"/>
	<line style="fill:none;stroke:#000000;stroke-miterlimit:1;" x1="289.316" y1="36.206" x2="307.748" y2="33.902"/>
	<line style="fill:none;stroke:#000000;stroke-miterlimit:1;" x1="307.748" y1="33.902" x2="314.989" y2="32.915"/>
	<line style="fill:none;stroke:#000000;stroke-miterlimit:1;" x1="314.989" y1="32.915" x2="321.572" y2="32.256"/>
	<line style="fill:none;stroke:#000000;stroke-miterlimit:1;" x1="321.572" y1="32.256" x2="328.155" y2="31.598"/>
	<line style="fill:none;stroke:#000000;stroke-miterlimit:1;" x1="328.155" y1="31.598" x2="341.321" y2="30.939"/>
	<line style="fill:none;stroke:#000000;stroke-miterlimit:1;" x1="341.321" y1="30.939" x2="347.904" y2="31.598"/>
	<line style="fill:none;stroke:#000000;stroke-miterlimit:1;" x1="347.904" y1="31.598" x2="353.499" y2="32.256"/>
	<line style="fill:none;stroke:#000000;stroke-miterlimit:1;" x1="353.499" y1="32.256" x2="359.095" y2="32.915"/>
	<line style="fill:none;stroke:#000000;stroke-miterlimit:1;" x1="359.095" y1="32.915" x2="362.057" y2="32.915"/>
	<line style="fill:none;stroke:#000000;stroke-miterlimit:1;" x1="252.123" y1="4.608" x2="249.819" y2="7.899"/>
	<line style="fill:none;stroke:#000000;stroke-miterlimit:1;" x1="249.819" y1="7.899" x2="249.161" y2="10.533"/>
	<line style="fill:none;stroke:#000000;stroke-miterlimit:1;" x1="249.161" y1="10.533" x2="248.174" y2="13.824"/>
	<line style="fill:none;stroke:#000000;stroke-miterlimit:1;" x1="248.174" y1="13.824" x2="247.845" y2="17.116"/>
	<line style="fill:none;stroke:#000000;stroke-miterlimit:1;" x1="247.845" y1="17.116" x2="249.161" y2="23.04"/>
	<line style="fill:none;stroke:#000000;stroke-miterlimit:1;" x1="249.161" y1="23.04" x2="251.136" y2="26.002"/>
	<line style="fill:none;stroke:#000000;stroke-miterlimit:1;" x1="251.136" y1="26.002" x2="253.11" y2="28.965"/>
	<line style="fill:none;stroke:#000000;stroke-miterlimit:1;" x1="253.11" y1="28.965" x2="256.402" y2="31.598"/>
	<line style="fill:none;stroke:#000000;stroke-miterlimit:1;" x1="256.402" y1="31.598" x2="260.022" y2="33.573"/>
	<line style="fill:none;stroke:#000000;stroke-miterlimit:1;" x1="260.022" y1="33.573" x2="267.593" y2="34.56"/>
	<line style="fill:none;stroke:#000000;stroke-miterlimit:1;" x1="267.593" y1="34.56" x2="273.188" y2="33.902"/>
	<line style="fill:none;stroke:#000000;stroke-miterlimit:1;" x1="273.188" y1="33.902" x2="277.467" y2="33.244"/>
	<line style="fill:none;stroke:#000000;stroke-miterlimit:1;" x1="277.467" y1="33.244" x2="282.733" y2="29.623"/>
	<line style="fill:none;stroke:#000000;stroke-miterlimit:1;" x1="282.733" y1="29.623" x2="286.025" y2="25.673"/>
	<line style="fill:none;stroke:#000000;stroke-miterlimit:1;" x1="286.025" y1="25.673" x2="287.671" y2="22.711"/>
	<line style="fill:none;stroke:#000000;stroke-miterlimit:1;" x1="287.671" y1="22.711" x2="288.658" y2="16.457"/>
	<line style="fill:none;stroke:#000000;stroke-miterlimit:1;" x1="288.658" y1="16.457" x2="288" y2="10.533"/>
	<line style="fill:none;stroke:#000000;stroke-miterlimit:1;" x1="288" y1="10.533" x2="286.354" y2="7.241"/>
	<line style="fill:none;stroke:#000000;stroke-miterlimit:1;" x1="286.354" y1="7.241" x2="284.708" y2="4.608"/>
	<line style="fill:none;stroke:#000000;stroke-miterlimit:1;" x1="284.708" y1="4.608" x2="281.417" y2="1.317"/>
	<line style="fill:none;stroke:#000000;stroke-miterlimit:1;" x1="369.093" y1="112.772" x2="358.889" y2="110.798"/>
	<line style="fill:none;stroke:#000000;stroke-miterlimit:1;" x1="358.889" y1="110.798" x2="351.647" y2="109.481"/>
	<line style="fill:none;stroke:#000000;stroke-miterlimit:1;" x1="351.647" y1="109.481" x2="346.382" y2="107.507"/>
	<line style="fill:none;stroke:#000000;stroke-miterlimit:1;" x1="346.382" y1="107.507" x2="339.799" y2="104.873"/>
	<line style="fill:none;stroke:#000000;stroke-miterlimit:1;" x1="339.799" y1="104.873" x2="332.887" y2="101.582"/>
	<line style="fill:none;stroke:#000000;stroke-miterlimit:1;" x1="332.887" y1="101.582" x2="320.05" y2="94.341"/>
	<line style="fill:none;stroke:#000000;stroke-miterlimit:1;" x1="320.05" y1="94.341" x2="306.885" y2="87.1"/>
	<line style="fill:none;stroke:#000000;stroke-miterlimit:1;" x1="306.885" y1="87.1" x2="300.302" y2="84.796"/>
	<line style="fill:none;stroke:#000000;stroke-miterlimit:1;" x1="300.302" y1="84.796" x2="292.402" y2="81.833"/>
	<line style="fill:none;stroke:#000000;stroke-miterlimit:1;" x1="292.402" y1="81.833" x2="284.503" y2="80.517"/>
	<line style="fill:none;stroke:#000000;stroke-miterlimit:1;" x1="284.503" y1="80.517" x2="278.578" y2="79.2"/>
	<line style="fill:none;stroke:#000000;stroke-miterlimit:1;" x1="278.578" y1="79.2" x2="271.337" y2="79.2"/>
	<line style="fill:none;stroke:#000000;stroke-miterlimit:1;" x1="271.337" y1="79.2" x2="264.096" y2="80.188"/>
	<line style="fill:none;stroke:#000000;stroke-miterlimit:1;" x1="264.096" y1="80.188" x2="256.854" y2="82.491"/>
	<line style="fill:none;stroke:#000000;stroke-miterlimit:1;" x1="256.854" y1="82.491" x2="249.613" y2="86.112"/>
	<line style="fill:none;stroke:#000000;stroke-miterlimit:1;" x1="249.613" y1="86.112" x2="241.714" y2="92.037"/>
	<line style="fill:none;stroke:#000000;stroke-miterlimit:1;" x1="241.714" y1="92.037" x2="236.448" y2="96.974"/>
	<line style="fill:none;stroke:#000000;stroke-miterlimit:1;" x1="236.448" y1="96.974" x2="231.182" y2="100.266"/>
	<line style="fill:none;stroke:#000000;stroke-miterlimit:1;" x1="231.182" y1="100.266" x2="226.902" y2="103.228"/>
	<line style="fill:none;stroke:#000000;stroke-miterlimit:1;" x1="226.902" y1="103.228" x2="223.282" y2="104.215"/>
	<line style="fill:none;stroke:#000000;stroke-miterlimit:1;" x1="223.282" y1="104.215" x2="219.332" y2="105.86"/>
	<line style="fill:none;stroke:#000000;stroke-miterlimit:1;" x1="219.332" y1="105.86" x2="215.383" y2="107.177"/>
	<line style="fill:none;stroke:#000000;stroke-miterlimit:1;" x1="215.383" y1="107.177" x2="208.8" y2="108.165"/>
	<line style="fill:none;stroke:#000000;stroke-miterlimit:1;" x1="215.712" y1="106.849" x2="221.308" y2="106.849"/>
	<line style="fill:none;stroke:#000000;stroke-miterlimit:1;" x1="221.308" y1="106.849" x2="226.244" y2="106.519"/>
	<line style="fill:none;stroke:#000000;stroke-miterlimit:1;" x1="226.244" y1="106.519" x2="231.182" y2="107.507"/>
	<line style="fill:none;stroke:#000000;stroke-miterlimit:1;" x1="231.182" y1="107.507" x2="239.739" y2="109.481"/>
	<line style="fill:none;stroke:#000000;stroke-miterlimit:1;" x1="239.739" y1="109.481" x2="246.322" y2="112.114"/>
	<line style="fill:none;stroke:#000000;stroke-miterlimit:1;" x1="246.322" y1="112.114" x2="253.563" y2="113.76"/>
	<line style="fill:none;stroke:#000000;stroke-miterlimit:1;" x1="253.563" y1="113.76" x2="261.463" y2="115.735"/>
	<line style="fill:none;stroke:#000000;stroke-miterlimit:1;" x1="261.463" y1="115.735" x2="266.399" y2="116.723"/>
	<line style="fill:none;stroke:#000000;stroke-miterlimit:1;" x1="266.399" y1="116.723" x2="275.287" y2="117.052"/>
	<line style="fill:none;stroke:#000000;stroke-miterlimit:1;" x1="275.287" y1="117.052" x2="286.807" y2="116.064"/>
	<line style="fill:none;stroke:#000000;stroke-miterlimit:1;" x1="286.807" y1="116.064" x2="292.402" y2="115.406"/>
	<line style="fill:none;stroke:#000000;stroke-miterlimit:1;" x1="292.402" y1="115.406" x2="310.834" y2="113.102"/>
	<line style="fill:none;stroke:#000000;stroke-miterlimit:1;" x1="310.834" y1="113.102" x2="318.075" y2="112.114"/>
	<line style="fill:none;stroke:#000000;stroke-miterlimit:1;" x1="318.075" y1="112.114" x2="324.658" y2="111.456"/>
	<line style="fill:none;stroke:#000000;stroke-miterlimit:1;" x1="324.658" y1="111.456" x2="331.241" y2="110.798"/>
	<line style="fill:none;stroke:#000000;stroke-miterlimit:1;" x1="331.241" y1="110.798" x2="344.406" y2="110.14"/>
	<line style="fill:none;stroke:#000000;stroke-miterlimit:1;" x1="344.406" y1="110.14" x2="350.989" y2="110.798"/>
	<line style="fill:none;stroke:#000000;stroke-miterlimit:1;" x1="350.989" y1="110.798" x2="356.585" y2="111.456"/>
	<line style="fill:none;stroke:#000000;stroke-miterlimit:1;" x1="356.585" y1="111.456" x2="362.181" y2="112.114"/>
	<line style="fill:none;stroke:#000000;stroke-miterlimit:1;" x1="362.181" y1="112.114" x2="365.143" y2="112.114"/>
	<line style="fill:none;stroke:#000000;stroke-miterlimit:1;" x1="255.209" y1="83.808" x2="252.905" y2="87.1"/>
	<line style="fill:none;stroke:#000000;stroke-miterlimit:1;" x1="252.905" y1="87.1" x2="252.247" y2="89.732"/>
	<line style="fill:none;stroke:#000000;stroke-miterlimit:1;" x1="252.247" y1="89.732" x2="251.259" y2="93.024"/>
	<line style="fill:none;stroke:#000000;stroke-miterlimit:1;" x1="251.259" y1="93.024" x2="250.93" y2="96.315"/>
	<line style="fill:none;stroke:#000000;stroke-miterlimit:1;" x1="250.93" y1="96.315" x2="252.247" y2="102.24"/>
	<line style="fill:none;stroke:#000000;stroke-miterlimit:1;" x1="252.247" y1="102.24" x2="254.222" y2="105.202"/>
	<line style="fill:none;stroke:#000000;stroke-miterlimit:1;" x1="254.222" y1="105.202" x2="256.196" y2="108.165"/>
	<line style="fill:none;stroke:#000000;stroke-miterlimit:1;" x1="256.196" y1="108.165" x2="259.488" y2="110.798"/>
	<line style="fill:none;stroke:#000000;stroke-miterlimit:1;" x1="259.488" y1="110.798" x2="263.108" y2="112.772"/>
	<line style="fill:none;stroke:#000000;stroke-miterlimit:1;" x1="263.108" y1="112.772" x2="270.679" y2="113.76"/>
	<line style="fill:none;stroke:#000000;stroke-miterlimit:1;" x1="270.679" y1="113.76" x2="276.274" y2="113.102"/>
	<line style="fill:none;stroke:#000000;stroke-miterlimit:1;" x1="276.274" y1="113.102" x2="280.553" y2="112.443"/>
	<line style="fill:none;stroke:#000000;stroke-miterlimit:1;" x1="280.553" y1="112.443" x2="285.819" y2="108.823"/>
	<line style="fill:none;stroke:#000000;stroke-miterlimit:1;" x1="285.819" y1="108.823" x2="289.11" y2="104.873"/>
	<line style="fill:none;stroke:#000000;stroke-miterlimit:1;" x1="289.11" y1="104.873" x2="290.757" y2="101.911"/>
	<line style="fill:none;stroke:#000000;stroke-miterlimit:1;" x1="290.757" y1="101.911" x2="291.744" y2="95.657"/>
	<line style="fill:none;stroke:#000000;stroke-miterlimit:1;" x1="291.744" y1="95.657" x2="291.086" y2="89.732"/>
	<line style="fill:none;stroke:#000000;stroke-miterlimit:1;" x1="291.086" y1="89.732" x2="289.439" y2="86.441"/>
	<line style="fill:none;stroke:#000000;stroke-miterlimit:1;" x1="289.439" y1="86.441" x2="287.794" y2="83.808"/>
	<line style="fill:none;stroke:#000000;stroke-miterlimit:1;" x1="287.794" y1="83.808" x2="284.503" y2="80.517"/>
	<line style="fill:none;stroke:#000000;stroke-miterlimit:1;" x1="39.168" y1="33.532" x2="40.813" y2="33.532"/>
	<line style="fill:none;stroke:#000000;stroke-miterlimit:1;" x1="40.813" y1="33.532" x2="41.801" y2="33.202"/>
	<line style="fill:none;stroke:#000000;stroke-miterlimit:1;" x1="41.801" y1="33.202" x2="43.447" y2="31.886"/>
	<line style="fill:none;stroke:#000000;stroke-miterlimit:1;" x1="43.447" y1="31.886" x2="43.776" y2="30.898"/>
	<line style="fill:none;stroke:#000000;stroke-miterlimit:1;" x1="43.776" y1="30.898" x2="44.105" y2="29.253"/>
	<line style="fill:none;stroke:#000000;stroke-miterlimit:1;" x1="44.105" y1="29.253" x2="43.447" y2="27.607"/>
	<line style="fill:none;stroke:#000000;stroke-miterlimit:1;" x1="43.447" y1="27.607" x2="42.789" y2="26.291"/>
	<line style="fill:none;stroke:#000000;stroke-miterlimit:1;" x1="42.789" y1="26.291" x2="41.472" y2="25.303"/>
	<line style="fill:none;stroke:#000000;stroke-miterlimit:1;" x1="41.472" y1="25.303" x2="39.826" y2="24.974"/>
	<line style="fill:none;stroke:#000000;stroke-miterlimit:1;" x1="39.826" y1="24.974" x2="37.851" y2="25.303"/>
	<line style="fill:none;stroke:#000000;stroke-miterlimit:1;" x1="37.851" y1="25.303" x2="36.535" y2="25.632"/>
	<line style="fill:none;stroke:#000000;stroke-miterlimit:1;" x1="36.535" y1="25.632" x2="35.547" y2="26.949"/>
	<line style="fill:none;stroke:#000000;stroke-miterlimit:1;" x1="35.547" y1="26.949" x2="34.889" y2="29.253"/>
	<line style="fill:none;stroke:#000000;stroke-miterlimit:1;" x1="34.889" y1="29.253" x2="35.218" y2="31.228"/>
	<line style="fill:none;stroke:#000000;stroke-miterlimit:1;" x1="35.218" y1="31.228" x2="36.206" y2="32.215"/>
	<line style="fill:none;stroke:#000000;stroke-miterlimit:1;" x1="36.206" y1="32.215" x2="37.193" y2="33.532"/>
	<line style="fill:none;stroke:#000000;stroke-miterlimit:1;" x1="37.193" y1="33.532" x2="38.18" y2="33.532"/>
	<line style="fill:none;stroke:#000000;stroke-miterlimit:1;" x1="38.18" y1="33.532" x2="39.168" y2="33.861"/>
	<line style="fill:none;stroke:#000000;stroke-miterlimit:1;" x1="65.499" y1="19.049" x2="64.183" y2="16.416"/>
	<line style="fill:none;stroke:#000000;stroke-miterlimit:1;" x1="64.183" y1="16.416" x2="62.537" y2="13.783"/>
	<line style="fill:none;stroke:#000000;stroke-miterlimit:1;" x1="62.537" y1="13.783" x2="60.891" y2="11.15"/>
	<line style="fill:none;stroke:#000000;stroke-miterlimit:1;" x1="60.891" y1="11.15" x2="58.917" y2="9.504"/>
	<line style="fill:none;stroke:#000000;stroke-miterlimit:1;" x1="58.917" y1="9.504" x2="56.612" y2="7.2"/>
	<line style="fill:none;stroke:#000000;stroke-miterlimit:1;" x1="56.612" y1="7.2" x2="54.309" y2="5.554"/>
	<line style="fill:none;stroke:#000000;stroke-miterlimit:1;" x1="54.309" y1="5.554" x2="51.675" y2="4.238"/>
	<line style="fill:none;stroke:#000000;stroke-miterlimit:1;" x1="51.675" y1="4.238" x2="49.042" y2="3.25"/>
	<line style="fill:none;stroke:#000000;stroke-miterlimit:1;" x1="49.042" y1="3.25" x2="46.08" y2="1.934"/>
	<line style="fill:none;stroke:#000000;stroke-miterlimit:1;" x1="46.08" y1="1.934" x2="43.118" y2="1.604"/>
	<line style="fill:none;stroke:#000000;stroke-miterlimit:1;" x1="43.118" y1="1.604" x2="40.155" y2="1.275"/>
	<line style="fill:none;stroke:#000000;stroke-miterlimit:1;" x1="40.155" y1="1.275" x2="37.522" y2="1.604"/>
	<line style="fill:none;stroke:#000000;stroke-miterlimit:1;" x1="37.522" y1="1.604" x2="34.889" y2="1.934"/>
	<line style="fill:none;stroke:#000000;stroke-miterlimit:1;" x1="34.889" y1="1.934" x2="32.256" y2="2.263"/>
	<line style="fill:none;stroke:#000000;stroke-miterlimit:1;" x1="32.256" y1="2.263" x2="29.623" y2="3.25"/>
	<line style="fill:none;stroke:#000000;stroke-miterlimit:1;" x1="29.623" y1="3.25" x2="26.66" y2="4.567"/>
	<line style="fill:none;stroke:#000000;stroke-miterlimit:1;" x1="26.66" y1="4.567" x2="24.027" y2="5.884"/>
	<line style="fill:none;stroke:#000000;stroke-miterlimit:1;" x1="24.027" y1="5.884" x2="21.723" y2="7.529"/>
	<line style="fill:none;stroke:#000000;stroke-miterlimit:1;" x1="21.723" y1="7.529" x2="19.09" y2="9.833"/>
	<line style="fill:none;stroke:#000000;stroke-miterlimit:1;" x1="19.09" y1="9.833" x2="17.444" y2="11.808"/>
	<line style="fill:none;stroke:#000000;stroke-miterlimit:1;" x1="17.444" y1="11.808" x2="15.47" y2="14.441"/>
	<line style="fill:none;stroke:#000000;stroke-miterlimit:1;" x1="15.47" y1="14.441" x2="14.153" y2="16.745"/>
	<line style="fill:none;stroke:#000000;stroke-miterlimit:1;" x1="14.153" y1="16.745" x2="12.836" y2="19.378"/>
	<line style="fill:none;stroke:#000000;stroke-miterlimit:1;" x1="12.836" y1="19.378" x2="12.178" y2="22.012"/>
	<line style="fill:none;stroke:#000000;stroke-miterlimit:1;" x1="12.178" y1="22.012" x2="11.19" y2="25.632"/>
	<line style="fill:none;stroke:#000000;stroke-miterlimit:1;" x1="11.19" y1="25.632" x2="11.19" y2="28.923"/>
	<line style="fill:none;stroke:#000000;stroke-miterlimit:1;" x1="11.19" y1="28.923" x2="11.19" y2="32.215"/>
	<line style="fill:none;stroke:#000000;stroke-miterlimit:1;" x1="11.19" y1="32.215" x2="11.849" y2="35.506"/>
	<line style="fill:none;stroke:#000000;stroke-miterlimit:1;" x1="11.849" y1="35.506" x2="12.507" y2="38.798"/>
	<line style="fill:none;stroke:#000000;stroke-miterlimit:1;" x1="12.507" y1="38.798" x2="13.824" y2="41.431"/>
	<line style="fill:none;stroke:#000000;stroke-miterlimit:1;" x1="13.824" y1="41.431" x2="15.14" y2="44.064"/>
	<line style="fill:none;stroke:#000000;stroke-miterlimit:1;" x1="15.14" y1="44.064" x2="16.786" y2="46.368"/>
	<line style="fill:none;stroke:#000000;stroke-miterlimit:1;" x1="16.786" y1="46.368" x2="19.09" y2="48.672"/>
	<line style="fill:none;stroke:#000000;stroke-miterlimit:1;" x1="19.09" y1="48.672" x2="20.736" y2="50.647"/>
	<line style="fill:none;stroke:#000000;stroke-miterlimit:1;" x1="20.736" y1="50.647" x2="23.698" y2="52.622"/>
	<line style="fill:none;stroke:#000000;stroke-miterlimit:1;" x1="23.698" y1="52.622" x2="25.673" y2="54.268"/>
	<line style="fill:none;stroke:#000000;stroke-miterlimit:1;" x1="25.673" y1="54.268" x2="28.964" y2="55.255"/>
	<line style="fill:none;stroke:#000000;stroke-miterlimit:1;" x1="28.964" y1="55.255" x2="31.927" y2="56.242"/>
	<line style="fill:none;stroke:#000000;stroke-miterlimit:1;" x1="31.927" y1="56.242" x2="34.23" y2="57.23"/>
	<line style="fill:none;stroke:#000000;stroke-miterlimit:1;" x1="34.23" y1="57.23" x2="37.522" y2="57.23"/>
	<line style="fill:none;stroke:#000000;stroke-miterlimit:1;" x1="37.522" y1="57.23" x2="40.484" y2="57.23"/>
	<line style="fill:none;stroke:#000000;stroke-miterlimit:1;" x1="40.484" y1="57.23" x2="43.776" y2="57.23"/>
	<line style="fill:none;stroke:#000000;stroke-miterlimit:1;" x1="43.776" y1="57.23" x2="46.738" y2="56.571"/>
	<line style="fill:none;stroke:#000000;stroke-miterlimit:1;" x1="46.738" y1="56.571" x2="49.7" y2="55.913"/>
	<line style="fill:none;stroke:#000000;stroke-miterlimit:1;" x1="49.7" y1="55.913" x2="52.004" y2="54.926"/>
	<line style="fill:none;stroke:#000000;stroke-miterlimit:1;" x1="52.004" y1="54.926" x2="54.638" y2="53.28"/>
	<line style="fill:none;stroke:#000000;stroke-miterlimit:1;" x1="54.638" y1="53.28" x2="57.271" y2="51.305"/>
	<line style="fill:none;stroke:#000000;stroke-miterlimit:1;" x1="57.271" y1="51.305" x2="59.246" y2="49.331"/>
	<line style="fill:none;stroke:#000000;stroke-miterlimit:1;" x1="59.246" y1="49.331" x2="61.22" y2="47.355"/>
	<line style="fill:none;stroke:#000000;stroke-miterlimit:1;" x1="61.22" y1="47.355" x2="63.195" y2="44.393"/>
	<line style="fill:none;stroke:#000000;stroke-miterlimit:1;" x1="63.195" y1="44.393" x2="64.512" y2="42.089"/>
	<line style="fill:none;stroke:#000000;stroke-miterlimit:1;" x1="64.512" y1="42.089" x2="65.828" y2="39.456"/>
	<line style="fill:none;stroke:#000000;stroke-miterlimit:1;" x1="65.828" y1="39.456" x2="66.487" y2="36.494"/>
	<line style="fill:none;stroke:#000000;stroke-miterlimit:1;" x1="66.487" y1="36.494" x2="67.474" y2="33.532"/>
	<line style="fill:none;stroke:#000000;stroke-miterlimit:1;" x1="67.474" y1="33.532" x2="67.803" y2="30.898"/>
	<line style="fill:none;stroke:#000000;stroke-miterlimit:1;" x1="67.803" y1="30.898" x2="67.803" y2="27.607"/>
	<line style="fill:none;stroke:#000000;stroke-miterlimit:1;" x1="67.803" y1="27.607" x2="67.474" y2="24.645"/>
	<line style="fill:none;stroke:#000000;stroke-miterlimit:1;" x1="67.474" y1="24.645" x2="66.487" y2="21.683"/>
	<line style="fill:none;stroke:#000000;stroke-miterlimit:1;" x1="66.487" y1="21.683" x2="65.828" y2="19.049"/>
	<line style="fill:none;stroke:#000000;stroke-miterlimit:1;" x1="80.311" y1="119.108" x2="55.625" y2="52.951"/>
	<line style="fill:none;stroke:#000000;stroke-miterlimit:1;" x1="40.155" y1="119.767" x2="40.155" y2="57.559"/>
	<line style="fill:none;stroke:#000000;stroke-miterlimit:1;" x1="0" y1="119.108" x2="23.369" y2="53.28"/>
</g>
</svg>
