<?xml version="1.0" encoding="iso-8859-1"?>
<!-- Generator: Adobe Illustrator 16.0.1, SVG Export Plug-In . SVG Version: 6.00 Build 0)  -->
<!DOCTYPE svg PUBLIC "-//W3C//DTD SVG 1.1//EN" "http://www.w3.org/Graphics/SVG/1.1/DTD/svg11.dtd">
<svg version="1.1" id="Ebene_1" xmlns="http://www.w3.org/2000/svg" xmlns:xlink="http://www.w3.org/1999/xlink" x="0px" y="0px"
	 width="411.428px" height="149.76px" viewBox="0 0 411.428 149.76" style="enable-background:new 0 0 411.428 149.76;"
	 xml:space="preserve">
<g>
	<line style="fill:none;stroke:#000000;stroke-miterlimit:1;" x1="46.749" y1="94.397" x2="65.029" y2="94.397"/>
	<line style="fill:none;stroke:#000000;stroke-miterlimit:1;" x1="65.029" y1="94.397" x2="64.729" y2="87.805"/>
	<line style="fill:none;stroke:#000000;stroke-miterlimit:1;" x1="64.729" y1="87.805" x2="66.228" y2="79.114"/>
	<line style="fill:none;stroke:#000000;stroke-miterlimit:1;" x1="66.228" y1="79.114" x2="68.326" y2="74.02"/>
	<line style="fill:none;stroke:#000000;stroke-miterlimit:1;" x1="68.326" y1="74.02" x2="71.622" y2="65.928"/>
	<line style="fill:none;stroke:#000000;stroke-miterlimit:1;" x1="71.622" y1="65.928" x2="88.104" y2="36.86"/>
	<line style="fill:none;stroke:#000000;stroke-miterlimit:1;" x1="88.104" y1="36.86" x2="89.303" y2="30.566"/>
	<line style="fill:none;stroke:#000000;stroke-miterlimit:1;" x1="89.303" y1="30.566" x2="89.303" y2="27.57"/>
	<line style="fill:none;stroke:#000000;stroke-miterlimit:1;" x1="89.303" y1="27.57" x2="89.003" y2="22.176"/>
	<line style="fill:none;stroke:#000000;stroke-miterlimit:1;" x1="89.003" y1="22.176" x2="88.104" y2="18.58"/>
	<line style="fill:none;stroke:#000000;stroke-miterlimit:1;" x1="88.104" y1="18.58" x2="85.407" y2="14.084"/>
	<line style="fill:none;stroke:#000000;stroke-miterlimit:1;" x1="85.407" y1="14.084" x2="82.111" y2="9.889"/>
	<line style="fill:none;stroke:#000000;stroke-miterlimit:1;" x1="82.111" y1="9.889" x2="80.013" y2="7.492"/>
	<line style="fill:none;stroke:#000000;stroke-miterlimit:1;" x1="80.013" y1="7.492" x2="74.619" y2="3.896"/>
	<line style="fill:none;stroke:#000000;stroke-miterlimit:1;" x1="74.619" y1="3.896" x2="71.622" y2="2.397"/>
	<line style="fill:none;stroke:#000000;stroke-miterlimit:1;" x1="71.622" y1="2.397" x2="67.427" y2="0.899"/>
	<line style="fill:none;stroke:#000000;stroke-miterlimit:1;" x1="67.427" y1="0.899" x2="61.433" y2="0"/>
	<line style="fill:none;stroke:#000000;stroke-miterlimit:1;" x1="61.433" y1="0" x2="53.042" y2="0.899"/>
	<line style="fill:none;stroke:#000000;stroke-miterlimit:1;" x1="53.042" y1="0.899" x2="50.045" y2="2.098"/>
	<line style="fill:none;stroke:#000000;stroke-miterlimit:1;" x1="50.045" y1="2.098" x2="46.449" y2="4.495"/>
	<line style="fill:none;stroke:#000000;stroke-miterlimit:1;" x1="46.449" y1="4.495" x2="43.153" y2="7.792"/>
	<line style="fill:none;stroke:#000000;stroke-miterlimit:1;" x1="43.153" y1="7.792" x2="41.954" y2="10.488"/>
	<line style="fill:none;stroke:#000000;stroke-miterlimit:1;" x1="41.954" y1="10.488" x2="40.456" y2="12.886"/>
	<line style="fill:none;stroke:#000000;stroke-miterlimit:1;" x1="40.456" y1="12.886" x2="5.394" y2="20.378"/>
	<line style="fill:none;stroke:#000000;stroke-miterlimit:1;" x1="5.394" y1="20.378" x2="2.697" y2="21.277"/>
	<line style="fill:none;stroke:#000000;stroke-miterlimit:1;" x1="2.697" y1="21.277" x2="1.199" y2="22.775"/>
	<line style="fill:none;stroke:#000000;stroke-miterlimit:1;" x1="1.199" y1="22.775" x2="0.299" y2="23.974"/>
	<line style="fill:none;stroke:#000000;stroke-miterlimit:1;" x1="0.299" y1="23.974" x2="0" y2="26.071"/>
	<line style="fill:none;stroke:#000000;stroke-miterlimit:1;" x1="0" y1="26.071" x2="43.153" y2="18.879"/>
	<line style="fill:none;stroke:#000000;stroke-miterlimit:1;" x1="0.299" y1="27.27" x2="2.397" y2="27.87"/>
	<line style="fill:none;stroke:#000000;stroke-miterlimit:1;" x1="2.397" y1="27.87" x2="6.593" y2="28.169"/>
	<line style="fill:none;stroke:#000000;stroke-miterlimit:1;" x1="6.593" y1="28.169" x2="44.052" y2="23.375"/>
	<line style="fill:none;stroke:#000000;stroke-miterlimit:1;" x1="44.052" y1="23.375" x2="43.153" y2="19.179"/>
	<line style="fill:none;stroke:#000000;stroke-miterlimit:1;" x1="43.153" y1="19.179" x2="40.755" y2="12.886"/>
	<line style="fill:none;stroke:#000000;stroke-miterlimit:1;" x1="44.651" y1="23.375" x2="46.449" y2="23.075"/>
	<line style="fill:none;stroke:#000000;stroke-miterlimit:1;" x1="46.449" y1="23.075" x2="49.446" y2="23.075"/>
	<line style="fill:none;stroke:#000000;stroke-miterlimit:1;" x1="49.446" y1="23.075" x2="59.635" y2="25.472"/>
	<line style="fill:none;stroke:#000000;stroke-miterlimit:1;" x1="59.635" y1="25.472" x2="64.43" y2="26.071"/>
	<line style="fill:none;stroke:#000000;stroke-miterlimit:1;" x1="64.43" y1="26.071" x2="67.427" y2="26.371"/>
	<line style="fill:none;stroke:#000000;stroke-miterlimit:1;" x1="67.427" y1="26.371" x2="75.817" y2="25.472"/>
	<line style="fill:none;stroke:#000000;stroke-miterlimit:1;" x1="75.817" y1="25.472" x2="78.515" y2="28.169"/>
	<line style="fill:none;stroke:#000000;stroke-miterlimit:1;" x1="78.515" y1="28.169" x2="79.114" y2="31.766"/>
	<line style="fill:none;stroke:#000000;stroke-miterlimit:1;" x1="79.114" y1="31.766" x2="78.814" y2="34.762"/>
	<line style="fill:none;stroke:#000000;stroke-miterlimit:1;" x1="78.814" y1="34.762" x2="77.316" y2="38.358"/>
	<line style="fill:none;stroke:#000000;stroke-miterlimit:1;" x1="77.316" y1="38.358" x2="64.13" y2="55.739"/>
	<line style="fill:none;stroke:#000000;stroke-miterlimit:1;" x1="64.13" y1="55.739" x2="56.339" y2="66.228"/>
	<line style="fill:none;stroke:#000000;stroke-miterlimit:1;" x1="56.339" y1="66.228" x2="53.342" y2="71.622"/>
	<line style="fill:none;stroke:#000000;stroke-miterlimit:1;" x1="53.342" y1="71.622" x2="50.045" y2="77.915"/>
	<line style="fill:none;stroke:#000000;stroke-miterlimit:1;" x1="50.045" y1="77.915" x2="47.948" y2="86.007"/>
	<line style="fill:none;stroke:#000000;stroke-miterlimit:1;" x1="47.948" y1="86.007" x2="46.749" y2="94.397"/>
	<line style="fill:none;stroke:#000000;stroke-miterlimit:1;" x1="71.322" y1="1.798" x2="86.606" y2="7.192"/>
	<line style="fill:none;stroke:#000000;stroke-miterlimit:1;" x1="86.606" y1="7.192" x2="101.889" y2="10.788"/>
	<line style="fill:none;stroke:#000000;stroke-miterlimit:1;" x1="101.889" y1="10.788" x2="108.183" y2="11.987"/>
	<line style="fill:none;stroke:#000000;stroke-miterlimit:1;" x1="108.183" y1="11.987" x2="113.577" y2="12.287"/>
	<line style="fill:none;stroke:#000000;stroke-miterlimit:1;" x1="113.577" y1="12.287" x2="119.87" y2="12.287"/>
	<line style="fill:none;stroke:#000000;stroke-miterlimit:1;" x1="119.87" y1="12.287" x2="127.362" y2="11.987"/>
	<line style="fill:none;stroke:#000000;stroke-miterlimit:1;" x1="127.362" y1="11.987" x2="132.456" y2="10.788"/>
	<line style="fill:none;stroke:#000000;stroke-miterlimit:1;" x1="132.456" y1="10.788" x2="138.15" y2="9.589"/>
	<line style="fill:none;stroke:#000000;stroke-miterlimit:1;" x1="138.15" y1="9.589" x2="138.749" y2="10.189"/>
	<line style="fill:none;stroke:#000000;stroke-miterlimit:1;" x1="138.749" y1="10.189" x2="138.15" y2="12.287"/>
	<line style="fill:none;stroke:#000000;stroke-miterlimit:1;" x1="138.15" y1="12.287" x2="136.052" y2="13.785"/>
	<line style="fill:none;stroke:#000000;stroke-miterlimit:1;" x1="136.052" y1="13.785" x2="128.86" y2="15.283"/>
	<line style="fill:none;stroke:#000000;stroke-miterlimit:1;" x1="128.86" y1="15.283" x2="121.967" y2="16.182"/>
	<line style="fill:none;stroke:#000000;stroke-miterlimit:1;" x1="121.967" y1="16.182" x2="113.577" y2="16.182"/>
	<line style="fill:none;stroke:#000000;stroke-miterlimit:1;" x1="113.577" y1="16.182" x2="106.684" y2="15.583"/>
	<line style="fill:none;stroke:#000000;stroke-miterlimit:1;" x1="106.684" y1="15.583" x2="94.997" y2="13.485"/>
	<line style="fill:none;stroke:#000000;stroke-miterlimit:1;" x1="94.997" y1="13.485" x2="88.404" y2="11.388"/>
	<line style="fill:none;stroke:#000000;stroke-miterlimit:1;" x1="77.915" y1="6.293" x2="103.088" y2="19.179"/>
	<line style="fill:none;stroke:#000000;stroke-miterlimit:1;" x1="103.088" y1="19.179" x2="110.58" y2="22.476"/>
	<line style="fill:none;stroke:#000000;stroke-miterlimit:1;" x1="110.58" y1="22.476" x2="116.273" y2="24.273"/>
	<line style="fill:none;stroke:#000000;stroke-miterlimit:1;" x1="116.273" y1="24.273" x2="121.967" y2="25.772"/>
	<line style="fill:none;stroke:#000000;stroke-miterlimit:1;" x1="121.967" y1="25.772" x2="126.163" y2="26.971"/>
	<line style="fill:none;stroke:#000000;stroke-miterlimit:1;" x1="126.163" y1="26.971" x2="133.955" y2="27.27"/>
	<line style="fill:none;stroke:#000000;stroke-miterlimit:1;" x1="133.955" y1="27.27" x2="137.251" y2="27.57"/>
	<line style="fill:none;stroke:#000000;stroke-miterlimit:1;" x1="137.251" y1="27.57" x2="139.049" y2="27.57"/>
	<line style="fill:none;stroke:#000000;stroke-miterlimit:1;" x1="139.049" y1="27.57" x2="140.248" y2="27.87"/>
	<line style="fill:none;stroke:#000000;stroke-miterlimit:1;" x1="140.248" y1="27.87" x2="140.547" y2="29.667"/>
	<line style="fill:none;stroke:#000000;stroke-miterlimit:1;" x1="140.547" y1="29.667" x2="134.854" y2="31.466"/>
	<line style="fill:none;stroke:#000000;stroke-miterlimit:1;" x1="134.854" y1="31.466" x2="130.358" y2="31.766"/>
	<line style="fill:none;stroke:#000000;stroke-miterlimit:1;" x1="130.358" y1="31.766" x2="124.365" y2="31.166"/>
	<line style="fill:none;stroke:#000000;stroke-miterlimit:1;" x1="124.365" y1="31.166" x2="116.273" y2="29.068"/>
	<line style="fill:none;stroke:#000000;stroke-miterlimit:1;" x1="116.273" y1="29.068" x2="101.889" y2="23.375"/>
	<line style="fill:none;stroke:#000000;stroke-miterlimit:1;" x1="101.889" y1="23.375" x2="85.107" y2="13.785"/>
	<line style="fill:none;stroke:#000000;stroke-miterlimit:1;" x1="51.844" y1="8.69" x2="50.045" y2="8.99"/>
	<line style="fill:none;stroke:#000000;stroke-miterlimit:1;" x1="50.045" y1="8.99" x2="48.547" y2="10.788"/>
	<line style="fill:none;stroke:#000000;stroke-miterlimit:1;" x1="48.547" y1="10.788" x2="48.547" y2="12.886"/>
	<line style="fill:none;stroke:#000000;stroke-miterlimit:1;" x1="48.547" y1="12.886" x2="50.045" y2="14.384"/>
	<line style="fill:none;stroke:#000000;stroke-miterlimit:1;" x1="50.045" y1="14.384" x2="52.143" y2="14.384"/>
	<line style="fill:none;stroke:#000000;stroke-miterlimit:1;" x1="52.143" y1="14.384" x2="53.941" y2="13.485"/>
	<line style="fill:none;stroke:#000000;stroke-miterlimit:1;" x1="53.941" y1="13.485" x2="54.241" y2="12.287"/>
	<line style="fill:none;stroke:#000000;stroke-miterlimit:1;" x1="54.241" y1="12.287" x2="53.642" y2="10.488"/>
	<line style="fill:none;stroke:#000000;stroke-miterlimit:1;" x1="53.642" y1="10.488" x2="52.443" y2="8.69"/>
	<line style="fill:none;stroke:#000000;stroke-miterlimit:1;" x1="96.008" y1="148.114" x2="25.285" y2="148.114"/>
	<line style="fill:none;stroke:#000000;stroke-miterlimit:1;" x1="25.285" y1="148.114" x2="26.184" y2="142.121"/>
	<line style="fill:none;stroke:#000000;stroke-miterlimit:1;" x1="26.184" y1="142.121" x2="27.083" y2="138.225"/>
	<line style="fill:none;stroke:#000000;stroke-miterlimit:1;" x1="27.083" y1="138.225" x2="28.581" y2="134.329"/>
	<line style="fill:none;stroke:#000000;stroke-miterlimit:1;" x1="28.581" y1="134.329" x2="30.679" y2="131.332"/>
	<line style="fill:none;stroke:#000000;stroke-miterlimit:1;" x1="30.679" y1="131.332" x2="32.477" y2="128.635"/>
	<line style="fill:none;stroke:#000000;stroke-miterlimit:1;" x1="32.477" y1="128.635" x2="34.875" y2="125.339"/>
	<line style="fill:none;stroke:#000000;stroke-miterlimit:1;" x1="34.875" y1="125.339" x2="37.571" y2="122.941"/>
	<line style="fill:none;stroke:#000000;stroke-miterlimit:1;" x1="37.571" y1="122.941" x2="40.868" y2="120.544"/>
	<line style="fill:none;stroke:#000000;stroke-miterlimit:1;" x1="40.868" y1="120.544" x2="43.565" y2="118.746"/>
	<line style="fill:none;stroke:#000000;stroke-miterlimit:1;" x1="43.565" y1="118.746" x2="47.461" y2="116.948"/>
	<line style="fill:none;stroke:#000000;stroke-miterlimit:1;" x1="47.461" y1="116.948" x2="51.356" y2="115.749"/>
	<line style="fill:none;stroke:#000000;stroke-miterlimit:1;" x1="51.356" y1="115.749" x2="54.054" y2="115.149"/>
	<line style="fill:none;stroke:#000000;stroke-miterlimit:1;" x1="54.054" y1="115.149" x2="58.849" y2="114.551"/>
	<line style="fill:none;stroke:#000000;stroke-miterlimit:1;" x1="58.849" y1="114.551" x2="62.444" y2="114.551"/>
	<line style="fill:none;stroke:#000000;stroke-miterlimit:1;" x1="62.444" y1="114.551" x2="65.741" y2="115.149"/>
	<line style="fill:none;stroke:#000000;stroke-miterlimit:1;" x1="65.741" y1="115.149" x2="69.337" y2="115.749"/>
	<line style="fill:none;stroke:#000000;stroke-miterlimit:1;" x1="69.337" y1="115.749" x2="73.233" y2="116.648"/>
	<line style="fill:none;stroke:#000000;stroke-miterlimit:1;" x1="73.233" y1="116.648" x2="75.93" y2="117.547"/>
	<line style="fill:none;stroke:#000000;stroke-miterlimit:1;" x1="75.93" y1="117.547" x2="79.526" y2="119.944"/>
	<line style="fill:none;stroke:#000000;stroke-miterlimit:1;" x1="79.526" y1="119.944" x2="82.523" y2="122.042"/>
	<line style="fill:none;stroke:#000000;stroke-miterlimit:1;" x1="82.523" y1="122.042" x2="85.22" y2="124.14"/>
	<line style="fill:none;stroke:#000000;stroke-miterlimit:1;" x1="85.22" y1="124.14" x2="87.617" y2="127.137"/>
	<line style="fill:none;stroke:#000000;stroke-miterlimit:1;" x1="87.617" y1="127.137" x2="90.015" y2="130.434"/>
	<line style="fill:none;stroke:#000000;stroke-miterlimit:1;" x1="90.015" y1="130.434" x2="92.112" y2="133.729"/>
	<line style="fill:none;stroke:#000000;stroke-miterlimit:1;" x1="92.112" y1="133.729" x2="93.611" y2="136.727"/>
	<line style="fill:none;stroke:#000000;stroke-miterlimit:1;" x1="93.611" y1="136.727" x2="94.81" y2="141.222"/>
	<line style="fill:none;stroke:#000000;stroke-miterlimit:1;" x1="94.81" y1="141.222" x2="95.708" y2="144.518"/>
	<line style="fill:none;stroke:#000000;stroke-miterlimit:1;" x1="95.708" y1="144.518" x2="96.008" y2="148.114"/>
	<line style="fill:none;stroke:#000000;stroke-miterlimit:1;" x1="240.049" y1="149.76" x2="168.603" y2="149.76"/>
	<line style="fill:none;stroke:#000000;stroke-miterlimit:1;" x1="168.603" y1="149.76" x2="169.511" y2="143.705"/>
	<line style="fill:none;stroke:#000000;stroke-miterlimit:1;" x1="169.511" y1="143.705" x2="170.419" y2="139.77"/>
	<line style="fill:none;stroke:#000000;stroke-miterlimit:1;" x1="170.419" y1="139.77" x2="171.933" y2="135.834"/>
	<line style="fill:none;stroke:#000000;stroke-miterlimit:1;" x1="171.933" y1="135.834" x2="174.052" y2="132.807"/>
	<line style="fill:none;stroke:#000000;stroke-miterlimit:1;" x1="174.052" y1="132.807" x2="175.869" y2="130.082"/>
	<line style="fill:none;stroke:#000000;stroke-miterlimit:1;" x1="175.869" y1="130.082" x2="178.291" y2="126.752"/>
	<line style="fill:none;stroke:#000000;stroke-miterlimit:1;" x1="178.291" y1="126.752" x2="181.015" y2="124.33"/>
	<line style="fill:none;stroke:#000000;stroke-miterlimit:1;" x1="181.015" y1="124.33" x2="184.345" y2="121.908"/>
	<line style="fill:none;stroke:#000000;stroke-miterlimit:1;" x1="184.345" y1="121.908" x2="187.07" y2="120.092"/>
	<line style="fill:none;stroke:#000000;stroke-miterlimit:1;" x1="187.07" y1="120.092" x2="191.005" y2="118.275"/>
	<line style="fill:none;stroke:#000000;stroke-miterlimit:1;" x1="191.005" y1="118.275" x2="194.941" y2="117.064"/>
	<line style="fill:none;stroke:#000000;stroke-miterlimit:1;" x1="194.941" y1="117.064" x2="197.666" y2="116.459"/>
	<line style="fill:none;stroke:#000000;stroke-miterlimit:1;" x1="197.666" y1="116.459" x2="202.51" y2="115.854"/>
	<line style="fill:none;stroke:#000000;stroke-miterlimit:1;" x1="202.51" y1="115.854" x2="206.143" y2="115.854"/>
	<line style="fill:none;stroke:#000000;stroke-miterlimit:1;" x1="206.143" y1="115.854" x2="209.473" y2="116.459"/>
	<line style="fill:none;stroke:#000000;stroke-miterlimit:1;" x1="209.473" y1="116.459" x2="213.105" y2="117.064"/>
	<line style="fill:none;stroke:#000000;stroke-miterlimit:1;" x1="213.105" y1="117.064" x2="217.041" y2="117.973"/>
	<line style="fill:none;stroke:#000000;stroke-miterlimit:1;" x1="217.041" y1="117.973" x2="219.766" y2="118.881"/>
	<line style="fill:none;stroke:#000000;stroke-miterlimit:1;" x1="219.766" y1="118.881" x2="223.398" y2="121.303"/>
	<line style="fill:none;stroke:#000000;stroke-miterlimit:1;" x1="223.398" y1="121.303" x2="226.426" y2="123.422"/>
	<line style="fill:none;stroke:#000000;stroke-miterlimit:1;" x1="226.426" y1="123.422" x2="229.15" y2="125.541"/>
	<line style="fill:none;stroke:#000000;stroke-miterlimit:1;" x1="229.15" y1="125.541" x2="231.572" y2="128.568"/>
	<line style="fill:none;stroke:#000000;stroke-miterlimit:1;" x1="231.572" y1="128.568" x2="233.994" y2="131.898"/>
	<line style="fill:none;stroke:#000000;stroke-miterlimit:1;" x1="233.994" y1="131.898" x2="236.113" y2="135.229"/>
	<line style="fill:none;stroke:#000000;stroke-miterlimit:1;" x1="236.113" y1="135.229" x2="237.627" y2="138.256"/>
	<line style="fill:none;stroke:#000000;stroke-miterlimit:1;" x1="237.627" y1="138.256" x2="238.838" y2="142.797"/>
	<line style="fill:none;stroke:#000000;stroke-miterlimit:1;" x1="238.838" y1="142.797" x2="239.746" y2="146.127"/>
	<line style="fill:none;stroke:#000000;stroke-miterlimit:1;" x1="239.746" y1="146.127" x2="240.049" y2="149.76"/>
	<line style="fill:none;stroke:#000000;stroke-miterlimit:1;" x1="196.114" y1="68.854" x2="235.471" y2="31.011"/>
	<line style="fill:none;stroke:#000000;stroke-miterlimit:1;" x1="181.886" y1="63.404" x2="230.324" y2="17.085"/>
	<line style="fill:none;stroke:#000000;stroke-miterlimit:1;" x1="172.5" y1="53.414" x2="220.939" y2="7.095"/>
	<line style="fill:none;stroke:#000000;stroke-miterlimit:1;" x1="167.657" y1="39.185" x2="206.408" y2="2.251"/>
	<line style="fill:none;stroke:#000000;stroke-miterlimit:1;" x1="215.793" y1="4.37" x2="212.463" y2="3.462"/>
	<line style="fill:none;stroke:#000000;stroke-miterlimit:1;" x1="212.463" y1="3.462" x2="209.133" y2="2.251"/>
	<line style="fill:none;stroke:#000000;stroke-miterlimit:1;" x1="209.133" y1="2.251" x2="205.499" y2="1.646"/>
	<line style="fill:none;stroke:#000000;stroke-miterlimit:1;" x1="205.499" y1="1.646" x2="201.866" y2="1.646"/>
	<line style="fill:none;stroke:#000000;stroke-miterlimit:1;" x1="201.866" y1="1.646" x2="197.931" y2="1.948"/>
	<line style="fill:none;stroke:#000000;stroke-miterlimit:1;" x1="197.931" y1="1.948" x2="194.601" y2="2.251"/>
	<line style="fill:none;stroke:#000000;stroke-miterlimit:1;" x1="194.601" y1="2.251" x2="190.968" y2="3.462"/>
	<line style="fill:none;stroke:#000000;stroke-miterlimit:1;" x1="190.968" y1="3.462" x2="187.638" y2="4.673"/>
	<line style="fill:none;stroke:#000000;stroke-miterlimit:1;" x1="187.638" y1="4.673" x2="184.308" y2="6.187"/>
	<line style="fill:none;stroke:#000000;stroke-miterlimit:1;" x1="184.308" y1="6.187" x2="181.28" y2="8.306"/>
	<line style="fill:none;stroke:#000000;stroke-miterlimit:1;" x1="181.28" y1="8.306" x2="178.858" y2="10.425"/>
	<line style="fill:none;stroke:#000000;stroke-miterlimit:1;" x1="178.858" y1="10.425" x2="176.436" y2="12.847"/>
	<line style="fill:none;stroke:#000000;stroke-miterlimit:1;" x1="176.436" y1="12.847" x2="174.62" y2="14.966"/>
	<line style="fill:none;stroke:#000000;stroke-miterlimit:1;" x1="174.62" y1="14.966" x2="172.803" y2="17.69"/>
	<line style="fill:none;stroke:#000000;stroke-miterlimit:1;" x1="172.803" y1="17.69" x2="170.684" y2="21.626"/>
	<line style="fill:none;stroke:#000000;stroke-miterlimit:1;" x1="170.684" y1="21.626" x2="169.776" y2="24.654"/>
	<line style="fill:none;stroke:#000000;stroke-miterlimit:1;" x1="169.776" y1="24.654" x2="168.868" y2="27.984"/>
	<line style="fill:none;stroke:#000000;stroke-miterlimit:1;" x1="168.868" y1="27.984" x2="168.262" y2="31.314"/>
	<line style="fill:none;stroke:#000000;stroke-miterlimit:1;" x1="168.262" y1="31.314" x2="167.657" y2="35.25"/>
	<line style="fill:none;stroke:#000000;stroke-miterlimit:1;" x1="167.657" y1="35.25" x2="167.657" y2="38.58"/>
	<line style="fill:none;stroke:#000000;stroke-miterlimit:1;" x1="167.657" y1="38.58" x2="168.262" y2="42.515"/>
	<line style="fill:none;stroke:#000000;stroke-miterlimit:1;" x1="168.262" y1="42.515" x2="169.17" y2="45.845"/>
	<line style="fill:none;stroke:#000000;stroke-miterlimit:1;" x1="169.17" y1="45.845" x2="170.079" y2="48.873"/>
	<line style="fill:none;stroke:#000000;stroke-miterlimit:1;" x1="170.079" y1="48.873" x2="171.592" y2="52.203"/>
	<line style="fill:none;stroke:#000000;stroke-miterlimit:1;" x1="171.592" y1="52.203" x2="172.5" y2="54.019"/>
	<line style="fill:none;stroke:#000000;stroke-miterlimit:1;" x1="172.5" y1="54.019" x2="173.711" y2="55.533"/>
	<line style="fill:none;stroke:#000000;stroke-miterlimit:1;" x1="173.711" y1="55.533" x2="176.739" y2="58.863"/>
	<line style="fill:none;stroke:#000000;stroke-miterlimit:1;" x1="176.739" y1="58.863" x2="179.767" y2="61.89"/>
	<line style="fill:none;stroke:#000000;stroke-miterlimit:1;" x1="179.767" y1="61.89" x2="182.491" y2="64.009"/>
	<line style="fill:none;stroke:#000000;stroke-miterlimit:1;" x1="182.491" y1="64.009" x2="185.821" y2="65.826"/>
	<line style="fill:none;stroke:#000000;stroke-miterlimit:1;" x1="185.821" y1="65.826" x2="189.454" y2="67.643"/>
	<line style="fill:none;stroke:#000000;stroke-miterlimit:1;" x1="189.454" y1="67.643" x2="193.087" y2="68.551"/>
	<line style="fill:none;stroke:#000000;stroke-miterlimit:1;" x1="193.087" y1="68.551" x2="196.114" y2="69.459"/>
	<line style="fill:none;stroke:#000000;stroke-miterlimit:1;" x1="196.114" y1="69.459" x2="199.747" y2="69.459"/>
	<line style="fill:none;stroke:#000000;stroke-miterlimit:1;" x1="199.747" y1="69.459" x2="203.38" y2="69.762"/>
	<line style="fill:none;stroke:#000000;stroke-miterlimit:1;" x1="203.38" y1="69.762" x2="207.619" y2="69.156"/>
	<line style="fill:none;stroke:#000000;stroke-miterlimit:1;" x1="207.619" y1="69.156" x2="210.646" y2="68.551"/>
	<line style="fill:none;stroke:#000000;stroke-miterlimit:1;" x1="210.646" y1="68.551" x2="214.279" y2="67.037"/>
	<line style="fill:none;stroke:#000000;stroke-miterlimit:1;" x1="214.279" y1="67.037" x2="217.912" y2="65.22"/>
	<line style="fill:none;stroke:#000000;stroke-miterlimit:1;" x1="217.912" y1="65.22" x2="220.334" y2="64.009"/>
	<line style="fill:none;stroke:#000000;stroke-miterlimit:1;" x1="220.334" y1="64.009" x2="223.059" y2="61.587"/>
	<line style="fill:none;stroke:#000000;stroke-miterlimit:1;" x1="223.059" y1="61.587" x2="225.783" y2="59.166"/>
	<line style="fill:none;stroke:#000000;stroke-miterlimit:1;" x1="225.783" y1="59.166" x2="228.508" y2="56.441"/>
	<line style="fill:none;stroke:#000000;stroke-miterlimit:1;" x1="228.508" y1="56.441" x2="230.627" y2="53.111"/>
	<line style="fill:none;stroke:#000000;stroke-miterlimit:1;" x1="230.627" y1="53.111" x2="232.746" y2="50.083"/>
	<line style="fill:none;stroke:#000000;stroke-miterlimit:1;" x1="232.746" y1="50.083" x2="234.26" y2="47.056"/>
	<line style="fill:none;stroke:#000000;stroke-miterlimit:1;" x1="234.26" y1="47.056" x2="235.168" y2="43.423"/>
	<line style="fill:none;stroke:#000000;stroke-miterlimit:1;" x1="235.168" y1="43.423" x2="235.471" y2="40.093"/>
	<line style="fill:none;stroke:#000000;stroke-miterlimit:1;" x1="235.471" y1="40.093" x2="236.076" y2="36.158"/>
	<line style="fill:none;stroke:#000000;stroke-miterlimit:1;" x1="236.076" y1="36.158" x2="235.773" y2="32.828"/>
	<line style="fill:none;stroke:#000000;stroke-miterlimit:1;" x1="235.773" y1="32.828" x2="235.471" y2="28.892"/>
	<line style="fill:none;stroke:#000000;stroke-miterlimit:1;" x1="235.471" y1="28.892" x2="234.562" y2="25.562"/>
	<line style="fill:none;stroke:#000000;stroke-miterlimit:1;" x1="234.562" y1="25.562" x2="233.352" y2="22.534"/>
	<line style="fill:none;stroke:#000000;stroke-miterlimit:1;" x1="233.352" y1="22.534" x2="231.838" y2="18.599"/>
	<line style="fill:none;stroke:#000000;stroke-miterlimit:1;" x1="231.838" y1="18.599" x2="229.719" y2="15.571"/>
	<line style="fill:none;stroke:#000000;stroke-miterlimit:1;" x1="229.719" y1="15.571" x2="227.6" y2="13.149"/>
	<line style="fill:none;stroke:#000000;stroke-miterlimit:1;" x1="227.6" y1="13.149" x2="225.178" y2="10.122"/>
	<line style="fill:none;stroke:#000000;stroke-miterlimit:1;" x1="225.178" y1="10.122" x2="222.15" y2="8.003"/>
	<line style="fill:none;stroke:#000000;stroke-miterlimit:1;" x1="222.15" y1="8.003" x2="219.123" y2="5.884"/>
	<line style="fill:none;stroke:#000000;stroke-miterlimit:1;" x1="219.123" y1="5.884" x2="215.793" y2="4.37"/>
	<line style="fill:none;stroke:#000000;stroke-miterlimit:1;" x1="408.631" y1="35.579" x2="399.381" y2="33.788"/>
	<line style="fill:none;stroke:#000000;stroke-miterlimit:1;" x1="399.381" y1="33.788" x2="392.816" y2="32.595"/>
	<line style="fill:none;stroke:#000000;stroke-miterlimit:1;" x1="392.816" y1="32.595" x2="388.041" y2="30.804"/>
	<line style="fill:none;stroke:#000000;stroke-miterlimit:1;" x1="388.041" y1="30.804" x2="382.074" y2="28.417"/>
	<line style="fill:none;stroke:#000000;stroke-miterlimit:1;" x1="382.074" y1="28.417" x2="375.809" y2="25.434"/>
	<line style="fill:none;stroke:#000000;stroke-miterlimit:1;" x1="375.809" y1="25.434" x2="364.17" y2="18.869"/>
	<line style="fill:none;stroke:#000000;stroke-miterlimit:1;" x1="364.17" y1="18.869" x2="352.234" y2="12.304"/>
	<line style="fill:none;stroke:#000000;stroke-miterlimit:1;" x1="352.234" y1="12.304" x2="346.268" y2="10.215"/>
	<line style="fill:none;stroke:#000000;stroke-miterlimit:1;" x1="346.268" y1="10.215" x2="339.105" y2="7.53"/>
	<line style="fill:none;stroke:#000000;stroke-miterlimit:1;" x1="339.105" y1="7.53" x2="331.943" y2="6.336"/>
	<line style="fill:none;stroke:#000000;stroke-miterlimit:1;" x1="331.943" y1="6.336" x2="326.572" y2="5.143"/>
	<line style="fill:none;stroke:#000000;stroke-miterlimit:1;" x1="326.572" y1="5.143" x2="320.008" y2="5.143"/>
	<line style="fill:none;stroke:#000000;stroke-miterlimit:1;" x1="320.008" y1="5.143" x2="313.443" y2="6.038"/>
	<line style="fill:none;stroke:#000000;stroke-miterlimit:1;" x1="313.443" y1="6.038" x2="306.879" y2="8.126"/>
	<line style="fill:none;stroke:#000000;stroke-miterlimit:1;" x1="306.879" y1="8.126" x2="300.314" y2="11.409"/>
	<line style="fill:none;stroke:#000000;stroke-miterlimit:1;" x1="300.314" y1="11.409" x2="293.152" y2="16.78"/>
	<line style="fill:none;stroke:#000000;stroke-miterlimit:1;" x1="293.152" y1="16.78" x2="288.379" y2="21.256"/>
	<line style="fill:none;stroke:#000000;stroke-miterlimit:1;" x1="288.379" y1="21.256" x2="283.605" y2="24.24"/>
	<line style="fill:none;stroke:#000000;stroke-miterlimit:1;" x1="283.605" y1="24.24" x2="279.727" y2="26.925"/>
	<line style="fill:none;stroke:#000000;stroke-miterlimit:1;" x1="279.727" y1="26.925" x2="276.443" y2="27.82"/>
	<line style="fill:none;stroke:#000000;stroke-miterlimit:1;" x1="276.443" y1="27.82" x2="272.863" y2="29.312"/>
	<line style="fill:none;stroke:#000000;stroke-miterlimit:1;" x1="272.863" y1="29.312" x2="269.281" y2="30.506"/>
	<line style="fill:none;stroke:#000000;stroke-miterlimit:1;" x1="269.281" y1="30.506" x2="263.314" y2="31.401"/>
	<line style="fill:none;stroke:#000000;stroke-miterlimit:1;" x1="269.58" y1="30.208" x2="274.652" y2="30.208"/>
	<line style="fill:none;stroke:#000000;stroke-miterlimit:1;" x1="274.652" y1="30.208" x2="279.129" y2="29.909"/>
	<line style="fill:none;stroke:#000000;stroke-miterlimit:1;" x1="279.129" y1="29.909" x2="283.605" y2="30.804"/>
	<line style="fill:none;stroke:#000000;stroke-miterlimit:1;" x1="283.605" y1="30.804" x2="291.363" y2="32.595"/>
	<line style="fill:none;stroke:#000000;stroke-miterlimit:1;" x1="291.363" y1="32.595" x2="297.33" y2="34.982"/>
	<line style="fill:none;stroke:#000000;stroke-miterlimit:1;" x1="297.33" y1="34.982" x2="303.895" y2="36.474"/>
	<line style="fill:none;stroke:#000000;stroke-miterlimit:1;" x1="303.895" y1="36.474" x2="311.057" y2="38.264"/>
	<line style="fill:none;stroke:#000000;stroke-miterlimit:1;" x1="311.057" y1="38.264" x2="315.533" y2="39.159"/>
	<line style="fill:none;stroke:#000000;stroke-miterlimit:1;" x1="315.533" y1="39.159" x2="323.59" y2="39.458"/>
	<line style="fill:none;stroke:#000000;stroke-miterlimit:1;" x1="323.59" y1="39.458" x2="334.033" y2="38.562"/>
	<line style="fill:none;stroke:#000000;stroke-miterlimit:1;" x1="334.033" y1="38.562" x2="339.105" y2="37.966"/>
	<line style="fill:none;stroke:#000000;stroke-miterlimit:1;" x1="339.105" y1="37.966" x2="355.816" y2="35.877"/>
	<line style="fill:none;stroke:#000000;stroke-miterlimit:1;" x1="355.816" y1="35.877" x2="362.381" y2="34.982"/>
	<line style="fill:none;stroke:#000000;stroke-miterlimit:1;" x1="362.381" y1="34.982" x2="368.348" y2="34.385"/>
	<line style="fill:none;stroke:#000000;stroke-miterlimit:1;" x1="368.348" y1="34.385" x2="374.316" y2="33.788"/>
	<line style="fill:none;stroke:#000000;stroke-miterlimit:1;" x1="374.316" y1="33.788" x2="386.252" y2="33.191"/>
	<line style="fill:none;stroke:#000000;stroke-miterlimit:1;" x1="386.252" y1="33.191" x2="392.219" y2="33.788"/>
	<line style="fill:none;stroke:#000000;stroke-miterlimit:1;" x1="392.219" y1="33.788" x2="397.293" y2="34.385"/>
	<line style="fill:none;stroke:#000000;stroke-miterlimit:1;" x1="397.293" y1="34.385" x2="402.365" y2="34.982"/>
	<line style="fill:none;stroke:#000000;stroke-miterlimit:1;" x1="402.365" y1="34.982" x2="405.051" y2="34.982"/>
	<line style="fill:none;stroke:#000000;stroke-miterlimit:1;" x1="305.387" y1="9.32" x2="303.299" y2="12.304"/>
	<line style="fill:none;stroke:#000000;stroke-miterlimit:1;" x1="303.299" y1="12.304" x2="302.701" y2="14.691"/>
	<line style="fill:none;stroke:#000000;stroke-miterlimit:1;" x1="302.701" y1="14.691" x2="301.807" y2="17.675"/>
	<line style="fill:none;stroke:#000000;stroke-miterlimit:1;" x1="301.807" y1="17.675" x2="301.508" y2="20.659"/>
	<line style="fill:none;stroke:#000000;stroke-miterlimit:1;" x1="301.508" y1="20.659" x2="302.701" y2="26.03"/>
	<line style="fill:none;stroke:#000000;stroke-miterlimit:1;" x1="302.701" y1="26.03" x2="304.492" y2="28.716"/>
	<line style="fill:none;stroke:#000000;stroke-miterlimit:1;" x1="304.492" y1="28.716" x2="306.283" y2="31.401"/>
	<line style="fill:none;stroke:#000000;stroke-miterlimit:1;" x1="306.283" y1="31.401" x2="309.266" y2="33.788"/>
	<line style="fill:none;stroke:#000000;stroke-miterlimit:1;" x1="309.266" y1="33.788" x2="312.549" y2="35.579"/>
	<line style="fill:none;stroke:#000000;stroke-miterlimit:1;" x1="312.549" y1="35.579" x2="319.412" y2="36.474"/>
	<line style="fill:none;stroke:#000000;stroke-miterlimit:1;" x1="319.412" y1="36.474" x2="324.484" y2="35.877"/>
	<line style="fill:none;stroke:#000000;stroke-miterlimit:1;" x1="324.484" y1="35.877" x2="328.363" y2="35.28"/>
	<line style="fill:none;stroke:#000000;stroke-miterlimit:1;" x1="328.363" y1="35.28" x2="333.139" y2="31.998"/>
	<line style="fill:none;stroke:#000000;stroke-miterlimit:1;" x1="333.139" y1="31.998" x2="336.121" y2="28.417"/>
	<line style="fill:none;stroke:#000000;stroke-miterlimit:1;" x1="336.121" y1="28.417" x2="337.613" y2="25.732"/>
	<line style="fill:none;stroke:#000000;stroke-miterlimit:1;" x1="337.613" y1="25.732" x2="338.51" y2="20.062"/>
	<line style="fill:none;stroke:#000000;stroke-miterlimit:1;" x1="338.51" y1="20.062" x2="337.912" y2="14.691"/>
	<line style="fill:none;stroke:#000000;stroke-miterlimit:1;" x1="337.912" y1="14.691" x2="336.42" y2="11.708"/>
	<line style="fill:none;stroke:#000000;stroke-miterlimit:1;" x1="336.42" y1="11.708" x2="334.928" y2="9.32"/>
	<line style="fill:none;stroke:#000000;stroke-miterlimit:1;" x1="334.928" y1="9.32" x2="331.943" y2="6.336"/>
	<line style="fill:none;stroke:#000000;stroke-miterlimit:1;" x1="411.428" y1="142.813" x2="402.178" y2="141.022"/>
	<line style="fill:none;stroke:#000000;stroke-miterlimit:1;" x1="402.178" y1="141.022" x2="395.613" y2="139.829"/>
	<line style="fill:none;stroke:#000000;stroke-miterlimit:1;" x1="395.613" y1="139.829" x2="390.84" y2="138.039"/>
	<line style="fill:none;stroke:#000000;stroke-miterlimit:1;" x1="390.84" y1="138.039" x2="384.871" y2="135.652"/>
	<line style="fill:none;stroke:#000000;stroke-miterlimit:1;" x1="384.871" y1="135.652" x2="378.605" y2="132.668"/>
	<line style="fill:none;stroke:#000000;stroke-miterlimit:1;" x1="378.605" y1="132.668" x2="366.969" y2="126.104"/>
	<line style="fill:none;stroke:#000000;stroke-miterlimit:1;" x1="366.969" y1="126.104" x2="355.033" y2="119.539"/>
	<line style="fill:none;stroke:#000000;stroke-miterlimit:1;" x1="355.033" y1="119.539" x2="349.064" y2="117.45"/>
	<line style="fill:none;stroke:#000000;stroke-miterlimit:1;" x1="349.064" y1="117.45" x2="341.902" y2="114.765"/>
	<line style="fill:none;stroke:#000000;stroke-miterlimit:1;" x1="341.902" y1="114.765" x2="334.742" y2="113.571"/>
	<line style="fill:none;stroke:#000000;stroke-miterlimit:1;" x1="334.742" y1="113.571" x2="329.371" y2="112.377"/>
	<line style="fill:none;stroke:#000000;stroke-miterlimit:1;" x1="329.371" y1="112.377" x2="322.807" y2="112.377"/>
	<line style="fill:none;stroke:#000000;stroke-miterlimit:1;" x1="322.807" y1="112.377" x2="316.242" y2="113.272"/>
	<line style="fill:none;stroke:#000000;stroke-miterlimit:1;" x1="316.242" y1="113.272" x2="309.676" y2="115.361"/>
	<line style="fill:none;stroke:#000000;stroke-miterlimit:1;" x1="309.676" y1="115.361" x2="303.111" y2="118.644"/>
	<line style="fill:none;stroke:#000000;stroke-miterlimit:1;" x1="303.111" y1="118.644" x2="295.951" y2="124.015"/>
	<line style="fill:none;stroke:#000000;stroke-miterlimit:1;" x1="295.951" y1="124.015" x2="291.176" y2="128.49"/>
	<line style="fill:none;stroke:#000000;stroke-miterlimit:1;" x1="291.176" y1="128.49" x2="286.402" y2="131.475"/>
	<line style="fill:none;stroke:#000000;stroke-miterlimit:1;" x1="286.402" y1="131.475" x2="282.523" y2="134.16"/>
	<line style="fill:none;stroke:#000000;stroke-miterlimit:1;" x1="282.523" y1="134.16" x2="279.24" y2="135.055"/>
	<line style="fill:none;stroke:#000000;stroke-miterlimit:1;" x1="279.24" y1="135.055" x2="275.66" y2="136.547"/>
	<line style="fill:none;stroke:#000000;stroke-miterlimit:1;" x1="275.66" y1="136.547" x2="272.08" y2="137.74"/>
	<line style="fill:none;stroke:#000000;stroke-miterlimit:1;" x1="272.08" y1="137.74" x2="266.111" y2="138.636"/>
	<line style="fill:none;stroke:#000000;stroke-miterlimit:1;" x1="272.377" y1="137.442" x2="277.451" y2="137.442"/>
	<line style="fill:none;stroke:#000000;stroke-miterlimit:1;" x1="277.451" y1="137.442" x2="281.926" y2="137.144"/>
	<line style="fill:none;stroke:#000000;stroke-miterlimit:1;" x1="281.926" y1="137.144" x2="286.402" y2="138.039"/>
	<line style="fill:none;stroke:#000000;stroke-miterlimit:1;" x1="286.402" y1="138.039" x2="294.16" y2="139.829"/>
	<line style="fill:none;stroke:#000000;stroke-miterlimit:1;" x1="294.16" y1="139.829" x2="300.129" y2="142.217"/>
	<line style="fill:none;stroke:#000000;stroke-miterlimit:1;" x1="300.129" y1="142.217" x2="306.693" y2="143.708"/>
	<line style="fill:none;stroke:#000000;stroke-miterlimit:1;" x1="306.693" y1="143.708" x2="313.854" y2="145.499"/>
	<line style="fill:none;stroke:#000000;stroke-miterlimit:1;" x1="313.854" y1="145.499" x2="318.33" y2="146.394"/>
	<line style="fill:none;stroke:#000000;stroke-miterlimit:1;" x1="318.33" y1="146.394" x2="326.387" y2="146.692"/>
	<line style="fill:none;stroke:#000000;stroke-miterlimit:1;" x1="326.387" y1="146.692" x2="336.83" y2="145.797"/>
	<line style="fill:none;stroke:#000000;stroke-miterlimit:1;" x1="336.83" y1="145.797" x2="341.902" y2="145.2"/>
	<line style="fill:none;stroke:#000000;stroke-miterlimit:1;" x1="341.902" y1="145.2" x2="358.613" y2="143.111"/>
	<line style="fill:none;stroke:#000000;stroke-miterlimit:1;" x1="358.613" y1="143.111" x2="365.178" y2="142.217"/>
	<line style="fill:none;stroke:#000000;stroke-miterlimit:1;" x1="365.178" y1="142.217" x2="371.145" y2="141.62"/>
	<line style="fill:none;stroke:#000000;stroke-miterlimit:1;" x1="371.145" y1="141.62" x2="377.113" y2="141.022"/>
	<line style="fill:none;stroke:#000000;stroke-miterlimit:1;" x1="377.113" y1="141.022" x2="389.049" y2="140.426"/>
	<line style="fill:none;stroke:#000000;stroke-miterlimit:1;" x1="389.049" y1="140.426" x2="395.018" y2="141.022"/>
	<line style="fill:none;stroke:#000000;stroke-miterlimit:1;" x1="395.018" y1="141.022" x2="400.09" y2="141.62"/>
	<line style="fill:none;stroke:#000000;stroke-miterlimit:1;" x1="400.09" y1="141.62" x2="405.162" y2="142.217"/>
	<line style="fill:none;stroke:#000000;stroke-miterlimit:1;" x1="405.162" y1="142.217" x2="407.848" y2="142.217"/>
	<line style="fill:none;stroke:#000000;stroke-miterlimit:1;" x1="308.186" y1="116.555" x2="306.096" y2="119.539"/>
	<line style="fill:none;stroke:#000000;stroke-miterlimit:1;" x1="306.096" y1="119.539" x2="305.5" y2="121.926"/>
	<line style="fill:none;stroke:#000000;stroke-miterlimit:1;" x1="305.5" y1="121.926" x2="304.604" y2="124.91"/>
	<line style="fill:none;stroke:#000000;stroke-miterlimit:1;" x1="304.604" y1="124.91" x2="304.307" y2="127.894"/>
	<line style="fill:none;stroke:#000000;stroke-miterlimit:1;" x1="304.307" y1="127.894" x2="305.5" y2="133.265"/>
	<line style="fill:none;stroke:#000000;stroke-miterlimit:1;" x1="305.5" y1="133.265" x2="307.289" y2="135.95"/>
	<line style="fill:none;stroke:#000000;stroke-miterlimit:1;" x1="307.289" y1="135.95" x2="309.08" y2="138.636"/>
	<line style="fill:none;stroke:#000000;stroke-miterlimit:1;" x1="309.08" y1="138.636" x2="312.064" y2="141.022"/>
	<line style="fill:none;stroke:#000000;stroke-miterlimit:1;" x1="312.064" y1="141.022" x2="315.346" y2="142.813"/>
	<line style="fill:none;stroke:#000000;stroke-miterlimit:1;" x1="315.346" y1="142.813" x2="322.209" y2="143.708"/>
	<line style="fill:none;stroke:#000000;stroke-miterlimit:1;" x1="322.209" y1="143.708" x2="327.281" y2="143.111"/>
	<line style="fill:none;stroke:#000000;stroke-miterlimit:1;" x1="327.281" y1="143.111" x2="331.16" y2="142.515"/>
	<line style="fill:none;stroke:#000000;stroke-miterlimit:1;" x1="331.16" y1="142.515" x2="335.936" y2="139.232"/>
	<line style="fill:none;stroke:#000000;stroke-miterlimit:1;" x1="335.936" y1="139.232" x2="338.92" y2="135.652"/>
	<line style="fill:none;stroke:#000000;stroke-miterlimit:1;" x1="338.92" y1="135.652" x2="340.41" y2="132.967"/>
	<line style="fill:none;stroke:#000000;stroke-miterlimit:1;" x1="340.41" y1="132.967" x2="341.307" y2="127.297"/>
	<line style="fill:none;stroke:#000000;stroke-miterlimit:1;" x1="341.307" y1="127.297" x2="340.709" y2="121.926"/>
	<line style="fill:none;stroke:#000000;stroke-miterlimit:1;" x1="340.709" y1="121.926" x2="339.217" y2="118.942"/>
	<line style="fill:none;stroke:#000000;stroke-miterlimit:1;" x1="339.217" y1="118.942" x2="337.725" y2="116.555"/>
	<line style="fill:none;stroke:#000000;stroke-miterlimit:1;" x1="337.725" y1="116.555" x2="334.742" y2="113.571"/>
</g>
</svg>
