<?xml version="1.0" encoding="iso-8859-1"?>
<!-- Generator: Adobe Illustrator 16.0.1, SVG Export Plug-In . SVG Version: 6.00 Build 0)  -->
<!DOCTYPE svg PUBLIC "-//W3C//DTD SVG 1.1//EN" "http://www.w3.org/Graphics/SVG/1.1/DTD/svg11.dtd">
<svg version="1.1" id="Ebene_1" xmlns="http://www.w3.org/2000/svg" xmlns:xlink="http://www.w3.org/1999/xlink" x="0px" y="0px"
	 width="196.749px" height="133.968px" viewBox="0 0 196.749 133.968" style="enable-background:new 0 0 196.749 133.968;"
	 xml:space="preserve">
<g>
	<line style="fill:none;stroke:#000000;stroke-miterlimit:1;" x1="38.961" y1="78.672" x2="54.196" y2="78.672"/>
	<line style="fill:none;stroke:#000000;stroke-miterlimit:1;" x1="54.196" y1="78.672" x2="53.947" y2="73.178"/>
	<line style="fill:none;stroke:#000000;stroke-miterlimit:1;" x1="53.947" y1="73.178" x2="55.195" y2="65.935"/>
	<line style="fill:none;stroke:#000000;stroke-miterlimit:1;" x1="55.195" y1="65.935" x2="56.944" y2="61.689"/>
	<line style="fill:none;stroke:#000000;stroke-miterlimit:1;" x1="56.944" y1="61.689" x2="59.691" y2="54.945"/>
	<line style="fill:none;stroke:#000000;stroke-miterlimit:1;" x1="59.691" y1="54.945" x2="73.427" y2="30.72"/>
	<line style="fill:none;stroke:#000000;stroke-miterlimit:1;" x1="73.427" y1="30.72" x2="74.426" y2="25.475"/>
	<line style="fill:none;stroke:#000000;stroke-miterlimit:1;" x1="74.426" y1="25.475" x2="74.426" y2="22.977"/>
	<line style="fill:none;stroke:#000000;stroke-miterlimit:1;" x1="74.426" y1="22.977" x2="74.177" y2="18.481"/>
	<line style="fill:none;stroke:#000000;stroke-miterlimit:1;" x1="74.177" y1="18.481" x2="73.427" y2="15.484"/>
	<line style="fill:none;stroke:#000000;stroke-miterlimit:1;" x1="73.427" y1="15.484" x2="71.18" y2="11.738"/>
	<line style="fill:none;stroke:#000000;stroke-miterlimit:1;" x1="71.18" y1="11.738" x2="68.433" y2="8.242"/>
	<line style="fill:none;stroke:#000000;stroke-miterlimit:1;" x1="68.433" y1="8.242" x2="66.684" y2="6.244"/>
	<line style="fill:none;stroke:#000000;stroke-miterlimit:1;" x1="66.684" y1="6.244" x2="62.188" y2="3.247"/>
	<line style="fill:none;stroke:#000000;stroke-miterlimit:1;" x1="62.188" y1="3.247" x2="59.691" y2="1.998"/>
	<line style="fill:none;stroke:#000000;stroke-miterlimit:1;" x1="59.691" y1="1.998" x2="56.194" y2="0.749"/>
	<line style="fill:none;stroke:#000000;stroke-miterlimit:1;" x1="56.194" y1="0.749" x2="51.2" y2="0"/>
	<line style="fill:none;stroke:#000000;stroke-miterlimit:1;" x1="51.2" y1="0" x2="44.207" y2="0.749"/>
	<line style="fill:none;stroke:#000000;stroke-miterlimit:1;" x1="44.207" y1="0.749" x2="41.709" y2="1.748"/>
	<line style="fill:none;stroke:#000000;stroke-miterlimit:1;" x1="41.709" y1="1.748" x2="38.712" y2="3.746"/>
	<line style="fill:none;stroke:#000000;stroke-miterlimit:1;" x1="38.712" y1="3.746" x2="35.964" y2="6.494"/>
	<line style="fill:none;stroke:#000000;stroke-miterlimit:1;" x1="35.964" y1="6.494" x2="34.965" y2="8.741"/>
	<line style="fill:none;stroke:#000000;stroke-miterlimit:1;" x1="34.965" y1="8.741" x2="33.717" y2="10.739"/>
	<line style="fill:none;stroke:#000000;stroke-miterlimit:1;" x1="33.717" y1="10.739" x2="4.496" y2="16.983"/>
	<line style="fill:none;stroke:#000000;stroke-miterlimit:1;" x1="4.496" y1="16.983" x2="2.248" y2="17.732"/>
	<line style="fill:none;stroke:#000000;stroke-miterlimit:1;" x1="2.248" y1="17.732" x2="0.999" y2="18.981"/>
	<line style="fill:none;stroke:#000000;stroke-miterlimit:1;" x1="0.999" y1="18.981" x2="0.25" y2="19.98"/>
	<line style="fill:none;stroke:#000000;stroke-miterlimit:1;" x1="0.25" y1="19.98" x2="0" y2="21.729"/>
	<line style="fill:none;stroke:#000000;stroke-miterlimit:1;" x1="0" y1="21.729" x2="35.964" y2="15.734"/>
	<line style="fill:none;stroke:#000000;stroke-miterlimit:1;" x1="0.25" y1="22.728" x2="1.998" y2="23.227"/>
	<line style="fill:none;stroke:#000000;stroke-miterlimit:1;" x1="1.998" y1="23.227" x2="5.495" y2="23.477"/>
	<line style="fill:none;stroke:#000000;stroke-miterlimit:1;" x1="5.495" y1="23.477" x2="36.714" y2="19.48"/>
	<line style="fill:none;stroke:#000000;stroke-miterlimit:1;" x1="36.714" y1="19.48" x2="35.964" y2="15.984"/>
	<line style="fill:none;stroke:#000000;stroke-miterlimit:1;" x1="35.964" y1="15.984" x2="33.966" y2="10.739"/>
	<line style="fill:none;stroke:#000000;stroke-miterlimit:1;" x1="37.213" y1="19.48" x2="38.712" y2="19.231"/>
	<line style="fill:none;stroke:#000000;stroke-miterlimit:1;" x1="38.712" y1="19.231" x2="41.209" y2="19.231"/>
	<line style="fill:none;stroke:#000000;stroke-miterlimit:1;" x1="41.209" y1="19.231" x2="49.701" y2="21.229"/>
	<line style="fill:none;stroke:#000000;stroke-miterlimit:1;" x1="49.701" y1="21.229" x2="53.697" y2="21.729"/>
	<line style="fill:none;stroke:#000000;stroke-miterlimit:1;" x1="53.697" y1="21.729" x2="56.194" y2="21.978"/>
	<line style="fill:none;stroke:#000000;stroke-miterlimit:1;" x1="56.194" y1="21.978" x2="63.188" y2="21.229"/>
	<line style="fill:none;stroke:#000000;stroke-miterlimit:1;" x1="63.188" y1="21.229" x2="65.436" y2="23.477"/>
	<line style="fill:none;stroke:#000000;stroke-miterlimit:1;" x1="65.436" y1="23.477" x2="65.935" y2="26.474"/>
	<line style="fill:none;stroke:#000000;stroke-miterlimit:1;" x1="65.935" y1="26.474" x2="65.685" y2="28.971"/>
	<line style="fill:none;stroke:#000000;stroke-miterlimit:1;" x1="65.685" y1="28.971" x2="64.437" y2="31.968"/>
	<line style="fill:none;stroke:#000000;stroke-miterlimit:1;" x1="64.437" y1="31.968" x2="53.447" y2="46.454"/>
	<line style="fill:none;stroke:#000000;stroke-miterlimit:1;" x1="53.447" y1="46.454" x2="46.954" y2="55.195"/>
	<line style="fill:none;stroke:#000000;stroke-miterlimit:1;" x1="46.954" y1="55.195" x2="44.456" y2="59.691"/>
	<line style="fill:none;stroke:#000000;stroke-miterlimit:1;" x1="44.456" y1="59.691" x2="41.709" y2="64.936"/>
	<line style="fill:none;stroke:#000000;stroke-miterlimit:1;" x1="41.709" y1="64.936" x2="39.96" y2="71.679"/>
	<line style="fill:none;stroke:#000000;stroke-miterlimit:1;" x1="39.96" y1="71.679" x2="38.961" y2="78.672"/>
	<line style="fill:none;stroke:#000000;stroke-miterlimit:1;" x1="59.441" y1="1.499" x2="72.179" y2="5.994"/>
	<line style="fill:none;stroke:#000000;stroke-miterlimit:1;" x1="72.179" y1="5.994" x2="84.916" y2="8.991"/>
	<line style="fill:none;stroke:#000000;stroke-miterlimit:1;" x1="84.916" y1="8.991" x2="90.161" y2="9.99"/>
	<line style="fill:none;stroke:#000000;stroke-miterlimit:1;" x1="90.161" y1="9.99" x2="94.656" y2="10.24"/>
	<line style="fill:none;stroke:#000000;stroke-miterlimit:1;" x1="94.656" y1="10.24" x2="99.901" y2="10.24"/>
	<line style="fill:none;stroke:#000000;stroke-miterlimit:1;" x1="99.901" y1="10.24" x2="106.145" y2="9.99"/>
	<line style="fill:none;stroke:#000000;stroke-miterlimit:1;" x1="106.145" y1="9.99" x2="110.391" y2="8.991"/>
	<line style="fill:none;stroke:#000000;stroke-miterlimit:1;" x1="110.391" y1="8.991" x2="115.136" y2="7.992"/>
	<line style="fill:none;stroke:#000000;stroke-miterlimit:1;" x1="115.136" y1="7.992" x2="115.636" y2="8.492"/>
	<line style="fill:none;stroke:#000000;stroke-miterlimit:1;" x1="115.636" y1="8.492" x2="115.136" y2="10.24"/>
	<line style="fill:none;stroke:#000000;stroke-miterlimit:1;" x1="115.136" y1="10.24" x2="113.388" y2="11.488"/>
	<line style="fill:none;stroke:#000000;stroke-miterlimit:1;" x1="113.388" y1="11.488" x2="107.394" y2="12.737"/>
	<line style="fill:none;stroke:#000000;stroke-miterlimit:1;" x1="107.394" y1="12.737" x2="101.649" y2="13.486"/>
	<line style="fill:none;stroke:#000000;stroke-miterlimit:1;" x1="101.649" y1="13.486" x2="94.656" y2="13.486"/>
	<line style="fill:none;stroke:#000000;stroke-miterlimit:1;" x1="94.656" y1="13.486" x2="88.912" y2="12.987"/>
	<line style="fill:none;stroke:#000000;stroke-miterlimit:1;" x1="88.912" y1="12.987" x2="79.172" y2="11.239"/>
	<line style="fill:none;stroke:#000000;stroke-miterlimit:1;" x1="79.172" y1="11.239" x2="73.677" y2="9.491"/>
	<line style="fill:none;stroke:#000000;stroke-miterlimit:1;" x1="64.936" y1="5.245" x2="85.915" y2="15.984"/>
	<line style="fill:none;stroke:#000000;stroke-miterlimit:1;" x1="85.915" y1="15.984" x2="92.159" y2="18.731"/>
	<line style="fill:none;stroke:#000000;stroke-miterlimit:1;" x1="92.159" y1="18.731" x2="96.904" y2="20.23"/>
	<line style="fill:none;stroke:#000000;stroke-miterlimit:1;" x1="96.904" y1="20.23" x2="101.649" y2="21.479"/>
	<line style="fill:none;stroke:#000000;stroke-miterlimit:1;" x1="101.649" y1="21.479" x2="105.146" y2="22.478"/>
	<line style="fill:none;stroke:#000000;stroke-miterlimit:1;" x1="105.146" y1="22.478" x2="111.64" y2="22.728"/>
	<line style="fill:none;stroke:#000000;stroke-miterlimit:1;" x1="111.64" y1="22.728" x2="114.387" y2="22.977"/>
	<line style="fill:none;stroke:#000000;stroke-miterlimit:1;" x1="114.387" y1="22.977" x2="115.886" y2="22.977"/>
	<line style="fill:none;stroke:#000000;stroke-miterlimit:1;" x1="115.886" y1="22.977" x2="116.885" y2="23.227"/>
	<line style="fill:none;stroke:#000000;stroke-miterlimit:1;" x1="116.885" y1="23.227" x2="117.134" y2="24.726"/>
	<line style="fill:none;stroke:#000000;stroke-miterlimit:1;" x1="117.134" y1="24.726" x2="112.389" y2="26.224"/>
	<line style="fill:none;stroke:#000000;stroke-miterlimit:1;" x1="112.389" y1="26.224" x2="108.643" y2="26.474"/>
	<line style="fill:none;stroke:#000000;stroke-miterlimit:1;" x1="108.643" y1="26.474" x2="103.647" y2="25.974"/>
	<line style="fill:none;stroke:#000000;stroke-miterlimit:1;" x1="103.647" y1="25.974" x2="96.904" y2="24.226"/>
	<line style="fill:none;stroke:#000000;stroke-miterlimit:1;" x1="96.904" y1="24.226" x2="84.916" y2="19.48"/>
	<line style="fill:none;stroke:#000000;stroke-miterlimit:1;" x1="84.916" y1="19.48" x2="70.93" y2="11.488"/>
	<line style="fill:none;stroke:#000000;stroke-miterlimit:1;" x1="43.208" y1="7.243" x2="41.709" y2="7.493"/>
	<line style="fill:none;stroke:#000000;stroke-miterlimit:1;" x1="41.709" y1="7.493" x2="40.46" y2="8.991"/>
	<line style="fill:none;stroke:#000000;stroke-miterlimit:1;" x1="40.46" y1="8.991" x2="40.46" y2="10.739"/>
	<line style="fill:none;stroke:#000000;stroke-miterlimit:1;" x1="40.46" y1="10.739" x2="41.709" y2="11.988"/>
	<line style="fill:none;stroke:#000000;stroke-miterlimit:1;" x1="41.709" y1="11.988" x2="43.457" y2="11.988"/>
	<line style="fill:none;stroke:#000000;stroke-miterlimit:1;" x1="43.457" y1="11.988" x2="44.956" y2="11.239"/>
	<line style="fill:none;stroke:#000000;stroke-miterlimit:1;" x1="44.956" y1="11.239" x2="45.206" y2="10.24"/>
	<line style="fill:none;stroke:#000000;stroke-miterlimit:1;" x1="45.206" y1="10.24" x2="44.706" y2="8.741"/>
	<line style="fill:none;stroke:#000000;stroke-miterlimit:1;" x1="44.706" y1="8.741" x2="43.707" y2="7.243"/>
	<line style="fill:none;stroke:#000000;stroke-miterlimit:1;" x1="163.444" y1="57.383" x2="196.244" y2="25.845"/>
	<line style="fill:none;stroke:#000000;stroke-miterlimit:1;" x1="151.586" y1="52.842" x2="191.955" y2="14.239"/>
	<line style="fill:none;stroke:#000000;stroke-miterlimit:1;" x1="143.765" y1="44.516" x2="184.134" y2="5.913"/>
	<line style="fill:none;stroke:#000000;stroke-miterlimit:1;" x1="139.728" y1="32.657" x2="172.022" y2="1.876"/>
	<line style="fill:none;stroke:#000000;stroke-miterlimit:1;" x1="179.844" y1="3.642" x2="177.068" y2="2.885"/>
	<line style="fill:none;stroke:#000000;stroke-miterlimit:1;" x1="177.068" y1="2.885" x2="174.293" y2="1.876"/>
	<line style="fill:none;stroke:#000000;stroke-miterlimit:1;" x1="174.293" y1="1.876" x2="171.266" y2="1.372"/>
	<line style="fill:none;stroke:#000000;stroke-miterlimit:1;" x1="171.266" y1="1.372" x2="168.238" y2="1.372"/>
	<line style="fill:none;stroke:#000000;stroke-miterlimit:1;" x1="168.238" y1="1.372" x2="164.958" y2="1.624"/>
	<line style="fill:none;stroke:#000000;stroke-miterlimit:1;" x1="164.958" y1="1.624" x2="162.183" y2="1.876"/>
	<line style="fill:none;stroke:#000000;stroke-miterlimit:1;" x1="162.183" y1="1.876" x2="159.155" y2="2.885"/>
	<line style="fill:none;stroke:#000000;stroke-miterlimit:1;" x1="159.155" y1="2.885" x2="156.38" y2="3.895"/>
	<line style="fill:none;stroke:#000000;stroke-miterlimit:1;" x1="156.38" y1="3.895" x2="153.604" y2="5.156"/>
	<line style="fill:none;stroke:#000000;stroke-miterlimit:1;" x1="153.604" y1="5.156" x2="151.081" y2="6.922"/>
	<line style="fill:none;stroke:#000000;stroke-miterlimit:1;" x1="151.081" y1="6.922" x2="149.062" y2="8.688"/>
	<line style="fill:none;stroke:#000000;stroke-miterlimit:1;" x1="149.062" y1="8.688" x2="147.045" y2="10.707"/>
	<line style="fill:none;stroke:#000000;stroke-miterlimit:1;" x1="147.045" y1="10.707" x2="145.53" y2="12.473"/>
	<line style="fill:none;stroke:#000000;stroke-miterlimit:1;" x1="145.53" y1="12.473" x2="144.017" y2="14.744"/>
	<line style="fill:none;stroke:#000000;stroke-miterlimit:1;" x1="144.017" y1="14.744" x2="142.251" y2="18.023"/>
	<line style="fill:none;stroke:#000000;stroke-miterlimit:1;" x1="142.251" y1="18.023" x2="141.494" y2="20.547"/>
	<line style="fill:none;stroke:#000000;stroke-miterlimit:1;" x1="141.494" y1="20.547" x2="140.737" y2="23.322"/>
	<line style="fill:none;stroke:#000000;stroke-miterlimit:1;" x1="140.737" y1="23.322" x2="140.232" y2="26.098"/>
	<line style="fill:none;stroke:#000000;stroke-miterlimit:1;" x1="140.232" y1="26.098" x2="139.728" y2="29.377"/>
	<line style="fill:none;stroke:#000000;stroke-miterlimit:1;" x1="139.728" y1="29.377" x2="139.728" y2="32.153"/>
	<line style="fill:none;stroke:#000000;stroke-miterlimit:1;" x1="139.728" y1="32.153" x2="140.232" y2="35.433"/>
	<line style="fill:none;stroke:#000000;stroke-miterlimit:1;" x1="140.232" y1="35.433" x2="140.989" y2="38.208"/>
	<line style="fill:none;stroke:#000000;stroke-miterlimit:1;" x1="140.989" y1="38.208" x2="141.746" y2="40.731"/>
	<line style="fill:none;stroke:#000000;stroke-miterlimit:1;" x1="141.746" y1="40.731" x2="143.008" y2="43.506"/>
	<line style="fill:none;stroke:#000000;stroke-miterlimit:1;" x1="143.008" y1="43.506" x2="143.765" y2="45.021"/>
	<line style="fill:none;stroke:#000000;stroke-miterlimit:1;" x1="143.765" y1="45.021" x2="144.773" y2="46.282"/>
	<line style="fill:none;stroke:#000000;stroke-miterlimit:1;" x1="144.773" y1="46.282" x2="147.297" y2="49.057"/>
	<line style="fill:none;stroke:#000000;stroke-miterlimit:1;" x1="147.297" y1="49.057" x2="149.82" y2="51.58"/>
	<line style="fill:none;stroke:#000000;stroke-miterlimit:1;" x1="149.82" y1="51.58" x2="152.091" y2="53.346"/>
	<line style="fill:none;stroke:#000000;stroke-miterlimit:1;" x1="152.091" y1="53.346" x2="154.866" y2="54.86"/>
	<line style="fill:none;stroke:#000000;stroke-miterlimit:1;" x1="154.866" y1="54.86" x2="157.894" y2="56.374"/>
	<line style="fill:none;stroke:#000000;stroke-miterlimit:1;" x1="157.894" y1="56.374" x2="160.921" y2="57.131"/>
	<line style="fill:none;stroke:#000000;stroke-miterlimit:1;" x1="160.921" y1="57.131" x2="163.444" y2="57.888"/>
	<line style="fill:none;stroke:#000000;stroke-miterlimit:1;" x1="163.444" y1="57.888" x2="166.472" y2="57.888"/>
	<line style="fill:none;stroke:#000000;stroke-miterlimit:1;" x1="166.472" y1="57.888" x2="169.5" y2="58.14"/>
	<line style="fill:none;stroke:#000000;stroke-miterlimit:1;" x1="169.5" y1="58.14" x2="173.032" y2="57.636"/>
	<line style="fill:none;stroke:#000000;stroke-miterlimit:1;" x1="173.032" y1="57.636" x2="175.555" y2="57.131"/>
	<line style="fill:none;stroke:#000000;stroke-miterlimit:1;" x1="175.555" y1="57.131" x2="178.583" y2="55.869"/>
	<line style="fill:none;stroke:#000000;stroke-miterlimit:1;" x1="178.583" y1="55.869" x2="181.61" y2="54.355"/>
	<line style="fill:none;stroke:#000000;stroke-miterlimit:1;" x1="181.61" y1="54.355" x2="183.629" y2="53.346"/>
	<line style="fill:none;stroke:#000000;stroke-miterlimit:1;" x1="183.629" y1="53.346" x2="185.899" y2="51.328"/>
	<line style="fill:none;stroke:#000000;stroke-miterlimit:1;" x1="185.899" y1="51.328" x2="188.17" y2="49.31"/>
	<line style="fill:none;stroke:#000000;stroke-miterlimit:1;" x1="188.17" y1="49.31" x2="190.441" y2="47.039"/>
	<line style="fill:none;stroke:#000000;stroke-miterlimit:1;" x1="190.441" y1="47.039" x2="192.207" y2="44.263"/>
	<line style="fill:none;stroke:#000000;stroke-miterlimit:1;" x1="192.207" y1="44.263" x2="193.974" y2="41.74"/>
	<line style="fill:none;stroke:#000000;stroke-miterlimit:1;" x1="193.974" y1="41.74" x2="195.234" y2="39.217"/>
	<line style="fill:none;stroke:#000000;stroke-miterlimit:1;" x1="195.234" y1="39.217" x2="195.992" y2="36.189"/>
	<line style="fill:none;stroke:#000000;stroke-miterlimit:1;" x1="195.992" y1="36.189" x2="196.244" y2="33.414"/>
	<line style="fill:none;stroke:#000000;stroke-miterlimit:1;" x1="196.244" y1="33.414" x2="196.749" y2="30.134"/>
	<line style="fill:none;stroke:#000000;stroke-miterlimit:1;" x1="196.749" y1="30.134" x2="196.496" y2="27.359"/>
	<line style="fill:none;stroke:#000000;stroke-miterlimit:1;" x1="196.496" y1="27.359" x2="196.244" y2="24.079"/>
	<line style="fill:none;stroke:#000000;stroke-miterlimit:1;" x1="196.244" y1="24.079" x2="195.487" y2="21.304"/>
	<line style="fill:none;stroke:#000000;stroke-miterlimit:1;" x1="195.487" y1="21.304" x2="194.478" y2="18.781"/>
	<line style="fill:none;stroke:#000000;stroke-miterlimit:1;" x1="194.478" y1="18.781" x2="193.217" y2="15.5"/>
	<line style="fill:none;stroke:#000000;stroke-miterlimit:1;" x1="193.217" y1="15.5" x2="191.45" y2="12.978"/>
	<line style="fill:none;stroke:#000000;stroke-miterlimit:1;" x1="191.45" y1="12.978" x2="189.684" y2="10.959"/>
	<line style="fill:none;stroke:#000000;stroke-miterlimit:1;" x1="189.684" y1="10.959" x2="187.666" y2="8.436"/>
	<line style="fill:none;stroke:#000000;stroke-miterlimit:1;" x1="187.666" y1="8.436" x2="185.143" y2="6.67"/>
	<line style="fill:none;stroke:#000000;stroke-miterlimit:1;" x1="185.143" y1="6.67" x2="182.619" y2="4.904"/>
	<line style="fill:none;stroke:#000000;stroke-miterlimit:1;" x1="182.619" y1="4.904" x2="179.844" y2="3.642"/>
	<line style="fill:none;stroke:#000000;stroke-miterlimit:1;" x1="172.514" y1="130.014" x2="163.085" y2="128.188"/>
	<line style="fill:none;stroke:#000000;stroke-miterlimit:1;" x1="163.085" y1="128.188" x2="156.395" y2="126.973"/>
	<line style="fill:none;stroke:#000000;stroke-miterlimit:1;" x1="156.395" y1="126.973" x2="151.528" y2="125.147"/>
	<line style="fill:none;stroke:#000000;stroke-miterlimit:1;" x1="151.528" y1="125.147" x2="145.445" y2="122.715"/>
	<line style="fill:none;stroke:#000000;stroke-miterlimit:1;" x1="145.445" y1="122.715" x2="139.059" y2="119.673"/>
	<line style="fill:none;stroke:#000000;stroke-miterlimit:1;" x1="139.059" y1="119.673" x2="127.197" y2="112.982"/>
	<line style="fill:none;stroke:#000000;stroke-miterlimit:1;" x1="127.197" y1="112.982" x2="115.032" y2="106.291"/>
	<line style="fill:none;stroke:#000000;stroke-miterlimit:1;" x1="115.032" y1="106.291" x2="108.949" y2="104.162"/>
	<line style="fill:none;stroke:#000000;stroke-miterlimit:1;" x1="108.949" y1="104.162" x2="101.649" y2="101.425"/>
	<line style="fill:none;stroke:#000000;stroke-miterlimit:1;" x1="101.649" y1="101.425" x2="94.351" y2="100.208"/>
	<line style="fill:none;stroke:#000000;stroke-miterlimit:1;" x1="94.351" y1="100.208" x2="88.876" y2="98.992"/>
	<line style="fill:none;stroke:#000000;stroke-miterlimit:1;" x1="88.876" y1="98.992" x2="82.185" y2="98.992"/>
	<line style="fill:none;stroke:#000000;stroke-miterlimit:1;" x1="82.185" y1="98.992" x2="75.494" y2="99.904"/>
	<line style="fill:none;stroke:#000000;stroke-miterlimit:1;" x1="75.494" y1="99.904" x2="68.803" y2="102.033"/>
	<line style="fill:none;stroke:#000000;stroke-miterlimit:1;" x1="68.803" y1="102.033" x2="62.112" y2="105.379"/>
	<line style="fill:none;stroke:#000000;stroke-miterlimit:1;" x1="62.112" y1="105.379" x2="54.813" y2="110.854"/>
	<line style="fill:none;stroke:#000000;stroke-miterlimit:1;" x1="54.813" y1="110.854" x2="49.947" y2="115.415"/>
	<line style="fill:none;stroke:#000000;stroke-miterlimit:1;" x1="49.947" y1="115.415" x2="45.081" y2="118.456"/>
	<line style="fill:none;stroke:#000000;stroke-miterlimit:1;" x1="45.081" y1="118.456" x2="41.127" y2="121.193"/>
	<line style="fill:none;stroke:#000000;stroke-miterlimit:1;" x1="41.127" y1="121.193" x2="37.781" y2="122.106"/>
	<line style="fill:none;stroke:#000000;stroke-miterlimit:1;" x1="37.781" y1="122.106" x2="34.132" y2="123.627"/>
	<line style="fill:none;stroke:#000000;stroke-miterlimit:1;" x1="34.132" y1="123.627" x2="30.482" y2="124.844"/>
	<line style="fill:none;stroke:#000000;stroke-miterlimit:1;" x1="30.482" y1="124.844" x2="24.399" y2="125.756"/>
	<line style="fill:none;stroke:#000000;stroke-miterlimit:1;" x1="30.786" y1="124.539" x2="35.957" y2="124.539"/>
	<line style="fill:none;stroke:#000000;stroke-miterlimit:1;" x1="35.957" y1="124.539" x2="40.519" y2="124.235"/>
	<line style="fill:none;stroke:#000000;stroke-miterlimit:1;" x1="40.519" y1="124.235" x2="45.081" y2="125.147"/>
	<line style="fill:none;stroke:#000000;stroke-miterlimit:1;" x1="45.081" y1="125.147" x2="52.988" y2="126.973"/>
	<line style="fill:none;stroke:#000000;stroke-miterlimit:1;" x1="52.988" y1="126.973" x2="59.071" y2="129.405"/>
	<line style="fill:none;stroke:#000000;stroke-miterlimit:1;" x1="59.071" y1="129.405" x2="65.762" y2="130.926"/>
	<line style="fill:none;stroke:#000000;stroke-miterlimit:1;" x1="65.762" y1="130.926" x2="73.061" y2="132.751"/>
	<line style="fill:none;stroke:#000000;stroke-miterlimit:1;" x1="73.061" y1="132.751" x2="77.623" y2="133.663"/>
	<line style="fill:none;stroke:#000000;stroke-miterlimit:1;" x1="77.623" y1="133.663" x2="85.835" y2="133.968"/>
	<line style="fill:none;stroke:#000000;stroke-miterlimit:1;" x1="85.835" y1="133.968" x2="96.479" y2="133.055"/>
	<line style="fill:none;stroke:#000000;stroke-miterlimit:1;" x1="96.479" y1="133.055" x2="101.649" y2="132.446"/>
	<line style="fill:none;stroke:#000000;stroke-miterlimit:1;" x1="101.649" y1="132.446" x2="118.682" y2="130.317"/>
	<line style="fill:none;stroke:#000000;stroke-miterlimit:1;" x1="118.682" y1="130.317" x2="125.372" y2="129.405"/>
	<line style="fill:none;stroke:#000000;stroke-miterlimit:1;" x1="125.372" y1="129.405" x2="131.455" y2="128.797"/>
	<line style="fill:none;stroke:#000000;stroke-miterlimit:1;" x1="131.455" y1="128.797" x2="137.538" y2="128.188"/>
	<line style="fill:none;stroke:#000000;stroke-miterlimit:1;" x1="137.538" y1="128.188" x2="149.703" y2="127.581"/>
	<line style="fill:none;stroke:#000000;stroke-miterlimit:1;" x1="149.703" y1="127.581" x2="155.786" y2="128.188"/>
	<line style="fill:none;stroke:#000000;stroke-miterlimit:1;" x1="155.786" y1="128.188" x2="160.956" y2="128.797"/>
	<line style="fill:none;stroke:#000000;stroke-miterlimit:1;" x1="160.956" y1="128.797" x2="166.127" y2="129.405"/>
	<line style="fill:none;stroke:#000000;stroke-miterlimit:1;" x1="166.127" y1="129.405" x2="168.864" y2="129.405"/>
	<line style="fill:none;stroke:#000000;stroke-miterlimit:1;" x1="67.282" y1="103.25" x2="65.153" y2="106.291"/>
	<line style="fill:none;stroke:#000000;stroke-miterlimit:1;" x1="65.153" y1="106.291" x2="64.545" y2="108.725"/>
	<line style="fill:none;stroke:#000000;stroke-miterlimit:1;" x1="64.545" y1="108.725" x2="63.633" y2="111.766"/>
	<line style="fill:none;stroke:#000000;stroke-miterlimit:1;" x1="63.633" y1="111.766" x2="63.329" y2="114.807"/>
	<line style="fill:none;stroke:#000000;stroke-miterlimit:1;" x1="63.329" y1="114.807" x2="64.545" y2="120.281"/>
	<line style="fill:none;stroke:#000000;stroke-miterlimit:1;" x1="64.545" y1="120.281" x2="66.37" y2="123.019"/>
	<line style="fill:none;stroke:#000000;stroke-miterlimit:1;" x1="66.37" y1="123.019" x2="68.195" y2="125.756"/>
	<line style="fill:none;stroke:#000000;stroke-miterlimit:1;" x1="68.195" y1="125.756" x2="71.236" y2="128.188"/>
	<line style="fill:none;stroke:#000000;stroke-miterlimit:1;" x1="71.236" y1="128.188" x2="74.582" y2="130.014"/>
	<line style="fill:none;stroke:#000000;stroke-miterlimit:1;" x1="74.582" y1="130.014" x2="81.577" y2="130.926"/>
	<line style="fill:none;stroke:#000000;stroke-miterlimit:1;" x1="81.577" y1="130.926" x2="86.747" y2="130.317"/>
	<line style="fill:none;stroke:#000000;stroke-miterlimit:1;" x1="86.747" y1="130.317" x2="90.701" y2="129.71"/>
	<line style="fill:none;stroke:#000000;stroke-miterlimit:1;" x1="90.701" y1="129.71" x2="95.567" y2="126.364"/>
	<line style="fill:none;stroke:#000000;stroke-miterlimit:1;" x1="95.567" y1="126.364" x2="98.608" y2="122.715"/>
	<line style="fill:none;stroke:#000000;stroke-miterlimit:1;" x1="98.608" y1="122.715" x2="100.129" y2="119.978"/>
	<line style="fill:none;stroke:#000000;stroke-miterlimit:1;" x1="100.129" y1="119.978" x2="101.042" y2="114.198"/>
	<line style="fill:none;stroke:#000000;stroke-miterlimit:1;" x1="101.042" y1="114.198" x2="100.434" y2="108.725"/>
	<line style="fill:none;stroke:#000000;stroke-miterlimit:1;" x1="100.434" y1="108.725" x2="98.913" y2="105.683"/>
	<line style="fill:none;stroke:#000000;stroke-miterlimit:1;" x1="98.913" y1="105.683" x2="97.392" y2="103.25"/>
	<line style="fill:none;stroke:#000000;stroke-miterlimit:1;" x1="97.392" y1="103.25" x2="94.351" y2="100.208"/>
</g>
</svg>
