<?xml version="1.0" encoding="iso-8859-1"?>
<!-- Generator: Adobe Illustrator 16.0.1, SVG Export Plug-In . SVG Version: 6.00 Build 0)  -->
<!DOCTYPE svg PUBLIC "-//W3C//DTD SVG 1.1//EN" "http://www.w3.org/Graphics/SVG/1.1/DTD/svg11.dtd">
<svg version="1.1" id="Ebene_1" xmlns="http://www.w3.org/2000/svg" xmlns:xlink="http://www.w3.org/1999/xlink" x="0px" y="0px"
	 width="343.404px" height="139.374px" viewBox="0 0 343.404 139.374" style="enable-background:new 0 0 343.404 139.374;"
	 xml:space="preserve">
<g>
	<line style="fill:none;stroke:#000000;stroke-miterlimit:1;" x1="48.055" y1="122.659" x2="67.803" y2="122.659"/>
	<line style="fill:none;stroke:#000000;stroke-miterlimit:1;" x1="67.803" y1="122.659" x2="67.474" y2="115.418"/>
	<line style="fill:none;stroke:#000000;stroke-miterlimit:1;" x1="67.474" y1="115.418" x2="69.449" y2="105.873"/>
	<line style="fill:none;stroke:#000000;stroke-miterlimit:1;" x1="69.449" y1="105.873" x2="71.424" y2="100.277"/>
	<line style="fill:none;stroke:#000000;stroke-miterlimit:1;" x1="71.424" y1="100.277" x2="75.374" y2="91.391"/>
	<line style="fill:none;stroke:#000000;stroke-miterlimit:1;" x1="75.374" y1="91.391" x2="93.477" y2="59.463"/>
	<line style="fill:none;stroke:#000000;stroke-miterlimit:1;" x1="93.477" y1="59.463" x2="94.464" y2="52.552"/>
	<line style="fill:none;stroke:#000000;stroke-miterlimit:1;" x1="94.464" y1="52.552" x2="94.793" y2="49.26"/>
	<line style="fill:none;stroke:#000000;stroke-miterlimit:1;" x1="94.793" y1="49.26" x2="94.135" y2="43.335"/>
	<line style="fill:none;stroke:#000000;stroke-miterlimit:1;" x1="94.135" y1="43.335" x2="93.147" y2="39.386"/>
	<line style="fill:none;stroke:#000000;stroke-miterlimit:1;" x1="93.147" y1="39.386" x2="91.501" y2="34.449"/>
	<line style="fill:none;stroke:#000000;stroke-miterlimit:1;" x1="91.501" y1="34.449" x2="88.54" y2="29.841"/>
	<line style="fill:none;stroke:#000000;stroke-miterlimit:1;" x1="88.54" y1="29.841" x2="86.235" y2="27.208"/>
	<line style="fill:none;stroke:#000000;stroke-miterlimit:1;" x1="86.235" y1="27.208" x2="80.311" y2="21.612"/>
	<line style="fill:none;stroke:#000000;stroke-miterlimit:1;" x1="80.311" y1="21.612" x2="75.703" y2="19.966"/>
	<line style="fill:none;stroke:#000000;stroke-miterlimit:1;" x1="75.703" y1="19.966" x2="66.158" y2="18.979"/>
	<line style="fill:none;stroke:#000000;stroke-miterlimit:1;" x1="66.158" y1="18.979" x2="58.258" y2="19.966"/>
	<line style="fill:none;stroke:#000000;stroke-miterlimit:1;" x1="58.258" y1="19.966" x2="54.967" y2="21.283"/>
	<line style="fill:none;stroke:#000000;stroke-miterlimit:1;" x1="54.967" y1="21.283" x2="51.017" y2="23.916"/>
	<line style="fill:none;stroke:#000000;stroke-miterlimit:1;" x1="51.017" y1="23.916" x2="47.396" y2="27.866"/>
	<line style="fill:none;stroke:#000000;stroke-miterlimit:1;" x1="47.396" y1="27.866" x2="45.751" y2="30.17"/>
	<line style="fill:none;stroke:#000000;stroke-miterlimit:1;" x1="45.751" y1="30.17" x2="44.105" y2="32.145"/>
	<line style="fill:none;stroke:#000000;stroke-miterlimit:1;" x1="43.118" y1="32.474" x2="40.155" y2="33.791"/>
	<line style="fill:none;stroke:#000000;stroke-miterlimit:1;" x1="40.155" y1="33.791" x2="7.899" y2="40.044"/>
	<line style="fill:none;stroke:#000000;stroke-miterlimit:1;" x1="7.899" y1="40.044" x2="4.937" y2="42.348"/>
	<line style="fill:none;stroke:#000000;stroke-miterlimit:1;" x1="4.937" y1="42.348" x2="2.633" y2="43.994"/>
	<line style="fill:none;stroke:#000000;stroke-miterlimit:1;" x1="2.633" y1="43.994" x2="0.658" y2="47.614"/>
	<line style="fill:none;stroke:#000000;stroke-miterlimit:1;" x1="0.658" y1="47.614" x2="0" y2="52.881"/>
	<line style="fill:none;stroke:#000000;stroke-miterlimit:1;" x1="0" y1="52.881" x2="0.329" y2="54.197"/>
	<line style="fill:none;stroke:#000000;stroke-miterlimit:1;" x1="0.329" y1="54.197" x2="1.316" y2="54.855"/>
	<line style="fill:none;stroke:#000000;stroke-miterlimit:1;" x1="1.316" y1="54.855" x2="1.975" y2="54.855"/>
	<line style="fill:none;stroke:#000000;stroke-miterlimit:1;" x1="1.975" y1="54.855" x2="3.621" y2="54.197"/>
	<line style="fill:none;stroke:#000000;stroke-miterlimit:1;" x1="3.621" y1="54.197" x2="4.279" y2="51.235"/>
	<line style="fill:none;stroke:#000000;stroke-miterlimit:1;" x1="4.279" y1="51.235" x2="6.253" y2="48.273"/>
	<line style="fill:none;stroke:#000000;stroke-miterlimit:1;" x1="6.253" y1="48.273" x2="9.216" y2="45.64"/>
	<line style="fill:none;stroke:#000000;stroke-miterlimit:1;" x1="9.216" y1="45.64" x2="12.507" y2="44.652"/>
	<line style="fill:none;stroke:#000000;stroke-miterlimit:1;" x1="12.507" y1="44.652" x2="16.786" y2="43.335"/>
	<line style="fill:none;stroke:#000000;stroke-miterlimit:1;" x1="16.786" y1="43.335" x2="43.447" y2="39.715"/>
	<line style="fill:none;stroke:#000000;stroke-miterlimit:1;" x1="43.447" y1="39.715" x2="44.105" y2="39.386"/>
	<line style="fill:none;stroke:#000000;stroke-miterlimit:1;" x1="44.105" y1="39.386" x2="48.055" y2="40.044"/>
	<line style="fill:none;stroke:#000000;stroke-miterlimit:1;" x1="43.447" y1="32.474" x2="48.055" y2="40.373"/>
	<line style="fill:none;stroke:#000000;stroke-miterlimit:1;" x1="48.055" y1="40.373" x2="48.055" y2="44.652"/>
	<line style="fill:none;stroke:#000000;stroke-miterlimit:1;" x1="4.937" y1="50.906" x2="7.899" y2="48.931"/>
	<line style="fill:none;stroke:#000000;stroke-miterlimit:1;" x1="7.899" y1="48.931" x2="12.836" y2="47.614"/>
	<line style="fill:none;stroke:#000000;stroke-miterlimit:1;" x1="12.836" y1="47.614" x2="25.673" y2="46.298"/>
	<line style="fill:none;stroke:#000000;stroke-miterlimit:1;" x1="25.673" y1="46.298" x2="38.51" y2="44.652"/>
	<line style="fill:none;stroke:#000000;stroke-miterlimit:1;" x1="38.51" y1="44.652" x2="43.776" y2="44.652"/>
	<line style="fill:none;stroke:#000000;stroke-miterlimit:1;" x1="43.776" y1="44.652" x2="48.384" y2="44.652"/>
	<line style="fill:none;stroke:#000000;stroke-miterlimit:1;" x1="48.384" y1="44.652" x2="51.017" y2="44.981"/>
	<line style="fill:none;stroke:#000000;stroke-miterlimit:1;" x1="51.017" y1="44.981" x2="56.283" y2="46.298"/>
	<line style="fill:none;stroke:#000000;stroke-miterlimit:1;" x1="56.283" y1="46.298" x2="65.5" y2="47.943"/>
	<line style="fill:none;stroke:#000000;stroke-miterlimit:1;" x1="65.5" y1="47.943" x2="70.437" y2="48.273"/>
	<line style="fill:none;stroke:#000000;stroke-miterlimit:1;" x1="70.437" y1="48.273" x2="74.057" y2="47.943"/>
	<line style="fill:none;stroke:#000000;stroke-miterlimit:1;" x1="74.057" y1="47.943" x2="78.007" y2="46.956"/>
	<line style="fill:none;stroke:#000000;stroke-miterlimit:1;" x1="78.007" y1="46.956" x2="80.311" y2="48.273"/>
	<line style="fill:none;stroke:#000000;stroke-miterlimit:1;" x1="80.311" y1="48.273" x2="81.298" y2="49.918"/>
	<line style="fill:none;stroke:#000000;stroke-miterlimit:1;" x1="81.298" y1="49.918" x2="81.627" y2="53.868"/>
	<line style="fill:none;stroke:#000000;stroke-miterlimit:1;" x1="81.627" y1="53.868" x2="81.298" y2="57.16"/>
	<line style="fill:none;stroke:#000000;stroke-miterlimit:1;" x1="81.298" y1="57.16" x2="79.652" y2="61.109"/>
	<line style="fill:none;stroke:#000000;stroke-miterlimit:1;" x1="79.652" y1="61.109" x2="65.17" y2="80.199"/>
	<line style="fill:none;stroke:#000000;stroke-miterlimit:1;" x1="65.17" y1="80.199" x2="57.929" y2="91.72"/>
	<line style="fill:none;stroke:#000000;stroke-miterlimit:1;" x1="57.929" y1="91.72" x2="54.967" y2="97.645"/>
	<line style="fill:none;stroke:#000000;stroke-miterlimit:1;" x1="54.967" y1="97.645" x2="51.346" y2="104.556"/>
	<line style="fill:none;stroke:#000000;stroke-miterlimit:1;" x1="51.346" y1="104.556" x2="49.371" y2="113.443"/>
	<line style="fill:none;stroke:#000000;stroke-miterlimit:1;" x1="49.371" y1="113.443" x2="48.055" y2="122.659"/>
	<line style="fill:none;stroke:#000000;stroke-miterlimit:1;" x1="76.361" y1="20.295" x2="93.477" y2="26.549"/>
	<line style="fill:none;stroke:#000000;stroke-miterlimit:1;" x1="93.477" y1="26.549" x2="110.263" y2="30.828"/>
	<line style="fill:none;stroke:#000000;stroke-miterlimit:1;" x1="110.263" y1="30.828" x2="117.175" y2="32.145"/>
	<line style="fill:none;stroke:#000000;stroke-miterlimit:1;" x1="117.175" y1="32.145" x2="123.099" y2="32.474"/>
	<line style="fill:none;stroke:#000000;stroke-miterlimit:1;" x1="123.099" y1="32.474" x2="130.34" y2="32.474"/>
	<line style="fill:none;stroke:#000000;stroke-miterlimit:1;" x1="130.34" y1="32.474" x2="138.24" y2="32.145"/>
	<line style="fill:none;stroke:#000000;stroke-miterlimit:1;" x1="138.24" y1="32.145" x2="144.165" y2="30.828"/>
	<line style="fill:none;stroke:#000000;stroke-miterlimit:1;" x1="144.165" y1="30.828" x2="150.089" y2="29.512"/>
	<line style="fill:none;stroke:#000000;stroke-miterlimit:1;" x1="150.089" y1="29.512" x2="150.748" y2="30.17"/>
	<line style="fill:none;stroke:#000000;stroke-miterlimit:1;" x1="150.748" y1="30.17" x2="150.089" y2="32.474"/>
	<line style="fill:none;stroke:#000000;stroke-miterlimit:1;" x1="150.089" y1="32.474" x2="147.785" y2="34.12"/>
	<line style="fill:none;stroke:#000000;stroke-miterlimit:1;" x1="147.785" y1="34.12" x2="139.886" y2="35.765"/>
	<line style="fill:none;stroke:#000000;stroke-miterlimit:1;" x1="139.886" y1="35.765" x2="131.986" y2="36.753"/>
	<line style="fill:none;stroke:#000000;stroke-miterlimit:1;" x1="131.986" y1="36.753" x2="123.099" y2="36.753"/>
	<line style="fill:none;stroke:#000000;stroke-miterlimit:1;" x1="123.099" y1="36.753" x2="115.529" y2="36.094"/>
	<line style="fill:none;stroke:#000000;stroke-miterlimit:1;" x1="115.529" y1="36.094" x2="102.692" y2="33.791"/>
	<line style="fill:none;stroke:#000000;stroke-miterlimit:1;" x1="102.692" y1="33.791" x2="95.451" y2="31.486"/>
	<line style="fill:none;stroke:#000000;stroke-miterlimit:1;" x1="86.235" y1="26.549" x2="99.072" y2="33.461"/>
	<line style="fill:none;stroke:#000000;stroke-miterlimit:1;" x1="99.072" y1="33.461" x2="111.909" y2="40.044"/>
	<line style="fill:none;stroke:#000000;stroke-miterlimit:1;" x1="111.909" y1="40.044" x2="119.808" y2="43.994"/>
	<line style="fill:none;stroke:#000000;stroke-miterlimit:1;" x1="119.808" y1="43.994" x2="125.732" y2="46.298"/>
	<line style="fill:none;stroke:#000000;stroke-miterlimit:1;" x1="125.732" y1="46.298" x2="132.315" y2="47.943"/>
	<line style="fill:none;stroke:#000000;stroke-miterlimit:1;" x1="132.315" y1="47.943" x2="136.923" y2="48.602"/>
	<line style="fill:none;stroke:#000000;stroke-miterlimit:1;" x1="136.923" y1="48.602" x2="145.481" y2="49.589"/>
	<line style="fill:none;stroke:#000000;stroke-miterlimit:1;" x1="145.481" y1="49.589" x2="149.102" y2="48.931"/>
	<line style="fill:none;stroke:#000000;stroke-miterlimit:1;" x1="149.102" y1="48.931" x2="150.748" y2="48.602"/>
	<line style="fill:none;stroke:#000000;stroke-miterlimit:1;" x1="150.748" y1="48.602" x2="152.064" y2="49.589"/>
	<line style="fill:none;stroke:#000000;stroke-miterlimit:1;" x1="152.064" y1="49.589" x2="152.393" y2="51.564"/>
	<line style="fill:none;stroke:#000000;stroke-miterlimit:1;" x1="152.393" y1="51.564" x2="147.456" y2="53.21"/>
	<line style="fill:none;stroke:#000000;stroke-miterlimit:1;" x1="147.456" y1="53.21" x2="141.531" y2="53.868"/>
	<line style="fill:none;stroke:#000000;stroke-miterlimit:1;" x1="141.531" y1="53.868" x2="134.949" y2="52.881"/>
	<line style="fill:none;stroke:#000000;stroke-miterlimit:1;" x1="134.949" y1="52.881" x2="125.732" y2="50.906"/>
	<line style="fill:none;stroke:#000000;stroke-miterlimit:1;" x1="125.732" y1="50.906" x2="117.833" y2="48.273"/>
	<line style="fill:none;stroke:#000000;stroke-miterlimit:1;" x1="117.833" y1="48.273" x2="110.263" y2="44.652"/>
	<line style="fill:none;stroke:#000000;stroke-miterlimit:1;" x1="110.263" y1="44.652" x2="91.831" y2="34.12"/>
	<line style="fill:none;stroke:#000000;stroke-miterlimit:1;" x1="58.587" y1="28.524" x2="56.612" y2="28.854"/>
	<line style="fill:none;stroke:#000000;stroke-miterlimit:1;" x1="56.612" y1="28.854" x2="54.967" y2="30.828"/>
	<line style="fill:none;stroke:#000000;stroke-miterlimit:1;" x1="54.967" y1="30.828" x2="54.967" y2="33.132"/>
	<line style="fill:none;stroke:#000000;stroke-miterlimit:1;" x1="54.967" y1="33.132" x2="56.612" y2="34.778"/>
	<line style="fill:none;stroke:#000000;stroke-miterlimit:1;" x1="56.612" y1="34.778" x2="58.917" y2="34.778"/>
	<line style="fill:none;stroke:#000000;stroke-miterlimit:1;" x1="58.917" y1="34.778" x2="61.22" y2="33.791"/>
	<line style="fill:none;stroke:#000000;stroke-miterlimit:1;" x1="61.22" y1="33.791" x2="61.55" y2="32.474"/>
	<line style="fill:none;stroke:#000000;stroke-miterlimit:1;" x1="61.55" y1="32.474" x2="60.891" y2="30.499"/>
	<line style="fill:none;stroke:#000000;stroke-miterlimit:1;" x1="60.891" y1="30.499" x2="59.246" y2="28.524"/>
	<line style="fill:none;stroke:#000000;stroke-miterlimit:1;" x1="250.479" y1="39.304" x2="172.8" y2="39.304"/>
	<line style="fill:none;stroke:#000000;stroke-miterlimit:1;" x1="172.8" y1="39.304" x2="173.787" y2="32.721"/>
	<line style="fill:none;stroke:#000000;stroke-miterlimit:1;" x1="173.787" y1="32.721" x2="174.775" y2="28.442"/>
	<line style="fill:none;stroke:#000000;stroke-miterlimit:1;" x1="174.775" y1="28.442" x2="176.42" y2="24.163"/>
	<line style="fill:none;stroke:#000000;stroke-miterlimit:1;" x1="176.42" y1="24.163" x2="178.725" y2="20.872"/>
	<line style="fill:none;stroke:#000000;stroke-miterlimit:1;" x1="178.725" y1="20.872" x2="180.699" y2="17.909"/>
	<line style="fill:none;stroke:#000000;stroke-miterlimit:1;" x1="180.699" y1="17.909" x2="183.332" y2="14.289"/>
	<line style="fill:none;stroke:#000000;stroke-miterlimit:1;" x1="183.332" y1="14.289" x2="186.295" y2="11.656"/>
	<line style="fill:none;stroke:#000000;stroke-miterlimit:1;" x1="186.295" y1="11.656" x2="189.916" y2="9.022"/>
	<line style="fill:none;stroke:#000000;stroke-miterlimit:1;" x1="189.916" y1="9.022" x2="192.877" y2="7.047"/>
	<line style="fill:none;stroke:#000000;stroke-miterlimit:1;" x1="192.877" y1="7.047" x2="197.156" y2="5.073"/>
	<line style="fill:none;stroke:#000000;stroke-miterlimit:1;" x1="197.156" y1="5.073" x2="201.436" y2="3.756"/>
	<line style="fill:none;stroke:#000000;stroke-miterlimit:1;" x1="201.436" y1="3.756" x2="204.398" y2="3.098"/>
	<line style="fill:none;stroke:#000000;stroke-miterlimit:1;" x1="204.398" y1="3.098" x2="209.664" y2="2.439"/>
	<line style="fill:none;stroke:#000000;stroke-miterlimit:1;" x1="209.664" y1="2.439" x2="213.613" y2="2.439"/>
	<line style="fill:none;stroke:#000000;stroke-miterlimit:1;" x1="213.613" y1="2.439" x2="217.234" y2="3.098"/>
	<line style="fill:none;stroke:#000000;stroke-miterlimit:1;" x1="217.234" y1="3.098" x2="221.184" y2="3.756"/>
	<line style="fill:none;stroke:#000000;stroke-miterlimit:1;" x1="221.184" y1="3.756" x2="225.463" y2="4.744"/>
	<line style="fill:none;stroke:#000000;stroke-miterlimit:1;" x1="225.463" y1="4.744" x2="228.426" y2="5.731"/>
	<line style="fill:none;stroke:#000000;stroke-miterlimit:1;" x1="228.426" y1="5.731" x2="232.375" y2="8.364"/>
	<line style="fill:none;stroke:#000000;stroke-miterlimit:1;" x1="232.375" y1="8.364" x2="235.666" y2="10.668"/>
	<line style="fill:none;stroke:#000000;stroke-miterlimit:1;" x1="235.666" y1="10.668" x2="238.629" y2="12.972"/>
	<line style="fill:none;stroke:#000000;stroke-miterlimit:1;" x1="238.629" y1="12.972" x2="241.262" y2="16.264"/>
	<line style="fill:none;stroke:#000000;stroke-miterlimit:1;" x1="241.262" y1="16.264" x2="243.895" y2="19.884"/>
	<line style="fill:none;stroke:#000000;stroke-miterlimit:1;" x1="243.895" y1="19.884" x2="246.199" y2="23.505"/>
	<line style="fill:none;stroke:#000000;stroke-miterlimit:1;" x1="246.199" y1="23.505" x2="247.844" y2="26.796"/>
	<line style="fill:none;stroke:#000000;stroke-miterlimit:1;" x1="247.844" y1="26.796" x2="249.16" y2="31.733"/>
	<line style="fill:none;stroke:#000000;stroke-miterlimit:1;" x1="249.16" y1="31.733" x2="250.148" y2="35.354"/>
	<line style="fill:none;stroke:#000000;stroke-miterlimit:1;" x1="250.148" y1="35.354" x2="250.479" y2="39.304"/>
	<line style="fill:none;stroke:#000000;stroke-miterlimit:1;" x1="172.8" y1="78.883" x2="199.131" y2="138.129"/>
	<line style="fill:none;stroke:#000000;stroke-miterlimit:1;" x1="199.131" y1="138.129" x2="212.297" y2="138.129"/>
	<line style="fill:none;stroke:#000000;stroke-miterlimit:1;" x1="212.297" y1="138.129" x2="185.965" y2="78.883"/>
	<line style="fill:none;stroke:#000000;stroke-miterlimit:1;" x1="185.965" y1="78.883" x2="172.8" y2="78.883"/>
	<line style="fill:none;stroke:#000000;stroke-miterlimit:1;" x1="212.627" y1="78.883" x2="238.957" y2="138.129"/>
	<line style="fill:none;stroke:#000000;stroke-miterlimit:1;" x1="238.957" y1="138.129" x2="252.123" y2="138.129"/>
	<line style="fill:none;stroke:#000000;stroke-miterlimit:1;" x1="252.123" y1="138.129" x2="225.791" y2="78.883"/>
	<line style="fill:none;stroke:#000000;stroke-miterlimit:1;" x1="225.791" y1="78.883" x2="212.627" y2="78.883"/>
	<line style="fill:none;stroke:#000000;stroke-miterlimit:1;" x1="337.994" y1="14.723" x2="337.613" y2="13.958"/>
	<line style="fill:none;stroke:#000000;stroke-miterlimit:1;" x1="337.613" y1="13.958" x2="336.848" y2="12.62"/>
	<line style="fill:none;stroke:#000000;stroke-miterlimit:1;" x1="336.848" y1="12.62" x2="336.465" y2="11.855"/>
	<line style="fill:none;stroke:#000000;stroke-miterlimit:1;" x1="336.465" y1="11.855" x2="335.701" y2="10.708"/>
	<line style="fill:none;stroke:#000000;stroke-miterlimit:1;" x1="335.701" y1="10.708" x2="335.127" y2="9.752"/>
	<line style="fill:none;stroke:#000000;stroke-miterlimit:1;" x1="335.127" y1="9.752" x2="333.98" y2="8.604"/>
	<line style="fill:none;stroke:#000000;stroke-miterlimit:1;" x1="333.98" y1="8.604" x2="333.598" y2="7.84"/>
	<line style="fill:none;stroke:#000000;stroke-miterlimit:1;" x1="333.598" y1="7.84" x2="332.449" y2="6.884"/>
	<line style="fill:none;stroke:#000000;stroke-miterlimit:1;" x1="332.449" y1="6.884" x2="331.494" y2="6.119"/>
	<line style="fill:none;stroke:#000000;stroke-miterlimit:1;" x1="331.494" y1="6.119" x2="330.346" y2="5.163"/>
	<line style="fill:none;stroke:#000000;stroke-miterlimit:1;" x1="330.346" y1="5.163" x2="329.582" y2="4.589"/>
	<line style="fill:none;stroke:#000000;stroke-miterlimit:1;" x1="329.582" y1="4.589" x2="328.434" y2="3.633"/>
	<line style="fill:none;stroke:#000000;stroke-miterlimit:1;" x1="328.434" y1="3.633" x2="327.479" y2="3.06"/>
	<line style="fill:none;stroke:#000000;stroke-miterlimit:1;" x1="327.479" y1="3.06" x2="326.141" y2="2.486"/>
	<line style="fill:none;stroke:#000000;stroke-miterlimit:1;" x1="326.141" y1="2.486" x2="325.375" y2="1.912"/>
	<line style="fill:none;stroke:#000000;stroke-miterlimit:1;" x1="325.375" y1="1.912" x2="324.037" y2="1.53"/>
	<line style="fill:none;stroke:#000000;stroke-miterlimit:1;" x1="324.037" y1="1.53" x2="322.889" y2="1.147"/>
	<line style="fill:none;stroke:#000000;stroke-miterlimit:1;" x1="322.889" y1="1.147" x2="321.359" y2="0.765"/>
	<line style="fill:none;stroke:#000000;stroke-miterlimit:1;" x1="321.359" y1="0.765" x2="320.596" y2="0.382"/>
	<line style="fill:none;stroke:#000000;stroke-miterlimit:1;" x1="320.596" y1="0.382" x2="319.064" y2="0.191"/>
	<line style="fill:none;stroke:#000000;stroke-miterlimit:1;" x1="319.064" y1="0.191" x2="317.918" y2="0"/>
	<line style="fill:none;stroke:#000000;stroke-miterlimit:1;" x1="317.918" y1="0" x2="316.58" y2="0"/>
	<line style="fill:none;stroke:#000000;stroke-miterlimit:1;" x1="316.58" y1="0" x2="315.432" y2="0"/>
	<line style="fill:none;stroke:#000000;stroke-miterlimit:1;" x1="315.432" y1="0" x2="314.285" y2="0.191"/>
	<line style="fill:none;stroke:#000000;stroke-miterlimit:1;" x1="314.285" y1="0.191" x2="313.328" y2="0.382"/>
	<line style="fill:none;stroke:#000000;stroke-miterlimit:1;" x1="313.328" y1="0.382" x2="312.182" y2="0.574"/>
	<line style="fill:none;stroke:#000000;stroke-miterlimit:1;" x1="312.182" y1="0.574" x2="311.227" y2="0.765"/>
	<line style="fill:none;stroke:#000000;stroke-miterlimit:1;" x1="311.227" y1="0.765" x2="310.078" y2="0.956"/>
	<line style="fill:none;stroke:#000000;stroke-miterlimit:1;" x1="310.078" y1="0.956" x2="309.123" y2="1.338"/>
	<line style="fill:none;stroke:#000000;stroke-miterlimit:1;" x1="309.123" y1="1.338" x2="307.402" y2="1.721"/>
	<line style="fill:none;stroke:#000000;stroke-miterlimit:1;" x1="307.402" y1="1.721" x2="306.445" y2="2.294"/>
	<line style="fill:none;stroke:#000000;stroke-miterlimit:1;" x1="306.445" y1="2.294" x2="305.107" y2="2.677"/>
	<line style="fill:none;stroke:#000000;stroke-miterlimit:1;" x1="305.107" y1="2.677" x2="304.15" y2="3.25"/>
	<line style="fill:none;stroke:#000000;stroke-miterlimit:1;" x1="304.15" y1="3.25" x2="303.004" y2="4.016"/>
	<line style="fill:none;stroke:#000000;stroke-miterlimit:1;" x1="303.004" y1="4.016" x2="302.047" y2="4.78"/>
	<line style="fill:none;stroke:#000000;stroke-miterlimit:1;" x1="302.047" y1="4.78" x2="301.092" y2="5.354"/>
	<line style="fill:none;stroke:#000000;stroke-miterlimit:1;" x1="301.092" y1="5.354" x2="300.135" y2="6.119"/>
	<line style="fill:none;stroke:#000000;stroke-miterlimit:1;" x1="300.135" y1="6.119" x2="298.988" y2="7.266"/>
	<line style="fill:none;stroke:#000000;stroke-miterlimit:1;" x1="298.988" y1="7.266" x2="298.033" y2="8.031"/>
	<line style="fill:none;stroke:#000000;stroke-miterlimit:1;" x1="298.033" y1="8.031" x2="297.459" y2="8.987"/>
	<line style="fill:none;stroke:#000000;stroke-miterlimit:1;" x1="297.459" y1="8.987" x2="296.885" y2="9.752"/>
	<line style="fill:none;stroke:#000000;stroke-miterlimit:1;" x1="296.885" y1="9.752" x2="295.93" y2="11.09"/>
	<line style="fill:none;stroke:#000000;stroke-miterlimit:1;" x1="295.93" y1="11.09" x2="295.547" y2="11.855"/>
	<line style="fill:none;stroke:#000000;stroke-miterlimit:1;" x1="295.547" y1="11.855" x2="294.59" y2="13.002"/>
	<line style="fill:none;stroke:#000000;stroke-miterlimit:1;" x1="294.59" y1="13.002" x2="294.018" y2="14.149"/>
	<line style="fill:none;stroke:#000000;stroke-miterlimit:1;" x1="294.018" y1="14.149" x2="293.635" y2="15.297"/>
	<line style="fill:none;stroke:#000000;stroke-miterlimit:1;" x1="293.635" y1="15.297" x2="293.443" y2="16.253"/>
	<line style="fill:none;stroke:#000000;stroke-miterlimit:1;" x1="293.443" y1="16.253" x2="292.869" y2="17.591"/>
	<line style="fill:none;stroke:#000000;stroke-miterlimit:1;" x1="292.869" y1="17.591" x2="292.486" y2="18.738"/>
	<line style="fill:none;stroke:#000000;stroke-miterlimit:1;" x1="292.486" y1="18.738" x2="292.297" y2="20.268"/>
	<line style="fill:none;stroke:#000000;stroke-miterlimit:1;" x1="292.297" y1="20.268" x2="292.297" y2="21.416"/>
	<line style="fill:none;stroke:#000000;stroke-miterlimit:1;" x1="292.297" y1="21.416" x2="292.105" y2="23.328"/>
	<line style="fill:none;stroke:#000000;stroke-miterlimit:1;" x1="292.105" y1="23.328" x2="292.105" y2="24.475"/>
	<line style="fill:none;stroke:#000000;stroke-miterlimit:1;" x1="292.105" y1="24.475" x2="292.105" y2="26.387"/>
	<line style="fill:none;stroke:#000000;stroke-miterlimit:1;" x1="292.105" y1="26.387" x2="292.297" y2="27.534"/>
	<line style="fill:none;stroke:#000000;stroke-miterlimit:1;" x1="292.297" y1="27.534" x2="292.678" y2="28.873"/>
	<line style="fill:none;stroke:#000000;stroke-miterlimit:1;" x1="292.678" y1="28.873" x2="292.869" y2="30.02"/>
	<line style="fill:none;stroke:#000000;stroke-miterlimit:1;" x1="292.869" y1="30.02" x2="293.252" y2="31.358"/>
	<line style="fill:none;stroke:#000000;stroke-miterlimit:1;" x1="293.252" y1="31.358" x2="293.635" y2="32.314"/>
	<line style="fill:none;stroke:#000000;stroke-miterlimit:1;" x1="293.635" y1="32.314" x2="294.398" y2="33.844"/>
	<line style="fill:none;stroke:#000000;stroke-miterlimit:1;" x1="294.398" y1="33.844" x2="294.781" y2="34.991"/>
	<line style="fill:none;stroke:#000000;stroke-miterlimit:1;" x1="294.781" y1="34.991" x2="295.738" y2="36.139"/>
	<line style="fill:none;stroke:#000000;stroke-miterlimit:1;" x1="295.738" y1="36.139" x2="296.121" y2="36.903"/>
	<line style="fill:none;stroke:#000000;stroke-miterlimit:1;" x1="296.121" y1="36.903" x2="296.885" y2="38.051"/>
	<line style="fill:none;stroke:#000000;stroke-miterlimit:1;" x1="296.885" y1="38.051" x2="297.65" y2="38.815"/>
	<line style="fill:none;stroke:#000000;stroke-miterlimit:1;" x1="297.65" y1="38.815" x2="298.605" y2="39.963"/>
	<line style="fill:none;stroke:#000000;stroke-miterlimit:1;" x1="298.605" y1="39.963" x2="299.371" y2="40.728"/>
	<line style="fill:none;stroke:#000000;stroke-miterlimit:1;" x1="299.371" y1="40.728" x2="300.326" y2="41.684"/>
	<line style="fill:none;stroke:#000000;stroke-miterlimit:1;" x1="300.326" y1="41.684" x2="301.475" y2="42.448"/>
	<line style="fill:none;stroke:#000000;stroke-miterlimit:1;" x1="301.475" y1="42.448" x2="302.812" y2="43.404"/>
	<line style="fill:none;stroke:#000000;stroke-miterlimit:1;" x1="302.812" y1="43.404" x2="303.387" y2="43.787"/>
	<line style="fill:none;stroke:#000000;stroke-miterlimit:1;" x1="303.387" y1="43.787" x2="304.342" y2="44.552"/>
	<line style="fill:none;stroke:#000000;stroke-miterlimit:1;" x1="304.342" y1="44.552" x2="305.49" y2="44.934"/>
	<line style="fill:none;stroke:#000000;stroke-miterlimit:1;" x1="305.49" y1="44.934" x2="307.02" y2="45.508"/>
	<line style="fill:none;stroke:#000000;stroke-miterlimit:1;" x1="307.02" y1="45.508" x2="308.166" y2="45.89"/>
	<line style="fill:none;stroke:#000000;stroke-miterlimit:1;" x1="308.166" y1="45.89" x2="309.504" y2="46.464"/>
	<line style="fill:none;stroke:#000000;stroke-miterlimit:1;" x1="309.504" y1="46.464" x2="310.27" y2="46.655"/>
	<line style="fill:none;stroke:#000000;stroke-miterlimit:1;" x1="310.27" y1="46.655" x2="311.607" y2="47.038"/>
	<line style="fill:none;stroke:#000000;stroke-miterlimit:1;" x1="311.607" y1="47.038" x2="312.756" y2="47.038"/>
	<line style="fill:none;stroke:#000000;stroke-miterlimit:1;" x1="312.756" y1="47.038" x2="314.285" y2="47.229"/>
	<line style="fill:none;stroke:#000000;stroke-miterlimit:1;" x1="314.285" y1="47.229" x2="315.051" y2="47.229"/>
	<line style="fill:none;stroke:#000000;stroke-miterlimit:1;" x1="315.051" y1="47.229" x2="316.771" y2="47.42"/>
	<line style="fill:none;stroke:#000000;stroke-miterlimit:1;" x1="316.771" y1="47.42" x2="317.918" y2="47.229"/>
	<line style="fill:none;stroke:#000000;stroke-miterlimit:1;" x1="317.918" y1="47.229" x2="319.639" y2="47.038"/>
	<line style="fill:none;stroke:#000000;stroke-miterlimit:1;" x1="319.639" y1="47.038" x2="320.404" y2="46.846"/>
	<line style="fill:none;stroke:#000000;stroke-miterlimit:1;" x1="320.404" y1="46.846" x2="322.125" y2="46.655"/>
	<line style="fill:none;stroke:#000000;stroke-miterlimit:1;" x1="322.125" y1="46.655" x2="323.08" y2="46.272"/>
	<line style="fill:none;stroke:#000000;stroke-miterlimit:1;" x1="323.08" y1="46.272" x2="324.609" y2="45.89"/>
	<line style="fill:none;stroke:#000000;stroke-miterlimit:1;" x1="324.609" y1="45.89" x2="325.566" y2="45.508"/>
	<line style="fill:none;stroke:#000000;stroke-miterlimit:1;" x1="325.566" y1="45.508" x2="326.521" y2="44.743"/>
	<line style="fill:none;stroke:#000000;stroke-miterlimit:1;" x1="326.521" y1="44.743" x2="327.67" y2="44.36"/>
	<line style="fill:none;stroke:#000000;stroke-miterlimit:1;" x1="327.67" y1="44.36" x2="328.816" y2="43.596"/>
	<line style="fill:none;stroke:#000000;stroke-miterlimit:1;" x1="328.816" y1="43.596" x2="329.773" y2="42.831"/>
	<line style="fill:none;stroke:#000000;stroke-miterlimit:1;" x1="329.773" y1="42.831" x2="330.729" y2="42.257"/>
	<line style="fill:none;stroke:#000000;stroke-miterlimit:1;" x1="330.729" y1="42.257" x2="331.686" y2="41.492"/>
	<line style="fill:none;stroke:#000000;stroke-miterlimit:1;" x1="331.686" y1="41.492" x2="332.641" y2="40.536"/>
	<line style="fill:none;stroke:#000000;stroke-miterlimit:1;" x1="332.641" y1="40.536" x2="333.406" y2="39.58"/>
	<line style="fill:none;stroke:#000000;stroke-miterlimit:1;" x1="333.406" y1="39.58" x2="334.361" y2="38.815"/>
	<line style="fill:none;stroke:#000000;stroke-miterlimit:1;" x1="334.361" y1="38.815" x2="334.936" y2="37.859"/>
	<line style="fill:none;stroke:#000000;stroke-miterlimit:1;" x1="334.936" y1="37.859" x2="335.893" y2="36.33"/>
	<line style="fill:none;stroke:#000000;stroke-miterlimit:1;" x1="335.893" y1="36.33" x2="336.465" y2="35.756"/>
	<line style="fill:none;stroke:#000000;stroke-miterlimit:1;" x1="336.465" y1="35.756" x2="337.23" y2="34.417"/>
	<line style="fill:none;stroke:#000000;stroke-miterlimit:1;" x1="337.23" y1="34.417" x2="337.613" y2="33.461"/>
	<line style="fill:none;stroke:#000000;stroke-miterlimit:1;" x1="337.613" y1="33.461" x2="338.186" y2="32.314"/>
	<line style="fill:none;stroke:#000000;stroke-miterlimit:1;" x1="338.186" y1="32.314" x2="338.568" y2="31.167"/>
	<line style="fill:none;stroke:#000000;stroke-miterlimit:1;" x1="338.568" y1="31.167" x2="338.951" y2="29.829"/>
	<line style="fill:none;stroke:#000000;stroke-miterlimit:1;" x1="338.951" y1="29.829" x2="339.334" y2="28.682"/>
	<line style="fill:none;stroke:#000000;stroke-miterlimit:1;" x1="339.334" y1="28.682" x2="339.525" y2="27.152"/>
	<line style="fill:none;stroke:#000000;stroke-miterlimit:1;" x1="339.525" y1="27.152" x2="339.717" y2="26.196"/>
	<line style="fill:none;stroke:#000000;stroke-miterlimit:1;" x1="339.717" y1="26.196" x2="339.906" y2="24.857"/>
	<line style="fill:none;stroke:#000000;stroke-miterlimit:1;" x1="339.906" y1="24.857" x2="339.906" y2="23.519"/>
	<line style="fill:none;stroke:#000000;stroke-miterlimit:1;" x1="339.906" y1="23.519" x2="339.906" y2="22.18"/>
	<line style="fill:none;stroke:#000000;stroke-miterlimit:1;" x1="339.906" y1="22.18" x2="339.717" y2="20.842"/>
	<line style="fill:none;stroke:#000000;stroke-miterlimit:1;" x1="339.717" y1="20.842" x2="339.525" y2="19.694"/>
	<line style="fill:none;stroke:#000000;stroke-miterlimit:1;" x1="339.525" y1="19.694" x2="339.143" y2="18.356"/>
	<line style="fill:none;stroke:#000000;stroke-miterlimit:1;" x1="339.143" y1="18.356" x2="338.76" y2="17.209"/>
	<line style="fill:none;stroke:#000000;stroke-miterlimit:1;" x1="338.76" y1="17.209" x2="338.377" y2="16.062"/>
	<line style="fill:none;stroke:#000000;stroke-miterlimit:1;" x1="338.377" y1="16.062" x2="337.994" y2="14.915"/>
	<line style="fill:none;stroke:#000000;stroke-miterlimit:1;" x1="341.492" y1="106.678" x2="341.109" y2="105.913"/>
	<line style="fill:none;stroke:#000000;stroke-miterlimit:1;" x1="341.109" y1="105.913" x2="340.346" y2="104.574"/>
	<line style="fill:none;stroke:#000000;stroke-miterlimit:1;" x1="340.346" y1="104.574" x2="339.963" y2="103.81"/>
	<line style="fill:none;stroke:#000000;stroke-miterlimit:1;" x1="339.963" y1="103.81" x2="339.197" y2="102.662"/>
	<line style="fill:none;stroke:#000000;stroke-miterlimit:1;" x1="339.197" y1="102.662" x2="338.623" y2="101.706"/>
	<line style="fill:none;stroke:#000000;stroke-miterlimit:1;" x1="338.623" y1="101.706" x2="337.477" y2="100.559"/>
	<line style="fill:none;stroke:#000000;stroke-miterlimit:1;" x1="337.477" y1="100.559" x2="337.094" y2="99.794"/>
	<line style="fill:none;stroke:#000000;stroke-miterlimit:1;" x1="337.094" y1="99.794" x2="335.947" y2="98.838"/>
	<line style="fill:none;stroke:#000000;stroke-miterlimit:1;" x1="335.947" y1="98.838" x2="334.99" y2="98.073"/>
	<line style="fill:none;stroke:#000000;stroke-miterlimit:1;" x1="334.99" y1="98.073" x2="333.844" y2="97.117"/>
	<line style="fill:none;stroke:#000000;stroke-miterlimit:1;" x1="333.844" y1="97.117" x2="333.078" y2="96.543"/>
	<line style="fill:none;stroke:#000000;stroke-miterlimit:1;" x1="333.078" y1="96.543" x2="331.932" y2="95.587"/>
	<line style="fill:none;stroke:#000000;stroke-miterlimit:1;" x1="331.932" y1="95.587" x2="330.977" y2="95.014"/>
	<line style="fill:none;stroke:#000000;stroke-miterlimit:1;" x1="330.977" y1="95.014" x2="329.637" y2="94.44"/>
	<line style="fill:none;stroke:#000000;stroke-miterlimit:1;" x1="329.637" y1="94.44" x2="328.873" y2="93.866"/>
	<line style="fill:none;stroke:#000000;stroke-miterlimit:1;" x1="328.873" y1="93.866" x2="327.533" y2="93.484"/>
	<line style="fill:none;stroke:#000000;stroke-miterlimit:1;" x1="327.533" y1="93.484" x2="326.387" y2="93.102"/>
	<line style="fill:none;stroke:#000000;stroke-miterlimit:1;" x1="326.387" y1="93.102" x2="324.857" y2="92.719"/>
	<line style="fill:none;stroke:#000000;stroke-miterlimit:1;" x1="324.857" y1="92.719" x2="324.092" y2="92.337"/>
	<line style="fill:none;stroke:#000000;stroke-miterlimit:1;" x1="324.092" y1="92.337" x2="322.562" y2="92.146"/>
	<line style="fill:none;stroke:#000000;stroke-miterlimit:1;" x1="322.562" y1="92.146" x2="321.416" y2="91.954"/>
	<line style="fill:none;stroke:#000000;stroke-miterlimit:1;" x1="321.416" y1="91.954" x2="320.076" y2="91.954"/>
	<line style="fill:none;stroke:#000000;stroke-miterlimit:1;" x1="320.076" y1="91.954" x2="318.93" y2="91.954"/>
	<line style="fill:none;stroke:#000000;stroke-miterlimit:1;" x1="318.93" y1="91.954" x2="317.781" y2="92.146"/>
	<line style="fill:none;stroke:#000000;stroke-miterlimit:1;" x1="317.781" y1="92.146" x2="316.826" y2="92.337"/>
	<line style="fill:none;stroke:#000000;stroke-miterlimit:1;" x1="316.826" y1="92.337" x2="315.68" y2="92.528"/>
	<line style="fill:none;stroke:#000000;stroke-miterlimit:1;" x1="315.68" y1="92.528" x2="314.723" y2="92.719"/>
	<line style="fill:none;stroke:#000000;stroke-miterlimit:1;" x1="314.723" y1="92.719" x2="313.576" y2="92.91"/>
	<line style="fill:none;stroke:#000000;stroke-miterlimit:1;" x1="313.576" y1="92.91" x2="312.619" y2="93.293"/>
	<line style="fill:none;stroke:#000000;stroke-miterlimit:1;" x1="312.619" y1="93.293" x2="310.898" y2="93.675"/>
	<line style="fill:none;stroke:#000000;stroke-miterlimit:1;" x1="310.898" y1="93.675" x2="309.943" y2="94.249"/>
	<line style="fill:none;stroke:#000000;stroke-miterlimit:1;" x1="309.943" y1="94.249" x2="308.604" y2="94.631"/>
	<line style="fill:none;stroke:#000000;stroke-miterlimit:1;" x1="308.604" y1="94.631" x2="307.648" y2="95.205"/>
	<line style="fill:none;stroke:#000000;stroke-miterlimit:1;" x1="307.648" y1="95.205" x2="306.5" y2="95.97"/>
	<line style="fill:none;stroke:#000000;stroke-miterlimit:1;" x1="306.5" y1="95.97" x2="305.545" y2="96.734"/>
	<line style="fill:none;stroke:#000000;stroke-miterlimit:1;" x1="305.545" y1="96.734" x2="304.588" y2="97.309"/>
	<line style="fill:none;stroke:#000000;stroke-miterlimit:1;" x1="304.588" y1="97.309" x2="303.633" y2="98.073"/>
	<line style="fill:none;stroke:#000000;stroke-miterlimit:1;" x1="303.633" y1="98.073" x2="302.486" y2="99.221"/>
	<line style="fill:none;stroke:#000000;stroke-miterlimit:1;" x1="302.486" y1="99.221" x2="301.529" y2="99.985"/>
	<line style="fill:none;stroke:#000000;stroke-miterlimit:1;" x1="301.529" y1="99.985" x2="300.955" y2="100.941"/>
	<line style="fill:none;stroke:#000000;stroke-miterlimit:1;" x1="300.955" y1="100.941" x2="300.383" y2="101.706"/>
	<line style="fill:none;stroke:#000000;stroke-miterlimit:1;" x1="300.383" y1="101.706" x2="299.426" y2="103.045"/>
	<line style="fill:none;stroke:#000000;stroke-miterlimit:1;" x1="299.426" y1="103.045" x2="299.043" y2="103.81"/>
	<line style="fill:none;stroke:#000000;stroke-miterlimit:1;" x1="299.043" y1="103.81" x2="298.088" y2="104.957"/>
	<line style="fill:none;stroke:#000000;stroke-miterlimit:1;" x1="298.088" y1="104.957" x2="297.514" y2="106.104"/>
	<line style="fill:none;stroke:#000000;stroke-miterlimit:1;" x1="297.514" y1="106.104" x2="297.131" y2="107.251"/>
	<line style="fill:none;stroke:#000000;stroke-miterlimit:1;" x1="297.131" y1="107.251" x2="296.941" y2="108.207"/>
	<line style="fill:none;stroke:#000000;stroke-miterlimit:1;" x1="296.941" y1="108.207" x2="296.367" y2="109.546"/>
	<line style="fill:none;stroke:#000000;stroke-miterlimit:1;" x1="296.367" y1="109.546" x2="295.984" y2="110.692"/>
	<line style="fill:none;stroke:#000000;stroke-miterlimit:1;" x1="295.984" y1="110.692" x2="295.793" y2="112.223"/>
	<line style="fill:none;stroke:#000000;stroke-miterlimit:1;" x1="295.793" y1="112.223" x2="295.793" y2="113.37"/>
	<line style="fill:none;stroke:#000000;stroke-miterlimit:1;" x1="295.793" y1="113.37" x2="295.602" y2="115.282"/>
	<line style="fill:none;stroke:#000000;stroke-miterlimit:1;" x1="295.602" y1="115.282" x2="295.602" y2="116.429"/>
	<line style="fill:none;stroke:#000000;stroke-miterlimit:1;" x1="295.602" y1="116.429" x2="295.602" y2="118.341"/>
	<line style="fill:none;stroke:#000000;stroke-miterlimit:1;" x1="295.602" y1="118.341" x2="295.793" y2="119.488"/>
	<line style="fill:none;stroke:#000000;stroke-miterlimit:1;" x1="295.793" y1="119.488" x2="296.176" y2="120.827"/>
	<line style="fill:none;stroke:#000000;stroke-miterlimit:1;" x1="296.176" y1="120.827" x2="296.367" y2="121.975"/>
	<line style="fill:none;stroke:#000000;stroke-miterlimit:1;" x1="296.367" y1="121.975" x2="296.75" y2="123.312"/>
	<line style="fill:none;stroke:#000000;stroke-miterlimit:1;" x1="296.75" y1="123.312" x2="297.131" y2="124.269"/>
	<line style="fill:none;stroke:#000000;stroke-miterlimit:1;" x1="297.131" y1="124.269" x2="297.896" y2="125.798"/>
	<line style="fill:none;stroke:#000000;stroke-miterlimit:1;" x1="297.896" y1="125.798" x2="298.279" y2="126.945"/>
	<line style="fill:none;stroke:#000000;stroke-miterlimit:1;" x1="298.279" y1="126.945" x2="299.234" y2="128.093"/>
	<line style="fill:none;stroke:#000000;stroke-miterlimit:1;" x1="299.234" y1="128.093" x2="299.617" y2="128.857"/>
	<line style="fill:none;stroke:#000000;stroke-miterlimit:1;" x1="299.617" y1="128.857" x2="300.383" y2="130.005"/>
	<line style="fill:none;stroke:#000000;stroke-miterlimit:1;" x1="300.383" y1="130.005" x2="301.146" y2="130.77"/>
	<line style="fill:none;stroke:#000000;stroke-miterlimit:1;" x1="301.146" y1="130.77" x2="302.104" y2="131.917"/>
	<line style="fill:none;stroke:#000000;stroke-miterlimit:1;" x1="302.104" y1="131.917" x2="302.867" y2="132.682"/>
	<line style="fill:none;stroke:#000000;stroke-miterlimit:1;" x1="302.867" y1="132.682" x2="303.824" y2="133.638"/>
	<line style="fill:none;stroke:#000000;stroke-miterlimit:1;" x1="303.824" y1="133.638" x2="304.971" y2="134.402"/>
	<line style="fill:none;stroke:#000000;stroke-miterlimit:1;" x1="304.971" y1="134.402" x2="306.311" y2="135.358"/>
	<line style="fill:none;stroke:#000000;stroke-miterlimit:1;" x1="306.311" y1="135.358" x2="306.883" y2="135.741"/>
	<line style="fill:none;stroke:#000000;stroke-miterlimit:1;" x1="306.883" y1="135.741" x2="307.84" y2="136.506"/>
	<line style="fill:none;stroke:#000000;stroke-miterlimit:1;" x1="307.84" y1="136.506" x2="308.986" y2="136.889"/>
	<line style="fill:none;stroke:#000000;stroke-miterlimit:1;" x1="308.986" y1="136.889" x2="310.516" y2="137.462"/>
	<line style="fill:none;stroke:#000000;stroke-miterlimit:1;" x1="310.516" y1="137.462" x2="311.664" y2="137.845"/>
	<line style="fill:none;stroke:#000000;stroke-miterlimit:1;" x1="311.664" y1="137.845" x2="313.002" y2="138.418"/>
	<line style="fill:none;stroke:#000000;stroke-miterlimit:1;" x1="313.002" y1="138.418" x2="313.768" y2="138.609"/>
	<line style="fill:none;stroke:#000000;stroke-miterlimit:1;" x1="313.768" y1="138.609" x2="315.105" y2="138.992"/>
	<line style="fill:none;stroke:#000000;stroke-miterlimit:1;" x1="315.105" y1="138.992" x2="316.252" y2="138.992"/>
	<line style="fill:none;stroke:#000000;stroke-miterlimit:1;" x1="316.252" y1="138.992" x2="317.781" y2="139.183"/>
	<line style="fill:none;stroke:#000000;stroke-miterlimit:1;" x1="317.781" y1="139.183" x2="318.547" y2="139.183"/>
	<line style="fill:none;stroke:#000000;stroke-miterlimit:1;" x1="318.547" y1="139.183" x2="320.268" y2="139.374"/>
	<line style="fill:none;stroke:#000000;stroke-miterlimit:1;" x1="320.268" y1="139.374" x2="321.416" y2="139.183"/>
	<line style="fill:none;stroke:#000000;stroke-miterlimit:1;" x1="321.416" y1="139.183" x2="323.137" y2="138.992"/>
	<line style="fill:none;stroke:#000000;stroke-miterlimit:1;" x1="323.137" y1="138.992" x2="323.9" y2="138.801"/>
	<line style="fill:none;stroke:#000000;stroke-miterlimit:1;" x1="323.9" y1="138.801" x2="325.621" y2="138.609"/>
	<line style="fill:none;stroke:#000000;stroke-miterlimit:1;" x1="325.621" y1="138.609" x2="326.578" y2="138.227"/>
	<line style="fill:none;stroke:#000000;stroke-miterlimit:1;" x1="326.578" y1="138.227" x2="328.107" y2="137.845"/>
	<line style="fill:none;stroke:#000000;stroke-miterlimit:1;" x1="328.107" y1="137.845" x2="329.064" y2="137.462"/>
	<line style="fill:none;stroke:#000000;stroke-miterlimit:1;" x1="329.064" y1="137.462" x2="330.02" y2="136.697"/>
	<line style="fill:none;stroke:#000000;stroke-miterlimit:1;" x1="330.02" y1="136.697" x2="331.166" y2="136.314"/>
	<line style="fill:none;stroke:#000000;stroke-miterlimit:1;" x1="331.166" y1="136.314" x2="332.314" y2="135.55"/>
	<line style="fill:none;stroke:#000000;stroke-miterlimit:1;" x1="332.314" y1="135.55" x2="333.27" y2="134.785"/>
	<line style="fill:none;stroke:#000000;stroke-miterlimit:1;" x1="333.27" y1="134.785" x2="334.227" y2="134.212"/>
	<line style="fill:none;stroke:#000000;stroke-miterlimit:1;" x1="334.227" y1="134.212" x2="335.182" y2="133.446"/>
	<line style="fill:none;stroke:#000000;stroke-miterlimit:1;" x1="335.182" y1="133.446" x2="336.139" y2="132.49"/>
	<line style="fill:none;stroke:#000000;stroke-miterlimit:1;" x1="336.139" y1="132.49" x2="336.902" y2="131.534"/>
	<line style="fill:none;stroke:#000000;stroke-miterlimit:1;" x1="336.902" y1="131.534" x2="337.859" y2="130.77"/>
	<line style="fill:none;stroke:#000000;stroke-miterlimit:1;" x1="337.859" y1="130.77" x2="338.434" y2="129.813"/>
	<line style="fill:none;stroke:#000000;stroke-miterlimit:1;" x1="338.434" y1="129.813" x2="339.389" y2="128.284"/>
	<line style="fill:none;stroke:#000000;stroke-miterlimit:1;" x1="339.389" y1="128.284" x2="339.963" y2="127.71"/>
	<line style="fill:none;stroke:#000000;stroke-miterlimit:1;" x1="339.963" y1="127.71" x2="340.727" y2="126.372"/>
	<line style="fill:none;stroke:#000000;stroke-miterlimit:1;" x1="340.727" y1="126.372" x2="341.109" y2="125.416"/>
	<line style="fill:none;stroke:#000000;stroke-miterlimit:1;" x1="341.109" y1="125.416" x2="341.684" y2="124.269"/>
	<line style="fill:none;stroke:#000000;stroke-miterlimit:1;" x1="341.684" y1="124.269" x2="342.066" y2="123.121"/>
	<line style="fill:none;stroke:#000000;stroke-miterlimit:1;" x1="342.066" y1="123.121" x2="342.447" y2="121.783"/>
	<line style="fill:none;stroke:#000000;stroke-miterlimit:1;" x1="342.447" y1="121.783" x2="342.83" y2="120.636"/>
	<line style="fill:none;stroke:#000000;stroke-miterlimit:1;" x1="342.83" y1="120.636" x2="343.021" y2="119.106"/>
	<line style="fill:none;stroke:#000000;stroke-miterlimit:1;" x1="343.021" y1="119.106" x2="343.213" y2="118.15"/>
	<line style="fill:none;stroke:#000000;stroke-miterlimit:1;" x1="343.213" y1="118.15" x2="343.404" y2="116.812"/>
	<line style="fill:none;stroke:#000000;stroke-miterlimit:1;" x1="343.404" y1="116.812" x2="343.404" y2="115.473"/>
	<line style="fill:none;stroke:#000000;stroke-miterlimit:1;" x1="343.404" y1="115.473" x2="343.404" y2="114.135"/>
	<line style="fill:none;stroke:#000000;stroke-miterlimit:1;" x1="343.404" y1="114.135" x2="343.213" y2="112.796"/>
	<line style="fill:none;stroke:#000000;stroke-miterlimit:1;" x1="343.213" y1="112.796" x2="343.021" y2="111.648"/>
	<line style="fill:none;stroke:#000000;stroke-miterlimit:1;" x1="343.021" y1="111.648" x2="342.639" y2="110.311"/>
	<line style="fill:none;stroke:#000000;stroke-miterlimit:1;" x1="342.639" y1="110.311" x2="342.258" y2="109.163"/>
	<line style="fill:none;stroke:#000000;stroke-miterlimit:1;" x1="342.258" y1="109.163" x2="341.875" y2="108.016"/>
	<line style="fill:none;stroke:#000000;stroke-miterlimit:1;" x1="341.875" y1="108.016" x2="341.492" y2="106.869"/>
</g>
</svg>
