<?xml version="1.0" encoding="iso-8859-1"?>
<!-- Generator: Adobe Illustrator 16.0.1, SVG Export Plug-In . SVG Version: 6.00 Build 0)  -->
<!DOCTYPE svg PUBLIC "-//W3C//DTD SVG 1.1//EN" "http://www.w3.org/Graphics/SVG/1.1/DTD/svg11.dtd">
<svg version="1.1" id="Ebene_1" xmlns="http://www.w3.org/2000/svg" xmlns:xlink="http://www.w3.org/1999/xlink" x="0px" y="0px"
	 width="381.889px" height="148.649px" viewBox="0 0 381.889 148.649" style="enable-background:new 0 0 381.889 148.649;"
	 xml:space="preserve">
<g>
	<line style="fill:none;stroke:#000000;stroke-miterlimit:1;" x1="343.708" y1="77.308" x2="346.67" y2="84.22"/>
	<line style="fill:none;stroke:#000000;stroke-miterlimit:1;" x1="346.67" y1="84.22" x2="351.607" y2="90.803"/>
	<line style="fill:none;stroke:#000000;stroke-miterlimit:1;" x1="351.607" y1="90.803" x2="362.469" y2="97.715"/>
	<line style="fill:none;stroke:#000000;stroke-miterlimit:1;" x1="362.469" y1="97.715" x2="364.443" y2="99.689"/>
	<line style="fill:none;stroke:#000000;stroke-miterlimit:1;" x1="364.443" y1="99.689" x2="365.102" y2="102.98"/>
	<line style="fill:none;stroke:#000000;stroke-miterlimit:1;" x1="365.102" y1="102.98" x2="365.431" y2="124.046"/>
	<line style="fill:none;stroke:#000000;stroke-miterlimit:1;" x1="365.431" y1="124.046" x2="363.127" y2="126.679"/>
	<line style="fill:none;stroke:#000000;stroke-miterlimit:1;" x1="363.127" y1="126.679" x2="360.823" y2="129.971"/>
	<line style="fill:none;stroke:#000000;stroke-miterlimit:1;" x1="360.823" y1="129.971" x2="360.165" y2="133.591"/>
	<line style="fill:none;stroke:#000000;stroke-miterlimit:1;" x1="360.165" y1="133.591" x2="363.456" y2="132.604"/>
	<line style="fill:none;stroke:#000000;stroke-miterlimit:1;" x1="362.798" y1="127.666" x2="368.723" y2="127.666"/>
	<line style="fill:none;stroke:#000000;stroke-miterlimit:1;" x1="365.431" y1="128.324" x2="363.785" y2="133.262"/>
	<line style="fill:none;stroke:#000000;stroke-miterlimit:1;" x1="363.785" y1="133.262" x2="368.064" y2="133.262"/>
	<line style="fill:none;stroke:#000000;stroke-miterlimit:1;" x1="368.064" y1="133.262" x2="369.052" y2="127.666"/>
	<line style="fill:none;stroke:#000000;stroke-miterlimit:1;" x1="369.052" y1="127.666" x2="372.014" y2="126.35"/>
	<line style="fill:none;stroke:#000000;stroke-miterlimit:1;" x1="372.014" y1="126.35" x2="373.001" y2="124.375"/>
	<line style="fill:none;stroke:#000000;stroke-miterlimit:1;" x1="373.001" y1="124.375" x2="372.014" y2="110.222"/>
	<line style="fill:none;stroke:#000000;stroke-miterlimit:1;" x1="372.014" y1="110.222" x2="373.659" y2="96.727"/>
	<line style="fill:none;stroke:#000000;stroke-miterlimit:1;" x1="373.659" y1="96.727" x2="373.33" y2="93.765"/>
	<line style="fill:none;stroke:#000000;stroke-miterlimit:1;" x1="373.33" y1="93.765" x2="370.697" y2="88.498"/>
	<line style="fill:none;stroke:#000000;stroke-miterlimit:1;" x1="370.697" y1="88.498" x2="369.71" y2="83.232"/>
	<line style="fill:none;stroke:#000000;stroke-miterlimit:1;" x1="369.71" y1="83.232" x2="373.001" y2="64.8"/>
	<line style="fill:none;stroke:#000000;stroke-miterlimit:1;" x1="373.001" y1="64.8" x2="372.672" y2="60.192"/>
	<line style="fill:none;stroke:#000000;stroke-miterlimit:1;" x1="372.672" y1="60.192" x2="368.723" y2="55.255"/>
	<line style="fill:none;stroke:#000000;stroke-miterlimit:1;" x1="373.33" y1="65.458" x2="373.33" y2="87.511"/>
	<line style="fill:none;stroke:#000000;stroke-miterlimit:1;" x1="373.33" y1="87.511" x2="374.977" y2="97.056"/>
	<line style="fill:none;stroke:#000000;stroke-miterlimit:1;" x1="374.977" y1="97.056" x2="381.229" y2="108.905"/>
	<line style="fill:none;stroke:#000000;stroke-miterlimit:1;" x1="381.229" y1="108.905" x2="381.889" y2="101.993"/>
	<line style="fill:none;stroke:#000000;stroke-miterlimit:1;" x1="381.889" y1="101.993" x2="380.571" y2="95.081"/>
	<line style="fill:none;stroke:#000000;stroke-miterlimit:1;" x1="380.571" y1="95.081" x2="377.938" y2="90.145"/>
	<line style="fill:none;stroke:#000000;stroke-miterlimit:1;" x1="377.938" y1="90.145" x2="376.293" y2="81.916"/>
	<line style="fill:none;stroke:#000000;stroke-miterlimit:1;" x1="376.293" y1="81.916" x2="375.964" y2="59.534"/>
	<line style="fill:none;stroke:#000000;stroke-miterlimit:1;" x1="375.964" y1="59.534" x2="373.989" y2="54.926"/>
	<line style="fill:none;stroke:#000000;stroke-miterlimit:1;" x1="373.989" y1="54.926" x2="371.355" y2="52.951"/>
	<line style="fill:none;stroke:#000000;stroke-miterlimit:1;" x1="371.355" y1="52.951" x2="363.785" y2="50.318"/>
	<line style="fill:none;stroke:#000000;stroke-miterlimit:1;" x1="363.785" y1="50.318" x2="354.24" y2="49.001"/>
	<line style="fill:none;stroke:#000000;stroke-miterlimit:1;" x1="354.24" y1="49.001" x2="343.708" y2="49.001"/>
	<line style="fill:none;stroke:#000000;stroke-miterlimit:1;" x1="343.708" y1="49.001" x2="321.326" y2="52.951"/>
	<line style="fill:none;stroke:#000000;stroke-miterlimit:1;" x1="321.326" y1="52.951" x2="309.147" y2="53.609"/>
	<line style="fill:none;stroke:#000000;stroke-miterlimit:1;" x1="309.147" y1="53.609" x2="296.312" y2="53.28"/>
	<line style="fill:none;stroke:#000000;stroke-miterlimit:1;" x1="296.312" y1="53.28" x2="271.296" y2="46.368"/>
	<line style="fill:none;stroke:#000000;stroke-miterlimit:1;" x1="271.296" y1="46.368" x2="256.813" y2="43.735"/>
	<line style="fill:none;stroke:#000000;stroke-miterlimit:1;" x1="248.585" y1="47.355" x2="251.548" y2="46.368"/>
	<line style="fill:none;stroke:#000000;stroke-miterlimit:1;" x1="251.548" y1="46.368" x2="254.839" y2="46.368"/>
	<line style="fill:none;stroke:#000000;stroke-miterlimit:1;" x1="254.839" y1="46.368" x2="258.131" y2="40.114"/>
	<line style="fill:none;stroke:#000000;stroke-miterlimit:1;" x1="258.131" y1="40.114" x2="254.839" y2="39.785"/>
	<line style="fill:none;stroke:#000000;stroke-miterlimit:1;" x1="254.839" y1="39.785" x2="250.89" y2="40.772"/>
	<line style="fill:none;stroke:#000000;stroke-miterlimit:1;" x1="250.89" y1="40.772" x2="248.585" y2="43.735"/>
	<line style="fill:none;stroke:#000000;stroke-miterlimit:1;" x1="248.585" y1="43.735" x2="246.281" y2="44.722"/>
	<line style="fill:none;stroke:#000000;stroke-miterlimit:1;" x1="250.231" y1="41.431" x2="249.244" y2="41.102"/>
	<line style="fill:none;stroke:#000000;stroke-miterlimit:1;" x1="247.927" y1="42.089" x2="252.206" y2="39.127"/>
	<line style="fill:none;stroke:#000000;stroke-miterlimit:1;" x1="252.206" y1="39.127" x2="255.168" y2="35.835"/>
	<line style="fill:none;stroke:#000000;stroke-miterlimit:1;" x1="255.168" y1="35.835" x2="257.473" y2="29.252"/>
	<line style="fill:none;stroke:#000000;stroke-miterlimit:1;" x1="257.473" y1="29.252" x2="257.473" y2="25.303"/>
	<line style="fill:none;stroke:#000000;stroke-miterlimit:1;" x1="257.473" y1="25.303" x2="256.813" y2="19.049"/>
	<line style="fill:none;stroke:#000000;stroke-miterlimit:1;" x1="256.813" y1="19.049" x2="254.839" y2="15.429"/>
	<line style="fill:none;stroke:#000000;stroke-miterlimit:1;" x1="254.839" y1="15.429" x2="254.51" y2="24.645"/>
	<line style="fill:none;stroke:#000000;stroke-miterlimit:1;" x1="254.51" y1="24.645" x2="252.864" y2="30.898"/>
	<line style="fill:none;stroke:#000000;stroke-miterlimit:1;" x1="252.864" y1="30.898" x2="248.914" y2="35.835"/>
	<line style="fill:none;stroke:#000000;stroke-miterlimit:1;" x1="248.914" y1="35.835" x2="242.332" y2="39.785"/>
	<line style="fill:none;stroke:#000000;stroke-miterlimit:1;" x1="242.332" y1="39.785" x2="242.99" y2="42.089"/>
	<line style="fill:none;stroke:#000000;stroke-miterlimit:1;" x1="244.307" y1="38.798" x2="242.003" y2="38.14"/>
	<line style="fill:none;stroke:#000000;stroke-miterlimit:1;" x1="242.003" y1="38.14" x2="237.724" y2="38.14"/>
	<line style="fill:none;stroke:#000000;stroke-miterlimit:1;" x1="237.724" y1="38.14" x2="234.762" y2="38.469"/>
	<line style="fill:none;stroke:#000000;stroke-miterlimit:1;" x1="234.762" y1="38.469" x2="233.115" y2="39.785"/>
	<line style="fill:none;stroke:#000000;stroke-miterlimit:1;" x1="233.115" y1="39.785" x2="231.799" y2="42.418"/>
	<line style="fill:none;stroke:#000000;stroke-miterlimit:1;" x1="231.799" y1="42.418" x2="229.824" y2="46.368"/>
	<line style="fill:none;stroke:#000000;stroke-miterlimit:1;" x1="229.824" y1="46.368" x2="224.558" y2="50.976"/>
	<line style="fill:none;stroke:#000000;stroke-miterlimit:1;" x1="224.558" y1="50.976" x2="220.608" y2="54.268"/>
	<line style="fill:none;stroke:#000000;stroke-miterlimit:1;" x1="220.608" y1="54.268" x2="216.987" y2="56.571"/>
	<line style="fill:none;stroke:#000000;stroke-miterlimit:1;" x1="216.987" y1="56.571" x2="216" y2="58.546"/>
	<line style="fill:none;stroke:#000000;stroke-miterlimit:1;" x1="216" y1="58.546" x2="217.316" y2="61.838"/>
	<line style="fill:none;stroke:#000000;stroke-miterlimit:1;" x1="217.316" y1="61.838" x2="220.938" y2="65.458"/>
	<line style="fill:none;stroke:#000000;stroke-miterlimit:1;" x1="220.938" y1="65.458" x2="227.85" y2="65.129"/>
	<line style="fill:none;stroke:#000000;stroke-miterlimit:1;" x1="223.57" y1="60.851" x2="220.608" y2="60.851"/>
	<line style="fill:none;stroke:#000000;stroke-miterlimit:1;" x1="220.608" y1="60.851" x2="221.925" y2="62.496"/>
	<line style="fill:none;stroke:#000000;stroke-miterlimit:1;" x1="235.091" y1="51.963" x2="236.407" y2="51.634"/>
	<line style="fill:none;stroke:#000000;stroke-miterlimit:1;" x1="236.407" y1="51.634" x2="237.724" y2="49.66"/>
	<line style="fill:none;stroke:#000000;stroke-miterlimit:1;" x1="237.724" y1="49.66" x2="239.04" y2="49.66"/>
	<line style="fill:none;stroke:#000000;stroke-miterlimit:1;" x1="239.04" y1="49.66" x2="241.015" y2="52.622"/>
	<line style="fill:none;stroke:#000000;stroke-miterlimit:1;" x1="240.027" y1="51.305" x2="238.711" y2="52.292"/>
	<line style="fill:none;stroke:#000000;stroke-miterlimit:1;" x1="238.711" y1="52.292" x2="237.724" y2="52.292"/>
	<line style="fill:none;stroke:#000000;stroke-miterlimit:1;" x1="237.724" y1="52.292" x2="236.407" y2="50.976"/>
	<line style="fill:none;stroke:#000000;stroke-miterlimit:1;" x1="233.774" y1="38.469" x2="230.153" y2="36.823"/>
	<line style="fill:none;stroke:#000000;stroke-miterlimit:1;" x1="230.153" y1="36.823" x2="225.874" y2="33.202"/>
	<line style="fill:none;stroke:#000000;stroke-miterlimit:1;" x1="225.874" y1="33.202" x2="223.899" y2="29.252"/>
	<line style="fill:none;stroke:#000000;stroke-miterlimit:1;" x1="223.899" y1="29.252" x2="223.241" y2="24.974"/>
	<line style="fill:none;stroke:#000000;stroke-miterlimit:1;" x1="223.241" y1="24.974" x2="224.558" y2="16.087"/>
	<line style="fill:none;stroke:#000000;stroke-miterlimit:1;" x1="224.558" y1="16.087" x2="221.925" y2="18.72"/>
	<line style="fill:none;stroke:#000000;stroke-miterlimit:1;" x1="221.925" y1="18.72" x2="219.621" y2="24.974"/>
	<line style="fill:none;stroke:#000000;stroke-miterlimit:1;" x1="219.621" y1="24.974" x2="219.621" y2="31.557"/>
	<line style="fill:none;stroke:#000000;stroke-miterlimit:1;" x1="219.621" y1="31.557" x2="223.241" y2="37.481"/>
	<line style="fill:none;stroke:#000000;stroke-miterlimit:1;" x1="223.241" y1="37.481" x2="227.191" y2="40.443"/>
	<line style="fill:none;stroke:#000000;stroke-miterlimit:1;" x1="227.191" y1="40.443" x2="231.799" y2="42.418"/>
	<line style="fill:none;stroke:#000000;stroke-miterlimit:1;" x1="216.658" y1="60.851" x2="216.329" y2="63.154"/>
	<line style="fill:none;stroke:#000000;stroke-miterlimit:1;" x1="216.329" y1="63.154" x2="219.95" y2="67.433"/>
	<line style="fill:none;stroke:#000000;stroke-miterlimit:1;" x1="219.95" y1="67.433" x2="223.899" y2="68.421"/>
	<line style="fill:none;stroke:#000000;stroke-miterlimit:1;" x1="223.899" y1="68.421" x2="229.495" y2="67.433"/>
	<line style="fill:none;stroke:#000000;stroke-miterlimit:1;" x1="229.495" y1="67.433" x2="235.091" y2="66.446"/>
	<line style="fill:none;stroke:#000000;stroke-miterlimit:1;" x1="235.091" y1="66.446" x2="245.294" y2="66.117"/>
	<line style="fill:none;stroke:#000000;stroke-miterlimit:1;" x1="245.294" y1="66.117" x2="249.244" y2="63.483"/>
	<line style="fill:none;stroke:#000000;stroke-miterlimit:1;" x1="249.244" y1="63.483" x2="253.193" y2="59.534"/>
	<line style="fill:none;stroke:#000000;stroke-miterlimit:1;" x1="245.623" y1="66.117" x2="249.244" y2="74.674"/>
	<line style="fill:none;stroke:#000000;stroke-miterlimit:1;" x1="249.244" y1="74.674" x2="252.535" y2="84.22"/>
	<line style="fill:none;stroke:#000000;stroke-miterlimit:1;" x1="252.535" y1="84.22" x2="256.813" y2="91.132"/>
	<line style="fill:none;stroke:#000000;stroke-miterlimit:1;" x1="256.813" y1="91.132" x2="263.396" y2="96.397"/>
	<line style="fill:none;stroke:#000000;stroke-miterlimit:1;" x1="263.396" y1="96.397" x2="268.992" y2="99.031"/>
	<line style="fill:none;stroke:#000000;stroke-miterlimit:1;" x1="268.992" y1="99.031" x2="277.221" y2="100.348"/>
	<line style="fill:none;stroke:#000000;stroke-miterlimit:1;" x1="289.399" y1="96.397" x2="292.69" y2="95.41"/>
	<line style="fill:none;stroke:#000000;stroke-miterlimit:1;" x1="292.69" y1="95.41" x2="296.312" y2="95.081"/>
	<line style="fill:none;stroke:#000000;stroke-miterlimit:1;" x1="296.312" y1="95.081" x2="300.919" y2="96.068"/>
	<line style="fill:none;stroke:#000000;stroke-miterlimit:1;" x1="300.919" y1="96.068" x2="305.198" y2="96.397"/>
	<line style="fill:none;stroke:#000000;stroke-miterlimit:1;" x1="305.198" y1="96.397" x2="311.781" y2="96.397"/>
	<line style="fill:none;stroke:#000000;stroke-miterlimit:1;" x1="311.781" y1="96.397" x2="319.681" y2="96.397"/>
	<line style="fill:none;stroke:#000000;stroke-miterlimit:1;" x1="319.681" y1="96.397" x2="325.934" y2="97.715"/>
	<line style="fill:none;stroke:#000000;stroke-miterlimit:1;" x1="324.617" y1="99.36" x2="328.238" y2="97.715"/>
	<line style="fill:none;stroke:#000000;stroke-miterlimit:1;" x1="328.238" y1="97.715" x2="332.517" y2="96.068"/>
	<line style="fill:none;stroke:#000000;stroke-miterlimit:1;" x1="332.517" y1="96.068" x2="344.366" y2="93.106"/>
	<line style="fill:none;stroke:#000000;stroke-miterlimit:1;" x1="344.366" y1="93.106" x2="354.898" y2="92.448"/>
	<line style="fill:none;stroke:#000000;stroke-miterlimit:1;" x1="265.372" y1="71.712" x2="266.03" y2="79.282"/>
	<line style="fill:none;stroke:#000000;stroke-miterlimit:1;" x1="266.03" y1="79.282" x2="268.992" y2="87.511"/>
	<line style="fill:none;stroke:#000000;stroke-miterlimit:1;" x1="268.992" y1="87.511" x2="275.904" y2="96.727"/>
	<line style="fill:none;stroke:#000000;stroke-miterlimit:1;" x1="275.904" y1="96.727" x2="277.221" y2="99.031"/>
	<line style="fill:none;stroke:#000000;stroke-miterlimit:1;" x1="277.221" y1="99.031" x2="277.221" y2="101.664"/>
	<line style="fill:none;stroke:#000000;stroke-miterlimit:1;" x1="277.221" y1="101.664" x2="275.904" y2="120.096"/>
	<line style="fill:none;stroke:#000000;stroke-miterlimit:1;" x1="275.904" y1="120.096" x2="274.588" y2="122.729"/>
	<line style="fill:none;stroke:#000000;stroke-miterlimit:1;" x1="274.588" y1="122.729" x2="270.638" y2="129.312"/>
	<line style="fill:none;stroke:#000000;stroke-miterlimit:1;" x1="270.638" y1="129.312" x2="268.663" y2="133.92"/>
	<line style="fill:none;stroke:#000000;stroke-miterlimit:1;" x1="268.663" y1="133.92" x2="271.954" y2="132.604"/>
	<line style="fill:none;stroke:#000000;stroke-miterlimit:1;" x1="270.967" y1="128.983" x2="277.55" y2="129.312"/>
	<line style="fill:none;stroke:#000000;stroke-miterlimit:1;" x1="272.942" y1="129.312" x2="271.954" y2="133.92"/>
	<line style="fill:none;stroke:#000000;stroke-miterlimit:1;" x1="271.954" y1="133.92" x2="277.879" y2="132.604"/>
	<line style="fill:none;stroke:#000000;stroke-miterlimit:1;" x1="277.879" y1="132.604" x2="278.537" y2="128.324"/>
	<line style="fill:none;stroke:#000000;stroke-miterlimit:1;" x1="278.537" y1="128.324" x2="281.171" y2="127.337"/>
	<line style="fill:none;stroke:#000000;stroke-miterlimit:1;" x1="281.171" y1="127.337" x2="282.487" y2="125.362"/>
	<line style="fill:none;stroke:#000000;stroke-miterlimit:1;" x1="282.487" y1="125.362" x2="282.487" y2="123.388"/>
	<line style="fill:none;stroke:#000000;stroke-miterlimit:1;" x1="282.487" y1="123.388" x2="283.475" y2="114.172"/>
	<line style="fill:none;stroke:#000000;stroke-miterlimit:1;" x1="283.475" y1="114.172" x2="286.766" y2="101.993"/>
	<line style="fill:none;stroke:#000000;stroke-miterlimit:1;" x1="286.766" y1="101.993" x2="289.07" y2="96.068"/>
	<line style="fill:none;stroke:#000000;stroke-miterlimit:1;" x1="289.07" y1="96.068" x2="290.058" y2="91.79"/>
	<line style="fill:none;stroke:#000000;stroke-miterlimit:1;" x1="290.058" y1="91.79" x2="288.083" y2="86.523"/>
	<line style="fill:none;stroke:#000000;stroke-miterlimit:1;" x1="262.08" y1="95.081" x2="255.826" y2="116.146"/>
	<line style="fill:none;stroke:#000000;stroke-miterlimit:1;" x1="255.826" y1="116.146" x2="253.522" y2="120.754"/>
	<line style="fill:none;stroke:#000000;stroke-miterlimit:1;" x1="253.522" y1="120.754" x2="249.573" y2="125.691"/>
	<line style="fill:none;stroke:#000000;stroke-miterlimit:1;" x1="249.573" y1="125.691" x2="245.623" y2="130.629"/>
	<line style="fill:none;stroke:#000000;stroke-miterlimit:1;" x1="245.623" y1="130.629" x2="244.307" y2="133.591"/>
	<line style="fill:none;stroke:#000000;stroke-miterlimit:1;" x1="244.307" y1="133.591" x2="247.269" y2="132.274"/>
	<line style="fill:none;stroke:#000000;stroke-miterlimit:1;" x1="247.927" y1="127.666" x2="253.852" y2="129.642"/>
	<line style="fill:none;stroke:#000000;stroke-miterlimit:1;" x1="249.244" y1="129.642" x2="246.939" y2="133.92"/>
	<line style="fill:none;stroke:#000000;stroke-miterlimit:1;" x1="246.939" y1="133.92" x2="252.864" y2="132.933"/>
	<line style="fill:none;stroke:#000000;stroke-miterlimit:1;" x1="252.864" y1="132.933" x2="254.181" y2="128.654"/>
	<line style="fill:none;stroke:#000000;stroke-miterlimit:1;" x1="254.181" y1="128.654" x2="256.813" y2="128.654"/>
	<line style="fill:none;stroke:#000000;stroke-miterlimit:1;" x1="256.813" y1="128.654" x2="258.789" y2="127.008"/>
	<line style="fill:none;stroke:#000000;stroke-miterlimit:1;" x1="258.789" y1="127.008" x2="261.751" y2="118.45"/>
	<line style="fill:none;stroke:#000000;stroke-miterlimit:1;" x1="261.751" y1="118.45" x2="265.372" y2="109.563"/>
	<line style="fill:none;stroke:#000000;stroke-miterlimit:1;" x1="265.372" y1="109.563" x2="269.979" y2="104.955"/>
	<line style="fill:none;stroke:#000000;stroke-miterlimit:1;" x1="269.979" y1="104.955" x2="270.967" y2="99.689"/>
	<line style="fill:none;stroke:#000000;stroke-miterlimit:1;" x1="332.517" y1="96.397" x2="333.833" y2="99.36"/>
	<line style="fill:none;stroke:#000000;stroke-miterlimit:1;" x1="333.833" y1="99.36" x2="333.175" y2="101.993"/>
	<line style="fill:none;stroke:#000000;stroke-miterlimit:1;" x1="333.175" y1="101.993" x2="321.984" y2="125.033"/>
	<line style="fill:none;stroke:#000000;stroke-miterlimit:1;" x1="321.984" y1="125.033" x2="319.352" y2="127.337"/>
	<line style="fill:none;stroke:#000000;stroke-miterlimit:1;" x1="319.352" y1="127.337" x2="316.718" y2="129.642"/>
	<line style="fill:none;stroke:#000000;stroke-miterlimit:1;" x1="316.718" y1="129.642" x2="314.743" y2="133.591"/>
	<line style="fill:none;stroke:#000000;stroke-miterlimit:1;" x1="314.743" y1="133.591" x2="317.705" y2="132.933"/>
	<line style="fill:none;stroke:#000000;stroke-miterlimit:1;" x1="317.705" y1="129.642" x2="324.288" y2="128.654"/>
	<line style="fill:none;stroke:#000000;stroke-miterlimit:1;" x1="319.021" y1="130.3" x2="317.705" y2="133.92"/>
	<line style="fill:none;stroke:#000000;stroke-miterlimit:1;" x1="317.705" y1="133.92" x2="324.288" y2="132.933"/>
	<line style="fill:none;stroke:#000000;stroke-miterlimit:1;" x1="324.288" y1="132.933" x2="324.617" y2="128.324"/>
	<line style="fill:none;stroke:#000000;stroke-miterlimit:1;" x1="324.617" y1="128.324" x2="327.909" y2="126.679"/>
	<line style="fill:none;stroke:#000000;stroke-miterlimit:1;" x1="327.909" y1="126.679" x2="336.796" y2="110.551"/>
	<line style="fill:none;stroke:#000000;stroke-miterlimit:1;" x1="336.796" y1="110.551" x2="341.732" y2="105.614"/>
	<line style="fill:none;stroke:#000000;stroke-miterlimit:1;" x1="341.732" y1="105.614" x2="342.392" y2="102.98"/>
	<line style="fill:none;stroke:#000000;stroke-miterlimit:1;" x1="342.392" y1="102.98" x2="345.024" y2="97.056"/>
	<line style="fill:none;stroke:#000000;stroke-miterlimit:1;" x1="345.024" y1="97.056" x2="348.315" y2="93.106"/>
	<line style="fill:none;stroke:#000000;stroke-miterlimit:1;" x1="33.244" y1="126.062" x2="29.294" y2="121.125"/>
	<line style="fill:none;stroke:#000000;stroke-miterlimit:1;" x1="29.294" y1="121.125" x2="24.357" y2="116.188"/>
	<line style="fill:none;stroke:#000000;stroke-miterlimit:1;" x1="24.357" y1="116.188" x2="20.407" y2="111.908"/>
	<line style="fill:none;stroke:#000000;stroke-miterlimit:1;" x1="20.407" y1="111.908" x2="16.128" y2="107.301"/>
	<line style="fill:none;stroke:#000000;stroke-miterlimit:1;" x1="16.128" y1="107.301" x2="10.862" y2="102.034"/>
	<line style="fill:none;stroke:#000000;stroke-miterlimit:1;" x1="10.862" y1="102.034" x2="5.596" y2="98.085"/>
	<line style="fill:none;stroke:#000000;stroke-miterlimit:1;" x1="5.596" y1="98.085" x2="0" y2="94.135"/>
	<line style="fill:none;stroke:#000000;stroke-miterlimit:1;" x1="0" y1="94.135" x2="10.533" y2="0"/>
	<line style="fill:none;stroke:#000000;stroke-miterlimit:1;" x1="10.533" y1="0" x2="13.824" y2="0.987"/>
	<line style="fill:none;stroke:#000000;stroke-miterlimit:1;" x1="13.824" y1="0.987" x2="17.445" y2="2.633"/>
	<line style="fill:none;stroke:#000000;stroke-miterlimit:1;" x1="17.445" y1="2.633" x2="20.407" y2="4.937"/>
	<line style="fill:none;stroke:#000000;stroke-miterlimit:1;" x1="20.407" y1="4.937" x2="23.369" y2="8.558"/>
	<line style="fill:none;stroke:#000000;stroke-miterlimit:1;" x1="23.369" y1="8.558" x2="26.002" y2="12.837"/>
	<line style="fill:none;stroke:#000000;stroke-miterlimit:1;" x1="26.002" y1="12.837" x2="27.319" y2="17.445"/>
	<line style="fill:none;stroke:#000000;stroke-miterlimit:1;" x1="27.319" y1="17.445" x2="28.307" y2="21.395"/>
	<line style="fill:none;stroke:#000000;stroke-miterlimit:1;" x1="28.307" y1="21.395" x2="29.294" y2="26.661"/>
	<line style="fill:none;stroke:#000000;stroke-miterlimit:1;" x1="29.294" y1="26.661" x2="33.902" y2="147.785"/>
	<line style="fill:none;stroke:#000000;stroke-miterlimit:1;" x1="33.902" y1="147.785" x2="27.648" y2="148.114"/>
	<line style="fill:none;stroke:#000000;stroke-miterlimit:1;" x1="27.648" y1="148.114" x2="28.965" y2="120.796"/>
	<line style="fill:none;stroke:#000000;stroke-miterlimit:1;" x1="49.372" y1="36.206" x2="193.536" y2="36.206"/>
	<line style="fill:none;stroke:#000000;stroke-miterlimit:1;" x1="193.536" y1="36.206" x2="193.536" y2="0"/>
	<line style="fill:none;stroke:#000000;stroke-miterlimit:1;" x1="193.536" y1="0" x2="49.372" y2="0"/>
	<line style="fill:none;stroke:#000000;stroke-miterlimit:1;" x1="49.372" y1="0" x2="49.372" y2="36.206"/>
	<line style="fill:none;stroke:#000000;stroke-miterlimit:1;" x1="88.54" y1="0" x2="110.263" y2="36.206"/>
	<line style="fill:none;stroke:#000000;stroke-miterlimit:1;" x1="111.25" y1="0" x2="132.645" y2="36.206"/>
	<line style="fill:none;stroke:#000000;stroke-miterlimit:1;" x1="133.632" y1="0" x2="155.355" y2="36.206"/>
	<line style="fill:none;stroke:#000000;stroke-miterlimit:1;" x1="167.164" y1="148.649" x2="89.486" y2="148.649"/>
	<line style="fill:none;stroke:#000000;stroke-miterlimit:1;" x1="89.486" y1="148.649" x2="90.473" y2="142.066"/>
	<line style="fill:none;stroke:#000000;stroke-miterlimit:1;" x1="90.473" y1="142.066" x2="91.461" y2="137.787"/>
	<line style="fill:none;stroke:#000000;stroke-miterlimit:1;" x1="91.461" y1="137.787" x2="93.106" y2="133.509"/>
	<line style="fill:none;stroke:#000000;stroke-miterlimit:1;" x1="93.106" y1="133.509" x2="95.411" y2="130.217"/>
	<line style="fill:none;stroke:#000000;stroke-miterlimit:1;" x1="95.411" y1="130.217" x2="97.385" y2="127.255"/>
	<line style="fill:none;stroke:#000000;stroke-miterlimit:1;" x1="97.385" y1="127.255" x2="100.019" y2="123.635"/>
	<line style="fill:none;stroke:#000000;stroke-miterlimit:1;" x1="100.019" y1="123.635" x2="102.981" y2="121.001"/>
	<line style="fill:none;stroke:#000000;stroke-miterlimit:1;" x1="102.981" y1="121.001" x2="106.602" y2="118.368"/>
	<line style="fill:none;stroke:#000000;stroke-miterlimit:1;" x1="106.602" y1="118.368" x2="109.563" y2="116.394"/>
	<line style="fill:none;stroke:#000000;stroke-miterlimit:1;" x1="109.563" y1="116.394" x2="113.842" y2="114.418"/>
	<line style="fill:none;stroke:#000000;stroke-miterlimit:1;" x1="113.842" y1="114.418" x2="118.122" y2="113.102"/>
	<line style="fill:none;stroke:#000000;stroke-miterlimit:1;" x1="118.122" y1="113.102" x2="121.083" y2="112.443"/>
	<line style="fill:none;stroke:#000000;stroke-miterlimit:1;" x1="121.083" y1="112.443" x2="126.35" y2="111.785"/>
	<line style="fill:none;stroke:#000000;stroke-miterlimit:1;" x1="126.35" y1="111.785" x2="130.3" y2="111.785"/>
	<line style="fill:none;stroke:#000000;stroke-miterlimit:1;" x1="130.3" y1="111.785" x2="133.92" y2="112.443"/>
	<line style="fill:none;stroke:#000000;stroke-miterlimit:1;" x1="133.92" y1="112.443" x2="137.87" y2="113.102"/>
	<line style="fill:none;stroke:#000000;stroke-miterlimit:1;" x1="137.87" y1="113.102" x2="142.149" y2="114.089"/>
	<line style="fill:none;stroke:#000000;stroke-miterlimit:1;" x1="142.149" y1="114.089" x2="145.111" y2="115.076"/>
	<line style="fill:none;stroke:#000000;stroke-miterlimit:1;" x1="145.111" y1="115.076" x2="149.061" y2="117.71"/>
	<line style="fill:none;stroke:#000000;stroke-miterlimit:1;" x1="149.061" y1="117.71" x2="152.352" y2="120.014"/>
	<line style="fill:none;stroke:#000000;stroke-miterlimit:1;" x1="152.352" y1="120.014" x2="155.314" y2="122.317"/>
	<line style="fill:none;stroke:#000000;stroke-miterlimit:1;" x1="155.314" y1="122.317" x2="157.948" y2="125.609"/>
	<line style="fill:none;stroke:#000000;stroke-miterlimit:1;" x1="157.948" y1="125.609" x2="160.581" y2="129.229"/>
	<line style="fill:none;stroke:#000000;stroke-miterlimit:1;" x1="160.581" y1="129.229" x2="162.885" y2="132.851"/>
	<line style="fill:none;stroke:#000000;stroke-miterlimit:1;" x1="162.885" y1="132.851" x2="164.53" y2="136.142"/>
	<line style="fill:none;stroke:#000000;stroke-miterlimit:1;" x1="164.53" y1="136.142" x2="165.847" y2="141.079"/>
	<line style="fill:none;stroke:#000000;stroke-miterlimit:1;" x1="165.847" y1="141.079" x2="166.834" y2="144.699"/>
	<line style="fill:none;stroke:#000000;stroke-miterlimit:1;" x1="166.834" y1="144.699" x2="167.164" y2="148.649"/>
</g>
</svg>
