<?xml version="1.0" encoding="iso-8859-1"?>
<!-- Generator: Adobe Illustrator 16.0.1, SVG Export Plug-In . SVG Version: 6.00 Build 0)  -->
<!DOCTYPE svg PUBLIC "-//W3C//DTD SVG 1.1//EN" "http://www.w3.org/Graphics/SVG/1.1/DTD/svg11.dtd">
<svg version="1.1" id="Ebene_1" xmlns="http://www.w3.org/2000/svg" xmlns:xlink="http://www.w3.org/1999/xlink" x="0px" y="0px"
	 width="286.766px" height="148.155px" viewBox="0 0 286.766 148.155" style="enable-background:new 0 0 286.766 148.155;"
	 xml:space="preserve">
<g>
	<line style="fill:none;stroke:#000000;stroke-miterlimit:1;" x1="39.168" y1="51.429" x2="40.814" y2="51.429"/>
	<line style="fill:none;stroke:#000000;stroke-miterlimit:1;" x1="40.814" y1="51.429" x2="41.801" y2="51.099"/>
	<line style="fill:none;stroke:#000000;stroke-miterlimit:1;" x1="41.801" y1="51.099" x2="43.447" y2="49.783"/>
	<line style="fill:none;stroke:#000000;stroke-miterlimit:1;" x1="43.447" y1="49.783" x2="43.776" y2="48.795"/>
	<line style="fill:none;stroke:#000000;stroke-miterlimit:1;" x1="43.776" y1="48.795" x2="44.105" y2="47.149"/>
	<line style="fill:none;stroke:#000000;stroke-miterlimit:1;" x1="44.105" y1="47.149" x2="43.447" y2="45.504"/>
	<line style="fill:none;stroke:#000000;stroke-miterlimit:1;" x1="43.447" y1="45.504" x2="42.789" y2="44.188"/>
	<line style="fill:none;stroke:#000000;stroke-miterlimit:1;" x1="42.789" y1="44.188" x2="41.472" y2="43.2"/>
	<line style="fill:none;stroke:#000000;stroke-miterlimit:1;" x1="41.472" y1="43.2" x2="39.826" y2="42.871"/>
	<line style="fill:none;stroke:#000000;stroke-miterlimit:1;" x1="39.826" y1="42.871" x2="37.852" y2="43.2"/>
	<line style="fill:none;stroke:#000000;stroke-miterlimit:1;" x1="37.852" y1="43.2" x2="36.535" y2="43.529"/>
	<line style="fill:none;stroke:#000000;stroke-miterlimit:1;" x1="36.535" y1="43.529" x2="35.547" y2="44.846"/>
	<line style="fill:none;stroke:#000000;stroke-miterlimit:1;" x1="35.547" y1="44.846" x2="34.889" y2="47.149"/>
	<line style="fill:none;stroke:#000000;stroke-miterlimit:1;" x1="34.889" y1="47.149" x2="35.218" y2="49.125"/>
	<line style="fill:none;stroke:#000000;stroke-miterlimit:1;" x1="35.218" y1="49.125" x2="36.206" y2="50.112"/>
	<line style="fill:none;stroke:#000000;stroke-miterlimit:1;" x1="36.206" y1="50.112" x2="37.193" y2="51.429"/>
	<line style="fill:none;stroke:#000000;stroke-miterlimit:1;" x1="37.193" y1="51.429" x2="38.181" y2="51.429"/>
	<line style="fill:none;stroke:#000000;stroke-miterlimit:1;" x1="38.181" y1="51.429" x2="39.168" y2="51.758"/>
	<line style="fill:none;stroke:#000000;stroke-miterlimit:1;" x1="65.5" y1="36.946" x2="64.183" y2="34.313"/>
	<line style="fill:none;stroke:#000000;stroke-miterlimit:1;" x1="64.183" y1="34.313" x2="62.537" y2="31.68"/>
	<line style="fill:none;stroke:#000000;stroke-miterlimit:1;" x1="62.537" y1="31.68" x2="60.892" y2="29.047"/>
	<line style="fill:none;stroke:#000000;stroke-miterlimit:1;" x1="60.892" y1="29.047" x2="58.917" y2="27.401"/>
	<line style="fill:none;stroke:#000000;stroke-miterlimit:1;" x1="58.917" y1="27.401" x2="56.613" y2="25.097"/>
	<line style="fill:none;stroke:#000000;stroke-miterlimit:1;" x1="56.613" y1="25.097" x2="54.309" y2="23.451"/>
	<line style="fill:none;stroke:#000000;stroke-miterlimit:1;" x1="54.309" y1="23.451" x2="51.675" y2="22.135"/>
	<line style="fill:none;stroke:#000000;stroke-miterlimit:1;" x1="51.675" y1="22.135" x2="49.042" y2="21.147"/>
	<line style="fill:none;stroke:#000000;stroke-miterlimit:1;" x1="49.042" y1="21.147" x2="46.08" y2="19.831"/>
	<line style="fill:none;stroke:#000000;stroke-miterlimit:1;" x1="46.08" y1="19.831" x2="43.118" y2="19.501"/>
	<line style="fill:none;stroke:#000000;stroke-miterlimit:1;" x1="43.118" y1="19.501" x2="40.155" y2="19.172"/>
	<line style="fill:none;stroke:#000000;stroke-miterlimit:1;" x1="40.155" y1="19.172" x2="37.522" y2="19.501"/>
	<line style="fill:none;stroke:#000000;stroke-miterlimit:1;" x1="37.522" y1="19.501" x2="34.889" y2="19.831"/>
	<line style="fill:none;stroke:#000000;stroke-miterlimit:1;" x1="34.889" y1="19.831" x2="32.256" y2="20.16"/>
	<line style="fill:none;stroke:#000000;stroke-miterlimit:1;" x1="32.256" y1="20.16" x2="29.623" y2="21.147"/>
	<line style="fill:none;stroke:#000000;stroke-miterlimit:1;" x1="29.623" y1="21.147" x2="26.661" y2="22.464"/>
	<line style="fill:none;stroke:#000000;stroke-miterlimit:1;" x1="26.661" y1="22.464" x2="24.027" y2="23.78"/>
	<line style="fill:none;stroke:#000000;stroke-miterlimit:1;" x1="24.027" y1="23.78" x2="21.724" y2="25.426"/>
	<line style="fill:none;stroke:#000000;stroke-miterlimit:1;" x1="21.724" y1="25.426" x2="19.09" y2="27.73"/>
	<line style="fill:none;stroke:#000000;stroke-miterlimit:1;" x1="19.09" y1="27.73" x2="17.445" y2="29.705"/>
	<line style="fill:none;stroke:#000000;stroke-miterlimit:1;" x1="17.445" y1="29.705" x2="15.47" y2="32.338"/>
	<line style="fill:none;stroke:#000000;stroke-miterlimit:1;" x1="15.47" y1="32.338" x2="14.153" y2="34.642"/>
	<line style="fill:none;stroke:#000000;stroke-miterlimit:1;" x1="14.153" y1="34.642" x2="12.836" y2="37.275"/>
	<line style="fill:none;stroke:#000000;stroke-miterlimit:1;" x1="12.836" y1="37.275" x2="12.178" y2="39.908"/>
	<line style="fill:none;stroke:#000000;stroke-miterlimit:1;" x1="12.178" y1="39.908" x2="11.191" y2="43.529"/>
	<line style="fill:none;stroke:#000000;stroke-miterlimit:1;" x1="11.191" y1="43.529" x2="11.191" y2="46.82"/>
	<line style="fill:none;stroke:#000000;stroke-miterlimit:1;" x1="11.191" y1="46.82" x2="11.191" y2="50.112"/>
	<line style="fill:none;stroke:#000000;stroke-miterlimit:1;" x1="11.191" y1="50.112" x2="11.849" y2="53.403"/>
	<line style="fill:none;stroke:#000000;stroke-miterlimit:1;" x1="11.849" y1="53.403" x2="12.507" y2="56.695"/>
	<line style="fill:none;stroke:#000000;stroke-miterlimit:1;" x1="12.507" y1="56.695" x2="13.824" y2="59.328"/>
	<line style="fill:none;stroke:#000000;stroke-miterlimit:1;" x1="13.824" y1="59.328" x2="15.141" y2="61.961"/>
	<line style="fill:none;stroke:#000000;stroke-miterlimit:1;" x1="15.141" y1="61.961" x2="16.786" y2="64.265"/>
	<line style="fill:none;stroke:#000000;stroke-miterlimit:1;" x1="16.786" y1="64.265" x2="19.09" y2="66.569"/>
	<line style="fill:none;stroke:#000000;stroke-miterlimit:1;" x1="19.09" y1="66.569" x2="20.736" y2="68.544"/>
	<line style="fill:none;stroke:#000000;stroke-miterlimit:1;" x1="20.736" y1="68.544" x2="23.698" y2="70.519"/>
	<line style="fill:none;stroke:#000000;stroke-miterlimit:1;" x1="23.698" y1="70.519" x2="25.673" y2="72.165"/>
	<line style="fill:none;stroke:#000000;stroke-miterlimit:1;" x1="25.673" y1="72.165" x2="28.965" y2="73.152"/>
	<line style="fill:none;stroke:#000000;stroke-miterlimit:1;" x1="28.965" y1="73.152" x2="31.927" y2="74.139"/>
	<line style="fill:none;stroke:#000000;stroke-miterlimit:1;" x1="31.927" y1="74.139" x2="34.231" y2="75.127"/>
	<line style="fill:none;stroke:#000000;stroke-miterlimit:1;" x1="34.231" y1="75.127" x2="37.522" y2="75.127"/>
	<line style="fill:none;stroke:#000000;stroke-miterlimit:1;" x1="37.522" y1="75.127" x2="40.485" y2="75.127"/>
	<line style="fill:none;stroke:#000000;stroke-miterlimit:1;" x1="40.485" y1="75.127" x2="43.776" y2="75.127"/>
	<line style="fill:none;stroke:#000000;stroke-miterlimit:1;" x1="43.776" y1="75.127" x2="46.738" y2="74.468"/>
	<line style="fill:none;stroke:#000000;stroke-miterlimit:1;" x1="46.738" y1="74.468" x2="49.701" y2="73.81"/>
	<line style="fill:none;stroke:#000000;stroke-miterlimit:1;" x1="49.701" y1="73.81" x2="52.004" y2="72.823"/>
	<line style="fill:none;stroke:#000000;stroke-miterlimit:1;" x1="52.004" y1="72.823" x2="54.638" y2="71.177"/>
	<line style="fill:none;stroke:#000000;stroke-miterlimit:1;" x1="54.638" y1="71.177" x2="57.271" y2="69.202"/>
	<line style="fill:none;stroke:#000000;stroke-miterlimit:1;" x1="57.271" y1="69.202" x2="59.246" y2="67.228"/>
	<line style="fill:none;stroke:#000000;stroke-miterlimit:1;" x1="59.246" y1="67.228" x2="61.221" y2="65.252"/>
	<line style="fill:none;stroke:#000000;stroke-miterlimit:1;" x1="61.221" y1="65.252" x2="63.195" y2="62.29"/>
	<line style="fill:none;stroke:#000000;stroke-miterlimit:1;" x1="63.195" y1="62.29" x2="64.512" y2="59.986"/>
	<line style="fill:none;stroke:#000000;stroke-miterlimit:1;" x1="64.512" y1="59.986" x2="65.829" y2="57.353"/>
	<line style="fill:none;stroke:#000000;stroke-miterlimit:1;" x1="65.829" y1="57.353" x2="66.487" y2="54.391"/>
	<line style="fill:none;stroke:#000000;stroke-miterlimit:1;" x1="66.487" y1="54.391" x2="67.474" y2="51.429"/>
	<line style="fill:none;stroke:#000000;stroke-miterlimit:1;" x1="67.474" y1="51.429" x2="67.804" y2="48.795"/>
	<line style="fill:none;stroke:#000000;stroke-miterlimit:1;" x1="67.804" y1="48.795" x2="67.804" y2="45.504"/>
	<line style="fill:none;stroke:#000000;stroke-miterlimit:1;" x1="67.804" y1="45.504" x2="67.474" y2="42.542"/>
	<line style="fill:none;stroke:#000000;stroke-miterlimit:1;" x1="67.474" y1="42.542" x2="66.487" y2="39.579"/>
	<line style="fill:none;stroke:#000000;stroke-miterlimit:1;" x1="66.487" y1="39.579" x2="65.829" y2="36.946"/>
	<line style="fill:none;stroke:#000000;stroke-miterlimit:1;" x1="80.311" y1="137.006" x2="55.625" y2="70.848"/>
	<line style="fill:none;stroke:#000000;stroke-miterlimit:1;" x1="40.155" y1="137.664" x2="40.155" y2="75.456"/>
	<line style="fill:none;stroke:#000000;stroke-miterlimit:1;" x1="0" y1="137.006" x2="23.369" y2="71.177"/>
	<line style="fill:none;stroke:#000000;stroke-miterlimit:1;" x1="139.968" y1="73.069" x2="182.756" y2="31.927"/>
	<line style="fill:none;stroke:#000000;stroke-miterlimit:1;" x1="124.499" y1="67.145" x2="177.162" y2="16.786"/>
	<line style="fill:none;stroke:#000000;stroke-miterlimit:1;" x1="114.295" y1="56.283" x2="166.957" y2="5.924"/>
	<line style="fill:none;stroke:#000000;stroke-miterlimit:1;" x1="109.029" y1="40.813" x2="151.158" y2="0.658"/>
	<line style="fill:none;stroke:#000000;stroke-miterlimit:1;" x1="161.363" y1="2.962" x2="157.742" y2="1.975"/>
	<line style="fill:none;stroke:#000000;stroke-miterlimit:1;" x1="157.742" y1="1.975" x2="154.121" y2="0.658"/>
	<line style="fill:none;stroke:#000000;stroke-miterlimit:1;" x1="154.121" y1="0.658" x2="150.172" y2="0"/>
	<line style="fill:none;stroke:#000000;stroke-miterlimit:1;" x1="150.172" y1="0" x2="146.223" y2="0"/>
	<line style="fill:none;stroke:#000000;stroke-miterlimit:1;" x1="146.223" y1="0" x2="141.943" y2="0.329"/>
	<line style="fill:none;stroke:#000000;stroke-miterlimit:1;" x1="141.943" y1="0.329" x2="138.322" y2="0.658"/>
	<line style="fill:none;stroke:#000000;stroke-miterlimit:1;" x1="138.322" y1="0.658" x2="134.373" y2="1.975"/>
	<line style="fill:none;stroke:#000000;stroke-miterlimit:1;" x1="134.373" y1="1.975" x2="130.752" y2="3.292"/>
	<line style="fill:none;stroke:#000000;stroke-miterlimit:1;" x1="130.752" y1="3.292" x2="127.131" y2="4.937"/>
	<line style="fill:none;stroke:#000000;stroke-miterlimit:1;" x1="127.131" y1="4.937" x2="123.84" y2="7.241"/>
	<line style="fill:none;stroke:#000000;stroke-miterlimit:1;" x1="123.84" y1="7.241" x2="121.207" y2="9.545"/>
	<line style="fill:none;stroke:#000000;stroke-miterlimit:1;" x1="121.207" y1="9.545" x2="118.574" y2="12.178"/>
	<line style="fill:none;stroke:#000000;stroke-miterlimit:1;" x1="118.574" y1="12.178" x2="116.599" y2="14.482"/>
	<line style="fill:none;stroke:#000000;stroke-miterlimit:1;" x1="116.599" y1="14.482" x2="114.624" y2="17.444"/>
	<line style="fill:none;stroke:#000000;stroke-miterlimit:1;" x1="114.624" y1="17.444" x2="112.32" y2="21.723"/>
	<line style="fill:none;stroke:#000000;stroke-miterlimit:1;" x1="112.32" y1="21.723" x2="111.333" y2="25.015"/>
	<line style="fill:none;stroke:#000000;stroke-miterlimit:1;" x1="111.333" y1="25.015" x2="110.345" y2="28.635"/>
	<line style="fill:none;stroke:#000000;stroke-miterlimit:1;" x1="110.345" y1="28.635" x2="109.687" y2="32.256"/>
	<line style="fill:none;stroke:#000000;stroke-miterlimit:1;" x1="109.687" y1="32.256" x2="109.029" y2="36.535"/>
	<line style="fill:none;stroke:#000000;stroke-miterlimit:1;" x1="109.029" y1="36.535" x2="109.029" y2="40.155"/>
	<line style="fill:none;stroke:#000000;stroke-miterlimit:1;" x1="109.029" y1="40.155" x2="109.687" y2="44.434"/>
	<line style="fill:none;stroke:#000000;stroke-miterlimit:1;" x1="109.687" y1="44.434" x2="110.674" y2="48.055"/>
	<line style="fill:none;stroke:#000000;stroke-miterlimit:1;" x1="110.674" y1="48.055" x2="111.662" y2="51.346"/>
	<line style="fill:none;stroke:#000000;stroke-miterlimit:1;" x1="111.662" y1="51.346" x2="113.308" y2="54.967"/>
	<line style="fill:none;stroke:#000000;stroke-miterlimit:1;" x1="113.308" y1="54.967" x2="114.295" y2="56.941"/>
	<line style="fill:none;stroke:#000000;stroke-miterlimit:1;" x1="114.295" y1="56.941" x2="115.611" y2="58.587"/>
	<line style="fill:none;stroke:#000000;stroke-miterlimit:1;" x1="115.611" y1="58.587" x2="118.903" y2="62.208"/>
	<line style="fill:none;stroke:#000000;stroke-miterlimit:1;" x1="118.903" y1="62.208" x2="122.194" y2="65.5"/>
	<line style="fill:none;stroke:#000000;stroke-miterlimit:1;" x1="122.194" y1="65.5" x2="125.157" y2="67.803"/>
	<line style="fill:none;stroke:#000000;stroke-miterlimit:1;" x1="125.157" y1="67.803" x2="128.777" y2="69.778"/>
	<line style="fill:none;stroke:#000000;stroke-miterlimit:1;" x1="128.777" y1="69.778" x2="132.727" y2="71.753"/>
	<line style="fill:none;stroke:#000000;stroke-miterlimit:1;" x1="132.727" y1="71.753" x2="136.677" y2="72.74"/>
	<line style="fill:none;stroke:#000000;stroke-miterlimit:1;" x1="136.677" y1="72.74" x2="139.968" y2="73.728"/>
	<line style="fill:none;stroke:#000000;stroke-miterlimit:1;" x1="139.968" y1="73.728" x2="143.918" y2="73.728"/>
	<line style="fill:none;stroke:#000000;stroke-miterlimit:1;" x1="143.918" y1="73.728" x2="147.867" y2="74.057"/>
	<line style="fill:none;stroke:#000000;stroke-miterlimit:1;" x1="147.867" y1="74.057" x2="152.475" y2="73.399"/>
	<line style="fill:none;stroke:#000000;stroke-miterlimit:1;" x1="152.475" y1="73.399" x2="155.768" y2="72.74"/>
	<line style="fill:none;stroke:#000000;stroke-miterlimit:1;" x1="155.768" y1="72.74" x2="159.717" y2="71.095"/>
	<line style="fill:none;stroke:#000000;stroke-miterlimit:1;" x1="159.717" y1="71.095" x2="163.666" y2="69.12"/>
	<line style="fill:none;stroke:#000000;stroke-miterlimit:1;" x1="163.666" y1="69.12" x2="166.299" y2="67.803"/>
	<line style="fill:none;stroke:#000000;stroke-miterlimit:1;" x1="166.299" y1="67.803" x2="169.262" y2="65.17"/>
	<line style="fill:none;stroke:#000000;stroke-miterlimit:1;" x1="169.262" y1="65.17" x2="172.225" y2="62.537"/>
	<line style="fill:none;stroke:#000000;stroke-miterlimit:1;" x1="172.225" y1="62.537" x2="175.186" y2="59.575"/>
	<line style="fill:none;stroke:#000000;stroke-miterlimit:1;" x1="175.186" y1="59.575" x2="177.49" y2="55.954"/>
	<line style="fill:none;stroke:#000000;stroke-miterlimit:1;" x1="177.49" y1="55.954" x2="179.795" y2="52.663"/>
	<line style="fill:none;stroke:#000000;stroke-miterlimit:1;" x1="179.795" y1="52.663" x2="181.439" y2="49.371"/>
	<line style="fill:none;stroke:#000000;stroke-miterlimit:1;" x1="181.439" y1="49.371" x2="182.428" y2="45.421"/>
	<line style="fill:none;stroke:#000000;stroke-miterlimit:1;" x1="182.428" y1="45.421" x2="182.756" y2="41.801"/>
	<line style="fill:none;stroke:#000000;stroke-miterlimit:1;" x1="182.756" y1="41.801" x2="183.414" y2="37.522"/>
	<line style="fill:none;stroke:#000000;stroke-miterlimit:1;" x1="183.414" y1="37.522" x2="183.086" y2="33.901"/>
	<line style="fill:none;stroke:#000000;stroke-miterlimit:1;" x1="183.086" y1="33.901" x2="182.756" y2="29.623"/>
	<line style="fill:none;stroke:#000000;stroke-miterlimit:1;" x1="182.756" y1="29.623" x2="181.77" y2="26.002"/>
	<line style="fill:none;stroke:#000000;stroke-miterlimit:1;" x1="181.77" y1="26.002" x2="180.453" y2="22.711"/>
	<line style="fill:none;stroke:#000000;stroke-miterlimit:1;" x1="180.453" y1="22.711" x2="178.807" y2="18.432"/>
	<line style="fill:none;stroke:#000000;stroke-miterlimit:1;" x1="178.807" y1="18.432" x2="176.502" y2="15.141"/>
	<line style="fill:none;stroke:#000000;stroke-miterlimit:1;" x1="176.502" y1="15.141" x2="174.199" y2="12.507"/>
	<line style="fill:none;stroke:#000000;stroke-miterlimit:1;" x1="174.199" y1="12.507" x2="171.566" y2="9.216"/>
	<line style="fill:none;stroke:#000000;stroke-miterlimit:1;" x1="171.566" y1="9.216" x2="168.273" y2="6.912"/>
	<line style="fill:none;stroke:#000000;stroke-miterlimit:1;" x1="168.273" y1="6.912" x2="164.982" y2="4.608"/>
	<line style="fill:none;stroke:#000000;stroke-miterlimit:1;" x1="164.982" y1="4.608" x2="161.363" y2="2.962"/>
	<line style="fill:none;stroke:#000000;stroke-miterlimit:1;" x1="185.678" y1="147.662" x2="108" y2="147.662"/>
	<line style="fill:none;stroke:#000000;stroke-miterlimit:1;" x1="108" y1="147.662" x2="108.987" y2="141.079"/>
	<line style="fill:none;stroke:#000000;stroke-miterlimit:1;" x1="108.987" y1="141.079" x2="109.975" y2="136.8"/>
	<line style="fill:none;stroke:#000000;stroke-miterlimit:1;" x1="109.975" y1="136.8" x2="111.621" y2="132.521"/>
	<line style="fill:none;stroke:#000000;stroke-miterlimit:1;" x1="111.621" y1="132.521" x2="113.925" y2="129.229"/>
	<line style="fill:none;stroke:#000000;stroke-miterlimit:1;" x1="113.925" y1="129.229" x2="115.899" y2="126.268"/>
	<line style="fill:none;stroke:#000000;stroke-miterlimit:1;" x1="115.899" y1="126.268" x2="118.533" y2="122.646"/>
	<line style="fill:none;stroke:#000000;stroke-miterlimit:1;" x1="118.533" y1="122.646" x2="121.495" y2="120.014"/>
	<line style="fill:none;stroke:#000000;stroke-miterlimit:1;" x1="121.495" y1="120.014" x2="125.116" y2="117.381"/>
	<line style="fill:none;stroke:#000000;stroke-miterlimit:1;" x1="125.116" y1="117.381" x2="128.078" y2="115.405"/>
	<line style="fill:none;stroke:#000000;stroke-miterlimit:1;" x1="128.078" y1="115.405" x2="132.356" y2="113.431"/>
	<line style="fill:none;stroke:#000000;stroke-miterlimit:1;" x1="132.356" y1="113.431" x2="136.635" y2="112.114"/>
	<line style="fill:none;stroke:#000000;stroke-miterlimit:1;" x1="136.635" y1="112.114" x2="139.598" y2="111.456"/>
	<line style="fill:none;stroke:#000000;stroke-miterlimit:1;" x1="139.598" y1="111.456" x2="144.863" y2="110.798"/>
	<line style="fill:none;stroke:#000000;stroke-miterlimit:1;" x1="144.863" y1="110.798" x2="148.814" y2="110.798"/>
	<line style="fill:none;stroke:#000000;stroke-miterlimit:1;" x1="148.814" y1="110.798" x2="152.434" y2="111.456"/>
	<line style="fill:none;stroke:#000000;stroke-miterlimit:1;" x1="152.434" y1="111.456" x2="156.385" y2="112.114"/>
	<line style="fill:none;stroke:#000000;stroke-miterlimit:1;" x1="156.385" y1="112.114" x2="160.662" y2="113.102"/>
	<line style="fill:none;stroke:#000000;stroke-miterlimit:1;" x1="160.662" y1="113.102" x2="163.625" y2="114.089"/>
	<line style="fill:none;stroke:#000000;stroke-miterlimit:1;" x1="163.625" y1="114.089" x2="167.574" y2="116.723"/>
	<line style="fill:none;stroke:#000000;stroke-miterlimit:1;" x1="167.574" y1="116.723" x2="170.867" y2="119.026"/>
	<line style="fill:none;stroke:#000000;stroke-miterlimit:1;" x1="170.867" y1="119.026" x2="173.828" y2="121.33"/>
	<line style="fill:none;stroke:#000000;stroke-miterlimit:1;" x1="173.828" y1="121.33" x2="176.461" y2="124.621"/>
	<line style="fill:none;stroke:#000000;stroke-miterlimit:1;" x1="176.461" y1="124.621" x2="179.096" y2="128.242"/>
	<line style="fill:none;stroke:#000000;stroke-miterlimit:1;" x1="179.096" y1="128.242" x2="181.398" y2="131.862"/>
	<line style="fill:none;stroke:#000000;stroke-miterlimit:1;" x1="181.398" y1="131.862" x2="183.045" y2="135.154"/>
	<line style="fill:none;stroke:#000000;stroke-miterlimit:1;" x1="183.045" y1="135.154" x2="184.361" y2="140.092"/>
	<line style="fill:none;stroke:#000000;stroke-miterlimit:1;" x1="184.361" y1="140.092" x2="185.348" y2="143.712"/>
	<line style="fill:none;stroke:#000000;stroke-miterlimit:1;" x1="185.348" y1="143.712" x2="185.678" y2="147.662"/>
	<line style="fill:none;stroke:#000000;stroke-miterlimit:1;" x1="238.711" y1="131.369" x2="235.748" y2="132.686"/>
	<line style="fill:none;stroke:#000000;stroke-miterlimit:1;" x1="235.748" y1="132.686" x2="231.471" y2="132.356"/>
	<line style="fill:none;stroke:#000000;stroke-miterlimit:1;" x1="231.471" y1="132.356" x2="227.52" y2="129.724"/>
	<line style="fill:none;stroke:#000000;stroke-miterlimit:1;" x1="227.52" y1="129.724" x2="224.887" y2="124.786"/>
	<line style="fill:none;stroke:#000000;stroke-miterlimit:1;" x1="224.887" y1="124.786" x2="224.559" y2="119.849"/>
	<line style="fill:none;stroke:#000000;stroke-miterlimit:1;" x1="224.559" y1="119.849" x2="225.875" y2="115.899"/>
	<line style="fill:none;stroke:#000000;stroke-miterlimit:1;" x1="225.875" y1="115.899" x2="229.166" y2="112.278"/>
	<line style="fill:none;stroke:#000000;stroke-miterlimit:1;" x1="229.166" y1="112.278" x2="233.773" y2="110.962"/>
	<line style="fill:none;stroke:#000000;stroke-miterlimit:1;" x1="233.773" y1="110.962" x2="238.711" y2="111.949"/>
	<line style="fill:none;stroke:#000000;stroke-miterlimit:1;" x1="238.711" y1="111.949" x2="242.66" y2="115.57"/>
	<line style="fill:none;stroke:#000000;stroke-miterlimit:1;" x1="242.66" y1="115.57" x2="244.965" y2="120.837"/>
	<line style="fill:none;stroke:#000000;stroke-miterlimit:1;" x1="244.965" y1="120.837" x2="244.635" y2="125.115"/>
	<line style="fill:none;stroke:#000000;stroke-miterlimit:1;" x1="244.635" y1="125.115" x2="242.66" y2="128.736"/>
	<line style="fill:none;stroke:#000000;stroke-miterlimit:1;" x1="242.66" y1="128.736" x2="239.039" y2="131.698"/>
	<line style="fill:none;stroke:#000000;stroke-miterlimit:1;" x1="239.039" y1="131.698" x2="239.039" y2="131.369"/>
	<line style="fill:none;stroke:#000000;stroke-miterlimit:1;" x1="239.039" y1="131.369" x2="246.609" y2="148.155"/>
	<line style="fill:none;stroke:#000000;stroke-miterlimit:1;" x1="246.609" y1="148.155" x2="222.254" y2="148.155"/>
	<line style="fill:none;stroke:#000000;stroke-miterlimit:1;" x1="222.254" y1="148.155" x2="229.824" y2="131.04"/>
	<line style="fill:none;stroke:#000000;stroke-miterlimit:1;" x1="225.217" y1="125.773" x2="207.771" y2="134.989"/>
	<line style="fill:none;stroke:#000000;stroke-miterlimit:1;" x1="207.771" y1="134.989" x2="207.771" y2="108.658"/>
	<line style="fill:none;stroke:#000000;stroke-miterlimit:1;" x1="207.771" y1="108.658" x2="224.887" y2="117.874"/>
	<line style="fill:none;stroke:#000000;stroke-miterlimit:1;" x1="244.307" y1="118.203" x2="261.092" y2="109.646"/>
	<line style="fill:none;stroke:#000000;stroke-miterlimit:1;" x1="261.092" y1="109.646" x2="261.092" y2="134.002"/>
	<line style="fill:none;stroke:#000000;stroke-miterlimit:1;" x1="261.092" y1="134.002" x2="244.635" y2="126.103"/>
	<line style="fill:none;stroke:#000000;stroke-miterlimit:1;" x1="227.191" y1="113.596" x2="223.57" y2="106.684"/>
	<line style="fill:none;stroke:#000000;stroke-miterlimit:1;" x1="223.57" y1="106.684" x2="222.912" y2="92.201"/>
	<line style="fill:none;stroke:#000000;stroke-miterlimit:1;" x1="222.912" y1="92.201" x2="235.09" y2="23.739"/>
	<line style="fill:none;stroke:#000000;stroke-miterlimit:1;" x1="235.09" y1="23.739" x2="236.736" y2="16.169"/>
	<line style="fill:none;stroke:#000000;stroke-miterlimit:1;" x1="236.736" y1="16.169" x2="239.039" y2="8.928"/>
	<line style="fill:none;stroke:#000000;stroke-miterlimit:1;" x1="239.039" y1="8.928" x2="242.332" y2="3.662"/>
	<line style="fill:none;stroke:#000000;stroke-miterlimit:1;" x1="242.332" y1="3.662" x2="247.598" y2="0.699"/>
	<line style="fill:none;stroke:#000000;stroke-miterlimit:1;" x1="247.598" y1="0.699" x2="252.205" y2="0.041"/>
	<line style="fill:none;stroke:#000000;stroke-miterlimit:1;" x1="252.205" y1="0.041" x2="256.814" y2="0.041"/>
	<line style="fill:none;stroke:#000000;stroke-miterlimit:1;" x1="256.814" y1="0.041" x2="265.043" y2="1.357"/>
	<line style="fill:none;stroke:#000000;stroke-miterlimit:1;" x1="265.043" y1="1.357" x2="269.979" y2="4.32"/>
	<line style="fill:none;stroke:#000000;stroke-miterlimit:1;" x1="269.979" y1="4.32" x2="274.916" y2="9.586"/>
	<line style="fill:none;stroke:#000000;stroke-miterlimit:1;" x1="274.916" y1="9.586" x2="278.537" y2="18.473"/>
	<line style="fill:none;stroke:#000000;stroke-miterlimit:1;" x1="278.537" y1="18.473" x2="279.854" y2="24.727"/>
	<line style="fill:none;stroke:#000000;stroke-miterlimit:1;" x1="279.854" y1="24.727" x2="280.842" y2="33.614"/>
	<line style="fill:none;stroke:#000000;stroke-miterlimit:1;" x1="280.842" y1="33.614" x2="279.854" y2="53.691"/>
	<line style="fill:none;stroke:#000000;stroke-miterlimit:1;" x1="279.854" y1="53.691" x2="277.549" y2="73.769"/>
	<line style="fill:none;stroke:#000000;stroke-miterlimit:1;" x1="277.549" y1="73.769" x2="275.574" y2="113.925"/>
	<line style="fill:none;stroke:#000000;stroke-miterlimit:1;" x1="275.574" y1="113.925" x2="276.232" y2="124.457"/>
	<line style="fill:none;stroke:#000000;stroke-miterlimit:1;" x1="276.232" y1="124.457" x2="278.537" y2="134.66"/>
	<line style="fill:none;stroke:#000000;stroke-miterlimit:1;" x1="278.537" y1="134.66" x2="282.158" y2="140.256"/>
	<line style="fill:none;stroke:#000000;stroke-miterlimit:1;" x1="282.158" y1="140.256" x2="286.766" y2="145.852"/>
	<line style="fill:none;stroke:#000000;stroke-miterlimit:1;" x1="237.723" y1="14.194" x2="238.711" y2="30.651"/>
	<line style="fill:none;stroke:#000000;stroke-miterlimit:1;" x1="238.711" y1="30.651" x2="245.623" y2="87.264"/>
	<line style="fill:none;stroke:#000000;stroke-miterlimit:1;" x1="245.623" y1="87.264" x2="245.951" y2="105.367"/>
	<line style="fill:none;stroke:#000000;stroke-miterlimit:1;" x1="245.951" y1="105.367" x2="243.977" y2="111.291"/>
	<line style="fill:none;stroke:#000000;stroke-miterlimit:1;" x1="243.977" y1="111.291" x2="241.674" y2="114.583"/>
</g>
</svg>
