<?xml version="1.0" encoding="iso-8859-1"?>
<!-- Generator: Adobe Illustrator 16.0.1, SVG Export Plug-In . SVG Version: 6.00 Build 0)  -->
<!DOCTYPE svg PUBLIC "-//W3C//DTD SVG 1.1//EN" "http://www.w3.org/Graphics/SVG/1.1/DTD/svg11.dtd">
<svg version="1.1" id="Ebene_1" xmlns="http://www.w3.org/2000/svg" xmlns:xlink="http://www.w3.org/1999/xlink" x="0px" y="0px"
	 width="205.509px" height="148.361px" viewBox="0 0 205.509 148.361" style="enable-background:new 0 0 205.509 148.361;"
	 xml:space="preserve">
<g>
	<line style="fill:none;stroke:#000000;stroke-miterlimit:1;" x1="157.454" y1="131.575" x2="154.491" y2="132.892"/>
	<line style="fill:none;stroke:#000000;stroke-miterlimit:1;" x1="154.491" y1="132.892" x2="150.213" y2="132.562"/>
	<line style="fill:none;stroke:#000000;stroke-miterlimit:1;" x1="150.213" y1="132.562" x2="146.263" y2="129.929"/>
	<line style="fill:none;stroke:#000000;stroke-miterlimit:1;" x1="146.263" y1="129.929" x2="143.63" y2="124.992"/>
	<line style="fill:none;stroke:#000000;stroke-miterlimit:1;" x1="143.63" y1="124.992" x2="143.301" y2="120.055"/>
	<line style="fill:none;stroke:#000000;stroke-miterlimit:1;" x1="143.301" y1="120.055" x2="144.617" y2="116.105"/>
	<line style="fill:none;stroke:#000000;stroke-miterlimit:1;" x1="144.617" y1="116.105" x2="147.908" y2="112.484"/>
	<line style="fill:none;stroke:#000000;stroke-miterlimit:1;" x1="147.908" y1="112.484" x2="152.517" y2="111.168"/>
	<line style="fill:none;stroke:#000000;stroke-miterlimit:1;" x1="152.517" y1="111.168" x2="157.454" y2="112.155"/>
	<line style="fill:none;stroke:#000000;stroke-miterlimit:1;" x1="157.454" y1="112.155" x2="161.403" y2="115.776"/>
	<line style="fill:none;stroke:#000000;stroke-miterlimit:1;" x1="161.403" y1="115.776" x2="163.707" y2="121.042"/>
	<line style="fill:none;stroke:#000000;stroke-miterlimit:1;" x1="163.707" y1="121.042" x2="163.378" y2="125.321"/>
	<line style="fill:none;stroke:#000000;stroke-miterlimit:1;" x1="163.378" y1="125.321" x2="161.403" y2="128.941"/>
	<line style="fill:none;stroke:#000000;stroke-miterlimit:1;" x1="161.403" y1="128.941" x2="157.783" y2="131.904"/>
	<line style="fill:none;stroke:#000000;stroke-miterlimit:1;" x1="157.783" y1="131.904" x2="157.783" y2="131.575"/>
	<line style="fill:none;stroke:#000000;stroke-miterlimit:1;" x1="157.783" y1="131.575" x2="165.354" y2="148.361"/>
	<line style="fill:none;stroke:#000000;stroke-miterlimit:1;" x1="165.354" y1="148.361" x2="140.997" y2="148.361"/>
	<line style="fill:none;stroke:#000000;stroke-miterlimit:1;" x1="140.997" y1="148.361" x2="148.567" y2="131.246"/>
	<line style="fill:none;stroke:#000000;stroke-miterlimit:1;" x1="143.959" y1="125.979" x2="126.515" y2="135.195"/>
	<line style="fill:none;stroke:#000000;stroke-miterlimit:1;" x1="126.515" y1="135.195" x2="126.515" y2="108.864"/>
	<line style="fill:none;stroke:#000000;stroke-miterlimit:1;" x1="126.515" y1="108.864" x2="143.63" y2="118.08"/>
	<line style="fill:none;stroke:#000000;stroke-miterlimit:1;" x1="163.049" y1="118.409" x2="179.836" y2="109.852"/>
	<line style="fill:none;stroke:#000000;stroke-miterlimit:1;" x1="179.836" y1="109.852" x2="179.836" y2="134.208"/>
	<line style="fill:none;stroke:#000000;stroke-miterlimit:1;" x1="179.836" y1="134.208" x2="163.378" y2="126.309"/>
	<line style="fill:none;stroke:#000000;stroke-miterlimit:1;" x1="145.934" y1="113.801" x2="142.313" y2="106.889"/>
	<line style="fill:none;stroke:#000000;stroke-miterlimit:1;" x1="142.313" y1="106.889" x2="141.655" y2="92.407"/>
	<line style="fill:none;stroke:#000000;stroke-miterlimit:1;" x1="141.655" y1="92.407" x2="153.833" y2="23.945"/>
	<line style="fill:none;stroke:#000000;stroke-miterlimit:1;" x1="153.833" y1="23.945" x2="155.479" y2="16.375"/>
	<line style="fill:none;stroke:#000000;stroke-miterlimit:1;" x1="155.479" y1="16.375" x2="157.783" y2="9.134"/>
	<line style="fill:none;stroke:#000000;stroke-miterlimit:1;" x1="157.783" y1="9.134" x2="161.074" y2="3.867"/>
	<line style="fill:none;stroke:#000000;stroke-miterlimit:1;" x1="161.074" y1="3.867" x2="166.341" y2="0.905"/>
	<line style="fill:none;stroke:#000000;stroke-miterlimit:1;" x1="166.341" y1="0.905" x2="170.948" y2="0.247"/>
	<line style="fill:none;stroke:#000000;stroke-miterlimit:1;" x1="170.948" y1="0.247" x2="175.557" y2="0.247"/>
	<line style="fill:none;stroke:#000000;stroke-miterlimit:1;" x1="175.557" y1="0.247" x2="183.785" y2="1.563"/>
	<line style="fill:none;stroke:#000000;stroke-miterlimit:1;" x1="183.785" y1="1.563" x2="188.723" y2="4.525"/>
	<line style="fill:none;stroke:#000000;stroke-miterlimit:1;" x1="188.723" y1="4.525" x2="193.659" y2="9.792"/>
	<line style="fill:none;stroke:#000000;stroke-miterlimit:1;" x1="193.659" y1="9.792" x2="197.28" y2="18.679"/>
	<line style="fill:none;stroke:#000000;stroke-miterlimit:1;" x1="197.28" y1="18.679" x2="198.597" y2="24.933"/>
	<line style="fill:none;stroke:#000000;stroke-miterlimit:1;" x1="198.597" y1="24.933" x2="199.584" y2="33.819"/>
	<line style="fill:none;stroke:#000000;stroke-miterlimit:1;" x1="199.584" y1="33.819" x2="198.597" y2="53.897"/>
	<line style="fill:none;stroke:#000000;stroke-miterlimit:1;" x1="198.597" y1="53.897" x2="196.293" y2="73.975"/>
	<line style="fill:none;stroke:#000000;stroke-miterlimit:1;" x1="196.293" y1="73.975" x2="194.317" y2="114.13"/>
	<line style="fill:none;stroke:#000000;stroke-miterlimit:1;" x1="194.317" y1="114.13" x2="194.977" y2="124.663"/>
	<line style="fill:none;stroke:#000000;stroke-miterlimit:1;" x1="194.977" y1="124.663" x2="197.28" y2="134.866"/>
	<line style="fill:none;stroke:#000000;stroke-miterlimit:1;" x1="197.28" y1="134.866" x2="200.9" y2="140.462"/>
	<line style="fill:none;stroke:#000000;stroke-miterlimit:1;" x1="200.9" y1="140.462" x2="205.509" y2="146.057"/>
	<line style="fill:none;stroke:#000000;stroke-miterlimit:1;" x1="156.467" y1="14.4" x2="157.454" y2="30.857"/>
	<line style="fill:none;stroke:#000000;stroke-miterlimit:1;" x1="157.454" y1="30.857" x2="164.366" y2="87.47"/>
	<line style="fill:none;stroke:#000000;stroke-miterlimit:1;" x1="164.366" y1="87.47" x2="164.695" y2="105.572"/>
	<line style="fill:none;stroke:#000000;stroke-miterlimit:1;" x1="164.695" y1="105.572" x2="162.72" y2="111.497"/>
	<line style="fill:none;stroke:#000000;stroke-miterlimit:1;" x1="162.72" y1="111.497" x2="160.416" y2="114.788"/>
	<line style="fill:none;stroke:#000000;stroke-miterlimit:1;" x1="37.567" y1="81.053" x2="53.006" y2="81.053"/>
	<line style="fill:none;stroke:#000000;stroke-miterlimit:1;" x1="53.006" y1="81.053" x2="52.749" y2="75.392"/>
	<line style="fill:none;stroke:#000000;stroke-miterlimit:1;" x1="52.749" y1="75.392" x2="54.292" y2="67.93"/>
	<line style="fill:none;stroke:#000000;stroke-miterlimit:1;" x1="54.292" y1="67.93" x2="55.836" y2="63.556"/>
	<line style="fill:none;stroke:#000000;stroke-miterlimit:1;" x1="55.836" y1="63.556" x2="58.924" y2="56.608"/>
	<line style="fill:none;stroke:#000000;stroke-miterlimit:1;" x1="58.924" y1="56.608" x2="73.076" y2="31.649"/>
	<line style="fill:none;stroke:#000000;stroke-miterlimit:1;" x1="73.076" y1="31.649" x2="73.848" y2="26.246"/>
	<line style="fill:none;stroke:#000000;stroke-miterlimit:1;" x1="73.848" y1="26.246" x2="74.105" y2="23.672"/>
	<line style="fill:none;stroke:#000000;stroke-miterlimit:1;" x1="74.105" y1="23.672" x2="73.591" y2="19.041"/>
	<line style="fill:none;stroke:#000000;stroke-miterlimit:1;" x1="73.591" y1="19.041" x2="72.819" y2="15.953"/>
	<line style="fill:none;stroke:#000000;stroke-miterlimit:1;" x1="72.819" y1="15.953" x2="71.532" y2="12.094"/>
	<line style="fill:none;stroke:#000000;stroke-miterlimit:1;" x1="71.532" y1="12.094" x2="69.217" y2="8.491"/>
	<line style="fill:none;stroke:#000000;stroke-miterlimit:1;" x1="69.217" y1="8.491" x2="67.416" y2="6.433"/>
	<line style="fill:none;stroke:#000000;stroke-miterlimit:1;" x1="67.416" y1="6.433" x2="62.784" y2="2.059"/>
	<line style="fill:none;stroke:#000000;stroke-miterlimit:1;" x1="62.784" y1="2.059" x2="59.182" y2="0.772"/>
	<line style="fill:none;stroke:#000000;stroke-miterlimit:1;" x1="59.182" y1="0.772" x2="51.719" y2="0"/>
	<line style="fill:none;stroke:#000000;stroke-miterlimit:1;" x1="51.719" y1="0" x2="45.544" y2="0.772"/>
	<line style="fill:none;stroke:#000000;stroke-miterlimit:1;" x1="45.544" y1="0.772" x2="42.971" y2="1.801"/>
	<line style="fill:none;stroke:#000000;stroke-miterlimit:1;" x1="42.971" y1="1.801" x2="39.883" y2="3.859"/>
	<line style="fill:none;stroke:#000000;stroke-miterlimit:1;" x1="39.883" y1="3.859" x2="37.053" y2="6.947"/>
	<line style="fill:none;stroke:#000000;stroke-miterlimit:1;" x1="37.053" y1="6.947" x2="35.766" y2="8.749"/>
	<line style="fill:none;stroke:#000000;stroke-miterlimit:1;" x1="35.766" y1="8.749" x2="34.479" y2="10.292"/>
	<line style="fill:none;stroke:#000000;stroke-miterlimit:1;" x1="33.708" y1="10.55" x2="31.392" y2="11.579"/>
	<line style="fill:none;stroke:#000000;stroke-miterlimit:1;" x1="31.392" y1="11.579" x2="6.175" y2="16.468"/>
	<line style="fill:none;stroke:#000000;stroke-miterlimit:1;" x1="6.175" y1="16.468" x2="3.86" y2="18.269"/>
	<line style="fill:none;stroke:#000000;stroke-miterlimit:1;" x1="3.86" y1="18.269" x2="2.059" y2="19.556"/>
	<line style="fill:none;stroke:#000000;stroke-miterlimit:1;" x1="2.059" y1="19.556" x2="0.515" y2="22.386"/>
	<line style="fill:none;stroke:#000000;stroke-miterlimit:1;" x1="0.515" y1="22.386" x2="0" y2="26.503"/>
	<line style="fill:none;stroke:#000000;stroke-miterlimit:1;" x1="0" y1="26.503" x2="0.257" y2="27.532"/>
	<line style="fill:none;stroke:#000000;stroke-miterlimit:1;" x1="0.257" y1="27.532" x2="1.029" y2="28.047"/>
	<line style="fill:none;stroke:#000000;stroke-miterlimit:1;" x1="1.029" y1="28.047" x2="1.544" y2="28.047"/>
	<line style="fill:none;stroke:#000000;stroke-miterlimit:1;" x1="1.544" y1="28.047" x2="2.831" y2="27.532"/>
	<line style="fill:none;stroke:#000000;stroke-miterlimit:1;" x1="2.831" y1="27.532" x2="3.345" y2="25.216"/>
	<line style="fill:none;stroke:#000000;stroke-miterlimit:1;" x1="3.345" y1="25.216" x2="4.889" y2="22.9"/>
	<line style="fill:none;stroke:#000000;stroke-miterlimit:1;" x1="4.889" y1="22.9" x2="7.205" y2="20.842"/>
	<line style="fill:none;stroke:#000000;stroke-miterlimit:1;" x1="7.205" y1="20.842" x2="9.778" y2="20.07"/>
	<line style="fill:none;stroke:#000000;stroke-miterlimit:1;" x1="9.778" y1="20.07" x2="13.123" y2="19.041"/>
	<line style="fill:none;stroke:#000000;stroke-miterlimit:1;" x1="13.123" y1="19.041" x2="33.965" y2="16.21"/>
	<line style="fill:none;stroke:#000000;stroke-miterlimit:1;" x1="33.965" y1="16.21" x2="34.479" y2="15.953"/>
	<line style="fill:none;stroke:#000000;stroke-miterlimit:1;" x1="34.479" y1="15.953" x2="37.567" y2="16.468"/>
	<line style="fill:none;stroke:#000000;stroke-miterlimit:1;" x1="33.965" y1="10.55" x2="37.567" y2="16.725"/>
	<line style="fill:none;stroke:#000000;stroke-miterlimit:1;" x1="37.567" y1="16.725" x2="37.567" y2="20.07"/>
	<line style="fill:none;stroke:#000000;stroke-miterlimit:1;" x1="3.86" y1="24.959" x2="6.175" y2="23.415"/>
	<line style="fill:none;stroke:#000000;stroke-miterlimit:1;" x1="6.175" y1="23.415" x2="10.035" y2="22.386"/>
	<line style="fill:none;stroke:#000000;stroke-miterlimit:1;" x1="10.035" y1="22.386" x2="20.07" y2="21.356"/>
	<line style="fill:none;stroke:#000000;stroke-miterlimit:1;" x1="20.07" y1="21.356" x2="30.105" y2="20.07"/>
	<line style="fill:none;stroke:#000000;stroke-miterlimit:1;" x1="30.105" y1="20.07" x2="34.222" y2="20.07"/>
	<line style="fill:none;stroke:#000000;stroke-miterlimit:1;" x1="34.222" y1="20.07" x2="37.825" y2="20.07"/>
	<line style="fill:none;stroke:#000000;stroke-miterlimit:1;" x1="37.825" y1="20.07" x2="39.883" y2="20.328"/>
	<line style="fill:none;stroke:#000000;stroke-miterlimit:1;" x1="39.883" y1="20.328" x2="44" y2="21.356"/>
	<line style="fill:none;stroke:#000000;stroke-miterlimit:1;" x1="44" y1="21.356" x2="51.205" y2="22.643"/>
	<line style="fill:none;stroke:#000000;stroke-miterlimit:1;" x1="51.205" y1="22.643" x2="55.064" y2="22.9"/>
	<line style="fill:none;stroke:#000000;stroke-miterlimit:1;" x1="55.064" y1="22.9" x2="57.895" y2="22.643"/>
	<line style="fill:none;stroke:#000000;stroke-miterlimit:1;" x1="57.895" y1="22.643" x2="60.982" y2="21.871"/>
	<line style="fill:none;stroke:#000000;stroke-miterlimit:1;" x1="60.982" y1="21.871" x2="62.784" y2="22.9"/>
	<line style="fill:none;stroke:#000000;stroke-miterlimit:1;" x1="62.784" y1="22.9" x2="63.556" y2="24.187"/>
	<line style="fill:none;stroke:#000000;stroke-miterlimit:1;" x1="63.556" y1="24.187" x2="63.813" y2="27.275"/>
	<line style="fill:none;stroke:#000000;stroke-miterlimit:1;" x1="63.813" y1="27.275" x2="63.556" y2="29.848"/>
	<line style="fill:none;stroke:#000000;stroke-miterlimit:1;" x1="63.556" y1="29.848" x2="62.269" y2="32.936"/>
	<line style="fill:none;stroke:#000000;stroke-miterlimit:1;" x1="62.269" y1="32.936" x2="50.948" y2="47.86"/>
	<line style="fill:none;stroke:#000000;stroke-miterlimit:1;" x1="50.948" y1="47.86" x2="45.287" y2="56.866"/>
	<line style="fill:none;stroke:#000000;stroke-miterlimit:1;" x1="45.287" y1="56.866" x2="42.971" y2="61.497"/>
	<line style="fill:none;stroke:#000000;stroke-miterlimit:1;" x1="42.971" y1="61.497" x2="40.141" y2="66.9"/>
	<line style="fill:none;stroke:#000000;stroke-miterlimit:1;" x1="40.141" y1="66.9" x2="38.597" y2="73.848"/>
	<line style="fill:none;stroke:#000000;stroke-miterlimit:1;" x1="38.597" y1="73.848" x2="37.567" y2="81.053"/>
	<line style="fill:none;stroke:#000000;stroke-miterlimit:1;" x1="59.696" y1="1.029" x2="73.076" y2="5.918"/>
	<line style="fill:none;stroke:#000000;stroke-miterlimit:1;" x1="73.076" y1="5.918" x2="86.199" y2="9.263"/>
	<line style="fill:none;stroke:#000000;stroke-miterlimit:1;" x1="86.199" y1="9.263" x2="91.603" y2="10.292"/>
	<line style="fill:none;stroke:#000000;stroke-miterlimit:1;" x1="91.603" y1="10.292" x2="96.234" y2="10.55"/>
	<line style="fill:none;stroke:#000000;stroke-miterlimit:1;" x1="96.234" y1="10.55" x2="101.895" y2="10.55"/>
	<line style="fill:none;stroke:#000000;stroke-miterlimit:1;" x1="101.895" y1="10.55" x2="108.07" y2="10.292"/>
	<line style="fill:none;stroke:#000000;stroke-miterlimit:1;" x1="108.07" y1="10.292" x2="112.702" y2="9.263"/>
	<line style="fill:none;stroke:#000000;stroke-miterlimit:1;" x1="112.702" y1="9.263" x2="117.334" y2="8.234"/>
	<line style="fill:none;stroke:#000000;stroke-miterlimit:1;" x1="117.334" y1="8.234" x2="117.849" y2="8.749"/>
	<line style="fill:none;stroke:#000000;stroke-miterlimit:1;" x1="117.849" y1="8.749" x2="117.334" y2="10.55"/>
	<line style="fill:none;stroke:#000000;stroke-miterlimit:1;" x1="117.334" y1="10.55" x2="115.532" y2="11.836"/>
	<line style="fill:none;stroke:#000000;stroke-miterlimit:1;" x1="115.532" y1="11.836" x2="109.357" y2="13.123"/>
	<line style="fill:none;stroke:#000000;stroke-miterlimit:1;" x1="109.357" y1="13.123" x2="103.182" y2="13.895"/>
	<line style="fill:none;stroke:#000000;stroke-miterlimit:1;" x1="103.182" y1="13.895" x2="96.234" y2="13.895"/>
	<line style="fill:none;stroke:#000000;stroke-miterlimit:1;" x1="96.234" y1="13.895" x2="90.316" y2="13.38"/>
	<line style="fill:none;stroke:#000000;stroke-miterlimit:1;" x1="90.316" y1="13.38" x2="80.281" y2="11.579"/>
	<line style="fill:none;stroke:#000000;stroke-miterlimit:1;" x1="80.281" y1="11.579" x2="74.62" y2="9.778"/>
	<line style="fill:none;stroke:#000000;stroke-miterlimit:1;" x1="67.416" y1="5.918" x2="77.451" y2="11.322"/>
	<line style="fill:none;stroke:#000000;stroke-miterlimit:1;" x1="77.451" y1="11.322" x2="87.485" y2="16.468"/>
	<line style="fill:none;stroke:#000000;stroke-miterlimit:1;" x1="87.485" y1="16.468" x2="93.661" y2="19.556"/>
	<line style="fill:none;stroke:#000000;stroke-miterlimit:1;" x1="93.661" y1="19.556" x2="98.292" y2="21.356"/>
	<line style="fill:none;stroke:#000000;stroke-miterlimit:1;" x1="98.292" y1="21.356" x2="103.438" y2="22.643"/>
	<line style="fill:none;stroke:#000000;stroke-miterlimit:1;" x1="103.438" y1="22.643" x2="107.041" y2="23.158"/>
	<line style="fill:none;stroke:#000000;stroke-miterlimit:1;" x1="107.041" y1="23.158" x2="113.731" y2="23.93"/>
	<line style="fill:none;stroke:#000000;stroke-miterlimit:1;" x1="113.731" y1="23.93" x2="116.562" y2="23.415"/>
	<line style="fill:none;stroke:#000000;stroke-miterlimit:1;" x1="116.562" y1="23.415" x2="117.849" y2="23.158"/>
	<line style="fill:none;stroke:#000000;stroke-miterlimit:1;" x1="117.849" y1="23.158" x2="118.878" y2="23.93"/>
	<line style="fill:none;stroke:#000000;stroke-miterlimit:1;" x1="118.878" y1="23.93" x2="119.135" y2="25.474"/>
	<line style="fill:none;stroke:#000000;stroke-miterlimit:1;" x1="119.135" y1="25.474" x2="115.275" y2="26.76"/>
	<line style="fill:none;stroke:#000000;stroke-miterlimit:1;" x1="115.275" y1="26.76" x2="110.644" y2="27.275"/>
	<line style="fill:none;stroke:#000000;stroke-miterlimit:1;" x1="110.644" y1="27.275" x2="105.497" y2="26.503"/>
	<line style="fill:none;stroke:#000000;stroke-miterlimit:1;" x1="105.497" y1="26.503" x2="98.292" y2="24.959"/>
	<line style="fill:none;stroke:#000000;stroke-miterlimit:1;" x1="98.292" y1="24.959" x2="92.117" y2="22.9"/>
	<line style="fill:none;stroke:#000000;stroke-miterlimit:1;" x1="92.117" y1="22.9" x2="86.199" y2="20.07"/>
	<line style="fill:none;stroke:#000000;stroke-miterlimit:1;" x1="86.199" y1="20.07" x2="71.79" y2="11.836"/>
	<line style="fill:none;stroke:#000000;stroke-miterlimit:1;" x1="45.801" y1="7.462" x2="44.257" y2="7.719"/>
	<line style="fill:none;stroke:#000000;stroke-miterlimit:1;" x1="44.257" y1="7.719" x2="42.971" y2="9.263"/>
	<line style="fill:none;stroke:#000000;stroke-miterlimit:1;" x1="42.971" y1="9.263" x2="42.971" y2="11.064"/>
	<line style="fill:none;stroke:#000000;stroke-miterlimit:1;" x1="42.971" y1="11.064" x2="44.257" y2="12.351"/>
	<line style="fill:none;stroke:#000000;stroke-miterlimit:1;" x1="44.257" y1="12.351" x2="46.059" y2="12.351"/>
	<line style="fill:none;stroke:#000000;stroke-miterlimit:1;" x1="46.059" y1="12.351" x2="47.86" y2="11.579"/>
	<line style="fill:none;stroke:#000000;stroke-miterlimit:1;" x1="47.86" y1="11.579" x2="48.117" y2="10.55"/>
	<line style="fill:none;stroke:#000000;stroke-miterlimit:1;" x1="48.117" y1="10.55" x2="47.603" y2="9.006"/>
	<line style="fill:none;stroke:#000000;stroke-miterlimit:1;" x1="47.603" y1="9.006" x2="46.316" y2="7.462"/>
	<line style="fill:none;stroke:#000000;stroke-miterlimit:1;" x1="41.073" y1="147.343" x2="74.523" y2="115.179"/>
	<line style="fill:none;stroke:#000000;stroke-miterlimit:1;" x1="28.979" y1="142.711" x2="70.149" y2="103.342"/>
	<line style="fill:none;stroke:#000000;stroke-miterlimit:1;" x1="21.003" y1="134.22" x2="62.173" y2="94.851"/>
	<line style="fill:none;stroke:#000000;stroke-miterlimit:1;" x1="16.886" y1="122.126" x2="49.822" y2="90.734"/>
	<line style="fill:none;stroke:#000000;stroke-miterlimit:1;" x1="57.798" y1="92.535" x2="54.968" y2="91.764"/>
	<line style="fill:none;stroke:#000000;stroke-miterlimit:1;" x1="54.968" y1="91.764" x2="52.138" y2="90.734"/>
	<line style="fill:none;stroke:#000000;stroke-miterlimit:1;" x1="52.138" y1="90.734" x2="49.05" y2="90.22"/>
	<line style="fill:none;stroke:#000000;stroke-miterlimit:1;" x1="49.05" y1="90.22" x2="45.962" y2="90.22"/>
	<line style="fill:none;stroke:#000000;stroke-miterlimit:1;" x1="45.962" y1="90.22" x2="42.617" y2="90.477"/>
	<line style="fill:none;stroke:#000000;stroke-miterlimit:1;" x1="42.617" y1="90.477" x2="39.787" y2="90.734"/>
	<line style="fill:none;stroke:#000000;stroke-miterlimit:1;" x1="39.787" y1="90.734" x2="36.699" y2="91.764"/>
	<line style="fill:none;stroke:#000000;stroke-miterlimit:1;" x1="36.699" y1="91.764" x2="33.869" y2="92.792"/>
	<line style="fill:none;stroke:#000000;stroke-miterlimit:1;" x1="33.869" y1="92.792" x2="31.038" y2="94.079"/>
	<line style="fill:none;stroke:#000000;stroke-miterlimit:1;" x1="31.038" y1="94.079" x2="28.465" y2="95.88"/>
	<line style="fill:none;stroke:#000000;stroke-miterlimit:1;" x1="28.465" y1="95.88" x2="26.407" y2="97.682"/>
	<line style="fill:none;stroke:#000000;stroke-miterlimit:1;" x1="26.407" y1="97.682" x2="24.348" y2="99.74"/>
	<line style="fill:none;stroke:#000000;stroke-miterlimit:1;" x1="24.348" y1="99.74" x2="22.804" y2="101.541"/>
	<line style="fill:none;stroke:#000000;stroke-miterlimit:1;" x1="22.804" y1="101.541" x2="21.26" y2="103.856"/>
	<line style="fill:none;stroke:#000000;stroke-miterlimit:1;" x1="21.26" y1="103.856" x2="19.459" y2="107.202"/>
	<line style="fill:none;stroke:#000000;stroke-miterlimit:1;" x1="19.459" y1="107.202" x2="18.687" y2="109.775"/>
	<line style="fill:none;stroke:#000000;stroke-miterlimit:1;" x1="18.687" y1="109.775" x2="17.916" y2="112.605"/>
	<line style="fill:none;stroke:#000000;stroke-miterlimit:1;" x1="17.916" y1="112.605" x2="17.401" y2="115.436"/>
	<line style="fill:none;stroke:#000000;stroke-miterlimit:1;" x1="17.401" y1="115.436" x2="16.886" y2="118.781"/>
	<line style="fill:none;stroke:#000000;stroke-miterlimit:1;" x1="16.886" y1="118.781" x2="16.886" y2="121.611"/>
	<line style="fill:none;stroke:#000000;stroke-miterlimit:1;" x1="16.886" y1="121.611" x2="17.401" y2="124.956"/>
	<line style="fill:none;stroke:#000000;stroke-miterlimit:1;" x1="17.401" y1="124.956" x2="18.173" y2="127.787"/>
	<line style="fill:none;stroke:#000000;stroke-miterlimit:1;" x1="18.173" y1="127.787" x2="18.944" y2="130.359"/>
	<line style="fill:none;stroke:#000000;stroke-miterlimit:1;" x1="18.944" y1="130.359" x2="20.231" y2="133.19"/>
	<line style="fill:none;stroke:#000000;stroke-miterlimit:1;" x1="20.231" y1="133.19" x2="21.003" y2="134.734"/>
	<line style="fill:none;stroke:#000000;stroke-miterlimit:1;" x1="21.003" y1="134.734" x2="22.032" y2="136.021"/>
	<line style="fill:none;stroke:#000000;stroke-miterlimit:1;" x1="22.032" y1="136.021" x2="24.605" y2="138.851"/>
	<line style="fill:none;stroke:#000000;stroke-miterlimit:1;" x1="24.605" y1="138.851" x2="27.179" y2="141.424"/>
	<line style="fill:none;stroke:#000000;stroke-miterlimit:1;" x1="27.179" y1="141.424" x2="29.494" y2="143.226"/>
	<line style="fill:none;stroke:#000000;stroke-miterlimit:1;" x1="29.494" y1="143.226" x2="32.325" y2="144.77"/>
	<line style="fill:none;stroke:#000000;stroke-miterlimit:1;" x1="32.325" y1="144.77" x2="35.413" y2="146.313"/>
	<line style="fill:none;stroke:#000000;stroke-miterlimit:1;" x1="35.413" y1="146.313" x2="38.5" y2="147.085"/>
	<line style="fill:none;stroke:#000000;stroke-miterlimit:1;" x1="38.5" y1="147.085" x2="41.073" y2="147.856"/>
	<line style="fill:none;stroke:#000000;stroke-miterlimit:1;" x1="41.073" y1="147.856" x2="44.161" y2="147.856"/>
	<line style="fill:none;stroke:#000000;stroke-miterlimit:1;" x1="44.161" y1="147.856" x2="47.249" y2="148.114"/>
	<line style="fill:none;stroke:#000000;stroke-miterlimit:1;" x1="47.249" y1="148.114" x2="50.851" y2="147.6"/>
	<line style="fill:none;stroke:#000000;stroke-miterlimit:1;" x1="50.851" y1="147.6" x2="53.424" y2="147.085"/>
	<line style="fill:none;stroke:#000000;stroke-miterlimit:1;" x1="53.424" y1="147.085" x2="56.512" y2="145.799"/>
	<line style="fill:none;stroke:#000000;stroke-miterlimit:1;" x1="56.512" y1="145.799" x2="59.6" y2="144.255"/>
	<line style="fill:none;stroke:#000000;stroke-miterlimit:1;" x1="59.6" y1="144.255" x2="61.658" y2="143.226"/>
	<line style="fill:none;stroke:#000000;stroke-miterlimit:1;" x1="61.658" y1="143.226" x2="63.974" y2="141.167"/>
	<line style="fill:none;stroke:#000000;stroke-miterlimit:1;" x1="63.974" y1="141.167" x2="66.29" y2="139.108"/>
	<line style="fill:none;stroke:#000000;stroke-miterlimit:1;" x1="66.29" y1="139.108" x2="68.605" y2="136.793"/>
	<line style="fill:none;stroke:#000000;stroke-miterlimit:1;" x1="68.605" y1="136.793" x2="70.407" y2="133.962"/>
	<line style="fill:none;stroke:#000000;stroke-miterlimit:1;" x1="70.407" y1="133.962" x2="72.208" y2="131.389"/>
	<line style="fill:none;stroke:#000000;stroke-miterlimit:1;" x1="72.208" y1="131.389" x2="73.494" y2="128.815"/>
	<line style="fill:none;stroke:#000000;stroke-miterlimit:1;" x1="73.494" y1="128.815" x2="74.266" y2="125.729"/>
	<line style="fill:none;stroke:#000000;stroke-miterlimit:1;" x1="74.266" y1="125.729" x2="74.523" y2="122.897"/>
	<line style="fill:none;stroke:#000000;stroke-miterlimit:1;" x1="74.523" y1="122.897" x2="75.038" y2="119.553"/>
	<line style="fill:none;stroke:#000000;stroke-miterlimit:1;" x1="75.038" y1="119.553" x2="74.781" y2="116.723"/>
	<line style="fill:none;stroke:#000000;stroke-miterlimit:1;" x1="74.781" y1="116.723" x2="74.523" y2="113.377"/>
	<line style="fill:none;stroke:#000000;stroke-miterlimit:1;" x1="74.523" y1="113.377" x2="73.751" y2="110.547"/>
	<line style="fill:none;stroke:#000000;stroke-miterlimit:1;" x1="73.751" y1="110.547" x2="72.723" y2="107.974"/>
	<line style="fill:none;stroke:#000000;stroke-miterlimit:1;" x1="72.723" y1="107.974" x2="71.436" y2="104.629"/>
	<line style="fill:none;stroke:#000000;stroke-miterlimit:1;" x1="71.436" y1="104.629" x2="69.635" y2="102.056"/>
	<line style="fill:none;stroke:#000000;stroke-miterlimit:1;" x1="69.635" y1="102.056" x2="67.833" y2="99.997"/>
	<line style="fill:none;stroke:#000000;stroke-miterlimit:1;" x1="67.833" y1="99.997" x2="65.775" y2="97.424"/>
	<line style="fill:none;stroke:#000000;stroke-miterlimit:1;" x1="65.775" y1="97.424" x2="63.202" y2="95.623"/>
	<line style="fill:none;stroke:#000000;stroke-miterlimit:1;" x1="63.202" y1="95.623" x2="60.629" y2="93.821"/>
	<line style="fill:none;stroke:#000000;stroke-miterlimit:1;" x1="60.629" y1="93.821" x2="57.798" y2="92.535"/>
</g>
</svg>
