<?xml version="1.0" encoding="iso-8859-1"?>
<!-- Generator: Adobe Illustrator 16.0.1, SVG Export Plug-In . SVG Version: 6.00 Build 0)  -->
<!DOCTYPE svg PUBLIC "-//W3C//DTD SVG 1.1//EN" "http://www.w3.org/Graphics/SVG/1.1/DTD/svg11.dtd">
<svg version="1.1" id="Ebene_1" xmlns="http://www.w3.org/2000/svg" xmlns:xlink="http://www.w3.org/1999/xlink" x="0px" y="0px"
	 width="273.395px" height="148.115px" viewBox="0 0 273.395 148.115" style="enable-background:new 0 0 273.395 148.115;"
	 xml:space="preserve">
<g>
	<line style="fill:none;stroke:#000000;stroke-miterlimit:1;" x1="225.34" y1="131.328" x2="222.377" y2="132.645"/>
	<line style="fill:none;stroke:#000000;stroke-miterlimit:1;" x1="222.377" y1="132.645" x2="218.098" y2="132.316"/>
	<line style="fill:none;stroke:#000000;stroke-miterlimit:1;" x1="218.098" y1="132.316" x2="214.148" y2="129.682"/>
	<line style="fill:none;stroke:#000000;stroke-miterlimit:1;" x1="214.148" y1="129.682" x2="211.516" y2="124.746"/>
	<line style="fill:none;stroke:#000000;stroke-miterlimit:1;" x1="211.516" y1="124.746" x2="211.188" y2="119.809"/>
	<line style="fill:none;stroke:#000000;stroke-miterlimit:1;" x1="211.188" y1="119.809" x2="212.504" y2="115.859"/>
	<line style="fill:none;stroke:#000000;stroke-miterlimit:1;" x1="212.504" y1="115.859" x2="215.795" y2="112.238"/>
	<line style="fill:none;stroke:#000000;stroke-miterlimit:1;" x1="215.795" y1="112.238" x2="220.402" y2="110.922"/>
	<line style="fill:none;stroke:#000000;stroke-miterlimit:1;" x1="220.402" y1="110.922" x2="225.34" y2="111.908"/>
	<line style="fill:none;stroke:#000000;stroke-miterlimit:1;" x1="225.34" y1="111.908" x2="229.289" y2="115.529"/>
	<line style="fill:none;stroke:#000000;stroke-miterlimit:1;" x1="229.289" y1="115.529" x2="231.594" y2="120.795"/>
	<line style="fill:none;stroke:#000000;stroke-miterlimit:1;" x1="231.594" y1="120.795" x2="231.264" y2="125.074"/>
	<line style="fill:none;stroke:#000000;stroke-miterlimit:1;" x1="231.264" y1="125.074" x2="229.289" y2="128.695"/>
	<line style="fill:none;stroke:#000000;stroke-miterlimit:1;" x1="229.289" y1="128.695" x2="225.668" y2="131.658"/>
	<line style="fill:none;stroke:#000000;stroke-miterlimit:1;" x1="225.668" y1="131.658" x2="225.668" y2="131.328"/>
	<line style="fill:none;stroke:#000000;stroke-miterlimit:1;" x1="225.668" y1="131.328" x2="233.238" y2="148.115"/>
	<line style="fill:none;stroke:#000000;stroke-miterlimit:1;" x1="233.238" y1="148.115" x2="208.883" y2="148.115"/>
	<line style="fill:none;stroke:#000000;stroke-miterlimit:1;" x1="208.883" y1="148.115" x2="216.453" y2="131"/>
	<line style="fill:none;stroke:#000000;stroke-miterlimit:1;" x1="211.846" y1="125.732" x2="194.4" y2="134.949"/>
	<line style="fill:none;stroke:#000000;stroke-miterlimit:1;" x1="194.4" y1="134.949" x2="194.4" y2="108.617"/>
	<line style="fill:none;stroke:#000000;stroke-miterlimit:1;" x1="194.4" y1="108.617" x2="211.516" y2="117.834"/>
	<line style="fill:none;stroke:#000000;stroke-miterlimit:1;" x1="230.936" y1="118.162" x2="247.721" y2="109.605"/>
	<line style="fill:none;stroke:#000000;stroke-miterlimit:1;" x1="247.721" y1="109.605" x2="247.721" y2="133.961"/>
	<line style="fill:none;stroke:#000000;stroke-miterlimit:1;" x1="247.721" y1="133.961" x2="231.264" y2="126.062"/>
	<line style="fill:none;stroke:#000000;stroke-miterlimit:1;" x1="213.82" y1="113.555" x2="210.199" y2="106.643"/>
	<line style="fill:none;stroke:#000000;stroke-miterlimit:1;" x1="210.199" y1="106.643" x2="209.541" y2="92.16"/>
	<line style="fill:none;stroke:#000000;stroke-miterlimit:1;" x1="209.541" y1="92.16" x2="221.719" y2="23.698"/>
	<line style="fill:none;stroke:#000000;stroke-miterlimit:1;" x1="221.719" y1="23.698" x2="223.365" y2="16.128"/>
	<line style="fill:none;stroke:#000000;stroke-miterlimit:1;" x1="223.365" y1="16.128" x2="225.668" y2="8.887"/>
	<line style="fill:none;stroke:#000000;stroke-miterlimit:1;" x1="225.668" y1="8.887" x2="228.961" y2="3.621"/>
	<line style="fill:none;stroke:#000000;stroke-miterlimit:1;" x1="228.961" y1="3.621" x2="234.227" y2="0.659"/>
	<line style="fill:none;stroke:#000000;stroke-miterlimit:1;" x1="234.227" y1="0.659" x2="238.834" y2="0"/>
	<line style="fill:none;stroke:#000000;stroke-miterlimit:1;" x1="238.834" y1="0" x2="243.443" y2="0"/>
	<line style="fill:none;stroke:#000000;stroke-miterlimit:1;" x1="243.443" y1="0" x2="251.672" y2="1.317"/>
	<line style="fill:none;stroke:#000000;stroke-miterlimit:1;" x1="251.672" y1="1.317" x2="256.607" y2="4.279"/>
	<line style="fill:none;stroke:#000000;stroke-miterlimit:1;" x1="256.607" y1="4.279" x2="261.545" y2="9.545"/>
	<line style="fill:none;stroke:#000000;stroke-miterlimit:1;" x1="261.545" y1="9.545" x2="265.166" y2="18.432"/>
	<line style="fill:none;stroke:#000000;stroke-miterlimit:1;" x1="265.166" y1="18.432" x2="266.482" y2="24.686"/>
	<line style="fill:none;stroke:#000000;stroke-miterlimit:1;" x1="266.482" y1="24.686" x2="267.471" y2="33.573"/>
	<line style="fill:none;stroke:#000000;stroke-miterlimit:1;" x1="267.471" y1="33.573" x2="266.482" y2="53.65"/>
	<line style="fill:none;stroke:#000000;stroke-miterlimit:1;" x1="266.482" y1="53.65" x2="264.178" y2="73.728"/>
	<line style="fill:none;stroke:#000000;stroke-miterlimit:1;" x1="264.178" y1="73.728" x2="262.203" y2="113.883"/>
	<line style="fill:none;stroke:#000000;stroke-miterlimit:1;" x1="262.203" y1="113.883" x2="262.861" y2="124.416"/>
	<line style="fill:none;stroke:#000000;stroke-miterlimit:1;" x1="262.861" y1="124.416" x2="265.166" y2="134.619"/>
	<line style="fill:none;stroke:#000000;stroke-miterlimit:1;" x1="265.166" y1="134.619" x2="268.787" y2="140.215"/>
	<line style="fill:none;stroke:#000000;stroke-miterlimit:1;" x1="268.787" y1="140.215" x2="273.395" y2="145.811"/>
	<line style="fill:none;stroke:#000000;stroke-miterlimit:1;" x1="224.352" y1="14.153" x2="225.34" y2="30.61"/>
	<line style="fill:none;stroke:#000000;stroke-miterlimit:1;" x1="225.34" y1="30.61" x2="232.252" y2="87.223"/>
	<line style="fill:none;stroke:#000000;stroke-miterlimit:1;" x1="232.252" y1="87.223" x2="232.58" y2="105.326"/>
	<line style="fill:none;stroke:#000000;stroke-miterlimit:1;" x1="232.58" y1="105.326" x2="230.605" y2="111.25"/>
	<line style="fill:none;stroke:#000000;stroke-miterlimit:1;" x1="230.605" y1="111.25" x2="228.303" y2="114.541"/>
	<line style="fill:none;stroke:#000000;stroke-miterlimit:1;" x1="39.168" y1="48.302" x2="40.814" y2="48.302"/>
	<line style="fill:none;stroke:#000000;stroke-miterlimit:1;" x1="40.814" y1="48.302" x2="41.801" y2="47.973"/>
	<line style="fill:none;stroke:#000000;stroke-miterlimit:1;" x1="41.801" y1="47.973" x2="43.447" y2="46.656"/>
	<line style="fill:none;stroke:#000000;stroke-miterlimit:1;" x1="43.447" y1="46.656" x2="43.776" y2="45.669"/>
	<line style="fill:none;stroke:#000000;stroke-miterlimit:1;" x1="43.776" y1="45.669" x2="44.105" y2="44.023"/>
	<line style="fill:none;stroke:#000000;stroke-miterlimit:1;" x1="44.105" y1="44.023" x2="43.447" y2="42.377"/>
	<line style="fill:none;stroke:#000000;stroke-miterlimit:1;" x1="43.447" y1="42.377" x2="42.789" y2="41.061"/>
	<line style="fill:none;stroke:#000000;stroke-miterlimit:1;" x1="42.789" y1="41.061" x2="41.472" y2="40.073"/>
	<line style="fill:none;stroke:#000000;stroke-miterlimit:1;" x1="41.472" y1="40.073" x2="39.827" y2="39.744"/>
	<line style="fill:none;stroke:#000000;stroke-miterlimit:1;" x1="39.827" y1="39.744" x2="37.852" y2="40.073"/>
	<line style="fill:none;stroke:#000000;stroke-miterlimit:1;" x1="37.852" y1="40.073" x2="36.535" y2="40.402"/>
	<line style="fill:none;stroke:#000000;stroke-miterlimit:1;" x1="36.535" y1="40.402" x2="35.548" y2="41.719"/>
	<line style="fill:none;stroke:#000000;stroke-miterlimit:1;" x1="35.548" y1="41.719" x2="34.889" y2="44.023"/>
	<line style="fill:none;stroke:#000000;stroke-miterlimit:1;" x1="34.889" y1="44.023" x2="35.219" y2="45.998"/>
	<line style="fill:none;stroke:#000000;stroke-miterlimit:1;" x1="35.219" y1="45.998" x2="36.206" y2="46.985"/>
	<line style="fill:none;stroke:#000000;stroke-miterlimit:1;" x1="36.206" y1="46.985" x2="37.193" y2="48.302"/>
	<line style="fill:none;stroke:#000000;stroke-miterlimit:1;" x1="37.193" y1="48.302" x2="38.181" y2="48.302"/>
	<line style="fill:none;stroke:#000000;stroke-miterlimit:1;" x1="38.181" y1="48.302" x2="39.168" y2="48.631"/>
	<line style="fill:none;stroke:#000000;stroke-miterlimit:1;" x1="65.5" y1="33.82" x2="64.183" y2="31.187"/>
	<line style="fill:none;stroke:#000000;stroke-miterlimit:1;" x1="64.183" y1="31.187" x2="62.538" y2="28.553"/>
	<line style="fill:none;stroke:#000000;stroke-miterlimit:1;" x1="62.538" y1="28.553" x2="60.892" y2="25.92"/>
	<line style="fill:none;stroke:#000000;stroke-miterlimit:1;" x1="60.892" y1="25.92" x2="58.917" y2="24.274"/>
	<line style="fill:none;stroke:#000000;stroke-miterlimit:1;" x1="58.917" y1="24.274" x2="56.613" y2="21.97"/>
	<line style="fill:none;stroke:#000000;stroke-miterlimit:1;" x1="56.613" y1="21.97" x2="54.309" y2="20.325"/>
	<line style="fill:none;stroke:#000000;stroke-miterlimit:1;" x1="54.309" y1="20.325" x2="51.676" y2="19.008"/>
	<line style="fill:none;stroke:#000000;stroke-miterlimit:1;" x1="51.676" y1="19.008" x2="49.042" y2="18.021"/>
	<line style="fill:none;stroke:#000000;stroke-miterlimit:1;" x1="49.042" y1="18.021" x2="46.08" y2="16.704"/>
	<line style="fill:none;stroke:#000000;stroke-miterlimit:1;" x1="46.08" y1="16.704" x2="43.118" y2="16.375"/>
	<line style="fill:none;stroke:#000000;stroke-miterlimit:1;" x1="43.118" y1="16.375" x2="40.156" y2="16.046"/>
	<line style="fill:none;stroke:#000000;stroke-miterlimit:1;" x1="40.156" y1="16.046" x2="37.522" y2="16.375"/>
	<line style="fill:none;stroke:#000000;stroke-miterlimit:1;" x1="37.522" y1="16.375" x2="34.889" y2="16.704"/>
	<line style="fill:none;stroke:#000000;stroke-miterlimit:1;" x1="34.889" y1="16.704" x2="32.256" y2="17.033"/>
	<line style="fill:none;stroke:#000000;stroke-miterlimit:1;" x1="32.256" y1="17.033" x2="29.623" y2="18.021"/>
	<line style="fill:none;stroke:#000000;stroke-miterlimit:1;" x1="29.623" y1="18.021" x2="26.661" y2="19.337"/>
	<line style="fill:none;stroke:#000000;stroke-miterlimit:1;" x1="26.661" y1="19.337" x2="24.028" y2="20.654"/>
	<line style="fill:none;stroke:#000000;stroke-miterlimit:1;" x1="24.028" y1="20.654" x2="21.724" y2="22.3"/>
	<line style="fill:none;stroke:#000000;stroke-miterlimit:1;" x1="21.724" y1="22.3" x2="19.09" y2="24.604"/>
	<line style="fill:none;stroke:#000000;stroke-miterlimit:1;" x1="19.09" y1="24.604" x2="17.445" y2="26.579"/>
	<line style="fill:none;stroke:#000000;stroke-miterlimit:1;" x1="17.445" y1="26.579" x2="15.47" y2="29.211"/>
	<line style="fill:none;stroke:#000000;stroke-miterlimit:1;" x1="15.47" y1="29.211" x2="14.153" y2="31.516"/>
	<line style="fill:none;stroke:#000000;stroke-miterlimit:1;" x1="14.153" y1="31.516" x2="12.837" y2="34.149"/>
	<line style="fill:none;stroke:#000000;stroke-miterlimit:1;" x1="12.837" y1="34.149" x2="12.179" y2="36.782"/>
	<line style="fill:none;stroke:#000000;stroke-miterlimit:1;" x1="12.179" y1="36.782" x2="11.191" y2="40.402"/>
	<line style="fill:none;stroke:#000000;stroke-miterlimit:1;" x1="11.191" y1="40.402" x2="11.191" y2="43.694"/>
	<line style="fill:none;stroke:#000000;stroke-miterlimit:1;" x1="11.191" y1="43.694" x2="11.191" y2="46.985"/>
	<line style="fill:none;stroke:#000000;stroke-miterlimit:1;" x1="11.191" y1="46.985" x2="11.849" y2="50.277"/>
	<line style="fill:none;stroke:#000000;stroke-miterlimit:1;" x1="11.849" y1="50.277" x2="12.508" y2="53.568"/>
	<line style="fill:none;stroke:#000000;stroke-miterlimit:1;" x1="12.508" y1="53.568" x2="13.824" y2="56.201"/>
	<line style="fill:none;stroke:#000000;stroke-miterlimit:1;" x1="13.824" y1="56.201" x2="15.141" y2="58.834"/>
	<line style="fill:none;stroke:#000000;stroke-miterlimit:1;" x1="15.141" y1="58.834" x2="16.787" y2="61.139"/>
	<line style="fill:none;stroke:#000000;stroke-miterlimit:1;" x1="16.787" y1="61.139" x2="19.09" y2="63.442"/>
	<line style="fill:none;stroke:#000000;stroke-miterlimit:1;" x1="19.09" y1="63.442" x2="20.736" y2="65.417"/>
	<line style="fill:none;stroke:#000000;stroke-miterlimit:1;" x1="20.736" y1="65.417" x2="23.699" y2="67.392"/>
	<line style="fill:none;stroke:#000000;stroke-miterlimit:1;" x1="23.699" y1="67.392" x2="25.673" y2="69.038"/>
	<line style="fill:none;stroke:#000000;stroke-miterlimit:1;" x1="25.673" y1="69.038" x2="28.965" y2="70.025"/>
	<line style="fill:none;stroke:#000000;stroke-miterlimit:1;" x1="28.965" y1="70.025" x2="31.927" y2="71.013"/>
	<line style="fill:none;stroke:#000000;stroke-miterlimit:1;" x1="31.927" y1="71.013" x2="34.231" y2="72"/>
	<line style="fill:none;stroke:#000000;stroke-miterlimit:1;" x1="34.231" y1="72" x2="37.522" y2="72"/>
	<line style="fill:none;stroke:#000000;stroke-miterlimit:1;" x1="37.522" y1="72" x2="40.485" y2="72"/>
	<line style="fill:none;stroke:#000000;stroke-miterlimit:1;" x1="40.485" y1="72" x2="43.776" y2="72"/>
	<line style="fill:none;stroke:#000000;stroke-miterlimit:1;" x1="43.776" y1="72" x2="46.739" y2="71.342"/>
	<line style="fill:none;stroke:#000000;stroke-miterlimit:1;" x1="46.739" y1="71.342" x2="49.701" y2="70.684"/>
	<line style="fill:none;stroke:#000000;stroke-miterlimit:1;" x1="49.701" y1="70.684" x2="52.005" y2="69.696"/>
	<line style="fill:none;stroke:#000000;stroke-miterlimit:1;" x1="52.005" y1="69.696" x2="54.638" y2="68.05"/>
	<line style="fill:none;stroke:#000000;stroke-miterlimit:1;" x1="54.638" y1="68.05" x2="57.271" y2="66.076"/>
	<line style="fill:none;stroke:#000000;stroke-miterlimit:1;" x1="57.271" y1="66.076" x2="59.246" y2="64.101"/>
	<line style="fill:none;stroke:#000000;stroke-miterlimit:1;" x1="59.246" y1="64.101" x2="61.221" y2="62.126"/>
	<line style="fill:none;stroke:#000000;stroke-miterlimit:1;" x1="61.221" y1="62.126" x2="63.196" y2="59.164"/>
	<line style="fill:none;stroke:#000000;stroke-miterlimit:1;" x1="63.196" y1="59.164" x2="64.512" y2="56.859"/>
	<line style="fill:none;stroke:#000000;stroke-miterlimit:1;" x1="64.512" y1="56.859" x2="65.829" y2="54.227"/>
	<line style="fill:none;stroke:#000000;stroke-miterlimit:1;" x1="65.829" y1="54.227" x2="66.487" y2="51.264"/>
	<line style="fill:none;stroke:#000000;stroke-miterlimit:1;" x1="66.487" y1="51.264" x2="67.475" y2="48.302"/>
	<line style="fill:none;stroke:#000000;stroke-miterlimit:1;" x1="67.475" y1="48.302" x2="67.804" y2="45.669"/>
	<line style="fill:none;stroke:#000000;stroke-miterlimit:1;" x1="67.804" y1="45.669" x2="67.804" y2="42.377"/>
	<line style="fill:none;stroke:#000000;stroke-miterlimit:1;" x1="67.804" y1="42.377" x2="67.475" y2="39.415"/>
	<line style="fill:none;stroke:#000000;stroke-miterlimit:1;" x1="67.475" y1="39.415" x2="66.487" y2="36.453"/>
	<line style="fill:none;stroke:#000000;stroke-miterlimit:1;" x1="66.487" y1="36.453" x2="65.829" y2="33.82"/>
	<line style="fill:none;stroke:#000000;stroke-miterlimit:1;" x1="80.311" y1="133.879" x2="55.625" y2="67.721"/>
	<line style="fill:none;stroke:#000000;stroke-miterlimit:1;" x1="40.156" y1="134.537" x2="40.156" y2="72.329"/>
	<line style="fill:none;stroke:#000000;stroke-miterlimit:1;" x1="0" y1="133.879" x2="23.369" y2="68.05"/>
	<line style="fill:none;stroke:#000000;stroke-miterlimit:1;" x1="132.768" y1="48.302" x2="134.414" y2="48.302"/>
	<line style="fill:none;stroke:#000000;stroke-miterlimit:1;" x1="134.414" y1="48.302" x2="135.401" y2="47.973"/>
	<line style="fill:none;stroke:#000000;stroke-miterlimit:1;" x1="135.401" y1="47.973" x2="137.047" y2="46.656"/>
	<line style="fill:none;stroke:#000000;stroke-miterlimit:1;" x1="137.047" y1="46.656" x2="137.376" y2="45.669"/>
	<line style="fill:none;stroke:#000000;stroke-miterlimit:1;" x1="137.376" y1="45.669" x2="137.706" y2="44.023"/>
	<line style="fill:none;stroke:#000000;stroke-miterlimit:1;" x1="137.706" y1="44.023" x2="137.047" y2="42.377"/>
	<line style="fill:none;stroke:#000000;stroke-miterlimit:1;" x1="137.047" y1="42.377" x2="136.389" y2="41.061"/>
	<line style="fill:none;stroke:#000000;stroke-miterlimit:1;" x1="136.389" y1="41.061" x2="135.072" y2="40.073"/>
	<line style="fill:none;stroke:#000000;stroke-miterlimit:1;" x1="135.072" y1="40.073" x2="133.426" y2="39.744"/>
	<line style="fill:none;stroke:#000000;stroke-miterlimit:1;" x1="133.426" y1="39.744" x2="131.452" y2="40.073"/>
	<line style="fill:none;stroke:#000000;stroke-miterlimit:1;" x1="131.452" y1="40.073" x2="130.135" y2="40.402"/>
	<line style="fill:none;stroke:#000000;stroke-miterlimit:1;" x1="130.135" y1="40.402" x2="129.147" y2="41.719"/>
	<line style="fill:none;stroke:#000000;stroke-miterlimit:1;" x1="129.147" y1="41.719" x2="128.489" y2="44.023"/>
	<line style="fill:none;stroke:#000000;stroke-miterlimit:1;" x1="128.489" y1="44.023" x2="128.818" y2="45.998"/>
	<line style="fill:none;stroke:#000000;stroke-miterlimit:1;" x1="128.818" y1="45.998" x2="129.806" y2="46.985"/>
	<line style="fill:none;stroke:#000000;stroke-miterlimit:1;" x1="129.806" y1="46.985" x2="130.793" y2="48.302"/>
	<line style="fill:none;stroke:#000000;stroke-miterlimit:1;" x1="130.793" y1="48.302" x2="131.781" y2="48.302"/>
	<line style="fill:none;stroke:#000000;stroke-miterlimit:1;" x1="131.781" y1="48.302" x2="132.768" y2="48.631"/>
	<line style="fill:none;stroke:#000000;stroke-miterlimit:1;" x1="159.1" y1="33.82" x2="157.783" y2="31.187"/>
	<line style="fill:none;stroke:#000000;stroke-miterlimit:1;" x1="157.783" y1="31.187" x2="156.137" y2="28.553"/>
	<line style="fill:none;stroke:#000000;stroke-miterlimit:1;" x1="156.137" y1="28.553" x2="154.492" y2="25.92"/>
	<line style="fill:none;stroke:#000000;stroke-miterlimit:1;" x1="154.492" y1="25.92" x2="152.518" y2="24.274"/>
	<line style="fill:none;stroke:#000000;stroke-miterlimit:1;" x1="152.518" y1="24.274" x2="150.213" y2="21.97"/>
	<line style="fill:none;stroke:#000000;stroke-miterlimit:1;" x1="150.213" y1="21.97" x2="147.908" y2="20.325"/>
	<line style="fill:none;stroke:#000000;stroke-miterlimit:1;" x1="147.908" y1="20.325" x2="145.275" y2="19.008"/>
	<line style="fill:none;stroke:#000000;stroke-miterlimit:1;" x1="145.275" y1="19.008" x2="142.643" y2="18.021"/>
	<line style="fill:none;stroke:#000000;stroke-miterlimit:1;" x1="142.643" y1="18.021" x2="139.68" y2="16.704"/>
	<line style="fill:none;stroke:#000000;stroke-miterlimit:1;" x1="139.68" y1="16.704" x2="136.718" y2="16.375"/>
	<line style="fill:none;stroke:#000000;stroke-miterlimit:1;" x1="136.718" y1="16.375" x2="133.756" y2="16.046"/>
	<line style="fill:none;stroke:#000000;stroke-miterlimit:1;" x1="133.756" y1="16.046" x2="131.123" y2="16.375"/>
	<line style="fill:none;stroke:#000000;stroke-miterlimit:1;" x1="131.123" y1="16.375" x2="128.489" y2="16.704"/>
	<line style="fill:none;stroke:#000000;stroke-miterlimit:1;" x1="128.489" y1="16.704" x2="125.856" y2="17.033"/>
	<line style="fill:none;stroke:#000000;stroke-miterlimit:1;" x1="125.856" y1="17.033" x2="123.223" y2="18.021"/>
	<line style="fill:none;stroke:#000000;stroke-miterlimit:1;" x1="123.223" y1="18.021" x2="120.261" y2="19.337"/>
	<line style="fill:none;stroke:#000000;stroke-miterlimit:1;" x1="120.261" y1="19.337" x2="117.627" y2="20.654"/>
	<line style="fill:none;stroke:#000000;stroke-miterlimit:1;" x1="117.627" y1="20.654" x2="115.324" y2="22.3"/>
	<line style="fill:none;stroke:#000000;stroke-miterlimit:1;" x1="115.324" y1="22.3" x2="112.69" y2="24.604"/>
	<line style="fill:none;stroke:#000000;stroke-miterlimit:1;" x1="112.69" y1="24.604" x2="111.045" y2="26.579"/>
	<line style="fill:none;stroke:#000000;stroke-miterlimit:1;" x1="111.045" y1="26.579" x2="109.07" y2="29.211"/>
	<line style="fill:none;stroke:#000000;stroke-miterlimit:1;" x1="109.07" y1="29.211" x2="107.753" y2="31.516"/>
	<line style="fill:none;stroke:#000000;stroke-miterlimit:1;" x1="107.753" y1="31.516" x2="106.437" y2="34.149"/>
	<line style="fill:none;stroke:#000000;stroke-miterlimit:1;" x1="106.437" y1="34.149" x2="105.778" y2="36.782"/>
	<line style="fill:none;stroke:#000000;stroke-miterlimit:1;" x1="105.778" y1="36.782" x2="104.791" y2="40.402"/>
	<line style="fill:none;stroke:#000000;stroke-miterlimit:1;" x1="104.791" y1="40.402" x2="104.791" y2="43.694"/>
	<line style="fill:none;stroke:#000000;stroke-miterlimit:1;" x1="104.791" y1="43.694" x2="104.791" y2="46.985"/>
	<line style="fill:none;stroke:#000000;stroke-miterlimit:1;" x1="104.791" y1="46.985" x2="105.449" y2="50.277"/>
	<line style="fill:none;stroke:#000000;stroke-miterlimit:1;" x1="105.449" y1="50.277" x2="106.108" y2="53.568"/>
	<line style="fill:none;stroke:#000000;stroke-miterlimit:1;" x1="106.108" y1="53.568" x2="107.424" y2="56.201"/>
	<line style="fill:none;stroke:#000000;stroke-miterlimit:1;" x1="107.424" y1="56.201" x2="108.741" y2="58.834"/>
	<line style="fill:none;stroke:#000000;stroke-miterlimit:1;" x1="108.741" y1="58.834" x2="110.387" y2="61.139"/>
	<line style="fill:none;stroke:#000000;stroke-miterlimit:1;" x1="110.387" y1="61.139" x2="112.69" y2="63.442"/>
	<line style="fill:none;stroke:#000000;stroke-miterlimit:1;" x1="112.69" y1="63.442" x2="114.336" y2="65.417"/>
	<line style="fill:none;stroke:#000000;stroke-miterlimit:1;" x1="114.336" y1="65.417" x2="117.298" y2="67.392"/>
	<line style="fill:none;stroke:#000000;stroke-miterlimit:1;" x1="117.298" y1="67.392" x2="119.273" y2="69.038"/>
	<line style="fill:none;stroke:#000000;stroke-miterlimit:1;" x1="119.273" y1="69.038" x2="122.565" y2="70.025"/>
	<line style="fill:none;stroke:#000000;stroke-miterlimit:1;" x1="122.565" y1="70.025" x2="125.527" y2="71.013"/>
	<line style="fill:none;stroke:#000000;stroke-miterlimit:1;" x1="125.527" y1="71.013" x2="127.831" y2="72"/>
	<line style="fill:none;stroke:#000000;stroke-miterlimit:1;" x1="127.831" y1="72" x2="131.123" y2="72"/>
	<line style="fill:none;stroke:#000000;stroke-miterlimit:1;" x1="131.123" y1="72" x2="134.085" y2="72"/>
	<line style="fill:none;stroke:#000000;stroke-miterlimit:1;" x1="134.085" y1="72" x2="137.376" y2="72"/>
	<line style="fill:none;stroke:#000000;stroke-miterlimit:1;" x1="137.376" y1="72" x2="140.338" y2="71.342"/>
	<line style="fill:none;stroke:#000000;stroke-miterlimit:1;" x1="140.338" y1="71.342" x2="143.301" y2="70.684"/>
	<line style="fill:none;stroke:#000000;stroke-miterlimit:1;" x1="143.301" y1="70.684" x2="145.605" y2="69.696"/>
	<line style="fill:none;stroke:#000000;stroke-miterlimit:1;" x1="145.605" y1="69.696" x2="148.238" y2="68.05"/>
	<line style="fill:none;stroke:#000000;stroke-miterlimit:1;" x1="148.238" y1="68.05" x2="150.871" y2="66.076"/>
	<line style="fill:none;stroke:#000000;stroke-miterlimit:1;" x1="150.871" y1="66.076" x2="152.846" y2="64.101"/>
	<line style="fill:none;stroke:#000000;stroke-miterlimit:1;" x1="152.846" y1="64.101" x2="154.82" y2="62.126"/>
	<line style="fill:none;stroke:#000000;stroke-miterlimit:1;" x1="154.82" y1="62.126" x2="156.795" y2="59.164"/>
	<line style="fill:none;stroke:#000000;stroke-miterlimit:1;" x1="156.795" y1="59.164" x2="158.111" y2="56.859"/>
	<line style="fill:none;stroke:#000000;stroke-miterlimit:1;" x1="158.111" y1="56.859" x2="159.43" y2="54.227"/>
	<line style="fill:none;stroke:#000000;stroke-miterlimit:1;" x1="159.43" y1="54.227" x2="160.088" y2="51.264"/>
	<line style="fill:none;stroke:#000000;stroke-miterlimit:1;" x1="160.088" y1="51.264" x2="161.074" y2="48.302"/>
	<line style="fill:none;stroke:#000000;stroke-miterlimit:1;" x1="161.074" y1="48.302" x2="161.404" y2="45.669"/>
	<line style="fill:none;stroke:#000000;stroke-miterlimit:1;" x1="161.404" y1="45.669" x2="161.404" y2="42.377"/>
	<line style="fill:none;stroke:#000000;stroke-miterlimit:1;" x1="161.404" y1="42.377" x2="161.074" y2="39.415"/>
	<line style="fill:none;stroke:#000000;stroke-miterlimit:1;" x1="161.074" y1="39.415" x2="160.088" y2="36.453"/>
	<line style="fill:none;stroke:#000000;stroke-miterlimit:1;" x1="160.088" y1="36.453" x2="159.43" y2="33.82"/>
	<line style="fill:none;stroke:#000000;stroke-miterlimit:1;" x1="173.91" y1="133.879" x2="149.225" y2="67.721"/>
	<line style="fill:none;stroke:#000000;stroke-miterlimit:1;" x1="133.756" y1="134.537" x2="133.756" y2="72.329"/>
	<line style="fill:none;stroke:#000000;stroke-miterlimit:1;" x1="93.6" y1="133.879" x2="116.969" y2="68.05"/>
</g>
</svg>
