<?xml version="1.0" encoding="iso-8859-1"?>
<!-- Generator: Adobe Illustrator 16.0.1, SVG Export Plug-In . SVG Version: 6.00 Build 0)  -->
<!DOCTYPE svg PUBLIC "-//W3C//DTD SVG 1.1//EN" "http://www.w3.org/Graphics/SVG/1.1/DTD/svg11.dtd">
<svg version="1.1" id="Ebene_1" xmlns="http://www.w3.org/2000/svg" xmlns:xlink="http://www.w3.org/1999/xlink" x="0px" y="0px"
	 width="222.707px" height="149.225px" viewBox="0 0 222.707 149.225" style="enable-background:new 0 0 222.707 149.225;"
	 xml:space="preserve">
<g>
	<line style="fill:none;stroke:#000000;stroke-miterlimit:1;" x1="37.164" y1="81.293" x2="52.437" y2="81.293"/>
	<line style="fill:none;stroke:#000000;stroke-miterlimit:1;" x1="52.437" y1="81.293" x2="52.182" y2="75.693"/>
	<line style="fill:none;stroke:#000000;stroke-miterlimit:1;" x1="52.182" y1="75.693" x2="53.709" y2="68.311"/>
	<line style="fill:none;stroke:#000000;stroke-miterlimit:1;" x1="53.709" y1="68.311" x2="55.236" y2="63.984"/>
	<line style="fill:none;stroke:#000000;stroke-miterlimit:1;" x1="55.236" y1="63.984" x2="58.291" y2="57.111"/>
	<line style="fill:none;stroke:#000000;stroke-miterlimit:1;" x1="58.291" y1="57.111" x2="72.291" y2="32.42"/>
	<line style="fill:none;stroke:#000000;stroke-miterlimit:1;" x1="72.291" y1="32.42" x2="73.055" y2="27.074"/>
	<line style="fill:none;stroke:#000000;stroke-miterlimit:1;" x1="73.055" y1="27.074" x2="73.309" y2="24.529"/>
	<line style="fill:none;stroke:#000000;stroke-miterlimit:1;" x1="73.309" y1="24.529" x2="72.8" y2="19.947"/>
	<line style="fill:none;stroke:#000000;stroke-miterlimit:1;" x1="72.8" y1="19.947" x2="72.037" y2="16.893"/>
	<line style="fill:none;stroke:#000000;stroke-miterlimit:1;" x1="72.037" y1="16.893" x2="70.764" y2="13.074"/>
	<line style="fill:none;stroke:#000000;stroke-miterlimit:1;" x1="70.764" y1="13.074" x2="68.473" y2="9.511"/>
	<line style="fill:none;stroke:#000000;stroke-miterlimit:1;" x1="68.473" y1="9.511" x2="66.691" y2="7.475"/>
	<line style="fill:none;stroke:#000000;stroke-miterlimit:1;" x1="66.691" y1="7.475" x2="62.109" y2="3.147"/>
	<line style="fill:none;stroke:#000000;stroke-miterlimit:1;" x1="62.109" y1="3.147" x2="58.545" y2="1.875"/>
	<line style="fill:none;stroke:#000000;stroke-miterlimit:1;" x1="58.545" y1="1.875" x2="51.164" y2="1.111"/>
	<line style="fill:none;stroke:#000000;stroke-miterlimit:1;" x1="51.164" y1="1.111" x2="45.055" y2="1.875"/>
	<line style="fill:none;stroke:#000000;stroke-miterlimit:1;" x1="45.055" y1="1.875" x2="42.509" y2="2.893"/>
	<line style="fill:none;stroke:#000000;stroke-miterlimit:1;" x1="42.509" y1="2.893" x2="39.455" y2="4.929"/>
	<line style="fill:none;stroke:#000000;stroke-miterlimit:1;" x1="39.455" y1="4.929" x2="36.655" y2="7.983"/>
	<line style="fill:none;stroke:#000000;stroke-miterlimit:1;" x1="36.655" y1="7.983" x2="35.382" y2="9.765"/>
	<line style="fill:none;stroke:#000000;stroke-miterlimit:1;" x1="35.382" y1="9.765" x2="34.109" y2="11.292"/>
	<line style="fill:none;stroke:#000000;stroke-miterlimit:1;" x1="33.346" y1="11.547" x2="31.055" y2="12.565"/>
	<line style="fill:none;stroke:#000000;stroke-miterlimit:1;" x1="31.055" y1="12.565" x2="6.109" y2="17.402"/>
	<line style="fill:none;stroke:#000000;stroke-miterlimit:1;" x1="6.109" y1="17.402" x2="3.818" y2="19.184"/>
	<line style="fill:none;stroke:#000000;stroke-miterlimit:1;" x1="3.818" y1="19.184" x2="2.036" y2="20.456"/>
	<line style="fill:none;stroke:#000000;stroke-miterlimit:1;" x1="2.036" y1="20.456" x2="0.509" y2="23.256"/>
	<line style="fill:none;stroke:#000000;stroke-miterlimit:1;" x1="0.509" y1="23.256" x2="0" y2="27.329"/>
	<line style="fill:none;stroke:#000000;stroke-miterlimit:1;" x1="0" y1="27.329" x2="0.254" y2="28.347"/>
	<line style="fill:none;stroke:#000000;stroke-miterlimit:1;" x1="0.254" y1="28.347" x2="1.018" y2="28.856"/>
	<line style="fill:none;stroke:#000000;stroke-miterlimit:1;" x1="1.018" y1="28.856" x2="1.527" y2="28.856"/>
	<line style="fill:none;stroke:#000000;stroke-miterlimit:1;" x1="1.527" y1="28.856" x2="2.8" y2="28.347"/>
	<line style="fill:none;stroke:#000000;stroke-miterlimit:1;" x1="2.8" y1="28.347" x2="3.309" y2="26.056"/>
	<line style="fill:none;stroke:#000000;stroke-miterlimit:1;" x1="3.309" y1="26.056" x2="4.836" y2="23.766"/>
	<line style="fill:none;stroke:#000000;stroke-miterlimit:1;" x1="4.836" y1="23.766" x2="7.127" y2="21.729"/>
	<line style="fill:none;stroke:#000000;stroke-miterlimit:1;" x1="7.127" y1="21.729" x2="9.673" y2="20.965"/>
	<line style="fill:none;stroke:#000000;stroke-miterlimit:1;" x1="9.673" y1="20.965" x2="12.982" y2="19.947"/>
	<line style="fill:none;stroke:#000000;stroke-miterlimit:1;" x1="12.982" y1="19.947" x2="33.6" y2="17.147"/>
	<line style="fill:none;stroke:#000000;stroke-miterlimit:1;" x1="33.6" y1="17.147" x2="34.109" y2="16.893"/>
	<line style="fill:none;stroke:#000000;stroke-miterlimit:1;" x1="34.109" y1="16.893" x2="37.164" y2="17.402"/>
	<line style="fill:none;stroke:#000000;stroke-miterlimit:1;" x1="33.6" y1="11.547" x2="37.164" y2="17.656"/>
	<line style="fill:none;stroke:#000000;stroke-miterlimit:1;" x1="37.164" y1="17.656" x2="37.164" y2="20.965"/>
	<line style="fill:none;stroke:#000000;stroke-miterlimit:1;" x1="3.818" y1="25.802" x2="6.109" y2="24.274"/>
	<line style="fill:none;stroke:#000000;stroke-miterlimit:1;" x1="6.109" y1="24.274" x2="9.927" y2="23.256"/>
	<line style="fill:none;stroke:#000000;stroke-miterlimit:1;" x1="9.927" y1="23.256" x2="19.854" y2="22.238"/>
	<line style="fill:none;stroke:#000000;stroke-miterlimit:1;" x1="19.854" y1="22.238" x2="29.782" y2="20.965"/>
	<line style="fill:none;stroke:#000000;stroke-miterlimit:1;" x1="29.782" y1="20.965" x2="33.854" y2="20.965"/>
	<line style="fill:none;stroke:#000000;stroke-miterlimit:1;" x1="33.854" y1="20.965" x2="37.418" y2="20.965"/>
	<line style="fill:none;stroke:#000000;stroke-miterlimit:1;" x1="37.418" y1="20.965" x2="39.455" y2="21.22"/>
	<line style="fill:none;stroke:#000000;stroke-miterlimit:1;" x1="39.455" y1="21.22" x2="43.527" y2="22.238"/>
	<line style="fill:none;stroke:#000000;stroke-miterlimit:1;" x1="43.527" y1="22.238" x2="50.655" y2="23.511"/>
	<line style="fill:none;stroke:#000000;stroke-miterlimit:1;" x1="50.655" y1="23.511" x2="54.473" y2="23.766"/>
	<line style="fill:none;stroke:#000000;stroke-miterlimit:1;" x1="54.473" y1="23.766" x2="57.273" y2="23.511"/>
	<line style="fill:none;stroke:#000000;stroke-miterlimit:1;" x1="57.273" y1="23.511" x2="60.328" y2="22.747"/>
	<line style="fill:none;stroke:#000000;stroke-miterlimit:1;" x1="60.328" y1="22.747" x2="62.109" y2="23.766"/>
	<line style="fill:none;stroke:#000000;stroke-miterlimit:1;" x1="62.109" y1="23.766" x2="62.873" y2="25.038"/>
	<line style="fill:none;stroke:#000000;stroke-miterlimit:1;" x1="62.873" y1="25.038" x2="63.127" y2="28.093"/>
	<line style="fill:none;stroke:#000000;stroke-miterlimit:1;" x1="63.127" y1="28.093" x2="62.873" y2="30.638"/>
	<line style="fill:none;stroke:#000000;stroke-miterlimit:1;" x1="62.873" y1="30.638" x2="61.6" y2="33.693"/>
	<line style="fill:none;stroke:#000000;stroke-miterlimit:1;" x1="61.6" y1="33.693" x2="50.4" y2="48.457"/>
	<line style="fill:none;stroke:#000000;stroke-miterlimit:1;" x1="50.4" y1="48.457" x2="44.8" y2="57.366"/>
	<line style="fill:none;stroke:#000000;stroke-miterlimit:1;" x1="44.8" y1="57.366" x2="42.509" y2="61.947"/>
	<line style="fill:none;stroke:#000000;stroke-miterlimit:1;" x1="42.509" y1="61.947" x2="39.709" y2="67.293"/>
	<line style="fill:none;stroke:#000000;stroke-miterlimit:1;" x1="39.709" y1="67.293" x2="38.182" y2="74.166"/>
	<line style="fill:none;stroke:#000000;stroke-miterlimit:1;" x1="38.182" y1="74.166" x2="37.164" y2="81.293"/>
	<line style="fill:none;stroke:#000000;stroke-miterlimit:1;" x1="59.055" y1="2.129" x2="72.291" y2="6.965"/>
	<line style="fill:none;stroke:#000000;stroke-miterlimit:1;" x1="72.291" y1="6.965" x2="85.273" y2="10.274"/>
	<line style="fill:none;stroke:#000000;stroke-miterlimit:1;" x1="85.273" y1="10.274" x2="90.619" y2="11.292"/>
	<line style="fill:none;stroke:#000000;stroke-miterlimit:1;" x1="90.619" y1="11.292" x2="95.2" y2="11.547"/>
	<line style="fill:none;stroke:#000000;stroke-miterlimit:1;" x1="95.2" y1="11.547" x2="100.8" y2="11.547"/>
	<line style="fill:none;stroke:#000000;stroke-miterlimit:1;" x1="100.8" y1="11.547" x2="106.91" y2="11.292"/>
	<line style="fill:none;stroke:#000000;stroke-miterlimit:1;" x1="106.91" y1="11.292" x2="111.491" y2="10.274"/>
	<line style="fill:none;stroke:#000000;stroke-miterlimit:1;" x1="111.491" y1="10.274" x2="116.072" y2="9.256"/>
	<line style="fill:none;stroke:#000000;stroke-miterlimit:1;" x1="116.072" y1="9.256" x2="116.582" y2="9.765"/>
	<line style="fill:none;stroke:#000000;stroke-miterlimit:1;" x1="116.582" y1="9.765" x2="116.072" y2="11.547"/>
	<line style="fill:none;stroke:#000000;stroke-miterlimit:1;" x1="116.072" y1="11.547" x2="114.291" y2="12.82"/>
	<line style="fill:none;stroke:#000000;stroke-miterlimit:1;" x1="114.291" y1="12.82" x2="108.182" y2="14.093"/>
	<line style="fill:none;stroke:#000000;stroke-miterlimit:1;" x1="108.182" y1="14.093" x2="102.073" y2="14.856"/>
	<line style="fill:none;stroke:#000000;stroke-miterlimit:1;" x1="102.073" y1="14.856" x2="95.2" y2="14.856"/>
	<line style="fill:none;stroke:#000000;stroke-miterlimit:1;" x1="95.2" y1="14.856" x2="89.346" y2="14.347"/>
	<line style="fill:none;stroke:#000000;stroke-miterlimit:1;" x1="89.346" y1="14.347" x2="79.418" y2="12.565"/>
	<line style="fill:none;stroke:#000000;stroke-miterlimit:1;" x1="79.418" y1="12.565" x2="73.818" y2="10.784"/>
	<line style="fill:none;stroke:#000000;stroke-miterlimit:1;" x1="66.691" y1="6.965" x2="76.619" y2="12.311"/>
	<line style="fill:none;stroke:#000000;stroke-miterlimit:1;" x1="76.619" y1="12.311" x2="86.546" y2="17.402"/>
	<line style="fill:none;stroke:#000000;stroke-miterlimit:1;" x1="86.546" y1="17.402" x2="92.655" y2="20.456"/>
	<line style="fill:none;stroke:#000000;stroke-miterlimit:1;" x1="92.655" y1="20.456" x2="97.237" y2="22.238"/>
	<line style="fill:none;stroke:#000000;stroke-miterlimit:1;" x1="97.237" y1="22.238" x2="102.328" y2="23.511"/>
	<line style="fill:none;stroke:#000000;stroke-miterlimit:1;" x1="102.328" y1="23.511" x2="105.891" y2="24.02"/>
	<line style="fill:none;stroke:#000000;stroke-miterlimit:1;" x1="105.891" y1="24.02" x2="112.51" y2="24.784"/>
	<line style="fill:none;stroke:#000000;stroke-miterlimit:1;" x1="112.51" y1="24.784" x2="115.309" y2="24.274"/>
	<line style="fill:none;stroke:#000000;stroke-miterlimit:1;" x1="115.309" y1="24.274" x2="116.582" y2="24.02"/>
	<line style="fill:none;stroke:#000000;stroke-miterlimit:1;" x1="116.582" y1="24.02" x2="117.6" y2="24.784"/>
	<line style="fill:none;stroke:#000000;stroke-miterlimit:1;" x1="117.6" y1="24.784" x2="117.855" y2="26.311"/>
	<line style="fill:none;stroke:#000000;stroke-miterlimit:1;" x1="117.855" y1="26.311" x2="114.037" y2="27.583"/>
	<line style="fill:none;stroke:#000000;stroke-miterlimit:1;" x1="114.037" y1="27.583" x2="109.455" y2="28.093"/>
	<line style="fill:none;stroke:#000000;stroke-miterlimit:1;" x1="109.455" y1="28.093" x2="104.364" y2="27.329"/>
	<line style="fill:none;stroke:#000000;stroke-miterlimit:1;" x1="104.364" y1="27.329" x2="97.237" y2="25.802"/>
	<line style="fill:none;stroke:#000000;stroke-miterlimit:1;" x1="97.237" y1="25.802" x2="91.127" y2="23.766"/>
	<line style="fill:none;stroke:#000000;stroke-miterlimit:1;" x1="91.127" y1="23.766" x2="85.273" y2="20.965"/>
	<line style="fill:none;stroke:#000000;stroke-miterlimit:1;" x1="85.273" y1="20.965" x2="71.019" y2="12.82"/>
	<line style="fill:none;stroke:#000000;stroke-miterlimit:1;" x1="45.309" y1="8.493" x2="43.782" y2="8.747"/>
	<line style="fill:none;stroke:#000000;stroke-miterlimit:1;" x1="43.782" y1="8.747" x2="42.509" y2="10.274"/>
	<line style="fill:none;stroke:#000000;stroke-miterlimit:1;" x1="42.509" y1="10.274" x2="42.509" y2="12.056"/>
	<line style="fill:none;stroke:#000000;stroke-miterlimit:1;" x1="42.509" y1="12.056" x2="43.782" y2="13.329"/>
	<line style="fill:none;stroke:#000000;stroke-miterlimit:1;" x1="43.782" y1="13.329" x2="45.564" y2="13.329"/>
	<line style="fill:none;stroke:#000000;stroke-miterlimit:1;" x1="45.564" y1="13.329" x2="47.346" y2="12.565"/>
	<line style="fill:none;stroke:#000000;stroke-miterlimit:1;" x1="47.346" y1="12.565" x2="47.6" y2="11.547"/>
	<line style="fill:none;stroke:#000000;stroke-miterlimit:1;" x1="47.6" y1="11.547" x2="47.091" y2="10.02"/>
	<line style="fill:none;stroke:#000000;stroke-miterlimit:1;" x1="47.091" y1="10.02" x2="45.818" y2="8.493"/>
	<line style="fill:none;stroke:#000000;stroke-miterlimit:1;" x1="46.2" y1="148.461" x2="79.291" y2="116.643"/>
	<line style="fill:none;stroke:#000000;stroke-miterlimit:1;" x1="34.236" y1="143.88" x2="74.964" y2="104.934"/>
	<line style="fill:none;stroke:#000000;stroke-miterlimit:1;" x1="26.346" y1="135.479" x2="67.073" y2="96.534"/>
	<line style="fill:none;stroke:#000000;stroke-miterlimit:1;" x1="22.273" y1="123.516" x2="54.854" y2="92.461"/>
	<line style="fill:none;stroke:#000000;stroke-miterlimit:1;" x1="62.746" y1="94.243" x2="59.946" y2="93.479"/>
	<line style="fill:none;stroke:#000000;stroke-miterlimit:1;" x1="59.946" y1="93.479" x2="57.146" y2="92.461"/>
	<line style="fill:none;stroke:#000000;stroke-miterlimit:1;" x1="57.146" y1="92.461" x2="54.091" y2="91.952"/>
	<line style="fill:none;stroke:#000000;stroke-miterlimit:1;" x1="54.091" y1="91.952" x2="51.037" y2="91.952"/>
	<line style="fill:none;stroke:#000000;stroke-miterlimit:1;" x1="51.037" y1="91.952" x2="47.728" y2="92.207"/>
	<line style="fill:none;stroke:#000000;stroke-miterlimit:1;" x1="47.728" y1="92.207" x2="44.927" y2="92.461"/>
	<line style="fill:none;stroke:#000000;stroke-miterlimit:1;" x1="44.927" y1="92.461" x2="41.873" y2="93.479"/>
	<line style="fill:none;stroke:#000000;stroke-miterlimit:1;" x1="41.873" y1="93.479" x2="39.073" y2="94.497"/>
	<line style="fill:none;stroke:#000000;stroke-miterlimit:1;" x1="39.073" y1="94.497" x2="36.273" y2="95.771"/>
	<line style="fill:none;stroke:#000000;stroke-miterlimit:1;" x1="36.273" y1="95.771" x2="33.728" y2="97.552"/>
	<line style="fill:none;stroke:#000000;stroke-miterlimit:1;" x1="33.728" y1="97.552" x2="31.691" y2="99.334"/>
	<line style="fill:none;stroke:#000000;stroke-miterlimit:1;" x1="31.691" y1="99.334" x2="29.655" y2="101.37"/>
	<line style="fill:none;stroke:#000000;stroke-miterlimit:1;" x1="29.655" y1="101.37" x2="28.127" y2="103.152"/>
	<line style="fill:none;stroke:#000000;stroke-miterlimit:1;" x1="28.127" y1="103.152" x2="26.6" y2="105.443"/>
	<line style="fill:none;stroke:#000000;stroke-miterlimit:1;" x1="26.6" y1="105.443" x2="24.818" y2="108.752"/>
	<line style="fill:none;stroke:#000000;stroke-miterlimit:1;" x1="24.818" y1="108.752" x2="24.055" y2="111.298"/>
	<line style="fill:none;stroke:#000000;stroke-miterlimit:1;" x1="24.055" y1="111.298" x2="23.291" y2="114.098"/>
	<line style="fill:none;stroke:#000000;stroke-miterlimit:1;" x1="23.291" y1="114.098" x2="22.782" y2="116.897"/>
	<line style="fill:none;stroke:#000000;stroke-miterlimit:1;" x1="22.782" y1="116.897" x2="22.273" y2="120.207"/>
	<line style="fill:none;stroke:#000000;stroke-miterlimit:1;" x1="22.273" y1="120.207" x2="22.273" y2="123.007"/>
	<line style="fill:none;stroke:#000000;stroke-miterlimit:1;" x1="22.273" y1="123.007" x2="22.782" y2="126.315"/>
	<line style="fill:none;stroke:#000000;stroke-miterlimit:1;" x1="22.782" y1="126.315" x2="23.545" y2="129.116"/>
	<line style="fill:none;stroke:#000000;stroke-miterlimit:1;" x1="23.545" y1="129.116" x2="24.309" y2="131.661"/>
	<line style="fill:none;stroke:#000000;stroke-miterlimit:1;" x1="24.309" y1="131.661" x2="25.582" y2="134.461"/>
	<line style="fill:none;stroke:#000000;stroke-miterlimit:1;" x1="25.582" y1="134.461" x2="26.346" y2="135.988"/>
	<line style="fill:none;stroke:#000000;stroke-miterlimit:1;" x1="26.346" y1="135.988" x2="27.364" y2="137.262"/>
	<line style="fill:none;stroke:#000000;stroke-miterlimit:1;" x1="27.364" y1="137.262" x2="29.909" y2="140.062"/>
	<line style="fill:none;stroke:#000000;stroke-miterlimit:1;" x1="29.909" y1="140.062" x2="32.455" y2="142.606"/>
	<line style="fill:none;stroke:#000000;stroke-miterlimit:1;" x1="32.455" y1="142.606" x2="34.746" y2="144.389"/>
	<line style="fill:none;stroke:#000000;stroke-miterlimit:1;" x1="34.746" y1="144.389" x2="37.545" y2="145.916"/>
	<line style="fill:none;stroke:#000000;stroke-miterlimit:1;" x1="37.545" y1="145.916" x2="40.6" y2="147.443"/>
	<line style="fill:none;stroke:#000000;stroke-miterlimit:1;" x1="40.6" y1="147.443" x2="43.655" y2="148.207"/>
	<line style="fill:none;stroke:#000000;stroke-miterlimit:1;" x1="43.655" y1="148.207" x2="46.2" y2="148.971"/>
	<line style="fill:none;stroke:#000000;stroke-miterlimit:1;" x1="46.2" y1="148.971" x2="49.255" y2="148.971"/>
	<line style="fill:none;stroke:#000000;stroke-miterlimit:1;" x1="49.255" y1="148.971" x2="52.309" y2="149.225"/>
	<line style="fill:none;stroke:#000000;stroke-miterlimit:1;" x1="52.309" y1="149.225" x2="55.873" y2="148.716"/>
	<line style="fill:none;stroke:#000000;stroke-miterlimit:1;" x1="55.873" y1="148.716" x2="58.418" y2="148.207"/>
	<line style="fill:none;stroke:#000000;stroke-miterlimit:1;" x1="58.418" y1="148.207" x2="61.473" y2="146.935"/>
	<line style="fill:none;stroke:#000000;stroke-miterlimit:1;" x1="61.473" y1="146.935" x2="64.527" y2="145.407"/>
	<line style="fill:none;stroke:#000000;stroke-miterlimit:1;" x1="64.527" y1="145.407" x2="66.564" y2="144.389"/>
	<line style="fill:none;stroke:#000000;stroke-miterlimit:1;" x1="66.564" y1="144.389" x2="68.855" y2="142.353"/>
	<line style="fill:none;stroke:#000000;stroke-miterlimit:1;" x1="68.855" y1="142.353" x2="71.146" y2="140.315"/>
	<line style="fill:none;stroke:#000000;stroke-miterlimit:1;" x1="71.146" y1="140.315" x2="73.437" y2="138.025"/>
	<line style="fill:none;stroke:#000000;stroke-miterlimit:1;" x1="73.437" y1="138.025" x2="75.218" y2="135.225"/>
	<line style="fill:none;stroke:#000000;stroke-miterlimit:1;" x1="75.218" y1="135.225" x2="77" y2="132.68"/>
	<line style="fill:none;stroke:#000000;stroke-miterlimit:1;" x1="77" y1="132.68" x2="78.273" y2="130.134"/>
	<line style="fill:none;stroke:#000000;stroke-miterlimit:1;" x1="78.273" y1="130.134" x2="79.037" y2="127.079"/>
	<line style="fill:none;stroke:#000000;stroke-miterlimit:1;" x1="79.037" y1="127.079" x2="79.291" y2="124.279"/>
	<line style="fill:none;stroke:#000000;stroke-miterlimit:1;" x1="79.291" y1="124.279" x2="79.8" y2="120.971"/>
	<line style="fill:none;stroke:#000000;stroke-miterlimit:1;" x1="79.8" y1="120.971" x2="79.546" y2="118.17"/>
	<line style="fill:none;stroke:#000000;stroke-miterlimit:1;" x1="79.546" y1="118.17" x2="79.291" y2="114.861"/>
	<line style="fill:none;stroke:#000000;stroke-miterlimit:1;" x1="79.291" y1="114.861" x2="78.527" y2="112.062"/>
	<line style="fill:none;stroke:#000000;stroke-miterlimit:1;" x1="78.527" y1="112.062" x2="77.509" y2="109.516"/>
	<line style="fill:none;stroke:#000000;stroke-miterlimit:1;" x1="77.509" y1="109.516" x2="76.237" y2="106.207"/>
	<line style="fill:none;stroke:#000000;stroke-miterlimit:1;" x1="76.237" y1="106.207" x2="74.455" y2="103.661"/>
	<line style="fill:none;stroke:#000000;stroke-miterlimit:1;" x1="74.455" y1="103.661" x2="72.673" y2="101.625"/>
	<line style="fill:none;stroke:#000000;stroke-miterlimit:1;" x1="72.673" y1="101.625" x2="70.637" y2="99.079"/>
	<line style="fill:none;stroke:#000000;stroke-miterlimit:1;" x1="70.637" y1="99.079" x2="68.091" y2="97.298"/>
	<line style="fill:none;stroke:#000000;stroke-miterlimit:1;" x1="68.091" y1="97.298" x2="65.545" y2="95.516"/>
	<line style="fill:none;stroke:#000000;stroke-miterlimit:1;" x1="65.545" y1="95.516" x2="62.746" y2="94.243"/>
	<line style="fill:none;stroke:#000000;stroke-miterlimit:1;" x1="222.707" y1="36.864" x2="145.029" y2="36.864"/>
	<line style="fill:none;stroke:#000000;stroke-miterlimit:1;" x1="145.029" y1="36.864" x2="146.016" y2="30.281"/>
	<line style="fill:none;stroke:#000000;stroke-miterlimit:1;" x1="146.016" y1="30.281" x2="147.004" y2="26.002"/>
	<line style="fill:none;stroke:#000000;stroke-miterlimit:1;" x1="147.004" y1="26.002" x2="148.648" y2="21.723"/>
	<line style="fill:none;stroke:#000000;stroke-miterlimit:1;" x1="148.648" y1="21.723" x2="150.953" y2="18.432"/>
	<line style="fill:none;stroke:#000000;stroke-miterlimit:1;" x1="150.953" y1="18.432" x2="152.928" y2="15.47"/>
	<line style="fill:none;stroke:#000000;stroke-miterlimit:1;" x1="152.928" y1="15.47" x2="155.561" y2="11.849"/>
	<line style="fill:none;stroke:#000000;stroke-miterlimit:1;" x1="155.561" y1="11.849" x2="158.523" y2="9.216"/>
	<line style="fill:none;stroke:#000000;stroke-miterlimit:1;" x1="158.523" y1="9.216" x2="162.145" y2="6.583"/>
	<line style="fill:none;stroke:#000000;stroke-miterlimit:1;" x1="162.145" y1="6.583" x2="165.105" y2="4.608"/>
	<line style="fill:none;stroke:#000000;stroke-miterlimit:1;" x1="165.105" y1="4.608" x2="169.385" y2="2.633"/>
	<line style="fill:none;stroke:#000000;stroke-miterlimit:1;" x1="169.385" y1="2.633" x2="173.664" y2="1.316"/>
	<line style="fill:none;stroke:#000000;stroke-miterlimit:1;" x1="173.664" y1="1.316" x2="176.627" y2="0.658"/>
	<line style="fill:none;stroke:#000000;stroke-miterlimit:1;" x1="176.627" y1="0.658" x2="181.893" y2="0"/>
	<line style="fill:none;stroke:#000000;stroke-miterlimit:1;" x1="181.893" y1="0" x2="185.842" y2="0"/>
	<line style="fill:none;stroke:#000000;stroke-miterlimit:1;" x1="185.842" y1="0" x2="189.463" y2="0.658"/>
	<line style="fill:none;stroke:#000000;stroke-miterlimit:1;" x1="189.463" y1="0.658" x2="193.412" y2="1.316"/>
	<line style="fill:none;stroke:#000000;stroke-miterlimit:1;" x1="193.412" y1="1.316" x2="197.691" y2="2.304"/>
	<line style="fill:none;stroke:#000000;stroke-miterlimit:1;" x1="197.691" y1="2.304" x2="200.654" y2="3.291"/>
	<line style="fill:none;stroke:#000000;stroke-miterlimit:1;" x1="200.654" y1="3.291" x2="204.604" y2="5.924"/>
	<line style="fill:none;stroke:#000000;stroke-miterlimit:1;" x1="204.604" y1="5.924" x2="207.895" y2="8.229"/>
	<line style="fill:none;stroke:#000000;stroke-miterlimit:1;" x1="207.895" y1="8.229" x2="210.857" y2="10.532"/>
	<line style="fill:none;stroke:#000000;stroke-miterlimit:1;" x1="210.857" y1="10.532" x2="213.49" y2="13.824"/>
	<line style="fill:none;stroke:#000000;stroke-miterlimit:1;" x1="213.49" y1="13.824" x2="216.123" y2="17.444"/>
	<line style="fill:none;stroke:#000000;stroke-miterlimit:1;" x1="216.123" y1="17.444" x2="218.428" y2="21.065"/>
	<line style="fill:none;stroke:#000000;stroke-miterlimit:1;" x1="218.428" y1="21.065" x2="220.072" y2="24.356"/>
	<line style="fill:none;stroke:#000000;stroke-miterlimit:1;" x1="220.072" y1="24.356" x2="221.389" y2="29.293"/>
	<line style="fill:none;stroke:#000000;stroke-miterlimit:1;" x1="221.389" y1="29.293" x2="222.377" y2="32.914"/>
	<line style="fill:none;stroke:#000000;stroke-miterlimit:1;" x1="222.377" y1="32.914" x2="222.707" y2="36.864"/>
	<line style="fill:none;stroke:#000000;stroke-miterlimit:1;" x1="186.295" y1="93.641" x2="183.004" y2="93.641"/>
	<line style="fill:none;stroke:#000000;stroke-miterlimit:1;" x1="183.004" y1="93.641" x2="178.066" y2="94.628"/>
	<line style="fill:none;stroke:#000000;stroke-miterlimit:1;" x1="178.066" y1="94.628" x2="173.459" y2="95.616"/>
	<line style="fill:none;stroke:#000000;stroke-miterlimit:1;" x1="173.459" y1="95.616" x2="170.496" y2="96.933"/>
	<line style="fill:none;stroke:#000000;stroke-miterlimit:1;" x1="170.496" y1="96.933" x2="167.533" y2="98.907"/>
	<line style="fill:none;stroke:#000000;stroke-miterlimit:1;" x1="167.533" y1="98.907" x2="164.572" y2="100.882"/>
	<line style="fill:none;stroke:#000000;stroke-miterlimit:1;" x1="164.572" y1="100.882" x2="161.609" y2="104.174"/>
	<line style="fill:none;stroke:#000000;stroke-miterlimit:1;" x1="161.609" y1="104.174" x2="159.305" y2="107.794"/>
	<line style="fill:none;stroke:#000000;stroke-miterlimit:1;" x1="159.305" y1="107.794" x2="157.66" y2="111.744"/>
	<line style="fill:none;stroke:#000000;stroke-miterlimit:1;" x1="157.66" y1="111.744" x2="156.672" y2="116.681"/>
	<line style="fill:none;stroke:#000000;stroke-miterlimit:1;" x1="156.672" y1="116.681" x2="156.342" y2="121.947"/>
	<line style="fill:none;stroke:#000000;stroke-miterlimit:1;" x1="156.342" y1="121.947" x2="156.672" y2="125.567"/>
	<line style="fill:none;stroke:#000000;stroke-miterlimit:1;" x1="156.672" y1="125.567" x2="157.988" y2="130.176"/>
	<line style="fill:none;stroke:#000000;stroke-miterlimit:1;" x1="157.988" y1="130.176" x2="159.963" y2="134.784"/>
	<line style="fill:none;stroke:#000000;stroke-miterlimit:1;" x1="159.963" y1="134.784" x2="162.596" y2="139.062"/>
	<line style="fill:none;stroke:#000000;stroke-miterlimit:1;" x1="162.596" y1="139.062" x2="166.217" y2="142.354"/>
	<line style="fill:none;stroke:#000000;stroke-miterlimit:1;" x1="166.217" y1="142.354" x2="169.18" y2="144"/>
	<line style="fill:none;stroke:#000000;stroke-miterlimit:1;" x1="169.18" y1="144" x2="172.471" y2="145.646"/>
	<line style="fill:none;stroke:#000000;stroke-miterlimit:1;" x1="172.471" y1="145.646" x2="175.434" y2="146.633"/>
	<line style="fill:none;stroke:#000000;stroke-miterlimit:1;" x1="175.434" y1="146.633" x2="178.725" y2="146.962"/>
	<line style="fill:none;stroke:#000000;stroke-miterlimit:1;" x1="178.725" y1="146.962" x2="185.965" y2="147.62"/>
	<line style="fill:none;stroke:#000000;stroke-miterlimit:1;" x1="185.965" y1="147.62" x2="190.574" y2="147.291"/>
	<line style="fill:none;stroke:#000000;stroke-miterlimit:1;" x1="190.574" y1="147.291" x2="195.182" y2="146.633"/>
	<line style="fill:none;stroke:#000000;stroke-miterlimit:1;" x1="195.182" y1="146.633" x2="199.131" y2="145.646"/>
	<line style="fill:none;stroke:#000000;stroke-miterlimit:1;" x1="199.131" y1="145.646" x2="201.764" y2="144.658"/>
	<line style="fill:none;stroke:#000000;stroke-miterlimit:1;" x1="201.764" y1="144.658" x2="204.068" y2="143.013"/>
	<line style="fill:none;stroke:#000000;stroke-miterlimit:1;" x1="204.068" y1="143.013" x2="206.043" y2="141.696"/>
	<line style="fill:none;stroke:#000000;stroke-miterlimit:1;" x1="206.043" y1="141.696" x2="208.348" y2="139.721"/>
	<line style="fill:none;stroke:#000000;stroke-miterlimit:1;" x1="208.348" y1="139.721" x2="210.322" y2="137.088"/>
	<line style="fill:none;stroke:#000000;stroke-miterlimit:1;" x1="210.322" y1="137.088" x2="212.297" y2="134.126"/>
	<line style="fill:none;stroke:#000000;stroke-miterlimit:1;" x1="212.297" y1="134.126" x2="212.955" y2="132.15"/>
	<line style="fill:none;stroke:#000000;stroke-miterlimit:1;" x1="212.955" y1="132.15" x2="213.943" y2="130.176"/>
	<line style="fill:none;stroke:#000000;stroke-miterlimit:1;" x1="213.943" y1="130.176" x2="214.602" y2="127.872"/>
	<line style="fill:none;stroke:#000000;stroke-miterlimit:1;" x1="214.602" y1="127.872" x2="214.93" y2="125.238"/>
	<line style="fill:none;stroke:#000000;stroke-miterlimit:1;" x1="214.93" y1="125.238" x2="215.588" y2="121.289"/>
	<line style="fill:none;stroke:#000000;stroke-miterlimit:1;" x1="215.588" y1="121.289" x2="215.26" y2="118.327"/>
	<line style="fill:none;stroke:#000000;stroke-miterlimit:1;" x1="215.26" y1="118.327" x2="214.93" y2="115.035"/>
	<line style="fill:none;stroke:#000000;stroke-miterlimit:1;" x1="214.93" y1="115.035" x2="213.613" y2="111.086"/>
	<line style="fill:none;stroke:#000000;stroke-miterlimit:1;" x1="213.613" y1="111.086" x2="211.969" y2="106.807"/>
	<line style="fill:none;stroke:#000000;stroke-miterlimit:1;" x1="211.969" y1="106.807" x2="209.664" y2="104.174"/>
	<line style="fill:none;stroke:#000000;stroke-miterlimit:1;" x1="209.664" y1="104.174" x2="206.373" y2="100.882"/>
	<line style="fill:none;stroke:#000000;stroke-miterlimit:1;" x1="206.373" y1="100.882" x2="203.74" y2="98.907"/>
	<line style="fill:none;stroke:#000000;stroke-miterlimit:1;" x1="203.74" y1="98.907" x2="201.105" y2="96.933"/>
	<line style="fill:none;stroke:#000000;stroke-miterlimit:1;" x1="201.105" y1="96.933" x2="195.84" y2="94.958"/>
	<line style="fill:none;stroke:#000000;stroke-miterlimit:1;" x1="195.84" y1="94.958" x2="191.232" y2="93.97"/>
	<line style="fill:none;stroke:#000000;stroke-miterlimit:1;" x1="191.232" y1="93.97" x2="186.623" y2="93.641"/>
	<line style="fill:none;stroke:#000000;stroke-miterlimit:1;" x1="172.143" y1="96.274" x2="169.508" y2="96.274"/>
	<line style="fill:none;stroke:#000000;stroke-miterlimit:1;" x1="169.508" y1="96.274" x2="168.521" y2="95.287"/>
	<line style="fill:none;stroke:#000000;stroke-miterlimit:1;" x1="168.521" y1="95.287" x2="167.863" y2="94.299"/>
	<line style="fill:none;stroke:#000000;stroke-miterlimit:1;" x1="167.863" y1="94.299" x2="167.533" y2="92.324"/>
	<line style="fill:none;stroke:#000000;stroke-miterlimit:1;" x1="167.533" y1="92.324" x2="167.863" y2="90.35"/>
	<line style="fill:none;stroke:#000000;stroke-miterlimit:1;" x1="167.863" y1="90.35" x2="168.85" y2="89.033"/>
	<line style="fill:none;stroke:#000000;stroke-miterlimit:1;" x1="168.85" y1="89.033" x2="170.496" y2="88.375"/>
	<line style="fill:none;stroke:#000000;stroke-miterlimit:1;" x1="170.496" y1="88.375" x2="201.436" y2="88.375"/>
	<line style="fill:none;stroke:#000000;stroke-miterlimit:1;" x1="201.436" y1="88.375" x2="202.752" y2="89.033"/>
	<line style="fill:none;stroke:#000000;stroke-miterlimit:1;" x1="202.752" y1="89.033" x2="203.74" y2="90.35"/>
	<line style="fill:none;stroke:#000000;stroke-miterlimit:1;" x1="203.74" y1="90.35" x2="204.068" y2="91.995"/>
	<line style="fill:none;stroke:#000000;stroke-miterlimit:1;" x1="204.068" y1="91.995" x2="204.068" y2="92.982"/>
	<line style="fill:none;stroke:#000000;stroke-miterlimit:1;" x1="204.068" y1="92.982" x2="203.74" y2="94.299"/>
	<line style="fill:none;stroke:#000000;stroke-miterlimit:1;" x1="203.74" y1="94.299" x2="203.08" y2="95.287"/>
	<line style="fill:none;stroke:#000000;stroke-miterlimit:1;" x1="203.08" y1="95.287" x2="201.764" y2="96.274"/>
	<line style="fill:none;stroke:#000000;stroke-miterlimit:1;" x1="201.764" y1="96.274" x2="199.131" y2="96.274"/>
</g>
</svg>
