<?xml version="1.0" encoding="iso-8859-1"?>
<!-- Generator: Adobe Illustrator 16.0.1, SVG Export Plug-In . SVG Version: 6.00 Build 0)  -->
<!DOCTYPE svg PUBLIC "-//W3C//DTD SVG 1.1//EN" "http://www.w3.org/Graphics/SVG/1.1/DTD/svg11.dtd">
<svg version="1.1" id="Ebene_1" xmlns="http://www.w3.org/2000/svg" xmlns:xlink="http://www.w3.org/1999/xlink" x="0px" y="0px"
	 width="301.988px" height="148.156px" viewBox="0 0 301.988 148.156" style="enable-background:new 0 0 301.988 148.156;"
	 xml:space="preserve">
<g>
	<line style="fill:none;stroke:#000000;stroke-miterlimit:1;" x1="52.663" y1="37.563" x2="48.713" y2="41.842"/>
	<line style="fill:none;stroke:#000000;stroke-miterlimit:1;" x1="48.713" y1="41.842" x2="47.396" y2="47.109"/>
	<line style="fill:none;stroke:#000000;stroke-miterlimit:1;" x1="47.396" y1="47.109" x2="48.384" y2="52.375"/>
	<line style="fill:none;stroke:#000000;stroke-miterlimit:1;" x1="48.384" y1="52.375" x2="50.688" y2="56.325"/>
	<line style="fill:none;stroke:#000000;stroke-miterlimit:1;" x1="50.688" y1="56.325" x2="56.942" y2="62.25"/>
	<line style="fill:none;stroke:#000000;stroke-miterlimit:1;" x1="56.942" y1="62.25" x2="67.803" y2="68.174"/>
	<line style="fill:none;stroke:#000000;stroke-miterlimit:1;" x1="67.803" y1="68.174" x2="86.564" y2="75.086"/>
	<line style="fill:none;stroke:#000000;stroke-miterlimit:1;" x1="86.564" y1="75.086" x2="108.946" y2="79.693"/>
	<line style="fill:none;stroke:#000000;stroke-miterlimit:1;" x1="108.946" y1="79.693" x2="131.328" y2="82.326"/>
	<line style="fill:none;stroke:#000000;stroke-miterlimit:1;" x1="131.328" y1="82.326" x2="138.569" y2="82.984"/>
	<line style="fill:none;stroke:#000000;stroke-miterlimit:1;" x1="138.569" y1="82.984" x2="143.177" y2="83.314"/>
	<line style="fill:none;stroke:#000000;stroke-miterlimit:1;" x1="143.177" y1="83.314" x2="145.481" y2="82.656"/>
	<line style="fill:none;stroke:#000000;stroke-miterlimit:1;" x1="145.481" y1="82.656" x2="146.798" y2="81.34"/>
	<line style="fill:none;stroke:#000000;stroke-miterlimit:1;" x1="146.798" y1="81.34" x2="146.798" y2="79.693"/>
	<line style="fill:none;stroke:#000000;stroke-miterlimit:1;" x1="146.798" y1="79.693" x2="145.152" y2="78.377"/>
	<line style="fill:none;stroke:#000000;stroke-miterlimit:1;" x1="145.152" y1="78.377" x2="136.265" y2="76.732"/>
	<line style="fill:none;stroke:#000000;stroke-miterlimit:1;" x1="136.265" y1="76.732" x2="130.669" y2="74.098"/>
	<line style="fill:none;stroke:#000000;stroke-miterlimit:1;" x1="130.669" y1="74.098" x2="127.378" y2="71.794"/>
	<line style="fill:none;stroke:#000000;stroke-miterlimit:1;" x1="127.378" y1="71.794" x2="119.479" y2="65.211"/>
	<line style="fill:none;stroke:#000000;stroke-miterlimit:1;" x1="119.479" y1="65.211" x2="107.63" y2="54.35"/>
	<line style="fill:none;stroke:#000000;stroke-miterlimit:1;" x1="107.63" y1="54.35" x2="95.781" y2="45.134"/>
	<line style="fill:none;stroke:#000000;stroke-miterlimit:1;" x1="95.781" y1="45.134" x2="84.919" y2="39.209"/>
	<line style="fill:none;stroke:#000000;stroke-miterlimit:1;" x1="84.919" y1="39.209" x2="74.386" y2="34.93"/>
	<line style="fill:none;stroke:#000000;stroke-miterlimit:1;" x1="74.386" y1="34.93" x2="66.487" y2="32.626"/>
	<line style="fill:none;stroke:#000000;stroke-miterlimit:1;" x1="66.487" y1="32.626" x2="59.575" y2="32.297"/>
	<line style="fill:none;stroke:#000000;stroke-miterlimit:1;" x1="59.575" y1="32.297" x2="53.65" y2="33.614"/>
	<line style="fill:none;stroke:#000000;stroke-miterlimit:1;" x1="53.65" y1="33.614" x2="49.042" y2="35.918"/>
	<line style="fill:none;stroke:#000000;stroke-miterlimit:1;" x1="49.042" y1="35.918" x2="45.751" y2="37.893"/>
	<line style="fill:none;stroke:#000000;stroke-miterlimit:1;" x1="45.751" y1="37.893" x2="44.105" y2="39.539"/>
	<line style="fill:none;stroke:#000000;stroke-miterlimit:1;" x1="44.105" y1="39.539" x2="41.801" y2="39.868"/>
	<line style="fill:none;stroke:#000000;stroke-miterlimit:1;" x1="41.801" y1="39.868" x2="39.168" y2="39.209"/>
	<line style="fill:none;stroke:#000000;stroke-miterlimit:1;" x1="39.168" y1="39.209" x2="38.839" y2="36.905"/>
	<line style="fill:none;stroke:#000000;stroke-miterlimit:1;" x1="38.839" y1="36.905" x2="51.675" y2="26.373"/>
	<line style="fill:none;stroke:#000000;stroke-miterlimit:1;" x1="51.675" y1="26.373" x2="54.309" y2="23.411"/>
	<line style="fill:none;stroke:#000000;stroke-miterlimit:1;" x1="54.309" y1="23.411" x2="55.954" y2="19.79"/>
	<line style="fill:none;stroke:#000000;stroke-miterlimit:1;" x1="55.954" y1="19.79" x2="56.283" y2="16.499"/>
	<line style="fill:none;stroke:#000000;stroke-miterlimit:1;" x1="56.283" y1="16.499" x2="55.954" y2="13.536"/>
	<line style="fill:none;stroke:#000000;stroke-miterlimit:1;" x1="52.992" y1="11.232" x2="66.487" y2="17.486"/>
	<line style="fill:none;stroke:#000000;stroke-miterlimit:1;" x1="66.487" y1="17.486" x2="80.64" y2="22.752"/>
	<line style="fill:none;stroke:#000000;stroke-miterlimit:1;" x1="80.64" y1="22.752" x2="93.147" y2="25.385"/>
	<line style="fill:none;stroke:#000000;stroke-miterlimit:1;" x1="93.147" y1="25.385" x2="106.313" y2="26.373"/>
	<line style="fill:none;stroke:#000000;stroke-miterlimit:1;" x1="106.313" y1="26.373" x2="116.188" y2="26.702"/>
	<line style="fill:none;stroke:#000000;stroke-miterlimit:1;" x1="116.188" y1="26.702" x2="123.429" y2="25.714"/>
	<line style="fill:none;stroke:#000000;stroke-miterlimit:1;" x1="123.429" y1="25.714" x2="113.225" y2="24.069"/>
	<line style="fill:none;stroke:#000000;stroke-miterlimit:1;" x1="113.225" y1="24.069" x2="101.705" y2="23.081"/>
	<line style="fill:none;stroke:#000000;stroke-miterlimit:1;" x1="101.705" y1="23.081" x2="88.869" y2="21.106"/>
	<line style="fill:none;stroke:#000000;stroke-miterlimit:1;" x1="88.869" y1="21.106" x2="79.652" y2="18.473"/>
	<line style="fill:none;stroke:#000000;stroke-miterlimit:1;" x1="79.652" y1="18.473" x2="68.461" y2="14.523"/>
	<line style="fill:none;stroke:#000000;stroke-miterlimit:1;" x1="68.461" y1="14.523" x2="59.904" y2="10.903"/>
	<line style="fill:none;stroke:#000000;stroke-miterlimit:1;" x1="59.904" y1="10.903" x2="54.638" y2="7.282"/>
	<line style="fill:none;stroke:#000000;stroke-miterlimit:1;" x1="54.638" y1="7.282" x2="72.412" y2="14.194"/>
	<line style="fill:none;stroke:#000000;stroke-miterlimit:1;" x1="72.412" y1="14.194" x2="83.602" y2="16.169"/>
	<line style="fill:none;stroke:#000000;stroke-miterlimit:1;" x1="83.602" y1="16.169" x2="89.527" y2="17.157"/>
	<line style="fill:none;stroke:#000000;stroke-miterlimit:1;" x1="89.527" y1="17.157" x2="102.034" y2="18.144"/>
	<line style="fill:none;stroke:#000000;stroke-miterlimit:1;" x1="102.034" y1="18.144" x2="113.554" y2="17.486"/>
	<line style="fill:none;stroke:#000000;stroke-miterlimit:1;" x1="113.554" y1="17.486" x2="120.466" y2="16.828"/>
	<line style="fill:none;stroke:#000000;stroke-miterlimit:1;" x1="120.466" y1="16.828" x2="126.062" y2="16.499"/>
	<line style="fill:none;stroke:#000000;stroke-miterlimit:1;" x1="126.062" y1="16.499" x2="113.883" y2="15.511"/>
	<line style="fill:none;stroke:#000000;stroke-miterlimit:1;" x1="113.883" y1="15.511" x2="103.351" y2="14.523"/>
	<line style="fill:none;stroke:#000000;stroke-miterlimit:1;" x1="103.351" y1="14.523" x2="93.147" y2="14.194"/>
	<line style="fill:none;stroke:#000000;stroke-miterlimit:1;" x1="93.147" y1="14.194" x2="84.261" y2="12.878"/>
	<line style="fill:none;stroke:#000000;stroke-miterlimit:1;" x1="84.261" y1="12.878" x2="73.399" y2="10.574"/>
	<line style="fill:none;stroke:#000000;stroke-miterlimit:1;" x1="73.399" y1="10.574" x2="63.524" y2="7.611"/>
	<line style="fill:none;stroke:#000000;stroke-miterlimit:1;" x1="63.524" y1="7.611" x2="56.942" y2="4.649"/>
	<line style="fill:none;stroke:#000000;stroke-miterlimit:1;" x1="56.942" y1="4.649" x2="52.333" y2="1.687"/>
	<line style="fill:none;stroke:#000000;stroke-miterlimit:1;" x1="52.333" y1="1.687" x2="48.713" y2="0.371"/>
	<line style="fill:none;stroke:#000000;stroke-miterlimit:1;" x1="48.713" y1="0.371" x2="45.422" y2="0.042"/>
	<line style="fill:none;stroke:#000000;stroke-miterlimit:1;" x1="45.422" y1="0.042" x2="38.181" y2="1.029"/>
	<line style="fill:none;stroke:#000000;stroke-miterlimit:1;" x1="38.181" y1="1.029" x2="32.585" y2="3.003"/>
	<line style="fill:none;stroke:#000000;stroke-miterlimit:1;" x1="32.585" y1="3.003" x2="30.281" y2="4.649"/>
	<line style="fill:none;stroke:#000000;stroke-miterlimit:1;" x1="30.281" y1="4.649" x2="28.964" y2="6.953"/>
	<line style="fill:none;stroke:#000000;stroke-miterlimit:1;" x1="28.964" y1="6.953" x2="28.635" y2="7.611"/>
	<line style="fill:none;stroke:#000000;stroke-miterlimit:1;" x1="28.635" y1="7.611" x2="28.635" y2="10.245"/>
	<line style="fill:none;stroke:#000000;stroke-miterlimit:1;" x1="28.635" y1="10.245" x2="30.281" y2="12.878"/>
	<line style="fill:none;stroke:#000000;stroke-miterlimit:1;" x1="30.281" y1="12.878" x2="32.256" y2="13.536"/>
	<line style="fill:none;stroke:#000000;stroke-miterlimit:1;" x1="32.256" y1="13.536" x2="34.231" y2="14.194"/>
	<line style="fill:none;stroke:#000000;stroke-miterlimit:1;" x1="34.231" y1="14.194" x2="37.852" y2="15.182"/>
	<line style="fill:none;stroke:#000000;stroke-miterlimit:1;" x1="37.852" y1="15.182" x2="41.801" y2="15.182"/>
	<line style="fill:none;stroke:#000000;stroke-miterlimit:1;" x1="41.801" y1="15.182" x2="44.105" y2="14.194"/>
	<line style="fill:none;stroke:#000000;stroke-miterlimit:1;" x1="44.105" y1="14.194" x2="46.08" y2="13.865"/>
	<line style="fill:none;stroke:#000000;stroke-miterlimit:1;" x1="46.08" y1="13.865" x2="47.067" y2="15.511"/>
	<line style="fill:none;stroke:#000000;stroke-miterlimit:1;" x1="47.067" y1="15.511" x2="47.396" y2="18.473"/>
	<line style="fill:none;stroke:#000000;stroke-miterlimit:1;" x1="47.396" y1="18.473" x2="43.776" y2="22.752"/>
	<line style="fill:none;stroke:#000000;stroke-miterlimit:1;" x1="43.776" y1="22.752" x2="37.852" y2="27.031"/>
	<line style="fill:none;stroke:#000000;stroke-miterlimit:1;" x1="37.852" y1="27.031" x2="32.256" y2="32.297"/>
	<line style="fill:none;stroke:#000000;stroke-miterlimit:1;" x1="32.256" y1="32.297" x2="29.623" y2="35.918"/>
	<line style="fill:none;stroke:#000000;stroke-miterlimit:1;" x1="29.623" y1="35.918" x2="27.648" y2="38.88"/>
	<line style="fill:none;stroke:#000000;stroke-miterlimit:1;" x1="27.648" y1="38.88" x2="26.661" y2="44.146"/>
	<line style="fill:none;stroke:#000000;stroke-miterlimit:1;" x1="26.661" y1="44.146" x2="27.319" y2="47.109"/>
	<line style="fill:none;stroke:#000000;stroke-miterlimit:1;" x1="27.319" y1="47.109" x2="31.269" y2="53.033"/>
	<line style="fill:none;stroke:#000000;stroke-miterlimit:1;" x1="31.269" y1="53.033" x2="41.472" y2="64.224"/>
	<line style="fill:none;stroke:#000000;stroke-miterlimit:1;" x1="41.472" y1="64.224" x2="47.726" y2="69.819"/>
	<line style="fill:none;stroke:#000000;stroke-miterlimit:1;" x1="47.726" y1="69.819" x2="54.967" y2="75.086"/>
	<line style="fill:none;stroke:#000000;stroke-miterlimit:1;" x1="54.967" y1="75.086" x2="65.5" y2="79.693"/>
	<line style="fill:none;stroke:#000000;stroke-miterlimit:1;" x1="65.5" y1="79.693" x2="71.753" y2="88.91"/>
	<line style="fill:none;stroke:#000000;stroke-miterlimit:1;" x1="71.753" y1="88.91" x2="78.336" y2="96.48"/>
	<line style="fill:none;stroke:#000000;stroke-miterlimit:1;" x1="78.336" y1="96.48" x2="82.615" y2="101.088"/>
	<line style="fill:none;stroke:#000000;stroke-miterlimit:1;" x1="82.615" y1="101.088" x2="83.931" y2="104.051"/>
	<line style="fill:none;stroke:#000000;stroke-miterlimit:1;" x1="83.931" y1="104.051" x2="85.906" y2="125.445"/>
	<line style="fill:none;stroke:#000000;stroke-miterlimit:1;" x1="85.906" y1="125.445" x2="85.906" y2="139.27"/>
	<line style="fill:none;stroke:#000000;stroke-miterlimit:1;" x1="85.906" y1="139.27" x2="85.248" y2="141.572"/>
	<line style="fill:none;stroke:#000000;stroke-miterlimit:1;" x1="85.248" y1="141.572" x2="82.944" y2="142.23"/>
	<line style="fill:none;stroke:#000000;stroke-miterlimit:1;" x1="82.944" y1="142.23" x2="68.791" y2="144.205"/>
	<line style="fill:none;stroke:#000000;stroke-miterlimit:1;" x1="68.791" y1="144.205" x2="67.803" y2="144.535"/>
	<line style="fill:none;stroke:#000000;stroke-miterlimit:1;" x1="67.803" y1="144.535" x2="65.829" y2="144.863"/>
	<line style="fill:none;stroke:#000000;stroke-miterlimit:1;" x1="65.829" y1="144.863" x2="64.841" y2="146.182"/>
	<line style="fill:none;stroke:#000000;stroke-miterlimit:1;" x1="64.841" y1="146.182" x2="64.841" y2="148.156"/>
	<line style="fill:none;stroke:#000000;stroke-miterlimit:1;" x1="64.841" y1="148.156" x2="66.816" y2="147.168"/>
	<line style="fill:none;stroke:#000000;stroke-miterlimit:1;" x1="66.816" y1="147.168" x2="69.12" y2="147.826"/>
	<line style="fill:none;stroke:#000000;stroke-miterlimit:1;" x1="78.665" y1="144.205" x2="70.437" y2="145.521"/>
	<line style="fill:none;stroke:#000000;stroke-miterlimit:1;" x1="70.437" y1="145.521" x2="69.12" y2="146.51"/>
	<line style="fill:none;stroke:#000000;stroke-miterlimit:1;" x1="69.12" y1="146.51" x2="69.449" y2="148.156"/>
	<line style="fill:none;stroke:#000000;stroke-miterlimit:1;" x1="69.449" y1="148.156" x2="72.082" y2="146.84"/>
	<line style="fill:none;stroke:#000000;stroke-miterlimit:1;" x1="72.082" y1="146.84" x2="74.057" y2="148.156"/>
	<line style="fill:none;stroke:#000000;stroke-miterlimit:1;" x1="74.057" y1="148.156" x2="87.223" y2="146.51"/>
	<line style="fill:none;stroke:#000000;stroke-miterlimit:1;" x1="87.223" y1="146.51" x2="97.426" y2="148.156"/>
	<line style="fill:none;stroke:#000000;stroke-miterlimit:1;" x1="97.426" y1="148.156" x2="97.755" y2="146.51"/>
	<line style="fill:none;stroke:#000000;stroke-miterlimit:1;" x1="97.755" y1="146.51" x2="97.097" y2="144.863"/>
	<line style="fill:none;stroke:#000000;stroke-miterlimit:1;" x1="97.097" y1="144.863" x2="94.464" y2="144.205"/>
	<line style="fill:none;stroke:#000000;stroke-miterlimit:1;" x1="94.464" y1="144.205" x2="91.501" y2="143.219"/>
	<line style="fill:none;stroke:#000000;stroke-miterlimit:1;" x1="91.501" y1="143.219" x2="90.514" y2="142.889"/>
	<line style="fill:none;stroke:#000000;stroke-miterlimit:1;" x1="90.514" y1="142.889" x2="89.527" y2="140.914"/>
	<line style="fill:none;stroke:#000000;stroke-miterlimit:1;" x1="89.527" y1="140.914" x2="89.198" y2="107.014"/>
	<line style="fill:none;stroke:#000000;stroke-miterlimit:1;" x1="89.198" y1="107.014" x2="89.856" y2="103.062"/>
	<line style="fill:none;stroke:#000000;stroke-miterlimit:1;" x1="89.856" y1="103.062" x2="89.856" y2="101.746"/>
	<line style="fill:none;stroke:#000000;stroke-miterlimit:1;" x1="89.856" y1="101.746" x2="87.552" y2="97.467"/>
	<line style="fill:none;stroke:#000000;stroke-miterlimit:1;" x1="87.552" y1="97.467" x2="85.248" y2="93.518"/>
	<line style="fill:none;stroke:#000000;stroke-miterlimit:1;" x1="85.248" y1="93.518" x2="77.678" y2="81.34"/>
	<line style="fill:none;stroke:#000000;stroke-miterlimit:1;" x1="80.64" y1="84.961" x2="92.489" y2="86.277"/>
	<line style="fill:none;stroke:#000000;stroke-miterlimit:1;" x1="92.489" y1="86.277" x2="102.363" y2="85.947"/>
	<line style="fill:none;stroke:#000000;stroke-miterlimit:1;" x1="102.363" y1="85.947" x2="114.871" y2="84.631"/>
	<line style="fill:none;stroke:#000000;stroke-miterlimit:1;" x1="114.871" y1="84.631" x2="121.125" y2="90.227"/>
	<line style="fill:none;stroke:#000000;stroke-miterlimit:1;" x1="121.125" y1="90.227" x2="128.695" y2="97.139"/>
	<line style="fill:none;stroke:#000000;stroke-miterlimit:1;" x1="128.695" y1="97.139" x2="132.315" y2="97.467"/>
	<line style="fill:none;stroke:#000000;stroke-miterlimit:1;" x1="132.315" y1="97.467" x2="135.936" y2="96.48"/>
	<line style="fill:none;stroke:#000000;stroke-miterlimit:1;" x1="135.936" y1="96.48" x2="139.886" y2="93.189"/>
	<line style="fill:none;stroke:#000000;stroke-miterlimit:1;" x1="139.886" y1="93.189" x2="140.544" y2="90.555"/>
	<line style="fill:none;stroke:#000000;stroke-miterlimit:1;" x1="140.544" y1="90.555" x2="132.645" y2="82.326"/>
	<line style="fill:none;stroke:#000000;stroke-miterlimit:1;" x1="28.635" y1="7.282" x2="0" y2="24.727"/>
	<line style="fill:none;stroke:#000000;stroke-miterlimit:1;" x1="0" y1="24.727" x2="32.914" y2="13.865"/>
	<line style="fill:none;stroke:#000000;stroke-miterlimit:1;" x1="28.964" y1="11.89" x2="0" y2="24.727"/>
	<line style="fill:none;stroke:#000000;stroke-miterlimit:1;" x1="35.218" y1="6.624" x2="33.573" y2="7.611"/>
	<line style="fill:none;stroke:#000000;stroke-miterlimit:1;" x1="33.573" y1="7.611" x2="34.56" y2="9.257"/>
	<line style="fill:none;stroke:#000000;stroke-miterlimit:1;" x1="34.56" y1="9.257" x2="36.206" y2="8.599"/>
	<line style="fill:none;stroke:#000000;stroke-miterlimit:1;" x1="36.206" y1="8.599" x2="35.547" y2="7.282"/>
	<line style="fill:none;stroke:#000000;stroke-miterlimit:1;" x1="98.414" y1="145.193" x2="101.047" y2="145.852"/>
	<line style="fill:none;stroke:#000000;stroke-miterlimit:1;" x1="101.047" y1="145.852" x2="102.363" y2="146.84"/>
	<line style="fill:none;stroke:#000000;stroke-miterlimit:1;" x1="102.363" y1="146.84" x2="102.692" y2="147.498"/>
	<line style="fill:none;stroke:#000000;stroke-miterlimit:1;" x1="102.692" y1="147.498" x2="101.047" y2="148.156"/>
	<line style="fill:none;stroke:#000000;stroke-miterlimit:1;" x1="101.047" y1="148.156" x2="98.743" y2="147.826"/>
	<line style="fill:none;stroke:#000000;stroke-miterlimit:1;" x1="49.042" y1="71.136" x2="55.954" y2="84.303"/>
	<line style="fill:none;stroke:#000000;stroke-miterlimit:1;" x1="55.954" y1="84.303" x2="63.854" y2="96.15"/>
	<line style="fill:none;stroke:#000000;stroke-miterlimit:1;" x1="63.854" y1="96.15" x2="64.512" y2="99.113"/>
	<line style="fill:none;stroke:#000000;stroke-miterlimit:1;" x1="64.512" y1="99.113" x2="43.118" y2="137.623"/>
	<line style="fill:none;stroke:#000000;stroke-miterlimit:1;" x1="43.118" y1="137.623" x2="42.13" y2="139.27"/>
	<line style="fill:none;stroke:#000000;stroke-miterlimit:1;" x1="42.13" y1="139.27" x2="41.143" y2="140.914"/>
	<line style="fill:none;stroke:#000000;stroke-miterlimit:1;" x1="41.143" y1="140.914" x2="38.839" y2="141.572"/>
	<line style="fill:none;stroke:#000000;stroke-miterlimit:1;" x1="38.839" y1="141.572" x2="30.939" y2="142.889"/>
	<line style="fill:none;stroke:#000000;stroke-miterlimit:1;" x1="30.939" y1="142.889" x2="25.673" y2="143.877"/>
	<line style="fill:none;stroke:#000000;stroke-miterlimit:1;" x1="25.673" y1="143.877" x2="23.698" y2="144.863"/>
	<line style="fill:none;stroke:#000000;stroke-miterlimit:1;" x1="23.698" y1="144.863" x2="22.382" y2="145.193"/>
	<line style="fill:none;stroke:#000000;stroke-miterlimit:1;" x1="22.382" y1="145.193" x2="20.407" y2="145.521"/>
	<line style="fill:none;stroke:#000000;stroke-miterlimit:1;" x1="20.407" y1="145.521" x2="19.749" y2="146.182"/>
	<line style="fill:none;stroke:#000000;stroke-miterlimit:1;" x1="19.749" y1="146.182" x2="19.09" y2="147.826"/>
	<line style="fill:none;stroke:#000000;stroke-miterlimit:1;" x1="19.09" y1="147.826" x2="21.065" y2="146.84"/>
	<line style="fill:none;stroke:#000000;stroke-miterlimit:1;" x1="21.065" y1="146.84" x2="23.369" y2="147.826"/>
	<line style="fill:none;stroke:#000000;stroke-miterlimit:1;" x1="26.99" y1="145.852" x2="25.673" y2="145.852"/>
	<line style="fill:none;stroke:#000000;stroke-miterlimit:1;" x1="25.673" y1="145.852" x2="24.027" y2="146.182"/>
	<line style="fill:none;stroke:#000000;stroke-miterlimit:1;" x1="24.027" y1="146.182" x2="23.369" y2="147.498"/>
	<line style="fill:none;stroke:#000000;stroke-miterlimit:1;" x1="23.369" y1="147.498" x2="24.027" y2="147.826"/>
	<line style="fill:none;stroke:#000000;stroke-miterlimit:1;" x1="24.027" y1="147.826" x2="26.002" y2="147.168"/>
	<line style="fill:none;stroke:#000000;stroke-miterlimit:1;" x1="27.319" y1="145.521" x2="29.623" y2="144.863"/>
	<line style="fill:none;stroke:#000000;stroke-miterlimit:1;" x1="29.623" y1="144.863" x2="34.889" y2="144.535"/>
	<line style="fill:none;stroke:#000000;stroke-miterlimit:1;" x1="26.332" y1="147.168" x2="28.964" y2="148.156"/>
	<line style="fill:none;stroke:#000000;stroke-miterlimit:1;" x1="28.964" y1="148.156" x2="41.143" y2="146.84"/>
	<line style="fill:none;stroke:#000000;stroke-miterlimit:1;" x1="41.143" y1="146.84" x2="43.118" y2="146.51"/>
	<line style="fill:none;stroke:#000000;stroke-miterlimit:1;" x1="43.118" y1="146.51" x2="52.992" y2="148.156"/>
	<line style="fill:none;stroke:#000000;stroke-miterlimit:1;" x1="52.992" y1="148.156" x2="53.321" y2="146.51"/>
	<line style="fill:none;stroke:#000000;stroke-miterlimit:1;" x1="53.321" y1="146.51" x2="52.992" y2="144.863"/>
	<line style="fill:none;stroke:#000000;stroke-miterlimit:1;" x1="52.992" y1="144.863" x2="50.03" y2="144.205"/>
	<line style="fill:none;stroke:#000000;stroke-miterlimit:1;" x1="50.03" y1="144.205" x2="46.08" y2="142.889"/>
	<line style="fill:none;stroke:#000000;stroke-miterlimit:1;" x1="45.751" y1="142.561" x2="45.422" y2="140.914"/>
	<line style="fill:none;stroke:#000000;stroke-miterlimit:1;" x1="45.422" y1="140.914" x2="65.829" y2="107.014"/>
	<line style="fill:none;stroke:#000000;stroke-miterlimit:1;" x1="65.829" y1="107.014" x2="70.766" y2="98.125"/>
	<line style="fill:none;stroke:#000000;stroke-miterlimit:1;" x1="70.766" y1="98.125" x2="70.766" y2="95.164"/>
	<line style="fill:none;stroke:#000000;stroke-miterlimit:1;" x1="70.766" y1="95.164" x2="67.145" y2="82.656"/>
	<line style="fill:none;stroke:#000000;stroke-miterlimit:1;" x1="53.979" y1="145.193" x2="56.283" y2="145.852"/>
	<line style="fill:none;stroke:#000000;stroke-miterlimit:1;" x1="56.283" y1="145.852" x2="57.6" y2="146.84"/>
	<line style="fill:none;stroke:#000000;stroke-miterlimit:1;" x1="57.6" y1="146.84" x2="57.929" y2="147.498"/>
	<line style="fill:none;stroke:#000000;stroke-miterlimit:1;" x1="57.929" y1="147.498" x2="56.283" y2="148.156"/>
	<line style="fill:none;stroke:#000000;stroke-miterlimit:1;" x1="56.283" y1="148.156" x2="53.979" y2="147.826"/>
	<line style="fill:none;stroke:#000000;stroke-miterlimit:1;" x1="190.865" y1="62.099" x2="227.23" y2="27.133"/>
	<line style="fill:none;stroke:#000000;stroke-miterlimit:1;" x1="177.719" y1="57.064" x2="222.475" y2="14.266"/>
	<line style="fill:none;stroke:#000000;stroke-miterlimit:1;" x1="169.047" y1="47.833" x2="213.803" y2="5.035"/>
	<line style="fill:none;stroke:#000000;stroke-miterlimit:1;" x1="164.572" y1="34.686" x2="200.377" y2="0.56"/>
	<line style="fill:none;stroke:#000000;stroke-miterlimit:1;" x1="209.047" y1="2.518" x2="205.971" y2="1.678"/>
	<line style="fill:none;stroke:#000000;stroke-miterlimit:1;" x1="205.971" y1="1.678" x2="202.895" y2="0.56"/>
	<line style="fill:none;stroke:#000000;stroke-miterlimit:1;" x1="202.895" y1="0.56" x2="199.537" y2="0"/>
	<line style="fill:none;stroke:#000000;stroke-miterlimit:1;" x1="199.537" y1="0" x2="196.18" y2="0"/>
	<line style="fill:none;stroke:#000000;stroke-miterlimit:1;" x1="196.18" y1="0" x2="192.543" y2="0.28"/>
	<line style="fill:none;stroke:#000000;stroke-miterlimit:1;" x1="192.543" y1="0.28" x2="189.467" y2="0.56"/>
	<line style="fill:none;stroke:#000000;stroke-miterlimit:1;" x1="189.467" y1="0.56" x2="186.109" y2="1.678"/>
	<line style="fill:none;stroke:#000000;stroke-miterlimit:1;" x1="186.109" y1="1.678" x2="183.033" y2="2.797"/>
	<line style="fill:none;stroke:#000000;stroke-miterlimit:1;" x1="183.033" y1="2.797" x2="179.957" y2="4.196"/>
	<line style="fill:none;stroke:#000000;stroke-miterlimit:1;" x1="179.957" y1="4.196" x2="177.158" y2="6.154"/>
	<line style="fill:none;stroke:#000000;stroke-miterlimit:1;" x1="177.158" y1="6.154" x2="174.922" y2="8.112"/>
	<line style="fill:none;stroke:#000000;stroke-miterlimit:1;" x1="174.922" y1="8.112" x2="172.684" y2="10.35"/>
	<line style="fill:none;stroke:#000000;stroke-miterlimit:1;" x1="172.684" y1="10.35" x2="171.006" y2="12.308"/>
	<line style="fill:none;stroke:#000000;stroke-miterlimit:1;" x1="171.006" y1="12.308" x2="169.326" y2="14.826"/>
	<line style="fill:none;stroke:#000000;stroke-miterlimit:1;" x1="169.326" y1="14.826" x2="167.369" y2="18.462"/>
	<line style="fill:none;stroke:#000000;stroke-miterlimit:1;" x1="167.369" y1="18.462" x2="166.529" y2="21.259"/>
	<line style="fill:none;stroke:#000000;stroke-miterlimit:1;" x1="166.529" y1="21.259" x2="165.689" y2="24.336"/>
	<line style="fill:none;stroke:#000000;stroke-miterlimit:1;" x1="165.689" y1="24.336" x2="165.131" y2="27.413"/>
	<line style="fill:none;stroke:#000000;stroke-miterlimit:1;" x1="165.131" y1="27.413" x2="164.572" y2="31.05"/>
	<line style="fill:none;stroke:#000000;stroke-miterlimit:1;" x1="164.572" y1="31.05" x2="164.572" y2="34.126"/>
	<line style="fill:none;stroke:#000000;stroke-miterlimit:1;" x1="164.572" y1="34.126" x2="165.131" y2="37.763"/>
	<line style="fill:none;stroke:#000000;stroke-miterlimit:1;" x1="165.131" y1="37.763" x2="165.971" y2="40.84"/>
	<line style="fill:none;stroke:#000000;stroke-miterlimit:1;" x1="165.971" y1="40.84" x2="166.809" y2="43.637"/>
	<line style="fill:none;stroke:#000000;stroke-miterlimit:1;" x1="166.809" y1="43.637" x2="168.207" y2="46.714"/>
	<line style="fill:none;stroke:#000000;stroke-miterlimit:1;" x1="168.207" y1="46.714" x2="169.047" y2="48.393"/>
	<line style="fill:none;stroke:#000000;stroke-miterlimit:1;" x1="169.047" y1="48.393" x2="170.166" y2="49.791"/>
	<line style="fill:none;stroke:#000000;stroke-miterlimit:1;" x1="170.166" y1="49.791" x2="172.963" y2="52.868"/>
	<line style="fill:none;stroke:#000000;stroke-miterlimit:1;" x1="172.963" y1="52.868" x2="175.76" y2="55.666"/>
	<line style="fill:none;stroke:#000000;stroke-miterlimit:1;" x1="175.76" y1="55.666" x2="178.277" y2="57.624"/>
	<line style="fill:none;stroke:#000000;stroke-miterlimit:1;" x1="178.277" y1="57.624" x2="181.355" y2="59.302"/>
	<line style="fill:none;stroke:#000000;stroke-miterlimit:1;" x1="181.355" y1="59.302" x2="184.711" y2="60.98"/>
	<line style="fill:none;stroke:#000000;stroke-miterlimit:1;" x1="184.711" y1="60.98" x2="188.068" y2="61.819"/>
	<line style="fill:none;stroke:#000000;stroke-miterlimit:1;" x1="188.068" y1="61.819" x2="190.865" y2="62.659"/>
	<line style="fill:none;stroke:#000000;stroke-miterlimit:1;" x1="190.865" y1="62.659" x2="194.223" y2="62.659"/>
	<line style="fill:none;stroke:#000000;stroke-miterlimit:1;" x1="194.223" y1="62.659" x2="197.578" y2="62.938"/>
	<line style="fill:none;stroke:#000000;stroke-miterlimit:1;" x1="197.578" y1="62.938" x2="201.494" y2="62.379"/>
	<line style="fill:none;stroke:#000000;stroke-miterlimit:1;" x1="201.494" y1="62.379" x2="204.293" y2="61.819"/>
	<line style="fill:none;stroke:#000000;stroke-miterlimit:1;" x1="204.293" y1="61.819" x2="207.648" y2="60.421"/>
	<line style="fill:none;stroke:#000000;stroke-miterlimit:1;" x1="207.648" y1="60.421" x2="211.006" y2="58.742"/>
	<line style="fill:none;stroke:#000000;stroke-miterlimit:1;" x1="211.006" y1="58.742" x2="213.244" y2="57.624"/>
	<line style="fill:none;stroke:#000000;stroke-miterlimit:1;" x1="213.244" y1="57.624" x2="215.762" y2="55.386"/>
	<line style="fill:none;stroke:#000000;stroke-miterlimit:1;" x1="215.762" y1="55.386" x2="218.279" y2="53.148"/>
	<line style="fill:none;stroke:#000000;stroke-miterlimit:1;" x1="218.279" y1="53.148" x2="220.797" y2="50.63"/>
	<line style="fill:none;stroke:#000000;stroke-miterlimit:1;" x1="220.797" y1="50.63" x2="222.754" y2="47.553"/>
	<line style="fill:none;stroke:#000000;stroke-miterlimit:1;" x1="222.754" y1="47.553" x2="224.713" y2="44.756"/>
	<line style="fill:none;stroke:#000000;stroke-miterlimit:1;" x1="224.713" y1="44.756" x2="226.111" y2="41.959"/>
	<line style="fill:none;stroke:#000000;stroke-miterlimit:1;" x1="226.111" y1="41.959" x2="226.949" y2="38.602"/>
	<line style="fill:none;stroke:#000000;stroke-miterlimit:1;" x1="226.949" y1="38.602" x2="227.23" y2="35.525"/>
	<line style="fill:none;stroke:#000000;stroke-miterlimit:1;" x1="227.23" y1="35.525" x2="227.789" y2="31.889"/>
	<line style="fill:none;stroke:#000000;stroke-miterlimit:1;" x1="227.789" y1="31.889" x2="227.51" y2="28.812"/>
	<line style="fill:none;stroke:#000000;stroke-miterlimit:1;" x1="227.51" y1="28.812" x2="227.23" y2="25.175"/>
	<line style="fill:none;stroke:#000000;stroke-miterlimit:1;" x1="227.23" y1="25.175" x2="226.391" y2="22.098"/>
	<line style="fill:none;stroke:#000000;stroke-miterlimit:1;" x1="226.391" y1="22.098" x2="225.271" y2="19.301"/>
	<line style="fill:none;stroke:#000000;stroke-miterlimit:1;" x1="225.271" y1="19.301" x2="223.873" y2="15.665"/>
	<line style="fill:none;stroke:#000000;stroke-miterlimit:1;" x1="223.873" y1="15.665" x2="221.914" y2="12.868"/>
	<line style="fill:none;stroke:#000000;stroke-miterlimit:1;" x1="221.914" y1="12.868" x2="219.957" y2="10.63"/>
	<line style="fill:none;stroke:#000000;stroke-miterlimit:1;" x1="219.957" y1="10.63" x2="217.719" y2="7.833"/>
	<line style="fill:none;stroke:#000000;stroke-miterlimit:1;" x1="217.719" y1="7.833" x2="214.922" y2="5.875"/>
	<line style="fill:none;stroke:#000000;stroke-miterlimit:1;" x1="214.922" y1="5.875" x2="212.125" y2="3.917"/>
	<line style="fill:none;stroke:#000000;stroke-miterlimit:1;" x1="212.125" y1="3.917" x2="209.047" y2="2.518"/>
	<line style="fill:none;stroke:#000000;stroke-miterlimit:1;" x1="174.857" y1="88.088" x2="174.857" y2="147.332"/>
	<line style="fill:none;stroke:#000000;stroke-miterlimit:1;" x1="174.857" y1="147.332" x2="185.391" y2="147.332"/>
	<line style="fill:none;stroke:#000000;stroke-miterlimit:1;" x1="185.391" y1="147.332" x2="185.391" y2="88.088"/>
	<line style="fill:none;stroke:#000000;stroke-miterlimit:1;" x1="185.391" y1="88.088" x2="174.857" y2="88.088"/>
	<line style="fill:none;stroke:#000000;stroke-miterlimit:1;" x1="227.52" y1="88.088" x2="227.52" y2="147.332"/>
	<line style="fill:none;stroke:#000000;stroke-miterlimit:1;" x1="227.52" y1="147.332" x2="238.381" y2="147.332"/>
	<line style="fill:none;stroke:#000000;stroke-miterlimit:1;" x1="238.381" y1="147.332" x2="238.381" y2="88.088"/>
	<line style="fill:none;stroke:#000000;stroke-miterlimit:1;" x1="238.381" y1="88.088" x2="227.52" y2="88.088"/>
	<line style="fill:none;stroke:#000000;stroke-miterlimit:1;" x1="280.842" y1="88.088" x2="280.842" y2="147.332"/>
	<line style="fill:none;stroke:#000000;stroke-miterlimit:1;" x1="280.842" y1="147.332" x2="291.373" y2="147.332"/>
	<line style="fill:none;stroke:#000000;stroke-miterlimit:1;" x1="291.373" y1="147.332" x2="291.373" y2="88.088"/>
	<line style="fill:none;stroke:#000000;stroke-miterlimit:1;" x1="291.373" y1="88.088" x2="280.842" y2="88.088"/>
	<line style="fill:none;stroke:#000000;stroke-miterlimit:1;" x1="272.695" y1="5.925" x2="269.404" y2="5.925"/>
	<line style="fill:none;stroke:#000000;stroke-miterlimit:1;" x1="269.404" y1="5.925" x2="264.467" y2="6.912"/>
	<line style="fill:none;stroke:#000000;stroke-miterlimit:1;" x1="264.467" y1="6.912" x2="259.857" y2="7.899"/>
	<line style="fill:none;stroke:#000000;stroke-miterlimit:1;" x1="259.857" y1="7.899" x2="256.896" y2="9.216"/>
	<line style="fill:none;stroke:#000000;stroke-miterlimit:1;" x1="256.896" y1="9.216" x2="253.934" y2="11.191"/>
	<line style="fill:none;stroke:#000000;stroke-miterlimit:1;" x1="253.934" y1="11.191" x2="250.971" y2="13.166"/>
	<line style="fill:none;stroke:#000000;stroke-miterlimit:1;" x1="250.971" y1="13.166" x2="248.01" y2="16.458"/>
	<line style="fill:none;stroke:#000000;stroke-miterlimit:1;" x1="248.01" y1="16.458" x2="245.705" y2="20.078"/>
	<line style="fill:none;stroke:#000000;stroke-miterlimit:1;" x1="245.705" y1="20.078" x2="244.059" y2="24.027"/>
	<line style="fill:none;stroke:#000000;stroke-miterlimit:1;" x1="244.059" y1="24.027" x2="243.072" y2="28.965"/>
	<line style="fill:none;stroke:#000000;stroke-miterlimit:1;" x1="243.072" y1="28.965" x2="242.742" y2="34.231"/>
	<line style="fill:none;stroke:#000000;stroke-miterlimit:1;" x1="242.742" y1="34.231" x2="243.072" y2="37.852"/>
	<line style="fill:none;stroke:#000000;stroke-miterlimit:1;" x1="243.072" y1="37.852" x2="244.389" y2="42.459"/>
	<line style="fill:none;stroke:#000000;stroke-miterlimit:1;" x1="244.389" y1="42.459" x2="246.363" y2="47.067"/>
	<line style="fill:none;stroke:#000000;stroke-miterlimit:1;" x1="246.363" y1="47.067" x2="248.996" y2="51.346"/>
	<line style="fill:none;stroke:#000000;stroke-miterlimit:1;" x1="248.996" y1="51.346" x2="252.617" y2="54.638"/>
	<line style="fill:none;stroke:#000000;stroke-miterlimit:1;" x1="252.617" y1="54.638" x2="255.58" y2="56.284"/>
	<line style="fill:none;stroke:#000000;stroke-miterlimit:1;" x1="255.58" y1="56.284" x2="258.871" y2="57.929"/>
	<line style="fill:none;stroke:#000000;stroke-miterlimit:1;" x1="258.871" y1="57.929" x2="261.834" y2="58.917"/>
	<line style="fill:none;stroke:#000000;stroke-miterlimit:1;" x1="261.834" y1="58.917" x2="265.125" y2="59.246"/>
	<line style="fill:none;stroke:#000000;stroke-miterlimit:1;" x1="265.125" y1="59.246" x2="272.365" y2="59.904"/>
	<line style="fill:none;stroke:#000000;stroke-miterlimit:1;" x1="272.365" y1="59.904" x2="276.975" y2="59.575"/>
	<line style="fill:none;stroke:#000000;stroke-miterlimit:1;" x1="276.975" y1="59.575" x2="281.582" y2="58.917"/>
	<line style="fill:none;stroke:#000000;stroke-miterlimit:1;" x1="281.582" y1="58.917" x2="285.531" y2="57.929"/>
	<line style="fill:none;stroke:#000000;stroke-miterlimit:1;" x1="285.531" y1="57.929" x2="288.164" y2="56.942"/>
	<line style="fill:none;stroke:#000000;stroke-miterlimit:1;" x1="288.164" y1="56.942" x2="290.469" y2="55.296"/>
	<line style="fill:none;stroke:#000000;stroke-miterlimit:1;" x1="290.469" y1="55.296" x2="292.443" y2="53.979"/>
	<line style="fill:none;stroke:#000000;stroke-miterlimit:1;" x1="292.443" y1="53.979" x2="294.748" y2="52.005"/>
	<line style="fill:none;stroke:#000000;stroke-miterlimit:1;" x1="294.748" y1="52.005" x2="296.723" y2="49.372"/>
	<line style="fill:none;stroke:#000000;stroke-miterlimit:1;" x1="296.723" y1="49.372" x2="298.697" y2="46.409"/>
	<line style="fill:none;stroke:#000000;stroke-miterlimit:1;" x1="298.697" y1="46.409" x2="299.355" y2="44.435"/>
	<line style="fill:none;stroke:#000000;stroke-miterlimit:1;" x1="299.355" y1="44.435" x2="300.344" y2="42.459"/>
	<line style="fill:none;stroke:#000000;stroke-miterlimit:1;" x1="300.344" y1="42.459" x2="301.002" y2="40.156"/>
	<line style="fill:none;stroke:#000000;stroke-miterlimit:1;" x1="301.002" y1="40.156" x2="301.33" y2="37.522"/>
	<line style="fill:none;stroke:#000000;stroke-miterlimit:1;" x1="301.33" y1="37.522" x2="301.988" y2="33.573"/>
	<line style="fill:none;stroke:#000000;stroke-miterlimit:1;" x1="301.988" y1="33.573" x2="301.66" y2="30.61"/>
	<line style="fill:none;stroke:#000000;stroke-miterlimit:1;" x1="301.66" y1="30.61" x2="301.33" y2="27.319"/>
	<line style="fill:none;stroke:#000000;stroke-miterlimit:1;" x1="301.33" y1="27.319" x2="300.014" y2="23.369"/>
	<line style="fill:none;stroke:#000000;stroke-miterlimit:1;" x1="300.014" y1="23.369" x2="298.367" y2="19.09"/>
	<line style="fill:none;stroke:#000000;stroke-miterlimit:1;" x1="298.367" y1="19.09" x2="296.064" y2="16.458"/>
	<line style="fill:none;stroke:#000000;stroke-miterlimit:1;" x1="296.064" y1="16.458" x2="292.773" y2="13.166"/>
	<line style="fill:none;stroke:#000000;stroke-miterlimit:1;" x1="292.773" y1="13.166" x2="290.139" y2="11.191"/>
	<line style="fill:none;stroke:#000000;stroke-miterlimit:1;" x1="290.139" y1="11.191" x2="287.506" y2="9.216"/>
	<line style="fill:none;stroke:#000000;stroke-miterlimit:1;" x1="287.506" y1="9.216" x2="282.24" y2="7.241"/>
	<line style="fill:none;stroke:#000000;stroke-miterlimit:1;" x1="282.24" y1="7.241" x2="277.633" y2="6.254"/>
	<line style="fill:none;stroke:#000000;stroke-miterlimit:1;" x1="277.633" y1="6.254" x2="273.023" y2="5.925"/>
	<line style="fill:none;stroke:#000000;stroke-miterlimit:1;" x1="258.541" y1="8.558" x2="255.908" y2="8.558"/>
	<line style="fill:none;stroke:#000000;stroke-miterlimit:1;" x1="255.908" y1="8.558" x2="254.922" y2="7.57"/>
	<line style="fill:none;stroke:#000000;stroke-miterlimit:1;" x1="254.922" y1="7.57" x2="254.264" y2="6.583"/>
	<line style="fill:none;stroke:#000000;stroke-miterlimit:1;" x1="254.264" y1="6.583" x2="253.934" y2="4.608"/>
	<line style="fill:none;stroke:#000000;stroke-miterlimit:1;" x1="253.934" y1="4.608" x2="254.264" y2="2.633"/>
	<line style="fill:none;stroke:#000000;stroke-miterlimit:1;" x1="254.264" y1="2.633" x2="255.25" y2="1.317"/>
	<line style="fill:none;stroke:#000000;stroke-miterlimit:1;" x1="255.25" y1="1.317" x2="256.896" y2="0.658"/>
	<line style="fill:none;stroke:#000000;stroke-miterlimit:1;" x1="256.896" y1="0.658" x2="287.836" y2="0.658"/>
	<line style="fill:none;stroke:#000000;stroke-miterlimit:1;" x1="287.836" y1="0.658" x2="289.152" y2="1.317"/>
	<line style="fill:none;stroke:#000000;stroke-miterlimit:1;" x1="289.152" y1="1.317" x2="290.139" y2="2.633"/>
	<line style="fill:none;stroke:#000000;stroke-miterlimit:1;" x1="290.139" y1="2.633" x2="290.469" y2="4.279"/>
	<line style="fill:none;stroke:#000000;stroke-miterlimit:1;" x1="290.469" y1="4.279" x2="290.469" y2="5.267"/>
	<line style="fill:none;stroke:#000000;stroke-miterlimit:1;" x1="290.469" y1="5.267" x2="290.139" y2="6.583"/>
	<line style="fill:none;stroke:#000000;stroke-miterlimit:1;" x1="290.139" y1="6.583" x2="289.48" y2="7.57"/>
	<line style="fill:none;stroke:#000000;stroke-miterlimit:1;" x1="289.48" y1="7.57" x2="288.164" y2="8.558"/>
	<line style="fill:none;stroke:#000000;stroke-miterlimit:1;" x1="288.164" y1="8.558" x2="285.531" y2="8.558"/>
</g>
</svg>
