<?xml version="1.0" encoding="iso-8859-1"?>
<!-- Generator: Adobe Illustrator 16.0.1, SVG Export Plug-In . SVG Version: 6.00 Build 0)  -->
<!DOCTYPE svg PUBLIC "-//W3C//DTD SVG 1.1//EN" "http://www.w3.org/Graphics/SVG/1.1/DTD/svg11.dtd">
<svg version="1.1" id="Ebene_1" xmlns="http://www.w3.org/2000/svg" xmlns:xlink="http://www.w3.org/1999/xlink" x="0px" y="0px"
	 width="226.492px" height="148.484px" viewBox="0 0 226.492 148.484" style="enable-background:new 0 0 226.492 148.484;"
	 xml:space="preserve">
<g>
	<line style="fill:none;stroke:#000000;stroke-miterlimit:1;" x1="62.917" y1="104.529" x2="60.237" y2="104.529"/>
	<line style="fill:none;stroke:#000000;stroke-miterlimit:1;" x1="60.237" y1="104.529" x2="56.217" y2="105.334"/>
	<line style="fill:none;stroke:#000000;stroke-miterlimit:1;" x1="56.217" y1="105.334" x2="52.465" y2="106.138"/>
	<line style="fill:none;stroke:#000000;stroke-miterlimit:1;" x1="52.465" y1="106.138" x2="50.053" y2="107.21"/>
	<line style="fill:none;stroke:#000000;stroke-miterlimit:1;" x1="50.053" y1="107.21" x2="47.64" y2="108.817"/>
	<line style="fill:none;stroke:#000000;stroke-miterlimit:1;" x1="47.64" y1="108.817" x2="45.228" y2="110.426"/>
	<line style="fill:none;stroke:#000000;stroke-miterlimit:1;" x1="45.228" y1="110.426" x2="42.816" y2="113.106"/>
	<line style="fill:none;stroke:#000000;stroke-miterlimit:1;" x1="42.816" y1="113.106" x2="40.94" y2="116.055"/>
	<line style="fill:none;stroke:#000000;stroke-miterlimit:1;" x1="40.94" y1="116.055" x2="39.6" y2="119.271"/>
	<line style="fill:none;stroke:#000000;stroke-miterlimit:1;" x1="39.6" y1="119.271" x2="38.796" y2="123.291"/>
	<line style="fill:none;stroke:#000000;stroke-miterlimit:1;" x1="38.796" y1="123.291" x2="38.528" y2="127.579"/>
	<line style="fill:none;stroke:#000000;stroke-miterlimit:1;" x1="38.528" y1="127.579" x2="38.796" y2="130.527"/>
	<line style="fill:none;stroke:#000000;stroke-miterlimit:1;" x1="38.796" y1="130.527" x2="39.868" y2="134.279"/>
	<line style="fill:none;stroke:#000000;stroke-miterlimit:1;" x1="39.868" y1="134.279" x2="41.476" y2="138.032"/>
	<line style="fill:none;stroke:#000000;stroke-miterlimit:1;" x1="41.476" y1="138.032" x2="43.62" y2="141.517"/>
	<line style="fill:none;stroke:#000000;stroke-miterlimit:1;" x1="43.62" y1="141.517" x2="46.568" y2="144.196"/>
	<line style="fill:none;stroke:#000000;stroke-miterlimit:1;" x1="46.568" y1="144.196" x2="48.98" y2="145.536"/>
	<line style="fill:none;stroke:#000000;stroke-miterlimit:1;" x1="48.98" y1="145.536" x2="51.661" y2="146.877"/>
	<line style="fill:none;stroke:#000000;stroke-miterlimit:1;" x1="51.661" y1="146.877" x2="54.073" y2="147.681"/>
	<line style="fill:none;stroke:#000000;stroke-miterlimit:1;" x1="54.073" y1="147.681" x2="56.753" y2="147.948"/>
	<line style="fill:none;stroke:#000000;stroke-miterlimit:1;" x1="56.753" y1="147.948" x2="62.649" y2="148.484"/>
	<line style="fill:none;stroke:#000000;stroke-miterlimit:1;" x1="62.649" y1="148.484" x2="66.402" y2="148.217"/>
	<line style="fill:none;stroke:#000000;stroke-miterlimit:1;" x1="66.402" y1="148.217" x2="70.154" y2="147.681"/>
	<line style="fill:none;stroke:#000000;stroke-miterlimit:1;" x1="70.154" y1="147.681" x2="73.37" y2="146.877"/>
	<line style="fill:none;stroke:#000000;stroke-miterlimit:1;" x1="73.37" y1="146.877" x2="75.514" y2="146.072"/>
	<line style="fill:none;stroke:#000000;stroke-miterlimit:1;" x1="75.514" y1="146.072" x2="77.391" y2="144.732"/>
	<line style="fill:none;stroke:#000000;stroke-miterlimit:1;" x1="77.391" y1="144.732" x2="78.999" y2="143.66"/>
	<line style="fill:none;stroke:#000000;stroke-miterlimit:1;" x1="78.999" y1="143.66" x2="80.875" y2="142.052"/>
	<line style="fill:none;stroke:#000000;stroke-miterlimit:1;" x1="80.875" y1="142.052" x2="82.483" y2="139.908"/>
	<line style="fill:none;stroke:#000000;stroke-miterlimit:1;" x1="82.483" y1="139.908" x2="84.091" y2="137.496"/>
	<line style="fill:none;stroke:#000000;stroke-miterlimit:1;" x1="84.091" y1="137.496" x2="84.627" y2="135.888"/>
	<line style="fill:none;stroke:#000000;stroke-miterlimit:1;" x1="84.627" y1="135.888" x2="85.431" y2="134.279"/>
	<line style="fill:none;stroke:#000000;stroke-miterlimit:1;" x1="85.431" y1="134.279" x2="85.967" y2="132.403"/>
	<line style="fill:none;stroke:#000000;stroke-miterlimit:1;" x1="85.967" y1="132.403" x2="86.235" y2="130.26"/>
	<line style="fill:none;stroke:#000000;stroke-miterlimit:1;" x1="86.235" y1="130.26" x2="86.771" y2="127.043"/>
	<line style="fill:none;stroke:#000000;stroke-miterlimit:1;" x1="86.771" y1="127.043" x2="86.503" y2="124.631"/>
	<line style="fill:none;stroke:#000000;stroke-miterlimit:1;" x1="86.503" y1="124.631" x2="86.235" y2="121.951"/>
	<line style="fill:none;stroke:#000000;stroke-miterlimit:1;" x1="86.235" y1="121.951" x2="85.163" y2="118.734"/>
	<line style="fill:none;stroke:#000000;stroke-miterlimit:1;" x1="85.163" y1="118.734" x2="83.823" y2="115.25"/>
	<line style="fill:none;stroke:#000000;stroke-miterlimit:1;" x1="83.823" y1="115.25" x2="81.947" y2="113.106"/>
	<line style="fill:none;stroke:#000000;stroke-miterlimit:1;" x1="81.947" y1="113.106" x2="79.267" y2="110.426"/>
	<line style="fill:none;stroke:#000000;stroke-miterlimit:1;" x1="79.267" y1="110.426" x2="77.123" y2="108.817"/>
	<line style="fill:none;stroke:#000000;stroke-miterlimit:1;" x1="77.123" y1="108.817" x2="74.979" y2="107.21"/>
	<line style="fill:none;stroke:#000000;stroke-miterlimit:1;" x1="74.979" y1="107.21" x2="70.69" y2="105.602"/>
	<line style="fill:none;stroke:#000000;stroke-miterlimit:1;" x1="70.69" y1="105.602" x2="66.938" y2="104.798"/>
	<line style="fill:none;stroke:#000000;stroke-miterlimit:1;" x1="66.938" y1="104.798" x2="63.186" y2="104.529"/>
	<line style="fill:none;stroke:#000000;stroke-miterlimit:1;" x1="51.393" y1="106.674" x2="49.249" y2="106.674"/>
	<line style="fill:none;stroke:#000000;stroke-miterlimit:1;" x1="49.249" y1="106.674" x2="48.444" y2="105.869"/>
	<line style="fill:none;stroke:#000000;stroke-miterlimit:1;" x1="48.444" y1="105.869" x2="47.908" y2="105.065"/>
	<line style="fill:none;stroke:#000000;stroke-miterlimit:1;" x1="47.908" y1="105.065" x2="47.64" y2="103.457"/>
	<line style="fill:none;stroke:#000000;stroke-miterlimit:1;" x1="47.64" y1="103.457" x2="47.908" y2="101.85"/>
	<line style="fill:none;stroke:#000000;stroke-miterlimit:1;" x1="47.908" y1="101.85" x2="48.712" y2="100.777"/>
	<line style="fill:none;stroke:#000000;stroke-miterlimit:1;" x1="48.712" y1="100.777" x2="50.053" y2="100.241"/>
	<line style="fill:none;stroke:#000000;stroke-miterlimit:1;" x1="50.053" y1="100.241" x2="75.247" y2="100.241"/>
	<line style="fill:none;stroke:#000000;stroke-miterlimit:1;" x1="75.247" y1="100.241" x2="76.318" y2="100.777"/>
	<line style="fill:none;stroke:#000000;stroke-miterlimit:1;" x1="76.318" y1="100.777" x2="77.123" y2="101.85"/>
	<line style="fill:none;stroke:#000000;stroke-miterlimit:1;" x1="77.123" y1="101.85" x2="77.391" y2="103.189"/>
	<line style="fill:none;stroke:#000000;stroke-miterlimit:1;" x1="77.391" y1="103.189" x2="77.391" y2="103.993"/>
	<line style="fill:none;stroke:#000000;stroke-miterlimit:1;" x1="77.391" y1="103.993" x2="77.123" y2="105.065"/>
	<line style="fill:none;stroke:#000000;stroke-miterlimit:1;" x1="77.123" y1="105.065" x2="76.586" y2="105.869"/>
	<line style="fill:none;stroke:#000000;stroke-miterlimit:1;" x1="76.586" y1="105.869" x2="75.514" y2="106.674"/>
	<line style="fill:none;stroke:#000000;stroke-miterlimit:1;" x1="75.514" y1="106.674" x2="73.37" y2="106.674"/>
	<line style="fill:none;stroke:#000000;stroke-miterlimit:1;" x1="140.914" y1="103.68" x2="140.914" y2="148.114"/>
	<line style="fill:none;stroke:#000000;stroke-miterlimit:1;" x1="140.914" y1="148.114" x2="151.117" y2="148.114"/>
	<line style="fill:none;stroke:#000000;stroke-miterlimit:1;" x1="151.117" y1="148.114" x2="151.117" y2="103.68"/>
	<line style="fill:none;stroke:#000000;stroke-miterlimit:1;" x1="151.117" y1="103.68" x2="140.914" y2="103.68"/>
	<line style="fill:none;stroke:#000000;stroke-miterlimit:1;" x1="178.766" y1="0" x2="178.766" y2="44.435"/>
	<line style="fill:none;stroke:#000000;stroke-miterlimit:1;" x1="178.766" y1="44.435" x2="188.641" y2="44.435"/>
	<line style="fill:none;stroke:#000000;stroke-miterlimit:1;" x1="188.641" y1="44.435" x2="188.641" y2="0"/>
	<line style="fill:none;stroke:#000000;stroke-miterlimit:1;" x1="188.641" y1="0" x2="178.766" y2="0"/>
	<line style="fill:none;stroke:#000000;stroke-miterlimit:1;" x1="216.287" y1="103.68" x2="216.287" y2="148.114"/>
	<line style="fill:none;stroke:#000000;stroke-miterlimit:1;" x1="216.287" y1="148.114" x2="226.492" y2="148.114"/>
	<line style="fill:none;stroke:#000000;stroke-miterlimit:1;" x1="226.492" y1="148.114" x2="226.492" y2="103.68"/>
	<line style="fill:none;stroke:#000000;stroke-miterlimit:1;" x1="226.492" y1="103.68" x2="216.617" y2="103.68"/>
	<line style="fill:none;stroke:#000000;stroke-miterlimit:1;" x1="41.811" y1="84.797" x2="58.16" y2="84.797"/>
	<line style="fill:none;stroke:#000000;stroke-miterlimit:1;" x1="58.16" y1="84.797" x2="57.892" y2="78.9"/>
	<line style="fill:none;stroke:#000000;stroke-miterlimit:1;" x1="57.892" y1="78.9" x2="59.232" y2="71.127"/>
	<line style="fill:none;stroke:#000000;stroke-miterlimit:1;" x1="59.232" y1="71.127" x2="61.108" y2="66.571"/>
	<line style="fill:none;stroke:#000000;stroke-miterlimit:1;" x1="61.108" y1="66.571" x2="64.057" y2="59.334"/>
	<line style="fill:none;stroke:#000000;stroke-miterlimit:1;" x1="64.057" y1="59.334" x2="78.797" y2="33.337"/>
	<line style="fill:none;stroke:#000000;stroke-miterlimit:1;" x1="78.797" y1="33.337" x2="79.87" y2="27.708"/>
	<line style="fill:none;stroke:#000000;stroke-miterlimit:1;" x1="79.87" y1="27.708" x2="79.87" y2="25.028"/>
	<line style="fill:none;stroke:#000000;stroke-miterlimit:1;" x1="79.87" y1="25.028" x2="79.602" y2="20.204"/>
	<line style="fill:none;stroke:#000000;stroke-miterlimit:1;" x1="79.602" y1="20.204" x2="78.797" y2="16.987"/>
	<line style="fill:none;stroke:#000000;stroke-miterlimit:1;" x1="78.797" y1="16.987" x2="76.385" y2="12.967"/>
	<line style="fill:none;stroke:#000000;stroke-miterlimit:1;" x1="76.385" y1="12.967" x2="73.437" y2="9.215"/>
	<line style="fill:none;stroke:#000000;stroke-miterlimit:1;" x1="73.437" y1="9.215" x2="71.561" y2="7.071"/>
	<line style="fill:none;stroke:#000000;stroke-miterlimit:1;" x1="71.561" y1="7.071" x2="66.737" y2="3.854"/>
	<line style="fill:none;stroke:#000000;stroke-miterlimit:1;" x1="66.737" y1="3.854" x2="64.057" y2="2.515"/>
	<line style="fill:none;stroke:#000000;stroke-miterlimit:1;" x1="64.057" y1="2.515" x2="60.304" y2="1.174"/>
	<line style="fill:none;stroke:#000000;stroke-miterlimit:1;" x1="60.304" y1="1.174" x2="54.944" y2="0.37"/>
	<line style="fill:none;stroke:#000000;stroke-miterlimit:1;" x1="54.944" y1="0.37" x2="47.439" y2="1.174"/>
	<line style="fill:none;stroke:#000000;stroke-miterlimit:1;" x1="47.439" y1="1.174" x2="44.759" y2="2.247"/>
	<line style="fill:none;stroke:#000000;stroke-miterlimit:1;" x1="44.759" y1="2.247" x2="41.543" y2="4.391"/>
	<line style="fill:none;stroke:#000000;stroke-miterlimit:1;" x1="41.543" y1="4.391" x2="38.595" y2="7.339"/>
	<line style="fill:none;stroke:#000000;stroke-miterlimit:1;" x1="38.595" y1="7.339" x2="37.522" y2="9.751"/>
	<line style="fill:none;stroke:#000000;stroke-miterlimit:1;" x1="37.522" y1="9.751" x2="36.183" y2="11.895"/>
	<line style="fill:none;stroke:#000000;stroke-miterlimit:1;" x1="36.183" y1="11.895" x2="4.824" y2="18.596"/>
	<line style="fill:none;stroke:#000000;stroke-miterlimit:1;" x1="4.824" y1="18.596" x2="2.412" y2="19.4"/>
	<line style="fill:none;stroke:#000000;stroke-miterlimit:1;" x1="2.412" y1="19.4" x2="1.072" y2="20.74"/>
	<line style="fill:none;stroke:#000000;stroke-miterlimit:1;" x1="1.072" y1="20.74" x2="0.268" y2="21.812"/>
	<line style="fill:none;stroke:#000000;stroke-miterlimit:1;" x1="0.268" y1="21.812" x2="0" y2="23.688"/>
	<line style="fill:none;stroke:#000000;stroke-miterlimit:1;" x1="0" y1="23.688" x2="38.595" y2="17.255"/>
	<line style="fill:none;stroke:#000000;stroke-miterlimit:1;" x1="0.268" y1="24.76" x2="2.144" y2="25.296"/>
	<line style="fill:none;stroke:#000000;stroke-miterlimit:1;" x1="2.144" y1="25.296" x2="5.896" y2="25.564"/>
	<line style="fill:none;stroke:#000000;stroke-miterlimit:1;" x1="5.896" y1="25.564" x2="39.399" y2="21.276"/>
	<line style="fill:none;stroke:#000000;stroke-miterlimit:1;" x1="39.399" y1="21.276" x2="38.595" y2="17.523"/>
	<line style="fill:none;stroke:#000000;stroke-miterlimit:1;" x1="38.595" y1="17.523" x2="36.451" y2="11.895"/>
	<line style="fill:none;stroke:#000000;stroke-miterlimit:1;" x1="39.935" y1="21.276" x2="41.543" y2="21.008"/>
	<line style="fill:none;stroke:#000000;stroke-miterlimit:1;" x1="41.543" y1="21.008" x2="44.223" y2="21.008"/>
	<line style="fill:none;stroke:#000000;stroke-miterlimit:1;" x1="44.223" y1="21.008" x2="53.336" y2="23.152"/>
	<line style="fill:none;stroke:#000000;stroke-miterlimit:1;" x1="53.336" y1="23.152" x2="57.624" y2="23.688"/>
	<line style="fill:none;stroke:#000000;stroke-miterlimit:1;" x1="57.624" y1="23.688" x2="60.304" y2="23.956"/>
	<line style="fill:none;stroke:#000000;stroke-miterlimit:1;" x1="60.304" y1="23.956" x2="67.809" y2="23.152"/>
	<line style="fill:none;stroke:#000000;stroke-miterlimit:1;" x1="67.809" y1="23.152" x2="70.221" y2="25.564"/>
	<line style="fill:none;stroke:#000000;stroke-miterlimit:1;" x1="70.221" y1="25.564" x2="70.757" y2="28.78"/>
	<line style="fill:none;stroke:#000000;stroke-miterlimit:1;" x1="70.757" y1="28.78" x2="70.489" y2="31.46"/>
	<line style="fill:none;stroke:#000000;stroke-miterlimit:1;" x1="70.489" y1="31.46" x2="69.149" y2="34.677"/>
	<line style="fill:none;stroke:#000000;stroke-miterlimit:1;" x1="69.149" y1="34.677" x2="57.356" y2="50.222"/>
	<line style="fill:none;stroke:#000000;stroke-miterlimit:1;" x1="57.356" y1="50.222" x2="50.388" y2="59.603"/>
	<line style="fill:none;stroke:#000000;stroke-miterlimit:1;" x1="50.388" y1="59.603" x2="47.708" y2="64.427"/>
	<line style="fill:none;stroke:#000000;stroke-miterlimit:1;" x1="47.708" y1="64.427" x2="44.759" y2="70.056"/>
	<line style="fill:none;stroke:#000000;stroke-miterlimit:1;" x1="44.759" y1="70.056" x2="42.883" y2="77.292"/>
	<line style="fill:none;stroke:#000000;stroke-miterlimit:1;" x1="42.883" y1="77.292" x2="41.811" y2="84.797"/>
	<line style="fill:none;stroke:#000000;stroke-miterlimit:1;" x1="63.789" y1="1.979" x2="77.458" y2="6.803"/>
	<line style="fill:none;stroke:#000000;stroke-miterlimit:1;" x1="77.458" y1="6.803" x2="91.126" y2="10.019"/>
	<line style="fill:none;stroke:#000000;stroke-miterlimit:1;" x1="91.126" y1="10.019" x2="96.755" y2="11.091"/>
	<line style="fill:none;stroke:#000000;stroke-miterlimit:1;" x1="96.755" y1="11.091" x2="101.579" y2="11.359"/>
	<line style="fill:none;stroke:#000000;stroke-miterlimit:1;" x1="101.579" y1="11.359" x2="107.208" y2="11.359"/>
	<line style="fill:none;stroke:#000000;stroke-miterlimit:1;" x1="107.208" y1="11.359" x2="113.909" y2="11.091"/>
	<line style="fill:none;stroke:#000000;stroke-miterlimit:1;" x1="113.909" y1="11.091" x2="118.465" y2="10.019"/>
	<line style="fill:none;stroke:#000000;stroke-miterlimit:1;" x1="118.465" y1="10.019" x2="123.557" y2="8.947"/>
	<line style="fill:none;stroke:#000000;stroke-miterlimit:1;" x1="123.557" y1="8.947" x2="124.094" y2="9.483"/>
	<line style="fill:none;stroke:#000000;stroke-miterlimit:1;" x1="124.094" y1="9.483" x2="123.557" y2="11.359"/>
	<line style="fill:none;stroke:#000000;stroke-miterlimit:1;" x1="123.557" y1="11.359" x2="121.682" y2="12.699"/>
	<line style="fill:none;stroke:#000000;stroke-miterlimit:1;" x1="121.682" y1="12.699" x2="115.248" y2="14.04"/>
	<line style="fill:none;stroke:#000000;stroke-miterlimit:1;" x1="115.248" y1="14.04" x2="109.084" y2="14.843"/>
	<line style="fill:none;stroke:#000000;stroke-miterlimit:1;" x1="109.084" y1="14.843" x2="101.579" y2="14.843"/>
	<line style="fill:none;stroke:#000000;stroke-miterlimit:1;" x1="101.579" y1="14.843" x2="95.415" y2="14.308"/>
	<line style="fill:none;stroke:#000000;stroke-miterlimit:1;" x1="95.415" y1="14.308" x2="84.962" y2="12.431"/>
	<line style="fill:none;stroke:#000000;stroke-miterlimit:1;" x1="84.962" y1="12.431" x2="79.066" y2="10.555"/>
	<line style="fill:none;stroke:#000000;stroke-miterlimit:1;" x1="69.685" y1="5.999" x2="92.199" y2="17.523"/>
	<line style="fill:none;stroke:#000000;stroke-miterlimit:1;" x1="92.199" y1="17.523" x2="98.899" y2="20.472"/>
	<line style="fill:none;stroke:#000000;stroke-miterlimit:1;" x1="98.899" y1="20.472" x2="103.992" y2="22.08"/>
	<line style="fill:none;stroke:#000000;stroke-miterlimit:1;" x1="103.992" y1="22.08" x2="109.084" y2="23.42"/>
	<line style="fill:none;stroke:#000000;stroke-miterlimit:1;" x1="109.084" y1="23.42" x2="112.836" y2="24.492"/>
	<line style="fill:none;stroke:#000000;stroke-miterlimit:1;" x1="112.836" y1="24.492" x2="119.805" y2="24.76"/>
	<line style="fill:none;stroke:#000000;stroke-miterlimit:1;" x1="119.805" y1="24.76" x2="122.752" y2="25.028"/>
	<line style="fill:none;stroke:#000000;stroke-miterlimit:1;" x1="122.752" y1="25.028" x2="124.361" y2="25.028"/>
	<line style="fill:none;stroke:#000000;stroke-miterlimit:1;" x1="124.361" y1="25.028" x2="125.434" y2="25.296"/>
	<line style="fill:none;stroke:#000000;stroke-miterlimit:1;" x1="125.434" y1="25.296" x2="125.701" y2="26.904"/>
	<line style="fill:none;stroke:#000000;stroke-miterlimit:1;" x1="125.701" y1="26.904" x2="120.609" y2="28.512"/>
	<line style="fill:none;stroke:#000000;stroke-miterlimit:1;" x1="120.609" y1="28.512" x2="116.588" y2="28.78"/>
	<line style="fill:none;stroke:#000000;stroke-miterlimit:1;" x1="116.588" y1="28.78" x2="111.228" y2="28.244"/>
	<line style="fill:none;stroke:#000000;stroke-miterlimit:1;" x1="111.228" y1="28.244" x2="103.992" y2="26.368"/>
	<line style="fill:none;stroke:#000000;stroke-miterlimit:1;" x1="103.992" y1="26.368" x2="91.126" y2="21.276"/>
	<line style="fill:none;stroke:#000000;stroke-miterlimit:1;" x1="91.126" y1="21.276" x2="76.118" y2="12.699"/>
	<line style="fill:none;stroke:#000000;stroke-miterlimit:1;" x1="46.367" y1="8.143" x2="44.759" y2="8.411"/>
	<line style="fill:none;stroke:#000000;stroke-miterlimit:1;" x1="44.759" y1="8.411" x2="43.419" y2="10.019"/>
	<line style="fill:none;stroke:#000000;stroke-miterlimit:1;" x1="43.419" y1="10.019" x2="43.419" y2="11.895"/>
	<line style="fill:none;stroke:#000000;stroke-miterlimit:1;" x1="43.419" y1="11.895" x2="44.759" y2="13.235"/>
	<line style="fill:none;stroke:#000000;stroke-miterlimit:1;" x1="44.759" y1="13.235" x2="46.635" y2="13.235"/>
	<line style="fill:none;stroke:#000000;stroke-miterlimit:1;" x1="46.635" y1="13.235" x2="48.244" y2="12.431"/>
	<line style="fill:none;stroke:#000000;stroke-miterlimit:1;" x1="48.244" y1="12.431" x2="48.511" y2="11.359"/>
	<line style="fill:none;stroke:#000000;stroke-miterlimit:1;" x1="48.511" y1="11.359" x2="47.976" y2="9.751"/>
	<line style="fill:none;stroke:#000000;stroke-miterlimit:1;" x1="47.976" y1="9.751" x2="46.903" y2="8.143"/>
</g>
</svg>
