<?xml version="1.0" encoding="iso-8859-1"?>
<!-- Generator: Adobe Illustrator 16.0.1, SVG Export Plug-In . SVG Version: 6.00 Build 0)  -->
<!DOCTYPE svg PUBLIC "-//W3C//DTD SVG 1.1//EN" "http://www.w3.org/Graphics/SVG/1.1/DTD/svg11.dtd">
<svg version="1.1" id="Ebene_1" xmlns="http://www.w3.org/2000/svg" xmlns:xlink="http://www.w3.org/1999/xlink" x="0px" y="0px"
	 width="228.137px" height="149.513px" viewBox="0 0 228.137 149.513" style="enable-background:new 0 0 228.137 149.513;"
	 xml:space="preserve">
<g>
	<line style="fill:none;stroke:#000000;stroke-miterlimit:1;" x1="102.073" y1="46.901" x2="104.226" y2="43.212"/>
	<line style="fill:none;stroke:#000000;stroke-miterlimit:1;" x1="104.226" y1="43.212" x2="106.993" y2="40.445"/>
	<line style="fill:none;stroke:#000000;stroke-miterlimit:1;" x1="106.993" y1="40.445" x2="110.989" y2="39.522"/>
	<line style="fill:none;stroke:#000000;stroke-miterlimit:1;" x1="110.989" y1="39.522" x2="114.372" y2="40.138"/>
	<line style="fill:none;stroke:#000000;stroke-miterlimit:1;" x1="114.372" y1="40.138" x2="116.831" y2="42.29"/>
	<line style="fill:none;stroke:#000000;stroke-miterlimit:1;" x1="116.831" y1="42.29" x2="118.061" y2="44.134"/>
	<line style="fill:none;stroke:#000000;stroke-miterlimit:1;" x1="118.061" y1="44.134" x2="118.983" y2="48.438"/>
	<line style="fill:none;stroke:#000000;stroke-miterlimit:1;" x1="118.983" y1="48.438" x2="118.983" y2="98.246"/>
	<line style="fill:none;stroke:#000000;stroke-miterlimit:1;" x1="118.983" y1="98.246" x2="0" y2="98.246"/>
	<line style="fill:none;stroke:#000000;stroke-miterlimit:1;" x1="0" y1="98.246" x2="0" y2="48.438"/>
	<line style="fill:none;stroke:#000000;stroke-miterlimit:1;" x1="0" y1="48.438" x2="1.229" y2="44.134"/>
	<line style="fill:none;stroke:#000000;stroke-miterlimit:1;" x1="1.229" y1="44.134" x2="2.152" y2="42.29"/>
	<line style="fill:none;stroke:#000000;stroke-miterlimit:1;" x1="2.152" y1="42.29" x2="4.611" y2="40.138"/>
	<line style="fill:none;stroke:#000000;stroke-miterlimit:1;" x1="4.611" y1="40.138" x2="7.994" y2="39.522"/>
	<line style="fill:none;stroke:#000000;stroke-miterlimit:1;" x1="7.994" y1="39.522" x2="12.298" y2="40.445"/>
	<line style="fill:none;stroke:#000000;stroke-miterlimit:1;" x1="12.298" y1="40.445" x2="15.065" y2="43.212"/>
	<line style="fill:none;stroke:#000000;stroke-miterlimit:1;" x1="15.065" y1="43.212" x2="16.91" y2="46.594"/>
	<line style="fill:none;stroke:#000000;stroke-miterlimit:1;" x1="62.72" y1="1.399" x2="59.953" y2="1.399"/>
	<line style="fill:none;stroke:#000000;stroke-miterlimit:1;" x1="59.953" y1="1.399" x2="57.8" y2="1.399"/>
	<line style="fill:none;stroke:#000000;stroke-miterlimit:1;" x1="57.8" y1="1.399" x2="55.956" y2="1.706"/>
	<line style="fill:none;stroke:#000000;stroke-miterlimit:1;" x1="55.956" y1="1.706" x2="52.574" y2="2.321"/>
	<line style="fill:none;stroke:#000000;stroke-miterlimit:1;" x1="52.574" y1="2.321" x2="50.422" y2="2.628"/>
	<line style="fill:none;stroke:#000000;stroke-miterlimit:1;" x1="50.422" y1="2.628" x2="48.577" y2="3.244"/>
	<line style="fill:none;stroke:#000000;stroke-miterlimit:1;" x1="48.577" y1="3.244" x2="46.732" y2="3.858"/>
	<line style="fill:none;stroke:#000000;stroke-miterlimit:1;" x1="46.732" y1="3.858" x2="44.272" y2="4.473"/>
	<line style="fill:none;stroke:#000000;stroke-miterlimit:1;" x1="44.272" y1="4.473" x2="42.121" y2="5.396"/>
	<line style="fill:none;stroke:#000000;stroke-miterlimit:1;" x1="42.121" y1="5.396" x2="39.968" y2="6.318"/>
	<line style="fill:none;stroke:#000000;stroke-miterlimit:1;" x1="39.968" y1="6.318" x2="38.124" y2="7.24"/>
	<line style="fill:none;stroke:#000000;stroke-miterlimit:1;" x1="38.124" y1="7.24" x2="36.279" y2="8.47"/>
	<line style="fill:none;stroke:#000000;stroke-miterlimit:1;" x1="36.279" y1="8.47" x2="34.434" y2="9.7"/>
	<line style="fill:none;stroke:#000000;stroke-miterlimit:1;" x1="34.434" y1="9.7" x2="32.589" y2="10.93"/>
	<line style="fill:none;stroke:#000000;stroke-miterlimit:1;" x1="32.589" y1="10.93" x2="31.052" y2="12.467"/>
	<line style="fill:none;stroke:#000000;stroke-miterlimit:1;" x1="31.052" y1="12.467" x2="27.67" y2="15.542"/>
	<line style="fill:none;stroke:#000000;stroke-miterlimit:1;" x1="27.67" y1="15.542" x2="26.44" y2="17.079"/>
	<line style="fill:none;stroke:#000000;stroke-miterlimit:1;" x1="26.44" y1="17.079" x2="25.211" y2="18.309"/>
	<line style="fill:none;stroke:#000000;stroke-miterlimit:1;" x1="25.211" y1="18.309" x2="23.059" y2="21.383"/>
	<line style="fill:none;stroke:#000000;stroke-miterlimit:1;" x1="23.059" y1="21.383" x2="21.214" y2="24.458"/>
	<line style="fill:none;stroke:#000000;stroke-miterlimit:1;" x1="21.214" y1="24.458" x2="20.292" y2="26.302"/>
	<line style="fill:none;stroke:#000000;stroke-miterlimit:1;" x1="20.292" y1="26.302" x2="19.677" y2="28.455"/>
	<line style="fill:none;stroke:#000000;stroke-miterlimit:1;" x1="19.677" y1="28.455" x2="18.447" y2="32.759"/>
	<line style="fill:none;stroke:#000000;stroke-miterlimit:1;" x1="18.447" y1="32.759" x2="17.524" y2="34.604"/>
	<line style="fill:none;stroke:#000000;stroke-miterlimit:1;" x1="17.524" y1="34.604" x2="17.217" y2="37.371"/>
	<line style="fill:none;stroke:#000000;stroke-miterlimit:1;" x1="17.217" y1="37.371" x2="16.91" y2="39.215"/>
	<line style="fill:none;stroke:#000000;stroke-miterlimit:1;" x1="16.91" y1="39.215" x2="16.91" y2="42.597"/>
	<line style="fill:none;stroke:#000000;stroke-miterlimit:1;" x1="16.91" y1="42.597" x2="16.91" y2="44.75"/>
	<line style="fill:none;stroke:#000000;stroke-miterlimit:1;" x1="16.91" y1="44.75" x2="16.91" y2="47.824"/>
	<line style="fill:none;stroke:#000000;stroke-miterlimit:1;" x1="16.91" y1="47.824" x2="17.217" y2="49.976"/>
	<line style="fill:none;stroke:#000000;stroke-miterlimit:1;" x1="17.217" y1="49.976" x2="18.447" y2="54.28"/>
	<line style="fill:none;stroke:#000000;stroke-miterlimit:1;" x1="18.447" y1="54.28" x2="19.062" y2="57.047"/>
	<line style="fill:none;stroke:#000000;stroke-miterlimit:1;" x1="19.062" y1="57.047" x2="19.677" y2="58.584"/>
	<line style="fill:none;stroke:#000000;stroke-miterlimit:1;" x1="19.677" y1="58.584" x2="20.906" y2="61.352"/>
	<line style="fill:none;stroke:#000000;stroke-miterlimit:1;" x1="20.906" y1="61.352" x2="21.521" y2="63.196"/>
	<line style="fill:none;stroke:#000000;stroke-miterlimit:1;" x1="21.521" y1="63.196" x2="23.366" y2="65.041"/>
	<line style="fill:none;stroke:#000000;stroke-miterlimit:1;" x1="23.366" y1="65.041" x2="23.981" y2="66.578"/>
	<line style="fill:none;stroke:#000000;stroke-miterlimit:1;" x1="23.981" y1="66.578" x2="25.518" y2="68.423"/>
	<line style="fill:none;stroke:#000000;stroke-miterlimit:1;" x1="25.518" y1="68.423" x2="26.748" y2="69.96"/>
	<line style="fill:none;stroke:#000000;stroke-miterlimit:1;" x1="26.748" y1="69.96" x2="28.285" y2="72.112"/>
	<line style="fill:none;stroke:#000000;stroke-miterlimit:1;" x1="28.285" y1="72.112" x2="31.36" y2="74.879"/>
	<line style="fill:none;stroke:#000000;stroke-miterlimit:1;" x1="31.36" y1="74.879" x2="33.512" y2="76.417"/>
	<line style="fill:none;stroke:#000000;stroke-miterlimit:1;" x1="33.512" y1="76.417" x2="35.664" y2="77.954"/>
	<line style="fill:none;stroke:#000000;stroke-miterlimit:1;" x1="35.664" y1="77.954" x2="36.894" y2="78.876"/>
	<line style="fill:none;stroke:#000000;stroke-miterlimit:1;" x1="36.894" y1="78.876" x2="38.739" y2="80.106"/>
	<line style="fill:none;stroke:#000000;stroke-miterlimit:1;" x1="38.739" y1="80.106" x2="40.583" y2="81.028"/>
	<line style="fill:none;stroke:#000000;stroke-miterlimit:1;" x1="40.583" y1="81.028" x2="43.351" y2="81.951"/>
	<line style="fill:none;stroke:#000000;stroke-miterlimit:1;" x1="43.351" y1="81.951" x2="45.195" y2="82.873"/>
	<line style="fill:none;stroke:#000000;stroke-miterlimit:1;" x1="45.195" y1="82.873" x2="47.655" y2="83.488"/>
	<line style="fill:none;stroke:#000000;stroke-miterlimit:1;" x1="47.655" y1="83.488" x2="49.192" y2="83.796"/>
	<line style="fill:none;stroke:#000000;stroke-miterlimit:1;" x1="49.192" y1="83.796" x2="51.344" y2="84.41"/>
	<line style="fill:none;stroke:#000000;stroke-miterlimit:1;" x1="51.344" y1="84.41" x2="53.496" y2="84.718"/>
	<line style="fill:none;stroke:#000000;stroke-miterlimit:1;" x1="53.496" y1="84.718" x2="55.956" y2="85.025"/>
	<line style="fill:none;stroke:#000000;stroke-miterlimit:1;" x1="55.956" y1="85.025" x2="57.8" y2="85.025"/>
	<line style="fill:none;stroke:#000000;stroke-miterlimit:1;" x1="57.8" y1="85.025" x2="60.567" y2="85.025"/>
	<line style="fill:none;stroke:#000000;stroke-miterlimit:1;" x1="60.567" y1="85.025" x2="62.72" y2="84.718"/>
	<line style="fill:none;stroke:#000000;stroke-miterlimit:1;" x1="62.72" y1="84.718" x2="63.334" y2="85.025"/>
	<line style="fill:none;stroke:#000000;stroke-miterlimit:1;" x1="63.334" y1="85.025" x2="65.794" y2="84.718"/>
	<line style="fill:none;stroke:#000000;stroke-miterlimit:1;" x1="65.794" y1="84.718" x2="67.639" y2="84.41"/>
	<line style="fill:none;stroke:#000000;stroke-miterlimit:1;" x1="67.639" y1="84.41" x2="70.099" y2="83.796"/>
	<line style="fill:none;stroke:#000000;stroke-miterlimit:1;" x1="70.099" y1="83.796" x2="71.328" y2="83.488"/>
	<line style="fill:none;stroke:#000000;stroke-miterlimit:1;" x1="71.328" y1="83.488" x2="73.788" y2="82.873"/>
	<line style="fill:none;stroke:#000000;stroke-miterlimit:1;" x1="73.788" y1="82.873" x2="75.633" y2="81.951"/>
	<line style="fill:none;stroke:#000000;stroke-miterlimit:1;" x1="75.633" y1="81.951" x2="78.4" y2="81.028"/>
	<line style="fill:none;stroke:#000000;stroke-miterlimit:1;" x1="78.4" y1="81.028" x2="80.245" y2="80.106"/>
	<line style="fill:none;stroke:#000000;stroke-miterlimit:1;" x1="80.245" y1="80.106" x2="82.089" y2="78.876"/>
	<line style="fill:none;stroke:#000000;stroke-miterlimit:1;" x1="82.089" y1="78.876" x2="83.319" y2="77.954"/>
	<line style="fill:none;stroke:#000000;stroke-miterlimit:1;" x1="83.319" y1="77.954" x2="85.778" y2="76.417"/>
	<line style="fill:none;stroke:#000000;stroke-miterlimit:1;" x1="85.778" y1="76.417" x2="87.623" y2="74.879"/>
	<line style="fill:none;stroke:#000000;stroke-miterlimit:1;" x1="87.623" y1="74.879" x2="90.698" y2="72.112"/>
	<line style="fill:none;stroke:#000000;stroke-miterlimit:1;" x1="90.698" y1="72.112" x2="92.235" y2="69.96"/>
	<line style="fill:none;stroke:#000000;stroke-miterlimit:1;" x1="92.235" y1="69.96" x2="93.465" y2="68.423"/>
	<line style="fill:none;stroke:#000000;stroke-miterlimit:1;" x1="93.465" y1="68.423" x2="95.002" y2="66.578"/>
	<line style="fill:none;stroke:#000000;stroke-miterlimit:1;" x1="95.002" y1="66.578" x2="95.924" y2="65.041"/>
	<line style="fill:none;stroke:#000000;stroke-miterlimit:1;" x1="95.924" y1="65.041" x2="97.461" y2="63.196"/>
	<line style="fill:none;stroke:#000000;stroke-miterlimit:1;" x1="97.461" y1="63.196" x2="98.384" y2="61.352"/>
	<line style="fill:none;stroke:#000000;stroke-miterlimit:1;" x1="98.384" y1="61.352" x2="99.306" y2="58.584"/>
	<line style="fill:none;stroke:#000000;stroke-miterlimit:1;" x1="99.306" y1="58.584" x2="100.229" y2="57.047"/>
	<line style="fill:none;stroke:#000000;stroke-miterlimit:1;" x1="100.229" y1="57.047" x2="100.844" y2="54.28"/>
	<line style="fill:none;stroke:#000000;stroke-miterlimit:1;" x1="100.844" y1="54.28" x2="101.766" y2="49.976"/>
	<line style="fill:none;stroke:#000000;stroke-miterlimit:1;" x1="101.766" y1="49.976" x2="102.073" y2="47.824"/>
	<line style="fill:none;stroke:#000000;stroke-miterlimit:1;" x1="102.073" y1="47.824" x2="102.073" y2="44.75"/>
	<line style="fill:none;stroke:#000000;stroke-miterlimit:1;" x1="102.073" y1="44.75" x2="102.073" y2="42.597"/>
	<line style="fill:none;stroke:#000000;stroke-miterlimit:1;" x1="102.073" y1="42.597" x2="102.073" y2="39.215"/>
	<line style="fill:none;stroke:#000000;stroke-miterlimit:1;" x1="102.073" y1="39.215" x2="101.766" y2="37.371"/>
	<line style="fill:none;stroke:#000000;stroke-miterlimit:1;" x1="101.766" y1="37.371" x2="101.458" y2="34.604"/>
	<line style="fill:none;stroke:#000000;stroke-miterlimit:1;" x1="101.458" y1="34.604" x2="100.844" y2="32.759"/>
	<line style="fill:none;stroke:#000000;stroke-miterlimit:1;" x1="100.844" y1="32.759" x2="100.229" y2="29.684"/>
	<line style="fill:none;stroke:#000000;stroke-miterlimit:1;" x1="100.229" y1="29.684" x2="98.691" y2="26.302"/>
	<line style="fill:none;stroke:#000000;stroke-miterlimit:1;" x1="98.691" y1="26.302" x2="97.769" y2="24.458"/>
	<line style="fill:none;stroke:#000000;stroke-miterlimit:1;" x1="97.769" y1="24.458" x2="96.539" y2="22.306"/>
	<line style="fill:none;stroke:#000000;stroke-miterlimit:1;" x1="96.539" y1="22.306" x2="93.772" y2="18.309"/>
	<line style="fill:none;stroke:#000000;stroke-miterlimit:1;" x1="93.772" y1="18.309" x2="92.85" y2="17.079"/>
	<line style="fill:none;stroke:#000000;stroke-miterlimit:1;" x1="92.85" y1="17.079" x2="91.62" y2="15.542"/>
	<line style="fill:none;stroke:#000000;stroke-miterlimit:1;" x1="91.62" y1="15.542" x2="87.931" y2="12.467"/>
	<line style="fill:none;stroke:#000000;stroke-miterlimit:1;" x1="87.931" y1="12.467" x2="86.394" y2="10.93"/>
	<line style="fill:none;stroke:#000000;stroke-miterlimit:1;" x1="86.394" y1="10.93" x2="84.856" y2="9.7"/>
	<line style="fill:none;stroke:#000000;stroke-miterlimit:1;" x1="84.856" y1="9.7" x2="83.012" y2="8.47"/>
	<line style="fill:none;stroke:#000000;stroke-miterlimit:1;" x1="83.012" y1="8.47" x2="80.859" y2="7.24"/>
	<line style="fill:none;stroke:#000000;stroke-miterlimit:1;" x1="80.859" y1="7.24" x2="79.322" y2="6.318"/>
	<line style="fill:none;stroke:#000000;stroke-miterlimit:1;" x1="79.322" y1="6.318" x2="76.862" y2="5.396"/>
	<line style="fill:none;stroke:#000000;stroke-miterlimit:1;" x1="76.862" y1="5.396" x2="75.018" y2="4.473"/>
	<line style="fill:none;stroke:#000000;stroke-miterlimit:1;" x1="75.018" y1="4.473" x2="72.25" y2="3.858"/>
	<line style="fill:none;stroke:#000000;stroke-miterlimit:1;" x1="72.25" y1="3.858" x2="70.713" y2="3.244"/>
	<line style="fill:none;stroke:#000000;stroke-miterlimit:1;" x1="70.713" y1="3.244" x2="68.562" y2="2.628"/>
	<line style="fill:none;stroke:#000000;stroke-miterlimit:1;" x1="68.562" y1="2.628" x2="66.717" y2="2.321"/>
	<line style="fill:none;stroke:#000000;stroke-miterlimit:1;" x1="66.717" y1="2.321" x2="64.872" y2="1.706"/>
	<line style="fill:none;stroke:#000000;stroke-miterlimit:1;" x1="64.872" y1="1.706" x2="61.183" y2="1.399"/>
	<line style="fill:none;stroke:#000000;stroke-miterlimit:1;" x1="61.183" y1="1.399" x2="59.03" y2="1.399"/>
	<line style="fill:none;stroke:#000000;stroke-miterlimit:1;" x1="96.578" y1="149.513" x2="24.02" y2="149.513"/>
	<line style="fill:none;stroke:#000000;stroke-miterlimit:1;" x1="24.02" y1="149.513" x2="24.942" y2="143.364"/>
	<line style="fill:none;stroke:#000000;stroke-miterlimit:1;" x1="24.942" y1="143.364" x2="25.864" y2="139.367"/>
	<line style="fill:none;stroke:#000000;stroke-miterlimit:1;" x1="25.864" y1="139.367" x2="27.401" y2="135.37"/>
	<line style="fill:none;stroke:#000000;stroke-miterlimit:1;" x1="27.401" y1="135.37" x2="29.554" y2="132.296"/>
	<line style="fill:none;stroke:#000000;stroke-miterlimit:1;" x1="29.554" y1="132.296" x2="31.398" y2="129.528"/>
	<line style="fill:none;stroke:#000000;stroke-miterlimit:1;" x1="31.398" y1="129.528" x2="33.858" y2="126.146"/>
	<line style="fill:none;stroke:#000000;stroke-miterlimit:1;" x1="33.858" y1="126.146" x2="36.625" y2="123.688"/>
	<line style="fill:none;stroke:#000000;stroke-miterlimit:1;" x1="36.625" y1="123.688" x2="40.007" y2="121.228"/>
	<line style="fill:none;stroke:#000000;stroke-miterlimit:1;" x1="40.007" y1="121.228" x2="42.774" y2="119.383"/>
	<line style="fill:none;stroke:#000000;stroke-miterlimit:1;" x1="42.774" y1="119.383" x2="46.771" y2="117.538"/>
	<line style="fill:none;stroke:#000000;stroke-miterlimit:1;" x1="46.771" y1="117.538" x2="50.768" y2="116.309"/>
	<line style="fill:none;stroke:#000000;stroke-miterlimit:1;" x1="50.768" y1="116.309" x2="53.535" y2="115.693"/>
	<line style="fill:none;stroke:#000000;stroke-miterlimit:1;" x1="53.535" y1="115.693" x2="58.454" y2="115.079"/>
	<line style="fill:none;stroke:#000000;stroke-miterlimit:1;" x1="58.454" y1="115.079" x2="62.143" y2="115.079"/>
	<line style="fill:none;stroke:#000000;stroke-miterlimit:1;" x1="62.143" y1="115.079" x2="65.525" y2="115.693"/>
	<line style="fill:none;stroke:#000000;stroke-miterlimit:1;" x1="65.525" y1="115.693" x2="69.215" y2="116.309"/>
	<line style="fill:none;stroke:#000000;stroke-miterlimit:1;" x1="69.215" y1="116.309" x2="73.211" y2="117.23"/>
	<line style="fill:none;stroke:#000000;stroke-miterlimit:1;" x1="73.211" y1="117.23" x2="75.979" y2="118.153"/>
	<line style="fill:none;stroke:#000000;stroke-miterlimit:1;" x1="75.979" y1="118.153" x2="79.668" y2="120.612"/>
	<line style="fill:none;stroke:#000000;stroke-miterlimit:1;" x1="79.668" y1="120.612" x2="82.743" y2="122.765"/>
	<line style="fill:none;stroke:#000000;stroke-miterlimit:1;" x1="82.743" y1="122.765" x2="85.509" y2="124.917"/>
	<line style="fill:none;stroke:#000000;stroke-miterlimit:1;" x1="85.509" y1="124.917" x2="87.969" y2="127.991"/>
	<line style="fill:none;stroke:#000000;stroke-miterlimit:1;" x1="87.969" y1="127.991" x2="90.429" y2="131.373"/>
	<line style="fill:none;stroke:#000000;stroke-miterlimit:1;" x1="90.429" y1="131.373" x2="92.581" y2="134.756"/>
	<line style="fill:none;stroke:#000000;stroke-miterlimit:1;" x1="92.581" y1="134.756" x2="94.118" y2="137.83"/>
	<line style="fill:none;stroke:#000000;stroke-miterlimit:1;" x1="94.118" y1="137.83" x2="95.348" y2="142.441"/>
	<line style="fill:none;stroke:#000000;stroke-miterlimit:1;" x1="95.348" y1="142.441" x2="96.271" y2="145.823"/>
	<line style="fill:none;stroke:#000000;stroke-miterlimit:1;" x1="96.271" y1="145.823" x2="96.578" y2="149.513"/>
	<line style="fill:none;stroke:#000000;stroke-miterlimit:1;" x1="228.137" y1="148.114" x2="132.686" y2="148.114"/>
	<line style="fill:none;stroke:#000000;stroke-miterlimit:1;" x1="132.686" y1="148.114" x2="155.726" y2="138.24"/>
	<line style="fill:none;stroke:#000000;stroke-miterlimit:1;" x1="155.726" y1="138.24" x2="141.901" y2="93.806"/>
	<line style="fill:none;stroke:#000000;stroke-miterlimit:1;" x1="141.901" y1="93.806" x2="141.572" y2="89.856"/>
	<line style="fill:none;stroke:#000000;stroke-miterlimit:1;" x1="141.572" y1="89.856" x2="141.243" y2="86.235"/>
	<line style="fill:none;stroke:#000000;stroke-miterlimit:1;" x1="141.243" y1="86.235" x2="141.901" y2="82.615"/>
	<line style="fill:none;stroke:#000000;stroke-miterlimit:1;" x1="141.901" y1="82.615" x2="142.889" y2="80.64"/>
	<line style="fill:none;stroke:#000000;stroke-miterlimit:1;" x1="142.889" y1="80.64" x2="143.876" y2="78.994"/>
	<line style="fill:none;stroke:#000000;stroke-miterlimit:1;" x1="143.876" y1="78.994" x2="145.852" y2="78.336"/>
	<line style="fill:none;stroke:#000000;stroke-miterlimit:1;" x1="145.852" y1="78.336" x2="147.497" y2="77.678"/>
	<line style="fill:none;stroke:#000000;stroke-miterlimit:1;" x1="147.497" y1="77.678" x2="149.472" y2="77.678"/>
	<line style="fill:none;stroke:#000000;stroke-miterlimit:1;" x1="149.472" y1="77.678" x2="150.788" y2="78.007"/>
	<line style="fill:none;stroke:#000000;stroke-miterlimit:1;" x1="150.788" y1="78.007" x2="151.775" y2="78.336"/>
	<line style="fill:none;stroke:#000000;stroke-miterlimit:1;" x1="151.775" y1="78.336" x2="153.422" y2="78.994"/>
	<line style="fill:none;stroke:#000000;stroke-miterlimit:1;" x1="153.422" y1="78.994" x2="156.055" y2="80.969"/>
	<line style="fill:none;stroke:#000000;stroke-miterlimit:1;" x1="156.055" y1="80.969" x2="182.386" y2="113.555"/>
	<line style="fill:none;stroke:#000000;stroke-miterlimit:1;" x1="182.386" y1="113.555" x2="185.02" y2="62.208"/>
	<line style="fill:none;stroke:#000000;stroke-miterlimit:1;" x1="185.02" y1="62.208" x2="185.678" y2="54.967"/>
	<line style="fill:none;stroke:#000000;stroke-miterlimit:1;" x1="185.678" y1="54.967" x2="186.994" y2="49.372"/>
	<line style="fill:none;stroke:#000000;stroke-miterlimit:1;" x1="186.994" y1="49.372" x2="188.311" y2="46.08"/>
	<line style="fill:none;stroke:#000000;stroke-miterlimit:1;" x1="188.311" y1="46.08" x2="191.603" y2="43.118"/>
	<line style="fill:none;stroke:#000000;stroke-miterlimit:1;" x1="191.603" y1="43.118" x2="194.235" y2="41.143"/>
	<line style="fill:none;stroke:#000000;stroke-miterlimit:1;" x1="194.235" y1="41.143" x2="196.21" y2="40.155"/>
	<line style="fill:none;stroke:#000000;stroke-miterlimit:1;" x1="196.21" y1="40.155" x2="198.843" y2="39.497"/>
	<line style="fill:none;stroke:#000000;stroke-miterlimit:1;" x1="198.843" y1="39.497" x2="201.147" y2="39.497"/>
	<line style="fill:none;stroke:#000000;stroke-miterlimit:1;" x1="201.147" y1="39.497" x2="203.451" y2="39.826"/>
	<line style="fill:none;stroke:#000000;stroke-miterlimit:1;" x1="203.451" y1="39.826" x2="207.73" y2="42.13"/>
	<line style="fill:none;stroke:#000000;stroke-miterlimit:1;" x1="207.73" y1="42.13" x2="210.034" y2="44.763"/>
	<line style="fill:none;stroke:#000000;stroke-miterlimit:1;" x1="210.034" y1="44.763" x2="211.68" y2="47.726"/>
	<line style="fill:none;stroke:#000000;stroke-miterlimit:1;" x1="211.68" y1="47.726" x2="213.654" y2="51.675"/>
	<line style="fill:none;stroke:#000000;stroke-miterlimit:1;" x1="213.654" y1="51.675" x2="214.643" y2="56.612"/>
	<line style="fill:none;stroke:#000000;stroke-miterlimit:1;" x1="214.643" y1="56.612" x2="215.301" y2="61.55"/>
	<line style="fill:none;stroke:#000000;stroke-miterlimit:1;" x1="215.301" y1="61.55" x2="215.63" y2="64.841"/>
	<line style="fill:none;stroke:#000000;stroke-miterlimit:1;" x1="215.63" y1="64.841" x2="215.63" y2="133.303"/>
	<line style="fill:none;stroke:#000000;stroke-miterlimit:1;" x1="215.63" y1="133.303" x2="214.972" y2="135.936"/>
	<line style="fill:none;stroke:#000000;stroke-miterlimit:1;" x1="214.972" y1="135.936" x2="213.325" y2="138.569"/>
	<line style="fill:none;stroke:#000000;stroke-miterlimit:1;" x1="213.325" y1="138.569" x2="228.137" y2="148.114"/>
	<line style="fill:none;stroke:#000000;stroke-miterlimit:1;" x1="184.361" y1="70.437" x2="175.474" y2="70.437"/>
	<line style="fill:none;stroke:#000000;stroke-miterlimit:1;" x1="175.474" y1="70.437" x2="175.474" y2="64.512"/>
	<line style="fill:none;stroke:#000000;stroke-miterlimit:1;" x1="175.474" y1="64.512" x2="176.791" y2="56.283"/>
	<line style="fill:none;stroke:#000000;stroke-miterlimit:1;" x1="176.791" y1="56.283" x2="178.766" y2="49.372"/>
	<line style="fill:none;stroke:#000000;stroke-miterlimit:1;" x1="178.766" y1="49.372" x2="181.398" y2="42.789"/>
	<line style="fill:none;stroke:#000000;stroke-miterlimit:1;" x1="181.398" y1="42.789" x2="184.69" y2="38.181"/>
	<line style="fill:none;stroke:#000000;stroke-miterlimit:1;" x1="184.69" y1="38.181" x2="187.652" y2="33.902"/>
	<line style="fill:none;stroke:#000000;stroke-miterlimit:1;" x1="187.652" y1="33.902" x2="191.603" y2="29.623"/>
	<line style="fill:none;stroke:#000000;stroke-miterlimit:1;" x1="191.603" y1="29.623" x2="194.894" y2="25.015"/>
	<line style="fill:none;stroke:#000000;stroke-miterlimit:1;" x1="194.894" y1="25.015" x2="196.539" y2="21.065"/>
	<line style="fill:none;stroke:#000000;stroke-miterlimit:1;" x1="196.539" y1="21.065" x2="197.526" y2="16.457"/>
	<line style="fill:none;stroke:#000000;stroke-miterlimit:1;" x1="197.526" y1="16.457" x2="198.185" y2="12.836"/>
	<line style="fill:none;stroke:#000000;stroke-miterlimit:1;" x1="198.185" y1="12.836" x2="197.526" y2="9.874"/>
	<line style="fill:none;stroke:#000000;stroke-miterlimit:1;" x1="197.526" y1="9.874" x2="196.539" y2="5.924"/>
	<line style="fill:none;stroke:#000000;stroke-miterlimit:1;" x1="196.539" y1="5.924" x2="194.894" y2="2.962"/>
	<line style="fill:none;stroke:#000000;stroke-miterlimit:1;" x1="194.894" y1="2.962" x2="192.919" y2="0.987"/>
	<line style="fill:none;stroke:#000000;stroke-miterlimit:1;" x1="192.919" y1="0.987" x2="191.603" y2="0.658"/>
	<line style="fill:none;stroke:#000000;stroke-miterlimit:1;" x1="191.603" y1="0.658" x2="186.994" y2="0"/>
	<line style="fill:none;stroke:#000000;stroke-miterlimit:1;" x1="186.994" y1="0" x2="182.715" y2="0"/>
	<line style="fill:none;stroke:#000000;stroke-miterlimit:1;" x1="182.715" y1="0" x2="178.107" y2="0.987"/>
	<line style="fill:none;stroke:#000000;stroke-miterlimit:1;" x1="178.107" y1="0.987" x2="175.474" y2="1.646"/>
	<line style="fill:none;stroke:#000000;stroke-miterlimit:1;" x1="175.474" y1="1.646" x2="173.17" y2="2.633"/>
	<line style="fill:none;stroke:#000000;stroke-miterlimit:1;" x1="173.17" y1="2.633" x2="171.195" y2="4.279"/>
	<line style="fill:none;stroke:#000000;stroke-miterlimit:1;" x1="171.195" y1="4.279" x2="169.55" y2="5.595"/>
	<line style="fill:none;stroke:#000000;stroke-miterlimit:1;" x1="169.55" y1="5.595" x2="168.233" y2="6.912"/>
	<line style="fill:none;stroke:#000000;stroke-miterlimit:1;" x1="168.233" y1="6.912" x2="165.6" y2="8.229"/>
	<line style="fill:none;stroke:#000000;stroke-miterlimit:1;" x1="165.6" y1="8.229" x2="162.638" y2="9.545"/>
	<line style="fill:none;stroke:#000000;stroke-miterlimit:1;" x1="162.638" y1="9.545" x2="160.992" y2="10.533"/>
	<line style="fill:none;stroke:#000000;stroke-miterlimit:1;" x1="160.992" y1="10.533" x2="159.346" y2="11.849"/>
	<line style="fill:none;stroke:#000000;stroke-miterlimit:1;" x1="159.346" y1="11.849" x2="158.358" y2="12.836"/>
	<line style="fill:none;stroke:#000000;stroke-miterlimit:1;" x1="158.358" y1="12.836" x2="157.371" y2="14.153"/>
	<line style="fill:none;stroke:#000000;stroke-miterlimit:1;" x1="157.371" y1="14.153" x2="156.713" y2="14.812"/>
	<line style="fill:none;stroke:#000000;stroke-miterlimit:1;" x1="156.713" y1="14.812" x2="156.384" y2="15.799"/>
	<line style="fill:none;stroke:#000000;stroke-miterlimit:1;" x1="156.384" y1="15.799" x2="158.358" y2="15.141"/>
	<line style="fill:none;stroke:#000000;stroke-miterlimit:1;" x1="158.358" y1="15.141" x2="160.663" y2="14.812"/>
	<line style="fill:none;stroke:#000000;stroke-miterlimit:1;" x1="160.663" y1="14.812" x2="162.638" y2="14.482"/>
	<line style="fill:none;stroke:#000000;stroke-miterlimit:1;" x1="162.638" y1="14.482" x2="164.283" y2="14.482"/>
	<line style="fill:none;stroke:#000000;stroke-miterlimit:1;" x1="164.283" y1="14.482" x2="166.587" y2="14.812"/>
	<line style="fill:none;stroke:#000000;stroke-miterlimit:1;" x1="158.029" y1="15.47" x2="160.334" y2="16.457"/>
	<line style="fill:none;stroke:#000000;stroke-miterlimit:1;" x1="160.334" y1="16.457" x2="162.309" y2="17.444"/>
	<line style="fill:none;stroke:#000000;stroke-miterlimit:1;" x1="162.309" y1="17.444" x2="164.283" y2="19.09"/>
	<line style="fill:none;stroke:#000000;stroke-miterlimit:1;" x1="164.283" y1="19.09" x2="166.587" y2="20.407"/>
	<line style="fill:none;stroke:#000000;stroke-miterlimit:1;" x1="166.587" y1="20.407" x2="167.904" y2="22.711"/>
	<line style="fill:none;stroke:#000000;stroke-miterlimit:1;" x1="167.904" y1="22.711" x2="169.55" y2="24.686"/>
	<line style="fill:none;stroke:#000000;stroke-miterlimit:1;" x1="169.55" y1="24.686" x2="171.195" y2="27.319"/>
	<line style="fill:none;stroke:#000000;stroke-miterlimit:1;" x1="171.195" y1="27.319" x2="174.157" y2="29.623"/>
	<line style="fill:none;stroke:#000000;stroke-miterlimit:1;" x1="174.157" y1="29.623" x2="177.12" y2="30.939"/>
	<line style="fill:none;stroke:#000000;stroke-miterlimit:1;" x1="177.12" y1="30.939" x2="179.753" y2="33.243"/>
	<line style="fill:none;stroke:#000000;stroke-miterlimit:1;" x1="179.753" y1="33.243" x2="181.728" y2="35.876"/>
	<line style="fill:none;stroke:#000000;stroke-miterlimit:1;" x1="181.728" y1="35.876" x2="183.044" y2="37.522"/>
	<line style="fill:none;stroke:#000000;stroke-miterlimit:1;" x1="183.044" y1="37.522" x2="183.703" y2="39.168"/>
	<line style="fill:none;stroke:#000000;stroke-miterlimit:1;" x1="216.288" y1="70.437" x2="224.846" y2="70.437"/>
	<line style="fill:none;stroke:#000000;stroke-miterlimit:1;" x1="224.846" y1="70.437" x2="224.188" y2="34.889"/>
	<line style="fill:none;stroke:#000000;stroke-miterlimit:1;" x1="224.188" y1="34.889" x2="220.566" y2="20.736"/>
	<line style="fill:none;stroke:#000000;stroke-miterlimit:1;" x1="220.566" y1="20.736" x2="215.959" y2="13.166"/>
	<line style="fill:none;stroke:#000000;stroke-miterlimit:1;" x1="215.959" y1="13.166" x2="210.692" y2="7.57"/>
	<line style="fill:none;stroke:#000000;stroke-miterlimit:1;" x1="210.692" y1="7.57" x2="204.109" y2="3.621"/>
	<line style="fill:none;stroke:#000000;stroke-miterlimit:1;" x1="204.109" y1="3.621" x2="197.197" y2="0.987"/>
	<line style="fill:none;stroke:#000000;stroke-miterlimit:1;" x1="197.197" y1="0.987" x2="189.627" y2="0.329"/>
	<line style="fill:none;stroke:#000000;stroke-miterlimit:1;" x1="175.804" y1="8.887" x2="177.12" y2="9.545"/>
	<line style="fill:none;stroke:#000000;stroke-miterlimit:1;" x1="177.12" y1="9.545" x2="178.766" y2="8.887"/>
	<line style="fill:none;stroke:#000000;stroke-miterlimit:1;" x1="178.766" y1="8.887" x2="177.12" y2="7.57"/>
	<line style="fill:none;stroke:#000000;stroke-miterlimit:1;" x1="177.12" y1="7.57" x2="175.804" y2="9.216"/>
</g>
</svg>
