<?xml version="1.0" encoding="iso-8859-1"?>
<!-- Generator: Adobe Illustrator 16.0.1, SVG Export Plug-In . SVG Version: 6.00 Build 0)  -->
<!DOCTYPE svg PUBLIC "-//W3C//DTD SVG 1.1//EN" "http://www.w3.org/Graphics/SVG/1.1/DTD/svg11.dtd">
<svg version="1.1" id="Ebene_1" xmlns="http://www.w3.org/2000/svg" xmlns:xlink="http://www.w3.org/1999/xlink" x="0px" y="0px"
	 width="100.393px" height="148.114px" viewBox="0 0 100.393 148.114" style="enable-background:new 0 0 100.393 148.114;"
	 xml:space="preserve">
<g>
	<line style="fill:none;stroke:#000000;stroke-miterlimit:1;" x1="86.125" y1="38.393" x2="87.94" y2="35.28"/>
	<line style="fill:none;stroke:#000000;stroke-miterlimit:1;" x1="87.94" y1="35.28" x2="90.275" y2="32.945"/>
	<line style="fill:none;stroke:#000000;stroke-miterlimit:1;" x1="90.275" y1="32.945" x2="93.647" y2="32.167"/>
	<line style="fill:none;stroke:#000000;stroke-miterlimit:1;" x1="93.647" y1="32.167" x2="96.501" y2="32.686"/>
	<line style="fill:none;stroke:#000000;stroke-miterlimit:1;" x1="96.501" y1="32.686" x2="98.576" y2="34.501"/>
	<line style="fill:none;stroke:#000000;stroke-miterlimit:1;" x1="98.576" y1="34.501" x2="99.614" y2="36.058"/>
	<line style="fill:none;stroke:#000000;stroke-miterlimit:1;" x1="99.614" y1="36.058" x2="100.393" y2="39.69"/>
	<line style="fill:none;stroke:#000000;stroke-miterlimit:1;" x1="100.393" y1="39.69" x2="100.393" y2="81.715"/>
	<line style="fill:none;stroke:#000000;stroke-miterlimit:1;" x1="100.393" y1="81.715" x2="0" y2="81.715"/>
	<line style="fill:none;stroke:#000000;stroke-miterlimit:1;" x1="0" y1="81.715" x2="0" y2="39.69"/>
	<line style="fill:none;stroke:#000000;stroke-miterlimit:1;" x1="0" y1="39.69" x2="1.038" y2="36.058"/>
	<line style="fill:none;stroke:#000000;stroke-miterlimit:1;" x1="1.038" y1="36.058" x2="1.816" y2="34.501"/>
	<line style="fill:none;stroke:#000000;stroke-miterlimit:1;" x1="1.816" y1="34.501" x2="3.891" y2="32.686"/>
	<line style="fill:none;stroke:#000000;stroke-miterlimit:1;" x1="3.891" y1="32.686" x2="6.745" y2="32.167"/>
	<line style="fill:none;stroke:#000000;stroke-miterlimit:1;" x1="6.745" y1="32.167" x2="10.376" y2="32.945"/>
	<line style="fill:none;stroke:#000000;stroke-miterlimit:1;" x1="10.376" y1="32.945" x2="12.711" y2="35.28"/>
	<line style="fill:none;stroke:#000000;stroke-miterlimit:1;" x1="12.711" y1="35.28" x2="14.268" y2="38.133"/>
	<line style="fill:none;stroke:#000000;stroke-miterlimit:1;" x1="52.92" y1="0" x2="50.585" y2="0"/>
	<line style="fill:none;stroke:#000000;stroke-miterlimit:1;" x1="50.585" y1="0" x2="48.77" y2="0"/>
	<line style="fill:none;stroke:#000000;stroke-miterlimit:1;" x1="48.77" y1="0" x2="47.213" y2="0.259"/>
	<line style="fill:none;stroke:#000000;stroke-miterlimit:1;" x1="47.213" y1="0.259" x2="44.359" y2="0.778"/>
	<line style="fill:none;stroke:#000000;stroke-miterlimit:1;" x1="44.359" y1="0.778" x2="42.543" y2="1.038"/>
	<line style="fill:none;stroke:#000000;stroke-miterlimit:1;" x1="42.543" y1="1.038" x2="40.987" y2="1.556"/>
	<line style="fill:none;stroke:#000000;stroke-miterlimit:1;" x1="40.987" y1="1.556" x2="39.431" y2="2.075"/>
	<line style="fill:none;stroke:#000000;stroke-miterlimit:1;" x1="39.431" y1="2.075" x2="37.355" y2="2.594"/>
	<line style="fill:none;stroke:#000000;stroke-miterlimit:1;" x1="37.355" y1="2.594" x2="35.54" y2="3.372"/>
	<line style="fill:none;stroke:#000000;stroke-miterlimit:1;" x1="35.54" y1="3.372" x2="33.724" y2="4.15"/>
	<line style="fill:none;stroke:#000000;stroke-miterlimit:1;" x1="33.724" y1="4.15" x2="32.167" y2="4.929"/>
	<line style="fill:none;stroke:#000000;stroke-miterlimit:1;" x1="32.167" y1="4.929" x2="30.61" y2="5.966"/>
	<line style="fill:none;stroke:#000000;stroke-miterlimit:1;" x1="30.61" y1="5.966" x2="29.054" y2="7.004"/>
	<line style="fill:none;stroke:#000000;stroke-miterlimit:1;" x1="29.054" y1="7.004" x2="27.498" y2="8.042"/>
	<line style="fill:none;stroke:#000000;stroke-miterlimit:1;" x1="27.498" y1="8.042" x2="26.201" y2="9.339"/>
	<line style="fill:none;stroke:#000000;stroke-miterlimit:1;" x1="26.201" y1="9.339" x2="23.347" y2="11.933"/>
	<line style="fill:none;stroke:#000000;stroke-miterlimit:1;" x1="23.347" y1="11.933" x2="22.31" y2="13.23"/>
	<line style="fill:none;stroke:#000000;stroke-miterlimit:1;" x1="22.31" y1="13.23" x2="21.272" y2="14.268"/>
	<line style="fill:none;stroke:#000000;stroke-miterlimit:1;" x1="21.272" y1="14.268" x2="19.456" y2="16.862"/>
	<line style="fill:none;stroke:#000000;stroke-miterlimit:1;" x1="19.456" y1="16.862" x2="17.899" y2="19.456"/>
	<line style="fill:none;stroke:#000000;stroke-miterlimit:1;" x1="17.899" y1="19.456" x2="17.121" y2="21.012"/>
	<line style="fill:none;stroke:#000000;stroke-miterlimit:1;" x1="17.121" y1="21.012" x2="16.603" y2="22.828"/>
	<line style="fill:none;stroke:#000000;stroke-miterlimit:1;" x1="16.603" y1="22.828" x2="15.565" y2="26.46"/>
	<line style="fill:none;stroke:#000000;stroke-miterlimit:1;" x1="15.565" y1="26.46" x2="14.787" y2="28.016"/>
	<line style="fill:none;stroke:#000000;stroke-miterlimit:1;" x1="14.787" y1="28.016" x2="14.527" y2="30.351"/>
	<line style="fill:none;stroke:#000000;stroke-miterlimit:1;" x1="14.527" y1="30.351" x2="14.268" y2="31.908"/>
	<line style="fill:none;stroke:#000000;stroke-miterlimit:1;" x1="14.268" y1="31.908" x2="14.268" y2="34.761"/>
	<line style="fill:none;stroke:#000000;stroke-miterlimit:1;" x1="14.268" y1="34.761" x2="14.268" y2="36.577"/>
	<line style="fill:none;stroke:#000000;stroke-miterlimit:1;" x1="14.268" y1="36.577" x2="14.268" y2="39.171"/>
	<line style="fill:none;stroke:#000000;stroke-miterlimit:1;" x1="14.268" y1="39.171" x2="14.527" y2="40.987"/>
	<line style="fill:none;stroke:#000000;stroke-miterlimit:1;" x1="14.527" y1="40.987" x2="15.565" y2="44.619"/>
	<line style="fill:none;stroke:#000000;stroke-miterlimit:1;" x1="15.565" y1="44.619" x2="16.083" y2="46.953"/>
	<line style="fill:none;stroke:#000000;stroke-miterlimit:1;" x1="16.083" y1="46.953" x2="16.603" y2="48.25"/>
	<line style="fill:none;stroke:#000000;stroke-miterlimit:1;" x1="16.603" y1="48.25" x2="17.64" y2="50.585"/>
	<line style="fill:none;stroke:#000000;stroke-miterlimit:1;" x1="17.64" y1="50.585" x2="18.159" y2="52.142"/>
	<line style="fill:none;stroke:#000000;stroke-miterlimit:1;" x1="18.159" y1="52.142" x2="19.715" y2="53.698"/>
	<line style="fill:none;stroke:#000000;stroke-miterlimit:1;" x1="19.715" y1="53.698" x2="20.234" y2="54.995"/>
	<line style="fill:none;stroke:#000000;stroke-miterlimit:1;" x1="20.234" y1="54.995" x2="21.531" y2="56.552"/>
	<line style="fill:none;stroke:#000000;stroke-miterlimit:1;" x1="21.531" y1="56.552" x2="22.569" y2="57.849"/>
	<line style="fill:none;stroke:#000000;stroke-miterlimit:1;" x1="22.569" y1="57.849" x2="23.866" y2="59.665"/>
	<line style="fill:none;stroke:#000000;stroke-miterlimit:1;" x1="23.866" y1="59.665" x2="26.46" y2="61.999"/>
	<line style="fill:none;stroke:#000000;stroke-miterlimit:1;" x1="26.46" y1="61.999" x2="28.276" y2="63.296"/>
	<line style="fill:none;stroke:#000000;stroke-miterlimit:1;" x1="28.276" y1="63.296" x2="30.092" y2="64.593"/>
	<line style="fill:none;stroke:#000000;stroke-miterlimit:1;" x1="30.092" y1="64.593" x2="31.129" y2="65.372"/>
	<line style="fill:none;stroke:#000000;stroke-miterlimit:1;" x1="31.129" y1="65.372" x2="32.686" y2="66.409"/>
	<line style="fill:none;stroke:#000000;stroke-miterlimit:1;" x1="32.686" y1="66.409" x2="34.242" y2="67.188"/>
	<line style="fill:none;stroke:#000000;stroke-miterlimit:1;" x1="34.242" y1="67.188" x2="36.577" y2="67.966"/>
	<line style="fill:none;stroke:#000000;stroke-miterlimit:1;" x1="36.577" y1="67.966" x2="38.134" y2="68.744"/>
	<line style="fill:none;stroke:#000000;stroke-miterlimit:1;" x1="38.134" y1="68.744" x2="40.209" y2="69.263"/>
	<line style="fill:none;stroke:#000000;stroke-miterlimit:1;" x1="40.209" y1="69.263" x2="41.506" y2="69.522"/>
	<line style="fill:none;stroke:#000000;stroke-miterlimit:1;" x1="41.506" y1="69.522" x2="43.322" y2="70.041"/>
	<line style="fill:none;stroke:#000000;stroke-miterlimit:1;" x1="43.322" y1="70.041" x2="45.138" y2="70.3"/>
	<line style="fill:none;stroke:#000000;stroke-miterlimit:1;" x1="45.138" y1="70.3" x2="47.213" y2="70.56"/>
	<line style="fill:none;stroke:#000000;stroke-miterlimit:1;" x1="47.213" y1="70.56" x2="48.77" y2="70.56"/>
	<line style="fill:none;stroke:#000000;stroke-miterlimit:1;" x1="48.77" y1="70.56" x2="51.104" y2="70.56"/>
	<line style="fill:none;stroke:#000000;stroke-miterlimit:1;" x1="51.104" y1="70.56" x2="52.92" y2="70.3"/>
	<line style="fill:none;stroke:#000000;stroke-miterlimit:1;" x1="52.92" y1="70.3" x2="53.438" y2="70.56"/>
	<line style="fill:none;stroke:#000000;stroke-miterlimit:1;" x1="53.438" y1="70.56" x2="55.514" y2="70.3"/>
	<line style="fill:none;stroke:#000000;stroke-miterlimit:1;" x1="55.514" y1="70.3" x2="57.07" y2="70.041"/>
	<line style="fill:none;stroke:#000000;stroke-miterlimit:1;" x1="57.07" y1="70.041" x2="59.146" y2="69.522"/>
	<line style="fill:none;stroke:#000000;stroke-miterlimit:1;" x1="59.146" y1="69.522" x2="60.184" y2="69.263"/>
	<line style="fill:none;stroke:#000000;stroke-miterlimit:1;" x1="60.184" y1="69.263" x2="62.259" y2="68.744"/>
	<line style="fill:none;stroke:#000000;stroke-miterlimit:1;" x1="62.259" y1="68.744" x2="63.815" y2="67.966"/>
	<line style="fill:none;stroke:#000000;stroke-miterlimit:1;" x1="63.815" y1="67.966" x2="66.15" y2="67.188"/>
	<line style="fill:none;stroke:#000000;stroke-miterlimit:1;" x1="66.15" y1="67.188" x2="67.706" y2="66.409"/>
	<line style="fill:none;stroke:#000000;stroke-miterlimit:1;" x1="67.706" y1="66.409" x2="69.263" y2="65.372"/>
	<line style="fill:none;stroke:#000000;stroke-miterlimit:1;" x1="69.263" y1="65.372" x2="70.301" y2="64.593"/>
	<line style="fill:none;stroke:#000000;stroke-miterlimit:1;" x1="70.301" y1="64.593" x2="72.376" y2="63.296"/>
	<line style="fill:none;stroke:#000000;stroke-miterlimit:1;" x1="72.376" y1="63.296" x2="73.933" y2="61.999"/>
	<line style="fill:none;stroke:#000000;stroke-miterlimit:1;" x1="73.933" y1="61.999" x2="76.526" y2="59.665"/>
	<line style="fill:none;stroke:#000000;stroke-miterlimit:1;" x1="76.526" y1="59.665" x2="77.823" y2="57.849"/>
	<line style="fill:none;stroke:#000000;stroke-miterlimit:1;" x1="77.823" y1="57.849" x2="78.861" y2="56.552"/>
	<line style="fill:none;stroke:#000000;stroke-miterlimit:1;" x1="78.861" y1="56.552" x2="80.158" y2="54.995"/>
	<line style="fill:none;stroke:#000000;stroke-miterlimit:1;" x1="80.158" y1="54.995" x2="80.937" y2="53.698"/>
	<line style="fill:none;stroke:#000000;stroke-miterlimit:1;" x1="80.937" y1="53.698" x2="82.233" y2="52.142"/>
	<line style="fill:none;stroke:#000000;stroke-miterlimit:1;" x1="82.233" y1="52.142" x2="83.012" y2="50.585"/>
	<line style="fill:none;stroke:#000000;stroke-miterlimit:1;" x1="83.012" y1="50.585" x2="83.79" y2="48.25"/>
	<line style="fill:none;stroke:#000000;stroke-miterlimit:1;" x1="83.79" y1="48.25" x2="84.568" y2="46.953"/>
	<line style="fill:none;stroke:#000000;stroke-miterlimit:1;" x1="84.568" y1="46.953" x2="85.087" y2="44.619"/>
	<line style="fill:none;stroke:#000000;stroke-miterlimit:1;" x1="85.087" y1="44.619" x2="85.865" y2="40.987"/>
	<line style="fill:none;stroke:#000000;stroke-miterlimit:1;" x1="85.865" y1="40.987" x2="86.125" y2="39.171"/>
	<line style="fill:none;stroke:#000000;stroke-miterlimit:1;" x1="86.125" y1="39.171" x2="86.125" y2="36.577"/>
	<line style="fill:none;stroke:#000000;stroke-miterlimit:1;" x1="86.125" y1="36.577" x2="86.125" y2="34.761"/>
	<line style="fill:none;stroke:#000000;stroke-miterlimit:1;" x1="86.125" y1="34.761" x2="86.125" y2="31.908"/>
	<line style="fill:none;stroke:#000000;stroke-miterlimit:1;" x1="86.125" y1="31.908" x2="85.865" y2="30.351"/>
	<line style="fill:none;stroke:#000000;stroke-miterlimit:1;" x1="85.865" y1="30.351" x2="85.605" y2="28.016"/>
	<line style="fill:none;stroke:#000000;stroke-miterlimit:1;" x1="85.605" y1="28.016" x2="85.087" y2="26.46"/>
	<line style="fill:none;stroke:#000000;stroke-miterlimit:1;" x1="85.087" y1="26.46" x2="84.568" y2="23.866"/>
	<line style="fill:none;stroke:#000000;stroke-miterlimit:1;" x1="84.568" y1="23.866" x2="83.271" y2="21.012"/>
	<line style="fill:none;stroke:#000000;stroke-miterlimit:1;" x1="83.271" y1="21.012" x2="82.493" y2="19.456"/>
	<line style="fill:none;stroke:#000000;stroke-miterlimit:1;" x1="82.493" y1="19.456" x2="81.455" y2="17.64"/>
	<line style="fill:none;stroke:#000000;stroke-miterlimit:1;" x1="81.455" y1="17.64" x2="79.12" y2="14.268"/>
	<line style="fill:none;stroke:#000000;stroke-miterlimit:1;" x1="79.12" y1="14.268" x2="78.343" y2="13.23"/>
	<line style="fill:none;stroke:#000000;stroke-miterlimit:1;" x1="78.343" y1="13.23" x2="77.305" y2="11.933"/>
	<line style="fill:none;stroke:#000000;stroke-miterlimit:1;" x1="77.305" y1="11.933" x2="74.191" y2="9.339"/>
	<line style="fill:none;stroke:#000000;stroke-miterlimit:1;" x1="74.191" y1="9.339" x2="72.895" y2="8.042"/>
	<line style="fill:none;stroke:#000000;stroke-miterlimit:1;" x1="72.895" y1="8.042" x2="71.598" y2="7.004"/>
	<line style="fill:none;stroke:#000000;stroke-miterlimit:1;" x1="71.598" y1="7.004" x2="70.041" y2="5.966"/>
	<line style="fill:none;stroke:#000000;stroke-miterlimit:1;" x1="70.041" y1="5.966" x2="68.226" y2="4.929"/>
	<line style="fill:none;stroke:#000000;stroke-miterlimit:1;" x1="68.226" y1="4.929" x2="66.929" y2="4.15"/>
	<line style="fill:none;stroke:#000000;stroke-miterlimit:1;" x1="66.929" y1="4.15" x2="64.853" y2="3.372"/>
	<line style="fill:none;stroke:#000000;stroke-miterlimit:1;" x1="64.853" y1="3.372" x2="63.297" y2="2.594"/>
	<line style="fill:none;stroke:#000000;stroke-miterlimit:1;" x1="63.297" y1="2.594" x2="60.962" y2="2.075"/>
	<line style="fill:none;stroke:#000000;stroke-miterlimit:1;" x1="60.962" y1="2.075" x2="59.665" y2="1.556"/>
	<line style="fill:none;stroke:#000000;stroke-miterlimit:1;" x1="59.665" y1="1.556" x2="57.849" y2="1.038"/>
	<line style="fill:none;stroke:#000000;stroke-miterlimit:1;" x1="57.849" y1="1.038" x2="56.292" y2="0.778"/>
	<line style="fill:none;stroke:#000000;stroke-miterlimit:1;" x1="56.292" y1="0.778" x2="54.735" y2="0.259"/>
	<line style="fill:none;stroke:#000000;stroke-miterlimit:1;" x1="54.735" y1="0.259" x2="51.623" y2="0"/>
	<line style="fill:none;stroke:#000000;stroke-miterlimit:1;" x1="51.623" y1="0" x2="49.807" y2="0"/>
	<line style="fill:none;stroke:#000000;stroke-miterlimit:1;" x1="68.667" y1="141.11" x2="68.667" y2="148.114"/>
	<line style="fill:none;stroke:#000000;stroke-miterlimit:1;" x1="68.667" y1="148.114" x2="99.797" y2="148.114"/>
	<line style="fill:none;stroke:#000000;stroke-miterlimit:1;" x1="99.797" y1="148.114" x2="99.797" y2="95.713"/>
	<line style="fill:none;stroke:#000000;stroke-miterlimit:1;" x1="99.797" y1="95.713" x2="0.961" y2="95.713"/>
	<line style="fill:none;stroke:#000000;stroke-miterlimit:1;" x1="0.961" y1="95.713" x2="0.961" y2="148.114"/>
	<line style="fill:none;stroke:#000000;stroke-miterlimit:1;" x1="0.961" y1="148.114" x2="31.571" y2="148.114"/>
	<line style="fill:none;stroke:#000000;stroke-miterlimit:1;" x1="31.571" y1="148.114" x2="31.571" y2="141.11"/>
	<line style="fill:none;stroke:#000000;stroke-miterlimit:1;" x1="31.571" y1="141.11" x2="7.965" y2="141.11"/>
	<line style="fill:none;stroke:#000000;stroke-miterlimit:1;" x1="7.965" y1="141.11" x2="7.965" y2="103.495"/>
	<line style="fill:none;stroke:#000000;stroke-miterlimit:1;" x1="7.965" y1="103.495" x2="92.533" y2="103.495"/>
	<line style="fill:none;stroke:#000000;stroke-miterlimit:1;" x1="92.533" y1="103.495" x2="92.533" y2="141.11"/>
	<line style="fill:none;stroke:#000000;stroke-miterlimit:1;" x1="92.533" y1="141.11" x2="68.667" y2="141.11"/>
</g>
</svg>
