<?xml version="1.0" encoding="iso-8859-1"?>
<!-- Generator: Adobe Illustrator 16.0.1, SVG Export Plug-In . SVG Version: 6.00 Build 0)  -->
<!DOCTYPE svg PUBLIC "-//W3C//DTD SVG 1.1//EN" "http://www.w3.org/Graphics/SVG/1.1/DTD/svg11.dtd">
<svg version="1.1" id="Ebene_1" xmlns="http://www.w3.org/2000/svg" xmlns:xlink="http://www.w3.org/1999/xlink" x="0px" y="0px"
	 width="445.701px" height="148.115px" viewBox="0 0 445.701 148.115" style="enable-background:new 0 0 445.701 148.115;"
	 xml:space="preserve">
<g>
	<line style="fill:none;stroke:#000000;stroke-miterlimit:1;" x1="109.275" y1="71.712" x2="111.58" y2="67.763"/>
	<line style="fill:none;stroke:#000000;stroke-miterlimit:1;" x1="111.58" y1="67.763" x2="114.542" y2="64.8"/>
	<line style="fill:none;stroke:#000000;stroke-miterlimit:1;" x1="114.542" y1="64.8" x2="118.821" y2="63.813"/>
	<line style="fill:none;stroke:#000000;stroke-miterlimit:1;" x1="118.821" y1="63.813" x2="122.441" y2="64.471"/>
	<line style="fill:none;stroke:#000000;stroke-miterlimit:1;" x1="122.441" y1="64.471" x2="125.074" y2="66.775"/>
	<line style="fill:none;stroke:#000000;stroke-miterlimit:1;" x1="125.074" y1="66.775" x2="126.391" y2="68.75"/>
	<line style="fill:none;stroke:#000000;stroke-miterlimit:1;" x1="126.391" y1="68.75" x2="127.378" y2="73.358"/>
	<line style="fill:none;stroke:#000000;stroke-miterlimit:1;" x1="127.378" y1="73.358" x2="127.378" y2="126.68"/>
	<line style="fill:none;stroke:#000000;stroke-miterlimit:1;" x1="127.378" y1="126.68" x2="0" y2="126.68"/>
	<line style="fill:none;stroke:#000000;stroke-miterlimit:1;" x1="0" y1="126.68" x2="0" y2="73.358"/>
	<line style="fill:none;stroke:#000000;stroke-miterlimit:1;" x1="0" y1="73.358" x2="1.317" y2="68.75"/>
	<line style="fill:none;stroke:#000000;stroke-miterlimit:1;" x1="1.317" y1="68.75" x2="2.304" y2="66.775"/>
	<line style="fill:none;stroke:#000000;stroke-miterlimit:1;" x1="2.304" y1="66.775" x2="4.938" y2="64.471"/>
	<line style="fill:none;stroke:#000000;stroke-miterlimit:1;" x1="4.938" y1="64.471" x2="8.558" y2="63.813"/>
	<line style="fill:none;stroke:#000000;stroke-miterlimit:1;" x1="8.558" y1="63.813" x2="13.166" y2="64.8"/>
	<line style="fill:none;stroke:#000000;stroke-miterlimit:1;" x1="13.166" y1="64.8" x2="16.128" y2="67.763"/>
	<line style="fill:none;stroke:#000000;stroke-miterlimit:1;" x1="16.128" y1="67.763" x2="18.103" y2="71.383"/>
	<line style="fill:none;stroke:#000000;stroke-miterlimit:1;" x1="67.146" y1="22.999" x2="64.183" y2="22.999"/>
	<line style="fill:none;stroke:#000000;stroke-miterlimit:1;" x1="64.183" y1="22.999" x2="61.879" y2="22.999"/>
	<line style="fill:none;stroke:#000000;stroke-miterlimit:1;" x1="61.879" y1="22.999" x2="59.904" y2="23.328"/>
	<line style="fill:none;stroke:#000000;stroke-miterlimit:1;" x1="59.904" y1="23.328" x2="56.284" y2="23.986"/>
	<line style="fill:none;stroke:#000000;stroke-miterlimit:1;" x1="56.284" y1="23.986" x2="53.979" y2="24.315"/>
	<line style="fill:none;stroke:#000000;stroke-miterlimit:1;" x1="53.979" y1="24.315" x2="52.005" y2="24.974"/>
	<line style="fill:none;stroke:#000000;stroke-miterlimit:1;" x1="52.005" y1="24.974" x2="50.03" y2="25.632"/>
	<line style="fill:none;stroke:#000000;stroke-miterlimit:1;" x1="50.03" y1="25.632" x2="47.397" y2="26.291"/>
	<line style="fill:none;stroke:#000000;stroke-miterlimit:1;" x1="47.397" y1="26.291" x2="45.093" y2="27.278"/>
	<line style="fill:none;stroke:#000000;stroke-miterlimit:1;" x1="45.093" y1="27.278" x2="42.789" y2="28.265"/>
	<line style="fill:none;stroke:#000000;stroke-miterlimit:1;" x1="42.789" y1="28.265" x2="40.814" y2="29.253"/>
	<line style="fill:none;stroke:#000000;stroke-miterlimit:1;" x1="40.814" y1="29.253" x2="38.839" y2="30.569"/>
	<line style="fill:none;stroke:#000000;stroke-miterlimit:1;" x1="38.839" y1="30.569" x2="36.864" y2="31.886"/>
	<line style="fill:none;stroke:#000000;stroke-miterlimit:1;" x1="36.864" y1="31.886" x2="34.889" y2="33.203"/>
	<line style="fill:none;stroke:#000000;stroke-miterlimit:1;" x1="34.889" y1="33.203" x2="33.244" y2="34.848"/>
	<line style="fill:none;stroke:#000000;stroke-miterlimit:1;" x1="33.244" y1="34.848" x2="29.623" y2="38.14"/>
	<line style="fill:none;stroke:#000000;stroke-miterlimit:1;" x1="29.623" y1="38.14" x2="28.307" y2="39.785"/>
	<line style="fill:none;stroke:#000000;stroke-miterlimit:1;" x1="28.307" y1="39.785" x2="26.99" y2="41.102"/>
	<line style="fill:none;stroke:#000000;stroke-miterlimit:1;" x1="26.99" y1="41.102" x2="24.686" y2="44.394"/>
	<line style="fill:none;stroke:#000000;stroke-miterlimit:1;" x1="24.686" y1="44.394" x2="22.711" y2="47.685"/>
	<line style="fill:none;stroke:#000000;stroke-miterlimit:1;" x1="22.711" y1="47.685" x2="21.724" y2="49.66"/>
	<line style="fill:none;stroke:#000000;stroke-miterlimit:1;" x1="21.724" y1="49.66" x2="21.065" y2="51.964"/>
	<line style="fill:none;stroke:#000000;stroke-miterlimit:1;" x1="21.065" y1="51.964" x2="19.749" y2="56.572"/>
	<line style="fill:none;stroke:#000000;stroke-miterlimit:1;" x1="19.749" y1="56.572" x2="18.761" y2="58.546"/>
	<line style="fill:none;stroke:#000000;stroke-miterlimit:1;" x1="18.761" y1="58.546" x2="18.432" y2="61.509"/>
	<line style="fill:none;stroke:#000000;stroke-miterlimit:1;" x1="18.432" y1="61.509" x2="18.103" y2="63.484"/>
	<line style="fill:none;stroke:#000000;stroke-miterlimit:1;" x1="18.103" y1="63.484" x2="18.103" y2="67.104"/>
	<line style="fill:none;stroke:#000000;stroke-miterlimit:1;" x1="18.103" y1="67.104" x2="18.103" y2="69.408"/>
	<line style="fill:none;stroke:#000000;stroke-miterlimit:1;" x1="18.103" y1="69.408" x2="18.103" y2="72.7"/>
	<line style="fill:none;stroke:#000000;stroke-miterlimit:1;" x1="18.103" y1="72.7" x2="18.432" y2="75.004"/>
	<line style="fill:none;stroke:#000000;stroke-miterlimit:1;" x1="18.432" y1="75.004" x2="19.749" y2="79.611"/>
	<line style="fill:none;stroke:#000000;stroke-miterlimit:1;" x1="19.749" y1="79.611" x2="20.407" y2="82.574"/>
	<line style="fill:none;stroke:#000000;stroke-miterlimit:1;" x1="20.407" y1="82.574" x2="21.065" y2="84.219"/>
	<line style="fill:none;stroke:#000000;stroke-miterlimit:1;" x1="21.065" y1="84.219" x2="22.382" y2="87.182"/>
	<line style="fill:none;stroke:#000000;stroke-miterlimit:1;" x1="22.382" y1="87.182" x2="23.04" y2="89.156"/>
	<line style="fill:none;stroke:#000000;stroke-miterlimit:1;" x1="23.04" y1="89.156" x2="25.015" y2="91.131"/>
	<line style="fill:none;stroke:#000000;stroke-miterlimit:1;" x1="25.015" y1="91.131" x2="25.673" y2="92.777"/>
	<line style="fill:none;stroke:#000000;stroke-miterlimit:1;" x1="25.673" y1="92.777" x2="27.319" y2="94.752"/>
	<line style="fill:none;stroke:#000000;stroke-miterlimit:1;" x1="27.319" y1="94.752" x2="28.636" y2="96.398"/>
	<line style="fill:none;stroke:#000000;stroke-miterlimit:1;" x1="28.636" y1="96.398" x2="30.281" y2="98.701"/>
	<line style="fill:none;stroke:#000000;stroke-miterlimit:1;" x1="30.281" y1="98.701" x2="33.573" y2="101.664"/>
	<line style="fill:none;stroke:#000000;stroke-miterlimit:1;" x1="33.573" y1="101.664" x2="35.877" y2="103.311"/>
	<line style="fill:none;stroke:#000000;stroke-miterlimit:1;" x1="35.877" y1="103.311" x2="38.181" y2="104.955"/>
	<line style="fill:none;stroke:#000000;stroke-miterlimit:1;" x1="38.181" y1="104.955" x2="39.497" y2="105.943"/>
	<line style="fill:none;stroke:#000000;stroke-miterlimit:1;" x1="39.497" y1="105.943" x2="41.472" y2="107.26"/>
	<line style="fill:none;stroke:#000000;stroke-miterlimit:1;" x1="41.472" y1="107.26" x2="43.447" y2="108.248"/>
	<line style="fill:none;stroke:#000000;stroke-miterlimit:1;" x1="43.447" y1="108.248" x2="46.409" y2="109.234"/>
	<line style="fill:none;stroke:#000000;stroke-miterlimit:1;" x1="46.409" y1="109.234" x2="48.384" y2="110.223"/>
	<line style="fill:none;stroke:#000000;stroke-miterlimit:1;" x1="48.384" y1="110.223" x2="51.017" y2="110.881"/>
	<line style="fill:none;stroke:#000000;stroke-miterlimit:1;" x1="51.017" y1="110.881" x2="52.663" y2="111.209"/>
	<line style="fill:none;stroke:#000000;stroke-miterlimit:1;" x1="52.663" y1="111.209" x2="54.967" y2="111.867"/>
	<line style="fill:none;stroke:#000000;stroke-miterlimit:1;" x1="54.967" y1="111.867" x2="57.271" y2="112.197"/>
	<line style="fill:none;stroke:#000000;stroke-miterlimit:1;" x1="57.271" y1="112.197" x2="59.904" y2="112.525"/>
	<line style="fill:none;stroke:#000000;stroke-miterlimit:1;" x1="59.904" y1="112.525" x2="61.879" y2="112.525"/>
	<line style="fill:none;stroke:#000000;stroke-miterlimit:1;" x1="61.879" y1="112.525" x2="64.841" y2="112.525"/>
	<line style="fill:none;stroke:#000000;stroke-miterlimit:1;" x1="64.841" y1="112.525" x2="67.146" y2="112.197"/>
	<line style="fill:none;stroke:#000000;stroke-miterlimit:1;" x1="67.146" y1="112.197" x2="67.804" y2="112.525"/>
	<line style="fill:none;stroke:#000000;stroke-miterlimit:1;" x1="67.804" y1="112.525" x2="70.437" y2="112.197"/>
	<line style="fill:none;stroke:#000000;stroke-miterlimit:1;" x1="70.437" y1="112.197" x2="72.412" y2="111.867"/>
	<line style="fill:none;stroke:#000000;stroke-miterlimit:1;" x1="72.412" y1="111.867" x2="75.045" y2="111.209"/>
	<line style="fill:none;stroke:#000000;stroke-miterlimit:1;" x1="75.045" y1="111.209" x2="76.361" y2="110.881"/>
	<line style="fill:none;stroke:#000000;stroke-miterlimit:1;" x1="76.361" y1="110.881" x2="78.995" y2="110.223"/>
	<line style="fill:none;stroke:#000000;stroke-miterlimit:1;" x1="78.995" y1="110.223" x2="80.969" y2="109.234"/>
	<line style="fill:none;stroke:#000000;stroke-miterlimit:1;" x1="80.969" y1="109.234" x2="83.932" y2="108.248"/>
	<line style="fill:none;stroke:#000000;stroke-miterlimit:1;" x1="83.932" y1="108.248" x2="85.906" y2="107.26"/>
	<line style="fill:none;stroke:#000000;stroke-miterlimit:1;" x1="85.906" y1="107.26" x2="87.881" y2="105.943"/>
	<line style="fill:none;stroke:#000000;stroke-miterlimit:1;" x1="87.881" y1="105.943" x2="89.198" y2="104.955"/>
	<line style="fill:none;stroke:#000000;stroke-miterlimit:1;" x1="89.198" y1="104.955" x2="91.831" y2="103.311"/>
	<line style="fill:none;stroke:#000000;stroke-miterlimit:1;" x1="91.831" y1="103.311" x2="93.806" y2="101.664"/>
	<line style="fill:none;stroke:#000000;stroke-miterlimit:1;" x1="93.806" y1="101.664" x2="97.097" y2="98.701"/>
	<line style="fill:none;stroke:#000000;stroke-miterlimit:1;" x1="97.097" y1="98.701" x2="98.743" y2="96.398"/>
	<line style="fill:none;stroke:#000000;stroke-miterlimit:1;" x1="98.743" y1="96.398" x2="100.06" y2="94.752"/>
	<line style="fill:none;stroke:#000000;stroke-miterlimit:1;" x1="100.06" y1="94.752" x2="101.705" y2="92.777"/>
	<line style="fill:none;stroke:#000000;stroke-miterlimit:1;" x1="101.705" y1="92.777" x2="102.693" y2="91.131"/>
	<line style="fill:none;stroke:#000000;stroke-miterlimit:1;" x1="102.693" y1="91.131" x2="104.338" y2="89.156"/>
	<line style="fill:none;stroke:#000000;stroke-miterlimit:1;" x1="104.338" y1="89.156" x2="105.326" y2="87.182"/>
	<line style="fill:none;stroke:#000000;stroke-miterlimit:1;" x1="105.326" y1="87.182" x2="106.313" y2="84.219"/>
	<line style="fill:none;stroke:#000000;stroke-miterlimit:1;" x1="106.313" y1="84.219" x2="107.301" y2="82.574"/>
	<line style="fill:none;stroke:#000000;stroke-miterlimit:1;" x1="107.301" y1="82.574" x2="107.959" y2="79.611"/>
	<line style="fill:none;stroke:#000000;stroke-miterlimit:1;" x1="107.959" y1="79.611" x2="108.946" y2="75.004"/>
	<line style="fill:none;stroke:#000000;stroke-miterlimit:1;" x1="108.946" y1="75.004" x2="109.275" y2="72.7"/>
	<line style="fill:none;stroke:#000000;stroke-miterlimit:1;" x1="109.275" y1="72.7" x2="109.275" y2="69.408"/>
	<line style="fill:none;stroke:#000000;stroke-miterlimit:1;" x1="109.275" y1="69.408" x2="109.275" y2="67.104"/>
	<line style="fill:none;stroke:#000000;stroke-miterlimit:1;" x1="109.275" y1="67.104" x2="109.275" y2="63.484"/>
	<line style="fill:none;stroke:#000000;stroke-miterlimit:1;" x1="109.275" y1="63.484" x2="108.946" y2="61.509"/>
	<line style="fill:none;stroke:#000000;stroke-miterlimit:1;" x1="108.946" y1="61.509" x2="108.617" y2="58.546"/>
	<line style="fill:none;stroke:#000000;stroke-miterlimit:1;" x1="108.617" y1="58.546" x2="107.959" y2="56.572"/>
	<line style="fill:none;stroke:#000000;stroke-miterlimit:1;" x1="107.959" y1="56.572" x2="107.301" y2="53.28"/>
	<line style="fill:none;stroke:#000000;stroke-miterlimit:1;" x1="107.301" y1="53.28" x2="105.655" y2="49.66"/>
	<line style="fill:none;stroke:#000000;stroke-miterlimit:1;" x1="105.655" y1="49.66" x2="104.667" y2="47.685"/>
	<line style="fill:none;stroke:#000000;stroke-miterlimit:1;" x1="104.667" y1="47.685" x2="103.351" y2="45.381"/>
	<line style="fill:none;stroke:#000000;stroke-miterlimit:1;" x1="103.351" y1="45.381" x2="100.389" y2="41.102"/>
	<line style="fill:none;stroke:#000000;stroke-miterlimit:1;" x1="100.389" y1="41.102" x2="99.401" y2="39.785"/>
	<line style="fill:none;stroke:#000000;stroke-miterlimit:1;" x1="99.401" y1="39.785" x2="98.085" y2="38.14"/>
	<line style="fill:none;stroke:#000000;stroke-miterlimit:1;" x1="98.085" y1="38.14" x2="94.135" y2="34.848"/>
	<line style="fill:none;stroke:#000000;stroke-miterlimit:1;" x1="94.135" y1="34.848" x2="92.489" y2="33.203"/>
	<line style="fill:none;stroke:#000000;stroke-miterlimit:1;" x1="92.489" y1="33.203" x2="90.844" y2="31.886"/>
	<line style="fill:none;stroke:#000000;stroke-miterlimit:1;" x1="90.844" y1="31.886" x2="88.869" y2="30.569"/>
	<line style="fill:none;stroke:#000000;stroke-miterlimit:1;" x1="88.869" y1="30.569" x2="86.565" y2="29.253"/>
	<line style="fill:none;stroke:#000000;stroke-miterlimit:1;" x1="86.565" y1="29.253" x2="84.919" y2="28.265"/>
	<line style="fill:none;stroke:#000000;stroke-miterlimit:1;" x1="84.919" y1="28.265" x2="82.286" y2="27.278"/>
	<line style="fill:none;stroke:#000000;stroke-miterlimit:1;" x1="82.286" y1="27.278" x2="80.311" y2="26.291"/>
	<line style="fill:none;stroke:#000000;stroke-miterlimit:1;" x1="80.311" y1="26.291" x2="77.349" y2="25.632"/>
	<line style="fill:none;stroke:#000000;stroke-miterlimit:1;" x1="77.349" y1="25.632" x2="75.703" y2="24.974"/>
	<line style="fill:none;stroke:#000000;stroke-miterlimit:1;" x1="75.703" y1="24.974" x2="73.399" y2="24.315"/>
	<line style="fill:none;stroke:#000000;stroke-miterlimit:1;" x1="73.399" y1="24.315" x2="71.424" y2="23.986"/>
	<line style="fill:none;stroke:#000000;stroke-miterlimit:1;" x1="71.424" y1="23.986" x2="69.449" y2="23.328"/>
	<line style="fill:none;stroke:#000000;stroke-miterlimit:1;" x1="69.449" y1="23.328" x2="65.5" y2="22.999"/>
	<line style="fill:none;stroke:#000000;stroke-miterlimit:1;" x1="65.5" y1="22.999" x2="63.196" y2="22.999"/>
	<line style="fill:none;stroke:#000000;stroke-miterlimit:1;" x1="186.666" y1="26.99" x2="171.196" y2="30.61"/>
	<line style="fill:none;stroke:#000000;stroke-miterlimit:1;" x1="171.196" y1="30.61" x2="164.942" y2="33.902"/>
	<line style="fill:none;stroke:#000000;stroke-miterlimit:1;" x1="164.942" y1="33.902" x2="162.638" y2="36.206"/>
	<line style="fill:none;stroke:#000000;stroke-miterlimit:1;" x1="162.638" y1="36.206" x2="160.992" y2="39.498"/>
	<line style="fill:none;stroke:#000000;stroke-miterlimit:1;" x1="160.992" y1="39.498" x2="160.663" y2="42.459"/>
	<line style="fill:none;stroke:#000000;stroke-miterlimit:1;" x1="160.663" y1="42.459" x2="160.663" y2="45.093"/>
	<line style="fill:none;stroke:#000000;stroke-miterlimit:1;" x1="160.663" y1="45.093" x2="162.967" y2="50.03"/>
	<line style="fill:none;stroke:#000000;stroke-miterlimit:1;" x1="162.967" y1="50.03" x2="166.258" y2="54.967"/>
	<line style="fill:none;stroke:#000000;stroke-miterlimit:1;" x1="166.258" y1="54.967" x2="174.487" y2="61.55"/>
	<line style="fill:none;stroke:#000000;stroke-miterlimit:1;" x1="174.487" y1="61.55" x2="255.127" y2="104.01"/>
	<line style="fill:none;stroke:#000000;stroke-miterlimit:1;" x1="255.127" y1="104.01" x2="267.635" y2="110.592"/>
	<line style="fill:none;stroke:#000000;stroke-miterlimit:1;" x1="267.635" y1="110.592" x2="280.143" y2="118.492"/>
	<line style="fill:none;stroke:#000000;stroke-miterlimit:1;" x1="280.143" y1="118.492" x2="286.725" y2="123.1"/>
	<line style="fill:none;stroke:#000000;stroke-miterlimit:1;" x1="286.725" y1="123.1" x2="288.699" y2="122.77"/>
	<line style="fill:none;stroke:#000000;stroke-miterlimit:1;" x1="288.699" y1="122.77" x2="289.357" y2="120.795"/>
	<line style="fill:none;stroke:#000000;stroke-miterlimit:1;" x1="289.357" y1="120.795" x2="286.066" y2="116.188"/>
	<line style="fill:none;stroke:#000000;stroke-miterlimit:1;" x1="286.066" y1="116.188" x2="263.027" y2="96.109"/>
	<line style="fill:none;stroke:#000000;stroke-miterlimit:1;" x1="263.027" y1="96.109" x2="254.139" y2="85.906"/>
	<line style="fill:none;stroke:#000000;stroke-miterlimit:1;" x1="254.139" y1="85.906" x2="222.213" y2="44.105"/>
	<line style="fill:none;stroke:#000000;stroke-miterlimit:1;" x1="222.213" y1="44.105" x2="212.009" y2="32.585"/>
	<line style="fill:none;stroke:#000000;stroke-miterlimit:1;" x1="212.009" y1="32.585" x2="202.464" y2="23.699"/>
	<line style="fill:none;stroke:#000000;stroke-miterlimit:1;" x1="202.464" y1="23.699" x2="196.21" y2="21.065"/>
	<line style="fill:none;stroke:#000000;stroke-miterlimit:1;" x1="196.21" y1="21.065" x2="191.932" y2="12.837"/>
	<line style="fill:none;stroke:#000000;stroke-miterlimit:1;" x1="191.932" y1="12.837" x2="186.336" y2="4.938"/>
	<line style="fill:none;stroke:#000000;stroke-miterlimit:1;" x1="186.336" y1="4.938" x2="183.045" y2="2.304"/>
	<line style="fill:none;stroke:#000000;stroke-miterlimit:1;" x1="183.045" y1="2.304" x2="177.778" y2="0.659"/>
	<line style="fill:none;stroke:#000000;stroke-miterlimit:1;" x1="177.778" y1="0.659" x2="168.892" y2="0"/>
	<line style="fill:none;stroke:#000000;stroke-miterlimit:1;" x1="168.892" y1="0" x2="160.334" y2="0.988"/>
	<line style="fill:none;stroke:#000000;stroke-miterlimit:1;" x1="160.334" y1="0.988" x2="155.726" y2="2.962"/>
	<line style="fill:none;stroke:#000000;stroke-miterlimit:1;" x1="155.726" y1="2.962" x2="153.093" y2="6.254"/>
	<line style="fill:none;stroke:#000000;stroke-miterlimit:1;" x1="153.093" y1="6.254" x2="150.459" y2="10.533"/>
	<line style="fill:none;stroke:#000000;stroke-miterlimit:1;" x1="150.459" y1="10.533" x2="145.852" y2="12.837"/>
	<line style="fill:none;stroke:#000000;stroke-miterlimit:1;" x1="145.852" y1="12.837" x2="142.889" y2="16.128"/>
	<line style="fill:none;stroke:#000000;stroke-miterlimit:1;" x1="142.889" y1="16.128" x2="140.915" y2="21.395"/>
	<line style="fill:none;stroke:#000000;stroke-miterlimit:1;" x1="140.915" y1="21.395" x2="141.244" y2="25.344"/>
	<line style="fill:none;stroke:#000000;stroke-miterlimit:1;" x1="141.244" y1="25.344" x2="141.902" y2="26.661"/>
	<line style="fill:none;stroke:#000000;stroke-miterlimit:1;" x1="141.902" y1="26.661" x2="142.56" y2="24.686"/>
	<line style="fill:none;stroke:#000000;stroke-miterlimit:1;" x1="142.56" y1="24.686" x2="144.535" y2="21.065"/>
	<line style="fill:none;stroke:#000000;stroke-miterlimit:1;" x1="144.535" y1="21.065" x2="148.156" y2="18.432"/>
	<line style="fill:none;stroke:#000000;stroke-miterlimit:1;" x1="148.156" y1="18.432" x2="151.447" y2="17.774"/>
	<line style="fill:none;stroke:#000000;stroke-miterlimit:1;" x1="151.447" y1="17.774" x2="155.067" y2="18.761"/>
	<line style="fill:none;stroke:#000000;stroke-miterlimit:1;" x1="155.067" y1="18.761" x2="157.042" y2="20.407"/>
	<line style="fill:none;stroke:#000000;stroke-miterlimit:1;" x1="157.042" y1="20.407" x2="157.701" y2="20.407"/>
	<line style="fill:none;stroke:#000000;stroke-miterlimit:1;" x1="157.701" y1="20.407" x2="158.359" y2="19.419"/>
	<line style="fill:none;stroke:#000000;stroke-miterlimit:1;" x1="158.359" y1="19.419" x2="157.372" y2="15.47"/>
	<line style="fill:none;stroke:#000000;stroke-miterlimit:1;" x1="157.372" y1="15.47" x2="159.017" y2="15.141"/>
	<line style="fill:none;stroke:#000000;stroke-miterlimit:1;" x1="159.017" y1="15.141" x2="160.005" y2="13.166"/>
	<line style="fill:none;stroke:#000000;stroke-miterlimit:1;" x1="160.005" y1="13.166" x2="160.005" y2="11.52"/>
	<line style="fill:none;stroke:#000000;stroke-miterlimit:1;" x1="160.005" y1="11.52" x2="158.688" y2="9.875"/>
	<line style="fill:none;stroke:#000000;stroke-miterlimit:1;" x1="158.688" y1="9.875" x2="157.042" y2="9.875"/>
	<line style="fill:none;stroke:#000000;stroke-miterlimit:1;" x1="157.042" y1="9.875" x2="155.397" y2="11.191"/>
	<line style="fill:none;stroke:#000000;stroke-miterlimit:1;" x1="155.397" y1="11.191" x2="155.067" y2="13.495"/>
	<line style="fill:none;stroke:#000000;stroke-miterlimit:1;" x1="155.067" y1="13.495" x2="156.055" y2="14.482"/>
	<line style="fill:none;stroke:#000000;stroke-miterlimit:1;" x1="156.055" y1="14.482" x2="157.701" y2="15.141"/>
	<line style="fill:none;stroke:#000000;stroke-miterlimit:1;" x1="159.017" y1="9.545" x2="163.296" y2="9.875"/>
	<line style="fill:none;stroke:#000000;stroke-miterlimit:1;" x1="163.296" y1="9.875" x2="167.246" y2="10.204"/>
	<line style="fill:none;stroke:#000000;stroke-miterlimit:1;" x1="167.246" y1="10.204" x2="171.196" y2="12.508"/>
	<line style="fill:none;stroke:#000000;stroke-miterlimit:1;" x1="171.196" y1="12.508" x2="173.5" y2="16.458"/>
	<line style="fill:none;stroke:#000000;stroke-miterlimit:1;" x1="173.5" y1="16.458" x2="173.17" y2="21.724"/>
	<line style="fill:none;stroke:#000000;stroke-miterlimit:1;" x1="173.17" y1="21.724" x2="170.866" y2="25.344"/>
	<line style="fill:none;stroke:#000000;stroke-miterlimit:1;" x1="170.866" y1="25.344" x2="163.625" y2="29.623"/>
	<line style="fill:none;stroke:#000000;stroke-miterlimit:1;" x1="162.967" y1="28.965" x2="164.942" y2="27.648"/>
	<line style="fill:none;stroke:#000000;stroke-miterlimit:1;" x1="164.942" y1="27.648" x2="167.246" y2="25.344"/>
	<line style="fill:none;stroke:#000000;stroke-miterlimit:1;" x1="167.246" y1="25.344" x2="168.233" y2="22.053"/>
	<line style="fill:none;stroke:#000000;stroke-miterlimit:1;" x1="168.233" y1="22.053" x2="167.575" y2="19.419"/>
	<line style="fill:none;stroke:#000000;stroke-miterlimit:1;" x1="167.575" y1="19.419" x2="165.6" y2="18.432"/>
	<line style="fill:none;stroke:#000000;stroke-miterlimit:1;" x1="165.6" y1="18.432" x2="162.967" y2="18.761"/>
	<line style="fill:none;stroke:#000000;stroke-miterlimit:1;" x1="162.967" y1="18.761" x2="161.321" y2="21.065"/>
	<line style="fill:none;stroke:#000000;stroke-miterlimit:1;" x1="161.321" y1="21.065" x2="160.992" y2="23.04"/>
	<line style="fill:none;stroke:#000000;stroke-miterlimit:1;" x1="160.992" y1="23.04" x2="161.65" y2="27.648"/>
	<line style="fill:none;stroke:#000000;stroke-miterlimit:1;" x1="161.65" y1="27.648" x2="160.663" y2="29.623"/>
	<line style="fill:none;stroke:#000000;stroke-miterlimit:1;" x1="160.663" y1="29.623" x2="160.334" y2="30.61"/>
	<line style="fill:none;stroke:#000000;stroke-miterlimit:1;" x1="160.334" y1="30.61" x2="159.017" y2="30.281"/>
	<line style="fill:none;stroke:#000000;stroke-miterlimit:1;" x1="159.017" y1="30.281" x2="158.359" y2="27.978"/>
	<line style="fill:none;stroke:#000000;stroke-miterlimit:1;" x1="158.359" y1="27.978" x2="155.397" y2="22.382"/>
	<line style="fill:none;stroke:#000000;stroke-miterlimit:1;" x1="155.397" y1="22.382" x2="152.764" y2="19.749"/>
	<line style="fill:none;stroke:#000000;stroke-miterlimit:1;" x1="152.764" y1="19.749" x2="150.13" y2="19.09"/>
	<line style="fill:none;stroke:#000000;stroke-miterlimit:1;" x1="150.13" y1="19.09" x2="147.497" y2="19.09"/>
	<line style="fill:none;stroke:#000000;stroke-miterlimit:1;" x1="144.535" y1="22.053" x2="146.181" y2="21.724"/>
	<line style="fill:none;stroke:#000000;stroke-miterlimit:1;" x1="146.181" y1="21.724" x2="150.13" y2="21.724"/>
	<line style="fill:none;stroke:#000000;stroke-miterlimit:1;" x1="150.13" y1="21.724" x2="153.751" y2="25.344"/>
	<line style="fill:none;stroke:#000000;stroke-miterlimit:1;" x1="153.751" y1="25.344" x2="156.055" y2="32.915"/>
	<line style="fill:none;stroke:#000000;stroke-miterlimit:1;" x1="156.055" y1="32.915" x2="156.384" y2="41.801"/>
	<line style="fill:none;stroke:#000000;stroke-miterlimit:1;" x1="156.384" y1="41.801" x2="156.713" y2="49.701"/>
	<line style="fill:none;stroke:#000000;stroke-miterlimit:1;" x1="156.713" y1="49.701" x2="158.359" y2="54.309"/>
	<line style="fill:none;stroke:#000000;stroke-miterlimit:1;" x1="158.359" y1="54.309" x2="160.334" y2="59.246"/>
	<line style="fill:none;stroke:#000000;stroke-miterlimit:1;" x1="160.334" y1="59.246" x2="169.221" y2="70.437"/>
	<line style="fill:none;stroke:#000000;stroke-miterlimit:1;" x1="169.221" y1="70.437" x2="187.324" y2="93.807"/>
	<line style="fill:none;stroke:#000000;stroke-miterlimit:1;" x1="187.324" y1="93.807" x2="196.54" y2="104.338"/>
	<line style="fill:none;stroke:#000000;stroke-miterlimit:1;" x1="196.54" y1="104.338" x2="203.123" y2="119.15"/>
	<line style="fill:none;stroke:#000000;stroke-miterlimit:1;" x1="203.123" y1="119.15" x2="203.781" y2="129.354"/>
	<line style="fill:none;stroke:#000000;stroke-miterlimit:1;" x1="203.781" y1="129.354" x2="202.464" y2="139.887"/>
	<line style="fill:none;stroke:#000000;stroke-miterlimit:1;" x1="202.464" y1="139.887" x2="189.627" y2="141.861"/>
	<line style="fill:none;stroke:#000000;stroke-miterlimit:1;" x1="189.627" y1="141.861" x2="187.653" y2="144.822"/>
	<line style="fill:none;stroke:#000000;stroke-miterlimit:1;" x1="187.653" y1="144.822" x2="187.653" y2="146.141"/>
	<line style="fill:none;stroke:#000000;stroke-miterlimit:1;" x1="188.64" y1="142.52" x2="186.666" y2="143.178"/>
	<line style="fill:none;stroke:#000000;stroke-miterlimit:1;" x1="186.666" y1="143.178" x2="184.361" y2="144.164"/>
	<line style="fill:none;stroke:#000000;stroke-miterlimit:1;" x1="184.361" y1="144.164" x2="183.703" y2="147.457"/>
	<line style="fill:none;stroke:#000000;stroke-miterlimit:1;" x1="183.703" y1="147.457" x2="187.653" y2="146.469"/>
	<line style="fill:none;stroke:#000000;stroke-miterlimit:1;" x1="187.653" y1="146.469" x2="188.969" y2="147.785"/>
	<line style="fill:none;stroke:#000000;stroke-miterlimit:1;" x1="188.969" y1="147.785" x2="207.401" y2="146.469"/>
	<line style="fill:none;stroke:#000000;stroke-miterlimit:1;" x1="207.401" y1="146.469" x2="222.871" y2="147.457"/>
	<line style="fill:none;stroke:#000000;stroke-miterlimit:1;" x1="222.871" y1="147.457" x2="224.188" y2="145.811"/>
	<line style="fill:none;stroke:#000000;stroke-miterlimit:1;" x1="224.188" y1="145.811" x2="222.871" y2="141.861"/>
	<line style="fill:none;stroke:#000000;stroke-miterlimit:1;" x1="224.188" y1="146.141" x2="225.834" y2="146.141"/>
	<line style="fill:none;stroke:#000000;stroke-miterlimit:1;" x1="225.834" y1="146.141" x2="229.125" y2="147.785"/>
	<line style="fill:none;stroke:#000000;stroke-miterlimit:1;" x1="229.125" y1="147.785" x2="228.137" y2="144.164"/>
	<line style="fill:none;stroke:#000000;stroke-miterlimit:1;" x1="228.137" y1="144.164" x2="226.82" y2="143.178"/>
	<line style="fill:none;stroke:#000000;stroke-miterlimit:1;" x1="226.82" y1="143.178" x2="224.518" y2="141.861"/>
	<line style="fill:none;stroke:#000000;stroke-miterlimit:1;" x1="224.518" y1="141.861" x2="220.567" y2="141.531"/>
	<line style="fill:none;stroke:#000000;stroke-miterlimit:1;" x1="220.567" y1="141.531" x2="210.035" y2="140.215"/>
	<line style="fill:none;stroke:#000000;stroke-miterlimit:1;" x1="210.035" y1="140.215" x2="211.351" y2="126.062"/>
	<line style="fill:none;stroke:#000000;stroke-miterlimit:1;" x1="211.351" y1="126.062" x2="217.276" y2="127.379"/>
	<line style="fill:none;stroke:#000000;stroke-miterlimit:1;" x1="217.276" y1="127.379" x2="222.542" y2="131.658"/>
	<line style="fill:none;stroke:#000000;stroke-miterlimit:1;" x1="222.542" y1="131.658" x2="222.213" y2="102.035"/>
	<line style="fill:none;stroke:#000000;stroke-miterlimit:1;" x1="222.213" y1="102.035" x2="231.428" y2="105.654"/>
	<line style="fill:none;stroke:#000000;stroke-miterlimit:1;" x1="231.428" y1="105.654" x2="237.023" y2="109.275"/>
	<line style="fill:none;stroke:#000000;stroke-miterlimit:1;" x1="237.023" y1="109.275" x2="240.975" y2="116.188"/>
	<line style="fill:none;stroke:#000000;stroke-miterlimit:1;" x1="240.975" y1="116.188" x2="257.76" y2="147.785"/>
	<line style="fill:none;stroke:#000000;stroke-miterlimit:1;" x1="257.76" y1="147.785" x2="280.471" y2="133.303"/>
	<line style="fill:none;stroke:#000000;stroke-miterlimit:1;" x1="280.471" y1="133.303" x2="263.027" y2="108.289"/>
	<line style="fill:none;stroke:#000000;stroke-miterlimit:1;" x1="191.273" y1="140.873" x2="195.223" y2="124.416"/>
	<line style="fill:none;stroke:#000000;stroke-miterlimit:1;" x1="195.223" y1="124.416" x2="200.489" y2="125.732"/>
	<line style="fill:none;stroke:#000000;stroke-miterlimit:1;" x1="200.489" y1="125.732" x2="203.781" y2="129.023"/>
	<line style="fill:none;stroke:#000000;stroke-miterlimit:1;" x1="190.286" y1="141.531" x2="183.703" y2="142.52"/>
	<line style="fill:none;stroke:#000000;stroke-miterlimit:1;" x1="183.703" y1="142.52" x2="180.741" y2="143.506"/>
	<line style="fill:none;stroke:#000000;stroke-miterlimit:1;" x1="180.741" y1="143.506" x2="179.424" y2="145.48"/>
	<line style="fill:none;stroke:#000000;stroke-miterlimit:1;" x1="179.424" y1="145.48" x2="180.083" y2="147.785"/>
	<line style="fill:none;stroke:#000000;stroke-miterlimit:1;" x1="180.083" y1="147.785" x2="184.361" y2="146.469"/>
	<line style="fill:none;stroke:#000000;stroke-miterlimit:1;" x1="180.741" y1="143.178" x2="177.12" y2="144.494"/>
	<line style="fill:none;stroke:#000000;stroke-miterlimit:1;" x1="177.12" y1="144.494" x2="176.133" y2="148.115"/>
	<line style="fill:none;stroke:#000000;stroke-miterlimit:1;" x1="176.133" y1="148.115" x2="179.424" y2="146.799"/>
	<line style="fill:none;stroke:#000000;stroke-miterlimit:1;" x1="174.158" y1="77.02" x2="178.766" y2="87.553"/>
	<line style="fill:none;stroke:#000000;stroke-miterlimit:1;" x1="178.766" y1="87.553" x2="184.69" y2="104.338"/>
	<line style="fill:none;stroke:#000000;stroke-miterlimit:1;" x1="184.69" y1="104.338" x2="186.995" y2="117.834"/>
	<line style="fill:none;stroke:#000000;stroke-miterlimit:1;" x1="186.995" y1="117.834" x2="186.666" y2="126.062"/>
	<line style="fill:none;stroke:#000000;stroke-miterlimit:1;" x1="186.666" y1="126.062" x2="183.374" y2="140.545"/>
	<line style="fill:none;stroke:#000000;stroke-miterlimit:1;" x1="183.374" y1="140.545" x2="171.854" y2="141.861"/>
	<line style="fill:none;stroke:#000000;stroke-miterlimit:1;" x1="171.854" y1="141.861" x2="169.221" y2="143.836"/>
	<line style="fill:none;stroke:#000000;stroke-miterlimit:1;" x1="169.221" y1="143.836" x2="169.221" y2="146.141"/>
	<line style="fill:none;stroke:#000000;stroke-miterlimit:1;" x1="169.221" y1="146.141" x2="169.55" y2="147.457"/>
	<line style="fill:none;stroke:#000000;stroke-miterlimit:1;" x1="169.55" y1="147.457" x2="176.133" y2="146.799"/>
	<line style="fill:none;stroke:#000000;stroke-miterlimit:1;" x1="169.221" y1="143.178" x2="165.929" y2="144.494"/>
	<line style="fill:none;stroke:#000000;stroke-miterlimit:1;" x1="165.929" y1="144.494" x2="164.942" y2="145.811"/>
	<line style="fill:none;stroke:#000000;stroke-miterlimit:1;" x1="164.942" y1="145.811" x2="164.613" y2="148.115"/>
	<line style="fill:none;stroke:#000000;stroke-miterlimit:1;" x1="164.613" y1="148.115" x2="168.562" y2="146.799"/>
	<line style="fill:none;stroke:#000000;stroke-miterlimit:1;" x1="172.183" y1="141.861" x2="164.613" y2="143.178"/>
	<line style="fill:none;stroke:#000000;stroke-miterlimit:1;" x1="164.613" y1="143.178" x2="162.309" y2="144.822"/>
	<line style="fill:none;stroke:#000000;stroke-miterlimit:1;" x1="162.309" y1="144.822" x2="161.65" y2="147.785"/>
	<line style="fill:none;stroke:#000000;stroke-miterlimit:1;" x1="161.65" y1="147.785" x2="164.613" y2="146.799"/>
	<line style="fill:none;stroke:#000000;stroke-miterlimit:1;" x1="163.296" y1="143.506" x2="159.017" y2="144.822"/>
	<line style="fill:none;stroke:#000000;stroke-miterlimit:1;" x1="159.017" y1="144.822" x2="157.701" y2="148.115"/>
	<line style="fill:none;stroke:#000000;stroke-miterlimit:1;" x1="157.701" y1="148.115" x2="161.321" y2="146.799"/>
	<line style="fill:none;stroke:#000000;stroke-miterlimit:1;" x1="343.008" y1="26.99" x2="327.539" y2="30.61"/>
	<line style="fill:none;stroke:#000000;stroke-miterlimit:1;" x1="327.539" y1="30.61" x2="321.285" y2="33.902"/>
	<line style="fill:none;stroke:#000000;stroke-miterlimit:1;" x1="321.285" y1="33.902" x2="318.98" y2="36.206"/>
	<line style="fill:none;stroke:#000000;stroke-miterlimit:1;" x1="318.98" y1="36.206" x2="317.336" y2="39.498"/>
	<line style="fill:none;stroke:#000000;stroke-miterlimit:1;" x1="317.336" y1="39.498" x2="317.006" y2="42.459"/>
	<line style="fill:none;stroke:#000000;stroke-miterlimit:1;" x1="317.006" y1="42.459" x2="317.006" y2="45.093"/>
	<line style="fill:none;stroke:#000000;stroke-miterlimit:1;" x1="317.006" y1="45.093" x2="319.311" y2="50.03"/>
	<line style="fill:none;stroke:#000000;stroke-miterlimit:1;" x1="319.311" y1="50.03" x2="322.602" y2="54.967"/>
	<line style="fill:none;stroke:#000000;stroke-miterlimit:1;" x1="322.602" y1="54.967" x2="330.83" y2="61.55"/>
	<line style="fill:none;stroke:#000000;stroke-miterlimit:1;" x1="330.83" y1="61.55" x2="411.471" y2="104.01"/>
	<line style="fill:none;stroke:#000000;stroke-miterlimit:1;" x1="411.471" y1="104.01" x2="423.977" y2="110.592"/>
	<line style="fill:none;stroke:#000000;stroke-miterlimit:1;" x1="423.977" y1="110.592" x2="436.484" y2="118.492"/>
	<line style="fill:none;stroke:#000000;stroke-miterlimit:1;" x1="436.484" y1="118.492" x2="443.068" y2="123.1"/>
	<line style="fill:none;stroke:#000000;stroke-miterlimit:1;" x1="443.068" y1="123.1" x2="445.043" y2="122.77"/>
	<line style="fill:none;stroke:#000000;stroke-miterlimit:1;" x1="445.043" y1="122.77" x2="445.701" y2="120.795"/>
	<line style="fill:none;stroke:#000000;stroke-miterlimit:1;" x1="445.701" y1="120.795" x2="442.41" y2="116.188"/>
	<line style="fill:none;stroke:#000000;stroke-miterlimit:1;" x1="442.41" y1="116.188" x2="419.369" y2="96.109"/>
	<line style="fill:none;stroke:#000000;stroke-miterlimit:1;" x1="419.369" y1="96.109" x2="410.482" y2="85.906"/>
	<line style="fill:none;stroke:#000000;stroke-miterlimit:1;" x1="410.482" y1="85.906" x2="378.555" y2="44.105"/>
	<line style="fill:none;stroke:#000000;stroke-miterlimit:1;" x1="378.555" y1="44.105" x2="368.352" y2="32.585"/>
	<line style="fill:none;stroke:#000000;stroke-miterlimit:1;" x1="368.352" y1="32.585" x2="358.807" y2="23.699"/>
	<line style="fill:none;stroke:#000000;stroke-miterlimit:1;" x1="358.807" y1="23.699" x2="352.553" y2="21.065"/>
	<line style="fill:none;stroke:#000000;stroke-miterlimit:1;" x1="352.553" y1="21.065" x2="348.275" y2="12.837"/>
	<line style="fill:none;stroke:#000000;stroke-miterlimit:1;" x1="348.275" y1="12.837" x2="342.68" y2="4.938"/>
	<line style="fill:none;stroke:#000000;stroke-miterlimit:1;" x1="342.68" y1="4.938" x2="339.387" y2="2.304"/>
	<line style="fill:none;stroke:#000000;stroke-miterlimit:1;" x1="339.387" y1="2.304" x2="334.121" y2="0.659"/>
	<line style="fill:none;stroke:#000000;stroke-miterlimit:1;" x1="334.121" y1="0.659" x2="325.234" y2="0"/>
	<line style="fill:none;stroke:#000000;stroke-miterlimit:1;" x1="325.234" y1="0" x2="316.676" y2="0.988"/>
	<line style="fill:none;stroke:#000000;stroke-miterlimit:1;" x1="316.676" y1="0.988" x2="312.068" y2="2.962"/>
	<line style="fill:none;stroke:#000000;stroke-miterlimit:1;" x1="312.068" y1="2.962" x2="309.436" y2="6.254"/>
	<line style="fill:none;stroke:#000000;stroke-miterlimit:1;" x1="309.436" y1="6.254" x2="306.803" y2="10.533"/>
	<line style="fill:none;stroke:#000000;stroke-miterlimit:1;" x1="306.803" y1="10.533" x2="302.195" y2="12.837"/>
	<line style="fill:none;stroke:#000000;stroke-miterlimit:1;" x1="302.195" y1="12.837" x2="299.232" y2="16.128"/>
	<line style="fill:none;stroke:#000000;stroke-miterlimit:1;" x1="299.232" y1="16.128" x2="297.258" y2="21.395"/>
	<line style="fill:none;stroke:#000000;stroke-miterlimit:1;" x1="297.258" y1="21.395" x2="297.586" y2="25.344"/>
	<line style="fill:none;stroke:#000000;stroke-miterlimit:1;" x1="297.586" y1="25.344" x2="298.244" y2="26.661"/>
	<line style="fill:none;stroke:#000000;stroke-miterlimit:1;" x1="298.244" y1="26.661" x2="298.902" y2="24.686"/>
	<line style="fill:none;stroke:#000000;stroke-miterlimit:1;" x1="298.902" y1="24.686" x2="300.877" y2="21.065"/>
	<line style="fill:none;stroke:#000000;stroke-miterlimit:1;" x1="300.877" y1="21.065" x2="304.498" y2="18.432"/>
	<line style="fill:none;stroke:#000000;stroke-miterlimit:1;" x1="304.498" y1="18.432" x2="307.789" y2="17.774"/>
	<line style="fill:none;stroke:#000000;stroke-miterlimit:1;" x1="307.789" y1="17.774" x2="311.41" y2="18.761"/>
	<line style="fill:none;stroke:#000000;stroke-miterlimit:1;" x1="311.41" y1="18.761" x2="313.385" y2="20.407"/>
	<line style="fill:none;stroke:#000000;stroke-miterlimit:1;" x1="313.385" y1="20.407" x2="314.043" y2="20.407"/>
	<line style="fill:none;stroke:#000000;stroke-miterlimit:1;" x1="314.043" y1="20.407" x2="314.701" y2="19.419"/>
	<line style="fill:none;stroke:#000000;stroke-miterlimit:1;" x1="314.701" y1="19.419" x2="313.715" y2="15.47"/>
	<line style="fill:none;stroke:#000000;stroke-miterlimit:1;" x1="313.715" y1="15.47" x2="315.359" y2="15.141"/>
	<line style="fill:none;stroke:#000000;stroke-miterlimit:1;" x1="315.359" y1="15.141" x2="316.348" y2="13.166"/>
	<line style="fill:none;stroke:#000000;stroke-miterlimit:1;" x1="316.348" y1="13.166" x2="316.348" y2="11.52"/>
	<line style="fill:none;stroke:#000000;stroke-miterlimit:1;" x1="316.348" y1="11.52" x2="315.031" y2="9.875"/>
	<line style="fill:none;stroke:#000000;stroke-miterlimit:1;" x1="315.031" y1="9.875" x2="313.385" y2="9.875"/>
	<line style="fill:none;stroke:#000000;stroke-miterlimit:1;" x1="313.385" y1="9.875" x2="311.74" y2="11.191"/>
	<line style="fill:none;stroke:#000000;stroke-miterlimit:1;" x1="311.74" y1="11.191" x2="311.41" y2="13.495"/>
	<line style="fill:none;stroke:#000000;stroke-miterlimit:1;" x1="311.41" y1="13.495" x2="312.398" y2="14.482"/>
	<line style="fill:none;stroke:#000000;stroke-miterlimit:1;" x1="312.398" y1="14.482" x2="314.043" y2="15.141"/>
	<line style="fill:none;stroke:#000000;stroke-miterlimit:1;" x1="315.359" y1="9.545" x2="319.639" y2="9.875"/>
	<line style="fill:none;stroke:#000000;stroke-miterlimit:1;" x1="319.639" y1="9.875" x2="323.588" y2="10.204"/>
	<line style="fill:none;stroke:#000000;stroke-miterlimit:1;" x1="323.588" y1="10.204" x2="327.539" y2="12.508"/>
	<line style="fill:none;stroke:#000000;stroke-miterlimit:1;" x1="327.539" y1="12.508" x2="329.842" y2="16.458"/>
	<line style="fill:none;stroke:#000000;stroke-miterlimit:1;" x1="329.842" y1="16.458" x2="329.514" y2="21.724"/>
	<line style="fill:none;stroke:#000000;stroke-miterlimit:1;" x1="329.514" y1="21.724" x2="327.209" y2="25.344"/>
	<line style="fill:none;stroke:#000000;stroke-miterlimit:1;" x1="327.209" y1="25.344" x2="319.969" y2="29.623"/>
	<line style="fill:none;stroke:#000000;stroke-miterlimit:1;" x1="319.311" y1="28.965" x2="321.285" y2="27.648"/>
	<line style="fill:none;stroke:#000000;stroke-miterlimit:1;" x1="321.285" y1="27.648" x2="323.588" y2="25.344"/>
	<line style="fill:none;stroke:#000000;stroke-miterlimit:1;" x1="323.588" y1="25.344" x2="324.576" y2="22.053"/>
	<line style="fill:none;stroke:#000000;stroke-miterlimit:1;" x1="324.576" y1="22.053" x2="323.918" y2="19.419"/>
	<line style="fill:none;stroke:#000000;stroke-miterlimit:1;" x1="323.918" y1="19.419" x2="321.943" y2="18.432"/>
	<line style="fill:none;stroke:#000000;stroke-miterlimit:1;" x1="321.943" y1="18.432" x2="319.311" y2="18.761"/>
	<line style="fill:none;stroke:#000000;stroke-miterlimit:1;" x1="319.311" y1="18.761" x2="317.664" y2="21.065"/>
	<line style="fill:none;stroke:#000000;stroke-miterlimit:1;" x1="317.664" y1="21.065" x2="317.336" y2="23.04"/>
	<line style="fill:none;stroke:#000000;stroke-miterlimit:1;" x1="317.336" y1="23.04" x2="317.994" y2="27.648"/>
	<line style="fill:none;stroke:#000000;stroke-miterlimit:1;" x1="317.994" y1="27.648" x2="317.006" y2="29.623"/>
	<line style="fill:none;stroke:#000000;stroke-miterlimit:1;" x1="317.006" y1="29.623" x2="316.676" y2="30.61"/>
	<line style="fill:none;stroke:#000000;stroke-miterlimit:1;" x1="316.676" y1="30.61" x2="315.359" y2="30.281"/>
	<line style="fill:none;stroke:#000000;stroke-miterlimit:1;" x1="315.359" y1="30.281" x2="314.701" y2="27.978"/>
	<line style="fill:none;stroke:#000000;stroke-miterlimit:1;" x1="314.701" y1="27.978" x2="311.74" y2="22.382"/>
	<line style="fill:none;stroke:#000000;stroke-miterlimit:1;" x1="311.74" y1="22.382" x2="309.105" y2="19.749"/>
	<line style="fill:none;stroke:#000000;stroke-miterlimit:1;" x1="309.105" y1="19.749" x2="306.473" y2="19.09"/>
	<line style="fill:none;stroke:#000000;stroke-miterlimit:1;" x1="306.473" y1="19.09" x2="303.84" y2="19.09"/>
	<line style="fill:none;stroke:#000000;stroke-miterlimit:1;" x1="300.877" y1="22.053" x2="302.523" y2="21.724"/>
	<line style="fill:none;stroke:#000000;stroke-miterlimit:1;" x1="302.523" y1="21.724" x2="306.473" y2="21.724"/>
	<line style="fill:none;stroke:#000000;stroke-miterlimit:1;" x1="306.473" y1="21.724" x2="310.094" y2="25.344"/>
	<line style="fill:none;stroke:#000000;stroke-miterlimit:1;" x1="310.094" y1="25.344" x2="312.398" y2="32.915"/>
	<line style="fill:none;stroke:#000000;stroke-miterlimit:1;" x1="312.398" y1="32.915" x2="312.727" y2="41.801"/>
	<line style="fill:none;stroke:#000000;stroke-miterlimit:1;" x1="312.727" y1="41.801" x2="313.057" y2="49.701"/>
	<line style="fill:none;stroke:#000000;stroke-miterlimit:1;" x1="313.057" y1="49.701" x2="314.701" y2="54.309"/>
	<line style="fill:none;stroke:#000000;stroke-miterlimit:1;" x1="314.701" y1="54.309" x2="316.676" y2="59.246"/>
	<line style="fill:none;stroke:#000000;stroke-miterlimit:1;" x1="316.676" y1="59.246" x2="325.564" y2="70.437"/>
	<line style="fill:none;stroke:#000000;stroke-miterlimit:1;" x1="325.564" y1="70.437" x2="343.666" y2="93.807"/>
	<line style="fill:none;stroke:#000000;stroke-miterlimit:1;" x1="343.666" y1="93.807" x2="352.883" y2="104.338"/>
	<line style="fill:none;stroke:#000000;stroke-miterlimit:1;" x1="352.883" y1="104.338" x2="359.465" y2="119.15"/>
	<line style="fill:none;stroke:#000000;stroke-miterlimit:1;" x1="359.465" y1="119.15" x2="360.123" y2="129.354"/>
	<line style="fill:none;stroke:#000000;stroke-miterlimit:1;" x1="360.123" y1="129.354" x2="358.807" y2="139.887"/>
	<line style="fill:none;stroke:#000000;stroke-miterlimit:1;" x1="358.807" y1="139.887" x2="345.971" y2="141.861"/>
	<line style="fill:none;stroke:#000000;stroke-miterlimit:1;" x1="345.971" y1="141.861" x2="343.996" y2="144.822"/>
	<line style="fill:none;stroke:#000000;stroke-miterlimit:1;" x1="343.996" y1="144.822" x2="343.996" y2="146.141"/>
	<line style="fill:none;stroke:#000000;stroke-miterlimit:1;" x1="344.982" y1="142.52" x2="343.008" y2="143.178"/>
	<line style="fill:none;stroke:#000000;stroke-miterlimit:1;" x1="343.008" y1="143.178" x2="340.705" y2="144.164"/>
	<line style="fill:none;stroke:#000000;stroke-miterlimit:1;" x1="340.705" y1="144.164" x2="340.045" y2="147.457"/>
	<line style="fill:none;stroke:#000000;stroke-miterlimit:1;" x1="340.045" y1="147.457" x2="343.996" y2="146.469"/>
	<line style="fill:none;stroke:#000000;stroke-miterlimit:1;" x1="343.996" y1="146.469" x2="345.312" y2="147.785"/>
	<line style="fill:none;stroke:#000000;stroke-miterlimit:1;" x1="345.312" y1="147.785" x2="363.744" y2="146.469"/>
	<line style="fill:none;stroke:#000000;stroke-miterlimit:1;" x1="363.744" y1="146.469" x2="379.215" y2="147.457"/>
	<line style="fill:none;stroke:#000000;stroke-miterlimit:1;" x1="379.215" y1="147.457" x2="380.531" y2="145.811"/>
	<line style="fill:none;stroke:#000000;stroke-miterlimit:1;" x1="380.531" y1="145.811" x2="379.215" y2="141.861"/>
	<line style="fill:none;stroke:#000000;stroke-miterlimit:1;" x1="380.531" y1="146.141" x2="382.176" y2="146.141"/>
	<line style="fill:none;stroke:#000000;stroke-miterlimit:1;" x1="382.176" y1="146.141" x2="385.467" y2="147.785"/>
	<line style="fill:none;stroke:#000000;stroke-miterlimit:1;" x1="385.467" y1="147.785" x2="384.48" y2="144.164"/>
	<line style="fill:none;stroke:#000000;stroke-miterlimit:1;" x1="384.48" y1="144.164" x2="383.164" y2="143.178"/>
	<line style="fill:none;stroke:#000000;stroke-miterlimit:1;" x1="383.164" y1="143.178" x2="380.859" y2="141.861"/>
	<line style="fill:none;stroke:#000000;stroke-miterlimit:1;" x1="380.859" y1="141.861" x2="376.91" y2="141.531"/>
	<line style="fill:none;stroke:#000000;stroke-miterlimit:1;" x1="376.91" y1="141.531" x2="366.377" y2="140.215"/>
	<line style="fill:none;stroke:#000000;stroke-miterlimit:1;" x1="366.377" y1="140.215" x2="367.693" y2="126.062"/>
	<line style="fill:none;stroke:#000000;stroke-miterlimit:1;" x1="367.693" y1="126.062" x2="373.619" y2="127.379"/>
	<line style="fill:none;stroke:#000000;stroke-miterlimit:1;" x1="373.619" y1="127.379" x2="378.885" y2="131.658"/>
	<line style="fill:none;stroke:#000000;stroke-miterlimit:1;" x1="378.885" y1="131.658" x2="378.555" y2="102.035"/>
	<line style="fill:none;stroke:#000000;stroke-miterlimit:1;" x1="378.555" y1="102.035" x2="387.771" y2="105.654"/>
	<line style="fill:none;stroke:#000000;stroke-miterlimit:1;" x1="387.771" y1="105.654" x2="393.367" y2="109.275"/>
	<line style="fill:none;stroke:#000000;stroke-miterlimit:1;" x1="393.367" y1="109.275" x2="397.316" y2="116.188"/>
	<line style="fill:none;stroke:#000000;stroke-miterlimit:1;" x1="397.316" y1="116.188" x2="414.104" y2="147.785"/>
	<line style="fill:none;stroke:#000000;stroke-miterlimit:1;" x1="414.104" y1="147.785" x2="436.814" y2="133.303"/>
	<line style="fill:none;stroke:#000000;stroke-miterlimit:1;" x1="436.814" y1="133.303" x2="419.369" y2="108.289"/>
	<line style="fill:none;stroke:#000000;stroke-miterlimit:1;" x1="347.615" y1="140.873" x2="351.566" y2="124.416"/>
	<line style="fill:none;stroke:#000000;stroke-miterlimit:1;" x1="351.566" y1="124.416" x2="356.832" y2="125.732"/>
	<line style="fill:none;stroke:#000000;stroke-miterlimit:1;" x1="356.832" y1="125.732" x2="360.123" y2="129.023"/>
	<line style="fill:none;stroke:#000000;stroke-miterlimit:1;" x1="346.629" y1="141.531" x2="340.045" y2="142.52"/>
	<line style="fill:none;stroke:#000000;stroke-miterlimit:1;" x1="340.045" y1="142.52" x2="337.084" y2="143.506"/>
	<line style="fill:none;stroke:#000000;stroke-miterlimit:1;" x1="337.084" y1="143.506" x2="335.768" y2="145.48"/>
	<line style="fill:none;stroke:#000000;stroke-miterlimit:1;" x1="335.768" y1="145.48" x2="336.426" y2="147.785"/>
	<line style="fill:none;stroke:#000000;stroke-miterlimit:1;" x1="336.426" y1="147.785" x2="340.705" y2="146.469"/>
	<line style="fill:none;stroke:#000000;stroke-miterlimit:1;" x1="337.084" y1="143.178" x2="333.463" y2="144.494"/>
	<line style="fill:none;stroke:#000000;stroke-miterlimit:1;" x1="333.463" y1="144.494" x2="332.477" y2="148.115"/>
	<line style="fill:none;stroke:#000000;stroke-miterlimit:1;" x1="332.477" y1="148.115" x2="335.768" y2="146.799"/>
	<line style="fill:none;stroke:#000000;stroke-miterlimit:1;" x1="330.5" y1="77.02" x2="335.109" y2="87.553"/>
	<line style="fill:none;stroke:#000000;stroke-miterlimit:1;" x1="335.109" y1="87.553" x2="341.033" y2="104.338"/>
	<line style="fill:none;stroke:#000000;stroke-miterlimit:1;" x1="341.033" y1="104.338" x2="343.338" y2="117.834"/>
	<line style="fill:none;stroke:#000000;stroke-miterlimit:1;" x1="343.338" y1="117.834" x2="343.008" y2="126.062"/>
	<line style="fill:none;stroke:#000000;stroke-miterlimit:1;" x1="343.008" y1="126.062" x2="339.717" y2="140.545"/>
	<line style="fill:none;stroke:#000000;stroke-miterlimit:1;" x1="339.717" y1="140.545" x2="328.197" y2="141.861"/>
	<line style="fill:none;stroke:#000000;stroke-miterlimit:1;" x1="328.197" y1="141.861" x2="325.564" y2="143.836"/>
	<line style="fill:none;stroke:#000000;stroke-miterlimit:1;" x1="325.564" y1="143.836" x2="325.564" y2="146.141"/>
	<line style="fill:none;stroke:#000000;stroke-miterlimit:1;" x1="325.564" y1="146.141" x2="325.893" y2="147.457"/>
	<line style="fill:none;stroke:#000000;stroke-miterlimit:1;" x1="325.893" y1="147.457" x2="332.477" y2="146.799"/>
	<line style="fill:none;stroke:#000000;stroke-miterlimit:1;" x1="325.564" y1="143.178" x2="322.271" y2="144.494"/>
	<line style="fill:none;stroke:#000000;stroke-miterlimit:1;" x1="322.271" y1="144.494" x2="321.285" y2="145.811"/>
	<line style="fill:none;stroke:#000000;stroke-miterlimit:1;" x1="321.285" y1="145.811" x2="320.955" y2="148.115"/>
	<line style="fill:none;stroke:#000000;stroke-miterlimit:1;" x1="320.955" y1="148.115" x2="324.906" y2="146.799"/>
	<line style="fill:none;stroke:#000000;stroke-miterlimit:1;" x1="328.525" y1="141.861" x2="320.955" y2="143.178"/>
	<line style="fill:none;stroke:#000000;stroke-miterlimit:1;" x1="320.955" y1="143.178" x2="318.652" y2="144.822"/>
	<line style="fill:none;stroke:#000000;stroke-miterlimit:1;" x1="318.652" y1="144.822" x2="317.994" y2="147.785"/>
	<line style="fill:none;stroke:#000000;stroke-miterlimit:1;" x1="317.994" y1="147.785" x2="320.955" y2="146.799"/>
	<line style="fill:none;stroke:#000000;stroke-miterlimit:1;" x1="319.639" y1="143.506" x2="315.359" y2="144.822"/>
	<line style="fill:none;stroke:#000000;stroke-miterlimit:1;" x1="315.359" y1="144.822" x2="314.043" y2="148.115"/>
	<line style="fill:none;stroke:#000000;stroke-miterlimit:1;" x1="314.043" y1="148.115" x2="317.664" y2="146.799"/>
</g>
</svg>
