<?xml version="1.0" encoding="iso-8859-1"?>
<!-- Generator: Adobe Illustrator 16.0.1, SVG Export Plug-In . SVG Version: 6.00 Build 0)  -->
<!DOCTYPE svg PUBLIC "-//W3C//DTD SVG 1.1//EN" "http://www.w3.org/Graphics/SVG/1.1/DTD/svg11.dtd">
<svg version="1.1" id="Ebene_1" xmlns="http://www.w3.org/2000/svg" xmlns:xlink="http://www.w3.org/1999/xlink" x="0px" y="0px"
	 width="228.837px" height="148.484px" viewBox="0 0 228.837 148.484" style="enable-background:new 0 0 228.837 148.484;"
	 xml:space="preserve">
<g>
	<line style="fill:none;stroke:#000000;stroke-miterlimit:1;" x1="103.323" y1="46.43" x2="105.501" y2="42.695"/>
	<line style="fill:none;stroke:#000000;stroke-miterlimit:1;" x1="105.501" y1="42.695" x2="108.302" y2="39.895"/>
	<line style="fill:none;stroke:#000000;stroke-miterlimit:1;" x1="108.302" y1="39.895" x2="112.348" y2="38.96"/>
	<line style="fill:none;stroke:#000000;stroke-miterlimit:1;" x1="112.348" y1="38.96" x2="115.771" y2="39.583"/>
	<line style="fill:none;stroke:#000000;stroke-miterlimit:1;" x1="115.771" y1="39.583" x2="118.261" y2="41.762"/>
	<line style="fill:none;stroke:#000000;stroke-miterlimit:1;" x1="118.261" y1="41.762" x2="119.506" y2="43.629"/>
	<line style="fill:none;stroke:#000000;stroke-miterlimit:1;" x1="119.506" y1="43.629" x2="120.439" y2="47.986"/>
	<line style="fill:none;stroke:#000000;stroke-miterlimit:1;" x1="120.439" y1="47.986" x2="120.439" y2="98.402"/>
	<line style="fill:none;stroke:#000000;stroke-miterlimit:1;" x1="120.439" y1="98.402" x2="0" y2="98.402"/>
	<line style="fill:none;stroke:#000000;stroke-miterlimit:1;" x1="0" y1="98.402" x2="0" y2="47.986"/>
	<line style="fill:none;stroke:#000000;stroke-miterlimit:1;" x1="0" y1="47.986" x2="1.245" y2="43.629"/>
	<line style="fill:none;stroke:#000000;stroke-miterlimit:1;" x1="1.245" y1="43.629" x2="2.179" y2="41.762"/>
	<line style="fill:none;stroke:#000000;stroke-miterlimit:1;" x1="2.179" y1="41.762" x2="4.668" y2="39.583"/>
	<line style="fill:none;stroke:#000000;stroke-miterlimit:1;" x1="4.668" y1="39.583" x2="8.092" y2="38.96"/>
	<line style="fill:none;stroke:#000000;stroke-miterlimit:1;" x1="8.092" y1="38.96" x2="12.449" y2="39.895"/>
	<line style="fill:none;stroke:#000000;stroke-miterlimit:1;" x1="12.449" y1="39.895" x2="15.25" y2="42.695"/>
	<line style="fill:none;stroke:#000000;stroke-miterlimit:1;" x1="15.25" y1="42.695" x2="17.117" y2="46.119"/>
	<line style="fill:none;stroke:#000000;stroke-miterlimit:1;" x1="63.487" y1="0.37" x2="60.687" y2="0.37"/>
	<line style="fill:none;stroke:#000000;stroke-miterlimit:1;" x1="60.687" y1="0.37" x2="58.508" y2="0.37"/>
	<line style="fill:none;stroke:#000000;stroke-miterlimit:1;" x1="58.508" y1="0.37" x2="56.641" y2="0.682"/>
	<line style="fill:none;stroke:#000000;stroke-miterlimit:1;" x1="56.641" y1="0.682" x2="53.217" y2="1.304"/>
	<line style="fill:none;stroke:#000000;stroke-miterlimit:1;" x1="53.217" y1="1.304" x2="51.039" y2="1.615"/>
	<line style="fill:none;stroke:#000000;stroke-miterlimit:1;" x1="51.039" y1="1.615" x2="49.172" y2="2.237"/>
	<line style="fill:none;stroke:#000000;stroke-miterlimit:1;" x1="49.172" y1="2.237" x2="47.305" y2="2.86"/>
	<line style="fill:none;stroke:#000000;stroke-miterlimit:1;" x1="47.305" y1="2.86" x2="44.815" y2="3.482"/>
	<line style="fill:none;stroke:#000000;stroke-miterlimit:1;" x1="44.815" y1="3.482" x2="42.636" y2="4.416"/>
	<line style="fill:none;stroke:#000000;stroke-miterlimit:1;" x1="42.636" y1="4.416" x2="40.458" y2="5.35"/>
	<line style="fill:none;stroke:#000000;stroke-miterlimit:1;" x1="40.458" y1="5.35" x2="38.59" y2="6.283"/>
	<line style="fill:none;stroke:#000000;stroke-miterlimit:1;" x1="38.59" y1="6.283" x2="36.723" y2="7.528"/>
	<line style="fill:none;stroke:#000000;stroke-miterlimit:1;" x1="36.723" y1="7.528" x2="34.856" y2="8.773"/>
	<line style="fill:none;stroke:#000000;stroke-miterlimit:1;" x1="34.856" y1="8.773" x2="32.989" y2="10.018"/>
	<line style="fill:none;stroke:#000000;stroke-miterlimit:1;" x1="32.989" y1="10.018" x2="31.433" y2="11.574"/>
	<line style="fill:none;stroke:#000000;stroke-miterlimit:1;" x1="31.433" y1="11.574" x2="28.009" y2="14.686"/>
	<line style="fill:none;stroke:#000000;stroke-miterlimit:1;" x1="28.009" y1="14.686" x2="26.764" y2="16.242"/>
	<line style="fill:none;stroke:#000000;stroke-miterlimit:1;" x1="26.764" y1="16.242" x2="25.52" y2="17.487"/>
	<line style="fill:none;stroke:#000000;stroke-miterlimit:1;" x1="25.52" y1="17.487" x2="23.341" y2="20.599"/>
	<line style="fill:none;stroke:#000000;stroke-miterlimit:1;" x1="23.341" y1="20.599" x2="21.474" y2="23.711"/>
	<line style="fill:none;stroke:#000000;stroke-miterlimit:1;" x1="21.474" y1="23.711" x2="20.54" y2="25.579"/>
	<line style="fill:none;stroke:#000000;stroke-miterlimit:1;" x1="20.54" y1="25.579" x2="19.917" y2="27.757"/>
	<line style="fill:none;stroke:#000000;stroke-miterlimit:1;" x1="19.917" y1="27.757" x2="18.673" y2="32.114"/>
	<line style="fill:none;stroke:#000000;stroke-miterlimit:1;" x1="18.673" y1="32.114" x2="17.739" y2="33.981"/>
	<line style="fill:none;stroke:#000000;stroke-miterlimit:1;" x1="17.739" y1="33.981" x2="17.428" y2="36.782"/>
	<line style="fill:none;stroke:#000000;stroke-miterlimit:1;" x1="17.428" y1="36.782" x2="17.117" y2="38.649"/>
	<line style="fill:none;stroke:#000000;stroke-miterlimit:1;" x1="17.117" y1="38.649" x2="17.117" y2="42.073"/>
	<line style="fill:none;stroke:#000000;stroke-miterlimit:1;" x1="17.117" y1="42.073" x2="17.117" y2="44.251"/>
	<line style="fill:none;stroke:#000000;stroke-miterlimit:1;" x1="17.117" y1="44.251" x2="17.117" y2="47.363"/>
	<line style="fill:none;stroke:#000000;stroke-miterlimit:1;" x1="17.117" y1="47.363" x2="17.428" y2="49.542"/>
	<line style="fill:none;stroke:#000000;stroke-miterlimit:1;" x1="17.428" y1="49.542" x2="18.673" y2="53.899"/>
	<line style="fill:none;stroke:#000000;stroke-miterlimit:1;" x1="18.673" y1="53.899" x2="19.295" y2="56.7"/>
	<line style="fill:none;stroke:#000000;stroke-miterlimit:1;" x1="19.295" y1="56.7" x2="19.917" y2="58.256"/>
	<line style="fill:none;stroke:#000000;stroke-miterlimit:1;" x1="19.917" y1="58.256" x2="21.163" y2="61.057"/>
	<line style="fill:none;stroke:#000000;stroke-miterlimit:1;" x1="21.163" y1="61.057" x2="21.785" y2="62.924"/>
	<line style="fill:none;stroke:#000000;stroke-miterlimit:1;" x1="21.785" y1="62.924" x2="23.652" y2="64.792"/>
	<line style="fill:none;stroke:#000000;stroke-miterlimit:1;" x1="23.652" y1="64.792" x2="24.275" y2="66.348"/>
	<line style="fill:none;stroke:#000000;stroke-miterlimit:1;" x1="24.275" y1="66.348" x2="25.831" y2="68.215"/>
	<line style="fill:none;stroke:#000000;stroke-miterlimit:1;" x1="25.831" y1="68.215" x2="27.076" y2="69.771"/>
	<line style="fill:none;stroke:#000000;stroke-miterlimit:1;" x1="27.076" y1="69.771" x2="28.632" y2="71.949"/>
	<line style="fill:none;stroke:#000000;stroke-miterlimit:1;" x1="28.632" y1="71.949" x2="31.744" y2="74.75"/>
	<line style="fill:none;stroke:#000000;stroke-miterlimit:1;" x1="31.744" y1="74.75" x2="33.922" y2="76.307"/>
	<line style="fill:none;stroke:#000000;stroke-miterlimit:1;" x1="33.922" y1="76.307" x2="36.101" y2="77.862"/>
	<line style="fill:none;stroke:#000000;stroke-miterlimit:1;" x1="36.101" y1="77.862" x2="37.346" y2="78.796"/>
	<line style="fill:none;stroke:#000000;stroke-miterlimit:1;" x1="37.346" y1="78.796" x2="39.213" y2="80.041"/>
	<line style="fill:none;stroke:#000000;stroke-miterlimit:1;" x1="39.213" y1="80.041" x2="41.08" y2="80.975"/>
	<line style="fill:none;stroke:#000000;stroke-miterlimit:1;" x1="41.08" y1="80.975" x2="43.881" y2="81.908"/>
	<line style="fill:none;stroke:#000000;stroke-miterlimit:1;" x1="43.881" y1="81.908" x2="45.749" y2="82.842"/>
	<line style="fill:none;stroke:#000000;stroke-miterlimit:1;" x1="45.749" y1="82.842" x2="48.238" y2="83.464"/>
	<line style="fill:none;stroke:#000000;stroke-miterlimit:1;" x1="48.238" y1="83.464" x2="49.794" y2="83.775"/>
	<line style="fill:none;stroke:#000000;stroke-miterlimit:1;" x1="49.794" y1="83.775" x2="51.973" y2="84.397"/>
	<line style="fill:none;stroke:#000000;stroke-miterlimit:1;" x1="51.973" y1="84.397" x2="54.151" y2="84.709"/>
	<line style="fill:none;stroke:#000000;stroke-miterlimit:1;" x1="54.151" y1="84.709" x2="56.641" y2="85.021"/>
	<line style="fill:none;stroke:#000000;stroke-miterlimit:1;" x1="56.641" y1="85.021" x2="58.508" y2="85.021"/>
	<line style="fill:none;stroke:#000000;stroke-miterlimit:1;" x1="58.508" y1="85.021" x2="61.309" y2="85.021"/>
	<line style="fill:none;stroke:#000000;stroke-miterlimit:1;" x1="61.309" y1="85.021" x2="63.487" y2="84.709"/>
	<line style="fill:none;stroke:#000000;stroke-miterlimit:1;" x1="63.487" y1="84.709" x2="64.11" y2="85.021"/>
	<line style="fill:none;stroke:#000000;stroke-miterlimit:1;" x1="64.11" y1="85.021" x2="66.6" y2="84.709"/>
	<line style="fill:none;stroke:#000000;stroke-miterlimit:1;" x1="66.6" y1="84.709" x2="68.467" y2="84.397"/>
	<line style="fill:none;stroke:#000000;stroke-miterlimit:1;" x1="68.467" y1="84.397" x2="70.957" y2="83.775"/>
	<line style="fill:none;stroke:#000000;stroke-miterlimit:1;" x1="70.957" y1="83.775" x2="72.202" y2="83.464"/>
	<line style="fill:none;stroke:#000000;stroke-miterlimit:1;" x1="72.202" y1="83.464" x2="74.691" y2="82.842"/>
	<line style="fill:none;stroke:#000000;stroke-miterlimit:1;" x1="74.691" y1="82.842" x2="76.559" y2="81.908"/>
	<line style="fill:none;stroke:#000000;stroke-miterlimit:1;" x1="76.559" y1="81.908" x2="79.359" y2="80.975"/>
	<line style="fill:none;stroke:#000000;stroke-miterlimit:1;" x1="79.359" y1="80.975" x2="81.227" y2="80.041"/>
	<line style="fill:none;stroke:#000000;stroke-miterlimit:1;" x1="81.227" y1="80.041" x2="83.094" y2="78.796"/>
	<line style="fill:none;stroke:#000000;stroke-miterlimit:1;" x1="83.094" y1="78.796" x2="84.339" y2="77.862"/>
	<line style="fill:none;stroke:#000000;stroke-miterlimit:1;" x1="84.339" y1="77.862" x2="86.829" y2="76.307"/>
	<line style="fill:none;stroke:#000000;stroke-miterlimit:1;" x1="86.829" y1="76.307" x2="88.696" y2="74.75"/>
	<line style="fill:none;stroke:#000000;stroke-miterlimit:1;" x1="88.696" y1="74.75" x2="91.808" y2="71.949"/>
	<line style="fill:none;stroke:#000000;stroke-miterlimit:1;" x1="91.808" y1="71.949" x2="93.364" y2="69.771"/>
	<line style="fill:none;stroke:#000000;stroke-miterlimit:1;" x1="93.364" y1="69.771" x2="94.609" y2="68.215"/>
	<line style="fill:none;stroke:#000000;stroke-miterlimit:1;" x1="94.609" y1="68.215" x2="96.165" y2="66.348"/>
	<line style="fill:none;stroke:#000000;stroke-miterlimit:1;" x1="96.165" y1="66.348" x2="97.099" y2="64.792"/>
	<line style="fill:none;stroke:#000000;stroke-miterlimit:1;" x1="97.099" y1="64.792" x2="98.655" y2="62.924"/>
	<line style="fill:none;stroke:#000000;stroke-miterlimit:1;" x1="98.655" y1="62.924" x2="99.588" y2="61.057"/>
	<line style="fill:none;stroke:#000000;stroke-miterlimit:1;" x1="99.588" y1="61.057" x2="100.522" y2="58.256"/>
	<line style="fill:none;stroke:#000000;stroke-miterlimit:1;" x1="100.522" y1="58.256" x2="101.456" y2="56.7"/>
	<line style="fill:none;stroke:#000000;stroke-miterlimit:1;" x1="101.456" y1="56.7" x2="102.078" y2="53.899"/>
	<line style="fill:none;stroke:#000000;stroke-miterlimit:1;" x1="102.078" y1="53.899" x2="103.012" y2="49.542"/>
	<line style="fill:none;stroke:#000000;stroke-miterlimit:1;" x1="103.012" y1="49.542" x2="103.323" y2="47.363"/>
	<line style="fill:none;stroke:#000000;stroke-miterlimit:1;" x1="103.323" y1="47.363" x2="103.323" y2="44.251"/>
	<line style="fill:none;stroke:#000000;stroke-miterlimit:1;" x1="103.323" y1="44.251" x2="103.323" y2="42.073"/>
	<line style="fill:none;stroke:#000000;stroke-miterlimit:1;" x1="103.323" y1="42.073" x2="103.323" y2="38.649"/>
	<line style="fill:none;stroke:#000000;stroke-miterlimit:1;" x1="103.323" y1="38.649" x2="103.012" y2="36.782"/>
	<line style="fill:none;stroke:#000000;stroke-miterlimit:1;" x1="103.012" y1="36.782" x2="102.7" y2="33.981"/>
	<line style="fill:none;stroke:#000000;stroke-miterlimit:1;" x1="102.7" y1="33.981" x2="102.078" y2="32.114"/>
	<line style="fill:none;stroke:#000000;stroke-miterlimit:1;" x1="102.078" y1="32.114" x2="101.456" y2="29.002"/>
	<line style="fill:none;stroke:#000000;stroke-miterlimit:1;" x1="101.456" y1="29.002" x2="99.899" y2="25.579"/>
	<line style="fill:none;stroke:#000000;stroke-miterlimit:1;" x1="99.899" y1="25.579" x2="98.966" y2="23.711"/>
	<line style="fill:none;stroke:#000000;stroke-miterlimit:1;" x1="98.966" y1="23.711" x2="97.721" y2="21.533"/>
	<line style="fill:none;stroke:#000000;stroke-miterlimit:1;" x1="97.721" y1="21.533" x2="94.92" y2="17.487"/>
	<line style="fill:none;stroke:#000000;stroke-miterlimit:1;" x1="94.92" y1="17.487" x2="93.986" y2="16.242"/>
	<line style="fill:none;stroke:#000000;stroke-miterlimit:1;" x1="93.986" y1="16.242" x2="92.742" y2="14.686"/>
	<line style="fill:none;stroke:#000000;stroke-miterlimit:1;" x1="92.742" y1="14.686" x2="89.007" y2="11.574"/>
	<line style="fill:none;stroke:#000000;stroke-miterlimit:1;" x1="89.007" y1="11.574" x2="87.451" y2="10.018"/>
	<line style="fill:none;stroke:#000000;stroke-miterlimit:1;" x1="87.451" y1="10.018" x2="85.895" y2="8.773"/>
	<line style="fill:none;stroke:#000000;stroke-miterlimit:1;" x1="85.895" y1="8.773" x2="84.028" y2="7.528"/>
	<line style="fill:none;stroke:#000000;stroke-miterlimit:1;" x1="84.028" y1="7.528" x2="81.849" y2="6.283"/>
	<line style="fill:none;stroke:#000000;stroke-miterlimit:1;" x1="81.849" y1="6.283" x2="80.293" y2="5.35"/>
	<line style="fill:none;stroke:#000000;stroke-miterlimit:1;" x1="80.293" y1="5.35" x2="77.803" y2="4.416"/>
	<line style="fill:none;stroke:#000000;stroke-miterlimit:1;" x1="77.803" y1="4.416" x2="75.936" y2="3.482"/>
	<line style="fill:none;stroke:#000000;stroke-miterlimit:1;" x1="75.936" y1="3.482" x2="73.135" y2="2.86"/>
	<line style="fill:none;stroke:#000000;stroke-miterlimit:1;" x1="73.135" y1="2.86" x2="71.579" y2="2.237"/>
	<line style="fill:none;stroke:#000000;stroke-miterlimit:1;" x1="71.579" y1="2.237" x2="69.4" y2="1.615"/>
	<line style="fill:none;stroke:#000000;stroke-miterlimit:1;" x1="69.4" y1="1.615" x2="67.533" y2="1.304"/>
	<line style="fill:none;stroke:#000000;stroke-miterlimit:1;" x1="67.533" y1="1.304" x2="65.666" y2="0.682"/>
	<line style="fill:none;stroke:#000000;stroke-miterlimit:1;" x1="65.666" y1="0.682" x2="61.932" y2="0.37"/>
	<line style="fill:none;stroke:#000000;stroke-miterlimit:1;" x1="61.932" y1="0.37" x2="59.753" y2="0.37"/>
	<line style="fill:none;stroke:#000000;stroke-miterlimit:1;" x1="53.128" y1="148.429" x2="0" y2="148.429"/>
	<line style="fill:none;stroke:#000000;stroke-miterlimit:1;" x1="0" y1="148.429" x2="0.675" y2="143.926"/>
	<line style="fill:none;stroke:#000000;stroke-miterlimit:1;" x1="0.675" y1="143.926" x2="1.351" y2="140.999"/>
	<line style="fill:none;stroke:#000000;stroke-miterlimit:1;" x1="1.351" y1="140.999" x2="2.477" y2="138.072"/>
	<line style="fill:none;stroke:#000000;stroke-miterlimit:1;" x1="2.477" y1="138.072" x2="4.052" y2="135.821"/>
	<line style="fill:none;stroke:#000000;stroke-miterlimit:1;" x1="4.052" y1="135.821" x2="5.403" y2="133.796"/>
	<line style="fill:none;stroke:#000000;stroke-miterlimit:1;" x1="5.403" y1="133.796" x2="7.204" y2="131.319"/>
	<line style="fill:none;stroke:#000000;stroke-miterlimit:1;" x1="7.204" y1="131.319" x2="9.23" y2="129.519"/>
	<line style="fill:none;stroke:#000000;stroke-miterlimit:1;" x1="9.23" y1="129.519" x2="11.707" y2="127.717"/>
	<line style="fill:none;stroke:#000000;stroke-miterlimit:1;" x1="11.707" y1="127.717" x2="13.732" y2="126.366"/>
	<line style="fill:none;stroke:#000000;stroke-miterlimit:1;" x1="13.732" y1="126.366" x2="16.659" y2="125.016"/>
	<line style="fill:none;stroke:#000000;stroke-miterlimit:1;" x1="16.659" y1="125.016" x2="19.585" y2="124.115"/>
	<line style="fill:none;stroke:#000000;stroke-miterlimit:1;" x1="19.585" y1="124.115" x2="21.612" y2="123.665"/>
	<line style="fill:none;stroke:#000000;stroke-miterlimit:1;" x1="21.612" y1="123.665" x2="25.213" y2="123.215"/>
	<line style="fill:none;stroke:#000000;stroke-miterlimit:1;" x1="25.213" y1="123.215" x2="27.915" y2="123.215"/>
	<line style="fill:none;stroke:#000000;stroke-miterlimit:1;" x1="27.915" y1="123.215" x2="30.391" y2="123.665"/>
	<line style="fill:none;stroke:#000000;stroke-miterlimit:1;" x1="30.391" y1="123.665" x2="33.093" y2="124.115"/>
	<line style="fill:none;stroke:#000000;stroke-miterlimit:1;" x1="33.093" y1="124.115" x2="36.02" y2="124.791"/>
	<line style="fill:none;stroke:#000000;stroke-miterlimit:1;" x1="36.02" y1="124.791" x2="38.045" y2="125.466"/>
	<line style="fill:none;stroke:#000000;stroke-miterlimit:1;" x1="38.045" y1="125.466" x2="40.747" y2="127.267"/>
	<line style="fill:none;stroke:#000000;stroke-miterlimit:1;" x1="40.747" y1="127.267" x2="42.998" y2="128.843"/>
	<line style="fill:none;stroke:#000000;stroke-miterlimit:1;" x1="42.998" y1="128.843" x2="45.024" y2="130.419"/>
	<line style="fill:none;stroke:#000000;stroke-miterlimit:1;" x1="45.024" y1="130.419" x2="46.825" y2="132.67"/>
	<line style="fill:none;stroke:#000000;stroke-miterlimit:1;" x1="46.825" y1="132.67" x2="48.626" y2="135.146"/>
	<line style="fill:none;stroke:#000000;stroke-miterlimit:1;" x1="48.626" y1="135.146" x2="50.202" y2="137.622"/>
	<line style="fill:none;stroke:#000000;stroke-miterlimit:1;" x1="50.202" y1="137.622" x2="51.328" y2="139.874"/>
	<line style="fill:none;stroke:#000000;stroke-miterlimit:1;" x1="51.328" y1="139.874" x2="52.228" y2="143.251"/>
	<line style="fill:none;stroke:#000000;stroke-miterlimit:1;" x1="52.228" y1="143.251" x2="52.903" y2="145.727"/>
	<line style="fill:none;stroke:#000000;stroke-miterlimit:1;" x1="52.903" y1="145.727" x2="53.128" y2="148.429"/>
	<line style="fill:none;stroke:#000000;stroke-miterlimit:1;" x1="120.439" y1="107.963" x2="102.43" y2="148.484"/>
	<line style="fill:none;stroke:#000000;stroke-miterlimit:1;" x1="102.43" y1="148.484" x2="93.425" y2="148.484"/>
	<line style="fill:none;stroke:#000000;stroke-miterlimit:1;" x1="93.425" y1="148.484" x2="111.435" y2="107.963"/>
	<line style="fill:none;stroke:#000000;stroke-miterlimit:1;" x1="111.435" y1="107.963" x2="120.439" y2="107.963"/>
	<line style="fill:none;stroke:#000000;stroke-miterlimit:1;" x1="93.2" y1="107.963" x2="75.19" y2="148.484"/>
	<line style="fill:none;stroke:#000000;stroke-miterlimit:1;" x1="75.19" y1="148.484" x2="66.186" y2="148.484"/>
	<line style="fill:none;stroke:#000000;stroke-miterlimit:1;" x1="66.186" y1="148.484" x2="84.195" y2="107.963"/>
	<line style="fill:none;stroke:#000000;stroke-miterlimit:1;" x1="84.195" y1="107.963" x2="93.2" y2="107.963"/>
	<line style="fill:none;stroke:#000000;stroke-miterlimit:1;" x1="227.85" y1="147.456" x2="133.714" y2="147.456"/>
	<line style="fill:none;stroke:#000000;stroke-miterlimit:1;" x1="133.714" y1="147.456" x2="156.425" y2="138.569"/>
	<line style="fill:none;stroke:#000000;stroke-miterlimit:1;" x1="156.425" y1="138.569" x2="142.931" y2="94.135"/>
	<line style="fill:none;stroke:#000000;stroke-miterlimit:1;" x1="142.931" y1="94.135" x2="142.602" y2="90.186"/>
	<line style="fill:none;stroke:#000000;stroke-miterlimit:1;" x1="142.602" y1="90.186" x2="142.272" y2="86.564"/>
	<line style="fill:none;stroke:#000000;stroke-miterlimit:1;" x1="142.272" y1="86.564" x2="142.602" y2="83.273"/>
	<line style="fill:none;stroke:#000000;stroke-miterlimit:1;" x1="142.602" y1="83.273" x2="143.589" y2="81.298"/>
	<line style="fill:none;stroke:#000000;stroke-miterlimit:1;" x1="143.589" y1="81.298" x2="144.905" y2="79.652"/>
	<line style="fill:none;stroke:#000000;stroke-miterlimit:1;" x1="144.905" y1="79.652" x2="146.88" y2="78.665"/>
	<line style="fill:none;stroke:#000000;stroke-miterlimit:1;" x1="146.88" y1="78.665" x2="148.525" y2="78.336"/>
	<line style="fill:none;stroke:#000000;stroke-miterlimit:1;" x1="148.525" y1="78.336" x2="150.501" y2="78.336"/>
	<line style="fill:none;stroke:#000000;stroke-miterlimit:1;" x1="150.501" y1="78.336" x2="151.817" y2="78.336"/>
	<line style="fill:none;stroke:#000000;stroke-miterlimit:1;" x1="151.817" y1="78.336" x2="152.805" y2="78.665"/>
	<line style="fill:none;stroke:#000000;stroke-miterlimit:1;" x1="152.805" y1="78.665" x2="154.45" y2="79.652"/>
	<line style="fill:none;stroke:#000000;stroke-miterlimit:1;" x1="154.45" y1="79.652" x2="157.083" y2="81.627"/>
	<line style="fill:none;stroke:#000000;stroke-miterlimit:1;" x1="157.083" y1="81.627" x2="183.086" y2="113.884"/>
	<line style="fill:none;stroke:#000000;stroke-miterlimit:1;" x1="183.086" y1="113.884" x2="185.719" y2="62.866"/>
	<line style="fill:none;stroke:#000000;stroke-miterlimit:1;" x1="185.719" y1="62.866" x2="186.706" y2="55.296"/>
	<line style="fill:none;stroke:#000000;stroke-miterlimit:1;" x1="186.706" y1="55.296" x2="188.022" y2="50.03"/>
	<line style="fill:none;stroke:#000000;stroke-miterlimit:1;" x1="188.022" y1="50.03" x2="189.011" y2="46.738"/>
	<line style="fill:none;stroke:#000000;stroke-miterlimit:1;" x1="189.011" y1="46.738" x2="192.302" y2="43.776"/>
	<line style="fill:none;stroke:#000000;stroke-miterlimit:1;" x1="192.302" y1="43.776" x2="195.264" y2="41.801"/>
	<line style="fill:none;stroke:#000000;stroke-miterlimit:1;" x1="195.264" y1="41.801" x2="196.91" y2="40.813"/>
	<line style="fill:none;stroke:#000000;stroke-miterlimit:1;" x1="196.91" y1="40.813" x2="199.543" y2="40.155"/>
	<line style="fill:none;stroke:#000000;stroke-miterlimit:1;" x1="199.543" y1="40.155" x2="201.847" y2="40.155"/>
	<line style="fill:none;stroke:#000000;stroke-miterlimit:1;" x1="201.847" y1="40.155" x2="204.151" y2="40.484"/>
	<line style="fill:none;stroke:#000000;stroke-miterlimit:1;" x1="204.151" y1="40.484" x2="208.43" y2="42.789"/>
	<line style="fill:none;stroke:#000000;stroke-miterlimit:1;" x1="208.43" y1="42.789" x2="210.733" y2="45.422"/>
	<line style="fill:none;stroke:#000000;stroke-miterlimit:1;" x1="210.733" y1="45.422" x2="212.38" y2="48.384"/>
	<line style="fill:none;stroke:#000000;stroke-miterlimit:1;" x1="212.38" y1="48.384" x2="214.354" y2="52.333"/>
	<line style="fill:none;stroke:#000000;stroke-miterlimit:1;" x1="214.354" y1="52.333" x2="215.342" y2="57.271"/>
	<line style="fill:none;stroke:#000000;stroke-miterlimit:1;" x1="215.342" y1="57.271" x2="216" y2="62.208"/>
	<line style="fill:none;stroke:#000000;stroke-miterlimit:1;" x1="216" y1="62.208" x2="216.329" y2="65.5"/>
	<line style="fill:none;stroke:#000000;stroke-miterlimit:1;" x1="216.329" y1="65.5" x2="216.329" y2="133.632"/>
	<line style="fill:none;stroke:#000000;stroke-miterlimit:1;" x1="216.329" y1="133.632" x2="215.671" y2="136.265"/>
	<line style="fill:none;stroke:#000000;stroke-miterlimit:1;" x1="215.671" y1="136.265" x2="214.025" y2="138.898"/>
	<line style="fill:none;stroke:#000000;stroke-miterlimit:1;" x1="214.025" y1="138.898" x2="228.837" y2="148.114"/>
	<line style="fill:none;stroke:#000000;stroke-miterlimit:1;" x1="185.061" y1="70.766" x2="176.503" y2="70.766"/>
	<line style="fill:none;stroke:#000000;stroke-miterlimit:1;" x1="176.503" y1="70.766" x2="177.161" y2="56.941"/>
	<line style="fill:none;stroke:#000000;stroke-miterlimit:1;" x1="177.161" y1="56.941" x2="178.148" y2="50.03"/>
	<line style="fill:none;stroke:#000000;stroke-miterlimit:1;" x1="178.148" y1="50.03" x2="180.123" y2="44.763"/>
	<line style="fill:none;stroke:#000000;stroke-miterlimit:1;" x1="180.123" y1="44.763" x2="182.428" y2="39.497"/>
	<line style="fill:none;stroke:#000000;stroke-miterlimit:1;" x1="216.987" y1="71.095" x2="225.216" y2="71.095"/>
	<line style="fill:none;stroke:#000000;stroke-miterlimit:1;" x1="225.216" y1="71.095" x2="225.874" y2="35.218"/>
	<line style="fill:none;stroke:#000000;stroke-miterlimit:1;" x1="225.874" y1="35.218" x2="224.558" y2="28.306"/>
	<line style="fill:none;stroke:#000000;stroke-miterlimit:1;" x1="224.558" y1="28.306" x2="221.925" y2="21.394"/>
	<line style="fill:none;stroke:#000000;stroke-miterlimit:1;" x1="221.925" y1="21.394" x2="216.987" y2="12.836"/>
	<line style="fill:none;stroke:#000000;stroke-miterlimit:1;" x1="216.987" y1="12.836" x2="211.392" y2="7.241"/>
	<line style="fill:none;stroke:#000000;stroke-miterlimit:1;" x1="211.392" y1="7.241" x2="204.81" y2="3.292"/>
	<line style="fill:none;stroke:#000000;stroke-miterlimit:1;" x1="204.81" y1="3.292" x2="197.897" y2="1.316"/>
	<line style="fill:none;stroke:#000000;stroke-miterlimit:1;" x1="197.897" y1="1.316" x2="190.327" y2="0.329"/>
	<line style="fill:none;stroke:#000000;stroke-miterlimit:1;" x1="182.099" y1="5.924" x2="184.073" y2="7.241"/>
	<line style="fill:none;stroke:#000000;stroke-miterlimit:1;" x1="184.073" y1="7.241" x2="185.719" y2="5.924"/>
	<line style="fill:none;stroke:#000000;stroke-miterlimit:1;" x1="185.719" y1="5.924" x2="183.744" y2="4.279"/>
	<line style="fill:none;stroke:#000000;stroke-miterlimit:1;" x1="183.744" y1="4.279" x2="182.428" y2="5.924"/>
	<line style="fill:none;stroke:#000000;stroke-miterlimit:1;" x1="182.099" y1="39.497" x2="180.782" y2="37.522"/>
	<line style="fill:none;stroke:#000000;stroke-miterlimit:1;" x1="180.782" y1="37.522" x2="180.123" y2="33.243"/>
	<line style="fill:none;stroke:#000000;stroke-miterlimit:1;" x1="180.123" y1="33.243" x2="183.744" y2="25.015"/>
	<line style="fill:none;stroke:#000000;stroke-miterlimit:1;" x1="183.744" y1="25.015" x2="190.985" y2="16.128"/>
	<line style="fill:none;stroke:#000000;stroke-miterlimit:1;" x1="190.985" y1="16.128" x2="192.302" y2="14.812"/>
	<line style="fill:none;stroke:#000000;stroke-miterlimit:1;" x1="192.302" y1="14.812" x2="193.618" y2="12.178"/>
	<line style="fill:none;stroke:#000000;stroke-miterlimit:1;" x1="193.618" y1="12.178" x2="194.276" y2="8.887"/>
	<line style="fill:none;stroke:#000000;stroke-miterlimit:1;" x1="194.276" y1="8.887" x2="193.947" y2="5.924"/>
	<line style="fill:none;stroke:#000000;stroke-miterlimit:1;" x1="193.947" y1="5.924" x2="192.631" y2="3.292"/>
	<line style="fill:none;stroke:#000000;stroke-miterlimit:1;" x1="192.631" y1="3.292" x2="189.998" y2="0.329"/>
	<line style="fill:none;stroke:#000000;stroke-miterlimit:1;" x1="189.998" y1="0.329" x2="185.061" y2="0"/>
	<line style="fill:none;stroke:#000000;stroke-miterlimit:1;" x1="185.061" y1="0" x2="180.123" y2="0.658"/>
	<line style="fill:none;stroke:#000000;stroke-miterlimit:1;" x1="180.123" y1="0.658" x2="176.503" y2="1.646"/>
	<line style="fill:none;stroke:#000000;stroke-miterlimit:1;" x1="176.503" y1="1.646" x2="173.541" y2="3.95"/>
	<line style="fill:none;stroke:#000000;stroke-miterlimit:1;" x1="173.541" y1="3.95" x2="169.591" y2="4.279"/>
	<line style="fill:none;stroke:#000000;stroke-miterlimit:1;" x1="169.591" y1="4.279" x2="164.653" y2="5.266"/>
	<line style="fill:none;stroke:#000000;stroke-miterlimit:1;" x1="164.653" y1="5.266" x2="159.388" y2="7.57"/>
	<line style="fill:none;stroke:#000000;stroke-miterlimit:1;" x1="159.388" y1="7.57" x2="154.779" y2="9.874"/>
	<line style="fill:none;stroke:#000000;stroke-miterlimit:1;" x1="154.779" y1="9.874" x2="148.196" y2="15.141"/>
	<line style="fill:none;stroke:#000000;stroke-miterlimit:1;" x1="148.196" y1="15.141" x2="144.905" y2="18.761"/>
	<line style="fill:none;stroke:#000000;stroke-miterlimit:1;" x1="144.905" y1="18.761" x2="142.931" y2="21.065"/>
	<line style="fill:none;stroke:#000000;stroke-miterlimit:1;" x1="142.931" y1="21.065" x2="144.247" y2="22.053"/>
	<line style="fill:none;stroke:#000000;stroke-miterlimit:1;" x1="144.247" y1="22.053" x2="149.514" y2="17.444"/>
	<line style="fill:none;stroke:#000000;stroke-miterlimit:1;" x1="149.514" y1="17.444" x2="155.767" y2="12.836"/>
	<line style="fill:none;stroke:#000000;stroke-miterlimit:1;" x1="155.767" y1="12.836" x2="160.375" y2="10.533"/>
	<line style="fill:none;stroke:#000000;stroke-miterlimit:1;" x1="160.375" y1="10.533" x2="165.312" y2="9.545"/>
	<line style="fill:none;stroke:#000000;stroke-miterlimit:1;" x1="165.312" y1="9.545" x2="170.249" y2="9.545"/>
	<line style="fill:none;stroke:#000000;stroke-miterlimit:1;" x1="170.249" y1="9.545" x2="174.528" y2="10.203"/>
	<line style="fill:none;stroke:#000000;stroke-miterlimit:1;" x1="174.528" y1="10.203" x2="177.819" y2="11.191"/>
	<line style="fill:none;stroke:#000000;stroke-miterlimit:1;" x1="177.819" y1="11.191" x2="180.123" y2="14.153"/>
	<line style="fill:none;stroke:#000000;stroke-miterlimit:1;" x1="180.123" y1="14.153" x2="179.794" y2="17.773"/>
	<line style="fill:none;stroke:#000000;stroke-miterlimit:1;" x1="179.794" y1="17.773" x2="175.845" y2="25.673"/>
	<line style="fill:none;stroke:#000000;stroke-miterlimit:1;" x1="175.845" y1="25.673" x2="172.554" y2="32.256"/>
	<line style="fill:none;stroke:#000000;stroke-miterlimit:1;" x1="172.554" y1="32.256" x2="170.578" y2="39.826"/>
	<line style="fill:none;stroke:#000000;stroke-miterlimit:1;" x1="170.578" y1="39.826" x2="171.895" y2="44.434"/>
	<line style="fill:none;stroke:#000000;stroke-miterlimit:1;" x1="171.895" y1="44.434" x2="174.857" y2="47.067"/>
	<line style="fill:none;stroke:#000000;stroke-miterlimit:1;" x1="174.857" y1="47.067" x2="179.465" y2="47.726"/>
</g>
</svg>
