<?xml version="1.0" encoding="iso-8859-1"?>
<!-- Generator: Adobe Illustrator 16.0.1, SVG Export Plug-In . SVG Version: 6.00 Build 0)  -->
<!DOCTYPE svg PUBLIC "-//W3C//DTD SVG 1.1//EN" "http://www.w3.org/Graphics/SVG/1.1/DTD/svg11.dtd">
<svg version="1.1" id="Ebene_1" xmlns="http://www.w3.org/2000/svg" xmlns:xlink="http://www.w3.org/1999/xlink" x="0px" y="0px"
	 width="215.547px" height="148.772px" viewBox="0 0 215.547 148.772" style="enable-background:new 0 0 215.547 148.772;"
	 xml:space="preserve">
<g>
	<line style="fill:none;stroke:#000000;stroke-miterlimit:1;" x1="103.323" y1="46.06" x2="105.501" y2="42.325"/>
	<line style="fill:none;stroke:#000000;stroke-miterlimit:1;" x1="105.501" y1="42.325" x2="108.303" y2="39.524"/>
	<line style="fill:none;stroke:#000000;stroke-miterlimit:1;" x1="108.303" y1="39.524" x2="112.348" y2="38.59"/>
	<line style="fill:none;stroke:#000000;stroke-miterlimit:1;" x1="112.348" y1="38.59" x2="115.771" y2="39.213"/>
	<line style="fill:none;stroke:#000000;stroke-miterlimit:1;" x1="115.771" y1="39.213" x2="118.262" y2="41.391"/>
	<line style="fill:none;stroke:#000000;stroke-miterlimit:1;" x1="118.262" y1="41.391" x2="119.506" y2="43.258"/>
	<line style="fill:none;stroke:#000000;stroke-miterlimit:1;" x1="119.506" y1="43.258" x2="120.439" y2="47.615"/>
	<line style="fill:none;stroke:#000000;stroke-miterlimit:1;" x1="120.439" y1="47.615" x2="120.439" y2="98.032"/>
	<line style="fill:none;stroke:#000000;stroke-miterlimit:1;" x1="120.439" y1="98.032" x2="0" y2="98.032"/>
	<line style="fill:none;stroke:#000000;stroke-miterlimit:1;" x1="0" y1="98.032" x2="0" y2="47.615"/>
	<line style="fill:none;stroke:#000000;stroke-miterlimit:1;" x1="0" y1="47.615" x2="1.245" y2="43.258"/>
	<line style="fill:none;stroke:#000000;stroke-miterlimit:1;" x1="1.245" y1="43.258" x2="2.179" y2="41.391"/>
	<line style="fill:none;stroke:#000000;stroke-miterlimit:1;" x1="2.179" y1="41.391" x2="4.668" y2="39.213"/>
	<line style="fill:none;stroke:#000000;stroke-miterlimit:1;" x1="4.668" y1="39.213" x2="8.092" y2="38.59"/>
	<line style="fill:none;stroke:#000000;stroke-miterlimit:1;" x1="8.092" y1="38.59" x2="12.449" y2="39.524"/>
	<line style="fill:none;stroke:#000000;stroke-miterlimit:1;" x1="12.449" y1="39.524" x2="15.25" y2="42.325"/>
	<line style="fill:none;stroke:#000000;stroke-miterlimit:1;" x1="15.25" y1="42.325" x2="17.117" y2="45.748"/>
	<line style="fill:none;stroke:#000000;stroke-miterlimit:1;" x1="63.488" y1="0" x2="60.687" y2="0"/>
	<line style="fill:none;stroke:#000000;stroke-miterlimit:1;" x1="60.687" y1="0" x2="58.508" y2="0"/>
	<line style="fill:none;stroke:#000000;stroke-miterlimit:1;" x1="58.508" y1="0" x2="56.641" y2="0.311"/>
	<line style="fill:none;stroke:#000000;stroke-miterlimit:1;" x1="56.641" y1="0.311" x2="53.218" y2="0.934"/>
	<line style="fill:none;stroke:#000000;stroke-miterlimit:1;" x1="53.218" y1="0.934" x2="51.039" y2="1.245"/>
	<line style="fill:none;stroke:#000000;stroke-miterlimit:1;" x1="51.039" y1="1.245" x2="49.172" y2="1.867"/>
	<line style="fill:none;stroke:#000000;stroke-miterlimit:1;" x1="49.172" y1="1.867" x2="47.305" y2="2.489"/>
	<line style="fill:none;stroke:#000000;stroke-miterlimit:1;" x1="47.305" y1="2.489" x2="44.815" y2="3.112"/>
	<line style="fill:none;stroke:#000000;stroke-miterlimit:1;" x1="44.815" y1="3.112" x2="42.636" y2="4.045"/>
	<line style="fill:none;stroke:#000000;stroke-miterlimit:1;" x1="42.636" y1="4.045" x2="40.458" y2="4.979"/>
	<line style="fill:none;stroke:#000000;stroke-miterlimit:1;" x1="40.458" y1="4.979" x2="38.591" y2="5.913"/>
	<line style="fill:none;stroke:#000000;stroke-miterlimit:1;" x1="38.591" y1="5.913" x2="36.723" y2="7.158"/>
	<line style="fill:none;stroke:#000000;stroke-miterlimit:1;" x1="36.723" y1="7.158" x2="34.856" y2="8.402"/>
	<line style="fill:none;stroke:#000000;stroke-miterlimit:1;" x1="34.856" y1="8.402" x2="32.989" y2="9.647"/>
	<line style="fill:none;stroke:#000000;stroke-miterlimit:1;" x1="32.989" y1="9.647" x2="31.433" y2="11.204"/>
	<line style="fill:none;stroke:#000000;stroke-miterlimit:1;" x1="31.433" y1="11.204" x2="28.009" y2="14.315"/>
	<line style="fill:none;stroke:#000000;stroke-miterlimit:1;" x1="28.009" y1="14.315" x2="26.765" y2="15.872"/>
	<line style="fill:none;stroke:#000000;stroke-miterlimit:1;" x1="26.765" y1="15.872" x2="25.52" y2="17.117"/>
	<line style="fill:none;stroke:#000000;stroke-miterlimit:1;" x1="25.52" y1="17.117" x2="23.341" y2="20.229"/>
	<line style="fill:none;stroke:#000000;stroke-miterlimit:1;" x1="23.341" y1="20.229" x2="21.474" y2="23.341"/>
	<line style="fill:none;stroke:#000000;stroke-miterlimit:1;" x1="21.474" y1="23.341" x2="20.541" y2="25.208"/>
	<line style="fill:none;stroke:#000000;stroke-miterlimit:1;" x1="20.541" y1="25.208" x2="19.918" y2="27.387"/>
	<line style="fill:none;stroke:#000000;stroke-miterlimit:1;" x1="19.918" y1="27.387" x2="18.673" y2="31.744"/>
	<line style="fill:none;stroke:#000000;stroke-miterlimit:1;" x1="18.673" y1="31.744" x2="17.739" y2="33.611"/>
	<line style="fill:none;stroke:#000000;stroke-miterlimit:1;" x1="17.739" y1="33.611" x2="17.428" y2="36.412"/>
	<line style="fill:none;stroke:#000000;stroke-miterlimit:1;" x1="17.428" y1="36.412" x2="17.117" y2="38.279"/>
	<line style="fill:none;stroke:#000000;stroke-miterlimit:1;" x1="17.117" y1="38.279" x2="17.117" y2="41.702"/>
	<line style="fill:none;stroke:#000000;stroke-miterlimit:1;" x1="17.117" y1="41.702" x2="17.117" y2="43.881"/>
	<line style="fill:none;stroke:#000000;stroke-miterlimit:1;" x1="17.117" y1="43.881" x2="17.117" y2="46.993"/>
	<line style="fill:none;stroke:#000000;stroke-miterlimit:1;" x1="17.117" y1="46.993" x2="17.428" y2="49.171"/>
	<line style="fill:none;stroke:#000000;stroke-miterlimit:1;" x1="17.428" y1="49.171" x2="18.673" y2="53.528"/>
	<line style="fill:none;stroke:#000000;stroke-miterlimit:1;" x1="18.673" y1="53.528" x2="19.295" y2="56.33"/>
	<line style="fill:none;stroke:#000000;stroke-miterlimit:1;" x1="19.295" y1="56.33" x2="19.918" y2="57.885"/>
	<line style="fill:none;stroke:#000000;stroke-miterlimit:1;" x1="19.918" y1="57.885" x2="21.163" y2="60.687"/>
	<line style="fill:none;stroke:#000000;stroke-miterlimit:1;" x1="21.163" y1="60.687" x2="21.785" y2="62.554"/>
	<line style="fill:none;stroke:#000000;stroke-miterlimit:1;" x1="21.785" y1="62.554" x2="23.652" y2="64.421"/>
	<line style="fill:none;stroke:#000000;stroke-miterlimit:1;" x1="23.652" y1="64.421" x2="24.275" y2="65.977"/>
	<line style="fill:none;stroke:#000000;stroke-miterlimit:1;" x1="24.275" y1="65.977" x2="25.831" y2="67.844"/>
	<line style="fill:none;stroke:#000000;stroke-miterlimit:1;" x1="25.831" y1="67.844" x2="27.076" y2="69.4"/>
	<line style="fill:none;stroke:#000000;stroke-miterlimit:1;" x1="27.076" y1="69.4" x2="28.632" y2="71.579"/>
	<line style="fill:none;stroke:#000000;stroke-miterlimit:1;" x1="28.632" y1="71.579" x2="31.744" y2="74.38"/>
	<line style="fill:none;stroke:#000000;stroke-miterlimit:1;" x1="31.744" y1="74.38" x2="33.922" y2="75.936"/>
	<line style="fill:none;stroke:#000000;stroke-miterlimit:1;" x1="33.922" y1="75.936" x2="36.101" y2="77.492"/>
	<line style="fill:none;stroke:#000000;stroke-miterlimit:1;" x1="36.101" y1="77.492" x2="37.346" y2="78.426"/>
	<line style="fill:none;stroke:#000000;stroke-miterlimit:1;" x1="37.346" y1="78.426" x2="39.213" y2="79.67"/>
	<line style="fill:none;stroke:#000000;stroke-miterlimit:1;" x1="39.213" y1="79.67" x2="41.081" y2="80.604"/>
	<line style="fill:none;stroke:#000000;stroke-miterlimit:1;" x1="41.081" y1="80.604" x2="43.881" y2="81.538"/>
	<line style="fill:none;stroke:#000000;stroke-miterlimit:1;" x1="43.881" y1="81.538" x2="45.749" y2="82.472"/>
	<line style="fill:none;stroke:#000000;stroke-miterlimit:1;" x1="45.749" y1="82.472" x2="48.238" y2="83.094"/>
	<line style="fill:none;stroke:#000000;stroke-miterlimit:1;" x1="48.238" y1="83.094" x2="49.794" y2="83.405"/>
	<line style="fill:none;stroke:#000000;stroke-miterlimit:1;" x1="49.794" y1="83.405" x2="51.973" y2="84.027"/>
	<line style="fill:none;stroke:#000000;stroke-miterlimit:1;" x1="51.973" y1="84.027" x2="54.151" y2="84.339"/>
	<line style="fill:none;stroke:#000000;stroke-miterlimit:1;" x1="54.151" y1="84.339" x2="56.641" y2="84.649"/>
	<line style="fill:none;stroke:#000000;stroke-miterlimit:1;" x1="56.641" y1="84.649" x2="58.508" y2="84.649"/>
	<line style="fill:none;stroke:#000000;stroke-miterlimit:1;" x1="58.508" y1="84.649" x2="61.309" y2="84.649"/>
	<line style="fill:none;stroke:#000000;stroke-miterlimit:1;" x1="61.309" y1="84.649" x2="63.488" y2="84.339"/>
	<line style="fill:none;stroke:#000000;stroke-miterlimit:1;" x1="63.488" y1="84.339" x2="64.11" y2="84.649"/>
	<line style="fill:none;stroke:#000000;stroke-miterlimit:1;" x1="64.11" y1="84.649" x2="66.6" y2="84.339"/>
	<line style="fill:none;stroke:#000000;stroke-miterlimit:1;" x1="66.6" y1="84.339" x2="68.467" y2="84.027"/>
	<line style="fill:none;stroke:#000000;stroke-miterlimit:1;" x1="68.467" y1="84.027" x2="70.957" y2="83.405"/>
	<line style="fill:none;stroke:#000000;stroke-miterlimit:1;" x1="70.957" y1="83.405" x2="72.202" y2="83.094"/>
	<line style="fill:none;stroke:#000000;stroke-miterlimit:1;" x1="72.202" y1="83.094" x2="74.691" y2="82.472"/>
	<line style="fill:none;stroke:#000000;stroke-miterlimit:1;" x1="74.691" y1="82.472" x2="76.559" y2="81.538"/>
	<line style="fill:none;stroke:#000000;stroke-miterlimit:1;" x1="76.559" y1="81.538" x2="79.359" y2="80.604"/>
	<line style="fill:none;stroke:#000000;stroke-miterlimit:1;" x1="79.359" y1="80.604" x2="81.227" y2="79.67"/>
	<line style="fill:none;stroke:#000000;stroke-miterlimit:1;" x1="81.227" y1="79.67" x2="83.094" y2="78.426"/>
	<line style="fill:none;stroke:#000000;stroke-miterlimit:1;" x1="83.094" y1="78.426" x2="84.339" y2="77.492"/>
	<line style="fill:none;stroke:#000000;stroke-miterlimit:1;" x1="84.339" y1="77.492" x2="86.829" y2="75.936"/>
	<line style="fill:none;stroke:#000000;stroke-miterlimit:1;" x1="86.829" y1="75.936" x2="88.696" y2="74.38"/>
	<line style="fill:none;stroke:#000000;stroke-miterlimit:1;" x1="88.696" y1="74.38" x2="91.808" y2="71.579"/>
	<line style="fill:none;stroke:#000000;stroke-miterlimit:1;" x1="91.808" y1="71.579" x2="93.364" y2="69.4"/>
	<line style="fill:none;stroke:#000000;stroke-miterlimit:1;" x1="93.364" y1="69.4" x2="94.609" y2="67.844"/>
	<line style="fill:none;stroke:#000000;stroke-miterlimit:1;" x1="94.609" y1="67.844" x2="96.165" y2="65.977"/>
	<line style="fill:none;stroke:#000000;stroke-miterlimit:1;" x1="96.165" y1="65.977" x2="97.099" y2="64.421"/>
	<line style="fill:none;stroke:#000000;stroke-miterlimit:1;" x1="97.099" y1="64.421" x2="98.655" y2="62.554"/>
	<line style="fill:none;stroke:#000000;stroke-miterlimit:1;" x1="98.655" y1="62.554" x2="99.588" y2="60.687"/>
	<line style="fill:none;stroke:#000000;stroke-miterlimit:1;" x1="99.588" y1="60.687" x2="100.522" y2="57.885"/>
	<line style="fill:none;stroke:#000000;stroke-miterlimit:1;" x1="100.522" y1="57.885" x2="101.456" y2="56.33"/>
	<line style="fill:none;stroke:#000000;stroke-miterlimit:1;" x1="101.456" y1="56.33" x2="102.078" y2="53.528"/>
	<line style="fill:none;stroke:#000000;stroke-miterlimit:1;" x1="102.078" y1="53.528" x2="103.012" y2="49.171"/>
	<line style="fill:none;stroke:#000000;stroke-miterlimit:1;" x1="103.012" y1="49.171" x2="103.323" y2="46.993"/>
	<line style="fill:none;stroke:#000000;stroke-miterlimit:1;" x1="103.323" y1="46.993" x2="103.323" y2="43.881"/>
	<line style="fill:none;stroke:#000000;stroke-miterlimit:1;" x1="103.323" y1="43.881" x2="103.323" y2="41.702"/>
	<line style="fill:none;stroke:#000000;stroke-miterlimit:1;" x1="103.323" y1="41.702" x2="103.323" y2="38.279"/>
	<line style="fill:none;stroke:#000000;stroke-miterlimit:1;" x1="103.323" y1="38.279" x2="103.012" y2="36.412"/>
	<line style="fill:none;stroke:#000000;stroke-miterlimit:1;" x1="103.012" y1="36.412" x2="102.701" y2="33.611"/>
	<line style="fill:none;stroke:#000000;stroke-miterlimit:1;" x1="102.701" y1="33.611" x2="102.078" y2="31.744"/>
	<line style="fill:none;stroke:#000000;stroke-miterlimit:1;" x1="102.078" y1="31.744" x2="101.456" y2="28.631"/>
	<line style="fill:none;stroke:#000000;stroke-miterlimit:1;" x1="101.456" y1="28.631" x2="99.9" y2="25.208"/>
	<line style="fill:none;stroke:#000000;stroke-miterlimit:1;" x1="99.9" y1="25.208" x2="98.966" y2="23.341"/>
	<line style="fill:none;stroke:#000000;stroke-miterlimit:1;" x1="98.966" y1="23.341" x2="97.721" y2="21.162"/>
	<line style="fill:none;stroke:#000000;stroke-miterlimit:1;" x1="97.721" y1="21.162" x2="94.92" y2="17.117"/>
	<line style="fill:none;stroke:#000000;stroke-miterlimit:1;" x1="94.92" y1="17.117" x2="93.987" y2="15.872"/>
	<line style="fill:none;stroke:#000000;stroke-miterlimit:1;" x1="93.987" y1="15.872" x2="92.742" y2="14.315"/>
	<line style="fill:none;stroke:#000000;stroke-miterlimit:1;" x1="92.742" y1="14.315" x2="89.007" y2="11.204"/>
	<line style="fill:none;stroke:#000000;stroke-miterlimit:1;" x1="89.007" y1="11.204" x2="87.451" y2="9.647"/>
	<line style="fill:none;stroke:#000000;stroke-miterlimit:1;" x1="87.451" y1="9.647" x2="85.895" y2="8.402"/>
	<line style="fill:none;stroke:#000000;stroke-miterlimit:1;" x1="85.895" y1="8.402" x2="84.028" y2="7.158"/>
	<line style="fill:none;stroke:#000000;stroke-miterlimit:1;" x1="84.028" y1="7.158" x2="81.849" y2="5.913"/>
	<line style="fill:none;stroke:#000000;stroke-miterlimit:1;" x1="81.849" y1="5.913" x2="80.293" y2="4.979"/>
	<line style="fill:none;stroke:#000000;stroke-miterlimit:1;" x1="80.293" y1="4.979" x2="77.804" y2="4.045"/>
	<line style="fill:none;stroke:#000000;stroke-miterlimit:1;" x1="77.804" y1="4.045" x2="75.936" y2="3.112"/>
	<line style="fill:none;stroke:#000000;stroke-miterlimit:1;" x1="75.936" y1="3.112" x2="73.135" y2="2.489"/>
	<line style="fill:none;stroke:#000000;stroke-miterlimit:1;" x1="73.135" y1="2.489" x2="71.579" y2="1.867"/>
	<line style="fill:none;stroke:#000000;stroke-miterlimit:1;" x1="71.579" y1="1.867" x2="69.401" y2="1.245"/>
	<line style="fill:none;stroke:#000000;stroke-miterlimit:1;" x1="69.401" y1="1.245" x2="67.534" y2="0.934"/>
	<line style="fill:none;stroke:#000000;stroke-miterlimit:1;" x1="67.534" y1="0.934" x2="65.666" y2="0.311"/>
	<line style="fill:none;stroke:#000000;stroke-miterlimit:1;" x1="65.666" y1="0.311" x2="61.932" y2="0"/>
	<line style="fill:none;stroke:#000000;stroke-miterlimit:1;" x1="61.932" y1="0" x2="59.753" y2="0"/>
	<line style="fill:none;stroke:#000000;stroke-miterlimit:1;" x1="53.129" y1="148.058" x2="0" y2="148.058"/>
	<line style="fill:none;stroke:#000000;stroke-miterlimit:1;" x1="0" y1="148.058" x2="0.676" y2="143.556"/>
	<line style="fill:none;stroke:#000000;stroke-miterlimit:1;" x1="0.676" y1="143.556" x2="1.351" y2="140.629"/>
	<line style="fill:none;stroke:#000000;stroke-miterlimit:1;" x1="1.351" y1="140.629" x2="2.477" y2="137.702"/>
	<line style="fill:none;stroke:#000000;stroke-miterlimit:1;" x1="2.477" y1="137.702" x2="4.052" y2="135.451"/>
	<line style="fill:none;stroke:#000000;stroke-miterlimit:1;" x1="4.052" y1="135.451" x2="5.403" y2="133.425"/>
	<line style="fill:none;stroke:#000000;stroke-miterlimit:1;" x1="5.403" y1="133.425" x2="7.204" y2="130.948"/>
	<line style="fill:none;stroke:#000000;stroke-miterlimit:1;" x1="7.204" y1="130.948" x2="9.23" y2="129.147"/>
	<line style="fill:none;stroke:#000000;stroke-miterlimit:1;" x1="9.23" y1="129.147" x2="11.707" y2="127.347"/>
	<line style="fill:none;stroke:#000000;stroke-miterlimit:1;" x1="11.707" y1="127.347" x2="13.732" y2="125.996"/>
	<line style="fill:none;stroke:#000000;stroke-miterlimit:1;" x1="13.732" y1="125.996" x2="16.659" y2="124.646"/>
	<line style="fill:none;stroke:#000000;stroke-miterlimit:1;" x1="16.659" y1="124.646" x2="19.586" y2="123.745"/>
	<line style="fill:none;stroke:#000000;stroke-miterlimit:1;" x1="19.586" y1="123.745" x2="21.612" y2="123.295"/>
	<line style="fill:none;stroke:#000000;stroke-miterlimit:1;" x1="21.612" y1="123.295" x2="25.214" y2="122.845"/>
	<line style="fill:none;stroke:#000000;stroke-miterlimit:1;" x1="25.214" y1="122.845" x2="27.915" y2="122.845"/>
	<line style="fill:none;stroke:#000000;stroke-miterlimit:1;" x1="27.915" y1="122.845" x2="30.392" y2="123.295"/>
	<line style="fill:none;stroke:#000000;stroke-miterlimit:1;" x1="30.392" y1="123.295" x2="33.093" y2="123.745"/>
	<line style="fill:none;stroke:#000000;stroke-miterlimit:1;" x1="33.093" y1="123.745" x2="36.02" y2="124.42"/>
	<line style="fill:none;stroke:#000000;stroke-miterlimit:1;" x1="36.02" y1="124.42" x2="38.045" y2="125.096"/>
	<line style="fill:none;stroke:#000000;stroke-miterlimit:1;" x1="38.045" y1="125.096" x2="40.747" y2="126.896"/>
	<line style="fill:none;stroke:#000000;stroke-miterlimit:1;" x1="40.747" y1="126.896" x2="42.998" y2="128.473"/>
	<line style="fill:none;stroke:#000000;stroke-miterlimit:1;" x1="42.998" y1="128.473" x2="45.024" y2="130.048"/>
	<line style="fill:none;stroke:#000000;stroke-miterlimit:1;" x1="45.024" y1="130.048" x2="46.825" y2="132.3"/>
	<line style="fill:none;stroke:#000000;stroke-miterlimit:1;" x1="46.825" y1="132.3" x2="48.626" y2="134.775"/>
	<line style="fill:none;stroke:#000000;stroke-miterlimit:1;" x1="48.626" y1="134.775" x2="50.202" y2="137.252"/>
	<line style="fill:none;stroke:#000000;stroke-miterlimit:1;" x1="50.202" y1="137.252" x2="51.328" y2="139.503"/>
	<line style="fill:none;stroke:#000000;stroke-miterlimit:1;" x1="51.328" y1="139.503" x2="52.228" y2="142.88"/>
	<line style="fill:none;stroke:#000000;stroke-miterlimit:1;" x1="52.228" y1="142.88" x2="52.904" y2="145.356"/>
	<line style="fill:none;stroke:#000000;stroke-miterlimit:1;" x1="52.904" y1="145.356" x2="53.129" y2="148.058"/>
	<line style="fill:none;stroke:#000000;stroke-miterlimit:1;" x1="120.439" y1="107.593" x2="102.43" y2="148.114"/>
	<line style="fill:none;stroke:#000000;stroke-miterlimit:1;" x1="102.43" y1="148.114" x2="93.425" y2="148.114"/>
	<line style="fill:none;stroke:#000000;stroke-miterlimit:1;" x1="93.425" y1="148.114" x2="111.436" y2="107.593"/>
	<line style="fill:none;stroke:#000000;stroke-miterlimit:1;" x1="111.436" y1="107.593" x2="120.439" y2="107.593"/>
	<line style="fill:none;stroke:#000000;stroke-miterlimit:1;" x1="93.2" y1="107.593" x2="75.19" y2="148.114"/>
	<line style="fill:none;stroke:#000000;stroke-miterlimit:1;" x1="75.19" y1="148.114" x2="66.186" y2="148.114"/>
	<line style="fill:none;stroke:#000000;stroke-miterlimit:1;" x1="66.186" y1="148.114" x2="84.195" y2="107.593"/>
	<line style="fill:none;stroke:#000000;stroke-miterlimit:1;" x1="84.195" y1="107.593" x2="93.2" y2="107.593"/>
	<line style="fill:none;stroke:#000000;stroke-miterlimit:1;" x1="214.889" y1="148.443" x2="138.857" y2="148.443"/>
	<line style="fill:none;stroke:#000000;stroke-miterlimit:1;" x1="138.857" y1="148.443" x2="157.289" y2="141.202"/>
	<line style="fill:none;stroke:#000000;stroke-miterlimit:1;" x1="157.289" y1="141.202" x2="146.428" y2="105.325"/>
	<line style="fill:none;stroke:#000000;stroke-miterlimit:1;" x1="146.428" y1="105.325" x2="146.098" y2="102.034"/>
	<line style="fill:none;stroke:#000000;stroke-miterlimit:1;" x1="146.098" y1="102.034" x2="145.77" y2="99.072"/>
	<line style="fill:none;stroke:#000000;stroke-miterlimit:1;" x1="145.77" y1="99.072" x2="146.098" y2="96.438"/>
	<line style="fill:none;stroke:#000000;stroke-miterlimit:1;" x1="146.098" y1="96.438" x2="147.086" y2="94.793"/>
	<line style="fill:none;stroke:#000000;stroke-miterlimit:1;" x1="147.086" y1="94.793" x2="148.074" y2="93.477"/>
	<line style="fill:none;stroke:#000000;stroke-miterlimit:1;" x1="148.074" y1="93.477" x2="149.391" y2="92.818"/>
	<line style="fill:none;stroke:#000000;stroke-miterlimit:1;" x1="149.391" y1="92.818" x2="150.707" y2="92.489"/>
	<line style="fill:none;stroke:#000000;stroke-miterlimit:1;" x1="150.707" y1="92.489" x2="152.352" y2="92.489"/>
	<line style="fill:none;stroke:#000000;stroke-miterlimit:1;" x1="152.352" y1="92.489" x2="153.34" y2="92.489"/>
	<line style="fill:none;stroke:#000000;stroke-miterlimit:1;" x1="153.34" y1="92.489" x2="153.998" y2="92.818"/>
	<line style="fill:none;stroke:#000000;stroke-miterlimit:1;" x1="153.998" y1="92.818" x2="155.645" y2="93.477"/>
	<line style="fill:none;stroke:#000000;stroke-miterlimit:1;" x1="155.645" y1="93.477" x2="157.619" y2="95.122"/>
	<line style="fill:none;stroke:#000000;stroke-miterlimit:1;" x1="157.619" y1="95.122" x2="178.684" y2="121.124"/>
	<line style="fill:none;stroke:#000000;stroke-miterlimit:1;" x1="178.684" y1="121.124" x2="180.988" y2="79.981"/>
	<line style="fill:none;stroke:#000000;stroke-miterlimit:1;" x1="180.988" y1="79.981" x2="181.646" y2="74.057"/>
	<line style="fill:none;stroke:#000000;stroke-miterlimit:1;" x1="181.646" y1="74.057" x2="182.633" y2="69.449"/>
	<line style="fill:none;stroke:#000000;stroke-miterlimit:1;" x1="182.633" y1="69.449" x2="183.621" y2="66.816"/>
	<line style="fill:none;stroke:#000000;stroke-miterlimit:1;" x1="183.621" y1="66.816" x2="186.254" y2="64.512"/>
	<line style="fill:none;stroke:#000000;stroke-miterlimit:1;" x1="186.254" y1="64.512" x2="188.559" y2="62.866"/>
	<line style="fill:none;stroke:#000000;stroke-miterlimit:1;" x1="188.559" y1="62.866" x2="189.875" y2="62.208"/>
	<line style="fill:none;stroke:#000000;stroke-miterlimit:1;" x1="189.875" y1="62.208" x2="191.85" y2="61.879"/>
	<line style="fill:none;stroke:#000000;stroke-miterlimit:1;" x1="191.85" y1="61.879" x2="193.824" y2="61.879"/>
	<line style="fill:none;stroke:#000000;stroke-miterlimit:1;" x1="193.824" y1="61.879" x2="195.799" y2="61.879"/>
	<line style="fill:none;stroke:#000000;stroke-miterlimit:1;" x1="195.799" y1="61.879" x2="199.09" y2="63.524"/>
	<line style="fill:none;stroke:#000000;stroke-miterlimit:1;" x1="199.09" y1="63.524" x2="201.064" y2="65.828"/>
	<line style="fill:none;stroke:#000000;stroke-miterlimit:1;" x1="201.064" y1="65.828" x2="202.383" y2="68.461"/>
	<line style="fill:none;stroke:#000000;stroke-miterlimit:1;" x1="202.383" y1="68.461" x2="204.027" y2="71.424"/>
	<line style="fill:none;stroke:#000000;stroke-miterlimit:1;" x1="204.027" y1="71.424" x2="204.686" y2="75.373"/>
	<line style="fill:none;stroke:#000000;stroke-miterlimit:1;" x1="204.686" y1="75.373" x2="205.016" y2="79.323"/>
	<line style="fill:none;stroke:#000000;stroke-miterlimit:1;" x1="205.016" y1="79.323" x2="205.674" y2="81.956"/>
	<line style="fill:none;stroke:#000000;stroke-miterlimit:1;" x1="205.674" y1="81.956" x2="205.674" y2="136.923"/>
	<line style="fill:none;stroke:#000000;stroke-miterlimit:1;" x1="205.674" y1="136.923" x2="205.016" y2="139.228"/>
	<line style="fill:none;stroke:#000000;stroke-miterlimit:1;" x1="205.016" y1="139.228" x2="203.699" y2="141.202"/>
	<line style="fill:none;stroke:#000000;stroke-miterlimit:1;" x1="203.699" y1="141.202" x2="215.547" y2="148.772"/>
	<line style="fill:none;stroke:#000000;stroke-miterlimit:1;" x1="180.33" y1="86.564" x2="173.418" y2="86.235"/>
	<line style="fill:none;stroke:#000000;stroke-miterlimit:1;" x1="173.418" y1="86.235" x2="173.746" y2="75.045"/>
	<line style="fill:none;stroke:#000000;stroke-miterlimit:1;" x1="173.746" y1="75.045" x2="174.734" y2="69.449"/>
	<line style="fill:none;stroke:#000000;stroke-miterlimit:1;" x1="174.734" y1="69.449" x2="176.051" y2="65.499"/>
	<line style="fill:none;stroke:#000000;stroke-miterlimit:1;" x1="176.051" y1="65.499" x2="178.025" y2="61.22"/>
	<line style="fill:none;stroke:#000000;stroke-miterlimit:1;" x1="206.002" y1="86.564" x2="212.914" y2="86.564"/>
	<line style="fill:none;stroke:#000000;stroke-miterlimit:1;" x1="212.914" y1="86.564" x2="213.244" y2="57.6"/>
	<line style="fill:none;stroke:#000000;stroke-miterlimit:1;" x1="213.244" y1="57.6" x2="212.256" y2="52.004"/>
	<line style="fill:none;stroke:#000000;stroke-miterlimit:1;" x1="212.256" y1="52.004" x2="209.953" y2="46.409"/>
	<line style="fill:none;stroke:#000000;stroke-miterlimit:1;" x1="209.953" y1="46.409" x2="206.002" y2="39.497"/>
	<line style="fill:none;stroke:#000000;stroke-miterlimit:1;" x1="206.002" y1="39.497" x2="201.395" y2="35.218"/>
	<line style="fill:none;stroke:#000000;stroke-miterlimit:1;" x1="201.395" y1="35.218" x2="196.457" y2="31.927"/>
	<line style="fill:none;stroke:#000000;stroke-miterlimit:1;" x1="196.457" y1="31.927" x2="190.533" y2="30.281"/>
	<line style="fill:none;stroke:#000000;stroke-miterlimit:1;" x1="190.533" y1="30.281" x2="184.607" y2="29.623"/>
	<line style="fill:none;stroke:#000000;stroke-miterlimit:1;" x1="178.025" y1="34.23" x2="179.672" y2="34.889"/>
	<line style="fill:none;stroke:#000000;stroke-miterlimit:1;" x1="179.672" y1="34.889" x2="180.658" y2="33.901"/>
	<line style="fill:none;stroke:#000000;stroke-miterlimit:1;" x1="180.658" y1="33.901" x2="179.342" y2="32.914"/>
	<line style="fill:none;stroke:#000000;stroke-miterlimit:1;" x1="179.342" y1="32.914" x2="178.355" y2="33.901"/>
	<line style="fill:none;stroke:#000000;stroke-miterlimit:1;" x1="178.025" y1="61.22" x2="176.709" y2="59.575"/>
	<line style="fill:none;stroke:#000000;stroke-miterlimit:1;" x1="176.709" y1="59.575" x2="176.379" y2="55.954"/>
	<line style="fill:none;stroke:#000000;stroke-miterlimit:1;" x1="176.379" y1="55.954" x2="179.342" y2="49.7"/>
	<line style="fill:none;stroke:#000000;stroke-miterlimit:1;" x1="179.342" y1="49.7" x2="184.938" y2="42.13"/>
	<line style="fill:none;stroke:#000000;stroke-miterlimit:1;" x1="184.938" y1="42.13" x2="186.254" y2="41.143"/>
	<line style="fill:none;stroke:#000000;stroke-miterlimit:1;" x1="186.254" y1="41.143" x2="187.242" y2="38.839"/>
	<line style="fill:none;stroke:#000000;stroke-miterlimit:1;" x1="187.242" y1="38.839" x2="187.57" y2="36.535"/>
	<line style="fill:none;stroke:#000000;stroke-miterlimit:1;" x1="187.57" y1="36.535" x2="187.242" y2="33.901"/>
	<line style="fill:none;stroke:#000000;stroke-miterlimit:1;" x1="187.242" y1="33.901" x2="186.254" y2="31.927"/>
	<line style="fill:none;stroke:#000000;stroke-miterlimit:1;" x1="186.254" y1="31.927" x2="184.279" y2="29.623"/>
	<line style="fill:none;stroke:#000000;stroke-miterlimit:1;" x1="184.279" y1="29.623" x2="180.33" y2="29.293"/>
	<line style="fill:none;stroke:#000000;stroke-miterlimit:1;" x1="180.33" y1="29.293" x2="176.379" y2="29.623"/>
	<line style="fill:none;stroke:#000000;stroke-miterlimit:1;" x1="176.379" y1="29.623" x2="173.418" y2="30.61"/>
	<line style="fill:none;stroke:#000000;stroke-miterlimit:1;" x1="173.418" y1="30.61" x2="171.113" y2="32.585"/>
	<line style="fill:none;stroke:#000000;stroke-miterlimit:1;" x1="171.113" y1="32.585" x2="167.822" y2="32.914"/>
	<line style="fill:none;stroke:#000000;stroke-miterlimit:1;" x1="167.822" y1="32.914" x2="163.873" y2="33.572"/>
	<line style="fill:none;stroke:#000000;stroke-miterlimit:1;" x1="163.873" y1="33.572" x2="159.594" y2="35.218"/>
	<line style="fill:none;stroke:#000000;stroke-miterlimit:1;" x1="159.594" y1="35.218" x2="155.973" y2="37.193"/>
	<line style="fill:none;stroke:#000000;stroke-miterlimit:1;" x1="155.973" y1="37.193" x2="150.707" y2="41.472"/>
	<line style="fill:none;stroke:#000000;stroke-miterlimit:1;" x1="150.707" y1="41.472" x2="148.074" y2="44.434"/>
	<line style="fill:none;stroke:#000000;stroke-miterlimit:1;" x1="148.074" y1="44.434" x2="146.428" y2="46.409"/>
	<line style="fill:none;stroke:#000000;stroke-miterlimit:1;" x1="146.428" y1="46.409" x2="147.416" y2="47.067"/>
	<line style="fill:none;stroke:#000000;stroke-miterlimit:1;" x1="147.416" y1="47.067" x2="151.693" y2="43.118"/>
	<line style="fill:none;stroke:#000000;stroke-miterlimit:1;" x1="151.693" y1="43.118" x2="156.631" y2="39.497"/>
	<line style="fill:none;stroke:#000000;stroke-miterlimit:1;" x1="156.631" y1="39.497" x2="160.252" y2="37.851"/>
	<line style="fill:none;stroke:#000000;stroke-miterlimit:1;" x1="160.252" y1="37.851" x2="164.201" y2="36.864"/>
	<line style="fill:none;stroke:#000000;stroke-miterlimit:1;" x1="164.201" y1="36.864" x2="168.48" y2="37.193"/>
	<line style="fill:none;stroke:#000000;stroke-miterlimit:1;" x1="168.48" y1="37.193" x2="171.771" y2="37.522"/>
	<line style="fill:none;stroke:#000000;stroke-miterlimit:1;" x1="171.771" y1="37.522" x2="174.404" y2="38.18"/>
	<line style="fill:none;stroke:#000000;stroke-miterlimit:1;" x1="174.404" y1="38.18" x2="176.379" y2="40.813"/>
	<line style="fill:none;stroke:#000000;stroke-miterlimit:1;" x1="176.379" y1="40.813" x2="176.051" y2="43.776"/>
	<line style="fill:none;stroke:#000000;stroke-miterlimit:1;" x1="176.051" y1="43.776" x2="172.76" y2="49.7"/>
	<line style="fill:none;stroke:#000000;stroke-miterlimit:1;" x1="172.76" y1="49.7" x2="170.127" y2="55.296"/>
	<line style="fill:none;stroke:#000000;stroke-miterlimit:1;" x1="170.127" y1="55.296" x2="168.48" y2="61.22"/>
	<line style="fill:none;stroke:#000000;stroke-miterlimit:1;" x1="168.48" y1="61.22" x2="169.467" y2="65.17"/>
	<line style="fill:none;stroke:#000000;stroke-miterlimit:1;" x1="169.467" y1="65.17" x2="172.102" y2="67.145"/>
	<line style="fill:none;stroke:#000000;stroke-miterlimit:1;" x1="172.102" y1="67.145" x2="175.721" y2="67.803"/>
	<line style="fill:none;stroke:#000000;stroke-miterlimit:1;" x1="187.242" y1="28.964" x2="190.533" y2="28.306"/>
	<line style="fill:none;stroke:#000000;stroke-miterlimit:1;" x1="190.533" y1="28.306" x2="192.178" y2="27.648"/>
	<line style="fill:none;stroke:#000000;stroke-miterlimit:1;" x1="192.178" y1="27.648" x2="196.129" y2="25.015"/>
	<line style="fill:none;stroke:#000000;stroke-miterlimit:1;" x1="196.129" y1="25.015" x2="197.773" y2="22.381"/>
	<line style="fill:none;stroke:#000000;stroke-miterlimit:1;" x1="197.773" y1="22.381" x2="199.42" y2="19.419"/>
	<line style="fill:none;stroke:#000000;stroke-miterlimit:1;" x1="199.42" y1="19.419" x2="199.748" y2="15.799"/>
	<line style="fill:none;stroke:#000000;stroke-miterlimit:1;" x1="199.748" y1="15.799" x2="199.42" y2="11.849"/>
	<line style="fill:none;stroke:#000000;stroke-miterlimit:1;" x1="199.42" y1="11.849" x2="198.104" y2="7.899"/>
	<line style="fill:none;stroke:#000000;stroke-miterlimit:1;" x1="198.104" y1="7.899" x2="195.799" y2="4.608"/>
	<line style="fill:none;stroke:#000000;stroke-miterlimit:1;" x1="195.799" y1="4.608" x2="191.85" y2="1.975"/>
	<line style="fill:none;stroke:#000000;stroke-miterlimit:1;" x1="191.85" y1="1.975" x2="188.887" y2="1.316"/>
	<line style="fill:none;stroke:#000000;stroke-miterlimit:1;" x1="188.887" y1="1.316" x2="186.254" y2="0.658"/>
	<line style="fill:none;stroke:#000000;stroke-miterlimit:1;" x1="186.254" y1="0.658" x2="181.316" y2="0.658"/>
	<line style="fill:none;stroke:#000000;stroke-miterlimit:1;" x1="181.316" y1="0.658" x2="178.025" y2="1.316"/>
	<line style="fill:none;stroke:#000000;stroke-miterlimit:1;" x1="178.025" y1="1.316" x2="173.418" y2="3.95"/>
	<line style="fill:none;stroke:#000000;stroke-miterlimit:1;" x1="173.418" y1="3.95" x2="170.127" y2="7.57"/>
	<line style="fill:none;stroke:#000000;stroke-miterlimit:1;" x1="170.127" y1="7.57" x2="169.139" y2="10.203"/>
	<line style="fill:none;stroke:#000000;stroke-miterlimit:1;" x1="169.139" y1="10.203" x2="168.48" y2="14.153"/>
	<line style="fill:none;stroke:#000000;stroke-miterlimit:1;" x1="168.48" y1="14.153" x2="168.809" y2="16.786"/>
	<line style="fill:none;stroke:#000000;stroke-miterlimit:1;" x1="168.809" y1="16.786" x2="169.139" y2="19.749"/>
	<line style="fill:none;stroke:#000000;stroke-miterlimit:1;" x1="169.139" y1="19.749" x2="169.797" y2="21.723"/>
	<line style="fill:none;stroke:#000000;stroke-miterlimit:1;" x1="169.797" y1="21.723" x2="171.443" y2="23.698"/>
	<line style="fill:none;stroke:#000000;stroke-miterlimit:1;" x1="171.443" y1="23.698" x2="174.404" y2="26.002"/>
	<line style="fill:none;stroke:#000000;stroke-miterlimit:1;" x1="174.404" y1="26.002" x2="178.025" y2="27.977"/>
	<line style="fill:none;stroke:#000000;stroke-miterlimit:1;" x1="178.025" y1="27.977" x2="181.646" y2="28.964"/>
	<line style="fill:none;stroke:#000000;stroke-miterlimit:1;" x1="181.646" y1="28.964" x2="184.279" y2="29.293"/>
	<line style="fill:none;stroke:#000000;stroke-miterlimit:1;" x1="184.279" y1="29.293" x2="187.242" y2="28.964"/>
	<line style="fill:none;stroke:#000000;stroke-miterlimit:1;" x1="199.42" y1="19.749" x2="199.748" y2="22.052"/>
	<line style="fill:none;stroke:#000000;stroke-miterlimit:1;" x1="199.748" y1="22.052" x2="201.395" y2="25.015"/>
	<line style="fill:none;stroke:#000000;stroke-miterlimit:1;" x1="201.395" y1="25.015" x2="204.686" y2="27.977"/>
	<line style="fill:none;stroke:#000000;stroke-miterlimit:1;" x1="204.686" y1="27.977" x2="202.383" y2="24.027"/>
	<line style="fill:none;stroke:#000000;stroke-miterlimit:1;" x1="202.383" y1="24.027" x2="201.395" y2="20.407"/>
	<line style="fill:none;stroke:#000000;stroke-miterlimit:1;" x1="201.395" y1="20.407" x2="200.406" y2="17.115"/>
	<line style="fill:none;stroke:#000000;stroke-miterlimit:1;" x1="169.467" y1="21.394" x2="167.822" y2="24.027"/>
	<line style="fill:none;stroke:#000000;stroke-miterlimit:1;" x1="167.822" y1="24.027" x2="165.189" y2="25.015"/>
	<line style="fill:none;stroke:#000000;stroke-miterlimit:1;" x1="165.189" y1="25.015" x2="163.215" y2="24.356"/>
	<line style="fill:none;stroke:#000000;stroke-miterlimit:1;" x1="163.215" y1="24.356" x2="162.557" y2="21.723"/>
	<line style="fill:none;stroke:#000000;stroke-miterlimit:1;" x1="162.557" y1="21.723" x2="162.885" y2="18.432"/>
	<line style="fill:none;stroke:#000000;stroke-miterlimit:1;" x1="162.885" y1="18.432" x2="163.873" y2="15.14"/>
	<line style="fill:none;stroke:#000000;stroke-miterlimit:1;" x1="163.873" y1="15.14" x2="165.189" y2="12.178"/>
	<line style="fill:none;stroke:#000000;stroke-miterlimit:1;" x1="165.189" y1="12.178" x2="165.189" y2="9.216"/>
	<line style="fill:none;stroke:#000000;stroke-miterlimit:1;" x1="165.189" y1="9.216" x2="163.873" y2="6.912"/>
	<line style="fill:none;stroke:#000000;stroke-miterlimit:1;" x1="163.873" y1="6.912" x2="160.91" y2="6.253"/>
	<line style="fill:none;stroke:#000000;stroke-miterlimit:1;" x1="160.91" y1="6.253" x2="156.961" y2="6.912"/>
	<line style="fill:none;stroke:#000000;stroke-miterlimit:1;" x1="156.961" y1="6.912" x2="156.303" y2="8.887"/>
	<line style="fill:none;stroke:#000000;stroke-miterlimit:1;" x1="156.303" y1="8.887" x2="158.936" y2="10.203"/>
	<line style="fill:none;stroke:#000000;stroke-miterlimit:1;" x1="158.936" y1="10.203" x2="162.885" y2="11.19"/>
	<line style="fill:none;stroke:#000000;stroke-miterlimit:1;" x1="162.885" y1="11.19" x2="160.58" y2="11.849"/>
	<line style="fill:none;stroke:#000000;stroke-miterlimit:1;" x1="160.58" y1="11.849" x2="157.289" y2="14.153"/>
	<line style="fill:none;stroke:#000000;stroke-miterlimit:1;" x1="157.289" y1="14.153" x2="156.303" y2="17.115"/>
	<line style="fill:none;stroke:#000000;stroke-miterlimit:1;" x1="156.303" y1="17.115" x2="156.961" y2="22.381"/>
	<line style="fill:none;stroke:#000000;stroke-miterlimit:1;" x1="156.961" y1="22.381" x2="159.264" y2="26.66"/>
	<line style="fill:none;stroke:#000000;stroke-miterlimit:1;" x1="159.264" y1="26.66" x2="162.227" y2="27.648"/>
	<line style="fill:none;stroke:#000000;stroke-miterlimit:1;" x1="162.227" y1="27.648" x2="166.176" y2="27.648"/>
	<line style="fill:none;stroke:#000000;stroke-miterlimit:1;" x1="166.176" y1="27.648" x2="167.822" y2="26.66"/>
	<line style="fill:none;stroke:#000000;stroke-miterlimit:1;" x1="167.822" y1="26.66" x2="170.455" y2="23.369"/>
	<line style="fill:none;stroke:#000000;stroke-miterlimit:1;" x1="145.688" y1="97.755" x2="145.688" y2="65.828"/>
	<line style="fill:none;stroke:#000000;stroke-miterlimit:1;" x1="145.688" y1="65.828" x2="145.357" y2="63.854"/>
	<line style="fill:none;stroke:#000000;stroke-miterlimit:1;" x1="145.357" y1="63.854" x2="144.699" y2="62.537"/>
	<line style="fill:none;stroke:#000000;stroke-miterlimit:1;" x1="144.699" y1="62.537" x2="143.713" y2="62.208"/>
	<line style="fill:none;stroke:#000000;stroke-miterlimit:1;" x1="143.713" y1="62.208" x2="142.725" y2="61.879"/>
	<line style="fill:none;stroke:#000000;stroke-miterlimit:1;" x1="142.725" y1="61.879" x2="142.066" y2="62.537"/>
	<line style="fill:none;stroke:#000000;stroke-miterlimit:1;" x1="142.066" y1="62.537" x2="141.738" y2="64.183"/>
	<line style="fill:none;stroke:#000000;stroke-miterlimit:1;" x1="141.738" y1="64.183" x2="141.408" y2="65.499"/>
	<line style="fill:none;stroke:#000000;stroke-miterlimit:1;" x1="141.408" y1="65.499" x2="140.75" y2="66.487"/>
	<line style="fill:none;stroke:#000000;stroke-miterlimit:1;" x1="140.75" y1="66.487" x2="140.092" y2="67.474"/>
	<line style="fill:none;stroke:#000000;stroke-miterlimit:1;" x1="140.092" y1="67.474" x2="139.762" y2="69.449"/>
	<line style="fill:none;stroke:#000000;stroke-miterlimit:1;" x1="139.762" y1="69.449" x2="139.434" y2="71.424"/>
	<line style="fill:none;stroke:#000000;stroke-miterlimit:1;" x1="139.434" y1="71.424" x2="139.104" y2="72.74"/>
	<line style="fill:none;stroke:#000000;stroke-miterlimit:1;" x1="139.104" y1="72.74" x2="138.775" y2="73.069"/>
	<line style="fill:none;stroke:#000000;stroke-miterlimit:1;" x1="138.775" y1="73.069" x2="138.117" y2="73.069"/>
	<line style="fill:none;stroke:#000000;stroke-miterlimit:1;" x1="138.117" y1="73.069" x2="137.787" y2="72.74"/>
	<line style="fill:none;stroke:#000000;stroke-miterlimit:1;" x1="137.787" y1="72.74" x2="138.117" y2="70.107"/>
	<line style="fill:none;stroke:#000000;stroke-miterlimit:1;" x1="138.117" y1="70.107" x2="137.787" y2="67.474"/>
	<line style="fill:none;stroke:#000000;stroke-miterlimit:1;" x1="137.787" y1="67.474" x2="137.459" y2="65.17"/>
	<line style="fill:none;stroke:#000000;stroke-miterlimit:1;" x1="137.459" y1="65.17" x2="138.117" y2="62.208"/>
	<line style="fill:none;stroke:#000000;stroke-miterlimit:1;" x1="138.117" y1="62.208" x2="139.434" y2="59.904"/>
	<line style="fill:none;stroke:#000000;stroke-miterlimit:1;" x1="139.434" y1="59.904" x2="140.42" y2="58.258"/>
	<line style="fill:none;stroke:#000000;stroke-miterlimit:1;" x1="140.42" y1="58.258" x2="141.738" y2="55.954"/>
	<line style="fill:none;stroke:#000000;stroke-miterlimit:1;" x1="141.738" y1="55.954" x2="142.066" y2="53.979"/>
	<line style="fill:none;stroke:#000000;stroke-miterlimit:1;" x1="142.066" y1="53.979" x2="142.066" y2="52.004"/>
	<line style="fill:none;stroke:#000000;stroke-miterlimit:1;" x1="142.066" y1="52.004" x2="142.066" y2="50.688"/>
	<line style="fill:none;stroke:#000000;stroke-miterlimit:1;" x1="142.066" y1="50.688" x2="142.066" y2="48.713"/>
	<line style="fill:none;stroke:#000000;stroke-miterlimit:1;" x1="142.066" y1="48.713" x2="143.713" y2="49.371"/>
	<line style="fill:none;stroke:#000000;stroke-miterlimit:1;" x1="143.713" y1="49.371" x2="145.029" y2="51.017"/>
	<line style="fill:none;stroke:#000000;stroke-miterlimit:1;" x1="145.029" y1="51.017" x2="145.357" y2="52.333"/>
	<line style="fill:none;stroke:#000000;stroke-miterlimit:1;" x1="145.357" y1="52.333" x2="145.357" y2="53.321"/>
	<line style="fill:none;stroke:#000000;stroke-miterlimit:1;" x1="145.357" y1="53.321" x2="145.029" y2="55.625"/>
	<line style="fill:none;stroke:#000000;stroke-miterlimit:1;" x1="145.029" y1="55.625" x2="144.699" y2="57.271"/>
	<line style="fill:none;stroke:#000000;stroke-miterlimit:1;" x1="144.699" y1="57.271" x2="144.041" y2="58.917"/>
	<line style="fill:none;stroke:#000000;stroke-miterlimit:1;" x1="144.041" y1="58.917" x2="143.055" y2="59.575"/>
	<line style="fill:none;stroke:#000000;stroke-miterlimit:1;" x1="143.055" y1="59.575" x2="142.396" y2="60.891"/>
	<line style="fill:none;stroke:#000000;stroke-miterlimit:1;" x1="142.396" y1="60.891" x2="142.725" y2="60.891"/>
	<line style="fill:none;stroke:#000000;stroke-miterlimit:1;" x1="142.725" y1="60.891" x2="144.041" y2="60.891"/>
	<line style="fill:none;stroke:#000000;stroke-miterlimit:1;" x1="144.041" y1="60.891" x2="145.029" y2="61.549"/>
	<line style="fill:none;stroke:#000000;stroke-miterlimit:1;" x1="145.029" y1="61.549" x2="146.016" y2="63.195"/>
	<line style="fill:none;stroke:#000000;stroke-miterlimit:1;" x1="146.016" y1="63.195" x2="147.004" y2="65.499"/>
	<line style="fill:none;stroke:#000000;stroke-miterlimit:1;" x1="147.004" y1="65.499" x2="147.004" y2="67.474"/>
	<line style="fill:none;stroke:#000000;stroke-miterlimit:1;" x1="147.004" y1="67.474" x2="146.674" y2="97.755"/>
</g>
</svg>
