<?xml version="1.0" encoding="iso-8859-1"?>
<!-- Generator: Adobe Illustrator 16.0.1, SVG Export Plug-In . SVG Version: 6.00 Build 0)  -->
<!DOCTYPE svg PUBLIC "-//W3C//DTD SVG 1.1//EN" "http://www.w3.org/Graphics/SVG/1.1/DTD/svg11.dtd">
<svg version="1.1" id="Ebene_1" xmlns="http://www.w3.org/2000/svg" xmlns:xlink="http://www.w3.org/1999/xlink" x="0px" y="0px"
	 width="208.977px" height="148.484px" viewBox="0 0 208.977 148.484" style="enable-background:new 0 0 208.977 148.484;"
	 xml:space="preserve">
<g>
	<line style="fill:none;stroke:#000000;stroke-miterlimit:1;" x1="103.323" y1="46.43" x2="105.502" y2="42.695"/>
	<line style="fill:none;stroke:#000000;stroke-miterlimit:1;" x1="105.502" y1="42.695" x2="108.303" y2="39.895"/>
	<line style="fill:none;stroke:#000000;stroke-miterlimit:1;" x1="108.303" y1="39.895" x2="112.348" y2="38.96"/>
	<line style="fill:none;stroke:#000000;stroke-miterlimit:1;" x1="112.348" y1="38.96" x2="115.771" y2="39.583"/>
	<line style="fill:none;stroke:#000000;stroke-miterlimit:1;" x1="115.771" y1="39.583" x2="118.262" y2="41.762"/>
	<line style="fill:none;stroke:#000000;stroke-miterlimit:1;" x1="118.262" y1="41.762" x2="119.506" y2="43.629"/>
	<line style="fill:none;stroke:#000000;stroke-miterlimit:1;" x1="119.506" y1="43.629" x2="120.439" y2="47.986"/>
	<line style="fill:none;stroke:#000000;stroke-miterlimit:1;" x1="120.439" y1="47.986" x2="120.439" y2="98.402"/>
	<line style="fill:none;stroke:#000000;stroke-miterlimit:1;" x1="120.439" y1="98.402" x2="0" y2="98.402"/>
	<line style="fill:none;stroke:#000000;stroke-miterlimit:1;" x1="0" y1="98.402" x2="0" y2="47.986"/>
	<line style="fill:none;stroke:#000000;stroke-miterlimit:1;" x1="0" y1="47.986" x2="1.245" y2="43.629"/>
	<line style="fill:none;stroke:#000000;stroke-miterlimit:1;" x1="1.245" y1="43.629" x2="2.179" y2="41.762"/>
	<line style="fill:none;stroke:#000000;stroke-miterlimit:1;" x1="2.179" y1="41.762" x2="4.668" y2="39.583"/>
	<line style="fill:none;stroke:#000000;stroke-miterlimit:1;" x1="4.668" y1="39.583" x2="8.092" y2="38.96"/>
	<line style="fill:none;stroke:#000000;stroke-miterlimit:1;" x1="8.092" y1="38.96" x2="12.449" y2="39.895"/>
	<line style="fill:none;stroke:#000000;stroke-miterlimit:1;" x1="12.449" y1="39.895" x2="15.25" y2="42.695"/>
	<line style="fill:none;stroke:#000000;stroke-miterlimit:1;" x1="15.25" y1="42.695" x2="17.117" y2="46.119"/>
	<line style="fill:none;stroke:#000000;stroke-miterlimit:1;" x1="63.488" y1="0.37" x2="60.687" y2="0.37"/>
	<line style="fill:none;stroke:#000000;stroke-miterlimit:1;" x1="60.687" y1="0.37" x2="58.508" y2="0.37"/>
	<line style="fill:none;stroke:#000000;stroke-miterlimit:1;" x1="58.508" y1="0.37" x2="56.641" y2="0.682"/>
	<line style="fill:none;stroke:#000000;stroke-miterlimit:1;" x1="56.641" y1="0.682" x2="53.218" y2="1.304"/>
	<line style="fill:none;stroke:#000000;stroke-miterlimit:1;" x1="53.218" y1="1.304" x2="51.039" y2="1.615"/>
	<line style="fill:none;stroke:#000000;stroke-miterlimit:1;" x1="51.039" y1="1.615" x2="49.172" y2="2.237"/>
	<line style="fill:none;stroke:#000000;stroke-miterlimit:1;" x1="49.172" y1="2.237" x2="47.305" y2="2.86"/>
	<line style="fill:none;stroke:#000000;stroke-miterlimit:1;" x1="47.305" y1="2.86" x2="44.815" y2="3.482"/>
	<line style="fill:none;stroke:#000000;stroke-miterlimit:1;" x1="44.815" y1="3.482" x2="42.636" y2="4.416"/>
	<line style="fill:none;stroke:#000000;stroke-miterlimit:1;" x1="42.636" y1="4.416" x2="40.458" y2="5.35"/>
	<line style="fill:none;stroke:#000000;stroke-miterlimit:1;" x1="40.458" y1="5.35" x2="38.59" y2="6.283"/>
	<line style="fill:none;stroke:#000000;stroke-miterlimit:1;" x1="38.59" y1="6.283" x2="36.723" y2="7.528"/>
	<line style="fill:none;stroke:#000000;stroke-miterlimit:1;" x1="36.723" y1="7.528" x2="34.856" y2="8.773"/>
	<line style="fill:none;stroke:#000000;stroke-miterlimit:1;" x1="34.856" y1="8.773" x2="32.989" y2="10.018"/>
	<line style="fill:none;stroke:#000000;stroke-miterlimit:1;" x1="32.989" y1="10.018" x2="31.433" y2="11.574"/>
	<line style="fill:none;stroke:#000000;stroke-miterlimit:1;" x1="31.433" y1="11.574" x2="28.009" y2="14.686"/>
	<line style="fill:none;stroke:#000000;stroke-miterlimit:1;" x1="28.009" y1="14.686" x2="26.765" y2="16.242"/>
	<line style="fill:none;stroke:#000000;stroke-miterlimit:1;" x1="26.765" y1="16.242" x2="25.52" y2="17.487"/>
	<line style="fill:none;stroke:#000000;stroke-miterlimit:1;" x1="25.52" y1="17.487" x2="23.341" y2="20.599"/>
	<line style="fill:none;stroke:#000000;stroke-miterlimit:1;" x1="23.341" y1="20.599" x2="21.474" y2="23.711"/>
	<line style="fill:none;stroke:#000000;stroke-miterlimit:1;" x1="21.474" y1="23.711" x2="20.54" y2="25.579"/>
	<line style="fill:none;stroke:#000000;stroke-miterlimit:1;" x1="20.54" y1="25.579" x2="19.918" y2="27.757"/>
	<line style="fill:none;stroke:#000000;stroke-miterlimit:1;" x1="19.918" y1="27.757" x2="18.673" y2="32.114"/>
	<line style="fill:none;stroke:#000000;stroke-miterlimit:1;" x1="18.673" y1="32.114" x2="17.739" y2="33.981"/>
	<line style="fill:none;stroke:#000000;stroke-miterlimit:1;" x1="17.739" y1="33.981" x2="17.428" y2="36.782"/>
	<line style="fill:none;stroke:#000000;stroke-miterlimit:1;" x1="17.428" y1="36.782" x2="17.117" y2="38.649"/>
	<line style="fill:none;stroke:#000000;stroke-miterlimit:1;" x1="17.117" y1="38.649" x2="17.117" y2="42.073"/>
	<line style="fill:none;stroke:#000000;stroke-miterlimit:1;" x1="17.117" y1="42.073" x2="17.117" y2="44.251"/>
	<line style="fill:none;stroke:#000000;stroke-miterlimit:1;" x1="17.117" y1="44.251" x2="17.117" y2="47.363"/>
	<line style="fill:none;stroke:#000000;stroke-miterlimit:1;" x1="17.117" y1="47.363" x2="17.428" y2="49.542"/>
	<line style="fill:none;stroke:#000000;stroke-miterlimit:1;" x1="17.428" y1="49.542" x2="18.673" y2="53.899"/>
	<line style="fill:none;stroke:#000000;stroke-miterlimit:1;" x1="18.673" y1="53.899" x2="19.295" y2="56.7"/>
	<line style="fill:none;stroke:#000000;stroke-miterlimit:1;" x1="19.295" y1="56.7" x2="19.918" y2="58.256"/>
	<line style="fill:none;stroke:#000000;stroke-miterlimit:1;" x1="19.918" y1="58.256" x2="21.163" y2="61.057"/>
	<line style="fill:none;stroke:#000000;stroke-miterlimit:1;" x1="21.163" y1="61.057" x2="21.785" y2="62.924"/>
	<line style="fill:none;stroke:#000000;stroke-miterlimit:1;" x1="21.785" y1="62.924" x2="23.652" y2="64.792"/>
	<line style="fill:none;stroke:#000000;stroke-miterlimit:1;" x1="23.652" y1="64.792" x2="24.275" y2="66.348"/>
	<line style="fill:none;stroke:#000000;stroke-miterlimit:1;" x1="24.275" y1="66.348" x2="25.831" y2="68.215"/>
	<line style="fill:none;stroke:#000000;stroke-miterlimit:1;" x1="25.831" y1="68.215" x2="27.076" y2="69.771"/>
	<line style="fill:none;stroke:#000000;stroke-miterlimit:1;" x1="27.076" y1="69.771" x2="28.632" y2="71.949"/>
	<line style="fill:none;stroke:#000000;stroke-miterlimit:1;" x1="28.632" y1="71.949" x2="31.744" y2="74.75"/>
	<line style="fill:none;stroke:#000000;stroke-miterlimit:1;" x1="31.744" y1="74.75" x2="33.922" y2="76.307"/>
	<line style="fill:none;stroke:#000000;stroke-miterlimit:1;" x1="33.922" y1="76.307" x2="36.101" y2="77.862"/>
	<line style="fill:none;stroke:#000000;stroke-miterlimit:1;" x1="36.101" y1="77.862" x2="37.346" y2="78.796"/>
	<line style="fill:none;stroke:#000000;stroke-miterlimit:1;" x1="37.346" y1="78.796" x2="39.213" y2="80.041"/>
	<line style="fill:none;stroke:#000000;stroke-miterlimit:1;" x1="39.213" y1="80.041" x2="41.08" y2="80.975"/>
	<line style="fill:none;stroke:#000000;stroke-miterlimit:1;" x1="41.08" y1="80.975" x2="43.881" y2="81.908"/>
	<line style="fill:none;stroke:#000000;stroke-miterlimit:1;" x1="43.881" y1="81.908" x2="45.749" y2="82.842"/>
	<line style="fill:none;stroke:#000000;stroke-miterlimit:1;" x1="45.749" y1="82.842" x2="48.238" y2="83.464"/>
	<line style="fill:none;stroke:#000000;stroke-miterlimit:1;" x1="48.238" y1="83.464" x2="49.794" y2="83.775"/>
	<line style="fill:none;stroke:#000000;stroke-miterlimit:1;" x1="49.794" y1="83.775" x2="51.973" y2="84.397"/>
	<line style="fill:none;stroke:#000000;stroke-miterlimit:1;" x1="51.973" y1="84.397" x2="54.151" y2="84.709"/>
	<line style="fill:none;stroke:#000000;stroke-miterlimit:1;" x1="54.151" y1="84.709" x2="56.641" y2="85.021"/>
	<line style="fill:none;stroke:#000000;stroke-miterlimit:1;" x1="56.641" y1="85.021" x2="58.508" y2="85.021"/>
	<line style="fill:none;stroke:#000000;stroke-miterlimit:1;" x1="58.508" y1="85.021" x2="61.309" y2="85.021"/>
	<line style="fill:none;stroke:#000000;stroke-miterlimit:1;" x1="61.309" y1="85.021" x2="63.488" y2="84.709"/>
	<line style="fill:none;stroke:#000000;stroke-miterlimit:1;" x1="63.488" y1="84.709" x2="64.11" y2="85.021"/>
	<line style="fill:none;stroke:#000000;stroke-miterlimit:1;" x1="64.11" y1="85.021" x2="66.6" y2="84.709"/>
	<line style="fill:none;stroke:#000000;stroke-miterlimit:1;" x1="66.6" y1="84.709" x2="68.467" y2="84.397"/>
	<line style="fill:none;stroke:#000000;stroke-miterlimit:1;" x1="68.467" y1="84.397" x2="70.957" y2="83.775"/>
	<line style="fill:none;stroke:#000000;stroke-miterlimit:1;" x1="70.957" y1="83.775" x2="72.202" y2="83.464"/>
	<line style="fill:none;stroke:#000000;stroke-miterlimit:1;" x1="72.202" y1="83.464" x2="74.691" y2="82.842"/>
	<line style="fill:none;stroke:#000000;stroke-miterlimit:1;" x1="74.691" y1="82.842" x2="76.559" y2="81.908"/>
	<line style="fill:none;stroke:#000000;stroke-miterlimit:1;" x1="76.559" y1="81.908" x2="79.359" y2="80.975"/>
	<line style="fill:none;stroke:#000000;stroke-miterlimit:1;" x1="79.359" y1="80.975" x2="81.227" y2="80.041"/>
	<line style="fill:none;stroke:#000000;stroke-miterlimit:1;" x1="81.227" y1="80.041" x2="83.094" y2="78.796"/>
	<line style="fill:none;stroke:#000000;stroke-miterlimit:1;" x1="83.094" y1="78.796" x2="84.339" y2="77.862"/>
	<line style="fill:none;stroke:#000000;stroke-miterlimit:1;" x1="84.339" y1="77.862" x2="86.829" y2="76.307"/>
	<line style="fill:none;stroke:#000000;stroke-miterlimit:1;" x1="86.829" y1="76.307" x2="88.696" y2="74.75"/>
	<line style="fill:none;stroke:#000000;stroke-miterlimit:1;" x1="88.696" y1="74.75" x2="91.808" y2="71.949"/>
	<line style="fill:none;stroke:#000000;stroke-miterlimit:1;" x1="91.808" y1="71.949" x2="93.364" y2="69.771"/>
	<line style="fill:none;stroke:#000000;stroke-miterlimit:1;" x1="93.364" y1="69.771" x2="94.609" y2="68.215"/>
	<line style="fill:none;stroke:#000000;stroke-miterlimit:1;" x1="94.609" y1="68.215" x2="96.165" y2="66.348"/>
	<line style="fill:none;stroke:#000000;stroke-miterlimit:1;" x1="96.165" y1="66.348" x2="97.099" y2="64.792"/>
	<line style="fill:none;stroke:#000000;stroke-miterlimit:1;" x1="97.099" y1="64.792" x2="98.655" y2="62.924"/>
	<line style="fill:none;stroke:#000000;stroke-miterlimit:1;" x1="98.655" y1="62.924" x2="99.588" y2="61.057"/>
	<line style="fill:none;stroke:#000000;stroke-miterlimit:1;" x1="99.588" y1="61.057" x2="100.522" y2="58.256"/>
	<line style="fill:none;stroke:#000000;stroke-miterlimit:1;" x1="100.522" y1="58.256" x2="101.456" y2="56.7"/>
	<line style="fill:none;stroke:#000000;stroke-miterlimit:1;" x1="101.456" y1="56.7" x2="102.078" y2="53.899"/>
	<line style="fill:none;stroke:#000000;stroke-miterlimit:1;" x1="102.078" y1="53.899" x2="103.012" y2="49.542"/>
	<line style="fill:none;stroke:#000000;stroke-miterlimit:1;" x1="103.012" y1="49.542" x2="103.323" y2="47.363"/>
	<line style="fill:none;stroke:#000000;stroke-miterlimit:1;" x1="103.323" y1="47.363" x2="103.323" y2="44.251"/>
	<line style="fill:none;stroke:#000000;stroke-miterlimit:1;" x1="103.323" y1="44.251" x2="103.323" y2="42.073"/>
	<line style="fill:none;stroke:#000000;stroke-miterlimit:1;" x1="103.323" y1="42.073" x2="103.323" y2="38.649"/>
	<line style="fill:none;stroke:#000000;stroke-miterlimit:1;" x1="103.323" y1="38.649" x2="103.012" y2="36.782"/>
	<line style="fill:none;stroke:#000000;stroke-miterlimit:1;" x1="103.012" y1="36.782" x2="102.701" y2="33.981"/>
	<line style="fill:none;stroke:#000000;stroke-miterlimit:1;" x1="102.701" y1="33.981" x2="102.078" y2="32.114"/>
	<line style="fill:none;stroke:#000000;stroke-miterlimit:1;" x1="102.078" y1="32.114" x2="101.456" y2="29.002"/>
	<line style="fill:none;stroke:#000000;stroke-miterlimit:1;" x1="101.456" y1="29.002" x2="99.899" y2="25.579"/>
	<line style="fill:none;stroke:#000000;stroke-miterlimit:1;" x1="99.899" y1="25.579" x2="98.966" y2="23.711"/>
	<line style="fill:none;stroke:#000000;stroke-miterlimit:1;" x1="98.966" y1="23.711" x2="97.721" y2="21.533"/>
	<line style="fill:none;stroke:#000000;stroke-miterlimit:1;" x1="97.721" y1="21.533" x2="94.92" y2="17.487"/>
	<line style="fill:none;stroke:#000000;stroke-miterlimit:1;" x1="94.92" y1="17.487" x2="93.986" y2="16.242"/>
	<line style="fill:none;stroke:#000000;stroke-miterlimit:1;" x1="93.986" y1="16.242" x2="92.742" y2="14.686"/>
	<line style="fill:none;stroke:#000000;stroke-miterlimit:1;" x1="92.742" y1="14.686" x2="89.007" y2="11.574"/>
	<line style="fill:none;stroke:#000000;stroke-miterlimit:1;" x1="89.007" y1="11.574" x2="87.451" y2="10.018"/>
	<line style="fill:none;stroke:#000000;stroke-miterlimit:1;" x1="87.451" y1="10.018" x2="85.895" y2="8.773"/>
	<line style="fill:none;stroke:#000000;stroke-miterlimit:1;" x1="85.895" y1="8.773" x2="84.028" y2="7.528"/>
	<line style="fill:none;stroke:#000000;stroke-miterlimit:1;" x1="84.028" y1="7.528" x2="81.849" y2="6.283"/>
	<line style="fill:none;stroke:#000000;stroke-miterlimit:1;" x1="81.849" y1="6.283" x2="80.293" y2="5.35"/>
	<line style="fill:none;stroke:#000000;stroke-miterlimit:1;" x1="80.293" y1="5.35" x2="77.803" y2="4.416"/>
	<line style="fill:none;stroke:#000000;stroke-miterlimit:1;" x1="77.803" y1="4.416" x2="75.936" y2="3.482"/>
	<line style="fill:none;stroke:#000000;stroke-miterlimit:1;" x1="75.936" y1="3.482" x2="73.135" y2="2.86"/>
	<line style="fill:none;stroke:#000000;stroke-miterlimit:1;" x1="73.135" y1="2.86" x2="71.579" y2="2.237"/>
	<line style="fill:none;stroke:#000000;stroke-miterlimit:1;" x1="71.579" y1="2.237" x2="69.401" y2="1.615"/>
	<line style="fill:none;stroke:#000000;stroke-miterlimit:1;" x1="69.401" y1="1.615" x2="67.533" y2="1.304"/>
	<line style="fill:none;stroke:#000000;stroke-miterlimit:1;" x1="67.533" y1="1.304" x2="65.666" y2="0.682"/>
	<line style="fill:none;stroke:#000000;stroke-miterlimit:1;" x1="65.666" y1="0.682" x2="61.932" y2="0.37"/>
	<line style="fill:none;stroke:#000000;stroke-miterlimit:1;" x1="61.932" y1="0.37" x2="59.753" y2="0.37"/>
	<line style="fill:none;stroke:#000000;stroke-miterlimit:1;" x1="53.128" y1="148.429" x2="0" y2="148.429"/>
	<line style="fill:none;stroke:#000000;stroke-miterlimit:1;" x1="0" y1="148.429" x2="0.675" y2="143.926"/>
	<line style="fill:none;stroke:#000000;stroke-miterlimit:1;" x1="0.675" y1="143.926" x2="1.351" y2="140.999"/>
	<line style="fill:none;stroke:#000000;stroke-miterlimit:1;" x1="1.351" y1="140.999" x2="2.477" y2="138.072"/>
	<line style="fill:none;stroke:#000000;stroke-miterlimit:1;" x1="2.477" y1="138.072" x2="4.052" y2="135.821"/>
	<line style="fill:none;stroke:#000000;stroke-miterlimit:1;" x1="4.052" y1="135.821" x2="5.403" y2="133.796"/>
	<line style="fill:none;stroke:#000000;stroke-miterlimit:1;" x1="5.403" y1="133.796" x2="7.204" y2="131.319"/>
	<line style="fill:none;stroke:#000000;stroke-miterlimit:1;" x1="7.204" y1="131.319" x2="9.23" y2="129.519"/>
	<line style="fill:none;stroke:#000000;stroke-miterlimit:1;" x1="9.23" y1="129.519" x2="11.707" y2="127.717"/>
	<line style="fill:none;stroke:#000000;stroke-miterlimit:1;" x1="11.707" y1="127.717" x2="13.732" y2="126.366"/>
	<line style="fill:none;stroke:#000000;stroke-miterlimit:1;" x1="13.732" y1="126.366" x2="16.659" y2="125.016"/>
	<line style="fill:none;stroke:#000000;stroke-miterlimit:1;" x1="16.659" y1="125.016" x2="19.585" y2="124.115"/>
	<line style="fill:none;stroke:#000000;stroke-miterlimit:1;" x1="19.585" y1="124.115" x2="21.612" y2="123.665"/>
	<line style="fill:none;stroke:#000000;stroke-miterlimit:1;" x1="21.612" y1="123.665" x2="25.213" y2="123.215"/>
	<line style="fill:none;stroke:#000000;stroke-miterlimit:1;" x1="25.213" y1="123.215" x2="27.915" y2="123.215"/>
	<line style="fill:none;stroke:#000000;stroke-miterlimit:1;" x1="27.915" y1="123.215" x2="30.392" y2="123.665"/>
	<line style="fill:none;stroke:#000000;stroke-miterlimit:1;" x1="30.392" y1="123.665" x2="33.093" y2="124.115"/>
	<line style="fill:none;stroke:#000000;stroke-miterlimit:1;" x1="33.093" y1="124.115" x2="36.02" y2="124.791"/>
	<line style="fill:none;stroke:#000000;stroke-miterlimit:1;" x1="36.02" y1="124.791" x2="38.045" y2="125.466"/>
	<line style="fill:none;stroke:#000000;stroke-miterlimit:1;" x1="38.045" y1="125.466" x2="40.747" y2="127.267"/>
	<line style="fill:none;stroke:#000000;stroke-miterlimit:1;" x1="40.747" y1="127.267" x2="42.998" y2="128.843"/>
	<line style="fill:none;stroke:#000000;stroke-miterlimit:1;" x1="42.998" y1="128.843" x2="45.024" y2="130.419"/>
	<line style="fill:none;stroke:#000000;stroke-miterlimit:1;" x1="45.024" y1="130.419" x2="46.825" y2="132.67"/>
	<line style="fill:none;stroke:#000000;stroke-miterlimit:1;" x1="46.825" y1="132.67" x2="48.626" y2="135.146"/>
	<line style="fill:none;stroke:#000000;stroke-miterlimit:1;" x1="48.626" y1="135.146" x2="50.202" y2="137.622"/>
	<line style="fill:none;stroke:#000000;stroke-miterlimit:1;" x1="50.202" y1="137.622" x2="51.328" y2="139.874"/>
	<line style="fill:none;stroke:#000000;stroke-miterlimit:1;" x1="51.328" y1="139.874" x2="52.228" y2="143.251"/>
	<line style="fill:none;stroke:#000000;stroke-miterlimit:1;" x1="52.228" y1="143.251" x2="52.903" y2="145.727"/>
	<line style="fill:none;stroke:#000000;stroke-miterlimit:1;" x1="52.903" y1="145.727" x2="53.128" y2="148.429"/>
	<line style="fill:none;stroke:#000000;stroke-miterlimit:1;" x1="120.439" y1="107.963" x2="102.43" y2="148.484"/>
	<line style="fill:none;stroke:#000000;stroke-miterlimit:1;" x1="102.43" y1="148.484" x2="93.425" y2="148.484"/>
	<line style="fill:none;stroke:#000000;stroke-miterlimit:1;" x1="93.425" y1="148.484" x2="111.436" y2="107.963"/>
	<line style="fill:none;stroke:#000000;stroke-miterlimit:1;" x1="111.436" y1="107.963" x2="120.439" y2="107.963"/>
	<line style="fill:none;stroke:#000000;stroke-miterlimit:1;" x1="93.2" y1="107.963" x2="75.19" y2="148.484"/>
	<line style="fill:none;stroke:#000000;stroke-miterlimit:1;" x1="75.19" y1="148.484" x2="66.186" y2="148.484"/>
	<line style="fill:none;stroke:#000000;stroke-miterlimit:1;" x1="66.186" y1="148.484" x2="84.195" y2="107.963"/>
	<line style="fill:none;stroke:#000000;stroke-miterlimit:1;" x1="84.195" y1="107.963" x2="93.2" y2="107.963"/>
	<line style="fill:none;stroke:#000000;stroke-miterlimit:1;" x1="208.195" y1="147.594" x2="133.715" y2="147.594"/>
	<line style="fill:none;stroke:#000000;stroke-miterlimit:1;" x1="133.715" y1="147.594" x2="151.684" y2="140.562"/>
	<line style="fill:none;stroke:#000000;stroke-miterlimit:1;" x1="151.684" y1="140.562" x2="141.006" y2="105.405"/>
	<line style="fill:none;stroke:#000000;stroke-miterlimit:1;" x1="141.006" y1="105.405" x2="140.746" y2="102.28"/>
	<line style="fill:none;stroke:#000000;stroke-miterlimit:1;" x1="140.746" y1="102.28" x2="140.484" y2="99.416"/>
	<line style="fill:none;stroke:#000000;stroke-miterlimit:1;" x1="140.484" y1="99.416" x2="140.746" y2="96.812"/>
	<line style="fill:none;stroke:#000000;stroke-miterlimit:1;" x1="140.746" y1="96.812" x2="141.527" y2="95.249"/>
	<line style="fill:none;stroke:#000000;stroke-miterlimit:1;" x1="141.527" y1="95.249" x2="142.568" y2="93.946"/>
	<line style="fill:none;stroke:#000000;stroke-miterlimit:1;" x1="142.568" y1="93.946" x2="144.131" y2="93.165"/>
	<line style="fill:none;stroke:#000000;stroke-miterlimit:1;" x1="144.131" y1="93.165" x2="145.434" y2="92.905"/>
	<line style="fill:none;stroke:#000000;stroke-miterlimit:1;" x1="145.434" y1="92.905" x2="146.996" y2="92.905"/>
	<line style="fill:none;stroke:#000000;stroke-miterlimit:1;" x1="146.996" y1="92.905" x2="148.037" y2="92.905"/>
	<line style="fill:none;stroke:#000000;stroke-miterlimit:1;" x1="148.037" y1="92.905" x2="148.818" y2="93.165"/>
	<line style="fill:none;stroke:#000000;stroke-miterlimit:1;" x1="148.818" y1="93.165" x2="150.121" y2="93.946"/>
	<line style="fill:none;stroke:#000000;stroke-miterlimit:1;" x1="150.121" y1="93.946" x2="152.205" y2="95.509"/>
	<line style="fill:none;stroke:#000000;stroke-miterlimit:1;" x1="152.205" y1="95.509" x2="172.777" y2="121.03"/>
	<line style="fill:none;stroke:#000000;stroke-miterlimit:1;" x1="172.777" y1="121.03" x2="174.861" y2="80.665"/>
	<line style="fill:none;stroke:#000000;stroke-miterlimit:1;" x1="174.861" y1="80.665" x2="175.643" y2="74.676"/>
	<line style="fill:none;stroke:#000000;stroke-miterlimit:1;" x1="175.643" y1="74.676" x2="176.684" y2="70.509"/>
	<line style="fill:none;stroke:#000000;stroke-miterlimit:1;" x1="176.684" y1="70.509" x2="177.465" y2="67.905"/>
	<line style="fill:none;stroke:#000000;stroke-miterlimit:1;" x1="177.465" y1="67.905" x2="180.068" y2="65.561"/>
	<line style="fill:none;stroke:#000000;stroke-miterlimit:1;" x1="180.068" y1="65.561" x2="182.414" y2="63.999"/>
	<line style="fill:none;stroke:#000000;stroke-miterlimit:1;" x1="182.414" y1="63.999" x2="183.715" y2="63.217"/>
	<line style="fill:none;stroke:#000000;stroke-miterlimit:1;" x1="183.715" y1="63.217" x2="185.799" y2="62.696"/>
	<line style="fill:none;stroke:#000000;stroke-miterlimit:1;" x1="185.799" y1="62.696" x2="187.621" y2="62.696"/>
	<line style="fill:none;stroke:#000000;stroke-miterlimit:1;" x1="187.621" y1="62.696" x2="189.445" y2="62.957"/>
	<line style="fill:none;stroke:#000000;stroke-miterlimit:1;" x1="189.445" y1="62.957" x2="192.83" y2="64.78"/>
	<line style="fill:none;stroke:#000000;stroke-miterlimit:1;" x1="192.83" y1="64.78" x2="194.652" y2="66.863"/>
	<line style="fill:none;stroke:#000000;stroke-miterlimit:1;" x1="194.652" y1="66.863" x2="195.955" y2="69.207"/>
	<line style="fill:none;stroke:#000000;stroke-miterlimit:1;" x1="195.955" y1="69.207" x2="197.518" y2="72.332"/>
	<line style="fill:none;stroke:#000000;stroke-miterlimit:1;" x1="197.518" y1="72.332" x2="198.299" y2="76.238"/>
	<line style="fill:none;stroke:#000000;stroke-miterlimit:1;" x1="198.299" y1="76.238" x2="198.82" y2="80.145"/>
	<line style="fill:none;stroke:#000000;stroke-miterlimit:1;" x1="198.82" y1="80.145" x2="199.08" y2="82.749"/>
	<line style="fill:none;stroke:#000000;stroke-miterlimit:1;" x1="199.08" y1="82.749" x2="199.08" y2="136.655"/>
	<line style="fill:none;stroke:#000000;stroke-miterlimit:1;" x1="199.08" y1="136.655" x2="198.559" y2="138.739"/>
	<line style="fill:none;stroke:#000000;stroke-miterlimit:1;" x1="198.559" y1="138.739" x2="197.258" y2="140.822"/>
	<line style="fill:none;stroke:#000000;stroke-miterlimit:1;" x1="197.258" y1="140.822" x2="208.977" y2="148.114"/>
	<line style="fill:none;stroke:#000000;stroke-miterlimit:1;" x1="174.34" y1="86.915" x2="167.568" y2="86.915"/>
	<line style="fill:none;stroke:#000000;stroke-miterlimit:1;" x1="167.568" y1="86.915" x2="168.09" y2="75.978"/>
	<line style="fill:none;stroke:#000000;stroke-miterlimit:1;" x1="168.09" y1="75.978" x2="168.871" y2="70.509"/>
	<line style="fill:none;stroke:#000000;stroke-miterlimit:1;" x1="168.871" y1="70.509" x2="170.434" y2="66.342"/>
	<line style="fill:none;stroke:#000000;stroke-miterlimit:1;" x1="170.434" y1="66.342" x2="172.256" y2="62.175"/>
	<line style="fill:none;stroke:#000000;stroke-miterlimit:1;" x1="199.602" y1="87.176" x2="206.111" y2="87.176"/>
	<line style="fill:none;stroke:#000000;stroke-miterlimit:1;" x1="206.111" y1="87.176" x2="206.633" y2="58.79"/>
	<line style="fill:none;stroke:#000000;stroke-miterlimit:1;" x1="206.633" y1="58.79" x2="205.59" y2="53.321"/>
	<line style="fill:none;stroke:#000000;stroke-miterlimit:1;" x1="205.59" y1="53.321" x2="203.508" y2="47.852"/>
	<line style="fill:none;stroke:#000000;stroke-miterlimit:1;" x1="203.508" y1="47.852" x2="199.602" y2="41.081"/>
	<line style="fill:none;stroke:#000000;stroke-miterlimit:1;" x1="199.602" y1="41.081" x2="195.174" y2="36.654"/>
	<line style="fill:none;stroke:#000000;stroke-miterlimit:1;" x1="195.174" y1="36.654" x2="189.965" y2="33.529"/>
	<line style="fill:none;stroke:#000000;stroke-miterlimit:1;" x1="189.965" y1="33.529" x2="184.496" y2="31.967"/>
	<line style="fill:none;stroke:#000000;stroke-miterlimit:1;" x1="184.496" y1="31.967" x2="178.506" y2="31.186"/>
	<line style="fill:none;stroke:#000000;stroke-miterlimit:1;" x1="171.996" y1="35.612" x2="173.559" y2="36.654"/>
	<line style="fill:none;stroke:#000000;stroke-miterlimit:1;" x1="173.559" y1="36.654" x2="174.861" y2="35.612"/>
	<line style="fill:none;stroke:#000000;stroke-miterlimit:1;" x1="174.861" y1="35.612" x2="173.299" y2="34.311"/>
	<line style="fill:none;stroke:#000000;stroke-miterlimit:1;" x1="173.299" y1="34.311" x2="172.256" y2="35.612"/>
	<line style="fill:none;stroke:#000000;stroke-miterlimit:1;" x1="171.996" y1="62.175" x2="170.955" y2="60.613"/>
	<line style="fill:none;stroke:#000000;stroke-miterlimit:1;" x1="170.955" y1="60.613" x2="170.434" y2="57.228"/>
	<line style="fill:none;stroke:#000000;stroke-miterlimit:1;" x1="170.434" y1="57.228" x2="173.299" y2="50.717"/>
	<line style="fill:none;stroke:#000000;stroke-miterlimit:1;" x1="173.299" y1="50.717" x2="179.027" y2="43.686"/>
	<line style="fill:none;stroke:#000000;stroke-miterlimit:1;" x1="179.027" y1="43.686" x2="180.068" y2="42.644"/>
	<line style="fill:none;stroke:#000000;stroke-miterlimit:1;" x1="180.068" y1="42.644" x2="181.111" y2="40.561"/>
	<line style="fill:none;stroke:#000000;stroke-miterlimit:1;" x1="181.111" y1="40.561" x2="181.631" y2="37.956"/>
	<line style="fill:none;stroke:#000000;stroke-miterlimit:1;" x1="181.631" y1="37.956" x2="181.371" y2="35.612"/>
	<line style="fill:none;stroke:#000000;stroke-miterlimit:1;" x1="181.371" y1="35.612" x2="180.33" y2="33.529"/>
	<line style="fill:none;stroke:#000000;stroke-miterlimit:1;" x1="180.33" y1="33.529" x2="178.246" y2="31.186"/>
	<line style="fill:none;stroke:#000000;stroke-miterlimit:1;" x1="178.246" y1="31.186" x2="174.34" y2="30.925"/>
	<line style="fill:none;stroke:#000000;stroke-miterlimit:1;" x1="174.34" y1="30.925" x2="170.434" y2="31.446"/>
	<line style="fill:none;stroke:#000000;stroke-miterlimit:1;" x1="170.434" y1="31.446" x2="167.568" y2="32.227"/>
	<line style="fill:none;stroke:#000000;stroke-miterlimit:1;" x1="167.568" y1="32.227" x2="165.225" y2="34.05"/>
	<line style="fill:none;stroke:#000000;stroke-miterlimit:1;" x1="165.225" y1="34.05" x2="162.1" y2="34.311"/>
	<line style="fill:none;stroke:#000000;stroke-miterlimit:1;" x1="162.1" y1="34.311" x2="158.193" y2="35.092"/>
	<line style="fill:none;stroke:#000000;stroke-miterlimit:1;" x1="158.193" y1="35.092" x2="154.027" y2="36.915"/>
	<line style="fill:none;stroke:#000000;stroke-miterlimit:1;" x1="154.027" y1="36.915" x2="150.381" y2="38.737"/>
	<line style="fill:none;stroke:#000000;stroke-miterlimit:1;" x1="150.381" y1="38.737" x2="145.174" y2="42.904"/>
	<line style="fill:none;stroke:#000000;stroke-miterlimit:1;" x1="145.174" y1="42.904" x2="142.568" y2="45.769"/>
	<line style="fill:none;stroke:#000000;stroke-miterlimit:1;" x1="142.568" y1="45.769" x2="141.006" y2="47.592"/>
	<line style="fill:none;stroke:#000000;stroke-miterlimit:1;" x1="141.006" y1="47.592" x2="142.049" y2="48.373"/>
	<line style="fill:none;stroke:#000000;stroke-miterlimit:1;" x1="142.049" y1="48.373" x2="146.215" y2="44.727"/>
	<line style="fill:none;stroke:#000000;stroke-miterlimit:1;" x1="146.215" y1="44.727" x2="151.162" y2="41.081"/>
	<line style="fill:none;stroke:#000000;stroke-miterlimit:1;" x1="151.162" y1="41.081" x2="154.809" y2="39.258"/>
	<line style="fill:none;stroke:#000000;stroke-miterlimit:1;" x1="154.809" y1="39.258" x2="158.715" y2="38.477"/>
	<line style="fill:none;stroke:#000000;stroke-miterlimit:1;" x1="158.715" y1="38.477" x2="162.621" y2="38.477"/>
	<line style="fill:none;stroke:#000000;stroke-miterlimit:1;" x1="162.621" y1="38.477" x2="166.006" y2="38.998"/>
	<line style="fill:none;stroke:#000000;stroke-miterlimit:1;" x1="166.006" y1="38.998" x2="168.611" y2="39.779"/>
	<line style="fill:none;stroke:#000000;stroke-miterlimit:1;" x1="168.611" y1="39.779" x2="170.434" y2="42.123"/>
	<line style="fill:none;stroke:#000000;stroke-miterlimit:1;" x1="170.434" y1="42.123" x2="170.174" y2="44.988"/>
	<line style="fill:none;stroke:#000000;stroke-miterlimit:1;" x1="170.174" y1="44.988" x2="167.049" y2="51.238"/>
	<line style="fill:none;stroke:#000000;stroke-miterlimit:1;" x1="167.049" y1="51.238" x2="164.443" y2="56.446"/>
	<line style="fill:none;stroke:#000000;stroke-miterlimit:1;" x1="164.443" y1="56.446" x2="162.881" y2="62.436"/>
	<line style="fill:none;stroke:#000000;stroke-miterlimit:1;" x1="162.881" y1="62.436" x2="163.924" y2="66.082"/>
	<line style="fill:none;stroke:#000000;stroke-miterlimit:1;" x1="163.924" y1="66.082" x2="166.268" y2="68.165"/>
	<line style="fill:none;stroke:#000000;stroke-miterlimit:1;" x1="166.268" y1="68.165" x2="169.912" y2="68.686"/>
	<line style="fill:none;stroke:#000000;stroke-miterlimit:1;" x1="187.98" y1="33.334" x2="188.762" y2="29.948"/>
	<line style="fill:none;stroke:#000000;stroke-miterlimit:1;" x1="188.762" y1="29.948" x2="199.699" y2="0.781"/>
	<line style="fill:none;stroke:#000000;stroke-miterlimit:1;" x1="199.699" y1="0.781" x2="197.615" y2="0.521"/>
	<line style="fill:none;stroke:#000000;stroke-miterlimit:1;" x1="197.615" y1="0.521" x2="189.803" y2="19.792"/>
	<line style="fill:none;stroke:#000000;stroke-miterlimit:1;" x1="189.803" y1="19.792" x2="169.49" y2="19.792"/>
	<line style="fill:none;stroke:#000000;stroke-miterlimit:1;" x1="169.49" y1="19.792" x2="170.791" y2="26.042"/>
	<line style="fill:none;stroke:#000000;stroke-miterlimit:1;" x1="170.791" y1="26.042" x2="171.312" y2="30.469"/>
	<line style="fill:none;stroke:#000000;stroke-miterlimit:1;" x1="171.572" y1="19.271" x2="172.094" y2="17.969"/>
	<line style="fill:none;stroke:#000000;stroke-miterlimit:1;" x1="172.094" y1="17.969" x2="172.875" y2="16.406"/>
	<line style="fill:none;stroke:#000000;stroke-miterlimit:1;" x1="172.875" y1="16.406" x2="173.916" y2="15.104"/>
	<line style="fill:none;stroke:#000000;stroke-miterlimit:1;" x1="173.916" y1="15.104" x2="175.219" y2="13.542"/>
	<line style="fill:none;stroke:#000000;stroke-miterlimit:1;" x1="175.219" y1="13.542" x2="177.562" y2="11.979"/>
	<line style="fill:none;stroke:#000000;stroke-miterlimit:1;" x1="177.562" y1="11.979" x2="179.646" y2="10.677"/>
	<line style="fill:none;stroke:#000000;stroke-miterlimit:1;" x1="179.646" y1="10.677" x2="180.947" y2="9.896"/>
	<line style="fill:none;stroke:#000000;stroke-miterlimit:1;" x1="180.947" y1="9.896" x2="181.99" y2="9.115"/>
	<line style="fill:none;stroke:#000000;stroke-miterlimit:1;" x1="181.99" y1="9.115" x2="183.293" y2="8.333"/>
	<line style="fill:none;stroke:#000000;stroke-miterlimit:1;" x1="183.293" y1="8.333" x2="184.594" y2="7.552"/>
	<line style="fill:none;stroke:#000000;stroke-miterlimit:1;" x1="184.594" y1="7.552" x2="185.637" y2="6.51"/>
	<line style="fill:none;stroke:#000000;stroke-miterlimit:1;" x1="185.637" y1="6.51" x2="185.896" y2="5.729"/>
	<line style="fill:none;stroke:#000000;stroke-miterlimit:1;" x1="185.896" y1="5.729" x2="186.418" y2="4.167"/>
	<line style="fill:none;stroke:#000000;stroke-miterlimit:1;" x1="186.418" y1="4.167" x2="186.418" y2="2.865"/>
	<line style="fill:none;stroke:#000000;stroke-miterlimit:1;" x1="186.418" y1="2.865" x2="186.938" y2="1.562"/>
	<line style="fill:none;stroke:#000000;stroke-miterlimit:1;" x1="186.938" y1="1.562" x2="187.98" y2="0.521"/>
	<line style="fill:none;stroke:#000000;stroke-miterlimit:1;" x1="187.98" y1="0.521" x2="189.543" y2="0"/>
	<line style="fill:none;stroke:#000000;stroke-miterlimit:1;" x1="189.543" y1="0" x2="190.584" y2="0.26"/>
	<line style="fill:none;stroke:#000000;stroke-miterlimit:1;" x1="190.584" y1="0.26" x2="191.887" y2="0.781"/>
	<line style="fill:none;stroke:#000000;stroke-miterlimit:1;" x1="191.887" y1="0.781" x2="192.668" y2="1.823"/>
	<line style="fill:none;stroke:#000000;stroke-miterlimit:1;" x1="192.668" y1="1.823" x2="192.928" y2="2.604"/>
	<line style="fill:none;stroke:#000000;stroke-miterlimit:1;" x1="192.928" y1="2.604" x2="193.188" y2="3.906"/>
	<line style="fill:none;stroke:#000000;stroke-miterlimit:1;" x1="193.188" y1="3.906" x2="192.668" y2="5.469"/>
	<line style="fill:none;stroke:#000000;stroke-miterlimit:1;" x1="192.668" y1="5.469" x2="191.625" y2="6.51"/>
	<line style="fill:none;stroke:#000000;stroke-miterlimit:1;" x1="191.625" y1="6.51" x2="191.105" y2="7.552"/>
	<line style="fill:none;stroke:#000000;stroke-miterlimit:1;" x1="191.105" y1="7.552" x2="190.844" y2="8.333"/>
	<line style="fill:none;stroke:#000000;stroke-miterlimit:1;" x1="190.844" y1="8.333" x2="190.584" y2="9.636"/>
	<line style="fill:none;stroke:#000000;stroke-miterlimit:1;" x1="190.584" y1="9.636" x2="191.105" y2="11.198"/>
	<line style="fill:none;stroke:#000000;stroke-miterlimit:1;" x1="191.105" y1="11.198" x2="191.625" y2="12.761"/>
	<line style="fill:none;stroke:#000000;stroke-miterlimit:1;" x1="191.625" y1="12.761" x2="191.625" y2="14.062"/>
	<line style="fill:none;stroke:#000000;stroke-miterlimit:1;" x1="179.646" y1="10.417" x2="176.26" y2="5.729"/>
	<line style="fill:none;stroke:#000000;stroke-miterlimit:1;" x1="176.26" y1="5.729" x2="175.74" y2="4.167"/>
	<line style="fill:none;stroke:#000000;stroke-miterlimit:1;" x1="175.74" y1="4.167" x2="175.74" y2="2.865"/>
	<line style="fill:none;stroke:#000000;stroke-miterlimit:1;" x1="175.74" y1="2.865" x2="176.26" y2="1.562"/>
	<line style="fill:none;stroke:#000000;stroke-miterlimit:1;" x1="176.26" y1="1.562" x2="177.303" y2="1.042"/>
	<line style="fill:none;stroke:#000000;stroke-miterlimit:1;" x1="177.303" y1="1.042" x2="178.604" y2="0.521"/>
	<line style="fill:none;stroke:#000000;stroke-miterlimit:1;" x1="178.604" y1="0.521" x2="179.385" y2="0.781"/>
	<line style="fill:none;stroke:#000000;stroke-miterlimit:1;" x1="179.385" y1="0.781" x2="180.428" y2="1.302"/>
	<line style="fill:none;stroke:#000000;stroke-miterlimit:1;" x1="180.428" y1="1.302" x2="181.469" y2="2.344"/>
	<line style="fill:none;stroke:#000000;stroke-miterlimit:1;" x1="181.469" y1="2.344" x2="181.729" y2="3.646"/>
	<line style="fill:none;stroke:#000000;stroke-miterlimit:1;" x1="181.729" y1="3.646" x2="181.729" y2="4.427"/>
	<line style="fill:none;stroke:#000000;stroke-miterlimit:1;" x1="181.729" y1="4.427" x2="181.209" y2="5.469"/>
	<line style="fill:none;stroke:#000000;stroke-miterlimit:1;" x1="181.209" y1="5.469" x2="180.428" y2="5.729"/>
	<line style="fill:none;stroke:#000000;stroke-miterlimit:1;" x1="180.428" y1="5.729" x2="179.385" y2="5.99"/>
	<line style="fill:none;stroke:#000000;stroke-miterlimit:1;" x1="179.385" y1="5.99" x2="178.865" y2="5.99"/>
</g>
</svg>
