<?xml version="1.0" encoding="iso-8859-1"?>
<!-- Generator: Adobe Illustrator 16.0.1, SVG Export Plug-In . SVG Version: 6.00 Build 0)  -->
<!DOCTYPE svg PUBLIC "-//W3C//DTD SVG 1.1//EN" "http://www.w3.org/Graphics/SVG/1.1/DTD/svg11.dtd">
<svg version="1.1" id="Ebene_1" xmlns="http://www.w3.org/2000/svg" xmlns:xlink="http://www.w3.org/1999/xlink" x="0px" y="0px"
	 width="174.584px" height="168.979px" viewBox="0 0 174.584 168.979" style="enable-background:new 0 0 174.584 168.979;"
	 xml:space="preserve">
<g>
	<g>
		<defs>
			<polygon id="SVGID_1_" points="6.177,96.732 162.717,96.732 162.717,6.581 6.177,6.581 6.177,96.732 			"/>
		</defs>
		<clipPath id="SVGID_2_">
			<use xlink:href="#SVGID_1_"  style="overflow:visible;"/>
		</clipPath>
		
			<line style="clip-path:url(#SVGID_2_);fill:none;stroke:#000000;stroke-width:0;stroke-miterlimit:1;" x1="26.882" y1="10.94" x2="27.253" y2="10.303"/>
		
			<line style="clip-path:url(#SVGID_2_);fill:none;stroke:#000000;stroke-width:0;stroke-miterlimit:1;" x1="27.253" y1="10.303" x2="27.732" y2="9.826"/>
		
			<line style="clip-path:url(#SVGID_2_);fill:none;stroke:#000000;stroke-width:0;stroke-miterlimit:1;" x1="27.732" y1="9.826" x2="28.421" y2="9.667"/>
		
			<line style="clip-path:url(#SVGID_2_);fill:none;stroke:#000000;stroke-width:0;stroke-miterlimit:1;" x1="28.421" y1="9.667" x2="29.005" y2="9.773"/>
		
			<line style="clip-path:url(#SVGID_2_);fill:none;stroke:#000000;stroke-width:0;stroke-miterlimit:1;" x1="29.005" y1="9.773" x2="29.43" y2="10.144"/>
		
			<line style="clip-path:url(#SVGID_2_);fill:none;stroke:#000000;stroke-width:0;stroke-miterlimit:1;" x1="29.43" y1="10.144" x2="29.642" y2="10.462"/>
		
			<line style="clip-path:url(#SVGID_2_);fill:none;stroke:#000000;stroke-width:0;stroke-miterlimit:1;" x1="29.642" y1="10.462" x2="29.801" y2="11.206"/>
		
			<line style="clip-path:url(#SVGID_2_);fill:none;stroke:#000000;stroke-width:0;stroke-miterlimit:1;" x1="29.801" y1="11.206" x2="29.801" y2="19.803"/>
		
			<line style="clip-path:url(#SVGID_2_);fill:none;stroke:#000000;stroke-width:0;stroke-miterlimit:1;" x1="29.801" y1="19.803" x2="9.263" y2="19.803"/>
		
			<line style="clip-path:url(#SVGID_2_);fill:none;stroke:#000000;stroke-width:0;stroke-miterlimit:1;" x1="9.263" y1="19.803" x2="9.263" y2="11.206"/>
		
			<line style="clip-path:url(#SVGID_2_);fill:none;stroke:#000000;stroke-width:0;stroke-miterlimit:1;" x1="9.263" y1="11.206" x2="9.475" y2="10.462"/>
		
			<line style="clip-path:url(#SVGID_2_);fill:none;stroke:#000000;stroke-width:0;stroke-miterlimit:1;" x1="9.475" y1="10.462" x2="9.634" y2="10.144"/>
		
			<line style="clip-path:url(#SVGID_2_);fill:none;stroke:#000000;stroke-width:0;stroke-miterlimit:1;" x1="9.634" y1="10.144" x2="10.059" y2="9.773"/>
		
			<line style="clip-path:url(#SVGID_2_);fill:none;stroke:#000000;stroke-width:0;stroke-miterlimit:1;" x1="10.059" y1="9.773" x2="10.642" y2="9.667"/>
		
			<line style="clip-path:url(#SVGID_2_);fill:none;stroke:#000000;stroke-width:0;stroke-miterlimit:1;" x1="10.642" y1="9.667" x2="11.385" y2="9.826"/>
		
			<line style="clip-path:url(#SVGID_2_);fill:none;stroke:#000000;stroke-width:0;stroke-miterlimit:1;" x1="11.385" y1="9.826" x2="11.863" y2="10.303"/>
		
			<line style="clip-path:url(#SVGID_2_);fill:none;stroke:#000000;stroke-width:0;stroke-miterlimit:1;" x1="11.863" y1="10.303" x2="12.182" y2="10.887"/>
	</g>
	<g>
		<defs>
			<polygon id="SVGID_3_" points="6.177,96.732 162.717,96.732 162.717,0 6.177,0 6.177,96.732 			"/>
		</defs>
		<clipPath id="SVGID_4_">
			<use xlink:href="#SVGID_3_"  style="overflow:visible;"/>
		</clipPath>
		
			<line style="clip-path:url(#SVGID_4_);fill:none;stroke:#000000;stroke-width:0;stroke-miterlimit:1;" x1="20.089" y1="3.085" x2="19.612" y2="3.085"/>
		
			<line style="clip-path:url(#SVGID_4_);fill:none;stroke:#000000;stroke-width:0;stroke-miterlimit:1;" x1="19.612" y1="3.085" x2="19.24" y2="3.085"/>
		
			<line style="clip-path:url(#SVGID_4_);fill:none;stroke:#000000;stroke-width:0;stroke-miterlimit:1;" x1="19.24" y1="3.085" x2="18.921" y2="3.139"/>
		
			<line style="clip-path:url(#SVGID_4_);fill:none;stroke:#000000;stroke-width:0;stroke-miterlimit:1;" x1="18.921" y1="3.139" x2="18.337" y2="3.245"/>
		
			<line style="clip-path:url(#SVGID_4_);fill:none;stroke:#000000;stroke-width:0;stroke-miterlimit:1;" x1="18.337" y1="3.245" x2="17.966" y2="3.298"/>
		
			<line style="clip-path:url(#SVGID_4_);fill:none;stroke:#000000;stroke-width:0;stroke-miterlimit:1;" x1="17.966" y1="3.298" x2="17.648" y2="3.404"/>
		
			<line style="clip-path:url(#SVGID_4_);fill:none;stroke:#000000;stroke-width:0;stroke-miterlimit:1;" x1="17.648" y1="3.404" x2="17.33" y2="3.51"/>
		
			<line style="clip-path:url(#SVGID_4_);fill:none;stroke:#000000;stroke-width:0;stroke-miterlimit:1;" x1="17.33" y1="3.51" x2="16.905" y2="3.616"/>
		
			<line style="clip-path:url(#SVGID_4_);fill:none;stroke:#000000;stroke-width:0;stroke-miterlimit:1;" x1="16.905" y1="3.616" x2="16.533" y2="3.775"/>
		
			<line style="clip-path:url(#SVGID_4_);fill:none;stroke:#000000;stroke-width:0;stroke-miterlimit:1;" x1="16.533" y1="3.775" x2="16.162" y2="3.935"/>
		
			<line style="clip-path:url(#SVGID_4_);fill:none;stroke:#000000;stroke-width:0;stroke-miterlimit:1;" x1="16.162" y1="3.935" x2="15.843" y2="4.094"/>
		
			<line style="clip-path:url(#SVGID_4_);fill:none;stroke:#000000;stroke-width:0;stroke-miterlimit:1;" x1="15.843" y1="4.094" x2="15.525" y2="4.306"/>
		
			<line style="clip-path:url(#SVGID_4_);fill:none;stroke:#000000;stroke-width:0;stroke-miterlimit:1;" x1="15.525" y1="4.306" x2="15.207" y2="4.519"/>
		
			<line style="clip-path:url(#SVGID_4_);fill:none;stroke:#000000;stroke-width:0;stroke-miterlimit:1;" x1="15.207" y1="4.519" x2="14.888" y2="4.731"/>
		
			<line style="clip-path:url(#SVGID_4_);fill:none;stroke:#000000;stroke-width:0;stroke-miterlimit:1;" x1="14.888" y1="4.731" x2="14.623" y2="4.996"/>
		
			<line style="clip-path:url(#SVGID_4_);fill:none;stroke:#000000;stroke-width:0;stroke-miterlimit:1;" x1="14.623" y1="4.996" x2="14.039" y2="5.527"/>
		
			<line style="clip-path:url(#SVGID_4_);fill:none;stroke:#000000;stroke-width:0;stroke-miterlimit:1;" x1="14.039" y1="5.527" x2="13.827" y2="5.792"/>
		
			<line style="clip-path:url(#SVGID_4_);fill:none;stroke:#000000;stroke-width:0;stroke-miterlimit:1;" x1="13.827" y1="5.792" x2="13.614" y2="6.004"/>
		
			<line style="clip-path:url(#SVGID_4_);fill:none;stroke:#000000;stroke-width:0;stroke-miterlimit:1;" x1="13.614" y1="6.004" x2="13.243" y2="6.535"/>
		
			<line style="clip-path:url(#SVGID_4_);fill:none;stroke:#000000;stroke-width:0;stroke-miterlimit:1;" x1="13.243" y1="6.535" x2="12.924" y2="7.066"/>
		
			<line style="clip-path:url(#SVGID_4_);fill:none;stroke:#000000;stroke-width:0;stroke-miterlimit:1;" x1="12.924" y1="7.066" x2="12.765" y2="7.384"/>
		
			<line style="clip-path:url(#SVGID_4_);fill:none;stroke:#000000;stroke-width:0;stroke-miterlimit:1;" x1="12.765" y1="7.384" x2="12.659" y2="7.756"/>
		
			<line style="clip-path:url(#SVGID_4_);fill:none;stroke:#000000;stroke-width:0;stroke-miterlimit:1;" x1="12.659" y1="7.756" x2="12.447" y2="8.499"/>
		
			<line style="clip-path:url(#SVGID_4_);fill:none;stroke:#000000;stroke-width:0;stroke-miterlimit:1;" x1="12.447" y1="8.499" x2="12.288" y2="8.817"/>
		
			<line style="clip-path:url(#SVGID_4_);fill:none;stroke:#000000;stroke-width:0;stroke-miterlimit:1;" x1="12.288" y1="8.817" x2="12.234" y2="9.295"/>
		
			<line style="clip-path:url(#SVGID_4_);fill:none;stroke:#000000;stroke-width:0;stroke-miterlimit:1;" x1="12.234" y1="9.295" x2="12.182" y2="9.613"/>
		
			<line style="clip-path:url(#SVGID_4_);fill:none;stroke:#000000;stroke-width:0;stroke-miterlimit:1;" x1="12.182" y1="9.613" x2="12.182" y2="10.197"/>
		
			<line style="clip-path:url(#SVGID_4_);fill:none;stroke:#000000;stroke-width:0;stroke-miterlimit:1;" x1="12.182" y1="10.197" x2="12.182" y2="10.569"/>
		
			<line style="clip-path:url(#SVGID_4_);fill:none;stroke:#000000;stroke-width:0;stroke-miterlimit:1;" x1="12.182" y1="10.569" x2="12.182" y2="11.1"/>
		
			<line style="clip-path:url(#SVGID_4_);fill:none;stroke:#000000;stroke-width:0;stroke-miterlimit:1;" x1="12.182" y1="11.1" x2="12.234" y2="11.471"/>
		
			<line style="clip-path:url(#SVGID_4_);fill:none;stroke:#000000;stroke-width:0;stroke-miterlimit:1;" x1="12.234" y1="11.471" x2="12.447" y2="12.214"/>
		
			<line style="clip-path:url(#SVGID_4_);fill:none;stroke:#000000;stroke-width:0;stroke-miterlimit:1;" x1="12.447" y1="12.214" x2="12.553" y2="12.692"/>
		
			<line style="clip-path:url(#SVGID_4_);fill:none;stroke:#000000;stroke-width:0;stroke-miterlimit:1;" x1="12.553" y1="12.692" x2="12.659" y2="12.957"/>
		
			<line style="clip-path:url(#SVGID_4_);fill:none;stroke:#000000;stroke-width:0;stroke-miterlimit:1;" x1="12.659" y1="12.957" x2="12.872" y2="13.435"/>
		
			<line style="clip-path:url(#SVGID_4_);fill:none;stroke:#000000;stroke-width:0;stroke-miterlimit:1;" x1="12.872" y1="13.435" x2="12.978" y2="13.753"/>
		
			<line style="clip-path:url(#SVGID_4_);fill:none;stroke:#000000;stroke-width:0;stroke-miterlimit:1;" x1="12.978" y1="13.753" x2="13.296" y2="14.072"/>
		
			<line style="clip-path:url(#SVGID_4_);fill:none;stroke:#000000;stroke-width:0;stroke-miterlimit:1;" x1="13.296" y1="14.072" x2="13.402" y2="14.337"/>
		
			<line style="clip-path:url(#SVGID_4_);fill:none;stroke:#000000;stroke-width:0;stroke-miterlimit:1;" x1="13.402" y1="14.337" x2="13.667" y2="14.655"/>
		
			<line style="clip-path:url(#SVGID_4_);fill:none;stroke:#000000;stroke-width:0;stroke-miterlimit:1;" x1="13.667" y1="14.655" x2="13.88" y2="14.921"/>
		
			<line style="clip-path:url(#SVGID_4_);fill:none;stroke:#000000;stroke-width:0;stroke-miterlimit:1;" x1="13.88" y1="14.921" x2="14.145" y2="15.292"/>
		
			<line style="clip-path:url(#SVGID_4_);fill:none;stroke:#000000;stroke-width:0;stroke-miterlimit:1;" x1="14.145" y1="15.292" x2="14.676" y2="15.77"/>
		
			<line style="clip-path:url(#SVGID_4_);fill:none;stroke:#000000;stroke-width:0;stroke-miterlimit:1;" x1="14.676" y1="15.77" x2="15.047" y2="16.035"/>
		
			<line style="clip-path:url(#SVGID_4_);fill:none;stroke:#000000;stroke-width:0;stroke-miterlimit:1;" x1="15.047" y1="16.035" x2="15.419" y2="16.3"/>
		
			<line style="clip-path:url(#SVGID_4_);fill:none;stroke:#000000;stroke-width:0;stroke-miterlimit:1;" x1="15.419" y1="16.3" x2="15.631" y2="16.46"/>
		
			<line style="clip-path:url(#SVGID_4_);fill:none;stroke:#000000;stroke-width:0;stroke-miterlimit:1;" x1="15.631" y1="16.46" x2="15.95" y2="16.672"/>
		
			<line style="clip-path:url(#SVGID_4_);fill:none;stroke:#000000;stroke-width:0;stroke-miterlimit:1;" x1="15.95" y1="16.672" x2="16.268" y2="16.831"/>
		
			<line style="clip-path:url(#SVGID_4_);fill:none;stroke:#000000;stroke-width:0;stroke-miterlimit:1;" x1="16.268" y1="16.831" x2="16.746" y2="16.991"/>
		
			<line style="clip-path:url(#SVGID_4_);fill:none;stroke:#000000;stroke-width:0;stroke-miterlimit:1;" x1="16.746" y1="16.991" x2="17.064" y2="17.15"/>
		
			<line style="clip-path:url(#SVGID_4_);fill:none;stroke:#000000;stroke-width:0;stroke-miterlimit:1;" x1="17.064" y1="17.15" x2="17.489" y2="17.256"/>
		
			<line style="clip-path:url(#SVGID_4_);fill:none;stroke:#000000;stroke-width:0;stroke-miterlimit:1;" x1="17.489" y1="17.256" x2="17.754" y2="17.309"/>
		
			<line style="clip-path:url(#SVGID_4_);fill:none;stroke:#000000;stroke-width:0;stroke-miterlimit:1;" x1="17.754" y1="17.309" x2="18.125" y2="17.415"/>
		
			<line style="clip-path:url(#SVGID_4_);fill:none;stroke:#000000;stroke-width:0;stroke-miterlimit:1;" x1="18.125" y1="17.415" x2="18.497" y2="17.468"/>
		
			<line style="clip-path:url(#SVGID_4_);fill:none;stroke:#000000;stroke-width:0;stroke-miterlimit:1;" x1="18.497" y1="17.468" x2="18.921" y2="17.521"/>
		
			<line style="clip-path:url(#SVGID_4_);fill:none;stroke:#000000;stroke-width:0;stroke-miterlimit:1;" x1="18.921" y1="17.521" x2="19.24" y2="17.521"/>
		
			<line style="clip-path:url(#SVGID_4_);fill:none;stroke:#000000;stroke-width:0;stroke-miterlimit:1;" x1="19.24" y1="17.521" x2="19.717" y2="17.521"/>
		
			<line style="clip-path:url(#SVGID_4_);fill:none;stroke:#000000;stroke-width:0;stroke-miterlimit:1;" x1="19.717" y1="17.521" x2="20.089" y2="17.468"/>
		
			<line style="clip-path:url(#SVGID_4_);fill:none;stroke:#000000;stroke-width:0;stroke-miterlimit:1;" x1="20.089" y1="17.468" x2="20.195" y2="17.521"/>
		
			<line style="clip-path:url(#SVGID_4_);fill:none;stroke:#000000;stroke-width:0;stroke-miterlimit:1;" x1="20.195" y1="17.521" x2="20.62" y2="17.468"/>
		
			<line style="clip-path:url(#SVGID_4_);fill:none;stroke:#000000;stroke-width:0;stroke-miterlimit:1;" x1="20.62" y1="17.468" x2="20.938" y2="17.415"/>
		
			<line style="clip-path:url(#SVGID_4_);fill:none;stroke:#000000;stroke-width:0;stroke-miterlimit:1;" x1="20.938" y1="17.415" x2="21.363" y2="17.309"/>
		
			<line style="clip-path:url(#SVGID_4_);fill:none;stroke:#000000;stroke-width:0;stroke-miterlimit:1;" x1="21.363" y1="17.309" x2="21.575" y2="17.256"/>
		
			<line style="clip-path:url(#SVGID_4_);fill:none;stroke:#000000;stroke-width:0;stroke-miterlimit:1;" x1="21.575" y1="17.256" x2="22" y2="17.15"/>
		
			<line style="clip-path:url(#SVGID_4_);fill:none;stroke:#000000;stroke-width:0;stroke-miterlimit:1;" x1="22" y1="17.15" x2="22.318" y2="16.991"/>
		
			<line style="clip-path:url(#SVGID_4_);fill:none;stroke:#000000;stroke-width:0;stroke-miterlimit:1;" x1="22.318" y1="16.991" x2="22.795" y2="16.831"/>
		
			<line style="clip-path:url(#SVGID_4_);fill:none;stroke:#000000;stroke-width:0;stroke-miterlimit:1;" x1="22.795" y1="16.831" x2="23.114" y2="16.672"/>
		
			<line style="clip-path:url(#SVGID_4_);fill:none;stroke:#000000;stroke-width:0;stroke-miterlimit:1;" x1="23.114" y1="16.672" x2="23.433" y2="16.46"/>
		
			<line style="clip-path:url(#SVGID_4_);fill:none;stroke:#000000;stroke-width:0;stroke-miterlimit:1;" x1="23.433" y1="16.46" x2="23.645" y2="16.3"/>
		
			<line style="clip-path:url(#SVGID_4_);fill:none;stroke:#000000;stroke-width:0;stroke-miterlimit:1;" x1="23.645" y1="16.3" x2="24.07" y2="16.035"/>
		
			<line style="clip-path:url(#SVGID_4_);fill:none;stroke:#000000;stroke-width:0;stroke-miterlimit:1;" x1="24.07" y1="16.035" x2="24.388" y2="15.77"/>
		
			<line style="clip-path:url(#SVGID_4_);fill:none;stroke:#000000;stroke-width:0;stroke-miterlimit:1;" x1="24.388" y1="15.77" x2="24.918" y2="15.292"/>
		
			<line style="clip-path:url(#SVGID_4_);fill:none;stroke:#000000;stroke-width:0;stroke-miterlimit:1;" x1="24.918" y1="15.292" x2="25.184" y2="14.921"/>
		
			<line style="clip-path:url(#SVGID_4_);fill:none;stroke:#000000;stroke-width:0;stroke-miterlimit:1;" x1="25.184" y1="14.921" x2="25.396" y2="14.655"/>
		
			<line style="clip-path:url(#SVGID_4_);fill:none;stroke:#000000;stroke-width:0;stroke-miterlimit:1;" x1="25.396" y1="14.655" x2="25.662" y2="14.337"/>
		
			<line style="clip-path:url(#SVGID_4_);fill:none;stroke:#000000;stroke-width:0;stroke-miterlimit:1;" x1="25.662" y1="14.337" x2="25.821" y2="14.072"/>
		
			<line style="clip-path:url(#SVGID_4_);fill:none;stroke:#000000;stroke-width:0;stroke-miterlimit:1;" x1="25.821" y1="14.072" x2="26.086" y2="13.753"/>
		
			<line style="clip-path:url(#SVGID_4_);fill:none;stroke:#000000;stroke-width:0;stroke-miterlimit:1;" x1="26.086" y1="13.753" x2="26.246" y2="13.435"/>
		
			<line style="clip-path:url(#SVGID_4_);fill:none;stroke:#000000;stroke-width:0;stroke-miterlimit:1;" x1="26.246" y1="13.435" x2="26.405" y2="12.957"/>
		
			<line style="clip-path:url(#SVGID_4_);fill:none;stroke:#000000;stroke-width:0;stroke-miterlimit:1;" x1="26.405" y1="12.957" x2="26.564" y2="12.692"/>
		
			<line style="clip-path:url(#SVGID_4_);fill:none;stroke:#000000;stroke-width:0;stroke-miterlimit:1;" x1="26.564" y1="12.692" x2="26.67" y2="12.214"/>
		
			<line style="clip-path:url(#SVGID_4_);fill:none;stroke:#000000;stroke-width:0;stroke-miterlimit:1;" x1="26.67" y1="12.214" x2="26.83" y2="11.471"/>
		
			<line style="clip-path:url(#SVGID_4_);fill:none;stroke:#000000;stroke-width:0;stroke-miterlimit:1;" x1="26.83" y1="11.471" x2="26.882" y2="11.1"/>
		
			<line style="clip-path:url(#SVGID_4_);fill:none;stroke:#000000;stroke-width:0;stroke-miterlimit:1;" x1="26.882" y1="11.1" x2="26.882" y2="10.569"/>
		
			<line style="clip-path:url(#SVGID_4_);fill:none;stroke:#000000;stroke-width:0;stroke-miterlimit:1;" x1="26.882" y1="10.569" x2="26.882" y2="10.197"/>
		
			<line style="clip-path:url(#SVGID_4_);fill:none;stroke:#000000;stroke-width:0;stroke-miterlimit:1;" x1="26.882" y1="10.197" x2="26.882" y2="9.613"/>
		
			<line style="clip-path:url(#SVGID_4_);fill:none;stroke:#000000;stroke-width:0;stroke-miterlimit:1;" x1="26.882" y1="9.613" x2="26.83" y2="9.295"/>
		
			<line style="clip-path:url(#SVGID_4_);fill:none;stroke:#000000;stroke-width:0;stroke-miterlimit:1;" x1="26.83" y1="9.295" x2="26.776" y2="8.817"/>
		
			<line style="clip-path:url(#SVGID_4_);fill:none;stroke:#000000;stroke-width:0;stroke-miterlimit:1;" x1="26.776" y1="8.817" x2="26.67" y2="8.499"/>
		
			<line style="clip-path:url(#SVGID_4_);fill:none;stroke:#000000;stroke-width:0;stroke-miterlimit:1;" x1="26.67" y1="8.499" x2="26.564" y2="7.968"/>
		
			<line style="clip-path:url(#SVGID_4_);fill:none;stroke:#000000;stroke-width:0;stroke-miterlimit:1;" x1="26.564" y1="7.968" x2="26.298" y2="7.384"/>
		
			<line style="clip-path:url(#SVGID_4_);fill:none;stroke:#000000;stroke-width:0;stroke-miterlimit:1;" x1="26.298" y1="7.384" x2="26.139" y2="7.066"/>
		
			<line style="clip-path:url(#SVGID_4_);fill:none;stroke:#000000;stroke-width:0;stroke-miterlimit:1;" x1="26.139" y1="7.066" x2="25.927" y2="6.694"/>
		
			<line style="clip-path:url(#SVGID_4_);fill:none;stroke:#000000;stroke-width:0;stroke-miterlimit:1;" x1="25.927" y1="6.694" x2="25.45" y2="6.004"/>
		
			<line style="clip-path:url(#SVGID_4_);fill:none;stroke:#000000;stroke-width:0;stroke-miterlimit:1;" x1="25.45" y1="6.004" x2="25.291" y2="5.792"/>
		
			<line style="clip-path:url(#SVGID_4_);fill:none;stroke:#000000;stroke-width:0;stroke-miterlimit:1;" x1="25.291" y1="5.792" x2="25.078" y2="5.527"/>
		
			<line style="clip-path:url(#SVGID_4_);fill:none;stroke:#000000;stroke-width:0;stroke-miterlimit:1;" x1="25.078" y1="5.527" x2="24.441" y2="4.996"/>
		
			<line style="clip-path:url(#SVGID_4_);fill:none;stroke:#000000;stroke-width:0;stroke-miterlimit:1;" x1="24.441" y1="4.996" x2="24.175" y2="4.731"/>
		
			<line style="clip-path:url(#SVGID_4_);fill:none;stroke:#000000;stroke-width:0;stroke-miterlimit:1;" x1="24.175" y1="4.731" x2="23.911" y2="4.519"/>
		
			<line style="clip-path:url(#SVGID_4_);fill:none;stroke:#000000;stroke-width:0;stroke-miterlimit:1;" x1="23.911" y1="4.519" x2="23.592" y2="4.306"/>
		
			<line style="clip-path:url(#SVGID_4_);fill:none;stroke:#000000;stroke-width:0;stroke-miterlimit:1;" x1="23.592" y1="4.306" x2="23.22" y2="4.094"/>
		
			<line style="clip-path:url(#SVGID_4_);fill:none;stroke:#000000;stroke-width:0;stroke-miterlimit:1;" x1="23.22" y1="4.094" x2="22.955" y2="3.935"/>
		
			<line style="clip-path:url(#SVGID_4_);fill:none;stroke:#000000;stroke-width:0;stroke-miterlimit:1;" x1="22.955" y1="3.935" x2="22.531" y2="3.775"/>
		
			<line style="clip-path:url(#SVGID_4_);fill:none;stroke:#000000;stroke-width:0;stroke-miterlimit:1;" x1="22.531" y1="3.775" x2="22.212" y2="3.616"/>
		
			<line style="clip-path:url(#SVGID_4_);fill:none;stroke:#000000;stroke-width:0;stroke-miterlimit:1;" x1="22.212" y1="3.616" x2="21.734" y2="3.51"/>
		
			<line style="clip-path:url(#SVGID_4_);fill:none;stroke:#000000;stroke-width:0;stroke-miterlimit:1;" x1="21.734" y1="3.51" x2="21.469" y2="3.404"/>
		
			<line style="clip-path:url(#SVGID_4_);fill:none;stroke:#000000;stroke-width:0;stroke-miterlimit:1;" x1="21.469" y1="3.404" x2="21.097" y2="3.298"/>
		
			<line style="clip-path:url(#SVGID_4_);fill:none;stroke:#000000;stroke-width:0;stroke-miterlimit:1;" x1="21.097" y1="3.298" x2="20.779" y2="3.245"/>
		
			<line style="clip-path:url(#SVGID_4_);fill:none;stroke:#000000;stroke-width:0;stroke-miterlimit:1;" x1="20.779" y1="3.245" x2="20.46" y2="3.139"/>
		
			<line style="clip-path:url(#SVGID_4_);fill:none;stroke:#000000;stroke-width:0;stroke-miterlimit:1;" x1="20.46" y1="3.139" x2="19.824" y2="3.085"/>
		
			<line style="clip-path:url(#SVGID_4_);fill:none;stroke:#000000;stroke-width:0;stroke-miterlimit:1;" x1="19.824" y1="3.085" x2="19.453" y2="3.085"/>
	</g>
	<g>
		<defs>
			<polygon id="SVGID_5_" points="0,168.979 162.717,168.979 162.717,0 0,0 0,168.979 			"/>
		</defs>
		<clipPath id="SVGID_6_">
			<use xlink:href="#SVGID_5_"  style="overflow:visible;"/>
		</clipPath>
		
			<line style="clip-path:url(#SVGID_6_);fill:none;stroke:#000000;stroke-width:0;stroke-miterlimit:1;" x1="31.407" y1="66.9" x2="3.086" y2="66.9"/>
		
			<line style="clip-path:url(#SVGID_6_);fill:none;stroke:#000000;stroke-width:0;stroke-miterlimit:1;" x1="3.086" y1="66.9" x2="9.918" y2="64.226"/>
		
			<line style="clip-path:url(#SVGID_6_);fill:none;stroke:#000000;stroke-width:0;stroke-miterlimit:1;" x1="9.918" y1="64.226" x2="5.858" y2="50.858"/>
		
			<line style="clip-path:url(#SVGID_6_);fill:none;stroke:#000000;stroke-width:0;stroke-miterlimit:1;" x1="5.858" y1="50.858" x2="5.759" y2="49.669"/>
		
			<line style="clip-path:url(#SVGID_6_);fill:none;stroke:#000000;stroke-width:0;stroke-miterlimit:1;" x1="5.759" y1="49.669" x2="5.661" y2="48.58"/>
		
			<line style="clip-path:url(#SVGID_6_);fill:none;stroke:#000000;stroke-width:0;stroke-miterlimit:1;" x1="5.661" y1="48.58" x2="5.759" y2="47.589"/>
		
			<line style="clip-path:url(#SVGID_6_);fill:none;stroke:#000000;stroke-width:0;stroke-miterlimit:1;" x1="5.759" y1="47.589" x2="6.057" y2="46.996"/>
		
			<line style="clip-path:url(#SVGID_6_);fill:none;stroke:#000000;stroke-width:0;stroke-miterlimit:1;" x1="6.057" y1="46.996" x2="6.453" y2="46.5"/>
		
			<line style="clip-path:url(#SVGID_6_);fill:none;stroke:#000000;stroke-width:0;stroke-miterlimit:1;" x1="6.453" y1="46.5" x2="7.047" y2="46.204"/>
		
			<line style="clip-path:url(#SVGID_6_);fill:none;stroke:#000000;stroke-width:0;stroke-miterlimit:1;" x1="7.047" y1="46.204" x2="7.542" y2="46.104"/>
		
			<line style="clip-path:url(#SVGID_6_);fill:none;stroke:#000000;stroke-width:0;stroke-miterlimit:1;" x1="7.542" y1="46.104" x2="8.136" y2="46.104"/>
		
			<line style="clip-path:url(#SVGID_6_);fill:none;stroke:#000000;stroke-width:0;stroke-miterlimit:1;" x1="8.136" y1="46.104" x2="8.532" y2="46.104"/>
		
			<line style="clip-path:url(#SVGID_6_);fill:none;stroke:#000000;stroke-width:0;stroke-miterlimit:1;" x1="8.532" y1="46.104" x2="8.829" y2="46.204"/>
		
			<line style="clip-path:url(#SVGID_6_);fill:none;stroke:#000000;stroke-width:0;stroke-miterlimit:1;" x1="8.829" y1="46.204" x2="9.324" y2="46.5"/>
		
			<line style="clip-path:url(#SVGID_6_);fill:none;stroke:#000000;stroke-width:0;stroke-miterlimit:1;" x1="9.324" y1="46.5" x2="10.117" y2="47.094"/>
		
			<line style="clip-path:url(#SVGID_6_);fill:none;stroke:#000000;stroke-width:0;stroke-miterlimit:1;" x1="10.117" y1="47.094" x2="17.939" y2="56.799"/>
		
			<line style="clip-path:url(#SVGID_6_);fill:none;stroke:#000000;stroke-width:0;stroke-miterlimit:1;" x1="17.939" y1="56.799" x2="18.732" y2="41.45"/>
		
			<line style="clip-path:url(#SVGID_6_);fill:none;stroke:#000000;stroke-width:0;stroke-miterlimit:1;" x1="18.732" y1="41.45" x2="19.029" y2="39.172"/>
		
			<line style="clip-path:url(#SVGID_6_);fill:none;stroke:#000000;stroke-width:0;stroke-miterlimit:1;" x1="19.029" y1="39.172" x2="19.425" y2="37.588"/>
		
			<line style="clip-path:url(#SVGID_6_);fill:none;stroke:#000000;stroke-width:0;stroke-miterlimit:1;" x1="19.425" y1="37.588" x2="19.722" y2="36.598"/>
		
			<line style="clip-path:url(#SVGID_6_);fill:none;stroke:#000000;stroke-width:0;stroke-miterlimit:1;" x1="19.722" y1="36.598" x2="20.712" y2="35.707"/>
		
			<line style="clip-path:url(#SVGID_6_);fill:none;stroke:#000000;stroke-width:0;stroke-miterlimit:1;" x1="20.712" y1="35.707" x2="21.604" y2="35.113"/>
		
			<line style="clip-path:url(#SVGID_6_);fill:none;stroke:#000000;stroke-width:0;stroke-miterlimit:1;" x1="21.604" y1="35.113" x2="22.099" y2="34.815"/>
		
			<line style="clip-path:url(#SVGID_6_);fill:none;stroke:#000000;stroke-width:0;stroke-miterlimit:1;" x1="22.099" y1="34.815" x2="22.891" y2="34.618"/>
		
			<line style="clip-path:url(#SVGID_6_);fill:none;stroke:#000000;stroke-width:0;stroke-miterlimit:1;" x1="22.891" y1="34.618" x2="23.584" y2="34.618"/>
		
			<line style="clip-path:url(#SVGID_6_);fill:none;stroke:#000000;stroke-width:0;stroke-miterlimit:1;" x1="23.584" y1="34.618" x2="24.277" y2="34.716"/>
		
			<line style="clip-path:url(#SVGID_6_);fill:none;stroke:#000000;stroke-width:0;stroke-miterlimit:1;" x1="24.277" y1="34.716" x2="25.565" y2="35.41"/>
		
			<line style="clip-path:url(#SVGID_6_);fill:none;stroke:#000000;stroke-width:0;stroke-miterlimit:1;" x1="25.565" y1="35.41" x2="26.257" y2="36.202"/>
		
			<line style="clip-path:url(#SVGID_6_);fill:none;stroke:#000000;stroke-width:0;stroke-miterlimit:1;" x1="26.257" y1="36.202" x2="26.752" y2="37.093"/>
		
			<line style="clip-path:url(#SVGID_6_);fill:none;stroke:#000000;stroke-width:0;stroke-miterlimit:1;" x1="26.752" y1="37.093" x2="27.347" y2="38.282"/>
		
			<line style="clip-path:url(#SVGID_6_);fill:none;stroke:#000000;stroke-width:0;stroke-miterlimit:1;" x1="27.347" y1="38.282" x2="27.644" y2="39.767"/>
		
			<line style="clip-path:url(#SVGID_6_);fill:none;stroke:#000000;stroke-width:0;stroke-miterlimit:1;" x1="27.644" y1="39.767" x2="27.842" y2="41.252"/>
		
			<line style="clip-path:url(#SVGID_6_);fill:none;stroke:#000000;stroke-width:0;stroke-miterlimit:1;" x1="27.842" y1="41.252" x2="27.941" y2="42.243"/>
		
			<line style="clip-path:url(#SVGID_6_);fill:none;stroke:#000000;stroke-width:0;stroke-miterlimit:1;" x1="27.941" y1="42.243" x2="27.941" y2="62.741"/>
		
			<line style="clip-path:url(#SVGID_6_);fill:none;stroke:#000000;stroke-width:0;stroke-miterlimit:1;" x1="27.941" y1="62.741" x2="27.744" y2="63.533"/>
		
			<line style="clip-path:url(#SVGID_6_);fill:none;stroke:#000000;stroke-width:0;stroke-miterlimit:1;" x1="27.744" y1="63.533" x2="27.248" y2="64.325"/>
		
			<line style="clip-path:url(#SVGID_6_);fill:none;stroke:#000000;stroke-width:0;stroke-miterlimit:1;" x1="27.248" y1="64.325" x2="31.705" y2="67.098"/>
	</g>
	<g>
		<defs>
			<polygon id="SVGID_7_" points="0,168.979 162.717,168.979 162.717,0 0,0 0,168.979 			"/>
		</defs>
		<clipPath id="SVGID_8_">
			<use xlink:href="#SVGID_7_"  style="overflow:visible;"/>
		</clipPath>
		
			<line style="clip-path:url(#SVGID_8_);fill:none;stroke:#000000;stroke-width:0;stroke-miterlimit:1;" x1="18.534" y1="43.827" x2="15.959" y2="43.827"/>
		
			<line style="clip-path:url(#SVGID_8_);fill:none;stroke:#000000;stroke-width:0;stroke-miterlimit:1;" x1="15.959" y1="43.827" x2="16.157" y2="39.667"/>
		
			<line style="clip-path:url(#SVGID_8_);fill:none;stroke:#000000;stroke-width:0;stroke-miterlimit:1;" x1="16.157" y1="39.667" x2="16.454" y2="37.588"/>
		
			<line style="clip-path:url(#SVGID_8_);fill:none;stroke:#000000;stroke-width:0;stroke-miterlimit:1;" x1="16.454" y1="37.588" x2="17.048" y2="36.004"/>
		
			<line style="clip-path:url(#SVGID_8_);fill:none;stroke:#000000;stroke-width:0;stroke-miterlimit:1;" x1="17.048" y1="36.004" x2="17.742" y2="34.419"/>
	</g>
	<g>
		<defs>
			<polygon id="SVGID_9_" points="0,168.979 174.584,168.979 174.584,0 0,0 0,168.979 			"/>
		</defs>
		<clipPath id="SVGID_10_">
			<use xlink:href="#SVGID_9_"  style="overflow:visible;"/>
		</clipPath>
		
			<line style="clip-path:url(#SVGID_10_);fill:none;stroke:#000000;stroke-width:0;stroke-miterlimit:1;" x1="28.139" y1="43.926" x2="30.615" y2="43.926"/>
		
			<line style="clip-path:url(#SVGID_10_);fill:none;stroke:#000000;stroke-width:0;stroke-miterlimit:1;" x1="30.615" y1="43.926" x2="30.813" y2="33.132"/>
		
			<line style="clip-path:url(#SVGID_10_);fill:none;stroke:#000000;stroke-width:0;stroke-miterlimit:1;" x1="30.813" y1="33.132" x2="30.417" y2="31.053"/>
		
			<line style="clip-path:url(#SVGID_10_);fill:none;stroke:#000000;stroke-width:0;stroke-miterlimit:1;" x1="30.417" y1="31.053" x2="29.625" y2="28.973"/>
		
			<line style="clip-path:url(#SVGID_10_);fill:none;stroke:#000000;stroke-width:0;stroke-miterlimit:1;" x1="29.625" y1="28.973" x2="28.139" y2="26.398"/>
		
			<line style="clip-path:url(#SVGID_10_);fill:none;stroke:#000000;stroke-width:0;stroke-miterlimit:1;" x1="28.139" y1="26.398" x2="26.456" y2="24.715"/>
		
			<line style="clip-path:url(#SVGID_10_);fill:none;stroke:#000000;stroke-width:0;stroke-miterlimit:1;" x1="26.456" y1="24.715" x2="24.475" y2="23.526"/>
		
			<line style="clip-path:url(#SVGID_10_);fill:none;stroke:#000000;stroke-width:0;stroke-miterlimit:1;" x1="24.475" y1="23.526" x2="22.396" y2="22.933"/>
		
			<line style="clip-path:url(#SVGID_10_);fill:none;stroke:#000000;stroke-width:0;stroke-miterlimit:1;" x1="22.396" y1="22.933" x2="20.119" y2="22.635"/>
	</g>
	<g>
		<defs>
			<polygon id="SVGID_11_" points="0,168.979 174.584,168.979 174.584,0 0,0 0,168.979 			"/>
		</defs>
		<clipPath id="SVGID_12_">
			<use xlink:href="#SVGID_11_"  style="overflow:visible;"/>
		</clipPath>
		
			<line style="clip-path:url(#SVGID_12_);fill:none;stroke:#000000;stroke-width:0;stroke-miterlimit:1;" x1="17.643" y1="24.319" x2="18.237" y2="24.715"/>
		
			<line style="clip-path:url(#SVGID_12_);fill:none;stroke:#000000;stroke-width:0;stroke-miterlimit:1;" x1="18.237" y1="24.715" x2="18.732" y2="24.319"/>
		
			<line style="clip-path:url(#SVGID_12_);fill:none;stroke:#000000;stroke-width:0;stroke-miterlimit:1;" x1="18.732" y1="24.319" x2="18.138" y2="23.824"/>
		
			<line style="clip-path:url(#SVGID_12_);fill:none;stroke:#000000;stroke-width:0;stroke-miterlimit:1;" x1="18.138" y1="23.824" x2="17.742" y2="24.319"/>
	</g>
	<g>
		<defs>
			<polygon id="SVGID_13_" points="0,168.979 174.584,168.979 174.584,0 0,0 0,168.979 			"/>
		</defs>
		<clipPath id="SVGID_14_">
			<use xlink:href="#SVGID_13_"  style="overflow:visible;"/>
		</clipPath>
		
			<line style="clip-path:url(#SVGID_14_);fill:none;stroke:#000000;stroke-width:0;stroke-miterlimit:1;" x1="17.643" y1="34.419" x2="17.247" y2="33.825"/>
		
			<line style="clip-path:url(#SVGID_14_);fill:none;stroke:#000000;stroke-width:0;stroke-miterlimit:1;" x1="17.247" y1="33.825" x2="17.048" y2="32.538"/>
		
			<line style="clip-path:url(#SVGID_14_);fill:none;stroke:#000000;stroke-width:0;stroke-miterlimit:1;" x1="17.048" y1="32.538" x2="18.138" y2="30.062"/>
		
			<line style="clip-path:url(#SVGID_14_);fill:none;stroke:#000000;stroke-width:0;stroke-miterlimit:1;" x1="18.138" y1="30.062" x2="20.316" y2="27.389"/>
		
			<line style="clip-path:url(#SVGID_14_);fill:none;stroke:#000000;stroke-width:0;stroke-miterlimit:1;" x1="20.316" y1="27.389" x2="20.712" y2="26.993"/>
		
			<line style="clip-path:url(#SVGID_14_);fill:none;stroke:#000000;stroke-width:0;stroke-miterlimit:1;" x1="20.712" y1="26.993" x2="21.109" y2="26.2"/>
		
			<line style="clip-path:url(#SVGID_14_);fill:none;stroke:#000000;stroke-width:0;stroke-miterlimit:1;" x1="21.109" y1="26.2" x2="21.306" y2="25.21"/>
		
			<line style="clip-path:url(#SVGID_14_);fill:none;stroke:#000000;stroke-width:0;stroke-miterlimit:1;" x1="21.306" y1="25.21" x2="21.208" y2="24.319"/>
		
			<line style="clip-path:url(#SVGID_14_);fill:none;stroke:#000000;stroke-width:0;stroke-miterlimit:1;" x1="21.208" y1="24.319" x2="20.811" y2="23.526"/>
		
			<line style="clip-path:url(#SVGID_14_);fill:none;stroke:#000000;stroke-width:0;stroke-miterlimit:1;" x1="20.811" y1="23.526" x2="20.019" y2="22.635"/>
		
			<line style="clip-path:url(#SVGID_14_);fill:none;stroke:#000000;stroke-width:0;stroke-miterlimit:1;" x1="20.019" y1="22.635" x2="18.534" y2="22.536"/>
		
			<line style="clip-path:url(#SVGID_14_);fill:none;stroke:#000000;stroke-width:0;stroke-miterlimit:1;" x1="18.534" y1="22.536" x2="17.048" y2="22.734"/>
		
			<line style="clip-path:url(#SVGID_14_);fill:none;stroke:#000000;stroke-width:0;stroke-miterlimit:1;" x1="17.048" y1="22.734" x2="15.959" y2="23.031"/>
		
			<line style="clip-path:url(#SVGID_14_);fill:none;stroke:#000000;stroke-width:0;stroke-miterlimit:1;" x1="15.959" y1="23.031" x2="15.068" y2="23.725"/>
		
			<line style="clip-path:url(#SVGID_14_);fill:none;stroke:#000000;stroke-width:0;stroke-miterlimit:1;" x1="15.068" y1="23.725" x2="13.879" y2="23.824"/>
		
			<line style="clip-path:url(#SVGID_14_);fill:none;stroke:#000000;stroke-width:0;stroke-miterlimit:1;" x1="13.879" y1="23.824" x2="12.394" y2="24.121"/>
		
			<line style="clip-path:url(#SVGID_14_);fill:none;stroke:#000000;stroke-width:0;stroke-miterlimit:1;" x1="12.394" y1="24.121" x2="10.81" y2="24.814"/>
		
			<line style="clip-path:url(#SVGID_14_);fill:none;stroke:#000000;stroke-width:0;stroke-miterlimit:1;" x1="10.81" y1="24.814" x2="9.423" y2="25.507"/>
		
			<line style="clip-path:url(#SVGID_14_);fill:none;stroke:#000000;stroke-width:0;stroke-miterlimit:1;" x1="9.423" y1="25.507" x2="7.443" y2="27.091"/>
		
			<line style="clip-path:url(#SVGID_14_);fill:none;stroke:#000000;stroke-width:0;stroke-miterlimit:1;" x1="7.443" y1="27.091" x2="6.453" y2="28.181"/>
		
			<line style="clip-path:url(#SVGID_14_);fill:none;stroke:#000000;stroke-width:0;stroke-miterlimit:1;" x1="6.453" y1="28.181" x2="5.858" y2="28.874"/>
		
			<line style="clip-path:url(#SVGID_14_);fill:none;stroke:#000000;stroke-width:0;stroke-miterlimit:1;" x1="5.858" y1="28.874" x2="6.254" y2="29.171"/>
		
			<line style="clip-path:url(#SVGID_14_);fill:none;stroke:#000000;stroke-width:0;stroke-miterlimit:1;" x1="6.254" y1="29.171" x2="7.839" y2="27.785"/>
		
			<line style="clip-path:url(#SVGID_14_);fill:none;stroke:#000000;stroke-width:0;stroke-miterlimit:1;" x1="7.839" y1="27.785" x2="9.721" y2="26.398"/>
		
			<line style="clip-path:url(#SVGID_14_);fill:none;stroke:#000000;stroke-width:0;stroke-miterlimit:1;" x1="9.721" y1="26.398" x2="11.107" y2="25.705"/>
		
			<line style="clip-path:url(#SVGID_14_);fill:none;stroke:#000000;stroke-width:0;stroke-miterlimit:1;" x1="11.107" y1="25.705" x2="12.592" y2="25.408"/>
		
			<line style="clip-path:url(#SVGID_14_);fill:none;stroke:#000000;stroke-width:0;stroke-miterlimit:1;" x1="12.592" y1="25.408" x2="14.078" y2="25.408"/>
		
			<line style="clip-path:url(#SVGID_14_);fill:none;stroke:#000000;stroke-width:0;stroke-miterlimit:1;" x1="14.078" y1="25.408" x2="15.365" y2="25.606"/>
		
			<line style="clip-path:url(#SVGID_14_);fill:none;stroke:#000000;stroke-width:0;stroke-miterlimit:1;" x1="15.365" y1="25.606" x2="16.355" y2="25.903"/>
		
			<line style="clip-path:url(#SVGID_14_);fill:none;stroke:#000000;stroke-width:0;stroke-miterlimit:1;" x1="16.355" y1="25.903" x2="17.048" y2="26.794"/>
		
			<line style="clip-path:url(#SVGID_14_);fill:none;stroke:#000000;stroke-width:0;stroke-miterlimit:1;" x1="17.048" y1="26.794" x2="16.949" y2="27.884"/>
		
			<line style="clip-path:url(#SVGID_14_);fill:none;stroke:#000000;stroke-width:0;stroke-miterlimit:1;" x1="16.949" y1="27.884" x2="15.761" y2="30.26"/>
		
			<line style="clip-path:url(#SVGID_14_);fill:none;stroke:#000000;stroke-width:0;stroke-miterlimit:1;" x1="15.761" y1="30.26" x2="14.771" y2="32.241"/>
		
			<line style="clip-path:url(#SVGID_14_);fill:none;stroke:#000000;stroke-width:0;stroke-miterlimit:1;" x1="14.771" y1="32.241" x2="14.177" y2="34.519"/>
		
			<line style="clip-path:url(#SVGID_14_);fill:none;stroke:#000000;stroke-width:0;stroke-miterlimit:1;" x1="14.177" y1="34.519" x2="14.573" y2="35.905"/>
		
			<line style="clip-path:url(#SVGID_14_);fill:none;stroke:#000000;stroke-width:0;stroke-miterlimit:1;" x1="14.573" y1="35.905" x2="15.464" y2="36.697"/>
		
			<line style="clip-path:url(#SVGID_14_);fill:none;stroke:#000000;stroke-width:0;stroke-miterlimit:1;" x1="15.464" y1="36.697" x2="16.85" y2="36.895"/>
	</g>
</g>
</svg>
