<?xml version="1.0" encoding="iso-8859-1"?>
<!-- Generator: Adobe Illustrator 16.0.1, SVG Export Plug-In . SVG Version: 6.00 Build 0)  -->
<!DOCTYPE svg PUBLIC "-//W3C//DTD SVG 1.1//EN" "http://www.w3.org/Graphics/SVG/1.1/DTD/svg11.dtd">
<svg version="1.1" id="Ebene_1" xmlns="http://www.w3.org/2000/svg" xmlns:xlink="http://www.w3.org/1999/xlink" x="0px" y="0px"
	 width="340.643px" height="375.413px" viewBox="0 0 340.643 375.413" style="enable-background:new 0 0 340.643 375.413;"
	 xml:space="preserve">
<g>
	<g>
		<defs>
			<polygon id="SVGID_1_" points="34.673,201.892 271.297,201.892 271.297,0 34.673,0 34.673,201.892 			"/>
		</defs>
		<clipPath id="SVGID_2_">
			<use xlink:href="#SVGID_1_"  style="overflow:visible;"/>
		</clipPath>
		
			<line style="clip-path:url(#SVGID_2_);fill:none;stroke:#000000;stroke-width:0;stroke-miterlimit:1;" x1="40.864" y1="84.593" x2="56.389" y2="84.593"/>
		
			<line style="clip-path:url(#SVGID_2_);fill:none;stroke:#000000;stroke-width:0;stroke-miterlimit:1;" x1="56.389" y1="84.593" x2="56.13" y2="78.9"/>
		
			<line style="clip-path:url(#SVGID_2_);fill:none;stroke:#000000;stroke-width:0;stroke-miterlimit:1;" x1="56.13" y1="78.9" x2="57.683" y2="71.396"/>
		
			<line style="clip-path:url(#SVGID_2_);fill:none;stroke:#000000;stroke-width:0;stroke-miterlimit:1;" x1="57.683" y1="71.396" x2="59.235" y2="66.998"/>
		
			<line style="clip-path:url(#SVGID_2_);fill:none;stroke:#000000;stroke-width:0;stroke-miterlimit:1;" x1="59.235" y1="66.998" x2="62.34" y2="60.011"/>
		
			<line style="clip-path:url(#SVGID_2_);fill:none;stroke:#000000;stroke-width:0;stroke-miterlimit:1;" x1="62.34" y1="60.011" x2="76.572" y2="34.912"/>
		
			<line style="clip-path:url(#SVGID_2_);fill:none;stroke:#000000;stroke-width:0;stroke-miterlimit:1;" x1="76.572" y1="34.912" x2="77.348" y2="29.479"/>
		
			<line style="clip-path:url(#SVGID_2_);fill:none;stroke:#000000;stroke-width:0;stroke-miterlimit:1;" x1="77.348" y1="29.479" x2="77.607" y2="26.891"/>
		
			<line style="clip-path:url(#SVGID_2_);fill:none;stroke:#000000;stroke-width:0;stroke-miterlimit:1;" x1="77.607" y1="26.891" x2="77.089" y2="22.233"/>
		
			<line style="clip-path:url(#SVGID_2_);fill:none;stroke:#000000;stroke-width:0;stroke-miterlimit:1;" x1="77.089" y1="22.233" x2="76.313" y2="19.128"/>
		
			<line style="clip-path:url(#SVGID_2_);fill:none;stroke:#000000;stroke-width:0;stroke-miterlimit:1;" x1="76.313" y1="19.128" x2="75.02" y2="15.247"/>
		
			<line style="clip-path:url(#SVGID_2_);fill:none;stroke:#000000;stroke-width:0;stroke-miterlimit:1;" x1="75.02" y1="15.247" x2="72.69" y2="11.625"/>
		
			<line style="clip-path:url(#SVGID_2_);fill:none;stroke:#000000;stroke-width:0;stroke-miterlimit:1;" x1="72.69" y1="11.625" x2="70.879" y2="9.554"/>
		
			<line style="clip-path:url(#SVGID_2_);fill:none;stroke:#000000;stroke-width:0;stroke-miterlimit:1;" x1="70.879" y1="9.554" x2="66.222" y2="5.156"/>
		
			<line style="clip-path:url(#SVGID_2_);fill:none;stroke:#000000;stroke-width:0;stroke-miterlimit:1;" x1="66.222" y1="5.156" x2="62.599" y2="3.862"/>
		
			<line style="clip-path:url(#SVGID_2_);fill:none;stroke:#000000;stroke-width:0;stroke-miterlimit:1;" x1="62.599" y1="3.862" x2="55.095" y2="3.085"/>
		
			<line style="clip-path:url(#SVGID_2_);fill:none;stroke:#000000;stroke-width:0;stroke-miterlimit:1;" x1="55.095" y1="3.085" x2="48.885" y2="3.862"/>
		
			<line style="clip-path:url(#SVGID_2_);fill:none;stroke:#000000;stroke-width:0;stroke-miterlimit:1;" x1="48.885" y1="3.862" x2="46.298" y2="4.897"/>
		
			<line style="clip-path:url(#SVGID_2_);fill:none;stroke:#000000;stroke-width:0;stroke-miterlimit:1;" x1="46.298" y1="4.897" x2="43.193" y2="6.967"/>
		
			<line style="clip-path:url(#SVGID_2_);fill:none;stroke:#000000;stroke-width:0;stroke-miterlimit:1;" x1="43.193" y1="6.967" x2="40.346" y2="10.072"/>
		
			<line style="clip-path:url(#SVGID_2_);fill:none;stroke:#000000;stroke-width:0;stroke-miterlimit:1;" x1="40.346" y1="10.072" x2="39.053" y2="11.883"/>
		
			<line style="clip-path:url(#SVGID_2_);fill:none;stroke:#000000;stroke-width:0;stroke-miterlimit:1;" x1="39.053" y1="11.883" x2="37.759" y2="13.436"/>
	</g>
	<g>
		<defs>
			<polygon id="SVGID_3_" points="0,201.892 271.297,201.892 271.297,0 0,0 0,201.892 			"/>
		</defs>
		<clipPath id="SVGID_4_">
			<use xlink:href="#SVGID_3_"  style="overflow:visible;"/>
		</clipPath>
		
			<line style="clip-path:url(#SVGID_4_);fill:none;stroke:#000000;stroke-width:0;stroke-miterlimit:1;" x1="36.982" y1="13.694" x2="34.654" y2="14.729"/>
		
			<line style="clip-path:url(#SVGID_4_);fill:none;stroke:#000000;stroke-width:0;stroke-miterlimit:1;" x1="34.654" y1="14.729" x2="9.296" y2="19.646"/>
		
			<line style="clip-path:url(#SVGID_4_);fill:none;stroke:#000000;stroke-width:0;stroke-miterlimit:1;" x1="9.296" y1="19.646" x2="6.967" y2="21.457"/>
		
			<line style="clip-path:url(#SVGID_4_);fill:none;stroke:#000000;stroke-width:0;stroke-miterlimit:1;" x1="6.967" y1="21.457" x2="5.156" y2="22.751"/>
		
			<line style="clip-path:url(#SVGID_4_);fill:none;stroke:#000000;stroke-width:0;stroke-miterlimit:1;" x1="5.156" y1="22.751" x2="3.604" y2="25.597"/>
		
			<line style="clip-path:url(#SVGID_4_);fill:none;stroke:#000000;stroke-width:0;stroke-miterlimit:1;" x1="3.604" y1="25.597" x2="3.086" y2="29.737"/>
		
			<line style="clip-path:url(#SVGID_4_);fill:none;stroke:#000000;stroke-width:0;stroke-miterlimit:1;" x1="3.086" y1="29.737" x2="3.345" y2="30.772"/>
		
			<line style="clip-path:url(#SVGID_4_);fill:none;stroke:#000000;stroke-width:0;stroke-miterlimit:1;" x1="3.345" y1="30.772" x2="4.121" y2="31.29"/>
		
			<line style="clip-path:url(#SVGID_4_);fill:none;stroke:#000000;stroke-width:0;stroke-miterlimit:1;" x1="4.121" y1="31.29" x2="4.639" y2="31.29"/>
		
			<line style="clip-path:url(#SVGID_4_);fill:none;stroke:#000000;stroke-width:0;stroke-miterlimit:1;" x1="4.639" y1="31.29" x2="5.932" y2="30.772"/>
		
			<line style="clip-path:url(#SVGID_4_);fill:none;stroke:#000000;stroke-width:0;stroke-miterlimit:1;" x1="5.932" y1="30.772" x2="6.45" y2="28.443"/>
		
			<line style="clip-path:url(#SVGID_4_);fill:none;stroke:#000000;stroke-width:0;stroke-miterlimit:1;" x1="6.45" y1="28.443" x2="8.002" y2="26.115"/>
		
			<line style="clip-path:url(#SVGID_4_);fill:none;stroke:#000000;stroke-width:0;stroke-miterlimit:1;" x1="8.002" y1="26.115" x2="10.331" y2="24.044"/>
		
			<line style="clip-path:url(#SVGID_4_);fill:none;stroke:#000000;stroke-width:0;stroke-miterlimit:1;" x1="10.331" y1="24.044" x2="12.918" y2="23.269"/>
		
			<line style="clip-path:url(#SVGID_4_);fill:none;stroke:#000000;stroke-width:0;stroke-miterlimit:1;" x1="12.918" y1="23.269" x2="16.282" y2="22.233"/>
		
			<line style="clip-path:url(#SVGID_4_);fill:none;stroke:#000000;stroke-width:0;stroke-miterlimit:1;" x1="16.282" y1="22.233" x2="37.241" y2="19.387"/>
		
			<line style="clip-path:url(#SVGID_4_);fill:none;stroke:#000000;stroke-width:0;stroke-miterlimit:1;" x1="37.241" y1="19.387" x2="37.759" y2="19.128"/>
		
			<line style="clip-path:url(#SVGID_4_);fill:none;stroke:#000000;stroke-width:0;stroke-miterlimit:1;" x1="37.759" y1="19.128" x2="40.864" y2="19.646"/>
	</g>
	<g>
		<defs>
			<polygon id="SVGID_5_" points="0,201.892 271.297,201.892 271.297,0 0,0 0,201.892 			"/>
		</defs>
		<clipPath id="SVGID_6_">
			<use xlink:href="#SVGID_5_"  style="overflow:visible;"/>
		</clipPath>
		
			<line style="clip-path:url(#SVGID_6_);fill:none;stroke:#000000;stroke-width:0;stroke-miterlimit:1;" x1="37.241" y1="13.694" x2="40.864" y2="19.904"/>
		
			<line style="clip-path:url(#SVGID_6_);fill:none;stroke:#000000;stroke-width:0;stroke-miterlimit:1;" x1="40.864" y1="19.904" x2="40.864" y2="23.269"/>
	</g>
	<g>
		<defs>
			<polygon id="SVGID_7_" points="0,201.892 271.297,201.892 271.297,0 0,0 0,201.892 			"/>
		</defs>
		<clipPath id="SVGID_8_">
			<use xlink:href="#SVGID_7_"  style="overflow:visible;"/>
		</clipPath>
		
			<line style="clip-path:url(#SVGID_8_);fill:none;stroke:#000000;stroke-width:0;stroke-miterlimit:1;" x1="6.967" y1="28.185" x2="9.296" y2="26.632"/>
		
			<line style="clip-path:url(#SVGID_8_);fill:none;stroke:#000000;stroke-width:0;stroke-miterlimit:1;" x1="9.296" y1="26.632" x2="13.177" y2="25.597"/>
		
			<line style="clip-path:url(#SVGID_8_);fill:none;stroke:#000000;stroke-width:0;stroke-miterlimit:1;" x1="13.177" y1="25.597" x2="23.269" y2="24.562"/>
		
			<line style="clip-path:url(#SVGID_8_);fill:none;stroke:#000000;stroke-width:0;stroke-miterlimit:1;" x1="23.269" y1="24.562" x2="33.36" y2="23.269"/>
		
			<line style="clip-path:url(#SVGID_8_);fill:none;stroke:#000000;stroke-width:0;stroke-miterlimit:1;" x1="33.36" y1="23.269" x2="37.5" y2="23.269"/>
		
			<line style="clip-path:url(#SVGID_8_);fill:none;stroke:#000000;stroke-width:0;stroke-miterlimit:1;" x1="37.5" y1="23.269" x2="41.123" y2="23.269"/>
		
			<line style="clip-path:url(#SVGID_8_);fill:none;stroke:#000000;stroke-width:0;stroke-miterlimit:1;" x1="41.123" y1="23.269" x2="43.193" y2="23.527"/>
		
			<line style="clip-path:url(#SVGID_8_);fill:none;stroke:#000000;stroke-width:0;stroke-miterlimit:1;" x1="43.193" y1="23.527" x2="47.333" y2="24.562"/>
		
			<line style="clip-path:url(#SVGID_8_);fill:none;stroke:#000000;stroke-width:0;stroke-miterlimit:1;" x1="47.333" y1="24.562" x2="54.578" y2="25.856"/>
		
			<line style="clip-path:url(#SVGID_8_);fill:none;stroke:#000000;stroke-width:0;stroke-miterlimit:1;" x1="54.578" y1="25.856" x2="58.459" y2="26.115"/>
		
			<line style="clip-path:url(#SVGID_8_);fill:none;stroke:#000000;stroke-width:0;stroke-miterlimit:1;" x1="58.459" y1="26.115" x2="61.305" y2="25.856"/>
		
			<line style="clip-path:url(#SVGID_8_);fill:none;stroke:#000000;stroke-width:0;stroke-miterlimit:1;" x1="61.305" y1="25.856" x2="64.411" y2="25.08"/>
		
			<line style="clip-path:url(#SVGID_8_);fill:none;stroke:#000000;stroke-width:0;stroke-miterlimit:1;" x1="64.411" y1="25.08" x2="66.222" y2="26.115"/>
		
			<line style="clip-path:url(#SVGID_8_);fill:none;stroke:#000000;stroke-width:0;stroke-miterlimit:1;" x1="66.222" y1="26.115" x2="66.998" y2="27.408"/>
		
			<line style="clip-path:url(#SVGID_8_);fill:none;stroke:#000000;stroke-width:0;stroke-miterlimit:1;" x1="66.998" y1="27.408" x2="67.257" y2="30.514"/>
		
			<line style="clip-path:url(#SVGID_8_);fill:none;stroke:#000000;stroke-width:0;stroke-miterlimit:1;" x1="67.257" y1="30.514" x2="66.998" y2="33.101"/>
		
			<line style="clip-path:url(#SVGID_8_);fill:none;stroke:#000000;stroke-width:0;stroke-miterlimit:1;" x1="66.998" y1="33.101" x2="65.704" y2="36.206"/>
		
			<line style="clip-path:url(#SVGID_8_);fill:none;stroke:#000000;stroke-width:0;stroke-miterlimit:1;" x1="65.704" y1="36.206" x2="54.319" y2="51.214"/>
		
			<line style="clip-path:url(#SVGID_8_);fill:none;stroke:#000000;stroke-width:0;stroke-miterlimit:1;" x1="54.319" y1="51.214" x2="48.626" y2="60.27"/>
		
			<line style="clip-path:url(#SVGID_8_);fill:none;stroke:#000000;stroke-width:0;stroke-miterlimit:1;" x1="48.626" y1="60.27" x2="46.298" y2="64.928"/>
		
			<line style="clip-path:url(#SVGID_8_);fill:none;stroke:#000000;stroke-width:0;stroke-miterlimit:1;" x1="46.298" y1="64.928" x2="43.452" y2="70.361"/>
		
			<line style="clip-path:url(#SVGID_8_);fill:none;stroke:#000000;stroke-width:0;stroke-miterlimit:1;" x1="43.452" y1="70.361" x2="41.899" y2="77.348"/>
		
			<line style="clip-path:url(#SVGID_8_);fill:none;stroke:#000000;stroke-width:0;stroke-miterlimit:1;" x1="41.899" y1="77.348" x2="40.864" y2="84.593"/>
	</g>
	<g>
		<defs>
			<polygon id="SVGID_9_" points="0,201.892 340.643,201.892 340.643,0 0,0 0,201.892 			"/>
		</defs>
		<clipPath id="SVGID_10_">
			<use xlink:href="#SVGID_9_"  style="overflow:visible;"/>
		</clipPath>
		
			<line style="clip-path:url(#SVGID_10_);fill:none;stroke:#000000;stroke-width:0;stroke-miterlimit:1;" x1="63.117" y1="4.121" x2="76.572" y2="9.037"/>
		
			<line style="clip-path:url(#SVGID_10_);fill:none;stroke:#000000;stroke-width:0;stroke-miterlimit:1;" x1="76.572" y1="9.037" x2="89.768" y2="12.401"/>
		
			<line style="clip-path:url(#SVGID_10_);fill:none;stroke:#000000;stroke-width:0;stroke-miterlimit:1;" x1="89.768" y1="12.401" x2="95.202" y2="13.436"/>
		
			<line style="clip-path:url(#SVGID_10_);fill:none;stroke:#000000;stroke-width:0;stroke-miterlimit:1;" x1="95.202" y1="13.436" x2="99.86" y2="13.694"/>
		
			<line style="clip-path:url(#SVGID_10_);fill:none;stroke:#000000;stroke-width:0;stroke-miterlimit:1;" x1="99.86" y1="13.694" x2="105.552" y2="13.694"/>
		
			<line style="clip-path:url(#SVGID_10_);fill:none;stroke:#000000;stroke-width:0;stroke-miterlimit:1;" x1="105.552" y1="13.694" x2="111.762" y2="13.436"/>
		
			<line style="clip-path:url(#SVGID_10_);fill:none;stroke:#000000;stroke-width:0;stroke-miterlimit:1;" x1="111.762" y1="13.436" x2="116.42" y2="12.401"/>
		
			<line style="clip-path:url(#SVGID_10_);fill:none;stroke:#000000;stroke-width:0;stroke-miterlimit:1;" x1="116.42" y1="12.401" x2="121.078" y2="11.366"/>
		
			<line style="clip-path:url(#SVGID_10_);fill:none;stroke:#000000;stroke-width:0;stroke-miterlimit:1;" x1="121.078" y1="11.366" x2="121.595" y2="11.883"/>
		
			<line style="clip-path:url(#SVGID_10_);fill:none;stroke:#000000;stroke-width:0;stroke-miterlimit:1;" x1="121.595" y1="11.883" x2="121.078" y2="13.694"/>
		
			<line style="clip-path:url(#SVGID_10_);fill:none;stroke:#000000;stroke-width:0;stroke-miterlimit:1;" x1="121.078" y1="13.694" x2="119.266" y2="14.988"/>
		
			<line style="clip-path:url(#SVGID_10_);fill:none;stroke:#000000;stroke-width:0;stroke-miterlimit:1;" x1="119.266" y1="14.988" x2="113.056" y2="16.282"/>
		
			<line style="clip-path:url(#SVGID_10_);fill:none;stroke:#000000;stroke-width:0;stroke-miterlimit:1;" x1="113.056" y1="16.282" x2="106.846" y2="17.058"/>
		
			<line style="clip-path:url(#SVGID_10_);fill:none;stroke:#000000;stroke-width:0;stroke-miterlimit:1;" x1="106.846" y1="17.058" x2="99.86" y2="17.058"/>
		
			<line style="clip-path:url(#SVGID_10_);fill:none;stroke:#000000;stroke-width:0;stroke-miterlimit:1;" x1="99.86" y1="17.058" x2="93.908" y2="16.541"/>
		
			<line style="clip-path:url(#SVGID_10_);fill:none;stroke:#000000;stroke-width:0;stroke-miterlimit:1;" x1="93.908" y1="16.541" x2="83.817" y2="14.729"/>
		
			<line style="clip-path:url(#SVGID_10_);fill:none;stroke:#000000;stroke-width:0;stroke-miterlimit:1;" x1="83.817" y1="14.729" x2="78.125" y2="12.918"/>
	</g>
	<g>
		<defs>
			<polygon id="SVGID_11_" points="0,201.892 340.643,201.892 340.643,0 0,0 0,201.892 			"/>
		</defs>
		<clipPath id="SVGID_12_">
			<use xlink:href="#SVGID_11_"  style="overflow:visible;"/>
		</clipPath>
		
			<line style="clip-path:url(#SVGID_12_);fill:none;stroke:#000000;stroke-width:0;stroke-miterlimit:1;" x1="70.879" y1="9.037" x2="80.971" y2="14.471"/>
		
			<line style="clip-path:url(#SVGID_12_);fill:none;stroke:#000000;stroke-width:0;stroke-miterlimit:1;" x1="80.971" y1="14.471" x2="91.062" y2="19.646"/>
		
			<line style="clip-path:url(#SVGID_12_);fill:none;stroke:#000000;stroke-width:0;stroke-miterlimit:1;" x1="91.062" y1="19.646" x2="97.272" y2="22.751"/>
		
			<line style="clip-path:url(#SVGID_12_);fill:none;stroke:#000000;stroke-width:0;stroke-miterlimit:1;" x1="97.272" y1="22.751" x2="101.93" y2="24.562"/>
		
			<line style="clip-path:url(#SVGID_12_);fill:none;stroke:#000000;stroke-width:0;stroke-miterlimit:1;" x1="101.93" y1="24.562" x2="107.105" y2="25.856"/>
		
			<line style="clip-path:url(#SVGID_12_);fill:none;stroke:#000000;stroke-width:0;stroke-miterlimit:1;" x1="107.105" y1="25.856" x2="110.727" y2="26.374"/>
		
			<line style="clip-path:url(#SVGID_12_);fill:none;stroke:#000000;stroke-width:0;stroke-miterlimit:1;" x1="110.727" y1="26.374" x2="117.455" y2="27.149"/>
		
			<line style="clip-path:url(#SVGID_12_);fill:none;stroke:#000000;stroke-width:0;stroke-miterlimit:1;" x1="117.455" y1="27.149" x2="120.301" y2="26.632"/>
		
			<line style="clip-path:url(#SVGID_12_);fill:none;stroke:#000000;stroke-width:0;stroke-miterlimit:1;" x1="120.301" y1="26.632" x2="121.595" y2="26.374"/>
		
			<line style="clip-path:url(#SVGID_12_);fill:none;stroke:#000000;stroke-width:0;stroke-miterlimit:1;" x1="121.595" y1="26.374" x2="122.63" y2="27.149"/>
		
			<line style="clip-path:url(#SVGID_12_);fill:none;stroke:#000000;stroke-width:0;stroke-miterlimit:1;" x1="122.63" y1="27.149" x2="122.889" y2="28.702"/>
		
			<line style="clip-path:url(#SVGID_12_);fill:none;stroke:#000000;stroke-width:0;stroke-miterlimit:1;" x1="122.889" y1="28.702" x2="119.007" y2="29.996"/>
		
			<line style="clip-path:url(#SVGID_12_);fill:none;stroke:#000000;stroke-width:0;stroke-miterlimit:1;" x1="119.007" y1="29.996" x2="114.35" y2="30.514"/>
		
			<line style="clip-path:url(#SVGID_12_);fill:none;stroke:#000000;stroke-width:0;stroke-miterlimit:1;" x1="114.35" y1="30.514" x2="109.175" y2="29.737"/>
		
			<line style="clip-path:url(#SVGID_12_);fill:none;stroke:#000000;stroke-width:0;stroke-miterlimit:1;" x1="109.175" y1="29.737" x2="101.93" y2="28.185"/>
		
			<line style="clip-path:url(#SVGID_12_);fill:none;stroke:#000000;stroke-width:0;stroke-miterlimit:1;" x1="101.93" y1="28.185" x2="95.72" y2="26.115"/>
		
			<line style="clip-path:url(#SVGID_12_);fill:none;stroke:#000000;stroke-width:0;stroke-miterlimit:1;" x1="95.72" y1="26.115" x2="89.768" y2="23.269"/>
		
			<line style="clip-path:url(#SVGID_12_);fill:none;stroke:#000000;stroke-width:0;stroke-miterlimit:1;" x1="89.768" y1="23.269" x2="75.278" y2="14.988"/>
	</g>
	<g>
		<defs>
			<polygon id="SVGID_13_" points="0,201.892 340.643,201.892 340.643,0 0,0 0,201.892 			"/>
		</defs>
		<clipPath id="SVGID_14_">
			<use xlink:href="#SVGID_13_"  style="overflow:visible;"/>
		</clipPath>
		
			<line style="clip-path:url(#SVGID_14_);fill:none;stroke:#000000;stroke-width:0;stroke-miterlimit:1;" x1="49.144" y1="10.589" x2="47.591" y2="10.848"/>
		
			<line style="clip-path:url(#SVGID_14_);fill:none;stroke:#000000;stroke-width:0;stroke-miterlimit:1;" x1="47.591" y1="10.848" x2="46.298" y2="12.401"/>
		
			<line style="clip-path:url(#SVGID_14_);fill:none;stroke:#000000;stroke-width:0;stroke-miterlimit:1;" x1="46.298" y1="12.401" x2="46.298" y2="14.212"/>
		
			<line style="clip-path:url(#SVGID_14_);fill:none;stroke:#000000;stroke-width:0;stroke-miterlimit:1;" x1="46.298" y1="14.212" x2="47.591" y2="15.506"/>
		
			<line style="clip-path:url(#SVGID_14_);fill:none;stroke:#000000;stroke-width:0;stroke-miterlimit:1;" x1="47.591" y1="15.506" x2="49.403" y2="15.506"/>
		
			<line style="clip-path:url(#SVGID_14_);fill:none;stroke:#000000;stroke-width:0;stroke-miterlimit:1;" x1="49.403" y1="15.506" x2="51.214" y2="14.729"/>
		
			<line style="clip-path:url(#SVGID_14_);fill:none;stroke:#000000;stroke-width:0;stroke-miterlimit:1;" x1="51.214" y1="14.729" x2="51.473" y2="13.694"/>
		
			<line style="clip-path:url(#SVGID_14_);fill:none;stroke:#000000;stroke-width:0;stroke-miterlimit:1;" x1="51.473" y1="13.694" x2="50.955" y2="12.142"/>
		
			<line style="clip-path:url(#SVGID_14_);fill:none;stroke:#000000;stroke-width:0;stroke-miterlimit:1;" x1="50.955" y1="12.142" x2="49.662" y2="10.589"/>
	</g>
	<g>
		<defs>
			<polygon id="SVGID_15_" points="0,201.892 340.643,201.892 340.643,0 0,0 0,201.892 			"/>
		</defs>
		<clipPath id="SVGID_16_">
			<use xlink:href="#SVGID_15_"  style="overflow:visible;"/>
		</clipPath>
		
			<line style="clip-path:url(#SVGID_16_);fill:none;stroke:#000000;stroke-width:0;stroke-miterlimit:1;" x1="49.364" y1="155.052" x2="83.001" y2="122.708"/>
	</g>
	<g>
		<defs>
			<polygon id="SVGID_17_" points="0,375.413 340.643,375.413 340.643,0 0,0 0,375.413 			"/>
		</defs>
		<clipPath id="SVGID_18_">
			<use xlink:href="#SVGID_17_"  style="overflow:visible;"/>
		</clipPath>
		
			<line style="clip-path:url(#SVGID_18_);fill:none;stroke:#000000;stroke-width:0;stroke-miterlimit:1;" x1="37.202" y1="150.395" x2="78.603" y2="110.806"/>
	</g>
	<g>
		<defs>
			<polygon id="SVGID_19_" points="0,375.413 340.643,375.413 340.643,0 0,0 0,375.413 			"/>
		</defs>
		<clipPath id="SVGID_20_">
			<use xlink:href="#SVGID_19_"  style="overflow:visible;"/>
		</clipPath>
		
			<line style="clip-path:url(#SVGID_20_);fill:none;stroke:#000000;stroke-width:0;stroke-miterlimit:1;" x1="29.181" y1="141.855" x2="70.582" y2="102.267"/>
	</g>
	<g>
		<defs>
			<polygon id="SVGID_21_" points="0,375.413 340.643,375.413 340.643,0 0,0 0,375.413 			"/>
		</defs>
		<clipPath id="SVGID_22_">
			<use xlink:href="#SVGID_21_"  style="overflow:visible;"/>
		</clipPath>
		
			<line style="clip-path:url(#SVGID_22_);fill:none;stroke:#000000;stroke-width:0;stroke-miterlimit:1;" x1="25.041" y1="129.694" x2="58.161" y2="98.126"/>
	</g>
	<g>
		<defs>
			<polygon id="SVGID_23_" points="0,375.413 340.643,375.413 340.643,0 0,0 0,375.413 			"/>
		</defs>
		<clipPath id="SVGID_24_">
			<use xlink:href="#SVGID_23_"  style="overflow:visible;"/>
		</clipPath>
		
			<line style="clip-path:url(#SVGID_24_);fill:none;stroke:#000000;stroke-width:0;stroke-miterlimit:1;" x1="66.183" y1="99.938" x2="63.336" y2="99.161"/>
		
			<line style="clip-path:url(#SVGID_24_);fill:none;stroke:#000000;stroke-width:0;stroke-miterlimit:1;" x1="63.336" y1="99.161" x2="60.49" y2="98.126"/>
		
			<line style="clip-path:url(#SVGID_24_);fill:none;stroke:#000000;stroke-width:0;stroke-miterlimit:1;" x1="60.49" y1="98.126" x2="57.385" y2="97.609"/>
		
			<line style="clip-path:url(#SVGID_24_);fill:none;stroke:#000000;stroke-width:0;stroke-miterlimit:1;" x1="57.385" y1="97.609" x2="54.28" y2="97.609"/>
		
			<line style="clip-path:url(#SVGID_24_);fill:none;stroke:#000000;stroke-width:0;stroke-miterlimit:1;" x1="54.28" y1="97.609" x2="50.916" y2="97.868"/>
		
			<line style="clip-path:url(#SVGID_24_);fill:none;stroke:#000000;stroke-width:0;stroke-miterlimit:1;" x1="50.916" y1="97.868" x2="48.07" y2="98.126"/>
		
			<line style="clip-path:url(#SVGID_24_);fill:none;stroke:#000000;stroke-width:0;stroke-miterlimit:1;" x1="48.07" y1="98.126" x2="44.965" y2="99.161"/>
		
			<line style="clip-path:url(#SVGID_24_);fill:none;stroke:#000000;stroke-width:0;stroke-miterlimit:1;" x1="44.965" y1="99.161" x2="42.119" y2="100.196"/>
		
			<line style="clip-path:url(#SVGID_24_);fill:none;stroke:#000000;stroke-width:0;stroke-miterlimit:1;" x1="42.119" y1="100.196" x2="39.272" y2="101.49"/>
		
			<line style="clip-path:url(#SVGID_24_);fill:none;stroke:#000000;stroke-width:0;stroke-miterlimit:1;" x1="39.272" y1="101.49" x2="36.685" y2="103.302"/>
		
			<line style="clip-path:url(#SVGID_24_);fill:none;stroke:#000000;stroke-width:0;stroke-miterlimit:1;" x1="36.685" y1="103.302" x2="34.615" y2="105.112"/>
		
			<line style="clip-path:url(#SVGID_24_);fill:none;stroke:#000000;stroke-width:0;stroke-miterlimit:1;" x1="34.615" y1="105.112" x2="32.544" y2="107.183"/>
		
			<line style="clip-path:url(#SVGID_24_);fill:none;stroke:#000000;stroke-width:0;stroke-miterlimit:1;" x1="32.544" y1="107.183" x2="30.992" y2="108.994"/>
		
			<line style="clip-path:url(#SVGID_24_);fill:none;stroke:#000000;stroke-width:0;stroke-miterlimit:1;" x1="30.992" y1="108.994" x2="29.439" y2="111.323"/>
		
			<line style="clip-path:url(#SVGID_24_);fill:none;stroke:#000000;stroke-width:0;stroke-miterlimit:1;" x1="29.439" y1="111.323" x2="27.628" y2="114.687"/>
		
			<line style="clip-path:url(#SVGID_24_);fill:none;stroke:#000000;stroke-width:0;stroke-miterlimit:1;" x1="27.628" y1="114.687" x2="26.852" y2="117.274"/>
		
			<line style="clip-path:url(#SVGID_24_);fill:none;stroke:#000000;stroke-width:0;stroke-miterlimit:1;" x1="26.852" y1="117.274" x2="26.076" y2="120.12"/>
		
			<line style="clip-path:url(#SVGID_24_);fill:none;stroke:#000000;stroke-width:0;stroke-miterlimit:1;" x1="26.076" y1="120.12" x2="25.558" y2="122.967"/>
		
			<line style="clip-path:url(#SVGID_24_);fill:none;stroke:#000000;stroke-width:0;stroke-miterlimit:1;" x1="25.558" y1="122.967" x2="25.041" y2="126.331"/>
		
			<line style="clip-path:url(#SVGID_24_);fill:none;stroke:#000000;stroke-width:0;stroke-miterlimit:1;" x1="25.041" y1="126.331" x2="25.041" y2="129.177"/>
		
			<line style="clip-path:url(#SVGID_24_);fill:none;stroke:#000000;stroke-width:0;stroke-miterlimit:1;" x1="25.041" y1="129.177" x2="25.558" y2="132.541"/>
		
			<line style="clip-path:url(#SVGID_24_);fill:none;stroke:#000000;stroke-width:0;stroke-miterlimit:1;" x1="25.558" y1="132.541" x2="26.334" y2="135.387"/>
		
			<line style="clip-path:url(#SVGID_24_);fill:none;stroke:#000000;stroke-width:0;stroke-miterlimit:1;" x1="26.334" y1="135.387" x2="27.111" y2="137.975"/>
		
			<line style="clip-path:url(#SVGID_24_);fill:none;stroke:#000000;stroke-width:0;stroke-miterlimit:1;" x1="27.111" y1="137.975" x2="28.405" y2="140.82"/>
		
			<line style="clip-path:url(#SVGID_24_);fill:none;stroke:#000000;stroke-width:0;stroke-miterlimit:1;" x1="28.405" y1="140.82" x2="29.181" y2="142.373"/>
		
			<line style="clip-path:url(#SVGID_24_);fill:none;stroke:#000000;stroke-width:0;stroke-miterlimit:1;" x1="29.181" y1="142.373" x2="30.216" y2="143.667"/>
		
			<line style="clip-path:url(#SVGID_24_);fill:none;stroke:#000000;stroke-width:0;stroke-miterlimit:1;" x1="30.216" y1="143.667" x2="32.803" y2="146.514"/>
		
			<line style="clip-path:url(#SVGID_24_);fill:none;stroke:#000000;stroke-width:0;stroke-miterlimit:1;" x1="32.803" y1="146.514" x2="35.391" y2="149.101"/>
		
			<line style="clip-path:url(#SVGID_24_);fill:none;stroke:#000000;stroke-width:0;stroke-miterlimit:1;" x1="35.391" y1="149.101" x2="37.72" y2="150.912"/>
		
			<line style="clip-path:url(#SVGID_24_);fill:none;stroke:#000000;stroke-width:0;stroke-miterlimit:1;" x1="37.72" y1="150.912" x2="40.566" y2="152.465"/>
		
			<line style="clip-path:url(#SVGID_24_);fill:none;stroke:#000000;stroke-width:0;stroke-miterlimit:1;" x1="40.566" y1="152.465" x2="43.671" y2="154.018"/>
		
			<line style="clip-path:url(#SVGID_24_);fill:none;stroke:#000000;stroke-width:0;stroke-miterlimit:1;" x1="43.671" y1="154.018" x2="46.776" y2="154.794"/>
		
			<line style="clip-path:url(#SVGID_24_);fill:none;stroke:#000000;stroke-width:0;stroke-miterlimit:1;" x1="46.776" y1="154.794" x2="49.364" y2="155.569"/>
		
			<line style="clip-path:url(#SVGID_24_);fill:none;stroke:#000000;stroke-width:0;stroke-miterlimit:1;" x1="49.364" y1="155.569" x2="52.469" y2="155.569"/>
		
			<line style="clip-path:url(#SVGID_24_);fill:none;stroke:#000000;stroke-width:0;stroke-miterlimit:1;" x1="52.469" y1="155.569" x2="55.574" y2="155.828"/>
		
			<line style="clip-path:url(#SVGID_24_);fill:none;stroke:#000000;stroke-width:0;stroke-miterlimit:1;" x1="55.574" y1="155.828" x2="59.196" y2="155.311"/>
		
			<line style="clip-path:url(#SVGID_24_);fill:none;stroke:#000000;stroke-width:0;stroke-miterlimit:1;" x1="59.196" y1="155.311" x2="61.784" y2="154.794"/>
		
			<line style="clip-path:url(#SVGID_24_);fill:none;stroke:#000000;stroke-width:0;stroke-miterlimit:1;" x1="61.784" y1="154.794" x2="64.889" y2="153.5"/>
		
			<line style="clip-path:url(#SVGID_24_);fill:none;stroke:#000000;stroke-width:0;stroke-miterlimit:1;" x1="64.889" y1="153.5" x2="67.994" y2="151.947"/>
		
			<line style="clip-path:url(#SVGID_24_);fill:none;stroke:#000000;stroke-width:0;stroke-miterlimit:1;" x1="67.994" y1="151.947" x2="70.064" y2="150.912"/>
		
			<line style="clip-path:url(#SVGID_24_);fill:none;stroke:#000000;stroke-width:0;stroke-miterlimit:1;" x1="70.064" y1="150.912" x2="72.393" y2="148.842"/>
		
			<line style="clip-path:url(#SVGID_24_);fill:none;stroke:#000000;stroke-width:0;stroke-miterlimit:1;" x1="72.393" y1="148.842" x2="74.721" y2="146.772"/>
		
			<line style="clip-path:url(#SVGID_24_);fill:none;stroke:#000000;stroke-width:0;stroke-miterlimit:1;" x1="74.721" y1="146.772" x2="77.05" y2="144.443"/>
		
			<line style="clip-path:url(#SVGID_24_);fill:none;stroke:#000000;stroke-width:0;stroke-miterlimit:1;" x1="77.05" y1="144.443" x2="78.861" y2="141.597"/>
		
			<line style="clip-path:url(#SVGID_24_);fill:none;stroke:#000000;stroke-width:0;stroke-miterlimit:1;" x1="78.861" y1="141.597" x2="80.673" y2="139.01"/>
		
			<line style="clip-path:url(#SVGID_24_);fill:none;stroke:#000000;stroke-width:0;stroke-miterlimit:1;" x1="80.673" y1="139.01" x2="81.966" y2="136.422"/>
		
			<line style="clip-path:url(#SVGID_24_);fill:none;stroke:#000000;stroke-width:0;stroke-miterlimit:1;" x1="81.966" y1="136.422" x2="82.743" y2="133.317"/>
		
			<line style="clip-path:url(#SVGID_24_);fill:none;stroke:#000000;stroke-width:0;stroke-miterlimit:1;" x1="82.743" y1="133.317" x2="83.001" y2="130.471"/>
		
			<line style="clip-path:url(#SVGID_24_);fill:none;stroke:#000000;stroke-width:0;stroke-miterlimit:1;" x1="83.001" y1="130.471" x2="83.519" y2="127.106"/>
		
			<line style="clip-path:url(#SVGID_24_);fill:none;stroke:#000000;stroke-width:0;stroke-miterlimit:1;" x1="83.519" y1="127.106" x2="83.26" y2="124.261"/>
		
			<line style="clip-path:url(#SVGID_24_);fill:none;stroke:#000000;stroke-width:0;stroke-miterlimit:1;" x1="83.26" y1="124.261" x2="83.001" y2="120.896"/>
		
			<line style="clip-path:url(#SVGID_24_);fill:none;stroke:#000000;stroke-width:0;stroke-miterlimit:1;" x1="83.001" y1="120.896" x2="82.225" y2="118.051"/>
		
			<line style="clip-path:url(#SVGID_24_);fill:none;stroke:#000000;stroke-width:0;stroke-miterlimit:1;" x1="82.225" y1="118.051" x2="81.19" y2="115.463"/>
		
			<line style="clip-path:url(#SVGID_24_);fill:none;stroke:#000000;stroke-width:0;stroke-miterlimit:1;" x1="81.19" y1="115.463" x2="79.896" y2="112.1"/>
		
			<line style="clip-path:url(#SVGID_24_);fill:none;stroke:#000000;stroke-width:0;stroke-miterlimit:1;" x1="79.896" y1="112.1" x2="78.085" y2="109.512"/>
		
			<line style="clip-path:url(#SVGID_24_);fill:none;stroke:#000000;stroke-width:0;stroke-miterlimit:1;" x1="78.085" y1="109.512" x2="76.274" y2="107.441"/>
		
			<line style="clip-path:url(#SVGID_24_);fill:none;stroke:#000000;stroke-width:0;stroke-miterlimit:1;" x1="76.274" y1="107.441" x2="74.204" y2="104.854"/>
		
			<line style="clip-path:url(#SVGID_24_);fill:none;stroke:#000000;stroke-width:0;stroke-miterlimit:1;" x1="74.204" y1="104.854" x2="71.616" y2="103.043"/>
		
			<line style="clip-path:url(#SVGID_24_);fill:none;stroke:#000000;stroke-width:0;stroke-miterlimit:1;" x1="71.616" y1="103.043" x2="69.029" y2="101.231"/>
		
			<line style="clip-path:url(#SVGID_24_);fill:none;stroke:#000000;stroke-width:0;stroke-miterlimit:1;" x1="69.029" y1="101.231" x2="66.183" y2="99.938"/>
	</g>
	<g>
		<defs>
			<polygon id="SVGID_25_" points="0,375.413 340.643,375.413 340.643,0 0,0 0,375.413 			"/>
		</defs>
		<clipPath id="SVGID_26_">
			<use xlink:href="#SVGID_25_"  style="overflow:visible;"/>
		</clipPath>
		
			<line style="clip-path:url(#SVGID_26_);fill:none;stroke:#000000;stroke-width:0;stroke-miterlimit:1;" x1="131.658" y1="105.795" x2="131.658" y2="155.726"/>
		
			<line style="clip-path:url(#SVGID_26_);fill:none;stroke:#000000;stroke-width:0;stroke-miterlimit:1;" x1="131.658" y1="155.726" x2="140.534" y2="155.726"/>
		
			<line style="clip-path:url(#SVGID_26_);fill:none;stroke:#000000;stroke-width:0;stroke-miterlimit:1;" x1="140.534" y1="155.726" x2="140.534" y2="105.795"/>
		
			<line style="clip-path:url(#SVGID_26_);fill:none;stroke:#000000;stroke-width:0;stroke-miterlimit:1;" x1="140.534" y1="105.795" x2="131.658" y2="105.795"/>
	</g>
	<g>
		<defs>
			<polygon id="SVGID_27_" points="0,375.413 340.643,375.413 340.643,0 0,0 0,375.413 			"/>
		</defs>
		<clipPath id="SVGID_28_">
			<use xlink:href="#SVGID_27_"  style="overflow:visible;"/>
		</clipPath>
		
			<line style="clip-path:url(#SVGID_28_);fill:none;stroke:#000000;stroke-width:0;stroke-miterlimit:1;" x1="176.041" y1="105.795" x2="176.041" y2="155.726"/>
		
			<line style="clip-path:url(#SVGID_28_);fill:none;stroke:#000000;stroke-width:0;stroke-miterlimit:1;" x1="176.041" y1="155.726" x2="185.193" y2="155.726"/>
		
			<line style="clip-path:url(#SVGID_28_);fill:none;stroke:#000000;stroke-width:0;stroke-miterlimit:1;" x1="185.193" y1="155.726" x2="185.193" y2="105.795"/>
		
			<line style="clip-path:url(#SVGID_28_);fill:none;stroke:#000000;stroke-width:0;stroke-miterlimit:1;" x1="185.193" y1="105.795" x2="176.041" y2="105.795"/>
	</g>
	<g>
		<defs>
			<polygon id="SVGID_29_" points="0,375.413 340.643,375.413 340.643,0 0,0 0,375.413 			"/>
		</defs>
		<clipPath id="SVGID_30_">
			<use xlink:href="#SVGID_29_"  style="overflow:visible;"/>
		</clipPath>
		
			<line style="clip-path:url(#SVGID_30_);fill:none;stroke:#000000;stroke-width:0;stroke-miterlimit:1;" x1="220.979" y1="105.795" x2="220.979" y2="155.726"/>
		
			<line style="clip-path:url(#SVGID_30_);fill:none;stroke:#000000;stroke-width:0;stroke-miterlimit:1;" x1="220.979" y1="155.726" x2="229.855" y2="155.726"/>
		
			<line style="clip-path:url(#SVGID_30_);fill:none;stroke:#000000;stroke-width:0;stroke-miterlimit:1;" x1="229.855" y1="155.726" x2="229.855" y2="105.795"/>
		
			<line style="clip-path:url(#SVGID_30_);fill:none;stroke:#000000;stroke-width:0;stroke-miterlimit:1;" x1="229.855" y1="105.795" x2="220.979" y2="105.795"/>
	</g>
	<g>
		<defs>
			<polygon id="SVGID_31_" points="0,375.413 340.643,375.413 340.643,0 0,0 0,375.413 			"/>
		</defs>
		<clipPath id="SVGID_32_">
			<use xlink:href="#SVGID_31_"  style="overflow:visible;"/>
		</clipPath>
		
			<line style="clip-path:url(#SVGID_32_);fill:none;stroke:#000000;stroke-width:0;stroke-miterlimit:1;" x1="217.473" y1="88.42" x2="213.867" y2="88.143"/>
		
			<line style="clip-path:url(#SVGID_32_);fill:none;stroke:#000000;stroke-width:0;stroke-miterlimit:1;" x1="213.867" y1="88.143" x2="209.982" y2="87.311"/>
		
			<line style="clip-path:url(#SVGID_32_);fill:none;stroke:#000000;stroke-width:0;stroke-miterlimit:1;" x1="209.982" y1="87.311" x2="206.932" y2="85.646"/>
		
			<line style="clip-path:url(#SVGID_32_);fill:none;stroke:#000000;stroke-width:0;stroke-miterlimit:1;" x1="206.932" y1="85.646" x2="204.436" y2="83.981"/>
		
			<line style="clip-path:url(#SVGID_32_);fill:none;stroke:#000000;stroke-width:0;stroke-miterlimit:1;" x1="204.436" y1="83.981" x2="199.996" y2="79.266"/>
		
			<line style="clip-path:url(#SVGID_32_);fill:none;stroke:#000000;stroke-width:0;stroke-miterlimit:1;" x1="199.996" y1="79.266" x2="195.836" y2="74.55"/>
		
			<line style="clip-path:url(#SVGID_32_);fill:none;stroke:#000000;stroke-width:0;stroke-miterlimit:1;" x1="195.836" y1="74.55" x2="191.953" y2="69.28"/>
		
			<line style="clip-path:url(#SVGID_32_);fill:none;stroke:#000000;stroke-width:0;stroke-miterlimit:1;" x1="191.953" y1="69.28" x2="190.012" y2="65.119"/>
		
			<line style="clip-path:url(#SVGID_32_);fill:none;stroke:#000000;stroke-width:0;stroke-miterlimit:1;" x1="190.012" y1="65.119" x2="188.623" y2="61.79"/>
		
			<line style="clip-path:url(#SVGID_32_);fill:none;stroke:#000000;stroke-width:0;stroke-miterlimit:1;" x1="188.623" y1="61.79" x2="186.682" y2="55.688"/>
		
			<line style="clip-path:url(#SVGID_32_);fill:none;stroke:#000000;stroke-width:0;stroke-miterlimit:1;" x1="186.682" y1="55.688" x2="186.127" y2="48.475"/>
		
			<line style="clip-path:url(#SVGID_32_);fill:none;stroke:#000000;stroke-width:0;stroke-miterlimit:1;" x1="186.127" y1="48.475" x2="186.682" y2="45.146"/>
		
			<line style="clip-path:url(#SVGID_32_);fill:none;stroke:#000000;stroke-width:0;stroke-miterlimit:1;" x1="186.682" y1="45.146" x2="188.623" y2="41.263"/>
		
			<line style="clip-path:url(#SVGID_32_);fill:none;stroke:#000000;stroke-width:0;stroke-miterlimit:1;" x1="188.623" y1="41.263" x2="191.953" y2="37.102"/>
		
			<line style="clip-path:url(#SVGID_32_);fill:none;stroke:#000000;stroke-width:0;stroke-miterlimit:1;" x1="191.953" y1="37.102" x2="186.682" y2="35.438"/>
		
			<line style="clip-path:url(#SVGID_32_);fill:none;stroke:#000000;stroke-width:0;stroke-miterlimit:1;" x1="186.682" y1="35.438" x2="182.799" y2="32.386"/>
		
			<line style="clip-path:url(#SVGID_32_);fill:none;stroke:#000000;stroke-width:0;stroke-miterlimit:1;" x1="182.799" y1="32.386" x2="176.418" y2="23.787"/>
		
			<line style="clip-path:url(#SVGID_32_);fill:none;stroke:#000000;stroke-width:0;stroke-miterlimit:1;" x1="176.418" y1="23.787" x2="180.857" y2="36.825"/>
		
			<line style="clip-path:url(#SVGID_32_);fill:none;stroke:#000000;stroke-width:0;stroke-miterlimit:1;" x1="180.857" y1="36.825" x2="183.908" y2="47.643"/>
		
			<line style="clip-path:url(#SVGID_32_);fill:none;stroke:#000000;stroke-width:0;stroke-miterlimit:1;" x1="183.908" y1="47.643" x2="184.463" y2="53.191"/>
		
			<line style="clip-path:url(#SVGID_32_);fill:none;stroke:#000000;stroke-width:0;stroke-miterlimit:1;" x1="184.463" y1="53.191" x2="185.295" y2="57.629"/>
		
			<line style="clip-path:url(#SVGID_32_);fill:none;stroke:#000000;stroke-width:0;stroke-miterlimit:1;" x1="185.295" y1="57.629" x2="186.682" y2="62.067"/>
		
			<line style="clip-path:url(#SVGID_32_);fill:none;stroke:#000000;stroke-width:0;stroke-miterlimit:1;" x1="186.682" y1="62.067" x2="188.068" y2="65.951"/>
		
			<line style="clip-path:url(#SVGID_32_);fill:none;stroke:#000000;stroke-width:0;stroke-miterlimit:1;" x1="188.068" y1="65.951" x2="190.289" y2="69.557"/>
		
			<line style="clip-path:url(#SVGID_32_);fill:none;stroke:#000000;stroke-width:0;stroke-miterlimit:1;" x1="190.289" y1="69.557" x2="192.508" y2="73.44"/>
		
			<line style="clip-path:url(#SVGID_32_);fill:none;stroke:#000000;stroke-width:0;stroke-miterlimit:1;" x1="192.508" y1="73.44" x2="195.281" y2="76.492"/>
		
			<line style="clip-path:url(#SVGID_32_);fill:none;stroke:#000000;stroke-width:0;stroke-miterlimit:1;" x1="195.281" y1="76.492" x2="198.332" y2="79.821"/>
		
			<line style="clip-path:url(#SVGID_32_);fill:none;stroke:#000000;stroke-width:0;stroke-miterlimit:1;" x1="198.332" y1="79.821" x2="200.83" y2="82.595"/>
		
			<line style="clip-path:url(#SVGID_32_);fill:none;stroke:#000000;stroke-width:0;stroke-miterlimit:1;" x1="200.83" y1="82.595" x2="202.771" y2="84.536"/>
		
			<line style="clip-path:url(#SVGID_32_);fill:none;stroke:#000000;stroke-width:0;stroke-miterlimit:1;" x1="202.771" y1="84.536" x2="204.158" y2="85.646"/>
		
			<line style="clip-path:url(#SVGID_32_);fill:none;stroke:#000000;stroke-width:0;stroke-miterlimit:1;" x1="204.158" y1="85.646" x2="198.332" y2="83.704"/>
		
			<line style="clip-path:url(#SVGID_32_);fill:none;stroke:#000000;stroke-width:0;stroke-miterlimit:1;" x1="198.332" y1="83.704" x2="192.23" y2="81.485"/>
		
			<line style="clip-path:url(#SVGID_32_);fill:none;stroke:#000000;stroke-width:0;stroke-miterlimit:1;" x1="192.23" y1="81.485" x2="186.682" y2="78.711"/>
		
			<line style="clip-path:url(#SVGID_32_);fill:none;stroke:#000000;stroke-width:0;stroke-miterlimit:1;" x1="186.682" y1="78.711" x2="180.857" y2="72.886"/>
		
			<line style="clip-path:url(#SVGID_32_);fill:none;stroke:#000000;stroke-width:0;stroke-miterlimit:1;" x1="180.857" y1="72.886" x2="177.527" y2="68.17"/>
		
			<line style="clip-path:url(#SVGID_32_);fill:none;stroke:#000000;stroke-width:0;stroke-miterlimit:1;" x1="177.527" y1="68.17" x2="175.031" y2="64.009"/>
		
			<line style="clip-path:url(#SVGID_32_);fill:none;stroke:#000000;stroke-width:0;stroke-miterlimit:1;" x1="175.031" y1="64.009" x2="172.535" y2="58.461"/>
		
			<line style="clip-path:url(#SVGID_32_);fill:none;stroke:#000000;stroke-width:0;stroke-miterlimit:1;" x1="172.535" y1="58.461" x2="170.316" y2="52.082"/>
		
			<line style="clip-path:url(#SVGID_32_);fill:none;stroke:#000000;stroke-width:0;stroke-miterlimit:1;" x1="170.316" y1="52.082" x2="168.652" y2="45.979"/>
		
			<line style="clip-path:url(#SVGID_32_);fill:none;stroke:#000000;stroke-width:0;stroke-miterlimit:1;" x1="168.652" y1="45.979" x2="167.82" y2="40.153"/>
		
			<line style="clip-path:url(#SVGID_32_);fill:none;stroke:#000000;stroke-width:0;stroke-miterlimit:1;" x1="167.82" y1="40.153" x2="167.264" y2="35.438"/>
		
			<line style="clip-path:url(#SVGID_32_);fill:none;stroke:#000000;stroke-width:0;stroke-miterlimit:1;" x1="167.264" y1="35.438" x2="167.82" y2="30.445"/>
		
			<line style="clip-path:url(#SVGID_32_);fill:none;stroke:#000000;stroke-width:0;stroke-miterlimit:1;" x1="167.82" y1="30.445" x2="169.207" y2="26.561"/>
		
			<line style="clip-path:url(#SVGID_32_);fill:none;stroke:#000000;stroke-width:0;stroke-miterlimit:1;" x1="169.207" y1="26.561" x2="173.922" y2="20.181"/>
		
			<line style="clip-path:url(#SVGID_32_);fill:none;stroke:#000000;stroke-width:0;stroke-miterlimit:1;" x1="173.922" y1="20.181" x2="176.418" y2="17.407"/>
		
			<line style="clip-path:url(#SVGID_32_);fill:none;stroke:#000000;stroke-width:0;stroke-miterlimit:1;" x1="176.418" y1="17.407" x2="170.039" y2="14.633"/>
		
			<line style="clip-path:url(#SVGID_32_);fill:none;stroke:#000000;stroke-width:0;stroke-miterlimit:1;" x1="170.039" y1="14.633" x2="165.045" y2="10.75"/>
		
			<line style="clip-path:url(#SVGID_32_);fill:none;stroke:#000000;stroke-width:0;stroke-miterlimit:1;" x1="165.045" y1="10.75" x2="159.498" y2="2.983"/>
		
			<line style="clip-path:url(#SVGID_32_);fill:none;stroke:#000000;stroke-width:0;stroke-miterlimit:1;" x1="159.498" y1="2.983" x2="162.827" y2="14.633"/>
		
			<line style="clip-path:url(#SVGID_32_);fill:none;stroke:#000000;stroke-width:0;stroke-miterlimit:1;" x1="162.827" y1="14.633" x2="166.155" y2="26.006"/>
		
			<line style="clip-path:url(#SVGID_32_);fill:none;stroke:#000000;stroke-width:0;stroke-miterlimit:1;" x1="166.155" y1="26.006" x2="165.6" y2="33.773"/>
		
			<line style="clip-path:url(#SVGID_32_);fill:none;stroke:#000000;stroke-width:0;stroke-miterlimit:1;" x1="165.6" y1="33.773" x2="165.877" y2="39.599"/>
		
			<line style="clip-path:url(#SVGID_32_);fill:none;stroke:#000000;stroke-width:0;stroke-miterlimit:1;" x1="165.877" y1="39.599" x2="166.987" y2="45.424"/>
		
			<line style="clip-path:url(#SVGID_32_);fill:none;stroke:#000000;stroke-width:0;stroke-miterlimit:1;" x1="166.987" y1="45.424" x2="167.82" y2="50.694"/>
		
			<line style="clip-path:url(#SVGID_32_);fill:none;stroke:#000000;stroke-width:0;stroke-miterlimit:1;" x1="167.82" y1="50.694" x2="169.484" y2="55.41"/>
		
			<line style="clip-path:url(#SVGID_32_);fill:none;stroke:#000000;stroke-width:0;stroke-miterlimit:1;" x1="169.484" y1="55.41" x2="171.148" y2="59.571"/>
		
			<line style="clip-path:url(#SVGID_32_);fill:none;stroke:#000000;stroke-width:0;stroke-miterlimit:1;" x1="171.148" y1="59.571" x2="173.09" y2="63.732"/>
		
			<line style="clip-path:url(#SVGID_32_);fill:none;stroke:#000000;stroke-width:0;stroke-miterlimit:1;" x1="173.09" y1="63.732" x2="175.863" y2="69.002"/>
		
			<line style="clip-path:url(#SVGID_32_);fill:none;stroke:#000000;stroke-width:0;stroke-miterlimit:1;" x1="175.863" y1="69.002" x2="182.799" y2="77.602"/>
		
			<line style="clip-path:url(#SVGID_32_);fill:none;stroke:#000000;stroke-width:0;stroke-miterlimit:1;" x1="182.799" y1="77.602" x2="177.25" y2="74.55"/>
		
			<line style="clip-path:url(#SVGID_32_);fill:none;stroke:#000000;stroke-width:0;stroke-miterlimit:1;" x1="177.25" y1="74.55" x2="171.98" y2="71.222"/>
		
			<line style="clip-path:url(#SVGID_32_);fill:none;stroke:#000000;stroke-width:0;stroke-miterlimit:1;" x1="171.98" y1="71.222" x2="166.155" y2="66.229"/>
		
			<line style="clip-path:url(#SVGID_32_);fill:none;stroke:#000000;stroke-width:0;stroke-miterlimit:1;" x1="166.155" y1="66.229" x2="160.33" y2="60.681"/>
		
			<line style="clip-path:url(#SVGID_32_);fill:none;stroke:#000000;stroke-width:0;stroke-miterlimit:1;" x1="160.33" y1="60.681" x2="156.446" y2="54.578"/>
		
			<line style="clip-path:url(#SVGID_32_);fill:none;stroke:#000000;stroke-width:0;stroke-miterlimit:1;" x1="156.446" y1="54.578" x2="154.504" y2="48.752"/>
		
			<line style="clip-path:url(#SVGID_32_);fill:none;stroke:#000000;stroke-width:0;stroke-miterlimit:1;" x1="154.504" y1="48.752" x2="153.118" y2="42.373"/>
		
			<line style="clip-path:url(#SVGID_32_);fill:none;stroke:#000000;stroke-width:0;stroke-miterlimit:1;" x1="153.118" y1="42.373" x2="153.672" y2="36.27"/>
		
			<line style="clip-path:url(#SVGID_32_);fill:none;stroke:#000000;stroke-width:0;stroke-miterlimit:1;" x1="153.672" y1="36.27" x2="154.504" y2="33.773"/>
		
			<line style="clip-path:url(#SVGID_32_);fill:none;stroke:#000000;stroke-width:0;stroke-miterlimit:1;" x1="154.504" y1="33.773" x2="156.168" y2="30.445"/>
		
			<line style="clip-path:url(#SVGID_32_);fill:none;stroke:#000000;stroke-width:0;stroke-miterlimit:1;" x1="156.168" y1="30.445" x2="158.388" y2="27.948"/>
		
			<line style="clip-path:url(#SVGID_32_);fill:none;stroke:#000000;stroke-width:0;stroke-miterlimit:1;" x1="158.388" y1="27.948" x2="153.118" y2="25.174"/>
		
			<line style="clip-path:url(#SVGID_32_);fill:none;stroke:#000000;stroke-width:0;stroke-miterlimit:1;" x1="153.118" y1="25.174" x2="148.125" y2="21.291"/>
		
			<line style="clip-path:url(#SVGID_32_);fill:none;stroke:#000000;stroke-width:0;stroke-miterlimit:1;" x1="148.125" y1="21.291" x2="141.745" y2="12.969"/>
		
			<line style="clip-path:url(#SVGID_32_);fill:none;stroke:#000000;stroke-width:0;stroke-miterlimit:1;" x1="141.745" y1="12.969" x2="145.905" y2="25.174"/>
		
			<line style="clip-path:url(#SVGID_32_);fill:none;stroke:#000000;stroke-width:0;stroke-miterlimit:1;" x1="145.905" y1="25.174" x2="150.343" y2="37.657"/>
		
			<line style="clip-path:url(#SVGID_32_);fill:none;stroke:#000000;stroke-width:0;stroke-miterlimit:1;" x1="150.343" y1="37.657" x2="151.176" y2="42.095"/>
		
			<line style="clip-path:url(#SVGID_32_);fill:none;stroke:#000000;stroke-width:0;stroke-miterlimit:1;" x1="151.176" y1="42.095" x2="151.454" y2="45.424"/>
		
			<line style="clip-path:url(#SVGID_32_);fill:none;stroke:#000000;stroke-width:0;stroke-miterlimit:1;" x1="151.454" y1="45.424" x2="152.84" y2="50.694"/>
		
			<line style="clip-path:url(#SVGID_32_);fill:none;stroke:#000000;stroke-width:0;stroke-miterlimit:1;" x1="152.84" y1="50.694" x2="155.614" y2="57.352"/>
		
			<line style="clip-path:url(#SVGID_32_);fill:none;stroke:#000000;stroke-width:0;stroke-miterlimit:1;" x1="155.614" y1="57.352" x2="157.833" y2="60.681"/>
		
			<line style="clip-path:url(#SVGID_32_);fill:none;stroke:#000000;stroke-width:0;stroke-miterlimit:1;" x1="157.833" y1="60.681" x2="161.162" y2="64.287"/>
		
			<line style="clip-path:url(#SVGID_32_);fill:none;stroke:#000000;stroke-width:0;stroke-miterlimit:1;" x1="161.162" y1="64.287" x2="163.936" y2="67.061"/>
		
			<line style="clip-path:url(#SVGID_32_);fill:none;stroke:#000000;stroke-width:0;stroke-miterlimit:1;" x1="163.936" y1="67.061" x2="167.82" y2="70.389"/>
		
			<line style="clip-path:url(#SVGID_32_);fill:none;stroke:#000000;stroke-width:0;stroke-miterlimit:1;" x1="167.82" y1="70.389" x2="171.703" y2="73.163"/>
		
			<line style="clip-path:url(#SVGID_32_);fill:none;stroke:#000000;stroke-width:0;stroke-miterlimit:1;" x1="171.703" y1="73.163" x2="176.695" y2="76.214"/>
		
			<line style="clip-path:url(#SVGID_32_);fill:none;stroke:#000000;stroke-width:0;stroke-miterlimit:1;" x1="176.695" y1="76.214" x2="182.244" y2="79.543"/>
		
			<line style="clip-path:url(#SVGID_32_);fill:none;stroke:#000000;stroke-width:0;stroke-miterlimit:1;" x1="182.244" y1="79.543" x2="195.281" y2="84.813"/>
		
			<line style="clip-path:url(#SVGID_32_);fill:none;stroke:#000000;stroke-width:0;stroke-miterlimit:1;" x1="195.281" y1="84.813" x2="206.1" y2="88.42"/>
		
			<line style="clip-path:url(#SVGID_32_);fill:none;stroke:#000000;stroke-width:0;stroke-miterlimit:1;" x1="206.1" y1="88.42" x2="214.145" y2="89.807"/>
		
			<line style="clip-path:url(#SVGID_32_);fill:none;stroke:#000000;stroke-width:0;stroke-miterlimit:1;" x1="214.145" y1="89.807" x2="217.473" y2="90.361"/>
		
			<line style="clip-path:url(#SVGID_32_);fill:none;stroke:#000000;stroke-width:0;stroke-miterlimit:1;" x1="217.473" y1="90.361" x2="217.473" y2="88.697"/>
	</g>
</g>
</svg>
