<?xml version="1.0" encoding="iso-8859-1"?>
<!-- Generator: Adobe Illustrator 16.0.1, SVG Export Plug-In . SVG Version: 6.00 Build 0)  -->
<!DOCTYPE svg PUBLIC "-//W3C//DTD SVG 1.1//EN" "http://www.w3.org/Graphics/SVG/1.1/DTD/svg11.dtd">
<svg version="1.1" id="Ebene_1" xmlns="http://www.w3.org/2000/svg" xmlns:xlink="http://www.w3.org/1999/xlink" x="0px" y="0px"
	 width="494.172px" height="369.942px" viewBox="0 0 494.172 369.942" style="enable-background:new 0 0 494.172 369.942;"
	 xml:space="preserve">
<g>
	<g>
		<defs>
			<polygon id="SVGID_1_" points="44.313,369.942 494.172,369.942 494.172,115.126 44.313,115.126 44.313,369.942 			"/>
		</defs>
		<clipPath id="SVGID_2_">
			<use xlink:href="#SVGID_1_"  style="overflow:visible;"/>
		</clipPath>
		
			<line style="clip-path:url(#SVGID_2_);fill:none;stroke:#000000;stroke-width:0;stroke-miterlimit:1;" x1="61.168" y1="158.267" x2="58.665" y2="159.831"/>
		
			<line style="clip-path:url(#SVGID_2_);fill:none;stroke:#000000;stroke-width:0;stroke-miterlimit:1;" x1="58.665" y1="159.831" x2="56.787" y2="160.457"/>
		
			<line style="clip-path:url(#SVGID_2_);fill:none;stroke:#000000;stroke-width:0;stroke-miterlimit:1;" x1="56.787" y1="160.457" x2="55.848" y2="160.457"/>
		
			<line style="clip-path:url(#SVGID_2_);fill:none;stroke:#000000;stroke-width:0;stroke-miterlimit:1;" x1="55.848" y1="160.457" x2="54.91" y2="159.519"/>
		
			<line style="clip-path:url(#SVGID_2_);fill:none;stroke:#000000;stroke-width:0;stroke-miterlimit:1;" x1="54.91" y1="159.519" x2="53.658" y2="158.267"/>
		
			<line style="clip-path:url(#SVGID_2_);fill:none;stroke:#000000;stroke-width:0;stroke-miterlimit:1;" x1="53.658" y1="158.267" x2="47.399" y2="147.314"/>
		
			<line style="clip-path:url(#SVGID_2_);fill:none;stroke:#000000;stroke-width:0;stroke-miterlimit:1;" x1="47.399" y1="147.314" x2="47.399" y2="145.75"/>
		
			<line style="clip-path:url(#SVGID_2_);fill:none;stroke:#000000;stroke-width:0;stroke-miterlimit:1;" x1="47.399" y1="145.75" x2="47.712" y2="145.124"/>
		
			<line style="clip-path:url(#SVGID_2_);fill:none;stroke:#000000;stroke-width:0;stroke-miterlimit:1;" x1="47.712" y1="145.124" x2="48.338" y2="144.186"/>
		
			<line style="clip-path:url(#SVGID_2_);fill:none;stroke:#000000;stroke-width:0;stroke-miterlimit:1;" x1="48.338" y1="144.186" x2="50.528" y2="142.934"/>
		
			<line style="clip-path:url(#SVGID_2_);fill:none;stroke:#000000;stroke-width:0;stroke-miterlimit:1;" x1="50.528" y1="142.934" x2="101.849" y2="118.838"/>
		
			<line style="clip-path:url(#SVGID_2_);fill:none;stroke:#000000;stroke-width:0;stroke-miterlimit:1;" x1="101.849" y1="118.838" x2="103.101" y2="118.524"/>
		
			<line style="clip-path:url(#SVGID_2_);fill:none;stroke:#000000;stroke-width:0;stroke-miterlimit:1;" x1="103.101" y1="118.524" x2="104.665" y2="118.212"/>
		
			<line style="clip-path:url(#SVGID_2_);fill:none;stroke:#000000;stroke-width:0;stroke-miterlimit:1;" x1="104.665" y1="118.212" x2="106.229" y2="118.838"/>
		
			<line style="clip-path:url(#SVGID_2_);fill:none;stroke:#000000;stroke-width:0;stroke-miterlimit:1;" x1="106.229" y1="118.838" x2="107.795" y2="119.776"/>
		
			<line style="clip-path:url(#SVGID_2_);fill:none;stroke:#000000;stroke-width:0;stroke-miterlimit:1;" x1="107.795" y1="119.776" x2="108.42" y2="120.716"/>
		
			<line style="clip-path:url(#SVGID_2_);fill:none;stroke:#000000;stroke-width:0;stroke-miterlimit:1;" x1="108.42" y1="120.716" x2="109.046" y2="122.593"/>
		
			<line style="clip-path:url(#SVGID_2_);fill:none;stroke:#000000;stroke-width:0;stroke-miterlimit:1;" x1="109.046" y1="122.593" x2="109.046" y2="123.845"/>
		
			<line style="clip-path:url(#SVGID_2_);fill:none;stroke:#000000;stroke-width:0;stroke-miterlimit:1;" x1="109.046" y1="123.845" x2="108.42" y2="125.409"/>
		
			<line style="clip-path:url(#SVGID_2_);fill:none;stroke:#000000;stroke-width:0;stroke-miterlimit:1;" x1="108.42" y1="125.409" x2="107.481" y2="126.661"/>
		
			<line style="clip-path:url(#SVGID_2_);fill:none;stroke:#000000;stroke-width:0;stroke-miterlimit:1;" x1="107.481" y1="126.661" x2="105.917" y2="128.226"/>
		
			<line style="clip-path:url(#SVGID_2_);fill:none;stroke:#000000;stroke-width:0;stroke-miterlimit:1;" x1="105.917" y1="128.226" x2="61.168" y2="158.267"/>
	</g>
	<g>
		<defs>
			<polygon id="SVGID_3_" points="41.688,369.942 494.172,369.942 494.172,0 41.688,0 41.688,369.942 			"/>
		</defs>
		<clipPath id="SVGID_4_">
			<use xlink:href="#SVGID_3_"  style="overflow:visible;"/>
		</clipPath>
		
			<line style="clip-path:url(#SVGID_4_);fill:none;stroke:#000000;stroke-width:0;stroke-miterlimit:1;" x1="48.507" y1="101.084" x2="67.173" y2="101.084"/>
		
			<line style="clip-path:url(#SVGID_4_);fill:none;stroke:#000000;stroke-width:0;stroke-miterlimit:1;" x1="67.173" y1="101.084" x2="66.862" y2="94.239"/>
		
			<line style="clip-path:url(#SVGID_4_);fill:none;stroke:#000000;stroke-width:0;stroke-miterlimit:1;" x1="66.862" y1="94.239" x2="68.729" y2="85.218"/>
		
			<line style="clip-path:url(#SVGID_4_);fill:none;stroke:#000000;stroke-width:0;stroke-miterlimit:1;" x1="68.729" y1="85.218" x2="70.595" y2="79.929"/>
		
			<line style="clip-path:url(#SVGID_4_);fill:none;stroke:#000000;stroke-width:0;stroke-miterlimit:1;" x1="70.595" y1="79.929" x2="74.329" y2="71.529"/>
		
			<line style="clip-path:url(#SVGID_4_);fill:none;stroke:#000000;stroke-width:0;stroke-miterlimit:1;" x1="74.329" y1="71.529" x2="91.439" y2="41.352"/>
		
			<line style="clip-path:url(#SVGID_4_);fill:none;stroke:#000000;stroke-width:0;stroke-miterlimit:1;" x1="91.439" y1="41.352" x2="92.372" y2="34.818"/>
		
			<line style="clip-path:url(#SVGID_4_);fill:none;stroke:#000000;stroke-width:0;stroke-miterlimit:1;" x1="92.372" y1="34.818" x2="92.684" y2="31.708"/>
		
			<line style="clip-path:url(#SVGID_4_);fill:none;stroke:#000000;stroke-width:0;stroke-miterlimit:1;" x1="92.684" y1="31.708" x2="92.062" y2="26.107"/>
		
			<line style="clip-path:url(#SVGID_4_);fill:none;stroke:#000000;stroke-width:0;stroke-miterlimit:1;" x1="92.062" y1="26.107" x2="91.128" y2="22.375"/>
		
			<line style="clip-path:url(#SVGID_4_);fill:none;stroke:#000000;stroke-width:0;stroke-miterlimit:1;" x1="91.128" y1="22.375" x2="89.572" y2="17.708"/>
		
			<line style="clip-path:url(#SVGID_4_);fill:none;stroke:#000000;stroke-width:0;stroke-miterlimit:1;" x1="89.572" y1="17.708" x2="86.772" y2="13.353"/>
		
			<line style="clip-path:url(#SVGID_4_);fill:none;stroke:#000000;stroke-width:0;stroke-miterlimit:1;" x1="86.772" y1="13.353" x2="84.595" y2="10.864"/>
		
			<line style="clip-path:url(#SVGID_4_);fill:none;stroke:#000000;stroke-width:0;stroke-miterlimit:1;" x1="84.595" y1="10.864" x2="78.995" y2="5.575"/>
		
			<line style="clip-path:url(#SVGID_4_);fill:none;stroke:#000000;stroke-width:0;stroke-miterlimit:1;" x1="78.995" y1="5.575" x2="74.64" y2="4.02"/>
		
			<line style="clip-path:url(#SVGID_4_);fill:none;stroke:#000000;stroke-width:0;stroke-miterlimit:1;" x1="74.64" y1="4.02" x2="65.618" y2="3.086"/>
		
			<line style="clip-path:url(#SVGID_4_);fill:none;stroke:#000000;stroke-width:0;stroke-miterlimit:1;" x1="65.618" y1="3.086" x2="58.151" y2="4.02"/>
		
			<line style="clip-path:url(#SVGID_4_);fill:none;stroke:#000000;stroke-width:0;stroke-miterlimit:1;" x1="58.151" y1="4.02" x2="55.04" y2="5.264"/>
		
			<line style="clip-path:url(#SVGID_4_);fill:none;stroke:#000000;stroke-width:0;stroke-miterlimit:1;" x1="55.04" y1="5.264" x2="51.307" y2="7.752"/>
		
			<line style="clip-path:url(#SVGID_4_);fill:none;stroke:#000000;stroke-width:0;stroke-miterlimit:1;" x1="51.307" y1="7.752" x2="47.885" y2="11.486"/>
		
			<line style="clip-path:url(#SVGID_4_);fill:none;stroke:#000000;stroke-width:0;stroke-miterlimit:1;" x1="47.885" y1="11.486" x2="46.329" y2="13.664"/>
		
			<line style="clip-path:url(#SVGID_4_);fill:none;stroke:#000000;stroke-width:0;stroke-miterlimit:1;" x1="46.329" y1="13.664" x2="44.773" y2="15.53"/>
	</g>
	<g>
		<defs>
			<polygon id="SVGID_5_" points="0,369.942 494.172,369.942 494.172,0 0,0 0,369.942 			"/>
		</defs>
		<clipPath id="SVGID_6_">
			<use xlink:href="#SVGID_5_"  style="overflow:visible;"/>
		</clipPath>
		
			<line style="clip-path:url(#SVGID_6_);fill:none;stroke:#000000;stroke-width:0;stroke-miterlimit:1;" x1="43.84" y1="15.841" x2="41.041" y2="17.085"/>
		
			<line style="clip-path:url(#SVGID_6_);fill:none;stroke:#000000;stroke-width:0;stroke-miterlimit:1;" x1="41.041" y1="17.085" x2="10.552" y2="22.997"/>
		
			<line style="clip-path:url(#SVGID_6_);fill:none;stroke:#000000;stroke-width:0;stroke-miterlimit:1;" x1="10.552" y1="22.997" x2="7.752" y2="25.174"/>
		
			<line style="clip-path:url(#SVGID_6_);fill:none;stroke:#000000;stroke-width:0;stroke-miterlimit:1;" x1="7.752" y1="25.174" x2="5.575" y2="26.73"/>
		
			<line style="clip-path:url(#SVGID_6_);fill:none;stroke:#000000;stroke-width:0;stroke-miterlimit:1;" x1="5.575" y1="26.73" x2="3.708" y2="30.152"/>
		
			<line style="clip-path:url(#SVGID_6_);fill:none;stroke:#000000;stroke-width:0;stroke-miterlimit:1;" x1="3.708" y1="30.152" x2="3.086" y2="35.13"/>
		
			<line style="clip-path:url(#SVGID_6_);fill:none;stroke:#000000;stroke-width:0;stroke-miterlimit:1;" x1="3.086" y1="35.13" x2="3.397" y2="36.374"/>
		
			<line style="clip-path:url(#SVGID_6_);fill:none;stroke:#000000;stroke-width:0;stroke-miterlimit:1;" x1="3.397" y1="36.374" x2="4.33" y2="36.996"/>
		
			<line style="clip-path:url(#SVGID_6_);fill:none;stroke:#000000;stroke-width:0;stroke-miterlimit:1;" x1="4.33" y1="36.996" x2="4.952" y2="36.996"/>
		
			<line style="clip-path:url(#SVGID_6_);fill:none;stroke:#000000;stroke-width:0;stroke-miterlimit:1;" x1="4.952" y1="36.996" x2="6.508" y2="36.374"/>
		
			<line style="clip-path:url(#SVGID_6_);fill:none;stroke:#000000;stroke-width:0;stroke-miterlimit:1;" x1="6.508" y1="36.374" x2="7.13" y2="33.574"/>
		
			<line style="clip-path:url(#SVGID_6_);fill:none;stroke:#000000;stroke-width:0;stroke-miterlimit:1;" x1="7.13" y1="33.574" x2="8.997" y2="30.774"/>
		
			<line style="clip-path:url(#SVGID_6_);fill:none;stroke:#000000;stroke-width:0;stroke-miterlimit:1;" x1="8.997" y1="30.774" x2="11.796" y2="28.285"/>
		
			<line style="clip-path:url(#SVGID_6_);fill:none;stroke:#000000;stroke-width:0;stroke-miterlimit:1;" x1="11.796" y1="28.285" x2="14.908" y2="27.352"/>
		
			<line style="clip-path:url(#SVGID_6_);fill:none;stroke:#000000;stroke-width:0;stroke-miterlimit:1;" x1="14.908" y1="27.352" x2="18.952" y2="26.107"/>
		
			<line style="clip-path:url(#SVGID_6_);fill:none;stroke:#000000;stroke-width:0;stroke-miterlimit:1;" x1="18.952" y1="26.107" x2="44.151" y2="22.686"/>
		
			<line style="clip-path:url(#SVGID_6_);fill:none;stroke:#000000;stroke-width:0;stroke-miterlimit:1;" x1="44.151" y1="22.686" x2="44.773" y2="22.375"/>
		
			<line style="clip-path:url(#SVGID_6_);fill:none;stroke:#000000;stroke-width:0;stroke-miterlimit:1;" x1="44.773" y1="22.375" x2="48.507" y2="22.997"/>
	</g>
	<g>
		<defs>
			<polygon id="SVGID_7_" points="0,369.942 494.172,369.942 494.172,0 0,0 0,369.942 			"/>
		</defs>
		<clipPath id="SVGID_8_">
			<use xlink:href="#SVGID_7_"  style="overflow:visible;"/>
		</clipPath>
		
			<line style="clip-path:url(#SVGID_8_);fill:none;stroke:#000000;stroke-width:0;stroke-miterlimit:1;" x1="44.151" y1="15.841" x2="48.507" y2="23.308"/>
		
			<line style="clip-path:url(#SVGID_8_);fill:none;stroke:#000000;stroke-width:0;stroke-miterlimit:1;" x1="48.507" y1="23.308" x2="48.507" y2="27.352"/>
	</g>
	<g>
		<defs>
			<polygon id="SVGID_9_" points="0,369.942 494.172,369.942 494.172,0 0,0 0,369.942 			"/>
		</defs>
		<clipPath id="SVGID_10_">
			<use xlink:href="#SVGID_9_"  style="overflow:visible;"/>
		</clipPath>
		
			<line style="clip-path:url(#SVGID_10_);fill:none;stroke:#000000;stroke-width:0;stroke-miterlimit:1;" x1="7.752" y1="33.263" x2="10.552" y2="31.396"/>
		
			<line style="clip-path:url(#SVGID_10_);fill:none;stroke:#000000;stroke-width:0;stroke-miterlimit:1;" x1="10.552" y1="31.396" x2="15.219" y2="30.152"/>
		
			<line style="clip-path:url(#SVGID_10_);fill:none;stroke:#000000;stroke-width:0;stroke-miterlimit:1;" x1="15.219" y1="30.152" x2="27.352" y2="28.908"/>
		
			<line style="clip-path:url(#SVGID_10_);fill:none;stroke:#000000;stroke-width:0;stroke-miterlimit:1;" x1="27.352" y1="28.908" x2="39.485" y2="27.352"/>
		
			<line style="clip-path:url(#SVGID_10_);fill:none;stroke:#000000;stroke-width:0;stroke-miterlimit:1;" x1="39.485" y1="27.352" x2="44.462" y2="27.352"/>
		
			<line style="clip-path:url(#SVGID_10_);fill:none;stroke:#000000;stroke-width:0;stroke-miterlimit:1;" x1="44.462" y1="27.352" x2="48.818" y2="27.352"/>
		
			<line style="clip-path:url(#SVGID_10_);fill:none;stroke:#000000;stroke-width:0;stroke-miterlimit:1;" x1="48.818" y1="27.352" x2="51.307" y2="27.663"/>
		
			<line style="clip-path:url(#SVGID_10_);fill:none;stroke:#000000;stroke-width:0;stroke-miterlimit:1;" x1="51.307" y1="27.663" x2="56.284" y2="28.908"/>
		
			<line style="clip-path:url(#SVGID_10_);fill:none;stroke:#000000;stroke-width:0;stroke-miterlimit:1;" x1="56.284" y1="28.908" x2="64.995" y2="30.463"/>
		
			<line style="clip-path:url(#SVGID_10_);fill:none;stroke:#000000;stroke-width:0;stroke-miterlimit:1;" x1="64.995" y1="30.463" x2="69.662" y2="30.774"/>
		
			<line style="clip-path:url(#SVGID_10_);fill:none;stroke:#000000;stroke-width:0;stroke-miterlimit:1;" x1="69.662" y1="30.774" x2="73.084" y2="30.463"/>
		
			<line style="clip-path:url(#SVGID_10_);fill:none;stroke:#000000;stroke-width:0;stroke-miterlimit:1;" x1="73.084" y1="30.463" x2="76.817" y2="29.53"/>
		
			<line style="clip-path:url(#SVGID_10_);fill:none;stroke:#000000;stroke-width:0;stroke-miterlimit:1;" x1="76.817" y1="29.53" x2="78.995" y2="30.774"/>
		
			<line style="clip-path:url(#SVGID_10_);fill:none;stroke:#000000;stroke-width:0;stroke-miterlimit:1;" x1="78.995" y1="30.774" x2="79.929" y2="32.33"/>
		
			<line style="clip-path:url(#SVGID_10_);fill:none;stroke:#000000;stroke-width:0;stroke-miterlimit:1;" x1="79.929" y1="32.33" x2="80.239" y2="36.063"/>
		
			<line style="clip-path:url(#SVGID_10_);fill:none;stroke:#000000;stroke-width:0;stroke-miterlimit:1;" x1="80.239" y1="36.063" x2="79.929" y2="39.174"/>
		
			<line style="clip-path:url(#SVGID_10_);fill:none;stroke:#000000;stroke-width:0;stroke-miterlimit:1;" x1="79.929" y1="39.174" x2="78.373" y2="42.907"/>
		
			<line style="clip-path:url(#SVGID_10_);fill:none;stroke:#000000;stroke-width:0;stroke-miterlimit:1;" x1="78.373" y1="42.907" x2="64.684" y2="60.951"/>
		
			<line style="clip-path:url(#SVGID_10_);fill:none;stroke:#000000;stroke-width:0;stroke-miterlimit:1;" x1="64.684" y1="60.951" x2="57.84" y2="71.84"/>
		
			<line style="clip-path:url(#SVGID_10_);fill:none;stroke:#000000;stroke-width:0;stroke-miterlimit:1;" x1="57.84" y1="71.84" x2="55.04" y2="77.44"/>
		
			<line style="clip-path:url(#SVGID_10_);fill:none;stroke:#000000;stroke-width:0;stroke-miterlimit:1;" x1="55.04" y1="77.44" x2="51.618" y2="83.973"/>
		
			<line style="clip-path:url(#SVGID_10_);fill:none;stroke:#000000;stroke-width:0;stroke-miterlimit:1;" x1="51.618" y1="83.973" x2="49.751" y2="92.373"/>
		
			<line style="clip-path:url(#SVGID_10_);fill:none;stroke:#000000;stroke-width:0;stroke-miterlimit:1;" x1="49.751" y1="92.373" x2="48.507" y2="101.084"/>
	</g>
	<g>
		<defs>
			<polygon id="SVGID_11_" points="0,369.942 494.172,369.942 494.172,0 0,0 0,369.942 			"/>
		</defs>
		<clipPath id="SVGID_12_">
			<use xlink:href="#SVGID_11_"  style="overflow:visible;"/>
		</clipPath>
		
			<line style="clip-path:url(#SVGID_12_);fill:none;stroke:#000000;stroke-width:0;stroke-miterlimit:1;" x1="75.262" y1="4.331" x2="91.439" y2="10.241"/>
		
			<line style="clip-path:url(#SVGID_12_);fill:none;stroke:#000000;stroke-width:0;stroke-miterlimit:1;" x1="91.439" y1="10.241" x2="107.306" y2="14.286"/>
		
			<line style="clip-path:url(#SVGID_12_);fill:none;stroke:#000000;stroke-width:0;stroke-miterlimit:1;" x1="107.306" y1="14.286" x2="113.839" y2="15.53"/>
		
			<line style="clip-path:url(#SVGID_12_);fill:none;stroke:#000000;stroke-width:0;stroke-miterlimit:1;" x1="113.839" y1="15.53" x2="119.438" y2="15.841"/>
		
			<line style="clip-path:url(#SVGID_12_);fill:none;stroke:#000000;stroke-width:0;stroke-miterlimit:1;" x1="119.438" y1="15.841" x2="126.283" y2="15.841"/>
		
			<line style="clip-path:url(#SVGID_12_);fill:none;stroke:#000000;stroke-width:0;stroke-miterlimit:1;" x1="126.283" y1="15.841" x2="133.749" y2="15.53"/>
		
			<line style="clip-path:url(#SVGID_12_);fill:none;stroke:#000000;stroke-width:0;stroke-miterlimit:1;" x1="133.749" y1="15.53" x2="139.35" y2="14.286"/>
		
			<line style="clip-path:url(#SVGID_12_);fill:none;stroke:#000000;stroke-width:0;stroke-miterlimit:1;" x1="139.35" y1="14.286" x2="144.949" y2="13.042"/>
		
			<line style="clip-path:url(#SVGID_12_);fill:none;stroke:#000000;stroke-width:0;stroke-miterlimit:1;" x1="144.949" y1="13.042" x2="145.571" y2="13.664"/>
		
			<line style="clip-path:url(#SVGID_12_);fill:none;stroke:#000000;stroke-width:0;stroke-miterlimit:1;" x1="145.571" y1="13.664" x2="144.949" y2="15.841"/>
		
			<line style="clip-path:url(#SVGID_12_);fill:none;stroke:#000000;stroke-width:0;stroke-miterlimit:1;" x1="144.949" y1="15.841" x2="142.771" y2="17.396"/>
		
			<line style="clip-path:url(#SVGID_12_);fill:none;stroke:#000000;stroke-width:0;stroke-miterlimit:1;" x1="142.771" y1="17.396" x2="135.305" y2="18.952"/>
		
			<line style="clip-path:url(#SVGID_12_);fill:none;stroke:#000000;stroke-width:0;stroke-miterlimit:1;" x1="135.305" y1="18.952" x2="127.838" y2="19.886"/>
		
			<line style="clip-path:url(#SVGID_12_);fill:none;stroke:#000000;stroke-width:0;stroke-miterlimit:1;" x1="127.838" y1="19.886" x2="119.438" y2="19.886"/>
		
			<line style="clip-path:url(#SVGID_12_);fill:none;stroke:#000000;stroke-width:0;stroke-miterlimit:1;" x1="119.438" y1="19.886" x2="112.283" y2="19.263"/>
		
			<line style="clip-path:url(#SVGID_12_);fill:none;stroke:#000000;stroke-width:0;stroke-miterlimit:1;" x1="112.283" y1="19.263" x2="100.15" y2="17.085"/>
		
			<line style="clip-path:url(#SVGID_12_);fill:none;stroke:#000000;stroke-width:0;stroke-miterlimit:1;" x1="100.15" y1="17.085" x2="93.306" y2="14.908"/>
	</g>
	<g>
		<defs>
			<polygon id="SVGID_13_" points="0,369.942 494.172,369.942 494.172,0 0,0 0,369.942 			"/>
		</defs>
		<clipPath id="SVGID_14_">
			<use xlink:href="#SVGID_13_"  style="overflow:visible;"/>
		</clipPath>
		
			<line style="clip-path:url(#SVGID_14_);fill:none;stroke:#000000;stroke-width:0;stroke-miterlimit:1;" x1="84.595" y1="10.241" x2="96.728" y2="16.774"/>
		
			<line style="clip-path:url(#SVGID_14_);fill:none;stroke:#000000;stroke-width:0;stroke-miterlimit:1;" x1="96.728" y1="16.774" x2="108.861" y2="22.997"/>
		
			<line style="clip-path:url(#SVGID_14_);fill:none;stroke:#000000;stroke-width:0;stroke-miterlimit:1;" x1="108.861" y1="22.997" x2="116.327" y2="26.73"/>
		
			<line style="clip-path:url(#SVGID_14_);fill:none;stroke:#000000;stroke-width:0;stroke-miterlimit:1;" x1="116.327" y1="26.73" x2="121.928" y2="28.908"/>
		
			<line style="clip-path:url(#SVGID_14_);fill:none;stroke:#000000;stroke-width:0;stroke-miterlimit:1;" x1="121.928" y1="28.908" x2="128.149" y2="30.463"/>
		
			<line style="clip-path:url(#SVGID_14_);fill:none;stroke:#000000;stroke-width:0;stroke-miterlimit:1;" x1="128.149" y1="30.463" x2="132.505" y2="31.085"/>
		
			<line style="clip-path:url(#SVGID_14_);fill:none;stroke:#000000;stroke-width:0;stroke-miterlimit:1;" x1="132.505" y1="31.085" x2="140.594" y2="32.019"/>
		
			<line style="clip-path:url(#SVGID_14_);fill:none;stroke:#000000;stroke-width:0;stroke-miterlimit:1;" x1="140.594" y1="32.019" x2="144.016" y2="31.396"/>
		
			<line style="clip-path:url(#SVGID_14_);fill:none;stroke:#000000;stroke-width:0;stroke-miterlimit:1;" x1="144.016" y1="31.396" x2="145.571" y2="31.085"/>
		
			<line style="clip-path:url(#SVGID_14_);fill:none;stroke:#000000;stroke-width:0;stroke-miterlimit:1;" x1="145.571" y1="31.085" x2="146.815" y2="32.019"/>
		
			<line style="clip-path:url(#SVGID_14_);fill:none;stroke:#000000;stroke-width:0;stroke-miterlimit:1;" x1="146.815" y1="32.019" x2="147.127" y2="33.885"/>
		
			<line style="clip-path:url(#SVGID_14_);fill:none;stroke:#000000;stroke-width:0;stroke-miterlimit:1;" x1="147.127" y1="33.885" x2="142.46" y2="35.441"/>
		
			<line style="clip-path:url(#SVGID_14_);fill:none;stroke:#000000;stroke-width:0;stroke-miterlimit:1;" x1="142.46" y1="35.441" x2="136.86" y2="36.063"/>
		
			<line style="clip-path:url(#SVGID_14_);fill:none;stroke:#000000;stroke-width:0;stroke-miterlimit:1;" x1="136.86" y1="36.063" x2="130.639" y2="35.13"/>
		
			<line style="clip-path:url(#SVGID_14_);fill:none;stroke:#000000;stroke-width:0;stroke-miterlimit:1;" x1="130.639" y1="35.13" x2="121.928" y2="33.263"/>
		
			<line style="clip-path:url(#SVGID_14_);fill:none;stroke:#000000;stroke-width:0;stroke-miterlimit:1;" x1="121.928" y1="33.263" x2="114.461" y2="30.774"/>
		
			<line style="clip-path:url(#SVGID_14_);fill:none;stroke:#000000;stroke-width:0;stroke-miterlimit:1;" x1="114.461" y1="30.774" x2="107.306" y2="27.352"/>
		
			<line style="clip-path:url(#SVGID_14_);fill:none;stroke:#000000;stroke-width:0;stroke-miterlimit:1;" x1="107.306" y1="27.352" x2="89.884" y2="17.396"/>
	</g>
	<g>
		<defs>
			<polygon id="SVGID_15_" points="0,369.942 494.172,369.942 494.172,0 0,0 0,369.942 			"/>
		</defs>
		<clipPath id="SVGID_16_">
			<use xlink:href="#SVGID_15_"  style="overflow:visible;"/>
		</clipPath>
		
			<line style="clip-path:url(#SVGID_16_);fill:none;stroke:#000000;stroke-width:0;stroke-miterlimit:1;" x1="58.462" y1="12.108" x2="56.596" y2="12.419"/>
		
			<line style="clip-path:url(#SVGID_16_);fill:none;stroke:#000000;stroke-width:0;stroke-miterlimit:1;" x1="56.596" y1="12.419" x2="55.04" y2="14.286"/>
		
			<line style="clip-path:url(#SVGID_16_);fill:none;stroke:#000000;stroke-width:0;stroke-miterlimit:1;" x1="55.04" y1="14.286" x2="55.04" y2="16.463"/>
		
			<line style="clip-path:url(#SVGID_16_);fill:none;stroke:#000000;stroke-width:0;stroke-miterlimit:1;" x1="55.04" y1="16.463" x2="56.596" y2="18.019"/>
		
			<line style="clip-path:url(#SVGID_16_);fill:none;stroke:#000000;stroke-width:0;stroke-miterlimit:1;" x1="56.596" y1="18.019" x2="58.773" y2="18.019"/>
		
			<line style="clip-path:url(#SVGID_16_);fill:none;stroke:#000000;stroke-width:0;stroke-miterlimit:1;" x1="58.773" y1="18.019" x2="60.951" y2="17.085"/>
		
			<line style="clip-path:url(#SVGID_16_);fill:none;stroke:#000000;stroke-width:0;stroke-miterlimit:1;" x1="60.951" y1="17.085" x2="61.262" y2="15.841"/>
		
			<line style="clip-path:url(#SVGID_16_);fill:none;stroke:#000000;stroke-width:0;stroke-miterlimit:1;" x1="61.262" y1="15.841" x2="60.64" y2="13.975"/>
		
			<line style="clip-path:url(#SVGID_16_);fill:none;stroke:#000000;stroke-width:0;stroke-miterlimit:1;" x1="60.64" y1="13.975" x2="59.084" y2="12.108"/>
	</g>
</g>
</svg>
