<?xml version="1.0" encoding="iso-8859-1"?>
<!-- Generator: Adobe Illustrator 16.0.1, SVG Export Plug-In . SVG Version: 6.00 Build 0)  -->
<!DOCTYPE svg PUBLIC "-//W3C//DTD SVG 1.1//EN" "http://www.w3.org/Graphics/SVG/1.1/DTD/svg11.dtd">
<svg version="1.1" id="Ebene_1" xmlns="http://www.w3.org/2000/svg" xmlns:xlink="http://www.w3.org/1999/xlink" x="0px" y="0px"
	 width="296.938px" height="184.751px" viewBox="0 0 296.938 184.751" style="enable-background:new 0 0 296.938 184.751;"
	 xml:space="preserve">
<g>
	<g>
		<defs>
			<polygon id="SVGID_1_" points="80.61,99.686 296.938,99.686 296.938,0 80.61,0 80.61,99.686 			"/>
		</defs>
		<clipPath id="SVGID_2_">
			<use xlink:href="#SVGID_1_"  style="overflow:visible;"/>
		</clipPath>
		
			<line style="clip-path:url(#SVGID_2_);fill:none;stroke:#000000;stroke-width:0;stroke-miterlimit:1;" x1="109.169" y1="24.396" x2="110.501" y2="25.229"/>
		
			<line style="clip-path:url(#SVGID_2_);fill:none;stroke:#000000;stroke-width:0;stroke-miterlimit:1;" x1="110.501" y1="25.229" x2="111.5" y2="25.562"/>
		
			<line style="clip-path:url(#SVGID_2_);fill:none;stroke:#000000;stroke-width:0;stroke-miterlimit:1;" x1="111.5" y1="25.562" x2="111.999" y2="25.562"/>
		
			<line style="clip-path:url(#SVGID_2_);fill:none;stroke:#000000;stroke-width:0;stroke-miterlimit:1;" x1="111.999" y1="25.562" x2="112.499" y2="25.062"/>
		
			<line style="clip-path:url(#SVGID_2_);fill:none;stroke:#000000;stroke-width:0;stroke-miterlimit:1;" x1="112.499" y1="25.062" x2="113.165" y2="24.396"/>
		
			<line style="clip-path:url(#SVGID_2_);fill:none;stroke:#000000;stroke-width:0;stroke-miterlimit:1;" x1="113.165" y1="24.396" x2="116.494" y2="18.569"/>
		
			<line style="clip-path:url(#SVGID_2_);fill:none;stroke:#000000;stroke-width:0;stroke-miterlimit:1;" x1="116.494" y1="18.569" x2="116.494" y2="17.737"/>
		
			<line style="clip-path:url(#SVGID_2_);fill:none;stroke:#000000;stroke-width:0;stroke-miterlimit:1;" x1="116.494" y1="17.737" x2="116.328" y2="17.404"/>
		
			<line style="clip-path:url(#SVGID_2_);fill:none;stroke:#000000;stroke-width:0;stroke-miterlimit:1;" x1="116.328" y1="17.404" x2="115.995" y2="16.904"/>
		
			<line style="clip-path:url(#SVGID_2_);fill:none;stroke:#000000;stroke-width:0;stroke-miterlimit:1;" x1="115.995" y1="16.904" x2="114.83" y2="16.238"/>
		
			<line style="clip-path:url(#SVGID_2_);fill:none;stroke:#000000;stroke-width:0;stroke-miterlimit:1;" x1="114.83" y1="16.238" x2="87.525" y2="3.419"/>
		
			<line style="clip-path:url(#SVGID_2_);fill:none;stroke:#000000;stroke-width:0;stroke-miterlimit:1;" x1="87.525" y1="3.419" x2="86.859" y2="3.252"/>
		
			<line style="clip-path:url(#SVGID_2_);fill:none;stroke:#000000;stroke-width:0;stroke-miterlimit:1;" x1="86.859" y1="3.252" x2="86.027" y2="3.086"/>
		
			<line style="clip-path:url(#SVGID_2_);fill:none;stroke:#000000;stroke-width:0;stroke-miterlimit:1;" x1="86.027" y1="3.086" x2="85.194" y2="3.419"/>
		
			<line style="clip-path:url(#SVGID_2_);fill:none;stroke:#000000;stroke-width:0;stroke-miterlimit:1;" x1="85.194" y1="3.419" x2="84.362" y2="3.918"/>
		
			<line style="clip-path:url(#SVGID_2_);fill:none;stroke:#000000;stroke-width:0;stroke-miterlimit:1;" x1="84.362" y1="3.918" x2="84.029" y2="4.417"/>
		
			<line style="clip-path:url(#SVGID_2_);fill:none;stroke:#000000;stroke-width:0;stroke-miterlimit:1;" x1="84.029" y1="4.417" x2="83.696" y2="5.417"/>
		
			<line style="clip-path:url(#SVGID_2_);fill:none;stroke:#000000;stroke-width:0;stroke-miterlimit:1;" x1="83.696" y1="5.417" x2="83.696" y2="6.083"/>
		
			<line style="clip-path:url(#SVGID_2_);fill:none;stroke:#000000;stroke-width:0;stroke-miterlimit:1;" x1="83.696" y1="6.083" x2="84.029" y2="6.915"/>
		
			<line style="clip-path:url(#SVGID_2_);fill:none;stroke:#000000;stroke-width:0;stroke-miterlimit:1;" x1="84.029" y1="6.915" x2="84.528" y2="7.581"/>
		
			<line style="clip-path:url(#SVGID_2_);fill:none;stroke:#000000;stroke-width:0;stroke-miterlimit:1;" x1="84.528" y1="7.581" x2="85.361" y2="8.413"/>
		
			<line style="clip-path:url(#SVGID_2_);fill:none;stroke:#000000;stroke-width:0;stroke-miterlimit:1;" x1="85.361" y1="8.413" x2="109.169" y2="24.396"/>
	</g>
	<g>
		<defs>
			<polygon id="SVGID_3_" points="0,162.38 296.938,162.38 296.938,0 0,0 0,162.38 			"/>
		</defs>
		<clipPath id="SVGID_4_">
			<use xlink:href="#SVGID_3_"  style="overflow:visible;"/>
		</clipPath>
		
			<line style="clip-path:url(#SVGID_4_);fill:none;stroke:#000000;stroke-width:0;stroke-miterlimit:1;" x1="36.656" y1="53.637" x2="3.085" y2="53.637"/>
		
			<line style="clip-path:url(#SVGID_4_);fill:none;stroke:#000000;stroke-width:0;stroke-miterlimit:1;" x1="3.085" y1="53.637" x2="3.512" y2="50.791"/>
		
			<line style="clip-path:url(#SVGID_4_);fill:none;stroke:#000000;stroke-width:0;stroke-miterlimit:1;" x1="3.512" y1="50.791" x2="3.939" y2="48.942"/>
		
			<line style="clip-path:url(#SVGID_4_);fill:none;stroke:#000000;stroke-width:0;stroke-miterlimit:1;" x1="3.939" y1="48.942" x2="4.65" y2="47.093"/>
		
			<line style="clip-path:url(#SVGID_4_);fill:none;stroke:#000000;stroke-width:0;stroke-miterlimit:1;" x1="4.65" y1="47.093" x2="5.646" y2="45.671"/>
		
			<line style="clip-path:url(#SVGID_4_);fill:none;stroke:#000000;stroke-width:0;stroke-miterlimit:1;" x1="5.646" y1="45.671" x2="6.5" y2="44.391"/>
		
			<line style="clip-path:url(#SVGID_4_);fill:none;stroke:#000000;stroke-width:0;stroke-miterlimit:1;" x1="6.5" y1="44.391" x2="7.638" y2="42.825"/>
		
			<line style="clip-path:url(#SVGID_4_);fill:none;stroke:#000000;stroke-width:0;stroke-miterlimit:1;" x1="7.638" y1="42.825" x2="8.918" y2="41.688"/>
		
			<line style="clip-path:url(#SVGID_4_);fill:none;stroke:#000000;stroke-width:0;stroke-miterlimit:1;" x1="8.918" y1="41.688" x2="10.482" y2="40.55"/>
		
			<line style="clip-path:url(#SVGID_4_);fill:none;stroke:#000000;stroke-width:0;stroke-miterlimit:1;" x1="10.482" y1="40.55" x2="11.763" y2="39.696"/>
		
			<line style="clip-path:url(#SVGID_4_);fill:none;stroke:#000000;stroke-width:0;stroke-miterlimit:1;" x1="11.763" y1="39.696" x2="13.612" y2="38.843"/>
		
			<line style="clip-path:url(#SVGID_4_);fill:none;stroke:#000000;stroke-width:0;stroke-miterlimit:1;" x1="13.612" y1="38.843" x2="15.461" y2="38.273"/>
		
			<line style="clip-path:url(#SVGID_4_);fill:none;stroke:#000000;stroke-width:0;stroke-miterlimit:1;" x1="15.461" y1="38.273" x2="16.742" y2="37.989"/>
		
			<line style="clip-path:url(#SVGID_4_);fill:none;stroke:#000000;stroke-width:0;stroke-miterlimit:1;" x1="16.742" y1="37.989" x2="19.018" y2="37.704"/>
		
			<line style="clip-path:url(#SVGID_4_);fill:none;stroke:#000000;stroke-width:0;stroke-miterlimit:1;" x1="19.018" y1="37.704" x2="20.725" y2="37.704"/>
		
			<line style="clip-path:url(#SVGID_4_);fill:none;stroke:#000000;stroke-width:0;stroke-miterlimit:1;" x1="20.725" y1="37.704" x2="22.289" y2="37.989"/>
		
			<line style="clip-path:url(#SVGID_4_);fill:none;stroke:#000000;stroke-width:0;stroke-miterlimit:1;" x1="22.289" y1="37.989" x2="23.996" y2="38.273"/>
		
			<line style="clip-path:url(#SVGID_4_);fill:none;stroke:#000000;stroke-width:0;stroke-miterlimit:1;" x1="23.996" y1="38.273" x2="25.846" y2="38.7"/>
		
			<line style="clip-path:url(#SVGID_4_);fill:none;stroke:#000000;stroke-width:0;stroke-miterlimit:1;" x1="25.846" y1="38.7" x2="27.125" y2="39.127"/>
		
			<line style="clip-path:url(#SVGID_4_);fill:none;stroke:#000000;stroke-width:0;stroke-miterlimit:1;" x1="27.125" y1="39.127" x2="28.833" y2="40.265"/>
		
			<line style="clip-path:url(#SVGID_4_);fill:none;stroke:#000000;stroke-width:0;stroke-miterlimit:1;" x1="28.833" y1="40.265" x2="30.255" y2="41.261"/>
		
			<line style="clip-path:url(#SVGID_4_);fill:none;stroke:#000000;stroke-width:0;stroke-miterlimit:1;" x1="30.255" y1="41.261" x2="31.536" y2="42.257"/>
		
			<line style="clip-path:url(#SVGID_4_);fill:none;stroke:#000000;stroke-width:0;stroke-miterlimit:1;" x1="31.536" y1="42.257" x2="32.673" y2="43.679"/>
		
			<line style="clip-path:url(#SVGID_4_);fill:none;stroke:#000000;stroke-width:0;stroke-miterlimit:1;" x1="32.673" y1="43.679" x2="33.812" y2="45.244"/>
		
			<line style="clip-path:url(#SVGID_4_);fill:none;stroke:#000000;stroke-width:0;stroke-miterlimit:1;" x1="33.812" y1="45.244" x2="34.807" y2="46.809"/>
		
			<line style="clip-path:url(#SVGID_4_);fill:none;stroke:#000000;stroke-width:0;stroke-miterlimit:1;" x1="34.807" y1="46.809" x2="35.519" y2="48.231"/>
		
			<line style="clip-path:url(#SVGID_4_);fill:none;stroke:#000000;stroke-width:0;stroke-miterlimit:1;" x1="35.519" y1="48.231" x2="36.087" y2="50.364"/>
		
			<line style="clip-path:url(#SVGID_4_);fill:none;stroke:#000000;stroke-width:0;stroke-miterlimit:1;" x1="36.087" y1="50.364" x2="36.514" y2="51.93"/>
		
			<line style="clip-path:url(#SVGID_4_);fill:none;stroke:#000000;stroke-width:0;stroke-miterlimit:1;" x1="36.514" y1="51.93" x2="36.656" y2="53.637"/>
	</g>
	<g>
		<defs>
			<polygon id="SVGID_5_" points="0,184.751 296.938,184.751 296.938,0 0,0 0,184.751 			"/>
		</defs>
		<clipPath id="SVGID_6_">
			<use xlink:href="#SVGID_5_"  style="overflow:visible;"/>
		</clipPath>
		
			<line style="clip-path:url(#SVGID_6_);fill:none;stroke:#000000;stroke-width:0;stroke-miterlimit:1;" x1="60.459" y1="45.477" x2="63.02" y2="52.731"/>
		
			<line style="clip-path:url(#SVGID_6_);fill:none;stroke:#000000;stroke-width:0;stroke-miterlimit:1;" x1="63.02" y1="52.731" x2="63.02" y2="54.438"/>
		
			<line style="clip-path:url(#SVGID_6_);fill:none;stroke:#000000;stroke-width:0;stroke-miterlimit:1;" x1="63.02" y1="54.438" x2="62.735" y2="55.434"/>
		
			<line style="clip-path:url(#SVGID_6_);fill:none;stroke:#000000;stroke-width:0;stroke-miterlimit:1;" x1="62.735" y1="55.434" x2="58.184" y2="63.827"/>
		
			<line style="clip-path:url(#SVGID_6_);fill:none;stroke:#000000;stroke-width:0;stroke-miterlimit:1;" x1="58.184" y1="63.827" x2="57.472" y2="64.965"/>
		
			<line style="clip-path:url(#SVGID_6_);fill:none;stroke:#000000;stroke-width:0;stroke-miterlimit:1;" x1="57.472" y1="64.965" x2="56.477" y2="65.392"/>
		
			<line style="clip-path:url(#SVGID_6_);fill:none;stroke:#000000;stroke-width:0;stroke-miterlimit:1;" x1="56.477" y1="65.392" x2="55.48" y2="65.818"/>
		
			<line style="clip-path:url(#SVGID_6_);fill:none;stroke:#000000;stroke-width:0;stroke-miterlimit:1;" x1="55.48" y1="65.818" x2="49.933" y2="66.103"/>
		
			<line style="clip-path:url(#SVGID_6_);fill:none;stroke:#000000;stroke-width:0;stroke-miterlimit:1;" x1="49.933" y1="66.103" x2="48.653" y2="66.387"/>
		
			<line style="clip-path:url(#SVGID_6_);fill:none;stroke:#000000;stroke-width:0;stroke-miterlimit:1;" x1="48.653" y1="66.387" x2="47.799" y2="66.956"/>
		
			<line style="clip-path:url(#SVGID_6_);fill:none;stroke:#000000;stroke-width:0;stroke-miterlimit:1;" x1="47.799" y1="66.956" x2="47.23" y2="67.667"/>
		
			<line style="clip-path:url(#SVGID_6_);fill:none;stroke:#000000;stroke-width:0;stroke-miterlimit:1;" x1="47.23" y1="67.667" x2="47.088" y2="68.094"/>
		
			<line style="clip-path:url(#SVGID_6_);fill:none;stroke:#000000;stroke-width:0;stroke-miterlimit:1;" x1="47.088" y1="68.094" x2="47.799" y2="68.094"/>
		
			<line style="clip-path:url(#SVGID_6_);fill:none;stroke:#000000;stroke-width:0;stroke-miterlimit:1;" x1="47.799" y1="68.094" x2="48.511" y2="67.383"/>
		
			<line style="clip-path:url(#SVGID_6_);fill:none;stroke:#000000;stroke-width:0;stroke-miterlimit:1;" x1="48.511" y1="67.383" x2="49.222" y2="67.383"/>
		
			<line style="clip-path:url(#SVGID_6_);fill:none;stroke:#000000;stroke-width:0;stroke-miterlimit:1;" x1="49.222" y1="67.383" x2="49.506" y2="67.952"/>
		
			<line style="clip-path:url(#SVGID_6_);fill:none;stroke:#000000;stroke-width:0;stroke-miterlimit:1;" x1="49.506" y1="67.952" x2="54.77" y2="67.667"/>
		
			<line style="clip-path:url(#SVGID_6_);fill:none;stroke:#000000;stroke-width:0;stroke-miterlimit:1;" x1="54.77" y1="67.667" x2="58.184" y2="68.094"/>
		
			<line style="clip-path:url(#SVGID_6_);fill:none;stroke:#000000;stroke-width:0;stroke-miterlimit:1;" x1="58.184" y1="68.094" x2="59.037" y2="67.952"/>
		
			<line style="clip-path:url(#SVGID_6_);fill:none;stroke:#000000;stroke-width:0;stroke-miterlimit:1;" x1="59.037" y1="67.952" x2="59.606" y2="66.956"/>
		
			<line style="clip-path:url(#SVGID_6_);fill:none;stroke:#000000;stroke-width:0;stroke-miterlimit:1;" x1="59.606" y1="66.956" x2="60.317" y2="68.236"/>
		
			<line style="clip-path:url(#SVGID_6_);fill:none;stroke:#000000;stroke-width:0;stroke-miterlimit:1;" x1="60.317" y1="68.236" x2="60.886" y2="68.236"/>
		
			<line style="clip-path:url(#SVGID_6_);fill:none;stroke:#000000;stroke-width:0;stroke-miterlimit:1;" x1="60.886" y1="68.236" x2="61.028" y2="67.525"/>
		
			<line style="clip-path:url(#SVGID_6_);fill:none;stroke:#000000;stroke-width:0;stroke-miterlimit:1;" x1="61.028" y1="67.525" x2="60.459" y2="66.387"/>
		
			<line style="clip-path:url(#SVGID_6_);fill:none;stroke:#000000;stroke-width:0;stroke-miterlimit:1;" x1="60.459" y1="66.387" x2="60.175" y2="65.249"/>
		
			<line style="clip-path:url(#SVGID_6_);fill:none;stroke:#000000;stroke-width:0;stroke-miterlimit:1;" x1="60.175" y1="65.249" x2="60.886" y2="63.4"/>
		
			<line style="clip-path:url(#SVGID_6_);fill:none;stroke:#000000;stroke-width:0;stroke-miterlimit:1;" x1="60.886" y1="63.4" x2="63.02" y2="59.417"/>
		
			<line style="clip-path:url(#SVGID_6_);fill:none;stroke:#000000;stroke-width:0;stroke-miterlimit:1;" x1="63.02" y1="59.417" x2="64.016" y2="57.141"/>
		
			<line style="clip-path:url(#SVGID_6_);fill:none;stroke:#000000;stroke-width:0;stroke-miterlimit:1;" x1="64.016" y1="57.141" x2="64.727" y2="56.287"/>
		
			<line style="clip-path:url(#SVGID_6_);fill:none;stroke:#000000;stroke-width:0;stroke-miterlimit:1;" x1="64.727" y1="56.287" x2="65.58" y2="55.434"/>
		
			<line style="clip-path:url(#SVGID_6_);fill:none;stroke:#000000;stroke-width:0;stroke-miterlimit:1;" x1="65.58" y1="55.434" x2="65.58" y2="54.012"/>
		
			<line style="clip-path:url(#SVGID_6_);fill:none;stroke:#000000;stroke-width:0;stroke-miterlimit:1;" x1="65.58" y1="54.012" x2="67.999" y2="49.744"/>
	</g>
	<g>
		<defs>
			<polygon id="SVGID_7_" points="0,184.751 296.938,184.751 296.938,0 0,0 0,184.751 			"/>
		</defs>
		<clipPath id="SVGID_8_">
			<use xlink:href="#SVGID_7_"  style="overflow:visible;"/>
		</clipPath>
		
			<line style="clip-path:url(#SVGID_8_);fill:none;stroke:#000000;stroke-width:0;stroke-miterlimit:1;" x1="60.317" y1="24.993" x2="57.757" y2="26.558"/>
		
			<line style="clip-path:url(#SVGID_8_);fill:none;stroke:#000000;stroke-width:0;stroke-miterlimit:1;" x1="57.757" y1="26.558" x2="54.912" y2="27.411"/>
		
			<line style="clip-path:url(#SVGID_8_);fill:none;stroke:#000000;stroke-width:0;stroke-miterlimit:1;" x1="54.912" y1="27.411" x2="53.347" y2="28.264"/>
		
			<line style="clip-path:url(#SVGID_8_);fill:none;stroke:#000000;stroke-width:0;stroke-miterlimit:1;" x1="53.347" y1="28.264" x2="52.636" y2="29.544"/>
		
			<line style="clip-path:url(#SVGID_8_);fill:none;stroke:#000000;stroke-width:0;stroke-miterlimit:1;" x1="52.636" y1="29.544" x2="53.205" y2="30.967"/>
		
			<line style="clip-path:url(#SVGID_8_);fill:none;stroke:#000000;stroke-width:0;stroke-miterlimit:1;" x1="53.205" y1="30.967" x2="54.485" y2="32.816"/>
		
			<line style="clip-path:url(#SVGID_8_);fill:none;stroke:#000000;stroke-width:0;stroke-miterlimit:1;" x1="54.485" y1="32.816" x2="56.903" y2="34.381"/>
		
			<line style="clip-path:url(#SVGID_8_);fill:none;stroke:#000000;stroke-width:0;stroke-miterlimit:1;" x1="56.903" y1="34.381" x2="93.604" y2="45.192"/>
		
			<line style="clip-path:url(#SVGID_8_);fill:none;stroke:#000000;stroke-width:0;stroke-miterlimit:1;" x1="93.604" y1="45.192" x2="95.453" y2="45.334"/>
		
			<line style="clip-path:url(#SVGID_8_);fill:none;stroke:#000000;stroke-width:0;stroke-miterlimit:1;" x1="95.453" y1="45.334" x2="97.302" y2="45.334"/>
		
			<line style="clip-path:url(#SVGID_8_);fill:none;stroke:#000000;stroke-width:0;stroke-miterlimit:1;" x1="97.302" y1="45.334" x2="98.725" y2="44.766"/>
		
			<line style="clip-path:url(#SVGID_8_);fill:none;stroke:#000000;stroke-width:0;stroke-miterlimit:1;" x1="98.725" y1="44.766" x2="99.151" y2="44.196"/>
		
			<line style="clip-path:url(#SVGID_8_);fill:none;stroke:#000000;stroke-width:0;stroke-miterlimit:1;" x1="99.151" y1="44.196" x2="98.298" y2="43.485"/>
		
			<line style="clip-path:url(#SVGID_8_);fill:none;stroke:#000000;stroke-width:0;stroke-miterlimit:1;" x1="98.298" y1="43.485" x2="87.486" y2="37.226"/>
		
			<line style="clip-path:url(#SVGID_8_);fill:none;stroke:#000000;stroke-width:0;stroke-miterlimit:1;" x1="87.486" y1="37.226" x2="80.659" y2="32.39"/>
		
			<line style="clip-path:url(#SVGID_8_);fill:none;stroke:#000000;stroke-width:0;stroke-miterlimit:1;" x1="80.659" y1="32.39" x2="78.099" y2="29.829"/>
		
			<line style="clip-path:url(#SVGID_8_);fill:none;stroke:#000000;stroke-width:0;stroke-miterlimit:1;" x1="78.099" y1="29.829" x2="76.392" y2="28.122"/>
		
			<line style="clip-path:url(#SVGID_8_);fill:none;stroke:#000000;stroke-width:0;stroke-miterlimit:1;" x1="76.392" y1="28.122" x2="74.685" y2="26.984"/>
		
			<line style="clip-path:url(#SVGID_8_);fill:none;stroke:#000000;stroke-width:0;stroke-miterlimit:1;" x1="74.685" y1="26.984" x2="72.551" y2="25.562"/>
		
			<line style="clip-path:url(#SVGID_8_);fill:none;stroke:#000000;stroke-width:0;stroke-miterlimit:1;" x1="72.551" y1="25.562" x2="70.56" y2="24.281"/>
		
			<line style="clip-path:url(#SVGID_8_);fill:none;stroke:#000000;stroke-width:0;stroke-miterlimit:1;" x1="70.56" y1="24.281" x2="67.714" y2="23.144"/>
		
			<line style="clip-path:url(#SVGID_8_);fill:none;stroke:#000000;stroke-width:0;stroke-miterlimit:1;" x1="67.714" y1="23.144" x2="65.723" y2="22.717"/>
		
			<line style="clip-path:url(#SVGID_8_);fill:none;stroke:#000000;stroke-width:0;stroke-miterlimit:1;" x1="65.723" y1="22.717" x2="63.589" y2="22.432"/>
		
			<line style="clip-path:url(#SVGID_8_);fill:none;stroke:#000000;stroke-width:0;stroke-miterlimit:1;" x1="63.589" y1="22.432" x2="61.028" y2="22.574"/>
		
			<line style="clip-path:url(#SVGID_8_);fill:none;stroke:#000000;stroke-width:0;stroke-miterlimit:1;" x1="61.028" y1="22.574" x2="59.179" y2="23.712"/>
		
			<line style="clip-path:url(#SVGID_8_);fill:none;stroke:#000000;stroke-width:0;stroke-miterlimit:1;" x1="59.179" y1="23.712" x2="56.761" y2="25.419"/>
		
			<line style="clip-path:url(#SVGID_8_);fill:none;stroke:#000000;stroke-width:0;stroke-miterlimit:1;" x1="56.761" y1="25.419" x2="55.907" y2="25.704"/>
		
			<line style="clip-path:url(#SVGID_8_);fill:none;stroke:#000000;stroke-width:0;stroke-miterlimit:1;" x1="55.907" y1="25.704" x2="54.912" y2="25.562"/>
		
			<line style="clip-path:url(#SVGID_8_);fill:none;stroke:#000000;stroke-width:0;stroke-miterlimit:1;" x1="54.912" y1="25.562" x2="54.343" y2="24.851"/>
		
			<line style="clip-path:url(#SVGID_8_);fill:none;stroke:#000000;stroke-width:0;stroke-miterlimit:1;" x1="54.343" y1="24.851" x2="54.343" y2="23.997"/>
		
			<line style="clip-path:url(#SVGID_8_);fill:none;stroke:#000000;stroke-width:0;stroke-miterlimit:1;" x1="54.343" y1="23.997" x2="54.912" y2="23.001"/>
		
			<line style="clip-path:url(#SVGID_8_);fill:none;stroke:#000000;stroke-width:0;stroke-miterlimit:1;" x1="54.912" y1="23.001" x2="60.317" y2="11.906"/>
		
			<line style="clip-path:url(#SVGID_8_);fill:none;stroke:#000000;stroke-width:0;stroke-miterlimit:1;" x1="60.317" y1="11.906" x2="60.459" y2="10.625"/>
		
			<line style="clip-path:url(#SVGID_8_);fill:none;stroke:#000000;stroke-width:0;stroke-miterlimit:1;" x1="60.459" y1="10.625" x2="60.602" y2="9.203"/>
		
			<line style="clip-path:url(#SVGID_8_);fill:none;stroke:#000000;stroke-width:0;stroke-miterlimit:1;" x1="60.602" y1="9.203" x2="60.459" y2="7.78"/>
		
			<line style="clip-path:url(#SVGID_8_);fill:none;stroke:#000000;stroke-width:0;stroke-miterlimit:1;" x1="60.459" y1="7.78" x2="59.891" y2="6.216"/>
		
			<line style="clip-path:url(#SVGID_8_);fill:none;stroke:#000000;stroke-width:0;stroke-miterlimit:1;" x1="59.891" y1="6.216" x2="59.179" y2="5.078"/>
		
			<line style="clip-path:url(#SVGID_8_);fill:none;stroke:#000000;stroke-width:0;stroke-miterlimit:1;" x1="59.179" y1="5.078" x2="58.041" y2="4.509"/>
		
			<line style="clip-path:url(#SVGID_8_);fill:none;stroke:#000000;stroke-width:0;stroke-miterlimit:1;" x1="58.041" y1="4.509" x2="56.761" y2="4.224"/>
		
			<line style="clip-path:url(#SVGID_8_);fill:none;stroke:#000000;stroke-width:0;stroke-miterlimit:1;" x1="56.761" y1="4.224" x2="55.48" y2="4.224"/>
		
			<line style="clip-path:url(#SVGID_8_);fill:none;stroke:#000000;stroke-width:0;stroke-miterlimit:1;" x1="55.48" y1="4.224" x2="54.058" y2="4.509"/>
		
			<line style="clip-path:url(#SVGID_8_);fill:none;stroke:#000000;stroke-width:0;stroke-miterlimit:1;" x1="54.058" y1="4.509" x2="52.636" y2="5.22"/>
		
			<line style="clip-path:url(#SVGID_8_);fill:none;stroke:#000000;stroke-width:0;stroke-miterlimit:1;" x1="52.636" y1="5.22" x2="51.64" y2="6.216"/>
		
			<line style="clip-path:url(#SVGID_8_);fill:none;stroke:#000000;stroke-width:0;stroke-miterlimit:1;" x1="51.64" y1="6.216" x2="51.071" y2="6.927"/>
		
			<line style="clip-path:url(#SVGID_8_);fill:none;stroke:#000000;stroke-width:0;stroke-miterlimit:1;" x1="51.071" y1="6.927" x2="50.502" y2="8.065"/>
		
			<line style="clip-path:url(#SVGID_8_);fill:none;stroke:#000000;stroke-width:0;stroke-miterlimit:1;" x1="50.502" y1="8.065" x2="50.217" y2="8.776"/>
		
			<line style="clip-path:url(#SVGID_8_);fill:none;stroke:#000000;stroke-width:0;stroke-miterlimit:1;" x1="50.217" y1="8.776" x2="50.217" y2="10.199"/>
		
			<line style="clip-path:url(#SVGID_8_);fill:none;stroke:#000000;stroke-width:0;stroke-miterlimit:1;" x1="50.217" y1="10.199" x2="50.787" y2="11.621"/>
		
			<line style="clip-path:url(#SVGID_8_);fill:none;stroke:#000000;stroke-width:0;stroke-miterlimit:1;" x1="50.787" y1="11.621" x2="51.355" y2="12.19"/>
		
			<line style="clip-path:url(#SVGID_8_);fill:none;stroke:#000000;stroke-width:0;stroke-miterlimit:1;" x1="51.355" y1="12.19" x2="52.636" y2="12.901"/>
		
			<line style="clip-path:url(#SVGID_8_);fill:none;stroke:#000000;stroke-width:0;stroke-miterlimit:1;" x1="52.636" y1="12.901" x2="53.347" y2="13.186"/>
		
			<line style="clip-path:url(#SVGID_8_);fill:none;stroke:#000000;stroke-width:0;stroke-miterlimit:1;" x1="53.347" y1="13.186" x2="54.485" y2="13.613"/>
		
			<line style="clip-path:url(#SVGID_8_);fill:none;stroke:#000000;stroke-width:0;stroke-miterlimit:1;" x1="54.485" y1="13.613" x2="54.485" y2="14.75"/>
		
			<line style="clip-path:url(#SVGID_8_);fill:none;stroke:#000000;stroke-width:0;stroke-miterlimit:1;" x1="54.485" y1="14.75" x2="54.058" y2="17.027"/>
		
			<line style="clip-path:url(#SVGID_8_);fill:none;stroke:#000000;stroke-width:0;stroke-miterlimit:1;" x1="54.058" y1="17.027" x2="52.92" y2="19.303"/>
		
			<line style="clip-path:url(#SVGID_8_);fill:none;stroke:#000000;stroke-width:0;stroke-miterlimit:1;" x1="52.92" y1="19.303" x2="51.071" y2="21.294"/>
		
			<line style="clip-path:url(#SVGID_8_);fill:none;stroke:#000000;stroke-width:0;stroke-miterlimit:1;" x1="51.071" y1="21.294" x2="49.08" y2="23.286"/>
		
			<line style="clip-path:url(#SVGID_8_);fill:none;stroke:#000000;stroke-width:0;stroke-miterlimit:1;" x1="49.08" y1="23.286" x2="46.519" y2="26.131"/>
		
			<line style="clip-path:url(#SVGID_8_);fill:none;stroke:#000000;stroke-width:0;stroke-miterlimit:1;" x1="46.519" y1="26.131" x2="45.666" y2="27.98"/>
		
			<line style="clip-path:url(#SVGID_8_);fill:none;stroke:#000000;stroke-width:0;stroke-miterlimit:1;" x1="45.666" y1="27.98" x2="45.381" y2="30.114"/>
		
			<line style="clip-path:url(#SVGID_8_);fill:none;stroke:#000000;stroke-width:0;stroke-miterlimit:1;" x1="45.381" y1="30.114" x2="45.666" y2="31.963"/>
		
			<line style="clip-path:url(#SVGID_8_);fill:none;stroke:#000000;stroke-width:0;stroke-miterlimit:1;" x1="45.666" y1="31.963" x2="46.804" y2="34.097"/>
		
			<line style="clip-path:url(#SVGID_8_);fill:none;stroke:#000000;stroke-width:0;stroke-miterlimit:1;" x1="46.804" y1="34.097" x2="49.791" y2="37.368"/>
		
			<line style="clip-path:url(#SVGID_8_);fill:none;stroke:#000000;stroke-width:0;stroke-miterlimit:1;" x1="49.791" y1="37.368" x2="60.317" y2="45.334"/>
		
			<line style="clip-path:url(#SVGID_8_);fill:none;stroke:#000000;stroke-width:0;stroke-miterlimit:1;" x1="60.317" y1="45.334" x2="66.149" y2="48.606"/>
		
			<line style="clip-path:url(#SVGID_8_);fill:none;stroke:#000000;stroke-width:0;stroke-miterlimit:1;" x1="66.149" y1="48.606" x2="68.141" y2="50.028"/>
		
			<line style="clip-path:url(#SVGID_8_);fill:none;stroke:#000000;stroke-width:0;stroke-miterlimit:1;" x1="68.141" y1="50.028" x2="69.563" y2="51.451"/>
		
			<line style="clip-path:url(#SVGID_8_);fill:none;stroke:#000000;stroke-width:0;stroke-miterlimit:1;" x1="69.563" y1="51.451" x2="70.844" y2="53.727"/>
		
			<line style="clip-path:url(#SVGID_8_);fill:none;stroke:#000000;stroke-width:0;stroke-miterlimit:1;" x1="70.844" y1="53.727" x2="71.84" y2="55.719"/>
		
			<line style="clip-path:url(#SVGID_8_);fill:none;stroke:#000000;stroke-width:0;stroke-miterlimit:1;" x1="71.84" y1="55.719" x2="73.546" y2="63.4"/>
		
			<line style="clip-path:url(#SVGID_8_);fill:none;stroke:#000000;stroke-width:0;stroke-miterlimit:1;" x1="73.546" y1="63.4" x2="73.546" y2="64.396"/>
		
			<line style="clip-path:url(#SVGID_8_);fill:none;stroke:#000000;stroke-width:0;stroke-miterlimit:1;" x1="73.546" y1="64.396" x2="72.835" y2="64.822"/>
		
			<line style="clip-path:url(#SVGID_8_);fill:none;stroke:#000000;stroke-width:0;stroke-miterlimit:1;" x1="72.835" y1="64.822" x2="71.84" y2="65.249"/>
		
			<line style="clip-path:url(#SVGID_8_);fill:none;stroke:#000000;stroke-width:0;stroke-miterlimit:1;" x1="71.84" y1="65.249" x2="64.585" y2="66.245"/>
		
			<line style="clip-path:url(#SVGID_8_);fill:none;stroke:#000000;stroke-width:0;stroke-miterlimit:1;" x1="64.585" y1="66.245" x2="63.873" y2="66.672"/>
		
			<line style="clip-path:url(#SVGID_8_);fill:none;stroke:#000000;stroke-width:0;stroke-miterlimit:1;" x1="63.873" y1="66.672" x2="63.305" y2="67.525"/>
		
			<line style="clip-path:url(#SVGID_8_);fill:none;stroke:#000000;stroke-width:0;stroke-miterlimit:1;" x1="63.305" y1="67.525" x2="63.162" y2="68.094"/>
		
			<line style="clip-path:url(#SVGID_8_);fill:none;stroke:#000000;stroke-width:0;stroke-miterlimit:1;" x1="63.162" y1="68.094" x2="63.731" y2="68.236"/>
		
			<line style="clip-path:url(#SVGID_8_);fill:none;stroke:#000000;stroke-width:0;stroke-miterlimit:1;" x1="63.731" y1="68.236" x2="64.442" y2="67.099"/>
		
			<line style="clip-path:url(#SVGID_8_);fill:none;stroke:#000000;stroke-width:0;stroke-miterlimit:1;" x1="64.442" y1="67.099" x2="64.727" y2="67.099"/>
		
			<line style="clip-path:url(#SVGID_8_);fill:none;stroke:#000000;stroke-width:0;stroke-miterlimit:1;" x1="64.727" y1="67.099" x2="65.012" y2="68.236"/>
		
			<line style="clip-path:url(#SVGID_8_);fill:none;stroke:#000000;stroke-width:0;stroke-miterlimit:1;" x1="65.012" y1="68.236" x2="72.267" y2="67.525"/>
		
			<line style="clip-path:url(#SVGID_8_);fill:none;stroke:#000000;stroke-width:0;stroke-miterlimit:1;" x1="72.267" y1="67.525" x2="74.826" y2="68.094"/>
		
			<line style="clip-path:url(#SVGID_8_);fill:none;stroke:#000000;stroke-width:0;stroke-miterlimit:1;" x1="74.826" y1="68.094" x2="75.538" y2="67.81"/>
		
			<line style="clip-path:url(#SVGID_8_);fill:none;stroke:#000000;stroke-width:0;stroke-miterlimit:1;" x1="75.538" y1="67.81" x2="75.68" y2="66.956"/>
		
			<line style="clip-path:url(#SVGID_8_);fill:none;stroke:#000000;stroke-width:0;stroke-miterlimit:1;" x1="75.68" y1="66.956" x2="76.818" y2="67.952"/>
		
			<line style="clip-path:url(#SVGID_8_);fill:none;stroke:#000000;stroke-width:0;stroke-miterlimit:1;" x1="76.818" y1="67.952" x2="77.387" y2="67.952"/>
		
			<line style="clip-path:url(#SVGID_8_);fill:none;stroke:#000000;stroke-width:0;stroke-miterlimit:1;" x1="77.387" y1="67.952" x2="77.529" y2="67.383"/>
		
			<line style="clip-path:url(#SVGID_8_);fill:none;stroke:#000000;stroke-width:0;stroke-miterlimit:1;" x1="77.529" y1="67.383" x2="77.387" y2="66.813"/>
		
			<line style="clip-path:url(#SVGID_8_);fill:none;stroke:#000000;stroke-width:0;stroke-miterlimit:1;" x1="77.387" y1="66.813" x2="76.249" y2="65.676"/>
		
			<line style="clip-path:url(#SVGID_8_);fill:none;stroke:#000000;stroke-width:0;stroke-miterlimit:1;" x1="76.249" y1="65.676" x2="75.538" y2="64.111"/>
		
			<line style="clip-path:url(#SVGID_8_);fill:none;stroke:#000000;stroke-width:0;stroke-miterlimit:1;" x1="75.538" y1="64.111" x2="75.111" y2="56.714"/>
		
			<line style="clip-path:url(#SVGID_8_);fill:none;stroke:#000000;stroke-width:0;stroke-miterlimit:1;" x1="75.111" y1="56.714" x2="75.538" y2="55.292"/>
		
			<line style="clip-path:url(#SVGID_8_);fill:none;stroke:#000000;stroke-width:0;stroke-miterlimit:1;" x1="75.538" y1="55.292" x2="75.111" y2="54.153"/>
		
			<line style="clip-path:url(#SVGID_8_);fill:none;stroke:#000000;stroke-width:0;stroke-miterlimit:1;" x1="75.111" y1="54.153" x2="75.253" y2="50.882"/>
		
			<line style="clip-path:url(#SVGID_8_);fill:none;stroke:#000000;stroke-width:0;stroke-miterlimit:1;" x1="75.253" y1="50.882" x2="75.538" y2="49.887"/>
		
			<line style="clip-path:url(#SVGID_8_);fill:none;stroke:#000000;stroke-width:0;stroke-miterlimit:1;" x1="75.538" y1="49.887" x2="80.232" y2="49.602"/>
		
			<line style="clip-path:url(#SVGID_8_);fill:none;stroke:#000000;stroke-width:0;stroke-miterlimit:1;" x1="80.232" y1="49.602" x2="81.939" y2="49.175"/>
	</g>
	<g>
		<defs>
			<polygon id="SVGID_9_" points="0,184.751 296.938,184.751 296.938,0 0,0 0,184.751 			"/>
		</defs>
		<clipPath id="SVGID_10_">
			<use xlink:href="#SVGID_9_"  style="overflow:visible;"/>
		</clipPath>
		
			<line style="clip-path:url(#SVGID_10_);fill:none;stroke:#000000;stroke-width:0;stroke-miterlimit:1;" x1="92.466" y1="48.037" x2="95.453" y2="47.61"/>
		
			<line style="clip-path:url(#SVGID_10_);fill:none;stroke:#000000;stroke-width:0;stroke-miterlimit:1;" x1="95.453" y1="47.61" x2="96.733" y2="47.184"/>
		
			<line style="clip-path:url(#SVGID_10_);fill:none;stroke:#000000;stroke-width:0;stroke-miterlimit:1;" x1="96.733" y1="47.184" x2="97.587" y2="46.757"/>
		
			<line style="clip-path:url(#SVGID_10_);fill:none;stroke:#000000;stroke-width:0;stroke-miterlimit:1;" x1="97.587" y1="46.757" x2="97.444" y2="46.33"/>
		
			<line style="clip-path:url(#SVGID_10_);fill:none;stroke:#000000;stroke-width:0;stroke-miterlimit:1;" x1="97.444" y1="46.33" x2="92.75" y2="44.907"/>
	</g>
	<g>
		<defs>
			<polygon id="SVGID_11_" points="0,184.751 296.938,184.751 296.938,0 0,0 0,184.751 			"/>
		</defs>
		<clipPath id="SVGID_12_">
			<use xlink:href="#SVGID_11_"  style="overflow:visible;"/>
		</clipPath>
		
			<line style="clip-path:url(#SVGID_12_);fill:none;stroke:#000000;stroke-width:0;stroke-miterlimit:1;" x1="76.818" y1="41.92" x2="85.495" y2="52.873"/>
		
			<line style="clip-path:url(#SVGID_12_);fill:none;stroke:#000000;stroke-width:0;stroke-miterlimit:1;" x1="85.495" y1="52.873" x2="86.207" y2="53.585"/>
		
			<line style="clip-path:url(#SVGID_12_);fill:none;stroke:#000000;stroke-width:0;stroke-miterlimit:1;" x1="86.207" y1="53.585" x2="86.918" y2="53.727"/>
		
			<line style="clip-path:url(#SVGID_12_);fill:none;stroke:#000000;stroke-width:0;stroke-miterlimit:1;" x1="86.918" y1="53.727" x2="87.486" y2="53.727"/>
		
			<line style="clip-path:url(#SVGID_12_);fill:none;stroke:#000000;stroke-width:0;stroke-miterlimit:1;" x1="87.486" y1="53.727" x2="87.913" y2="53.3"/>
		
			<line style="clip-path:url(#SVGID_12_);fill:none;stroke:#000000;stroke-width:0;stroke-miterlimit:1;" x1="87.913" y1="53.3" x2="87.913" y2="52.731"/>
		
			<line style="clip-path:url(#SVGID_12_);fill:none;stroke:#000000;stroke-width:0;stroke-miterlimit:1;" x1="87.913" y1="52.731" x2="87.913" y2="52.305"/>
	</g>
	<g>
		<defs>
			<polygon id="SVGID_13_" points="0,184.751 296.938,184.751 296.938,0 0,0 0,184.751 			"/>
		</defs>
		<clipPath id="SVGID_14_">
			<use xlink:href="#SVGID_13_"  style="overflow:visible;"/>
		</clipPath>
		
			<line style="clip-path:url(#SVGID_14_);fill:none;stroke:#000000;stroke-width:0;stroke-miterlimit:1;" x1="80.374" y1="42.632" x2="87.771" y2="52.162"/>
		
			<line style="clip-path:url(#SVGID_14_);fill:none;stroke:#000000;stroke-width:0;stroke-miterlimit:1;" x1="87.771" y1="52.162" x2="88.482" y2="52.589"/>
		
			<line style="clip-path:url(#SVGID_14_);fill:none;stroke:#000000;stroke-width:0;stroke-miterlimit:1;" x1="88.482" y1="52.589" x2="89.193" y2="52.731"/>
		
			<line style="clip-path:url(#SVGID_14_);fill:none;stroke:#000000;stroke-width:0;stroke-miterlimit:1;" x1="89.193" y1="52.731" x2="89.763" y2="52.446"/>
		
			<line style="clip-path:url(#SVGID_14_);fill:none;stroke:#000000;stroke-width:0;stroke-miterlimit:1;" x1="89.763" y1="52.446" x2="90.047" y2="52.021"/>
		
			<line style="clip-path:url(#SVGID_14_);fill:none;stroke:#000000;stroke-width:0;stroke-miterlimit:1;" x1="90.047" y1="52.021" x2="90.047" y2="51.593"/>
	</g>
	<g>
		<defs>
			<polygon id="SVGID_15_" points="0,184.751 296.938,184.751 296.938,0 0,0 0,184.751 			"/>
		</defs>
		<clipPath id="SVGID_16_">
			<use xlink:href="#SVGID_15_"  style="overflow:visible;"/>
		</clipPath>
		
			<line style="clip-path:url(#SVGID_16_);fill:none;stroke:#000000;stroke-width:0;stroke-miterlimit:1;" x1="83.361" y1="43.2" x2="90.047" y2="51.309"/>
		
			<line style="clip-path:url(#SVGID_16_);fill:none;stroke:#000000;stroke-width:0;stroke-miterlimit:1;" x1="90.047" y1="51.309" x2="90.474" y2="51.735"/>
		
			<line style="clip-path:url(#SVGID_16_);fill:none;stroke:#000000;stroke-width:0;stroke-miterlimit:1;" x1="90.474" y1="51.735" x2="91.043" y2="51.878"/>
		
			<line style="clip-path:url(#SVGID_16_);fill:none;stroke:#000000;stroke-width:0;stroke-miterlimit:1;" x1="91.043" y1="51.878" x2="91.612" y2="51.309"/>
		
			<line style="clip-path:url(#SVGID_16_);fill:none;stroke:#000000;stroke-width:0;stroke-miterlimit:1;" x1="91.612" y1="51.309" x2="91.612" y2="51.024"/>
		
			<line style="clip-path:url(#SVGID_16_);fill:none;stroke:#000000;stroke-width:0;stroke-miterlimit:1;" x1="91.612" y1="51.024" x2="91.612" y2="50.598"/>
	</g>
	<g>
		<defs>
			<polygon id="SVGID_17_" points="0,184.751 296.938,184.751 296.938,0 0,0 0,184.751 			"/>
		</defs>
		<clipPath id="SVGID_18_">
			<use xlink:href="#SVGID_17_"  style="overflow:visible;"/>
		</clipPath>
		
			<line style="clip-path:url(#SVGID_18_);fill:none;stroke:#000000;stroke-width:0;stroke-miterlimit:1;" x1="86.775" y1="44.054" x2="91.754" y2="50.598"/>
		
			<line style="clip-path:url(#SVGID_18_);fill:none;stroke:#000000;stroke-width:0;stroke-miterlimit:1;" x1="91.754" y1="50.598" x2="92.466" y2="51.024"/>
		
			<line style="clip-path:url(#SVGID_18_);fill:none;stroke:#000000;stroke-width:0;stroke-miterlimit:1;" x1="92.466" y1="51.024" x2="92.893" y2="51.024"/>
		
			<line style="clip-path:url(#SVGID_18_);fill:none;stroke:#000000;stroke-width:0;stroke-miterlimit:1;" x1="92.893" y1="51.024" x2="93.319" y2="50.739"/>
		
			<line style="clip-path:url(#SVGID_18_);fill:none;stroke:#000000;stroke-width:0;stroke-miterlimit:1;" x1="93.319" y1="50.739" x2="93.604" y2="50.313"/>
		
			<line style="clip-path:url(#SVGID_18_);fill:none;stroke:#000000;stroke-width:0;stroke-miterlimit:1;" x1="93.604" y1="50.313" x2="93.604" y2="49.887"/>
		
			<line style="clip-path:url(#SVGID_18_);fill:none;stroke:#000000;stroke-width:0;stroke-miterlimit:1;" x1="93.604" y1="49.887" x2="89.763" y2="44.623"/>
	</g>
	<g>
		<defs>
			<polygon id="SVGID_19_" points="0,184.751 296.938,184.751 296.938,0 0,0 0,184.751 			"/>
		</defs>
		<clipPath id="SVGID_20_">
			<use xlink:href="#SVGID_19_"  style="overflow:visible;"/>
		</clipPath>
		
			<line style="clip-path:url(#SVGID_20_);fill:none;stroke:#000000;stroke-width:0;stroke-miterlimit:1;" x1="53.062" y1="8.492" x2="53.347" y2="7.923"/>
		
			<line style="clip-path:url(#SVGID_20_);fill:none;stroke:#000000;stroke-width:0;stroke-miterlimit:1;" x1="53.347" y1="7.923" x2="53.916" y2="7.496"/>
		
			<line style="clip-path:url(#SVGID_20_);fill:none;stroke:#000000;stroke-width:0;stroke-miterlimit:1;" x1="53.916" y1="7.496" x2="54.627" y2="7.354"/>
		
			<line style="clip-path:url(#SVGID_20_);fill:none;stroke:#000000;stroke-width:0;stroke-miterlimit:1;" x1="54.627" y1="7.354" x2="55.196" y2="7.638"/>
		
			<line style="clip-path:url(#SVGID_20_);fill:none;stroke:#000000;stroke-width:0;stroke-miterlimit:1;" x1="55.196" y1="7.638" x2="55.338" y2="8.207"/>
		
			<line style="clip-path:url(#SVGID_20_);fill:none;stroke:#000000;stroke-width:0;stroke-miterlimit:1;" x1="55.338" y1="8.207" x2="55.054" y2="8.634"/>
		
			<line style="clip-path:url(#SVGID_20_);fill:none;stroke:#000000;stroke-width:0;stroke-miterlimit:1;" x1="55.054" y1="8.634" x2="54.485" y2="9.061"/>
		
			<line style="clip-path:url(#SVGID_20_);fill:none;stroke:#000000;stroke-width:0;stroke-miterlimit:1;" x1="54.485" y1="9.061" x2="53.774" y2="9.203"/>
		
			<line style="clip-path:url(#SVGID_20_);fill:none;stroke:#000000;stroke-width:0;stroke-miterlimit:1;" x1="53.774" y1="9.203" x2="53.347" y2="8.776"/>
		
			<line style="clip-path:url(#SVGID_20_);fill:none;stroke:#000000;stroke-width:0;stroke-miterlimit:1;" x1="53.347" y1="8.776" x2="53.205" y2="7.923"/>
	</g>
	<g>
		<defs>
			<polygon id="SVGID_21_" points="0,184.751 296.938,184.751 296.938,0 0,0 0,184.751 			"/>
		</defs>
		<clipPath id="SVGID_22_">
			<use xlink:href="#SVGID_21_"  style="overflow:visible;"/>
		</clipPath>
		
			<line style="clip-path:url(#SVGID_22_);fill:none;stroke:#000000;stroke-width:0;stroke-miterlimit:1;" x1="56.334" y1="20.298" x2="67.287" y2="20.44"/>
		
			<line style="clip-path:url(#SVGID_22_);fill:none;stroke:#000000;stroke-width:0;stroke-miterlimit:1;" x1="67.287" y1="20.44" x2="67.287" y2="13.186"/>
		
			<line style="clip-path:url(#SVGID_22_);fill:none;stroke:#000000;stroke-width:0;stroke-miterlimit:1;" x1="67.287" y1="13.186" x2="66.719" y2="11.052"/>
		
			<line style="clip-path:url(#SVGID_22_);fill:none;stroke:#000000;stroke-width:0;stroke-miterlimit:1;" x1="66.719" y1="11.052" x2="65.153" y2="8.492"/>
		
			<line style="clip-path:url(#SVGID_22_);fill:none;stroke:#000000;stroke-width:0;stroke-miterlimit:1;" x1="65.153" y1="8.492" x2="64.016" y2="7.211"/>
		
			<line style="clip-path:url(#SVGID_22_);fill:none;stroke:#000000;stroke-width:0;stroke-miterlimit:1;" x1="64.016" y1="7.211" x2="62.878" y2="6.358"/>
		
			<line style="clip-path:url(#SVGID_22_);fill:none;stroke:#000000;stroke-width:0;stroke-miterlimit:1;" x1="62.878" y1="6.358" x2="61.882" y2="5.646"/>
		
			<line style="clip-path:url(#SVGID_22_);fill:none;stroke:#000000;stroke-width:0;stroke-miterlimit:1;" x1="61.882" y1="5.646" x2="60.459" y2="4.936"/>
		
			<line style="clip-path:url(#SVGID_22_);fill:none;stroke:#000000;stroke-width:0;stroke-miterlimit:1;" x1="60.459" y1="4.936" x2="59.464" y2="4.651"/>
		
			<line style="clip-path:url(#SVGID_22_);fill:none;stroke:#000000;stroke-width:0;stroke-miterlimit:1;" x1="59.464" y1="4.651" x2="58.468" y2="4.367"/>
		
			<line style="clip-path:url(#SVGID_22_);fill:none;stroke:#000000;stroke-width:0;stroke-miterlimit:1;" x1="58.468" y1="4.367" x2="57.614" y2="4.367"/>
		
			<line style="clip-path:url(#SVGID_22_);fill:none;stroke:#000000;stroke-width:0;stroke-miterlimit:1;" x1="57.614" y1="4.367" x2="56.761" y2="4.224"/>
	</g>
	<g>
		<defs>
			<polygon id="SVGID_23_" points="0,184.751 296.938,184.751 296.938,0 0,0 0,184.751 			"/>
		</defs>
		<clipPath id="SVGID_24_">
			<use xlink:href="#SVGID_23_"  style="overflow:visible;"/>
		</clipPath>
		
			<line style="clip-path:url(#SVGID_24_);fill:none;stroke:#000000;stroke-width:0;stroke-miterlimit:1;" x1="50.644" y1="8.065" x2="49.791" y2="8.776"/>
		
			<line style="clip-path:url(#SVGID_24_);fill:none;stroke:#000000;stroke-width:0;stroke-miterlimit:1;" x1="49.791" y1="8.776" x2="48.938" y2="9.63"/>
		
			<line style="clip-path:url(#SVGID_24_);fill:none;stroke:#000000;stroke-width:0;stroke-miterlimit:1;" x1="48.938" y1="9.63" x2="47.799" y2="10.341"/>
		
			<line style="clip-path:url(#SVGID_24_);fill:none;stroke:#000000;stroke-width:0;stroke-miterlimit:1;" x1="47.799" y1="10.341" x2="45.95" y2="11.052"/>
		
			<line style="clip-path:url(#SVGID_24_);fill:none;stroke:#000000;stroke-width:0;stroke-miterlimit:1;" x1="45.95" y1="11.052" x2="43.39" y2="12.617"/>
		
			<line style="clip-path:url(#SVGID_24_);fill:none;stroke:#000000;stroke-width:0;stroke-miterlimit:1;" x1="43.39" y1="12.617" x2="41.113" y2="14.608"/>
		
			<line style="clip-path:url(#SVGID_24_);fill:none;stroke:#000000;stroke-width:0;stroke-miterlimit:1;" x1="41.113" y1="14.608" x2="39.549" y2="16.458"/>
		
			<line style="clip-path:url(#SVGID_24_);fill:none;stroke:#000000;stroke-width:0;stroke-miterlimit:1;" x1="39.549" y1="16.458" x2="37.557" y2="19.445"/>
		
			<line style="clip-path:url(#SVGID_24_);fill:none;stroke:#000000;stroke-width:0;stroke-miterlimit:1;" x1="37.557" y1="19.445" x2="36.704" y2="22.432"/>
		
			<line style="clip-path:url(#SVGID_24_);fill:none;stroke:#000000;stroke-width:0;stroke-miterlimit:1;" x1="36.704" y1="22.432" x2="36.277" y2="24.139"/>
		
			<line style="clip-path:url(#SVGID_24_);fill:none;stroke:#000000;stroke-width:0;stroke-miterlimit:1;" x1="36.277" y1="24.139" x2="36.277" y2="24.851"/>
		
			<line style="clip-path:url(#SVGID_24_);fill:none;stroke:#000000;stroke-width:0;stroke-miterlimit:1;" x1="36.277" y1="24.851" x2="36.704" y2="25.135"/>
		
			<line style="clip-path:url(#SVGID_24_);fill:none;stroke:#000000;stroke-width:0;stroke-miterlimit:1;" x1="36.704" y1="25.135" x2="36.988" y2="24.851"/>
		
			<line style="clip-path:url(#SVGID_24_);fill:none;stroke:#000000;stroke-width:0;stroke-miterlimit:1;" x1="36.988" y1="24.851" x2="37.984" y2="22.29"/>
		
			<line style="clip-path:url(#SVGID_24_);fill:none;stroke:#000000;stroke-width:0;stroke-miterlimit:1;" x1="37.984" y1="22.29" x2="39.976" y2="19.161"/>
		
			<line style="clip-path:url(#SVGID_24_);fill:none;stroke:#000000;stroke-width:0;stroke-miterlimit:1;" x1="39.976" y1="19.161" x2="41.967" y2="16.458"/>
		
			<line style="clip-path:url(#SVGID_24_);fill:none;stroke:#000000;stroke-width:0;stroke-miterlimit:1;" x1="41.967" y1="16.458" x2="43.674" y2="14.893"/>
		
			<line style="clip-path:url(#SVGID_24_);fill:none;stroke:#000000;stroke-width:0;stroke-miterlimit:1;" x1="43.674" y1="14.893" x2="45.666" y2="13.471"/>
		
			<line style="clip-path:url(#SVGID_24_);fill:none;stroke:#000000;stroke-width:0;stroke-miterlimit:1;" x1="45.666" y1="13.471" x2="48.084" y2="12.333"/>
		
			<line style="clip-path:url(#SVGID_24_);fill:none;stroke:#000000;stroke-width:0;stroke-miterlimit:1;" x1="48.084" y1="12.333" x2="49.648" y2="11.906"/>
		
			<line style="clip-path:url(#SVGID_24_);fill:none;stroke:#000000;stroke-width:0;stroke-miterlimit:1;" x1="49.648" y1="11.906" x2="50.787" y2="11.621"/>
	</g>
	<g>
		<defs>
			<polygon id="SVGID_25_" points="0,184.751 296.938,184.751 296.938,0 0,0 0,184.751 			"/>
		</defs>
		<clipPath id="SVGID_26_">
			<use xlink:href="#SVGID_25_"  style="overflow:visible;"/>
		</clipPath>
		
			<line style="clip-path:url(#SVGID_26_);fill:none;stroke:#000000;stroke-width:0;stroke-miterlimit:1;" x1="37.273" y1="24.708" x2="37.984" y2="24.281"/>
		
			<line style="clip-path:url(#SVGID_26_);fill:none;stroke:#000000;stroke-width:0;stroke-miterlimit:1;" x1="37.984" y1="24.281" x2="40.118" y2="21.152"/>
		
			<line style="clip-path:url(#SVGID_26_);fill:none;stroke:#000000;stroke-width:0;stroke-miterlimit:1;" x1="40.118" y1="21.152" x2="41.54" y2="19.161"/>
		
			<line style="clip-path:url(#SVGID_26_);fill:none;stroke:#000000;stroke-width:0;stroke-miterlimit:1;" x1="41.54" y1="19.161" x2="43.39" y2="17.027"/>
		
			<line style="clip-path:url(#SVGID_26_);fill:none;stroke:#000000;stroke-width:0;stroke-miterlimit:1;" x1="43.39" y1="17.027" x2="45.523" y2="15.462"/>
		
			<line style="clip-path:url(#SVGID_26_);fill:none;stroke:#000000;stroke-width:0;stroke-miterlimit:1;" x1="45.523" y1="15.462" x2="47.515" y2="14.466"/>
		
			<line style="clip-path:url(#SVGID_26_);fill:none;stroke:#000000;stroke-width:0;stroke-miterlimit:1;" x1="47.515" y1="14.466" x2="49.222" y2="13.613"/>
		
			<line style="clip-path:url(#SVGID_26_);fill:none;stroke:#000000;stroke-width:0;stroke-miterlimit:1;" x1="49.222" y1="13.613" x2="52.636" y2="13.328"/>
		
			<line style="clip-path:url(#SVGID_26_);fill:none;stroke:#000000;stroke-width:0;stroke-miterlimit:1;" x1="52.636" y1="13.328" x2="53.916" y2="13.471"/>
	</g>
</g>
</svg>
