<?xml version="1.0" encoding="iso-8859-1"?>
<!-- Generator: Adobe Illustrator 16.0.1, SVG Export Plug-In . SVG Version: 6.00 Build 0)  -->
<!DOCTYPE svg PUBLIC "-//W3C//DTD SVG 1.1//EN" "http://www.w3.org/Graphics/SVG/1.1/DTD/svg11.dtd">
<svg version="1.1" id="Ebene_1" xmlns="http://www.w3.org/2000/svg" xmlns:xlink="http://www.w3.org/1999/xlink" x="0px" y="0px"
	 width="239.901px" height="211.58px" viewBox="0 0 239.901 211.58" style="enable-background:new 0 0 239.901 211.58;"
	 xml:space="preserve">
<g>
	<g>
		<defs>
			<polygon id="SVGID_1_" points="62.869,191.807 224.883,191.807 224.883,40.825 62.869,40.825 62.869,191.807 			"/>
		</defs>
		<clipPath id="SVGID_2_">
			<use xlink:href="#SVGID_1_"  style="overflow:visible;"/>
		</clipPath>
		
			<line style="clip-path:url(#SVGID_2_);fill:none;stroke:#000000;stroke-width:0;stroke-miterlimit:1;" x1="91.427" y1="65.221" x2="92.759" y2="66.054"/>
		
			<line style="clip-path:url(#SVGID_2_);fill:none;stroke:#000000;stroke-width:0;stroke-miterlimit:1;" x1="92.759" y1="66.054" x2="93.758" y2="66.387"/>
		
			<line style="clip-path:url(#SVGID_2_);fill:none;stroke:#000000;stroke-width:0;stroke-miterlimit:1;" x1="93.758" y1="66.387" x2="94.258" y2="66.387"/>
		
			<line style="clip-path:url(#SVGID_2_);fill:none;stroke:#000000;stroke-width:0;stroke-miterlimit:1;" x1="94.258" y1="66.387" x2="94.757" y2="65.887"/>
		
			<line style="clip-path:url(#SVGID_2_);fill:none;stroke:#000000;stroke-width:0;stroke-miterlimit:1;" x1="94.757" y1="65.887" x2="95.423" y2="65.221"/>
		
			<line style="clip-path:url(#SVGID_2_);fill:none;stroke:#000000;stroke-width:0;stroke-miterlimit:1;" x1="95.423" y1="65.221" x2="98.753" y2="59.394"/>
		
			<line style="clip-path:url(#SVGID_2_);fill:none;stroke:#000000;stroke-width:0;stroke-miterlimit:1;" x1="98.753" y1="59.394" x2="98.753" y2="58.562"/>
		
			<line style="clip-path:url(#SVGID_2_);fill:none;stroke:#000000;stroke-width:0;stroke-miterlimit:1;" x1="98.753" y1="58.562" x2="98.586" y2="58.229"/>
		
			<line style="clip-path:url(#SVGID_2_);fill:none;stroke:#000000;stroke-width:0;stroke-miterlimit:1;" x1="98.586" y1="58.229" x2="98.253" y2="57.729"/>
		
			<line style="clip-path:url(#SVGID_2_);fill:none;stroke:#000000;stroke-width:0;stroke-miterlimit:1;" x1="98.253" y1="57.729" x2="97.088" y2="57.063"/>
		
			<line style="clip-path:url(#SVGID_2_);fill:none;stroke:#000000;stroke-width:0;stroke-miterlimit:1;" x1="97.088" y1="57.063" x2="69.784" y2="44.244"/>
		
			<line style="clip-path:url(#SVGID_2_);fill:none;stroke:#000000;stroke-width:0;stroke-miterlimit:1;" x1="69.784" y1="44.244" x2="69.118" y2="44.078"/>
		
			<line style="clip-path:url(#SVGID_2_);fill:none;stroke:#000000;stroke-width:0;stroke-miterlimit:1;" x1="69.118" y1="44.078" x2="68.286" y2="43.911"/>
		
			<line style="clip-path:url(#SVGID_2_);fill:none;stroke:#000000;stroke-width:0;stroke-miterlimit:1;" x1="68.286" y1="43.911" x2="67.454" y2="44.244"/>
		
			<line style="clip-path:url(#SVGID_2_);fill:none;stroke:#000000;stroke-width:0;stroke-miterlimit:1;" x1="67.454" y1="44.244" x2="66.621" y2="44.744"/>
		
			<line style="clip-path:url(#SVGID_2_);fill:none;stroke:#000000;stroke-width:0;stroke-miterlimit:1;" x1="66.621" y1="44.744" x2="66.288" y2="45.243"/>
		
			<line style="clip-path:url(#SVGID_2_);fill:none;stroke:#000000;stroke-width:0;stroke-miterlimit:1;" x1="66.288" y1="45.243" x2="65.955" y2="46.242"/>
		
			<line style="clip-path:url(#SVGID_2_);fill:none;stroke:#000000;stroke-width:0;stroke-miterlimit:1;" x1="65.955" y1="46.242" x2="65.955" y2="46.908"/>
		
			<line style="clip-path:url(#SVGID_2_);fill:none;stroke:#000000;stroke-width:0;stroke-miterlimit:1;" x1="65.955" y1="46.908" x2="66.288" y2="47.74"/>
		
			<line style="clip-path:url(#SVGID_2_);fill:none;stroke:#000000;stroke-width:0;stroke-miterlimit:1;" x1="66.288" y1="47.74" x2="66.788" y2="48.406"/>
		
			<line style="clip-path:url(#SVGID_2_);fill:none;stroke:#000000;stroke-width:0;stroke-miterlimit:1;" x1="66.788" y1="48.406" x2="67.62" y2="49.239"/>
		
			<line style="clip-path:url(#SVGID_2_);fill:none;stroke:#000000;stroke-width:0;stroke-miterlimit:1;" x1="67.62" y1="49.239" x2="91.427" y2="65.221"/>
	</g>
	<g>
		<defs>
			<polygon id="SVGID_3_" points="62.869,191.807 239.901,191.807 239.901,13.514 62.869,13.514 62.869,191.807 			"/>
		</defs>
		<clipPath id="SVGID_4_">
			<use xlink:href="#SVGID_3_"  style="overflow:visible;"/>
		</clipPath>
		
			<line style="clip-path:url(#SVGID_4_);fill:none;stroke:#000000;stroke-width:0;stroke-miterlimit:1;" x1="80.617" y1="34.381" x2="99.109" y2="16.6"/>
	</g>
	<g>
		<defs>
			<polygon id="SVGID_5_" points="62.869,191.807 239.901,191.807 239.901,6.97 62.869,6.97 62.869,191.807 			"/>
		</defs>
		<clipPath id="SVGID_6_">
			<use xlink:href="#SVGID_5_"  style="overflow:visible;"/>
		</clipPath>
		
			<line style="clip-path:url(#SVGID_6_);fill:none;stroke:#000000;stroke-width:0;stroke-miterlimit:1;" x1="73.931" y1="31.82" x2="96.691" y2="10.056"/>
	</g>
	<g>
		<defs>
			<polygon id="SVGID_7_" points="62.869,191.807 239.901,191.807 239.901,6.97 62.869,6.97 62.869,191.807 			"/>
		</defs>
		<clipPath id="SVGID_8_">
			<use xlink:href="#SVGID_7_"  style="overflow:visible;"/>
		</clipPath>
		
			<line style="clip-path:url(#SVGID_8_);fill:none;stroke:#000000;stroke-width:0;stroke-miterlimit:1;" x1="69.521" y1="27.126" x2="92.281" y2="5.362"/>
	</g>
	<g>
		<defs>
			<polygon id="SVGID_9_" points="62.869,191.807 239.901,191.807 239.901,0 62.869,0 62.869,191.807 			"/>
		</defs>
		<clipPath id="SVGID_10_">
			<use xlink:href="#SVGID_9_"  style="overflow:visible;"/>
		</clipPath>
		
			<line style="clip-path:url(#SVGID_10_);fill:none;stroke:#000000;stroke-width:0;stroke-miterlimit:1;" x1="67.246" y1="20.44" x2="85.453" y2="3.086"/>
	</g>
	<g>
		<defs>
			<polygon id="SVGID_11_" points="62.869,191.807 239.901,191.807 239.901,0 62.869,0 62.869,191.807 			"/>
		</defs>
		<clipPath id="SVGID_12_">
			<use xlink:href="#SVGID_11_"  style="overflow:visible;"/>
		</clipPath>
		
			<line style="clip-path:url(#SVGID_12_);fill:none;stroke:#000000;stroke-width:0;stroke-miterlimit:1;" x1="89.863" y1="4.082" x2="88.298" y2="3.655"/>
		
			<line style="clip-path:url(#SVGID_12_);fill:none;stroke:#000000;stroke-width:0;stroke-miterlimit:1;" x1="88.298" y1="3.655" x2="86.733" y2="3.086"/>
		
			<line style="clip-path:url(#SVGID_12_);fill:none;stroke:#000000;stroke-width:0;stroke-miterlimit:1;" x1="86.733" y1="3.086" x2="85.026" y2="2.801"/>
		
			<line style="clip-path:url(#SVGID_12_);fill:none;stroke:#000000;stroke-width:0;stroke-miterlimit:1;" x1="85.026" y1="2.801" x2="83.32" y2="2.801"/>
		
			<line style="clip-path:url(#SVGID_12_);fill:none;stroke:#000000;stroke-width:0;stroke-miterlimit:1;" x1="83.32" y1="2.801" x2="81.47" y2="2.943"/>
		
			<line style="clip-path:url(#SVGID_12_);fill:none;stroke:#000000;stroke-width:0;stroke-miterlimit:1;" x1="81.47" y1="2.943" x2="79.906" y2="3.086"/>
		
			<line style="clip-path:url(#SVGID_12_);fill:none;stroke:#000000;stroke-width:0;stroke-miterlimit:1;" x1="79.906" y1="3.086" x2="78.199" y2="3.655"/>
		
			<line style="clip-path:url(#SVGID_12_);fill:none;stroke:#000000;stroke-width:0;stroke-miterlimit:1;" x1="78.199" y1="3.655" x2="76.633" y2="4.224"/>
		
			<line style="clip-path:url(#SVGID_12_);fill:none;stroke:#000000;stroke-width:0;stroke-miterlimit:1;" x1="76.633" y1="4.224" x2="75.069" y2="4.935"/>
		
			<line style="clip-path:url(#SVGID_12_);fill:none;stroke:#000000;stroke-width:0;stroke-miterlimit:1;" x1="75.069" y1="4.935" x2="73.646" y2="5.931"/>
		
			<line style="clip-path:url(#SVGID_12_);fill:none;stroke:#000000;stroke-width:0;stroke-miterlimit:1;" x1="73.646" y1="5.931" x2="72.508" y2="6.927"/>
		
			<line style="clip-path:url(#SVGID_12_);fill:none;stroke:#000000;stroke-width:0;stroke-miterlimit:1;" x1="72.508" y1="6.927" x2="71.371" y2="8.064"/>
		
			<line style="clip-path:url(#SVGID_12_);fill:none;stroke:#000000;stroke-width:0;stroke-miterlimit:1;" x1="71.371" y1="8.064" x2="70.517" y2="9.06"/>
		
			<line style="clip-path:url(#SVGID_12_);fill:none;stroke:#000000;stroke-width:0;stroke-miterlimit:1;" x1="70.517" y1="9.06" x2="69.664" y2="10.34"/>
		
			<line style="clip-path:url(#SVGID_12_);fill:none;stroke:#000000;stroke-width:0;stroke-miterlimit:1;" x1="69.664" y1="10.34" x2="68.667" y2="12.19"/>
		
			<line style="clip-path:url(#SVGID_12_);fill:none;stroke:#000000;stroke-width:0;stroke-miterlimit:1;" x1="68.667" y1="12.19" x2="68.241" y2="13.612"/>
		
			<line style="clip-path:url(#SVGID_12_);fill:none;stroke:#000000;stroke-width:0;stroke-miterlimit:1;" x1="68.241" y1="13.612" x2="67.814" y2="15.177"/>
		
			<line style="clip-path:url(#SVGID_12_);fill:none;stroke:#000000;stroke-width:0;stroke-miterlimit:1;" x1="67.814" y1="15.177" x2="67.53" y2="16.742"/>
		
			<line style="clip-path:url(#SVGID_12_);fill:none;stroke:#000000;stroke-width:0;stroke-miterlimit:1;" x1="67.53" y1="16.742" x2="67.246" y2="18.591"/>
		
			<line style="clip-path:url(#SVGID_12_);fill:none;stroke:#000000;stroke-width:0;stroke-miterlimit:1;" x1="67.246" y1="18.591" x2="67.246" y2="20.156"/>
		
			<line style="clip-path:url(#SVGID_12_);fill:none;stroke:#000000;stroke-width:0;stroke-miterlimit:1;" x1="67.246" y1="20.156" x2="67.53" y2="22.005"/>
		
			<line style="clip-path:url(#SVGID_12_);fill:none;stroke:#000000;stroke-width:0;stroke-miterlimit:1;" x1="67.53" y1="22.005" x2="67.957" y2="23.57"/>
		
			<line style="clip-path:url(#SVGID_12_);fill:none;stroke:#000000;stroke-width:0;stroke-miterlimit:1;" x1="67.957" y1="23.57" x2="68.383" y2="24.992"/>
		
			<line style="clip-path:url(#SVGID_12_);fill:none;stroke:#000000;stroke-width:0;stroke-miterlimit:1;" x1="68.383" y1="24.992" x2="69.094" y2="26.557"/>
		
			<line style="clip-path:url(#SVGID_12_);fill:none;stroke:#000000;stroke-width:0;stroke-miterlimit:1;" x1="69.094" y1="26.557" x2="69.521" y2="27.411"/>
		
			<line style="clip-path:url(#SVGID_12_);fill:none;stroke:#000000;stroke-width:0;stroke-miterlimit:1;" x1="69.521" y1="27.411" x2="70.09" y2="28.122"/>
		
			<line style="clip-path:url(#SVGID_12_);fill:none;stroke:#000000;stroke-width:0;stroke-miterlimit:1;" x1="70.09" y1="28.122" x2="71.512" y2="29.687"/>
		
			<line style="clip-path:url(#SVGID_12_);fill:none;stroke:#000000;stroke-width:0;stroke-miterlimit:1;" x1="71.512" y1="29.687" x2="72.935" y2="31.109"/>
		
			<line style="clip-path:url(#SVGID_12_);fill:none;stroke:#000000;stroke-width:0;stroke-miterlimit:1;" x1="72.935" y1="31.109" x2="74.215" y2="32.104"/>
		
			<line style="clip-path:url(#SVGID_12_);fill:none;stroke:#000000;stroke-width:0;stroke-miterlimit:1;" x1="74.215" y1="32.104" x2="75.78" y2="32.958"/>
		
			<line style="clip-path:url(#SVGID_12_);fill:none;stroke:#000000;stroke-width:0;stroke-miterlimit:1;" x1="75.78" y1="32.958" x2="77.487" y2="33.812"/>
		
			<line style="clip-path:url(#SVGID_12_);fill:none;stroke:#000000;stroke-width:0;stroke-miterlimit:1;" x1="77.487" y1="33.812" x2="79.194" y2="34.238"/>
		
			<line style="clip-path:url(#SVGID_12_);fill:none;stroke:#000000;stroke-width:0;stroke-miterlimit:1;" x1="79.194" y1="34.238" x2="80.617" y2="34.665"/>
		
			<line style="clip-path:url(#SVGID_12_);fill:none;stroke:#000000;stroke-width:0;stroke-miterlimit:1;" x1="80.617" y1="34.665" x2="82.324" y2="34.665"/>
		
			<line style="clip-path:url(#SVGID_12_);fill:none;stroke:#000000;stroke-width:0;stroke-miterlimit:1;" x1="82.324" y1="34.665" x2="84.031" y2="34.808"/>
		
			<line style="clip-path:url(#SVGID_12_);fill:none;stroke:#000000;stroke-width:0;stroke-miterlimit:1;" x1="84.031" y1="34.808" x2="86.022" y2="34.523"/>
		
			<line style="clip-path:url(#SVGID_12_);fill:none;stroke:#000000;stroke-width:0;stroke-miterlimit:1;" x1="86.022" y1="34.523" x2="87.445" y2="34.238"/>
		
			<line style="clip-path:url(#SVGID_12_);fill:none;stroke:#000000;stroke-width:0;stroke-miterlimit:1;" x1="87.445" y1="34.238" x2="89.152" y2="33.527"/>
		
			<line style="clip-path:url(#SVGID_12_);fill:none;stroke:#000000;stroke-width:0;stroke-miterlimit:1;" x1="89.152" y1="33.527" x2="90.859" y2="32.674"/>
		
			<line style="clip-path:url(#SVGID_12_);fill:none;stroke:#000000;stroke-width:0;stroke-miterlimit:1;" x1="90.859" y1="32.674" x2="91.997" y2="32.104"/>
		
			<line style="clip-path:url(#SVGID_12_);fill:none;stroke:#000000;stroke-width:0;stroke-miterlimit:1;" x1="91.997" y1="32.104" x2="93.277" y2="30.967"/>
		
			<line style="clip-path:url(#SVGID_12_);fill:none;stroke:#000000;stroke-width:0;stroke-miterlimit:1;" x1="93.277" y1="30.967" x2="94.557" y2="29.829"/>
		
			<line style="clip-path:url(#SVGID_12_);fill:none;stroke:#000000;stroke-width:0;stroke-miterlimit:1;" x1="94.557" y1="29.829" x2="95.837" y2="28.548"/>
		
			<line style="clip-path:url(#SVGID_12_);fill:none;stroke:#000000;stroke-width:0;stroke-miterlimit:1;" x1="95.837" y1="28.548" x2="96.833" y2="26.984"/>
		
			<line style="clip-path:url(#SVGID_12_);fill:none;stroke:#000000;stroke-width:0;stroke-miterlimit:1;" x1="96.833" y1="26.984" x2="97.829" y2="25.561"/>
		
			<line style="clip-path:url(#SVGID_12_);fill:none;stroke:#000000;stroke-width:0;stroke-miterlimit:1;" x1="97.829" y1="25.561" x2="98.54" y2="24.139"/>
		
			<line style="clip-path:url(#SVGID_12_);fill:none;stroke:#000000;stroke-width:0;stroke-miterlimit:1;" x1="98.54" y1="24.139" x2="98.966" y2="22.432"/>
		
			<line style="clip-path:url(#SVGID_12_);fill:none;stroke:#000000;stroke-width:0;stroke-miterlimit:1;" x1="98.966" y1="22.432" x2="99.109" y2="20.867"/>
		
			<line style="clip-path:url(#SVGID_12_);fill:none;stroke:#000000;stroke-width:0;stroke-miterlimit:1;" x1="99.109" y1="20.867" x2="99.393" y2="19.018"/>
		
			<line style="clip-path:url(#SVGID_12_);fill:none;stroke:#000000;stroke-width:0;stroke-miterlimit:1;" x1="99.393" y1="19.018" x2="99.251" y2="17.453"/>
		
			<line style="clip-path:url(#SVGID_12_);fill:none;stroke:#000000;stroke-width:0;stroke-miterlimit:1;" x1="99.251" y1="17.453" x2="99.109" y2="15.604"/>
		
			<line style="clip-path:url(#SVGID_12_);fill:none;stroke:#000000;stroke-width:0;stroke-miterlimit:1;" x1="99.109" y1="15.604" x2="98.682" y2="14.039"/>
		
			<line style="clip-path:url(#SVGID_12_);fill:none;stroke:#000000;stroke-width:0;stroke-miterlimit:1;" x1="98.682" y1="14.039" x2="98.113" y2="12.617"/>
		
			<line style="clip-path:url(#SVGID_12_);fill:none;stroke:#000000;stroke-width:0;stroke-miterlimit:1;" x1="98.113" y1="12.617" x2="97.402" y2="10.767"/>
		
			<line style="clip-path:url(#SVGID_12_);fill:none;stroke:#000000;stroke-width:0;stroke-miterlimit:1;" x1="97.402" y1="10.767" x2="96.406" y2="9.345"/>
		
			<line style="clip-path:url(#SVGID_12_);fill:none;stroke:#000000;stroke-width:0;stroke-miterlimit:1;" x1="96.406" y1="9.345" x2="95.411" y2="8.207"/>
		
			<line style="clip-path:url(#SVGID_12_);fill:none;stroke:#000000;stroke-width:0;stroke-miterlimit:1;" x1="95.411" y1="8.207" x2="94.273" y2="6.784"/>
		
			<line style="clip-path:url(#SVGID_12_);fill:none;stroke:#000000;stroke-width:0;stroke-miterlimit:1;" x1="94.273" y1="6.784" x2="92.85" y2="5.789"/>
		
			<line style="clip-path:url(#SVGID_12_);fill:none;stroke:#000000;stroke-width:0;stroke-miterlimit:1;" x1="92.85" y1="5.789" x2="91.427" y2="4.793"/>
		
			<line style="clip-path:url(#SVGID_12_);fill:none;stroke:#000000;stroke-width:0;stroke-miterlimit:1;" x1="91.427" y1="4.793" x2="89.863" y2="4.082"/>
	</g>
	<g>
		<defs>
			<polygon id="SVGID_13_" points="62.869,191.807 239.901,191.807 239.901,0 62.869,0 62.869,191.807 			"/>
		</defs>
		<clipPath id="SVGID_14_">
			<use xlink:href="#SVGID_13_"  style="overflow:visible;"/>
		</clipPath>
		
			<line style="clip-path:url(#SVGID_14_);fill:none;stroke:#000000;stroke-width:0;stroke-miterlimit:1;" x1="22.76" y1="18.591" x2="21.053" y2="20.44"/>
		
			<line style="clip-path:url(#SVGID_14_);fill:none;stroke:#000000;stroke-width:0;stroke-miterlimit:1;" x1="21.053" y1="20.44" x2="20.484" y2="22.716"/>
		
			<line style="clip-path:url(#SVGID_14_);fill:none;stroke:#000000;stroke-width:0;stroke-miterlimit:1;" x1="20.484" y1="22.716" x2="20.911" y2="24.992"/>
		
			<line style="clip-path:url(#SVGID_14_);fill:none;stroke:#000000;stroke-width:0;stroke-miterlimit:1;" x1="20.911" y1="24.992" x2="21.906" y2="26.699"/>
		
			<line style="clip-path:url(#SVGID_14_);fill:none;stroke:#000000;stroke-width:0;stroke-miterlimit:1;" x1="21.906" y1="26.699" x2="24.609" y2="29.26"/>
		
			<line style="clip-path:url(#SVGID_14_);fill:none;stroke:#000000;stroke-width:0;stroke-miterlimit:1;" x1="24.609" y1="29.26" x2="29.303" y2="31.82"/>
		
			<line style="clip-path:url(#SVGID_14_);fill:none;stroke:#000000;stroke-width:0;stroke-miterlimit:1;" x1="29.303" y1="31.82" x2="37.412" y2="34.808"/>
		
			<line style="clip-path:url(#SVGID_14_);fill:none;stroke:#000000;stroke-width:0;stroke-miterlimit:1;" x1="37.412" y1="34.808" x2="47.084" y2="36.799"/>
		
			<line style="clip-path:url(#SVGID_14_);fill:none;stroke:#000000;stroke-width:0;stroke-miterlimit:1;" x1="47.084" y1="36.799" x2="56.757" y2="37.937"/>
		
			<line style="clip-path:url(#SVGID_14_);fill:none;stroke:#000000;stroke-width:0;stroke-miterlimit:1;" x1="56.757" y1="37.937" x2="59.887" y2="38.221"/>
		
			<line style="clip-path:url(#SVGID_14_);fill:none;stroke:#000000;stroke-width:0;stroke-miterlimit:1;" x1="59.887" y1="38.221" x2="61.878" y2="38.364"/>
		
			<line style="clip-path:url(#SVGID_14_);fill:none;stroke:#000000;stroke-width:0;stroke-miterlimit:1;" x1="61.878" y1="38.364" x2="62.875" y2="38.08"/>
		
			<line style="clip-path:url(#SVGID_14_);fill:none;stroke:#000000;stroke-width:0;stroke-miterlimit:1;" x1="62.875" y1="38.08" x2="63.443" y2="37.51"/>
		
			<line style="clip-path:url(#SVGID_14_);fill:none;stroke:#000000;stroke-width:0;stroke-miterlimit:1;" x1="63.443" y1="37.51" x2="63.443" y2="36.799"/>
		
			<line style="clip-path:url(#SVGID_14_);fill:none;stroke:#000000;stroke-width:0;stroke-miterlimit:1;" x1="63.443" y1="36.799" x2="62.732" y2="36.23"/>
		
			<line style="clip-path:url(#SVGID_14_);fill:none;stroke:#000000;stroke-width:0;stroke-miterlimit:1;" x1="62.732" y1="36.23" x2="58.891" y2="35.519"/>
		
			<line style="clip-path:url(#SVGID_14_);fill:none;stroke:#000000;stroke-width:0;stroke-miterlimit:1;" x1="58.891" y1="35.519" x2="56.473" y2="34.381"/>
		
			<line style="clip-path:url(#SVGID_14_);fill:none;stroke:#000000;stroke-width:0;stroke-miterlimit:1;" x1="56.473" y1="34.381" x2="55.05" y2="33.385"/>
		
			<line style="clip-path:url(#SVGID_14_);fill:none;stroke:#000000;stroke-width:0;stroke-miterlimit:1;" x1="55.05" y1="33.385" x2="51.636" y2="30.54"/>
		
			<line style="clip-path:url(#SVGID_14_);fill:none;stroke:#000000;stroke-width:0;stroke-miterlimit:1;" x1="51.636" y1="30.54" x2="46.516" y2="25.846"/>
		
			<line style="clip-path:url(#SVGID_14_);fill:none;stroke:#000000;stroke-width:0;stroke-miterlimit:1;" x1="46.516" y1="25.846" x2="41.395" y2="21.863"/>
		
			<line style="clip-path:url(#SVGID_14_);fill:none;stroke:#000000;stroke-width:0;stroke-miterlimit:1;" x1="41.395" y1="21.863" x2="36.7" y2="19.302"/>
		
			<line style="clip-path:url(#SVGID_14_);fill:none;stroke:#000000;stroke-width:0;stroke-miterlimit:1;" x1="36.7" y1="19.302" x2="32.148" y2="17.453"/>
		
			<line style="clip-path:url(#SVGID_14_);fill:none;stroke:#000000;stroke-width:0;stroke-miterlimit:1;" x1="32.148" y1="17.453" x2="28.734" y2="16.457"/>
		
			<line style="clip-path:url(#SVGID_14_);fill:none;stroke:#000000;stroke-width:0;stroke-miterlimit:1;" x1="28.734" y1="16.457" x2="25.747" y2="16.315"/>
		
			<line style="clip-path:url(#SVGID_14_);fill:none;stroke:#000000;stroke-width:0;stroke-miterlimit:1;" x1="25.747" y1="16.315" x2="23.187" y2="16.884"/>
		
			<line style="clip-path:url(#SVGID_14_);fill:none;stroke:#000000;stroke-width:0;stroke-miterlimit:1;" x1="23.187" y1="16.884" x2="21.195" y2="17.88"/>
		
			<line style="clip-path:url(#SVGID_14_);fill:none;stroke:#000000;stroke-width:0;stroke-miterlimit:1;" x1="21.195" y1="17.88" x2="19.773" y2="18.733"/>
		
			<line style="clip-path:url(#SVGID_14_);fill:none;stroke:#000000;stroke-width:0;stroke-miterlimit:1;" x1="19.773" y1="18.733" x2="19.062" y2="19.444"/>
		
			<line style="clip-path:url(#SVGID_14_);fill:none;stroke:#000000;stroke-width:0;stroke-miterlimit:1;" x1="19.062" y1="19.444" x2="18.066" y2="19.587"/>
		
			<line style="clip-path:url(#SVGID_14_);fill:none;stroke:#000000;stroke-width:0;stroke-miterlimit:1;" x1="18.066" y1="19.587" x2="16.928" y2="19.302"/>
		
			<line style="clip-path:url(#SVGID_14_);fill:none;stroke:#000000;stroke-width:0;stroke-miterlimit:1;" x1="16.928" y1="19.302" x2="16.786" y2="18.307"/>
		
			<line style="clip-path:url(#SVGID_14_);fill:none;stroke:#000000;stroke-width:0;stroke-miterlimit:1;" x1="16.786" y1="18.307" x2="22.333" y2="13.754"/>
		
			<line style="clip-path:url(#SVGID_14_);fill:none;stroke:#000000;stroke-width:0;stroke-miterlimit:1;" x1="22.333" y1="13.754" x2="23.471" y2="12.474"/>
		
			<line style="clip-path:url(#SVGID_14_);fill:none;stroke:#000000;stroke-width:0;stroke-miterlimit:1;" x1="23.471" y1="12.474" x2="24.183" y2="10.91"/>
		
			<line style="clip-path:url(#SVGID_14_);fill:none;stroke:#000000;stroke-width:0;stroke-miterlimit:1;" x1="24.183" y1="10.91" x2="24.325" y2="9.487"/>
		
			<line style="clip-path:url(#SVGID_14_);fill:none;stroke:#000000;stroke-width:0;stroke-miterlimit:1;" x1="24.325" y1="9.487" x2="24.183" y2="8.207"/>
	</g>
	<g>
		<defs>
			<polygon id="SVGID_15_" points="62.869,191.807 239.901,191.807 239.901,0 62.869,0 62.869,191.807 			"/>
		</defs>
		<clipPath id="SVGID_16_">
			<use xlink:href="#SVGID_15_"  style="overflow:visible;"/>
		</clipPath>
		
			<line style="clip-path:url(#SVGID_16_);fill:none;stroke:#000000;stroke-width:0;stroke-miterlimit:1;" x1="22.902" y1="7.211" x2="28.734" y2="9.914"/>
		
			<line style="clip-path:url(#SVGID_16_);fill:none;stroke:#000000;stroke-width:0;stroke-miterlimit:1;" x1="28.734" y1="9.914" x2="34.851" y2="12.19"/>
		
			<line style="clip-path:url(#SVGID_16_);fill:none;stroke:#000000;stroke-width:0;stroke-miterlimit:1;" x1="34.851" y1="12.19" x2="40.256" y2="13.328"/>
		
			<line style="clip-path:url(#SVGID_16_);fill:none;stroke:#000000;stroke-width:0;stroke-miterlimit:1;" x1="40.256" y1="13.328" x2="45.947" y2="13.754"/>
		
			<line style="clip-path:url(#SVGID_16_);fill:none;stroke:#000000;stroke-width:0;stroke-miterlimit:1;" x1="45.947" y1="13.754" x2="50.214" y2="13.897"/>
		
			<line style="clip-path:url(#SVGID_16_);fill:none;stroke:#000000;stroke-width:0;stroke-miterlimit:1;" x1="50.214" y1="13.897" x2="53.343" y2="13.47"/>
		
			<line style="clip-path:url(#SVGID_16_);fill:none;stroke:#000000;stroke-width:0;stroke-miterlimit:1;" x1="53.343" y1="13.47" x2="48.934" y2="12.759"/>
		
			<line style="clip-path:url(#SVGID_16_);fill:none;stroke:#000000;stroke-width:0;stroke-miterlimit:1;" x1="48.934" y1="12.759" x2="43.955" y2="12.332"/>
		
			<line style="clip-path:url(#SVGID_16_);fill:none;stroke:#000000;stroke-width:0;stroke-miterlimit:1;" x1="43.955" y1="12.332" x2="38.407" y2="11.479"/>
		
			<line style="clip-path:url(#SVGID_16_);fill:none;stroke:#000000;stroke-width:0;stroke-miterlimit:1;" x1="38.407" y1="11.479" x2="34.424" y2="10.34"/>
		
			<line style="clip-path:url(#SVGID_16_);fill:none;stroke:#000000;stroke-width:0;stroke-miterlimit:1;" x1="34.424" y1="10.34" x2="29.588" y2="8.633"/>
		
			<line style="clip-path:url(#SVGID_16_);fill:none;stroke:#000000;stroke-width:0;stroke-miterlimit:1;" x1="29.588" y1="8.633" x2="25.889" y2="7.069"/>
		
			<line style="clip-path:url(#SVGID_16_);fill:none;stroke:#000000;stroke-width:0;stroke-miterlimit:1;" x1="25.889" y1="7.069" x2="23.613" y2="5.504"/>
		
			<line style="clip-path:url(#SVGID_16_);fill:none;stroke:#000000;stroke-width:0;stroke-miterlimit:1;" x1="23.613" y1="5.504" x2="31.295" y2="8.491"/>
		
			<line style="clip-path:url(#SVGID_16_);fill:none;stroke:#000000;stroke-width:0;stroke-miterlimit:1;" x1="31.295" y1="8.491" x2="36.131" y2="9.345"/>
		
			<line style="clip-path:url(#SVGID_16_);fill:none;stroke:#000000;stroke-width:0;stroke-miterlimit:1;" x1="36.131" y1="9.345" x2="38.692" y2="9.771"/>
		
			<line style="clip-path:url(#SVGID_16_);fill:none;stroke:#000000;stroke-width:0;stroke-miterlimit:1;" x1="38.692" y1="9.771" x2="44.097" y2="10.198"/>
		
			<line style="clip-path:url(#SVGID_16_);fill:none;stroke:#000000;stroke-width:0;stroke-miterlimit:1;" x1="44.097" y1="10.198" x2="49.076" y2="9.914"/>
		
			<line style="clip-path:url(#SVGID_16_);fill:none;stroke:#000000;stroke-width:0;stroke-miterlimit:1;" x1="49.076" y1="9.914" x2="52.063" y2="9.629"/>
		
			<line style="clip-path:url(#SVGID_16_);fill:none;stroke:#000000;stroke-width:0;stroke-miterlimit:1;" x1="52.063" y1="9.629" x2="54.482" y2="9.487"/>
		
			<line style="clip-path:url(#SVGID_16_);fill:none;stroke:#000000;stroke-width:0;stroke-miterlimit:1;" x1="54.482" y1="9.487" x2="49.218" y2="9.06"/>
		
			<line style="clip-path:url(#SVGID_16_);fill:none;stroke:#000000;stroke-width:0;stroke-miterlimit:1;" x1="49.218" y1="9.06" x2="44.667" y2="8.633"/>
		
			<line style="clip-path:url(#SVGID_16_);fill:none;stroke:#000000;stroke-width:0;stroke-miterlimit:1;" x1="44.667" y1="8.633" x2="40.256" y2="8.491"/>
		
			<line style="clip-path:url(#SVGID_16_);fill:none;stroke:#000000;stroke-width:0;stroke-miterlimit:1;" x1="40.256" y1="8.491" x2="36.416" y2="7.922"/>
		
			<line style="clip-path:url(#SVGID_16_);fill:none;stroke:#000000;stroke-width:0;stroke-miterlimit:1;" x1="36.416" y1="7.922" x2="31.722" y2="6.927"/>
		
			<line style="clip-path:url(#SVGID_16_);fill:none;stroke:#000000;stroke-width:0;stroke-miterlimit:1;" x1="31.722" y1="6.927" x2="27.454" y2="5.646"/>
		
			<line style="clip-path:url(#SVGID_16_);fill:none;stroke:#000000;stroke-width:0;stroke-miterlimit:1;" x1="27.454" y1="5.646" x2="24.609" y2="4.366"/>
		
			<line style="clip-path:url(#SVGID_16_);fill:none;stroke:#000000;stroke-width:0;stroke-miterlimit:1;" x1="24.609" y1="4.366" x2="22.618" y2="3.086"/>
		
			<line style="clip-path:url(#SVGID_16_);fill:none;stroke:#000000;stroke-width:0;stroke-miterlimit:1;" x1="22.618" y1="3.086" x2="21.053" y2="2.517"/>
		
			<line style="clip-path:url(#SVGID_16_);fill:none;stroke:#000000;stroke-width:0;stroke-miterlimit:1;" x1="21.053" y1="2.517" x2="19.63" y2="2.375"/>
		
			<line style="clip-path:url(#SVGID_16_);fill:none;stroke:#000000;stroke-width:0;stroke-miterlimit:1;" x1="19.63" y1="2.375" x2="16.501" y2="2.801"/>
		
			<line style="clip-path:url(#SVGID_16_);fill:none;stroke:#000000;stroke-width:0;stroke-miterlimit:1;" x1="16.501" y1="2.801" x2="14.083" y2="3.655"/>
		
			<line style="clip-path:url(#SVGID_16_);fill:none;stroke:#000000;stroke-width:0;stroke-miterlimit:1;" x1="14.083" y1="3.655" x2="13.087" y2="4.366"/>
		
			<line style="clip-path:url(#SVGID_16_);fill:none;stroke:#000000;stroke-width:0;stroke-miterlimit:1;" x1="13.087" y1="4.366" x2="12.518" y2="5.362"/>
		
			<line style="clip-path:url(#SVGID_16_);fill:none;stroke:#000000;stroke-width:0;stroke-miterlimit:1;" x1="12.518" y1="5.362" x2="12.375" y2="5.646"/>
		
			<line style="clip-path:url(#SVGID_16_);fill:none;stroke:#000000;stroke-width:0;stroke-miterlimit:1;" x1="12.375" y1="5.646" x2="12.375" y2="6.784"/>
		
			<line style="clip-path:url(#SVGID_16_);fill:none;stroke:#000000;stroke-width:0;stroke-miterlimit:1;" x1="12.375" y1="6.784" x2="13.087" y2="7.922"/>
		
			<line style="clip-path:url(#SVGID_16_);fill:none;stroke:#000000;stroke-width:0;stroke-miterlimit:1;" x1="13.087" y1="7.922" x2="13.94" y2="8.207"/>
		
			<line style="clip-path:url(#SVGID_16_);fill:none;stroke:#000000;stroke-width:0;stroke-miterlimit:1;" x1="13.94" y1="8.207" x2="14.794" y2="8.491"/>
		
			<line style="clip-path:url(#SVGID_16_);fill:none;stroke:#000000;stroke-width:0;stroke-miterlimit:1;" x1="14.794" y1="8.491" x2="16.359" y2="8.918"/>
		
			<line style="clip-path:url(#SVGID_16_);fill:none;stroke:#000000;stroke-width:0;stroke-miterlimit:1;" x1="16.359" y1="8.918" x2="18.066" y2="8.918"/>
		
			<line style="clip-path:url(#SVGID_16_);fill:none;stroke:#000000;stroke-width:0;stroke-miterlimit:1;" x1="18.066" y1="8.918" x2="19.062" y2="8.491"/>
		
			<line style="clip-path:url(#SVGID_16_);fill:none;stroke:#000000;stroke-width:0;stroke-miterlimit:1;" x1="19.062" y1="8.491" x2="19.915" y2="8.349"/>
		
			<line style="clip-path:url(#SVGID_16_);fill:none;stroke:#000000;stroke-width:0;stroke-miterlimit:1;" x1="19.915" y1="8.349" x2="20.342" y2="9.06"/>
		
			<line style="clip-path:url(#SVGID_16_);fill:none;stroke:#000000;stroke-width:0;stroke-miterlimit:1;" x1="20.342" y1="9.06" x2="20.484" y2="10.34"/>
		
			<line style="clip-path:url(#SVGID_16_);fill:none;stroke:#000000;stroke-width:0;stroke-miterlimit:1;" x1="20.484" y1="10.34" x2="18.919" y2="12.19"/>
		
			<line style="clip-path:url(#SVGID_16_);fill:none;stroke:#000000;stroke-width:0;stroke-miterlimit:1;" x1="18.919" y1="12.19" x2="16.359" y2="14.039"/>
		
			<line style="clip-path:url(#SVGID_16_);fill:none;stroke:#000000;stroke-width:0;stroke-miterlimit:1;" x1="16.359" y1="14.039" x2="13.94" y2="16.315"/>
		
			<line style="clip-path:url(#SVGID_16_);fill:none;stroke:#000000;stroke-width:0;stroke-miterlimit:1;" x1="13.94" y1="16.315" x2="12.802" y2="17.88"/>
		
			<line style="clip-path:url(#SVGID_16_);fill:none;stroke:#000000;stroke-width:0;stroke-miterlimit:1;" x1="12.802" y1="17.88" x2="11.949" y2="19.16"/>
		
			<line style="clip-path:url(#SVGID_16_);fill:none;stroke:#000000;stroke-width:0;stroke-miterlimit:1;" x1="11.949" y1="19.16" x2="11.522" y2="21.436"/>
		
			<line style="clip-path:url(#SVGID_16_);fill:none;stroke:#000000;stroke-width:0;stroke-miterlimit:1;" x1="11.522" y1="21.436" x2="11.807" y2="22.716"/>
		
			<line style="clip-path:url(#SVGID_16_);fill:none;stroke:#000000;stroke-width:0;stroke-miterlimit:1;" x1="11.807" y1="22.716" x2="13.514" y2="25.277"/>
		
			<line style="clip-path:url(#SVGID_16_);fill:none;stroke:#000000;stroke-width:0;stroke-miterlimit:1;" x1="13.514" y1="25.277" x2="17.923" y2="30.113"/>
		
			<line style="clip-path:url(#SVGID_16_);fill:none;stroke:#000000;stroke-width:0;stroke-miterlimit:1;" x1="17.923" y1="30.113" x2="20.626" y2="32.531"/>
		
			<line style="clip-path:url(#SVGID_16_);fill:none;stroke:#000000;stroke-width:0;stroke-miterlimit:1;" x1="20.626" y1="32.531" x2="23.756" y2="34.808"/>
		
			<line style="clip-path:url(#SVGID_16_);fill:none;stroke:#000000;stroke-width:0;stroke-miterlimit:1;" x1="23.756" y1="34.808" x2="28.308" y2="36.799"/>
		
			<line style="clip-path:url(#SVGID_16_);fill:none;stroke:#000000;stroke-width:0;stroke-miterlimit:1;" x1="28.308" y1="36.799" x2="31.01" y2="40.782"/>
		
			<line style="clip-path:url(#SVGID_16_);fill:none;stroke:#000000;stroke-width:0;stroke-miterlimit:1;" x1="31.01" y1="40.782" x2="33.855" y2="44.053"/>
		
			<line style="clip-path:url(#SVGID_16_);fill:none;stroke:#000000;stroke-width:0;stroke-miterlimit:1;" x1="33.855" y1="44.053" x2="35.705" y2="46.045"/>
		
			<line style="clip-path:url(#SVGID_16_);fill:none;stroke:#000000;stroke-width:0;stroke-miterlimit:1;" x1="35.705" y1="46.045" x2="36.273" y2="47.326"/>
		
			<line style="clip-path:url(#SVGID_16_);fill:none;stroke:#000000;stroke-width:0;stroke-miterlimit:1;" x1="36.273" y1="47.326" x2="37.127" y2="56.572"/>
		
			<line style="clip-path:url(#SVGID_16_);fill:none;stroke:#000000;stroke-width:0;stroke-miterlimit:1;" x1="37.127" y1="56.572" x2="37.127" y2="62.546"/>
		
			<line style="clip-path:url(#SVGID_16_);fill:none;stroke:#000000;stroke-width:0;stroke-miterlimit:1;" x1="37.127" y1="62.546" x2="36.843" y2="63.542"/>
		
			<line style="clip-path:url(#SVGID_16_);fill:none;stroke:#000000;stroke-width:0;stroke-miterlimit:1;" x1="36.843" y1="63.542" x2="35.847" y2="63.827"/>
		
			<line style="clip-path:url(#SVGID_16_);fill:none;stroke:#000000;stroke-width:0;stroke-miterlimit:1;" x1="35.847" y1="63.827" x2="29.73" y2="64.68"/>
		
			<line style="clip-path:url(#SVGID_16_);fill:none;stroke:#000000;stroke-width:0;stroke-miterlimit:1;" x1="29.73" y1="64.68" x2="29.303" y2="64.822"/>
		
			<line style="clip-path:url(#SVGID_16_);fill:none;stroke:#000000;stroke-width:0;stroke-miterlimit:1;" x1="29.303" y1="64.822" x2="28.45" y2="64.964"/>
		
			<line style="clip-path:url(#SVGID_16_);fill:none;stroke:#000000;stroke-width:0;stroke-miterlimit:1;" x1="28.45" y1="64.964" x2="28.023" y2="65.534"/>
		
			<line style="clip-path:url(#SVGID_16_);fill:none;stroke:#000000;stroke-width:0;stroke-miterlimit:1;" x1="28.023" y1="65.534" x2="28.023" y2="66.387"/>
		
			<line style="clip-path:url(#SVGID_16_);fill:none;stroke:#000000;stroke-width:0;stroke-miterlimit:1;" x1="28.023" y1="66.387" x2="28.876" y2="65.959"/>
		
			<line style="clip-path:url(#SVGID_16_);fill:none;stroke:#000000;stroke-width:0;stroke-miterlimit:1;" x1="28.876" y1="65.959" x2="29.873" y2="66.245"/>
	</g>
	<g>
		<defs>
			<polygon id="SVGID_17_" points="26.787,191.807 239.901,191.807 239.901,0 26.787,0 26.787,191.807 			"/>
		</defs>
		<clipPath id="SVGID_18_">
			<use xlink:href="#SVGID_17_"  style="overflow:visible;"/>
		</clipPath>
		
			<line style="clip-path:url(#SVGID_18_);fill:none;stroke:#000000;stroke-width:0;stroke-miterlimit:1;" x1="33.998" y1="64.68" x2="30.441" y2="65.249"/>
		
			<line style="clip-path:url(#SVGID_18_);fill:none;stroke:#000000;stroke-width:0;stroke-miterlimit:1;" x1="30.441" y1="65.249" x2="29.873" y2="65.675"/>
		
			<line style="clip-path:url(#SVGID_18_);fill:none;stroke:#000000;stroke-width:0;stroke-miterlimit:1;" x1="29.873" y1="65.675" x2="30.015" y2="66.387"/>
		
			<line style="clip-path:url(#SVGID_18_);fill:none;stroke:#000000;stroke-width:0;stroke-miterlimit:1;" x1="30.015" y1="66.387" x2="31.153" y2="65.818"/>
		
			<line style="clip-path:url(#SVGID_18_);fill:none;stroke:#000000;stroke-width:0;stroke-miterlimit:1;" x1="31.153" y1="65.818" x2="32.006" y2="66.387"/>
		
			<line style="clip-path:url(#SVGID_18_);fill:none;stroke:#000000;stroke-width:0;stroke-miterlimit:1;" x1="32.006" y1="66.387" x2="37.696" y2="65.675"/>
		
			<line style="clip-path:url(#SVGID_18_);fill:none;stroke:#000000;stroke-width:0;stroke-miterlimit:1;" x1="37.696" y1="65.675" x2="42.106" y2="66.387"/>
		
			<line style="clip-path:url(#SVGID_18_);fill:none;stroke:#000000;stroke-width:0;stroke-miterlimit:1;" x1="42.106" y1="66.387" x2="42.248" y2="65.675"/>
		
			<line style="clip-path:url(#SVGID_18_);fill:none;stroke:#000000;stroke-width:0;stroke-miterlimit:1;" x1="42.248" y1="65.675" x2="41.963" y2="64.964"/>
		
			<line style="clip-path:url(#SVGID_18_);fill:none;stroke:#000000;stroke-width:0;stroke-miterlimit:1;" x1="41.963" y1="64.964" x2="40.826" y2="64.68"/>
		
			<line style="clip-path:url(#SVGID_18_);fill:none;stroke:#000000;stroke-width:0;stroke-miterlimit:1;" x1="40.826" y1="64.68" x2="39.545" y2="64.253"/>
		
			<line style="clip-path:url(#SVGID_18_);fill:none;stroke:#000000;stroke-width:0;stroke-miterlimit:1;" x1="39.545" y1="64.253" x2="39.119" y2="64.111"/>
		
			<line style="clip-path:url(#SVGID_18_);fill:none;stroke:#000000;stroke-width:0;stroke-miterlimit:1;" x1="39.119" y1="64.111" x2="38.692" y2="63.257"/>
		
			<line style="clip-path:url(#SVGID_18_);fill:none;stroke:#000000;stroke-width:0;stroke-miterlimit:1;" x1="38.692" y1="63.257" x2="38.55" y2="48.606"/>
		
			<line style="clip-path:url(#SVGID_18_);fill:none;stroke:#000000;stroke-width:0;stroke-miterlimit:1;" x1="38.55" y1="48.606" x2="38.834" y2="46.899"/>
		
			<line style="clip-path:url(#SVGID_18_);fill:none;stroke:#000000;stroke-width:0;stroke-miterlimit:1;" x1="38.834" y1="46.899" x2="38.834" y2="46.33"/>
		
			<line style="clip-path:url(#SVGID_18_);fill:none;stroke:#000000;stroke-width:0;stroke-miterlimit:1;" x1="38.834" y1="46.33" x2="37.838" y2="44.48"/>
		
			<line style="clip-path:url(#SVGID_18_);fill:none;stroke:#000000;stroke-width:0;stroke-miterlimit:1;" x1="37.838" y1="44.48" x2="36.843" y2="42.773"/>
		
			<line style="clip-path:url(#SVGID_18_);fill:none;stroke:#000000;stroke-width:0;stroke-miterlimit:1;" x1="36.843" y1="42.773" x2="33.571" y2="37.51"/>
	</g>
	<g>
		<defs>
			<polygon id="SVGID_19_" points="26.787,191.807 239.901,191.807 239.901,0 26.787,0 26.787,191.807 			"/>
		</defs>
		<clipPath id="SVGID_20_">
			<use xlink:href="#SVGID_19_"  style="overflow:visible;"/>
		</clipPath>
		
			<line style="clip-path:url(#SVGID_20_);fill:none;stroke:#000000;stroke-width:0;stroke-miterlimit:1;" x1="34.851" y1="39.075" x2="39.972" y2="39.644"/>
		
			<line style="clip-path:url(#SVGID_20_);fill:none;stroke:#000000;stroke-width:0;stroke-miterlimit:1;" x1="39.972" y1="39.644" x2="44.24" y2="39.501"/>
		
			<line style="clip-path:url(#SVGID_20_);fill:none;stroke:#000000;stroke-width:0;stroke-miterlimit:1;" x1="44.24" y1="39.501" x2="49.645" y2="38.932"/>
		
			<line style="clip-path:url(#SVGID_20_);fill:none;stroke:#000000;stroke-width:0;stroke-miterlimit:1;" x1="49.645" y1="38.932" x2="52.348" y2="41.351"/>
		
			<line style="clip-path:url(#SVGID_20_);fill:none;stroke:#000000;stroke-width:0;stroke-miterlimit:1;" x1="52.348" y1="41.351" x2="55.62" y2="44.338"/>
		
			<line style="clip-path:url(#SVGID_20_);fill:none;stroke:#000000;stroke-width:0;stroke-miterlimit:1;" x1="55.62" y1="44.338" x2="57.184" y2="44.48"/>
		
			<line style="clip-path:url(#SVGID_20_);fill:none;stroke:#000000;stroke-width:0;stroke-miterlimit:1;" x1="57.184" y1="44.48" x2="58.749" y2="44.053"/>
		
			<line style="clip-path:url(#SVGID_20_);fill:none;stroke:#000000;stroke-width:0;stroke-miterlimit:1;" x1="58.749" y1="44.053" x2="60.456" y2="42.631"/>
		
			<line style="clip-path:url(#SVGID_20_);fill:none;stroke:#000000;stroke-width:0;stroke-miterlimit:1;" x1="60.456" y1="42.631" x2="60.741" y2="41.493"/>
		
			<line style="clip-path:url(#SVGID_20_);fill:none;stroke:#000000;stroke-width:0;stroke-miterlimit:1;" x1="60.741" y1="41.493" x2="57.327" y2="37.937"/>
	</g>
	<g>
		<defs>
			<polygon id="SVGID_21_" points="26.787,191.807 239.901,191.807 239.901,0 26.787,0 26.787,191.807 			"/>
		</defs>
		<clipPath id="SVGID_22_">
			<use xlink:href="#SVGID_21_"  style="overflow:visible;"/>
		</clipPath>
		
			<line style="clip-path:url(#SVGID_22_);fill:none;stroke:#000000;stroke-width:0;stroke-miterlimit:1;" x1="12.375" y1="5.504" x2="0" y2="13.043"/>
		
			<line style="clip-path:url(#SVGID_22_);fill:none;stroke:#000000;stroke-width:0;stroke-miterlimit:1;" x1="0" y1="13.043" x2="14.225" y2="8.349"/>
	</g>
	<g>
		<defs>
			<polygon id="SVGID_23_" points="26.787,191.807 239.901,191.807 239.901,0 26.787,0 26.787,191.807 			"/>
		</defs>
		<clipPath id="SVGID_24_">
			<use xlink:href="#SVGID_23_"  style="overflow:visible;"/>
		</clipPath>
		
			<line style="clip-path:url(#SVGID_24_);fill:none;stroke:#000000;stroke-width:0;stroke-miterlimit:1;" x1="12.518" y1="7.496" x2="0" y2="13.043"/>
	</g>
	<g>
		<defs>
			<polygon id="SVGID_25_" points="26.787,191.807 239.901,191.807 239.901,0 26.787,0 26.787,191.807 			"/>
		</defs>
		<clipPath id="SVGID_26_">
			<use xlink:href="#SVGID_25_"  style="overflow:visible;"/>
		</clipPath>
		
			<line style="clip-path:url(#SVGID_26_);fill:none;stroke:#000000;stroke-width:0;stroke-miterlimit:1;" x1="15.221" y1="5.22" x2="14.509" y2="5.646"/>
		
			<line style="clip-path:url(#SVGID_26_);fill:none;stroke:#000000;stroke-width:0;stroke-miterlimit:1;" x1="14.509" y1="5.646" x2="14.936" y2="6.357"/>
		
			<line style="clip-path:url(#SVGID_26_);fill:none;stroke:#000000;stroke-width:0;stroke-miterlimit:1;" x1="14.936" y1="6.357" x2="15.647" y2="6.073"/>
		
			<line style="clip-path:url(#SVGID_26_);fill:none;stroke:#000000;stroke-width:0;stroke-miterlimit:1;" x1="15.647" y1="6.073" x2="15.363" y2="5.504"/>
	</g>
	<g>
		<defs>
			<polygon id="SVGID_27_" points="26.787,191.807 239.901,191.807 239.901,0 26.787,0 26.787,191.807 			"/>
		</defs>
		<clipPath id="SVGID_28_">
			<use xlink:href="#SVGID_27_"  style="overflow:visible;"/>
		</clipPath>
		
			<line style="clip-path:url(#SVGID_28_);fill:none;stroke:#000000;stroke-width:0;stroke-miterlimit:1;" x1="42.533" y1="65.107" x2="43.67" y2="65.391"/>
		
			<line style="clip-path:url(#SVGID_28_);fill:none;stroke:#000000;stroke-width:0;stroke-miterlimit:1;" x1="43.67" y1="65.391" x2="44.24" y2="65.818"/>
		
			<line style="clip-path:url(#SVGID_28_);fill:none;stroke:#000000;stroke-width:0;stroke-miterlimit:1;" x1="44.24" y1="65.818" x2="44.382" y2="66.102"/>
		
			<line style="clip-path:url(#SVGID_28_);fill:none;stroke:#000000;stroke-width:0;stroke-miterlimit:1;" x1="44.382" y1="66.102" x2="43.67" y2="66.387"/>
		
			<line style="clip-path:url(#SVGID_28_);fill:none;stroke:#000000;stroke-width:0;stroke-miterlimit:1;" x1="43.67" y1="66.387" x2="42.675" y2="66.245"/>
	</g>
	<g>
		<defs>
			<polygon id="SVGID_29_" points="26.787,191.807 239.901,191.807 239.901,0 26.787,0 26.787,191.807 			"/>
		</defs>
		<clipPath id="SVGID_30_">
			<use xlink:href="#SVGID_29_"  style="overflow:visible;"/>
		</clipPath>
		
			<line style="clip-path:url(#SVGID_30_);fill:none;stroke:#000000;stroke-width:0;stroke-miterlimit:1;" x1="21.195" y1="33.101" x2="24.183" y2="38.791"/>
		
			<line style="clip-path:url(#SVGID_30_);fill:none;stroke:#000000;stroke-width:0;stroke-miterlimit:1;" x1="24.183" y1="38.791" x2="27.596" y2="43.912"/>
		
			<line style="clip-path:url(#SVGID_30_);fill:none;stroke:#000000;stroke-width:0;stroke-miterlimit:1;" x1="27.596" y1="43.912" x2="27.881" y2="45.192"/>
		
			<line style="clip-path:url(#SVGID_30_);fill:none;stroke:#000000;stroke-width:0;stroke-miterlimit:1;" x1="27.881" y1="45.192" x2="18.635" y2="61.834"/>
		
			<line style="clip-path:url(#SVGID_30_);fill:none;stroke:#000000;stroke-width:0;stroke-miterlimit:1;" x1="18.635" y1="61.834" x2="18.208" y2="62.546"/>
		
			<line style="clip-path:url(#SVGID_30_);fill:none;stroke:#000000;stroke-width:0;stroke-miterlimit:1;" x1="18.208" y1="62.546" x2="17.781" y2="63.257"/>
		
			<line style="clip-path:url(#SVGID_30_);fill:none;stroke:#000000;stroke-width:0;stroke-miterlimit:1;" x1="17.781" y1="63.257" x2="16.786" y2="63.542"/>
		
			<line style="clip-path:url(#SVGID_30_);fill:none;stroke:#000000;stroke-width:0;stroke-miterlimit:1;" x1="16.786" y1="63.542" x2="13.372" y2="64.111"/>
		
			<line style="clip-path:url(#SVGID_30_);fill:none;stroke:#000000;stroke-width:0;stroke-miterlimit:1;" x1="13.372" y1="64.111" x2="11.096" y2="64.538"/>
		
			<line style="clip-path:url(#SVGID_30_);fill:none;stroke:#000000;stroke-width:0;stroke-miterlimit:1;" x1="11.096" y1="64.538" x2="10.242" y2="64.964"/>
		
			<line style="clip-path:url(#SVGID_30_);fill:none;stroke:#000000;stroke-width:0;stroke-miterlimit:1;" x1="10.242" y1="64.964" x2="9.673" y2="65.107"/>
		
			<line style="clip-path:url(#SVGID_30_);fill:none;stroke:#000000;stroke-width:0;stroke-miterlimit:1;" x1="9.673" y1="65.107" x2="8.819" y2="65.249"/>
		
			<line style="clip-path:url(#SVGID_30_);fill:none;stroke:#000000;stroke-width:0;stroke-miterlimit:1;" x1="8.819" y1="65.249" x2="8.535" y2="65.534"/>
		
			<line style="clip-path:url(#SVGID_30_);fill:none;stroke:#000000;stroke-width:0;stroke-miterlimit:1;" x1="8.535" y1="65.534" x2="8.25" y2="66.245"/>
		
			<line style="clip-path:url(#SVGID_30_);fill:none;stroke:#000000;stroke-width:0;stroke-miterlimit:1;" x1="8.25" y1="66.245" x2="9.104" y2="65.818"/>
		
			<line style="clip-path:url(#SVGID_30_);fill:none;stroke:#000000;stroke-width:0;stroke-miterlimit:1;" x1="9.104" y1="65.818" x2="10.1" y2="66.245"/>
	</g>
	<g>
		<defs>
			<polygon id="SVGID_31_" points="26.787,191.807 239.901,191.807 239.901,0 26.787,0 26.787,191.807 			"/>
		</defs>
		<clipPath id="SVGID_32_">
			<use xlink:href="#SVGID_31_"  style="overflow:visible;"/>
		</clipPath>
		
			<line style="clip-path:url(#SVGID_32_);fill:none;stroke:#000000;stroke-width:0;stroke-miterlimit:1;" x1="11.665" y1="65.391" x2="11.096" y2="65.391"/>
		
			<line style="clip-path:url(#SVGID_32_);fill:none;stroke:#000000;stroke-width:0;stroke-miterlimit:1;" x1="11.096" y1="65.391" x2="10.384" y2="65.534"/>
		
			<line style="clip-path:url(#SVGID_32_);fill:none;stroke:#000000;stroke-width:0;stroke-miterlimit:1;" x1="10.384" y1="65.534" x2="10.1" y2="66.102"/>
		
			<line style="clip-path:url(#SVGID_32_);fill:none;stroke:#000000;stroke-width:0;stroke-miterlimit:1;" x1="10.1" y1="66.102" x2="10.384" y2="66.245"/>
		
			<line style="clip-path:url(#SVGID_32_);fill:none;stroke:#000000;stroke-width:0;stroke-miterlimit:1;" x1="10.384" y1="66.245" x2="11.238" y2="65.959"/>
	</g>
	<g>
		<defs>
			<polygon id="SVGID_33_" points="8.721,211.58 239.901,211.58 239.901,0 8.721,0 8.721,211.58 			"/>
		</defs>
		<clipPath id="SVGID_34_">
			<use xlink:href="#SVGID_33_"  style="overflow:visible;"/>
		</clipPath>
		
			<line style="clip-path:url(#SVGID_34_);fill:none;stroke:#000000;stroke-width:0;stroke-miterlimit:1;" x1="11.807" y1="65.249" x2="12.802" y2="64.964"/>
		
			<line style="clip-path:url(#SVGID_34_);fill:none;stroke:#000000;stroke-width:0;stroke-miterlimit:1;" x1="12.802" y1="64.964" x2="15.079" y2="64.822"/>
	</g>
	<g>
		<defs>
			<polygon id="SVGID_35_" points="8.721,211.58 239.901,211.58 239.901,0 8.721,0 8.721,211.58 			"/>
		</defs>
		<clipPath id="SVGID_36_">
			<use xlink:href="#SVGID_35_"  style="overflow:visible;"/>
		</clipPath>
		
			<line style="clip-path:url(#SVGID_36_);fill:none;stroke:#000000;stroke-width:0;stroke-miterlimit:1;" x1="11.38" y1="65.959" x2="12.518" y2="66.387"/>
		
			<line style="clip-path:url(#SVGID_36_);fill:none;stroke:#000000;stroke-width:0;stroke-miterlimit:1;" x1="12.518" y1="66.387" x2="17.781" y2="65.818"/>
		
			<line style="clip-path:url(#SVGID_36_);fill:none;stroke:#000000;stroke-width:0;stroke-miterlimit:1;" x1="17.781" y1="65.818" x2="18.635" y2="65.675"/>
		
			<line style="clip-path:url(#SVGID_36_);fill:none;stroke:#000000;stroke-width:0;stroke-miterlimit:1;" x1="18.635" y1="65.675" x2="22.902" y2="66.387"/>
		
			<line style="clip-path:url(#SVGID_36_);fill:none;stroke:#000000;stroke-width:0;stroke-miterlimit:1;" x1="22.902" y1="66.387" x2="23.044" y2="65.675"/>
		
			<line style="clip-path:url(#SVGID_36_);fill:none;stroke:#000000;stroke-width:0;stroke-miterlimit:1;" x1="23.044" y1="65.675" x2="22.902" y2="64.964"/>
		
			<line style="clip-path:url(#SVGID_36_);fill:none;stroke:#000000;stroke-width:0;stroke-miterlimit:1;" x1="22.902" y1="64.964" x2="21.622" y2="64.68"/>
		
			<line style="clip-path:url(#SVGID_36_);fill:none;stroke:#000000;stroke-width:0;stroke-miterlimit:1;" x1="21.622" y1="64.68" x2="19.915" y2="64.111"/>
	</g>
	<g>
		<defs>
			<polygon id="SVGID_37_" points="8.721,211.58 239.901,211.58 239.901,0 8.721,0 8.721,211.58 			"/>
		</defs>
		<clipPath id="SVGID_38_">
			<use xlink:href="#SVGID_37_"  style="overflow:visible;"/>
		</clipPath>
		
			<line style="clip-path:url(#SVGID_38_);fill:none;stroke:#000000;stroke-width:0;stroke-miterlimit:1;" x1="19.773" y1="63.968" x2="19.63" y2="63.257"/>
		
			<line style="clip-path:url(#SVGID_38_);fill:none;stroke:#000000;stroke-width:0;stroke-miterlimit:1;" x1="19.63" y1="63.257" x2="28.45" y2="48.606"/>
		
			<line style="clip-path:url(#SVGID_38_);fill:none;stroke:#000000;stroke-width:0;stroke-miterlimit:1;" x1="28.45" y1="48.606" x2="30.583" y2="44.765"/>
		
			<line style="clip-path:url(#SVGID_38_);fill:none;stroke:#000000;stroke-width:0;stroke-miterlimit:1;" x1="30.583" y1="44.765" x2="30.583" y2="43.485"/>
		
			<line style="clip-path:url(#SVGID_38_);fill:none;stroke:#000000;stroke-width:0;stroke-miterlimit:1;" x1="30.583" y1="43.485" x2="29.019" y2="38.08"/>
	</g>
	<g>
		<defs>
			<polygon id="SVGID_39_" points="8.721,211.58 239.901,211.58 239.901,0 8.721,0 8.721,211.58 			"/>
		</defs>
		<clipPath id="SVGID_40_">
			<use xlink:href="#SVGID_39_"  style="overflow:visible;"/>
		</clipPath>
		
			<line style="clip-path:url(#SVGID_40_);fill:none;stroke:#000000;stroke-width:0;stroke-miterlimit:1;" x1="23.329" y1="65.107" x2="24.325" y2="65.391"/>
		
			<line style="clip-path:url(#SVGID_40_);fill:none;stroke:#000000;stroke-width:0;stroke-miterlimit:1;" x1="24.325" y1="65.391" x2="24.894" y2="65.818"/>
		
			<line style="clip-path:url(#SVGID_40_);fill:none;stroke:#000000;stroke-width:0;stroke-miterlimit:1;" x1="24.894" y1="65.818" x2="25.036" y2="66.102"/>
		
			<line style="clip-path:url(#SVGID_40_);fill:none;stroke:#000000;stroke-width:0;stroke-miterlimit:1;" x1="25.036" y1="66.102" x2="24.325" y2="66.387"/>
		
			<line style="clip-path:url(#SVGID_40_);fill:none;stroke:#000000;stroke-width:0;stroke-miterlimit:1;" x1="24.325" y1="66.387" x2="23.329" y2="66.245"/>
	</g>
</g>
</svg>
