<?xml version="1.0" encoding="iso-8859-1"?>
<!-- Generator: Adobe Illustrator 16.0.1, SVG Export Plug-In . SVG Version: 6.00 Build 0)  -->
<!DOCTYPE svg PUBLIC "-//W3C//DTD SVG 1.1//EN" "http://www.w3.org/Graphics/SVG/1.1/DTD/svg11.dtd">
<svg version="1.1" id="Ebene_1" xmlns="http://www.w3.org/2000/svg" xmlns:xlink="http://www.w3.org/1999/xlink" x="0px" y="0px"
	 width="281.629px" height="148.772px" viewBox="0 0 281.629 148.772" style="enable-background:new 0 0 281.629 148.772;"
	 xml:space="preserve">
<g>
	<line style="fill:none;stroke:#000000;stroke-miterlimit:1;" x1="78.145" y1="84.559" x2="74.816" y2="86.223"/>
	<line style="fill:none;stroke:#000000;stroke-miterlimit:1;" x1="74.816" y1="86.223" x2="72.32" y2="89.274"/>
	<line style="fill:none;stroke:#000000;stroke-miterlimit:1;" x1="72.32" y1="89.274" x2="71.488" y2="91.771"/>
	<line style="fill:none;stroke:#000000;stroke-miterlimit:1;" x1="71.488" y1="91.771" x2="70.933" y2="94.268"/>
	<line style="fill:none;stroke:#000000;stroke-miterlimit:1;" x1="70.933" y1="94.268" x2="71.765" y2="98.151"/>
	<line style="fill:none;stroke:#000000;stroke-miterlimit:1;" x1="71.765" y1="98.151" x2="73.707" y2="100.647"/>
	<line style="fill:none;stroke:#000000;stroke-miterlimit:1;" x1="73.707" y1="100.647" x2="75.648" y2="102.312"/>
	<line style="fill:none;stroke:#000000;stroke-miterlimit:1;" x1="75.648" y1="102.312" x2="78.977" y2="103.422"/>
	<line style="fill:none;stroke:#000000;stroke-miterlimit:1;" x1="78.977" y1="103.422" x2="81.474" y2="104.254"/>
	<line style="fill:none;stroke:#000000;stroke-miterlimit:1;" x1="81.474" y1="104.254" x2="84.525" y2="104.254"/>
	<line style="fill:none;stroke:#000000;stroke-miterlimit:1;" x1="84.525" y1="104.254" x2="87.854" y2="102.866"/>
	<line style="fill:none;stroke:#000000;stroke-miterlimit:1;" x1="87.854" y1="102.866" x2="90.628" y2="101.479"/>
	<line style="fill:none;stroke:#000000;stroke-miterlimit:1;" x1="90.628" y1="101.479" x2="92.292" y2="99.538"/>
	<line style="fill:none;stroke:#000000;stroke-miterlimit:1;" x1="92.292" y1="99.538" x2="94.234" y2="96.764"/>
	<line style="fill:none;stroke:#000000;stroke-miterlimit:1;" x1="94.234" y1="96.764" x2="95.621" y2="93.436"/>
	<line style="fill:none;stroke:#000000;stroke-miterlimit:1;" x1="95.621" y1="93.436" x2="96.453" y2="90.661"/>
	<line style="fill:none;stroke:#000000;stroke-miterlimit:1;" x1="96.453" y1="90.661" x2="96.73" y2="87.888"/>
	<line style="fill:none;stroke:#000000;stroke-miterlimit:1;" x1="96.73" y1="87.888" x2="96.453" y2="85.945"/>
	<line style="fill:none;stroke:#000000;stroke-miterlimit:1;" x1="96.453" y1="85.945" x2="95.898" y2="82.617"/>
	<line style="fill:none;stroke:#000000;stroke-miterlimit:1;" x1="95.898" y1="82.617" x2="94.511" y2="79.843"/>
	<line style="fill:none;stroke:#000000;stroke-miterlimit:1;" x1="94.511" y1="79.843" x2="92.292" y2="77.069"/>
	<line style="fill:none;stroke:#000000;stroke-miterlimit:1;" x1="92.292" y1="77.069" x2="90.073" y2="75.127"/>
	<line style="fill:none;stroke:#000000;stroke-miterlimit:1;" x1="90.073" y1="75.127" x2="88.131" y2="74.295"/>
	<line style="fill:none;stroke:#000000;stroke-miterlimit:1;" x1="88.131" y1="74.295" x2="86.189" y2="73.463"/>
	<line style="fill:none;stroke:#000000;stroke-miterlimit:1;" x1="86.189" y1="73.463" x2="83.416" y2="73.186"/>
	<line style="fill:none;stroke:#000000;stroke-miterlimit:1;" x1="83.416" y1="73.186" x2="81.196" y2="72.908"/>
	<line style="fill:none;stroke:#000000;stroke-miterlimit:1;" x1="81.196" y1="72.908" x2="78.422" y2="72.908"/>
	<line style="fill:none;stroke:#000000;stroke-miterlimit:1;" x1="78.422" y1="72.908" x2="75.094" y2="73.186"/>
	<line style="fill:none;stroke:#000000;stroke-miterlimit:1;" x1="75.094" y1="73.186" x2="71.488" y2="74.295"/>
	<line style="fill:none;stroke:#000000;stroke-miterlimit:1;" x1="71.488" y1="74.295" x2="68.437" y2="75.96"/>
	<line style="fill:none;stroke:#000000;stroke-miterlimit:1;" x1="68.437" y1="75.96" x2="66.495" y2="77.624"/>
	<line style="fill:none;stroke:#000000;stroke-miterlimit:1;" x1="66.495" y1="77.624" x2="64.275" y2="79.565"/>
	<line style="fill:none;stroke:#000000;stroke-miterlimit:1;" x1="64.275" y1="79.565" x2="62.611" y2="81.508"/>
	<line style="fill:none;stroke:#000000;stroke-miterlimit:1;" x1="62.611" y1="81.508" x2="60.947" y2="84.559"/>
	<line style="fill:none;stroke:#000000;stroke-miterlimit:1;" x1="60.947" y1="84.559" x2="59.282" y2="87.61"/>
	<line style="fill:none;stroke:#000000;stroke-miterlimit:1;" x1="59.282" y1="87.61" x2="58.728" y2="90.384"/>
	<line style="fill:none;stroke:#000000;stroke-miterlimit:1;" x1="58.728" y1="90.384" x2="58.173" y2="94.268"/>
	<line style="fill:none;stroke:#000000;stroke-miterlimit:1;" x1="58.173" y1="94.268" x2="57.896" y2="98.151"/>
	<line style="fill:none;stroke:#000000;stroke-miterlimit:1;" x1="57.896" y1="98.151" x2="58.173" y2="101.202"/>
	<line style="fill:none;stroke:#000000;stroke-miterlimit:1;" x1="58.173" y1="101.202" x2="58.45" y2="105.641"/>
	<line style="fill:none;stroke:#000000;stroke-miterlimit:1;" x1="58.45" y1="105.641" x2="60.115" y2="110.079"/>
	<line style="fill:none;stroke:#000000;stroke-miterlimit:1;" x1="60.115" y1="110.079" x2="62.611" y2="115.072"/>
	<line style="fill:none;stroke:#000000;stroke-miterlimit:1;" x1="62.611" y1="115.072" x2="67.049" y2="120.897"/>
	<line style="fill:none;stroke:#000000;stroke-miterlimit:1;" x1="67.049" y1="120.897" x2="73.984" y2="127.555"/>
	<line style="fill:none;stroke:#000000;stroke-miterlimit:1;" x1="73.984" y1="127.555" x2="83.97" y2="135.599"/>
	<line style="fill:none;stroke:#000000;stroke-miterlimit:1;" x1="83.97" y1="135.599" x2="105.607" y2="147.804"/>
	<line style="fill:none;stroke:#000000;stroke-miterlimit:1;" x1="211.478" y1="10.314" x2="210.264" y2="7.28"/>
	<line style="fill:none;stroke:#000000;stroke-miterlimit:1;" x1="210.264" y1="7.28" x2="207.837" y2="2.427"/>
	<line style="fill:none;stroke:#000000;stroke-miterlimit:1;" x1="207.837" y1="2.427" x2="206.32" y2="0"/>
	<line style="fill:none;stroke:#000000;stroke-miterlimit:1;" x1="206.32" y1="0" x2="247.273" y2="0"/>
	<line style="fill:none;stroke:#000000;stroke-miterlimit:1;" x1="247.273" y1="0" x2="244.847" y2="4.247"/>
	<line style="fill:none;stroke:#000000;stroke-miterlimit:1;" x1="244.847" y1="4.247" x2="243.026" y2="8.494"/>
	<line style="fill:none;stroke:#000000;stroke-miterlimit:1;" x1="243.026" y1="8.494" x2="242.42" y2="10.314"/>
	<line style="fill:none;stroke:#000000;stroke-miterlimit:1;" x1="206.624" y1="22.145" x2="197.22" y2="16.988"/>
	<line style="fill:none;stroke:#000000;stroke-miterlimit:1;" x1="197.22" y1="16.988" x2="195.096" y2="24.269"/>
	<line style="fill:none;stroke:#000000;stroke-miterlimit:1;" x1="195.096" y1="24.269" x2="199.95" y2="27.909"/>
	<line style="fill:none;stroke:#000000;stroke-miterlimit:1;" x1="199.95" y1="27.909" x2="203.286" y2="30.335"/>
	<line style="fill:none;stroke:#000000;stroke-miterlimit:1;" x1="203.286" y1="30.335" x2="207.837" y2="35.189"/>
	<line style="fill:none;stroke:#000000;stroke-miterlimit:1;" x1="247.273" y1="22.145" x2="256.374" y2="16.988"/>
	<line style="fill:none;stroke:#000000;stroke-miterlimit:1;" x1="256.374" y1="16.988" x2="258.801" y2="24.572"/>
	<line style="fill:none;stroke:#000000;stroke-miterlimit:1;" x1="258.801" y1="24.572" x2="254.554" y2="26.999"/>
	<line style="fill:none;stroke:#000000;stroke-miterlimit:1;" x1="254.554" y1="26.999" x2="249.7" y2="31.549"/>
	<line style="fill:none;stroke:#000000;stroke-miterlimit:1;" x1="249.7" y1="31.549" x2="246.363" y2="35.189"/>
	<line style="fill:none;stroke:#000000;stroke-miterlimit:1;" x1="213.298" y1="31.549" x2="213.904" y2="29.729"/>
	<line style="fill:none;stroke:#000000;stroke-miterlimit:1;" x1="213.904" y1="29.729" x2="215.117" y2="27.605"/>
	<line style="fill:none;stroke:#000000;stroke-miterlimit:1;" x1="215.117" y1="27.605" x2="216.938" y2="25.482"/>
	<line style="fill:none;stroke:#000000;stroke-miterlimit:1;" x1="216.938" y1="25.482" x2="219.364" y2="23.358"/>
	<line style="fill:none;stroke:#000000;stroke-miterlimit:1;" x1="219.364" y1="23.358" x2="223.611" y2="21.842"/>
	<line style="fill:none;stroke:#000000;stroke-miterlimit:1;" x1="223.611" y1="21.842" x2="226.342" y2="21.538"/>
	<line style="fill:none;stroke:#000000;stroke-miterlimit:1;" x1="226.342" y1="21.538" x2="229.679" y2="21.842"/>
	<line style="fill:none;stroke:#000000;stroke-miterlimit:1;" x1="229.679" y1="21.842" x2="233.319" y2="23.055"/>
	<line style="fill:none;stroke:#000000;stroke-miterlimit:1;" x1="233.319" y1="23.055" x2="236.353" y2="24.875"/>
	<line style="fill:none;stroke:#000000;stroke-miterlimit:1;" x1="236.353" y1="24.875" x2="237.869" y2="26.999"/>
	<line style="fill:none;stroke:#000000;stroke-miterlimit:1;" x1="237.869" y1="26.999" x2="239.386" y2="28.819"/>
	<line style="fill:none;stroke:#000000;stroke-miterlimit:1;" x1="239.386" y1="28.819" x2="240.6" y2="32.156"/>
	<line style="fill:none;stroke:#000000;stroke-miterlimit:1;" x1="240.6" y1="32.156" x2="235.746" y2="29.122"/>
	<line style="fill:none;stroke:#000000;stroke-miterlimit:1;" x1="235.746" y1="29.122" x2="232.105" y2="27.909"/>
	<line style="fill:none;stroke:#000000;stroke-miterlimit:1;" x1="232.105" y1="27.909" x2="229.072" y2="26.999"/>
	<line style="fill:none;stroke:#000000;stroke-miterlimit:1;" x1="229.072" y1="26.999" x2="226.646" y2="26.695"/>
	<line style="fill:none;stroke:#000000;stroke-miterlimit:1;" x1="226.646" y1="26.695" x2="223.611" y2="27.302"/>
	<line style="fill:none;stroke:#000000;stroke-miterlimit:1;" x1="223.611" y1="27.302" x2="220.578" y2="27.909"/>
	<line style="fill:none;stroke:#000000;stroke-miterlimit:1;" x1="220.578" y1="27.909" x2="216.938" y2="29.729"/>
	<line style="fill:none;stroke:#000000;stroke-miterlimit:1;" x1="216.938" y1="29.729" x2="214.511" y2="31.549"/>
	<line style="fill:none;stroke:#000000;stroke-miterlimit:1;" x1="214.511" y1="31.549" x2="213.298" y2="32.156"/>
	<line style="fill:none;stroke:#000000;stroke-miterlimit:1;" x1="215.117" y1="64.008" x2="219.972" y2="44.29"/>
	<line style="fill:none;stroke:#000000;stroke-miterlimit:1;" x1="219.972" y1="44.29" x2="222.095" y2="41.56"/>
	<line style="fill:none;stroke:#000000;stroke-miterlimit:1;" x1="222.095" y1="41.56" x2="224.219" y2="40.65"/>
	<line style="fill:none;stroke:#000000;stroke-miterlimit:1;" x1="224.219" y1="40.65" x2="226.646" y2="40.043"/>
	<line style="fill:none;stroke:#000000;stroke-miterlimit:1;" x1="226.646" y1="40.043" x2="229.982" y2="40.65"/>
	<line style="fill:none;stroke:#000000;stroke-miterlimit:1;" x1="229.982" y1="40.65" x2="232.409" y2="42.47"/>
	<line style="fill:none;stroke:#000000;stroke-miterlimit:1;" x1="232.409" y1="42.47" x2="233.622" y2="44.593"/>
	<line style="fill:none;stroke:#000000;stroke-miterlimit:1;" x1="233.622" y1="44.593" x2="238.779" y2="64.312"/>
	<line style="fill:none;stroke:#000000;stroke-miterlimit:1;" x1="227.252" y1="68.255" x2="222.701" y2="67.952"/>
	<line style="fill:none;stroke:#000000;stroke-miterlimit:1;" x1="222.701" y1="67.952" x2="220.578" y2="67.345"/>
	<line style="fill:none;stroke:#000000;stroke-miterlimit:1;" x1="220.578" y1="67.345" x2="218.758" y2="67.042"/>
	<line style="fill:none;stroke:#000000;stroke-miterlimit:1;" x1="218.758" y1="67.042" x2="215.725" y2="65.525"/>
	<line style="fill:none;stroke:#000000;stroke-miterlimit:1;" x1="215.725" y1="65.525" x2="213.601" y2="62.795"/>
	<line style="fill:none;stroke:#000000;stroke-miterlimit:1;" x1="213.601" y1="62.795" x2="211.78" y2="60.064"/>
	<line style="fill:none;stroke:#000000;stroke-miterlimit:1;" x1="211.78" y1="60.064" x2="210.567" y2="57.031"/>
	<line style="fill:none;stroke:#000000;stroke-miterlimit:1;" x1="210.567" y1="57.031" x2="209.657" y2="53.391"/>
	<line style="fill:none;stroke:#000000;stroke-miterlimit:1;" x1="209.657" y1="53.391" x2="208.443" y2="48.537"/>
	<line style="fill:none;stroke:#000000;stroke-miterlimit:1;" x1="208.443" y1="48.537" x2="206.624" y2="23.055"/>
	<line style="fill:none;stroke:#000000;stroke-miterlimit:1;" x1="206.624" y1="23.055" x2="206.927" y2="18.505"/>
	<line style="fill:none;stroke:#000000;stroke-miterlimit:1;" x1="206.927" y1="18.505" x2="207.533" y2="16.381"/>
	<line style="fill:none;stroke:#000000;stroke-miterlimit:1;" x1="207.533" y1="16.381" x2="207.837" y2="14.561"/>
	<line style="fill:none;stroke:#000000;stroke-miterlimit:1;" x1="207.837" y1="14.561" x2="209.354" y2="12.134"/>
	<line style="fill:none;stroke:#000000;stroke-miterlimit:1;" x1="209.354" y1="12.134" x2="211.174" y2="10.314"/>
	<line style="fill:none;stroke:#000000;stroke-miterlimit:1;" x1="211.174" y1="10.314" x2="214.208" y2="8.494"/>
	<line style="fill:none;stroke:#000000;stroke-miterlimit:1;" x1="214.208" y1="8.494" x2="216.938" y2="7.584"/>
	<line style="fill:none;stroke:#000000;stroke-miterlimit:1;" x1="216.938" y1="7.584" x2="219.364" y2="7.28"/>
	<line style="fill:none;stroke:#000000;stroke-miterlimit:1;" x1="219.364" y1="7.28" x2="226.646" y2="6.674"/>
	<line style="fill:none;stroke:#000000;stroke-miterlimit:1;" x1="226.646" y1="6.674" x2="235.14" y2="7.28"/>
	<line style="fill:none;stroke:#000000;stroke-miterlimit:1;" x1="235.14" y1="7.28" x2="238.779" y2="7.887"/>
	<line style="fill:none;stroke:#000000;stroke-miterlimit:1;" x1="238.779" y1="7.887" x2="241.813" y2="9.708"/>
	<line style="fill:none;stroke:#000000;stroke-miterlimit:1;" x1="241.813" y1="9.708" x2="243.633" y2="10.921"/>
	<line style="fill:none;stroke:#000000;stroke-miterlimit:1;" x1="243.633" y1="10.921" x2="245.15" y2="13.348"/>
	<line style="fill:none;stroke:#000000;stroke-miterlimit:1;" x1="245.15" y1="13.348" x2="246.667" y2="18.201"/>
	<line style="fill:none;stroke:#000000;stroke-miterlimit:1;" x1="246.667" y1="18.201" x2="246.97" y2="22.145"/>
	<line style="fill:none;stroke:#000000;stroke-miterlimit:1;" x1="246.97" y1="22.145" x2="245.453" y2="44.29"/>
	<line style="fill:none;stroke:#000000;stroke-miterlimit:1;" x1="245.453" y1="44.29" x2="244.847" y2="50.357"/>
	<line style="fill:none;stroke:#000000;stroke-miterlimit:1;" x1="244.847" y1="50.357" x2="243.026" y2="57.031"/>
	<line style="fill:none;stroke:#000000;stroke-miterlimit:1;" x1="243.026" y1="57.031" x2="241.813" y2="60.064"/>
	<line style="fill:none;stroke:#000000;stroke-miterlimit:1;" x1="241.813" y1="60.064" x2="239.993" y2="63.098"/>
	<line style="fill:none;stroke:#000000;stroke-miterlimit:1;" x1="239.993" y1="63.098" x2="238.779" y2="64.615"/>
	<line style="fill:none;stroke:#000000;stroke-miterlimit:1;" x1="238.779" y1="64.615" x2="236.959" y2="66.132"/>
	<line style="fill:none;stroke:#000000;stroke-miterlimit:1;" x1="236.959" y1="66.132" x2="234.836" y2="67.345"/>
	<line style="fill:none;stroke:#000000;stroke-miterlimit:1;" x1="234.836" y1="67.345" x2="232.105" y2="67.952"/>
	<line style="fill:none;stroke:#000000;stroke-miterlimit:1;" x1="232.105" y1="67.952" x2="227.252" y2="68.255"/>
	<line style="fill:none;stroke:#000000;stroke-miterlimit:1;" x1="174.24" y1="93.51" x2="174.24" y2="148.114"/>
	<line style="fill:none;stroke:#000000;stroke-miterlimit:1;" x1="174.24" y1="148.114" x2="183.947" y2="148.114"/>
	<line style="fill:none;stroke:#000000;stroke-miterlimit:1;" x1="183.947" y1="148.114" x2="183.947" y2="93.51"/>
	<line style="fill:none;stroke:#000000;stroke-miterlimit:1;" x1="183.947" y1="93.51" x2="174.24" y2="93.51"/>
	<line style="fill:none;stroke:#000000;stroke-miterlimit:1;" x1="222.777" y1="93.51" x2="222.777" y2="148.114"/>
	<line style="fill:none;stroke:#000000;stroke-miterlimit:1;" x1="222.777" y1="148.114" x2="232.788" y2="148.114"/>
	<line style="fill:none;stroke:#000000;stroke-miterlimit:1;" x1="232.788" y1="148.114" x2="232.788" y2="93.51"/>
	<line style="fill:none;stroke:#000000;stroke-miterlimit:1;" x1="232.788" y1="93.51" x2="222.777" y2="93.51"/>
	<line style="fill:none;stroke:#000000;stroke-miterlimit:1;" x1="271.921" y1="93.51" x2="271.921" y2="148.114"/>
	<line style="fill:none;stroke:#000000;stroke-miterlimit:1;" x1="271.921" y1="148.114" x2="281.629" y2="148.114"/>
	<line style="fill:none;stroke:#000000;stroke-miterlimit:1;" x1="281.629" y1="148.114" x2="281.629" y2="93.51"/>
	<line style="fill:none;stroke:#000000;stroke-miterlimit:1;" x1="281.629" y1="93.51" x2="271.921" y2="93.51"/>
	
		<line style="fill:none;stroke:#C0C0C0;stroke-linejoin:bevel;stroke-miterlimit:10;" x1="4.114" y1="0.658" x2="4.114" y2="65.458"/>
	
		<line style="fill:none;stroke:#C0C0C0;stroke-linejoin:bevel;stroke-miterlimit:10;" x1="4.114" y1="65.458" x2="152.229" y2="65.458"/>
	
		<line style="fill:none;stroke:#C0C0C0;stroke-linejoin:bevel;stroke-miterlimit:10;" x1="152.229" y1="65.458" x2="152.229" y2="0.658"/>
	<line style="fill:none;stroke:#C0C0C0;stroke-linejoin:bevel;stroke-miterlimit:10;" x1="0" y1="0.658" x2="0" y2="147.744"/>
	
		<line style="fill:none;stroke:#C0C0C0;stroke-linejoin:bevel;stroke-miterlimit:10;" x1="0" y1="147.744" x2="44.229" y2="147.744"/>
	
		<line style="fill:none;stroke:#C0C0C0;stroke-linejoin:bevel;stroke-miterlimit:10;" x1="44.229" y1="147.744" x2="44.229" y2="0.658"/>
	
		<line style="fill:none;stroke:#C0C0C0;stroke-linejoin:bevel;stroke-miterlimit:10;" x1="119.314" y1="0.658" x2="119.314" y2="148.772"/>
	
		<line style="fill:none;stroke:#C0C0C0;stroke-linejoin:bevel;stroke-miterlimit:10;" x1="119.314" y1="148.772" x2="159.429" y2="148.772"/>
	
		<line style="fill:none;stroke:#C0C0C0;stroke-linejoin:bevel;stroke-miterlimit:10;" x1="159.429" y1="148.772" x2="159.429" y2="0.658"/>
</g>
</svg>
