<?xml version="1.0" encoding="iso-8859-1"?>
<!-- Generator: Adobe Illustrator 16.0.1, SVG Export Plug-In . SVG Version: 6.00 Build 0)  -->
<!DOCTYPE svg PUBLIC "-//W3C//DTD SVG 1.1//EN" "http://www.w3.org/Graphics/SVG/1.1/DTD/svg11.dtd">
<svg version="1.1" id="Ebene_1" xmlns="http://www.w3.org/2000/svg" xmlns:xlink="http://www.w3.org/1999/xlink" x="0px" y="0px"
	 width="400.266px" height="415.385px" viewBox="0 0 400.266 415.385" style="enable-background:new 0 0 400.266 415.385;"
	 xml:space="preserve">
<g>
	<g>
		<defs>
			<polygon id="SVGID_1_" points="69.682,291.223 400.266,291.223 400.266,12.632 69.682,12.632 69.682,291.223 			"/>
		</defs>
		<clipPath id="SVGID_2_">
			<use xlink:href="#SVGID_1_"  style="overflow:visible;"/>
		</clipPath>
		
			<line style="clip-path:url(#SVGID_2_);fill:none;stroke:#000000;stroke-width:0;stroke-miterlimit:1;" x1="85.708" y1="38.209" x2="82.01" y2="42.214"/>
		
			<line style="clip-path:url(#SVGID_2_);fill:none;stroke:#000000;stroke-width:0;stroke-miterlimit:1;" x1="82.01" y1="42.214" x2="80.778" y2="47.144"/>
		
			<line style="clip-path:url(#SVGID_2_);fill:none;stroke:#000000;stroke-width:0;stroke-miterlimit:1;" x1="80.778" y1="47.144" x2="81.702" y2="52.073"/>
		
			<line style="clip-path:url(#SVGID_2_);fill:none;stroke:#000000;stroke-width:0;stroke-miterlimit:1;" x1="81.702" y1="52.073" x2="83.859" y2="55.771"/>
		
			<line style="clip-path:url(#SVGID_2_);fill:none;stroke:#000000;stroke-width:0;stroke-miterlimit:1;" x1="83.859" y1="55.771" x2="89.713" y2="61.316"/>
		
			<line style="clip-path:url(#SVGID_2_);fill:none;stroke:#000000;stroke-width:0;stroke-miterlimit:1;" x1="89.713" y1="61.316" x2="99.88" y2="66.862"/>
		
			<line style="clip-path:url(#SVGID_2_);fill:none;stroke:#000000;stroke-width:0;stroke-miterlimit:1;" x1="99.88" y1="66.862" x2="117.441" y2="73.332"/>
		
			<line style="clip-path:url(#SVGID_2_);fill:none;stroke:#000000;stroke-width:0;stroke-miterlimit:1;" x1="117.441" y1="73.332" x2="138.392" y2="77.645"/>
		
			<line style="clip-path:url(#SVGID_2_);fill:none;stroke:#000000;stroke-width:0;stroke-miterlimit:1;" x1="138.392" y1="77.645" x2="159.343" y2="80.11"/>
		
			<line style="clip-path:url(#SVGID_2_);fill:none;stroke:#000000;stroke-width:0;stroke-miterlimit:1;" x1="159.343" y1="80.11" x2="166.121" y2="80.726"/>
		
			<line style="clip-path:url(#SVGID_2_);fill:none;stroke:#000000;stroke-width:0;stroke-miterlimit:1;" x1="166.121" y1="80.726" x2="170.435" y2="81.035"/>
		
			<line style="clip-path:url(#SVGID_2_);fill:none;stroke:#000000;stroke-width:0;stroke-miterlimit:1;" x1="170.435" y1="81.035" x2="172.591" y2="80.418"/>
		
			<line style="clip-path:url(#SVGID_2_);fill:none;stroke:#000000;stroke-width:0;stroke-miterlimit:1;" x1="172.591" y1="80.418" x2="173.823" y2="79.186"/>
		
			<line style="clip-path:url(#SVGID_2_);fill:none;stroke:#000000;stroke-width:0;stroke-miterlimit:1;" x1="173.823" y1="79.186" x2="173.823" y2="77.645"/>
		
			<line style="clip-path:url(#SVGID_2_);fill:none;stroke:#000000;stroke-width:0;stroke-miterlimit:1;" x1="173.823" y1="77.645" x2="172.282" y2="76.413"/>
		
			<line style="clip-path:url(#SVGID_2_);fill:none;stroke:#000000;stroke-width:0;stroke-miterlimit:1;" x1="172.282" y1="76.413" x2="163.964" y2="74.873"/>
		
			<line style="clip-path:url(#SVGID_2_);fill:none;stroke:#000000;stroke-width:0;stroke-miterlimit:1;" x1="163.964" y1="74.873" x2="158.727" y2="72.408"/>
		
			<line style="clip-path:url(#SVGID_2_);fill:none;stroke:#000000;stroke-width:0;stroke-miterlimit:1;" x1="158.727" y1="72.408" x2="155.646" y2="70.251"/>
		
			<line style="clip-path:url(#SVGID_2_);fill:none;stroke:#000000;stroke-width:0;stroke-miterlimit:1;" x1="155.646" y1="70.251" x2="148.251" y2="64.089"/>
		
			<line style="clip-path:url(#SVGID_2_);fill:none;stroke:#000000;stroke-width:0;stroke-miterlimit:1;" x1="148.251" y1="64.089" x2="137.159" y2="53.922"/>
		
			<line style="clip-path:url(#SVGID_2_);fill:none;stroke:#000000;stroke-width:0;stroke-miterlimit:1;" x1="137.159" y1="53.922" x2="126.068" y2="45.295"/>
		
			<line style="clip-path:url(#SVGID_2_);fill:none;stroke:#000000;stroke-width:0;stroke-miterlimit:1;" x1="126.068" y1="45.295" x2="115.901" y2="39.75"/>
		
			<line style="clip-path:url(#SVGID_2_);fill:none;stroke:#000000;stroke-width:0;stroke-miterlimit:1;" x1="115.901" y1="39.75" x2="106.042" y2="35.744"/>
		
			<line style="clip-path:url(#SVGID_2_);fill:none;stroke:#000000;stroke-width:0;stroke-miterlimit:1;" x1="106.042" y1="35.744" x2="98.647" y2="33.587"/>
		
			<line style="clip-path:url(#SVGID_2_);fill:none;stroke:#000000;stroke-width:0;stroke-miterlimit:1;" x1="98.647" y1="33.587" x2="92.178" y2="33.279"/>
		
			<line style="clip-path:url(#SVGID_2_);fill:none;stroke:#000000;stroke-width:0;stroke-miterlimit:1;" x1="92.178" y1="33.279" x2="86.632" y2="34.512"/>
		
			<line style="clip-path:url(#SVGID_2_);fill:none;stroke:#000000;stroke-width:0;stroke-miterlimit:1;" x1="86.632" y1="34.512" x2="82.318" y2="36.668"/>
		
			<line style="clip-path:url(#SVGID_2_);fill:none;stroke:#000000;stroke-width:0;stroke-miterlimit:1;" x1="82.318" y1="36.668" x2="79.237" y2="38.517"/>
		
			<line style="clip-path:url(#SVGID_2_);fill:none;stroke:#000000;stroke-width:0;stroke-miterlimit:1;" x1="79.237" y1="38.517" x2="77.697" y2="40.058"/>
		
			<line style="clip-path:url(#SVGID_2_);fill:none;stroke:#000000;stroke-width:0;stroke-miterlimit:1;" x1="77.697" y1="40.058" x2="75.54" y2="40.366"/>
		
			<line style="clip-path:url(#SVGID_2_);fill:none;stroke:#000000;stroke-width:0;stroke-miterlimit:1;" x1="75.54" y1="40.366" x2="73.075" y2="39.75"/>
		
			<line style="clip-path:url(#SVGID_2_);fill:none;stroke:#000000;stroke-width:0;stroke-miterlimit:1;" x1="73.075" y1="39.75" x2="72.767" y2="37.593"/>
		
			<line style="clip-path:url(#SVGID_2_);fill:none;stroke:#000000;stroke-width:0;stroke-miterlimit:1;" x1="72.767" y1="37.593" x2="84.783" y2="27.733"/>
		
			<line style="clip-path:url(#SVGID_2_);fill:none;stroke:#000000;stroke-width:0;stroke-miterlimit:1;" x1="84.783" y1="27.733" x2="87.248" y2="24.96"/>
		
			<line style="clip-path:url(#SVGID_2_);fill:none;stroke:#000000;stroke-width:0;stroke-miterlimit:1;" x1="87.248" y1="24.96" x2="88.788" y2="21.572"/>
		
			<line style="clip-path:url(#SVGID_2_);fill:none;stroke:#000000;stroke-width:0;stroke-miterlimit:1;" x1="88.788" y1="21.572" x2="89.097" y2="18.491"/>
		
			<line style="clip-path:url(#SVGID_2_);fill:none;stroke:#000000;stroke-width:0;stroke-miterlimit:1;" x1="89.097" y1="18.491" x2="88.788" y2="15.718"/>
	</g>
	<g>
		<defs>
			<polygon id="SVGID_3_" points="58.282,339.285 400.266,339.285 400.266,0 58.282,0 58.282,339.285 			"/>
		</defs>
		<clipPath id="SVGID_4_">
			<use xlink:href="#SVGID_3_"  style="overflow:visible;"/>
		</clipPath>
		
			<line style="clip-path:url(#SVGID_4_);fill:none;stroke:#000000;stroke-width:0;stroke-miterlimit:1;" x1="86.016" y1="13.561" x2="98.647" y2="19.415"/>
		
			<line style="clip-path:url(#SVGID_4_);fill:none;stroke:#000000;stroke-width:0;stroke-miterlimit:1;" x1="98.647" y1="19.415" x2="111.896" y2="24.344"/>
		
			<line style="clip-path:url(#SVGID_4_);fill:none;stroke:#000000;stroke-width:0;stroke-miterlimit:1;" x1="111.896" y1="24.344" x2="123.604" y2="26.809"/>
		
			<line style="clip-path:url(#SVGID_4_);fill:none;stroke:#000000;stroke-width:0;stroke-miterlimit:1;" x1="123.604" y1="26.809" x2="135.927" y2="27.733"/>
		
			<line style="clip-path:url(#SVGID_4_);fill:none;stroke:#000000;stroke-width:0;stroke-miterlimit:1;" x1="135.927" y1="27.733" x2="145.17" y2="28.042"/>
		
			<line style="clip-path:url(#SVGID_4_);fill:none;stroke:#000000;stroke-width:0;stroke-miterlimit:1;" x1="145.17" y1="28.042" x2="151.948" y2="27.117"/>
		
			<line style="clip-path:url(#SVGID_4_);fill:none;stroke:#000000;stroke-width:0;stroke-miterlimit:1;" x1="151.948" y1="27.117" x2="142.397" y2="25.577"/>
		
			<line style="clip-path:url(#SVGID_4_);fill:none;stroke:#000000;stroke-width:0;stroke-miterlimit:1;" x1="142.397" y1="25.577" x2="131.614" y2="24.652"/>
		
			<line style="clip-path:url(#SVGID_4_);fill:none;stroke:#000000;stroke-width:0;stroke-miterlimit:1;" x1="131.614" y1="24.652" x2="119.598" y2="22.804"/>
		
			<line style="clip-path:url(#SVGID_4_);fill:none;stroke:#000000;stroke-width:0;stroke-miterlimit:1;" x1="119.598" y1="22.804" x2="110.972" y2="20.339"/>
		
			<line style="clip-path:url(#SVGID_4_);fill:none;stroke:#000000;stroke-width:0;stroke-miterlimit:1;" x1="110.972" y1="20.339" x2="100.496" y2="16.642"/>
		
			<line style="clip-path:url(#SVGID_4_);fill:none;stroke:#000000;stroke-width:0;stroke-miterlimit:1;" x1="100.496" y1="16.642" x2="92.485" y2="13.253"/>
		
			<line style="clip-path:url(#SVGID_4_);fill:none;stroke:#000000;stroke-width:0;stroke-miterlimit:1;" x1="92.485" y1="13.253" x2="87.556" y2="9.864"/>
		
			<line style="clip-path:url(#SVGID_4_);fill:none;stroke:#000000;stroke-width:0;stroke-miterlimit:1;" x1="87.556" y1="9.864" x2="104.193" y2="16.334"/>
		
			<line style="clip-path:url(#SVGID_4_);fill:none;stroke:#000000;stroke-width:0;stroke-miterlimit:1;" x1="104.193" y1="16.334" x2="114.669" y2="18.183"/>
		
			<line style="clip-path:url(#SVGID_4_);fill:none;stroke:#000000;stroke-width:0;stroke-miterlimit:1;" x1="114.669" y1="18.183" x2="120.214" y2="19.107"/>
		
			<line style="clip-path:url(#SVGID_4_);fill:none;stroke:#000000;stroke-width:0;stroke-miterlimit:1;" x1="120.214" y1="19.107" x2="131.922" y2="20.031"/>
		
			<line style="clip-path:url(#SVGID_4_);fill:none;stroke:#000000;stroke-width:0;stroke-miterlimit:1;" x1="131.922" y1="20.031" x2="142.705" y2="19.415"/>
		
			<line style="clip-path:url(#SVGID_4_);fill:none;stroke:#000000;stroke-width:0;stroke-miterlimit:1;" x1="142.705" y1="19.415" x2="149.176" y2="18.799"/>
		
			<line style="clip-path:url(#SVGID_4_);fill:none;stroke:#000000;stroke-width:0;stroke-miterlimit:1;" x1="149.176" y1="18.799" x2="154.413" y2="18.491"/>
		
			<line style="clip-path:url(#SVGID_4_);fill:none;stroke:#000000;stroke-width:0;stroke-miterlimit:1;" x1="154.413" y1="18.491" x2="143.014" y2="17.566"/>
		
			<line style="clip-path:url(#SVGID_4_);fill:none;stroke:#000000;stroke-width:0;stroke-miterlimit:1;" x1="143.014" y1="17.566" x2="133.154" y2="16.642"/>
		
			<line style="clip-path:url(#SVGID_4_);fill:none;stroke:#000000;stroke-width:0;stroke-miterlimit:1;" x1="133.154" y1="16.642" x2="123.604" y2="16.334"/>
		
			<line style="clip-path:url(#SVGID_4_);fill:none;stroke:#000000;stroke-width:0;stroke-miterlimit:1;" x1="123.604" y1="16.334" x2="115.285" y2="15.102"/>
		
			<line style="clip-path:url(#SVGID_4_);fill:none;stroke:#000000;stroke-width:0;stroke-miterlimit:1;" x1="115.285" y1="15.102" x2="105.117" y2="12.945"/>
		
			<line style="clip-path:url(#SVGID_4_);fill:none;stroke:#000000;stroke-width:0;stroke-miterlimit:1;" x1="105.117" y1="12.945" x2="95.875" y2="10.172"/>
		
			<line style="clip-path:url(#SVGID_4_);fill:none;stroke:#000000;stroke-width:0;stroke-miterlimit:1;" x1="95.875" y1="10.172" x2="89.713" y2="7.399"/>
		
			<line style="clip-path:url(#SVGID_4_);fill:none;stroke:#000000;stroke-width:0;stroke-miterlimit:1;" x1="89.713" y1="7.399" x2="85.399" y2="4.626"/>
		
			<line style="clip-path:url(#SVGID_4_);fill:none;stroke:#000000;stroke-width:0;stroke-miterlimit:1;" x1="85.399" y1="4.626" x2="82.01" y2="3.394"/>
		
			<line style="clip-path:url(#SVGID_4_);fill:none;stroke:#000000;stroke-width:0;stroke-miterlimit:1;" x1="82.01" y1="3.394" x2="78.929" y2="3.086"/>
		
			<line style="clip-path:url(#SVGID_4_);fill:none;stroke:#000000;stroke-width:0;stroke-miterlimit:1;" x1="78.929" y1="3.086" x2="72.151" y2="4.01"/>
		
			<line style="clip-path:url(#SVGID_4_);fill:none;stroke:#000000;stroke-width:0;stroke-miterlimit:1;" x1="72.151" y1="4.01" x2="66.914" y2="5.858"/>
		
			<line style="clip-path:url(#SVGID_4_);fill:none;stroke:#000000;stroke-width:0;stroke-miterlimit:1;" x1="66.914" y1="5.858" x2="64.757" y2="7.399"/>
		
			<line style="clip-path:url(#SVGID_4_);fill:none;stroke:#000000;stroke-width:0;stroke-miterlimit:1;" x1="64.757" y1="7.399" x2="63.524" y2="9.556"/>
		
			<line style="clip-path:url(#SVGID_4_);fill:none;stroke:#000000;stroke-width:0;stroke-miterlimit:1;" x1="63.524" y1="9.556" x2="63.216" y2="10.172"/>
		
			<line style="clip-path:url(#SVGID_4_);fill:none;stroke:#000000;stroke-width:0;stroke-miterlimit:1;" x1="63.216" y1="10.172" x2="63.216" y2="12.637"/>
		
			<line style="clip-path:url(#SVGID_4_);fill:none;stroke:#000000;stroke-width:0;stroke-miterlimit:1;" x1="63.216" y1="12.637" x2="64.757" y2="15.102"/>
		
			<line style="clip-path:url(#SVGID_4_);fill:none;stroke:#000000;stroke-width:0;stroke-miterlimit:1;" x1="64.757" y1="15.102" x2="66.605" y2="15.718"/>
		
			<line style="clip-path:url(#SVGID_4_);fill:none;stroke:#000000;stroke-width:0;stroke-miterlimit:1;" x1="66.605" y1="15.718" x2="68.454" y2="16.334"/>
		
			<line style="clip-path:url(#SVGID_4_);fill:none;stroke:#000000;stroke-width:0;stroke-miterlimit:1;" x1="68.454" y1="16.334" x2="71.843" y2="17.258"/>
		
			<line style="clip-path:url(#SVGID_4_);fill:none;stroke:#000000;stroke-width:0;stroke-miterlimit:1;" x1="71.843" y1="17.258" x2="75.54" y2="17.258"/>
		
			<line style="clip-path:url(#SVGID_4_);fill:none;stroke:#000000;stroke-width:0;stroke-miterlimit:1;" x1="75.54" y1="17.258" x2="77.697" y2="16.334"/>
		
			<line style="clip-path:url(#SVGID_4_);fill:none;stroke:#000000;stroke-width:0;stroke-miterlimit:1;" x1="77.697" y1="16.334" x2="79.545" y2="16.026"/>
		
			<line style="clip-path:url(#SVGID_4_);fill:none;stroke:#000000;stroke-width:0;stroke-miterlimit:1;" x1="79.545" y1="16.026" x2="80.47" y2="17.566"/>
		
			<line style="clip-path:url(#SVGID_4_);fill:none;stroke:#000000;stroke-width:0;stroke-miterlimit:1;" x1="80.47" y1="17.566" x2="80.778" y2="20.339"/>
		
			<line style="clip-path:url(#SVGID_4_);fill:none;stroke:#000000;stroke-width:0;stroke-miterlimit:1;" x1="80.778" y1="20.339" x2="77.389" y2="24.344"/>
		
			<line style="clip-path:url(#SVGID_4_);fill:none;stroke:#000000;stroke-width:0;stroke-miterlimit:1;" x1="77.389" y1="24.344" x2="71.843" y2="28.35"/>
		
			<line style="clip-path:url(#SVGID_4_);fill:none;stroke:#000000;stroke-width:0;stroke-miterlimit:1;" x1="71.843" y1="28.35" x2="66.605" y2="33.279"/>
		
			<line style="clip-path:url(#SVGID_4_);fill:none;stroke:#000000;stroke-width:0;stroke-miterlimit:1;" x1="66.605" y1="33.279" x2="64.141" y2="36.668"/>
		
			<line style="clip-path:url(#SVGID_4_);fill:none;stroke:#000000;stroke-width:0;stroke-miterlimit:1;" x1="64.141" y1="36.668" x2="62.292" y2="39.441"/>
		
			<line style="clip-path:url(#SVGID_4_);fill:none;stroke:#000000;stroke-width:0;stroke-miterlimit:1;" x1="62.292" y1="39.441" x2="61.368" y2="44.371"/>
		
			<line style="clip-path:url(#SVGID_4_);fill:none;stroke:#000000;stroke-width:0;stroke-miterlimit:1;" x1="61.368" y1="44.371" x2="61.984" y2="47.144"/>
		
			<line style="clip-path:url(#SVGID_4_);fill:none;stroke:#000000;stroke-width:0;stroke-miterlimit:1;" x1="61.984" y1="47.144" x2="65.681" y2="52.689"/>
		
			<line style="clip-path:url(#SVGID_4_);fill:none;stroke:#000000;stroke-width:0;stroke-miterlimit:1;" x1="65.681" y1="52.689" x2="75.232" y2="63.165"/>
		
			<line style="clip-path:url(#SVGID_4_);fill:none;stroke:#000000;stroke-width:0;stroke-miterlimit:1;" x1="75.232" y1="63.165" x2="81.086" y2="68.402"/>
		
			<line style="clip-path:url(#SVGID_4_);fill:none;stroke:#000000;stroke-width:0;stroke-miterlimit:1;" x1="81.086" y1="68.402" x2="87.864" y2="73.332"/>
		
			<line style="clip-path:url(#SVGID_4_);fill:none;stroke:#000000;stroke-width:0;stroke-miterlimit:1;" x1="87.864" y1="73.332" x2="97.724" y2="77.645"/>
		
			<line style="clip-path:url(#SVGID_4_);fill:none;stroke:#000000;stroke-width:0;stroke-miterlimit:1;" x1="97.724" y1="77.645" x2="103.577" y2="86.272"/>
		
			<line style="clip-path:url(#SVGID_4_);fill:none;stroke:#000000;stroke-width:0;stroke-miterlimit:1;" x1="103.577" y1="86.272" x2="109.739" y2="93.358"/>
		
			<line style="clip-path:url(#SVGID_4_);fill:none;stroke:#000000;stroke-width:0;stroke-miterlimit:1;" x1="109.739" y1="93.358" x2="113.744" y2="97.671"/>
		
			<line style="clip-path:url(#SVGID_4_);fill:none;stroke:#000000;stroke-width:0;stroke-miterlimit:1;" x1="113.744" y1="97.671" x2="114.977" y2="100.445"/>
		
			<line style="clip-path:url(#SVGID_4_);fill:none;stroke:#000000;stroke-width:0;stroke-miterlimit:1;" x1="114.977" y1="100.445" x2="116.825" y2="120.471"/>
		
			<line style="clip-path:url(#SVGID_4_);fill:none;stroke:#000000;stroke-width:0;stroke-miterlimit:1;" x1="116.825" y1="120.471" x2="116.825" y2="133.411"/>
		
			<line style="clip-path:url(#SVGID_4_);fill:none;stroke:#000000;stroke-width:0;stroke-miterlimit:1;" x1="116.825" y1="133.411" x2="116.209" y2="135.568"/>
		
			<line style="clip-path:url(#SVGID_4_);fill:none;stroke:#000000;stroke-width:0;stroke-miterlimit:1;" x1="116.209" y1="135.568" x2="114.053" y2="136.184"/>
		
			<line style="clip-path:url(#SVGID_4_);fill:none;stroke:#000000;stroke-width:0;stroke-miterlimit:1;" x1="114.053" y1="136.184" x2="100.804" y2="138.033"/>
		
			<line style="clip-path:url(#SVGID_4_);fill:none;stroke:#000000;stroke-width:0;stroke-miterlimit:1;" x1="100.804" y1="138.033" x2="99.88" y2="138.34"/>
		
			<line style="clip-path:url(#SVGID_4_);fill:none;stroke:#000000;stroke-width:0;stroke-miterlimit:1;" x1="99.88" y1="138.34" x2="98.031" y2="138.649"/>
		
			<line style="clip-path:url(#SVGID_4_);fill:none;stroke:#000000;stroke-width:0;stroke-miterlimit:1;" x1="98.031" y1="138.649" x2="97.107" y2="139.881"/>
		
			<line style="clip-path:url(#SVGID_4_);fill:none;stroke:#000000;stroke-width:0;stroke-miterlimit:1;" x1="97.107" y1="139.881" x2="97.107" y2="141.73"/>
		
			<line style="clip-path:url(#SVGID_4_);fill:none;stroke:#000000;stroke-width:0;stroke-miterlimit:1;" x1="97.107" y1="141.73" x2="98.955" y2="140.805"/>
		
			<line style="clip-path:url(#SVGID_4_);fill:none;stroke:#000000;stroke-width:0;stroke-miterlimit:1;" x1="98.955" y1="140.805" x2="101.112" y2="141.421"/>
	</g>
	<g>
		<defs>
			<polygon id="SVGID_5_" points="58.282,415.385 400.266,415.385 400.266,0 58.282,0 58.282,415.385 			"/>
		</defs>
		<clipPath id="SVGID_6_">
			<use xlink:href="#SVGID_5_"  style="overflow:visible;"/>
		</clipPath>
		
			<line style="clip-path:url(#SVGID_6_);fill:none;stroke:#000000;stroke-width:0;stroke-miterlimit:1;" x1="110.047" y1="138.033" x2="102.345" y2="139.265"/>
		
			<line style="clip-path:url(#SVGID_6_);fill:none;stroke:#000000;stroke-width:0;stroke-miterlimit:1;" x1="102.345" y1="139.265" x2="101.112" y2="140.189"/>
		
			<line style="clip-path:url(#SVGID_6_);fill:none;stroke:#000000;stroke-width:0;stroke-miterlimit:1;" x1="101.112" y1="140.189" x2="101.42" y2="141.73"/>
		
			<line style="clip-path:url(#SVGID_6_);fill:none;stroke:#000000;stroke-width:0;stroke-miterlimit:1;" x1="101.42" y1="141.73" x2="103.885" y2="140.498"/>
		
			<line style="clip-path:url(#SVGID_6_);fill:none;stroke:#000000;stroke-width:0;stroke-miterlimit:1;" x1="103.885" y1="140.498" x2="105.733" y2="141.73"/>
		
			<line style="clip-path:url(#SVGID_6_);fill:none;stroke:#000000;stroke-width:0;stroke-miterlimit:1;" x1="105.733" y1="141.73" x2="118.058" y2="140.189"/>
		
			<line style="clip-path:url(#SVGID_6_);fill:none;stroke:#000000;stroke-width:0;stroke-miterlimit:1;" x1="118.058" y1="140.189" x2="127.608" y2="141.73"/>
		
			<line style="clip-path:url(#SVGID_6_);fill:none;stroke:#000000;stroke-width:0;stroke-miterlimit:1;" x1="127.608" y1="141.73" x2="127.917" y2="140.189"/>
		
			<line style="clip-path:url(#SVGID_6_);fill:none;stroke:#000000;stroke-width:0;stroke-miterlimit:1;" x1="127.917" y1="140.189" x2="127.301" y2="138.649"/>
		
			<line style="clip-path:url(#SVGID_6_);fill:none;stroke:#000000;stroke-width:0;stroke-miterlimit:1;" x1="127.301" y1="138.649" x2="124.836" y2="138.033"/>
		
			<line style="clip-path:url(#SVGID_6_);fill:none;stroke:#000000;stroke-width:0;stroke-miterlimit:1;" x1="124.836" y1="138.033" x2="122.062" y2="137.108"/>
		
			<line style="clip-path:url(#SVGID_6_);fill:none;stroke:#000000;stroke-width:0;stroke-miterlimit:1;" x1="122.062" y1="137.108" x2="121.139" y2="136.8"/>
		
			<line style="clip-path:url(#SVGID_6_);fill:none;stroke:#000000;stroke-width:0;stroke-miterlimit:1;" x1="121.139" y1="136.8" x2="120.214" y2="134.952"/>
		
			<line style="clip-path:url(#SVGID_6_);fill:none;stroke:#000000;stroke-width:0;stroke-miterlimit:1;" x1="120.214" y1="134.952" x2="119.906" y2="103.217"/>
		
			<line style="clip-path:url(#SVGID_6_);fill:none;stroke:#000000;stroke-width:0;stroke-miterlimit:1;" x1="119.906" y1="103.217" x2="120.522" y2="99.52"/>
		
			<line style="clip-path:url(#SVGID_6_);fill:none;stroke:#000000;stroke-width:0;stroke-miterlimit:1;" x1="120.522" y1="99.52" x2="120.522" y2="98.288"/>
		
			<line style="clip-path:url(#SVGID_6_);fill:none;stroke:#000000;stroke-width:0;stroke-miterlimit:1;" x1="120.522" y1="98.288" x2="118.365" y2="94.283"/>
		
			<line style="clip-path:url(#SVGID_6_);fill:none;stroke:#000000;stroke-width:0;stroke-miterlimit:1;" x1="118.365" y1="94.283" x2="116.209" y2="90.585"/>
		
			<line style="clip-path:url(#SVGID_6_);fill:none;stroke:#000000;stroke-width:0;stroke-miterlimit:1;" x1="116.209" y1="90.585" x2="109.123" y2="79.186"/>
	</g>
	<g>
		<defs>
			<polygon id="SVGID_7_" points="58.282,415.385 400.266,415.385 400.266,0 58.282,0 58.282,415.385 			"/>
		</defs>
		<clipPath id="SVGID_8_">
			<use xlink:href="#SVGID_7_"  style="overflow:visible;"/>
		</clipPath>
		
			<line style="clip-path:url(#SVGID_8_);fill:none;stroke:#000000;stroke-width:0;stroke-miterlimit:1;" x1="111.896" y1="82.575" x2="122.987" y2="83.807"/>
		
			<line style="clip-path:url(#SVGID_8_);fill:none;stroke:#000000;stroke-width:0;stroke-miterlimit:1;" x1="122.987" y1="83.807" x2="132.23" y2="83.5"/>
		
			<line style="clip-path:url(#SVGID_8_);fill:none;stroke:#000000;stroke-width:0;stroke-miterlimit:1;" x1="132.23" y1="83.5" x2="143.938" y2="82.267"/>
		
			<line style="clip-path:url(#SVGID_8_);fill:none;stroke:#000000;stroke-width:0;stroke-miterlimit:1;" x1="143.938" y1="82.267" x2="149.792" y2="87.504"/>
		
			<line style="clip-path:url(#SVGID_8_);fill:none;stroke:#000000;stroke-width:0;stroke-miterlimit:1;" x1="149.792" y1="87.504" x2="156.878" y2="93.974"/>
		
			<line style="clip-path:url(#SVGID_8_);fill:none;stroke:#000000;stroke-width:0;stroke-miterlimit:1;" x1="156.878" y1="93.974" x2="160.267" y2="94.283"/>
		
			<line style="clip-path:url(#SVGID_8_);fill:none;stroke:#000000;stroke-width:0;stroke-miterlimit:1;" x1="160.267" y1="94.283" x2="163.656" y2="93.358"/>
		
			<line style="clip-path:url(#SVGID_8_);fill:none;stroke:#000000;stroke-width:0;stroke-miterlimit:1;" x1="163.656" y1="93.358" x2="167.354" y2="90.277"/>
		
			<line style="clip-path:url(#SVGID_8_);fill:none;stroke:#000000;stroke-width:0;stroke-miterlimit:1;" x1="167.354" y1="90.277" x2="167.97" y2="87.812"/>
		
			<line style="clip-path:url(#SVGID_8_);fill:none;stroke:#000000;stroke-width:0;stroke-miterlimit:1;" x1="167.97" y1="87.812" x2="160.575" y2="80.11"/>
	</g>
	<g>
		<defs>
			<polygon id="SVGID_9_" points="33.326,415.385 400.266,415.385 400.266,0 33.326,0 33.326,415.385 			"/>
		</defs>
		<clipPath id="SVGID_10_">
			<use xlink:href="#SVGID_9_"  style="overflow:visible;"/>
		</clipPath>
		
			<line style="clip-path:url(#SVGID_10_);fill:none;stroke:#000000;stroke-width:0;stroke-miterlimit:1;" x1="63.216" y1="9.864" x2="36.412" y2="26.193"/>
		
			<line style="clip-path:url(#SVGID_10_);fill:none;stroke:#000000;stroke-width:0;stroke-miterlimit:1;" x1="36.412" y1="26.193" x2="67.222" y2="16.026"/>
	</g>
	<g>
		<defs>
			<polygon id="SVGID_11_" points="33.326,415.385 400.266,415.385 400.266,0 33.326,0 33.326,415.385 			"/>
		</defs>
		<clipPath id="SVGID_12_">
			<use xlink:href="#SVGID_11_"  style="overflow:visible;"/>
		</clipPath>
		
			<line style="clip-path:url(#SVGID_12_);fill:none;stroke:#000000;stroke-width:0;stroke-miterlimit:1;" x1="63.524" y1="14.177" x2="36.412" y2="26.193"/>
	</g>
	<g>
		<defs>
			<polygon id="SVGID_13_" points="33.326,415.385 400.266,415.385 400.266,0 33.326,0 33.326,415.385 			"/>
		</defs>
		<clipPath id="SVGID_14_">
			<use xlink:href="#SVGID_13_"  style="overflow:visible;"/>
		</clipPath>
		
			<line style="clip-path:url(#SVGID_14_);fill:none;stroke:#000000;stroke-width:0;stroke-miterlimit:1;" x1="69.378" y1="9.248" x2="67.838" y2="10.172"/>
		
			<line style="clip-path:url(#SVGID_14_);fill:none;stroke:#000000;stroke-width:0;stroke-miterlimit:1;" x1="67.838" y1="10.172" x2="68.762" y2="11.712"/>
		
			<line style="clip-path:url(#SVGID_14_);fill:none;stroke:#000000;stroke-width:0;stroke-miterlimit:1;" x1="68.762" y1="11.712" x2="70.303" y2="11.096"/>
		
			<line style="clip-path:url(#SVGID_14_);fill:none;stroke:#000000;stroke-width:0;stroke-miterlimit:1;" x1="70.303" y1="11.096" x2="69.687" y2="9.864"/>
	</g>
	<g>
		<defs>
			<polygon id="SVGID_15_" points="33.326,415.385 400.266,415.385 400.266,0 33.326,0 33.326,415.385 			"/>
		</defs>
		<clipPath id="SVGID_16_">
			<use xlink:href="#SVGID_15_"  style="overflow:visible;"/>
		</clipPath>
		
			<line style="clip-path:url(#SVGID_16_);fill:none;stroke:#000000;stroke-width:0;stroke-miterlimit:1;" x1="128.533" y1="138.957" x2="130.998" y2="139.573"/>
		
			<line style="clip-path:url(#SVGID_16_);fill:none;stroke:#000000;stroke-width:0;stroke-miterlimit:1;" x1="130.998" y1="139.573" x2="132.23" y2="140.498"/>
		
			<line style="clip-path:url(#SVGID_16_);fill:none;stroke:#000000;stroke-width:0;stroke-miterlimit:1;" x1="132.23" y1="140.498" x2="132.538" y2="141.114"/>
		
			<line style="clip-path:url(#SVGID_16_);fill:none;stroke:#000000;stroke-width:0;stroke-miterlimit:1;" x1="132.538" y1="141.114" x2="130.998" y2="141.73"/>
		
			<line style="clip-path:url(#SVGID_16_);fill:none;stroke:#000000;stroke-width:0;stroke-miterlimit:1;" x1="130.998" y1="141.73" x2="128.841" y2="141.421"/>
	</g>
	<g>
		<defs>
			<polygon id="SVGID_17_" points="33.326,415.385 400.266,415.385 400.266,0 33.326,0 33.326,415.385 			"/>
		</defs>
		<clipPath id="SVGID_18_">
			<use xlink:href="#SVGID_17_"  style="overflow:visible;"/>
		</clipPath>
		
			<line style="clip-path:url(#SVGID_18_);fill:none;stroke:#000000;stroke-width:0;stroke-miterlimit:1;" x1="82.318" y1="69.635" x2="88.788" y2="81.958"/>
		
			<line style="clip-path:url(#SVGID_18_);fill:none;stroke:#000000;stroke-width:0;stroke-miterlimit:1;" x1="88.788" y1="81.958" x2="96.183" y2="93.05"/>
		
			<line style="clip-path:url(#SVGID_18_);fill:none;stroke:#000000;stroke-width:0;stroke-miterlimit:1;" x1="96.183" y1="93.05" x2="96.799" y2="95.823"/>
		
			<line style="clip-path:url(#SVGID_18_);fill:none;stroke:#000000;stroke-width:0;stroke-miterlimit:1;" x1="96.799" y1="95.823" x2="76.772" y2="131.871"/>
		
			<line style="clip-path:url(#SVGID_18_);fill:none;stroke:#000000;stroke-width:0;stroke-miterlimit:1;" x1="76.772" y1="131.871" x2="75.848" y2="133.411"/>
		
			<line style="clip-path:url(#SVGID_18_);fill:none;stroke:#000000;stroke-width:0;stroke-miterlimit:1;" x1="75.848" y1="133.411" x2="74.924" y2="134.952"/>
		
			<line style="clip-path:url(#SVGID_18_);fill:none;stroke:#000000;stroke-width:0;stroke-miterlimit:1;" x1="74.924" y1="134.952" x2="72.767" y2="135.568"/>
		
			<line style="clip-path:url(#SVGID_18_);fill:none;stroke:#000000;stroke-width:0;stroke-miterlimit:1;" x1="72.767" y1="135.568" x2="65.373" y2="136.8"/>
		
			<line style="clip-path:url(#SVGID_18_);fill:none;stroke:#000000;stroke-width:0;stroke-miterlimit:1;" x1="65.373" y1="136.8" x2="60.443" y2="137.724"/>
		
			<line style="clip-path:url(#SVGID_18_);fill:none;stroke:#000000;stroke-width:0;stroke-miterlimit:1;" x1="60.443" y1="137.724" x2="58.595" y2="138.649"/>
		
			<line style="clip-path:url(#SVGID_18_);fill:none;stroke:#000000;stroke-width:0;stroke-miterlimit:1;" x1="58.595" y1="138.649" x2="57.362" y2="138.957"/>
		
			<line style="clip-path:url(#SVGID_18_);fill:none;stroke:#000000;stroke-width:0;stroke-miterlimit:1;" x1="57.362" y1="138.957" x2="55.514" y2="139.265"/>
		
			<line style="clip-path:url(#SVGID_18_);fill:none;stroke:#000000;stroke-width:0;stroke-miterlimit:1;" x1="55.514" y1="139.265" x2="54.897" y2="139.881"/>
		
			<line style="clip-path:url(#SVGID_18_);fill:none;stroke:#000000;stroke-width:0;stroke-miterlimit:1;" x1="54.897" y1="139.881" x2="54.281" y2="141.421"/>
		
			<line style="clip-path:url(#SVGID_18_);fill:none;stroke:#000000;stroke-width:0;stroke-miterlimit:1;" x1="54.281" y1="141.421" x2="56.13" y2="140.498"/>
		
			<line style="clip-path:url(#SVGID_18_);fill:none;stroke:#000000;stroke-width:0;stroke-miterlimit:1;" x1="56.13" y1="140.498" x2="58.287" y2="141.421"/>
	</g>
	<g>
		<defs>
			<polygon id="SVGID_19_" points="33.326,415.385 400.266,415.385 400.266,0 33.326,0 33.326,415.385 			"/>
		</defs>
		<clipPath id="SVGID_20_">
			<use xlink:href="#SVGID_19_"  style="overflow:visible;"/>
		</clipPath>
		
			<line style="clip-path:url(#SVGID_20_);fill:none;stroke:#000000;stroke-width:0;stroke-miterlimit:1;" x1="61.676" y1="139.573" x2="60.443" y2="139.573"/>
		
			<line style="clip-path:url(#SVGID_20_);fill:none;stroke:#000000;stroke-width:0;stroke-miterlimit:1;" x1="60.443" y1="139.573" x2="58.903" y2="139.881"/>
		
			<line style="clip-path:url(#SVGID_20_);fill:none;stroke:#000000;stroke-width:0;stroke-miterlimit:1;" x1="58.903" y1="139.881" x2="58.287" y2="141.114"/>
		
			<line style="clip-path:url(#SVGID_20_);fill:none;stroke:#000000;stroke-width:0;stroke-miterlimit:1;" x1="58.287" y1="141.114" x2="58.903" y2="141.421"/>
		
			<line style="clip-path:url(#SVGID_20_);fill:none;stroke:#000000;stroke-width:0;stroke-miterlimit:1;" x1="58.903" y1="141.421" x2="60.751" y2="140.805"/>
	</g>
	<g>
		<defs>
			<polygon id="SVGID_21_" points="33.326,415.385 400.266,415.385 400.266,0 33.326,0 33.326,415.385 			"/>
		</defs>
		<clipPath id="SVGID_22_">
			<use xlink:href="#SVGID_21_"  style="overflow:visible;"/>
		</clipPath>
		
			<line style="clip-path:url(#SVGID_22_);fill:none;stroke:#000000;stroke-width:0;stroke-miterlimit:1;" x1="61.984" y1="139.265" x2="64.141" y2="138.649"/>
		
			<line style="clip-path:url(#SVGID_22_);fill:none;stroke:#000000;stroke-width:0;stroke-miterlimit:1;" x1="64.141" y1="138.649" x2="69.07" y2="138.34"/>
	</g>
	<g>
		<defs>
			<polygon id="SVGID_23_" points="33.326,415.385 400.266,415.385 400.266,0 33.326,0 33.326,415.385 			"/>
		</defs>
		<clipPath id="SVGID_24_">
			<use xlink:href="#SVGID_23_"  style="overflow:visible;"/>
		</clipPath>
		
			<line style="clip-path:url(#SVGID_24_);fill:none;stroke:#000000;stroke-width:0;stroke-miterlimit:1;" x1="61.06" y1="140.805" x2="63.524" y2="141.73"/>
		
			<line style="clip-path:url(#SVGID_24_);fill:none;stroke:#000000;stroke-width:0;stroke-miterlimit:1;" x1="63.524" y1="141.73" x2="74.924" y2="140.498"/>
		
			<line style="clip-path:url(#SVGID_24_);fill:none;stroke:#000000;stroke-width:0;stroke-miterlimit:1;" x1="74.924" y1="140.498" x2="76.772" y2="140.189"/>
		
			<line style="clip-path:url(#SVGID_24_);fill:none;stroke:#000000;stroke-width:0;stroke-miterlimit:1;" x1="76.772" y1="140.189" x2="86.016" y2="141.73"/>
		
			<line style="clip-path:url(#SVGID_24_);fill:none;stroke:#000000;stroke-width:0;stroke-miterlimit:1;" x1="86.016" y1="141.73" x2="86.324" y2="140.189"/>
		
			<line style="clip-path:url(#SVGID_24_);fill:none;stroke:#000000;stroke-width:0;stroke-miterlimit:1;" x1="86.324" y1="140.189" x2="86.016" y2="138.649"/>
		
			<line style="clip-path:url(#SVGID_24_);fill:none;stroke:#000000;stroke-width:0;stroke-miterlimit:1;" x1="86.016" y1="138.649" x2="83.243" y2="138.033"/>
		
			<line style="clip-path:url(#SVGID_24_);fill:none;stroke:#000000;stroke-width:0;stroke-miterlimit:1;" x1="83.243" y1="138.033" x2="79.545" y2="136.8"/>
	</g>
	<g>
		<defs>
			<polygon id="SVGID_25_" points="33.326,415.385 400.266,415.385 400.266,0 33.326,0 33.326,415.385 			"/>
		</defs>
		<clipPath id="SVGID_26_">
			<use xlink:href="#SVGID_25_"  style="overflow:visible;"/>
		</clipPath>
		
			<line style="clip-path:url(#SVGID_26_);fill:none;stroke:#000000;stroke-width:0;stroke-miterlimit:1;" x1="79.237" y1="136.492" x2="78.929" y2="134.952"/>
		
			<line style="clip-path:url(#SVGID_26_);fill:none;stroke:#000000;stroke-width:0;stroke-miterlimit:1;" x1="78.929" y1="134.952" x2="98.031" y2="103.217"/>
		
			<line style="clip-path:url(#SVGID_26_);fill:none;stroke:#000000;stroke-width:0;stroke-miterlimit:1;" x1="98.031" y1="103.217" x2="102.652" y2="94.899"/>
		
			<line style="clip-path:url(#SVGID_26_);fill:none;stroke:#000000;stroke-width:0;stroke-miterlimit:1;" x1="102.652" y1="94.899" x2="102.652" y2="92.125"/>
		
			<line style="clip-path:url(#SVGID_26_);fill:none;stroke:#000000;stroke-width:0;stroke-miterlimit:1;" x1="102.652" y1="92.125" x2="99.264" y2="80.418"/>
	</g>
	<g>
		<defs>
			<polygon id="SVGID_27_" points="33.326,415.385 400.266,415.385 400.266,0 33.326,0 33.326,415.385 			"/>
		</defs>
		<clipPath id="SVGID_28_">
			<use xlink:href="#SVGID_27_"  style="overflow:visible;"/>
		</clipPath>
		
			<line style="clip-path:url(#SVGID_28_);fill:none;stroke:#000000;stroke-width:0;stroke-miterlimit:1;" x1="86.94" y1="138.957" x2="89.097" y2="139.573"/>
		
			<line style="clip-path:url(#SVGID_28_);fill:none;stroke:#000000;stroke-width:0;stroke-miterlimit:1;" x1="89.097" y1="139.573" x2="90.329" y2="140.498"/>
		
			<line style="clip-path:url(#SVGID_28_);fill:none;stroke:#000000;stroke-width:0;stroke-miterlimit:1;" x1="90.329" y1="140.498" x2="90.637" y2="141.114"/>
		
			<line style="clip-path:url(#SVGID_28_);fill:none;stroke:#000000;stroke-width:0;stroke-miterlimit:1;" x1="90.637" y1="141.114" x2="89.097" y2="141.73"/>
		
			<line style="clip-path:url(#SVGID_28_);fill:none;stroke:#000000;stroke-width:0;stroke-miterlimit:1;" x1="89.097" y1="141.73" x2="86.94" y2="141.421"/>
	</g>
	<g>
		<defs>
			<polygon id="SVGID_29_" points="33.326,415.385 400.266,415.385 400.266,0 33.326,0 33.326,415.385 			"/>
		</defs>
		<clipPath id="SVGID_30_">
			<use xlink:href="#SVGID_29_"  style="overflow:visible;"/>
		</clipPath>
		
			<line style="clip-path:url(#SVGID_30_);fill:none;stroke:#000000;stroke-width:0;stroke-miterlimit:1;" x1="47.139" y1="112.862" x2="49.604" y2="114.402"/>
		
			<line style="clip-path:url(#SVGID_30_);fill:none;stroke:#000000;stroke-width:0;stroke-miterlimit:1;" x1="49.604" y1="114.402" x2="51.453" y2="115.018"/>
		
			<line style="clip-path:url(#SVGID_30_);fill:none;stroke:#000000;stroke-width:0;stroke-miterlimit:1;" x1="51.453" y1="115.018" x2="52.377" y2="115.018"/>
		
			<line style="clip-path:url(#SVGID_30_);fill:none;stroke:#000000;stroke-width:0;stroke-miterlimit:1;" x1="52.377" y1="115.018" x2="53.301" y2="114.094"/>
		
			<line style="clip-path:url(#SVGID_30_);fill:none;stroke:#000000;stroke-width:0;stroke-miterlimit:1;" x1="53.301" y1="114.094" x2="54.534" y2="112.862"/>
		
			<line style="clip-path:url(#SVGID_30_);fill:none;stroke:#000000;stroke-width:0;stroke-miterlimit:1;" x1="54.534" y1="112.862" x2="60.695" y2="102.079"/>
		
			<line style="clip-path:url(#SVGID_30_);fill:none;stroke:#000000;stroke-width:0;stroke-miterlimit:1;" x1="60.695" y1="102.079" x2="60.695" y2="100.538"/>
		
			<line style="clip-path:url(#SVGID_30_);fill:none;stroke:#000000;stroke-width:0;stroke-miterlimit:1;" x1="60.695" y1="100.538" x2="60.387" y2="99.921"/>
		
			<line style="clip-path:url(#SVGID_30_);fill:none;stroke:#000000;stroke-width:0;stroke-miterlimit:1;" x1="60.387" y1="99.921" x2="59.771" y2="98.998"/>
		
			<line style="clip-path:url(#SVGID_30_);fill:none;stroke:#000000;stroke-width:0;stroke-miterlimit:1;" x1="59.771" y1="98.998" x2="57.614" y2="97.765"/>
		
			<line style="clip-path:url(#SVGID_30_);fill:none;stroke:#000000;stroke-width:0;stroke-miterlimit:1;" x1="57.614" y1="97.765" x2="7.086" y2="74.042"/>
		
			<line style="clip-path:url(#SVGID_30_);fill:none;stroke:#000000;stroke-width:0;stroke-miterlimit:1;" x1="7.086" y1="74.042" x2="5.854" y2="73.734"/>
		
			<line style="clip-path:url(#SVGID_30_);fill:none;stroke:#000000;stroke-width:0;stroke-miterlimit:1;" x1="5.854" y1="73.734" x2="4.313" y2="73.425"/>
		
			<line style="clip-path:url(#SVGID_30_);fill:none;stroke:#000000;stroke-width:0;stroke-miterlimit:1;" x1="4.313" y1="73.425" x2="2.773" y2="74.042"/>
		
			<line style="clip-path:url(#SVGID_30_);fill:none;stroke:#000000;stroke-width:0;stroke-miterlimit:1;" x1="2.773" y1="74.042" x2="1.232" y2="74.965"/>
		
			<line style="clip-path:url(#SVGID_30_);fill:none;stroke:#000000;stroke-width:0;stroke-miterlimit:1;" x1="1.232" y1="74.965" x2="0.616" y2="75.89"/>
		
			<line style="clip-path:url(#SVGID_30_);fill:none;stroke:#000000;stroke-width:0;stroke-miterlimit:1;" x1="0.616" y1="75.89" x2="0" y2="77.739"/>
		
			<line style="clip-path:url(#SVGID_30_);fill:none;stroke:#000000;stroke-width:0;stroke-miterlimit:1;" x1="0" y1="77.739" x2="0" y2="78.971"/>
		
			<line style="clip-path:url(#SVGID_30_);fill:none;stroke:#000000;stroke-width:0;stroke-miterlimit:1;" x1="0" y1="78.971" x2="0.616" y2="80.511"/>
		
			<line style="clip-path:url(#SVGID_30_);fill:none;stroke:#000000;stroke-width:0;stroke-miterlimit:1;" x1="0.616" y1="80.511" x2="1.541" y2="81.744"/>
		
			<line style="clip-path:url(#SVGID_30_);fill:none;stroke:#000000;stroke-width:0;stroke-miterlimit:1;" x1="1.541" y1="81.744" x2="3.081" y2="83.285"/>
		
			<line style="clip-path:url(#SVGID_30_);fill:none;stroke:#000000;stroke-width:0;stroke-miterlimit:1;" x1="3.081" y1="83.285" x2="47.139" y2="112.862"/>
	</g>
</g>
</svg>
