<?xml version="1.0" encoding="iso-8859-1"?>
<!-- Generator: Adobe Illustrator 16.0.1, SVG Export Plug-In . SVG Version: 6.00 Build 0)  -->
<!DOCTYPE svg PUBLIC "-//W3C//DTD SVG 1.1//EN" "http://www.w3.org/Graphics/SVG/1.1/DTD/svg11.dtd">
<svg version="1.1" id="Ebene_1" xmlns="http://www.w3.org/2000/svg" xmlns:xlink="http://www.w3.org/1999/xlink" x="0px" y="0px"
	 width="269.076px" height="278.865px" viewBox="0 0 269.076 278.865" style="enable-background:new 0 0 269.076 278.865;"
	 xml:space="preserve">
<g>
	<g>
		<defs>
			<polygon id="SVGID_1_" points="18.621,180.121 231.836,180.121 231.836,0 18.621,0 18.621,180.121 			"/>
		</defs>
		<clipPath id="SVGID_2_">
			<use xlink:href="#SVGID_1_"  style="overflow:visible;"/>
		</clipPath>
		
			<line style="clip-path:url(#SVGID_2_);fill:none;stroke:#000000;stroke-width:0;stroke-miterlimit:1;" x1="23.374" y1="46.858" x2="31.711" y2="46.858"/>
		
			<line style="clip-path:url(#SVGID_2_);fill:none;stroke:#000000;stroke-width:0;stroke-miterlimit:1;" x1="31.711" y1="46.858" x2="31.573" y2="43.801"/>
		
			<line style="clip-path:url(#SVGID_2_);fill:none;stroke:#000000;stroke-width:0;stroke-miterlimit:1;" x1="31.573" y1="43.801" x2="32.406" y2="39.771"/>
		
			<line style="clip-path:url(#SVGID_2_);fill:none;stroke:#000000;stroke-width:0;stroke-miterlimit:1;" x1="32.406" y1="39.771" x2="33.24" y2="37.409"/>
		
			<line style="clip-path:url(#SVGID_2_);fill:none;stroke:#000000;stroke-width:0;stroke-miterlimit:1;" x1="33.24" y1="37.409" x2="34.908" y2="33.657"/>
		
			<line style="clip-path:url(#SVGID_2_);fill:none;stroke:#000000;stroke-width:0;stroke-miterlimit:1;" x1="34.908" y1="33.657" x2="42.55" y2="20.178"/>
		
			<line style="clip-path:url(#SVGID_2_);fill:none;stroke:#000000;stroke-width:0;stroke-miterlimit:1;" x1="42.55" y1="20.178" x2="42.967" y2="17.26"/>
		
			<line style="clip-path:url(#SVGID_2_);fill:none;stroke:#000000;stroke-width:0;stroke-miterlimit:1;" x1="42.967" y1="17.26" x2="43.106" y2="15.87"/>
		
			<line style="clip-path:url(#SVGID_2_);fill:none;stroke:#000000;stroke-width:0;stroke-miterlimit:1;" x1="43.106" y1="15.87" x2="42.828" y2="13.369"/>
		
			<line style="clip-path:url(#SVGID_2_);fill:none;stroke:#000000;stroke-width:0;stroke-miterlimit:1;" x1="42.828" y1="13.369" x2="42.412" y2="11.701"/>
		
			<line style="clip-path:url(#SVGID_2_);fill:none;stroke:#000000;stroke-width:0;stroke-miterlimit:1;" x1="42.412" y1="11.701" x2="41.717" y2="9.617"/>
		
			<line style="clip-path:url(#SVGID_2_);fill:none;stroke:#000000;stroke-width:0;stroke-miterlimit:1;" x1="41.717" y1="9.617" x2="40.466" y2="7.671"/>
		
			<line style="clip-path:url(#SVGID_2_);fill:none;stroke:#000000;stroke-width:0;stroke-miterlimit:1;" x1="40.466" y1="7.671" x2="39.493" y2="6.56"/>
		
			<line style="clip-path:url(#SVGID_2_);fill:none;stroke:#000000;stroke-width:0;stroke-miterlimit:1;" x1="39.493" y1="6.56" x2="36.992" y2="4.197"/>
		
			<line style="clip-path:url(#SVGID_2_);fill:none;stroke:#000000;stroke-width:0;stroke-miterlimit:1;" x1="36.992" y1="4.197" x2="35.046" y2="3.502"/>
		
			<line style="clip-path:url(#SVGID_2_);fill:none;stroke:#000000;stroke-width:0;stroke-miterlimit:1;" x1="35.046" y1="3.502" x2="31.017" y2="3.086"/>
		
			<line style="clip-path:url(#SVGID_2_);fill:none;stroke:#000000;stroke-width:0;stroke-miterlimit:1;" x1="31.017" y1="3.086" x2="27.682" y2="3.502"/>
		
			<line style="clip-path:url(#SVGID_2_);fill:none;stroke:#000000;stroke-width:0;stroke-miterlimit:1;" x1="27.682" y1="3.502" x2="26.292" y2="4.059"/>
		
			<line style="clip-path:url(#SVGID_2_);fill:none;stroke:#000000;stroke-width:0;stroke-miterlimit:1;" x1="26.292" y1="4.059" x2="24.625" y2="5.17"/>
		
			<line style="clip-path:url(#SVGID_2_);fill:none;stroke:#000000;stroke-width:0;stroke-miterlimit:1;" x1="24.625" y1="5.17" x2="23.096" y2="6.837"/>
		
			<line style="clip-path:url(#SVGID_2_);fill:none;stroke:#000000;stroke-width:0;stroke-miterlimit:1;" x1="23.096" y1="6.837" x2="22.401" y2="7.811"/>
		
			<line style="clip-path:url(#SVGID_2_);fill:none;stroke:#000000;stroke-width:0;stroke-miterlimit:1;" x1="22.401" y1="7.811" x2="21.707" y2="8.644"/>
	</g>
	<g>
		<defs>
			<polygon id="SVGID_3_" points="0,180.121 231.836,180.121 231.836,0 0,0 0,180.121 			"/>
		</defs>
		<clipPath id="SVGID_4_">
			<use xlink:href="#SVGID_3_"  style="overflow:visible;"/>
		</clipPath>
		
			<line style="clip-path:url(#SVGID_4_);fill:none;stroke:#000000;stroke-width:0;stroke-miterlimit:1;" x1="21.29" y1="8.783" x2="20.039" y2="9.339"/>
		
			<line style="clip-path:url(#SVGID_4_);fill:none;stroke:#000000;stroke-width:0;stroke-miterlimit:1;" x1="20.039" y1="9.339" x2="6.421" y2="11.979"/>
		
			<line style="clip-path:url(#SVGID_4_);fill:none;stroke:#000000;stroke-width:0;stroke-miterlimit:1;" x1="6.421" y1="11.979" x2="5.17" y2="12.952"/>
		
			<line style="clip-path:url(#SVGID_4_);fill:none;stroke:#000000;stroke-width:0;stroke-miterlimit:1;" x1="5.17" y1="12.952" x2="4.198" y2="13.646"/>
		
			<line style="clip-path:url(#SVGID_4_);fill:none;stroke:#000000;stroke-width:0;stroke-miterlimit:1;" x1="4.198" y1="13.646" x2="3.364" y2="15.175"/>
		
			<line style="clip-path:url(#SVGID_4_);fill:none;stroke:#000000;stroke-width:0;stroke-miterlimit:1;" x1="3.364" y1="15.175" x2="3.086" y2="17.398"/>
		
			<line style="clip-path:url(#SVGID_4_);fill:none;stroke:#000000;stroke-width:0;stroke-miterlimit:1;" x1="3.086" y1="17.398" x2="3.225" y2="17.955"/>
		
			<line style="clip-path:url(#SVGID_4_);fill:none;stroke:#000000;stroke-width:0;stroke-miterlimit:1;" x1="3.225" y1="17.955" x2="3.642" y2="18.232"/>
		
			<line style="clip-path:url(#SVGID_4_);fill:none;stroke:#000000;stroke-width:0;stroke-miterlimit:1;" x1="3.642" y1="18.232" x2="3.92" y2="18.232"/>
		
			<line style="clip-path:url(#SVGID_4_);fill:none;stroke:#000000;stroke-width:0;stroke-miterlimit:1;" x1="3.92" y1="18.232" x2="4.615" y2="17.955"/>
		
			<line style="clip-path:url(#SVGID_4_);fill:none;stroke:#000000;stroke-width:0;stroke-miterlimit:1;" x1="4.615" y1="17.955" x2="4.893" y2="16.704"/>
		
			<line style="clip-path:url(#SVGID_4_);fill:none;stroke:#000000;stroke-width:0;stroke-miterlimit:1;" x1="4.893" y1="16.704" x2="5.726" y2="15.453"/>
		
			<line style="clip-path:url(#SVGID_4_);fill:none;stroke:#000000;stroke-width:0;stroke-miterlimit:1;" x1="5.726" y1="15.453" x2="6.977" y2="14.341"/>
		
			<line style="clip-path:url(#SVGID_4_);fill:none;stroke:#000000;stroke-width:0;stroke-miterlimit:1;" x1="6.977" y1="14.341" x2="8.366" y2="13.924"/>
		
			<line style="clip-path:url(#SVGID_4_);fill:none;stroke:#000000;stroke-width:0;stroke-miterlimit:1;" x1="8.366" y1="13.924" x2="10.173" y2="13.369"/>
		
			<line style="clip-path:url(#SVGID_4_);fill:none;stroke:#000000;stroke-width:0;stroke-miterlimit:1;" x1="10.173" y1="13.369" x2="21.429" y2="11.84"/>
		
			<line style="clip-path:url(#SVGID_4_);fill:none;stroke:#000000;stroke-width:0;stroke-miterlimit:1;" x1="21.429" y1="11.84" x2="21.707" y2="11.701"/>
		
			<line style="clip-path:url(#SVGID_4_);fill:none;stroke:#000000;stroke-width:0;stroke-miterlimit:1;" x1="21.707" y1="11.701" x2="23.374" y2="11.979"/>
	</g>
	<g>
		<defs>
			<polygon id="SVGID_5_" points="0,180.121 231.836,180.121 231.836,0 0,0 0,180.121 			"/>
		</defs>
		<clipPath id="SVGID_6_">
			<use xlink:href="#SVGID_5_"  style="overflow:visible;"/>
		</clipPath>
		
			<line style="clip-path:url(#SVGID_6_);fill:none;stroke:#000000;stroke-width:0;stroke-miterlimit:1;" x1="21.429" y1="8.783" x2="23.374" y2="12.118"/>
		
			<line style="clip-path:url(#SVGID_6_);fill:none;stroke:#000000;stroke-width:0;stroke-miterlimit:1;" x1="23.374" y1="12.118" x2="23.374" y2="13.924"/>
	</g>
	<g>
		<defs>
			<polygon id="SVGID_7_" points="0,180.121 231.836,180.121 231.836,0 0,0 0,180.121 			"/>
		</defs>
		<clipPath id="SVGID_8_">
			<use xlink:href="#SVGID_7_"  style="overflow:visible;"/>
		</clipPath>
		
			<line style="clip-path:url(#SVGID_8_);fill:none;stroke:#000000;stroke-width:0;stroke-miterlimit:1;" x1="5.17" y1="16.565" x2="6.421" y2="15.731"/>
		
			<line style="clip-path:url(#SVGID_8_);fill:none;stroke:#000000;stroke-width:0;stroke-miterlimit:1;" x1="6.421" y1="15.731" x2="8.505" y2="15.175"/>
		
			<line style="clip-path:url(#SVGID_8_);fill:none;stroke:#000000;stroke-width:0;stroke-miterlimit:1;" x1="8.505" y1="15.175" x2="13.925" y2="14.62"/>
		
			<line style="clip-path:url(#SVGID_8_);fill:none;stroke:#000000;stroke-width:0;stroke-miterlimit:1;" x1="13.925" y1="14.62" x2="19.344" y2="13.924"/>
		
			<line style="clip-path:url(#SVGID_8_);fill:none;stroke:#000000;stroke-width:0;stroke-miterlimit:1;" x1="19.344" y1="13.924" x2="21.567" y2="13.924"/>
		
			<line style="clip-path:url(#SVGID_8_);fill:none;stroke:#000000;stroke-width:0;stroke-miterlimit:1;" x1="21.567" y1="13.924" x2="23.513" y2="13.924"/>
		
			<line style="clip-path:url(#SVGID_8_);fill:none;stroke:#000000;stroke-width:0;stroke-miterlimit:1;" x1="23.513" y1="13.924" x2="24.625" y2="14.063"/>
		
			<line style="clip-path:url(#SVGID_8_);fill:none;stroke:#000000;stroke-width:0;stroke-miterlimit:1;" x1="24.625" y1="14.063" x2="26.848" y2="14.62"/>
		
			<line style="clip-path:url(#SVGID_8_);fill:none;stroke:#000000;stroke-width:0;stroke-miterlimit:1;" x1="26.848" y1="14.62" x2="30.739" y2="15.314"/>
		
			<line style="clip-path:url(#SVGID_8_);fill:none;stroke:#000000;stroke-width:0;stroke-miterlimit:1;" x1="30.739" y1="15.314" x2="32.823" y2="15.453"/>
		
			<line style="clip-path:url(#SVGID_8_);fill:none;stroke:#000000;stroke-width:0;stroke-miterlimit:1;" x1="32.823" y1="15.453" x2="34.352" y2="15.314"/>
		
			<line style="clip-path:url(#SVGID_8_);fill:none;stroke:#000000;stroke-width:0;stroke-miterlimit:1;" x1="34.352" y1="15.314" x2="36.02" y2="14.897"/>
		
			<line style="clip-path:url(#SVGID_8_);fill:none;stroke:#000000;stroke-width:0;stroke-miterlimit:1;" x1="36.02" y1="14.897" x2="36.992" y2="15.453"/>
		
			<line style="clip-path:url(#SVGID_8_);fill:none;stroke:#000000;stroke-width:0;stroke-miterlimit:1;" x1="36.992" y1="15.453" x2="37.409" y2="16.148"/>
		
			<line style="clip-path:url(#SVGID_8_);fill:none;stroke:#000000;stroke-width:0;stroke-miterlimit:1;" x1="37.409" y1="16.148" x2="37.548" y2="17.815"/>
		
			<line style="clip-path:url(#SVGID_8_);fill:none;stroke:#000000;stroke-width:0;stroke-miterlimit:1;" x1="37.548" y1="17.815" x2="37.409" y2="19.205"/>
		
			<line style="clip-path:url(#SVGID_8_);fill:none;stroke:#000000;stroke-width:0;stroke-miterlimit:1;" x1="37.409" y1="19.205" x2="36.714" y2="20.873"/>
		
			<line style="clip-path:url(#SVGID_8_);fill:none;stroke:#000000;stroke-width:0;stroke-miterlimit:1;" x1="36.714" y1="20.873" x2="30.6" y2="28.932"/>
		
			<line style="clip-path:url(#SVGID_8_);fill:none;stroke:#000000;stroke-width:0;stroke-miterlimit:1;" x1="30.6" y1="28.932" x2="27.543" y2="33.796"/>
		
			<line style="clip-path:url(#SVGID_8_);fill:none;stroke:#000000;stroke-width:0;stroke-miterlimit:1;" x1="27.543" y1="33.796" x2="26.292" y2="36.297"/>
		
			<line style="clip-path:url(#SVGID_8_);fill:none;stroke:#000000;stroke-width:0;stroke-miterlimit:1;" x1="26.292" y1="36.297" x2="24.764" y2="39.215"/>
		
			<line style="clip-path:url(#SVGID_8_);fill:none;stroke:#000000;stroke-width:0;stroke-miterlimit:1;" x1="24.764" y1="39.215" x2="23.93" y2="42.967"/>
		
			<line style="clip-path:url(#SVGID_8_);fill:none;stroke:#000000;stroke-width:0;stroke-miterlimit:1;" x1="23.93" y1="42.967" x2="23.374" y2="46.858"/>
	</g>
	<g>
		<defs>
			<polygon id="SVGID_9_" points="0,180.121 269.076,180.121 269.076,0 0,0 0,180.121 			"/>
		</defs>
		<clipPath id="SVGID_10_">
			<use xlink:href="#SVGID_9_"  style="overflow:visible;"/>
		</clipPath>
		
			<line style="clip-path:url(#SVGID_10_);fill:none;stroke:#000000;stroke-width:0;stroke-miterlimit:1;" x1="35.325" y1="3.642" x2="42.55" y2="6.282"/>
		
			<line style="clip-path:url(#SVGID_10_);fill:none;stroke:#000000;stroke-width:0;stroke-miterlimit:1;" x1="42.55" y1="6.282" x2="49.637" y2="8.088"/>
		
			<line style="clip-path:url(#SVGID_10_);fill:none;stroke:#000000;stroke-width:0;stroke-miterlimit:1;" x1="49.637" y1="8.088" x2="52.556" y2="8.644"/>
		
			<line style="clip-path:url(#SVGID_10_);fill:none;stroke:#000000;stroke-width:0;stroke-miterlimit:1;" x1="52.556" y1="8.644" x2="55.057" y2="8.783"/>
		
			<line style="clip-path:url(#SVGID_10_);fill:none;stroke:#000000;stroke-width:0;stroke-miterlimit:1;" x1="55.057" y1="8.783" x2="58.114" y2="8.783"/>
		
			<line style="clip-path:url(#SVGID_10_);fill:none;stroke:#000000;stroke-width:0;stroke-miterlimit:1;" x1="58.114" y1="8.783" x2="61.449" y2="8.644"/>
		
			<line style="clip-path:url(#SVGID_10_);fill:none;stroke:#000000;stroke-width:0;stroke-miterlimit:1;" x1="61.449" y1="8.644" x2="63.95" y2="8.088"/>
		
			<line style="clip-path:url(#SVGID_10_);fill:none;stroke:#000000;stroke-width:0;stroke-miterlimit:1;" x1="63.95" y1="8.088" x2="66.451" y2="7.532"/>
		
			<line style="clip-path:url(#SVGID_10_);fill:none;stroke:#000000;stroke-width:0;stroke-miterlimit:1;" x1="66.451" y1="7.532" x2="66.729" y2="7.811"/>
		
			<line style="clip-path:url(#SVGID_10_);fill:none;stroke:#000000;stroke-width:0;stroke-miterlimit:1;" x1="66.729" y1="7.811" x2="66.451" y2="8.783"/>
		
			<line style="clip-path:url(#SVGID_10_);fill:none;stroke:#000000;stroke-width:0;stroke-miterlimit:1;" x1="66.451" y1="8.783" x2="65.479" y2="9.478"/>
		
			<line style="clip-path:url(#SVGID_10_);fill:none;stroke:#000000;stroke-width:0;stroke-miterlimit:1;" x1="65.479" y1="9.478" x2="62.144" y2="10.173"/>
		
			<line style="clip-path:url(#SVGID_10_);fill:none;stroke:#000000;stroke-width:0;stroke-miterlimit:1;" x1="62.144" y1="10.173" x2="58.809" y2="10.589"/>
		
			<line style="clip-path:url(#SVGID_10_);fill:none;stroke:#000000;stroke-width:0;stroke-miterlimit:1;" x1="58.809" y1="10.589" x2="55.057" y2="10.589"/>
		
			<line style="clip-path:url(#SVGID_10_);fill:none;stroke:#000000;stroke-width:0;stroke-miterlimit:1;" x1="55.057" y1="10.589" x2="51.861" y2="10.312"/>
		
			<line style="clip-path:url(#SVGID_10_);fill:none;stroke:#000000;stroke-width:0;stroke-miterlimit:1;" x1="51.861" y1="10.312" x2="46.441" y2="9.339"/>
		
			<line style="clip-path:url(#SVGID_10_);fill:none;stroke:#000000;stroke-width:0;stroke-miterlimit:1;" x1="46.441" y1="9.339" x2="43.384" y2="8.366"/>
	</g>
	<g>
		<defs>
			<polygon id="SVGID_11_" points="0,180.121 269.076,180.121 269.076,0 0,0 0,180.121 			"/>
		</defs>
		<clipPath id="SVGID_12_">
			<use xlink:href="#SVGID_11_"  style="overflow:visible;"/>
		</clipPath>
		
			<line style="clip-path:url(#SVGID_12_);fill:none;stroke:#000000;stroke-width:0;stroke-miterlimit:1;" x1="39.493" y1="6.282" x2="44.913" y2="9.2"/>
		
			<line style="clip-path:url(#SVGID_12_);fill:none;stroke:#000000;stroke-width:0;stroke-miterlimit:1;" x1="44.913" y1="9.2" x2="50.332" y2="11.979"/>
		
			<line style="clip-path:url(#SVGID_12_);fill:none;stroke:#000000;stroke-width:0;stroke-miterlimit:1;" x1="50.332" y1="11.979" x2="53.667" y2="13.646"/>
		
			<line style="clip-path:url(#SVGID_12_);fill:none;stroke:#000000;stroke-width:0;stroke-miterlimit:1;" x1="53.667" y1="13.646" x2="56.168" y2="14.62"/>
		
			<line style="clip-path:url(#SVGID_12_);fill:none;stroke:#000000;stroke-width:0;stroke-miterlimit:1;" x1="56.168" y1="14.62" x2="58.948" y2="15.314"/>
		
			<line style="clip-path:url(#SVGID_12_);fill:none;stroke:#000000;stroke-width:0;stroke-miterlimit:1;" x1="58.948" y1="15.314" x2="60.893" y2="15.592"/>
		
			<line style="clip-path:url(#SVGID_12_);fill:none;stroke:#000000;stroke-width:0;stroke-miterlimit:1;" x1="60.893" y1="15.592" x2="64.506" y2="16.009"/>
		
			<line style="clip-path:url(#SVGID_12_);fill:none;stroke:#000000;stroke-width:0;stroke-miterlimit:1;" x1="64.506" y1="16.009" x2="66.034" y2="15.731"/>
		
			<line style="clip-path:url(#SVGID_12_);fill:none;stroke:#000000;stroke-width:0;stroke-miterlimit:1;" x1="66.034" y1="15.731" x2="66.729" y2="15.592"/>
		
			<line style="clip-path:url(#SVGID_12_);fill:none;stroke:#000000;stroke-width:0;stroke-miterlimit:1;" x1="66.729" y1="15.592" x2="67.285" y2="16.009"/>
		
			<line style="clip-path:url(#SVGID_12_);fill:none;stroke:#000000;stroke-width:0;stroke-miterlimit:1;" x1="67.285" y1="16.009" x2="67.424" y2="16.843"/>
		
			<line style="clip-path:url(#SVGID_12_);fill:none;stroke:#000000;stroke-width:0;stroke-miterlimit:1;" x1="67.424" y1="16.843" x2="65.34" y2="17.538"/>
		
			<line style="clip-path:url(#SVGID_12_);fill:none;stroke:#000000;stroke-width:0;stroke-miterlimit:1;" x1="65.34" y1="17.538" x2="62.839" y2="17.815"/>
		
			<line style="clip-path:url(#SVGID_12_);fill:none;stroke:#000000;stroke-width:0;stroke-miterlimit:1;" x1="62.839" y1="17.815" x2="60.059" y2="17.398"/>
		
			<line style="clip-path:url(#SVGID_12_);fill:none;stroke:#000000;stroke-width:0;stroke-miterlimit:1;" x1="60.059" y1="17.398" x2="56.168" y2="16.565"/>
		
			<line style="clip-path:url(#SVGID_12_);fill:none;stroke:#000000;stroke-width:0;stroke-miterlimit:1;" x1="56.168" y1="16.565" x2="52.833" y2="15.453"/>
		
			<line style="clip-path:url(#SVGID_12_);fill:none;stroke:#000000;stroke-width:0;stroke-miterlimit:1;" x1="52.833" y1="15.453" x2="49.637" y2="13.924"/>
		
			<line style="clip-path:url(#SVGID_12_);fill:none;stroke:#000000;stroke-width:0;stroke-miterlimit:1;" x1="49.637" y1="13.924" x2="41.855" y2="9.478"/>
	</g>
	<g>
		<defs>
			<polygon id="SVGID_13_" points="0,180.121 269.076,180.121 269.076,0 0,0 0,180.121 			"/>
		</defs>
		<clipPath id="SVGID_14_">
			<use xlink:href="#SVGID_13_"  style="overflow:visible;"/>
		</clipPath>
		
			<line style="clip-path:url(#SVGID_14_);fill:none;stroke:#000000;stroke-width:0;stroke-miterlimit:1;" x1="27.821" y1="7.116" x2="26.987" y2="7.254"/>
		
			<line style="clip-path:url(#SVGID_14_);fill:none;stroke:#000000;stroke-width:0;stroke-miterlimit:1;" x1="26.987" y1="7.254" x2="26.292" y2="8.088"/>
		
			<line style="clip-path:url(#SVGID_14_);fill:none;stroke:#000000;stroke-width:0;stroke-miterlimit:1;" x1="26.292" y1="8.088" x2="26.292" y2="9.061"/>
		
			<line style="clip-path:url(#SVGID_14_);fill:none;stroke:#000000;stroke-width:0;stroke-miterlimit:1;" x1="26.292" y1="9.061" x2="26.987" y2="9.756"/>
		
			<line style="clip-path:url(#SVGID_14_);fill:none;stroke:#000000;stroke-width:0;stroke-miterlimit:1;" x1="26.987" y1="9.756" x2="27.959" y2="9.756"/>
		
			<line style="clip-path:url(#SVGID_14_);fill:none;stroke:#000000;stroke-width:0;stroke-miterlimit:1;" x1="27.959" y1="9.756" x2="28.933" y2="9.339"/>
		
			<line style="clip-path:url(#SVGID_14_);fill:none;stroke:#000000;stroke-width:0;stroke-miterlimit:1;" x1="28.933" y1="9.339" x2="29.071" y2="8.783"/>
		
			<line style="clip-path:url(#SVGID_14_);fill:none;stroke:#000000;stroke-width:0;stroke-miterlimit:1;" x1="29.071" y1="8.783" x2="28.793" y2="7.949"/>
		
			<line style="clip-path:url(#SVGID_14_);fill:none;stroke:#000000;stroke-width:0;stroke-miterlimit:1;" x1="28.793" y1="7.949" x2="28.099" y2="7.116"/>
	</g>
	<g>
		<defs>
			<polygon id="SVGID_15_" points="0,180.121 269.076,180.121 269.076,0 0,0 0,180.121 			"/>
		</defs>
		<clipPath id="SVGID_16_">
			<use xlink:href="#SVGID_15_"  style="overflow:visible;"/>
		</clipPath>
		
			<line style="clip-path:url(#SVGID_16_);fill:none;stroke:#000000;stroke-width:0;stroke-miterlimit:1;" x1="20.009" y1="89.789" x2="31.81" y2="79.029"/>
		
			<line style="clip-path:url(#SVGID_16_);fill:none;stroke:#000000;stroke-width:0;stroke-miterlimit:1;" x1="31.81" y1="79.029" x2="42.917" y2="89.789"/>
	</g>
	<g>
		<defs>
			<polygon id="SVGID_17_" points="0,278.865 269.076,278.865 269.076,0 0,0 0,278.865 			"/>
		</defs>
		<clipPath id="SVGID_18_">
			<use xlink:href="#SVGID_17_"  style="overflow:visible;"/>
		</clipPath>
		
			<line style="clip-path:url(#SVGID_18_);fill:none;stroke:#000000;stroke-width:0;stroke-miterlimit:1;" x1="47.429" y1="84.929" x2="37.016" y2="74.343"/>
		
			<line style="clip-path:url(#SVGID_18_);fill:none;stroke:#000000;stroke-width:0;stroke-miterlimit:1;" x1="37.016" y1="74.343" x2="48.123" y2="63.757"/>
	</g>
	<g>
		<defs>
			<polygon id="SVGID_19_" points="0,278.865 269.076,278.865 269.076,0 0,0 0,278.865 			"/>
		</defs>
		<clipPath id="SVGID_20_">
			<use xlink:href="#SVGID_19_"  style="overflow:visible;"/>
		</clipPath>
		
			<line style="clip-path:url(#SVGID_20_);fill:none;stroke:#000000;stroke-width:0;stroke-miterlimit:1;" x1="43.264" y1="58.377" x2="32.157" y2="68.963"/>
		
			<line style="clip-path:url(#SVGID_20_);fill:none;stroke:#000000;stroke-width:0;stroke-miterlimit:1;" x1="32.157" y1="68.963" x2="21.05" y2="57.51"/>
	</g>
	<g>
		<defs>
			<polygon id="SVGID_21_" points="0,278.865 269.076,278.865 269.076,0 0,0 0,278.865 			"/>
		</defs>
		<clipPath id="SVGID_22_">
			<use xlink:href="#SVGID_21_"  style="overflow:visible;"/>
		</clipPath>
		
			<line style="clip-path:url(#SVGID_22_);fill:none;stroke:#000000;stroke-width:0;stroke-miterlimit:1;" x1="16.191" y1="62.196" x2="26.951" y2="73.649"/>
		
			<line style="clip-path:url(#SVGID_22_);fill:none;stroke:#000000;stroke-width:0;stroke-miterlimit:1;" x1="26.951" y1="73.649" x2="15.497" y2="84.583"/>
	</g>
	<g>
		<defs>
			<polygon id="SVGID_23_" points="0,278.865 269.076,278.865 269.076,0 0,0 0,278.865 			"/>
		</defs>
		<clipPath id="SVGID_24_">
			<use xlink:href="#SVGID_23_"  style="overflow:visible;"/>
		</clipPath>
		
			<line style="clip-path:url(#SVGID_24_);fill:none;stroke:#000000;stroke-width:0;stroke-miterlimit:1;" x1="30.075" y1="93.433" x2="34.934" y2="93.259"/>
		
			<line style="clip-path:url(#SVGID_24_);fill:none;stroke:#000000;stroke-width:0;stroke-miterlimit:1;" x1="34.934" y1="93.259" x2="37.71" y2="92.566"/>
		
			<line style="clip-path:url(#SVGID_24_);fill:none;stroke:#000000;stroke-width:0;stroke-miterlimit:1;" x1="37.71" y1="92.566" x2="40.14" y2="91.524"/>
		
			<line style="clip-path:url(#SVGID_24_);fill:none;stroke:#000000;stroke-width:0;stroke-miterlimit:1;" x1="40.14" y1="91.524" x2="42.917" y2="89.616"/>
		
			<line style="clip-path:url(#SVGID_24_);fill:none;stroke:#000000;stroke-width:0;stroke-miterlimit:1;" x1="42.917" y1="89.616" x2="44.999" y2="87.707"/>
		
			<line style="clip-path:url(#SVGID_24_);fill:none;stroke:#000000;stroke-width:0;stroke-miterlimit:1;" x1="44.999" y1="87.707" x2="47.082" y2="85.451"/>
		
			<line style="clip-path:url(#SVGID_24_);fill:none;stroke:#000000;stroke-width:0;stroke-miterlimit:1;" x1="47.082" y1="85.451" x2="48.47" y2="83.194"/>
		
			<line style="clip-path:url(#SVGID_24_);fill:none;stroke:#000000;stroke-width:0;stroke-miterlimit:1;" x1="48.47" y1="83.194" x2="49.858" y2="80.764"/>
		
			<line style="clip-path:url(#SVGID_24_);fill:none;stroke:#000000;stroke-width:0;stroke-miterlimit:1;" x1="49.858" y1="80.764" x2="50.553" y2="78.335"/>
		
			<line style="clip-path:url(#SVGID_24_);fill:none;stroke:#000000;stroke-width:0;stroke-miterlimit:1;" x1="50.553" y1="78.335" x2="50.899" y2="75.558"/>
		
			<line style="clip-path:url(#SVGID_24_);fill:none;stroke:#000000;stroke-width:0;stroke-miterlimit:1;" x1="50.899" y1="75.558" x2="50.899" y2="72.782"/>
		
			<line style="clip-path:url(#SVGID_24_);fill:none;stroke:#000000;stroke-width:0;stroke-miterlimit:1;" x1="50.899" y1="72.782" x2="50.032" y2="67.922"/>
		
			<line style="clip-path:url(#SVGID_24_);fill:none;stroke:#000000;stroke-width:0;stroke-miterlimit:1;" x1="50.032" y1="67.922" x2="48.991" y2="65.319"/>
		
			<line style="clip-path:url(#SVGID_24_);fill:none;stroke:#000000;stroke-width:0;stroke-miterlimit:1;" x1="48.991" y1="65.319" x2="47.429" y2="62.716"/>
		
			<line style="clip-path:url(#SVGID_24_);fill:none;stroke:#000000;stroke-width:0;stroke-miterlimit:1;" x1="47.429" y1="62.716" x2="45.693" y2="60.287"/>
		
			<line style="clip-path:url(#SVGID_24_);fill:none;stroke:#000000;stroke-width:0;stroke-miterlimit:1;" x1="45.693" y1="60.287" x2="43.09" y2="58.031"/>
		
			<line style="clip-path:url(#SVGID_24_);fill:none;stroke:#000000;stroke-width:0;stroke-miterlimit:1;" x1="43.09" y1="58.031" x2="41.008" y2="56.642"/>
		
			<line style="clip-path:url(#SVGID_24_);fill:none;stroke:#000000;stroke-width:0;stroke-miterlimit:1;" x1="41.008" y1="56.642" x2="38.925" y2="55.775"/>
		
			<line style="clip-path:url(#SVGID_24_);fill:none;stroke:#000000;stroke-width:0;stroke-miterlimit:1;" x1="38.925" y1="55.775" x2="37.016" y2="55.081"/>
		
			<line style="clip-path:url(#SVGID_24_);fill:none;stroke:#000000;stroke-width:0;stroke-miterlimit:1;" x1="37.016" y1="55.081" x2="34.413" y2="54.56"/>
		
			<line style="clip-path:url(#SVGID_24_);fill:none;stroke:#000000;stroke-width:0;stroke-miterlimit:1;" x1="34.413" y1="54.56" x2="31.81" y2="54.386"/>
		
			<line style="clip-path:url(#SVGID_24_);fill:none;stroke:#000000;stroke-width:0;stroke-miterlimit:1;" x1="31.81" y1="54.386" x2="28.339" y2="54.386"/>
		
			<line style="clip-path:url(#SVGID_24_);fill:none;stroke:#000000;stroke-width:0;stroke-miterlimit:1;" x1="28.339" y1="54.386" x2="25.562" y2="55.081"/>
		
			<line style="clip-path:url(#SVGID_24_);fill:none;stroke:#000000;stroke-width:0;stroke-miterlimit:1;" x1="25.562" y1="55.081" x2="22.959" y2="56.122"/>
		
			<line style="clip-path:url(#SVGID_24_);fill:none;stroke:#000000;stroke-width:0;stroke-miterlimit:1;" x1="22.959" y1="56.122" x2="20.53" y2="57.51"/>
		
			<line style="clip-path:url(#SVGID_24_);fill:none;stroke:#000000;stroke-width:0;stroke-miterlimit:1;" x1="20.53" y1="57.51" x2="18.273" y2="59.418"/>
		
			<line style="clip-path:url(#SVGID_24_);fill:none;stroke:#000000;stroke-width:0;stroke-miterlimit:1;" x1="18.273" y1="59.418" x2="16.191" y2="61.848"/>
		
			<line style="clip-path:url(#SVGID_24_);fill:none;stroke:#000000;stroke-width:0;stroke-miterlimit:1;" x1="16.191" y1="61.848" x2="14.282" y2="64.278"/>
		
			<line style="clip-path:url(#SVGID_24_);fill:none;stroke:#000000;stroke-width:0;stroke-miterlimit:1;" x1="14.282" y1="64.278" x2="13.415" y2="66.013"/>
		
			<line style="clip-path:url(#SVGID_24_);fill:none;stroke:#000000;stroke-width:0;stroke-miterlimit:1;" x1="13.415" y1="66.013" x2="12.72" y2="67.922"/>
		
			<line style="clip-path:url(#SVGID_24_);fill:none;stroke:#000000;stroke-width:0;stroke-miterlimit:1;" x1="12.72" y1="67.922" x2="12.026" y2="71.22"/>
		
			<line style="clip-path:url(#SVGID_24_);fill:none;stroke:#000000;stroke-width:0;stroke-miterlimit:1;" x1="12.026" y1="71.22" x2="12.026" y2="74.343"/>
		
			<line style="clip-path:url(#SVGID_24_);fill:none;stroke:#000000;stroke-width:0;stroke-miterlimit:1;" x1="12.026" y1="74.343" x2="12.373" y2="76.599"/>
		
			<line style="clip-path:url(#SVGID_24_);fill:none;stroke:#000000;stroke-width:0;stroke-miterlimit:1;" x1="12.373" y1="76.599" x2="12.72" y2="79.029"/>
		
			<line style="clip-path:url(#SVGID_24_);fill:none;stroke:#000000;stroke-width:0;stroke-miterlimit:1;" x1="12.72" y1="79.029" x2="13.588" y2="81.458"/>
		
			<line style="clip-path:url(#SVGID_24_);fill:none;stroke:#000000;stroke-width:0;stroke-miterlimit:1;" x1="13.588" y1="81.458" x2="14.803" y2="84.236"/>
		
			<line style="clip-path:url(#SVGID_24_);fill:none;stroke:#000000;stroke-width:0;stroke-miterlimit:1;" x1="14.803" y1="84.236" x2="16.885" y2="86.838"/>
		
			<line style="clip-path:url(#SVGID_24_);fill:none;stroke:#000000;stroke-width:0;stroke-miterlimit:1;" x1="16.885" y1="86.838" x2="18.968" y2="88.748"/>
		
			<line style="clip-path:url(#SVGID_24_);fill:none;stroke:#000000;stroke-width:0;stroke-miterlimit:1;" x1="18.968" y1="88.748" x2="21.397" y2="90.657"/>
		
			<line style="clip-path:url(#SVGID_24_);fill:none;stroke:#000000;stroke-width:0;stroke-miterlimit:1;" x1="21.397" y1="90.657" x2="23.827" y2="91.872"/>
		
			<line style="clip-path:url(#SVGID_24_);fill:none;stroke:#000000;stroke-width:0;stroke-miterlimit:1;" x1="23.827" y1="91.872" x2="26.777" y2="92.913"/>
		
			<line style="clip-path:url(#SVGID_24_);fill:none;stroke:#000000;stroke-width:0;stroke-miterlimit:1;" x1="26.777" y1="92.913" x2="30.075" y2="93.433"/>
	</g>
	<g>
		<defs>
			<polygon id="SVGID_25_" points="0,278.865 269.076,278.865 269.076,0 0,0 0,278.865 			"/>
		</defs>
		<clipPath id="SVGID_26_">
			<use xlink:href="#SVGID_25_"  style="overflow:visible;"/>
		</clipPath>
		
			<line style="clip-path:url(#SVGID_26_);fill:none;stroke:#000000;stroke-width:0;stroke-miterlimit:1;" x1="115.467" y1="22.683" x2="74.468" y2="22.683"/>
		
			<line style="clip-path:url(#SVGID_26_);fill:none;stroke:#000000;stroke-width:0;stroke-miterlimit:1;" x1="74.468" y1="22.683" x2="74.988" y2="19.208"/>
		
			<line style="clip-path:url(#SVGID_26_);fill:none;stroke:#000000;stroke-width:0;stroke-miterlimit:1;" x1="74.988" y1="19.208" x2="75.51" y2="16.95"/>
		
			<line style="clip-path:url(#SVGID_26_);fill:none;stroke:#000000;stroke-width:0;stroke-miterlimit:1;" x1="75.51" y1="16.95" x2="76.378" y2="14.691"/>
		
			<line style="clip-path:url(#SVGID_26_);fill:none;stroke:#000000;stroke-width:0;stroke-miterlimit:1;" x1="76.378" y1="14.691" x2="77.595" y2="12.954"/>
		
			<line style="clip-path:url(#SVGID_26_);fill:none;stroke:#000000;stroke-width:0;stroke-miterlimit:1;" x1="77.595" y1="12.954" x2="78.637" y2="11.391"/>
		
			<line style="clip-path:url(#SVGID_26_);fill:none;stroke:#000000;stroke-width:0;stroke-miterlimit:1;" x1="78.637" y1="11.391" x2="80.026" y2="9.48"/>
		
			<line style="clip-path:url(#SVGID_26_);fill:none;stroke:#000000;stroke-width:0;stroke-miterlimit:1;" x1="80.026" y1="9.48" x2="81.59" y2="8.09"/>
		
			<line style="clip-path:url(#SVGID_26_);fill:none;stroke:#000000;stroke-width:0;stroke-miterlimit:1;" x1="81.59" y1="8.09" x2="83.501" y2="6.7"/>
		
			<line style="clip-path:url(#SVGID_26_);fill:none;stroke:#000000;stroke-width:0;stroke-miterlimit:1;" x1="83.501" y1="6.7" x2="85.064" y2="5.658"/>
		
			<line style="clip-path:url(#SVGID_26_);fill:none;stroke:#000000;stroke-width:0;stroke-miterlimit:1;" x1="85.064" y1="5.658" x2="87.323" y2="4.616"/>
		
			<line style="clip-path:url(#SVGID_26_);fill:none;stroke:#000000;stroke-width:0;stroke-miterlimit:1;" x1="87.323" y1="4.616" x2="89.581" y2="3.92"/>
		
			<line style="clip-path:url(#SVGID_26_);fill:none;stroke:#000000;stroke-width:0;stroke-miterlimit:1;" x1="89.581" y1="3.92" x2="91.146" y2="3.573"/>
		
			<line style="clip-path:url(#SVGID_26_);fill:none;stroke:#000000;stroke-width:0;stroke-miterlimit:1;" x1="91.146" y1="3.573" x2="93.925" y2="3.226"/>
		
			<line style="clip-path:url(#SVGID_26_);fill:none;stroke:#000000;stroke-width:0;stroke-miterlimit:1;" x1="93.925" y1="3.226" x2="96.01" y2="3.226"/>
		
			<line style="clip-path:url(#SVGID_26_);fill:none;stroke:#000000;stroke-width:0;stroke-miterlimit:1;" x1="96.01" y1="3.226" x2="97.92" y2="3.573"/>
		
			<line style="clip-path:url(#SVGID_26_);fill:none;stroke:#000000;stroke-width:0;stroke-miterlimit:1;" x1="97.92" y1="3.573" x2="100.005" y2="3.92"/>
		
			<line style="clip-path:url(#SVGID_26_);fill:none;stroke:#000000;stroke-width:0;stroke-miterlimit:1;" x1="100.005" y1="3.92" x2="102.264" y2="4.442"/>
		
			<line style="clip-path:url(#SVGID_26_);fill:none;stroke:#000000;stroke-width:0;stroke-miterlimit:1;" x1="102.264" y1="4.442" x2="103.827" y2="4.963"/>
		
			<line style="clip-path:url(#SVGID_26_);fill:none;stroke:#000000;stroke-width:0;stroke-miterlimit:1;" x1="103.827" y1="4.963" x2="105.912" y2="6.353"/>
		
			<line style="clip-path:url(#SVGID_26_);fill:none;stroke:#000000;stroke-width:0;stroke-miterlimit:1;" x1="105.912" y1="6.353" x2="107.648" y2="7.569"/>
		
			<line style="clip-path:url(#SVGID_26_);fill:none;stroke:#000000;stroke-width:0;stroke-miterlimit:1;" x1="107.648" y1="7.569" x2="109.213" y2="8.785"/>
		
			<line style="clip-path:url(#SVGID_26_);fill:none;stroke:#000000;stroke-width:0;stroke-miterlimit:1;" x1="109.213" y1="8.785" x2="110.603" y2="10.522"/>
		
			<line style="clip-path:url(#SVGID_26_);fill:none;stroke:#000000;stroke-width:0;stroke-miterlimit:1;" x1="110.603" y1="10.522" x2="111.992" y2="12.433"/>
		
			<line style="clip-path:url(#SVGID_26_);fill:none;stroke:#000000;stroke-width:0;stroke-miterlimit:1;" x1="111.992" y1="12.433" x2="113.208" y2="14.344"/>
		
			<line style="clip-path:url(#SVGID_26_);fill:none;stroke:#000000;stroke-width:0;stroke-miterlimit:1;" x1="113.208" y1="14.344" x2="114.077" y2="16.082"/>
		
			<line style="clip-path:url(#SVGID_26_);fill:none;stroke:#000000;stroke-width:0;stroke-miterlimit:1;" x1="114.077" y1="16.082" x2="114.771" y2="18.687"/>
		
			<line style="clip-path:url(#SVGID_26_);fill:none;stroke:#000000;stroke-width:0;stroke-miterlimit:1;" x1="114.771" y1="18.687" x2="115.293" y2="20.598"/>
		
			<line style="clip-path:url(#SVGID_26_);fill:none;stroke:#000000;stroke-width:0;stroke-miterlimit:1;" x1="115.293" y1="20.598" x2="115.467" y2="22.683"/>
	</g>
	<g>
		<defs>
			<polygon id="SVGID_27_" points="0,278.865 269.076,278.865 269.076,0 0,0 0,278.865 			"/>
		</defs>
		<clipPath id="SVGID_28_">
			<use xlink:href="#SVGID_27_"  style="overflow:visible;"/>
		</clipPath>
		
			<line style="clip-path:url(#SVGID_28_);fill:none;stroke:#000000;stroke-width:0;stroke-miterlimit:1;" x1="119.262" y1="92.357" x2="117.004" y2="92.183"/>
		
			<line style="clip-path:url(#SVGID_28_);fill:none;stroke:#000000;stroke-width:0;stroke-miterlimit:1;" x1="117.004" y1="92.183" x2="114.571" y2="91.663"/>
		
			<line style="clip-path:url(#SVGID_28_);fill:none;stroke:#000000;stroke-width:0;stroke-miterlimit:1;" x1="114.571" y1="91.663" x2="112.66" y2="90.62"/>
		
			<line style="clip-path:url(#SVGID_28_);fill:none;stroke:#000000;stroke-width:0;stroke-miterlimit:1;" x1="112.66" y1="90.62" x2="111.097" y2="89.578"/>
		
			<line style="clip-path:url(#SVGID_28_);fill:none;stroke:#000000;stroke-width:0;stroke-miterlimit:1;" x1="111.097" y1="89.578" x2="108.317" y2="86.625"/>
		
			<line style="clip-path:url(#SVGID_28_);fill:none;stroke:#000000;stroke-width:0;stroke-miterlimit:1;" x1="108.317" y1="86.625" x2="105.712" y2="83.67"/>
		
			<line style="clip-path:url(#SVGID_28_);fill:none;stroke:#000000;stroke-width:0;stroke-miterlimit:1;" x1="105.712" y1="83.67" x2="103.279" y2="80.37"/>
		
			<line style="clip-path:url(#SVGID_28_);fill:none;stroke:#000000;stroke-width:0;stroke-miterlimit:1;" x1="103.279" y1="80.37" x2="102.063" y2="77.764"/>
		
			<line style="clip-path:url(#SVGID_28_);fill:none;stroke:#000000;stroke-width:0;stroke-miterlimit:1;" x1="102.063" y1="77.764" x2="101.194" y2="75.679"/>
		
			<line style="clip-path:url(#SVGID_28_);fill:none;stroke:#000000;stroke-width:0;stroke-miterlimit:1;" x1="101.194" y1="75.679" x2="99.979" y2="71.858"/>
		
			<line style="clip-path:url(#SVGID_28_);fill:none;stroke:#000000;stroke-width:0;stroke-miterlimit:1;" x1="99.979" y1="71.858" x2="99.631" y2="67.34"/>
		
			<line style="clip-path:url(#SVGID_28_);fill:none;stroke:#000000;stroke-width:0;stroke-miterlimit:1;" x1="99.631" y1="67.34" x2="99.979" y2="65.256"/>
		
			<line style="clip-path:url(#SVGID_28_);fill:none;stroke:#000000;stroke-width:0;stroke-miterlimit:1;" x1="99.979" y1="65.256" x2="101.194" y2="62.824"/>
		
			<line style="clip-path:url(#SVGID_28_);fill:none;stroke:#000000;stroke-width:0;stroke-miterlimit:1;" x1="101.194" y1="62.824" x2="103.279" y2="60.218"/>
		
			<line style="clip-path:url(#SVGID_28_);fill:none;stroke:#000000;stroke-width:0;stroke-miterlimit:1;" x1="103.279" y1="60.218" x2="99.979" y2="59.175"/>
		
			<line style="clip-path:url(#SVGID_28_);fill:none;stroke:#000000;stroke-width:0;stroke-miterlimit:1;" x1="99.979" y1="59.175" x2="97.547" y2="57.265"/>
		
			<line style="clip-path:url(#SVGID_28_);fill:none;stroke:#000000;stroke-width:0;stroke-miterlimit:1;" x1="97.547" y1="57.265" x2="93.551" y2="51.879"/>
		
			<line style="clip-path:url(#SVGID_28_);fill:none;stroke:#000000;stroke-width:0;stroke-miterlimit:1;" x1="93.551" y1="51.879" x2="96.33" y2="60.044"/>
		
			<line style="clip-path:url(#SVGID_28_);fill:none;stroke:#000000;stroke-width:0;stroke-miterlimit:1;" x1="96.33" y1="60.044" x2="98.241" y2="66.82"/>
		
			<line style="clip-path:url(#SVGID_28_);fill:none;stroke:#000000;stroke-width:0;stroke-miterlimit:1;" x1="98.241" y1="66.82" x2="98.589" y2="70.294"/>
		
			<line style="clip-path:url(#SVGID_28_);fill:none;stroke:#000000;stroke-width:0;stroke-miterlimit:1;" x1="98.589" y1="70.294" x2="99.11" y2="73.074"/>
		
			<line style="clip-path:url(#SVGID_28_);fill:none;stroke:#000000;stroke-width:0;stroke-miterlimit:1;" x1="99.11" y1="73.074" x2="99.979" y2="75.853"/>
		
			<line style="clip-path:url(#SVGID_28_);fill:none;stroke:#000000;stroke-width:0;stroke-miterlimit:1;" x1="99.979" y1="75.853" x2="100.848" y2="78.286"/>
		
			<line style="clip-path:url(#SVGID_28_);fill:none;stroke:#000000;stroke-width:0;stroke-miterlimit:1;" x1="100.848" y1="78.286" x2="102.237" y2="80.543"/>
		
			<line style="clip-path:url(#SVGID_28_);fill:none;stroke:#000000;stroke-width:0;stroke-miterlimit:1;" x1="102.237" y1="80.543" x2="103.627" y2="82.976"/>
		
			<line style="clip-path:url(#SVGID_28_);fill:none;stroke:#000000;stroke-width:0;stroke-miterlimit:1;" x1="103.627" y1="82.976" x2="105.364" y2="84.887"/>
		
			<line style="clip-path:url(#SVGID_28_);fill:none;stroke:#000000;stroke-width:0;stroke-miterlimit:1;" x1="105.364" y1="84.887" x2="107.275" y2="86.971"/>
		
			<line style="clip-path:url(#SVGID_28_);fill:none;stroke:#000000;stroke-width:0;stroke-miterlimit:1;" x1="107.275" y1="86.971" x2="108.839" y2="88.708"/>
		
			<line style="clip-path:url(#SVGID_28_);fill:none;stroke:#000000;stroke-width:0;stroke-miterlimit:1;" x1="108.839" y1="88.708" x2="110.055" y2="89.925"/>
		
			<line style="clip-path:url(#SVGID_28_);fill:none;stroke:#000000;stroke-width:0;stroke-miterlimit:1;" x1="110.055" y1="89.925" x2="110.923" y2="90.62"/>
		
			<line style="clip-path:url(#SVGID_28_);fill:none;stroke:#000000;stroke-width:0;stroke-miterlimit:1;" x1="110.923" y1="90.62" x2="107.275" y2="89.404"/>
		
			<line style="clip-path:url(#SVGID_28_);fill:none;stroke:#000000;stroke-width:0;stroke-miterlimit:1;" x1="107.275" y1="89.404" x2="103.453" y2="88.014"/>
		
			<line style="clip-path:url(#SVGID_28_);fill:none;stroke:#000000;stroke-width:0;stroke-miterlimit:1;" x1="103.453" y1="88.014" x2="99.979" y2="86.277"/>
		
			<line style="clip-path:url(#SVGID_28_);fill:none;stroke:#000000;stroke-width:0;stroke-miterlimit:1;" x1="99.979" y1="86.277" x2="96.33" y2="82.628"/>
		
			<line style="clip-path:url(#SVGID_28_);fill:none;stroke:#000000;stroke-width:0;stroke-miterlimit:1;" x1="96.33" y1="82.628" x2="94.246" y2="79.675"/>
		
			<line style="clip-path:url(#SVGID_28_);fill:none;stroke:#000000;stroke-width:0;stroke-miterlimit:1;" x1="94.246" y1="79.675" x2="92.683" y2="77.069"/>
		
			<line style="clip-path:url(#SVGID_28_);fill:none;stroke:#000000;stroke-width:0;stroke-miterlimit:1;" x1="92.683" y1="77.069" x2="91.119" y2="73.595"/>
		
			<line style="clip-path:url(#SVGID_28_);fill:none;stroke:#000000;stroke-width:0;stroke-miterlimit:1;" x1="91.119" y1="73.595" x2="89.729" y2="69.599"/>
		
			<line style="clip-path:url(#SVGID_28_);fill:none;stroke:#000000;stroke-width:0;stroke-miterlimit:1;" x1="89.729" y1="69.599" x2="88.687" y2="65.777"/>
		
			<line style="clip-path:url(#SVGID_28_);fill:none;stroke:#000000;stroke-width:0;stroke-miterlimit:1;" x1="88.687" y1="65.777" x2="88.165" y2="62.129"/>
		
			<line style="clip-path:url(#SVGID_28_);fill:none;stroke:#000000;stroke-width:0;stroke-miterlimit:1;" x1="88.165" y1="62.129" x2="87.818" y2="59.175"/>
		
			<line style="clip-path:url(#SVGID_28_);fill:none;stroke:#000000;stroke-width:0;stroke-miterlimit:1;" x1="87.818" y1="59.175" x2="88.165" y2="56.048"/>
		
			<line style="clip-path:url(#SVGID_28_);fill:none;stroke:#000000;stroke-width:0;stroke-miterlimit:1;" x1="88.165" y1="56.048" x2="89.034" y2="53.617"/>
		
			<line style="clip-path:url(#SVGID_28_);fill:none;stroke:#000000;stroke-width:0;stroke-miterlimit:1;" x1="89.034" y1="53.617" x2="91.987" y2="49.621"/>
		
			<line style="clip-path:url(#SVGID_28_);fill:none;stroke:#000000;stroke-width:0;stroke-miterlimit:1;" x1="91.987" y1="49.621" x2="93.551" y2="47.883"/>
		
			<line style="clip-path:url(#SVGID_28_);fill:none;stroke:#000000;stroke-width:0;stroke-miterlimit:1;" x1="93.551" y1="47.883" x2="89.556" y2="46.146"/>
		
			<line style="clip-path:url(#SVGID_28_);fill:none;stroke:#000000;stroke-width:0;stroke-miterlimit:1;" x1="89.556" y1="46.146" x2="86.428" y2="43.714"/>
		
			<line style="clip-path:url(#SVGID_28_);fill:none;stroke:#000000;stroke-width:0;stroke-miterlimit:1;" x1="86.428" y1="43.714" x2="82.954" y2="38.85"/>
		
			<line style="clip-path:url(#SVGID_28_);fill:none;stroke:#000000;stroke-width:0;stroke-miterlimit:1;" x1="82.954" y1="38.85" x2="85.038" y2="46.146"/>
		
			<line style="clip-path:url(#SVGID_28_);fill:none;stroke:#000000;stroke-width:0;stroke-miterlimit:1;" x1="85.038" y1="46.146" x2="87.123" y2="53.269"/>
		
			<line style="clip-path:url(#SVGID_28_);fill:none;stroke:#000000;stroke-width:0;stroke-miterlimit:1;" x1="87.123" y1="53.269" x2="86.775" y2="58.133"/>
		
			<line style="clip-path:url(#SVGID_28_);fill:none;stroke:#000000;stroke-width:0;stroke-miterlimit:1;" x1="86.775" y1="58.133" x2="86.949" y2="61.782"/>
		
			<line style="clip-path:url(#SVGID_28_);fill:none;stroke:#000000;stroke-width:0;stroke-miterlimit:1;" x1="86.949" y1="61.782" x2="87.645" y2="65.43"/>
		
			<line style="clip-path:url(#SVGID_28_);fill:none;stroke:#000000;stroke-width:0;stroke-miterlimit:1;" x1="87.645" y1="65.43" x2="88.165" y2="68.731"/>
		
			<line style="clip-path:url(#SVGID_28_);fill:none;stroke:#000000;stroke-width:0;stroke-miterlimit:1;" x1="88.165" y1="68.731" x2="89.208" y2="71.684"/>
		
			<line style="clip-path:url(#SVGID_28_);fill:none;stroke:#000000;stroke-width:0;stroke-miterlimit:1;" x1="89.208" y1="71.684" x2="90.25" y2="74.29"/>
		
			<line style="clip-path:url(#SVGID_28_);fill:none;stroke:#000000;stroke-width:0;stroke-miterlimit:1;" x1="90.25" y1="74.29" x2="91.466" y2="76.896"/>
		
			<line style="clip-path:url(#SVGID_28_);fill:none;stroke:#000000;stroke-width:0;stroke-miterlimit:1;" x1="91.466" y1="76.896" x2="93.203" y2="80.197"/>
		
			<line style="clip-path:url(#SVGID_28_);fill:none;stroke:#000000;stroke-width:0;stroke-miterlimit:1;" x1="93.203" y1="80.197" x2="97.547" y2="85.582"/>
		
			<line style="clip-path:url(#SVGID_28_);fill:none;stroke:#000000;stroke-width:0;stroke-miterlimit:1;" x1="97.547" y1="85.582" x2="94.072" y2="83.67"/>
		
			<line style="clip-path:url(#SVGID_28_);fill:none;stroke:#000000;stroke-width:0;stroke-miterlimit:1;" x1="94.072" y1="83.67" x2="90.771" y2="81.586"/>
		
			<line style="clip-path:url(#SVGID_28_);fill:none;stroke:#000000;stroke-width:0;stroke-miterlimit:1;" x1="90.771" y1="81.586" x2="87.123" y2="78.459"/>
		
			<line style="clip-path:url(#SVGID_28_);fill:none;stroke:#000000;stroke-width:0;stroke-miterlimit:1;" x1="87.123" y1="78.459" x2="83.475" y2="74.985"/>
		
			<line style="clip-path:url(#SVGID_28_);fill:none;stroke:#000000;stroke-width:0;stroke-miterlimit:1;" x1="83.475" y1="74.985" x2="81.043" y2="71.163"/>
		
			<line style="clip-path:url(#SVGID_28_);fill:none;stroke:#000000;stroke-width:0;stroke-miterlimit:1;" x1="81.043" y1="71.163" x2="79.826" y2="67.514"/>
		
			<line style="clip-path:url(#SVGID_28_);fill:none;stroke:#000000;stroke-width:0;stroke-miterlimit:1;" x1="79.826" y1="67.514" x2="78.958" y2="63.519"/>
		
			<line style="clip-path:url(#SVGID_28_);fill:none;stroke:#000000;stroke-width:0;stroke-miterlimit:1;" x1="78.958" y1="63.519" x2="79.306" y2="59.697"/>
		
			<line style="clip-path:url(#SVGID_28_);fill:none;stroke:#000000;stroke-width:0;stroke-miterlimit:1;" x1="79.306" y1="59.697" x2="79.826" y2="58.133"/>
		
			<line style="clip-path:url(#SVGID_28_);fill:none;stroke:#000000;stroke-width:0;stroke-miterlimit:1;" x1="79.826" y1="58.133" x2="80.869" y2="56.048"/>
		
			<line style="clip-path:url(#SVGID_28_);fill:none;stroke:#000000;stroke-width:0;stroke-miterlimit:1;" x1="80.869" y1="56.048" x2="82.259" y2="54.485"/>
		
			<line style="clip-path:url(#SVGID_28_);fill:none;stroke:#000000;stroke-width:0;stroke-miterlimit:1;" x1="82.259" y1="54.485" x2="78.958" y2="52.748"/>
		
			<line style="clip-path:url(#SVGID_28_);fill:none;stroke:#000000;stroke-width:0;stroke-miterlimit:1;" x1="78.958" y1="52.748" x2="75.831" y2="50.316"/>
		
			<line style="clip-path:url(#SVGID_28_);fill:none;stroke:#000000;stroke-width:0;stroke-miterlimit:1;" x1="75.831" y1="50.316" x2="71.835" y2="45.104"/>
		
			<line style="clip-path:url(#SVGID_28_);fill:none;stroke:#000000;stroke-width:0;stroke-miterlimit:1;" x1="71.835" y1="45.104" x2="74.441" y2="52.748"/>
		
			<line style="clip-path:url(#SVGID_28_);fill:none;stroke:#000000;stroke-width:0;stroke-miterlimit:1;" x1="74.441" y1="52.748" x2="77.221" y2="60.566"/>
		
			<line style="clip-path:url(#SVGID_28_);fill:none;stroke:#000000;stroke-width:0;stroke-miterlimit:1;" x1="77.221" y1="60.566" x2="77.742" y2="63.345"/>
		
			<line style="clip-path:url(#SVGID_28_);fill:none;stroke:#000000;stroke-width:0;stroke-miterlimit:1;" x1="77.742" y1="63.345" x2="77.916" y2="65.43"/>
		
			<line style="clip-path:url(#SVGID_28_);fill:none;stroke:#000000;stroke-width:0;stroke-miterlimit:1;" x1="77.916" y1="65.43" x2="78.784" y2="68.731"/>
		
			<line style="clip-path:url(#SVGID_28_);fill:none;stroke:#000000;stroke-width:0;stroke-miterlimit:1;" x1="78.784" y1="68.731" x2="80.521" y2="72.9"/>
		
			<line style="clip-path:url(#SVGID_28_);fill:none;stroke:#000000;stroke-width:0;stroke-miterlimit:1;" x1="80.521" y1="72.9" x2="81.911" y2="74.985"/>
		
			<line style="clip-path:url(#SVGID_28_);fill:none;stroke:#000000;stroke-width:0;stroke-miterlimit:1;" x1="81.911" y1="74.985" x2="83.996" y2="77.243"/>
		
			<line style="clip-path:url(#SVGID_28_);fill:none;stroke:#000000;stroke-width:0;stroke-miterlimit:1;" x1="83.996" y1="77.243" x2="85.733" y2="78.98"/>
		
			<line style="clip-path:url(#SVGID_28_);fill:none;stroke:#000000;stroke-width:0;stroke-miterlimit:1;" x1="85.733" y1="78.98" x2="88.165" y2="81.065"/>
		
			<line style="clip-path:url(#SVGID_28_);fill:none;stroke:#000000;stroke-width:0;stroke-miterlimit:1;" x1="88.165" y1="81.065" x2="90.598" y2="82.802"/>
		
			<line style="clip-path:url(#SVGID_28_);fill:none;stroke:#000000;stroke-width:0;stroke-miterlimit:1;" x1="90.598" y1="82.802" x2="93.725" y2="84.713"/>
		
			<line style="clip-path:url(#SVGID_28_);fill:none;stroke:#000000;stroke-width:0;stroke-miterlimit:1;" x1="93.725" y1="84.713" x2="97.199" y2="86.798"/>
		
			<line style="clip-path:url(#SVGID_28_);fill:none;stroke:#000000;stroke-width:0;stroke-miterlimit:1;" x1="97.199" y1="86.798" x2="105.364" y2="90.099"/>
		
			<line style="clip-path:url(#SVGID_28_);fill:none;stroke:#000000;stroke-width:0;stroke-miterlimit:1;" x1="105.364" y1="90.099" x2="112.14" y2="92.357"/>
		
			<line style="clip-path:url(#SVGID_28_);fill:none;stroke:#000000;stroke-width:0;stroke-miterlimit:1;" x1="112.14" y1="92.357" x2="117.178" y2="93.226"/>
		
			<line style="clip-path:url(#SVGID_28_);fill:none;stroke:#000000;stroke-width:0;stroke-miterlimit:1;" x1="117.178" y1="93.226" x2="119.262" y2="93.573"/>
		
			<line style="clip-path:url(#SVGID_28_);fill:none;stroke:#000000;stroke-width:0;stroke-miterlimit:1;" x1="119.262" y1="93.573" x2="119.262" y2="92.531"/>
	</g>
</g>
</svg>
