<?xml version="1.0" encoding="iso-8859-1"?>
<!-- Generator: Adobe Illustrator 16.0.1, SVG Export Plug-In . SVG Version: 6.00 Build 0)  -->
<!DOCTYPE svg PUBLIC "-//W3C//DTD SVG 1.1//EN" "http://www.w3.org/Graphics/SVG/1.1/DTD/svg11.dtd">
<svg version="1.1" id="Ebene_1" xmlns="http://www.w3.org/2000/svg" xmlns:xlink="http://www.w3.org/1999/xlink" x="0px" y="0px"
	 width="498.703px" height="485.366px" viewBox="0 0 498.703 485.366" style="enable-background:new 0 0 498.703 485.366;"
	 xml:space="preserve">
<g>
	<g>
		<defs>
			<polygon id="SVGID_1_" points="137.657,429.705 498.703,429.705 498.703,72.604 137.657,72.604 137.657,429.705 			"/>
		</defs>
		<clipPath id="SVGID_2_">
			<use xlink:href="#SVGID_1_"  style="overflow:visible;"/>
		</clipPath>
		
			<line style="clip-path:url(#SVGID_2_);fill:none;stroke:#000000;stroke-width:0;stroke-miterlimit:1;" x1="140.743" y1="75.688" x2="223.574" y2="136.038"/>
		
			<line style="clip-path:url(#SVGID_2_);fill:none;stroke:#000000;stroke-width:0;stroke-miterlimit:1;" x1="223.574" y1="136.038" x2="240.141" y2="123.021"/>
		
			<line style="clip-path:url(#SVGID_2_);fill:none;stroke:#000000;stroke-width:0;stroke-miterlimit:1;" x1="240.141" y1="123.021" x2="243.69" y2="122.43"/>
		
			<line style="clip-path:url(#SVGID_2_);fill:none;stroke:#000000;stroke-width:0;stroke-miterlimit:1;" x1="243.69" y1="122.43" x2="246.945" y2="122.43"/>
		
			<line style="clip-path:url(#SVGID_2_);fill:none;stroke:#000000;stroke-width:0;stroke-miterlimit:1;" x1="246.945" y1="122.43" x2="281.853" y2="134.854"/>
		
			<line style="clip-path:url(#SVGID_2_);fill:none;stroke:#000000;stroke-width:0;stroke-miterlimit:1;" x1="281.853" y1="134.854" x2="283.628" y2="133.671"/>
		
			<line style="clip-path:url(#SVGID_2_);fill:none;stroke:#000000;stroke-width:0;stroke-miterlimit:1;" x1="283.628" y1="133.671" x2="284.811" y2="131.896"/>
		
			<line style="clip-path:url(#SVGID_2_);fill:none;stroke:#000000;stroke-width:0;stroke-miterlimit:1;" x1="284.811" y1="131.896" x2="284.515" y2="129.233"/>
		
			<line style="clip-path:url(#SVGID_2_);fill:none;stroke:#000000;stroke-width:0;stroke-miterlimit:1;" x1="284.515" y1="129.233" x2="140.743" y2="75.688"/>
	</g>
	<g>
		<defs>
			<polygon id="SVGID_3_" points="7.564,429.705 498.703,429.705 498.703,0 7.564,0 7.564,429.705 			"/>
		</defs>
		<clipPath id="SVGID_4_">
			<use xlink:href="#SVGID_3_"  style="overflow:visible;"/>
		</clipPath>
		
			<line style="clip-path:url(#SVGID_4_);fill:none;stroke:#000000;stroke-width:0;stroke-miterlimit:1;" x1="75.141" y1="38.585" x2="68.632" y2="37.993"/>
		
			<line style="clip-path:url(#SVGID_4_);fill:none;stroke:#000000;stroke-width:0;stroke-miterlimit:1;" x1="68.632" y1="37.993" x2="58.278" y2="38.585"/>
		
			<line style="clip-path:url(#SVGID_4_);fill:none;stroke:#000000;stroke-width:0;stroke-miterlimit:1;" x1="58.278" y1="38.585" x2="50.587" y2="37.697"/>
		
			<line style="clip-path:url(#SVGID_4_);fill:none;stroke:#000000;stroke-width:0;stroke-miterlimit:1;" x1="50.587" y1="37.697" x2="48.22" y2="38.585"/>
		
			<line style="clip-path:url(#SVGID_4_);fill:none;stroke:#000000;stroke-width:0;stroke-miterlimit:1;" x1="48.22" y1="38.585" x2="46.445" y2="40.952"/>
		
			<line style="clip-path:url(#SVGID_4_);fill:none;stroke:#000000;stroke-width:0;stroke-miterlimit:1;" x1="46.445" y1="40.952" x2="46.741" y2="45.093"/>
		
			<line style="clip-path:url(#SVGID_4_);fill:none;stroke:#000000;stroke-width:0;stroke-miterlimit:1;" x1="46.741" y1="45.093" x2="49.995" y2="54.56"/>
		
			<line style="clip-path:url(#SVGID_4_);fill:none;stroke:#000000;stroke-width:0;stroke-miterlimit:1;" x1="49.995" y1="54.56" x2="55.616" y2="63.73"/>
		
			<line style="clip-path:url(#SVGID_4_);fill:none;stroke:#000000;stroke-width:0;stroke-miterlimit:1;" x1="55.616" y1="63.73" x2="73.957" y2="85.621"/>
		
			<line style="clip-path:url(#SVGID_4_);fill:none;stroke:#000000;stroke-width:0;stroke-miterlimit:1;" x1="73.957" y1="85.621" x2="83.128" y2="94.496"/>
		
			<line style="clip-path:url(#SVGID_4_);fill:none;stroke:#000000;stroke-width:0;stroke-miterlimit:1;" x1="83.128" y1="94.496" x2="97.032" y2="107.217"/>
		
			<line style="clip-path:url(#SVGID_4_);fill:none;stroke:#000000;stroke-width:0;stroke-miterlimit:1;" x1="97.032" y1="107.217" x2="126.023" y2="135.616"/>
		
			<line style="clip-path:url(#SVGID_4_);fill:none;stroke:#000000;stroke-width:0;stroke-miterlimit:1;" x1="126.023" y1="135.616" x2="128.981" y2="135.616"/>
		
			<line style="clip-path:url(#SVGID_4_);fill:none;stroke:#000000;stroke-width:0;stroke-miterlimit:1;" x1="128.981" y1="135.616" x2="129.573" y2="134.138"/>
		
			<line style="clip-path:url(#SVGID_4_);fill:none;stroke:#000000;stroke-width:0;stroke-miterlimit:1;" x1="129.573" y1="134.138" x2="128.686" y2="131.475"/>
		
			<line style="clip-path:url(#SVGID_4_);fill:none;stroke:#000000;stroke-width:0;stroke-miterlimit:1;" x1="128.686" y1="131.475" x2="116.261" y2="103.075"/>
		
			<line style="clip-path:url(#SVGID_4_);fill:none;stroke:#000000;stroke-width:0;stroke-miterlimit:1;" x1="116.261" y1="103.075" x2="114.19" y2="97.75"/>
		
			<line style="clip-path:url(#SVGID_4_);fill:none;stroke:#000000;stroke-width:0;stroke-miterlimit:1;" x1="114.19" y1="97.75" x2="104.723" y2="74.972"/>
		
			<line style="clip-path:url(#SVGID_4_);fill:none;stroke:#000000;stroke-width:0;stroke-miterlimit:1;" x1="104.723" y1="74.972" x2="96.44" y2="60.18"/>
		
			<line style="clip-path:url(#SVGID_4_);fill:none;stroke:#000000;stroke-width:0;stroke-miterlimit:1;" x1="96.44" y1="60.18" x2="89.34" y2="50.714"/>
		
			<line style="clip-path:url(#SVGID_4_);fill:none;stroke:#000000;stroke-width:0;stroke-miterlimit:1;" x1="89.34" y1="50.714" x2="84.607" y2="43.91"/>
		
			<line style="clip-path:url(#SVGID_4_);fill:none;stroke:#000000;stroke-width:0;stroke-miterlimit:1;" x1="84.607" y1="43.91" x2="80.465" y2="37.401"/>
		
			<line style="clip-path:url(#SVGID_4_);fill:none;stroke:#000000;stroke-width:0;stroke-miterlimit:1;" x1="80.465" y1="37.401" x2="76.028" y2="31.485"/>
		
			<line style="clip-path:url(#SVGID_4_);fill:none;stroke:#000000;stroke-width:0;stroke-miterlimit:1;" x1="76.028" y1="31.485" x2="70.703" y2="25.272"/>
		
			<line style="clip-path:url(#SVGID_4_);fill:none;stroke:#000000;stroke-width:0;stroke-miterlimit:1;" x1="70.703" y1="25.272" x2="65.378" y2="21.723"/>
		
			<line style="clip-path:url(#SVGID_4_);fill:none;stroke:#000000;stroke-width:0;stroke-miterlimit:1;" x1="65.378" y1="21.723" x2="63.899" y2="15.51"/>
		
			<line style="clip-path:url(#SVGID_4_);fill:none;stroke:#000000;stroke-width:0;stroke-miterlimit:1;" x1="63.899" y1="15.51" x2="62.42" y2="8.706"/>
		
			<line style="clip-path:url(#SVGID_4_);fill:none;stroke:#000000;stroke-width:0;stroke-miterlimit:1;" x1="62.42" y1="8.706" x2="60.941" y2="4.269"/>
		
			<line style="clip-path:url(#SVGID_4_);fill:none;stroke:#000000;stroke-width:0;stroke-miterlimit:1;" x1="60.941" y1="4.269" x2="55.912" y2="3.085"/>
		
			<line style="clip-path:url(#SVGID_4_);fill:none;stroke:#000000;stroke-width:0;stroke-miterlimit:1;" x1="55.912" y1="3.085" x2="47.628" y2="3.085"/>
		
			<line style="clip-path:url(#SVGID_4_);fill:none;stroke:#000000;stroke-width:0;stroke-miterlimit:1;" x1="47.628" y1="3.085" x2="38.458" y2="3.381"/>
		
			<line style="clip-path:url(#SVGID_4_);fill:none;stroke:#000000;stroke-width:0;stroke-miterlimit:1;" x1="38.458" y1="3.381" x2="33.725" y2="4.564"/>
		
			<line style="clip-path:url(#SVGID_4_);fill:none;stroke:#000000;stroke-width:0;stroke-miterlimit:1;" x1="33.725" y1="4.564" x2="31.95" y2="5.156"/>
		
			<line style="clip-path:url(#SVGID_4_);fill:none;stroke:#000000;stroke-width:0;stroke-miterlimit:1;" x1="31.95" y1="5.156" x2="16.862" y2="7.227"/>
		
			<line style="clip-path:url(#SVGID_4_);fill:none;stroke:#000000;stroke-width:0;stroke-miterlimit:1;" x1="16.862" y1="7.227" x2="12.425" y2="9.298"/>
		
			<line style="clip-path:url(#SVGID_4_);fill:none;stroke:#000000;stroke-width:0;stroke-miterlimit:1;" x1="12.425" y1="9.298" x2="10.946" y2="11.369"/>
		
			<line style="clip-path:url(#SVGID_4_);fill:none;stroke:#000000;stroke-width:0;stroke-miterlimit:1;" x1="10.946" y1="11.369" x2="10.65" y2="15.51"/>
		
			<line style="clip-path:url(#SVGID_4_);fill:none;stroke:#000000;stroke-width:0;stroke-miterlimit:1;" x1="10.65" y1="15.51" x2="12.425" y2="12.552"/>
		
			<line style="clip-path:url(#SVGID_4_);fill:none;stroke:#000000;stroke-width:0;stroke-miterlimit:1;" x1="12.425" y1="12.552" x2="15.087" y2="11.073"/>
		
			<line style="clip-path:url(#SVGID_4_);fill:none;stroke:#000000;stroke-width:0;stroke-miterlimit:1;" x1="15.087" y1="11.073" x2="24.258" y2="11.073"/>
		
			<line style="clip-path:url(#SVGID_4_);fill:none;stroke:#000000;stroke-width:0;stroke-miterlimit:1;" x1="24.258" y1="11.073" x2="33.133" y2="11.369"/>
		
			<line style="clip-path:url(#SVGID_4_);fill:none;stroke:#000000;stroke-width:0;stroke-miterlimit:1;" x1="33.133" y1="11.369" x2="38.162" y2="12.552"/>
		
			<line style="clip-path:url(#SVGID_4_);fill:none;stroke:#000000;stroke-width:0;stroke-miterlimit:1;" x1="38.162" y1="12.552" x2="34.316" y2="7.819"/>
		
			<line style="clip-path:url(#SVGID_4_);fill:none;stroke:#000000;stroke-width:0;stroke-miterlimit:1;" x1="34.316" y1="7.819" x2="33.429" y2="4.564"/>
	</g>
	<g>
		<defs>
			<polygon id="SVGID_5_" points="7.564,429.705 498.703,429.705 498.703,0 7.564,0 7.564,429.705 			"/>
		</defs>
		<clipPath id="SVGID_6_">
			<use xlink:href="#SVGID_5_"  style="overflow:visible;"/>
		</clipPath>
		
			<line style="clip-path:url(#SVGID_6_);fill:none;stroke:#000000;stroke-width:0;stroke-miterlimit:1;" x1="42.895" y1="10.777" x2="43.783" y2="10.481"/>
		
			<line style="clip-path:url(#SVGID_6_);fill:none;stroke:#000000;stroke-width:0;stroke-miterlimit:1;" x1="43.783" y1="10.481" x2="44.67" y2="9.002"/>
		
			<line style="clip-path:url(#SVGID_6_);fill:none;stroke:#000000;stroke-width:0;stroke-miterlimit:1;" x1="44.67" y1="9.002" x2="44.079" y2="7.523"/>
		
			<line style="clip-path:url(#SVGID_6_);fill:none;stroke:#000000;stroke-width:0;stroke-miterlimit:1;" x1="44.079" y1="7.523" x2="42.895" y2="6.635"/>
		
			<line style="clip-path:url(#SVGID_6_);fill:none;stroke:#000000;stroke-width:0;stroke-miterlimit:1;" x1="42.895" y1="6.635" x2="41.416" y2="7.523"/>
		
			<line style="clip-path:url(#SVGID_6_);fill:none;stroke:#000000;stroke-width:0;stroke-miterlimit:1;" x1="41.416" y1="7.523" x2="41.416" y2="9.298"/>
		
			<line style="clip-path:url(#SVGID_6_);fill:none;stroke:#000000;stroke-width:0;stroke-miterlimit:1;" x1="41.416" y1="9.298" x2="42.008" y2="10.186"/>
		
			<line style="clip-path:url(#SVGID_6_);fill:none;stroke:#000000;stroke-width:0;stroke-miterlimit:1;" x1="42.008" y1="10.186" x2="42.895" y2="10.777"/>
	</g>
	<g>
		<defs>
			<polygon id="SVGID_7_" points="7.564,429.705 498.703,429.705 498.703,0 7.564,0 7.564,429.705 			"/>
		</defs>
		<clipPath id="SVGID_8_">
			<use xlink:href="#SVGID_7_"  style="overflow:visible;"/>
		</clipPath>
		
			<line style="clip-path:url(#SVGID_8_);fill:none;stroke:#000000;stroke-width:0;stroke-miterlimit:1;" x1="12.129" y1="13.735" x2="23.962" y2="13.439"/>
		
			<line style="clip-path:url(#SVGID_8_);fill:none;stroke:#000000;stroke-width:0;stroke-miterlimit:1;" x1="23.962" y1="13.439" x2="32.837" y2="14.623"/>
		
			<line style="clip-path:url(#SVGID_8_);fill:none;stroke:#000000;stroke-width:0;stroke-miterlimit:1;" x1="32.837" y1="14.623" x2="35.795" y2="16.102"/>
		
			<line style="clip-path:url(#SVGID_8_);fill:none;stroke:#000000;stroke-width:0;stroke-miterlimit:1;" x1="35.795" y1="16.102" x2="36.683" y2="19.06"/>
		
			<line style="clip-path:url(#SVGID_8_);fill:none;stroke:#000000;stroke-width:0;stroke-miterlimit:1;" x1="36.683" y1="19.06" x2="36.979" y2="22.314"/>
		
			<line style="clip-path:url(#SVGID_8_);fill:none;stroke:#000000;stroke-width:0;stroke-miterlimit:1;" x1="36.979" y1="22.314" x2="34.316" y2="28.823"/>
		
			<line style="clip-path:url(#SVGID_8_);fill:none;stroke:#000000;stroke-width:0;stroke-miterlimit:1;" x1="34.316" y1="28.823" x2="33.133" y2="36.81"/>
		
			<line style="clip-path:url(#SVGID_8_);fill:none;stroke:#000000;stroke-width:0;stroke-miterlimit:1;" x1="33.133" y1="36.81" x2="34.316" y2="46.572"/>
		
			<line style="clip-path:url(#SVGID_8_);fill:none;stroke:#000000;stroke-width:0;stroke-miterlimit:1;" x1="34.316" y1="46.572" x2="35.795" y2="51.01"/>
		
			<line style="clip-path:url(#SVGID_8_);fill:none;stroke:#000000;stroke-width:0;stroke-miterlimit:1;" x1="35.795" y1="51.01" x2="39.049" y2="59.884"/>
		
			<line style="clip-path:url(#SVGID_8_);fill:none;stroke:#000000;stroke-width:0;stroke-miterlimit:1;" x1="39.049" y1="59.884" x2="42.6" y2="66.984"/>
		
			<line style="clip-path:url(#SVGID_8_);fill:none;stroke:#000000;stroke-width:0;stroke-miterlimit:1;" x1="42.6" y1="66.984" x2="52.066" y2="82.663"/>
		
			<line style="clip-path:url(#SVGID_8_);fill:none;stroke:#000000;stroke-width:0;stroke-miterlimit:1;" x1="52.066" y1="82.663" x2="64.195" y2="105.738"/>
		
			<line style="clip-path:url(#SVGID_8_);fill:none;stroke:#000000;stroke-width:0;stroke-miterlimit:1;" x1="64.195" y1="105.738" x2="65.378" y2="114.612"/>
		
			<line style="clip-path:url(#SVGID_8_);fill:none;stroke:#000000;stroke-width:0;stroke-miterlimit:1;" x1="65.378" y1="114.612" x2="63.899" y2="129.7"/>
		
			<line style="clip-path:url(#SVGID_8_);fill:none;stroke:#000000;stroke-width:0;stroke-miterlimit:1;" x1="63.899" y1="129.7" x2="62.42" y2="131.179"/>
		
			<line style="clip-path:url(#SVGID_8_);fill:none;stroke:#000000;stroke-width:0;stroke-miterlimit:1;" x1="62.42" y1="131.179" x2="53.841" y2="132.066"/>
		
			<line style="clip-path:url(#SVGID_8_);fill:none;stroke:#000000;stroke-width:0;stroke-miterlimit:1;" x1="53.841" y1="132.066" x2="43.783" y2="131.771"/>
		
			<line style="clip-path:url(#SVGID_8_);fill:none;stroke:#000000;stroke-width:0;stroke-miterlimit:1;" x1="43.783" y1="131.771" x2="42.895" y2="133.25"/>
		
			<line style="clip-path:url(#SVGID_8_);fill:none;stroke:#000000;stroke-width:0;stroke-miterlimit:1;" x1="42.895" y1="133.25" x2="38.458" y2="133.842"/>
		
			<line style="clip-path:url(#SVGID_8_);fill:none;stroke:#000000;stroke-width:0;stroke-miterlimit:1;" x1="38.458" y1="133.842" x2="38.162" y2="134.729"/>
		
			<line style="clip-path:url(#SVGID_8_);fill:none;stroke:#000000;stroke-width:0;stroke-miterlimit:1;" x1="38.162" y1="134.729" x2="39.049" y2="135.912"/>
		
			<line style="clip-path:url(#SVGID_8_);fill:none;stroke:#000000;stroke-width:0;stroke-miterlimit:1;" x1="39.049" y1="135.912" x2="64.491" y2="135.024"/>
		
			<line style="clip-path:url(#SVGID_8_);fill:none;stroke:#000000;stroke-width:0;stroke-miterlimit:1;" x1="64.491" y1="135.024" x2="90.819" y2="136.208"/>
		
			<line style="clip-path:url(#SVGID_8_);fill:none;stroke:#000000;stroke-width:0;stroke-miterlimit:1;" x1="90.819" y1="136.208" x2="92.002" y2="135.024"/>
		
			<line style="clip-path:url(#SVGID_8_);fill:none;stroke:#000000;stroke-width:0;stroke-miterlimit:1;" x1="92.002" y1="135.024" x2="91.115" y2="133.546"/>
		
			<line style="clip-path:url(#SVGID_8_);fill:none;stroke:#000000;stroke-width:0;stroke-miterlimit:1;" x1="91.115" y1="133.546" x2="87.27" y2="133.546"/>
		
			<line style="clip-path:url(#SVGID_8_);fill:none;stroke:#000000;stroke-width:0;stroke-miterlimit:1;" x1="87.27" y1="133.546" x2="84.903" y2="131.475"/>
		
			<line style="clip-path:url(#SVGID_8_);fill:none;stroke:#000000;stroke-width:0;stroke-miterlimit:1;" x1="84.903" y1="131.475" x2="69.815" y2="131.179"/>
		
			<line style="clip-path:url(#SVGID_8_);fill:none;stroke:#000000;stroke-width:0;stroke-miterlimit:1;" x1="69.815" y1="131.179" x2="67.745" y2="129.996"/>
		
			<line style="clip-path:url(#SVGID_8_);fill:none;stroke:#000000;stroke-width:0;stroke-miterlimit:1;" x1="67.745" y1="129.996" x2="69.815" y2="111.358"/>
		
			<line style="clip-path:url(#SVGID_8_);fill:none;stroke:#000000;stroke-width:0;stroke-miterlimit:1;" x1="69.815" y1="111.358" x2="80.761" y2="116.979"/>
		
			<line style="clip-path:url(#SVGID_8_);fill:none;stroke:#000000;stroke-width:0;stroke-miterlimit:1;" x1="80.761" y1="116.979" x2="86.678" y2="98.638"/>
		
			<line style="clip-path:url(#SVGID_8_);fill:none;stroke:#000000;stroke-width:0;stroke-miterlimit:1;" x1="86.678" y1="98.638" x2="98.807" y2="128.221"/>
		
			<line style="clip-path:url(#SVGID_8_);fill:none;stroke:#000000;stroke-width:0;stroke-miterlimit:1;" x1="98.807" y1="128.221" x2="102.948" y2="133.546"/>
		
			<line style="clip-path:url(#SVGID_8_);fill:none;stroke:#000000;stroke-width:0;stroke-miterlimit:1;" x1="102.948" y1="133.546" x2="106.794" y2="135.912"/>
		
			<line style="clip-path:url(#SVGID_8_);fill:none;stroke:#000000;stroke-width:0;stroke-miterlimit:1;" x1="106.794" y1="135.912" x2="113.302" y2="135.912"/>
		
			<line style="clip-path:url(#SVGID_8_);fill:none;stroke:#000000;stroke-width:0;stroke-miterlimit:1;" x1="113.302" y1="135.912" x2="116.852" y2="134.729"/>
		
			<line style="clip-path:url(#SVGID_8_);fill:none;stroke:#000000;stroke-width:0;stroke-miterlimit:1;" x1="116.852" y1="134.729" x2="117.74" y2="132.954"/>
		
			<line style="clip-path:url(#SVGID_8_);fill:none;stroke:#000000;stroke-width:0;stroke-miterlimit:1;" x1="117.74" y1="132.954" x2="114.781" y2="124.967"/>
	</g>
	<g>
		<defs>
			<polygon id="SVGID_9_" points="7.564,429.705 498.703,429.705 498.703,0 7.564,0 7.564,429.705 			"/>
		</defs>
		<clipPath id="SVGID_10_">
			<use xlink:href="#SVGID_9_"  style="overflow:visible;"/>
		</clipPath>
		
			<line style="clip-path:url(#SVGID_10_);fill:none;stroke:#000000;stroke-width:0;stroke-miterlimit:1;" x1="41.416" y1="64.914" x2="45.262" y2="86.509"/>
		
			<line style="clip-path:url(#SVGID_10_);fill:none;stroke:#000000;stroke-width:0;stroke-miterlimit:1;" x1="45.262" y1="86.509" x2="44.966" y2="103.075"/>
		
			<line style="clip-path:url(#SVGID_10_);fill:none;stroke:#000000;stroke-width:0;stroke-miterlimit:1;" x1="44.966" y1="103.075" x2="42.008" y2="119.938"/>
		
			<line style="clip-path:url(#SVGID_10_);fill:none;stroke:#000000;stroke-width:0;stroke-miterlimit:1;" x1="42.008" y1="119.938" x2="39.345" y2="128.517"/>
		
			<line style="clip-path:url(#SVGID_10_);fill:none;stroke:#000000;stroke-width:0;stroke-miterlimit:1;" x1="39.345" y1="128.517" x2="37.57" y2="130.588"/>
		
			<line style="clip-path:url(#SVGID_10_);fill:none;stroke:#000000;stroke-width:0;stroke-miterlimit:1;" x1="37.57" y1="130.588" x2="23.371" y2="131.475"/>
		
			<line style="clip-path:url(#SVGID_10_);fill:none;stroke:#000000;stroke-width:0;stroke-miterlimit:1;" x1="23.371" y1="131.475" x2="21.892" y2="133.546"/>
		
			<line style="clip-path:url(#SVGID_10_);fill:none;stroke:#000000;stroke-width:0;stroke-miterlimit:1;" x1="21.892" y1="133.546" x2="18.637" y2="133.842"/>
		
			<line style="clip-path:url(#SVGID_10_);fill:none;stroke:#000000;stroke-width:0;stroke-miterlimit:1;" x1="18.637" y1="133.842" x2="17.454" y2="134.729"/>
		
			<line style="clip-path:url(#SVGID_10_);fill:none;stroke:#000000;stroke-width:0;stroke-miterlimit:1;" x1="17.454" y1="134.729" x2="18.341" y2="135.912"/>
		
			<line style="clip-path:url(#SVGID_10_);fill:none;stroke:#000000;stroke-width:0;stroke-miterlimit:1;" x1="18.341" y1="135.912" x2="29.583" y2="135.024"/>
		
			<line style="clip-path:url(#SVGID_10_);fill:none;stroke:#000000;stroke-width:0;stroke-miterlimit:1;" x1="29.583" y1="135.024" x2="32.541" y2="135.32"/>
	</g>
	<g>
		<defs>
			<polygon id="SVGID_11_" points="7.564,429.705 498.703,429.705 498.703,0 7.564,0 7.564,429.705 			"/>
		</defs>
		<clipPath id="SVGID_12_">
			<use xlink:href="#SVGID_11_"  style="overflow:visible;"/>
		</clipPath>
		
			<line style="clip-path:url(#SVGID_12_);fill:none;stroke:#000000;stroke-width:0;stroke-miterlimit:1;" x1="43.191" y1="131.771" x2="38.458" y2="132.362"/>
		
			<line style="clip-path:url(#SVGID_12_);fill:none;stroke:#000000;stroke-width:0;stroke-miterlimit:1;" x1="38.458" y1="132.362" x2="38.458" y2="132.362"/>
		
			<line style="clip-path:url(#SVGID_12_);fill:none;stroke:#000000;stroke-width:0;stroke-miterlimit:1;" x1="38.458" y1="132.362" x2="35.5" y2="132.954"/>
		
			<line style="clip-path:url(#SVGID_12_);fill:none;stroke:#000000;stroke-width:0;stroke-miterlimit:1;" x1="35.5" y1="132.954" x2="33.725" y2="135.32"/>
		
			<line style="clip-path:url(#SVGID_12_);fill:none;stroke:#000000;stroke-width:0;stroke-miterlimit:1;" x1="33.725" y1="135.32" x2="34.612" y2="135.912"/>
		
			<line style="clip-path:url(#SVGID_12_);fill:none;stroke:#000000;stroke-width:0;stroke-miterlimit:1;" x1="34.612" y1="135.912" x2="36.683" y2="134.138"/>
		
			<line style="clip-path:url(#SVGID_12_);fill:none;stroke:#000000;stroke-width:0;stroke-miterlimit:1;" x1="36.683" y1="134.138" x2="38.162" y2="133.842"/>
	</g>
	<g>
		<defs>
			<polygon id="SVGID_13_" points="7.564,429.705 498.703,429.705 498.703,0 7.564,0 7.564,429.705 			"/>
		</defs>
		<clipPath id="SVGID_14_">
			<use xlink:href="#SVGID_13_"  style="overflow:visible;"/>
		</clipPath>
		
			<line style="clip-path:url(#SVGID_14_);fill:none;stroke:#000000;stroke-width:0;stroke-miterlimit:1;" x1="43.191" y1="131.475" x2="49.699" y2="107.217"/>
		
			<line style="clip-path:url(#SVGID_14_);fill:none;stroke:#000000;stroke-width:0;stroke-miterlimit:1;" x1="49.699" y1="107.217" x2="59.461" y2="113.134"/>
		
			<line style="clip-path:url(#SVGID_14_);fill:none;stroke:#000000;stroke-width:0;stroke-miterlimit:1;" x1="59.461" y1="113.134" x2="61.828" y2="102.188"/>
	</g>
	<g>
		<defs>
			<polygon id="SVGID_15_" points="7.564,429.705 498.703,429.705 498.703,0 7.564,0 7.564,429.705 			"/>
		</defs>
		<clipPath id="SVGID_16_">
			<use xlink:href="#SVGID_15_"  style="overflow:visible;"/>
		</clipPath>
		
			<line style="clip-path:url(#SVGID_16_);fill:none;stroke:#000000;stroke-width:0;stroke-miterlimit:1;" x1="22.483" y1="131.771" x2="17.75" y2="132.362"/>
		
			<line style="clip-path:url(#SVGID_16_);fill:none;stroke:#000000;stroke-width:0;stroke-miterlimit:1;" x1="17.75" y1="132.362" x2="17.75" y2="132.362"/>
		
			<line style="clip-path:url(#SVGID_16_);fill:none;stroke:#000000;stroke-width:0;stroke-miterlimit:1;" x1="17.75" y1="132.362" x2="14.792" y2="132.954"/>
		
			<line style="clip-path:url(#SVGID_16_);fill:none;stroke:#000000;stroke-width:0;stroke-miterlimit:1;" x1="14.792" y1="132.954" x2="13.017" y2="135.32"/>
		
			<line style="clip-path:url(#SVGID_16_);fill:none;stroke:#000000;stroke-width:0;stroke-miterlimit:1;" x1="13.017" y1="135.32" x2="13.904" y2="135.912"/>
		
			<line style="clip-path:url(#SVGID_16_);fill:none;stroke:#000000;stroke-width:0;stroke-miterlimit:1;" x1="13.904" y1="135.912" x2="15.975" y2="134.138"/>
		
			<line style="clip-path:url(#SVGID_16_);fill:none;stroke:#000000;stroke-width:0;stroke-miterlimit:1;" x1="15.975" y1="134.138" x2="18.341" y2="133.842"/>
	</g>
	<g>
		<defs>
			<polygon id="SVGID_17_" points="7.564,485.366 498.703,485.366 498.703,0 7.564,0 7.564,485.366 			"/>
		</defs>
		<clipPath id="SVGID_18_">
			<use xlink:href="#SVGID_17_"  style="overflow:visible;"/>
		</clipPath>
		
			<line style="clip-path:url(#SVGID_18_);fill:none;stroke:#000000;stroke-width:0;stroke-miterlimit:1;" x1="85.495" y1="131.475" x2="90.819" y2="132.066"/>
		
			<line style="clip-path:url(#SVGID_18_);fill:none;stroke:#000000;stroke-width:0;stroke-miterlimit:1;" x1="90.819" y1="132.066" x2="93.778" y2="132.954"/>
		
			<line style="clip-path:url(#SVGID_18_);fill:none;stroke:#000000;stroke-width:0;stroke-miterlimit:1;" x1="93.778" y1="132.954" x2="95.553" y2="135.32"/>
		
			<line style="clip-path:url(#SVGID_18_);fill:none;stroke:#000000;stroke-width:0;stroke-miterlimit:1;" x1="95.553" y1="135.32" x2="94.665" y2="135.912"/>
		
			<line style="clip-path:url(#SVGID_18_);fill:none;stroke:#000000;stroke-width:0;stroke-miterlimit:1;" x1="94.665" y1="135.912" x2="92.594" y2="134.138"/>
		
			<line style="clip-path:url(#SVGID_18_);fill:none;stroke:#000000;stroke-width:0;stroke-miterlimit:1;" x1="92.594" y1="134.138" x2="91.115" y2="133.842"/>
	</g>
	<g>
		<defs>
			<polygon id="SVGID_19_" points="7.564,485.366 498.703,485.366 498.703,0 7.564,0 7.564,485.366 			"/>
		</defs>
		<clipPath id="SVGID_20_">
			<use xlink:href="#SVGID_19_"  style="overflow:visible;"/>
		</clipPath>
		
			<line style="clip-path:url(#SVGID_20_);fill:none;stroke:#000000;stroke-width:0;stroke-miterlimit:1;" x1="38.753" y1="59.884" x2="33.725" y2="58.109"/>
		
			<line style="clip-path:url(#SVGID_20_);fill:none;stroke:#000000;stroke-width:0;stroke-miterlimit:1;" x1="33.725" y1="58.109" x2="28.399" y2="56.926"/>
		
			<line style="clip-path:url(#SVGID_20_);fill:none;stroke:#000000;stroke-width:0;stroke-miterlimit:1;" x1="28.399" y1="56.926" x2="23.075" y2="56.039"/>
		
			<line style="clip-path:url(#SVGID_20_);fill:none;stroke:#000000;stroke-width:0;stroke-miterlimit:1;" x1="23.075" y1="56.039" x2="13.608" y2="56.926"/>
		
			<line style="clip-path:url(#SVGID_20_);fill:none;stroke:#000000;stroke-width:0;stroke-miterlimit:1;" x1="13.608" y1="56.926" x2="10.65" y2="58.405"/>
		
			<line style="clip-path:url(#SVGID_20_);fill:none;stroke:#000000;stroke-width:0;stroke-miterlimit:1;" x1="10.65" y1="58.405" x2="7.691" y2="61.068"/>
		
			<line style="clip-path:url(#SVGID_20_);fill:none;stroke:#000000;stroke-width:0;stroke-miterlimit:1;" x1="7.691" y1="61.068" x2="5.621" y2="65.209"/>
		
			<line style="clip-path:url(#SVGID_20_);fill:none;stroke:#000000;stroke-width:0;stroke-miterlimit:1;" x1="5.621" y1="65.209" x2="5.325" y2="67.872"/>
		
			<line style="clip-path:url(#SVGID_20_);fill:none;stroke:#000000;stroke-width:0;stroke-miterlimit:1;" x1="5.325" y1="67.872" x2="6.212" y2="71.422"/>
		
			<line style="clip-path:url(#SVGID_20_);fill:none;stroke:#000000;stroke-width:0;stroke-miterlimit:1;" x1="6.212" y1="71.422" x2="8.283" y2="73.788"/>
		
			<line style="clip-path:url(#SVGID_20_);fill:none;stroke:#000000;stroke-width:0;stroke-miterlimit:1;" x1="8.283" y1="73.788" x2="10.058" y2="75.268"/>
		
			<line style="clip-path:url(#SVGID_20_);fill:none;stroke:#000000;stroke-width:0;stroke-miterlimit:1;" x1="10.058" y1="75.268" x2="14.792" y2="77.338"/>
		
			<line style="clip-path:url(#SVGID_20_);fill:none;stroke:#000000;stroke-width:0;stroke-miterlimit:1;" x1="14.792" y1="77.338" x2="20.412" y2="78.226"/>
		
			<line style="clip-path:url(#SVGID_20_);fill:none;stroke:#000000;stroke-width:0;stroke-miterlimit:1;" x1="20.412" y1="78.226" x2="27.808" y2="77.634"/>
		
			<line style="clip-path:url(#SVGID_20_);fill:none;stroke:#000000;stroke-width:0;stroke-miterlimit:1;" x1="27.808" y1="77.634" x2="33.429" y2="76.155"/>
		
			<line style="clip-path:url(#SVGID_20_);fill:none;stroke:#000000;stroke-width:0;stroke-miterlimit:1;" x1="33.429" y1="76.155" x2="39.641" y2="73.788"/>
		
			<line style="clip-path:url(#SVGID_20_);fill:none;stroke:#000000;stroke-width:0;stroke-miterlimit:1;" x1="39.641" y1="73.788" x2="42.6" y2="72.901"/>
	</g>
	<g>
		<defs>
			<polygon id="SVGID_21_" points="7.564,485.366 498.703,485.366 498.703,0 7.564,0 7.564,485.366 			"/>
		</defs>
		<clipPath id="SVGID_22_">
			<use xlink:href="#SVGID_21_"  style="overflow:visible;"/>
		</clipPath>
		
			<line style="clip-path:url(#SVGID_22_);fill:none;stroke:#000000;stroke-width:0;stroke-miterlimit:1;" x1="95.553" y1="58.701" x2="102.356" y2="58.701"/>
		
			<line style="clip-path:url(#SVGID_22_);fill:none;stroke:#000000;stroke-width:0;stroke-miterlimit:1;" x1="102.356" y1="58.701" x2="113.006" y2="59.589"/>
		
			<line style="clip-path:url(#SVGID_22_);fill:none;stroke:#000000;stroke-width:0;stroke-miterlimit:1;" x1="113.006" y1="59.589" x2="120.698" y2="61.068"/>
		
			<line style="clip-path:url(#SVGID_22_);fill:none;stroke:#000000;stroke-width:0;stroke-miterlimit:1;" x1="120.698" y1="61.068" x2="128.094" y2="63.139"/>
		
			<line style="clip-path:url(#SVGID_22_);fill:none;stroke:#000000;stroke-width:0;stroke-miterlimit:1;" x1="128.094" y1="63.139" x2="131.939" y2="64.914"/>
		
			<line style="clip-path:url(#SVGID_22_);fill:none;stroke:#000000;stroke-width:0;stroke-miterlimit:1;" x1="131.939" y1="64.914" x2="133.123" y2="66.393"/>
		
			<line style="clip-path:url(#SVGID_22_);fill:none;stroke:#000000;stroke-width:0;stroke-miterlimit:1;" x1="133.123" y1="66.393" x2="131.348" y2="67.872"/>
		
			<line style="clip-path:url(#SVGID_22_);fill:none;stroke:#000000;stroke-width:0;stroke-miterlimit:1;" x1="131.348" y1="67.872" x2="125.727" y2="70.238"/>
		
			<line style="clip-path:url(#SVGID_22_);fill:none;stroke:#000000;stroke-width:0;stroke-miterlimit:1;" x1="125.727" y1="70.238" x2="119.515" y2="71.718"/>
		
			<line style="clip-path:url(#SVGID_22_);fill:none;stroke:#000000;stroke-width:0;stroke-miterlimit:1;" x1="119.515" y1="71.718" x2="110.64" y2="73.492"/>
		
			<line style="clip-path:url(#SVGID_22_);fill:none;stroke:#000000;stroke-width:0;stroke-miterlimit:1;" x1="110.64" y1="73.492" x2="104.427" y2="73.788"/>
	</g>
	<g>
		<defs>
			<polygon id="SVGID_23_" points="7.564,485.366 498.703,485.366 498.703,0 7.564,0 7.564,485.366 			"/>
		</defs>
		<clipPath id="SVGID_24_">
			<use xlink:href="#SVGID_23_"  style="overflow:visible;"/>
		</clipPath>
		
			<line style="clip-path:url(#SVGID_24_);fill:none;stroke:#000000;stroke-width:0;stroke-miterlimit:1;" x1="32.541" y1="57.222" x2="32.246" y2="54.264"/>
		
			<line style="clip-path:url(#SVGID_24_);fill:none;stroke:#000000;stroke-width:0;stroke-miterlimit:1;" x1="32.246" y1="54.264" x2="31.062" y2="51.897"/>
		
			<line style="clip-path:url(#SVGID_24_);fill:none;stroke:#000000;stroke-width:0;stroke-miterlimit:1;" x1="31.062" y1="51.897" x2="27.808" y2="51.306"/>
		
			<line style="clip-path:url(#SVGID_24_);fill:none;stroke:#000000;stroke-width:0;stroke-miterlimit:1;" x1="27.808" y1="51.306" x2="26.033" y2="51.306"/>
		
			<line style="clip-path:url(#SVGID_24_);fill:none;stroke:#000000;stroke-width:0;stroke-miterlimit:1;" x1="26.033" y1="51.306" x2="24.554" y2="52.785"/>
		
			<line style="clip-path:url(#SVGID_24_);fill:none;stroke:#000000;stroke-width:0;stroke-miterlimit:1;" x1="24.554" y1="52.785" x2="23.667" y2="55.151"/>
		
			<line style="clip-path:url(#SVGID_24_);fill:none;stroke:#000000;stroke-width:0;stroke-miterlimit:1;" x1="23.667" y1="55.151" x2="23.667" y2="56.039"/>
	</g>
	<g>
		<defs>
			<polygon id="SVGID_25_" points="7.564,485.366 498.703,485.366 498.703,0 7.564,0 7.564,485.366 			"/>
		</defs>
		<clipPath id="SVGID_26_">
			<use xlink:href="#SVGID_25_"  style="overflow:visible;"/>
		</clipPath>
		
			<line style="clip-path:url(#SVGID_26_);fill:none;stroke:#000000;stroke-width:0;stroke-miterlimit:1;" x1="17.75" y1="56.334" x2="16.566" y2="53.376"/>
		
			<line style="clip-path:url(#SVGID_26_);fill:none;stroke:#000000;stroke-width:0;stroke-miterlimit:1;" x1="16.566" y1="53.376" x2="13.904" y2="51.306"/>
		
			<line style="clip-path:url(#SVGID_26_);fill:none;stroke:#000000;stroke-width:0;stroke-miterlimit:1;" x1="13.904" y1="51.306" x2="10.65" y2="51.306"/>
		
			<line style="clip-path:url(#SVGID_26_);fill:none;stroke:#000000;stroke-width:0;stroke-miterlimit:1;" x1="10.65" y1="51.306" x2="8.875" y2="53.376"/>
		
			<line style="clip-path:url(#SVGID_26_);fill:none;stroke:#000000;stroke-width:0;stroke-miterlimit:1;" x1="8.875" y1="53.376" x2="8.579" y2="55.151"/>
		
			<line style="clip-path:url(#SVGID_26_);fill:none;stroke:#000000;stroke-width:0;stroke-miterlimit:1;" x1="8.579" y1="55.151" x2="8.875" y2="56.926"/>
		
			<line style="clip-path:url(#SVGID_26_);fill:none;stroke:#000000;stroke-width:0;stroke-miterlimit:1;" x1="8.875" y1="56.926" x2="9.763" y2="58.997"/>
	</g>
	<g>
		<defs>
			<polygon id="SVGID_27_" points="7.564,485.366 498.703,485.366 498.703,0 7.564,0 7.564,485.366 			"/>
		</defs>
		<clipPath id="SVGID_28_">
			<use xlink:href="#SVGID_27_"  style="overflow:visible;"/>
		</clipPath>
		
			<line style="clip-path:url(#SVGID_28_);fill:none;stroke:#000000;stroke-width:0;stroke-miterlimit:1;" x1="7.1" y1="62.251" x2="4.438" y2="61.66"/>
		
			<line style="clip-path:url(#SVGID_28_);fill:none;stroke:#000000;stroke-width:0;stroke-miterlimit:1;" x1="4.438" y1="61.66" x2="2.071" y2="62.547"/>
		
			<line style="clip-path:url(#SVGID_28_);fill:none;stroke:#000000;stroke-width:0;stroke-miterlimit:1;" x1="2.071" y1="62.547" x2="1.184" y2="63.139"/>
		
			<line style="clip-path:url(#SVGID_28_);fill:none;stroke:#000000;stroke-width:0;stroke-miterlimit:1;" x1="1.184" y1="63.139" x2="0" y2="65.209"/>
		
			<line style="clip-path:url(#SVGID_28_);fill:none;stroke:#000000;stroke-width:0;stroke-miterlimit:1;" x1="0" y1="65.209" x2="0" y2="67.872"/>
		
			<line style="clip-path:url(#SVGID_28_);fill:none;stroke:#000000;stroke-width:0;stroke-miterlimit:1;" x1="0" y1="67.872" x2="0.888" y2="69.943"/>
		
			<line style="clip-path:url(#SVGID_28_);fill:none;stroke:#000000;stroke-width:0;stroke-miterlimit:1;" x1="0.888" y1="69.943" x2="3.254" y2="70.534"/>
		
			<line style="clip-path:url(#SVGID_28_);fill:none;stroke:#000000;stroke-width:0;stroke-miterlimit:1;" x1="3.254" y1="70.534" x2="6.212" y2="70.83"/>
	</g>
	<g>
		<defs>
			<polygon id="SVGID_29_" points="7.564,485.366 498.703,485.366 498.703,0 7.564,0 7.564,485.366 			"/>
		</defs>
		<clipPath id="SVGID_30_">
			<use xlink:href="#SVGID_29_"  style="overflow:visible;"/>
		</clipPath>
		
			<line style="clip-path:url(#SVGID_30_);fill:none;stroke:#000000;stroke-width:0;stroke-miterlimit:1;" x1="9.763" y1="74.972" x2="9.171" y2="77.338"/>
		
			<line style="clip-path:url(#SVGID_30_);fill:none;stroke:#000000;stroke-width:0;stroke-miterlimit:1;" x1="9.171" y1="77.338" x2="8.875" y2="79.113"/>
		
			<line style="clip-path:url(#SVGID_30_);fill:none;stroke:#000000;stroke-width:0;stroke-miterlimit:1;" x1="8.875" y1="79.113" x2="10.058" y2="81.185"/>
		
			<line style="clip-path:url(#SVGID_30_);fill:none;stroke:#000000;stroke-width:0;stroke-miterlimit:1;" x1="10.058" y1="81.185" x2="12.721" y2="82.367"/>
		
			<line style="clip-path:url(#SVGID_30_);fill:none;stroke:#000000;stroke-width:0;stroke-miterlimit:1;" x1="12.721" y1="82.367" x2="15.087" y2="82.071"/>
		
			<line style="clip-path:url(#SVGID_30_);fill:none;stroke:#000000;stroke-width:0;stroke-miterlimit:1;" x1="15.087" y1="82.071" x2="17.454" y2="80.297"/>
		
			<line style="clip-path:url(#SVGID_30_);fill:none;stroke:#000000;stroke-width:0;stroke-miterlimit:1;" x1="17.454" y1="80.297" x2="18.341" y2="77.93"/>
	</g>
	<g>
		<defs>
			<polygon id="SVGID_31_" points="7.564,485.366 498.703,485.366 498.703,0 7.564,0 7.564,485.366 			"/>
		</defs>
		<clipPath id="SVGID_32_">
			<use xlink:href="#SVGID_31_"  style="overflow:visible;"/>
		</clipPath>
		
			<line style="clip-path:url(#SVGID_32_);fill:none;stroke:#000000;stroke-width:0;stroke-miterlimit:1;" x1="23.962" y1="77.93" x2="25.146" y2="81.479"/>
		
			<line style="clip-path:url(#SVGID_32_);fill:none;stroke:#000000;stroke-width:0;stroke-miterlimit:1;" x1="25.146" y1="81.479" x2="27.216" y2="82.959"/>
		
			<line style="clip-path:url(#SVGID_32_);fill:none;stroke:#000000;stroke-width:0;stroke-miterlimit:1;" x1="27.216" y1="82.959" x2="30.47" y2="82.959"/>
		
			<line style="clip-path:url(#SVGID_32_);fill:none;stroke:#000000;stroke-width:0;stroke-miterlimit:1;" x1="30.47" y1="82.959" x2="32.837" y2="81.185"/>
		
			<line style="clip-path:url(#SVGID_32_);fill:none;stroke:#000000;stroke-width:0;stroke-miterlimit:1;" x1="32.837" y1="81.185" x2="33.429" y2="79.113"/>
		
			<line style="clip-path:url(#SVGID_32_);fill:none;stroke:#000000;stroke-width:0;stroke-miterlimit:1;" x1="33.429" y1="79.113" x2="33.133" y2="76.451"/>
	</g>
	<g>
		<defs>
			<polygon id="SVGID_33_" points="7.564,485.366 498.703,485.366 498.703,0 7.564,0 7.564,485.366 			"/>
		</defs>
		<clipPath id="SVGID_34_">
			<use xlink:href="#SVGID_33_"  style="overflow:visible;"/>
		</clipPath>
		
			<line style="clip-path:url(#SVGID_34_);fill:none;stroke:#000000;stroke-width:0;stroke-miterlimit:1;" x1="38.753" y1="74.084" x2="39.641" y2="76.155"/>
		
			<line style="clip-path:url(#SVGID_34_);fill:none;stroke:#000000;stroke-width:0;stroke-miterlimit:1;" x1="39.641" y1="76.155" x2="41.712" y2="78.521"/>
		
			<line style="clip-path:url(#SVGID_34_);fill:none;stroke:#000000;stroke-width:0;stroke-miterlimit:1;" x1="41.712" y1="78.521" x2="43.783" y2="78.817"/>
	</g>
	<g>
		<defs>
			<polygon id="SVGID_35_" points="7.564,485.366 498.703,485.366 498.703,0 7.564,0 7.564,485.366 			"/>
		</defs>
		<clipPath id="SVGID_36_">
			<use xlink:href="#SVGID_35_"  style="overflow:visible;"/>
		</clipPath>
		
			<line style="clip-path:url(#SVGID_36_);fill:none;stroke:#000000;stroke-width:0;stroke-miterlimit:1;" x1="41.12" y1="64.026" x2="34.908" y2="61.955"/>
		
			<line style="clip-path:url(#SVGID_36_);fill:none;stroke:#000000;stroke-width:0;stroke-miterlimit:1;" x1="34.908" y1="61.955" x2="27.808" y2="60.476"/>
		
			<line style="clip-path:url(#SVGID_36_);fill:none;stroke:#000000;stroke-width:0;stroke-miterlimit:1;" x1="27.808" y1="60.476" x2="20.412" y2="60.18"/>
		
			<line style="clip-path:url(#SVGID_36_);fill:none;stroke:#000000;stroke-width:0;stroke-miterlimit:1;" x1="20.412" y1="60.18" x2="14.792" y2="61.068"/>
		
			<line style="clip-path:url(#SVGID_36_);fill:none;stroke:#000000;stroke-width:0;stroke-miterlimit:1;" x1="14.792" y1="61.068" x2="11.538" y2="62.843"/>
		
			<line style="clip-path:url(#SVGID_36_);fill:none;stroke:#000000;stroke-width:0;stroke-miterlimit:1;" x1="11.538" y1="62.843" x2="9.763" y2="64.914"/>
		
			<line style="clip-path:url(#SVGID_36_);fill:none;stroke:#000000;stroke-width:0;stroke-miterlimit:1;" x1="9.763" y1="64.914" x2="9.467" y2="66.984"/>
		
			<line style="clip-path:url(#SVGID_36_);fill:none;stroke:#000000;stroke-width:0;stroke-miterlimit:1;" x1="9.467" y1="66.984" x2="10.354" y2="69.943"/>
		
			<line style="clip-path:url(#SVGID_36_);fill:none;stroke:#000000;stroke-width:0;stroke-miterlimit:1;" x1="10.354" y1="69.943" x2="11.538" y2="71.422"/>
		
			<line style="clip-path:url(#SVGID_36_);fill:none;stroke:#000000;stroke-width:0;stroke-miterlimit:1;" x1="11.538" y1="71.422" x2="14.2" y2="73.196"/>
		
			<line style="clip-path:url(#SVGID_36_);fill:none;stroke:#000000;stroke-width:0;stroke-miterlimit:1;" x1="14.2" y1="73.196" x2="18.933" y2="74.38"/>
		
			<line style="clip-path:url(#SVGID_36_);fill:none;stroke:#000000;stroke-width:0;stroke-miterlimit:1;" x1="18.933" y1="74.38" x2="26.625" y2="74.084"/>
		
			<line style="clip-path:url(#SVGID_36_);fill:none;stroke:#000000;stroke-width:0;stroke-miterlimit:1;" x1="26.625" y1="74.084" x2="34.612" y2="72.31"/>
		
			<line style="clip-path:url(#SVGID_36_);fill:none;stroke:#000000;stroke-width:0;stroke-miterlimit:1;" x1="34.612" y1="72.31" x2="42.008" y2="69.647"/>
	</g>
	<g>
		<defs>
			<polygon id="SVGID_37_" points="7.564,485.366 498.703,485.366 498.703,0 7.564,0 7.564,485.366 			"/>
		</defs>
		<clipPath id="SVGID_38_">
			<use xlink:href="#SVGID_37_"  style="overflow:visible;"/>
		</clipPath>
		
			<line style="clip-path:url(#SVGID_38_);fill:none;stroke:#000000;stroke-width:0;stroke-miterlimit:1;" x1="229.921" y1="42.431" x2="198.563" y2="42.431"/>
		
			<line style="clip-path:url(#SVGID_38_);fill:none;stroke:#000000;stroke-width:0;stroke-miterlimit:1;" x1="198.563" y1="42.431" x2="183.772" y2="2.494"/>
		
			<line style="clip-path:url(#SVGID_38_);fill:none;stroke:#000000;stroke-width:0;stroke-miterlimit:1;" x1="183.772" y1="2.494" x2="244.713" y2="2.494"/>
		
			<line style="clip-path:url(#SVGID_38_);fill:none;stroke:#000000;stroke-width:0;stroke-miterlimit:1;" x1="244.713" y1="2.494" x2="229.921" y2="42.431"/>
	</g>
</g>
</svg>
