<?xml version="1.0" encoding="iso-8859-1"?>
<!-- Generator: Adobe Illustrator 16.0.1, SVG Export Plug-In . SVG Version: 6.00 Build 0)  -->
<!DOCTYPE svg PUBLIC "-//W3C//DTD SVG 1.1//EN" "http://www.w3.org/Graphics/SVG/1.1/DTD/svg11.dtd">
<svg version="1.1" id="Ebene_1" xmlns="http://www.w3.org/2000/svg" xmlns:xlink="http://www.w3.org/1999/xlink" x="0px" y="0px"
	 width="147.772px" height="148.113px" viewBox="0 0 147.772 148.113" style="enable-background:new 0 0 147.772 148.113;"
	 xml:space="preserve">
<g>
	<line style="fill:none;stroke:#000000;stroke-miterlimit:1;" x1="32.291" y1="57.193" x2="115.481" y2="57.193"/>
	<line style="fill:none;stroke:#000000;stroke-miterlimit:1;" x1="115.481" y1="57.193" x2="115.481" y2="60.477"/>
	<line style="fill:none;stroke:#000000;stroke-miterlimit:1;" x1="115.481" y1="60.477" x2="118.766" y2="61.024"/>
	<line style="fill:none;stroke:#000000;stroke-miterlimit:1;" x1="118.766" y1="61.024" x2="123.965" y2="62.667"/>
	<line style="fill:none;stroke:#000000;stroke-miterlimit:1;" x1="123.965" y1="62.667" x2="127.522" y2="64.855"/>
	<line style="fill:none;stroke:#000000;stroke-miterlimit:1;" x1="127.522" y1="64.855" x2="132.174" y2="68.139"/>
	<line style="fill:none;stroke:#000000;stroke-miterlimit:1;" x1="132.174" y1="68.139" x2="136.279" y2="72.518"/>
	<line style="fill:none;stroke:#000000;stroke-miterlimit:1;" x1="136.279" y1="72.518" x2="140.11" y2="77.717"/>
	<line style="fill:none;stroke:#000000;stroke-miterlimit:1;" x1="140.11" y1="77.717" x2="142.847" y2="82.916"/>
	<line style="fill:none;stroke:#000000;stroke-miterlimit:1;" x1="142.847" y1="82.916" x2="145.31" y2="89.484"/>
	<line style="fill:none;stroke:#000000;stroke-miterlimit:1;" x1="145.31" y1="89.484" x2="146.951" y2="96.053"/>
	<line style="fill:none;stroke:#000000;stroke-miterlimit:1;" x1="146.951" y1="96.053" x2="147.772" y2="106.998"/>
	<line style="fill:none;stroke:#000000;stroke-miterlimit:1;" x1="147.772" y1="106.998" x2="146.951" y2="112.744"/>
	<line style="fill:none;stroke:#000000;stroke-miterlimit:1;" x1="146.951" y1="112.744" x2="144.488" y2="119.312"/>
	<line style="fill:none;stroke:#000000;stroke-miterlimit:1;" x1="144.488" y1="119.312" x2="141.479" y2="122.322"/>
	<line style="fill:none;stroke:#000000;stroke-miterlimit:1;" x1="141.479" y1="122.322" x2="139.016" y2="122.869"/>
	<line style="fill:none;stroke:#000000;stroke-miterlimit:1;" x1="139.016" y1="122.869" x2="135.185" y2="122.596"/>
	<line style="fill:none;stroke:#000000;stroke-miterlimit:1;" x1="135.185" y1="122.596" x2="132.174" y2="120.133"/>
	<line style="fill:none;stroke:#000000;stroke-miterlimit:1;" x1="132.174" y1="120.133" x2="130.806" y2="117.123"/>
	<line style="fill:none;stroke:#000000;stroke-miterlimit:1;" x1="130.806" y1="117.123" x2="130.259" y2="113.84"/>
	<line style="fill:none;stroke:#000000;stroke-miterlimit:1;" x1="130.259" y1="113.84" x2="129.985" y2="111.377"/>
	<line style="fill:none;stroke:#000000;stroke-miterlimit:1;" x1="129.985" y1="111.377" x2="130.806" y2="102.893"/>
	<line style="fill:none;stroke:#000000;stroke-miterlimit:1;" x1="130.806" y1="102.893" x2="131.9" y2="93.59"/>
	<line style="fill:none;stroke:#000000;stroke-miterlimit:1;" x1="131.9" y1="93.59" x2="131.079" y2="84.012"/>
	<line style="fill:none;stroke:#000000;stroke-miterlimit:1;" x1="131.079" y1="84.012" x2="128.616" y2="77.17"/>
	<line style="fill:none;stroke:#000000;stroke-miterlimit:1;" x1="128.616" y1="77.17" x2="125.06" y2="71.697"/>
	<line style="fill:none;stroke:#000000;stroke-miterlimit:1;" x1="125.06" y1="71.697" x2="121.502" y2="67.592"/>
	<line style="fill:none;stroke:#000000;stroke-miterlimit:1;" x1="121.502" y1="67.592" x2="117.396" y2="65.95"/>
	<line style="fill:none;stroke:#000000;stroke-miterlimit:1;" x1="117.396" y1="65.95" x2="115.481" y2="65.95"/>
	<line style="fill:none;stroke:#000000;stroke-miterlimit:1;" x1="115.481" y1="65.95" x2="115.481" y2="68.96"/>
	<line style="fill:none;stroke:#000000;stroke-miterlimit:1;" x1="115.481" y1="68.96" x2="104.535" y2="68.96"/>
	<line style="fill:none;stroke:#000000;stroke-miterlimit:1;" x1="104.535" y1="68.96" x2="104.535" y2="74.707"/>
	<line style="fill:none;stroke:#000000;stroke-miterlimit:1;" x1="104.535" y1="74.707" x2="88.39" y2="74.707"/>
	<line style="fill:none;stroke:#000000;stroke-miterlimit:1;" x1="88.39" y1="74.707" x2="88.39" y2="68.96"/>
	<line style="fill:none;stroke:#000000;stroke-miterlimit:1;" x1="88.39" y1="68.96" x2="58.835" y2="68.96"/>
	<line style="fill:none;stroke:#000000;stroke-miterlimit:1;" x1="58.835" y1="68.96" x2="58.835" y2="74.707"/>
	<line style="fill:none;stroke:#000000;stroke-miterlimit:1;" x1="58.835" y1="74.707" x2="43.237" y2="74.707"/>
	<line style="fill:none;stroke:#000000;stroke-miterlimit:1;" x1="43.237" y1="74.707" x2="43.237" y2="68.96"/>
	<line style="fill:none;stroke:#000000;stroke-miterlimit:1;" x1="43.237" y1="68.96" x2="32.291" y2="68.96"/>
	<line style="fill:none;stroke:#000000;stroke-miterlimit:1;" x1="37.217" y1="57.193" x2="47.889" y2="4.926"/>
	<line style="fill:none;stroke:#000000;stroke-miterlimit:1;" x1="47.889" y1="4.926" x2="49.805" y2="1.642"/>
	<line style="fill:none;stroke:#000000;stroke-miterlimit:1;" x1="49.805" y1="1.642" x2="51.173" y2="0.547"/>
	<line style="fill:none;stroke:#000000;stroke-miterlimit:1;" x1="51.173" y1="0.547" x2="52.815" y2="0"/>
	<line style="fill:none;stroke:#000000;stroke-miterlimit:1;" x1="52.815" y1="0" x2="55.278" y2="0"/>
	<line style="fill:none;stroke:#000000;stroke-miterlimit:1;" x1="55.278" y1="0" x2="57.741" y2="1.368"/>
	<line style="fill:none;stroke:#000000;stroke-miterlimit:1;" x1="57.741" y1="1.368" x2="58.288" y2="3.01"/>
	<line style="fill:none;stroke:#000000;stroke-miterlimit:1;" x1="58.288" y1="3.01" x2="58.288" y2="4.926"/>
	<line style="fill:none;stroke:#000000;stroke-miterlimit:1;" x1="47.616" y1="57.193" x2="58.562" y2="4.652"/>
	<line style="fill:none;stroke:#000000;stroke-miterlimit:1;" x1="58.562" y1="4.652" x2="59.93" y2="2.189"/>
	<line style="fill:none;stroke:#000000;stroke-miterlimit:1;" x1="59.93" y1="2.189" x2="61.298" y2="0.821"/>
	<line style="fill:none;stroke:#000000;stroke-miterlimit:1;" x1="61.298" y1="0.821" x2="63.761" y2="0.273"/>
	<line style="fill:none;stroke:#000000;stroke-miterlimit:1;" x1="63.761" y1="0.273" x2="66.224" y2="1.095"/>
	<line style="fill:none;stroke:#000000;stroke-miterlimit:1;" x1="66.224" y1="1.095" x2="67.592" y2="2.189"/>
	<line style="fill:none;stroke:#000000;stroke-miterlimit:1;" x1="67.592" y1="2.189" x2="68.413" y2="3.831"/>
	<line style="fill:none;stroke:#000000;stroke-miterlimit:1;" x1="57.467" y1="57.193" x2="68.14" y2="4.926"/>
	<line style="fill:none;stroke:#000000;stroke-miterlimit:1;" x1="68.14" y1="4.926" x2="69.234" y2="2.463"/>
	<line style="fill:none;stroke:#000000;stroke-miterlimit:1;" x1="69.234" y1="2.463" x2="71.15" y2="0.821"/>
	<line style="fill:none;stroke:#000000;stroke-miterlimit:1;" x1="71.15" y1="0.821" x2="73.339" y2="0.547"/>
	<line style="fill:none;stroke:#000000;stroke-miterlimit:1;" x1="73.339" y1="0.547" x2="75.802" y2="0.821"/>
	<line style="fill:none;stroke:#000000;stroke-miterlimit:1;" x1="75.802" y1="0.821" x2="77.718" y2="2.463"/>
	<line style="fill:none;stroke:#000000;stroke-miterlimit:1;" x1="77.718" y1="2.463" x2="78.265" y2="4.652"/>
	<line style="fill:none;stroke:#000000;stroke-miterlimit:1;" x1="67.318" y1="57.193" x2="77.991" y2="5.473"/>
	<line style="fill:none;stroke:#000000;stroke-miterlimit:1;" x1="77.991" y1="5.473" x2="79.633" y2="2.463"/>
	<line style="fill:none;stroke:#000000;stroke-miterlimit:1;" x1="79.633" y1="2.463" x2="81.549" y2="0.821"/>
	<line style="fill:none;stroke:#000000;stroke-miterlimit:1;" x1="81.549" y1="0.821" x2="84.832" y2="0.547"/>
	<line style="fill:none;stroke:#000000;stroke-miterlimit:1;" x1="84.832" y1="0.547" x2="85.927" y2="0.821"/>
	<line style="fill:none;stroke:#000000;stroke-miterlimit:1;" x1="85.927" y1="0.821" x2="87.568" y2="1.916"/>
	<line style="fill:none;stroke:#000000;stroke-miterlimit:1;" x1="87.568" y1="1.916" x2="88.39" y2="4.652"/>
	<line style="fill:none;stroke:#000000;stroke-miterlimit:1;" x1="77.718" y1="57.193" x2="88.116" y2="5.747"/>
	<line style="fill:none;stroke:#000000;stroke-miterlimit:1;" x1="88.116" y1="5.747" x2="89.211" y2="3.01"/>
	<line style="fill:none;stroke:#000000;stroke-miterlimit:1;" x1="89.211" y1="3.01" x2="90.306" y2="1.368"/>
	<line style="fill:none;stroke:#000000;stroke-miterlimit:1;" x1="90.306" y1="1.368" x2="92.769" y2="0.273"/>
	<line style="fill:none;stroke:#000000;stroke-miterlimit:1;" x1="92.769" y1="0.273" x2="95.778" y2="0.821"/>
	<line style="fill:none;stroke:#000000;stroke-miterlimit:1;" x1="95.778" y1="0.821" x2="97.968" y2="2.189"/>
	<line style="fill:none;stroke:#000000;stroke-miterlimit:1;" x1="97.968" y1="2.189" x2="98.788" y2="4.104"/>
	<line style="fill:none;stroke:#000000;stroke-miterlimit:1;" x1="88.39" y1="57.193" x2="98.241" y2="6.02"/>
	<line style="fill:none;stroke:#000000;stroke-miterlimit:1;" x1="98.241" y1="6.02" x2="99.062" y2="3.284"/>
	<line style="fill:none;stroke:#000000;stroke-miterlimit:1;" x1="99.062" y1="3.284" x2="100.704" y2="1.095"/>
	<line style="fill:none;stroke:#000000;stroke-miterlimit:1;" x1="100.704" y1="1.095" x2="103.44" y2="0.547"/>
	<line style="fill:none;stroke:#000000;stroke-miterlimit:1;" x1="103.44" y1="0.547" x2="103.988" y2="0.273"/>
	<line style="fill:none;stroke:#000000;stroke-miterlimit:1;" x1="103.988" y1="0.273" x2="106.451" y2="1.368"/>
	<line style="fill:none;stroke:#000000;stroke-miterlimit:1;" x1="106.451" y1="1.368" x2="108.093" y2="3.01"/>
	<line style="fill:none;stroke:#000000;stroke-miterlimit:1;" x1="108.093" y1="3.01" x2="108.093" y2="4.652"/>
	<line style="fill:none;stroke:#000000;stroke-miterlimit:1;" x1="97.694" y1="57.193" x2="108.093" y2="4.378"/>
	<line style="fill:none;stroke:#000000;stroke-miterlimit:1;" x1="108.093" y1="4.378" x2="109.188" y2="2.189"/>
	<line style="fill:none;stroke:#000000;stroke-miterlimit:1;" x1="109.188" y1="2.189" x2="110.556" y2="0.821"/>
	<line style="fill:none;stroke:#000000;stroke-miterlimit:1;" x1="110.556" y1="0.821" x2="112.197" y2="0.547"/>
	<line style="fill:none;stroke:#000000;stroke-miterlimit:1;" x1="112.197" y1="0.547" x2="114.66" y2="0.547"/>
	<line style="fill:none;stroke:#000000;stroke-miterlimit:1;" x1="114.66" y1="0.547" x2="116.85" y2="1.368"/>
	<line style="fill:none;stroke:#000000;stroke-miterlimit:1;" x1="116.85" y1="1.368" x2="117.944" y2="3.01"/>
	<line style="fill:none;stroke:#000000;stroke-miterlimit:1;" x1="117.944" y1="3.01" x2="118.491" y2="5.747"/>
	<line style="fill:none;stroke:#000000;stroke-miterlimit:1;" x1="118.491" y1="5.747" x2="107.819" y2="57.193"/>
	<line style="fill:none;stroke:#000000;stroke-miterlimit:1;" x1="107.819" y1="57.193" x2="32.291" y2="57.193"/>
	<line style="fill:none;stroke:#000000;stroke-miterlimit:1;" x1="32.291" y1="57.193" x2="32.291" y2="60.75"/>
	<line style="fill:none;stroke:#000000;stroke-miterlimit:1;" x1="32.291" y1="60.75" x2="28.46" y2="61.298"/>
	<line style="fill:none;stroke:#000000;stroke-miterlimit:1;" x1="28.46" y1="61.298" x2="23.261" y2="62.94"/>
	<line style="fill:none;stroke:#000000;stroke-miterlimit:1;" x1="23.261" y1="62.94" x2="19.429" y2="65.129"/>
	<line style="fill:none;stroke:#000000;stroke-miterlimit:1;" x1="19.429" y1="65.129" x2="15.051" y2="68.687"/>
	<line style="fill:none;stroke:#000000;stroke-miterlimit:1;" x1="15.051" y1="68.687" x2="10.946" y2="73.065"/>
	<line style="fill:none;stroke:#000000;stroke-miterlimit:1;" x1="10.946" y1="73.065" x2="4.652" y2="83.738"/>
	<line style="fill:none;stroke:#000000;stroke-miterlimit:1;" x1="4.652" y1="83.738" x2="2.737" y2="90.031"/>
	<line style="fill:none;stroke:#000000;stroke-miterlimit:1;" x1="2.737" y1="90.031" x2="0.821" y2="96.6"/>
	<line style="fill:none;stroke:#000000;stroke-miterlimit:1;" x1="0.821" y1="96.6" x2="0" y2="107.545"/>
	<line style="fill:none;stroke:#000000;stroke-miterlimit:1;" x1="0" y1="107.545" x2="0.821" y2="113.291"/>
	<line style="fill:none;stroke:#000000;stroke-miterlimit:1;" x1="0.821" y1="113.291" x2="3.558" y2="119.586"/>
	<line style="fill:none;stroke:#000000;stroke-miterlimit:1;" x1="3.558" y1="119.586" x2="6.568" y2="122.596"/>
	<line style="fill:none;stroke:#000000;stroke-miterlimit:1;" x1="6.568" y1="122.596" x2="8.757" y2="123.143"/>
	<line style="fill:none;stroke:#000000;stroke-miterlimit:1;" x1="8.757" y1="123.143" x2="12.588" y2="122.869"/>
	<line style="fill:none;stroke:#000000;stroke-miterlimit:1;" x1="12.588" y1="122.869" x2="15.872" y2="120.406"/>
	<line style="fill:none;stroke:#000000;stroke-miterlimit:1;" x1="15.872" y1="120.406" x2="16.966" y2="117.396"/>
	<line style="fill:none;stroke:#000000;stroke-miterlimit:1;" x1="16.966" y1="117.396" x2="17.514" y2="114.113"/>
	<line style="fill:none;stroke:#000000;stroke-miterlimit:1;" x1="17.514" y1="114.113" x2="17.788" y2="111.65"/>
	<line style="fill:none;stroke:#000000;stroke-miterlimit:1;" x1="17.788" y1="111.65" x2="16.966" y2="103.166"/>
	<line style="fill:none;stroke:#000000;stroke-miterlimit:1;" x1="16.966" y1="103.166" x2="15.598" y2="93.863"/>
	<line style="fill:none;stroke:#000000;stroke-miterlimit:1;" x1="15.598" y1="93.863" x2="16.419" y2="84.559"/>
	<line style="fill:none;stroke:#000000;stroke-miterlimit:1;" x1="16.419" y1="84.559" x2="18.608" y2="77.717"/>
	<line style="fill:none;stroke:#000000;stroke-miterlimit:1;" x1="18.608" y1="77.717" x2="22.166" y2="71.97"/>
	<line style="fill:none;stroke:#000000;stroke-miterlimit:1;" x1="22.166" y1="71.97" x2="25.724" y2="67.866"/>
	<line style="fill:none;stroke:#000000;stroke-miterlimit:1;" x1="25.724" y1="67.866" x2="29.555" y2="66.224"/>
	<line style="fill:none;stroke:#000000;stroke-miterlimit:1;" x1="29.555" y1="66.224" x2="32.291" y2="65.95"/>
	<line style="fill:none;stroke:#000000;stroke-miterlimit:1;" x1="32.291" y1="65.95" x2="32.291" y2="68.413"/>
	<line style="fill:none;stroke:#000000;stroke-miterlimit:1;" x1="74.502" y1="103.234" x2="71.766" y2="103.234"/>
	<line style="fill:none;stroke:#000000;stroke-miterlimit:1;" x1="71.766" y1="103.234" x2="67.661" y2="104.057"/>
	<line style="fill:none;stroke:#000000;stroke-miterlimit:1;" x1="67.661" y1="104.057" x2="63.83" y2="104.877"/>
	<line style="fill:none;stroke:#000000;stroke-miterlimit:1;" x1="63.83" y1="104.877" x2="61.367" y2="105.973"/>
	<line style="fill:none;stroke:#000000;stroke-miterlimit:1;" x1="61.367" y1="105.973" x2="58.904" y2="107.613"/>
	<line style="fill:none;stroke:#000000;stroke-miterlimit:1;" x1="58.904" y1="107.613" x2="56.441" y2="109.256"/>
	<line style="fill:none;stroke:#000000;stroke-miterlimit:1;" x1="56.441" y1="109.256" x2="53.978" y2="111.992"/>
	<line style="fill:none;stroke:#000000;stroke-miterlimit:1;" x1="53.978" y1="111.992" x2="52.062" y2="115.002"/>
	<line style="fill:none;stroke:#000000;stroke-miterlimit:1;" x1="52.062" y1="115.002" x2="50.694" y2="118.285"/>
	<line style="fill:none;stroke:#000000;stroke-miterlimit:1;" x1="50.694" y1="118.285" x2="49.873" y2="122.391"/>
	<line style="fill:none;stroke:#000000;stroke-miterlimit:1;" x1="49.873" y1="122.391" x2="49.6" y2="126.77"/>
	<line style="fill:none;stroke:#000000;stroke-miterlimit:1;" x1="49.6" y1="126.77" x2="49.873" y2="129.779"/>
	<line style="fill:none;stroke:#000000;stroke-miterlimit:1;" x1="49.873" y1="129.779" x2="50.968" y2="133.611"/>
	<line style="fill:none;stroke:#000000;stroke-miterlimit:1;" x1="50.968" y1="133.611" x2="52.61" y2="137.441"/>
	<line style="fill:none;stroke:#000000;stroke-miterlimit:1;" x1="52.61" y1="137.441" x2="54.799" y2="141"/>
	<line style="fill:none;stroke:#000000;stroke-miterlimit:1;" x1="54.799" y1="141" x2="57.809" y2="143.736"/>
	<line style="fill:none;stroke:#000000;stroke-miterlimit:1;" x1="57.809" y1="143.736" x2="60.272" y2="145.104"/>
	<line style="fill:none;stroke:#000000;stroke-miterlimit:1;" x1="60.272" y1="145.104" x2="63.008" y2="146.473"/>
	<line style="fill:none;stroke:#000000;stroke-miterlimit:1;" x1="63.008" y1="146.473" x2="65.471" y2="147.293"/>
	<line style="fill:none;stroke:#000000;stroke-miterlimit:1;" x1="65.471" y1="147.293" x2="68.208" y2="147.566"/>
	<line style="fill:none;stroke:#000000;stroke-miterlimit:1;" x1="68.208" y1="147.566" x2="74.229" y2="148.113"/>
	<line style="fill:none;stroke:#000000;stroke-miterlimit:1;" x1="74.229" y1="148.113" x2="78.06" y2="147.84"/>
	<line style="fill:none;stroke:#000000;stroke-miterlimit:1;" x1="78.06" y1="147.84" x2="81.891" y2="147.293"/>
	<line style="fill:none;stroke:#000000;stroke-miterlimit:1;" x1="81.891" y1="147.293" x2="85.175" y2="146.473"/>
	<line style="fill:none;stroke:#000000;stroke-miterlimit:1;" x1="85.175" y1="146.473" x2="87.363" y2="145.65"/>
	<line style="fill:none;stroke:#000000;stroke-miterlimit:1;" x1="87.363" y1="145.65" x2="89.279" y2="144.283"/>
	<line style="fill:none;stroke:#000000;stroke-miterlimit:1;" x1="89.279" y1="144.283" x2="90.921" y2="143.188"/>
	<line style="fill:none;stroke:#000000;stroke-miterlimit:1;" x1="90.921" y1="143.188" x2="92.837" y2="141.547"/>
	<line style="fill:none;stroke:#000000;stroke-miterlimit:1;" x1="92.837" y1="141.547" x2="94.479" y2="139.357"/>
	<line style="fill:none;stroke:#000000;stroke-miterlimit:1;" x1="94.479" y1="139.357" x2="96.12" y2="136.895"/>
	<line style="fill:none;stroke:#000000;stroke-miterlimit:1;" x1="96.12" y1="136.895" x2="96.668" y2="135.252"/>
	<line style="fill:none;stroke:#000000;stroke-miterlimit:1;" x1="96.668" y1="135.252" x2="97.488" y2="133.611"/>
	<line style="fill:none;stroke:#000000;stroke-miterlimit:1;" x1="97.488" y1="133.611" x2="98.036" y2="131.695"/>
	<line style="fill:none;stroke:#000000;stroke-miterlimit:1;" x1="98.036" y1="131.695" x2="98.31" y2="129.506"/>
	<line style="fill:none;stroke:#000000;stroke-miterlimit:1;" x1="98.31" y1="129.506" x2="98.857" y2="126.223"/>
	<line style="fill:none;stroke:#000000;stroke-miterlimit:1;" x1="98.857" y1="126.223" x2="98.583" y2="123.76"/>
	<line style="fill:none;stroke:#000000;stroke-miterlimit:1;" x1="98.583" y1="123.76" x2="98.31" y2="121.023"/>
	<line style="fill:none;stroke:#000000;stroke-miterlimit:1;" x1="98.31" y1="121.023" x2="97.215" y2="117.738"/>
	<line style="fill:none;stroke:#000000;stroke-miterlimit:1;" x1="97.215" y1="117.738" x2="95.847" y2="114.182"/>
	<line style="fill:none;stroke:#000000;stroke-miterlimit:1;" x1="95.847" y1="114.182" x2="93.932" y2="111.992"/>
	<line style="fill:none;stroke:#000000;stroke-miterlimit:1;" x1="93.932" y1="111.992" x2="91.194" y2="109.256"/>
	<line style="fill:none;stroke:#000000;stroke-miterlimit:1;" x1="91.194" y1="109.256" x2="89.006" y2="107.613"/>
	<line style="fill:none;stroke:#000000;stroke-miterlimit:1;" x1="89.006" y1="107.613" x2="86.816" y2="105.973"/>
	<line style="fill:none;stroke:#000000;stroke-miterlimit:1;" x1="86.816" y1="105.973" x2="82.438" y2="104.33"/>
	<line style="fill:none;stroke:#000000;stroke-miterlimit:1;" x1="82.438" y1="104.33" x2="78.606" y2="103.51"/>
	<line style="fill:none;stroke:#000000;stroke-miterlimit:1;" x1="78.606" y1="103.51" x2="74.775" y2="103.234"/>
	<line style="fill:none;stroke:#000000;stroke-miterlimit:1;" x1="62.735" y1="105.424" x2="60.546" y2="105.424"/>
	<line style="fill:none;stroke:#000000;stroke-miterlimit:1;" x1="60.546" y1="105.424" x2="59.725" y2="104.604"/>
	<line style="fill:none;stroke:#000000;stroke-miterlimit:1;" x1="59.725" y1="104.604" x2="59.177" y2="103.783"/>
	<line style="fill:none;stroke:#000000;stroke-miterlimit:1;" x1="59.177" y1="103.783" x2="58.904" y2="102.141"/>
	<line style="fill:none;stroke:#000000;stroke-miterlimit:1;" x1="58.904" y1="102.141" x2="59.177" y2="100.498"/>
	<line style="fill:none;stroke:#000000;stroke-miterlimit:1;" x1="59.177" y1="100.498" x2="59.999" y2="99.404"/>
	<line style="fill:none;stroke:#000000;stroke-miterlimit:1;" x1="59.999" y1="99.404" x2="61.367" y2="98.857"/>
	<line style="fill:none;stroke:#000000;stroke-miterlimit:1;" x1="61.367" y1="98.857" x2="87.09" y2="98.857"/>
	<line style="fill:none;stroke:#000000;stroke-miterlimit:1;" x1="87.09" y1="98.857" x2="88.185" y2="99.404"/>
	<line style="fill:none;stroke:#000000;stroke-miterlimit:1;" x1="88.185" y1="99.404" x2="89.006" y2="100.498"/>
	<line style="fill:none;stroke:#000000;stroke-miterlimit:1;" x1="89.006" y1="100.498" x2="89.279" y2="101.867"/>
	<line style="fill:none;stroke:#000000;stroke-miterlimit:1;" x1="89.279" y1="101.867" x2="89.279" y2="102.688"/>
	<line style="fill:none;stroke:#000000;stroke-miterlimit:1;" x1="89.279" y1="102.688" x2="89.006" y2="103.783"/>
	<line style="fill:none;stroke:#000000;stroke-miterlimit:1;" x1="89.006" y1="103.783" x2="88.458" y2="104.604"/>
	<line style="fill:none;stroke:#000000;stroke-miterlimit:1;" x1="88.458" y1="104.604" x2="87.363" y2="105.424"/>
	<line style="fill:none;stroke:#000000;stroke-miterlimit:1;" x1="87.363" y1="105.424" x2="85.175" y2="105.424"/>
</g>
</svg>
