<?xml version="1.0" encoding="iso-8859-1"?>
<!-- Generator: Adobe Illustrator 16.0.1, SVG Export Plug-In . SVG Version: 6.00 Build 0)  -->
<!DOCTYPE svg PUBLIC "-//W3C//DTD SVG 1.1//EN" "http://www.w3.org/Graphics/SVG/1.1/DTD/svg11.dtd">
<svg version="1.1" id="Ebene_1" xmlns="http://www.w3.org/2000/svg" xmlns:xlink="http://www.w3.org/1999/xlink" x="0px" y="0px"
	 width="575.236px" height="497.916px" viewBox="0 0 575.236 497.916" style="enable-background:new 0 0 575.236 497.916;"
	 xml:space="preserve">
<g>
	<g>
		<defs>
			<polygon id="SVGID_1_" points="181.979,448.021 575.236,448.021 575.236,78.878 181.979,78.878 181.979,448.021 			"/>
		</defs>
		<clipPath id="SVGID_2_">
			<use xlink:href="#SVGID_1_"  style="overflow:visible;"/>
		</clipPath>
		
			<line style="clip-path:url(#SVGID_2_);fill:none;stroke:#000000;stroke-width:0;stroke-miterlimit:1;" x1="185.065" y1="81.964" x2="258.584" y2="135.528"/>
		
			<line style="clip-path:url(#SVGID_2_);fill:none;stroke:#000000;stroke-width:0;stroke-miterlimit:1;" x1="258.584" y1="135.528" x2="273.289" y2="123.975"/>
		
			<line style="clip-path:url(#SVGID_2_);fill:none;stroke:#000000;stroke-width:0;stroke-miterlimit:1;" x1="273.289" y1="123.975" x2="276.439" y2="123.45"/>
		
			<line style="clip-path:url(#SVGID_2_);fill:none;stroke:#000000;stroke-width:0;stroke-miterlimit:1;" x1="276.439" y1="123.45" x2="279.328" y2="123.45"/>
		
			<line style="clip-path:url(#SVGID_2_);fill:none;stroke:#000000;stroke-width:0;stroke-miterlimit:1;" x1="279.328" y1="123.45" x2="310.311" y2="134.478"/>
		
			<line style="clip-path:url(#SVGID_2_);fill:none;stroke:#000000;stroke-width:0;stroke-miterlimit:1;" x1="310.311" y1="134.478" x2="311.887" y2="133.427"/>
		
			<line style="clip-path:url(#SVGID_2_);fill:none;stroke:#000000;stroke-width:0;stroke-miterlimit:1;" x1="311.887" y1="133.427" x2="312.936" y2="131.852"/>
		
			<line style="clip-path:url(#SVGID_2_);fill:none;stroke:#000000;stroke-width:0;stroke-miterlimit:1;" x1="312.936" y1="131.852" x2="312.674" y2="129.489"/>
		
			<line style="clip-path:url(#SVGID_2_);fill:none;stroke:#000000;stroke-width:0;stroke-miterlimit:1;" x1="312.674" y1="129.489" x2="185.065" y2="81.964"/>
	</g>
	<g>
		<defs>
			<polygon id="SVGID_3_" points="0,448.021 575.236,448.021 575.236,0 0,0 0,448.021 			"/>
		</defs>
		<clipPath id="SVGID_4_">
			<use xlink:href="#SVGID_3_"  style="overflow:visible;"/>
		</clipPath>
		
			<line style="clip-path:url(#SVGID_4_);fill:none;stroke:#000000;stroke-width:0;stroke-miterlimit:1;" x1="67.576" y1="38.585" x2="61.068" y2="37.993"/>
		
			<line style="clip-path:url(#SVGID_4_);fill:none;stroke:#000000;stroke-width:0;stroke-miterlimit:1;" x1="61.068" y1="37.993" x2="50.714" y2="38.585"/>
		
			<line style="clip-path:url(#SVGID_4_);fill:none;stroke:#000000;stroke-width:0;stroke-miterlimit:1;" x1="50.714" y1="38.585" x2="43.022" y2="37.697"/>
		
			<line style="clip-path:url(#SVGID_4_);fill:none;stroke:#000000;stroke-width:0;stroke-miterlimit:1;" x1="43.022" y1="37.697" x2="40.656" y2="38.585"/>
		
			<line style="clip-path:url(#SVGID_4_);fill:none;stroke:#000000;stroke-width:0;stroke-miterlimit:1;" x1="40.656" y1="38.585" x2="38.881" y2="40.952"/>
		
			<line style="clip-path:url(#SVGID_4_);fill:none;stroke:#000000;stroke-width:0;stroke-miterlimit:1;" x1="38.881" y1="40.952" x2="39.473" y2="45.093"/>
		
			<line style="clip-path:url(#SVGID_4_);fill:none;stroke:#000000;stroke-width:0;stroke-miterlimit:1;" x1="39.473" y1="45.093" x2="42.431" y2="54.56"/>
		
			<line style="clip-path:url(#SVGID_4_);fill:none;stroke:#000000;stroke-width:0;stroke-miterlimit:1;" x1="42.431" y1="54.56" x2="48.052" y2="63.73"/>
		
			<line style="clip-path:url(#SVGID_4_);fill:none;stroke:#000000;stroke-width:0;stroke-miterlimit:1;" x1="48.052" y1="63.73" x2="66.393" y2="85.622"/>
		
			<line style="clip-path:url(#SVGID_4_);fill:none;stroke:#000000;stroke-width:0;stroke-miterlimit:1;" x1="66.393" y1="85.622" x2="75.859" y2="94.497"/>
		
			<line style="clip-path:url(#SVGID_4_);fill:none;stroke:#000000;stroke-width:0;stroke-miterlimit:1;" x1="75.859" y1="94.497" x2="89.468" y2="107.217"/>
		
			<line style="clip-path:url(#SVGID_4_);fill:none;stroke:#000000;stroke-width:0;stroke-miterlimit:1;" x1="89.468" y1="107.217" x2="118.458" y2="135.617"/>
		
			<line style="clip-path:url(#SVGID_4_);fill:none;stroke:#000000;stroke-width:0;stroke-miterlimit:1;" x1="118.458" y1="135.617" x2="121.417" y2="135.617"/>
		
			<line style="clip-path:url(#SVGID_4_);fill:none;stroke:#000000;stroke-width:0;stroke-miterlimit:1;" x1="121.417" y1="135.617" x2="122.305" y2="134.137"/>
		
			<line style="clip-path:url(#SVGID_4_);fill:none;stroke:#000000;stroke-width:0;stroke-miterlimit:1;" x1="122.305" y1="134.137" x2="121.121" y2="131.475"/>
		
			<line style="clip-path:url(#SVGID_4_);fill:none;stroke:#000000;stroke-width:0;stroke-miterlimit:1;" x1="121.121" y1="131.475" x2="108.696" y2="103.076"/>
		
			<line style="clip-path:url(#SVGID_4_);fill:none;stroke:#000000;stroke-width:0;stroke-miterlimit:1;" x1="108.696" y1="103.076" x2="106.921" y2="97.75"/>
		
			<line style="clip-path:url(#SVGID_4_);fill:none;stroke:#000000;stroke-width:0;stroke-miterlimit:1;" x1="106.921" y1="97.75" x2="97.455" y2="74.972"/>
		
			<line style="clip-path:url(#SVGID_4_);fill:none;stroke:#000000;stroke-width:0;stroke-miterlimit:1;" x1="97.455" y1="74.972" x2="88.876" y2="60.18"/>
		
			<line style="clip-path:url(#SVGID_4_);fill:none;stroke:#000000;stroke-width:0;stroke-miterlimit:1;" x1="88.876" y1="60.18" x2="82.072" y2="50.714"/>
		
			<line style="clip-path:url(#SVGID_4_);fill:none;stroke:#000000;stroke-width:0;stroke-miterlimit:1;" x1="82.072" y1="50.714" x2="77.043" y2="43.91"/>
		
			<line style="clip-path:url(#SVGID_4_);fill:none;stroke:#000000;stroke-width:0;stroke-miterlimit:1;" x1="77.043" y1="43.91" x2="72.901" y2="37.402"/>
		
			<line style="clip-path:url(#SVGID_4_);fill:none;stroke:#000000;stroke-width:0;stroke-miterlimit:1;" x1="72.901" y1="37.402" x2="68.464" y2="31.485"/>
		
			<line style="clip-path:url(#SVGID_4_);fill:none;stroke:#000000;stroke-width:0;stroke-miterlimit:1;" x1="68.464" y1="31.485" x2="63.139" y2="25.272"/>
		
			<line style="clip-path:url(#SVGID_4_);fill:none;stroke:#000000;stroke-width:0;stroke-miterlimit:1;" x1="63.139" y1="25.272" x2="57.814" y2="21.723"/>
		
			<line style="clip-path:url(#SVGID_4_);fill:none;stroke:#000000;stroke-width:0;stroke-miterlimit:1;" x1="57.814" y1="21.723" x2="56.335" y2="15.51"/>
		
			<line style="clip-path:url(#SVGID_4_);fill:none;stroke:#000000;stroke-width:0;stroke-miterlimit:1;" x1="56.335" y1="15.51" x2="55.151" y2="8.707"/>
		
			<line style="clip-path:url(#SVGID_4_);fill:none;stroke:#000000;stroke-width:0;stroke-miterlimit:1;" x1="55.151" y1="8.707" x2="53.376" y2="4.269"/>
		
			<line style="clip-path:url(#SVGID_4_);fill:none;stroke:#000000;stroke-width:0;stroke-miterlimit:1;" x1="53.376" y1="4.269" x2="48.348" y2="3.085"/>
		
			<line style="clip-path:url(#SVGID_4_);fill:none;stroke:#000000;stroke-width:0;stroke-miterlimit:1;" x1="48.348" y1="3.085" x2="40.064" y2="3.085"/>
		
			<line style="clip-path:url(#SVGID_4_);fill:none;stroke:#000000;stroke-width:0;stroke-miterlimit:1;" x1="40.064" y1="3.085" x2="30.894" y2="3.381"/>
		
			<line style="clip-path:url(#SVGID_4_);fill:none;stroke:#000000;stroke-width:0;stroke-miterlimit:1;" x1="30.894" y1="3.381" x2="26.456" y2="4.565"/>
		
			<line style="clip-path:url(#SVGID_4_);fill:none;stroke:#000000;stroke-width:0;stroke-miterlimit:1;" x1="26.456" y1="4.565" x2="24.385" y2="5.156"/>
		
			<line style="clip-path:url(#SVGID_4_);fill:none;stroke:#000000;stroke-width:0;stroke-miterlimit:1;" x1="24.385" y1="5.156" x2="9.298" y2="7.227"/>
		
			<line style="clip-path:url(#SVGID_4_);fill:none;stroke:#000000;stroke-width:0;stroke-miterlimit:1;" x1="9.298" y1="7.227" x2="4.861" y2="9.298"/>
		
			<line style="clip-path:url(#SVGID_4_);fill:none;stroke:#000000;stroke-width:0;stroke-miterlimit:1;" x1="4.861" y1="9.298" x2="3.382" y2="11.369"/>
		
			<line style="clip-path:url(#SVGID_4_);fill:none;stroke:#000000;stroke-width:0;stroke-miterlimit:1;" x1="3.382" y1="11.369" x2="3.086" y2="15.51"/>
		
			<line style="clip-path:url(#SVGID_4_);fill:none;stroke:#000000;stroke-width:0;stroke-miterlimit:1;" x1="3.086" y1="15.51" x2="4.861" y2="12.552"/>
		
			<line style="clip-path:url(#SVGID_4_);fill:none;stroke:#000000;stroke-width:0;stroke-miterlimit:1;" x1="4.861" y1="12.552" x2="7.819" y2="11.073"/>
		
			<line style="clip-path:url(#SVGID_4_);fill:none;stroke:#000000;stroke-width:0;stroke-miterlimit:1;" x1="7.819" y1="11.073" x2="16.694" y2="11.073"/>
		
			<line style="clip-path:url(#SVGID_4_);fill:none;stroke:#000000;stroke-width:0;stroke-miterlimit:1;" x1="16.694" y1="11.073" x2="25.865" y2="11.369"/>
		
			<line style="clip-path:url(#SVGID_4_);fill:none;stroke:#000000;stroke-width:0;stroke-miterlimit:1;" x1="25.865" y1="11.369" x2="30.598" y2="12.552"/>
		
			<line style="clip-path:url(#SVGID_4_);fill:none;stroke:#000000;stroke-width:0;stroke-miterlimit:1;" x1="30.598" y1="12.552" x2="26.752" y2="7.819"/>
		
			<line style="clip-path:url(#SVGID_4_);fill:none;stroke:#000000;stroke-width:0;stroke-miterlimit:1;" x1="26.752" y1="7.819" x2="25.865" y2="4.565"/>
	</g>
	<g>
		<defs>
			<polygon id="SVGID_5_" points="0,448.021 575.236,448.021 575.236,0 0,0 0,448.021 			"/>
		</defs>
		<clipPath id="SVGID_6_">
			<use xlink:href="#SVGID_5_"  style="overflow:visible;"/>
		</clipPath>
		
			<line style="clip-path:url(#SVGID_6_);fill:none;stroke:#000000;stroke-width:0;stroke-miterlimit:1;" x1="35.627" y1="10.777" x2="36.514" y2="10.481"/>
		
			<line style="clip-path:url(#SVGID_6_);fill:none;stroke:#000000;stroke-width:0;stroke-miterlimit:1;" x1="36.514" y1="10.481" x2="37.106" y2="9.002"/>
		
			<line style="clip-path:url(#SVGID_6_);fill:none;stroke:#000000;stroke-width:0;stroke-miterlimit:1;" x1="37.106" y1="9.002" x2="36.514" y2="7.523"/>
		
			<line style="clip-path:url(#SVGID_6_);fill:none;stroke:#000000;stroke-width:0;stroke-miterlimit:1;" x1="36.514" y1="7.523" x2="35.331" y2="6.635"/>
		
			<line style="clip-path:url(#SVGID_6_);fill:none;stroke:#000000;stroke-width:0;stroke-miterlimit:1;" x1="35.331" y1="6.635" x2="34.148" y2="7.523"/>
		
			<line style="clip-path:url(#SVGID_6_);fill:none;stroke:#000000;stroke-width:0;stroke-miterlimit:1;" x1="34.148" y1="7.523" x2="33.852" y2="9.298"/>
		
			<line style="clip-path:url(#SVGID_6_);fill:none;stroke:#000000;stroke-width:0;stroke-miterlimit:1;" x1="33.852" y1="9.298" x2="34.443" y2="10.186"/>
		
			<line style="clip-path:url(#SVGID_6_);fill:none;stroke:#000000;stroke-width:0;stroke-miterlimit:1;" x1="34.443" y1="10.186" x2="35.331" y2="10.777"/>
	</g>
	<g>
		<defs>
			<polygon id="SVGID_7_" points="0,448.021 575.236,448.021 575.236,0 0,0 0,448.021 			"/>
		</defs>
		<clipPath id="SVGID_8_">
			<use xlink:href="#SVGID_7_"  style="overflow:visible;"/>
		</clipPath>
		
			<line style="clip-path:url(#SVGID_8_);fill:none;stroke:#000000;stroke-width:0;stroke-miterlimit:1;" x1="4.565" y1="13.735" x2="16.398" y2="13.439"/>
		
			<line style="clip-path:url(#SVGID_8_);fill:none;stroke:#000000;stroke-width:0;stroke-miterlimit:1;" x1="16.398" y1="13.439" x2="25.569" y2="14.623"/>
		
			<line style="clip-path:url(#SVGID_8_);fill:none;stroke:#000000;stroke-width:0;stroke-miterlimit:1;" x1="25.569" y1="14.623" x2="28.231" y2="16.102"/>
		
			<line style="clip-path:url(#SVGID_8_);fill:none;stroke:#000000;stroke-width:0;stroke-miterlimit:1;" x1="28.231" y1="16.102" x2="29.119" y2="19.06"/>
		
			<line style="clip-path:url(#SVGID_8_);fill:none;stroke:#000000;stroke-width:0;stroke-miterlimit:1;" x1="29.119" y1="19.06" x2="29.415" y2="22.314"/>
		
			<line style="clip-path:url(#SVGID_8_);fill:none;stroke:#000000;stroke-width:0;stroke-miterlimit:1;" x1="29.415" y1="22.314" x2="26.752" y2="28.823"/>
		
			<line style="clip-path:url(#SVGID_8_);fill:none;stroke:#000000;stroke-width:0;stroke-miterlimit:1;" x1="26.752" y1="28.823" x2="25.569" y2="36.81"/>
		
			<line style="clip-path:url(#SVGID_8_);fill:none;stroke:#000000;stroke-width:0;stroke-miterlimit:1;" x1="25.569" y1="36.81" x2="27.048" y2="46.572"/>
		
			<line style="clip-path:url(#SVGID_8_);fill:none;stroke:#000000;stroke-width:0;stroke-miterlimit:1;" x1="27.048" y1="46.572" x2="28.231" y2="51.01"/>
		
			<line style="clip-path:url(#SVGID_8_);fill:none;stroke:#000000;stroke-width:0;stroke-miterlimit:1;" x1="28.231" y1="51.01" x2="31.485" y2="59.884"/>
		
			<line style="clip-path:url(#SVGID_8_);fill:none;stroke:#000000;stroke-width:0;stroke-miterlimit:1;" x1="31.485" y1="59.884" x2="35.331" y2="66.984"/>
		
			<line style="clip-path:url(#SVGID_8_);fill:none;stroke:#000000;stroke-width:0;stroke-miterlimit:1;" x1="35.331" y1="66.984" x2="44.501" y2="82.664"/>
		
			<line style="clip-path:url(#SVGID_8_);fill:none;stroke:#000000;stroke-width:0;stroke-miterlimit:1;" x1="44.501" y1="82.664" x2="56.631" y2="105.738"/>
		
			<line style="clip-path:url(#SVGID_8_);fill:none;stroke:#000000;stroke-width:0;stroke-miterlimit:1;" x1="56.631" y1="105.738" x2="57.814" y2="114.613"/>
		
			<line style="clip-path:url(#SVGID_8_);fill:none;stroke:#000000;stroke-width:0;stroke-miterlimit:1;" x1="57.814" y1="114.613" x2="56.335" y2="129.7"/>
		
			<line style="clip-path:url(#SVGID_8_);fill:none;stroke:#000000;stroke-width:0;stroke-miterlimit:1;" x1="56.335" y1="129.7" x2="54.855" y2="131.179"/>
		
			<line style="clip-path:url(#SVGID_8_);fill:none;stroke:#000000;stroke-width:0;stroke-miterlimit:1;" x1="54.855" y1="131.179" x2="46.277" y2="132.067"/>
		
			<line style="clip-path:url(#SVGID_8_);fill:none;stroke:#000000;stroke-width:0;stroke-miterlimit:1;" x1="46.277" y1="132.067" x2="36.219" y2="131.771"/>
		
			<line style="clip-path:url(#SVGID_8_);fill:none;stroke:#000000;stroke-width:0;stroke-miterlimit:1;" x1="36.219" y1="131.771" x2="35.627" y2="133.25"/>
		
			<line style="clip-path:url(#SVGID_8_);fill:none;stroke:#000000;stroke-width:0;stroke-miterlimit:1;" x1="35.627" y1="133.25" x2="31.189" y2="133.841"/>
		
			<line style="clip-path:url(#SVGID_8_);fill:none;stroke:#000000;stroke-width:0;stroke-miterlimit:1;" x1="31.189" y1="133.841" x2="30.598" y2="134.729"/>
		
			<line style="clip-path:url(#SVGID_8_);fill:none;stroke:#000000;stroke-width:0;stroke-miterlimit:1;" x1="30.598" y1="134.729" x2="31.485" y2="135.913"/>
		
			<line style="clip-path:url(#SVGID_8_);fill:none;stroke:#000000;stroke-width:0;stroke-miterlimit:1;" x1="31.485" y1="135.913" x2="56.926" y2="135.025"/>
		
			<line style="clip-path:url(#SVGID_8_);fill:none;stroke:#000000;stroke-width:0;stroke-miterlimit:1;" x1="56.926" y1="135.025" x2="83.255" y2="136.208"/>
		
			<line style="clip-path:url(#SVGID_8_);fill:none;stroke:#000000;stroke-width:0;stroke-miterlimit:1;" x1="83.255" y1="136.208" x2="84.438" y2="135.025"/>
		
			<line style="clip-path:url(#SVGID_8_);fill:none;stroke:#000000;stroke-width:0;stroke-miterlimit:1;" x1="84.438" y1="135.025" x2="83.847" y2="133.545"/>
		
			<line style="clip-path:url(#SVGID_8_);fill:none;stroke:#000000;stroke-width:0;stroke-miterlimit:1;" x1="83.847" y1="133.545" x2="79.705" y2="133.545"/>
		
			<line style="clip-path:url(#SVGID_8_);fill:none;stroke:#000000;stroke-width:0;stroke-miterlimit:1;" x1="79.705" y1="133.545" x2="77.338" y2="131.475"/>
		
			<line style="clip-path:url(#SVGID_8_);fill:none;stroke:#000000;stroke-width:0;stroke-miterlimit:1;" x1="77.338" y1="131.475" x2="62.251" y2="131.179"/>
		
			<line style="clip-path:url(#SVGID_8_);fill:none;stroke:#000000;stroke-width:0;stroke-miterlimit:1;" x1="62.251" y1="131.179" x2="60.477" y2="129.996"/>
		
			<line style="clip-path:url(#SVGID_8_);fill:none;stroke:#000000;stroke-width:0;stroke-miterlimit:1;" x1="60.477" y1="129.996" x2="62.251" y2="111.359"/>
		
			<line style="clip-path:url(#SVGID_8_);fill:none;stroke:#000000;stroke-width:0;stroke-miterlimit:1;" x1="62.251" y1="111.359" x2="73.197" y2="116.979"/>
		
			<line style="clip-path:url(#SVGID_8_);fill:none;stroke:#000000;stroke-width:0;stroke-miterlimit:1;" x1="73.197" y1="116.979" x2="79.41" y2="98.638"/>
		
			<line style="clip-path:url(#SVGID_8_);fill:none;stroke:#000000;stroke-width:0;stroke-miterlimit:1;" x1="79.41" y1="98.638" x2="91.243" y2="128.221"/>
		
			<line style="clip-path:url(#SVGID_8_);fill:none;stroke:#000000;stroke-width:0;stroke-miterlimit:1;" x1="91.243" y1="128.221" x2="95.384" y2="133.545"/>
		
			<line style="clip-path:url(#SVGID_8_);fill:none;stroke:#000000;stroke-width:0;stroke-miterlimit:1;" x1="95.384" y1="133.545" x2="99.526" y2="135.913"/>
		
			<line style="clip-path:url(#SVGID_8_);fill:none;stroke:#000000;stroke-width:0;stroke-miterlimit:1;" x1="99.526" y1="135.913" x2="105.738" y2="135.913"/>
		
			<line style="clip-path:url(#SVGID_8_);fill:none;stroke:#000000;stroke-width:0;stroke-miterlimit:1;" x1="105.738" y1="135.913" x2="109.288" y2="134.729"/>
		
			<line style="clip-path:url(#SVGID_8_);fill:none;stroke:#000000;stroke-width:0;stroke-miterlimit:1;" x1="109.288" y1="134.729" x2="110.176" y2="132.954"/>
		
			<line style="clip-path:url(#SVGID_8_);fill:none;stroke:#000000;stroke-width:0;stroke-miterlimit:1;" x1="110.176" y1="132.954" x2="107.217" y2="124.966"/>
	</g>
	<g>
		<defs>
			<polygon id="SVGID_9_" points="0,448.021 575.236,448.021 575.236,0 0,0 0,448.021 			"/>
		</defs>
		<clipPath id="SVGID_10_">
			<use xlink:href="#SVGID_9_"  style="overflow:visible;"/>
		</clipPath>
		
			<line style="clip-path:url(#SVGID_10_);fill:none;stroke:#000000;stroke-width:0;stroke-miterlimit:1;" x1="33.852" y1="64.914" x2="37.698" y2="86.509"/>
		
			<line style="clip-path:url(#SVGID_10_);fill:none;stroke:#000000;stroke-width:0;stroke-miterlimit:1;" x1="37.698" y1="86.509" x2="37.402" y2="103.076"/>
		
			<line style="clip-path:url(#SVGID_10_);fill:none;stroke:#000000;stroke-width:0;stroke-miterlimit:1;" x1="37.402" y1="103.076" x2="34.443" y2="119.938"/>
		
			<line style="clip-path:url(#SVGID_10_);fill:none;stroke:#000000;stroke-width:0;stroke-miterlimit:1;" x1="34.443" y1="119.938" x2="31.781" y2="128.517"/>
		
			<line style="clip-path:url(#SVGID_10_);fill:none;stroke:#000000;stroke-width:0;stroke-miterlimit:1;" x1="31.781" y1="128.517" x2="30.006" y2="130.587"/>
		
			<line style="clip-path:url(#SVGID_10_);fill:none;stroke:#000000;stroke-width:0;stroke-miterlimit:1;" x1="30.006" y1="130.587" x2="15.806" y2="131.475"/>
		
			<line style="clip-path:url(#SVGID_10_);fill:none;stroke:#000000;stroke-width:0;stroke-miterlimit:1;" x1="15.806" y1="131.475" x2="14.327" y2="133.545"/>
		
			<line style="clip-path:url(#SVGID_10_);fill:none;stroke:#000000;stroke-width:0;stroke-miterlimit:1;" x1="14.327" y1="133.545" x2="11.073" y2="133.841"/>
		
			<line style="clip-path:url(#SVGID_10_);fill:none;stroke:#000000;stroke-width:0;stroke-miterlimit:1;" x1="11.073" y1="133.841" x2="9.89" y2="134.729"/>
		
			<line style="clip-path:url(#SVGID_10_);fill:none;stroke:#000000;stroke-width:0;stroke-miterlimit:1;" x1="9.89" y1="134.729" x2="11.073" y2="135.913"/>
		
			<line style="clip-path:url(#SVGID_10_);fill:none;stroke:#000000;stroke-width:0;stroke-miterlimit:1;" x1="11.073" y1="135.913" x2="22.019" y2="135.025"/>
		
			<line style="clip-path:url(#SVGID_10_);fill:none;stroke:#000000;stroke-width:0;stroke-miterlimit:1;" x1="22.019" y1="135.025" x2="25.273" y2="135.321"/>
	</g>
	<g>
		<defs>
			<polygon id="SVGID_11_" points="0,448.021 575.236,448.021 575.236,0 0,0 0,448.021 			"/>
		</defs>
		<clipPath id="SVGID_12_">
			<use xlink:href="#SVGID_11_"  style="overflow:visible;"/>
		</clipPath>
		
			<line style="clip-path:url(#SVGID_12_);fill:none;stroke:#000000;stroke-width:0;stroke-miterlimit:1;" x1="35.923" y1="131.771" x2="30.894" y2="132.363"/>
		
			<line style="clip-path:url(#SVGID_12_);fill:none;stroke:#000000;stroke-width:0;stroke-miterlimit:1;" x1="30.894" y1="132.363" x2="30.894" y2="132.363"/>
		
			<line style="clip-path:url(#SVGID_12_);fill:none;stroke:#000000;stroke-width:0;stroke-miterlimit:1;" x1="30.894" y1="132.363" x2="27.936" y2="132.954"/>
		
			<line style="clip-path:url(#SVGID_12_);fill:none;stroke:#000000;stroke-width:0;stroke-miterlimit:1;" x1="27.936" y1="132.954" x2="26.16" y2="135.321"/>
		
			<line style="clip-path:url(#SVGID_12_);fill:none;stroke:#000000;stroke-width:0;stroke-miterlimit:1;" x1="26.16" y1="135.321" x2="27.344" y2="135.913"/>
		
			<line style="clip-path:url(#SVGID_12_);fill:none;stroke:#000000;stroke-width:0;stroke-miterlimit:1;" x1="27.344" y1="135.913" x2="29.119" y2="134.137"/>
		
			<line style="clip-path:url(#SVGID_12_);fill:none;stroke:#000000;stroke-width:0;stroke-miterlimit:1;" x1="29.119" y1="134.137" x2="30.894" y2="133.841"/>
	</g>
	<g>
		<defs>
			<polygon id="SVGID_13_" points="0,448.021 575.236,448.021 575.236,0 0,0 0,448.021 			"/>
		</defs>
		<clipPath id="SVGID_14_">
			<use xlink:href="#SVGID_13_"  style="overflow:visible;"/>
		</clipPath>
		
			<line style="clip-path:url(#SVGID_14_);fill:none;stroke:#000000;stroke-width:0;stroke-miterlimit:1;" x1="35.627" y1="131.475" x2="42.135" y2="107.217"/>
		
			<line style="clip-path:url(#SVGID_14_);fill:none;stroke:#000000;stroke-width:0;stroke-miterlimit:1;" x1="42.135" y1="107.217" x2="52.193" y2="113.133"/>
		
			<line style="clip-path:url(#SVGID_14_);fill:none;stroke:#000000;stroke-width:0;stroke-miterlimit:1;" x1="52.193" y1="113.133" x2="54.264" y2="102.188"/>
	</g>
	<g>
		<defs>
			<polygon id="SVGID_15_" points="0,448.021 575.236,448.021 575.236,0 0,0 0,448.021 			"/>
		</defs>
		<clipPath id="SVGID_16_">
			<use xlink:href="#SVGID_15_"  style="overflow:visible;"/>
		</clipPath>
		
			<line style="clip-path:url(#SVGID_16_);fill:none;stroke:#000000;stroke-width:0;stroke-miterlimit:1;" x1="14.919" y1="131.771" x2="10.186" y2="132.363"/>
		
			<line style="clip-path:url(#SVGID_16_);fill:none;stroke:#000000;stroke-width:0;stroke-miterlimit:1;" x1="10.186" y1="132.363" x2="10.186" y2="132.363"/>
		
			<line style="clip-path:url(#SVGID_16_);fill:none;stroke:#000000;stroke-width:0;stroke-miterlimit:1;" x1="10.186" y1="132.363" x2="7.228" y2="132.954"/>
		
			<line style="clip-path:url(#SVGID_16_);fill:none;stroke:#000000;stroke-width:0;stroke-miterlimit:1;" x1="7.228" y1="132.954" x2="5.453" y2="135.321"/>
		
			<line style="clip-path:url(#SVGID_16_);fill:none;stroke:#000000;stroke-width:0;stroke-miterlimit:1;" x1="5.453" y1="135.321" x2="6.34" y2="135.913"/>
		
			<line style="clip-path:url(#SVGID_16_);fill:none;stroke:#000000;stroke-width:0;stroke-miterlimit:1;" x1="6.34" y1="135.913" x2="8.411" y2="134.137"/>
		
			<line style="clip-path:url(#SVGID_16_);fill:none;stroke:#000000;stroke-width:0;stroke-miterlimit:1;" x1="8.411" y1="134.137" x2="10.777" y2="133.841"/>
	</g>
	<g>
		<defs>
			<polygon id="SVGID_17_" points="0,497.916 575.236,497.916 575.236,0 0,0 0,497.916 			"/>
		</defs>
		<clipPath id="SVGID_18_">
			<use xlink:href="#SVGID_17_"  style="overflow:visible;"/>
		</clipPath>
		
			<line style="clip-path:url(#SVGID_18_);fill:none;stroke:#000000;stroke-width:0;stroke-miterlimit:1;" x1="77.93" y1="131.475" x2="83.551" y2="132.067"/>
		
			<line style="clip-path:url(#SVGID_18_);fill:none;stroke:#000000;stroke-width:0;stroke-miterlimit:1;" x1="83.551" y1="132.067" x2="86.213" y2="132.954"/>
		
			<line style="clip-path:url(#SVGID_18_);fill:none;stroke:#000000;stroke-width:0;stroke-miterlimit:1;" x1="86.213" y1="132.954" x2="87.988" y2="135.321"/>
		
			<line style="clip-path:url(#SVGID_18_);fill:none;stroke:#000000;stroke-width:0;stroke-miterlimit:1;" x1="87.988" y1="135.321" x2="87.101" y2="135.913"/>
		
			<line style="clip-path:url(#SVGID_18_);fill:none;stroke:#000000;stroke-width:0;stroke-miterlimit:1;" x1="87.101" y1="135.913" x2="85.03" y2="134.137"/>
		
			<line style="clip-path:url(#SVGID_18_);fill:none;stroke:#000000;stroke-width:0;stroke-miterlimit:1;" x1="85.03" y1="134.137" x2="83.551" y2="133.841"/>
	</g>
	<g>
		<defs>
			<polygon id="SVGID_19_" points="0,497.916 575.236,497.916 575.236,0 0,0 0,497.916 			"/>
		</defs>
		<clipPath id="SVGID_20_">
			<use xlink:href="#SVGID_19_"  style="overflow:visible;"/>
		</clipPath>
		
			<line style="clip-path:url(#SVGID_20_);fill:none;stroke:#000000;stroke-width:0;stroke-miterlimit:1;" x1="236.18" y1="20.262" x2="211.626" y2="12.274"/>
		
			<line style="clip-path:url(#SVGID_20_);fill:none;stroke:#000000;stroke-width:0;stroke-miterlimit:1;" x1="211.626" y1="12.274" x2="206.597" y2="11.091"/>
		
			<line style="clip-path:url(#SVGID_20_);fill:none;stroke:#000000;stroke-width:0;stroke-miterlimit:1;" x1="206.597" y1="11.091" x2="201.273" y2="10.499"/>
		
			<line style="clip-path:url(#SVGID_20_);fill:none;stroke:#000000;stroke-width:0;stroke-miterlimit:1;" x1="201.273" y1="10.499" x2="192.102" y2="11.387"/>
		
			<line style="clip-path:url(#SVGID_20_);fill:none;stroke:#000000;stroke-width:0;stroke-miterlimit:1;" x1="192.102" y1="11.387" x2="189.144" y2="12.866"/>
		
			<line style="clip-path:url(#SVGID_20_);fill:none;stroke:#000000;stroke-width:0;stroke-miterlimit:1;" x1="189.144" y1="12.866" x2="186.185" y2="15.232"/>
		
			<line style="clip-path:url(#SVGID_20_);fill:none;stroke:#000000;stroke-width:0;stroke-miterlimit:1;" x1="186.185" y1="15.232" x2="184.115" y2="19.374"/>
		
			<line style="clip-path:url(#SVGID_20_);fill:none;stroke:#000000;stroke-width:0;stroke-miterlimit:1;" x1="184.115" y1="19.374" x2="184.115" y2="22.037"/>
		
			<line style="clip-path:url(#SVGID_20_);fill:none;stroke:#000000;stroke-width:0;stroke-miterlimit:1;" x1="184.115" y1="22.037" x2="185.002" y2="25.586"/>
		
			<line style="clip-path:url(#SVGID_20_);fill:none;stroke:#000000;stroke-width:0;stroke-miterlimit:1;" x1="185.002" y1="25.586" x2="186.777" y2="27.657"/>
		
			<line style="clip-path:url(#SVGID_20_);fill:none;stroke:#000000;stroke-width:0;stroke-miterlimit:1;" x1="186.777" y1="27.657" x2="188.552" y2="29.432"/>
		
			<line style="clip-path:url(#SVGID_20_);fill:none;stroke:#000000;stroke-width:0;stroke-miterlimit:1;" x1="188.552" y1="29.432" x2="193.286" y2="31.207"/>
		
			<line style="clip-path:url(#SVGID_20_);fill:none;stroke:#000000;stroke-width:0;stroke-miterlimit:1;" x1="193.286" y1="31.207" x2="198.906" y2="32.095"/>
		
			<line style="clip-path:url(#SVGID_20_);fill:none;stroke:#000000;stroke-width:0;stroke-miterlimit:1;" x1="198.906" y1="32.095" x2="205.71" y2="31.503"/>
		
			<line style="clip-path:url(#SVGID_20_);fill:none;stroke:#000000;stroke-width:0;stroke-miterlimit:1;" x1="205.71" y1="31.503" x2="211.331" y2="30.024"/>
		
			<line style="clip-path:url(#SVGID_20_);fill:none;stroke:#000000;stroke-width:0;stroke-miterlimit:1;" x1="211.331" y1="30.024" x2="236.18" y2="20.557"/>
	</g>
	<g>
		<defs>
			<polygon id="SVGID_21_" points="0,497.916 575.236,497.916 575.236,0 0,0 0,497.916 			"/>
		</defs>
		<clipPath id="SVGID_22_">
			<use xlink:href="#SVGID_21_"  style="overflow:visible;"/>
		</clipPath>
		
			<line style="clip-path:url(#SVGID_22_);fill:none;stroke:#000000;stroke-width:0;stroke-miterlimit:1;" x1="229.376" y1="17.599" x2="234.998" y2="17.895"/>
		
			<line style="clip-path:url(#SVGID_22_);fill:none;stroke:#000000;stroke-width:0;stroke-miterlimit:1;" x1="234.998" y1="17.895" x2="242.985" y2="16.12"/>
		
			<line style="clip-path:url(#SVGID_22_);fill:none;stroke:#000000;stroke-width:0;stroke-miterlimit:1;" x1="242.985" y1="16.12" x2="253.93" y2="14.049"/>
		
			<line style="clip-path:url(#SVGID_22_);fill:none;stroke:#000000;stroke-width:0;stroke-miterlimit:1;" x1="253.93" y1="14.049" x2="265.467" y2="13.162"/>
		
			<line style="clip-path:url(#SVGID_22_);fill:none;stroke:#000000;stroke-width:0;stroke-miterlimit:1;" x1="265.467" y1="13.162" x2="278.484" y2="13.162"/>
		
			<line style="clip-path:url(#SVGID_22_);fill:none;stroke:#000000;stroke-width:0;stroke-miterlimit:1;" x1="278.484" y1="13.162" x2="289.133" y2="14.049"/>
		
			<line style="clip-path:url(#SVGID_22_);fill:none;stroke:#000000;stroke-width:0;stroke-miterlimit:1;" x1="289.133" y1="14.049" x2="296.234" y2="15.232"/>
		
			<line style="clip-path:url(#SVGID_22_);fill:none;stroke:#000000;stroke-width:0;stroke-miterlimit:1;" x1="296.234" y1="15.232" x2="303.629" y2="17.303"/>
		
			<line style="clip-path:url(#SVGID_22_);fill:none;stroke:#000000;stroke-width:0;stroke-miterlimit:1;" x1="303.629" y1="17.303" x2="307.475" y2="19.078"/>
		
			<line style="clip-path:url(#SVGID_22_);fill:none;stroke:#000000;stroke-width:0;stroke-miterlimit:1;" x1="307.475" y1="19.078" x2="308.363" y2="20.557"/>
		
			<line style="clip-path:url(#SVGID_22_);fill:none;stroke:#000000;stroke-width:0;stroke-miterlimit:1;" x1="308.363" y1="20.557" x2="306.883" y2="22.037"/>
		
			<line style="clip-path:url(#SVGID_22_);fill:none;stroke:#000000;stroke-width:0;stroke-miterlimit:1;" x1="306.883" y1="22.037" x2="301.262" y2="24.107"/>
		
			<line style="clip-path:url(#SVGID_22_);fill:none;stroke:#000000;stroke-width:0;stroke-miterlimit:1;" x1="301.262" y1="24.107" x2="295.346" y2="25.586"/>
		
			<line style="clip-path:url(#SVGID_22_);fill:none;stroke:#000000;stroke-width:0;stroke-miterlimit:1;" x1="295.346" y1="25.586" x2="286.471" y2="27.361"/>
		
			<line style="clip-path:url(#SVGID_22_);fill:none;stroke:#000000;stroke-width:0;stroke-miterlimit:1;" x1="286.471" y1="27.361" x2="278.484" y2="27.953"/>
		
			<line style="clip-path:url(#SVGID_22_);fill:none;stroke:#000000;stroke-width:0;stroke-miterlimit:1;" x1="278.484" y1="27.953" x2="265.763" y2="27.953"/>
		
			<line style="clip-path:url(#SVGID_22_);fill:none;stroke:#000000;stroke-width:0;stroke-miterlimit:1;" x1="265.763" y1="27.953" x2="253.634" y2="26.474"/>
		
			<line style="clip-path:url(#SVGID_22_);fill:none;stroke:#000000;stroke-width:0;stroke-miterlimit:1;" x1="253.634" y1="26.474" x2="245.055" y2="24.699"/>
		
			<line style="clip-path:url(#SVGID_22_);fill:none;stroke:#000000;stroke-width:0;stroke-miterlimit:1;" x1="245.055" y1="24.699" x2="235.884" y2="23.22"/>
		
			<line style="clip-path:url(#SVGID_22_);fill:none;stroke:#000000;stroke-width:0;stroke-miterlimit:1;" x1="235.884" y1="23.22" x2="229.081" y2="23.516"/>
	</g>
	<g>
		<defs>
			<polygon id="SVGID_23_" points="0,497.916 575.236,497.916 575.236,0 0,0 0,497.916 			"/>
		</defs>
		<clipPath id="SVGID_24_">
			<use xlink:href="#SVGID_23_"  style="overflow:visible;"/>
		</clipPath>
		
			<line style="clip-path:url(#SVGID_24_);fill:none;stroke:#000000;stroke-width:0;stroke-miterlimit:1;" x1="224.347" y1="16.416" x2="224.643" y2="14.641"/>
		
			<line style="clip-path:url(#SVGID_24_);fill:none;stroke:#000000;stroke-width:0;stroke-miterlimit:1;" x1="224.643" y1="14.641" x2="224.051" y2="11.091"/>
		
			<line style="clip-path:url(#SVGID_24_);fill:none;stroke:#000000;stroke-width:0;stroke-miterlimit:1;" x1="224.051" y1="11.091" x2="221.685" y2="9.316"/>
		
			<line style="clip-path:url(#SVGID_24_);fill:none;stroke:#000000;stroke-width:0;stroke-miterlimit:1;" x1="221.685" y1="9.316" x2="218.726" y2="9.612"/>
		
			<line style="clip-path:url(#SVGID_24_);fill:none;stroke:#000000;stroke-width:0;stroke-miterlimit:1;" x1="218.726" y1="9.612" x2="216.656" y2="11.091"/>
		
			<line style="clip-path:url(#SVGID_24_);fill:none;stroke:#000000;stroke-width:0;stroke-miterlimit:1;" x1="216.656" y1="11.091" x2="216.064" y2="13.458"/>
	</g>
	<g>
		<defs>
			<polygon id="SVGID_25_" points="0,497.916 575.236,497.916 575.236,0 0,0 0,497.916 			"/>
		</defs>
		<clipPath id="SVGID_26_">
			<use xlink:href="#SVGID_25_"  style="overflow:visible;"/>
		</clipPath>
		
			<line style="clip-path:url(#SVGID_26_);fill:none;stroke:#000000;stroke-width:0;stroke-miterlimit:1;" x1="210.443" y1="11.683" x2="210.148" y2="8.724"/>
		
			<line style="clip-path:url(#SVGID_26_);fill:none;stroke:#000000;stroke-width:0;stroke-miterlimit:1;" x1="210.148" y1="8.724" x2="208.964" y2="6.357"/>
		
			<line style="clip-path:url(#SVGID_26_);fill:none;stroke:#000000;stroke-width:0;stroke-miterlimit:1;" x1="208.964" y1="6.357" x2="205.71" y2="5.766"/>
		
			<line style="clip-path:url(#SVGID_26_);fill:none;stroke:#000000;stroke-width:0;stroke-miterlimit:1;" x1="205.71" y1="5.766" x2="204.231" y2="5.766"/>
		
			<line style="clip-path:url(#SVGID_26_);fill:none;stroke:#000000;stroke-width:0;stroke-miterlimit:1;" x1="204.231" y1="5.766" x2="202.751" y2="7.245"/>
		
			<line style="clip-path:url(#SVGID_26_);fill:none;stroke:#000000;stroke-width:0;stroke-miterlimit:1;" x1="202.751" y1="7.245" x2="201.569" y2="9.612"/>
		
			<line style="clip-path:url(#SVGID_26_);fill:none;stroke:#000000;stroke-width:0;stroke-miterlimit:1;" x1="201.569" y1="9.612" x2="201.569" y2="10.499"/>
	</g>
	<g>
		<defs>
			<polygon id="SVGID_27_" points="0,497.916 575.236,497.916 575.236,0 0,0 0,497.916 			"/>
		</defs>
		<clipPath id="SVGID_28_">
			<use xlink:href="#SVGID_27_"  style="overflow:visible;"/>
		</clipPath>
		
			<line style="clip-path:url(#SVGID_28_);fill:none;stroke:#000000;stroke-width:0;stroke-miterlimit:1;" x1="195.948" y1="10.795" x2="194.764" y2="7.837"/>
		
			<line style="clip-path:url(#SVGID_28_);fill:none;stroke:#000000;stroke-width:0;stroke-miterlimit:1;" x1="194.764" y1="7.837" x2="192.102" y2="5.766"/>
		
			<line style="clip-path:url(#SVGID_28_);fill:none;stroke:#000000;stroke-width:0;stroke-miterlimit:1;" x1="192.102" y1="5.766" x2="189.144" y2="6.062"/>
		
			<line style="clip-path:url(#SVGID_28_);fill:none;stroke:#000000;stroke-width:0;stroke-miterlimit:1;" x1="189.144" y1="6.062" x2="187.369" y2="7.837"/>
		
			<line style="clip-path:url(#SVGID_28_);fill:none;stroke:#000000;stroke-width:0;stroke-miterlimit:1;" x1="187.369" y1="7.837" x2="187.073" y2="9.908"/>
		
			<line style="clip-path:url(#SVGID_28_);fill:none;stroke:#000000;stroke-width:0;stroke-miterlimit:1;" x1="187.073" y1="9.908" x2="187.369" y2="11.387"/>
		
			<line style="clip-path:url(#SVGID_28_);fill:none;stroke:#000000;stroke-width:0;stroke-miterlimit:1;" x1="187.369" y1="11.387" x2="188.256" y2="13.458"/>
	</g>
	<g>
		<defs>
			<polygon id="SVGID_29_" points="0,497.916 575.236,497.916 575.236,0 0,0 0,497.916 			"/>
		</defs>
		<clipPath id="SVGID_30_">
			<use xlink:href="#SVGID_29_"  style="overflow:visible;"/>
		</clipPath>
		
			<line style="clip-path:url(#SVGID_30_);fill:none;stroke:#000000;stroke-width:0;stroke-miterlimit:1;" x1="185.594" y1="16.416" x2="183.227" y2="16.12"/>
		
			<line style="clip-path:url(#SVGID_30_);fill:none;stroke:#000000;stroke-width:0;stroke-miterlimit:1;" x1="183.227" y1="16.12" x2="180.861" y2="16.711"/>
		
			<line style="clip-path:url(#SVGID_30_);fill:none;stroke:#000000;stroke-width:0;stroke-miterlimit:1;" x1="180.861" y1="16.711" x2="179.973" y2="17.599"/>
		
			<line style="clip-path:url(#SVGID_30_);fill:none;stroke:#000000;stroke-width:0;stroke-miterlimit:1;" x1="179.973" y1="17.599" x2="178.79" y2="19.374"/>
		
			<line style="clip-path:url(#SVGID_30_);fill:none;stroke:#000000;stroke-width:0;stroke-miterlimit:1;" x1="178.79" y1="19.374" x2="178.79" y2="22.037"/>
		
			<line style="clip-path:url(#SVGID_30_);fill:none;stroke:#000000;stroke-width:0;stroke-miterlimit:1;" x1="178.79" y1="22.037" x2="179.973" y2="23.812"/>
		
			<line style="clip-path:url(#SVGID_30_);fill:none;stroke:#000000;stroke-width:0;stroke-miterlimit:1;" x1="179.973" y1="23.812" x2="181.748" y2="24.699"/>
		
			<line style="clip-path:url(#SVGID_30_);fill:none;stroke:#000000;stroke-width:0;stroke-miterlimit:1;" x1="181.748" y1="24.699" x2="184.707" y2="24.995"/>
	</g>
	<g>
		<defs>
			<polygon id="SVGID_31_" points="0,497.916 575.236,497.916 575.236,0 0,0 0,497.916 			"/>
		</defs>
		<clipPath id="SVGID_32_">
			<use xlink:href="#SVGID_31_"  style="overflow:visible;"/>
		</clipPath>
		
			<line style="clip-path:url(#SVGID_32_);fill:none;stroke:#000000;stroke-width:0;stroke-miterlimit:1;" x1="188.256" y1="28.84" x2="187.665" y2="31.207"/>
		
			<line style="clip-path:url(#SVGID_32_);fill:none;stroke:#000000;stroke-width:0;stroke-miterlimit:1;" x1="187.665" y1="31.207" x2="187.369" y2="32.982"/>
		
			<line style="clip-path:url(#SVGID_32_);fill:none;stroke:#000000;stroke-width:0;stroke-miterlimit:1;" x1="187.369" y1="32.982" x2="188.552" y2="35.053"/>
		
			<line style="clip-path:url(#SVGID_32_);fill:none;stroke:#000000;stroke-width:0;stroke-miterlimit:1;" x1="188.552" y1="35.053" x2="190.918" y2="35.94"/>
		
			<line style="clip-path:url(#SVGID_32_);fill:none;stroke:#000000;stroke-width:0;stroke-miterlimit:1;" x1="190.918" y1="35.94" x2="193.582" y2="35.94"/>
		
			<line style="clip-path:url(#SVGID_32_);fill:none;stroke:#000000;stroke-width:0;stroke-miterlimit:1;" x1="193.582" y1="35.94" x2="195.652" y2="34.166"/>
		
			<line style="clip-path:url(#SVGID_32_);fill:none;stroke:#000000;stroke-width:0;stroke-miterlimit:1;" x1="195.652" y1="34.166" x2="196.54" y2="31.799"/>
	</g>
	<g>
		<defs>
			<polygon id="SVGID_33_" points="0,497.916 575.236,497.916 575.236,0 0,0 0,497.916 			"/>
		</defs>
		<clipPath id="SVGID_34_">
			<use xlink:href="#SVGID_33_"  style="overflow:visible;"/>
		</clipPath>
		
			<line style="clip-path:url(#SVGID_34_);fill:none;stroke:#000000;stroke-width:0;stroke-miterlimit:1;" x1="202.16" y1="31.799" x2="203.343" y2="35.053"/>
		
			<line style="clip-path:url(#SVGID_34_);fill:none;stroke:#000000;stroke-width:0;stroke-miterlimit:1;" x1="203.343" y1="35.053" x2="205.415" y2="36.532"/>
		
			<line style="clip-path:url(#SVGID_34_);fill:none;stroke:#000000;stroke-width:0;stroke-miterlimit:1;" x1="205.415" y1="36.532" x2="208.373" y2="36.828"/>
		
			<line style="clip-path:url(#SVGID_34_);fill:none;stroke:#000000;stroke-width:0;stroke-miterlimit:1;" x1="208.373" y1="36.828" x2="210.739" y2="35.053"/>
		
			<line style="clip-path:url(#SVGID_34_);fill:none;stroke:#000000;stroke-width:0;stroke-miterlimit:1;" x1="210.739" y1="35.053" x2="211.626" y2="32.982"/>
		
			<line style="clip-path:url(#SVGID_34_);fill:none;stroke:#000000;stroke-width:0;stroke-miterlimit:1;" x1="211.626" y1="32.982" x2="211.035" y2="30.32"/>
	</g>
	<g>
		<defs>
			<polygon id="SVGID_35_" points="0,497.916 575.236,497.916 575.236,0 0,0 0,497.916 			"/>
		</defs>
		<clipPath id="SVGID_36_">
			<use xlink:href="#SVGID_35_"  style="overflow:visible;"/>
		</clipPath>
		
			<line style="clip-path:url(#SVGID_36_);fill:none;stroke:#000000;stroke-width:0;stroke-miterlimit:1;" x1="216.36" y1="27.953" x2="217.248" y2="30.024"/>
		
			<line style="clip-path:url(#SVGID_36_);fill:none;stroke:#000000;stroke-width:0;stroke-miterlimit:1;" x1="217.248" y1="30.024" x2="219.614" y2="32.391"/>
		
			<line style="clip-path:url(#SVGID_36_);fill:none;stroke:#000000;stroke-width:0;stroke-miterlimit:1;" x1="219.614" y1="32.391" x2="222.277" y2="32.686"/>
		
			<line style="clip-path:url(#SVGID_36_);fill:none;stroke:#000000;stroke-width:0;stroke-miterlimit:1;" x1="222.277" y1="32.686" x2="224.347" y2="31.799"/>
		
			<line style="clip-path:url(#SVGID_36_);fill:none;stroke:#000000;stroke-width:0;stroke-miterlimit:1;" x1="224.347" y1="31.799" x2="225.827" y2="29.728"/>
		
			<line style="clip-path:url(#SVGID_36_);fill:none;stroke:#000000;stroke-width:0;stroke-miterlimit:1;" x1="225.827" y1="29.728" x2="225.827" y2="27.657"/>
		
			<line style="clip-path:url(#SVGID_36_);fill:none;stroke:#000000;stroke-width:0;stroke-miterlimit:1;" x1="225.827" y1="27.657" x2="224.939" y2="24.995"/>
	</g>
	<g>
		<defs>
			<polygon id="SVGID_37_" points="0,497.916 575.236,497.916 575.236,0 0,0 0,497.916 			"/>
		</defs>
		<clipPath id="SVGID_38_">
			<use xlink:href="#SVGID_37_"  style="overflow:visible;"/>
		</clipPath>
		
			<line style="clip-path:url(#SVGID_38_);fill:none;stroke:#000000;stroke-width:0;stroke-miterlimit:1;" x1="227.897" y1="20.557" x2="212.81" y2="16.416"/>
		
			<line style="clip-path:url(#SVGID_38_);fill:none;stroke:#000000;stroke-width:0;stroke-miterlimit:1;" x1="212.81" y1="16.416" x2="205.71" y2="14.937"/>
		
			<line style="clip-path:url(#SVGID_38_);fill:none;stroke:#000000;stroke-width:0;stroke-miterlimit:1;" x1="205.71" y1="14.937" x2="198.906" y2="14.641"/>
		
			<line style="clip-path:url(#SVGID_38_);fill:none;stroke:#000000;stroke-width:0;stroke-miterlimit:1;" x1="198.906" y1="14.641" x2="193.286" y2="15.232"/>
		
			<line style="clip-path:url(#SVGID_38_);fill:none;stroke:#000000;stroke-width:0;stroke-miterlimit:1;" x1="193.286" y1="15.232" x2="190.031" y2="17.007"/>
		
			<line style="clip-path:url(#SVGID_38_);fill:none;stroke:#000000;stroke-width:0;stroke-miterlimit:1;" x1="190.031" y1="17.007" x2="188.256" y2="19.078"/>
		
			<line style="clip-path:url(#SVGID_38_);fill:none;stroke:#000000;stroke-width:0;stroke-miterlimit:1;" x1="188.256" y1="19.078" x2="188.256" y2="20.853"/>
		
			<line style="clip-path:url(#SVGID_38_);fill:none;stroke:#000000;stroke-width:0;stroke-miterlimit:1;" x1="188.256" y1="20.853" x2="188.848" y2="24.107"/>
		
			<line style="clip-path:url(#SVGID_38_);fill:none;stroke:#000000;stroke-width:0;stroke-miterlimit:1;" x1="188.848" y1="24.107" x2="190.031" y2="25.586"/>
		
			<line style="clip-path:url(#SVGID_38_);fill:none;stroke:#000000;stroke-width:0;stroke-miterlimit:1;" x1="190.031" y1="25.586" x2="192.694" y2="27.065"/>
		
			<line style="clip-path:url(#SVGID_38_);fill:none;stroke:#000000;stroke-width:0;stroke-miterlimit:1;" x1="192.694" y1="27.065" x2="197.427" y2="28.249"/>
		
			<line style="clip-path:url(#SVGID_38_);fill:none;stroke:#000000;stroke-width:0;stroke-miterlimit:1;" x1="197.427" y1="28.249" x2="204.527" y2="27.953"/>
		
			<line style="clip-path:url(#SVGID_38_);fill:none;stroke:#000000;stroke-width:0;stroke-miterlimit:1;" x1="204.527" y1="27.953" x2="212.514" y2="26.178"/>
		
			<line style="clip-path:url(#SVGID_38_);fill:none;stroke:#000000;stroke-width:0;stroke-miterlimit:1;" x1="212.514" y1="26.178" x2="228.489" y2="20.557"/>
	</g>
	<g>
		<defs>
			<polygon id="SVGID_39_" points="0,497.916 575.236,497.916 575.236,0 0,0 0,497.916 			"/>
		</defs>
		<clipPath id="SVGID_40_">
			<use xlink:href="#SVGID_39_"  style="overflow:visible;"/>
		</clipPath>
		
			<line style="clip-path:url(#SVGID_40_);fill:none;stroke:#000000;stroke-width:0;stroke-miterlimit:1;" x1="149.637" y1="44.224" x2="118.279" y2="44.224"/>
		
			<line style="clip-path:url(#SVGID_40_);fill:none;stroke:#000000;stroke-width:0;stroke-miterlimit:1;" x1="118.279" y1="44.224" x2="103.488" y2="4.287"/>
		
			<line style="clip-path:url(#SVGID_40_);fill:none;stroke:#000000;stroke-width:0;stroke-miterlimit:1;" x1="103.488" y1="4.287" x2="164.428" y2="4.287"/>
		
			<line style="clip-path:url(#SVGID_40_);fill:none;stroke:#000000;stroke-width:0;stroke-miterlimit:1;" x1="164.428" y1="4.287" x2="149.637" y2="44.224"/>
	</g>
</g>
</svg>
