<?xml version="1.0" encoding="iso-8859-1"?>
<!-- Generator: Adobe Illustrator 16.0.1, SVG Export Plug-In . SVG Version: 6.00 Build 0)  -->
<!DOCTYPE svg PUBLIC "-//W3C//DTD SVG 1.1//EN" "http://www.w3.org/Graphics/SVG/1.1/DTD/svg11.dtd">
<svg version="1.1" id="Ebene_1" xmlns="http://www.w3.org/2000/svg" xmlns:xlink="http://www.w3.org/1999/xlink" x="0px" y="0px"
	 width="783.646px" height="458.99px" viewBox="0 0 783.646 458.99" style="enable-background:new 0 0 783.646 458.99;"
	 xml:space="preserve">
<g>
	<g>
		<defs>
			<polygon id="SVGID_1_" points="239.842,242.484 706.001,242.484 706.001,0 239.842,0 239.842,242.484 			"/>
		</defs>
		<clipPath id="SVGID_2_">
			<use xlink:href="#SVGID_1_"  style="overflow:visible;"/>
		</clipPath>
		
			<line style="clip-path:url(#SVGID_2_);fill:none;stroke:#000000;stroke-width:0;stroke-miterlimit:1;" x1="242.927" y1="3.086" x2="268.595" y2="60.838"/>
		
			<line style="clip-path:url(#SVGID_2_);fill:none;stroke:#000000;stroke-width:0;stroke-miterlimit:1;" x1="268.595" y1="60.838" x2="281.429" y2="60.838"/>
		
			<line style="clip-path:url(#SVGID_2_);fill:none;stroke:#000000;stroke-width:0;stroke-miterlimit:1;" x1="281.429" y1="60.838" x2="255.761" y2="3.086"/>
		
			<line style="clip-path:url(#SVGID_2_);fill:none;stroke:#000000;stroke-width:0;stroke-miterlimit:1;" x1="255.761" y1="3.086" x2="242.927" y2="3.086"/>
	</g>
	<g>
		<defs>
			<polygon id="SVGID_3_" points="239.842,242.484 783.646,242.484 783.646,0 239.842,0 239.842,242.484 			"/>
		</defs>
		<clipPath id="SVGID_4_">
			<use xlink:href="#SVGID_3_"  style="overflow:visible;"/>
		</clipPath>
		
			<line style="clip-path:url(#SVGID_4_);fill:none;stroke:#000000;stroke-width:0;stroke-miterlimit:1;" x1="281.75" y1="3.086" x2="307.417" y2="60.838"/>
		
			<line style="clip-path:url(#SVGID_4_);fill:none;stroke:#000000;stroke-width:0;stroke-miterlimit:1;" x1="307.417" y1="60.838" x2="320.251" y2="60.838"/>
		
			<line style="clip-path:url(#SVGID_4_);fill:none;stroke:#000000;stroke-width:0;stroke-miterlimit:1;" x1="320.251" y1="60.838" x2="294.584" y2="3.086"/>
		
			<line style="clip-path:url(#SVGID_4_);fill:none;stroke:#000000;stroke-width:0;stroke-miterlimit:1;" x1="294.584" y1="3.086" x2="281.75" y2="3.086"/>
	</g>
	<g>
		<defs>
			<polygon id="SVGID_5_" points="22.372,458.99 783.646,458.99 783.646,0 22.372,0 22.372,458.99 			"/>
		</defs>
		<clipPath id="SVGID_6_">
			<use xlink:href="#SVGID_5_"  style="overflow:visible;"/>
		</clipPath>
		
			<line style="clip-path:url(#SVGID_6_);fill:none;stroke:#000000;stroke-width:0;stroke-miterlimit:1;" x1="60.079" y1="135.123" x2="53.63" y2="129.354"/>
		
			<line style="clip-path:url(#SVGID_6_);fill:none;stroke:#000000;stroke-width:0;stroke-miterlimit:1;" x1="53.63" y1="129.354" x2="45.484" y2="124.94"/>
		
			<line style="clip-path:url(#SVGID_6_);fill:none;stroke:#000000;stroke-width:0;stroke-miterlimit:1;" x1="45.484" y1="124.94" x2="42.429" y2="150.397"/>
		
			<line style="clip-path:url(#SVGID_6_);fill:none;stroke:#000000;stroke-width:0;stroke-miterlimit:1;" x1="42.429" y1="150.397" x2="29.87" y2="152.095"/>
		
			<line style="clip-path:url(#SVGID_6_);fill:none;stroke:#000000;stroke-width:0;stroke-miterlimit:1;" x1="29.87" y1="152.095" x2="25.458" y2="155.489"/>
		
			<line style="clip-path:url(#SVGID_6_);fill:none;stroke:#000000;stroke-width:0;stroke-miterlimit:1;" x1="25.458" y1="155.489" x2="29.191" y2="155.149"/>
	</g>
	<g>
		<defs>
			<polygon id="SVGID_7_" points="22.372,458.99 783.646,458.99 783.646,0 22.372,0 22.372,458.99 			"/>
		</defs>
		<clipPath id="SVGID_8_">
			<use xlink:href="#SVGID_7_"  style="overflow:visible;"/>
		</clipPath>
		
			<line style="clip-path:url(#SVGID_8_);fill:none;stroke:#000000;stroke-width:0;stroke-miterlimit:1;" x1="29.53" y1="153.113" x2="29.191" y2="155.829"/>
		
			<line style="clip-path:url(#SVGID_8_);fill:none;stroke:#000000;stroke-width:0;stroke-miterlimit:1;" x1="29.191" y1="155.829" x2="36.998" y2="155.489"/>
	</g>
	<g>
		<defs>
			<polygon id="SVGID_9_" points="5.061,458.99 783.646,458.99 783.646,0 5.061,0 5.061,458.99 			"/>
		</defs>
		<clipPath id="SVGID_10_">
			<use xlink:href="#SVGID_9_"  style="overflow:visible;"/>
		</clipPath>
		
			<line style="clip-path:url(#SVGID_10_);fill:none;stroke:#000000;stroke-width:0;stroke-miterlimit:1;" x1="30.888" y1="76.402" x2="32.925" y2="83.53"/>
		
			<line style="clip-path:url(#SVGID_10_);fill:none;stroke:#000000;stroke-width:0;stroke-miterlimit:1;" x1="32.925" y1="83.53" x2="36.998" y2="103.896"/>
		
			<line style="clip-path:url(#SVGID_10_);fill:none;stroke:#000000;stroke-width:0;stroke-miterlimit:1;" x1="36.998" y1="103.896" x2="36.998" y2="127.995"/>
		
			<line style="clip-path:url(#SVGID_10_);fill:none;stroke:#000000;stroke-width:0;stroke-miterlimit:1;" x1="36.998" y1="127.995" x2="33.943" y2="146.324"/>
		
			<line style="clip-path:url(#SVGID_10_);fill:none;stroke:#000000;stroke-width:0;stroke-miterlimit:1;" x1="33.943" y1="146.324" x2="31.567" y2="148.7"/>
		
			<line style="clip-path:url(#SVGID_10_);fill:none;stroke:#000000;stroke-width:0;stroke-miterlimit:1;" x1="31.567" y1="148.7" x2="14.256" y2="151.416"/>
		
			<line style="clip-path:url(#SVGID_10_);fill:none;stroke:#000000;stroke-width:0;stroke-miterlimit:1;" x1="14.256" y1="151.416" x2="13.238" y2="155.489"/>
		
			<line style="clip-path:url(#SVGID_10_);fill:none;stroke:#000000;stroke-width:0;stroke-miterlimit:1;" x1="13.238" y1="155.489" x2="8.146" y2="155.829"/>
		
			<line style="clip-path:url(#SVGID_10_);fill:none;stroke:#000000;stroke-width:0;stroke-miterlimit:1;" x1="8.146" y1="155.829" x2="10.522" y2="153.113"/>
		
			<line style="clip-path:url(#SVGID_10_);fill:none;stroke:#000000;stroke-width:0;stroke-miterlimit:1;" x1="10.522" y1="153.113" x2="13.577" y2="152.095"/>
	</g>
	<g>
		<defs>
			<polygon id="SVGID_11_" points="5.061,458.99 783.646,458.99 783.646,0 5.061,0 5.061,458.99 			"/>
		</defs>
		<clipPath id="SVGID_12_">
			<use xlink:href="#SVGID_11_"  style="overflow:visible;"/>
		</clipPath>
		
			<line style="clip-path:url(#SVGID_12_);fill:none;stroke:#000000;stroke-width:0;stroke-miterlimit:1;" x1="13.238" y1="155.489" x2="25.797" y2="155.489"/>
	</g>
	<g>
		<defs>
			<polygon id="SVGID_13_" points="5.061,458.99 783.646,458.99 783.646,0 5.061,0 5.061,458.99 			"/>
		</defs>
		<clipPath id="SVGID_14_">
			<use xlink:href="#SVGID_13_"  style="overflow:visible;"/>
		</clipPath>
		
			<line style="clip-path:url(#SVGID_14_);fill:none;stroke:#000000;stroke-width:0;stroke-miterlimit:1;" x1="14.256" y1="151.076" x2="8.146" y2="151.756"/>
		
			<line style="clip-path:url(#SVGID_14_);fill:none;stroke:#000000;stroke-width:0;stroke-miterlimit:1;" x1="8.146" y1="151.756" x2="4.073" y2="152.773"/>
		
			<line style="clip-path:url(#SVGID_14_);fill:none;stroke:#000000;stroke-width:0;stroke-miterlimit:1;" x1="4.073" y1="152.773" x2="3.395" y2="155.489"/>
		
			<line style="clip-path:url(#SVGID_14_);fill:none;stroke:#000000;stroke-width:0;stroke-miterlimit:1;" x1="3.395" y1="155.489" x2="9.165" y2="155.489"/>
	</g>
	<g>
		<defs>
			<polygon id="SVGID_15_" points="5.061,458.99 783.646,458.99 783.646,0 5.061,0 5.061,458.99 			"/>
		</defs>
		<clipPath id="SVGID_16_">
			<use xlink:href="#SVGID_15_"  style="overflow:visible;"/>
		</clipPath>
		
			<line style="clip-path:url(#SVGID_16_);fill:none;stroke:#000000;stroke-width:0;stroke-miterlimit:1;" x1="3.734" y1="152.773" x2="0" y2="155.489"/>
		
			<line style="clip-path:url(#SVGID_16_);fill:none;stroke:#000000;stroke-width:0;stroke-miterlimit:1;" x1="0" y1="155.489" x2="3.055" y2="155.149"/>
	</g>
	<g>
		<defs>
			<polygon id="SVGID_17_" points="5.061,458.99 783.646,458.99 783.646,0 5.061,0 5.061,458.99 			"/>
		</defs>
		<clipPath id="SVGID_18_">
			<use xlink:href="#SVGID_17_"  style="overflow:visible;"/>
		</clipPath>
		
			<line style="clip-path:url(#SVGID_18_);fill:none;stroke:#000000;stroke-width:0;stroke-miterlimit:1;" x1="71.28" y1="44.157" x2="61.776" y2="43.138"/>
		
			<line style="clip-path:url(#SVGID_18_);fill:none;stroke:#000000;stroke-width:0;stroke-miterlimit:1;" x1="61.776" y1="43.138" x2="47.52" y2="44.157"/>
		
			<line style="clip-path:url(#SVGID_18_);fill:none;stroke:#000000;stroke-width:0;stroke-miterlimit:1;" x1="47.52" y1="44.157" x2="40.731" y2="48.569"/>
		
			<line style="clip-path:url(#SVGID_18_);fill:none;stroke:#000000;stroke-width:0;stroke-miterlimit:1;" x1="40.731" y1="48.569" x2="38.016" y2="55.358"/>
		
			<line style="clip-path:url(#SVGID_18_);fill:none;stroke:#000000;stroke-width:0;stroke-miterlimit:1;" x1="38.016" y1="55.358" x2="40.053" y2="64.862"/>
		
			<line style="clip-path:url(#SVGID_18_);fill:none;stroke:#000000;stroke-width:0;stroke-miterlimit:1;" x1="40.053" y1="64.862" x2="47.181" y2="72.329"/>
		
			<line style="clip-path:url(#SVGID_18_);fill:none;stroke:#000000;stroke-width:0;stroke-miterlimit:1;" x1="47.181" y1="72.329" x2="93.683" y2="106.272"/>
		
			<line style="clip-path:url(#SVGID_18_);fill:none;stroke:#000000;stroke-width:0;stroke-miterlimit:1;" x1="93.683" y1="106.272" x2="115.406" y2="121.207"/>
		
			<line style="clip-path:url(#SVGID_18_);fill:none;stroke:#000000;stroke-width:0;stroke-miterlimit:1;" x1="115.406" y1="121.207" x2="126.607" y2="131.051"/>
		
			<line style="clip-path:url(#SVGID_18_);fill:none;stroke:#000000;stroke-width:0;stroke-miterlimit:1;" x1="126.607" y1="131.051" x2="147.652" y2="153.113"/>
		
			<line style="clip-path:url(#SVGID_18_);fill:none;stroke:#000000;stroke-width:0;stroke-miterlimit:1;" x1="147.652" y1="153.113" x2="150.707" y2="155.149"/>
		
			<line style="clip-path:url(#SVGID_18_);fill:none;stroke:#000000;stroke-width:0;stroke-miterlimit:1;" x1="150.707" y1="155.149" x2="151.725" y2="155.149"/>
		
			<line style="clip-path:url(#SVGID_18_);fill:none;stroke:#000000;stroke-width:0;stroke-miterlimit:1;" x1="151.725" y1="155.149" x2="152.404" y2="151.416"/>
		
			<line style="clip-path:url(#SVGID_18_);fill:none;stroke:#000000;stroke-width:0;stroke-miterlimit:1;" x1="152.404" y1="151.416" x2="144.597" y2="139.196"/>
		
			<line style="clip-path:url(#SVGID_18_);fill:none;stroke:#000000;stroke-width:0;stroke-miterlimit:1;" x1="144.597" y1="139.196" x2="107.938" y2="90.319"/>
		
			<line style="clip-path:url(#SVGID_18_);fill:none;stroke:#000000;stroke-width:0;stroke-miterlimit:1;" x1="107.938" y1="90.319" x2="88.251" y2="60.449"/>
		
			<line style="clip-path:url(#SVGID_18_);fill:none;stroke:#000000;stroke-width:0;stroke-miterlimit:1;" x1="88.251" y1="60.449" x2="80.105" y2="50.606"/>
		
			<line style="clip-path:url(#SVGID_18_);fill:none;stroke:#000000;stroke-width:0;stroke-miterlimit:1;" x1="80.105" y1="50.606" x2="69.583" y2="41.781"/>
		
			<line style="clip-path:url(#SVGID_18_);fill:none;stroke:#000000;stroke-width:0;stroke-miterlimit:1;" x1="69.583" y1="41.781" x2="49.896" y2="30.919"/>
		
			<line style="clip-path:url(#SVGID_18_);fill:none;stroke:#000000;stroke-width:0;stroke-miterlimit:1;" x1="49.896" y1="30.919" x2="48.539" y2="15.305"/>
		
			<line style="clip-path:url(#SVGID_18_);fill:none;stroke:#000000;stroke-width:0;stroke-miterlimit:1;" x1="48.539" y1="15.305" x2="45.144" y2="3.765"/>
		
			<line style="clip-path:url(#SVGID_18_);fill:none;stroke:#000000;stroke-width:0;stroke-miterlimit:1;" x1="45.144" y1="3.765" x2="29.87" y2="3.086"/>
		
			<line style="clip-path:url(#SVGID_18_);fill:none;stroke:#000000;stroke-width:0;stroke-miterlimit:1;" x1="29.87" y1="3.086" x2="14.596" y2="3.765"/>
		
			<line style="clip-path:url(#SVGID_18_);fill:none;stroke:#000000;stroke-width:0;stroke-miterlimit:1;" x1="14.596" y1="3.765" x2="11.201" y2="16.323"/>
		
			<line style="clip-path:url(#SVGID_18_);fill:none;stroke:#000000;stroke-width:0;stroke-miterlimit:1;" x1="11.201" y1="16.323" x2="8.825" y2="35.332"/>
		
			<line style="clip-path:url(#SVGID_18_);fill:none;stroke:#000000;stroke-width:0;stroke-miterlimit:1;" x1="8.825" y1="35.332" x2="11.201" y2="51.285"/>
		
			<line style="clip-path:url(#SVGID_18_);fill:none;stroke:#000000;stroke-width:0;stroke-miterlimit:1;" x1="11.201" y1="51.285" x2="20.026" y2="65.201"/>
		
			<line style="clip-path:url(#SVGID_18_);fill:none;stroke:#000000;stroke-width:0;stroke-miterlimit:1;" x1="20.026" y1="65.201" x2="33.943" y2="79.457"/>
		
			<line style="clip-path:url(#SVGID_18_);fill:none;stroke:#000000;stroke-width:0;stroke-miterlimit:1;" x1="33.943" y1="79.457" x2="47.181" y2="93.713"/>
		
			<line style="clip-path:url(#SVGID_18_);fill:none;stroke:#000000;stroke-width:0;stroke-miterlimit:1;" x1="47.181" y1="93.713" x2="57.364" y2="112.721"/>
		
			<line style="clip-path:url(#SVGID_18_);fill:none;stroke:#000000;stroke-width:0;stroke-miterlimit:1;" x1="57.364" y1="112.721" x2="61.437" y2="145.307"/>
		
			<line style="clip-path:url(#SVGID_18_);fill:none;stroke:#000000;stroke-width:0;stroke-miterlimit:1;" x1="61.437" y1="145.307" x2="59.4" y2="149.04"/>
		
			<line style="clip-path:url(#SVGID_18_);fill:none;stroke:#000000;stroke-width:0;stroke-miterlimit:1;" x1="59.4" y1="149.04" x2="42.429" y2="150.397"/>
		
			<line style="clip-path:url(#SVGID_18_);fill:none;stroke:#000000;stroke-width:0;stroke-miterlimit:1;" x1="42.429" y1="150.397" x2="37.337" y2="155.489"/>
		
			<line style="clip-path:url(#SVGID_18_);fill:none;stroke:#000000;stroke-width:0;stroke-miterlimit:1;" x1="37.337" y1="155.489" x2="40.731" y2="154.811"/>
	</g>
	<g>
		<defs>
			<polygon id="SVGID_19_" points="5.061,458.99 783.646,458.99 783.646,0 5.061,0 5.061,458.99 			"/>
		</defs>
		<clipPath id="SVGID_20_">
			<use xlink:href="#SVGID_19_"  style="overflow:visible;"/>
		</clipPath>
		
			<line style="clip-path:url(#SVGID_20_);fill:none;stroke:#000000;stroke-width:0;stroke-miterlimit:1;" x1="41.071" y1="151.756" x2="40.731" y2="155.489"/>
		
			<line style="clip-path:url(#SVGID_20_);fill:none;stroke:#000000;stroke-width:0;stroke-miterlimit:1;" x1="40.731" y1="155.489" x2="91.646" y2="155.829"/>
		
			<line style="clip-path:url(#SVGID_20_);fill:none;stroke:#000000;stroke-width:0;stroke-miterlimit:1;" x1="91.646" y1="155.829" x2="90.288" y2="152.435"/>
	</g>
	<g>
		<defs>
			<polygon id="SVGID_21_" points="5.061,458.99 783.646,458.99 783.646,0 5.061,0 5.061,458.99 			"/>
		</defs>
		<clipPath id="SVGID_22_">
			<use xlink:href="#SVGID_21_"  style="overflow:visible;"/>
		</clipPath>
		
			<line style="clip-path:url(#SVGID_22_);fill:none;stroke:#000000;stroke-width:0;stroke-miterlimit:1;" x1="90.967" y1="155.149" x2="95.38" y2="155.829"/>
		
			<line style="clip-path:url(#SVGID_22_);fill:none;stroke:#000000;stroke-width:0;stroke-miterlimit:1;" x1="95.38" y1="155.829" x2="92.325" y2="152.773"/>
		
			<line style="clip-path:url(#SVGID_22_);fill:none;stroke:#000000;stroke-width:0;stroke-miterlimit:1;" x1="92.325" y1="152.773" x2="85.536" y2="150.059"/>
		
			<line style="clip-path:url(#SVGID_22_);fill:none;stroke:#000000;stroke-width:0;stroke-miterlimit:1;" x1="85.536" y1="150.059" x2="72.298" y2="148.7"/>
		
			<line style="clip-path:url(#SVGID_22_);fill:none;stroke:#000000;stroke-width:0;stroke-miterlimit:1;" x1="72.298" y1="148.7" x2="70.941" y2="147.004"/>
		
			<line style="clip-path:url(#SVGID_22_);fill:none;stroke:#000000;stroke-width:0;stroke-miterlimit:1;" x1="70.941" y1="147.004" x2="69.244" y2="125.619"/>
		
			<line style="clip-path:url(#SVGID_22_);fill:none;stroke:#000000;stroke-width:0;stroke-miterlimit:1;" x1="69.244" y1="125.619" x2="77.39" y2="128.675"/>
		
			<line style="clip-path:url(#SVGID_22_);fill:none;stroke:#000000;stroke-width:0;stroke-miterlimit:1;" x1="77.39" y1="128.675" x2="85.536" y2="134.784"/>
		
			<line style="clip-path:url(#SVGID_22_);fill:none;stroke:#000000;stroke-width:0;stroke-miterlimit:1;" x1="85.536" y1="134.784" x2="82.481" y2="115.098"/>
		
			<line style="clip-path:url(#SVGID_22_);fill:none;stroke:#000000;stroke-width:0;stroke-miterlimit:1;" x1="82.481" y1="115.098" x2="93.683" y2="122.226"/>
		
			<line style="clip-path:url(#SVGID_22_);fill:none;stroke:#000000;stroke-width:0;stroke-miterlimit:1;" x1="93.683" y1="122.226" x2="108.617" y2="148.021"/>
		
			<line style="clip-path:url(#SVGID_22_);fill:none;stroke:#000000;stroke-width:0;stroke-miterlimit:1;" x1="108.617" y1="148.021" x2="117.103" y2="152.773"/>
		
			<line style="clip-path:url(#SVGID_22_);fill:none;stroke:#000000;stroke-width:0;stroke-miterlimit:1;" x1="117.103" y1="152.773" x2="128.304" y2="155.829"/>
		
			<line style="clip-path:url(#SVGID_22_);fill:none;stroke:#000000;stroke-width:0;stroke-miterlimit:1;" x1="128.304" y1="155.829" x2="140.523" y2="155.829"/>
		
			<line style="clip-path:url(#SVGID_22_);fill:none;stroke:#000000;stroke-width:0;stroke-miterlimit:1;" x1="140.523" y1="155.829" x2="126.268" y2="134.784"/>
		
			<line style="clip-path:url(#SVGID_22_);fill:none;stroke:#000000;stroke-width:0;stroke-miterlimit:1;" x1="126.268" y1="134.784" x2="117.103" y2="122.904"/>
	</g>
	<g>
		<defs>
			<polygon id="SVGID_23_" points="5.061,458.99 783.646,458.99 783.646,0 5.061,0 5.061,458.99 			"/>
		</defs>
		<clipPath id="SVGID_24_">
			<use xlink:href="#SVGID_23_"  style="overflow:visible;"/>
		</clipPath>
		
			<line style="clip-path:url(#SVGID_24_);fill:none;stroke:#000000;stroke-width:0;stroke-miterlimit:1;" x1="15.274" y1="15.305" x2="19.687" y2="8.517"/>
		
			<line style="clip-path:url(#SVGID_24_);fill:none;stroke:#000000;stroke-width:0;stroke-miterlimit:1;" x1="19.687" y1="8.517" x2="24.1" y2="14.966"/>
	</g>
	<g>
		<defs>
			<polygon id="SVGID_25_" points="5.061,458.99 783.646,458.99 783.646,0 5.061,0 5.061,458.99 			"/>
		</defs>
		<clipPath id="SVGID_26_">
			<use xlink:href="#SVGID_25_"  style="overflow:visible;"/>
		</clipPath>
		
			<line style="clip-path:url(#SVGID_26_);fill:none;stroke:#000000;stroke-width:0;stroke-miterlimit:1;" x1="25.797" y1="20.736" x2="28.852" y2="37.708"/>
		
			<line style="clip-path:url(#SVGID_26_);fill:none;stroke:#000000;stroke-width:0;stroke-miterlimit:1;" x1="28.852" y1="37.708" x2="33.264" y2="21.076"/>
	</g>
	<g>
		<defs>
			<polygon id="SVGID_27_" points="5.061,458.99 783.646,458.99 783.646,0 5.061,0 5.061,458.99 			"/>
		</defs>
		<clipPath id="SVGID_28_">
			<use xlink:href="#SVGID_27_"  style="overflow:visible;"/>
		</clipPath>
		
			<line style="clip-path:url(#SVGID_28_);fill:none;stroke:#000000;stroke-width:0;stroke-miterlimit:1;" x1="35.64" y1="15.645" x2="40.053" y2="8.856"/>
		
			<line style="clip-path:url(#SVGID_28_);fill:none;stroke:#000000;stroke-width:0;stroke-miterlimit:1;" x1="40.053" y1="8.856" x2="44.805" y2="16.323"/>
	</g>
	<g>
		<defs>
			<polygon id="SVGID_29_" points="5.061,458.99 783.646,458.99 783.646,0 5.061,0 5.061,458.99 			"/>
		</defs>
		<clipPath id="SVGID_30_">
			<use xlink:href="#SVGID_29_"  style="overflow:visible;"/>
		</clipPath>
		
			<line style="clip-path:url(#SVGID_30_);fill:none;stroke:#000000;stroke-width:0;stroke-miterlimit:1;" x1="39.035" y1="26.846" x2="41.411" y2="26.167"/>
		
			<line style="clip-path:url(#SVGID_30_);fill:none;stroke:#000000;stroke-width:0;stroke-miterlimit:1;" x1="41.411" y1="26.167" x2="42.429" y2="23.452"/>
		
			<line style="clip-path:url(#SVGID_30_);fill:none;stroke:#000000;stroke-width:0;stroke-miterlimit:1;" x1="42.429" y1="23.452" x2="41.75" y2="21.754"/>
		
			<line style="clip-path:url(#SVGID_30_);fill:none;stroke:#000000;stroke-width:0;stroke-miterlimit:1;" x1="41.75" y1="21.754" x2="39.713" y2="20.396"/>
		
			<line style="clip-path:url(#SVGID_30_);fill:none;stroke:#000000;stroke-width:0;stroke-miterlimit:1;" x1="39.713" y1="20.396" x2="37.337" y2="21.076"/>
		
			<line style="clip-path:url(#SVGID_30_);fill:none;stroke:#000000;stroke-width:0;stroke-miterlimit:1;" x1="37.337" y1="21.076" x2="36.319" y2="23.112"/>
		
			<line style="clip-path:url(#SVGID_30_);fill:none;stroke:#000000;stroke-width:0;stroke-miterlimit:1;" x1="36.319" y1="23.112" x2="36.998" y2="25.828"/>
		
			<line style="clip-path:url(#SVGID_30_);fill:none;stroke:#000000;stroke-width:0;stroke-miterlimit:1;" x1="36.998" y1="25.828" x2="39.374" y2="26.846"/>
	</g>
	<g>
		<defs>
			<polygon id="SVGID_31_" points="5.061,458.99 783.646,458.99 783.646,0 5.061,0 5.061,458.99 			"/>
		</defs>
		<clipPath id="SVGID_32_">
			<use xlink:href="#SVGID_31_"  style="overflow:visible;"/>
		</clipPath>
		
			<line style="clip-path:url(#SVGID_32_);fill:none;stroke:#000000;stroke-width:0;stroke-miterlimit:1;" x1="20.366" y1="26.167" x2="22.402" y2="25.828"/>
		
			<line style="clip-path:url(#SVGID_32_);fill:none;stroke:#000000;stroke-width:0;stroke-miterlimit:1;" x1="22.402" y1="25.828" x2="23.421" y2="23.112"/>
		
			<line style="clip-path:url(#SVGID_32_);fill:none;stroke:#000000;stroke-width:0;stroke-miterlimit:1;" x1="23.421" y1="23.112" x2="22.742" y2="20.736"/>
		
			<line style="clip-path:url(#SVGID_32_);fill:none;stroke:#000000;stroke-width:0;stroke-miterlimit:1;" x1="22.742" y1="20.736" x2="21.045" y2="19.378"/>
		
			<line style="clip-path:url(#SVGID_32_);fill:none;stroke:#000000;stroke-width:0;stroke-miterlimit:1;" x1="21.045" y1="19.378" x2="18.33" y2="20.396"/>
		
			<line style="clip-path:url(#SVGID_32_);fill:none;stroke:#000000;stroke-width:0;stroke-miterlimit:1;" x1="18.33" y1="20.396" x2="17.311" y2="22.433"/>
		
			<line style="clip-path:url(#SVGID_32_);fill:none;stroke:#000000;stroke-width:0;stroke-miterlimit:1;" x1="17.311" y1="22.433" x2="17.65" y2="24.809"/>
		
			<line style="clip-path:url(#SVGID_32_);fill:none;stroke:#000000;stroke-width:0;stroke-miterlimit:1;" x1="17.65" y1="24.809" x2="20.366" y2="26.506"/>
	</g>
	<g>
		<defs>
			<polygon id="SVGID_33_" points="5.061,458.99 783.646,458.99 783.646,0 5.061,0 5.061,458.99 			"/>
		</defs>
		<clipPath id="SVGID_34_">
			<use xlink:href="#SVGID_33_"  style="overflow:visible;"/>
		</clipPath>
		
			<line style="clip-path:url(#SVGID_34_);fill:none;stroke:#000000;stroke-width:0;stroke-miterlimit:1;" x1="195.81" y1="155.829" x2="202.598" y2="155.829"/>
		
			<line style="clip-path:url(#SVGID_34_);fill:none;stroke:#000000;stroke-width:0;stroke-miterlimit:1;" x1="202.598" y1="155.829" x2="202.598" y2="20.057"/>
		
			<line style="clip-path:url(#SVGID_34_);fill:none;stroke:#000000;stroke-width:0;stroke-miterlimit:1;" x1="202.598" y1="20.057" x2="200.9" y2="11.911"/>
		
			<line style="clip-path:url(#SVGID_34_);fill:none;stroke:#000000;stroke-width:0;stroke-miterlimit:1;" x1="200.9" y1="11.911" x2="197.167" y2="7.159"/>
		
			<line style="clip-path:url(#SVGID_34_);fill:none;stroke:#000000;stroke-width:0;stroke-miterlimit:1;" x1="197.167" y1="7.159" x2="192.075" y2="4.443"/>
		
			<line style="clip-path:url(#SVGID_34_);fill:none;stroke:#000000;stroke-width:0;stroke-miterlimit:1;" x1="192.075" y1="4.443" x2="184.269" y2="3.086"/>
		
			<line style="clip-path:url(#SVGID_34_);fill:none;stroke:#000000;stroke-width:0;stroke-miterlimit:1;" x1="184.269" y1="3.086" x2="176.122" y2="4.783"/>
		
			<line style="clip-path:url(#SVGID_34_);fill:none;stroke:#000000;stroke-width:0;stroke-miterlimit:1;" x1="176.122" y1="4.783" x2="171.031" y2="7.838"/>
		
			<line style="clip-path:url(#SVGID_34_);fill:none;stroke:#000000;stroke-width:0;stroke-miterlimit:1;" x1="171.031" y1="7.838" x2="166.958" y2="13.269"/>
		
			<line style="clip-path:url(#SVGID_34_);fill:none;stroke:#000000;stroke-width:0;stroke-miterlimit:1;" x1="166.958" y1="13.269" x2="165.6" y2="20.057"/>
		
			<line style="clip-path:url(#SVGID_34_);fill:none;stroke:#000000;stroke-width:0;stroke-miterlimit:1;" x1="165.6" y1="20.057" x2="165.6" y2="115.098"/>
		
			<line style="clip-path:url(#SVGID_34_);fill:none;stroke:#000000;stroke-width:0;stroke-miterlimit:1;" x1="165.6" y1="115.098" x2="172.729" y2="115.098"/>
		
			<line style="clip-path:url(#SVGID_34_);fill:none;stroke:#000000;stroke-width:0;stroke-miterlimit:1;" x1="172.729" y1="115.098" x2="172.729" y2="20.057"/>
		
			<line style="clip-path:url(#SVGID_34_);fill:none;stroke:#000000;stroke-width:0;stroke-miterlimit:1;" x1="172.729" y1="20.057" x2="173.746" y2="15.645"/>
		
			<line style="clip-path:url(#SVGID_34_);fill:none;stroke:#000000;stroke-width:0;stroke-miterlimit:1;" x1="173.746" y1="15.645" x2="176.462" y2="12.25"/>
		
			<line style="clip-path:url(#SVGID_34_);fill:none;stroke:#000000;stroke-width:0;stroke-miterlimit:1;" x1="176.462" y1="12.25" x2="181.214" y2="10.553"/>
		
			<line style="clip-path:url(#SVGID_34_);fill:none;stroke:#000000;stroke-width:0;stroke-miterlimit:1;" x1="181.214" y1="10.553" x2="185.966" y2="10.214"/>
		
			<line style="clip-path:url(#SVGID_34_);fill:none;stroke:#000000;stroke-width:0;stroke-miterlimit:1;" x1="185.966" y1="10.214" x2="191.058" y2="11.911"/>
		
			<line style="clip-path:url(#SVGID_34_);fill:none;stroke:#000000;stroke-width:0;stroke-miterlimit:1;" x1="191.058" y1="11.911" x2="194.791" y2="16.323"/>
		
			<line style="clip-path:url(#SVGID_34_);fill:none;stroke:#000000;stroke-width:0;stroke-miterlimit:1;" x1="194.791" y1="16.323" x2="195.81" y2="21.754"/>
		
			<line style="clip-path:url(#SVGID_34_);fill:none;stroke:#000000;stroke-width:0;stroke-miterlimit:1;" x1="195.81" y1="21.754" x2="195.81" y2="155.829"/>
	</g>
	<g>
		<defs>
			<polygon id="SVGID_35_" points="5.061,458.99 783.646,458.99 783.646,0 5.061,0 5.061,458.99 			"/>
		</defs>
		<clipPath id="SVGID_36_">
			<use xlink:href="#SVGID_35_"  style="overflow:visible;"/>
		</clipPath>
		
			<line style="clip-path:url(#SVGID_36_);fill:none;stroke:#000000;stroke-width:0;stroke-miterlimit:1;" x1="295.079" y1="92.942" x2="293.476" y2="98.076"/>
		
			<line style="clip-path:url(#SVGID_36_);fill:none;stroke:#000000;stroke-width:0;stroke-miterlimit:1;" x1="293.476" y1="98.076" x2="290.588" y2="106.098"/>
		
			<line style="clip-path:url(#SVGID_36_);fill:none;stroke:#000000;stroke-width:0;stroke-miterlimit:1;" x1="290.588" y1="106.098" x2="285.774" y2="115.401"/>
		
			<line style="clip-path:url(#SVGID_36_);fill:none;stroke:#000000;stroke-width:0;stroke-miterlimit:1;" x1="285.774" y1="115.401" x2="280.642" y2="123.103"/>
		
			<line style="clip-path:url(#SVGID_36_);fill:none;stroke:#000000;stroke-width:0;stroke-miterlimit:1;" x1="280.642" y1="123.103" x2="276.791" y2="129.52"/>
		
			<line style="clip-path:url(#SVGID_36_);fill:none;stroke:#000000;stroke-width:0;stroke-miterlimit:1;" x1="276.791" y1="129.52" x2="272.62" y2="134.974"/>
		
			<line style="clip-path:url(#SVGID_36_);fill:none;stroke:#000000;stroke-width:0;stroke-miterlimit:1;" x1="272.62" y1="134.974" x2="271.016" y2="138.182"/>
		
			<line style="clip-path:url(#SVGID_36_);fill:none;stroke:#000000;stroke-width:0;stroke-miterlimit:1;" x1="271.016" y1="138.182" x2="270.374" y2="140.749"/>
		
			<line style="clip-path:url(#SVGID_36_);fill:none;stroke:#000000;stroke-width:0;stroke-miterlimit:1;" x1="270.374" y1="140.749" x2="270.054" y2="142.995"/>
		
			<line style="clip-path:url(#SVGID_36_);fill:none;stroke:#000000;stroke-width:0;stroke-miterlimit:1;" x1="270.054" y1="142.995" x2="270.695" y2="146.524"/>
		
			<line style="clip-path:url(#SVGID_36_);fill:none;stroke:#000000;stroke-width:0;stroke-miterlimit:1;" x1="270.695" y1="146.524" x2="271.016" y2="148.77"/>
		
			<line style="clip-path:url(#SVGID_36_);fill:none;stroke:#000000;stroke-width:0;stroke-miterlimit:1;" x1="271.016" y1="148.77" x2="270.374" y2="151.657"/>
		
			<line style="clip-path:url(#SVGID_36_);fill:none;stroke:#000000;stroke-width:0;stroke-miterlimit:1;" x1="270.374" y1="151.657" x2="269.411" y2="153.583"/>
		
			<line style="clip-path:url(#SVGID_36_);fill:none;stroke:#000000;stroke-width:0;stroke-miterlimit:1;" x1="269.411" y1="153.583" x2="266.524" y2="155.187"/>
		
			<line style="clip-path:url(#SVGID_36_);fill:none;stroke:#000000;stroke-width:0;stroke-miterlimit:1;" x1="266.524" y1="155.187" x2="262.994" y2="155.187"/>
		
			<line style="clip-path:url(#SVGID_36_);fill:none;stroke:#000000;stroke-width:0;stroke-miterlimit:1;" x1="262.994" y1="155.187" x2="259.145" y2="153.583"/>
		
			<line style="clip-path:url(#SVGID_36_);fill:none;stroke:#000000;stroke-width:0;stroke-miterlimit:1;" x1="259.145" y1="153.583" x2="257.861" y2="153.262"/>
		
			<line style="clip-path:url(#SVGID_36_);fill:none;stroke:#000000;stroke-width:0;stroke-miterlimit:1;" x1="257.861" y1="153.262" x2="254.974" y2="153.903"/>
		
			<line style="clip-path:url(#SVGID_36_);fill:none;stroke:#000000;stroke-width:0;stroke-miterlimit:1;" x1="254.974" y1="153.903" x2="251.123" y2="155.508"/>
		
			<line style="clip-path:url(#SVGID_36_);fill:none;stroke:#000000;stroke-width:0;stroke-miterlimit:1;" x1="251.123" y1="155.508" x2="228.984" y2="155.508"/>
		
			<line style="clip-path:url(#SVGID_36_);fill:none;stroke:#000000;stroke-width:0;stroke-miterlimit:1;" x1="228.984" y1="155.508" x2="228.343" y2="152.299"/>
		
			<line style="clip-path:url(#SVGID_36_);fill:none;stroke:#000000;stroke-width:0;stroke-miterlimit:1;" x1="228.343" y1="152.299" x2="230.269" y2="150.374"/>
		
			<line style="clip-path:url(#SVGID_36_);fill:none;stroke:#000000;stroke-width:0;stroke-miterlimit:1;" x1="230.269" y1="150.374" x2="235.723" y2="149.732"/>
		
			<line style="clip-path:url(#SVGID_36_);fill:none;stroke:#000000;stroke-width:0;stroke-miterlimit:1;" x1="235.723" y1="149.732" x2="243.102" y2="147.808"/>
		
			<line style="clip-path:url(#SVGID_36_);fill:none;stroke:#000000;stroke-width:0;stroke-miterlimit:1;" x1="243.102" y1="147.808" x2="249.84" y2="144.599"/>
		
			<line style="clip-path:url(#SVGID_36_);fill:none;stroke:#000000;stroke-width:0;stroke-miterlimit:1;" x1="249.84" y1="144.599" x2="254.974" y2="140.107"/>
		
			<line style="clip-path:url(#SVGID_36_);fill:none;stroke:#000000;stroke-width:0;stroke-miterlimit:1;" x1="254.974" y1="140.107" x2="259.145" y2="134.974"/>
		
			<line style="clip-path:url(#SVGID_36_);fill:none;stroke:#000000;stroke-width:0;stroke-miterlimit:1;" x1="259.145" y1="134.974" x2="260.428" y2="132.086"/>
		
			<line style="clip-path:url(#SVGID_36_);fill:none;stroke:#000000;stroke-width:0;stroke-miterlimit:1;" x1="260.428" y1="132.086" x2="262.994" y2="124.706"/>
		
			<line style="clip-path:url(#SVGID_36_);fill:none;stroke:#000000;stroke-width:0;stroke-miterlimit:1;" x1="262.994" y1="124.706" x2="269.732" y2="106.418"/>
		
			<line style="clip-path:url(#SVGID_36_);fill:none;stroke:#000000;stroke-width:0;stroke-miterlimit:1;" x1="269.732" y1="106.418" x2="273.903" y2="97.435"/>
		
			<line style="clip-path:url(#SVGID_36_);fill:none;stroke:#000000;stroke-width:0;stroke-miterlimit:1;" x1="273.903" y1="97.435" x2="278.396" y2="88.771"/>
		
			<line style="clip-path:url(#SVGID_36_);fill:none;stroke:#000000;stroke-width:0;stroke-miterlimit:1;" x1="278.396" y1="88.771" x2="282.245" y2="82.354"/>
		
			<line style="clip-path:url(#SVGID_36_);fill:none;stroke:#000000;stroke-width:0;stroke-miterlimit:1;" x1="282.245" y1="82.354" x2="285.454" y2="77.221"/>
		
			<line style="clip-path:url(#SVGID_36_);fill:none;stroke:#000000;stroke-width:0;stroke-miterlimit:1;" x1="285.454" y1="77.221" x2="288.342" y2="73.371"/>
		
			<line style="clip-path:url(#SVGID_36_);fill:none;stroke:#000000;stroke-width:0;stroke-miterlimit:1;" x1="288.342" y1="73.371" x2="290.588" y2="70.483"/>
		
			<line style="clip-path:url(#SVGID_36_);fill:none;stroke:#000000;stroke-width:0;stroke-miterlimit:1;" x1="290.588" y1="70.483" x2="292.513" y2="69.521"/>
		
			<line style="clip-path:url(#SVGID_36_);fill:none;stroke:#000000;stroke-width:0;stroke-miterlimit:1;" x1="292.513" y1="69.521" x2="294.117" y2="69.2"/>
		
			<line style="clip-path:url(#SVGID_36_);fill:none;stroke:#000000;stroke-width:0;stroke-miterlimit:1;" x1="294.117" y1="69.2" x2="295.4" y2="69.521"/>
		
			<line style="clip-path:url(#SVGID_36_);fill:none;stroke:#000000;stroke-width:0;stroke-miterlimit:1;" x1="295.4" y1="69.521" x2="297.967" y2="69.841"/>
		
			<line style="clip-path:url(#SVGID_36_);fill:none;stroke:#000000;stroke-width:0;stroke-miterlimit:1;" x1="297.967" y1="69.841" x2="301.817" y2="75.296"/>
		
			<line style="clip-path:url(#SVGID_36_);fill:none;stroke:#000000;stroke-width:0;stroke-miterlimit:1;" x1="301.817" y1="75.296" x2="308.234" y2="85.884"/>
		
			<line style="clip-path:url(#SVGID_36_);fill:none;stroke:#000000;stroke-width:0;stroke-miterlimit:1;" x1="308.234" y1="85.884" x2="314.651" y2="96.151"/>
		
			<line style="clip-path:url(#SVGID_36_);fill:none;stroke:#000000;stroke-width:0;stroke-miterlimit:1;" x1="314.651" y1="96.151" x2="322.03" y2="108.985"/>
		
			<line style="clip-path:url(#SVGID_36_);fill:none;stroke:#000000;stroke-width:0;stroke-miterlimit:1;" x1="322.03" y1="108.985" x2="327.806" y2="121.498"/>
		
			<line style="clip-path:url(#SVGID_36_);fill:none;stroke:#000000;stroke-width:0;stroke-miterlimit:1;" x1="327.806" y1="121.498" x2="331.977" y2="132.406"/>
		
			<line style="clip-path:url(#SVGID_36_);fill:none;stroke:#000000;stroke-width:0;stroke-miterlimit:1;" x1="331.977" y1="132.406" x2="333.26" y2="137.54"/>
		
			<line style="clip-path:url(#SVGID_36_);fill:none;stroke:#000000;stroke-width:0;stroke-miterlimit:1;" x1="333.26" y1="137.54" x2="335.506" y2="142.674"/>
		
			<line style="clip-path:url(#SVGID_36_);fill:none;stroke:#000000;stroke-width:0;stroke-miterlimit:1;" x1="335.506" y1="142.674" x2="338.394" y2="147.486"/>
		
			<line style="clip-path:url(#SVGID_36_);fill:none;stroke:#000000;stroke-width:0;stroke-miterlimit:1;" x1="338.394" y1="147.486" x2="338.715" y2="149.732"/>
		
			<line style="clip-path:url(#SVGID_36_);fill:none;stroke:#000000;stroke-width:0;stroke-miterlimit:1;" x1="338.715" y1="149.732" x2="338.394" y2="152.299"/>
		
			<line style="clip-path:url(#SVGID_36_);fill:none;stroke:#000000;stroke-width:0;stroke-miterlimit:1;" x1="338.394" y1="152.299" x2="337.432" y2="154.225"/>
		
			<line style="clip-path:url(#SVGID_36_);fill:none;stroke:#000000;stroke-width:0;stroke-miterlimit:1;" x1="337.432" y1="154.225" x2="335.506" y2="155.187"/>
		
			<line style="clip-path:url(#SVGID_36_);fill:none;stroke:#000000;stroke-width:0;stroke-miterlimit:1;" x1="335.506" y1="155.187" x2="332.618" y2="155.829"/>
		
			<line style="clip-path:url(#SVGID_36_);fill:none;stroke:#000000;stroke-width:0;stroke-miterlimit:1;" x1="332.618" y1="155.829" x2="329.73" y2="155.187"/>
		
			<line style="clip-path:url(#SVGID_36_);fill:none;stroke:#000000;stroke-width:0;stroke-miterlimit:1;" x1="329.73" y1="155.187" x2="328.769" y2="154.225"/>
		
			<line style="clip-path:url(#SVGID_36_);fill:none;stroke:#000000;stroke-width:0;stroke-miterlimit:1;" x1="328.769" y1="154.225" x2="326.522" y2="153.583"/>
		
			<line style="clip-path:url(#SVGID_36_);fill:none;stroke:#000000;stroke-width:0;stroke-miterlimit:1;" x1="326.522" y1="153.583" x2="324.276" y2="153.583"/>
		
			<line style="clip-path:url(#SVGID_36_);fill:none;stroke:#000000;stroke-width:0;stroke-miterlimit:1;" x1="324.276" y1="153.583" x2="322.03" y2="155.508"/>
		
			<line style="clip-path:url(#SVGID_36_);fill:none;stroke:#000000;stroke-width:0;stroke-miterlimit:1;" x1="322.03" y1="155.508" x2="295.079" y2="155.508"/>
		
			<line style="clip-path:url(#SVGID_36_);fill:none;stroke:#000000;stroke-width:0;stroke-miterlimit:1;" x1="295.079" y1="155.508" x2="294.759" y2="153.262"/>
		
			<line style="clip-path:url(#SVGID_36_);fill:none;stroke:#000000;stroke-width:0;stroke-miterlimit:1;" x1="294.759" y1="153.262" x2="295.721" y2="151.657"/>
		
			<line style="clip-path:url(#SVGID_36_);fill:none;stroke:#000000;stroke-width:0;stroke-miterlimit:1;" x1="295.721" y1="151.657" x2="302.779" y2="149.732"/>
		
			<line style="clip-path:url(#SVGID_36_);fill:none;stroke:#000000;stroke-width:0;stroke-miterlimit:1;" x1="302.779" y1="149.732" x2="308.876" y2="148.128"/>
		
			<line style="clip-path:url(#SVGID_36_);fill:none;stroke:#000000;stroke-width:0;stroke-miterlimit:1;" x1="308.876" y1="148.128" x2="313.367" y2="146.524"/>
		
			<line style="clip-path:url(#SVGID_36_);fill:none;stroke:#000000;stroke-width:0;stroke-miterlimit:1;" x1="313.367" y1="146.524" x2="317.539" y2="144.599"/>
		
			<line style="clip-path:url(#SVGID_36_);fill:none;stroke:#000000;stroke-width:0;stroke-miterlimit:1;" x1="317.539" y1="144.599" x2="319.785" y2="142.354"/>
		
			<line style="clip-path:url(#SVGID_36_);fill:none;stroke:#000000;stroke-width:0;stroke-miterlimit:1;" x1="319.785" y1="142.354" x2="321.068" y2="139.786"/>
		
			<line style="clip-path:url(#SVGID_36_);fill:none;stroke:#000000;stroke-width:0;stroke-miterlimit:1;" x1="321.068" y1="139.786" x2="321.068" y2="137.861"/>
		
			<line style="clip-path:url(#SVGID_36_);fill:none;stroke:#000000;stroke-width:0;stroke-miterlimit:1;" x1="321.068" y1="137.861" x2="320.105" y2="135.294"/>
		
			<line style="clip-path:url(#SVGID_36_);fill:none;stroke:#000000;stroke-width:0;stroke-miterlimit:1;" x1="320.105" y1="135.294" x2="316.255" y2="129.52"/>
		
			<line style="clip-path:url(#SVGID_36_);fill:none;stroke:#000000;stroke-width:0;stroke-miterlimit:1;" x1="316.255" y1="129.52" x2="309.838" y2="118.61"/>
		
			<line style="clip-path:url(#SVGID_36_);fill:none;stroke:#000000;stroke-width:0;stroke-miterlimit:1;" x1="309.838" y1="118.61" x2="303.742" y2="110.269"/>
		
			<line style="clip-path:url(#SVGID_36_);fill:none;stroke:#000000;stroke-width:0;stroke-miterlimit:1;" x1="303.742" y1="110.269" x2="299.25" y2="102.247"/>
		
			<line style="clip-path:url(#SVGID_36_);fill:none;stroke:#000000;stroke-width:0;stroke-miterlimit:1;" x1="299.25" y1="102.247" x2="297.005" y2="95.83"/>
		
			<line style="clip-path:url(#SVGID_36_);fill:none;stroke:#000000;stroke-width:0;stroke-miterlimit:1;" x1="297.005" y1="95.83" x2="295.4" y2="92.622"/>
	</g>
</g>
</svg>
