<?xml version="1.0" encoding="iso-8859-1"?>
<!-- Generator: Adobe Illustrator 16.0.1, SVG Export Plug-In . SVG Version: 6.00 Build 0)  -->
<!DOCTYPE svg PUBLIC "-//W3C//DTD SVG 1.1//EN" "http://www.w3.org/Graphics/SVG/1.1/DTD/svg11.dtd">
<svg version="1.1" id="Ebene_1" xmlns="http://www.w3.org/2000/svg" xmlns:xlink="http://www.w3.org/1999/xlink" x="0px" y="0px"
	 width="782.566px" height="491.184px" viewBox="0 0 782.566 491.184" style="enable-background:new 0 0 782.566 491.184;"
	 xml:space="preserve">
<g>
	<g>
		<defs>
			<polygon id="SVGID_1_" points="0,277.715 405.258,277.715 405.258,0 0,0 0,277.715 			"/>
		</defs>
		<clipPath id="SVGID_2_">
			<use xlink:href="#SVGID_1_"  style="overflow:visible;"/>
		</clipPath>
		
			<line style="clip-path:url(#SVGID_2_);fill:none;stroke:#C0C0C0;stroke-width:0;stroke-linejoin:bevel;stroke-miterlimit:10;" x1="3.085" y1="3.085" x2="233.486" y2="3.085"/>
		
			<line style="clip-path:url(#SVGID_2_);fill:none;stroke:#C0C0C0;stroke-width:0;stroke-linejoin:bevel;stroke-miterlimit:10;" x1="233.486" y1="3.085" x2="233.486" y2="97.714"/>
		
			<line style="clip-path:url(#SVGID_2_);fill:none;stroke:#C0C0C0;stroke-width:0;stroke-linejoin:bevel;stroke-miterlimit:10;" x1="233.486" y1="97.714" x2="3.085" y2="97.714"/>
	</g>
	<g>
		<defs>
			<polygon id="SVGID_3_" points="0,460.635 405.258,460.635 405.258,0 0,0 0,460.635 			"/>
		</defs>
		<clipPath id="SVGID_4_">
			<use xlink:href="#SVGID_3_"  style="overflow:visible;"/>
		</clipPath>
		
			<line style="clip-path:url(#SVGID_4_);fill:none;stroke:#000000;stroke-width:0;stroke-miterlimit:1;" x1="73.039" y1="136.769" x2="66.59" y2="130.999"/>
		
			<line style="clip-path:url(#SVGID_4_);fill:none;stroke:#000000;stroke-width:0;stroke-miterlimit:1;" x1="66.59" y1="130.999" x2="58.443" y2="126.586"/>
		
			<line style="clip-path:url(#SVGID_4_);fill:none;stroke:#000000;stroke-width:0;stroke-miterlimit:1;" x1="58.443" y1="126.586" x2="55.389" y2="152.043"/>
		
			<line style="clip-path:url(#SVGID_4_);fill:none;stroke:#000000;stroke-width:0;stroke-miterlimit:1;" x1="55.389" y1="152.043" x2="42.83" y2="153.741"/>
		
			<line style="clip-path:url(#SVGID_4_);fill:none;stroke:#000000;stroke-width:0;stroke-miterlimit:1;" x1="42.83" y1="153.741" x2="38.417" y2="157.135"/>
		
			<line style="clip-path:url(#SVGID_4_);fill:none;stroke:#000000;stroke-width:0;stroke-miterlimit:1;" x1="38.417" y1="157.135" x2="42.151" y2="156.795"/>
	</g>
	<g>
		<defs>
			<polygon id="SVGID_5_" points="0,489.146 405.258,489.146 405.258,0 0,0 0,489.146 			"/>
		</defs>
		<clipPath id="SVGID_6_">
			<use xlink:href="#SVGID_5_"  style="overflow:visible;"/>
		</clipPath>
		
			<line style="clip-path:url(#SVGID_6_);fill:none;stroke:#000000;stroke-width:0;stroke-miterlimit:1;" x1="42.49" y1="154.759" x2="42.151" y2="157.474"/>
		
			<line style="clip-path:url(#SVGID_6_);fill:none;stroke:#000000;stroke-width:0;stroke-miterlimit:1;" x1="42.151" y1="157.474" x2="49.958" y2="157.135"/>
	</g>
	<g>
		<defs>
			<polygon id="SVGID_7_" points="0,489.146 405.258,489.146 405.258,0 0,0 0,489.146 			"/>
		</defs>
		<clipPath id="SVGID_8_">
			<use xlink:href="#SVGID_7_"  style="overflow:visible;"/>
		</clipPath>
		
			<line style="clip-path:url(#SVGID_8_);fill:none;stroke:#000000;stroke-width:0;stroke-miterlimit:1;" x1="43.848" y1="78.048" x2="45.884" y2="85.176"/>
		
			<line style="clip-path:url(#SVGID_8_);fill:none;stroke:#000000;stroke-width:0;stroke-miterlimit:1;" x1="45.884" y1="85.176" x2="49.958" y2="105.542"/>
		
			<line style="clip-path:url(#SVGID_8_);fill:none;stroke:#000000;stroke-width:0;stroke-miterlimit:1;" x1="49.958" y1="105.542" x2="49.958" y2="129.641"/>
		
			<line style="clip-path:url(#SVGID_8_);fill:none;stroke:#000000;stroke-width:0;stroke-miterlimit:1;" x1="49.958" y1="129.641" x2="46.903" y2="147.97"/>
		
			<line style="clip-path:url(#SVGID_8_);fill:none;stroke:#000000;stroke-width:0;stroke-miterlimit:1;" x1="46.903" y1="147.97" x2="44.527" y2="150.346"/>
		
			<line style="clip-path:url(#SVGID_8_);fill:none;stroke:#000000;stroke-width:0;stroke-miterlimit:1;" x1="44.527" y1="150.346" x2="27.216" y2="153.062"/>
		
			<line style="clip-path:url(#SVGID_8_);fill:none;stroke:#000000;stroke-width:0;stroke-miterlimit:1;" x1="27.216" y1="153.062" x2="26.198" y2="157.135"/>
		
			<line style="clip-path:url(#SVGID_8_);fill:none;stroke:#000000;stroke-width:0;stroke-miterlimit:1;" x1="26.198" y1="157.135" x2="21.106" y2="157.474"/>
		
			<line style="clip-path:url(#SVGID_8_);fill:none;stroke:#000000;stroke-width:0;stroke-miterlimit:1;" x1="21.106" y1="157.474" x2="23.482" y2="154.759"/>
		
			<line style="clip-path:url(#SVGID_8_);fill:none;stroke:#000000;stroke-width:0;stroke-miterlimit:1;" x1="23.482" y1="154.759" x2="26.537" y2="153.741"/>
	</g>
	<g>
		<defs>
			<polygon id="SVGID_9_" points="0,491.184 405.258,491.184 405.258,0 0,0 0,491.184 			"/>
		</defs>
		<clipPath id="SVGID_10_">
			<use xlink:href="#SVGID_9_"  style="overflow:visible;"/>
		</clipPath>
		
			<line style="clip-path:url(#SVGID_10_);fill:none;stroke:#000000;stroke-width:0;stroke-miterlimit:1;" x1="26.198" y1="157.135" x2="38.756" y2="157.135"/>
	</g>
	<g>
		<defs>
			<polygon id="SVGID_11_" points="0,491.184 405.258,491.184 405.258,0 0,0 0,491.184 			"/>
		</defs>
		<clipPath id="SVGID_12_">
			<use xlink:href="#SVGID_11_"  style="overflow:visible;"/>
		</clipPath>
		
			<line style="clip-path:url(#SVGID_12_);fill:none;stroke:#000000;stroke-width:0;stroke-miterlimit:1;" x1="27.216" y1="152.722" x2="21.106" y2="153.401"/>
		
			<line style="clip-path:url(#SVGID_12_);fill:none;stroke:#000000;stroke-width:0;stroke-miterlimit:1;" x1="21.106" y1="153.401" x2="17.033" y2="154.419"/>
		
			<line style="clip-path:url(#SVGID_12_);fill:none;stroke:#000000;stroke-width:0;stroke-miterlimit:1;" x1="17.033" y1="154.419" x2="16.354" y2="157.135"/>
		
			<line style="clip-path:url(#SVGID_12_);fill:none;stroke:#000000;stroke-width:0;stroke-miterlimit:1;" x1="16.354" y1="157.135" x2="22.125" y2="157.135"/>
	</g>
	<g>
		<defs>
			<polygon id="SVGID_13_" points="0,491.184 405.258,491.184 405.258,0 0,0 0,491.184 			"/>
		</defs>
		<clipPath id="SVGID_14_">
			<use xlink:href="#SVGID_13_"  style="overflow:visible;"/>
		</clipPath>
		
			<line style="clip-path:url(#SVGID_14_);fill:none;stroke:#000000;stroke-width:0;stroke-miterlimit:1;" x1="16.694" y1="154.419" x2="12.96" y2="157.135"/>
		
			<line style="clip-path:url(#SVGID_14_);fill:none;stroke:#000000;stroke-width:0;stroke-miterlimit:1;" x1="12.96" y1="157.135" x2="16.015" y2="156.795"/>
	</g>
	<g>
		<defs>
			<polygon id="SVGID_15_" points="0,491.184 405.258,491.184 405.258,0 0,0 0,491.184 			"/>
		</defs>
		<clipPath id="SVGID_16_">
			<use xlink:href="#SVGID_15_"  style="overflow:visible;"/>
		</clipPath>
		
			<line style="clip-path:url(#SVGID_16_);fill:none;stroke:#000000;stroke-width:0;stroke-miterlimit:1;" x1="84.24" y1="45.802" x2="74.736" y2="44.784"/>
		
			<line style="clip-path:url(#SVGID_16_);fill:none;stroke:#000000;stroke-width:0;stroke-miterlimit:1;" x1="74.736" y1="44.784" x2="60.48" y2="45.802"/>
		
			<line style="clip-path:url(#SVGID_16_);fill:none;stroke:#000000;stroke-width:0;stroke-miterlimit:1;" x1="60.48" y1="45.802" x2="53.691" y2="50.215"/>
		
			<line style="clip-path:url(#SVGID_16_);fill:none;stroke:#000000;stroke-width:0;stroke-miterlimit:1;" x1="53.691" y1="50.215" x2="50.976" y2="57.003"/>
		
			<line style="clip-path:url(#SVGID_16_);fill:none;stroke:#000000;stroke-width:0;stroke-miterlimit:1;" x1="50.976" y1="57.003" x2="53.013" y2="66.507"/>
		
			<line style="clip-path:url(#SVGID_16_);fill:none;stroke:#000000;stroke-width:0;stroke-miterlimit:1;" x1="53.013" y1="66.507" x2="60.141" y2="73.975"/>
		
			<line style="clip-path:url(#SVGID_16_);fill:none;stroke:#000000;stroke-width:0;stroke-miterlimit:1;" x1="60.141" y1="73.975" x2="106.642" y2="107.917"/>
		
			<line style="clip-path:url(#SVGID_16_);fill:none;stroke:#000000;stroke-width:0;stroke-miterlimit:1;" x1="106.642" y1="107.917" x2="128.366" y2="122.852"/>
		
			<line style="clip-path:url(#SVGID_16_);fill:none;stroke:#000000;stroke-width:0;stroke-miterlimit:1;" x1="128.366" y1="122.852" x2="139.567" y2="132.696"/>
		
			<line style="clip-path:url(#SVGID_16_);fill:none;stroke:#000000;stroke-width:0;stroke-miterlimit:1;" x1="139.567" y1="132.696" x2="160.611" y2="154.759"/>
		
			<line style="clip-path:url(#SVGID_16_);fill:none;stroke:#000000;stroke-width:0;stroke-miterlimit:1;" x1="160.611" y1="154.759" x2="163.666" y2="156.795"/>
		
			<line style="clip-path:url(#SVGID_16_);fill:none;stroke:#000000;stroke-width:0;stroke-miterlimit:1;" x1="163.666" y1="156.795" x2="164.685" y2="156.795"/>
		
			<line style="clip-path:url(#SVGID_16_);fill:none;stroke:#000000;stroke-width:0;stroke-miterlimit:1;" x1="164.685" y1="156.795" x2="165.363" y2="153.062"/>
		
			<line style="clip-path:url(#SVGID_16_);fill:none;stroke:#000000;stroke-width:0;stroke-miterlimit:1;" x1="165.363" y1="153.062" x2="157.557" y2="140.842"/>
		
			<line style="clip-path:url(#SVGID_16_);fill:none;stroke:#000000;stroke-width:0;stroke-miterlimit:1;" x1="157.557" y1="140.842" x2="120.898" y2="91.964"/>
		
			<line style="clip-path:url(#SVGID_16_);fill:none;stroke:#000000;stroke-width:0;stroke-miterlimit:1;" x1="120.898" y1="91.964" x2="101.211" y2="62.095"/>
		
			<line style="clip-path:url(#SVGID_16_);fill:none;stroke:#000000;stroke-width:0;stroke-miterlimit:1;" x1="101.211" y1="62.095" x2="93.065" y2="52.251"/>
		
			<line style="clip-path:url(#SVGID_16_);fill:none;stroke:#000000;stroke-width:0;stroke-miterlimit:1;" x1="93.065" y1="52.251" x2="82.543" y2="43.426"/>
		
			<line style="clip-path:url(#SVGID_16_);fill:none;stroke:#000000;stroke-width:0;stroke-miterlimit:1;" x1="82.543" y1="43.426" x2="62.856" y2="32.564"/>
		
			<line style="clip-path:url(#SVGID_16_);fill:none;stroke:#000000;stroke-width:0;stroke-miterlimit:1;" x1="62.856" y1="32.564" x2="61.498" y2="16.951"/>
		
			<line style="clip-path:url(#SVGID_16_);fill:none;stroke:#000000;stroke-width:0;stroke-miterlimit:1;" x1="61.498" y1="16.951" x2="58.104" y2="5.41"/>
		
			<line style="clip-path:url(#SVGID_16_);fill:none;stroke:#000000;stroke-width:0;stroke-miterlimit:1;" x1="58.104" y1="5.41" x2="42.83" y2="4.731"/>
		
			<line style="clip-path:url(#SVGID_16_);fill:none;stroke:#000000;stroke-width:0;stroke-miterlimit:1;" x1="42.83" y1="4.731" x2="27.555" y2="5.41"/>
		
			<line style="clip-path:url(#SVGID_16_);fill:none;stroke:#000000;stroke-width:0;stroke-miterlimit:1;" x1="27.555" y1="5.41" x2="24.161" y2="17.969"/>
		
			<line style="clip-path:url(#SVGID_16_);fill:none;stroke:#000000;stroke-width:0;stroke-miterlimit:1;" x1="24.161" y1="17.969" x2="21.785" y2="36.977"/>
		
			<line style="clip-path:url(#SVGID_16_);fill:none;stroke:#000000;stroke-width:0;stroke-miterlimit:1;" x1="21.785" y1="36.977" x2="24.161" y2="52.93"/>
		
			<line style="clip-path:url(#SVGID_16_);fill:none;stroke:#000000;stroke-width:0;stroke-miterlimit:1;" x1="24.161" y1="52.93" x2="32.986" y2="66.847"/>
		
			<line style="clip-path:url(#SVGID_16_);fill:none;stroke:#000000;stroke-width:0;stroke-miterlimit:1;" x1="32.986" y1="66.847" x2="46.903" y2="81.103"/>
		
			<line style="clip-path:url(#SVGID_16_);fill:none;stroke:#000000;stroke-width:0;stroke-miterlimit:1;" x1="46.903" y1="81.103" x2="60.141" y2="95.359"/>
		
			<line style="clip-path:url(#SVGID_16_);fill:none;stroke:#000000;stroke-width:0;stroke-miterlimit:1;" x1="60.141" y1="95.359" x2="70.323" y2="114.367"/>
		
			<line style="clip-path:url(#SVGID_16_);fill:none;stroke:#000000;stroke-width:0;stroke-miterlimit:1;" x1="70.323" y1="114.367" x2="74.396" y2="146.952"/>
		
			<line style="clip-path:url(#SVGID_16_);fill:none;stroke:#000000;stroke-width:0;stroke-miterlimit:1;" x1="74.396" y1="146.952" x2="72.36" y2="150.686"/>
		
			<line style="clip-path:url(#SVGID_16_);fill:none;stroke:#000000;stroke-width:0;stroke-miterlimit:1;" x1="72.36" y1="150.686" x2="55.389" y2="152.043"/>
		
			<line style="clip-path:url(#SVGID_16_);fill:none;stroke:#000000;stroke-width:0;stroke-miterlimit:1;" x1="55.389" y1="152.043" x2="50.297" y2="157.135"/>
		
			<line style="clip-path:url(#SVGID_16_);fill:none;stroke:#000000;stroke-width:0;stroke-miterlimit:1;" x1="50.297" y1="157.135" x2="53.691" y2="156.456"/>
	</g>
	<g>
		<defs>
			<polygon id="SVGID_17_" points="0,491.184 405.258,491.184 405.258,0 0,0 0,491.184 			"/>
		</defs>
		<clipPath id="SVGID_18_">
			<use xlink:href="#SVGID_17_"  style="overflow:visible;"/>
		</clipPath>
		
			<line style="clip-path:url(#SVGID_18_);fill:none;stroke:#000000;stroke-width:0;stroke-miterlimit:1;" x1="54.031" y1="153.401" x2="53.691" y2="157.135"/>
		
			<line style="clip-path:url(#SVGID_18_);fill:none;stroke:#000000;stroke-width:0;stroke-miterlimit:1;" x1="53.691" y1="157.135" x2="104.605" y2="157.474"/>
		
			<line style="clip-path:url(#SVGID_18_);fill:none;stroke:#000000;stroke-width:0;stroke-miterlimit:1;" x1="104.605" y1="157.474" x2="103.248" y2="154.08"/>
	</g>
	<g>
		<defs>
			<polygon id="SVGID_19_" points="0,491.184 405.258,491.184 405.258,0 0,0 0,491.184 			"/>
		</defs>
		<clipPath id="SVGID_20_">
			<use xlink:href="#SVGID_19_"  style="overflow:visible;"/>
		</clipPath>
		
			<line style="clip-path:url(#SVGID_20_);fill:none;stroke:#000000;stroke-width:0;stroke-miterlimit:1;" x1="103.927" y1="156.795" x2="108.339" y2="157.474"/>
		
			<line style="clip-path:url(#SVGID_20_);fill:none;stroke:#000000;stroke-width:0;stroke-miterlimit:1;" x1="108.339" y1="157.474" x2="105.285" y2="154.419"/>
		
			<line style="clip-path:url(#SVGID_20_);fill:none;stroke:#000000;stroke-width:0;stroke-miterlimit:1;" x1="105.285" y1="154.419" x2="98.496" y2="151.704"/>
		
			<line style="clip-path:url(#SVGID_20_);fill:none;stroke:#000000;stroke-width:0;stroke-miterlimit:1;" x1="98.496" y1="151.704" x2="85.258" y2="150.346"/>
		
			<line style="clip-path:url(#SVGID_20_);fill:none;stroke:#000000;stroke-width:0;stroke-miterlimit:1;" x1="85.258" y1="150.346" x2="83.9" y2="148.649"/>
		
			<line style="clip-path:url(#SVGID_20_);fill:none;stroke:#000000;stroke-width:0;stroke-miterlimit:1;" x1="83.9" y1="148.649" x2="82.203" y2="127.265"/>
		
			<line style="clip-path:url(#SVGID_20_);fill:none;stroke:#000000;stroke-width:0;stroke-miterlimit:1;" x1="82.203" y1="127.265" x2="90.35" y2="130.32"/>
		
			<line style="clip-path:url(#SVGID_20_);fill:none;stroke:#000000;stroke-width:0;stroke-miterlimit:1;" x1="90.35" y1="130.32" x2="98.496" y2="136.429"/>
		
			<line style="clip-path:url(#SVGID_20_);fill:none;stroke:#000000;stroke-width:0;stroke-miterlimit:1;" x1="98.496" y1="136.429" x2="95.441" y2="116.743"/>
		
			<line style="clip-path:url(#SVGID_20_);fill:none;stroke:#000000;stroke-width:0;stroke-miterlimit:1;" x1="95.441" y1="116.743" x2="106.642" y2="123.871"/>
		
			<line style="clip-path:url(#SVGID_20_);fill:none;stroke:#000000;stroke-width:0;stroke-miterlimit:1;" x1="106.642" y1="123.871" x2="121.577" y2="149.667"/>
		
			<line style="clip-path:url(#SVGID_20_);fill:none;stroke:#000000;stroke-width:0;stroke-miterlimit:1;" x1="121.577" y1="149.667" x2="130.063" y2="154.419"/>
		
			<line style="clip-path:url(#SVGID_20_);fill:none;stroke:#000000;stroke-width:0;stroke-miterlimit:1;" x1="130.063" y1="154.419" x2="141.264" y2="157.474"/>
		
			<line style="clip-path:url(#SVGID_20_);fill:none;stroke:#000000;stroke-width:0;stroke-miterlimit:1;" x1="141.264" y1="157.474" x2="153.483" y2="157.474"/>
		
			<line style="clip-path:url(#SVGID_20_);fill:none;stroke:#000000;stroke-width:0;stroke-miterlimit:1;" x1="153.483" y1="157.474" x2="139.228" y2="136.429"/>
		
			<line style="clip-path:url(#SVGID_20_);fill:none;stroke:#000000;stroke-width:0;stroke-miterlimit:1;" x1="139.228" y1="136.429" x2="130.063" y2="124.549"/>
	</g>
	<g>
		<defs>
			<polygon id="SVGID_21_" points="0,491.184 405.258,491.184 405.258,0 0,0 0,491.184 			"/>
		</defs>
		<clipPath id="SVGID_22_">
			<use xlink:href="#SVGID_21_"  style="overflow:visible;"/>
		</clipPath>
		
			<line style="clip-path:url(#SVGID_22_);fill:none;stroke:#000000;stroke-width:0;stroke-miterlimit:1;" x1="28.234" y1="16.951" x2="32.647" y2="10.162"/>
		
			<line style="clip-path:url(#SVGID_22_);fill:none;stroke:#000000;stroke-width:0;stroke-miterlimit:1;" x1="32.647" y1="10.162" x2="37.059" y2="16.611"/>
	</g>
	<g>
		<defs>
			<polygon id="SVGID_23_" points="0,491.184 405.258,491.184 405.258,0 0,0 0,491.184 			"/>
		</defs>
		<clipPath id="SVGID_24_">
			<use xlink:href="#SVGID_23_"  style="overflow:visible;"/>
		</clipPath>
		
			<line style="clip-path:url(#SVGID_24_);fill:none;stroke:#000000;stroke-width:0;stroke-miterlimit:1;" x1="38.756" y1="22.382" x2="41.812" y2="39.353"/>
		
			<line style="clip-path:url(#SVGID_24_);fill:none;stroke:#000000;stroke-width:0;stroke-miterlimit:1;" x1="41.812" y1="39.353" x2="46.224" y2="22.721"/>
	</g>
	<g>
		<defs>
			<polygon id="SVGID_25_" points="0,491.184 405.258,491.184 405.258,0 0,0 0,491.184 			"/>
		</defs>
		<clipPath id="SVGID_26_">
			<use xlink:href="#SVGID_25_"  style="overflow:visible;"/>
		</clipPath>
		
			<line style="clip-path:url(#SVGID_26_);fill:none;stroke:#000000;stroke-width:0;stroke-miterlimit:1;" x1="48.6" y1="17.29" x2="53.013" y2="10.501"/>
		
			<line style="clip-path:url(#SVGID_26_);fill:none;stroke:#000000;stroke-width:0;stroke-miterlimit:1;" x1="53.013" y1="10.501" x2="57.765" y2="17.969"/>
	</g>
	<g>
		<defs>
			<polygon id="SVGID_27_" points="0,491.184 405.258,491.184 405.258,0 0,0 0,491.184 			"/>
		</defs>
		<clipPath id="SVGID_28_">
			<use xlink:href="#SVGID_27_"  style="overflow:visible;"/>
		</clipPath>
		
			<line style="clip-path:url(#SVGID_28_);fill:none;stroke:#000000;stroke-width:0;stroke-miterlimit:1;" x1="51.994" y1="28.491" x2="54.37" y2="27.812"/>
		
			<line style="clip-path:url(#SVGID_28_);fill:none;stroke:#000000;stroke-width:0;stroke-miterlimit:1;" x1="54.37" y1="27.812" x2="55.389" y2="25.097"/>
		
			<line style="clip-path:url(#SVGID_28_);fill:none;stroke:#000000;stroke-width:0;stroke-miterlimit:1;" x1="55.389" y1="25.097" x2="54.709" y2="23.4"/>
		
			<line style="clip-path:url(#SVGID_28_);fill:none;stroke:#000000;stroke-width:0;stroke-miterlimit:1;" x1="54.709" y1="23.4" x2="52.673" y2="22.042"/>
		
			<line style="clip-path:url(#SVGID_28_);fill:none;stroke:#000000;stroke-width:0;stroke-miterlimit:1;" x1="52.673" y1="22.042" x2="50.297" y2="22.721"/>
		
			<line style="clip-path:url(#SVGID_28_);fill:none;stroke:#000000;stroke-width:0;stroke-miterlimit:1;" x1="50.297" y1="22.721" x2="49.279" y2="24.758"/>
		
			<line style="clip-path:url(#SVGID_28_);fill:none;stroke:#000000;stroke-width:0;stroke-miterlimit:1;" x1="49.279" y1="24.758" x2="49.958" y2="27.473"/>
		
			<line style="clip-path:url(#SVGID_28_);fill:none;stroke:#000000;stroke-width:0;stroke-miterlimit:1;" x1="49.958" y1="27.473" x2="52.333" y2="28.491"/>
	</g>
	<g>
		<defs>
			<polygon id="SVGID_29_" points="0,491.184 405.258,491.184 405.258,0 0,0 0,491.184 			"/>
		</defs>
		<clipPath id="SVGID_30_">
			<use xlink:href="#SVGID_29_"  style="overflow:visible;"/>
		</clipPath>
		
			<line style="clip-path:url(#SVGID_30_);fill:none;stroke:#000000;stroke-width:0;stroke-miterlimit:1;" x1="33.326" y1="27.812" x2="35.362" y2="27.473"/>
		
			<line style="clip-path:url(#SVGID_30_);fill:none;stroke:#000000;stroke-width:0;stroke-miterlimit:1;" x1="35.362" y1="27.473" x2="36.38" y2="24.758"/>
		
			<line style="clip-path:url(#SVGID_30_);fill:none;stroke:#000000;stroke-width:0;stroke-miterlimit:1;" x1="36.38" y1="24.758" x2="35.702" y2="22.382"/>
		
			<line style="clip-path:url(#SVGID_30_);fill:none;stroke:#000000;stroke-width:0;stroke-miterlimit:1;" x1="35.702" y1="22.382" x2="34.004" y2="21.024"/>
		
			<line style="clip-path:url(#SVGID_30_);fill:none;stroke:#000000;stroke-width:0;stroke-miterlimit:1;" x1="34.004" y1="21.024" x2="31.289" y2="22.042"/>
		
			<line style="clip-path:url(#SVGID_30_);fill:none;stroke:#000000;stroke-width:0;stroke-miterlimit:1;" x1="31.289" y1="22.042" x2="30.271" y2="24.079"/>
		
			<line style="clip-path:url(#SVGID_30_);fill:none;stroke:#000000;stroke-width:0;stroke-miterlimit:1;" x1="30.271" y1="24.079" x2="30.61" y2="26.455"/>
		
			<line style="clip-path:url(#SVGID_30_);fill:none;stroke:#000000;stroke-width:0;stroke-miterlimit:1;" x1="30.61" y1="26.455" x2="33.326" y2="28.152"/>
	</g>
	<g>
		<defs>
			<polygon id="SVGID_31_" points="0,491.184 405.258,491.184 405.258,0 0,0 0,491.184 			"/>
		</defs>
		<clipPath id="SVGID_32_">
			<use xlink:href="#SVGID_31_"  style="overflow:visible;"/>
		</clipPath>
		
			<line style="clip-path:url(#SVGID_32_);fill:none;stroke:#000000;stroke-width:0;stroke-miterlimit:1;" x1="185.348" y1="157.474" x2="178.56" y2="157.474"/>
		
			<line style="clip-path:url(#SVGID_32_);fill:none;stroke:#000000;stroke-width:0;stroke-miterlimit:1;" x1="178.56" y1="157.474" x2="178.56" y2="21.703"/>
		
			<line style="clip-path:url(#SVGID_32_);fill:none;stroke:#000000;stroke-width:0;stroke-miterlimit:1;" x1="178.56" y1="21.703" x2="180.257" y2="13.557"/>
		
			<line style="clip-path:url(#SVGID_32_);fill:none;stroke:#000000;stroke-width:0;stroke-miterlimit:1;" x1="180.257" y1="13.557" x2="183.991" y2="8.805"/>
		
			<line style="clip-path:url(#SVGID_32_);fill:none;stroke:#000000;stroke-width:0;stroke-miterlimit:1;" x1="183.991" y1="8.805" x2="189.083" y2="6.089"/>
		
			<line style="clip-path:url(#SVGID_32_);fill:none;stroke:#000000;stroke-width:0;stroke-miterlimit:1;" x1="189.083" y1="6.089" x2="196.889" y2="4.731"/>
		
			<line style="clip-path:url(#SVGID_32_);fill:none;stroke:#000000;stroke-width:0;stroke-miterlimit:1;" x1="196.889" y1="4.731" x2="205.036" y2="6.429"/>
		
			<line style="clip-path:url(#SVGID_32_);fill:none;stroke:#000000;stroke-width:0;stroke-miterlimit:1;" x1="205.036" y1="6.429" x2="210.126" y2="9.483"/>
		
			<line style="clip-path:url(#SVGID_32_);fill:none;stroke:#000000;stroke-width:0;stroke-miterlimit:1;" x1="210.126" y1="9.483" x2="214.2" y2="14.914"/>
		
			<line style="clip-path:url(#SVGID_32_);fill:none;stroke:#000000;stroke-width:0;stroke-miterlimit:1;" x1="214.2" y1="14.914" x2="215.558" y2="21.703"/>
		
			<line style="clip-path:url(#SVGID_32_);fill:none;stroke:#000000;stroke-width:0;stroke-miterlimit:1;" x1="215.558" y1="21.703" x2="215.558" y2="116.743"/>
		
			<line style="clip-path:url(#SVGID_32_);fill:none;stroke:#000000;stroke-width:0;stroke-miterlimit:1;" x1="215.558" y1="116.743" x2="208.429" y2="116.743"/>
		
			<line style="clip-path:url(#SVGID_32_);fill:none;stroke:#000000;stroke-width:0;stroke-miterlimit:1;" x1="208.429" y1="116.743" x2="208.429" y2="21.703"/>
		
			<line style="clip-path:url(#SVGID_32_);fill:none;stroke:#000000;stroke-width:0;stroke-miterlimit:1;" x1="208.429" y1="21.703" x2="207.412" y2="17.29"/>
		
			<line style="clip-path:url(#SVGID_32_);fill:none;stroke:#000000;stroke-width:0;stroke-miterlimit:1;" x1="207.412" y1="17.29" x2="204.696" y2="13.896"/>
		
			<line style="clip-path:url(#SVGID_32_);fill:none;stroke:#000000;stroke-width:0;stroke-miterlimit:1;" x1="204.696" y1="13.896" x2="199.944" y2="12.199"/>
		
			<line style="clip-path:url(#SVGID_32_);fill:none;stroke:#000000;stroke-width:0;stroke-miterlimit:1;" x1="199.944" y1="12.199" x2="195.192" y2="11.859"/>
		
			<line style="clip-path:url(#SVGID_32_);fill:none;stroke:#000000;stroke-width:0;stroke-miterlimit:1;" x1="195.192" y1="11.859" x2="190.1" y2="13.557"/>
		
			<line style="clip-path:url(#SVGID_32_);fill:none;stroke:#000000;stroke-width:0;stroke-miterlimit:1;" x1="190.1" y1="13.557" x2="186.367" y2="17.969"/>
		
			<line style="clip-path:url(#SVGID_32_);fill:none;stroke:#000000;stroke-width:0;stroke-miterlimit:1;" x1="186.367" y1="17.969" x2="185.348" y2="23.4"/>
		
			<line style="clip-path:url(#SVGID_32_);fill:none;stroke:#000000;stroke-width:0;stroke-miterlimit:1;" x1="185.348" y1="23.4" x2="185.348" y2="157.474"/>
	</g>
	<g>
		<defs>
			<polygon id="SVGID_33_" points="0,491.184 782.566,491.184 782.566,0 0,0 0,491.184 			"/>
		</defs>
		<clipPath id="SVGID_34_">
			<use xlink:href="#SVGID_33_"  style="overflow:visible;"/>
		</clipPath>
		
			<line style="clip-path:url(#SVGID_34_);fill:none;stroke:#000000;stroke-width:0;stroke-miterlimit:1;" x1="303.822" y1="66.396" x2="300.97" y2="67.822"/>
		
			<line style="clip-path:url(#SVGID_34_);fill:none;stroke:#000000;stroke-width:0;stroke-miterlimit:1;" x1="300.97" y1="67.822" x2="298.832" y2="70.317"/>
		
			<line style="clip-path:url(#SVGID_34_);fill:none;stroke:#000000;stroke-width:0;stroke-miterlimit:1;" x1="298.832" y1="70.317" x2="298.119" y2="72.456"/>
		
			<line style="clip-path:url(#SVGID_34_);fill:none;stroke:#000000;stroke-width:0;stroke-miterlimit:1;" x1="298.119" y1="72.456" x2="297.762" y2="74.772"/>
		
			<line style="clip-path:url(#SVGID_34_);fill:none;stroke:#000000;stroke-width:0;stroke-miterlimit:1;" x1="297.762" y1="74.772" x2="298.475" y2="78.158"/>
		
			<line style="clip-path:url(#SVGID_34_);fill:none;stroke:#000000;stroke-width:0;stroke-miterlimit:1;" x1="298.475" y1="78.158" x2="300.08" y2="80.296"/>
		
			<line style="clip-path:url(#SVGID_34_);fill:none;stroke:#000000;stroke-width:0;stroke-miterlimit:1;" x1="300.08" y1="80.296" x2="301.683" y2="81.722"/>
		
			<line style="clip-path:url(#SVGID_34_);fill:none;stroke:#000000;stroke-width:0;stroke-miterlimit:1;" x1="301.683" y1="81.722" x2="304.535" y2="82.613"/>
		
			<line style="clip-path:url(#SVGID_34_);fill:none;stroke:#000000;stroke-width:0;stroke-miterlimit:1;" x1="304.535" y1="82.613" x2="306.673" y2="83.148"/>
		
			<line style="clip-path:url(#SVGID_34_);fill:none;stroke:#000000;stroke-width:0;stroke-miterlimit:1;" x1="306.673" y1="83.148" x2="309.346" y2="83.148"/>
		
			<line style="clip-path:url(#SVGID_34_);fill:none;stroke:#000000;stroke-width:0;stroke-miterlimit:1;" x1="309.346" y1="83.148" x2="312.197" y2="82.079"/>
		
			<line style="clip-path:url(#SVGID_34_);fill:none;stroke:#000000;stroke-width:0;stroke-miterlimit:1;" x1="312.197" y1="82.079" x2="314.514" y2="80.831"/>
		
			<line style="clip-path:url(#SVGID_34_);fill:none;stroke:#000000;stroke-width:0;stroke-miterlimit:1;" x1="314.514" y1="80.831" x2="315.94" y2="79.227"/>
		
			<line style="clip-path:url(#SVGID_34_);fill:none;stroke:#000000;stroke-width:0;stroke-miterlimit:1;" x1="315.94" y1="79.227" x2="317.721" y2="76.732"/>
		
			<line style="clip-path:url(#SVGID_34_);fill:none;stroke:#000000;stroke-width:0;stroke-miterlimit:1;" x1="317.721" y1="76.732" x2="318.791" y2="73.881"/>
		
			<line style="clip-path:url(#SVGID_34_);fill:none;stroke:#000000;stroke-width:0;stroke-miterlimit:1;" x1="318.791" y1="73.881" x2="319.503" y2="71.564"/>
		
			<line style="clip-path:url(#SVGID_34_);fill:none;stroke:#000000;stroke-width:0;stroke-miterlimit:1;" x1="319.503" y1="71.564" x2="319.682" y2="69.248"/>
		
			<line style="clip-path:url(#SVGID_34_);fill:none;stroke:#000000;stroke-width:0;stroke-miterlimit:1;" x1="319.682" y1="69.248" x2="319.503" y2="67.466"/>
		
			<line style="clip-path:url(#SVGID_34_);fill:none;stroke:#000000;stroke-width:0;stroke-miterlimit:1;" x1="319.503" y1="67.466" x2="318.969" y2="64.615"/>
		
			<line style="clip-path:url(#SVGID_34_);fill:none;stroke:#000000;stroke-width:0;stroke-miterlimit:1;" x1="318.969" y1="64.615" x2="317.9" y2="62.298"/>
		
			<line style="clip-path:url(#SVGID_34_);fill:none;stroke:#000000;stroke-width:0;stroke-miterlimit:1;" x1="317.9" y1="62.298" x2="315.94" y2="59.981"/>
		
			<line style="clip-path:url(#SVGID_34_);fill:none;stroke:#000000;stroke-width:0;stroke-miterlimit:1;" x1="315.94" y1="59.981" x2="313.979" y2="58.199"/>
		
			<line style="clip-path:url(#SVGID_34_);fill:none;stroke:#000000;stroke-width:0;stroke-miterlimit:1;" x1="313.979" y1="58.199" x2="312.375" y2="57.486"/>
		
			<line style="clip-path:url(#SVGID_34_);fill:none;stroke:#000000;stroke-width:0;stroke-miterlimit:1;" x1="312.375" y1="57.486" x2="310.772" y2="56.952"/>
		
			<line style="clip-path:url(#SVGID_34_);fill:none;stroke:#000000;stroke-width:0;stroke-miterlimit:1;" x1="310.772" y1="56.952" x2="308.277" y2="56.595"/>
		
			<line style="clip-path:url(#SVGID_34_);fill:none;stroke:#000000;stroke-width:0;stroke-miterlimit:1;" x1="308.277" y1="56.595" x2="306.495" y2="56.417"/>
		
			<line style="clip-path:url(#SVGID_34_);fill:none;stroke:#000000;stroke-width:0;stroke-miterlimit:1;" x1="306.495" y1="56.417" x2="304.178" y2="56.417"/>
		
			<line style="clip-path:url(#SVGID_34_);fill:none;stroke:#000000;stroke-width:0;stroke-miterlimit:1;" x1="304.178" y1="56.417" x2="301.149" y2="56.595"/>
		
			<line style="clip-path:url(#SVGID_34_);fill:none;stroke:#000000;stroke-width:0;stroke-miterlimit:1;" x1="301.149" y1="56.595" x2="298.119" y2="57.486"/>
		
			<line style="clip-path:url(#SVGID_34_);fill:none;stroke:#000000;stroke-width:0;stroke-miterlimit:1;" x1="298.119" y1="57.486" x2="295.625" y2="58.912"/>
		
			<line style="clip-path:url(#SVGID_34_);fill:none;stroke:#000000;stroke-width:0;stroke-miterlimit:1;" x1="295.625" y1="58.912" x2="293.842" y2="60.516"/>
		
			<line style="clip-path:url(#SVGID_34_);fill:none;stroke:#000000;stroke-width:0;stroke-miterlimit:1;" x1="293.842" y1="60.516" x2="291.882" y2="62.12"/>
		
			<line style="clip-path:url(#SVGID_34_);fill:none;stroke:#000000;stroke-width:0;stroke-miterlimit:1;" x1="291.882" y1="62.12" x2="290.634" y2="63.724"/>
		
			<line style="clip-path:url(#SVGID_34_);fill:none;stroke:#000000;stroke-width:0;stroke-miterlimit:1;" x1="290.634" y1="63.724" x2="289.031" y2="66.396"/>
		
			<line style="clip-path:url(#SVGID_34_);fill:none;stroke:#000000;stroke-width:0;stroke-miterlimit:1;" x1="289.031" y1="66.396" x2="287.784" y2="68.892"/>
		
			<line style="clip-path:url(#SVGID_34_);fill:none;stroke:#000000;stroke-width:0;stroke-miterlimit:1;" x1="287.784" y1="68.892" x2="287.249" y2="71.386"/>
		
			<line style="clip-path:url(#SVGID_34_);fill:none;stroke:#000000;stroke-width:0;stroke-miterlimit:1;" x1="287.249" y1="71.386" x2="286.714" y2="74.594"/>
		
			<line style="clip-path:url(#SVGID_34_);fill:none;stroke:#000000;stroke-width:0;stroke-miterlimit:1;" x1="286.714" y1="74.594" x2="286.536" y2="77.98"/>
		
			<line style="clip-path:url(#SVGID_34_);fill:none;stroke:#000000;stroke-width:0;stroke-miterlimit:1;" x1="286.536" y1="77.98" x2="286.714" y2="80.653"/>
		
			<line style="clip-path:url(#SVGID_34_);fill:none;stroke:#000000;stroke-width:0;stroke-miterlimit:1;" x1="286.714" y1="80.653" x2="287.071" y2="84.395"/>
		
			<line style="clip-path:url(#SVGID_34_);fill:none;stroke:#000000;stroke-width:0;stroke-miterlimit:1;" x1="287.071" y1="84.395" x2="288.496" y2="88.137"/>
		
			<line style="clip-path:url(#SVGID_34_);fill:none;stroke:#000000;stroke-width:0;stroke-miterlimit:1;" x1="288.496" y1="88.137" x2="290.457" y2="92.592"/>
		
			<line style="clip-path:url(#SVGID_34_);fill:none;stroke:#000000;stroke-width:0;stroke-miterlimit:1;" x1="290.457" y1="92.592" x2="294.376" y2="97.404"/>
		
			<line style="clip-path:url(#SVGID_34_);fill:none;stroke:#000000;stroke-width:0;stroke-miterlimit:1;" x1="294.376" y1="97.404" x2="300.257" y2="103.107"/>
		
			<line style="clip-path:url(#SVGID_34_);fill:none;stroke:#000000;stroke-width:0;stroke-miterlimit:1;" x1="300.257" y1="103.107" x2="308.811" y2="110.056"/>
		
			<line style="clip-path:url(#SVGID_34_);fill:none;stroke:#000000;stroke-width:0;stroke-miterlimit:1;" x1="308.811" y1="110.056" x2="327.344" y2="120.571"/>
	</g>
	<g>
		<defs>
			<polygon id="SVGID_35_" points="0,491.184 782.566,491.184 782.566,0 0,0 0,491.184 			"/>
		</defs>
		<clipPath id="SVGID_36_">
			<use xlink:href="#SVGID_35_"  style="overflow:visible;"/>
		</clipPath>
		
			<line style="clip-path:url(#SVGID_36_);fill:none;stroke:#000000;stroke-width:0;stroke-miterlimit:1;" x1="237.842" y1="71.743" x2="360.916" y2="71.743"/>
	</g>
</g>
</svg>
