<?xml version="1.0" encoding="iso-8859-1"?>
<!-- Generator: Adobe Illustrator 16.0.1, SVG Export Plug-In . SVG Version: 6.00 Build 0)  -->
<!DOCTYPE svg PUBLIC "-//W3C//DTD SVG 1.1//EN" "http://www.w3.org/Graphics/SVG/1.1/DTD/svg11.dtd">
<svg version="1.1" id="Ebene_1" xmlns="http://www.w3.org/2000/svg" xmlns:xlink="http://www.w3.org/1999/xlink" x="0px" y="0px"
	 width="132.645px" height="148.114px" viewBox="0 0 132.645 148.114" style="enable-background:new 0 0 132.645 148.114;"
	 xml:space="preserve">
<g>
	<line style="fill:none;stroke:#000000;stroke-miterlimit:1;" x1="71.753" y1="39.497" x2="64.512" y2="38.839"/>
	<line style="fill:none;stroke:#000000;stroke-miterlimit:1;" x1="64.512" y1="38.839" x2="52.992" y2="39.497"/>
	<line style="fill:none;stroke:#000000;stroke-miterlimit:1;" x1="52.992" y1="39.497" x2="44.434" y2="38.51"/>
	<line style="fill:none;stroke:#000000;stroke-miterlimit:1;" x1="44.434" y1="38.51" x2="41.801" y2="39.497"/>
	<line style="fill:none;stroke:#000000;stroke-miterlimit:1;" x1="41.801" y1="39.497" x2="39.826" y2="42.13"/>
	<line style="fill:none;stroke:#000000;stroke-miterlimit:1;" x1="39.826" y1="42.13" x2="40.484" y2="46.738"/>
	<line style="fill:none;stroke:#000000;stroke-miterlimit:1;" x1="40.484" y1="46.738" x2="43.776" y2="57.271"/>
	<line style="fill:none;stroke:#000000;stroke-miterlimit:1;" x1="43.776" y1="57.271" x2="50.03" y2="67.474"/>
	<line style="fill:none;stroke:#000000;stroke-miterlimit:1;" x1="50.03" y1="67.474" x2="70.437" y2="91.831"/>
	<line style="fill:none;stroke:#000000;stroke-miterlimit:1;" x1="70.437" y1="91.831" x2="80.969" y2="101.705"/>
	<line style="fill:none;stroke:#000000;stroke-miterlimit:1;" x1="80.969" y1="101.705" x2="96.109" y2="115.858"/>
	<line style="fill:none;stroke:#000000;stroke-miterlimit:1;" x1="96.109" y1="115.858" x2="128.365" y2="147.456"/>
	<line style="fill:none;stroke:#000000;stroke-miterlimit:1;" x1="128.365" y1="147.456" x2="131.657" y2="147.456"/>
	<line style="fill:none;stroke:#000000;stroke-miterlimit:1;" x1="131.657" y1="147.456" x2="132.645" y2="145.811"/>
	<line style="fill:none;stroke:#000000;stroke-miterlimit:1;" x1="132.645" y1="145.811" x2="131.328" y2="142.848"/>
	<line style="fill:none;stroke:#000000;stroke-miterlimit:1;" x1="131.328" y1="142.848" x2="117.504" y2="111.25"/>
	<line style="fill:none;stroke:#000000;stroke-miterlimit:1;" x1="117.504" y1="111.25" x2="115.529" y2="105.326"/>
	<line style="fill:none;stroke:#000000;stroke-miterlimit:1;" x1="115.529" y1="105.326" x2="104.996" y2="79.981"/>
	<line style="fill:none;stroke:#000000;stroke-miterlimit:1;" x1="104.996" y1="79.981" x2="95.451" y2="63.524"/>
	<line style="fill:none;stroke:#000000;stroke-miterlimit:1;" x1="95.451" y1="63.524" x2="87.881" y2="52.992"/>
	<line style="fill:none;stroke:#000000;stroke-miterlimit:1;" x1="87.881" y1="52.992" x2="82.285" y2="45.422"/>
	<line style="fill:none;stroke:#000000;stroke-miterlimit:1;" x1="82.285" y1="45.422" x2="77.678" y2="38.181"/>
	<line style="fill:none;stroke:#000000;stroke-miterlimit:1;" x1="77.678" y1="38.181" x2="72.74" y2="31.598"/>
	<line style="fill:none;stroke:#000000;stroke-miterlimit:1;" x1="72.74" y1="31.598" x2="66.816" y2="24.686"/>
	<line style="fill:none;stroke:#000000;stroke-miterlimit:1;" x1="66.816" y1="24.686" x2="60.891" y2="20.736"/>
	<line style="fill:none;stroke:#000000;stroke-miterlimit:1;" x1="60.891" y1="20.736" x2="59.246" y2="13.824"/>
	<line style="fill:none;stroke:#000000;stroke-miterlimit:1;" x1="59.246" y1="13.824" x2="57.929" y2="6.254"/>
	<line style="fill:none;stroke:#000000;stroke-miterlimit:1;" x1="57.929" y1="6.254" x2="55.954" y2="1.316"/>
	<line style="fill:none;stroke:#000000;stroke-miterlimit:1;" x1="55.954" y1="1.316" x2="50.359" y2="0"/>
	<line style="fill:none;stroke:#000000;stroke-miterlimit:1;" x1="50.359" y1="0" x2="41.143" y2="0"/>
	<line style="fill:none;stroke:#000000;stroke-miterlimit:1;" x1="41.143" y1="0" x2="30.939" y2="0.329"/>
	<line style="fill:none;stroke:#000000;stroke-miterlimit:1;" x1="30.939" y1="0.329" x2="26.002" y2="1.646"/>
	<line style="fill:none;stroke:#000000;stroke-miterlimit:1;" x1="26.002" y1="1.646" x2="23.698" y2="2.304"/>
	<line style="fill:none;stroke:#000000;stroke-miterlimit:1;" x1="23.698" y1="2.304" x2="6.912" y2="4.608"/>
	<line style="fill:none;stroke:#000000;stroke-miterlimit:1;" x1="6.912" y1="4.608" x2="1.975" y2="6.912"/>
	<line style="fill:none;stroke:#000000;stroke-miterlimit:1;" x1="1.975" y1="6.912" x2="0.329" y2="9.216"/>
	<line style="fill:none;stroke:#000000;stroke-miterlimit:1;" x1="0.329" y1="9.216" x2="0" y2="13.824"/>
	<line style="fill:none;stroke:#000000;stroke-miterlimit:1;" x1="0" y1="13.824" x2="1.975" y2="10.533"/>
	<line style="fill:none;stroke:#000000;stroke-miterlimit:1;" x1="1.975" y1="10.533" x2="5.266" y2="8.887"/>
	<line style="fill:none;stroke:#000000;stroke-miterlimit:1;" x1="5.266" y1="8.887" x2="15.141" y2="8.887"/>
	<line style="fill:none;stroke:#000000;stroke-miterlimit:1;" x1="15.141" y1="8.887" x2="25.344" y2="9.216"/>
	<line style="fill:none;stroke:#000000;stroke-miterlimit:1;" x1="25.344" y1="9.216" x2="30.61" y2="10.533"/>
	<line style="fill:none;stroke:#000000;stroke-miterlimit:1;" x1="30.61" y1="10.533" x2="26.332" y2="5.266"/>
	<line style="fill:none;stroke:#000000;stroke-miterlimit:1;" x1="26.332" y1="5.266" x2="25.344" y2="1.646"/>
	<line style="fill:none;stroke:#000000;stroke-miterlimit:1;" x1="36.206" y1="8.558" x2="37.193" y2="8.229"/>
	<line style="fill:none;stroke:#000000;stroke-miterlimit:1;" x1="37.193" y1="8.229" x2="37.852" y2="6.583"/>
	<line style="fill:none;stroke:#000000;stroke-miterlimit:1;" x1="37.852" y1="6.583" x2="37.193" y2="4.937"/>
	<line style="fill:none;stroke:#000000;stroke-miterlimit:1;" x1="37.193" y1="4.937" x2="35.876" y2="3.95"/>
	<line style="fill:none;stroke:#000000;stroke-miterlimit:1;" x1="35.876" y1="3.95" x2="34.56" y2="4.937"/>
	<line style="fill:none;stroke:#000000;stroke-miterlimit:1;" x1="34.56" y1="4.937" x2="34.231" y2="6.912"/>
	<line style="fill:none;stroke:#000000;stroke-miterlimit:1;" x1="34.231" y1="6.912" x2="34.889" y2="7.899"/>
	<line style="fill:none;stroke:#000000;stroke-miterlimit:1;" x1="34.889" y1="7.899" x2="35.876" y2="8.558"/>
	<line style="fill:none;stroke:#000000;stroke-miterlimit:1;" x1="1.646" y1="11.849" x2="14.812" y2="11.52"/>
	<line style="fill:none;stroke:#000000;stroke-miterlimit:1;" x1="14.812" y1="11.52" x2="25.015" y2="12.836"/>
	<line style="fill:none;stroke:#000000;stroke-miterlimit:1;" x1="25.015" y1="12.836" x2="27.977" y2="14.482"/>
	<line style="fill:none;stroke:#000000;stroke-miterlimit:1;" x1="27.977" y1="14.482" x2="28.964" y2="17.774"/>
	<line style="fill:none;stroke:#000000;stroke-miterlimit:1;" x1="28.964" y1="17.774" x2="29.293" y2="21.395"/>
	<line style="fill:none;stroke:#000000;stroke-miterlimit:1;" x1="29.293" y1="21.395" x2="26.332" y2="28.635"/>
	<line style="fill:none;stroke:#000000;stroke-miterlimit:1;" x1="26.332" y1="28.635" x2="25.015" y2="37.522"/>
	<line style="fill:none;stroke:#000000;stroke-miterlimit:1;" x1="25.015" y1="37.522" x2="26.661" y2="48.384"/>
	<line style="fill:none;stroke:#000000;stroke-miterlimit:1;" x1="26.661" y1="48.384" x2="27.977" y2="53.321"/>
	<line style="fill:none;stroke:#000000;stroke-miterlimit:1;" x1="27.977" y1="53.321" x2="31.598" y2="63.195"/>
	<line style="fill:none;stroke:#000000;stroke-miterlimit:1;" x1="31.598" y1="63.195" x2="35.876" y2="71.095"/>
	<line style="fill:none;stroke:#000000;stroke-miterlimit:1;" x1="35.876" y1="71.095" x2="46.08" y2="88.539"/>
	<line style="fill:none;stroke:#000000;stroke-miterlimit:1;" x1="46.08" y1="88.539" x2="59.575" y2="114.213"/>
	<line style="fill:none;stroke:#000000;stroke-miterlimit:1;" x1="59.575" y1="114.213" x2="60.891" y2="124.087"/>
	<line style="fill:none;stroke:#000000;stroke-miterlimit:1;" x1="60.891" y1="124.087" x2="59.246" y2="140.873"/>
	<line style="fill:none;stroke:#000000;stroke-miterlimit:1;" x1="59.246" y1="140.873" x2="57.6" y2="142.519"/>
	<line style="fill:none;stroke:#000000;stroke-miterlimit:1;" x1="57.6" y1="142.519" x2="48.055" y2="143.506"/>
	<line style="fill:none;stroke:#000000;stroke-miterlimit:1;" x1="48.055" y1="143.506" x2="36.864" y2="143.177"/>
	<line style="fill:none;stroke:#000000;stroke-miterlimit:1;" x1="36.864" y1="143.177" x2="36.206" y2="144.823"/>
	<line style="fill:none;stroke:#000000;stroke-miterlimit:1;" x1="36.206" y1="144.823" x2="31.269" y2="145.481"/>
	<line style="fill:none;stroke:#000000;stroke-miterlimit:1;" x1="31.269" y1="145.481" x2="30.61" y2="146.469"/>
	<line style="fill:none;stroke:#000000;stroke-miterlimit:1;" x1="30.61" y1="146.469" x2="31.598" y2="147.785"/>
	<line style="fill:none;stroke:#000000;stroke-miterlimit:1;" x1="31.598" y1="147.785" x2="59.904" y2="146.798"/>
	<line style="fill:none;stroke:#000000;stroke-miterlimit:1;" x1="59.904" y1="146.798" x2="89.197" y2="148.114"/>
	<line style="fill:none;stroke:#000000;stroke-miterlimit:1;" x1="89.197" y1="148.114" x2="90.515" y2="146.798"/>
	<line style="fill:none;stroke:#000000;stroke-miterlimit:1;" x1="90.515" y1="146.798" x2="89.855" y2="145.152"/>
	<line style="fill:none;stroke:#000000;stroke-miterlimit:1;" x1="89.855" y1="145.152" x2="85.248" y2="145.152"/>
	<line style="fill:none;stroke:#000000;stroke-miterlimit:1;" x1="85.248" y1="145.152" x2="82.615" y2="142.848"/>
	<line style="fill:none;stroke:#000000;stroke-miterlimit:1;" x1="82.615" y1="142.848" x2="65.829" y2="142.519"/>
	<line style="fill:none;stroke:#000000;stroke-miterlimit:1;" x1="65.829" y1="142.519" x2="63.854" y2="141.202"/>
	<line style="fill:none;stroke:#000000;stroke-miterlimit:1;" x1="63.854" y1="141.202" x2="65.829" y2="120.467"/>
	<line style="fill:none;stroke:#000000;stroke-miterlimit:1;" x1="65.829" y1="120.467" x2="78.007" y2="126.72"/>
	<line style="fill:none;stroke:#000000;stroke-miterlimit:1;" x1="78.007" y1="126.72" x2="84.919" y2="106.313"/>
	<line style="fill:none;stroke:#000000;stroke-miterlimit:1;" x1="84.919" y1="106.313" x2="98.084" y2="139.228"/>
	<line style="fill:none;stroke:#000000;stroke-miterlimit:1;" x1="98.084" y1="139.228" x2="102.692" y2="145.152"/>
	<line style="fill:none;stroke:#000000;stroke-miterlimit:1;" x1="102.692" y1="145.152" x2="107.301" y2="147.785"/>
	<line style="fill:none;stroke:#000000;stroke-miterlimit:1;" x1="107.301" y1="147.785" x2="114.213" y2="147.785"/>
	<line style="fill:none;stroke:#000000;stroke-miterlimit:1;" x1="114.213" y1="147.785" x2="118.162" y2="146.469"/>
	<line style="fill:none;stroke:#000000;stroke-miterlimit:1;" x1="118.162" y1="146.469" x2="119.149" y2="144.494"/>
	<line style="fill:none;stroke:#000000;stroke-miterlimit:1;" x1="119.149" y1="144.494" x2="115.858" y2="135.606"/>
	<line style="fill:none;stroke:#000000;stroke-miterlimit:1;" x1="34.231" y1="68.791" x2="38.51" y2="92.818"/>
	<line style="fill:none;stroke:#000000;stroke-miterlimit:1;" x1="38.51" y1="92.818" x2="38.181" y2="111.25"/>
	<line style="fill:none;stroke:#000000;stroke-miterlimit:1;" x1="38.181" y1="111.25" x2="34.889" y2="130.012"/>
	<line style="fill:none;stroke:#000000;stroke-miterlimit:1;" x1="34.889" y1="130.012" x2="31.927" y2="139.557"/>
	<line style="fill:none;stroke:#000000;stroke-miterlimit:1;" x1="31.927" y1="139.557" x2="29.952" y2="141.86"/>
	<line style="fill:none;stroke:#000000;stroke-miterlimit:1;" x1="29.952" y1="141.86" x2="14.153" y2="142.848"/>
	<line style="fill:none;stroke:#000000;stroke-miterlimit:1;" x1="14.153" y1="142.848" x2="12.507" y2="145.152"/>
	<line style="fill:none;stroke:#000000;stroke-miterlimit:1;" x1="12.507" y1="145.152" x2="8.887" y2="145.481"/>
	<line style="fill:none;stroke:#000000;stroke-miterlimit:1;" x1="8.887" y1="145.481" x2="7.57" y2="146.469"/>
	<line style="fill:none;stroke:#000000;stroke-miterlimit:1;" x1="7.57" y1="146.469" x2="8.887" y2="147.785"/>
	<line style="fill:none;stroke:#000000;stroke-miterlimit:1;" x1="8.887" y1="147.785" x2="21.065" y2="146.798"/>
	<line style="fill:none;stroke:#000000;stroke-miterlimit:1;" x1="21.065" y1="146.798" x2="24.686" y2="147.127"/>
	<line style="fill:none;stroke:#000000;stroke-miterlimit:1;" x1="36.535" y1="143.177" x2="30.939" y2="143.836"/>
	<line style="fill:none;stroke:#000000;stroke-miterlimit:1;" x1="30.939" y1="143.836" x2="30.939" y2="143.836"/>
	<line style="fill:none;stroke:#000000;stroke-miterlimit:1;" x1="30.939" y1="143.836" x2="27.648" y2="144.494"/>
	<line style="fill:none;stroke:#000000;stroke-miterlimit:1;" x1="27.648" y1="144.494" x2="25.673" y2="147.127"/>
	<line style="fill:none;stroke:#000000;stroke-miterlimit:1;" x1="25.673" y1="147.127" x2="26.99" y2="147.785"/>
	<line style="fill:none;stroke:#000000;stroke-miterlimit:1;" x1="26.99" y1="147.785" x2="28.964" y2="145.811"/>
	<line style="fill:none;stroke:#000000;stroke-miterlimit:1;" x1="28.964" y1="145.811" x2="30.939" y2="145.481"/>
	<line style="fill:none;stroke:#000000;stroke-miterlimit:1;" x1="36.206" y1="142.848" x2="43.447" y2="115.858"/>
	<line style="fill:none;stroke:#000000;stroke-miterlimit:1;" x1="43.447" y1="115.858" x2="54.638" y2="122.441"/>
	<line style="fill:none;stroke:#000000;stroke-miterlimit:1;" x1="54.638" y1="122.441" x2="56.941" y2="110.263"/>
	<line style="fill:none;stroke:#000000;stroke-miterlimit:1;" x1="13.166" y1="143.177" x2="7.899" y2="143.836"/>
	<line style="fill:none;stroke:#000000;stroke-miterlimit:1;" x1="7.899" y1="143.836" x2="7.899" y2="143.836"/>
	<line style="fill:none;stroke:#000000;stroke-miterlimit:1;" x1="7.899" y1="143.836" x2="4.608" y2="144.494"/>
	<line style="fill:none;stroke:#000000;stroke-miterlimit:1;" x1="4.608" y1="144.494" x2="2.633" y2="147.127"/>
	<line style="fill:none;stroke:#000000;stroke-miterlimit:1;" x1="2.633" y1="147.127" x2="3.621" y2="147.785"/>
	<line style="fill:none;stroke:#000000;stroke-miterlimit:1;" x1="3.621" y1="147.785" x2="5.924" y2="145.811"/>
	<line style="fill:none;stroke:#000000;stroke-miterlimit:1;" x1="5.924" y1="145.811" x2="8.558" y2="145.481"/>
	<line style="fill:none;stroke:#000000;stroke-miterlimit:1;" x1="83.273" y1="142.848" x2="89.526" y2="143.506"/>
	<line style="fill:none;stroke:#000000;stroke-miterlimit:1;" x1="89.526" y1="143.506" x2="92.489" y2="144.494"/>
	<line style="fill:none;stroke:#000000;stroke-miterlimit:1;" x1="92.489" y1="144.494" x2="94.464" y2="147.127"/>
	<line style="fill:none;stroke:#000000;stroke-miterlimit:1;" x1="94.464" y1="147.127" x2="93.477" y2="147.785"/>
	<line style="fill:none;stroke:#000000;stroke-miterlimit:1;" x1="93.477" y1="147.785" x2="91.173" y2="145.811"/>
	<line style="fill:none;stroke:#000000;stroke-miterlimit:1;" x1="91.173" y1="145.811" x2="89.526" y2="145.481"/>
</g>
</svg>
