<?xml version="1.0" encoding="iso-8859-1"?>
<!-- Generator: Adobe Illustrator 16.0.1, SVG Export Plug-In . SVG Version: 6.00 Build 0)  -->
<!DOCTYPE svg PUBLIC "-//W3C//DTD SVG 1.1//EN" "http://www.w3.org/Graphics/SVG/1.1/DTD/svg11.dtd">
<svg version="1.1" id="Ebene_1" xmlns="http://www.w3.org/2000/svg" xmlns:xlink="http://www.w3.org/1999/xlink" x="0px" y="0px"
	 width="164.406px" height="148.115px" viewBox="0 0 164.406 148.115" style="enable-background:new 0 0 164.406 148.115;"
	 xml:space="preserve">
<g>
	<line style="fill:none;stroke:#000000;stroke-miterlimit:1;" x1="23.795" y1="42.147" x2="85.1" y2="42.147"/>
	<line style="fill:none;stroke:#000000;stroke-miterlimit:1;" x1="85.1" y1="42.147" x2="85.1" y2="44.567"/>
	<line style="fill:none;stroke:#000000;stroke-miterlimit:1;" x1="85.1" y1="44.567" x2="87.52" y2="44.97"/>
	<line style="fill:none;stroke:#000000;stroke-miterlimit:1;" x1="87.52" y1="44.97" x2="91.352" y2="46.18"/>
	<line style="fill:none;stroke:#000000;stroke-miterlimit:1;" x1="91.352" y1="46.18" x2="93.973" y2="47.793"/>
	<line style="fill:none;stroke:#000000;stroke-miterlimit:1;" x1="93.973" y1="47.793" x2="97.401" y2="50.213"/>
	<line style="fill:none;stroke:#000000;stroke-miterlimit:1;" x1="97.401" y1="50.213" x2="100.426" y2="53.44"/>
	<line style="fill:none;stroke:#000000;stroke-miterlimit:1;" x1="100.426" y1="53.44" x2="103.249" y2="57.271"/>
	<line style="fill:none;stroke:#000000;stroke-miterlimit:1;" x1="103.249" y1="57.271" x2="105.266" y2="61.103"/>
	<line style="fill:none;stroke:#000000;stroke-miterlimit:1;" x1="105.266" y1="61.103" x2="107.081" y2="65.943"/>
	<line style="fill:none;stroke:#000000;stroke-miterlimit:1;" x1="107.081" y1="65.943" x2="108.291" y2="70.783"/>
	<line style="fill:none;stroke:#000000;stroke-miterlimit:1;" x1="108.291" y1="70.783" x2="108.896" y2="78.85"/>
	<line style="fill:none;stroke:#000000;stroke-miterlimit:1;" x1="108.896" y1="78.85" x2="108.291" y2="83.084"/>
	<line style="fill:none;stroke:#000000;stroke-miterlimit:1;" x1="108.291" y1="83.084" x2="106.476" y2="87.924"/>
	<line style="fill:none;stroke:#000000;stroke-miterlimit:1;" x1="106.476" y1="87.924" x2="104.258" y2="90.143"/>
	<line style="fill:none;stroke:#000000;stroke-miterlimit:1;" x1="104.258" y1="90.143" x2="102.442" y2="90.545"/>
	<line style="fill:none;stroke:#000000;stroke-miterlimit:1;" x1="102.442" y1="90.545" x2="99.619" y2="90.344"/>
	<line style="fill:none;stroke:#000000;stroke-miterlimit:1;" x1="99.619" y1="90.344" x2="97.401" y2="88.529"/>
	<line style="fill:none;stroke:#000000;stroke-miterlimit:1;" x1="97.401" y1="88.529" x2="96.393" y2="86.311"/>
	<line style="fill:none;stroke:#000000;stroke-miterlimit:1;" x1="96.393" y1="86.311" x2="95.989" y2="83.891"/>
	<line style="fill:none;stroke:#000000;stroke-miterlimit:1;" x1="95.989" y1="83.891" x2="95.788" y2="82.076"/>
	<line style="fill:none;stroke:#000000;stroke-miterlimit:1;" x1="95.788" y1="82.076" x2="96.393" y2="75.824"/>
	<line style="fill:none;stroke:#000000;stroke-miterlimit:1;" x1="96.393" y1="75.824" x2="97.199" y2="68.968"/>
	<line style="fill:none;stroke:#000000;stroke-miterlimit:1;" x1="97.199" y1="68.968" x2="96.595" y2="61.91"/>
	<line style="fill:none;stroke:#000000;stroke-miterlimit:1;" x1="96.595" y1="61.91" x2="94.779" y2="56.868"/>
	<line style="fill:none;stroke:#000000;stroke-miterlimit:1;" x1="94.779" y1="56.868" x2="92.158" y2="52.835"/>
	<line style="fill:none;stroke:#000000;stroke-miterlimit:1;" x1="92.158" y1="52.835" x2="89.536" y2="49.81"/>
	<line style="fill:none;stroke:#000000;stroke-miterlimit:1;" x1="89.536" y1="49.81" x2="86.512" y2="48.6"/>
	<line style="fill:none;stroke:#000000;stroke-miterlimit:1;" x1="86.512" y1="48.6" x2="85.1" y2="48.6"/>
	<line style="fill:none;stroke:#000000;stroke-miterlimit:1;" x1="85.1" y1="48.6" x2="85.1" y2="50.818"/>
	<line style="fill:none;stroke:#000000;stroke-miterlimit:1;" x1="85.1" y1="50.818" x2="77.034" y2="50.818"/>
	<line style="fill:none;stroke:#000000;stroke-miterlimit:1;" x1="77.034" y1="50.818" x2="77.034" y2="55.053"/>
	<line style="fill:none;stroke:#000000;stroke-miterlimit:1;" x1="77.034" y1="55.053" x2="65.136" y2="55.053"/>
	<line style="fill:none;stroke:#000000;stroke-miterlimit:1;" x1="65.136" y1="55.053" x2="65.136" y2="50.818"/>
	<line style="fill:none;stroke:#000000;stroke-miterlimit:1;" x1="65.136" y1="50.818" x2="43.356" y2="50.818"/>
	<line style="fill:none;stroke:#000000;stroke-miterlimit:1;" x1="43.356" y1="50.818" x2="43.356" y2="55.053"/>
	<line style="fill:none;stroke:#000000;stroke-miterlimit:1;" x1="43.356" y1="55.053" x2="31.862" y2="55.053"/>
	<line style="fill:none;stroke:#000000;stroke-miterlimit:1;" x1="31.862" y1="55.053" x2="31.862" y2="50.818"/>
	<line style="fill:none;stroke:#000000;stroke-miterlimit:1;" x1="31.862" y1="50.818" x2="23.795" y2="50.818"/>
	<line style="fill:none;stroke:#000000;stroke-miterlimit:1;" x1="27.425" y1="42.147" x2="35.29" y2="3.63"/>
	<line style="fill:none;stroke:#000000;stroke-miterlimit:1;" x1="35.29" y1="3.63" x2="36.702" y2="1.21"/>
	<line style="fill:none;stroke:#000000;stroke-miterlimit:1;" x1="36.702" y1="1.21" x2="37.71" y2="0.403"/>
	<line style="fill:none;stroke:#000000;stroke-miterlimit:1;" x1="37.71" y1="0.403" x2="38.92" y2="0"/>
	<line style="fill:none;stroke:#000000;stroke-miterlimit:1;" x1="38.92" y1="0" x2="40.735" y2="0"/>
	<line style="fill:none;stroke:#000000;stroke-miterlimit:1;" x1="40.735" y1="0" x2="42.55" y2="1.008"/>
	<line style="fill:none;stroke:#000000;stroke-miterlimit:1;" x1="42.55" y1="1.008" x2="42.953" y2="2.218"/>
	<line style="fill:none;stroke:#000000;stroke-miterlimit:1;" x1="42.953" y1="2.218" x2="42.953" y2="3.63"/>
	<line style="fill:none;stroke:#000000;stroke-miterlimit:1;" x1="35.088" y1="42.147" x2="43.155" y2="3.428"/>
	<line style="fill:none;stroke:#000000;stroke-miterlimit:1;" x1="43.155" y1="3.428" x2="44.163" y2="1.613"/>
	<line style="fill:none;stroke:#000000;stroke-miterlimit:1;" x1="44.163" y1="1.613" x2="45.171" y2="0.605"/>
	<line style="fill:none;stroke:#000000;stroke-miterlimit:1;" x1="45.171" y1="0.605" x2="46.986" y2="0.202"/>
	<line style="fill:none;stroke:#000000;stroke-miterlimit:1;" x1="46.986" y1="0.202" x2="48.801" y2="0.807"/>
	<line style="fill:none;stroke:#000000;stroke-miterlimit:1;" x1="48.801" y1="0.807" x2="49.81" y2="1.613"/>
	<line style="fill:none;stroke:#000000;stroke-miterlimit:1;" x1="49.81" y1="1.613" x2="50.415" y2="2.823"/>
	<line style="fill:none;stroke:#000000;stroke-miterlimit:1;" x1="42.348" y1="42.147" x2="50.213" y2="3.63"/>
	<line style="fill:none;stroke:#000000;stroke-miterlimit:1;" x1="50.213" y1="3.63" x2="51.02" y2="1.815"/>
	<line style="fill:none;stroke:#000000;stroke-miterlimit:1;" x1="51.02" y1="1.815" x2="52.431" y2="0.605"/>
	<line style="fill:none;stroke:#000000;stroke-miterlimit:1;" x1="52.431" y1="0.605" x2="54.044" y2="0.403"/>
	<line style="fill:none;stroke:#000000;stroke-miterlimit:1;" x1="54.044" y1="0.403" x2="55.859" y2="0.605"/>
	<line style="fill:none;stroke:#000000;stroke-miterlimit:1;" x1="55.859" y1="0.605" x2="57.271" y2="1.815"/>
	<line style="fill:none;stroke:#000000;stroke-miterlimit:1;" x1="57.271" y1="1.815" x2="57.674" y2="3.428"/>
	<line style="fill:none;stroke:#000000;stroke-miterlimit:1;" x1="49.608" y1="42.147" x2="57.473" y2="4.033"/>
	<line style="fill:none;stroke:#000000;stroke-miterlimit:1;" x1="57.473" y1="4.033" x2="58.683" y2="1.815"/>
	<line style="fill:none;stroke:#000000;stroke-miterlimit:1;" x1="58.683" y1="1.815" x2="60.094" y2="0.605"/>
	<line style="fill:none;stroke:#000000;stroke-miterlimit:1;" x1="60.094" y1="0.605" x2="62.514" y2="0.403"/>
	<line style="fill:none;stroke:#000000;stroke-miterlimit:1;" x1="62.514" y1="0.403" x2="63.321" y2="0.605"/>
	<line style="fill:none;stroke:#000000;stroke-miterlimit:1;" x1="63.321" y1="0.605" x2="64.531" y2="1.412"/>
	<line style="fill:none;stroke:#000000;stroke-miterlimit:1;" x1="64.531" y1="1.412" x2="65.136" y2="3.428"/>
	<line style="fill:none;stroke:#000000;stroke-miterlimit:1;" x1="57.271" y1="42.147" x2="64.934" y2="4.235"/>
	<line style="fill:none;stroke:#000000;stroke-miterlimit:1;" x1="64.934" y1="4.235" x2="65.741" y2="2.218"/>
	<line style="fill:none;stroke:#000000;stroke-miterlimit:1;" x1="65.741" y1="2.218" x2="66.547" y2="1.008"/>
	<line style="fill:none;stroke:#000000;stroke-miterlimit:1;" x1="66.547" y1="1.008" x2="68.362" y2="0.202"/>
	<line style="fill:none;stroke:#000000;stroke-miterlimit:1;" x1="68.362" y1="0.202" x2="70.581" y2="0.605"/>
	<line style="fill:none;stroke:#000000;stroke-miterlimit:1;" x1="70.581" y1="0.605" x2="72.194" y2="1.613"/>
	<line style="fill:none;stroke:#000000;stroke-miterlimit:1;" x1="72.194" y1="1.613" x2="72.799" y2="3.025"/>
	<line style="fill:none;stroke:#000000;stroke-miterlimit:1;" x1="65.136" y1="42.147" x2="72.396" y2="4.437"/>
	<line style="fill:none;stroke:#000000;stroke-miterlimit:1;" x1="72.396" y1="4.437" x2="73" y2="2.42"/>
	<line style="fill:none;stroke:#000000;stroke-miterlimit:1;" x1="73" y1="2.42" x2="74.21" y2="0.807"/>
	<line style="fill:none;stroke:#000000;stroke-miterlimit:1;" x1="74.21" y1="0.807" x2="76.227" y2="0.403"/>
	<line style="fill:none;stroke:#000000;stroke-miterlimit:1;" x1="76.227" y1="0.403" x2="76.63" y2="0.202"/>
	<line style="fill:none;stroke:#000000;stroke-miterlimit:1;" x1="76.63" y1="0.202" x2="78.445" y2="1.008"/>
	<line style="fill:none;stroke:#000000;stroke-miterlimit:1;" x1="78.445" y1="1.008" x2="79.655" y2="2.218"/>
	<line style="fill:none;stroke:#000000;stroke-miterlimit:1;" x1="79.655" y1="2.218" x2="79.655" y2="3.428"/>
	<line style="fill:none;stroke:#000000;stroke-miterlimit:1;" x1="71.992" y1="42.147" x2="79.655" y2="3.227"/>
	<line style="fill:none;stroke:#000000;stroke-miterlimit:1;" x1="79.655" y1="3.227" x2="80.462" y2="1.613"/>
	<line style="fill:none;stroke:#000000;stroke-miterlimit:1;" x1="80.462" y1="1.613" x2="81.47" y2="0.605"/>
	<line style="fill:none;stroke:#000000;stroke-miterlimit:1;" x1="81.47" y1="0.605" x2="82.68" y2="0.403"/>
	<line style="fill:none;stroke:#000000;stroke-miterlimit:1;" x1="82.68" y1="0.403" x2="84.495" y2="0.403"/>
	<line style="fill:none;stroke:#000000;stroke-miterlimit:1;" x1="84.495" y1="0.403" x2="86.108" y2="1.008"/>
	<line style="fill:none;stroke:#000000;stroke-miterlimit:1;" x1="86.108" y1="1.008" x2="86.915" y2="2.218"/>
	<line style="fill:none;stroke:#000000;stroke-miterlimit:1;" x1="86.915" y1="2.218" x2="87.318" y2="4.235"/>
	<line style="fill:none;stroke:#000000;stroke-miterlimit:1;" x1="87.318" y1="4.235" x2="79.454" y2="42.147"/>
	<line style="fill:none;stroke:#000000;stroke-miterlimit:1;" x1="79.454" y1="42.147" x2="23.795" y2="42.147"/>
	<line style="fill:none;stroke:#000000;stroke-miterlimit:1;" x1="23.795" y1="42.147" x2="23.795" y2="44.769"/>
	<line style="fill:none;stroke:#000000;stroke-miterlimit:1;" x1="23.795" y1="44.769" x2="20.972" y2="45.172"/>
	<line style="fill:none;stroke:#000000;stroke-miterlimit:1;" x1="20.972" y1="45.172" x2="17.141" y2="46.382"/>
	<line style="fill:none;stroke:#000000;stroke-miterlimit:1;" x1="17.141" y1="46.382" x2="14.317" y2="47.995"/>
	<line style="fill:none;stroke:#000000;stroke-miterlimit:1;" x1="14.317" y1="47.995" x2="11.091" y2="50.617"/>
	<line style="fill:none;stroke:#000000;stroke-miterlimit:1;" x1="11.091" y1="50.617" x2="8.066" y2="53.843"/>
	<line style="fill:none;stroke:#000000;stroke-miterlimit:1;" x1="8.066" y1="53.843" x2="3.428" y2="61.708"/>
	<line style="fill:none;stroke:#000000;stroke-miterlimit:1;" x1="3.428" y1="61.708" x2="2.017" y2="66.346"/>
	<line style="fill:none;stroke:#000000;stroke-miterlimit:1;" x1="2.017" y1="66.346" x2="0.605" y2="71.186"/>
	<line style="fill:none;stroke:#000000;stroke-miterlimit:1;" x1="0.605" y1="71.186" x2="0" y2="79.252"/>
	<line style="fill:none;stroke:#000000;stroke-miterlimit:1;" x1="0" y1="79.252" x2="0.605" y2="83.486"/>
	<line style="fill:none;stroke:#000000;stroke-miterlimit:1;" x1="0.605" y1="83.486" x2="2.622" y2="88.125"/>
	<line style="fill:none;stroke:#000000;stroke-miterlimit:1;" x1="2.622" y1="88.125" x2="4.84" y2="90.344"/>
	<line style="fill:none;stroke:#000000;stroke-miterlimit:1;" x1="4.84" y1="90.344" x2="6.453" y2="90.746"/>
	<line style="fill:none;stroke:#000000;stroke-miterlimit:1;" x1="6.453" y1="90.746" x2="9.276" y2="90.545"/>
	<line style="fill:none;stroke:#000000;stroke-miterlimit:1;" x1="9.276" y1="90.545" x2="11.696" y2="88.73"/>
	<line style="fill:none;stroke:#000000;stroke-miterlimit:1;" x1="11.696" y1="88.73" x2="12.503" y2="86.512"/>
	<line style="fill:none;stroke:#000000;stroke-miterlimit:1;" x1="12.503" y1="86.512" x2="12.906" y2="84.092"/>
	<line style="fill:none;stroke:#000000;stroke-miterlimit:1;" x1="12.906" y1="84.092" x2="13.107" y2="82.277"/>
	<line style="fill:none;stroke:#000000;stroke-miterlimit:1;" x1="13.107" y1="82.277" x2="12.503" y2="76.025"/>
	<line style="fill:none;stroke:#000000;stroke-miterlimit:1;" x1="12.503" y1="76.025" x2="11.495" y2="69.169"/>
	<line style="fill:none;stroke:#000000;stroke-miterlimit:1;" x1="11.495" y1="69.169" x2="12.1" y2="62.313"/>
	<line style="fill:none;stroke:#000000;stroke-miterlimit:1;" x1="12.1" y1="62.313" x2="13.713" y2="57.271"/>
	<line style="fill:none;stroke:#000000;stroke-miterlimit:1;" x1="13.713" y1="57.271" x2="16.334" y2="53.037"/>
	<line style="fill:none;stroke:#000000;stroke-miterlimit:1;" x1="16.334" y1="53.037" x2="18.956" y2="50.012"/>
	<line style="fill:none;stroke:#000000;stroke-miterlimit:1;" x1="18.956" y1="50.012" x2="21.779" y2="48.802"/>
	<line style="fill:none;stroke:#000000;stroke-miterlimit:1;" x1="21.779" y1="48.802" x2="23.795" y2="48.6"/>
	<line style="fill:none;stroke:#000000;stroke-miterlimit:1;" x1="23.795" y1="48.6" x2="23.795" y2="50.415"/>
	<line style="fill:none;stroke:#000000;stroke-miterlimit:1;" x1="12.55" y1="109.598" x2="11.744" y2="107.58"/>
	<line style="fill:none;stroke:#000000;stroke-miterlimit:1;" x1="11.744" y1="107.58" x2="10.13" y2="104.354"/>
	<line style="fill:none;stroke:#000000;stroke-miterlimit:1;" x1="10.13" y1="104.354" x2="9.122" y2="102.74"/>
	<line style="fill:none;stroke:#000000;stroke-miterlimit:1;" x1="9.122" y1="102.74" x2="36.346" y2="102.74"/>
	<line style="fill:none;stroke:#000000;stroke-miterlimit:1;" x1="36.346" y1="102.74" x2="34.733" y2="105.564"/>
	<line style="fill:none;stroke:#000000;stroke-miterlimit:1;" x1="34.733" y1="105.564" x2="33.523" y2="108.387"/>
	<line style="fill:none;stroke:#000000;stroke-miterlimit:1;" x1="33.523" y1="108.387" x2="33.12" y2="109.598"/>
	<line style="fill:none;stroke:#000000;stroke-miterlimit:1;" x1="9.324" y1="117.463" x2="3.072" y2="114.033"/>
	<line style="fill:none;stroke:#000000;stroke-miterlimit:1;" x1="3.072" y1="114.033" x2="1.661" y2="118.873"/>
	<line style="fill:none;stroke:#000000;stroke-miterlimit:1;" x1="1.661" y1="118.873" x2="4.887" y2="121.293"/>
	<line style="fill:none;stroke:#000000;stroke-miterlimit:1;" x1="4.887" y1="121.293" x2="7.105" y2="122.906"/>
	<line style="fill:none;stroke:#000000;stroke-miterlimit:1;" x1="7.105" y1="122.906" x2="10.13" y2="126.133"/>
	<line style="fill:none;stroke:#000000;stroke-miterlimit:1;" x1="36.346" y1="117.463" x2="42.396" y2="114.033"/>
	<line style="fill:none;stroke:#000000;stroke-miterlimit:1;" x1="42.396" y1="114.033" x2="44.009" y2="119.076"/>
	<line style="fill:none;stroke:#000000;stroke-miterlimit:1;" x1="44.009" y1="119.076" x2="41.186" y2="120.689"/>
	<line style="fill:none;stroke:#000000;stroke-miterlimit:1;" x1="41.186" y1="120.689" x2="37.959" y2="123.713"/>
	<line style="fill:none;stroke:#000000;stroke-miterlimit:1;" x1="37.959" y1="123.713" x2="35.741" y2="126.133"/>
	<line style="fill:none;stroke:#000000;stroke-miterlimit:1;" x1="13.76" y1="123.713" x2="14.164" y2="122.504"/>
	<line style="fill:none;stroke:#000000;stroke-miterlimit:1;" x1="14.164" y1="122.504" x2="14.97" y2="121.092"/>
	<line style="fill:none;stroke:#000000;stroke-miterlimit:1;" x1="14.97" y1="121.092" x2="16.18" y2="119.68"/>
	<line style="fill:none;stroke:#000000;stroke-miterlimit:1;" x1="16.18" y1="119.68" x2="17.793" y2="118.27"/>
	<line style="fill:none;stroke:#000000;stroke-miterlimit:1;" x1="17.793" y1="118.27" x2="20.617" y2="117.26"/>
	<line style="fill:none;stroke:#000000;stroke-miterlimit:1;" x1="20.617" y1="117.26" x2="22.432" y2="117.059"/>
	<line style="fill:none;stroke:#000000;stroke-miterlimit:1;" x1="22.432" y1="117.059" x2="24.65" y2="117.26"/>
	<line style="fill:none;stroke:#000000;stroke-miterlimit:1;" x1="24.65" y1="117.26" x2="27.07" y2="118.066"/>
	<line style="fill:none;stroke:#000000;stroke-miterlimit:1;" x1="27.07" y1="118.066" x2="29.086" y2="119.277"/>
	<line style="fill:none;stroke:#000000;stroke-miterlimit:1;" x1="29.086" y1="119.277" x2="30.095" y2="120.689"/>
	<line style="fill:none;stroke:#000000;stroke-miterlimit:1;" x1="30.095" y1="120.689" x2="31.103" y2="121.898"/>
	<line style="fill:none;stroke:#000000;stroke-miterlimit:1;" x1="31.103" y1="121.898" x2="31.91" y2="124.117"/>
	<line style="fill:none;stroke:#000000;stroke-miterlimit:1;" x1="31.91" y1="124.117" x2="28.683" y2="122.1"/>
	<line style="fill:none;stroke:#000000;stroke-miterlimit:1;" x1="28.683" y1="122.1" x2="26.263" y2="121.293"/>
	<line style="fill:none;stroke:#000000;stroke-miterlimit:1;" x1="26.263" y1="121.293" x2="24.247" y2="120.689"/>
	<line style="fill:none;stroke:#000000;stroke-miterlimit:1;" x1="24.247" y1="120.689" x2="22.633" y2="120.486"/>
	<line style="fill:none;stroke:#000000;stroke-miterlimit:1;" x1="22.633" y1="120.486" x2="20.617" y2="120.891"/>
	<line style="fill:none;stroke:#000000;stroke-miterlimit:1;" x1="20.617" y1="120.891" x2="18.6" y2="121.293"/>
	<line style="fill:none;stroke:#000000;stroke-miterlimit:1;" x1="18.6" y1="121.293" x2="16.18" y2="122.504"/>
	<line style="fill:none;stroke:#000000;stroke-miterlimit:1;" x1="16.18" y1="122.504" x2="14.567" y2="123.713"/>
	<line style="fill:none;stroke:#000000;stroke-miterlimit:1;" x1="14.567" y1="123.713" x2="13.76" y2="124.117"/>
	<line style="fill:none;stroke:#000000;stroke-miterlimit:1;" x1="14.97" y1="145.291" x2="18.197" y2="132.184"/>
	<line style="fill:none;stroke:#000000;stroke-miterlimit:1;" x1="18.197" y1="132.184" x2="19.608" y2="130.369"/>
	<line style="fill:none;stroke:#000000;stroke-miterlimit:1;" x1="19.608" y1="130.369" x2="21.02" y2="129.764"/>
	<line style="fill:none;stroke:#000000;stroke-miterlimit:1;" x1="21.02" y1="129.764" x2="22.633" y2="129.359"/>
	<line style="fill:none;stroke:#000000;stroke-miterlimit:1;" x1="22.633" y1="129.359" x2="24.852" y2="129.764"/>
	<line style="fill:none;stroke:#000000;stroke-miterlimit:1;" x1="24.852" y1="129.764" x2="26.465" y2="130.973"/>
	<line style="fill:none;stroke:#000000;stroke-miterlimit:1;" x1="26.465" y1="130.973" x2="27.271" y2="132.385"/>
	<line style="fill:none;stroke:#000000;stroke-miterlimit:1;" x1="27.271" y1="132.385" x2="30.7" y2="145.492"/>
	<line style="fill:none;stroke:#000000;stroke-miterlimit:1;" x1="23.037" y1="148.115" x2="20.012" y2="147.912"/>
	<line style="fill:none;stroke:#000000;stroke-miterlimit:1;" x1="20.012" y1="147.912" x2="18.6" y2="147.51"/>
	<line style="fill:none;stroke:#000000;stroke-miterlimit:1;" x1="18.6" y1="147.51" x2="17.39" y2="147.309"/>
	<line style="fill:none;stroke:#000000;stroke-miterlimit:1;" x1="17.39" y1="147.309" x2="15.374" y2="146.299"/>
	<line style="fill:none;stroke:#000000;stroke-miterlimit:1;" x1="15.374" y1="146.299" x2="13.962" y2="144.484"/>
	<line style="fill:none;stroke:#000000;stroke-miterlimit:1;" x1="13.962" y1="144.484" x2="12.752" y2="142.67"/>
	<line style="fill:none;stroke:#000000;stroke-miterlimit:1;" x1="12.752" y1="142.67" x2="11.945" y2="140.652"/>
	<line style="fill:none;stroke:#000000;stroke-miterlimit:1;" x1="11.945" y1="140.652" x2="11.34" y2="138.232"/>
	<line style="fill:none;stroke:#000000;stroke-miterlimit:1;" x1="11.34" y1="138.232" x2="10.534" y2="135.006"/>
	<line style="fill:none;stroke:#000000;stroke-miterlimit:1;" x1="10.534" y1="135.006" x2="9.324" y2="118.066"/>
	<line style="fill:none;stroke:#000000;stroke-miterlimit:1;" x1="9.324" y1="118.066" x2="9.525" y2="115.043"/>
	<line style="fill:none;stroke:#000000;stroke-miterlimit:1;" x1="9.525" y1="115.043" x2="9.929" y2="113.631"/>
	<line style="fill:none;stroke:#000000;stroke-miterlimit:1;" x1="9.929" y1="113.631" x2="10.13" y2="112.42"/>
	<line style="fill:none;stroke:#000000;stroke-miterlimit:1;" x1="10.13" y1="112.42" x2="11.139" y2="110.807"/>
	<line style="fill:none;stroke:#000000;stroke-miterlimit:1;" x1="11.139" y1="110.807" x2="12.349" y2="109.598"/>
	<line style="fill:none;stroke:#000000;stroke-miterlimit:1;" x1="12.349" y1="109.598" x2="14.365" y2="108.387"/>
	<line style="fill:none;stroke:#000000;stroke-miterlimit:1;" x1="14.365" y1="108.387" x2="16.18" y2="107.783"/>
	<line style="fill:none;stroke:#000000;stroke-miterlimit:1;" x1="16.18" y1="107.783" x2="17.793" y2="107.58"/>
	<line style="fill:none;stroke:#000000;stroke-miterlimit:1;" x1="17.793" y1="107.58" x2="22.633" y2="107.178"/>
	<line style="fill:none;stroke:#000000;stroke-miterlimit:1;" x1="22.633" y1="107.178" x2="28.28" y2="107.58"/>
	<line style="fill:none;stroke:#000000;stroke-miterlimit:1;" x1="28.28" y1="107.58" x2="30.7" y2="107.984"/>
	<line style="fill:none;stroke:#000000;stroke-miterlimit:1;" x1="30.7" y1="107.984" x2="32.716" y2="109.193"/>
	<line style="fill:none;stroke:#000000;stroke-miterlimit:1;" x1="32.716" y1="109.193" x2="33.926" y2="110"/>
	<line style="fill:none;stroke:#000000;stroke-miterlimit:1;" x1="33.926" y1="110" x2="34.935" y2="111.613"/>
	<line style="fill:none;stroke:#000000;stroke-miterlimit:1;" x1="34.935" y1="111.613" x2="35.943" y2="114.84"/>
	<line style="fill:none;stroke:#000000;stroke-miterlimit:1;" x1="35.943" y1="114.84" x2="36.145" y2="117.463"/>
	<line style="fill:none;stroke:#000000;stroke-miterlimit:1;" x1="36.145" y1="117.463" x2="35.136" y2="132.184"/>
	<line style="fill:none;stroke:#000000;stroke-miterlimit:1;" x1="35.136" y1="132.184" x2="34.733" y2="136.217"/>
	<line style="fill:none;stroke:#000000;stroke-miterlimit:1;" x1="34.733" y1="136.217" x2="33.523" y2="140.652"/>
	<line style="fill:none;stroke:#000000;stroke-miterlimit:1;" x1="33.523" y1="140.652" x2="32.716" y2="142.67"/>
	<line style="fill:none;stroke:#000000;stroke-miterlimit:1;" x1="32.716" y1="142.67" x2="31.506" y2="144.686"/>
	<line style="fill:none;stroke:#000000;stroke-miterlimit:1;" x1="31.506" y1="144.686" x2="30.7" y2="145.695"/>
	<line style="fill:none;stroke:#000000;stroke-miterlimit:1;" x1="30.7" y1="145.695" x2="29.49" y2="146.703"/>
	<line style="fill:none;stroke:#000000;stroke-miterlimit:1;" x1="29.49" y1="146.703" x2="28.078" y2="147.51"/>
	<line style="fill:none;stroke:#000000;stroke-miterlimit:1;" x1="28.078" y1="147.51" x2="26.263" y2="147.912"/>
	<line style="fill:none;stroke:#000000;stroke-miterlimit:1;" x1="26.263" y1="147.912" x2="23.037" y2="148.115"/>
	<line style="fill:none;stroke:#000000;stroke-miterlimit:1;" x1="89.52" y1="100.914" x2="89.52" y2="147.789"/>
	<line style="fill:none;stroke:#000000;stroke-miterlimit:1;" x1="89.52" y1="147.789" x2="99.937" y2="147.789"/>
	<line style="fill:none;stroke:#000000;stroke-miterlimit:1;" x1="99.937" y1="147.789" x2="99.937" y2="100.914"/>
	<line style="fill:none;stroke:#000000;stroke-miterlimit:1;" x1="99.937" y1="100.914" x2="89.52" y2="100.914"/>
	<line style="fill:none;stroke:#000000;stroke-miterlimit:1;" x1="164.406" y1="138.898" x2="163.09" y2="135.277"/>
	<line style="fill:none;stroke:#000000;stroke-miterlimit:1;" x1="163.09" y1="135.277" x2="160.786" y2="131.328"/>
	<line style="fill:none;stroke:#000000;stroke-miterlimit:1;" x1="160.786" y1="131.328" x2="156.178" y2="129.682"/>
	<line style="fill:none;stroke:#000000;stroke-miterlimit:1;" x1="156.178" y1="129.682" x2="151.57" y2="129.682"/>
	<line style="fill:none;stroke:#000000;stroke-miterlimit:1;" x1="151.57" y1="129.682" x2="147.62" y2="131.658"/>
	<line style="fill:none;stroke:#000000;stroke-miterlimit:1;" x1="147.62" y1="131.658" x2="145.316" y2="135.277"/>
	<line style="fill:none;stroke:#000000;stroke-miterlimit:1;" x1="145.316" y1="135.277" x2="144.658" y2="140.545"/>
	<line style="fill:none;stroke:#000000;stroke-miterlimit:1;" x1="144.658" y1="140.545" x2="146.633" y2="145.152"/>
	<line style="fill:none;stroke:#000000;stroke-miterlimit:1;" x1="146.633" y1="145.152" x2="148.937" y2="146.799"/>
	<line style="fill:none;stroke:#000000;stroke-miterlimit:1;" x1="148.937" y1="146.799" x2="152.558" y2="148.115"/>
	<line style="fill:none;stroke:#000000;stroke-miterlimit:1;" x1="152.558" y1="148.115" x2="158.482" y2="147.785"/>
	<line style="fill:none;stroke:#000000;stroke-miterlimit:1;" x1="158.482" y1="147.785" x2="162.103" y2="144.494"/>
	<line style="fill:none;stroke:#000000;stroke-miterlimit:1;" x1="162.103" y1="144.494" x2="163.748" y2="141.531"/>
	<line style="fill:none;stroke:#000000;stroke-miterlimit:1;" x1="163.748" y1="141.531" x2="164.406" y2="138.568"/>
	<line style="fill:none;stroke:#000000;stroke-miterlimit:1;" x1="164.077" y1="74.386" x2="163.419" y2="71.095"/>
	<line style="fill:none;stroke:#000000;stroke-miterlimit:1;" x1="163.419" y1="71.095" x2="161.773" y2="67.804"/>
	<line style="fill:none;stroke:#000000;stroke-miterlimit:1;" x1="161.773" y1="67.804" x2="158.812" y2="65.829"/>
	<line style="fill:none;stroke:#000000;stroke-miterlimit:1;" x1="158.812" y1="65.829" x2="153.874" y2="64.841"/>
	<line style="fill:none;stroke:#000000;stroke-miterlimit:1;" x1="153.874" y1="64.841" x2="148.278" y2="66.158"/>
	<line style="fill:none;stroke:#000000;stroke-miterlimit:1;" x1="148.278" y1="66.158" x2="144.987" y2="70.107"/>
	<line style="fill:none;stroke:#000000;stroke-miterlimit:1;" x1="144.987" y1="70.107" x2="144.329" y2="75.373"/>
	<line style="fill:none;stroke:#000000;stroke-miterlimit:1;" x1="144.329" y1="75.373" x2="145.316" y2="79.324"/>
	<line style="fill:none;stroke:#000000;stroke-miterlimit:1;" x1="145.316" y1="79.324" x2="148.607" y2="82.285"/>
	<line style="fill:none;stroke:#000000;stroke-miterlimit:1;" x1="148.607" y1="82.285" x2="152.887" y2="83.932"/>
	<line style="fill:none;stroke:#000000;stroke-miterlimit:1;" x1="152.887" y1="83.932" x2="155.849" y2="83.602"/>
	<line style="fill:none;stroke:#000000;stroke-miterlimit:1;" x1="155.849" y1="83.602" x2="160.128" y2="82.285"/>
	<line style="fill:none;stroke:#000000;stroke-miterlimit:1;" x1="160.128" y1="82.285" x2="162.761" y2="79.324"/>
	<line style="fill:none;stroke:#000000;stroke-miterlimit:1;" x1="162.761" y1="79.324" x2="164.077" y2="74.386"/>
	<line style="fill:none;stroke:#000000;stroke-miterlimit:1;" x1="163.419" y1="9.545" x2="162.432" y2="5.267"/>
	<line style="fill:none;stroke:#000000;stroke-miterlimit:1;" x1="162.432" y1="5.267" x2="158.482" y2="1.646"/>
	<line style="fill:none;stroke:#000000;stroke-miterlimit:1;" x1="158.482" y1="1.646" x2="153.545" y2="0"/>
	<line style="fill:none;stroke:#000000;stroke-miterlimit:1;" x1="153.545" y1="0" x2="148.607" y2="1.646"/>
	<line style="fill:none;stroke:#000000;stroke-miterlimit:1;" x1="148.607" y1="1.646" x2="145.316" y2="4.279"/>
	<line style="fill:none;stroke:#000000;stroke-miterlimit:1;" x1="145.316" y1="4.279" x2="144" y2="7.57"/>
	<line style="fill:none;stroke:#000000;stroke-miterlimit:1;" x1="144" y1="7.57" x2="144.329" y2="11.191"/>
	<line style="fill:none;stroke:#000000;stroke-miterlimit:1;" x1="144.329" y1="11.191" x2="146.304" y2="16.458"/>
	<line style="fill:none;stroke:#000000;stroke-miterlimit:1;" x1="146.304" y1="16.458" x2="149.596" y2="18.432"/>
	<line style="fill:none;stroke:#000000;stroke-miterlimit:1;" x1="149.596" y1="18.432" x2="152.558" y2="19.09"/>
	<line style="fill:none;stroke:#000000;stroke-miterlimit:1;" x1="152.558" y1="19.09" x2="157.495" y2="18.432"/>
	<line style="fill:none;stroke:#000000;stroke-miterlimit:1;" x1="157.495" y1="18.432" x2="161.115" y2="15.799"/>
	<line style="fill:none;stroke:#000000;stroke-miterlimit:1;" x1="161.115" y1="15.799" x2="162.761" y2="12.837"/>
	<line style="fill:none;stroke:#000000;stroke-miterlimit:1;" x1="162.761" y1="12.837" x2="163.419" y2="9.545"/>
</g>
</svg>
