<?xml version="1.0" encoding="iso-8859-1"?>
<!-- Generator: Adobe Illustrator 16.0.1, SVG Export Plug-In . SVG Version: 6.00 Build 0)  -->
<!DOCTYPE svg PUBLIC "-//W3C//DTD SVG 1.1//EN" "http://www.w3.org/Graphics/SVG/1.1/DTD/svg11.dtd">
<svg version="1.1" id="Ebene_1" xmlns="http://www.w3.org/2000/svg" xmlns:xlink="http://www.w3.org/1999/xlink" x="0px" y="0px"
	 width="344.232px" height="207.545px" viewBox="0 0 344.232 207.545" style="enable-background:new 0 0 344.232 207.545;"
	 xml:space="preserve">
<g>
	<g>
		<defs>
			<polygon id="SVGID_1_" points="0,145.524 130.071,145.524 130.071,0 0,0 0,145.524 			"/>
		</defs>
		<clipPath id="SVGID_2_">
			<use xlink:href="#SVGID_1_"  style="overflow:visible;"/>
		</clipPath>
		
			<line style="clip-path:url(#SVGID_2_);fill:none;stroke:#000000;stroke-width:0;stroke-miterlimit:1;" x1="34.096" y1="20.155" x2="30.966" y2="19.871"/>
		
			<line style="clip-path:url(#SVGID_2_);fill:none;stroke:#000000;stroke-width:0;stroke-miterlimit:1;" x1="30.966" y1="19.871" x2="25.988" y2="20.155"/>
		
			<line style="clip-path:url(#SVGID_2_);fill:none;stroke:#000000;stroke-width:0;stroke-miterlimit:1;" x1="25.988" y1="20.155" x2="22.289" y2="19.729"/>
		
			<line style="clip-path:url(#SVGID_2_);fill:none;stroke:#000000;stroke-width:0;stroke-miterlimit:1;" x1="22.289" y1="19.729" x2="21.151" y2="20.155"/>
		
			<line style="clip-path:url(#SVGID_2_);fill:none;stroke:#000000;stroke-width:0;stroke-miterlimit:1;" x1="21.151" y1="20.155" x2="20.298" y2="21.293"/>
		
			<line style="clip-path:url(#SVGID_2_);fill:none;stroke:#000000;stroke-width:0;stroke-miterlimit:1;" x1="20.298" y1="21.293" x2="20.582" y2="23.285"/>
		
			<line style="clip-path:url(#SVGID_2_);fill:none;stroke:#000000;stroke-width:0;stroke-miterlimit:1;" x1="20.582" y1="23.285" x2="22.005" y2="27.837"/>
		
			<line style="clip-path:url(#SVGID_2_);fill:none;stroke:#000000;stroke-width:0;stroke-miterlimit:1;" x1="22.005" y1="27.837" x2="24.708" y2="32.247"/>
		
			<line style="clip-path:url(#SVGID_2_);fill:none;stroke:#000000;stroke-width:0;stroke-miterlimit:1;" x1="24.708" y1="32.247" x2="33.527" y2="42.773"/>
		
			<line style="clip-path:url(#SVGID_2_);fill:none;stroke:#000000;stroke-width:0;stroke-miterlimit:1;" x1="33.527" y1="42.773" x2="38.079" y2="47.04"/>
		
			<line style="clip-path:url(#SVGID_2_);fill:none;stroke:#000000;stroke-width:0;stroke-miterlimit:1;" x1="38.079" y1="47.04" x2="44.623" y2="53.157"/>
		
			<line style="clip-path:url(#SVGID_2_);fill:none;stroke:#000000;stroke-width:0;stroke-miterlimit:1;" x1="44.623" y1="53.157" x2="58.563" y2="66.813"/>
		
			<line style="clip-path:url(#SVGID_2_);fill:none;stroke:#000000;stroke-width:0;stroke-miterlimit:1;" x1="58.563" y1="66.813" x2="59.985" y2="66.813"/>
		
			<line style="clip-path:url(#SVGID_2_);fill:none;stroke:#000000;stroke-width:0;stroke-miterlimit:1;" x1="59.985" y1="66.813" x2="60.412" y2="66.102"/>
		
			<line style="clip-path:url(#SVGID_2_);fill:none;stroke:#000000;stroke-width:0;stroke-miterlimit:1;" x1="60.412" y1="66.102" x2="59.843" y2="64.821"/>
		
			<line style="clip-path:url(#SVGID_2_);fill:none;stroke:#000000;stroke-width:0;stroke-miterlimit:1;" x1="59.843" y1="64.821" x2="53.869" y2="51.166"/>
		
			<line style="clip-path:url(#SVGID_2_);fill:none;stroke:#000000;stroke-width:0;stroke-miterlimit:1;" x1="53.869" y1="51.166" x2="53.015" y2="48.605"/>
		
			<line style="clip-path:url(#SVGID_2_);fill:none;stroke:#000000;stroke-width:0;stroke-miterlimit:1;" x1="53.015" y1="48.605" x2="48.463" y2="37.652"/>
		
			<line style="clip-path:url(#SVGID_2_);fill:none;stroke:#000000;stroke-width:0;stroke-miterlimit:1;" x1="48.463" y1="37.652" x2="44.338" y2="30.54"/>
		
			<line style="clip-path:url(#SVGID_2_);fill:none;stroke:#000000;stroke-width:0;stroke-miterlimit:1;" x1="44.338" y1="30.54" x2="41.066" y2="25.988"/>
		
			<line style="clip-path:url(#SVGID_2_);fill:none;stroke:#000000;stroke-width:0;stroke-miterlimit:1;" x1="41.066" y1="25.988" x2="38.648" y2="22.716"/>
		
			<line style="clip-path:url(#SVGID_2_);fill:none;stroke:#000000;stroke-width:0;stroke-miterlimit:1;" x1="38.648" y1="22.716" x2="36.656" y2="19.586"/>
		
			<line style="clip-path:url(#SVGID_2_);fill:none;stroke:#000000;stroke-width:0;stroke-miterlimit:1;" x1="36.656" y1="19.586" x2="34.522" y2="16.741"/>
		
			<line style="clip-path:url(#SVGID_2_);fill:none;stroke:#000000;stroke-width:0;stroke-miterlimit:1;" x1="34.522" y1="16.741" x2="31.962" y2="13.754"/>
		
			<line style="clip-path:url(#SVGID_2_);fill:none;stroke:#000000;stroke-width:0;stroke-miterlimit:1;" x1="31.962" y1="13.754" x2="29.402" y2="12.047"/>
		
			<line style="clip-path:url(#SVGID_2_);fill:none;stroke:#000000;stroke-width:0;stroke-miterlimit:1;" x1="29.402" y1="12.047" x2="28.69" y2="9.06"/>
		
			<line style="clip-path:url(#SVGID_2_);fill:none;stroke:#000000;stroke-width:0;stroke-miterlimit:1;" x1="28.69" y1="9.06" x2="28.122" y2="5.788"/>
		
			<line style="clip-path:url(#SVGID_2_);fill:none;stroke:#000000;stroke-width:0;stroke-miterlimit:1;" x1="28.122" y1="5.788" x2="27.268" y2="3.654"/>
		
			<line style="clip-path:url(#SVGID_2_);fill:none;stroke:#000000;stroke-width:0;stroke-miterlimit:1;" x1="27.268" y1="3.654" x2="24.85" y2="3.085"/>
		
			<line style="clip-path:url(#SVGID_2_);fill:none;stroke:#000000;stroke-width:0;stroke-miterlimit:1;" x1="24.85" y1="3.085" x2="20.867" y2="3.085"/>
		
			<line style="clip-path:url(#SVGID_2_);fill:none;stroke:#000000;stroke-width:0;stroke-miterlimit:1;" x1="20.867" y1="3.085" x2="16.457" y2="3.228"/>
		
			<line style="clip-path:url(#SVGID_2_);fill:none;stroke:#000000;stroke-width:0;stroke-miterlimit:1;" x1="16.457" y1="3.228" x2="14.323" y2="3.797"/>
		
			<line style="clip-path:url(#SVGID_2_);fill:none;stroke:#000000;stroke-width:0;stroke-miterlimit:1;" x1="14.323" y1="3.797" x2="13.328" y2="4.081"/>
		
			<line style="clip-path:url(#SVGID_2_);fill:none;stroke:#000000;stroke-width:0;stroke-miterlimit:1;" x1="13.328" y1="4.081" x2="6.073" y2="5.077"/>
		
			<line style="clip-path:url(#SVGID_2_);fill:none;stroke:#000000;stroke-width:0;stroke-miterlimit:1;" x1="6.073" y1="5.077" x2="3.939" y2="6.073"/>
		
			<line style="clip-path:url(#SVGID_2_);fill:none;stroke:#000000;stroke-width:0;stroke-miterlimit:1;" x1="3.939" y1="6.073" x2="3.228" y2="7.068"/>
		
			<line style="clip-path:url(#SVGID_2_);fill:none;stroke:#000000;stroke-width:0;stroke-miterlimit:1;" x1="3.228" y1="7.068" x2="3.085" y2="9.06"/>
		
			<line style="clip-path:url(#SVGID_2_);fill:none;stroke:#000000;stroke-width:0;stroke-miterlimit:1;" x1="3.085" y1="9.06" x2="3.939" y2="7.638"/>
		
			<line style="clip-path:url(#SVGID_2_);fill:none;stroke:#000000;stroke-width:0;stroke-miterlimit:1;" x1="3.939" y1="7.638" x2="5.361" y2="6.926"/>
		
			<line style="clip-path:url(#SVGID_2_);fill:none;stroke:#000000;stroke-width:0;stroke-miterlimit:1;" x1="5.361" y1="6.926" x2="9.629" y2="6.926"/>
		
			<line style="clip-path:url(#SVGID_2_);fill:none;stroke:#000000;stroke-width:0;stroke-miterlimit:1;" x1="9.629" y1="6.926" x2="14.039" y2="7.068"/>
		
			<line style="clip-path:url(#SVGID_2_);fill:none;stroke:#000000;stroke-width:0;stroke-miterlimit:1;" x1="14.039" y1="7.068" x2="16.315" y2="7.638"/>
		
			<line style="clip-path:url(#SVGID_2_);fill:none;stroke:#000000;stroke-width:0;stroke-miterlimit:1;" x1="16.315" y1="7.638" x2="14.465" y2="5.361"/>
		
			<line style="clip-path:url(#SVGID_2_);fill:none;stroke:#000000;stroke-width:0;stroke-miterlimit:1;" x1="14.465" y1="5.361" x2="14.039" y2="3.797"/>
	</g>
	<g>
		<defs>
			<polygon id="SVGID_3_" points="0,145.524 130.071,145.524 130.071,0 0,0 0,145.524 			"/>
		</defs>
		<clipPath id="SVGID_4_">
			<use xlink:href="#SVGID_3_"  style="overflow:visible;"/>
		</clipPath>
		
			<line style="clip-path:url(#SVGID_4_);fill:none;stroke:#000000;stroke-width:0;stroke-miterlimit:1;" x1="18.733" y1="6.784" x2="19.16" y2="6.642"/>
		
			<line style="clip-path:url(#SVGID_4_);fill:none;stroke:#000000;stroke-width:0;stroke-miterlimit:1;" x1="19.16" y1="6.642" x2="19.444" y2="5.931"/>
		
			<line style="clip-path:url(#SVGID_4_);fill:none;stroke:#000000;stroke-width:0;stroke-miterlimit:1;" x1="19.444" y1="5.931" x2="19.16" y2="5.219"/>
		
			<line style="clip-path:url(#SVGID_4_);fill:none;stroke:#000000;stroke-width:0;stroke-miterlimit:1;" x1="19.16" y1="5.219" x2="18.591" y2="4.792"/>
		
			<line style="clip-path:url(#SVGID_4_);fill:none;stroke:#000000;stroke-width:0;stroke-miterlimit:1;" x1="18.591" y1="4.792" x2="18.022" y2="5.219"/>
		
			<line style="clip-path:url(#SVGID_4_);fill:none;stroke:#000000;stroke-width:0;stroke-miterlimit:1;" x1="18.022" y1="5.219" x2="17.879" y2="6.073"/>
		
			<line style="clip-path:url(#SVGID_4_);fill:none;stroke:#000000;stroke-width:0;stroke-miterlimit:1;" x1="17.879" y1="6.073" x2="18.164" y2="6.5"/>
		
			<line style="clip-path:url(#SVGID_4_);fill:none;stroke:#000000;stroke-width:0;stroke-miterlimit:1;" x1="18.164" y1="6.5" x2="18.591" y2="6.784"/>
	</g>
	<g>
		<defs>
			<polygon id="SVGID_5_" points="0,150.788 130.071,150.788 130.071,0 0,0 0,150.788 			"/>
		</defs>
		<clipPath id="SVGID_6_">
			<use xlink:href="#SVGID_5_"  style="overflow:visible;"/>
		</clipPath>
		
			<line style="clip-path:url(#SVGID_6_);fill:none;stroke:#000000;stroke-width:0;stroke-miterlimit:1;" x1="3.797" y1="8.207" x2="9.487" y2="8.064"/>
		
			<line style="clip-path:url(#SVGID_6_);fill:none;stroke:#000000;stroke-width:0;stroke-miterlimit:1;" x1="9.487" y1="8.064" x2="13.896" y2="8.633"/>
		
			<line style="clip-path:url(#SVGID_6_);fill:none;stroke:#000000;stroke-width:0;stroke-miterlimit:1;" x1="13.896" y1="8.633" x2="15.177" y2="9.344"/>
		
			<line style="clip-path:url(#SVGID_6_);fill:none;stroke:#000000;stroke-width:0;stroke-miterlimit:1;" x1="15.177" y1="9.344" x2="15.604" y2="10.767"/>
		
			<line style="clip-path:url(#SVGID_6_);fill:none;stroke:#000000;stroke-width:0;stroke-miterlimit:1;" x1="15.604" y1="10.767" x2="15.746" y2="12.332"/>
		
			<line style="clip-path:url(#SVGID_6_);fill:none;stroke:#000000;stroke-width:0;stroke-miterlimit:1;" x1="15.746" y1="12.332" x2="14.465" y2="15.461"/>
		
			<line style="clip-path:url(#SVGID_6_);fill:none;stroke:#000000;stroke-width:0;stroke-miterlimit:1;" x1="14.465" y1="15.461" x2="13.896" y2="19.302"/>
		
			<line style="clip-path:url(#SVGID_6_);fill:none;stroke:#000000;stroke-width:0;stroke-miterlimit:1;" x1="13.896" y1="19.302" x2="14.608" y2="23.996"/>
		
			<line style="clip-path:url(#SVGID_6_);fill:none;stroke:#000000;stroke-width:0;stroke-miterlimit:1;" x1="14.608" y1="23.996" x2="15.177" y2="26.13"/>
		
			<line style="clip-path:url(#SVGID_6_);fill:none;stroke:#000000;stroke-width:0;stroke-miterlimit:1;" x1="15.177" y1="26.13" x2="16.742" y2="30.397"/>
		
			<line style="clip-path:url(#SVGID_6_);fill:none;stroke:#000000;stroke-width:0;stroke-miterlimit:1;" x1="16.742" y1="30.397" x2="18.591" y2="33.812"/>
		
			<line style="clip-path:url(#SVGID_6_);fill:none;stroke:#000000;stroke-width:0;stroke-miterlimit:1;" x1="18.591" y1="33.812" x2="23" y2="41.351"/>
		
			<line style="clip-path:url(#SVGID_6_);fill:none;stroke:#000000;stroke-width:0;stroke-miterlimit:1;" x1="23" y1="41.351" x2="28.833" y2="52.446"/>
		
			<line style="clip-path:url(#SVGID_6_);fill:none;stroke:#000000;stroke-width:0;stroke-miterlimit:1;" x1="28.833" y1="52.446" x2="29.402" y2="56.714"/>
		
			<line style="clip-path:url(#SVGID_6_);fill:none;stroke:#000000;stroke-width:0;stroke-miterlimit:1;" x1="29.402" y1="56.714" x2="28.69" y2="63.968"/>
		
			<line style="clip-path:url(#SVGID_6_);fill:none;stroke:#000000;stroke-width:0;stroke-miterlimit:1;" x1="28.69" y1="63.968" x2="27.979" y2="64.68"/>
		
			<line style="clip-path:url(#SVGID_6_);fill:none;stroke:#000000;stroke-width:0;stroke-miterlimit:1;" x1="27.979" y1="64.68" x2="23.854" y2="65.106"/>
		
			<line style="clip-path:url(#SVGID_6_);fill:none;stroke:#000000;stroke-width:0;stroke-miterlimit:1;" x1="23.854" y1="65.106" x2="19.018" y2="64.964"/>
		
			<line style="clip-path:url(#SVGID_6_);fill:none;stroke:#000000;stroke-width:0;stroke-miterlimit:1;" x1="19.018" y1="64.964" x2="18.733" y2="65.675"/>
		
			<line style="clip-path:url(#SVGID_6_);fill:none;stroke:#000000;stroke-width:0;stroke-miterlimit:1;" x1="18.733" y1="65.675" x2="16.599" y2="65.96"/>
		
			<line style="clip-path:url(#SVGID_6_);fill:none;stroke:#000000;stroke-width:0;stroke-miterlimit:1;" x1="16.599" y1="65.96" x2="16.315" y2="66.387"/>
		
			<line style="clip-path:url(#SVGID_6_);fill:none;stroke:#000000;stroke-width:0;stroke-miterlimit:1;" x1="16.315" y1="66.387" x2="16.742" y2="66.955"/>
		
			<line style="clip-path:url(#SVGID_6_);fill:none;stroke:#000000;stroke-width:0;stroke-miterlimit:1;" x1="16.742" y1="66.955" x2="28.975" y2="66.528"/>
		
			<line style="clip-path:url(#SVGID_6_);fill:none;stroke:#000000;stroke-width:0;stroke-miterlimit:1;" x1="28.975" y1="66.528" x2="41.635" y2="67.098"/>
		
			<line style="clip-path:url(#SVGID_6_);fill:none;stroke:#000000;stroke-width:0;stroke-miterlimit:1;" x1="41.635" y1="67.098" x2="42.204" y2="66.528"/>
		
			<line style="clip-path:url(#SVGID_6_);fill:none;stroke:#000000;stroke-width:0;stroke-miterlimit:1;" x1="42.204" y1="66.528" x2="41.919" y2="65.817"/>
		
			<line style="clip-path:url(#SVGID_6_);fill:none;stroke:#000000;stroke-width:0;stroke-miterlimit:1;" x1="41.919" y1="65.817" x2="39.928" y2="65.817"/>
		
			<line style="clip-path:url(#SVGID_6_);fill:none;stroke:#000000;stroke-width:0;stroke-miterlimit:1;" x1="39.928" y1="65.817" x2="38.79" y2="64.821"/>
		
			<line style="clip-path:url(#SVGID_6_);fill:none;stroke:#000000;stroke-width:0;stroke-miterlimit:1;" x1="38.79" y1="64.821" x2="31.536" y2="64.68"/>
		
			<line style="clip-path:url(#SVGID_6_);fill:none;stroke:#000000;stroke-width:0;stroke-miterlimit:1;" x1="31.536" y1="64.68" x2="30.682" y2="64.11"/>
		
			<line style="clip-path:url(#SVGID_6_);fill:none;stroke:#000000;stroke-width:0;stroke-miterlimit:1;" x1="30.682" y1="64.11" x2="31.536" y2="55.148"/>
		
			<line style="clip-path:url(#SVGID_6_);fill:none;stroke:#000000;stroke-width:0;stroke-miterlimit:1;" x1="31.536" y1="55.148" x2="36.799" y2="57.852"/>
		
			<line style="clip-path:url(#SVGID_6_);fill:none;stroke:#000000;stroke-width:0;stroke-miterlimit:1;" x1="36.799" y1="57.852" x2="39.786" y2="49.032"/>
		
			<line style="clip-path:url(#SVGID_6_);fill:none;stroke:#000000;stroke-width:0;stroke-miterlimit:1;" x1="39.786" y1="49.032" x2="45.476" y2="63.257"/>
		
			<line style="clip-path:url(#SVGID_6_);fill:none;stroke:#000000;stroke-width:0;stroke-miterlimit:1;" x1="45.476" y1="63.257" x2="47.467" y2="65.817"/>
		
			<line style="clip-path:url(#SVGID_6_);fill:none;stroke:#000000;stroke-width:0;stroke-miterlimit:1;" x1="47.467" y1="65.817" x2="49.459" y2="66.955"/>
		
			<line style="clip-path:url(#SVGID_6_);fill:none;stroke:#000000;stroke-width:0;stroke-miterlimit:1;" x1="49.459" y1="66.955" x2="52.446" y2="66.955"/>
		
			<line style="clip-path:url(#SVGID_6_);fill:none;stroke:#000000;stroke-width:0;stroke-miterlimit:1;" x1="52.446" y1="66.955" x2="54.153" y2="66.387"/>
		
			<line style="clip-path:url(#SVGID_6_);fill:none;stroke:#000000;stroke-width:0;stroke-miterlimit:1;" x1="54.153" y1="66.387" x2="54.58" y2="65.533"/>
		
			<line style="clip-path:url(#SVGID_6_);fill:none;stroke:#000000;stroke-width:0;stroke-miterlimit:1;" x1="54.58" y1="65.533" x2="53.157" y2="61.692"/>
	</g>
	<g>
		<defs>
			<polygon id="SVGID_7_" points="0,150.788 130.071,150.788 130.071,0 0,0 0,150.788 			"/>
		</defs>
		<clipPath id="SVGID_8_">
			<use xlink:href="#SVGID_7_"  style="overflow:visible;"/>
		</clipPath>
		
			<line style="clip-path:url(#SVGID_8_);fill:none;stroke:#000000;stroke-width:0;stroke-miterlimit:1;" x1="17.879" y1="32.815" x2="19.729" y2="43.2"/>
		
			<line style="clip-path:url(#SVGID_8_);fill:none;stroke:#000000;stroke-width:0;stroke-miterlimit:1;" x1="19.729" y1="43.2" x2="19.586" y2="51.166"/>
		
			<line style="clip-path:url(#SVGID_8_);fill:none;stroke:#000000;stroke-width:0;stroke-miterlimit:1;" x1="19.586" y1="51.166" x2="18.164" y2="59.274"/>
		
			<line style="clip-path:url(#SVGID_8_);fill:none;stroke:#000000;stroke-width:0;stroke-miterlimit:1;" x1="18.164" y1="59.274" x2="16.884" y2="63.399"/>
		
			<line style="clip-path:url(#SVGID_8_);fill:none;stroke:#000000;stroke-width:0;stroke-miterlimit:1;" x1="16.884" y1="63.399" x2="16.03" y2="64.395"/>
		
			<line style="clip-path:url(#SVGID_8_);fill:none;stroke:#000000;stroke-width:0;stroke-miterlimit:1;" x1="16.03" y1="64.395" x2="9.202" y2="64.821"/>
		
			<line style="clip-path:url(#SVGID_8_);fill:none;stroke:#000000;stroke-width:0;stroke-miterlimit:1;" x1="9.202" y1="64.821" x2="8.491" y2="65.817"/>
		
			<line style="clip-path:url(#SVGID_8_);fill:none;stroke:#000000;stroke-width:0;stroke-miterlimit:1;" x1="8.491" y1="65.817" x2="6.926" y2="65.96"/>
		
			<line style="clip-path:url(#SVGID_8_);fill:none;stroke:#000000;stroke-width:0;stroke-miterlimit:1;" x1="6.926" y1="65.96" x2="6.357" y2="66.387"/>
		
			<line style="clip-path:url(#SVGID_8_);fill:none;stroke:#000000;stroke-width:0;stroke-miterlimit:1;" x1="6.357" y1="66.387" x2="6.926" y2="66.955"/>
		
			<line style="clip-path:url(#SVGID_8_);fill:none;stroke:#000000;stroke-width:0;stroke-miterlimit:1;" x1="6.926" y1="66.955" x2="12.189" y2="66.528"/>
		
			<line style="clip-path:url(#SVGID_8_);fill:none;stroke:#000000;stroke-width:0;stroke-miterlimit:1;" x1="12.189" y1="66.528" x2="13.754" y2="66.671"/>
	</g>
	<g>
		<defs>
			<polygon id="SVGID_9_" points="0,207.545 130.071,207.545 130.071,0 0,0 0,207.545 			"/>
		</defs>
		<clipPath id="SVGID_10_">
			<use xlink:href="#SVGID_9_"  style="overflow:visible;"/>
		</clipPath>
		
			<line style="clip-path:url(#SVGID_10_);fill:none;stroke:#000000;stroke-width:0;stroke-miterlimit:1;" x1="18.875" y1="64.964" x2="16.457" y2="65.248"/>
		
			<line style="clip-path:url(#SVGID_10_);fill:none;stroke:#000000;stroke-width:0;stroke-miterlimit:1;" x1="16.457" y1="65.248" x2="16.457" y2="65.248"/>
		
			<line style="clip-path:url(#SVGID_10_);fill:none;stroke:#000000;stroke-width:0;stroke-miterlimit:1;" x1="16.457" y1="65.248" x2="15.035" y2="65.533"/>
		
			<line style="clip-path:url(#SVGID_10_);fill:none;stroke:#000000;stroke-width:0;stroke-miterlimit:1;" x1="15.035" y1="65.533" x2="14.181" y2="66.671"/>
		
			<line style="clip-path:url(#SVGID_10_);fill:none;stroke:#000000;stroke-width:0;stroke-miterlimit:1;" x1="14.181" y1="66.671" x2="14.75" y2="66.955"/>
		
			<line style="clip-path:url(#SVGID_10_);fill:none;stroke:#000000;stroke-width:0;stroke-miterlimit:1;" x1="14.75" y1="66.955" x2="15.604" y2="66.102"/>
		
			<line style="clip-path:url(#SVGID_10_);fill:none;stroke:#000000;stroke-width:0;stroke-miterlimit:1;" x1="15.604" y1="66.102" x2="16.457" y2="65.96"/>
	</g>
	<g>
		<defs>
			<polygon id="SVGID_11_" points="0,207.545 130.071,207.545 130.071,0 0,0 0,207.545 			"/>
		</defs>
		<clipPath id="SVGID_12_">
			<use xlink:href="#SVGID_11_"  style="overflow:visible;"/>
		</clipPath>
		
			<line style="clip-path:url(#SVGID_12_);fill:none;stroke:#000000;stroke-width:0;stroke-miterlimit:1;" x1="18.733" y1="64.821" x2="21.862" y2="53.157"/>
		
			<line style="clip-path:url(#SVGID_12_);fill:none;stroke:#000000;stroke-width:0;stroke-miterlimit:1;" x1="21.862" y1="53.157" x2="26.699" y2="56.002"/>
		
			<line style="clip-path:url(#SVGID_12_);fill:none;stroke:#000000;stroke-width:0;stroke-miterlimit:1;" x1="26.699" y1="56.002" x2="27.695" y2="50.739"/>
	</g>
	<g>
		<defs>
			<polygon id="SVGID_13_" points="0,207.545 130.071,207.545 130.071,0 0,0 0,207.545 			"/>
		</defs>
		<clipPath id="SVGID_14_">
			<use xlink:href="#SVGID_13_"  style="overflow:visible;"/>
		</clipPath>
		
			<line style="clip-path:url(#SVGID_14_);fill:none;stroke:#000000;stroke-width:0;stroke-miterlimit:1;" x1="8.775" y1="64.964" x2="6.5" y2="65.248"/>
		
			<line style="clip-path:url(#SVGID_14_);fill:none;stroke:#000000;stroke-width:0;stroke-miterlimit:1;" x1="6.5" y1="65.248" x2="6.5" y2="65.248"/>
		
			<line style="clip-path:url(#SVGID_14_);fill:none;stroke:#000000;stroke-width:0;stroke-miterlimit:1;" x1="6.5" y1="65.248" x2="5.077" y2="65.533"/>
		
			<line style="clip-path:url(#SVGID_14_);fill:none;stroke:#000000;stroke-width:0;stroke-miterlimit:1;" x1="5.077" y1="65.533" x2="4.224" y2="66.671"/>
		
			<line style="clip-path:url(#SVGID_14_);fill:none;stroke:#000000;stroke-width:0;stroke-miterlimit:1;" x1="4.224" y1="66.671" x2="4.65" y2="66.955"/>
		
			<line style="clip-path:url(#SVGID_14_);fill:none;stroke:#000000;stroke-width:0;stroke-miterlimit:1;" x1="4.65" y1="66.955" x2="5.646" y2="66.102"/>
		
			<line style="clip-path:url(#SVGID_14_);fill:none;stroke:#000000;stroke-width:0;stroke-miterlimit:1;" x1="5.646" y1="66.102" x2="6.784" y2="65.96"/>
	</g>
	<g>
		<defs>
			<polygon id="SVGID_15_" points="0,207.545 130.071,207.545 130.071,0 0,0 0,207.545 			"/>
		</defs>
		<clipPath id="SVGID_16_">
			<use xlink:href="#SVGID_15_"  style="overflow:visible;"/>
		</clipPath>
		
			<line style="clip-path:url(#SVGID_16_);fill:none;stroke:#000000;stroke-width:0;stroke-miterlimit:1;" x1="39.075" y1="64.821" x2="41.777" y2="65.106"/>
		
			<line style="clip-path:url(#SVGID_16_);fill:none;stroke:#000000;stroke-width:0;stroke-miterlimit:1;" x1="41.777" y1="65.106" x2="43.058" y2="65.533"/>
		
			<line style="clip-path:url(#SVGID_16_);fill:none;stroke:#000000;stroke-width:0;stroke-miterlimit:1;" x1="43.058" y1="65.533" x2="43.911" y2="66.671"/>
		
			<line style="clip-path:url(#SVGID_16_);fill:none;stroke:#000000;stroke-width:0;stroke-miterlimit:1;" x1="43.911" y1="66.671" x2="43.484" y2="66.955"/>
		
			<line style="clip-path:url(#SVGID_16_);fill:none;stroke:#000000;stroke-width:0;stroke-miterlimit:1;" x1="43.484" y1="66.955" x2="42.489" y2="66.102"/>
		
			<line style="clip-path:url(#SVGID_16_);fill:none;stroke:#000000;stroke-width:0;stroke-miterlimit:1;" x1="42.489" y1="66.102" x2="41.777" y2="65.96"/>
	</g>
	<g>
		<defs>
			<polygon id="SVGID_17_" points="0,207.545 221.016,207.545 221.016,0 0,0 0,207.545 			"/>
		</defs>
		<clipPath id="SVGID_18_">
			<use xlink:href="#SVGID_17_"  style="overflow:visible;"/>
		</clipPath>
		
			<line style="clip-path:url(#SVGID_18_);fill:none;stroke:#000000;stroke-width:0;stroke-miterlimit:1;" x1="82.128" y1="67.098" x2="84.974" y2="67.098"/>
		
			<line style="clip-path:url(#SVGID_18_);fill:none;stroke:#000000;stroke-width:0;stroke-miterlimit:1;" x1="84.974" y1="67.098" x2="84.974" y2="10.198"/>
		
			<line style="clip-path:url(#SVGID_18_);fill:none;stroke:#000000;stroke-width:0;stroke-miterlimit:1;" x1="84.974" y1="10.198" x2="84.262" y2="6.784"/>
		
			<line style="clip-path:url(#SVGID_18_);fill:none;stroke:#000000;stroke-width:0;stroke-miterlimit:1;" x1="84.262" y1="6.784" x2="82.698" y2="4.792"/>
		
			<line style="clip-path:url(#SVGID_18_);fill:none;stroke:#000000;stroke-width:0;stroke-miterlimit:1;" x1="82.698" y1="4.792" x2="80.564" y2="3.654"/>
		
			<line style="clip-path:url(#SVGID_18_);fill:none;stroke:#000000;stroke-width:0;stroke-miterlimit:1;" x1="80.564" y1="3.654" x2="77.292" y2="3.085"/>
		
			<line style="clip-path:url(#SVGID_18_);fill:none;stroke:#000000;stroke-width:0;stroke-miterlimit:1;" x1="77.292" y1="3.085" x2="73.878" y2="3.797"/>
		
			<line style="clip-path:url(#SVGID_18_);fill:none;stroke:#000000;stroke-width:0;stroke-miterlimit:1;" x1="73.878" y1="3.797" x2="71.745" y2="5.077"/>
		
			<line style="clip-path:url(#SVGID_18_);fill:none;stroke:#000000;stroke-width:0;stroke-miterlimit:1;" x1="71.745" y1="5.077" x2="70.038" y2="7.353"/>
		
			<line style="clip-path:url(#SVGID_18_);fill:none;stroke:#000000;stroke-width:0;stroke-miterlimit:1;" x1="70.038" y1="7.353" x2="69.469" y2="10.198"/>
		
			<line style="clip-path:url(#SVGID_18_);fill:none;stroke:#000000;stroke-width:0;stroke-miterlimit:1;" x1="69.469" y1="10.198" x2="69.469" y2="50.027"/>
		
			<line style="clip-path:url(#SVGID_18_);fill:none;stroke:#000000;stroke-width:0;stroke-miterlimit:1;" x1="69.469" y1="50.027" x2="72.456" y2="50.027"/>
		
			<line style="clip-path:url(#SVGID_18_);fill:none;stroke:#000000;stroke-width:0;stroke-miterlimit:1;" x1="72.456" y1="50.027" x2="72.456" y2="10.198"/>
		
			<line style="clip-path:url(#SVGID_18_);fill:none;stroke:#000000;stroke-width:0;stroke-miterlimit:1;" x1="72.456" y1="10.198" x2="72.882" y2="8.349"/>
		
			<line style="clip-path:url(#SVGID_18_);fill:none;stroke:#000000;stroke-width:0;stroke-miterlimit:1;" x1="72.882" y1="8.349" x2="74.021" y2="6.926"/>
		
			<line style="clip-path:url(#SVGID_18_);fill:none;stroke:#000000;stroke-width:0;stroke-miterlimit:1;" x1="74.021" y1="6.926" x2="76.012" y2="6.215"/>
		
			<line style="clip-path:url(#SVGID_18_);fill:none;stroke:#000000;stroke-width:0;stroke-miterlimit:1;" x1="76.012" y1="6.215" x2="78.003" y2="6.073"/>
		
			<line style="clip-path:url(#SVGID_18_);fill:none;stroke:#000000;stroke-width:0;stroke-miterlimit:1;" x1="78.003" y1="6.073" x2="80.137" y2="6.784"/>
		
			<line style="clip-path:url(#SVGID_18_);fill:none;stroke:#000000;stroke-width:0;stroke-miterlimit:1;" x1="80.137" y1="6.784" x2="81.702" y2="8.633"/>
		
			<line style="clip-path:url(#SVGID_18_);fill:none;stroke:#000000;stroke-width:0;stroke-miterlimit:1;" x1="81.702" y1="8.633" x2="82.128" y2="10.909"/>
		
			<line style="clip-path:url(#SVGID_18_);fill:none;stroke:#000000;stroke-width:0;stroke-miterlimit:1;" x1="82.128" y1="10.909" x2="82.128" y2="67.098"/>
	</g>
	<g>
		<defs>
			<polygon id="SVGID_19_" points="0,207.545 221.016,207.545 221.016,0 0,0 0,207.545 			"/>
		</defs>
		<clipPath id="SVGID_20_">
			<use xlink:href="#SVGID_19_"  style="overflow:visible;"/>
		</clipPath>
		
			<line style="clip-path:url(#SVGID_20_);fill:none;stroke:#000000;stroke-width:0;stroke-miterlimit:1;" x1="153.832" y1="67.098" x2="129.35" y2="67.098"/>
		
			<line style="clip-path:url(#SVGID_20_);fill:none;stroke:#000000;stroke-width:0;stroke-miterlimit:1;" x1="129.35" y1="67.098" x2="129.662" y2="65.022"/>
		
			<line style="clip-path:url(#SVGID_20_);fill:none;stroke:#000000;stroke-width:0;stroke-miterlimit:1;" x1="129.662" y1="65.022" x2="129.972" y2="63.675"/>
		
			<line style="clip-path:url(#SVGID_20_);fill:none;stroke:#000000;stroke-width:0;stroke-miterlimit:1;" x1="129.972" y1="63.675" x2="130.491" y2="62.326"/>
		
			<line style="clip-path:url(#SVGID_20_);fill:none;stroke:#000000;stroke-width:0;stroke-miterlimit:1;" x1="130.491" y1="62.326" x2="131.217" y2="61.288"/>
		
			<line style="clip-path:url(#SVGID_20_);fill:none;stroke:#000000;stroke-width:0;stroke-miterlimit:1;" x1="131.217" y1="61.288" x2="131.839" y2="60.354"/>
		
			<line style="clip-path:url(#SVGID_20_);fill:none;stroke:#000000;stroke-width:0;stroke-miterlimit:1;" x1="131.839" y1="60.354" x2="132.669" y2="59.214"/>
		
			<line style="clip-path:url(#SVGID_20_);fill:none;stroke:#000000;stroke-width:0;stroke-miterlimit:1;" x1="132.669" y1="59.214" x2="133.603" y2="58.384"/>
		
			<line style="clip-path:url(#SVGID_20_);fill:none;stroke:#000000;stroke-width:0;stroke-miterlimit:1;" x1="133.603" y1="58.384" x2="134.745" y2="57.554"/>
		
			<line style="clip-path:url(#SVGID_20_);fill:none;stroke:#000000;stroke-width:0;stroke-miterlimit:1;" x1="134.745" y1="57.554" x2="135.678" y2="56.932"/>
		
			<line style="clip-path:url(#SVGID_20_);fill:none;stroke:#000000;stroke-width:0;stroke-miterlimit:1;" x1="135.678" y1="56.932" x2="137.027" y2="56.309"/>
		
			<line style="clip-path:url(#SVGID_20_);fill:none;stroke:#000000;stroke-width:0;stroke-miterlimit:1;" x1="137.027" y1="56.309" x2="138.375" y2="55.894"/>
		
			<line style="clip-path:url(#SVGID_20_);fill:none;stroke:#000000;stroke-width:0;stroke-miterlimit:1;" x1="138.375" y1="55.894" x2="139.309" y2="55.687"/>
		
			<line style="clip-path:url(#SVGID_20_);fill:none;stroke:#000000;stroke-width:0;stroke-miterlimit:1;" x1="139.309" y1="55.687" x2="140.968" y2="55.479"/>
		
			<line style="clip-path:url(#SVGID_20_);fill:none;stroke:#000000;stroke-width:0;stroke-miterlimit:1;" x1="140.968" y1="55.479" x2="142.213" y2="55.479"/>
		
			<line style="clip-path:url(#SVGID_20_);fill:none;stroke:#000000;stroke-width:0;stroke-miterlimit:1;" x1="142.213" y1="55.479" x2="143.354" y2="55.687"/>
		
			<line style="clip-path:url(#SVGID_20_);fill:none;stroke:#000000;stroke-width:0;stroke-miterlimit:1;" x1="143.354" y1="55.687" x2="144.599" y2="55.894"/>
		
			<line style="clip-path:url(#SVGID_20_);fill:none;stroke:#000000;stroke-width:0;stroke-miterlimit:1;" x1="144.599" y1="55.894" x2="145.948" y2="56.205"/>
		
			<line style="clip-path:url(#SVGID_20_);fill:none;stroke:#000000;stroke-width:0;stroke-miterlimit:1;" x1="145.948" y1="56.205" x2="146.881" y2="56.517"/>
		
			<line style="clip-path:url(#SVGID_20_);fill:none;stroke:#000000;stroke-width:0;stroke-miterlimit:1;" x1="146.881" y1="56.517" x2="148.126" y2="57.347"/>
		
			<line style="clip-path:url(#SVGID_20_);fill:none;stroke:#000000;stroke-width:0;stroke-miterlimit:1;" x1="148.126" y1="57.347" x2="149.164" y2="58.072"/>
		
			<line style="clip-path:url(#SVGID_20_);fill:none;stroke:#000000;stroke-width:0;stroke-miterlimit:1;" x1="149.164" y1="58.072" x2="150.097" y2="58.799"/>
		
			<line style="clip-path:url(#SVGID_20_);fill:none;stroke:#000000;stroke-width:0;stroke-miterlimit:1;" x1="150.097" y1="58.799" x2="150.927" y2="59.836"/>
		
			<line style="clip-path:url(#SVGID_20_);fill:none;stroke:#000000;stroke-width:0;stroke-miterlimit:1;" x1="150.927" y1="59.836" x2="151.757" y2="60.978"/>
		
			<line style="clip-path:url(#SVGID_20_);fill:none;stroke:#000000;stroke-width:0;stroke-miterlimit:1;" x1="151.757" y1="60.978" x2="152.483" y2="62.118"/>
		
			<line style="clip-path:url(#SVGID_20_);fill:none;stroke:#000000;stroke-width:0;stroke-miterlimit:1;" x1="152.483" y1="62.118" x2="153.002" y2="63.155"/>
		
			<line style="clip-path:url(#SVGID_20_);fill:none;stroke:#000000;stroke-width:0;stroke-miterlimit:1;" x1="153.002" y1="63.155" x2="153.417" y2="64.712"/>
		
			<line style="clip-path:url(#SVGID_20_);fill:none;stroke:#000000;stroke-width:0;stroke-miterlimit:1;" x1="153.417" y1="64.712" x2="153.728" y2="65.853"/>
		
			<line style="clip-path:url(#SVGID_20_);fill:none;stroke:#000000;stroke-width:0;stroke-miterlimit:1;" x1="153.728" y1="65.853" x2="153.832" y2="67.098"/>
	</g>
	<g>
		<defs>
			<polygon id="SVGID_21_" points="0,207.545 221.016,207.545 221.016,0 0,0 0,207.545 			"/>
		</defs>
		<clipPath id="SVGID_22_">
			<use xlink:href="#SVGID_21_"  style="overflow:visible;"/>
		</clipPath>
		
			<line style="clip-path:url(#SVGID_22_);fill:none;stroke:#000000;stroke-width:0;stroke-miterlimit:1;" x1="94.901" y1="39.027" x2="100.022" y2="58.516"/>
		
			<line style="clip-path:url(#SVGID_22_);fill:none;stroke:#000000;stroke-width:0;stroke-miterlimit:1;" x1="100.022" y1="58.516" x2="116.096" y2="58.516"/>
		
			<line style="clip-path:url(#SVGID_22_);fill:none;stroke:#000000;stroke-width:0;stroke-miterlimit:1;" x1="116.096" y1="58.516" x2="121.075" y2="39.027"/>
		
			<line style="clip-path:url(#SVGID_22_);fill:none;stroke:#000000;stroke-width:0;stroke-miterlimit:1;" x1="121.075" y1="39.027" x2="94.901" y2="39.027"/>
	</g>
	<g>
		<defs>
			<polygon id="SVGID_23_" points="0,207.545 221.016,207.545 221.016,0 0,0 0,207.545 			"/>
		</defs>
		<clipPath id="SVGID_24_">
			<use xlink:href="#SVGID_23_"  style="overflow:visible;"/>
		</clipPath>
		
			<line style="clip-path:url(#SVGID_24_);fill:none;stroke:#000000;stroke-width:0;stroke-miterlimit:1;" x1="111.402" y1="39.027" x2="111.118" y2="36.751"/>
		
			<line style="clip-path:url(#SVGID_24_);fill:none;stroke:#000000;stroke-width:0;stroke-miterlimit:1;" x1="111.118" y1="36.751" x2="110.264" y2="34.475"/>
		
			<line style="clip-path:url(#SVGID_24_);fill:none;stroke:#000000;stroke-width:0;stroke-miterlimit:1;" x1="110.264" y1="34.475" x2="108.699" y2="32.626"/>
		
			<line style="clip-path:url(#SVGID_24_);fill:none;stroke:#000000;stroke-width:0;stroke-miterlimit:1;" x1="108.699" y1="32.626" x2="106.992" y2="31.204"/>
		
			<line style="clip-path:url(#SVGID_24_);fill:none;stroke:#000000;stroke-width:0;stroke-miterlimit:1;" x1="106.992" y1="31.204" x2="105" y2="29.781"/>
		
			<line style="clip-path:url(#SVGID_24_);fill:none;stroke:#000000;stroke-width:0;stroke-miterlimit:1;" x1="105" y1="29.781" x2="103.863" y2="28.358"/>
		
			<line style="clip-path:url(#SVGID_24_);fill:none;stroke:#000000;stroke-width:0;stroke-miterlimit:1;" x1="103.863" y1="28.358" x2="103.293" y2="26.367"/>
		
			<line style="clip-path:url(#SVGID_24_);fill:none;stroke:#000000;stroke-width:0;stroke-miterlimit:1;" x1="103.293" y1="26.367" x2="103.72" y2="24.233"/>
		
			<line style="clip-path:url(#SVGID_24_);fill:none;stroke:#000000;stroke-width:0;stroke-miterlimit:1;" x1="103.72" y1="24.233" x2="103.579" y2="22.1"/>
		
			<line style="clip-path:url(#SVGID_24_);fill:none;stroke:#000000;stroke-width:0;stroke-miterlimit:1;" x1="103.579" y1="22.1" x2="102.867" y2="20.108"/>
		
			<line style="clip-path:url(#SVGID_24_);fill:none;stroke:#000000;stroke-width:0;stroke-miterlimit:1;" x1="102.867" y1="20.108" x2="101.586" y2="18.401"/>
		
			<line style="clip-path:url(#SVGID_24_);fill:none;stroke:#000000;stroke-width:0;stroke-miterlimit:1;" x1="101.586" y1="18.401" x2="100.022" y2="17.121"/>
		
			<line style="clip-path:url(#SVGID_24_);fill:none;stroke:#000000;stroke-width:0;stroke-miterlimit:1;" x1="100.022" y1="17.121" x2="98.315" y2="15.84"/>
		
			<line style="clip-path:url(#SVGID_24_);fill:none;stroke:#000000;stroke-width:0;stroke-miterlimit:1;" x1="98.315" y1="15.84" x2="96.892" y2="14.703"/>
		
			<line style="clip-path:url(#SVGID_24_);fill:none;stroke:#000000;stroke-width:0;stroke-miterlimit:1;" x1="96.892" y1="14.703" x2="96.039" y2="13.707"/>
		
			<line style="clip-path:url(#SVGID_24_);fill:none;stroke:#000000;stroke-width:0;stroke-miterlimit:1;" x1="96.039" y1="13.707" x2="96.039" y2="14.56"/>
		
			<line style="clip-path:url(#SVGID_24_);fill:none;stroke:#000000;stroke-width:0;stroke-miterlimit:1;" x1="96.039" y1="14.56" x2="96.608" y2="15.983"/>
		
			<line style="clip-path:url(#SVGID_24_);fill:none;stroke:#000000;stroke-width:0;stroke-miterlimit:1;" x1="96.608" y1="15.983" x2="97.888" y2="17.547"/>
		
			<line style="clip-path:url(#SVGID_24_);fill:none;stroke:#000000;stroke-width:0;stroke-miterlimit:1;" x1="97.888" y1="17.547" x2="99.168" y2="19.112"/>
		
			<line style="clip-path:url(#SVGID_24_);fill:none;stroke:#000000;stroke-width:0;stroke-miterlimit:1;" x1="99.168" y1="19.112" x2="100.022" y2="20.25"/>
		
			<line style="clip-path:url(#SVGID_24_);fill:none;stroke:#000000;stroke-width:0;stroke-miterlimit:1;" x1="100.022" y1="20.25" x2="100.449" y2="21.815"/>
		
			<line style="clip-path:url(#SVGID_24_);fill:none;stroke:#000000;stroke-width:0;stroke-miterlimit:1;" x1="100.449" y1="21.815" x2="100.591" y2="23.095"/>
		
			<line style="clip-path:url(#SVGID_24_);fill:none;stroke:#000000;stroke-width:0;stroke-miterlimit:1;" x1="100.591" y1="23.095" x2="100.306" y2="24.944"/>
		
			<line style="clip-path:url(#SVGID_24_);fill:none;stroke:#000000;stroke-width:0;stroke-miterlimit:1;" x1="100.306" y1="24.944" x2="99.879" y2="26.367"/>
		
			<line style="clip-path:url(#SVGID_24_);fill:none;stroke:#000000;stroke-width:0;stroke-miterlimit:1;" x1="99.879" y1="26.367" x2="99.879" y2="28.358"/>
		
			<line style="clip-path:url(#SVGID_24_);fill:none;stroke:#000000;stroke-width:0;stroke-miterlimit:1;" x1="99.879" y1="28.358" x2="100.449" y2="29.781"/>
		
			<line style="clip-path:url(#SVGID_24_);fill:none;stroke:#000000;stroke-width:0;stroke-miterlimit:1;" x1="100.449" y1="29.781" x2="101.872" y2="31.772"/>
		
			<line style="clip-path:url(#SVGID_24_);fill:none;stroke:#000000;stroke-width:0;stroke-miterlimit:1;" x1="101.872" y1="31.772" x2="103.436" y2="33.337"/>
		
			<line style="clip-path:url(#SVGID_24_);fill:none;stroke:#000000;stroke-width:0;stroke-miterlimit:1;" x1="103.436" y1="33.337" x2="104.859" y2="34.617"/>
		
			<line style="clip-path:url(#SVGID_24_);fill:none;stroke:#000000;stroke-width:0;stroke-miterlimit:1;" x1="104.859" y1="34.617" x2="105.57" y2="35.897"/>
		
			<line style="clip-path:url(#SVGID_24_);fill:none;stroke:#000000;stroke-width:0;stroke-miterlimit:1;" x1="105.57" y1="35.897" x2="105.712" y2="37.035"/>
		
			<line style="clip-path:url(#SVGID_24_);fill:none;stroke:#000000;stroke-width:0;stroke-miterlimit:1;" x1="105.712" y1="37.035" x2="105.712" y2="38.174"/>
		
			<line style="clip-path:url(#SVGID_24_);fill:none;stroke:#000000;stroke-width:0;stroke-miterlimit:1;" x1="105.712" y1="38.174" x2="105.427" y2="39.027"/>
	</g>
	<g>
		<defs>
			<polygon id="SVGID_25_" points="0,207.545 221.016,207.545 221.016,0 0,0 0,207.545 			"/>
		</defs>
		<clipPath id="SVGID_26_">
			<use xlink:href="#SVGID_25_"  style="overflow:visible;"/>
		</clipPath>
		
			<line style="clip-path:url(#SVGID_26_);fill:none;stroke:#000000;stroke-width:0;stroke-miterlimit:1;" x1="137.844" y1="44.477" x2="136.91" y2="44.892"/>
		
			<line style="clip-path:url(#SVGID_26_);fill:none;stroke:#000000;stroke-width:0;stroke-miterlimit:1;" x1="136.91" y1="44.892" x2="135.562" y2="44.788"/>
		
			<line style="clip-path:url(#SVGID_26_);fill:none;stroke:#000000;stroke-width:0;stroke-miterlimit:1;" x1="135.562" y1="44.788" x2="134.317" y2="43.958"/>
		
			<line style="clip-path:url(#SVGID_26_);fill:none;stroke:#000000;stroke-width:0;stroke-miterlimit:1;" x1="134.317" y1="43.958" x2="133.487" y2="42.401"/>
		
			<line style="clip-path:url(#SVGID_26_);fill:none;stroke:#000000;stroke-width:0;stroke-miterlimit:1;" x1="133.487" y1="42.401" x2="133.383" y2="40.846"/>
		
			<line style="clip-path:url(#SVGID_26_);fill:none;stroke:#000000;stroke-width:0;stroke-miterlimit:1;" x1="133.383" y1="40.846" x2="133.798" y2="39.601"/>
		
			<line style="clip-path:url(#SVGID_26_);fill:none;stroke:#000000;stroke-width:0;stroke-miterlimit:1;" x1="133.798" y1="39.601" x2="134.835" y2="38.46"/>
		
			<line style="clip-path:url(#SVGID_26_);fill:none;stroke:#000000;stroke-width:0;stroke-miterlimit:1;" x1="134.835" y1="38.46" x2="136.288" y2="38.045"/>
		
			<line style="clip-path:url(#SVGID_26_);fill:none;stroke:#000000;stroke-width:0;stroke-miterlimit:1;" x1="136.288" y1="38.045" x2="137.844" y2="38.356"/>
		
			<line style="clip-path:url(#SVGID_26_);fill:none;stroke:#000000;stroke-width:0;stroke-miterlimit:1;" x1="137.844" y1="38.356" x2="139.088" y2="39.497"/>
		
			<line style="clip-path:url(#SVGID_26_);fill:none;stroke:#000000;stroke-width:0;stroke-miterlimit:1;" x1="139.088" y1="39.497" x2="139.815" y2="41.157"/>
		
			<line style="clip-path:url(#SVGID_26_);fill:none;stroke:#000000;stroke-width:0;stroke-miterlimit:1;" x1="139.815" y1="41.157" x2="139.711" y2="42.506"/>
		
			<line style="clip-path:url(#SVGID_26_);fill:none;stroke:#000000;stroke-width:0;stroke-miterlimit:1;" x1="139.711" y1="42.506" x2="139.088" y2="43.646"/>
		
			<line style="clip-path:url(#SVGID_26_);fill:none;stroke:#000000;stroke-width:0;stroke-miterlimit:1;" x1="139.088" y1="43.646" x2="137.948" y2="44.58"/>
		
			<line style="clip-path:url(#SVGID_26_);fill:none;stroke:#000000;stroke-width:0;stroke-miterlimit:1;" x1="137.948" y1="44.58" x2="137.948" y2="44.477"/>
		
			<line style="clip-path:url(#SVGID_26_);fill:none;stroke:#000000;stroke-width:0;stroke-miterlimit:1;" x1="137.948" y1="44.477" x2="140.333" y2="49.768"/>
		
			<line style="clip-path:url(#SVGID_26_);fill:none;stroke:#000000;stroke-width:0;stroke-miterlimit:1;" x1="140.333" y1="49.768" x2="132.657" y2="49.768"/>
		
			<line style="clip-path:url(#SVGID_26_);fill:none;stroke:#000000;stroke-width:0;stroke-miterlimit:1;" x1="132.657" y1="49.768" x2="135.042" y2="44.373"/>
	</g>
	<g>
		<defs>
			<polygon id="SVGID_27_" points="0,207.545 221.016,207.545 221.016,0 0,0 0,207.545 			"/>
		</defs>
		<clipPath id="SVGID_28_">
			<use xlink:href="#SVGID_27_"  style="overflow:visible;"/>
		</clipPath>
		
			<line style="clip-path:url(#SVGID_28_);fill:none;stroke:#000000;stroke-width:0;stroke-miterlimit:1;" x1="133.59" y1="42.713" x2="128.092" y2="45.618"/>
		
			<line style="clip-path:url(#SVGID_28_);fill:none;stroke:#000000;stroke-width:0;stroke-miterlimit:1;" x1="128.092" y1="45.618" x2="128.092" y2="37.318"/>
		
			<line style="clip-path:url(#SVGID_28_);fill:none;stroke:#000000;stroke-width:0;stroke-miterlimit:1;" x1="128.092" y1="37.318" x2="133.487" y2="40.224"/>
	</g>
	<g>
		<defs>
			<polygon id="SVGID_29_" points="0,207.545 221.016,207.545 221.016,0 0,0 0,207.545 			"/>
		</defs>
		<clipPath id="SVGID_30_">
			<use xlink:href="#SVGID_29_"  style="overflow:visible;"/>
		</clipPath>
		
			<line style="clip-path:url(#SVGID_30_);fill:none;stroke:#000000;stroke-width:0;stroke-miterlimit:1;" x1="139.607" y1="40.327" x2="144.898" y2="37.63"/>
		
			<line style="clip-path:url(#SVGID_30_);fill:none;stroke:#000000;stroke-width:0;stroke-miterlimit:1;" x1="144.898" y1="37.63" x2="144.898" y2="45.307"/>
		
			<line style="clip-path:url(#SVGID_30_);fill:none;stroke:#000000;stroke-width:0;stroke-miterlimit:1;" x1="144.898" y1="45.307" x2="139.711" y2="42.816"/>
	</g>
	<g>
		<defs>
			<polygon id="SVGID_31_" points="0,207.545 221.016,207.545 221.016,0 0,0 0,207.545 			"/>
		</defs>
		<clipPath id="SVGID_32_">
			<use xlink:href="#SVGID_31_"  style="overflow:visible;"/>
		</clipPath>
		
			<line style="clip-path:url(#SVGID_32_);fill:none;stroke:#000000;stroke-width:0;stroke-miterlimit:1;" x1="134.213" y1="38.875" x2="133.072" y2="36.696"/>
		
			<line style="clip-path:url(#SVGID_32_);fill:none;stroke:#000000;stroke-width:0;stroke-miterlimit:1;" x1="133.072" y1="36.696" x2="132.865" y2="32.132"/>
		
			<line style="clip-path:url(#SVGID_32_);fill:none;stroke:#000000;stroke-width:0;stroke-miterlimit:1;" x1="132.865" y1="32.132" x2="136.703" y2="10.555"/>
		
			<line style="clip-path:url(#SVGID_32_);fill:none;stroke:#000000;stroke-width:0;stroke-miterlimit:1;" x1="136.703" y1="10.555" x2="137.221" y2="8.168"/>
		
			<line style="clip-path:url(#SVGID_32_);fill:none;stroke:#000000;stroke-width:0;stroke-miterlimit:1;" x1="137.221" y1="8.168" x2="137.948" y2="5.886"/>
		
			<line style="clip-path:url(#SVGID_32_);fill:none;stroke:#000000;stroke-width:0;stroke-miterlimit:1;" x1="137.948" y1="5.886" x2="138.985" y2="4.227"/>
		
			<line style="clip-path:url(#SVGID_32_);fill:none;stroke:#000000;stroke-width:0;stroke-miterlimit:1;" x1="138.985" y1="4.227" x2="140.645" y2="3.293"/>
		
			<line style="clip-path:url(#SVGID_32_);fill:none;stroke:#000000;stroke-width:0;stroke-miterlimit:1;" x1="140.645" y1="3.293" x2="142.097" y2="3.085"/>
		
			<line style="clip-path:url(#SVGID_32_);fill:none;stroke:#000000;stroke-width:0;stroke-miterlimit:1;" x1="142.097" y1="3.085" x2="143.549" y2="3.085"/>
		
			<line style="clip-path:url(#SVGID_32_);fill:none;stroke:#000000;stroke-width:0;stroke-miterlimit:1;" x1="143.549" y1="3.085" x2="146.143" y2="3.5"/>
		
			<line style="clip-path:url(#SVGID_32_);fill:none;stroke:#000000;stroke-width:0;stroke-miterlimit:1;" x1="146.143" y1="3.5" x2="147.699" y2="4.434"/>
		
			<line style="clip-path:url(#SVGID_32_);fill:none;stroke:#000000;stroke-width:0;stroke-miterlimit:1;" x1="147.699" y1="4.434" x2="149.255" y2="6.094"/>
		
			<line style="clip-path:url(#SVGID_32_);fill:none;stroke:#000000;stroke-width:0;stroke-miterlimit:1;" x1="149.255" y1="6.094" x2="150.396" y2="8.895"/>
		
			<line style="clip-path:url(#SVGID_32_);fill:none;stroke:#000000;stroke-width:0;stroke-miterlimit:1;" x1="150.396" y1="8.895" x2="150.811" y2="10.866"/>
		
			<line style="clip-path:url(#SVGID_32_);fill:none;stroke:#000000;stroke-width:0;stroke-miterlimit:1;" x1="150.811" y1="10.866" x2="151.123" y2="13.667"/>
		
			<line style="clip-path:url(#SVGID_32_);fill:none;stroke:#000000;stroke-width:0;stroke-miterlimit:1;" x1="151.123" y1="13.667" x2="150.811" y2="19.995"/>
		
			<line style="clip-path:url(#SVGID_32_);fill:none;stroke:#000000;stroke-width:0;stroke-miterlimit:1;" x1="150.811" y1="19.995" x2="150.084" y2="26.323"/>
		
			<line style="clip-path:url(#SVGID_32_);fill:none;stroke:#000000;stroke-width:0;stroke-miterlimit:1;" x1="150.084" y1="26.323" x2="149.462" y2="38.979"/>
		
			<line style="clip-path:url(#SVGID_32_);fill:none;stroke:#000000;stroke-width:0;stroke-miterlimit:1;" x1="149.462" y1="38.979" x2="149.669" y2="42.298"/>
		
			<line style="clip-path:url(#SVGID_32_);fill:none;stroke:#000000;stroke-width:0;stroke-miterlimit:1;" x1="149.669" y1="42.298" x2="150.396" y2="45.514"/>
		
			<line style="clip-path:url(#SVGID_32_);fill:none;stroke:#000000;stroke-width:0;stroke-miterlimit:1;" x1="150.396" y1="45.514" x2="151.537" y2="47.277"/>
		
			<line style="clip-path:url(#SVGID_32_);fill:none;stroke:#000000;stroke-width:0;stroke-miterlimit:1;" x1="151.537" y1="47.277" x2="152.99" y2="49.041"/>
	</g>
	<g>
		<defs>
			<polygon id="SVGID_33_" points="0,207.545 344.232,207.545 344.232,0 0,0 0,207.545 			"/>
		</defs>
		<clipPath id="SVGID_34_">
			<use xlink:href="#SVGID_33_"  style="overflow:visible;"/>
		</clipPath>
		
			<line style="clip-path:url(#SVGID_34_);fill:none;stroke:#000000;stroke-width:0;stroke-miterlimit:1;" x1="137.533" y1="7.546" x2="137.844" y2="12.733"/>
		
			<line style="clip-path:url(#SVGID_34_);fill:none;stroke:#000000;stroke-width:0;stroke-miterlimit:1;" x1="137.844" y1="12.733" x2="140.022" y2="30.576"/>
		
			<line style="clip-path:url(#SVGID_34_);fill:none;stroke:#000000;stroke-width:0;stroke-miterlimit:1;" x1="140.022" y1="30.576" x2="140.126" y2="36.281"/>
		
			<line style="clip-path:url(#SVGID_34_);fill:none;stroke:#000000;stroke-width:0;stroke-miterlimit:1;" x1="140.126" y1="36.281" x2="139.503" y2="38.148"/>
		
			<line style="clip-path:url(#SVGID_34_);fill:none;stroke:#000000;stroke-width:0;stroke-miterlimit:1;" x1="139.503" y1="38.148" x2="138.778" y2="39.187"/>
	</g>
</g>
</svg>
