<?xml version="1.0" encoding="iso-8859-1"?>
<!-- Generator: Adobe Illustrator 16.0.1, SVG Export Plug-In . SVG Version: 6.00 Build 0)  -->
<!DOCTYPE svg PUBLIC "-//W3C//DTD SVG 1.1//EN" "http://www.w3.org/Graphics/SVG/1.1/DTD/svg11.dtd">
<svg version="1.1" id="Ebene_1" xmlns="http://www.w3.org/2000/svg" xmlns:xlink="http://www.w3.org/1999/xlink" x="0px" y="0px"
	 width="130.316px" height="148.113px" viewBox="0 0 130.316 148.113" style="enable-background:new 0 0 130.316 148.113;"
	 xml:space="preserve">
<g>
	<line style="fill:none;stroke:#000000;stroke-miterlimit:1;" x1="28.477" y1="50.437" x2="101.84" y2="50.437"/>
	<line style="fill:none;stroke:#000000;stroke-miterlimit:1;" x1="101.84" y1="50.437" x2="101.84" y2="53.333"/>
	<line style="fill:none;stroke:#000000;stroke-miterlimit:1;" x1="101.84" y1="53.333" x2="104.736" y2="53.816"/>
	<line style="fill:none;stroke:#000000;stroke-miterlimit:1;" x1="104.736" y1="53.816" x2="109.32" y2="55.264"/>
	<line style="fill:none;stroke:#000000;stroke-miterlimit:1;" x1="109.32" y1="55.264" x2="112.459" y2="57.194"/>
	<line style="fill:none;stroke:#000000;stroke-miterlimit:1;" x1="112.459" y1="57.194" x2="116.561" y2="60.09"/>
	<line style="fill:none;stroke:#000000;stroke-miterlimit:1;" x1="116.561" y1="60.09" x2="120.182" y2="63.952"/>
	<line style="fill:none;stroke:#000000;stroke-miterlimit:1;" x1="120.182" y1="63.952" x2="123.559" y2="68.537"/>
	<line style="fill:none;stroke:#000000;stroke-miterlimit:1;" x1="123.559" y1="68.537" x2="125.973" y2="73.122"/>
	<line style="fill:none;stroke:#000000;stroke-miterlimit:1;" x1="125.973" y1="73.122" x2="128.145" y2="78.914"/>
	<line style="fill:none;stroke:#000000;stroke-miterlimit:1;" x1="128.145" y1="78.914" x2="129.592" y2="84.705"/>
	<line style="fill:none;stroke:#000000;stroke-miterlimit:1;" x1="129.592" y1="84.705" x2="130.316" y2="94.359"/>
	<line style="fill:none;stroke:#000000;stroke-miterlimit:1;" x1="130.316" y1="94.359" x2="129.592" y2="99.426"/>
	<line style="fill:none;stroke:#000000;stroke-miterlimit:1;" x1="129.592" y1="99.426" x2="127.42" y2="105.219"/>
	<line style="fill:none;stroke:#000000;stroke-miterlimit:1;" x1="127.42" y1="105.219" x2="124.766" y2="107.873"/>
	<line style="fill:none;stroke:#000000;stroke-miterlimit:1;" x1="124.766" y1="107.873" x2="122.594" y2="108.355"/>
	<line style="fill:none;stroke:#000000;stroke-miterlimit:1;" x1="122.594" y1="108.355" x2="119.215" y2="108.113"/>
	<line style="fill:none;stroke:#000000;stroke-miterlimit:1;" x1="119.215" y1="108.113" x2="116.561" y2="105.941"/>
	<line style="fill:none;stroke:#000000;stroke-miterlimit:1;" x1="116.561" y1="105.941" x2="115.354" y2="103.287"/>
	<line style="fill:none;stroke:#000000;stroke-miterlimit:1;" x1="115.354" y1="103.287" x2="114.871" y2="100.393"/>
	<line style="fill:none;stroke:#000000;stroke-miterlimit:1;" x1="114.871" y1="100.393" x2="114.631" y2="98.221"/>
	<line style="fill:none;stroke:#000000;stroke-miterlimit:1;" x1="114.631" y1="98.221" x2="115.354" y2="90.738"/>
	<line style="fill:none;stroke:#000000;stroke-miterlimit:1;" x1="115.354" y1="90.738" x2="116.32" y2="82.533"/>
	<line style="fill:none;stroke:#000000;stroke-miterlimit:1;" x1="116.32" y1="82.533" x2="115.596" y2="74.087"/>
	<line style="fill:none;stroke:#000000;stroke-miterlimit:1;" x1="115.596" y1="74.087" x2="113.424" y2="68.054"/>
	<line style="fill:none;stroke:#000000;stroke-miterlimit:1;" x1="113.424" y1="68.054" x2="110.287" y2="63.228"/>
	<line style="fill:none;stroke:#000000;stroke-miterlimit:1;" x1="110.287" y1="63.228" x2="107.148" y2="59.607"/>
	<line style="fill:none;stroke:#000000;stroke-miterlimit:1;" x1="107.148" y1="59.607" x2="103.529" y2="58.16"/>
	<line style="fill:none;stroke:#000000;stroke-miterlimit:1;" x1="103.529" y1="58.16" x2="101.84" y2="58.16"/>
	<line style="fill:none;stroke:#000000;stroke-miterlimit:1;" x1="101.84" y1="58.16" x2="101.84" y2="60.814"/>
	<line style="fill:none;stroke:#000000;stroke-miterlimit:1;" x1="101.84" y1="60.814" x2="92.188" y2="60.814"/>
	<line style="fill:none;stroke:#000000;stroke-miterlimit:1;" x1="92.188" y1="60.814" x2="92.188" y2="65.882"/>
	<line style="fill:none;stroke:#000000;stroke-miterlimit:1;" x1="92.188" y1="65.882" x2="77.949" y2="65.882"/>
	<line style="fill:none;stroke:#000000;stroke-miterlimit:1;" x1="77.949" y1="65.882" x2="77.949" y2="60.814"/>
	<line style="fill:none;stroke:#000000;stroke-miterlimit:1;" x1="77.949" y1="60.814" x2="51.885" y2="60.814"/>
	<line style="fill:none;stroke:#000000;stroke-miterlimit:1;" x1="51.885" y1="60.814" x2="51.885" y2="65.882"/>
	<line style="fill:none;stroke:#000000;stroke-miterlimit:1;" x1="51.885" y1="65.882" x2="38.13" y2="65.882"/>
	<line style="fill:none;stroke:#000000;stroke-miterlimit:1;" x1="38.13" y1="65.882" x2="38.13" y2="60.814"/>
	<line style="fill:none;stroke:#000000;stroke-miterlimit:1;" x1="38.13" y1="60.814" x2="28.477" y2="60.814"/>
	<line style="fill:none;stroke:#000000;stroke-miterlimit:1;" x1="32.821" y1="50.437" x2="42.232" y2="4.344"/>
	<line style="fill:none;stroke:#000000;stroke-miterlimit:1;" x1="42.232" y1="4.344" x2="43.921" y2="1.448"/>
	<line style="fill:none;stroke:#000000;stroke-miterlimit:1;" x1="43.921" y1="1.448" x2="45.128" y2="0.482"/>
	<line style="fill:none;stroke:#000000;stroke-miterlimit:1;" x1="45.128" y1="0.482" x2="46.576" y2="0"/>
	<line style="fill:none;stroke:#000000;stroke-miterlimit:1;" x1="46.576" y1="0" x2="48.748" y2="0"/>
	<line style="fill:none;stroke:#000000;stroke-miterlimit:1;" x1="48.748" y1="0" x2="50.92" y2="1.207"/>
	<line style="fill:none;stroke:#000000;stroke-miterlimit:1;" x1="50.92" y1="1.207" x2="51.403" y2="2.654"/>
	<line style="fill:none;stroke:#000000;stroke-miterlimit:1;" x1="51.403" y1="2.654" x2="51.403" y2="4.344"/>
	<line style="fill:none;stroke:#000000;stroke-miterlimit:1;" x1="41.991" y1="50.437" x2="51.644" y2="4.103"/>
	<line style="fill:none;stroke:#000000;stroke-miterlimit:1;" x1="51.644" y1="4.103" x2="52.851" y2="1.93"/>
	<line style="fill:none;stroke:#000000;stroke-miterlimit:1;" x1="52.851" y1="1.93" x2="54.057" y2="0.724"/>
	<line style="fill:none;stroke:#000000;stroke-miterlimit:1;" x1="54.057" y1="0.724" x2="56.229" y2="0.241"/>
	<line style="fill:none;stroke:#000000;stroke-miterlimit:1;" x1="56.229" y1="0.241" x2="58.401" y2="0.965"/>
	<line style="fill:none;stroke:#000000;stroke-miterlimit:1;" x1="58.401" y1="0.965" x2="59.608" y2="1.93"/>
	<line style="fill:none;stroke:#000000;stroke-miterlimit:1;" x1="59.608" y1="1.93" x2="60.332" y2="3.378"/>
	<line style="fill:none;stroke:#000000;stroke-miterlimit:1;" x1="50.679" y1="50.437" x2="60.09" y2="4.344"/>
	<line style="fill:none;stroke:#000000;stroke-miterlimit:1;" x1="60.09" y1="4.344" x2="61.056" y2="2.172"/>
	<line style="fill:none;stroke:#000000;stroke-miterlimit:1;" x1="61.056" y1="2.172" x2="62.745" y2="0.724"/>
	<line style="fill:none;stroke:#000000;stroke-miterlimit:1;" x1="62.745" y1="0.724" x2="64.676" y2="0.482"/>
	<line style="fill:none;stroke:#000000;stroke-miterlimit:1;" x1="64.676" y1="0.482" x2="66.848" y2="0.724"/>
	<line style="fill:none;stroke:#000000;stroke-miterlimit:1;" x1="66.848" y1="0.724" x2="68.537" y2="2.172"/>
	<line style="fill:none;stroke:#000000;stroke-miterlimit:1;" x1="68.537" y1="2.172" x2="69.02" y2="4.103"/>
	<line style="fill:none;stroke:#000000;stroke-miterlimit:1;" x1="59.367" y1="50.437" x2="68.777" y2="4.826"/>
	<line style="fill:none;stroke:#000000;stroke-miterlimit:1;" x1="68.777" y1="4.826" x2="70.227" y2="2.172"/>
	<line style="fill:none;stroke:#000000;stroke-miterlimit:1;" x1="70.227" y1="2.172" x2="71.916" y2="0.724"/>
	<line style="fill:none;stroke:#000000;stroke-miterlimit:1;" x1="71.916" y1="0.724" x2="74.811" y2="0.482"/>
	<line style="fill:none;stroke:#000000;stroke-miterlimit:1;" x1="74.811" y1="0.482" x2="75.777" y2="0.724"/>
	<line style="fill:none;stroke:#000000;stroke-miterlimit:1;" x1="75.777" y1="0.724" x2="77.225" y2="1.689"/>
	<line style="fill:none;stroke:#000000;stroke-miterlimit:1;" x1="77.225" y1="1.689" x2="77.949" y2="4.103"/>
	<line style="fill:none;stroke:#000000;stroke-miterlimit:1;" x1="68.537" y1="50.437" x2="77.707" y2="5.068"/>
	<line style="fill:none;stroke:#000000;stroke-miterlimit:1;" x1="77.707" y1="5.068" x2="78.672" y2="2.654"/>
	<line style="fill:none;stroke:#000000;stroke-miterlimit:1;" x1="78.672" y1="2.654" x2="79.639" y2="1.207"/>
	<line style="fill:none;stroke:#000000;stroke-miterlimit:1;" x1="79.639" y1="1.207" x2="81.811" y2="0.241"/>
	<line style="fill:none;stroke:#000000;stroke-miterlimit:1;" x1="81.811" y1="0.241" x2="84.465" y2="0.724"/>
	<line style="fill:none;stroke:#000000;stroke-miterlimit:1;" x1="84.465" y1="0.724" x2="86.395" y2="1.93"/>
	<line style="fill:none;stroke:#000000;stroke-miterlimit:1;" x1="86.395" y1="1.93" x2="87.119" y2="3.62"/>
	<line style="fill:none;stroke:#000000;stroke-miterlimit:1;" x1="77.949" y1="50.437" x2="86.637" y2="5.309"/>
	<line style="fill:none;stroke:#000000;stroke-miterlimit:1;" x1="86.637" y1="5.309" x2="87.361" y2="2.896"/>
	<line style="fill:none;stroke:#000000;stroke-miterlimit:1;" x1="87.361" y1="2.896" x2="88.809" y2="0.965"/>
	<line style="fill:none;stroke:#000000;stroke-miterlimit:1;" x1="88.809" y1="0.965" x2="91.221" y2="0.482"/>
	<line style="fill:none;stroke:#000000;stroke-miterlimit:1;" x1="91.221" y1="0.482" x2="91.705" y2="0.241"/>
	<line style="fill:none;stroke:#000000;stroke-miterlimit:1;" x1="91.705" y1="0.241" x2="93.877" y2="1.207"/>
	<line style="fill:none;stroke:#000000;stroke-miterlimit:1;" x1="93.877" y1="1.207" x2="95.324" y2="2.654"/>
	<line style="fill:none;stroke:#000000;stroke-miterlimit:1;" x1="95.324" y1="2.654" x2="95.324" y2="4.103"/>
	<line style="fill:none;stroke:#000000;stroke-miterlimit:1;" x1="86.154" y1="50.437" x2="95.324" y2="3.861"/>
	<line style="fill:none;stroke:#000000;stroke-miterlimit:1;" x1="95.324" y1="3.861" x2="96.289" y2="1.93"/>
	<line style="fill:none;stroke:#000000;stroke-miterlimit:1;" x1="96.289" y1="1.93" x2="97.496" y2="0.724"/>
	<line style="fill:none;stroke:#000000;stroke-miterlimit:1;" x1="97.496" y1="0.724" x2="98.943" y2="0.482"/>
	<line style="fill:none;stroke:#000000;stroke-miterlimit:1;" x1="98.943" y1="0.482" x2="101.115" y2="0.482"/>
	<line style="fill:none;stroke:#000000;stroke-miterlimit:1;" x1="101.115" y1="0.482" x2="103.047" y2="1.207"/>
	<line style="fill:none;stroke:#000000;stroke-miterlimit:1;" x1="103.047" y1="1.207" x2="104.012" y2="2.654"/>
	<line style="fill:none;stroke:#000000;stroke-miterlimit:1;" x1="104.012" y1="2.654" x2="104.494" y2="5.068"/>
	<line style="fill:none;stroke:#000000;stroke-miterlimit:1;" x1="104.494" y1="5.068" x2="95.082" y2="50.437"/>
	<line style="fill:none;stroke:#000000;stroke-miterlimit:1;" x1="95.082" y1="50.437" x2="28.477" y2="50.437"/>
	<line style="fill:none;stroke:#000000;stroke-miterlimit:1;" x1="28.477" y1="50.437" x2="28.477" y2="53.574"/>
	<line style="fill:none;stroke:#000000;stroke-miterlimit:1;" x1="28.477" y1="53.574" x2="25.098" y2="54.057"/>
	<line style="fill:none;stroke:#000000;stroke-miterlimit:1;" x1="25.098" y1="54.057" x2="20.513" y2="55.505"/>
	<line style="fill:none;stroke:#000000;stroke-miterlimit:1;" x1="20.513" y1="55.505" x2="17.134" y2="57.436"/>
	<line style="fill:none;stroke:#000000;stroke-miterlimit:1;" x1="17.134" y1="57.436" x2="13.273" y2="60.573"/>
	<line style="fill:none;stroke:#000000;stroke-miterlimit:1;" x1="13.273" y1="60.573" x2="9.653" y2="64.434"/>
	<line style="fill:none;stroke:#000000;stroke-miterlimit:1;" x1="9.653" y1="64.434" x2="4.103" y2="73.846"/>
	<line style="fill:none;stroke:#000000;stroke-miterlimit:1;" x1="4.103" y1="73.846" x2="2.414" y2="79.396"/>
	<line style="fill:none;stroke:#000000;stroke-miterlimit:1;" x1="2.414" y1="79.396" x2="0.724" y2="85.188"/>
	<line style="fill:none;stroke:#000000;stroke-miterlimit:1;" x1="0.724" y1="85.188" x2="0" y2="94.842"/>
	<line style="fill:none;stroke:#000000;stroke-miterlimit:1;" x1="0" y1="94.842" x2="0.724" y2="99.908"/>
	<line style="fill:none;stroke:#000000;stroke-miterlimit:1;" x1="0.724" y1="99.908" x2="3.137" y2="105.459"/>
	<line style="fill:none;stroke:#000000;stroke-miterlimit:1;" x1="3.137" y1="105.459" x2="5.792" y2="108.113"/>
	<line style="fill:none;stroke:#000000;stroke-miterlimit:1;" x1="5.792" y1="108.113" x2="7.723" y2="108.598"/>
	<line style="fill:none;stroke:#000000;stroke-miterlimit:1;" x1="7.723" y1="108.598" x2="11.101" y2="108.355"/>
	<line style="fill:none;stroke:#000000;stroke-miterlimit:1;" x1="11.101" y1="108.355" x2="13.997" y2="106.184"/>
	<line style="fill:none;stroke:#000000;stroke-miterlimit:1;" x1="13.997" y1="106.184" x2="14.962" y2="103.529"/>
	<line style="fill:none;stroke:#000000;stroke-miterlimit:1;" x1="14.962" y1="103.529" x2="15.445" y2="100.633"/>
	<line style="fill:none;stroke:#000000;stroke-miterlimit:1;" x1="15.445" y1="100.633" x2="15.687" y2="98.461"/>
	<line style="fill:none;stroke:#000000;stroke-miterlimit:1;" x1="15.687" y1="98.461" x2="14.962" y2="90.98"/>
	<line style="fill:none;stroke:#000000;stroke-miterlimit:1;" x1="14.962" y1="90.98" x2="13.756" y2="82.775"/>
	<line style="fill:none;stroke:#000000;stroke-miterlimit:1;" x1="13.756" y1="82.775" x2="14.48" y2="74.57"/>
	<line style="fill:none;stroke:#000000;stroke-miterlimit:1;" x1="14.48" y1="74.57" x2="16.41" y2="68.537"/>
	<line style="fill:none;stroke:#000000;stroke-miterlimit:1;" x1="16.41" y1="68.537" x2="19.547" y2="63.469"/>
	<line style="fill:none;stroke:#000000;stroke-miterlimit:1;" x1="19.547" y1="63.469" x2="22.685" y2="59.849"/>
	<line style="fill:none;stroke:#000000;stroke-miterlimit:1;" x1="22.685" y1="59.849" x2="26.063" y2="58.401"/>
	<line style="fill:none;stroke:#000000;stroke-miterlimit:1;" x1="26.063" y1="58.401" x2="28.477" y2="58.16"/>
	<line style="fill:none;stroke:#000000;stroke-miterlimit:1;" x1="28.477" y1="58.16" x2="28.477" y2="60.332"/>
	<line style="fill:none;stroke:#000000;stroke-miterlimit:1;" x1="65.882" y1="93.092" x2="62.986" y2="94.539"/>
	<line style="fill:none;stroke:#000000;stroke-miterlimit:1;" x1="62.986" y1="94.539" x2="60.814" y2="97.193"/>
	<line style="fill:none;stroke:#000000;stroke-miterlimit:1;" x1="60.814" y1="97.193" x2="60.09" y2="99.365"/>
	<line style="fill:none;stroke:#000000;stroke-miterlimit:1;" x1="60.09" y1="99.365" x2="59.608" y2="101.537"/>
	<line style="fill:none;stroke:#000000;stroke-miterlimit:1;" x1="59.608" y1="101.537" x2="60.332" y2="104.916"/>
	<line style="fill:none;stroke:#000000;stroke-miterlimit:1;" x1="60.332" y1="104.916" x2="62.021" y2="107.088"/>
	<line style="fill:none;stroke:#000000;stroke-miterlimit:1;" x1="62.021" y1="107.088" x2="63.71" y2="108.537"/>
	<line style="fill:none;stroke:#000000;stroke-miterlimit:1;" x1="63.71" y1="108.537" x2="66.605" y2="109.502"/>
	<line style="fill:none;stroke:#000000;stroke-miterlimit:1;" x1="66.605" y1="109.502" x2="68.777" y2="110.227"/>
	<line style="fill:none;stroke:#000000;stroke-miterlimit:1;" x1="68.777" y1="110.227" x2="71.434" y2="110.227"/>
	<line style="fill:none;stroke:#000000;stroke-miterlimit:1;" x1="71.434" y1="110.227" x2="74.328" y2="109.02"/>
	<line style="fill:none;stroke:#000000;stroke-miterlimit:1;" x1="74.328" y1="109.02" x2="76.742" y2="107.812"/>
	<line style="fill:none;stroke:#000000;stroke-miterlimit:1;" x1="76.742" y1="107.812" x2="78.189" y2="106.123"/>
	<line style="fill:none;stroke:#000000;stroke-miterlimit:1;" x1="78.189" y1="106.123" x2="79.879" y2="103.709"/>
	<line style="fill:none;stroke:#000000;stroke-miterlimit:1;" x1="79.879" y1="103.709" x2="81.086" y2="100.814"/>
	<line style="fill:none;stroke:#000000;stroke-miterlimit:1;" x1="81.086" y1="100.814" x2="81.811" y2="98.4"/>
	<line style="fill:none;stroke:#000000;stroke-miterlimit:1;" x1="81.811" y1="98.4" x2="82.051" y2="95.988"/>
	<line style="fill:none;stroke:#000000;stroke-miterlimit:1;" x1="82.051" y1="95.988" x2="81.811" y2="94.299"/>
	<line style="fill:none;stroke:#000000;stroke-miterlimit:1;" x1="81.811" y1="94.299" x2="81.328" y2="91.402"/>
	<line style="fill:none;stroke:#000000;stroke-miterlimit:1;" x1="81.328" y1="91.402" x2="80.121" y2="88.988"/>
	<line style="fill:none;stroke:#000000;stroke-miterlimit:1;" x1="80.121" y1="88.988" x2="78.189" y2="86.576"/>
	<line style="fill:none;stroke:#000000;stroke-miterlimit:1;" x1="78.189" y1="86.576" x2="76.26" y2="84.887"/>
	<line style="fill:none;stroke:#000000;stroke-miterlimit:1;" x1="76.26" y1="84.887" x2="74.57" y2="84.162"/>
	<line style="fill:none;stroke:#000000;stroke-miterlimit:1;" x1="74.57" y1="84.162" x2="72.881" y2="83.439"/>
	<line style="fill:none;stroke:#000000;stroke-miterlimit:1;" x1="72.881" y1="83.439" x2="70.467" y2="83.197"/>
	<line style="fill:none;stroke:#000000;stroke-miterlimit:1;" x1="70.467" y1="83.197" x2="68.537" y2="82.955"/>
	<line style="fill:none;stroke:#000000;stroke-miterlimit:1;" x1="68.537" y1="82.955" x2="66.123" y2="82.955"/>
	<line style="fill:none;stroke:#000000;stroke-miterlimit:1;" x1="66.123" y1="82.955" x2="63.228" y2="83.197"/>
	<line style="fill:none;stroke:#000000;stroke-miterlimit:1;" x1="63.228" y1="83.197" x2="60.09" y2="84.162"/>
	<line style="fill:none;stroke:#000000;stroke-miterlimit:1;" x1="60.09" y1="84.162" x2="57.436" y2="85.611"/>
	<line style="fill:none;stroke:#000000;stroke-miterlimit:1;" x1="57.436" y1="85.611" x2="55.747" y2="87.059"/>
	<line style="fill:none;stroke:#000000;stroke-miterlimit:1;" x1="55.747" y1="87.059" x2="53.816" y2="88.748"/>
	<line style="fill:none;stroke:#000000;stroke-miterlimit:1;" x1="53.816" y1="88.748" x2="52.368" y2="90.438"/>
	<line style="fill:none;stroke:#000000;stroke-miterlimit:1;" x1="52.368" y1="90.438" x2="50.92" y2="93.092"/>
	<line style="fill:none;stroke:#000000;stroke-miterlimit:1;" x1="50.92" y1="93.092" x2="49.472" y2="95.746"/>
	<line style="fill:none;stroke:#000000;stroke-miterlimit:1;" x1="49.472" y1="95.746" x2="48.989" y2="98.16"/>
	<line style="fill:none;stroke:#000000;stroke-miterlimit:1;" x1="48.989" y1="98.16" x2="48.507" y2="101.537"/>
	<line style="fill:none;stroke:#000000;stroke-miterlimit:1;" x1="48.507" y1="101.537" x2="48.266" y2="104.916"/>
	<line style="fill:none;stroke:#000000;stroke-miterlimit:1;" x1="48.266" y1="104.916" x2="48.507" y2="107.57"/>
	<line style="fill:none;stroke:#000000;stroke-miterlimit:1;" x1="48.507" y1="107.57" x2="48.748" y2="111.432"/>
	<line style="fill:none;stroke:#000000;stroke-miterlimit:1;" x1="48.748" y1="111.432" x2="50.196" y2="115.293"/>
	<line style="fill:none;stroke:#000000;stroke-miterlimit:1;" x1="50.196" y1="115.293" x2="52.368" y2="119.637"/>
	<line style="fill:none;stroke:#000000;stroke-miterlimit:1;" x1="52.368" y1="119.637" x2="56.229" y2="124.705"/>
	<line style="fill:none;stroke:#000000;stroke-miterlimit:1;" x1="56.229" y1="124.705" x2="62.262" y2="130.498"/>
	<line style="fill:none;stroke:#000000;stroke-miterlimit:1;" x1="62.262" y1="130.498" x2="70.951" y2="137.496"/>
	<line style="fill:none;stroke:#000000;stroke-miterlimit:1;" x1="70.951" y1="137.496" x2="89.773" y2="148.113"/>
</g>
</svg>
