<?xml version="1.0" encoding="iso-8859-1"?>
<!-- Generator: Adobe Illustrator 16.0.1, SVG Export Plug-In . SVG Version: 6.00 Build 0)  -->
<!DOCTYPE svg PUBLIC "-//W3C//DTD SVG 1.1//EN" "http://www.w3.org/Graphics/SVG/1.1/DTD/svg11.dtd">
<svg version="1.1" id="Ebene_1" xmlns="http://www.w3.org/2000/svg" xmlns:xlink="http://www.w3.org/1999/xlink" x="0px" y="0px"
	 width="251.673px" height="150.213px" viewBox="0 0 251.673 150.213" style="enable-background:new 0 0 251.673 150.213;"
	 xml:space="preserve">
<g>
	<line style="fill:none;stroke:#000000;stroke-miterlimit:1;" x1="23.073" y1="42.964" x2="82.514" y2="42.964"/>
	<line style="fill:none;stroke:#000000;stroke-miterlimit:1;" x1="82.514" y1="42.964" x2="82.514" y2="45.311"/>
	<line style="fill:none;stroke:#000000;stroke-miterlimit:1;" x1="82.514" y1="45.311" x2="84.86" y2="45.702"/>
	<line style="fill:none;stroke:#000000;stroke-miterlimit:1;" x1="84.86" y1="45.702" x2="88.575" y2="46.875"/>
	<line style="fill:none;stroke:#000000;stroke-miterlimit:1;" x1="88.575" y1="46.875" x2="91.117" y2="48.439"/>
	<line style="fill:none;stroke:#000000;stroke-miterlimit:1;" x1="91.117" y1="48.439" x2="94.441" y2="50.785"/>
	<line style="fill:none;stroke:#000000;stroke-miterlimit:1;" x1="94.441" y1="50.785" x2="97.374" y2="53.914"/>
	<line style="fill:none;stroke:#000000;stroke-miterlimit:1;" x1="97.374" y1="53.914" x2="100.112" y2="57.629"/>
	<line style="fill:none;stroke:#000000;stroke-miterlimit:1;" x1="100.112" y1="57.629" x2="102.067" y2="61.344"/>
	<line style="fill:none;stroke:#000000;stroke-miterlimit:1;" x1="102.067" y1="61.344" x2="103.827" y2="66.037"/>
	<line style="fill:none;stroke:#000000;stroke-miterlimit:1;" x1="103.827" y1="66.037" x2="105" y2="70.729"/>
	<line style="fill:none;stroke:#000000;stroke-miterlimit:1;" x1="105" y1="70.729" x2="105.586" y2="78.551"/>
	<line style="fill:none;stroke:#000000;stroke-miterlimit:1;" x1="105.586" y1="78.551" x2="105" y2="82.656"/>
	<line style="fill:none;stroke:#000000;stroke-miterlimit:1;" x1="105" y1="82.656" x2="103.24" y2="87.35"/>
	<line style="fill:none;stroke:#000000;stroke-miterlimit:1;" x1="103.24" y1="87.35" x2="101.089" y2="89.5"/>
	<line style="fill:none;stroke:#000000;stroke-miterlimit:1;" x1="101.089" y1="89.5" x2="99.33" y2="89.891"/>
	<line style="fill:none;stroke:#000000;stroke-miterlimit:1;" x1="99.33" y1="89.891" x2="96.592" y2="89.695"/>
	<line style="fill:none;stroke:#000000;stroke-miterlimit:1;" x1="96.592" y1="89.695" x2="94.441" y2="87.936"/>
	<line style="fill:none;stroke:#000000;stroke-miterlimit:1;" x1="94.441" y1="87.936" x2="93.463" y2="85.785"/>
	<line style="fill:none;stroke:#000000;stroke-miterlimit:1;" x1="93.463" y1="85.785" x2="93.072" y2="83.439"/>
	<line style="fill:none;stroke:#000000;stroke-miterlimit:1;" x1="93.072" y1="83.439" x2="92.877" y2="81.68"/>
	<line style="fill:none;stroke:#000000;stroke-miterlimit:1;" x1="92.877" y1="81.68" x2="93.463" y2="75.618"/>
	<line style="fill:none;stroke:#000000;stroke-miterlimit:1;" x1="93.463" y1="75.618" x2="94.246" y2="68.97"/>
	<line style="fill:none;stroke:#000000;stroke-miterlimit:1;" x1="94.246" y1="68.97" x2="93.659" y2="62.126"/>
	<line style="fill:none;stroke:#000000;stroke-miterlimit:1;" x1="93.659" y1="62.126" x2="91.899" y2="57.238"/>
	<line style="fill:none;stroke:#000000;stroke-miterlimit:1;" x1="91.899" y1="57.238" x2="89.357" y2="53.327"/>
	<line style="fill:none;stroke:#000000;stroke-miterlimit:1;" x1="89.357" y1="53.327" x2="86.815" y2="50.394"/>
	<line style="fill:none;stroke:#000000;stroke-miterlimit:1;" x1="86.815" y1="50.394" x2="83.883" y2="49.221"/>
	<line style="fill:none;stroke:#000000;stroke-miterlimit:1;" x1="83.883" y1="49.221" x2="82.514" y2="49.221"/>
	<line style="fill:none;stroke:#000000;stroke-miterlimit:1;" x1="82.514" y1="49.221" x2="82.514" y2="51.372"/>
	<line style="fill:none;stroke:#000000;stroke-miterlimit:1;" x1="82.514" y1="51.372" x2="74.693" y2="51.372"/>
	<line style="fill:none;stroke:#000000;stroke-miterlimit:1;" x1="74.693" y1="51.372" x2="74.693" y2="55.478"/>
	<line style="fill:none;stroke:#000000;stroke-miterlimit:1;" x1="74.693" y1="55.478" x2="63.156" y2="55.478"/>
	<line style="fill:none;stroke:#000000;stroke-miterlimit:1;" x1="63.156" y1="55.478" x2="63.156" y2="51.372"/>
	<line style="fill:none;stroke:#000000;stroke-miterlimit:1;" x1="63.156" y1="51.372" x2="42.039" y2="51.372"/>
	<line style="fill:none;stroke:#000000;stroke-miterlimit:1;" x1="42.039" y1="51.372" x2="42.039" y2="55.478"/>
	<line style="fill:none;stroke:#000000;stroke-miterlimit:1;" x1="42.039" y1="55.478" x2="30.894" y2="55.478"/>
	<line style="fill:none;stroke:#000000;stroke-miterlimit:1;" x1="30.894" y1="55.478" x2="30.894" y2="51.372"/>
	<line style="fill:none;stroke:#000000;stroke-miterlimit:1;" x1="30.894" y1="51.372" x2="23.073" y2="51.372"/>
	<line style="fill:none;stroke:#000000;stroke-miterlimit:1;" x1="26.592" y1="42.964" x2="34.218" y2="5.618"/>
	<line style="fill:none;stroke:#000000;stroke-miterlimit:1;" x1="34.218" y1="5.618" x2="35.586" y2="3.271"/>
	<line style="fill:none;stroke:#000000;stroke-miterlimit:1;" x1="35.586" y1="3.271" x2="36.564" y2="2.489"/>
	<line style="fill:none;stroke:#000000;stroke-miterlimit:1;" x1="36.564" y1="2.489" x2="37.737" y2="2.098"/>
	<line style="fill:none;stroke:#000000;stroke-miterlimit:1;" x1="37.737" y1="2.098" x2="39.497" y2="2.098"/>
	<line style="fill:none;stroke:#000000;stroke-miterlimit:1;" x1="39.497" y1="2.098" x2="41.257" y2="3.076"/>
	<line style="fill:none;stroke:#000000;stroke-miterlimit:1;" x1="41.257" y1="3.076" x2="41.648" y2="4.249"/>
	<line style="fill:none;stroke:#000000;stroke-miterlimit:1;" x1="41.648" y1="4.249" x2="41.648" y2="5.618"/>
	<line style="fill:none;stroke:#000000;stroke-miterlimit:1;" x1="34.022" y1="42.964" x2="41.844" y2="5.422"/>
	<line style="fill:none;stroke:#000000;stroke-miterlimit:1;" x1="41.844" y1="5.422" x2="42.821" y2="3.663"/>
	<line style="fill:none;stroke:#000000;stroke-miterlimit:1;" x1="42.821" y1="3.663" x2="43.799" y2="2.685"/>
	<line style="fill:none;stroke:#000000;stroke-miterlimit:1;" x1="43.799" y1="2.685" x2="45.559" y2="2.293"/>
	<line style="fill:none;stroke:#000000;stroke-miterlimit:1;" x1="45.559" y1="2.293" x2="47.318" y2="2.88"/>
	<line style="fill:none;stroke:#000000;stroke-miterlimit:1;" x1="47.318" y1="2.88" x2="48.296" y2="3.663"/>
	<line style="fill:none;stroke:#000000;stroke-miterlimit:1;" x1="48.296" y1="3.663" x2="48.883" y2="4.835"/>
	<line style="fill:none;stroke:#000000;stroke-miterlimit:1;" x1="41.062" y1="42.964" x2="48.687" y2="5.618"/>
	<line style="fill:none;stroke:#000000;stroke-miterlimit:1;" x1="48.687" y1="5.618" x2="49.469" y2="3.858"/>
	<line style="fill:none;stroke:#000000;stroke-miterlimit:1;" x1="49.469" y1="3.858" x2="50.838" y2="2.685"/>
	<line style="fill:none;stroke:#000000;stroke-miterlimit:1;" x1="50.838" y1="2.685" x2="52.402" y2="2.489"/>
	<line style="fill:none;stroke:#000000;stroke-miterlimit:1;" x1="52.402" y1="2.489" x2="54.162" y2="2.685"/>
	<line style="fill:none;stroke:#000000;stroke-miterlimit:1;" x1="54.162" y1="2.685" x2="55.531" y2="3.858"/>
	<line style="fill:none;stroke:#000000;stroke-miterlimit:1;" x1="55.531" y1="3.858" x2="55.922" y2="5.422"/>
	<line style="fill:none;stroke:#000000;stroke-miterlimit:1;" x1="48.101" y1="42.964" x2="55.726" y2="6.009"/>
	<line style="fill:none;stroke:#000000;stroke-miterlimit:1;" x1="55.726" y1="6.009" x2="56.899" y2="3.858"/>
	<line style="fill:none;stroke:#000000;stroke-miterlimit:1;" x1="56.899" y1="3.858" x2="58.268" y2="2.685"/>
	<line style="fill:none;stroke:#000000;stroke-miterlimit:1;" x1="58.268" y1="2.685" x2="60.614" y2="2.489"/>
	<line style="fill:none;stroke:#000000;stroke-miterlimit:1;" x1="60.614" y1="2.489" x2="61.396" y2="2.685"/>
	<line style="fill:none;stroke:#000000;stroke-miterlimit:1;" x1="61.396" y1="2.685" x2="62.57" y2="3.467"/>
	<line style="fill:none;stroke:#000000;stroke-miterlimit:1;" x1="62.57" y1="3.467" x2="63.156" y2="5.422"/>
	<line style="fill:none;stroke:#000000;stroke-miterlimit:1;" x1="55.531" y1="42.964" x2="62.961" y2="6.204"/>
	<line style="fill:none;stroke:#000000;stroke-miterlimit:1;" x1="62.961" y1="6.204" x2="63.743" y2="4.249"/>
	<line style="fill:none;stroke:#000000;stroke-miterlimit:1;" x1="63.743" y1="4.249" x2="64.525" y2="3.076"/>
	<line style="fill:none;stroke:#000000;stroke-miterlimit:1;" x1="64.525" y1="3.076" x2="66.285" y2="2.293"/>
	<line style="fill:none;stroke:#000000;stroke-miterlimit:1;" x1="66.285" y1="2.293" x2="68.436" y2="2.685"/>
	<line style="fill:none;stroke:#000000;stroke-miterlimit:1;" x1="68.436" y1="2.685" x2="70" y2="3.663"/>
	<line style="fill:none;stroke:#000000;stroke-miterlimit:1;" x1="70" y1="3.663" x2="70.586" y2="5.031"/>
	<line style="fill:none;stroke:#000000;stroke-miterlimit:1;" x1="63.156" y1="42.964" x2="70.195" y2="6.4"/>
	<line style="fill:none;stroke:#000000;stroke-miterlimit:1;" x1="70.195" y1="6.4" x2="70.782" y2="4.444"/>
	<line style="fill:none;stroke:#000000;stroke-miterlimit:1;" x1="70.782" y1="4.444" x2="71.955" y2="2.88"/>
	<line style="fill:none;stroke:#000000;stroke-miterlimit:1;" x1="71.955" y1="2.88" x2="73.911" y2="2.489"/>
	<line style="fill:none;stroke:#000000;stroke-miterlimit:1;" x1="73.911" y1="2.489" x2="74.302" y2="2.293"/>
	<line style="fill:none;stroke:#000000;stroke-miterlimit:1;" x1="74.302" y1="2.293" x2="76.062" y2="3.076"/>
	<line style="fill:none;stroke:#000000;stroke-miterlimit:1;" x1="76.062" y1="3.076" x2="77.234" y2="4.249"/>
	<line style="fill:none;stroke:#000000;stroke-miterlimit:1;" x1="77.234" y1="4.249" x2="77.234" y2="5.422"/>
	<line style="fill:none;stroke:#000000;stroke-miterlimit:1;" x1="69.804" y1="42.964" x2="77.234" y2="5.227"/>
	<line style="fill:none;stroke:#000000;stroke-miterlimit:1;" x1="77.234" y1="5.227" x2="78.017" y2="3.663"/>
	<line style="fill:none;stroke:#000000;stroke-miterlimit:1;" x1="78.017" y1="3.663" x2="78.994" y2="2.685"/>
	<line style="fill:none;stroke:#000000;stroke-miterlimit:1;" x1="78.994" y1="2.685" x2="80.167" y2="2.489"/>
	<line style="fill:none;stroke:#000000;stroke-miterlimit:1;" x1="80.167" y1="2.489" x2="81.927" y2="2.489"/>
	<line style="fill:none;stroke:#000000;stroke-miterlimit:1;" x1="81.927" y1="2.489" x2="83.492" y2="3.076"/>
	<line style="fill:none;stroke:#000000;stroke-miterlimit:1;" x1="83.492" y1="3.076" x2="84.273" y2="4.249"/>
	<line style="fill:none;stroke:#000000;stroke-miterlimit:1;" x1="84.273" y1="4.249" x2="84.665" y2="6.204"/>
	<line style="fill:none;stroke:#000000;stroke-miterlimit:1;" x1="84.665" y1="6.204" x2="77.039" y2="42.964"/>
	<line style="fill:none;stroke:#000000;stroke-miterlimit:1;" x1="77.039" y1="42.964" x2="23.073" y2="42.964"/>
	<line style="fill:none;stroke:#000000;stroke-miterlimit:1;" x1="23.073" y1="42.964" x2="23.073" y2="45.506"/>
	<line style="fill:none;stroke:#000000;stroke-miterlimit:1;" x1="23.073" y1="45.506" x2="20.335" y2="45.897"/>
	<line style="fill:none;stroke:#000000;stroke-miterlimit:1;" x1="20.335" y1="45.897" x2="16.62" y2="47.07"/>
	<line style="fill:none;stroke:#000000;stroke-miterlimit:1;" x1="16.62" y1="47.07" x2="13.883" y2="48.634"/>
	<line style="fill:none;stroke:#000000;stroke-miterlimit:1;" x1="13.883" y1="48.634" x2="10.754" y2="51.176"/>
	<line style="fill:none;stroke:#000000;stroke-miterlimit:1;" x1="10.754" y1="51.176" x2="7.821" y2="54.305"/>
	<line style="fill:none;stroke:#000000;stroke-miterlimit:1;" x1="7.821" y1="54.305" x2="3.324" y2="61.93"/>
	<line style="fill:none;stroke:#000000;stroke-miterlimit:1;" x1="3.324" y1="61.93" x2="1.955" y2="66.428"/>
	<line style="fill:none;stroke:#000000;stroke-miterlimit:1;" x1="1.955" y1="66.428" x2="0.586" y2="71.121"/>
	<line style="fill:none;stroke:#000000;stroke-miterlimit:1;" x1="0.586" y1="71.121" x2="0" y2="78.941"/>
	<line style="fill:none;stroke:#000000;stroke-miterlimit:1;" x1="0" y1="78.941" x2="0.586" y2="83.047"/>
	<line style="fill:none;stroke:#000000;stroke-miterlimit:1;" x1="0.586" y1="83.047" x2="2.542" y2="87.545"/>
	<line style="fill:none;stroke:#000000;stroke-miterlimit:1;" x1="2.542" y1="87.545" x2="4.693" y2="89.695"/>
	<line style="fill:none;stroke:#000000;stroke-miterlimit:1;" x1="4.693" y1="89.695" x2="6.257" y2="90.086"/>
	<line style="fill:none;stroke:#000000;stroke-miterlimit:1;" x1="6.257" y1="90.086" x2="8.995" y2="89.891"/>
	<line style="fill:none;stroke:#000000;stroke-miterlimit:1;" x1="8.995" y1="89.891" x2="11.341" y2="88.131"/>
	<line style="fill:none;stroke:#000000;stroke-miterlimit:1;" x1="11.341" y1="88.131" x2="12.123" y2="85.98"/>
	<line style="fill:none;stroke:#000000;stroke-miterlimit:1;" x1="12.123" y1="85.98" x2="12.514" y2="83.635"/>
	<line style="fill:none;stroke:#000000;stroke-miterlimit:1;" x1="12.514" y1="83.635" x2="12.709" y2="81.875"/>
	<line style="fill:none;stroke:#000000;stroke-miterlimit:1;" x1="12.709" y1="81.875" x2="12.123" y2="75.813"/>
	<line style="fill:none;stroke:#000000;stroke-miterlimit:1;" x1="12.123" y1="75.813" x2="11.146" y2="69.165"/>
	<line style="fill:none;stroke:#000000;stroke-miterlimit:1;" x1="11.146" y1="69.165" x2="11.732" y2="62.517"/>
	<line style="fill:none;stroke:#000000;stroke-miterlimit:1;" x1="11.732" y1="62.517" x2="13.296" y2="57.629"/>
	<line style="fill:none;stroke:#000000;stroke-miterlimit:1;" x1="13.296" y1="57.629" x2="15.838" y2="53.522"/>
	<line style="fill:none;stroke:#000000;stroke-miterlimit:1;" x1="15.838" y1="53.522" x2="18.38" y2="50.59"/>
	<line style="fill:none;stroke:#000000;stroke-miterlimit:1;" x1="18.38" y1="50.59" x2="21.117" y2="49.417"/>
	<line style="fill:none;stroke:#000000;stroke-miterlimit:1;" x1="21.117" y1="49.417" x2="23.073" y2="49.221"/>
	<line style="fill:none;stroke:#000000;stroke-miterlimit:1;" x1="23.073" y1="49.221" x2="23.073" y2="50.981"/>
	<line style="fill:none;stroke:#000000;stroke-miterlimit:1;" x1="16.718" y1="105.631" x2="14.372" y2="106.805"/>
	<line style="fill:none;stroke:#000000;stroke-miterlimit:1;" x1="14.372" y1="106.805" x2="12.612" y2="108.955"/>
	<line style="fill:none;stroke:#000000;stroke-miterlimit:1;" x1="12.612" y1="108.955" x2="12.025" y2="110.715"/>
	<line style="fill:none;stroke:#000000;stroke-miterlimit:1;" x1="12.025" y1="110.715" x2="11.634" y2="112.475"/>
	<line style="fill:none;stroke:#000000;stroke-miterlimit:1;" x1="11.634" y1="112.475" x2="12.221" y2="115.213"/>
	<line style="fill:none;stroke:#000000;stroke-miterlimit:1;" x1="12.221" y1="115.213" x2="13.589" y2="116.973"/>
	<line style="fill:none;stroke:#000000;stroke-miterlimit:1;" x1="13.589" y1="116.973" x2="14.958" y2="118.145"/>
	<line style="fill:none;stroke:#000000;stroke-miterlimit:1;" x1="14.958" y1="118.145" x2="17.305" y2="118.928"/>
	<line style="fill:none;stroke:#000000;stroke-miterlimit:1;" x1="17.305" y1="118.928" x2="19.064" y2="119.514"/>
	<line style="fill:none;stroke:#000000;stroke-miterlimit:1;" x1="19.064" y1="119.514" x2="21.215" y2="119.514"/>
	<line style="fill:none;stroke:#000000;stroke-miterlimit:1;" x1="21.215" y1="119.514" x2="23.562" y2="118.537"/>
	<line style="fill:none;stroke:#000000;stroke-miterlimit:1;" x1="23.562" y1="118.537" x2="25.517" y2="117.559"/>
	<line style="fill:none;stroke:#000000;stroke-miterlimit:1;" x1="25.517" y1="117.559" x2="26.69" y2="116.189"/>
	<line style="fill:none;stroke:#000000;stroke-miterlimit:1;" x1="26.69" y1="116.189" x2="28.059" y2="114.234"/>
	<line style="fill:none;stroke:#000000;stroke-miterlimit:1;" x1="28.059" y1="114.234" x2="29.036" y2="111.889"/>
	<line style="fill:none;stroke:#000000;stroke-miterlimit:1;" x1="29.036" y1="111.889" x2="29.623" y2="109.934"/>
	<line style="fill:none;stroke:#000000;stroke-miterlimit:1;" x1="29.623" y1="109.934" x2="29.818" y2="107.979"/>
	<line style="fill:none;stroke:#000000;stroke-miterlimit:1;" x1="29.818" y1="107.979" x2="29.623" y2="106.609"/>
	<line style="fill:none;stroke:#000000;stroke-miterlimit:1;" x1="29.623" y1="106.609" x2="29.232" y2="104.264"/>
	<line style="fill:none;stroke:#000000;stroke-miterlimit:1;" x1="29.232" y1="104.264" x2="28.254" y2="102.307"/>
	<line style="fill:none;stroke:#000000;stroke-miterlimit:1;" x1="28.254" y1="102.307" x2="26.69" y2="100.352"/>
	<line style="fill:none;stroke:#000000;stroke-miterlimit:1;" x1="26.69" y1="100.352" x2="25.125" y2="98.984"/>
	<line style="fill:none;stroke:#000000;stroke-miterlimit:1;" x1="25.125" y1="98.984" x2="23.757" y2="98.396"/>
	<line style="fill:none;stroke:#000000;stroke-miterlimit:1;" x1="23.757" y1="98.396" x2="22.388" y2="97.811"/>
	<line style="fill:none;stroke:#000000;stroke-miterlimit:1;" x1="22.388" y1="97.811" x2="20.433" y2="97.615"/>
	<line style="fill:none;stroke:#000000;stroke-miterlimit:1;" x1="20.433" y1="97.615" x2="18.869" y2="97.42"/>
	<line style="fill:none;stroke:#000000;stroke-miterlimit:1;" x1="18.869" y1="97.42" x2="16.914" y2="97.42"/>
	<line style="fill:none;stroke:#000000;stroke-miterlimit:1;" x1="16.914" y1="97.42" x2="14.567" y2="97.615"/>
	<line style="fill:none;stroke:#000000;stroke-miterlimit:1;" x1="14.567" y1="97.615" x2="12.025" y2="98.396"/>
	<line style="fill:none;stroke:#000000;stroke-miterlimit:1;" x1="12.025" y1="98.396" x2="9.875" y2="99.57"/>
	<line style="fill:none;stroke:#000000;stroke-miterlimit:1;" x1="9.875" y1="99.57" x2="8.505" y2="100.744"/>
	<line style="fill:none;stroke:#000000;stroke-miterlimit:1;" x1="8.505" y1="100.744" x2="6.941" y2="102.111"/>
	<line style="fill:none;stroke:#000000;stroke-miterlimit:1;" x1="6.941" y1="102.111" x2="5.768" y2="103.48"/>
	<line style="fill:none;stroke:#000000;stroke-miterlimit:1;" x1="5.768" y1="103.48" x2="4.595" y2="105.631"/>
	<line style="fill:none;stroke:#000000;stroke-miterlimit:1;" x1="4.595" y1="105.631" x2="3.422" y2="107.783"/>
	<line style="fill:none;stroke:#000000;stroke-miterlimit:1;" x1="3.422" y1="107.783" x2="3.031" y2="109.738"/>
	<line style="fill:none;stroke:#000000;stroke-miterlimit:1;" x1="3.031" y1="109.738" x2="2.64" y2="112.475"/>
	<line style="fill:none;stroke:#000000;stroke-miterlimit:1;" x1="2.64" y1="112.475" x2="2.444" y2="115.213"/>
	<line style="fill:none;stroke:#000000;stroke-miterlimit:1;" x1="2.444" y1="115.213" x2="2.64" y2="117.363"/>
	<line style="fill:none;stroke:#000000;stroke-miterlimit:1;" x1="2.64" y1="117.363" x2="2.835" y2="120.492"/>
	<line style="fill:none;stroke:#000000;stroke-miterlimit:1;" x1="2.835" y1="120.492" x2="4.008" y2="123.621"/>
	<line style="fill:none;stroke:#000000;stroke-miterlimit:1;" x1="4.008" y1="123.621" x2="5.768" y2="127.141"/>
	<line style="fill:none;stroke:#000000;stroke-miterlimit:1;" x1="5.768" y1="127.141" x2="8.896" y2="131.246"/>
	<line style="fill:none;stroke:#000000;stroke-miterlimit:1;" x1="8.896" y1="131.246" x2="13.785" y2="135.939"/>
	<line style="fill:none;stroke:#000000;stroke-miterlimit:1;" x1="13.785" y1="135.939" x2="20.824" y2="141.609"/>
	<line style="fill:none;stroke:#000000;stroke-miterlimit:1;" x1="20.824" y1="141.609" x2="36.075" y2="150.213"/>
	<line style="fill:none;stroke:#000000;stroke-miterlimit:1;" x1="55.604" y1="104.752" x2="71.247" y2="139.947"/>
	<line style="fill:none;stroke:#000000;stroke-miterlimit:1;" x1="71.247" y1="139.947" x2="79.068" y2="139.947"/>
	<line style="fill:none;stroke:#000000;stroke-miterlimit:1;" x1="79.068" y1="139.947" x2="63.425" y2="104.752"/>
	<line style="fill:none;stroke:#000000;stroke-miterlimit:1;" x1="63.425" y1="104.752" x2="55.604" y2="104.752"/>
	<line style="fill:none;stroke:#000000;stroke-miterlimit:1;" x1="79.263" y1="104.752" x2="94.906" y2="139.947"/>
	<line style="fill:none;stroke:#000000;stroke-miterlimit:1;" x1="94.906" y1="139.947" x2="102.727" y2="139.947"/>
	<line style="fill:none;stroke:#000000;stroke-miterlimit:1;" x1="102.727" y1="139.947" x2="87.084" y2="104.752"/>
	<line style="fill:none;stroke:#000000;stroke-miterlimit:1;" x1="87.084" y1="104.752" x2="79.263" y2="104.752"/>
	<line style="fill:none;stroke:#000000;stroke-miterlimit:1;" x1="174.616" y1="11.329" x2="173.284" y2="7.997"/>
	<line style="fill:none;stroke:#000000;stroke-miterlimit:1;" x1="173.284" y1="7.997" x2="170.618" y2="2.666"/>
	<line style="fill:none;stroke:#000000;stroke-miterlimit:1;" x1="170.618" y1="2.666" x2="168.952" y2="0"/>
	<line style="fill:none;stroke:#000000;stroke-miterlimit:1;" x1="168.952" y1="0" x2="213.936" y2="0"/>
	<line style="fill:none;stroke:#000000;stroke-miterlimit:1;" x1="213.936" y1="0" x2="211.271" y2="4.665"/>
	<line style="fill:none;stroke:#000000;stroke-miterlimit:1;" x1="211.271" y1="4.665" x2="209.271" y2="9.33"/>
	<line style="fill:none;stroke:#000000;stroke-miterlimit:1;" x1="209.271" y1="9.33" x2="208.604" y2="11.329"/>
	<line style="fill:none;stroke:#000000;stroke-miterlimit:1;" x1="169.285" y1="24.325" x2="158.955" y2="18.66"/>
	<line style="fill:none;stroke:#000000;stroke-miterlimit:1;" x1="158.955" y1="18.66" x2="156.623" y2="26.657"/>
	<line style="fill:none;stroke:#000000;stroke-miterlimit:1;" x1="156.623" y1="26.657" x2="161.954" y2="30.656"/>
	<line style="fill:none;stroke:#000000;stroke-miterlimit:1;" x1="161.954" y1="30.656" x2="165.62" y2="33.321"/>
	<line style="fill:none;stroke:#000000;stroke-miterlimit:1;" x1="165.62" y1="33.321" x2="170.618" y2="38.653"/>
	<line style="fill:none;stroke:#000000;stroke-miterlimit:1;" x1="213.936" y1="24.325" x2="223.933" y2="18.66"/>
	<line style="fill:none;stroke:#000000;stroke-miterlimit:1;" x1="223.933" y1="18.66" x2="226.599" y2="26.99"/>
	<line style="fill:none;stroke:#000000;stroke-miterlimit:1;" x1="226.599" y1="26.99" x2="221.934" y2="29.656"/>
	<line style="fill:none;stroke:#000000;stroke-miterlimit:1;" x1="221.934" y1="29.656" x2="216.602" y2="34.654"/>
	<line style="fill:none;stroke:#000000;stroke-miterlimit:1;" x1="216.602" y1="34.654" x2="212.937" y2="38.653"/>
	<line style="fill:none;stroke:#000000;stroke-miterlimit:1;" x1="176.616" y1="34.654" x2="177.282" y2="32.655"/>
	<line style="fill:none;stroke:#000000;stroke-miterlimit:1;" x1="177.282" y1="32.655" x2="178.615" y2="30.322"/>
	<line style="fill:none;stroke:#000000;stroke-miterlimit:1;" x1="178.615" y1="30.322" x2="180.614" y2="27.99"/>
	<line style="fill:none;stroke:#000000;stroke-miterlimit:1;" x1="180.614" y1="27.99" x2="183.28" y2="25.657"/>
	<line style="fill:none;stroke:#000000;stroke-miterlimit:1;" x1="183.28" y1="25.657" x2="187.945" y2="23.991"/>
	<line style="fill:none;stroke:#000000;stroke-miterlimit:1;" x1="187.945" y1="23.991" x2="190.944" y2="23.658"/>
	<line style="fill:none;stroke:#000000;stroke-miterlimit:1;" x1="190.944" y1="23.658" x2="194.609" y2="23.991"/>
	<line style="fill:none;stroke:#000000;stroke-miterlimit:1;" x1="194.609" y1="23.991" x2="198.608" y2="25.324"/>
	<line style="fill:none;stroke:#000000;stroke-miterlimit:1;" x1="198.608" y1="25.324" x2="201.94" y2="27.324"/>
	<line style="fill:none;stroke:#000000;stroke-miterlimit:1;" x1="201.94" y1="27.324" x2="203.606" y2="29.656"/>
	<line style="fill:none;stroke:#000000;stroke-miterlimit:1;" x1="203.606" y1="29.656" x2="205.272" y2="31.655"/>
	<line style="fill:none;stroke:#000000;stroke-miterlimit:1;" x1="205.272" y1="31.655" x2="206.605" y2="35.321"/>
	<line style="fill:none;stroke:#000000;stroke-miterlimit:1;" x1="206.605" y1="35.321" x2="201.273" y2="31.989"/>
	<line style="fill:none;stroke:#000000;stroke-miterlimit:1;" x1="201.273" y1="31.989" x2="197.275" y2="30.656"/>
	<line style="fill:none;stroke:#000000;stroke-miterlimit:1;" x1="197.275" y1="30.656" x2="193.943" y2="29.656"/>
	<line style="fill:none;stroke:#000000;stroke-miterlimit:1;" x1="193.943" y1="29.656" x2="191.277" y2="29.323"/>
	<line style="fill:none;stroke:#000000;stroke-miterlimit:1;" x1="191.277" y1="29.323" x2="187.945" y2="29.989"/>
	<line style="fill:none;stroke:#000000;stroke-miterlimit:1;" x1="187.945" y1="29.989" x2="184.613" y2="30.656"/>
	<line style="fill:none;stroke:#000000;stroke-miterlimit:1;" x1="184.613" y1="30.656" x2="180.614" y2="32.655"/>
	<line style="fill:none;stroke:#000000;stroke-miterlimit:1;" x1="180.614" y1="32.655" x2="177.948" y2="34.654"/>
	<line style="fill:none;stroke:#000000;stroke-miterlimit:1;" x1="177.948" y1="34.654" x2="176.616" y2="35.321"/>
	<line style="fill:none;stroke:#000000;stroke-miterlimit:1;" x1="178.615" y1="70.308" x2="183.946" y2="48.649"/>
	<line style="fill:none;stroke:#000000;stroke-miterlimit:1;" x1="183.946" y1="48.649" x2="186.279" y2="45.65"/>
	<line style="fill:none;stroke:#000000;stroke-miterlimit:1;" x1="186.279" y1="45.65" x2="188.611" y2="44.651"/>
	<line style="fill:none;stroke:#000000;stroke-miterlimit:1;" x1="188.611" y1="44.651" x2="191.277" y2="43.984"/>
	<line style="fill:none;stroke:#000000;stroke-miterlimit:1;" x1="191.277" y1="43.984" x2="194.942" y2="44.651"/>
	<line style="fill:none;stroke:#000000;stroke-miterlimit:1;" x1="194.942" y1="44.651" x2="197.608" y2="46.65"/>
	<line style="fill:none;stroke:#000000;stroke-miterlimit:1;" x1="197.608" y1="46.65" x2="198.941" y2="48.982"/>
	<line style="fill:none;stroke:#000000;stroke-miterlimit:1;" x1="198.941" y1="48.982" x2="204.605" y2="70.642"/>
	<line style="fill:none;stroke:#000000;stroke-miterlimit:1;" x1="191.943" y1="74.973" x2="186.945" y2="74.64"/>
	<line style="fill:none;stroke:#000000;stroke-miterlimit:1;" x1="186.945" y1="74.64" x2="184.613" y2="73.974"/>
	<line style="fill:none;stroke:#000000;stroke-miterlimit:1;" x1="184.613" y1="73.974" x2="182.613" y2="73.641"/>
	<line style="fill:none;stroke:#000000;stroke-miterlimit:1;" x1="182.613" y1="73.641" x2="179.281" y2="71.974"/>
	<line style="fill:none;stroke:#000000;stroke-miterlimit:1;" x1="179.281" y1="71.974" x2="176.949" y2="68.976"/>
	<line style="fill:none;stroke:#000000;stroke-miterlimit:1;" x1="176.949" y1="68.976" x2="174.95" y2="65.977"/>
	<line style="fill:none;stroke:#000000;stroke-miterlimit:1;" x1="174.95" y1="65.977" x2="173.617" y2="62.645"/>
	<line style="fill:none;stroke:#000000;stroke-miterlimit:1;" x1="173.617" y1="62.645" x2="172.617" y2="58.646"/>
	<line style="fill:none;stroke:#000000;stroke-miterlimit:1;" x1="172.617" y1="58.646" x2="171.284" y2="53.314"/>
	<line style="fill:none;stroke:#000000;stroke-miterlimit:1;" x1="171.284" y1="53.314" x2="169.285" y2="25.324"/>
	<line style="fill:none;stroke:#000000;stroke-miterlimit:1;" x1="169.285" y1="25.324" x2="169.618" y2="20.326"/>
	<line style="fill:none;stroke:#000000;stroke-miterlimit:1;" x1="169.618" y1="20.326" x2="170.285" y2="17.994"/>
	<line style="fill:none;stroke:#000000;stroke-miterlimit:1;" x1="170.285" y1="17.994" x2="170.618" y2="15.994"/>
	<line style="fill:none;stroke:#000000;stroke-miterlimit:1;" x1="170.618" y1="15.994" x2="172.284" y2="13.329"/>
	<line style="fill:none;stroke:#000000;stroke-miterlimit:1;" x1="172.284" y1="13.329" x2="174.283" y2="11.329"/>
	<line style="fill:none;stroke:#000000;stroke-miterlimit:1;" x1="174.283" y1="11.329" x2="177.615" y2="9.33"/>
	<line style="fill:none;stroke:#000000;stroke-miterlimit:1;" x1="177.615" y1="9.33" x2="180.614" y2="8.33"/>
	<line style="fill:none;stroke:#000000;stroke-miterlimit:1;" x1="180.614" y1="8.33" x2="183.28" y2="7.997"/>
	<line style="fill:none;stroke:#000000;stroke-miterlimit:1;" x1="183.28" y1="7.997" x2="191.277" y2="7.331"/>
	<line style="fill:none;stroke:#000000;stroke-miterlimit:1;" x1="191.277" y1="7.331" x2="200.607" y2="7.997"/>
	<line style="fill:none;stroke:#000000;stroke-miterlimit:1;" x1="200.607" y1="7.997" x2="204.605" y2="8.664"/>
	<line style="fill:none;stroke:#000000;stroke-miterlimit:1;" x1="204.605" y1="8.664" x2="207.938" y2="10.663"/>
	<line style="fill:none;stroke:#000000;stroke-miterlimit:1;" x1="207.938" y1="10.663" x2="209.938" y2="11.996"/>
	<line style="fill:none;stroke:#000000;stroke-miterlimit:1;" x1="209.938" y1="11.996" x2="211.604" y2="14.661"/>
	<line style="fill:none;stroke:#000000;stroke-miterlimit:1;" x1="211.604" y1="14.661" x2="213.27" y2="19.993"/>
	<line style="fill:none;stroke:#000000;stroke-miterlimit:1;" x1="213.27" y1="19.993" x2="213.603" y2="24.325"/>
	<line style="fill:none;stroke:#000000;stroke-miterlimit:1;" x1="213.603" y1="24.325" x2="211.937" y2="48.649"/>
	<line style="fill:none;stroke:#000000;stroke-miterlimit:1;" x1="211.937" y1="48.649" x2="211.271" y2="55.313"/>
	<line style="fill:none;stroke:#000000;stroke-miterlimit:1;" x1="211.271" y1="55.313" x2="209.271" y2="62.645"/>
	<line style="fill:none;stroke:#000000;stroke-miterlimit:1;" x1="209.271" y1="62.645" x2="207.938" y2="65.977"/>
	<line style="fill:none;stroke:#000000;stroke-miterlimit:1;" x1="207.938" y1="65.977" x2="205.938" y2="69.309"/>
	<line style="fill:none;stroke:#000000;stroke-miterlimit:1;" x1="205.938" y1="69.309" x2="204.605" y2="70.975"/>
	<line style="fill:none;stroke:#000000;stroke-miterlimit:1;" x1="204.605" y1="70.975" x2="202.606" y2="72.641"/>
	<line style="fill:none;stroke:#000000;stroke-miterlimit:1;" x1="202.606" y1="72.641" x2="200.274" y2="73.974"/>
	<line style="fill:none;stroke:#000000;stroke-miterlimit:1;" x1="200.274" y1="73.974" x2="197.275" y2="74.64"/>
	<line style="fill:none;stroke:#000000;stroke-miterlimit:1;" x1="197.275" y1="74.64" x2="191.943" y2="74.973"/>
	<line style="fill:none;stroke:#000000;stroke-miterlimit:1;" x1="133.714" y1="88.135" x2="133.714" y2="148.113"/>
	<line style="fill:none;stroke:#000000;stroke-miterlimit:1;" x1="133.714" y1="148.113" x2="144.377" y2="148.113"/>
	<line style="fill:none;stroke:#000000;stroke-miterlimit:1;" x1="144.377" y1="148.113" x2="144.377" y2="88.135"/>
	<line style="fill:none;stroke:#000000;stroke-miterlimit:1;" x1="144.377" y1="88.135" x2="133.714" y2="88.135"/>
	<line style="fill:none;stroke:#000000;stroke-miterlimit:1;" x1="187.028" y1="88.135" x2="187.028" y2="148.113"/>
	<line style="fill:none;stroke:#000000;stroke-miterlimit:1;" x1="187.028" y1="148.113" x2="198.025" y2="148.113"/>
	<line style="fill:none;stroke:#000000;stroke-miterlimit:1;" x1="198.025" y1="148.113" x2="198.025" y2="88.135"/>
	<line style="fill:none;stroke:#000000;stroke-miterlimit:1;" x1="198.025" y1="88.135" x2="187.028" y2="88.135"/>
	<line style="fill:none;stroke:#000000;stroke-miterlimit:1;" x1="241.01" y1="88.135" x2="241.01" y2="148.113"/>
	<line style="fill:none;stroke:#000000;stroke-miterlimit:1;" x1="241.01" y1="148.113" x2="251.673" y2="148.113"/>
	<line style="fill:none;stroke:#000000;stroke-miterlimit:1;" x1="251.673" y1="148.113" x2="251.673" y2="88.135"/>
	<line style="fill:none;stroke:#000000;stroke-miterlimit:1;" x1="251.673" y1="88.135" x2="241.01" y2="88.135"/>
</g>
</svg>
