<?xml version="1.0" encoding="iso-8859-1"?>
<!-- Generator: Adobe Illustrator 16.0.1, SVG Export Plug-In . SVG Version: 6.00 Build 0)  -->
<!DOCTYPE svg PUBLIC "-//W3C//DTD SVG 1.1//EN" "http://www.w3.org/Graphics/SVG/1.1/DTD/svg11.dtd">
<svg version="1.1" id="Ebene_1" xmlns="http://www.w3.org/2000/svg" xmlns:xlink="http://www.w3.org/1999/xlink" x="0px" y="0px"
	 width="139.049px" height="160.645px" viewBox="0 0 139.049 160.645" style="enable-background:new 0 0 139.049 160.645;"
	 xml:space="preserve">
<g>
	<g>
		<defs>
			<polygon id="SVGID_1_" points="0,60.949 98.098,60.949 98.098,7.674 0,7.674 0,60.949 			"/>
		</defs>
		<clipPath id="SVGID_2_">
			<use xlink:href="#SVGID_1_"  style="overflow:visible;"/>
		</clipPath>
		
			<line style="clip-path:url(#SVGID_2_);fill:none;stroke:#000000;stroke-width:0;stroke-miterlimit:1;" x1="6.466" y1="16.247" x2="6.411" y2="15.748"/>
		
			<line style="clip-path:url(#SVGID_2_);fill:none;stroke:#000000;stroke-width:0;stroke-miterlimit:1;" x1="6.411" y1="15.748" x2="5.801" y2="15.083"/>
		
			<line style="clip-path:url(#SVGID_2_);fill:none;stroke:#000000;stroke-width:0;stroke-miterlimit:1;" x1="5.801" y1="15.083" x2="4.97" y2="14.861"/>
		
			<line style="clip-path:url(#SVGID_2_);fill:none;stroke:#000000;stroke-width:0;stroke-miterlimit:1;" x1="4.97" y1="14.861" x2="4.305" y2="14.861"/>
		
			<line style="clip-path:url(#SVGID_2_);fill:none;stroke:#000000;stroke-width:0;stroke-miterlimit:1;" x1="4.305" y1="14.861" x2="3.64" y2="15.083"/>
		
			<line style="clip-path:url(#SVGID_2_);fill:none;stroke:#000000;stroke-width:0;stroke-miterlimit:1;" x1="3.64" y1="15.083" x2="3.085" y2="15.692"/>
		
			<line style="clip-path:url(#SVGID_2_);fill:none;stroke:#000000;stroke-width:0;stroke-miterlimit:1;" x1="3.085" y1="15.692" x2="3.085" y2="16.413"/>
		
			<line style="clip-path:url(#SVGID_2_);fill:none;stroke:#000000;stroke-width:0;stroke-miterlimit:1;" x1="3.085" y1="16.413" x2="3.307" y2="17.078"/>
		
			<line style="clip-path:url(#SVGID_2_);fill:none;stroke:#000000;stroke-width:0;stroke-miterlimit:1;" x1="3.307" y1="17.078" x2="3.972" y2="17.577"/>
		
			<line style="clip-path:url(#SVGID_2_);fill:none;stroke:#000000;stroke-width:0;stroke-miterlimit:1;" x1="3.972" y1="17.577" x2="4.637" y2="17.688"/>
		
			<line style="clip-path:url(#SVGID_2_);fill:none;stroke:#000000;stroke-width:0;stroke-miterlimit:1;" x1="4.637" y1="17.688" x2="5.302" y2="17.632"/>
		
			<line style="clip-path:url(#SVGID_2_);fill:none;stroke:#000000;stroke-width:0;stroke-miterlimit:1;" x1="5.302" y1="17.632" x2="5.912" y2="17.189"/>
		
			<line style="clip-path:url(#SVGID_2_);fill:none;stroke:#000000;stroke-width:0;stroke-miterlimit:1;" x1="5.912" y1="17.189" x2="6.3" y2="16.801"/>
		
			<line style="clip-path:url(#SVGID_2_);fill:none;stroke:#000000;stroke-width:0;stroke-miterlimit:1;" x1="6.3" y1="16.801" x2="6.522" y2="16.191"/>
		
			<line style="clip-path:url(#SVGID_2_);fill:none;stroke:#000000;stroke-width:0;stroke-miterlimit:1;" x1="6.522" y1="16.191" x2="27.804" y2="16.191"/>
		
			<line style="clip-path:url(#SVGID_2_);fill:none;stroke:#000000;stroke-width:0;stroke-miterlimit:1;" x1="27.804" y1="16.191" x2="28.525" y2="15.97"/>
		
			<line style="clip-path:url(#SVGID_2_);fill:none;stroke:#000000;stroke-width:0;stroke-miterlimit:1;" x1="28.525" y1="15.97" x2="28.913" y2="15.526"/>
		
			<line style="clip-path:url(#SVGID_2_);fill:none;stroke:#000000;stroke-width:0;stroke-miterlimit:1;" x1="28.913" y1="15.526" x2="29.3" y2="14.806"/>
		
			<line style="clip-path:url(#SVGID_2_);fill:none;stroke:#000000;stroke-width:0;stroke-miterlimit:1;" x1="29.3" y1="14.806" x2="29.246" y2="14.196"/>
		
			<line style="clip-path:url(#SVGID_2_);fill:none;stroke:#000000;stroke-width:0;stroke-miterlimit:1;" x1="29.246" y1="14.196" x2="29.134" y2="13.476"/>
		
			<line style="clip-path:url(#SVGID_2_);fill:none;stroke:#000000;stroke-width:0;stroke-miterlimit:1;" x1="29.134" y1="13.476" x2="28.913" y2="12.811"/>
		
			<line style="clip-path:url(#SVGID_2_);fill:none;stroke:#000000;stroke-width:0;stroke-miterlimit:1;" x1="28.913" y1="12.811" x2="28.414" y2="12.422"/>
		
			<line style="clip-path:url(#SVGID_2_);fill:none;stroke:#000000;stroke-width:0;stroke-miterlimit:1;" x1="28.414" y1="12.422" x2="27.916" y2="12.256"/>
		
			<line style="clip-path:url(#SVGID_2_);fill:none;stroke:#000000;stroke-width:0;stroke-miterlimit:1;" x1="27.916" y1="12.256" x2="27.361" y2="12.201"/>
		
			<line style="clip-path:url(#SVGID_2_);fill:none;stroke:#000000;stroke-width:0;stroke-miterlimit:1;" x1="27.361" y1="12.201" x2="6.633" y2="12.201"/>
		
			<line style="clip-path:url(#SVGID_2_);fill:none;stroke:#000000;stroke-width:0;stroke-miterlimit:1;" x1="6.633" y1="12.201" x2="6.355" y2="11.48"/>
		
			<line style="clip-path:url(#SVGID_2_);fill:none;stroke:#000000;stroke-width:0;stroke-miterlimit:1;" x1="6.355" y1="11.48" x2="5.69" y2="10.926"/>
		
			<line style="clip-path:url(#SVGID_2_);fill:none;stroke:#000000;stroke-width:0;stroke-miterlimit:1;" x1="5.69" y1="10.926" x2="5.136" y2="10.76"/>
		
			<line style="clip-path:url(#SVGID_2_);fill:none;stroke:#000000;stroke-width:0;stroke-miterlimit:1;" x1="5.136" y1="10.76" x2="4.582" y2="10.76"/>
		
			<line style="clip-path:url(#SVGID_2_);fill:none;stroke:#000000;stroke-width:0;stroke-miterlimit:1;" x1="4.582" y1="10.76" x2="3.695" y2="10.926"/>
		
			<line style="clip-path:url(#SVGID_2_);fill:none;stroke:#000000;stroke-width:0;stroke-miterlimit:1;" x1="3.695" y1="10.926" x2="3.196" y2="11.536"/>
		
			<line style="clip-path:url(#SVGID_2_);fill:none;stroke:#000000;stroke-width:0;stroke-miterlimit:1;" x1="3.196" y1="11.536" x2="3.085" y2="12.201"/>
		
			<line style="clip-path:url(#SVGID_2_);fill:none;stroke:#000000;stroke-width:0;stroke-miterlimit:1;" x1="3.085" y1="12.201" x2="3.196" y2="12.811"/>
		
			<line style="clip-path:url(#SVGID_2_);fill:none;stroke:#000000;stroke-width:0;stroke-miterlimit:1;" x1="3.196" y1="12.811" x2="3.64" y2="13.309"/>
		
			<line style="clip-path:url(#SVGID_2_);fill:none;stroke:#000000;stroke-width:0;stroke-miterlimit:1;" x1="3.64" y1="13.309" x2="4.305" y2="13.531"/>
		
			<line style="clip-path:url(#SVGID_2_);fill:none;stroke:#000000;stroke-width:0;stroke-miterlimit:1;" x1="4.305" y1="13.531" x2="4.915" y2="13.531"/>
		
			<line style="clip-path:url(#SVGID_2_);fill:none;stroke:#000000;stroke-width:0;stroke-miterlimit:1;" x1="4.915" y1="13.531" x2="5.69" y2="13.309"/>
		
			<line style="clip-path:url(#SVGID_2_);fill:none;stroke:#000000;stroke-width:0;stroke-miterlimit:1;" x1="5.69" y1="13.309" x2="6.079" y2="13.087"/>
		
			<line style="clip-path:url(#SVGID_2_);fill:none;stroke:#000000;stroke-width:0;stroke-miterlimit:1;" x1="6.079" y1="13.087" x2="6.411" y2="12.7"/>
		
			<line style="clip-path:url(#SVGID_2_);fill:none;stroke:#000000;stroke-width:0;stroke-miterlimit:1;" x1="6.411" y1="12.7" x2="6.633" y2="12.201"/>
	</g>
	<g>
		<defs>
			<polygon id="SVGID_3_" points="0,79.516 98.098,79.516 98.098,7.674 0,7.674 0,79.516 			"/>
		</defs>
		<clipPath id="SVGID_4_">
			<use xlink:href="#SVGID_3_"  style="overflow:visible;"/>
		</clipPath>
		
			<line style="clip-path:url(#SVGID_4_);fill:none;stroke:#000000;stroke-width:0;stroke-miterlimit:1;" x1="16.276" y1="20.292" x2="15.999" y2="21.068"/>
		
			<line style="clip-path:url(#SVGID_4_);fill:none;stroke:#000000;stroke-width:0;stroke-miterlimit:1;" x1="15.999" y1="21.068" x2="15.556" y2="22.398"/>
		
			<line style="clip-path:url(#SVGID_4_);fill:none;stroke:#000000;stroke-width:0;stroke-miterlimit:1;" x1="15.556" y1="22.398" x2="14.725" y2="23.951"/>
		
			<line style="clip-path:url(#SVGID_4_);fill:none;stroke:#000000;stroke-width:0;stroke-miterlimit:1;" x1="14.725" y1="23.951" x2="13.837" y2="25.281"/>
		
			<line style="clip-path:url(#SVGID_4_);fill:none;stroke:#000000;stroke-width:0;stroke-miterlimit:1;" x1="13.837" y1="25.281" x2="13.228" y2="26.333"/>
		
			<line style="clip-path:url(#SVGID_4_);fill:none;stroke:#000000;stroke-width:0;stroke-miterlimit:1;" x1="13.228" y1="26.333" x2="12.507" y2="27.276"/>
		
			<line style="clip-path:url(#SVGID_4_);fill:none;stroke:#000000;stroke-width:0;stroke-miterlimit:1;" x1="12.507" y1="27.276" x2="12.23" y2="27.775"/>
		
			<line style="clip-path:url(#SVGID_4_);fill:none;stroke:#000000;stroke-width:0;stroke-miterlimit:1;" x1="12.23" y1="27.775" x2="12.12" y2="28.163"/>
		
			<line style="clip-path:url(#SVGID_4_);fill:none;stroke:#000000;stroke-width:0;stroke-miterlimit:1;" x1="12.12" y1="28.163" x2="12.12" y2="28.606"/>
		
			<line style="clip-path:url(#SVGID_4_);fill:none;stroke:#000000;stroke-width:0;stroke-miterlimit:1;" x1="12.12" y1="28.606" x2="12.23" y2="29.216"/>
		
			<line style="clip-path:url(#SVGID_4_);fill:none;stroke:#000000;stroke-width:0;stroke-miterlimit:1;" x1="12.23" y1="29.216" x2="12.286" y2="29.548"/>
		
			<line style="clip-path:url(#SVGID_4_);fill:none;stroke:#000000;stroke-width:0;stroke-miterlimit:1;" x1="12.286" y1="29.548" x2="12.175" y2="29.992"/>
		
			<line style="clip-path:url(#SVGID_4_);fill:none;stroke:#000000;stroke-width:0;stroke-miterlimit:1;" x1="12.175" y1="29.992" x2="12.009" y2="30.379"/>
		
			<line style="clip-path:url(#SVGID_4_);fill:none;stroke:#000000;stroke-width:0;stroke-miterlimit:1;" x1="12.009" y1="30.379" x2="11.565" y2="30.601"/>
		
			<line style="clip-path:url(#SVGID_4_);fill:none;stroke:#000000;stroke-width:0;stroke-miterlimit:1;" x1="11.565" y1="30.601" x2="10.956" y2="30.601"/>
		
			<line style="clip-path:url(#SVGID_4_);fill:none;stroke:#000000;stroke-width:0;stroke-miterlimit:1;" x1="10.956" y1="30.601" x2="10.291" y2="30.379"/>
		
			<line style="clip-path:url(#SVGID_4_);fill:none;stroke:#000000;stroke-width:0;stroke-miterlimit:1;" x1="10.291" y1="30.379" x2="10.069" y2="30.324"/>
		
			<line style="clip-path:url(#SVGID_4_);fill:none;stroke:#000000;stroke-width:0;stroke-miterlimit:1;" x1="10.069" y1="30.324" x2="9.625" y2="30.379"/>
		
			<line style="clip-path:url(#SVGID_4_);fill:none;stroke:#000000;stroke-width:0;stroke-miterlimit:1;" x1="9.625" y1="30.379" x2="8.96" y2="30.712"/>
		
			<line style="clip-path:url(#SVGID_4_);fill:none;stroke:#000000;stroke-width:0;stroke-miterlimit:1;" x1="8.96" y1="30.712" x2="5.247" y2="30.657"/>
		
			<line style="clip-path:url(#SVGID_4_);fill:none;stroke:#000000;stroke-width:0;stroke-miterlimit:1;" x1="5.247" y1="30.657" x2="5.191" y2="30.103"/>
		
			<line style="clip-path:url(#SVGID_4_);fill:none;stroke:#000000;stroke-width:0;stroke-miterlimit:1;" x1="5.191" y1="30.103" x2="5.469" y2="29.825"/>
		
			<line style="clip-path:url(#SVGID_4_);fill:none;stroke:#000000;stroke-width:0;stroke-miterlimit:1;" x1="5.469" y1="29.825" x2="6.355" y2="29.714"/>
		
			<line style="clip-path:url(#SVGID_4_);fill:none;stroke:#000000;stroke-width:0;stroke-miterlimit:1;" x1="6.355" y1="29.714" x2="7.63" y2="29.382"/>
		
			<line style="clip-path:url(#SVGID_4_);fill:none;stroke:#000000;stroke-width:0;stroke-miterlimit:1;" x1="7.63" y1="29.382" x2="8.739" y2="28.828"/>
		
			<line style="clip-path:url(#SVGID_4_);fill:none;stroke:#000000;stroke-width:0;stroke-miterlimit:1;" x1="8.739" y1="28.828" x2="9.625" y2="28.163"/>
		
			<line style="clip-path:url(#SVGID_4_);fill:none;stroke:#000000;stroke-width:0;stroke-miterlimit:1;" x1="9.625" y1="28.163" x2="10.291" y2="27.276"/>
		
			<line style="clip-path:url(#SVGID_4_);fill:none;stroke:#000000;stroke-width:0;stroke-miterlimit:1;" x1="10.291" y1="27.276" x2="10.512" y2="26.777"/>
		
			<line style="clip-path:url(#SVGID_4_);fill:none;stroke:#000000;stroke-width:0;stroke-miterlimit:1;" x1="10.512" y1="26.777" x2="10.956" y2="25.502"/>
		
			<line style="clip-path:url(#SVGID_4_);fill:none;stroke:#000000;stroke-width:0;stroke-miterlimit:1;" x1="10.956" y1="25.502" x2="12.064" y2="22.509"/>
		
			<line style="clip-path:url(#SVGID_4_);fill:none;stroke:#000000;stroke-width:0;stroke-miterlimit:1;" x1="12.064" y1="22.509" x2="12.729" y2="21.068"/>
		
			<line style="clip-path:url(#SVGID_4_);fill:none;stroke:#000000;stroke-width:0;stroke-miterlimit:1;" x1="12.729" y1="21.068" x2="13.505" y2="19.572"/>
		
			<line style="clip-path:url(#SVGID_4_);fill:none;stroke:#000000;stroke-width:0;stroke-miterlimit:1;" x1="13.505" y1="19.572" x2="14.115" y2="18.574"/>
		
			<line style="clip-path:url(#SVGID_4_);fill:none;stroke:#000000;stroke-width:0;stroke-miterlimit:1;" x1="14.115" y1="18.574" x2="14.725" y2="17.688"/>
		
			<line style="clip-path:url(#SVGID_4_);fill:none;stroke:#000000;stroke-width:0;stroke-miterlimit:1;" x1="14.725" y1="17.688" x2="15.112" y2="17.022"/>
		
			<line style="clip-path:url(#SVGID_4_);fill:none;stroke:#000000;stroke-width:0;stroke-miterlimit:1;" x1="15.112" y1="17.022" x2="15.5" y2="16.524"/>
		
			<line style="clip-path:url(#SVGID_4_);fill:none;stroke:#000000;stroke-width:0;stroke-miterlimit:1;" x1="15.5" y1="16.524" x2="15.833" y2="16.357"/>
		
			<line style="clip-path:url(#SVGID_4_);fill:none;stroke:#000000;stroke-width:0;stroke-miterlimit:1;" x1="15.833" y1="16.357" x2="16.055" y2="16.302"/>
		
			<line style="clip-path:url(#SVGID_4_);fill:none;stroke:#000000;stroke-width:0;stroke-miterlimit:1;" x1="16.055" y1="16.302" x2="16.332" y2="16.357"/>
		
			<line style="clip-path:url(#SVGID_4_);fill:none;stroke:#000000;stroke-width:0;stroke-miterlimit:1;" x1="16.332" y1="16.357" x2="16.72" y2="16.468"/>
		
			<line style="clip-path:url(#SVGID_4_);fill:none;stroke:#000000;stroke-width:0;stroke-miterlimit:1;" x1="16.72" y1="16.468" x2="17.385" y2="17.355"/>
		
			<line style="clip-path:url(#SVGID_4_);fill:none;stroke:#000000;stroke-width:0;stroke-miterlimit:1;" x1="17.385" y1="17.355" x2="18.438" y2="19.073"/>
		
			<line style="clip-path:url(#SVGID_4_);fill:none;stroke:#000000;stroke-width:0;stroke-miterlimit:1;" x1="18.438" y1="19.073" x2="19.546" y2="20.847"/>
		
			<line style="clip-path:url(#SVGID_4_);fill:none;stroke:#000000;stroke-width:0;stroke-miterlimit:1;" x1="19.546" y1="20.847" x2="20.71" y2="22.897"/>
		
			<line style="clip-path:url(#SVGID_4_);fill:none;stroke:#000000;stroke-width:0;stroke-miterlimit:1;" x1="20.71" y1="22.897" x2="21.708" y2="25.003"/>
		
			<line style="clip-path:url(#SVGID_4_);fill:none;stroke:#000000;stroke-width:0;stroke-miterlimit:1;" x1="21.708" y1="25.003" x2="22.373" y2="26.833"/>
		
			<line style="clip-path:url(#SVGID_4_);fill:none;stroke:#000000;stroke-width:0;stroke-miterlimit:1;" x1="22.373" y1="26.833" x2="22.594" y2="27.719"/>
		
			<line style="clip-path:url(#SVGID_4_);fill:none;stroke:#000000;stroke-width:0;stroke-miterlimit:1;" x1="22.594" y1="27.719" x2="22.982" y2="28.551"/>
		
			<line style="clip-path:url(#SVGID_4_);fill:none;stroke:#000000;stroke-width:0;stroke-miterlimit:1;" x1="22.982" y1="28.551" x2="23.426" y2="29.271"/>
		
			<line style="clip-path:url(#SVGID_4_);fill:none;stroke:#000000;stroke-width:0;stroke-miterlimit:1;" x1="23.426" y1="29.271" x2="23.537" y2="29.714"/>
		
			<line style="clip-path:url(#SVGID_4_);fill:none;stroke:#000000;stroke-width:0;stroke-miterlimit:1;" x1="23.537" y1="29.714" x2="23.426" y2="30.103"/>
		
			<line style="clip-path:url(#SVGID_4_);fill:none;stroke:#000000;stroke-width:0;stroke-miterlimit:1;" x1="23.426" y1="30.103" x2="23.315" y2="30.379"/>
		
			<line style="clip-path:url(#SVGID_4_);fill:none;stroke:#000000;stroke-width:0;stroke-miterlimit:1;" x1="23.315" y1="30.379" x2="22.982" y2="30.601"/>
		
			<line style="clip-path:url(#SVGID_4_);fill:none;stroke:#000000;stroke-width:0;stroke-miterlimit:1;" x1="22.982" y1="30.601" x2="22.484" y2="30.712"/>
		
			<line style="clip-path:url(#SVGID_4_);fill:none;stroke:#000000;stroke-width:0;stroke-miterlimit:1;" x1="22.484" y1="30.712" x2="22.04" y2="30.601"/>
		
			<line style="clip-path:url(#SVGID_4_);fill:none;stroke:#000000;stroke-width:0;stroke-miterlimit:1;" x1="22.04" y1="30.601" x2="21.818" y2="30.435"/>
		
			<line style="clip-path:url(#SVGID_4_);fill:none;stroke:#000000;stroke-width:0;stroke-miterlimit:1;" x1="21.818" y1="30.435" x2="21.486" y2="30.324"/>
		
			<line style="clip-path:url(#SVGID_4_);fill:none;stroke:#000000;stroke-width:0;stroke-miterlimit:1;" x1="21.486" y1="30.324" x2="21.153" y2="30.379"/>
		
			<line style="clip-path:url(#SVGID_4_);fill:none;stroke:#000000;stroke-width:0;stroke-miterlimit:1;" x1="21.153" y1="30.379" x2="20.71" y2="30.712"/>
		
			<line style="clip-path:url(#SVGID_4_);fill:none;stroke:#000000;stroke-width:0;stroke-miterlimit:1;" x1="20.71" y1="30.712" x2="16.276" y2="30.657"/>
		
			<line style="clip-path:url(#SVGID_4_);fill:none;stroke:#000000;stroke-width:0;stroke-miterlimit:1;" x1="16.276" y1="30.657" x2="16.221" y2="30.324"/>
		
			<line style="clip-path:url(#SVGID_4_);fill:none;stroke:#000000;stroke-width:0;stroke-miterlimit:1;" x1="16.221" y1="30.324" x2="16.387" y2="29.992"/>
		
			<line style="clip-path:url(#SVGID_4_);fill:none;stroke:#000000;stroke-width:0;stroke-miterlimit:1;" x1="16.387" y1="29.992" x2="17.551" y2="29.714"/>
		
			<line style="clip-path:url(#SVGID_4_);fill:none;stroke:#000000;stroke-width:0;stroke-miterlimit:1;" x1="17.551" y1="29.714" x2="18.604" y2="29.438"/>
		
			<line style="clip-path:url(#SVGID_4_);fill:none;stroke:#000000;stroke-width:0;stroke-miterlimit:1;" x1="18.604" y1="29.438" x2="19.325" y2="29.16"/>
		
			<line style="clip-path:url(#SVGID_4_);fill:none;stroke:#000000;stroke-width:0;stroke-miterlimit:1;" x1="19.325" y1="29.16" x2="19.99" y2="28.828"/>
		
			<line style="clip-path:url(#SVGID_4_);fill:none;stroke:#000000;stroke-width:0;stroke-miterlimit:1;" x1="19.99" y1="28.828" x2="20.377" y2="28.495"/>
		
			<line style="clip-path:url(#SVGID_4_);fill:none;stroke:#000000;stroke-width:0;stroke-miterlimit:1;" x1="20.377" y1="28.495" x2="20.599" y2="27.997"/>
		
			<line style="clip-path:url(#SVGID_4_);fill:none;stroke:#000000;stroke-width:0;stroke-miterlimit:1;" x1="20.599" y1="27.997" x2="20.544" y2="27.719"/>
		
			<line style="clip-path:url(#SVGID_4_);fill:none;stroke:#000000;stroke-width:0;stroke-miterlimit:1;" x1="20.544" y1="27.719" x2="20.433" y2="27.276"/>
		
			<line style="clip-path:url(#SVGID_4_);fill:none;stroke:#000000;stroke-width:0;stroke-miterlimit:1;" x1="20.433" y1="27.276" x2="19.823" y2="26.389"/>
		
			<line style="clip-path:url(#SVGID_4_);fill:none;stroke:#000000;stroke-width:0;stroke-miterlimit:1;" x1="19.823" y1="26.389" x2="18.715" y2="24.56"/>
		
			<line style="clip-path:url(#SVGID_4_);fill:none;stroke:#000000;stroke-width:0;stroke-miterlimit:1;" x1="18.715" y1="24.56" x2="17.717" y2="23.119"/>
		
			<line style="clip-path:url(#SVGID_4_);fill:none;stroke:#000000;stroke-width:0;stroke-miterlimit:1;" x1="17.717" y1="23.119" x2="16.941" y2="21.789"/>
		
			<line style="clip-path:url(#SVGID_4_);fill:none;stroke:#000000;stroke-width:0;stroke-miterlimit:1;" x1="16.941" y1="21.789" x2="16.553" y2="20.736"/>
		
			<line style="clip-path:url(#SVGID_4_);fill:none;stroke:#000000;stroke-width:0;stroke-miterlimit:1;" x1="16.553" y1="20.736" x2="16.332" y2="20.182"/>
	</g>
	<g>
		<defs>
			<polygon id="SVGID_5_" points="0,79.516 134.863,79.516 134.863,0 0,0 0,79.516 			"/>
		</defs>
		<clipPath id="SVGID_6_">
			<use xlink:href="#SVGID_5_"  style="overflow:visible;"/>
		</clipPath>
		
			<line style="clip-path:url(#SVGID_6_);fill:none;stroke:#000000;stroke-width:0;stroke-miterlimit:1;" x1="38.552" y1="5.471" x2="34.413" y2="11.883"/>
		
			<line style="clip-path:url(#SVGID_6_);fill:none;stroke:#000000;stroke-width:0;stroke-miterlimit:1;" x1="34.413" y1="11.883" x2="33.76" y2="11.485"/>
		
			<line style="clip-path:url(#SVGID_6_);fill:none;stroke:#000000;stroke-width:0;stroke-miterlimit:1;" x1="33.76" y1="11.485" x2="32.674" y2="11.102"/>
		
			<line style="clip-path:url(#SVGID_6_);fill:none;stroke:#000000;stroke-width:0;stroke-miterlimit:1;" x1="32.674" y1="11.102" x2="32.334" y2="11.028"/>
		
			<line style="clip-path:url(#SVGID_6_);fill:none;stroke:#000000;stroke-width:0;stroke-miterlimit:1;" x1="32.334" y1="11.028" x2="31.61" y2="10.879"/>
		
			<line style="clip-path:url(#SVGID_6_);fill:none;stroke:#000000;stroke-width:0;stroke-miterlimit:1;" x1="31.61" y1="10.879" x2="30.927" y2="10.867"/>
		
			<line style="clip-path:url(#SVGID_6_);fill:none;stroke:#000000;stroke-width:0;stroke-miterlimit:1;" x1="30.927" y1="10.867" x2="30.583" y2="10.975"/>
		
			<line style="clip-path:url(#SVGID_6_);fill:none;stroke:#000000;stroke-width:0;stroke-miterlimit:1;" x1="30.583" y1="10.975" x2="28.825" y2="12.673"/>
		
			<line style="clip-path:url(#SVGID_6_);fill:none;stroke:#000000;stroke-width:0;stroke-miterlimit:1;" x1="28.825" y1="12.673" x2="28.58" y2="12.418"/>
		
			<line style="clip-path:url(#SVGID_6_);fill:none;stroke:#000000;stroke-width:0;stroke-miterlimit:1;" x1="28.58" y1="12.418" x2="37.836" y2="3.479"/>
		
			<line style="clip-path:url(#SVGID_6_);fill:none;stroke:#000000;stroke-width:0;stroke-miterlimit:1;" x1="37.836" y1="3.479" x2="38.364" y2="3.193"/>
		
			<line style="clip-path:url(#SVGID_6_);fill:none;stroke:#000000;stroke-width:0;stroke-miterlimit:1;" x1="38.364" y1="3.193" x2="38.752" y2="3.086"/>
		
			<line style="clip-path:url(#SVGID_6_);fill:none;stroke:#000000;stroke-width:0;stroke-miterlimit:1;" x1="38.752" y1="3.086" x2="39.002" y2="3.113"/>
		
			<line style="clip-path:url(#SVGID_6_);fill:none;stroke:#000000;stroke-width:0;stroke-miterlimit:1;" x1="39.002" y1="3.113" x2="39.413" y2="3.12"/>
		
			<line style="clip-path:url(#SVGID_6_);fill:none;stroke:#000000;stroke-width:0;stroke-miterlimit:1;" x1="39.413" y1="3.12" x2="39.661" y2="3.238"/>
		
			<line style="clip-path:url(#SVGID_6_);fill:none;stroke:#000000;stroke-width:0;stroke-miterlimit:1;" x1="39.661" y1="3.238" x2="39.931" y2="3.379"/>
		
			<line style="clip-path:url(#SVGID_6_);fill:none;stroke:#000000;stroke-width:0;stroke-miterlimit:1;" x1="39.931" y1="3.379" x2="40.132" y2="3.542"/>
		
			<line style="clip-path:url(#SVGID_6_);fill:none;stroke:#000000;stroke-width:0;stroke-miterlimit:1;" x1="40.132" y1="3.542" x2="40.266" y2="3.727"/>
		
			<line style="clip-path:url(#SVGID_6_);fill:none;stroke:#000000;stroke-width:0;stroke-miterlimit:1;" x1="40.266" y1="3.727" x2="40.464" y2="4.117"/>
		
			<line style="clip-path:url(#SVGID_6_);fill:none;stroke:#000000;stroke-width:0;stroke-miterlimit:1;" x1="40.464" y1="4.117" x2="40.573" y2="4.415"/>
		
			<line style="clip-path:url(#SVGID_6_);fill:none;stroke:#000000;stroke-width:0;stroke-miterlimit:1;" x1="40.573" y1="4.415" x2="40.52" y2="4.823"/>
		
			<line style="clip-path:url(#SVGID_6_);fill:none;stroke:#000000;stroke-width:0;stroke-miterlimit:1;" x1="40.52" y1="4.823" x2="40.471" y2="5.004"/>
		
			<line style="clip-path:url(#SVGID_6_);fill:none;stroke:#000000;stroke-width:0;stroke-miterlimit:1;" x1="40.471" y1="5.004" x2="40.399" y2="5.253"/>
		
			<line style="clip-path:url(#SVGID_6_);fill:none;stroke:#000000;stroke-width:0;stroke-miterlimit:1;" x1="40.399" y1="5.253" x2="40.19" y2="5.5"/>
		
			<line style="clip-path:url(#SVGID_6_);fill:none;stroke:#000000;stroke-width:0;stroke-miterlimit:1;" x1="40.19" y1="5.5" x2="40.05" y2="5.634"/>
		
			<line style="clip-path:url(#SVGID_6_);fill:none;stroke:#000000;stroke-width:0;stroke-miterlimit:1;" x1="40.05" y1="5.634" x2="39.706" y2="5.833"/>
		
			<line style="clip-path:url(#SVGID_6_);fill:none;stroke:#000000;stroke-width:0;stroke-miterlimit:1;" x1="39.706" y1="5.833" x2="39.364" y2="5.895"/>
		
			<line style="clip-path:url(#SVGID_6_);fill:none;stroke:#000000;stroke-width:0;stroke-miterlimit:1;" x1="39.364" y1="5.895" x2="39.069" y2="5.822"/>
		
			<line style="clip-path:url(#SVGID_6_);fill:none;stroke:#000000;stroke-width:0;stroke-miterlimit:1;" x1="39.069" y1="5.822" x2="38.753" y2="5.68"/>
		
			<line style="clip-path:url(#SVGID_6_);fill:none;stroke:#000000;stroke-width:0;stroke-miterlimit:1;" x1="38.753" y1="5.68" x2="38.552" y2="5.471"/>
	</g>
	<g>
		<defs>
			<polygon id="SVGID_7_" points="0,79.516 134.863,79.516 134.863,0 0,0 0,79.516 			"/>
		</defs>
		<clipPath id="SVGID_8_">
			<use xlink:href="#SVGID_7_"  style="overflow:visible;"/>
		</clipPath>
		
			<line style="clip-path:url(#SVGID_8_);fill:none;stroke:#000000;stroke-width:0;stroke-miterlimit:1;" x1="18.013" y1="66.683" x2="4.933" y2="66.683"/>
		
			<line style="clip-path:url(#SVGID_8_);fill:none;stroke:#000000;stroke-width:0;stroke-miterlimit:1;" x1="4.933" y1="66.683" x2="5.099" y2="65.575"/>
		
			<line style="clip-path:url(#SVGID_8_);fill:none;stroke:#000000;stroke-width:0;stroke-miterlimit:1;" x1="5.099" y1="65.575" x2="5.266" y2="64.854"/>
		
			<line style="clip-path:url(#SVGID_8_);fill:none;stroke:#000000;stroke-width:0;stroke-miterlimit:1;" x1="5.266" y1="64.854" x2="5.542" y2="64.134"/>
		
			<line style="clip-path:url(#SVGID_8_);fill:none;stroke:#000000;stroke-width:0;stroke-miterlimit:1;" x1="5.542" y1="64.134" x2="5.931" y2="63.58"/>
		
			<line style="clip-path:url(#SVGID_8_);fill:none;stroke:#000000;stroke-width:0;stroke-miterlimit:1;" x1="5.931" y1="63.58" x2="6.263" y2="63.081"/>
		
			<line style="clip-path:url(#SVGID_8_);fill:none;stroke:#000000;stroke-width:0;stroke-miterlimit:1;" x1="6.263" y1="63.081" x2="6.707" y2="62.471"/>
		
			<line style="clip-path:url(#SVGID_8_);fill:none;stroke:#000000;stroke-width:0;stroke-miterlimit:1;" x1="6.707" y1="62.471" x2="7.206" y2="62.028"/>
		
			<line style="clip-path:url(#SVGID_8_);fill:none;stroke:#000000;stroke-width:0;stroke-miterlimit:1;" x1="7.206" y1="62.028" x2="7.815" y2="61.584"/>
		
			<line style="clip-path:url(#SVGID_8_);fill:none;stroke:#000000;stroke-width:0;stroke-miterlimit:1;" x1="7.815" y1="61.584" x2="8.314" y2="61.251"/>
		
			<line style="clip-path:url(#SVGID_8_);fill:none;stroke:#000000;stroke-width:0;stroke-miterlimit:1;" x1="8.314" y1="61.251" x2="9.034" y2="60.919"/>
		
			<line style="clip-path:url(#SVGID_8_);fill:none;stroke:#000000;stroke-width:0;stroke-miterlimit:1;" x1="9.034" y1="60.919" x2="9.755" y2="60.698"/>
		
			<line style="clip-path:url(#SVGID_8_);fill:none;stroke:#000000;stroke-width:0;stroke-miterlimit:1;" x1="9.755" y1="60.698" x2="10.253" y2="60.586"/>
		
			<line style="clip-path:url(#SVGID_8_);fill:none;stroke:#000000;stroke-width:0;stroke-miterlimit:1;" x1="10.253" y1="60.586" x2="11.14" y2="60.476"/>
		
			<line style="clip-path:url(#SVGID_8_);fill:none;stroke:#000000;stroke-width:0;stroke-miterlimit:1;" x1="11.14" y1="60.476" x2="11.806" y2="60.476"/>
		
			<line style="clip-path:url(#SVGID_8_);fill:none;stroke:#000000;stroke-width:0;stroke-miterlimit:1;" x1="11.806" y1="60.476" x2="12.415" y2="60.586"/>
		
			<line style="clip-path:url(#SVGID_8_);fill:none;stroke:#000000;stroke-width:0;stroke-miterlimit:1;" x1="12.415" y1="60.586" x2="13.08" y2="60.698"/>
		
			<line style="clip-path:url(#SVGID_8_);fill:none;stroke:#000000;stroke-width:0;stroke-miterlimit:1;" x1="13.08" y1="60.698" x2="13.801" y2="60.864"/>
		
			<line style="clip-path:url(#SVGID_8_);fill:none;stroke:#000000;stroke-width:0;stroke-miterlimit:1;" x1="13.801" y1="60.864" x2="14.299" y2="61.03"/>
		
			<line style="clip-path:url(#SVGID_8_);fill:none;stroke:#000000;stroke-width:0;stroke-miterlimit:1;" x1="14.299" y1="61.03" x2="14.964" y2="61.473"/>
		
			<line style="clip-path:url(#SVGID_8_);fill:none;stroke:#000000;stroke-width:0;stroke-miterlimit:1;" x1="14.964" y1="61.473" x2="15.519" y2="61.862"/>
		
			<line style="clip-path:url(#SVGID_8_);fill:none;stroke:#000000;stroke-width:0;stroke-miterlimit:1;" x1="15.519" y1="61.862" x2="16.018" y2="62.25"/>
		
			<line style="clip-path:url(#SVGID_8_);fill:none;stroke:#000000;stroke-width:0;stroke-miterlimit:1;" x1="16.018" y1="62.25" x2="16.461" y2="62.804"/>
		
			<line style="clip-path:url(#SVGID_8_);fill:none;stroke:#000000;stroke-width:0;stroke-miterlimit:1;" x1="16.461" y1="62.804" x2="16.904" y2="63.414"/>
		
			<line style="clip-path:url(#SVGID_8_);fill:none;stroke:#000000;stroke-width:0;stroke-miterlimit:1;" x1="16.904" y1="63.414" x2="17.292" y2="64.023"/>
		
			<line style="clip-path:url(#SVGID_8_);fill:none;stroke:#000000;stroke-width:0;stroke-miterlimit:1;" x1="17.292" y1="64.023" x2="17.569" y2="64.578"/>
		
			<line style="clip-path:url(#SVGID_8_);fill:none;stroke:#000000;stroke-width:0;stroke-miterlimit:1;" x1="17.569" y1="64.578" x2="17.791" y2="65.409"/>
		
			<line style="clip-path:url(#SVGID_8_);fill:none;stroke:#000000;stroke-width:0;stroke-miterlimit:1;" x1="17.791" y1="65.409" x2="17.958" y2="66.018"/>
		
			<line style="clip-path:url(#SVGID_8_);fill:none;stroke:#000000;stroke-width:0;stroke-miterlimit:1;" x1="17.958" y1="66.018" x2="18.013" y2="66.683"/>
	</g>
	<g>
		<defs>
			<polygon id="SVGID_9_" points="0,160.645 139.049,160.645 139.049,0 0,0 0,160.645 			"/>
		</defs>
		<clipPath id="SVGID_10_">
			<use xlink:href="#SVGID_9_"  style="overflow:visible;"/>
		</clipPath>
		
			<line style="clip-path:url(#SVGID_10_);fill:none;stroke:#000000;stroke-width:0;stroke-miterlimit:1;" x1="33.01" y1="65.79" x2="36.78" y2="62.354"/>
		
			<line style="clip-path:url(#SVGID_10_);fill:none;stroke:#000000;stroke-width:0;stroke-miterlimit:1;" x1="36.78" y1="62.354" x2="40.327" y2="65.79"/>
	</g>
	<g>
		<defs>
			<polygon id="SVGID_11_" points="0,160.645 139.049,160.645 139.049,0 0,0 0,160.645 			"/>
		</defs>
		<clipPath id="SVGID_12_">
			<use xlink:href="#SVGID_11_"  style="overflow:visible;"/>
		</clipPath>
		
			<line style="clip-path:url(#SVGID_12_);fill:none;stroke:#000000;stroke-width:0;stroke-miterlimit:1;" x1="41.767" y1="64.238" x2="38.442" y2="60.857"/>
		
			<line style="clip-path:url(#SVGID_12_);fill:none;stroke:#000000;stroke-width:0;stroke-miterlimit:1;" x1="38.442" y1="60.857" x2="41.989" y2="57.476"/>
	</g>
	<g>
		<defs>
			<polygon id="SVGID_13_" points="0,160.645 139.049,160.645 139.049,0 0,0 0,160.645 			"/>
		</defs>
		<clipPath id="SVGID_14_">
			<use xlink:href="#SVGID_13_"  style="overflow:visible;"/>
		</clipPath>
		
			<line style="clip-path:url(#SVGID_14_);fill:none;stroke:#000000;stroke-width:0;stroke-miterlimit:1;" x1="40.437" y1="55.758" x2="36.89" y2="59.139"/>
		
			<line style="clip-path:url(#SVGID_14_);fill:none;stroke:#000000;stroke-width:0;stroke-miterlimit:1;" x1="36.89" y1="59.139" x2="33.343" y2="55.481"/>
	</g>
	<g>
		<defs>
			<polygon id="SVGID_15_" points="0,160.645 139.049,160.645 139.049,0 0,0 0,160.645 			"/>
		</defs>
		<clipPath id="SVGID_16_">
			<use xlink:href="#SVGID_15_"  style="overflow:visible;"/>
		</clipPath>
		
			<line style="clip-path:url(#SVGID_16_);fill:none;stroke:#000000;stroke-width:0;stroke-miterlimit:1;" x1="31.792" y1="56.978" x2="35.228" y2="60.635"/>
		
			<line style="clip-path:url(#SVGID_16_);fill:none;stroke:#000000;stroke-width:0;stroke-miterlimit:1;" x1="35.228" y1="60.635" x2="31.57" y2="64.127"/>
	</g>
	<g>
		<defs>
			<polygon id="SVGID_17_" points="0,160.645 139.049,160.645 139.049,0 0,0 0,160.645 			"/>
		</defs>
		<clipPath id="SVGID_18_">
			<use xlink:href="#SVGID_17_"  style="overflow:visible;"/>
		</clipPath>
		
			<line style="clip-path:url(#SVGID_18_);fill:none;stroke:#000000;stroke-width:0;stroke-miterlimit:1;" x1="36.225" y1="66.954" x2="37.777" y2="66.898"/>
		
			<line style="clip-path:url(#SVGID_18_);fill:none;stroke:#000000;stroke-width:0;stroke-miterlimit:1;" x1="37.777" y1="66.898" x2="38.664" y2="66.676"/>
		
			<line style="clip-path:url(#SVGID_18_);fill:none;stroke:#000000;stroke-width:0;stroke-miterlimit:1;" x1="38.664" y1="66.676" x2="39.44" y2="66.344"/>
		
			<line style="clip-path:url(#SVGID_18_);fill:none;stroke:#000000;stroke-width:0;stroke-miterlimit:1;" x1="39.44" y1="66.344" x2="40.327" y2="65.735"/>
		
			<line style="clip-path:url(#SVGID_18_);fill:none;stroke:#000000;stroke-width:0;stroke-miterlimit:1;" x1="40.327" y1="65.735" x2="40.992" y2="65.125"/>
		
			<line style="clip-path:url(#SVGID_18_);fill:none;stroke:#000000;stroke-width:0;stroke-miterlimit:1;" x1="40.992" y1="65.125" x2="41.657" y2="64.404"/>
		
			<line style="clip-path:url(#SVGID_18_);fill:none;stroke:#000000;stroke-width:0;stroke-miterlimit:1;" x1="41.657" y1="64.404" x2="42.1" y2="63.684"/>
		
			<line style="clip-path:url(#SVGID_18_);fill:none;stroke:#000000;stroke-width:0;stroke-miterlimit:1;" x1="42.1" y1="63.684" x2="42.543" y2="62.908"/>
		
			<line style="clip-path:url(#SVGID_18_);fill:none;stroke:#000000;stroke-width:0;stroke-miterlimit:1;" x1="42.543" y1="62.908" x2="42.765" y2="62.132"/>
		
			<line style="clip-path:url(#SVGID_18_);fill:none;stroke:#000000;stroke-width:0;stroke-miterlimit:1;" x1="42.765" y1="62.132" x2="42.875" y2="61.246"/>
		
			<line style="clip-path:url(#SVGID_18_);fill:none;stroke:#000000;stroke-width:0;stroke-miterlimit:1;" x1="42.875" y1="61.246" x2="42.875" y2="60.359"/>
		
			<line style="clip-path:url(#SVGID_18_);fill:none;stroke:#000000;stroke-width:0;stroke-miterlimit:1;" x1="42.875" y1="60.359" x2="42.599" y2="58.806"/>
		
			<line style="clip-path:url(#SVGID_18_);fill:none;stroke:#000000;stroke-width:0;stroke-miterlimit:1;" x1="42.599" y1="58.806" x2="42.266" y2="57.975"/>
		
			<line style="clip-path:url(#SVGID_18_);fill:none;stroke:#000000;stroke-width:0;stroke-miterlimit:1;" x1="42.266" y1="57.975" x2="41.767" y2="57.144"/>
		
			<line style="clip-path:url(#SVGID_18_);fill:none;stroke:#000000;stroke-width:0;stroke-miterlimit:1;" x1="41.767" y1="57.144" x2="41.213" y2="56.368"/>
		
			<line style="clip-path:url(#SVGID_18_);fill:none;stroke:#000000;stroke-width:0;stroke-miterlimit:1;" x1="41.213" y1="56.368" x2="40.382" y2="55.648"/>
		
			<line style="clip-path:url(#SVGID_18_);fill:none;stroke:#000000;stroke-width:0;stroke-miterlimit:1;" x1="40.382" y1="55.648" x2="39.717" y2="55.204"/>
		
			<line style="clip-path:url(#SVGID_18_);fill:none;stroke:#000000;stroke-width:0;stroke-miterlimit:1;" x1="39.717" y1="55.204" x2="39.052" y2="54.927"/>
		
			<line style="clip-path:url(#SVGID_18_);fill:none;stroke:#000000;stroke-width:0;stroke-miterlimit:1;" x1="39.052" y1="54.927" x2="38.442" y2="54.706"/>
		
			<line style="clip-path:url(#SVGID_18_);fill:none;stroke:#000000;stroke-width:0;stroke-miterlimit:1;" x1="38.442" y1="54.706" x2="37.611" y2="54.539"/>
		
			<line style="clip-path:url(#SVGID_18_);fill:none;stroke:#000000;stroke-width:0;stroke-miterlimit:1;" x1="37.611" y1="54.539" x2="36.78" y2="54.484"/>
		
			<line style="clip-path:url(#SVGID_18_);fill:none;stroke:#000000;stroke-width:0;stroke-miterlimit:1;" x1="36.78" y1="54.484" x2="35.671" y2="54.484"/>
		
			<line style="clip-path:url(#SVGID_18_);fill:none;stroke:#000000;stroke-width:0;stroke-miterlimit:1;" x1="35.671" y1="54.484" x2="34.785" y2="54.706"/>
		
			<line style="clip-path:url(#SVGID_18_);fill:none;stroke:#000000;stroke-width:0;stroke-miterlimit:1;" x1="34.785" y1="54.706" x2="33.953" y2="55.038"/>
		
			<line style="clip-path:url(#SVGID_18_);fill:none;stroke:#000000;stroke-width:0;stroke-miterlimit:1;" x1="33.953" y1="55.038" x2="33.177" y2="55.481"/>
		
			<line style="clip-path:url(#SVGID_18_);fill:none;stroke:#000000;stroke-width:0;stroke-miterlimit:1;" x1="33.177" y1="55.481" x2="32.457" y2="56.091"/>
		
			<line style="clip-path:url(#SVGID_18_);fill:none;stroke:#000000;stroke-width:0;stroke-miterlimit:1;" x1="32.457" y1="56.091" x2="31.792" y2="56.867"/>
		
			<line style="clip-path:url(#SVGID_18_);fill:none;stroke:#000000;stroke-width:0;stroke-miterlimit:1;" x1="31.792" y1="56.867" x2="31.182" y2="57.643"/>
		
			<line style="clip-path:url(#SVGID_18_);fill:none;stroke:#000000;stroke-width:0;stroke-miterlimit:1;" x1="31.182" y1="57.643" x2="30.905" y2="58.197"/>
		
			<line style="clip-path:url(#SVGID_18_);fill:none;stroke:#000000;stroke-width:0;stroke-miterlimit:1;" x1="30.905" y1="58.197" x2="30.683" y2="58.806"/>
		
			<line style="clip-path:url(#SVGID_18_);fill:none;stroke:#000000;stroke-width:0;stroke-miterlimit:1;" x1="30.683" y1="58.806" x2="30.461" y2="59.86"/>
		
			<line style="clip-path:url(#SVGID_18_);fill:none;stroke:#000000;stroke-width:0;stroke-miterlimit:1;" x1="30.461" y1="59.86" x2="30.461" y2="60.857"/>
		
			<line style="clip-path:url(#SVGID_18_);fill:none;stroke:#000000;stroke-width:0;stroke-miterlimit:1;" x1="30.461" y1="60.857" x2="30.572" y2="61.578"/>
		
			<line style="clip-path:url(#SVGID_18_);fill:none;stroke:#000000;stroke-width:0;stroke-miterlimit:1;" x1="30.572" y1="61.578" x2="30.683" y2="62.354"/>
		
			<line style="clip-path:url(#SVGID_18_);fill:none;stroke:#000000;stroke-width:0;stroke-miterlimit:1;" x1="30.683" y1="62.354" x2="30.96" y2="63.129"/>
		
			<line style="clip-path:url(#SVGID_18_);fill:none;stroke:#000000;stroke-width:0;stroke-miterlimit:1;" x1="30.96" y1="63.129" x2="31.348" y2="64.016"/>
		
			<line style="clip-path:url(#SVGID_18_);fill:none;stroke:#000000;stroke-width:0;stroke-miterlimit:1;" x1="31.348" y1="64.016" x2="32.013" y2="64.848"/>
		
			<line style="clip-path:url(#SVGID_18_);fill:none;stroke:#000000;stroke-width:0;stroke-miterlimit:1;" x1="32.013" y1="64.848" x2="32.678" y2="65.458"/>
		
			<line style="clip-path:url(#SVGID_18_);fill:none;stroke:#000000;stroke-width:0;stroke-miterlimit:1;" x1="32.678" y1="65.458" x2="33.454" y2="66.067"/>
		
			<line style="clip-path:url(#SVGID_18_);fill:none;stroke:#000000;stroke-width:0;stroke-miterlimit:1;" x1="33.454" y1="66.067" x2="34.23" y2="66.455"/>
		
			<line style="clip-path:url(#SVGID_18_);fill:none;stroke:#000000;stroke-width:0;stroke-miterlimit:1;" x1="34.23" y1="66.455" x2="35.172" y2="66.788"/>
		
			<line style="clip-path:url(#SVGID_18_);fill:none;stroke:#000000;stroke-width:0;stroke-miterlimit:1;" x1="35.172" y1="66.788" x2="36.225" y2="66.954"/>
	</g>
	<g>
		<defs>
			<polygon id="SVGID_19_" points="0,160.645 139.049,160.645 139.049,0 0,0 0,160.645 			"/>
		</defs>
		<clipPath id="SVGID_20_">
			<use xlink:href="#SVGID_19_"  style="overflow:visible;"/>
		</clipPath>
		
			<line style="clip-path:url(#SVGID_20_);fill:none;stroke:#000000;stroke-width:0;stroke-miterlimit:1;" x1="3.378" y1="33.946" x2="42.465" y2="34.075"/>
		
			<line style="clip-path:url(#SVGID_20_);fill:none;stroke:#000000;stroke-width:0;stroke-miterlimit:1;" x1="42.465" y1="34.075" x2="42.465" y2="35.623"/>
		
			<line style="clip-path:url(#SVGID_20_);fill:none;stroke:#000000;stroke-width:0;stroke-miterlimit:1;" x1="42.465" y1="35.623" x2="3.25" y2="35.623"/>
		
			<line style="clip-path:url(#SVGID_20_);fill:none;stroke:#000000;stroke-width:0;stroke-miterlimit:1;" x1="3.25" y1="35.623" x2="3.25" y2="33.946"/>
	</g>
	<g>
		<defs>
			<polygon id="SVGID_21_" points="0,160.645 139.049,160.645 139.049,0 0,0 0,160.645 			"/>
		</defs>
		<clipPath id="SVGID_22_">
			<use xlink:href="#SVGID_21_"  style="overflow:visible;"/>
		</clipPath>
		
			<line style="clip-path:url(#SVGID_22_);fill:none;stroke:#000000;stroke-width:0;stroke-miterlimit:1;" x1="22.729" y1="35.751" x2="22.857" y2="44.524"/>
	</g>
	<g>
		<defs>
			<polygon id="SVGID_23_" points="0,160.645 139.049,160.645 139.049,0 0,0 0,160.645 			"/>
		</defs>
		<clipPath id="SVGID_24_">
			<use xlink:href="#SVGID_23_"  style="overflow:visible;"/>
		</clipPath>
		
			<line style="clip-path:url(#SVGID_24_);fill:none;stroke:#000000;stroke-width:0;stroke-miterlimit:1;" x1="22.857" y1="46.974" x2="22.857" y2="67.098"/>
		
			<line style="clip-path:url(#SVGID_24_);fill:none;stroke:#000000;stroke-width:0;stroke-miterlimit:1;" x1="22.857" y1="67.098" x2="24.276" y2="67.098"/>
		
			<line style="clip-path:url(#SVGID_24_);fill:none;stroke:#000000;stroke-width:0;stroke-miterlimit:1;" x1="24.276" y1="67.098" x2="24.276" y2="47.877"/>
	</g>
	<g>
		<defs>
			<polygon id="SVGID_25_" points="0,160.645 139.049,160.645 139.049,0 0,0 0,160.645 			"/>
		</defs>
		<clipPath id="SVGID_26_">
			<use xlink:href="#SVGID_25_"  style="overflow:visible;"/>
		</clipPath>
		
			<line style="clip-path:url(#SVGID_26_);fill:none;stroke:#000000;stroke-width:0;stroke-miterlimit:1;" x1="24.147" y1="45.555" x2="24.147" y2="35.88"/>
	</g>
	<g>
		<defs>
			<polygon id="SVGID_27_" points="0,160.645 139.049,160.645 139.049,0 0,0 0,160.645 			"/>
		</defs>
		<clipPath id="SVGID_28_">
			<use xlink:href="#SVGID_27_"  style="overflow:visible;"/>
		</clipPath>
		
			<line style="clip-path:url(#SVGID_28_);fill:none;stroke:#000000;stroke-width:0;stroke-miterlimit:1;" x1="10.345" y1="35.751" x2="14.085" y2="39.879"/>
		
			<line style="clip-path:url(#SVGID_28_);fill:none;stroke:#000000;stroke-width:0;stroke-miterlimit:1;" x1="14.085" y1="39.879" x2="20.406" y2="45.426"/>
		
			<line style="clip-path:url(#SVGID_28_);fill:none;stroke:#000000;stroke-width:0;stroke-miterlimit:1;" x1="20.406" y1="45.426" x2="25.308" y2="48.652"/>
		
			<line style="clip-path:url(#SVGID_28_);fill:none;stroke:#000000;stroke-width:0;stroke-miterlimit:1;" x1="25.308" y1="48.652" x2="28.534" y2="49.039"/>
		
			<line style="clip-path:url(#SVGID_28_);fill:none;stroke:#000000;stroke-width:0;stroke-miterlimit:1;" x1="28.534" y1="49.039" x2="30.468" y2="48.652"/>
		
			<line style="clip-path:url(#SVGID_28_);fill:none;stroke:#000000;stroke-width:0;stroke-miterlimit:1;" x1="30.468" y1="48.652" x2="32.403" y2="47.877"/>
		
			<line style="clip-path:url(#SVGID_28_);fill:none;stroke:#000000;stroke-width:0;stroke-miterlimit:1;" x1="32.403" y1="47.877" x2="33.435" y2="46.587"/>
		
			<line style="clip-path:url(#SVGID_28_);fill:none;stroke:#000000;stroke-width:0;stroke-miterlimit:1;" x1="33.435" y1="46.587" x2="33.951" y2="45.297"/>
		
			<line style="clip-path:url(#SVGID_28_);fill:none;stroke:#000000;stroke-width:0;stroke-miterlimit:1;" x1="33.951" y1="45.297" x2="33.564" y2="43.234"/>
		
			<line style="clip-path:url(#SVGID_28_);fill:none;stroke:#000000;stroke-width:0;stroke-miterlimit:1;" x1="33.564" y1="43.234" x2="32.661" y2="41.298"/>
		
			<line style="clip-path:url(#SVGID_28_);fill:none;stroke:#000000;stroke-width:0;stroke-miterlimit:1;" x1="32.661" y1="41.298" x2="29.565" y2="37.816"/>
		
			<line style="clip-path:url(#SVGID_28_);fill:none;stroke:#000000;stroke-width:0;stroke-miterlimit:1;" x1="29.565" y1="37.816" x2="26.985" y2="35.623"/>
	</g>
	<g>
		<defs>
			<polygon id="SVGID_29_" points="0,160.645 139.049,160.645 139.049,0 0,0 0,160.645 			"/>
		</defs>
		<clipPath id="SVGID_30_">
			<use xlink:href="#SVGID_29_"  style="overflow:visible;"/>
		</clipPath>
		
			<line style="clip-path:url(#SVGID_30_);fill:none;stroke:#000000;stroke-width:0;stroke-miterlimit:1;" x1="30.726" y1="35.623" x2="31.887" y2="36.655"/>
		
			<line style="clip-path:url(#SVGID_30_);fill:none;stroke:#000000;stroke-width:0;stroke-miterlimit:1;" x1="31.887" y1="36.655" x2="32.791" y2="37.687"/>
		
			<line style="clip-path:url(#SVGID_30_);fill:none;stroke:#000000;stroke-width:0;stroke-miterlimit:1;" x1="32.791" y1="37.687" x2="34.081" y2="39.75"/>
		
			<line style="clip-path:url(#SVGID_30_);fill:none;stroke:#000000;stroke-width:0;stroke-miterlimit:1;" x1="34.081" y1="39.75" x2="34.854" y2="41.944"/>
		
			<line style="clip-path:url(#SVGID_30_);fill:none;stroke:#000000;stroke-width:0;stroke-miterlimit:1;" x1="34.854" y1="41.944" x2="34.983" y2="43.492"/>
		
			<line style="clip-path:url(#SVGID_30_);fill:none;stroke:#000000;stroke-width:0;stroke-miterlimit:1;" x1="34.983" y1="43.492" x2="34.596" y2="44.911"/>
		
			<line style="clip-path:url(#SVGID_30_);fill:none;stroke:#000000;stroke-width:0;stroke-miterlimit:1;" x1="34.596" y1="44.911" x2="33.177" y2="46.072"/>
		
			<line style="clip-path:url(#SVGID_30_);fill:none;stroke:#000000;stroke-width:0;stroke-miterlimit:1;" x1="33.177" y1="46.072" x2="31.243" y2="46.716"/>
		
			<line style="clip-path:url(#SVGID_30_);fill:none;stroke:#000000;stroke-width:0;stroke-miterlimit:1;" x1="31.243" y1="46.716" x2="29.307" y2="46.845"/>
		
			<line style="clip-path:url(#SVGID_30_);fill:none;stroke:#000000;stroke-width:0;stroke-miterlimit:1;" x1="29.307" y1="46.845" x2="26.598" y2="46.587"/>
		
			<line style="clip-path:url(#SVGID_30_);fill:none;stroke:#000000;stroke-width:0;stroke-miterlimit:1;" x1="26.598" y1="46.587" x2="23.76" y2="45.297"/>
		
			<line style="clip-path:url(#SVGID_30_);fill:none;stroke:#000000;stroke-width:0;stroke-miterlimit:1;" x1="23.76" y1="45.297" x2="18.471" y2="41.427"/>
		
			<line style="clip-path:url(#SVGID_30_);fill:none;stroke:#000000;stroke-width:0;stroke-miterlimit:1;" x1="18.471" y1="41.427" x2="12.15" y2="35.623"/>
	</g>
</g>
</svg>
