<?xml version="1.0" encoding="iso-8859-1"?>
<!-- Generator: Adobe Illustrator 16.0.1, SVG Export Plug-In . SVG Version: 6.00 Build 0)  -->
<!DOCTYPE svg PUBLIC "-//W3C//DTD SVG 1.1//EN" "http://www.w3.org/Graphics/SVG/1.1/DTD/svg11.dtd">
<svg version="1.1" id="Ebene_1" xmlns="http://www.w3.org/2000/svg" xmlns:xlink="http://www.w3.org/1999/xlink" x="0px" y="0px"
	 width="524.222px" height="478.615px" viewBox="0 0 524.222 478.615" style="enable-background:new 0 0 524.222 478.615;"
	 xml:space="preserve">
<g>
	<g>
		<defs>
			<polygon id="SVGID_1_" points="45.257,330.624 403.806,330.624 403.806,0 45.257,0 45.257,330.624 			"/>
		</defs>
		<clipPath id="SVGID_2_">
			<use xlink:href="#SVGID_1_"  style="overflow:visible;"/>
		</clipPath>
		
			<line style="clip-path:url(#SVGID_2_);fill:none;stroke:#000000;stroke-width:0;stroke-miterlimit:1;" x1="122.338" y1="43.817" x2="114.871" y2="43.138"/>
		
			<line style="clip-path:url(#SVGID_2_);fill:none;stroke:#000000;stroke-width:0;stroke-miterlimit:1;" x1="114.871" y1="43.138" x2="102.991" y2="43.817"/>
		
			<line style="clip-path:url(#SVGID_2_);fill:none;stroke:#000000;stroke-width:0;stroke-miterlimit:1;" x1="102.991" y1="43.817" x2="94.166" y2="42.799"/>
		
			<line style="clip-path:url(#SVGID_2_);fill:none;stroke:#000000;stroke-width:0;stroke-miterlimit:1;" x1="94.166" y1="42.799" x2="91.45" y2="43.817"/>
		
			<line style="clip-path:url(#SVGID_2_);fill:none;stroke:#000000;stroke-width:0;stroke-miterlimit:1;" x1="91.45" y1="43.817" x2="89.414" y2="46.533"/>
		
			<line style="clip-path:url(#SVGID_2_);fill:none;stroke:#000000;stroke-width:0;stroke-miterlimit:1;" x1="89.414" y1="46.533" x2="90.093" y2="51.285"/>
		
			<line style="clip-path:url(#SVGID_2_);fill:none;stroke:#000000;stroke-width:0;stroke-miterlimit:1;" x1="90.093" y1="51.285" x2="93.487" y2="62.146"/>
		
			<line style="clip-path:url(#SVGID_2_);fill:none;stroke:#000000;stroke-width:0;stroke-miterlimit:1;" x1="93.487" y1="62.146" x2="99.936" y2="72.668"/>
		
			<line style="clip-path:url(#SVGID_2_);fill:none;stroke:#000000;stroke-width:0;stroke-miterlimit:1;" x1="99.936" y1="72.668" x2="120.98" y2="97.786"/>
		
			<line style="clip-path:url(#SVGID_2_);fill:none;stroke:#000000;stroke-width:0;stroke-miterlimit:1;" x1="120.98" y1="97.786" x2="131.842" y2="107.969"/>
		
			<line style="clip-path:url(#SVGID_2_);fill:none;stroke:#000000;stroke-width:0;stroke-miterlimit:1;" x1="131.842" y1="107.969" x2="147.456" y2="122.564"/>
		
			<line style="clip-path:url(#SVGID_2_);fill:none;stroke:#000000;stroke-width:0;stroke-miterlimit:1;" x1="147.456" y1="122.564" x2="180.72" y2="155.149"/>
		
			<line style="clip-path:url(#SVGID_2_);fill:none;stroke:#000000;stroke-width:0;stroke-miterlimit:1;" x1="180.72" y1="155.149" x2="184.114" y2="155.149"/>
		
			<line style="clip-path:url(#SVGID_2_);fill:none;stroke:#000000;stroke-width:0;stroke-miterlimit:1;" x1="184.114" y1="155.149" x2="185.133" y2="153.453"/>
		
			<line style="clip-path:url(#SVGID_2_);fill:none;stroke:#000000;stroke-width:0;stroke-miterlimit:1;" x1="185.133" y1="153.453" x2="183.775" y2="150.397"/>
		
			<line style="clip-path:url(#SVGID_2_);fill:none;stroke:#000000;stroke-width:0;stroke-miterlimit:1;" x1="183.775" y1="150.397" x2="169.519" y2="117.812"/>
		
			<line style="clip-path:url(#SVGID_2_);fill:none;stroke:#000000;stroke-width:0;stroke-miterlimit:1;" x1="169.519" y1="117.812" x2="167.482" y2="111.703"/>
		
			<line style="clip-path:url(#SVGID_2_);fill:none;stroke:#000000;stroke-width:0;stroke-miterlimit:1;" x1="167.482" y1="111.703" x2="156.621" y2="85.567"/>
		
			<line style="clip-path:url(#SVGID_2_);fill:none;stroke:#000000;stroke-width:0;stroke-miterlimit:1;" x1="156.621" y1="85.567" x2="146.777" y2="68.596"/>
		
			<line style="clip-path:url(#SVGID_2_);fill:none;stroke:#000000;stroke-width:0;stroke-miterlimit:1;" x1="146.777" y1="68.596" x2="138.97" y2="57.734"/>
		
			<line style="clip-path:url(#SVGID_2_);fill:none;stroke:#000000;stroke-width:0;stroke-miterlimit:1;" x1="138.97" y1="57.734" x2="133.2" y2="49.927"/>
		
			<line style="clip-path:url(#SVGID_2_);fill:none;stroke:#000000;stroke-width:0;stroke-miterlimit:1;" x1="133.2" y1="49.927" x2="128.448" y2="42.459"/>
		
			<line style="clip-path:url(#SVGID_2_);fill:none;stroke:#000000;stroke-width:0;stroke-miterlimit:1;" x1="128.448" y1="42.459" x2="123.356" y2="35.671"/>
		
			<line style="clip-path:url(#SVGID_2_);fill:none;stroke:#000000;stroke-width:0;stroke-miterlimit:1;" x1="123.356" y1="35.671" x2="117.247" y2="28.543"/>
		
			<line style="clip-path:url(#SVGID_2_);fill:none;stroke:#000000;stroke-width:0;stroke-miterlimit:1;" x1="117.247" y1="28.543" x2="111.137" y2="24.47"/>
		
			<line style="clip-path:url(#SVGID_2_);fill:none;stroke:#000000;stroke-width:0;stroke-miterlimit:1;" x1="111.137" y1="24.47" x2="109.44" y2="17.342"/>
		
			<line style="clip-path:url(#SVGID_2_);fill:none;stroke:#000000;stroke-width:0;stroke-miterlimit:1;" x1="109.44" y1="17.342" x2="108.083" y2="9.535"/>
		
			<line style="clip-path:url(#SVGID_2_);fill:none;stroke:#000000;stroke-width:0;stroke-miterlimit:1;" x1="108.083" y1="9.535" x2="106.046" y2="4.443"/>
		
			<line style="clip-path:url(#SVGID_2_);fill:none;stroke:#000000;stroke-width:0;stroke-miterlimit:1;" x1="106.046" y1="4.443" x2="100.275" y2="3.086"/>
		
			<line style="clip-path:url(#SVGID_2_);fill:none;stroke:#000000;stroke-width:0;stroke-miterlimit:1;" x1="100.275" y1="3.086" x2="90.771" y2="3.086"/>
		
			<line style="clip-path:url(#SVGID_2_);fill:none;stroke:#000000;stroke-width:0;stroke-miterlimit:1;" x1="90.771" y1="3.086" x2="80.249" y2="3.425"/>
		
			<line style="clip-path:url(#SVGID_2_);fill:none;stroke:#000000;stroke-width:0;stroke-miterlimit:1;" x1="80.249" y1="3.425" x2="75.158" y2="4.783"/>
		
			<line style="clip-path:url(#SVGID_2_);fill:none;stroke:#000000;stroke-width:0;stroke-miterlimit:1;" x1="75.158" y1="4.783" x2="72.782" y2="5.462"/>
		
			<line style="clip-path:url(#SVGID_2_);fill:none;stroke:#000000;stroke-width:0;stroke-miterlimit:1;" x1="72.782" y1="5.462" x2="55.471" y2="7.838"/>
		
			<line style="clip-path:url(#SVGID_2_);fill:none;stroke:#000000;stroke-width:0;stroke-miterlimit:1;" x1="55.471" y1="7.838" x2="50.379" y2="10.214"/>
		
			<line style="clip-path:url(#SVGID_2_);fill:none;stroke:#000000;stroke-width:0;stroke-miterlimit:1;" x1="50.379" y1="10.214" x2="48.683" y2="12.59"/>
		
			<line style="clip-path:url(#SVGID_2_);fill:none;stroke:#000000;stroke-width:0;stroke-miterlimit:1;" x1="48.683" y1="12.59" x2="48.343" y2="17.342"/>
		
			<line style="clip-path:url(#SVGID_2_);fill:none;stroke:#000000;stroke-width:0;stroke-miterlimit:1;" x1="48.343" y1="17.342" x2="50.379" y2="13.947"/>
		
			<line style="clip-path:url(#SVGID_2_);fill:none;stroke:#000000;stroke-width:0;stroke-miterlimit:1;" x1="50.379" y1="13.947" x2="53.774" y2="12.25"/>
		
			<line style="clip-path:url(#SVGID_2_);fill:none;stroke:#000000;stroke-width:0;stroke-miterlimit:1;" x1="53.774" y1="12.25" x2="63.957" y2="12.25"/>
		
			<line style="clip-path:url(#SVGID_2_);fill:none;stroke:#000000;stroke-width:0;stroke-miterlimit:1;" x1="63.957" y1="12.25" x2="74.479" y2="12.59"/>
		
			<line style="clip-path:url(#SVGID_2_);fill:none;stroke:#000000;stroke-width:0;stroke-miterlimit:1;" x1="74.479" y1="12.59" x2="79.91" y2="13.947"/>
		
			<line style="clip-path:url(#SVGID_2_);fill:none;stroke:#000000;stroke-width:0;stroke-miterlimit:1;" x1="79.91" y1="13.947" x2="75.497" y2="8.517"/>
		
			<line style="clip-path:url(#SVGID_2_);fill:none;stroke:#000000;stroke-width:0;stroke-miterlimit:1;" x1="75.497" y1="8.517" x2="74.479" y2="4.783"/>
	</g>
	<g>
		<defs>
			<polygon id="SVGID_3_" points="45.257,330.624 403.806,330.624 403.806,0 45.257,0 45.257,330.624 			"/>
		</defs>
		<clipPath id="SVGID_4_">
			<use xlink:href="#SVGID_3_"  style="overflow:visible;"/>
		</clipPath>
		
			<line style="clip-path:url(#SVGID_4_);fill:none;stroke:#000000;stroke-width:0;stroke-miterlimit:1;" x1="85.68" y1="11.911" x2="86.698" y2="11.571"/>
		
			<line style="clip-path:url(#SVGID_4_);fill:none;stroke:#000000;stroke-width:0;stroke-miterlimit:1;" x1="86.698" y1="11.571" x2="87.377" y2="9.875"/>
		
			<line style="clip-path:url(#SVGID_4_);fill:none;stroke:#000000;stroke-width:0;stroke-miterlimit:1;" x1="87.377" y1="9.875" x2="86.698" y2="8.177"/>
		
			<line style="clip-path:url(#SVGID_4_);fill:none;stroke:#000000;stroke-width:0;stroke-miterlimit:1;" x1="86.698" y1="8.177" x2="85.341" y2="7.159"/>
		
			<line style="clip-path:url(#SVGID_4_);fill:none;stroke:#000000;stroke-width:0;stroke-miterlimit:1;" x1="85.341" y1="7.159" x2="83.983" y2="8.177"/>
		
			<line style="clip-path:url(#SVGID_4_);fill:none;stroke:#000000;stroke-width:0;stroke-miterlimit:1;" x1="83.983" y1="8.177" x2="83.644" y2="10.214"/>
		
			<line style="clip-path:url(#SVGID_4_);fill:none;stroke:#000000;stroke-width:0;stroke-miterlimit:1;" x1="83.644" y1="10.214" x2="84.322" y2="11.232"/>
		
			<line style="clip-path:url(#SVGID_4_);fill:none;stroke:#000000;stroke-width:0;stroke-miterlimit:1;" x1="84.322" y1="11.232" x2="85.341" y2="11.911"/>
	</g>
	<g>
		<defs>
			<polygon id="SVGID_5_" points="45.257,343.183 403.806,343.183 403.806,0 45.257,0 45.257,343.183 			"/>
		</defs>
		<clipPath id="SVGID_6_">
			<use xlink:href="#SVGID_5_"  style="overflow:visible;"/>
		</clipPath>
		
			<line style="clip-path:url(#SVGID_6_);fill:none;stroke:#000000;stroke-width:0;stroke-miterlimit:1;" x1="50.04" y1="15.305" x2="63.617" y2="14.966"/>
		
			<line style="clip-path:url(#SVGID_6_);fill:none;stroke:#000000;stroke-width:0;stroke-miterlimit:1;" x1="63.617" y1="14.966" x2="74.14" y2="16.323"/>
		
			<line style="clip-path:url(#SVGID_6_);fill:none;stroke:#000000;stroke-width:0;stroke-miterlimit:1;" x1="74.14" y1="16.323" x2="77.194" y2="18.021"/>
		
			<line style="clip-path:url(#SVGID_6_);fill:none;stroke:#000000;stroke-width:0;stroke-miterlimit:1;" x1="77.194" y1="18.021" x2="78.213" y2="21.415"/>
		
			<line style="clip-path:url(#SVGID_6_);fill:none;stroke:#000000;stroke-width:0;stroke-miterlimit:1;" x1="78.213" y1="21.415" x2="78.552" y2="25.148"/>
		
			<line style="clip-path:url(#SVGID_6_);fill:none;stroke:#000000;stroke-width:0;stroke-miterlimit:1;" x1="78.552" y1="25.148" x2="75.497" y2="32.616"/>
		
			<line style="clip-path:url(#SVGID_6_);fill:none;stroke:#000000;stroke-width:0;stroke-miterlimit:1;" x1="75.497" y1="32.616" x2="74.14" y2="41.781"/>
		
			<line style="clip-path:url(#SVGID_6_);fill:none;stroke:#000000;stroke-width:0;stroke-miterlimit:1;" x1="74.14" y1="41.781" x2="75.837" y2="52.982"/>
		
			<line style="clip-path:url(#SVGID_6_);fill:none;stroke:#000000;stroke-width:0;stroke-miterlimit:1;" x1="75.837" y1="52.982" x2="77.194" y2="58.073"/>
		
			<line style="clip-path:url(#SVGID_6_);fill:none;stroke:#000000;stroke-width:0;stroke-miterlimit:1;" x1="77.194" y1="58.073" x2="80.928" y2="68.256"/>
		
			<line style="clip-path:url(#SVGID_6_);fill:none;stroke:#000000;stroke-width:0;stroke-miterlimit:1;" x1="80.928" y1="68.256" x2="85.341" y2="76.402"/>
		
			<line style="clip-path:url(#SVGID_6_);fill:none;stroke:#000000;stroke-width:0;stroke-miterlimit:1;" x1="85.341" y1="76.402" x2="95.863" y2="94.392"/>
		
			<line style="clip-path:url(#SVGID_6_);fill:none;stroke:#000000;stroke-width:0;stroke-miterlimit:1;" x1="95.863" y1="94.392" x2="109.779" y2="120.867"/>
		
			<line style="clip-path:url(#SVGID_6_);fill:none;stroke:#000000;stroke-width:0;stroke-miterlimit:1;" x1="109.779" y1="120.867" x2="111.137" y2="131.051"/>
		
			<line style="clip-path:url(#SVGID_6_);fill:none;stroke:#000000;stroke-width:0;stroke-miterlimit:1;" x1="111.137" y1="131.051" x2="109.44" y2="148.361"/>
		
			<line style="clip-path:url(#SVGID_6_);fill:none;stroke:#000000;stroke-width:0;stroke-miterlimit:1;" x1="109.44" y1="148.361" x2="107.743" y2="150.059"/>
		
			<line style="clip-path:url(#SVGID_6_);fill:none;stroke:#000000;stroke-width:0;stroke-miterlimit:1;" x1="107.743" y1="150.059" x2="97.899" y2="151.076"/>
		
			<line style="clip-path:url(#SVGID_6_);fill:none;stroke:#000000;stroke-width:0;stroke-miterlimit:1;" x1="97.899" y1="151.076" x2="86.359" y2="150.737"/>
		
			<line style="clip-path:url(#SVGID_6_);fill:none;stroke:#000000;stroke-width:0;stroke-miterlimit:1;" x1="86.359" y1="150.737" x2="85.68" y2="152.435"/>
		
			<line style="clip-path:url(#SVGID_6_);fill:none;stroke:#000000;stroke-width:0;stroke-miterlimit:1;" x1="85.68" y1="152.435" x2="80.589" y2="153.113"/>
		
			<line style="clip-path:url(#SVGID_6_);fill:none;stroke:#000000;stroke-width:0;stroke-miterlimit:1;" x1="80.589" y1="153.113" x2="79.91" y2="154.132"/>
		
			<line style="clip-path:url(#SVGID_6_);fill:none;stroke:#000000;stroke-width:0;stroke-miterlimit:1;" x1="79.91" y1="154.132" x2="80.928" y2="155.489"/>
		
			<line style="clip-path:url(#SVGID_6_);fill:none;stroke:#000000;stroke-width:0;stroke-miterlimit:1;" x1="80.928" y1="155.489" x2="110.119" y2="154.471"/>
		
			<line style="clip-path:url(#SVGID_6_);fill:none;stroke:#000000;stroke-width:0;stroke-miterlimit:1;" x1="110.119" y1="154.471" x2="140.328" y2="155.829"/>
		
			<line style="clip-path:url(#SVGID_6_);fill:none;stroke:#000000;stroke-width:0;stroke-miterlimit:1;" x1="140.328" y1="155.829" x2="141.686" y2="154.471"/>
		
			<line style="clip-path:url(#SVGID_6_);fill:none;stroke:#000000;stroke-width:0;stroke-miterlimit:1;" x1="141.686" y1="154.471" x2="141.007" y2="152.773"/>
		
			<line style="clip-path:url(#SVGID_6_);fill:none;stroke:#000000;stroke-width:0;stroke-miterlimit:1;" x1="141.007" y1="152.773" x2="136.255" y2="152.773"/>
		
			<line style="clip-path:url(#SVGID_6_);fill:none;stroke:#000000;stroke-width:0;stroke-miterlimit:1;" x1="136.255" y1="152.773" x2="133.54" y2="150.397"/>
		
			<line style="clip-path:url(#SVGID_6_);fill:none;stroke:#000000;stroke-width:0;stroke-miterlimit:1;" x1="133.54" y1="150.397" x2="116.229" y2="150.059"/>
		
			<line style="clip-path:url(#SVGID_6_);fill:none;stroke:#000000;stroke-width:0;stroke-miterlimit:1;" x1="116.229" y1="150.059" x2="114.192" y2="148.7"/>
		
			<line style="clip-path:url(#SVGID_6_);fill:none;stroke:#000000;stroke-width:0;stroke-miterlimit:1;" x1="114.192" y1="148.7" x2="116.229" y2="127.316"/>
		
			<line style="clip-path:url(#SVGID_6_);fill:none;stroke:#000000;stroke-width:0;stroke-miterlimit:1;" x1="116.229" y1="127.316" x2="128.788" y2="133.766"/>
		
			<line style="clip-path:url(#SVGID_6_);fill:none;stroke:#000000;stroke-width:0;stroke-miterlimit:1;" x1="128.788" y1="133.766" x2="135.916" y2="112.722"/>
		
			<line style="clip-path:url(#SVGID_6_);fill:none;stroke:#000000;stroke-width:0;stroke-miterlimit:1;" x1="135.916" y1="112.722" x2="149.493" y2="146.664"/>
		
			<line style="clip-path:url(#SVGID_6_);fill:none;stroke:#000000;stroke-width:0;stroke-miterlimit:1;" x1="149.493" y1="146.664" x2="154.245" y2="152.773"/>
		
			<line style="clip-path:url(#SVGID_6_);fill:none;stroke:#000000;stroke-width:0;stroke-miterlimit:1;" x1="154.245" y1="152.773" x2="158.997" y2="155.489"/>
		
			<line style="clip-path:url(#SVGID_6_);fill:none;stroke:#000000;stroke-width:0;stroke-miterlimit:1;" x1="158.997" y1="155.489" x2="166.125" y2="155.489"/>
		
			<line style="clip-path:url(#SVGID_6_);fill:none;stroke:#000000;stroke-width:0;stroke-miterlimit:1;" x1="166.125" y1="155.489" x2="170.198" y2="154.132"/>
		
			<line style="clip-path:url(#SVGID_6_);fill:none;stroke:#000000;stroke-width:0;stroke-miterlimit:1;" x1="170.198" y1="154.132" x2="171.216" y2="152.095"/>
		
			<line style="clip-path:url(#SVGID_6_);fill:none;stroke:#000000;stroke-width:0;stroke-miterlimit:1;" x1="171.216" y1="152.095" x2="167.822" y2="142.931"/>
	</g>
	<g>
		<defs>
			<polygon id="SVGID_7_" points="45.257,343.183 403.806,343.183 403.806,0 45.257,0 45.257,343.183 			"/>
		</defs>
		<clipPath id="SVGID_8_">
			<use xlink:href="#SVGID_7_"  style="overflow:visible;"/>
		</clipPath>
		
			<line style="clip-path:url(#SVGID_8_);fill:none;stroke:#000000;stroke-width:0;stroke-miterlimit:1;" x1="83.644" y1="74.026" x2="88.056" y2="98.805"/>
		
			<line style="clip-path:url(#SVGID_8_);fill:none;stroke:#000000;stroke-width:0;stroke-miterlimit:1;" x1="88.056" y1="98.805" x2="87.717" y2="117.812"/>
		
			<line style="clip-path:url(#SVGID_8_);fill:none;stroke:#000000;stroke-width:0;stroke-miterlimit:1;" x1="87.717" y1="117.812" x2="84.322" y2="137.16"/>
		
			<line style="clip-path:url(#SVGID_8_);fill:none;stroke:#000000;stroke-width:0;stroke-miterlimit:1;" x1="84.322" y1="137.16" x2="81.268" y2="147.004"/>
		
			<line style="clip-path:url(#SVGID_8_);fill:none;stroke:#000000;stroke-width:0;stroke-miterlimit:1;" x1="81.268" y1="147.004" x2="79.231" y2="149.38"/>
		
			<line style="clip-path:url(#SVGID_8_);fill:none;stroke:#000000;stroke-width:0;stroke-miterlimit:1;" x1="79.231" y1="149.38" x2="62.938" y2="150.397"/>
		
			<line style="clip-path:url(#SVGID_8_);fill:none;stroke:#000000;stroke-width:0;stroke-miterlimit:1;" x1="62.938" y1="150.397" x2="61.241" y2="152.773"/>
		
			<line style="clip-path:url(#SVGID_8_);fill:none;stroke:#000000;stroke-width:0;stroke-miterlimit:1;" x1="61.241" y1="152.773" x2="57.507" y2="153.113"/>
		
			<line style="clip-path:url(#SVGID_8_);fill:none;stroke:#000000;stroke-width:0;stroke-miterlimit:1;" x1="57.507" y1="153.113" x2="56.15" y2="154.132"/>
		
			<line style="clip-path:url(#SVGID_8_);fill:none;stroke:#000000;stroke-width:0;stroke-miterlimit:1;" x1="56.15" y1="154.132" x2="57.507" y2="155.489"/>
		
			<line style="clip-path:url(#SVGID_8_);fill:none;stroke:#000000;stroke-width:0;stroke-miterlimit:1;" x1="57.507" y1="155.489" x2="70.066" y2="154.471"/>
		
			<line style="clip-path:url(#SVGID_8_);fill:none;stroke:#000000;stroke-width:0;stroke-miterlimit:1;" x1="70.066" y1="154.471" x2="73.8" y2="154.811"/>
	</g>
	<g>
		<defs>
			<polygon id="SVGID_9_" points="45.257,478.615 403.806,478.615 403.806,0 45.257,0 45.257,478.615 			"/>
		</defs>
		<clipPath id="SVGID_10_">
			<use xlink:href="#SVGID_9_"  style="overflow:visible;"/>
		</clipPath>
		
			<line style="clip-path:url(#SVGID_10_);fill:none;stroke:#000000;stroke-width:0;stroke-miterlimit:1;" x1="86.02" y1="150.737" x2="80.249" y2="151.416"/>
		
			<line style="clip-path:url(#SVGID_10_);fill:none;stroke:#000000;stroke-width:0;stroke-miterlimit:1;" x1="80.249" y1="151.416" x2="80.249" y2="151.416"/>
		
			<line style="clip-path:url(#SVGID_10_);fill:none;stroke:#000000;stroke-width:0;stroke-miterlimit:1;" x1="80.249" y1="151.416" x2="76.855" y2="152.095"/>
		
			<line style="clip-path:url(#SVGID_10_);fill:none;stroke:#000000;stroke-width:0;stroke-miterlimit:1;" x1="76.855" y1="152.095" x2="74.818" y2="154.811"/>
		
			<line style="clip-path:url(#SVGID_10_);fill:none;stroke:#000000;stroke-width:0;stroke-miterlimit:1;" x1="74.818" y1="154.811" x2="76.176" y2="155.489"/>
		
			<line style="clip-path:url(#SVGID_10_);fill:none;stroke:#000000;stroke-width:0;stroke-miterlimit:1;" x1="76.176" y1="155.489" x2="78.213" y2="153.453"/>
		
			<line style="clip-path:url(#SVGID_10_);fill:none;stroke:#000000;stroke-width:0;stroke-miterlimit:1;" x1="78.213" y1="153.453" x2="80.249" y2="153.113"/>
	</g>
	<g>
		<defs>
			<polygon id="SVGID_11_" points="45.257,478.615 403.806,478.615 403.806,0 45.257,0 45.257,478.615 			"/>
		</defs>
		<clipPath id="SVGID_12_">
			<use xlink:href="#SVGID_11_"  style="overflow:visible;"/>
		</clipPath>
		
			<line style="clip-path:url(#SVGID_12_);fill:none;stroke:#000000;stroke-width:0;stroke-miterlimit:1;" x1="85.68" y1="150.397" x2="93.147" y2="122.564"/>
		
			<line style="clip-path:url(#SVGID_12_);fill:none;stroke:#000000;stroke-width:0;stroke-miterlimit:1;" x1="93.147" y1="122.564" x2="104.688" y2="129.354"/>
		
			<line style="clip-path:url(#SVGID_12_);fill:none;stroke:#000000;stroke-width:0;stroke-miterlimit:1;" x1="104.688" y1="129.354" x2="107.064" y2="116.794"/>
	</g>
	<g>
		<defs>
			<polygon id="SVGID_13_" points="45.257,478.615 403.806,478.615 403.806,0 45.257,0 45.257,478.615 			"/>
		</defs>
		<clipPath id="SVGID_14_">
			<use xlink:href="#SVGID_13_"  style="overflow:visible;"/>
		</clipPath>
		
			<line style="clip-path:url(#SVGID_14_);fill:none;stroke:#000000;stroke-width:0;stroke-miterlimit:1;" x1="61.92" y1="150.737" x2="56.489" y2="151.416"/>
		
			<line style="clip-path:url(#SVGID_14_);fill:none;stroke:#000000;stroke-width:0;stroke-miterlimit:1;" x1="56.489" y1="151.416" x2="56.489" y2="151.416"/>
		
			<line style="clip-path:url(#SVGID_14_);fill:none;stroke:#000000;stroke-width:0;stroke-miterlimit:1;" x1="56.489" y1="151.416" x2="53.095" y2="152.095"/>
		
			<line style="clip-path:url(#SVGID_14_);fill:none;stroke:#000000;stroke-width:0;stroke-miterlimit:1;" x1="53.095" y1="152.095" x2="51.059" y2="154.811"/>
		
			<line style="clip-path:url(#SVGID_14_);fill:none;stroke:#000000;stroke-width:0;stroke-miterlimit:1;" x1="51.059" y1="154.811" x2="52.077" y2="155.489"/>
		
			<line style="clip-path:url(#SVGID_14_);fill:none;stroke:#000000;stroke-width:0;stroke-miterlimit:1;" x1="52.077" y1="155.489" x2="54.453" y2="153.453"/>
		
			<line style="clip-path:url(#SVGID_14_);fill:none;stroke:#000000;stroke-width:0;stroke-miterlimit:1;" x1="54.453" y1="153.453" x2="57.168" y2="153.113"/>
	</g>
	<g>
		<defs>
			<polygon id="SVGID_15_" points="45.257,478.615 403.806,478.615 403.806,0 45.257,0 45.257,478.615 			"/>
		</defs>
		<clipPath id="SVGID_16_">
			<use xlink:href="#SVGID_15_"  style="overflow:visible;"/>
		</clipPath>
		
			<line style="clip-path:url(#SVGID_16_);fill:none;stroke:#000000;stroke-width:0;stroke-miterlimit:1;" x1="134.218" y1="150.397" x2="140.667" y2="151.076"/>
		
			<line style="clip-path:url(#SVGID_16_);fill:none;stroke:#000000;stroke-width:0;stroke-miterlimit:1;" x1="140.667" y1="151.076" x2="143.722" y2="152.095"/>
		
			<line style="clip-path:url(#SVGID_16_);fill:none;stroke:#000000;stroke-width:0;stroke-miterlimit:1;" x1="143.722" y1="152.095" x2="145.759" y2="154.811"/>
		
			<line style="clip-path:url(#SVGID_16_);fill:none;stroke:#000000;stroke-width:0;stroke-miterlimit:1;" x1="145.759" y1="154.811" x2="144.741" y2="155.489"/>
		
			<line style="clip-path:url(#SVGID_16_);fill:none;stroke:#000000;stroke-width:0;stroke-miterlimit:1;" x1="144.741" y1="155.489" x2="142.365" y2="153.453"/>
		
			<line style="clip-path:url(#SVGID_16_);fill:none;stroke:#000000;stroke-width:0;stroke-miterlimit:1;" x1="142.365" y1="153.453" x2="140.667" y2="153.113"/>
	</g>
	<g>
		<defs>
			<polygon id="SVGID_17_" points="45.257,478.615 524.222,478.615 524.222,0 45.257,0 45.257,478.615 			"/>
		</defs>
		<clipPath id="SVGID_18_">
			<use xlink:href="#SVGID_17_"  style="overflow:visible;"/>
		</clipPath>
		
			<line style="clip-path:url(#SVGID_18_);fill:none;stroke:#000000;stroke-width:0;stroke-miterlimit:1;" x1="204.554" y1="30.79" x2="149.337" y2="30.79"/>
		
			<line style="clip-path:url(#SVGID_18_);fill:none;stroke:#000000;stroke-width:0;stroke-miterlimit:1;" x1="149.337" y1="30.79" x2="150.039" y2="26.11"/>
		
			<line style="clip-path:url(#SVGID_18_);fill:none;stroke:#000000;stroke-width:0;stroke-miterlimit:1;" x1="150.039" y1="26.11" x2="150.741" y2="23.069"/>
		
			<line style="clip-path:url(#SVGID_18_);fill:none;stroke:#000000;stroke-width:0;stroke-miterlimit:1;" x1="150.741" y1="23.069" x2="151.911" y2="20.027"/>
		
			<line style="clip-path:url(#SVGID_18_);fill:none;stroke:#000000;stroke-width:0;stroke-miterlimit:1;" x1="151.911" y1="20.027" x2="153.548" y2="17.688"/>
		
			<line style="clip-path:url(#SVGID_18_);fill:none;stroke:#000000;stroke-width:0;stroke-miterlimit:1;" x1="153.548" y1="17.688" x2="154.952" y2="15.582"/>
		
			<line style="clip-path:url(#SVGID_18_);fill:none;stroke:#000000;stroke-width:0;stroke-miterlimit:1;" x1="154.952" y1="15.582" x2="156.824" y2="13.008"/>
		
			<line style="clip-path:url(#SVGID_18_);fill:none;stroke:#000000;stroke-width:0;stroke-miterlimit:1;" x1="156.824" y1="13.008" x2="158.93" y2="11.137"/>
		
			<line style="clip-path:url(#SVGID_18_);fill:none;stroke:#000000;stroke-width:0;stroke-miterlimit:1;" x1="158.93" y1="11.137" x2="161.503" y2="9.265"/>
		
			<line style="clip-path:url(#SVGID_18_);fill:none;stroke:#000000;stroke-width:0;stroke-miterlimit:1;" x1="161.503" y1="9.265" x2="163.609" y2="7.861"/>
		
			<line style="clip-path:url(#SVGID_18_);fill:none;stroke:#000000;stroke-width:0;stroke-miterlimit:1;" x1="163.609" y1="7.861" x2="166.651" y2="6.457"/>
		
			<line style="clip-path:url(#SVGID_18_);fill:none;stroke:#000000;stroke-width:0;stroke-miterlimit:1;" x1="166.651" y1="6.457" x2="169.692" y2="5.521"/>
		
			<line style="clip-path:url(#SVGID_18_);fill:none;stroke:#000000;stroke-width:0;stroke-miterlimit:1;" x1="169.692" y1="5.521" x2="171.798" y2="5.053"/>
		
			<line style="clip-path:url(#SVGID_18_);fill:none;stroke:#000000;stroke-width:0;stroke-miterlimit:1;" x1="171.798" y1="5.053" x2="175.542" y2="4.585"/>
		
			<line style="clip-path:url(#SVGID_18_);fill:none;stroke:#000000;stroke-width:0;stroke-miterlimit:1;" x1="175.542" y1="4.585" x2="178.349" y2="4.585"/>
		
			<line style="clip-path:url(#SVGID_18_);fill:none;stroke:#000000;stroke-width:0;stroke-miterlimit:1;" x1="178.349" y1="4.585" x2="180.923" y2="5.053"/>
		
			<line style="clip-path:url(#SVGID_18_);fill:none;stroke:#000000;stroke-width:0;stroke-miterlimit:1;" x1="180.923" y1="5.053" x2="183.73" y2="5.521"/>
		
			<line style="clip-path:url(#SVGID_18_);fill:none;stroke:#000000;stroke-width:0;stroke-miterlimit:1;" x1="183.73" y1="5.521" x2="186.772" y2="6.223"/>
		
			<line style="clip-path:url(#SVGID_18_);fill:none;stroke:#000000;stroke-width:0;stroke-miterlimit:1;" x1="186.772" y1="6.223" x2="188.878" y2="6.925"/>
		
			<line style="clip-path:url(#SVGID_18_);fill:none;stroke:#000000;stroke-width:0;stroke-miterlimit:1;" x1="188.878" y1="6.925" x2="191.686" y2="8.797"/>
		
			<line style="clip-path:url(#SVGID_18_);fill:none;stroke:#000000;stroke-width:0;stroke-miterlimit:1;" x1="191.686" y1="8.797" x2="194.025" y2="10.435"/>
		
			<line style="clip-path:url(#SVGID_18_);fill:none;stroke:#000000;stroke-width:0;stroke-miterlimit:1;" x1="194.025" y1="10.435" x2="196.131" y2="12.072"/>
		
			<line style="clip-path:url(#SVGID_18_);fill:none;stroke:#000000;stroke-width:0;stroke-miterlimit:1;" x1="196.131" y1="12.072" x2="198.003" y2="14.412"/>
		
			<line style="clip-path:url(#SVGID_18_);fill:none;stroke:#000000;stroke-width:0;stroke-miterlimit:1;" x1="198.003" y1="14.412" x2="199.875" y2="16.986"/>
		
			<line style="clip-path:url(#SVGID_18_);fill:none;stroke:#000000;stroke-width:0;stroke-miterlimit:1;" x1="199.875" y1="16.986" x2="201.513" y2="19.56"/>
		
			<line style="clip-path:url(#SVGID_18_);fill:none;stroke:#000000;stroke-width:0;stroke-miterlimit:1;" x1="201.513" y1="19.56" x2="202.683" y2="21.899"/>
		
			<line style="clip-path:url(#SVGID_18_);fill:none;stroke:#000000;stroke-width:0;stroke-miterlimit:1;" x1="202.683" y1="21.899" x2="203.618" y2="25.409"/>
		
			<line style="clip-path:url(#SVGID_18_);fill:none;stroke:#000000;stroke-width:0;stroke-miterlimit:1;" x1="203.618" y1="25.409" x2="204.32" y2="27.982"/>
		
			<line style="clip-path:url(#SVGID_18_);fill:none;stroke:#000000;stroke-width:0;stroke-miterlimit:1;" x1="204.32" y1="27.982" x2="204.554" y2="30.79"/>
	</g>
	<g>
		<defs>
			<polygon id="SVGID_19_" points="45.257,478.615 524.222,478.615 524.222,0 45.257,0 45.257,478.615 			"/>
		</defs>
		<clipPath id="SVGID_20_">
			<use xlink:href="#SVGID_19_"  style="overflow:visible;"/>
		</clipPath>
		
			<line style="clip-path:url(#SVGID_20_);fill:none;stroke:#000000;stroke-width:0;stroke-miterlimit:1;" x1="362.742" y1="78.739" x2="330.902" y2="81.209"/>
		
			<line style="clip-path:url(#SVGID_20_);fill:none;stroke:#000000;stroke-width:0;stroke-miterlimit:1;" x1="330.902" y1="81.209" x2="308.458" y2="60.936"/>
		
			<line style="clip-path:url(#SVGID_20_);fill:none;stroke:#000000;stroke-width:0;stroke-miterlimit:1;" x1="308.458" y1="60.936" x2="306.75" y2="60.656"/>
		
			<line style="clip-path:url(#SVGID_20_);fill:none;stroke:#000000;stroke-width:0;stroke-miterlimit:1;" x1="306.75" y1="60.656" x2="305.101" y2="62.072"/>
		
			<line style="clip-path:url(#SVGID_20_);fill:none;stroke:#000000;stroke-width:0;stroke-miterlimit:1;" x1="305.101" y1="62.072" x2="305.16" y2="63.768"/>
		
			<line style="clip-path:url(#SVGID_20_);fill:none;stroke:#000000;stroke-width:0;stroke-miterlimit:1;" x1="305.16" y1="63.768" x2="320.351" y2="80.559"/>
		
			<line style="clip-path:url(#SVGID_20_);fill:none;stroke:#000000;stroke-width:0;stroke-miterlimit:1;" x1="320.351" y1="80.559" x2="312.583" y2="81.849"/>
		
			<line style="clip-path:url(#SVGID_20_);fill:none;stroke:#000000;stroke-width:0;stroke-miterlimit:1;" x1="312.583" y1="81.849" x2="296.957" y2="81.716"/>
		
			<line style="clip-path:url(#SVGID_20_);fill:none;stroke:#000000;stroke-width:0;stroke-miterlimit:1;" x1="296.957" y1="81.716" x2="277.608" y2="82.052"/>
		
			<line style="clip-path:url(#SVGID_20_);fill:none;stroke:#000000;stroke-width:0;stroke-miterlimit:1;" x1="277.608" y1="82.052" x2="275.175" y2="80.438"/>
		
			<line style="clip-path:url(#SVGID_20_);fill:none;stroke:#000000;stroke-width:0;stroke-miterlimit:1;" x1="275.175" y1="80.438" x2="262.06" y2="74.443"/>
		
			<line style="clip-path:url(#SVGID_20_);fill:none;stroke:#000000;stroke-width:0;stroke-miterlimit:1;" x1="262.06" y1="74.443" x2="249.859" y2="75.209"/>
		
			<line style="clip-path:url(#SVGID_20_);fill:none;stroke:#000000;stroke-width:0;stroke-miterlimit:1;" x1="249.859" y1="75.209" x2="240.129" y2="78.605"/>
		
			<line style="clip-path:url(#SVGID_20_);fill:none;stroke:#000000;stroke-width:0;stroke-miterlimit:1;" x1="240.129" y1="78.605" x2="235.438" y2="80.467"/>
		
			<line style="clip-path:url(#SVGID_20_);fill:none;stroke:#000000;stroke-width:0;stroke-miterlimit:1;" x1="235.438" y1="80.467" x2="235.135" y2="81.497"/>
		
			<line style="clip-path:url(#SVGID_20_);fill:none;stroke:#000000;stroke-width:0;stroke-miterlimit:1;" x1="235.135" y1="81.497" x2="235.183" y2="82.854"/>
		
			<line style="clip-path:url(#SVGID_20_);fill:none;stroke:#000000;stroke-width:0;stroke-miterlimit:1;" x1="235.183" y1="82.854" x2="236.61" y2="84.842"/>
		
			<line style="clip-path:url(#SVGID_20_);fill:none;stroke:#000000;stroke-width:0;stroke-miterlimit:1;" x1="236.61" y1="84.842" x2="251.418" y2="80.929"/>
		
			<line style="clip-path:url(#SVGID_20_);fill:none;stroke:#000000;stroke-width:0;stroke-miterlimit:1;" x1="251.418" y1="80.929" x2="261.957" y2="81.239"/>
		
			<line style="clip-path:url(#SVGID_20_);fill:none;stroke:#000000;stroke-width:0;stroke-miterlimit:1;" x1="261.957" y1="81.239" x2="267.188" y2="85.133"/>
		
			<line style="clip-path:url(#SVGID_20_);fill:none;stroke:#000000;stroke-width:0;stroke-miterlimit:1;" x1="267.188" y1="85.133" x2="267.622" y2="87.834"/>
		
			<line style="clip-path:url(#SVGID_20_);fill:none;stroke:#000000;stroke-width:0;stroke-miterlimit:1;" x1="267.622" y1="87.834" x2="259.003" y2="93.909"/>
		
			<line style="clip-path:url(#SVGID_20_);fill:none;stroke:#000000;stroke-width:0;stroke-miterlimit:1;" x1="259.003" y1="93.909" x2="240.358" y2="94.9"/>
		
			<line style="clip-path:url(#SVGID_20_);fill:none;stroke:#000000;stroke-width:0;stroke-miterlimit:1;" x1="240.358" y1="94.9" x2="232.461" y2="92.459"/>
		
			<line style="clip-path:url(#SVGID_20_);fill:none;stroke:#000000;stroke-width:0;stroke-miterlimit:1;" x1="232.461" y1="92.459" x2="224.446" y2="86.625"/>
		
			<line style="clip-path:url(#SVGID_20_);fill:none;stroke:#000000;stroke-width:0;stroke-miterlimit:1;" x1="224.446" y1="86.625" x2="217.247" y2="74.989"/>
		
			<line style="clip-path:url(#SVGID_20_);fill:none;stroke:#000000;stroke-width:0;stroke-miterlimit:1;" x1="217.247" y1="74.989" x2="215.539" y2="74.709"/>
		
			<line style="clip-path:url(#SVGID_20_);fill:none;stroke:#000000;stroke-width:0;stroke-miterlimit:1;" x1="215.539" y1="74.709" x2="213.188" y2="75.471"/>
		
			<line style="clip-path:url(#SVGID_20_);fill:none;stroke:#000000;stroke-width:0;stroke-miterlimit:1;" x1="213.188" y1="75.471" x2="212.593" y2="77.869"/>
		
			<line style="clip-path:url(#SVGID_20_);fill:none;stroke:#000000;stroke-width:0;stroke-miterlimit:1;" x1="212.593" y1="77.869" x2="215.192" y2="84.231"/>
		
			<line style="clip-path:url(#SVGID_20_);fill:none;stroke:#000000;stroke-width:0;stroke-miterlimit:1;" x1="215.192" y1="84.231" x2="219.148" y2="90.546"/>
		
			<line style="clip-path:url(#SVGID_20_);fill:none;stroke:#000000;stroke-width:0;stroke-miterlimit:1;" x1="219.148" y1="90.546" x2="227.89" y2="97.713"/>
		
			<line style="clip-path:url(#SVGID_20_);fill:none;stroke:#000000;stroke-width:0;stroke-miterlimit:1;" x1="227.89" y1="97.713" x2="236.536" y2="102.166"/>
		
			<line style="clip-path:url(#SVGID_20_);fill:none;stroke:#000000;stroke-width:0;stroke-miterlimit:1;" x1="236.536" y1="102.166" x2="257.24" y2="101.782"/>
		
			<line style="clip-path:url(#SVGID_20_);fill:none;stroke:#000000;stroke-width:0;stroke-miterlimit:1;" x1="257.24" y1="101.782" x2="266.947" y2="97.707"/>
		
			<line style="clip-path:url(#SVGID_20_);fill:none;stroke:#000000;stroke-width:0;stroke-miterlimit:1;" x1="266.947" y1="97.707" x2="276.572" y2="91.258"/>
		
			<line style="clip-path:url(#SVGID_20_);fill:none;stroke:#000000;stroke-width:0;stroke-miterlimit:1;" x1="276.572" y1="91.258" x2="287.111" y2="91.569"/>
		
			<line style="clip-path:url(#SVGID_20_);fill:none;stroke:#000000;stroke-width:0;stroke-miterlimit:1;" x1="287.111" y1="91.569" x2="299.99" y2="90.779"/>
		
			<line style="clip-path:url(#SVGID_20_);fill:none;stroke:#000000;stroke-width:0;stroke-miterlimit:1;" x1="299.99" y1="90.779" x2="320.634" y2="88.7"/>
		
			<line style="clip-path:url(#SVGID_20_);fill:none;stroke:#000000;stroke-width:0;stroke-miterlimit:1;" x1="320.634" y1="88.7" x2="321.689" y2="89.683"/>
		
			<line style="clip-path:url(#SVGID_20_);fill:none;stroke:#000000;stroke-width:0;stroke-miterlimit:1;" x1="321.689" y1="89.683" x2="307.378" y2="107.843"/>
		
			<line style="clip-path:url(#SVGID_20_);fill:none;stroke:#000000;stroke-width:0;stroke-miterlimit:1;" x1="307.378" y1="107.843" x2="306.093" y2="109.926"/>
		
			<line style="clip-path:url(#SVGID_20_);fill:none;stroke:#000000;stroke-width:0;stroke-miterlimit:1;" x1="306.093" y1="109.926" x2="307.146" y2="110.908"/>
		
			<line style="clip-path:url(#SVGID_20_);fill:none;stroke:#000000;stroke-width:0;stroke-miterlimit:1;" x1="307.146" y1="110.908" x2="309.205" y2="111.516"/>
		
			<line style="clip-path:url(#SVGID_20_);fill:none;stroke:#000000;stroke-width:0;stroke-miterlimit:1;" x1="309.205" y1="111.516" x2="311.896" y2="110.742"/>
		
			<line style="clip-path:url(#SVGID_20_);fill:none;stroke:#000000;stroke-width:0;stroke-miterlimit:1;" x1="311.896" y1="110.742" x2="323.039" y2="99.146"/>
		
			<line style="clip-path:url(#SVGID_20_);fill:none;stroke:#000000;stroke-width:0;stroke-miterlimit:1;" x1="323.039" y1="99.146" x2="327.257" y2="93.563"/>
		
			<line style="clip-path:url(#SVGID_20_);fill:none;stroke:#000000;stroke-width:0;stroke-miterlimit:1;" x1="327.257" y1="93.563" x2="331.49" y2="88.321"/>
		
			<line style="clip-path:url(#SVGID_20_);fill:none;stroke:#000000;stroke-width:0;stroke-miterlimit:1;" x1="331.49" y1="88.321" x2="362.466" y2="90.296"/>
		
			<line style="clip-path:url(#SVGID_20_);fill:none;stroke:#000000;stroke-width:0;stroke-miterlimit:1;" x1="362.466" y1="90.296" x2="364.126" y2="89.22"/>
		
			<line style="clip-path:url(#SVGID_20_);fill:none;stroke:#000000;stroke-width:0;stroke-miterlimit:1;" x1="364.126" y1="89.22" x2="365.074" y2="87.148"/>
		
			<line style="clip-path:url(#SVGID_20_);fill:none;stroke:#000000;stroke-width:0;stroke-miterlimit:1;" x1="365.074" y1="87.148" x2="365.681" y2="85.09"/>
		
			<line style="clip-path:url(#SVGID_20_);fill:none;stroke:#000000;stroke-width:0;stroke-miterlimit:1;" x1="365.681" y1="85.09" x2="365.646" y2="84.072"/>
		
			<line style="clip-path:url(#SVGID_20_);fill:none;stroke:#000000;stroke-width:0;stroke-miterlimit:1;" x1="365.646" y1="84.072" x2="365.259" y2="82.727"/>
		
			<line style="clip-path:url(#SVGID_20_);fill:none;stroke:#000000;stroke-width:0;stroke-miterlimit:1;" x1="365.259" y1="82.727" x2="364.498" y2="80.376"/>
		
			<line style="clip-path:url(#SVGID_20_);fill:none;stroke:#000000;stroke-width:0;stroke-miterlimit:1;" x1="364.498" y1="80.376" x2="363.445" y2="79.394"/>
		
			<line style="clip-path:url(#SVGID_20_);fill:none;stroke:#000000;stroke-width:0;stroke-miterlimit:1;" x1="363.445" y1="79.394" x2="362.414" y2="79.09"/>
	</g>
	<g>
		<defs>
			<polygon id="SVGID_21_" points="45.257,478.615 524.222,478.615 524.222,0 45.257,0 45.257,478.615 			"/>
		</defs>
		<clipPath id="SVGID_22_">
			<use xlink:href="#SVGID_21_"  style="overflow:visible;"/>
		</clipPath>
		
			<line style="clip-path:url(#SVGID_22_);fill:none;stroke:#000000;stroke-width:0;stroke-miterlimit:1;" x1="34.282" y1="133.087" x2="30.209" y2="127.995"/>
		
			<line style="clip-path:url(#SVGID_22_);fill:none;stroke:#000000;stroke-width:0;stroke-miterlimit:1;" x1="30.209" y1="127.995" x2="25.118" y2="122.904"/>
		
			<line style="clip-path:url(#SVGID_22_);fill:none;stroke:#000000;stroke-width:0;stroke-miterlimit:1;" x1="25.118" y1="122.904" x2="21.044" y2="118.491"/>
		
			<line style="clip-path:url(#SVGID_22_);fill:none;stroke:#000000;stroke-width:0;stroke-miterlimit:1;" x1="21.044" y1="118.491" x2="16.632" y2="113.739"/>
		
			<line style="clip-path:url(#SVGID_22_);fill:none;stroke:#000000;stroke-width:0;stroke-miterlimit:1;" x1="16.632" y1="113.739" x2="11.201" y2="108.309"/>
		
			<line style="clip-path:url(#SVGID_22_);fill:none;stroke:#000000;stroke-width:0;stroke-miterlimit:1;" x1="11.201" y1="108.309" x2="5.771" y2="104.235"/>
		
			<line style="clip-path:url(#SVGID_22_);fill:none;stroke:#000000;stroke-width:0;stroke-miterlimit:1;" x1="5.771" y1="104.235" x2="0" y2="100.162"/>
		
			<line style="clip-path:url(#SVGID_22_);fill:none;stroke:#000000;stroke-width:0;stroke-miterlimit:1;" x1="0" y1="100.162" x2="10.862" y2="3.086"/>
		
			<line style="clip-path:url(#SVGID_22_);fill:none;stroke:#000000;stroke-width:0;stroke-miterlimit:1;" x1="10.862" y1="3.086" x2="14.256" y2="4.104"/>
		
			<line style="clip-path:url(#SVGID_22_);fill:none;stroke:#000000;stroke-width:0;stroke-miterlimit:1;" x1="14.256" y1="4.104" x2="17.99" y2="5.801"/>
		
			<line style="clip-path:url(#SVGID_22_);fill:none;stroke:#000000;stroke-width:0;stroke-miterlimit:1;" x1="17.99" y1="5.801" x2="21.044" y2="8.177"/>
		
			<line style="clip-path:url(#SVGID_22_);fill:none;stroke:#000000;stroke-width:0;stroke-miterlimit:1;" x1="21.044" y1="8.177" x2="24.1" y2="11.911"/>
		
			<line style="clip-path:url(#SVGID_22_);fill:none;stroke:#000000;stroke-width:0;stroke-miterlimit:1;" x1="24.1" y1="11.911" x2="26.815" y2="16.323"/>
		
			<line style="clip-path:url(#SVGID_22_);fill:none;stroke:#000000;stroke-width:0;stroke-miterlimit:1;" x1="26.815" y1="16.323" x2="28.173" y2="21.076"/>
		
			<line style="clip-path:url(#SVGID_22_);fill:none;stroke:#000000;stroke-width:0;stroke-miterlimit:1;" x1="28.173" y1="21.076" x2="29.191" y2="25.148"/>
		
			<line style="clip-path:url(#SVGID_22_);fill:none;stroke:#000000;stroke-width:0;stroke-miterlimit:1;" x1="29.191" y1="25.148" x2="30.209" y2="30.58"/>
		
			<line style="clip-path:url(#SVGID_22_);fill:none;stroke:#000000;stroke-width:0;stroke-miterlimit:1;" x1="30.209" y1="30.58" x2="34.961" y2="155.489"/>
		
			<line style="clip-path:url(#SVGID_22_);fill:none;stroke:#000000;stroke-width:0;stroke-miterlimit:1;" x1="34.961" y1="155.489" x2="28.512" y2="155.829"/>
		
			<line style="clip-path:url(#SVGID_22_);fill:none;stroke:#000000;stroke-width:0;stroke-miterlimit:1;" x1="28.512" y1="155.829" x2="29.87" y2="127.656"/>
	</g>
</g>
</svg>
