<?xml version="1.0" encoding="iso-8859-1"?>
<!-- Generator: Adobe Illustrator 16.0.1, SVG Export Plug-In . SVG Version: 6.00 Build 0)  -->
<!DOCTYPE svg PUBLIC "-//W3C//DTD SVG 1.1//EN" "http://www.w3.org/Graphics/SVG/1.1/DTD/svg11.dtd">
<svg version="1.1" id="Ebene_1" xmlns="http://www.w3.org/2000/svg" xmlns:xlink="http://www.w3.org/1999/xlink" x="0px" y="0px"
	 width="565.385px" height="543.826px" viewBox="0 0 565.385 543.826" style="enable-background:new 0 0 565.385 543.826;"
	 xml:space="preserve">
<g>
	<g>
		<defs>
			<polygon id="SVGID_1_" points="33.943,396.514 359.518,396.514 359.518,0 33.943,0 33.943,396.514 			"/>
		</defs>
		<clipPath id="SVGID_2_">
			<use xlink:href="#SVGID_1_"  style="overflow:visible;"/>
		</clipPath>
		
			<line style="clip-path:url(#SVGID_2_);fill:none;stroke:#000000;stroke-width:0;stroke-miterlimit:1;" x1="37.029" y1="3.085" x2="44.157" y2="3.085"/>
		
			<line style="clip-path:url(#SVGID_2_);fill:none;stroke:#000000;stroke-width:0;stroke-miterlimit:1;" x1="44.157" y1="3.085" x2="44.157" y2="155.829"/>
		
			<line style="clip-path:url(#SVGID_2_);fill:none;stroke:#000000;stroke-width:0;stroke-miterlimit:1;" x1="44.157" y1="155.829" x2="37.029" y2="155.829"/>
		
			<line style="clip-path:url(#SVGID_2_);fill:none;stroke:#000000;stroke-width:0;stroke-miterlimit:1;" x1="37.029" y1="155.829" x2="37.029" y2="3.085"/>
	</g>
	<g>
		<defs>
			<polygon id="SVGID_3_" points="0,396.514 359.518,396.514 359.518,0 0,0 0,396.514 			"/>
		</defs>
		<clipPath id="SVGID_4_">
			<use xlink:href="#SVGID_3_"  style="overflow:visible;"/>
		</clipPath>
		
			<line style="clip-path:url(#SVGID_4_);fill:none;stroke:#000000;stroke-width:0;stroke-miterlimit:1;" x1="37.029" y1="12.589" x2="3.086" y2="12.589"/>
		
			<line style="clip-path:url(#SVGID_4_);fill:none;stroke:#000000;stroke-width:0;stroke-miterlimit:1;" x1="3.086" y1="12.589" x2="3.086" y2="19.039"/>
		
			<line style="clip-path:url(#SVGID_4_);fill:none;stroke:#000000;stroke-width:0;stroke-miterlimit:1;" x1="3.086" y1="19.039" x2="37.029" y2="19.039"/>
	</g>
	<g>
		<defs>
			<polygon id="SVGID_5_" points="0,396.514 359.518,396.514 359.518,0 0,0 0,396.514 			"/>
		</defs>
		<clipPath id="SVGID_6_">
			<use xlink:href="#SVGID_5_"  style="overflow:visible;"/>
		</clipPath>
		
			<line style="clip-path:url(#SVGID_6_);fill:none;stroke:#000000;stroke-width:0;stroke-miterlimit:1;" x1="37.029" y1="29.222" x2="3.086" y2="29.222"/>
		
			<line style="clip-path:url(#SVGID_6_);fill:none;stroke:#000000;stroke-width:0;stroke-miterlimit:1;" x1="3.086" y1="29.222" x2="3.086" y2="35.671"/>
		
			<line style="clip-path:url(#SVGID_6_);fill:none;stroke:#000000;stroke-width:0;stroke-miterlimit:1;" x1="3.086" y1="35.671" x2="37.029" y2="35.671"/>
	</g>
	<g>
		<defs>
			<polygon id="SVGID_7_" points="0,396.514 359.518,396.514 359.518,0 0,0 0,396.514 			"/>
		</defs>
		<clipPath id="SVGID_8_">
			<use xlink:href="#SVGID_7_"  style="overflow:visible;"/>
		</clipPath>
		
			<line style="clip-path:url(#SVGID_8_);fill:none;stroke:#000000;stroke-width:0;stroke-miterlimit:1;" x1="37.029" y1="112.381" x2="10.553" y2="112.381"/>
		
			<line style="clip-path:url(#SVGID_8_);fill:none;stroke:#000000;stroke-width:0;stroke-miterlimit:1;" x1="10.553" y1="112.381" x2="37.029" y2="155.829"/>
	</g>
	<g>
		<defs>
			<polygon id="SVGID_9_" points="0,435.209 359.518,435.209 359.518,0 0,0 0,435.209 			"/>
		</defs>
		<clipPath id="SVGID_10_">
			<use xlink:href="#SVGID_9_"  style="overflow:visible;"/>
		</clipPath>
		
			<line style="clip-path:url(#SVGID_10_);fill:none;stroke:#000000;stroke-width:0;stroke-miterlimit:1;" x1="36.689" y1="112.381" x2="24.47" y2="85.227"/>
		
			<line style="clip-path:url(#SVGID_10_);fill:none;stroke:#000000;stroke-width:0;stroke-miterlimit:1;" x1="24.47" y1="85.227" x2="18.36" y2="85.227"/>
		
			<line style="clip-path:url(#SVGID_10_);fill:none;stroke:#000000;stroke-width:0;stroke-miterlimit:1;" x1="18.36" y1="85.227" x2="31.258" y2="112.381"/>
	</g>
	<g>
		<defs>
			<polygon id="SVGID_11_" points="0,435.209 359.518,435.209 359.518,0 0,0 0,435.209 			"/>
		</defs>
		<clipPath id="SVGID_12_">
			<use xlink:href="#SVGID_11_"  style="overflow:visible;"/>
		</clipPath>
		
			<line style="clip-path:url(#SVGID_12_);fill:none;stroke:#000000;stroke-width:0;stroke-miterlimit:1;" x1="24.13" y1="112.381" x2="10.893" y2="85.227"/>
		
			<line style="clip-path:url(#SVGID_12_);fill:none;stroke:#000000;stroke-width:0;stroke-miterlimit:1;" x1="10.893" y1="85.227" x2="4.783" y2="85.227"/>
		
			<line style="clip-path:url(#SVGID_12_);fill:none;stroke:#000000;stroke-width:0;stroke-miterlimit:1;" x1="4.783" y1="85.227" x2="17.002" y2="112.381"/>
	</g>
	<g>
		<defs>
			<polygon id="SVGID_13_" points="0,435.209 359.518,435.209 359.518,0 0,0 0,435.209 			"/>
		</defs>
		<clipPath id="SVGID_14_">
			<use xlink:href="#SVGID_13_"  style="overflow:visible;"/>
		</clipPath>
		
			<line style="clip-path:url(#SVGID_14_);fill:none;stroke:#000000;stroke-width:0;stroke-miterlimit:1;" x1="131.308" y1="42.459" x2="130.289" y2="47.211"/>
		
			<line style="clip-path:url(#SVGID_14_);fill:none;stroke:#000000;stroke-width:0;stroke-miterlimit:1;" x1="130.289" y1="47.211" x2="126.216" y2="48.909"/>
		
			<line style="clip-path:url(#SVGID_14_);fill:none;stroke:#000000;stroke-width:0;stroke-miterlimit:1;" x1="126.216" y1="48.909" x2="122.482" y2="52.303"/>
		
			<line style="clip-path:url(#SVGID_14_);fill:none;stroke:#000000;stroke-width:0;stroke-miterlimit:1;" x1="122.482" y1="52.303" x2="121.464" y2="55.357"/>
		
			<line style="clip-path:url(#SVGID_14_);fill:none;stroke:#000000;stroke-width:0;stroke-miterlimit:1;" x1="121.464" y1="55.357" x2="121.803" y2="58.752"/>
		
			<line style="clip-path:url(#SVGID_14_);fill:none;stroke:#000000;stroke-width:0;stroke-miterlimit:1;" x1="121.803" y1="58.752" x2="124.18" y2="63.165"/>
		
			<line style="clip-path:url(#SVGID_14_);fill:none;stroke:#000000;stroke-width:0;stroke-miterlimit:1;" x1="124.18" y1="63.165" x2="128.932" y2="69.953"/>
		
			<line style="clip-path:url(#SVGID_14_);fill:none;stroke:#000000;stroke-width:0;stroke-miterlimit:1;" x1="128.932" y1="69.953" x2="137.078" y2="78.099"/>
		
			<line style="clip-path:url(#SVGID_14_);fill:none;stroke:#000000;stroke-width:0;stroke-miterlimit:1;" x1="137.078" y1="78.099" x2="159.141" y2="91.676"/>
		
			<line style="clip-path:url(#SVGID_14_);fill:none;stroke:#000000;stroke-width:0;stroke-miterlimit:1;" x1="159.141" y1="91.676" x2="171.021" y2="98.125"/>
		
			<line style="clip-path:url(#SVGID_14_);fill:none;stroke:#000000;stroke-width:0;stroke-miterlimit:1;" x1="171.021" y1="98.125" x2="180.864" y2="102.199"/>
		
			<line style="clip-path:url(#SVGID_14_);fill:none;stroke:#000000;stroke-width:0;stroke-miterlimit:1;" x1="180.864" y1="102.199" x2="186.634" y2="105.932"/>
		
			<line style="clip-path:url(#SVGID_14_);fill:none;stroke:#000000;stroke-width:0;stroke-miterlimit:1;" x1="186.634" y1="105.932" x2="190.368" y2="108.308"/>
		
			<line style="clip-path:url(#SVGID_14_);fill:none;stroke:#000000;stroke-width:0;stroke-miterlimit:1;" x1="190.368" y1="108.308" x2="198.175" y2="116.455"/>
		
			<line style="clip-path:url(#SVGID_14_);fill:none;stroke:#000000;stroke-width:0;stroke-miterlimit:1;" x1="198.175" y1="116.455" x2="199.193" y2="116.794"/>
		
			<line style="clip-path:url(#SVGID_14_);fill:none;stroke:#000000;stroke-width:0;stroke-miterlimit:1;" x1="199.193" y1="116.794" x2="199.193" y2="112.721"/>
		
			<line style="clip-path:url(#SVGID_14_);fill:none;stroke:#000000;stroke-width:0;stroke-miterlimit:1;" x1="199.193" y1="112.721" x2="195.799" y2="99.483"/>
		
			<line style="clip-path:url(#SVGID_14_);fill:none;stroke:#000000;stroke-width:0;stroke-miterlimit:1;" x1="195.799" y1="99.483" x2="191.047" y2="79.118"/>
		
			<line style="clip-path:url(#SVGID_14_);fill:none;stroke:#000000;stroke-width:0;stroke-miterlimit:1;" x1="191.047" y1="79.118" x2="186.295" y2="61.807"/>
		
			<line style="clip-path:url(#SVGID_14_);fill:none;stroke:#000000;stroke-width:0;stroke-miterlimit:1;" x1="186.295" y1="61.807" x2="180.525" y2="47.551"/>
		
			<line style="clip-path:url(#SVGID_14_);fill:none;stroke:#000000;stroke-width:0;stroke-miterlimit:1;" x1="180.525" y1="47.551" x2="174.754" y2="37.708"/>
		
			<line style="clip-path:url(#SVGID_14_);fill:none;stroke:#000000;stroke-width:0;stroke-miterlimit:1;" x1="174.754" y1="37.708" x2="170.341" y2="31.258"/>
		
			<line style="clip-path:url(#SVGID_14_);fill:none;stroke:#000000;stroke-width:0;stroke-miterlimit:1;" x1="170.341" y1="31.258" x2="164.571" y2="26.506"/>
		
			<line style="clip-path:url(#SVGID_14_);fill:none;stroke:#000000;stroke-width:0;stroke-miterlimit:1;" x1="164.571" y1="26.506" x2="160.499" y2="24.13"/>
		
			<line style="clip-path:url(#SVGID_14_);fill:none;stroke:#000000;stroke-width:0;stroke-miterlimit:1;" x1="160.499" y1="24.13" x2="153.71" y2="22.772"/>
		
			<line style="clip-path:url(#SVGID_14_);fill:none;stroke:#000000;stroke-width:0;stroke-miterlimit:1;" x1="153.71" y1="22.772" x2="148.618" y2="23.112"/>
		
			<line style="clip-path:url(#SVGID_14_);fill:none;stroke:#000000;stroke-width:0;stroke-miterlimit:1;" x1="148.618" y1="23.112" x2="143.527" y2="25.148"/>
		
			<line style="clip-path:url(#SVGID_14_);fill:none;stroke:#000000;stroke-width:0;stroke-miterlimit:1;" x1="143.527" y1="25.148" x2="130.289" y2="36.01"/>
		
			<line style="clip-path:url(#SVGID_14_);fill:none;stroke:#000000;stroke-width:0;stroke-miterlimit:1;" x1="130.289" y1="36.01" x2="124.858" y2="40.083"/>
		
			<line style="clip-path:url(#SVGID_14_);fill:none;stroke:#000000;stroke-width:0;stroke-miterlimit:1;" x1="124.858" y1="40.083" x2="121.803" y2="41.102"/>
		
			<line style="clip-path:url(#SVGID_14_);fill:none;stroke:#000000;stroke-width:0;stroke-miterlimit:1;" x1="121.803" y1="41.102" x2="119.088" y2="40.423"/>
		
			<line style="clip-path:url(#SVGID_14_);fill:none;stroke:#000000;stroke-width:0;stroke-miterlimit:1;" x1="119.088" y1="40.423" x2="118.07" y2="37.368"/>
		
			<line style="clip-path:url(#SVGID_14_);fill:none;stroke:#000000;stroke-width:0;stroke-miterlimit:1;" x1="118.07" y1="37.368" x2="119.427" y2="32.955"/>
		
			<line style="clip-path:url(#SVGID_14_);fill:none;stroke:#000000;stroke-width:0;stroke-miterlimit:1;" x1="119.427" y1="32.955" x2="123.5" y2="27.185"/>
		
			<line style="clip-path:url(#SVGID_14_);fill:none;stroke:#000000;stroke-width:0;stroke-miterlimit:1;" x1="123.5" y1="27.185" x2="127.913" y2="21.075"/>
		
			<line style="clip-path:url(#SVGID_14_);fill:none;stroke:#000000;stroke-width:0;stroke-miterlimit:1;" x1="127.913" y1="21.075" x2="129.271" y2="15.645"/>
		
			<line style="clip-path:url(#SVGID_14_);fill:none;stroke:#000000;stroke-width:0;stroke-miterlimit:1;" x1="129.271" y1="15.645" x2="129.61" y2="10.553"/>
		
			<line style="clip-path:url(#SVGID_14_);fill:none;stroke:#000000;stroke-width:0;stroke-miterlimit:1;" x1="129.61" y1="10.553" x2="127.913" y2="6.819"/>
		
			<line style="clip-path:url(#SVGID_14_);fill:none;stroke:#000000;stroke-width:0;stroke-miterlimit:1;" x1="127.913" y1="6.819" x2="124.519" y2="4.104"/>
		
			<line style="clip-path:url(#SVGID_14_);fill:none;stroke:#000000;stroke-width:0;stroke-miterlimit:1;" x1="124.519" y1="4.104" x2="120.446" y2="2.746"/>
		
			<line style="clip-path:url(#SVGID_14_);fill:none;stroke:#000000;stroke-width:0;stroke-miterlimit:1;" x1="120.446" y1="2.746" x2="117.051" y2="3.425"/>
		
			<line style="clip-path:url(#SVGID_14_);fill:none;stroke:#000000;stroke-width:0;stroke-miterlimit:1;" x1="117.051" y1="3.425" x2="112.979" y2="4.783"/>
		
			<line style="clip-path:url(#SVGID_14_);fill:none;stroke:#000000;stroke-width:0;stroke-miterlimit:1;" x1="112.979" y1="4.783" x2="110.263" y2="6.48"/>
		
			<line style="clip-path:url(#SVGID_14_);fill:none;stroke:#000000;stroke-width:0;stroke-miterlimit:1;" x1="110.263" y1="6.48" x2="108.566" y2="7.837"/>
		
			<line style="clip-path:url(#SVGID_14_);fill:none;stroke:#000000;stroke-width:0;stroke-miterlimit:1;" x1="108.566" y1="7.837" x2="107.208" y2="9.874"/>
		
			<line style="clip-path:url(#SVGID_14_);fill:none;stroke:#000000;stroke-width:0;stroke-miterlimit:1;" x1="107.208" y1="9.874" x2="105.85" y2="13.269"/>
		
			<line style="clip-path:url(#SVGID_14_);fill:none;stroke:#000000;stroke-width:0;stroke-miterlimit:1;" x1="105.85" y1="13.269" x2="106.529" y2="17.002"/>
		
			<line style="clip-path:url(#SVGID_14_);fill:none;stroke:#000000;stroke-width:0;stroke-miterlimit:1;" x1="106.529" y1="17.002" x2="108.227" y2="18.36"/>
		
			<line style="clip-path:url(#SVGID_14_);fill:none;stroke:#000000;stroke-width:0;stroke-miterlimit:1;" x1="108.227" y1="18.36" x2="109.584" y2="19.718"/>
		
			<line style="clip-path:url(#SVGID_14_);fill:none;stroke:#000000;stroke-width:0;stroke-miterlimit:1;" x1="109.584" y1="19.718" x2="110.942" y2="21.415"/>
		
			<line style="clip-path:url(#SVGID_14_);fill:none;stroke:#000000;stroke-width:0;stroke-miterlimit:1;" x1="110.942" y1="21.415" x2="111.281" y2="23.451"/>
		
			<line style="clip-path:url(#SVGID_14_);fill:none;stroke:#000000;stroke-width:0;stroke-miterlimit:1;" x1="111.281" y1="23.451" x2="111.281" y2="26.506"/>
		
			<line style="clip-path:url(#SVGID_14_);fill:none;stroke:#000000;stroke-width:0;stroke-miterlimit:1;" x1="111.281" y1="26.506" x2="102.117" y2="42.799"/>
		
			<line style="clip-path:url(#SVGID_14_);fill:none;stroke:#000000;stroke-width:0;stroke-miterlimit:1;" x1="102.117" y1="42.799" x2="100.759" y2="48.229"/>
		
			<line style="clip-path:url(#SVGID_14_);fill:none;stroke:#000000;stroke-width:0;stroke-miterlimit:1;" x1="100.759" y1="48.229" x2="100.759" y2="53.321"/>
		
			<line style="clip-path:url(#SVGID_14_);fill:none;stroke:#000000;stroke-width:0;stroke-miterlimit:1;" x1="100.759" y1="53.321" x2="102.456" y2="58.413"/>
		
			<line style="clip-path:url(#SVGID_14_);fill:none;stroke:#000000;stroke-width:0;stroke-miterlimit:1;" x1="102.456" y1="58.413" x2="105.85" y2="61.807"/>
		
			<line style="clip-path:url(#SVGID_14_);fill:none;stroke:#000000;stroke-width:0;stroke-miterlimit:1;" x1="105.85" y1="61.807" x2="118.409" y2="69.953"/>
		
			<line style="clip-path:url(#SVGID_14_);fill:none;stroke:#000000;stroke-width:0;stroke-miterlimit:1;" x1="118.409" y1="69.953" x2="120.785" y2="73.347"/>
		
			<line style="clip-path:url(#SVGID_14_);fill:none;stroke:#000000;stroke-width:0;stroke-miterlimit:1;" x1="120.785" y1="73.347" x2="130.289" y2="85.567"/>
		
			<line style="clip-path:url(#SVGID_14_);fill:none;stroke:#000000;stroke-width:0;stroke-miterlimit:1;" x1="130.289" y1="85.567" x2="133.344" y2="89.3"/>
		
			<line style="clip-path:url(#SVGID_14_);fill:none;stroke:#000000;stroke-width:0;stroke-miterlimit:1;" x1="133.344" y1="89.3" x2="137.417" y2="93.034"/>
		
			<line style="clip-path:url(#SVGID_14_);fill:none;stroke:#000000;stroke-width:0;stroke-miterlimit:1;" x1="137.417" y1="93.034" x2="148.279" y2="98.125"/>
		
			<line style="clip-path:url(#SVGID_14_);fill:none;stroke:#000000;stroke-width:0;stroke-miterlimit:1;" x1="148.279" y1="98.125" x2="149.637" y2="98.465"/>
		
			<line style="clip-path:url(#SVGID_14_);fill:none;stroke:#000000;stroke-width:0;stroke-miterlimit:1;" x1="149.637" y1="98.465" x2="151.334" y2="103.217"/>
		
			<line style="clip-path:url(#SVGID_14_);fill:none;stroke:#000000;stroke-width:0;stroke-miterlimit:1;" x1="151.334" y1="103.217" x2="158.462" y2="114.079"/>
		
			<line style="clip-path:url(#SVGID_14_);fill:none;stroke:#000000;stroke-width:0;stroke-miterlimit:1;" x1="158.462" y1="114.079" x2="159.819" y2="116.455"/>
		
			<line style="clip-path:url(#SVGID_14_);fill:none;stroke:#000000;stroke-width:0;stroke-miterlimit:1;" x1="159.819" y1="116.455" x2="160.499" y2="119.17"/>
		
			<line style="clip-path:url(#SVGID_14_);fill:none;stroke:#000000;stroke-width:0;stroke-miterlimit:1;" x1="160.499" y1="119.17" x2="163.553" y2="143.949"/>
		
			<line style="clip-path:url(#SVGID_14_);fill:none;stroke:#000000;stroke-width:0;stroke-miterlimit:1;" x1="163.553" y1="143.949" x2="163.214" y2="146.664"/>
		
			<line style="clip-path:url(#SVGID_14_);fill:none;stroke:#000000;stroke-width:0;stroke-miterlimit:1;" x1="163.214" y1="146.664" x2="162.535" y2="148.022"/>
		
			<line style="clip-path:url(#SVGID_14_);fill:none;stroke:#000000;stroke-width:0;stroke-miterlimit:1;" x1="162.535" y1="148.022" x2="160.499" y2="148.361"/>
		
			<line style="clip-path:url(#SVGID_14_);fill:none;stroke:#000000;stroke-width:0;stroke-miterlimit:1;" x1="160.499" y1="148.361" x2="148.279" y2="149.379"/>
		
			<line style="clip-path:url(#SVGID_14_);fill:none;stroke:#000000;stroke-width:0;stroke-miterlimit:1;" x1="148.279" y1="149.379" x2="140.812" y2="150.058"/>
		
			<line style="clip-path:url(#SVGID_14_);fill:none;stroke:#000000;stroke-width:0;stroke-miterlimit:1;" x1="140.812" y1="150.058" x2="138.775" y2="151.416"/>
		
			<line style="clip-path:url(#SVGID_14_);fill:none;stroke:#000000;stroke-width:0;stroke-miterlimit:1;" x1="138.775" y1="151.416" x2="138.436" y2="153.792"/>
		
			<line style="clip-path:url(#SVGID_14_);fill:none;stroke:#000000;stroke-width:0;stroke-miterlimit:1;" x1="138.436" y1="153.792" x2="140.133" y2="155.15"/>
	</g>
	<g>
		<defs>
			<polygon id="SVGID_15_" points="0,435.209 359.518,435.209 359.518,0 0,0 0,435.209 			"/>
		</defs>
		<clipPath id="SVGID_16_">
			<use xlink:href="#SVGID_15_"  style="overflow:visible;"/>
		</clipPath>
		
			<line style="clip-path:url(#SVGID_16_);fill:none;stroke:#000000;stroke-width:0;stroke-miterlimit:1;" x1="140.133" y1="150.398" x2="137.078" y2="151.416"/>
		
			<line style="clip-path:url(#SVGID_16_);fill:none;stroke:#000000;stroke-width:0;stroke-miterlimit:1;" x1="137.078" y1="151.416" x2="136.06" y2="152.774"/>
		
			<line style="clip-path:url(#SVGID_16_);fill:none;stroke:#000000;stroke-width:0;stroke-miterlimit:1;" x1="136.06" y1="152.774" x2="135.38" y2="155.15"/>
		
			<line style="clip-path:url(#SVGID_16_);fill:none;stroke:#000000;stroke-width:0;stroke-miterlimit:1;" x1="135.38" y1="155.15" x2="138.436" y2="154.131"/>
	</g>
	<g>
		<defs>
			<polygon id="SVGID_17_" points="0,543.826 565.385,543.826 565.385,0 0,0 0,543.826 			"/>
		</defs>
		<clipPath id="SVGID_18_">
			<use xlink:href="#SVGID_17_"  style="overflow:visible;"/>
		</clipPath>
		
			<line style="clip-path:url(#SVGID_18_);fill:none;stroke:#000000;stroke-width:0;stroke-miterlimit:1;" x1="145.903" y1="151.416" x2="142.848" y2="151.755"/>
		
			<line style="clip-path:url(#SVGID_18_);fill:none;stroke:#000000;stroke-width:0;stroke-miterlimit:1;" x1="142.848" y1="151.755" x2="141.49" y2="153.453"/>
		
			<line style="clip-path:url(#SVGID_18_);fill:none;stroke:#000000;stroke-width:0;stroke-miterlimit:1;" x1="141.49" y1="153.453" x2="141.151" y2="154.81"/>
		
			<line style="clip-path:url(#SVGID_18_);fill:none;stroke:#000000;stroke-width:0;stroke-miterlimit:1;" x1="141.151" y1="154.81" x2="144.206" y2="154.471"/>
	</g>
	<g>
		<defs>
			<polygon id="SVGID_19_" points="0,543.826 565.385,543.826 565.385,0 0,0 0,543.826 			"/>
		</defs>
		<clipPath id="SVGID_20_">
			<use xlink:href="#SVGID_19_"  style="overflow:visible;"/>
		</clipPath>
		
			<line style="clip-path:url(#SVGID_20_);fill:none;stroke:#000000;stroke-width:0;stroke-miterlimit:1;" x1="153.71" y1="150.058" x2="147.939" y2="150.737"/>
		
			<line style="clip-path:url(#SVGID_20_);fill:none;stroke:#000000;stroke-width:0;stroke-miterlimit:1;" x1="147.939" y1="150.737" x2="144.545" y2="152.094"/>
		
			<line style="clip-path:url(#SVGID_20_);fill:none;stroke:#000000;stroke-width:0;stroke-miterlimit:1;" x1="144.545" y1="152.094" x2="144.545" y2="154.131"/>
		
			<line style="clip-path:url(#SVGID_20_);fill:none;stroke:#000000;stroke-width:0;stroke-miterlimit:1;" x1="144.545" y1="154.131" x2="146.242" y2="155.15"/>
		
			<line style="clip-path:url(#SVGID_20_);fill:none;stroke:#000000;stroke-width:0;stroke-miterlimit:1;" x1="146.242" y1="155.15" x2="149.976" y2="154.81"/>
		
			<line style="clip-path:url(#SVGID_20_);fill:none;stroke:#000000;stroke-width:0;stroke-miterlimit:1;" x1="149.976" y1="154.81" x2="165.25" y2="153.453"/>
		
			<line style="clip-path:url(#SVGID_20_);fill:none;stroke:#000000;stroke-width:0;stroke-miterlimit:1;" x1="165.25" y1="153.453" x2="177.13" y2="155.15"/>
		
			<line style="clip-path:url(#SVGID_20_);fill:none;stroke:#000000;stroke-width:0;stroke-miterlimit:1;" x1="177.13" y1="155.15" x2="178.828" y2="154.81"/>
		
			<line style="clip-path:url(#SVGID_20_);fill:none;stroke:#000000;stroke-width:0;stroke-miterlimit:1;" x1="178.828" y1="154.81" x2="178.828" y2="152.774"/>
		
			<line style="clip-path:url(#SVGID_20_);fill:none;stroke:#000000;stroke-width:0;stroke-miterlimit:1;" x1="178.828" y1="152.774" x2="178.149" y2="151.077"/>
		
			<line style="clip-path:url(#SVGID_20_);fill:none;stroke:#000000;stroke-width:0;stroke-miterlimit:1;" x1="178.149" y1="151.077" x2="170.002" y2="149.04"/>
		
			<line style="clip-path:url(#SVGID_20_);fill:none;stroke:#000000;stroke-width:0;stroke-miterlimit:1;" x1="170.002" y1="149.04" x2="168.984" y2="148.022"/>
		
			<line style="clip-path:url(#SVGID_20_);fill:none;stroke:#000000;stroke-width:0;stroke-miterlimit:1;" x1="168.984" y1="148.022" x2="166.948" y2="124.601"/>
		
			<line style="clip-path:url(#SVGID_20_);fill:none;stroke:#000000;stroke-width:0;stroke-miterlimit:1;" x1="166.948" y1="124.601" x2="167.287" y2="120.188"/>
		
			<line style="clip-path:url(#SVGID_20_);fill:none;stroke:#000000;stroke-width:0;stroke-miterlimit:1;" x1="167.287" y1="120.188" x2="166.269" y2="116.794"/>
		
			<line style="clip-path:url(#SVGID_20_);fill:none;stroke:#000000;stroke-width:0;stroke-miterlimit:1;" x1="166.269" y1="116.794" x2="164.232" y2="111.024"/>
		
			<line style="clip-path:url(#SVGID_20_);fill:none;stroke:#000000;stroke-width:0;stroke-miterlimit:1;" x1="164.232" y1="111.024" x2="163.214" y2="98.804"/>
	</g>
	<g>
		<defs>
			<polygon id="SVGID_21_" points="0,543.826 565.385,543.826 565.385,0 0,0 0,543.826 			"/>
		</defs>
		<clipPath id="SVGID_22_">
			<use xlink:href="#SVGID_21_"  style="overflow:visible;"/>
		</clipPath>
		
			<line style="clip-path:url(#SVGID_22_);fill:none;stroke:#000000;stroke-width:0;stroke-miterlimit:1;" x1="163.553" y1="102.539" x2="170.341" y2="104.235"/>
		
			<line style="clip-path:url(#SVGID_22_);fill:none;stroke:#000000;stroke-width:0;stroke-miterlimit:1;" x1="170.341" y1="104.235" x2="179.167" y2="105.253"/>
		
			<line style="clip-path:url(#SVGID_22_);fill:none;stroke:#000000;stroke-width:0;stroke-miterlimit:1;" x1="179.167" y1="105.253" x2="185.616" y2="105.253"/>
	</g>
	<g>
		<defs>
			<polygon id="SVGID_23_" points="0,543.826 565.385,543.826 565.385,0 0,0 0,543.826 			"/>
		</defs>
		<clipPath id="SVGID_24_">
			<use xlink:href="#SVGID_23_"  style="overflow:visible;"/>
		</clipPath>
		
			<line style="clip-path:url(#SVGID_24_);fill:none;stroke:#000000;stroke-width:0;stroke-miterlimit:1;" x1="178.828" y1="151.755" x2="180.864" y2="152.094"/>
		
			<line style="clip-path:url(#SVGID_24_);fill:none;stroke:#000000;stroke-width:0;stroke-miterlimit:1;" x1="180.864" y1="152.094" x2="182.222" y2="153.453"/>
		
			<line style="clip-path:url(#SVGID_24_);fill:none;stroke:#000000;stroke-width:0;stroke-miterlimit:1;" x1="182.222" y1="153.453" x2="182.561" y2="154.81"/>
		
			<line style="clip-path:url(#SVGID_24_);fill:none;stroke:#000000;stroke-width:0;stroke-miterlimit:1;" x1="182.561" y1="154.81" x2="179.167" y2="154.131"/>
	</g>
	<g>
		<defs>
			<polygon id="SVGID_25_" points="0,543.826 565.385,543.826 565.385,0 0,0 0,543.826 			"/>
		</defs>
		<clipPath id="SVGID_26_">
			<use xlink:href="#SVGID_25_"  style="overflow:visible;"/>
		</clipPath>
		
			<line style="clip-path:url(#SVGID_26_);fill:none;stroke:#000000;stroke-width:0;stroke-miterlimit:1;" x1="136.399" y1="92.355" x2="139.454" y2="114.079"/>
		
			<line style="clip-path:url(#SVGID_26_);fill:none;stroke:#000000;stroke-width:0;stroke-miterlimit:1;" x1="139.454" y1="114.079" x2="138.775" y2="117.133"/>
		
			<line style="clip-path:url(#SVGID_26_);fill:none;stroke:#000000;stroke-width:0;stroke-miterlimit:1;" x1="138.775" y1="117.133" x2="122.822" y2="146.325"/>
		
			<line style="clip-path:url(#SVGID_26_);fill:none;stroke:#000000;stroke-width:0;stroke-miterlimit:1;" x1="122.822" y1="146.325" x2="121.803" y2="147.682"/>
		
			<line style="clip-path:url(#SVGID_26_);fill:none;stroke:#000000;stroke-width:0;stroke-miterlimit:1;" x1="121.803" y1="147.682" x2="120.106" y2="148.022"/>
		
			<line style="clip-path:url(#SVGID_26_);fill:none;stroke:#000000;stroke-width:0;stroke-miterlimit:1;" x1="120.106" y1="148.022" x2="99.741" y2="150.058"/>
		
			<line style="clip-path:url(#SVGID_26_);fill:none;stroke:#000000;stroke-width:0;stroke-miterlimit:1;" x1="99.741" y1="150.058" x2="98.383" y2="150.737"/>
		
			<line style="clip-path:url(#SVGID_26_);fill:none;stroke:#000000;stroke-width:0;stroke-miterlimit:1;" x1="98.383" y1="150.737" x2="98.043" y2="151.416"/>
		
			<line style="clip-path:url(#SVGID_26_);fill:none;stroke:#000000;stroke-width:0;stroke-miterlimit:1;" x1="98.043" y1="151.416" x2="96.346" y2="151.755"/>
		
			<line style="clip-path:url(#SVGID_26_);fill:none;stroke:#000000;stroke-width:0;stroke-miterlimit:1;" x1="96.346" y1="151.755" x2="94.989" y2="152.434"/>
		
			<line style="clip-path:url(#SVGID_26_);fill:none;stroke:#000000;stroke-width:0;stroke-miterlimit:1;" x1="94.989" y1="152.434" x2="94.649" y2="154.131"/>
		
			<line style="clip-path:url(#SVGID_26_);fill:none;stroke:#000000;stroke-width:0;stroke-miterlimit:1;" x1="94.649" y1="154.131" x2="94.31" y2="155.489"/>
		
			<line style="clip-path:url(#SVGID_26_);fill:none;stroke:#000000;stroke-width:0;stroke-miterlimit:1;" x1="94.31" y1="155.489" x2="97.025" y2="153.453"/>
		
			<line style="clip-path:url(#SVGID_26_);fill:none;stroke:#000000;stroke-width:0;stroke-miterlimit:1;" x1="97.025" y1="153.453" x2="98.043" y2="154.81"/>
		
			<line style="clip-path:url(#SVGID_26_);fill:none;stroke:#000000;stroke-width:0;stroke-miterlimit:1;" x1="98.043" y1="154.81" x2="100.419" y2="154.81"/>
	</g>
	<g>
		<defs>
			<polygon id="SVGID_27_" points="0,543.826 565.385,543.826 565.385,0 0,0 0,543.826 			"/>
		</defs>
		<clipPath id="SVGID_28_">
			<use xlink:href="#SVGID_27_"  style="overflow:visible;"/>
		</clipPath>
		
			<line style="clip-path:url(#SVGID_28_);fill:none;stroke:#000000;stroke-width:0;stroke-miterlimit:1;" x1="104.153" y1="151.755" x2="101.438" y2="152.434"/>
		
			<line style="clip-path:url(#SVGID_28_);fill:none;stroke:#000000;stroke-width:0;stroke-miterlimit:1;" x1="101.438" y1="152.434" x2="100.759" y2="153.792"/>
		
			<line style="clip-path:url(#SVGID_28_);fill:none;stroke:#000000;stroke-width:0;stroke-miterlimit:1;" x1="100.759" y1="153.792" x2="101.098" y2="155.15"/>
		
			<line style="clip-path:url(#SVGID_28_);fill:none;stroke:#000000;stroke-width:0;stroke-miterlimit:1;" x1="101.098" y1="155.15" x2="104.493" y2="154.131"/>
	</g>
	<g>
		<defs>
			<polygon id="SVGID_29_" points="0,543.826 565.385,543.826 565.385,0 0,0 0,543.826 			"/>
		</defs>
		<clipPath id="SVGID_30_">
			<use xlink:href="#SVGID_29_"  style="overflow:visible;"/>
		</clipPath>
		
			<line style="clip-path:url(#SVGID_30_);fill:none;stroke:#000000;stroke-width:0;stroke-miterlimit:1;" x1="115.354" y1="150.058" x2="107.208" y2="151.416"/>
		
			<line style="clip-path:url(#SVGID_30_);fill:none;stroke:#000000;stroke-width:0;stroke-miterlimit:1;" x1="107.208" y1="151.416" x2="104.493" y2="151.755"/>
		
			<line style="clip-path:url(#SVGID_30_);fill:none;stroke:#000000;stroke-width:0;stroke-miterlimit:1;" x1="104.493" y1="151.755" x2="104.493" y2="154.131"/>
		
			<line style="clip-path:url(#SVGID_30_);fill:none;stroke:#000000;stroke-width:0;stroke-miterlimit:1;" x1="104.493" y1="154.131" x2="105.85" y2="155.15"/>
		
			<line style="clip-path:url(#SVGID_30_);fill:none;stroke:#000000;stroke-width:0;stroke-miterlimit:1;" x1="105.85" y1="155.15" x2="119.427" y2="153.792"/>
		
			<line style="clip-path:url(#SVGID_30_);fill:none;stroke:#000000;stroke-width:0;stroke-miterlimit:1;" x1="119.427" y1="153.792" x2="123.84" y2="153.113"/>
		
			<line style="clip-path:url(#SVGID_30_);fill:none;stroke:#000000;stroke-width:0;stroke-miterlimit:1;" x1="123.84" y1="153.113" x2="131.647" y2="154.471"/>
		
			<line style="clip-path:url(#SVGID_30_);fill:none;stroke:#000000;stroke-width:0;stroke-miterlimit:1;" x1="131.647" y1="154.471" x2="135.041" y2="155.15"/>
	</g>
	<g>
		<defs>
			<polygon id="SVGID_31_" points="0,543.826 565.385,543.826 565.385,0 0,0 0,543.826 			"/>
		</defs>
		<clipPath id="SVGID_32_">
			<use xlink:href="#SVGID_31_"  style="overflow:visible;"/>
		</clipPath>
		
			<line style="clip-path:url(#SVGID_32_);fill:none;stroke:#000000;stroke-width:0;stroke-miterlimit:1;" x1="136.399" y1="151.416" x2="129.61" y2="149.718"/>
		
			<line style="clip-path:url(#SVGID_32_);fill:none;stroke:#000000;stroke-width:0;stroke-miterlimit:1;" x1="129.61" y1="149.718" x2="128.932" y2="148.701"/>
		
			<line style="clip-path:url(#SVGID_32_);fill:none;stroke:#000000;stroke-width:0;stroke-miterlimit:1;" x1="128.932" y1="148.701" x2="128.932" y2="147.003"/>
		
			<line style="clip-path:url(#SVGID_32_);fill:none;stroke:#000000;stroke-width:0;stroke-miterlimit:1;" x1="128.932" y1="147.003" x2="140.812" y2="125.62"/>
		
			<line style="clip-path:url(#SVGID_32_);fill:none;stroke:#000000;stroke-width:0;stroke-miterlimit:1;" x1="140.812" y1="125.62" x2="142.509" y2="123.583"/>
		
			<line style="clip-path:url(#SVGID_32_);fill:none;stroke:#000000;stroke-width:0;stroke-miterlimit:1;" x1="142.509" y1="123.583" x2="144.206" y2="120.188"/>
		
			<line style="clip-path:url(#SVGID_32_);fill:none;stroke:#000000;stroke-width:0;stroke-miterlimit:1;" x1="144.206" y1="120.188" x2="144.885" y2="116.794"/>
		
			<line style="clip-path:url(#SVGID_32_);fill:none;stroke:#000000;stroke-width:0;stroke-miterlimit:1;" x1="144.885" y1="116.794" x2="151.334" y2="102.877"/>
	</g>
	<g>
		<defs>
			<polygon id="SVGID_33_" points="0,543.826 565.385,543.826 565.385,0 0,0 0,543.826 			"/>
		</defs>
		<clipPath id="SVGID_34_">
			<use xlink:href="#SVGID_33_"  style="overflow:visible;"/>
		</clipPath>
		
			<line style="clip-path:url(#SVGID_34_);fill:none;stroke:#000000;stroke-width:0;stroke-miterlimit:1;" x1="107.208" y1="9.195" x2="94.31" y2="11.571"/>
		
			<line style="clip-path:url(#SVGID_34_);fill:none;stroke:#000000;stroke-width:0;stroke-miterlimit:1;" x1="94.31" y1="11.571" x2="91.594" y2="12.929"/>
		
			<line style="clip-path:url(#SVGID_34_);fill:none;stroke:#000000;stroke-width:0;stroke-miterlimit:1;" x1="91.594" y1="12.929" x2="89.218" y2="15.305"/>
		
			<line style="clip-path:url(#SVGID_34_);fill:none;stroke:#000000;stroke-width:0;stroke-miterlimit:1;" x1="89.218" y1="15.305" x2="87.182" y2="19.718"/>
		
			<line style="clip-path:url(#SVGID_34_);fill:none;stroke:#000000;stroke-width:0;stroke-miterlimit:1;" x1="87.182" y1="19.718" x2="89.558" y2="18.36"/>
		
			<line style="clip-path:url(#SVGID_34_);fill:none;stroke:#000000;stroke-width:0;stroke-miterlimit:1;" x1="89.558" y1="18.36" x2="93.292" y2="16.323"/>
		
			<line style="clip-path:url(#SVGID_34_);fill:none;stroke:#000000;stroke-width:0;stroke-miterlimit:1;" x1="93.292" y1="16.323" x2="98.383" y2="14.965"/>
		
			<line style="clip-path:url(#SVGID_34_);fill:none;stroke:#000000;stroke-width:0;stroke-miterlimit:1;" x1="98.383" y1="14.965" x2="101.777" y2="14.965"/>
		
			<line style="clip-path:url(#SVGID_34_);fill:none;stroke:#000000;stroke-width:0;stroke-miterlimit:1;" x1="101.777" y1="14.965" x2="105.85" y2="14.287"/>
	</g>
	<g>
		<defs>
			<polygon id="SVGID_35_" points="0,543.826 565.385,543.826 565.385,0 0,0 0,543.826 			"/>
		</defs>
		<clipPath id="SVGID_36_">
			<use xlink:href="#SVGID_35_"  style="overflow:visible;"/>
		</clipPath>
		
			<line style="clip-path:url(#SVGID_36_);fill:none;stroke:#000000;stroke-width:0;stroke-miterlimit:1;" x1="88.2" y1="19.378" x2="93.292" y2="18.699"/>
		
			<line style="clip-path:url(#SVGID_36_);fill:none;stroke:#000000;stroke-width:0;stroke-miterlimit:1;" x1="93.292" y1="18.699" x2="98.722" y2="18.36"/>
		
			<line style="clip-path:url(#SVGID_36_);fill:none;stroke:#000000;stroke-width:0;stroke-miterlimit:1;" x1="98.722" y1="18.36" x2="102.795" y2="19.039"/>
		
			<line style="clip-path:url(#SVGID_36_);fill:none;stroke:#000000;stroke-width:0;stroke-miterlimit:1;" x1="102.795" y1="19.039" x2="106.19" y2="18.699"/>
		
			<line style="clip-path:url(#SVGID_36_);fill:none;stroke:#000000;stroke-width:0;stroke-miterlimit:1;" x1="106.19" y1="18.699" x2="107.887" y2="18.699"/>
	</g>
	<g>
		<defs>
			<polygon id="SVGID_37_" points="0,543.826 565.385,543.826 565.385,0 0,0 0,543.826 			"/>
		</defs>
		<clipPath id="SVGID_38_">
			<use xlink:href="#SVGID_37_"  style="overflow:visible;"/>
		</clipPath>
		
			<line style="clip-path:url(#SVGID_38_);fill:none;stroke:#000000;stroke-width:0;stroke-miterlimit:1;" x1="113.318" y1="10.553" x2="113.997" y2="12.589"/>
		
			<line style="clip-path:url(#SVGID_38_);fill:none;stroke:#000000;stroke-width:0;stroke-miterlimit:1;" x1="113.997" y1="12.589" x2="115.015" y2="12.929"/>
		
			<line style="clip-path:url(#SVGID_38_);fill:none;stroke:#000000;stroke-width:0;stroke-miterlimit:1;" x1="115.015" y1="12.929" x2="116.373" y2="12.929"/>
		
			<line style="clip-path:url(#SVGID_38_);fill:none;stroke:#000000;stroke-width:0;stroke-miterlimit:1;" x1="116.373" y1="12.929" x2="117.391" y2="11.911"/>
		
			<line style="clip-path:url(#SVGID_38_);fill:none;stroke:#000000;stroke-width:0;stroke-miterlimit:1;" x1="117.391" y1="11.911" x2="117.391" y2="10.553"/>
		
			<line style="clip-path:url(#SVGID_38_);fill:none;stroke:#000000;stroke-width:0;stroke-miterlimit:1;" x1="117.391" y1="10.553" x2="116.712" y2="9.535"/>
		
			<line style="clip-path:url(#SVGID_38_);fill:none;stroke:#000000;stroke-width:0;stroke-miterlimit:1;" x1="116.712" y1="9.535" x2="115.694" y2="9.195"/>
		
			<line style="clip-path:url(#SVGID_38_);fill:none;stroke:#000000;stroke-width:0;stroke-miterlimit:1;" x1="115.694" y1="9.195" x2="114.336" y2="9.535"/>
		
			<line style="clip-path:url(#SVGID_38_);fill:none;stroke:#000000;stroke-width:0;stroke-miterlimit:1;" x1="114.336" y1="9.535" x2="113.318" y2="10.893"/>
	</g>
	<g>
		<defs>
			<polygon id="SVGID_39_" points="0,543.826 565.385,543.826 565.385,0 0,0 0,543.826 			"/>
		</defs>
		<clipPath id="SVGID_40_">
			<use xlink:href="#SVGID_39_"  style="overflow:visible;"/>
		</clipPath>
		
			<line style="clip-path:url(#SVGID_40_);fill:none;stroke:#000000;stroke-width:0;stroke-miterlimit:1;" x1="101.438" y1="43.478" x2="97.365" y2="46.532"/>
		
			<line style="clip-path:url(#SVGID_40_);fill:none;stroke:#000000;stroke-width:0;stroke-miterlimit:1;" x1="97.365" y1="46.532" x2="93.97" y2="50.945"/>
		
			<line style="clip-path:url(#SVGID_40_);fill:none;stroke:#000000;stroke-width:0;stroke-miterlimit:1;" x1="93.97" y1="50.945" x2="93.292" y2="55.697"/>
		
			<line style="clip-path:url(#SVGID_40_);fill:none;stroke:#000000;stroke-width:0;stroke-miterlimit:1;" x1="93.292" y1="55.697" x2="93.292" y2="58.752"/>
		
			<line style="clip-path:url(#SVGID_40_);fill:none;stroke:#000000;stroke-width:0;stroke-miterlimit:1;" x1="93.292" y1="58.752" x2="93.97" y2="63.843"/>
		
			<line style="clip-path:url(#SVGID_40_);fill:none;stroke:#000000;stroke-width:0;stroke-miterlimit:1;" x1="93.97" y1="63.843" x2="93.631" y2="67.917"/>
		
			<line style="clip-path:url(#SVGID_40_);fill:none;stroke:#000000;stroke-width:0;stroke-miterlimit:1;" x1="93.631" y1="67.917" x2="91.255" y2="71.99"/>
		
			<line style="clip-path:url(#SVGID_40_);fill:none;stroke:#000000;stroke-width:0;stroke-miterlimit:1;" x1="91.255" y1="71.99" x2="88.54" y2="73.347"/>
		
			<line style="clip-path:url(#SVGID_40_);fill:none;stroke:#000000;stroke-width:0;stroke-miterlimit:1;" x1="88.54" y1="73.347" x2="85.824" y2="73.347"/>
		
			<line style="clip-path:url(#SVGID_40_);fill:none;stroke:#000000;stroke-width:0;stroke-miterlimit:1;" x1="85.824" y1="73.347" x2="83.788" y2="71.99"/>
		
			<line style="clip-path:url(#SVGID_40_);fill:none;stroke:#000000;stroke-width:0;stroke-miterlimit:1;" x1="83.788" y1="71.99" x2="83.108" y2="69.953"/>
		
			<line style="clip-path:url(#SVGID_40_);fill:none;stroke:#000000;stroke-width:0;stroke-miterlimit:1;" x1="83.108" y1="69.953" x2="82.43" y2="66.898"/>
		
			<line style="clip-path:url(#SVGID_40_);fill:none;stroke:#000000;stroke-width:0;stroke-miterlimit:1;" x1="82.43" y1="66.898" x2="82.769" y2="62.825"/>
		
			<line style="clip-path:url(#SVGID_40_);fill:none;stroke:#000000;stroke-width:0;stroke-miterlimit:1;" x1="82.769" y1="62.825" x2="84.466" y2="58.073"/>
		
			<line style="clip-path:url(#SVGID_40_);fill:none;stroke:#000000;stroke-width:0;stroke-miterlimit:1;" x1="84.466" y1="58.073" x2="85.484" y2="54.679"/>
		
			<line style="clip-path:url(#SVGID_40_);fill:none;stroke:#000000;stroke-width:0;stroke-miterlimit:1;" x1="85.484" y1="54.679" x2="88.54" y2="49.587"/>
		
			<line style="clip-path:url(#SVGID_40_);fill:none;stroke:#000000;stroke-width:0;stroke-miterlimit:1;" x1="88.54" y1="49.587" x2="92.613" y2="45.854"/>
		
			<line style="clip-path:url(#SVGID_40_);fill:none;stroke:#000000;stroke-width:0;stroke-miterlimit:1;" x1="92.613" y1="45.854" x2="97.025" y2="44.156"/>
		
			<line style="clip-path:url(#SVGID_40_);fill:none;stroke:#000000;stroke-width:0;stroke-miterlimit:1;" x1="97.025" y1="44.156" x2="99.401" y2="43.478"/>
		
			<line style="clip-path:url(#SVGID_40_);fill:none;stroke:#000000;stroke-width:0;stroke-miterlimit:1;" x1="99.401" y1="43.478" x2="101.438" y2="43.138"/>
	</g>
	<g>
		<defs>
			<polygon id="SVGID_41_" points="0,543.826 565.385,543.826 565.385,0 0,0 0,543.826 			"/>
		</defs>
		<clipPath id="SVGID_42_">
			<use xlink:href="#SVGID_41_"  style="overflow:visible;"/>
		</clipPath>
		
			<line style="clip-path:url(#SVGID_42_);fill:none;stroke:#000000;stroke-width:0;stroke-miterlimit:1;" x1="323.424" y1="75.044" x2="324.104" y2="88.282"/>
		
			<line style="clip-path:url(#SVGID_42_);fill:none;stroke:#000000;stroke-width:0;stroke-miterlimit:1;" x1="324.104" y1="88.282" x2="323.084" y2="102.539"/>
		
			<line style="clip-path:url(#SVGID_42_);fill:none;stroke:#000000;stroke-width:0;stroke-miterlimit:1;" x1="323.084" y1="102.539" x2="319.012" y2="143.609"/>
		
			<line style="clip-path:url(#SVGID_42_);fill:none;stroke:#000000;stroke-width:0;stroke-miterlimit:1;" x1="319.012" y1="143.609" x2="336.322" y2="155.489"/>
		
			<line style="clip-path:url(#SVGID_42_);fill:none;stroke:#000000;stroke-width:0;stroke-miterlimit:1;" x1="336.322" y1="155.489" x2="239.924" y2="155.489"/>
		
			<line style="clip-path:url(#SVGID_42_);fill:none;stroke:#000000;stroke-width:0;stroke-miterlimit:1;" x1="239.924" y1="155.489" x2="260.291" y2="145.985"/>
		
			<line style="clip-path:url(#SVGID_42_);fill:none;stroke:#000000;stroke-width:0;stroke-miterlimit:1;" x1="260.291" y1="145.985" x2="249.089" y2="102.877"/>
		
			<line style="clip-path:url(#SVGID_42_);fill:none;stroke:#000000;stroke-width:0;stroke-miterlimit:1;" x1="249.089" y1="102.877" x2="248.75" y2="97.787"/>
		
			<line style="clip-path:url(#SVGID_42_);fill:none;stroke:#000000;stroke-width:0;stroke-miterlimit:1;" x1="248.75" y1="97.787" x2="249.768" y2="93.713"/>
		
			<line style="clip-path:url(#SVGID_42_);fill:none;stroke:#000000;stroke-width:0;stroke-miterlimit:1;" x1="249.768" y1="93.713" x2="251.465" y2="90.998"/>
		
			<line style="clip-path:url(#SVGID_42_);fill:none;stroke:#000000;stroke-width:0;stroke-miterlimit:1;" x1="251.465" y1="90.998" x2="253.163" y2="89.3"/>
		
			<line style="clip-path:url(#SVGID_42_);fill:none;stroke:#000000;stroke-width:0;stroke-miterlimit:1;" x1="253.163" y1="89.3" x2="256.557" y2="88.961"/>
		
			<line style="clip-path:url(#SVGID_42_);fill:none;stroke:#000000;stroke-width:0;stroke-miterlimit:1;" x1="256.557" y1="88.961" x2="260.291" y2="89.64"/>
		
			<line style="clip-path:url(#SVGID_42_);fill:none;stroke:#000000;stroke-width:0;stroke-miterlimit:1;" x1="260.291" y1="89.64" x2="265.042" y2="92.695"/>
		
			<line style="clip-path:url(#SVGID_42_);fill:none;stroke:#000000;stroke-width:0;stroke-miterlimit:1;" x1="265.042" y1="92.695" x2="269.116" y2="96.428"/>
		
			<line style="clip-path:url(#SVGID_42_);fill:none;stroke:#000000;stroke-width:0;stroke-miterlimit:1;" x1="269.116" y1="96.428" x2="285.408" y2="119.509"/>
		
			<line style="clip-path:url(#SVGID_42_);fill:none;stroke:#000000;stroke-width:0;stroke-miterlimit:1;" x1="285.408" y1="119.509" x2="286.766" y2="95.411"/>
		
			<line style="clip-path:url(#SVGID_42_);fill:none;stroke:#000000;stroke-width:0;stroke-miterlimit:1;" x1="286.766" y1="95.411" x2="287.783" y2="75.384"/>
		
			<line style="clip-path:url(#SVGID_42_);fill:none;stroke:#000000;stroke-width:0;stroke-miterlimit:1;" x1="287.783" y1="75.384" x2="290.84" y2="65.541"/>
		
			<line style="clip-path:url(#SVGID_42_);fill:none;stroke:#000000;stroke-width:0;stroke-miterlimit:1;" x1="290.84" y1="65.541" x2="294.572" y2="60.109"/>
		
			<line style="clip-path:url(#SVGID_42_);fill:none;stroke:#000000;stroke-width:0;stroke-miterlimit:1;" x1="294.572" y1="60.109" x2="296.609" y2="57.055"/>
		
			<line style="clip-path:url(#SVGID_42_);fill:none;stroke:#000000;stroke-width:0;stroke-miterlimit:1;" x1="296.609" y1="57.055" x2="302.719" y2="50.945"/>
		
			<line style="clip-path:url(#SVGID_42_);fill:none;stroke:#000000;stroke-width:0;stroke-miterlimit:1;" x1="302.719" y1="50.945" x2="302.719" y2="43.138"/>
		
			<line style="clip-path:url(#SVGID_42_);fill:none;stroke:#000000;stroke-width:0;stroke-miterlimit:1;" x1="302.719" y1="43.138" x2="300.004" y2="41.102"/>
		
			<line style="clip-path:url(#SVGID_42_);fill:none;stroke:#000000;stroke-width:0;stroke-miterlimit:1;" x1="300.004" y1="41.102" x2="290.5" y2="39.065"/>
		
			<line style="clip-path:url(#SVGID_42_);fill:none;stroke:#000000;stroke-width:0;stroke-miterlimit:1;" x1="290.5" y1="39.065" x2="287.105" y2="48.909"/>
		
			<line style="clip-path:url(#SVGID_42_);fill:none;stroke:#000000;stroke-width:0;stroke-miterlimit:1;" x1="287.105" y1="48.909" x2="284.391" y2="47.551"/>
		
			<line style="clip-path:url(#SVGID_42_);fill:none;stroke:#000000;stroke-width:0;stroke-miterlimit:1;" x1="284.391" y1="47.551" x2="289.82" y2="38.726"/>
		
			<line style="clip-path:url(#SVGID_42_);fill:none;stroke:#000000;stroke-width:0;stroke-miterlimit:1;" x1="289.82" y1="38.726" x2="290.5" y2="30.918"/>
		
			<line style="clip-path:url(#SVGID_42_);fill:none;stroke:#000000;stroke-width:0;stroke-miterlimit:1;" x1="290.5" y1="30.918" x2="284.729" y2="29.222"/>
		
			<line style="clip-path:url(#SVGID_42_);fill:none;stroke:#000000;stroke-width:0;stroke-miterlimit:1;" x1="284.729" y1="29.222" x2="284.391" y2="27.524"/>
		
			<line style="clip-path:url(#SVGID_42_);fill:none;stroke:#000000;stroke-width:0;stroke-miterlimit:1;" x1="284.391" y1="27.524" x2="287.445" y2="23.791"/>
		
			<line style="clip-path:url(#SVGID_42_);fill:none;stroke:#000000;stroke-width:0;stroke-miterlimit:1;" x1="287.445" y1="23.791" x2="289.48" y2="21.075"/>
		
			<line style="clip-path:url(#SVGID_42_);fill:none;stroke:#000000;stroke-width:0;stroke-miterlimit:1;" x1="289.48" y1="21.075" x2="290.5" y2="17.342"/>
		
			<line style="clip-path:url(#SVGID_42_);fill:none;stroke:#000000;stroke-width:0;stroke-miterlimit:1;" x1="290.5" y1="17.342" x2="309.848" y2="20.396"/>
		
			<line style="clip-path:url(#SVGID_42_);fill:none;stroke:#000000;stroke-width:0;stroke-miterlimit:1;" x1="309.848" y1="20.396" x2="310.865" y2="18.699"/>
		
			<line style="clip-path:url(#SVGID_42_);fill:none;stroke:#000000;stroke-width:0;stroke-miterlimit:1;" x1="310.865" y1="18.699" x2="313.58" y2="18.36"/>
		
			<line style="clip-path:url(#SVGID_42_);fill:none;stroke:#000000;stroke-width:0;stroke-miterlimit:1;" x1="313.58" y1="18.36" x2="314.938" y2="20.396"/>
		
			<line style="clip-path:url(#SVGID_42_);fill:none;stroke:#000000;stroke-width:0;stroke-miterlimit:1;" x1="314.938" y1="20.396" x2="314.938" y2="22.772"/>
		
			<line style="clip-path:url(#SVGID_42_);fill:none;stroke:#000000;stroke-width:0;stroke-miterlimit:1;" x1="314.938" y1="22.772" x2="314.26" y2="25.488"/>
		
			<line style="clip-path:url(#SVGID_42_);fill:none;stroke:#000000;stroke-width:0;stroke-miterlimit:1;" x1="314.26" y1="25.488" x2="312.223" y2="28.882"/>
		
			<line style="clip-path:url(#SVGID_42_);fill:none;stroke:#000000;stroke-width:0;stroke-miterlimit:1;" x1="312.223" y1="28.882" x2="312.223" y2="74.705"/>
		
			<line style="clip-path:url(#SVGID_42_);fill:none;stroke:#000000;stroke-width:0;stroke-miterlimit:1;" x1="312.223" y1="74.705" x2="330.891" y2="74.705"/>
		
			<line style="clip-path:url(#SVGID_42_);fill:none;stroke:#000000;stroke-width:0;stroke-miterlimit:1;" x1="330.891" y1="74.705" x2="328.176" y2="19.718"/>
		
			<line style="clip-path:url(#SVGID_42_);fill:none;stroke:#000000;stroke-width:0;stroke-miterlimit:1;" x1="328.176" y1="19.718" x2="326.139" y2="12.929"/>
		
			<line style="clip-path:url(#SVGID_42_);fill:none;stroke:#000000;stroke-width:0;stroke-miterlimit:1;" x1="326.139" y1="12.929" x2="323.764" y2="9.195"/>
		
			<line style="clip-path:url(#SVGID_42_);fill:none;stroke:#000000;stroke-width:0;stroke-miterlimit:1;" x1="323.764" y1="9.195" x2="320.029" y2="5.801"/>
		
			<line style="clip-path:url(#SVGID_42_);fill:none;stroke:#000000;stroke-width:0;stroke-miterlimit:1;" x1="320.029" y1="5.801" x2="316.297" y2="4.104"/>
		
			<line style="clip-path:url(#SVGID_42_);fill:none;stroke:#000000;stroke-width:0;stroke-miterlimit:1;" x1="316.297" y1="4.104" x2="311.545" y2="2.746"/>
		
			<line style="clip-path:url(#SVGID_42_);fill:none;stroke:#000000;stroke-width:0;stroke-miterlimit:1;" x1="311.545" y1="2.746" x2="305.773" y2="3.085"/>
		
			<line style="clip-path:url(#SVGID_42_);fill:none;stroke:#000000;stroke-width:0;stroke-miterlimit:1;" x1="305.773" y1="3.085" x2="300.344" y2="4.443"/>
		
			<line style="clip-path:url(#SVGID_42_);fill:none;stroke:#000000;stroke-width:0;stroke-miterlimit:1;" x1="300.344" y1="4.443" x2="296.949" y2="6.819"/>
		
			<line style="clip-path:url(#SVGID_42_);fill:none;stroke:#000000;stroke-width:0;stroke-miterlimit:1;" x1="296.949" y1="6.819" x2="294.912" y2="9.195"/>
		
			<line style="clip-path:url(#SVGID_42_);fill:none;stroke:#000000;stroke-width:0;stroke-miterlimit:1;" x1="294.912" y1="9.195" x2="293.215" y2="11.571"/>
		
			<line style="clip-path:url(#SVGID_42_);fill:none;stroke:#000000;stroke-width:0;stroke-miterlimit:1;" x1="293.215" y1="11.571" x2="291.518" y2="14.626"/>
		
			<line style="clip-path:url(#SVGID_42_);fill:none;stroke:#000000;stroke-width:0;stroke-miterlimit:1;" x1="291.518" y1="14.626" x2="290.84" y2="17.002"/>
	</g>
	<g>
		<defs>
			<polygon id="SVGID_43_" points="0,543.826 565.385,543.826 565.385,0 0,0 0,543.826 			"/>
		</defs>
		<clipPath id="SVGID_44_">
			<use xlink:href="#SVGID_43_"  style="overflow:visible;"/>
		</clipPath>
		
			<line style="clip-path:url(#SVGID_44_);fill:none;stroke:#000000;stroke-width:0;stroke-miterlimit:1;" x1="293.555" y1="24.47" x2="299.664" y2="25.148"/>
		
			<line style="clip-path:url(#SVGID_44_);fill:none;stroke:#000000;stroke-width:0;stroke-miterlimit:1;" x1="299.664" y1="25.148" x2="297.627" y2="22.772"/>
		
			<line style="clip-path:url(#SVGID_44_);fill:none;stroke:#000000;stroke-width:0;stroke-miterlimit:1;" x1="297.627" y1="22.772" x2="296.27" y2="22.433"/>
		
			<line style="clip-path:url(#SVGID_44_);fill:none;stroke:#000000;stroke-width:0;stroke-miterlimit:1;" x1="296.27" y1="22.433" x2="293.895" y2="24.13"/>
	</g>
</g>
</svg>
