<?xml version="1.0" encoding="iso-8859-1"?>
<!-- Generator: Adobe Illustrator 16.0.1, SVG Export Plug-In . SVG Version: 6.00 Build 0)  -->
<!DOCTYPE svg PUBLIC "-//W3C//DTD SVG 1.1//EN" "http://www.w3.org/Graphics/SVG/1.1/DTD/svg11.dtd">
<svg version="1.1" id="Ebene_1" xmlns="http://www.w3.org/2000/svg" xmlns:xlink="http://www.w3.org/1999/xlink" x="0px" y="0px"
	 width="984.138px" height="515.479px" viewBox="0 0 984.138 515.479" style="enable-background:new 0 0 984.138 515.479;"
	 xml:space="preserve">
<g>
	<g>
		<defs>
			<polygon id="SVGID_1_" points="379.337,357.943 984.138,357.943 984.138,0 379.337,0 379.337,357.943 			"/>
		</defs>
		<clipPath id="SVGID_2_">
			<use xlink:href="#SVGID_1_"  style="overflow:visible;"/>
		</clipPath>
		
			<line style="clip-path:url(#SVGID_2_);fill:none;stroke:#C0C0C0;stroke-width:0;stroke-linejoin:bevel;stroke-miterlimit:10;" x1="382.423" y1="3.086" x2="473.966" y2="3.086"/>
		
			<line style="clip-path:url(#SVGID_2_);fill:none;stroke:#C0C0C0;stroke-width:0;stroke-linejoin:bevel;stroke-miterlimit:10;" x1="473.966" y1="3.086" x2="473.966" y2="173.829"/>
		
			<line style="clip-path:url(#SVGID_2_);fill:none;stroke:#C0C0C0;stroke-width:0;stroke-linejoin:bevel;stroke-miterlimit:10;" x1="473.966" y1="173.829" x2="382.423" y2="173.829"/>
	</g>
	<g>
		<defs>
			<polygon id="SVGID_3_" points="82.08,446.4 984.138,446.4 984.138,0 82.08,0 82.08,446.4 			"/>
		</defs>
		<clipPath id="SVGID_4_">
			<use xlink:href="#SVGID_3_"  style="overflow:visible;"/>
		</clipPath>
		
			<line style="clip-path:url(#SVGID_4_);fill:none;stroke:#C0C0C0;stroke-width:0;stroke-linejoin:bevel;stroke-miterlimit:10;" x1="85.166" y1="94.628" x2="206.538" y2="94.628"/>
		
			<line style="clip-path:url(#SVGID_4_);fill:none;stroke:#C0C0C0;stroke-width:0;stroke-linejoin:bevel;stroke-miterlimit:10;" x1="206.538" y1="94.628" x2="206.538" y2="170.743"/>
		
			<line style="clip-path:url(#SVGID_4_);fill:none;stroke:#C0C0C0;stroke-width:0;stroke-linejoin:bevel;stroke-miterlimit:10;" x1="206.538" y1="170.743" x2="85.166" y2="170.743"/>
	</g>
	<g>
		<defs>
			<polygon id="SVGID_5_" points="37.029,446.4 984.138,446.4 984.138,0 37.029,0 37.029,446.4 			"/>
		</defs>
		<clipPath id="SVGID_6_">
			<use xlink:href="#SVGID_5_"  style="overflow:visible;"/>
		</clipPath>
		
			<line style="clip-path:url(#SVGID_6_);fill:none;stroke:#000000;stroke-width:0;stroke-miterlimit:1;" x1="40.115" y1="4.115" x2="47.891" y2="4.115"/>
		
			<line style="clip-path:url(#SVGID_6_);fill:none;stroke:#000000;stroke-width:0;stroke-miterlimit:1;" x1="47.891" y1="4.115" x2="47.891" y2="170.743"/>
		
			<line style="clip-path:url(#SVGID_6_);fill:none;stroke:#000000;stroke-width:0;stroke-miterlimit:1;" x1="47.891" y1="170.743" x2="40.115" y2="170.743"/>
		
			<line style="clip-path:url(#SVGID_6_);fill:none;stroke:#000000;stroke-width:0;stroke-miterlimit:1;" x1="40.115" y1="170.743" x2="40.115" y2="4.115"/>
	</g>
	<g>
		<defs>
			<polygon id="SVGID_7_" points="37.029,446.4 984.138,446.4 984.138,0 37.029,0 37.029,446.4 			"/>
		</defs>
		<clipPath id="SVGID_8_">
			<use xlink:href="#SVGID_7_"  style="overflow:visible;"/>
		</clipPath>
		
			<line style="clip-path:url(#SVGID_8_);fill:none;stroke:#000000;stroke-width:0;stroke-miterlimit:1;" x1="40.115" y1="14.482" x2="3.086" y2="14.482"/>
		
			<line style="clip-path:url(#SVGID_8_);fill:none;stroke:#000000;stroke-width:0;stroke-miterlimit:1;" x1="3.086" y1="14.482" x2="3.086" y2="21.518"/>
		
			<line style="clip-path:url(#SVGID_8_);fill:none;stroke:#000000;stroke-width:0;stroke-miterlimit:1;" x1="3.086" y1="21.518" x2="40.115" y2="21.518"/>
	</g>
	<g>
		<defs>
			<polygon id="SVGID_9_" points="0,446.4 984.138,446.4 984.138,0 0,0 0,446.4 			"/>
		</defs>
		<clipPath id="SVGID_10_">
			<use xlink:href="#SVGID_9_"  style="overflow:visible;"/>
		</clipPath>
		
			<line style="clip-path:url(#SVGID_10_);fill:none;stroke:#000000;stroke-width:0;stroke-miterlimit:1;" x1="40.115" y1="32.626" x2="3.086" y2="32.626"/>
		
			<line style="clip-path:url(#SVGID_10_);fill:none;stroke:#000000;stroke-width:0;stroke-miterlimit:1;" x1="3.086" y1="32.626" x2="3.086" y2="39.662"/>
		
			<line style="clip-path:url(#SVGID_10_);fill:none;stroke:#000000;stroke-width:0;stroke-miterlimit:1;" x1="3.086" y1="39.662" x2="40.115" y2="39.662"/>
	</g>
	<g>
		<defs>
			<polygon id="SVGID_11_" points="0,446.4 984.138,446.4 984.138,0 0,0 0,446.4 			"/>
		</defs>
		<clipPath id="SVGID_12_">
			<use xlink:href="#SVGID_11_"  style="overflow:visible;"/>
		</clipPath>
		
			<line style="clip-path:url(#SVGID_12_);fill:none;stroke:#000000;stroke-width:0;stroke-miterlimit:1;" x1="40.115" y1="122.976" x2="6.789" y2="97.796"/>
		
			<line style="clip-path:url(#SVGID_12_);fill:none;stroke:#000000;stroke-width:0;stroke-miterlimit:1;" x1="6.789" y1="97.796" x2="4.567" y2="93.723"/>
		
			<line style="clip-path:url(#SVGID_12_);fill:none;stroke:#000000;stroke-width:0;stroke-miterlimit:1;" x1="4.567" y1="93.723" x2="3.086" y2="89.651"/>
		
			<line style="clip-path:url(#SVGID_12_);fill:none;stroke:#000000;stroke-width:0;stroke-miterlimit:1;" x1="3.086" y1="89.651" x2="4.938" y2="82.985"/>
		
			<line style="clip-path:url(#SVGID_12_);fill:none;stroke:#000000;stroke-width:0;stroke-miterlimit:1;" x1="4.938" y1="82.985" x2="7.899" y2="80.394"/>
		
			<line style="clip-path:url(#SVGID_12_);fill:none;stroke:#000000;stroke-width:0;stroke-miterlimit:1;" x1="7.899" y1="80.394" x2="10.862" y2="78.542"/>
		
			<line style="clip-path:url(#SVGID_12_);fill:none;stroke:#000000;stroke-width:0;stroke-miterlimit:1;" x1="10.862" y1="78.542" x2="14.194" y2="78.912"/>
		
			<line style="clip-path:url(#SVGID_12_);fill:none;stroke:#000000;stroke-width:0;stroke-miterlimit:1;" x1="14.194" y1="78.912" x2="17.897" y2="79.653"/>
		
			<line style="clip-path:url(#SVGID_12_);fill:none;stroke:#000000;stroke-width:0;stroke-miterlimit:1;" x1="17.897" y1="79.653" x2="19.378" y2="81.134"/>
		
			<line style="clip-path:url(#SVGID_12_);fill:none;stroke:#000000;stroke-width:0;stroke-miterlimit:1;" x1="19.378" y1="81.134" x2="21.23" y2="83.726"/>
		
			<line style="clip-path:url(#SVGID_12_);fill:none;stroke:#000000;stroke-width:0;stroke-miterlimit:1;" x1="21.23" y1="83.726" x2="21.6" y2="86.318"/>
		
			<line style="clip-path:url(#SVGID_12_);fill:none;stroke:#000000;stroke-width:0;stroke-miterlimit:1;" x1="21.6" y1="86.318" x2="20.86" y2="88.54"/>
		
			<line style="clip-path:url(#SVGID_12_);fill:none;stroke:#000000;stroke-width:0;stroke-miterlimit:1;" x1="20.86" y1="88.54" x2="19.008" y2="91.131"/>
		
			<line style="clip-path:url(#SVGID_12_);fill:none;stroke:#000000;stroke-width:0;stroke-miterlimit:1;" x1="19.008" y1="91.131" x2="16.416" y2="92.243"/>
		
			<line style="clip-path:url(#SVGID_12_);fill:none;stroke:#000000;stroke-width:0;stroke-miterlimit:1;" x1="16.416" y1="92.243" x2="13.824" y2="92.243"/>
		
			<line style="clip-path:url(#SVGID_12_);fill:none;stroke:#000000;stroke-width:0;stroke-miterlimit:1;" x1="13.824" y1="92.243" x2="10.122" y2="90.021"/>
		
			<line style="clip-path:url(#SVGID_12_);fill:none;stroke:#000000;stroke-width:0;stroke-miterlimit:1;" x1="10.122" y1="90.021" x2="9.381" y2="87.059"/>
	</g>
	<g>
		<defs>
			<polygon id="SVGID_13_" points="0,446.4 984.138,446.4 984.138,0 0,0 0,446.4 			"/>
		</defs>
		<clipPath id="SVGID_14_">
			<use xlink:href="#SVGID_13_"  style="overflow:visible;"/>
		</clipPath>
		
			<line style="clip-path:url(#SVGID_14_);fill:none;stroke:#000000;stroke-width:0;stroke-miterlimit:1;" x1="40.115" y1="123.346" x2="11.232" y2="123.346"/>
		
			<line style="clip-path:url(#SVGID_14_);fill:none;stroke:#000000;stroke-width:0;stroke-miterlimit:1;" x1="11.232" y1="123.346" x2="40.115" y2="170.743"/>
	</g>
	<g>
		<defs>
			<polygon id="SVGID_15_" points="0,446.4 984.138,446.4 984.138,0 0,0 0,446.4 			"/>
		</defs>
		<clipPath id="SVGID_16_">
			<use xlink:href="#SVGID_15_"  style="overflow:visible;"/>
		</clipPath>
		
			<line style="clip-path:url(#SVGID_16_);fill:none;stroke:#000000;stroke-width:0;stroke-miterlimit:1;" x1="179.712" y1="45.216" x2="92.325" y2="45.216"/>
		
			<line style="clip-path:url(#SVGID_16_);fill:none;stroke:#000000;stroke-width:0;stroke-miterlimit:1;" x1="92.325" y1="45.216" x2="93.436" y2="37.811"/>
		
			<line style="clip-path:url(#SVGID_16_);fill:none;stroke:#000000;stroke-width:0;stroke-miterlimit:1;" x1="93.436" y1="37.811" x2="94.546" y2="32.997"/>
		
			<line style="clip-path:url(#SVGID_16_);fill:none;stroke:#000000;stroke-width:0;stroke-miterlimit:1;" x1="94.546" y1="32.997" x2="96.398" y2="28.183"/>
		
			<line style="clip-path:url(#SVGID_16_);fill:none;stroke:#000000;stroke-width:0;stroke-miterlimit:1;" x1="96.398" y1="28.183" x2="98.99" y2="24.48"/>
		
			<line style="clip-path:url(#SVGID_16_);fill:none;stroke:#000000;stroke-width:0;stroke-miterlimit:1;" x1="98.99" y1="24.48" x2="101.212" y2="21.147"/>
		
			<line style="clip-path:url(#SVGID_16_);fill:none;stroke:#000000;stroke-width:0;stroke-miterlimit:1;" x1="101.212" y1="21.147" x2="104.174" y2="17.075"/>
		
			<line style="clip-path:url(#SVGID_16_);fill:none;stroke:#000000;stroke-width:0;stroke-miterlimit:1;" x1="104.174" y1="17.075" x2="107.506" y2="14.112"/>
		
			<line style="clip-path:url(#SVGID_16_);fill:none;stroke:#000000;stroke-width:0;stroke-miterlimit:1;" x1="107.506" y1="14.112" x2="111.58" y2="11.15"/>
		
			<line style="clip-path:url(#SVGID_16_);fill:none;stroke:#000000;stroke-width:0;stroke-miterlimit:1;" x1="111.58" y1="11.15" x2="114.912" y2="8.928"/>
		
			<line style="clip-path:url(#SVGID_16_);fill:none;stroke:#000000;stroke-width:0;stroke-miterlimit:1;" x1="114.912" y1="8.928" x2="119.726" y2="6.707"/>
		
			<line style="clip-path:url(#SVGID_16_);fill:none;stroke:#000000;stroke-width:0;stroke-miterlimit:1;" x1="119.726" y1="6.707" x2="124.54" y2="5.225"/>
		
			<line style="clip-path:url(#SVGID_16_);fill:none;stroke:#000000;stroke-width:0;stroke-miterlimit:1;" x1="124.54" y1="5.225" x2="127.872" y2="4.485"/>
		
			<line style="clip-path:url(#SVGID_16_);fill:none;stroke:#000000;stroke-width:0;stroke-miterlimit:1;" x1="127.872" y1="4.485" x2="133.797" y2="3.744"/>
		
			<line style="clip-path:url(#SVGID_16_);fill:none;stroke:#000000;stroke-width:0;stroke-miterlimit:1;" x1="133.797" y1="3.744" x2="138.24" y2="3.744"/>
		
			<line style="clip-path:url(#SVGID_16_);fill:none;stroke:#000000;stroke-width:0;stroke-miterlimit:1;" x1="138.24" y1="3.744" x2="142.313" y2="4.485"/>
		
			<line style="clip-path:url(#SVGID_16_);fill:none;stroke:#000000;stroke-width:0;stroke-miterlimit:1;" x1="142.313" y1="4.485" x2="146.757" y2="5.225"/>
		
			<line style="clip-path:url(#SVGID_16_);fill:none;stroke:#000000;stroke-width:0;stroke-miterlimit:1;" x1="146.757" y1="5.225" x2="151.57" y2="6.336"/>
		
			<line style="clip-path:url(#SVGID_16_);fill:none;stroke:#000000;stroke-width:0;stroke-miterlimit:1;" x1="151.57" y1="6.336" x2="154.903" y2="7.447"/>
		
			<line style="clip-path:url(#SVGID_16_);fill:none;stroke:#000000;stroke-width:0;stroke-miterlimit:1;" x1="154.903" y1="7.447" x2="159.347" y2="10.409"/>
		
			<line style="clip-path:url(#SVGID_16_);fill:none;stroke:#000000;stroke-width:0;stroke-miterlimit:1;" x1="159.347" y1="10.409" x2="163.049" y2="13.001"/>
		
			<line style="clip-path:url(#SVGID_16_);fill:none;stroke:#000000;stroke-width:0;stroke-miterlimit:1;" x1="163.049" y1="13.001" x2="166.382" y2="15.593"/>
		
			<line style="clip-path:url(#SVGID_16_);fill:none;stroke:#000000;stroke-width:0;stroke-miterlimit:1;" x1="166.382" y1="15.593" x2="169.344" y2="19.296"/>
		
			<line style="clip-path:url(#SVGID_16_);fill:none;stroke:#000000;stroke-width:0;stroke-miterlimit:1;" x1="169.344" y1="19.296" x2="172.307" y2="23.369"/>
		
			<line style="clip-path:url(#SVGID_16_);fill:none;stroke:#000000;stroke-width:0;stroke-miterlimit:1;" x1="172.307" y1="23.369" x2="174.898" y2="27.442"/>
		
			<line style="clip-path:url(#SVGID_16_);fill:none;stroke:#000000;stroke-width:0;stroke-miterlimit:1;" x1="174.898" y1="27.442" x2="176.75" y2="31.146"/>
		
			<line style="clip-path:url(#SVGID_16_);fill:none;stroke:#000000;stroke-width:0;stroke-miterlimit:1;" x1="176.75" y1="31.146" x2="178.231" y2="36.7"/>
		
			<line style="clip-path:url(#SVGID_16_);fill:none;stroke:#000000;stroke-width:0;stroke-miterlimit:1;" x1="178.231" y1="36.7" x2="179.342" y2="40.773"/>
		
			<line style="clip-path:url(#SVGID_16_);fill:none;stroke:#000000;stroke-width:0;stroke-miterlimit:1;" x1="179.342" y1="40.773" x2="179.712" y2="45.216"/>
	</g>
	<g>
		<defs>
			<polygon id="SVGID_17_" points="0,446.4 984.138,446.4 984.138,0 0,0 0,446.4 			"/>
		</defs>
		<clipPath id="SVGID_18_">
			<use xlink:href="#SVGID_17_"  style="overflow:visible;"/>
		</clipPath>
		
			<line style="clip-path:url(#SVGID_18_);fill:none;stroke:#000000;stroke-width:0;stroke-miterlimit:1;" x1="272.284" y1="47.068" x2="271.173" y2="52.251"/>
		
			<line style="clip-path:url(#SVGID_18_);fill:none;stroke:#000000;stroke-width:0;stroke-miterlimit:1;" x1="271.173" y1="52.251" x2="266.729" y2="54.103"/>
		
			<line style="clip-path:url(#SVGID_18_);fill:none;stroke:#000000;stroke-width:0;stroke-miterlimit:1;" x1="266.729" y1="54.103" x2="262.656" y2="57.806"/>
		
			<line style="clip-path:url(#SVGID_18_);fill:none;stroke:#000000;stroke-width:0;stroke-miterlimit:1;" x1="262.656" y1="57.806" x2="261.546" y2="61.139"/>
		
			<line style="clip-path:url(#SVGID_18_);fill:none;stroke:#000000;stroke-width:0;stroke-miterlimit:1;" x1="261.546" y1="61.139" x2="261.916" y2="64.841"/>
		
			<line style="clip-path:url(#SVGID_18_);fill:none;stroke:#000000;stroke-width:0;stroke-miterlimit:1;" x1="261.916" y1="64.841" x2="264.138" y2="69.655"/>
		
			<line style="clip-path:url(#SVGID_18_);fill:none;stroke:#000000;stroke-width:0;stroke-miterlimit:1;" x1="264.138" y1="69.655" x2="269.691" y2="77.061"/>
		
			<line style="clip-path:url(#SVGID_18_);fill:none;stroke:#000000;stroke-width:0;stroke-miterlimit:1;" x1="269.691" y1="77.061" x2="278.578" y2="85.948"/>
		
			<line style="clip-path:url(#SVGID_18_);fill:none;stroke:#000000;stroke-width:0;stroke-miterlimit:1;" x1="278.578" y1="85.948" x2="302.647" y2="100.759"/>
		
			<line style="clip-path:url(#SVGID_18_);fill:none;stroke:#000000;stroke-width:0;stroke-miterlimit:1;" x1="302.647" y1="100.759" x2="315.607" y2="107.794"/>
		
			<line style="clip-path:url(#SVGID_18_);fill:none;stroke:#000000;stroke-width:0;stroke-miterlimit:1;" x1="315.607" y1="107.794" x2="326.346" y2="112.238"/>
		
			<line style="clip-path:url(#SVGID_18_);fill:none;stroke:#000000;stroke-width:0;stroke-miterlimit:1;" x1="326.346" y1="112.238" x2="332.641" y2="116.311"/>
		
			<line style="clip-path:url(#SVGID_18_);fill:none;stroke:#000000;stroke-width:0;stroke-miterlimit:1;" x1="332.641" y1="116.311" x2="336.714" y2="118.903"/>
		
			<line style="clip-path:url(#SVGID_18_);fill:none;stroke:#000000;stroke-width:0;stroke-miterlimit:1;" x1="336.714" y1="118.903" x2="345.229" y2="127.79"/>
		
			<line style="clip-path:url(#SVGID_18_);fill:none;stroke:#000000;stroke-width:0;stroke-miterlimit:1;" x1="345.229" y1="127.79" x2="346.341" y2="128.161"/>
		
			<line style="clip-path:url(#SVGID_18_);fill:none;stroke:#000000;stroke-width:0;stroke-miterlimit:1;" x1="346.341" y1="128.161" x2="346.341" y2="123.716"/>
		
			<line style="clip-path:url(#SVGID_18_);fill:none;stroke:#000000;stroke-width:0;stroke-miterlimit:1;" x1="346.341" y1="123.716" x2="342.638" y2="109.276"/>
		
			<line style="clip-path:url(#SVGID_18_);fill:none;stroke:#000000;stroke-width:0;stroke-miterlimit:1;" x1="342.638" y1="109.276" x2="337.084" y2="87.059"/>
		
			<line style="clip-path:url(#SVGID_18_);fill:none;stroke:#000000;stroke-width:0;stroke-miterlimit:1;" x1="337.084" y1="87.059" x2="332.27" y2="68.174"/>
		
			<line style="clip-path:url(#SVGID_18_);fill:none;stroke:#000000;stroke-width:0;stroke-miterlimit:1;" x1="332.27" y1="68.174" x2="325.976" y2="52.622"/>
		
			<line style="clip-path:url(#SVGID_18_);fill:none;stroke:#000000;stroke-width:0;stroke-miterlimit:1;" x1="325.976" y1="52.622" x2="319.681" y2="41.884"/>
		
			<line style="clip-path:url(#SVGID_18_);fill:none;stroke:#000000;stroke-width:0;stroke-miterlimit:1;" x1="319.681" y1="41.884" x2="314.496" y2="34.848"/>
		
			<line style="clip-path:url(#SVGID_18_);fill:none;stroke:#000000;stroke-width:0;stroke-miterlimit:1;" x1="314.496" y1="34.848" x2="308.571" y2="29.664"/>
		
			<line style="clip-path:url(#SVGID_18_);fill:none;stroke:#000000;stroke-width:0;stroke-miterlimit:1;" x1="308.571" y1="29.664" x2="304.128" y2="27.072"/>
		
			<line style="clip-path:url(#SVGID_18_);fill:none;stroke:#000000;stroke-width:0;stroke-miterlimit:1;" x1="304.128" y1="27.072" x2="296.723" y2="25.591"/>
		
			<line style="clip-path:url(#SVGID_18_);fill:none;stroke:#000000;stroke-width:0;stroke-miterlimit:1;" x1="296.723" y1="25.591" x2="291.168" y2="25.961"/>
		
			<line style="clip-path:url(#SVGID_18_);fill:none;stroke:#000000;stroke-width:0;stroke-miterlimit:1;" x1="291.168" y1="25.961" x2="285.244" y2="28.183"/>
		
			<line style="clip-path:url(#SVGID_18_);fill:none;stroke:#000000;stroke-width:0;stroke-miterlimit:1;" x1="285.244" y1="28.183" x2="271.173" y2="40.032"/>
		
			<line style="clip-path:url(#SVGID_18_);fill:none;stroke:#000000;stroke-width:0;stroke-miterlimit:1;" x1="271.173" y1="40.032" x2="265.248" y2="44.476"/>
		
			<line style="clip-path:url(#SVGID_18_);fill:none;stroke:#000000;stroke-width:0;stroke-miterlimit:1;" x1="265.248" y1="44.476" x2="261.916" y2="45.586"/>
		
			<line style="clip-path:url(#SVGID_18_);fill:none;stroke:#000000;stroke-width:0;stroke-miterlimit:1;" x1="261.916" y1="45.586" x2="258.953" y2="44.846"/>
		
			<line style="clip-path:url(#SVGID_18_);fill:none;stroke:#000000;stroke-width:0;stroke-miterlimit:1;" x1="258.953" y1="44.846" x2="257.473" y2="41.513"/>
		
			<line style="clip-path:url(#SVGID_18_);fill:none;stroke:#000000;stroke-width:0;stroke-miterlimit:1;" x1="257.473" y1="41.513" x2="258.953" y2="36.7"/>
		
			<line style="clip-path:url(#SVGID_18_);fill:none;stroke:#000000;stroke-width:0;stroke-miterlimit:1;" x1="258.953" y1="36.7" x2="263.768" y2="30.405"/>
		
			<line style="clip-path:url(#SVGID_18_);fill:none;stroke:#000000;stroke-width:0;stroke-miterlimit:1;" x1="263.768" y1="30.405" x2="268.211" y2="23.74"/>
		
			<line style="clip-path:url(#SVGID_18_);fill:none;stroke:#000000;stroke-width:0;stroke-miterlimit:1;" x1="268.211" y1="23.74" x2="270.062" y2="17.815"/>
		
			<line style="clip-path:url(#SVGID_18_);fill:none;stroke:#000000;stroke-width:0;stroke-miterlimit:1;" x1="270.062" y1="17.815" x2="270.433" y2="12.261"/>
		
			<line style="clip-path:url(#SVGID_18_);fill:none;stroke:#000000;stroke-width:0;stroke-miterlimit:1;" x1="270.433" y1="12.261" x2="268.581" y2="8.188"/>
		
			<line style="clip-path:url(#SVGID_18_);fill:none;stroke:#000000;stroke-width:0;stroke-miterlimit:1;" x1="268.581" y1="8.188" x2="264.878" y2="5.225"/>
		
			<line style="clip-path:url(#SVGID_18_);fill:none;stroke:#000000;stroke-width:0;stroke-miterlimit:1;" x1="264.878" y1="5.225" x2="260.435" y2="3.744"/>
		
			<line style="clip-path:url(#SVGID_18_);fill:none;stroke:#000000;stroke-width:0;stroke-miterlimit:1;" x1="260.435" y1="3.744" x2="256.361" y2="4.485"/>
		
			<line style="clip-path:url(#SVGID_18_);fill:none;stroke:#000000;stroke-width:0;stroke-miterlimit:1;" x1="256.361" y1="4.485" x2="251.918" y2="5.966"/>
		
			<line style="clip-path:url(#SVGID_18_);fill:none;stroke:#000000;stroke-width:0;stroke-miterlimit:1;" x1="251.918" y1="5.966" x2="249.326" y2="7.817"/>
		
			<line style="clip-path:url(#SVGID_18_);fill:none;stroke:#000000;stroke-width:0;stroke-miterlimit:1;" x1="249.326" y1="7.817" x2="247.104" y2="9.298"/>
		
			<line style="clip-path:url(#SVGID_18_);fill:none;stroke:#000000;stroke-width:0;stroke-miterlimit:1;" x1="247.104" y1="9.298" x2="245.993" y2="11.52"/>
		
			<line style="clip-path:url(#SVGID_18_);fill:none;stroke:#000000;stroke-width:0;stroke-miterlimit:1;" x1="245.993" y1="11.52" x2="244.513" y2="15.223"/>
		
			<line style="clip-path:url(#SVGID_18_);fill:none;stroke:#000000;stroke-width:0;stroke-miterlimit:1;" x1="244.513" y1="15.223" x2="245.253" y2="19.296"/>
		
			<line style="clip-path:url(#SVGID_18_);fill:none;stroke:#000000;stroke-width:0;stroke-miterlimit:1;" x1="245.253" y1="19.296" x2="246.734" y2="20.777"/>
		
			<line style="clip-path:url(#SVGID_18_);fill:none;stroke:#000000;stroke-width:0;stroke-miterlimit:1;" x1="246.734" y1="20.777" x2="248.585" y2="22.258"/>
		
			<line style="clip-path:url(#SVGID_18_);fill:none;stroke:#000000;stroke-width:0;stroke-miterlimit:1;" x1="248.585" y1="22.258" x2="250.066" y2="24.11"/>
		
			<line style="clip-path:url(#SVGID_18_);fill:none;stroke:#000000;stroke-width:0;stroke-miterlimit:1;" x1="250.066" y1="24.11" x2="250.437" y2="26.332"/>
		
			<line style="clip-path:url(#SVGID_18_);fill:none;stroke:#000000;stroke-width:0;stroke-miterlimit:1;" x1="250.437" y1="26.332" x2="250.066" y2="29.664"/>
		
			<line style="clip-path:url(#SVGID_18_);fill:none;stroke:#000000;stroke-width:0;stroke-miterlimit:1;" x1="250.066" y1="29.664" x2="240.439" y2="47.438"/>
		
			<line style="clip-path:url(#SVGID_18_);fill:none;stroke:#000000;stroke-width:0;stroke-miterlimit:1;" x1="240.439" y1="47.438" x2="238.958" y2="53.362"/>
		
			<line style="clip-path:url(#SVGID_18_);fill:none;stroke:#000000;stroke-width:0;stroke-miterlimit:1;" x1="238.958" y1="53.362" x2="238.958" y2="58.917"/>
		
			<line style="clip-path:url(#SVGID_18_);fill:none;stroke:#000000;stroke-width:0;stroke-miterlimit:1;" x1="238.958" y1="58.917" x2="240.81" y2="64.471"/>
		
			<line style="clip-path:url(#SVGID_18_);fill:none;stroke:#000000;stroke-width:0;stroke-miterlimit:1;" x1="240.81" y1="64.471" x2="244.513" y2="68.174"/>
		
			<line style="clip-path:url(#SVGID_18_);fill:none;stroke:#000000;stroke-width:0;stroke-miterlimit:1;" x1="244.513" y1="68.174" x2="258.213" y2="77.061"/>
		
			<line style="clip-path:url(#SVGID_18_);fill:none;stroke:#000000;stroke-width:0;stroke-miterlimit:1;" x1="258.213" y1="77.061" x2="260.805" y2="80.764"/>
		
			<line style="clip-path:url(#SVGID_18_);fill:none;stroke:#000000;stroke-width:0;stroke-miterlimit:1;" x1="260.805" y1="80.764" x2="271.173" y2="94.094"/>
		
			<line style="clip-path:url(#SVGID_18_);fill:none;stroke:#000000;stroke-width:0;stroke-miterlimit:1;" x1="271.173" y1="94.094" x2="274.506" y2="98.167"/>
		
			<line style="clip-path:url(#SVGID_18_);fill:none;stroke:#000000;stroke-width:0;stroke-miterlimit:1;" x1="274.506" y1="98.167" x2="278.949" y2="102.24"/>
		
			<line style="clip-path:url(#SVGID_18_);fill:none;stroke:#000000;stroke-width:0;stroke-miterlimit:1;" x1="278.949" y1="102.24" x2="290.798" y2="107.794"/>
		
			<line style="clip-path:url(#SVGID_18_);fill:none;stroke:#000000;stroke-width:0;stroke-miterlimit:1;" x1="290.798" y1="107.794" x2="292.279" y2="108.165"/>
		
			<line style="clip-path:url(#SVGID_18_);fill:none;stroke:#000000;stroke-width:0;stroke-miterlimit:1;" x1="292.279" y1="108.165" x2="293.761" y2="113.349"/>
		
			<line style="clip-path:url(#SVGID_18_);fill:none;stroke:#000000;stroke-width:0;stroke-miterlimit:1;" x1="293.761" y1="113.349" x2="301.906" y2="125.198"/>
		
			<line style="clip-path:url(#SVGID_18_);fill:none;stroke:#000000;stroke-width:0;stroke-miterlimit:1;" x1="301.906" y1="125.198" x2="303.018" y2="127.79"/>
		
			<line style="clip-path:url(#SVGID_18_);fill:none;stroke:#000000;stroke-width:0;stroke-miterlimit:1;" x1="303.018" y1="127.79" x2="303.758" y2="130.752"/>
		
			<line style="clip-path:url(#SVGID_18_);fill:none;stroke:#000000;stroke-width:0;stroke-miterlimit:1;" x1="303.758" y1="130.752" x2="307.461" y2="157.783"/>
		
			<line style="clip-path:url(#SVGID_18_);fill:none;stroke:#000000;stroke-width:0;stroke-miterlimit:1;" x1="307.461" y1="157.783" x2="307.091" y2="160.746"/>
		
			<line style="clip-path:url(#SVGID_18_);fill:none;stroke:#000000;stroke-width:0;stroke-miterlimit:1;" x1="307.091" y1="160.746" x2="306.35" y2="162.226"/>
		
			<line style="clip-path:url(#SVGID_18_);fill:none;stroke:#000000;stroke-width:0;stroke-miterlimit:1;" x1="306.35" y1="162.226" x2="304.128" y2="162.597"/>
		
			<line style="clip-path:url(#SVGID_18_);fill:none;stroke:#000000;stroke-width:0;stroke-miterlimit:1;" x1="304.128" y1="162.597" x2="290.798" y2="163.708"/>
		
			<line style="clip-path:url(#SVGID_18_);fill:none;stroke:#000000;stroke-width:0;stroke-miterlimit:1;" x1="290.798" y1="163.708" x2="282.651" y2="164.448"/>
		
			<line style="clip-path:url(#SVGID_18_);fill:none;stroke:#000000;stroke-width:0;stroke-miterlimit:1;" x1="282.651" y1="164.448" x2="280.06" y2="165.929"/>
		
			<line style="clip-path:url(#SVGID_18_);fill:none;stroke:#000000;stroke-width:0;stroke-miterlimit:1;" x1="280.06" y1="165.929" x2="279.689" y2="168.521"/>
		
			<line style="clip-path:url(#SVGID_18_);fill:none;stroke:#000000;stroke-width:0;stroke-miterlimit:1;" x1="279.689" y1="168.521" x2="281.911" y2="170.002"/>
	</g>
	<g>
		<defs>
			<polygon id="SVGID_19_" points="0,446.4 984.138,446.4 984.138,0 0,0 0,446.4 			"/>
		</defs>
		<clipPath id="SVGID_20_">
			<use xlink:href="#SVGID_19_"  style="overflow:visible;"/>
		</clipPath>
		
			<line style="clip-path:url(#SVGID_20_);fill:none;stroke:#000000;stroke-width:0;stroke-miterlimit:1;" x1="281.541" y1="164.819" x2="278.578" y2="165.929"/>
		
			<line style="clip-path:url(#SVGID_20_);fill:none;stroke:#000000;stroke-width:0;stroke-miterlimit:1;" x1="278.578" y1="165.929" x2="277.098" y2="167.411"/>
		
			<line style="clip-path:url(#SVGID_20_);fill:none;stroke:#000000;stroke-width:0;stroke-miterlimit:1;" x1="277.098" y1="167.411" x2="276.728" y2="170.002"/>
		
			<line style="clip-path:url(#SVGID_20_);fill:none;stroke:#000000;stroke-width:0;stroke-miterlimit:1;" x1="276.728" y1="170.002" x2="279.689" y2="168.892"/>
	</g>
	<g>
		<defs>
			<polygon id="SVGID_21_" points="0,446.4 984.138,446.4 984.138,0 0,0 0,446.4 			"/>
		</defs>
		<clipPath id="SVGID_22_">
			<use xlink:href="#SVGID_21_"  style="overflow:visible;"/>
		</clipPath>
		
			<line style="clip-path:url(#SVGID_22_);fill:none;stroke:#000000;stroke-width:0;stroke-miterlimit:1;" x1="288.206" y1="165.929" x2="284.873" y2="166.299"/>
		
			<line style="clip-path:url(#SVGID_22_);fill:none;stroke:#000000;stroke-width:0;stroke-miterlimit:1;" x1="284.873" y1="166.299" x2="283.393" y2="168.151"/>
		
			<line style="clip-path:url(#SVGID_22_);fill:none;stroke:#000000;stroke-width:0;stroke-miterlimit:1;" x1="283.393" y1="168.151" x2="283.022" y2="169.632"/>
		
			<line style="clip-path:url(#SVGID_22_);fill:none;stroke:#000000;stroke-width:0;stroke-miterlimit:1;" x1="283.022" y1="169.632" x2="286.354" y2="169.262"/>
	</g>
	<g>
		<defs>
			<polygon id="SVGID_23_" points="0,446.4 984.138,446.4 984.138,0 0,0 0,446.4 			"/>
		</defs>
		<clipPath id="SVGID_24_">
			<use xlink:href="#SVGID_23_"  style="overflow:visible;"/>
		</clipPath>
		
			<line style="clip-path:url(#SVGID_24_);fill:none;stroke:#000000;stroke-width:0;stroke-miterlimit:1;" x1="296.353" y1="164.448" x2="290.428" y2="165.189"/>
		
			<line style="clip-path:url(#SVGID_24_);fill:none;stroke:#000000;stroke-width:0;stroke-miterlimit:1;" x1="290.428" y1="165.189" x2="286.725" y2="166.67"/>
		
			<line style="clip-path:url(#SVGID_24_);fill:none;stroke:#000000;stroke-width:0;stroke-miterlimit:1;" x1="286.725" y1="166.67" x2="286.725" y2="168.892"/>
		
			<line style="clip-path:url(#SVGID_24_);fill:none;stroke:#000000;stroke-width:0;stroke-miterlimit:1;" x1="286.725" y1="168.892" x2="288.576" y2="170.002"/>
		
			<line style="clip-path:url(#SVGID_24_);fill:none;stroke:#000000;stroke-width:0;stroke-miterlimit:1;" x1="288.576" y1="170.002" x2="292.279" y2="169.632"/>
		
			<line style="clip-path:url(#SVGID_24_);fill:none;stroke:#000000;stroke-width:0;stroke-miterlimit:1;" x1="292.279" y1="169.632" x2="308.942" y2="168.151"/>
		
			<line style="clip-path:url(#SVGID_24_);fill:none;stroke:#000000;stroke-width:0;stroke-miterlimit:1;" x1="308.942" y1="168.151" x2="322.272" y2="170.002"/>
		
			<line style="clip-path:url(#SVGID_24_);fill:none;stroke:#000000;stroke-width:0;stroke-miterlimit:1;" x1="322.272" y1="170.002" x2="324.124" y2="169.632"/>
		
			<line style="clip-path:url(#SVGID_24_);fill:none;stroke:#000000;stroke-width:0;stroke-miterlimit:1;" x1="324.124" y1="169.632" x2="324.124" y2="167.411"/>
		
			<line style="clip-path:url(#SVGID_24_);fill:none;stroke:#000000;stroke-width:0;stroke-miterlimit:1;" x1="324.124" y1="167.411" x2="323.383" y2="165.559"/>
		
			<line style="clip-path:url(#SVGID_24_);fill:none;stroke:#000000;stroke-width:0;stroke-miterlimit:1;" x1="323.383" y1="165.559" x2="314.496" y2="163.337"/>
		
			<line style="clip-path:url(#SVGID_24_);fill:none;stroke:#000000;stroke-width:0;stroke-miterlimit:1;" x1="314.496" y1="163.337" x2="313.386" y2="162.226"/>
		
			<line style="clip-path:url(#SVGID_24_);fill:none;stroke:#000000;stroke-width:0;stroke-miterlimit:1;" x1="313.386" y1="162.226" x2="311.164" y2="136.677"/>
		
			<line style="clip-path:url(#SVGID_24_);fill:none;stroke:#000000;stroke-width:0;stroke-miterlimit:1;" x1="311.164" y1="136.677" x2="311.534" y2="131.863"/>
		
			<line style="clip-path:url(#SVGID_24_);fill:none;stroke:#000000;stroke-width:0;stroke-miterlimit:1;" x1="311.534" y1="131.863" x2="310.423" y2="128.161"/>
		
			<line style="clip-path:url(#SVGID_24_);fill:none;stroke:#000000;stroke-width:0;stroke-miterlimit:1;" x1="310.423" y1="128.161" x2="308.201" y2="121.866"/>
		
			<line style="clip-path:url(#SVGID_24_);fill:none;stroke:#000000;stroke-width:0;stroke-miterlimit:1;" x1="308.201" y1="121.866" x2="307.091" y2="108.535"/>
	</g>
	<g>
		<defs>
			<polygon id="SVGID_25_" points="0,446.4 984.138,446.4 984.138,0 0,0 0,446.4 			"/>
		</defs>
		<clipPath id="SVGID_26_">
			<use xlink:href="#SVGID_25_"  style="overflow:visible;"/>
		</clipPath>
		
			<line style="clip-path:url(#SVGID_26_);fill:none;stroke:#000000;stroke-width:0;stroke-miterlimit:1;" x1="307.461" y1="112.608" x2="314.866" y2="114.459"/>
		
			<line style="clip-path:url(#SVGID_26_);fill:none;stroke:#000000;stroke-width:0;stroke-miterlimit:1;" x1="314.866" y1="114.459" x2="324.494" y2="115.571"/>
		
			<line style="clip-path:url(#SVGID_26_);fill:none;stroke:#000000;stroke-width:0;stroke-miterlimit:1;" x1="324.494" y1="115.571" x2="331.159" y2="115.571"/>
	</g>
	<g>
		<defs>
			<polygon id="SVGID_27_" points="0,446.4 984.138,446.4 984.138,0 0,0 0,446.4 			"/>
		</defs>
		<clipPath id="SVGID_28_">
			<use xlink:href="#SVGID_27_"  style="overflow:visible;"/>
		</clipPath>
		
			<line style="clip-path:url(#SVGID_28_);fill:none;stroke:#000000;stroke-width:0;stroke-miterlimit:1;" x1="324.124" y1="166.299" x2="325.976" y2="166.67"/>
		
			<line style="clip-path:url(#SVGID_28_);fill:none;stroke:#000000;stroke-width:0;stroke-miterlimit:1;" x1="325.976" y1="166.67" x2="327.456" y2="168.151"/>
		
			<line style="clip-path:url(#SVGID_28_);fill:none;stroke:#000000;stroke-width:0;stroke-miterlimit:1;" x1="327.456" y1="168.151" x2="327.826" y2="169.632"/>
		
			<line style="clip-path:url(#SVGID_28_);fill:none;stroke:#000000;stroke-width:0;stroke-miterlimit:1;" x1="327.826" y1="169.632" x2="324.494" y2="168.892"/>
	</g>
	<g>
		<defs>
			<polygon id="SVGID_29_" points="0,446.4 984.138,446.4 984.138,0 0,0 0,446.4 			"/>
		</defs>
		<clipPath id="SVGID_30_">
			<use xlink:href="#SVGID_29_"  style="overflow:visible;"/>
		</clipPath>
		
			<line style="clip-path:url(#SVGID_30_);fill:none;stroke:#000000;stroke-width:0;stroke-miterlimit:1;" x1="277.838" y1="101.5" x2="280.8" y2="125.198"/>
		
			<line style="clip-path:url(#SVGID_30_);fill:none;stroke:#000000;stroke-width:0;stroke-miterlimit:1;" x1="280.8" y1="125.198" x2="280.43" y2="128.531"/>
		
			<line style="clip-path:url(#SVGID_30_);fill:none;stroke:#000000;stroke-width:0;stroke-miterlimit:1;" x1="280.43" y1="128.531" x2="263.026" y2="160.375"/>
		
			<line style="clip-path:url(#SVGID_30_);fill:none;stroke:#000000;stroke-width:0;stroke-miterlimit:1;" x1="263.026" y1="160.375" x2="261.916" y2="161.856"/>
		
			<line style="clip-path:url(#SVGID_30_);fill:none;stroke:#000000;stroke-width:0;stroke-miterlimit:1;" x1="261.916" y1="161.856" x2="260.064" y2="162.226"/>
		
			<line style="clip-path:url(#SVGID_30_);fill:none;stroke:#000000;stroke-width:0;stroke-miterlimit:1;" x1="260.064" y1="162.226" x2="237.847" y2="164.448"/>
		
			<line style="clip-path:url(#SVGID_30_);fill:none;stroke:#000000;stroke-width:0;stroke-miterlimit:1;" x1="237.847" y1="164.448" x2="235.996" y2="165.189"/>
		
			<line style="clip-path:url(#SVGID_30_);fill:none;stroke:#000000;stroke-width:0;stroke-miterlimit:1;" x1="235.996" y1="165.189" x2="235.996" y2="165.929"/>
		
			<line style="clip-path:url(#SVGID_30_);fill:none;stroke:#000000;stroke-width:0;stroke-miterlimit:1;" x1="235.996" y1="165.929" x2="233.774" y2="166.299"/>
		
			<line style="clip-path:url(#SVGID_30_);fill:none;stroke:#000000;stroke-width:0;stroke-miterlimit:1;" x1="233.774" y1="166.299" x2="232.663" y2="167.041"/>
		
			<line style="clip-path:url(#SVGID_30_);fill:none;stroke:#000000;stroke-width:0;stroke-miterlimit:1;" x1="232.663" y1="167.041" x2="232.293" y2="168.892"/>
		
			<line style="clip-path:url(#SVGID_30_);fill:none;stroke:#000000;stroke-width:0;stroke-miterlimit:1;" x1="232.293" y1="168.892" x2="231.922" y2="170.373"/>
		
			<line style="clip-path:url(#SVGID_30_);fill:none;stroke:#000000;stroke-width:0;stroke-miterlimit:1;" x1="231.922" y1="170.373" x2="234.885" y2="168.151"/>
		
			<line style="clip-path:url(#SVGID_30_);fill:none;stroke:#000000;stroke-width:0;stroke-miterlimit:1;" x1="234.885" y1="168.151" x2="235.625" y2="169.632"/>
		
			<line style="clip-path:url(#SVGID_30_);fill:none;stroke:#000000;stroke-width:0;stroke-miterlimit:1;" x1="235.625" y1="169.632" x2="238.588" y2="169.632"/>
	</g>
	<g>
		<defs>
			<polygon id="SVGID_31_" points="0,446.4 984.138,446.4 984.138,0 0,0 0,446.4 			"/>
		</defs>
		<clipPath id="SVGID_32_">
			<use xlink:href="#SVGID_31_"  style="overflow:visible;"/>
		</clipPath>
		
			<line style="clip-path:url(#SVGID_32_);fill:none;stroke:#000000;stroke-width:0;stroke-miterlimit:1;" x1="242.661" y1="166.299" x2="239.698" y2="167.041"/>
		
			<line style="clip-path:url(#SVGID_32_);fill:none;stroke:#000000;stroke-width:0;stroke-miterlimit:1;" x1="239.698" y1="167.041" x2="238.588" y2="168.521"/>
		
			<line style="clip-path:url(#SVGID_32_);fill:none;stroke:#000000;stroke-width:0;stroke-miterlimit:1;" x1="238.588" y1="168.521" x2="239.328" y2="170.002"/>
		
			<line style="clip-path:url(#SVGID_32_);fill:none;stroke:#000000;stroke-width:0;stroke-miterlimit:1;" x1="239.328" y1="170.002" x2="243.031" y2="168.892"/>
	</g>
	<g>
		<defs>
			<polygon id="SVGID_33_" points="0,515.479 984.138,515.479 984.138,0 0,0 0,515.479 			"/>
		</defs>
		<clipPath id="SVGID_34_">
			<use xlink:href="#SVGID_33_"  style="overflow:visible;"/>
		</clipPath>
		
			<line style="clip-path:url(#SVGID_34_);fill:none;stroke:#000000;stroke-width:0;stroke-miterlimit:1;" x1="254.88" y1="164.448" x2="245.623" y2="165.929"/>
		
			<line style="clip-path:url(#SVGID_34_);fill:none;stroke:#000000;stroke-width:0;stroke-miterlimit:1;" x1="245.623" y1="165.929" x2="243.031" y2="166.299"/>
		
			<line style="clip-path:url(#SVGID_34_);fill:none;stroke:#000000;stroke-width:0;stroke-miterlimit:1;" x1="243.031" y1="166.299" x2="243.031" y2="168.892"/>
		
			<line style="clip-path:url(#SVGID_34_);fill:none;stroke:#000000;stroke-width:0;stroke-miterlimit:1;" x1="243.031" y1="168.892" x2="244.513" y2="170.002"/>
		
			<line style="clip-path:url(#SVGID_34_);fill:none;stroke:#000000;stroke-width:0;stroke-miterlimit:1;" x1="244.513" y1="170.002" x2="259.323" y2="168.521"/>
		
			<line style="clip-path:url(#SVGID_34_);fill:none;stroke:#000000;stroke-width:0;stroke-miterlimit:1;" x1="259.323" y1="168.521" x2="264.138" y2="167.781"/>
		
			<line style="clip-path:url(#SVGID_34_);fill:none;stroke:#000000;stroke-width:0;stroke-miterlimit:1;" x1="264.138" y1="167.781" x2="272.654" y2="169.262"/>
		
			<line style="clip-path:url(#SVGID_34_);fill:none;stroke:#000000;stroke-width:0;stroke-miterlimit:1;" x1="272.654" y1="169.262" x2="275.986" y2="170.002"/>
	</g>
	<g>
		<defs>
			<polygon id="SVGID_35_" points="0,515.479 984.138,515.479 984.138,0 0,0 0,515.479 			"/>
		</defs>
		<clipPath id="SVGID_36_">
			<use xlink:href="#SVGID_35_"  style="overflow:visible;"/>
		</clipPath>
		
			<line style="clip-path:url(#SVGID_36_);fill:none;stroke:#000000;stroke-width:0;stroke-miterlimit:1;" x1="277.838" y1="165.929" x2="270.062" y2="164.078"/>
		
			<line style="clip-path:url(#SVGID_36_);fill:none;stroke:#000000;stroke-width:0;stroke-miterlimit:1;" x1="270.062" y1="164.078" x2="269.321" y2="162.967"/>
		
			<line style="clip-path:url(#SVGID_36_);fill:none;stroke:#000000;stroke-width:0;stroke-miterlimit:1;" x1="269.321" y1="162.967" x2="269.691" y2="161.116"/>
		
			<line style="clip-path:url(#SVGID_36_);fill:none;stroke:#000000;stroke-width:0;stroke-miterlimit:1;" x1="269.691" y1="161.116" x2="282.651" y2="137.788"/>
		
			<line style="clip-path:url(#SVGID_36_);fill:none;stroke:#000000;stroke-width:0;stroke-miterlimit:1;" x1="282.651" y1="137.788" x2="284.503" y2="135.566"/>
		
			<line style="clip-path:url(#SVGID_36_);fill:none;stroke:#000000;stroke-width:0;stroke-miterlimit:1;" x1="284.503" y1="135.566" x2="286.354" y2="131.863"/>
		
			<line style="clip-path:url(#SVGID_36_);fill:none;stroke:#000000;stroke-width:0;stroke-miterlimit:1;" x1="286.354" y1="131.863" x2="287.095" y2="128.161"/>
		
			<line style="clip-path:url(#SVGID_36_);fill:none;stroke:#000000;stroke-width:0;stroke-miterlimit:1;" x1="287.095" y1="128.161" x2="293.761" y2="112.978"/>
	</g>
	<g>
		<defs>
			<polygon id="SVGID_37_" points="0,515.479 984.138,515.479 984.138,0 0,0 0,515.479 			"/>
		</defs>
		<clipPath id="SVGID_38_">
			<use xlink:href="#SVGID_37_"  style="overflow:visible;"/>
		</clipPath>
		
			<line style="clip-path:url(#SVGID_38_);fill:none;stroke:#000000;stroke-width:0;stroke-miterlimit:1;" x1="245.623" y1="10.78" x2="231.922" y2="13.372"/>
		
			<line style="clip-path:url(#SVGID_38_);fill:none;stroke:#000000;stroke-width:0;stroke-miterlimit:1;" x1="231.922" y1="13.372" x2="228.96" y2="14.853"/>
		
			<line style="clip-path:url(#SVGID_38_);fill:none;stroke:#000000;stroke-width:0;stroke-miterlimit:1;" x1="228.96" y1="14.853" x2="225.998" y2="17.445"/>
		
			<line style="clip-path:url(#SVGID_38_);fill:none;stroke:#000000;stroke-width:0;stroke-miterlimit:1;" x1="225.998" y1="17.445" x2="224.146" y2="22.258"/>
		
			<line style="clip-path:url(#SVGID_38_);fill:none;stroke:#000000;stroke-width:0;stroke-miterlimit:1;" x1="224.146" y1="22.258" x2="226.368" y2="20.777"/>
		
			<line style="clip-path:url(#SVGID_38_);fill:none;stroke:#000000;stroke-width:0;stroke-miterlimit:1;" x1="226.368" y1="20.777" x2="230.812" y2="18.556"/>
		
			<line style="clip-path:url(#SVGID_38_);fill:none;stroke:#000000;stroke-width:0;stroke-miterlimit:1;" x1="230.812" y1="18.556" x2="236.366" y2="17.075"/>
		
			<line style="clip-path:url(#SVGID_38_);fill:none;stroke:#000000;stroke-width:0;stroke-miterlimit:1;" x1="236.366" y1="17.075" x2="240.068" y2="17.075"/>
		
			<line style="clip-path:url(#SVGID_38_);fill:none;stroke:#000000;stroke-width:0;stroke-miterlimit:1;" x1="240.068" y1="17.075" x2="244.142" y2="16.334"/>
	</g>
	<g>
		<defs>
			<polygon id="SVGID_39_" points="0,515.479 984.138,515.479 984.138,0 0,0 0,515.479 			"/>
		</defs>
		<clipPath id="SVGID_40_">
			<use xlink:href="#SVGID_39_"  style="overflow:visible;"/>
		</clipPath>
		
			<line style="clip-path:url(#SVGID_40_);fill:none;stroke:#000000;stroke-width:0;stroke-miterlimit:1;" x1="224.887" y1="21.888" x2="230.441" y2="21.147"/>
		
			<line style="clip-path:url(#SVGID_40_);fill:none;stroke:#000000;stroke-width:0;stroke-miterlimit:1;" x1="230.441" y1="21.147" x2="236.366" y2="20.777"/>
		
			<line style="clip-path:url(#SVGID_40_);fill:none;stroke:#000000;stroke-width:0;stroke-miterlimit:1;" x1="236.366" y1="20.777" x2="241.18" y2="21.518"/>
		
			<line style="clip-path:url(#SVGID_40_);fill:none;stroke:#000000;stroke-width:0;stroke-miterlimit:1;" x1="241.18" y1="21.518" x2="244.883" y2="21.147"/>
		
			<line style="clip-path:url(#SVGID_40_);fill:none;stroke:#000000;stroke-width:0;stroke-miterlimit:1;" x1="244.883" y1="21.147" x2="246.734" y2="21.147"/>
	</g>
	<g>
		<defs>
			<polygon id="SVGID_41_" points="0,515.479 984.138,515.479 984.138,0 0,0 0,515.479 			"/>
		</defs>
		<clipPath id="SVGID_42_">
			<use xlink:href="#SVGID_41_"  style="overflow:visible;"/>
		</clipPath>
		
			<line style="clip-path:url(#SVGID_42_);fill:none;stroke:#000000;stroke-width:0;stroke-miterlimit:1;" x1="252.658" y1="12.261" x2="253.399" y2="14.482"/>
		
			<line style="clip-path:url(#SVGID_42_);fill:none;stroke:#000000;stroke-width:0;stroke-miterlimit:1;" x1="253.399" y1="14.482" x2="254.51" y2="14.853"/>
		
			<line style="clip-path:url(#SVGID_42_);fill:none;stroke:#000000;stroke-width:0;stroke-miterlimit:1;" x1="254.51" y1="14.853" x2="255.991" y2="14.853"/>
		
			<line style="clip-path:url(#SVGID_42_);fill:none;stroke:#000000;stroke-width:0;stroke-miterlimit:1;" x1="255.991" y1="14.853" x2="257.102" y2="13.742"/>
		
			<line style="clip-path:url(#SVGID_42_);fill:none;stroke:#000000;stroke-width:0;stroke-miterlimit:1;" x1="257.102" y1="13.742" x2="257.102" y2="12.261"/>
		
			<line style="clip-path:url(#SVGID_42_);fill:none;stroke:#000000;stroke-width:0;stroke-miterlimit:1;" x1="257.102" y1="12.261" x2="256.361" y2="11.15"/>
		
			<line style="clip-path:url(#SVGID_42_);fill:none;stroke:#000000;stroke-width:0;stroke-miterlimit:1;" x1="256.361" y1="11.15" x2="254.88" y2="10.78"/>
		
			<line style="clip-path:url(#SVGID_42_);fill:none;stroke:#000000;stroke-width:0;stroke-miterlimit:1;" x1="254.88" y1="10.78" x2="253.77" y2="11.15"/>
		
			<line style="clip-path:url(#SVGID_42_);fill:none;stroke:#000000;stroke-width:0;stroke-miterlimit:1;" x1="253.77" y1="11.15" x2="252.658" y2="12.631"/>
	</g>
	<g>
		<defs>
			<polygon id="SVGID_43_" points="0,515.479 984.138,515.479 984.138,0 0,0 0,515.479 			"/>
		</defs>
		<clipPath id="SVGID_44_">
			<use xlink:href="#SVGID_43_"  style="overflow:visible;"/>
		</clipPath>
		
			<line style="clip-path:url(#SVGID_44_);fill:none;stroke:#000000;stroke-width:0;stroke-miterlimit:1;" x1="390.775" y1="8.558" x2="390.775" y2="42.624"/>
		
			<line style="clip-path:url(#SVGID_44_);fill:none;stroke:#000000;stroke-width:0;stroke-miterlimit:1;" x1="390.775" y1="42.624" x2="402.994" y2="41.143"/>
		
			<line style="clip-path:url(#SVGID_44_);fill:none;stroke:#000000;stroke-width:0;stroke-miterlimit:1;" x1="402.994" y1="41.143" x2="421.509" y2="41.884"/>
		
			<line style="clip-path:url(#SVGID_44_);fill:none;stroke:#000000;stroke-width:0;stroke-miterlimit:1;" x1="421.509" y1="41.884" x2="436.69" y2="44.105"/>
		
			<line style="clip-path:url(#SVGID_44_);fill:none;stroke:#000000;stroke-width:0;stroke-miterlimit:1;" x1="436.69" y1="44.105" x2="452.242" y2="48.549"/>
	</g>
	<g>
		<defs>
			<polygon id="SVGID_45_" points="0,515.479 984.138,515.479 984.138,0 0,0 0,515.479 			"/>
		</defs>
		<clipPath id="SVGID_46_">
			<use xlink:href="#SVGID_45_"  style="overflow:visible;"/>
		</clipPath>
		
			<line style="clip-path:url(#SVGID_46_);fill:none;stroke:#000000;stroke-width:0;stroke-miterlimit:1;" x1="452.242" y1="3.744" x2="452.242" y2="170.373"/>
		
			<line style="clip-path:url(#SVGID_46_);fill:none;stroke:#000000;stroke-width:0;stroke-miterlimit:1;" x1="452.242" y1="170.373" x2="460.019" y2="170.373"/>
		
			<line style="clip-path:url(#SVGID_46_);fill:none;stroke:#000000;stroke-width:0;stroke-miterlimit:1;" x1="460.019" y1="170.373" x2="460.019" y2="3.744"/>
		
			<line style="clip-path:url(#SVGID_46_);fill:none;stroke:#000000;stroke-width:0;stroke-miterlimit:1;" x1="460.019" y1="3.744" x2="452.242" y2="3.744"/>
		
			<line style="clip-path:url(#SVGID_46_);fill:none;stroke:#000000;stroke-width:0;stroke-miterlimit:1;" x1="452.242" y1="3.744" x2="436.69" y2="7.447"/>
		
			<line style="clip-path:url(#SVGID_46_);fill:none;stroke:#000000;stroke-width:0;stroke-miterlimit:1;" x1="436.69" y1="7.447" x2="421.509" y2="8.928"/>
		
			<line style="clip-path:url(#SVGID_46_);fill:none;stroke:#000000;stroke-width:0;stroke-miterlimit:1;" x1="421.509" y1="8.928" x2="402.994" y2="9.669"/>
		
			<line style="clip-path:url(#SVGID_46_);fill:none;stroke:#000000;stroke-width:0;stroke-miterlimit:1;" x1="402.994" y1="9.669" x2="390.775" y2="8.558"/>
	</g>
	<g>
		<defs>
			<polygon id="SVGID_47_" points="0,515.479 984.138,515.479 984.138,0 0,0 0,515.479 			"/>
		</defs>
		<clipPath id="SVGID_48_">
			<use xlink:href="#SVGID_47_"  style="overflow:visible;"/>
		</clipPath>
		
			<line style="clip-path:url(#SVGID_48_);fill:none;stroke:#000000;stroke-width:0;stroke-miterlimit:1;" x1="95.082" y1="102.487" x2="124.704" y2="169.138"/>
		
			<line style="clip-path:url(#SVGID_48_);fill:none;stroke:#000000;stroke-width:0;stroke-miterlimit:1;" x1="124.704" y1="169.138" x2="139.516" y2="169.138"/>
		
			<line style="clip-path:url(#SVGID_48_);fill:none;stroke:#000000;stroke-width:0;stroke-miterlimit:1;" x1="139.516" y1="169.138" x2="109.893" y2="102.487"/>
		
			<line style="clip-path:url(#SVGID_48_);fill:none;stroke:#000000;stroke-width:0;stroke-miterlimit:1;" x1="109.893" y1="102.487" x2="95.082" y2="102.487"/>
	</g>
	<g>
		<defs>
			<polygon id="SVGID_49_" points="0,515.479 984.138,515.479 984.138,0 0,0 0,515.479 			"/>
		</defs>
		<clipPath id="SVGID_50_">
			<use xlink:href="#SVGID_49_"  style="overflow:visible;"/>
		</clipPath>
		
			<line style="clip-path:url(#SVGID_50_);fill:none;stroke:#000000;stroke-width:0;stroke-miterlimit:1;" x1="139.886" y1="102.487" x2="169.509" y2="169.138"/>
		
			<line style="clip-path:url(#SVGID_50_);fill:none;stroke:#000000;stroke-width:0;stroke-miterlimit:1;" x1="169.509" y1="169.138" x2="184.32" y2="169.138"/>
		
			<line style="clip-path:url(#SVGID_50_);fill:none;stroke:#000000;stroke-width:0;stroke-miterlimit:1;" x1="184.32" y1="169.138" x2="154.697" y2="102.487"/>
		
			<line style="clip-path:url(#SVGID_50_);fill:none;stroke:#000000;stroke-width:0;stroke-miterlimit:1;" x1="154.697" y1="102.487" x2="139.886" y2="102.487"/>
	</g>
</g>
</svg>
