<?xml version="1.0" encoding="iso-8859-1"?>
<!-- Generator: Adobe Illustrator 16.0.1, SVG Export Plug-In . SVG Version: 6.00 Build 0)  -->
<!DOCTYPE svg PUBLIC "-//W3C//DTD SVG 1.1//EN" "http://www.w3.org/Graphics/SVG/1.1/DTD/svg11.dtd">
<svg version="1.1" id="Ebene_1" xmlns="http://www.w3.org/2000/svg" xmlns:xlink="http://www.w3.org/1999/xlink" x="0px" y="0px"
	 width="312.85px" height="148.113px" viewBox="0 0 312.85 148.113" style="enable-background:new 0 0 312.85 148.113;"
	 xml:space="preserve">
<g>
	<line style="fill:none;stroke:#000000;stroke-miterlimit:1;" x1="29.22" y1="51.755" x2="104.5" y2="51.755"/>
	<line style="fill:none;stroke:#000000;stroke-miterlimit:1;" x1="104.5" y1="51.755" x2="104.5" y2="54.726"/>
	<line style="fill:none;stroke:#000000;stroke-miterlimit:1;" x1="104.5" y1="54.726" x2="107.472" y2="55.222"/>
	<line style="fill:none;stroke:#000000;stroke-miterlimit:1;" x1="107.472" y1="55.222" x2="112.177" y2="56.708"/>
	<line style="fill:none;stroke:#000000;stroke-miterlimit:1;" x1="112.177" y1="56.708" x2="115.396" y2="58.688"/>
	<line style="fill:none;stroke:#000000;stroke-miterlimit:1;" x1="115.396" y1="58.688" x2="119.605" y2="61.66"/>
	<line style="fill:none;stroke:#000000;stroke-miterlimit:1;" x1="119.605" y1="61.66" x2="123.32" y2="65.622"/>
	<line style="fill:none;stroke:#000000;stroke-miterlimit:1;" x1="123.32" y1="65.622" x2="126.787" y2="70.327"/>
	<line style="fill:none;stroke:#000000;stroke-miterlimit:1;" x1="126.787" y1="70.327" x2="129.263" y2="75.031"/>
	<line style="fill:none;stroke:#000000;stroke-miterlimit:1;" x1="129.263" y1="75.031" x2="131.492" y2="80.975"/>
	<line style="fill:none;stroke:#000000;stroke-miterlimit:1;" x1="131.492" y1="80.975" x2="132.978" y2="86.918"/>
	<line style="fill:none;stroke:#000000;stroke-miterlimit:1;" x1="132.978" y1="86.918" x2="133.721" y2="96.824"/>
	<line style="fill:none;stroke:#000000;stroke-miterlimit:1;" x1="133.721" y1="96.824" x2="132.978" y2="102.023"/>
	<line style="fill:none;stroke:#000000;stroke-miterlimit:1;" x1="132.978" y1="102.023" x2="130.749" y2="107.967"/>
	<line style="fill:none;stroke:#000000;stroke-miterlimit:1;" x1="130.749" y1="107.967" x2="128.025" y2="110.691"/>
	<line style="fill:none;stroke:#000000;stroke-miterlimit:1;" x1="128.025" y1="110.691" x2="125.796" y2="111.186"/>
	<line style="fill:none;stroke:#000000;stroke-miterlimit:1;" x1="125.796" y1="111.186" x2="122.33" y2="110.939"/>
	<line style="fill:none;stroke:#000000;stroke-miterlimit:1;" x1="122.33" y1="110.939" x2="119.605" y2="108.709"/>
	<line style="fill:none;stroke:#000000;stroke-miterlimit:1;" x1="119.605" y1="108.709" x2="118.368" y2="105.986"/>
	<line style="fill:none;stroke:#000000;stroke-miterlimit:1;" x1="118.368" y1="105.986" x2="117.872" y2="103.014"/>
	<line style="fill:none;stroke:#000000;stroke-miterlimit:1;" x1="117.872" y1="103.014" x2="117.625" y2="100.785"/>
	<line style="fill:none;stroke:#000000;stroke-miterlimit:1;" x1="117.625" y1="100.785" x2="118.368" y2="93.109"/>
	<line style="fill:none;stroke:#000000;stroke-miterlimit:1;" x1="118.368" y1="93.109" x2="119.358" y2="84.689"/>
	<line style="fill:none;stroke:#000000;stroke-miterlimit:1;" x1="119.358" y1="84.689" x2="118.615" y2="76.023"/>
	<line style="fill:none;stroke:#000000;stroke-miterlimit:1;" x1="118.615" y1="76.023" x2="116.386" y2="69.832"/>
	<line style="fill:none;stroke:#000000;stroke-miterlimit:1;" x1="116.386" y1="69.832" x2="113.167" y2="64.879"/>
	<line style="fill:none;stroke:#000000;stroke-miterlimit:1;" x1="113.167" y1="64.879" x2="109.948" y2="61.165"/>
	<line style="fill:none;stroke:#000000;stroke-miterlimit:1;" x1="109.948" y1="61.165" x2="106.233" y2="59.679"/>
	<line style="fill:none;stroke:#000000;stroke-miterlimit:1;" x1="106.233" y1="59.679" x2="104.5" y2="59.679"/>
	<line style="fill:none;stroke:#000000;stroke-miterlimit:1;" x1="104.5" y1="59.679" x2="104.5" y2="62.403"/>
	<line style="fill:none;stroke:#000000;stroke-miterlimit:1;" x1="104.5" y1="62.403" x2="94.595" y2="62.403"/>
	<line style="fill:none;stroke:#000000;stroke-miterlimit:1;" x1="94.595" y1="62.403" x2="94.595" y2="67.603"/>
	<line style="fill:none;stroke:#000000;stroke-miterlimit:1;" x1="94.595" y1="67.603" x2="79.985" y2="67.603"/>
	<line style="fill:none;stroke:#000000;stroke-miterlimit:1;" x1="79.985" y1="67.603" x2="79.985" y2="62.403"/>
	<line style="fill:none;stroke:#000000;stroke-miterlimit:1;" x1="79.985" y1="62.403" x2="53.241" y2="62.403"/>
	<line style="fill:none;stroke:#000000;stroke-miterlimit:1;" x1="53.241" y1="62.403" x2="53.241" y2="67.603"/>
	<line style="fill:none;stroke:#000000;stroke-miterlimit:1;" x1="53.241" y1="67.603" x2="39.125" y2="67.603"/>
	<line style="fill:none;stroke:#000000;stroke-miterlimit:1;" x1="39.125" y1="67.603" x2="39.125" y2="62.403"/>
	<line style="fill:none;stroke:#000000;stroke-miterlimit:1;" x1="39.125" y1="62.403" x2="29.22" y2="62.403"/>
	<line style="fill:none;stroke:#000000;stroke-miterlimit:1;" x1="33.678" y1="51.755" x2="43.335" y2="4.457"/>
	<line style="fill:none;stroke:#000000;stroke-miterlimit:1;" x1="43.335" y1="4.457" x2="45.069" y2="1.485"/>
	<line style="fill:none;stroke:#000000;stroke-miterlimit:1;" x1="45.069" y1="1.485" x2="46.307" y2="0.495"/>
	<line style="fill:none;stroke:#000000;stroke-miterlimit:1;" x1="46.307" y1="0.495" x2="47.792" y2="0"/>
	<line style="fill:none;stroke:#000000;stroke-miterlimit:1;" x1="47.792" y1="0" x2="50.021" y2="0"/>
	<line style="fill:none;stroke:#000000;stroke-miterlimit:1;" x1="50.021" y1="0" x2="52.25" y2="1.238"/>
	<line style="fill:none;stroke:#000000;stroke-miterlimit:1;" x1="52.25" y1="1.238" x2="52.745" y2="2.724"/>
	<line style="fill:none;stroke:#000000;stroke-miterlimit:1;" x1="52.745" y1="2.724" x2="52.745" y2="4.457"/>
	<line style="fill:none;stroke:#000000;stroke-miterlimit:1;" x1="43.088" y1="51.755" x2="52.993" y2="4.209"/>
	<line style="fill:none;stroke:#000000;stroke-miterlimit:1;" x1="52.993" y1="4.209" x2="54.231" y2="1.981"/>
	<line style="fill:none;stroke:#000000;stroke-miterlimit:1;" x1="54.231" y1="1.981" x2="55.469" y2="0.743"/>
	<line style="fill:none;stroke:#000000;stroke-miterlimit:1;" x1="55.469" y1="0.743" x2="57.698" y2="0.248"/>
	<line style="fill:none;stroke:#000000;stroke-miterlimit:1;" x1="57.698" y1="0.248" x2="59.927" y2="0.99"/>
	<line style="fill:none;stroke:#000000;stroke-miterlimit:1;" x1="59.927" y1="0.99" x2="61.165" y2="1.981"/>
	<line style="fill:none;stroke:#000000;stroke-miterlimit:1;" x1="61.165" y1="1.981" x2="61.908" y2="3.467"/>
	<line style="fill:none;stroke:#000000;stroke-miterlimit:1;" x1="52.002" y1="51.755" x2="61.66" y2="4.457"/>
	<line style="fill:none;stroke:#000000;stroke-miterlimit:1;" x1="61.66" y1="4.457" x2="62.65" y2="2.229"/>
	<line style="fill:none;stroke:#000000;stroke-miterlimit:1;" x1="62.65" y1="2.229" x2="64.384" y2="0.743"/>
	<line style="fill:none;stroke:#000000;stroke-miterlimit:1;" x1="64.384" y1="0.743" x2="66.365" y2="0.495"/>
	<line style="fill:none;stroke:#000000;stroke-miterlimit:1;" x1="66.365" y1="0.495" x2="68.594" y2="0.743"/>
	<line style="fill:none;stroke:#000000;stroke-miterlimit:1;" x1="68.594" y1="0.743" x2="70.327" y2="2.229"/>
	<line style="fill:none;stroke:#000000;stroke-miterlimit:1;" x1="70.327" y1="2.229" x2="70.822" y2="4.209"/>
	<line style="fill:none;stroke:#000000;stroke-miterlimit:1;" x1="60.917" y1="51.755" x2="70.575" y2="4.953"/>
	<line style="fill:none;stroke:#000000;stroke-miterlimit:1;" x1="70.575" y1="4.953" x2="72.061" y2="2.229"/>
	<line style="fill:none;stroke:#000000;stroke-miterlimit:1;" x1="72.061" y1="2.229" x2="73.794" y2="0.743"/>
	<line style="fill:none;stroke:#000000;stroke-miterlimit:1;" x1="73.794" y1="0.743" x2="76.766" y2="0.495"/>
	<line style="fill:none;stroke:#000000;stroke-miterlimit:1;" x1="76.766" y1="0.495" x2="77.756" y2="0.743"/>
	<line style="fill:none;stroke:#000000;stroke-miterlimit:1;" x1="77.756" y1="0.743" x2="79.242" y2="1.733"/>
	<line style="fill:none;stroke:#000000;stroke-miterlimit:1;" x1="79.242" y1="1.733" x2="79.985" y2="4.209"/>
	<line style="fill:none;stroke:#000000;stroke-miterlimit:1;" x1="70.327" y1="51.755" x2="79.737" y2="5.2"/>
	<line style="fill:none;stroke:#000000;stroke-miterlimit:1;" x1="79.737" y1="5.2" x2="80.728" y2="2.724"/>
	<line style="fill:none;stroke:#000000;stroke-miterlimit:1;" x1="80.728" y1="2.724" x2="81.718" y2="1.238"/>
	<line style="fill:none;stroke:#000000;stroke-miterlimit:1;" x1="81.718" y1="1.238" x2="83.947" y2="0.248"/>
	<line style="fill:none;stroke:#000000;stroke-miterlimit:1;" x1="83.947" y1="0.248" x2="86.671" y2="0.743"/>
	<line style="fill:none;stroke:#000000;stroke-miterlimit:1;" x1="86.671" y1="0.743" x2="88.652" y2="1.981"/>
	<line style="fill:none;stroke:#000000;stroke-miterlimit:1;" x1="88.652" y1="1.981" x2="89.395" y2="3.714"/>
	<line style="fill:none;stroke:#000000;stroke-miterlimit:1;" x1="79.985" y1="51.755" x2="88.899" y2="5.448"/>
	<line style="fill:none;stroke:#000000;stroke-miterlimit:1;" x1="88.899" y1="5.448" x2="89.642" y2="2.971"/>
	<line style="fill:none;stroke:#000000;stroke-miterlimit:1;" x1="89.642" y1="2.971" x2="91.128" y2="0.99"/>
	<line style="fill:none;stroke:#000000;stroke-miterlimit:1;" x1="91.128" y1="0.99" x2="93.604" y2="0.495"/>
	<line style="fill:none;stroke:#000000;stroke-miterlimit:1;" x1="93.604" y1="0.495" x2="94.1" y2="0.248"/>
	<line style="fill:none;stroke:#000000;stroke-miterlimit:1;" x1="94.1" y1="0.248" x2="96.328" y2="1.238"/>
	<line style="fill:none;stroke:#000000;stroke-miterlimit:1;" x1="96.328" y1="1.238" x2="97.814" y2="2.724"/>
	<line style="fill:none;stroke:#000000;stroke-miterlimit:1;" x1="97.814" y1="2.724" x2="97.814" y2="4.209"/>
	<line style="fill:none;stroke:#000000;stroke-miterlimit:1;" x1="88.404" y1="51.755" x2="97.814" y2="3.962"/>
	<line style="fill:none;stroke:#000000;stroke-miterlimit:1;" x1="97.814" y1="3.962" x2="98.805" y2="1.981"/>
	<line style="fill:none;stroke:#000000;stroke-miterlimit:1;" x1="98.805" y1="1.981" x2="100.043" y2="0.743"/>
	<line style="fill:none;stroke:#000000;stroke-miterlimit:1;" x1="100.043" y1="0.743" x2="101.529" y2="0.495"/>
	<line style="fill:none;stroke:#000000;stroke-miterlimit:1;" x1="101.529" y1="0.495" x2="103.757" y2="0.495"/>
	<line style="fill:none;stroke:#000000;stroke-miterlimit:1;" x1="103.757" y1="0.495" x2="105.738" y2="1.238"/>
	<line style="fill:none;stroke:#000000;stroke-miterlimit:1;" x1="105.738" y1="1.238" x2="106.729" y2="2.724"/>
	<line style="fill:none;stroke:#000000;stroke-miterlimit:1;" x1="106.729" y1="2.724" x2="107.224" y2="5.2"/>
	<line style="fill:none;stroke:#000000;stroke-miterlimit:1;" x1="107.224" y1="5.2" x2="97.566" y2="51.755"/>
	<line style="fill:none;stroke:#000000;stroke-miterlimit:1;" x1="97.566" y1="51.755" x2="29.22" y2="51.755"/>
	<line style="fill:none;stroke:#000000;stroke-miterlimit:1;" x1="29.22" y1="51.755" x2="29.22" y2="54.974"/>
	<line style="fill:none;stroke:#000000;stroke-miterlimit:1;" x1="29.22" y1="54.974" x2="25.753" y2="55.469"/>
	<line style="fill:none;stroke:#000000;stroke-miterlimit:1;" x1="25.753" y1="55.469" x2="21.048" y2="56.955"/>
	<line style="fill:none;stroke:#000000;stroke-miterlimit:1;" x1="21.048" y1="56.955" x2="17.582" y2="58.936"/>
	<line style="fill:none;stroke:#000000;stroke-miterlimit:1;" x1="17.582" y1="58.936" x2="13.62" y2="62.155"/>
	<line style="fill:none;stroke:#000000;stroke-miterlimit:1;" x1="13.62" y1="62.155" x2="9.905" y2="66.117"/>
	<line style="fill:none;stroke:#000000;stroke-miterlimit:1;" x1="9.905" y1="66.117" x2="4.209" y2="75.775"/>
	<line style="fill:none;stroke:#000000;stroke-miterlimit:1;" x1="4.209" y1="75.775" x2="2.476" y2="81.471"/>
	<line style="fill:none;stroke:#000000;stroke-miterlimit:1;" x1="2.476" y1="81.471" x2="0.743" y2="87.414"/>
	<line style="fill:none;stroke:#000000;stroke-miterlimit:1;" x1="0.743" y1="87.414" x2="0" y2="97.318"/>
	<line style="fill:none;stroke:#000000;stroke-miterlimit:1;" x1="0" y1="97.318" x2="0.743" y2="102.52"/>
	<line style="fill:none;stroke:#000000;stroke-miterlimit:1;" x1="0.743" y1="102.52" x2="3.219" y2="108.215"/>
	<line style="fill:none;stroke:#000000;stroke-miterlimit:1;" x1="3.219" y1="108.215" x2="5.943" y2="110.939"/>
	<line style="fill:none;stroke:#000000;stroke-miterlimit:1;" x1="5.943" y1="110.939" x2="7.924" y2="111.434"/>
	<line style="fill:none;stroke:#000000;stroke-miterlimit:1;" x1="7.924" y1="111.434" x2="11.391" y2="111.186"/>
	<line style="fill:none;stroke:#000000;stroke-miterlimit:1;" x1="11.391" y1="111.186" x2="14.362" y2="108.957"/>
	<line style="fill:none;stroke:#000000;stroke-miterlimit:1;" x1="14.362" y1="108.957" x2="15.353" y2="106.234"/>
	<line style="fill:none;stroke:#000000;stroke-miterlimit:1;" x1="15.353" y1="106.234" x2="15.848" y2="103.262"/>
	<line style="fill:none;stroke:#000000;stroke-miterlimit:1;" x1="15.848" y1="103.262" x2="16.096" y2="101.033"/>
	<line style="fill:none;stroke:#000000;stroke-miterlimit:1;" x1="16.096" y1="101.033" x2="15.353" y2="93.357"/>
	<line style="fill:none;stroke:#000000;stroke-miterlimit:1;" x1="15.353" y1="93.357" x2="14.115" y2="84.938"/>
	<line style="fill:none;stroke:#000000;stroke-miterlimit:1;" x1="14.115" y1="84.938" x2="14.858" y2="76.518"/>
	<line style="fill:none;stroke:#000000;stroke-miterlimit:1;" x1="14.858" y1="76.518" x2="16.839" y2="70.327"/>
	<line style="fill:none;stroke:#000000;stroke-miterlimit:1;" x1="16.839" y1="70.327" x2="20.058" y2="65.127"/>
	<line style="fill:none;stroke:#000000;stroke-miterlimit:1;" x1="20.058" y1="65.127" x2="23.277" y2="61.412"/>
	<line style="fill:none;stroke:#000000;stroke-miterlimit:1;" x1="23.277" y1="61.412" x2="26.744" y2="59.926"/>
	<line style="fill:none;stroke:#000000;stroke-miterlimit:1;" x1="26.744" y1="59.926" x2="29.22" y2="59.679"/>
	<line style="fill:none;stroke:#000000;stroke-miterlimit:1;" x1="29.22" y1="59.679" x2="29.22" y2="61.908"/>
	<line style="fill:none;stroke:#000000;stroke-miterlimit:1;" x1="298.367" y1="50.729" x2="301.988" y2="52.045"/>
	<line style="fill:none;stroke:#000000;stroke-miterlimit:1;" x1="301.988" y1="52.045" x2="306.268" y2="54.679"/>
	<line style="fill:none;stroke:#000000;stroke-miterlimit:1;" x1="306.268" y1="54.679" x2="310.875" y2="59.287"/>
	<line style="fill:none;stroke:#000000;stroke-miterlimit:1;" x1="310.875" y1="59.287" x2="312.191" y2="64.553"/>
	<line style="fill:none;stroke:#000000;stroke-miterlimit:1;" x1="312.191" y1="64.553" x2="312.85" y2="67.844"/>
	<line style="fill:none;stroke:#000000;stroke-miterlimit:1;" x1="312.85" y1="67.844" x2="312.85" y2="73.111"/>
	<line style="fill:none;stroke:#000000;stroke-miterlimit:1;" x1="312.85" y1="73.111" x2="311.205" y2="78.707"/>
	<line style="fill:none;stroke:#000000;stroke-miterlimit:1;" x1="311.205" y1="78.707" x2="308.9" y2="83.643"/>
	<line style="fill:none;stroke:#000000;stroke-miterlimit:1;" x1="308.9" y1="83.643" x2="305.938" y2="86.605"/>
	<line style="fill:none;stroke:#000000;stroke-miterlimit:1;" x1="305.938" y1="86.605" x2="302.318" y2="88.58"/>
	<line style="fill:none;stroke:#000000;stroke-miterlimit:1;" x1="302.318" y1="88.58" x2="298.367" y2="89.896"/>
	<line style="fill:none;stroke:#000000;stroke-miterlimit:1;" x1="298.367" y1="89.896" x2="189.422" y2="89.896"/>
	<line style="fill:none;stroke:#000000;stroke-miterlimit:1;" x1="189.422" y1="89.896" x2="181.852" y2="89.568"/>
	<line style="fill:none;stroke:#000000;stroke-miterlimit:1;" x1="181.852" y1="89.568" x2="177.572" y2="87.594"/>
	<line style="fill:none;stroke:#000000;stroke-miterlimit:1;" x1="177.572" y1="87.594" x2="174.281" y2="85.289"/>
	<line style="fill:none;stroke:#000000;stroke-miterlimit:1;" x1="174.281" y1="85.289" x2="170.99" y2="80.352"/>
	<line style="fill:none;stroke:#000000;stroke-miterlimit:1;" x1="170.99" y1="80.352" x2="169.344" y2="75.744"/>
	<line style="fill:none;stroke:#000000;stroke-miterlimit:1;" x1="169.344" y1="75.744" x2="168.686" y2="71.465"/>
	<line style="fill:none;stroke:#000000;stroke-miterlimit:1;" x1="168.686" y1="71.465" x2="169.344" y2="66.528"/>
	<line style="fill:none;stroke:#000000;stroke-miterlimit:1;" x1="169.344" y1="66.528" x2="170.332" y2="61.591"/>
	<line style="fill:none;stroke:#000000;stroke-miterlimit:1;" x1="170.332" y1="61.591" x2="172.635" y2="57.641"/>
	<line style="fill:none;stroke:#000000;stroke-miterlimit:1;" x1="172.635" y1="57.641" x2="176.256" y2="54.021"/>
	<line style="fill:none;stroke:#000000;stroke-miterlimit:1;" x1="176.256" y1="54.021" x2="180.863" y2="51.387"/>
	<line style="fill:none;stroke:#000000;stroke-miterlimit:1;" x1="180.863" y1="51.387" x2="184.156" y2="50.729"/>
	<line style="fill:none;stroke:#000000;stroke-miterlimit:1;" x1="184.156" y1="50.729" x2="298.367" y2="50.729"/>
	<line style="fill:none;stroke:#000000;stroke-miterlimit:1;" x1="298.367" y1="50.729" x2="295.406" y2="55.666"/>
	<line style="fill:none;stroke:#000000;stroke-miterlimit:1;" x1="295.406" y1="55.666" x2="293.102" y2="60.274"/>
	<line style="fill:none;stroke:#000000;stroke-miterlimit:1;" x1="293.102" y1="60.274" x2="292.113" y2="65.211"/>
	<line style="fill:none;stroke:#000000;stroke-miterlimit:1;" x1="292.113" y1="65.211" x2="291.785" y2="69.819"/>
	<line style="fill:none;stroke:#000000;stroke-miterlimit:1;" x1="291.785" y1="69.819" x2="292.113" y2="74.756"/>
	<line style="fill:none;stroke:#000000;stroke-miterlimit:1;" x1="292.113" y1="74.756" x2="293.432" y2="79.693"/>
	<line style="fill:none;stroke:#000000;stroke-miterlimit:1;" x1="293.432" y1="79.693" x2="295.406" y2="84.631"/>
	<line style="fill:none;stroke:#000000;stroke-miterlimit:1;" x1="295.406" y1="84.631" x2="298.367" y2="89.238"/>
	<line style="fill:none;stroke:#000000;stroke-miterlimit:1;" x1="298.367" y1="89.238" x2="293.432" y2="86.605"/>
	<line style="fill:none;stroke:#000000;stroke-miterlimit:1;" x1="293.432" y1="86.605" x2="281.582" y2="82.656"/>
	<line style="fill:none;stroke:#000000;stroke-miterlimit:1;" x1="281.582" y1="82.656" x2="272.365" y2="80.023"/>
	<line style="fill:none;stroke:#000000;stroke-miterlimit:1;" x1="272.365" y1="80.023" x2="262.492" y2="78.047"/>
	<line style="fill:none;stroke:#000000;stroke-miterlimit:1;" x1="262.492" y1="78.047" x2="253.604" y2="75.744"/>
	<line style="fill:none;stroke:#000000;stroke-miterlimit:1;" x1="253.604" y1="75.744" x2="241.098" y2="75.414"/>
	<line style="fill:none;stroke:#000000;stroke-miterlimit:1;" x1="241.098" y1="75.414" x2="235.172" y2="75.414"/>
	<line style="fill:none;stroke:#000000;stroke-miterlimit:1;" x1="235.172" y1="75.414" x2="222.994" y2="76.73"/>
	<line style="fill:none;stroke:#000000;stroke-miterlimit:1;" x1="222.994" y1="76.73" x2="213.449" y2="79.035"/>
	<line style="fill:none;stroke:#000000;stroke-miterlimit:1;" x1="213.449" y1="79.035" x2="205.549" y2="81.01"/>
	<line style="fill:none;stroke:#000000;stroke-miterlimit:1;" x1="205.549" y1="81.01" x2="194.359" y2="84.959"/>
	<line style="fill:none;stroke:#000000;stroke-miterlimit:1;" x1="194.359" y1="84.959" x2="183.826" y2="89.238"/>
	<line style="fill:none;stroke:#000000;stroke-miterlimit:1;" x1="297.709" y1="50.729" x2="286.52" y2="55.666"/>
	<line style="fill:none;stroke:#000000;stroke-miterlimit:1;" x1="286.52" y1="55.666" x2="276.314" y2="59.287"/>
	<line style="fill:none;stroke:#000000;stroke-miterlimit:1;" x1="276.314" y1="59.287" x2="268.416" y2="61.262"/>
	<line style="fill:none;stroke:#000000;stroke-miterlimit:1;" x1="268.416" y1="61.262" x2="259.529" y2="63.565"/>
	<line style="fill:none;stroke:#000000;stroke-miterlimit:1;" x1="259.529" y1="63.565" x2="248.338" y2="64.224"/>
	<line style="fill:none;stroke:#000000;stroke-miterlimit:1;" x1="248.338" y1="64.224" x2="240.768" y2="64.882"/>
	<line style="fill:none;stroke:#000000;stroke-miterlimit:1;" x1="240.768" y1="64.882" x2="227.932" y2="63.895"/>
	<line style="fill:none;stroke:#000000;stroke-miterlimit:1;" x1="227.932" y1="63.895" x2="217.398" y2="62.249"/>
	<line style="fill:none;stroke:#000000;stroke-miterlimit:1;" x1="217.398" y1="62.249" x2="208.184" y2="59.945"/>
	<line style="fill:none;stroke:#000000;stroke-miterlimit:1;" x1="208.184" y1="59.945" x2="199.955" y2="57.641"/>
	<line style="fill:none;stroke:#000000;stroke-miterlimit:1;" x1="199.955" y1="57.641" x2="188.105" y2="53.691"/>
	<line style="fill:none;stroke:#000000;stroke-miterlimit:1;" x1="188.105" y1="53.691" x2="183.496" y2="51.387"/>
	<line style="fill:none;stroke:#000000;stroke-miterlimit:1;" x1="183.496" y1="51.387" x2="186.459" y2="55.666"/>
	<line style="fill:none;stroke:#000000;stroke-miterlimit:1;" x1="186.459" y1="55.666" x2="188.434" y2="60.274"/>
	<line style="fill:none;stroke:#000000;stroke-miterlimit:1;" x1="188.434" y1="60.274" x2="189.422" y2="65.211"/>
	<line style="fill:none;stroke:#000000;stroke-miterlimit:1;" x1="189.422" y1="65.211" x2="189.75" y2="69.819"/>
	<line style="fill:none;stroke:#000000;stroke-miterlimit:1;" x1="189.75" y1="69.819" x2="189.422" y2="74.756"/>
	<line style="fill:none;stroke:#000000;stroke-miterlimit:1;" x1="189.422" y1="74.756" x2="188.434" y2="79.693"/>
	<line style="fill:none;stroke:#000000;stroke-miterlimit:1;" x1="188.434" y1="79.693" x2="186.459" y2="84.631"/>
	<line style="fill:none;stroke:#000000;stroke-miterlimit:1;" x1="186.459" y1="84.631" x2="183.496" y2="89.238"/>
	<line style="fill:none;stroke:#000000;stroke-miterlimit:1;" x1="65.282" y1="91.654" x2="62.31" y2="93.141"/>
	<line style="fill:none;stroke:#000000;stroke-miterlimit:1;" x1="62.31" y1="93.141" x2="60.082" y2="95.863"/>
	<line style="fill:none;stroke:#000000;stroke-miterlimit:1;" x1="60.082" y1="95.863" x2="59.338" y2="98.092"/>
	<line style="fill:none;stroke:#000000;stroke-miterlimit:1;" x1="59.338" y1="98.092" x2="58.843" y2="100.322"/>
	<line style="fill:none;stroke:#000000;stroke-miterlimit:1;" x1="58.843" y1="100.322" x2="59.586" y2="103.789"/>
	<line style="fill:none;stroke:#000000;stroke-miterlimit:1;" x1="59.586" y1="103.789" x2="61.319" y2="106.018"/>
	<line style="fill:none;stroke:#000000;stroke-miterlimit:1;" x1="61.319" y1="106.018" x2="63.053" y2="107.502"/>
	<line style="fill:none;stroke:#000000;stroke-miterlimit:1;" x1="63.053" y1="107.502" x2="66.024" y2="108.492"/>
	<line style="fill:none;stroke:#000000;stroke-miterlimit:1;" x1="66.024" y1="108.492" x2="68.253" y2="109.236"/>
	<line style="fill:none;stroke:#000000;stroke-miterlimit:1;" x1="68.253" y1="109.236" x2="70.977" y2="109.236"/>
	<line style="fill:none;stroke:#000000;stroke-miterlimit:1;" x1="70.977" y1="109.236" x2="73.949" y2="107.998"/>
	<line style="fill:none;stroke:#000000;stroke-miterlimit:1;" x1="73.949" y1="107.998" x2="76.425" y2="106.76"/>
	<line style="fill:none;stroke:#000000;stroke-miterlimit:1;" x1="76.425" y1="106.76" x2="77.911" y2="105.025"/>
	<line style="fill:none;stroke:#000000;stroke-miterlimit:1;" x1="77.911" y1="105.025" x2="79.644" y2="102.551"/>
	<line style="fill:none;stroke:#000000;stroke-miterlimit:1;" x1="79.644" y1="102.551" x2="80.882" y2="99.578"/>
	<line style="fill:none;stroke:#000000;stroke-miterlimit:1;" x1="80.882" y1="99.578" x2="81.625" y2="97.102"/>
	<line style="fill:none;stroke:#000000;stroke-miterlimit:1;" x1="81.625" y1="97.102" x2="81.873" y2="94.625"/>
	<line style="fill:none;stroke:#000000;stroke-miterlimit:1;" x1="81.873" y1="94.625" x2="81.625" y2="92.893"/>
	<line style="fill:none;stroke:#000000;stroke-miterlimit:1;" x1="81.625" y1="92.893" x2="81.13" y2="89.92"/>
	<line style="fill:none;stroke:#000000;stroke-miterlimit:1;" x1="81.13" y1="89.92" x2="79.892" y2="87.445"/>
	<line style="fill:none;stroke:#000000;stroke-miterlimit:1;" x1="79.892" y1="87.445" x2="77.911" y2="84.969"/>
	<line style="fill:none;stroke:#000000;stroke-miterlimit:1;" x1="77.911" y1="84.969" x2="75.93" y2="83.234"/>
	<line style="fill:none;stroke:#000000;stroke-miterlimit:1;" x1="75.93" y1="83.234" x2="74.196" y2="82.492"/>
	<line style="fill:none;stroke:#000000;stroke-miterlimit:1;" x1="74.196" y1="82.492" x2="72.463" y2="81.748"/>
	<line style="fill:none;stroke:#000000;stroke-miterlimit:1;" x1="72.463" y1="81.748" x2="69.987" y2="81.502"/>
	<line style="fill:none;stroke:#000000;stroke-miterlimit:1;" x1="69.987" y1="81.502" x2="68.005" y2="81.254"/>
	<line style="fill:none;stroke:#000000;stroke-miterlimit:1;" x1="68.005" y1="81.254" x2="65.529" y2="81.254"/>
	<line style="fill:none;stroke:#000000;stroke-miterlimit:1;" x1="65.529" y1="81.254" x2="62.558" y2="81.502"/>
	<line style="fill:none;stroke:#000000;stroke-miterlimit:1;" x1="62.558" y1="81.502" x2="59.338" y2="82.492"/>
	<line style="fill:none;stroke:#000000;stroke-miterlimit:1;" x1="59.338" y1="82.492" x2="56.614" y2="83.979"/>
	<line style="fill:none;stroke:#000000;stroke-miterlimit:1;" x1="56.614" y1="83.979" x2="54.881" y2="85.463"/>
	<line style="fill:none;stroke:#000000;stroke-miterlimit:1;" x1="54.881" y1="85.463" x2="52.9" y2="87.197"/>
	<line style="fill:none;stroke:#000000;stroke-miterlimit:1;" x1="52.9" y1="87.197" x2="51.414" y2="88.93"/>
	<line style="fill:none;stroke:#000000;stroke-miterlimit:1;" x1="51.414" y1="88.93" x2="49.928" y2="91.654"/>
	<line style="fill:none;stroke:#000000;stroke-miterlimit:1;" x1="49.928" y1="91.654" x2="48.443" y2="94.379"/>
	<line style="fill:none;stroke:#000000;stroke-miterlimit:1;" x1="48.443" y1="94.379" x2="47.947" y2="96.854"/>
	<line style="fill:none;stroke:#000000;stroke-miterlimit:1;" x1="47.947" y1="96.854" x2="47.452" y2="100.322"/>
	<line style="fill:none;stroke:#000000;stroke-miterlimit:1;" x1="47.452" y1="100.322" x2="47.205" y2="103.789"/>
	<line style="fill:none;stroke:#000000;stroke-miterlimit:1;" x1="47.205" y1="103.789" x2="47.452" y2="106.512"/>
	<line style="fill:none;stroke:#000000;stroke-miterlimit:1;" x1="47.452" y1="106.512" x2="47.7" y2="110.475"/>
	<line style="fill:none;stroke:#000000;stroke-miterlimit:1;" x1="47.7" y1="110.475" x2="49.186" y2="114.436"/>
	<line style="fill:none;stroke:#000000;stroke-miterlimit:1;" x1="49.186" y1="114.436" x2="51.414" y2="118.895"/>
	<line style="fill:none;stroke:#000000;stroke-miterlimit:1;" x1="51.414" y1="118.895" x2="55.376" y2="124.094"/>
	<line style="fill:none;stroke:#000000;stroke-miterlimit:1;" x1="55.376" y1="124.094" x2="61.567" y2="130.037"/>
	<line style="fill:none;stroke:#000000;stroke-miterlimit:1;" x1="61.567" y1="130.037" x2="70.482" y2="137.219"/>
	<line style="fill:none;stroke:#000000;stroke-miterlimit:1;" x1="70.482" y1="137.219" x2="89.797" y2="148.113"/>
</g>
</svg>
