<?xml version="1.0" encoding="iso-8859-1"?>
<!-- Generator: Adobe Illustrator 16.0.1, SVG Export Plug-In . SVG Version: 6.00 Build 0)  -->
<!DOCTYPE svg PUBLIC "-//W3C//DTD SVG 1.1//EN" "http://www.w3.org/Graphics/SVG/1.1/DTD/svg11.dtd">
<svg version="1.1" id="Ebene_1" xmlns="http://www.w3.org/2000/svg" xmlns:xlink="http://www.w3.org/1999/xlink" x="0px" y="0px"
	 width="316.677px" height="151.2px" viewBox="0 0 316.677 151.2" style="enable-background:new 0 0 316.677 151.2;"
	 xml:space="preserve">
<g>
	<line style="fill:none;stroke:#000000;stroke-miterlimit:1;" x1="71.753" y1="39.498" x2="64.512" y2="38.839"/>
	<line style="fill:none;stroke:#000000;stroke-miterlimit:1;" x1="64.512" y1="38.839" x2="52.992" y2="39.498"/>
	<line style="fill:none;stroke:#000000;stroke-miterlimit:1;" x1="52.992" y1="39.498" x2="44.435" y2="38.51"/>
	<line style="fill:none;stroke:#000000;stroke-miterlimit:1;" x1="44.435" y1="38.51" x2="41.801" y2="39.498"/>
	<line style="fill:none;stroke:#000000;stroke-miterlimit:1;" x1="41.801" y1="39.498" x2="39.826" y2="42.13"/>
	<line style="fill:none;stroke:#000000;stroke-miterlimit:1;" x1="39.826" y1="42.13" x2="40.485" y2="46.738"/>
	<line style="fill:none;stroke:#000000;stroke-miterlimit:1;" x1="40.485" y1="46.738" x2="43.776" y2="57.271"/>
	<line style="fill:none;stroke:#000000;stroke-miterlimit:1;" x1="43.776" y1="57.271" x2="50.03" y2="67.475"/>
	<line style="fill:none;stroke:#000000;stroke-miterlimit:1;" x1="50.03" y1="67.475" x2="70.437" y2="91.831"/>
	<line style="fill:none;stroke:#000000;stroke-miterlimit:1;" x1="70.437" y1="91.831" x2="80.969" y2="101.705"/>
	<line style="fill:none;stroke:#000000;stroke-miterlimit:1;" x1="80.969" y1="101.705" x2="96.11" y2="115.858"/>
	<line style="fill:none;stroke:#000000;stroke-miterlimit:1;" x1="96.11" y1="115.858" x2="128.366" y2="147.456"/>
	<line style="fill:none;stroke:#000000;stroke-miterlimit:1;" x1="128.366" y1="147.456" x2="131.657" y2="147.456"/>
	<line style="fill:none;stroke:#000000;stroke-miterlimit:1;" x1="131.657" y1="147.456" x2="132.645" y2="145.811"/>
	<line style="fill:none;stroke:#000000;stroke-miterlimit:1;" x1="132.645" y1="145.811" x2="131.328" y2="142.849"/>
	<line style="fill:none;stroke:#000000;stroke-miterlimit:1;" x1="131.328" y1="142.849" x2="117.504" y2="111.251"/>
	<line style="fill:none;stroke:#000000;stroke-miterlimit:1;" x1="117.504" y1="111.251" x2="115.529" y2="105.326"/>
	<line style="fill:none;stroke:#000000;stroke-miterlimit:1;" x1="115.529" y1="105.326" x2="104.997" y2="79.982"/>
	<line style="fill:none;stroke:#000000;stroke-miterlimit:1;" x1="104.997" y1="79.982" x2="95.452" y2="63.525"/>
	<line style="fill:none;stroke:#000000;stroke-miterlimit:1;" x1="95.452" y1="63.525" x2="87.881" y2="52.992"/>
	<line style="fill:none;stroke:#000000;stroke-miterlimit:1;" x1="87.881" y1="52.992" x2="82.286" y2="45.422"/>
	<line style="fill:none;stroke:#000000;stroke-miterlimit:1;" x1="82.286" y1="45.422" x2="77.678" y2="38.181"/>
	<line style="fill:none;stroke:#000000;stroke-miterlimit:1;" x1="77.678" y1="38.181" x2="72.741" y2="31.598"/>
	<line style="fill:none;stroke:#000000;stroke-miterlimit:1;" x1="72.741" y1="31.598" x2="66.816" y2="24.686"/>
	<line style="fill:none;stroke:#000000;stroke-miterlimit:1;" x1="66.816" y1="24.686" x2="60.892" y2="20.736"/>
	<line style="fill:none;stroke:#000000;stroke-miterlimit:1;" x1="60.892" y1="20.736" x2="59.246" y2="13.824"/>
	<line style="fill:none;stroke:#000000;stroke-miterlimit:1;" x1="59.246" y1="13.824" x2="57.929" y2="6.254"/>
	<line style="fill:none;stroke:#000000;stroke-miterlimit:1;" x1="57.929" y1="6.254" x2="55.955" y2="1.317"/>
	<line style="fill:none;stroke:#000000;stroke-miterlimit:1;" x1="55.955" y1="1.317" x2="50.359" y2="0"/>
	<line style="fill:none;stroke:#000000;stroke-miterlimit:1;" x1="50.359" y1="0" x2="41.143" y2="0"/>
	<line style="fill:none;stroke:#000000;stroke-miterlimit:1;" x1="41.143" y1="0" x2="30.939" y2="0.33"/>
	<line style="fill:none;stroke:#000000;stroke-miterlimit:1;" x1="30.939" y1="0.33" x2="26.002" y2="1.646"/>
	<line style="fill:none;stroke:#000000;stroke-miterlimit:1;" x1="26.002" y1="1.646" x2="23.698" y2="2.304"/>
	<line style="fill:none;stroke:#000000;stroke-miterlimit:1;" x1="23.698" y1="2.304" x2="6.912" y2="4.608"/>
	<line style="fill:none;stroke:#000000;stroke-miterlimit:1;" x1="6.912" y1="4.608" x2="1.975" y2="6.912"/>
	<line style="fill:none;stroke:#000000;stroke-miterlimit:1;" x1="1.975" y1="6.912" x2="0.329" y2="9.216"/>
	<line style="fill:none;stroke:#000000;stroke-miterlimit:1;" x1="0.329" y1="9.216" x2="0" y2="13.824"/>
	<line style="fill:none;stroke:#000000;stroke-miterlimit:1;" x1="0" y1="13.824" x2="1.975" y2="10.533"/>
	<line style="fill:none;stroke:#000000;stroke-miterlimit:1;" x1="1.975" y1="10.533" x2="5.267" y2="8.887"/>
	<line style="fill:none;stroke:#000000;stroke-miterlimit:1;" x1="5.267" y1="8.887" x2="15.141" y2="8.887"/>
	<line style="fill:none;stroke:#000000;stroke-miterlimit:1;" x1="15.141" y1="8.887" x2="25.344" y2="9.216"/>
	<line style="fill:none;stroke:#000000;stroke-miterlimit:1;" x1="25.344" y1="9.216" x2="30.61" y2="10.533"/>
	<line style="fill:none;stroke:#000000;stroke-miterlimit:1;" x1="30.61" y1="10.533" x2="26.332" y2="5.267"/>
	<line style="fill:none;stroke:#000000;stroke-miterlimit:1;" x1="26.332" y1="5.267" x2="25.344" y2="1.646"/>
	<line style="fill:none;stroke:#000000;stroke-miterlimit:1;" x1="36.206" y1="8.558" x2="37.193" y2="8.229"/>
	<line style="fill:none;stroke:#000000;stroke-miterlimit:1;" x1="37.193" y1="8.229" x2="37.852" y2="6.583"/>
	<line style="fill:none;stroke:#000000;stroke-miterlimit:1;" x1="37.852" y1="6.583" x2="37.193" y2="4.938"/>
	<line style="fill:none;stroke:#000000;stroke-miterlimit:1;" x1="37.193" y1="4.938" x2="35.876" y2="3.95"/>
	<line style="fill:none;stroke:#000000;stroke-miterlimit:1;" x1="35.876" y1="3.95" x2="34.56" y2="4.938"/>
	<line style="fill:none;stroke:#000000;stroke-miterlimit:1;" x1="34.56" y1="4.938" x2="34.231" y2="6.912"/>
	<line style="fill:none;stroke:#000000;stroke-miterlimit:1;" x1="34.231" y1="6.912" x2="34.889" y2="7.899"/>
	<line style="fill:none;stroke:#000000;stroke-miterlimit:1;" x1="34.889" y1="7.899" x2="35.876" y2="8.558"/>
	<line style="fill:none;stroke:#000000;stroke-miterlimit:1;" x1="1.646" y1="11.85" x2="14.812" y2="11.52"/>
	<line style="fill:none;stroke:#000000;stroke-miterlimit:1;" x1="14.812" y1="11.52" x2="25.015" y2="12.837"/>
	<line style="fill:none;stroke:#000000;stroke-miterlimit:1;" x1="25.015" y1="12.837" x2="27.977" y2="14.482"/>
	<line style="fill:none;stroke:#000000;stroke-miterlimit:1;" x1="27.977" y1="14.482" x2="28.965" y2="17.774"/>
	<line style="fill:none;stroke:#000000;stroke-miterlimit:1;" x1="28.965" y1="17.774" x2="29.294" y2="21.395"/>
	<line style="fill:none;stroke:#000000;stroke-miterlimit:1;" x1="29.294" y1="21.395" x2="26.332" y2="28.636"/>
	<line style="fill:none;stroke:#000000;stroke-miterlimit:1;" x1="26.332" y1="28.636" x2="25.015" y2="37.522"/>
	<line style="fill:none;stroke:#000000;stroke-miterlimit:1;" x1="25.015" y1="37.522" x2="26.661" y2="48.384"/>
	<line style="fill:none;stroke:#000000;stroke-miterlimit:1;" x1="26.661" y1="48.384" x2="27.977" y2="53.321"/>
	<line style="fill:none;stroke:#000000;stroke-miterlimit:1;" x1="27.977" y1="53.321" x2="31.598" y2="63.196"/>
	<line style="fill:none;stroke:#000000;stroke-miterlimit:1;" x1="31.598" y1="63.196" x2="35.876" y2="71.095"/>
	<line style="fill:none;stroke:#000000;stroke-miterlimit:1;" x1="35.876" y1="71.095" x2="46.08" y2="88.54"/>
	<line style="fill:none;stroke:#000000;stroke-miterlimit:1;" x1="46.08" y1="88.54" x2="59.575" y2="114.213"/>
	<line style="fill:none;stroke:#000000;stroke-miterlimit:1;" x1="59.575" y1="114.213" x2="60.892" y2="124.087"/>
	<line style="fill:none;stroke:#000000;stroke-miterlimit:1;" x1="60.892" y1="124.087" x2="59.246" y2="140.873"/>
	<line style="fill:none;stroke:#000000;stroke-miterlimit:1;" x1="59.246" y1="140.873" x2="57.6" y2="142.52"/>
	<line style="fill:none;stroke:#000000;stroke-miterlimit:1;" x1="57.6" y1="142.52" x2="48.055" y2="143.507"/>
	<line style="fill:none;stroke:#000000;stroke-miterlimit:1;" x1="48.055" y1="143.507" x2="36.864" y2="143.178"/>
	<line style="fill:none;stroke:#000000;stroke-miterlimit:1;" x1="36.864" y1="143.178" x2="36.206" y2="144.823"/>
	<line style="fill:none;stroke:#000000;stroke-miterlimit:1;" x1="36.206" y1="144.823" x2="31.269" y2="145.481"/>
	<line style="fill:none;stroke:#000000;stroke-miterlimit:1;" x1="31.269" y1="145.481" x2="30.61" y2="146.469"/>
	<line style="fill:none;stroke:#000000;stroke-miterlimit:1;" x1="30.61" y1="146.469" x2="31.598" y2="147.785"/>
	<line style="fill:none;stroke:#000000;stroke-miterlimit:1;" x1="31.598" y1="147.785" x2="59.904" y2="146.798"/>
	<line style="fill:none;stroke:#000000;stroke-miterlimit:1;" x1="59.904" y1="146.798" x2="89.198" y2="148.114"/>
	<line style="fill:none;stroke:#000000;stroke-miterlimit:1;" x1="89.198" y1="148.114" x2="90.514" y2="146.798"/>
	<line style="fill:none;stroke:#000000;stroke-miterlimit:1;" x1="90.514" y1="146.798" x2="89.856" y2="145.152"/>
	<line style="fill:none;stroke:#000000;stroke-miterlimit:1;" x1="89.856" y1="145.152" x2="85.248" y2="145.152"/>
	<line style="fill:none;stroke:#000000;stroke-miterlimit:1;" x1="85.248" y1="145.152" x2="82.615" y2="142.849"/>
	<line style="fill:none;stroke:#000000;stroke-miterlimit:1;" x1="82.615" y1="142.849" x2="65.829" y2="142.52"/>
	<line style="fill:none;stroke:#000000;stroke-miterlimit:1;" x1="65.829" y1="142.52" x2="63.854" y2="141.202"/>
	<line style="fill:none;stroke:#000000;stroke-miterlimit:1;" x1="63.854" y1="141.202" x2="65.829" y2="120.467"/>
	<line style="fill:none;stroke:#000000;stroke-miterlimit:1;" x1="65.829" y1="120.467" x2="78.007" y2="126.721"/>
	<line style="fill:none;stroke:#000000;stroke-miterlimit:1;" x1="78.007" y1="126.721" x2="84.919" y2="106.313"/>
	<line style="fill:none;stroke:#000000;stroke-miterlimit:1;" x1="84.919" y1="106.313" x2="98.084" y2="139.228"/>
	<line style="fill:none;stroke:#000000;stroke-miterlimit:1;" x1="98.084" y1="139.228" x2="102.693" y2="145.152"/>
	<line style="fill:none;stroke:#000000;stroke-miterlimit:1;" x1="102.693" y1="145.152" x2="107.301" y2="147.785"/>
	<line style="fill:none;stroke:#000000;stroke-miterlimit:1;" x1="107.301" y1="147.785" x2="114.213" y2="147.785"/>
	<line style="fill:none;stroke:#000000;stroke-miterlimit:1;" x1="114.213" y1="147.785" x2="118.163" y2="146.469"/>
	<line style="fill:none;stroke:#000000;stroke-miterlimit:1;" x1="118.163" y1="146.469" x2="119.15" y2="144.494"/>
	<line style="fill:none;stroke:#000000;stroke-miterlimit:1;" x1="119.15" y1="144.494" x2="115.858" y2="135.607"/>
	<line style="fill:none;stroke:#000000;stroke-miterlimit:1;" x1="34.231" y1="68.791" x2="38.51" y2="92.818"/>
	<line style="fill:none;stroke:#000000;stroke-miterlimit:1;" x1="38.51" y1="92.818" x2="38.181" y2="111.251"/>
	<line style="fill:none;stroke:#000000;stroke-miterlimit:1;" x1="38.181" y1="111.251" x2="34.889" y2="130.012"/>
	<line style="fill:none;stroke:#000000;stroke-miterlimit:1;" x1="34.889" y1="130.012" x2="31.927" y2="139.557"/>
	<line style="fill:none;stroke:#000000;stroke-miterlimit:1;" x1="31.927" y1="139.557" x2="29.952" y2="141.861"/>
	<line style="fill:none;stroke:#000000;stroke-miterlimit:1;" x1="29.952" y1="141.861" x2="14.153" y2="142.849"/>
	<line style="fill:none;stroke:#000000;stroke-miterlimit:1;" x1="14.153" y1="142.849" x2="12.507" y2="145.152"/>
	<line style="fill:none;stroke:#000000;stroke-miterlimit:1;" x1="12.507" y1="145.152" x2="8.887" y2="145.481"/>
	<line style="fill:none;stroke:#000000;stroke-miterlimit:1;" x1="8.887" y1="145.481" x2="7.57" y2="146.469"/>
	<line style="fill:none;stroke:#000000;stroke-miterlimit:1;" x1="7.57" y1="146.469" x2="8.887" y2="147.785"/>
	<line style="fill:none;stroke:#000000;stroke-miterlimit:1;" x1="8.887" y1="147.785" x2="21.065" y2="146.798"/>
	<line style="fill:none;stroke:#000000;stroke-miterlimit:1;" x1="21.065" y1="146.798" x2="24.686" y2="147.127"/>
	<line style="fill:none;stroke:#000000;stroke-miterlimit:1;" x1="36.535" y1="143.178" x2="30.939" y2="143.836"/>
	<line style="fill:none;stroke:#000000;stroke-miterlimit:1;" x1="30.939" y1="143.836" x2="30.939" y2="143.836"/>
	<line style="fill:none;stroke:#000000;stroke-miterlimit:1;" x1="30.939" y1="143.836" x2="27.648" y2="144.494"/>
	<line style="fill:none;stroke:#000000;stroke-miterlimit:1;" x1="27.648" y1="144.494" x2="25.673" y2="147.127"/>
	<line style="fill:none;stroke:#000000;stroke-miterlimit:1;" x1="25.673" y1="147.127" x2="26.99" y2="147.785"/>
	<line style="fill:none;stroke:#000000;stroke-miterlimit:1;" x1="26.99" y1="147.785" x2="28.965" y2="145.811"/>
	<line style="fill:none;stroke:#000000;stroke-miterlimit:1;" x1="28.965" y1="145.811" x2="30.939" y2="145.481"/>
	<line style="fill:none;stroke:#000000;stroke-miterlimit:1;" x1="36.206" y1="142.849" x2="43.447" y2="115.858"/>
	<line style="fill:none;stroke:#000000;stroke-miterlimit:1;" x1="43.447" y1="115.858" x2="54.638" y2="122.441"/>
	<line style="fill:none;stroke:#000000;stroke-miterlimit:1;" x1="54.638" y1="122.441" x2="56.942" y2="110.263"/>
	<line style="fill:none;stroke:#000000;stroke-miterlimit:1;" x1="13.166" y1="143.178" x2="7.899" y2="143.836"/>
	<line style="fill:none;stroke:#000000;stroke-miterlimit:1;" x1="7.899" y1="143.836" x2="7.899" y2="143.836"/>
	<line style="fill:none;stroke:#000000;stroke-miterlimit:1;" x1="7.899" y1="143.836" x2="4.608" y2="144.494"/>
	<line style="fill:none;stroke:#000000;stroke-miterlimit:1;" x1="4.608" y1="144.494" x2="2.633" y2="147.127"/>
	<line style="fill:none;stroke:#000000;stroke-miterlimit:1;" x1="2.633" y1="147.127" x2="3.621" y2="147.785"/>
	<line style="fill:none;stroke:#000000;stroke-miterlimit:1;" x1="3.621" y1="147.785" x2="5.925" y2="145.811"/>
	<line style="fill:none;stroke:#000000;stroke-miterlimit:1;" x1="5.925" y1="145.811" x2="8.558" y2="145.481"/>
	<line style="fill:none;stroke:#000000;stroke-miterlimit:1;" x1="83.273" y1="142.849" x2="89.527" y2="143.507"/>
	<line style="fill:none;stroke:#000000;stroke-miterlimit:1;" x1="89.527" y1="143.507" x2="92.489" y2="144.494"/>
	<line style="fill:none;stroke:#000000;stroke-miterlimit:1;" x1="92.489" y1="144.494" x2="94.464" y2="147.127"/>
	<line style="fill:none;stroke:#000000;stroke-miterlimit:1;" x1="94.464" y1="147.127" x2="93.477" y2="147.785"/>
	<line style="fill:none;stroke:#000000;stroke-miterlimit:1;" x1="93.477" y1="147.785" x2="91.173" y2="145.811"/>
	<line style="fill:none;stroke:#000000;stroke-miterlimit:1;" x1="91.173" y1="145.811" x2="89.527" y2="145.481"/>
	<line style="fill:none;stroke:#000000;stroke-miterlimit:1;" x1="135.771" y1="1.029" x2="160.651" y2="57.009"/>
	<line style="fill:none;stroke:#000000;stroke-miterlimit:1;" x1="160.651" y1="57.009" x2="173.092" y2="57.009"/>
	<line style="fill:none;stroke:#000000;stroke-miterlimit:1;" x1="173.092" y1="57.009" x2="148.211" y2="1.029"/>
	<line style="fill:none;stroke:#000000;stroke-miterlimit:1;" x1="148.211" y1="1.029" x2="135.771" y2="1.029"/>
	<line style="fill:none;stroke:#000000;stroke-miterlimit:1;" x1="173.402" y1="1.029" x2="198.283" y2="57.009"/>
	<line style="fill:none;stroke:#000000;stroke-miterlimit:1;" x1="198.283" y1="57.009" x2="210.723" y2="57.009"/>
	<line style="fill:none;stroke:#000000;stroke-miterlimit:1;" x1="210.723" y1="57.009" x2="185.843" y2="1.029"/>
	<line style="fill:none;stroke:#000000;stroke-miterlimit:1;" x1="185.843" y1="1.029" x2="173.402" y2="1.029"/>
	<line style="fill:none;stroke:#000000;stroke-miterlimit:1;" x1="174.996" y1="78.234" x2="171.265" y2="80.101"/>
	<line style="fill:none;stroke:#000000;stroke-miterlimit:1;" x1="171.265" y1="80.101" x2="168.466" y2="83.521"/>
	<line style="fill:none;stroke:#000000;stroke-miterlimit:1;" x1="168.466" y1="83.521" x2="167.532" y2="86.321"/>
	<line style="fill:none;stroke:#000000;stroke-miterlimit:1;" x1="167.532" y1="86.321" x2="166.91" y2="89.12"/>
	<line style="fill:none;stroke:#000000;stroke-miterlimit:1;" x1="166.91" y1="89.12" x2="167.844" y2="93.474"/>
	<line style="fill:none;stroke:#000000;stroke-miterlimit:1;" x1="167.844" y1="93.474" x2="170.021" y2="96.272"/>
	<line style="fill:none;stroke:#000000;stroke-miterlimit:1;" x1="170.021" y1="96.272" x2="172.197" y2="98.139"/>
	<line style="fill:none;stroke:#000000;stroke-miterlimit:1;" x1="172.197" y1="98.139" x2="175.93" y2="99.383"/>
	<line style="fill:none;stroke:#000000;stroke-miterlimit:1;" x1="175.93" y1="99.383" x2="178.729" y2="100.316"/>
	<line style="fill:none;stroke:#000000;stroke-miterlimit:1;" x1="178.729" y1="100.316" x2="182.149" y2="100.316"/>
	<line style="fill:none;stroke:#000000;stroke-miterlimit:1;" x1="182.149" y1="100.316" x2="185.882" y2="98.761"/>
	<line style="fill:none;stroke:#000000;stroke-miterlimit:1;" x1="185.882" y1="98.761" x2="188.991" y2="97.206"/>
	<line style="fill:none;stroke:#000000;stroke-miterlimit:1;" x1="188.991" y1="97.206" x2="190.857" y2="95.029"/>
	<line style="fill:none;stroke:#000000;stroke-miterlimit:1;" x1="190.857" y1="95.029" x2="193.034" y2="91.919"/>
	<line style="fill:none;stroke:#000000;stroke-miterlimit:1;" x1="193.034" y1="91.919" x2="194.59" y2="88.187"/>
	<line style="fill:none;stroke:#000000;stroke-miterlimit:1;" x1="194.59" y1="88.187" x2="195.522" y2="85.077"/>
	<line style="fill:none;stroke:#000000;stroke-miterlimit:1;" x1="195.522" y1="85.077" x2="195.834" y2="81.967"/>
	<line style="fill:none;stroke:#000000;stroke-miterlimit:1;" x1="195.834" y1="81.967" x2="195.522" y2="79.79"/>
	<line style="fill:none;stroke:#000000;stroke-miterlimit:1;" x1="195.522" y1="79.79" x2="194.9" y2="76.058"/>
	<line style="fill:none;stroke:#000000;stroke-miterlimit:1;" x1="194.9" y1="76.058" x2="193.346" y2="72.948"/>
	<line style="fill:none;stroke:#000000;stroke-miterlimit:1;" x1="193.346" y1="72.948" x2="190.857" y2="69.838"/>
	<line style="fill:none;stroke:#000000;stroke-miterlimit:1;" x1="190.857" y1="69.838" x2="188.369" y2="67.661"/>
	<line style="fill:none;stroke:#000000;stroke-miterlimit:1;" x1="188.369" y1="67.661" x2="186.192" y2="66.728"/>
	<line style="fill:none;stroke:#000000;stroke-miterlimit:1;" x1="186.192" y1="66.728" x2="184.016" y2="65.795"/>
	<line style="fill:none;stroke:#000000;stroke-miterlimit:1;" x1="184.016" y1="65.795" x2="180.905" y2="65.484"/>
	<line style="fill:none;stroke:#000000;stroke-miterlimit:1;" x1="180.905" y1="65.484" x2="178.418" y2="65.173"/>
	<line style="fill:none;stroke:#000000;stroke-miterlimit:1;" x1="178.418" y1="65.173" x2="175.308" y2="65.173"/>
	<line style="fill:none;stroke:#000000;stroke-miterlimit:1;" x1="175.308" y1="65.173" x2="171.575" y2="65.484"/>
	<line style="fill:none;stroke:#000000;stroke-miterlimit:1;" x1="171.575" y1="65.484" x2="167.532" y2="66.728"/>
	<line style="fill:none;stroke:#000000;stroke-miterlimit:1;" x1="167.532" y1="66.728" x2="164.111" y2="68.594"/>
	<line style="fill:none;stroke:#000000;stroke-miterlimit:1;" x1="164.111" y1="68.594" x2="161.935" y2="70.46"/>
	<line style="fill:none;stroke:#000000;stroke-miterlimit:1;" x1="161.935" y1="70.46" x2="159.446" y2="72.637"/>
	<line style="fill:none;stroke:#000000;stroke-miterlimit:1;" x1="159.446" y1="72.637" x2="157.581" y2="74.814"/>
	<line style="fill:none;stroke:#000000;stroke-miterlimit:1;" x1="157.581" y1="74.814" x2="155.714" y2="78.234"/>
	<line style="fill:none;stroke:#000000;stroke-miterlimit:1;" x1="155.714" y1="78.234" x2="153.849" y2="81.656"/>
	<line style="fill:none;stroke:#000000;stroke-miterlimit:1;" x1="153.849" y1="81.656" x2="153.227" y2="84.766"/>
	<line style="fill:none;stroke:#000000;stroke-miterlimit:1;" x1="153.227" y1="84.766" x2="152.604" y2="89.12"/>
	<line style="fill:none;stroke:#000000;stroke-miterlimit:1;" x1="152.604" y1="89.12" x2="152.293" y2="93.474"/>
	<line style="fill:none;stroke:#000000;stroke-miterlimit:1;" x1="152.293" y1="93.474" x2="152.604" y2="96.895"/>
	<line style="fill:none;stroke:#000000;stroke-miterlimit:1;" x1="152.604" y1="96.895" x2="152.916" y2="101.871"/>
	<line style="fill:none;stroke:#000000;stroke-miterlimit:1;" x1="152.916" y1="101.871" x2="154.781" y2="106.847"/>
	<line style="fill:none;stroke:#000000;stroke-miterlimit:1;" x1="154.781" y1="106.847" x2="157.581" y2="112.445"/>
	<line style="fill:none;stroke:#000000;stroke-miterlimit:1;" x1="157.581" y1="112.445" x2="162.557" y2="118.976"/>
	<line style="fill:none;stroke:#000000;stroke-miterlimit:1;" x1="162.557" y1="118.976" x2="170.331" y2="126.44"/>
	<line style="fill:none;stroke:#000000;stroke-miterlimit:1;" x1="170.331" y1="126.44" x2="181.527" y2="135.459"/>
	<line style="fill:none;stroke:#000000;stroke-miterlimit:1;" x1="181.527" y1="135.459" x2="205.785" y2="149.144"/>
	<line style="fill:none;stroke:#000000;stroke-miterlimit:1;" x1="262.615" y1="129.147" x2="258.665" y2="124.211"/>
	<line style="fill:none;stroke:#000000;stroke-miterlimit:1;" x1="258.665" y1="124.211" x2="253.729" y2="119.273"/>
	<line style="fill:none;stroke:#000000;stroke-miterlimit:1;" x1="253.729" y1="119.273" x2="249.778" y2="114.994"/>
	<line style="fill:none;stroke:#000000;stroke-miterlimit:1;" x1="249.778" y1="114.994" x2="245.5" y2="110.387"/>
	<line style="fill:none;stroke:#000000;stroke-miterlimit:1;" x1="245.5" y1="110.387" x2="240.233" y2="105.12"/>
	<line style="fill:none;stroke:#000000;stroke-miterlimit:1;" x1="240.233" y1="105.12" x2="234.967" y2="101.171"/>
	<line style="fill:none;stroke:#000000;stroke-miterlimit:1;" x1="234.967" y1="101.171" x2="229.371" y2="97.221"/>
	<line style="fill:none;stroke:#000000;stroke-miterlimit:1;" x1="229.371" y1="97.221" x2="239.904" y2="3.086"/>
	<line style="fill:none;stroke:#000000;stroke-miterlimit:1;" x1="239.904" y1="3.086" x2="243.195" y2="4.073"/>
	<line style="fill:none;stroke:#000000;stroke-miterlimit:1;" x1="243.195" y1="4.073" x2="246.816" y2="5.719"/>
	<line style="fill:none;stroke:#000000;stroke-miterlimit:1;" x1="246.816" y1="5.719" x2="249.778" y2="8.023"/>
	<line style="fill:none;stroke:#000000;stroke-miterlimit:1;" x1="249.778" y1="8.023" x2="252.74" y2="11.644"/>
	<line style="fill:none;stroke:#000000;stroke-miterlimit:1;" x1="252.74" y1="11.644" x2="255.374" y2="15.922"/>
	<line style="fill:none;stroke:#000000;stroke-miterlimit:1;" x1="255.374" y1="15.922" x2="256.69" y2="20.53"/>
	<line style="fill:none;stroke:#000000;stroke-miterlimit:1;" x1="256.69" y1="20.53" x2="257.678" y2="24.48"/>
	<line style="fill:none;stroke:#000000;stroke-miterlimit:1;" x1="257.678" y1="24.48" x2="258.665" y2="29.747"/>
	<line style="fill:none;stroke:#000000;stroke-miterlimit:1;" x1="258.665" y1="29.747" x2="263.273" y2="150.871"/>
	<line style="fill:none;stroke:#000000;stroke-miterlimit:1;" x1="263.273" y1="150.871" x2="257.02" y2="151.2"/>
	<line style="fill:none;stroke:#000000;stroke-miterlimit:1;" x1="257.02" y1="151.2" x2="258.336" y2="123.882"/>
	<line style="fill:none;stroke:#000000;stroke-miterlimit:1;" x1="287.383" y1="151.2" x2="280.8" y2="151.2"/>
	<line style="fill:none;stroke:#000000;stroke-miterlimit:1;" x1="280.8" y1="151.2" x2="280.8" y2="19.543"/>
	<line style="fill:none;stroke:#000000;stroke-miterlimit:1;" x1="280.8" y1="19.543" x2="282.446" y2="11.644"/>
	<line style="fill:none;stroke:#000000;stroke-miterlimit:1;" x1="282.446" y1="11.644" x2="286.066" y2="7.036"/>
	<line style="fill:none;stroke:#000000;stroke-miterlimit:1;" x1="286.066" y1="7.036" x2="291.004" y2="4.402"/>
	<line style="fill:none;stroke:#000000;stroke-miterlimit:1;" x1="291.004" y1="4.402" x2="298.574" y2="3.086"/>
	<line style="fill:none;stroke:#000000;stroke-miterlimit:1;" x1="298.574" y1="3.086" x2="306.474" y2="4.731"/>
	<line style="fill:none;stroke:#000000;stroke-miterlimit:1;" x1="306.474" y1="4.731" x2="311.41" y2="7.694"/>
	<line style="fill:none;stroke:#000000;stroke-miterlimit:1;" x1="311.41" y1="7.694" x2="315.36" y2="12.96"/>
	<line style="fill:none;stroke:#000000;stroke-miterlimit:1;" x1="315.36" y1="12.96" x2="316.677" y2="19.543"/>
	<line style="fill:none;stroke:#000000;stroke-miterlimit:1;" x1="316.677" y1="19.543" x2="316.677" y2="111.703"/>
	<line style="fill:none;stroke:#000000;stroke-miterlimit:1;" x1="316.677" y1="111.703" x2="309.765" y2="111.703"/>
	<line style="fill:none;stroke:#000000;stroke-miterlimit:1;" x1="309.765" y1="111.703" x2="309.765" y2="19.543"/>
	<line style="fill:none;stroke:#000000;stroke-miterlimit:1;" x1="309.765" y1="19.543" x2="308.777" y2="15.264"/>
	<line style="fill:none;stroke:#000000;stroke-miterlimit:1;" x1="308.777" y1="15.264" x2="306.145" y2="11.973"/>
	<line style="fill:none;stroke:#000000;stroke-miterlimit:1;" x1="306.145" y1="11.973" x2="301.536" y2="10.327"/>
	<line style="fill:none;stroke:#000000;stroke-miterlimit:1;" x1="301.536" y1="10.327" x2="296.928" y2="9.998"/>
	<line style="fill:none;stroke:#000000;stroke-miterlimit:1;" x1="296.928" y1="9.998" x2="291.991" y2="11.644"/>
	<line style="fill:none;stroke:#000000;stroke-miterlimit:1;" x1="291.991" y1="11.644" x2="288.37" y2="15.922"/>
	<line style="fill:none;stroke:#000000;stroke-miterlimit:1;" x1="288.37" y1="15.922" x2="287.383" y2="21.189"/>
	<line style="fill:none;stroke:#000000;stroke-miterlimit:1;" x1="287.383" y1="21.189" x2="287.383" y2="151.2"/>
</g>
</svg>
