<?xml version="1.0" encoding="iso-8859-1"?>
<!-- Generator: Adobe Illustrator 16.0.1, SVG Export Plug-In . SVG Version: 6.00 Build 0)  -->
<!DOCTYPE svg PUBLIC "-//W3C//DTD SVG 1.1//EN" "http://www.w3.org/Graphics/SVG/1.1/DTD/svg11.dtd">
<svg version="1.1" id="Ebene_1" xmlns="http://www.w3.org/2000/svg" xmlns:xlink="http://www.w3.org/1999/xlink" x="0px" y="0px"
	 width="301.536px" height="148.115px" viewBox="0 0 301.536 148.115" style="enable-background:new 0 0 301.536 148.115;"
	 xml:space="preserve">
<g>
	<line style="fill:none;stroke:#000000;stroke-miterlimit:1;" x1="29.069" y1="51.486" x2="103.958" y2="51.486"/>
	<line style="fill:none;stroke:#000000;stroke-miterlimit:1;" x1="103.958" y1="51.486" x2="103.958" y2="54.442"/>
	<line style="fill:none;stroke:#000000;stroke-miterlimit:1;" x1="103.958" y1="54.442" x2="106.914" y2="54.935"/>
	<line style="fill:none;stroke:#000000;stroke-miterlimit:1;" x1="106.914" y1="54.935" x2="111.594" y2="56.413"/>
	<line style="fill:none;stroke:#000000;stroke-miterlimit:1;" x1="111.594" y1="56.413" x2="114.796" y2="58.384"/>
	<line style="fill:none;stroke:#000000;stroke-miterlimit:1;" x1="114.796" y1="58.384" x2="118.984" y2="61.34"/>
	<line style="fill:none;stroke:#000000;stroke-miterlimit:1;" x1="118.984" y1="61.34" x2="122.68" y2="65.281"/>
	<line style="fill:none;stroke:#000000;stroke-miterlimit:1;" x1="122.68" y1="65.281" x2="126.128" y2="69.962"/>
	<line style="fill:none;stroke:#000000;stroke-miterlimit:1;" x1="126.128" y1="69.962" x2="128.592" y2="74.642"/>
	<line style="fill:none;stroke:#000000;stroke-miterlimit:1;" x1="128.592" y1="74.642" x2="130.809" y2="80.555"/>
	<line style="fill:none;stroke:#000000;stroke-miterlimit:1;" x1="130.809" y1="80.555" x2="132.287" y2="86.467"/>
	<line style="fill:none;stroke:#000000;stroke-miterlimit:1;" x1="132.287" y1="86.467" x2="133.026" y2="96.32"/>
	<line style="fill:none;stroke:#000000;stroke-miterlimit:1;" x1="133.026" y1="96.32" x2="132.287" y2="101.494"/>
	<line style="fill:none;stroke:#000000;stroke-miterlimit:1;" x1="132.287" y1="101.494" x2="130.07" y2="107.406"/>
	<line style="fill:none;stroke:#000000;stroke-miterlimit:1;" x1="130.07" y1="107.406" x2="127.36" y2="110.115"/>
	<line style="fill:none;stroke:#000000;stroke-miterlimit:1;" x1="127.36" y1="110.115" x2="125.143" y2="110.609"/>
	<line style="fill:none;stroke:#000000;stroke-miterlimit:1;" x1="125.143" y1="110.609" x2="121.694" y2="110.361"/>
	<line style="fill:none;stroke:#000000;stroke-miterlimit:1;" x1="121.694" y1="110.361" x2="118.984" y2="108.145"/>
	<line style="fill:none;stroke:#000000;stroke-miterlimit:1;" x1="118.984" y1="108.145" x2="117.752" y2="105.436"/>
	<line style="fill:none;stroke:#000000;stroke-miterlimit:1;" x1="117.752" y1="105.436" x2="117.26" y2="102.479"/>
	<line style="fill:none;stroke:#000000;stroke-miterlimit:1;" x1="117.26" y1="102.479" x2="117.014" y2="100.262"/>
	<line style="fill:none;stroke:#000000;stroke-miterlimit:1;" x1="117.014" y1="100.262" x2="117.752" y2="92.625"/>
	<line style="fill:none;stroke:#000000;stroke-miterlimit:1;" x1="117.752" y1="92.625" x2="118.738" y2="84.25"/>
	<line style="fill:none;stroke:#000000;stroke-miterlimit:1;" x1="118.738" y1="84.25" x2="117.999" y2="75.627"/>
	<line style="fill:none;stroke:#000000;stroke-miterlimit:1;" x1="117.999" y1="75.627" x2="115.782" y2="69.469"/>
	<line style="fill:none;stroke:#000000;stroke-miterlimit:1;" x1="115.782" y1="69.469" x2="112.58" y2="64.542"/>
	<line style="fill:none;stroke:#000000;stroke-miterlimit:1;" x1="112.58" y1="64.542" x2="109.377" y2="60.847"/>
	<line style="fill:none;stroke:#000000;stroke-miterlimit:1;" x1="109.377" y1="60.847" x2="105.682" y2="59.369"/>
	<line style="fill:none;stroke:#000000;stroke-miterlimit:1;" x1="105.682" y1="59.369" x2="103.958" y2="59.369"/>
	<line style="fill:none;stroke:#000000;stroke-miterlimit:1;" x1="103.958" y1="59.369" x2="103.958" y2="62.079"/>
	<line style="fill:none;stroke:#000000;stroke-miterlimit:1;" x1="103.958" y1="62.079" x2="94.104" y2="62.079"/>
	<line style="fill:none;stroke:#000000;stroke-miterlimit:1;" x1="94.104" y1="62.079" x2="94.104" y2="67.252"/>
	<line style="fill:none;stroke:#000000;stroke-miterlimit:1;" x1="94.104" y1="67.252" x2="79.569" y2="67.252"/>
	<line style="fill:none;stroke:#000000;stroke-miterlimit:1;" x1="79.569" y1="67.252" x2="79.569" y2="62.079"/>
	<line style="fill:none;stroke:#000000;stroke-miterlimit:1;" x1="79.569" y1="62.079" x2="52.964" y2="62.079"/>
	<line style="fill:none;stroke:#000000;stroke-miterlimit:1;" x1="52.964" y1="62.079" x2="52.964" y2="67.252"/>
	<line style="fill:none;stroke:#000000;stroke-miterlimit:1;" x1="52.964" y1="67.252" x2="38.922" y2="67.252"/>
	<line style="fill:none;stroke:#000000;stroke-miterlimit:1;" x1="38.922" y1="67.252" x2="38.922" y2="62.079"/>
	<line style="fill:none;stroke:#000000;stroke-miterlimit:1;" x1="38.922" y1="62.079" x2="29.069" y2="62.079"/>
	<line style="fill:none;stroke:#000000;stroke-miterlimit:1;" x1="33.503" y1="51.486" x2="43.11" y2="4.434"/>
	<line style="fill:none;stroke:#000000;stroke-miterlimit:1;" x1="43.11" y1="4.434" x2="44.835" y2="1.478"/>
	<line style="fill:none;stroke:#000000;stroke-miterlimit:1;" x1="44.835" y1="1.478" x2="46.066" y2="0.493"/>
	<line style="fill:none;stroke:#000000;stroke-miterlimit:1;" x1="46.066" y1="0.493" x2="47.544" y2="0"/>
	<line style="fill:none;stroke:#000000;stroke-miterlimit:1;" x1="47.544" y1="0" x2="49.762" y2="0"/>
	<line style="fill:none;stroke:#000000;stroke-miterlimit:1;" x1="49.762" y1="0" x2="51.979" y2="1.232"/>
	<line style="fill:none;stroke:#000000;stroke-miterlimit:1;" x1="51.979" y1="1.232" x2="52.472" y2="2.71"/>
	<line style="fill:none;stroke:#000000;stroke-miterlimit:1;" x1="52.472" y1="2.71" x2="52.472" y2="4.434"/>
	<line style="fill:none;stroke:#000000;stroke-miterlimit:1;" x1="42.864" y1="51.486" x2="52.718" y2="4.188"/>
	<line style="fill:none;stroke:#000000;stroke-miterlimit:1;" x1="52.718" y1="4.188" x2="53.95" y2="1.971"/>
	<line style="fill:none;stroke:#000000;stroke-miterlimit:1;" x1="53.95" y1="1.971" x2="55.181" y2="0.739"/>
	<line style="fill:none;stroke:#000000;stroke-miterlimit:1;" x1="55.181" y1="0.739" x2="57.398" y2="0.247"/>
	<line style="fill:none;stroke:#000000;stroke-miterlimit:1;" x1="57.398" y1="0.247" x2="59.615" y2="0.985"/>
	<line style="fill:none;stroke:#000000;stroke-miterlimit:1;" x1="59.615" y1="0.985" x2="60.847" y2="1.971"/>
	<line style="fill:none;stroke:#000000;stroke-miterlimit:1;" x1="60.847" y1="1.971" x2="61.586" y2="3.449"/>
	<line style="fill:none;stroke:#000000;stroke-miterlimit:1;" x1="51.732" y1="51.486" x2="61.34" y2="4.434"/>
	<line style="fill:none;stroke:#000000;stroke-miterlimit:1;" x1="61.34" y1="4.434" x2="62.325" y2="2.217"/>
	<line style="fill:none;stroke:#000000;stroke-miterlimit:1;" x1="62.325" y1="2.217" x2="64.05" y2="0.739"/>
	<line style="fill:none;stroke:#000000;stroke-miterlimit:1;" x1="64.05" y1="0.739" x2="66.021" y2="0.493"/>
	<line style="fill:none;stroke:#000000;stroke-miterlimit:1;" x1="66.021" y1="0.493" x2="68.237" y2="0.739"/>
	<line style="fill:none;stroke:#000000;stroke-miterlimit:1;" x1="68.237" y1="0.739" x2="69.962" y2="2.217"/>
	<line style="fill:none;stroke:#000000;stroke-miterlimit:1;" x1="69.962" y1="2.217" x2="70.455" y2="4.188"/>
	<line style="fill:none;stroke:#000000;stroke-miterlimit:1;" x1="60.601" y1="51.486" x2="70.208" y2="4.927"/>
	<line style="fill:none;stroke:#000000;stroke-miterlimit:1;" x1="70.208" y1="4.927" x2="71.687" y2="2.217"/>
	<line style="fill:none;stroke:#000000;stroke-miterlimit:1;" x1="71.687" y1="2.217" x2="73.411" y2="0.739"/>
	<line style="fill:none;stroke:#000000;stroke-miterlimit:1;" x1="73.411" y1="0.739" x2="76.367" y2="0.493"/>
	<line style="fill:none;stroke:#000000;stroke-miterlimit:1;" x1="76.367" y1="0.493" x2="77.352" y2="0.739"/>
	<line style="fill:none;stroke:#000000;stroke-miterlimit:1;" x1="77.352" y1="0.739" x2="78.83" y2="1.725"/>
	<line style="fill:none;stroke:#000000;stroke-miterlimit:1;" x1="78.83" y1="1.725" x2="79.569" y2="4.188"/>
	<line style="fill:none;stroke:#000000;stroke-miterlimit:1;" x1="69.962" y1="51.486" x2="79.323" y2="5.173"/>
	<line style="fill:none;stroke:#000000;stroke-miterlimit:1;" x1="79.323" y1="5.173" x2="80.309" y2="2.71"/>
	<line style="fill:none;stroke:#000000;stroke-miterlimit:1;" x1="80.309" y1="2.71" x2="81.294" y2="1.232"/>
	<line style="fill:none;stroke:#000000;stroke-miterlimit:1;" x1="81.294" y1="1.232" x2="83.511" y2="0.247"/>
	<line style="fill:none;stroke:#000000;stroke-miterlimit:1;" x1="83.511" y1="0.247" x2="86.221" y2="0.739"/>
	<line style="fill:none;stroke:#000000;stroke-miterlimit:1;" x1="86.221" y1="0.739" x2="88.191" y2="1.971"/>
	<line style="fill:none;stroke:#000000;stroke-miterlimit:1;" x1="88.191" y1="1.971" x2="88.93" y2="3.695"/>
	<line style="fill:none;stroke:#000000;stroke-miterlimit:1;" x1="79.569" y1="51.486" x2="88.438" y2="5.419"/>
	<line style="fill:none;stroke:#000000;stroke-miterlimit:1;" x1="88.438" y1="5.419" x2="89.177" y2="2.956"/>
	<line style="fill:none;stroke:#000000;stroke-miterlimit:1;" x1="89.177" y1="2.956" x2="90.655" y2="0.985"/>
	<line style="fill:none;stroke:#000000;stroke-miterlimit:1;" x1="90.655" y1="0.985" x2="93.118" y2="0.493"/>
	<line style="fill:none;stroke:#000000;stroke-miterlimit:1;" x1="93.118" y1="0.493" x2="93.611" y2="0.247"/>
	<line style="fill:none;stroke:#000000;stroke-miterlimit:1;" x1="93.611" y1="0.247" x2="95.828" y2="1.232"/>
	<line style="fill:none;stroke:#000000;stroke-miterlimit:1;" x1="95.828" y1="1.232" x2="97.306" y2="2.71"/>
	<line style="fill:none;stroke:#000000;stroke-miterlimit:1;" x1="97.306" y1="2.71" x2="97.306" y2="4.188"/>
	<line style="fill:none;stroke:#000000;stroke-miterlimit:1;" x1="87.945" y1="51.486" x2="97.306" y2="3.941"/>
	<line style="fill:none;stroke:#000000;stroke-miterlimit:1;" x1="97.306" y1="3.941" x2="98.292" y2="1.971"/>
	<line style="fill:none;stroke:#000000;stroke-miterlimit:1;" x1="98.292" y1="1.971" x2="99.523" y2="0.739"/>
	<line style="fill:none;stroke:#000000;stroke-miterlimit:1;" x1="99.523" y1="0.739" x2="101.001" y2="0.493"/>
	<line style="fill:none;stroke:#000000;stroke-miterlimit:1;" x1="101.001" y1="0.493" x2="103.218" y2="0.493"/>
	<line style="fill:none;stroke:#000000;stroke-miterlimit:1;" x1="103.218" y1="0.493" x2="105.189" y2="1.232"/>
	<line style="fill:none;stroke:#000000;stroke-miterlimit:1;" x1="105.189" y1="1.232" x2="106.174" y2="2.71"/>
	<line style="fill:none;stroke:#000000;stroke-miterlimit:1;" x1="106.174" y1="2.71" x2="106.667" y2="5.173"/>
	<line style="fill:none;stroke:#000000;stroke-miterlimit:1;" x1="106.667" y1="5.173" x2="97.06" y2="51.486"/>
	<line style="fill:none;stroke:#000000;stroke-miterlimit:1;" x1="97.06" y1="51.486" x2="29.069" y2="51.486"/>
	<line style="fill:none;stroke:#000000;stroke-miterlimit:1;" x1="29.069" y1="51.486" x2="29.069" y2="54.688"/>
	<line style="fill:none;stroke:#000000;stroke-miterlimit:1;" x1="29.069" y1="54.688" x2="25.62" y2="55.181"/>
	<line style="fill:none;stroke:#000000;stroke-miterlimit:1;" x1="25.62" y1="55.181" x2="20.939" y2="56.659"/>
	<line style="fill:none;stroke:#000000;stroke-miterlimit:1;" x1="20.939" y1="56.659" x2="17.491" y2="58.63"/>
	<line style="fill:none;stroke:#000000;stroke-miterlimit:1;" x1="17.491" y1="58.63" x2="13.549" y2="61.833"/>
	<line style="fill:none;stroke:#000000;stroke-miterlimit:1;" x1="13.549" y1="61.833" x2="9.854" y2="65.774"/>
	<line style="fill:none;stroke:#000000;stroke-miterlimit:1;" x1="9.854" y1="65.774" x2="4.188" y2="75.381"/>
	<line style="fill:none;stroke:#000000;stroke-miterlimit:1;" x1="4.188" y1="75.381" x2="2.464" y2="81.047"/>
	<line style="fill:none;stroke:#000000;stroke-miterlimit:1;" x1="2.464" y1="81.047" x2="0.739" y2="86.959"/>
	<line style="fill:none;stroke:#000000;stroke-miterlimit:1;" x1="0.739" y1="86.959" x2="0" y2="96.812"/>
	<line style="fill:none;stroke:#000000;stroke-miterlimit:1;" x1="0" y1="96.812" x2="0.739" y2="101.986"/>
	<line style="fill:none;stroke:#000000;stroke-miterlimit:1;" x1="0.739" y1="101.986" x2="3.203" y2="107.652"/>
	<line style="fill:none;stroke:#000000;stroke-miterlimit:1;" x1="3.203" y1="107.652" x2="5.913" y2="110.361"/>
	<line style="fill:none;stroke:#000000;stroke-miterlimit:1;" x1="5.913" y1="110.361" x2="7.883" y2="110.855"/>
	<line style="fill:none;stroke:#000000;stroke-miterlimit:1;" x1="7.883" y1="110.855" x2="11.332" y2="110.609"/>
	<line style="fill:none;stroke:#000000;stroke-miterlimit:1;" x1="11.332" y1="110.609" x2="14.288" y2="108.391"/>
	<line style="fill:none;stroke:#000000;stroke-miterlimit:1;" x1="14.288" y1="108.391" x2="15.273" y2="105.682"/>
	<line style="fill:none;stroke:#000000;stroke-miterlimit:1;" x1="15.273" y1="105.682" x2="15.766" y2="102.725"/>
	<line style="fill:none;stroke:#000000;stroke-miterlimit:1;" x1="15.766" y1="102.725" x2="16.013" y2="100.508"/>
	<line style="fill:none;stroke:#000000;stroke-miterlimit:1;" x1="16.013" y1="100.508" x2="15.273" y2="92.871"/>
	<line style="fill:none;stroke:#000000;stroke-miterlimit:1;" x1="15.273" y1="92.871" x2="14.042" y2="84.496"/>
	<line style="fill:none;stroke:#000000;stroke-miterlimit:1;" x1="14.042" y1="84.496" x2="14.781" y2="76.121"/>
	<line style="fill:none;stroke:#000000;stroke-miterlimit:1;" x1="14.781" y1="76.121" x2="16.751" y2="69.962"/>
	<line style="fill:none;stroke:#000000;stroke-miterlimit:1;" x1="16.751" y1="69.962" x2="19.954" y2="64.789"/>
	<line style="fill:none;stroke:#000000;stroke-miterlimit:1;" x1="19.954" y1="64.789" x2="23.157" y2="61.093"/>
	<line style="fill:none;stroke:#000000;stroke-miterlimit:1;" x1="23.157" y1="61.093" x2="26.605" y2="59.615"/>
	<line style="fill:none;stroke:#000000;stroke-miterlimit:1;" x1="26.605" y1="59.615" x2="29.069" y2="59.369"/>
	<line style="fill:none;stroke:#000000;stroke-miterlimit:1;" x1="29.069" y1="59.369" x2="29.069" y2="61.586"/>
	<line style="fill:none;stroke:#000000;stroke-miterlimit:1;" x1="72.117" y1="91.947" x2="75.074" y2="93.426"/>
	<line style="fill:none;stroke:#000000;stroke-miterlimit:1;" x1="75.074" y1="93.426" x2="77.291" y2="96.137"/>
	<line style="fill:none;stroke:#000000;stroke-miterlimit:1;" x1="77.291" y1="96.137" x2="78.03" y2="98.354"/>
	<line style="fill:none;stroke:#000000;stroke-miterlimit:1;" x1="78.03" y1="98.354" x2="78.522" y2="100.57"/>
	<line style="fill:none;stroke:#000000;stroke-miterlimit:1;" x1="78.522" y1="100.57" x2="77.783" y2="104.02"/>
	<line style="fill:none;stroke:#000000;stroke-miterlimit:1;" x1="77.783" y1="104.02" x2="76.059" y2="106.236"/>
	<line style="fill:none;stroke:#000000;stroke-miterlimit:1;" x1="76.059" y1="106.236" x2="74.334" y2="107.715"/>
	<line style="fill:none;stroke:#000000;stroke-miterlimit:1;" x1="74.334" y1="107.715" x2="71.378" y2="108.699"/>
	<line style="fill:none;stroke:#000000;stroke-miterlimit:1;" x1="71.378" y1="108.699" x2="69.161" y2="109.438"/>
	<line style="fill:none;stroke:#000000;stroke-miterlimit:1;" x1="69.161" y1="109.438" x2="66.452" y2="109.438"/>
	<line style="fill:none;stroke:#000000;stroke-miterlimit:1;" x1="66.452" y1="109.438" x2="63.496" y2="108.207"/>
	<line style="fill:none;stroke:#000000;stroke-miterlimit:1;" x1="63.496" y1="108.207" x2="61.032" y2="106.975"/>
	<line style="fill:none;stroke:#000000;stroke-miterlimit:1;" x1="61.032" y1="106.975" x2="59.554" y2="105.25"/>
	<line style="fill:none;stroke:#000000;stroke-miterlimit:1;" x1="59.554" y1="105.25" x2="57.83" y2="102.787"/>
	<line style="fill:none;stroke:#000000;stroke-miterlimit:1;" x1="57.83" y1="102.787" x2="56.598" y2="99.83"/>
	<line style="fill:none;stroke:#000000;stroke-miterlimit:1;" x1="56.598" y1="99.83" x2="55.859" y2="97.367"/>
	<line style="fill:none;stroke:#000000;stroke-miterlimit:1;" x1="55.859" y1="97.367" x2="55.612" y2="94.904"/>
	<line style="fill:none;stroke:#000000;stroke-miterlimit:1;" x1="55.612" y1="94.904" x2="55.859" y2="93.18"/>
	<line style="fill:none;stroke:#000000;stroke-miterlimit:1;" x1="55.859" y1="93.18" x2="56.352" y2="90.223"/>
	<line style="fill:none;stroke:#000000;stroke-miterlimit:1;" x1="56.352" y1="90.223" x2="57.583" y2="87.76"/>
	<line style="fill:none;stroke:#000000;stroke-miterlimit:1;" x1="57.583" y1="87.76" x2="59.554" y2="85.297"/>
	<line style="fill:none;stroke:#000000;stroke-miterlimit:1;" x1="59.554" y1="85.297" x2="61.524" y2="83.572"/>
	<line style="fill:none;stroke:#000000;stroke-miterlimit:1;" x1="61.524" y1="83.572" x2="63.249" y2="82.834"/>
	<line style="fill:none;stroke:#000000;stroke-miterlimit:1;" x1="63.249" y1="82.834" x2="64.974" y2="82.094"/>
	<line style="fill:none;stroke:#000000;stroke-miterlimit:1;" x1="64.974" y1="82.094" x2="67.437" y2="81.848"/>
	<line style="fill:none;stroke:#000000;stroke-miterlimit:1;" x1="67.437" y1="81.848" x2="69.408" y2="81.602"/>
	<line style="fill:none;stroke:#000000;stroke-miterlimit:1;" x1="69.408" y1="81.602" x2="71.871" y2="81.602"/>
	<line style="fill:none;stroke:#000000;stroke-miterlimit:1;" x1="71.871" y1="81.602" x2="74.827" y2="81.848"/>
	<line style="fill:none;stroke:#000000;stroke-miterlimit:1;" x1="74.827" y1="81.848" x2="78.03" y2="82.834"/>
	<line style="fill:none;stroke:#000000;stroke-miterlimit:1;" x1="78.03" y1="82.834" x2="80.739" y2="84.311"/>
	<line style="fill:none;stroke:#000000;stroke-miterlimit:1;" x1="80.739" y1="84.311" x2="82.464" y2="85.789"/>
	<line style="fill:none;stroke:#000000;stroke-miterlimit:1;" x1="82.464" y1="85.789" x2="84.435" y2="87.514"/>
	<line style="fill:none;stroke:#000000;stroke-miterlimit:1;" x1="84.435" y1="87.514" x2="85.913" y2="89.238"/>
	<line style="fill:none;stroke:#000000;stroke-miterlimit:1;" x1="85.913" y1="89.238" x2="87.391" y2="91.947"/>
	<line style="fill:none;stroke:#000000;stroke-miterlimit:1;" x1="87.391" y1="91.947" x2="88.869" y2="94.658"/>
	<line style="fill:none;stroke:#000000;stroke-miterlimit:1;" x1="88.869" y1="94.658" x2="89.361" y2="97.121"/>
	<line style="fill:none;stroke:#000000;stroke-miterlimit:1;" x1="89.361" y1="97.121" x2="89.854" y2="100.57"/>
	<line style="fill:none;stroke:#000000;stroke-miterlimit:1;" x1="89.854" y1="100.57" x2="90.101" y2="104.02"/>
	<line style="fill:none;stroke:#000000;stroke-miterlimit:1;" x1="90.101" y1="104.02" x2="89.854" y2="106.729"/>
	<line style="fill:none;stroke:#000000;stroke-miterlimit:1;" x1="89.854" y1="106.729" x2="89.608" y2="110.67"/>
	<line style="fill:none;stroke:#000000;stroke-miterlimit:1;" x1="89.608" y1="110.67" x2="88.13" y2="114.611"/>
	<line style="fill:none;stroke:#000000;stroke-miterlimit:1;" x1="88.13" y1="114.611" x2="85.913" y2="119.045"/>
	<line style="fill:none;stroke:#000000;stroke-miterlimit:1;" x1="85.913" y1="119.045" x2="81.971" y2="124.219"/>
	<line style="fill:none;stroke:#000000;stroke-miterlimit:1;" x1="81.971" y1="124.219" x2="75.812" y2="130.131"/>
	<line style="fill:none;stroke:#000000;stroke-miterlimit:1;" x1="75.812" y1="130.131" x2="66.944" y2="137.275"/>
	<line style="fill:none;stroke:#000000;stroke-miterlimit:1;" x1="66.944" y1="137.275" x2="47.729" y2="148.115"/>
	<line style="fill:none;stroke:#000000;stroke-miterlimit:1;" x1="287.054" y1="0.329" x2="290.675" y2="1.646"/>
	<line style="fill:none;stroke:#000000;stroke-miterlimit:1;" x1="290.675" y1="1.646" x2="294.953" y2="4.279"/>
	<line style="fill:none;stroke:#000000;stroke-miterlimit:1;" x1="294.953" y1="4.279" x2="299.562" y2="8.887"/>
	<line style="fill:none;stroke:#000000;stroke-miterlimit:1;" x1="299.562" y1="8.887" x2="300.878" y2="14.153"/>
	<line style="fill:none;stroke:#000000;stroke-miterlimit:1;" x1="300.878" y1="14.153" x2="301.536" y2="17.445"/>
	<line style="fill:none;stroke:#000000;stroke-miterlimit:1;" x1="301.536" y1="17.445" x2="301.536" y2="22.711"/>
	<line style="fill:none;stroke:#000000;stroke-miterlimit:1;" x1="301.536" y1="22.711" x2="299.891" y2="28.306"/>
	<line style="fill:none;stroke:#000000;stroke-miterlimit:1;" x1="299.891" y1="28.306" x2="297.587" y2="33.244"/>
	<line style="fill:none;stroke:#000000;stroke-miterlimit:1;" x1="297.587" y1="33.244" x2="294.624" y2="36.206"/>
	<line style="fill:none;stroke:#000000;stroke-miterlimit:1;" x1="294.624" y1="36.206" x2="291.004" y2="38.181"/>
	<line style="fill:none;stroke:#000000;stroke-miterlimit:1;" x1="291.004" y1="38.181" x2="287.054" y2="39.497"/>
	<line style="fill:none;stroke:#000000;stroke-miterlimit:1;" x1="287.054" y1="39.497" x2="178.107" y2="39.497"/>
	<line style="fill:none;stroke:#000000;stroke-miterlimit:1;" x1="178.107" y1="39.497" x2="170.537" y2="39.168"/>
	<line style="fill:none;stroke:#000000;stroke-miterlimit:1;" x1="170.537" y1="39.168" x2="166.259" y2="37.193"/>
	<line style="fill:none;stroke:#000000;stroke-miterlimit:1;" x1="166.259" y1="37.193" x2="162.967" y2="34.889"/>
	<line style="fill:none;stroke:#000000;stroke-miterlimit:1;" x1="162.967" y1="34.889" x2="159.676" y2="29.952"/>
	<line style="fill:none;stroke:#000000;stroke-miterlimit:1;" x1="159.676" y1="29.952" x2="158.03" y2="25.344"/>
	<line style="fill:none;stroke:#000000;stroke-miterlimit:1;" x1="158.03" y1="25.344" x2="157.372" y2="21.065"/>
	<line style="fill:none;stroke:#000000;stroke-miterlimit:1;" x1="157.372" y1="21.065" x2="158.03" y2="16.128"/>
	<line style="fill:none;stroke:#000000;stroke-miterlimit:1;" x1="158.03" y1="16.128" x2="159.018" y2="11.191"/>
	<line style="fill:none;stroke:#000000;stroke-miterlimit:1;" x1="159.018" y1="11.191" x2="161.321" y2="7.241"/>
	<line style="fill:none;stroke:#000000;stroke-miterlimit:1;" x1="161.321" y1="7.241" x2="164.942" y2="3.621"/>
	<line style="fill:none;stroke:#000000;stroke-miterlimit:1;" x1="164.942" y1="3.621" x2="169.55" y2="0.987"/>
	<line style="fill:none;stroke:#000000;stroke-miterlimit:1;" x1="169.55" y1="0.987" x2="172.842" y2="0.329"/>
	<line style="fill:none;stroke:#000000;stroke-miterlimit:1;" x1="172.842" y1="0.329" x2="287.054" y2="0.329"/>
	<line style="fill:none;stroke:#000000;stroke-miterlimit:1;" x1="287.054" y1="0.329" x2="284.092" y2="5.266"/>
	<line style="fill:none;stroke:#000000;stroke-miterlimit:1;" x1="284.092" y1="5.266" x2="281.788" y2="9.875"/>
	<line style="fill:none;stroke:#000000;stroke-miterlimit:1;" x1="281.788" y1="9.875" x2="280.8" y2="14.812"/>
	<line style="fill:none;stroke:#000000;stroke-miterlimit:1;" x1="280.8" y1="14.812" x2="280.471" y2="19.419"/>
	<line style="fill:none;stroke:#000000;stroke-miterlimit:1;" x1="280.471" y1="19.419" x2="280.8" y2="24.356"/>
	<line style="fill:none;stroke:#000000;stroke-miterlimit:1;" x1="280.8" y1="24.356" x2="282.117" y2="29.294"/>
	<line style="fill:none;stroke:#000000;stroke-miterlimit:1;" x1="282.117" y1="29.294" x2="284.092" y2="34.231"/>
	<line style="fill:none;stroke:#000000;stroke-miterlimit:1;" x1="284.092" y1="34.231" x2="287.054" y2="38.839"/>
	<line style="fill:none;stroke:#000000;stroke-miterlimit:1;" x1="287.054" y1="38.839" x2="282.117" y2="36.206"/>
	<line style="fill:none;stroke:#000000;stroke-miterlimit:1;" x1="282.117" y1="36.206" x2="270.268" y2="32.256"/>
	<line style="fill:none;stroke:#000000;stroke-miterlimit:1;" x1="270.268" y1="32.256" x2="261.052" y2="29.623"/>
	<line style="fill:none;stroke:#000000;stroke-miterlimit:1;" x1="261.052" y1="29.623" x2="251.178" y2="27.648"/>
	<line style="fill:none;stroke:#000000;stroke-miterlimit:1;" x1="251.178" y1="27.648" x2="242.29" y2="25.344"/>
	<line style="fill:none;stroke:#000000;stroke-miterlimit:1;" x1="242.29" y1="25.344" x2="229.783" y2="25.015"/>
	<line style="fill:none;stroke:#000000;stroke-miterlimit:1;" x1="229.783" y1="25.015" x2="223.858" y2="25.015"/>
	<line style="fill:none;stroke:#000000;stroke-miterlimit:1;" x1="223.858" y1="25.015" x2="211.681" y2="26.332"/>
	<line style="fill:none;stroke:#000000;stroke-miterlimit:1;" x1="211.681" y1="26.332" x2="202.135" y2="28.636"/>
	<line style="fill:none;stroke:#000000;stroke-miterlimit:1;" x1="202.135" y1="28.636" x2="194.235" y2="30.61"/>
	<line style="fill:none;stroke:#000000;stroke-miterlimit:1;" x1="194.235" y1="30.61" x2="183.045" y2="34.56"/>
	<line style="fill:none;stroke:#000000;stroke-miterlimit:1;" x1="183.045" y1="34.56" x2="172.513" y2="38.839"/>
	<line style="fill:none;stroke:#000000;stroke-miterlimit:1;" x1="286.396" y1="0.329" x2="275.205" y2="5.266"/>
	<line style="fill:none;stroke:#000000;stroke-miterlimit:1;" x1="275.205" y1="5.266" x2="265.001" y2="8.887"/>
	<line style="fill:none;stroke:#000000;stroke-miterlimit:1;" x1="265.001" y1="8.887" x2="257.102" y2="10.862"/>
	<line style="fill:none;stroke:#000000;stroke-miterlimit:1;" x1="257.102" y1="10.862" x2="248.215" y2="13.166"/>
	<line style="fill:none;stroke:#000000;stroke-miterlimit:1;" x1="248.215" y1="13.166" x2="237.024" y2="13.824"/>
	<line style="fill:none;stroke:#000000;stroke-miterlimit:1;" x1="237.024" y1="13.824" x2="229.454" y2="14.482"/>
	<line style="fill:none;stroke:#000000;stroke-miterlimit:1;" x1="229.454" y1="14.482" x2="216.617" y2="13.495"/>
	<line style="fill:none;stroke:#000000;stroke-miterlimit:1;" x1="216.617" y1="13.495" x2="206.085" y2="11.849"/>
	<line style="fill:none;stroke:#000000;stroke-miterlimit:1;" x1="206.085" y1="11.849" x2="196.869" y2="9.545"/>
	<line style="fill:none;stroke:#000000;stroke-miterlimit:1;" x1="196.869" y1="9.545" x2="188.641" y2="7.241"/>
	<line style="fill:none;stroke:#000000;stroke-miterlimit:1;" x1="188.641" y1="7.241" x2="176.791" y2="3.292"/>
	<line style="fill:none;stroke:#000000;stroke-miterlimit:1;" x1="176.791" y1="3.292" x2="172.183" y2="0.987"/>
	<line style="fill:none;stroke:#000000;stroke-miterlimit:1;" x1="172.183" y1="0.987" x2="175.146" y2="5.266"/>
	<line style="fill:none;stroke:#000000;stroke-miterlimit:1;" x1="175.146" y1="5.266" x2="177.12" y2="9.875"/>
	<line style="fill:none;stroke:#000000;stroke-miterlimit:1;" x1="177.12" y1="9.875" x2="178.107" y2="14.812"/>
	<line style="fill:none;stroke:#000000;stroke-miterlimit:1;" x1="178.107" y1="14.812" x2="178.437" y2="19.419"/>
	<line style="fill:none;stroke:#000000;stroke-miterlimit:1;" x1="178.437" y1="19.419" x2="178.107" y2="24.356"/>
	<line style="fill:none;stroke:#000000;stroke-miterlimit:1;" x1="178.107" y1="24.356" x2="177.12" y2="29.294"/>
	<line style="fill:none;stroke:#000000;stroke-miterlimit:1;" x1="177.12" y1="29.294" x2="175.146" y2="34.231"/>
	<line style="fill:none;stroke:#000000;stroke-miterlimit:1;" x1="175.146" y1="34.231" x2="172.183" y2="38.839"/>
	<line style="fill:none;stroke:#000000;stroke-miterlimit:1;" x1="172.8" y1="87.018" x2="172.8" y2="146.264"/>
	<line style="fill:none;stroke:#000000;stroke-miterlimit:1;" x1="172.8" y1="146.264" x2="183.333" y2="146.264"/>
	<line style="fill:none;stroke:#000000;stroke-miterlimit:1;" x1="183.333" y1="146.264" x2="183.333" y2="87.018"/>
	<line style="fill:none;stroke:#000000;stroke-miterlimit:1;" x1="183.333" y1="87.018" x2="172.8" y2="87.018"/>
	<line style="fill:none;stroke:#000000;stroke-miterlimit:1;" x1="225.463" y1="87.018" x2="225.463" y2="146.264"/>
	<line style="fill:none;stroke:#000000;stroke-miterlimit:1;" x1="225.463" y1="146.264" x2="236.325" y2="146.264"/>
	<line style="fill:none;stroke:#000000;stroke-miterlimit:1;" x1="236.325" y1="146.264" x2="236.325" y2="87.018"/>
	<line style="fill:none;stroke:#000000;stroke-miterlimit:1;" x1="236.325" y1="87.018" x2="225.463" y2="87.018"/>
	<line style="fill:none;stroke:#000000;stroke-miterlimit:1;" x1="278.784" y1="87.018" x2="278.784" y2="146.264"/>
	<line style="fill:none;stroke:#000000;stroke-miterlimit:1;" x1="278.784" y1="146.264" x2="289.316" y2="146.264"/>
	<line style="fill:none;stroke:#000000;stroke-miterlimit:1;" x1="289.316" y1="146.264" x2="289.316" y2="87.018"/>
	<line style="fill:none;stroke:#000000;stroke-miterlimit:1;" x1="289.316" y1="87.018" x2="278.784" y2="87.018"/>
</g>
</svg>
