<?xml version="1.0" encoding="iso-8859-1"?>
<!-- Generator: Adobe Illustrator 16.0.1, SVG Export Plug-In . SVG Version: 6.00 Build 0)  -->
<!DOCTYPE svg PUBLIC "-//W3C//DTD SVG 1.1//EN" "http://www.w3.org/Graphics/SVG/1.1/DTD/svg11.dtd">
<svg version="1.1" id="Ebene_1" xmlns="http://www.w3.org/2000/svg" xmlns:xlink="http://www.w3.org/1999/xlink" x="0px" y="0px"
	 width="95.35px" height="148.115px" viewBox="0 0 95.35 148.115" style="enable-background:new 0 0 95.35 148.115;"
	 xml:space="preserve">
<g>
	<line style="fill:none;stroke:#000000;stroke-miterlimit:1;" x1="22.686" y1="33.145" x2="70.896" y2="33.145"/>
	<line style="fill:none;stroke:#000000;stroke-miterlimit:1;" x1="70.896" y1="33.145" x2="70.896" y2="35.047"/>
	<line style="fill:none;stroke:#000000;stroke-miterlimit:1;" x1="70.896" y1="35.047" x2="72.799" y2="35.365"/>
	<line style="fill:none;stroke:#000000;stroke-miterlimit:1;" x1="72.799" y1="35.365" x2="75.812" y2="36.316"/>
	<line style="fill:none;stroke:#000000;stroke-miterlimit:1;" x1="75.812" y1="36.316" x2="77.875" y2="37.585"/>
	<line style="fill:none;stroke:#000000;stroke-miterlimit:1;" x1="77.875" y1="37.585" x2="80.57" y2="39.488"/>
	<line style="fill:none;stroke:#000000;stroke-miterlimit:1;" x1="80.57" y1="39.488" x2="82.949" y2="42.025"/>
	<line style="fill:none;stroke:#000000;stroke-miterlimit:1;" x1="82.949" y1="42.025" x2="85.17" y2="45.039"/>
	<line style="fill:none;stroke:#000000;stroke-miterlimit:1;" x1="85.17" y1="45.039" x2="86.756" y2="48.052"/>
	<line style="fill:none;stroke:#000000;stroke-miterlimit:1;" x1="86.756" y1="48.052" x2="88.182" y2="51.858"/>
	<line style="fill:none;stroke:#000000;stroke-miterlimit:1;" x1="88.182" y1="51.858" x2="89.133" y2="55.664"/>
	<line style="fill:none;stroke:#000000;stroke-miterlimit:1;" x1="89.133" y1="55.664" x2="89.609" y2="62.007"/>
	<line style="fill:none;stroke:#000000;stroke-miterlimit:1;" x1="89.609" y1="62.007" x2="89.133" y2="65.337"/>
	<line style="fill:none;stroke:#000000;stroke-miterlimit:1;" x1="89.133" y1="65.337" x2="87.707" y2="69.144"/>
	<line style="fill:none;stroke:#000000;stroke-miterlimit:1;" x1="87.707" y1="69.144" x2="85.963" y2="70.888"/>
	<line style="fill:none;stroke:#000000;stroke-miterlimit:1;" x1="85.963" y1="70.888" x2="84.535" y2="71.205"/>
	<line style="fill:none;stroke:#000000;stroke-miterlimit:1;" x1="84.535" y1="71.205" x2="82.314" y2="71.046"/>
	<line style="fill:none;stroke:#000000;stroke-miterlimit:1;" x1="82.314" y1="71.046" x2="80.57" y2="69.619"/>
	<line style="fill:none;stroke:#000000;stroke-miterlimit:1;" x1="80.57" y1="69.619" x2="79.777" y2="67.875"/>
	<line style="fill:none;stroke:#000000;stroke-miterlimit:1;" x1="79.777" y1="67.875" x2="79.459" y2="65.972"/>
	<line style="fill:none;stroke:#000000;stroke-miterlimit:1;" x1="79.459" y1="65.972" x2="79.301" y2="64.544"/>
	<line style="fill:none;stroke:#000000;stroke-miterlimit:1;" x1="79.301" y1="64.544" x2="79.777" y2="59.628"/>
	<line style="fill:none;stroke:#000000;stroke-miterlimit:1;" x1="79.777" y1="59.628" x2="80.412" y2="54.236"/>
	<line style="fill:none;stroke:#000000;stroke-miterlimit:1;" x1="80.412" y1="54.236" x2="79.936" y2="48.686"/>
	<line style="fill:none;stroke:#000000;stroke-miterlimit:1;" x1="79.936" y1="48.686" x2="78.508" y2="44.721"/>
	<line style="fill:none;stroke:#000000;stroke-miterlimit:1;" x1="78.508" y1="44.721" x2="76.447" y2="41.55"/>
	<line style="fill:none;stroke:#000000;stroke-miterlimit:1;" x1="76.447" y1="41.55" x2="74.385" y2="39.171"/>
	<line style="fill:none;stroke:#000000;stroke-miterlimit:1;" x1="74.385" y1="39.171" x2="72.006" y2="38.219"/>
	<line style="fill:none;stroke:#000000;stroke-miterlimit:1;" x1="72.006" y1="38.219" x2="70.896" y2="38.219"/>
	<line style="fill:none;stroke:#000000;stroke-miterlimit:1;" x1="70.896" y1="38.219" x2="70.896" y2="39.964"/>
	<line style="fill:none;stroke:#000000;stroke-miterlimit:1;" x1="70.896" y1="39.964" x2="64.553" y2="39.964"/>
	<line style="fill:none;stroke:#000000;stroke-miterlimit:1;" x1="64.553" y1="39.964" x2="64.553" y2="43.294"/>
	<line style="fill:none;stroke:#000000;stroke-miterlimit:1;" x1="64.553" y1="43.294" x2="55.195" y2="43.294"/>
	<line style="fill:none;stroke:#000000;stroke-miterlimit:1;" x1="55.195" y1="43.294" x2="55.195" y2="39.964"/>
	<line style="fill:none;stroke:#000000;stroke-miterlimit:1;" x1="55.195" y1="39.964" x2="38.069" y2="39.964"/>
	<line style="fill:none;stroke:#000000;stroke-miterlimit:1;" x1="38.069" y1="39.964" x2="38.069" y2="43.294"/>
	<line style="fill:none;stroke:#000000;stroke-miterlimit:1;" x1="38.069" y1="43.294" x2="29.03" y2="43.294"/>
	<line style="fill:none;stroke:#000000;stroke-miterlimit:1;" x1="29.03" y1="43.294" x2="29.03" y2="39.964"/>
	<line style="fill:none;stroke:#000000;stroke-miterlimit:1;" x1="29.03" y1="39.964" x2="22.686" y2="39.964"/>
	<line style="fill:none;stroke:#000000;stroke-miterlimit:1;" x1="25.541" y1="33.145" x2="31.726" y2="2.854"/>
	<line style="fill:none;stroke:#000000;stroke-miterlimit:1;" x1="31.726" y1="2.854" x2="32.835" y2="0.952"/>
	<line style="fill:none;stroke:#000000;stroke-miterlimit:1;" x1="32.835" y1="0.952" x2="33.628" y2="0.317"/>
	<line style="fill:none;stroke:#000000;stroke-miterlimit:1;" x1="33.628" y1="0.317" x2="34.58" y2="0"/>
	<line style="fill:none;stroke:#000000;stroke-miterlimit:1;" x1="34.58" y1="0" x2="36.007" y2="0"/>
	<line style="fill:none;stroke:#000000;stroke-miterlimit:1;" x1="36.007" y1="0" x2="37.435" y2="0.793"/>
	<line style="fill:none;stroke:#000000;stroke-miterlimit:1;" x1="37.435" y1="0.793" x2="37.752" y2="1.745"/>
	<line style="fill:none;stroke:#000000;stroke-miterlimit:1;" x1="37.752" y1="1.745" x2="37.752" y2="2.854"/>
	<line style="fill:none;stroke:#000000;stroke-miterlimit:1;" x1="31.567" y1="33.145" x2="37.91" y2="2.696"/>
	<line style="fill:none;stroke:#000000;stroke-miterlimit:1;" x1="37.91" y1="2.696" x2="38.703" y2="1.269"/>
	<line style="fill:none;stroke:#000000;stroke-miterlimit:1;" x1="38.703" y1="1.269" x2="39.496" y2="0.476"/>
	<line style="fill:none;stroke:#000000;stroke-miterlimit:1;" x1="39.496" y1="0.476" x2="40.923" y2="0.159"/>
	<line style="fill:none;stroke:#000000;stroke-miterlimit:1;" x1="40.923" y1="0.159" x2="42.351" y2="0.634"/>
	<line style="fill:none;stroke:#000000;stroke-miterlimit:1;" x1="42.351" y1="0.634" x2="43.144" y2="1.269"/>
	<line style="fill:none;stroke:#000000;stroke-miterlimit:1;" x1="43.144" y1="1.269" x2="43.62" y2="2.22"/>
	<line style="fill:none;stroke:#000000;stroke-miterlimit:1;" x1="37.276" y1="33.145" x2="43.461" y2="2.854"/>
	<line style="fill:none;stroke:#000000;stroke-miterlimit:1;" x1="43.461" y1="2.854" x2="44.095" y2="1.427"/>
	<line style="fill:none;stroke:#000000;stroke-miterlimit:1;" x1="44.095" y1="1.427" x2="45.206" y2="0.476"/>
	<line style="fill:none;stroke:#000000;stroke-miterlimit:1;" x1="45.206" y1="0.476" x2="46.474" y2="0.317"/>
	<line style="fill:none;stroke:#000000;stroke-miterlimit:1;" x1="46.474" y1="0.317" x2="47.901" y2="0.476"/>
	<line style="fill:none;stroke:#000000;stroke-miterlimit:1;" x1="47.901" y1="0.476" x2="49.012" y2="1.427"/>
	<line style="fill:none;stroke:#000000;stroke-miterlimit:1;" x1="49.012" y1="1.427" x2="49.328" y2="2.696"/>
	<line style="fill:none;stroke:#000000;stroke-miterlimit:1;" x1="42.985" y1="33.145" x2="49.17" y2="3.172"/>
	<line style="fill:none;stroke:#000000;stroke-miterlimit:1;" x1="49.17" y1="3.172" x2="50.121" y2="1.427"/>
	<line style="fill:none;stroke:#000000;stroke-miterlimit:1;" x1="50.121" y1="1.427" x2="51.232" y2="0.476"/>
	<line style="fill:none;stroke:#000000;stroke-miterlimit:1;" x1="51.232" y1="0.476" x2="53.135" y2="0.317"/>
	<line style="fill:none;stroke:#000000;stroke-miterlimit:1;" x1="53.135" y1="0.317" x2="53.77" y2="0.476"/>
	<line style="fill:none;stroke:#000000;stroke-miterlimit:1;" x1="53.77" y1="0.476" x2="54.721" y2="1.11"/>
	<line style="fill:none;stroke:#000000;stroke-miterlimit:1;" x1="54.721" y1="1.11" x2="55.195" y2="2.696"/>
	<line style="fill:none;stroke:#000000;stroke-miterlimit:1;" x1="49.012" y1="33.145" x2="55.037" y2="3.331"/>
	<line style="fill:none;stroke:#000000;stroke-miterlimit:1;" x1="55.037" y1="3.331" x2="55.672" y2="1.745"/>
	<line style="fill:none;stroke:#000000;stroke-miterlimit:1;" x1="55.672" y1="1.745" x2="56.307" y2="0.793"/>
	<line style="fill:none;stroke:#000000;stroke-miterlimit:1;" x1="56.307" y1="0.793" x2="57.734" y2="0.159"/>
	<line style="fill:none;stroke:#000000;stroke-miterlimit:1;" x1="57.734" y1="0.159" x2="59.479" y2="0.476"/>
	<line style="fill:none;stroke:#000000;stroke-miterlimit:1;" x1="59.479" y1="0.476" x2="60.746" y2="1.269"/>
	<line style="fill:none;stroke:#000000;stroke-miterlimit:1;" x1="60.746" y1="1.269" x2="61.223" y2="2.379"/>
	<line style="fill:none;stroke:#000000;stroke-miterlimit:1;" x1="55.195" y1="33.145" x2="60.906" y2="3.489"/>
	<line style="fill:none;stroke:#000000;stroke-miterlimit:1;" x1="60.906" y1="3.489" x2="61.381" y2="1.903"/>
	<line style="fill:none;stroke:#000000;stroke-miterlimit:1;" x1="61.381" y1="1.903" x2="62.332" y2="0.634"/>
	<line style="fill:none;stroke:#000000;stroke-miterlimit:1;" x1="62.332" y1="0.634" x2="63.918" y2="0.317"/>
	<line style="fill:none;stroke:#000000;stroke-miterlimit:1;" x1="63.918" y1="0.317" x2="64.236" y2="0.159"/>
	<line style="fill:none;stroke:#000000;stroke-miterlimit:1;" x1="64.236" y1="0.159" x2="65.662" y2="0.793"/>
	<line style="fill:none;stroke:#000000;stroke-miterlimit:1;" x1="65.662" y1="0.793" x2="66.615" y2="1.745"/>
	<line style="fill:none;stroke:#000000;stroke-miterlimit:1;" x1="66.615" y1="1.745" x2="66.615" y2="2.696"/>
	<line style="fill:none;stroke:#000000;stroke-miterlimit:1;" x1="60.588" y1="33.145" x2="66.615" y2="2.538"/>
	<line style="fill:none;stroke:#000000;stroke-miterlimit:1;" x1="66.615" y1="2.538" x2="67.248" y2="1.269"/>
	<line style="fill:none;stroke:#000000;stroke-miterlimit:1;" x1="67.248" y1="1.269" x2="68.041" y2="0.476"/>
	<line style="fill:none;stroke:#000000;stroke-miterlimit:1;" x1="68.041" y1="0.476" x2="68.994" y2="0.317"/>
	<line style="fill:none;stroke:#000000;stroke-miterlimit:1;" x1="68.994" y1="0.317" x2="70.42" y2="0.317"/>
	<line style="fill:none;stroke:#000000;stroke-miterlimit:1;" x1="70.42" y1="0.317" x2="71.689" y2="0.793"/>
	<line style="fill:none;stroke:#000000;stroke-miterlimit:1;" x1="71.689" y1="0.793" x2="72.324" y2="1.745"/>
	<line style="fill:none;stroke:#000000;stroke-miterlimit:1;" x1="72.324" y1="1.745" x2="72.641" y2="3.331"/>
	<line style="fill:none;stroke:#000000;stroke-miterlimit:1;" x1="72.641" y1="3.331" x2="66.455" y2="33.145"/>
	<line style="fill:none;stroke:#000000;stroke-miterlimit:1;" x1="66.455" y1="33.145" x2="22.686" y2="33.145"/>
	<line style="fill:none;stroke:#000000;stroke-miterlimit:1;" x1="22.686" y1="33.145" x2="22.686" y2="35.206"/>
	<line style="fill:none;stroke:#000000;stroke-miterlimit:1;" x1="22.686" y1="35.206" x2="20.466" y2="35.523"/>
	<line style="fill:none;stroke:#000000;stroke-miterlimit:1;" x1="20.466" y1="35.523" x2="17.453" y2="36.475"/>
	<line style="fill:none;stroke:#000000;stroke-miterlimit:1;" x1="17.453" y1="36.475" x2="15.232" y2="37.744"/>
	<line style="fill:none;stroke:#000000;stroke-miterlimit:1;" x1="15.232" y1="37.744" x2="12.695" y2="39.805"/>
	<line style="fill:none;stroke:#000000;stroke-miterlimit:1;" x1="12.695" y1="39.805" x2="10.316" y2="42.343"/>
	<line style="fill:none;stroke:#000000;stroke-miterlimit:1;" x1="10.316" y1="42.343" x2="6.669" y2="48.527"/>
	<line style="fill:none;stroke:#000000;stroke-miterlimit:1;" x1="6.669" y1="48.527" x2="5.559" y2="52.175"/>
	<line style="fill:none;stroke:#000000;stroke-miterlimit:1;" x1="5.559" y1="52.175" x2="4.449" y2="55.981"/>
	<line style="fill:none;stroke:#000000;stroke-miterlimit:1;" x1="4.449" y1="55.981" x2="3.973" y2="62.324"/>
	<line style="fill:none;stroke:#000000;stroke-miterlimit:1;" x1="3.973" y1="62.324" x2="4.449" y2="65.655"/>
	<line style="fill:none;stroke:#000000;stroke-miterlimit:1;" x1="4.449" y1="65.655" x2="6.035" y2="69.302"/>
	<line style="fill:none;stroke:#000000;stroke-miterlimit:1;" x1="6.035" y1="69.302" x2="7.779" y2="71.046"/>
	<line style="fill:none;stroke:#000000;stroke-miterlimit:1;" x1="7.779" y1="71.046" x2="9.048" y2="71.364"/>
	<line style="fill:none;stroke:#000000;stroke-miterlimit:1;" x1="9.048" y1="71.364" x2="11.268" y2="71.205"/>
	<line style="fill:none;stroke:#000000;stroke-miterlimit:1;" x1="11.268" y1="71.205" x2="13.171" y2="69.778"/>
	<line style="fill:none;stroke:#000000;stroke-miterlimit:1;" x1="13.171" y1="69.778" x2="13.805" y2="68.034"/>
	<line style="fill:none;stroke:#000000;stroke-miterlimit:1;" x1="13.805" y1="68.034" x2="14.123" y2="66.13"/>
	<line style="fill:none;stroke:#000000;stroke-miterlimit:1;" x1="14.123" y1="66.13" x2="14.281" y2="64.703"/>
	<line style="fill:none;stroke:#000000;stroke-miterlimit:1;" x1="14.281" y1="64.703" x2="13.805" y2="59.787"/>
	<line style="fill:none;stroke:#000000;stroke-miterlimit:1;" x1="13.805" y1="59.787" x2="13.012" y2="54.395"/>
	<line style="fill:none;stroke:#000000;stroke-miterlimit:1;" x1="13.012" y1="54.395" x2="13.488" y2="49.003"/>
	<line style="fill:none;stroke:#000000;stroke-miterlimit:1;" x1="13.488" y1="49.003" x2="14.757" y2="45.039"/>
	<line style="fill:none;stroke:#000000;stroke-miterlimit:1;" x1="14.757" y1="45.039" x2="16.818" y2="41.708"/>
	<line style="fill:none;stroke:#000000;stroke-miterlimit:1;" x1="16.818" y1="41.708" x2="18.88" y2="39.33"/>
	<line style="fill:none;stroke:#000000;stroke-miterlimit:1;" x1="18.88" y1="39.33" x2="21.1" y2="38.378"/>
	<line style="fill:none;stroke:#000000;stroke-miterlimit:1;" x1="21.1" y1="38.378" x2="22.686" y2="38.219"/>
	<line style="fill:none;stroke:#000000;stroke-miterlimit:1;" x1="22.686" y1="38.219" x2="22.686" y2="39.646"/>
	<line style="fill:none;stroke:#000000;stroke-miterlimit:1;" x1="46.276" y1="59.192" x2="44.373" y2="60.144"/>
	<line style="fill:none;stroke:#000000;stroke-miterlimit:1;" x1="44.373" y1="60.144" x2="42.945" y2="61.888"/>
	<line style="fill:none;stroke:#000000;stroke-miterlimit:1;" x1="42.945" y1="61.888" x2="42.47" y2="63.315"/>
	<line style="fill:none;stroke:#000000;stroke-miterlimit:1;" x1="42.47" y1="63.315" x2="42.152" y2="64.743"/>
	<line style="fill:none;stroke:#000000;stroke-miterlimit:1;" x1="42.152" y1="64.743" x2="42.628" y2="66.963"/>
	<line style="fill:none;stroke:#000000;stroke-miterlimit:1;" x1="42.628" y1="66.963" x2="43.738" y2="68.39"/>
	<line style="fill:none;stroke:#000000;stroke-miterlimit:1;" x1="43.738" y1="68.39" x2="44.849" y2="69.342"/>
	<line style="fill:none;stroke:#000000;stroke-miterlimit:1;" x1="44.849" y1="69.342" x2="46.751" y2="69.976"/>
	<line style="fill:none;stroke:#000000;stroke-miterlimit:1;" x1="46.751" y1="69.976" x2="48.179" y2="70.452"/>
	<line style="fill:none;stroke:#000000;stroke-miterlimit:1;" x1="48.179" y1="70.452" x2="49.924" y2="70.452"/>
	<line style="fill:none;stroke:#000000;stroke-miterlimit:1;" x1="49.924" y1="70.452" x2="51.826" y2="69.659"/>
	<line style="fill:none;stroke:#000000;stroke-miterlimit:1;" x1="51.826" y1="69.659" x2="53.412" y2="68.866"/>
	<line style="fill:none;stroke:#000000;stroke-miterlimit:1;" x1="53.412" y1="68.866" x2="54.363" y2="67.756"/>
	<line style="fill:none;stroke:#000000;stroke-miterlimit:1;" x1="54.363" y1="67.756" x2="55.475" y2="66.17"/>
	<line style="fill:none;stroke:#000000;stroke-miterlimit:1;" x1="55.475" y1="66.17" x2="56.268" y2="64.267"/>
	<line style="fill:none;stroke:#000000;stroke-miterlimit:1;" x1="56.268" y1="64.267" x2="56.742" y2="62.681"/>
	<line style="fill:none;stroke:#000000;stroke-miterlimit:1;" x1="56.742" y1="62.681" x2="56.9" y2="61.095"/>
	<line style="fill:none;stroke:#000000;stroke-miterlimit:1;" x1="56.9" y1="61.095" x2="56.742" y2="59.985"/>
	<line style="fill:none;stroke:#000000;stroke-miterlimit:1;" x1="56.742" y1="59.985" x2="56.426" y2="58.082"/>
	<line style="fill:none;stroke:#000000;stroke-miterlimit:1;" x1="56.426" y1="58.082" x2="55.633" y2="56.497"/>
	<line style="fill:none;stroke:#000000;stroke-miterlimit:1;" x1="55.633" y1="56.497" x2="54.363" y2="54.911"/>
	<line style="fill:none;stroke:#000000;stroke-miterlimit:1;" x1="54.363" y1="54.911" x2="53.096" y2="53.8"/>
	<line style="fill:none;stroke:#000000;stroke-miterlimit:1;" x1="53.096" y1="53.8" x2="51.984" y2="53.325"/>
	<line style="fill:none;stroke:#000000;stroke-miterlimit:1;" x1="51.984" y1="53.325" x2="50.875" y2="52.849"/>
	<line style="fill:none;stroke:#000000;stroke-miterlimit:1;" x1="50.875" y1="52.849" x2="49.289" y2="52.69"/>
	<line style="fill:none;stroke:#000000;stroke-miterlimit:1;" x1="49.289" y1="52.69" x2="48.02" y2="52.532"/>
	<line style="fill:none;stroke:#000000;stroke-miterlimit:1;" x1="48.02" y1="52.532" x2="46.435" y2="52.532"/>
	<line style="fill:none;stroke:#000000;stroke-miterlimit:1;" x1="46.435" y1="52.532" x2="44.531" y2="52.69"/>
	<line style="fill:none;stroke:#000000;stroke-miterlimit:1;" x1="44.531" y1="52.69" x2="42.47" y2="53.325"/>
	<line style="fill:none;stroke:#000000;stroke-miterlimit:1;" x1="42.47" y1="53.325" x2="40.725" y2="54.276"/>
	<line style="fill:none;stroke:#000000;stroke-miterlimit:1;" x1="40.725" y1="54.276" x2="39.615" y2="55.228"/>
	<line style="fill:none;stroke:#000000;stroke-miterlimit:1;" x1="39.615" y1="55.228" x2="38.347" y2="56.338"/>
	<line style="fill:none;stroke:#000000;stroke-miterlimit:1;" x1="38.347" y1="56.338" x2="37.395" y2="57.448"/>
	<line style="fill:none;stroke:#000000;stroke-miterlimit:1;" x1="37.395" y1="57.448" x2="36.443" y2="59.192"/>
	<line style="fill:none;stroke:#000000;stroke-miterlimit:1;" x1="36.443" y1="59.192" x2="35.492" y2="60.937"/>
	<line style="fill:none;stroke:#000000;stroke-miterlimit:1;" x1="35.492" y1="60.937" x2="35.175" y2="62.522"/>
	<line style="fill:none;stroke:#000000;stroke-miterlimit:1;" x1="35.175" y1="62.522" x2="34.857" y2="64.743"/>
	<line style="fill:none;stroke:#000000;stroke-miterlimit:1;" x1="34.857" y1="64.743" x2="34.699" y2="66.963"/>
	<line style="fill:none;stroke:#000000;stroke-miterlimit:1;" x1="34.699" y1="66.963" x2="34.857" y2="68.708"/>
	<line style="fill:none;stroke:#000000;stroke-miterlimit:1;" x1="34.857" y1="68.708" x2="35.016" y2="71.245"/>
	<line style="fill:none;stroke:#000000;stroke-miterlimit:1;" x1="35.016" y1="71.245" x2="35.968" y2="73.782"/>
	<line style="fill:none;stroke:#000000;stroke-miterlimit:1;" x1="35.968" y1="73.782" x2="37.395" y2="76.637"/>
	<line style="fill:none;stroke:#000000;stroke-miterlimit:1;" x1="37.395" y1="76.637" x2="39.932" y2="79.967"/>
	<line style="fill:none;stroke:#000000;stroke-miterlimit:1;" x1="39.932" y1="79.967" x2="43.897" y2="83.773"/>
	<line style="fill:none;stroke:#000000;stroke-miterlimit:1;" x1="43.897" y1="83.773" x2="49.605" y2="88.373"/>
	<line style="fill:none;stroke:#000000;stroke-miterlimit:1;" x1="49.605" y1="88.373" x2="61.977" y2="95.35"/>
	<line style="fill:none;stroke:#000000;stroke-miterlimit:1;" x1="15.045" y1="141.156" x2="17.678" y2="147.738"/>
	<line style="fill:none;stroke:#000000;stroke-miterlimit:1;" x1="17.678" y1="147.738" x2="15.986" y2="148.115"/>
	<line style="fill:none;stroke:#000000;stroke-miterlimit:1;" x1="15.986" y1="148.115" x2="13.353" y2="141.156"/>
	<line style="fill:none;stroke:#000000;stroke-miterlimit:1;" x1="8.463" y1="126.863" x2="1.316" y2="105.424"/>
	<line style="fill:none;stroke:#000000;stroke-miterlimit:1;" x1="1.316" y1="105.424" x2="0.94" y2="102.414"/>
	<line style="fill:none;stroke:#000000;stroke-miterlimit:1;" x1="0.94" y1="102.414" x2="1.128" y2="100.533"/>
	<line style="fill:none;stroke:#000000;stroke-miterlimit:1;" x1="1.128" y1="100.533" x2="2.257" y2="99.217"/>
	<line style="fill:none;stroke:#000000;stroke-miterlimit:1;" x1="2.257" y1="99.217" x2="4.138" y2="98.088"/>
	<line style="fill:none;stroke:#000000;stroke-miterlimit:1;" x1="4.138" y1="98.088" x2="6.958" y2="97.336"/>
	<line style="fill:none;stroke:#000000;stroke-miterlimit:1;" x1="6.958" y1="97.336" x2="9.215" y2="97.713"/>
	<line style="fill:none;stroke:#000000;stroke-miterlimit:1;" x1="9.215" y1="97.713" x2="11.472" y2="99.217"/>
	<line style="fill:none;stroke:#000000;stroke-miterlimit:1;" x1="11.472" y1="99.217" x2="13.165" y2="102.227"/>
	<line style="fill:none;stroke:#000000;stroke-miterlimit:1;" x1="13.165" y1="102.227" x2="13.353" y2="105.424"/>
	<line style="fill:none;stroke:#000000;stroke-miterlimit:1;" x1="13.353" y1="105.424" x2="13.165" y2="106.74"/>
	<line style="fill:none;stroke:#000000;stroke-miterlimit:1;" x1="13.165" y1="106.74" x2="12.601" y2="108.432"/>
	<line style="fill:none;stroke:#000000;stroke-miterlimit:1;" x1="12.601" y1="108.432" x2="11.66" y2="109.561"/>
	<line style="fill:none;stroke:#000000;stroke-miterlimit:1;" x1="11.66" y1="109.561" x2="10.532" y2="109.184"/>
	<line style="fill:none;stroke:#000000;stroke-miterlimit:1;" x1="10.532" y1="109.184" x2="11.096" y2="107.115"/>
	<line style="fill:none;stroke:#000000;stroke-miterlimit:1;" x1="11.096" y1="107.115" x2="11.284" y2="105.611"/>
	<line style="fill:none;stroke:#000000;stroke-miterlimit:1;" x1="11.284" y1="105.611" x2="11.096" y2="103.918"/>
	<line style="fill:none;stroke:#000000;stroke-miterlimit:1;" x1="11.096" y1="103.918" x2="10.908" y2="102.979"/>
	<line style="fill:none;stroke:#000000;stroke-miterlimit:1;" x1="10.908" y1="102.979" x2="9.78" y2="101.098"/>
	<line style="fill:none;stroke:#000000;stroke-miterlimit:1;" x1="9.78" y1="101.098" x2="8.087" y2="99.781"/>
	<line style="fill:none;stroke:#000000;stroke-miterlimit:1;" x1="8.087" y1="99.781" x2="6.395" y2="99.781"/>
	<line style="fill:none;stroke:#000000;stroke-miterlimit:1;" x1="6.395" y1="99.781" x2="4.702" y2="100.158"/>
	<line style="fill:none;stroke:#000000;stroke-miterlimit:1;" x1="4.702" y1="100.158" x2="3.761" y2="101.285"/>
	<line style="fill:none;stroke:#000000;stroke-miterlimit:1;" x1="3.761" y1="101.285" x2="2.821" y2="103.166"/>
	<line style="fill:none;stroke:#000000;stroke-miterlimit:1;" x1="2.821" y1="103.166" x2="3.009" y2="104.672"/>
	<line style="fill:none;stroke:#000000;stroke-miterlimit:1;" x1="3.009" y1="104.672" x2="10.532" y2="126.863"/>
	<line style="fill:none;stroke:#000000;stroke-miterlimit:1;" x1="95.35" y1="139.275" x2="24.637" y2="139.275"/>
	<line style="fill:none;stroke:#000000;stroke-miterlimit:1;" x1="24.637" y1="139.275" x2="22.192" y2="139.463"/>
	<line style="fill:none;stroke:#000000;stroke-miterlimit:1;" x1="22.192" y1="139.463" x2="20.123" y2="140.027"/>
	<line style="fill:none;stroke:#000000;stroke-miterlimit:1;" x1="20.123" y1="140.027" x2="14.669" y2="141.156"/>
	<line style="fill:none;stroke:#000000;stroke-miterlimit:1;" x1="14.669" y1="141.156" x2="12.413" y2="141.156"/>
	<line style="fill:none;stroke:#000000;stroke-miterlimit:1;" x1="12.413" y1="141.156" x2="7.711" y2="141.156"/>
	<line style="fill:none;stroke:#000000;stroke-miterlimit:1;" x1="7.711" y1="141.156" x2="5.83" y2="140.215"/>
	<line style="fill:none;stroke:#000000;stroke-miterlimit:1;" x1="5.83" y1="140.215" x2="4.138" y2="139.275"/>
	<line style="fill:none;stroke:#000000;stroke-miterlimit:1;" x1="4.138" y1="139.275" x2="3.385" y2="138.523"/>
	<line style="fill:none;stroke:#000000;stroke-miterlimit:1;" x1="3.385" y1="138.523" x2="3.009" y2="136.643"/>
	<line style="fill:none;stroke:#000000;stroke-miterlimit:1;" x1="3.009" y1="136.643" x2="2.821" y2="133.633"/>
	<line style="fill:none;stroke:#000000;stroke-miterlimit:1;" x1="2.821" y1="133.633" x2="3.197" y2="131.377"/>
	<line style="fill:none;stroke:#000000;stroke-miterlimit:1;" x1="3.197" y1="131.377" x2="5.266" y2="129.871"/>
	<line style="fill:none;stroke:#000000;stroke-miterlimit:1;" x1="12.225" y1="130.061" x2="9.027" y2="130.248"/>
	<line style="fill:none;stroke:#000000;stroke-miterlimit:1;" x1="9.027" y1="130.248" x2="6.018" y2="130.061"/>
	<line style="fill:none;stroke:#000000;stroke-miterlimit:1;" x1="6.018" y1="130.061" x2="2.821" y2="129.119"/>
	<line style="fill:none;stroke:#000000;stroke-miterlimit:1;" x1="2.821" y1="129.119" x2="1.128" y2="127.992"/>
	<line style="fill:none;stroke:#000000;stroke-miterlimit:1;" x1="1.128" y1="127.992" x2="0.188" y2="126.863"/>
	<line style="fill:none;stroke:#000000;stroke-miterlimit:1;" x1="0.188" y1="126.863" x2="0" y2="125.734"/>
	<line style="fill:none;stroke:#000000;stroke-miterlimit:1;" x1="0" y1="125.734" x2="4.138" y2="126.863"/>
	<line style="fill:none;stroke:#000000;stroke-miterlimit:1;" x1="4.138" y1="126.863" x2="14.669" y2="127.051"/>
	<line style="fill:none;stroke:#000000;stroke-miterlimit:1;" x1="14.669" y1="127.051" x2="17.678" y2="127.992"/>
	<line style="fill:none;stroke:#000000;stroke-miterlimit:1;" x1="17.678" y1="127.992" x2="22.004" y2="131.752"/>
	<line style="fill:none;stroke:#000000;stroke-miterlimit:1;" x1="22.004" y1="131.752" x2="23.508" y2="131.941"/>
	<line style="fill:none;stroke:#000000;stroke-miterlimit:1;" x1="23.508" y1="131.941" x2="25.201" y2="131.564"/>
	<line style="fill:none;stroke:#000000;stroke-miterlimit:1;" x1="25.201" y1="131.564" x2="28.586" y2="130.812"/>
	<line style="fill:none;stroke:#000000;stroke-miterlimit:1;" x1="28.586" y1="130.812" x2="37.425" y2="129.119"/>
	<line style="fill:none;stroke:#000000;stroke-miterlimit:1;" x1="37.425" y1="129.119" x2="45.888" y2="127.992"/>
	<line style="fill:none;stroke:#000000;stroke-miterlimit:1;" x1="45.888" y1="127.992" x2="53.6" y2="127.803"/>
	<line style="fill:none;stroke:#000000;stroke-miterlimit:1;" x1="53.6" y1="127.803" x2="63.754" y2="128.555"/>
	<line style="fill:none;stroke:#000000;stroke-miterlimit:1;" x1="63.754" y1="128.555" x2="72.594" y2="129.684"/>
	<line style="fill:none;stroke:#000000;stroke-miterlimit:1;" x1="72.594" y1="129.684" x2="81.057" y2="131.564"/>
	<line style="fill:none;stroke:#000000;stroke-miterlimit:1;" x1="95.35" y1="139.275" x2="93.846" y2="103.543"/>
	<line style="fill:none;stroke:#000000;stroke-miterlimit:1;" x1="93.846" y1="103.543" x2="83.877" y2="103.543"/>
	<line style="fill:none;stroke:#000000;stroke-miterlimit:1;" x1="83.877" y1="103.543" x2="81.244" y2="131.564"/>
</g>
</svg>
