<?xml version="1.0" encoding="iso-8859-1"?>
<!-- Generator: Adobe Illustrator 16.0.1, SVG Export Plug-In . SVG Version: 6.00 Build 0)  -->
<!DOCTYPE svg PUBLIC "-//W3C//DTD SVG 1.1//EN" "http://www.w3.org/Graphics/SVG/1.1/DTD/svg11.dtd">
<svg version="1.1" id="Ebene_1" xmlns="http://www.w3.org/2000/svg" xmlns:xlink="http://www.w3.org/1999/xlink" x="0px" y="0px"
	 width="104.775px" height="148.114px" viewBox="0 0 104.775 148.114" style="enable-background:new 0 0 104.775 148.114;"
	 xml:space="preserve">
<g>
	<line style="fill:none;stroke:#000000;stroke-miterlimit:1;" x1="94.611" y1="116.665" x2="82.339" y2="118.966"/>
	<line style="fill:none;stroke:#000000;stroke-miterlimit:1;" x1="82.339" y1="118.966" x2="84.64" y2="123.952"/>
	<line style="fill:none;stroke:#000000;stroke-miterlimit:1;" x1="84.64" y1="123.952" x2="90.968" y2="134.307"/>
	<line style="fill:none;stroke:#000000;stroke-miterlimit:1;" x1="90.968" y1="134.307" x2="93.845" y2="141.019"/>
	<line style="fill:none;stroke:#000000;stroke-miterlimit:1;" x1="93.845" y1="141.019" x2="85.599" y2="138.909"/>
	<line style="fill:none;stroke:#000000;stroke-miterlimit:1;" x1="85.599" y1="138.909" x2="75.818" y2="136.608"/>
	<line style="fill:none;stroke:#000000;stroke-miterlimit:1;" x1="75.818" y1="136.608" x2="58.943" y2="133.924"/>
	<line style="fill:none;stroke:#000000;stroke-miterlimit:1;" x1="58.943" y1="133.924" x2="50.889" y2="134.115"/>
	<line style="fill:none;stroke:#000000;stroke-miterlimit:1;" x1="50.889" y1="134.115" x2="42.835" y2="134.69"/>
	<line style="fill:none;stroke:#000000;stroke-miterlimit:1;" x1="42.835" y1="134.69" x2="36.124" y2="136.225"/>
	<line style="fill:none;stroke:#000000;stroke-miterlimit:1;" x1="36.124" y1="136.225" x2="34.397" y2="136.608"/>
	<line style="fill:none;stroke:#000000;stroke-miterlimit:1;" x1="34.397" y1="136.608" x2="30.179" y2="138.143"/>
	<line style="fill:none;stroke:#000000;stroke-miterlimit:1;" x1="30.179" y1="138.143" x2="28.261" y2="139.677"/>
	<line style="fill:none;stroke:#000000;stroke-miterlimit:1;" x1="28.261" y1="139.677" x2="15.988" y2="143.512"/>
	<line style="fill:none;stroke:#000000;stroke-miterlimit:1;" x1="15.988" y1="143.512" x2="15.221" y2="144.278"/>
	<line style="fill:none;stroke:#000000;stroke-miterlimit:1;" x1="15.221" y1="144.278" x2="14.837" y2="145.237"/>
	<line style="fill:none;stroke:#000000;stroke-miterlimit:1;" x1="14.837" y1="145.237" x2="15.029" y2="146.58"/>
	<line style="fill:none;stroke:#000000;stroke-miterlimit:1;" x1="15.029" y1="146.58" x2="15.988" y2="147.539"/>
	<line style="fill:none;stroke:#000000;stroke-miterlimit:1;" x1="15.988" y1="147.539" x2="17.139" y2="147.73"/>
	<line style="fill:none;stroke:#000000;stroke-miterlimit:1;" x1="17.139" y1="147.73" x2="19.823" y2="146.771"/>
	<line style="fill:none;stroke:#000000;stroke-miterlimit:1;" x1="19.823" y1="146.771" x2="22.7" y2="145.621"/>
	<line style="fill:none;stroke:#000000;stroke-miterlimit:1;" x1="22.7" y1="145.621" x2="29.412" y2="143.32"/>
	<line style="fill:none;stroke:#000000;stroke-miterlimit:1;" x1="29.412" y1="143.32" x2="32.863" y2="143.128"/>
	<line style="fill:none;stroke:#000000;stroke-miterlimit:1;" x1="32.863" y1="143.128" x2="36.315" y2="143.512"/>
	<line style="fill:none;stroke:#000000;stroke-miterlimit:1;" x1="36.315" y1="143.512" x2="45.903" y2="147.539"/>
	<line style="fill:none;stroke:#000000;stroke-miterlimit:1;" x1="45.903" y1="147.539" x2="47.054" y2="147.347"/>
	<line style="fill:none;stroke:#000000;stroke-miterlimit:1;" x1="47.054" y1="147.347" x2="48.205" y2="146.196"/>
	<line style="fill:none;stroke:#000000;stroke-miterlimit:1;" x1="48.205" y1="146.196" x2="48.205" y2="145.046"/>
	<line style="fill:none;stroke:#000000;stroke-miterlimit:1;" x1="48.205" y1="145.046" x2="46.67" y2="143.32"/>
	<line style="fill:none;stroke:#000000;stroke-miterlimit:1;" x1="46.67" y1="143.32" x2="38.233" y2="140.827"/>
	<line style="fill:none;stroke:#000000;stroke-miterlimit:1;" x1="38.233" y1="140.827" x2="44.753" y2="139.293"/>
	<line style="fill:none;stroke:#000000;stroke-miterlimit:1;" x1="44.753" y1="139.293" x2="50.889" y2="138.718"/>
	<line style="fill:none;stroke:#000000;stroke-miterlimit:1;" x1="50.889" y1="138.718" x2="58.368" y2="138.526"/>
	<line style="fill:none;stroke:#000000;stroke-miterlimit:1;" x1="58.368" y1="138.526" x2="66.23" y2="139.484"/>
	<line style="fill:none;stroke:#000000;stroke-miterlimit:1;" x1="66.23" y1="139.484" x2="75.052" y2="141.211"/>
	<line style="fill:none;stroke:#000000;stroke-miterlimit:1;" x1="75.052" y1="141.211" x2="85.599" y2="144.278"/>
	<line style="fill:none;stroke:#000000;stroke-miterlimit:1;" x1="85.599" y1="144.278" x2="97.68" y2="147.73"/>
	<line style="fill:none;stroke:#000000;stroke-miterlimit:1;" x1="97.68" y1="147.73" x2="99.598" y2="148.114"/>
	<line style="fill:none;stroke:#000000;stroke-miterlimit:1;" x1="99.598" y1="148.114" x2="102.474" y2="147.73"/>
	<line style="fill:none;stroke:#000000;stroke-miterlimit:1;" x1="102.474" y1="147.73" x2="103.433" y2="146.964"/>
	<line style="fill:none;stroke:#000000;stroke-miterlimit:1;" x1="103.433" y1="146.964" x2="104.583" y2="145.812"/>
	<line style="fill:none;stroke:#000000;stroke-miterlimit:1;" x1="104.583" y1="145.812" x2="104.775" y2="143.896"/>
	<line style="fill:none;stroke:#000000;stroke-miterlimit:1;" x1="104.775" y1="143.896" x2="104.583" y2="141.594"/>
	<line style="fill:none;stroke:#000000;stroke-miterlimit:1;" x1="104.583" y1="141.594" x2="94.611" y2="116.281"/>
	<line style="fill:none;stroke:#000000;stroke-miterlimit:1;" x1="15.221" y1="144.087" x2="13.304" y2="144.278"/>
	<line style="fill:none;stroke:#000000;stroke-miterlimit:1;" x1="13.304" y1="144.278" x2="12.153" y2="145.43"/>
	<line style="fill:none;stroke:#000000;stroke-miterlimit:1;" x1="12.153" y1="145.43" x2="11.77" y2="146.58"/>
	<line style="fill:none;stroke:#000000;stroke-miterlimit:1;" x1="11.77" y1="146.58" x2="11.386" y2="147.73"/>
	<line style="fill:none;stroke:#000000;stroke-miterlimit:1;" x1="11.386" y1="147.73" x2="15.221" y2="147.347"/>
	<line style="fill:none;stroke:#000000;stroke-miterlimit:1;" x1="47.821" y1="144.278" x2="49.355" y2="144.662"/>
	<line style="fill:none;stroke:#000000;stroke-miterlimit:1;" x1="49.355" y1="144.662" x2="50.122" y2="145.812"/>
	<line style="fill:none;stroke:#000000;stroke-miterlimit:1;" x1="50.122" y1="145.812" x2="50.889" y2="146.771"/>
	<line style="fill:none;stroke:#000000;stroke-miterlimit:1;" x1="50.889" y1="146.771" x2="51.273" y2="147.73"/>
	<line style="fill:none;stroke:#000000;stroke-miterlimit:1;" x1="51.273" y1="147.73" x2="47.438" y2="147.155"/>
	<line style="fill:none;stroke:#000000;stroke-miterlimit:1;" x1="22.628" y1="40.079" x2="80.925" y2="40.079"/>
	<line style="fill:none;stroke:#000000;stroke-miterlimit:1;" x1="80.925" y1="40.079" x2="80.925" y2="42.38"/>
	<line style="fill:none;stroke:#000000;stroke-miterlimit:1;" x1="80.925" y1="42.38" x2="83.226" y2="42.763"/>
	<line style="fill:none;stroke:#000000;stroke-miterlimit:1;" x1="83.226" y1="42.763" x2="86.869" y2="43.914"/>
	<line style="fill:none;stroke:#000000;stroke-miterlimit:1;" x1="86.869" y1="43.914" x2="89.362" y2="45.448"/>
	<line style="fill:none;stroke:#000000;stroke-miterlimit:1;" x1="89.362" y1="45.448" x2="92.622" y2="47.749"/>
	<line style="fill:none;stroke:#000000;stroke-miterlimit:1;" x1="92.622" y1="47.749" x2="95.499" y2="50.817"/>
	<line style="fill:none;stroke:#000000;stroke-miterlimit:1;" x1="95.499" y1="50.817" x2="98.184" y2="54.461"/>
	<line style="fill:none;stroke:#000000;stroke-miterlimit:1;" x1="98.184" y1="54.461" x2="100.101" y2="58.104"/>
	<line style="fill:none;stroke:#000000;stroke-miterlimit:1;" x1="100.101" y1="58.104" x2="101.827" y2="62.707"/>
	<line style="fill:none;stroke:#000000;stroke-miterlimit:1;" x1="101.827" y1="62.707" x2="102.978" y2="67.309"/>
	<line style="fill:none;stroke:#000000;stroke-miterlimit:1;" x1="102.978" y1="67.309" x2="103.553" y2="74.98"/>
	<line style="fill:none;stroke:#000000;stroke-miterlimit:1;" x1="103.553" y1="74.98" x2="102.978" y2="79.007"/>
	<line style="fill:none;stroke:#000000;stroke-miterlimit:1;" x1="102.978" y1="79.007" x2="101.252" y2="83.609"/>
	<line style="fill:none;stroke:#000000;stroke-miterlimit:1;" x1="101.252" y1="83.609" x2="99.143" y2="85.719"/>
	<line style="fill:none;stroke:#000000;stroke-miterlimit:1;" x1="99.143" y1="85.719" x2="97.416" y2="86.103"/>
	<line style="fill:none;stroke:#000000;stroke-miterlimit:1;" x1="97.416" y1="86.103" x2="94.731" y2="85.91"/>
	<line style="fill:none;stroke:#000000;stroke-miterlimit:1;" x1="94.731" y1="85.91" x2="92.622" y2="84.185"/>
	<line style="fill:none;stroke:#000000;stroke-miterlimit:1;" x1="92.622" y1="84.185" x2="91.663" y2="82.075"/>
	<line style="fill:none;stroke:#000000;stroke-miterlimit:1;" x1="91.663" y1="82.075" x2="91.28" y2="79.774"/>
	<line style="fill:none;stroke:#000000;stroke-miterlimit:1;" x1="91.28" y1="79.774" x2="91.088" y2="78.048"/>
	<line style="fill:none;stroke:#000000;stroke-miterlimit:1;" x1="91.088" y1="78.048" x2="91.663" y2="72.104"/>
	<line style="fill:none;stroke:#000000;stroke-miterlimit:1;" x1="91.663" y1="72.104" x2="92.431" y2="65.583"/>
	<line style="fill:none;stroke:#000000;stroke-miterlimit:1;" x1="92.431" y1="65.583" x2="91.855" y2="58.872"/>
	<line style="fill:none;stroke:#000000;stroke-miterlimit:1;" x1="91.855" y1="58.872" x2="90.129" y2="54.078"/>
	<line style="fill:none;stroke:#000000;stroke-miterlimit:1;" x1="90.129" y1="54.078" x2="87.637" y2="50.242"/>
	<line style="fill:none;stroke:#000000;stroke-miterlimit:1;" x1="87.637" y1="50.242" x2="85.144" y2="47.366"/>
	<line style="fill:none;stroke:#000000;stroke-miterlimit:1;" x1="85.144" y1="47.366" x2="82.267" y2="46.215"/>
	<line style="fill:none;stroke:#000000;stroke-miterlimit:1;" x1="82.267" y1="46.215" x2="80.925" y2="46.215"/>
	<line style="fill:none;stroke:#000000;stroke-miterlimit:1;" x1="80.925" y1="46.215" x2="80.925" y2="48.325"/>
	<line style="fill:none;stroke:#000000;stroke-miterlimit:1;" x1="80.925" y1="48.325" x2="73.254" y2="48.325"/>
	<line style="fill:none;stroke:#000000;stroke-miterlimit:1;" x1="73.254" y1="48.325" x2="73.254" y2="52.352"/>
	<line style="fill:none;stroke:#000000;stroke-miterlimit:1;" x1="73.254" y1="52.352" x2="61.939" y2="52.352"/>
	<line style="fill:none;stroke:#000000;stroke-miterlimit:1;" x1="61.939" y1="52.352" x2="61.939" y2="48.325"/>
	<line style="fill:none;stroke:#000000;stroke-miterlimit:1;" x1="61.939" y1="48.325" x2="41.229" y2="48.325"/>
	<line style="fill:none;stroke:#000000;stroke-miterlimit:1;" x1="41.229" y1="48.325" x2="41.229" y2="52.352"/>
	<line style="fill:none;stroke:#000000;stroke-miterlimit:1;" x1="41.229" y1="52.352" x2="30.299" y2="52.352"/>
	<line style="fill:none;stroke:#000000;stroke-miterlimit:1;" x1="30.299" y1="52.352" x2="30.299" y2="48.325"/>
	<line style="fill:none;stroke:#000000;stroke-miterlimit:1;" x1="30.299" y1="48.325" x2="22.628" y2="48.325"/>
	<line style="fill:none;stroke:#000000;stroke-miterlimit:1;" x1="26.08" y1="40.079" x2="33.559" y2="3.452"/>
	<line style="fill:none;stroke:#000000;stroke-miterlimit:1;" x1="33.559" y1="3.452" x2="34.901" y2="1.15"/>
	<line style="fill:none;stroke:#000000;stroke-miterlimit:1;" x1="34.901" y1="1.15" x2="35.86" y2="0.383"/>
	<line style="fill:none;stroke:#000000;stroke-miterlimit:1;" x1="35.86" y1="0.383" x2="37.01" y2="0"/>
	<line style="fill:none;stroke:#000000;stroke-miterlimit:1;" x1="37.01" y1="0" x2="38.736" y2="0"/>
	<line style="fill:none;stroke:#000000;stroke-miterlimit:1;" x1="38.736" y1="0" x2="40.462" y2="0.958"/>
	<line style="fill:none;stroke:#000000;stroke-miterlimit:1;" x1="40.462" y1="0.958" x2="40.846" y2="2.109"/>
	<line style="fill:none;stroke:#000000;stroke-miterlimit:1;" x1="40.846" y1="2.109" x2="40.846" y2="3.452"/>
	<line style="fill:none;stroke:#000000;stroke-miterlimit:1;" x1="33.367" y1="40.079" x2="41.038" y2="3.26"/>
	<line style="fill:none;stroke:#000000;stroke-miterlimit:1;" x1="41.038" y1="3.26" x2="41.996" y2="1.534"/>
	<line style="fill:none;stroke:#000000;stroke-miterlimit:1;" x1="41.996" y1="1.534" x2="42.955" y2="0.575"/>
	<line style="fill:none;stroke:#000000;stroke-miterlimit:1;" x1="42.955" y1="0.575" x2="44.681" y2="0.191"/>
	<line style="fill:none;stroke:#000000;stroke-miterlimit:1;" x1="44.681" y1="0.191" x2="46.407" y2="0.767"/>
	<line style="fill:none;stroke:#000000;stroke-miterlimit:1;" x1="46.407" y1="0.767" x2="47.366" y2="1.534"/>
	<line style="fill:none;stroke:#000000;stroke-miterlimit:1;" x1="47.366" y1="1.534" x2="47.941" y2="2.685"/>
	<line style="fill:none;stroke:#000000;stroke-miterlimit:1;" x1="40.271" y1="40.079" x2="47.749" y2="3.452"/>
	<line style="fill:none;stroke:#000000;stroke-miterlimit:1;" x1="47.749" y1="3.452" x2="48.516" y2="1.726"/>
	<line style="fill:none;stroke:#000000;stroke-miterlimit:1;" x1="48.516" y1="1.726" x2="49.858" y2="0.575"/>
	<line style="fill:none;stroke:#000000;stroke-miterlimit:1;" x1="49.858" y1="0.575" x2="51.393" y2="0.383"/>
	<line style="fill:none;stroke:#000000;stroke-miterlimit:1;" x1="51.393" y1="0.383" x2="53.118" y2="0.575"/>
	<line style="fill:none;stroke:#000000;stroke-miterlimit:1;" x1="53.118" y1="0.575" x2="54.461" y2="1.726"/>
	<line style="fill:none;stroke:#000000;stroke-miterlimit:1;" x1="54.461" y1="1.726" x2="54.845" y2="3.26"/>
	<line style="fill:none;stroke:#000000;stroke-miterlimit:1;" x1="47.174" y1="40.079" x2="54.652" y2="3.835"/>
	<line style="fill:none;stroke:#000000;stroke-miterlimit:1;" x1="54.652" y1="3.835" x2="55.804" y2="1.726"/>
	<line style="fill:none;stroke:#000000;stroke-miterlimit:1;" x1="55.804" y1="1.726" x2="57.146" y2="0.575"/>
	<line style="fill:none;stroke:#000000;stroke-miterlimit:1;" x1="57.146" y1="0.575" x2="59.447" y2="0.383"/>
	<line style="fill:none;stroke:#000000;stroke-miterlimit:1;" x1="59.447" y1="0.383" x2="60.214" y2="0.575"/>
	<line style="fill:none;stroke:#000000;stroke-miterlimit:1;" x1="60.214" y1="0.575" x2="61.364" y2="1.342"/>
	<line style="fill:none;stroke:#000000;stroke-miterlimit:1;" x1="61.364" y1="1.342" x2="61.939" y2="3.26"/>
	<line style="fill:none;stroke:#000000;stroke-miterlimit:1;" x1="54.461" y1="40.079" x2="61.748" y2="4.027"/>
	<line style="fill:none;stroke:#000000;stroke-miterlimit:1;" x1="61.748" y1="4.027" x2="62.515" y2="2.109"/>
	<line style="fill:none;stroke:#000000;stroke-miterlimit:1;" x1="62.515" y1="2.109" x2="63.282" y2="0.958"/>
	<line style="fill:none;stroke:#000000;stroke-miterlimit:1;" x1="63.282" y1="0.958" x2="65.008" y2="0.191"/>
	<line style="fill:none;stroke:#000000;stroke-miterlimit:1;" x1="65.008" y1="0.191" x2="67.117" y2="0.575"/>
	<line style="fill:none;stroke:#000000;stroke-miterlimit:1;" x1="67.117" y1="0.575" x2="68.651" y2="1.534"/>
	<line style="fill:none;stroke:#000000;stroke-miterlimit:1;" x1="68.651" y1="1.534" x2="69.227" y2="2.876"/>
	<line style="fill:none;stroke:#000000;stroke-miterlimit:1;" x1="61.939" y1="40.079" x2="68.844" y2="4.219"/>
	<line style="fill:none;stroke:#000000;stroke-miterlimit:1;" x1="68.844" y1="4.219" x2="69.419" y2="2.301"/>
	<line style="fill:none;stroke:#000000;stroke-miterlimit:1;" x1="69.419" y1="2.301" x2="70.569" y2="0.767"/>
	<line style="fill:none;stroke:#000000;stroke-miterlimit:1;" x1="70.569" y1="0.767" x2="72.487" y2="0.383"/>
	<line style="fill:none;stroke:#000000;stroke-miterlimit:1;" x1="72.487" y1="0.383" x2="72.87" y2="0.191"/>
	<line style="fill:none;stroke:#000000;stroke-miterlimit:1;" x1="72.87" y1="0.191" x2="74.597" y2="0.958"/>
	<line style="fill:none;stroke:#000000;stroke-miterlimit:1;" x1="74.597" y1="0.958" x2="75.747" y2="2.109"/>
	<line style="fill:none;stroke:#000000;stroke-miterlimit:1;" x1="75.747" y1="2.109" x2="75.747" y2="3.26"/>
	<line style="fill:none;stroke:#000000;stroke-miterlimit:1;" x1="68.46" y1="40.079" x2="75.747" y2="3.068"/>
	<line style="fill:none;stroke:#000000;stroke-miterlimit:1;" x1="75.747" y1="3.068" x2="76.514" y2="1.534"/>
	<line style="fill:none;stroke:#000000;stroke-miterlimit:1;" x1="76.514" y1="1.534" x2="77.473" y2="0.575"/>
	<line style="fill:none;stroke:#000000;stroke-miterlimit:1;" x1="77.473" y1="0.575" x2="78.623" y2="0.383"/>
	<line style="fill:none;stroke:#000000;stroke-miterlimit:1;" x1="78.623" y1="0.383" x2="80.35" y2="0.383"/>
	<line style="fill:none;stroke:#000000;stroke-miterlimit:1;" x1="80.35" y1="0.383" x2="81.884" y2="0.958"/>
	<line style="fill:none;stroke:#000000;stroke-miterlimit:1;" x1="81.884" y1="0.958" x2="82.65" y2="2.109"/>
	<line style="fill:none;stroke:#000000;stroke-miterlimit:1;" x1="82.65" y1="2.109" x2="83.034" y2="4.027"/>
	<line style="fill:none;stroke:#000000;stroke-miterlimit:1;" x1="83.034" y1="4.027" x2="75.555" y2="40.079"/>
	<line style="fill:none;stroke:#000000;stroke-miterlimit:1;" x1="75.555" y1="40.079" x2="22.628" y2="40.079"/>
	<line style="fill:none;stroke:#000000;stroke-miterlimit:1;" x1="22.628" y1="40.079" x2="22.628" y2="42.572"/>
	<line style="fill:none;stroke:#000000;stroke-miterlimit:1;" x1="22.628" y1="42.572" x2="19.943" y2="42.955"/>
	<line style="fill:none;stroke:#000000;stroke-miterlimit:1;" x1="19.943" y1="42.955" x2="16.3" y2="44.105"/>
	<line style="fill:none;stroke:#000000;stroke-miterlimit:1;" x1="16.3" y1="44.105" x2="13.615" y2="45.64"/>
	<line style="fill:none;stroke:#000000;stroke-miterlimit:1;" x1="13.615" y1="45.64" x2="10.547" y2="48.133"/>
	<line style="fill:none;stroke:#000000;stroke-miterlimit:1;" x1="10.547" y1="48.133" x2="7.67" y2="51.201"/>
	<line style="fill:none;stroke:#000000;stroke-miterlimit:1;" x1="7.67" y1="51.201" x2="3.26" y2="58.68"/>
	<line style="fill:none;stroke:#000000;stroke-miterlimit:1;" x1="3.26" y1="58.68" x2="1.917" y2="63.09"/>
	<line style="fill:none;stroke:#000000;stroke-miterlimit:1;" x1="1.917" y1="63.09" x2="0.575" y2="67.693"/>
	<line style="fill:none;stroke:#000000;stroke-miterlimit:1;" x1="0.575" y1="67.693" x2="0" y2="75.363"/>
	<line style="fill:none;stroke:#000000;stroke-miterlimit:1;" x1="0" y1="75.363" x2="0.575" y2="79.391"/>
	<line style="fill:none;stroke:#000000;stroke-miterlimit:1;" x1="0.575" y1="79.391" x2="2.493" y2="83.801"/>
	<line style="fill:none;stroke:#000000;stroke-miterlimit:1;" x1="2.493" y1="83.801" x2="4.602" y2="85.91"/>
	<line style="fill:none;stroke:#000000;stroke-miterlimit:1;" x1="4.602" y1="85.91" x2="6.136" y2="86.294"/>
	<line style="fill:none;stroke:#000000;stroke-miterlimit:1;" x1="6.136" y1="86.294" x2="8.821" y2="86.103"/>
	<line style="fill:none;stroke:#000000;stroke-miterlimit:1;" x1="8.821" y1="86.103" x2="11.122" y2="84.376"/>
	<line style="fill:none;stroke:#000000;stroke-miterlimit:1;" x1="11.122" y1="84.376" x2="11.889" y2="82.267"/>
	<line style="fill:none;stroke:#000000;stroke-miterlimit:1;" x1="11.889" y1="82.267" x2="12.272" y2="79.966"/>
	<line style="fill:none;stroke:#000000;stroke-miterlimit:1;" x1="12.272" y1="79.966" x2="12.464" y2="78.24"/>
	<line style="fill:none;stroke:#000000;stroke-miterlimit:1;" x1="12.464" y1="78.24" x2="11.889" y2="72.295"/>
	<line style="fill:none;stroke:#000000;stroke-miterlimit:1;" x1="11.889" y1="72.295" x2="10.93" y2="65.775"/>
	<line style="fill:none;stroke:#000000;stroke-miterlimit:1;" x1="10.93" y1="65.775" x2="11.506" y2="59.255"/>
	<line style="fill:none;stroke:#000000;stroke-miterlimit:1;" x1="11.506" y1="59.255" x2="13.04" y2="54.461"/>
	<line style="fill:none;stroke:#000000;stroke-miterlimit:1;" x1="13.04" y1="54.461" x2="15.533" y2="50.434"/>
	<line style="fill:none;stroke:#000000;stroke-miterlimit:1;" x1="15.533" y1="50.434" x2="18.025" y2="47.558"/>
	<line style="fill:none;stroke:#000000;stroke-miterlimit:1;" x1="18.025" y1="47.558" x2="20.71" y2="46.407"/>
	<line style="fill:none;stroke:#000000;stroke-miterlimit:1;" x1="20.71" y1="46.407" x2="22.628" y2="46.215"/>
	<line style="fill:none;stroke:#000000;stroke-miterlimit:1;" x1="22.628" y1="46.215" x2="22.628" y2="47.941"/>
	<line style="fill:none;stroke:#000000;stroke-miterlimit:1;" x1="49.955" y1="73.374" x2="47.653" y2="74.524"/>
	<line style="fill:none;stroke:#000000;stroke-miterlimit:1;" x1="47.653" y1="74.524" x2="45.927" y2="76.634"/>
	<line style="fill:none;stroke:#000000;stroke-miterlimit:1;" x1="45.927" y1="76.634" x2="45.352" y2="78.359"/>
	<line style="fill:none;stroke:#000000;stroke-miterlimit:1;" x1="45.352" y1="78.359" x2="44.969" y2="80.086"/>
	<line style="fill:none;stroke:#000000;stroke-miterlimit:1;" x1="44.969" y1="80.086" x2="45.544" y2="82.771"/>
	<line style="fill:none;stroke:#000000;stroke-miterlimit:1;" x1="45.544" y1="82.771" x2="46.886" y2="84.496"/>
	<line style="fill:none;stroke:#000000;stroke-miterlimit:1;" x1="46.886" y1="84.496" x2="48.229" y2="85.646"/>
	<line style="fill:none;stroke:#000000;stroke-miterlimit:1;" x1="48.229" y1="85.646" x2="50.53" y2="86.414"/>
	<line style="fill:none;stroke:#000000;stroke-miterlimit:1;" x1="50.53" y1="86.414" x2="52.256" y2="86.989"/>
	<line style="fill:none;stroke:#000000;stroke-miterlimit:1;" x1="52.256" y1="86.989" x2="54.365" y2="86.989"/>
	<line style="fill:none;stroke:#000000;stroke-miterlimit:1;" x1="54.365" y1="86.989" x2="56.666" y2="86.03"/>
	<line style="fill:none;stroke:#000000;stroke-miterlimit:1;" x1="56.666" y1="86.03" x2="58.584" y2="85.071"/>
	<line style="fill:none;stroke:#000000;stroke-miterlimit:1;" x1="58.584" y1="85.071" x2="59.734" y2="83.729"/>
	<line style="fill:none;stroke:#000000;stroke-miterlimit:1;" x1="59.734" y1="83.729" x2="61.077" y2="81.812"/>
	<line style="fill:none;stroke:#000000;stroke-miterlimit:1;" x1="61.077" y1="81.812" x2="62.036" y2="79.511"/>
	<line style="fill:none;stroke:#000000;stroke-miterlimit:1;" x1="62.036" y1="79.511" x2="62.611" y2="77.593"/>
	<line style="fill:none;stroke:#000000;stroke-miterlimit:1;" x1="62.611" y1="77.593" x2="62.803" y2="75.675"/>
	<line style="fill:none;stroke:#000000;stroke-miterlimit:1;" x1="62.803" y1="75.675" x2="62.611" y2="74.333"/>
	<line style="fill:none;stroke:#000000;stroke-miterlimit:1;" x1="62.611" y1="74.333" x2="62.228" y2="72.031"/>
	<line style="fill:none;stroke:#000000;stroke-miterlimit:1;" x1="62.228" y1="72.031" x2="61.269" y2="70.114"/>
	<line style="fill:none;stroke:#000000;stroke-miterlimit:1;" x1="61.269" y1="70.114" x2="59.734" y2="68.196"/>
	<line style="fill:none;stroke:#000000;stroke-miterlimit:1;" x1="59.734" y1="68.196" x2="58.2" y2="66.854"/>
	<line style="fill:none;stroke:#000000;stroke-miterlimit:1;" x1="58.2" y1="66.854" x2="56.858" y2="66.278"/>
	<line style="fill:none;stroke:#000000;stroke-miterlimit:1;" x1="56.858" y1="66.278" x2="55.516" y2="65.703"/>
	<line style="fill:none;stroke:#000000;stroke-miterlimit:1;" x1="55.516" y1="65.703" x2="53.598" y2="65.511"/>
	<line style="fill:none;stroke:#000000;stroke-miterlimit:1;" x1="53.598" y1="65.511" x2="52.064" y2="65.32"/>
	<line style="fill:none;stroke:#000000;stroke-miterlimit:1;" x1="52.064" y1="65.32" x2="50.146" y2="65.32"/>
	<line style="fill:none;stroke:#000000;stroke-miterlimit:1;" x1="50.146" y1="65.32" x2="47.845" y2="65.511"/>
	<line style="fill:none;stroke:#000000;stroke-miterlimit:1;" x1="47.845" y1="65.511" x2="45.352" y2="66.278"/>
	<line style="fill:none;stroke:#000000;stroke-miterlimit:1;" x1="45.352" y1="66.278" x2="43.243" y2="67.429"/>
	<line style="fill:none;stroke:#000000;stroke-miterlimit:1;" x1="43.243" y1="67.429" x2="41.9" y2="68.58"/>
	<line style="fill:none;stroke:#000000;stroke-miterlimit:1;" x1="41.9" y1="68.58" x2="40.366" y2="69.922"/>
	<line style="fill:none;stroke:#000000;stroke-miterlimit:1;" x1="40.366" y1="69.922" x2="39.216" y2="71.264"/>
	<line style="fill:none;stroke:#000000;stroke-miterlimit:1;" x1="39.216" y1="71.264" x2="38.065" y2="73.374"/>
	<line style="fill:none;stroke:#000000;stroke-miterlimit:1;" x1="38.065" y1="73.374" x2="36.915" y2="75.483"/>
	<line style="fill:none;stroke:#000000;stroke-miterlimit:1;" x1="36.915" y1="75.483" x2="36.531" y2="77.4"/>
	<line style="fill:none;stroke:#000000;stroke-miterlimit:1;" x1="36.531" y1="77.4" x2="36.147" y2="80.086"/>
	<line style="fill:none;stroke:#000000;stroke-miterlimit:1;" x1="36.147" y1="80.086" x2="35.956" y2="82.771"/>
	<line style="fill:none;stroke:#000000;stroke-miterlimit:1;" x1="35.956" y1="82.771" x2="36.147" y2="84.88"/>
	<line style="fill:none;stroke:#000000;stroke-miterlimit:1;" x1="36.147" y1="84.88" x2="36.339" y2="87.948"/>
	<line style="fill:none;stroke:#000000;stroke-miterlimit:1;" x1="36.339" y1="87.948" x2="37.49" y2="91.017"/>
	<line style="fill:none;stroke:#000000;stroke-miterlimit:1;" x1="37.49" y1="91.017" x2="39.216" y2="94.468"/>
	<line style="fill:none;stroke:#000000;stroke-miterlimit:1;" x1="39.216" y1="94.468" x2="42.284" y2="98.495"/>
	<line style="fill:none;stroke:#000000;stroke-miterlimit:1;" x1="42.284" y1="98.495" x2="47.078" y2="103.098"/>
	<line style="fill:none;stroke:#000000;stroke-miterlimit:1;" x1="47.078" y1="103.098" x2="53.981" y2="108.658"/>
	<line style="fill:none;stroke:#000000;stroke-miterlimit:1;" x1="53.981" y1="108.658" x2="68.939" y2="117.096"/>
</g>
</svg>
