<?xml version="1.0" encoding="iso-8859-1"?>
<!-- Generator: Adobe Illustrator 16.0.1, SVG Export Plug-In . SVG Version: 6.00 Build 0)  -->
<!DOCTYPE svg PUBLIC "-//W3C//DTD SVG 1.1//EN" "http://www.w3.org/Graphics/SVG/1.1/DTD/svg11.dtd">
<svg version="1.1" id="Ebene_1" xmlns="http://www.w3.org/2000/svg" xmlns:xlink="http://www.w3.org/1999/xlink" x="0px" y="0px"
	 width="312.137px" height="148.115px" viewBox="0 0 312.137 148.115" style="enable-background:new 0 0 312.137 148.115;"
	 xml:space="preserve">
<g>
	<line style="fill:none;stroke:#000000;stroke-miterlimit:1;" x1="29.068" y1="51.486" x2="103.957" y2="51.486"/>
	<line style="fill:none;stroke:#000000;stroke-miterlimit:1;" x1="103.957" y1="51.486" x2="103.957" y2="54.442"/>
	<line style="fill:none;stroke:#000000;stroke-miterlimit:1;" x1="103.957" y1="54.442" x2="106.913" y2="54.935"/>
	<line style="fill:none;stroke:#000000;stroke-miterlimit:1;" x1="106.913" y1="54.935" x2="111.594" y2="56.413"/>
	<line style="fill:none;stroke:#000000;stroke-miterlimit:1;" x1="111.594" y1="56.413" x2="114.796" y2="58.384"/>
	<line style="fill:none;stroke:#000000;stroke-miterlimit:1;" x1="114.796" y1="58.384" x2="118.984" y2="61.34"/>
	<line style="fill:none;stroke:#000000;stroke-miterlimit:1;" x1="118.984" y1="61.34" x2="122.679" y2="65.281"/>
	<line style="fill:none;stroke:#000000;stroke-miterlimit:1;" x1="122.679" y1="65.281" x2="126.128" y2="69.962"/>
	<line style="fill:none;stroke:#000000;stroke-miterlimit:1;" x1="126.128" y1="69.962" x2="128.591" y2="74.642"/>
	<line style="fill:none;stroke:#000000;stroke-miterlimit:1;" x1="128.591" y1="74.642" x2="130.809" y2="80.555"/>
	<line style="fill:none;stroke:#000000;stroke-miterlimit:1;" x1="130.809" y1="80.555" x2="132.287" y2="86.467"/>
	<line style="fill:none;stroke:#000000;stroke-miterlimit:1;" x1="132.287" y1="86.467" x2="133.025" y2="96.32"/>
	<line style="fill:none;stroke:#000000;stroke-miterlimit:1;" x1="133.025" y1="96.32" x2="132.287" y2="101.494"/>
	<line style="fill:none;stroke:#000000;stroke-miterlimit:1;" x1="132.287" y1="101.494" x2="130.069" y2="107.406"/>
	<line style="fill:none;stroke:#000000;stroke-miterlimit:1;" x1="130.069" y1="107.406" x2="127.36" y2="110.115"/>
	<line style="fill:none;stroke:#000000;stroke-miterlimit:1;" x1="127.36" y1="110.115" x2="125.143" y2="110.609"/>
	<line style="fill:none;stroke:#000000;stroke-miterlimit:1;" x1="125.143" y1="110.609" x2="121.694" y2="110.361"/>
	<line style="fill:none;stroke:#000000;stroke-miterlimit:1;" x1="121.694" y1="110.361" x2="118.984" y2="108.145"/>
	<line style="fill:none;stroke:#000000;stroke-miterlimit:1;" x1="118.984" y1="108.145" x2="117.752" y2="105.436"/>
	<line style="fill:none;stroke:#000000;stroke-miterlimit:1;" x1="117.752" y1="105.436" x2="117.26" y2="102.479"/>
	<line style="fill:none;stroke:#000000;stroke-miterlimit:1;" x1="117.26" y1="102.479" x2="117.013" y2="100.262"/>
	<line style="fill:none;stroke:#000000;stroke-miterlimit:1;" x1="117.013" y1="100.262" x2="117.752" y2="92.625"/>
	<line style="fill:none;stroke:#000000;stroke-miterlimit:1;" x1="117.752" y1="92.625" x2="118.738" y2="84.25"/>
	<line style="fill:none;stroke:#000000;stroke-miterlimit:1;" x1="118.738" y1="84.25" x2="117.999" y2="75.627"/>
	<line style="fill:none;stroke:#000000;stroke-miterlimit:1;" x1="117.999" y1="75.627" x2="115.782" y2="69.469"/>
	<line style="fill:none;stroke:#000000;stroke-miterlimit:1;" x1="115.782" y1="69.469" x2="112.579" y2="64.542"/>
	<line style="fill:none;stroke:#000000;stroke-miterlimit:1;" x1="112.579" y1="64.542" x2="109.376" y2="60.847"/>
	<line style="fill:none;stroke:#000000;stroke-miterlimit:1;" x1="109.376" y1="60.847" x2="105.682" y2="59.369"/>
	<line style="fill:none;stroke:#000000;stroke-miterlimit:1;" x1="105.682" y1="59.369" x2="103.957" y2="59.369"/>
	<line style="fill:none;stroke:#000000;stroke-miterlimit:1;" x1="103.957" y1="59.369" x2="103.957" y2="62.079"/>
	<line style="fill:none;stroke:#000000;stroke-miterlimit:1;" x1="103.957" y1="62.079" x2="94.103" y2="62.079"/>
	<line style="fill:none;stroke:#000000;stroke-miterlimit:1;" x1="94.103" y1="62.079" x2="94.103" y2="67.252"/>
	<line style="fill:none;stroke:#000000;stroke-miterlimit:1;" x1="94.103" y1="67.252" x2="79.569" y2="67.252"/>
	<line style="fill:none;stroke:#000000;stroke-miterlimit:1;" x1="79.569" y1="67.252" x2="79.569" y2="62.079"/>
	<line style="fill:none;stroke:#000000;stroke-miterlimit:1;" x1="79.569" y1="62.079" x2="52.964" y2="62.079"/>
	<line style="fill:none;stroke:#000000;stroke-miterlimit:1;" x1="52.964" y1="62.079" x2="52.964" y2="67.252"/>
	<line style="fill:none;stroke:#000000;stroke-miterlimit:1;" x1="52.964" y1="67.252" x2="38.922" y2="67.252"/>
	<line style="fill:none;stroke:#000000;stroke-miterlimit:1;" x1="38.922" y1="67.252" x2="38.922" y2="62.079"/>
	<line style="fill:none;stroke:#000000;stroke-miterlimit:1;" x1="38.922" y1="62.079" x2="29.068" y2="62.079"/>
	<line style="fill:none;stroke:#000000;stroke-miterlimit:1;" x1="33.502" y1="51.486" x2="43.11" y2="4.434"/>
	<line style="fill:none;stroke:#000000;stroke-miterlimit:1;" x1="43.11" y1="4.434" x2="44.834" y2="1.478"/>
	<line style="fill:none;stroke:#000000;stroke-miterlimit:1;" x1="44.834" y1="1.478" x2="46.066" y2="0.493"/>
	<line style="fill:none;stroke:#000000;stroke-miterlimit:1;" x1="46.066" y1="0.493" x2="47.544" y2="0"/>
	<line style="fill:none;stroke:#000000;stroke-miterlimit:1;" x1="47.544" y1="0" x2="49.761" y2="0"/>
	<line style="fill:none;stroke:#000000;stroke-miterlimit:1;" x1="49.761" y1="0" x2="51.979" y2="1.232"/>
	<line style="fill:none;stroke:#000000;stroke-miterlimit:1;" x1="51.979" y1="1.232" x2="52.471" y2="2.71"/>
	<line style="fill:none;stroke:#000000;stroke-miterlimit:1;" x1="52.471" y1="2.71" x2="52.471" y2="4.434"/>
	<line style="fill:none;stroke:#000000;stroke-miterlimit:1;" x1="42.864" y1="51.486" x2="52.717" y2="4.188"/>
	<line style="fill:none;stroke:#000000;stroke-miterlimit:1;" x1="52.717" y1="4.188" x2="53.949" y2="1.971"/>
	<line style="fill:none;stroke:#000000;stroke-miterlimit:1;" x1="53.949" y1="1.971" x2="55.181" y2="0.739"/>
	<line style="fill:none;stroke:#000000;stroke-miterlimit:1;" x1="55.181" y1="0.739" x2="57.398" y2="0.247"/>
	<line style="fill:none;stroke:#000000;stroke-miterlimit:1;" x1="57.398" y1="0.247" x2="59.615" y2="0.985"/>
	<line style="fill:none;stroke:#000000;stroke-miterlimit:1;" x1="59.615" y1="0.985" x2="60.847" y2="1.971"/>
	<line style="fill:none;stroke:#000000;stroke-miterlimit:1;" x1="60.847" y1="1.971" x2="61.586" y2="3.449"/>
	<line style="fill:none;stroke:#000000;stroke-miterlimit:1;" x1="51.732" y1="51.486" x2="61.339" y2="4.434"/>
	<line style="fill:none;stroke:#000000;stroke-miterlimit:1;" x1="61.339" y1="4.434" x2="62.325" y2="2.217"/>
	<line style="fill:none;stroke:#000000;stroke-miterlimit:1;" x1="62.325" y1="2.217" x2="64.049" y2="0.739"/>
	<line style="fill:none;stroke:#000000;stroke-miterlimit:1;" x1="64.049" y1="0.739" x2="66.02" y2="0.493"/>
	<line style="fill:none;stroke:#000000;stroke-miterlimit:1;" x1="66.02" y1="0.493" x2="68.237" y2="0.739"/>
	<line style="fill:none;stroke:#000000;stroke-miterlimit:1;" x1="68.237" y1="0.739" x2="69.961" y2="2.217"/>
	<line style="fill:none;stroke:#000000;stroke-miterlimit:1;" x1="69.961" y1="2.217" x2="70.454" y2="4.188"/>
	<line style="fill:none;stroke:#000000;stroke-miterlimit:1;" x1="60.601" y1="51.486" x2="70.208" y2="4.927"/>
	<line style="fill:none;stroke:#000000;stroke-miterlimit:1;" x1="70.208" y1="4.927" x2="71.686" y2="2.217"/>
	<line style="fill:none;stroke:#000000;stroke-miterlimit:1;" x1="71.686" y1="2.217" x2="73.41" y2="0.739"/>
	<line style="fill:none;stroke:#000000;stroke-miterlimit:1;" x1="73.41" y1="0.739" x2="76.367" y2="0.493"/>
	<line style="fill:none;stroke:#000000;stroke-miterlimit:1;" x1="76.367" y1="0.493" x2="77.352" y2="0.739"/>
	<line style="fill:none;stroke:#000000;stroke-miterlimit:1;" x1="77.352" y1="0.739" x2="78.83" y2="1.725"/>
	<line style="fill:none;stroke:#000000;stroke-miterlimit:1;" x1="78.83" y1="1.725" x2="79.569" y2="4.188"/>
	<line style="fill:none;stroke:#000000;stroke-miterlimit:1;" x1="69.961" y1="51.486" x2="79.323" y2="5.173"/>
	<line style="fill:none;stroke:#000000;stroke-miterlimit:1;" x1="79.323" y1="5.173" x2="80.308" y2="2.71"/>
	<line style="fill:none;stroke:#000000;stroke-miterlimit:1;" x1="80.308" y1="2.71" x2="81.293" y2="1.232"/>
	<line style="fill:none;stroke:#000000;stroke-miterlimit:1;" x1="81.293" y1="1.232" x2="83.51" y2="0.247"/>
	<line style="fill:none;stroke:#000000;stroke-miterlimit:1;" x1="83.51" y1="0.247" x2="86.22" y2="0.739"/>
	<line style="fill:none;stroke:#000000;stroke-miterlimit:1;" x1="86.22" y1="0.739" x2="88.191" y2="1.971"/>
	<line style="fill:none;stroke:#000000;stroke-miterlimit:1;" x1="88.191" y1="1.971" x2="88.93" y2="3.695"/>
	<line style="fill:none;stroke:#000000;stroke-miterlimit:1;" x1="79.569" y1="51.486" x2="88.438" y2="5.419"/>
	<line style="fill:none;stroke:#000000;stroke-miterlimit:1;" x1="88.438" y1="5.419" x2="89.176" y2="2.956"/>
	<line style="fill:none;stroke:#000000;stroke-miterlimit:1;" x1="89.176" y1="2.956" x2="90.654" y2="0.985"/>
	<line style="fill:none;stroke:#000000;stroke-miterlimit:1;" x1="90.654" y1="0.985" x2="93.118" y2="0.493"/>
	<line style="fill:none;stroke:#000000;stroke-miterlimit:1;" x1="93.118" y1="0.493" x2="93.61" y2="0.247"/>
	<line style="fill:none;stroke:#000000;stroke-miterlimit:1;" x1="93.61" y1="0.247" x2="95.828" y2="1.232"/>
	<line style="fill:none;stroke:#000000;stroke-miterlimit:1;" x1="95.828" y1="1.232" x2="97.306" y2="2.71"/>
	<line style="fill:none;stroke:#000000;stroke-miterlimit:1;" x1="97.306" y1="2.71" x2="97.306" y2="4.188"/>
	<line style="fill:none;stroke:#000000;stroke-miterlimit:1;" x1="87.945" y1="51.486" x2="97.306" y2="3.941"/>
	<line style="fill:none;stroke:#000000;stroke-miterlimit:1;" x1="97.306" y1="3.941" x2="98.291" y2="1.971"/>
	<line style="fill:none;stroke:#000000;stroke-miterlimit:1;" x1="98.291" y1="1.971" x2="99.523" y2="0.739"/>
	<line style="fill:none;stroke:#000000;stroke-miterlimit:1;" x1="99.523" y1="0.739" x2="101.001" y2="0.493"/>
	<line style="fill:none;stroke:#000000;stroke-miterlimit:1;" x1="101.001" y1="0.493" x2="103.218" y2="0.493"/>
	<line style="fill:none;stroke:#000000;stroke-miterlimit:1;" x1="103.218" y1="0.493" x2="105.189" y2="1.232"/>
	<line style="fill:none;stroke:#000000;stroke-miterlimit:1;" x1="105.189" y1="1.232" x2="106.174" y2="2.71"/>
	<line style="fill:none;stroke:#000000;stroke-miterlimit:1;" x1="106.174" y1="2.71" x2="106.667" y2="5.173"/>
	<line style="fill:none;stroke:#000000;stroke-miterlimit:1;" x1="106.667" y1="5.173" x2="97.06" y2="51.486"/>
	<line style="fill:none;stroke:#000000;stroke-miterlimit:1;" x1="97.06" y1="51.486" x2="29.068" y2="51.486"/>
	<line style="fill:none;stroke:#000000;stroke-miterlimit:1;" x1="29.068" y1="51.486" x2="29.068" y2="54.688"/>
	<line style="fill:none;stroke:#000000;stroke-miterlimit:1;" x1="29.068" y1="54.688" x2="25.62" y2="55.181"/>
	<line style="fill:none;stroke:#000000;stroke-miterlimit:1;" x1="25.62" y1="55.181" x2="20.939" y2="56.659"/>
	<line style="fill:none;stroke:#000000;stroke-miterlimit:1;" x1="20.939" y1="56.659" x2="17.49" y2="58.63"/>
	<line style="fill:none;stroke:#000000;stroke-miterlimit:1;" x1="17.49" y1="58.63" x2="13.549" y2="61.833"/>
	<line style="fill:none;stroke:#000000;stroke-miterlimit:1;" x1="13.549" y1="61.833" x2="9.854" y2="65.774"/>
	<line style="fill:none;stroke:#000000;stroke-miterlimit:1;" x1="9.854" y1="65.774" x2="4.188" y2="75.381"/>
	<line style="fill:none;stroke:#000000;stroke-miterlimit:1;" x1="4.188" y1="75.381" x2="2.463" y2="81.047"/>
	<line style="fill:none;stroke:#000000;stroke-miterlimit:1;" x1="2.463" y1="81.047" x2="0.739" y2="86.959"/>
	<line style="fill:none;stroke:#000000;stroke-miterlimit:1;" x1="0.739" y1="86.959" x2="0" y2="96.812"/>
	<line style="fill:none;stroke:#000000;stroke-miterlimit:1;" x1="0" y1="96.812" x2="0.739" y2="101.986"/>
	<line style="fill:none;stroke:#000000;stroke-miterlimit:1;" x1="0.739" y1="101.986" x2="3.202" y2="107.652"/>
	<line style="fill:none;stroke:#000000;stroke-miterlimit:1;" x1="3.202" y1="107.652" x2="5.912" y2="110.361"/>
	<line style="fill:none;stroke:#000000;stroke-miterlimit:1;" x1="5.912" y1="110.361" x2="7.883" y2="110.855"/>
	<line style="fill:none;stroke:#000000;stroke-miterlimit:1;" x1="7.883" y1="110.855" x2="11.332" y2="110.609"/>
	<line style="fill:none;stroke:#000000;stroke-miterlimit:1;" x1="11.332" y1="110.609" x2="14.288" y2="108.391"/>
	<line style="fill:none;stroke:#000000;stroke-miterlimit:1;" x1="14.288" y1="108.391" x2="15.273" y2="105.682"/>
	<line style="fill:none;stroke:#000000;stroke-miterlimit:1;" x1="15.273" y1="105.682" x2="15.766" y2="102.725"/>
	<line style="fill:none;stroke:#000000;stroke-miterlimit:1;" x1="15.766" y1="102.725" x2="16.012" y2="100.508"/>
	<line style="fill:none;stroke:#000000;stroke-miterlimit:1;" x1="16.012" y1="100.508" x2="15.273" y2="92.871"/>
	<line style="fill:none;stroke:#000000;stroke-miterlimit:1;" x1="15.273" y1="92.871" x2="14.042" y2="84.496"/>
	<line style="fill:none;stroke:#000000;stroke-miterlimit:1;" x1="14.042" y1="84.496" x2="14.781" y2="76.121"/>
	<line style="fill:none;stroke:#000000;stroke-miterlimit:1;" x1="14.781" y1="76.121" x2="16.751" y2="69.962"/>
	<line style="fill:none;stroke:#000000;stroke-miterlimit:1;" x1="16.751" y1="69.962" x2="19.954" y2="64.789"/>
	<line style="fill:none;stroke:#000000;stroke-miterlimit:1;" x1="19.954" y1="64.789" x2="23.156" y2="61.093"/>
	<line style="fill:none;stroke:#000000;stroke-miterlimit:1;" x1="23.156" y1="61.093" x2="26.605" y2="59.615"/>
	<line style="fill:none;stroke:#000000;stroke-miterlimit:1;" x1="26.605" y1="59.615" x2="29.068" y2="59.369"/>
	<line style="fill:none;stroke:#000000;stroke-miterlimit:1;" x1="29.068" y1="59.369" x2="29.068" y2="61.586"/>
	<line style="fill:none;stroke:#000000;stroke-miterlimit:1;" x1="65.712" y1="91.947" x2="62.756" y2="93.426"/>
	<line style="fill:none;stroke:#000000;stroke-miterlimit:1;" x1="62.756" y1="93.426" x2="60.539" y2="96.137"/>
	<line style="fill:none;stroke:#000000;stroke-miterlimit:1;" x1="60.539" y1="96.137" x2="59.8" y2="98.354"/>
	<line style="fill:none;stroke:#000000;stroke-miterlimit:1;" x1="59.8" y1="98.354" x2="59.307" y2="100.57"/>
	<line style="fill:none;stroke:#000000;stroke-miterlimit:1;" x1="59.307" y1="100.57" x2="60.046" y2="104.02"/>
	<line style="fill:none;stroke:#000000;stroke-miterlimit:1;" x1="60.046" y1="104.02" x2="61.771" y2="106.236"/>
	<line style="fill:none;stroke:#000000;stroke-miterlimit:1;" x1="61.771" y1="106.236" x2="63.495" y2="107.715"/>
	<line style="fill:none;stroke:#000000;stroke-miterlimit:1;" x1="63.495" y1="107.715" x2="66.451" y2="108.699"/>
	<line style="fill:none;stroke:#000000;stroke-miterlimit:1;" x1="66.451" y1="108.699" x2="68.668" y2="109.438"/>
	<line style="fill:none;stroke:#000000;stroke-miterlimit:1;" x1="68.668" y1="109.438" x2="71.378" y2="109.438"/>
	<line style="fill:none;stroke:#000000;stroke-miterlimit:1;" x1="71.378" y1="109.438" x2="74.334" y2="108.207"/>
	<line style="fill:none;stroke:#000000;stroke-miterlimit:1;" x1="74.334" y1="108.207" x2="76.797" y2="106.975"/>
	<line style="fill:none;stroke:#000000;stroke-miterlimit:1;" x1="76.797" y1="106.975" x2="78.276" y2="105.25"/>
	<line style="fill:none;stroke:#000000;stroke-miterlimit:1;" x1="78.276" y1="105.25" x2="80" y2="102.787"/>
	<line style="fill:none;stroke:#000000;stroke-miterlimit:1;" x1="80" y1="102.787" x2="81.232" y2="99.83"/>
	<line style="fill:none;stroke:#000000;stroke-miterlimit:1;" x1="81.232" y1="99.83" x2="81.971" y2="97.367"/>
	<line style="fill:none;stroke:#000000;stroke-miterlimit:1;" x1="81.971" y1="97.367" x2="82.217" y2="94.904"/>
	<line style="fill:none;stroke:#000000;stroke-miterlimit:1;" x1="82.217" y1="94.904" x2="81.971" y2="93.18"/>
	<line style="fill:none;stroke:#000000;stroke-miterlimit:1;" x1="81.971" y1="93.18" x2="81.478" y2="90.223"/>
	<line style="fill:none;stroke:#000000;stroke-miterlimit:1;" x1="81.478" y1="90.223" x2="80.247" y2="87.76"/>
	<line style="fill:none;stroke:#000000;stroke-miterlimit:1;" x1="80.247" y1="87.76" x2="78.276" y2="85.297"/>
	<line style="fill:none;stroke:#000000;stroke-miterlimit:1;" x1="78.276" y1="85.297" x2="76.305" y2="83.572"/>
	<line style="fill:none;stroke:#000000;stroke-miterlimit:1;" x1="76.305" y1="83.572" x2="74.581" y2="82.834"/>
	<line style="fill:none;stroke:#000000;stroke-miterlimit:1;" x1="74.581" y1="82.834" x2="72.856" y2="82.094"/>
	<line style="fill:none;stroke:#000000;stroke-miterlimit:1;" x1="72.856" y1="82.094" x2="70.393" y2="81.848"/>
	<line style="fill:none;stroke:#000000;stroke-miterlimit:1;" x1="70.393" y1="81.848" x2="68.422" y2="81.602"/>
	<line style="fill:none;stroke:#000000;stroke-miterlimit:1;" x1="68.422" y1="81.602" x2="65.958" y2="81.602"/>
	<line style="fill:none;stroke:#000000;stroke-miterlimit:1;" x1="65.958" y1="81.602" x2="63.002" y2="81.848"/>
	<line style="fill:none;stroke:#000000;stroke-miterlimit:1;" x1="63.002" y1="81.848" x2="59.8" y2="82.834"/>
	<line style="fill:none;stroke:#000000;stroke-miterlimit:1;" x1="59.8" y1="82.834" x2="57.09" y2="84.311"/>
	<line style="fill:none;stroke:#000000;stroke-miterlimit:1;" x1="57.09" y1="84.311" x2="55.366" y2="85.789"/>
	<line style="fill:none;stroke:#000000;stroke-miterlimit:1;" x1="55.366" y1="85.789" x2="53.395" y2="87.514"/>
	<line style="fill:none;stroke:#000000;stroke-miterlimit:1;" x1="53.395" y1="87.514" x2="51.917" y2="89.238"/>
	<line style="fill:none;stroke:#000000;stroke-miterlimit:1;" x1="51.917" y1="89.238" x2="50.439" y2="91.947"/>
	<line style="fill:none;stroke:#000000;stroke-miterlimit:1;" x1="50.439" y1="91.947" x2="48.961" y2="94.658"/>
	<line style="fill:none;stroke:#000000;stroke-miterlimit:1;" x1="48.961" y1="94.658" x2="48.468" y2="97.121"/>
	<line style="fill:none;stroke:#000000;stroke-miterlimit:1;" x1="48.468" y1="97.121" x2="47.975" y2="100.57"/>
	<line style="fill:none;stroke:#000000;stroke-miterlimit:1;" x1="47.975" y1="100.57" x2="47.729" y2="104.02"/>
	<line style="fill:none;stroke:#000000;stroke-miterlimit:1;" x1="47.729" y1="104.02" x2="47.975" y2="106.729"/>
	<line style="fill:none;stroke:#000000;stroke-miterlimit:1;" x1="47.975" y1="106.729" x2="48.222" y2="110.67"/>
	<line style="fill:none;stroke:#000000;stroke-miterlimit:1;" x1="48.222" y1="110.67" x2="49.7" y2="114.611"/>
	<line style="fill:none;stroke:#000000;stroke-miterlimit:1;" x1="49.7" y1="114.611" x2="51.917" y2="119.045"/>
	<line style="fill:none;stroke:#000000;stroke-miterlimit:1;" x1="51.917" y1="119.045" x2="55.858" y2="124.219"/>
	<line style="fill:none;stroke:#000000;stroke-miterlimit:1;" x1="55.858" y1="124.219" x2="62.017" y2="130.131"/>
	<line style="fill:none;stroke:#000000;stroke-miterlimit:1;" x1="62.017" y1="130.131" x2="70.885" y2="137.275"/>
	<line style="fill:none;stroke:#000000;stroke-miterlimit:1;" x1="70.885" y1="137.275" x2="90.1" y2="148.115"/>
	<line style="fill:none;stroke:#000000;stroke-miterlimit:1;" x1="311.807" y1="114.336" x2="202.531" y2="114.336"/>
	<line style="fill:none;stroke:#000000;stroke-miterlimit:1;" x1="202.531" y1="114.336" x2="195.949" y2="116.641"/>
	<line style="fill:none;stroke:#000000;stroke-miterlimit:1;" x1="195.949" y1="116.641" x2="189.367" y2="118.285"/>
	<line style="fill:none;stroke:#000000;stroke-miterlimit:1;" x1="189.367" y1="118.285" x2="182.783" y2="118.943"/>
	<line style="fill:none;stroke:#000000;stroke-miterlimit:1;" x1="182.783" y1="118.943" x2="175.213" y2="118.943"/>
	<line style="fill:none;stroke:#000000;stroke-miterlimit:1;" x1="175.213" y1="118.943" x2="167.314" y2="116.969"/>
	<line style="fill:none;stroke:#000000;stroke-miterlimit:1;" x1="167.314" y1="116.969" x2="163.693" y2="115.324"/>
	<line style="fill:none;stroke:#000000;stroke-miterlimit:1;" x1="163.693" y1="115.324" x2="161.061" y2="114.336"/>
	<line style="fill:none;stroke:#000000;stroke-miterlimit:1;" x1="161.061" y1="114.336" x2="154.477" y2="109.729"/>
	<line style="fill:none;stroke:#000000;stroke-miterlimit:1;" x1="154.477" y1="109.729" x2="152.502" y2="107.096"/>
	<line style="fill:none;stroke:#000000;stroke-miterlimit:1;" x1="152.502" y1="107.096" x2="151.844" y2="103.803"/>
	<line style="fill:none;stroke:#000000;stroke-miterlimit:1;" x1="151.844" y1="103.803" x2="155.136" y2="102.486"/>
	<line style="fill:none;stroke:#000000;stroke-miterlimit:1;" x1="155.136" y1="102.486" x2="159.086" y2="104.461"/>
	<line style="fill:none;stroke:#000000;stroke-miterlimit:1;" x1="159.086" y1="104.461" x2="165.668" y2="108.74"/>
	<line style="fill:none;stroke:#000000;stroke-miterlimit:1;" x1="165.668" y1="108.74" x2="170.275" y2="110.387"/>
	<line style="fill:none;stroke:#000000;stroke-miterlimit:1;" x1="170.275" y1="110.387" x2="177.188" y2="111.703"/>
	<line style="fill:none;stroke:#000000;stroke-miterlimit:1;" x1="177.188" y1="111.703" x2="181.467" y2="111.703"/>
	<line style="fill:none;stroke:#000000;stroke-miterlimit:1;" x1="181.467" y1="111.703" x2="186.074" y2="111.045"/>
	<line style="fill:none;stroke:#000000;stroke-miterlimit:1;" x1="186.074" y1="111.045" x2="191.342" y2="109.07"/>
	<line style="fill:none;stroke:#000000;stroke-miterlimit:1;" x1="191.342" y1="109.07" x2="190.025" y2="106.438"/>
	<line style="fill:none;stroke:#000000;stroke-miterlimit:1;" x1="190.025" y1="106.438" x2="187.391" y2="106.438"/>
	<line style="fill:none;stroke:#000000;stroke-miterlimit:1;" x1="187.391" y1="106.438" x2="181.139" y2="107.096"/>
	<line style="fill:none;stroke:#000000;stroke-miterlimit:1;" x1="181.139" y1="107.096" x2="174.885" y2="106.438"/>
	<line style="fill:none;stroke:#000000;stroke-miterlimit:1;" x1="174.885" y1="106.438" x2="170.275" y2="103.803"/>
	<line style="fill:none;stroke:#000000;stroke-miterlimit:1;" x1="170.275" y1="103.803" x2="172.25" y2="100.184"/>
	<line style="fill:none;stroke:#000000;stroke-miterlimit:1;" x1="172.25" y1="100.184" x2="176.859" y2="101.828"/>
	<line style="fill:none;stroke:#000000;stroke-miterlimit:1;" x1="176.859" y1="101.828" x2="180.809" y2="101.828"/>
	<line style="fill:none;stroke:#000000;stroke-miterlimit:1;" x1="180.809" y1="101.828" x2="184.758" y2="101.17"/>
	<line style="fill:none;stroke:#000000;stroke-miterlimit:1;" x1="184.758" y1="101.17" x2="188.379" y2="100.512"/>
	<line style="fill:none;stroke:#000000;stroke-miterlimit:1;" x1="188.379" y1="100.512" x2="192" y2="100.512"/>
	<line style="fill:none;stroke:#000000;stroke-miterlimit:1;" x1="192" y1="100.512" x2="196.938" y2="101.828"/>
	<line style="fill:none;stroke:#000000;stroke-miterlimit:1;" x1="196.938" y1="101.828" x2="202.203" y2="105.119"/>
	<line style="fill:none;stroke:#000000;stroke-miterlimit:1;" x1="202.203" y1="105.119" x2="219.318" y2="102.486"/>
	<line style="fill:none;stroke:#000000;stroke-miterlimit:1;" x1="219.318" y1="102.486" x2="232.154" y2="100.512"/>
	<line style="fill:none;stroke:#000000;stroke-miterlimit:1;" x1="232.154" y1="100.512" x2="245.32" y2="99.854"/>
	<line style="fill:none;stroke:#000000;stroke-miterlimit:1;" x1="245.32" y1="99.854" x2="260.133" y2="100.512"/>
	<line style="fill:none;stroke:#000000;stroke-miterlimit:1;" x1="260.133" y1="100.512" x2="272.311" y2="101.17"/>
	<line style="fill:none;stroke:#000000;stroke-miterlimit:1;" x1="272.311" y1="101.17" x2="282.844" y2="102.158"/>
	<line style="fill:none;stroke:#000000;stroke-miterlimit:1;" x1="282.844" y1="102.158" x2="289.426" y2="102.486"/>
	<line style="fill:none;stroke:#000000;stroke-miterlimit:1;" x1="289.426" y1="102.486" x2="292.717" y2="55.09"/>
	<line style="fill:none;stroke:#000000;stroke-miterlimit:1;" x1="292.717" y1="55.09" x2="308.516" y2="55.09"/>
	<line style="fill:none;stroke:#000000;stroke-miterlimit:1;" x1="308.516" y1="55.09" x2="312.137" y2="114.336"/>
	<line style="fill:none;stroke:#000000;stroke-miterlimit:1;" x1="225.9" y1="16.457" x2="225.9" y2="75.703"/>
	<line style="fill:none;stroke:#000000;stroke-miterlimit:1;" x1="225.9" y1="75.703" x2="239.066" y2="75.703"/>
	<line style="fill:none;stroke:#000000;stroke-miterlimit:1;" x1="239.066" y1="75.703" x2="239.066" y2="16.457"/>
	<line style="fill:none;stroke:#000000;stroke-miterlimit:1;" x1="239.066" y1="16.457" x2="225.9" y2="16.457"/>
</g>
</svg>
