<?xml version="1.0" encoding="iso-8859-1"?>
<!-- Generator: Adobe Illustrator 16.0.1, SVG Export Plug-In . SVG Version: 6.00 Build 0)  -->
<!DOCTYPE svg PUBLIC "-//W3C//DTD SVG 1.1//EN" "http://www.w3.org/Graphics/SVG/1.1/DTD/svg11.dtd">
<svg version="1.1" id="Ebene_1" xmlns="http://www.w3.org/2000/svg" xmlns:xlink="http://www.w3.org/1999/xlink" x="0px" y="0px"
	 width="265.826px" height="149.144px" viewBox="0 0 265.826 149.144" style="enable-background:new 0 0 265.826 149.144;"
	 xml:space="preserve">
<g>
	<line style="fill:none;stroke:#000000;stroke-miterlimit:1;" x1="29.645" y1="52.507" x2="106.019" y2="52.507"/>
	<line style="fill:none;stroke:#000000;stroke-miterlimit:1;" x1="106.019" y1="52.507" x2="106.019" y2="55.522"/>
	<line style="fill:none;stroke:#000000;stroke-miterlimit:1;" x1="106.019" y1="55.522" x2="109.033" y2="56.024"/>
	<line style="fill:none;stroke:#000000;stroke-miterlimit:1;" x1="109.033" y1="56.024" x2="113.807" y2="57.532"/>
	<line style="fill:none;stroke:#000000;stroke-miterlimit:1;" x1="113.807" y1="57.532" x2="117.073" y2="59.542"/>
	<line style="fill:none;stroke:#000000;stroke-miterlimit:1;" x1="117.073" y1="59.542" x2="121.343" y2="62.556"/>
	<line style="fill:none;stroke:#000000;stroke-miterlimit:1;" x1="121.343" y1="62.556" x2="125.112" y2="66.576"/>
	<line style="fill:none;stroke:#000000;stroke-miterlimit:1;" x1="125.112" y1="66.576" x2="128.629" y2="71.349"/>
	<line style="fill:none;stroke:#000000;stroke-miterlimit:1;" x1="128.629" y1="71.349" x2="131.141" y2="76.123"/>
	<line style="fill:none;stroke:#000000;stroke-miterlimit:1;" x1="131.141" y1="76.123" x2="133.403" y2="82.152"/>
	<line style="fill:none;stroke:#000000;stroke-miterlimit:1;" x1="133.403" y1="82.152" x2="134.91" y2="88.182"/>
	<line style="fill:none;stroke:#000000;stroke-miterlimit:1;" x1="134.91" y1="88.182" x2="135.664" y2="98.23"/>
	<line style="fill:none;stroke:#000000;stroke-miterlimit:1;" x1="135.664" y1="98.23" x2="134.91" y2="103.507"/>
	<line style="fill:none;stroke:#000000;stroke-miterlimit:1;" x1="134.91" y1="103.507" x2="132.649" y2="109.536"/>
	<line style="fill:none;stroke:#000000;stroke-miterlimit:1;" x1="132.649" y1="109.536" x2="129.885" y2="112.3"/>
	<line style="fill:none;stroke:#000000;stroke-miterlimit:1;" x1="129.885" y1="112.3" x2="127.624" y2="112.802"/>
	<line style="fill:none;stroke:#000000;stroke-miterlimit:1;" x1="127.624" y1="112.802" x2="124.107" y2="112.551"/>
	<line style="fill:none;stroke:#000000;stroke-miterlimit:1;" x1="124.107" y1="112.551" x2="121.343" y2="110.29"/>
	<line style="fill:none;stroke:#000000;stroke-miterlimit:1;" x1="121.343" y1="110.29" x2="120.087" y2="107.526"/>
	<line style="fill:none;stroke:#000000;stroke-miterlimit:1;" x1="120.087" y1="107.526" x2="119.585" y2="104.512"/>
	<line style="fill:none;stroke:#000000;stroke-miterlimit:1;" x1="119.585" y1="104.512" x2="119.333" y2="102.25"/>
	<line style="fill:none;stroke:#000000;stroke-miterlimit:1;" x1="119.333" y1="102.25" x2="120.087" y2="94.462"/>
	<line style="fill:none;stroke:#000000;stroke-miterlimit:1;" x1="120.087" y1="94.462" x2="121.092" y2="85.921"/>
	<line style="fill:none;stroke:#000000;stroke-miterlimit:1;" x1="121.092" y1="85.921" x2="120.338" y2="77.128"/>
	<line style="fill:none;stroke:#000000;stroke-miterlimit:1;" x1="120.338" y1="77.128" x2="118.078" y2="70.847"/>
	<line style="fill:none;stroke:#000000;stroke-miterlimit:1;" x1="118.078" y1="70.847" x2="114.812" y2="65.822"/>
	<line style="fill:none;stroke:#000000;stroke-miterlimit:1;" x1="114.812" y1="65.822" x2="111.545" y2="62.054"/>
	<line style="fill:none;stroke:#000000;stroke-miterlimit:1;" x1="111.545" y1="62.054" x2="107.777" y2="60.546"/>
	<line style="fill:none;stroke:#000000;stroke-miterlimit:1;" x1="107.777" y1="60.546" x2="106.019" y2="60.546"/>
	<line style="fill:none;stroke:#000000;stroke-miterlimit:1;" x1="106.019" y1="60.546" x2="106.019" y2="63.31"/>
	<line style="fill:none;stroke:#000000;stroke-miterlimit:1;" x1="106.019" y1="63.31" x2="95.969" y2="63.31"/>
	<line style="fill:none;stroke:#000000;stroke-miterlimit:1;" x1="95.969" y1="63.31" x2="95.969" y2="68.586"/>
	<line style="fill:none;stroke:#000000;stroke-miterlimit:1;" x1="95.969" y1="68.586" x2="81.147" y2="68.586"/>
	<line style="fill:none;stroke:#000000;stroke-miterlimit:1;" x1="81.147" y1="68.586" x2="81.147" y2="63.31"/>
	<line style="fill:none;stroke:#000000;stroke-miterlimit:1;" x1="81.147" y1="63.31" x2="54.014" y2="63.31"/>
	<line style="fill:none;stroke:#000000;stroke-miterlimit:1;" x1="54.014" y1="63.31" x2="54.014" y2="68.586"/>
	<line style="fill:none;stroke:#000000;stroke-miterlimit:1;" x1="54.014" y1="68.586" x2="39.694" y2="68.586"/>
	<line style="fill:none;stroke:#000000;stroke-miterlimit:1;" x1="39.694" y1="68.586" x2="39.694" y2="63.31"/>
	<line style="fill:none;stroke:#000000;stroke-miterlimit:1;" x1="39.694" y1="63.31" x2="29.645" y2="63.31"/>
	<line style="fill:none;stroke:#000000;stroke-miterlimit:1;" x1="34.167" y1="52.507" x2="43.965" y2="4.522"/>
	<line style="fill:none;stroke:#000000;stroke-miterlimit:1;" x1="43.965" y1="4.522" x2="45.724" y2="1.508"/>
	<line style="fill:none;stroke:#000000;stroke-miterlimit:1;" x1="45.724" y1="1.508" x2="46.979" y2="0.503"/>
	<line style="fill:none;stroke:#000000;stroke-miterlimit:1;" x1="46.979" y1="0.503" x2="48.487" y2="0"/>
	<line style="fill:none;stroke:#000000;stroke-miterlimit:1;" x1="48.487" y1="0" x2="50.748" y2="0"/>
	<line style="fill:none;stroke:#000000;stroke-miterlimit:1;" x1="50.748" y1="0" x2="53.009" y2="1.256"/>
	<line style="fill:none;stroke:#000000;stroke-miterlimit:1;" x1="53.009" y1="1.256" x2="53.512" y2="2.764"/>
	<line style="fill:none;stroke:#000000;stroke-miterlimit:1;" x1="53.512" y1="2.764" x2="53.512" y2="4.522"/>
	<line style="fill:none;stroke:#000000;stroke-miterlimit:1;" x1="43.714" y1="52.507" x2="53.763" y2="4.271"/>
	<line style="fill:none;stroke:#000000;stroke-miterlimit:1;" x1="53.763" y1="4.271" x2="55.019" y2="2.01"/>
	<line style="fill:none;stroke:#000000;stroke-miterlimit:1;" x1="55.019" y1="2.01" x2="56.275" y2="0.754"/>
	<line style="fill:none;stroke:#000000;stroke-miterlimit:1;" x1="56.275" y1="0.754" x2="58.536" y2="0.251"/>
	<line style="fill:none;stroke:#000000;stroke-miterlimit:1;" x1="58.536" y1="0.251" x2="60.797" y2="1.005"/>
	<line style="fill:none;stroke:#000000;stroke-miterlimit:1;" x1="60.797" y1="1.005" x2="62.053" y2="2.01"/>
	<line style="fill:none;stroke:#000000;stroke-miterlimit:1;" x1="62.053" y1="2.01" x2="62.807" y2="3.518"/>
	<line style="fill:none;stroke:#000000;stroke-miterlimit:1;" x1="52.758" y1="52.507" x2="62.556" y2="4.522"/>
	<line style="fill:none;stroke:#000000;stroke-miterlimit:1;" x1="62.556" y1="4.522" x2="63.561" y2="2.261"/>
	<line style="fill:none;stroke:#000000;stroke-miterlimit:1;" x1="63.561" y1="2.261" x2="65.319" y2="0.754"/>
	<line style="fill:none;stroke:#000000;stroke-miterlimit:1;" x1="65.319" y1="0.754" x2="67.329" y2="0.503"/>
	<line style="fill:none;stroke:#000000;stroke-miterlimit:1;" x1="67.329" y1="0.503" x2="69.59" y2="0.754"/>
	<line style="fill:none;stroke:#000000;stroke-miterlimit:1;" x1="69.59" y1="0.754" x2="71.349" y2="2.261"/>
	<line style="fill:none;stroke:#000000;stroke-miterlimit:1;" x1="71.349" y1="2.261" x2="71.851" y2="4.271"/>
	<line style="fill:none;stroke:#000000;stroke-miterlimit:1;" x1="61.802" y1="52.507" x2="71.6" y2="5.025"/>
	<line style="fill:none;stroke:#000000;stroke-miterlimit:1;" x1="71.6" y1="5.025" x2="73.107" y2="2.261"/>
	<line style="fill:none;stroke:#000000;stroke-miterlimit:1;" x1="73.107" y1="2.261" x2="74.866" y2="0.754"/>
	<line style="fill:none;stroke:#000000;stroke-miterlimit:1;" x1="74.866" y1="0.754" x2="77.881" y2="0.503"/>
	<line style="fill:none;stroke:#000000;stroke-miterlimit:1;" x1="77.881" y1="0.503" x2="78.886" y2="0.754"/>
	<line style="fill:none;stroke:#000000;stroke-miterlimit:1;" x1="78.886" y1="0.754" x2="80.393" y2="1.759"/>
	<line style="fill:none;stroke:#000000;stroke-miterlimit:1;" x1="80.393" y1="1.759" x2="81.147" y2="4.271"/>
	<line style="fill:none;stroke:#000000;stroke-miterlimit:1;" x1="71.349" y1="52.507" x2="80.896" y2="5.276"/>
	<line style="fill:none;stroke:#000000;stroke-miterlimit:1;" x1="80.896" y1="5.276" x2="81.9" y2="2.764"/>
	<line style="fill:none;stroke:#000000;stroke-miterlimit:1;" x1="81.9" y1="2.764" x2="82.905" y2="1.256"/>
	<line style="fill:none;stroke:#000000;stroke-miterlimit:1;" x1="82.905" y1="1.256" x2="85.167" y2="0.251"/>
	<line style="fill:none;stroke:#000000;stroke-miterlimit:1;" x1="85.167" y1="0.251" x2="87.93" y2="0.754"/>
	<line style="fill:none;stroke:#000000;stroke-miterlimit:1;" x1="87.93" y1="0.754" x2="89.94" y2="2.01"/>
	<line style="fill:none;stroke:#000000;stroke-miterlimit:1;" x1="89.94" y1="2.01" x2="90.693" y2="3.769"/>
	<line style="fill:none;stroke:#000000;stroke-miterlimit:1;" x1="81.147" y1="52.507" x2="90.191" y2="5.527"/>
	<line style="fill:none;stroke:#000000;stroke-miterlimit:1;" x1="90.191" y1="5.527" x2="90.945" y2="3.015"/>
	<line style="fill:none;stroke:#000000;stroke-miterlimit:1;" x1="90.945" y1="3.015" x2="92.452" y2="1.005"/>
	<line style="fill:none;stroke:#000000;stroke-miterlimit:1;" x1="92.452" y1="1.005" x2="94.964" y2="0.503"/>
	<line style="fill:none;stroke:#000000;stroke-miterlimit:1;" x1="94.964" y1="0.503" x2="95.467" y2="0.251"/>
	<line style="fill:none;stroke:#000000;stroke-miterlimit:1;" x1="95.467" y1="0.251" x2="97.728" y2="1.256"/>
	<line style="fill:none;stroke:#000000;stroke-miterlimit:1;" x1="97.728" y1="1.256" x2="99.235" y2="2.764"/>
	<line style="fill:none;stroke:#000000;stroke-miterlimit:1;" x1="99.235" y1="2.764" x2="99.235" y2="4.271"/>
	<line style="fill:none;stroke:#000000;stroke-miterlimit:1;" x1="89.688" y1="52.507" x2="99.235" y2="4.02"/>
	<line style="fill:none;stroke:#000000;stroke-miterlimit:1;" x1="99.235" y1="4.02" x2="100.24" y2="2.01"/>
	<line style="fill:none;stroke:#000000;stroke-miterlimit:1;" x1="100.24" y1="2.01" x2="101.496" y2="0.754"/>
	<line style="fill:none;stroke:#000000;stroke-miterlimit:1;" x1="101.496" y1="0.754" x2="103.004" y2="0.503"/>
	<line style="fill:none;stroke:#000000;stroke-miterlimit:1;" x1="103.004" y1="0.503" x2="105.265" y2="0.503"/>
	<line style="fill:none;stroke:#000000;stroke-miterlimit:1;" x1="105.265" y1="0.503" x2="107.274" y2="1.256"/>
	<line style="fill:none;stroke:#000000;stroke-miterlimit:1;" x1="107.274" y1="1.256" x2="108.279" y2="2.764"/>
	<line style="fill:none;stroke:#000000;stroke-miterlimit:1;" x1="108.279" y1="2.764" x2="108.782" y2="5.276"/>
	<line style="fill:none;stroke:#000000;stroke-miterlimit:1;" x1="108.782" y1="5.276" x2="98.984" y2="52.507"/>
	<line style="fill:none;stroke:#000000;stroke-miterlimit:1;" x1="98.984" y1="52.507" x2="29.645" y2="52.507"/>
	<line style="fill:none;stroke:#000000;stroke-miterlimit:1;" x1="29.645" y1="52.507" x2="29.645" y2="55.773"/>
	<line style="fill:none;stroke:#000000;stroke-miterlimit:1;" x1="29.645" y1="55.773" x2="26.127" y2="56.275"/>
	<line style="fill:none;stroke:#000000;stroke-miterlimit:1;" x1="26.127" y1="56.275" x2="21.354" y2="57.783"/>
	<line style="fill:none;stroke:#000000;stroke-miterlimit:1;" x1="21.354" y1="57.783" x2="17.837" y2="59.793"/>
	<line style="fill:none;stroke:#000000;stroke-miterlimit:1;" x1="17.837" y1="59.793" x2="13.817" y2="63.059"/>
	<line style="fill:none;stroke:#000000;stroke-miterlimit:1;" x1="13.817" y1="63.059" x2="10.049" y2="67.078"/>
	<line style="fill:none;stroke:#000000;stroke-miterlimit:1;" x1="10.049" y1="67.078" x2="4.271" y2="76.876"/>
	<line style="fill:none;stroke:#000000;stroke-miterlimit:1;" x1="4.271" y1="76.876" x2="2.512" y2="82.654"/>
	<line style="fill:none;stroke:#000000;stroke-miterlimit:1;" x1="2.512" y1="82.654" x2="0.753" y2="88.684"/>
	<line style="fill:none;stroke:#000000;stroke-miterlimit:1;" x1="0.753" y1="88.684" x2="0" y2="98.733"/>
	<line style="fill:none;stroke:#000000;stroke-miterlimit:1;" x1="0" y1="98.733" x2="0.753" y2="104.009"/>
	<line style="fill:none;stroke:#000000;stroke-miterlimit:1;" x1="0.753" y1="104.009" x2="3.266" y2="109.787"/>
	<line style="fill:none;stroke:#000000;stroke-miterlimit:1;" x1="3.266" y1="109.787" x2="6.029" y2="112.551"/>
	<line style="fill:none;stroke:#000000;stroke-miterlimit:1;" x1="6.029" y1="112.551" x2="8.039" y2="113.054"/>
	<line style="fill:none;stroke:#000000;stroke-miterlimit:1;" x1="8.039" y1="113.054" x2="11.556" y2="112.802"/>
	<line style="fill:none;stroke:#000000;stroke-miterlimit:1;" x1="11.556" y1="112.802" x2="14.571" y2="110.541"/>
	<line style="fill:none;stroke:#000000;stroke-miterlimit:1;" x1="14.571" y1="110.541" x2="15.576" y2="107.777"/>
	<line style="fill:none;stroke:#000000;stroke-miterlimit:1;" x1="15.576" y1="107.777" x2="16.079" y2="104.763"/>
	<line style="fill:none;stroke:#000000;stroke-miterlimit:1;" x1="16.079" y1="104.763" x2="16.33" y2="102.502"/>
	<line style="fill:none;stroke:#000000;stroke-miterlimit:1;" x1="16.33" y1="102.502" x2="15.576" y2="94.714"/>
	<line style="fill:none;stroke:#000000;stroke-miterlimit:1;" x1="15.576" y1="94.714" x2="14.32" y2="86.172"/>
	<line style="fill:none;stroke:#000000;stroke-miterlimit:1;" x1="14.32" y1="86.172" x2="15.074" y2="77.63"/>
	<line style="fill:none;stroke:#000000;stroke-miterlimit:1;" x1="15.074" y1="77.63" x2="17.083" y2="71.349"/>
	<line style="fill:none;stroke:#000000;stroke-miterlimit:1;" x1="17.083" y1="71.349" x2="20.349" y2="66.073"/>
	<line style="fill:none;stroke:#000000;stroke-miterlimit:1;" x1="20.349" y1="66.073" x2="23.615" y2="62.305"/>
	<line style="fill:none;stroke:#000000;stroke-miterlimit:1;" x1="23.615" y1="62.305" x2="27.132" y2="60.798"/>
	<line style="fill:none;stroke:#000000;stroke-miterlimit:1;" x1="27.132" y1="60.798" x2="29.645" y2="60.546"/>
	<line style="fill:none;stroke:#000000;stroke-miterlimit:1;" x1="29.645" y1="60.546" x2="29.645" y2="62.808"/>
	<line style="fill:none;stroke:#000000;stroke-miterlimit:1;" x1="263.486" y1="68.082" x2="188.625" y2="68.082"/>
	<line style="fill:none;stroke:#000000;stroke-miterlimit:1;" x1="188.625" y1="68.082" x2="184.115" y2="69.66"/>
	<line style="fill:none;stroke:#000000;stroke-miterlimit:1;" x1="184.115" y1="69.66" x2="179.605" y2="70.788"/>
	<line style="fill:none;stroke:#000000;stroke-miterlimit:1;" x1="179.605" y1="70.788" x2="175.096" y2="71.239"/>
	<line style="fill:none;stroke:#000000;stroke-miterlimit:1;" x1="175.096" y1="71.239" x2="169.91" y2="71.239"/>
	<line style="fill:none;stroke:#000000;stroke-miterlimit:1;" x1="169.91" y1="71.239" x2="164.498" y2="69.886"/>
	<line style="fill:none;stroke:#000000;stroke-miterlimit:1;" x1="164.498" y1="69.886" x2="162.02" y2="68.758"/>
	<line style="fill:none;stroke:#000000;stroke-miterlimit:1;" x1="162.02" y1="68.758" x2="160.215" y2="68.082"/>
	<line style="fill:none;stroke:#000000;stroke-miterlimit:1;" x1="160.215" y1="68.082" x2="155.705" y2="64.925"/>
	<line style="fill:none;stroke:#000000;stroke-miterlimit:1;" x1="155.705" y1="64.925" x2="154.352" y2="63.121"/>
	<line style="fill:none;stroke:#000000;stroke-miterlimit:1;" x1="154.352" y1="63.121" x2="153.9" y2="60.866"/>
	<line style="fill:none;stroke:#000000;stroke-miterlimit:1;" x1="153.9" y1="60.866" x2="156.156" y2="59.964"/>
	<line style="fill:none;stroke:#000000;stroke-miterlimit:1;" x1="156.156" y1="59.964" x2="158.861" y2="61.317"/>
	<line style="fill:none;stroke:#000000;stroke-miterlimit:1;" x1="158.861" y1="61.317" x2="163.371" y2="64.249"/>
	<line style="fill:none;stroke:#000000;stroke-miterlimit:1;" x1="163.371" y1="64.249" x2="166.527" y2="65.376"/>
	<line style="fill:none;stroke:#000000;stroke-miterlimit:1;" x1="166.527" y1="65.376" x2="171.264" y2="66.278"/>
	<line style="fill:none;stroke:#000000;stroke-miterlimit:1;" x1="171.264" y1="66.278" x2="174.195" y2="66.278"/>
	<line style="fill:none;stroke:#000000;stroke-miterlimit:1;" x1="174.195" y1="66.278" x2="177.352" y2="65.827"/>
	<line style="fill:none;stroke:#000000;stroke-miterlimit:1;" x1="177.352" y1="65.827" x2="180.959" y2="64.474"/>
	<line style="fill:none;stroke:#000000;stroke-miterlimit:1;" x1="180.959" y1="64.474" x2="180.057" y2="62.67"/>
	<line style="fill:none;stroke:#000000;stroke-miterlimit:1;" x1="180.057" y1="62.67" x2="178.254" y2="62.67"/>
	<line style="fill:none;stroke:#000000;stroke-miterlimit:1;" x1="178.254" y1="62.67" x2="173.969" y2="63.121"/>
	<line style="fill:none;stroke:#000000;stroke-miterlimit:1;" x1="173.969" y1="63.121" x2="169.686" y2="62.67"/>
	<line style="fill:none;stroke:#000000;stroke-miterlimit:1;" x1="169.686" y1="62.67" x2="166.527" y2="60.866"/>
	<line style="fill:none;stroke:#000000;stroke-miterlimit:1;" x1="166.527" y1="60.866" x2="167.881" y2="58.386"/>
	<line style="fill:none;stroke:#000000;stroke-miterlimit:1;" x1="167.881" y1="58.386" x2="171.037" y2="59.514"/>
	<line style="fill:none;stroke:#000000;stroke-miterlimit:1;" x1="171.037" y1="59.514" x2="173.744" y2="59.514"/>
	<line style="fill:none;stroke:#000000;stroke-miterlimit:1;" x1="173.744" y1="59.514" x2="176.449" y2="59.062"/>
	<line style="fill:none;stroke:#000000;stroke-miterlimit:1;" x1="176.449" y1="59.062" x2="178.93" y2="58.612"/>
	<line style="fill:none;stroke:#000000;stroke-miterlimit:1;" x1="178.93" y1="58.612" x2="181.41" y2="58.612"/>
	<line style="fill:none;stroke:#000000;stroke-miterlimit:1;" x1="181.41" y1="58.612" x2="184.793" y2="59.514"/>
	<line style="fill:none;stroke:#000000;stroke-miterlimit:1;" x1="184.793" y1="59.514" x2="188.4" y2="61.769"/>
	<line style="fill:none;stroke:#000000;stroke-miterlimit:1;" x1="188.4" y1="61.769" x2="200.125" y2="59.964"/>
	<line style="fill:none;stroke:#000000;stroke-miterlimit:1;" x1="200.125" y1="59.964" x2="208.92" y2="58.612"/>
	<line style="fill:none;stroke:#000000;stroke-miterlimit:1;" x1="208.92" y1="58.612" x2="217.938" y2="58.161"/>
	<line style="fill:none;stroke:#000000;stroke-miterlimit:1;" x1="217.938" y1="58.161" x2="228.086" y2="58.612"/>
	<line style="fill:none;stroke:#000000;stroke-miterlimit:1;" x1="228.086" y1="58.612" x2="236.428" y2="59.062"/>
	<line style="fill:none;stroke:#000000;stroke-miterlimit:1;" x1="236.428" y1="59.062" x2="243.643" y2="59.739"/>
	<line style="fill:none;stroke:#000000;stroke-miterlimit:1;" x1="243.643" y1="59.739" x2="248.152" y2="59.964"/>
	<line style="fill:none;stroke:#000000;stroke-miterlimit:1;" x1="248.152" y1="59.964" x2="250.408" y2="27.495"/>
	<line style="fill:none;stroke:#000000;stroke-miterlimit:1;" x1="250.408" y1="27.495" x2="261.23" y2="27.495"/>
	<line style="fill:none;stroke:#000000;stroke-miterlimit:1;" x1="261.23" y1="27.495" x2="263.711" y2="68.082"/>
	<line style="fill:none;stroke:#000000;stroke-miterlimit:1;" x1="204.635" y1="1.029" x2="204.635" y2="41.616"/>
	<line style="fill:none;stroke:#000000;stroke-miterlimit:1;" x1="204.635" y1="41.616" x2="213.654" y2="41.616"/>
	<line style="fill:none;stroke:#000000;stroke-miterlimit:1;" x1="213.654" y1="41.616" x2="213.654" y2="1.029"/>
	<line style="fill:none;stroke:#000000;stroke-miterlimit:1;" x1="213.654" y1="1.029" x2="204.635" y2="1.029"/>
	<line style="fill:none;stroke:#000000;stroke-miterlimit:1;" x1="93.973" y1="146.771" x2="93.637" y2="146.101"/>
	<line style="fill:none;stroke:#000000;stroke-miterlimit:1;" x1="93.637" y1="146.101" x2="92.63" y2="145.094"/>
	<line style="fill:none;stroke:#000000;stroke-miterlimit:1;" x1="92.63" y1="145.094" x2="89.609" y2="143.415"/>
	<line style="fill:none;stroke:#000000;stroke-miterlimit:1;" x1="89.609" y1="143.415" x2="87.26" y2="141.401"/>
	<line style="fill:none;stroke:#000000;stroke-miterlimit:1;" x1="87.26" y1="141.401" x2="85.246" y2="139.052"/>
	<line style="fill:none;stroke:#000000;stroke-miterlimit:1;" x1="85.246" y1="139.052" x2="83.903" y2="136.702"/>
	<line style="fill:none;stroke:#000000;stroke-miterlimit:1;" x1="83.903" y1="136.702" x2="81.889" y2="133.345"/>
	<line style="fill:none;stroke:#000000;stroke-miterlimit:1;" x1="81.889" y1="133.345" x2="80.882" y2="128.646"/>
	<line style="fill:none;stroke:#000000;stroke-miterlimit:1;" x1="80.882" y1="128.646" x2="81.218" y2="123.275"/>
	<line style="fill:none;stroke:#000000;stroke-miterlimit:1;" x1="81.218" y1="123.275" x2="81.889" y2="118.24"/>
	<line style="fill:none;stroke:#000000;stroke-miterlimit:1;" x1="81.889" y1="118.24" x2="82.896" y2="112.533"/>
	<line style="fill:none;stroke:#000000;stroke-miterlimit:1;" x1="82.896" y1="112.533" x2="83.231" y2="106.827"/>
	<line style="fill:none;stroke:#000000;stroke-miterlimit:1;" x1="83.231" y1="106.827" x2="82.56" y2="101.792"/>
	<line style="fill:none;stroke:#000000;stroke-miterlimit:1;" x1="82.56" y1="101.792" x2="81.553" y2="98.436"/>
	<line style="fill:none;stroke:#000000;stroke-miterlimit:1;" x1="81.553" y1="98.436" x2="80.546" y2="96.421"/>
	<line style="fill:none;stroke:#000000;stroke-miterlimit:1;" x1="80.546" y1="96.421" x2="79.204" y2="94.743"/>
	<line style="fill:none;stroke:#000000;stroke-miterlimit:1;" x1="79.204" y1="94.743" x2="77.861" y2="93.064"/>
	<line style="fill:none;stroke:#000000;stroke-miterlimit:1;" x1="77.861" y1="93.064" x2="76.518" y2="91.722"/>
	<line style="fill:none;stroke:#000000;stroke-miterlimit:1;" x1="76.518" y1="91.722" x2="74.504" y2="90.379"/>
	<line style="fill:none;stroke:#000000;stroke-miterlimit:1;" x1="74.504" y1="90.379" x2="73.162" y2="89.372"/>
	<line style="fill:none;stroke:#000000;stroke-miterlimit:1;" x1="73.162" y1="89.372" x2="71.147" y2="88.701"/>
	<line style="fill:none;stroke:#000000;stroke-miterlimit:1;" x1="71.147" y1="88.701" x2="68.798" y2="88.029"/>
	<line style="fill:none;stroke:#000000;stroke-miterlimit:1;" x1="68.798" y1="88.029" x2="67.12" y2="87.694"/>
	<line style="fill:none;stroke:#000000;stroke-miterlimit:1;" x1="67.12" y1="87.694" x2="64.77" y2="87.694"/>
	<line style="fill:none;stroke:#000000;stroke-miterlimit:1;" x1="64.77" y1="87.694" x2="62.756" y2="88.029"/>
	<line style="fill:none;stroke:#000000;stroke-miterlimit:1;" x1="62.756" y1="88.029" x2="60.742" y2="88.701"/>
	<line style="fill:none;stroke:#000000;stroke-miterlimit:1;" x1="60.742" y1="88.701" x2="59.063" y2="89.708"/>
	<line style="fill:none;stroke:#000000;stroke-miterlimit:1;" x1="59.063" y1="89.708" x2="57.049" y2="91.051"/>
	<line style="fill:none;stroke:#000000;stroke-miterlimit:1;" x1="57.049" y1="91.051" x2="54.364" y2="94.071"/>
	<line style="fill:none;stroke:#000000;stroke-miterlimit:1;" x1="54.364" y1="94.071" x2="53.357" y2="96.086"/>
	<line style="fill:none;stroke:#000000;stroke-miterlimit:1;" x1="53.357" y1="96.086" x2="52.014" y2="99.106"/>
	<line style="fill:none;stroke:#000000;stroke-miterlimit:1;" x1="52.014" y1="99.106" x2="51.343" y2="101.792"/>
	<line style="fill:none;stroke:#000000;stroke-miterlimit:1;" x1="51.343" y1="101.792" x2="51.007" y2="105.484"/>
	<line style="fill:none;stroke:#000000;stroke-miterlimit:1;" x1="51.007" y1="105.484" x2="51.007" y2="108.506"/>
	<line style="fill:none;stroke:#000000;stroke-miterlimit:1;" x1="51.007" y1="108.506" x2="51.679" y2="112.198"/>
	<line style="fill:none;stroke:#000000;stroke-miterlimit:1;" x1="51.679" y1="112.198" x2="52.35" y2="115.219"/>
	<line style="fill:none;stroke:#000000;stroke-miterlimit:1;" x1="52.35" y1="115.219" x2="53.021" y2="117.904"/>
	<line style="fill:none;stroke:#000000;stroke-miterlimit:1;" x1="53.021" y1="117.904" x2="55.707" y2="123.946"/>
	<line style="fill:none;stroke:#000000;stroke-miterlimit:1;" x1="55.707" y1="123.946" x2="58.056" y2="127.303"/>
	<line style="fill:none;stroke:#000000;stroke-miterlimit:1;" x1="58.056" y1="127.303" x2="60.742" y2="130.995"/>
	<line style="fill:none;stroke:#000000;stroke-miterlimit:1;" x1="60.742" y1="130.995" x2="64.434" y2="134.688"/>
	<line style="fill:none;stroke:#000000;stroke-miterlimit:1;" x1="64.434" y1="134.688" x2="68.462" y2="138.38"/>
	<line style="fill:none;stroke:#000000;stroke-miterlimit:1;" x1="68.462" y1="138.38" x2="72.826" y2="141.737"/>
	<line style="fill:none;stroke:#000000;stroke-miterlimit:1;" x1="72.826" y1="141.737" x2="78.532" y2="145.094"/>
	<line style="fill:none;stroke:#000000;stroke-miterlimit:1;" x1="78.532" y1="145.094" x2="83.567" y2="146.771"/>
	<line style="fill:none;stroke:#000000;stroke-miterlimit:1;" x1="83.567" y1="146.771" x2="86.588" y2="147.443"/>
	<line style="fill:none;stroke:#000000;stroke-miterlimit:1;" x1="86.588" y1="147.443" x2="89.274" y2="148.114"/>
	<line style="fill:none;stroke:#000000;stroke-miterlimit:1;" x1="89.274" y1="148.114" x2="91.959" y2="148.114"/>
	<line style="fill:none;stroke:#000000;stroke-miterlimit:1;" x1="91.959" y1="148.114" x2="93.637" y2="147.779"/>
	<line style="fill:none;stroke:#000000;stroke-miterlimit:1;" x1="93.637" y1="147.779" x2="93.973" y2="146.771"/>
	<line style="fill:none;stroke:#000000;stroke-miterlimit:1;" x1="259.738" y1="95.506" x2="261.992" y2="95.056"/>
	<line style="fill:none;stroke:#000000;stroke-miterlimit:1;" x1="261.992" y1="95.056" x2="263.797" y2="93.928"/>
	<line style="fill:none;stroke:#000000;stroke-miterlimit:1;" x1="263.797" y1="93.928" x2="265.148" y2="91.898"/>
	<line style="fill:none;stroke:#000000;stroke-miterlimit:1;" x1="265.148" y1="91.898" x2="265.6" y2="90.095"/>
	<line style="fill:none;stroke:#000000;stroke-miterlimit:1;" x1="265.6" y1="90.095" x2="265.826" y2="86.487"/>
	<line style="fill:none;stroke:#000000;stroke-miterlimit:1;" x1="265.826" y1="86.487" x2="265.148" y2="84.683"/>
	<line style="fill:none;stroke:#000000;stroke-miterlimit:1;" x1="265.148" y1="84.683" x2="263.797" y2="82.429"/>
	<line style="fill:none;stroke:#000000;stroke-miterlimit:1;" x1="263.797" y1="82.429" x2="262.443" y2="81.526"/>
	<line style="fill:none;stroke:#000000;stroke-miterlimit:1;" x1="262.443" y1="81.526" x2="261.09" y2="80.624"/>
	<line style="fill:none;stroke:#000000;stroke-miterlimit:1;" x1="261.09" y1="80.624" x2="257.709" y2="80.174"/>
	<line style="fill:none;stroke:#000000;stroke-miterlimit:1;" x1="257.709" y1="80.174" x2="164.133" y2="80.174"/>
	<line style="fill:none;stroke:#000000;stroke-miterlimit:1;" x1="164.133" y1="80.174" x2="161.201" y2="80.624"/>
	<line style="fill:none;stroke:#000000;stroke-miterlimit:1;" x1="161.201" y1="80.624" x2="159.623" y2="81.075"/>
	<line style="fill:none;stroke:#000000;stroke-miterlimit:1;" x1="159.623" y1="81.075" x2="158.27" y2="81.978"/>
	<line style="fill:none;stroke:#000000;stroke-miterlimit:1;" x1="158.27" y1="81.978" x2="156.918" y2="84.007"/>
	<line style="fill:none;stroke:#000000;stroke-miterlimit:1;" x1="156.918" y1="84.007" x2="156.016" y2="87.389"/>
	<line style="fill:none;stroke:#000000;stroke-miterlimit:1;" x1="156.016" y1="87.389" x2="156.918" y2="91.447"/>
	<line style="fill:none;stroke:#000000;stroke-miterlimit:1;" x1="156.918" y1="91.447" x2="157.818" y2="92.801"/>
	<line style="fill:none;stroke:#000000;stroke-miterlimit:1;" x1="157.818" y1="92.801" x2="159.623" y2="94.153"/>
	<line style="fill:none;stroke:#000000;stroke-miterlimit:1;" x1="159.623" y1="94.153" x2="160.977" y2="95.056"/>
	<line style="fill:none;stroke:#000000;stroke-miterlimit:1;" x1="160.977" y1="95.056" x2="163.23" y2="95.506"/>
	<line style="fill:none;stroke:#000000;stroke-miterlimit:1;" x1="163.23" y1="95.506" x2="259.287" y2="95.506"/>
	<line style="fill:none;stroke:#000000;stroke-miterlimit:1;" x1="170.107" y1="108.556" x2="170.107" y2="149.144"/>
	<line style="fill:none;stroke:#000000;stroke-miterlimit:1;" x1="170.107" y1="149.144" x2="177.324" y2="149.144"/>
	<line style="fill:none;stroke:#000000;stroke-miterlimit:1;" x1="177.324" y1="149.144" x2="177.324" y2="108.556"/>
	<line style="fill:none;stroke:#000000;stroke-miterlimit:1;" x1="177.324" y1="108.556" x2="170.107" y2="108.556"/>
	<line style="fill:none;stroke:#000000;stroke-miterlimit:1;" x1="206.186" y1="108.556" x2="206.186" y2="149.144"/>
	<line style="fill:none;stroke:#000000;stroke-miterlimit:1;" x1="206.186" y1="149.144" x2="213.627" y2="149.144"/>
	<line style="fill:none;stroke:#000000;stroke-miterlimit:1;" x1="213.627" y1="149.144" x2="213.627" y2="108.556"/>
	<line style="fill:none;stroke:#000000;stroke-miterlimit:1;" x1="213.627" y1="108.556" x2="206.186" y2="108.556"/>
	<line style="fill:none;stroke:#000000;stroke-miterlimit:1;" x1="242.713" y1="108.556" x2="242.713" y2="149.144"/>
	<line style="fill:none;stroke:#000000;stroke-miterlimit:1;" x1="242.713" y1="149.144" x2="249.93" y2="149.144"/>
	<line style="fill:none;stroke:#000000;stroke-miterlimit:1;" x1="249.93" y1="149.144" x2="249.93" y2="108.556"/>
	<line style="fill:none;stroke:#000000;stroke-miterlimit:1;" x1="249.93" y1="108.556" x2="242.713" y2="108.556"/>
</g>
</svg>
