<?xml version="1.0" encoding="iso-8859-1"?>
<!-- Generator: Adobe Illustrator 16.0.1, SVG Export Plug-In . SVG Version: 6.00 Build 0)  -->
<!DOCTYPE svg PUBLIC "-//W3C//DTD SVG 1.1//EN" "http://www.w3.org/Graphics/SVG/1.1/DTD/svg11.dtd">
<svg version="1.1" id="Ebene_1" xmlns="http://www.w3.org/2000/svg" xmlns:xlink="http://www.w3.org/1999/xlink" x="0px" y="0px"
	 width="129.656px" height="148.114px" viewBox="0 0 129.656 148.114" style="enable-background:new 0 0 129.656 148.114;"
	 xml:space="preserve">
<g>
	<line style="fill:none;stroke:#000000;stroke-miterlimit:1;" x1="28.333" y1="50.182" x2="101.324" y2="50.182"/>
	<line style="fill:none;stroke:#000000;stroke-miterlimit:1;" x1="101.324" y1="50.182" x2="101.324" y2="53.063"/>
	<line style="fill:none;stroke:#000000;stroke-miterlimit:1;" x1="101.324" y1="53.063" x2="104.205" y2="53.543"/>
	<line style="fill:none;stroke:#000000;stroke-miterlimit:1;" x1="104.205" y1="53.543" x2="108.768" y2="54.984"/>
	<line style="fill:none;stroke:#000000;stroke-miterlimit:1;" x1="108.768" y1="54.984" x2="111.889" y2="56.905"/>
	<line style="fill:none;stroke:#000000;stroke-miterlimit:1;" x1="111.889" y1="56.905" x2="115.971" y2="59.786"/>
	<line style="fill:none;stroke:#000000;stroke-miterlimit:1;" x1="115.971" y1="59.786" x2="119.572" y2="63.628"/>
	<line style="fill:none;stroke:#000000;stroke-miterlimit:1;" x1="119.572" y1="63.628" x2="122.934" y2="68.189"/>
	<line style="fill:none;stroke:#000000;stroke-miterlimit:1;" x1="122.934" y1="68.189" x2="125.334" y2="72.751"/>
	<line style="fill:none;stroke:#000000;stroke-miterlimit:1;" x1="125.334" y1="72.751" x2="127.496" y2="78.514"/>
	<line style="fill:none;stroke:#000000;stroke-miterlimit:1;" x1="127.496" y1="78.514" x2="128.936" y2="84.276"/>
	<line style="fill:none;stroke:#000000;stroke-miterlimit:1;" x1="128.936" y1="84.276" x2="129.656" y2="93.881"/>
	<line style="fill:none;stroke:#000000;stroke-miterlimit:1;" x1="129.656" y1="93.881" x2="128.936" y2="98.923"/>
	<line style="fill:none;stroke:#000000;stroke-miterlimit:1;" x1="128.936" y1="98.923" x2="126.775" y2="104.686"/>
	<line style="fill:none;stroke:#000000;stroke-miterlimit:1;" x1="126.775" y1="104.686" x2="124.135" y2="107.327"/>
	<line style="fill:none;stroke:#000000;stroke-miterlimit:1;" x1="124.135" y1="107.327" x2="121.973" y2="107.807"/>
	<line style="fill:none;stroke:#000000;stroke-miterlimit:1;" x1="121.973" y1="107.807" x2="118.611" y2="107.566"/>
	<line style="fill:none;stroke:#000000;stroke-miterlimit:1;" x1="118.611" y1="107.566" x2="115.971" y2="105.406"/>
	<line style="fill:none;stroke:#000000;stroke-miterlimit:1;" x1="115.971" y1="105.406" x2="114.77" y2="102.765"/>
	<line style="fill:none;stroke:#000000;stroke-miterlimit:1;" x1="114.77" y1="102.765" x2="114.289" y2="99.884"/>
	<line style="fill:none;stroke:#000000;stroke-miterlimit:1;" x1="114.289" y1="99.884" x2="114.049" y2="97.723"/>
	<line style="fill:none;stroke:#000000;stroke-miterlimit:1;" x1="114.049" y1="97.723" x2="114.77" y2="90.279"/>
	<line style="fill:none;stroke:#000000;stroke-miterlimit:1;" x1="114.77" y1="90.279" x2="115.73" y2="82.116"/>
	<line style="fill:none;stroke:#000000;stroke-miterlimit:1;" x1="115.73" y1="82.116" x2="115.01" y2="73.712"/>
	<line style="fill:none;stroke:#000000;stroke-miterlimit:1;" x1="115.01" y1="73.712" x2="112.85" y2="67.709"/>
	<line style="fill:none;stroke:#000000;stroke-miterlimit:1;" x1="112.85" y1="67.709" x2="109.729" y2="62.907"/>
	<line style="fill:none;stroke:#000000;stroke-miterlimit:1;" x1="109.729" y1="62.907" x2="106.605" y2="59.306"/>
	<line style="fill:none;stroke:#000000;stroke-miterlimit:1;" x1="106.605" y1="59.306" x2="103.004" y2="57.865"/>
	<line style="fill:none;stroke:#000000;stroke-miterlimit:1;" x1="103.004" y1="57.865" x2="101.324" y2="57.865"/>
	<line style="fill:none;stroke:#000000;stroke-miterlimit:1;" x1="101.324" y1="57.865" x2="101.324" y2="60.506"/>
	<line style="fill:none;stroke:#000000;stroke-miterlimit:1;" x1="101.324" y1="60.506" x2="91.721" y2="60.506"/>
	<line style="fill:none;stroke:#000000;stroke-miterlimit:1;" x1="91.721" y1="60.506" x2="91.721" y2="65.548"/>
	<line style="fill:none;stroke:#000000;stroke-miterlimit:1;" x1="91.721" y1="65.548" x2="77.555" y2="65.548"/>
	<line style="fill:none;stroke:#000000;stroke-miterlimit:1;" x1="77.555" y1="65.548" x2="77.555" y2="60.506"/>
	<line style="fill:none;stroke:#000000;stroke-miterlimit:1;" x1="77.555" y1="60.506" x2="51.623" y2="60.506"/>
	<line style="fill:none;stroke:#000000;stroke-miterlimit:1;" x1="51.623" y1="60.506" x2="51.623" y2="65.548"/>
	<line style="fill:none;stroke:#000000;stroke-miterlimit:1;" x1="51.623" y1="65.548" x2="37.937" y2="65.548"/>
	<line style="fill:none;stroke:#000000;stroke-miterlimit:1;" x1="37.937" y1="65.548" x2="37.937" y2="60.506"/>
	<line style="fill:none;stroke:#000000;stroke-miterlimit:1;" x1="37.937" y1="60.506" x2="28.333" y2="60.506"/>
	<line style="fill:none;stroke:#000000;stroke-miterlimit:1;" x1="32.654" y1="50.182" x2="42.019" y2="4.322"/>
	<line style="fill:none;stroke:#000000;stroke-miterlimit:1;" x1="42.019" y1="4.322" x2="43.699" y2="1.441"/>
	<line style="fill:none;stroke:#000000;stroke-miterlimit:1;" x1="43.699" y1="1.441" x2="44.899" y2="0.48"/>
	<line style="fill:none;stroke:#000000;stroke-miterlimit:1;" x1="44.899" y1="0.48" x2="46.34" y2="0"/>
	<line style="fill:none;stroke:#000000;stroke-miterlimit:1;" x1="46.34" y1="0" x2="48.501" y2="0"/>
	<line style="fill:none;stroke:#000000;stroke-miterlimit:1;" x1="48.501" y1="0" x2="50.662" y2="1.201"/>
	<line style="fill:none;stroke:#000000;stroke-miterlimit:1;" x1="50.662" y1="1.201" x2="51.142" y2="2.641"/>
	<line style="fill:none;stroke:#000000;stroke-miterlimit:1;" x1="51.142" y1="2.641" x2="51.142" y2="4.322"/>
	<line style="fill:none;stroke:#000000;stroke-miterlimit:1;" x1="41.778" y1="50.182" x2="51.382" y2="4.082"/>
	<line style="fill:none;stroke:#000000;stroke-miterlimit:1;" x1="51.382" y1="4.082" x2="52.583" y2="1.921"/>
	<line style="fill:none;stroke:#000000;stroke-miterlimit:1;" x1="52.583" y1="1.921" x2="53.784" y2="0.72"/>
	<line style="fill:none;stroke:#000000;stroke-miterlimit:1;" x1="53.784" y1="0.72" x2="55.944" y2="0.24"/>
	<line style="fill:none;stroke:#000000;stroke-miterlimit:1;" x1="55.944" y1="0.24" x2="58.105" y2="0.96"/>
	<line style="fill:none;stroke:#000000;stroke-miterlimit:1;" x1="58.105" y1="0.96" x2="59.306" y2="1.921"/>
	<line style="fill:none;stroke:#000000;stroke-miterlimit:1;" x1="59.306" y1="1.921" x2="60.026" y2="3.361"/>
	<line style="fill:none;stroke:#000000;stroke-miterlimit:1;" x1="50.422" y1="50.182" x2="59.786" y2="4.322"/>
	<line style="fill:none;stroke:#000000;stroke-miterlimit:1;" x1="59.786" y1="4.322" x2="60.747" y2="2.161"/>
	<line style="fill:none;stroke:#000000;stroke-miterlimit:1;" x1="60.747" y1="2.161" x2="62.427" y2="0.72"/>
	<line style="fill:none;stroke:#000000;stroke-miterlimit:1;" x1="62.427" y1="0.72" x2="64.348" y2="0.48"/>
	<line style="fill:none;stroke:#000000;stroke-miterlimit:1;" x1="64.348" y1="0.48" x2="66.51" y2="0.72"/>
	<line style="fill:none;stroke:#000000;stroke-miterlimit:1;" x1="66.51" y1="0.72" x2="68.189" y2="2.161"/>
	<line style="fill:none;stroke:#000000;stroke-miterlimit:1;" x1="68.189" y1="2.161" x2="68.67" y2="4.082"/>
	<line style="fill:none;stroke:#000000;stroke-miterlimit:1;" x1="59.066" y1="50.182" x2="68.43" y2="4.802"/>
	<line style="fill:none;stroke:#000000;stroke-miterlimit:1;" x1="68.43" y1="4.802" x2="69.871" y2="2.161"/>
	<line style="fill:none;stroke:#000000;stroke-miterlimit:1;" x1="69.871" y1="2.161" x2="71.551" y2="0.72"/>
	<line style="fill:none;stroke:#000000;stroke-miterlimit:1;" x1="71.551" y1="0.72" x2="74.432" y2="0.48"/>
	<line style="fill:none;stroke:#000000;stroke-miterlimit:1;" x1="74.432" y1="0.48" x2="75.393" y2="0.72"/>
	<line style="fill:none;stroke:#000000;stroke-miterlimit:1;" x1="75.393" y1="0.72" x2="76.834" y2="1.681"/>
	<line style="fill:none;stroke:#000000;stroke-miterlimit:1;" x1="76.834" y1="1.681" x2="77.555" y2="4.082"/>
	<line style="fill:none;stroke:#000000;stroke-miterlimit:1;" x1="68.189" y1="50.182" x2="77.314" y2="5.042"/>
	<line style="fill:none;stroke:#000000;stroke-miterlimit:1;" x1="77.314" y1="5.042" x2="78.273" y2="2.641"/>
	<line style="fill:none;stroke:#000000;stroke-miterlimit:1;" x1="78.273" y1="2.641" x2="79.234" y2="1.201"/>
	<line style="fill:none;stroke:#000000;stroke-miterlimit:1;" x1="79.234" y1="1.201" x2="81.395" y2="0.24"/>
	<line style="fill:none;stroke:#000000;stroke-miterlimit:1;" x1="81.395" y1="0.24" x2="84.037" y2="0.72"/>
	<line style="fill:none;stroke:#000000;stroke-miterlimit:1;" x1="84.037" y1="0.72" x2="85.957" y2="1.921"/>
	<line style="fill:none;stroke:#000000;stroke-miterlimit:1;" x1="85.957" y1="1.921" x2="86.678" y2="3.602"/>
	<line style="fill:none;stroke:#000000;stroke-miterlimit:1;" x1="77.555" y1="50.182" x2="86.197" y2="5.282"/>
	<line style="fill:none;stroke:#000000;stroke-miterlimit:1;" x1="86.197" y1="5.282" x2="86.918" y2="2.881"/>
	<line style="fill:none;stroke:#000000;stroke-miterlimit:1;" x1="86.918" y1="2.881" x2="88.359" y2="0.96"/>
	<line style="fill:none;stroke:#000000;stroke-miterlimit:1;" x1="88.359" y1="0.96" x2="90.76" y2="0.48"/>
	<line style="fill:none;stroke:#000000;stroke-miterlimit:1;" x1="90.76" y1="0.48" x2="91.24" y2="0.24"/>
	<line style="fill:none;stroke:#000000;stroke-miterlimit:1;" x1="91.24" y1="0.24" x2="93.4" y2="1.201"/>
	<line style="fill:none;stroke:#000000;stroke-miterlimit:1;" x1="93.4" y1="1.201" x2="94.842" y2="2.641"/>
	<line style="fill:none;stroke:#000000;stroke-miterlimit:1;" x1="94.842" y1="2.641" x2="94.842" y2="4.082"/>
	<line style="fill:none;stroke:#000000;stroke-miterlimit:1;" x1="85.717" y1="50.182" x2="94.842" y2="3.842"/>
	<line style="fill:none;stroke:#000000;stroke-miterlimit:1;" x1="94.842" y1="3.842" x2="95.801" y2="1.921"/>
	<line style="fill:none;stroke:#000000;stroke-miterlimit:1;" x1="95.801" y1="1.921" x2="97.002" y2="0.72"/>
	<line style="fill:none;stroke:#000000;stroke-miterlimit:1;" x1="97.002" y1="0.72" x2="98.443" y2="0.48"/>
	<line style="fill:none;stroke:#000000;stroke-miterlimit:1;" x1="98.443" y1="0.48" x2="100.604" y2="0.48"/>
	<line style="fill:none;stroke:#000000;stroke-miterlimit:1;" x1="100.604" y1="0.48" x2="102.525" y2="1.201"/>
	<line style="fill:none;stroke:#000000;stroke-miterlimit:1;" x1="102.525" y1="1.201" x2="103.484" y2="2.641"/>
	<line style="fill:none;stroke:#000000;stroke-miterlimit:1;" x1="103.484" y1="2.641" x2="103.965" y2="5.042"/>
	<line style="fill:none;stroke:#000000;stroke-miterlimit:1;" x1="103.965" y1="5.042" x2="94.602" y2="50.182"/>
	<line style="fill:none;stroke:#000000;stroke-miterlimit:1;" x1="94.602" y1="50.182" x2="28.333" y2="50.182"/>
	<line style="fill:none;stroke:#000000;stroke-miterlimit:1;" x1="28.333" y1="50.182" x2="28.333" y2="53.303"/>
	<line style="fill:none;stroke:#000000;stroke-miterlimit:1;" x1="28.333" y1="53.303" x2="24.971" y2="53.783"/>
	<line style="fill:none;stroke:#000000;stroke-miterlimit:1;" x1="24.971" y1="53.783" x2="20.409" y2="55.224"/>
	<line style="fill:none;stroke:#000000;stroke-miterlimit:1;" x1="20.409" y1="55.224" x2="17.047" y2="57.145"/>
	<line style="fill:none;stroke:#000000;stroke-miterlimit:1;" x1="17.047" y1="57.145" x2="13.206" y2="60.266"/>
	<line style="fill:none;stroke:#000000;stroke-miterlimit:1;" x1="13.206" y1="60.266" x2="9.604" y2="64.108"/>
	<line style="fill:none;stroke:#000000;stroke-miterlimit:1;" x1="9.604" y1="64.108" x2="4.082" y2="73.472"/>
	<line style="fill:none;stroke:#000000;stroke-miterlimit:1;" x1="4.082" y1="73.472" x2="2.401" y2="78.994"/>
	<line style="fill:none;stroke:#000000;stroke-miterlimit:1;" x1="2.401" y1="78.994" x2="0.72" y2="84.757"/>
	<line style="fill:none;stroke:#000000;stroke-miterlimit:1;" x1="0.72" y1="84.757" x2="0" y2="94.361"/>
	<line style="fill:none;stroke:#000000;stroke-miterlimit:1;" x1="0" y1="94.361" x2="0.72" y2="99.403"/>
	<line style="fill:none;stroke:#000000;stroke-miterlimit:1;" x1="0.72" y1="99.403" x2="3.122" y2="104.926"/>
	<line style="fill:none;stroke:#000000;stroke-miterlimit:1;" x1="3.122" y1="104.926" x2="5.763" y2="107.566"/>
	<line style="fill:none;stroke:#000000;stroke-miterlimit:1;" x1="5.763" y1="107.566" x2="7.684" y2="108.047"/>
	<line style="fill:none;stroke:#000000;stroke-miterlimit:1;" x1="7.684" y1="108.047" x2="11.045" y2="107.807"/>
	<line style="fill:none;stroke:#000000;stroke-miterlimit:1;" x1="11.045" y1="107.807" x2="13.926" y2="105.646"/>
	<line style="fill:none;stroke:#000000;stroke-miterlimit:1;" x1="13.926" y1="105.646" x2="14.887" y2="103.005"/>
	<line style="fill:none;stroke:#000000;stroke-miterlimit:1;" x1="14.887" y1="103.005" x2="15.367" y2="100.124"/>
	<line style="fill:none;stroke:#000000;stroke-miterlimit:1;" x1="15.367" y1="100.124" x2="15.607" y2="97.963"/>
	<line style="fill:none;stroke:#000000;stroke-miterlimit:1;" x1="15.607" y1="97.963" x2="14.887" y2="90.52"/>
	<line style="fill:none;stroke:#000000;stroke-miterlimit:1;" x1="14.887" y1="90.52" x2="13.686" y2="82.355"/>
	<line style="fill:none;stroke:#000000;stroke-miterlimit:1;" x1="13.686" y1="82.355" x2="14.406" y2="74.192"/>
	<line style="fill:none;stroke:#000000;stroke-miterlimit:1;" x1="14.406" y1="74.192" x2="16.327" y2="68.189"/>
	<line style="fill:none;stroke:#000000;stroke-miterlimit:1;" x1="16.327" y1="68.189" x2="19.449" y2="63.147"/>
	<line style="fill:none;stroke:#000000;stroke-miterlimit:1;" x1="19.449" y1="63.147" x2="22.57" y2="59.546"/>
	<line style="fill:none;stroke:#000000;stroke-miterlimit:1;" x1="22.57" y1="59.546" x2="25.931" y2="58.105"/>
	<line style="fill:none;stroke:#000000;stroke-miterlimit:1;" x1="25.931" y1="58.105" x2="28.333" y2="57.865"/>
	<line style="fill:none;stroke:#000000;stroke-miterlimit:1;" x1="28.333" y1="57.865" x2="28.333" y2="60.026"/>
	<line style="fill:none;stroke:#000000;stroke-miterlimit:1;" x1="63.297" y1="93.371" x2="60.417" y2="94.812"/>
	<line style="fill:none;stroke:#000000;stroke-miterlimit:1;" x1="60.417" y1="94.812" x2="58.255" y2="97.452"/>
	<line style="fill:none;stroke:#000000;stroke-miterlimit:1;" x1="58.255" y1="97.452" x2="57.535" y2="99.613"/>
	<line style="fill:none;stroke:#000000;stroke-miterlimit:1;" x1="57.535" y1="99.613" x2="57.055" y2="101.774"/>
	<line style="fill:none;stroke:#000000;stroke-miterlimit:1;" x1="57.055" y1="101.774" x2="57.775" y2="105.136"/>
	<line style="fill:none;stroke:#000000;stroke-miterlimit:1;" x1="57.775" y1="105.136" x2="59.456" y2="107.297"/>
	<line style="fill:none;stroke:#000000;stroke-miterlimit:1;" x1="59.456" y1="107.297" x2="61.137" y2="108.737"/>
	<line style="fill:none;stroke:#000000;stroke-miterlimit:1;" x1="61.137" y1="108.737" x2="64.018" y2="109.697"/>
	<line style="fill:none;stroke:#000000;stroke-miterlimit:1;" x1="64.018" y1="109.697" x2="66.18" y2="110.418"/>
	<line style="fill:none;stroke:#000000;stroke-miterlimit:1;" x1="66.18" y1="110.418" x2="68.82" y2="110.418"/>
	<line style="fill:none;stroke:#000000;stroke-miterlimit:1;" x1="68.82" y1="110.418" x2="71.701" y2="109.218"/>
	<line style="fill:none;stroke:#000000;stroke-miterlimit:1;" x1="71.701" y1="109.218" x2="74.102" y2="108.017"/>
	<line style="fill:none;stroke:#000000;stroke-miterlimit:1;" x1="74.102" y1="108.017" x2="75.543" y2="106.336"/>
	<line style="fill:none;stroke:#000000;stroke-miterlimit:1;" x1="75.543" y1="106.336" x2="77.225" y2="103.936"/>
	<line style="fill:none;stroke:#000000;stroke-miterlimit:1;" x1="77.225" y1="103.936" x2="78.424" y2="101.054"/>
	<line style="fill:none;stroke:#000000;stroke-miterlimit:1;" x1="78.424" y1="101.054" x2="79.145" y2="98.653"/>
	<line style="fill:none;stroke:#000000;stroke-miterlimit:1;" x1="79.145" y1="98.653" x2="79.385" y2="96.252"/>
	<line style="fill:none;stroke:#000000;stroke-miterlimit:1;" x1="79.385" y1="96.252" x2="79.145" y2="94.571"/>
	<line style="fill:none;stroke:#000000;stroke-miterlimit:1;" x1="79.145" y1="94.571" x2="78.664" y2="91.689"/>
	<line style="fill:none;stroke:#000000;stroke-miterlimit:1;" x1="78.664" y1="91.689" x2="77.463" y2="89.289"/>
	<line style="fill:none;stroke:#000000;stroke-miterlimit:1;" x1="77.463" y1="89.289" x2="75.543" y2="86.888"/>
	<line style="fill:none;stroke:#000000;stroke-miterlimit:1;" x1="75.543" y1="86.888" x2="73.623" y2="85.207"/>
	<line style="fill:none;stroke:#000000;stroke-miterlimit:1;" x1="73.623" y1="85.207" x2="71.941" y2="84.486"/>
	<line style="fill:none;stroke:#000000;stroke-miterlimit:1;" x1="71.941" y1="84.486" x2="70.26" y2="83.767"/>
	<line style="fill:none;stroke:#000000;stroke-miterlimit:1;" x1="70.26" y1="83.767" x2="67.859" y2="83.526"/>
	<line style="fill:none;stroke:#000000;stroke-miterlimit:1;" x1="67.859" y1="83.526" x2="65.939" y2="83.286"/>
	<line style="fill:none;stroke:#000000;stroke-miterlimit:1;" x1="65.939" y1="83.286" x2="63.538" y2="83.286"/>
	<line style="fill:none;stroke:#000000;stroke-miterlimit:1;" x1="63.538" y1="83.286" x2="60.656" y2="83.526"/>
	<line style="fill:none;stroke:#000000;stroke-miterlimit:1;" x1="60.656" y1="83.526" x2="57.535" y2="84.486"/>
	<line style="fill:none;stroke:#000000;stroke-miterlimit:1;" x1="57.535" y1="84.486" x2="54.894" y2="85.928"/>
	<line style="fill:none;stroke:#000000;stroke-miterlimit:1;" x1="54.894" y1="85.928" x2="53.213" y2="87.368"/>
	<line style="fill:none;stroke:#000000;stroke-miterlimit:1;" x1="53.213" y1="87.368" x2="51.292" y2="89.049"/>
	<line style="fill:none;stroke:#000000;stroke-miterlimit:1;" x1="51.292" y1="89.049" x2="49.852" y2="90.729"/>
	<line style="fill:none;stroke:#000000;stroke-miterlimit:1;" x1="49.852" y1="90.729" x2="48.411" y2="93.371"/>
	<line style="fill:none;stroke:#000000;stroke-miterlimit:1;" x1="48.411" y1="93.371" x2="46.971" y2="96.012"/>
	<line style="fill:none;stroke:#000000;stroke-miterlimit:1;" x1="46.971" y1="96.012" x2="46.49" y2="98.413"/>
	<line style="fill:none;stroke:#000000;stroke-miterlimit:1;" x1="46.49" y1="98.413" x2="46.01" y2="101.774"/>
	<line style="fill:none;stroke:#000000;stroke-miterlimit:1;" x1="46.01" y1="101.774" x2="45.77" y2="105.136"/>
	<line style="fill:none;stroke:#000000;stroke-miterlimit:1;" x1="45.77" y1="105.136" x2="46.01" y2="107.777"/>
	<line style="fill:none;stroke:#000000;stroke-miterlimit:1;" x1="46.01" y1="107.777" x2="46.25" y2="111.618"/>
	<line style="fill:none;stroke:#000000;stroke-miterlimit:1;" x1="46.25" y1="111.618" x2="47.691" y2="115.46"/>
	<line style="fill:none;stroke:#000000;stroke-miterlimit:1;" x1="47.691" y1="115.46" x2="49.852" y2="119.782"/>
	<line style="fill:none;stroke:#000000;stroke-miterlimit:1;" x1="49.852" y1="119.782" x2="53.693" y2="124.824"/>
	<line style="fill:none;stroke:#000000;stroke-miterlimit:1;" x1="53.693" y1="124.824" x2="59.696" y2="130.587"/>
	<line style="fill:none;stroke:#000000;stroke-miterlimit:1;" x1="59.696" y1="130.587" x2="68.34" y2="137.55"/>
	<line style="fill:none;stroke:#000000;stroke-miterlimit:1;" x1="68.34" y1="137.55" x2="87.068" y2="148.114"/>
</g>
</svg>
