<?xml version="1.0" encoding="iso-8859-1"?>
<!-- Generator: Adobe Illustrator 16.0.1, SVG Export Plug-In . SVG Version: 6.00 Build 0)  -->
<!DOCTYPE svg PUBLIC "-//W3C//DTD SVG 1.1//EN" "http://www.w3.org/Graphics/SVG/1.1/DTD/svg11.dtd">
<svg version="1.1" id="Ebene_1" xmlns="http://www.w3.org/2000/svg" xmlns:xlink="http://www.w3.org/1999/xlink" x="0px" y="0px"
	 width="246.692px" height="148.114px" viewBox="0 0 246.692 148.114" style="enable-background:new 0 0 246.692 148.114;"
	 xml:space="preserve">
<g>
	<line style="fill:none;stroke:#000000;stroke-miterlimit:1;" x1="40.484" y1="59.246" x2="40.484" y2="148.114"/>
	<line style="fill:none;stroke:#000000;stroke-miterlimit:1;" x1="40.484" y1="148.114" x2="33.572" y2="148.114"/>
	<line style="fill:none;stroke:#000000;stroke-miterlimit:1;" x1="33.572" y1="148.114" x2="33.572" y2="59.246"/>
	<line style="fill:none;stroke:#000000;stroke-miterlimit:1;" x1="74.057" y1="59.246" x2="0" y2="59.246"/>
	<line style="fill:none;stroke:#000000;stroke-miterlimit:1;" x1="0" y1="59.246" x2="0" y2="35.876"/>
	<line style="fill:none;stroke:#000000;stroke-miterlimit:1;" x1="0" y1="35.876" x2="1.316" y2="33.244"/>
	<line style="fill:none;stroke:#000000;stroke-miterlimit:1;" x1="1.316" y1="33.244" x2="2.633" y2="31.598"/>
	<line style="fill:none;stroke:#000000;stroke-miterlimit:1;" x1="2.633" y1="31.598" x2="4.279" y2="31.598"/>
	<line style="fill:none;stroke:#000000;stroke-miterlimit:1;" x1="4.279" y1="31.598" x2="5.924" y2="31.598"/>
	<line style="fill:none;stroke:#000000;stroke-miterlimit:1;" x1="5.924" y1="31.598" x2="7.899" y2="31.927"/>
	<line style="fill:none;stroke:#000000;stroke-miterlimit:1;" x1="7.899" y1="31.927" x2="9.874" y2="33.244"/>
	<line style="fill:none;stroke:#000000;stroke-miterlimit:1;" x1="9.874" y1="33.244" x2="16.457" y2="39.168"/>
	<line style="fill:none;stroke:#000000;stroke-miterlimit:1;" x1="16.457" y1="39.168" x2="22.381" y2="44.434"/>
	<line style="fill:none;stroke:#000000;stroke-miterlimit:1;" x1="22.381" y1="44.434" x2="26.99" y2="46.738"/>
	<line style="fill:none;stroke:#000000;stroke-miterlimit:1;" x1="26.99" y1="46.738" x2="32.585" y2="48.055"/>
	<line style="fill:none;stroke:#000000;stroke-miterlimit:1;" x1="32.585" y1="48.055" x2="37.193" y2="48.384"/>
	<line style="fill:none;stroke:#000000;stroke-miterlimit:1;" x1="37.193" y1="48.384" x2="41.472" y2="48.055"/>
	<line style="fill:none;stroke:#000000;stroke-miterlimit:1;" x1="41.472" y1="48.055" x2="47.067" y2="46.738"/>
	<line style="fill:none;stroke:#000000;stroke-miterlimit:1;" x1="47.067" y1="46.738" x2="51.675" y2="44.434"/>
	<line style="fill:none;stroke:#000000;stroke-miterlimit:1;" x1="51.675" y1="44.434" x2="57.6" y2="39.168"/>
	<line style="fill:none;stroke:#000000;stroke-miterlimit:1;" x1="57.6" y1="39.168" x2="64.183" y2="33.244"/>
	<line style="fill:none;stroke:#000000;stroke-miterlimit:1;" x1="64.183" y1="33.244" x2="66.158" y2="31.927"/>
	<line style="fill:none;stroke:#000000;stroke-miterlimit:1;" x1="66.158" y1="31.927" x2="68.132" y2="31.598"/>
	<line style="fill:none;stroke:#000000;stroke-miterlimit:1;" x1="68.132" y1="31.598" x2="69.778" y2="31.598"/>
	<line style="fill:none;stroke:#000000;stroke-miterlimit:1;" x1="69.778" y1="31.598" x2="71.424" y2="31.598"/>
	<line style="fill:none;stroke:#000000;stroke-miterlimit:1;" x1="71.424" y1="31.598" x2="72.74" y2="33.244"/>
	<line style="fill:none;stroke:#000000;stroke-miterlimit:1;" x1="72.74" y1="33.244" x2="74.057" y2="35.876"/>
	<line style="fill:none;stroke:#000000;stroke-miterlimit:1;" x1="74.057" y1="35.876" x2="74.057" y2="59.246"/>
	<line style="fill:none;stroke:#000000;stroke-miterlimit:1;" x1="23.369" y1="44.434" x2="29.293" y2="5.596"/>
	<line style="fill:none;stroke:#000000;stroke-miterlimit:1;" x1="29.293" y1="5.596" x2="31.927" y2="2.304"/>
	<line style="fill:none;stroke:#000000;stroke-miterlimit:1;" x1="31.927" y1="2.304" x2="33.901" y2="0.987"/>
	<line style="fill:none;stroke:#000000;stroke-miterlimit:1;" x1="33.901" y1="0.987" x2="36.535" y2="0"/>
	<line style="fill:none;stroke:#000000;stroke-miterlimit:1;" x1="36.535" y1="0" x2="37.522" y2="0"/>
	<line style="fill:none;stroke:#000000;stroke-miterlimit:1;" x1="37.522" y1="0" x2="40.155" y2="0.987"/>
	<line style="fill:none;stroke:#000000;stroke-miterlimit:1;" x1="40.155" y1="0.987" x2="42.13" y2="2.304"/>
	<line style="fill:none;stroke:#000000;stroke-miterlimit:1;" x1="42.13" y1="2.304" x2="44.763" y2="5.596"/>
	<line style="fill:none;stroke:#000000;stroke-miterlimit:1;" x1="44.763" y1="5.596" x2="50.688" y2="44.434"/>
	<line style="fill:none;stroke:#000000;stroke-miterlimit:1;" x1="55.954" y1="37.852" x2="53.321" y2="37.522"/>
	<line style="fill:none;stroke:#000000;stroke-miterlimit:1;" x1="53.321" y1="37.522" x2="51.675" y2="36.206"/>
	<line style="fill:none;stroke:#000000;stroke-miterlimit:1;" x1="51.675" y1="36.206" x2="50.688" y2="34.56"/>
	<line style="fill:none;stroke:#000000;stroke-miterlimit:1;" x1="50.688" y1="34.56" x2="50.03" y2="32.914"/>
	<line style="fill:none;stroke:#000000;stroke-miterlimit:1;" x1="50.03" y1="32.914" x2="50.359" y2="29.952"/>
	<line style="fill:none;stroke:#000000;stroke-miterlimit:1;" x1="50.359" y1="29.952" x2="51.675" y2="27.977"/>
	<line style="fill:none;stroke:#000000;stroke-miterlimit:1;" x1="51.675" y1="27.977" x2="53.321" y2="26.99"/>
	<line style="fill:none;stroke:#000000;stroke-miterlimit:1;" x1="53.321" y1="26.99" x2="55.954" y2="26.332"/>
	<line style="fill:none;stroke:#000000;stroke-miterlimit:1;" x1="55.954" y1="26.332" x2="58.587" y2="26.661"/>
	<line style="fill:none;stroke:#000000;stroke-miterlimit:1;" x1="58.587" y1="26.661" x2="60.562" y2="27.977"/>
	<line style="fill:none;stroke:#000000;stroke-miterlimit:1;" x1="60.562" y1="27.977" x2="61.879" y2="29.952"/>
	<line style="fill:none;stroke:#000000;stroke-miterlimit:1;" x1="61.879" y1="29.952" x2="61.879" y2="31.927"/>
	<line style="fill:none;stroke:#000000;stroke-miterlimit:1;" x1="61.879" y1="31.927" x2="61.879" y2="34.231"/>
	<line style="fill:none;stroke:#000000;stroke-miterlimit:1;" x1="61.879" y1="34.231" x2="60.562" y2="35.876"/>
	<line style="fill:none;stroke:#000000;stroke-miterlimit:1;" x1="60.562" y1="35.876" x2="58.587" y2="37.522"/>
	<line style="fill:none;stroke:#000000;stroke-miterlimit:1;" x1="58.587" y1="37.522" x2="55.954" y2="37.852"/>
	<line style="fill:none;stroke:#000000;stroke-miterlimit:1;" x1="19.419" y1="37.522" x2="16.457" y2="37.522"/>
	<line style="fill:none;stroke:#000000;stroke-miterlimit:1;" x1="16.457" y1="37.522" x2="13.495" y2="35.876"/>
	<line style="fill:none;stroke:#000000;stroke-miterlimit:1;" x1="13.495" y1="35.876" x2="12.507" y2="33.902"/>
	<line style="fill:none;stroke:#000000;stroke-miterlimit:1;" x1="12.507" y1="33.902" x2="12.178" y2="32.256"/>
	<line style="fill:none;stroke:#000000;stroke-miterlimit:1;" x1="12.178" y1="32.256" x2="12.836" y2="29.294"/>
	<line style="fill:none;stroke:#000000;stroke-miterlimit:1;" x1="12.836" y1="29.294" x2="15.141" y2="26.99"/>
	<line style="fill:none;stroke:#000000;stroke-miterlimit:1;" x1="15.141" y1="26.99" x2="16.457" y2="26.332"/>
	<line style="fill:none;stroke:#000000;stroke-miterlimit:1;" x1="16.457" y1="26.332" x2="18.761" y2="26.332"/>
	<line style="fill:none;stroke:#000000;stroke-miterlimit:1;" x1="18.761" y1="26.332" x2="21.065" y2="26.661"/>
	<line style="fill:none;stroke:#000000;stroke-miterlimit:1;" x1="21.065" y1="26.661" x2="23.04" y2="27.977"/>
	<line style="fill:none;stroke:#000000;stroke-miterlimit:1;" x1="23.04" y1="27.977" x2="24.027" y2="30.281"/>
	<line style="fill:none;stroke:#000000;stroke-miterlimit:1;" x1="24.027" y1="30.281" x2="24.027" y2="32.256"/>
	<line style="fill:none;stroke:#000000;stroke-miterlimit:1;" x1="24.027" y1="32.256" x2="23.369" y2="34.889"/>
	<line style="fill:none;stroke:#000000;stroke-miterlimit:1;" x1="23.369" y1="34.889" x2="22.381" y2="36.535"/>
	<line style="fill:none;stroke:#000000;stroke-miterlimit:1;" x1="22.381" y1="36.535" x2="20.736" y2="37.193"/>
	<line style="fill:none;stroke:#000000;stroke-miterlimit:1;" x1="20.736" y1="37.193" x2="19.419" y2="37.522"/>
	<line style="fill:none;stroke:#000000;stroke-miterlimit:1;" x1="42.789" y1="59.575" x2="52.333" y2="88.539"/>
	<line style="fill:none;stroke:#000000;stroke-miterlimit:1;" x1="52.333" y1="88.539" x2="52.992" y2="91.502"/>
	<line style="fill:none;stroke:#000000;stroke-miterlimit:1;" x1="52.992" y1="91.502" x2="52.992" y2="95.451"/>
	<line style="fill:none;stroke:#000000;stroke-miterlimit:1;" x1="52.992" y1="95.451" x2="51.675" y2="98.414"/>
	<line style="fill:none;stroke:#000000;stroke-miterlimit:1;" x1="51.675" y1="98.414" x2="49.7" y2="100.389"/>
	<line style="fill:none;stroke:#000000;stroke-miterlimit:1;" x1="49.7" y1="100.389" x2="47.726" y2="101.705"/>
	<line style="fill:none;stroke:#000000;stroke-miterlimit:1;" x1="47.726" y1="101.705" x2="40.484" y2="102.692"/>
	<line style="fill:none;stroke:#000000;stroke-miterlimit:1;" x1="33.572" y1="102.692" x2="26.661" y2="101.705"/>
	<line style="fill:none;stroke:#000000;stroke-miterlimit:1;" x1="26.661" y1="101.705" x2="23.369" y2="99.401"/>
	<line style="fill:none;stroke:#000000;stroke-miterlimit:1;" x1="23.369" y1="99.401" x2="21.394" y2="95.451"/>
	<line style="fill:none;stroke:#000000;stroke-miterlimit:1;" x1="21.394" y1="95.451" x2="21.394" y2="90.844"/>
	<line style="fill:none;stroke:#000000;stroke-miterlimit:1;" x1="21.394" y1="90.844" x2="31.598" y2="59.575"/>
	<line style="fill:none;stroke:#000000;stroke-miterlimit:1;" x1="229.248" y1="53.157" x2="208.183" y2="57.106"/>
	<line style="fill:none;stroke:#000000;stroke-miterlimit:1;" x1="208.183" y1="57.106" x2="212.133" y2="65.664"/>
	<line style="fill:none;stroke:#000000;stroke-miterlimit:1;" x1="212.133" y1="65.664" x2="222.994" y2="83.438"/>
	<line style="fill:none;stroke:#000000;stroke-miterlimit:1;" x1="222.994" y1="83.438" x2="227.932" y2="94.958"/>
	<line style="fill:none;stroke:#000000;stroke-miterlimit:1;" x1="227.932" y1="94.958" x2="213.778" y2="91.337"/>
	<line style="fill:none;stroke:#000000;stroke-miterlimit:1;" x1="213.778" y1="91.337" x2="196.992" y2="87.388"/>
	<line style="fill:none;stroke:#000000;stroke-miterlimit:1;" x1="196.992" y1="87.388" x2="168.027" y2="82.779"/>
	<line style="fill:none;stroke:#000000;stroke-miterlimit:1;" x1="168.027" y1="82.779" x2="154.203" y2="83.108"/>
	<line style="fill:none;stroke:#000000;stroke-miterlimit:1;" x1="154.203" y1="83.108" x2="140.379" y2="84.096"/>
	<line style="fill:none;stroke:#000000;stroke-miterlimit:1;" x1="140.379" y1="84.096" x2="128.859" y2="86.729"/>
	<line style="fill:none;stroke:#000000;stroke-miterlimit:1;" x1="128.859" y1="86.729" x2="125.897" y2="87.388"/>
	<line style="fill:none;stroke:#000000;stroke-miterlimit:1;" x1="125.897" y1="87.388" x2="118.656" y2="90.021"/>
	<line style="fill:none;stroke:#000000;stroke-miterlimit:1;" x1="118.656" y1="90.021" x2="115.364" y2="92.653"/>
	<line style="fill:none;stroke:#000000;stroke-miterlimit:1;" x1="115.364" y1="92.653" x2="94.299" y2="99.236"/>
	<line style="fill:none;stroke:#000000;stroke-miterlimit:1;" x1="94.299" y1="99.236" x2="92.983" y2="100.553"/>
	<line style="fill:none;stroke:#000000;stroke-miterlimit:1;" x1="92.983" y1="100.553" x2="92.324" y2="102.199"/>
	<line style="fill:none;stroke:#000000;stroke-miterlimit:1;" x1="92.324" y1="102.199" x2="92.654" y2="104.503"/>
	<line style="fill:none;stroke:#000000;stroke-miterlimit:1;" x1="92.654" y1="104.503" x2="94.299" y2="106.148"/>
	<line style="fill:none;stroke:#000000;stroke-miterlimit:1;" x1="94.299" y1="106.148" x2="96.274" y2="106.478"/>
	<line style="fill:none;stroke:#000000;stroke-miterlimit:1;" x1="96.274" y1="106.478" x2="100.882" y2="104.832"/>
	<line style="fill:none;stroke:#000000;stroke-miterlimit:1;" x1="100.882" y1="104.832" x2="105.819" y2="102.857"/>
	<line style="fill:none;stroke:#000000;stroke-miterlimit:1;" x1="105.819" y1="102.857" x2="117.339" y2="98.907"/>
	<line style="fill:none;stroke:#000000;stroke-miterlimit:1;" x1="117.339" y1="98.907" x2="123.264" y2="98.578"/>
	<line style="fill:none;stroke:#000000;stroke-miterlimit:1;" x1="123.264" y1="98.578" x2="129.188" y2="99.236"/>
	<line style="fill:none;stroke:#000000;stroke-miterlimit:1;" x1="129.188" y1="99.236" x2="145.646" y2="106.148"/>
	<line style="fill:none;stroke:#000000;stroke-miterlimit:1;" x1="145.646" y1="106.148" x2="147.62" y2="105.819"/>
	<line style="fill:none;stroke:#000000;stroke-miterlimit:1;" x1="147.62" y1="105.819" x2="149.596" y2="103.845"/>
	<line style="fill:none;stroke:#000000;stroke-miterlimit:1;" x1="149.596" y1="103.845" x2="149.596" y2="101.87"/>
	<line style="fill:none;stroke:#000000;stroke-miterlimit:1;" x1="149.596" y1="101.87" x2="146.962" y2="98.907"/>
	<line style="fill:none;stroke:#000000;stroke-miterlimit:1;" x1="146.962" y1="98.907" x2="132.479" y2="94.629"/>
	<line style="fill:none;stroke:#000000;stroke-miterlimit:1;" x1="132.479" y1="94.629" x2="143.671" y2="91.995"/>
	<line style="fill:none;stroke:#000000;stroke-miterlimit:1;" x1="143.671" y1="91.995" x2="154.203" y2="91.008"/>
	<line style="fill:none;stroke:#000000;stroke-miterlimit:1;" x1="154.203" y1="91.008" x2="167.04" y2="90.679"/>
	<line style="fill:none;stroke:#000000;stroke-miterlimit:1;" x1="167.04" y1="90.679" x2="180.535" y2="92.324"/>
	<line style="fill:none;stroke:#000000;stroke-miterlimit:1;" x1="180.535" y1="92.324" x2="195.675" y2="95.287"/>
	<line style="fill:none;stroke:#000000;stroke-miterlimit:1;" x1="195.675" y1="95.287" x2="213.778" y2="100.553"/>
	<line style="fill:none;stroke:#000000;stroke-miterlimit:1;" x1="213.778" y1="100.553" x2="234.515" y2="106.478"/>
	<line style="fill:none;stroke:#000000;stroke-miterlimit:1;" x1="234.515" y1="106.478" x2="237.806" y2="107.136"/>
	<line style="fill:none;stroke:#000000;stroke-miterlimit:1;" x1="237.806" y1="107.136" x2="242.743" y2="106.478"/>
	<line style="fill:none;stroke:#000000;stroke-miterlimit:1;" x1="242.743" y1="106.478" x2="244.389" y2="105.161"/>
	<line style="fill:none;stroke:#000000;stroke-miterlimit:1;" x1="244.389" y1="105.161" x2="246.363" y2="103.187"/>
	<line style="fill:none;stroke:#000000;stroke-miterlimit:1;" x1="246.363" y1="103.187" x2="246.692" y2="99.895"/>
	<line style="fill:none;stroke:#000000;stroke-miterlimit:1;" x1="246.692" y1="99.895" x2="246.363" y2="95.945"/>
	<line style="fill:none;stroke:#000000;stroke-miterlimit:1;" x1="246.363" y1="95.945" x2="229.248" y2="52.498"/>
	<line style="fill:none;stroke:#000000;stroke-miterlimit:1;" x1="92.983" y1="100.224" x2="89.691" y2="100.553"/>
	<line style="fill:none;stroke:#000000;stroke-miterlimit:1;" x1="89.691" y1="100.553" x2="87.716" y2="102.528"/>
	<line style="fill:none;stroke:#000000;stroke-miterlimit:1;" x1="87.716" y1="102.528" x2="87.058" y2="104.503"/>
	<line style="fill:none;stroke:#000000;stroke-miterlimit:1;" x1="87.058" y1="104.503" x2="86.4" y2="106.478"/>
	<line style="fill:none;stroke:#000000;stroke-miterlimit:1;" x1="86.4" y1="106.478" x2="92.983" y2="105.819"/>
	<line style="fill:none;stroke:#000000;stroke-miterlimit:1;" x1="148.937" y1="100.553" x2="151.57" y2="101.212"/>
	<line style="fill:none;stroke:#000000;stroke-miterlimit:1;" x1="151.57" y1="101.212" x2="152.887" y2="103.187"/>
	<line style="fill:none;stroke:#000000;stroke-miterlimit:1;" x1="152.887" y1="103.187" x2="154.203" y2="104.832"/>
	<line style="fill:none;stroke:#000000;stroke-miterlimit:1;" x1="154.203" y1="104.832" x2="154.861" y2="106.478"/>
	<line style="fill:none;stroke:#000000;stroke-miterlimit:1;" x1="154.861" y1="106.478" x2="148.278" y2="105.49"/>
</g>
</svg>
