<?xml version="1.0" encoding="iso-8859-1"?>
<!-- Generator: Adobe Illustrator 16.0.1, SVG Export Plug-In . SVG Version: 6.00 Build 0)  -->
<!DOCTYPE svg PUBLIC "-//W3C//DTD SVG 1.1//EN" "http://www.w3.org/Graphics/SVG/1.1/DTD/svg11.dtd">
<svg version="1.1" id="Ebene_1" xmlns="http://www.w3.org/2000/svg" xmlns:xlink="http://www.w3.org/1999/xlink" x="0px" y="0px"
	 width="154.45px" height="148.115px" viewBox="0 0 154.45 148.115" style="enable-background:new 0 0 154.45 148.115;"
	 xml:space="preserve">
<g>
	<line style="fill:none;stroke:#000000;stroke-miterlimit:1;" x1="40.484" y1="59.246" x2="40.484" y2="148.115"/>
	<line style="fill:none;stroke:#000000;stroke-miterlimit:1;" x1="40.484" y1="148.115" x2="33.573" y2="148.115"/>
	<line style="fill:none;stroke:#000000;stroke-miterlimit:1;" x1="33.573" y1="148.115" x2="33.573" y2="59.246"/>
	<line style="fill:none;stroke:#000000;stroke-miterlimit:1;" x1="74.057" y1="59.246" x2="0" y2="59.246"/>
	<line style="fill:none;stroke:#000000;stroke-miterlimit:1;" x1="0" y1="59.246" x2="0" y2="35.876"/>
	<line style="fill:none;stroke:#000000;stroke-miterlimit:1;" x1="0" y1="35.876" x2="1.316" y2="33.244"/>
	<line style="fill:none;stroke:#000000;stroke-miterlimit:1;" x1="1.316" y1="33.244" x2="2.633" y2="31.598"/>
	<line style="fill:none;stroke:#000000;stroke-miterlimit:1;" x1="2.633" y1="31.598" x2="4.279" y2="31.598"/>
	<line style="fill:none;stroke:#000000;stroke-miterlimit:1;" x1="4.279" y1="31.598" x2="5.925" y2="31.598"/>
	<line style="fill:none;stroke:#000000;stroke-miterlimit:1;" x1="5.925" y1="31.598" x2="7.899" y2="31.927"/>
	<line style="fill:none;stroke:#000000;stroke-miterlimit:1;" x1="7.899" y1="31.927" x2="9.875" y2="33.244"/>
	<line style="fill:none;stroke:#000000;stroke-miterlimit:1;" x1="9.875" y1="33.244" x2="16.457" y2="39.168"/>
	<line style="fill:none;stroke:#000000;stroke-miterlimit:1;" x1="16.457" y1="39.168" x2="22.382" y2="44.434"/>
	<line style="fill:none;stroke:#000000;stroke-miterlimit:1;" x1="22.382" y1="44.434" x2="26.99" y2="46.738"/>
	<line style="fill:none;stroke:#000000;stroke-miterlimit:1;" x1="26.99" y1="46.738" x2="32.585" y2="48.055"/>
	<line style="fill:none;stroke:#000000;stroke-miterlimit:1;" x1="32.585" y1="48.055" x2="37.193" y2="48.384"/>
	<line style="fill:none;stroke:#000000;stroke-miterlimit:1;" x1="37.193" y1="48.384" x2="41.472" y2="48.055"/>
	<line style="fill:none;stroke:#000000;stroke-miterlimit:1;" x1="41.472" y1="48.055" x2="47.067" y2="46.738"/>
	<line style="fill:none;stroke:#000000;stroke-miterlimit:1;" x1="47.067" y1="46.738" x2="51.675" y2="44.434"/>
	<line style="fill:none;stroke:#000000;stroke-miterlimit:1;" x1="51.675" y1="44.434" x2="57.6" y2="39.168"/>
	<line style="fill:none;stroke:#000000;stroke-miterlimit:1;" x1="57.6" y1="39.168" x2="64.183" y2="33.244"/>
	<line style="fill:none;stroke:#000000;stroke-miterlimit:1;" x1="64.183" y1="33.244" x2="66.158" y2="31.927"/>
	<line style="fill:none;stroke:#000000;stroke-miterlimit:1;" x1="66.158" y1="31.927" x2="68.133" y2="31.598"/>
	<line style="fill:none;stroke:#000000;stroke-miterlimit:1;" x1="68.133" y1="31.598" x2="69.778" y2="31.598"/>
	<line style="fill:none;stroke:#000000;stroke-miterlimit:1;" x1="69.778" y1="31.598" x2="71.424" y2="31.598"/>
	<line style="fill:none;stroke:#000000;stroke-miterlimit:1;" x1="71.424" y1="31.598" x2="72.741" y2="33.244"/>
	<line style="fill:none;stroke:#000000;stroke-miterlimit:1;" x1="72.741" y1="33.244" x2="74.057" y2="35.876"/>
	<line style="fill:none;stroke:#000000;stroke-miterlimit:1;" x1="74.057" y1="35.876" x2="74.057" y2="59.246"/>
	<line style="fill:none;stroke:#000000;stroke-miterlimit:1;" x1="23.369" y1="44.434" x2="29.294" y2="5.595"/>
	<line style="fill:none;stroke:#000000;stroke-miterlimit:1;" x1="29.294" y1="5.595" x2="31.927" y2="2.304"/>
	<line style="fill:none;stroke:#000000;stroke-miterlimit:1;" x1="31.927" y1="2.304" x2="33.902" y2="0.987"/>
	<line style="fill:none;stroke:#000000;stroke-miterlimit:1;" x1="33.902" y1="0.987" x2="36.535" y2="0"/>
	<line style="fill:none;stroke:#000000;stroke-miterlimit:1;" x1="36.535" y1="0" x2="37.522" y2="0"/>
	<line style="fill:none;stroke:#000000;stroke-miterlimit:1;" x1="37.522" y1="0" x2="40.155" y2="0.987"/>
	<line style="fill:none;stroke:#000000;stroke-miterlimit:1;" x1="40.155" y1="0.987" x2="42.13" y2="2.304"/>
	<line style="fill:none;stroke:#000000;stroke-miterlimit:1;" x1="42.13" y1="2.304" x2="44.764" y2="5.595"/>
	<line style="fill:none;stroke:#000000;stroke-miterlimit:1;" x1="44.764" y1="5.595" x2="50.688" y2="44.434"/>
	<line style="fill:none;stroke:#000000;stroke-miterlimit:1;" x1="55.954" y1="37.852" x2="53.321" y2="37.522"/>
	<line style="fill:none;stroke:#000000;stroke-miterlimit:1;" x1="53.321" y1="37.522" x2="51.675" y2="36.206"/>
	<line style="fill:none;stroke:#000000;stroke-miterlimit:1;" x1="51.675" y1="36.206" x2="50.688" y2="34.56"/>
	<line style="fill:none;stroke:#000000;stroke-miterlimit:1;" x1="50.688" y1="34.56" x2="50.03" y2="32.915"/>
	<line style="fill:none;stroke:#000000;stroke-miterlimit:1;" x1="50.03" y1="32.915" x2="50.359" y2="29.952"/>
	<line style="fill:none;stroke:#000000;stroke-miterlimit:1;" x1="50.359" y1="29.952" x2="51.675" y2="27.977"/>
	<line style="fill:none;stroke:#000000;stroke-miterlimit:1;" x1="51.675" y1="27.977" x2="53.321" y2="26.99"/>
	<line style="fill:none;stroke:#000000;stroke-miterlimit:1;" x1="53.321" y1="26.99" x2="55.954" y2="26.332"/>
	<line style="fill:none;stroke:#000000;stroke-miterlimit:1;" x1="55.954" y1="26.332" x2="58.587" y2="26.661"/>
	<line style="fill:none;stroke:#000000;stroke-miterlimit:1;" x1="58.587" y1="26.661" x2="60.562" y2="27.977"/>
	<line style="fill:none;stroke:#000000;stroke-miterlimit:1;" x1="60.562" y1="27.977" x2="61.879" y2="29.952"/>
	<line style="fill:none;stroke:#000000;stroke-miterlimit:1;" x1="61.879" y1="29.952" x2="61.879" y2="31.927"/>
	<line style="fill:none;stroke:#000000;stroke-miterlimit:1;" x1="61.879" y1="31.927" x2="61.879" y2="34.231"/>
	<line style="fill:none;stroke:#000000;stroke-miterlimit:1;" x1="61.879" y1="34.231" x2="60.562" y2="35.876"/>
	<line style="fill:none;stroke:#000000;stroke-miterlimit:1;" x1="60.562" y1="35.876" x2="58.587" y2="37.522"/>
	<line style="fill:none;stroke:#000000;stroke-miterlimit:1;" x1="58.587" y1="37.522" x2="55.954" y2="37.852"/>
	<line style="fill:none;stroke:#000000;stroke-miterlimit:1;" x1="19.419" y1="37.522" x2="16.457" y2="37.522"/>
	<line style="fill:none;stroke:#000000;stroke-miterlimit:1;" x1="16.457" y1="37.522" x2="13.495" y2="35.876"/>
	<line style="fill:none;stroke:#000000;stroke-miterlimit:1;" x1="13.495" y1="35.876" x2="12.507" y2="33.902"/>
	<line style="fill:none;stroke:#000000;stroke-miterlimit:1;" x1="12.507" y1="33.902" x2="12.178" y2="32.256"/>
	<line style="fill:none;stroke:#000000;stroke-miterlimit:1;" x1="12.178" y1="32.256" x2="12.836" y2="29.294"/>
	<line style="fill:none;stroke:#000000;stroke-miterlimit:1;" x1="12.836" y1="29.294" x2="15.141" y2="26.99"/>
	<line style="fill:none;stroke:#000000;stroke-miterlimit:1;" x1="15.141" y1="26.99" x2="16.457" y2="26.332"/>
	<line style="fill:none;stroke:#000000;stroke-miterlimit:1;" x1="16.457" y1="26.332" x2="18.761" y2="26.332"/>
	<line style="fill:none;stroke:#000000;stroke-miterlimit:1;" x1="18.761" y1="26.332" x2="21.065" y2="26.661"/>
	<line style="fill:none;stroke:#000000;stroke-miterlimit:1;" x1="21.065" y1="26.661" x2="23.04" y2="27.977"/>
	<line style="fill:none;stroke:#000000;stroke-miterlimit:1;" x1="23.04" y1="27.977" x2="24.027" y2="30.281"/>
	<line style="fill:none;stroke:#000000;stroke-miterlimit:1;" x1="24.027" y1="30.281" x2="24.027" y2="32.256"/>
	<line style="fill:none;stroke:#000000;stroke-miterlimit:1;" x1="24.027" y1="32.256" x2="23.369" y2="34.889"/>
	<line style="fill:none;stroke:#000000;stroke-miterlimit:1;" x1="23.369" y1="34.889" x2="22.382" y2="36.535"/>
	<line style="fill:none;stroke:#000000;stroke-miterlimit:1;" x1="22.382" y1="36.535" x2="20.736" y2="37.193"/>
	<line style="fill:none;stroke:#000000;stroke-miterlimit:1;" x1="20.736" y1="37.193" x2="19.419" y2="37.522"/>
	<line style="fill:none;stroke:#000000;stroke-miterlimit:1;" x1="42.789" y1="59.575" x2="52.334" y2="88.539"/>
	<line style="fill:none;stroke:#000000;stroke-miterlimit:1;" x1="52.334" y1="88.539" x2="52.992" y2="91.502"/>
	<line style="fill:none;stroke:#000000;stroke-miterlimit:1;" x1="52.992" y1="91.502" x2="52.992" y2="95.451"/>
	<line style="fill:none;stroke:#000000;stroke-miterlimit:1;" x1="52.992" y1="95.451" x2="51.675" y2="98.414"/>
	<line style="fill:none;stroke:#000000;stroke-miterlimit:1;" x1="51.675" y1="98.414" x2="49.701" y2="100.389"/>
	<line style="fill:none;stroke:#000000;stroke-miterlimit:1;" x1="49.701" y1="100.389" x2="47.726" y2="101.705"/>
	<line style="fill:none;stroke:#000000;stroke-miterlimit:1;" x1="47.726" y1="101.705" x2="40.484" y2="102.693"/>
	<line style="fill:none;stroke:#000000;stroke-miterlimit:1;" x1="33.573" y1="102.693" x2="26.661" y2="101.705"/>
	<line style="fill:none;stroke:#000000;stroke-miterlimit:1;" x1="26.661" y1="101.705" x2="23.369" y2="99.4"/>
	<line style="fill:none;stroke:#000000;stroke-miterlimit:1;" x1="23.369" y1="99.4" x2="21.395" y2="95.451"/>
	<line style="fill:none;stroke:#000000;stroke-miterlimit:1;" x1="21.395" y1="95.451" x2="21.395" y2="90.844"/>
	<line style="fill:none;stroke:#000000;stroke-miterlimit:1;" x1="21.395" y1="90.844" x2="31.598" y2="59.575"/>
	<line style="fill:none;stroke:#000000;stroke-miterlimit:1;" x1="154.45" y1="0.329" x2="152.805" y2="33.573"/>
	<line style="fill:none;stroke:#000000;stroke-miterlimit:1;" x1="152.805" y1="33.573" x2="152.146" y2="61.879"/>
	<line style="fill:none;stroke:#000000;stroke-miterlimit:1;" x1="152.146" y1="61.879" x2="151.488" y2="83.602"/>
	<line style="fill:none;stroke:#000000;stroke-miterlimit:1;" x1="151.488" y1="83.602" x2="149.843" y2="99.072"/>
	<line style="fill:none;stroke:#000000;stroke-miterlimit:1;" x1="149.843" y1="99.072" x2="148.525" y2="113.883"/>
	<line style="fill:none;stroke:#000000;stroke-miterlimit:1;" x1="148.525" y1="113.883" x2="149.184" y2="129.682"/>
	<line style="fill:none;stroke:#000000;stroke-miterlimit:1;" x1="149.184" y1="129.682" x2="150.172" y2="134.619"/>
	<line style="fill:none;stroke:#000000;stroke-miterlimit:1;" x1="150.172" y1="134.619" x2="150.83" y2="138.568"/>
	<line style="fill:none;stroke:#000000;stroke-miterlimit:1;" x1="150.83" y1="138.568" x2="150.501" y2="142.52"/>
	<line style="fill:none;stroke:#000000;stroke-miterlimit:1;" x1="150.501" y1="142.52" x2="148.525" y2="145.152"/>
	<line style="fill:none;stroke:#000000;stroke-miterlimit:1;" x1="148.525" y1="145.152" x2="145.563" y2="147.127"/>
	<line style="fill:none;stroke:#000000;stroke-miterlimit:1;" x1="145.563" y1="147.127" x2="141.942" y2="147.785"/>
	<line style="fill:none;stroke:#000000;stroke-miterlimit:1;" x1="141.942" y1="147.785" x2="135.36" y2="146.139"/>
	<line style="fill:none;stroke:#000000;stroke-miterlimit:1;" x1="135.36" y1="146.139" x2="132.727" y2="144.164"/>
	<line style="fill:none;stroke:#000000;stroke-miterlimit:1;" x1="132.727" y1="144.164" x2="128.448" y2="143.178"/>
	<line style="fill:none;stroke:#000000;stroke-miterlimit:1;" x1="128.448" y1="143.178" x2="118.573" y2="148.115"/>
	<line style="fill:none;stroke:#000000;stroke-miterlimit:1;" x1="118.573" y1="148.115" x2="77.76" y2="147.785"/>
	<line style="fill:none;stroke:#000000;stroke-miterlimit:1;" x1="77.76" y1="147.785" x2="76.114" y2="142.52"/>
	<line style="fill:none;stroke:#000000;stroke-miterlimit:1;" x1="76.114" y1="142.52" x2="77.431" y2="139.887"/>
	<line style="fill:none;stroke:#000000;stroke-miterlimit:1;" x1="77.431" y1="139.887" x2="81.052" y2="139.227"/>
	<line style="fill:none;stroke:#000000;stroke-miterlimit:1;" x1="81.052" y1="139.227" x2="95.205" y2="136.266"/>
	<line style="fill:none;stroke:#000000;stroke-miterlimit:1;" x1="95.205" y1="136.266" x2="107.054" y2="130.34"/>
	<line style="fill:none;stroke:#000000;stroke-miterlimit:1;" x1="107.054" y1="130.34" x2="114.953" y2="127.379"/>
	<line style="fill:none;stroke:#000000;stroke-miterlimit:1;" x1="114.953" y1="127.379" x2="121.865" y2="125.732"/>
	<line style="fill:none;stroke:#000000;stroke-miterlimit:1;" x1="121.865" y1="125.732" x2="126.803" y2="121.453"/>
	<line style="fill:none;stroke:#000000;stroke-miterlimit:1;" x1="126.803" y1="121.453" x2="128.448" y2="117.176"/>
	<line style="fill:none;stroke:#000000;stroke-miterlimit:1;" x1="128.448" y1="117.176" x2="128.777" y2="112.566"/>
	<line style="fill:none;stroke:#000000;stroke-miterlimit:1;" x1="128.777" y1="112.566" x2="128.119" y2="105.654"/>
	<line style="fill:none;stroke:#000000;stroke-miterlimit:1;" x1="128.119" y1="105.654" x2="127.79" y2="96.439"/>
	<line style="fill:none;stroke:#000000;stroke-miterlimit:1;" x1="127.79" y1="96.439" x2="127.132" y2="71.424"/>
	<line style="fill:none;stroke:#000000;stroke-miterlimit:1;" x1="127.132" y1="71.424" x2="126.803" y2="46.409"/>
	<line style="fill:none;stroke:#000000;stroke-miterlimit:1;" x1="126.803" y1="46.409" x2="124.169" y2="0"/>
	<line style="fill:none;stroke:#000000;stroke-miterlimit:1;" x1="124.169" y1="0" x2="154.45" y2="0"/>
</g>
</svg>
