<?xml version="1.0" encoding="iso-8859-1"?>
<!-- Generator: Adobe Illustrator 16.0.1, SVG Export Plug-In . SVG Version: 6.00 Build 0)  -->
<!DOCTYPE svg PUBLIC "-//W3C//DTD SVG 1.1//EN" "http://www.w3.org/Graphics/SVG/1.1/DTD/svg11.dtd">
<svg version="1.1" id="Ebene_1" xmlns="http://www.w3.org/2000/svg" xmlns:xlink="http://www.w3.org/1999/xlink" x="0px" y="0px"
	 width="206.537px" height="148.237px" viewBox="0 0 206.537 148.237" style="enable-background:new 0 0 206.537 148.237;"
	 xml:space="preserve">
<g>
	<line style="fill:none;stroke:#000000;stroke-miterlimit:1;" x1="40.485" y1="59.369" x2="40.485" y2="148.237"/>
	<line style="fill:none;stroke:#000000;stroke-miterlimit:1;" x1="40.485" y1="148.237" x2="33.573" y2="148.237"/>
	<line style="fill:none;stroke:#000000;stroke-miterlimit:1;" x1="33.573" y1="148.237" x2="33.573" y2="59.369"/>
	<line style="fill:none;stroke:#000000;stroke-miterlimit:1;" x1="74.058" y1="59.369" x2="0" y2="59.369"/>
	<line style="fill:none;stroke:#000000;stroke-miterlimit:1;" x1="0" y1="59.369" x2="0" y2="36"/>
	<line style="fill:none;stroke:#000000;stroke-miterlimit:1;" x1="0" y1="36" x2="1.317" y2="33.367"/>
	<line style="fill:none;stroke:#000000;stroke-miterlimit:1;" x1="1.317" y1="33.367" x2="2.633" y2="31.721"/>
	<line style="fill:none;stroke:#000000;stroke-miterlimit:1;" x1="2.633" y1="31.721" x2="4.279" y2="31.721"/>
	<line style="fill:none;stroke:#000000;stroke-miterlimit:1;" x1="4.279" y1="31.721" x2="5.925" y2="31.721"/>
	<line style="fill:none;stroke:#000000;stroke-miterlimit:1;" x1="5.925" y1="31.721" x2="7.899" y2="32.05"/>
	<line style="fill:none;stroke:#000000;stroke-miterlimit:1;" x1="7.899" y1="32.05" x2="9.875" y2="33.367"/>
	<line style="fill:none;stroke:#000000;stroke-miterlimit:1;" x1="9.875" y1="33.367" x2="16.458" y2="39.292"/>
	<line style="fill:none;stroke:#000000;stroke-miterlimit:1;" x1="16.458" y1="39.292" x2="22.382" y2="44.558"/>
	<line style="fill:none;stroke:#000000;stroke-miterlimit:1;" x1="22.382" y1="44.558" x2="26.99" y2="46.862"/>
	<line style="fill:none;stroke:#000000;stroke-miterlimit:1;" x1="26.99" y1="46.862" x2="32.585" y2="48.178"/>
	<line style="fill:none;stroke:#000000;stroke-miterlimit:1;" x1="32.585" y1="48.178" x2="37.193" y2="48.507"/>
	<line style="fill:none;stroke:#000000;stroke-miterlimit:1;" x1="37.193" y1="48.507" x2="41.472" y2="48.178"/>
	<line style="fill:none;stroke:#000000;stroke-miterlimit:1;" x1="41.472" y1="48.178" x2="47.068" y2="46.862"/>
	<line style="fill:none;stroke:#000000;stroke-miterlimit:1;" x1="47.068" y1="46.862" x2="51.676" y2="44.558"/>
	<line style="fill:none;stroke:#000000;stroke-miterlimit:1;" x1="51.676" y1="44.558" x2="57.6" y2="39.292"/>
	<line style="fill:none;stroke:#000000;stroke-miterlimit:1;" x1="57.6" y1="39.292" x2="64.183" y2="33.367"/>
	<line style="fill:none;stroke:#000000;stroke-miterlimit:1;" x1="64.183" y1="33.367" x2="66.158" y2="32.05"/>
	<line style="fill:none;stroke:#000000;stroke-miterlimit:1;" x1="66.158" y1="32.05" x2="68.133" y2="31.721"/>
	<line style="fill:none;stroke:#000000;stroke-miterlimit:1;" x1="68.133" y1="31.721" x2="69.778" y2="31.721"/>
	<line style="fill:none;stroke:#000000;stroke-miterlimit:1;" x1="69.778" y1="31.721" x2="71.424" y2="31.721"/>
	<line style="fill:none;stroke:#000000;stroke-miterlimit:1;" x1="71.424" y1="31.721" x2="72.741" y2="33.367"/>
	<line style="fill:none;stroke:#000000;stroke-miterlimit:1;" x1="72.741" y1="33.367" x2="74.058" y2="36"/>
	<line style="fill:none;stroke:#000000;stroke-miterlimit:1;" x1="74.058" y1="36" x2="74.058" y2="59.369"/>
	<line style="fill:none;stroke:#000000;stroke-miterlimit:1;" x1="23.369" y1="44.558" x2="29.294" y2="5.719"/>
	<line style="fill:none;stroke:#000000;stroke-miterlimit:1;" x1="29.294" y1="5.719" x2="31.927" y2="2.427"/>
	<line style="fill:none;stroke:#000000;stroke-miterlimit:1;" x1="31.927" y1="2.427" x2="33.902" y2="1.111"/>
	<line style="fill:none;stroke:#000000;stroke-miterlimit:1;" x1="33.902" y1="1.111" x2="36.535" y2="0.124"/>
	<line style="fill:none;stroke:#000000;stroke-miterlimit:1;" x1="36.535" y1="0.124" x2="37.522" y2="0.124"/>
	<line style="fill:none;stroke:#000000;stroke-miterlimit:1;" x1="37.522" y1="0.124" x2="40.156" y2="1.111"/>
	<line style="fill:none;stroke:#000000;stroke-miterlimit:1;" x1="40.156" y1="1.111" x2="42.13" y2="2.427"/>
	<line style="fill:none;stroke:#000000;stroke-miterlimit:1;" x1="42.13" y1="2.427" x2="44.764" y2="5.719"/>
	<line style="fill:none;stroke:#000000;stroke-miterlimit:1;" x1="44.764" y1="5.719" x2="50.688" y2="44.558"/>
	<line style="fill:none;stroke:#000000;stroke-miterlimit:1;" x1="55.955" y1="37.975" x2="53.321" y2="37.646"/>
	<line style="fill:none;stroke:#000000;stroke-miterlimit:1;" x1="53.321" y1="37.646" x2="51.676" y2="36.329"/>
	<line style="fill:none;stroke:#000000;stroke-miterlimit:1;" x1="51.676" y1="36.329" x2="50.688" y2="34.684"/>
	<line style="fill:none;stroke:#000000;stroke-miterlimit:1;" x1="50.688" y1="34.684" x2="50.03" y2="33.038"/>
	<line style="fill:none;stroke:#000000;stroke-miterlimit:1;" x1="50.03" y1="33.038" x2="50.359" y2="30.075"/>
	<line style="fill:none;stroke:#000000;stroke-miterlimit:1;" x1="50.359" y1="30.075" x2="51.676" y2="28.101"/>
	<line style="fill:none;stroke:#000000;stroke-miterlimit:1;" x1="51.676" y1="28.101" x2="53.321" y2="27.113"/>
	<line style="fill:none;stroke:#000000;stroke-miterlimit:1;" x1="53.321" y1="27.113" x2="55.955" y2="26.455"/>
	<line style="fill:none;stroke:#000000;stroke-miterlimit:1;" x1="55.955" y1="26.455" x2="58.588" y2="26.784"/>
	<line style="fill:none;stroke:#000000;stroke-miterlimit:1;" x1="58.588" y1="26.784" x2="60.562" y2="28.101"/>
	<line style="fill:none;stroke:#000000;stroke-miterlimit:1;" x1="60.562" y1="28.101" x2="61.879" y2="30.075"/>
	<line style="fill:none;stroke:#000000;stroke-miterlimit:1;" x1="61.879" y1="30.075" x2="61.879" y2="32.05"/>
	<line style="fill:none;stroke:#000000;stroke-miterlimit:1;" x1="61.879" y1="32.05" x2="61.879" y2="34.354"/>
	<line style="fill:none;stroke:#000000;stroke-miterlimit:1;" x1="61.879" y1="34.354" x2="60.562" y2="36"/>
	<line style="fill:none;stroke:#000000;stroke-miterlimit:1;" x1="60.562" y1="36" x2="58.588" y2="37.646"/>
	<line style="fill:none;stroke:#000000;stroke-miterlimit:1;" x1="58.588" y1="37.646" x2="55.955" y2="37.975"/>
	<line style="fill:none;stroke:#000000;stroke-miterlimit:1;" x1="19.419" y1="37.646" x2="16.458" y2="37.646"/>
	<line style="fill:none;stroke:#000000;stroke-miterlimit:1;" x1="16.458" y1="37.646" x2="13.495" y2="36"/>
	<line style="fill:none;stroke:#000000;stroke-miterlimit:1;" x1="13.495" y1="36" x2="12.508" y2="34.025"/>
	<line style="fill:none;stroke:#000000;stroke-miterlimit:1;" x1="12.508" y1="34.025" x2="12.179" y2="32.379"/>
	<line style="fill:none;stroke:#000000;stroke-miterlimit:1;" x1="12.179" y1="32.379" x2="12.837" y2="29.417"/>
	<line style="fill:none;stroke:#000000;stroke-miterlimit:1;" x1="12.837" y1="29.417" x2="15.141" y2="27.113"/>
	<line style="fill:none;stroke:#000000;stroke-miterlimit:1;" x1="15.141" y1="27.113" x2="16.458" y2="26.455"/>
	<line style="fill:none;stroke:#000000;stroke-miterlimit:1;" x1="16.458" y1="26.455" x2="18.761" y2="26.455"/>
	<line style="fill:none;stroke:#000000;stroke-miterlimit:1;" x1="18.761" y1="26.455" x2="21.065" y2="26.784"/>
	<line style="fill:none;stroke:#000000;stroke-miterlimit:1;" x1="21.065" y1="26.784" x2="23.04" y2="28.101"/>
	<line style="fill:none;stroke:#000000;stroke-miterlimit:1;" x1="23.04" y1="28.101" x2="24.028" y2="30.404"/>
	<line style="fill:none;stroke:#000000;stroke-miterlimit:1;" x1="24.028" y1="30.404" x2="24.028" y2="32.379"/>
	<line style="fill:none;stroke:#000000;stroke-miterlimit:1;" x1="24.028" y1="32.379" x2="23.369" y2="35.013"/>
	<line style="fill:none;stroke:#000000;stroke-miterlimit:1;" x1="23.369" y1="35.013" x2="22.382" y2="36.658"/>
	<line style="fill:none;stroke:#000000;stroke-miterlimit:1;" x1="22.382" y1="36.658" x2="20.736" y2="37.316"/>
	<line style="fill:none;stroke:#000000;stroke-miterlimit:1;" x1="20.736" y1="37.316" x2="19.419" y2="37.646"/>
	<line style="fill:none;stroke:#000000;stroke-miterlimit:1;" x1="42.789" y1="59.698" x2="52.334" y2="88.663"/>
	<line style="fill:none;stroke:#000000;stroke-miterlimit:1;" x1="52.334" y1="88.663" x2="52.992" y2="91.625"/>
	<line style="fill:none;stroke:#000000;stroke-miterlimit:1;" x1="52.992" y1="91.625" x2="52.992" y2="95.575"/>
	<line style="fill:none;stroke:#000000;stroke-miterlimit:1;" x1="52.992" y1="95.575" x2="51.676" y2="98.537"/>
	<line style="fill:none;stroke:#000000;stroke-miterlimit:1;" x1="51.676" y1="98.537" x2="49.701" y2="100.512"/>
	<line style="fill:none;stroke:#000000;stroke-miterlimit:1;" x1="49.701" y1="100.512" x2="47.726" y2="101.828"/>
	<line style="fill:none;stroke:#000000;stroke-miterlimit:1;" x1="47.726" y1="101.828" x2="40.485" y2="102.816"/>
	<line style="fill:none;stroke:#000000;stroke-miterlimit:1;" x1="33.573" y1="102.816" x2="26.661" y2="101.828"/>
	<line style="fill:none;stroke:#000000;stroke-miterlimit:1;" x1="26.661" y1="101.828" x2="23.369" y2="99.524"/>
	<line style="fill:none;stroke:#000000;stroke-miterlimit:1;" x1="23.369" y1="99.524" x2="21.395" y2="95.575"/>
	<line style="fill:none;stroke:#000000;stroke-miterlimit:1;" x1="21.395" y1="95.575" x2="21.395" y2="90.967"/>
	<line style="fill:none;stroke:#000000;stroke-miterlimit:1;" x1="21.395" y1="90.967" x2="31.598" y2="59.698"/>
	<line style="fill:none;stroke:#000000;stroke-miterlimit:1;" x1="153.422" y1="0.453" x2="151.776" y2="33.696"/>
	<line style="fill:none;stroke:#000000;stroke-miterlimit:1;" x1="151.776" y1="33.696" x2="151.118" y2="62.002"/>
	<line style="fill:none;stroke:#000000;stroke-miterlimit:1;" x1="151.118" y1="62.002" x2="150.46" y2="83.726"/>
	<line style="fill:none;stroke:#000000;stroke-miterlimit:1;" x1="150.46" y1="83.726" x2="148.813" y2="99.195"/>
	<line style="fill:none;stroke:#000000;stroke-miterlimit:1;" x1="148.813" y1="99.195" x2="147.497" y2="114.007"/>
	<line style="fill:none;stroke:#000000;stroke-miterlimit:1;" x1="147.497" y1="114.007" x2="148.155" y2="129.806"/>
	<line style="fill:none;stroke:#000000;stroke-miterlimit:1;" x1="148.155" y1="129.806" x2="149.143" y2="134.743"/>
	<line style="fill:none;stroke:#000000;stroke-miterlimit:1;" x1="149.143" y1="134.743" x2="149.802" y2="138.692"/>
	<line style="fill:none;stroke:#000000;stroke-miterlimit:1;" x1="149.802" y1="138.692" x2="149.473" y2="142.643"/>
	<line style="fill:none;stroke:#000000;stroke-miterlimit:1;" x1="149.473" y1="142.643" x2="147.497" y2="145.275"/>
	<line style="fill:none;stroke:#000000;stroke-miterlimit:1;" x1="147.497" y1="145.275" x2="144.535" y2="147.25"/>
	<line style="fill:none;stroke:#000000;stroke-miterlimit:1;" x1="144.535" y1="147.25" x2="140.914" y2="147.908"/>
	<line style="fill:none;stroke:#000000;stroke-miterlimit:1;" x1="140.914" y1="147.908" x2="134.332" y2="146.263"/>
	<line style="fill:none;stroke:#000000;stroke-miterlimit:1;" x1="134.332" y1="146.263" x2="131.698" y2="144.288"/>
	<line style="fill:none;stroke:#000000;stroke-miterlimit:1;" x1="131.698" y1="144.288" x2="127.42" y2="143.301"/>
	<line style="fill:none;stroke:#000000;stroke-miterlimit:1;" x1="127.42" y1="143.301" x2="117.545" y2="148.237"/>
	<line style="fill:none;stroke:#000000;stroke-miterlimit:1;" x1="117.545" y1="148.237" x2="76.731" y2="147.908"/>
	<line style="fill:none;stroke:#000000;stroke-miterlimit:1;" x1="76.731" y1="147.908" x2="75.086" y2="142.643"/>
	<line style="fill:none;stroke:#000000;stroke-miterlimit:1;" x1="75.086" y1="142.643" x2="76.402" y2="140.009"/>
	<line style="fill:none;stroke:#000000;stroke-miterlimit:1;" x1="76.402" y1="140.009" x2="80.023" y2="139.351"/>
	<line style="fill:none;stroke:#000000;stroke-miterlimit:1;" x1="80.023" y1="139.351" x2="94.176" y2="136.389"/>
	<line style="fill:none;stroke:#000000;stroke-miterlimit:1;" x1="94.176" y1="136.389" x2="106.025" y2="130.464"/>
	<line style="fill:none;stroke:#000000;stroke-miterlimit:1;" x1="106.025" y1="130.464" x2="113.925" y2="127.502"/>
	<line style="fill:none;stroke:#000000;stroke-miterlimit:1;" x1="113.925" y1="127.502" x2="120.837" y2="125.855"/>
	<line style="fill:none;stroke:#000000;stroke-miterlimit:1;" x1="120.837" y1="125.855" x2="125.773" y2="121.577"/>
	<line style="fill:none;stroke:#000000;stroke-miterlimit:1;" x1="125.773" y1="121.577" x2="127.42" y2="117.298"/>
	<line style="fill:none;stroke:#000000;stroke-miterlimit:1;" x1="127.42" y1="117.298" x2="127.749" y2="112.69"/>
	<line style="fill:none;stroke:#000000;stroke-miterlimit:1;" x1="127.749" y1="112.69" x2="127.091" y2="105.778"/>
	<line style="fill:none;stroke:#000000;stroke-miterlimit:1;" x1="127.091" y1="105.778" x2="126.762" y2="96.562"/>
	<line style="fill:none;stroke:#000000;stroke-miterlimit:1;" x1="126.762" y1="96.562" x2="126.104" y2="71.547"/>
	<line style="fill:none;stroke:#000000;stroke-miterlimit:1;" x1="126.104" y1="71.547" x2="125.773" y2="46.533"/>
	<line style="fill:none;stroke:#000000;stroke-miterlimit:1;" x1="125.773" y1="46.533" x2="123.141" y2="0.124"/>
	<line style="fill:none;stroke:#000000;stroke-miterlimit:1;" x1="123.141" y1="0.124" x2="153.422" y2="0.124"/>
	<line style="fill:none;stroke:#000000;stroke-miterlimit:1;" x1="206.537" y1="147.456" x2="184.813" y2="147.456"/>
	<line style="fill:none;stroke:#000000;stroke-miterlimit:1;" x1="184.813" y1="147.456" x2="184.813" y2="0"/>
	<line style="fill:none;stroke:#000000;stroke-miterlimit:1;" x1="184.813" y1="0" x2="206.537" y2="0"/>
	<line style="fill:none;stroke:#000000;stroke-miterlimit:1;" x1="206.537" y1="0" x2="206.537" y2="147.456"/>
	<line style="fill:none;stroke:#000000;stroke-miterlimit:1;" x1="168.356" y1="103.351" x2="184.813" y2="86.235"/>
	<line style="fill:none;stroke:#000000;stroke-miterlimit:1;" x1="168.356" y1="44.105" x2="184.813" y2="61.221"/>
	<line style="fill:none;stroke:#000000;stroke-miterlimit:1;" x1="184.813" y1="86.894" x2="181.193" y2="86.235"/>
	<line style="fill:none;stroke:#000000;stroke-miterlimit:1;" x1="181.193" y1="86.235" x2="178.231" y2="84.919"/>
	<line style="fill:none;stroke:#000000;stroke-miterlimit:1;" x1="178.231" y1="84.919" x2="175.269" y2="82.615"/>
	<line style="fill:none;stroke:#000000;stroke-miterlimit:1;" x1="175.269" y1="82.615" x2="173.952" y2="80.969"/>
	<line style="fill:none;stroke:#000000;stroke-miterlimit:1;" x1="173.952" y1="80.969" x2="172.307" y2="78.336"/>
	<line style="fill:none;stroke:#000000;stroke-miterlimit:1;" x1="172.307" y1="78.336" x2="171.978" y2="74.715"/>
	<line style="fill:none;stroke:#000000;stroke-miterlimit:1;" x1="171.978" y1="74.715" x2="171.978" y2="72.082"/>
	<line style="fill:none;stroke:#000000;stroke-miterlimit:1;" x1="171.978" y1="72.082" x2="172.307" y2="69.449"/>
	<line style="fill:none;stroke:#000000;stroke-miterlimit:1;" x1="172.307" y1="69.449" x2="173.623" y2="67.145"/>
	<line style="fill:none;stroke:#000000;stroke-miterlimit:1;" x1="173.623" y1="67.145" x2="175.598" y2="64.841"/>
	<line style="fill:none;stroke:#000000;stroke-miterlimit:1;" x1="175.598" y1="64.841" x2="177.902" y2="63.195"/>
	<line style="fill:none;stroke:#000000;stroke-miterlimit:1;" x1="177.902" y1="63.195" x2="180.206" y2="62.208"/>
	<line style="fill:none;stroke:#000000;stroke-miterlimit:1;" x1="180.206" y1="62.208" x2="184.813" y2="61.55"/>
</g>
</svg>
