<?xml version="1.0" encoding="iso-8859-1"?>
<!-- Generator: Adobe Illustrator 16.0.1, SVG Export Plug-In . SVG Version: 6.00 Build 0)  -->
<!DOCTYPE svg PUBLIC "-//W3C//DTD SVG 1.1//EN" "http://www.w3.org/Graphics/SVG/1.1/DTD/svg11.dtd">
<svg version="1.1" id="Ebene_1" xmlns="http://www.w3.org/2000/svg" xmlns:xlink="http://www.w3.org/1999/xlink" x="0px" y="0px"
	 width="330.336px" height="148.115px" viewBox="0 0 330.336 148.115" style="enable-background:new 0 0 330.336 148.115;"
	 xml:space="preserve">
<g>
	<line style="fill:none;stroke:#000000;stroke-miterlimit:1;" x1="129.353" y1="41.184" x2="132.645" y2="39.539"/>
	<line style="fill:none;stroke:#000000;stroke-miterlimit:1;" x1="132.645" y1="39.539" x2="135.278" y2="38.551"/>
	<line style="fill:none;stroke:#000000;stroke-miterlimit:1;" x1="135.278" y1="38.551" x2="138.898" y2="37.893"/>
	<line style="fill:none;stroke:#000000;stroke-miterlimit:1;" x1="138.898" y1="37.893" x2="142.848" y2="37.563"/>
	<line style="fill:none;stroke:#000000;stroke-miterlimit:1;" x1="142.848" y1="37.563" x2="146.14" y2="37.893"/>
	<line style="fill:none;stroke:#000000;stroke-miterlimit:1;" x1="146.14" y1="37.893" x2="149.431" y2="38.222"/>
	<line style="fill:none;stroke:#000000;stroke-miterlimit:1;" x1="149.431" y1="38.222" x2="152.722" y2="39.539"/>
	<line style="fill:none;stroke:#000000;stroke-miterlimit:1;" x1="152.722" y1="39.539" x2="155.026" y2="40.197"/>
	<line style="fill:none;stroke:#000000;stroke-miterlimit:1;" x1="155.026" y1="40.197" x2="157.989" y2="41.513"/>
	<line style="fill:none;stroke:#000000;stroke-miterlimit:1;" x1="157.989" y1="41.513" x2="160.292" y2="43.488"/>
	<line style="fill:none;stroke:#000000;stroke-miterlimit:1;" x1="160.292" y1="43.488" x2="159.963" y2="44.805"/>
	<line style="fill:none;stroke:#000000;stroke-miterlimit:1;" x1="159.963" y1="44.805" x2="159.305" y2="46.121"/>
	<line style="fill:none;stroke:#000000;stroke-miterlimit:1;" x1="159.305" y1="46.121" x2="154.697" y2="43.817"/>
	<line style="fill:none;stroke:#000000;stroke-miterlimit:1;" x1="154.697" y1="43.817" x2="152.064" y2="42.83"/>
	<line style="fill:none;stroke:#000000;stroke-miterlimit:1;" x1="152.064" y1="42.83" x2="149.102" y2="42.171"/>
	<line style="fill:none;stroke:#000000;stroke-miterlimit:1;" x1="149.102" y1="42.171" x2="145.481" y2="41.513"/>
	<line style="fill:none;stroke:#000000;stroke-miterlimit:1;" x1="145.481" y1="41.513" x2="141.86" y2="41.513"/>
	<line style="fill:none;stroke:#000000;stroke-miterlimit:1;" x1="141.86" y1="41.513" x2="138.898" y2="42.171"/>
	<line style="fill:none;stroke:#000000;stroke-miterlimit:1;" x1="138.898" y1="42.171" x2="138.24" y2="44.805"/>
	<line style="fill:none;stroke:#000000;stroke-miterlimit:1;" x1="138.24" y1="44.805" x2="138.569" y2="45.463"/>
	<line style="fill:none;stroke:#000000;stroke-miterlimit:1;" x1="138.569" y1="45.463" x2="141.86" y2="46.451"/>
	<line style="fill:none;stroke:#000000;stroke-miterlimit:1;" x1="141.86" y1="46.451" x2="144.165" y2="46.78"/>
	<line style="fill:none;stroke:#000000;stroke-miterlimit:1;" x1="144.165" y1="46.78" x2="146.798" y2="45.792"/>
	<line style="fill:none;stroke:#000000;stroke-miterlimit:1;" x1="146.798" y1="45.792" x2="149.431" y2="45.463"/>
	<line style="fill:none;stroke:#000000;stroke-miterlimit:1;" x1="149.431" y1="45.463" x2="150.089" y2="47.438"/>
	<line style="fill:none;stroke:#000000;stroke-miterlimit:1;" x1="150.089" y1="47.438" x2="146.798" y2="49.083"/>
	<line style="fill:none;stroke:#000000;stroke-miterlimit:1;" x1="146.798" y1="49.083" x2="144.165" y2="49.413"/>
	<line style="fill:none;stroke:#000000;stroke-miterlimit:1;" x1="144.165" y1="49.413" x2="140.215" y2="50.071"/>
	<line style="fill:none;stroke:#000000;stroke-miterlimit:1;" x1="140.215" y1="50.071" x2="136.265" y2="48.754"/>
	<line style="fill:none;stroke:#000000;stroke-miterlimit:1;" x1="136.265" y1="48.754" x2="131.657" y2="47.438"/>
	<line style="fill:none;stroke:#000000;stroke-miterlimit:1;" x1="131.657" y1="47.438" x2="129.682" y2="47.109"/>
	<line style="fill:none;stroke:#000000;stroke-miterlimit:1;" x1="129.682" y1="47.109" x2="121.125" y2="48.425"/>
	<line style="fill:none;stroke:#000000;stroke-miterlimit:1;" x1="121.125" y1="48.425" x2="112.567" y2="48.754"/>
	<line style="fill:none;stroke:#000000;stroke-miterlimit:1;" x1="112.567" y1="48.754" x2="104.667" y2="49.413"/>
	<line style="fill:none;stroke:#000000;stroke-miterlimit:1;" x1="104.667" y1="49.413" x2="100.06" y2="49.413"/>
	<line style="fill:none;stroke:#000000;stroke-miterlimit:1;" x1="100.06" y1="49.413" x2="97.426" y2="49.413"/>
	<line style="fill:none;stroke:#000000;stroke-miterlimit:1;" x1="97.426" y1="49.413" x2="92.16" y2="48.425"/>
	<line style="fill:none;stroke:#000000;stroke-miterlimit:1;" x1="92.16" y1="48.425" x2="89.527" y2="46.121"/>
	<line style="fill:none;stroke:#000000;stroke-miterlimit:1;" x1="89.527" y1="46.121" x2="88.21" y2="42.171"/>
	<line style="fill:none;stroke:#000000;stroke-miterlimit:1;" x1="88.21" y1="42.171" x2="86.235" y2="37.893"/>
	<line style="fill:none;stroke:#000000;stroke-miterlimit:1;" x1="86.235" y1="37.893" x2="84.919" y2="32.956"/>
	<line style="fill:none;stroke:#000000;stroke-miterlimit:1;" x1="84.919" y1="32.956" x2="84.261" y2="30.322"/>
	<line style="fill:none;stroke:#000000;stroke-miterlimit:1;" x1="84.261" y1="30.322" x2="80.311" y2="17.157"/>
	<line style="fill:none;stroke:#000000;stroke-miterlimit:1;" x1="80.311" y1="17.157" x2="78.994" y2="15.511"/>
	<line style="fill:none;stroke:#000000;stroke-miterlimit:1;" x1="78.994" y1="15.511" x2="77.678" y2="16.828"/>
	<line style="fill:none;stroke:#000000;stroke-miterlimit:1;" x1="77.678" y1="16.828" x2="72.412" y2="32.956"/>
	<line style="fill:none;stroke:#000000;stroke-miterlimit:1;" x1="72.412" y1="32.956" x2="71.095" y2="37.563"/>
	<line style="fill:none;stroke:#000000;stroke-miterlimit:1;" x1="71.095" y1="37.563" x2="69.12" y2="41.842"/>
	<line style="fill:none;stroke:#000000;stroke-miterlimit:1;" x1="69.12" y1="41.842" x2="67.803" y2="45.463"/>
	<line style="fill:none;stroke:#000000;stroke-miterlimit:1;" x1="67.803" y1="45.463" x2="65.5" y2="48.096"/>
	<line style="fill:none;stroke:#000000;stroke-miterlimit:1;" x1="65.5" y1="48.096" x2="62.537" y2="49.083"/>
	<line style="fill:none;stroke:#000000;stroke-miterlimit:1;" x1="62.537" y1="49.083" x2="57.271" y2="49.413"/>
	<line style="fill:none;stroke:#000000;stroke-miterlimit:1;" x1="57.271" y1="49.413" x2="49.372" y2="48.754"/>
	<line style="fill:none;stroke:#000000;stroke-miterlimit:1;" x1="49.372" y1="48.754" x2="41.801" y2="48.096"/>
	<line style="fill:none;stroke:#000000;stroke-miterlimit:1;" x1="41.801" y1="48.096" x2="30.61" y2="48.096"/>
	<line style="fill:none;stroke:#000000;stroke-miterlimit:1;" x1="30.61" y1="48.096" x2="28.964" y2="47.438"/>
	<line style="fill:none;stroke:#000000;stroke-miterlimit:1;" x1="28.964" y1="47.438" x2="21.724" y2="49.413"/>
	<line style="fill:none;stroke:#000000;stroke-miterlimit:1;" x1="21.724" y1="49.413" x2="13.824" y2="49.742"/>
	<line style="fill:none;stroke:#000000;stroke-miterlimit:1;" x1="13.824" y1="49.742" x2="9.874" y2="47.438"/>
	<line style="fill:none;stroke:#000000;stroke-miterlimit:1;" x1="9.874" y1="47.438" x2="9.874" y2="46.78"/>
	<line style="fill:none;stroke:#000000;stroke-miterlimit:1;" x1="9.874" y1="46.78" x2="10.862" y2="44.805"/>
	<line style="fill:none;stroke:#000000;stroke-miterlimit:1;" x1="10.862" y1="44.805" x2="14.482" y2="46.451"/>
	<line style="fill:none;stroke:#000000;stroke-miterlimit:1;" x1="14.482" y1="46.451" x2="19.09" y2="46.78"/>
	<line style="fill:none;stroke:#000000;stroke-miterlimit:1;" x1="19.09" y1="46.78" x2="21.724" y2="44.805"/>
	<line style="fill:none;stroke:#000000;stroke-miterlimit:1;" x1="21.724" y1="44.805" x2="22.382" y2="44.146"/>
	<line style="fill:none;stroke:#000000;stroke-miterlimit:1;" x1="22.382" y1="44.146" x2="21.065" y2="42.83"/>
	<line style="fill:none;stroke:#000000;stroke-miterlimit:1;" x1="21.065" y1="42.83" x2="17.115" y2="41.842"/>
	<line style="fill:none;stroke:#000000;stroke-miterlimit:1;" x1="17.115" y1="41.842" x2="13.495" y2="41.842"/>
	<line style="fill:none;stroke:#000000;stroke-miterlimit:1;" x1="13.495" y1="41.842" x2="10.533" y2="42.171"/>
	<line style="fill:none;stroke:#000000;stroke-miterlimit:1;" x1="10.533" y1="42.171" x2="7.899" y2="43.159"/>
	<line style="fill:none;stroke:#000000;stroke-miterlimit:1;" x1="7.899" y1="43.159" x2="5.925" y2="44.146"/>
	<line style="fill:none;stroke:#000000;stroke-miterlimit:1;" x1="5.925" y1="44.146" x2="1.316" y2="46.121"/>
	<line style="fill:none;stroke:#000000;stroke-miterlimit:1;" x1="1.316" y1="46.121" x2="0.329" y2="45.463"/>
	<line style="fill:none;stroke:#000000;stroke-miterlimit:1;" x1="0.329" y1="45.463" x2="0" y2="43.488"/>
	<line style="fill:none;stroke:#000000;stroke-miterlimit:1;" x1="0" y1="43.488" x2="1.975" y2="42.171"/>
	<line style="fill:none;stroke:#000000;stroke-miterlimit:1;" x1="1.975" y1="42.171" x2="5.595" y2="40.197"/>
	<line style="fill:none;stroke:#000000;stroke-miterlimit:1;" x1="5.595" y1="40.197" x2="8.558" y2="38.88"/>
	<line style="fill:none;stroke:#000000;stroke-miterlimit:1;" x1="8.558" y1="38.88" x2="12.507" y2="37.563"/>
	<line style="fill:none;stroke:#000000;stroke-miterlimit:1;" x1="12.507" y1="37.563" x2="16.786" y2="37.234"/>
	<line style="fill:none;stroke:#000000;stroke-miterlimit:1;" x1="16.786" y1="37.234" x2="20.407" y2="36.905"/>
	<line style="fill:none;stroke:#000000;stroke-miterlimit:1;" x1="20.407" y1="36.905" x2="24.356" y2="38.222"/>
	<line style="fill:none;stroke:#000000;stroke-miterlimit:1;" x1="24.356" y1="38.222" x2="26.99" y2="38.88"/>
	<line style="fill:none;stroke:#000000;stroke-miterlimit:1;" x1="26.99" y1="38.88" x2="28.635" y2="40.526"/>
	<line style="fill:none;stroke:#000000;stroke-miterlimit:1;" x1="28.635" y1="40.526" x2="31.598" y2="41.513"/>
	<line style="fill:none;stroke:#000000;stroke-miterlimit:1;" x1="31.598" y1="41.513" x2="37.522" y2="40.855"/>
	<line style="fill:none;stroke:#000000;stroke-miterlimit:1;" x1="37.522" y1="40.855" x2="45.751" y2="40.197"/>
	<line style="fill:none;stroke:#000000;stroke-miterlimit:1;" x1="45.751" y1="40.197" x2="52.333" y2="40.855"/>
	<line style="fill:none;stroke:#000000;stroke-miterlimit:1;" x1="52.333" y1="40.855" x2="56.942" y2="41.513"/>
	<line style="fill:none;stroke:#000000;stroke-miterlimit:1;" x1="56.942" y1="41.513" x2="58.587" y2="40.526"/>
	<line style="fill:none;stroke:#000000;stroke-miterlimit:1;" x1="58.587" y1="40.526" x2="60.233" y2="35.589"/>
	<line style="fill:none;stroke:#000000;stroke-miterlimit:1;" x1="60.233" y1="35.589" x2="61.879" y2="29.993"/>
	<line style="fill:none;stroke:#000000;stroke-miterlimit:1;" x1="61.879" y1="29.993" x2="65.17" y2="17.815"/>
	<line style="fill:none;stroke:#000000;stroke-miterlimit:1;" x1="65.17" y1="17.815" x2="68.462" y2="9.257"/>
	<line style="fill:none;stroke:#000000;stroke-miterlimit:1;" x1="68.462" y1="9.257" x2="69.449" y2="6.624"/>
	<line style="fill:none;stroke:#000000;stroke-miterlimit:1;" x1="69.449" y1="6.624" x2="71.095" y2="3.991"/>
	<line style="fill:none;stroke:#000000;stroke-miterlimit:1;" x1="71.095" y1="3.991" x2="73.07" y2="2.674"/>
	<line style="fill:none;stroke:#000000;stroke-miterlimit:1;" x1="73.07" y1="2.674" x2="74.386" y2="2.016"/>
	<line style="fill:none;stroke:#000000;stroke-miterlimit:1;" x1="74.386" y1="2.016" x2="78.994" y2="1.358"/>
	<line style="fill:none;stroke:#000000;stroke-miterlimit:1;" x1="78.994" y1="1.358" x2="83.273" y2="2.345"/>
	<line style="fill:none;stroke:#000000;stroke-miterlimit:1;" x1="83.273" y1="2.345" x2="85.906" y2="3.662"/>
	<line style="fill:none;stroke:#000000;stroke-miterlimit:1;" x1="85.906" y1="3.662" x2="86.894" y2="5.308"/>
	<line style="fill:none;stroke:#000000;stroke-miterlimit:1;" x1="86.894" y1="5.308" x2="88.869" y2="9.257"/>
	<line style="fill:none;stroke:#000000;stroke-miterlimit:1;" x1="88.869" y1="9.257" x2="92.16" y2="18.473"/>
	<line style="fill:none;stroke:#000000;stroke-miterlimit:1;" x1="92.16" y1="18.473" x2="95.451" y2="30.981"/>
	<line style="fill:none;stroke:#000000;stroke-miterlimit:1;" x1="95.451" y1="30.981" x2="97.426" y2="36.247"/>
	<line style="fill:none;stroke:#000000;stroke-miterlimit:1;" x1="97.426" y1="36.247" x2="99.401" y2="41.184"/>
	<line style="fill:none;stroke:#000000;stroke-miterlimit:1;" x1="99.401" y1="41.184" x2="102.363" y2="40.855"/>
	<line style="fill:none;stroke:#000000;stroke-miterlimit:1;" x1="102.363" y1="40.855" x2="107.959" y2="40.197"/>
	<line style="fill:none;stroke:#000000;stroke-miterlimit:1;" x1="107.959" y1="40.197" x2="112.567" y2="40.197"/>
	<line style="fill:none;stroke:#000000;stroke-miterlimit:1;" x1="112.567" y1="40.197" x2="119.808" y2="40.855"/>
	<line style="fill:none;stroke:#000000;stroke-miterlimit:1;" x1="119.808" y1="40.855" x2="125.732" y2="41.513"/>
	<line style="fill:none;stroke:#000000;stroke-miterlimit:1;" x1="125.732" y1="41.513" x2="129.682" y2="41.513"/>
	<line style="fill:none;stroke:#000000;stroke-miterlimit:1;" x1="166.464" y1="142.971" x2="156.261" y2="140.996"/>
	<line style="fill:none;stroke:#000000;stroke-miterlimit:1;" x1="156.261" y1="140.996" x2="149.02" y2="139.68"/>
	<line style="fill:none;stroke:#000000;stroke-miterlimit:1;" x1="149.02" y1="139.68" x2="143.753" y2="137.705"/>
	<line style="fill:none;stroke:#000000;stroke-miterlimit:1;" x1="143.753" y1="137.705" x2="137.17" y2="135.072"/>
	<line style="fill:none;stroke:#000000;stroke-miterlimit:1;" x1="137.17" y1="135.072" x2="130.258" y2="131.781"/>
	<line style="fill:none;stroke:#000000;stroke-miterlimit:1;" x1="130.258" y1="131.781" x2="117.422" y2="124.539"/>
	<line style="fill:none;stroke:#000000;stroke-miterlimit:1;" x1="117.422" y1="124.539" x2="104.256" y2="117.299"/>
	<line style="fill:none;stroke:#000000;stroke-miterlimit:1;" x1="104.256" y1="117.299" x2="97.673" y2="114.994"/>
	<line style="fill:none;stroke:#000000;stroke-miterlimit:1;" x1="97.673" y1="114.994" x2="89.774" y2="112.031"/>
	<line style="fill:none;stroke:#000000;stroke-miterlimit:1;" x1="89.774" y1="112.031" x2="81.874" y2="110.715"/>
	<line style="fill:none;stroke:#000000;stroke-miterlimit:1;" x1="81.874" y1="110.715" x2="75.95" y2="109.398"/>
	<line style="fill:none;stroke:#000000;stroke-miterlimit:1;" x1="75.95" y1="109.398" x2="68.708" y2="109.398"/>
	<line style="fill:none;stroke:#000000;stroke-miterlimit:1;" x1="68.708" y1="109.398" x2="61.467" y2="110.387"/>
	<line style="fill:none;stroke:#000000;stroke-miterlimit:1;" x1="61.467" y1="110.387" x2="54.226" y2="112.691"/>
	<line style="fill:none;stroke:#000000;stroke-miterlimit:1;" x1="54.226" y1="112.691" x2="46.985" y2="116.311"/>
	<line style="fill:none;stroke:#000000;stroke-miterlimit:1;" x1="46.985" y1="116.311" x2="39.086" y2="122.236"/>
	<line style="fill:none;stroke:#000000;stroke-miterlimit:1;" x1="39.086" y1="122.236" x2="33.819" y2="127.172"/>
	<line style="fill:none;stroke:#000000;stroke-miterlimit:1;" x1="33.819" y1="127.172" x2="28.553" y2="130.465"/>
	<line style="fill:none;stroke:#000000;stroke-miterlimit:1;" x1="28.553" y1="130.465" x2="24.274" y2="133.426"/>
	<line style="fill:none;stroke:#000000;stroke-miterlimit:1;" x1="24.274" y1="133.426" x2="20.654" y2="134.414"/>
	<line style="fill:none;stroke:#000000;stroke-miterlimit:1;" x1="20.654" y1="134.414" x2="16.704" y2="136.061"/>
	<line style="fill:none;stroke:#000000;stroke-miterlimit:1;" x1="16.704" y1="136.061" x2="12.754" y2="137.377"/>
	<line style="fill:none;stroke:#000000;stroke-miterlimit:1;" x1="12.754" y1="137.377" x2="6.171" y2="138.363"/>
	<line style="fill:none;stroke:#000000;stroke-miterlimit:1;" x1="13.083" y1="137.047" x2="18.679" y2="137.047"/>
	<line style="fill:none;stroke:#000000;stroke-miterlimit:1;" x1="18.679" y1="137.047" x2="23.616" y2="136.719"/>
	<line style="fill:none;stroke:#000000;stroke-miterlimit:1;" x1="23.616" y1="136.719" x2="28.553" y2="137.705"/>
	<line style="fill:none;stroke:#000000;stroke-miterlimit:1;" x1="28.553" y1="137.705" x2="37.111" y2="139.68"/>
	<line style="fill:none;stroke:#000000;stroke-miterlimit:1;" x1="37.111" y1="139.68" x2="43.694" y2="142.312"/>
	<line style="fill:none;stroke:#000000;stroke-miterlimit:1;" x1="43.694" y1="142.312" x2="50.935" y2="143.959"/>
	<line style="fill:none;stroke:#000000;stroke-miterlimit:1;" x1="50.935" y1="143.959" x2="58.834" y2="145.934"/>
	<line style="fill:none;stroke:#000000;stroke-miterlimit:1;" x1="58.834" y1="145.934" x2="63.771" y2="146.922"/>
	<line style="fill:none;stroke:#000000;stroke-miterlimit:1;" x1="63.771" y1="146.922" x2="72.658" y2="147.25"/>
	<line style="fill:none;stroke:#000000;stroke-miterlimit:1;" x1="72.658" y1="147.25" x2="84.178" y2="146.264"/>
	<line style="fill:none;stroke:#000000;stroke-miterlimit:1;" x1="84.178" y1="146.264" x2="89.774" y2="145.605"/>
	<line style="fill:none;stroke:#000000;stroke-miterlimit:1;" x1="89.774" y1="145.605" x2="108.206" y2="143.301"/>
	<line style="fill:none;stroke:#000000;stroke-miterlimit:1;" x1="108.206" y1="143.301" x2="115.447" y2="142.312"/>
	<line style="fill:none;stroke:#000000;stroke-miterlimit:1;" x1="115.447" y1="142.312" x2="122.03" y2="141.654"/>
	<line style="fill:none;stroke:#000000;stroke-miterlimit:1;" x1="122.03" y1="141.654" x2="128.612" y2="140.996"/>
	<line style="fill:none;stroke:#000000;stroke-miterlimit:1;" x1="128.612" y1="140.996" x2="141.778" y2="140.338"/>
	<line style="fill:none;stroke:#000000;stroke-miterlimit:1;" x1="141.778" y1="140.338" x2="148.361" y2="140.996"/>
	<line style="fill:none;stroke:#000000;stroke-miterlimit:1;" x1="148.361" y1="140.996" x2="153.957" y2="141.654"/>
	<line style="fill:none;stroke:#000000;stroke-miterlimit:1;" x1="153.957" y1="141.654" x2="159.552" y2="142.312"/>
	<line style="fill:none;stroke:#000000;stroke-miterlimit:1;" x1="159.552" y1="142.312" x2="162.514" y2="142.312"/>
	<line style="fill:none;stroke:#000000;stroke-miterlimit:1;" x1="52.581" y1="114.008" x2="50.276" y2="117.299"/>
	<line style="fill:none;stroke:#000000;stroke-miterlimit:1;" x1="50.276" y1="117.299" x2="49.618" y2="119.932"/>
	<line style="fill:none;stroke:#000000;stroke-miterlimit:1;" x1="49.618" y1="119.932" x2="48.631" y2="123.223"/>
	<line style="fill:none;stroke:#000000;stroke-miterlimit:1;" x1="48.631" y1="123.223" x2="48.302" y2="126.514"/>
	<line style="fill:none;stroke:#000000;stroke-miterlimit:1;" x1="48.302" y1="126.514" x2="49.618" y2="132.439"/>
	<line style="fill:none;stroke:#000000;stroke-miterlimit:1;" x1="49.618" y1="132.439" x2="51.593" y2="135.4"/>
	<line style="fill:none;stroke:#000000;stroke-miterlimit:1;" x1="51.593" y1="135.4" x2="53.568" y2="138.363"/>
	<line style="fill:none;stroke:#000000;stroke-miterlimit:1;" x1="53.568" y1="138.363" x2="56.859" y2="140.996"/>
	<line style="fill:none;stroke:#000000;stroke-miterlimit:1;" x1="56.859" y1="140.996" x2="60.48" y2="142.971"/>
	<line style="fill:none;stroke:#000000;stroke-miterlimit:1;" x1="60.48" y1="142.971" x2="68.05" y2="143.959"/>
	<line style="fill:none;stroke:#000000;stroke-miterlimit:1;" x1="68.05" y1="143.959" x2="73.646" y2="143.301"/>
	<line style="fill:none;stroke:#000000;stroke-miterlimit:1;" x1="73.646" y1="143.301" x2="77.925" y2="142.643"/>
	<line style="fill:none;stroke:#000000;stroke-miterlimit:1;" x1="77.925" y1="142.643" x2="83.191" y2="139.021"/>
	<line style="fill:none;stroke:#000000;stroke-miterlimit:1;" x1="83.191" y1="139.021" x2="86.482" y2="135.072"/>
	<line style="fill:none;stroke:#000000;stroke-miterlimit:1;" x1="86.482" y1="135.072" x2="88.128" y2="132.109"/>
	<line style="fill:none;stroke:#000000;stroke-miterlimit:1;" x1="88.128" y1="132.109" x2="89.115" y2="125.855"/>
	<line style="fill:none;stroke:#000000;stroke-miterlimit:1;" x1="89.115" y1="125.855" x2="88.457" y2="119.932"/>
	<line style="fill:none;stroke:#000000;stroke-miterlimit:1;" x1="88.457" y1="119.932" x2="86.812" y2="116.641"/>
	<line style="fill:none;stroke:#000000;stroke-miterlimit:1;" x1="86.812" y1="116.641" x2="85.166" y2="114.008"/>
	<line style="fill:none;stroke:#000000;stroke-miterlimit:1;" x1="85.166" y1="114.008" x2="81.874" y2="110.715"/>
	<line style="fill:none;stroke:#000000;stroke-miterlimit:1;" x1="210.487" y1="59.575" x2="210.487" y2="148.115"/>
	<line style="fill:none;stroke:#000000;stroke-miterlimit:1;" x1="210.487" y1="148.115" x2="217.398" y2="148.115"/>
	<line style="fill:none;stroke:#000000;stroke-miterlimit:1;" x1="217.398" y1="148.115" x2="217.398" y2="59.575"/>
	<line style="fill:none;stroke:#000000;stroke-miterlimit:1;" x1="176.914" y1="59.246" x2="250.972" y2="59.246"/>
	<line style="fill:none;stroke:#000000;stroke-miterlimit:1;" x1="250.972" y1="59.246" x2="250.972" y2="35.876"/>
	<line style="fill:none;stroke:#000000;stroke-miterlimit:1;" x1="250.972" y1="35.876" x2="249.655" y2="33.244"/>
	<line style="fill:none;stroke:#000000;stroke-miterlimit:1;" x1="249.655" y1="33.244" x2="248.338" y2="31.598"/>
	<line style="fill:none;stroke:#000000;stroke-miterlimit:1;" x1="248.338" y1="31.598" x2="246.692" y2="31.598"/>
	<line style="fill:none;stroke:#000000;stroke-miterlimit:1;" x1="246.692" y1="31.598" x2="245.047" y2="31.598"/>
	<line style="fill:none;stroke:#000000;stroke-miterlimit:1;" x1="245.047" y1="31.598" x2="243.072" y2="31.927"/>
	<line style="fill:none;stroke:#000000;stroke-miterlimit:1;" x1="243.072" y1="31.927" x2="241.097" y2="33.244"/>
	<line style="fill:none;stroke:#000000;stroke-miterlimit:1;" x1="241.097" y1="33.244" x2="234.515" y2="39.168"/>
	<line style="fill:none;stroke:#000000;stroke-miterlimit:1;" x1="234.515" y1="39.168" x2="228.59" y2="44.435"/>
	<line style="fill:none;stroke:#000000;stroke-miterlimit:1;" x1="228.59" y1="44.435" x2="223.981" y2="46.738"/>
	<line style="fill:none;stroke:#000000;stroke-miterlimit:1;" x1="223.981" y1="46.738" x2="218.387" y2="48.055"/>
	<line style="fill:none;stroke:#000000;stroke-miterlimit:1;" x1="218.387" y1="48.055" x2="213.778" y2="48.384"/>
	<line style="fill:none;stroke:#000000;stroke-miterlimit:1;" x1="213.778" y1="48.384" x2="209.499" y2="48.055"/>
	<line style="fill:none;stroke:#000000;stroke-miterlimit:1;" x1="209.499" y1="48.055" x2="203.904" y2="46.738"/>
	<line style="fill:none;stroke:#000000;stroke-miterlimit:1;" x1="203.904" y1="46.738" x2="199.296" y2="44.435"/>
	<line style="fill:none;stroke:#000000;stroke-miterlimit:1;" x1="199.296" y1="44.435" x2="193.371" y2="39.168"/>
	<line style="fill:none;stroke:#000000;stroke-miterlimit:1;" x1="193.371" y1="39.168" x2="186.789" y2="33.244"/>
	<line style="fill:none;stroke:#000000;stroke-miterlimit:1;" x1="186.789" y1="33.244" x2="184.813" y2="31.927"/>
	<line style="fill:none;stroke:#000000;stroke-miterlimit:1;" x1="184.813" y1="31.927" x2="182.839" y2="31.598"/>
	<line style="fill:none;stroke:#000000;stroke-miterlimit:1;" x1="182.839" y1="31.598" x2="181.193" y2="31.598"/>
	<line style="fill:none;stroke:#000000;stroke-miterlimit:1;" x1="181.193" y1="31.598" x2="179.548" y2="31.598"/>
	<line style="fill:none;stroke:#000000;stroke-miterlimit:1;" x1="179.548" y1="31.598" x2="178.23" y2="33.244"/>
	<line style="fill:none;stroke:#000000;stroke-miterlimit:1;" x1="178.23" y1="33.244" x2="176.914" y2="35.876"/>
	<line style="fill:none;stroke:#000000;stroke-miterlimit:1;" x1="176.914" y1="35.876" x2="176.914" y2="59.246"/>
	<line style="fill:none;stroke:#000000;stroke-miterlimit:1;" x1="227.603" y1="44.435" x2="221.678" y2="5.596"/>
	<line style="fill:none;stroke:#000000;stroke-miterlimit:1;" x1="221.678" y1="5.596" x2="219.045" y2="2.304"/>
	<line style="fill:none;stroke:#000000;stroke-miterlimit:1;" x1="219.045" y1="2.304" x2="217.069" y2="0.988"/>
	<line style="fill:none;stroke:#000000;stroke-miterlimit:1;" x1="217.069" y1="0.988" x2="214.437" y2="0"/>
	<line style="fill:none;stroke:#000000;stroke-miterlimit:1;" x1="214.437" y1="0" x2="213.449" y2="0"/>
	<line style="fill:none;stroke:#000000;stroke-miterlimit:1;" x1="213.449" y1="0" x2="210.816" y2="0.988"/>
	<line style="fill:none;stroke:#000000;stroke-miterlimit:1;" x1="210.816" y1="0.988" x2="208.841" y2="2.304"/>
	<line style="fill:none;stroke:#000000;stroke-miterlimit:1;" x1="208.841" y1="2.304" x2="206.208" y2="5.596"/>
	<line style="fill:none;stroke:#000000;stroke-miterlimit:1;" x1="206.208" y1="5.596" x2="200.283" y2="44.435"/>
	<line style="fill:none;stroke:#000000;stroke-miterlimit:1;" x1="330.336" y1="0.329" x2="328.69" y2="33.573"/>
	<line style="fill:none;stroke:#000000;stroke-miterlimit:1;" x1="328.69" y1="33.573" x2="328.032" y2="61.879"/>
	<line style="fill:none;stroke:#000000;stroke-miterlimit:1;" x1="328.032" y1="61.879" x2="327.374" y2="83.602"/>
	<line style="fill:none;stroke:#000000;stroke-miterlimit:1;" x1="327.374" y1="83.602" x2="325.728" y2="99.072"/>
	<line style="fill:none;stroke:#000000;stroke-miterlimit:1;" x1="325.728" y1="99.072" x2="324.411" y2="113.883"/>
	<line style="fill:none;stroke:#000000;stroke-miterlimit:1;" x1="324.411" y1="113.883" x2="325.069" y2="129.682"/>
	<line style="fill:none;stroke:#000000;stroke-miterlimit:1;" x1="325.069" y1="129.682" x2="326.058" y2="134.619"/>
	<line style="fill:none;stroke:#000000;stroke-miterlimit:1;" x1="326.058" y1="134.619" x2="326.716" y2="138.568"/>
	<line style="fill:none;stroke:#000000;stroke-miterlimit:1;" x1="326.716" y1="138.568" x2="326.387" y2="142.52"/>
	<line style="fill:none;stroke:#000000;stroke-miterlimit:1;" x1="326.387" y1="142.52" x2="324.411" y2="145.152"/>
	<line style="fill:none;stroke:#000000;stroke-miterlimit:1;" x1="324.411" y1="145.152" x2="321.449" y2="147.127"/>
	<line style="fill:none;stroke:#000000;stroke-miterlimit:1;" x1="321.449" y1="147.127" x2="317.828" y2="147.785"/>
	<line style="fill:none;stroke:#000000;stroke-miterlimit:1;" x1="317.828" y1="147.785" x2="311.246" y2="146.139"/>
	<line style="fill:none;stroke:#000000;stroke-miterlimit:1;" x1="311.246" y1="146.139" x2="308.612" y2="144.164"/>
	<line style="fill:none;stroke:#000000;stroke-miterlimit:1;" x1="308.612" y1="144.164" x2="304.334" y2="143.178"/>
	<line style="fill:none;stroke:#000000;stroke-miterlimit:1;" x1="304.334" y1="143.178" x2="294.459" y2="148.115"/>
	<line style="fill:none;stroke:#000000;stroke-miterlimit:1;" x1="294.459" y1="148.115" x2="253.646" y2="147.785"/>
	<line style="fill:none;stroke:#000000;stroke-miterlimit:1;" x1="253.646" y1="147.785" x2="252" y2="142.52"/>
	<line style="fill:none;stroke:#000000;stroke-miterlimit:1;" x1="252" y1="142.52" x2="253.316" y2="139.887"/>
	<line style="fill:none;stroke:#000000;stroke-miterlimit:1;" x1="253.316" y1="139.887" x2="256.938" y2="139.229"/>
	<line style="fill:none;stroke:#000000;stroke-miterlimit:1;" x1="256.938" y1="139.229" x2="271.09" y2="136.266"/>
	<line style="fill:none;stroke:#000000;stroke-miterlimit:1;" x1="271.09" y1="136.266" x2="282.939" y2="130.34"/>
	<line style="fill:none;stroke:#000000;stroke-miterlimit:1;" x1="282.939" y1="130.34" x2="290.839" y2="127.379"/>
	<line style="fill:none;stroke:#000000;stroke-miterlimit:1;" x1="290.839" y1="127.379" x2="297.751" y2="125.732"/>
	<line style="fill:none;stroke:#000000;stroke-miterlimit:1;" x1="297.751" y1="125.732" x2="302.688" y2="121.453"/>
	<line style="fill:none;stroke:#000000;stroke-miterlimit:1;" x1="302.688" y1="121.453" x2="304.334" y2="117.176"/>
	<line style="fill:none;stroke:#000000;stroke-miterlimit:1;" x1="304.334" y1="117.176" x2="304.663" y2="112.566"/>
	<line style="fill:none;stroke:#000000;stroke-miterlimit:1;" x1="304.663" y1="112.566" x2="304.005" y2="105.654"/>
	<line style="fill:none;stroke:#000000;stroke-miterlimit:1;" x1="304.005" y1="105.654" x2="303.676" y2="96.439"/>
	<line style="fill:none;stroke:#000000;stroke-miterlimit:1;" x1="303.676" y1="96.439" x2="303.018" y2="71.424"/>
	<line style="fill:none;stroke:#000000;stroke-miterlimit:1;" x1="303.018" y1="71.424" x2="302.688" y2="46.409"/>
	<line style="fill:none;stroke:#000000;stroke-miterlimit:1;" x1="302.688" y1="46.409" x2="300.055" y2="0"/>
	<line style="fill:none;stroke:#000000;stroke-miterlimit:1;" x1="300.055" y1="0" x2="330.336" y2="0"/>
</g>
</svg>
