<?xml version="1.0" encoding="iso-8859-1"?>
<!-- Generator: Adobe Illustrator 16.0.1, SVG Export Plug-In . SVG Version: 6.00 Build 0)  -->
<!DOCTYPE svg PUBLIC "-//W3C//DTD SVG 1.1//EN" "http://www.w3.org/Graphics/SVG/1.1/DTD/svg11.dtd">
<svg version="1.1" id="Ebene_1" xmlns="http://www.w3.org/2000/svg" xmlns:xlink="http://www.w3.org/1999/xlink" x="0px" y="0px"
	 width="175.797px" height="149.038px" viewBox="0 0 175.797 149.038" style="enable-background:new 0 0 175.797 149.038;"
	 xml:space="preserve">
<g>
	<line style="fill:none;stroke:#000000;stroke-miterlimit:1;" x1="110.7" y1="40.421" x2="103.459" y2="39.763"/>
	<line style="fill:none;stroke:#000000;stroke-miterlimit:1;" x1="103.459" y1="39.763" x2="91.938" y2="40.421"/>
	<line style="fill:none;stroke:#000000;stroke-miterlimit:1;" x1="91.938" y1="40.421" x2="83.381" y2="39.434"/>
	<line style="fill:none;stroke:#000000;stroke-miterlimit:1;" x1="83.381" y1="39.434" x2="80.748" y2="40.421"/>
	<line style="fill:none;stroke:#000000;stroke-miterlimit:1;" x1="80.748" y1="40.421" x2="78.773" y2="43.054"/>
	<line style="fill:none;stroke:#000000;stroke-miterlimit:1;" x1="78.773" y1="43.054" x2="79.431" y2="47.662"/>
	<line style="fill:none;stroke:#000000;stroke-miterlimit:1;" x1="79.431" y1="47.662" x2="82.723" y2="58.194"/>
	<line style="fill:none;stroke:#000000;stroke-miterlimit:1;" x1="82.723" y1="58.194" x2="88.977" y2="68.398"/>
	<line style="fill:none;stroke:#000000;stroke-miterlimit:1;" x1="88.977" y1="68.398" x2="109.383" y2="92.755"/>
	<line style="fill:none;stroke:#000000;stroke-miterlimit:1;" x1="109.383" y1="92.755" x2="119.916" y2="102.629"/>
	<line style="fill:none;stroke:#000000;stroke-miterlimit:1;" x1="119.916" y1="102.629" x2="135.057" y2="116.782"/>
	<line style="fill:none;stroke:#000000;stroke-miterlimit:1;" x1="135.057" y1="116.782" x2="167.312" y2="148.38"/>
	<line style="fill:none;stroke:#000000;stroke-miterlimit:1;" x1="167.312" y1="148.38" x2="170.604" y2="148.38"/>
	<line style="fill:none;stroke:#000000;stroke-miterlimit:1;" x1="170.604" y1="148.38" x2="171.591" y2="146.734"/>
	<line style="fill:none;stroke:#000000;stroke-miterlimit:1;" x1="171.591" y1="146.734" x2="170.274" y2="143.771"/>
	<line style="fill:none;stroke:#000000;stroke-miterlimit:1;" x1="170.274" y1="143.771" x2="156.451" y2="112.174"/>
	<line style="fill:none;stroke:#000000;stroke-miterlimit:1;" x1="156.451" y1="112.174" x2="154.476" y2="106.249"/>
	<line style="fill:none;stroke:#000000;stroke-miterlimit:1;" x1="154.476" y1="106.249" x2="143.943" y2="80.905"/>
	<line style="fill:none;stroke:#000000;stroke-miterlimit:1;" x1="143.943" y1="80.905" x2="134.398" y2="64.448"/>
	<line style="fill:none;stroke:#000000;stroke-miterlimit:1;" x1="134.398" y1="64.448" x2="126.828" y2="53.916"/>
	<line style="fill:none;stroke:#000000;stroke-miterlimit:1;" x1="126.828" y1="53.916" x2="121.232" y2="46.345"/>
	<line style="fill:none;stroke:#000000;stroke-miterlimit:1;" x1="121.232" y1="46.345" x2="116.624" y2="39.104"/>
	<line style="fill:none;stroke:#000000;stroke-miterlimit:1;" x1="116.624" y1="39.104" x2="111.688" y2="32.521"/>
	<line style="fill:none;stroke:#000000;stroke-miterlimit:1;" x1="111.688" y1="32.521" x2="105.763" y2="25.609"/>
	<line style="fill:none;stroke:#000000;stroke-miterlimit:1;" x1="105.763" y1="25.609" x2="99.838" y2="21.66"/>
	<line style="fill:none;stroke:#000000;stroke-miterlimit:1;" x1="99.838" y1="21.66" x2="98.192" y2="14.748"/>
	<line style="fill:none;stroke:#000000;stroke-miterlimit:1;" x1="98.192" y1="14.748" x2="96.876" y2="7.177"/>
	<line style="fill:none;stroke:#000000;stroke-miterlimit:1;" x1="96.876" y1="7.177" x2="94.901" y2="2.24"/>
	<line style="fill:none;stroke:#000000;stroke-miterlimit:1;" x1="94.901" y1="2.24" x2="89.306" y2="0.924"/>
	<line style="fill:none;stroke:#000000;stroke-miterlimit:1;" x1="89.306" y1="0.924" x2="80.089" y2="0.924"/>
	<line style="fill:none;stroke:#000000;stroke-miterlimit:1;" x1="80.089" y1="0.924" x2="69.886" y2="1.253"/>
	<line style="fill:none;stroke:#000000;stroke-miterlimit:1;" x1="69.886" y1="1.253" x2="64.949" y2="2.569"/>
	<line style="fill:none;stroke:#000000;stroke-miterlimit:1;" x1="64.949" y1="2.569" x2="62.645" y2="3.228"/>
	<line style="fill:none;stroke:#000000;stroke-miterlimit:1;" x1="62.645" y1="3.228" x2="45.859" y2="5.532"/>
	<line style="fill:none;stroke:#000000;stroke-miterlimit:1;" x1="45.859" y1="5.532" x2="40.921" y2="7.835"/>
	<line style="fill:none;stroke:#000000;stroke-miterlimit:1;" x1="40.921" y1="7.835" x2="39.276" y2="10.14"/>
	<line style="fill:none;stroke:#000000;stroke-miterlimit:1;" x1="39.276" y1="10.14" x2="38.947" y2="14.748"/>
	<line style="fill:none;stroke:#000000;stroke-miterlimit:1;" x1="38.947" y1="14.748" x2="40.921" y2="11.456"/>
	<line style="fill:none;stroke:#000000;stroke-miterlimit:1;" x1="40.921" y1="11.456" x2="44.213" y2="9.811"/>
	<line style="fill:none;stroke:#000000;stroke-miterlimit:1;" x1="44.213" y1="9.811" x2="54.087" y2="9.811"/>
	<line style="fill:none;stroke:#000000;stroke-miterlimit:1;" x1="54.087" y1="9.811" x2="64.291" y2="10.14"/>
	<line style="fill:none;stroke:#000000;stroke-miterlimit:1;" x1="64.291" y1="10.14" x2="69.557" y2="11.456"/>
	<line style="fill:none;stroke:#000000;stroke-miterlimit:1;" x1="69.557" y1="11.456" x2="65.278" y2="6.19"/>
	<line style="fill:none;stroke:#000000;stroke-miterlimit:1;" x1="65.278" y1="6.19" x2="64.291" y2="2.569"/>
	<line style="fill:none;stroke:#000000;stroke-miterlimit:1;" x1="75.152" y1="9.481" x2="76.14" y2="9.152"/>
	<line style="fill:none;stroke:#000000;stroke-miterlimit:1;" x1="76.14" y1="9.152" x2="76.798" y2="7.506"/>
	<line style="fill:none;stroke:#000000;stroke-miterlimit:1;" x1="76.798" y1="7.506" x2="76.14" y2="5.861"/>
	<line style="fill:none;stroke:#000000;stroke-miterlimit:1;" x1="76.14" y1="5.861" x2="74.823" y2="4.874"/>
	<line style="fill:none;stroke:#000000;stroke-miterlimit:1;" x1="74.823" y1="4.874" x2="73.507" y2="5.861"/>
	<line style="fill:none;stroke:#000000;stroke-miterlimit:1;" x1="73.507" y1="5.861" x2="73.178" y2="7.835"/>
	<line style="fill:none;stroke:#000000;stroke-miterlimit:1;" x1="73.178" y1="7.835" x2="73.836" y2="8.823"/>
	<line style="fill:none;stroke:#000000;stroke-miterlimit:1;" x1="73.836" y1="8.823" x2="74.823" y2="9.481"/>
	<line style="fill:none;stroke:#000000;stroke-miterlimit:1;" x1="40.592" y1="12.773" x2="53.758" y2="12.444"/>
	<line style="fill:none;stroke:#000000;stroke-miterlimit:1;" x1="53.758" y1="12.444" x2="63.961" y2="13.76"/>
	<line style="fill:none;stroke:#000000;stroke-miterlimit:1;" x1="63.961" y1="13.76" x2="66.924" y2="15.406"/>
	<line style="fill:none;stroke:#000000;stroke-miterlimit:1;" x1="66.924" y1="15.406" x2="67.911" y2="18.697"/>
	<line style="fill:none;stroke:#000000;stroke-miterlimit:1;" x1="67.911" y1="18.697" x2="68.24" y2="22.318"/>
	<line style="fill:none;stroke:#000000;stroke-miterlimit:1;" x1="68.24" y1="22.318" x2="65.278" y2="29.559"/>
	<line style="fill:none;stroke:#000000;stroke-miterlimit:1;" x1="65.278" y1="29.559" x2="63.961" y2="38.446"/>
	<line style="fill:none;stroke:#000000;stroke-miterlimit:1;" x1="63.961" y1="38.446" x2="65.607" y2="49.308"/>
	<line style="fill:none;stroke:#000000;stroke-miterlimit:1;" x1="65.607" y1="49.308" x2="66.924" y2="54.245"/>
	<line style="fill:none;stroke:#000000;stroke-miterlimit:1;" x1="66.924" y1="54.245" x2="70.544" y2="64.119"/>
	<line style="fill:none;stroke:#000000;stroke-miterlimit:1;" x1="70.544" y1="64.119" x2="74.823" y2="72.019"/>
	<line style="fill:none;stroke:#000000;stroke-miterlimit:1;" x1="74.823" y1="72.019" x2="85.027" y2="89.463"/>
	<line style="fill:none;stroke:#000000;stroke-miterlimit:1;" x1="85.027" y1="89.463" x2="98.521" y2="115.136"/>
	<line style="fill:none;stroke:#000000;stroke-miterlimit:1;" x1="98.521" y1="115.136" x2="99.838" y2="125.011"/>
	<line style="fill:none;stroke:#000000;stroke-miterlimit:1;" x1="99.838" y1="125.011" x2="98.192" y2="141.797"/>
	<line style="fill:none;stroke:#000000;stroke-miterlimit:1;" x1="98.192" y1="141.797" x2="96.547" y2="143.442"/>
	<line style="fill:none;stroke:#000000;stroke-miterlimit:1;" x1="96.547" y1="143.442" x2="87.001" y2="144.43"/>
	<line style="fill:none;stroke:#000000;stroke-miterlimit:1;" x1="87.001" y1="144.43" x2="75.811" y2="144.101"/>
	<line style="fill:none;stroke:#000000;stroke-miterlimit:1;" x1="75.811" y1="144.101" x2="75.152" y2="145.746"/>
	<line style="fill:none;stroke:#000000;stroke-miterlimit:1;" x1="75.152" y1="145.746" x2="70.215" y2="146.405"/>
	<line style="fill:none;stroke:#000000;stroke-miterlimit:1;" x1="70.215" y1="146.405" x2="69.557" y2="147.393"/>
	<line style="fill:none;stroke:#000000;stroke-miterlimit:1;" x1="69.557" y1="147.393" x2="70.544" y2="148.709"/>
	<line style="fill:none;stroke:#000000;stroke-miterlimit:1;" x1="70.544" y1="148.709" x2="98.851" y2="147.722"/>
	<line style="fill:none;stroke:#000000;stroke-miterlimit:1;" x1="98.851" y1="147.722" x2="128.145" y2="149.038"/>
	<line style="fill:none;stroke:#000000;stroke-miterlimit:1;" x1="128.145" y1="149.038" x2="129.461" y2="147.722"/>
	<line style="fill:none;stroke:#000000;stroke-miterlimit:1;" x1="129.461" y1="147.722" x2="128.803" y2="146.075"/>
	<line style="fill:none;stroke:#000000;stroke-miterlimit:1;" x1="128.803" y1="146.075" x2="124.194" y2="146.075"/>
	<line style="fill:none;stroke:#000000;stroke-miterlimit:1;" x1="124.194" y1="146.075" x2="121.562" y2="143.771"/>
	<line style="fill:none;stroke:#000000;stroke-miterlimit:1;" x1="121.562" y1="143.771" x2="104.775" y2="143.442"/>
	<line style="fill:none;stroke:#000000;stroke-miterlimit:1;" x1="104.775" y1="143.442" x2="102.801" y2="142.126"/>
	<line style="fill:none;stroke:#000000;stroke-miterlimit:1;" x1="102.801" y1="142.126" x2="104.775" y2="121.39"/>
	<line style="fill:none;stroke:#000000;stroke-miterlimit:1;" x1="104.775" y1="121.39" x2="116.953" y2="127.644"/>
	<line style="fill:none;stroke:#000000;stroke-miterlimit:1;" x1="116.953" y1="127.644" x2="123.865" y2="107.237"/>
	<line style="fill:none;stroke:#000000;stroke-miterlimit:1;" x1="123.865" y1="107.237" x2="137.031" y2="140.151"/>
	<line style="fill:none;stroke:#000000;stroke-miterlimit:1;" x1="137.031" y1="140.151" x2="141.64" y2="146.075"/>
	<line style="fill:none;stroke:#000000;stroke-miterlimit:1;" x1="141.64" y1="146.075" x2="146.247" y2="148.709"/>
	<line style="fill:none;stroke:#000000;stroke-miterlimit:1;" x1="146.247" y1="148.709" x2="153.159" y2="148.709"/>
	<line style="fill:none;stroke:#000000;stroke-miterlimit:1;" x1="153.159" y1="148.709" x2="157.109" y2="147.393"/>
	<line style="fill:none;stroke:#000000;stroke-miterlimit:1;" x1="157.109" y1="147.393" x2="158.097" y2="145.417"/>
	<line style="fill:none;stroke:#000000;stroke-miterlimit:1;" x1="158.097" y1="145.417" x2="154.805" y2="136.53"/>
	<line style="fill:none;stroke:#000000;stroke-miterlimit:1;" x1="73.178" y1="69.714" x2="77.457" y2="93.742"/>
	<line style="fill:none;stroke:#000000;stroke-miterlimit:1;" x1="77.457" y1="93.742" x2="77.127" y2="112.174"/>
	<line style="fill:none;stroke:#000000;stroke-miterlimit:1;" x1="77.127" y1="112.174" x2="73.836" y2="130.936"/>
	<line style="fill:none;stroke:#000000;stroke-miterlimit:1;" x1="73.836" y1="130.936" x2="70.874" y2="140.48"/>
	<line style="fill:none;stroke:#000000;stroke-miterlimit:1;" x1="70.874" y1="140.48" x2="68.898" y2="142.784"/>
	<line style="fill:none;stroke:#000000;stroke-miterlimit:1;" x1="68.898" y1="142.784" x2="53.1" y2="143.771"/>
	<line style="fill:none;stroke:#000000;stroke-miterlimit:1;" x1="53.1" y1="143.771" x2="51.454" y2="146.075"/>
	<line style="fill:none;stroke:#000000;stroke-miterlimit:1;" x1="51.454" y1="146.075" x2="47.833" y2="146.405"/>
	<line style="fill:none;stroke:#000000;stroke-miterlimit:1;" x1="47.833" y1="146.405" x2="46.517" y2="147.393"/>
	<line style="fill:none;stroke:#000000;stroke-miterlimit:1;" x1="46.517" y1="147.393" x2="47.833" y2="148.709"/>
	<line style="fill:none;stroke:#000000;stroke-miterlimit:1;" x1="47.833" y1="148.709" x2="60.012" y2="147.722"/>
	<line style="fill:none;stroke:#000000;stroke-miterlimit:1;" x1="60.012" y1="147.722" x2="63.632" y2="148.051"/>
	<line style="fill:none;stroke:#000000;stroke-miterlimit:1;" x1="75.481" y1="144.101" x2="69.886" y2="144.759"/>
	<line style="fill:none;stroke:#000000;stroke-miterlimit:1;" x1="69.886" y1="144.759" x2="69.886" y2="144.759"/>
	<line style="fill:none;stroke:#000000;stroke-miterlimit:1;" x1="69.886" y1="144.759" x2="66.595" y2="145.417"/>
	<line style="fill:none;stroke:#000000;stroke-miterlimit:1;" x1="66.595" y1="145.417" x2="64.62" y2="148.051"/>
	<line style="fill:none;stroke:#000000;stroke-miterlimit:1;" x1="64.62" y1="148.051" x2="65.937" y2="148.709"/>
	<line style="fill:none;stroke:#000000;stroke-miterlimit:1;" x1="65.937" y1="148.709" x2="67.911" y2="146.734"/>
	<line style="fill:none;stroke:#000000;stroke-miterlimit:1;" x1="67.911" y1="146.734" x2="69.886" y2="146.405"/>
	<line style="fill:none;stroke:#000000;stroke-miterlimit:1;" x1="75.152" y1="143.771" x2="82.394" y2="116.782"/>
	<line style="fill:none;stroke:#000000;stroke-miterlimit:1;" x1="82.394" y1="116.782" x2="93.584" y2="123.365"/>
	<line style="fill:none;stroke:#000000;stroke-miterlimit:1;" x1="93.584" y1="123.365" x2="95.889" y2="111.187"/>
	<line style="fill:none;stroke:#000000;stroke-miterlimit:1;" x1="52.112" y1="144.101" x2="46.846" y2="144.759"/>
	<line style="fill:none;stroke:#000000;stroke-miterlimit:1;" x1="46.846" y1="144.759" x2="46.846" y2="144.759"/>
	<line style="fill:none;stroke:#000000;stroke-miterlimit:1;" x1="46.846" y1="144.759" x2="43.555" y2="145.417"/>
	<line style="fill:none;stroke:#000000;stroke-miterlimit:1;" x1="43.555" y1="145.417" x2="41.58" y2="148.051"/>
	<line style="fill:none;stroke:#000000;stroke-miterlimit:1;" x1="41.58" y1="148.051" x2="42.567" y2="148.709"/>
	<line style="fill:none;stroke:#000000;stroke-miterlimit:1;" x1="42.567" y1="148.709" x2="44.871" y2="146.734"/>
	<line style="fill:none;stroke:#000000;stroke-miterlimit:1;" x1="44.871" y1="146.734" x2="47.504" y2="146.405"/>
	<line style="fill:none;stroke:#000000;stroke-miterlimit:1;" x1="122.22" y1="143.771" x2="128.474" y2="144.43"/>
	<line style="fill:none;stroke:#000000;stroke-miterlimit:1;" x1="128.474" y1="144.43" x2="131.436" y2="145.417"/>
	<line style="fill:none;stroke:#000000;stroke-miterlimit:1;" x1="131.436" y1="145.417" x2="133.41" y2="148.051"/>
	<line style="fill:none;stroke:#000000;stroke-miterlimit:1;" x1="133.41" y1="148.051" x2="132.423" y2="148.709"/>
	<line style="fill:none;stroke:#000000;stroke-miterlimit:1;" x1="132.423" y1="148.709" x2="130.119" y2="146.734"/>
	<line style="fill:none;stroke:#000000;stroke-miterlimit:1;" x1="130.119" y1="146.734" x2="128.474" y2="146.405"/>
	<line style="fill:none;stroke:#000000;stroke-miterlimit:1;" x1="57.923" y1="116.075" x2="0" y2="116.075"/>
	<line style="fill:none;stroke:#000000;stroke-miterlimit:1;" x1="0" y1="116.075" x2="0.736" y2="111.166"/>
	<line style="fill:none;stroke:#000000;stroke-miterlimit:1;" x1="0.736" y1="111.166" x2="1.473" y2="107.976"/>
	<line style="fill:none;stroke:#000000;stroke-miterlimit:1;" x1="1.473" y1="107.976" x2="2.7" y2="104.785"/>
	<line style="fill:none;stroke:#000000;stroke-miterlimit:1;" x1="2.7" y1="104.785" x2="4.418" y2="102.331"/>
	<line style="fill:none;stroke:#000000;stroke-miterlimit:1;" x1="4.418" y1="102.331" x2="5.891" y2="100.122"/>
	<line style="fill:none;stroke:#000000;stroke-miterlimit:1;" x1="5.891" y1="100.122" x2="7.854" y2="97.422"/>
	<line style="fill:none;stroke:#000000;stroke-miterlimit:1;" x1="7.854" y1="97.422" x2="10.063" y2="95.458"/>
	<line style="fill:none;stroke:#000000;stroke-miterlimit:1;" x1="10.063" y1="95.458" x2="12.763" y2="93.495"/>
	<line style="fill:none;stroke:#000000;stroke-miterlimit:1;" x1="12.763" y1="93.495" x2="14.972" y2="92.022"/>
	<line style="fill:none;stroke:#000000;stroke-miterlimit:1;" x1="14.972" y1="92.022" x2="18.162" y2="90.55"/>
	<line style="fill:none;stroke:#000000;stroke-miterlimit:1;" x1="18.162" y1="90.55" x2="21.353" y2="89.568"/>
	<line style="fill:none;stroke:#000000;stroke-miterlimit:1;" x1="21.353" y1="89.568" x2="23.562" y2="89.077"/>
	<line style="fill:none;stroke:#000000;stroke-miterlimit:1;" x1="23.562" y1="89.077" x2="27.489" y2="88.586"/>
	<line style="fill:none;stroke:#000000;stroke-miterlimit:1;" x1="27.489" y1="88.586" x2="30.434" y2="88.586"/>
	<line style="fill:none;stroke:#000000;stroke-miterlimit:1;" x1="30.434" y1="88.586" x2="33.134" y2="89.077"/>
	<line style="fill:none;stroke:#000000;stroke-miterlimit:1;" x1="33.134" y1="89.077" x2="36.079" y2="89.568"/>
	<line style="fill:none;stroke:#000000;stroke-miterlimit:1;" x1="36.079" y1="89.568" x2="39.27" y2="90.305"/>
	<line style="fill:none;stroke:#000000;stroke-miterlimit:1;" x1="39.27" y1="90.305" x2="41.479" y2="91.041"/>
	<line style="fill:none;stroke:#000000;stroke-miterlimit:1;" x1="41.479" y1="91.041" x2="44.424" y2="93.004"/>
	<line style="fill:none;stroke:#000000;stroke-miterlimit:1;" x1="44.424" y1="93.004" x2="46.878" y2="94.723"/>
	<line style="fill:none;stroke:#000000;stroke-miterlimit:1;" x1="46.878" y1="94.723" x2="49.087" y2="96.44"/>
	<line style="fill:none;stroke:#000000;stroke-miterlimit:1;" x1="49.087" y1="96.44" x2="51.051" y2="98.895"/>
	<line style="fill:none;stroke:#000000;stroke-miterlimit:1;" x1="51.051" y1="98.895" x2="53.014" y2="101.595"/>
	<line style="fill:none;stroke:#000000;stroke-miterlimit:1;" x1="53.014" y1="101.595" x2="54.732" y2="104.294"/>
	<line style="fill:none;stroke:#000000;stroke-miterlimit:1;" x1="54.732" y1="104.294" x2="55.959" y2="106.748"/>
	<line style="fill:none;stroke:#000000;stroke-miterlimit:1;" x1="55.959" y1="106.748" x2="56.941" y2="110.43"/>
	<line style="fill:none;stroke:#000000;stroke-miterlimit:1;" x1="56.941" y1="110.43" x2="57.677" y2="113.13"/>
	<line style="fill:none;stroke:#000000;stroke-miterlimit:1;" x1="57.677" y1="113.13" x2="57.923" y2="116.075"/>
	<line style="fill:none;stroke:#000000;stroke-miterlimit:1;" x1="174.051" y1="13.453" x2="173.701" y2="12.754"/>
	<line style="fill:none;stroke:#000000;stroke-miterlimit:1;" x1="173.701" y1="12.754" x2="173.002" y2="11.531"/>
	<line style="fill:none;stroke:#000000;stroke-miterlimit:1;" x1="173.002" y1="11.531" x2="172.652" y2="10.832"/>
	<line style="fill:none;stroke:#000000;stroke-miterlimit:1;" x1="172.652" y1="10.832" x2="171.954" y2="9.784"/>
	<line style="fill:none;stroke:#000000;stroke-miterlimit:1;" x1="171.954" y1="9.784" x2="171.43" y2="8.91"/>
	<line style="fill:none;stroke:#000000;stroke-miterlimit:1;" x1="171.43" y1="8.91" x2="170.382" y2="7.862"/>
	<line style="fill:none;stroke:#000000;stroke-miterlimit:1;" x1="170.382" y1="7.862" x2="170.032" y2="7.163"/>
	<line style="fill:none;stroke:#000000;stroke-miterlimit:1;" x1="170.032" y1="7.163" x2="168.983" y2="6.29"/>
	<line style="fill:none;stroke:#000000;stroke-miterlimit:1;" x1="168.983" y1="6.29" x2="168.11" y2="5.591"/>
	<line style="fill:none;stroke:#000000;stroke-miterlimit:1;" x1="168.11" y1="5.591" x2="167.062" y2="4.717"/>
	<line style="fill:none;stroke:#000000;stroke-miterlimit:1;" x1="167.062" y1="4.717" x2="166.363" y2="4.193"/>
	<line style="fill:none;stroke:#000000;stroke-miterlimit:1;" x1="166.363" y1="4.193" x2="165.314" y2="3.319"/>
	<line style="fill:none;stroke:#000000;stroke-miterlimit:1;" x1="165.314" y1="3.319" x2="164.441" y2="2.795"/>
	<line style="fill:none;stroke:#000000;stroke-miterlimit:1;" x1="164.441" y1="2.795" x2="163.219" y2="2.271"/>
	<line style="fill:none;stroke:#000000;stroke-miterlimit:1;" x1="163.219" y1="2.271" x2="162.52" y2="1.747"/>
	<line style="fill:none;stroke:#000000;stroke-miterlimit:1;" x1="162.52" y1="1.747" x2="161.297" y2="1.397"/>
	<line style="fill:none;stroke:#000000;stroke-miterlimit:1;" x1="161.297" y1="1.397" x2="160.248" y2="1.048"/>
	<line style="fill:none;stroke:#000000;stroke-miterlimit:1;" x1="160.248" y1="1.048" x2="158.851" y2="0.699"/>
	<line style="fill:none;stroke:#000000;stroke-miterlimit:1;" x1="158.851" y1="0.699" x2="158.151" y2="0.35"/>
	<line style="fill:none;stroke:#000000;stroke-miterlimit:1;" x1="158.151" y1="0.35" x2="156.754" y2="0.175"/>
	<line style="fill:none;stroke:#000000;stroke-miterlimit:1;" x1="156.754" y1="0.175" x2="155.706" y2="0"/>
	<line style="fill:none;stroke:#000000;stroke-miterlimit:1;" x1="155.706" y1="0" x2="154.483" y2="0"/>
	<line style="fill:none;stroke:#000000;stroke-miterlimit:1;" x1="154.483" y1="0" x2="153.435" y2="0"/>
	<line style="fill:none;stroke:#000000;stroke-miterlimit:1;" x1="153.435" y1="0" x2="152.387" y2="0.175"/>
	<line style="fill:none;stroke:#000000;stroke-miterlimit:1;" x1="152.387" y1="0.175" x2="151.513" y2="0.35"/>
	<line style="fill:none;stroke:#000000;stroke-miterlimit:1;" x1="151.513" y1="0.35" x2="150.465" y2="0.524"/>
	<line style="fill:none;stroke:#000000;stroke-miterlimit:1;" x1="150.465" y1="0.524" x2="149.591" y2="0.699"/>
	<line style="fill:none;stroke:#000000;stroke-miterlimit:1;" x1="149.591" y1="0.699" x2="148.543" y2="0.874"/>
	<line style="fill:none;stroke:#000000;stroke-miterlimit:1;" x1="148.543" y1="0.874" x2="147.669" y2="1.223"/>
	<line style="fill:none;stroke:#000000;stroke-miterlimit:1;" x1="147.669" y1="1.223" x2="146.097" y2="1.572"/>
	<line style="fill:none;stroke:#000000;stroke-miterlimit:1;" x1="146.097" y1="1.572" x2="145.224" y2="2.097"/>
	<line style="fill:none;stroke:#000000;stroke-miterlimit:1;" x1="145.224" y1="2.097" x2="144" y2="2.446"/>
	<line style="fill:none;stroke:#000000;stroke-miterlimit:1;" x1="144" y1="2.446" x2="143.127" y2="2.97"/>
	<line style="fill:none;stroke:#000000;stroke-miterlimit:1;" x1="143.127" y1="2.97" x2="142.079" y2="3.669"/>
	<line style="fill:none;stroke:#000000;stroke-miterlimit:1;" x1="142.079" y1="3.669" x2="141.205" y2="4.368"/>
	<line style="fill:none;stroke:#000000;stroke-miterlimit:1;" x1="141.205" y1="4.368" x2="140.332" y2="4.892"/>
	<line style="fill:none;stroke:#000000;stroke-miterlimit:1;" x1="140.332" y1="4.892" x2="139.458" y2="5.591"/>
	<line style="fill:none;stroke:#000000;stroke-miterlimit:1;" x1="139.458" y1="5.591" x2="138.41" y2="6.639"/>
	<line style="fill:none;stroke:#000000;stroke-miterlimit:1;" x1="138.41" y1="6.639" x2="137.536" y2="7.338"/>
	<line style="fill:none;stroke:#000000;stroke-miterlimit:1;" x1="137.536" y1="7.338" x2="137.012" y2="8.211"/>
	<line style="fill:none;stroke:#000000;stroke-miterlimit:1;" x1="137.012" y1="8.211" x2="136.488" y2="8.91"/>
	<line style="fill:none;stroke:#000000;stroke-miterlimit:1;" x1="136.488" y1="8.91" x2="135.614" y2="10.133"/>
	<line style="fill:none;stroke:#000000;stroke-miterlimit:1;" x1="135.614" y1="10.133" x2="135.265" y2="10.832"/>
	<line style="fill:none;stroke:#000000;stroke-miterlimit:1;" x1="135.265" y1="10.832" x2="134.392" y2="11.88"/>
	<line style="fill:none;stroke:#000000;stroke-miterlimit:1;" x1="134.392" y1="11.88" x2="133.867" y2="12.928"/>
	<line style="fill:none;stroke:#000000;stroke-miterlimit:1;" x1="133.867" y1="12.928" x2="133.518" y2="13.977"/>
	<line style="fill:none;stroke:#000000;stroke-miterlimit:1;" x1="133.518" y1="13.977" x2="133.344" y2="14.85"/>
	<line style="fill:none;stroke:#000000;stroke-miterlimit:1;" x1="133.344" y1="14.85" x2="132.819" y2="16.073"/>
	<line style="fill:none;stroke:#000000;stroke-miterlimit:1;" x1="132.819" y1="16.073" x2="132.47" y2="17.122"/>
	<line style="fill:none;stroke:#000000;stroke-miterlimit:1;" x1="132.47" y1="17.122" x2="132.295" y2="18.519"/>
	<line style="fill:none;stroke:#000000;stroke-miterlimit:1;" x1="132.295" y1="18.519" x2="132.295" y2="19.567"/>
	<line style="fill:none;stroke:#000000;stroke-miterlimit:1;" x1="132.295" y1="19.567" x2="132.12" y2="21.314"/>
	<line style="fill:none;stroke:#000000;stroke-miterlimit:1;" x1="132.12" y1="21.314" x2="132.12" y2="22.363"/>
	<line style="fill:none;stroke:#000000;stroke-miterlimit:1;" x1="132.12" y1="22.363" x2="132.12" y2="24.11"/>
	<line style="fill:none;stroke:#000000;stroke-miterlimit:1;" x1="132.12" y1="24.11" x2="132.295" y2="25.158"/>
	<line style="fill:none;stroke:#000000;stroke-miterlimit:1;" x1="132.295" y1="25.158" x2="132.645" y2="26.381"/>
	<line style="fill:none;stroke:#000000;stroke-miterlimit:1;" x1="132.645" y1="26.381" x2="132.819" y2="27.429"/>
	<line style="fill:none;stroke:#000000;stroke-miterlimit:1;" x1="132.819" y1="27.429" x2="133.169" y2="28.652"/>
	<line style="fill:none;stroke:#000000;stroke-miterlimit:1;" x1="133.169" y1="28.652" x2="133.518" y2="29.525"/>
	<line style="fill:none;stroke:#000000;stroke-miterlimit:1;" x1="133.518" y1="29.525" x2="134.217" y2="30.923"/>
	<line style="fill:none;stroke:#000000;stroke-miterlimit:1;" x1="134.217" y1="30.923" x2="134.566" y2="31.972"/>
	<line style="fill:none;stroke:#000000;stroke-miterlimit:1;" x1="134.566" y1="31.972" x2="135.439" y2="33.02"/>
	<line style="fill:none;stroke:#000000;stroke-miterlimit:1;" x1="135.439" y1="33.02" x2="135.789" y2="33.719"/>
	<line style="fill:none;stroke:#000000;stroke-miterlimit:1;" x1="135.789" y1="33.719" x2="136.488" y2="34.767"/>
	<line style="fill:none;stroke:#000000;stroke-miterlimit:1;" x1="136.488" y1="34.767" x2="137.187" y2="35.466"/>
	<line style="fill:none;stroke:#000000;stroke-miterlimit:1;" x1="137.187" y1="35.466" x2="138.061" y2="36.514"/>
	<line style="fill:none;stroke:#000000;stroke-miterlimit:1;" x1="138.061" y1="36.514" x2="138.759" y2="37.213"/>
	<line style="fill:none;stroke:#000000;stroke-miterlimit:1;" x1="138.759" y1="37.213" x2="139.633" y2="38.086"/>
	<line style="fill:none;stroke:#000000;stroke-miterlimit:1;" x1="139.633" y1="38.086" x2="140.681" y2="38.785"/>
	<line style="fill:none;stroke:#000000;stroke-miterlimit:1;" x1="140.681" y1="38.785" x2="141.904" y2="39.659"/>
	<line style="fill:none;stroke:#000000;stroke-miterlimit:1;" x1="141.904" y1="39.659" x2="142.428" y2="40.008"/>
	<line style="fill:none;stroke:#000000;stroke-miterlimit:1;" x1="142.428" y1="40.008" x2="143.302" y2="40.707"/>
	<line style="fill:none;stroke:#000000;stroke-miterlimit:1;" x1="143.302" y1="40.707" x2="144.35" y2="41.057"/>
	<line style="fill:none;stroke:#000000;stroke-miterlimit:1;" x1="144.35" y1="41.057" x2="145.748" y2="41.581"/>
	<line style="fill:none;stroke:#000000;stroke-miterlimit:1;" x1="145.748" y1="41.581" x2="146.796" y2="41.93"/>
	<line style="fill:none;stroke:#000000;stroke-miterlimit:1;" x1="146.796" y1="41.93" x2="148.019" y2="42.454"/>
	<line style="fill:none;stroke:#000000;stroke-miterlimit:1;" x1="148.019" y1="42.454" x2="148.718" y2="42.629"/>
	<line style="fill:none;stroke:#000000;stroke-miterlimit:1;" x1="148.718" y1="42.629" x2="149.94" y2="42.978"/>
	<line style="fill:none;stroke:#000000;stroke-miterlimit:1;" x1="149.94" y1="42.978" x2="150.989" y2="42.978"/>
	<line style="fill:none;stroke:#000000;stroke-miterlimit:1;" x1="150.989" y1="42.978" x2="152.387" y2="43.153"/>
	<line style="fill:none;stroke:#000000;stroke-miterlimit:1;" x1="152.387" y1="43.153" x2="153.085" y2="43.153"/>
	<line style="fill:none;stroke:#000000;stroke-miterlimit:1;" x1="153.085" y1="43.153" x2="154.657" y2="43.328"/>
	<line style="fill:none;stroke:#000000;stroke-miterlimit:1;" x1="154.657" y1="43.328" x2="155.706" y2="43.153"/>
	<line style="fill:none;stroke:#000000;stroke-miterlimit:1;" x1="155.706" y1="43.153" x2="157.278" y2="42.978"/>
	<line style="fill:none;stroke:#000000;stroke-miterlimit:1;" x1="157.278" y1="42.978" x2="157.978" y2="42.804"/>
	<line style="fill:none;stroke:#000000;stroke-miterlimit:1;" x1="157.978" y1="42.804" x2="159.55" y2="42.629"/>
	<line style="fill:none;stroke:#000000;stroke-miterlimit:1;" x1="159.55" y1="42.629" x2="160.423" y2="42.279"/>
	<line style="fill:none;stroke:#000000;stroke-miterlimit:1;" x1="160.423" y1="42.279" x2="161.82" y2="41.93"/>
	<line style="fill:none;stroke:#000000;stroke-miterlimit:1;" x1="161.82" y1="41.93" x2="162.694" y2="41.581"/>
	<line style="fill:none;stroke:#000000;stroke-miterlimit:1;" x1="162.694" y1="41.581" x2="163.567" y2="40.882"/>
	<line style="fill:none;stroke:#000000;stroke-miterlimit:1;" x1="163.567" y1="40.882" x2="164.616" y2="40.532"/>
	<line style="fill:none;stroke:#000000;stroke-miterlimit:1;" x1="164.616" y1="40.532" x2="165.664" y2="39.833"/>
	<line style="fill:none;stroke:#000000;stroke-miterlimit:1;" x1="165.664" y1="39.833" x2="166.538" y2="39.135"/>
	<line style="fill:none;stroke:#000000;stroke-miterlimit:1;" x1="166.538" y1="39.135" x2="167.411" y2="38.61"/>
	<line style="fill:none;stroke:#000000;stroke-miterlimit:1;" x1="167.411" y1="38.61" x2="168.285" y2="37.912"/>
	<line style="fill:none;stroke:#000000;stroke-miterlimit:1;" x1="168.285" y1="37.912" x2="169.158" y2="37.038"/>
	<line style="fill:none;stroke:#000000;stroke-miterlimit:1;" x1="169.158" y1="37.038" x2="169.857" y2="36.165"/>
	<line style="fill:none;stroke:#000000;stroke-miterlimit:1;" x1="169.857" y1="36.165" x2="170.73" y2="35.466"/>
	<line style="fill:none;stroke:#000000;stroke-miterlimit:1;" x1="170.73" y1="35.466" x2="171.255" y2="34.592"/>
	<line style="fill:none;stroke:#000000;stroke-miterlimit:1;" x1="171.255" y1="34.592" x2="172.129" y2="33.194"/>
	<line style="fill:none;stroke:#000000;stroke-miterlimit:1;" x1="172.129" y1="33.194" x2="172.652" y2="32.67"/>
	<line style="fill:none;stroke:#000000;stroke-miterlimit:1;" x1="172.652" y1="32.67" x2="173.352" y2="31.447"/>
	<line style="fill:none;stroke:#000000;stroke-miterlimit:1;" x1="173.352" y1="31.447" x2="173.701" y2="30.574"/>
	<line style="fill:none;stroke:#000000;stroke-miterlimit:1;" x1="173.701" y1="30.574" x2="174.225" y2="29.525"/>
	<line style="fill:none;stroke:#000000;stroke-miterlimit:1;" x1="174.225" y1="29.525" x2="174.574" y2="28.478"/>
	<line style="fill:none;stroke:#000000;stroke-miterlimit:1;" x1="174.574" y1="28.478" x2="174.924" y2="27.254"/>
	<line style="fill:none;stroke:#000000;stroke-miterlimit:1;" x1="174.924" y1="27.254" x2="175.273" y2="26.206"/>
	<line style="fill:none;stroke:#000000;stroke-miterlimit:1;" x1="175.273" y1="26.206" x2="175.448" y2="24.809"/>
	<line style="fill:none;stroke:#000000;stroke-miterlimit:1;" x1="175.448" y1="24.809" x2="175.623" y2="23.935"/>
	<line style="fill:none;stroke:#000000;stroke-miterlimit:1;" x1="175.623" y1="23.935" x2="175.797" y2="22.712"/>
	<line style="fill:none;stroke:#000000;stroke-miterlimit:1;" x1="175.797" y1="22.712" x2="175.797" y2="21.489"/>
	<line style="fill:none;stroke:#000000;stroke-miterlimit:1;" x1="175.797" y1="21.489" x2="175.797" y2="20.266"/>
	<line style="fill:none;stroke:#000000;stroke-miterlimit:1;" x1="175.797" y1="20.266" x2="175.623" y2="19.043"/>
	<line style="fill:none;stroke:#000000;stroke-miterlimit:1;" x1="175.623" y1="19.043" x2="175.448" y2="17.995"/>
	<line style="fill:none;stroke:#000000;stroke-miterlimit:1;" x1="175.448" y1="17.995" x2="175.099" y2="16.772"/>
	<line style="fill:none;stroke:#000000;stroke-miterlimit:1;" x1="175.099" y1="16.772" x2="174.749" y2="15.724"/>
	<line style="fill:none;stroke:#000000;stroke-miterlimit:1;" x1="174.749" y1="15.724" x2="174.399" y2="14.675"/>
	<line style="fill:none;stroke:#000000;stroke-miterlimit:1;" x1="174.399" y1="14.675" x2="174.051" y2="13.627"/>
</g>
</svg>
