<?xml version="1.0" encoding="iso-8859-1"?>
<!-- Generator: Adobe Illustrator 16.0.1, SVG Export Plug-In . SVG Version: 6.00 Build 0)  -->
<!DOCTYPE svg PUBLIC "-//W3C//DTD SVG 1.1//EN" "http://www.w3.org/Graphics/SVG/1.1/DTD/svg11.dtd">
<svg version="1.1" id="Ebene_1" xmlns="http://www.w3.org/2000/svg" xmlns:xlink="http://www.w3.org/1999/xlink" x="0px" y="0px"
	 width="162.678px" height="148.113px" viewBox="0 0 162.678 148.113" style="enable-background:new 0 0 162.678 148.113;"
	 xml:space="preserve">
<g>
	<line style="fill:none;stroke:#000000;stroke-miterlimit:1;" x1="162.678" y1="0.329" x2="161.033" y2="33.573"/>
	<line style="fill:none;stroke:#000000;stroke-miterlimit:1;" x1="161.033" y1="33.573" x2="160.375" y2="61.879"/>
	<line style="fill:none;stroke:#000000;stroke-miterlimit:1;" x1="160.375" y1="61.879" x2="159.717" y2="83.602"/>
	<line style="fill:none;stroke:#000000;stroke-miterlimit:1;" x1="159.717" y1="83.602" x2="158.07" y2="99.072"/>
	<line style="fill:none;stroke:#000000;stroke-miterlimit:1;" x1="158.07" y1="99.072" x2="156.754" y2="113.883"/>
	<line style="fill:none;stroke:#000000;stroke-miterlimit:1;" x1="156.754" y1="113.883" x2="157.412" y2="129.682"/>
	<line style="fill:none;stroke:#000000;stroke-miterlimit:1;" x1="157.412" y1="129.682" x2="158.4" y2="134.619"/>
	<line style="fill:none;stroke:#000000;stroke-miterlimit:1;" x1="158.4" y1="134.619" x2="159.059" y2="138.568"/>
	<line style="fill:none;stroke:#000000;stroke-miterlimit:1;" x1="159.059" y1="138.568" x2="158.729" y2="142.52"/>
	<line style="fill:none;stroke:#000000;stroke-miterlimit:1;" x1="158.729" y1="142.52" x2="156.754" y2="145.152"/>
	<line style="fill:none;stroke:#000000;stroke-miterlimit:1;" x1="156.754" y1="145.152" x2="153.791" y2="147.127"/>
	<line style="fill:none;stroke:#000000;stroke-miterlimit:1;" x1="153.791" y1="147.127" x2="150.172" y2="147.785"/>
	<line style="fill:none;stroke:#000000;stroke-miterlimit:1;" x1="150.172" y1="147.785" x2="143.588" y2="146.139"/>
	<line style="fill:none;stroke:#000000;stroke-miterlimit:1;" x1="143.588" y1="146.139" x2="140.955" y2="144.164"/>
	<line style="fill:none;stroke:#000000;stroke-miterlimit:1;" x1="140.955" y1="144.164" x2="136.676" y2="143.178"/>
	<line style="fill:none;stroke:#000000;stroke-miterlimit:1;" x1="136.676" y1="143.178" x2="126.803" y2="148.113"/>
	<line style="fill:none;stroke:#000000;stroke-miterlimit:1;" x1="126.803" y1="148.113" x2="85.988" y2="147.785"/>
	<line style="fill:none;stroke:#000000;stroke-miterlimit:1;" x1="85.988" y1="147.785" x2="84.342" y2="142.52"/>
	<line style="fill:none;stroke:#000000;stroke-miterlimit:1;" x1="84.342" y1="142.52" x2="85.66" y2="139.885"/>
	<line style="fill:none;stroke:#000000;stroke-miterlimit:1;" x1="85.66" y1="139.885" x2="89.279" y2="139.227"/>
	<line style="fill:none;stroke:#000000;stroke-miterlimit:1;" x1="89.279" y1="139.227" x2="103.434" y2="136.266"/>
	<line style="fill:none;stroke:#000000;stroke-miterlimit:1;" x1="103.434" y1="136.266" x2="115.281" y2="130.34"/>
	<line style="fill:none;stroke:#000000;stroke-miterlimit:1;" x1="115.281" y1="130.34" x2="123.182" y2="127.379"/>
	<line style="fill:none;stroke:#000000;stroke-miterlimit:1;" x1="123.182" y1="127.379" x2="130.094" y2="125.732"/>
	<line style="fill:none;stroke:#000000;stroke-miterlimit:1;" x1="130.094" y1="125.732" x2="135.031" y2="121.453"/>
	<line style="fill:none;stroke:#000000;stroke-miterlimit:1;" x1="135.031" y1="121.453" x2="136.676" y2="117.176"/>
	<line style="fill:none;stroke:#000000;stroke-miterlimit:1;" x1="136.676" y1="117.176" x2="137.006" y2="112.566"/>
	<line style="fill:none;stroke:#000000;stroke-miterlimit:1;" x1="137.006" y1="112.566" x2="136.348" y2="105.654"/>
	<line style="fill:none;stroke:#000000;stroke-miterlimit:1;" x1="136.348" y1="105.654" x2="136.018" y2="96.439"/>
	<line style="fill:none;stroke:#000000;stroke-miterlimit:1;" x1="136.018" y1="96.439" x2="135.359" y2="71.424"/>
	<line style="fill:none;stroke:#000000;stroke-miterlimit:1;" x1="135.359" y1="71.424" x2="135.031" y2="46.409"/>
	<line style="fill:none;stroke:#000000;stroke-miterlimit:1;" x1="135.031" y1="46.409" x2="132.398" y2="0"/>
	<line style="fill:none;stroke:#000000;stroke-miterlimit:1;" x1="132.398" y1="0" x2="162.678" y2="0"/>
	<line style="fill:none;stroke:#000000;stroke-miterlimit:1;" x1="33.572" y1="59.575" x2="33.572" y2="148.113"/>
	<line style="fill:none;stroke:#000000;stroke-miterlimit:1;" x1="33.572" y1="148.113" x2="40.484" y2="148.113"/>
	<line style="fill:none;stroke:#000000;stroke-miterlimit:1;" x1="40.484" y1="148.113" x2="40.484" y2="59.575"/>
	<line style="fill:none;stroke:#000000;stroke-miterlimit:1;" x1="0" y1="59.246" x2="74.057" y2="59.246"/>
	<line style="fill:none;stroke:#000000;stroke-miterlimit:1;" x1="74.057" y1="59.246" x2="74.057" y2="35.876"/>
	<line style="fill:none;stroke:#000000;stroke-miterlimit:1;" x1="74.057" y1="35.876" x2="72.74" y2="33.244"/>
	<line style="fill:none;stroke:#000000;stroke-miterlimit:1;" x1="72.74" y1="33.244" x2="71.424" y2="31.598"/>
	<line style="fill:none;stroke:#000000;stroke-miterlimit:1;" x1="71.424" y1="31.598" x2="69.778" y2="31.598"/>
	<line style="fill:none;stroke:#000000;stroke-miterlimit:1;" x1="69.778" y1="31.598" x2="68.132" y2="31.598"/>
	<line style="fill:none;stroke:#000000;stroke-miterlimit:1;" x1="68.132" y1="31.598" x2="66.158" y2="31.927"/>
	<line style="fill:none;stroke:#000000;stroke-miterlimit:1;" x1="66.158" y1="31.927" x2="64.183" y2="33.244"/>
	<line style="fill:none;stroke:#000000;stroke-miterlimit:1;" x1="64.183" y1="33.244" x2="57.6" y2="39.168"/>
	<line style="fill:none;stroke:#000000;stroke-miterlimit:1;" x1="57.6" y1="39.168" x2="51.675" y2="44.434"/>
	<line style="fill:none;stroke:#000000;stroke-miterlimit:1;" x1="51.675" y1="44.434" x2="47.067" y2="46.738"/>
	<line style="fill:none;stroke:#000000;stroke-miterlimit:1;" x1="47.067" y1="46.738" x2="41.472" y2="48.055"/>
	<line style="fill:none;stroke:#000000;stroke-miterlimit:1;" x1="41.472" y1="48.055" x2="36.864" y2="48.384"/>
	<line style="fill:none;stroke:#000000;stroke-miterlimit:1;" x1="36.864" y1="48.384" x2="32.585" y2="48.055"/>
	<line style="fill:none;stroke:#000000;stroke-miterlimit:1;" x1="32.585" y1="48.055" x2="26.99" y2="46.738"/>
	<line style="fill:none;stroke:#000000;stroke-miterlimit:1;" x1="26.99" y1="46.738" x2="22.381" y2="44.434"/>
	<line style="fill:none;stroke:#000000;stroke-miterlimit:1;" x1="22.381" y1="44.434" x2="16.457" y2="39.168"/>
	<line style="fill:none;stroke:#000000;stroke-miterlimit:1;" x1="16.457" y1="39.168" x2="9.874" y2="33.244"/>
	<line style="fill:none;stroke:#000000;stroke-miterlimit:1;" x1="9.874" y1="33.244" x2="7.899" y2="31.927"/>
	<line style="fill:none;stroke:#000000;stroke-miterlimit:1;" x1="7.899" y1="31.927" x2="5.924" y2="31.598"/>
	<line style="fill:none;stroke:#000000;stroke-miterlimit:1;" x1="5.924" y1="31.598" x2="4.279" y2="31.598"/>
	<line style="fill:none;stroke:#000000;stroke-miterlimit:1;" x1="4.279" y1="31.598" x2="2.633" y2="31.598"/>
	<line style="fill:none;stroke:#000000;stroke-miterlimit:1;" x1="2.633" y1="31.598" x2="1.316" y2="33.244"/>
	<line style="fill:none;stroke:#000000;stroke-miterlimit:1;" x1="1.316" y1="33.244" x2="0" y2="35.876"/>
	<line style="fill:none;stroke:#000000;stroke-miterlimit:1;" x1="0" y1="35.876" x2="0" y2="59.246"/>
	<line style="fill:none;stroke:#000000;stroke-miterlimit:1;" x1="50.688" y1="44.434" x2="44.763" y2="5.595"/>
	<line style="fill:none;stroke:#000000;stroke-miterlimit:1;" x1="44.763" y1="5.595" x2="42.13" y2="2.304"/>
	<line style="fill:none;stroke:#000000;stroke-miterlimit:1;" x1="42.13" y1="2.304" x2="40.155" y2="0.987"/>
	<line style="fill:none;stroke:#000000;stroke-miterlimit:1;" x1="40.155" y1="0.987" x2="37.522" y2="0"/>
	<line style="fill:none;stroke:#000000;stroke-miterlimit:1;" x1="37.522" y1="0" x2="36.535" y2="0"/>
	<line style="fill:none;stroke:#000000;stroke-miterlimit:1;" x1="36.535" y1="0" x2="33.901" y2="0.987"/>
	<line style="fill:none;stroke:#000000;stroke-miterlimit:1;" x1="33.901" y1="0.987" x2="31.927" y2="2.304"/>
	<line style="fill:none;stroke:#000000;stroke-miterlimit:1;" x1="31.927" y1="2.304" x2="29.293" y2="5.595"/>
	<line style="fill:none;stroke:#000000;stroke-miterlimit:1;" x1="29.293" y1="5.595" x2="23.369" y2="44.434"/>
</g>
</svg>
