<?xml version="1.0" encoding="iso-8859-1"?>
<!-- Generator: Adobe Illustrator 16.0.1, SVG Export Plug-In . SVG Version: 6.00 Build 0)  -->
<!DOCTYPE svg PUBLIC "-//W3C//DTD SVG 1.1//EN" "http://www.w3.org/Graphics/SVG/1.1/DTD/svg11.dtd">
<svg version="1.1" id="Ebene_1" xmlns="http://www.w3.org/2000/svg" xmlns:xlink="http://www.w3.org/1999/xlink" x="0px" y="0px"
	 width="159.306px" height="148.113px" viewBox="0 0 159.306 148.113" style="enable-background:new 0 0 159.306 148.113;"
	 xml:space="preserve">
<g>
	<line style="fill:none;stroke:#000000;stroke-miterlimit:1;" x1="33.573" y1="59.575" x2="33.573" y2="148.113"/>
	<line style="fill:none;stroke:#000000;stroke-miterlimit:1;" x1="33.573" y1="148.113" x2="40.485" y2="148.113"/>
	<line style="fill:none;stroke:#000000;stroke-miterlimit:1;" x1="40.485" y1="148.113" x2="40.485" y2="59.575"/>
	<line style="fill:none;stroke:#000000;stroke-miterlimit:1;" x1="0" y1="59.246" x2="74.058" y2="59.246"/>
	<line style="fill:none;stroke:#000000;stroke-miterlimit:1;" x1="74.058" y1="59.246" x2="74.058" y2="35.876"/>
	<line style="fill:none;stroke:#000000;stroke-miterlimit:1;" x1="74.058" y1="35.876" x2="72.741" y2="33.243"/>
	<line style="fill:none;stroke:#000000;stroke-miterlimit:1;" x1="72.741" y1="33.243" x2="71.424" y2="31.598"/>
	<line style="fill:none;stroke:#000000;stroke-miterlimit:1;" x1="71.424" y1="31.598" x2="69.778" y2="31.598"/>
	<line style="fill:none;stroke:#000000;stroke-miterlimit:1;" x1="69.778" y1="31.598" x2="68.133" y2="31.598"/>
	<line style="fill:none;stroke:#000000;stroke-miterlimit:1;" x1="68.133" y1="31.598" x2="66.158" y2="31.927"/>
	<line style="fill:none;stroke:#000000;stroke-miterlimit:1;" x1="66.158" y1="31.927" x2="64.183" y2="33.243"/>
	<line style="fill:none;stroke:#000000;stroke-miterlimit:1;" x1="64.183" y1="33.243" x2="57.6" y2="39.168"/>
	<line style="fill:none;stroke:#000000;stroke-miterlimit:1;" x1="57.6" y1="39.168" x2="51.676" y2="44.434"/>
	<line style="fill:none;stroke:#000000;stroke-miterlimit:1;" x1="51.676" y1="44.434" x2="47.067" y2="46.738"/>
	<line style="fill:none;stroke:#000000;stroke-miterlimit:1;" x1="47.067" y1="46.738" x2="41.472" y2="48.055"/>
	<line style="fill:none;stroke:#000000;stroke-miterlimit:1;" x1="41.472" y1="48.055" x2="36.864" y2="48.384"/>
	<line style="fill:none;stroke:#000000;stroke-miterlimit:1;" x1="36.864" y1="48.384" x2="32.585" y2="48.055"/>
	<line style="fill:none;stroke:#000000;stroke-miterlimit:1;" x1="32.585" y1="48.055" x2="26.99" y2="46.738"/>
	<line style="fill:none;stroke:#000000;stroke-miterlimit:1;" x1="26.99" y1="46.738" x2="22.382" y2="44.434"/>
	<line style="fill:none;stroke:#000000;stroke-miterlimit:1;" x1="22.382" y1="44.434" x2="16.458" y2="39.168"/>
	<line style="fill:none;stroke:#000000;stroke-miterlimit:1;" x1="16.458" y1="39.168" x2="9.875" y2="33.243"/>
	<line style="fill:none;stroke:#000000;stroke-miterlimit:1;" x1="9.875" y1="33.243" x2="7.899" y2="31.927"/>
	<line style="fill:none;stroke:#000000;stroke-miterlimit:1;" x1="7.899" y1="31.927" x2="5.925" y2="31.598"/>
	<line style="fill:none;stroke:#000000;stroke-miterlimit:1;" x1="5.925" y1="31.598" x2="4.279" y2="31.598"/>
	<line style="fill:none;stroke:#000000;stroke-miterlimit:1;" x1="4.279" y1="31.598" x2="2.633" y2="31.598"/>
	<line style="fill:none;stroke:#000000;stroke-miterlimit:1;" x1="2.633" y1="31.598" x2="1.317" y2="33.243"/>
	<line style="fill:none;stroke:#000000;stroke-miterlimit:1;" x1="1.317" y1="33.243" x2="0" y2="35.876"/>
	<line style="fill:none;stroke:#000000;stroke-miterlimit:1;" x1="0" y1="35.876" x2="0" y2="59.246"/>
	<line style="fill:none;stroke:#000000;stroke-miterlimit:1;" x1="50.688" y1="44.434" x2="44.764" y2="5.595"/>
	<line style="fill:none;stroke:#000000;stroke-miterlimit:1;" x1="44.764" y1="5.595" x2="42.13" y2="2.304"/>
	<line style="fill:none;stroke:#000000;stroke-miterlimit:1;" x1="42.13" y1="2.304" x2="40.156" y2="0.987"/>
	<line style="fill:none;stroke:#000000;stroke-miterlimit:1;" x1="40.156" y1="0.987" x2="37.522" y2="0"/>
	<line style="fill:none;stroke:#000000;stroke-miterlimit:1;" x1="37.522" y1="0" x2="36.535" y2="0"/>
	<line style="fill:none;stroke:#000000;stroke-miterlimit:1;" x1="36.535" y1="0" x2="33.902" y2="0.987"/>
	<line style="fill:none;stroke:#000000;stroke-miterlimit:1;" x1="33.902" y1="0.987" x2="31.927" y2="2.304"/>
	<line style="fill:none;stroke:#000000;stroke-miterlimit:1;" x1="31.927" y1="2.304" x2="29.294" y2="5.595"/>
	<line style="fill:none;stroke:#000000;stroke-miterlimit:1;" x1="29.294" y1="5.595" x2="23.369" y2="44.434"/>
	<line style="fill:none;stroke:#000000;stroke-miterlimit:1;" x1="98.743" y1="81.791" x2="110.263" y2="126.885"/>
	<line style="fill:none;stroke:#000000;stroke-miterlimit:1;" x1="110.263" y1="126.885" x2="147.785" y2="126.885"/>
	<line style="fill:none;stroke:#000000;stroke-miterlimit:1;" x1="147.785" y1="126.885" x2="159.306" y2="81.791"/>
	<line style="fill:none;stroke:#000000;stroke-miterlimit:1;" x1="159.306" y1="81.791" x2="98.743" y2="81.791"/>
	<line style="fill:none;stroke:#000000;stroke-miterlimit:1;" x1="136.924" y1="81.791" x2="136.266" y2="76.525"/>
	<line style="fill:none;stroke:#000000;stroke-miterlimit:1;" x1="136.266" y1="76.525" x2="134.29" y2="71.259"/>
	<line style="fill:none;stroke:#000000;stroke-miterlimit:1;" x1="134.29" y1="71.259" x2="130.67" y2="66.98"/>
	<line style="fill:none;stroke:#000000;stroke-miterlimit:1;" x1="130.67" y1="66.98" x2="126.72" y2="63.689"/>
	<line style="fill:none;stroke:#000000;stroke-miterlimit:1;" x1="126.72" y1="63.689" x2="122.112" y2="60.397"/>
	<line style="fill:none;stroke:#000000;stroke-miterlimit:1;" x1="122.112" y1="60.397" x2="119.479" y2="57.106"/>
	<line style="fill:none;stroke:#000000;stroke-miterlimit:1;" x1="119.479" y1="57.106" x2="118.162" y2="52.498"/>
	<line style="fill:none;stroke:#000000;stroke-miterlimit:1;" x1="118.162" y1="52.498" x2="119.15" y2="47.561"/>
	<line style="fill:none;stroke:#000000;stroke-miterlimit:1;" x1="119.15" y1="47.561" x2="118.821" y2="42.624"/>
	<line style="fill:none;stroke:#000000;stroke-miterlimit:1;" x1="118.821" y1="42.624" x2="117.175" y2="38.016"/>
	<line style="fill:none;stroke:#000000;stroke-miterlimit:1;" x1="117.175" y1="38.016" x2="114.213" y2="34.066"/>
	<line style="fill:none;stroke:#000000;stroke-miterlimit:1;" x1="114.213" y1="34.066" x2="110.592" y2="31.104"/>
	<line style="fill:none;stroke:#000000;stroke-miterlimit:1;" x1="110.592" y1="31.104" x2="106.643" y2="28.142"/>
	<line style="fill:none;stroke:#000000;stroke-miterlimit:1;" x1="106.643" y1="28.142" x2="103.351" y2="25.508"/>
	<line style="fill:none;stroke:#000000;stroke-miterlimit:1;" x1="103.351" y1="25.508" x2="101.376" y2="23.205"/>
	<line style="fill:none;stroke:#000000;stroke-miterlimit:1;" x1="101.376" y1="23.205" x2="101.376" y2="25.179"/>
	<line style="fill:none;stroke:#000000;stroke-miterlimit:1;" x1="101.376" y1="25.179" x2="102.692" y2="28.471"/>
	<line style="fill:none;stroke:#000000;stroke-miterlimit:1;" x1="102.692" y1="28.471" x2="105.655" y2="32.091"/>
	<line style="fill:none;stroke:#000000;stroke-miterlimit:1;" x1="105.655" y1="32.091" x2="108.617" y2="35.712"/>
	<line style="fill:none;stroke:#000000;stroke-miterlimit:1;" x1="108.617" y1="35.712" x2="110.592" y2="38.345"/>
	<line style="fill:none;stroke:#000000;stroke-miterlimit:1;" x1="110.592" y1="38.345" x2="111.58" y2="41.965"/>
	<line style="fill:none;stroke:#000000;stroke-miterlimit:1;" x1="111.58" y1="41.965" x2="111.909" y2="44.928"/>
	<line style="fill:none;stroke:#000000;stroke-miterlimit:1;" x1="111.909" y1="44.928" x2="111.251" y2="49.207"/>
	<line style="fill:none;stroke:#000000;stroke-miterlimit:1;" x1="111.251" y1="49.207" x2="110.263" y2="52.498"/>
	<line style="fill:none;stroke:#000000;stroke-miterlimit:1;" x1="110.263" y1="52.498" x2="110.263" y2="57.106"/>
	<line style="fill:none;stroke:#000000;stroke-miterlimit:1;" x1="110.263" y1="57.106" x2="111.58" y2="60.397"/>
	<line style="fill:none;stroke:#000000;stroke-miterlimit:1;" x1="111.58" y1="60.397" x2="114.871" y2="65.005"/>
	<line style="fill:none;stroke:#000000;stroke-miterlimit:1;" x1="114.871" y1="65.005" x2="118.491" y2="68.626"/>
	<line style="fill:none;stroke:#000000;stroke-miterlimit:1;" x1="118.491" y1="68.626" x2="121.783" y2="71.588"/>
	<line style="fill:none;stroke:#000000;stroke-miterlimit:1;" x1="121.783" y1="71.588" x2="123.429" y2="74.551"/>
	<line style="fill:none;stroke:#000000;stroke-miterlimit:1;" x1="123.429" y1="74.551" x2="123.758" y2="77.184"/>
	<line style="fill:none;stroke:#000000;stroke-miterlimit:1;" x1="123.758" y1="77.184" x2="123.758" y2="79.816"/>
	<line style="fill:none;stroke:#000000;stroke-miterlimit:1;" x1="123.758" y1="79.816" x2="123.1" y2="81.791"/>
</g>
</svg>
