<?xml version="1.0" encoding="iso-8859-1"?>
<!-- Generator: Adobe Illustrator 16.0.1, SVG Export Plug-In . SVG Version: 6.00 Build 0)  -->
<!DOCTYPE svg PUBLIC "-//W3C//DTD SVG 1.1//EN" "http://www.w3.org/Graphics/SVG/1.1/DTD/svg11.dtd">
<svg version="1.1" id="Ebene_1" xmlns="http://www.w3.org/2000/svg" xmlns:xlink="http://www.w3.org/1999/xlink" x="0px" y="0px"
	 width="148.114px" height="143.016px" viewBox="0 0 148.114 143.016" style="enable-background:new 0 0 148.114 143.016;"
	 xml:space="preserve">
<g>
	<line style="fill:none;stroke:#000000;stroke-miterlimit:1;" x1="104.862" y1="36.264" x2="110.302" y2="42.308"/>
	<line style="fill:none;stroke:#000000;stroke-miterlimit:1;" x1="110.302" y1="42.308" x2="113.021" y2="50.467"/>
	<line style="fill:none;stroke:#000000;stroke-miterlimit:1;" x1="113.021" y1="50.467" x2="114.835" y2="57.72"/>
	<line style="fill:none;stroke:#000000;stroke-miterlimit:1;" x1="114.835" y1="57.72" x2="116.346" y2="74.643"/>
	<line style="fill:none;stroke:#000000;stroke-miterlimit:1;" x1="116.346" y1="74.643" x2="115.741" y2="77.061"/>
	<line style="fill:none;stroke:#000000;stroke-miterlimit:1;" x1="115.741" y1="77.061" x2="114.835" y2="80.385"/>
	<line style="fill:none;stroke:#000000;stroke-miterlimit:1;" x1="114.835" y1="80.385" x2="115.439" y2="81.291"/>
	<line style="fill:none;stroke:#000000;stroke-miterlimit:1;" x1="115.439" y1="81.291" x2="116.648" y2="80.988"/>
	<line style="fill:none;stroke:#000000;stroke-miterlimit:1;" x1="116.648" y1="80.988" x2="118.159" y2="79.779"/>
	<line style="fill:none;stroke:#000000;stroke-miterlimit:1;" x1="118.159" y1="79.779" x2="119.368" y2="80.988"/>
	<line style="fill:none;stroke:#000000;stroke-miterlimit:1;" x1="119.368" y1="80.988" x2="121.182" y2="81.291"/>
	<line style="fill:none;stroke:#000000;stroke-miterlimit:1;" x1="121.182" y1="81.291" x2="122.994" y2="80.082"/>
	<line style="fill:none;stroke:#000000;stroke-miterlimit:1;" x1="122.994" y1="80.082" x2="124.505" y2="81.291"/>
	<line style="fill:none;stroke:#000000;stroke-miterlimit:1;" x1="124.505" y1="81.291" x2="127.225" y2="79.779"/>
	<line style="fill:none;stroke:#000000;stroke-miterlimit:1;" x1="127.225" y1="79.779" x2="128.132" y2="81.291"/>
	<line style="fill:none;stroke:#000000;stroke-miterlimit:1;" x1="128.132" y1="81.291" x2="129.945" y2="80.988"/>
	<line style="fill:none;stroke:#000000;stroke-miterlimit:1;" x1="129.945" y1="80.988" x2="130.852" y2="79.779"/>
	<line style="fill:none;stroke:#000000;stroke-miterlimit:1;" x1="130.852" y1="79.779" x2="129.945" y2="76.455"/>
	<line style="fill:none;stroke:#000000;stroke-miterlimit:1;" x1="129.945" y1="76.455" x2="128.736" y2="71.016"/>
	<line style="fill:none;stroke:#000000;stroke-miterlimit:1;" x1="128.736" y1="71.016" x2="129.341" y2="60.439"/>
	<line style="fill:none;stroke:#000000;stroke-miterlimit:1;" x1="129.341" y1="60.439" x2="129.038" y2="50.165"/>
	<line style="fill:none;stroke:#000000;stroke-miterlimit:1;" x1="129.038" y1="50.165" x2="130.247" y2="45.027"/>
	<line style="fill:none;stroke:#000000;stroke-miterlimit:1;" x1="130.247" y1="45.027" x2="132.665" y2="32.939"/>
	<line style="fill:none;stroke:#000000;stroke-miterlimit:1;" x1="132.665" y1="32.939" x2="131.758" y2="24.78"/>
	<line style="fill:none;stroke:#000000;stroke-miterlimit:1;" x1="131.758" y1="24.78" x2="126.621" y2="16.017"/>
	<line style="fill:none;stroke:#000000;stroke-miterlimit:1;" x1="126.621" y1="16.017" x2="134.478" y2="27.198"/>
	<line style="fill:none;stroke:#000000;stroke-miterlimit:1;" x1="134.478" y1="27.198" x2="138.406" y2="38.681"/>
	<line style="fill:none;stroke:#000000;stroke-miterlimit:1;" x1="138.406" y1="38.681" x2="140.22" y2="48.654"/>
	<line style="fill:none;stroke:#000000;stroke-miterlimit:1;" x1="140.22" y1="48.654" x2="140.824" y2="55.604"/>
	<line style="fill:none;stroke:#000000;stroke-miterlimit:1;" x1="140.824" y1="55.604" x2="140.22" y2="59.533"/>
	<line style="fill:none;stroke:#000000;stroke-miterlimit:1;" x1="140.22" y1="59.533" x2="140.824" y2="61.951"/>
	<line style="fill:none;stroke:#000000;stroke-miterlimit:1;" x1="140.824" y1="61.951" x2="142.939" y2="66.483"/>
	<line style="fill:none;stroke:#000000;stroke-miterlimit:1;" x1="142.939" y1="66.483" x2="144.45" y2="66.786"/>
	<line style="fill:none;stroke:#000000;stroke-miterlimit:1;" x1="144.45" y1="66.786" x2="144.45" y2="63.764"/>
	<line style="fill:none;stroke:#000000;stroke-miterlimit:1;" x1="144.45" y1="63.764" x2="142.939" y2="61.346"/>
	<line style="fill:none;stroke:#000000;stroke-miterlimit:1;" x1="142.939" y1="61.346" x2="143.544" y2="58.022"/>
	<line style="fill:none;stroke:#000000;stroke-miterlimit:1;" x1="143.544" y1="58.022" x2="142.335" y2="55"/>
	<line style="fill:none;stroke:#000000;stroke-miterlimit:1;" x1="142.335" y1="55" x2="141.126" y2="45.027"/>
	<line style="fill:none;stroke:#000000;stroke-miterlimit:1;" x1="141.126" y1="45.027" x2="140.22" y2="38.379"/>
	<line style="fill:none;stroke:#000000;stroke-miterlimit:1;" x1="140.22" y1="38.379" x2="138.406" y2="31.731"/>
	<line style="fill:none;stroke:#000000;stroke-miterlimit:1;" x1="138.406" y1="31.731" x2="134.78" y2="22.363"/>
	<line style="fill:none;stroke:#000000;stroke-miterlimit:1;" x1="134.78" y1="22.363" x2="129.038" y2="14.808"/>
	<line style="fill:none;stroke:#000000;stroke-miterlimit:1;" x1="129.038" y1="14.808" x2="120.879" y2="7.857"/>
	<line style="fill:none;stroke:#000000;stroke-miterlimit:1;" x1="120.879" y1="7.857" x2="113.929" y2="4.835"/>
	<line style="fill:none;stroke:#000000;stroke-miterlimit:1;" x1="113.929" y1="4.835" x2="104.862" y2="3.022"/>
	<line style="fill:none;stroke:#000000;stroke-miterlimit:1;" x1="104.862" y1="3.022" x2="97.006" y2="3.022"/>
	<line style="fill:none;stroke:#000000;stroke-miterlimit:1;" x1="97.006" y1="3.022" x2="81.594" y2="4.231"/>
	<line style="fill:none;stroke:#000000;stroke-miterlimit:1;" x1="81.594" y1="4.231" x2="60.439" y2="4.231"/>
	<line style="fill:none;stroke:#000000;stroke-miterlimit:1;" x1="47.445" y1="24.176" x2="50.165" y2="26.593"/>
	<line style="fill:none;stroke:#000000;stroke-miterlimit:1;" x1="50.165" y1="26.593" x2="51.071" y2="30.522"/>
	<line style="fill:none;stroke:#000000;stroke-miterlimit:1;" x1="51.071" y1="30.522" x2="51.374" y2="34.451"/>
	<line style="fill:none;stroke:#000000;stroke-miterlimit:1;" x1="51.374" y1="34.451" x2="52.885" y2="37.775"/>
	<line style="fill:none;stroke:#000000;stroke-miterlimit:1;" x1="52.885" y1="37.775" x2="54.698" y2="38.077"/>
	<line style="fill:none;stroke:#000000;stroke-miterlimit:1;" x1="54.698" y1="38.077" x2="56.209" y2="36.566"/>
	<line style="fill:none;stroke:#000000;stroke-miterlimit:1;" x1="56.209" y1="36.566" x2="58.626" y2="36.868"/>
	<line style="fill:none;stroke:#000000;stroke-miterlimit:1;" x1="58.626" y1="36.868" x2="59.835" y2="36.566"/>
	<line style="fill:none;stroke:#000000;stroke-miterlimit:1;" x1="59.835" y1="36.566" x2="60.137" y2="34.148"/>
	<line style="fill:none;stroke:#000000;stroke-miterlimit:1;" x1="60.137" y1="34.148" x2="62.555" y2="32.939"/>
	<line style="fill:none;stroke:#000000;stroke-miterlimit:1;" x1="62.555" y1="32.939" x2="62.857" y2="30.522"/>
	<line style="fill:none;stroke:#000000;stroke-miterlimit:1;" x1="62.857" y1="30.522" x2="62.253" y2="28.709"/>
	<line style="fill:none;stroke:#000000;stroke-miterlimit:1;" x1="62.253" y1="28.709" x2="64.67" y2="27.198"/>
	<line style="fill:none;stroke:#000000;stroke-miterlimit:1;" x1="64.67" y1="27.198" x2="63.159" y2="24.478"/>
	<line style="fill:none;stroke:#000000;stroke-miterlimit:1;" x1="63.159" y1="24.478" x2="64.973" y2="22.363"/>
	<line style="fill:none;stroke:#000000;stroke-miterlimit:1;" x1="64.973" y1="22.363" x2="62.857" y2="20.247"/>
	<line style="fill:none;stroke:#000000;stroke-miterlimit:1;" x1="62.857" y1="20.247" x2="64.368" y2="17.83"/>
	<line style="fill:none;stroke:#000000;stroke-miterlimit:1;" x1="64.368" y1="17.83" x2="63.159" y2="15.11"/>
	<line style="fill:none;stroke:#000000;stroke-miterlimit:1;" x1="63.159" y1="15.11" x2="64.066" y2="12.39"/>
	<line style="fill:none;stroke:#000000;stroke-miterlimit:1;" x1="64.066" y1="12.39" x2="62.253" y2="9.67"/>
	<line style="fill:none;stroke:#000000;stroke-miterlimit:1;" x1="62.253" y1="9.67" x2="62.857" y2="6.951"/>
	<line style="fill:none;stroke:#000000;stroke-miterlimit:1;" x1="62.857" y1="6.951" x2="60.439" y2="4.835"/>
	<line style="fill:none;stroke:#000000;stroke-miterlimit:1;" x1="60.439" y1="4.835" x2="59.835" y2="2.115"/>
	<line style="fill:none;stroke:#000000;stroke-miterlimit:1;" x1="59.835" y1="2.115" x2="57.417" y2="1.813"/>
	<line style="fill:none;stroke:#000000;stroke-miterlimit:1;" x1="57.417" y1="1.813" x2="54.698" y2="0"/>
	<line style="fill:none;stroke:#000000;stroke-miterlimit:1;" x1="54.698" y1="0" x2="52.28" y2="1.209"/>
	<line style="fill:none;stroke:#000000;stroke-miterlimit:1;" x1="52.28" y1="1.209" x2="51.374" y2="4.231"/>
	<line style="fill:none;stroke:#000000;stroke-miterlimit:1;" x1="51.374" y1="4.231" x2="49.258" y2="11.483"/>
	<line style="fill:none;stroke:#000000;stroke-miterlimit:1;" x1="49.258" y1="11.483" x2="45.934" y2="15.11"/>
	<line style="fill:none;stroke:#000000;stroke-miterlimit:1;" x1="45.934" y1="15.11" x2="45.027" y2="18.434"/>
	<line style="fill:none;stroke:#000000;stroke-miterlimit:1;" x1="50.769" y1="4.231" x2="45.934" y2="5.137"/>
	<line style="fill:none;stroke:#000000;stroke-miterlimit:1;" x1="45.934" y1="5.137" x2="42.61" y2="6.648"/>
	<line style="fill:none;stroke:#000000;stroke-miterlimit:1;" x1="42.61" y1="6.648" x2="39.286" y2="8.461"/>
	<line style="fill:none;stroke:#000000;stroke-miterlimit:1;" x1="39.286" y1="8.461" x2="35.659" y2="12.39"/>
	<line style="fill:none;stroke:#000000;stroke-miterlimit:1;" x1="35.659" y1="12.39" x2="33.242" y2="16.621"/>
	<line style="fill:none;stroke:#000000;stroke-miterlimit:1;" x1="33.242" y1="16.621" x2="31.429" y2="20.549"/>
	<line style="fill:none;stroke:#000000;stroke-miterlimit:1;" x1="31.429" y1="20.549" x2="29.313" y2="31.429"/>
	<line style="fill:none;stroke:#000000;stroke-miterlimit:1;" x1="29.313" y1="31.429" x2="26.896" y2="38.681"/>
	<line style="fill:none;stroke:#000000;stroke-miterlimit:1;" x1="43.517" y1="38.379" x2="37.775" y2="39.588"/>
	<line style="fill:none;stroke:#000000;stroke-miterlimit:1;" x1="37.775" y1="39.588" x2="30.824" y2="39.588"/>
	<line style="fill:none;stroke:#000000;stroke-miterlimit:1;" x1="30.824" y1="39.588" x2="26.594" y2="39.286"/>
	<line style="fill:none;stroke:#000000;stroke-miterlimit:1;" x1="26.594" y1="39.286" x2="21.456" y2="36.566"/>
	<line style="fill:none;stroke:#000000;stroke-miterlimit:1;" x1="21.456" y1="36.566" x2="13.297" y2="29.615"/>
	<line style="fill:none;stroke:#000000;stroke-miterlimit:1;" x1="13.297" y1="29.615" x2="12.692" y2="29.615"/>
	<line style="fill:none;stroke:#000000;stroke-miterlimit:1;" x1="12.692" y1="29.615" x2="13.901" y2="32.637"/>
	<line style="fill:none;stroke:#000000;stroke-miterlimit:1;" x1="13.901" y1="32.637" x2="17.83" y2="36.868"/>
	<line style="fill:none;stroke:#000000;stroke-miterlimit:1;" x1="17.83" y1="36.868" x2="23.571" y2="41.401"/>
	<line style="fill:none;stroke:#000000;stroke-miterlimit:1;" x1="23.571" y1="41.401" x2="29.615" y2="43.819"/>
	<line style="fill:none;stroke:#000000;stroke-miterlimit:1;" x1="29.615" y1="43.819" x2="34.451" y2="44.121"/>
	<line style="fill:none;stroke:#000000;stroke-miterlimit:1;" x1="34.451" y1="44.121" x2="40.192" y2="42.912"/>
	<line style="fill:none;stroke:#000000;stroke-miterlimit:1;" x1="25.385" y1="42.308" x2="22.363" y2="50.467"/>
	<line style="fill:none;stroke:#000000;stroke-miterlimit:1;" x1="22.363" y1="50.467" x2="18.736" y2="56.208"/>
	<line style="fill:none;stroke:#000000;stroke-miterlimit:1;" x1="18.736" y1="56.208" x2="17.226" y2="58.324"/>
	<line style="fill:none;stroke:#000000;stroke-miterlimit:1;" x1="17.226" y1="58.324" x2="15.11" y2="60.439"/>
	<line style="fill:none;stroke:#000000;stroke-miterlimit:1;" x1="15.11" y1="60.439" x2="10.275" y2="61.951"/>
	<line style="fill:none;stroke:#000000;stroke-miterlimit:1;" x1="10.275" y1="61.951" x2="5.742" y2="61.346"/>
	<line style="fill:none;stroke:#000000;stroke-miterlimit:1;" x1="5.742" y1="61.346" x2="2.72" y2="59.23"/>
	<line style="fill:none;stroke:#000000;stroke-miterlimit:1;" x1="2.72" y1="59.23" x2="1.813" y2="58.626"/>
	<line style="fill:none;stroke:#000000;stroke-miterlimit:1;" x1="1.813" y1="58.626" x2="0.302" y2="58.626"/>
	<line style="fill:none;stroke:#000000;stroke-miterlimit:1;" x1="0.302" y1="58.626" x2="0.302" y2="59.533"/>
	<line style="fill:none;stroke:#000000;stroke-miterlimit:1;" x1="0.302" y1="59.533" x2="1.209" y2="60.742"/>
	<line style="fill:none;stroke:#000000;stroke-miterlimit:1;" x1="1.209" y1="60.742" x2="0.302" y2="62.252"/>
	<line style="fill:none;stroke:#000000;stroke-miterlimit:1;" x1="0.302" y1="62.252" x2="0" y2="63.764"/>
	<line style="fill:none;stroke:#000000;stroke-miterlimit:1;" x1="0" y1="63.764" x2="2.116" y2="63.159"/>
	<line style="fill:none;stroke:#000000;stroke-miterlimit:1;" x1="2.116" y1="63.159" x2="5.742" y2="64.67"/>
	<line style="fill:none;stroke:#000000;stroke-miterlimit:1;" x1="5.742" y1="64.67" x2="11.484" y2="65.879"/>
	<line style="fill:none;stroke:#000000;stroke-miterlimit:1;" x1="11.484" y1="65.879" x2="18.434" y2="64.67"/>
	<line style="fill:none;stroke:#000000;stroke-miterlimit:1;" x1="18.434" y1="64.67" x2="22.363" y2="62.857"/>
	<line style="fill:none;stroke:#000000;stroke-miterlimit:1;" x1="22.363" y1="62.857" x2="25.989" y2="60.137"/>
	<line style="fill:none;stroke:#000000;stroke-miterlimit:1;" x1="25.989" y1="60.137" x2="32.335" y2="51.978"/>
	<line style="fill:none;stroke:#000000;stroke-miterlimit:1;" x1="32.335" y1="51.978" x2="38.379" y2="43.517"/>
	<line style="fill:none;stroke:#000000;stroke-miterlimit:1;" x1="41.401" y1="38.379" x2="42.61" y2="36.868"/>
	<line style="fill:none;stroke:#000000;stroke-miterlimit:1;" x1="42.61" y1="36.868" x2="43.214" y2="36.868"/>
	<line style="fill:none;stroke:#000000;stroke-miterlimit:1;" x1="43.214" y1="36.868" x2="43.819" y2="38.379"/>
	<line style="fill:none;stroke:#000000;stroke-miterlimit:1;" x1="43.819" y1="38.379" x2="39.89" y2="42.912"/>
	<line style="fill:none;stroke:#000000;stroke-miterlimit:1;" x1="39.89" y1="42.912" x2="38.682" y2="45.027"/>
	<line style="fill:none;stroke:#000000;stroke-miterlimit:1;" x1="38.682" y1="45.027" x2="39.286" y2="45.934"/>
	<line style="fill:none;stroke:#000000;stroke-miterlimit:1;" x1="39.286" y1="45.934" x2="43.214" y2="44.725"/>
	<line style="fill:none;stroke:#000000;stroke-miterlimit:1;" x1="43.214" y1="44.725" x2="45.934" y2="44.121"/>
	<line style="fill:none;stroke:#000000;stroke-miterlimit:1;" x1="45.934" y1="44.121" x2="48.956" y2="45.33"/>
	<line style="fill:none;stroke:#000000;stroke-miterlimit:1;" x1="48.956" y1="45.33" x2="53.489" y2="48.956"/>
	<line style="fill:none;stroke:#000000;stroke-miterlimit:1;" x1="52.28" y1="42.61" x2="53.791" y2="50.165"/>
	<line style="fill:none;stroke:#000000;stroke-miterlimit:1;" x1="53.791" y1="50.165" x2="56.209" y2="55.907"/>
	<line style="fill:none;stroke:#000000;stroke-miterlimit:1;" x1="56.209" y1="55.907" x2="56.813" y2="61.346"/>
	<line style="fill:none;stroke:#000000;stroke-miterlimit:1;" x1="56.813" y1="61.346" x2="57.417" y2="67.995"/>
	<line style="fill:none;stroke:#000000;stroke-miterlimit:1;" x1="57.417" y1="67.995" x2="58.626" y2="74.039"/>
	<line style="fill:none;stroke:#000000;stroke-miterlimit:1;" x1="58.626" y1="74.039" x2="58.324" y2="76.455"/>
	<line style="fill:none;stroke:#000000;stroke-miterlimit:1;" x1="58.324" y1="76.455" x2="56.813" y2="79.479"/>
	<line style="fill:none;stroke:#000000;stroke-miterlimit:1;" x1="56.813" y1="79.479" x2="56.813" y2="80.988"/>
	<line style="fill:none;stroke:#000000;stroke-miterlimit:1;" x1="56.813" y1="80.988" x2="58.022" y2="81.291"/>
	<line style="fill:none;stroke:#000000;stroke-miterlimit:1;" x1="58.022" y1="81.291" x2="59.533" y2="80.082"/>
	<line style="fill:none;stroke:#000000;stroke-miterlimit:1;" x1="59.533" y1="80.082" x2="61.346" y2="81.594"/>
	<line style="fill:none;stroke:#000000;stroke-miterlimit:1;" x1="61.346" y1="81.594" x2="62.253" y2="81.291"/>
	<line style="fill:none;stroke:#000000;stroke-miterlimit:1;" x1="62.253" y1="81.291" x2="64.066" y2="79.479"/>
	<line style="fill:none;stroke:#000000;stroke-miterlimit:1;" x1="64.066" y1="79.479" x2="66.483" y2="81.291"/>
	<line style="fill:none;stroke:#000000;stroke-miterlimit:1;" x1="66.483" y1="81.291" x2="68.297" y2="80.082"/>
	<line style="fill:none;stroke:#000000;stroke-miterlimit:1;" x1="68.297" y1="80.082" x2="70.714" y2="80.988"/>
	<line style="fill:none;stroke:#000000;stroke-miterlimit:1;" x1="70.714" y1="80.988" x2="71.621" y2="80.688"/>
	<line style="fill:none;stroke:#000000;stroke-miterlimit:1;" x1="71.621" y1="80.688" x2="71.923" y2="78.57"/>
	<line style="fill:none;stroke:#000000;stroke-miterlimit:1;" x1="71.923" y1="78.57" x2="70.412" y2="75.549"/>
	<line style="fill:none;stroke:#000000;stroke-miterlimit:1;" x1="70.412" y1="75.549" x2="69.505" y2="72.225"/>
	<line style="fill:none;stroke:#000000;stroke-miterlimit:1;" x1="69.505" y1="72.225" x2="69.808" y2="67.39"/>
	<line style="fill:none;stroke:#000000;stroke-miterlimit:1;" x1="69.808" y1="67.39" x2="69.505" y2="60.137"/>
	<line style="fill:none;stroke:#000000;stroke-miterlimit:1;" x1="69.505" y1="60.137" x2="71.017" y2="54.396"/>
	<line style="fill:none;stroke:#000000;stroke-miterlimit:1;" x1="71.017" y1="54.396" x2="70.11" y2="50.769"/>
	<line style="fill:none;stroke:#000000;stroke-miterlimit:1;" x1="70.11" y1="50.769" x2="72.225" y2="52.885"/>
	<line style="fill:none;stroke:#000000;stroke-miterlimit:1;" x1="72.225" y1="52.885" x2="73.736" y2="51.978"/>
	<line style="fill:none;stroke:#000000;stroke-miterlimit:1;" x1="73.736" y1="51.978" x2="74.341" y2="50.769"/>
	<line style="fill:none;stroke:#000000;stroke-miterlimit:1;" x1="74.341" y1="50.769" x2="71.923" y2="44.121"/>
	<line style="fill:none;stroke:#000000;stroke-miterlimit:1;" x1="74.643" y1="50.467" x2="94.588" y2="52.885"/>
	<line style="fill:none;stroke:#000000;stroke-miterlimit:1;" x1="94.588" y1="52.885" x2="103.956" y2="52.885"/>
	<line style="fill:none;stroke:#000000;stroke-miterlimit:1;" x1="103.956" y1="52.885" x2="113.626" y2="51.374"/>
	<line style="fill:none;stroke:#000000;stroke-miterlimit:1;" x1="38.379" y1="27.802" x2="38.682" y2="25.989"/>
	<line style="fill:none;stroke:#000000;stroke-miterlimit:1;" x1="38.682" y1="25.989" x2="38.682" y2="25.083"/>
	<line style="fill:none;stroke:#000000;stroke-miterlimit:1;" x1="38.682" y1="25.083" x2="38.983" y2="23.874"/>
	<line style="fill:none;stroke:#000000;stroke-miterlimit:1;" x1="38.983" y1="23.874" x2="40.797" y2="23.874"/>
	<line style="fill:none;stroke:#000000;stroke-miterlimit:1;" x1="40.797" y1="23.874" x2="42.005" y2="22.363"/>
	<line style="fill:none;stroke:#000000;stroke-miterlimit:1;" x1="40.797" y1="23.874" x2="41.099" y2="24.78"/>
	<line style="fill:none;stroke:#000000;stroke-miterlimit:1;" x1="41.099" y1="24.78" x2="40.495" y2="25.687"/>
	<line style="fill:none;stroke:#000000;stroke-miterlimit:1;" x1="40.495" y1="25.687" x2="39.588" y2="25.989"/>
	<line style="fill:none;stroke:#000000;stroke-miterlimit:1;" x1="39.588" y1="25.989" x2="38.682" y2="25.989"/>
	<line style="fill:none;stroke:#000000;stroke-miterlimit:1;" x1="41.401" y1="21.154" x2="40.495" y2="22.363"/>
	<line style="fill:none;stroke:#000000;stroke-miterlimit:1;" x1="40.495" y1="22.363" x2="38.379" y2="23.269"/>
	<line style="fill:none;stroke:#000000;stroke-miterlimit:1;" x1="38.379" y1="23.269" x2="37.473" y2="24.78"/>
	<line style="fill:none;stroke:#000000;stroke-miterlimit:1;" x1="37.473" y1="24.78" x2="37.473" y2="26.896"/>
	<line style="fill:none;stroke:#000000;stroke-miterlimit:1;" x1="50.165" y1="46.539" x2="45.33" y2="52.583"/>
	<line style="fill:none;stroke:#000000;stroke-miterlimit:1;" x1="45.33" y1="52.583" x2="40.192" y2="61.346"/>
	<line style="fill:none;stroke:#000000;stroke-miterlimit:1;" x1="40.192" y1="61.346" x2="35.961" y2="74.039"/>
	<line style="fill:none;stroke:#000000;stroke-miterlimit:1;" x1="35.961" y1="74.039" x2="33.846" y2="76.455"/>
	<line style="fill:none;stroke:#000000;stroke-miterlimit:1;" x1="33.846" y1="76.455" x2="32.033" y2="78.57"/>
	<line style="fill:none;stroke:#000000;stroke-miterlimit:1;" x1="32.033" y1="78.57" x2="31.429" y2="80.688"/>
	<line style="fill:none;stroke:#000000;stroke-miterlimit:1;" x1="31.429" y1="80.688" x2="32.335" y2="81.291"/>
	<line style="fill:none;stroke:#000000;stroke-miterlimit:1;" x1="32.335" y1="81.291" x2="34.148" y2="80.385"/>
	<line style="fill:none;stroke:#000000;stroke-miterlimit:1;" x1="34.148" y1="80.385" x2="36.868" y2="81.594"/>
	<line style="fill:none;stroke:#000000;stroke-miterlimit:1;" x1="36.868" y1="81.594" x2="39.286" y2="80.385"/>
	<line style="fill:none;stroke:#000000;stroke-miterlimit:1;" x1="39.286" y1="80.385" x2="41.099" y2="81.291"/>
	<line style="fill:none;stroke:#000000;stroke-miterlimit:1;" x1="41.099" y1="81.291" x2="43.819" y2="80.385"/>
	<line style="fill:none;stroke:#000000;stroke-miterlimit:1;" x1="43.819" y1="80.385" x2="45.027" y2="81.291"/>
	<line style="fill:none;stroke:#000000;stroke-miterlimit:1;" x1="45.027" y1="81.291" x2="46.539" y2="80.988"/>
	<line style="fill:none;stroke:#000000;stroke-miterlimit:1;" x1="46.539" y1="80.988" x2="47.747" y2="75.549"/>
	<line style="fill:none;stroke:#000000;stroke-miterlimit:1;" x1="47.747" y1="75.549" x2="48.956" y2="72.527"/>
	<line style="fill:none;stroke:#000000;stroke-miterlimit:1;" x1="48.956" y1="72.527" x2="51.374" y2="64.972"/>
	<line style="fill:none;stroke:#000000;stroke-miterlimit:1;" x1="51.374" y1="64.972" x2="56.209" y2="57.72"/>
	<line style="fill:none;stroke:#000000;stroke-miterlimit:1;" x1="97.609" y1="52.885" x2="94.588" y2="60.137"/>
	<line style="fill:none;stroke:#000000;stroke-miterlimit:1;" x1="94.588" y1="60.137" x2="92.774" y2="65.577"/>
	<line style="fill:none;stroke:#000000;stroke-miterlimit:1;" x1="92.774" y1="65.577" x2="90.962" y2="71.923"/>
	<line style="fill:none;stroke:#000000;stroke-miterlimit:1;" x1="90.962" y1="71.923" x2="89.148" y2="74.945"/>
	<line style="fill:none;stroke:#000000;stroke-miterlimit:1;" x1="89.148" y1="74.945" x2="86.429" y2="78.57"/>
	<line style="fill:none;stroke:#000000;stroke-miterlimit:1;" x1="86.429" y1="78.57" x2="86.126" y2="80.385"/>
	<line style="fill:none;stroke:#000000;stroke-miterlimit:1;" x1="86.126" y1="80.385" x2="87.335" y2="81.291"/>
	<line style="fill:none;stroke:#000000;stroke-miterlimit:1;" x1="87.335" y1="81.291" x2="89.45" y2="80.082"/>
	<line style="fill:none;stroke:#000000;stroke-miterlimit:1;" x1="89.45" y1="80.082" x2="90.962" y2="80.988"/>
	<line style="fill:none;stroke:#000000;stroke-miterlimit:1;" x1="90.962" y1="80.988" x2="94.285" y2="80.082"/>
	<line style="fill:none;stroke:#000000;stroke-miterlimit:1;" x1="94.285" y1="80.082" x2="95.797" y2="81.291"/>
	<line style="fill:none;stroke:#000000;stroke-miterlimit:1;" x1="95.797" y1="81.291" x2="98.517" y2="80.082"/>
	<line style="fill:none;stroke:#000000;stroke-miterlimit:1;" x1="98.517" y1="80.082" x2="100.329" y2="81.291"/>
	<line style="fill:none;stroke:#000000;stroke-miterlimit:1;" x1="100.329" y1="81.291" x2="102.143" y2="80.385"/>
	<line style="fill:none;stroke:#000000;stroke-miterlimit:1;" x1="102.143" y1="80.385" x2="102.747" y2="79.479"/>
	<line style="fill:none;stroke:#000000;stroke-miterlimit:1;" x1="102.747" y1="79.479" x2="102.143" y2="75.549"/>
	<line style="fill:none;stroke:#000000;stroke-miterlimit:1;" x1="102.143" y1="75.549" x2="103.049" y2="72.83"/>
	<line style="fill:none;stroke:#000000;stroke-miterlimit:1;" x1="103.049" y1="72.83" x2="112.72" y2="51.374"/>
	<line style="fill:none;stroke:#000000;stroke-miterlimit:1;" x1="0.944" y1="143.016" x2="0.944" y2="104.938"/>
	<line style="fill:none;stroke:#000000;stroke-miterlimit:1;" x1="0.944" y1="104.938" x2="2.758" y2="99.801"/>
	<line style="fill:none;stroke:#000000;stroke-miterlimit:1;" x1="2.758" y1="99.801" x2="5.175" y2="97.08"/>
	<line style="fill:none;stroke:#000000;stroke-miterlimit:1;" x1="5.175" y1="97.08" x2="9.406" y2="94.059"/>
	<line style="fill:none;stroke:#000000;stroke-miterlimit:1;" x1="9.406" y1="94.059" x2="12.73" y2="93.455"/>
	<line style="fill:none;stroke:#000000;stroke-miterlimit:1;" x1="12.73" y1="93.455" x2="16.054" y2="94.361"/>
	<line style="fill:none;stroke:#000000;stroke-miterlimit:1;" x1="16.054" y1="94.361" x2="18.472" y2="95.268"/>
	<line style="fill:none;stroke:#000000;stroke-miterlimit:1;" x1="18.472" y1="95.268" x2="21.494" y2="98.289"/>
	<line style="fill:none;stroke:#000000;stroke-miterlimit:1;" x1="21.494" y1="98.289" x2="25.725" y2="105.543"/>
	<line style="fill:none;stroke:#000000;stroke-miterlimit:1;" x1="25.725" y1="105.543" x2="29.956" y2="111.586"/>
	<line style="fill:none;stroke:#000000;stroke-miterlimit:1;" x1="29.956" y1="111.586" x2="34.488" y2="117.025"/>
	<line style="fill:none;stroke:#000000;stroke-miterlimit:1;" x1="34.488" y1="117.025" x2="38.417" y2="119.443"/>
	<line style="fill:none;stroke:#000000;stroke-miterlimit:1;" x1="38.417" y1="119.443" x2="42.95" y2="120.047"/>
	<line style="fill:none;stroke:#000000;stroke-miterlimit:1;" x1="42.95" y1="120.047" x2="47.483" y2="118.84"/>
	<line style="fill:none;stroke:#000000;stroke-miterlimit:1;" x1="47.483" y1="118.84" x2="50.505" y2="117.025"/>
	<line style="fill:none;stroke:#000000;stroke-miterlimit:1;" x1="50.505" y1="117.025" x2="53.527" y2="114.004"/>
	<line style="fill:none;stroke:#000000;stroke-miterlimit:1;" x1="53.527" y1="114.004" x2="60.478" y2="104.334"/>
	<line style="fill:none;stroke:#000000;stroke-miterlimit:1;" x1="60.478" y1="104.334" x2="63.802" y2="100.104"/>
	<line style="fill:none;stroke:#000000;stroke-miterlimit:1;" x1="63.802" y1="100.104" x2="66.823" y2="96.779"/>
	<line style="fill:none;stroke:#000000;stroke-miterlimit:1;" x1="66.823" y1="96.779" x2="69.846" y2="95.268"/>
	<line style="fill:none;stroke:#000000;stroke-miterlimit:1;" x1="69.846" y1="95.268" x2="72.565" y2="94.059"/>
	<line style="fill:none;stroke:#000000;stroke-miterlimit:1;" x1="72.565" y1="94.059" x2="75.285" y2="94.059"/>
	<line style="fill:none;stroke:#000000;stroke-miterlimit:1;" x1="75.285" y1="94.059" x2="77.702" y2="94.664"/>
	<line style="fill:none;stroke:#000000;stroke-miterlimit:1;" x1="77.702" y1="94.664" x2="81.631" y2="96.477"/>
	<line style="fill:none;stroke:#000000;stroke-miterlimit:1;" x1="81.631" y1="96.477" x2="86.164" y2="101.01"/>
	<line style="fill:none;stroke:#000000;stroke-miterlimit:1;" x1="86.164" y1="101.01" x2="90.395" y2="106.752"/>
	<line style="fill:none;stroke:#000000;stroke-miterlimit:1;" x1="90.395" y1="106.752" x2="94.928" y2="113.098"/>
	<line style="fill:none;stroke:#000000;stroke-miterlimit:1;" x1="94.928" y1="113.098" x2="98.252" y2="116.422"/>
	<line style="fill:none;stroke:#000000;stroke-miterlimit:1;" x1="98.252" y1="116.422" x2="101.273" y2="118.84"/>
	<line style="fill:none;stroke:#000000;stroke-miterlimit:1;" x1="101.273" y1="118.84" x2="104.598" y2="119.746"/>
	<line style="fill:none;stroke:#000000;stroke-miterlimit:1;" x1="104.598" y1="119.746" x2="106.714" y2="120.047"/>
	<line style="fill:none;stroke:#000000;stroke-miterlimit:1;" x1="106.714" y1="120.047" x2="110.944" y2="119.443"/>
	<line style="fill:none;stroke:#000000;stroke-miterlimit:1;" x1="110.944" y1="119.443" x2="114.57" y2="116.725"/>
	<line style="fill:none;stroke:#000000;stroke-miterlimit:1;" x1="114.57" y1="116.725" x2="116.988" y2="114.004"/>
	<line style="fill:none;stroke:#000000;stroke-miterlimit:1;" x1="116.988" y1="114.004" x2="119.708" y2="110.377"/>
	<line style="fill:none;stroke:#000000;stroke-miterlimit:1;" x1="119.708" y1="110.377" x2="121.823" y2="107.053"/>
	<line style="fill:none;stroke:#000000;stroke-miterlimit:1;" x1="121.823" y1="107.053" x2="127.867" y2="97.686"/>
	<line style="fill:none;stroke:#000000;stroke-miterlimit:1;" x1="127.867" y1="97.686" x2="130.89" y2="95.268"/>
	<line style="fill:none;stroke:#000000;stroke-miterlimit:1;" x1="130.89" y1="95.268" x2="134.516" y2="93.756"/>
	<line style="fill:none;stroke:#000000;stroke-miterlimit:1;" x1="134.516" y1="93.756" x2="139.351" y2="93.756"/>
	<line style="fill:none;stroke:#000000;stroke-miterlimit:1;" x1="139.351" y1="93.756" x2="142.675" y2="95.57"/>
	<line style="fill:none;stroke:#000000;stroke-miterlimit:1;" x1="142.675" y1="95.57" x2="145.395" y2="98.289"/>
	<line style="fill:none;stroke:#000000;stroke-miterlimit:1;" x1="145.395" y1="98.289" x2="148.114" y2="104.938"/>
	<line style="fill:none;stroke:#000000;stroke-miterlimit:1;" x1="148.114" y1="104.938" x2="148.114" y2="143.016"/>
	<line style="fill:none;stroke:#000000;stroke-miterlimit:1;" x1="148.114" y1="143.016" x2="0.944" y2="143.016"/>
</g>
</svg>
