<?xml version="1.0" encoding="iso-8859-1"?>
<!-- Generator: Adobe Illustrator 16.0.1, SVG Export Plug-In . SVG Version: 6.00 Build 0)  -->
<!DOCTYPE svg PUBLIC "-//W3C//DTD SVG 1.1//EN" "http://www.w3.org/Graphics/SVG/1.1/DTD/svg11.dtd">
<svg version="1.1" id="Ebene_1" xmlns="http://www.w3.org/2000/svg" xmlns:xlink="http://www.w3.org/1999/xlink" x="0px" y="0px"
	 width="344.242px" height="149.143px" viewBox="0 0 344.242 149.143" style="enable-background:new 0 0 344.242 149.143;"
	 xml:space="preserve">
<g>
	<line style="fill:none;stroke:#000000;stroke-miterlimit:1;" x1="182.057" y1="54.967" x2="182.057" y2="13.495"/>
	<line style="fill:none;stroke:#000000;stroke-miterlimit:1;" x1="182.057" y1="13.495" x2="184.031" y2="7.899"/>
	<line style="fill:none;stroke:#000000;stroke-miterlimit:1;" x1="184.031" y1="7.899" x2="186.666" y2="4.937"/>
	<line style="fill:none;stroke:#000000;stroke-miterlimit:1;" x1="186.666" y1="4.937" x2="191.273" y2="1.646"/>
	<line style="fill:none;stroke:#000000;stroke-miterlimit:1;" x1="191.273" y1="1.646" x2="194.895" y2="0.987"/>
	<line style="fill:none;stroke:#000000;stroke-miterlimit:1;" x1="194.895" y1="0.987" x2="198.514" y2="1.975"/>
	<line style="fill:none;stroke:#000000;stroke-miterlimit:1;" x1="198.514" y1="1.975" x2="201.148" y2="2.962"/>
	<line style="fill:none;stroke:#000000;stroke-miterlimit:1;" x1="201.148" y1="2.962" x2="204.439" y2="6.254"/>
	<line style="fill:none;stroke:#000000;stroke-miterlimit:1;" x1="204.439" y1="6.254" x2="209.047" y2="14.153"/>
	<line style="fill:none;stroke:#000000;stroke-miterlimit:1;" x1="209.047" y1="14.153" x2="213.654" y2="20.736"/>
	<line style="fill:none;stroke:#000000;stroke-miterlimit:1;" x1="213.654" y1="20.736" x2="218.592" y2="26.661"/>
	<line style="fill:none;stroke:#000000;stroke-miterlimit:1;" x1="218.592" y1="26.661" x2="222.871" y2="29.294"/>
	<line style="fill:none;stroke:#000000;stroke-miterlimit:1;" x1="222.871" y1="29.294" x2="227.809" y2="29.952"/>
	<line style="fill:none;stroke:#000000;stroke-miterlimit:1;" x1="227.809" y1="29.952" x2="232.746" y2="28.635"/>
	<line style="fill:none;stroke:#000000;stroke-miterlimit:1;" x1="232.746" y1="28.635" x2="236.037" y2="26.661"/>
	<line style="fill:none;stroke:#000000;stroke-miterlimit:1;" x1="236.037" y1="26.661" x2="239.328" y2="23.369"/>
	<line style="fill:none;stroke:#000000;stroke-miterlimit:1;" x1="239.328" y1="23.369" x2="246.898" y2="12.836"/>
	<line style="fill:none;stroke:#000000;stroke-miterlimit:1;" x1="246.898" y1="12.836" x2="250.52" y2="8.229"/>
	<line style="fill:none;stroke:#000000;stroke-miterlimit:1;" x1="250.52" y1="8.229" x2="253.811" y2="4.608"/>
	<line style="fill:none;stroke:#000000;stroke-miterlimit:1;" x1="253.811" y1="4.608" x2="257.102" y2="2.962"/>
	<line style="fill:none;stroke:#000000;stroke-miterlimit:1;" x1="257.102" y1="2.962" x2="260.064" y2="1.646"/>
	<line style="fill:none;stroke:#000000;stroke-miterlimit:1;" x1="260.064" y1="1.646" x2="263.027" y2="1.646"/>
	<line style="fill:none;stroke:#000000;stroke-miterlimit:1;" x1="263.027" y1="1.646" x2="265.66" y2="2.304"/>
	<line style="fill:none;stroke:#000000;stroke-miterlimit:1;" x1="265.66" y1="2.304" x2="269.938" y2="4.279"/>
	<line style="fill:none;stroke:#000000;stroke-miterlimit:1;" x1="269.938" y1="4.279" x2="274.875" y2="9.216"/>
	<line style="fill:none;stroke:#000000;stroke-miterlimit:1;" x1="274.875" y1="9.216" x2="279.484" y2="15.47"/>
	<line style="fill:none;stroke:#000000;stroke-miterlimit:1;" x1="279.484" y1="15.47" x2="284.42" y2="22.382"/>
	<line style="fill:none;stroke:#000000;stroke-miterlimit:1;" x1="284.42" y1="22.382" x2="288.041" y2="26.002"/>
	<line style="fill:none;stroke:#000000;stroke-miterlimit:1;" x1="288.041" y1="26.002" x2="291.332" y2="28.635"/>
	<line style="fill:none;stroke:#000000;stroke-miterlimit:1;" x1="291.332" y1="28.635" x2="294.953" y2="29.623"/>
	<line style="fill:none;stroke:#000000;stroke-miterlimit:1;" x1="294.953" y1="29.623" x2="297.258" y2="29.952"/>
	<line style="fill:none;stroke:#000000;stroke-miterlimit:1;" x1="297.258" y1="29.952" x2="301.865" y2="29.294"/>
	<line style="fill:none;stroke:#000000;stroke-miterlimit:1;" x1="301.865" y1="29.294" x2="305.814" y2="26.332"/>
	<line style="fill:none;stroke:#000000;stroke-miterlimit:1;" x1="305.814" y1="26.332" x2="308.447" y2="23.369"/>
	<line style="fill:none;stroke:#000000;stroke-miterlimit:1;" x1="308.447" y1="23.369" x2="311.41" y2="19.419"/>
	<line style="fill:none;stroke:#000000;stroke-miterlimit:1;" x1="311.41" y1="19.419" x2="313.715" y2="15.799"/>
	<line style="fill:none;stroke:#000000;stroke-miterlimit:1;" x1="313.715" y1="15.799" x2="320.297" y2="5.595"/>
	<line style="fill:none;stroke:#000000;stroke-miterlimit:1;" x1="320.297" y1="5.595" x2="323.588" y2="2.962"/>
	<line style="fill:none;stroke:#000000;stroke-miterlimit:1;" x1="323.588" y1="2.962" x2="327.539" y2="1.316"/>
	<line style="fill:none;stroke:#000000;stroke-miterlimit:1;" x1="327.539" y1="1.316" x2="332.805" y2="1.316"/>
	<line style="fill:none;stroke:#000000;stroke-miterlimit:1;" x1="332.805" y1="1.316" x2="336.426" y2="3.292"/>
	<line style="fill:none;stroke:#000000;stroke-miterlimit:1;" x1="336.426" y1="3.292" x2="339.387" y2="6.254"/>
	<line style="fill:none;stroke:#000000;stroke-miterlimit:1;" x1="339.387" y1="6.254" x2="342.35" y2="13.495"/>
	<line style="fill:none;stroke:#000000;stroke-miterlimit:1;" x1="342.35" y1="13.495" x2="342.35" y2="54.967"/>
	<line style="fill:none;stroke:#000000;stroke-miterlimit:1;" x1="342.35" y1="54.967" x2="182.057" y2="54.967"/>
	<line style="fill:none;stroke:#000000;stroke-miterlimit:1;" x1="258.707" y1="147.62" x2="181.029" y2="147.62"/>
	<line style="fill:none;stroke:#000000;stroke-miterlimit:1;" x1="181.029" y1="147.62" x2="182.016" y2="141.038"/>
	<line style="fill:none;stroke:#000000;stroke-miterlimit:1;" x1="182.016" y1="141.038" x2="183.004" y2="136.759"/>
	<line style="fill:none;stroke:#000000;stroke-miterlimit:1;" x1="183.004" y1="136.759" x2="184.648" y2="132.48"/>
	<line style="fill:none;stroke:#000000;stroke-miterlimit:1;" x1="184.648" y1="132.48" x2="186.953" y2="129.188"/>
	<line style="fill:none;stroke:#000000;stroke-miterlimit:1;" x1="186.953" y1="129.188" x2="188.928" y2="126.227"/>
	<line style="fill:none;stroke:#000000;stroke-miterlimit:1;" x1="188.928" y1="126.227" x2="191.561" y2="122.605"/>
	<line style="fill:none;stroke:#000000;stroke-miterlimit:1;" x1="191.561" y1="122.605" x2="194.523" y2="119.973"/>
	<line style="fill:none;stroke:#000000;stroke-miterlimit:1;" x1="194.523" y1="119.973" x2="198.145" y2="117.34"/>
	<line style="fill:none;stroke:#000000;stroke-miterlimit:1;" x1="198.145" y1="117.34" x2="201.105" y2="115.364"/>
	<line style="fill:none;stroke:#000000;stroke-miterlimit:1;" x1="201.105" y1="115.364" x2="205.385" y2="113.39"/>
	<line style="fill:none;stroke:#000000;stroke-miterlimit:1;" x1="205.385" y1="113.39" x2="209.664" y2="112.073"/>
	<line style="fill:none;stroke:#000000;stroke-miterlimit:1;" x1="209.664" y1="112.073" x2="212.627" y2="111.415"/>
	<line style="fill:none;stroke:#000000;stroke-miterlimit:1;" x1="212.627" y1="111.415" x2="217.893" y2="110.757"/>
	<line style="fill:none;stroke:#000000;stroke-miterlimit:1;" x1="217.893" y1="110.757" x2="221.842" y2="110.757"/>
	<line style="fill:none;stroke:#000000;stroke-miterlimit:1;" x1="221.842" y1="110.757" x2="225.463" y2="111.415"/>
	<line style="fill:none;stroke:#000000;stroke-miterlimit:1;" x1="225.463" y1="111.415" x2="229.412" y2="112.073"/>
	<line style="fill:none;stroke:#000000;stroke-miterlimit:1;" x1="229.412" y1="112.073" x2="233.691" y2="113.061"/>
	<line style="fill:none;stroke:#000000;stroke-miterlimit:1;" x1="233.691" y1="113.061" x2="236.654" y2="114.048"/>
	<line style="fill:none;stroke:#000000;stroke-miterlimit:1;" x1="236.654" y1="114.048" x2="240.604" y2="116.681"/>
	<line style="fill:none;stroke:#000000;stroke-miterlimit:1;" x1="240.604" y1="116.681" x2="243.895" y2="118.985"/>
	<line style="fill:none;stroke:#000000;stroke-miterlimit:1;" x1="243.895" y1="118.985" x2="246.857" y2="121.289"/>
	<line style="fill:none;stroke:#000000;stroke-miterlimit:1;" x1="246.857" y1="121.289" x2="249.49" y2="124.581"/>
	<line style="fill:none;stroke:#000000;stroke-miterlimit:1;" x1="249.49" y1="124.581" x2="252.123" y2="128.201"/>
	<line style="fill:none;stroke:#000000;stroke-miterlimit:1;" x1="252.123" y1="128.201" x2="254.428" y2="131.821"/>
	<line style="fill:none;stroke:#000000;stroke-miterlimit:1;" x1="254.428" y1="131.821" x2="256.072" y2="135.113"/>
	<line style="fill:none;stroke:#000000;stroke-miterlimit:1;" x1="256.072" y1="135.113" x2="257.391" y2="140.05"/>
	<line style="fill:none;stroke:#000000;stroke-miterlimit:1;" x1="257.391" y1="140.05" x2="258.377" y2="143.671"/>
	<line style="fill:none;stroke:#000000;stroke-miterlimit:1;" x1="258.377" y1="143.671" x2="258.707" y2="147.62"/>
	<line style="fill:none;stroke:#000000;stroke-miterlimit:1;" x1="285.654" y1="141.161" x2="308.037" y2="120.754"/>
	<line style="fill:none;stroke:#000000;stroke-miterlimit:1;" x1="308.037" y1="120.754" x2="329.102" y2="141.161"/>
	<line style="fill:none;stroke:#000000;stroke-miterlimit:1;" x1="337.66" y1="131.945" x2="317.91" y2="111.867"/>
	<line style="fill:none;stroke:#000000;stroke-miterlimit:1;" x1="317.91" y1="111.867" x2="338.977" y2="91.79"/>
	<line style="fill:none;stroke:#000000;stroke-miterlimit:1;" x1="329.76" y1="81.586" x2="308.695" y2="101.664"/>
	<line style="fill:none;stroke:#000000;stroke-miterlimit:1;" x1="308.695" y1="101.664" x2="287.629" y2="79.94"/>
	<line style="fill:none;stroke:#000000;stroke-miterlimit:1;" x1="278.414" y1="88.827" x2="298.82" y2="110.551"/>
	<line style="fill:none;stroke:#000000;stroke-miterlimit:1;" x1="298.82" y1="110.551" x2="277.098" y2="131.287"/>
	<line style="fill:none;stroke:#000000;stroke-miterlimit:1;" x1="304.746" y1="148.073" x2="313.961" y2="147.744"/>
	<line style="fill:none;stroke:#000000;stroke-miterlimit:1;" x1="313.961" y1="147.744" x2="319.227" y2="146.428"/>
	<line style="fill:none;stroke:#000000;stroke-miterlimit:1;" x1="319.227" y1="146.428" x2="323.836" y2="144.452"/>
	<line style="fill:none;stroke:#000000;stroke-miterlimit:1;" x1="323.836" y1="144.452" x2="329.102" y2="140.832"/>
	<line style="fill:none;stroke:#000000;stroke-miterlimit:1;" x1="329.102" y1="140.832" x2="333.051" y2="137.212"/>
	<line style="fill:none;stroke:#000000;stroke-miterlimit:1;" x1="333.051" y1="137.212" x2="337.002" y2="132.933"/>
	<line style="fill:none;stroke:#000000;stroke-miterlimit:1;" x1="337.002" y1="132.933" x2="339.635" y2="128.653"/>
	<line style="fill:none;stroke:#000000;stroke-miterlimit:1;" x1="339.635" y1="128.653" x2="342.268" y2="124.046"/>
	<line style="fill:none;stroke:#000000;stroke-miterlimit:1;" x1="342.268" y1="124.046" x2="343.584" y2="119.438"/>
	<line style="fill:none;stroke:#000000;stroke-miterlimit:1;" x1="343.584" y1="119.438" x2="344.242" y2="114.172"/>
	<line style="fill:none;stroke:#000000;stroke-miterlimit:1;" x1="344.242" y1="114.172" x2="344.242" y2="108.905"/>
	<line style="fill:none;stroke:#000000;stroke-miterlimit:1;" x1="344.242" y1="108.905" x2="342.598" y2="99.689"/>
	<line style="fill:none;stroke:#000000;stroke-miterlimit:1;" x1="342.598" y1="99.689" x2="340.621" y2="94.752"/>
	<line style="fill:none;stroke:#000000;stroke-miterlimit:1;" x1="340.621" y1="94.752" x2="337.66" y2="89.814"/>
	<line style="fill:none;stroke:#000000;stroke-miterlimit:1;" x1="337.66" y1="89.814" x2="334.367" y2="85.207"/>
	<line style="fill:none;stroke:#000000;stroke-miterlimit:1;" x1="334.367" y1="85.207" x2="329.432" y2="80.928"/>
	<line style="fill:none;stroke:#000000;stroke-miterlimit:1;" x1="329.432" y1="80.928" x2="325.48" y2="78.295"/>
	<line style="fill:none;stroke:#000000;stroke-miterlimit:1;" x1="325.48" y1="78.295" x2="321.531" y2="76.649"/>
	<line style="fill:none;stroke:#000000;stroke-miterlimit:1;" x1="321.531" y1="76.649" x2="317.91" y2="75.332"/>
	<line style="fill:none;stroke:#000000;stroke-miterlimit:1;" x1="317.91" y1="75.332" x2="312.975" y2="74.345"/>
	<line style="fill:none;stroke:#000000;stroke-miterlimit:1;" x1="312.975" y1="74.345" x2="308.037" y2="74.016"/>
	<line style="fill:none;stroke:#000000;stroke-miterlimit:1;" x1="308.037" y1="74.016" x2="301.453" y2="74.016"/>
	<line style="fill:none;stroke:#000000;stroke-miterlimit:1;" x1="301.453" y1="74.016" x2="296.188" y2="75.332"/>
	<line style="fill:none;stroke:#000000;stroke-miterlimit:1;" x1="296.188" y1="75.332" x2="291.25" y2="77.308"/>
	<line style="fill:none;stroke:#000000;stroke-miterlimit:1;" x1="291.25" y1="77.308" x2="286.643" y2="79.94"/>
	<line style="fill:none;stroke:#000000;stroke-miterlimit:1;" x1="286.643" y1="79.94" x2="282.363" y2="83.562"/>
	<line style="fill:none;stroke:#000000;stroke-miterlimit:1;" x1="282.363" y1="83.562" x2="278.414" y2="88.169"/>
	<line style="fill:none;stroke:#000000;stroke-miterlimit:1;" x1="278.414" y1="88.169" x2="274.793" y2="92.777"/>
	<line style="fill:none;stroke:#000000;stroke-miterlimit:1;" x1="274.793" y1="92.777" x2="273.148" y2="96.068"/>
	<line style="fill:none;stroke:#000000;stroke-miterlimit:1;" x1="273.148" y1="96.068" x2="271.83" y2="99.689"/>
	<line style="fill:none;stroke:#000000;stroke-miterlimit:1;" x1="271.83" y1="99.689" x2="270.514" y2="105.942"/>
	<line style="fill:none;stroke:#000000;stroke-miterlimit:1;" x1="270.514" y1="105.942" x2="270.514" y2="111.867"/>
	<line style="fill:none;stroke:#000000;stroke-miterlimit:1;" x1="270.514" y1="111.867" x2="271.172" y2="116.146"/>
	<line style="fill:none;stroke:#000000;stroke-miterlimit:1;" x1="271.172" y1="116.146" x2="271.83" y2="120.754"/>
	<line style="fill:none;stroke:#000000;stroke-miterlimit:1;" x1="271.83" y1="120.754" x2="273.477" y2="125.362"/>
	<line style="fill:none;stroke:#000000;stroke-miterlimit:1;" x1="273.477" y1="125.362" x2="275.781" y2="130.629"/>
	<line style="fill:none;stroke:#000000;stroke-miterlimit:1;" x1="275.781" y1="130.629" x2="279.73" y2="135.565"/>
	<line style="fill:none;stroke:#000000;stroke-miterlimit:1;" x1="279.73" y1="135.565" x2="283.68" y2="139.187"/>
	<line style="fill:none;stroke:#000000;stroke-miterlimit:1;" x1="283.68" y1="139.187" x2="288.289" y2="142.807"/>
	<line style="fill:none;stroke:#000000;stroke-miterlimit:1;" x1="288.289" y1="142.807" x2="292.896" y2="145.111"/>
	<line style="fill:none;stroke:#000000;stroke-miterlimit:1;" x1="292.896" y1="145.111" x2="298.492" y2="147.086"/>
	<line style="fill:none;stroke:#000000;stroke-miterlimit:1;" x1="298.492" y1="147.086" x2="304.746" y2="148.073"/>
	<line style="fill:none;stroke:#000000;stroke-miterlimit:1;" x1="157.536" y1="0.329" x2="155.89" y2="33.573"/>
	<line style="fill:none;stroke:#000000;stroke-miterlimit:1;" x1="155.89" y1="33.573" x2="155.232" y2="61.879"/>
	<line style="fill:none;stroke:#000000;stroke-miterlimit:1;" x1="155.232" y1="61.879" x2="154.574" y2="83.603"/>
	<line style="fill:none;stroke:#000000;stroke-miterlimit:1;" x1="154.574" y1="83.603" x2="152.928" y2="99.072"/>
	<line style="fill:none;stroke:#000000;stroke-miterlimit:1;" x1="152.928" y1="99.072" x2="151.611" y2="113.884"/>
	<line style="fill:none;stroke:#000000;stroke-miterlimit:1;" x1="151.611" y1="113.884" x2="152.27" y2="129.683"/>
	<line style="fill:none;stroke:#000000;stroke-miterlimit:1;" x1="152.27" y1="129.683" x2="153.257" y2="134.619"/>
	<line style="fill:none;stroke:#000000;stroke-miterlimit:1;" x1="153.257" y1="134.619" x2="153.916" y2="138.569"/>
	<line style="fill:none;stroke:#000000;stroke-miterlimit:1;" x1="153.916" y1="138.569" x2="153.586" y2="142.519"/>
	<line style="fill:none;stroke:#000000;stroke-miterlimit:1;" x1="153.586" y1="142.519" x2="151.611" y2="145.152"/>
	<line style="fill:none;stroke:#000000;stroke-miterlimit:1;" x1="151.611" y1="145.152" x2="148.649" y2="147.127"/>
	<line style="fill:none;stroke:#000000;stroke-miterlimit:1;" x1="148.649" y1="147.127" x2="145.029" y2="147.785"/>
	<line style="fill:none;stroke:#000000;stroke-miterlimit:1;" x1="145.029" y1="147.785" x2="138.446" y2="146.14"/>
	<line style="fill:none;stroke:#000000;stroke-miterlimit:1;" x1="138.446" y1="146.14" x2="135.812" y2="144.165"/>
	<line style="fill:none;stroke:#000000;stroke-miterlimit:1;" x1="135.812" y1="144.165" x2="131.534" y2="143.177"/>
	<line style="fill:none;stroke:#000000;stroke-miterlimit:1;" x1="131.534" y1="143.177" x2="121.66" y2="148.114"/>
	<line style="fill:none;stroke:#000000;stroke-miterlimit:1;" x1="121.66" y1="148.114" x2="80.846" y2="147.785"/>
	<line style="fill:none;stroke:#000000;stroke-miterlimit:1;" x1="80.846" y1="147.785" x2="79.2" y2="142.519"/>
	<line style="fill:none;stroke:#000000;stroke-miterlimit:1;" x1="79.2" y1="142.519" x2="80.517" y2="139.886"/>
	<line style="fill:none;stroke:#000000;stroke-miterlimit:1;" x1="80.517" y1="139.886" x2="84.137" y2="139.228"/>
	<line style="fill:none;stroke:#000000;stroke-miterlimit:1;" x1="84.137" y1="139.228" x2="98.291" y2="136.266"/>
	<line style="fill:none;stroke:#000000;stroke-miterlimit:1;" x1="98.291" y1="136.266" x2="110.14" y2="130.341"/>
	<line style="fill:none;stroke:#000000;stroke-miterlimit:1;" x1="110.14" y1="130.341" x2="118.039" y2="127.378"/>
	<line style="fill:none;stroke:#000000;stroke-miterlimit:1;" x1="118.039" y1="127.378" x2="124.951" y2="125.732"/>
	<line style="fill:none;stroke:#000000;stroke-miterlimit:1;" x1="124.951" y1="125.732" x2="129.888" y2="121.454"/>
	<line style="fill:none;stroke:#000000;stroke-miterlimit:1;" x1="129.888" y1="121.454" x2="131.534" y2="117.175"/>
	<line style="fill:none;stroke:#000000;stroke-miterlimit:1;" x1="131.534" y1="117.175" x2="131.863" y2="112.566"/>
	<line style="fill:none;stroke:#000000;stroke-miterlimit:1;" x1="131.863" y1="112.566" x2="131.205" y2="105.655"/>
	<line style="fill:none;stroke:#000000;stroke-miterlimit:1;" x1="131.205" y1="105.655" x2="130.875" y2="96.438"/>
	<line style="fill:none;stroke:#000000;stroke-miterlimit:1;" x1="130.875" y1="96.438" x2="130.217" y2="71.424"/>
	<line style="fill:none;stroke:#000000;stroke-miterlimit:1;" x1="130.217" y1="71.424" x2="129.888" y2="46.409"/>
	<line style="fill:none;stroke:#000000;stroke-miterlimit:1;" x1="129.888" y1="46.409" x2="127.255" y2="0"/>
	<line style="fill:none;stroke:#000000;stroke-miterlimit:1;" x1="127.255" y1="0" x2="157.536" y2="0"/>
	<line style="fill:none;stroke:#000000;stroke-miterlimit:1;" x1="33.573" y1="60.604" x2="33.573" y2="149.143"/>
	<line style="fill:none;stroke:#000000;stroke-miterlimit:1;" x1="33.573" y1="149.143" x2="40.485" y2="149.143"/>
	<line style="fill:none;stroke:#000000;stroke-miterlimit:1;" x1="40.485" y1="149.143" x2="40.485" y2="60.604"/>
	<line style="fill:none;stroke:#000000;stroke-miterlimit:1;" x1="0" y1="60.274" x2="74.057" y2="60.274"/>
	<line style="fill:none;stroke:#000000;stroke-miterlimit:1;" x1="74.057" y1="60.274" x2="74.057" y2="36.905"/>
	<line style="fill:none;stroke:#000000;stroke-miterlimit:1;" x1="74.057" y1="36.905" x2="72.741" y2="34.272"/>
	<line style="fill:none;stroke:#000000;stroke-miterlimit:1;" x1="72.741" y1="34.272" x2="71.424" y2="32.626"/>
	<line style="fill:none;stroke:#000000;stroke-miterlimit:1;" x1="71.424" y1="32.626" x2="69.778" y2="32.626"/>
	<line style="fill:none;stroke:#000000;stroke-miterlimit:1;" x1="69.778" y1="32.626" x2="68.133" y2="32.626"/>
	<line style="fill:none;stroke:#000000;stroke-miterlimit:1;" x1="68.133" y1="32.626" x2="66.158" y2="32.956"/>
	<line style="fill:none;stroke:#000000;stroke-miterlimit:1;" x1="66.158" y1="32.956" x2="64.183" y2="34.272"/>
	<line style="fill:none;stroke:#000000;stroke-miterlimit:1;" x1="64.183" y1="34.272" x2="57.6" y2="40.197"/>
	<line style="fill:none;stroke:#000000;stroke-miterlimit:1;" x1="57.6" y1="40.197" x2="51.675" y2="45.463"/>
	<line style="fill:none;stroke:#000000;stroke-miterlimit:1;" x1="51.675" y1="45.463" x2="47.067" y2="47.767"/>
	<line style="fill:none;stroke:#000000;stroke-miterlimit:1;" x1="47.067" y1="47.767" x2="41.472" y2="49.083"/>
	<line style="fill:none;stroke:#000000;stroke-miterlimit:1;" x1="41.472" y1="49.083" x2="36.864" y2="49.413"/>
	<line style="fill:none;stroke:#000000;stroke-miterlimit:1;" x1="36.864" y1="49.413" x2="32.585" y2="49.083"/>
	<line style="fill:none;stroke:#000000;stroke-miterlimit:1;" x1="32.585" y1="49.083" x2="26.99" y2="47.767"/>
	<line style="fill:none;stroke:#000000;stroke-miterlimit:1;" x1="26.99" y1="47.767" x2="22.382" y2="45.463"/>
	<line style="fill:none;stroke:#000000;stroke-miterlimit:1;" x1="22.382" y1="45.463" x2="16.457" y2="40.197"/>
	<line style="fill:none;stroke:#000000;stroke-miterlimit:1;" x1="16.457" y1="40.197" x2="9.875" y2="34.272"/>
	<line style="fill:none;stroke:#000000;stroke-miterlimit:1;" x1="9.875" y1="34.272" x2="7.899" y2="32.956"/>
	<line style="fill:none;stroke:#000000;stroke-miterlimit:1;" x1="7.899" y1="32.956" x2="5.925" y2="32.626"/>
	<line style="fill:none;stroke:#000000;stroke-miterlimit:1;" x1="5.925" y1="32.626" x2="4.279" y2="32.626"/>
	<line style="fill:none;stroke:#000000;stroke-miterlimit:1;" x1="4.279" y1="32.626" x2="2.633" y2="32.626"/>
	<line style="fill:none;stroke:#000000;stroke-miterlimit:1;" x1="2.633" y1="32.626" x2="1.316" y2="34.272"/>
	<line style="fill:none;stroke:#000000;stroke-miterlimit:1;" x1="1.316" y1="34.272" x2="0" y2="36.905"/>
	<line style="fill:none;stroke:#000000;stroke-miterlimit:1;" x1="0" y1="36.905" x2="0" y2="60.274"/>
	<line style="fill:none;stroke:#000000;stroke-miterlimit:1;" x1="50.688" y1="45.463" x2="44.764" y2="6.624"/>
	<line style="fill:none;stroke:#000000;stroke-miterlimit:1;" x1="44.764" y1="6.624" x2="42.13" y2="3.333"/>
	<line style="fill:none;stroke:#000000;stroke-miterlimit:1;" x1="42.13" y1="3.333" x2="40.155" y2="2.016"/>
	<line style="fill:none;stroke:#000000;stroke-miterlimit:1;" x1="40.155" y1="2.016" x2="37.522" y2="1.028"/>
	<line style="fill:none;stroke:#000000;stroke-miterlimit:1;" x1="37.522" y1="1.028" x2="36.535" y2="1.028"/>
	<line style="fill:none;stroke:#000000;stroke-miterlimit:1;" x1="36.535" y1="1.028" x2="33.902" y2="2.016"/>
	<line style="fill:none;stroke:#000000;stroke-miterlimit:1;" x1="33.902" y1="2.016" x2="31.927" y2="3.333"/>
	<line style="fill:none;stroke:#000000;stroke-miterlimit:1;" x1="31.927" y1="3.333" x2="29.294" y2="6.624"/>
	<line style="fill:none;stroke:#000000;stroke-miterlimit:1;" x1="29.294" y1="6.624" x2="23.369" y2="45.463"/>
</g>
</svg>
