<?xml version="1.0" encoding="iso-8859-1"?>
<!-- Generator: Adobe Illustrator 16.0.1, SVG Export Plug-In . SVG Version: 6.00 Build 0)  -->
<!DOCTYPE svg PUBLIC "-//W3C//DTD SVG 1.1//EN" "http://www.w3.org/Graphics/SVG/1.1/DTD/svg11.dtd">
<svg version="1.1" id="Ebene_1" xmlns="http://www.w3.org/2000/svg" xmlns:xlink="http://www.w3.org/1999/xlink" x="0px" y="0px"
	 width="397.728px" height="148.115px" viewBox="0 0 397.728 148.115" style="enable-background:new 0 0 397.728 148.115;"
	 xml:space="preserve">
<g>
	<line style="fill:none;stroke:#000000;stroke-miterlimit:1;" x1="235.543" y1="54.967" x2="235.543" y2="13.495"/>
	<line style="fill:none;stroke:#000000;stroke-miterlimit:1;" x1="235.543" y1="13.495" x2="237.518" y2="7.899"/>
	<line style="fill:none;stroke:#000000;stroke-miterlimit:1;" x1="237.518" y1="7.899" x2="240.15" y2="4.937"/>
	<line style="fill:none;stroke:#000000;stroke-miterlimit:1;" x1="240.15" y1="4.937" x2="244.759" y2="1.646"/>
	<line style="fill:none;stroke:#000000;stroke-miterlimit:1;" x1="244.759" y1="1.646" x2="248.38" y2="0.987"/>
	<line style="fill:none;stroke:#000000;stroke-miterlimit:1;" x1="248.38" y1="0.987" x2="252" y2="1.975"/>
	<line style="fill:none;stroke:#000000;stroke-miterlimit:1;" x1="252" y1="1.975" x2="254.633" y2="2.962"/>
	<line style="fill:none;stroke:#000000;stroke-miterlimit:1;" x1="254.633" y1="2.962" x2="257.925" y2="6.254"/>
	<line style="fill:none;stroke:#000000;stroke-miterlimit:1;" x1="257.925" y1="6.254" x2="262.532" y2="14.153"/>
	<line style="fill:none;stroke:#000000;stroke-miterlimit:1;" x1="262.532" y1="14.153" x2="267.141" y2="20.736"/>
	<line style="fill:none;stroke:#000000;stroke-miterlimit:1;" x1="267.141" y1="20.736" x2="272.078" y2="26.661"/>
	<line style="fill:none;stroke:#000000;stroke-miterlimit:1;" x1="272.078" y1="26.661" x2="276.356" y2="29.294"/>
	<line style="fill:none;stroke:#000000;stroke-miterlimit:1;" x1="276.356" y1="29.294" x2="281.294" y2="29.952"/>
	<line style="fill:none;stroke:#000000;stroke-miterlimit:1;" x1="281.294" y1="29.952" x2="286.23" y2="28.635"/>
	<line style="fill:none;stroke:#000000;stroke-miterlimit:1;" x1="286.23" y1="28.635" x2="289.522" y2="26.661"/>
	<line style="fill:none;stroke:#000000;stroke-miterlimit:1;" x1="289.522" y1="26.661" x2="292.813" y2="23.369"/>
	<line style="fill:none;stroke:#000000;stroke-miterlimit:1;" x1="292.813" y1="23.369" x2="300.384" y2="12.836"/>
	<line style="fill:none;stroke:#000000;stroke-miterlimit:1;" x1="300.384" y1="12.836" x2="304.005" y2="8.229"/>
	<line style="fill:none;stroke:#000000;stroke-miterlimit:1;" x1="304.005" y1="8.229" x2="307.296" y2="4.608"/>
	<line style="fill:none;stroke:#000000;stroke-miterlimit:1;" x1="307.296" y1="4.608" x2="310.587" y2="2.962"/>
	<line style="fill:none;stroke:#000000;stroke-miterlimit:1;" x1="310.587" y1="2.962" x2="313.55" y2="1.646"/>
	<line style="fill:none;stroke:#000000;stroke-miterlimit:1;" x1="313.55" y1="1.646" x2="316.512" y2="1.646"/>
	<line style="fill:none;stroke:#000000;stroke-miterlimit:1;" x1="316.512" y1="1.646" x2="319.146" y2="2.304"/>
	<line style="fill:none;stroke:#000000;stroke-miterlimit:1;" x1="319.146" y1="2.304" x2="323.424" y2="4.279"/>
	<line style="fill:none;stroke:#000000;stroke-miterlimit:1;" x1="323.424" y1="4.279" x2="328.361" y2="9.216"/>
	<line style="fill:none;stroke:#000000;stroke-miterlimit:1;" x1="328.361" y1="9.216" x2="332.969" y2="15.47"/>
	<line style="fill:none;stroke:#000000;stroke-miterlimit:1;" x1="332.969" y1="15.47" x2="337.906" y2="22.382"/>
	<line style="fill:none;stroke:#000000;stroke-miterlimit:1;" x1="337.906" y1="22.382" x2="341.526" y2="26.002"/>
	<line style="fill:none;stroke:#000000;stroke-miterlimit:1;" x1="341.526" y1="26.002" x2="344.818" y2="28.635"/>
	<line style="fill:none;stroke:#000000;stroke-miterlimit:1;" x1="344.818" y1="28.635" x2="348.438" y2="29.623"/>
	<line style="fill:none;stroke:#000000;stroke-miterlimit:1;" x1="348.438" y1="29.623" x2="350.743" y2="29.952"/>
	<line style="fill:none;stroke:#000000;stroke-miterlimit:1;" x1="350.743" y1="29.952" x2="355.351" y2="29.294"/>
	<line style="fill:none;stroke:#000000;stroke-miterlimit:1;" x1="355.351" y1="29.294" x2="359.301" y2="26.332"/>
	<line style="fill:none;stroke:#000000;stroke-miterlimit:1;" x1="359.301" y1="26.332" x2="361.934" y2="23.369"/>
	<line style="fill:none;stroke:#000000;stroke-miterlimit:1;" x1="361.934" y1="23.369" x2="364.896" y2="19.419"/>
	<line style="fill:none;stroke:#000000;stroke-miterlimit:1;" x1="364.896" y1="19.419" x2="367.2" y2="15.799"/>
	<line style="fill:none;stroke:#000000;stroke-miterlimit:1;" x1="367.2" y1="15.799" x2="373.783" y2="5.595"/>
	<line style="fill:none;stroke:#000000;stroke-miterlimit:1;" x1="373.783" y1="5.595" x2="377.074" y2="2.962"/>
	<line style="fill:none;stroke:#000000;stroke-miterlimit:1;" x1="377.074" y1="2.962" x2="381.024" y2="1.316"/>
	<line style="fill:none;stroke:#000000;stroke-miterlimit:1;" x1="381.024" y1="1.316" x2="386.29" y2="1.316"/>
	<line style="fill:none;stroke:#000000;stroke-miterlimit:1;" x1="386.29" y1="1.316" x2="389.911" y2="3.292"/>
	<line style="fill:none;stroke:#000000;stroke-miterlimit:1;" x1="389.911" y1="3.292" x2="392.873" y2="6.254"/>
	<line style="fill:none;stroke:#000000;stroke-miterlimit:1;" x1="392.873" y1="6.254" x2="395.835" y2="13.495"/>
	<line style="fill:none;stroke:#000000;stroke-miterlimit:1;" x1="395.835" y1="13.495" x2="395.835" y2="54.967"/>
	<line style="fill:none;stroke:#000000;stroke-miterlimit:1;" x1="395.835" y1="54.967" x2="235.543" y2="54.967"/>
	<line style="fill:none;stroke:#000000;stroke-miterlimit:1;" x1="312.192" y1="147.621" x2="234.515" y2="147.621"/>
	<line style="fill:none;stroke:#000000;stroke-miterlimit:1;" x1="234.515" y1="147.621" x2="235.502" y2="141.037"/>
	<line style="fill:none;stroke:#000000;stroke-miterlimit:1;" x1="235.502" y1="141.037" x2="236.489" y2="136.76"/>
	<line style="fill:none;stroke:#000000;stroke-miterlimit:1;" x1="236.489" y1="136.76" x2="238.135" y2="132.48"/>
	<line style="fill:none;stroke:#000000;stroke-miterlimit:1;" x1="238.135" y1="132.48" x2="240.438" y2="129.189"/>
	<line style="fill:none;stroke:#000000;stroke-miterlimit:1;" x1="240.438" y1="129.189" x2="242.414" y2="126.227"/>
	<line style="fill:none;stroke:#000000;stroke-miterlimit:1;" x1="242.414" y1="126.227" x2="245.047" y2="122.605"/>
	<line style="fill:none;stroke:#000000;stroke-miterlimit:1;" x1="245.047" y1="122.605" x2="248.009" y2="119.973"/>
	<line style="fill:none;stroke:#000000;stroke-miterlimit:1;" x1="248.009" y1="119.973" x2="251.63" y2="117.34"/>
	<line style="fill:none;stroke:#000000;stroke-miterlimit:1;" x1="251.63" y1="117.34" x2="254.592" y2="115.365"/>
	<line style="fill:none;stroke:#000000;stroke-miterlimit:1;" x1="254.592" y1="115.365" x2="258.871" y2="113.391"/>
	<line style="fill:none;stroke:#000000;stroke-miterlimit:1;" x1="258.871" y1="113.391" x2="263.149" y2="112.072"/>
	<line style="fill:none;stroke:#000000;stroke-miterlimit:1;" x1="263.149" y1="112.072" x2="266.112" y2="111.414"/>
	<line style="fill:none;stroke:#000000;stroke-miterlimit:1;" x1="266.112" y1="111.414" x2="271.378" y2="110.756"/>
	<line style="fill:none;stroke:#000000;stroke-miterlimit:1;" x1="271.378" y1="110.756" x2="275.328" y2="110.756"/>
	<line style="fill:none;stroke:#000000;stroke-miterlimit:1;" x1="275.328" y1="110.756" x2="278.948" y2="111.414"/>
	<line style="fill:none;stroke:#000000;stroke-miterlimit:1;" x1="278.948" y1="111.414" x2="282.898" y2="112.072"/>
	<line style="fill:none;stroke:#000000;stroke-miterlimit:1;" x1="282.898" y1="112.072" x2="287.177" y2="113.061"/>
	<line style="fill:none;stroke:#000000;stroke-miterlimit:1;" x1="287.177" y1="113.061" x2="290.14" y2="114.049"/>
	<line style="fill:none;stroke:#000000;stroke-miterlimit:1;" x1="290.14" y1="114.049" x2="294.089" y2="116.682"/>
	<line style="fill:none;stroke:#000000;stroke-miterlimit:1;" x1="294.089" y1="116.682" x2="297.381" y2="118.984"/>
	<line style="fill:none;stroke:#000000;stroke-miterlimit:1;" x1="297.381" y1="118.984" x2="300.343" y2="121.289"/>
	<line style="fill:none;stroke:#000000;stroke-miterlimit:1;" x1="300.343" y1="121.289" x2="302.976" y2="124.58"/>
	<line style="fill:none;stroke:#000000;stroke-miterlimit:1;" x1="302.976" y1="124.58" x2="305.609" y2="128.201"/>
	<line style="fill:none;stroke:#000000;stroke-miterlimit:1;" x1="305.609" y1="128.201" x2="307.913" y2="131.822"/>
	<line style="fill:none;stroke:#000000;stroke-miterlimit:1;" x1="307.913" y1="131.822" x2="309.559" y2="135.113"/>
	<line style="fill:none;stroke:#000000;stroke-miterlimit:1;" x1="309.559" y1="135.113" x2="310.875" y2="140.051"/>
	<line style="fill:none;stroke:#000000;stroke-miterlimit:1;" x1="310.875" y1="140.051" x2="311.862" y2="143.67"/>
	<line style="fill:none;stroke:#000000;stroke-miterlimit:1;" x1="311.862" y1="143.67" x2="312.192" y2="147.621"/>
	<line style="fill:none;stroke:#000000;stroke-miterlimit:1;" x1="339.141" y1="141.162" x2="361.522" y2="120.754"/>
	<line style="fill:none;stroke:#000000;stroke-miterlimit:1;" x1="361.522" y1="120.754" x2="382.587" y2="141.162"/>
	<line style="fill:none;stroke:#000000;stroke-miterlimit:1;" x1="391.146" y1="131.945" x2="371.396" y2="111.867"/>
	<line style="fill:none;stroke:#000000;stroke-miterlimit:1;" x1="371.396" y1="111.867" x2="392.462" y2="91.789"/>
	<line style="fill:none;stroke:#000000;stroke-miterlimit:1;" x1="383.246" y1="81.586" x2="362.181" y2="101.664"/>
	<line style="fill:none;stroke:#000000;stroke-miterlimit:1;" x1="362.181" y1="101.664" x2="341.115" y2="79.941"/>
	<line style="fill:none;stroke:#000000;stroke-miterlimit:1;" x1="331.899" y1="88.828" x2="352.307" y2="110.551"/>
	<line style="fill:none;stroke:#000000;stroke-miterlimit:1;" x1="352.307" y1="110.551" x2="330.583" y2="131.287"/>
	<line style="fill:none;stroke:#000000;stroke-miterlimit:1;" x1="358.23" y1="148.072" x2="367.447" y2="147.744"/>
	<line style="fill:none;stroke:#000000;stroke-miterlimit:1;" x1="367.447" y1="147.744" x2="372.713" y2="146.428"/>
	<line style="fill:none;stroke:#000000;stroke-miterlimit:1;" x1="372.713" y1="146.428" x2="377.321" y2="144.453"/>
	<line style="fill:none;stroke:#000000;stroke-miterlimit:1;" x1="377.321" y1="144.453" x2="382.587" y2="140.832"/>
	<line style="fill:none;stroke:#000000;stroke-miterlimit:1;" x1="382.587" y1="140.832" x2="386.537" y2="137.211"/>
	<line style="fill:none;stroke:#000000;stroke-miterlimit:1;" x1="386.537" y1="137.211" x2="390.487" y2="132.932"/>
	<line style="fill:none;stroke:#000000;stroke-miterlimit:1;" x1="390.487" y1="132.932" x2="393.12" y2="128.654"/>
	<line style="fill:none;stroke:#000000;stroke-miterlimit:1;" x1="393.12" y1="128.654" x2="395.753" y2="124.045"/>
	<line style="fill:none;stroke:#000000;stroke-miterlimit:1;" x1="395.753" y1="124.045" x2="397.069" y2="119.438"/>
	<line style="fill:none;stroke:#000000;stroke-miterlimit:1;" x1="397.069" y1="119.438" x2="397.728" y2="114.172"/>
	<line style="fill:none;stroke:#000000;stroke-miterlimit:1;" x1="397.728" y1="114.172" x2="397.728" y2="108.904"/>
	<line style="fill:none;stroke:#000000;stroke-miterlimit:1;" x1="397.728" y1="108.904" x2="396.082" y2="99.689"/>
	<line style="fill:none;stroke:#000000;stroke-miterlimit:1;" x1="396.082" y1="99.689" x2="394.107" y2="94.752"/>
	<line style="fill:none;stroke:#000000;stroke-miterlimit:1;" x1="394.107" y1="94.752" x2="391.146" y2="89.814"/>
	<line style="fill:none;stroke:#000000;stroke-miterlimit:1;" x1="391.146" y1="89.814" x2="387.854" y2="85.207"/>
	<line style="fill:none;stroke:#000000;stroke-miterlimit:1;" x1="387.854" y1="85.207" x2="382.917" y2="80.928"/>
	<line style="fill:none;stroke:#000000;stroke-miterlimit:1;" x1="382.917" y1="80.928" x2="378.967" y2="78.295"/>
	<line style="fill:none;stroke:#000000;stroke-miterlimit:1;" x1="378.967" y1="78.295" x2="375.017" y2="76.648"/>
	<line style="fill:none;stroke:#000000;stroke-miterlimit:1;" x1="375.017" y1="76.648" x2="371.396" y2="75.332"/>
	<line style="fill:none;stroke:#000000;stroke-miterlimit:1;" x1="371.396" y1="75.332" x2="366.459" y2="74.345"/>
	<line style="fill:none;stroke:#000000;stroke-miterlimit:1;" x1="366.459" y1="74.345" x2="361.522" y2="74.016"/>
	<line style="fill:none;stroke:#000000;stroke-miterlimit:1;" x1="361.522" y1="74.016" x2="354.939" y2="74.016"/>
	<line style="fill:none;stroke:#000000;stroke-miterlimit:1;" x1="354.939" y1="74.016" x2="349.673" y2="75.332"/>
	<line style="fill:none;stroke:#000000;stroke-miterlimit:1;" x1="349.673" y1="75.332" x2="344.736" y2="77.307"/>
	<line style="fill:none;stroke:#000000;stroke-miterlimit:1;" x1="344.736" y1="77.307" x2="340.128" y2="79.941"/>
	<line style="fill:none;stroke:#000000;stroke-miterlimit:1;" x1="340.128" y1="79.941" x2="335.849" y2="83.561"/>
	<line style="fill:none;stroke:#000000;stroke-miterlimit:1;" x1="335.849" y1="83.561" x2="331.899" y2="88.17"/>
	<line style="fill:none;stroke:#000000;stroke-miterlimit:1;" x1="331.899" y1="88.17" x2="328.278" y2="92.777"/>
	<line style="fill:none;stroke:#000000;stroke-miterlimit:1;" x1="328.278" y1="92.777" x2="326.633" y2="96.068"/>
	<line style="fill:none;stroke:#000000;stroke-miterlimit:1;" x1="326.633" y1="96.068" x2="325.316" y2="99.689"/>
	<line style="fill:none;stroke:#000000;stroke-miterlimit:1;" x1="325.316" y1="99.689" x2="324" y2="105.943"/>
	<line style="fill:none;stroke:#000000;stroke-miterlimit:1;" x1="324" y1="105.943" x2="324" y2="111.867"/>
	<line style="fill:none;stroke:#000000;stroke-miterlimit:1;" x1="324" y1="111.867" x2="324.658" y2="116.146"/>
	<line style="fill:none;stroke:#000000;stroke-miterlimit:1;" x1="324.658" y1="116.146" x2="325.316" y2="120.754"/>
	<line style="fill:none;stroke:#000000;stroke-miterlimit:1;" x1="325.316" y1="120.754" x2="326.962" y2="125.361"/>
	<line style="fill:none;stroke:#000000;stroke-miterlimit:1;" x1="326.962" y1="125.361" x2="329.267" y2="130.629"/>
	<line style="fill:none;stroke:#000000;stroke-miterlimit:1;" x1="329.267" y1="130.629" x2="333.216" y2="135.566"/>
	<line style="fill:none;stroke:#000000;stroke-miterlimit:1;" x1="333.216" y1="135.566" x2="337.166" y2="139.186"/>
	<line style="fill:none;stroke:#000000;stroke-miterlimit:1;" x1="337.166" y1="139.186" x2="341.773" y2="142.807"/>
	<line style="fill:none;stroke:#000000;stroke-miterlimit:1;" x1="341.773" y1="142.807" x2="346.382" y2="145.111"/>
	<line style="fill:none;stroke:#000000;stroke-miterlimit:1;" x1="346.382" y1="145.111" x2="351.978" y2="147.086"/>
	<line style="fill:none;stroke:#000000;stroke-miterlimit:1;" x1="351.978" y1="147.086" x2="358.23" y2="148.072"/>
	<line style="fill:none;stroke:#000000;stroke-miterlimit:1;" x1="211.021" y1="0.329" x2="209.376" y2="33.573"/>
	<line style="fill:none;stroke:#000000;stroke-miterlimit:1;" x1="209.376" y1="33.573" x2="208.718" y2="61.879"/>
	<line style="fill:none;stroke:#000000;stroke-miterlimit:1;" x1="208.718" y1="61.879" x2="208.06" y2="83.602"/>
	<line style="fill:none;stroke:#000000;stroke-miterlimit:1;" x1="208.06" y1="83.602" x2="206.414" y2="99.072"/>
	<line style="fill:none;stroke:#000000;stroke-miterlimit:1;" x1="206.414" y1="99.072" x2="205.097" y2="113.883"/>
	<line style="fill:none;stroke:#000000;stroke-miterlimit:1;" x1="205.097" y1="113.883" x2="205.755" y2="129.682"/>
	<line style="fill:none;stroke:#000000;stroke-miterlimit:1;" x1="205.755" y1="129.682" x2="206.743" y2="134.619"/>
	<line style="fill:none;stroke:#000000;stroke-miterlimit:1;" x1="206.743" y1="134.619" x2="207.401" y2="138.568"/>
	<line style="fill:none;stroke:#000000;stroke-miterlimit:1;" x1="207.401" y1="138.568" x2="207.072" y2="142.52"/>
	<line style="fill:none;stroke:#000000;stroke-miterlimit:1;" x1="207.072" y1="142.52" x2="205.097" y2="145.152"/>
	<line style="fill:none;stroke:#000000;stroke-miterlimit:1;" x1="205.097" y1="145.152" x2="202.135" y2="147.127"/>
	<line style="fill:none;stroke:#000000;stroke-miterlimit:1;" x1="202.135" y1="147.127" x2="198.514" y2="147.785"/>
	<line style="fill:none;stroke:#000000;stroke-miterlimit:1;" x1="198.514" y1="147.785" x2="191.931" y2="146.139"/>
	<line style="fill:none;stroke:#000000;stroke-miterlimit:1;" x1="191.931" y1="146.139" x2="189.298" y2="144.164"/>
	<line style="fill:none;stroke:#000000;stroke-miterlimit:1;" x1="189.298" y1="144.164" x2="185.02" y2="143.178"/>
	<line style="fill:none;stroke:#000000;stroke-miterlimit:1;" x1="185.02" y1="143.178" x2="175.145" y2="148.115"/>
	<line style="fill:none;stroke:#000000;stroke-miterlimit:1;" x1="175.145" y1="148.115" x2="134.332" y2="147.785"/>
	<line style="fill:none;stroke:#000000;stroke-miterlimit:1;" x1="134.332" y1="147.785" x2="132.686" y2="142.52"/>
	<line style="fill:none;stroke:#000000;stroke-miterlimit:1;" x1="132.686" y1="142.52" x2="134.002" y2="139.885"/>
	<line style="fill:none;stroke:#000000;stroke-miterlimit:1;" x1="134.002" y1="139.885" x2="137.623" y2="139.227"/>
	<line style="fill:none;stroke:#000000;stroke-miterlimit:1;" x1="137.623" y1="139.227" x2="151.776" y2="136.266"/>
	<line style="fill:none;stroke:#000000;stroke-miterlimit:1;" x1="151.776" y1="136.266" x2="163.625" y2="130.34"/>
	<line style="fill:none;stroke:#000000;stroke-miterlimit:1;" x1="163.625" y1="130.34" x2="171.524" y2="127.379"/>
	<line style="fill:none;stroke:#000000;stroke-miterlimit:1;" x1="171.524" y1="127.379" x2="178.437" y2="125.732"/>
	<line style="fill:none;stroke:#000000;stroke-miterlimit:1;" x1="178.437" y1="125.732" x2="183.374" y2="121.453"/>
	<line style="fill:none;stroke:#000000;stroke-miterlimit:1;" x1="183.374" y1="121.453" x2="185.02" y2="117.176"/>
	<line style="fill:none;stroke:#000000;stroke-miterlimit:1;" x1="185.02" y1="117.176" x2="185.349" y2="112.566"/>
	<line style="fill:none;stroke:#000000;stroke-miterlimit:1;" x1="185.349" y1="112.566" x2="184.69" y2="105.654"/>
	<line style="fill:none;stroke:#000000;stroke-miterlimit:1;" x1="184.69" y1="105.654" x2="184.361" y2="96.439"/>
	<line style="fill:none;stroke:#000000;stroke-miterlimit:1;" x1="184.361" y1="96.439" x2="183.703" y2="71.424"/>
	<line style="fill:none;stroke:#000000;stroke-miterlimit:1;" x1="183.703" y1="71.424" x2="183.374" y2="46.409"/>
	<line style="fill:none;stroke:#000000;stroke-miterlimit:1;" x1="183.374" y1="46.409" x2="180.74" y2="0"/>
	<line style="fill:none;stroke:#000000;stroke-miterlimit:1;" x1="180.74" y1="0" x2="211.021" y2="0"/>
	<line style="fill:none;stroke:#000000;stroke-miterlimit:1;" x1="33.572" y1="59.575" x2="33.572" y2="148.115"/>
	<line style="fill:none;stroke:#000000;stroke-miterlimit:1;" x1="33.572" y1="148.115" x2="40.484" y2="148.115"/>
	<line style="fill:none;stroke:#000000;stroke-miterlimit:1;" x1="40.484" y1="148.115" x2="40.484" y2="59.575"/>
	<line style="fill:none;stroke:#000000;stroke-miterlimit:1;" x1="0" y1="59.246" x2="74.057" y2="59.246"/>
	<line style="fill:none;stroke:#000000;stroke-miterlimit:1;" x1="74.057" y1="59.246" x2="74.057" y2="35.876"/>
	<line style="fill:none;stroke:#000000;stroke-miterlimit:1;" x1="74.057" y1="35.876" x2="72.741" y2="33.244"/>
	<line style="fill:none;stroke:#000000;stroke-miterlimit:1;" x1="72.741" y1="33.244" x2="71.424" y2="31.598"/>
	<line style="fill:none;stroke:#000000;stroke-miterlimit:1;" x1="71.424" y1="31.598" x2="69.778" y2="31.598"/>
	<line style="fill:none;stroke:#000000;stroke-miterlimit:1;" x1="69.778" y1="31.598" x2="68.132" y2="31.598"/>
	<line style="fill:none;stroke:#000000;stroke-miterlimit:1;" x1="68.132" y1="31.598" x2="66.158" y2="31.927"/>
	<line style="fill:none;stroke:#000000;stroke-miterlimit:1;" x1="66.158" y1="31.927" x2="64.183" y2="33.244"/>
	<line style="fill:none;stroke:#000000;stroke-miterlimit:1;" x1="64.183" y1="33.244" x2="57.6" y2="39.168"/>
	<line style="fill:none;stroke:#000000;stroke-miterlimit:1;" x1="57.6" y1="39.168" x2="51.675" y2="44.434"/>
	<line style="fill:none;stroke:#000000;stroke-miterlimit:1;" x1="51.675" y1="44.434" x2="47.067" y2="46.738"/>
	<line style="fill:none;stroke:#000000;stroke-miterlimit:1;" x1="47.067" y1="46.738" x2="41.472" y2="48.055"/>
	<line style="fill:none;stroke:#000000;stroke-miterlimit:1;" x1="41.472" y1="48.055" x2="36.864" y2="48.384"/>
	<line style="fill:none;stroke:#000000;stroke-miterlimit:1;" x1="36.864" y1="48.384" x2="32.585" y2="48.055"/>
	<line style="fill:none;stroke:#000000;stroke-miterlimit:1;" x1="32.585" y1="48.055" x2="26.99" y2="46.738"/>
	<line style="fill:none;stroke:#000000;stroke-miterlimit:1;" x1="26.99" y1="46.738" x2="22.382" y2="44.434"/>
	<line style="fill:none;stroke:#000000;stroke-miterlimit:1;" x1="22.382" y1="44.434" x2="16.457" y2="39.168"/>
	<line style="fill:none;stroke:#000000;stroke-miterlimit:1;" x1="16.457" y1="39.168" x2="9.874" y2="33.244"/>
	<line style="fill:none;stroke:#000000;stroke-miterlimit:1;" x1="9.874" y1="33.244" x2="7.899" y2="31.927"/>
	<line style="fill:none;stroke:#000000;stroke-miterlimit:1;" x1="7.899" y1="31.927" x2="5.924" y2="31.598"/>
	<line style="fill:none;stroke:#000000;stroke-miterlimit:1;" x1="5.924" y1="31.598" x2="4.279" y2="31.598"/>
	<line style="fill:none;stroke:#000000;stroke-miterlimit:1;" x1="4.279" y1="31.598" x2="2.633" y2="31.598"/>
	<line style="fill:none;stroke:#000000;stroke-miterlimit:1;" x1="2.633" y1="31.598" x2="1.316" y2="33.244"/>
	<line style="fill:none;stroke:#000000;stroke-miterlimit:1;" x1="1.316" y1="33.244" x2="0" y2="35.876"/>
	<line style="fill:none;stroke:#000000;stroke-miterlimit:1;" x1="0" y1="35.876" x2="0" y2="59.246"/>
	<line style="fill:none;stroke:#000000;stroke-miterlimit:1;" x1="50.688" y1="44.434" x2="44.763" y2="5.595"/>
	<line style="fill:none;stroke:#000000;stroke-miterlimit:1;" x1="44.763" y1="5.595" x2="42.13" y2="2.304"/>
	<line style="fill:none;stroke:#000000;stroke-miterlimit:1;" x1="42.13" y1="2.304" x2="40.155" y2="0.987"/>
	<line style="fill:none;stroke:#000000;stroke-miterlimit:1;" x1="40.155" y1="0.987" x2="37.522" y2="0"/>
	<line style="fill:none;stroke:#000000;stroke-miterlimit:1;" x1="37.522" y1="0" x2="36.535" y2="0"/>
	<line style="fill:none;stroke:#000000;stroke-miterlimit:1;" x1="36.535" y1="0" x2="33.902" y2="0.987"/>
	<line style="fill:none;stroke:#000000;stroke-miterlimit:1;" x1="33.902" y1="0.987" x2="31.927" y2="2.304"/>
	<line style="fill:none;stroke:#000000;stroke-miterlimit:1;" x1="31.927" y1="2.304" x2="29.293" y2="5.595"/>
	<line style="fill:none;stroke:#000000;stroke-miterlimit:1;" x1="29.293" y1="5.595" x2="23.369" y2="44.434"/>
	<line style="fill:none;stroke:#000000;stroke-miterlimit:1;" x1="150.994" y1="57.6" x2="153.298" y2="60.892"/>
	<line style="fill:none;stroke:#000000;stroke-miterlimit:1;" x1="153.298" y1="60.892" x2="155.602" y2="64.841"/>
	<line style="fill:none;stroke:#000000;stroke-miterlimit:1;" x1="155.602" y1="64.841" x2="156.919" y2="68.133"/>
	<line style="fill:none;stroke:#000000;stroke-miterlimit:1;" x1="156.919" y1="68.133" x2="158.235" y2="72.412"/>
	<line style="fill:none;stroke:#000000;stroke-miterlimit:1;" x1="158.235" y1="72.412" x2="158.894" y2="75.373"/>
	<line style="fill:none;stroke:#000000;stroke-miterlimit:1;" x1="158.894" y1="75.373" x2="159.552" y2="79.324"/>
	<line style="fill:none;stroke:#000000;stroke-miterlimit:1;" x1="159.552" y1="79.324" x2="159.552" y2="83.932"/>
	<line style="fill:none;stroke:#000000;stroke-miterlimit:1;" x1="159.552" y1="83.932" x2="159.223" y2="88.539"/>
	<line style="fill:none;stroke:#000000;stroke-miterlimit:1;" x1="159.223" y1="88.539" x2="158.235" y2="92.16"/>
	<line style="fill:none;stroke:#000000;stroke-miterlimit:1;" x1="158.235" y1="92.16" x2="156.919" y2="95.123"/>
	<line style="fill:none;stroke:#000000;stroke-miterlimit:1;" x1="156.919" y1="95.123" x2="154.944" y2="98.414"/>
	<line style="fill:none;stroke:#000000;stroke-miterlimit:1;" x1="154.944" y1="98.414" x2="152.969" y2="100.717"/>
	<line style="fill:none;stroke:#000000;stroke-miterlimit:1;" x1="152.969" y1="100.717" x2="149.678" y2="103.68"/>
	<line style="fill:none;stroke:#000000;stroke-miterlimit:1;" x1="149.678" y1="103.68" x2="146.386" y2="105.326"/>
	<line style="fill:none;stroke:#000000;stroke-miterlimit:1;" x1="146.386" y1="105.326" x2="142.766" y2="106.971"/>
	<line style="fill:none;stroke:#000000;stroke-miterlimit:1;" x1="142.766" y1="106.971" x2="139.145" y2="107.629"/>
	<line style="fill:none;stroke:#000000;stroke-miterlimit:1;" x1="139.145" y1="107.629" x2="134.537" y2="107.959"/>
	<line style="fill:none;stroke:#000000;stroke-miterlimit:1;" x1="134.537" y1="107.959" x2="129.271" y2="107.301"/>
	<line style="fill:none;stroke:#000000;stroke-miterlimit:1;" x1="129.271" y1="107.301" x2="125.321" y2="105.984"/>
	<line style="fill:none;stroke:#000000;stroke-miterlimit:1;" x1="125.321" y1="105.984" x2="120.713" y2="104.338"/>
	<line style="fill:none;stroke:#000000;stroke-miterlimit:1;" x1="120.713" y1="104.338" x2="116.105" y2="101.705"/>
	<line style="fill:none;stroke:#000000;stroke-miterlimit:1;" x1="116.105" y1="101.705" x2="112.813" y2="99.4"/>
	<line style="fill:none;stroke:#000000;stroke-miterlimit:1;" x1="112.813" y1="99.4" x2="108.864" y2="95.781"/>
	<line style="fill:none;stroke:#000000;stroke-miterlimit:1;" x1="108.864" y1="95.781" x2="106.231" y2="92.488"/>
	<line style="fill:none;stroke:#000000;stroke-miterlimit:1;" x1="106.231" y1="92.488" x2="102.939" y2="88.539"/>
	<line style="fill:none;stroke:#000000;stroke-miterlimit:1;" x1="102.939" y1="88.539" x2="99.648" y2="84.26"/>
	<line style="fill:none;stroke:#000000;stroke-miterlimit:1;" x1="99.648" y1="84.26" x2="97.344" y2="80.641"/>
	<line style="fill:none;stroke:#000000;stroke-miterlimit:1;" x1="97.344" y1="80.641" x2="95.698" y2="77.348"/>
	<line style="fill:none;stroke:#000000;stroke-miterlimit:1;" x1="95.698" y1="77.348" x2="93.723" y2="73.399"/>
	<line style="fill:none;stroke:#000000;stroke-miterlimit:1;" x1="93.723" y1="73.399" x2="92.407" y2="69.449"/>
	<line style="fill:none;stroke:#000000;stroke-miterlimit:1;" x1="92.407" y1="69.449" x2="91.419" y2="64.183"/>
	<line style="fill:none;stroke:#000000;stroke-miterlimit:1;" x1="91.419" y1="64.183" x2="91.09" y2="59.246"/>
	<line style="fill:none;stroke:#000000;stroke-miterlimit:1;" x1="91.09" y1="59.246" x2="91.419" y2="51.017"/>
	<line style="fill:none;stroke:#000000;stroke-miterlimit:1;" x1="91.419" y1="51.017" x2="92.407" y2="47.726"/>
	<line style="fill:none;stroke:#000000;stroke-miterlimit:1;" x1="92.407" y1="47.726" x2="93.723" y2="44.434"/>
	<line style="fill:none;stroke:#000000;stroke-miterlimit:1;" x1="93.723" y1="44.434" x2="95.698" y2="41.472"/>
	<line style="fill:none;stroke:#000000;stroke-miterlimit:1;" x1="95.698" y1="41.472" x2="98.332" y2="39.168"/>
	<line style="fill:none;stroke:#000000;stroke-miterlimit:1;" x1="98.332" y1="39.168" x2="101.293" y2="36.535"/>
	<line style="fill:none;stroke:#000000;stroke-miterlimit:1;" x1="101.293" y1="36.535" x2="105.572" y2="34.56"/>
	<line style="fill:none;stroke:#000000;stroke-miterlimit:1;" x1="105.572" y1="34.56" x2="108.206" y2="33.902"/>
	<line style="fill:none;stroke:#000000;stroke-miterlimit:1;" x1="108.206" y1="33.902" x2="112.155" y2="33.902"/>
	<line style="fill:none;stroke:#000000;stroke-miterlimit:1;" x1="112.155" y1="33.902" x2="116.763" y2="34.56"/>
	<line style="fill:none;stroke:#000000;stroke-miterlimit:1;" x1="116.763" y1="34.56" x2="121.042" y2="35.218"/>
	<line style="fill:none;stroke:#000000;stroke-miterlimit:1;" x1="121.042" y1="35.218" x2="125.979" y2="36.864"/>
	<line style="fill:none;stroke:#000000;stroke-miterlimit:1;" x1="125.979" y1="36.864" x2="130.587" y2="38.839"/>
	<line style="fill:none;stroke:#000000;stroke-miterlimit:1;" x1="130.587" y1="38.839" x2="133.879" y2="40.814"/>
	<line style="fill:none;stroke:#000000;stroke-miterlimit:1;" x1="133.879" y1="40.814" x2="137.17" y2="42.789"/>
	<line style="fill:none;stroke:#000000;stroke-miterlimit:1;" x1="137.17" y1="42.789" x2="140.461" y2="45.751"/>
	<line style="fill:none;stroke:#000000;stroke-miterlimit:1;" x1="140.461" y1="45.751" x2="144.082" y2="49.372"/>
	<line style="fill:none;stroke:#000000;stroke-miterlimit:1;" x1="144.082" y1="49.372" x2="147.044" y2="52.992"/>
	<line style="fill:none;stroke:#000000;stroke-miterlimit:1;" x1="147.044" y1="52.992" x2="149.678" y2="56.284"/>
	<line style="fill:none;stroke:#000000;stroke-miterlimit:1;" x1="149.678" y1="56.284" x2="150.994" y2="57.6"/>
	<line style="fill:none;stroke:#000000;stroke-miterlimit:1;" x1="153.298" y1="60.892" x2="154.944" y2="59.246"/>
	<line style="fill:none;stroke:#000000;stroke-miterlimit:1;" x1="154.944" y1="59.246" x2="156.919" y2="57.271"/>
	<line style="fill:none;stroke:#000000;stroke-miterlimit:1;" x1="156.919" y1="57.271" x2="157.577" y2="55.625"/>
	<line style="fill:none;stroke:#000000;stroke-miterlimit:1;" x1="157.577" y1="55.625" x2="158.564" y2="52.004"/>
	<line style="fill:none;stroke:#000000;stroke-miterlimit:1;" x1="158.564" y1="52.004" x2="158.235" y2="49.042"/>
	<line style="fill:none;stroke:#000000;stroke-miterlimit:1;" x1="158.235" y1="49.042" x2="157.577" y2="46.409"/>
	<line style="fill:none;stroke:#000000;stroke-miterlimit:1;" x1="157.577" y1="46.409" x2="156.919" y2="44.434"/>
	<line style="fill:none;stroke:#000000;stroke-miterlimit:1;" x1="156.919" y1="44.434" x2="155.602" y2="43.118"/>
	<line style="fill:none;stroke:#000000;stroke-miterlimit:1;" x1="155.602" y1="43.118" x2="153.957" y2="41.143"/>
	<line style="fill:none;stroke:#000000;stroke-miterlimit:1;" x1="153.957" y1="41.143" x2="152.311" y2="39.826"/>
	<line style="fill:none;stroke:#000000;stroke-miterlimit:1;" x1="152.311" y1="39.826" x2="149.02" y2="38.51"/>
	<line style="fill:none;stroke:#000000;stroke-miterlimit:1;" x1="149.02" y1="38.51" x2="147.044" y2="38.51"/>
	<line style="fill:none;stroke:#000000;stroke-miterlimit:1;" x1="147.044" y1="38.51" x2="144.082" y2="38.51"/>
	<line style="fill:none;stroke:#000000;stroke-miterlimit:1;" x1="144.082" y1="38.51" x2="141.12" y2="39.826"/>
	<line style="fill:none;stroke:#000000;stroke-miterlimit:1;" x1="141.12" y1="39.826" x2="138.487" y2="41.472"/>
	<line style="fill:none;stroke:#000000;stroke-miterlimit:1;" x1="138.487" y1="41.472" x2="137.17" y2="42.459"/>
	<line style="fill:none;stroke:#000000;stroke-miterlimit:1;" x1="109.522" y1="96.439" x2="107.547" y2="97.756"/>
	<line style="fill:none;stroke:#000000;stroke-miterlimit:1;" x1="107.547" y1="97.756" x2="104.914" y2="99.072"/>
	<line style="fill:none;stroke:#000000;stroke-miterlimit:1;" x1="104.914" y1="99.072" x2="102.939" y2="99.73"/>
	<line style="fill:none;stroke:#000000;stroke-miterlimit:1;" x1="102.939" y1="99.73" x2="99.648" y2="99.73"/>
	<line style="fill:none;stroke:#000000;stroke-miterlimit:1;" x1="99.648" y1="99.73" x2="96.356" y2="99.072"/>
	<line style="fill:none;stroke:#000000;stroke-miterlimit:1;" x1="96.356" y1="99.072" x2="94.382" y2="97.756"/>
	<line style="fill:none;stroke:#000000;stroke-miterlimit:1;" x1="94.382" y1="97.756" x2="92.736" y2="96.439"/>
	<line style="fill:none;stroke:#000000;stroke-miterlimit:1;" x1="92.736" y1="96.439" x2="91.749" y2="95.123"/>
	<line style="fill:none;stroke:#000000;stroke-miterlimit:1;" x1="91.749" y1="95.123" x2="90.103" y2="93.146"/>
	<line style="fill:none;stroke:#000000;stroke-miterlimit:1;" x1="90.103" y1="93.146" x2="89.115" y2="90.844"/>
	<line style="fill:none;stroke:#000000;stroke-miterlimit:1;" x1="89.115" y1="90.844" x2="88.457" y2="87.553"/>
	<line style="fill:none;stroke:#000000;stroke-miterlimit:1;" x1="88.457" y1="87.553" x2="88.786" y2="85.248"/>
	<line style="fill:none;stroke:#000000;stroke-miterlimit:1;" x1="88.786" y1="85.248" x2="89.773" y2="82.615"/>
	<line style="fill:none;stroke:#000000;stroke-miterlimit:1;" x1="89.773" y1="82.615" x2="91.09" y2="79.982"/>
	<line style="fill:none;stroke:#000000;stroke-miterlimit:1;" x1="91.09" y1="79.982" x2="93.394" y2="77.678"/>
	<line style="fill:none;stroke:#000000;stroke-miterlimit:1;" x1="93.394" y1="77.678" x2="95.04" y2="76.689"/>
</g>
</svg>
