<?xml version="1.0" encoding="iso-8859-1"?>
<!-- Generator: Adobe Illustrator 16.0.1, SVG Export Plug-In . SVG Version: 6.00 Build 0)  -->
<!DOCTYPE svg PUBLIC "-//W3C//DTD SVG 1.1//EN" "http://www.w3.org/Graphics/SVG/1.1/DTD/svg11.dtd">
<svg version="1.1" id="Ebene_1" xmlns="http://www.w3.org/2000/svg" xmlns:xlink="http://www.w3.org/1999/xlink" x="0px" y="0px"
	 width="300.343px" height="117.514px" viewBox="0 0 300.343 117.514" style="enable-background:new 0 0 300.343 117.514;"
	 xml:space="preserve">
<g>
	<line style="fill:none;stroke:#000000;stroke-miterlimit:1;" x1="33.171" y1="64.029" x2="30.857" y2="113.4"/>
	<line style="fill:none;stroke:#000000;stroke-miterlimit:1;" x1="30.857" y1="113.4" x2="32.143" y2="115.457"/>
	<line style="fill:none;stroke:#000000;stroke-miterlimit:1;" x1="32.143" y1="115.457" x2="34.714" y2="115.971"/>
	<line style="fill:none;stroke:#000000;stroke-miterlimit:1;" x1="34.714" y1="115.971" x2="36" y2="115.715"/>
	<line style="fill:none;stroke:#000000;stroke-miterlimit:1;" x1="36" y1="115.715" x2="37.542" y2="114.428"/>
	<line style="fill:none;stroke:#000000;stroke-miterlimit:1;" x1="37.542" y1="114.428" x2="35.485" y2="63.771"/>
	<line style="fill:none;stroke:#000000;stroke-miterlimit:1;" x1="47.057" y1="63.514" x2="22.886" y2="63.514"/>
	<line style="fill:none;stroke:#000000;stroke-miterlimit:1;" x1="22.886" y1="63.514" x2="24.171" y2="44.743"/>
	<line style="fill:none;stroke:#000000;stroke-miterlimit:1;" x1="24.171" y1="44.743" x2="24.943" y2="41.143"/>
	<line style="fill:none;stroke:#000000;stroke-miterlimit:1;" x1="24.943" y1="41.143" x2="26.229" y2="38.314"/>
	<line style="fill:none;stroke:#000000;stroke-miterlimit:1;" x1="26.229" y1="38.314" x2="28.028" y2="36.257"/>
	<line style="fill:none;stroke:#000000;stroke-miterlimit:1;" x1="28.028" y1="36.257" x2="30.6" y2="34.457"/>
	<line style="fill:none;stroke:#000000;stroke-miterlimit:1;" x1="30.6" y1="34.457" x2="34.457" y2="33.943"/>
	<line style="fill:none;stroke:#000000;stroke-miterlimit:1;" x1="34.457" y1="33.943" x2="38.057" y2="34.457"/>
	<line style="fill:none;stroke:#000000;stroke-miterlimit:1;" x1="38.057" y1="34.457" x2="40.371" y2="34.971"/>
	<line style="fill:none;stroke:#000000;stroke-miterlimit:1;" x1="40.371" y1="34.971" x2="42.171" y2="36"/>
	<line style="fill:none;stroke:#000000;stroke-miterlimit:1;" x1="42.171" y1="36" x2="44.229" y2="38.314"/>
	<line style="fill:none;stroke:#000000;stroke-miterlimit:1;" x1="44.229" y1="38.314" x2="45" y2="40.886"/>
	<line style="fill:none;stroke:#000000;stroke-miterlimit:1;" x1="45" y1="40.886" x2="47.057" y2="63.514"/>
	<line style="fill:none;stroke:#000000;stroke-miterlimit:1;" x1="25.971" y1="38.314" x2="27.514" y2="3.343"/>
	<line style="fill:none;stroke:#000000;stroke-miterlimit:1;" x1="27.514" y1="3.343" x2="28.542" y2="1.543"/>
	<line style="fill:none;stroke:#000000;stroke-miterlimit:1;" x1="28.542" y1="1.543" x2="29.829" y2="0.514"/>
	<line style="fill:none;stroke:#000000;stroke-miterlimit:1;" x1="29.829" y1="0.514" x2="31.628" y2="0.257"/>
	<line style="fill:none;stroke:#000000;stroke-miterlimit:1;" x1="31.628" y1="0.257" x2="33.171" y2="0.514"/>
	<line style="fill:none;stroke:#000000;stroke-miterlimit:1;" x1="33.171" y1="0.514" x2="34.457" y2="1.543"/>
	<line style="fill:none;stroke:#000000;stroke-miterlimit:1;" x1="34.457" y1="1.543" x2="34.714" y2="2.314"/>
	<line style="fill:none;stroke:#000000;stroke-miterlimit:1;" x1="34.714" y1="2.314" x2="34.714" y2="24.943"/>
	<line style="fill:none;stroke:#000000;stroke-miterlimit:1;" x1="34.714" y1="2.829" x2="35.229" y2="1.286"/>
	<line style="fill:none;stroke:#000000;stroke-miterlimit:1;" x1="35.229" y1="1.286" x2="36.257" y2="0.514"/>
	<line style="fill:none;stroke:#000000;stroke-miterlimit:1;" x1="36.257" y1="0.514" x2="38.571" y2="0.257"/>
	<line style="fill:none;stroke:#000000;stroke-miterlimit:1;" x1="38.571" y1="0.257" x2="40.886" y2="1.286"/>
	<line style="fill:none;stroke:#000000;stroke-miterlimit:1;" x1="40.886" y1="1.286" x2="41.657" y2="2.314"/>
	<line style="fill:none;stroke:#000000;stroke-miterlimit:1;" x1="41.657" y1="2.314" x2="43.457" y2="37.8"/>
	<line style="fill:none;stroke:#000000;stroke-miterlimit:1;" x1="34.457" y1="33.943" x2="33.428" y2="33.686"/>
	<line style="fill:none;stroke:#000000;stroke-miterlimit:1;" x1="33.428" y1="33.686" x2="32.4" y2="33.429"/>
	<line style="fill:none;stroke:#000000;stroke-miterlimit:1;" x1="32.4" y1="33.429" x2="31.114" y2="32.4"/>
	<line style="fill:none;stroke:#000000;stroke-miterlimit:1;" x1="31.114" y1="32.4" x2="30.085" y2="30.857"/>
	<line style="fill:none;stroke:#000000;stroke-miterlimit:1;" x1="30.085" y1="30.857" x2="30.085" y2="29.314"/>
	<line style="fill:none;stroke:#000000;stroke-miterlimit:1;" x1="30.085" y1="29.314" x2="30.085" y2="28.029"/>
	<line style="fill:none;stroke:#000000;stroke-miterlimit:1;" x1="30.085" y1="28.029" x2="30.857" y2="26.743"/>
	<line style="fill:none;stroke:#000000;stroke-miterlimit:1;" x1="30.857" y1="26.743" x2="31.628" y2="25.971"/>
	<line style="fill:none;stroke:#000000;stroke-miterlimit:1;" x1="31.628" y1="25.971" x2="32.657" y2="25.457"/>
	<line style="fill:none;stroke:#000000;stroke-miterlimit:1;" x1="32.657" y1="25.457" x2="33.686" y2="25.2"/>
	<line style="fill:none;stroke:#000000;stroke-miterlimit:1;" x1="33.686" y1="25.2" x2="34.714" y2="25.2"/>
	<line style="fill:none;stroke:#000000;stroke-miterlimit:1;" x1="34.714" y1="25.2" x2="36.771" y2="25.714"/>
	<line style="fill:none;stroke:#000000;stroke-miterlimit:1;" x1="36.771" y1="25.714" x2="38.314" y2="26.743"/>
	<line style="fill:none;stroke:#000000;stroke-miterlimit:1;" x1="38.314" y1="26.743" x2="38.829" y2="28.543"/>
	<line style="fill:none;stroke:#000000;stroke-miterlimit:1;" x1="38.829" y1="28.543" x2="38.829" y2="29.314"/>
	<line style="fill:none;stroke:#000000;stroke-miterlimit:1;" x1="38.829" y1="29.314" x2="38.829" y2="30.6"/>
	<line style="fill:none;stroke:#000000;stroke-miterlimit:1;" x1="38.829" y1="30.6" x2="38.571" y2="31.886"/>
	<line style="fill:none;stroke:#000000;stroke-miterlimit:1;" x1="38.571" y1="31.886" x2="37.542" y2="32.915"/>
	<line style="fill:none;stroke:#000000;stroke-miterlimit:1;" x1="37.542" y1="32.915" x2="36.771" y2="33.171"/>
	<line style="fill:none;stroke:#000000;stroke-miterlimit:1;" x1="36.771" y1="33.171" x2="36.257" y2="33.429"/>
	<line style="fill:none;stroke:#000000;stroke-miterlimit:1;" x1="36.257" y1="33.429" x2="34.714" y2="33.943"/>
	<line style="fill:none;stroke:#000000;stroke-miterlimit:1;" x1="34.714" y1="33.943" x2="34.457" y2="33.943"/>
	<line style="fill:none;stroke:#000000;stroke-miterlimit:1;" x1="7.714" y1="16.971" x2="5.657" y2="18"/>
	<line style="fill:none;stroke:#000000;stroke-miterlimit:1;" x1="5.657" y1="18" x2="4.371" y2="19.286"/>
	<line style="fill:none;stroke:#000000;stroke-miterlimit:1;" x1="4.371" y1="19.286" x2="3.343" y2="20.571"/>
	<line style="fill:none;stroke:#000000;stroke-miterlimit:1;" x1="3.343" y1="20.571" x2="2.829" y2="23.143"/>
	<line style="fill:none;stroke:#000000;stroke-miterlimit:1;" x1="2.829" y1="23.143" x2="2.829" y2="24.943"/>
	<line style="fill:none;stroke:#000000;stroke-miterlimit:1;" x1="2.829" y1="24.943" x2="3.085" y2="26.486"/>
	<line style="fill:none;stroke:#000000;stroke-miterlimit:1;" x1="3.085" y1="26.486" x2="4.114" y2="30.6"/>
	<line style="fill:none;stroke:#000000;stroke-miterlimit:1;" x1="4.114" y1="30.6" x2="4.371" y2="34.2"/>
	<line style="fill:none;stroke:#000000;stroke-miterlimit:1;" x1="4.371" y1="34.2" x2="4.628" y2="36.771"/>
	<line style="fill:none;stroke:#000000;stroke-miterlimit:1;" x1="4.628" y1="36.771" x2="4.371" y2="41.4"/>
	<line style="fill:none;stroke:#000000;stroke-miterlimit:1;" x1="4.371" y1="41.4" x2="4.114" y2="42.943"/>
	<line style="fill:none;stroke:#000000;stroke-miterlimit:1;" x1="4.114" y1="42.943" x2="3.857" y2="44.229"/>
	<line style="fill:none;stroke:#000000;stroke-miterlimit:1;" x1="3.857" y1="44.229" x2="3.857" y2="47.057"/>
	<line style="fill:none;stroke:#000000;stroke-miterlimit:1;" x1="3.857" y1="47.057" x2="4.886" y2="50.4"/>
	<line style="fill:none;stroke:#000000;stroke-miterlimit:1;" x1="4.886" y1="50.4" x2="6.428" y2="51.943"/>
	<line style="fill:none;stroke:#000000;stroke-miterlimit:1;" x1="6.428" y1="51.943" x2="9.257" y2="52.714"/>
	<line style="fill:none;stroke:#000000;stroke-miterlimit:1;" x1="9.257" y1="52.714" x2="18" y2="51.686"/>
	<line style="fill:none;stroke:#000000;stroke-miterlimit:1;" x1="18" y1="51.686" x2="23.657" y2="51.171"/>
	<line style="fill:none;stroke:#000000;stroke-miterlimit:1;" x1="46.286" y1="53.229" x2="47.571" y2="53.743"/>
	<line style="fill:none;stroke:#000000;stroke-miterlimit:1;" x1="47.571" y1="53.743" x2="50.657" y2="56.057"/>
	<line style="fill:none;stroke:#000000;stroke-miterlimit:1;" x1="50.657" y1="56.057" x2="52.971" y2="59.914"/>
	<line style="fill:none;stroke:#000000;stroke-miterlimit:1;" x1="52.971" y1="59.914" x2="54" y2="66.857"/>
	<line style="fill:none;stroke:#000000;stroke-miterlimit:1;" x1="54" y1="66.857" x2="54" y2="75.857"/>
	<line style="fill:none;stroke:#000000;stroke-miterlimit:1;" x1="54" y1="75.857" x2="52.971" y2="83.314"/>
	<line style="fill:none;stroke:#000000;stroke-miterlimit:1;" x1="52.971" y1="83.314" x2="52.971" y2="87.686"/>
	<line style="fill:none;stroke:#000000;stroke-miterlimit:1;" x1="52.971" y1="87.686" x2="53.743" y2="91.801"/>
	<line style="fill:none;stroke:#000000;stroke-miterlimit:1;" x1="53.743" y1="91.801" x2="56.571" y2="98.229"/>
	<line style="fill:none;stroke:#000000;stroke-miterlimit:1;" x1="56.571" y1="98.229" x2="59.914" y2="102.344"/>
	<line style="fill:none;stroke:#000000;stroke-miterlimit:1;" x1="59.914" y1="102.344" x2="62.485" y2="104.4"/>
	<line style="fill:none;stroke:#000000;stroke-miterlimit:1;" x1="62.485" y1="104.4" x2="63.257" y2="104.143"/>
	<line style="fill:none;stroke:#000000;stroke-miterlimit:1;" x1="63.257" y1="104.143" x2="63.514" y2="102.857"/>
	<line style="fill:none;stroke:#000000;stroke-miterlimit:1;" x1="63.514" y1="102.857" x2="60.428" y2="97.199"/>
	<line style="fill:none;stroke:#000000;stroke-miterlimit:1;" x1="60.428" y1="97.199" x2="58.886" y2="91.029"/>
	<line style="fill:none;stroke:#000000;stroke-miterlimit:1;" x1="58.886" y1="91.029" x2="58.371" y2="85.371"/>
	<line style="fill:none;stroke:#000000;stroke-miterlimit:1;" x1="58.371" y1="85.371" x2="58.628" y2="76.371"/>
	<line style="fill:none;stroke:#000000;stroke-miterlimit:1;" x1="58.628" y1="76.371" x2="60.428" y2="66.857"/>
	<line style="fill:none;stroke:#000000;stroke-miterlimit:1;" x1="60.428" y1="66.857" x2="60.428" y2="60.172"/>
	<line style="fill:none;stroke:#000000;stroke-miterlimit:1;" x1="60.428" y1="60.172" x2="58.886" y2="53.486"/>
	<line style="fill:none;stroke:#000000;stroke-miterlimit:1;" x1="58.886" y1="53.486" x2="57.343" y2="51.171"/>
	<line style="fill:none;stroke:#000000;stroke-miterlimit:1;" x1="57.343" y1="51.171" x2="55.542" y2="48.857"/>
	<line style="fill:none;stroke:#000000;stroke-miterlimit:1;" x1="55.542" y1="48.857" x2="52.2" y2="47.057"/>
	<line style="fill:none;stroke:#000000;stroke-miterlimit:1;" x1="52.2" y1="47.057" x2="48.343" y2="45.514"/>
	<line style="fill:none;stroke:#000000;stroke-miterlimit:1;" x1="48.343" y1="45.514" x2="45.257" y2="44.743"/>
	<line style="fill:none;stroke:#000000;stroke-miterlimit:1;" x1="23.914" y1="44.743" x2="15.943" y2="46.029"/>
	<line style="fill:none;stroke:#000000;stroke-miterlimit:1;" x1="15.943" y1="46.029" x2="12.343" y2="46.543"/>
	<line style="fill:none;stroke:#000000;stroke-miterlimit:1;" x1="12.343" y1="46.543" x2="10.542" y2="46.286"/>
	<line style="fill:none;stroke:#000000;stroke-miterlimit:1;" x1="10.542" y1="46.286" x2="9.771" y2="45.514"/>
	<line style="fill:none;stroke:#000000;stroke-miterlimit:1;" x1="9.771" y1="45.514" x2="9.514" y2="42.943"/>
	<line style="fill:none;stroke:#000000;stroke-miterlimit:1;" x1="9.514" y1="42.943" x2="9.514" y2="41.657"/>
	<line style="fill:none;stroke:#000000;stroke-miterlimit:1;" x1="9.514" y1="41.657" x2="9.771" y2="40.372"/>
	<line style="fill:none;stroke:#000000;stroke-miterlimit:1;" x1="9.771" y1="40.372" x2="11.057" y2="37.029"/>
	<line style="fill:none;stroke:#000000;stroke-miterlimit:1;" x1="11.057" y1="37.029" x2="13.371" y2="31.886"/>
	<line style="fill:none;stroke:#000000;stroke-miterlimit:1;" x1="13.371" y1="31.886" x2="14.914" y2="29.057"/>
	<line style="fill:none;stroke:#000000;stroke-miterlimit:1;" x1="14.914" y1="29.057" x2="15.686" y2="27.257"/>
	<line style="fill:none;stroke:#000000;stroke-miterlimit:1;" x1="15.686" y1="27.257" x2="16.2" y2="25.457"/>
	<line style="fill:none;stroke:#000000;stroke-miterlimit:1;" x1="16.2" y1="25.457" x2="16.714" y2="22.372"/>
	<line style="fill:none;stroke:#000000;stroke-miterlimit:1;" x1="16.714" y1="22.372" x2="16.2" y2="20.057"/>
	<line style="fill:none;stroke:#000000;stroke-miterlimit:1;" x1="16.2" y1="20.057" x2="15.428" y2="18.514"/>
	<line style="fill:none;stroke:#000000;stroke-miterlimit:1;" x1="15.428" y1="18.514" x2="13.371" y2="15.943"/>
	<line style="fill:none;stroke:#000000;stroke-miterlimit:1;" x1="13.371" y1="15.943" x2="11.314" y2="14.143"/>
	<line style="fill:none;stroke:#000000;stroke-miterlimit:1;" x1="11.314" y1="14.143" x2="9" y2="12.343"/>
	<line style="fill:none;stroke:#000000;stroke-miterlimit:1;" x1="9" y1="12.343" x2="7.2" y2="11.829"/>
	<line style="fill:none;stroke:#000000;stroke-miterlimit:1;" x1="7.2" y1="11.829" x2="5.914" y2="11.829"/>
	<line style="fill:none;stroke:#000000;stroke-miterlimit:1;" x1="5.914" y1="11.829" x2="4.114" y2="12.086"/>
	<line style="fill:none;stroke:#000000;stroke-miterlimit:1;" x1="4.114" y1="12.086" x2="3.6" y2="12.343"/>
	<line style="fill:none;stroke:#000000;stroke-miterlimit:1;" x1="3.6" y1="12.343" x2="2.829" y2="12.6"/>
	<line style="fill:none;stroke:#000000;stroke-miterlimit:1;" x1="2.829" y1="12.6" x2="1.8" y2="13.114"/>
	<line style="fill:none;stroke:#000000;stroke-miterlimit:1;" x1="1.8" y1="13.114" x2="0.771" y2="13.886"/>
	<line style="fill:none;stroke:#000000;stroke-miterlimit:1;" x1="0.771" y1="13.886" x2="0.257" y2="14.657"/>
	<line style="fill:none;stroke:#000000;stroke-miterlimit:1;" x1="0.257" y1="14.657" x2="0" y2="15.429"/>
	<line style="fill:none;stroke:#000000;stroke-miterlimit:1;" x1="0" y1="15.429" x2="0" y2="16.2"/>
	<line style="fill:none;stroke:#000000;stroke-miterlimit:1;" x1="0" y1="16.2" x2="0.257" y2="16.971"/>
	<line style="fill:none;stroke:#000000;stroke-miterlimit:1;" x1="0.257" y1="16.971" x2="0.771" y2="17.229"/>
	<line style="fill:none;stroke:#000000;stroke-miterlimit:1;" x1="0.771" y1="17.229" x2="1.8" y2="17.486"/>
	<line style="fill:none;stroke:#000000;stroke-miterlimit:1;" x1="1.8" y1="17.486" x2="3.857" y2="17.229"/>
	<line style="fill:none;stroke:#000000;stroke-miterlimit:1;" x1="3.857" y1="17.229" x2="6.686" y2="16.971"/>
	<line style="fill:none;stroke:#000000;stroke-miterlimit:1;" x1="6.686" y1="16.971" x2="8.485" y2="16.714"/>
	<line style="fill:none;stroke:#000000;stroke-miterlimit:1;" x1="8.485" y1="16.714" x2="9.514" y2="16.714"/>
	<line style="fill:none;stroke:#000000;stroke-miterlimit:1;" x1="3.857" y1="14.657" x2="4.114" y2="14.657"/>
	<line style="fill:none;stroke:#000000;stroke-miterlimit:1;" x1="4.114" y1="14.657" x2="4.371" y2="14.4"/>
	<line style="fill:none;stroke:#000000;stroke-miterlimit:1;" x1="4.371" y1="14.4" x2="4.371" y2="14.143"/>
	<line style="fill:none;stroke:#000000;stroke-miterlimit:1;" x1="4.371" y1="14.143" x2="4.114" y2="14.143"/>
	<line style="fill:none;stroke:#000000;stroke-miterlimit:1;" x1="4.114" y1="14.143" x2="3.6" y2="14.143"/>
	<line style="fill:none;stroke:#000000;stroke-miterlimit:1;" x1="3.6" y1="14.143" x2="3.6" y2="14.4"/>
	<line style="fill:none;stroke:#000000;stroke-miterlimit:1;" x1="3.6" y1="14.4" x2="3.6" y2="14.657"/>
	<line style="fill:none;stroke:#000000;stroke-miterlimit:1;" x1="3.6" y1="14.657" x2="3.857" y2="14.657"/>
	<line style="fill:none;stroke:#000000;stroke-miterlimit:1;" x1="177.942" y1="18.514" x2="180" y2="21.086"/>
	<line style="fill:none;stroke:#000000;stroke-miterlimit:1;" x1="180" y1="21.086" x2="182.057" y2="24.171"/>
	<line style="fill:none;stroke:#000000;stroke-miterlimit:1;" x1="182.057" y1="24.171" x2="182.828" y2="26.743"/>
	<line style="fill:none;stroke:#000000;stroke-miterlimit:1;" x1="182.828" y1="26.743" x2="184.114" y2="30.086"/>
	<line style="fill:none;stroke:#000000;stroke-miterlimit:1;" x1="184.114" y1="30.086" x2="184.628" y2="32.4"/>
	<line style="fill:none;stroke:#000000;stroke-miterlimit:1;" x1="184.628" y1="32.4" x2="184.886" y2="35.486"/>
	<line style="fill:none;stroke:#000000;stroke-miterlimit:1;" x1="184.886" y1="35.486" x2="185.143" y2="39.086"/>
	<line style="fill:none;stroke:#000000;stroke-miterlimit:1;" x1="185.143" y1="39.086" x2="184.628" y2="42.686"/>
	<line style="fill:none;stroke:#000000;stroke-miterlimit:1;" x1="184.628" y1="42.686" x2="183.857" y2="45.514"/>
	<line style="fill:none;stroke:#000000;stroke-miterlimit:1;" x1="183.857" y1="45.514" x2="182.828" y2="47.829"/>
	<line style="fill:none;stroke:#000000;stroke-miterlimit:1;" x1="182.828" y1="47.829" x2="181.543" y2="50.4"/>
	<line style="fill:none;stroke:#000000;stroke-miterlimit:1;" x1="181.543" y1="50.4" x2="179.743" y2="52.2"/>
	<line style="fill:none;stroke:#000000;stroke-miterlimit:1;" x1="179.743" y1="52.2" x2="177.429" y2="54.514"/>
	<line style="fill:none;stroke:#000000;stroke-miterlimit:1;" x1="177.429" y1="54.514" x2="174.857" y2="55.8"/>
	<line style="fill:none;stroke:#000000;stroke-miterlimit:1;" x1="174.857" y1="55.8" x2="171.771" y2="57.086"/>
	<line style="fill:none;stroke:#000000;stroke-miterlimit:1;" x1="171.771" y1="57.086" x2="168.686" y2="57.6"/>
	<line style="fill:none;stroke:#000000;stroke-miterlimit:1;" x1="168.686" y1="57.6" x2="165.6" y2="57.857"/>
	<line style="fill:none;stroke:#000000;stroke-miterlimit:1;" x1="165.6" y1="57.857" x2="161.229" y2="57.343"/>
	<line style="fill:none;stroke:#000000;stroke-miterlimit:1;" x1="161.229" y1="57.343" x2="158.143" y2="56.314"/>
	<line style="fill:none;stroke:#000000;stroke-miterlimit:1;" x1="158.143" y1="56.314" x2="154.543" y2="55.029"/>
	<line style="fill:none;stroke:#000000;stroke-miterlimit:1;" x1="154.543" y1="55.029" x2="151.2" y2="52.971"/>
	<line style="fill:none;stroke:#000000;stroke-miterlimit:1;" x1="151.2" y1="52.971" x2="148.628" y2="51.171"/>
	<line style="fill:none;stroke:#000000;stroke-miterlimit:1;" x1="148.628" y1="51.171" x2="145.286" y2="48.343"/>
	<line style="fill:none;stroke:#000000;stroke-miterlimit:1;" x1="145.286" y1="48.343" x2="143.485" y2="45.771"/>
	<line style="fill:none;stroke:#000000;stroke-miterlimit:1;" x1="143.485" y1="45.771" x2="140.657" y2="42.686"/>
	<line style="fill:none;stroke:#000000;stroke-miterlimit:1;" x1="140.657" y1="42.686" x2="138.343" y2="39.343"/>
	<line style="fill:none;stroke:#000000;stroke-miterlimit:1;" x1="138.343" y1="39.343" x2="136.286" y2="36.514"/>
	<line style="fill:none;stroke:#000000;stroke-miterlimit:1;" x1="136.286" y1="36.514" x2="134.743" y2="33.943"/>
	<line style="fill:none;stroke:#000000;stroke-miterlimit:1;" x1="134.743" y1="33.943" x2="133.457" y2="30.857"/>
	<line style="fill:none;stroke:#000000;stroke-miterlimit:1;" x1="133.457" y1="30.857" x2="132.428" y2="27.771"/>
	<line style="fill:none;stroke:#000000;stroke-miterlimit:1;" x1="132.428" y1="27.771" x2="131.657" y2="23.657"/>
	<line style="fill:none;stroke:#000000;stroke-miterlimit:1;" x1="131.657" y1="23.657" x2="131.4" y2="19.8"/>
	<line style="fill:none;stroke:#000000;stroke-miterlimit:1;" x1="131.4" y1="19.8" x2="131.657" y2="13.372"/>
	<line style="fill:none;stroke:#000000;stroke-miterlimit:1;" x1="131.657" y1="13.372" x2="132.428" y2="10.8"/>
	<line style="fill:none;stroke:#000000;stroke-miterlimit:1;" x1="132.428" y1="10.8" x2="133.714" y2="8.229"/>
	<line style="fill:none;stroke:#000000;stroke-miterlimit:1;" x1="133.714" y1="8.229" x2="135.257" y2="5.915"/>
	<line style="fill:none;stroke:#000000;stroke-miterlimit:1;" x1="135.257" y1="5.915" x2="137.314" y2="4.114"/>
	<line style="fill:none;stroke:#000000;stroke-miterlimit:1;" x1="137.314" y1="4.114" x2="139.371" y2="2.057"/>
	<line style="fill:none;stroke:#000000;stroke-miterlimit:1;" x1="139.371" y1="2.057" x2="142.457" y2="0.514"/>
	<line style="fill:none;stroke:#000000;stroke-miterlimit:1;" x1="142.457" y1="0.514" x2="145.028" y2="0"/>
	<line style="fill:none;stroke:#000000;stroke-miterlimit:1;" x1="145.028" y1="0" x2="147.857" y2="0"/>
	<line style="fill:none;stroke:#000000;stroke-miterlimit:1;" x1="147.857" y1="0" x2="151.2" y2="0.514"/>
	<line style="fill:none;stroke:#000000;stroke-miterlimit:1;" x1="151.2" y1="0.514" x2="154.8" y2="1.029"/>
	<line style="fill:none;stroke:#000000;stroke-miterlimit:1;" x1="154.8" y1="1.029" x2="158.914" y2="2.314"/>
	<line style="fill:none;stroke:#000000;stroke-miterlimit:1;" x1="158.914" y1="2.314" x2="162.257" y2="3.857"/>
	<line style="fill:none;stroke:#000000;stroke-miterlimit:1;" x1="162.257" y1="3.857" x2="165.086" y2="5.4"/>
	<line style="fill:none;stroke:#000000;stroke-miterlimit:1;" x1="165.086" y1="5.4" x2="167.399" y2="6.943"/>
	<line style="fill:none;stroke:#000000;stroke-miterlimit:1;" x1="167.399" y1="6.943" x2="170.229" y2="9.257"/>
	<line style="fill:none;stroke:#000000;stroke-miterlimit:1;" x1="170.229" y1="9.257" x2="172.8" y2="12.086"/>
	<line style="fill:none;stroke:#000000;stroke-miterlimit:1;" x1="172.8" y1="12.086" x2="175.371" y2="14.915"/>
	<line style="fill:none;stroke:#000000;stroke-miterlimit:1;" x1="175.371" y1="14.915" x2="177.429" y2="17.486"/>
	<line style="fill:none;stroke:#000000;stroke-miterlimit:1;" x1="177.429" y1="17.486" x2="178.2" y2="18.514"/>
	<line style="fill:none;stroke:#000000;stroke-miterlimit:1;" x1="180" y1="21.086" x2="181.543" y2="19.8"/>
	<line style="fill:none;stroke:#000000;stroke-miterlimit:1;" x1="181.543" y1="19.8" x2="182.571" y2="18.257"/>
	<line style="fill:none;stroke:#000000;stroke-miterlimit:1;" x1="182.571" y1="18.257" x2="183.6" y2="16.971"/>
	<line style="fill:none;stroke:#000000;stroke-miterlimit:1;" x1="183.6" y1="16.971" x2="184.114" y2="14.143"/>
	<line style="fill:none;stroke:#000000;stroke-miterlimit:1;" x1="184.114" y1="14.143" x2="184.114" y2="11.829"/>
	<line style="fill:none;stroke:#000000;stroke-miterlimit:1;" x1="184.114" y1="11.829" x2="183.6" y2="9.771"/>
	<line style="fill:none;stroke:#000000;stroke-miterlimit:1;" x1="183.6" y1="9.771" x2="182.571" y2="8.229"/>
	<line style="fill:none;stroke:#000000;stroke-miterlimit:1;" x1="182.571" y1="8.229" x2="182.057" y2="7.2"/>
	<line style="fill:none;stroke:#000000;stroke-miterlimit:1;" x1="182.057" y1="7.2" x2="180.515" y2="5.657"/>
	<line style="fill:none;stroke:#000000;stroke-miterlimit:1;" x1="180.515" y1="5.657" x2="179.485" y2="4.628"/>
	<line style="fill:none;stroke:#000000;stroke-miterlimit:1;" x1="179.485" y1="4.628" x2="176.914" y2="3.6"/>
	<line style="fill:none;stroke:#000000;stroke-miterlimit:1;" x1="176.914" y1="3.6" x2="175.114" y2="3.6"/>
	<line style="fill:none;stroke:#000000;stroke-miterlimit:1;" x1="175.114" y1="3.6" x2="172.8" y2="3.6"/>
	<line style="fill:none;stroke:#000000;stroke-miterlimit:1;" x1="172.8" y1="3.6" x2="170.743" y2="4.628"/>
	<line style="fill:none;stroke:#000000;stroke-miterlimit:1;" x1="170.743" y1="4.628" x2="168.429" y2="5.915"/>
	<line style="fill:none;stroke:#000000;stroke-miterlimit:1;" x1="168.429" y1="5.915" x2="167.399" y2="6.686"/>
	<line style="fill:none;stroke:#000000;stroke-miterlimit:1;" x1="145.8" y1="48.857" x2="144" y2="49.886"/>
	<line style="fill:none;stroke:#000000;stroke-miterlimit:1;" x1="144" y1="49.886" x2="142.457" y2="50.915"/>
	<line style="fill:none;stroke:#000000;stroke-miterlimit:1;" x1="142.457" y1="50.915" x2="140.914" y2="51.429"/>
	<line style="fill:none;stroke:#000000;stroke-miterlimit:1;" x1="140.914" y1="51.429" x2="138.085" y2="51.429"/>
	<line style="fill:none;stroke:#000000;stroke-miterlimit:1;" x1="138.085" y1="51.429" x2="135.771" y2="50.915"/>
	<line style="fill:none;stroke:#000000;stroke-miterlimit:1;" x1="135.771" y1="50.915" x2="133.971" y2="49.886"/>
	<line style="fill:none;stroke:#000000;stroke-miterlimit:1;" x1="133.971" y1="49.886" x2="132.686" y2="48.857"/>
	<line style="fill:none;stroke:#000000;stroke-miterlimit:1;" x1="132.686" y1="48.857" x2="131.657" y2="47.829"/>
	<line style="fill:none;stroke:#000000;stroke-miterlimit:1;" x1="131.657" y1="47.829" x2="130.628" y2="46.286"/>
	<line style="fill:none;stroke:#000000;stroke-miterlimit:1;" x1="130.628" y1="46.286" x2="129.6" y2="44.486"/>
	<line style="fill:none;stroke:#000000;stroke-miterlimit:1;" x1="129.6" y1="44.486" x2="129.6" y2="41.915"/>
	<line style="fill:none;stroke:#000000;stroke-miterlimit:1;" x1="129.6" y1="41.915" x2="129.6" y2="40.114"/>
	<line style="fill:none;stroke:#000000;stroke-miterlimit:1;" x1="129.6" y1="40.114" x2="130.114" y2="38.057"/>
	<line style="fill:none;stroke:#000000;stroke-miterlimit:1;" x1="130.114" y1="38.057" x2="131.657" y2="36"/>
	<line style="fill:none;stroke:#000000;stroke-miterlimit:1;" x1="131.657" y1="36" x2="133.2" y2="34.2"/>
	<line style="fill:none;stroke:#000000;stroke-miterlimit:1;" x1="133.2" y1="34.2" x2="134.485" y2="33.429"/>
	<line style="fill:none;stroke:#000000;stroke-miterlimit:1;" x1="136.8" y1="4.114" x2="133.2" y2="3.857"/>
	<line style="fill:none;stroke:#000000;stroke-miterlimit:1;" x1="133.2" y1="3.857" x2="130.628" y2="4.114"/>
	<line style="fill:none;stroke:#000000;stroke-miterlimit:1;" x1="130.628" y1="4.114" x2="127.543" y2="4.628"/>
	<line style="fill:none;stroke:#000000;stroke-miterlimit:1;" x1="127.543" y1="4.628" x2="124.457" y2="5.915"/>
	<line style="fill:none;stroke:#000000;stroke-miterlimit:1;" x1="124.457" y1="5.915" x2="121.371" y2="7.2"/>
	<line style="fill:none;stroke:#000000;stroke-miterlimit:1;" x1="121.371" y1="7.2" x2="118.286" y2="9"/>
	<line style="fill:none;stroke:#000000;stroke-miterlimit:1;" x1="118.286" y1="9" x2="115.714" y2="10.8"/>
	<line style="fill:none;stroke:#000000;stroke-miterlimit:1;" x1="115.714" y1="10.8" x2="113.143" y2="13.372"/>
	<line style="fill:none;stroke:#000000;stroke-miterlimit:1;" x1="113.143" y1="13.372" x2="111.085" y2="15.429"/>
	<line style="fill:none;stroke:#000000;stroke-miterlimit:1;" x1="111.085" y1="15.429" x2="109.028" y2="18.257"/>
	<line style="fill:none;stroke:#000000;stroke-miterlimit:1;" x1="109.028" y1="18.257" x2="107.229" y2="21.086"/>
	<line style="fill:none;stroke:#000000;stroke-miterlimit:1;" x1="107.229" y1="21.086" x2="105.943" y2="23.657"/>
	<line style="fill:none;stroke:#000000;stroke-miterlimit:1;" x1="105.943" y1="23.657" x2="104.914" y2="27"/>
	<line style="fill:none;stroke:#000000;stroke-miterlimit:1;" x1="104.914" y1="27" x2="104.143" y2="30.6"/>
	<line style="fill:none;stroke:#000000;stroke-miterlimit:1;" x1="104.143" y1="30.6" x2="103.886" y2="34.457"/>
	<line style="fill:none;stroke:#000000;stroke-miterlimit:1;" x1="103.886" y1="34.457" x2="103.886" y2="38.571"/>
	<line style="fill:none;stroke:#000000;stroke-miterlimit:1;" x1="93.6" y1="116.229" x2="93.6" y2="83.828"/>
	<line style="fill:none;stroke:#000000;stroke-miterlimit:1;" x1="93.6" y1="83.828" x2="95.143" y2="79.457"/>
	<line style="fill:none;stroke:#000000;stroke-miterlimit:1;" x1="95.143" y1="79.457" x2="97.2" y2="77.143"/>
	<line style="fill:none;stroke:#000000;stroke-miterlimit:1;" x1="97.2" y1="77.143" x2="100.8" y2="74.572"/>
	<line style="fill:none;stroke:#000000;stroke-miterlimit:1;" x1="100.8" y1="74.572" x2="103.628" y2="74.057"/>
	<line style="fill:none;stroke:#000000;stroke-miterlimit:1;" x1="103.628" y1="74.057" x2="106.457" y2="74.828"/>
	<line style="fill:none;stroke:#000000;stroke-miterlimit:1;" x1="106.457" y1="74.828" x2="108.514" y2="75.6"/>
	<line style="fill:none;stroke:#000000;stroke-miterlimit:1;" x1="108.514" y1="75.6" x2="111.085" y2="78.172"/>
	<line style="fill:none;stroke:#000000;stroke-miterlimit:1;" x1="111.085" y1="78.172" x2="114.686" y2="84.344"/>
	<line style="fill:none;stroke:#000000;stroke-miterlimit:1;" x1="114.686" y1="84.344" x2="118.286" y2="89.486"/>
	<line style="fill:none;stroke:#000000;stroke-miterlimit:1;" x1="118.286" y1="89.486" x2="122.143" y2="94.115"/>
	<line style="fill:none;stroke:#000000;stroke-miterlimit:1;" x1="122.143" y1="94.115" x2="125.485" y2="96.172"/>
	<line style="fill:none;stroke:#000000;stroke-miterlimit:1;" x1="125.485" y1="96.172" x2="129.343" y2="96.686"/>
	<line style="fill:none;stroke:#000000;stroke-miterlimit:1;" x1="129.343" y1="96.686" x2="133.2" y2="95.656"/>
	<line style="fill:none;stroke:#000000;stroke-miterlimit:1;" x1="133.2" y1="95.656" x2="135.771" y2="94.115"/>
	<line style="fill:none;stroke:#000000;stroke-miterlimit:1;" x1="135.771" y1="94.115" x2="138.343" y2="91.543"/>
	<line style="fill:none;stroke:#000000;stroke-miterlimit:1;" x1="138.343" y1="91.543" x2="144.257" y2="83.314"/>
	<line style="fill:none;stroke:#000000;stroke-miterlimit:1;" x1="144.257" y1="83.314" x2="147.085" y2="79.715"/>
	<line style="fill:none;stroke:#000000;stroke-miterlimit:1;" x1="147.085" y1="79.715" x2="149.657" y2="76.885"/>
	<line style="fill:none;stroke:#000000;stroke-miterlimit:1;" x1="149.657" y1="76.885" x2="152.229" y2="75.6"/>
	<line style="fill:none;stroke:#000000;stroke-miterlimit:1;" x1="152.229" y1="75.6" x2="154.543" y2="74.572"/>
	<line style="fill:none;stroke:#000000;stroke-miterlimit:1;" x1="154.543" y1="74.572" x2="156.857" y2="74.572"/>
	<line style="fill:none;stroke:#000000;stroke-miterlimit:1;" x1="156.857" y1="74.572" x2="158.914" y2="75.086"/>
	<line style="fill:none;stroke:#000000;stroke-miterlimit:1;" x1="158.914" y1="75.086" x2="162.257" y2="76.629"/>
	<line style="fill:none;stroke:#000000;stroke-miterlimit:1;" x1="162.257" y1="76.629" x2="166.114" y2="80.486"/>
	<line style="fill:none;stroke:#000000;stroke-miterlimit:1;" x1="166.114" y1="80.486" x2="169.714" y2="85.371"/>
	<line style="fill:none;stroke:#000000;stroke-miterlimit:1;" x1="169.714" y1="85.371" x2="173.571" y2="90.771"/>
	<line style="fill:none;stroke:#000000;stroke-miterlimit:1;" x1="173.571" y1="90.771" x2="176.399" y2="93.6"/>
	<line style="fill:none;stroke:#000000;stroke-miterlimit:1;" x1="176.399" y1="93.6" x2="178.972" y2="95.656"/>
	<line style="fill:none;stroke:#000000;stroke-miterlimit:1;" x1="178.972" y1="95.656" x2="181.8" y2="96.428"/>
	<line style="fill:none;stroke:#000000;stroke-miterlimit:1;" x1="181.8" y1="96.428" x2="183.6" y2="96.686"/>
	<line style="fill:none;stroke:#000000;stroke-miterlimit:1;" x1="183.6" y1="96.686" x2="187.2" y2="96.172"/>
	<line style="fill:none;stroke:#000000;stroke-miterlimit:1;" x1="187.2" y1="96.172" x2="190.285" y2="93.857"/>
	<line style="fill:none;stroke:#000000;stroke-miterlimit:1;" x1="190.285" y1="93.857" x2="192.343" y2="91.543"/>
	<line style="fill:none;stroke:#000000;stroke-miterlimit:1;" x1="192.343" y1="91.543" x2="194.657" y2="88.457"/>
	<line style="fill:none;stroke:#000000;stroke-miterlimit:1;" x1="194.657" y1="88.457" x2="196.457" y2="85.629"/>
	<line style="fill:none;stroke:#000000;stroke-miterlimit:1;" x1="196.457" y1="85.629" x2="201.6" y2="77.656"/>
	<line style="fill:none;stroke:#000000;stroke-miterlimit:1;" x1="201.6" y1="77.656" x2="204.171" y2="75.6"/>
	<line style="fill:none;stroke:#000000;stroke-miterlimit:1;" x1="204.171" y1="75.6" x2="207.257" y2="74.314"/>
	<line style="fill:none;stroke:#000000;stroke-miterlimit:1;" x1="207.257" y1="74.314" x2="211.371" y2="74.314"/>
	<line style="fill:none;stroke:#000000;stroke-miterlimit:1;" x1="211.371" y1="74.314" x2="214.2" y2="75.857"/>
	<line style="fill:none;stroke:#000000;stroke-miterlimit:1;" x1="214.2" y1="75.857" x2="216.515" y2="78.172"/>
	<line style="fill:none;stroke:#000000;stroke-miterlimit:1;" x1="216.515" y1="78.172" x2="218.828" y2="83.828"/>
	<line style="fill:none;stroke:#000000;stroke-miterlimit:1;" x1="218.828" y1="83.828" x2="218.828" y2="116.229"/>
	<line style="fill:none;stroke:#000000;stroke-miterlimit:1;" x1="218.828" y1="116.229" x2="93.6" y2="116.229"/>
	<line style="fill:none;stroke:#000000;stroke-miterlimit:1;" x1="299.314" y1="28.8" x2="238.628" y2="28.8"/>
	<line style="fill:none;stroke:#000000;stroke-miterlimit:1;" x1="238.628" y1="28.8" x2="239.399" y2="23.657"/>
	<line style="fill:none;stroke:#000000;stroke-miterlimit:1;" x1="239.399" y1="23.657" x2="240.171" y2="20.314"/>
	<line style="fill:none;stroke:#000000;stroke-miterlimit:1;" x1="240.171" y1="20.314" x2="241.457" y2="16.971"/>
	<line style="fill:none;stroke:#000000;stroke-miterlimit:1;" x1="241.457" y1="16.971" x2="243.257" y2="14.4"/>
	<line style="fill:none;stroke:#000000;stroke-miterlimit:1;" x1="243.257" y1="14.4" x2="244.8" y2="12.086"/>
	<line style="fill:none;stroke:#000000;stroke-miterlimit:1;" x1="244.8" y1="12.086" x2="246.857" y2="9.257"/>
	<line style="fill:none;stroke:#000000;stroke-miterlimit:1;" x1="246.857" y1="9.257" x2="249.171" y2="7.2"/>
	<line style="fill:none;stroke:#000000;stroke-miterlimit:1;" x1="249.171" y1="7.2" x2="252" y2="5.143"/>
	<line style="fill:none;stroke:#000000;stroke-miterlimit:1;" x1="252" y1="5.143" x2="254.314" y2="3.6"/>
	<line style="fill:none;stroke:#000000;stroke-miterlimit:1;" x1="254.314" y1="3.6" x2="257.657" y2="2.057"/>
	<line style="fill:none;stroke:#000000;stroke-miterlimit:1;" x1="257.657" y1="2.057" x2="261" y2="1.029"/>
	<line style="fill:none;stroke:#000000;stroke-miterlimit:1;" x1="261" y1="1.029" x2="263.314" y2="0.514"/>
	<line style="fill:none;stroke:#000000;stroke-miterlimit:1;" x1="263.314" y1="0.514" x2="267.429" y2="0"/>
	<line style="fill:none;stroke:#000000;stroke-miterlimit:1;" x1="267.429" y1="0" x2="270.515" y2="0"/>
	<line style="fill:none;stroke:#000000;stroke-miterlimit:1;" x1="270.515" y1="0" x2="273.343" y2="0.514"/>
	<line style="fill:none;stroke:#000000;stroke-miterlimit:1;" x1="273.343" y1="0.514" x2="276.429" y2="1.029"/>
	<line style="fill:none;stroke:#000000;stroke-miterlimit:1;" x1="276.429" y1="1.029" x2="279.771" y2="1.8"/>
	<line style="fill:none;stroke:#000000;stroke-miterlimit:1;" x1="279.771" y1="1.8" x2="282.086" y2="2.571"/>
	<line style="fill:none;stroke:#000000;stroke-miterlimit:1;" x1="282.086" y1="2.571" x2="285.171" y2="4.628"/>
	<line style="fill:none;stroke:#000000;stroke-miterlimit:1;" x1="285.171" y1="4.628" x2="287.743" y2="6.429"/>
	<line style="fill:none;stroke:#000000;stroke-miterlimit:1;" x1="287.743" y1="6.429" x2="290.057" y2="8.229"/>
	<line style="fill:none;stroke:#000000;stroke-miterlimit:1;" x1="290.057" y1="8.229" x2="292.114" y2="10.8"/>
	<line style="fill:none;stroke:#000000;stroke-miterlimit:1;" x1="292.114" y1="10.8" x2="294.171" y2="13.628"/>
	<line style="fill:none;stroke:#000000;stroke-miterlimit:1;" x1="294.171" y1="13.628" x2="295.972" y2="16.457"/>
	<line style="fill:none;stroke:#000000;stroke-miterlimit:1;" x1="295.972" y1="16.457" x2="297.257" y2="19.029"/>
	<line style="fill:none;stroke:#000000;stroke-miterlimit:1;" x1="297.257" y1="19.029" x2="298.285" y2="22.886"/>
	<line style="fill:none;stroke:#000000;stroke-miterlimit:1;" x1="298.285" y1="22.886" x2="299.057" y2="25.714"/>
	<line style="fill:none;stroke:#000000;stroke-miterlimit:1;" x1="299.057" y1="25.714" x2="299.314" y2="28.8"/>
	<line style="fill:none;stroke:#000000;stroke-miterlimit:1;" x1="254.571" y1="112.115" x2="272.057" y2="96.172"/>
	<line style="fill:none;stroke:#000000;stroke-miterlimit:1;" x1="272.057" y1="96.172" x2="288.515" y2="112.115"/>
	<line style="fill:none;stroke:#000000;stroke-miterlimit:1;" x1="295.2" y1="104.914" x2="279.771" y2="89.229"/>
	<line style="fill:none;stroke:#000000;stroke-miterlimit:1;" x1="279.771" y1="89.229" x2="296.229" y2="73.543"/>
	<line style="fill:none;stroke:#000000;stroke-miterlimit:1;" x1="289.028" y1="65.572" x2="272.571" y2="81.258"/>
	<line style="fill:none;stroke:#000000;stroke-miterlimit:1;" x1="272.571" y1="81.258" x2="256.114" y2="64.285"/>
	<line style="fill:none;stroke:#000000;stroke-miterlimit:1;" x1="248.914" y1="71.229" x2="264.857" y2="88.199"/>
	<line style="fill:none;stroke:#000000;stroke-miterlimit:1;" x1="264.857" y1="88.199" x2="247.886" y2="104.4"/>
	<line style="fill:none;stroke:#000000;stroke-miterlimit:1;" x1="269.485" y1="117.514" x2="276.686" y2="117.258"/>
	<line style="fill:none;stroke:#000000;stroke-miterlimit:1;" x1="276.686" y1="117.258" x2="280.8" y2="116.229"/>
	<line style="fill:none;stroke:#000000;stroke-miterlimit:1;" x1="280.8" y1="116.229" x2="284.399" y2="114.686"/>
	<line style="fill:none;stroke:#000000;stroke-miterlimit:1;" x1="284.399" y1="114.686" x2="288.515" y2="111.857"/>
	<line style="fill:none;stroke:#000000;stroke-miterlimit:1;" x1="288.515" y1="111.857" x2="291.6" y2="109.029"/>
	<line style="fill:none;stroke:#000000;stroke-miterlimit:1;" x1="291.6" y1="109.029" x2="294.686" y2="105.686"/>
	<line style="fill:none;stroke:#000000;stroke-miterlimit:1;" x1="294.686" y1="105.686" x2="296.743" y2="102.344"/>
	<line style="fill:none;stroke:#000000;stroke-miterlimit:1;" x1="296.743" y1="102.344" x2="298.8" y2="98.742"/>
	<line style="fill:none;stroke:#000000;stroke-miterlimit:1;" x1="298.8" y1="98.742" x2="299.828" y2="95.143"/>
	<line style="fill:none;stroke:#000000;stroke-miterlimit:1;" x1="299.828" y1="95.143" x2="300.343" y2="91.029"/>
	<line style="fill:none;stroke:#000000;stroke-miterlimit:1;" x1="300.343" y1="91.029" x2="300.343" y2="86.914"/>
	<line style="fill:none;stroke:#000000;stroke-miterlimit:1;" x1="300.343" y1="86.914" x2="299.057" y2="79.715"/>
	<line style="fill:none;stroke:#000000;stroke-miterlimit:1;" x1="299.057" y1="79.715" x2="297.515" y2="75.857"/>
	<line style="fill:none;stroke:#000000;stroke-miterlimit:1;" x1="297.515" y1="75.857" x2="295.2" y2="72"/>
	<line style="fill:none;stroke:#000000;stroke-miterlimit:1;" x1="295.2" y1="72" x2="292.628" y2="68.4"/>
	<line style="fill:none;stroke:#000000;stroke-miterlimit:1;" x1="292.628" y1="68.4" x2="288.771" y2="65.057"/>
	<line style="fill:none;stroke:#000000;stroke-miterlimit:1;" x1="288.771" y1="65.057" x2="285.686" y2="63"/>
	<line style="fill:none;stroke:#000000;stroke-miterlimit:1;" x1="285.686" y1="63" x2="282.6" y2="61.715"/>
	<line style="fill:none;stroke:#000000;stroke-miterlimit:1;" x1="282.6" y1="61.715" x2="279.771" y2="60.686"/>
	<line style="fill:none;stroke:#000000;stroke-miterlimit:1;" x1="279.771" y1="60.686" x2="275.914" y2="59.914"/>
	<line style="fill:none;stroke:#000000;stroke-miterlimit:1;" x1="275.914" y1="59.914" x2="272.057" y2="59.656"/>
	<line style="fill:none;stroke:#000000;stroke-miterlimit:1;" x1="272.057" y1="59.656" x2="266.914" y2="59.656"/>
	<line style="fill:none;stroke:#000000;stroke-miterlimit:1;" x1="266.914" y1="59.656" x2="262.8" y2="60.686"/>
	<line style="fill:none;stroke:#000000;stroke-miterlimit:1;" x1="262.8" y1="60.686" x2="258.942" y2="62.229"/>
	<line style="fill:none;stroke:#000000;stroke-miterlimit:1;" x1="258.942" y1="62.229" x2="255.343" y2="64.285"/>
	<line style="fill:none;stroke:#000000;stroke-miterlimit:1;" x1="255.343" y1="64.285" x2="252" y2="67.115"/>
	<line style="fill:none;stroke:#000000;stroke-miterlimit:1;" x1="252" y1="67.115" x2="248.914" y2="70.715"/>
	<line style="fill:none;stroke:#000000;stroke-miterlimit:1;" x1="248.914" y1="70.715" x2="246.086" y2="74.314"/>
	<line style="fill:none;stroke:#000000;stroke-miterlimit:1;" x1="246.086" y1="74.314" x2="244.8" y2="76.885"/>
	<line style="fill:none;stroke:#000000;stroke-miterlimit:1;" x1="244.8" y1="76.885" x2="243.771" y2="79.715"/>
	<line style="fill:none;stroke:#000000;stroke-miterlimit:1;" x1="243.771" y1="79.715" x2="242.743" y2="84.6"/>
	<line style="fill:none;stroke:#000000;stroke-miterlimit:1;" x1="242.743" y1="84.6" x2="242.743" y2="89.229"/>
	<line style="fill:none;stroke:#000000;stroke-miterlimit:1;" x1="242.743" y1="89.229" x2="243.257" y2="92.572"/>
	<line style="fill:none;stroke:#000000;stroke-miterlimit:1;" x1="243.257" y1="92.572" x2="243.771" y2="96.172"/>
	<line style="fill:none;stroke:#000000;stroke-miterlimit:1;" x1="243.771" y1="96.172" x2="245.057" y2="99.771"/>
	<line style="fill:none;stroke:#000000;stroke-miterlimit:1;" x1="245.057" y1="99.771" x2="246.857" y2="103.885"/>
	<line style="fill:none;stroke:#000000;stroke-miterlimit:1;" x1="246.857" y1="103.885" x2="249.942" y2="107.742"/>
	<line style="fill:none;stroke:#000000;stroke-miterlimit:1;" x1="249.942" y1="107.742" x2="253.028" y2="110.572"/>
	<line style="fill:none;stroke:#000000;stroke-miterlimit:1;" x1="253.028" y1="110.572" x2="256.628" y2="113.4"/>
	<line style="fill:none;stroke:#000000;stroke-miterlimit:1;" x1="256.628" y1="113.4" x2="260.229" y2="115.199"/>
	<line style="fill:none;stroke:#000000;stroke-miterlimit:1;" x1="260.229" y1="115.199" x2="264.6" y2="116.742"/>
	<line style="fill:none;stroke:#000000;stroke-miterlimit:1;" x1="264.6" y1="116.742" x2="269.485" y2="117.514"/>
</g>
</svg>
