<?xml version="1.0" encoding="iso-8859-1"?>
<!-- Generator: Adobe Illustrator 16.0.1, SVG Export Plug-In . SVG Version: 6.00 Build 0)  -->
<!DOCTYPE svg PUBLIC "-//W3C//DTD SVG 1.1//EN" "http://www.w3.org/Graphics/SVG/1.1/DTD/svg11.dtd">
<svg version="1.1" id="Ebene_1" xmlns="http://www.w3.org/2000/svg" xmlns:xlink="http://www.w3.org/1999/xlink" x="0px" y="0px"
	 width="491.328px" height="152.27px" viewBox="0 0 491.328 152.27" style="enable-background:new 0 0 491.328 152.27;"
	 xml:space="preserve">
<g>
	<line style="fill:none;stroke:#000000;stroke-miterlimit:1;" x1="25.673" y1="49.248" x2="20.078" y2="144.37"/>
	<line style="fill:none;stroke:#000000;stroke-miterlimit:1;" x1="20.078" y1="144.37" x2="20.078" y2="147.662"/>
	<line style="fill:none;stroke:#000000;stroke-miterlimit:1;" x1="20.078" y1="147.662" x2="23.369" y2="151.282"/>
	<line style="fill:none;stroke:#000000;stroke-miterlimit:1;" x1="23.369" y1="151.282" x2="26.002" y2="151.94"/>
	<line style="fill:none;stroke:#000000;stroke-miterlimit:1;" x1="26.002" y1="151.94" x2="28.306" y2="152.27"/>
	<line style="fill:none;stroke:#000000;stroke-miterlimit:1;" x1="28.306" y1="152.27" x2="30.281" y2="152.27"/>
	<line style="fill:none;stroke:#000000;stroke-miterlimit:1;" x1="30.281" y1="152.27" x2="32.914" y2="151.282"/>
	<line style="fill:none;stroke:#000000;stroke-miterlimit:1;" x1="32.914" y1="151.282" x2="34.889" y2="149.637"/>
	<line style="fill:none;stroke:#000000;stroke-miterlimit:1;" x1="34.889" y1="149.637" x2="36.206" y2="147.333"/>
	<line style="fill:none;stroke:#000000;stroke-miterlimit:1;" x1="36.206" y1="147.333" x2="30.281" y2="49.248"/>
	<line style="fill:none;stroke:#000000;stroke-miterlimit:1;" x1="57.6" y1="49.248" x2="55.954" y2="42.336"/>
	<line style="fill:none;stroke:#000000;stroke-miterlimit:1;" x1="55.954" y1="42.336" x2="52.992" y2="35.753"/>
	<line style="fill:none;stroke:#000000;stroke-miterlimit:1;" x1="52.992" y1="35.753" x2="48.713" y2="30.487"/>
	<line style="fill:none;stroke:#000000;stroke-miterlimit:1;" x1="48.713" y1="30.487" x2="46.08" y2="27.854"/>
	<line style="fill:none;stroke:#000000;stroke-miterlimit:1;" x1="46.08" y1="27.854" x2="41.472" y2="25.221"/>
	<line style="fill:none;stroke:#000000;stroke-miterlimit:1;" x1="41.472" y1="25.221" x2="37.522" y2="23.904"/>
	<line style="fill:none;stroke:#000000;stroke-miterlimit:1;" x1="37.522" y1="23.904" x2="34.231" y2="22.917"/>
	<line style="fill:none;stroke:#000000;stroke-miterlimit:1;" x1="34.231" y1="22.917" x2="30.281" y2="22.258"/>
	<line style="fill:none;stroke:#000000;stroke-miterlimit:1;" x1="30.281" y1="22.258" x2="25.344" y2="22.258"/>
	<line style="fill:none;stroke:#000000;stroke-miterlimit:1;" x1="25.344" y1="22.258" x2="19.09" y2="23.575"/>
	<line style="fill:none;stroke:#000000;stroke-miterlimit:1;" x1="19.09" y1="23.575" x2="12.507" y2="27.195"/>
	<line style="fill:none;stroke:#000000;stroke-miterlimit:1;" x1="12.507" y1="27.195" x2="7.899" y2="31.145"/>
	<line style="fill:none;stroke:#000000;stroke-miterlimit:1;" x1="7.899" y1="31.145" x2="5.924" y2="33.449"/>
	<line style="fill:none;stroke:#000000;stroke-miterlimit:1;" x1="5.924" y1="33.449" x2="3.292" y2="37.728"/>
	<line style="fill:none;stroke:#000000;stroke-miterlimit:1;" x1="3.292" y1="37.728" x2="1.316" y2="42.665"/>
	<line style="fill:none;stroke:#000000;stroke-miterlimit:1;" x1="1.316" y1="42.665" x2="0.329" y2="45.957"/>
	<line style="fill:none;stroke:#000000;stroke-miterlimit:1;" x1="0.329" y1="45.957" x2="0" y2="49.248"/>
	<line style="fill:none;stroke:#000000;stroke-miterlimit:1;" x1="0" y1="49.248" x2="57.6" y2="49.248"/>
	<line style="fill:none;stroke:#000000;stroke-miterlimit:1;" x1="26.002" y1="22.587" x2="24.027" y2="6.789"/>
	<line style="fill:none;stroke:#000000;stroke-miterlimit:1;" x1="24.027" y1="6.789" x2="24.686" y2="5.143"/>
	<line style="fill:none;stroke:#000000;stroke-miterlimit:1;" x1="24.686" y1="5.143" x2="26.661" y2="4.155"/>
	<line style="fill:none;stroke:#000000;stroke-miterlimit:1;" x1="26.661" y1="4.155" x2="29.293" y2="4.485"/>
	<line style="fill:none;stroke:#000000;stroke-miterlimit:1;" x1="29.293" y1="4.485" x2="31.269" y2="5.143"/>
	<line style="fill:none;stroke:#000000;stroke-miterlimit:1;" x1="31.269" y1="5.143" x2="31.598" y2="7.118"/>
	<line style="fill:none;stroke:#000000;stroke-miterlimit:1;" x1="31.598" y1="7.118" x2="30.281" y2="21.929"/>
	<line style="fill:none;stroke:#000000;stroke-miterlimit:1;" x1="145.193" y1="4.485" x2="143.547" y2="37.728"/>
	<line style="fill:none;stroke:#000000;stroke-miterlimit:1;" x1="143.547" y1="37.728" x2="142.889" y2="66.034"/>
	<line style="fill:none;stroke:#000000;stroke-miterlimit:1;" x1="142.889" y1="66.034" x2="142.231" y2="87.758"/>
	<line style="fill:none;stroke:#000000;stroke-miterlimit:1;" x1="142.231" y1="87.758" x2="140.585" y2="103.228"/>
	<line style="fill:none;stroke:#000000;stroke-miterlimit:1;" x1="140.585" y1="103.228" x2="139.269" y2="118.039"/>
	<line style="fill:none;stroke:#000000;stroke-miterlimit:1;" x1="139.269" y1="118.039" x2="139.927" y2="133.838"/>
	<line style="fill:none;stroke:#000000;stroke-miterlimit:1;" x1="139.927" y1="133.838" x2="140.914" y2="138.775"/>
	<line style="fill:none;stroke:#000000;stroke-miterlimit:1;" x1="140.914" y1="138.775" x2="141.572" y2="142.725"/>
	<line style="fill:none;stroke:#000000;stroke-miterlimit:1;" x1="141.572" y1="142.725" x2="141.243" y2="146.675"/>
	<line style="fill:none;stroke:#000000;stroke-miterlimit:1;" x1="141.243" y1="146.675" x2="139.269" y2="149.308"/>
	<line style="fill:none;stroke:#000000;stroke-miterlimit:1;" x1="139.269" y1="149.308" x2="136.306" y2="151.282"/>
	<line style="fill:none;stroke:#000000;stroke-miterlimit:1;" x1="136.306" y1="151.282" x2="132.686" y2="151.94"/>
	<line style="fill:none;stroke:#000000;stroke-miterlimit:1;" x1="132.686" y1="151.94" x2="126.103" y2="150.295"/>
	<line style="fill:none;stroke:#000000;stroke-miterlimit:1;" x1="126.103" y1="150.295" x2="123.47" y2="148.32"/>
	<line style="fill:none;stroke:#000000;stroke-miterlimit:1;" x1="123.47" y1="148.32" x2="119.191" y2="147.333"/>
	<line style="fill:none;stroke:#000000;stroke-miterlimit:1;" x1="119.191" y1="147.333" x2="109.316" y2="152.27"/>
	<line style="fill:none;stroke:#000000;stroke-miterlimit:1;" x1="109.316" y1="152.27" x2="68.503" y2="151.94"/>
	<line style="fill:none;stroke:#000000;stroke-miterlimit:1;" x1="68.503" y1="151.94" x2="66.857" y2="146.675"/>
	<line style="fill:none;stroke:#000000;stroke-miterlimit:1;" x1="66.857" y1="146.675" x2="68.174" y2="144.041"/>
	<line style="fill:none;stroke:#000000;stroke-miterlimit:1;" x1="68.174" y1="144.041" x2="71.794" y2="143.383"/>
	<line style="fill:none;stroke:#000000;stroke-miterlimit:1;" x1="71.794" y1="143.383" x2="85.947" y2="140.421"/>
	<line style="fill:none;stroke:#000000;stroke-miterlimit:1;" x1="85.947" y1="140.421" x2="97.796" y2="134.496"/>
	<line style="fill:none;stroke:#000000;stroke-miterlimit:1;" x1="97.796" y1="134.496" x2="105.696" y2="131.534"/>
	<line style="fill:none;stroke:#000000;stroke-miterlimit:1;" x1="105.696" y1="131.534" x2="112.608" y2="129.888"/>
	<line style="fill:none;stroke:#000000;stroke-miterlimit:1;" x1="112.608" y1="129.888" x2="117.545" y2="125.609"/>
	<line style="fill:none;stroke:#000000;stroke-miterlimit:1;" x1="117.545" y1="125.609" x2="119.191" y2="121.33"/>
	<line style="fill:none;stroke:#000000;stroke-miterlimit:1;" x1="119.191" y1="121.33" x2="119.52" y2="116.723"/>
	<line style="fill:none;stroke:#000000;stroke-miterlimit:1;" x1="119.52" y1="116.723" x2="118.862" y2="109.811"/>
	<line style="fill:none;stroke:#000000;stroke-miterlimit:1;" x1="118.862" y1="109.811" x2="118.533" y2="100.595"/>
	<line style="fill:none;stroke:#000000;stroke-miterlimit:1;" x1="118.533" y1="100.595" x2="117.874" y2="75.58"/>
	<line style="fill:none;stroke:#000000;stroke-miterlimit:1;" x1="117.874" y1="75.58" x2="117.545" y2="50.564"/>
	<line style="fill:none;stroke:#000000;stroke-miterlimit:1;" x1="117.545" y1="50.564" x2="114.912" y2="4.155"/>
	<line style="fill:none;stroke:#000000;stroke-miterlimit:1;" x1="114.912" y1="4.155" x2="145.193" y2="4.155"/>
	<line style="fill:none;stroke:#000000;stroke-miterlimit:1;" x1="157.371" y1="150.146" x2="157.371" y2="111.824"/>
	<line style="fill:none;stroke:#000000;stroke-miterlimit:1;" x1="157.371" y1="111.824" x2="159.196" y2="106.653"/>
	<line style="fill:none;stroke:#000000;stroke-miterlimit:1;" x1="159.196" y1="106.653" x2="161.629" y2="103.916"/>
	<line style="fill:none;stroke:#000000;stroke-miterlimit:1;" x1="161.629" y1="103.916" x2="165.887" y2="100.875"/>
	<line style="fill:none;stroke:#000000;stroke-miterlimit:1;" x1="165.887" y1="100.875" x2="169.232" y2="100.267"/>
	<line style="fill:none;stroke:#000000;stroke-miterlimit:1;" x1="169.232" y1="100.267" x2="172.578" y2="101.179"/>
	<line style="fill:none;stroke:#000000;stroke-miterlimit:1;" x1="172.578" y1="101.179" x2="175.011" y2="102.092"/>
	<line style="fill:none;stroke:#000000;stroke-miterlimit:1;" x1="175.011" y1="102.092" x2="178.053" y2="105.133"/>
	<line style="fill:none;stroke:#000000;stroke-miterlimit:1;" x1="178.053" y1="105.133" x2="182.311" y2="112.433"/>
	<line style="fill:none;stroke:#000000;stroke-miterlimit:1;" x1="182.311" y1="112.433" x2="186.568" y2="118.515"/>
	<line style="fill:none;stroke:#000000;stroke-miterlimit:1;" x1="186.568" y1="118.515" x2="191.13" y2="123.989"/>
	<line style="fill:none;stroke:#000000;stroke-miterlimit:1;" x1="191.13" y1="123.989" x2="195.084" y2="126.423"/>
	<line style="fill:none;stroke:#000000;stroke-miterlimit:1;" x1="195.084" y1="126.423" x2="199.646" y2="127.03"/>
	<line style="fill:none;stroke:#000000;stroke-miterlimit:1;" x1="199.646" y1="127.03" x2="204.208" y2="125.814"/>
	<line style="fill:none;stroke:#000000;stroke-miterlimit:1;" x1="204.208" y1="125.814" x2="207.25" y2="123.989"/>
	<line style="fill:none;stroke:#000000;stroke-miterlimit:1;" x1="207.25" y1="123.989" x2="210.291" y2="120.948"/>
	<line style="fill:none;stroke:#000000;stroke-miterlimit:1;" x1="210.291" y1="120.948" x2="217.286" y2="111.216"/>
	<line style="fill:none;stroke:#000000;stroke-miterlimit:1;" x1="217.286" y1="111.216" x2="220.632" y2="106.958"/>
	<line style="fill:none;stroke:#000000;stroke-miterlimit:1;" x1="220.632" y1="106.958" x2="223.673" y2="103.612"/>
	<line style="fill:none;stroke:#000000;stroke-miterlimit:1;" x1="223.673" y1="103.612" x2="226.714" y2="102.092"/>
	<line style="fill:none;stroke:#000000;stroke-miterlimit:1;" x1="226.714" y1="102.092" x2="229.452" y2="100.875"/>
	<line style="fill:none;stroke:#000000;stroke-miterlimit:1;" x1="229.452" y1="100.875" x2="232.189" y2="100.875"/>
	<line style="fill:none;stroke:#000000;stroke-miterlimit:1;" x1="232.189" y1="100.875" x2="234.622" y2="101.483"/>
	<line style="fill:none;stroke:#000000;stroke-miterlimit:1;" x1="234.622" y1="101.483" x2="238.576" y2="103.308"/>
	<line style="fill:none;stroke:#000000;stroke-miterlimit:1;" x1="238.576" y1="103.308" x2="243.138" y2="107.87"/>
	<line style="fill:none;stroke:#000000;stroke-miterlimit:1;" x1="243.138" y1="107.87" x2="247.396" y2="113.648"/>
	<line style="fill:none;stroke:#000000;stroke-miterlimit:1;" x1="247.396" y1="113.648" x2="251.958" y2="120.035"/>
	<line style="fill:none;stroke:#000000;stroke-miterlimit:1;" x1="251.958" y1="120.035" x2="255.303" y2="123.381"/>
	<line style="fill:none;stroke:#000000;stroke-miterlimit:1;" x1="255.303" y1="123.381" x2="258.345" y2="125.814"/>
	<line style="fill:none;stroke:#000000;stroke-miterlimit:1;" x1="258.345" y1="125.814" x2="261.69" y2="126.727"/>
	<line style="fill:none;stroke:#000000;stroke-miterlimit:1;" x1="261.69" y1="126.727" x2="263.819" y2="127.03"/>
	<line style="fill:none;stroke:#000000;stroke-miterlimit:1;" x1="263.819" y1="127.03" x2="268.077" y2="126.423"/>
	<line style="fill:none;stroke:#000000;stroke-miterlimit:1;" x1="268.077" y1="126.423" x2="271.727" y2="123.686"/>
	<line style="fill:none;stroke:#000000;stroke-miterlimit:1;" x1="271.727" y1="123.686" x2="274.159" y2="120.948"/>
	<line style="fill:none;stroke:#000000;stroke-miterlimit:1;" x1="274.159" y1="120.948" x2="276.896" y2="117.299"/>
	<line style="fill:none;stroke:#000000;stroke-miterlimit:1;" x1="276.896" y1="117.299" x2="279.025" y2="113.953"/>
	<line style="fill:none;stroke:#000000;stroke-miterlimit:1;" x1="279.025" y1="113.953" x2="285.108" y2="104.524"/>
	<line style="fill:none;stroke:#000000;stroke-miterlimit:1;" x1="285.108" y1="104.524" x2="288.149" y2="102.092"/>
	<line style="fill:none;stroke:#000000;stroke-miterlimit:1;" x1="288.149" y1="102.092" x2="291.8" y2="100.571"/>
	<line style="fill:none;stroke:#000000;stroke-miterlimit:1;" x1="291.8" y1="100.571" x2="296.666" y2="100.571"/>
	<line style="fill:none;stroke:#000000;stroke-miterlimit:1;" x1="296.666" y1="100.571" x2="300.011" y2="102.396"/>
	<line style="fill:none;stroke:#000000;stroke-miterlimit:1;" x1="300.011" y1="102.396" x2="302.748" y2="105.133"/>
	<line style="fill:none;stroke:#000000;stroke-miterlimit:1;" x1="302.748" y1="105.133" x2="305.485" y2="111.824"/>
	<line style="fill:none;stroke:#000000;stroke-miterlimit:1;" x1="305.485" y1="111.824" x2="305.485" y2="150.146"/>
	<line style="fill:none;stroke:#000000;stroke-miterlimit:1;" x1="305.485" y1="150.146" x2="157.371" y2="150.146"/>
	<line style="fill:none;stroke:#000000;stroke-miterlimit:1;" x1="404.764" y1="41.719" x2="327.086" y2="41.719"/>
	<line style="fill:none;stroke:#000000;stroke-miterlimit:1;" x1="327.086" y1="41.719" x2="328.073" y2="35.136"/>
	<line style="fill:none;stroke:#000000;stroke-miterlimit:1;" x1="328.073" y1="35.136" x2="329.061" y2="30.857"/>
	<line style="fill:none;stroke:#000000;stroke-miterlimit:1;" x1="329.061" y1="30.857" x2="330.706" y2="26.578"/>
	<line style="fill:none;stroke:#000000;stroke-miterlimit:1;" x1="330.706" y1="26.578" x2="333.01" y2="23.287"/>
	<line style="fill:none;stroke:#000000;stroke-miterlimit:1;" x1="333.01" y1="23.287" x2="334.985" y2="20.325"/>
	<line style="fill:none;stroke:#000000;stroke-miterlimit:1;" x1="334.985" y1="20.325" x2="337.618" y2="16.704"/>
	<line style="fill:none;stroke:#000000;stroke-miterlimit:1;" x1="337.618" y1="16.704" x2="340.58" y2="14.071"/>
	<line style="fill:none;stroke:#000000;stroke-miterlimit:1;" x1="340.58" y1="14.071" x2="344.201" y2="11.438"/>
	<line style="fill:none;stroke:#000000;stroke-miterlimit:1;" x1="344.201" y1="11.438" x2="347.163" y2="9.463"/>
	<line style="fill:none;stroke:#000000;stroke-miterlimit:1;" x1="347.163" y1="9.463" x2="351.442" y2="7.488"/>
	<line style="fill:none;stroke:#000000;stroke-miterlimit:1;" x1="351.442" y1="7.488" x2="355.721" y2="6.171"/>
	<line style="fill:none;stroke:#000000;stroke-miterlimit:1;" x1="355.721" y1="6.171" x2="358.684" y2="5.513"/>
	<line style="fill:none;stroke:#000000;stroke-miterlimit:1;" x1="358.684" y1="5.513" x2="363.949" y2="4.855"/>
	<line style="fill:none;stroke:#000000;stroke-miterlimit:1;" x1="363.949" y1="4.855" x2="367.899" y2="4.855"/>
	<line style="fill:none;stroke:#000000;stroke-miterlimit:1;" x1="367.899" y1="4.855" x2="371.52" y2="5.513"/>
	<line style="fill:none;stroke:#000000;stroke-miterlimit:1;" x1="371.52" y1="5.513" x2="375.47" y2="6.171"/>
	<line style="fill:none;stroke:#000000;stroke-miterlimit:1;" x1="375.47" y1="6.171" x2="379.748" y2="7.159"/>
	<line style="fill:none;stroke:#000000;stroke-miterlimit:1;" x1="379.748" y1="7.159" x2="382.711" y2="8.146"/>
	<line style="fill:none;stroke:#000000;stroke-miterlimit:1;" x1="382.711" y1="8.146" x2="386.66" y2="10.779"/>
	<line style="fill:none;stroke:#000000;stroke-miterlimit:1;" x1="386.66" y1="10.779" x2="389.952" y2="13.083"/>
	<line style="fill:none;stroke:#000000;stroke-miterlimit:1;" x1="389.952" y1="13.083" x2="392.914" y2="15.388"/>
	<line style="fill:none;stroke:#000000;stroke-miterlimit:1;" x1="392.914" y1="15.388" x2="395.547" y2="18.679"/>
	<line style="fill:none;stroke:#000000;stroke-miterlimit:1;" x1="395.547" y1="18.679" x2="398.181" y2="22.299"/>
	<line style="fill:none;stroke:#000000;stroke-miterlimit:1;" x1="398.181" y1="22.299" x2="400.484" y2="25.92"/>
	<line style="fill:none;stroke:#000000;stroke-miterlimit:1;" x1="400.484" y1="25.92" x2="402.13" y2="29.211"/>
	<line style="fill:none;stroke:#000000;stroke-miterlimit:1;" x1="402.13" y1="29.211" x2="403.447" y2="34.148"/>
	<line style="fill:none;stroke:#000000;stroke-miterlimit:1;" x1="403.447" y1="34.148" x2="404.435" y2="37.769"/>
	<line style="fill:none;stroke:#000000;stroke-miterlimit:1;" x1="404.435" y1="37.769" x2="404.764" y2="41.719"/>
	<line style="fill:none;stroke:#000000;stroke-miterlimit:1;" x1="432.74" y1="67.145" x2="455.122" y2="46.738"/>
	<line style="fill:none;stroke:#000000;stroke-miterlimit:1;" x1="455.122" y1="46.738" x2="476.188" y2="67.145"/>
	<line style="fill:none;stroke:#000000;stroke-miterlimit:1;" x1="484.745" y1="57.929" x2="464.996" y2="37.852"/>
	<line style="fill:none;stroke:#000000;stroke-miterlimit:1;" x1="464.996" y1="37.852" x2="486.062" y2="17.774"/>
	<line style="fill:none;stroke:#000000;stroke-miterlimit:1;" x1="476.846" y1="7.57" x2="455.78" y2="27.648"/>
	<line style="fill:none;stroke:#000000;stroke-miterlimit:1;" x1="455.78" y1="27.648" x2="434.715" y2="5.925"/>
	<line style="fill:none;stroke:#000000;stroke-miterlimit:1;" x1="425.499" y1="14.812" x2="445.906" y2="36.535"/>
	<line style="fill:none;stroke:#000000;stroke-miterlimit:1;" x1="445.906" y1="36.535" x2="424.183" y2="57.271"/>
	<line style="fill:none;stroke:#000000;stroke-miterlimit:1;" x1="451.831" y1="74.057" x2="461.047" y2="73.728"/>
	<line style="fill:none;stroke:#000000;stroke-miterlimit:1;" x1="461.047" y1="73.728" x2="466.313" y2="72.412"/>
	<line style="fill:none;stroke:#000000;stroke-miterlimit:1;" x1="466.313" y1="72.412" x2="470.921" y2="70.437"/>
	<line style="fill:none;stroke:#000000;stroke-miterlimit:1;" x1="470.921" y1="70.437" x2="476.188" y2="66.816"/>
	<line style="fill:none;stroke:#000000;stroke-miterlimit:1;" x1="476.188" y1="66.816" x2="480.137" y2="63.195"/>
	<line style="fill:none;stroke:#000000;stroke-miterlimit:1;" x1="480.137" y1="63.195" x2="484.087" y2="58.917"/>
	<line style="fill:none;stroke:#000000;stroke-miterlimit:1;" x1="484.087" y1="58.917" x2="486.72" y2="54.638"/>
	<line style="fill:none;stroke:#000000;stroke-miterlimit:1;" x1="486.72" y1="54.638" x2="489.354" y2="50.03"/>
	<line style="fill:none;stroke:#000000;stroke-miterlimit:1;" x1="489.354" y1="50.03" x2="490.67" y2="45.422"/>
	<line style="fill:none;stroke:#000000;stroke-miterlimit:1;" x1="490.67" y1="45.422" x2="491.328" y2="40.155"/>
	<line style="fill:none;stroke:#000000;stroke-miterlimit:1;" x1="491.328" y1="40.155" x2="491.328" y2="34.889"/>
	<line style="fill:none;stroke:#000000;stroke-miterlimit:1;" x1="491.328" y1="34.889" x2="489.683" y2="25.673"/>
	<line style="fill:none;stroke:#000000;stroke-miterlimit:1;" x1="489.683" y1="25.673" x2="487.707" y2="20.736"/>
	<line style="fill:none;stroke:#000000;stroke-miterlimit:1;" x1="487.707" y1="20.736" x2="484.745" y2="15.799"/>
	<line style="fill:none;stroke:#000000;stroke-miterlimit:1;" x1="484.745" y1="15.799" x2="481.453" y2="11.191"/>
	<line style="fill:none;stroke:#000000;stroke-miterlimit:1;" x1="481.453" y1="11.191" x2="476.517" y2="6.912"/>
	<line style="fill:none;stroke:#000000;stroke-miterlimit:1;" x1="476.517" y1="6.912" x2="472.566" y2="4.279"/>
	<line style="fill:none;stroke:#000000;stroke-miterlimit:1;" x1="472.566" y1="4.279" x2="468.617" y2="2.633"/>
	<line style="fill:none;stroke:#000000;stroke-miterlimit:1;" x1="468.617" y1="2.633" x2="464.996" y2="1.316"/>
	<line style="fill:none;stroke:#000000;stroke-miterlimit:1;" x1="464.996" y1="1.316" x2="460.06" y2="0.329"/>
	<line style="fill:none;stroke:#000000;stroke-miterlimit:1;" x1="460.06" y1="0.329" x2="455.122" y2="0"/>
	<line style="fill:none;stroke:#000000;stroke-miterlimit:1;" x1="455.122" y1="0" x2="448.539" y2="0"/>
	<line style="fill:none;stroke:#000000;stroke-miterlimit:1;" x1="448.539" y1="0" x2="443.273" y2="1.316"/>
	<line style="fill:none;stroke:#000000;stroke-miterlimit:1;" x1="443.273" y1="1.316" x2="438.336" y2="3.292"/>
	<line style="fill:none;stroke:#000000;stroke-miterlimit:1;" x1="438.336" y1="3.292" x2="433.728" y2="5.925"/>
	<line style="fill:none;stroke:#000000;stroke-miterlimit:1;" x1="433.728" y1="5.925" x2="429.449" y2="9.545"/>
	<line style="fill:none;stroke:#000000;stroke-miterlimit:1;" x1="429.449" y1="9.545" x2="425.499" y2="14.153"/>
	<line style="fill:none;stroke:#000000;stroke-miterlimit:1;" x1="425.499" y1="14.153" x2="421.879" y2="18.761"/>
	<line style="fill:none;stroke:#000000;stroke-miterlimit:1;" x1="421.879" y1="18.761" x2="420.233" y2="22.053"/>
	<line style="fill:none;stroke:#000000;stroke-miterlimit:1;" x1="420.233" y1="22.053" x2="418.916" y2="25.673"/>
	<line style="fill:none;stroke:#000000;stroke-miterlimit:1;" x1="418.916" y1="25.673" x2="417.6" y2="31.927"/>
	<line style="fill:none;stroke:#000000;stroke-miterlimit:1;" x1="417.6" y1="31.927" x2="417.6" y2="37.852"/>
	<line style="fill:none;stroke:#000000;stroke-miterlimit:1;" x1="417.6" y1="37.852" x2="418.258" y2="42.13"/>
	<line style="fill:none;stroke:#000000;stroke-miterlimit:1;" x1="418.258" y1="42.13" x2="418.916" y2="46.738"/>
	<line style="fill:none;stroke:#000000;stroke-miterlimit:1;" x1="418.916" y1="46.738" x2="420.562" y2="51.346"/>
	<line style="fill:none;stroke:#000000;stroke-miterlimit:1;" x1="420.562" y1="51.346" x2="422.866" y2="56.613"/>
	<line style="fill:none;stroke:#000000;stroke-miterlimit:1;" x1="422.866" y1="56.613" x2="426.816" y2="61.55"/>
	<line style="fill:none;stroke:#000000;stroke-miterlimit:1;" x1="426.816" y1="61.55" x2="430.766" y2="65.17"/>
	<line style="fill:none;stroke:#000000;stroke-miterlimit:1;" x1="430.766" y1="65.17" x2="435.374" y2="68.791"/>
	<line style="fill:none;stroke:#000000;stroke-miterlimit:1;" x1="435.374" y1="68.791" x2="439.981" y2="71.095"/>
	<line style="fill:none;stroke:#000000;stroke-miterlimit:1;" x1="439.981" y1="71.095" x2="445.577" y2="73.07"/>
	<line style="fill:none;stroke:#000000;stroke-miterlimit:1;" x1="445.577" y1="73.07" x2="451.831" y2="74.057"/>
	<line style="fill:none;stroke:#000000;stroke-miterlimit:1;" x1="229.495" y1="11.067" x2="226.203" y2="11.067"/>
	<line style="fill:none;stroke:#000000;stroke-miterlimit:1;" x1="226.203" y1="11.067" x2="221.266" y2="12.055"/>
	<line style="fill:none;stroke:#000000;stroke-miterlimit:1;" x1="221.266" y1="12.055" x2="216.658" y2="13.042"/>
	<line style="fill:none;stroke:#000000;stroke-miterlimit:1;" x1="216.658" y1="13.042" x2="213.696" y2="14.359"/>
	<line style="fill:none;stroke:#000000;stroke-miterlimit:1;" x1="213.696" y1="14.359" x2="210.733" y2="16.334"/>
	<line style="fill:none;stroke:#000000;stroke-miterlimit:1;" x1="210.733" y1="16.334" x2="207.771" y2="18.309"/>
	<line style="fill:none;stroke:#000000;stroke-miterlimit:1;" x1="207.771" y1="18.309" x2="204.809" y2="21.6"/>
	<line style="fill:none;stroke:#000000;stroke-miterlimit:1;" x1="204.809" y1="21.6" x2="202.505" y2="25.221"/>
	<line style="fill:none;stroke:#000000;stroke-miterlimit:1;" x1="202.505" y1="25.221" x2="200.859" y2="29.17"/>
	<line style="fill:none;stroke:#000000;stroke-miterlimit:1;" x1="200.859" y1="29.17" x2="199.872" y2="34.107"/>
	<line style="fill:none;stroke:#000000;stroke-miterlimit:1;" x1="199.872" y1="34.107" x2="199.543" y2="39.374"/>
	<line style="fill:none;stroke:#000000;stroke-miterlimit:1;" x1="199.543" y1="39.374" x2="199.872" y2="42.994"/>
	<line style="fill:none;stroke:#000000;stroke-miterlimit:1;" x1="199.872" y1="42.994" x2="201.188" y2="47.603"/>
	<line style="fill:none;stroke:#000000;stroke-miterlimit:1;" x1="201.188" y1="47.603" x2="203.164" y2="52.21"/>
	<line style="fill:none;stroke:#000000;stroke-miterlimit:1;" x1="203.164" y1="52.21" x2="205.796" y2="56.489"/>
	<line style="fill:none;stroke:#000000;stroke-miterlimit:1;" x1="205.796" y1="56.489" x2="209.417" y2="59.781"/>
	<line style="fill:none;stroke:#000000;stroke-miterlimit:1;" x1="209.417" y1="59.781" x2="212.379" y2="61.426"/>
	<line style="fill:none;stroke:#000000;stroke-miterlimit:1;" x1="212.379" y1="61.426" x2="215.671" y2="63.072"/>
	<line style="fill:none;stroke:#000000;stroke-miterlimit:1;" x1="215.671" y1="63.072" x2="218.633" y2="64.06"/>
	<line style="fill:none;stroke:#000000;stroke-miterlimit:1;" x1="218.633" y1="64.06" x2="221.924" y2="64.389"/>
	<line style="fill:none;stroke:#000000;stroke-miterlimit:1;" x1="221.924" y1="64.389" x2="229.166" y2="65.047"/>
	<line style="fill:none;stroke:#000000;stroke-miterlimit:1;" x1="229.166" y1="65.047" x2="233.773" y2="64.718"/>
	<line style="fill:none;stroke:#000000;stroke-miterlimit:1;" x1="233.773" y1="64.718" x2="238.382" y2="64.06"/>
	<line style="fill:none;stroke:#000000;stroke-miterlimit:1;" x1="238.382" y1="64.06" x2="242.332" y2="63.072"/>
	<line style="fill:none;stroke:#000000;stroke-miterlimit:1;" x1="242.332" y1="63.072" x2="244.964" y2="62.084"/>
	<line style="fill:none;stroke:#000000;stroke-miterlimit:1;" x1="244.964" y1="62.084" x2="247.269" y2="60.439"/>
	<line style="fill:none;stroke:#000000;stroke-miterlimit:1;" x1="247.269" y1="60.439" x2="249.243" y2="59.123"/>
	<line style="fill:none;stroke:#000000;stroke-miterlimit:1;" x1="249.243" y1="59.123" x2="251.547" y2="57.147"/>
	<line style="fill:none;stroke:#000000;stroke-miterlimit:1;" x1="251.547" y1="57.147" x2="253.522" y2="54.514"/>
	<line style="fill:none;stroke:#000000;stroke-miterlimit:1;" x1="253.522" y1="54.514" x2="255.497" y2="51.552"/>
	<line style="fill:none;stroke:#000000;stroke-miterlimit:1;" x1="255.497" y1="51.552" x2="256.155" y2="49.577"/>
	<line style="fill:none;stroke:#000000;stroke-miterlimit:1;" x1="256.155" y1="49.577" x2="257.143" y2="47.603"/>
	<line style="fill:none;stroke:#000000;stroke-miterlimit:1;" x1="257.143" y1="47.603" x2="257.801" y2="45.298"/>
	<line style="fill:none;stroke:#000000;stroke-miterlimit:1;" x1="257.801" y1="45.298" x2="258.13" y2="42.665"/>
	<line style="fill:none;stroke:#000000;stroke-miterlimit:1;" x1="258.13" y1="42.665" x2="258.788" y2="38.715"/>
	<line style="fill:none;stroke:#000000;stroke-miterlimit:1;" x1="258.788" y1="38.715" x2="258.459" y2="35.753"/>
	<line style="fill:none;stroke:#000000;stroke-miterlimit:1;" x1="258.459" y1="35.753" x2="258.13" y2="32.462"/>
	<line style="fill:none;stroke:#000000;stroke-miterlimit:1;" x1="258.13" y1="32.462" x2="256.813" y2="28.512"/>
	<line style="fill:none;stroke:#000000;stroke-miterlimit:1;" x1="256.813" y1="28.512" x2="255.168" y2="24.233"/>
	<line style="fill:none;stroke:#000000;stroke-miterlimit:1;" x1="255.168" y1="24.233" x2="252.864" y2="21.6"/>
	<line style="fill:none;stroke:#000000;stroke-miterlimit:1;" x1="252.864" y1="21.6" x2="249.572" y2="18.309"/>
	<line style="fill:none;stroke:#000000;stroke-miterlimit:1;" x1="249.572" y1="18.309" x2="246.939" y2="16.334"/>
	<line style="fill:none;stroke:#000000;stroke-miterlimit:1;" x1="246.939" y1="16.334" x2="244.306" y2="14.359"/>
	<line style="fill:none;stroke:#000000;stroke-miterlimit:1;" x1="244.306" y1="14.359" x2="239.04" y2="12.384"/>
	<line style="fill:none;stroke:#000000;stroke-miterlimit:1;" x1="239.04" y1="12.384" x2="234.432" y2="11.396"/>
	<line style="fill:none;stroke:#000000;stroke-miterlimit:1;" x1="234.432" y1="11.396" x2="229.824" y2="11.067"/>
	<line style="fill:none;stroke:#000000;stroke-miterlimit:1;" x1="215.342" y1="13.701" x2="212.708" y2="13.701"/>
	<line style="fill:none;stroke:#000000;stroke-miterlimit:1;" x1="212.708" y1="13.701" x2="211.721" y2="12.713"/>
	<line style="fill:none;stroke:#000000;stroke-miterlimit:1;" x1="211.721" y1="12.713" x2="211.063" y2="11.726"/>
	<line style="fill:none;stroke:#000000;stroke-miterlimit:1;" x1="211.063" y1="11.726" x2="210.733" y2="9.751"/>
	<line style="fill:none;stroke:#000000;stroke-miterlimit:1;" x1="210.733" y1="9.751" x2="211.063" y2="7.776"/>
	<line style="fill:none;stroke:#000000;stroke-miterlimit:1;" x1="211.063" y1="7.776" x2="212.05" y2="6.459"/>
	<line style="fill:none;stroke:#000000;stroke-miterlimit:1;" x1="212.05" y1="6.459" x2="213.696" y2="5.801"/>
	<line style="fill:none;stroke:#000000;stroke-miterlimit:1;" x1="213.696" y1="5.801" x2="244.635" y2="5.801"/>
	<line style="fill:none;stroke:#000000;stroke-miterlimit:1;" x1="244.635" y1="5.801" x2="245.952" y2="6.459"/>
	<line style="fill:none;stroke:#000000;stroke-miterlimit:1;" x1="245.952" y1="6.459" x2="246.939" y2="7.776"/>
	<line style="fill:none;stroke:#000000;stroke-miterlimit:1;" x1="246.939" y1="7.776" x2="247.269" y2="9.422"/>
	<line style="fill:none;stroke:#000000;stroke-miterlimit:1;" x1="247.269" y1="9.422" x2="247.269" y2="10.409"/>
	<line style="fill:none;stroke:#000000;stroke-miterlimit:1;" x1="247.269" y1="10.409" x2="246.939" y2="11.726"/>
	<line style="fill:none;stroke:#000000;stroke-miterlimit:1;" x1="246.939" y1="11.726" x2="246.281" y2="12.713"/>
	<line style="fill:none;stroke:#000000;stroke-miterlimit:1;" x1="246.281" y1="12.713" x2="244.964" y2="13.701"/>
	<line style="fill:none;stroke:#000000;stroke-miterlimit:1;" x1="244.964" y1="13.701" x2="242.332" y2="13.701"/>
</g>
</svg>
