<?xml version="1.0" encoding="iso-8859-1"?>
<!-- Generator: Adobe Illustrator 16.0.1, SVG Export Plug-In . SVG Version: 6.00 Build 0)  -->
<!DOCTYPE svg PUBLIC "-//W3C//DTD SVG 1.1//EN" "http://www.w3.org/Graphics/SVG/1.1/DTD/svg11.dtd">
<svg version="1.1" id="Ebene_1" xmlns="http://www.w3.org/2000/svg" xmlns:xlink="http://www.w3.org/1999/xlink" x="0px" y="0px"
	 width="404.764px" height="149.102px" viewBox="0 0 404.764 149.102" style="enable-background:new 0 0 404.764 149.102;"
	 xml:space="preserve">
<g>
	<line style="fill:none;stroke:#000000;stroke-miterlimit:1;" x1="25.673" y1="45.093" x2="20.078" y2="140.215"/>
	<line style="fill:none;stroke:#000000;stroke-miterlimit:1;" x1="20.078" y1="140.215" x2="20.078" y2="143.506"/>
	<line style="fill:none;stroke:#000000;stroke-miterlimit:1;" x1="20.078" y1="143.506" x2="23.369" y2="147.127"/>
	<line style="fill:none;stroke:#000000;stroke-miterlimit:1;" x1="23.369" y1="147.127" x2="26.002" y2="147.785"/>
	<line style="fill:none;stroke:#000000;stroke-miterlimit:1;" x1="26.002" y1="147.785" x2="28.307" y2="148.115"/>
	<line style="fill:none;stroke:#000000;stroke-miterlimit:1;" x1="28.307" y1="148.115" x2="30.281" y2="148.115"/>
	<line style="fill:none;stroke:#000000;stroke-miterlimit:1;" x1="30.281" y1="148.115" x2="32.915" y2="147.127"/>
	<line style="fill:none;stroke:#000000;stroke-miterlimit:1;" x1="32.915" y1="147.127" x2="34.889" y2="145.48"/>
	<line style="fill:none;stroke:#000000;stroke-miterlimit:1;" x1="34.889" y1="145.48" x2="36.206" y2="143.178"/>
	<line style="fill:none;stroke:#000000;stroke-miterlimit:1;" x1="36.206" y1="143.178" x2="30.281" y2="45.093"/>
	<line style="fill:none;stroke:#000000;stroke-miterlimit:1;" x1="57.6" y1="45.093" x2="55.955" y2="38.181"/>
	<line style="fill:none;stroke:#000000;stroke-miterlimit:1;" x1="55.955" y1="38.181" x2="52.992" y2="31.598"/>
	<line style="fill:none;stroke:#000000;stroke-miterlimit:1;" x1="52.992" y1="31.598" x2="48.713" y2="26.332"/>
	<line style="fill:none;stroke:#000000;stroke-miterlimit:1;" x1="48.713" y1="26.332" x2="46.08" y2="23.698"/>
	<line style="fill:none;stroke:#000000;stroke-miterlimit:1;" x1="46.08" y1="23.698" x2="41.472" y2="21.065"/>
	<line style="fill:none;stroke:#000000;stroke-miterlimit:1;" x1="41.472" y1="21.065" x2="37.522" y2="19.749"/>
	<line style="fill:none;stroke:#000000;stroke-miterlimit:1;" x1="37.522" y1="19.749" x2="34.231" y2="18.761"/>
	<line style="fill:none;stroke:#000000;stroke-miterlimit:1;" x1="34.231" y1="18.761" x2="30.281" y2="18.103"/>
	<line style="fill:none;stroke:#000000;stroke-miterlimit:1;" x1="30.281" y1="18.103" x2="25.344" y2="18.103"/>
	<line style="fill:none;stroke:#000000;stroke-miterlimit:1;" x1="25.344" y1="18.103" x2="19.09" y2="19.419"/>
	<line style="fill:none;stroke:#000000;stroke-miterlimit:1;" x1="19.09" y1="19.419" x2="12.508" y2="23.04"/>
	<line style="fill:none;stroke:#000000;stroke-miterlimit:1;" x1="12.508" y1="23.04" x2="7.899" y2="26.99"/>
	<line style="fill:none;stroke:#000000;stroke-miterlimit:1;" x1="7.899" y1="26.99" x2="5.925" y2="29.294"/>
	<line style="fill:none;stroke:#000000;stroke-miterlimit:1;" x1="5.925" y1="29.294" x2="3.292" y2="33.573"/>
	<line style="fill:none;stroke:#000000;stroke-miterlimit:1;" x1="3.292" y1="33.573" x2="1.317" y2="38.51"/>
	<line style="fill:none;stroke:#000000;stroke-miterlimit:1;" x1="1.317" y1="38.51" x2="0.329" y2="41.801"/>
	<line style="fill:none;stroke:#000000;stroke-miterlimit:1;" x1="0.329" y1="41.801" x2="0" y2="45.093"/>
	<line style="fill:none;stroke:#000000;stroke-miterlimit:1;" x1="0" y1="45.093" x2="57.6" y2="45.093"/>
	<line style="fill:none;stroke:#000000;stroke-miterlimit:1;" x1="26.002" y1="18.432" x2="24.027" y2="2.633"/>
	<line style="fill:none;stroke:#000000;stroke-miterlimit:1;" x1="24.027" y1="2.633" x2="24.686" y2="0.988"/>
	<line style="fill:none;stroke:#000000;stroke-miterlimit:1;" x1="24.686" y1="0.988" x2="26.661" y2="0"/>
	<line style="fill:none;stroke:#000000;stroke-miterlimit:1;" x1="26.661" y1="0" x2="29.294" y2="0.329"/>
	<line style="fill:none;stroke:#000000;stroke-miterlimit:1;" x1="29.294" y1="0.329" x2="31.269" y2="0.988"/>
	<line style="fill:none;stroke:#000000;stroke-miterlimit:1;" x1="31.269" y1="0.988" x2="31.598" y2="2.962"/>
	<line style="fill:none;stroke:#000000;stroke-miterlimit:1;" x1="31.598" y1="2.962" x2="30.281" y2="17.774"/>
	<line style="fill:none;stroke:#000000;stroke-miterlimit:1;" x1="145.193" y1="0.329" x2="143.547" y2="33.573"/>
	<line style="fill:none;stroke:#000000;stroke-miterlimit:1;" x1="143.547" y1="33.573" x2="142.889" y2="61.879"/>
	<line style="fill:none;stroke:#000000;stroke-miterlimit:1;" x1="142.889" y1="61.879" x2="142.231" y2="83.602"/>
	<line style="fill:none;stroke:#000000;stroke-miterlimit:1;" x1="142.231" y1="83.602" x2="140.585" y2="99.072"/>
	<line style="fill:none;stroke:#000000;stroke-miterlimit:1;" x1="140.585" y1="99.072" x2="139.269" y2="113.883"/>
	<line style="fill:none;stroke:#000000;stroke-miterlimit:1;" x1="139.269" y1="113.883" x2="139.927" y2="129.682"/>
	<line style="fill:none;stroke:#000000;stroke-miterlimit:1;" x1="139.927" y1="129.682" x2="140.915" y2="134.619"/>
	<line style="fill:none;stroke:#000000;stroke-miterlimit:1;" x1="140.915" y1="134.619" x2="141.573" y2="138.568"/>
	<line style="fill:none;stroke:#000000;stroke-miterlimit:1;" x1="141.573" y1="138.568" x2="141.244" y2="142.52"/>
	<line style="fill:none;stroke:#000000;stroke-miterlimit:1;" x1="141.244" y1="142.52" x2="139.269" y2="145.152"/>
	<line style="fill:none;stroke:#000000;stroke-miterlimit:1;" x1="139.269" y1="145.152" x2="136.307" y2="147.127"/>
	<line style="fill:none;stroke:#000000;stroke-miterlimit:1;" x1="136.307" y1="147.127" x2="132.686" y2="147.785"/>
	<line style="fill:none;stroke:#000000;stroke-miterlimit:1;" x1="132.686" y1="147.785" x2="126.103" y2="146.139"/>
	<line style="fill:none;stroke:#000000;stroke-miterlimit:1;" x1="126.103" y1="146.139" x2="123.47" y2="144.164"/>
	<line style="fill:none;stroke:#000000;stroke-miterlimit:1;" x1="123.47" y1="144.164" x2="119.191" y2="143.178"/>
	<line style="fill:none;stroke:#000000;stroke-miterlimit:1;" x1="119.191" y1="143.178" x2="109.317" y2="148.115"/>
	<line style="fill:none;stroke:#000000;stroke-miterlimit:1;" x1="109.317" y1="148.115" x2="68.503" y2="147.785"/>
	<line style="fill:none;stroke:#000000;stroke-miterlimit:1;" x1="68.503" y1="147.785" x2="66.857" y2="142.52"/>
	<line style="fill:none;stroke:#000000;stroke-miterlimit:1;" x1="66.857" y1="142.52" x2="68.174" y2="139.887"/>
	<line style="fill:none;stroke:#000000;stroke-miterlimit:1;" x1="68.174" y1="139.887" x2="71.794" y2="139.229"/>
	<line style="fill:none;stroke:#000000;stroke-miterlimit:1;" x1="71.794" y1="139.229" x2="85.948" y2="136.266"/>
	<line style="fill:none;stroke:#000000;stroke-miterlimit:1;" x1="85.948" y1="136.266" x2="97.797" y2="130.34"/>
	<line style="fill:none;stroke:#000000;stroke-miterlimit:1;" x1="97.797" y1="130.34" x2="105.696" y2="127.379"/>
	<line style="fill:none;stroke:#000000;stroke-miterlimit:1;" x1="105.696" y1="127.379" x2="112.608" y2="125.732"/>
	<line style="fill:none;stroke:#000000;stroke-miterlimit:1;" x1="112.608" y1="125.732" x2="117.545" y2="121.453"/>
	<line style="fill:none;stroke:#000000;stroke-miterlimit:1;" x1="117.545" y1="121.453" x2="119.191" y2="117.176"/>
	<line style="fill:none;stroke:#000000;stroke-miterlimit:1;" x1="119.191" y1="117.176" x2="119.52" y2="112.566"/>
	<line style="fill:none;stroke:#000000;stroke-miterlimit:1;" x1="119.52" y1="112.566" x2="118.862" y2="105.654"/>
	<line style="fill:none;stroke:#000000;stroke-miterlimit:1;" x1="118.862" y1="105.654" x2="118.533" y2="96.439"/>
	<line style="fill:none;stroke:#000000;stroke-miterlimit:1;" x1="118.533" y1="96.439" x2="117.875" y2="71.424"/>
	<line style="fill:none;stroke:#000000;stroke-miterlimit:1;" x1="117.875" y1="71.424" x2="117.545" y2="46.409"/>
	<line style="fill:none;stroke:#000000;stroke-miterlimit:1;" x1="117.545" y1="46.409" x2="114.912" y2="0"/>
	<line style="fill:none;stroke:#000000;stroke-miterlimit:1;" x1="114.912" y1="0" x2="145.193" y2="0"/>
	<line style="fill:none;stroke:#000000;stroke-miterlimit:1;" x1="258.611" y1="32.471" x2="268.646" y2="28.517"/>
	<line style="fill:none;stroke:#000000;stroke-miterlimit:1;" x1="268.646" y1="28.517" x2="270.168" y2="28.821"/>
	<line style="fill:none;stroke:#000000;stroke-miterlimit:1;" x1="270.168" y1="28.821" x2="271.992" y2="30.646"/>
	<line style="fill:none;stroke:#000000;stroke-miterlimit:1;" x1="271.992" y1="30.646" x2="273.818" y2="35.512"/>
	<line style="fill:none;stroke:#000000;stroke-miterlimit:1;" x1="273.818" y1="35.512" x2="272.297" y2="37.641"/>
	<line style="fill:none;stroke:#000000;stroke-miterlimit:1;" x1="272.297" y1="37.641" x2="270.168" y2="39.162"/>
	<line style="fill:none;stroke:#000000;stroke-miterlimit:1;" x1="270.168" y1="39.162" x2="262.26" y2="42.812"/>
	<line style="fill:none;stroke:#000000;stroke-miterlimit:1;" x1="202.042" y1="31.559" x2="192.005" y2="27.604"/>
	<line style="fill:none;stroke:#000000;stroke-miterlimit:1;" x1="192.005" y1="27.604" x2="190.18" y2="27.909"/>
	<line style="fill:none;stroke:#000000;stroke-miterlimit:1;" x1="190.18" y1="27.909" x2="188.66" y2="29.734"/>
	<line style="fill:none;stroke:#000000;stroke-miterlimit:1;" x1="188.66" y1="29.734" x2="186.835" y2="34.6"/>
	<line style="fill:none;stroke:#000000;stroke-miterlimit:1;" x1="186.835" y1="34.6" x2="187.443" y2="36.729"/>
	<line style="fill:none;stroke:#000000;stroke-miterlimit:1;" x1="187.443" y1="36.729" x2="190.789" y2="38.25"/>
	<line style="fill:none;stroke:#000000;stroke-miterlimit:1;" x1="190.789" y1="38.25" x2="198.392" y2="41.899"/>
	<line style="fill:none;stroke:#000000;stroke-miterlimit:1;" x1="250.703" y1="84.174" x2="209.342" y2="84.174"/>
	<line style="fill:none;stroke:#000000;stroke-miterlimit:1;" x1="209.342" y1="84.174" x2="201.737" y2="61.06"/>
	<line style="fill:none;stroke:#000000;stroke-miterlimit:1;" x1="201.737" y1="61.06" x2="199.608" y2="54.064"/>
	<line style="fill:none;stroke:#000000;stroke-miterlimit:1;" x1="199.608" y1="54.064" x2="198.392" y2="42.812"/>
	<line style="fill:none;stroke:#000000;stroke-miterlimit:1;" x1="198.392" y1="42.812" x2="199" y2="38.858"/>
	<line style="fill:none;stroke:#000000;stroke-miterlimit:1;" x1="199" y1="38.858" x2="201.129" y2="32.775"/>
	<line style="fill:none;stroke:#000000;stroke-miterlimit:1;" x1="201.129" y1="32.775" x2="205.082" y2="27.3"/>
	<line style="fill:none;stroke:#000000;stroke-miterlimit:1;" x1="205.082" y1="27.3" x2="211.773" y2="23.347"/>
	<line style="fill:none;stroke:#000000;stroke-miterlimit:1;" x1="211.773" y1="23.347" x2="214.814" y2="20.609"/>
	<line style="fill:none;stroke:#000000;stroke-miterlimit:1;" x1="214.814" y1="20.609" x2="216.641" y2="17.873"/>
	<line style="fill:none;stroke:#000000;stroke-miterlimit:1;" x1="216.641" y1="17.873" x2="217.248" y2="15.743"/>
	<line style="fill:none;stroke:#000000;stroke-miterlimit:1;" x1="217.248" y1="15.743" x2="217.553" y2="14.527"/>
	<line style="fill:none;stroke:#000000;stroke-miterlimit:1;" x1="217.553" y1="14.527" x2="216.336" y2="11.485"/>
	<line style="fill:none;stroke:#000000;stroke-miterlimit:1;" x1="216.336" y1="11.485" x2="214.207" y2="9.661"/>
	<line style="fill:none;stroke:#000000;stroke-miterlimit:1;" x1="214.207" y1="9.661" x2="211.166" y2="8.14"/>
	<line style="fill:none;stroke:#000000;stroke-miterlimit:1;" x1="211.166" y1="8.14" x2="209.342" y2="6.923"/>
	<line style="fill:none;stroke:#000000;stroke-miterlimit:1;" x1="209.342" y1="6.923" x2="208.428" y2="5.403"/>
	<line style="fill:none;stroke:#000000;stroke-miterlimit:1;" x1="208.428" y1="5.403" x2="208.428" y2="3.578"/>
	<line style="fill:none;stroke:#000000;stroke-miterlimit:1;" x1="208.428" y1="3.578" x2="209.645" y2="2.057"/>
	<line style="fill:none;stroke:#000000;stroke-miterlimit:1;" x1="209.645" y1="2.057" x2="250.703" y2="2.057"/>
	<line style="fill:none;stroke:#000000;stroke-miterlimit:1;" x1="250.703" y1="2.057" x2="251.92" y2="3.882"/>
	<line style="fill:none;stroke:#000000;stroke-miterlimit:1;" x1="251.92" y1="3.882" x2="251.312" y2="6.315"/>
	<line style="fill:none;stroke:#000000;stroke-miterlimit:1;" x1="251.312" y1="6.315" x2="250.096" y2="7.836"/>
	<line style="fill:none;stroke:#000000;stroke-miterlimit:1;" x1="250.096" y1="7.836" x2="210.557" y2="7.836"/>
	<line style="fill:none;stroke:#000000;stroke-miterlimit:1;" x1="249.184" y1="8.14" x2="247.357" y2="9.052"/>
	<line style="fill:none;stroke:#000000;stroke-miterlimit:1;" x1="247.357" y1="9.052" x2="244.316" y2="11.181"/>
	<line style="fill:none;stroke:#000000;stroke-miterlimit:1;" x1="244.316" y1="11.181" x2="243.1" y2="13.31"/>
	<line style="fill:none;stroke:#000000;stroke-miterlimit:1;" x1="243.1" y1="13.31" x2="242.795" y2="15.439"/>
	<line style="fill:none;stroke:#000000;stroke-miterlimit:1;" x1="242.795" y1="15.439" x2="243.709" y2="17.264"/>
	<line style="fill:none;stroke:#000000;stroke-miterlimit:1;" x1="243.709" y1="17.264" x2="244.621" y2="19.089"/>
	<line style="fill:none;stroke:#000000;stroke-miterlimit:1;" x1="244.621" y1="19.089" x2="246.445" y2="20.914"/>
	<line style="fill:none;stroke:#000000;stroke-miterlimit:1;" x1="246.445" y1="20.914" x2="250.398" y2="23.347"/>
	<line style="fill:none;stroke:#000000;stroke-miterlimit:1;" x1="250.398" y1="23.347" x2="254.354" y2="26.388"/>
	<line style="fill:none;stroke:#000000;stroke-miterlimit:1;" x1="254.354" y1="26.388" x2="256.785" y2="29.43"/>
	<line style="fill:none;stroke:#000000;stroke-miterlimit:1;" x1="256.785" y1="29.43" x2="259.828" y2="34.295"/>
	<line style="fill:none;stroke:#000000;stroke-miterlimit:1;" x1="259.828" y1="34.295" x2="261.348" y2="39.162"/>
	<line style="fill:none;stroke:#000000;stroke-miterlimit:1;" x1="261.348" y1="39.162" x2="261.957" y2="44.028"/>
	<line style="fill:none;stroke:#000000;stroke-miterlimit:1;" x1="261.957" y1="44.028" x2="261.348" y2="50.719"/>
	<line style="fill:none;stroke:#000000;stroke-miterlimit:1;" x1="261.348" y1="50.719" x2="259.219" y2="59.843"/>
	<line style="fill:none;stroke:#000000;stroke-miterlimit:1;" x1="259.219" y1="59.843" x2="250.703" y2="83.869"/>
	<line style="fill:none;stroke:#000000;stroke-miterlimit:1;" x1="157.372" y1="145.99" x2="157.372" y2="107.668"/>
	<line style="fill:none;stroke:#000000;stroke-miterlimit:1;" x1="157.372" y1="107.668" x2="159.196" y2="102.498"/>
	<line style="fill:none;stroke:#000000;stroke-miterlimit:1;" x1="159.196" y1="102.498" x2="161.629" y2="99.762"/>
	<line style="fill:none;stroke:#000000;stroke-miterlimit:1;" x1="161.629" y1="99.762" x2="165.887" y2="96.719"/>
	<line style="fill:none;stroke:#000000;stroke-miterlimit:1;" x1="165.887" y1="96.719" x2="169.233" y2="96.111"/>
	<line style="fill:none;stroke:#000000;stroke-miterlimit:1;" x1="169.233" y1="96.111" x2="172.579" y2="97.023"/>
	<line style="fill:none;stroke:#000000;stroke-miterlimit:1;" x1="172.579" y1="97.023" x2="175.011" y2="97.936"/>
	<line style="fill:none;stroke:#000000;stroke-miterlimit:1;" x1="175.011" y1="97.936" x2="178.053" y2="100.977"/>
	<line style="fill:none;stroke:#000000;stroke-miterlimit:1;" x1="178.053" y1="100.977" x2="182.311" y2="108.277"/>
	<line style="fill:none;stroke:#000000;stroke-miterlimit:1;" x1="182.311" y1="108.277" x2="186.569" y2="114.359"/>
	<line style="fill:none;stroke:#000000;stroke-miterlimit:1;" x1="186.569" y1="114.359" x2="191.131" y2="119.834"/>
	<line style="fill:none;stroke:#000000;stroke-miterlimit:1;" x1="191.131" y1="119.834" x2="195.084" y2="122.268"/>
	<line style="fill:none;stroke:#000000;stroke-miterlimit:1;" x1="195.084" y1="122.268" x2="199.646" y2="122.875"/>
	<line style="fill:none;stroke:#000000;stroke-miterlimit:1;" x1="199.646" y1="122.875" x2="204.209" y2="121.658"/>
	<line style="fill:none;stroke:#000000;stroke-miterlimit:1;" x1="204.209" y1="121.658" x2="207.25" y2="119.834"/>
	<line style="fill:none;stroke:#000000;stroke-miterlimit:1;" x1="207.25" y1="119.834" x2="210.291" y2="116.793"/>
	<line style="fill:none;stroke:#000000;stroke-miterlimit:1;" x1="210.291" y1="116.793" x2="217.287" y2="107.061"/>
	<line style="fill:none;stroke:#000000;stroke-miterlimit:1;" x1="217.287" y1="107.061" x2="220.633" y2="102.803"/>
	<line style="fill:none;stroke:#000000;stroke-miterlimit:1;" x1="220.633" y1="102.803" x2="223.674" y2="99.457"/>
	<line style="fill:none;stroke:#000000;stroke-miterlimit:1;" x1="223.674" y1="99.457" x2="226.715" y2="97.936"/>
	<line style="fill:none;stroke:#000000;stroke-miterlimit:1;" x1="226.715" y1="97.936" x2="229.451" y2="96.719"/>
	<line style="fill:none;stroke:#000000;stroke-miterlimit:1;" x1="229.451" y1="96.719" x2="232.189" y2="96.719"/>
	<line style="fill:none;stroke:#000000;stroke-miterlimit:1;" x1="232.189" y1="96.719" x2="234.623" y2="97.328"/>
	<line style="fill:none;stroke:#000000;stroke-miterlimit:1;" x1="234.623" y1="97.328" x2="238.576" y2="99.152"/>
	<line style="fill:none;stroke:#000000;stroke-miterlimit:1;" x1="238.576" y1="99.152" x2="243.139" y2="103.715"/>
	<line style="fill:none;stroke:#000000;stroke-miterlimit:1;" x1="243.139" y1="103.715" x2="247.396" y2="109.494"/>
	<line style="fill:none;stroke:#000000;stroke-miterlimit:1;" x1="247.396" y1="109.494" x2="251.957" y2="115.881"/>
	<line style="fill:none;stroke:#000000;stroke-miterlimit:1;" x1="251.957" y1="115.881" x2="255.303" y2="119.227"/>
	<line style="fill:none;stroke:#000000;stroke-miterlimit:1;" x1="255.303" y1="119.227" x2="258.346" y2="121.658"/>
	<line style="fill:none;stroke:#000000;stroke-miterlimit:1;" x1="258.346" y1="121.658" x2="261.689" y2="122.57"/>
	<line style="fill:none;stroke:#000000;stroke-miterlimit:1;" x1="261.689" y1="122.57" x2="263.818" y2="122.875"/>
	<line style="fill:none;stroke:#000000;stroke-miterlimit:1;" x1="263.818" y1="122.875" x2="268.076" y2="122.268"/>
	<line style="fill:none;stroke:#000000;stroke-miterlimit:1;" x1="268.076" y1="122.268" x2="271.727" y2="119.529"/>
	<line style="fill:none;stroke:#000000;stroke-miterlimit:1;" x1="271.727" y1="119.529" x2="274.16" y2="116.793"/>
	<line style="fill:none;stroke:#000000;stroke-miterlimit:1;" x1="274.16" y1="116.793" x2="276.896" y2="113.143"/>
	<line style="fill:none;stroke:#000000;stroke-miterlimit:1;" x1="276.896" y1="113.143" x2="279.025" y2="109.797"/>
	<line style="fill:none;stroke:#000000;stroke-miterlimit:1;" x1="279.025" y1="109.797" x2="285.109" y2="100.369"/>
	<line style="fill:none;stroke:#000000;stroke-miterlimit:1;" x1="285.109" y1="100.369" x2="288.15" y2="97.936"/>
	<line style="fill:none;stroke:#000000;stroke-miterlimit:1;" x1="288.15" y1="97.936" x2="291.799" y2="96.416"/>
	<line style="fill:none;stroke:#000000;stroke-miterlimit:1;" x1="291.799" y1="96.416" x2="296.666" y2="96.416"/>
	<line style="fill:none;stroke:#000000;stroke-miterlimit:1;" x1="296.666" y1="96.416" x2="300.012" y2="98.24"/>
	<line style="fill:none;stroke:#000000;stroke-miterlimit:1;" x1="300.012" y1="98.24" x2="302.748" y2="100.977"/>
	<line style="fill:none;stroke:#000000;stroke-miterlimit:1;" x1="302.748" y1="100.977" x2="305.486" y2="107.668"/>
	<line style="fill:none;stroke:#000000;stroke-miterlimit:1;" x1="305.486" y1="107.668" x2="305.486" y2="145.99"/>
	<line style="fill:none;stroke:#000000;stroke-miterlimit:1;" x1="305.486" y1="145.99" x2="157.372" y2="145.99"/>
	<line style="fill:none;stroke:#000000;stroke-miterlimit:1;" x1="404.764" y1="37.563" x2="327.086" y2="37.563"/>
	<line style="fill:none;stroke:#000000;stroke-miterlimit:1;" x1="327.086" y1="37.563" x2="328.074" y2="30.98"/>
	<line style="fill:none;stroke:#000000;stroke-miterlimit:1;" x1="328.074" y1="30.98" x2="329.061" y2="26.702"/>
	<line style="fill:none;stroke:#000000;stroke-miterlimit:1;" x1="329.061" y1="26.702" x2="330.707" y2="22.423"/>
	<line style="fill:none;stroke:#000000;stroke-miterlimit:1;" x1="330.707" y1="22.423" x2="333.01" y2="19.131"/>
	<line style="fill:none;stroke:#000000;stroke-miterlimit:1;" x1="333.01" y1="19.131" x2="334.984" y2="16.169"/>
	<line style="fill:none;stroke:#000000;stroke-miterlimit:1;" x1="334.984" y1="16.169" x2="337.619" y2="12.549"/>
	<line style="fill:none;stroke:#000000;stroke-miterlimit:1;" x1="337.619" y1="12.549" x2="340.58" y2="9.916"/>
	<line style="fill:none;stroke:#000000;stroke-miterlimit:1;" x1="340.58" y1="9.916" x2="344.201" y2="7.282"/>
	<line style="fill:none;stroke:#000000;stroke-miterlimit:1;" x1="344.201" y1="7.282" x2="347.164" y2="5.308"/>
	<line style="fill:none;stroke:#000000;stroke-miterlimit:1;" x1="347.164" y1="5.308" x2="351.443" y2="3.333"/>
	<line style="fill:none;stroke:#000000;stroke-miterlimit:1;" x1="351.443" y1="3.333" x2="355.721" y2="2.016"/>
	<line style="fill:none;stroke:#000000;stroke-miterlimit:1;" x1="355.721" y1="2.016" x2="358.684" y2="1.358"/>
	<line style="fill:none;stroke:#000000;stroke-miterlimit:1;" x1="358.684" y1="1.358" x2="363.949" y2="0.7"/>
	<line style="fill:none;stroke:#000000;stroke-miterlimit:1;" x1="363.949" y1="0.7" x2="367.9" y2="0.7"/>
	<line style="fill:none;stroke:#000000;stroke-miterlimit:1;" x1="367.9" y1="0.7" x2="371.52" y2="1.358"/>
	<line style="fill:none;stroke:#000000;stroke-miterlimit:1;" x1="371.52" y1="1.358" x2="375.471" y2="2.016"/>
	<line style="fill:none;stroke:#000000;stroke-miterlimit:1;" x1="375.471" y1="2.016" x2="379.748" y2="3.003"/>
	<line style="fill:none;stroke:#000000;stroke-miterlimit:1;" x1="379.748" y1="3.003" x2="382.711" y2="3.991"/>
	<line style="fill:none;stroke:#000000;stroke-miterlimit:1;" x1="382.711" y1="3.991" x2="386.66" y2="6.624"/>
	<line style="fill:none;stroke:#000000;stroke-miterlimit:1;" x1="386.66" y1="6.624" x2="389.953" y2="8.928"/>
	<line style="fill:none;stroke:#000000;stroke-miterlimit:1;" x1="389.953" y1="8.928" x2="392.914" y2="11.232"/>
	<line style="fill:none;stroke:#000000;stroke-miterlimit:1;" x1="392.914" y1="11.232" x2="395.547" y2="14.523"/>
	<line style="fill:none;stroke:#000000;stroke-miterlimit:1;" x1="395.547" y1="14.523" x2="398.182" y2="18.144"/>
	<line style="fill:none;stroke:#000000;stroke-miterlimit:1;" x1="398.182" y1="18.144" x2="400.484" y2="21.765"/>
	<line style="fill:none;stroke:#000000;stroke-miterlimit:1;" x1="400.484" y1="21.765" x2="402.131" y2="25.056"/>
	<line style="fill:none;stroke:#000000;stroke-miterlimit:1;" x1="402.131" y1="25.056" x2="403.447" y2="29.993"/>
	<line style="fill:none;stroke:#000000;stroke-miterlimit:1;" x1="403.447" y1="29.993" x2="404.434" y2="33.614"/>
	<line style="fill:none;stroke:#000000;stroke-miterlimit:1;" x1="404.434" y1="33.614" x2="404.764" y2="37.563"/>
	<line style="fill:none;stroke:#000000;stroke-miterlimit:1;" x1="345.312" y1="142.189" x2="367.693" y2="121.783"/>
	<line style="fill:none;stroke:#000000;stroke-miterlimit:1;" x1="367.693" y1="121.783" x2="388.76" y2="142.189"/>
	<line style="fill:none;stroke:#000000;stroke-miterlimit:1;" x1="397.316" y1="132.975" x2="377.568" y2="112.896"/>
	<line style="fill:none;stroke:#000000;stroke-miterlimit:1;" x1="377.568" y1="112.896" x2="398.633" y2="92.818"/>
	<line style="fill:none;stroke:#000000;stroke-miterlimit:1;" x1="389.418" y1="82.615" x2="368.352" y2="102.693"/>
	<line style="fill:none;stroke:#000000;stroke-miterlimit:1;" x1="368.352" y1="102.693" x2="347.287" y2="80.969"/>
	<line style="fill:none;stroke:#000000;stroke-miterlimit:1;" x1="338.07" y1="89.855" x2="358.479" y2="111.58"/>
	<line style="fill:none;stroke:#000000;stroke-miterlimit:1;" x1="358.479" y1="111.58" x2="336.754" y2="132.316"/>
	<line style="fill:none;stroke:#000000;stroke-miterlimit:1;" x1="364.402" y1="149.102" x2="373.619" y2="148.773"/>
	<line style="fill:none;stroke:#000000;stroke-miterlimit:1;" x1="373.619" y1="148.773" x2="378.885" y2="147.457"/>
	<line style="fill:none;stroke:#000000;stroke-miterlimit:1;" x1="378.885" y1="147.457" x2="383.492" y2="145.48"/>
	<line style="fill:none;stroke:#000000;stroke-miterlimit:1;" x1="383.492" y1="145.48" x2="388.76" y2="141.861"/>
	<line style="fill:none;stroke:#000000;stroke-miterlimit:1;" x1="388.76" y1="141.861" x2="392.709" y2="138.24"/>
	<line style="fill:none;stroke:#000000;stroke-miterlimit:1;" x1="392.709" y1="138.24" x2="396.658" y2="133.961"/>
	<line style="fill:none;stroke:#000000;stroke-miterlimit:1;" x1="396.658" y1="133.961" x2="399.291" y2="129.682"/>
	<line style="fill:none;stroke:#000000;stroke-miterlimit:1;" x1="399.291" y1="129.682" x2="401.924" y2="125.074"/>
	<line style="fill:none;stroke:#000000;stroke-miterlimit:1;" x1="401.924" y1="125.074" x2="403.242" y2="120.467"/>
	<line style="fill:none;stroke:#000000;stroke-miterlimit:1;" x1="403.242" y1="120.467" x2="403.9" y2="115.199"/>
	<line style="fill:none;stroke:#000000;stroke-miterlimit:1;" x1="403.9" y1="115.199" x2="403.9" y2="109.934"/>
	<line style="fill:none;stroke:#000000;stroke-miterlimit:1;" x1="403.9" y1="109.934" x2="402.254" y2="100.719"/>
	<line style="fill:none;stroke:#000000;stroke-miterlimit:1;" x1="402.254" y1="100.719" x2="400.279" y2="95.781"/>
	<line style="fill:none;stroke:#000000;stroke-miterlimit:1;" x1="400.279" y1="95.781" x2="397.316" y2="90.844"/>
	<line style="fill:none;stroke:#000000;stroke-miterlimit:1;" x1="397.316" y1="90.844" x2="394.025" y2="86.236"/>
	<line style="fill:none;stroke:#000000;stroke-miterlimit:1;" x1="394.025" y1="86.236" x2="389.088" y2="81.957"/>
	<line style="fill:none;stroke:#000000;stroke-miterlimit:1;" x1="389.088" y1="81.957" x2="385.139" y2="79.324"/>
	<line style="fill:none;stroke:#000000;stroke-miterlimit:1;" x1="385.139" y1="79.324" x2="381.189" y2="77.678"/>
	<line style="fill:none;stroke:#000000;stroke-miterlimit:1;" x1="381.189" y1="77.678" x2="377.568" y2="76.361"/>
	<line style="fill:none;stroke:#000000;stroke-miterlimit:1;" x1="377.568" y1="76.361" x2="372.631" y2="75.374"/>
	<line style="fill:none;stroke:#000000;stroke-miterlimit:1;" x1="372.631" y1="75.374" x2="367.693" y2="75.045"/>
	<line style="fill:none;stroke:#000000;stroke-miterlimit:1;" x1="367.693" y1="75.045" x2="361.111" y2="75.045"/>
	<line style="fill:none;stroke:#000000;stroke-miterlimit:1;" x1="361.111" y1="75.045" x2="355.846" y2="76.361"/>
	<line style="fill:none;stroke:#000000;stroke-miterlimit:1;" x1="355.846" y1="76.361" x2="350.908" y2="78.336"/>
	<line style="fill:none;stroke:#000000;stroke-miterlimit:1;" x1="350.908" y1="78.336" x2="346.299" y2="80.969"/>
	<line style="fill:none;stroke:#000000;stroke-miterlimit:1;" x1="346.299" y1="80.969" x2="342.021" y2="84.59"/>
	<line style="fill:none;stroke:#000000;stroke-miterlimit:1;" x1="342.021" y1="84.59" x2="338.07" y2="89.197"/>
	<line style="fill:none;stroke:#000000;stroke-miterlimit:1;" x1="338.07" y1="89.197" x2="334.451" y2="93.807"/>
	<line style="fill:none;stroke:#000000;stroke-miterlimit:1;" x1="334.451" y1="93.807" x2="332.805" y2="97.098"/>
	<line style="fill:none;stroke:#000000;stroke-miterlimit:1;" x1="332.805" y1="97.098" x2="331.488" y2="100.719"/>
	<line style="fill:none;stroke:#000000;stroke-miterlimit:1;" x1="331.488" y1="100.719" x2="330.172" y2="106.971"/>
	<line style="fill:none;stroke:#000000;stroke-miterlimit:1;" x1="330.172" y1="106.971" x2="330.172" y2="112.896"/>
	<line style="fill:none;stroke:#000000;stroke-miterlimit:1;" x1="330.172" y1="112.896" x2="330.83" y2="117.176"/>
	<line style="fill:none;stroke:#000000;stroke-miterlimit:1;" x1="330.83" y1="117.176" x2="331.488" y2="121.783"/>
	<line style="fill:none;stroke:#000000;stroke-miterlimit:1;" x1="331.488" y1="121.783" x2="333.135" y2="126.391"/>
	<line style="fill:none;stroke:#000000;stroke-miterlimit:1;" x1="333.135" y1="126.391" x2="335.438" y2="131.658"/>
	<line style="fill:none;stroke:#000000;stroke-miterlimit:1;" x1="335.438" y1="131.658" x2="339.387" y2="136.594"/>
	<line style="fill:none;stroke:#000000;stroke-miterlimit:1;" x1="339.387" y1="136.594" x2="343.338" y2="140.215"/>
	<line style="fill:none;stroke:#000000;stroke-miterlimit:1;" x1="343.338" y1="140.215" x2="347.945" y2="143.836"/>
	<line style="fill:none;stroke:#000000;stroke-miterlimit:1;" x1="347.945" y1="143.836" x2="352.553" y2="146.139"/>
	<line style="fill:none;stroke:#000000;stroke-miterlimit:1;" x1="352.553" y1="146.139" x2="358.148" y2="148.115"/>
	<line style="fill:none;stroke:#000000;stroke-miterlimit:1;" x1="358.148" y1="148.115" x2="364.402" y2="149.102"/>
</g>
</svg>
