<?xml version="1.0" encoding="iso-8859-1"?>
<!-- Generator: Adobe Illustrator 16.0.1, SVG Export Plug-In . SVG Version: 6.00 Build 0)  -->
<!DOCTYPE svg PUBLIC "-//W3C//DTD SVG 1.1//EN" "http://www.w3.org/Graphics/SVG/1.1/DTD/svg11.dtd">
<svg version="1.1" id="Ebene_1" xmlns="http://www.w3.org/2000/svg" xmlns:xlink="http://www.w3.org/1999/xlink" x="0px" y="0px"
	 width="303.428px" height="148.115px" viewBox="0 0 303.428 148.115" style="enable-background:new 0 0 303.428 148.115;"
	 xml:space="preserve">
<g>
	<line style="fill:none;stroke:#000000;stroke-miterlimit:1;" x1="155.314" y1="147.018" x2="155.314" y2="108.697"/>
	<line style="fill:none;stroke:#000000;stroke-miterlimit:1;" x1="155.314" y1="108.697" x2="157.139" y2="103.527"/>
	<line style="fill:none;stroke:#000000;stroke-miterlimit:1;" x1="157.139" y1="103.527" x2="159.572" y2="100.789"/>
	<line style="fill:none;stroke:#000000;stroke-miterlimit:1;" x1="159.572" y1="100.789" x2="163.83" y2="97.748"/>
	<line style="fill:none;stroke:#000000;stroke-miterlimit:1;" x1="163.83" y1="97.748" x2="167.176" y2="97.141"/>
	<line style="fill:none;stroke:#000000;stroke-miterlimit:1;" x1="167.176" y1="97.141" x2="170.521" y2="98.053"/>
	<line style="fill:none;stroke:#000000;stroke-miterlimit:1;" x1="170.521" y1="98.053" x2="172.955" y2="98.965"/>
	<line style="fill:none;stroke:#000000;stroke-miterlimit:1;" x1="172.955" y1="98.965" x2="175.996" y2="102.006"/>
	<line style="fill:none;stroke:#000000;stroke-miterlimit:1;" x1="175.996" y1="102.006" x2="180.254" y2="109.305"/>
	<line style="fill:none;stroke:#000000;stroke-miterlimit:1;" x1="180.254" y1="109.305" x2="184.512" y2="115.389"/>
	<line style="fill:none;stroke:#000000;stroke-miterlimit:1;" x1="184.512" y1="115.389" x2="189.074" y2="120.863"/>
	<line style="fill:none;stroke:#000000;stroke-miterlimit:1;" x1="189.074" y1="120.863" x2="193.027" y2="123.295"/>
	<line style="fill:none;stroke:#000000;stroke-miterlimit:1;" x1="193.027" y1="123.295" x2="197.59" y2="123.904"/>
	<line style="fill:none;stroke:#000000;stroke-miterlimit:1;" x1="197.59" y1="123.904" x2="202.15" y2="122.688"/>
	<line style="fill:none;stroke:#000000;stroke-miterlimit:1;" x1="202.15" y1="122.688" x2="205.193" y2="120.863"/>
	<line style="fill:none;stroke:#000000;stroke-miterlimit:1;" x1="205.193" y1="120.863" x2="208.234" y2="117.82"/>
	<line style="fill:none;stroke:#000000;stroke-miterlimit:1;" x1="208.234" y1="117.82" x2="215.229" y2="108.088"/>
	<line style="fill:none;stroke:#000000;stroke-miterlimit:1;" x1="215.229" y1="108.088" x2="218.574" y2="103.83"/>
	<line style="fill:none;stroke:#000000;stroke-miterlimit:1;" x1="218.574" y1="103.83" x2="221.615" y2="100.484"/>
	<line style="fill:none;stroke:#000000;stroke-miterlimit:1;" x1="221.615" y1="100.484" x2="224.658" y2="98.965"/>
	<line style="fill:none;stroke:#000000;stroke-miterlimit:1;" x1="224.658" y1="98.965" x2="227.395" y2="97.748"/>
	<line style="fill:none;stroke:#000000;stroke-miterlimit:1;" x1="227.395" y1="97.748" x2="230.133" y2="97.748"/>
	<line style="fill:none;stroke:#000000;stroke-miterlimit:1;" x1="230.133" y1="97.748" x2="232.564" y2="98.355"/>
	<line style="fill:none;stroke:#000000;stroke-miterlimit:1;" x1="232.564" y1="98.355" x2="236.52" y2="100.182"/>
	<line style="fill:none;stroke:#000000;stroke-miterlimit:1;" x1="236.52" y1="100.182" x2="241.08" y2="104.744"/>
	<line style="fill:none;stroke:#000000;stroke-miterlimit:1;" x1="241.08" y1="104.744" x2="245.338" y2="110.521"/>
	<line style="fill:none;stroke:#000000;stroke-miterlimit:1;" x1="245.338" y1="110.521" x2="249.9" y2="116.908"/>
	<line style="fill:none;stroke:#000000;stroke-miterlimit:1;" x1="249.9" y1="116.908" x2="253.246" y2="120.254"/>
	<line style="fill:none;stroke:#000000;stroke-miterlimit:1;" x1="253.246" y1="120.254" x2="256.287" y2="122.688"/>
	<line style="fill:none;stroke:#000000;stroke-miterlimit:1;" x1="256.287" y1="122.688" x2="259.633" y2="123.6"/>
	<line style="fill:none;stroke:#000000;stroke-miterlimit:1;" x1="259.633" y1="123.6" x2="261.762" y2="123.904"/>
	<line style="fill:none;stroke:#000000;stroke-miterlimit:1;" x1="261.762" y1="123.904" x2="266.02" y2="123.295"/>
	<line style="fill:none;stroke:#000000;stroke-miterlimit:1;" x1="266.02" y1="123.295" x2="269.67" y2="120.559"/>
	<line style="fill:none;stroke:#000000;stroke-miterlimit:1;" x1="269.67" y1="120.559" x2="272.104" y2="117.82"/>
	<line style="fill:none;stroke:#000000;stroke-miterlimit:1;" x1="272.104" y1="117.82" x2="274.84" y2="114.172"/>
	<line style="fill:none;stroke:#000000;stroke-miterlimit:1;" x1="274.84" y1="114.172" x2="276.969" y2="110.826"/>
	<line style="fill:none;stroke:#000000;stroke-miterlimit:1;" x1="276.969" y1="110.826" x2="283.051" y2="101.398"/>
	<line style="fill:none;stroke:#000000;stroke-miterlimit:1;" x1="283.051" y1="101.398" x2="286.094" y2="98.965"/>
	<line style="fill:none;stroke:#000000;stroke-miterlimit:1;" x1="286.094" y1="98.965" x2="289.742" y2="97.443"/>
	<line style="fill:none;stroke:#000000;stroke-miterlimit:1;" x1="289.742" y1="97.443" x2="294.609" y2="97.443"/>
	<line style="fill:none;stroke:#000000;stroke-miterlimit:1;" x1="294.609" y1="97.443" x2="297.955" y2="99.27"/>
	<line style="fill:none;stroke:#000000;stroke-miterlimit:1;" x1="297.955" y1="99.27" x2="300.691" y2="102.006"/>
	<line style="fill:none;stroke:#000000;stroke-miterlimit:1;" x1="300.691" y1="102.006" x2="303.428" y2="108.697"/>
	<line style="fill:none;stroke:#000000;stroke-miterlimit:1;" x1="303.428" y1="108.697" x2="303.428" y2="147.018"/>
	<line style="fill:none;stroke:#000000;stroke-miterlimit:1;" x1="303.428" y1="147.018" x2="155.314" y2="147.018"/>
	<line style="fill:none;stroke:#000000;stroke-miterlimit:1;" x1="25.673" y1="45.092" x2="20.078" y2="140.215"/>
	<line style="fill:none;stroke:#000000;stroke-miterlimit:1;" x1="20.078" y1="140.215" x2="20.078" y2="143.506"/>
	<line style="fill:none;stroke:#000000;stroke-miterlimit:1;" x1="20.078" y1="143.506" x2="23.369" y2="147.127"/>
	<line style="fill:none;stroke:#000000;stroke-miterlimit:1;" x1="23.369" y1="147.127" x2="26.002" y2="147.785"/>
	<line style="fill:none;stroke:#000000;stroke-miterlimit:1;" x1="26.002" y1="147.785" x2="28.307" y2="148.115"/>
	<line style="fill:none;stroke:#000000;stroke-miterlimit:1;" x1="28.307" y1="148.115" x2="30.281" y2="148.115"/>
	<line style="fill:none;stroke:#000000;stroke-miterlimit:1;" x1="30.281" y1="148.115" x2="32.915" y2="147.127"/>
	<line style="fill:none;stroke:#000000;stroke-miterlimit:1;" x1="32.915" y1="147.127" x2="34.889" y2="145.48"/>
	<line style="fill:none;stroke:#000000;stroke-miterlimit:1;" x1="34.889" y1="145.48" x2="36.206" y2="143.178"/>
	<line style="fill:none;stroke:#000000;stroke-miterlimit:1;" x1="36.206" y1="143.178" x2="30.281" y2="45.092"/>
	<line style="fill:none;stroke:#000000;stroke-miterlimit:1;" x1="57.6" y1="45.092" x2="55.955" y2="38.181"/>
	<line style="fill:none;stroke:#000000;stroke-miterlimit:1;" x1="55.955" y1="38.181" x2="52.992" y2="31.598"/>
	<line style="fill:none;stroke:#000000;stroke-miterlimit:1;" x1="52.992" y1="31.598" x2="48.713" y2="26.332"/>
	<line style="fill:none;stroke:#000000;stroke-miterlimit:1;" x1="48.713" y1="26.332" x2="46.08" y2="23.698"/>
	<line style="fill:none;stroke:#000000;stroke-miterlimit:1;" x1="46.08" y1="23.698" x2="41.472" y2="21.065"/>
	<line style="fill:none;stroke:#000000;stroke-miterlimit:1;" x1="41.472" y1="21.065" x2="37.522" y2="19.749"/>
	<line style="fill:none;stroke:#000000;stroke-miterlimit:1;" x1="37.522" y1="19.749" x2="34.231" y2="18.761"/>
	<line style="fill:none;stroke:#000000;stroke-miterlimit:1;" x1="34.231" y1="18.761" x2="30.281" y2="18.103"/>
	<line style="fill:none;stroke:#000000;stroke-miterlimit:1;" x1="30.281" y1="18.103" x2="25.344" y2="18.103"/>
	<line style="fill:none;stroke:#000000;stroke-miterlimit:1;" x1="25.344" y1="18.103" x2="19.09" y2="19.419"/>
	<line style="fill:none;stroke:#000000;stroke-miterlimit:1;" x1="19.09" y1="19.419" x2="12.507" y2="23.04"/>
	<line style="fill:none;stroke:#000000;stroke-miterlimit:1;" x1="12.507" y1="23.04" x2="7.899" y2="26.99"/>
	<line style="fill:none;stroke:#000000;stroke-miterlimit:1;" x1="7.899" y1="26.99" x2="5.925" y2="29.293"/>
	<line style="fill:none;stroke:#000000;stroke-miterlimit:1;" x1="5.925" y1="29.293" x2="3.292" y2="33.573"/>
	<line style="fill:none;stroke:#000000;stroke-miterlimit:1;" x1="3.292" y1="33.573" x2="1.317" y2="38.51"/>
	<line style="fill:none;stroke:#000000;stroke-miterlimit:1;" x1="1.317" y1="38.51" x2="0.329" y2="41.801"/>
	<line style="fill:none;stroke:#000000;stroke-miterlimit:1;" x1="0.329" y1="41.801" x2="0" y2="45.092"/>
	<line style="fill:none;stroke:#000000;stroke-miterlimit:1;" x1="0" y1="45.092" x2="57.6" y2="45.092"/>
	<line style="fill:none;stroke:#000000;stroke-miterlimit:1;" x1="26.002" y1="18.432" x2="24.027" y2="2.633"/>
	<line style="fill:none;stroke:#000000;stroke-miterlimit:1;" x1="24.027" y1="2.633" x2="24.686" y2="0.987"/>
	<line style="fill:none;stroke:#000000;stroke-miterlimit:1;" x1="24.686" y1="0.987" x2="26.661" y2="0"/>
	<line style="fill:none;stroke:#000000;stroke-miterlimit:1;" x1="26.661" y1="0" x2="29.294" y2="0.329"/>
	<line style="fill:none;stroke:#000000;stroke-miterlimit:1;" x1="29.294" y1="0.329" x2="31.269" y2="0.987"/>
	<line style="fill:none;stroke:#000000;stroke-miterlimit:1;" x1="31.269" y1="0.987" x2="31.598" y2="2.962"/>
	<line style="fill:none;stroke:#000000;stroke-miterlimit:1;" x1="31.598" y1="2.962" x2="30.281" y2="17.774"/>
	<line style="fill:none;stroke:#000000;stroke-miterlimit:1;" x1="139.022" y1="0.329" x2="137.376" y2="33.573"/>
	<line style="fill:none;stroke:#000000;stroke-miterlimit:1;" x1="137.376" y1="33.573" x2="136.718" y2="61.879"/>
	<line style="fill:none;stroke:#000000;stroke-miterlimit:1;" x1="136.718" y1="61.879" x2="136.06" y2="83.602"/>
	<line style="fill:none;stroke:#000000;stroke-miterlimit:1;" x1="136.06" y1="83.602" x2="134.414" y2="99.072"/>
	<line style="fill:none;stroke:#000000;stroke-miterlimit:1;" x1="134.414" y1="99.072" x2="133.097" y2="113.883"/>
	<line style="fill:none;stroke:#000000;stroke-miterlimit:1;" x1="133.097" y1="113.883" x2="133.755" y2="129.682"/>
	<line style="fill:none;stroke:#000000;stroke-miterlimit:1;" x1="133.755" y1="129.682" x2="134.743" y2="134.619"/>
	<line style="fill:none;stroke:#000000;stroke-miterlimit:1;" x1="134.743" y1="134.619" x2="135.401" y2="138.568"/>
	<line style="fill:none;stroke:#000000;stroke-miterlimit:1;" x1="135.401" y1="138.568" x2="135.072" y2="142.52"/>
	<line style="fill:none;stroke:#000000;stroke-miterlimit:1;" x1="135.072" y1="142.52" x2="133.097" y2="145.152"/>
	<line style="fill:none;stroke:#000000;stroke-miterlimit:1;" x1="133.097" y1="145.152" x2="130.135" y2="147.127"/>
	<line style="fill:none;stroke:#000000;stroke-miterlimit:1;" x1="130.135" y1="147.127" x2="126.514" y2="147.785"/>
	<line style="fill:none;stroke:#000000;stroke-miterlimit:1;" x1="126.514" y1="147.785" x2="119.932" y2="146.139"/>
	<line style="fill:none;stroke:#000000;stroke-miterlimit:1;" x1="119.932" y1="146.139" x2="117.298" y2="144.164"/>
	<line style="fill:none;stroke:#000000;stroke-miterlimit:1;" x1="117.298" y1="144.164" x2="113.02" y2="143.178"/>
	<line style="fill:none;stroke:#000000;stroke-miterlimit:1;" x1="113.02" y1="143.178" x2="103.145" y2="148.115"/>
	<line style="fill:none;stroke:#000000;stroke-miterlimit:1;" x1="103.145" y1="148.115" x2="62.332" y2="147.785"/>
	<line style="fill:none;stroke:#000000;stroke-miterlimit:1;" x1="62.332" y1="147.785" x2="60.686" y2="142.52"/>
	<line style="fill:none;stroke:#000000;stroke-miterlimit:1;" x1="60.686" y1="142.52" x2="62.002" y2="139.885"/>
	<line style="fill:none;stroke:#000000;stroke-miterlimit:1;" x1="62.002" y1="139.885" x2="65.623" y2="139.227"/>
	<line style="fill:none;stroke:#000000;stroke-miterlimit:1;" x1="65.623" y1="139.227" x2="79.776" y2="136.266"/>
	<line style="fill:none;stroke:#000000;stroke-miterlimit:1;" x1="79.776" y1="136.266" x2="91.625" y2="130.34"/>
	<line style="fill:none;stroke:#000000;stroke-miterlimit:1;" x1="91.625" y1="130.34" x2="99.525" y2="127.379"/>
	<line style="fill:none;stroke:#000000;stroke-miterlimit:1;" x1="99.525" y1="127.379" x2="106.437" y2="125.732"/>
	<line style="fill:none;stroke:#000000;stroke-miterlimit:1;" x1="106.437" y1="125.732" x2="111.374" y2="121.453"/>
	<line style="fill:none;stroke:#000000;stroke-miterlimit:1;" x1="111.374" y1="121.453" x2="113.02" y2="117.176"/>
	<line style="fill:none;stroke:#000000;stroke-miterlimit:1;" x1="113.02" y1="117.176" x2="113.349" y2="112.566"/>
	<line style="fill:none;stroke:#000000;stroke-miterlimit:1;" x1="113.349" y1="112.566" x2="112.69" y2="105.654"/>
	<line style="fill:none;stroke:#000000;stroke-miterlimit:1;" x1="112.69" y1="105.654" x2="112.361" y2="96.439"/>
	<line style="fill:none;stroke:#000000;stroke-miterlimit:1;" x1="112.361" y1="96.439" x2="111.703" y2="71.424"/>
	<line style="fill:none;stroke:#000000;stroke-miterlimit:1;" x1="111.703" y1="71.424" x2="111.374" y2="46.409"/>
	<line style="fill:none;stroke:#000000;stroke-miterlimit:1;" x1="111.374" y1="46.409" x2="108.741" y2="0"/>
	<line style="fill:none;stroke:#000000;stroke-miterlimit:1;" x1="108.741" y1="0" x2="139.022" y2="0"/>
	<line style="fill:none;stroke:#000000;stroke-miterlimit:1;" x1="227.438" y1="5.883" x2="224.146" y2="5.883"/>
	<line style="fill:none;stroke:#000000;stroke-miterlimit:1;" x1="224.146" y1="5.883" x2="219.209" y2="6.871"/>
	<line style="fill:none;stroke:#000000;stroke-miterlimit:1;" x1="219.209" y1="6.871" x2="214.602" y2="7.858"/>
	<line style="fill:none;stroke:#000000;stroke-miterlimit:1;" x1="214.602" y1="7.858" x2="211.639" y2="9.175"/>
	<line style="fill:none;stroke:#000000;stroke-miterlimit:1;" x1="211.639" y1="9.175" x2="208.676" y2="11.15"/>
	<line style="fill:none;stroke:#000000;stroke-miterlimit:1;" x1="208.676" y1="11.15" x2="205.715" y2="13.125"/>
	<line style="fill:none;stroke:#000000;stroke-miterlimit:1;" x1="205.715" y1="13.125" x2="202.752" y2="16.416"/>
	<line style="fill:none;stroke:#000000;stroke-miterlimit:1;" x1="202.752" y1="16.416" x2="200.447" y2="20.037"/>
	<line style="fill:none;stroke:#000000;stroke-miterlimit:1;" x1="200.447" y1="20.037" x2="198.803" y2="23.986"/>
	<line style="fill:none;stroke:#000000;stroke-miterlimit:1;" x1="198.803" y1="23.986" x2="197.814" y2="28.923"/>
	<line style="fill:none;stroke:#000000;stroke-miterlimit:1;" x1="197.814" y1="28.923" x2="197.486" y2="34.19"/>
	<line style="fill:none;stroke:#000000;stroke-miterlimit:1;" x1="197.486" y1="34.19" x2="197.814" y2="37.81"/>
	<line style="fill:none;stroke:#000000;stroke-miterlimit:1;" x1="197.814" y1="37.81" x2="199.131" y2="42.418"/>
	<line style="fill:none;stroke:#000000;stroke-miterlimit:1;" x1="199.131" y1="42.418" x2="201.105" y2="47.026"/>
	<line style="fill:none;stroke:#000000;stroke-miterlimit:1;" x1="201.105" y1="47.026" x2="203.74" y2="51.305"/>
	<line style="fill:none;stroke:#000000;stroke-miterlimit:1;" x1="203.74" y1="51.305" x2="207.359" y2="54.597"/>
	<line style="fill:none;stroke:#000000;stroke-miterlimit:1;" x1="207.359" y1="54.597" x2="210.322" y2="56.242"/>
	<line style="fill:none;stroke:#000000;stroke-miterlimit:1;" x1="210.322" y1="56.242" x2="213.613" y2="57.888"/>
	<line style="fill:none;stroke:#000000;stroke-miterlimit:1;" x1="213.613" y1="57.888" x2="216.576" y2="58.875"/>
	<line style="fill:none;stroke:#000000;stroke-miterlimit:1;" x1="216.576" y1="58.875" x2="219.867" y2="59.205"/>
	<line style="fill:none;stroke:#000000;stroke-miterlimit:1;" x1="219.867" y1="59.205" x2="227.109" y2="59.863"/>
	<line style="fill:none;stroke:#000000;stroke-miterlimit:1;" x1="227.109" y1="59.863" x2="231.717" y2="59.534"/>
	<line style="fill:none;stroke:#000000;stroke-miterlimit:1;" x1="231.717" y1="59.534" x2="236.324" y2="58.875"/>
	<line style="fill:none;stroke:#000000;stroke-miterlimit:1;" x1="236.324" y1="58.875" x2="240.273" y2="57.888"/>
	<line style="fill:none;stroke:#000000;stroke-miterlimit:1;" x1="240.273" y1="57.888" x2="242.908" y2="56.9"/>
	<line style="fill:none;stroke:#000000;stroke-miterlimit:1;" x1="242.908" y1="56.9" x2="245.211" y2="55.255"/>
	<line style="fill:none;stroke:#000000;stroke-miterlimit:1;" x1="245.211" y1="55.255" x2="247.186" y2="53.938"/>
	<line style="fill:none;stroke:#000000;stroke-miterlimit:1;" x1="247.186" y1="53.938" x2="249.49" y2="51.963"/>
	<line style="fill:none;stroke:#000000;stroke-miterlimit:1;" x1="249.49" y1="51.963" x2="251.465" y2="49.33"/>
	<line style="fill:none;stroke:#000000;stroke-miterlimit:1;" x1="251.465" y1="49.33" x2="253.439" y2="46.368"/>
	<line style="fill:none;stroke:#000000;stroke-miterlimit:1;" x1="253.439" y1="46.368" x2="254.098" y2="44.393"/>
	<line style="fill:none;stroke:#000000;stroke-miterlimit:1;" x1="254.098" y1="44.393" x2="255.086" y2="42.418"/>
	<line style="fill:none;stroke:#000000;stroke-miterlimit:1;" x1="255.086" y1="42.418" x2="255.744" y2="40.114"/>
	<line style="fill:none;stroke:#000000;stroke-miterlimit:1;" x1="255.744" y1="40.114" x2="256.074" y2="37.481"/>
	<line style="fill:none;stroke:#000000;stroke-miterlimit:1;" x1="256.074" y1="37.481" x2="256.732" y2="33.531"/>
	<line style="fill:none;stroke:#000000;stroke-miterlimit:1;" x1="256.732" y1="33.531" x2="256.402" y2="30.569"/>
	<line style="fill:none;stroke:#000000;stroke-miterlimit:1;" x1="256.402" y1="30.569" x2="256.074" y2="27.278"/>
	<line style="fill:none;stroke:#000000;stroke-miterlimit:1;" x1="256.074" y1="27.278" x2="254.756" y2="23.328"/>
	<line style="fill:none;stroke:#000000;stroke-miterlimit:1;" x1="254.756" y1="23.328" x2="253.111" y2="19.049"/>
	<line style="fill:none;stroke:#000000;stroke-miterlimit:1;" x1="253.111" y1="19.049" x2="250.807" y2="16.416"/>
	<line style="fill:none;stroke:#000000;stroke-miterlimit:1;" x1="250.807" y1="16.416" x2="247.516" y2="13.125"/>
	<line style="fill:none;stroke:#000000;stroke-miterlimit:1;" x1="247.516" y1="13.125" x2="244.883" y2="11.15"/>
	<line style="fill:none;stroke:#000000;stroke-miterlimit:1;" x1="244.883" y1="11.15" x2="242.25" y2="9.175"/>
	<line style="fill:none;stroke:#000000;stroke-miterlimit:1;" x1="242.25" y1="9.175" x2="236.982" y2="7.2"/>
	<line style="fill:none;stroke:#000000;stroke-miterlimit:1;" x1="236.982" y1="7.2" x2="232.375" y2="6.212"/>
	<line style="fill:none;stroke:#000000;stroke-miterlimit:1;" x1="232.375" y1="6.212" x2="227.768" y2="5.883"/>
	<line style="fill:none;stroke:#000000;stroke-miterlimit:1;" x1="213.285" y1="8.517" x2="210.652" y2="8.517"/>
	<line style="fill:none;stroke:#000000;stroke-miterlimit:1;" x1="210.652" y1="8.517" x2="209.664" y2="7.529"/>
	<line style="fill:none;stroke:#000000;stroke-miterlimit:1;" x1="209.664" y1="7.529" x2="209.006" y2="6.542"/>
	<line style="fill:none;stroke:#000000;stroke-miterlimit:1;" x1="209.006" y1="6.542" x2="208.676" y2="4.567"/>
	<line style="fill:none;stroke:#000000;stroke-miterlimit:1;" x1="208.676" y1="4.567" x2="209.006" y2="2.592"/>
	<line style="fill:none;stroke:#000000;stroke-miterlimit:1;" x1="209.006" y1="2.592" x2="209.994" y2="1.275"/>
	<line style="fill:none;stroke:#000000;stroke-miterlimit:1;" x1="209.994" y1="1.275" x2="211.639" y2="0.617"/>
	<line style="fill:none;stroke:#000000;stroke-miterlimit:1;" x1="211.639" y1="0.617" x2="242.578" y2="0.617"/>
	<line style="fill:none;stroke:#000000;stroke-miterlimit:1;" x1="242.578" y1="0.617" x2="243.895" y2="1.275"/>
	<line style="fill:none;stroke:#000000;stroke-miterlimit:1;" x1="243.895" y1="1.275" x2="244.883" y2="2.592"/>
	<line style="fill:none;stroke:#000000;stroke-miterlimit:1;" x1="244.883" y1="2.592" x2="245.211" y2="4.238"/>
	<line style="fill:none;stroke:#000000;stroke-miterlimit:1;" x1="245.211" y1="4.238" x2="245.211" y2="5.225"/>
	<line style="fill:none;stroke:#000000;stroke-miterlimit:1;" x1="245.211" y1="5.225" x2="244.883" y2="6.542"/>
	<line style="fill:none;stroke:#000000;stroke-miterlimit:1;" x1="244.883" y1="6.542" x2="244.225" y2="7.529"/>
	<line style="fill:none;stroke:#000000;stroke-miterlimit:1;" x1="244.225" y1="7.529" x2="242.908" y2="8.517"/>
	<line style="fill:none;stroke:#000000;stroke-miterlimit:1;" x1="242.908" y1="8.517" x2="240.273" y2="8.517"/>
</g>
</svg>
