<?xml version="1.0" encoding="iso-8859-1"?>
<!-- Generator: Adobe Illustrator 16.0.1, SVG Export Plug-In . SVG Version: 6.00 Build 0)  -->
<!DOCTYPE svg PUBLIC "-//W3C//DTD SVG 1.1//EN" "http://www.w3.org/Graphics/SVG/1.1/DTD/svg11.dtd">
<svg version="1.1" id="Ebene_1" xmlns="http://www.w3.org/2000/svg" xmlns:xlink="http://www.w3.org/1999/xlink" x="0px" y="0px"
	 width="148.114px" height="146.93px" viewBox="0 0 148.114 146.93" style="enable-background:new 0 0 148.114 146.93;"
	 xml:space="preserve">
<g>
	<line style="fill:none;stroke:#000000;stroke-miterlimit:1;" x1="54.84" y1="49.013" x2="53.384" y2="45.374"/>
	<line style="fill:none;stroke:#000000;stroke-miterlimit:1;" x1="53.384" y1="45.374" x2="50.472" y2="39.55"/>
	<line style="fill:none;stroke:#000000;stroke-miterlimit:1;" x1="50.472" y1="39.55" x2="48.652" y2="36.639"/>
	<line style="fill:none;stroke:#000000;stroke-miterlimit:1;" x1="48.652" y1="36.639" x2="97.785" y2="36.639"/>
	<line style="fill:none;stroke:#000000;stroke-miterlimit:1;" x1="97.785" y1="36.639" x2="94.874" y2="41.734"/>
	<line style="fill:none;stroke:#000000;stroke-miterlimit:1;" x1="94.874" y1="41.734" x2="92.69" y2="46.83"/>
	<line style="fill:none;stroke:#000000;stroke-miterlimit:1;" x1="92.69" y1="46.83" x2="91.962" y2="49.013"/>
	<line style="fill:none;stroke:#000000;stroke-miterlimit:1;" x1="49.017" y1="63.207" x2="37.734" y2="57.02"/>
	<line style="fill:none;stroke:#000000;stroke-miterlimit:1;" x1="37.734" y1="57.02" x2="35.187" y2="65.755"/>
	<line style="fill:none;stroke:#000000;stroke-miterlimit:1;" x1="35.187" y1="65.755" x2="41.01" y2="70.122"/>
	<line style="fill:none;stroke:#000000;stroke-miterlimit:1;" x1="41.01" y1="70.122" x2="45.013" y2="73.034"/>
	<line style="fill:none;stroke:#000000;stroke-miterlimit:1;" x1="45.013" y1="73.034" x2="50.472" y2="78.857"/>
	<line style="fill:none;stroke:#000000;stroke-miterlimit:1;" x1="97.785" y1="63.207" x2="108.704" y2="57.02"/>
	<line style="fill:none;stroke:#000000;stroke-miterlimit:1;" x1="108.704" y1="57.02" x2="111.615" y2="66.119"/>
	<line style="fill:none;stroke:#000000;stroke-miterlimit:1;" x1="111.615" y1="66.119" x2="106.521" y2="69.03"/>
	<line style="fill:none;stroke:#000000;stroke-miterlimit:1;" x1="106.521" y1="69.03" x2="100.697" y2="74.49"/>
	<line style="fill:none;stroke:#000000;stroke-miterlimit:1;" x1="100.697" y1="74.49" x2="96.693" y2="78.857"/>
	<line style="fill:none;stroke:#000000;stroke-miterlimit:1;" x1="57.023" y1="74.49" x2="57.751" y2="72.306"/>
	<line style="fill:none;stroke:#000000;stroke-miterlimit:1;" x1="57.751" y1="72.306" x2="59.207" y2="69.758"/>
	<line style="fill:none;stroke:#000000;stroke-miterlimit:1;" x1="59.207" y1="69.758" x2="61.391" y2="67.21"/>
	<line style="fill:none;stroke:#000000;stroke-miterlimit:1;" x1="61.391" y1="67.21" x2="64.302" y2="64.663"/>
	<line style="fill:none;stroke:#000000;stroke-miterlimit:1;" x1="64.302" y1="64.663" x2="69.397" y2="62.843"/>
	<line style="fill:none;stroke:#000000;stroke-miterlimit:1;" x1="69.397" y1="62.843" x2="72.673" y2="62.479"/>
	<line style="fill:none;stroke:#000000;stroke-miterlimit:1;" x1="72.673" y1="62.479" x2="76.677" y2="62.843"/>
	<line style="fill:none;stroke:#000000;stroke-miterlimit:1;" x1="76.677" y1="62.843" x2="81.044" y2="64.299"/>
	<line style="fill:none;stroke:#000000;stroke-miterlimit:1;" x1="81.044" y1="64.299" x2="84.684" y2="66.482"/>
	<line style="fill:none;stroke:#000000;stroke-miterlimit:1;" x1="84.684" y1="66.482" x2="86.503" y2="69.03"/>
	<line style="fill:none;stroke:#000000;stroke-miterlimit:1;" x1="86.503" y1="69.03" x2="88.323" y2="71.214"/>
	<line style="fill:none;stroke:#000000;stroke-miterlimit:1;" x1="88.323" y1="71.214" x2="89.778" y2="75.217"/>
	<line style="fill:none;stroke:#000000;stroke-miterlimit:1;" x1="89.778" y1="75.217" x2="83.955" y2="71.578"/>
	<line style="fill:none;stroke:#000000;stroke-miterlimit:1;" x1="83.955" y1="71.578" x2="79.588" y2="70.122"/>
	<line style="fill:none;stroke:#000000;stroke-miterlimit:1;" x1="79.588" y1="70.122" x2="75.948" y2="69.03"/>
	<line style="fill:none;stroke:#000000;stroke-miterlimit:1;" x1="75.948" y1="69.03" x2="73.037" y2="68.667"/>
	<line style="fill:none;stroke:#000000;stroke-miterlimit:1;" x1="73.037" y1="68.667" x2="69.397" y2="69.394"/>
	<line style="fill:none;stroke:#000000;stroke-miterlimit:1;" x1="69.397" y1="69.394" x2="65.758" y2="70.122"/>
	<line style="fill:none;stroke:#000000;stroke-miterlimit:1;" x1="65.758" y1="70.122" x2="61.391" y2="72.306"/>
	<line style="fill:none;stroke:#000000;stroke-miterlimit:1;" x1="61.391" y1="72.306" x2="58.479" y2="74.49"/>
	<line style="fill:none;stroke:#000000;stroke-miterlimit:1;" x1="58.479" y1="74.49" x2="57.023" y2="75.217"/>
	<line style="fill:none;stroke:#000000;stroke-miterlimit:1;" x1="59.207" y1="113.432" x2="65.03" y2="89.775"/>
	<line style="fill:none;stroke:#000000;stroke-miterlimit:1;" x1="65.03" y1="89.775" x2="67.578" y2="86.5"/>
	<line style="fill:none;stroke:#000000;stroke-miterlimit:1;" x1="67.578" y1="86.5" x2="70.125" y2="85.408"/>
	<line style="fill:none;stroke:#000000;stroke-miterlimit:1;" x1="70.125" y1="85.408" x2="73.037" y2="84.68"/>
	<line style="fill:none;stroke:#000000;stroke-miterlimit:1;" x1="73.037" y1="84.68" x2="77.04" y2="85.408"/>
	<line style="fill:none;stroke:#000000;stroke-miterlimit:1;" x1="77.04" y1="85.408" x2="79.952" y2="87.592"/>
	<line style="fill:none;stroke:#000000;stroke-miterlimit:1;" x1="79.952" y1="87.592" x2="81.408" y2="90.139"/>
	<line style="fill:none;stroke:#000000;stroke-miterlimit:1;" x1="81.408" y1="90.139" x2="87.595" y2="113.795"/>
	<line style="fill:none;stroke:#000000;stroke-miterlimit:1;" x1="73.765" y1="118.527" x2="68.306" y2="118.164"/>
	<line style="fill:none;stroke:#000000;stroke-miterlimit:1;" x1="68.306" y1="118.164" x2="65.758" y2="117.436"/>
	<line style="fill:none;stroke:#000000;stroke-miterlimit:1;" x1="65.758" y1="117.436" x2="63.574" y2="117.072"/>
	<line style="fill:none;stroke:#000000;stroke-miterlimit:1;" x1="63.574" y1="117.072" x2="59.935" y2="115.252"/>
	<line style="fill:none;stroke:#000000;stroke-miterlimit:1;" x1="59.935" y1="115.252" x2="57.387" y2="111.977"/>
	<line style="fill:none;stroke:#000000;stroke-miterlimit:1;" x1="57.387" y1="111.977" x2="55.204" y2="108.701"/>
	<line style="fill:none;stroke:#000000;stroke-miterlimit:1;" x1="55.204" y1="108.701" x2="53.748" y2="105.061"/>
	<line style="fill:none;stroke:#000000;stroke-miterlimit:1;" x1="53.748" y1="105.061" x2="52.656" y2="100.693"/>
	<line style="fill:none;stroke:#000000;stroke-miterlimit:1;" x1="52.656" y1="100.693" x2="51.2" y2="94.871"/>
	<line style="fill:none;stroke:#000000;stroke-miterlimit:1;" x1="51.2" y1="94.871" x2="49.017" y2="64.299"/>
	<line style="fill:none;stroke:#000000;stroke-miterlimit:1;" x1="49.017" y1="64.299" x2="49.38" y2="58.84"/>
	<line style="fill:none;stroke:#000000;stroke-miterlimit:1;" x1="49.38" y1="58.84" x2="50.108" y2="56.292"/>
	<line style="fill:none;stroke:#000000;stroke-miterlimit:1;" x1="50.108" y1="56.292" x2="50.472" y2="54.108"/>
	<line style="fill:none;stroke:#000000;stroke-miterlimit:1;" x1="50.472" y1="54.108" x2="52.292" y2="51.197"/>
	<line style="fill:none;stroke:#000000;stroke-miterlimit:1;" x1="52.292" y1="51.197" x2="54.476" y2="49.013"/>
	<line style="fill:none;stroke:#000000;stroke-miterlimit:1;" x1="54.476" y1="49.013" x2="58.115" y2="46.83"/>
	<line style="fill:none;stroke:#000000;stroke-miterlimit:1;" x1="58.115" y1="46.83" x2="61.391" y2="45.738"/>
	<line style="fill:none;stroke:#000000;stroke-miterlimit:1;" x1="61.391" y1="45.738" x2="64.302" y2="45.374"/>
	<line style="fill:none;stroke:#000000;stroke-miterlimit:1;" x1="64.302" y1="45.374" x2="73.037" y2="44.646"/>
	<line style="fill:none;stroke:#000000;stroke-miterlimit:1;" x1="73.037" y1="44.646" x2="83.228" y2="45.374"/>
	<line style="fill:none;stroke:#000000;stroke-miterlimit:1;" x1="83.228" y1="45.374" x2="87.595" y2="46.102"/>
	<line style="fill:none;stroke:#000000;stroke-miterlimit:1;" x1="87.595" y1="46.102" x2="91.234" y2="48.285"/>
	<line style="fill:none;stroke:#000000;stroke-miterlimit:1;" x1="91.234" y1="48.285" x2="93.418" y2="49.741"/>
	<line style="fill:none;stroke:#000000;stroke-miterlimit:1;" x1="93.418" y1="49.741" x2="95.238" y2="52.653"/>
	<line style="fill:none;stroke:#000000;stroke-miterlimit:1;" x1="95.238" y1="52.653" x2="97.058" y2="58.476"/>
	<line style="fill:none;stroke:#000000;stroke-miterlimit:1;" x1="97.058" y1="58.476" x2="97.422" y2="63.207"/>
	<line style="fill:none;stroke:#000000;stroke-miterlimit:1;" x1="97.422" y1="63.207" x2="95.602" y2="89.775"/>
	<line style="fill:none;stroke:#000000;stroke-miterlimit:1;" x1="95.602" y1="89.775" x2="94.874" y2="97.055"/>
	<line style="fill:none;stroke:#000000;stroke-miterlimit:1;" x1="94.874" y1="97.055" x2="92.69" y2="105.061"/>
	<line style="fill:none;stroke:#000000;stroke-miterlimit:1;" x1="92.69" y1="105.061" x2="91.234" y2="108.701"/>
	<line style="fill:none;stroke:#000000;stroke-miterlimit:1;" x1="91.234" y1="108.701" x2="89.051" y2="112.34"/>
	<line style="fill:none;stroke:#000000;stroke-miterlimit:1;" x1="89.051" y1="112.34" x2="87.595" y2="114.16"/>
	<line style="fill:none;stroke:#000000;stroke-miterlimit:1;" x1="87.595" y1="114.16" x2="85.411" y2="115.98"/>
	<line style="fill:none;stroke:#000000;stroke-miterlimit:1;" x1="85.411" y1="115.98" x2="82.863" y2="117.436"/>
	<line style="fill:none;stroke:#000000;stroke-miterlimit:1;" x1="82.863" y1="117.436" x2="79.588" y2="118.164"/>
	<line style="fill:none;stroke:#000000;stroke-miterlimit:1;" x1="79.588" y1="118.164" x2="73.765" y2="118.527"/>
	<line style="fill:none;stroke:#000000;stroke-miterlimit:1;" x1="142.189" y1="45.619" x2="141.005" y2="43.25"/>
	<line style="fill:none;stroke:#000000;stroke-miterlimit:1;" x1="141.005" y1="43.25" x2="138.635" y2="39.102"/>
	<line style="fill:none;stroke:#000000;stroke-miterlimit:1;" x1="138.635" y1="39.102" x2="137.45" y2="36.732"/>
	<line style="fill:none;stroke:#000000;stroke-miterlimit:1;" x1="137.45" y1="36.732" x2="135.08" y2="33.178"/>
	<line style="fill:none;stroke:#000000;stroke-miterlimit:1;" x1="135.08" y1="33.178" x2="133.303" y2="30.215"/>
	<line style="fill:none;stroke:#000000;stroke-miterlimit:1;" x1="133.303" y1="30.215" x2="129.748" y2="26.661"/>
	<line style="fill:none;stroke:#000000;stroke-miterlimit:1;" x1="129.748" y1="26.661" x2="128.562" y2="24.291"/>
	<line style="fill:none;stroke:#000000;stroke-miterlimit:1;" x1="128.562" y1="24.291" x2="125.008" y2="21.329"/>
	<line style="fill:none;stroke:#000000;stroke-miterlimit:1;" x1="125.008" y1="21.329" x2="122.046" y2="18.958"/>
	<line style="fill:none;stroke:#000000;stroke-miterlimit:1;" x1="122.046" y1="18.958" x2="118.491" y2="15.997"/>
	<line style="fill:none;stroke:#000000;stroke-miterlimit:1;" x1="118.491" y1="15.997" x2="116.121" y2="14.219"/>
	<line style="fill:none;stroke:#000000;stroke-miterlimit:1;" x1="116.121" y1="14.219" x2="112.566" y2="11.257"/>
	<line style="fill:none;stroke:#000000;stroke-miterlimit:1;" x1="112.566" y1="11.257" x2="109.604" y2="9.479"/>
	<line style="fill:none;stroke:#000000;stroke-miterlimit:1;" x1="109.604" y1="9.479" x2="105.457" y2="7.702"/>
	<line style="fill:none;stroke:#000000;stroke-miterlimit:1;" x1="105.457" y1="7.702" x2="103.087" y2="5.925"/>
	<line style="fill:none;stroke:#000000;stroke-miterlimit:1;" x1="103.087" y1="5.925" x2="98.94" y2="4.74"/>
	<line style="fill:none;stroke:#000000;stroke-miterlimit:1;" x1="98.94" y1="4.74" x2="95.386" y2="3.555"/>
	<line style="fill:none;stroke:#000000;stroke-miterlimit:1;" x1="95.386" y1="3.555" x2="90.646" y2="2.37"/>
	<line style="fill:none;stroke:#000000;stroke-miterlimit:1;" x1="90.646" y1="2.37" x2="88.276" y2="1.185"/>
	<line style="fill:none;stroke:#000000;stroke-miterlimit:1;" x1="88.276" y1="1.185" x2="83.536" y2="0.592"/>
	<line style="fill:none;stroke:#000000;stroke-miterlimit:1;" x1="83.536" y1="0.592" x2="79.981" y2="0"/>
	<line style="fill:none;stroke:#000000;stroke-miterlimit:1;" x1="79.981" y1="0" x2="75.834" y2="0"/>
	<line style="fill:none;stroke:#000000;stroke-miterlimit:1;" x1="75.834" y1="0" x2="72.28" y2="0"/>
	<line style="fill:none;stroke:#000000;stroke-miterlimit:1;" x1="72.28" y1="0" x2="68.725" y2="0.592"/>
	<line style="fill:none;stroke:#000000;stroke-miterlimit:1;" x1="68.725" y1="0.592" x2="65.763" y2="1.185"/>
	<line style="fill:none;stroke:#000000;stroke-miterlimit:1;" x1="65.763" y1="1.185" x2="62.208" y2="1.777"/>
	<line style="fill:none;stroke:#000000;stroke-miterlimit:1;" x1="62.208" y1="1.777" x2="59.246" y2="2.37"/>
	<line style="fill:none;stroke:#000000;stroke-miterlimit:1;" x1="59.246" y1="2.37" x2="55.691" y2="2.962"/>
	<line style="fill:none;stroke:#000000;stroke-miterlimit:1;" x1="55.691" y1="2.962" x2="52.729" y2="4.147"/>
	<line style="fill:none;stroke:#000000;stroke-miterlimit:1;" x1="52.729" y1="4.147" x2="47.396" y2="5.332"/>
	<line style="fill:none;stroke:#000000;stroke-miterlimit:1;" x1="47.396" y1="5.332" x2="44.434" y2="7.109"/>
	<line style="fill:none;stroke:#000000;stroke-miterlimit:1;" x1="44.434" y1="7.109" x2="40.287" y2="8.294"/>
	<line style="fill:none;stroke:#000000;stroke-miterlimit:1;" x1="40.287" y1="8.294" x2="37.325" y2="10.072"/>
	<line style="fill:none;stroke:#000000;stroke-miterlimit:1;" x1="37.325" y1="10.072" x2="33.77" y2="12.442"/>
	<line style="fill:none;stroke:#000000;stroke-miterlimit:1;" x1="33.77" y1="12.442" x2="30.808" y2="14.812"/>
	<line style="fill:none;stroke:#000000;stroke-miterlimit:1;" x1="30.808" y1="14.812" x2="27.845" y2="16.589"/>
	<line style="fill:none;stroke:#000000;stroke-miterlimit:1;" x1="27.845" y1="16.589" x2="24.883" y2="18.958"/>
	<line style="fill:none;stroke:#000000;stroke-miterlimit:1;" x1="24.883" y1="18.958" x2="21.328" y2="22.513"/>
	<line style="fill:none;stroke:#000000;stroke-miterlimit:1;" x1="21.328" y1="22.513" x2="18.366" y2="24.883"/>
	<line style="fill:none;stroke:#000000;stroke-miterlimit:1;" x1="18.366" y1="24.883" x2="16.588" y2="27.846"/>
	<line style="fill:none;stroke:#000000;stroke-miterlimit:1;" x1="16.588" y1="27.846" x2="14.811" y2="30.215"/>
	<line style="fill:none;stroke:#000000;stroke-miterlimit:1;" x1="14.811" y1="30.215" x2="11.849" y2="34.363"/>
	<line style="fill:none;stroke:#000000;stroke-miterlimit:1;" x1="11.849" y1="34.363" x2="10.664" y2="36.732"/>
	<line style="fill:none;stroke:#000000;stroke-miterlimit:1;" x1="10.664" y1="36.732" x2="7.702" y2="40.287"/>
	<line style="fill:none;stroke:#000000;stroke-miterlimit:1;" x1="7.702" y1="40.287" x2="5.924" y2="43.842"/>
	<line style="fill:none;stroke:#000000;stroke-miterlimit:1;" x1="5.924" y1="43.842" x2="4.739" y2="47.396"/>
	<line style="fill:none;stroke:#000000;stroke-miterlimit:1;" x1="4.739" y1="47.396" x2="4.147" y2="50.359"/>
	<line style="fill:none;stroke:#000000;stroke-miterlimit:1;" x1="4.147" y1="50.359" x2="2.37" y2="54.506"/>
	<line style="fill:none;stroke:#000000;stroke-miterlimit:1;" x1="2.37" y1="54.506" x2="1.185" y2="58.061"/>
	<line style="fill:none;stroke:#000000;stroke-miterlimit:1;" x1="1.185" y1="58.061" x2="0.592" y2="62.8"/>
	<line style="fill:none;stroke:#000000;stroke-miterlimit:1;" x1="0.592" y1="62.8" x2="0.592" y2="66.355"/>
	<line style="fill:none;stroke:#000000;stroke-miterlimit:1;" x1="0.592" y1="66.355" x2="0" y2="72.28"/>
	<line style="fill:none;stroke:#000000;stroke-miterlimit:1;" x1="0" y1="72.28" x2="0" y2="75.834"/>
	<line style="fill:none;stroke:#000000;stroke-miterlimit:1;" x1="0" y1="75.834" x2="0" y2="81.76"/>
	<line style="fill:none;stroke:#000000;stroke-miterlimit:1;" x1="0" y1="81.76" x2="0.592" y2="85.314"/>
	<line style="fill:none;stroke:#000000;stroke-miterlimit:1;" x1="0.592" y1="85.314" x2="1.777" y2="89.461"/>
	<line style="fill:none;stroke:#000000;stroke-miterlimit:1;" x1="1.777" y1="89.461" x2="2.37" y2="93.016"/>
	<line style="fill:none;stroke:#000000;stroke-miterlimit:1;" x1="2.37" y1="93.016" x2="3.555" y2="97.162"/>
	<line style="fill:none;stroke:#000000;stroke-miterlimit:1;" x1="3.555" y1="97.162" x2="4.739" y2="100.125"/>
	<line style="fill:none;stroke:#000000;stroke-miterlimit:1;" x1="4.739" y1="100.125" x2="7.109" y2="104.865"/>
	<line style="fill:none;stroke:#000000;stroke-miterlimit:1;" x1="7.109" y1="104.865" x2="8.294" y2="108.42"/>
	<line style="fill:none;stroke:#000000;stroke-miterlimit:1;" x1="8.294" y1="108.42" x2="11.256" y2="111.975"/>
	<line style="fill:none;stroke:#000000;stroke-miterlimit:1;" x1="11.256" y1="111.975" x2="12.441" y2="114.344"/>
	<line style="fill:none;stroke:#000000;stroke-miterlimit:1;" x1="12.441" y1="114.344" x2="14.811" y2="117.898"/>
	<line style="fill:none;stroke:#000000;stroke-miterlimit:1;" x1="14.811" y1="117.898" x2="17.181" y2="120.27"/>
	<line style="fill:none;stroke:#000000;stroke-miterlimit:1;" x1="17.181" y1="120.27" x2="20.144" y2="123.824"/>
	<line style="fill:none;stroke:#000000;stroke-miterlimit:1;" x1="20.144" y1="123.824" x2="22.513" y2="126.193"/>
	<line style="fill:none;stroke:#000000;stroke-miterlimit:1;" x1="22.513" y1="126.193" x2="25.476" y2="129.156"/>
	<line style="fill:none;stroke:#000000;stroke-miterlimit:1;" x1="25.476" y1="129.156" x2="29.03" y2="131.525"/>
	<line style="fill:none;stroke:#000000;stroke-miterlimit:1;" x1="29.03" y1="131.525" x2="33.177" y2="134.488"/>
	<line style="fill:none;stroke:#000000;stroke-miterlimit:1;" x1="33.177" y1="134.488" x2="34.955" y2="135.672"/>
	<line style="fill:none;stroke:#000000;stroke-miterlimit:1;" x1="34.955" y1="135.672" x2="37.917" y2="138.043"/>
	<line style="fill:none;stroke:#000000;stroke-miterlimit:1;" x1="37.917" y1="138.043" x2="41.472" y2="139.227"/>
	<line style="fill:none;stroke:#000000;stroke-miterlimit:1;" x1="41.472" y1="139.227" x2="46.211" y2="141.004"/>
	<line style="fill:none;stroke:#000000;stroke-miterlimit:1;" x1="46.211" y1="141.004" x2="49.766" y2="142.189"/>
	<line style="fill:none;stroke:#000000;stroke-miterlimit:1;" x1="49.766" y1="142.189" x2="53.914" y2="143.967"/>
	<line style="fill:none;stroke:#000000;stroke-miterlimit:1;" x1="53.914" y1="143.967" x2="56.283" y2="144.561"/>
	<line style="fill:none;stroke:#000000;stroke-miterlimit:1;" x1="56.283" y1="144.561" x2="60.431" y2="145.744"/>
	<line style="fill:none;stroke:#000000;stroke-miterlimit:1;" x1="60.431" y1="145.744" x2="63.985" y2="145.744"/>
	<line style="fill:none;stroke:#000000;stroke-miterlimit:1;" x1="63.985" y1="145.744" x2="68.725" y2="146.338"/>
	<line style="fill:none;stroke:#000000;stroke-miterlimit:1;" x1="68.725" y1="146.338" x2="71.095" y2="146.338"/>
	<line style="fill:none;stroke:#000000;stroke-miterlimit:1;" x1="71.095" y1="146.338" x2="76.427" y2="146.93"/>
	<line style="fill:none;stroke:#000000;stroke-miterlimit:1;" x1="76.427" y1="146.93" x2="79.981" y2="146.338"/>
	<line style="fill:none;stroke:#000000;stroke-miterlimit:1;" x1="79.981" y1="146.338" x2="85.313" y2="145.744"/>
	<line style="fill:none;stroke:#000000;stroke-miterlimit:1;" x1="85.313" y1="145.744" x2="87.684" y2="145.152"/>
	<line style="fill:none;stroke:#000000;stroke-miterlimit:1;" x1="87.684" y1="145.152" x2="93.016" y2="144.561"/>
	<line style="fill:none;stroke:#000000;stroke-miterlimit:1;" x1="93.016" y1="144.561" x2="95.978" y2="143.375"/>
	<line style="fill:none;stroke:#000000;stroke-miterlimit:1;" x1="95.978" y1="143.375" x2="100.718" y2="142.189"/>
	<line style="fill:none;stroke:#000000;stroke-miterlimit:1;" x1="100.718" y1="142.189" x2="103.68" y2="141.004"/>
	<line style="fill:none;stroke:#000000;stroke-miterlimit:1;" x1="103.68" y1="141.004" x2="106.643" y2="138.635"/>
	<line style="fill:none;stroke:#000000;stroke-miterlimit:1;" x1="106.643" y1="138.635" x2="110.197" y2="137.449"/>
	<line style="fill:none;stroke:#000000;stroke-miterlimit:1;" x1="110.197" y1="137.449" x2="113.752" y2="135.08"/>
	<line style="fill:none;stroke:#000000;stroke-miterlimit:1;" x1="113.752" y1="135.08" x2="116.714" y2="132.711"/>
	<line style="fill:none;stroke:#000000;stroke-miterlimit:1;" x1="116.714" y1="132.711" x2="119.676" y2="130.934"/>
	<line style="fill:none;stroke:#000000;stroke-miterlimit:1;" x1="119.676" y1="130.934" x2="122.639" y2="128.562"/>
	<line style="fill:none;stroke:#000000;stroke-miterlimit:1;" x1="122.639" y1="128.562" x2="125.601" y2="125.602"/>
	<line style="fill:none;stroke:#000000;stroke-miterlimit:1;" x1="125.601" y1="125.602" x2="127.971" y2="122.639"/>
	<line style="fill:none;stroke:#000000;stroke-miterlimit:1;" x1="127.971" y1="122.639" x2="130.933" y2="120.27"/>
	<line style="fill:none;stroke:#000000;stroke-miterlimit:1;" x1="130.933" y1="120.27" x2="132.71" y2="117.307"/>
	<line style="fill:none;stroke:#000000;stroke-miterlimit:1;" x1="132.71" y1="117.307" x2="135.673" y2="112.566"/>
	<line style="fill:none;stroke:#000000;stroke-miterlimit:1;" x1="135.673" y1="112.566" x2="137.45" y2="110.789"/>
	<line style="fill:none;stroke:#000000;stroke-miterlimit:1;" x1="137.45" y1="110.789" x2="139.819" y2="106.643"/>
	<line style="fill:none;stroke:#000000;stroke-miterlimit:1;" x1="139.819" y1="106.643" x2="141.005" y2="103.68"/>
	<line style="fill:none;stroke:#000000;stroke-miterlimit:1;" x1="141.005" y1="103.68" x2="142.782" y2="100.125"/>
	<line style="fill:none;stroke:#000000;stroke-miterlimit:1;" x1="142.782" y1="100.125" x2="143.967" y2="96.57"/>
	<line style="fill:none;stroke:#000000;stroke-miterlimit:1;" x1="143.967" y1="96.57" x2="145.152" y2="92.424"/>
	<line style="fill:none;stroke:#000000;stroke-miterlimit:1;" x1="145.152" y1="92.424" x2="146.337" y2="88.869"/>
	<line style="fill:none;stroke:#000000;stroke-miterlimit:1;" x1="146.337" y1="88.869" x2="146.93" y2="84.129"/>
	<line style="fill:none;stroke:#000000;stroke-miterlimit:1;" x1="146.93" y1="84.129" x2="147.521" y2="81.166"/>
	<line style="fill:none;stroke:#000000;stroke-miterlimit:1;" x1="147.521" y1="81.166" x2="148.114" y2="77.02"/>
	<line style="fill:none;stroke:#000000;stroke-miterlimit:1;" x1="148.114" y1="77.02" x2="148.114" y2="72.872"/>
	<line style="fill:none;stroke:#000000;stroke-miterlimit:1;" x1="148.114" y1="72.872" x2="148.114" y2="68.725"/>
	<line style="fill:none;stroke:#000000;stroke-miterlimit:1;" x1="148.114" y1="68.725" x2="147.521" y2="64.578"/>
	<line style="fill:none;stroke:#000000;stroke-miterlimit:1;" x1="147.521" y1="64.578" x2="146.93" y2="61.023"/>
	<line style="fill:none;stroke:#000000;stroke-miterlimit:1;" x1="146.93" y1="61.023" x2="145.744" y2="56.876"/>
	<line style="fill:none;stroke:#000000;stroke-miterlimit:1;" x1="145.744" y1="56.876" x2="144.56" y2="53.321"/>
	<line style="fill:none;stroke:#000000;stroke-miterlimit:1;" x1="144.56" y1="53.321" x2="143.374" y2="49.767"/>
	<line style="fill:none;stroke:#000000;stroke-miterlimit:1;" x1="143.374" y1="49.767" x2="142.189" y2="46.212"/>
</g>
</svg>
