<?xml version="1.0" encoding="iso-8859-1"?>
<!-- Generator: Adobe Illustrator 16.0.1, SVG Export Plug-In . SVG Version: 6.00 Build 0)  -->
<!DOCTYPE svg PUBLIC "-//W3C//DTD SVG 1.1//EN" "http://www.w3.org/Graphics/SVG/1.1/DTD/svg11.dtd">
<svg version="1.1" id="Ebene_1" xmlns="http://www.w3.org/2000/svg" xmlns:xlink="http://www.w3.org/1999/xlink" x="0px" y="0px"
	 width="556.292px" height="149.808px" viewBox="0 0 556.292 149.808" style="enable-background:new 0 0 556.292 149.808;"
	 xml:space="preserve">
<g>
	<line style="fill:none;stroke:#000000;stroke-miterlimit:1;" x1="81.715" y1="71.389" x2="81.715" y2="3.409"/>
	<line style="fill:none;stroke:#000000;stroke-miterlimit:1;" x1="81.715" y1="3.409" x2="79.739" y2="1.433"/>
	<line style="fill:none;stroke:#000000;stroke-miterlimit:1;" x1="79.739" y1="1.433" x2="75.391" y2="0.247"/>
	<line style="fill:none;stroke:#000000;stroke-miterlimit:1;" x1="75.391" y1="0.247" x2="70.648" y2="1.038"/>
	<line style="fill:none;stroke:#000000;stroke-miterlimit:1;" x1="70.648" y1="1.038" x2="65.905" y2="3.409"/>
	<line style="fill:none;stroke:#000000;stroke-miterlimit:1;" x1="65.905" y1="3.409" x2="63.534" y2="6.175"/>
	<line style="fill:none;stroke:#000000;stroke-miterlimit:1;" x1="63.534" y1="6.175" x2="61.953" y2="8.547"/>
	<line style="fill:none;stroke:#000000;stroke-miterlimit:1;" x1="61.953" y1="8.547" x2="54.048" y2="27.123"/>
	<line style="fill:none;stroke:#000000;stroke-miterlimit:1;" x1="54.048" y1="27.123" x2="49.701" y2="36.213"/>
	<line style="fill:none;stroke:#000000;stroke-miterlimit:1;" x1="49.701" y1="36.213" x2="46.144" y2="42.537"/>
	<line style="fill:none;stroke:#000000;stroke-miterlimit:1;" x1="46.144" y1="42.537" x2="43.772" y2="46.885"/>
	<line style="fill:none;stroke:#000000;stroke-miterlimit:1;" x1="43.772" y1="46.885" x2="39.425" y2="51.232"/>
	<line style="fill:none;stroke:#000000;stroke-miterlimit:1;" x1="39.425" y1="51.232" x2="35.472" y2="54.394"/>
	<line style="fill:none;stroke:#000000;stroke-miterlimit:1;" x1="35.472" y1="54.394" x2="28.753" y2="57.951"/>
	<line style="fill:none;stroke:#000000;stroke-miterlimit:1;" x1="28.753" y1="57.951" x2="22.034" y2="60.323"/>
	<line style="fill:none;stroke:#000000;stroke-miterlimit:1;" x1="22.034" y1="60.323" x2="16.105" y2="61.904"/>
	<line style="fill:none;stroke:#000000;stroke-miterlimit:1;" x1="16.105" y1="61.904" x2="12.944" y2="62.694"/>
	<line style="fill:none;stroke:#000000;stroke-miterlimit:1;" x1="12.944" y1="62.694" x2="10.572" y2="63.484"/>
	<line style="fill:none;stroke:#000000;stroke-miterlimit:1;" x1="10.572" y1="63.484" x2="8.596" y2="65.065"/>
	<line style="fill:none;stroke:#000000;stroke-miterlimit:1;" x1="8.596" y1="65.065" x2="7.411" y2="68.228"/>
	<line style="fill:none;stroke:#000000;stroke-miterlimit:1;" x1="7.411" y1="68.228" x2="7.806" y2="69.808"/>
	<line style="fill:none;stroke:#000000;stroke-miterlimit:1;" x1="7.806" y1="69.808" x2="8.992" y2="70.994"/>
	<line style="fill:none;stroke:#000000;stroke-miterlimit:1;" x1="8.992" y1="70.994" x2="10.968" y2="71.389"/>
	<line style="fill:none;stroke:#000000;stroke-miterlimit:1;" x1="10.968" y1="71.389" x2="81.715" y2="71.389"/>
	<line style="fill:none;stroke:#000000;stroke-miterlimit:1;" x1="93.275" y1="148.361" x2="0" y2="148.361"/>
	<line style="fill:none;stroke:#000000;stroke-miterlimit:1;" x1="0" y1="148.361" x2="1.186" y2="140.456"/>
	<line style="fill:none;stroke:#000000;stroke-miterlimit:1;" x1="1.186" y1="140.456" x2="2.371" y2="135.318"/>
	<line style="fill:none;stroke:#000000;stroke-miterlimit:1;" x1="2.371" y1="135.318" x2="4.348" y2="130.181"/>
	<line style="fill:none;stroke:#000000;stroke-miterlimit:1;" x1="4.348" y1="130.181" x2="7.114" y2="126.229"/>
	<line style="fill:none;stroke:#000000;stroke-miterlimit:1;" x1="7.114" y1="126.229" x2="9.485" y2="122.671"/>
	<line style="fill:none;stroke:#000000;stroke-miterlimit:1;" x1="9.485" y1="122.671" x2="12.647" y2="118.323"/>
	<line style="fill:none;stroke:#000000;stroke-miterlimit:1;" x1="12.647" y1="118.323" x2="16.205" y2="115.161"/>
	<line style="fill:none;stroke:#000000;stroke-miterlimit:1;" x1="16.205" y1="115.161" x2="20.552" y2="112"/>
	<line style="fill:none;stroke:#000000;stroke-miterlimit:1;" x1="20.552" y1="112" x2="24.109" y2="109.628"/>
	<line style="fill:none;stroke:#000000;stroke-miterlimit:1;" x1="24.109" y1="109.628" x2="29.247" y2="107.257"/>
	<line style="fill:none;stroke:#000000;stroke-miterlimit:1;" x1="29.247" y1="107.257" x2="34.385" y2="105.676"/>
	<line style="fill:none;stroke:#000000;stroke-miterlimit:1;" x1="34.385" y1="105.676" x2="37.942" y2="104.886"/>
	<line style="fill:none;stroke:#000000;stroke-miterlimit:1;" x1="37.942" y1="104.886" x2="44.266" y2="104.095"/>
	<line style="fill:none;stroke:#000000;stroke-miterlimit:1;" x1="44.266" y1="104.095" x2="49.009" y2="104.095"/>
	<line style="fill:none;stroke:#000000;stroke-miterlimit:1;" x1="49.009" y1="104.095" x2="53.356" y2="104.886"/>
	<line style="fill:none;stroke:#000000;stroke-miterlimit:1;" x1="53.356" y1="104.886" x2="58.1" y2="105.676"/>
	<line style="fill:none;stroke:#000000;stroke-miterlimit:1;" x1="58.1" y1="105.676" x2="63.237" y2="106.861"/>
	<line style="fill:none;stroke:#000000;stroke-miterlimit:1;" x1="63.237" y1="106.861" x2="66.794" y2="108.047"/>
	<line style="fill:none;stroke:#000000;stroke-miterlimit:1;" x1="66.794" y1="108.047" x2="71.538" y2="111.209"/>
	<line style="fill:none;stroke:#000000;stroke-miterlimit:1;" x1="71.538" y1="111.209" x2="75.49" y2="113.976"/>
	<line style="fill:none;stroke:#000000;stroke-miterlimit:1;" x1="75.49" y1="113.976" x2="79.047" y2="116.742"/>
	<line style="fill:none;stroke:#000000;stroke-miterlimit:1;" x1="79.047" y1="116.742" x2="82.209" y2="120.694"/>
	<line style="fill:none;stroke:#000000;stroke-miterlimit:1;" x1="82.209" y1="120.694" x2="85.371" y2="125.042"/>
	<line style="fill:none;stroke:#000000;stroke-miterlimit:1;" x1="85.371" y1="125.042" x2="88.137" y2="129.39"/>
	<line style="fill:none;stroke:#000000;stroke-miterlimit:1;" x1="88.137" y1="129.39" x2="90.113" y2="133.343"/>
	<line style="fill:none;stroke:#000000;stroke-miterlimit:1;" x1="90.113" y1="133.343" x2="91.694" y2="139.271"/>
	<line style="fill:none;stroke:#000000;stroke-miterlimit:1;" x1="91.694" y1="139.271" x2="92.88" y2="143.618"/>
	<line style="fill:none;stroke:#000000;stroke-miterlimit:1;" x1="92.88" y1="143.618" x2="93.275" y2="148.361"/>
	<line style="fill:none;stroke:#000000;stroke-miterlimit:1;" x1="141.326" y1="37.522" x2="136.718" y2="42.459"/>
	<line style="fill:none;stroke:#000000;stroke-miterlimit:1;" x1="136.718" y1="42.459" x2="131.78" y2="49.701"/>
	<line style="fill:none;stroke:#000000;stroke-miterlimit:1;" x1="131.78" y1="49.701" x2="129.147" y2="54.967"/>
	<line style="fill:none;stroke:#000000;stroke-miterlimit:1;" x1="129.147" y1="54.967" x2="127.831" y2="60.562"/>
	<line style="fill:none;stroke:#000000;stroke-miterlimit:1;" x1="127.831" y1="60.562" x2="126.843" y2="66.158"/>
	<line style="fill:none;stroke:#000000;stroke-miterlimit:1;" x1="126.843" y1="66.158" x2="127.172" y2="70.437"/>
	<line style="fill:none;stroke:#000000;stroke-miterlimit:1;" x1="127.172" y1="70.437" x2="127.831" y2="73.07"/>
	<line style="fill:none;stroke:#000000;stroke-miterlimit:1;" x1="127.831" y1="73.07" x2="130.793" y2="74.057"/>
	<line style="fill:none;stroke:#000000;stroke-miterlimit:1;" x1="130.793" y1="74.057" x2="134.414" y2="72.412"/>
	<line style="fill:none;stroke:#000000;stroke-miterlimit:1;" x1="134.414" y1="72.412" x2="139.68" y2="67.804"/>
	<line style="fill:none;stroke:#000000;stroke-miterlimit:1;" x1="139.68" y1="67.804" x2="146.921" y2="60.562"/>
	<line style="fill:none;stroke:#000000;stroke-miterlimit:1;" x1="146.921" y1="60.562" x2="155.808" y2="55.296"/>
	<line style="fill:none;stroke:#000000;stroke-miterlimit:1;" x1="155.808" y1="55.296" x2="163.378" y2="52.005"/>
	<line style="fill:none;stroke:#000000;stroke-miterlimit:1;" x1="163.378" y1="52.005" x2="172.594" y2="50.359"/>
	<line style="fill:none;stroke:#000000;stroke-miterlimit:1;" x1="172.594" y1="50.359" x2="181.81" y2="49.372"/>
	<line style="fill:none;stroke:#000000;stroke-miterlimit:1;" x1="181.81" y1="49.372" x2="187.735" y2="48.384"/>
	<line style="fill:none;stroke:#000000;stroke-miterlimit:1;" x1="187.735" y1="48.384" x2="191.026" y2="46.738"/>
	<line style="fill:none;stroke:#000000;stroke-miterlimit:1;" x1="191.026" y1="46.738" x2="193.988" y2="44.105"/>
	<line style="fill:none;stroke:#000000;stroke-miterlimit:1;" x1="193.988" y1="44.105" x2="195.634" y2="38.51"/>
	<line style="fill:none;stroke:#000000;stroke-miterlimit:1;" x1="195.634" y1="38.51" x2="195.634" y2="33.573"/>
	<line style="fill:none;stroke:#000000;stroke-miterlimit:1;" x1="195.634" y1="33.573" x2="193.33" y2="28.636"/>
	<line style="fill:none;stroke:#000000;stroke-miterlimit:1;" x1="193.33" y1="28.636" x2="188.722" y2="26.332"/>
	<line style="fill:none;stroke:#000000;stroke-miterlimit:1;" x1="188.722" y1="26.332" x2="180.494" y2="23.698"/>
	<line style="fill:none;stroke:#000000;stroke-miterlimit:1;" x1="180.494" y1="23.698" x2="169.303" y2="21.724"/>
	<line style="fill:none;stroke:#000000;stroke-miterlimit:1;" x1="169.303" y1="21.724" x2="159.099" y2="19.419"/>
	<line style="fill:none;stroke:#000000;stroke-miterlimit:1;" x1="159.099" y1="19.419" x2="150.212" y2="16.128"/>
	<line style="fill:none;stroke:#000000;stroke-miterlimit:1;" x1="150.212" y1="16.128" x2="142.971" y2="11.191"/>
	<line style="fill:none;stroke:#000000;stroke-miterlimit:1;" x1="142.971" y1="11.191" x2="138.363" y2="6.583"/>
	<line style="fill:none;stroke:#000000;stroke-miterlimit:1;" x1="138.363" y1="6.583" x2="135.73" y2="2.633"/>
	<line style="fill:none;stroke:#000000;stroke-miterlimit:1;" x1="135.73" y1="2.633" x2="133.426" y2="0.658"/>
	<line style="fill:none;stroke:#000000;stroke-miterlimit:1;" x1="133.426" y1="0.658" x2="131.122" y2="0"/>
	<line style="fill:none;stroke:#000000;stroke-miterlimit:1;" x1="131.122" y1="0" x2="129.477" y2="0.329"/>
	<line style="fill:none;stroke:#000000;stroke-miterlimit:1;" x1="129.477" y1="0.329" x2="128.489" y2="1.316"/>
	<line style="fill:none;stroke:#000000;stroke-miterlimit:1;" x1="128.489" y1="1.316" x2="127.172" y2="4.938"/>
	<line style="fill:none;stroke:#000000;stroke-miterlimit:1;" x1="127.172" y1="4.938" x2="126.514" y2="10.533"/>
	<line style="fill:none;stroke:#000000;stroke-miterlimit:1;" x1="126.514" y1="10.533" x2="128.16" y2="19.09"/>
	<line style="fill:none;stroke:#000000;stroke-miterlimit:1;" x1="128.16" y1="19.09" x2="129.147" y2="23.04"/>
	<line style="fill:none;stroke:#000000;stroke-miterlimit:1;" x1="129.147" y1="23.04" x2="131.122" y2="26.99"/>
	<line style="fill:none;stroke:#000000;stroke-miterlimit:1;" x1="131.122" y1="26.99" x2="135.072" y2="32.256"/>
	<line style="fill:none;stroke:#000000;stroke-miterlimit:1;" x1="135.072" y1="32.256" x2="138.363" y2="35.547"/>
	<line style="fill:none;stroke:#000000;stroke-miterlimit:1;" x1="138.363" y1="35.547" x2="141.326" y2="37.193"/>
	<line style="fill:none;stroke:#000000;stroke-miterlimit:1;" x1="118.286" y1="90.145" x2="144.617" y2="149.39"/>
	<line style="fill:none;stroke:#000000;stroke-miterlimit:1;" x1="144.617" y1="149.39" x2="157.783" y2="149.39"/>
	<line style="fill:none;stroke:#000000;stroke-miterlimit:1;" x1="157.783" y1="149.39" x2="131.451" y2="90.145"/>
	<line style="fill:none;stroke:#000000;stroke-miterlimit:1;" x1="131.451" y1="90.145" x2="118.286" y2="90.145"/>
	<line style="fill:none;stroke:#000000;stroke-miterlimit:1;" x1="158.112" y1="90.145" x2="184.443" y2="149.39"/>
	<line style="fill:none;stroke:#000000;stroke-miterlimit:1;" x1="184.443" y1="149.39" x2="197.609" y2="149.39"/>
	<line style="fill:none;stroke:#000000;stroke-miterlimit:1;" x1="197.609" y1="149.39" x2="171.278" y2="90.145"/>
	<line style="fill:none;stroke:#000000;stroke-miterlimit:1;" x1="171.278" y1="90.145" x2="158.112" y2="90.145"/>
	<line style="fill:none;stroke:#000000;stroke-miterlimit:1;" x1="255.867" y1="122.441" x2="268.375" y2="118.162"/>
	<line style="fill:none;stroke:#000000;stroke-miterlimit:1;" x1="268.375" y1="118.162" x2="282.857" y2="114.542"/>
	<line style="fill:none;stroke:#000000;stroke-miterlimit:1;" x1="282.857" y1="114.542" x2="319.392" y2="111.909"/>
	<line style="fill:none;stroke:#000000;stroke-miterlimit:1;" x1="319.392" y1="111.909" x2="347.698" y2="111.909"/>
	<line style="fill:none;stroke:#000000;stroke-miterlimit:1;" x1="347.698" y1="111.909" x2="356.256" y2="110.592"/>
	<line style="fill:none;stroke:#000000;stroke-miterlimit:1;" x1="356.256" y1="110.592" x2="364.484" y2="108.617"/>
	<line style="fill:none;stroke:#000000;stroke-miterlimit:1;" x1="364.484" y1="108.617" x2="371.396" y2="104.997"/>
	<line style="fill:none;stroke:#000000;stroke-miterlimit:1;" x1="371.396" y1="104.997" x2="376.005" y2="100.06"/>
	<line style="fill:none;stroke:#000000;stroke-miterlimit:1;" x1="376.005" y1="100.06" x2="379.954" y2="90.844"/>
	<line style="fill:none;stroke:#000000;stroke-miterlimit:1;" x1="379.954" y1="90.844" x2="379.954" y2="84.919"/>
	<line style="fill:none;stroke:#000000;stroke-miterlimit:1;" x1="379.954" y1="84.919" x2="379.625" y2="78.994"/>
	<line style="fill:none;stroke:#000000;stroke-miterlimit:1;" x1="379.625" y1="78.994" x2="377.979" y2="72.741"/>
	<line style="fill:none;stroke:#000000;stroke-miterlimit:1;" x1="377.979" y1="72.741" x2="374.029" y2="66.816"/>
	<line style="fill:none;stroke:#000000;stroke-miterlimit:1;" x1="374.029" y1="66.816" x2="368.105" y2="62.208"/>
	<line style="fill:none;stroke:#000000;stroke-miterlimit:1;" x1="368.105" y1="62.208" x2="361.193" y2="59.246"/>
	<line style="fill:none;stroke:#000000;stroke-miterlimit:1;" x1="361.193" y1="59.246" x2="351.647" y2="56.613"/>
	<line style="fill:none;stroke:#000000;stroke-miterlimit:1;" x1="351.647" y1="56.613" x2="342.432" y2="55.296"/>
	<line style="fill:none;stroke:#000000;stroke-miterlimit:1;" x1="342.432" y1="55.296" x2="329.596" y2="54.309"/>
	<line style="fill:none;stroke:#000000;stroke-miterlimit:1;" x1="329.596" y1="54.309" x2="316.101" y2="54.967"/>
	<line style="fill:none;stroke:#000000;stroke-miterlimit:1;" x1="316.101" y1="54.967" x2="293.061" y2="56.613"/>
	<line style="fill:none;stroke:#000000;stroke-miterlimit:1;" x1="293.061" y1="56.613" x2="289.439" y2="56.284"/>
	<line style="fill:none;stroke:#000000;stroke-miterlimit:1;" x1="289.439" y1="56.284" x2="285.49" y2="54.638"/>
	<line style="fill:none;stroke:#000000;stroke-miterlimit:1;" x1="285.49" y1="54.638" x2="284.174" y2="52.005"/>
	<line style="fill:none;stroke:#000000;stroke-miterlimit:1;" x1="284.174" y1="52.005" x2="282.857" y2="49.042"/>
	<line style="fill:none;stroke:#000000;stroke-miterlimit:1;" x1="282.857" y1="49.042" x2="281.211" y2="41.143"/>
	<line style="fill:none;stroke:#000000;stroke-miterlimit:1;" x1="281.211" y1="41.143" x2="278.907" y2="37.852"/>
	<line style="fill:none;stroke:#000000;stroke-miterlimit:1;" x1="278.907" y1="37.852" x2="274.628" y2="34.889"/>
	<line style="fill:none;stroke:#000000;stroke-miterlimit:1;" x1="274.628" y1="34.889" x2="268.704" y2="33.573"/>
	<line style="fill:none;stroke:#000000;stroke-miterlimit:1;" x1="268.704" y1="33.573" x2="265.413" y2="34.231"/>
	<line style="fill:none;stroke:#000000;stroke-miterlimit:1;" x1="265.413" y1="34.231" x2="262.121" y2="34.56"/>
	<line style="fill:none;stroke:#000000;stroke-miterlimit:1;" x1="262.121" y1="34.56" x2="260.146" y2="36.206"/>
	<line style="fill:none;stroke:#000000;stroke-miterlimit:1;" x1="260.146" y1="36.206" x2="258.5" y2="38.839"/>
	<line style="fill:none;stroke:#000000;stroke-miterlimit:1;" x1="258.5" y1="38.839" x2="258.5" y2="40.814"/>
	<line style="fill:none;stroke:#000000;stroke-miterlimit:1;" x1="258.5" y1="40.814" x2="259.817" y2="42.789"/>
	<line style="fill:none;stroke:#000000;stroke-miterlimit:1;" x1="259.817" y1="42.789" x2="265.413" y2="46.08"/>
	<line style="fill:none;stroke:#000000;stroke-miterlimit:1;" x1="265.413" y1="46.08" x2="269.691" y2="46.738"/>
	<line style="fill:none;stroke:#000000;stroke-miterlimit:1;" x1="269.691" y1="46.738" x2="276.274" y2="46.08"/>
	<line style="fill:none;stroke:#000000;stroke-miterlimit:1;" x1="276.274" y1="46.08" x2="277.262" y2="50.03"/>
	<line style="fill:none;stroke:#000000;stroke-miterlimit:1;" x1="277.262" y1="50.03" x2="280.553" y2="57.929"/>
	<line style="fill:none;stroke:#000000;stroke-miterlimit:1;" x1="280.553" y1="57.929" x2="284.503" y2="60.892"/>
	<line style="fill:none;stroke:#000000;stroke-miterlimit:1;" x1="284.503" y1="60.892" x2="292.402" y2="62.537"/>
	<line style="fill:none;stroke:#000000;stroke-miterlimit:1;" x1="292.402" y1="62.537" x2="305.239" y2="62.537"/>
	<line style="fill:none;stroke:#000000;stroke-miterlimit:1;" x1="305.239" y1="62.537" x2="328.938" y2="61.221"/>
	<line style="fill:none;stroke:#000000;stroke-miterlimit:1;" x1="328.938" y1="61.221" x2="348.686" y2="62.866"/>
	<line style="fill:none;stroke:#000000;stroke-miterlimit:1;" x1="348.686" y1="62.866" x2="355.927" y2="64.841"/>
	<line style="fill:none;stroke:#000000;stroke-miterlimit:1;" x1="355.927" y1="64.841" x2="363.168" y2="67.475"/>
	<line style="fill:none;stroke:#000000;stroke-miterlimit:1;" x1="363.168" y1="67.475" x2="368.105" y2="70.766"/>
	<line style="fill:none;stroke:#000000;stroke-miterlimit:1;" x1="368.105" y1="70.766" x2="371.067" y2="73.728"/>
	<line style="fill:none;stroke:#000000;stroke-miterlimit:1;" x1="371.067" y1="73.728" x2="373.371" y2="77.678"/>
	<line style="fill:none;stroke:#000000;stroke-miterlimit:1;" x1="373.371" y1="77.678" x2="374.688" y2="81.957"/>
	<line style="fill:none;stroke:#000000;stroke-miterlimit:1;" x1="374.688" y1="81.957" x2="374.688" y2="86.564"/>
	<line style="fill:none;stroke:#000000;stroke-miterlimit:1;" x1="374.688" y1="86.564" x2="374.029" y2="91.173"/>
	<line style="fill:none;stroke:#000000;stroke-miterlimit:1;" x1="374.029" y1="91.173" x2="371.396" y2="95.78"/>
	<line style="fill:none;stroke:#000000;stroke-miterlimit:1;" x1="371.396" y1="95.78" x2="368.105" y2="99.401"/>
	<line style="fill:none;stroke:#000000;stroke-miterlimit:1;" x1="368.105" y1="99.401" x2="362.181" y2="103.351"/>
	<line style="fill:none;stroke:#000000;stroke-miterlimit:1;" x1="362.181" y1="103.351" x2="355.269" y2="104.997"/>
	<line style="fill:none;stroke:#000000;stroke-miterlimit:1;" x1="355.269" y1="104.997" x2="332.887" y2="105.655"/>
	<line style="fill:none;stroke:#000000;stroke-miterlimit:1;" x1="332.887" y1="105.655" x2="298.656" y2="106.972"/>
	<line style="fill:none;stroke:#000000;stroke-miterlimit:1;" x1="298.656" y1="106.972" x2="286.807" y2="108.288"/>
	<line style="fill:none;stroke:#000000;stroke-miterlimit:1;" x1="286.807" y1="108.288" x2="275.287" y2="110.592"/>
	<line style="fill:none;stroke:#000000;stroke-miterlimit:1;" x1="275.287" y1="110.592" x2="266.071" y2="113.555"/>
	<line style="fill:none;stroke:#000000;stroke-miterlimit:1;" x1="266.071" y1="113.555" x2="258.83" y2="117.504"/>
	<line style="fill:none;stroke:#000000;stroke-miterlimit:1;" x1="258.83" y1="117.504" x2="256.854" y2="119.479"/>
	<line style="fill:none;stroke:#000000;stroke-miterlimit:1;" x1="256.854" y1="119.479" x2="256.525" y2="121.783"/>
	<line style="fill:none;stroke:#000000;stroke-miterlimit:1;" x1="266.729" y1="38.181" x2="267.716" y2="39.497"/>
	<line style="fill:none;stroke:#000000;stroke-miterlimit:1;" x1="267.716" y1="39.497" x2="269.362" y2="38.839"/>
	<line style="fill:none;stroke:#000000;stroke-miterlimit:1;" x1="269.362" y1="38.839" x2="268.375" y2="37.193"/>
	<line style="fill:none;stroke:#000000;stroke-miterlimit:1;" x1="268.375" y1="37.193" x2="266.729" y2="37.852"/>
	<line style="fill:none;stroke:#000000;stroke-miterlimit:1;" x1="256.525" y1="48.384" x2="257.513" y2="48.055"/>
	<line style="fill:none;stroke:#000000;stroke-miterlimit:1;" x1="257.513" y1="48.055" x2="257.842" y2="46.738"/>
	<line style="fill:none;stroke:#000000;stroke-miterlimit:1;" x1="257.842" y1="46.738" x2="257.513" y2="45.422"/>
	<line style="fill:none;stroke:#000000;stroke-miterlimit:1;" x1="257.513" y1="45.422" x2="256.525" y2="44.764"/>
	<line style="fill:none;stroke:#000000;stroke-miterlimit:1;" x1="256.525" y1="44.764" x2="255.209" y2="45.093"/>
	<line style="fill:none;stroke:#000000;stroke-miterlimit:1;" x1="255.209" y1="45.093" x2="254.88" y2="46.738"/>
	<line style="fill:none;stroke:#000000;stroke-miterlimit:1;" x1="254.88" y1="46.738" x2="256.525" y2="48.055"/>
	<line style="fill:none;stroke:#000000;stroke-miterlimit:1;" x1="248.297" y1="53.65" x2="249.614" y2="52.663"/>
	<line style="fill:none;stroke:#000000;stroke-miterlimit:1;" x1="249.614" y1="52.663" x2="249.943" y2="51.017"/>
	<line style="fill:none;stroke:#000000;stroke-miterlimit:1;" x1="249.943" y1="51.017" x2="248.626" y2="49.701"/>
	<line style="fill:none;stroke:#000000;stroke-miterlimit:1;" x1="248.626" y1="49.701" x2="247.31" y2="49.701"/>
	<line style="fill:none;stroke:#000000;stroke-miterlimit:1;" x1="247.31" y1="49.701" x2="246.651" y2="52.005"/>
	<line style="fill:none;stroke:#000000;stroke-miterlimit:1;" x1="246.651" y1="52.005" x2="247.968" y2="53.321"/>
	<line style="fill:none;stroke:#000000;stroke-miterlimit:1;" x1="241.714" y1="59.904" x2="242.702" y2="58.917"/>
	<line style="fill:none;stroke:#000000;stroke-miterlimit:1;" x1="242.702" y1="58.917" x2="243.031" y2="56.942"/>
	<line style="fill:none;stroke:#000000;stroke-miterlimit:1;" x1="243.031" y1="56.942" x2="242.043" y2="55.955"/>
	<line style="fill:none;stroke:#000000;stroke-miterlimit:1;" x1="242.043" y1="55.955" x2="240.727" y2="56.284"/>
	<line style="fill:none;stroke:#000000;stroke-miterlimit:1;" x1="240.727" y1="56.284" x2="240.068" y2="57.929"/>
	<line style="fill:none;stroke:#000000;stroke-miterlimit:1;" x1="240.068" y1="57.929" x2="241.385" y2="58.917"/>
	<line style="fill:none;stroke:#000000;stroke-miterlimit:1;" x1="235.46" y1="65.829" x2="236.777" y2="65.829"/>
	<line style="fill:none;stroke:#000000;stroke-miterlimit:1;" x1="236.777" y1="65.829" x2="237.765" y2="63.524"/>
	<line style="fill:none;stroke:#000000;stroke-miterlimit:1;" x1="237.765" y1="63.524" x2="236.777" y2="62.537"/>
	<line style="fill:none;stroke:#000000;stroke-miterlimit:1;" x1="236.777" y1="62.537" x2="234.802" y2="62.866"/>
	<line style="fill:none;stroke:#000000;stroke-miterlimit:1;" x1="234.802" y1="62.866" x2="234.144" y2="64.841"/>
	<line style="fill:none;stroke:#000000;stroke-miterlimit:1;" x1="234.144" y1="64.841" x2="235.131" y2="65.5"/>
	<line style="fill:none;stroke:#000000;stroke-miterlimit:1;" x1="231.84" y1="73.07" x2="233.156" y2="72.412"/>
	<line style="fill:none;stroke:#000000;stroke-miterlimit:1;" x1="233.156" y1="72.412" x2="233.156" y2="70.766"/>
	<line style="fill:none;stroke:#000000;stroke-miterlimit:1;" x1="233.156" y1="70.766" x2="232.169" y2="69.449"/>
	<line style="fill:none;stroke:#000000;stroke-miterlimit:1;" x1="232.169" y1="69.449" x2="230.194" y2="69.778"/>
	<line style="fill:none;stroke:#000000;stroke-miterlimit:1;" x1="230.194" y1="69.778" x2="230.194" y2="71.753"/>
	<line style="fill:none;stroke:#000000;stroke-miterlimit:1;" x1="230.194" y1="71.753" x2="231.511" y2="73.07"/>
	<line style="fill:none;stroke:#000000;stroke-miterlimit:1;" x1="227.89" y1="81.299" x2="229.207" y2="80.64"/>
	<line style="fill:none;stroke:#000000;stroke-miterlimit:1;" x1="229.207" y1="80.64" x2="229.536" y2="78.994"/>
	<line style="fill:none;stroke:#000000;stroke-miterlimit:1;" x1="229.536" y1="78.994" x2="228.877" y2="78.007"/>
	<line style="fill:none;stroke:#000000;stroke-miterlimit:1;" x1="228.877" y1="78.007" x2="227.232" y2="78.336"/>
	<line style="fill:none;stroke:#000000;stroke-miterlimit:1;" x1="227.232" y1="78.336" x2="226.245" y2="79.981"/>
	<line style="fill:none;stroke:#000000;stroke-miterlimit:1;" x1="226.245" y1="79.981" x2="227.89" y2="81.299"/>
	<line style="fill:none;stroke:#000000;stroke-miterlimit:1;" x1="225.257" y1="90.515" x2="226.574" y2="90.186"/>
	<line style="fill:none;stroke:#000000;stroke-miterlimit:1;" x1="226.574" y1="90.186" x2="226.903" y2="87.881"/>
	<line style="fill:none;stroke:#000000;stroke-miterlimit:1;" x1="226.903" y1="87.881" x2="225.916" y2="86.564"/>
	<line style="fill:none;stroke:#000000;stroke-miterlimit:1;" x1="225.916" y1="86.564" x2="224.27" y2="86.894"/>
	<line style="fill:none;stroke:#000000;stroke-miterlimit:1;" x1="224.27" y1="86.894" x2="223.94" y2="88.54"/>
	<line style="fill:none;stroke:#000000;stroke-miterlimit:1;" x1="223.94" y1="88.54" x2="225.586" y2="90.186"/>
	<line style="fill:none;stroke:#000000;stroke-miterlimit:1;" x1="223.282" y1="98.743" x2="224.928" y2="98.743"/>
	<line style="fill:none;stroke:#000000;stroke-miterlimit:1;" x1="224.928" y1="98.743" x2="225.257" y2="96.438"/>
	<line style="fill:none;stroke:#000000;stroke-miterlimit:1;" x1="225.257" y1="96.438" x2="223.94" y2="95.122"/>
	<line style="fill:none;stroke:#000000;stroke-miterlimit:1;" x1="223.94" y1="95.122" x2="222.624" y2="95.78"/>
	<line style="fill:none;stroke:#000000;stroke-miterlimit:1;" x1="222.624" y1="95.78" x2="222.295" y2="97.427"/>
	<line style="fill:none;stroke:#000000;stroke-miterlimit:1;" x1="222.295" y1="97.427" x2="223.611" y2="98.743"/>
	<line style="fill:none;stroke:#000000;stroke-miterlimit:1;" x1="223.282" y1="106.972" x2="223.94" y2="104.339"/>
	<line style="fill:none;stroke:#000000;stroke-miterlimit:1;" x1="223.94" y1="104.339" x2="222.953" y2="103.351"/>
	<line style="fill:none;stroke:#000000;stroke-miterlimit:1;" x1="222.953" y1="103.351" x2="221.307" y2="104.009"/>
	<line style="fill:none;stroke:#000000;stroke-miterlimit:1;" x1="221.307" y1="104.009" x2="220.649" y2="105.984"/>
	<line style="fill:none;stroke:#000000;stroke-miterlimit:1;" x1="220.649" y1="105.984" x2="222.953" y2="106.972"/>
	<line style="fill:none;stroke:#000000;stroke-miterlimit:1;" x1="208.8" y1="104.339" x2="215.054" y2="122.112"/>
	<line style="fill:none;stroke:#000000;stroke-miterlimit:1;" x1="215.054" y1="122.112" x2="229.865" y2="122.112"/>
	<line style="fill:none;stroke:#000000;stroke-miterlimit:1;" x1="229.865" y1="122.112" x2="234.802" y2="104.009"/>
	<line style="fill:none;stroke:#000000;stroke-miterlimit:1;" x1="234.802" y1="104.009" x2="227.89" y2="110.921"/>
	<line style="fill:none;stroke:#000000;stroke-miterlimit:1;" x1="227.89" y1="110.921" x2="216.041" y2="110.921"/>
	<line style="fill:none;stroke:#000000;stroke-miterlimit:1;" x1="216.041" y1="110.921" x2="209.129" y2="104.009"/>
	<line style="fill:none;stroke:#000000;stroke-miterlimit:1;" x1="486.844" y1="23.41" x2="556.292" y2="36.247"/>
	<line style="fill:none;stroke:#000000;stroke-miterlimit:1;" x1="556.292" y1="36.247" x2="550.039" y2="29.006"/>
	<line style="fill:none;stroke:#000000;stroke-miterlimit:1;" x1="550.039" y1="29.006" x2="547.076" y2="21.765"/>
	<line style="fill:none;stroke:#000000;stroke-miterlimit:1;" x1="547.076" y1="21.765" x2="547.076" y2="17.815"/>
	<line style="fill:none;stroke:#000000;stroke-miterlimit:1;" x1="547.076" y1="17.815" x2="548.394" y2="13.207"/>
	<line style="fill:none;stroke:#000000;stroke-miterlimit:1;" x1="548.394" y1="13.207" x2="552.014" y2="8.599"/>
	<line style="fill:none;stroke:#000000;stroke-miterlimit:1;" x1="552.014" y1="8.599" x2="554.646" y2="5.308"/>
	<line style="fill:none;stroke:#000000;stroke-miterlimit:1;" x1="554.646" y1="5.308" x2="556.292" y2="3.333"/>
	<line style="fill:none;stroke:#000000;stroke-miterlimit:1;" x1="556.292" y1="3.333" x2="486.515" y2="15.84"/>
	<line style="fill:none;stroke:#000000;stroke-miterlimit:1;" x1="465.778" y1="15.84" x2="396" y2="3.333"/>
	<line style="fill:none;stroke:#000000;stroke-miterlimit:1;" x1="396" y1="3.333" x2="400.278" y2="8.599"/>
	<line style="fill:none;stroke:#000000;stroke-miterlimit:1;" x1="400.278" y1="8.599" x2="403.899" y2="13.207"/>
	<line style="fill:none;stroke:#000000;stroke-miterlimit:1;" x1="403.899" y1="13.207" x2="404.558" y2="17.815"/>
	<line style="fill:none;stroke:#000000;stroke-miterlimit:1;" x1="404.558" y1="17.815" x2="404.558" y2="21.765"/>
	<line style="fill:none;stroke:#000000;stroke-miterlimit:1;" x1="404.558" y1="21.765" x2="403.241" y2="27.689"/>
	<line style="fill:none;stroke:#000000;stroke-miterlimit:1;" x1="403.241" y1="27.689" x2="399.949" y2="30.98"/>
	<line style="fill:none;stroke:#000000;stroke-miterlimit:1;" x1="399.949" y1="30.98" x2="396" y2="36.247"/>
	<line style="fill:none;stroke:#000000;stroke-miterlimit:1;" x1="396" y1="36.247" x2="465.778" y2="23.74"/>
	<line style="fill:none;stroke:#000000;stroke-miterlimit:1;" x1="465.778" y1="20.448" x2="465.778" y2="26.702"/>
	<line style="fill:none;stroke:#000000;stroke-miterlimit:1;" x1="465.778" y1="26.702" x2="468.411" y2="29.664"/>
	<line style="fill:none;stroke:#000000;stroke-miterlimit:1;" x1="468.411" y1="29.664" x2="474.336" y2="29.664"/>
	<line style="fill:none;stroke:#000000;stroke-miterlimit:1;" x1="474.336" y1="29.664" x2="476.311" y2="26.373"/>
	<line style="fill:none;stroke:#000000;stroke-miterlimit:1;" x1="476.311" y1="26.373" x2="476.311" y2="13.865"/>
	<line style="fill:none;stroke:#000000;stroke-miterlimit:1;" x1="476.311" y1="13.865" x2="474.336" y2="9.257"/>
	<line style="fill:none;stroke:#000000;stroke-miterlimit:1;" x1="474.336" y1="9.257" x2="468.411" y2="9.257"/>
	<line style="fill:none;stroke:#000000;stroke-miterlimit:1;" x1="468.411" y1="9.257" x2="465.778" y2="13.207"/>
	<line style="fill:none;stroke:#000000;stroke-miterlimit:1;" x1="465.778" y1="13.207" x2="465.778" y2="20.448"/>
	<line style="fill:none;stroke:#000000;stroke-miterlimit:1;" x1="476.311" y1="17.815" x2="476.311" y2="12.549"/>
	<line style="fill:none;stroke:#000000;stroke-miterlimit:1;" x1="476.311" y1="12.549" x2="479.273" y2="9.257"/>
	<line style="fill:none;stroke:#000000;stroke-miterlimit:1;" x1="479.273" y1="9.257" x2="484.21" y2="9.257"/>
	<line style="fill:none;stroke:#000000;stroke-miterlimit:1;" x1="484.21" y1="9.257" x2="486.515" y2="12.549"/>
	<line style="fill:none;stroke:#000000;stroke-miterlimit:1;" x1="486.515" y1="12.549" x2="486.515" y2="27.031"/>
	<line style="fill:none;stroke:#000000;stroke-miterlimit:1;" x1="486.515" y1="27.031" x2="484.21" y2="29.664"/>
	<line style="fill:none;stroke:#000000;stroke-miterlimit:1;" x1="484.21" y1="29.664" x2="478.944" y2="29.664"/>
	<line style="fill:none;stroke:#000000;stroke-miterlimit:1;" x1="478.944" y1="29.664" x2="476.311" y2="27.031"/>
	<line style="fill:none;stroke:#000000;stroke-miterlimit:1;" x1="476.311" y1="27.031" x2="476.311" y2="20.448"/>
	<line style="fill:none;stroke:#000000;stroke-miterlimit:1;" x1="475.734" y1="147.25" x2="398.058" y2="147.25"/>
	<line style="fill:none;stroke:#000000;stroke-miterlimit:1;" x1="398.058" y1="147.25" x2="399.045" y2="140.668"/>
	<line style="fill:none;stroke:#000000;stroke-miterlimit:1;" x1="399.045" y1="140.668" x2="400.032" y2="136.389"/>
	<line style="fill:none;stroke:#000000;stroke-miterlimit:1;" x1="400.032" y1="136.389" x2="401.678" y2="132.109"/>
	<line style="fill:none;stroke:#000000;stroke-miterlimit:1;" x1="401.678" y1="132.109" x2="403.981" y2="128.818"/>
	<line style="fill:none;stroke:#000000;stroke-miterlimit:1;" x1="403.981" y1="128.818" x2="405.956" y2="125.856"/>
	<line style="fill:none;stroke:#000000;stroke-miterlimit:1;" x1="405.956" y1="125.856" x2="408.59" y2="122.235"/>
	<line style="fill:none;stroke:#000000;stroke-miterlimit:1;" x1="408.59" y1="122.235" x2="411.552" y2="119.603"/>
	<line style="fill:none;stroke:#000000;stroke-miterlimit:1;" x1="411.552" y1="119.603" x2="415.173" y2="116.97"/>
	<line style="fill:none;stroke:#000000;stroke-miterlimit:1;" x1="415.173" y1="116.97" x2="418.135" y2="114.994"/>
	<line style="fill:none;stroke:#000000;stroke-miterlimit:1;" x1="418.135" y1="114.994" x2="422.414" y2="113.02"/>
	<line style="fill:none;stroke:#000000;stroke-miterlimit:1;" x1="422.414" y1="113.02" x2="426.692" y2="111.703"/>
	<line style="fill:none;stroke:#000000;stroke-miterlimit:1;" x1="426.692" y1="111.703" x2="429.655" y2="111.045"/>
	<line style="fill:none;stroke:#000000;stroke-miterlimit:1;" x1="429.655" y1="111.045" x2="434.921" y2="110.387"/>
	<line style="fill:none;stroke:#000000;stroke-miterlimit:1;" x1="434.921" y1="110.387" x2="438.871" y2="110.387"/>
	<line style="fill:none;stroke:#000000;stroke-miterlimit:1;" x1="438.871" y1="110.387" x2="442.491" y2="111.045"/>
	<line style="fill:none;stroke:#000000;stroke-miterlimit:1;" x1="442.491" y1="111.045" x2="446.441" y2="111.703"/>
	<line style="fill:none;stroke:#000000;stroke-miterlimit:1;" x1="446.441" y1="111.703" x2="450.72" y2="112.69"/>
	<line style="fill:none;stroke:#000000;stroke-miterlimit:1;" x1="450.72" y1="112.69" x2="453.683" y2="113.678"/>
	<line style="fill:none;stroke:#000000;stroke-miterlimit:1;" x1="453.683" y1="113.678" x2="457.632" y2="116.311"/>
	<line style="fill:none;stroke:#000000;stroke-miterlimit:1;" x1="457.632" y1="116.311" x2="460.924" y2="118.615"/>
	<line style="fill:none;stroke:#000000;stroke-miterlimit:1;" x1="460.924" y1="118.615" x2="463.886" y2="120.919"/>
	<line style="fill:none;stroke:#000000;stroke-miterlimit:1;" x1="463.886" y1="120.919" x2="466.519" y2="124.21"/>
	<line style="fill:none;stroke:#000000;stroke-miterlimit:1;" x1="466.519" y1="124.21" x2="469.152" y2="127.831"/>
	<line style="fill:none;stroke:#000000;stroke-miterlimit:1;" x1="469.152" y1="127.831" x2="471.456" y2="131.451"/>
	<line style="fill:none;stroke:#000000;stroke-miterlimit:1;" x1="471.456" y1="131.451" x2="473.102" y2="134.743"/>
	<line style="fill:none;stroke:#000000;stroke-miterlimit:1;" x1="473.102" y1="134.743" x2="474.418" y2="139.68"/>
	<line style="fill:none;stroke:#000000;stroke-miterlimit:1;" x1="474.418" y1="139.68" x2="475.405" y2="143.301"/>
	<line style="fill:none;stroke:#000000;stroke-miterlimit:1;" x1="475.405" y1="143.301" x2="475.734" y2="147.25"/>
	<line style="fill:none;stroke:#000000;stroke-miterlimit:1;" x1="551.595" y1="108.18" x2="551.107" y2="107.206"/>
	<line style="fill:none;stroke:#000000;stroke-miterlimit:1;" x1="551.107" y1="107.206" x2="550.134" y2="105.501"/>
	<line style="fill:none;stroke:#000000;stroke-miterlimit:1;" x1="550.134" y1="105.501" x2="549.647" y2="104.527"/>
	<line style="fill:none;stroke:#000000;stroke-miterlimit:1;" x1="549.647" y1="104.527" x2="548.674" y2="103.067"/>
	<line style="fill:none;stroke:#000000;stroke-miterlimit:1;" x1="548.674" y1="103.067" x2="547.943" y2="101.85"/>
	<line style="fill:none;stroke:#000000;stroke-miterlimit:1;" x1="547.943" y1="101.85" x2="546.482" y2="100.39"/>
	<line style="fill:none;stroke:#000000;stroke-miterlimit:1;" x1="546.482" y1="100.39" x2="545.995" y2="99.415"/>
	<line style="fill:none;stroke:#000000;stroke-miterlimit:1;" x1="545.995" y1="99.415" x2="544.535" y2="98.198"/>
	<line style="fill:none;stroke:#000000;stroke-miterlimit:1;" x1="544.535" y1="98.198" x2="543.317" y2="97.225"/>
	<line style="fill:none;stroke:#000000;stroke-miterlimit:1;" x1="543.317" y1="97.225" x2="541.857" y2="96.007"/>
	<line style="fill:none;stroke:#000000;stroke-miterlimit:1;" x1="541.857" y1="96.007" x2="540.883" y2="95.277"/>
	<line style="fill:none;stroke:#000000;stroke-miterlimit:1;" x1="540.883" y1="95.277" x2="539.423" y2="94.06"/>
	<line style="fill:none;stroke:#000000;stroke-miterlimit:1;" x1="539.423" y1="94.06" x2="538.205" y2="93.329"/>
	<line style="fill:none;stroke:#000000;stroke-miterlimit:1;" x1="538.205" y1="93.329" x2="536.501" y2="92.599"/>
	<line style="fill:none;stroke:#000000;stroke-miterlimit:1;" x1="536.501" y1="92.599" x2="535.527" y2="91.869"/>
	<line style="fill:none;stroke:#000000;stroke-miterlimit:1;" x1="535.527" y1="91.869" x2="533.823" y2="91.382"/>
	<line style="fill:none;stroke:#000000;stroke-miterlimit:1;" x1="533.823" y1="91.382" x2="532.362" y2="90.895"/>
	<line style="fill:none;stroke:#000000;stroke-miterlimit:1;" x1="532.362" y1="90.895" x2="530.415" y2="90.408"/>
	<line style="fill:none;stroke:#000000;stroke-miterlimit:1;" x1="530.415" y1="90.408" x2="529.441" y2="89.921"/>
	<line style="fill:none;stroke:#000000;stroke-miterlimit:1;" x1="529.441" y1="89.921" x2="527.494" y2="89.678"/>
	<line style="fill:none;stroke:#000000;stroke-miterlimit:1;" x1="527.494" y1="89.678" x2="526.033" y2="89.435"/>
	<line style="fill:none;stroke:#000000;stroke-miterlimit:1;" x1="526.033" y1="89.435" x2="524.329" y2="89.435"/>
	<line style="fill:none;stroke:#000000;stroke-miterlimit:1;" x1="524.329" y1="89.435" x2="522.868" y2="89.435"/>
	<line style="fill:none;stroke:#000000;stroke-miterlimit:1;" x1="522.868" y1="89.435" x2="521.408" y2="89.678"/>
	<line style="fill:none;stroke:#000000;stroke-miterlimit:1;" x1="521.408" y1="89.678" x2="520.19" y2="89.921"/>
	<line style="fill:none;stroke:#000000;stroke-miterlimit:1;" x1="520.19" y1="89.921" x2="518.729" y2="90.165"/>
	<line style="fill:none;stroke:#000000;stroke-miterlimit:1;" x1="518.729" y1="90.165" x2="517.513" y2="90.408"/>
	<line style="fill:none;stroke:#000000;stroke-miterlimit:1;" x1="517.513" y1="90.408" x2="516.052" y2="90.651"/>
	<line style="fill:none;stroke:#000000;stroke-miterlimit:1;" x1="516.052" y1="90.651" x2="514.835" y2="91.139"/>
	<line style="fill:none;stroke:#000000;stroke-miterlimit:1;" x1="514.835" y1="91.139" x2="512.644" y2="91.625"/>
	<line style="fill:none;stroke:#000000;stroke-miterlimit:1;" x1="512.644" y1="91.625" x2="511.427" y2="92.355"/>
	<line style="fill:none;stroke:#000000;stroke-miterlimit:1;" x1="511.427" y1="92.355" x2="509.723" y2="92.843"/>
	<line style="fill:none;stroke:#000000;stroke-miterlimit:1;" x1="509.723" y1="92.843" x2="508.506" y2="93.573"/>
	<line style="fill:none;stroke:#000000;stroke-miterlimit:1;" x1="508.506" y1="93.573" x2="507.045" y2="94.547"/>
	<line style="fill:none;stroke:#000000;stroke-miterlimit:1;" x1="507.045" y1="94.547" x2="505.827" y2="95.521"/>
	<line style="fill:none;stroke:#000000;stroke-miterlimit:1;" x1="505.827" y1="95.521" x2="504.61" y2="96.251"/>
	<line style="fill:none;stroke:#000000;stroke-miterlimit:1;" x1="504.61" y1="96.251" x2="503.394" y2="97.225"/>
	<line style="fill:none;stroke:#000000;stroke-miterlimit:1;" x1="503.394" y1="97.225" x2="501.933" y2="98.686"/>
	<line style="fill:none;stroke:#000000;stroke-miterlimit:1;" x1="501.933" y1="98.686" x2="500.715" y2="99.659"/>
	<line style="fill:none;stroke:#000000;stroke-miterlimit:1;" x1="500.715" y1="99.659" x2="499.985" y2="100.876"/>
	<line style="fill:none;stroke:#000000;stroke-miterlimit:1;" x1="499.985" y1="100.876" x2="499.255" y2="101.85"/>
	<line style="fill:none;stroke:#000000;stroke-miterlimit:1;" x1="499.255" y1="101.85" x2="498.037" y2="103.554"/>
	<line style="fill:none;stroke:#000000;stroke-miterlimit:1;" x1="498.037" y1="103.554" x2="497.551" y2="104.527"/>
	<line style="fill:none;stroke:#000000;stroke-miterlimit:1;" x1="497.551" y1="104.527" x2="496.333" y2="105.988"/>
	<line style="fill:none;stroke:#000000;stroke-miterlimit:1;" x1="496.333" y1="105.988" x2="495.603" y2="107.449"/>
	<line style="fill:none;stroke:#000000;stroke-miterlimit:1;" x1="495.603" y1="107.449" x2="495.116" y2="108.909"/>
	<line style="fill:none;stroke:#000000;stroke-miterlimit:1;" x1="495.116" y1="108.909" x2="494.873" y2="110.127"/>
	<line style="fill:none;stroke:#000000;stroke-miterlimit:1;" x1="494.873" y1="110.127" x2="494.143" y2="111.831"/>
	<line style="fill:none;stroke:#000000;stroke-miterlimit:1;" x1="494.143" y1="111.831" x2="493.655" y2="113.292"/>
	<line style="fill:none;stroke:#000000;stroke-miterlimit:1;" x1="493.655" y1="113.292" x2="493.412" y2="115.239"/>
	<line style="fill:none;stroke:#000000;stroke-miterlimit:1;" x1="493.412" y1="115.239" x2="493.412" y2="116.7"/>
	<line style="fill:none;stroke:#000000;stroke-miterlimit:1;" x1="493.412" y1="116.7" x2="493.169" y2="119.134"/>
	<line style="fill:none;stroke:#000000;stroke-miterlimit:1;" x1="493.169" y1="119.134" x2="493.169" y2="120.595"/>
	<line style="fill:none;stroke:#000000;stroke-miterlimit:1;" x1="493.169" y1="120.595" x2="493.169" y2="123.029"/>
	<line style="fill:none;stroke:#000000;stroke-miterlimit:1;" x1="493.169" y1="123.029" x2="493.412" y2="124.49"/>
	<line style="fill:none;stroke:#000000;stroke-miterlimit:1;" x1="493.412" y1="124.49" x2="493.898" y2="126.194"/>
	<line style="fill:none;stroke:#000000;stroke-miterlimit:1;" x1="493.898" y1="126.194" x2="494.143" y2="127.654"/>
	<line style="fill:none;stroke:#000000;stroke-miterlimit:1;" x1="494.143" y1="127.654" x2="494.629" y2="129.358"/>
	<line style="fill:none;stroke:#000000;stroke-miterlimit:1;" x1="494.629" y1="129.358" x2="495.116" y2="130.576"/>
	<line style="fill:none;stroke:#000000;stroke-miterlimit:1;" x1="495.116" y1="130.576" x2="496.09" y2="132.523"/>
	<line style="fill:none;stroke:#000000;stroke-miterlimit:1;" x1="496.09" y1="132.523" x2="496.577" y2="133.984"/>
	<line style="fill:none;stroke:#000000;stroke-miterlimit:1;" x1="496.577" y1="133.984" x2="497.794" y2="135.445"/>
	<line style="fill:none;stroke:#000000;stroke-miterlimit:1;" x1="497.794" y1="135.445" x2="498.281" y2="136.419"/>
	<line style="fill:none;stroke:#000000;stroke-miterlimit:1;" x1="498.281" y1="136.419" x2="499.255" y2="137.879"/>
	<line style="fill:none;stroke:#000000;stroke-miterlimit:1;" x1="499.255" y1="137.879" x2="500.229" y2="138.854"/>
	<line style="fill:none;stroke:#000000;stroke-miterlimit:1;" x1="500.229" y1="138.854" x2="501.445" y2="140.313"/>
	<line style="fill:none;stroke:#000000;stroke-miterlimit:1;" x1="501.445" y1="140.313" x2="502.419" y2="141.287"/>
	<line style="fill:none;stroke:#000000;stroke-miterlimit:1;" x1="502.419" y1="141.287" x2="503.637" y2="142.505"/>
	<line style="fill:none;stroke:#000000;stroke-miterlimit:1;" x1="503.637" y1="142.505" x2="505.098" y2="143.479"/>
	<line style="fill:none;stroke:#000000;stroke-miterlimit:1;" x1="505.098" y1="143.479" x2="506.802" y2="144.695"/>
	<line style="fill:none;stroke:#000000;stroke-miterlimit:1;" x1="506.802" y1="144.695" x2="507.531" y2="145.183"/>
	<line style="fill:none;stroke:#000000;stroke-miterlimit:1;" x1="507.531" y1="145.183" x2="508.749" y2="146.156"/>
	<line style="fill:none;stroke:#000000;stroke-miterlimit:1;" x1="508.749" y1="146.156" x2="510.21" y2="146.644"/>
	<line style="fill:none;stroke:#000000;stroke-miterlimit:1;" x1="510.21" y1="146.644" x2="512.157" y2="147.374"/>
	<line style="fill:none;stroke:#000000;stroke-miterlimit:1;" x1="512.157" y1="147.374" x2="513.618" y2="147.86"/>
	<line style="fill:none;stroke:#000000;stroke-miterlimit:1;" x1="513.618" y1="147.86" x2="515.321" y2="148.591"/>
	<line style="fill:none;stroke:#000000;stroke-miterlimit:1;" x1="515.321" y1="148.591" x2="516.296" y2="148.834"/>
	<line style="fill:none;stroke:#000000;stroke-miterlimit:1;" x1="516.296" y1="148.834" x2="518" y2="149.321"/>
	<line style="fill:none;stroke:#000000;stroke-miterlimit:1;" x1="518" y1="149.321" x2="519.46" y2="149.321"/>
	<line style="fill:none;stroke:#000000;stroke-miterlimit:1;" x1="519.46" y1="149.321" x2="521.408" y2="149.564"/>
	<line style="fill:none;stroke:#000000;stroke-miterlimit:1;" x1="521.408" y1="149.564" x2="522.382" y2="149.564"/>
	<line style="fill:none;stroke:#000000;stroke-miterlimit:1;" x1="522.382" y1="149.564" x2="524.572" y2="149.808"/>
	<line style="fill:none;stroke:#000000;stroke-miterlimit:1;" x1="524.572" y1="149.808" x2="526.033" y2="149.564"/>
	<line style="fill:none;stroke:#000000;stroke-miterlimit:1;" x1="526.033" y1="149.564" x2="528.225" y2="149.321"/>
	<line style="fill:none;stroke:#000000;stroke-miterlimit:1;" x1="528.225" y1="149.321" x2="529.198" y2="149.078"/>
	<line style="fill:none;stroke:#000000;stroke-miterlimit:1;" x1="529.198" y1="149.078" x2="531.389" y2="148.834"/>
	<line style="fill:none;stroke:#000000;stroke-miterlimit:1;" x1="531.389" y1="148.834" x2="532.606" y2="148.348"/>
	<line style="fill:none;stroke:#000000;stroke-miterlimit:1;" x1="532.606" y1="148.348" x2="534.554" y2="147.86"/>
	<line style="fill:none;stroke:#000000;stroke-miterlimit:1;" x1="534.554" y1="147.86" x2="535.771" y2="147.374"/>
	<line style="fill:none;stroke:#000000;stroke-miterlimit:1;" x1="535.771" y1="147.374" x2="536.988" y2="146.399"/>
	<line style="fill:none;stroke:#000000;stroke-miterlimit:1;" x1="536.988" y1="146.399" x2="538.449" y2="145.913"/>
	<line style="fill:none;stroke:#000000;stroke-miterlimit:1;" x1="538.449" y1="145.913" x2="539.909" y2="144.939"/>
	<line style="fill:none;stroke:#000000;stroke-miterlimit:1;" x1="539.909" y1="144.939" x2="541.127" y2="143.966"/>
	<line style="fill:none;stroke:#000000;stroke-miterlimit:1;" x1="541.127" y1="143.966" x2="542.344" y2="143.235"/>
	<line style="fill:none;stroke:#000000;stroke-miterlimit:1;" x1="542.344" y1="143.235" x2="543.562" y2="142.262"/>
	<line style="fill:none;stroke:#000000;stroke-miterlimit:1;" x1="543.562" y1="142.262" x2="544.778" y2="141.044"/>
	<line style="fill:none;stroke:#000000;stroke-miterlimit:1;" x1="544.778" y1="141.044" x2="545.752" y2="139.827"/>
	<line style="fill:none;stroke:#000000;stroke-miterlimit:1;" x1="545.752" y1="139.827" x2="546.97" y2="138.854"/>
	<line style="fill:none;stroke:#000000;stroke-miterlimit:1;" x1="546.97" y1="138.854" x2="547.699" y2="137.636"/>
	<line style="fill:none;stroke:#000000;stroke-miterlimit:1;" x1="547.699" y1="137.636" x2="548.917" y2="135.688"/>
	<line style="fill:none;stroke:#000000;stroke-miterlimit:1;" x1="548.917" y1="135.688" x2="549.647" y2="134.958"/>
	<line style="fill:none;stroke:#000000;stroke-miterlimit:1;" x1="549.647" y1="134.958" x2="550.621" y2="133.254"/>
	<line style="fill:none;stroke:#000000;stroke-miterlimit:1;" x1="550.621" y1="133.254" x2="551.107" y2="132.037"/>
	<line style="fill:none;stroke:#000000;stroke-miterlimit:1;" x1="551.107" y1="132.037" x2="551.838" y2="130.576"/>
	<line style="fill:none;stroke:#000000;stroke-miterlimit:1;" x1="551.838" y1="130.576" x2="552.325" y2="129.115"/>
	<line style="fill:none;stroke:#000000;stroke-miterlimit:1;" x1="552.325" y1="129.115" x2="552.812" y2="127.411"/>
	<line style="fill:none;stroke:#000000;stroke-miterlimit:1;" x1="552.812" y1="127.411" x2="553.299" y2="125.95"/>
	<line style="fill:none;stroke:#000000;stroke-miterlimit:1;" x1="553.299" y1="125.95" x2="553.542" y2="124.003"/>
	<line style="fill:none;stroke:#000000;stroke-miterlimit:1;" x1="553.542" y1="124.003" x2="553.786" y2="122.786"/>
	<line style="fill:none;stroke:#000000;stroke-miterlimit:1;" x1="553.786" y1="122.786" x2="554.029" y2="121.082"/>
	<line style="fill:none;stroke:#000000;stroke-miterlimit:1;" x1="554.029" y1="121.082" x2="554.029" y2="119.378"/>
	<line style="fill:none;stroke:#000000;stroke-miterlimit:1;" x1="554.029" y1="119.378" x2="554.029" y2="117.674"/>
	<line style="fill:none;stroke:#000000;stroke-miterlimit:1;" x1="554.029" y1="117.674" x2="553.786" y2="115.97"/>
	<line style="fill:none;stroke:#000000;stroke-miterlimit:1;" x1="553.786" y1="115.97" x2="553.542" y2="114.509"/>
	<line style="fill:none;stroke:#000000;stroke-miterlimit:1;" x1="553.542" y1="114.509" x2="553.056" y2="112.805"/>
	<line style="fill:none;stroke:#000000;stroke-miterlimit:1;" x1="553.056" y1="112.805" x2="552.568" y2="111.344"/>
	<line style="fill:none;stroke:#000000;stroke-miterlimit:1;" x1="552.568" y1="111.344" x2="552.081" y2="109.884"/>
	<line style="fill:none;stroke:#000000;stroke-miterlimit:1;" x1="552.081" y1="109.884" x2="551.595" y2="108.423"/>
</g>
</svg>
