<?xml version="1.0" encoding="iso-8859-1"?>
<!-- Generator: Adobe Illustrator 16.0.1, SVG Export Plug-In . SVG Version: 6.00 Build 0)  -->
<!DOCTYPE svg PUBLIC "-//W3C//DTD SVG 1.1//EN" "http://www.w3.org/Graphics/SVG/1.1/DTD/svg11.dtd">
<svg version="1.1" id="Ebene_1" xmlns="http://www.w3.org/2000/svg" xmlns:xlink="http://www.w3.org/1999/xlink" x="0px" y="0px"
	 width="251.137px" height="150.172px" viewBox="0 0 251.137 150.172" style="enable-background:new 0 0 251.137 150.172;"
	 xml:space="preserve">
<g>
	<line style="fill:none;stroke:#000000;stroke-miterlimit:1;" x1="40.485" y1="59.246" x2="40.485" y2="148.114"/>
	<line style="fill:none;stroke:#000000;stroke-miterlimit:1;" x1="40.485" y1="148.114" x2="33.573" y2="148.114"/>
	<line style="fill:none;stroke:#000000;stroke-miterlimit:1;" x1="33.573" y1="148.114" x2="33.573" y2="59.246"/>
	<line style="fill:none;stroke:#000000;stroke-miterlimit:1;" x1="74.057" y1="59.246" x2="0" y2="59.246"/>
	<line style="fill:none;stroke:#000000;stroke-miterlimit:1;" x1="0" y1="59.246" x2="0" y2="35.877"/>
	<line style="fill:none;stroke:#000000;stroke-miterlimit:1;" x1="0" y1="35.877" x2="1.317" y2="33.244"/>
	<line style="fill:none;stroke:#000000;stroke-miterlimit:1;" x1="1.317" y1="33.244" x2="2.633" y2="31.598"/>
	<line style="fill:none;stroke:#000000;stroke-miterlimit:1;" x1="2.633" y1="31.598" x2="4.279" y2="31.598"/>
	<line style="fill:none;stroke:#000000;stroke-miterlimit:1;" x1="4.279" y1="31.598" x2="5.925" y2="31.598"/>
	<line style="fill:none;stroke:#000000;stroke-miterlimit:1;" x1="5.925" y1="31.598" x2="7.899" y2="31.927"/>
	<line style="fill:none;stroke:#000000;stroke-miterlimit:1;" x1="7.899" y1="31.927" x2="9.875" y2="33.244"/>
	<line style="fill:none;stroke:#000000;stroke-miterlimit:1;" x1="9.875" y1="33.244" x2="16.458" y2="39.168"/>
	<line style="fill:none;stroke:#000000;stroke-miterlimit:1;" x1="16.458" y1="39.168" x2="22.382" y2="44.435"/>
	<line style="fill:none;stroke:#000000;stroke-miterlimit:1;" x1="22.382" y1="44.435" x2="26.99" y2="46.738"/>
	<line style="fill:none;stroke:#000000;stroke-miterlimit:1;" x1="26.99" y1="46.738" x2="32.585" y2="48.055"/>
	<line style="fill:none;stroke:#000000;stroke-miterlimit:1;" x1="32.585" y1="48.055" x2="37.193" y2="48.384"/>
	<line style="fill:none;stroke:#000000;stroke-miterlimit:1;" x1="37.193" y1="48.384" x2="41.472" y2="48.055"/>
	<line style="fill:none;stroke:#000000;stroke-miterlimit:1;" x1="41.472" y1="48.055" x2="47.067" y2="46.738"/>
	<line style="fill:none;stroke:#000000;stroke-miterlimit:1;" x1="47.067" y1="46.738" x2="51.676" y2="44.435"/>
	<line style="fill:none;stroke:#000000;stroke-miterlimit:1;" x1="51.676" y1="44.435" x2="57.6" y2="39.168"/>
	<line style="fill:none;stroke:#000000;stroke-miterlimit:1;" x1="57.6" y1="39.168" x2="64.183" y2="33.244"/>
	<line style="fill:none;stroke:#000000;stroke-miterlimit:1;" x1="64.183" y1="33.244" x2="66.158" y2="31.927"/>
	<line style="fill:none;stroke:#000000;stroke-miterlimit:1;" x1="66.158" y1="31.927" x2="68.133" y2="31.598"/>
	<line style="fill:none;stroke:#000000;stroke-miterlimit:1;" x1="68.133" y1="31.598" x2="69.778" y2="31.598"/>
	<line style="fill:none;stroke:#000000;stroke-miterlimit:1;" x1="69.778" y1="31.598" x2="71.424" y2="31.598"/>
	<line style="fill:none;stroke:#000000;stroke-miterlimit:1;" x1="71.424" y1="31.598" x2="72.741" y2="33.244"/>
	<line style="fill:none;stroke:#000000;stroke-miterlimit:1;" x1="72.741" y1="33.244" x2="74.057" y2="35.877"/>
	<line style="fill:none;stroke:#000000;stroke-miterlimit:1;" x1="74.057" y1="35.877" x2="74.057" y2="59.246"/>
	<line style="fill:none;stroke:#000000;stroke-miterlimit:1;" x1="23.369" y1="44.435" x2="29.294" y2="5.596"/>
	<line style="fill:none;stroke:#000000;stroke-miterlimit:1;" x1="29.294" y1="5.596" x2="31.927" y2="2.304"/>
	<line style="fill:none;stroke:#000000;stroke-miterlimit:1;" x1="31.927" y1="2.304" x2="33.902" y2="0.988"/>
	<line style="fill:none;stroke:#000000;stroke-miterlimit:1;" x1="33.902" y1="0.988" x2="36.535" y2="0"/>
	<line style="fill:none;stroke:#000000;stroke-miterlimit:1;" x1="36.535" y1="0" x2="37.522" y2="0"/>
	<line style="fill:none;stroke:#000000;stroke-miterlimit:1;" x1="37.522" y1="0" x2="40.156" y2="0.988"/>
	<line style="fill:none;stroke:#000000;stroke-miterlimit:1;" x1="40.156" y1="0.988" x2="42.13" y2="2.304"/>
	<line style="fill:none;stroke:#000000;stroke-miterlimit:1;" x1="42.13" y1="2.304" x2="44.764" y2="5.596"/>
	<line style="fill:none;stroke:#000000;stroke-miterlimit:1;" x1="44.764" y1="5.596" x2="50.688" y2="44.435"/>
	<line style="fill:none;stroke:#000000;stroke-miterlimit:1;" x1="55.955" y1="37.852" x2="53.321" y2="37.522"/>
	<line style="fill:none;stroke:#000000;stroke-miterlimit:1;" x1="53.321" y1="37.522" x2="51.676" y2="36.206"/>
	<line style="fill:none;stroke:#000000;stroke-miterlimit:1;" x1="51.676" y1="36.206" x2="50.688" y2="34.56"/>
	<line style="fill:none;stroke:#000000;stroke-miterlimit:1;" x1="50.688" y1="34.56" x2="50.03" y2="32.915"/>
	<line style="fill:none;stroke:#000000;stroke-miterlimit:1;" x1="50.03" y1="32.915" x2="50.359" y2="29.952"/>
	<line style="fill:none;stroke:#000000;stroke-miterlimit:1;" x1="50.359" y1="29.952" x2="51.676" y2="27.978"/>
	<line style="fill:none;stroke:#000000;stroke-miterlimit:1;" x1="51.676" y1="27.978" x2="53.321" y2="26.99"/>
	<line style="fill:none;stroke:#000000;stroke-miterlimit:1;" x1="53.321" y1="26.99" x2="55.955" y2="26.332"/>
	<line style="fill:none;stroke:#000000;stroke-miterlimit:1;" x1="55.955" y1="26.332" x2="58.587" y2="26.661"/>
	<line style="fill:none;stroke:#000000;stroke-miterlimit:1;" x1="58.587" y1="26.661" x2="60.562" y2="27.978"/>
	<line style="fill:none;stroke:#000000;stroke-miterlimit:1;" x1="60.562" y1="27.978" x2="61.879" y2="29.952"/>
	<line style="fill:none;stroke:#000000;stroke-miterlimit:1;" x1="61.879" y1="29.952" x2="61.879" y2="31.927"/>
	<line style="fill:none;stroke:#000000;stroke-miterlimit:1;" x1="61.879" y1="31.927" x2="61.879" y2="34.231"/>
	<line style="fill:none;stroke:#000000;stroke-miterlimit:1;" x1="61.879" y1="34.231" x2="60.562" y2="35.877"/>
	<line style="fill:none;stroke:#000000;stroke-miterlimit:1;" x1="60.562" y1="35.877" x2="58.587" y2="37.522"/>
	<line style="fill:none;stroke:#000000;stroke-miterlimit:1;" x1="58.587" y1="37.522" x2="55.955" y2="37.852"/>
	<line style="fill:none;stroke:#000000;stroke-miterlimit:1;" x1="19.419" y1="37.522" x2="16.458" y2="37.522"/>
	<line style="fill:none;stroke:#000000;stroke-miterlimit:1;" x1="16.458" y1="37.522" x2="13.495" y2="35.877"/>
	<line style="fill:none;stroke:#000000;stroke-miterlimit:1;" x1="13.495" y1="35.877" x2="12.507" y2="33.902"/>
	<line style="fill:none;stroke:#000000;stroke-miterlimit:1;" x1="12.507" y1="33.902" x2="12.178" y2="32.256"/>
	<line style="fill:none;stroke:#000000;stroke-miterlimit:1;" x1="12.178" y1="32.256" x2="12.837" y2="29.294"/>
	<line style="fill:none;stroke:#000000;stroke-miterlimit:1;" x1="12.837" y1="29.294" x2="15.141" y2="26.99"/>
	<line style="fill:none;stroke:#000000;stroke-miterlimit:1;" x1="15.141" y1="26.99" x2="16.458" y2="26.332"/>
	<line style="fill:none;stroke:#000000;stroke-miterlimit:1;" x1="16.458" y1="26.332" x2="18.761" y2="26.332"/>
	<line style="fill:none;stroke:#000000;stroke-miterlimit:1;" x1="18.761" y1="26.332" x2="21.065" y2="26.661"/>
	<line style="fill:none;stroke:#000000;stroke-miterlimit:1;" x1="21.065" y1="26.661" x2="23.04" y2="27.978"/>
	<line style="fill:none;stroke:#000000;stroke-miterlimit:1;" x1="23.04" y1="27.978" x2="24.028" y2="30.281"/>
	<line style="fill:none;stroke:#000000;stroke-miterlimit:1;" x1="24.028" y1="30.281" x2="24.028" y2="32.256"/>
	<line style="fill:none;stroke:#000000;stroke-miterlimit:1;" x1="24.028" y1="32.256" x2="23.369" y2="34.889"/>
	<line style="fill:none;stroke:#000000;stroke-miterlimit:1;" x1="23.369" y1="34.889" x2="22.382" y2="36.535"/>
	<line style="fill:none;stroke:#000000;stroke-miterlimit:1;" x1="22.382" y1="36.535" x2="20.736" y2="37.193"/>
	<line style="fill:none;stroke:#000000;stroke-miterlimit:1;" x1="20.736" y1="37.193" x2="19.419" y2="37.522"/>
	<line style="fill:none;stroke:#000000;stroke-miterlimit:1;" x1="42.789" y1="59.575" x2="52.334" y2="88.54"/>
	<line style="fill:none;stroke:#000000;stroke-miterlimit:1;" x1="52.334" y1="88.54" x2="52.992" y2="91.502"/>
	<line style="fill:none;stroke:#000000;stroke-miterlimit:1;" x1="52.992" y1="91.502" x2="52.992" y2="95.451"/>
	<line style="fill:none;stroke:#000000;stroke-miterlimit:1;" x1="52.992" y1="95.451" x2="51.676" y2="98.414"/>
	<line style="fill:none;stroke:#000000;stroke-miterlimit:1;" x1="51.676" y1="98.414" x2="49.701" y2="100.389"/>
	<line style="fill:none;stroke:#000000;stroke-miterlimit:1;" x1="49.701" y1="100.389" x2="47.726" y2="101.705"/>
	<line style="fill:none;stroke:#000000;stroke-miterlimit:1;" x1="47.726" y1="101.705" x2="40.485" y2="102.692"/>
	<line style="fill:none;stroke:#000000;stroke-miterlimit:1;" x1="33.573" y1="102.692" x2="26.661" y2="101.705"/>
	<line style="fill:none;stroke:#000000;stroke-miterlimit:1;" x1="26.661" y1="101.705" x2="23.369" y2="99.401"/>
	<line style="fill:none;stroke:#000000;stroke-miterlimit:1;" x1="23.369" y1="99.401" x2="21.395" y2="95.451"/>
	<line style="fill:none;stroke:#000000;stroke-miterlimit:1;" x1="21.395" y1="95.451" x2="21.395" y2="90.844"/>
	<line style="fill:none;stroke:#000000;stroke-miterlimit:1;" x1="21.395" y1="90.844" x2="31.598" y2="59.575"/>
	<line style="fill:none;stroke:#000000;stroke-miterlimit:1;" x1="251.137" y1="2.387" x2="249.49" y2="35.63"/>
	<line style="fill:none;stroke:#000000;stroke-miterlimit:1;" x1="249.49" y1="35.63" x2="248.832" y2="63.936"/>
	<line style="fill:none;stroke:#000000;stroke-miterlimit:1;" x1="248.832" y1="63.936" x2="248.174" y2="85.659"/>
	<line style="fill:none;stroke:#000000;stroke-miterlimit:1;" x1="248.174" y1="85.659" x2="246.527" y2="101.129"/>
	<line style="fill:none;stroke:#000000;stroke-miterlimit:1;" x1="246.527" y1="101.129" x2="245.211" y2="115.94"/>
	<line style="fill:none;stroke:#000000;stroke-miterlimit:1;" x1="245.211" y1="115.94" x2="245.869" y2="131.739"/>
	<line style="fill:none;stroke:#000000;stroke-miterlimit:1;" x1="245.869" y1="131.739" x2="246.857" y2="136.677"/>
	<line style="fill:none;stroke:#000000;stroke-miterlimit:1;" x1="246.857" y1="136.677" x2="247.516" y2="140.627"/>
	<line style="fill:none;stroke:#000000;stroke-miterlimit:1;" x1="247.516" y1="140.627" x2="247.186" y2="144.576"/>
	<line style="fill:none;stroke:#000000;stroke-miterlimit:1;" x1="247.186" y1="144.576" x2="245.211" y2="147.209"/>
	<line style="fill:none;stroke:#000000;stroke-miterlimit:1;" x1="245.211" y1="147.209" x2="242.25" y2="149.185"/>
	<line style="fill:none;stroke:#000000;stroke-miterlimit:1;" x1="242.25" y1="149.185" x2="238.629" y2="149.843"/>
	<line style="fill:none;stroke:#000000;stroke-miterlimit:1;" x1="238.629" y1="149.843" x2="232.045" y2="148.197"/>
	<line style="fill:none;stroke:#000000;stroke-miterlimit:1;" x1="232.045" y1="148.197" x2="229.412" y2="146.222"/>
	<line style="fill:none;stroke:#000000;stroke-miterlimit:1;" x1="229.412" y1="146.222" x2="225.135" y2="145.234"/>
	<line style="fill:none;stroke:#000000;stroke-miterlimit:1;" x1="225.135" y1="145.234" x2="215.26" y2="150.172"/>
	<line style="fill:none;stroke:#000000;stroke-miterlimit:1;" x1="215.26" y1="150.172" x2="174.445" y2="149.843"/>
	<line style="fill:none;stroke:#000000;stroke-miterlimit:1;" x1="174.445" y1="149.843" x2="172.801" y2="144.576"/>
	<line style="fill:none;stroke:#000000;stroke-miterlimit:1;" x1="172.801" y1="144.576" x2="174.117" y2="141.943"/>
	<line style="fill:none;stroke:#000000;stroke-miterlimit:1;" x1="174.117" y1="141.943" x2="177.736" y2="141.285"/>
	<line style="fill:none;stroke:#000000;stroke-miterlimit:1;" x1="177.736" y1="141.285" x2="191.891" y2="138.322"/>
	<line style="fill:none;stroke:#000000;stroke-miterlimit:1;" x1="191.891" y1="138.322" x2="203.74" y2="132.397"/>
	<line style="fill:none;stroke:#000000;stroke-miterlimit:1;" x1="203.74" y1="132.397" x2="211.639" y2="129.436"/>
	<line style="fill:none;stroke:#000000;stroke-miterlimit:1;" x1="211.639" y1="129.436" x2="218.551" y2="127.79"/>
	<line style="fill:none;stroke:#000000;stroke-miterlimit:1;" x1="218.551" y1="127.79" x2="223.488" y2="123.511"/>
	<line style="fill:none;stroke:#000000;stroke-miterlimit:1;" x1="223.488" y1="123.511" x2="225.135" y2="119.232"/>
	<line style="fill:none;stroke:#000000;stroke-miterlimit:1;" x1="225.135" y1="119.232" x2="225.463" y2="114.624"/>
	<line style="fill:none;stroke:#000000;stroke-miterlimit:1;" x1="225.463" y1="114.624" x2="224.805" y2="107.712"/>
	<line style="fill:none;stroke:#000000;stroke-miterlimit:1;" x1="224.805" y1="107.712" x2="224.475" y2="98.496"/>
	<line style="fill:none;stroke:#000000;stroke-miterlimit:1;" x1="224.475" y1="98.496" x2="223.816" y2="73.481"/>
	<line style="fill:none;stroke:#000000;stroke-miterlimit:1;" x1="223.816" y1="73.481" x2="223.488" y2="48.466"/>
	<line style="fill:none;stroke:#000000;stroke-miterlimit:1;" x1="223.488" y1="48.466" x2="220.855" y2="2.058"/>
	<line style="fill:none;stroke:#000000;stroke-miterlimit:1;" x1="220.855" y1="2.058" x2="251.137" y2="2.058"/>
	<line style="fill:none;stroke:#000000;stroke-miterlimit:1;" x1="116.214" y1="14.247" x2="112.438" y2="16.135"/>
	<line style="fill:none;stroke:#000000;stroke-miterlimit:1;" x1="112.438" y1="16.135" x2="109.605" y2="19.597"/>
	<line style="fill:none;stroke:#000000;stroke-miterlimit:1;" x1="109.605" y1="19.597" x2="108.661" y2="22.43"/>
	<line style="fill:none;stroke:#000000;stroke-miterlimit:1;" x1="108.661" y1="22.43" x2="108.031" y2="25.262"/>
	<line style="fill:none;stroke:#000000;stroke-miterlimit:1;" x1="108.031" y1="25.262" x2="108.976" y2="29.668"/>
	<line style="fill:none;stroke:#000000;stroke-miterlimit:1;" x1="108.976" y1="29.668" x2="111.178" y2="32.5"/>
	<line style="fill:none;stroke:#000000;stroke-miterlimit:1;" x1="111.178" y1="32.5" x2="113.381" y2="34.389"/>
	<line style="fill:none;stroke:#000000;stroke-miterlimit:1;" x1="113.381" y1="34.389" x2="117.158" y2="35.648"/>
	<line style="fill:none;stroke:#000000;stroke-miterlimit:1;" x1="117.158" y1="35.648" x2="119.991" y2="36.592"/>
	<line style="fill:none;stroke:#000000;stroke-miterlimit:1;" x1="119.991" y1="36.592" x2="123.453" y2="36.592"/>
	<line style="fill:none;stroke:#000000;stroke-miterlimit:1;" x1="123.453" y1="36.592" x2="127.229" y2="35.019"/>
	<line style="fill:none;stroke:#000000;stroke-miterlimit:1;" x1="127.229" y1="35.019" x2="130.377" y2="33.445"/>
	<line style="fill:none;stroke:#000000;stroke-miterlimit:1;" x1="130.377" y1="33.445" x2="132.264" y2="31.242"/>
	<line style="fill:none;stroke:#000000;stroke-miterlimit:1;" x1="132.264" y1="31.242" x2="134.467" y2="28.095"/>
	<line style="fill:none;stroke:#000000;stroke-miterlimit:1;" x1="134.467" y1="28.095" x2="136.041" y2="24.318"/>
	<line style="fill:none;stroke:#000000;stroke-miterlimit:1;" x1="136.041" y1="24.318" x2="136.986" y2="21.171"/>
	<line style="fill:none;stroke:#000000;stroke-miterlimit:1;" x1="136.986" y1="21.171" x2="137.301" y2="18.023"/>
	<line style="fill:none;stroke:#000000;stroke-miterlimit:1;" x1="137.301" y1="18.023" x2="136.986" y2="15.82"/>
	<line style="fill:none;stroke:#000000;stroke-miterlimit:1;" x1="136.986" y1="15.82" x2="136.355" y2="12.044"/>
	<line style="fill:none;stroke:#000000;stroke-miterlimit:1;" x1="136.355" y1="12.044" x2="134.783" y2="8.896"/>
	<line style="fill:none;stroke:#000000;stroke-miterlimit:1;" x1="134.783" y1="8.896" x2="132.264" y2="5.75"/>
	<line style="fill:none;stroke:#000000;stroke-miterlimit:1;" x1="132.264" y1="5.75" x2="129.746" y2="3.546"/>
	<line style="fill:none;stroke:#000000;stroke-miterlimit:1;" x1="129.746" y1="3.546" x2="127.543" y2="2.603"/>
	<line style="fill:none;stroke:#000000;stroke-miterlimit:1;" x1="127.543" y1="2.603" x2="125.341" y2="1.658"/>
	<line style="fill:none;stroke:#000000;stroke-miterlimit:1;" x1="125.341" y1="1.658" x2="122.194" y2="1.344"/>
	<line style="fill:none;stroke:#000000;stroke-miterlimit:1;" x1="122.194" y1="1.344" x2="119.676" y2="1.029"/>
	<line style="fill:none;stroke:#000000;stroke-miterlimit:1;" x1="119.676" y1="1.029" x2="116.529" y2="1.029"/>
	<line style="fill:none;stroke:#000000;stroke-miterlimit:1;" x1="116.529" y1="1.029" x2="112.752" y2="1.344"/>
	<line style="fill:none;stroke:#000000;stroke-miterlimit:1;" x1="112.752" y1="1.344" x2="108.661" y2="2.603"/>
	<line style="fill:none;stroke:#000000;stroke-miterlimit:1;" x1="108.661" y1="2.603" x2="105.199" y2="4.491"/>
	<line style="fill:none;stroke:#000000;stroke-miterlimit:1;" x1="105.199" y1="4.491" x2="102.996" y2="6.379"/>
	<line style="fill:none;stroke:#000000;stroke-miterlimit:1;" x1="102.996" y1="6.379" x2="100.478" y2="8.582"/>
	<line style="fill:none;stroke:#000000;stroke-miterlimit:1;" x1="100.478" y1="8.582" x2="98.59" y2="10.785"/>
	<line style="fill:none;stroke:#000000;stroke-miterlimit:1;" x1="98.59" y1="10.785" x2="96.702" y2="14.247"/>
	<line style="fill:none;stroke:#000000;stroke-miterlimit:1;" x1="96.702" y1="14.247" x2="94.813" y2="17.709"/>
	<line style="fill:none;stroke:#000000;stroke-miterlimit:1;" x1="94.813" y1="17.709" x2="94.184" y2="20.856"/>
	<line style="fill:none;stroke:#000000;stroke-miterlimit:1;" x1="94.184" y1="20.856" x2="93.554" y2="25.262"/>
	<line style="fill:none;stroke:#000000;stroke-miterlimit:1;" x1="93.554" y1="25.262" x2="93.24" y2="29.668"/>
	<line style="fill:none;stroke:#000000;stroke-miterlimit:1;" x1="93.24" y1="29.668" x2="93.554" y2="33.13"/>
	<line style="fill:none;stroke:#000000;stroke-miterlimit:1;" x1="93.554" y1="33.13" x2="93.869" y2="38.166"/>
	<line style="fill:none;stroke:#000000;stroke-miterlimit:1;" x1="93.869" y1="38.166" x2="95.757" y2="43.201"/>
	<line style="fill:none;stroke:#000000;stroke-miterlimit:1;" x1="95.757" y1="43.201" x2="98.59" y2="48.866"/>
	<line style="fill:none;stroke:#000000;stroke-miterlimit:1;" x1="98.59" y1="48.866" x2="103.625" y2="55.475"/>
	<line style="fill:none;stroke:#000000;stroke-miterlimit:1;" x1="103.625" y1="55.475" x2="111.493" y2="63.028"/>
	<line style="fill:none;stroke:#000000;stroke-miterlimit:1;" x1="111.493" y1="63.028" x2="122.823" y2="72.155"/>
	<line style="fill:none;stroke:#000000;stroke-miterlimit:1;" x1="122.823" y1="72.155" x2="147.371" y2="86.003"/>
	<line style="fill:none;stroke:#000000;stroke-miterlimit:1;" x1="85.372" y1="92.494" x2="110.549" y2="149.143"/>
	<line style="fill:none;stroke:#000000;stroke-miterlimit:1;" x1="110.549" y1="149.143" x2="123.138" y2="149.143"/>
	<line style="fill:none;stroke:#000000;stroke-miterlimit:1;" x1="123.138" y1="149.143" x2="97.96" y2="92.494"/>
	<line style="fill:none;stroke:#000000;stroke-miterlimit:1;" x1="97.96" y1="92.494" x2="85.372" y2="92.494"/>
	<line style="fill:none;stroke:#000000;stroke-miterlimit:1;" x1="123.453" y1="92.494" x2="148.631" y2="149.143"/>
	<line style="fill:none;stroke:#000000;stroke-miterlimit:1;" x1="148.631" y1="149.143" x2="161.219" y2="149.143"/>
	<line style="fill:none;stroke:#000000;stroke-miterlimit:1;" x1="161.219" y1="149.143" x2="136.041" y2="92.494"/>
	<line style="fill:none;stroke:#000000;stroke-miterlimit:1;" x1="136.041" y1="92.494" x2="123.453" y2="92.494"/>
</g>
</svg>
