<?xml version="1.0" encoding="iso-8859-1"?>
<!-- Generator: Adobe Illustrator 16.0.1, SVG Export Plug-In . SVG Version: 6.00 Build 0)  -->
<!DOCTYPE svg PUBLIC "-//W3C//DTD SVG 1.1//EN" "http://www.w3.org/Graphics/SVG/1.1/DTD/svg11.dtd">
<svg version="1.1" id="Ebene_1" xmlns="http://www.w3.org/2000/svg" xmlns:xlink="http://www.w3.org/1999/xlink" x="0px" y="0px"
	 width="443.521px" height="151.241px" viewBox="0 0 443.521 151.241" style="enable-background:new 0 0 443.521 151.241;"
	 xml:space="preserve">
<g>
	<line style="fill:none;stroke:#000000;stroke-miterlimit:1;" x1="25.673" y1="48.22" x2="20.078" y2="143.342"/>
	<line style="fill:none;stroke:#000000;stroke-miterlimit:1;" x1="20.078" y1="143.342" x2="20.078" y2="146.634"/>
	<line style="fill:none;stroke:#000000;stroke-miterlimit:1;" x1="20.078" y1="146.634" x2="23.369" y2="150.254"/>
	<line style="fill:none;stroke:#000000;stroke-miterlimit:1;" x1="23.369" y1="150.254" x2="26.002" y2="150.912"/>
	<line style="fill:none;stroke:#000000;stroke-miterlimit:1;" x1="26.002" y1="150.912" x2="28.307" y2="151.241"/>
	<line style="fill:none;stroke:#000000;stroke-miterlimit:1;" x1="28.307" y1="151.241" x2="30.281" y2="151.241"/>
	<line style="fill:none;stroke:#000000;stroke-miterlimit:1;" x1="30.281" y1="151.241" x2="32.915" y2="150.254"/>
	<line style="fill:none;stroke:#000000;stroke-miterlimit:1;" x1="32.915" y1="150.254" x2="34.889" y2="148.608"/>
	<line style="fill:none;stroke:#000000;stroke-miterlimit:1;" x1="34.889" y1="148.608" x2="36.206" y2="146.305"/>
	<line style="fill:none;stroke:#000000;stroke-miterlimit:1;" x1="36.206" y1="146.305" x2="30.281" y2="48.22"/>
	<line style="fill:none;stroke:#000000;stroke-miterlimit:1;" x1="57.6" y1="48.22" x2="55.955" y2="41.308"/>
	<line style="fill:none;stroke:#000000;stroke-miterlimit:1;" x1="55.955" y1="41.308" x2="52.992" y2="34.725"/>
	<line style="fill:none;stroke:#000000;stroke-miterlimit:1;" x1="52.992" y1="34.725" x2="48.713" y2="29.458"/>
	<line style="fill:none;stroke:#000000;stroke-miterlimit:1;" x1="48.713" y1="29.458" x2="46.08" y2="26.825"/>
	<line style="fill:none;stroke:#000000;stroke-miterlimit:1;" x1="46.08" y1="26.825" x2="41.472" y2="24.192"/>
	<line style="fill:none;stroke:#000000;stroke-miterlimit:1;" x1="41.472" y1="24.192" x2="37.522" y2="22.875"/>
	<line style="fill:none;stroke:#000000;stroke-miterlimit:1;" x1="37.522" y1="22.875" x2="34.231" y2="21.888"/>
	<line style="fill:none;stroke:#000000;stroke-miterlimit:1;" x1="34.231" y1="21.888" x2="30.281" y2="21.23"/>
	<line style="fill:none;stroke:#000000;stroke-miterlimit:1;" x1="30.281" y1="21.23" x2="25.344" y2="21.23"/>
	<line style="fill:none;stroke:#000000;stroke-miterlimit:1;" x1="25.344" y1="21.23" x2="19.09" y2="22.546"/>
	<line style="fill:none;stroke:#000000;stroke-miterlimit:1;" x1="19.09" y1="22.546" x2="12.508" y2="26.167"/>
	<line style="fill:none;stroke:#000000;stroke-miterlimit:1;" x1="12.508" y1="26.167" x2="7.9" y2="30.117"/>
	<line style="fill:none;stroke:#000000;stroke-miterlimit:1;" x1="7.9" y1="30.117" x2="5.925" y2="32.421"/>
	<line style="fill:none;stroke:#000000;stroke-miterlimit:1;" x1="5.925" y1="32.421" x2="3.292" y2="36.7"/>
	<line style="fill:none;stroke:#000000;stroke-miterlimit:1;" x1="3.292" y1="36.7" x2="1.317" y2="41.637"/>
	<line style="fill:none;stroke:#000000;stroke-miterlimit:1;" x1="1.317" y1="41.637" x2="0.33" y2="44.928"/>
	<line style="fill:none;stroke:#000000;stroke-miterlimit:1;" x1="0.33" y1="44.928" x2="0" y2="48.22"/>
	<line style="fill:none;stroke:#000000;stroke-miterlimit:1;" x1="0" y1="48.22" x2="57.6" y2="48.22"/>
	<line style="fill:none;stroke:#000000;stroke-miterlimit:1;" x1="26.002" y1="21.559" x2="24.028" y2="5.76"/>
	<line style="fill:none;stroke:#000000;stroke-miterlimit:1;" x1="24.028" y1="5.76" x2="24.686" y2="4.114"/>
	<line style="fill:none;stroke:#000000;stroke-miterlimit:1;" x1="24.686" y1="4.114" x2="26.661" y2="3.127"/>
	<line style="fill:none;stroke:#000000;stroke-miterlimit:1;" x1="26.661" y1="3.127" x2="29.294" y2="3.456"/>
	<line style="fill:none;stroke:#000000;stroke-miterlimit:1;" x1="29.294" y1="3.456" x2="31.269" y2="4.114"/>
	<line style="fill:none;stroke:#000000;stroke-miterlimit:1;" x1="31.269" y1="4.114" x2="31.598" y2="6.089"/>
	<line style="fill:none;stroke:#000000;stroke-miterlimit:1;" x1="31.598" y1="6.089" x2="30.281" y2="20.901"/>
	<line style="fill:none;stroke:#000000;stroke-miterlimit:1;" x1="141.079" y1="2.428" x2="139.434" y2="35.671"/>
	<line style="fill:none;stroke:#000000;stroke-miterlimit:1;" x1="139.434" y1="35.671" x2="138.775" y2="63.978"/>
	<line style="fill:none;stroke:#000000;stroke-miterlimit:1;" x1="138.775" y1="63.978" x2="138.117" y2="85.701"/>
	<line style="fill:none;stroke:#000000;stroke-miterlimit:1;" x1="138.117" y1="85.701" x2="136.471" y2="101.171"/>
	<line style="fill:none;stroke:#000000;stroke-miterlimit:1;" x1="136.471" y1="101.171" x2="135.154" y2="115.981"/>
	<line style="fill:none;stroke:#000000;stroke-miterlimit:1;" x1="135.154" y1="115.981" x2="135.813" y2="131.78"/>
	<line style="fill:none;stroke:#000000;stroke-miterlimit:1;" x1="135.813" y1="131.78" x2="136.8" y2="136.718"/>
	<line style="fill:none;stroke:#000000;stroke-miterlimit:1;" x1="136.8" y1="136.718" x2="137.458" y2="140.668"/>
	<line style="fill:none;stroke:#000000;stroke-miterlimit:1;" x1="137.458" y1="140.668" x2="137.129" y2="144.617"/>
	<line style="fill:none;stroke:#000000;stroke-miterlimit:1;" x1="137.129" y1="144.617" x2="135.154" y2="147.25"/>
	<line style="fill:none;stroke:#000000;stroke-miterlimit:1;" x1="135.154" y1="147.25" x2="132.192" y2="149.226"/>
	<line style="fill:none;stroke:#000000;stroke-miterlimit:1;" x1="132.192" y1="149.226" x2="128.572" y2="149.884"/>
	<line style="fill:none;stroke:#000000;stroke-miterlimit:1;" x1="128.572" y1="149.884" x2="121.989" y2="148.238"/>
	<line style="fill:none;stroke:#000000;stroke-miterlimit:1;" x1="121.989" y1="148.238" x2="119.355" y2="146.263"/>
	<line style="fill:none;stroke:#000000;stroke-miterlimit:1;" x1="119.355" y1="146.263" x2="115.077" y2="145.275"/>
	<line style="fill:none;stroke:#000000;stroke-miterlimit:1;" x1="115.077" y1="145.275" x2="105.203" y2="150.213"/>
	<line style="fill:none;stroke:#000000;stroke-miterlimit:1;" x1="105.203" y1="150.213" x2="64.389" y2="149.884"/>
	<line style="fill:none;stroke:#000000;stroke-miterlimit:1;" x1="64.389" y1="149.884" x2="62.743" y2="144.617"/>
	<line style="fill:none;stroke:#000000;stroke-miterlimit:1;" x1="62.743" y1="144.617" x2="64.06" y2="141.984"/>
	<line style="fill:none;stroke:#000000;stroke-miterlimit:1;" x1="64.06" y1="141.984" x2="67.68" y2="141.326"/>
	<line style="fill:none;stroke:#000000;stroke-miterlimit:1;" x1="67.68" y1="141.326" x2="81.833" y2="138.363"/>
	<line style="fill:none;stroke:#000000;stroke-miterlimit:1;" x1="81.833" y1="138.363" x2="93.683" y2="132.439"/>
	<line style="fill:none;stroke:#000000;stroke-miterlimit:1;" x1="93.683" y1="132.439" x2="101.582" y2="129.477"/>
	<line style="fill:none;stroke:#000000;stroke-miterlimit:1;" x1="101.582" y1="129.477" x2="108.494" y2="127.831"/>
	<line style="fill:none;stroke:#000000;stroke-miterlimit:1;" x1="108.494" y1="127.831" x2="113.431" y2="123.552"/>
	<line style="fill:none;stroke:#000000;stroke-miterlimit:1;" x1="113.431" y1="123.552" x2="115.077" y2="119.273"/>
	<line style="fill:none;stroke:#000000;stroke-miterlimit:1;" x1="115.077" y1="119.273" x2="115.406" y2="114.665"/>
	<line style="fill:none;stroke:#000000;stroke-miterlimit:1;" x1="115.406" y1="114.665" x2="114.748" y2="107.753"/>
	<line style="fill:none;stroke:#000000;stroke-miterlimit:1;" x1="114.748" y1="107.753" x2="114.418" y2="98.537"/>
	<line style="fill:none;stroke:#000000;stroke-miterlimit:1;" x1="114.418" y1="98.537" x2="113.76" y2="73.522"/>
	<line style="fill:none;stroke:#000000;stroke-miterlimit:1;" x1="113.76" y1="73.522" x2="113.431" y2="48.508"/>
	<line style="fill:none;stroke:#000000;stroke-miterlimit:1;" x1="113.431" y1="48.508" x2="110.798" y2="2.099"/>
	<line style="fill:none;stroke:#000000;stroke-miterlimit:1;" x1="110.798" y1="2.099" x2="141.079" y2="2.099"/>
	<line style="fill:none;stroke:#000000;stroke-miterlimit:1;" x1="199.098" y1="14.729" x2="195.489" y2="16.534"/>
	<line style="fill:none;stroke:#000000;stroke-miterlimit:1;" x1="195.489" y1="16.534" x2="192.783" y2="19.842"/>
	<line style="fill:none;stroke:#000000;stroke-miterlimit:1;" x1="192.783" y1="19.842" x2="191.88" y2="22.549"/>
	<line style="fill:none;stroke:#000000;stroke-miterlimit:1;" x1="191.88" y1="22.549" x2="191.279" y2="25.255"/>
	<line style="fill:none;stroke:#000000;stroke-miterlimit:1;" x1="191.279" y1="25.255" x2="192.181" y2="29.466"/>
	<line style="fill:none;stroke:#000000;stroke-miterlimit:1;" x1="192.181" y1="29.466" x2="194.287" y2="32.172"/>
	<line style="fill:none;stroke:#000000;stroke-miterlimit:1;" x1="194.287" y1="32.172" x2="196.392" y2="33.977"/>
	<line style="fill:none;stroke:#000000;stroke-miterlimit:1;" x1="196.392" y1="33.977" x2="200" y2="35.18"/>
	<line style="fill:none;stroke:#000000;stroke-miterlimit:1;" x1="200" y1="35.18" x2="202.707" y2="36.082"/>
	<line style="fill:none;stroke:#000000;stroke-miterlimit:1;" x1="202.707" y1="36.082" x2="206.015" y2="36.082"/>
	<line style="fill:none;stroke:#000000;stroke-miterlimit:1;" x1="206.015" y1="36.082" x2="209.624" y2="34.578"/>
	<line style="fill:none;stroke:#000000;stroke-miterlimit:1;" x1="209.624" y1="34.578" x2="212.631" y2="33.075"/>
	<line style="fill:none;stroke:#000000;stroke-miterlimit:1;" x1="212.631" y1="33.075" x2="214.436" y2="30.969"/>
	<line style="fill:none;stroke:#000000;stroke-miterlimit:1;" x1="214.436" y1="30.969" x2="216.541" y2="27.962"/>
	<line style="fill:none;stroke:#000000;stroke-miterlimit:1;" x1="216.541" y1="27.962" x2="218.045" y2="24.353"/>
	<line style="fill:none;stroke:#000000;stroke-miterlimit:1;" x1="218.045" y1="24.353" x2="218.947" y2="21.346"/>
	<line style="fill:none;stroke:#000000;stroke-miterlimit:1;" x1="218.947" y1="21.346" x2="219.248" y2="18.338"/>
	<line style="fill:none;stroke:#000000;stroke-miterlimit:1;" x1="219.248" y1="18.338" x2="218.947" y2="16.233"/>
	<line style="fill:none;stroke:#000000;stroke-miterlimit:1;" x1="218.947" y1="16.233" x2="218.346" y2="12.625"/>
	<line style="fill:none;stroke:#000000;stroke-miterlimit:1;" x1="218.346" y1="12.625" x2="216.842" y2="9.617"/>
	<line style="fill:none;stroke:#000000;stroke-miterlimit:1;" x1="216.842" y1="9.617" x2="214.436" y2="6.609"/>
	<line style="fill:none;stroke:#000000;stroke-miterlimit:1;" x1="214.436" y1="6.609" x2="212.03" y2="4.504"/>
	<line style="fill:none;stroke:#000000;stroke-miterlimit:1;" x1="212.03" y1="4.504" x2="209.925" y2="3.602"/>
	<line style="fill:none;stroke:#000000;stroke-miterlimit:1;" x1="209.925" y1="3.602" x2="207.82" y2="2.7"/>
	<line style="fill:none;stroke:#000000;stroke-miterlimit:1;" x1="207.82" y1="2.7" x2="204.812" y2="2.399"/>
	<line style="fill:none;stroke:#000000;stroke-miterlimit:1;" x1="204.812" y1="2.399" x2="202.406" y2="2.099"/>
	<line style="fill:none;stroke:#000000;stroke-miterlimit:1;" x1="202.406" y1="2.099" x2="199.399" y2="2.099"/>
	<line style="fill:none;stroke:#000000;stroke-miterlimit:1;" x1="199.399" y1="2.099" x2="195.79" y2="2.399"/>
	<line style="fill:none;stroke:#000000;stroke-miterlimit:1;" x1="195.79" y1="2.399" x2="191.88" y2="3.602"/>
	<line style="fill:none;stroke:#000000;stroke-miterlimit:1;" x1="191.88" y1="3.602" x2="188.572" y2="5.407"/>
	<line style="fill:none;stroke:#000000;stroke-miterlimit:1;" x1="188.572" y1="5.407" x2="186.467" y2="7.211"/>
	<line style="fill:none;stroke:#000000;stroke-miterlimit:1;" x1="186.467" y1="7.211" x2="184.062" y2="9.316"/>
	<line style="fill:none;stroke:#000000;stroke-miterlimit:1;" x1="184.062" y1="9.316" x2="182.257" y2="11.421"/>
	<line style="fill:none;stroke:#000000;stroke-miterlimit:1;" x1="182.257" y1="11.421" x2="180.452" y2="14.729"/>
	<line style="fill:none;stroke:#000000;stroke-miterlimit:1;" x1="180.452" y1="14.729" x2="178.648" y2="18.038"/>
	<line style="fill:none;stroke:#000000;stroke-miterlimit:1;" x1="178.648" y1="18.038" x2="178.046" y2="21.045"/>
	<line style="fill:none;stroke:#000000;stroke-miterlimit:1;" x1="178.046" y1="21.045" x2="177.445" y2="25.255"/>
	<line style="fill:none;stroke:#000000;stroke-miterlimit:1;" x1="177.445" y1="25.255" x2="177.144" y2="29.466"/>
	<line style="fill:none;stroke:#000000;stroke-miterlimit:1;" x1="177.144" y1="29.466" x2="177.445" y2="32.774"/>
	<line style="fill:none;stroke:#000000;stroke-miterlimit:1;" x1="177.445" y1="32.774" x2="177.746" y2="37.586"/>
	<line style="fill:none;stroke:#000000;stroke-miterlimit:1;" x1="177.746" y1="37.586" x2="179.55" y2="42.397"/>
	<line style="fill:none;stroke:#000000;stroke-miterlimit:1;" x1="179.55" y1="42.397" x2="182.257" y2="47.811"/>
	<line style="fill:none;stroke:#000000;stroke-miterlimit:1;" x1="182.257" y1="47.811" x2="187.069" y2="54.126"/>
	<line style="fill:none;stroke:#000000;stroke-miterlimit:1;" x1="187.069" y1="54.126" x2="194.587" y2="61.344"/>
	<line style="fill:none;stroke:#000000;stroke-miterlimit:1;" x1="194.587" y1="61.344" x2="205.414" y2="70.065"/>
	<line style="fill:none;stroke:#000000;stroke-miterlimit:1;" x1="205.414" y1="70.065" x2="228.871" y2="83.298"/>
	<line style="fill:none;stroke:#000000;stroke-miterlimit:1;" x1="168.686" y1="96.08" x2="192.745" y2="150.213"/>
	<line style="fill:none;stroke:#000000;stroke-miterlimit:1;" x1="192.745" y1="150.213" x2="204.775" y2="150.213"/>
	<line style="fill:none;stroke:#000000;stroke-miterlimit:1;" x1="204.775" y1="150.213" x2="180.716" y2="96.08"/>
	<line style="fill:none;stroke:#000000;stroke-miterlimit:1;" x1="180.716" y1="96.08" x2="168.686" y2="96.08"/>
	<line style="fill:none;stroke:#000000;stroke-miterlimit:1;" x1="205.076" y1="96.08" x2="229.135" y2="150.213"/>
	<line style="fill:none;stroke:#000000;stroke-miterlimit:1;" x1="229.135" y1="150.213" x2="241.164" y2="150.213"/>
	<line style="fill:none;stroke:#000000;stroke-miterlimit:1;" x1="241.164" y1="150.213" x2="217.105" y2="96.08"/>
	<line style="fill:none;stroke:#000000;stroke-miterlimit:1;" x1="217.105" y1="96.08" x2="205.076" y2="96.08"/>
	<line style="fill:none;stroke:#000000;stroke-miterlimit:1;" x1="325.852" y1="23.698" x2="328.155" y2="26.99"/>
	<line style="fill:none;stroke:#000000;stroke-miterlimit:1;" x1="328.155" y1="26.99" x2="330.46" y2="30.939"/>
	<line style="fill:none;stroke:#000000;stroke-miterlimit:1;" x1="330.46" y1="30.939" x2="331.776" y2="34.231"/>
	<line style="fill:none;stroke:#000000;stroke-miterlimit:1;" x1="331.776" y1="34.231" x2="333.093" y2="38.51"/>
	<line style="fill:none;stroke:#000000;stroke-miterlimit:1;" x1="333.093" y1="38.51" x2="333.751" y2="41.472"/>
	<line style="fill:none;stroke:#000000;stroke-miterlimit:1;" x1="333.751" y1="41.472" x2="334.409" y2="45.422"/>
	<line style="fill:none;stroke:#000000;stroke-miterlimit:1;" x1="334.409" y1="45.422" x2="334.409" y2="50.03"/>
	<line style="fill:none;stroke:#000000;stroke-miterlimit:1;" x1="334.409" y1="50.03" x2="334.08" y2="54.638"/>
	<line style="fill:none;stroke:#000000;stroke-miterlimit:1;" x1="334.08" y1="54.638" x2="333.093" y2="58.258"/>
	<line style="fill:none;stroke:#000000;stroke-miterlimit:1;" x1="333.093" y1="58.258" x2="331.776" y2="61.221"/>
	<line style="fill:none;stroke:#000000;stroke-miterlimit:1;" x1="331.776" y1="61.221" x2="329.802" y2="64.512"/>
	<line style="fill:none;stroke:#000000;stroke-miterlimit:1;" x1="329.802" y1="64.512" x2="327.826" y2="66.816"/>
	<line style="fill:none;stroke:#000000;stroke-miterlimit:1;" x1="327.826" y1="66.816" x2="324.535" y2="69.778"/>
	<line style="fill:none;stroke:#000000;stroke-miterlimit:1;" x1="324.535" y1="69.778" x2="321.244" y2="71.424"/>
	<line style="fill:none;stroke:#000000;stroke-miterlimit:1;" x1="321.244" y1="71.424" x2="317.623" y2="73.07"/>
	<line style="fill:none;stroke:#000000;stroke-miterlimit:1;" x1="317.623" y1="73.07" x2="314.003" y2="73.728"/>
	<line style="fill:none;stroke:#000000;stroke-miterlimit:1;" x1="314.003" y1="73.728" x2="309.395" y2="74.057"/>
	<line style="fill:none;stroke:#000000;stroke-miterlimit:1;" x1="309.395" y1="74.057" x2="304.128" y2="73.399"/>
	<line style="fill:none;stroke:#000000;stroke-miterlimit:1;" x1="304.128" y1="73.399" x2="300.179" y2="72.083"/>
	<line style="fill:none;stroke:#000000;stroke-miterlimit:1;" x1="300.179" y1="72.083" x2="295.57" y2="70.437"/>
	<line style="fill:none;stroke:#000000;stroke-miterlimit:1;" x1="295.57" y1="70.437" x2="290.963" y2="67.804"/>
	<line style="fill:none;stroke:#000000;stroke-miterlimit:1;" x1="290.963" y1="67.804" x2="287.671" y2="65.5"/>
	<line style="fill:none;stroke:#000000;stroke-miterlimit:1;" x1="287.671" y1="65.5" x2="283.722" y2="61.879"/>
	<line style="fill:none;stroke:#000000;stroke-miterlimit:1;" x1="283.722" y1="61.879" x2="281.088" y2="58.587"/>
	<line style="fill:none;stroke:#000000;stroke-miterlimit:1;" x1="281.088" y1="58.587" x2="277.797" y2="54.638"/>
	<line style="fill:none;stroke:#000000;stroke-miterlimit:1;" x1="277.797" y1="54.638" x2="274.506" y2="50.359"/>
	<line style="fill:none;stroke:#000000;stroke-miterlimit:1;" x1="274.506" y1="50.359" x2="272.201" y2="46.738"/>
	<line style="fill:none;stroke:#000000;stroke-miterlimit:1;" x1="272.201" y1="46.738" x2="270.556" y2="43.447"/>
	<line style="fill:none;stroke:#000000;stroke-miterlimit:1;" x1="270.556" y1="43.447" x2="268.581" y2="39.497"/>
	<line style="fill:none;stroke:#000000;stroke-miterlimit:1;" x1="268.581" y1="39.497" x2="267.265" y2="35.548"/>
	<line style="fill:none;stroke:#000000;stroke-miterlimit:1;" x1="267.265" y1="35.548" x2="266.276" y2="30.281"/>
	<line style="fill:none;stroke:#000000;stroke-miterlimit:1;" x1="266.276" y1="30.281" x2="265.947" y2="25.344"/>
	<line style="fill:none;stroke:#000000;stroke-miterlimit:1;" x1="265.947" y1="25.344" x2="266.276" y2="17.116"/>
	<line style="fill:none;stroke:#000000;stroke-miterlimit:1;" x1="266.276" y1="17.116" x2="267.265" y2="13.824"/>
	<line style="fill:none;stroke:#000000;stroke-miterlimit:1;" x1="267.265" y1="13.824" x2="268.581" y2="10.533"/>
	<line style="fill:none;stroke:#000000;stroke-miterlimit:1;" x1="268.581" y1="10.533" x2="270.556" y2="7.57"/>
	<line style="fill:none;stroke:#000000;stroke-miterlimit:1;" x1="270.556" y1="7.57" x2="273.188" y2="5.267"/>
	<line style="fill:none;stroke:#000000;stroke-miterlimit:1;" x1="273.188" y1="5.267" x2="276.151" y2="2.633"/>
	<line style="fill:none;stroke:#000000;stroke-miterlimit:1;" x1="276.151" y1="2.633" x2="280.43" y2="0.658"/>
	<line style="fill:none;stroke:#000000;stroke-miterlimit:1;" x1="280.43" y1="0.658" x2="283.063" y2="0"/>
	<line style="fill:none;stroke:#000000;stroke-miterlimit:1;" x1="283.063" y1="0" x2="287.013" y2="0"/>
	<line style="fill:none;stroke:#000000;stroke-miterlimit:1;" x1="287.013" y1="0" x2="291.621" y2="0.658"/>
	<line style="fill:none;stroke:#000000;stroke-miterlimit:1;" x1="291.621" y1="0.658" x2="295.899" y2="1.317"/>
	<line style="fill:none;stroke:#000000;stroke-miterlimit:1;" x1="295.899" y1="1.317" x2="300.837" y2="2.962"/>
	<line style="fill:none;stroke:#000000;stroke-miterlimit:1;" x1="300.837" y1="2.962" x2="305.444" y2="4.938"/>
	<line style="fill:none;stroke:#000000;stroke-miterlimit:1;" x1="305.444" y1="4.938" x2="308.736" y2="6.912"/>
	<line style="fill:none;stroke:#000000;stroke-miterlimit:1;" x1="308.736" y1="6.912" x2="312.027" y2="8.887"/>
	<line style="fill:none;stroke:#000000;stroke-miterlimit:1;" x1="312.027" y1="8.887" x2="315.319" y2="11.849"/>
	<line style="fill:none;stroke:#000000;stroke-miterlimit:1;" x1="315.319" y1="11.849" x2="318.939" y2="15.47"/>
	<line style="fill:none;stroke:#000000;stroke-miterlimit:1;" x1="318.939" y1="15.47" x2="321.902" y2="19.09"/>
	<line style="fill:none;stroke:#000000;stroke-miterlimit:1;" x1="321.902" y1="19.09" x2="324.535" y2="22.382"/>
	<line style="fill:none;stroke:#000000;stroke-miterlimit:1;" x1="324.535" y1="22.382" x2="325.852" y2="23.698"/>
	<line style="fill:none;stroke:#000000;stroke-miterlimit:1;" x1="328.155" y1="26.99" x2="329.802" y2="25.344"/>
	<line style="fill:none;stroke:#000000;stroke-miterlimit:1;" x1="329.802" y1="25.344" x2="331.776" y2="23.369"/>
	<line style="fill:none;stroke:#000000;stroke-miterlimit:1;" x1="331.776" y1="23.369" x2="332.435" y2="21.724"/>
	<line style="fill:none;stroke:#000000;stroke-miterlimit:1;" x1="332.435" y1="21.724" x2="333.422" y2="18.103"/>
	<line style="fill:none;stroke:#000000;stroke-miterlimit:1;" x1="333.422" y1="18.103" x2="333.093" y2="15.141"/>
	<line style="fill:none;stroke:#000000;stroke-miterlimit:1;" x1="333.093" y1="15.141" x2="332.435" y2="12.508"/>
	<line style="fill:none;stroke:#000000;stroke-miterlimit:1;" x1="332.435" y1="12.508" x2="331.776" y2="10.533"/>
	<line style="fill:none;stroke:#000000;stroke-miterlimit:1;" x1="331.776" y1="10.533" x2="330.46" y2="9.216"/>
	<line style="fill:none;stroke:#000000;stroke-miterlimit:1;" x1="330.46" y1="9.216" x2="328.813" y2="7.241"/>
	<line style="fill:none;stroke:#000000;stroke-miterlimit:1;" x1="328.813" y1="7.241" x2="327.168" y2="5.925"/>
	<line style="fill:none;stroke:#000000;stroke-miterlimit:1;" x1="327.168" y1="5.925" x2="323.877" y2="4.608"/>
	<line style="fill:none;stroke:#000000;stroke-miterlimit:1;" x1="323.877" y1="4.608" x2="321.902" y2="4.608"/>
	<line style="fill:none;stroke:#000000;stroke-miterlimit:1;" x1="321.902" y1="4.608" x2="318.939" y2="4.608"/>
	<line style="fill:none;stroke:#000000;stroke-miterlimit:1;" x1="318.939" y1="4.608" x2="315.978" y2="5.925"/>
	<line style="fill:none;stroke:#000000;stroke-miterlimit:1;" x1="315.978" y1="5.925" x2="313.345" y2="7.57"/>
	<line style="fill:none;stroke:#000000;stroke-miterlimit:1;" x1="313.345" y1="7.57" x2="312.027" y2="8.558"/>
	<line style="fill:none;stroke:#000000;stroke-miterlimit:1;" x1="284.38" y1="62.537" x2="282.405" y2="63.854"/>
	<line style="fill:none;stroke:#000000;stroke-miterlimit:1;" x1="282.405" y1="63.854" x2="279.771" y2="65.17"/>
	<line style="fill:none;stroke:#000000;stroke-miterlimit:1;" x1="279.771" y1="65.17" x2="277.797" y2="65.829"/>
	<line style="fill:none;stroke:#000000;stroke-miterlimit:1;" x1="277.797" y1="65.829" x2="274.506" y2="65.829"/>
	<line style="fill:none;stroke:#000000;stroke-miterlimit:1;" x1="274.506" y1="65.829" x2="271.214" y2="65.17"/>
	<line style="fill:none;stroke:#000000;stroke-miterlimit:1;" x1="271.214" y1="65.17" x2="269.239" y2="63.854"/>
	<line style="fill:none;stroke:#000000;stroke-miterlimit:1;" x1="269.239" y1="63.854" x2="267.594" y2="62.537"/>
	<line style="fill:none;stroke:#000000;stroke-miterlimit:1;" x1="267.594" y1="62.537" x2="266.606" y2="61.221"/>
	<line style="fill:none;stroke:#000000;stroke-miterlimit:1;" x1="266.606" y1="61.221" x2="264.96" y2="59.246"/>
	<line style="fill:none;stroke:#000000;stroke-miterlimit:1;" x1="264.96" y1="59.246" x2="263.973" y2="56.942"/>
	<line style="fill:none;stroke:#000000;stroke-miterlimit:1;" x1="263.973" y1="56.942" x2="263.314" y2="53.65"/>
	<line style="fill:none;stroke:#000000;stroke-miterlimit:1;" x1="263.314" y1="53.65" x2="263.644" y2="51.347"/>
	<line style="fill:none;stroke:#000000;stroke-miterlimit:1;" x1="263.644" y1="51.347" x2="264.631" y2="48.713"/>
	<line style="fill:none;stroke:#000000;stroke-miterlimit:1;" x1="264.631" y1="48.713" x2="265.947" y2="46.08"/>
	<line style="fill:none;stroke:#000000;stroke-miterlimit:1;" x1="265.947" y1="46.08" x2="268.252" y2="43.776"/>
	<line style="fill:none;stroke:#000000;stroke-miterlimit:1;" x1="268.252" y1="43.776" x2="269.897" y2="42.789"/>
	<line style="fill:none;stroke:#000000;stroke-miterlimit:1;" x1="357.943" y1="44.476" x2="357.943" y2="0.042"/>
	<line style="fill:none;stroke:#000000;stroke-miterlimit:1;" x1="357.943" y1="0.042" x2="368.146" y2="0.042"/>
	<line style="fill:none;stroke:#000000;stroke-miterlimit:1;" x1="368.146" y1="0.042" x2="368.146" y2="44.476"/>
	<line style="fill:none;stroke:#000000;stroke-miterlimit:1;" x1="368.146" y1="44.476" x2="357.943" y2="44.476"/>
	<line style="fill:none;stroke:#000000;stroke-miterlimit:1;" x1="395.795" y1="148.155" x2="395.795" y2="103.722"/>
	<line style="fill:none;stroke:#000000;stroke-miterlimit:1;" x1="395.795" y1="103.722" x2="405.669" y2="103.722"/>
	<line style="fill:none;stroke:#000000;stroke-miterlimit:1;" x1="405.669" y1="103.722" x2="405.669" y2="148.155"/>
	<line style="fill:none;stroke:#000000;stroke-miterlimit:1;" x1="405.669" y1="148.155" x2="395.795" y2="148.155"/>
	<line style="fill:none;stroke:#000000;stroke-miterlimit:1;" x1="433.316" y1="44.476" x2="433.316" y2="0.042"/>
	<line style="fill:none;stroke:#000000;stroke-miterlimit:1;" x1="433.316" y1="0.042" x2="443.521" y2="0.042"/>
	<line style="fill:none;stroke:#000000;stroke-miterlimit:1;" x1="443.521" y1="0.042" x2="443.521" y2="44.476"/>
	<line style="fill:none;stroke:#000000;stroke-miterlimit:1;" x1="443.521" y1="44.476" x2="433.646" y2="44.476"/>
</g>
</svg>
