<?xml version="1.0" encoding="iso-8859-1"?>
<!-- Generator: Adobe Illustrator 16.0.1, SVG Export Plug-In . SVG Version: 6.00 Build 0)  -->
<!DOCTYPE svg PUBLIC "-//W3C//DTD SVG 1.1//EN" "http://www.w3.org/Graphics/SVG/1.1/DTD/svg11.dtd">
<svg version="1.1" id="Ebene_1" xmlns="http://www.w3.org/2000/svg" xmlns:xlink="http://www.w3.org/1999/xlink" x="0px" y="0px"
	 width="442.574px" height="149.143px" viewBox="0 0 442.574 149.143" style="enable-background:new 0 0 442.574 149.143;"
	 xml:space="preserve">
<g>
	<line style="fill:none;stroke:#000000;stroke-miterlimit:1;" x1="33.573" y1="59.575" x2="33.573" y2="148.115"/>
	<line style="fill:none;stroke:#000000;stroke-miterlimit:1;" x1="33.573" y1="148.115" x2="40.484" y2="148.115"/>
	<line style="fill:none;stroke:#000000;stroke-miterlimit:1;" x1="40.484" y1="148.115" x2="40.484" y2="59.575"/>
	<line style="fill:none;stroke:#000000;stroke-miterlimit:1;" x1="0" y1="59.246" x2="74.057" y2="59.246"/>
	<line style="fill:none;stroke:#000000;stroke-miterlimit:1;" x1="74.057" y1="59.246" x2="74.057" y2="35.876"/>
	<line style="fill:none;stroke:#000000;stroke-miterlimit:1;" x1="74.057" y1="35.876" x2="72.741" y2="33.244"/>
	<line style="fill:none;stroke:#000000;stroke-miterlimit:1;" x1="72.741" y1="33.244" x2="71.424" y2="31.598"/>
	<line style="fill:none;stroke:#000000;stroke-miterlimit:1;" x1="71.424" y1="31.598" x2="69.778" y2="31.598"/>
	<line style="fill:none;stroke:#000000;stroke-miterlimit:1;" x1="69.778" y1="31.598" x2="68.133" y2="31.598"/>
	<line style="fill:none;stroke:#000000;stroke-miterlimit:1;" x1="68.133" y1="31.598" x2="66.158" y2="31.927"/>
	<line style="fill:none;stroke:#000000;stroke-miterlimit:1;" x1="66.158" y1="31.927" x2="64.183" y2="33.244"/>
	<line style="fill:none;stroke:#000000;stroke-miterlimit:1;" x1="64.183" y1="33.244" x2="57.6" y2="39.168"/>
	<line style="fill:none;stroke:#000000;stroke-miterlimit:1;" x1="57.6" y1="39.168" x2="51.675" y2="44.434"/>
	<line style="fill:none;stroke:#000000;stroke-miterlimit:1;" x1="51.675" y1="44.434" x2="47.067" y2="46.738"/>
	<line style="fill:none;stroke:#000000;stroke-miterlimit:1;" x1="47.067" y1="46.738" x2="41.472" y2="48.055"/>
	<line style="fill:none;stroke:#000000;stroke-miterlimit:1;" x1="41.472" y1="48.055" x2="36.864" y2="48.384"/>
	<line style="fill:none;stroke:#000000;stroke-miterlimit:1;" x1="36.864" y1="48.384" x2="32.585" y2="48.055"/>
	<line style="fill:none;stroke:#000000;stroke-miterlimit:1;" x1="32.585" y1="48.055" x2="26.99" y2="46.738"/>
	<line style="fill:none;stroke:#000000;stroke-miterlimit:1;" x1="26.99" y1="46.738" x2="22.382" y2="44.434"/>
	<line style="fill:none;stroke:#000000;stroke-miterlimit:1;" x1="22.382" y1="44.434" x2="16.457" y2="39.168"/>
	<line style="fill:none;stroke:#000000;stroke-miterlimit:1;" x1="16.457" y1="39.168" x2="9.875" y2="33.244"/>
	<line style="fill:none;stroke:#000000;stroke-miterlimit:1;" x1="9.875" y1="33.244" x2="7.899" y2="31.927"/>
	<line style="fill:none;stroke:#000000;stroke-miterlimit:1;" x1="7.899" y1="31.927" x2="5.925" y2="31.598"/>
	<line style="fill:none;stroke:#000000;stroke-miterlimit:1;" x1="5.925" y1="31.598" x2="4.279" y2="31.598"/>
	<line style="fill:none;stroke:#000000;stroke-miterlimit:1;" x1="4.279" y1="31.598" x2="2.633" y2="31.598"/>
	<line style="fill:none;stroke:#000000;stroke-miterlimit:1;" x1="2.633" y1="31.598" x2="1.316" y2="33.244"/>
	<line style="fill:none;stroke:#000000;stroke-miterlimit:1;" x1="1.316" y1="33.244" x2="0" y2="35.876"/>
	<line style="fill:none;stroke:#000000;stroke-miterlimit:1;" x1="0" y1="35.876" x2="0" y2="59.246"/>
	<line style="fill:none;stroke:#000000;stroke-miterlimit:1;" x1="50.688" y1="44.434" x2="44.764" y2="5.595"/>
	<line style="fill:none;stroke:#000000;stroke-miterlimit:1;" x1="44.764" y1="5.595" x2="42.13" y2="2.304"/>
	<line style="fill:none;stroke:#000000;stroke-miterlimit:1;" x1="42.13" y1="2.304" x2="40.155" y2="0.987"/>
	<line style="fill:none;stroke:#000000;stroke-miterlimit:1;" x1="40.155" y1="0.987" x2="37.522" y2="0"/>
	<line style="fill:none;stroke:#000000;stroke-miterlimit:1;" x1="37.522" y1="0" x2="36.535" y2="0"/>
	<line style="fill:none;stroke:#000000;stroke-miterlimit:1;" x1="36.535" y1="0" x2="33.902" y2="0.987"/>
	<line style="fill:none;stroke:#000000;stroke-miterlimit:1;" x1="33.902" y1="0.987" x2="31.927" y2="2.304"/>
	<line style="fill:none;stroke:#000000;stroke-miterlimit:1;" x1="31.927" y1="2.304" x2="29.294" y2="5.595"/>
	<line style="fill:none;stroke:#000000;stroke-miterlimit:1;" x1="29.294" y1="5.595" x2="23.369" y2="44.434"/>
	<line style="fill:none;stroke:#000000;stroke-miterlimit:1;" x1="156.507" y1="0.329" x2="154.862" y2="33.573"/>
	<line style="fill:none;stroke:#000000;stroke-miterlimit:1;" x1="154.862" y1="33.573" x2="154.204" y2="61.879"/>
	<line style="fill:none;stroke:#000000;stroke-miterlimit:1;" x1="154.204" y1="61.879" x2="153.545" y2="83.602"/>
	<line style="fill:none;stroke:#000000;stroke-miterlimit:1;" x1="153.545" y1="83.602" x2="151.899" y2="99.072"/>
	<line style="fill:none;stroke:#000000;stroke-miterlimit:1;" x1="151.899" y1="99.072" x2="150.583" y2="113.883"/>
	<line style="fill:none;stroke:#000000;stroke-miterlimit:1;" x1="150.583" y1="113.883" x2="151.241" y2="129.682"/>
	<line style="fill:none;stroke:#000000;stroke-miterlimit:1;" x1="151.241" y1="129.682" x2="152.229" y2="134.619"/>
	<line style="fill:none;stroke:#000000;stroke-miterlimit:1;" x1="152.229" y1="134.619" x2="152.887" y2="138.568"/>
	<line style="fill:none;stroke:#000000;stroke-miterlimit:1;" x1="152.887" y1="138.568" x2="152.558" y2="142.52"/>
	<line style="fill:none;stroke:#000000;stroke-miterlimit:1;" x1="152.558" y1="142.52" x2="150.583" y2="145.152"/>
	<line style="fill:none;stroke:#000000;stroke-miterlimit:1;" x1="150.583" y1="145.152" x2="147.621" y2="147.127"/>
	<line style="fill:none;stroke:#000000;stroke-miterlimit:1;" x1="147.621" y1="147.127" x2="144" y2="147.785"/>
	<line style="fill:none;stroke:#000000;stroke-miterlimit:1;" x1="144" y1="147.785" x2="137.417" y2="146.139"/>
	<line style="fill:none;stroke:#000000;stroke-miterlimit:1;" x1="137.417" y1="146.139" x2="134.784" y2="144.164"/>
	<line style="fill:none;stroke:#000000;stroke-miterlimit:1;" x1="134.784" y1="144.164" x2="130.505" y2="143.178"/>
	<line style="fill:none;stroke:#000000;stroke-miterlimit:1;" x1="130.505" y1="143.178" x2="120.631" y2="148.115"/>
	<line style="fill:none;stroke:#000000;stroke-miterlimit:1;" x1="120.631" y1="148.115" x2="79.817" y2="147.785"/>
	<line style="fill:none;stroke:#000000;stroke-miterlimit:1;" x1="79.817" y1="147.785" x2="78.171" y2="142.52"/>
	<line style="fill:none;stroke:#000000;stroke-miterlimit:1;" x1="78.171" y1="142.52" x2="79.488" y2="139.885"/>
	<line style="fill:none;stroke:#000000;stroke-miterlimit:1;" x1="79.488" y1="139.885" x2="83.108" y2="139.227"/>
	<line style="fill:none;stroke:#000000;stroke-miterlimit:1;" x1="83.108" y1="139.227" x2="97.262" y2="136.266"/>
	<line style="fill:none;stroke:#000000;stroke-miterlimit:1;" x1="97.262" y1="136.266" x2="109.111" y2="130.34"/>
	<line style="fill:none;stroke:#000000;stroke-miterlimit:1;" x1="109.111" y1="130.34" x2="117.01" y2="127.379"/>
	<line style="fill:none;stroke:#000000;stroke-miterlimit:1;" x1="117.01" y1="127.379" x2="123.922" y2="125.732"/>
	<line style="fill:none;stroke:#000000;stroke-miterlimit:1;" x1="123.922" y1="125.732" x2="128.859" y2="121.453"/>
	<line style="fill:none;stroke:#000000;stroke-miterlimit:1;" x1="128.859" y1="121.453" x2="130.505" y2="117.176"/>
	<line style="fill:none;stroke:#000000;stroke-miterlimit:1;" x1="130.505" y1="117.176" x2="130.834" y2="112.566"/>
	<line style="fill:none;stroke:#000000;stroke-miterlimit:1;" x1="130.834" y1="112.566" x2="130.176" y2="105.654"/>
	<line style="fill:none;stroke:#000000;stroke-miterlimit:1;" x1="130.176" y1="105.654" x2="129.847" y2="96.439"/>
	<line style="fill:none;stroke:#000000;stroke-miterlimit:1;" x1="129.847" y1="96.439" x2="129.188" y2="71.424"/>
	<line style="fill:none;stroke:#000000;stroke-miterlimit:1;" x1="129.188" y1="71.424" x2="128.859" y2="46.409"/>
	<line style="fill:none;stroke:#000000;stroke-miterlimit:1;" x1="128.859" y1="46.409" x2="126.227" y2="0"/>
	<line style="fill:none;stroke:#000000;stroke-miterlimit:1;" x1="126.227" y1="0" x2="156.507" y2="0"/>
	<line style="fill:none;stroke:#000000;stroke-miterlimit:1;" x1="203.979" y1="10.683" x2="201.221" y2="12.062"/>
	<line style="fill:none;stroke:#000000;stroke-miterlimit:1;" x1="201.221" y1="12.062" x2="199.153" y2="14.59"/>
	<line style="fill:none;stroke:#000000;stroke-miterlimit:1;" x1="199.153" y1="14.59" x2="198.463" y2="16.659"/>
	<line style="fill:none;stroke:#000000;stroke-miterlimit:1;" x1="198.463" y1="16.659" x2="198.003" y2="18.728"/>
	<line style="fill:none;stroke:#000000;stroke-miterlimit:1;" x1="198.003" y1="18.728" x2="198.693" y2="21.946"/>
	<line style="fill:none;stroke:#000000;stroke-miterlimit:1;" x1="198.693" y1="21.946" x2="200.302" y2="24.014"/>
	<line style="fill:none;stroke:#000000;stroke-miterlimit:1;" x1="200.302" y1="24.014" x2="201.911" y2="25.394"/>
	<line style="fill:none;stroke:#000000;stroke-miterlimit:1;" x1="201.911" y1="25.394" x2="204.669" y2="26.313"/>
	<line style="fill:none;stroke:#000000;stroke-miterlimit:1;" x1="204.669" y1="26.313" x2="206.738" y2="27.002"/>
	<line style="fill:none;stroke:#000000;stroke-miterlimit:1;" x1="206.738" y1="27.002" x2="209.266" y2="27.002"/>
	<line style="fill:none;stroke:#000000;stroke-miterlimit:1;" x1="209.266" y1="27.002" x2="212.024" y2="25.853"/>
	<line style="fill:none;stroke:#000000;stroke-miterlimit:1;" x1="212.024" y1="25.853" x2="214.323" y2="24.704"/>
	<line style="fill:none;stroke:#000000;stroke-miterlimit:1;" x1="214.323" y1="24.704" x2="215.702" y2="23.095"/>
	<line style="fill:none;stroke:#000000;stroke-miterlimit:1;" x1="215.702" y1="23.095" x2="217.312" y2="20.796"/>
	<line style="fill:none;stroke:#000000;stroke-miterlimit:1;" x1="217.312" y1="20.796" x2="218.46" y2="18.038"/>
	<line style="fill:none;stroke:#000000;stroke-miterlimit:1;" x1="218.46" y1="18.038" x2="219.15" y2="15.739"/>
	<line style="fill:none;stroke:#000000;stroke-miterlimit:1;" x1="219.15" y1="15.739" x2="219.38" y2="13.441"/>
	<line style="fill:none;stroke:#000000;stroke-miterlimit:1;" x1="219.38" y1="13.441" x2="219.15" y2="11.832"/>
	<line style="fill:none;stroke:#000000;stroke-miterlimit:1;" x1="219.15" y1="11.832" x2="218.69" y2="9.074"/>
	<line style="fill:none;stroke:#000000;stroke-miterlimit:1;" x1="218.69" y1="9.074" x2="217.541" y2="6.775"/>
	<line style="fill:none;stroke:#000000;stroke-miterlimit:1;" x1="217.541" y1="6.775" x2="215.702" y2="4.477"/>
	<line style="fill:none;stroke:#000000;stroke-miterlimit:1;" x1="215.702" y1="4.477" x2="213.863" y2="2.868"/>
	<line style="fill:none;stroke:#000000;stroke-miterlimit:1;" x1="213.863" y1="2.868" x2="212.254" y2="2.178"/>
	<line style="fill:none;stroke:#000000;stroke-miterlimit:1;" x1="212.254" y1="2.178" x2="210.646" y2="1.488"/>
	<line style="fill:none;stroke:#000000;stroke-miterlimit:1;" x1="210.646" y1="1.488" x2="208.347" y2="1.258"/>
	<line style="fill:none;stroke:#000000;stroke-miterlimit:1;" x1="208.347" y1="1.258" x2="206.508" y2="1.029"/>
	<line style="fill:none;stroke:#000000;stroke-miterlimit:1;" x1="206.508" y1="1.029" x2="204.209" y2="1.029"/>
	<line style="fill:none;stroke:#000000;stroke-miterlimit:1;" x1="204.209" y1="1.029" x2="201.451" y2="1.258"/>
	<line style="fill:none;stroke:#000000;stroke-miterlimit:1;" x1="201.451" y1="1.258" x2="198.463" y2="2.178"/>
	<line style="fill:none;stroke:#000000;stroke-miterlimit:1;" x1="198.463" y1="2.178" x2="195.935" y2="3.557"/>
	<line style="fill:none;stroke:#000000;stroke-miterlimit:1;" x1="195.935" y1="3.557" x2="194.326" y2="4.936"/>
	<line style="fill:none;stroke:#000000;stroke-miterlimit:1;" x1="194.326" y1="4.936" x2="192.487" y2="6.545"/>
	<line style="fill:none;stroke:#000000;stroke-miterlimit:1;" x1="192.487" y1="6.545" x2="191.107" y2="8.154"/>
	<line style="fill:none;stroke:#000000;stroke-miterlimit:1;" x1="191.107" y1="8.154" x2="189.729" y2="10.683"/>
	<line style="fill:none;stroke:#000000;stroke-miterlimit:1;" x1="189.729" y1="10.683" x2="188.349" y2="13.211"/>
	<line style="fill:none;stroke:#000000;stroke-miterlimit:1;" x1="188.349" y1="13.211" x2="187.89" y2="15.51"/>
	<line style="fill:none;stroke:#000000;stroke-miterlimit:1;" x1="187.89" y1="15.51" x2="187.43" y2="18.728"/>
	<line style="fill:none;stroke:#000000;stroke-miterlimit:1;" x1="187.43" y1="18.728" x2="187.2" y2="21.946"/>
	<line style="fill:none;stroke:#000000;stroke-miterlimit:1;" x1="187.2" y1="21.946" x2="187.43" y2="24.474"/>
	<line style="fill:none;stroke:#000000;stroke-miterlimit:1;" x1="187.43" y1="24.474" x2="187.66" y2="28.152"/>
	<line style="fill:none;stroke:#000000;stroke-miterlimit:1;" x1="187.66" y1="28.152" x2="189.039" y2="31.83"/>
	<line style="fill:none;stroke:#000000;stroke-miterlimit:1;" x1="189.039" y1="31.83" x2="191.107" y2="35.967"/>
	<line style="fill:none;stroke:#000000;stroke-miterlimit:1;" x1="191.107" y1="35.967" x2="194.785" y2="40.794"/>
	<line style="fill:none;stroke:#000000;stroke-miterlimit:1;" x1="194.785" y1="40.794" x2="200.532" y2="46.311"/>
	<line style="fill:none;stroke:#000000;stroke-miterlimit:1;" x1="200.532" y1="46.311" x2="208.807" y2="52.976"/>
	<line style="fill:none;stroke:#000000;stroke-miterlimit:1;" x1="208.807" y1="52.976" x2="226.735" y2="63.09"/>
	<line style="fill:none;stroke:#000000;stroke-miterlimit:1;" x1="243.946" y1="1.747" x2="262.335" y2="43.121"/>
	<line style="fill:none;stroke:#000000;stroke-miterlimit:1;" x1="262.335" y1="43.121" x2="271.529" y2="43.121"/>
	<line style="fill:none;stroke:#000000;stroke-miterlimit:1;" x1="271.529" y1="43.121" x2="253.141" y2="1.747"/>
	<line style="fill:none;stroke:#000000;stroke-miterlimit:1;" x1="253.141" y1="1.747" x2="243.946" y2="1.747"/>
	<line style="fill:none;stroke:#000000;stroke-miterlimit:1;" x1="271.759" y1="1.747" x2="290.147" y2="43.121"/>
	<line style="fill:none;stroke:#000000;stroke-miterlimit:1;" x1="290.147" y1="43.121" x2="299.342" y2="43.121"/>
	<line style="fill:none;stroke:#000000;stroke-miterlimit:1;" x1="299.342" y1="43.121" x2="280.953" y2="1.747"/>
	<line style="fill:none;stroke:#000000;stroke-miterlimit:1;" x1="280.953" y1="1.747" x2="271.759" y2="1.747"/>
	<line style="fill:none;stroke:#000000;stroke-miterlimit:1;" x1="277.103" y1="109.607" x2="279.172" y2="114.434"/>
	<line style="fill:none;stroke:#000000;stroke-miterlimit:1;" x1="279.172" y1="114.434" x2="282.619" y2="119.031"/>
	<line style="fill:none;stroke:#000000;stroke-miterlimit:1;" x1="282.619" y1="119.031" x2="290.205" y2="123.859"/>
	<line style="fill:none;stroke:#000000;stroke-miterlimit:1;" x1="290.205" y1="123.859" x2="291.584" y2="125.238"/>
	<line style="fill:none;stroke:#000000;stroke-miterlimit:1;" x1="291.584" y1="125.238" x2="292.044" y2="127.537"/>
	<line style="fill:none;stroke:#000000;stroke-miterlimit:1;" x1="292.044" y1="127.537" x2="292.273" y2="142.248"/>
	<line style="fill:none;stroke:#000000;stroke-miterlimit:1;" x1="292.273" y1="142.248" x2="290.664" y2="144.086"/>
	<line style="fill:none;stroke:#000000;stroke-miterlimit:1;" x1="290.664" y1="144.086" x2="289.056" y2="146.385"/>
	<line style="fill:none;stroke:#000000;stroke-miterlimit:1;" x1="289.056" y1="146.385" x2="288.596" y2="148.912"/>
	<line style="fill:none;stroke:#000000;stroke-miterlimit:1;" x1="288.596" y1="148.912" x2="290.895" y2="148.223"/>
	<line style="fill:none;stroke:#000000;stroke-miterlimit:1;" x1="290.435" y1="144.775" x2="294.572" y2="144.775"/>
	<line style="fill:none;stroke:#000000;stroke-miterlimit:1;" x1="292.273" y1="145.234" x2="291.124" y2="148.684"/>
	<line style="fill:none;stroke:#000000;stroke-miterlimit:1;" x1="291.124" y1="148.684" x2="294.112" y2="148.684"/>
	<line style="fill:none;stroke:#000000;stroke-miterlimit:1;" x1="294.112" y1="148.684" x2="294.802" y2="144.775"/>
	<line style="fill:none;stroke:#000000;stroke-miterlimit:1;" x1="294.802" y1="144.775" x2="296.871" y2="143.855"/>
	<line style="fill:none;stroke:#000000;stroke-miterlimit:1;" x1="296.871" y1="143.855" x2="297.561" y2="142.477"/>
	<line style="fill:none;stroke:#000000;stroke-miterlimit:1;" x1="297.561" y1="142.477" x2="296.871" y2="132.594"/>
	<line style="fill:none;stroke:#000000;stroke-miterlimit:1;" x1="296.871" y1="132.594" x2="298.02" y2="123.17"/>
	<line style="fill:none;stroke:#000000;stroke-miterlimit:1;" x1="298.02" y1="123.17" x2="297.79" y2="121.1"/>
	<line style="fill:none;stroke:#000000;stroke-miterlimit:1;" x1="297.79" y1="121.1" x2="295.951" y2="117.422"/>
	<line style="fill:none;stroke:#000000;stroke-miterlimit:1;" x1="295.951" y1="117.422" x2="295.262" y2="113.744"/>
	<line style="fill:none;stroke:#000000;stroke-miterlimit:1;" x1="295.262" y1="113.744" x2="297.561" y2="100.873"/>
	<line style="fill:none;stroke:#000000;stroke-miterlimit:1;" x1="297.561" y1="100.873" x2="297.33" y2="97.654"/>
	<line style="fill:none;stroke:#000000;stroke-miterlimit:1;" x1="297.33" y1="97.654" x2="294.572" y2="94.207"/>
	<line style="fill:none;stroke:#000000;stroke-miterlimit:1;" x1="297.79" y1="101.332" x2="297.79" y2="116.732"/>
	<line style="fill:none;stroke:#000000;stroke-miterlimit:1;" x1="297.79" y1="116.732" x2="298.939" y2="123.398"/>
	<line style="fill:none;stroke:#000000;stroke-miterlimit:1;" x1="298.939" y1="123.398" x2="303.307" y2="131.674"/>
	<line style="fill:none;stroke:#000000;stroke-miterlimit:1;" x1="303.307" y1="131.674" x2="303.767" y2="126.848"/>
	<line style="fill:none;stroke:#000000;stroke-miterlimit:1;" x1="303.767" y1="126.848" x2="302.847" y2="122.02"/>
	<line style="fill:none;stroke:#000000;stroke-miterlimit:1;" x1="302.847" y1="122.02" x2="301.008" y2="118.572"/>
	<line style="fill:none;stroke:#000000;stroke-miterlimit:1;" x1="301.008" y1="118.572" x2="299.859" y2="112.826"/>
	<line style="fill:none;stroke:#000000;stroke-miterlimit:1;" x1="299.859" y1="112.826" x2="299.629" y2="97.195"/>
	<line style="fill:none;stroke:#000000;stroke-miterlimit:1;" x1="299.629" y1="97.195" x2="298.25" y2="93.977"/>
	<line style="fill:none;stroke:#000000;stroke-miterlimit:1;" x1="298.25" y1="93.977" x2="296.411" y2="92.598"/>
	<line style="fill:none;stroke:#000000;stroke-miterlimit:1;" x1="296.411" y1="92.598" x2="291.124" y2="90.76"/>
	<line style="fill:none;stroke:#000000;stroke-miterlimit:1;" x1="291.124" y1="90.76" x2="284.458" y2="89.84"/>
	<line style="fill:none;stroke:#000000;stroke-miterlimit:1;" x1="284.458" y1="89.84" x2="277.103" y2="89.84"/>
	<line style="fill:none;stroke:#000000;stroke-miterlimit:1;" x1="277.103" y1="89.84" x2="261.473" y2="92.598"/>
	<line style="fill:none;stroke:#000000;stroke-miterlimit:1;" x1="261.473" y1="92.598" x2="252.968" y2="93.059"/>
	<line style="fill:none;stroke:#000000;stroke-miterlimit:1;" x1="252.968" y1="93.059" x2="244.004" y2="92.828"/>
	<line style="fill:none;stroke:#000000;stroke-miterlimit:1;" x1="244.004" y1="92.828" x2="226.534" y2="88"/>
	<line style="fill:none;stroke:#000000;stroke-miterlimit:1;" x1="226.534" y1="88" x2="216.42" y2="86.162"/>
	<line style="fill:none;stroke:#000000;stroke-miterlimit:1;" x1="210.674" y1="88.689" x2="212.743" y2="88"/>
	<line style="fill:none;stroke:#000000;stroke-miterlimit:1;" x1="212.743" y1="88" x2="215.042" y2="88"/>
	<line style="fill:none;stroke:#000000;stroke-miterlimit:1;" x1="215.042" y1="88" x2="217.34" y2="83.633"/>
	<line style="fill:none;stroke:#000000;stroke-miterlimit:1;" x1="217.34" y1="83.633" x2="215.042" y2="83.404"/>
	<line style="fill:none;stroke:#000000;stroke-miterlimit:1;" x1="215.042" y1="83.404" x2="212.283" y2="84.094"/>
	<line style="fill:none;stroke:#000000;stroke-miterlimit:1;" x1="212.283" y1="84.094" x2="210.674" y2="86.162"/>
	<line style="fill:none;stroke:#000000;stroke-miterlimit:1;" x1="210.674" y1="86.162" x2="209.065" y2="86.852"/>
	<line style="fill:none;stroke:#000000;stroke-miterlimit:1;" x1="211.824" y1="84.553" x2="211.134" y2="84.322"/>
	<line style="fill:none;stroke:#000000;stroke-miterlimit:1;" x1="210.214" y1="85.012" x2="213.203" y2="82.943"/>
	<line style="fill:none;stroke:#000000;stroke-miterlimit:1;" x1="213.203" y1="82.943" x2="215.271" y2="80.645"/>
	<line style="fill:none;stroke:#000000;stroke-miterlimit:1;" x1="215.271" y1="80.645" x2="216.88" y2="76.049"/>
	<line style="fill:none;stroke:#000000;stroke-miterlimit:1;" x1="216.88" y1="76.049" x2="216.88" y2="73.29"/>
	<line style="fill:none;stroke:#000000;stroke-miterlimit:1;" x1="216.88" y1="73.29" x2="216.42" y2="68.923"/>
	<line style="fill:none;stroke:#000000;stroke-miterlimit:1;" x1="216.42" y1="68.923" x2="215.042" y2="66.394"/>
	<line style="fill:none;stroke:#000000;stroke-miterlimit:1;" x1="215.042" y1="66.394" x2="214.812" y2="72.83"/>
	<line style="fill:none;stroke:#000000;stroke-miterlimit:1;" x1="214.812" y1="72.83" x2="213.662" y2="77.197"/>
	<line style="fill:none;stroke:#000000;stroke-miterlimit:1;" x1="213.662" y1="77.197" x2="210.904" y2="80.645"/>
	<line style="fill:none;stroke:#000000;stroke-miterlimit:1;" x1="210.904" y1="80.645" x2="206.307" y2="83.404"/>
	<line style="fill:none;stroke:#000000;stroke-miterlimit:1;" x1="206.307" y1="83.404" x2="206.767" y2="85.012"/>
	<line style="fill:none;stroke:#000000;stroke-miterlimit:1;" x1="207.686" y1="82.715" x2="206.077" y2="82.254"/>
	<line style="fill:none;stroke:#000000;stroke-miterlimit:1;" x1="206.077" y1="82.254" x2="203.089" y2="82.254"/>
	<line style="fill:none;stroke:#000000;stroke-miterlimit:1;" x1="203.089" y1="82.254" x2="201.02" y2="82.484"/>
	<line style="fill:none;stroke:#000000;stroke-miterlimit:1;" x1="201.02" y1="82.484" x2="199.871" y2="83.404"/>
	<line style="fill:none;stroke:#000000;stroke-miterlimit:1;" x1="199.871" y1="83.404" x2="198.952" y2="85.242"/>
	<line style="fill:none;stroke:#000000;stroke-miterlimit:1;" x1="198.952" y1="85.242" x2="197.572" y2="88"/>
	<line style="fill:none;stroke:#000000;stroke-miterlimit:1;" x1="197.572" y1="88" x2="193.895" y2="91.219"/>
	<line style="fill:none;stroke:#000000;stroke-miterlimit:1;" x1="193.895" y1="91.219" x2="191.136" y2="93.518"/>
	<line style="fill:none;stroke:#000000;stroke-miterlimit:1;" x1="191.136" y1="93.518" x2="188.608" y2="95.127"/>
	<line style="fill:none;stroke:#000000;stroke-miterlimit:1;" x1="188.608" y1="95.127" x2="187.918" y2="96.506"/>
	<line style="fill:none;stroke:#000000;stroke-miterlimit:1;" x1="187.918" y1="96.506" x2="188.838" y2="98.805"/>
	<line style="fill:none;stroke:#000000;stroke-miterlimit:1;" x1="188.838" y1="98.805" x2="191.366" y2="101.332"/>
	<line style="fill:none;stroke:#000000;stroke-miterlimit:1;" x1="191.366" y1="101.332" x2="196.193" y2="101.104"/>
	<line style="fill:none;stroke:#000000;stroke-miterlimit:1;" x1="193.205" y1="98.115" x2="191.136" y2="98.115"/>
	<line style="fill:none;stroke:#000000;stroke-miterlimit:1;" x1="191.136" y1="98.115" x2="192.056" y2="99.264"/>
	<line style="fill:none;stroke:#000000;stroke-miterlimit:1;" x1="201.25" y1="91.908" x2="202.169" y2="91.678"/>
	<line style="fill:none;stroke:#000000;stroke-miterlimit:1;" x1="202.169" y1="91.678" x2="203.089" y2="90.299"/>
	<line style="fill:none;stroke:#000000;stroke-miterlimit:1;" x1="203.089" y1="90.299" x2="204.008" y2="90.299"/>
	<line style="fill:none;stroke:#000000;stroke-miterlimit:1;" x1="204.008" y1="90.299" x2="205.388" y2="92.367"/>
	<line style="fill:none;stroke:#000000;stroke-miterlimit:1;" x1="204.698" y1="91.449" x2="203.778" y2="92.139"/>
	<line style="fill:none;stroke:#000000;stroke-miterlimit:1;" x1="203.778" y1="92.139" x2="203.089" y2="92.139"/>
	<line style="fill:none;stroke:#000000;stroke-miterlimit:1;" x1="203.089" y1="92.139" x2="202.169" y2="91.219"/>
	<line style="fill:none;stroke:#000000;stroke-miterlimit:1;" x1="200.331" y1="82.484" x2="197.802" y2="81.336"/>
	<line style="fill:none;stroke:#000000;stroke-miterlimit:1;" x1="197.802" y1="81.336" x2="194.814" y2="78.807"/>
	<line style="fill:none;stroke:#000000;stroke-miterlimit:1;" x1="194.814" y1="78.807" x2="193.435" y2="76.049"/>
	<line style="fill:none;stroke:#000000;stroke-miterlimit:1;" x1="193.435" y1="76.049" x2="192.975" y2="73.06"/>
	<line style="fill:none;stroke:#000000;stroke-miterlimit:1;" x1="192.975" y1="73.06" x2="193.895" y2="66.854"/>
	<line style="fill:none;stroke:#000000;stroke-miterlimit:1;" x1="193.895" y1="66.854" x2="192.056" y2="68.693"/>
	<line style="fill:none;stroke:#000000;stroke-miterlimit:1;" x1="192.056" y1="68.693" x2="190.447" y2="73.06"/>
	<line style="fill:none;stroke:#000000;stroke-miterlimit:1;" x1="190.447" y1="73.06" x2="190.447" y2="77.658"/>
	<line style="fill:none;stroke:#000000;stroke-miterlimit:1;" x1="190.447" y1="77.658" x2="192.975" y2="81.795"/>
	<line style="fill:none;stroke:#000000;stroke-miterlimit:1;" x1="192.975" y1="81.795" x2="195.733" y2="83.863"/>
	<line style="fill:none;stroke:#000000;stroke-miterlimit:1;" x1="195.733" y1="83.863" x2="198.952" y2="85.242"/>
	<line style="fill:none;stroke:#000000;stroke-miterlimit:1;" x1="188.378" y1="98.115" x2="188.148" y2="99.723"/>
	<line style="fill:none;stroke:#000000;stroke-miterlimit:1;" x1="188.148" y1="99.723" x2="190.677" y2="102.711"/>
	<line style="fill:none;stroke:#000000;stroke-miterlimit:1;" x1="190.677" y1="102.711" x2="193.435" y2="103.4"/>
	<line style="fill:none;stroke:#000000;stroke-miterlimit:1;" x1="193.435" y1="103.4" x2="197.342" y2="102.711"/>
	<line style="fill:none;stroke:#000000;stroke-miterlimit:1;" x1="197.342" y1="102.711" x2="201.25" y2="102.021"/>
	<line style="fill:none;stroke:#000000;stroke-miterlimit:1;" x1="201.25" y1="102.021" x2="208.375" y2="101.793"/>
	<line style="fill:none;stroke:#000000;stroke-miterlimit:1;" x1="208.375" y1="101.793" x2="211.134" y2="99.953"/>
	<line style="fill:none;stroke:#000000;stroke-miterlimit:1;" x1="211.134" y1="99.953" x2="213.892" y2="97.195"/>
	<line style="fill:none;stroke:#000000;stroke-miterlimit:1;" x1="208.605" y1="101.793" x2="211.134" y2="107.768"/>
	<line style="fill:none;stroke:#000000;stroke-miterlimit:1;" x1="211.134" y1="107.768" x2="213.433" y2="114.434"/>
	<line style="fill:none;stroke:#000000;stroke-miterlimit:1;" x1="213.433" y1="114.434" x2="216.42" y2="119.262"/>
	<line style="fill:none;stroke:#000000;stroke-miterlimit:1;" x1="216.42" y1="119.262" x2="221.018" y2="122.939"/>
	<line style="fill:none;stroke:#000000;stroke-miterlimit:1;" x1="221.018" y1="122.939" x2="224.926" y2="124.777"/>
	<line style="fill:none;stroke:#000000;stroke-miterlimit:1;" x1="224.926" y1="124.777" x2="230.672" y2="125.697"/>
	<line style="fill:none;stroke:#000000;stroke-miterlimit:1;" x1="239.177" y1="122.939" x2="241.475" y2="122.25"/>
	<line style="fill:none;stroke:#000000;stroke-miterlimit:1;" x1="241.475" y1="122.25" x2="244.004" y2="122.02"/>
	<line style="fill:none;stroke:#000000;stroke-miterlimit:1;" x1="244.004" y1="122.02" x2="247.222" y2="122.709"/>
	<line style="fill:none;stroke:#000000;stroke-miterlimit:1;" x1="247.222" y1="122.709" x2="250.21" y2="122.939"/>
	<line style="fill:none;stroke:#000000;stroke-miterlimit:1;" x1="250.21" y1="122.939" x2="254.807" y2="122.939"/>
	<line style="fill:none;stroke:#000000;stroke-miterlimit:1;" x1="254.807" y1="122.939" x2="260.323" y2="122.939"/>
	<line style="fill:none;stroke:#000000;stroke-miterlimit:1;" x1="260.323" y1="122.939" x2="264.69" y2="123.859"/>
	<line style="fill:none;stroke:#000000;stroke-miterlimit:1;" x1="263.771" y1="125.008" x2="266.3" y2="123.859"/>
	<line style="fill:none;stroke:#000000;stroke-miterlimit:1;" x1="266.3" y1="123.859" x2="269.288" y2="122.709"/>
	<line style="fill:none;stroke:#000000;stroke-miterlimit:1;" x1="269.288" y1="122.709" x2="277.562" y2="120.641"/>
	<line style="fill:none;stroke:#000000;stroke-miterlimit:1;" x1="277.562" y1="120.641" x2="284.918" y2="120.182"/>
	<line style="fill:none;stroke:#000000;stroke-miterlimit:1;" x1="222.396" y1="105.699" x2="222.856" y2="110.986"/>
	<line style="fill:none;stroke:#000000;stroke-miterlimit:1;" x1="222.856" y1="110.986" x2="224.926" y2="116.732"/>
	<line style="fill:none;stroke:#000000;stroke-miterlimit:1;" x1="224.926" y1="116.732" x2="229.752" y2="123.17"/>
	<line style="fill:none;stroke:#000000;stroke-miterlimit:1;" x1="229.752" y1="123.17" x2="230.672" y2="124.777"/>
	<line style="fill:none;stroke:#000000;stroke-miterlimit:1;" x1="230.672" y1="124.777" x2="230.672" y2="126.617"/>
	<line style="fill:none;stroke:#000000;stroke-miterlimit:1;" x1="230.672" y1="126.617" x2="229.752" y2="139.488"/>
	<line style="fill:none;stroke:#000000;stroke-miterlimit:1;" x1="229.752" y1="139.488" x2="228.833" y2="141.328"/>
	<line style="fill:none;stroke:#000000;stroke-miterlimit:1;" x1="228.833" y1="141.328" x2="226.074" y2="145.926"/>
	<line style="fill:none;stroke:#000000;stroke-miterlimit:1;" x1="226.074" y1="145.926" x2="224.695" y2="149.143"/>
	<line style="fill:none;stroke:#000000;stroke-miterlimit:1;" x1="224.695" y1="149.143" x2="226.994" y2="148.223"/>
	<line style="fill:none;stroke:#000000;stroke-miterlimit:1;" x1="226.305" y1="145.695" x2="230.901" y2="145.926"/>
	<line style="fill:none;stroke:#000000;stroke-miterlimit:1;" x1="227.684" y1="145.926" x2="226.994" y2="149.143"/>
	<line style="fill:none;stroke:#000000;stroke-miterlimit:1;" x1="226.994" y1="149.143" x2="231.132" y2="148.223"/>
	<line style="fill:none;stroke:#000000;stroke-miterlimit:1;" x1="231.132" y1="148.223" x2="231.591" y2="145.234"/>
	<line style="fill:none;stroke:#000000;stroke-miterlimit:1;" x1="231.591" y1="145.234" x2="233.43" y2="144.545"/>
	<line style="fill:none;stroke:#000000;stroke-miterlimit:1;" x1="233.43" y1="144.545" x2="234.35" y2="143.166"/>
	<line style="fill:none;stroke:#000000;stroke-miterlimit:1;" x1="234.35" y1="143.166" x2="234.35" y2="141.787"/>
	<line style="fill:none;stroke:#000000;stroke-miterlimit:1;" x1="234.35" y1="141.787" x2="235.039" y2="135.352"/>
	<line style="fill:none;stroke:#000000;stroke-miterlimit:1;" x1="235.039" y1="135.352" x2="237.338" y2="126.848"/>
	<line style="fill:none;stroke:#000000;stroke-miterlimit:1;" x1="237.338" y1="126.848" x2="238.946" y2="122.709"/>
	<line style="fill:none;stroke:#000000;stroke-miterlimit:1;" x1="238.946" y1="122.709" x2="239.637" y2="119.721"/>
	<line style="fill:none;stroke:#000000;stroke-miterlimit:1;" x1="239.637" y1="119.721" x2="238.257" y2="116.043"/>
	<line style="fill:none;stroke:#000000;stroke-miterlimit:1;" x1="220.098" y1="122.02" x2="215.731" y2="136.73"/>
	<line style="fill:none;stroke:#000000;stroke-miterlimit:1;" x1="215.731" y1="136.73" x2="214.122" y2="139.949"/>
	<line style="fill:none;stroke:#000000;stroke-miterlimit:1;" x1="214.122" y1="139.949" x2="211.364" y2="143.396"/>
	<line style="fill:none;stroke:#000000;stroke-miterlimit:1;" x1="211.364" y1="143.396" x2="208.605" y2="146.844"/>
	<line style="fill:none;stroke:#000000;stroke-miterlimit:1;" x1="208.605" y1="146.844" x2="207.686" y2="148.912"/>
	<line style="fill:none;stroke:#000000;stroke-miterlimit:1;" x1="207.686" y1="148.912" x2="209.755" y2="147.994"/>
	<line style="fill:none;stroke:#000000;stroke-miterlimit:1;" x1="210.214" y1="144.775" x2="214.352" y2="146.154"/>
	<line style="fill:none;stroke:#000000;stroke-miterlimit:1;" x1="211.134" y1="146.154" x2="209.525" y2="149.143"/>
	<line style="fill:none;stroke:#000000;stroke-miterlimit:1;" x1="209.525" y1="149.143" x2="213.662" y2="148.453"/>
	<line style="fill:none;stroke:#000000;stroke-miterlimit:1;" x1="213.662" y1="148.453" x2="214.582" y2="145.465"/>
	<line style="fill:none;stroke:#000000;stroke-miterlimit:1;" x1="214.582" y1="145.465" x2="216.42" y2="145.465"/>
	<line style="fill:none;stroke:#000000;stroke-miterlimit:1;" x1="216.42" y1="145.465" x2="217.8" y2="144.316"/>
	<line style="fill:none;stroke:#000000;stroke-miterlimit:1;" x1="217.8" y1="144.316" x2="219.869" y2="138.34"/>
	<line style="fill:none;stroke:#000000;stroke-miterlimit:1;" x1="219.869" y1="138.34" x2="222.396" y2="132.133"/>
	<line style="fill:none;stroke:#000000;stroke-miterlimit:1;" x1="222.396" y1="132.133" x2="225.615" y2="128.916"/>
	<line style="fill:none;stroke:#000000;stroke-miterlimit:1;" x1="225.615" y1="128.916" x2="226.305" y2="125.238"/>
	<line style="fill:none;stroke:#000000;stroke-miterlimit:1;" x1="269.288" y1="122.939" x2="270.207" y2="125.008"/>
	<line style="fill:none;stroke:#000000;stroke-miterlimit:1;" x1="270.207" y1="125.008" x2="269.748" y2="126.848"/>
	<line style="fill:none;stroke:#000000;stroke-miterlimit:1;" x1="269.748" y1="126.848" x2="261.933" y2="142.938"/>
	<line style="fill:none;stroke:#000000;stroke-miterlimit:1;" x1="261.933" y1="142.938" x2="260.094" y2="144.545"/>
	<line style="fill:none;stroke:#000000;stroke-miterlimit:1;" x1="260.094" y1="144.545" x2="258.255" y2="146.154"/>
	<line style="fill:none;stroke:#000000;stroke-miterlimit:1;" x1="258.255" y1="146.154" x2="256.876" y2="148.912"/>
	<line style="fill:none;stroke:#000000;stroke-miterlimit:1;" x1="256.876" y1="148.912" x2="258.944" y2="148.453"/>
	<line style="fill:none;stroke:#000000;stroke-miterlimit:1;" x1="258.944" y1="146.154" x2="263.541" y2="145.465"/>
	<line style="fill:none;stroke:#000000;stroke-miterlimit:1;" x1="259.863" y1="146.615" x2="258.944" y2="149.143"/>
	<line style="fill:none;stroke:#000000;stroke-miterlimit:1;" x1="258.944" y1="149.143" x2="263.541" y2="148.453"/>
	<line style="fill:none;stroke:#000000;stroke-miterlimit:1;" x1="263.541" y1="148.453" x2="263.771" y2="145.234"/>
	<line style="fill:none;stroke:#000000;stroke-miterlimit:1;" x1="263.771" y1="145.234" x2="266.07" y2="144.086"/>
	<line style="fill:none;stroke:#000000;stroke-miterlimit:1;" x1="266.07" y1="144.086" x2="272.276" y2="132.822"/>
	<line style="fill:none;stroke:#000000;stroke-miterlimit:1;" x1="272.276" y1="132.822" x2="275.724" y2="129.375"/>
	<line style="fill:none;stroke:#000000;stroke-miterlimit:1;" x1="275.724" y1="129.375" x2="276.184" y2="127.537"/>
	<line style="fill:none;stroke:#000000;stroke-miterlimit:1;" x1="276.184" y1="127.537" x2="278.022" y2="123.398"/>
	<line style="fill:none;stroke:#000000;stroke-miterlimit:1;" x1="278.022" y1="123.398" x2="280.321" y2="120.641"/>
	<line style="fill:none;stroke:#000000;stroke-miterlimit:1;" x1="326.058" y1="1.646" x2="326.058" y2="60.892"/>
	<line style="fill:none;stroke:#000000;stroke-miterlimit:1;" x1="326.058" y1="60.892" x2="336.59" y2="60.892"/>
	<line style="fill:none;stroke:#000000;stroke-miterlimit:1;" x1="336.59" y1="60.892" x2="336.59" y2="1.646"/>
	<line style="fill:none;stroke:#000000;stroke-miterlimit:1;" x1="336.59" y1="1.646" x2="326.058" y2="1.646"/>
	<line style="fill:none;stroke:#000000;stroke-miterlimit:1;" x1="378.72" y1="1.646" x2="378.72" y2="60.892"/>
	<line style="fill:none;stroke:#000000;stroke-miterlimit:1;" x1="378.72" y1="60.892" x2="389.582" y2="60.892"/>
	<line style="fill:none;stroke:#000000;stroke-miterlimit:1;" x1="389.582" y1="60.892" x2="389.582" y2="1.646"/>
	<line style="fill:none;stroke:#000000;stroke-miterlimit:1;" x1="389.582" y1="1.646" x2="378.72" y2="1.646"/>
	<line style="fill:none;stroke:#000000;stroke-miterlimit:1;" x1="432.041" y1="1.646" x2="432.041" y2="60.892"/>
	<line style="fill:none;stroke:#000000;stroke-miterlimit:1;" x1="432.041" y1="60.892" x2="442.574" y2="60.892"/>
	<line style="fill:none;stroke:#000000;stroke-miterlimit:1;" x1="442.574" y1="60.892" x2="442.574" y2="1.646"/>
	<line style="fill:none;stroke:#000000;stroke-miterlimit:1;" x1="442.574" y1="1.646" x2="432.041" y2="1.646"/>
</g>
</svg>
