<?xml version="1.0" encoding="iso-8859-1"?>
<!-- Generator: Adobe Illustrator 16.0.1, SVG Export Plug-In . SVG Version: 6.00 Build 0)  -->
<!DOCTYPE svg PUBLIC "-//W3C//DTD SVG 1.1//EN" "http://www.w3.org/Graphics/SVG/1.1/DTD/svg11.dtd">
<svg version="1.1" id="Ebene_1" xmlns="http://www.w3.org/2000/svg" xmlns:xlink="http://www.w3.org/1999/xlink" x="0px" y="0px"
	 width="223.365px" height="150.172px" viewBox="0 0 223.365 150.172" style="enable-background:new 0 0 223.365 150.172;"
	 xml:space="preserve">
<g>
	<line style="fill:none;stroke:#000000;stroke-miterlimit:1;" x1="33.573" y1="61.632" x2="33.573" y2="150.172"/>
	<line style="fill:none;stroke:#000000;stroke-miterlimit:1;" x1="33.573" y1="150.172" x2="40.485" y2="150.172"/>
	<line style="fill:none;stroke:#000000;stroke-miterlimit:1;" x1="40.485" y1="150.172" x2="40.485" y2="61.632"/>
	<line style="fill:none;stroke:#000000;stroke-miterlimit:1;" x1="0" y1="61.303" x2="74.057" y2="61.303"/>
	<line style="fill:none;stroke:#000000;stroke-miterlimit:1;" x1="74.057" y1="61.303" x2="74.057" y2="37.934"/>
	<line style="fill:none;stroke:#000000;stroke-miterlimit:1;" x1="74.057" y1="37.934" x2="72.741" y2="35.301"/>
	<line style="fill:none;stroke:#000000;stroke-miterlimit:1;" x1="72.741" y1="35.301" x2="71.424" y2="33.655"/>
	<line style="fill:none;stroke:#000000;stroke-miterlimit:1;" x1="71.424" y1="33.655" x2="69.778" y2="33.655"/>
	<line style="fill:none;stroke:#000000;stroke-miterlimit:1;" x1="69.778" y1="33.655" x2="68.133" y2="33.655"/>
	<line style="fill:none;stroke:#000000;stroke-miterlimit:1;" x1="68.133" y1="33.655" x2="66.158" y2="33.984"/>
	<line style="fill:none;stroke:#000000;stroke-miterlimit:1;" x1="66.158" y1="33.984" x2="64.183" y2="35.301"/>
	<line style="fill:none;stroke:#000000;stroke-miterlimit:1;" x1="64.183" y1="35.301" x2="57.6" y2="41.225"/>
	<line style="fill:none;stroke:#000000;stroke-miterlimit:1;" x1="57.6" y1="41.225" x2="51.676" y2="46.492"/>
	<line style="fill:none;stroke:#000000;stroke-miterlimit:1;" x1="51.676" y1="46.492" x2="47.068" y2="48.795"/>
	<line style="fill:none;stroke:#000000;stroke-miterlimit:1;" x1="47.068" y1="48.795" x2="41.472" y2="50.112"/>
	<line style="fill:none;stroke:#000000;stroke-miterlimit:1;" x1="41.472" y1="50.112" x2="36.864" y2="50.441"/>
	<line style="fill:none;stroke:#000000;stroke-miterlimit:1;" x1="36.864" y1="50.441" x2="32.585" y2="50.112"/>
	<line style="fill:none;stroke:#000000;stroke-miterlimit:1;" x1="32.585" y1="50.112" x2="26.99" y2="48.795"/>
	<line style="fill:none;stroke:#000000;stroke-miterlimit:1;" x1="26.99" y1="48.795" x2="22.382" y2="46.492"/>
	<line style="fill:none;stroke:#000000;stroke-miterlimit:1;" x1="22.382" y1="46.492" x2="16.458" y2="41.225"/>
	<line style="fill:none;stroke:#000000;stroke-miterlimit:1;" x1="16.458" y1="41.225" x2="9.875" y2="35.301"/>
	<line style="fill:none;stroke:#000000;stroke-miterlimit:1;" x1="9.875" y1="35.301" x2="7.899" y2="33.984"/>
	<line style="fill:none;stroke:#000000;stroke-miterlimit:1;" x1="7.899" y1="33.984" x2="5.925" y2="33.655"/>
	<line style="fill:none;stroke:#000000;stroke-miterlimit:1;" x1="5.925" y1="33.655" x2="4.279" y2="33.655"/>
	<line style="fill:none;stroke:#000000;stroke-miterlimit:1;" x1="4.279" y1="33.655" x2="2.633" y2="33.655"/>
	<line style="fill:none;stroke:#000000;stroke-miterlimit:1;" x1="2.633" y1="33.655" x2="1.317" y2="35.301"/>
	<line style="fill:none;stroke:#000000;stroke-miterlimit:1;" x1="1.317" y1="35.301" x2="0" y2="37.934"/>
	<line style="fill:none;stroke:#000000;stroke-miterlimit:1;" x1="0" y1="37.934" x2="0" y2="61.303"/>
	<line style="fill:none;stroke:#000000;stroke-miterlimit:1;" x1="50.688" y1="46.492" x2="44.764" y2="7.653"/>
	<line style="fill:none;stroke:#000000;stroke-miterlimit:1;" x1="44.764" y1="7.653" x2="42.13" y2="4.361"/>
	<line style="fill:none;stroke:#000000;stroke-miterlimit:1;" x1="42.13" y1="4.361" x2="40.156" y2="3.045"/>
	<line style="fill:none;stroke:#000000;stroke-miterlimit:1;" x1="40.156" y1="3.045" x2="37.522" y2="2.057"/>
	<line style="fill:none;stroke:#000000;stroke-miterlimit:1;" x1="37.522" y1="2.057" x2="36.535" y2="2.057"/>
	<line style="fill:none;stroke:#000000;stroke-miterlimit:1;" x1="36.535" y1="2.057" x2="33.902" y2="3.045"/>
	<line style="fill:none;stroke:#000000;stroke-miterlimit:1;" x1="33.902" y1="3.045" x2="31.927" y2="4.361"/>
	<line style="fill:none;stroke:#000000;stroke-miterlimit:1;" x1="31.927" y1="4.361" x2="29.294" y2="7.653"/>
	<line style="fill:none;stroke:#000000;stroke-miterlimit:1;" x1="29.294" y1="7.653" x2="23.369" y2="46.492"/>
	<line style="fill:none;stroke:#000000;stroke-miterlimit:1;" x1="107.342" y1="47.767" x2="103.392" y2="49.742"/>
	<line style="fill:none;stroke:#000000;stroke-miterlimit:1;" x1="103.392" y1="49.742" x2="100.43" y2="53.362"/>
	<line style="fill:none;stroke:#000000;stroke-miterlimit:1;" x1="100.43" y1="53.362" x2="99.442" y2="56.325"/>
	<line style="fill:none;stroke:#000000;stroke-miterlimit:1;" x1="99.442" y1="56.325" x2="98.784" y2="59.287"/>
	<line style="fill:none;stroke:#000000;stroke-miterlimit:1;" x1="98.784" y1="59.287" x2="99.771" y2="63.895"/>
	<line style="fill:none;stroke:#000000;stroke-miterlimit:1;" x1="99.771" y1="63.895" x2="102.076" y2="66.857"/>
	<line style="fill:none;stroke:#000000;stroke-miterlimit:1;" x1="102.076" y1="66.857" x2="104.379" y2="68.832"/>
	<line style="fill:none;stroke:#000000;stroke-miterlimit:1;" x1="104.379" y1="68.832" x2="108.33" y2="70.149"/>
	<line style="fill:none;stroke:#000000;stroke-miterlimit:1;" x1="108.33" y1="70.149" x2="111.292" y2="71.136"/>
	<line style="fill:none;stroke:#000000;stroke-miterlimit:1;" x1="111.292" y1="71.136" x2="114.912" y2="71.136"/>
	<line style="fill:none;stroke:#000000;stroke-miterlimit:1;" x1="114.912" y1="71.136" x2="118.861" y2="69.49"/>
	<line style="fill:none;stroke:#000000;stroke-miterlimit:1;" x1="118.861" y1="69.49" x2="122.154" y2="67.845"/>
	<line style="fill:none;stroke:#000000;stroke-miterlimit:1;" x1="122.154" y1="67.845" x2="124.129" y2="65.541"/>
	<line style="fill:none;stroke:#000000;stroke-miterlimit:1;" x1="124.129" y1="65.541" x2="126.432" y2="62.25"/>
	<line style="fill:none;stroke:#000000;stroke-miterlimit:1;" x1="126.432" y1="62.25" x2="128.078" y2="58.3"/>
	<line style="fill:none;stroke:#000000;stroke-miterlimit:1;" x1="128.078" y1="58.3" x2="129.064" y2="55.008"/>
	<line style="fill:none;stroke:#000000;stroke-miterlimit:1;" x1="129.064" y1="55.008" x2="129.395" y2="51.717"/>
	<line style="fill:none;stroke:#000000;stroke-miterlimit:1;" x1="129.395" y1="51.717" x2="129.064" y2="49.413"/>
	<line style="fill:none;stroke:#000000;stroke-miterlimit:1;" x1="129.064" y1="49.413" x2="128.406" y2="45.463"/>
	<line style="fill:none;stroke:#000000;stroke-miterlimit:1;" x1="128.406" y1="45.463" x2="126.762" y2="42.171"/>
	<line style="fill:none;stroke:#000000;stroke-miterlimit:1;" x1="126.762" y1="42.171" x2="124.129" y2="38.88"/>
	<line style="fill:none;stroke:#000000;stroke-miterlimit:1;" x1="124.129" y1="38.88" x2="121.494" y2="36.576"/>
	<line style="fill:none;stroke:#000000;stroke-miterlimit:1;" x1="121.494" y1="36.576" x2="119.191" y2="35.589"/>
	<line style="fill:none;stroke:#000000;stroke-miterlimit:1;" x1="119.191" y1="35.589" x2="116.887" y2="34.601"/>
	<line style="fill:none;stroke:#000000;stroke-miterlimit:1;" x1="116.887" y1="34.601" x2="113.596" y2="34.272"/>
	<line style="fill:none;stroke:#000000;stroke-miterlimit:1;" x1="113.596" y1="34.272" x2="110.962" y2="33.943"/>
	<line style="fill:none;stroke:#000000;stroke-miterlimit:1;" x1="110.962" y1="33.943" x2="107.671" y2="33.943"/>
	<line style="fill:none;stroke:#000000;stroke-miterlimit:1;" x1="107.671" y1="33.943" x2="103.721" y2="34.272"/>
	<line style="fill:none;stroke:#000000;stroke-miterlimit:1;" x1="103.721" y1="34.272" x2="99.442" y2="35.589"/>
	<line style="fill:none;stroke:#000000;stroke-miterlimit:1;" x1="99.442" y1="35.589" x2="95.822" y2="37.563"/>
	<line style="fill:none;stroke:#000000;stroke-miterlimit:1;" x1="95.822" y1="37.563" x2="93.518" y2="39.539"/>
	<line style="fill:none;stroke:#000000;stroke-miterlimit:1;" x1="93.518" y1="39.539" x2="90.885" y2="41.842"/>
	<line style="fill:none;stroke:#000000;stroke-miterlimit:1;" x1="90.885" y1="41.842" x2="88.91" y2="44.146"/>
	<line style="fill:none;stroke:#000000;stroke-miterlimit:1;" x1="88.91" y1="44.146" x2="86.935" y2="47.767"/>
	<line style="fill:none;stroke:#000000;stroke-miterlimit:1;" x1="86.935" y1="47.767" x2="84.96" y2="51.388"/>
	<line style="fill:none;stroke:#000000;stroke-miterlimit:1;" x1="84.96" y1="51.388" x2="84.302" y2="54.679"/>
	<line style="fill:none;stroke:#000000;stroke-miterlimit:1;" x1="84.302" y1="54.679" x2="83.644" y2="59.287"/>
	<line style="fill:none;stroke:#000000;stroke-miterlimit:1;" x1="83.644" y1="59.287" x2="83.314" y2="63.895"/>
	<line style="fill:none;stroke:#000000;stroke-miterlimit:1;" x1="83.314" y1="63.895" x2="83.644" y2="67.516"/>
	<line style="fill:none;stroke:#000000;stroke-miterlimit:1;" x1="83.644" y1="67.516" x2="83.973" y2="72.782"/>
	<line style="fill:none;stroke:#000000;stroke-miterlimit:1;" x1="83.973" y1="72.782" x2="85.948" y2="78.049"/>
	<line style="fill:none;stroke:#000000;stroke-miterlimit:1;" x1="85.948" y1="78.049" x2="88.91" y2="83.973"/>
	<line style="fill:none;stroke:#000000;stroke-miterlimit:1;" x1="88.91" y1="83.973" x2="94.176" y2="90.885"/>
	<line style="fill:none;stroke:#000000;stroke-miterlimit:1;" x1="94.176" y1="90.885" x2="102.405" y2="98.785"/>
	<line style="fill:none;stroke:#000000;stroke-miterlimit:1;" x1="102.405" y1="98.785" x2="114.254" y2="108.33"/>
	<line style="fill:none;stroke:#000000;stroke-miterlimit:1;" x1="114.254" y1="108.33" x2="139.928" y2="122.812"/>
	<line style="fill:none;stroke:#000000;stroke-miterlimit:1;" x1="223.365" y1="0.329" x2="221.719" y2="33.573"/>
	<line style="fill:none;stroke:#000000;stroke-miterlimit:1;" x1="221.719" y1="33.573" x2="221.061" y2="61.879"/>
	<line style="fill:none;stroke:#000000;stroke-miterlimit:1;" x1="221.061" y1="61.879" x2="220.402" y2="83.602"/>
	<line style="fill:none;stroke:#000000;stroke-miterlimit:1;" x1="220.402" y1="83.602" x2="218.756" y2="99.072"/>
	<line style="fill:none;stroke:#000000;stroke-miterlimit:1;" x1="218.756" y1="99.072" x2="217.439" y2="113.883"/>
	<line style="fill:none;stroke:#000000;stroke-miterlimit:1;" x1="217.439" y1="113.883" x2="218.098" y2="129.682"/>
	<line style="fill:none;stroke:#000000;stroke-miterlimit:1;" x1="218.098" y1="129.682" x2="219.086" y2="134.619"/>
	<line style="fill:none;stroke:#000000;stroke-miterlimit:1;" x1="219.086" y1="134.619" x2="219.744" y2="138.568"/>
	<line style="fill:none;stroke:#000000;stroke-miterlimit:1;" x1="219.744" y1="138.568" x2="219.416" y2="142.52"/>
	<line style="fill:none;stroke:#000000;stroke-miterlimit:1;" x1="219.416" y1="142.52" x2="217.439" y2="145.152"/>
	<line style="fill:none;stroke:#000000;stroke-miterlimit:1;" x1="217.439" y1="145.152" x2="214.479" y2="147.127"/>
	<line style="fill:none;stroke:#000000;stroke-miterlimit:1;" x1="214.479" y1="147.127" x2="210.857" y2="147.785"/>
	<line style="fill:none;stroke:#000000;stroke-miterlimit:1;" x1="210.857" y1="147.785" x2="204.275" y2="146.139"/>
	<line style="fill:none;stroke:#000000;stroke-miterlimit:1;" x1="204.275" y1="146.139" x2="201.641" y2="144.164"/>
	<line style="fill:none;stroke:#000000;stroke-miterlimit:1;" x1="201.641" y1="144.164" x2="197.363" y2="143.178"/>
	<line style="fill:none;stroke:#000000;stroke-miterlimit:1;" x1="197.363" y1="143.178" x2="187.488" y2="148.115"/>
	<line style="fill:none;stroke:#000000;stroke-miterlimit:1;" x1="187.488" y1="148.115" x2="146.674" y2="147.785"/>
	<line style="fill:none;stroke:#000000;stroke-miterlimit:1;" x1="146.674" y1="147.785" x2="145.029" y2="142.52"/>
	<line style="fill:none;stroke:#000000;stroke-miterlimit:1;" x1="145.029" y1="142.52" x2="146.346" y2="139.887"/>
	<line style="fill:none;stroke:#000000;stroke-miterlimit:1;" x1="146.346" y1="139.887" x2="149.967" y2="139.229"/>
	<line style="fill:none;stroke:#000000;stroke-miterlimit:1;" x1="149.967" y1="139.229" x2="164.119" y2="136.266"/>
	<line style="fill:none;stroke:#000000;stroke-miterlimit:1;" x1="164.119" y1="136.266" x2="175.969" y2="130.34"/>
	<line style="fill:none;stroke:#000000;stroke-miterlimit:1;" x1="175.969" y1="130.34" x2="183.867" y2="127.379"/>
	<line style="fill:none;stroke:#000000;stroke-miterlimit:1;" x1="183.867" y1="127.379" x2="190.779" y2="125.732"/>
	<line style="fill:none;stroke:#000000;stroke-miterlimit:1;" x1="190.779" y1="125.732" x2="195.717" y2="121.453"/>
	<line style="fill:none;stroke:#000000;stroke-miterlimit:1;" x1="195.717" y1="121.453" x2="197.363" y2="117.176"/>
	<line style="fill:none;stroke:#000000;stroke-miterlimit:1;" x1="197.363" y1="117.176" x2="197.691" y2="112.566"/>
	<line style="fill:none;stroke:#000000;stroke-miterlimit:1;" x1="197.691" y1="112.566" x2="197.033" y2="105.654"/>
	<line style="fill:none;stroke:#000000;stroke-miterlimit:1;" x1="197.033" y1="105.654" x2="196.705" y2="96.439"/>
	<line style="fill:none;stroke:#000000;stroke-miterlimit:1;" x1="196.705" y1="96.439" x2="196.047" y2="71.424"/>
	<line style="fill:none;stroke:#000000;stroke-miterlimit:1;" x1="196.047" y1="71.424" x2="195.717" y2="46.409"/>
	<line style="fill:none;stroke:#000000;stroke-miterlimit:1;" x1="195.717" y1="46.409" x2="193.084" y2="0"/>
	<line style="fill:none;stroke:#000000;stroke-miterlimit:1;" x1="193.084" y1="0" x2="223.365" y2="0"/>
</g>
</svg>
