<?xml version="1.0" encoding="iso-8859-1"?>
<!-- Generator: Adobe Illustrator 16.0.1, SVG Export Plug-In . SVG Version: 6.00 Build 0)  -->
<!DOCTYPE svg PUBLIC "-//W3C//DTD SVG 1.1//EN" "http://www.w3.org/Graphics/SVG/1.1/DTD/svg11.dtd">
<svg version="1.1" id="Ebene_1" xmlns="http://www.w3.org/2000/svg" xmlns:xlink="http://www.w3.org/1999/xlink" x="0px" y="0px"
	 width="367.159px" height="148.114px" viewBox="0 0 367.159 148.114" style="enable-background:new 0 0 367.159 148.114;"
	 xml:space="preserve">
<g>
	<line style="fill:none;stroke:#000000;stroke-miterlimit:1;" x1="360.905" y1="52.334" x2="360.576" y2="57.271"/>
	<line style="fill:none;stroke:#000000;stroke-miterlimit:1;" x1="360.576" y1="57.271" x2="360.247" y2="64.512"/>
	<line style="fill:none;stroke:#000000;stroke-miterlimit:1;" x1="360.247" y1="64.512" x2="360.576" y2="71.095"/>
	<line style="fill:none;stroke:#000000;stroke-miterlimit:1;" x1="360.576" y1="71.095" x2="361.234" y2="77.349"/>
	<line style="fill:none;stroke:#000000;stroke-miterlimit:1;" x1="361.234" y1="77.349" x2="361.234" y2="82.615"/>
	<line style="fill:none;stroke:#000000;stroke-miterlimit:1;" x1="361.234" y1="82.615" x2="360.247" y2="88.21"/>
	<line style="fill:none;stroke:#000000;stroke-miterlimit:1;" x1="360.247" y1="88.21" x2="359.26" y2="94.464"/>
	<line style="fill:none;stroke:#000000;stroke-miterlimit:1;" x1="359.26" y1="94.464" x2="357.942" y2="100.718"/>
	<line style="fill:none;stroke:#000000;stroke-miterlimit:1;" x1="357.942" y1="100.718" x2="356.626" y2="108.617"/>
	<line style="fill:none;stroke:#000000;stroke-miterlimit:1;" x1="356.626" y1="108.617" x2="355.968" y2="116.846"/>
	<line style="fill:none;stroke:#000000;stroke-miterlimit:1;" x1="355.968" y1="116.846" x2="354.651" y2="124.416"/>
	<line style="fill:none;stroke:#000000;stroke-miterlimit:1;" x1="354.651" y1="124.416" x2="353.664" y2="130.67"/>
	<line style="fill:none;stroke:#000000;stroke-miterlimit:1;" x1="353.664" y1="130.67" x2="353.664" y2="136.595"/>
	<line style="fill:none;stroke:#000000;stroke-miterlimit:1;" x1="353.664" y1="136.595" x2="354.651" y2="141.531"/>
	<line style="fill:none;stroke:#000000;stroke-miterlimit:1;" x1="354.651" y1="141.531" x2="354.98" y2="143.507"/>
	<line style="fill:none;stroke:#000000;stroke-miterlimit:1;" x1="354.98" y1="143.507" x2="355.31" y2="144.823"/>
	<line style="fill:none;stroke:#000000;stroke-miterlimit:1;" x1="355.31" y1="144.823" x2="354.98" y2="146.469"/>
	<line style="fill:none;stroke:#000000;stroke-miterlimit:1;" x1="354.98" y1="146.469" x2="353.335" y2="148.114"/>
	<line style="fill:none;stroke:#000000;stroke-miterlimit:1;" x1="353.335" y1="148.114" x2="325.028" y2="148.114"/>
	<line style="fill:none;stroke:#000000;stroke-miterlimit:1;" x1="325.028" y1="148.114" x2="325.028" y2="145.152"/>
	<line style="fill:none;stroke:#000000;stroke-miterlimit:1;" x1="325.028" y1="145.152" x2="328.649" y2="144.494"/>
	<line style="fill:none;stroke:#000000;stroke-miterlimit:1;" x1="328.649" y1="144.494" x2="332.27" y2="143.507"/>
	<line style="fill:none;stroke:#000000;stroke-miterlimit:1;" x1="332.27" y1="143.507" x2="334.902" y2="142.848"/>
	<line style="fill:none;stroke:#000000;stroke-miterlimit:1;" x1="334.902" y1="142.848" x2="338.523" y2="141.202"/>
	<line style="fill:none;stroke:#000000;stroke-miterlimit:1;" x1="338.523" y1="141.202" x2="341.485" y2="139.228"/>
	<line style="fill:none;stroke:#000000;stroke-miterlimit:1;" x1="341.485" y1="139.228" x2="343.131" y2="137.253"/>
	<line style="fill:none;stroke:#000000;stroke-miterlimit:1;" x1="343.131" y1="137.253" x2="344.119" y2="132.974"/>
	<line style="fill:none;stroke:#000000;stroke-miterlimit:1;" x1="344.119" y1="132.974" x2="344.777" y2="126.391"/>
	<line style="fill:none;stroke:#000000;stroke-miterlimit:1;" x1="344.777" y1="126.391" x2="343.79" y2="115.858"/>
	<line style="fill:none;stroke:#000000;stroke-miterlimit:1;" x1="343.79" y1="115.858" x2="341.814" y2="102.363"/>
	<line style="fill:none;stroke:#000000;stroke-miterlimit:1;" x1="341.814" y1="102.363" x2="340.169" y2="89.856"/>
	<line style="fill:none;stroke:#000000;stroke-miterlimit:1;" x1="340.169" y1="89.856" x2="338.523" y2="77.678"/>
	<line style="fill:none;stroke:#000000;stroke-miterlimit:1;" x1="338.523" y1="77.678" x2="337.865" y2="67.145"/>
	<line style="fill:none;stroke:#000000;stroke-miterlimit:1;" x1="337.865" y1="67.145" x2="337.536" y2="56.942"/>
	<line style="fill:none;stroke:#000000;stroke-miterlimit:1;" x1="337.536" y1="56.942" x2="337.865" y2="48.055"/>
	<line style="fill:none;stroke:#000000;stroke-miterlimit:1;" x1="337.865" y1="48.055" x2="339.511" y2="40.814"/>
	<line style="fill:none;stroke:#000000;stroke-miterlimit:1;" x1="339.511" y1="40.814" x2="340.827" y2="38.181"/>
	<line style="fill:none;stroke:#000000;stroke-miterlimit:1;" x1="340.827" y1="38.181" x2="343.461" y2="35.218"/>
	<line style="fill:none;stroke:#000000;stroke-miterlimit:1;" x1="343.461" y1="35.218" x2="346.423" y2="34.231"/>
	<line style="fill:none;stroke:#000000;stroke-miterlimit:1;" x1="346.423" y1="34.231" x2="346.423" y2="28.965"/>
	<line style="fill:none;stroke:#000000;stroke-miterlimit:1;" x1="346.423" y1="28.965" x2="338.853" y2="28.306"/>
	<line style="fill:none;stroke:#000000;stroke-miterlimit:1;" x1="338.853" y1="28.306" x2="330.953" y2="36.206"/>
	<line style="fill:none;stroke:#000000;stroke-miterlimit:1;" x1="330.953" y1="36.206" x2="334.902" y2="39.168"/>
	<line style="fill:none;stroke:#000000;stroke-miterlimit:1;" x1="334.902" y1="39.168" x2="338.523" y2="28.636"/>
	<line style="fill:none;stroke:#000000;stroke-miterlimit:1;" x1="338.523" y1="28.636" x2="337.536" y2="27.648"/>
	<line style="fill:none;stroke:#000000;stroke-miterlimit:1;" x1="337.536" y1="27.648" x2="336.878" y2="21.724"/>
	<line style="fill:none;stroke:#000000;stroke-miterlimit:1;" x1="336.878" y1="21.724" x2="332.599" y2="21.065"/>
	<line style="fill:none;stroke:#000000;stroke-miterlimit:1;" x1="332.599" y1="21.065" x2="332.599" y2="19.749"/>
	<line style="fill:none;stroke:#000000;stroke-miterlimit:1;" x1="332.599" y1="19.749" x2="334.902" y2="16.457"/>
	<line style="fill:none;stroke:#000000;stroke-miterlimit:1;" x1="334.902" y1="16.457" x2="335.561" y2="14.153"/>
	<line style="fill:none;stroke:#000000;stroke-miterlimit:1;" x1="335.561" y1="14.153" x2="336.22" y2="12.507"/>
	<line style="fill:none;stroke:#000000;stroke-miterlimit:1;" x1="336.22" y1="12.507" x2="337.207" y2="11.191"/>
	<line style="fill:none;stroke:#000000;stroke-miterlimit:1;" x1="337.207" y1="11.191" x2="337.536" y2="8.887"/>
	<line style="fill:none;stroke:#000000;stroke-miterlimit:1;" x1="337.536" y1="8.887" x2="338.853" y2="6.254"/>
	<line style="fill:none;stroke:#000000;stroke-miterlimit:1;" x1="338.853" y1="6.254" x2="340.827" y2="3.621"/>
	<line style="fill:none;stroke:#000000;stroke-miterlimit:1;" x1="340.827" y1="3.621" x2="342.802" y2="1.975"/>
	<line style="fill:none;stroke:#000000;stroke-miterlimit:1;" x1="342.802" y1="1.975" x2="345.765" y2="0.658"/>
	<line style="fill:none;stroke:#000000;stroke-miterlimit:1;" x1="345.765" y1="0.658" x2="348.397" y2="0"/>
	<line style="fill:none;stroke:#000000;stroke-miterlimit:1;" x1="348.397" y1="0" x2="350.043" y2="0"/>
	<line style="fill:none;stroke:#000000;stroke-miterlimit:1;" x1="350.043" y1="0" x2="353.006" y2="0"/>
	<line style="fill:none;stroke:#000000;stroke-miterlimit:1;" x1="353.006" y1="0" x2="355.968" y2="0.987"/>
	<line style="fill:none;stroke:#000000;stroke-miterlimit:1;" x1="355.968" y1="0.987" x2="357.942" y2="1.646"/>
	<line style="fill:none;stroke:#000000;stroke-miterlimit:1;" x1="357.942" y1="1.646" x2="360.576" y2="3.621"/>
	<line style="fill:none;stroke:#000000;stroke-miterlimit:1;" x1="360.576" y1="3.621" x2="362.222" y2="5.266"/>
	<line style="fill:none;stroke:#000000;stroke-miterlimit:1;" x1="362.222" y1="5.266" x2="362.88" y2="5.925"/>
	<line style="fill:none;stroke:#000000;stroke-miterlimit:1;" x1="362.88" y1="5.925" x2="365.184" y2="9.875"/>
	<line style="fill:none;stroke:#000000;stroke-miterlimit:1;" x1="365.184" y1="9.875" x2="365.842" y2="12.178"/>
	<line style="fill:none;stroke:#000000;stroke-miterlimit:1;" x1="365.842" y1="12.178" x2="366.5" y2="15.47"/>
	<line style="fill:none;stroke:#000000;stroke-miterlimit:1;" x1="366.5" y1="15.47" x2="366.83" y2="17.445"/>
	<line style="fill:none;stroke:#000000;stroke-miterlimit:1;" x1="366.83" y1="17.445" x2="367.159" y2="20.078"/>
	<line style="fill:none;stroke:#000000;stroke-miterlimit:1;" x1="367.159" y1="20.078" x2="367.159" y2="51.346"/>
	<line style="fill:none;stroke:#000000;stroke-miterlimit:1;" x1="337.207" y1="11.52" x2="351.031" y2="11.849"/>
	<line style="fill:none;stroke:#000000;stroke-miterlimit:1;" x1="351.031" y1="11.849" x2="351.689" y2="13.824"/>
	<line style="fill:none;stroke:#000000;stroke-miterlimit:1;" x1="351.689" y1="13.824" x2="352.019" y2="13.824"/>
	<line style="fill:none;stroke:#000000;stroke-miterlimit:1;" x1="352.019" y1="13.824" x2="353.993" y2="14.153"/>
	<line style="fill:none;stroke:#000000;stroke-miterlimit:1;" x1="353.993" y1="14.153" x2="355.968" y2="15.799"/>
	<line style="fill:none;stroke:#000000;stroke-miterlimit:1;" x1="355.968" y1="15.799" x2="355.968" y2="18.432"/>
	<line style="fill:none;stroke:#000000;stroke-miterlimit:1;" x1="355.968" y1="18.432" x2="355.31" y2="20.078"/>
	<line style="fill:none;stroke:#000000;stroke-miterlimit:1;" x1="355.31" y1="20.078" x2="353.993" y2="22.053"/>
	<line style="fill:none;stroke:#000000;stroke-miterlimit:1;" x1="353.993" y1="22.053" x2="353.335" y2="22.382"/>
	<line style="fill:none;stroke:#000000;stroke-miterlimit:1;" x1="353.335" y1="22.382" x2="353.335" y2="51.675"/>
	<line style="fill:none;stroke:#000000;stroke-miterlimit:1;" x1="353.335" y1="51.675" x2="367.159" y2="52.005"/>
	<line style="fill:none;stroke:#000000;stroke-miterlimit:1;" x1="340.827" y1="17.774" x2="342.802" y2="19.09"/>
	<line style="fill:none;stroke:#000000;stroke-miterlimit:1;" x1="342.802" y1="19.09" x2="345.436" y2="18.103"/>
	<line style="fill:none;stroke:#000000;stroke-miterlimit:1;" x1="104.544" y1="59.575" x2="104.544" y2="148.114"/>
	<line style="fill:none;stroke:#000000;stroke-miterlimit:1;" x1="104.544" y1="148.114" x2="111.456" y2="148.114"/>
	<line style="fill:none;stroke:#000000;stroke-miterlimit:1;" x1="111.456" y1="148.114" x2="111.456" y2="59.575"/>
	<line style="fill:none;stroke:#000000;stroke-miterlimit:1;" x1="70.971" y1="59.246" x2="145.028" y2="59.246"/>
	<line style="fill:none;stroke:#000000;stroke-miterlimit:1;" x1="145.028" y1="59.246" x2="145.028" y2="35.876"/>
	<line style="fill:none;stroke:#000000;stroke-miterlimit:1;" x1="145.028" y1="35.876" x2="143.712" y2="33.244"/>
	<line style="fill:none;stroke:#000000;stroke-miterlimit:1;" x1="143.712" y1="33.244" x2="142.396" y2="31.598"/>
	<line style="fill:none;stroke:#000000;stroke-miterlimit:1;" x1="142.396" y1="31.598" x2="140.75" y2="31.598"/>
	<line style="fill:none;stroke:#000000;stroke-miterlimit:1;" x1="140.75" y1="31.598" x2="139.104" y2="31.598"/>
	<line style="fill:none;stroke:#000000;stroke-miterlimit:1;" x1="139.104" y1="31.598" x2="137.129" y2="31.927"/>
	<line style="fill:none;stroke:#000000;stroke-miterlimit:1;" x1="137.129" y1="31.927" x2="135.154" y2="33.244"/>
	<line style="fill:none;stroke:#000000;stroke-miterlimit:1;" x1="135.154" y1="33.244" x2="128.571" y2="39.168"/>
	<line style="fill:none;stroke:#000000;stroke-miterlimit:1;" x1="128.571" y1="39.168" x2="122.647" y2="44.435"/>
	<line style="fill:none;stroke:#000000;stroke-miterlimit:1;" x1="122.647" y1="44.435" x2="118.039" y2="46.738"/>
	<line style="fill:none;stroke:#000000;stroke-miterlimit:1;" x1="118.039" y1="46.738" x2="112.443" y2="48.055"/>
	<line style="fill:none;stroke:#000000;stroke-miterlimit:1;" x1="112.443" y1="48.055" x2="107.835" y2="48.384"/>
	<line style="fill:none;stroke:#000000;stroke-miterlimit:1;" x1="107.835" y1="48.384" x2="103.557" y2="48.055"/>
	<line style="fill:none;stroke:#000000;stroke-miterlimit:1;" x1="103.557" y1="48.055" x2="97.961" y2="46.738"/>
	<line style="fill:none;stroke:#000000;stroke-miterlimit:1;" x1="97.961" y1="46.738" x2="93.353" y2="44.435"/>
	<line style="fill:none;stroke:#000000;stroke-miterlimit:1;" x1="93.353" y1="44.435" x2="87.428" y2="39.168"/>
	<line style="fill:none;stroke:#000000;stroke-miterlimit:1;" x1="87.428" y1="39.168" x2="80.846" y2="33.244"/>
	<line style="fill:none;stroke:#000000;stroke-miterlimit:1;" x1="80.846" y1="33.244" x2="78.871" y2="31.927"/>
	<line style="fill:none;stroke:#000000;stroke-miterlimit:1;" x1="78.871" y1="31.927" x2="76.896" y2="31.598"/>
	<line style="fill:none;stroke:#000000;stroke-miterlimit:1;" x1="76.896" y1="31.598" x2="75.25" y2="31.598"/>
	<line style="fill:none;stroke:#000000;stroke-miterlimit:1;" x1="75.25" y1="31.598" x2="73.604" y2="31.598"/>
	<line style="fill:none;stroke:#000000;stroke-miterlimit:1;" x1="73.604" y1="31.598" x2="72.288" y2="33.244"/>
	<line style="fill:none;stroke:#000000;stroke-miterlimit:1;" x1="72.288" y1="33.244" x2="70.971" y2="35.876"/>
	<line style="fill:none;stroke:#000000;stroke-miterlimit:1;" x1="70.971" y1="35.876" x2="70.971" y2="59.246"/>
	<line style="fill:none;stroke:#000000;stroke-miterlimit:1;" x1="121.659" y1="44.435" x2="115.735" y2="5.596"/>
	<line style="fill:none;stroke:#000000;stroke-miterlimit:1;" x1="115.735" y1="5.596" x2="113.102" y2="2.304"/>
	<line style="fill:none;stroke:#000000;stroke-miterlimit:1;" x1="113.102" y1="2.304" x2="111.127" y2="0.987"/>
	<line style="fill:none;stroke:#000000;stroke-miterlimit:1;" x1="111.127" y1="0.987" x2="108.494" y2="0"/>
	<line style="fill:none;stroke:#000000;stroke-miterlimit:1;" x1="108.494" y1="0" x2="107.506" y2="0"/>
	<line style="fill:none;stroke:#000000;stroke-miterlimit:1;" x1="107.506" y1="0" x2="104.873" y2="0.987"/>
	<line style="fill:none;stroke:#000000;stroke-miterlimit:1;" x1="104.873" y1="0.987" x2="102.898" y2="2.304"/>
	<line style="fill:none;stroke:#000000;stroke-miterlimit:1;" x1="102.898" y1="2.304" x2="100.265" y2="5.596"/>
	<line style="fill:none;stroke:#000000;stroke-miterlimit:1;" x1="100.265" y1="5.596" x2="94.34" y2="44.435"/>
	<line style="fill:none;stroke:#000000;stroke-miterlimit:1;" x1="0" y1="4.279" x2="0" y2="34.56"/>
	<line style="fill:none;stroke:#000000;stroke-miterlimit:1;" x1="0" y1="34.56" x2="10.862" y2="33.244"/>
	<line style="fill:none;stroke:#000000;stroke-miterlimit:1;" x1="10.862" y1="33.244" x2="27.319" y2="33.902"/>
	<line style="fill:none;stroke:#000000;stroke-miterlimit:1;" x1="27.319" y1="33.902" x2="40.813" y2="35.876"/>
	<line style="fill:none;stroke:#000000;stroke-miterlimit:1;" x1="40.813" y1="35.876" x2="54.638" y2="39.826"/>
	<line style="fill:none;stroke:#000000;stroke-miterlimit:1;" x1="54.638" y1="0" x2="54.638" y2="148.114"/>
	<line style="fill:none;stroke:#000000;stroke-miterlimit:1;" x1="54.638" y1="148.114" x2="61.55" y2="148.114"/>
	<line style="fill:none;stroke:#000000;stroke-miterlimit:1;" x1="61.55" y1="148.114" x2="61.55" y2="0"/>
	<line style="fill:none;stroke:#000000;stroke-miterlimit:1;" x1="61.55" y1="0" x2="54.638" y2="0"/>
	<line style="fill:none;stroke:#000000;stroke-miterlimit:1;" x1="54.638" y1="0" x2="40.813" y2="3.292"/>
	<line style="fill:none;stroke:#000000;stroke-miterlimit:1;" x1="40.813" y1="3.292" x2="27.319" y2="4.608"/>
	<line style="fill:none;stroke:#000000;stroke-miterlimit:1;" x1="27.319" y1="4.608" x2="10.862" y2="5.266"/>
	<line style="fill:none;stroke:#000000;stroke-miterlimit:1;" x1="10.862" y1="5.266" x2="0" y2="4.279"/>
	<line style="fill:none;stroke:#000000;stroke-miterlimit:1;" x1="217.193" y1="0.329" x2="215.547" y2="33.573"/>
	<line style="fill:none;stroke:#000000;stroke-miterlimit:1;" x1="215.547" y1="33.573" x2="214.889" y2="61.879"/>
	<line style="fill:none;stroke:#000000;stroke-miterlimit:1;" x1="214.889" y1="61.879" x2="214.23" y2="83.603"/>
	<line style="fill:none;stroke:#000000;stroke-miterlimit:1;" x1="214.23" y1="83.603" x2="212.585" y2="99.072"/>
	<line style="fill:none;stroke:#000000;stroke-miterlimit:1;" x1="212.585" y1="99.072" x2="211.269" y2="113.884"/>
	<line style="fill:none;stroke:#000000;stroke-miterlimit:1;" x1="211.269" y1="113.884" x2="211.927" y2="129.683"/>
	<line style="fill:none;stroke:#000000;stroke-miterlimit:1;" x1="211.927" y1="129.683" x2="212.914" y2="134.619"/>
	<line style="fill:none;stroke:#000000;stroke-miterlimit:1;" x1="212.914" y1="134.619" x2="213.572" y2="138.569"/>
	<line style="fill:none;stroke:#000000;stroke-miterlimit:1;" x1="213.572" y1="138.569" x2="213.243" y2="142.519"/>
	<line style="fill:none;stroke:#000000;stroke-miterlimit:1;" x1="213.243" y1="142.519" x2="211.269" y2="145.152"/>
	<line style="fill:none;stroke:#000000;stroke-miterlimit:1;" x1="211.269" y1="145.152" x2="208.307" y2="147.127"/>
	<line style="fill:none;stroke:#000000;stroke-miterlimit:1;" x1="208.307" y1="147.127" x2="204.686" y2="147.785"/>
	<line style="fill:none;stroke:#000000;stroke-miterlimit:1;" x1="204.686" y1="147.785" x2="198.103" y2="146.14"/>
	<line style="fill:none;stroke:#000000;stroke-miterlimit:1;" x1="198.103" y1="146.14" x2="195.47" y2="144.165"/>
	<line style="fill:none;stroke:#000000;stroke-miterlimit:1;" x1="195.47" y1="144.165" x2="191.19" y2="143.177"/>
	<line style="fill:none;stroke:#000000;stroke-miterlimit:1;" x1="191.19" y1="143.177" x2="181.316" y2="148.114"/>
	<line style="fill:none;stroke:#000000;stroke-miterlimit:1;" x1="181.316" y1="148.114" x2="140.503" y2="147.785"/>
	<line style="fill:none;stroke:#000000;stroke-miterlimit:1;" x1="140.503" y1="147.785" x2="138.857" y2="142.519"/>
	<line style="fill:none;stroke:#000000;stroke-miterlimit:1;" x1="138.857" y1="142.519" x2="140.173" y2="139.886"/>
	<line style="fill:none;stroke:#000000;stroke-miterlimit:1;" x1="140.173" y1="139.886" x2="143.794" y2="139.228"/>
	<line style="fill:none;stroke:#000000;stroke-miterlimit:1;" x1="143.794" y1="139.228" x2="157.947" y2="136.266"/>
	<line style="fill:none;stroke:#000000;stroke-miterlimit:1;" x1="157.947" y1="136.266" x2="169.796" y2="130.341"/>
	<line style="fill:none;stroke:#000000;stroke-miterlimit:1;" x1="169.796" y1="130.341" x2="177.696" y2="127.378"/>
	<line style="fill:none;stroke:#000000;stroke-miterlimit:1;" x1="177.696" y1="127.378" x2="184.607" y2="125.732"/>
	<line style="fill:none;stroke:#000000;stroke-miterlimit:1;" x1="184.607" y1="125.732" x2="189.545" y2="121.454"/>
	<line style="fill:none;stroke:#000000;stroke-miterlimit:1;" x1="189.545" y1="121.454" x2="191.19" y2="117.175"/>
	<line style="fill:none;stroke:#000000;stroke-miterlimit:1;" x1="191.19" y1="117.175" x2="191.52" y2="112.567"/>
	<line style="fill:none;stroke:#000000;stroke-miterlimit:1;" x1="191.52" y1="112.567" x2="190.861" y2="105.655"/>
	<line style="fill:none;stroke:#000000;stroke-miterlimit:1;" x1="190.861" y1="105.655" x2="190.532" y2="96.438"/>
	<line style="fill:none;stroke:#000000;stroke-miterlimit:1;" x1="190.532" y1="96.438" x2="189.874" y2="71.424"/>
	<line style="fill:none;stroke:#000000;stroke-miterlimit:1;" x1="189.874" y1="71.424" x2="189.545" y2="46.409"/>
	<line style="fill:none;stroke:#000000;stroke-miterlimit:1;" x1="189.545" y1="46.409" x2="186.912" y2="0"/>
	<line style="fill:none;stroke:#000000;stroke-miterlimit:1;" x1="186.912" y1="0" x2="217.193" y2="0"/>
	<line style="fill:none;stroke:#000000;stroke-miterlimit:1;" x1="261.896" y1="12.876" x2="258.217" y2="14.716"/>
	<line style="fill:none;stroke:#000000;stroke-miterlimit:1;" x1="258.217" y1="14.716" x2="255.458" y2="18.088"/>
	<line style="fill:none;stroke:#000000;stroke-miterlimit:1;" x1="255.458" y1="18.088" x2="254.538" y2="20.847"/>
	<line style="fill:none;stroke:#000000;stroke-miterlimit:1;" x1="254.538" y1="20.847" x2="253.925" y2="23.606"/>
	<line style="fill:none;stroke:#000000;stroke-miterlimit:1;" x1="253.925" y1="23.606" x2="254.845" y2="27.898"/>
	<line style="fill:none;stroke:#000000;stroke-miterlimit:1;" x1="254.845" y1="27.898" x2="256.991" y2="30.658"/>
	<line style="fill:none;stroke:#000000;stroke-miterlimit:1;" x1="256.991" y1="30.658" x2="259.137" y2="32.497"/>
	<line style="fill:none;stroke:#000000;stroke-miterlimit:1;" x1="259.137" y1="32.497" x2="262.815" y2="33.724"/>
	<line style="fill:none;stroke:#000000;stroke-miterlimit:1;" x1="262.815" y1="33.724" x2="265.575" y2="34.643"/>
	<line style="fill:none;stroke:#000000;stroke-miterlimit:1;" x1="265.575" y1="34.643" x2="268.947" y2="34.643"/>
	<line style="fill:none;stroke:#000000;stroke-miterlimit:1;" x1="268.947" y1="34.643" x2="272.626" y2="33.11"/>
	<line style="fill:none;stroke:#000000;stroke-miterlimit:1;" x1="272.626" y1="33.11" x2="275.691" y2="31.577"/>
	<line style="fill:none;stroke:#000000;stroke-miterlimit:1;" x1="275.691" y1="31.577" x2="277.531" y2="29.431"/>
	<line style="fill:none;stroke:#000000;stroke-miterlimit:1;" x1="277.531" y1="29.431" x2="279.678" y2="26.366"/>
	<line style="fill:none;stroke:#000000;stroke-miterlimit:1;" x1="279.678" y1="26.366" x2="281.21" y2="22.687"/>
	<line style="fill:none;stroke:#000000;stroke-miterlimit:1;" x1="281.21" y1="22.687" x2="282.13" y2="19.621"/>
	<line style="fill:none;stroke:#000000;stroke-miterlimit:1;" x1="282.13" y1="19.621" x2="282.437" y2="16.555"/>
	<line style="fill:none;stroke:#000000;stroke-miterlimit:1;" x1="282.437" y1="16.555" x2="282.13" y2="14.409"/>
	<line style="fill:none;stroke:#000000;stroke-miterlimit:1;" x1="282.13" y1="14.409" x2="281.517" y2="10.73"/>
	<line style="fill:none;stroke:#000000;stroke-miterlimit:1;" x1="281.517" y1="10.73" x2="279.984" y2="7.665"/>
	<line style="fill:none;stroke:#000000;stroke-miterlimit:1;" x1="279.984" y1="7.665" x2="277.531" y2="4.599"/>
	<line style="fill:none;stroke:#000000;stroke-miterlimit:1;" x1="277.531" y1="4.599" x2="275.079" y2="2.453"/>
	<line style="fill:none;stroke:#000000;stroke-miterlimit:1;" x1="275.079" y1="2.453" x2="272.933" y2="1.533"/>
	<line style="fill:none;stroke:#000000;stroke-miterlimit:1;" x1="272.933" y1="1.533" x2="270.787" y2="0.613"/>
	<line style="fill:none;stroke:#000000;stroke-miterlimit:1;" x1="270.787" y1="0.613" x2="267.721" y2="0.307"/>
	<line style="fill:none;stroke:#000000;stroke-miterlimit:1;" x1="267.721" y1="0.307" x2="265.269" y2="0"/>
	<line style="fill:none;stroke:#000000;stroke-miterlimit:1;" x1="265.269" y1="0" x2="262.202" y2="0"/>
	<line style="fill:none;stroke:#000000;stroke-miterlimit:1;" x1="262.202" y1="0" x2="258.523" y2="0.307"/>
	<line style="fill:none;stroke:#000000;stroke-miterlimit:1;" x1="258.523" y1="0.307" x2="254.538" y2="1.533"/>
	<line style="fill:none;stroke:#000000;stroke-miterlimit:1;" x1="254.538" y1="1.533" x2="251.166" y2="3.373"/>
	<line style="fill:none;stroke:#000000;stroke-miterlimit:1;" x1="251.166" y1="3.373" x2="249.02" y2="5.212"/>
	<line style="fill:none;stroke:#000000;stroke-miterlimit:1;" x1="249.02" y1="5.212" x2="246.567" y2="7.358"/>
	<line style="fill:none;stroke:#000000;stroke-miterlimit:1;" x1="246.567" y1="7.358" x2="244.728" y2="9.504"/>
	<line style="fill:none;stroke:#000000;stroke-miterlimit:1;" x1="244.728" y1="9.504" x2="242.889" y2="12.876"/>
	<line style="fill:none;stroke:#000000;stroke-miterlimit:1;" x1="242.889" y1="12.876" x2="241.049" y2="16.249"/>
	<line style="fill:none;stroke:#000000;stroke-miterlimit:1;" x1="241.049" y1="16.249" x2="240.436" y2="19.314"/>
	<line style="fill:none;stroke:#000000;stroke-miterlimit:1;" x1="240.436" y1="19.314" x2="239.822" y2="23.606"/>
	<line style="fill:none;stroke:#000000;stroke-miterlimit:1;" x1="239.822" y1="23.606" x2="239.516" y2="27.898"/>
	<line style="fill:none;stroke:#000000;stroke-miterlimit:1;" x1="239.516" y1="27.898" x2="239.822" y2="31.271"/>
	<line style="fill:none;stroke:#000000;stroke-miterlimit:1;" x1="239.822" y1="31.271" x2="240.129" y2="36.176"/>
	<line style="fill:none;stroke:#000000;stroke-miterlimit:1;" x1="240.129" y1="36.176" x2="241.969" y2="41.081"/>
	<line style="fill:none;stroke:#000000;stroke-miterlimit:1;" x1="241.969" y1="41.081" x2="244.728" y2="46.6"/>
	<line style="fill:none;stroke:#000000;stroke-miterlimit:1;" x1="244.728" y1="46.6" x2="249.633" y2="53.038"/>
	<line style="fill:none;stroke:#000000;stroke-miterlimit:1;" x1="249.633" y1="53.038" x2="257.297" y2="60.396"/>
	<line style="fill:none;stroke:#000000;stroke-miterlimit:1;" x1="257.297" y1="60.396" x2="268.334" y2="69.286"/>
	<line style="fill:none;stroke:#000000;stroke-miterlimit:1;" x1="268.334" y1="69.286" x2="292.247" y2="82.775"/>
	<line style="fill:none;stroke:#000000;stroke-miterlimit:1;" x1="237.6" y1="92.931" x2="262.126" y2="148.114"/>
	<line style="fill:none;stroke:#000000;stroke-miterlimit:1;" x1="262.126" y1="148.114" x2="274.389" y2="148.114"/>
	<line style="fill:none;stroke:#000000;stroke-miterlimit:1;" x1="274.389" y1="148.114" x2="249.863" y2="92.931"/>
	<line style="fill:none;stroke:#000000;stroke-miterlimit:1;" x1="249.863" y1="92.931" x2="237.6" y2="92.931"/>
	<line style="fill:none;stroke:#000000;stroke-miterlimit:1;" x1="274.695" y1="92.931" x2="299.222" y2="148.114"/>
	<line style="fill:none;stroke:#000000;stroke-miterlimit:1;" x1="299.222" y1="148.114" x2="311.484" y2="148.114"/>
	<line style="fill:none;stroke:#000000;stroke-miterlimit:1;" x1="311.484" y1="148.114" x2="286.959" y2="92.931"/>
	<line style="fill:none;stroke:#000000;stroke-miterlimit:1;" x1="286.959" y1="92.931" x2="274.695" y2="92.931"/>
</g>
</svg>
