<?xml version="1.0" encoding="iso-8859-1"?>
<!-- Generator: Adobe Illustrator 16.0.1, SVG Export Plug-In . SVG Version: 6.00 Build 0)  -->
<!DOCTYPE svg PUBLIC "-//W3C//DTD SVG 1.1//EN" "http://www.w3.org/Graphics/SVG/1.1/DTD/svg11.dtd">
<svg version="1.1" id="Ebene_1" xmlns="http://www.w3.org/2000/svg" xmlns:xlink="http://www.w3.org/1999/xlink" x="0px" y="0px"
	 width="426.816px" height="148.114px" viewBox="0 0 426.816 148.114" style="enable-background:new 0 0 426.816 148.114;"
	 xml:space="preserve">
<g>
	<line style="fill:none;stroke:#000000;stroke-miterlimit:1;" x1="420.562" y1="52.334" x2="420.233" y2="57.271"/>
	<line style="fill:none;stroke:#000000;stroke-miterlimit:1;" x1="420.233" y1="57.271" x2="419.904" y2="64.512"/>
	<line style="fill:none;stroke:#000000;stroke-miterlimit:1;" x1="419.904" y1="64.512" x2="420.233" y2="71.095"/>
	<line style="fill:none;stroke:#000000;stroke-miterlimit:1;" x1="420.233" y1="71.095" x2="420.892" y2="77.349"/>
	<line style="fill:none;stroke:#000000;stroke-miterlimit:1;" x1="420.892" y1="77.349" x2="420.892" y2="82.615"/>
	<line style="fill:none;stroke:#000000;stroke-miterlimit:1;" x1="420.892" y1="82.615" x2="419.904" y2="88.21"/>
	<line style="fill:none;stroke:#000000;stroke-miterlimit:1;" x1="419.904" y1="88.21" x2="418.917" y2="94.464"/>
	<line style="fill:none;stroke:#000000;stroke-miterlimit:1;" x1="418.917" y1="94.464" x2="417.601" y2="100.718"/>
	<line style="fill:none;stroke:#000000;stroke-miterlimit:1;" x1="417.601" y1="100.718" x2="416.283" y2="108.617"/>
	<line style="fill:none;stroke:#000000;stroke-miterlimit:1;" x1="416.283" y1="108.617" x2="415.625" y2="116.846"/>
	<line style="fill:none;stroke:#000000;stroke-miterlimit:1;" x1="415.625" y1="116.846" x2="414.309" y2="124.416"/>
	<line style="fill:none;stroke:#000000;stroke-miterlimit:1;" x1="414.309" y1="124.416" x2="413.321" y2="130.67"/>
	<line style="fill:none;stroke:#000000;stroke-miterlimit:1;" x1="413.321" y1="130.67" x2="413.321" y2="136.595"/>
	<line style="fill:none;stroke:#000000;stroke-miterlimit:1;" x1="413.321" y1="136.595" x2="414.309" y2="141.531"/>
	<line style="fill:none;stroke:#000000;stroke-miterlimit:1;" x1="414.309" y1="141.531" x2="414.638" y2="143.507"/>
	<line style="fill:none;stroke:#000000;stroke-miterlimit:1;" x1="414.638" y1="143.507" x2="414.967" y2="144.823"/>
	<line style="fill:none;stroke:#000000;stroke-miterlimit:1;" x1="414.967" y1="144.823" x2="414.638" y2="146.469"/>
	<line style="fill:none;stroke:#000000;stroke-miterlimit:1;" x1="414.638" y1="146.469" x2="412.992" y2="148.114"/>
	<line style="fill:none;stroke:#000000;stroke-miterlimit:1;" x1="412.992" y1="148.114" x2="384.686" y2="148.114"/>
	<line style="fill:none;stroke:#000000;stroke-miterlimit:1;" x1="384.686" y1="148.114" x2="384.686" y2="145.152"/>
	<line style="fill:none;stroke:#000000;stroke-miterlimit:1;" x1="384.686" y1="145.152" x2="388.307" y2="144.494"/>
	<line style="fill:none;stroke:#000000;stroke-miterlimit:1;" x1="388.307" y1="144.494" x2="391.927" y2="143.507"/>
	<line style="fill:none;stroke:#000000;stroke-miterlimit:1;" x1="391.927" y1="143.507" x2="394.561" y2="142.848"/>
	<line style="fill:none;stroke:#000000;stroke-miterlimit:1;" x1="394.561" y1="142.848" x2="398.181" y2="141.202"/>
	<line style="fill:none;stroke:#000000;stroke-miterlimit:1;" x1="398.181" y1="141.202" x2="401.144" y2="139.228"/>
	<line style="fill:none;stroke:#000000;stroke-miterlimit:1;" x1="401.144" y1="139.228" x2="402.789" y2="137.253"/>
	<line style="fill:none;stroke:#000000;stroke-miterlimit:1;" x1="402.789" y1="137.253" x2="403.776" y2="132.974"/>
	<line style="fill:none;stroke:#000000;stroke-miterlimit:1;" x1="403.776" y1="132.974" x2="404.435" y2="126.391"/>
	<line style="fill:none;stroke:#000000;stroke-miterlimit:1;" x1="404.435" y1="126.391" x2="403.447" y2="115.858"/>
	<line style="fill:none;stroke:#000000;stroke-miterlimit:1;" x1="403.447" y1="115.858" x2="401.473" y2="102.363"/>
	<line style="fill:none;stroke:#000000;stroke-miterlimit:1;" x1="401.473" y1="102.363" x2="399.826" y2="89.856"/>
	<line style="fill:none;stroke:#000000;stroke-miterlimit:1;" x1="399.826" y1="89.856" x2="398.181" y2="77.678"/>
	<line style="fill:none;stroke:#000000;stroke-miterlimit:1;" x1="398.181" y1="77.678" x2="397.522" y2="67.145"/>
	<line style="fill:none;stroke:#000000;stroke-miterlimit:1;" x1="397.522" y1="67.145" x2="397.193" y2="56.942"/>
	<line style="fill:none;stroke:#000000;stroke-miterlimit:1;" x1="397.193" y1="56.942" x2="397.522" y2="48.055"/>
	<line style="fill:none;stroke:#000000;stroke-miterlimit:1;" x1="397.522" y1="48.055" x2="399.168" y2="40.814"/>
	<line style="fill:none;stroke:#000000;stroke-miterlimit:1;" x1="399.168" y1="40.814" x2="400.484" y2="38.181"/>
	<line style="fill:none;stroke:#000000;stroke-miterlimit:1;" x1="400.484" y1="38.181" x2="403.118" y2="35.218"/>
	<line style="fill:none;stroke:#000000;stroke-miterlimit:1;" x1="403.118" y1="35.218" x2="406.08" y2="34.231"/>
	<line style="fill:none;stroke:#000000;stroke-miterlimit:1;" x1="406.08" y1="34.231" x2="406.08" y2="28.965"/>
	<line style="fill:none;stroke:#000000;stroke-miterlimit:1;" x1="406.08" y1="28.965" x2="398.51" y2="28.306"/>
	<line style="fill:none;stroke:#000000;stroke-miterlimit:1;" x1="398.51" y1="28.306" x2="390.61" y2="36.206"/>
	<line style="fill:none;stroke:#000000;stroke-miterlimit:1;" x1="390.61" y1="36.206" x2="394.561" y2="39.168"/>
	<line style="fill:none;stroke:#000000;stroke-miterlimit:1;" x1="394.561" y1="39.168" x2="398.181" y2="28.636"/>
	<line style="fill:none;stroke:#000000;stroke-miterlimit:1;" x1="398.181" y1="28.636" x2="397.193" y2="27.648"/>
	<line style="fill:none;stroke:#000000;stroke-miterlimit:1;" x1="397.193" y1="27.648" x2="396.535" y2="21.724"/>
	<line style="fill:none;stroke:#000000;stroke-miterlimit:1;" x1="396.535" y1="21.724" x2="392.256" y2="21.065"/>
	<line style="fill:none;stroke:#000000;stroke-miterlimit:1;" x1="392.256" y1="21.065" x2="392.256" y2="19.749"/>
	<line style="fill:none;stroke:#000000;stroke-miterlimit:1;" x1="392.256" y1="19.749" x2="394.561" y2="16.457"/>
	<line style="fill:none;stroke:#000000;stroke-miterlimit:1;" x1="394.561" y1="16.457" x2="395.219" y2="14.153"/>
	<line style="fill:none;stroke:#000000;stroke-miterlimit:1;" x1="395.219" y1="14.153" x2="395.877" y2="12.507"/>
	<line style="fill:none;stroke:#000000;stroke-miterlimit:1;" x1="395.877" y1="12.507" x2="396.864" y2="11.191"/>
	<line style="fill:none;stroke:#000000;stroke-miterlimit:1;" x1="396.864" y1="11.191" x2="397.193" y2="8.887"/>
	<line style="fill:none;stroke:#000000;stroke-miterlimit:1;" x1="397.193" y1="8.887" x2="398.51" y2="6.254"/>
	<line style="fill:none;stroke:#000000;stroke-miterlimit:1;" x1="398.51" y1="6.254" x2="400.484" y2="3.621"/>
	<line style="fill:none;stroke:#000000;stroke-miterlimit:1;" x1="400.484" y1="3.621" x2="402.46" y2="1.975"/>
	<line style="fill:none;stroke:#000000;stroke-miterlimit:1;" x1="402.46" y1="1.975" x2="405.422" y2="0.658"/>
	<line style="fill:none;stroke:#000000;stroke-miterlimit:1;" x1="405.422" y1="0.658" x2="408.055" y2="0"/>
	<line style="fill:none;stroke:#000000;stroke-miterlimit:1;" x1="408.055" y1="0" x2="409.701" y2="0"/>
	<line style="fill:none;stroke:#000000;stroke-miterlimit:1;" x1="409.701" y1="0" x2="412.663" y2="0"/>
	<line style="fill:none;stroke:#000000;stroke-miterlimit:1;" x1="412.663" y1="0" x2="415.625" y2="0.987"/>
	<line style="fill:none;stroke:#000000;stroke-miterlimit:1;" x1="415.625" y1="0.987" x2="417.601" y2="1.646"/>
	<line style="fill:none;stroke:#000000;stroke-miterlimit:1;" x1="417.601" y1="1.646" x2="420.233" y2="3.621"/>
	<line style="fill:none;stroke:#000000;stroke-miterlimit:1;" x1="420.233" y1="3.621" x2="421.879" y2="5.266"/>
	<line style="fill:none;stroke:#000000;stroke-miterlimit:1;" x1="421.879" y1="5.266" x2="422.537" y2="5.925"/>
	<line style="fill:none;stroke:#000000;stroke-miterlimit:1;" x1="422.537" y1="5.925" x2="424.842" y2="9.875"/>
	<line style="fill:none;stroke:#000000;stroke-miterlimit:1;" x1="424.842" y1="9.875" x2="425.5" y2="12.178"/>
	<line style="fill:none;stroke:#000000;stroke-miterlimit:1;" x1="425.5" y1="12.178" x2="426.158" y2="15.47"/>
	<line style="fill:none;stroke:#000000;stroke-miterlimit:1;" x1="426.158" y1="15.47" x2="426.487" y2="17.445"/>
	<line style="fill:none;stroke:#000000;stroke-miterlimit:1;" x1="426.487" y1="17.445" x2="426.816" y2="20.078"/>
	<line style="fill:none;stroke:#000000;stroke-miterlimit:1;" x1="426.816" y1="20.078" x2="426.816" y2="51.346"/>
	<line style="fill:none;stroke:#000000;stroke-miterlimit:1;" x1="396.864" y1="11.52" x2="410.688" y2="11.849"/>
	<line style="fill:none;stroke:#000000;stroke-miterlimit:1;" x1="410.688" y1="11.849" x2="411.347" y2="13.824"/>
	<line style="fill:none;stroke:#000000;stroke-miterlimit:1;" x1="411.347" y1="13.824" x2="411.676" y2="13.824"/>
	<line style="fill:none;stroke:#000000;stroke-miterlimit:1;" x1="411.676" y1="13.824" x2="413.65" y2="14.153"/>
	<line style="fill:none;stroke:#000000;stroke-miterlimit:1;" x1="413.65" y1="14.153" x2="415.625" y2="15.799"/>
	<line style="fill:none;stroke:#000000;stroke-miterlimit:1;" x1="415.625" y1="15.799" x2="415.625" y2="18.432"/>
	<line style="fill:none;stroke:#000000;stroke-miterlimit:1;" x1="415.625" y1="18.432" x2="414.967" y2="20.078"/>
	<line style="fill:none;stroke:#000000;stroke-miterlimit:1;" x1="414.967" y1="20.078" x2="413.65" y2="22.053"/>
	<line style="fill:none;stroke:#000000;stroke-miterlimit:1;" x1="413.65" y1="22.053" x2="412.992" y2="22.382"/>
	<line style="fill:none;stroke:#000000;stroke-miterlimit:1;" x1="412.992" y1="22.382" x2="412.992" y2="51.675"/>
	<line style="fill:none;stroke:#000000;stroke-miterlimit:1;" x1="412.992" y1="51.675" x2="426.816" y2="52.005"/>
	<line style="fill:none;stroke:#000000;stroke-miterlimit:1;" x1="400.484" y1="17.774" x2="402.46" y2="19.09"/>
	<line style="fill:none;stroke:#000000;stroke-miterlimit:1;" x1="402.46" y1="19.09" x2="405.093" y2="18.103"/>
	<line style="fill:none;stroke:#000000;stroke-miterlimit:1;" x1="164.201" y1="59.575" x2="164.201" y2="148.114"/>
	<line style="fill:none;stroke:#000000;stroke-miterlimit:1;" x1="164.201" y1="148.114" x2="171.113" y2="148.114"/>
	<line style="fill:none;stroke:#000000;stroke-miterlimit:1;" x1="171.113" y1="148.114" x2="171.113" y2="59.575"/>
	<line style="fill:none;stroke:#000000;stroke-miterlimit:1;" x1="130.629" y1="59.246" x2="204.686" y2="59.246"/>
	<line style="fill:none;stroke:#000000;stroke-miterlimit:1;" x1="204.686" y1="59.246" x2="204.686" y2="35.876"/>
	<line style="fill:none;stroke:#000000;stroke-miterlimit:1;" x1="204.686" y1="35.876" x2="203.369" y2="33.244"/>
	<line style="fill:none;stroke:#000000;stroke-miterlimit:1;" x1="203.369" y1="33.244" x2="202.053" y2="31.598"/>
	<line style="fill:none;stroke:#000000;stroke-miterlimit:1;" x1="202.053" y1="31.598" x2="200.407" y2="31.598"/>
	<line style="fill:none;stroke:#000000;stroke-miterlimit:1;" x1="200.407" y1="31.598" x2="198.761" y2="31.598"/>
	<line style="fill:none;stroke:#000000;stroke-miterlimit:1;" x1="198.761" y1="31.598" x2="196.787" y2="31.927"/>
	<line style="fill:none;stroke:#000000;stroke-miterlimit:1;" x1="196.787" y1="31.927" x2="194.812" y2="33.244"/>
	<line style="fill:none;stroke:#000000;stroke-miterlimit:1;" x1="194.812" y1="33.244" x2="188.229" y2="39.168"/>
	<line style="fill:none;stroke:#000000;stroke-miterlimit:1;" x1="188.229" y1="39.168" x2="182.304" y2="44.435"/>
	<line style="fill:none;stroke:#000000;stroke-miterlimit:1;" x1="182.304" y1="44.435" x2="177.696" y2="46.738"/>
	<line style="fill:none;stroke:#000000;stroke-miterlimit:1;" x1="177.696" y1="46.738" x2="172.101" y2="48.055"/>
	<line style="fill:none;stroke:#000000;stroke-miterlimit:1;" x1="172.101" y1="48.055" x2="167.493" y2="48.384"/>
	<line style="fill:none;stroke:#000000;stroke-miterlimit:1;" x1="167.493" y1="48.384" x2="163.214" y2="48.055"/>
	<line style="fill:none;stroke:#000000;stroke-miterlimit:1;" x1="163.214" y1="48.055" x2="157.619" y2="46.738"/>
	<line style="fill:none;stroke:#000000;stroke-miterlimit:1;" x1="157.619" y1="46.738" x2="153.011" y2="44.435"/>
	<line style="fill:none;stroke:#000000;stroke-miterlimit:1;" x1="153.011" y1="44.435" x2="147.086" y2="39.168"/>
	<line style="fill:none;stroke:#000000;stroke-miterlimit:1;" x1="147.086" y1="39.168" x2="140.503" y2="33.244"/>
	<line style="fill:none;stroke:#000000;stroke-miterlimit:1;" x1="140.503" y1="33.244" x2="138.528" y2="31.927"/>
	<line style="fill:none;stroke:#000000;stroke-miterlimit:1;" x1="138.528" y1="31.927" x2="136.553" y2="31.598"/>
	<line style="fill:none;stroke:#000000;stroke-miterlimit:1;" x1="136.553" y1="31.598" x2="134.908" y2="31.598"/>
	<line style="fill:none;stroke:#000000;stroke-miterlimit:1;" x1="134.908" y1="31.598" x2="133.262" y2="31.598"/>
	<line style="fill:none;stroke:#000000;stroke-miterlimit:1;" x1="133.262" y1="31.598" x2="131.945" y2="33.244"/>
	<line style="fill:none;stroke:#000000;stroke-miterlimit:1;" x1="131.945" y1="33.244" x2="130.629" y2="35.876"/>
	<line style="fill:none;stroke:#000000;stroke-miterlimit:1;" x1="130.629" y1="35.876" x2="130.629" y2="59.246"/>
	<line style="fill:none;stroke:#000000;stroke-miterlimit:1;" x1="181.317" y1="44.435" x2="175.392" y2="5.596"/>
	<line style="fill:none;stroke:#000000;stroke-miterlimit:1;" x1="175.392" y1="5.596" x2="172.759" y2="2.304"/>
	<line style="fill:none;stroke:#000000;stroke-miterlimit:1;" x1="172.759" y1="2.304" x2="170.784" y2="0.987"/>
	<line style="fill:none;stroke:#000000;stroke-miterlimit:1;" x1="170.784" y1="0.987" x2="168.151" y2="0"/>
	<line style="fill:none;stroke:#000000;stroke-miterlimit:1;" x1="168.151" y1="0" x2="167.164" y2="0"/>
	<line style="fill:none;stroke:#000000;stroke-miterlimit:1;" x1="167.164" y1="0" x2="164.53" y2="0.987"/>
	<line style="fill:none;stroke:#000000;stroke-miterlimit:1;" x1="164.53" y1="0.987" x2="162.556" y2="2.304"/>
	<line style="fill:none;stroke:#000000;stroke-miterlimit:1;" x1="162.556" y1="2.304" x2="159.922" y2="5.596"/>
	<line style="fill:none;stroke:#000000;stroke-miterlimit:1;" x1="159.922" y1="5.596" x2="153.998" y2="44.435"/>
	<line style="fill:none;stroke:#000000;stroke-miterlimit:1;" x1="0" y1="4.279" x2="0" y2="34.56"/>
	<line style="fill:none;stroke:#000000;stroke-miterlimit:1;" x1="0" y1="34.56" x2="10.862" y2="33.244"/>
	<line style="fill:none;stroke:#000000;stroke-miterlimit:1;" x1="10.862" y1="33.244" x2="27.319" y2="33.902"/>
	<line style="fill:none;stroke:#000000;stroke-miterlimit:1;" x1="27.319" y1="33.902" x2="40.814" y2="35.876"/>
	<line style="fill:none;stroke:#000000;stroke-miterlimit:1;" x1="40.814" y1="35.876" x2="54.638" y2="39.826"/>
	<line style="fill:none;stroke:#000000;stroke-miterlimit:1;" x1="54.638" y1="0" x2="54.638" y2="148.114"/>
	<line style="fill:none;stroke:#000000;stroke-miterlimit:1;" x1="54.638" y1="148.114" x2="61.55" y2="148.114"/>
	<line style="fill:none;stroke:#000000;stroke-miterlimit:1;" x1="61.55" y1="148.114" x2="61.55" y2="0"/>
	<line style="fill:none;stroke:#000000;stroke-miterlimit:1;" x1="61.55" y1="0" x2="54.638" y2="0"/>
	<line style="fill:none;stroke:#000000;stroke-miterlimit:1;" x1="54.638" y1="0" x2="40.814" y2="3.292"/>
	<line style="fill:none;stroke:#000000;stroke-miterlimit:1;" x1="40.814" y1="3.292" x2="27.319" y2="4.608"/>
	<line style="fill:none;stroke:#000000;stroke-miterlimit:1;" x1="27.319" y1="4.608" x2="10.862" y2="5.266"/>
	<line style="fill:none;stroke:#000000;stroke-miterlimit:1;" x1="10.862" y1="5.266" x2="0" y2="4.279"/>
	<line style="fill:none;stroke:#000000;stroke-miterlimit:1;" x1="276.851" y1="0.329" x2="275.205" y2="33.573"/>
	<line style="fill:none;stroke:#000000;stroke-miterlimit:1;" x1="275.205" y1="33.573" x2="274.547" y2="61.879"/>
	<line style="fill:none;stroke:#000000;stroke-miterlimit:1;" x1="274.547" y1="61.879" x2="273.889" y2="83.603"/>
	<line style="fill:none;stroke:#000000;stroke-miterlimit:1;" x1="273.889" y1="83.603" x2="272.242" y2="99.072"/>
	<line style="fill:none;stroke:#000000;stroke-miterlimit:1;" x1="272.242" y1="99.072" x2="270.926" y2="113.884"/>
	<line style="fill:none;stroke:#000000;stroke-miterlimit:1;" x1="270.926" y1="113.884" x2="271.584" y2="129.683"/>
	<line style="fill:none;stroke:#000000;stroke-miterlimit:1;" x1="271.584" y1="129.683" x2="272.571" y2="134.619"/>
	<line style="fill:none;stroke:#000000;stroke-miterlimit:1;" x1="272.571" y1="134.619" x2="273.23" y2="138.569"/>
	<line style="fill:none;stroke:#000000;stroke-miterlimit:1;" x1="273.23" y1="138.569" x2="272.9" y2="142.519"/>
	<line style="fill:none;stroke:#000000;stroke-miterlimit:1;" x1="272.9" y1="142.519" x2="270.926" y2="145.152"/>
	<line style="fill:none;stroke:#000000;stroke-miterlimit:1;" x1="270.926" y1="145.152" x2="267.964" y2="147.127"/>
	<line style="fill:none;stroke:#000000;stroke-miterlimit:1;" x1="267.964" y1="147.127" x2="264.343" y2="147.785"/>
	<line style="fill:none;stroke:#000000;stroke-miterlimit:1;" x1="264.343" y1="147.785" x2="257.76" y2="146.14"/>
	<line style="fill:none;stroke:#000000;stroke-miterlimit:1;" x1="257.76" y1="146.14" x2="255.127" y2="144.165"/>
	<line style="fill:none;stroke:#000000;stroke-miterlimit:1;" x1="255.127" y1="144.165" x2="250.849" y2="143.177"/>
	<line style="fill:none;stroke:#000000;stroke-miterlimit:1;" x1="250.849" y1="143.177" x2="240.974" y2="148.114"/>
	<line style="fill:none;stroke:#000000;stroke-miterlimit:1;" x1="240.974" y1="148.114" x2="200.16" y2="147.785"/>
	<line style="fill:none;stroke:#000000;stroke-miterlimit:1;" x1="200.16" y1="147.785" x2="198.515" y2="142.519"/>
	<line style="fill:none;stroke:#000000;stroke-miterlimit:1;" x1="198.515" y1="142.519" x2="199.831" y2="139.886"/>
	<line style="fill:none;stroke:#000000;stroke-miterlimit:1;" x1="199.831" y1="139.886" x2="203.452" y2="139.228"/>
	<line style="fill:none;stroke:#000000;stroke-miterlimit:1;" x1="203.452" y1="139.228" x2="217.604" y2="136.266"/>
	<line style="fill:none;stroke:#000000;stroke-miterlimit:1;" x1="217.604" y1="136.266" x2="229.454" y2="130.341"/>
	<line style="fill:none;stroke:#000000;stroke-miterlimit:1;" x1="229.454" y1="130.341" x2="237.354" y2="127.378"/>
	<line style="fill:none;stroke:#000000;stroke-miterlimit:1;" x1="237.354" y1="127.378" x2="244.266" y2="125.732"/>
	<line style="fill:none;stroke:#000000;stroke-miterlimit:1;" x1="244.266" y1="125.732" x2="249.202" y2="121.454"/>
	<line style="fill:none;stroke:#000000;stroke-miterlimit:1;" x1="249.202" y1="121.454" x2="250.849" y2="117.175"/>
	<line style="fill:none;stroke:#000000;stroke-miterlimit:1;" x1="250.849" y1="117.175" x2="251.178" y2="112.567"/>
	<line style="fill:none;stroke:#000000;stroke-miterlimit:1;" x1="251.178" y1="112.567" x2="250.52" y2="105.655"/>
	<line style="fill:none;stroke:#000000;stroke-miterlimit:1;" x1="250.52" y1="105.655" x2="250.189" y2="96.438"/>
	<line style="fill:none;stroke:#000000;stroke-miterlimit:1;" x1="250.189" y1="96.438" x2="249.531" y2="71.424"/>
	<line style="fill:none;stroke:#000000;stroke-miterlimit:1;" x1="249.531" y1="71.424" x2="249.202" y2="46.409"/>
	<line style="fill:none;stroke:#000000;stroke-miterlimit:1;" x1="249.202" y1="46.409" x2="246.569" y2="0"/>
	<line style="fill:none;stroke:#000000;stroke-miterlimit:1;" x1="246.569" y1="0" x2="276.851" y2="0"/>
	<line style="fill:none;stroke:#000000;stroke-miterlimit:1;" x1="321.554" y1="12.876" x2="317.875" y2="14.716"/>
	<line style="fill:none;stroke:#000000;stroke-miterlimit:1;" x1="317.875" y1="14.716" x2="315.115" y2="18.088"/>
	<line style="fill:none;stroke:#000000;stroke-miterlimit:1;" x1="315.115" y1="18.088" x2="314.195" y2="20.847"/>
	<line style="fill:none;stroke:#000000;stroke-miterlimit:1;" x1="314.195" y1="20.847" x2="313.582" y2="23.606"/>
	<line style="fill:none;stroke:#000000;stroke-miterlimit:1;" x1="313.582" y1="23.606" x2="314.502" y2="27.898"/>
	<line style="fill:none;stroke:#000000;stroke-miterlimit:1;" x1="314.502" y1="27.898" x2="316.648" y2="30.658"/>
	<line style="fill:none;stroke:#000000;stroke-miterlimit:1;" x1="316.648" y1="30.658" x2="318.794" y2="32.497"/>
	<line style="fill:none;stroke:#000000;stroke-miterlimit:1;" x1="318.794" y1="32.497" x2="322.474" y2="33.724"/>
	<line style="fill:none;stroke:#000000;stroke-miterlimit:1;" x1="322.474" y1="33.724" x2="325.232" y2="34.643"/>
	<line style="fill:none;stroke:#000000;stroke-miterlimit:1;" x1="325.232" y1="34.643" x2="328.604" y2="34.643"/>
	<line style="fill:none;stroke:#000000;stroke-miterlimit:1;" x1="328.604" y1="34.643" x2="332.283" y2="33.11"/>
	<line style="fill:none;stroke:#000000;stroke-miterlimit:1;" x1="332.283" y1="33.11" x2="335.35" y2="31.577"/>
	<line style="fill:none;stroke:#000000;stroke-miterlimit:1;" x1="335.35" y1="31.577" x2="337.188" y2="29.431"/>
	<line style="fill:none;stroke:#000000;stroke-miterlimit:1;" x1="337.188" y1="29.431" x2="339.335" y2="26.366"/>
	<line style="fill:none;stroke:#000000;stroke-miterlimit:1;" x1="339.335" y1="26.366" x2="340.868" y2="22.687"/>
	<line style="fill:none;stroke:#000000;stroke-miterlimit:1;" x1="340.868" y1="22.687" x2="341.787" y2="19.621"/>
	<line style="fill:none;stroke:#000000;stroke-miterlimit:1;" x1="341.787" y1="19.621" x2="342.094" y2="16.555"/>
	<line style="fill:none;stroke:#000000;stroke-miterlimit:1;" x1="342.094" y1="16.555" x2="341.787" y2="14.409"/>
	<line style="fill:none;stroke:#000000;stroke-miterlimit:1;" x1="341.787" y1="14.409" x2="341.174" y2="10.73"/>
	<line style="fill:none;stroke:#000000;stroke-miterlimit:1;" x1="341.174" y1="10.73" x2="339.642" y2="7.665"/>
	<line style="fill:none;stroke:#000000;stroke-miterlimit:1;" x1="339.642" y1="7.665" x2="337.188" y2="4.599"/>
	<line style="fill:none;stroke:#000000;stroke-miterlimit:1;" x1="337.188" y1="4.599" x2="334.736" y2="2.453"/>
	<line style="fill:none;stroke:#000000;stroke-miterlimit:1;" x1="334.736" y1="2.453" x2="332.59" y2="1.533"/>
	<line style="fill:none;stroke:#000000;stroke-miterlimit:1;" x1="332.59" y1="1.533" x2="330.444" y2="0.613"/>
	<line style="fill:none;stroke:#000000;stroke-miterlimit:1;" x1="330.444" y1="0.613" x2="327.379" y2="0.307"/>
	<line style="fill:none;stroke:#000000;stroke-miterlimit:1;" x1="327.379" y1="0.307" x2="324.926" y2="0"/>
	<line style="fill:none;stroke:#000000;stroke-miterlimit:1;" x1="324.926" y1="0" x2="321.86" y2="0"/>
	<line style="fill:none;stroke:#000000;stroke-miterlimit:1;" x1="321.86" y1="0" x2="318.182" y2="0.307"/>
	<line style="fill:none;stroke:#000000;stroke-miterlimit:1;" x1="318.182" y1="0.307" x2="314.195" y2="1.533"/>
	<line style="fill:none;stroke:#000000;stroke-miterlimit:1;" x1="314.195" y1="1.533" x2="310.823" y2="3.373"/>
	<line style="fill:none;stroke:#000000;stroke-miterlimit:1;" x1="310.823" y1="3.373" x2="308.678" y2="5.212"/>
	<line style="fill:none;stroke:#000000;stroke-miterlimit:1;" x1="308.678" y1="5.212" x2="306.225" y2="7.358"/>
	<line style="fill:none;stroke:#000000;stroke-miterlimit:1;" x1="306.225" y1="7.358" x2="304.386" y2="9.504"/>
	<line style="fill:none;stroke:#000000;stroke-miterlimit:1;" x1="304.386" y1="9.504" x2="302.546" y2="12.876"/>
	<line style="fill:none;stroke:#000000;stroke-miterlimit:1;" x1="302.546" y1="12.876" x2="300.706" y2="16.249"/>
	<line style="fill:none;stroke:#000000;stroke-miterlimit:1;" x1="300.706" y1="16.249" x2="300.093" y2="19.314"/>
	<line style="fill:none;stroke:#000000;stroke-miterlimit:1;" x1="300.093" y1="19.314" x2="299.48" y2="23.606"/>
	<line style="fill:none;stroke:#000000;stroke-miterlimit:1;" x1="299.48" y1="23.606" x2="299.174" y2="27.898"/>
	<line style="fill:none;stroke:#000000;stroke-miterlimit:1;" x1="299.174" y1="27.898" x2="299.48" y2="31.271"/>
	<line style="fill:none;stroke:#000000;stroke-miterlimit:1;" x1="299.48" y1="31.271" x2="299.787" y2="36.176"/>
	<line style="fill:none;stroke:#000000;stroke-miterlimit:1;" x1="299.787" y1="36.176" x2="301.626" y2="41.081"/>
	<line style="fill:none;stroke:#000000;stroke-miterlimit:1;" x1="301.626" y1="41.081" x2="304.386" y2="46.6"/>
	<line style="fill:none;stroke:#000000;stroke-miterlimit:1;" x1="304.386" y1="46.6" x2="309.29" y2="53.038"/>
	<line style="fill:none;stroke:#000000;stroke-miterlimit:1;" x1="309.29" y1="53.038" x2="316.955" y2="60.396"/>
	<line style="fill:none;stroke:#000000;stroke-miterlimit:1;" x1="316.955" y1="60.396" x2="327.991" y2="69.286"/>
	<line style="fill:none;stroke:#000000;stroke-miterlimit:1;" x1="327.991" y1="69.286" x2="351.904" y2="82.775"/>
	<line style="fill:none;stroke:#000000;stroke-miterlimit:1;" x1="297.258" y1="92.931" x2="321.783" y2="148.114"/>
	<line style="fill:none;stroke:#000000;stroke-miterlimit:1;" x1="321.783" y1="148.114" x2="334.047" y2="148.114"/>
	<line style="fill:none;stroke:#000000;stroke-miterlimit:1;" x1="334.047" y1="148.114" x2="309.521" y2="92.931"/>
	<line style="fill:none;stroke:#000000;stroke-miterlimit:1;" x1="309.521" y1="92.931" x2="297.258" y2="92.931"/>
	<line style="fill:none;stroke:#000000;stroke-miterlimit:1;" x1="334.354" y1="92.931" x2="358.879" y2="148.114"/>
	<line style="fill:none;stroke:#000000;stroke-miterlimit:1;" x1="358.879" y1="148.114" x2="371.142" y2="148.114"/>
	<line style="fill:none;stroke:#000000;stroke-miterlimit:1;" x1="371.142" y1="148.114" x2="346.616" y2="92.931"/>
	<line style="fill:none;stroke:#000000;stroke-miterlimit:1;" x1="346.616" y1="92.931" x2="334.354" y2="92.931"/>
	<line style="fill:none;stroke:#000000;stroke-miterlimit:1;" x1="110.387" y1="126.062" x2="106.437" y2="121.125"/>
	<line style="fill:none;stroke:#000000;stroke-miterlimit:1;" x1="106.437" y1="121.125" x2="101.5" y2="116.188"/>
	<line style="fill:none;stroke:#000000;stroke-miterlimit:1;" x1="101.5" y1="116.188" x2="97.55" y2="111.908"/>
	<line style="fill:none;stroke:#000000;stroke-miterlimit:1;" x1="97.55" y1="111.908" x2="93.271" y2="107.301"/>
	<line style="fill:none;stroke:#000000;stroke-miterlimit:1;" x1="93.271" y1="107.301" x2="88.005" y2="102.034"/>
	<line style="fill:none;stroke:#000000;stroke-miterlimit:1;" x1="88.005" y1="102.034" x2="82.738" y2="98.085"/>
	<line style="fill:none;stroke:#000000;stroke-miterlimit:1;" x1="82.738" y1="98.085" x2="77.143" y2="94.135"/>
	<line style="fill:none;stroke:#000000;stroke-miterlimit:1;" x1="77.143" y1="94.135" x2="87.676" y2="0"/>
	<line style="fill:none;stroke:#000000;stroke-miterlimit:1;" x1="87.676" y1="0" x2="90.967" y2="0.987"/>
	<line style="fill:none;stroke:#000000;stroke-miterlimit:1;" x1="90.967" y1="0.987" x2="94.587" y2="2.633"/>
	<line style="fill:none;stroke:#000000;stroke-miterlimit:1;" x1="94.587" y1="2.633" x2="97.55" y2="4.937"/>
	<line style="fill:none;stroke:#000000;stroke-miterlimit:1;" x1="97.55" y1="4.937" x2="100.512" y2="8.558"/>
	<line style="fill:none;stroke:#000000;stroke-miterlimit:1;" x1="100.512" y1="8.558" x2="103.146" y2="12.836"/>
	<line style="fill:none;stroke:#000000;stroke-miterlimit:1;" x1="103.146" y1="12.836" x2="104.462" y2="17.445"/>
	<line style="fill:none;stroke:#000000;stroke-miterlimit:1;" x1="104.462" y1="17.445" x2="105.449" y2="21.395"/>
	<line style="fill:none;stroke:#000000;stroke-miterlimit:1;" x1="105.449" y1="21.395" x2="106.437" y2="26.661"/>
	<line style="fill:none;stroke:#000000;stroke-miterlimit:1;" x1="106.437" y1="26.661" x2="111.045" y2="147.785"/>
	<line style="fill:none;stroke:#000000;stroke-miterlimit:1;" x1="111.045" y1="147.785" x2="104.791" y2="148.114"/>
	<line style="fill:none;stroke:#000000;stroke-miterlimit:1;" x1="104.791" y1="148.114" x2="106.107" y2="120.796"/>
</g>
</svg>
