<?xml version="1.0" encoding="iso-8859-1"?>
<!-- Generator: Adobe Illustrator 16.0.1, SVG Export Plug-In . SVG Version: 6.00 Build 0)  -->
<!DOCTYPE svg PUBLIC "-//W3C//DTD SVG 1.1//EN" "http://www.w3.org/Graphics/SVG/1.1/DTD/svg11.dtd">
<svg version="1.1" id="Ebene_1" xmlns="http://www.w3.org/2000/svg" xmlns:xlink="http://www.w3.org/1999/xlink" x="0px" y="0px"
	 width="433.418px" height="148.772px" viewBox="0 0 433.418 148.772" style="enable-background:new 0 0 433.418 148.772;"
	 xml:space="preserve">
<g>
	<line style="fill:none;stroke:#000000;stroke-miterlimit:1;" x1="316.676" y1="52.992" x2="316.348" y2="57.929"/>
	<line style="fill:none;stroke:#000000;stroke-miterlimit:1;" x1="316.348" y1="57.929" x2="316.018" y2="65.17"/>
	<line style="fill:none;stroke:#000000;stroke-miterlimit:1;" x1="316.018" y1="65.17" x2="316.348" y2="71.753"/>
	<line style="fill:none;stroke:#000000;stroke-miterlimit:1;" x1="316.348" y1="71.753" x2="317.006" y2="78.007"/>
	<line style="fill:none;stroke:#000000;stroke-miterlimit:1;" x1="317.006" y1="78.007" x2="317.006" y2="83.273"/>
	<line style="fill:none;stroke:#000000;stroke-miterlimit:1;" x1="317.006" y1="83.273" x2="316.018" y2="88.869"/>
	<line style="fill:none;stroke:#000000;stroke-miterlimit:1;" x1="316.018" y1="88.869" x2="315.031" y2="95.122"/>
	<line style="fill:none;stroke:#000000;stroke-miterlimit:1;" x1="315.031" y1="95.122" x2="313.715" y2="101.376"/>
	<line style="fill:none;stroke:#000000;stroke-miterlimit:1;" x1="313.715" y1="101.376" x2="312.398" y2="109.275"/>
	<line style="fill:none;stroke:#000000;stroke-miterlimit:1;" x1="312.398" y1="109.275" x2="311.74" y2="117.504"/>
	<line style="fill:none;stroke:#000000;stroke-miterlimit:1;" x1="311.74" y1="117.504" x2="310.424" y2="125.074"/>
	<line style="fill:none;stroke:#000000;stroke-miterlimit:1;" x1="310.424" y1="125.074" x2="309.436" y2="131.328"/>
	<line style="fill:none;stroke:#000000;stroke-miterlimit:1;" x1="309.436" y1="131.328" x2="309.436" y2="137.253"/>
	<line style="fill:none;stroke:#000000;stroke-miterlimit:1;" x1="309.436" y1="137.253" x2="310.424" y2="142.189"/>
	<line style="fill:none;stroke:#000000;stroke-miterlimit:1;" x1="310.424" y1="142.189" x2="310.752" y2="144.165"/>
	<line style="fill:none;stroke:#000000;stroke-miterlimit:1;" x1="310.752" y1="144.165" x2="311.082" y2="145.481"/>
	<line style="fill:none;stroke:#000000;stroke-miterlimit:1;" x1="311.082" y1="145.481" x2="310.752" y2="147.127"/>
	<line style="fill:none;stroke:#000000;stroke-miterlimit:1;" x1="310.752" y1="147.127" x2="309.105" y2="148.772"/>
	<line style="fill:none;stroke:#000000;stroke-miterlimit:1;" x1="309.105" y1="148.772" x2="280.801" y2="148.772"/>
	<line style="fill:none;stroke:#000000;stroke-miterlimit:1;" x1="280.801" y1="148.772" x2="280.801" y2="145.811"/>
	<line style="fill:none;stroke:#000000;stroke-miterlimit:1;" x1="280.801" y1="145.811" x2="284.42" y2="145.152"/>
	<line style="fill:none;stroke:#000000;stroke-miterlimit:1;" x1="284.42" y1="145.152" x2="288.041" y2="144.165"/>
	<line style="fill:none;stroke:#000000;stroke-miterlimit:1;" x1="288.041" y1="144.165" x2="290.674" y2="143.507"/>
	<line style="fill:none;stroke:#000000;stroke-miterlimit:1;" x1="290.674" y1="143.507" x2="294.295" y2="141.86"/>
	<line style="fill:none;stroke:#000000;stroke-miterlimit:1;" x1="294.295" y1="141.86" x2="297.258" y2="139.886"/>
	<line style="fill:none;stroke:#000000;stroke-miterlimit:1;" x1="297.258" y1="139.886" x2="298.902" y2="137.911"/>
	<line style="fill:none;stroke:#000000;stroke-miterlimit:1;" x1="298.902" y1="137.911" x2="299.891" y2="133.632"/>
	<line style="fill:none;stroke:#000000;stroke-miterlimit:1;" x1="299.891" y1="133.632" x2="300.549" y2="127.05"/>
	<line style="fill:none;stroke:#000000;stroke-miterlimit:1;" x1="300.549" y1="127.05" x2="299.561" y2="116.517"/>
	<line style="fill:none;stroke:#000000;stroke-miterlimit:1;" x1="299.561" y1="116.517" x2="297.586" y2="103.021"/>
	<line style="fill:none;stroke:#000000;stroke-miterlimit:1;" x1="297.586" y1="103.021" x2="295.941" y2="90.515"/>
	<line style="fill:none;stroke:#000000;stroke-miterlimit:1;" x1="295.941" y1="90.515" x2="294.295" y2="78.336"/>
	<line style="fill:none;stroke:#000000;stroke-miterlimit:1;" x1="294.295" y1="78.336" x2="293.637" y2="67.804"/>
	<line style="fill:none;stroke:#000000;stroke-miterlimit:1;" x1="293.637" y1="67.804" x2="293.307" y2="57.6"/>
	<line style="fill:none;stroke:#000000;stroke-miterlimit:1;" x1="293.307" y1="57.6" x2="293.637" y2="48.713"/>
	<line style="fill:none;stroke:#000000;stroke-miterlimit:1;" x1="293.637" y1="48.713" x2="295.283" y2="41.472"/>
	<line style="fill:none;stroke:#000000;stroke-miterlimit:1;" x1="295.283" y1="41.472" x2="296.6" y2="38.839"/>
	<line style="fill:none;stroke:#000000;stroke-miterlimit:1;" x1="296.6" y1="38.839" x2="299.232" y2="35.877"/>
	<line style="fill:none;stroke:#000000;stroke-miterlimit:1;" x1="299.232" y1="35.877" x2="302.195" y2="34.889"/>
	<line style="fill:none;stroke:#000000;stroke-miterlimit:1;" x1="302.195" y1="34.889" x2="302.195" y2="29.623"/>
	<line style="fill:none;stroke:#000000;stroke-miterlimit:1;" x1="302.195" y1="29.623" x2="294.625" y2="28.965"/>
	<line style="fill:none;stroke:#000000;stroke-miterlimit:1;" x1="294.625" y1="28.965" x2="286.725" y2="36.864"/>
	<line style="fill:none;stroke:#000000;stroke-miterlimit:1;" x1="286.725" y1="36.864" x2="290.674" y2="39.827"/>
	<line style="fill:none;stroke:#000000;stroke-miterlimit:1;" x1="290.674" y1="39.827" x2="294.295" y2="29.294"/>
	<line style="fill:none;stroke:#000000;stroke-miterlimit:1;" x1="294.295" y1="29.294" x2="293.307" y2="28.307"/>
	<line style="fill:none;stroke:#000000;stroke-miterlimit:1;" x1="293.307" y1="28.307" x2="292.648" y2="22.382"/>
	<line style="fill:none;stroke:#000000;stroke-miterlimit:1;" x1="292.648" y1="22.382" x2="288.371" y2="21.724"/>
	<line style="fill:none;stroke:#000000;stroke-miterlimit:1;" x1="288.371" y1="21.724" x2="288.371" y2="20.407"/>
	<line style="fill:none;stroke:#000000;stroke-miterlimit:1;" x1="288.371" y1="20.407" x2="290.674" y2="17.116"/>
	<line style="fill:none;stroke:#000000;stroke-miterlimit:1;" x1="290.674" y1="17.116" x2="291.332" y2="14.812"/>
	<line style="fill:none;stroke:#000000;stroke-miterlimit:1;" x1="291.332" y1="14.812" x2="291.99" y2="13.166"/>
	<line style="fill:none;stroke:#000000;stroke-miterlimit:1;" x1="291.99" y1="13.166" x2="292.979" y2="11.85"/>
	<line style="fill:none;stroke:#000000;stroke-miterlimit:1;" x1="292.979" y1="11.85" x2="293.307" y2="9.545"/>
	<line style="fill:none;stroke:#000000;stroke-miterlimit:1;" x1="293.307" y1="9.545" x2="294.625" y2="6.912"/>
	<line style="fill:none;stroke:#000000;stroke-miterlimit:1;" x1="294.625" y1="6.912" x2="296.6" y2="4.279"/>
	<line style="fill:none;stroke:#000000;stroke-miterlimit:1;" x1="296.6" y1="4.279" x2="298.574" y2="2.633"/>
	<line style="fill:none;stroke:#000000;stroke-miterlimit:1;" x1="298.574" y1="2.633" x2="301.537" y2="1.317"/>
	<line style="fill:none;stroke:#000000;stroke-miterlimit:1;" x1="301.537" y1="1.317" x2="304.17" y2="0.659"/>
	<line style="fill:none;stroke:#000000;stroke-miterlimit:1;" x1="304.17" y1="0.659" x2="305.814" y2="0.659"/>
	<line style="fill:none;stroke:#000000;stroke-miterlimit:1;" x1="305.814" y1="0.659" x2="308.777" y2="0.659"/>
	<line style="fill:none;stroke:#000000;stroke-miterlimit:1;" x1="308.777" y1="0.659" x2="311.74" y2="1.646"/>
	<line style="fill:none;stroke:#000000;stroke-miterlimit:1;" x1="311.74" y1="1.646" x2="313.715" y2="2.304"/>
	<line style="fill:none;stroke:#000000;stroke-miterlimit:1;" x1="313.715" y1="2.304" x2="316.348" y2="4.279"/>
	<line style="fill:none;stroke:#000000;stroke-miterlimit:1;" x1="316.348" y1="4.279" x2="317.994" y2="5.925"/>
	<line style="fill:none;stroke:#000000;stroke-miterlimit:1;" x1="317.994" y1="5.925" x2="318.652" y2="6.583"/>
	<line style="fill:none;stroke:#000000;stroke-miterlimit:1;" x1="318.652" y1="6.583" x2="320.955" y2="10.533"/>
	<line style="fill:none;stroke:#000000;stroke-miterlimit:1;" x1="320.955" y1="10.533" x2="321.613" y2="12.837"/>
	<line style="fill:none;stroke:#000000;stroke-miterlimit:1;" x1="321.613" y1="12.837" x2="322.271" y2="16.128"/>
	<line style="fill:none;stroke:#000000;stroke-miterlimit:1;" x1="322.271" y1="16.128" x2="322.602" y2="18.103"/>
	<line style="fill:none;stroke:#000000;stroke-miterlimit:1;" x1="322.602" y1="18.103" x2="322.93" y2="20.736"/>
	<line style="fill:none;stroke:#000000;stroke-miterlimit:1;" x1="322.93" y1="20.736" x2="322.93" y2="52.005"/>
	<line style="fill:none;stroke:#000000;stroke-miterlimit:1;" x1="292.979" y1="12.179" x2="306.803" y2="12.508"/>
	<line style="fill:none;stroke:#000000;stroke-miterlimit:1;" x1="306.803" y1="12.508" x2="307.461" y2="14.482"/>
	<line style="fill:none;stroke:#000000;stroke-miterlimit:1;" x1="307.461" y1="14.482" x2="307.789" y2="14.482"/>
	<line style="fill:none;stroke:#000000;stroke-miterlimit:1;" x1="307.789" y1="14.482" x2="309.766" y2="14.812"/>
	<line style="fill:none;stroke:#000000;stroke-miterlimit:1;" x1="309.766" y1="14.812" x2="311.74" y2="16.458"/>
	<line style="fill:none;stroke:#000000;stroke-miterlimit:1;" x1="311.74" y1="16.458" x2="311.74" y2="19.09"/>
	<line style="fill:none;stroke:#000000;stroke-miterlimit:1;" x1="311.74" y1="19.09" x2="311.082" y2="20.736"/>
	<line style="fill:none;stroke:#000000;stroke-miterlimit:1;" x1="311.082" y1="20.736" x2="309.766" y2="22.711"/>
	<line style="fill:none;stroke:#000000;stroke-miterlimit:1;" x1="309.766" y1="22.711" x2="309.105" y2="23.04"/>
	<line style="fill:none;stroke:#000000;stroke-miterlimit:1;" x1="309.105" y1="23.04" x2="309.105" y2="52.334"/>
	<line style="fill:none;stroke:#000000;stroke-miterlimit:1;" x1="309.105" y1="52.334" x2="322.93" y2="52.663"/>
	<line style="fill:none;stroke:#000000;stroke-miterlimit:1;" x1="296.6" y1="18.432" x2="298.574" y2="19.749"/>
	<line style="fill:none;stroke:#000000;stroke-miterlimit:1;" x1="298.574" y1="19.749" x2="301.207" y2="18.761"/>
	<line style="fill:none;stroke:#000000;stroke-miterlimit:1;" x1="87.059" y1="60.233" x2="87.059" y2="148.772"/>
	<line style="fill:none;stroke:#000000;stroke-miterlimit:1;" x1="87.059" y1="148.772" x2="93.97" y2="148.772"/>
	<line style="fill:none;stroke:#000000;stroke-miterlimit:1;" x1="93.97" y1="148.772" x2="93.97" y2="60.233"/>
	<line style="fill:none;stroke:#000000;stroke-miterlimit:1;" x1="53.486" y1="59.904" x2="127.543" y2="59.904"/>
	<line style="fill:none;stroke:#000000;stroke-miterlimit:1;" x1="127.543" y1="59.904" x2="127.543" y2="36.535"/>
	<line style="fill:none;stroke:#000000;stroke-miterlimit:1;" x1="127.543" y1="36.535" x2="126.227" y2="33.902"/>
	<line style="fill:none;stroke:#000000;stroke-miterlimit:1;" x1="126.227" y1="33.902" x2="124.91" y2="32.256"/>
	<line style="fill:none;stroke:#000000;stroke-miterlimit:1;" x1="124.91" y1="32.256" x2="123.264" y2="32.256"/>
	<line style="fill:none;stroke:#000000;stroke-miterlimit:1;" x1="123.264" y1="32.256" x2="121.619" y2="32.256"/>
	<line style="fill:none;stroke:#000000;stroke-miterlimit:1;" x1="121.619" y1="32.256" x2="119.644" y2="32.585"/>
	<line style="fill:none;stroke:#000000;stroke-miterlimit:1;" x1="119.644" y1="32.585" x2="117.668" y2="33.902"/>
	<line style="fill:none;stroke:#000000;stroke-miterlimit:1;" x1="117.668" y1="33.902" x2="111.086" y2="39.827"/>
	<line style="fill:none;stroke:#000000;stroke-miterlimit:1;" x1="111.086" y1="39.827" x2="105.161" y2="45.093"/>
	<line style="fill:none;stroke:#000000;stroke-miterlimit:1;" x1="105.161" y1="45.093" x2="100.553" y2="47.397"/>
	<line style="fill:none;stroke:#000000;stroke-miterlimit:1;" x1="100.553" y1="47.397" x2="94.958" y2="48.713"/>
	<line style="fill:none;stroke:#000000;stroke-miterlimit:1;" x1="94.958" y1="48.713" x2="90.35" y2="49.042"/>
	<line style="fill:none;stroke:#000000;stroke-miterlimit:1;" x1="90.35" y1="49.042" x2="86.071" y2="48.713"/>
	<line style="fill:none;stroke:#000000;stroke-miterlimit:1;" x1="86.071" y1="48.713" x2="80.476" y2="47.397"/>
	<line style="fill:none;stroke:#000000;stroke-miterlimit:1;" x1="80.476" y1="47.397" x2="75.868" y2="45.093"/>
	<line style="fill:none;stroke:#000000;stroke-miterlimit:1;" x1="75.868" y1="45.093" x2="69.943" y2="39.827"/>
	<line style="fill:none;stroke:#000000;stroke-miterlimit:1;" x1="69.943" y1="39.827" x2="63.36" y2="33.902"/>
	<line style="fill:none;stroke:#000000;stroke-miterlimit:1;" x1="63.36" y1="33.902" x2="61.385" y2="32.585"/>
	<line style="fill:none;stroke:#000000;stroke-miterlimit:1;" x1="61.385" y1="32.585" x2="59.411" y2="32.256"/>
	<line style="fill:none;stroke:#000000;stroke-miterlimit:1;" x1="59.411" y1="32.256" x2="57.765" y2="32.256"/>
	<line style="fill:none;stroke:#000000;stroke-miterlimit:1;" x1="57.765" y1="32.256" x2="56.119" y2="32.256"/>
	<line style="fill:none;stroke:#000000;stroke-miterlimit:1;" x1="56.119" y1="32.256" x2="54.802" y2="33.902"/>
	<line style="fill:none;stroke:#000000;stroke-miterlimit:1;" x1="54.802" y1="33.902" x2="53.486" y2="36.535"/>
	<line style="fill:none;stroke:#000000;stroke-miterlimit:1;" x1="53.486" y1="36.535" x2="53.486" y2="59.904"/>
	<line style="fill:none;stroke:#000000;stroke-miterlimit:1;" x1="104.174" y1="45.093" x2="98.25" y2="6.254"/>
	<line style="fill:none;stroke:#000000;stroke-miterlimit:1;" x1="98.25" y1="6.254" x2="95.616" y2="2.962"/>
	<line style="fill:none;stroke:#000000;stroke-miterlimit:1;" x1="95.616" y1="2.962" x2="93.641" y2="1.646"/>
	<line style="fill:none;stroke:#000000;stroke-miterlimit:1;" x1="93.641" y1="1.646" x2="91.008" y2="0.659"/>
	<line style="fill:none;stroke:#000000;stroke-miterlimit:1;" x1="91.008" y1="0.659" x2="90.021" y2="0.659"/>
	<line style="fill:none;stroke:#000000;stroke-miterlimit:1;" x1="90.021" y1="0.659" x2="87.388" y2="1.646"/>
	<line style="fill:none;stroke:#000000;stroke-miterlimit:1;" x1="87.388" y1="1.646" x2="85.413" y2="2.962"/>
	<line style="fill:none;stroke:#000000;stroke-miterlimit:1;" x1="85.413" y1="2.962" x2="82.78" y2="6.254"/>
	<line style="fill:none;stroke:#000000;stroke-miterlimit:1;" x1="82.78" y1="6.254" x2="76.855" y2="45.093"/>
	<line style="fill:none;stroke:#000000;stroke-miterlimit:1;" x1="267.594" y1="0.988" x2="265.947" y2="34.231"/>
	<line style="fill:none;stroke:#000000;stroke-miterlimit:1;" x1="265.947" y1="34.231" x2="265.289" y2="62.537"/>
	<line style="fill:none;stroke:#000000;stroke-miterlimit:1;" x1="265.289" y1="62.537" x2="264.631" y2="84.261"/>
	<line style="fill:none;stroke:#000000;stroke-miterlimit:1;" x1="264.631" y1="84.261" x2="262.984" y2="99.73"/>
	<line style="fill:none;stroke:#000000;stroke-miterlimit:1;" x1="262.984" y1="99.73" x2="261.668" y2="114.542"/>
	<line style="fill:none;stroke:#000000;stroke-miterlimit:1;" x1="261.668" y1="114.542" x2="262.326" y2="130.341"/>
	<line style="fill:none;stroke:#000000;stroke-miterlimit:1;" x1="262.326" y1="130.341" x2="263.314" y2="135.278"/>
	<line style="fill:none;stroke:#000000;stroke-miterlimit:1;" x1="263.314" y1="135.278" x2="263.973" y2="139.228"/>
	<line style="fill:none;stroke:#000000;stroke-miterlimit:1;" x1="263.973" y1="139.228" x2="263.643" y2="143.178"/>
	<line style="fill:none;stroke:#000000;stroke-miterlimit:1;" x1="263.643" y1="143.178" x2="261.668" y2="145.811"/>
	<line style="fill:none;stroke:#000000;stroke-miterlimit:1;" x1="261.668" y1="145.811" x2="258.707" y2="147.785"/>
	<line style="fill:none;stroke:#000000;stroke-miterlimit:1;" x1="258.707" y1="147.785" x2="255.086" y2="148.443"/>
	<line style="fill:none;stroke:#000000;stroke-miterlimit:1;" x1="255.086" y1="148.443" x2="248.504" y2="146.798"/>
	<line style="fill:none;stroke:#000000;stroke-miterlimit:1;" x1="248.504" y1="146.798" x2="245.869" y2="144.823"/>
	<line style="fill:none;stroke:#000000;stroke-miterlimit:1;" x1="245.869" y1="144.823" x2="241.592" y2="143.836"/>
	<line style="fill:none;stroke:#000000;stroke-miterlimit:1;" x1="241.592" y1="143.836" x2="231.717" y2="148.772"/>
	<line style="fill:none;stroke:#000000;stroke-miterlimit:1;" x1="231.717" y1="148.772" x2="190.903" y2="148.443"/>
	<line style="fill:none;stroke:#000000;stroke-miterlimit:1;" x1="190.903" y1="148.443" x2="189.257" y2="143.178"/>
	<line style="fill:none;stroke:#000000;stroke-miterlimit:1;" x1="189.257" y1="143.178" x2="190.574" y2="140.544"/>
	<line style="fill:none;stroke:#000000;stroke-miterlimit:1;" x1="190.574" y1="140.544" x2="194.194" y2="139.886"/>
	<line style="fill:none;stroke:#000000;stroke-miterlimit:1;" x1="194.194" y1="139.886" x2="208.348" y2="136.924"/>
	<line style="fill:none;stroke:#000000;stroke-miterlimit:1;" x1="208.348" y1="136.924" x2="220.197" y2="130.999"/>
	<line style="fill:none;stroke:#000000;stroke-miterlimit:1;" x1="220.197" y1="130.999" x2="228.096" y2="128.037"/>
	<line style="fill:none;stroke:#000000;stroke-miterlimit:1;" x1="228.096" y1="128.037" x2="235.008" y2="126.391"/>
	<line style="fill:none;stroke:#000000;stroke-miterlimit:1;" x1="235.008" y1="126.391" x2="239.945" y2="122.112"/>
	<line style="fill:none;stroke:#000000;stroke-miterlimit:1;" x1="239.945" y1="122.112" x2="241.592" y2="117.833"/>
	<line style="fill:none;stroke:#000000;stroke-miterlimit:1;" x1="241.592" y1="117.833" x2="241.92" y2="113.226"/>
	<line style="fill:none;stroke:#000000;stroke-miterlimit:1;" x1="241.92" y1="113.226" x2="241.262" y2="106.313"/>
	<line style="fill:none;stroke:#000000;stroke-miterlimit:1;" x1="241.262" y1="106.313" x2="240.934" y2="97.098"/>
	<line style="fill:none;stroke:#000000;stroke-miterlimit:1;" x1="240.934" y1="97.098" x2="240.275" y2="72.083"/>
	<line style="fill:none;stroke:#000000;stroke-miterlimit:1;" x1="240.275" y1="72.083" x2="239.945" y2="47.068"/>
	<line style="fill:none;stroke:#000000;stroke-miterlimit:1;" x1="239.945" y1="47.068" x2="237.312" y2="0.659"/>
	<line style="fill:none;stroke:#000000;stroke-miterlimit:1;" x1="237.312" y1="0.659" x2="267.594" y2="0.659"/>
	<line style="fill:none;stroke:#000000;stroke-miterlimit:1;" x1="166.239" y1="47.478" x2="162.56" y2="49.317"/>
	<line style="fill:none;stroke:#000000;stroke-miterlimit:1;" x1="162.56" y1="49.317" x2="159.801" y2="52.689"/>
	<line style="fill:none;stroke:#000000;stroke-miterlimit:1;" x1="159.801" y1="52.689" x2="158.881" y2="55.448"/>
	<line style="fill:none;stroke:#000000;stroke-miterlimit:1;" x1="158.881" y1="55.448" x2="158.268" y2="58.208"/>
	<line style="fill:none;stroke:#000000;stroke-miterlimit:1;" x1="158.268" y1="58.208" x2="159.188" y2="62.5"/>
	<line style="fill:none;stroke:#000000;stroke-miterlimit:1;" x1="159.188" y1="62.5" x2="161.334" y2="65.259"/>
	<line style="fill:none;stroke:#000000;stroke-miterlimit:1;" x1="161.334" y1="65.259" x2="163.48" y2="67.098"/>
	<line style="fill:none;stroke:#000000;stroke-miterlimit:1;" x1="163.48" y1="67.098" x2="167.159" y2="68.325"/>
	<line style="fill:none;stroke:#000000;stroke-miterlimit:1;" x1="167.159" y1="68.325" x2="169.918" y2="69.244"/>
	<line style="fill:none;stroke:#000000;stroke-miterlimit:1;" x1="169.918" y1="69.244" x2="173.291" y2="69.244"/>
	<line style="fill:none;stroke:#000000;stroke-miterlimit:1;" x1="173.291" y1="69.244" x2="176.969" y2="67.711"/>
	<line style="fill:none;stroke:#000000;stroke-miterlimit:1;" x1="176.969" y1="67.711" x2="180.035" y2="66.179"/>
	<line style="fill:none;stroke:#000000;stroke-miterlimit:1;" x1="180.035" y1="66.179" x2="181.875" y2="64.033"/>
	<line style="fill:none;stroke:#000000;stroke-miterlimit:1;" x1="181.875" y1="64.033" x2="184.021" y2="60.967"/>
	<line style="fill:none;stroke:#000000;stroke-miterlimit:1;" x1="184.021" y1="60.967" x2="185.553" y2="57.288"/>
	<line style="fill:none;stroke:#000000;stroke-miterlimit:1;" x1="185.553" y1="57.288" x2="186.473" y2="54.222"/>
	<line style="fill:none;stroke:#000000;stroke-miterlimit:1;" x1="186.473" y1="54.222" x2="186.78" y2="51.156"/>
	<line style="fill:none;stroke:#000000;stroke-miterlimit:1;" x1="186.78" y1="51.156" x2="186.473" y2="49.01"/>
	<line style="fill:none;stroke:#000000;stroke-miterlimit:1;" x1="186.473" y1="49.01" x2="185.86" y2="45.332"/>
	<line style="fill:none;stroke:#000000;stroke-miterlimit:1;" x1="185.86" y1="45.332" x2="184.327" y2="42.266"/>
	<line style="fill:none;stroke:#000000;stroke-miterlimit:1;" x1="184.327" y1="42.266" x2="181.875" y2="39.2"/>
	<line style="fill:none;stroke:#000000;stroke-miterlimit:1;" x1="181.875" y1="39.2" x2="179.422" y2="37.054"/>
	<line style="fill:none;stroke:#000000;stroke-miterlimit:1;" x1="179.422" y1="37.054" x2="177.276" y2="36.134"/>
	<line style="fill:none;stroke:#000000;stroke-miterlimit:1;" x1="177.276" y1="36.134" x2="175.13" y2="35.214"/>
	<line style="fill:none;stroke:#000000;stroke-miterlimit:1;" x1="175.13" y1="35.214" x2="172.064" y2="34.908"/>
	<line style="fill:none;stroke:#000000;stroke-miterlimit:1;" x1="172.064" y1="34.908" x2="169.611" y2="34.602"/>
	<line style="fill:none;stroke:#000000;stroke-miterlimit:1;" x1="169.611" y1="34.602" x2="166.546" y2="34.602"/>
	<line style="fill:none;stroke:#000000;stroke-miterlimit:1;" x1="166.546" y1="34.602" x2="162.867" y2="34.908"/>
	<line style="fill:none;stroke:#000000;stroke-miterlimit:1;" x1="162.867" y1="34.908" x2="158.881" y2="36.134"/>
	<line style="fill:none;stroke:#000000;stroke-miterlimit:1;" x1="158.881" y1="36.134" x2="155.509" y2="37.974"/>
	<line style="fill:none;stroke:#000000;stroke-miterlimit:1;" x1="155.509" y1="37.974" x2="153.363" y2="39.813"/>
	<line style="fill:none;stroke:#000000;stroke-miterlimit:1;" x1="153.363" y1="39.813" x2="150.91" y2="41.959"/>
	<line style="fill:none;stroke:#000000;stroke-miterlimit:1;" x1="150.91" y1="41.959" x2="149.071" y2="44.105"/>
	<line style="fill:none;stroke:#000000;stroke-miterlimit:1;" x1="149.071" y1="44.105" x2="147.231" y2="47.478"/>
	<line style="fill:none;stroke:#000000;stroke-miterlimit:1;" x1="147.231" y1="47.478" x2="145.392" y2="50.85"/>
	<line style="fill:none;stroke:#000000;stroke-miterlimit:1;" x1="145.392" y1="50.85" x2="144.779" y2="53.916"/>
	<line style="fill:none;stroke:#000000;stroke-miterlimit:1;" x1="144.779" y1="53.916" x2="144.166" y2="58.208"/>
	<line style="fill:none;stroke:#000000;stroke-miterlimit:1;" x1="144.166" y1="58.208" x2="143.859" y2="62.5"/>
	<line style="fill:none;stroke:#000000;stroke-miterlimit:1;" x1="143.859" y1="62.5" x2="144.166" y2="65.872"/>
	<line style="fill:none;stroke:#000000;stroke-miterlimit:1;" x1="144.166" y1="65.872" x2="144.472" y2="70.777"/>
	<line style="fill:none;stroke:#000000;stroke-miterlimit:1;" x1="144.472" y1="70.777" x2="146.312" y2="75.683"/>
	<line style="fill:none;stroke:#000000;stroke-miterlimit:1;" x1="146.312" y1="75.683" x2="149.071" y2="81.201"/>
	<line style="fill:none;stroke:#000000;stroke-miterlimit:1;" x1="149.071" y1="81.201" x2="153.976" y2="87.639"/>
	<line style="fill:none;stroke:#000000;stroke-miterlimit:1;" x1="153.976" y1="87.639" x2="161.641" y2="94.997"/>
	<line style="fill:none;stroke:#000000;stroke-miterlimit:1;" x1="161.641" y1="94.997" x2="172.677" y2="103.888"/>
	<line style="fill:none;stroke:#000000;stroke-miterlimit:1;" x1="172.677" y1="103.888" x2="196.59" y2="117.377"/>
	<line style="fill:none;stroke:#000000;stroke-miterlimit:1;" x1="33.244" y1="126.721" x2="29.294" y2="121.783"/>
	<line style="fill:none;stroke:#000000;stroke-miterlimit:1;" x1="29.294" y1="121.783" x2="24.356" y2="116.846"/>
	<line style="fill:none;stroke:#000000;stroke-miterlimit:1;" x1="24.356" y1="116.846" x2="20.407" y2="112.567"/>
	<line style="fill:none;stroke:#000000;stroke-miterlimit:1;" x1="20.407" y1="112.567" x2="16.128" y2="107.959"/>
	<line style="fill:none;stroke:#000000;stroke-miterlimit:1;" x1="16.128" y1="107.959" x2="10.862" y2="102.692"/>
	<line style="fill:none;stroke:#000000;stroke-miterlimit:1;" x1="10.862" y1="102.692" x2="5.596" y2="98.743"/>
	<line style="fill:none;stroke:#000000;stroke-miterlimit:1;" x1="5.596" y1="98.743" x2="0" y2="94.793"/>
	<line style="fill:none;stroke:#000000;stroke-miterlimit:1;" x1="0" y1="94.793" x2="10.533" y2="0.659"/>
	<line style="fill:none;stroke:#000000;stroke-miterlimit:1;" x1="10.533" y1="0.659" x2="13.824" y2="1.646"/>
	<line style="fill:none;stroke:#000000;stroke-miterlimit:1;" x1="13.824" y1="1.646" x2="17.445" y2="3.292"/>
	<line style="fill:none;stroke:#000000;stroke-miterlimit:1;" x1="17.445" y1="3.292" x2="20.407" y2="5.596"/>
	<line style="fill:none;stroke:#000000;stroke-miterlimit:1;" x1="20.407" y1="5.596" x2="23.369" y2="9.216"/>
	<line style="fill:none;stroke:#000000;stroke-miterlimit:1;" x1="23.369" y1="9.216" x2="26.002" y2="13.495"/>
	<line style="fill:none;stroke:#000000;stroke-miterlimit:1;" x1="26.002" y1="13.495" x2="27.319" y2="18.103"/>
	<line style="fill:none;stroke:#000000;stroke-miterlimit:1;" x1="27.319" y1="18.103" x2="28.307" y2="22.053"/>
	<line style="fill:none;stroke:#000000;stroke-miterlimit:1;" x1="28.307" y1="22.053" x2="29.294" y2="27.319"/>
	<line style="fill:none;stroke:#000000;stroke-miterlimit:1;" x1="29.294" y1="27.319" x2="33.902" y2="148.443"/>
	<line style="fill:none;stroke:#000000;stroke-miterlimit:1;" x1="33.902" y1="148.443" x2="27.648" y2="148.772"/>
	<line style="fill:none;stroke:#000000;stroke-miterlimit:1;" x1="27.648" y1="148.772" x2="28.965" y2="121.454"/>
	<line style="fill:none;stroke:#000000;stroke-miterlimit:1;" x1="336.344" y1="98.755" x2="336.344" y2="148.114"/>
	<line style="fill:none;stroke:#000000;stroke-miterlimit:1;" x1="336.344" y1="148.114" x2="345.117" y2="148.114"/>
	<line style="fill:none;stroke:#000000;stroke-miterlimit:1;" x1="345.117" y1="148.114" x2="345.117" y2="98.755"/>
	<line style="fill:none;stroke:#000000;stroke-miterlimit:1;" x1="345.117" y1="98.755" x2="336.344" y2="98.755"/>
	<line style="fill:none;stroke:#000000;stroke-miterlimit:1;" x1="380.219" y1="98.755" x2="380.219" y2="148.114"/>
	<line style="fill:none;stroke:#000000;stroke-miterlimit:1;" x1="380.219" y1="148.114" x2="389.268" y2="148.114"/>
	<line style="fill:none;stroke:#000000;stroke-miterlimit:1;" x1="389.268" y1="148.114" x2="389.268" y2="98.755"/>
	<line style="fill:none;stroke:#000000;stroke-miterlimit:1;" x1="389.268" y1="98.755" x2="380.219" y2="98.755"/>
	<line style="fill:none;stroke:#000000;stroke-miterlimit:1;" x1="424.643" y1="98.755" x2="424.643" y2="148.114"/>
	<line style="fill:none;stroke:#000000;stroke-miterlimit:1;" x1="424.643" y1="148.114" x2="433.418" y2="148.114"/>
	<line style="fill:none;stroke:#000000;stroke-miterlimit:1;" x1="433.418" y1="148.114" x2="433.418" y2="98.755"/>
	<line style="fill:none;stroke:#000000;stroke-miterlimit:1;" x1="433.418" y1="98.755" x2="424.643" y2="98.755"/>
	<line style="fill:none;stroke:#000000;stroke-miterlimit:1;" x1="365.479" y1="0.274" x2="387.965" y2="28.52"/>
	<line style="fill:none;stroke:#000000;stroke-miterlimit:1;" x1="387.965" y1="28.52" x2="392.627" y2="35.649"/>
	<line style="fill:none;stroke:#000000;stroke-miterlimit:1;" x1="392.627" y1="35.649" x2="396.191" y2="41.956"/>
	<line style="fill:none;stroke:#000000;stroke-miterlimit:1;" x1="396.191" y1="41.956" x2="398.66" y2="48.812"/>
	<line style="fill:none;stroke:#000000;stroke-miterlimit:1;" x1="398.66" y1="48.812" x2="400.854" y2="57.312"/>
	<line style="fill:none;stroke:#000000;stroke-miterlimit:1;" x1="400.854" y1="57.312" x2="401.676" y2="65.54"/>
	<line style="fill:none;stroke:#000000;stroke-miterlimit:1;" x1="401.676" y1="65.54" x2="400.031" y2="74.04"/>
	<line style="fill:none;stroke:#000000;stroke-miterlimit:1;" x1="400.031" y1="74.04" x2="398.934" y2="77.057"/>
	<line style="fill:none;stroke:#000000;stroke-miterlimit:1;" x1="398.934" y1="77.057" x2="397.289" y2="79.799"/>
	<line style="fill:none;stroke:#000000;stroke-miterlimit:1;" x1="397.289" y1="79.799" x2="395.918" y2="81.719"/>
	<line style="fill:none;stroke:#000000;stroke-miterlimit:1;" x1="395.918" y1="81.719" x2="393.998" y2="83.638"/>
	<line style="fill:none;stroke:#000000;stroke-miterlimit:1;" x1="393.998" y1="83.638" x2="391.529" y2="85.558"/>
	<line style="fill:none;stroke:#000000;stroke-miterlimit:1;" x1="391.529" y1="85.558" x2="386.32" y2="86.38"/>
	<line style="fill:none;stroke:#000000;stroke-miterlimit:1;" x1="386.32" y1="86.38" x2="380.561" y2="85.832"/>
	<line style="fill:none;stroke:#000000;stroke-miterlimit:1;" x1="380.561" y1="85.832" x2="377.545" y2="85.009"/>
	<line style="fill:none;stroke:#000000;stroke-miterlimit:1;" x1="377.545" y1="85.009" x2="374.803" y2="83.09"/>
	<line style="fill:none;stroke:#000000;stroke-miterlimit:1;" x1="374.803" y1="83.09" x2="372.609" y2="80.621"/>
	<line style="fill:none;stroke:#000000;stroke-miterlimit:1;" x1="372.609" y1="80.621" x2="371.238" y2="78.153"/>
	<line style="fill:none;stroke:#000000;stroke-miterlimit:1;" x1="371.238" y1="78.153" x2="369.318" y2="74.04"/>
	<line style="fill:none;stroke:#000000;stroke-miterlimit:1;" x1="369.318" y1="74.04" x2="368.496" y2="70.201"/>
	<line style="fill:none;stroke:#000000;stroke-miterlimit:1;" x1="368.496" y1="70.201" x2="367.674" y2="64.442"/>
	<line style="fill:none;stroke:#000000;stroke-miterlimit:1;" x1="367.674" y1="64.442" x2="368.221" y2="58.958"/>
	<line style="fill:none;stroke:#000000;stroke-miterlimit:1;" x1="368.221" y1="58.958" x2="369.592" y2="52.103"/>
	<line style="fill:none;stroke:#000000;stroke-miterlimit:1;" x1="369.592" y1="52.103" x2="371.787" y2="45.795"/>
	<line style="fill:none;stroke:#000000;stroke-miterlimit:1;" x1="371.787" y1="45.795" x2="375.352" y2="37.843"/>
	<line style="fill:none;stroke:#000000;stroke-miterlimit:1;" x1="375.352" y1="37.843" x2="380.561" y2="29.891"/>
	<line style="fill:none;stroke:#000000;stroke-miterlimit:1;" x1="380.561" y1="29.891" x2="403.322" y2="0"/>
</g>
</svg>
