<?xml version="1.0" encoding="iso-8859-1"?>
<!-- Generator: Adobe Illustrator 16.0.1, SVG Export Plug-In . SVG Version: 6.00 Build 0)  -->
<!DOCTYPE svg PUBLIC "-//W3C//DTD SVG 1.1//EN" "http://www.w3.org/Graphics/SVG/1.1/DTD/svg11.dtd">
<svg version="1.1" id="Ebene_1" xmlns="http://www.w3.org/2000/svg" xmlns:xlink="http://www.w3.org/1999/xlink" x="0px" y="0px"
	 width="176.009px" height="148.154px" viewBox="0 0 176.009 148.154" style="enable-background:new 0 0 176.009 148.154;"
	 xml:space="preserve">
<g>
	<line style="fill:none;stroke:#000000;stroke-miterlimit:1;" x1="40.485" y1="59.287" x2="40.485" y2="148.154"/>
	<line style="fill:none;stroke:#000000;stroke-miterlimit:1;" x1="40.485" y1="148.154" x2="33.573" y2="148.154"/>
	<line style="fill:none;stroke:#000000;stroke-miterlimit:1;" x1="33.573" y1="148.154" x2="33.573" y2="59.287"/>
	<line style="fill:none;stroke:#000000;stroke-miterlimit:1;" x1="74.057" y1="59.287" x2="0" y2="59.287"/>
	<line style="fill:none;stroke:#000000;stroke-miterlimit:1;" x1="0" y1="59.287" x2="0" y2="35.917"/>
	<line style="fill:none;stroke:#000000;stroke-miterlimit:1;" x1="0" y1="35.917" x2="1.317" y2="33.284"/>
	<line style="fill:none;stroke:#000000;stroke-miterlimit:1;" x1="1.317" y1="33.284" x2="2.633" y2="31.639"/>
	<line style="fill:none;stroke:#000000;stroke-miterlimit:1;" x1="2.633" y1="31.639" x2="4.279" y2="31.639"/>
	<line style="fill:none;stroke:#000000;stroke-miterlimit:1;" x1="4.279" y1="31.639" x2="5.925" y2="31.639"/>
	<line style="fill:none;stroke:#000000;stroke-miterlimit:1;" x1="5.925" y1="31.639" x2="7.899" y2="31.968"/>
	<line style="fill:none;stroke:#000000;stroke-miterlimit:1;" x1="7.899" y1="31.968" x2="9.875" y2="33.284"/>
	<line style="fill:none;stroke:#000000;stroke-miterlimit:1;" x1="9.875" y1="33.284" x2="16.457" y2="39.209"/>
	<line style="fill:none;stroke:#000000;stroke-miterlimit:1;" x1="16.457" y1="39.209" x2="22.382" y2="44.475"/>
	<line style="fill:none;stroke:#000000;stroke-miterlimit:1;" x1="22.382" y1="44.475" x2="26.99" y2="46.779"/>
	<line style="fill:none;stroke:#000000;stroke-miterlimit:1;" x1="26.99" y1="46.779" x2="32.585" y2="48.096"/>
	<line style="fill:none;stroke:#000000;stroke-miterlimit:1;" x1="32.585" y1="48.096" x2="37.193" y2="48.425"/>
	<line style="fill:none;stroke:#000000;stroke-miterlimit:1;" x1="37.193" y1="48.425" x2="41.472" y2="48.096"/>
	<line style="fill:none;stroke:#000000;stroke-miterlimit:1;" x1="41.472" y1="48.096" x2="47.067" y2="46.779"/>
	<line style="fill:none;stroke:#000000;stroke-miterlimit:1;" x1="47.067" y1="46.779" x2="51.676" y2="44.475"/>
	<line style="fill:none;stroke:#000000;stroke-miterlimit:1;" x1="51.676" y1="44.475" x2="57.6" y2="39.209"/>
	<line style="fill:none;stroke:#000000;stroke-miterlimit:1;" x1="57.6" y1="39.209" x2="64.183" y2="33.284"/>
	<line style="fill:none;stroke:#000000;stroke-miterlimit:1;" x1="64.183" y1="33.284" x2="66.158" y2="31.968"/>
	<line style="fill:none;stroke:#000000;stroke-miterlimit:1;" x1="66.158" y1="31.968" x2="68.133" y2="31.639"/>
	<line style="fill:none;stroke:#000000;stroke-miterlimit:1;" x1="68.133" y1="31.639" x2="69.778" y2="31.639"/>
	<line style="fill:none;stroke:#000000;stroke-miterlimit:1;" x1="69.778" y1="31.639" x2="71.424" y2="31.639"/>
	<line style="fill:none;stroke:#000000;stroke-miterlimit:1;" x1="71.424" y1="31.639" x2="72.741" y2="33.284"/>
	<line style="fill:none;stroke:#000000;stroke-miterlimit:1;" x1="72.741" y1="33.284" x2="74.057" y2="35.917"/>
	<line style="fill:none;stroke:#000000;stroke-miterlimit:1;" x1="74.057" y1="35.917" x2="74.057" y2="59.287"/>
	<line style="fill:none;stroke:#000000;stroke-miterlimit:1;" x1="23.369" y1="44.475" x2="29.294" y2="5.636"/>
	<line style="fill:none;stroke:#000000;stroke-miterlimit:1;" x1="29.294" y1="5.636" x2="31.927" y2="2.345"/>
	<line style="fill:none;stroke:#000000;stroke-miterlimit:1;" x1="31.927" y1="2.345" x2="33.902" y2="1.028"/>
	<line style="fill:none;stroke:#000000;stroke-miterlimit:1;" x1="33.902" y1="1.028" x2="36.535" y2="0.041"/>
	<line style="fill:none;stroke:#000000;stroke-miterlimit:1;" x1="36.535" y1="0.041" x2="37.522" y2="0.041"/>
	<line style="fill:none;stroke:#000000;stroke-miterlimit:1;" x1="37.522" y1="0.041" x2="40.156" y2="1.028"/>
	<line style="fill:none;stroke:#000000;stroke-miterlimit:1;" x1="40.156" y1="1.028" x2="42.13" y2="2.345"/>
	<line style="fill:none;stroke:#000000;stroke-miterlimit:1;" x1="42.13" y1="2.345" x2="44.764" y2="5.636"/>
	<line style="fill:none;stroke:#000000;stroke-miterlimit:1;" x1="44.764" y1="5.636" x2="50.688" y2="44.475"/>
	<line style="fill:none;stroke:#000000;stroke-miterlimit:1;" x1="55.955" y1="37.893" x2="53.321" y2="37.563"/>
	<line style="fill:none;stroke:#000000;stroke-miterlimit:1;" x1="53.321" y1="37.563" x2="51.676" y2="36.247"/>
	<line style="fill:none;stroke:#000000;stroke-miterlimit:1;" x1="51.676" y1="36.247" x2="50.688" y2="34.601"/>
	<line style="fill:none;stroke:#000000;stroke-miterlimit:1;" x1="50.688" y1="34.601" x2="50.03" y2="32.955"/>
	<line style="fill:none;stroke:#000000;stroke-miterlimit:1;" x1="50.03" y1="32.955" x2="50.359" y2="29.993"/>
	<line style="fill:none;stroke:#000000;stroke-miterlimit:1;" x1="50.359" y1="29.993" x2="51.676" y2="28.018"/>
	<line style="fill:none;stroke:#000000;stroke-miterlimit:1;" x1="51.676" y1="28.018" x2="53.321" y2="27.031"/>
	<line style="fill:none;stroke:#000000;stroke-miterlimit:1;" x1="53.321" y1="27.031" x2="55.955" y2="26.373"/>
	<line style="fill:none;stroke:#000000;stroke-miterlimit:1;" x1="55.955" y1="26.373" x2="58.587" y2="26.702"/>
	<line style="fill:none;stroke:#000000;stroke-miterlimit:1;" x1="58.587" y1="26.702" x2="60.562" y2="28.018"/>
	<line style="fill:none;stroke:#000000;stroke-miterlimit:1;" x1="60.562" y1="28.018" x2="61.879" y2="29.993"/>
	<line style="fill:none;stroke:#000000;stroke-miterlimit:1;" x1="61.879" y1="29.993" x2="61.879" y2="31.968"/>
	<line style="fill:none;stroke:#000000;stroke-miterlimit:1;" x1="61.879" y1="31.968" x2="61.879" y2="34.272"/>
	<line style="fill:none;stroke:#000000;stroke-miterlimit:1;" x1="61.879" y1="34.272" x2="60.562" y2="35.917"/>
	<line style="fill:none;stroke:#000000;stroke-miterlimit:1;" x1="60.562" y1="35.917" x2="58.587" y2="37.563"/>
	<line style="fill:none;stroke:#000000;stroke-miterlimit:1;" x1="58.587" y1="37.563" x2="55.955" y2="37.893"/>
	<line style="fill:none;stroke:#000000;stroke-miterlimit:1;" x1="19.419" y1="37.563" x2="16.457" y2="37.563"/>
	<line style="fill:none;stroke:#000000;stroke-miterlimit:1;" x1="16.457" y1="37.563" x2="13.495" y2="35.917"/>
	<line style="fill:none;stroke:#000000;stroke-miterlimit:1;" x1="13.495" y1="35.917" x2="12.507" y2="33.943"/>
	<line style="fill:none;stroke:#000000;stroke-miterlimit:1;" x1="12.507" y1="33.943" x2="12.178" y2="32.297"/>
	<line style="fill:none;stroke:#000000;stroke-miterlimit:1;" x1="12.178" y1="32.297" x2="12.837" y2="29.334"/>
	<line style="fill:none;stroke:#000000;stroke-miterlimit:1;" x1="12.837" y1="29.334" x2="15.141" y2="27.031"/>
	<line style="fill:none;stroke:#000000;stroke-miterlimit:1;" x1="15.141" y1="27.031" x2="16.457" y2="26.373"/>
	<line style="fill:none;stroke:#000000;stroke-miterlimit:1;" x1="16.457" y1="26.373" x2="18.761" y2="26.373"/>
	<line style="fill:none;stroke:#000000;stroke-miterlimit:1;" x1="18.761" y1="26.373" x2="21.065" y2="26.702"/>
	<line style="fill:none;stroke:#000000;stroke-miterlimit:1;" x1="21.065" y1="26.702" x2="23.04" y2="28.018"/>
	<line style="fill:none;stroke:#000000;stroke-miterlimit:1;" x1="23.04" y1="28.018" x2="24.027" y2="30.322"/>
	<line style="fill:none;stroke:#000000;stroke-miterlimit:1;" x1="24.027" y1="30.322" x2="24.027" y2="32.297"/>
	<line style="fill:none;stroke:#000000;stroke-miterlimit:1;" x1="24.027" y1="32.297" x2="23.369" y2="34.93"/>
	<line style="fill:none;stroke:#000000;stroke-miterlimit:1;" x1="23.369" y1="34.93" x2="22.382" y2="36.576"/>
	<line style="fill:none;stroke:#000000;stroke-miterlimit:1;" x1="22.382" y1="36.576" x2="20.736" y2="37.234"/>
	<line style="fill:none;stroke:#000000;stroke-miterlimit:1;" x1="20.736" y1="37.234" x2="19.419" y2="37.563"/>
	<line style="fill:none;stroke:#000000;stroke-miterlimit:1;" x1="42.789" y1="59.616" x2="52.334" y2="88.58"/>
	<line style="fill:none;stroke:#000000;stroke-miterlimit:1;" x1="52.334" y1="88.58" x2="52.992" y2="91.543"/>
	<line style="fill:none;stroke:#000000;stroke-miterlimit:1;" x1="52.992" y1="91.543" x2="52.992" y2="95.492"/>
	<line style="fill:none;stroke:#000000;stroke-miterlimit:1;" x1="52.992" y1="95.492" x2="51.676" y2="98.455"/>
	<line style="fill:none;stroke:#000000;stroke-miterlimit:1;" x1="51.676" y1="98.455" x2="49.701" y2="100.43"/>
	<line style="fill:none;stroke:#000000;stroke-miterlimit:1;" x1="49.701" y1="100.43" x2="47.726" y2="101.746"/>
	<line style="fill:none;stroke:#000000;stroke-miterlimit:1;" x1="47.726" y1="101.746" x2="40.485" y2="102.734"/>
	<line style="fill:none;stroke:#000000;stroke-miterlimit:1;" x1="33.573" y1="102.734" x2="26.661" y2="101.746"/>
	<line style="fill:none;stroke:#000000;stroke-miterlimit:1;" x1="26.661" y1="101.746" x2="23.369" y2="99.441"/>
	<line style="fill:none;stroke:#000000;stroke-miterlimit:1;" x1="23.369" y1="99.441" x2="21.395" y2="95.492"/>
	<line style="fill:none;stroke:#000000;stroke-miterlimit:1;" x1="21.395" y1="95.492" x2="21.395" y2="90.885"/>
	<line style="fill:none;stroke:#000000;stroke-miterlimit:1;" x1="21.395" y1="90.885" x2="31.598" y2="59.616"/>
	<line style="fill:none;stroke:#000000;stroke-miterlimit:1;" x1="124.539" y1="73.069" x2="167.328" y2="31.927"/>
	<line style="fill:none;stroke:#000000;stroke-miterlimit:1;" x1="109.07" y1="67.145" x2="161.732" y2="16.786"/>
	<line style="fill:none;stroke:#000000;stroke-miterlimit:1;" x1="98.866" y1="56.283" x2="151.529" y2="5.924"/>
	<line style="fill:none;stroke:#000000;stroke-miterlimit:1;" x1="93.6" y1="40.813" x2="135.73" y2="0.658"/>
	<line style="fill:none;stroke:#000000;stroke-miterlimit:1;" x1="145.934" y1="2.962" x2="142.313" y2="1.975"/>
	<line style="fill:none;stroke:#000000;stroke-miterlimit:1;" x1="142.313" y1="1.975" x2="138.692" y2="0.658"/>
	<line style="fill:none;stroke:#000000;stroke-miterlimit:1;" x1="138.692" y1="0.658" x2="134.743" y2="0"/>
	<line style="fill:none;stroke:#000000;stroke-miterlimit:1;" x1="134.743" y1="0" x2="130.793" y2="0"/>
	<line style="fill:none;stroke:#000000;stroke-miterlimit:1;" x1="130.793" y1="0" x2="126.515" y2="0.329"/>
	<line style="fill:none;stroke:#000000;stroke-miterlimit:1;" x1="126.515" y1="0.329" x2="122.894" y2="0.658"/>
	<line style="fill:none;stroke:#000000;stroke-miterlimit:1;" x1="122.894" y1="0.658" x2="118.944" y2="1.975"/>
	<line style="fill:none;stroke:#000000;stroke-miterlimit:1;" x1="118.944" y1="1.975" x2="115.323" y2="3.292"/>
	<line style="fill:none;stroke:#000000;stroke-miterlimit:1;" x1="115.323" y1="3.292" x2="111.703" y2="4.937"/>
	<line style="fill:none;stroke:#000000;stroke-miterlimit:1;" x1="111.703" y1="4.937" x2="108.411" y2="7.241"/>
	<line style="fill:none;stroke:#000000;stroke-miterlimit:1;" x1="108.411" y1="7.241" x2="105.778" y2="9.545"/>
	<line style="fill:none;stroke:#000000;stroke-miterlimit:1;" x1="105.778" y1="9.545" x2="103.146" y2="12.178"/>
	<line style="fill:none;stroke:#000000;stroke-miterlimit:1;" x1="103.146" y1="12.178" x2="101.17" y2="14.482"/>
	<line style="fill:none;stroke:#000000;stroke-miterlimit:1;" x1="101.17" y1="14.482" x2="99.195" y2="17.444"/>
	<line style="fill:none;stroke:#000000;stroke-miterlimit:1;" x1="99.195" y1="17.444" x2="96.892" y2="21.723"/>
	<line style="fill:none;stroke:#000000;stroke-miterlimit:1;" x1="96.892" y1="21.723" x2="95.904" y2="25.015"/>
	<line style="fill:none;stroke:#000000;stroke-miterlimit:1;" x1="95.904" y1="25.015" x2="94.917" y2="28.635"/>
	<line style="fill:none;stroke:#000000;stroke-miterlimit:1;" x1="94.917" y1="28.635" x2="94.259" y2="32.256"/>
	<line style="fill:none;stroke:#000000;stroke-miterlimit:1;" x1="94.259" y1="32.256" x2="93.6" y2="36.535"/>
	<line style="fill:none;stroke:#000000;stroke-miterlimit:1;" x1="93.6" y1="36.535" x2="93.6" y2="40.155"/>
	<line style="fill:none;stroke:#000000;stroke-miterlimit:1;" x1="93.6" y1="40.155" x2="94.259" y2="44.434"/>
	<line style="fill:none;stroke:#000000;stroke-miterlimit:1;" x1="94.259" y1="44.434" x2="95.246" y2="48.055"/>
	<line style="fill:none;stroke:#000000;stroke-miterlimit:1;" x1="95.246" y1="48.055" x2="96.233" y2="51.346"/>
	<line style="fill:none;stroke:#000000;stroke-miterlimit:1;" x1="96.233" y1="51.346" x2="97.879" y2="54.967"/>
	<line style="fill:none;stroke:#000000;stroke-miterlimit:1;" x1="97.879" y1="54.967" x2="98.866" y2="56.941"/>
	<line style="fill:none;stroke:#000000;stroke-miterlimit:1;" x1="98.866" y1="56.941" x2="100.183" y2="58.587"/>
	<line style="fill:none;stroke:#000000;stroke-miterlimit:1;" x1="100.183" y1="58.587" x2="103.475" y2="62.208"/>
	<line style="fill:none;stroke:#000000;stroke-miterlimit:1;" x1="103.475" y1="62.208" x2="106.766" y2="65.5"/>
	<line style="fill:none;stroke:#000000;stroke-miterlimit:1;" x1="106.766" y1="65.5" x2="109.729" y2="67.803"/>
	<line style="fill:none;stroke:#000000;stroke-miterlimit:1;" x1="109.729" y1="67.803" x2="113.349" y2="69.778"/>
	<line style="fill:none;stroke:#000000;stroke-miterlimit:1;" x1="113.349" y1="69.778" x2="117.299" y2="71.753"/>
	<line style="fill:none;stroke:#000000;stroke-miterlimit:1;" x1="117.299" y1="71.753" x2="121.248" y2="72.74"/>
	<line style="fill:none;stroke:#000000;stroke-miterlimit:1;" x1="121.248" y1="72.74" x2="124.539" y2="73.728"/>
	<line style="fill:none;stroke:#000000;stroke-miterlimit:1;" x1="124.539" y1="73.728" x2="128.489" y2="73.728"/>
	<line style="fill:none;stroke:#000000;stroke-miterlimit:1;" x1="128.489" y1="73.728" x2="132.439" y2="74.057"/>
	<line style="fill:none;stroke:#000000;stroke-miterlimit:1;" x1="132.439" y1="74.057" x2="137.047" y2="73.399"/>
	<line style="fill:none;stroke:#000000;stroke-miterlimit:1;" x1="137.047" y1="73.399" x2="140.339" y2="72.74"/>
	<line style="fill:none;stroke:#000000;stroke-miterlimit:1;" x1="140.339" y1="72.74" x2="144.288" y2="71.095"/>
	<line style="fill:none;stroke:#000000;stroke-miterlimit:1;" x1="144.288" y1="71.095" x2="148.238" y2="69.12"/>
	<line style="fill:none;stroke:#000000;stroke-miterlimit:1;" x1="148.238" y1="69.12" x2="150.871" y2="67.803"/>
	<line style="fill:none;stroke:#000000;stroke-miterlimit:1;" x1="150.871" y1="67.803" x2="153.833" y2="65.17"/>
	<line style="fill:none;stroke:#000000;stroke-miterlimit:1;" x1="153.833" y1="65.17" x2="156.796" y2="62.537"/>
	<line style="fill:none;stroke:#000000;stroke-miterlimit:1;" x1="156.796" y1="62.537" x2="159.758" y2="59.575"/>
	<line style="fill:none;stroke:#000000;stroke-miterlimit:1;" x1="159.758" y1="59.575" x2="162.062" y2="55.954"/>
	<line style="fill:none;stroke:#000000;stroke-miterlimit:1;" x1="162.062" y1="55.954" x2="164.366" y2="52.663"/>
	<line style="fill:none;stroke:#000000;stroke-miterlimit:1;" x1="164.366" y1="52.663" x2="166.012" y2="49.371"/>
	<line style="fill:none;stroke:#000000;stroke-miterlimit:1;" x1="166.012" y1="49.371" x2="166.999" y2="45.421"/>
	<line style="fill:none;stroke:#000000;stroke-miterlimit:1;" x1="166.999" y1="45.421" x2="167.328" y2="41.801"/>
	<line style="fill:none;stroke:#000000;stroke-miterlimit:1;" x1="167.328" y1="41.801" x2="167.986" y2="37.522"/>
	<line style="fill:none;stroke:#000000;stroke-miterlimit:1;" x1="167.986" y1="37.522" x2="167.657" y2="33.901"/>
	<line style="fill:none;stroke:#000000;stroke-miterlimit:1;" x1="167.657" y1="33.901" x2="167.328" y2="29.623"/>
	<line style="fill:none;stroke:#000000;stroke-miterlimit:1;" x1="167.328" y1="29.623" x2="166.341" y2="26.002"/>
	<line style="fill:none;stroke:#000000;stroke-miterlimit:1;" x1="166.341" y1="26.002" x2="165.024" y2="22.71"/>
	<line style="fill:none;stroke:#000000;stroke-miterlimit:1;" x1="165.024" y1="22.71" x2="163.378" y2="18.432"/>
	<line style="fill:none;stroke:#000000;stroke-miterlimit:1;" x1="163.378" y1="18.432" x2="161.074" y2="15.14"/>
	<line style="fill:none;stroke:#000000;stroke-miterlimit:1;" x1="161.074" y1="15.14" x2="158.771" y2="12.507"/>
	<line style="fill:none;stroke:#000000;stroke-miterlimit:1;" x1="158.771" y1="12.507" x2="156.138" y2="9.216"/>
	<line style="fill:none;stroke:#000000;stroke-miterlimit:1;" x1="156.138" y1="9.216" x2="152.846" y2="6.912"/>
	<line style="fill:none;stroke:#000000;stroke-miterlimit:1;" x1="152.846" y1="6.912" x2="149.555" y2="4.608"/>
	<line style="fill:none;stroke:#000000;stroke-miterlimit:1;" x1="149.555" y1="4.608" x2="145.934" y2="2.962"/>
	<line style="fill:none;stroke:#000000;stroke-miterlimit:1;" x1="96.686" y1="88.498" x2="123.018" y2="147.744"/>
	<line style="fill:none;stroke:#000000;stroke-miterlimit:1;" x1="123.018" y1="147.744" x2="136.183" y2="147.744"/>
	<line style="fill:none;stroke:#000000;stroke-miterlimit:1;" x1="136.183" y1="147.744" x2="109.852" y2="88.498"/>
	<line style="fill:none;stroke:#000000;stroke-miterlimit:1;" x1="109.852" y1="88.498" x2="96.686" y2="88.498"/>
	<line style="fill:none;stroke:#000000;stroke-miterlimit:1;" x1="136.512" y1="88.498" x2="162.844" y2="147.744"/>
	<line style="fill:none;stroke:#000000;stroke-miterlimit:1;" x1="162.844" y1="147.744" x2="176.009" y2="147.744"/>
	<line style="fill:none;stroke:#000000;stroke-miterlimit:1;" x1="176.009" y1="147.744" x2="149.678" y2="88.498"/>
	<line style="fill:none;stroke:#000000;stroke-miterlimit:1;" x1="149.678" y1="88.498" x2="136.512" y2="88.498"/>
</g>
</svg>
