<?xml version="1.0" encoding="iso-8859-1"?>
<!-- Generator: Adobe Illustrator 16.0.1, SVG Export Plug-In . SVG Version: 6.00 Build 0)  -->
<!DOCTYPE svg PUBLIC "-//W3C//DTD SVG 1.1//EN" "http://www.w3.org/Graphics/SVG/1.1/DTD/svg11.dtd">
<svg version="1.1" id="Ebene_1" xmlns="http://www.w3.org/2000/svg" xmlns:xlink="http://www.w3.org/1999/xlink" x="0px" y="0px"
	 width="319.343px" height="148.154px" viewBox="0 0 319.343 148.154" style="enable-background:new 0 0 319.343 148.154;"
	 xml:space="preserve">
<g>
	<line style="fill:none;stroke:#000000;stroke-miterlimit:1;" x1="40.485" y1="59.287" x2="40.485" y2="148.154"/>
	<line style="fill:none;stroke:#000000;stroke-miterlimit:1;" x1="40.485" y1="148.154" x2="33.573" y2="148.154"/>
	<line style="fill:none;stroke:#000000;stroke-miterlimit:1;" x1="33.573" y1="148.154" x2="33.573" y2="59.287"/>
	<line style="fill:none;stroke:#000000;stroke-miterlimit:1;" x1="74.057" y1="59.287" x2="0" y2="59.287"/>
	<line style="fill:none;stroke:#000000;stroke-miterlimit:1;" x1="0" y1="59.287" x2="0" y2="35.917"/>
	<line style="fill:none;stroke:#000000;stroke-miterlimit:1;" x1="0" y1="35.917" x2="1.317" y2="33.284"/>
	<line style="fill:none;stroke:#000000;stroke-miterlimit:1;" x1="1.317" y1="33.284" x2="2.633" y2="31.639"/>
	<line style="fill:none;stroke:#000000;stroke-miterlimit:1;" x1="2.633" y1="31.639" x2="4.279" y2="31.639"/>
	<line style="fill:none;stroke:#000000;stroke-miterlimit:1;" x1="4.279" y1="31.639" x2="5.925" y2="31.639"/>
	<line style="fill:none;stroke:#000000;stroke-miterlimit:1;" x1="5.925" y1="31.639" x2="7.899" y2="31.968"/>
	<line style="fill:none;stroke:#000000;stroke-miterlimit:1;" x1="7.899" y1="31.968" x2="9.875" y2="33.284"/>
	<line style="fill:none;stroke:#000000;stroke-miterlimit:1;" x1="9.875" y1="33.284" x2="16.457" y2="39.209"/>
	<line style="fill:none;stroke:#000000;stroke-miterlimit:1;" x1="16.457" y1="39.209" x2="22.382" y2="44.475"/>
	<line style="fill:none;stroke:#000000;stroke-miterlimit:1;" x1="22.382" y1="44.475" x2="26.99" y2="46.779"/>
	<line style="fill:none;stroke:#000000;stroke-miterlimit:1;" x1="26.99" y1="46.779" x2="32.585" y2="48.096"/>
	<line style="fill:none;stroke:#000000;stroke-miterlimit:1;" x1="32.585" y1="48.096" x2="37.193" y2="48.425"/>
	<line style="fill:none;stroke:#000000;stroke-miterlimit:1;" x1="37.193" y1="48.425" x2="41.472" y2="48.096"/>
	<line style="fill:none;stroke:#000000;stroke-miterlimit:1;" x1="41.472" y1="48.096" x2="47.067" y2="46.779"/>
	<line style="fill:none;stroke:#000000;stroke-miterlimit:1;" x1="47.067" y1="46.779" x2="51.676" y2="44.475"/>
	<line style="fill:none;stroke:#000000;stroke-miterlimit:1;" x1="51.676" y1="44.475" x2="57.6" y2="39.209"/>
	<line style="fill:none;stroke:#000000;stroke-miterlimit:1;" x1="57.6" y1="39.209" x2="64.183" y2="33.284"/>
	<line style="fill:none;stroke:#000000;stroke-miterlimit:1;" x1="64.183" y1="33.284" x2="66.158" y2="31.968"/>
	<line style="fill:none;stroke:#000000;stroke-miterlimit:1;" x1="66.158" y1="31.968" x2="68.133" y2="31.639"/>
	<line style="fill:none;stroke:#000000;stroke-miterlimit:1;" x1="68.133" y1="31.639" x2="69.778" y2="31.639"/>
	<line style="fill:none;stroke:#000000;stroke-miterlimit:1;" x1="69.778" y1="31.639" x2="71.424" y2="31.639"/>
	<line style="fill:none;stroke:#000000;stroke-miterlimit:1;" x1="71.424" y1="31.639" x2="72.741" y2="33.284"/>
	<line style="fill:none;stroke:#000000;stroke-miterlimit:1;" x1="72.741" y1="33.284" x2="74.057" y2="35.917"/>
	<line style="fill:none;stroke:#000000;stroke-miterlimit:1;" x1="74.057" y1="35.917" x2="74.057" y2="59.287"/>
	<line style="fill:none;stroke:#000000;stroke-miterlimit:1;" x1="23.369" y1="44.475" x2="29.294" y2="5.636"/>
	<line style="fill:none;stroke:#000000;stroke-miterlimit:1;" x1="29.294" y1="5.636" x2="31.927" y2="2.345"/>
	<line style="fill:none;stroke:#000000;stroke-miterlimit:1;" x1="31.927" y1="2.345" x2="33.902" y2="1.028"/>
	<line style="fill:none;stroke:#000000;stroke-miterlimit:1;" x1="33.902" y1="1.028" x2="36.535" y2="0.041"/>
	<line style="fill:none;stroke:#000000;stroke-miterlimit:1;" x1="36.535" y1="0.041" x2="37.522" y2="0.041"/>
	<line style="fill:none;stroke:#000000;stroke-miterlimit:1;" x1="37.522" y1="0.041" x2="40.156" y2="1.028"/>
	<line style="fill:none;stroke:#000000;stroke-miterlimit:1;" x1="40.156" y1="1.028" x2="42.13" y2="2.345"/>
	<line style="fill:none;stroke:#000000;stroke-miterlimit:1;" x1="42.13" y1="2.345" x2="44.764" y2="5.636"/>
	<line style="fill:none;stroke:#000000;stroke-miterlimit:1;" x1="44.764" y1="5.636" x2="50.688" y2="44.475"/>
	<line style="fill:none;stroke:#000000;stroke-miterlimit:1;" x1="55.955" y1="37.893" x2="53.321" y2="37.563"/>
	<line style="fill:none;stroke:#000000;stroke-miterlimit:1;" x1="53.321" y1="37.563" x2="51.676" y2="36.247"/>
	<line style="fill:none;stroke:#000000;stroke-miterlimit:1;" x1="51.676" y1="36.247" x2="50.688" y2="34.601"/>
	<line style="fill:none;stroke:#000000;stroke-miterlimit:1;" x1="50.688" y1="34.601" x2="50.03" y2="32.955"/>
	<line style="fill:none;stroke:#000000;stroke-miterlimit:1;" x1="50.03" y1="32.955" x2="50.359" y2="29.993"/>
	<line style="fill:none;stroke:#000000;stroke-miterlimit:1;" x1="50.359" y1="29.993" x2="51.676" y2="28.018"/>
	<line style="fill:none;stroke:#000000;stroke-miterlimit:1;" x1="51.676" y1="28.018" x2="53.321" y2="27.031"/>
	<line style="fill:none;stroke:#000000;stroke-miterlimit:1;" x1="53.321" y1="27.031" x2="55.955" y2="26.373"/>
	<line style="fill:none;stroke:#000000;stroke-miterlimit:1;" x1="55.955" y1="26.373" x2="58.587" y2="26.702"/>
	<line style="fill:none;stroke:#000000;stroke-miterlimit:1;" x1="58.587" y1="26.702" x2="60.562" y2="28.018"/>
	<line style="fill:none;stroke:#000000;stroke-miterlimit:1;" x1="60.562" y1="28.018" x2="61.879" y2="29.993"/>
	<line style="fill:none;stroke:#000000;stroke-miterlimit:1;" x1="61.879" y1="29.993" x2="61.879" y2="31.968"/>
	<line style="fill:none;stroke:#000000;stroke-miterlimit:1;" x1="61.879" y1="31.968" x2="61.879" y2="34.272"/>
	<line style="fill:none;stroke:#000000;stroke-miterlimit:1;" x1="61.879" y1="34.272" x2="60.562" y2="35.917"/>
	<line style="fill:none;stroke:#000000;stroke-miterlimit:1;" x1="60.562" y1="35.917" x2="58.587" y2="37.563"/>
	<line style="fill:none;stroke:#000000;stroke-miterlimit:1;" x1="58.587" y1="37.563" x2="55.955" y2="37.893"/>
	<line style="fill:none;stroke:#000000;stroke-miterlimit:1;" x1="19.419" y1="37.563" x2="16.457" y2="37.563"/>
	<line style="fill:none;stroke:#000000;stroke-miterlimit:1;" x1="16.457" y1="37.563" x2="13.495" y2="35.917"/>
	<line style="fill:none;stroke:#000000;stroke-miterlimit:1;" x1="13.495" y1="35.917" x2="12.507" y2="33.943"/>
	<line style="fill:none;stroke:#000000;stroke-miterlimit:1;" x1="12.507" y1="33.943" x2="12.178" y2="32.297"/>
	<line style="fill:none;stroke:#000000;stroke-miterlimit:1;" x1="12.178" y1="32.297" x2="12.837" y2="29.334"/>
	<line style="fill:none;stroke:#000000;stroke-miterlimit:1;" x1="12.837" y1="29.334" x2="15.141" y2="27.031"/>
	<line style="fill:none;stroke:#000000;stroke-miterlimit:1;" x1="15.141" y1="27.031" x2="16.457" y2="26.373"/>
	<line style="fill:none;stroke:#000000;stroke-miterlimit:1;" x1="16.457" y1="26.373" x2="18.761" y2="26.373"/>
	<line style="fill:none;stroke:#000000;stroke-miterlimit:1;" x1="18.761" y1="26.373" x2="21.065" y2="26.702"/>
	<line style="fill:none;stroke:#000000;stroke-miterlimit:1;" x1="21.065" y1="26.702" x2="23.04" y2="28.018"/>
	<line style="fill:none;stroke:#000000;stroke-miterlimit:1;" x1="23.04" y1="28.018" x2="24.027" y2="30.322"/>
	<line style="fill:none;stroke:#000000;stroke-miterlimit:1;" x1="24.027" y1="30.322" x2="24.027" y2="32.297"/>
	<line style="fill:none;stroke:#000000;stroke-miterlimit:1;" x1="24.027" y1="32.297" x2="23.369" y2="34.93"/>
	<line style="fill:none;stroke:#000000;stroke-miterlimit:1;" x1="23.369" y1="34.93" x2="22.382" y2="36.576"/>
	<line style="fill:none;stroke:#000000;stroke-miterlimit:1;" x1="22.382" y1="36.576" x2="20.736" y2="37.234"/>
	<line style="fill:none;stroke:#000000;stroke-miterlimit:1;" x1="20.736" y1="37.234" x2="19.419" y2="37.563"/>
	<line style="fill:none;stroke:#000000;stroke-miterlimit:1;" x1="42.789" y1="59.616" x2="52.334" y2="88.58"/>
	<line style="fill:none;stroke:#000000;stroke-miterlimit:1;" x1="52.334" y1="88.58" x2="52.992" y2="91.543"/>
	<line style="fill:none;stroke:#000000;stroke-miterlimit:1;" x1="52.992" y1="91.543" x2="52.992" y2="95.492"/>
	<line style="fill:none;stroke:#000000;stroke-miterlimit:1;" x1="52.992" y1="95.492" x2="51.676" y2="98.455"/>
	<line style="fill:none;stroke:#000000;stroke-miterlimit:1;" x1="51.676" y1="98.455" x2="49.701" y2="100.43"/>
	<line style="fill:none;stroke:#000000;stroke-miterlimit:1;" x1="49.701" y1="100.43" x2="47.726" y2="101.746"/>
	<line style="fill:none;stroke:#000000;stroke-miterlimit:1;" x1="47.726" y1="101.746" x2="40.485" y2="102.734"/>
	<line style="fill:none;stroke:#000000;stroke-miterlimit:1;" x1="33.573" y1="102.734" x2="26.661" y2="101.746"/>
	<line style="fill:none;stroke:#000000;stroke-miterlimit:1;" x1="26.661" y1="101.746" x2="23.369" y2="99.441"/>
	<line style="fill:none;stroke:#000000;stroke-miterlimit:1;" x1="23.369" y1="99.441" x2="21.395" y2="95.492"/>
	<line style="fill:none;stroke:#000000;stroke-miterlimit:1;" x1="21.395" y1="95.492" x2="21.395" y2="90.885"/>
	<line style="fill:none;stroke:#000000;stroke-miterlimit:1;" x1="21.395" y1="90.885" x2="31.598" y2="59.616"/>
	<line style="fill:none;stroke:#000000;stroke-miterlimit:1;" x1="150.336" y1="0.37" x2="148.69" y2="33.614"/>
	<line style="fill:none;stroke:#000000;stroke-miterlimit:1;" x1="148.69" y1="33.614" x2="148.032" y2="61.92"/>
	<line style="fill:none;stroke:#000000;stroke-miterlimit:1;" x1="148.032" y1="61.92" x2="147.374" y2="83.643"/>
	<line style="fill:none;stroke:#000000;stroke-miterlimit:1;" x1="147.374" y1="83.643" x2="145.728" y2="99.113"/>
	<line style="fill:none;stroke:#000000;stroke-miterlimit:1;" x1="145.728" y1="99.113" x2="144.412" y2="113.924"/>
	<line style="fill:none;stroke:#000000;stroke-miterlimit:1;" x1="144.412" y1="113.924" x2="145.07" y2="129.723"/>
	<line style="fill:none;stroke:#000000;stroke-miterlimit:1;" x1="145.07" y1="129.723" x2="146.057" y2="134.66"/>
	<line style="fill:none;stroke:#000000;stroke-miterlimit:1;" x1="146.057" y1="134.66" x2="146.716" y2="138.609"/>
	<line style="fill:none;stroke:#000000;stroke-miterlimit:1;" x1="146.716" y1="138.609" x2="146.386" y2="142.561"/>
	<line style="fill:none;stroke:#000000;stroke-miterlimit:1;" x1="146.386" y1="142.561" x2="144.412" y2="145.193"/>
	<line style="fill:none;stroke:#000000;stroke-miterlimit:1;" x1="144.412" y1="145.193" x2="141.449" y2="147.168"/>
	<line style="fill:none;stroke:#000000;stroke-miterlimit:1;" x1="141.449" y1="147.168" x2="137.829" y2="147.826"/>
	<line style="fill:none;stroke:#000000;stroke-miterlimit:1;" x1="137.829" y1="147.826" x2="131.246" y2="146.18"/>
	<line style="fill:none;stroke:#000000;stroke-miterlimit:1;" x1="131.246" y1="146.18" x2="128.613" y2="144.205"/>
	<line style="fill:none;stroke:#000000;stroke-miterlimit:1;" x1="128.613" y1="144.205" x2="124.334" y2="143.219"/>
	<line style="fill:none;stroke:#000000;stroke-miterlimit:1;" x1="124.334" y1="143.219" x2="114.459" y2="148.154"/>
	<line style="fill:none;stroke:#000000;stroke-miterlimit:1;" x1="114.459" y1="148.154" x2="73.646" y2="147.826"/>
	<line style="fill:none;stroke:#000000;stroke-miterlimit:1;" x1="73.646" y1="147.826" x2="72" y2="142.561"/>
	<line style="fill:none;stroke:#000000;stroke-miterlimit:1;" x1="72" y1="142.561" x2="73.317" y2="139.926"/>
	<line style="fill:none;stroke:#000000;stroke-miterlimit:1;" x1="73.317" y1="139.926" x2="76.937" y2="139.268"/>
	<line style="fill:none;stroke:#000000;stroke-miterlimit:1;" x1="76.937" y1="139.268" x2="91.09" y2="136.307"/>
	<line style="fill:none;stroke:#000000;stroke-miterlimit:1;" x1="91.09" y1="136.307" x2="102.939" y2="130.381"/>
	<line style="fill:none;stroke:#000000;stroke-miterlimit:1;" x1="102.939" y1="130.381" x2="110.839" y2="127.42"/>
	<line style="fill:none;stroke:#000000;stroke-miterlimit:1;" x1="110.839" y1="127.42" x2="117.751" y2="125.773"/>
	<line style="fill:none;stroke:#000000;stroke-miterlimit:1;" x1="117.751" y1="125.773" x2="122.688" y2="121.494"/>
	<line style="fill:none;stroke:#000000;stroke-miterlimit:1;" x1="122.688" y1="121.494" x2="124.334" y2="117.217"/>
	<line style="fill:none;stroke:#000000;stroke-miterlimit:1;" x1="124.334" y1="117.217" x2="124.663" y2="112.607"/>
	<line style="fill:none;stroke:#000000;stroke-miterlimit:1;" x1="124.663" y1="112.607" x2="124.005" y2="105.695"/>
	<line style="fill:none;stroke:#000000;stroke-miterlimit:1;" x1="124.005" y1="105.695" x2="123.676" y2="96.48"/>
	<line style="fill:none;stroke:#000000;stroke-miterlimit:1;" x1="123.676" y1="96.48" x2="123.017" y2="71.465"/>
	<line style="fill:none;stroke:#000000;stroke-miterlimit:1;" x1="123.017" y1="71.465" x2="122.688" y2="46.45"/>
	<line style="fill:none;stroke:#000000;stroke-miterlimit:1;" x1="122.688" y1="46.45" x2="120.055" y2="0.041"/>
	<line style="fill:none;stroke:#000000;stroke-miterlimit:1;" x1="120.055" y1="0.041" x2="150.336" y2="0.041"/>
	<line style="fill:none;stroke:#000000;stroke-miterlimit:1;" x1="200.845" y1="61.375" x2="236.784" y2="26.816"/>
	<line style="fill:none;stroke:#000000;stroke-miterlimit:1;" x1="187.851" y1="56.398" x2="232.085" y2="14.099"/>
	<line style="fill:none;stroke:#000000;stroke-miterlimit:1;" x1="179.28" y1="47.275" x2="223.515" y2="4.976"/>
	<line style="fill:none;stroke:#000000;stroke-miterlimit:1;" x1="174.857" y1="34.281" x2="210.244" y2="0.553"/>
	<line style="fill:none;stroke:#000000;stroke-miterlimit:1;" x1="218.814" y1="2.488" x2="215.773" y2="1.659"/>
	<line style="fill:none;stroke:#000000;stroke-miterlimit:1;" x1="215.773" y1="1.659" x2="212.732" y2="0.553"/>
	<line style="fill:none;stroke:#000000;stroke-miterlimit:1;" x1="212.732" y1="0.553" x2="209.415" y2="0"/>
	<line style="fill:none;stroke:#000000;stroke-miterlimit:1;" x1="209.415" y1="0" x2="206.098" y2="0"/>
	<line style="fill:none;stroke:#000000;stroke-miterlimit:1;" x1="206.098" y1="0" x2="202.503" y2="0.276"/>
	<line style="fill:none;stroke:#000000;stroke-miterlimit:1;" x1="202.503" y1="0.276" x2="199.462" y2="0.553"/>
	<line style="fill:none;stroke:#000000;stroke-miterlimit:1;" x1="199.462" y1="0.553" x2="196.145" y2="1.659"/>
	<line style="fill:none;stroke:#000000;stroke-miterlimit:1;" x1="196.145" y1="1.659" x2="193.104" y2="2.765"/>
	<line style="fill:none;stroke:#000000;stroke-miterlimit:1;" x1="193.104" y1="2.765" x2="190.062" y2="4.147"/>
	<line style="fill:none;stroke:#000000;stroke-miterlimit:1;" x1="190.062" y1="4.147" x2="187.298" y2="6.082"/>
	<line style="fill:none;stroke:#000000;stroke-miterlimit:1;" x1="187.298" y1="6.082" x2="185.086" y2="8.017"/>
	<line style="fill:none;stroke:#000000;stroke-miterlimit:1;" x1="185.086" y1="8.017" x2="182.875" y2="10.229"/>
	<line style="fill:none;stroke:#000000;stroke-miterlimit:1;" x1="182.875" y1="10.229" x2="181.216" y2="12.164"/>
	<line style="fill:none;stroke:#000000;stroke-miterlimit:1;" x1="181.216" y1="12.164" x2="179.557" y2="14.652"/>
	<line style="fill:none;stroke:#000000;stroke-miterlimit:1;" x1="179.557" y1="14.652" x2="177.622" y2="18.246"/>
	<line style="fill:none;stroke:#000000;stroke-miterlimit:1;" x1="177.622" y1="18.246" x2="176.792" y2="21.011"/>
	<line style="fill:none;stroke:#000000;stroke-miterlimit:1;" x1="176.792" y1="21.011" x2="175.963" y2="24.052"/>
	<line style="fill:none;stroke:#000000;stroke-miterlimit:1;" x1="175.963" y1="24.052" x2="175.41" y2="27.093"/>
	<line style="fill:none;stroke:#000000;stroke-miterlimit:1;" x1="175.41" y1="27.093" x2="174.857" y2="30.687"/>
	<line style="fill:none;stroke:#000000;stroke-miterlimit:1;" x1="174.857" y1="30.687" x2="174.857" y2="33.728"/>
	<line style="fill:none;stroke:#000000;stroke-miterlimit:1;" x1="174.857" y1="33.728" x2="175.41" y2="37.322"/>
	<line style="fill:none;stroke:#000000;stroke-miterlimit:1;" x1="175.41" y1="37.322" x2="176.239" y2="40.363"/>
	<line style="fill:none;stroke:#000000;stroke-miterlimit:1;" x1="176.239" y1="40.363" x2="177.069" y2="43.128"/>
	<line style="fill:none;stroke:#000000;stroke-miterlimit:1;" x1="177.069" y1="43.128" x2="178.451" y2="46.169"/>
	<line style="fill:none;stroke:#000000;stroke-miterlimit:1;" x1="178.451" y1="46.169" x2="179.28" y2="47.828"/>
	<line style="fill:none;stroke:#000000;stroke-miterlimit:1;" x1="179.28" y1="47.828" x2="180.387" y2="49.21"/>
	<line style="fill:none;stroke:#000000;stroke-miterlimit:1;" x1="180.387" y1="49.21" x2="183.151" y2="52.251"/>
	<line style="fill:none;stroke:#000000;stroke-miterlimit:1;" x1="183.151" y1="52.251" x2="185.916" y2="55.016"/>
	<line style="fill:none;stroke:#000000;stroke-miterlimit:1;" x1="185.916" y1="55.016" x2="188.404" y2="56.951"/>
	<line style="fill:none;stroke:#000000;stroke-miterlimit:1;" x1="188.404" y1="56.951" x2="191.445" y2="58.61"/>
	<line style="fill:none;stroke:#000000;stroke-miterlimit:1;" x1="191.445" y1="58.61" x2="194.763" y2="60.269"/>
	<line style="fill:none;stroke:#000000;stroke-miterlimit:1;" x1="194.763" y1="60.269" x2="198.08" y2="61.098"/>
	<line style="fill:none;stroke:#000000;stroke-miterlimit:1;" x1="198.08" y1="61.098" x2="200.845" y2="61.927"/>
	<line style="fill:none;stroke:#000000;stroke-miterlimit:1;" x1="200.845" y1="61.927" x2="204.162" y2="61.927"/>
	<line style="fill:none;stroke:#000000;stroke-miterlimit:1;" x1="204.162" y1="61.927" x2="207.479" y2="62.204"/>
	<line style="fill:none;stroke:#000000;stroke-miterlimit:1;" x1="207.479" y1="62.204" x2="211.351" y2="61.651"/>
	<line style="fill:none;stroke:#000000;stroke-miterlimit:1;" x1="211.351" y1="61.651" x2="214.115" y2="61.098"/>
	<line style="fill:none;stroke:#000000;stroke-miterlimit:1;" x1="214.115" y1="61.098" x2="217.433" y2="59.715"/>
	<line style="fill:none;stroke:#000000;stroke-miterlimit:1;" x1="217.433" y1="59.715" x2="220.75" y2="58.057"/>
	<line style="fill:none;stroke:#000000;stroke-miterlimit:1;" x1="220.75" y1="58.057" x2="222.962" y2="56.951"/>
	<line style="fill:none;stroke:#000000;stroke-miterlimit:1;" x1="222.962" y1="56.951" x2="225.45" y2="54.739"/>
	<line style="fill:none;stroke:#000000;stroke-miterlimit:1;" x1="225.45" y1="54.739" x2="227.938" y2="52.527"/>
	<line style="fill:none;stroke:#000000;stroke-miterlimit:1;" x1="227.938" y1="52.527" x2="230.426" y2="50.04"/>
	<line style="fill:none;stroke:#000000;stroke-miterlimit:1;" x1="230.426" y1="50.04" x2="232.361" y2="46.999"/>
	<line style="fill:none;stroke:#000000;stroke-miterlimit:1;" x1="232.361" y1="46.999" x2="234.297" y2="44.234"/>
	<line style="fill:none;stroke:#000000;stroke-miterlimit:1;" x1="234.297" y1="44.234" x2="235.679" y2="41.469"/>
	<line style="fill:none;stroke:#000000;stroke-miterlimit:1;" x1="235.679" y1="41.469" x2="236.508" y2="38.151"/>
	<line style="fill:none;stroke:#000000;stroke-miterlimit:1;" x1="236.508" y1="38.151" x2="236.784" y2="35.11"/>
	<line style="fill:none;stroke:#000000;stroke-miterlimit:1;" x1="236.784" y1="35.11" x2="237.338" y2="31.517"/>
	<line style="fill:none;stroke:#000000;stroke-miterlimit:1;" x1="237.338" y1="31.517" x2="237.062" y2="28.476"/>
	<line style="fill:none;stroke:#000000;stroke-miterlimit:1;" x1="237.062" y1="28.476" x2="236.784" y2="24.881"/>
	<line style="fill:none;stroke:#000000;stroke-miterlimit:1;" x1="236.784" y1="24.881" x2="235.955" y2="21.84"/>
	<line style="fill:none;stroke:#000000;stroke-miterlimit:1;" x1="235.955" y1="21.84" x2="234.85" y2="19.076"/>
	<line style="fill:none;stroke:#000000;stroke-miterlimit:1;" x1="234.85" y1="19.076" x2="233.467" y2="15.482"/>
	<line style="fill:none;stroke:#000000;stroke-miterlimit:1;" x1="233.467" y1="15.482" x2="231.532" y2="12.717"/>
	<line style="fill:none;stroke:#000000;stroke-miterlimit:1;" x1="231.532" y1="12.717" x2="229.597" y2="10.505"/>
	<line style="fill:none;stroke:#000000;stroke-miterlimit:1;" x1="229.597" y1="10.505" x2="227.385" y2="7.741"/>
	<line style="fill:none;stroke:#000000;stroke-miterlimit:1;" x1="227.385" y1="7.741" x2="224.62" y2="5.806"/>
	<line style="fill:none;stroke:#000000;stroke-miterlimit:1;" x1="224.62" y1="5.806" x2="221.855" y2="3.87"/>
	<line style="fill:none;stroke:#000000;stroke-miterlimit:1;" x1="221.855" y1="3.87" x2="218.814" y2="2.488"/>
	<line style="fill:none;stroke:#000000;stroke-miterlimit:1;" x1="316.993" y1="31.585" x2="251.748" y2="31.585"/>
	<line style="fill:none;stroke:#000000;stroke-miterlimit:1;" x1="251.748" y1="31.585" x2="252.577" y2="26.056"/>
	<line style="fill:none;stroke:#000000;stroke-miterlimit:1;" x1="252.577" y1="26.056" x2="253.407" y2="22.462"/>
	<line style="fill:none;stroke:#000000;stroke-miterlimit:1;" x1="253.407" y1="22.462" x2="254.789" y2="18.868"/>
	<line style="fill:none;stroke:#000000;stroke-miterlimit:1;" x1="254.789" y1="18.868" x2="256.725" y2="16.104"/>
	<line style="fill:none;stroke:#000000;stroke-miterlimit:1;" x1="256.725" y1="16.104" x2="258.383" y2="13.616"/>
	<line style="fill:none;stroke:#000000;stroke-miterlimit:1;" x1="258.383" y1="13.616" x2="260.595" y2="10.575"/>
	<line style="fill:none;stroke:#000000;stroke-miterlimit:1;" x1="260.595" y1="10.575" x2="263.083" y2="8.363"/>
	<line style="fill:none;stroke:#000000;stroke-miterlimit:1;" x1="263.083" y1="8.363" x2="266.124" y2="6.151"/>
	<line style="fill:none;stroke:#000000;stroke-miterlimit:1;" x1="266.124" y1="6.151" x2="268.612" y2="4.492"/>
	<line style="fill:none;stroke:#000000;stroke-miterlimit:1;" x1="268.612" y1="4.492" x2="272.206" y2="2.833"/>
	<line style="fill:none;stroke:#000000;stroke-miterlimit:1;" x1="272.206" y1="2.833" x2="275.8" y2="1.728"/>
	<line style="fill:none;stroke:#000000;stroke-miterlimit:1;" x1="275.8" y1="1.728" x2="278.288" y2="1.175"/>
	<line style="fill:none;stroke:#000000;stroke-miterlimit:1;" x1="278.288" y1="1.175" x2="282.712" y2="0.622"/>
	<line style="fill:none;stroke:#000000;stroke-miterlimit:1;" x1="282.712" y1="0.622" x2="286.029" y2="0.622"/>
	<line style="fill:none;stroke:#000000;stroke-miterlimit:1;" x1="286.029" y1="0.622" x2="289.07" y2="1.175"/>
	<line style="fill:none;stroke:#000000;stroke-miterlimit:1;" x1="289.07" y1="1.175" x2="292.388" y2="1.728"/>
	<line style="fill:none;stroke:#000000;stroke-miterlimit:1;" x1="292.388" y1="1.728" x2="295.981" y2="2.557"/>
	<line style="fill:none;stroke:#000000;stroke-miterlimit:1;" x1="295.981" y1="2.557" x2="298.47" y2="3.386"/>
	<line style="fill:none;stroke:#000000;stroke-miterlimit:1;" x1="298.47" y1="3.386" x2="301.788" y2="5.598"/>
	<line style="fill:none;stroke:#000000;stroke-miterlimit:1;" x1="301.788" y1="5.598" x2="304.553" y2="7.533"/>
	<line style="fill:none;stroke:#000000;stroke-miterlimit:1;" x1="304.553" y1="7.533" x2="307.04" y2="9.469"/>
	<line style="fill:none;stroke:#000000;stroke-miterlimit:1;" x1="307.04" y1="9.469" x2="309.252" y2="12.233"/>
	<line style="fill:none;stroke:#000000;stroke-miterlimit:1;" x1="309.252" y1="12.233" x2="311.464" y2="15.274"/>
	<line style="fill:none;stroke:#000000;stroke-miterlimit:1;" x1="311.464" y1="15.274" x2="313.399" y2="18.315"/>
	<line style="fill:none;stroke:#000000;stroke-miterlimit:1;" x1="313.399" y1="18.315" x2="314.781" y2="21.08"/>
	<line style="fill:none;stroke:#000000;stroke-miterlimit:1;" x1="314.781" y1="21.08" x2="315.888" y2="25.227"/>
	<line style="fill:none;stroke:#000000;stroke-miterlimit:1;" x1="315.888" y1="25.227" x2="316.717" y2="28.268"/>
	<line style="fill:none;stroke:#000000;stroke-miterlimit:1;" x1="316.717" y1="28.268" x2="316.993" y2="31.585"/>
	<line style="fill:none;stroke:#000000;stroke-miterlimit:1;" x1="201.294" y1="137.885" x2="205.164" y2="147.561"/>
	<line style="fill:none;stroke:#000000;stroke-miterlimit:1;" x1="205.164" y1="147.561" x2="202.676" y2="148.113"/>
	<line style="fill:none;stroke:#000000;stroke-miterlimit:1;" x1="202.676" y1="148.113" x2="198.806" y2="137.885"/>
	<line style="fill:none;stroke:#000000;stroke-miterlimit:1;" x1="191.618" y1="116.873" x2="181.112" y2="85.357"/>
	<line style="fill:none;stroke:#000000;stroke-miterlimit:1;" x1="181.112" y1="85.357" x2="180.56" y2="80.934"/>
	<line style="fill:none;stroke:#000000;stroke-miterlimit:1;" x1="180.56" y1="80.934" x2="180.836" y2="78.17"/>
	<line style="fill:none;stroke:#000000;stroke-miterlimit:1;" x1="180.836" y1="78.17" x2="182.494" y2="76.234"/>
	<line style="fill:none;stroke:#000000;stroke-miterlimit:1;" x1="182.494" y1="76.234" x2="185.259" y2="74.575"/>
	<line style="fill:none;stroke:#000000;stroke-miterlimit:1;" x1="185.259" y1="74.575" x2="189.406" y2="73.469"/>
	<line style="fill:none;stroke:#000000;stroke-miterlimit:1;" x1="189.406" y1="73.469" x2="192.724" y2="74.022"/>
	<line style="fill:none;stroke:#000000;stroke-miterlimit:1;" x1="192.724" y1="74.022" x2="196.041" y2="76.234"/>
	<line style="fill:none;stroke:#000000;stroke-miterlimit:1;" x1="196.041" y1="76.234" x2="198.529" y2="80.658"/>
	<line style="fill:none;stroke:#000000;stroke-miterlimit:1;" x1="198.529" y1="80.658" x2="198.806" y2="85.357"/>
	<line style="fill:none;stroke:#000000;stroke-miterlimit:1;" x1="198.806" y1="85.357" x2="198.529" y2="87.293"/>
	<line style="fill:none;stroke:#000000;stroke-miterlimit:1;" x1="198.529" y1="87.293" x2="197.7" y2="89.781"/>
	<line style="fill:none;stroke:#000000;stroke-miterlimit:1;" x1="197.7" y1="89.781" x2="196.317" y2="91.439"/>
	<line style="fill:none;stroke:#000000;stroke-miterlimit:1;" x1="196.317" y1="91.439" x2="194.659" y2="90.887"/>
	<line style="fill:none;stroke:#000000;stroke-miterlimit:1;" x1="194.659" y1="90.887" x2="195.488" y2="87.846"/>
	<line style="fill:none;stroke:#000000;stroke-miterlimit:1;" x1="195.488" y1="87.846" x2="195.765" y2="85.635"/>
	<line style="fill:none;stroke:#000000;stroke-miterlimit:1;" x1="195.765" y1="85.635" x2="195.488" y2="83.146"/>
	<line style="fill:none;stroke:#000000;stroke-miterlimit:1;" x1="195.488" y1="83.146" x2="195.212" y2="81.764"/>
	<line style="fill:none;stroke:#000000;stroke-miterlimit:1;" x1="195.212" y1="81.764" x2="193.553" y2="78.998"/>
	<line style="fill:none;stroke:#000000;stroke-miterlimit:1;" x1="193.553" y1="78.998" x2="191.064" y2="77.064"/>
	<line style="fill:none;stroke:#000000;stroke-miterlimit:1;" x1="191.064" y1="77.064" x2="188.576" y2="77.064"/>
	<line style="fill:none;stroke:#000000;stroke-miterlimit:1;" x1="188.576" y1="77.064" x2="186.089" y2="77.617"/>
	<line style="fill:none;stroke:#000000;stroke-miterlimit:1;" x1="186.089" y1="77.617" x2="184.706" y2="79.275"/>
	<line style="fill:none;stroke:#000000;stroke-miterlimit:1;" x1="184.706" y1="79.275" x2="183.324" y2="82.039"/>
	<line style="fill:none;stroke:#000000;stroke-miterlimit:1;" x1="183.324" y1="82.039" x2="183.601" y2="84.252"/>
	<line style="fill:none;stroke:#000000;stroke-miterlimit:1;" x1="183.601" y1="84.252" x2="194.659" y2="116.873"/>
	<line style="fill:none;stroke:#000000;stroke-miterlimit:1;" x1="319.343" y1="135.121" x2="215.394" y2="135.121"/>
	<line style="fill:none;stroke:#000000;stroke-miterlimit:1;" x1="215.394" y1="135.121" x2="211.8" y2="135.396"/>
	<line style="fill:none;stroke:#000000;stroke-miterlimit:1;" x1="211.8" y1="135.396" x2="208.759" y2="136.227"/>
	<line style="fill:none;stroke:#000000;stroke-miterlimit:1;" x1="208.759" y1="136.227" x2="200.741" y2="137.885"/>
	<line style="fill:none;stroke:#000000;stroke-miterlimit:1;" x1="200.741" y1="137.885" x2="197.424" y2="137.885"/>
	<line style="fill:none;stroke:#000000;stroke-miterlimit:1;" x1="197.424" y1="137.885" x2="190.512" y2="137.885"/>
	<line style="fill:none;stroke:#000000;stroke-miterlimit:1;" x1="190.512" y1="137.885" x2="187.747" y2="136.502"/>
	<line style="fill:none;stroke:#000000;stroke-miterlimit:1;" x1="187.747" y1="136.502" x2="185.259" y2="135.121"/>
	<line style="fill:none;stroke:#000000;stroke-miterlimit:1;" x1="185.259" y1="135.121" x2="184.153" y2="134.014"/>
	<line style="fill:none;stroke:#000000;stroke-miterlimit:1;" x1="184.153" y1="134.014" x2="183.601" y2="131.25"/>
	<line style="fill:none;stroke:#000000;stroke-miterlimit:1;" x1="183.601" y1="131.25" x2="183.324" y2="126.826"/>
	<line style="fill:none;stroke:#000000;stroke-miterlimit:1;" x1="183.324" y1="126.826" x2="183.877" y2="123.51"/>
	<line style="fill:none;stroke:#000000;stroke-miterlimit:1;" x1="183.877" y1="123.51" x2="186.918" y2="121.297"/>
	<line style="fill:none;stroke:#000000;stroke-miterlimit:1;" x1="197.146" y1="121.574" x2="192.447" y2="121.85"/>
	<line style="fill:none;stroke:#000000;stroke-miterlimit:1;" x1="192.447" y1="121.85" x2="188.023" y2="121.574"/>
	<line style="fill:none;stroke:#000000;stroke-miterlimit:1;" x1="188.023" y1="121.574" x2="183.324" y2="120.191"/>
	<line style="fill:none;stroke:#000000;stroke-miterlimit:1;" x1="183.324" y1="120.191" x2="180.836" y2="118.533"/>
	<line style="fill:none;stroke:#000000;stroke-miterlimit:1;" x1="180.836" y1="118.533" x2="179.453" y2="116.873"/>
	<line style="fill:none;stroke:#000000;stroke-miterlimit:1;" x1="179.453" y1="116.873" x2="179.177" y2="115.215"/>
	<line style="fill:none;stroke:#000000;stroke-miterlimit:1;" x1="179.177" y1="115.215" x2="185.259" y2="116.873"/>
	<line style="fill:none;stroke:#000000;stroke-miterlimit:1;" x1="185.259" y1="116.873" x2="200.741" y2="117.15"/>
	<line style="fill:none;stroke:#000000;stroke-miterlimit:1;" x1="200.741" y1="117.15" x2="205.164" y2="118.533"/>
	<line style="fill:none;stroke:#000000;stroke-miterlimit:1;" x1="205.164" y1="118.533" x2="211.522" y2="124.062"/>
	<line style="fill:none;stroke:#000000;stroke-miterlimit:1;" x1="211.522" y1="124.062" x2="213.734" y2="124.338"/>
	<line style="fill:none;stroke:#000000;stroke-miterlimit:1;" x1="213.734" y1="124.338" x2="216.223" y2="123.785"/>
	<line style="fill:none;stroke:#000000;stroke-miterlimit:1;" x1="216.223" y1="123.785" x2="221.199" y2="122.68"/>
	<line style="fill:none;stroke:#000000;stroke-miterlimit:1;" x1="221.199" y1="122.68" x2="234.192" y2="120.191"/>
	<line style="fill:none;stroke:#000000;stroke-miterlimit:1;" x1="234.192" y1="120.191" x2="246.634" y2="118.533"/>
	<line style="fill:none;stroke:#000000;stroke-miterlimit:1;" x1="246.634" y1="118.533" x2="257.969" y2="118.256"/>
	<line style="fill:none;stroke:#000000;stroke-miterlimit:1;" x1="257.969" y1="118.256" x2="272.897" y2="119.361"/>
	<line style="fill:none;stroke:#000000;stroke-miterlimit:1;" x1="272.897" y1="119.361" x2="285.892" y2="121.021"/>
	<line style="fill:none;stroke:#000000;stroke-miterlimit:1;" x1="285.892" y1="121.021" x2="298.332" y2="123.785"/>
	<line style="fill:none;stroke:#000000;stroke-miterlimit:1;" x1="319.343" y1="135.121" x2="317.131" y2="82.592"/>
	<line style="fill:none;stroke:#000000;stroke-miterlimit:1;" x1="317.131" y1="82.592" x2="302.479" y2="82.592"/>
	<line style="fill:none;stroke:#000000;stroke-miterlimit:1;" x1="302.479" y1="82.592" x2="298.608" y2="123.785"/>
</g>
</svg>
