<?xml version="1.0" encoding="iso-8859-1"?>
<!-- Generator: Adobe Illustrator 16.0.1, SVG Export Plug-In . SVG Version: 6.00 Build 0)  -->
<!DOCTYPE svg PUBLIC "-//W3C//DTD SVG 1.1//EN" "http://www.w3.org/Graphics/SVG/1.1/DTD/svg11.dtd">
<svg version="1.1" id="Ebene_1" xmlns="http://www.w3.org/2000/svg" xmlns:xlink="http://www.w3.org/1999/xlink" x="0px" y="0px"
	 width="426.075px" height="149.143px" viewBox="0 0 426.075 149.143" style="enable-background:new 0 0 426.075 149.143;"
	 xml:space="preserve">
<g>
	<line style="fill:none;stroke:#000000;stroke-miterlimit:1;" x1="40.484" y1="60.274" x2="40.484" y2="149.143"/>
	<line style="fill:none;stroke:#000000;stroke-miterlimit:1;" x1="40.484" y1="149.143" x2="33.572" y2="149.143"/>
	<line style="fill:none;stroke:#000000;stroke-miterlimit:1;" x1="33.572" y1="149.143" x2="33.572" y2="60.274"/>
	<line style="fill:none;stroke:#000000;stroke-miterlimit:1;" x1="74.057" y1="60.274" x2="0" y2="60.274"/>
	<line style="fill:none;stroke:#000000;stroke-miterlimit:1;" x1="0" y1="60.274" x2="0" y2="36.905"/>
	<line style="fill:none;stroke:#000000;stroke-miterlimit:1;" x1="0" y1="36.905" x2="1.316" y2="34.272"/>
	<line style="fill:none;stroke:#000000;stroke-miterlimit:1;" x1="1.316" y1="34.272" x2="2.633" y2="32.626"/>
	<line style="fill:none;stroke:#000000;stroke-miterlimit:1;" x1="2.633" y1="32.626" x2="4.279" y2="32.626"/>
	<line style="fill:none;stroke:#000000;stroke-miterlimit:1;" x1="4.279" y1="32.626" x2="5.924" y2="32.626"/>
	<line style="fill:none;stroke:#000000;stroke-miterlimit:1;" x1="5.924" y1="32.626" x2="7.899" y2="32.956"/>
	<line style="fill:none;stroke:#000000;stroke-miterlimit:1;" x1="7.899" y1="32.956" x2="9.874" y2="34.272"/>
	<line style="fill:none;stroke:#000000;stroke-miterlimit:1;" x1="9.874" y1="34.272" x2="16.457" y2="40.197"/>
	<line style="fill:none;stroke:#000000;stroke-miterlimit:1;" x1="16.457" y1="40.197" x2="22.381" y2="45.463"/>
	<line style="fill:none;stroke:#000000;stroke-miterlimit:1;" x1="22.381" y1="45.463" x2="26.99" y2="47.767"/>
	<line style="fill:none;stroke:#000000;stroke-miterlimit:1;" x1="26.99" y1="47.767" x2="32.585" y2="49.083"/>
	<line style="fill:none;stroke:#000000;stroke-miterlimit:1;" x1="32.585" y1="49.083" x2="37.193" y2="49.413"/>
	<line style="fill:none;stroke:#000000;stroke-miterlimit:1;" x1="37.193" y1="49.413" x2="41.472" y2="49.083"/>
	<line style="fill:none;stroke:#000000;stroke-miterlimit:1;" x1="41.472" y1="49.083" x2="47.067" y2="47.767"/>
	<line style="fill:none;stroke:#000000;stroke-miterlimit:1;" x1="47.067" y1="47.767" x2="51.675" y2="45.463"/>
	<line style="fill:none;stroke:#000000;stroke-miterlimit:1;" x1="51.675" y1="45.463" x2="57.6" y2="40.197"/>
	<line style="fill:none;stroke:#000000;stroke-miterlimit:1;" x1="57.6" y1="40.197" x2="64.183" y2="34.272"/>
	<line style="fill:none;stroke:#000000;stroke-miterlimit:1;" x1="64.183" y1="34.272" x2="66.158" y2="32.956"/>
	<line style="fill:none;stroke:#000000;stroke-miterlimit:1;" x1="66.158" y1="32.956" x2="68.132" y2="32.626"/>
	<line style="fill:none;stroke:#000000;stroke-miterlimit:1;" x1="68.132" y1="32.626" x2="69.778" y2="32.626"/>
	<line style="fill:none;stroke:#000000;stroke-miterlimit:1;" x1="69.778" y1="32.626" x2="71.424" y2="32.626"/>
	<line style="fill:none;stroke:#000000;stroke-miterlimit:1;" x1="71.424" y1="32.626" x2="72.74" y2="34.272"/>
	<line style="fill:none;stroke:#000000;stroke-miterlimit:1;" x1="72.74" y1="34.272" x2="74.057" y2="36.905"/>
	<line style="fill:none;stroke:#000000;stroke-miterlimit:1;" x1="74.057" y1="36.905" x2="74.057" y2="60.274"/>
	<line style="fill:none;stroke:#000000;stroke-miterlimit:1;" x1="23.369" y1="45.463" x2="29.293" y2="6.624"/>
	<line style="fill:none;stroke:#000000;stroke-miterlimit:1;" x1="29.293" y1="6.624" x2="31.927" y2="3.333"/>
	<line style="fill:none;stroke:#000000;stroke-miterlimit:1;" x1="31.927" y1="3.333" x2="33.901" y2="2.016"/>
	<line style="fill:none;stroke:#000000;stroke-miterlimit:1;" x1="33.901" y1="2.016" x2="36.535" y2="1.029"/>
	<line style="fill:none;stroke:#000000;stroke-miterlimit:1;" x1="36.535" y1="1.029" x2="37.522" y2="1.029"/>
	<line style="fill:none;stroke:#000000;stroke-miterlimit:1;" x1="37.522" y1="1.029" x2="40.155" y2="2.016"/>
	<line style="fill:none;stroke:#000000;stroke-miterlimit:1;" x1="40.155" y1="2.016" x2="42.13" y2="3.333"/>
	<line style="fill:none;stroke:#000000;stroke-miterlimit:1;" x1="42.13" y1="3.333" x2="44.763" y2="6.624"/>
	<line style="fill:none;stroke:#000000;stroke-miterlimit:1;" x1="44.763" y1="6.624" x2="50.688" y2="45.463"/>
	<line style="fill:none;stroke:#000000;stroke-miterlimit:1;" x1="55.954" y1="38.88" x2="53.321" y2="38.551"/>
	<line style="fill:none;stroke:#000000;stroke-miterlimit:1;" x1="53.321" y1="38.551" x2="51.675" y2="37.234"/>
	<line style="fill:none;stroke:#000000;stroke-miterlimit:1;" x1="51.675" y1="37.234" x2="50.688" y2="35.588"/>
	<line style="fill:none;stroke:#000000;stroke-miterlimit:1;" x1="50.688" y1="35.588" x2="50.029" y2="33.943"/>
	<line style="fill:none;stroke:#000000;stroke-miterlimit:1;" x1="50.029" y1="33.943" x2="50.359" y2="30.98"/>
	<line style="fill:none;stroke:#000000;stroke-miterlimit:1;" x1="50.359" y1="30.98" x2="51.675" y2="29.006"/>
	<line style="fill:none;stroke:#000000;stroke-miterlimit:1;" x1="51.675" y1="29.006" x2="53.321" y2="28.018"/>
	<line style="fill:none;stroke:#000000;stroke-miterlimit:1;" x1="53.321" y1="28.018" x2="55.954" y2="27.36"/>
	<line style="fill:none;stroke:#000000;stroke-miterlimit:1;" x1="55.954" y1="27.36" x2="58.587" y2="27.689"/>
	<line style="fill:none;stroke:#000000;stroke-miterlimit:1;" x1="58.587" y1="27.689" x2="60.562" y2="29.006"/>
	<line style="fill:none;stroke:#000000;stroke-miterlimit:1;" x1="60.562" y1="29.006" x2="61.878" y2="30.98"/>
	<line style="fill:none;stroke:#000000;stroke-miterlimit:1;" x1="61.878" y1="30.98" x2="61.878" y2="32.956"/>
	<line style="fill:none;stroke:#000000;stroke-miterlimit:1;" x1="61.878" y1="32.956" x2="61.878" y2="35.259"/>
	<line style="fill:none;stroke:#000000;stroke-miterlimit:1;" x1="61.878" y1="35.259" x2="60.562" y2="36.905"/>
	<line style="fill:none;stroke:#000000;stroke-miterlimit:1;" x1="60.562" y1="36.905" x2="58.587" y2="38.551"/>
	<line style="fill:none;stroke:#000000;stroke-miterlimit:1;" x1="58.587" y1="38.551" x2="55.954" y2="38.88"/>
	<line style="fill:none;stroke:#000000;stroke-miterlimit:1;" x1="19.419" y1="38.551" x2="16.457" y2="38.551"/>
	<line style="fill:none;stroke:#000000;stroke-miterlimit:1;" x1="16.457" y1="38.551" x2="13.495" y2="36.905"/>
	<line style="fill:none;stroke:#000000;stroke-miterlimit:1;" x1="13.495" y1="36.905" x2="12.507" y2="34.93"/>
	<line style="fill:none;stroke:#000000;stroke-miterlimit:1;" x1="12.507" y1="34.93" x2="12.178" y2="33.285"/>
	<line style="fill:none;stroke:#000000;stroke-miterlimit:1;" x1="12.178" y1="33.285" x2="12.836" y2="30.322"/>
	<line style="fill:none;stroke:#000000;stroke-miterlimit:1;" x1="12.836" y1="30.322" x2="15.14" y2="28.018"/>
	<line style="fill:none;stroke:#000000;stroke-miterlimit:1;" x1="15.14" y1="28.018" x2="16.457" y2="27.36"/>
	<line style="fill:none;stroke:#000000;stroke-miterlimit:1;" x1="16.457" y1="27.36" x2="18.761" y2="27.36"/>
	<line style="fill:none;stroke:#000000;stroke-miterlimit:1;" x1="18.761" y1="27.36" x2="21.065" y2="27.689"/>
	<line style="fill:none;stroke:#000000;stroke-miterlimit:1;" x1="21.065" y1="27.689" x2="23.04" y2="29.006"/>
	<line style="fill:none;stroke:#000000;stroke-miterlimit:1;" x1="23.04" y1="29.006" x2="24.027" y2="31.31"/>
	<line style="fill:none;stroke:#000000;stroke-miterlimit:1;" x1="24.027" y1="31.31" x2="24.027" y2="33.285"/>
	<line style="fill:none;stroke:#000000;stroke-miterlimit:1;" x1="24.027" y1="33.285" x2="23.369" y2="35.918"/>
	<line style="fill:none;stroke:#000000;stroke-miterlimit:1;" x1="23.369" y1="35.918" x2="22.381" y2="37.563"/>
	<line style="fill:none;stroke:#000000;stroke-miterlimit:1;" x1="22.381" y1="37.563" x2="20.736" y2="38.222"/>
	<line style="fill:none;stroke:#000000;stroke-miterlimit:1;" x1="20.736" y1="38.222" x2="19.419" y2="38.551"/>
	<line style="fill:none;stroke:#000000;stroke-miterlimit:1;" x1="42.789" y1="60.604" x2="52.333" y2="89.568"/>
	<line style="fill:none;stroke:#000000;stroke-miterlimit:1;" x1="52.333" y1="89.568" x2="52.992" y2="92.531"/>
	<line style="fill:none;stroke:#000000;stroke-miterlimit:1;" x1="52.992" y1="92.531" x2="52.992" y2="96.48"/>
	<line style="fill:none;stroke:#000000;stroke-miterlimit:1;" x1="52.992" y1="96.48" x2="51.675" y2="99.441"/>
	<line style="fill:none;stroke:#000000;stroke-miterlimit:1;" x1="51.675" y1="99.441" x2="49.7" y2="101.418"/>
	<line style="fill:none;stroke:#000000;stroke-miterlimit:1;" x1="49.7" y1="101.418" x2="47.726" y2="102.734"/>
	<line style="fill:none;stroke:#000000;stroke-miterlimit:1;" x1="47.726" y1="102.734" x2="40.484" y2="103.721"/>
	<line style="fill:none;stroke:#000000;stroke-miterlimit:1;" x1="33.572" y1="103.721" x2="26.66" y2="102.734"/>
	<line style="fill:none;stroke:#000000;stroke-miterlimit:1;" x1="26.66" y1="102.734" x2="23.369" y2="100.43"/>
	<line style="fill:none;stroke:#000000;stroke-miterlimit:1;" x1="23.369" y1="100.43" x2="21.394" y2="96.48"/>
	<line style="fill:none;stroke:#000000;stroke-miterlimit:1;" x1="21.394" y1="96.48" x2="21.394" y2="91.871"/>
	<line style="fill:none;stroke:#000000;stroke-miterlimit:1;" x1="21.394" y1="91.871" x2="31.598" y2="60.604"/>
	<line style="fill:none;stroke:#000000;stroke-miterlimit:1;" x1="239.821" y1="0.329" x2="238.176" y2="33.573"/>
	<line style="fill:none;stroke:#000000;stroke-miterlimit:1;" x1="238.176" y1="33.573" x2="237.518" y2="61.879"/>
	<line style="fill:none;stroke:#000000;stroke-miterlimit:1;" x1="237.518" y1="61.879" x2="236.859" y2="83.602"/>
	<line style="fill:none;stroke:#000000;stroke-miterlimit:1;" x1="236.859" y1="83.602" x2="235.214" y2="99.072"/>
	<line style="fill:none;stroke:#000000;stroke-miterlimit:1;" x1="235.214" y1="99.072" x2="233.896" y2="113.883"/>
	<line style="fill:none;stroke:#000000;stroke-miterlimit:1;" x1="233.896" y1="113.883" x2="234.556" y2="129.682"/>
	<line style="fill:none;stroke:#000000;stroke-miterlimit:1;" x1="234.556" y1="129.682" x2="235.543" y2="134.619"/>
	<line style="fill:none;stroke:#000000;stroke-miterlimit:1;" x1="235.543" y1="134.619" x2="236.201" y2="138.568"/>
	<line style="fill:none;stroke:#000000;stroke-miterlimit:1;" x1="236.201" y1="138.568" x2="235.872" y2="142.52"/>
	<line style="fill:none;stroke:#000000;stroke-miterlimit:1;" x1="235.872" y1="142.52" x2="233.896" y2="145.152"/>
	<line style="fill:none;stroke:#000000;stroke-miterlimit:1;" x1="233.896" y1="145.152" x2="230.935" y2="147.127"/>
	<line style="fill:none;stroke:#000000;stroke-miterlimit:1;" x1="230.935" y1="147.127" x2="227.314" y2="147.785"/>
	<line style="fill:none;stroke:#000000;stroke-miterlimit:1;" x1="227.314" y1="147.785" x2="220.731" y2="146.139"/>
	<line style="fill:none;stroke:#000000;stroke-miterlimit:1;" x1="220.731" y1="146.139" x2="218.098" y2="144.164"/>
	<line style="fill:none;stroke:#000000;stroke-miterlimit:1;" x1="218.098" y1="144.164" x2="213.819" y2="143.178"/>
	<line style="fill:none;stroke:#000000;stroke-miterlimit:1;" x1="213.819" y1="143.178" x2="203.945" y2="148.115"/>
	<line style="fill:none;stroke:#000000;stroke-miterlimit:1;" x1="203.945" y1="148.115" x2="163.131" y2="147.785"/>
	<line style="fill:none;stroke:#000000;stroke-miterlimit:1;" x1="163.131" y1="147.785" x2="161.485" y2="142.52"/>
	<line style="fill:none;stroke:#000000;stroke-miterlimit:1;" x1="161.485" y1="142.52" x2="162.802" y2="139.885"/>
	<line style="fill:none;stroke:#000000;stroke-miterlimit:1;" x1="162.802" y1="139.885" x2="166.423" y2="139.227"/>
	<line style="fill:none;stroke:#000000;stroke-miterlimit:1;" x1="166.423" y1="139.227" x2="180.576" y2="136.266"/>
	<line style="fill:none;stroke:#000000;stroke-miterlimit:1;" x1="180.576" y1="136.266" x2="192.425" y2="130.34"/>
	<line style="fill:none;stroke:#000000;stroke-miterlimit:1;" x1="192.425" y1="130.34" x2="200.324" y2="127.379"/>
	<line style="fill:none;stroke:#000000;stroke-miterlimit:1;" x1="200.324" y1="127.379" x2="207.236" y2="125.732"/>
	<line style="fill:none;stroke:#000000;stroke-miterlimit:1;" x1="207.236" y1="125.732" x2="212.173" y2="121.453"/>
	<line style="fill:none;stroke:#000000;stroke-miterlimit:1;" x1="212.173" y1="121.453" x2="213.819" y2="117.176"/>
	<line style="fill:none;stroke:#000000;stroke-miterlimit:1;" x1="213.819" y1="117.176" x2="214.148" y2="112.566"/>
	<line style="fill:none;stroke:#000000;stroke-miterlimit:1;" x1="214.148" y1="112.566" x2="213.49" y2="105.654"/>
	<line style="fill:none;stroke:#000000;stroke-miterlimit:1;" x1="213.49" y1="105.654" x2="213.161" y2="96.439"/>
	<line style="fill:none;stroke:#000000;stroke-miterlimit:1;" x1="213.161" y1="96.439" x2="212.503" y2="71.424"/>
	<line style="fill:none;stroke:#000000;stroke-miterlimit:1;" x1="212.503" y1="71.424" x2="212.173" y2="46.409"/>
	<line style="fill:none;stroke:#000000;stroke-miterlimit:1;" x1="212.173" y1="46.409" x2="209.541" y2="0"/>
	<line style="fill:none;stroke:#000000;stroke-miterlimit:1;" x1="209.541" y1="0" x2="239.821" y2="0"/>
	<line style="fill:none;stroke:#000000;stroke-miterlimit:1;" x1="118.368" y1="118.285" x2="161.156" y2="77.143"/>
	<line style="fill:none;stroke:#000000;stroke-miterlimit:1;" x1="102.898" y1="112.361" x2="155.561" y2="62.002"/>
	<line style="fill:none;stroke:#000000;stroke-miterlimit:1;" x1="92.695" y1="101.5" x2="145.357" y2="51.141"/>
	<line style="fill:none;stroke:#000000;stroke-miterlimit:1;" x1="87.428" y1="86.029" x2="129.559" y2="45.875"/>
	<line style="fill:none;stroke:#000000;stroke-miterlimit:1;" x1="139.762" y1="48.178" x2="136.142" y2="47.191"/>
	<line style="fill:none;stroke:#000000;stroke-miterlimit:1;" x1="136.142" y1="47.191" x2="132.521" y2="45.875"/>
	<line style="fill:none;stroke:#000000;stroke-miterlimit:1;" x1="132.521" y1="45.875" x2="128.571" y2="45.216"/>
	<line style="fill:none;stroke:#000000;stroke-miterlimit:1;" x1="128.571" y1="45.216" x2="124.622" y2="45.216"/>
	<line style="fill:none;stroke:#000000;stroke-miterlimit:1;" x1="124.622" y1="45.216" x2="120.343" y2="45.545"/>
	<line style="fill:none;stroke:#000000;stroke-miterlimit:1;" x1="120.343" y1="45.545" x2="116.722" y2="45.875"/>
	<line style="fill:none;stroke:#000000;stroke-miterlimit:1;" x1="116.722" y1="45.875" x2="112.772" y2="47.191"/>
	<line style="fill:none;stroke:#000000;stroke-miterlimit:1;" x1="112.772" y1="47.191" x2="109.152" y2="48.507"/>
	<line style="fill:none;stroke:#000000;stroke-miterlimit:1;" x1="109.152" y1="48.507" x2="105.531" y2="50.153"/>
	<line style="fill:none;stroke:#000000;stroke-miterlimit:1;" x1="105.531" y1="50.153" x2="102.24" y2="52.457"/>
	<line style="fill:none;stroke:#000000;stroke-miterlimit:1;" x1="102.24" y1="52.457" x2="99.606" y2="54.761"/>
	<line style="fill:none;stroke:#000000;stroke-miterlimit:1;" x1="99.606" y1="54.761" x2="96.974" y2="57.395"/>
	<line style="fill:none;stroke:#000000;stroke-miterlimit:1;" x1="96.974" y1="57.395" x2="94.999" y2="59.698"/>
	<line style="fill:none;stroke:#000000;stroke-miterlimit:1;" x1="94.999" y1="59.698" x2="93.024" y2="62.661"/>
	<line style="fill:none;stroke:#000000;stroke-miterlimit:1;" x1="93.024" y1="62.661" x2="90.72" y2="66.939"/>
	<line style="fill:none;stroke:#000000;stroke-miterlimit:1;" x1="90.72" y1="66.939" x2="89.732" y2="70.231"/>
	<line style="fill:none;stroke:#000000;stroke-miterlimit:1;" x1="89.732" y1="70.231" x2="88.745" y2="73.852"/>
	<line style="fill:none;stroke:#000000;stroke-miterlimit:1;" x1="88.745" y1="73.852" x2="88.086" y2="77.473"/>
	<line style="fill:none;stroke:#000000;stroke-miterlimit:1;" x1="88.086" y1="77.473" x2="87.428" y2="81.75"/>
	<line style="fill:none;stroke:#000000;stroke-miterlimit:1;" x1="87.428" y1="81.75" x2="87.428" y2="85.371"/>
	<line style="fill:none;stroke:#000000;stroke-miterlimit:1;" x1="87.428" y1="85.371" x2="88.086" y2="89.65"/>
	<line style="fill:none;stroke:#000000;stroke-miterlimit:1;" x1="88.086" y1="89.65" x2="89.074" y2="93.271"/>
	<line style="fill:none;stroke:#000000;stroke-miterlimit:1;" x1="89.074" y1="93.271" x2="90.062" y2="96.562"/>
	<line style="fill:none;stroke:#000000;stroke-miterlimit:1;" x1="90.062" y1="96.562" x2="91.707" y2="100.184"/>
	<line style="fill:none;stroke:#000000;stroke-miterlimit:1;" x1="91.707" y1="100.184" x2="92.695" y2="102.158"/>
	<line style="fill:none;stroke:#000000;stroke-miterlimit:1;" x1="92.695" y1="102.158" x2="94.011" y2="103.803"/>
	<line style="fill:none;stroke:#000000;stroke-miterlimit:1;" x1="94.011" y1="103.803" x2="97.303" y2="107.424"/>
	<line style="fill:none;stroke:#000000;stroke-miterlimit:1;" x1="97.303" y1="107.424" x2="100.594" y2="110.715"/>
	<line style="fill:none;stroke:#000000;stroke-miterlimit:1;" x1="100.594" y1="110.715" x2="103.556" y2="113.02"/>
	<line style="fill:none;stroke:#000000;stroke-miterlimit:1;" x1="103.556" y1="113.02" x2="107.177" y2="114.994"/>
	<line style="fill:none;stroke:#000000;stroke-miterlimit:1;" x1="107.177" y1="114.994" x2="111.126" y2="116.969"/>
	<line style="fill:none;stroke:#000000;stroke-miterlimit:1;" x1="111.126" y1="116.969" x2="115.076" y2="117.957"/>
	<line style="fill:none;stroke:#000000;stroke-miterlimit:1;" x1="115.076" y1="117.957" x2="118.368" y2="118.943"/>
	<line style="fill:none;stroke:#000000;stroke-miterlimit:1;" x1="118.368" y1="118.943" x2="122.317" y2="118.943"/>
	<line style="fill:none;stroke:#000000;stroke-miterlimit:1;" x1="122.317" y1="118.943" x2="126.267" y2="119.273"/>
	<line style="fill:none;stroke:#000000;stroke-miterlimit:1;" x1="126.267" y1="119.273" x2="130.875" y2="118.615"/>
	<line style="fill:none;stroke:#000000;stroke-miterlimit:1;" x1="130.875" y1="118.615" x2="134.167" y2="117.957"/>
	<line style="fill:none;stroke:#000000;stroke-miterlimit:1;" x1="134.167" y1="117.957" x2="138.116" y2="116.311"/>
	<line style="fill:none;stroke:#000000;stroke-miterlimit:1;" x1="138.116" y1="116.311" x2="142.066" y2="114.336"/>
	<line style="fill:none;stroke:#000000;stroke-miterlimit:1;" x1="142.066" y1="114.336" x2="144.699" y2="113.02"/>
	<line style="fill:none;stroke:#000000;stroke-miterlimit:1;" x1="144.699" y1="113.02" x2="147.662" y2="110.387"/>
	<line style="fill:none;stroke:#000000;stroke-miterlimit:1;" x1="147.662" y1="110.387" x2="150.624" y2="107.754"/>
	<line style="fill:none;stroke:#000000;stroke-miterlimit:1;" x1="150.624" y1="107.754" x2="153.586" y2="104.791"/>
	<line style="fill:none;stroke:#000000;stroke-miterlimit:1;" x1="153.586" y1="104.791" x2="155.89" y2="101.17"/>
	<line style="fill:none;stroke:#000000;stroke-miterlimit:1;" x1="155.89" y1="101.17" x2="158.194" y2="97.879"/>
	<line style="fill:none;stroke:#000000;stroke-miterlimit:1;" x1="158.194" y1="97.879" x2="159.84" y2="94.588"/>
	<line style="fill:none;stroke:#000000;stroke-miterlimit:1;" x1="159.84" y1="94.588" x2="160.827" y2="90.639"/>
	<line style="fill:none;stroke:#000000;stroke-miterlimit:1;" x1="160.827" y1="90.639" x2="161.156" y2="87.018"/>
	<line style="fill:none;stroke:#000000;stroke-miterlimit:1;" x1="161.156" y1="87.018" x2="161.814" y2="82.738"/>
	<line style="fill:none;stroke:#000000;stroke-miterlimit:1;" x1="161.814" y1="82.738" x2="161.485" y2="79.117"/>
	<line style="fill:none;stroke:#000000;stroke-miterlimit:1;" x1="161.485" y1="79.117" x2="161.156" y2="74.839"/>
	<line style="fill:none;stroke:#000000;stroke-miterlimit:1;" x1="161.156" y1="74.839" x2="160.169" y2="71.218"/>
	<line style="fill:none;stroke:#000000;stroke-miterlimit:1;" x1="160.169" y1="71.218" x2="158.853" y2="67.927"/>
	<line style="fill:none;stroke:#000000;stroke-miterlimit:1;" x1="158.853" y1="67.927" x2="157.207" y2="63.648"/>
	<line style="fill:none;stroke:#000000;stroke-miterlimit:1;" x1="157.207" y1="63.648" x2="154.903" y2="60.356"/>
	<line style="fill:none;stroke:#000000;stroke-miterlimit:1;" x1="154.903" y1="60.356" x2="152.599" y2="57.724"/>
	<line style="fill:none;stroke:#000000;stroke-miterlimit:1;" x1="152.599" y1="57.724" x2="149.965" y2="54.432"/>
	<line style="fill:none;stroke:#000000;stroke-miterlimit:1;" x1="149.965" y1="54.432" x2="146.674" y2="52.128"/>
	<line style="fill:none;stroke:#000000;stroke-miterlimit:1;" x1="146.674" y1="52.128" x2="143.383" y2="49.824"/>
	<line style="fill:none;stroke:#000000;stroke-miterlimit:1;" x1="143.383" y1="49.824" x2="139.762" y2="48.178"/>
	<line style="fill:none;stroke:#000000;stroke-miterlimit:1;" x1="285.531" y1="105.49" x2="290.14" y2="117.01"/>
	<line style="fill:none;stroke:#000000;stroke-miterlimit:1;" x1="290.14" y1="117.01" x2="287.177" y2="117.668"/>
	<line style="fill:none;stroke:#000000;stroke-miterlimit:1;" x1="287.177" y1="117.668" x2="282.569" y2="105.49"/>
	<line style="fill:none;stroke:#000000;stroke-miterlimit:1;" x1="274.012" y1="80.475" x2="261.504" y2="42.953"/>
	<line style="fill:none;stroke:#000000;stroke-miterlimit:1;" x1="261.504" y1="42.953" x2="260.846" y2="37.687"/>
	<line style="fill:none;stroke:#000000;stroke-miterlimit:1;" x1="260.846" y1="37.687" x2="261.175" y2="34.396"/>
	<line style="fill:none;stroke:#000000;stroke-miterlimit:1;" x1="261.175" y1="34.396" x2="263.149" y2="32.091"/>
	<line style="fill:none;stroke:#000000;stroke-miterlimit:1;" x1="263.149" y1="32.091" x2="266.441" y2="30.117"/>
	<line style="fill:none;stroke:#000000;stroke-miterlimit:1;" x1="266.441" y1="30.117" x2="271.378" y2="28.8"/>
	<line style="fill:none;stroke:#000000;stroke-miterlimit:1;" x1="271.378" y1="28.8" x2="275.328" y2="29.458"/>
	<line style="fill:none;stroke:#000000;stroke-miterlimit:1;" x1="275.328" y1="29.458" x2="279.277" y2="32.091"/>
	<line style="fill:none;stroke:#000000;stroke-miterlimit:1;" x1="279.277" y1="32.091" x2="282.24" y2="37.358"/>
	<line style="fill:none;stroke:#000000;stroke-miterlimit:1;" x1="282.24" y1="37.358" x2="282.569" y2="42.953"/>
	<line style="fill:none;stroke:#000000;stroke-miterlimit:1;" x1="282.569" y1="42.953" x2="282.24" y2="45.257"/>
	<line style="fill:none;stroke:#000000;stroke-miterlimit:1;" x1="282.24" y1="45.257" x2="281.252" y2="48.219"/>
	<line style="fill:none;stroke:#000000;stroke-miterlimit:1;" x1="281.252" y1="48.219" x2="279.606" y2="50.194"/>
	<line style="fill:none;stroke:#000000;stroke-miterlimit:1;" x1="279.606" y1="50.194" x2="277.632" y2="49.536"/>
	<line style="fill:none;stroke:#000000;stroke-miterlimit:1;" x1="277.632" y1="49.536" x2="278.619" y2="45.916"/>
	<line style="fill:none;stroke:#000000;stroke-miterlimit:1;" x1="278.619" y1="45.916" x2="278.948" y2="43.282"/>
	<line style="fill:none;stroke:#000000;stroke-miterlimit:1;" x1="278.948" y1="43.282" x2="278.619" y2="40.32"/>
	<line style="fill:none;stroke:#000000;stroke-miterlimit:1;" x1="278.619" y1="40.32" x2="278.29" y2="38.674"/>
	<line style="fill:none;stroke:#000000;stroke-miterlimit:1;" x1="278.29" y1="38.674" x2="276.315" y2="35.383"/>
	<line style="fill:none;stroke:#000000;stroke-miterlimit:1;" x1="276.315" y1="35.383" x2="273.353" y2="33.079"/>
	<line style="fill:none;stroke:#000000;stroke-miterlimit:1;" x1="273.353" y1="33.079" x2="270.391" y2="33.079"/>
	<line style="fill:none;stroke:#000000;stroke-miterlimit:1;" x1="270.391" y1="33.079" x2="267.429" y2="33.737"/>
	<line style="fill:none;stroke:#000000;stroke-miterlimit:1;" x1="267.429" y1="33.737" x2="265.782" y2="35.712"/>
	<line style="fill:none;stroke:#000000;stroke-miterlimit:1;" x1="265.782" y1="35.712" x2="264.137" y2="39.003"/>
	<line style="fill:none;stroke:#000000;stroke-miterlimit:1;" x1="264.137" y1="39.003" x2="264.466" y2="41.637"/>
	<line style="fill:none;stroke:#000000;stroke-miterlimit:1;" x1="264.466" y1="41.637" x2="277.632" y2="80.475"/>
	<line style="fill:none;stroke:#000000;stroke-miterlimit:1;" x1="426.075" y1="102.199" x2="302.317" y2="102.199"/>
	<line style="fill:none;stroke:#000000;stroke-miterlimit:1;" x1="302.317" y1="102.199" x2="298.039" y2="102.527"/>
	<line style="fill:none;stroke:#000000;stroke-miterlimit:1;" x1="298.039" y1="102.527" x2="294.418" y2="103.516"/>
	<line style="fill:none;stroke:#000000;stroke-miterlimit:1;" x1="294.418" y1="103.516" x2="284.873" y2="105.49"/>
	<line style="fill:none;stroke:#000000;stroke-miterlimit:1;" x1="284.873" y1="105.49" x2="280.923" y2="105.49"/>
	<line style="fill:none;stroke:#000000;stroke-miterlimit:1;" x1="280.923" y1="105.49" x2="272.694" y2="105.49"/>
	<line style="fill:none;stroke:#000000;stroke-miterlimit:1;" x1="272.694" y1="105.49" x2="269.403" y2="103.844"/>
	<line style="fill:none;stroke:#000000;stroke-miterlimit:1;" x1="269.403" y1="103.844" x2="266.441" y2="102.199"/>
	<line style="fill:none;stroke:#000000;stroke-miterlimit:1;" x1="266.441" y1="102.199" x2="265.124" y2="100.883"/>
	<line style="fill:none;stroke:#000000;stroke-miterlimit:1;" x1="265.124" y1="100.883" x2="264.466" y2="97.592"/>
	<line style="fill:none;stroke:#000000;stroke-miterlimit:1;" x1="264.466" y1="97.592" x2="264.137" y2="92.324"/>
	<line style="fill:none;stroke:#000000;stroke-miterlimit:1;" x1="264.137" y1="92.324" x2="264.795" y2="88.375"/>
	<line style="fill:none;stroke:#000000;stroke-miterlimit:1;" x1="264.795" y1="88.375" x2="268.416" y2="85.742"/>
	<line style="fill:none;stroke:#000000;stroke-miterlimit:1;" x1="280.594" y1="86.07" x2="274.999" y2="86.4"/>
	<line style="fill:none;stroke:#000000;stroke-miterlimit:1;" x1="274.999" y1="86.4" x2="269.732" y2="86.07"/>
	<line style="fill:none;stroke:#000000;stroke-miterlimit:1;" x1="269.732" y1="86.07" x2="264.137" y2="84.426"/>
	<line style="fill:none;stroke:#000000;stroke-miterlimit:1;" x1="264.137" y1="84.426" x2="261.175" y2="82.451"/>
	<line style="fill:none;stroke:#000000;stroke-miterlimit:1;" x1="261.175" y1="82.451" x2="259.529" y2="80.475"/>
	<line style="fill:none;stroke:#000000;stroke-miterlimit:1;" x1="259.529" y1="80.475" x2="259.2" y2="78.5"/>
	<line style="fill:none;stroke:#000000;stroke-miterlimit:1;" x1="259.2" y1="78.5" x2="266.441" y2="80.475"/>
	<line style="fill:none;stroke:#000000;stroke-miterlimit:1;" x1="266.441" y1="80.475" x2="284.873" y2="80.805"/>
	<line style="fill:none;stroke:#000000;stroke-miterlimit:1;" x1="284.873" y1="80.805" x2="290.14" y2="82.451"/>
	<line style="fill:none;stroke:#000000;stroke-miterlimit:1;" x1="290.14" y1="82.451" x2="297.71" y2="89.033"/>
	<line style="fill:none;stroke:#000000;stroke-miterlimit:1;" x1="297.71" y1="89.033" x2="300.343" y2="89.361"/>
	<line style="fill:none;stroke:#000000;stroke-miterlimit:1;" x1="300.343" y1="89.361" x2="303.305" y2="88.703"/>
	<line style="fill:none;stroke:#000000;stroke-miterlimit:1;" x1="303.305" y1="88.703" x2="309.229" y2="87.387"/>
	<line style="fill:none;stroke:#000000;stroke-miterlimit:1;" x1="309.229" y1="87.387" x2="324.699" y2="84.426"/>
	<line style="fill:none;stroke:#000000;stroke-miterlimit:1;" x1="324.699" y1="84.426" x2="339.511" y2="82.451"/>
	<line style="fill:none;stroke:#000000;stroke-miterlimit:1;" x1="339.511" y1="82.451" x2="353.006" y2="82.121"/>
	<line style="fill:none;stroke:#000000;stroke-miterlimit:1;" x1="353.006" y1="82.121" x2="370.779" y2="83.438"/>
	<line style="fill:none;stroke:#000000;stroke-miterlimit:1;" x1="370.779" y1="83.438" x2="386.249" y2="85.412"/>
	<line style="fill:none;stroke:#000000;stroke-miterlimit:1;" x1="386.249" y1="85.412" x2="401.061" y2="88.703"/>
	<line style="fill:none;stroke:#000000;stroke-miterlimit:1;" x1="426.075" y1="102.199" x2="423.442" y2="39.662"/>
	<line style="fill:none;stroke:#000000;stroke-miterlimit:1;" x1="423.442" y1="39.662" x2="405.998" y2="39.662"/>
	<line style="fill:none;stroke:#000000;stroke-miterlimit:1;" x1="405.998" y1="39.662" x2="401.39" y2="88.703"/>
</g>
</svg>
