<?xml version="1.0" encoding="iso-8859-1"?>
<!-- Generator: Adobe Illustrator 16.0.1, SVG Export Plug-In . SVG Version: 6.00 Build 0)  -->
<!DOCTYPE svg PUBLIC "-//W3C//DTD SVG 1.1//EN" "http://www.w3.org/Graphics/SVG/1.1/DTD/svg11.dtd">
<svg version="1.1" id="Ebene_1" xmlns="http://www.w3.org/2000/svg" xmlns:xlink="http://www.w3.org/1999/xlink" x="0px" y="0px"
	 width="361.646px" height="150.172px" viewBox="0 0 361.646 150.172" style="enable-background:new 0 0 361.646 150.172;"
	 xml:space="preserve">
<g>
	<line style="fill:none;stroke:#000000;stroke-miterlimit:1;" x1="234.68" y1="0.329" x2="233.033" y2="33.573"/>
	<line style="fill:none;stroke:#000000;stroke-miterlimit:1;" x1="233.033" y1="33.573" x2="232.375" y2="61.879"/>
	<line style="fill:none;stroke:#000000;stroke-miterlimit:1;" x1="232.375" y1="61.879" x2="231.717" y2="83.603"/>
	<line style="fill:none;stroke:#000000;stroke-miterlimit:1;" x1="231.717" y1="83.603" x2="230.07" y2="99.072"/>
	<line style="fill:none;stroke:#000000;stroke-miterlimit:1;" x1="230.07" y1="99.072" x2="228.754" y2="113.884"/>
	<line style="fill:none;stroke:#000000;stroke-miterlimit:1;" x1="228.754" y1="113.884" x2="229.412" y2="129.683"/>
	<line style="fill:none;stroke:#000000;stroke-miterlimit:1;" x1="229.412" y1="129.683" x2="230.4" y2="134.62"/>
	<line style="fill:none;stroke:#000000;stroke-miterlimit:1;" x1="230.4" y1="134.62" x2="231.059" y2="138.569"/>
	<line style="fill:none;stroke:#000000;stroke-miterlimit:1;" x1="231.059" y1="138.569" x2="230.729" y2="142.519"/>
	<line style="fill:none;stroke:#000000;stroke-miterlimit:1;" x1="230.729" y1="142.519" x2="228.754" y2="145.152"/>
	<line style="fill:none;stroke:#000000;stroke-miterlimit:1;" x1="228.754" y1="145.152" x2="225.793" y2="147.127"/>
	<line style="fill:none;stroke:#000000;stroke-miterlimit:1;" x1="225.793" y1="147.127" x2="222.172" y2="147.785"/>
	<line style="fill:none;stroke:#000000;stroke-miterlimit:1;" x1="222.172" y1="147.785" x2="215.588" y2="146.14"/>
	<line style="fill:none;stroke:#000000;stroke-miterlimit:1;" x1="215.588" y1="146.14" x2="212.955" y2="144.165"/>
	<line style="fill:none;stroke:#000000;stroke-miterlimit:1;" x1="212.955" y1="144.165" x2="208.676" y2="143.178"/>
	<line style="fill:none;stroke:#000000;stroke-miterlimit:1;" x1="208.676" y1="143.178" x2="198.803" y2="148.114"/>
	<line style="fill:none;stroke:#000000;stroke-miterlimit:1;" x1="198.803" y1="148.114" x2="157.989" y2="147.785"/>
	<line style="fill:none;stroke:#000000;stroke-miterlimit:1;" x1="157.989" y1="147.785" x2="156.343" y2="142.519"/>
	<line style="fill:none;stroke:#000000;stroke-miterlimit:1;" x1="156.343" y1="142.519" x2="157.66" y2="139.886"/>
	<line style="fill:none;stroke:#000000;stroke-miterlimit:1;" x1="157.66" y1="139.886" x2="161.28" y2="139.228"/>
	<line style="fill:none;stroke:#000000;stroke-miterlimit:1;" x1="161.28" y1="139.228" x2="175.433" y2="136.266"/>
	<line style="fill:none;stroke:#000000;stroke-miterlimit:1;" x1="175.433" y1="136.266" x2="187.283" y2="130.341"/>
	<line style="fill:none;stroke:#000000;stroke-miterlimit:1;" x1="187.283" y1="130.341" x2="195.182" y2="127.379"/>
	<line style="fill:none;stroke:#000000;stroke-miterlimit:1;" x1="195.182" y1="127.379" x2="202.094" y2="125.732"/>
	<line style="fill:none;stroke:#000000;stroke-miterlimit:1;" x1="202.094" y1="125.732" x2="207.031" y2="121.454"/>
	<line style="fill:none;stroke:#000000;stroke-miterlimit:1;" x1="207.031" y1="121.454" x2="208.676" y2="117.175"/>
	<line style="fill:none;stroke:#000000;stroke-miterlimit:1;" x1="208.676" y1="117.175" x2="209.006" y2="112.567"/>
	<line style="fill:none;stroke:#000000;stroke-miterlimit:1;" x1="209.006" y1="112.567" x2="208.348" y2="105.655"/>
	<line style="fill:none;stroke:#000000;stroke-miterlimit:1;" x1="208.348" y1="105.655" x2="208.018" y2="96.439"/>
	<line style="fill:none;stroke:#000000;stroke-miterlimit:1;" x1="208.018" y1="96.439" x2="207.359" y2="71.424"/>
	<line style="fill:none;stroke:#000000;stroke-miterlimit:1;" x1="207.359" y1="71.424" x2="207.031" y2="46.409"/>
	<line style="fill:none;stroke:#000000;stroke-miterlimit:1;" x1="207.031" y1="46.409" x2="204.398" y2="0"/>
	<line style="fill:none;stroke:#000000;stroke-miterlimit:1;" x1="204.398" y1="0" x2="234.68" y2="0"/>
	<line style="fill:none;stroke:#000000;stroke-miterlimit:1;" x1="113.225" y1="118.286" x2="156.014" y2="77.143"/>
	<line style="fill:none;stroke:#000000;stroke-miterlimit:1;" x1="97.755" y1="112.361" x2="150.418" y2="62.002"/>
	<line style="fill:none;stroke:#000000;stroke-miterlimit:1;" x1="87.552" y1="101.5" x2="140.215" y2="51.141"/>
	<line style="fill:none;stroke:#000000;stroke-miterlimit:1;" x1="82.286" y1="86.03" x2="124.416" y2="45.875"/>
	<line style="fill:none;stroke:#000000;stroke-miterlimit:1;" x1="134.62" y1="48.179" x2="130.999" y2="47.191"/>
	<line style="fill:none;stroke:#000000;stroke-miterlimit:1;" x1="130.999" y1="47.191" x2="127.378" y2="45.875"/>
	<line style="fill:none;stroke:#000000;stroke-miterlimit:1;" x1="127.378" y1="45.875" x2="123.429" y2="45.216"/>
	<line style="fill:none;stroke:#000000;stroke-miterlimit:1;" x1="123.429" y1="45.216" x2="119.479" y2="45.216"/>
	<line style="fill:none;stroke:#000000;stroke-miterlimit:1;" x1="119.479" y1="45.216" x2="115.2" y2="45.545"/>
	<line style="fill:none;stroke:#000000;stroke-miterlimit:1;" x1="115.2" y1="45.545" x2="111.58" y2="45.875"/>
	<line style="fill:none;stroke:#000000;stroke-miterlimit:1;" x1="111.58" y1="45.875" x2="107.63" y2="47.191"/>
	<line style="fill:none;stroke:#000000;stroke-miterlimit:1;" x1="107.63" y1="47.191" x2="104.009" y2="48.508"/>
	<line style="fill:none;stroke:#000000;stroke-miterlimit:1;" x1="104.009" y1="48.508" x2="100.389" y2="50.153"/>
	<line style="fill:none;stroke:#000000;stroke-miterlimit:1;" x1="100.389" y1="50.153" x2="97.097" y2="52.458"/>
	<line style="fill:none;stroke:#000000;stroke-miterlimit:1;" x1="97.097" y1="52.458" x2="94.464" y2="54.761"/>
	<line style="fill:none;stroke:#000000;stroke-miterlimit:1;" x1="94.464" y1="54.761" x2="91.831" y2="57.395"/>
	<line style="fill:none;stroke:#000000;stroke-miterlimit:1;" x1="91.831" y1="57.395" x2="89.856" y2="59.698"/>
	<line style="fill:none;stroke:#000000;stroke-miterlimit:1;" x1="89.856" y1="59.698" x2="87.881" y2="62.661"/>
	<line style="fill:none;stroke:#000000;stroke-miterlimit:1;" x1="87.881" y1="62.661" x2="85.577" y2="66.939"/>
	<line style="fill:none;stroke:#000000;stroke-miterlimit:1;" x1="85.577" y1="66.939" x2="84.59" y2="70.231"/>
	<line style="fill:none;stroke:#000000;stroke-miterlimit:1;" x1="84.59" y1="70.231" x2="83.603" y2="73.852"/>
	<line style="fill:none;stroke:#000000;stroke-miterlimit:1;" x1="83.603" y1="73.852" x2="82.944" y2="77.473"/>
	<line style="fill:none;stroke:#000000;stroke-miterlimit:1;" x1="82.944" y1="77.473" x2="82.286" y2="81.751"/>
	<line style="fill:none;stroke:#000000;stroke-miterlimit:1;" x1="82.286" y1="81.751" x2="82.286" y2="85.372"/>
	<line style="fill:none;stroke:#000000;stroke-miterlimit:1;" x1="82.286" y1="85.372" x2="82.944" y2="89.65"/>
	<line style="fill:none;stroke:#000000;stroke-miterlimit:1;" x1="82.944" y1="89.65" x2="83.932" y2="93.271"/>
	<line style="fill:none;stroke:#000000;stroke-miterlimit:1;" x1="83.932" y1="93.271" x2="84.919" y2="96.562"/>
	<line style="fill:none;stroke:#000000;stroke-miterlimit:1;" x1="84.919" y1="96.562" x2="86.564" y2="100.183"/>
	<line style="fill:none;stroke:#000000;stroke-miterlimit:1;" x1="86.564" y1="100.183" x2="87.552" y2="102.158"/>
	<line style="fill:none;stroke:#000000;stroke-miterlimit:1;" x1="87.552" y1="102.158" x2="88.869" y2="103.804"/>
	<line style="fill:none;stroke:#000000;stroke-miterlimit:1;" x1="88.869" y1="103.804" x2="92.16" y2="107.424"/>
	<line style="fill:none;stroke:#000000;stroke-miterlimit:1;" x1="92.16" y1="107.424" x2="95.452" y2="110.716"/>
	<line style="fill:none;stroke:#000000;stroke-miterlimit:1;" x1="95.452" y1="110.716" x2="98.414" y2="113.02"/>
	<line style="fill:none;stroke:#000000;stroke-miterlimit:1;" x1="98.414" y1="113.02" x2="102.034" y2="114.994"/>
	<line style="fill:none;stroke:#000000;stroke-miterlimit:1;" x1="102.034" y1="114.994" x2="105.984" y2="116.97"/>
	<line style="fill:none;stroke:#000000;stroke-miterlimit:1;" x1="105.984" y1="116.97" x2="109.934" y2="117.957"/>
	<line style="fill:none;stroke:#000000;stroke-miterlimit:1;" x1="109.934" y1="117.957" x2="113.225" y2="118.944"/>
	<line style="fill:none;stroke:#000000;stroke-miterlimit:1;" x1="113.225" y1="118.944" x2="117.175" y2="118.944"/>
	<line style="fill:none;stroke:#000000;stroke-miterlimit:1;" x1="117.175" y1="118.944" x2="121.125" y2="119.273"/>
	<line style="fill:none;stroke:#000000;stroke-miterlimit:1;" x1="121.125" y1="119.273" x2="125.733" y2="118.615"/>
	<line style="fill:none;stroke:#000000;stroke-miterlimit:1;" x1="125.733" y1="118.615" x2="129.024" y2="117.957"/>
	<line style="fill:none;stroke:#000000;stroke-miterlimit:1;" x1="129.024" y1="117.957" x2="132.974" y2="116.312"/>
	<line style="fill:none;stroke:#000000;stroke-miterlimit:1;" x1="132.974" y1="116.312" x2="136.923" y2="114.336"/>
	<line style="fill:none;stroke:#000000;stroke-miterlimit:1;" x1="136.923" y1="114.336" x2="139.557" y2="113.02"/>
	<line style="fill:none;stroke:#000000;stroke-miterlimit:1;" x1="139.557" y1="113.02" x2="142.519" y2="110.387"/>
	<line style="fill:none;stroke:#000000;stroke-miterlimit:1;" x1="142.519" y1="110.387" x2="145.481" y2="107.753"/>
	<line style="fill:none;stroke:#000000;stroke-miterlimit:1;" x1="145.481" y1="107.753" x2="148.443" y2="104.791"/>
	<line style="fill:none;stroke:#000000;stroke-miterlimit:1;" x1="148.443" y1="104.791" x2="150.748" y2="101.171"/>
	<line style="fill:none;stroke:#000000;stroke-miterlimit:1;" x1="150.748" y1="101.171" x2="153.052" y2="97.879"/>
	<line style="fill:none;stroke:#000000;stroke-miterlimit:1;" x1="153.052" y1="97.879" x2="154.697" y2="94.588"/>
	<line style="fill:none;stroke:#000000;stroke-miterlimit:1;" x1="154.697" y1="94.588" x2="155.685" y2="90.638"/>
	<line style="fill:none;stroke:#000000;stroke-miterlimit:1;" x1="155.685" y1="90.638" x2="156.014" y2="87.018"/>
	<line style="fill:none;stroke:#000000;stroke-miterlimit:1;" x1="156.014" y1="87.018" x2="156.672" y2="82.738"/>
	<line style="fill:none;stroke:#000000;stroke-miterlimit:1;" x1="156.672" y1="82.738" x2="156.343" y2="79.118"/>
	<line style="fill:none;stroke:#000000;stroke-miterlimit:1;" x1="156.343" y1="79.118" x2="156.014" y2="74.839"/>
	<line style="fill:none;stroke:#000000;stroke-miterlimit:1;" x1="156.014" y1="74.839" x2="155.026" y2="71.218"/>
	<line style="fill:none;stroke:#000000;stroke-miterlimit:1;" x1="155.026" y1="71.218" x2="153.71" y2="67.927"/>
	<line style="fill:none;stroke:#000000;stroke-miterlimit:1;" x1="153.71" y1="67.927" x2="152.064" y2="63.648"/>
	<line style="fill:none;stroke:#000000;stroke-miterlimit:1;" x1="152.064" y1="63.648" x2="149.76" y2="60.357"/>
	<line style="fill:none;stroke:#000000;stroke-miterlimit:1;" x1="149.76" y1="60.357" x2="147.456" y2="57.724"/>
	<line style="fill:none;stroke:#000000;stroke-miterlimit:1;" x1="147.456" y1="57.724" x2="144.823" y2="54.432"/>
	<line style="fill:none;stroke:#000000;stroke-miterlimit:1;" x1="144.823" y1="54.432" x2="141.532" y2="52.128"/>
	<line style="fill:none;stroke:#000000;stroke-miterlimit:1;" x1="141.532" y1="52.128" x2="138.24" y2="49.824"/>
	<line style="fill:none;stroke:#000000;stroke-miterlimit:1;" x1="138.24" y1="49.824" x2="134.62" y2="48.179"/>
	<line style="fill:none;stroke:#000000;stroke-miterlimit:1;" x1="33.573" y1="61.632" x2="33.573" y2="150.172"/>
	<line style="fill:none;stroke:#000000;stroke-miterlimit:1;" x1="33.573" y1="150.172" x2="40.485" y2="150.172"/>
	<line style="fill:none;stroke:#000000;stroke-miterlimit:1;" x1="40.485" y1="150.172" x2="40.485" y2="61.632"/>
	<line style="fill:none;stroke:#000000;stroke-miterlimit:1;" x1="0" y1="61.303" x2="74.057" y2="61.303"/>
	<line style="fill:none;stroke:#000000;stroke-miterlimit:1;" x1="74.057" y1="61.303" x2="74.057" y2="37.934"/>
	<line style="fill:none;stroke:#000000;stroke-miterlimit:1;" x1="74.057" y1="37.934" x2="72.741" y2="35.301"/>
	<line style="fill:none;stroke:#000000;stroke-miterlimit:1;" x1="72.741" y1="35.301" x2="71.424" y2="33.655"/>
	<line style="fill:none;stroke:#000000;stroke-miterlimit:1;" x1="71.424" y1="33.655" x2="69.778" y2="33.655"/>
	<line style="fill:none;stroke:#000000;stroke-miterlimit:1;" x1="69.778" y1="33.655" x2="68.133" y2="33.655"/>
	<line style="fill:none;stroke:#000000;stroke-miterlimit:1;" x1="68.133" y1="33.655" x2="66.158" y2="33.984"/>
	<line style="fill:none;stroke:#000000;stroke-miterlimit:1;" x1="66.158" y1="33.984" x2="64.183" y2="35.301"/>
	<line style="fill:none;stroke:#000000;stroke-miterlimit:1;" x1="64.183" y1="35.301" x2="57.6" y2="41.226"/>
	<line style="fill:none;stroke:#000000;stroke-miterlimit:1;" x1="57.6" y1="41.226" x2="51.675" y2="46.492"/>
	<line style="fill:none;stroke:#000000;stroke-miterlimit:1;" x1="51.675" y1="46.492" x2="47.067" y2="48.795"/>
	<line style="fill:none;stroke:#000000;stroke-miterlimit:1;" x1="47.067" y1="48.795" x2="41.472" y2="50.112"/>
	<line style="fill:none;stroke:#000000;stroke-miterlimit:1;" x1="41.472" y1="50.112" x2="36.864" y2="50.441"/>
	<line style="fill:none;stroke:#000000;stroke-miterlimit:1;" x1="36.864" y1="50.441" x2="32.585" y2="50.112"/>
	<line style="fill:none;stroke:#000000;stroke-miterlimit:1;" x1="32.585" y1="50.112" x2="26.99" y2="48.795"/>
	<line style="fill:none;stroke:#000000;stroke-miterlimit:1;" x1="26.99" y1="48.795" x2="22.382" y2="46.492"/>
	<line style="fill:none;stroke:#000000;stroke-miterlimit:1;" x1="22.382" y1="46.492" x2="16.457" y2="41.226"/>
	<line style="fill:none;stroke:#000000;stroke-miterlimit:1;" x1="16.457" y1="41.226" x2="9.875" y2="35.301"/>
	<line style="fill:none;stroke:#000000;stroke-miterlimit:1;" x1="9.875" y1="35.301" x2="7.899" y2="33.984"/>
	<line style="fill:none;stroke:#000000;stroke-miterlimit:1;" x1="7.899" y1="33.984" x2="5.925" y2="33.655"/>
	<line style="fill:none;stroke:#000000;stroke-miterlimit:1;" x1="5.925" y1="33.655" x2="4.279" y2="33.655"/>
	<line style="fill:none;stroke:#000000;stroke-miterlimit:1;" x1="4.279" y1="33.655" x2="2.633" y2="33.655"/>
	<line style="fill:none;stroke:#000000;stroke-miterlimit:1;" x1="2.633" y1="33.655" x2="1.317" y2="35.301"/>
	<line style="fill:none;stroke:#000000;stroke-miterlimit:1;" x1="1.317" y1="35.301" x2="0" y2="37.934"/>
	<line style="fill:none;stroke:#000000;stroke-miterlimit:1;" x1="0" y1="37.934" x2="0" y2="61.303"/>
	<line style="fill:none;stroke:#000000;stroke-miterlimit:1;" x1="50.688" y1="46.492" x2="44.764" y2="7.653"/>
	<line style="fill:none;stroke:#000000;stroke-miterlimit:1;" x1="44.764" y1="7.653" x2="42.13" y2="4.361"/>
	<line style="fill:none;stroke:#000000;stroke-miterlimit:1;" x1="42.13" y1="4.361" x2="40.156" y2="3.045"/>
	<line style="fill:none;stroke:#000000;stroke-miterlimit:1;" x1="40.156" y1="3.045" x2="37.522" y2="2.057"/>
	<line style="fill:none;stroke:#000000;stroke-miterlimit:1;" x1="37.522" y1="2.057" x2="36.535" y2="2.057"/>
	<line style="fill:none;stroke:#000000;stroke-miterlimit:1;" x1="36.535" y1="2.057" x2="33.902" y2="3.045"/>
	<line style="fill:none;stroke:#000000;stroke-miterlimit:1;" x1="33.902" y1="3.045" x2="31.927" y2="4.361"/>
	<line style="fill:none;stroke:#000000;stroke-miterlimit:1;" x1="31.927" y1="4.361" x2="29.294" y2="7.653"/>
	<line style="fill:none;stroke:#000000;stroke-miterlimit:1;" x1="29.294" y1="7.653" x2="23.369" y2="46.492"/>
	<line style="fill:none;stroke:#000000;stroke-miterlimit:1;" x1="305.033" y1="15.84" x2="316.225" y2="15.84"/>
	<line style="fill:none;stroke:#000000;stroke-miterlimit:1;" x1="316.225" y1="15.84" x2="318.199" y2="16.828"/>
	<line style="fill:none;stroke:#000000;stroke-miterlimit:1;" x1="318.199" y1="16.828" x2="319.516" y2="21.436"/>
	<line style="fill:none;stroke:#000000;stroke-miterlimit:1;" x1="319.516" y1="21.436" x2="321.49" y2="21.436"/>
	<line style="fill:none;stroke:#000000;stroke-miterlimit:1;" x1="321.49" y1="21.436" x2="321.82" y2="18.802"/>
	<line style="fill:none;stroke:#000000;stroke-miterlimit:1;" x1="321.82" y1="18.802" x2="324.123" y2="16.499"/>
	<line style="fill:none;stroke:#000000;stroke-miterlimit:1;" x1="324.123" y1="16.499" x2="326.428" y2="16.828"/>
	<line style="fill:none;stroke:#000000;stroke-miterlimit:1;" x1="326.428" y1="16.828" x2="327.414" y2="18.802"/>
	<line style="fill:none;stroke:#000000;stroke-miterlimit:1;" x1="327.414" y1="18.802" x2="327.414" y2="20.777"/>
	<line style="fill:none;stroke:#000000;stroke-miterlimit:1;" x1="327.414" y1="20.777" x2="324.781" y2="24.727"/>
	<line style="fill:none;stroke:#000000;stroke-miterlimit:1;" x1="324.781" y1="24.727" x2="323.795" y2="29.006"/>
	<line style="fill:none;stroke:#000000;stroke-miterlimit:1;" x1="323.795" y1="29.006" x2="324.781" y2="33.285"/>
	<line style="fill:none;stroke:#000000;stroke-miterlimit:1;" x1="324.781" y1="33.285" x2="325.77" y2="34.602"/>
	<line style="fill:none;stroke:#000000;stroke-miterlimit:1;" x1="325.77" y1="34.602" x2="328.402" y2="35.918"/>
	<line style="fill:none;stroke:#000000;stroke-miterlimit:1;" x1="328.402" y1="35.918" x2="331.365" y2="35.918"/>
	<line style="fill:none;stroke:#000000;stroke-miterlimit:1;" x1="331.365" y1="35.918" x2="333.668" y2="33.943"/>
	<line style="fill:none;stroke:#000000;stroke-miterlimit:1;" x1="333.668" y1="33.943" x2="335.973" y2="29.335"/>
	<line style="fill:none;stroke:#000000;stroke-miterlimit:1;" x1="335.973" y1="29.335" x2="337.619" y2="23.74"/>
	<line style="fill:none;stroke:#000000;stroke-miterlimit:1;" x1="337.619" y1="23.74" x2="338.277" y2="17.486"/>
	<line style="fill:none;stroke:#000000;stroke-miterlimit:1;" x1="338.277" y1="17.486" x2="337.289" y2="10.903"/>
	<line style="fill:none;stroke:#000000;stroke-miterlimit:1;" x1="337.289" y1="10.903" x2="334.326" y2="6.295"/>
	<line style="fill:none;stroke:#000000;stroke-miterlimit:1;" x1="334.326" y1="6.295" x2="329.719" y2="2.674"/>
	<line style="fill:none;stroke:#000000;stroke-miterlimit:1;" x1="329.719" y1="2.674" x2="325.111" y2="1.029"/>
	<line style="fill:none;stroke:#000000;stroke-miterlimit:1;" x1="325.111" y1="1.029" x2="319.844" y2="1.029"/>
	<line style="fill:none;stroke:#000000;stroke-miterlimit:1;" x1="319.844" y1="1.029" x2="316.225" y2="1.358"/>
	<line style="fill:none;stroke:#000000;stroke-miterlimit:1;" x1="316.225" y1="1.358" x2="313.262" y2="2.345"/>
	<line style="fill:none;stroke:#000000;stroke-miterlimit:1;" x1="313.262" y1="2.345" x2="309.971" y2="4.979"/>
	<line style="fill:none;stroke:#000000;stroke-miterlimit:1;" x1="309.971" y1="4.979" x2="307.338" y2="8.599"/>
	<line style="fill:none;stroke:#000000;stroke-miterlimit:1;" x1="307.338" y1="8.599" x2="305.363" y2="12.22"/>
	<line style="fill:none;stroke:#000000;stroke-miterlimit:1;" x1="307.008" y1="19.132" x2="308.654" y2="19.79"/>
	<line style="fill:none;stroke:#000000;stroke-miterlimit:1;" x1="308.654" y1="19.79" x2="310.957" y2="19.132"/>
	<line style="fill:none;stroke:#000000;stroke-miterlimit:1;" x1="310.957" y1="19.132" x2="308.982" y2="18.144"/>
	<line style="fill:none;stroke:#000000;stroke-miterlimit:1;" x1="308.982" y1="18.144" x2="307.008" y2="18.473"/>
	<line style="fill:none;stroke:#000000;stroke-miterlimit:1;" x1="305.691" y1="12.549" x2="304.375" y2="17.157"/>
	<line style="fill:none;stroke:#000000;stroke-miterlimit:1;" x1="304.375" y1="17.157" x2="302.729" y2="21.106"/>
	<line style="fill:none;stroke:#000000;stroke-miterlimit:1;" x1="302.729" y1="21.106" x2="300.426" y2="24.069"/>
	<line style="fill:none;stroke:#000000;stroke-miterlimit:1;" x1="300.426" y1="24.069" x2="301.084" y2="25.056"/>
	<line style="fill:none;stroke:#000000;stroke-miterlimit:1;" x1="301.084" y1="25.056" x2="303.717" y2="27.36"/>
	<line style="fill:none;stroke:#000000;stroke-miterlimit:1;" x1="303.717" y1="27.36" x2="305.033" y2="30.651"/>
	<line style="fill:none;stroke:#000000;stroke-miterlimit:1;" x1="305.033" y1="30.651" x2="306.35" y2="33.943"/>
	<line style="fill:none;stroke:#000000;stroke-miterlimit:1;" x1="306.35" y1="33.943" x2="312.275" y2="33.943"/>
	<line style="fill:none;stroke:#000000;stroke-miterlimit:1;" x1="312.275" y1="33.943" x2="312.934" y2="39.539"/>
	<line style="fill:none;stroke:#000000;stroke-miterlimit:1;" x1="312.934" y1="39.539" x2="311.945" y2="40.855"/>
	<line style="fill:none;stroke:#000000;stroke-miterlimit:1;" x1="311.945" y1="40.855" x2="303.387" y2="42.83"/>
	<line style="fill:none;stroke:#000000;stroke-miterlimit:1;" x1="303.387" y1="42.83" x2="294.5" y2="47.767"/>
	<line style="fill:none;stroke:#000000;stroke-miterlimit:1;" x1="294.5" y1="47.767" x2="270.145" y2="59.945"/>
	<line style="fill:none;stroke:#000000;stroke-miterlimit:1;" x1="270.145" y1="59.945" x2="287.26" y2="38.222"/>
	<line style="fill:none;stroke:#000000;stroke-miterlimit:1;" x1="287.26" y1="38.222" x2="289.564" y2="36.905"/>
	<line style="fill:none;stroke:#000000;stroke-miterlimit:1;" x1="289.564" y1="36.905" x2="292.855" y2="37.563"/>
	<line style="fill:none;stroke:#000000;stroke-miterlimit:1;" x1="292.855" y1="37.563" x2="296.805" y2="37.563"/>
	<line style="fill:none;stroke:#000000;stroke-miterlimit:1;" x1="296.805" y1="37.563" x2="299.768" y2="35.918"/>
	<line style="fill:none;stroke:#000000;stroke-miterlimit:1;" x1="299.768" y1="35.918" x2="300.096" y2="34.602"/>
	<line style="fill:none;stroke:#000000;stroke-miterlimit:1;" x1="300.096" y1="34.602" x2="300.096" y2="33.285"/>
	<line style="fill:none;stroke:#000000;stroke-miterlimit:1;" x1="300.096" y1="33.285" x2="298.121" y2="31.31"/>
	<line style="fill:none;stroke:#000000;stroke-miterlimit:1;" x1="298.121" y1="31.31" x2="303.059" y2="30.651"/>
	<line style="fill:none;stroke:#000000;stroke-miterlimit:1;" x1="303.059" y1="30.651" x2="302.4" y2="29.006"/>
	<line style="fill:none;stroke:#000000;stroke-miterlimit:1;" x1="302.4" y1="29.006" x2="295.158" y2="29.335"/>
	<line style="fill:none;stroke:#000000;stroke-miterlimit:1;" x1="295.158" y1="29.335" x2="287.918" y2="29.993"/>
	<line style="fill:none;stroke:#000000;stroke-miterlimit:1;" x1="287.918" y1="29.993" x2="284.955" y2="31.639"/>
	<line style="fill:none;stroke:#000000;stroke-miterlimit:1;" x1="284.955" y1="31.639" x2="281.664" y2="34.272"/>
	<line style="fill:none;stroke:#000000;stroke-miterlimit:1;" x1="281.664" y1="34.272" x2="276.727" y2="38.551"/>
	<line style="fill:none;stroke:#000000;stroke-miterlimit:1;" x1="276.727" y1="38.551" x2="266.195" y2="50.729"/>
	<line style="fill:none;stroke:#000000;stroke-miterlimit:1;" x1="266.195" y1="50.729" x2="261.916" y2="56.654"/>
	<line style="fill:none;stroke:#000000;stroke-miterlimit:1;" x1="261.916" y1="56.654" x2="259.611" y2="60.604"/>
	<line style="fill:none;stroke:#000000;stroke-miterlimit:1;" x1="259.611" y1="60.604" x2="258.625" y2="64.553"/>
	<line style="fill:none;stroke:#000000;stroke-miterlimit:1;" x1="258.625" y1="64.553" x2="258.953" y2="66.857"/>
	<line style="fill:none;stroke:#000000;stroke-miterlimit:1;" x1="258.953" y1="66.857" x2="261.586" y2="70.149"/>
	<line style="fill:none;stroke:#000000;stroke-miterlimit:1;" x1="261.586" y1="70.149" x2="265.537" y2="70.807"/>
	<line style="fill:none;stroke:#000000;stroke-miterlimit:1;" x1="265.537" y1="70.807" x2="270.803" y2="69.49"/>
	<line style="fill:none;stroke:#000000;stroke-miterlimit:1;" x1="270.803" y1="69.49" x2="285.613" y2="63.895"/>
	<line style="fill:none;stroke:#000000;stroke-miterlimit:1;" x1="285.613" y1="63.895" x2="300.426" y2="56.654"/>
	<line style="fill:none;stroke:#000000;stroke-miterlimit:1;" x1="300.426" y1="56.654" x2="302.4" y2="56.325"/>
	<line style="fill:none;stroke:#000000;stroke-miterlimit:1;" x1="302.4" y1="56.325" x2="304.045" y2="56.654"/>
	<line style="fill:none;stroke:#000000;stroke-miterlimit:1;" x1="304.045" y1="56.654" x2="307.666" y2="72.453"/>
	<line style="fill:none;stroke:#000000;stroke-miterlimit:1;" x1="307.666" y1="72.453" x2="309.312" y2="87.923"/>
	<line style="fill:none;stroke:#000000;stroke-miterlimit:1;" x1="309.312" y1="87.923" x2="309.971" y2="92.53"/>
	<line style="fill:none;stroke:#000000;stroke-miterlimit:1;" x1="309.971" y1="92.53" x2="307.996" y2="113.596"/>
	<line style="fill:none;stroke:#000000;stroke-miterlimit:1;" x1="307.996" y1="113.596" x2="293.842" y2="98.126"/>
	<line style="fill:none;stroke:#000000;stroke-miterlimit:1;" x1="293.842" y1="98.126" x2="288.246" y2="92.53"/>
	<line style="fill:none;stroke:#000000;stroke-miterlimit:1;" x1="288.246" y1="92.53" x2="281.006" y2="87.265"/>
	<line style="fill:none;stroke:#000000;stroke-miterlimit:1;" x1="281.006" y1="87.265" x2="276.398" y2="86.605"/>
	<line style="fill:none;stroke:#000000;stroke-miterlimit:1;" x1="276.398" y1="86.605" x2="272.777" y2="86.605"/>
	<line style="fill:none;stroke:#000000;stroke-miterlimit:1;" x1="272.777" y1="86.605" x2="269.486" y2="88.252"/>
	<line style="fill:none;stroke:#000000;stroke-miterlimit:1;" x1="269.486" y1="88.252" x2="267.182" y2="90.556"/>
	<line style="fill:none;stroke:#000000;stroke-miterlimit:1;" x1="267.182" y1="90.556" x2="266.523" y2="95.493"/>
	<line style="fill:none;stroke:#000000;stroke-miterlimit:1;" x1="266.523" y1="95.493" x2="270.803" y2="111.95"/>
	<line style="fill:none;stroke:#000000;stroke-miterlimit:1;" x1="270.803" y1="111.95" x2="275.082" y2="127.42"/>
	<line style="fill:none;stroke:#000000;stroke-miterlimit:1;" x1="281.336" y1="88.581" x2="274.424" y2="95.822"/>
	<line style="fill:none;stroke:#000000;stroke-miterlimit:1;" x1="274.424" y1="95.822" x2="279.359" y2="102.733"/>
	<line style="fill:none;stroke:#000000;stroke-miterlimit:1;" x1="279.359" y1="102.733" x2="281.664" y2="107.671"/>
	<line style="fill:none;stroke:#000000;stroke-miterlimit:1;" x1="281.664" y1="107.671" x2="283.311" y2="114.583"/>
	<line style="fill:none;stroke:#000000;stroke-miterlimit:1;" x1="283.311" y1="114.583" x2="284.627" y2="123.141"/>
	<line style="fill:none;stroke:#000000;stroke-miterlimit:1;" x1="334.656" y1="107.671" x2="328.402" y2="108.329"/>
	<line style="fill:none;stroke:#000000;stroke-miterlimit:1;" x1="328.402" y1="108.329" x2="307.996" y2="113.596"/>
	<line style="fill:none;stroke:#000000;stroke-miterlimit:1;" x1="307.996" y1="113.596" x2="295.158" y2="118.533"/>
	<line style="fill:none;stroke:#000000;stroke-miterlimit:1;" x1="295.158" y1="118.533" x2="281.994" y2="124.128"/>
	<line style="fill:none;stroke:#000000;stroke-miterlimit:1;" x1="281.994" y1="124.128" x2="276.727" y2="126.762"/>
	<line style="fill:none;stroke:#000000;stroke-miterlimit:1;" x1="276.727" y1="126.762" x2="272.119" y2="129.724"/>
	<line style="fill:none;stroke:#000000;stroke-miterlimit:1;" x1="272.119" y1="129.724" x2="268.17" y2="134.332"/>
	<line style="fill:none;stroke:#000000;stroke-miterlimit:1;" x1="268.17" y1="134.332" x2="266.854" y2="137.623"/>
	<line style="fill:none;stroke:#000000;stroke-miterlimit:1;" x1="266.854" y1="137.623" x2="266.854" y2="141.243"/>
	<line style="fill:none;stroke:#000000;stroke-miterlimit:1;" x1="266.854" y1="141.243" x2="267.84" y2="143.877"/>
	<line style="fill:none;stroke:#000000;stroke-miterlimit:1;" x1="267.84" y1="143.877" x2="269.814" y2="146.181"/>
	<line style="fill:none;stroke:#000000;stroke-miterlimit:1;" x1="269.814" y1="146.181" x2="275.082" y2="148.813"/>
	<line style="fill:none;stroke:#000000;stroke-miterlimit:1;" x1="275.082" y1="148.813" x2="281.994" y2="148.813"/>
	<line style="fill:none;stroke:#000000;stroke-miterlimit:1;" x1="281.994" y1="148.813" x2="315.895" y2="144.206"/>
	<line style="fill:none;stroke:#000000;stroke-miterlimit:1;" x1="315.895" y1="144.206" x2="324.453" y2="143.219"/>
	<line style="fill:none;stroke:#000000;stroke-miterlimit:1;" x1="324.453" y1="143.219" x2="331.365" y2="144.206"/>
	<line style="fill:none;stroke:#000000;stroke-miterlimit:1;" x1="331.365" y1="144.206" x2="342.885" y2="148.155"/>
	<line style="fill:none;stroke:#000000;stroke-miterlimit:1;" x1="342.885" y1="148.155" x2="348.809" y2="148.813"/>
	<line style="fill:none;stroke:#000000;stroke-miterlimit:1;" x1="348.809" y1="148.813" x2="354.076" y2="148.813"/>
	<line style="fill:none;stroke:#000000;stroke-miterlimit:1;" x1="354.076" y1="148.813" x2="353.746" y2="146.51"/>
	<line style="fill:none;stroke:#000000;stroke-miterlimit:1;" x1="353.746" y1="146.51" x2="349.139" y2="146.181"/>
	<line style="fill:none;stroke:#000000;stroke-miterlimit:1;" x1="349.139" y1="146.181" x2="342.227" y2="143.877"/>
	<line style="fill:none;stroke:#000000;stroke-miterlimit:1;" x1="342.227" y1="143.877" x2="336.631" y2="139.598"/>
	<line style="fill:none;stroke:#000000;stroke-miterlimit:1;" x1="336.631" y1="139.598" x2="335.645" y2="136.307"/>
	<line style="fill:none;stroke:#000000;stroke-miterlimit:1;" x1="335.645" y1="136.307" x2="332.682" y2="135.648"/>
	<line style="fill:none;stroke:#000000;stroke-miterlimit:1;" x1="332.682" y1="135.648" x2="328.402" y2="137.952"/>
	<line style="fill:none;stroke:#000000;stroke-miterlimit:1;" x1="328.402" y1="137.952" x2="324.453" y2="137.952"/>
	<line style="fill:none;stroke:#000000;stroke-miterlimit:1;" x1="324.453" y1="137.952" x2="312.934" y2="134.99"/>
	<line style="fill:none;stroke:#000000;stroke-miterlimit:1;" x1="312.934" y1="134.99" x2="306.021" y2="134.332"/>
	<line style="fill:none;stroke:#000000;stroke-miterlimit:1;" x1="306.021" y1="134.332" x2="291.539" y2="135.648"/>
	<line style="fill:none;stroke:#000000;stroke-miterlimit:1;" x1="291.539" y1="135.648" x2="280.676" y2="139.598"/>
	<line style="fill:none;stroke:#000000;stroke-miterlimit:1;" x1="280.676" y1="139.598" x2="277.715" y2="135.319"/>
	<line style="fill:none;stroke:#000000;stroke-miterlimit:1;" x1="277.715" y1="135.319" x2="272.777" y2="130.711"/>
	<line style="fill:none;stroke:#000000;stroke-miterlimit:1;" x1="267.182" y1="141.243" x2="260.6" y2="144.535"/>
	<line style="fill:none;stroke:#000000;stroke-miterlimit:1;" x1="260.6" y1="144.535" x2="253.029" y2="146.51"/>
	<line style="fill:none;stroke:#000000;stroke-miterlimit:1;" x1="253.029" y1="146.51" x2="253.029" y2="149.143"/>
	<line style="fill:none;stroke:#000000;stroke-miterlimit:1;" x1="253.029" y1="149.143" x2="258.953" y2="149.143"/>
	<line style="fill:none;stroke:#000000;stroke-miterlimit:1;" x1="258.953" y1="149.143" x2="269.156" y2="145.522"/>
	<line style="fill:none;stroke:#000000;stroke-miterlimit:1;" x1="332.682" y1="135.648" x2="334.326" y2="133.344"/>
	<line style="fill:none;stroke:#000000;stroke-miterlimit:1;" x1="334.326" y1="133.344" x2="335.314" y2="130.053"/>
	<line style="fill:none;stroke:#000000;stroke-miterlimit:1;" x1="335.314" y1="130.053" x2="336.303" y2="123.47"/>
	<line style="fill:none;stroke:#000000;stroke-miterlimit:1;" x1="336.303" y1="123.47" x2="336.303" y2="118.533"/>
	<line style="fill:none;stroke:#000000;stroke-miterlimit:1;" x1="336.303" y1="118.533" x2="334.984" y2="112.279"/>
	<line style="fill:none;stroke:#000000;stroke-miterlimit:1;" x1="334.984" y1="112.279" x2="334.656" y2="107.013"/>
	<line style="fill:none;stroke:#000000;stroke-miterlimit:1;" x1="334.656" y1="107.013" x2="334.656" y2="96.48"/>
	<line style="fill:none;stroke:#000000;stroke-miterlimit:1;" x1="334.656" y1="96.48" x2="335.973" y2="85.947"/>
	<line style="fill:none;stroke:#000000;stroke-miterlimit:1;" x1="335.973" y1="85.947" x2="337.289" y2="74.099"/>
	<line style="fill:none;stroke:#000000;stroke-miterlimit:1;" x1="337.289" y1="74.099" x2="339.594" y2="61.92"/>
	<line style="fill:none;stroke:#000000;stroke-miterlimit:1;" x1="339.594" y1="61.92" x2="341.896" y2="59.616"/>
	<line style="fill:none;stroke:#000000;stroke-miterlimit:1;" x1="341.896" y1="59.616" x2="344.531" y2="63.237"/>
	<line style="fill:none;stroke:#000000;stroke-miterlimit:1;" x1="344.531" y1="63.237" x2="348.15" y2="75.415"/>
	<line style="fill:none;stroke:#000000;stroke-miterlimit:1;" x1="348.15" y1="75.415" x2="352.76" y2="87.265"/>
	<line style="fill:none;stroke:#000000;stroke-miterlimit:1;" x1="352.76" y1="87.265" x2="351.443" y2="93.518"/>
	<line style="fill:none;stroke:#000000;stroke-miterlimit:1;" x1="351.443" y1="93.518" x2="351.113" y2="99.442"/>
	<line style="fill:none;stroke:#000000;stroke-miterlimit:1;" x1="351.113" y1="99.442" x2="351.443" y2="106.354"/>
	<line style="fill:none;stroke:#000000;stroke-miterlimit:1;" x1="351.443" y1="106.354" x2="352.43" y2="113.596"/>
	<line style="fill:none;stroke:#000000;stroke-miterlimit:1;" x1="352.43" y1="113.596" x2="350.455" y2="119.521"/>
	<line style="fill:none;stroke:#000000;stroke-miterlimit:1;" x1="350.455" y1="119.521" x2="349.797" y2="125.444"/>
	<line style="fill:none;stroke:#000000;stroke-miterlimit:1;" x1="349.797" y1="125.444" x2="350.125" y2="127.42"/>
	<line style="fill:none;stroke:#000000;stroke-miterlimit:1;" x1="350.125" y1="127.42" x2="350.783" y2="129.395"/>
	<line style="fill:none;stroke:#000000;stroke-miterlimit:1;" x1="350.783" y1="129.395" x2="351.771" y2="129.395"/>
	<line style="fill:none;stroke:#000000;stroke-miterlimit:1;" x1="351.771" y1="129.395" x2="352.43" y2="126.104"/>
	<line style="fill:none;stroke:#000000;stroke-miterlimit:1;" x1="352.43" y1="126.104" x2="353.418" y2="126.104"/>
	<line style="fill:none;stroke:#000000;stroke-miterlimit:1;" x1="353.418" y1="126.104" x2="354.734" y2="126.433"/>
	<line style="fill:none;stroke:#000000;stroke-miterlimit:1;" x1="354.734" y1="126.433" x2="356.709" y2="126.104"/>
	<line style="fill:none;stroke:#000000;stroke-miterlimit:1;" x1="356.709" y1="126.104" x2="358.684" y2="125.115"/>
	<line style="fill:none;stroke:#000000;stroke-miterlimit:1;" x1="358.684" y1="125.115" x2="359.342" y2="122.812"/>
	<line style="fill:none;stroke:#000000;stroke-miterlimit:1;" x1="359.342" y1="122.812" x2="359.672" y2="120.837"/>
	<line style="fill:none;stroke:#000000;stroke-miterlimit:1;" x1="359.672" y1="120.837" x2="359.014" y2="118.204"/>
	<line style="fill:none;stroke:#000000;stroke-miterlimit:1;" x1="359.014" y1="118.204" x2="357.367" y2="114.912"/>
	<line style="fill:none;stroke:#000000;stroke-miterlimit:1;" x1="357.367" y1="114.912" x2="360.33" y2="101.417"/>
	<line style="fill:none;stroke:#000000;stroke-miterlimit:1;" x1="360.33" y1="101.417" x2="361.316" y2="94.835"/>
	<line style="fill:none;stroke:#000000;stroke-miterlimit:1;" x1="361.316" y1="94.835" x2="361.646" y2="87.923"/>
	<line style="fill:none;stroke:#000000;stroke-miterlimit:1;" x1="361.646" y1="87.923" x2="360.33" y2="81.011"/>
	<line style="fill:none;stroke:#000000;stroke-miterlimit:1;" x1="360.33" y1="81.011" x2="356.709" y2="67.845"/>
	<line style="fill:none;stroke:#000000;stroke-miterlimit:1;" x1="356.709" y1="67.845" x2="351.113" y2="55.008"/>
	<line style="fill:none;stroke:#000000;stroke-miterlimit:1;" x1="351.113" y1="55.008" x2="348.15" y2="48.425"/>
	<line style="fill:none;stroke:#000000;stroke-miterlimit:1;" x1="348.15" y1="48.425" x2="343.213" y2="42.83"/>
	<line style="fill:none;stroke:#000000;stroke-miterlimit:1;" x1="343.213" y1="42.83" x2="339.264" y2="41.184"/>
	<line style="fill:none;stroke:#000000;stroke-miterlimit:1;" x1="339.264" y1="41.184" x2="334.984" y2="40.855"/>
	<line style="fill:none;stroke:#000000;stroke-miterlimit:1;" x1="334.984" y1="40.855" x2="331.035" y2="40.526"/>
	<line style="fill:none;stroke:#000000;stroke-miterlimit:1;" x1="331.035" y1="40.526" x2="330.707" y2="36.247"/>
</g>
</svg>
