<?xml version="1.0" encoding="iso-8859-1"?>
<!-- Generator: Adobe Illustrator 16.0.1, SVG Export Plug-In . SVG Version: 6.00 Build 0)  -->
<!DOCTYPE svg PUBLIC "-//W3C//DTD SVG 1.1//EN" "http://www.w3.org/Graphics/SVG/1.1/DTD/svg11.dtd">
<svg version="1.1" id="Ebene_1" xmlns="http://www.w3.org/2000/svg" xmlns:xlink="http://www.w3.org/1999/xlink" x="0px" y="0px"
	 width="333.504px" height="148.566px" viewBox="0 0 333.504 148.566" style="enable-background:new 0 0 333.504 148.566;"
	 xml:space="preserve">
<g>
	<line style="fill:none;stroke:#000000;stroke-miterlimit:1;" x1="33.572" y1="60.027" x2="33.572" y2="148.566"/>
	<line style="fill:none;stroke:#000000;stroke-miterlimit:1;" x1="33.572" y1="148.566" x2="40.484" y2="148.566"/>
	<line style="fill:none;stroke:#000000;stroke-miterlimit:1;" x1="40.484" y1="148.566" x2="40.484" y2="60.027"/>
	<line style="fill:none;stroke:#000000;stroke-miterlimit:1;" x1="0" y1="59.698" x2="74.057" y2="59.698"/>
	<line style="fill:none;stroke:#000000;stroke-miterlimit:1;" x1="74.057" y1="59.698" x2="74.057" y2="36.329"/>
	<line style="fill:none;stroke:#000000;stroke-miterlimit:1;" x1="74.057" y1="36.329" x2="72.74" y2="33.696"/>
	<line style="fill:none;stroke:#000000;stroke-miterlimit:1;" x1="72.74" y1="33.696" x2="71.424" y2="32.05"/>
	<line style="fill:none;stroke:#000000;stroke-miterlimit:1;" x1="71.424" y1="32.05" x2="69.778" y2="32.05"/>
	<line style="fill:none;stroke:#000000;stroke-miterlimit:1;" x1="69.778" y1="32.05" x2="68.132" y2="32.05"/>
	<line style="fill:none;stroke:#000000;stroke-miterlimit:1;" x1="68.132" y1="32.05" x2="66.158" y2="32.379"/>
	<line style="fill:none;stroke:#000000;stroke-miterlimit:1;" x1="66.158" y1="32.379" x2="64.183" y2="33.696"/>
	<line style="fill:none;stroke:#000000;stroke-miterlimit:1;" x1="64.183" y1="33.696" x2="57.6" y2="39.621"/>
	<line style="fill:none;stroke:#000000;stroke-miterlimit:1;" x1="57.6" y1="39.621" x2="51.675" y2="44.887"/>
	<line style="fill:none;stroke:#000000;stroke-miterlimit:1;" x1="51.675" y1="44.887" x2="47.067" y2="47.191"/>
	<line style="fill:none;stroke:#000000;stroke-miterlimit:1;" x1="47.067" y1="47.191" x2="41.472" y2="48.507"/>
	<line style="fill:none;stroke:#000000;stroke-miterlimit:1;" x1="41.472" y1="48.507" x2="36.864" y2="48.836"/>
	<line style="fill:none;stroke:#000000;stroke-miterlimit:1;" x1="36.864" y1="48.836" x2="32.585" y2="48.507"/>
	<line style="fill:none;stroke:#000000;stroke-miterlimit:1;" x1="32.585" y1="48.507" x2="26.99" y2="47.191"/>
	<line style="fill:none;stroke:#000000;stroke-miterlimit:1;" x1="26.99" y1="47.191" x2="22.381" y2="44.887"/>
	<line style="fill:none;stroke:#000000;stroke-miterlimit:1;" x1="22.381" y1="44.887" x2="16.457" y2="39.621"/>
	<line style="fill:none;stroke:#000000;stroke-miterlimit:1;" x1="16.457" y1="39.621" x2="9.874" y2="33.696"/>
	<line style="fill:none;stroke:#000000;stroke-miterlimit:1;" x1="9.874" y1="33.696" x2="7.899" y2="32.379"/>
	<line style="fill:none;stroke:#000000;stroke-miterlimit:1;" x1="7.899" y1="32.379" x2="5.924" y2="32.05"/>
	<line style="fill:none;stroke:#000000;stroke-miterlimit:1;" x1="5.924" y1="32.05" x2="4.279" y2="32.05"/>
	<line style="fill:none;stroke:#000000;stroke-miterlimit:1;" x1="4.279" y1="32.05" x2="2.633" y2="32.05"/>
	<line style="fill:none;stroke:#000000;stroke-miterlimit:1;" x1="2.633" y1="32.05" x2="1.316" y2="33.696"/>
	<line style="fill:none;stroke:#000000;stroke-miterlimit:1;" x1="1.316" y1="33.696" x2="0" y2="36.329"/>
	<line style="fill:none;stroke:#000000;stroke-miterlimit:1;" x1="0" y1="36.329" x2="0" y2="59.698"/>
	<line style="fill:none;stroke:#000000;stroke-miterlimit:1;" x1="50.688" y1="44.887" x2="44.763" y2="6.048"/>
	<line style="fill:none;stroke:#000000;stroke-miterlimit:1;" x1="44.763" y1="6.048" x2="42.13" y2="2.757"/>
	<line style="fill:none;stroke:#000000;stroke-miterlimit:1;" x1="42.13" y1="2.757" x2="40.155" y2="1.44"/>
	<line style="fill:none;stroke:#000000;stroke-miterlimit:1;" x1="40.155" y1="1.44" x2="37.522" y2="0.453"/>
	<line style="fill:none;stroke:#000000;stroke-miterlimit:1;" x1="37.522" y1="0.453" x2="36.535" y2="0.453"/>
	<line style="fill:none;stroke:#000000;stroke-miterlimit:1;" x1="36.535" y1="0.453" x2="33.901" y2="1.44"/>
	<line style="fill:none;stroke:#000000;stroke-miterlimit:1;" x1="33.901" y1="1.44" x2="31.927" y2="2.757"/>
	<line style="fill:none;stroke:#000000;stroke-miterlimit:1;" x1="31.927" y1="2.757" x2="29.293" y2="6.048"/>
	<line style="fill:none;stroke:#000000;stroke-miterlimit:1;" x1="29.293" y1="6.048" x2="23.369" y2="44.887"/>
	<line style="fill:none;stroke:#000000;stroke-miterlimit:1;" x1="94.918" y1="46.001" x2="103.963" y2="81.406"/>
	<line style="fill:none;stroke:#000000;stroke-miterlimit:1;" x1="103.963" y1="81.406" x2="133.424" y2="81.406"/>
	<line style="fill:none;stroke:#000000;stroke-miterlimit:1;" x1="133.424" y1="81.406" x2="142.469" y2="46.001"/>
	<line style="fill:none;stroke:#000000;stroke-miterlimit:1;" x1="142.469" y1="46.001" x2="94.918" y2="46.001"/>
	<line style="fill:none;stroke:#000000;stroke-miterlimit:1;" x1="124.896" y1="46.001" x2="124.379" y2="41.866"/>
	<line style="fill:none;stroke:#000000;stroke-miterlimit:1;" x1="124.379" y1="41.866" x2="122.829" y2="37.731"/>
	<line style="fill:none;stroke:#000000;stroke-miterlimit:1;" x1="122.829" y1="37.731" x2="119.986" y2="34.372"/>
	<line style="fill:none;stroke:#000000;stroke-miterlimit:1;" x1="119.986" y1="34.372" x2="116.885" y2="31.787"/>
	<line style="fill:none;stroke:#000000;stroke-miterlimit:1;" x1="116.885" y1="31.787" x2="113.267" y2="29.203"/>
	<line style="fill:none;stroke:#000000;stroke-miterlimit:1;" x1="113.267" y1="29.203" x2="111.199" y2="26.619"/>
	<line style="fill:none;stroke:#000000;stroke-miterlimit:1;" x1="111.199" y1="26.619" x2="110.166" y2="23"/>
	<line style="fill:none;stroke:#000000;stroke-miterlimit:1;" x1="110.166" y1="23" x2="110.94" y2="19.124"/>
	<line style="fill:none;stroke:#000000;stroke-miterlimit:1;" x1="110.94" y1="19.124" x2="110.682" y2="15.248"/>
	<line style="fill:none;stroke:#000000;stroke-miterlimit:1;" x1="110.682" y1="15.248" x2="109.39" y2="11.629"/>
	<line style="fill:none;stroke:#000000;stroke-miterlimit:1;" x1="109.39" y1="11.629" x2="107.064" y2="8.528"/>
	<line style="fill:none;stroke:#000000;stroke-miterlimit:1;" x1="107.064" y1="8.528" x2="104.221" y2="6.203"/>
	<line style="fill:none;stroke:#000000;stroke-miterlimit:1;" x1="104.221" y1="6.203" x2="101.12" y2="3.876"/>
	<line style="fill:none;stroke:#000000;stroke-miterlimit:1;" x1="101.12" y1="3.876" x2="98.536" y2="1.809"/>
	<line style="fill:none;stroke:#000000;stroke-miterlimit:1;" x1="98.536" y1="1.809" x2="96.985" y2="0"/>
	<line style="fill:none;stroke:#000000;stroke-miterlimit:1;" x1="96.985" y1="0" x2="96.985" y2="1.551"/>
	<line style="fill:none;stroke:#000000;stroke-miterlimit:1;" x1="96.985" y1="1.551" x2="98.019" y2="4.135"/>
	<line style="fill:none;stroke:#000000;stroke-miterlimit:1;" x1="98.019" y1="4.135" x2="100.345" y2="6.978"/>
	<line style="fill:none;stroke:#000000;stroke-miterlimit:1;" x1="100.345" y1="6.978" x2="102.671" y2="9.82"/>
	<line style="fill:none;stroke:#000000;stroke-miterlimit:1;" x1="102.671" y1="9.82" x2="104.221" y2="11.888"/>
	<line style="fill:none;stroke:#000000;stroke-miterlimit:1;" x1="104.221" y1="11.888" x2="104.997" y2="14.731"/>
	<line style="fill:none;stroke:#000000;stroke-miterlimit:1;" x1="104.997" y1="14.731" x2="105.255" y2="17.057"/>
	<line style="fill:none;stroke:#000000;stroke-miterlimit:1;" x1="105.255" y1="17.057" x2="104.738" y2="20.417"/>
	<line style="fill:none;stroke:#000000;stroke-miterlimit:1;" x1="104.738" y1="20.417" x2="103.963" y2="23"/>
	<line style="fill:none;stroke:#000000;stroke-miterlimit:1;" x1="103.963" y1="23" x2="103.963" y2="26.619"/>
	<line style="fill:none;stroke:#000000;stroke-miterlimit:1;" x1="103.963" y1="26.619" x2="104.997" y2="29.203"/>
	<line style="fill:none;stroke:#000000;stroke-miterlimit:1;" x1="104.997" y1="29.203" x2="107.581" y2="32.821"/>
	<line style="fill:none;stroke:#000000;stroke-miterlimit:1;" x1="107.581" y1="32.821" x2="110.424" y2="35.664"/>
	<line style="fill:none;stroke:#000000;stroke-miterlimit:1;" x1="110.424" y1="35.664" x2="113.008" y2="37.99"/>
	<line style="fill:none;stroke:#000000;stroke-miterlimit:1;" x1="113.008" y1="37.99" x2="114.3" y2="40.315"/>
	<line style="fill:none;stroke:#000000;stroke-miterlimit:1;" x1="114.3" y1="40.315" x2="114.559" y2="42.383"/>
	<line style="fill:none;stroke:#000000;stroke-miterlimit:1;" x1="114.559" y1="42.383" x2="114.559" y2="44.451"/>
	<line style="fill:none;stroke:#000000;stroke-miterlimit:1;" x1="114.559" y1="44.451" x2="114.042" y2="46.001"/>
	<line style="fill:none;stroke:#000000;stroke-miterlimit:1;" x1="112.75" y1="147.34" x2="146.346" y2="115.035"/>
	<line style="fill:none;stroke:#000000;stroke-miterlimit:1;" x1="100.604" y1="142.688" x2="141.953" y2="103.146"/>
	<line style="fill:none;stroke:#000000;stroke-miterlimit:1;" x1="92.592" y1="134.158" x2="133.941" y2="94.619"/>
	<line style="fill:none;stroke:#000000;stroke-miterlimit:1;" x1="88.457" y1="122.012" x2="121.536" y2="90.484"/>
	<line style="fill:none;stroke:#000000;stroke-miterlimit:1;" x1="129.548" y1="92.293" x2="126.705" y2="91.518"/>
	<line style="fill:none;stroke:#000000;stroke-miterlimit:1;" x1="126.705" y1="91.518" x2="123.862" y2="90.484"/>
	<line style="fill:none;stroke:#000000;stroke-miterlimit:1;" x1="123.862" y1="90.484" x2="120.761" y2="89.967"/>
	<line style="fill:none;stroke:#000000;stroke-miterlimit:1;" x1="120.761" y1="89.967" x2="117.66" y2="89.967"/>
	<line style="fill:none;stroke:#000000;stroke-miterlimit:1;" x1="117.66" y1="89.967" x2="114.3" y2="90.225"/>
	<line style="fill:none;stroke:#000000;stroke-miterlimit:1;" x1="114.3" y1="90.225" x2="111.458" y2="90.484"/>
	<line style="fill:none;stroke:#000000;stroke-miterlimit:1;" x1="111.458" y1="90.484" x2="108.356" y2="91.518"/>
	<line style="fill:none;stroke:#000000;stroke-miterlimit:1;" x1="108.356" y1="91.518" x2="105.514" y2="92.551"/>
	<line style="fill:none;stroke:#000000;stroke-miterlimit:1;" x1="105.514" y1="92.551" x2="102.671" y2="93.844"/>
	<line style="fill:none;stroke:#000000;stroke-miterlimit:1;" x1="102.671" y1="93.844" x2="100.086" y2="95.652"/>
	<line style="fill:none;stroke:#000000;stroke-miterlimit:1;" x1="100.086" y1="95.652" x2="98.019" y2="97.461"/>
	<line style="fill:none;stroke:#000000;stroke-miterlimit:1;" x1="98.019" y1="97.461" x2="95.952" y2="99.529"/>
	<line style="fill:none;stroke:#000000;stroke-miterlimit:1;" x1="95.952" y1="99.529" x2="94.401" y2="101.338"/>
	<line style="fill:none;stroke:#000000;stroke-miterlimit:1;" x1="94.401" y1="101.338" x2="92.85" y2="103.664"/>
	<line style="fill:none;stroke:#000000;stroke-miterlimit:1;" x1="92.85" y1="103.664" x2="91.042" y2="107.023"/>
	<line style="fill:none;stroke:#000000;stroke-miterlimit:1;" x1="91.042" y1="107.023" x2="90.266" y2="109.607"/>
	<line style="fill:none;stroke:#000000;stroke-miterlimit:1;" x1="90.266" y1="109.607" x2="89.491" y2="112.451"/>
	<line style="fill:none;stroke:#000000;stroke-miterlimit:1;" x1="89.491" y1="112.451" x2="88.974" y2="115.293"/>
	<line style="fill:none;stroke:#000000;stroke-miterlimit:1;" x1="88.974" y1="115.293" x2="88.457" y2="118.652"/>
	<line style="fill:none;stroke:#000000;stroke-miterlimit:1;" x1="88.457" y1="118.652" x2="88.457" y2="121.496"/>
	<line style="fill:none;stroke:#000000;stroke-miterlimit:1;" x1="88.457" y1="121.496" x2="88.974" y2="124.855"/>
	<line style="fill:none;stroke:#000000;stroke-miterlimit:1;" x1="88.974" y1="124.855" x2="89.749" y2="127.697"/>
	<line style="fill:none;stroke:#000000;stroke-miterlimit:1;" x1="89.749" y1="127.697" x2="90.524" y2="130.283"/>
	<line style="fill:none;stroke:#000000;stroke-miterlimit:1;" x1="90.524" y1="130.283" x2="91.816" y2="133.125"/>
	<line style="fill:none;stroke:#000000;stroke-miterlimit:1;" x1="91.816" y1="133.125" x2="92.592" y2="134.676"/>
	<line style="fill:none;stroke:#000000;stroke-miterlimit:1;" x1="92.592" y1="134.676" x2="93.625" y2="135.969"/>
	<line style="fill:none;stroke:#000000;stroke-miterlimit:1;" x1="93.625" y1="135.969" x2="96.21" y2="138.811"/>
	<line style="fill:none;stroke:#000000;stroke-miterlimit:1;" x1="96.21" y1="138.811" x2="98.794" y2="141.395"/>
	<line style="fill:none;stroke:#000000;stroke-miterlimit:1;" x1="98.794" y1="141.395" x2="101.12" y2="143.205"/>
	<line style="fill:none;stroke:#000000;stroke-miterlimit:1;" x1="101.12" y1="143.205" x2="103.963" y2="144.754"/>
	<line style="fill:none;stroke:#000000;stroke-miterlimit:1;" x1="103.963" y1="144.754" x2="107.064" y2="146.305"/>
	<line style="fill:none;stroke:#000000;stroke-miterlimit:1;" x1="107.064" y1="146.305" x2="110.166" y2="147.08"/>
	<line style="fill:none;stroke:#000000;stroke-miterlimit:1;" x1="110.166" y1="147.08" x2="112.75" y2="147.855"/>
	<line style="fill:none;stroke:#000000;stroke-miterlimit:1;" x1="112.75" y1="147.855" x2="115.851" y2="147.855"/>
	<line style="fill:none;stroke:#000000;stroke-miterlimit:1;" x1="115.851" y1="147.855" x2="118.952" y2="148.115"/>
	<line style="fill:none;stroke:#000000;stroke-miterlimit:1;" x1="118.952" y1="148.115" x2="122.57" y2="147.598"/>
	<line style="fill:none;stroke:#000000;stroke-miterlimit:1;" x1="122.57" y1="147.598" x2="125.154" y2="147.08"/>
	<line style="fill:none;stroke:#000000;stroke-miterlimit:1;" x1="125.154" y1="147.08" x2="128.256" y2="145.789"/>
	<line style="fill:none;stroke:#000000;stroke-miterlimit:1;" x1="128.256" y1="145.789" x2="131.357" y2="144.238"/>
	<line style="fill:none;stroke:#000000;stroke-miterlimit:1;" x1="131.357" y1="144.238" x2="133.424" y2="143.205"/>
	<line style="fill:none;stroke:#000000;stroke-miterlimit:1;" x1="133.424" y1="143.205" x2="135.75" y2="141.137"/>
	<line style="fill:none;stroke:#000000;stroke-miterlimit:1;" x1="135.75" y1="141.137" x2="138.076" y2="139.068"/>
	<line style="fill:none;stroke:#000000;stroke-miterlimit:1;" x1="138.076" y1="139.068" x2="140.402" y2="136.744"/>
	<line style="fill:none;stroke:#000000;stroke-miterlimit:1;" x1="140.402" y1="136.744" x2="142.211" y2="133.9"/>
	<line style="fill:none;stroke:#000000;stroke-miterlimit:1;" x1="142.211" y1="133.9" x2="144.02" y2="131.316"/>
	<line style="fill:none;stroke:#000000;stroke-miterlimit:1;" x1="144.02" y1="131.316" x2="145.312" y2="128.732"/>
	<line style="fill:none;stroke:#000000;stroke-miterlimit:1;" x1="145.312" y1="128.732" x2="146.087" y2="125.631"/>
	<line style="fill:none;stroke:#000000;stroke-miterlimit:1;" x1="146.087" y1="125.631" x2="146.346" y2="122.787"/>
	<line style="fill:none;stroke:#000000;stroke-miterlimit:1;" x1="146.346" y1="122.787" x2="146.863" y2="119.428"/>
	<line style="fill:none;stroke:#000000;stroke-miterlimit:1;" x1="146.863" y1="119.428" x2="146.604" y2="116.586"/>
	<line style="fill:none;stroke:#000000;stroke-miterlimit:1;" x1="146.604" y1="116.586" x2="146.346" y2="113.227"/>
	<line style="fill:none;stroke:#000000;stroke-miterlimit:1;" x1="146.346" y1="113.227" x2="145.571" y2="110.383"/>
	<line style="fill:none;stroke:#000000;stroke-miterlimit:1;" x1="145.571" y1="110.383" x2="144.537" y2="107.799"/>
	<line style="fill:none;stroke:#000000;stroke-miterlimit:1;" x1="144.537" y1="107.799" x2="143.245" y2="104.439"/>
	<line style="fill:none;stroke:#000000;stroke-miterlimit:1;" x1="143.245" y1="104.439" x2="141.436" y2="101.855"/>
	<line style="fill:none;stroke:#000000;stroke-miterlimit:1;" x1="141.436" y1="101.855" x2="139.626" y2="99.787"/>
	<line style="fill:none;stroke:#000000;stroke-miterlimit:1;" x1="139.626" y1="99.787" x2="137.559" y2="97.203"/>
	<line style="fill:none;stroke:#000000;stroke-miterlimit:1;" x1="137.559" y1="97.203" x2="134.975" y2="95.395"/>
	<line style="fill:none;stroke:#000000;stroke-miterlimit:1;" x1="134.975" y1="95.395" x2="132.391" y2="93.586"/>
	<line style="fill:none;stroke:#000000;stroke-miterlimit:1;" x1="132.391" y1="93.586" x2="129.548" y2="92.293"/>
	<line style="fill:none;stroke:#000000;stroke-miterlimit:1;" x1="192.96" y1="106.971" x2="197.567" y2="118.492"/>
	<line style="fill:none;stroke:#000000;stroke-miterlimit:1;" x1="197.567" y1="118.492" x2="194.605" y2="119.15"/>
	<line style="fill:none;stroke:#000000;stroke-miterlimit:1;" x1="194.605" y1="119.15" x2="189.997" y2="106.971"/>
	<line style="fill:none;stroke:#000000;stroke-miterlimit:1;" x1="181.439" y1="81.957" x2="168.933" y2="44.435"/>
	<line style="fill:none;stroke:#000000;stroke-miterlimit:1;" x1="168.933" y1="44.435" x2="168.274" y2="39.168"/>
	<line style="fill:none;stroke:#000000;stroke-miterlimit:1;" x1="168.274" y1="39.168" x2="168.604" y2="35.876"/>
	<line style="fill:none;stroke:#000000;stroke-miterlimit:1;" x1="168.604" y1="35.876" x2="170.578" y2="33.573"/>
	<line style="fill:none;stroke:#000000;stroke-miterlimit:1;" x1="170.578" y1="33.573" x2="173.869" y2="31.598"/>
	<line style="fill:none;stroke:#000000;stroke-miterlimit:1;" x1="173.869" y1="31.598" x2="178.807" y2="30.281"/>
	<line style="fill:none;stroke:#000000;stroke-miterlimit:1;" x1="178.807" y1="30.281" x2="182.757" y2="30.939"/>
	<line style="fill:none;stroke:#000000;stroke-miterlimit:1;" x1="182.757" y1="30.939" x2="186.706" y2="33.573"/>
	<line style="fill:none;stroke:#000000;stroke-miterlimit:1;" x1="186.706" y1="33.573" x2="189.668" y2="38.839"/>
	<line style="fill:none;stroke:#000000;stroke-miterlimit:1;" x1="189.668" y1="38.839" x2="189.997" y2="44.435"/>
	<line style="fill:none;stroke:#000000;stroke-miterlimit:1;" x1="189.997" y1="44.435" x2="189.668" y2="46.738"/>
	<line style="fill:none;stroke:#000000;stroke-miterlimit:1;" x1="189.668" y1="46.738" x2="188.681" y2="49.701"/>
	<line style="fill:none;stroke:#000000;stroke-miterlimit:1;" x1="188.681" y1="49.701" x2="187.035" y2="51.675"/>
	<line style="fill:none;stroke:#000000;stroke-miterlimit:1;" x1="187.035" y1="51.675" x2="185.061" y2="51.017"/>
	<line style="fill:none;stroke:#000000;stroke-miterlimit:1;" x1="185.061" y1="51.017" x2="186.048" y2="47.396"/>
	<line style="fill:none;stroke:#000000;stroke-miterlimit:1;" x1="186.048" y1="47.396" x2="186.377" y2="44.764"/>
	<line style="fill:none;stroke:#000000;stroke-miterlimit:1;" x1="186.377" y1="44.764" x2="186.048" y2="41.801"/>
	<line style="fill:none;stroke:#000000;stroke-miterlimit:1;" x1="186.048" y1="41.801" x2="185.719" y2="40.156"/>
	<line style="fill:none;stroke:#000000;stroke-miterlimit:1;" x1="185.719" y1="40.156" x2="183.744" y2="36.864"/>
	<line style="fill:none;stroke:#000000;stroke-miterlimit:1;" x1="183.744" y1="36.864" x2="180.781" y2="34.56"/>
	<line style="fill:none;stroke:#000000;stroke-miterlimit:1;" x1="180.781" y1="34.56" x2="177.819" y2="34.56"/>
	<line style="fill:none;stroke:#000000;stroke-miterlimit:1;" x1="177.819" y1="34.56" x2="174.856" y2="35.218"/>
	<line style="fill:none;stroke:#000000;stroke-miterlimit:1;" x1="174.856" y1="35.218" x2="173.211" y2="37.193"/>
	<line style="fill:none;stroke:#000000;stroke-miterlimit:1;" x1="173.211" y1="37.193" x2="171.565" y2="40.485"/>
	<line style="fill:none;stroke:#000000;stroke-miterlimit:1;" x1="171.565" y1="40.485" x2="171.895" y2="43.118"/>
	<line style="fill:none;stroke:#000000;stroke-miterlimit:1;" x1="171.895" y1="43.118" x2="185.061" y2="81.957"/>
	<line style="fill:none;stroke:#000000;stroke-miterlimit:1;" x1="333.504" y1="103.68" x2="209.746" y2="103.68"/>
	<line style="fill:none;stroke:#000000;stroke-miterlimit:1;" x1="209.746" y1="103.68" x2="205.467" y2="104.01"/>
	<line style="fill:none;stroke:#000000;stroke-miterlimit:1;" x1="205.467" y1="104.01" x2="201.847" y2="104.996"/>
	<line style="fill:none;stroke:#000000;stroke-miterlimit:1;" x1="201.847" y1="104.996" x2="192.302" y2="106.971"/>
	<line style="fill:none;stroke:#000000;stroke-miterlimit:1;" x1="192.302" y1="106.971" x2="188.352" y2="106.971"/>
	<line style="fill:none;stroke:#000000;stroke-miterlimit:1;" x1="188.352" y1="106.971" x2="180.123" y2="106.971"/>
	<line style="fill:none;stroke:#000000;stroke-miterlimit:1;" x1="180.123" y1="106.971" x2="176.832" y2="105.326"/>
	<line style="fill:none;stroke:#000000;stroke-miterlimit:1;" x1="176.832" y1="105.326" x2="173.869" y2="103.68"/>
	<line style="fill:none;stroke:#000000;stroke-miterlimit:1;" x1="173.869" y1="103.68" x2="172.553" y2="102.363"/>
	<line style="fill:none;stroke:#000000;stroke-miterlimit:1;" x1="172.553" y1="102.363" x2="171.895" y2="99.072"/>
	<line style="fill:none;stroke:#000000;stroke-miterlimit:1;" x1="171.895" y1="99.072" x2="171.565" y2="93.807"/>
	<line style="fill:none;stroke:#000000;stroke-miterlimit:1;" x1="171.565" y1="93.807" x2="172.224" y2="89.855"/>
	<line style="fill:none;stroke:#000000;stroke-miterlimit:1;" x1="172.224" y1="89.855" x2="175.845" y2="87.223"/>
	<line style="fill:none;stroke:#000000;stroke-miterlimit:1;" x1="188.022" y1="87.553" x2="182.427" y2="87.881"/>
	<line style="fill:none;stroke:#000000;stroke-miterlimit:1;" x1="182.427" y1="87.881" x2="177.161" y2="87.553"/>
	<line style="fill:none;stroke:#000000;stroke-miterlimit:1;" x1="177.161" y1="87.553" x2="171.565" y2="85.906"/>
	<line style="fill:none;stroke:#000000;stroke-miterlimit:1;" x1="171.565" y1="85.906" x2="168.604" y2="83.932"/>
	<line style="fill:none;stroke:#000000;stroke-miterlimit:1;" x1="168.604" y1="83.932" x2="166.958" y2="81.957"/>
	<line style="fill:none;stroke:#000000;stroke-miterlimit:1;" x1="166.958" y1="81.957" x2="166.628" y2="79.982"/>
	<line style="fill:none;stroke:#000000;stroke-miterlimit:1;" x1="166.628" y1="79.982" x2="173.869" y2="81.957"/>
	<line style="fill:none;stroke:#000000;stroke-miterlimit:1;" x1="173.869" y1="81.957" x2="192.302" y2="82.285"/>
	<line style="fill:none;stroke:#000000;stroke-miterlimit:1;" x1="192.302" y1="82.285" x2="197.567" y2="83.932"/>
	<line style="fill:none;stroke:#000000;stroke-miterlimit:1;" x1="197.567" y1="83.932" x2="205.138" y2="90.514"/>
	<line style="fill:none;stroke:#000000;stroke-miterlimit:1;" x1="205.138" y1="90.514" x2="207.771" y2="90.844"/>
	<line style="fill:none;stroke:#000000;stroke-miterlimit:1;" x1="207.771" y1="90.844" x2="210.733" y2="90.186"/>
	<line style="fill:none;stroke:#000000;stroke-miterlimit:1;" x1="210.733" y1="90.186" x2="216.658" y2="88.869"/>
	<line style="fill:none;stroke:#000000;stroke-miterlimit:1;" x1="216.658" y1="88.869" x2="232.128" y2="85.906"/>
	<line style="fill:none;stroke:#000000;stroke-miterlimit:1;" x1="232.128" y1="85.906" x2="246.939" y2="83.932"/>
	<line style="fill:none;stroke:#000000;stroke-miterlimit:1;" x1="246.939" y1="83.932" x2="260.435" y2="83.602"/>
	<line style="fill:none;stroke:#000000;stroke-miterlimit:1;" x1="260.435" y1="83.602" x2="278.208" y2="84.918"/>
	<line style="fill:none;stroke:#000000;stroke-miterlimit:1;" x1="278.208" y1="84.918" x2="293.678" y2="86.895"/>
	<line style="fill:none;stroke:#000000;stroke-miterlimit:1;" x1="293.678" y1="86.895" x2="308.489" y2="90.186"/>
	<line style="fill:none;stroke:#000000;stroke-miterlimit:1;" x1="333.504" y1="103.68" x2="330.871" y2="41.143"/>
	<line style="fill:none;stroke:#000000;stroke-miterlimit:1;" x1="330.871" y1="41.143" x2="313.426" y2="41.143"/>
	<line style="fill:none;stroke:#000000;stroke-miterlimit:1;" x1="313.426" y1="41.143" x2="308.818" y2="90.186"/>
</g>
</svg>
