<?xml version="1.0" encoding="iso-8859-1"?>
<!-- Generator: Adobe Illustrator 16.0.1, SVG Export Plug-In . SVG Version: 6.00 Build 0)  -->
<!DOCTYPE svg PUBLIC "-//W3C//DTD SVG 1.1//EN" "http://www.w3.org/Graphics/SVG/1.1/DTD/svg11.dtd">
<svg version="1.1" id="Ebene_1" xmlns="http://www.w3.org/2000/svg" xmlns:xlink="http://www.w3.org/1999/xlink" x="0px" y="0px"
	 width="322.972px" height="148.115px" viewBox="0 0 322.972 148.115" style="enable-background:new 0 0 322.972 148.115;"
	 xml:space="preserve">
<g>
	<line style="fill:none;stroke:#000000;stroke-miterlimit:1;" x1="207.482" y1="137.277" x2="211.269" y2="146.744"/>
	<line style="fill:none;stroke:#000000;stroke-miterlimit:1;" x1="211.269" y1="146.744" x2="208.834" y2="147.285"/>
	<line style="fill:none;stroke:#000000;stroke-miterlimit:1;" x1="208.834" y1="147.285" x2="205.048" y2="137.277"/>
	<line style="fill:none;stroke:#000000;stroke-miterlimit:1;" x1="198.016" y1="116.723" x2="187.738" y2="85.889"/>
	<line style="fill:none;stroke:#000000;stroke-miterlimit:1;" x1="187.738" y1="85.889" x2="187.197" y2="81.562"/>
	<line style="fill:none;stroke:#000000;stroke-miterlimit:1;" x1="187.197" y1="81.562" x2="187.468" y2="78.857"/>
	<line style="fill:none;stroke:#000000;stroke-miterlimit:1;" x1="187.468" y1="78.857" x2="189.091" y2="76.965"/>
	<line style="fill:none;stroke:#000000;stroke-miterlimit:1;" x1="189.091" y1="76.965" x2="191.795" y2="75.342"/>
	<line style="fill:none;stroke:#000000;stroke-miterlimit:1;" x1="191.795" y1="75.342" x2="195.853" y2="74.259"/>
	<line style="fill:none;stroke:#000000;stroke-miterlimit:1;" x1="195.853" y1="74.259" x2="199.098" y2="74.8"/>
	<line style="fill:none;stroke:#000000;stroke-miterlimit:1;" x1="199.098" y1="74.8" x2="202.344" y2="76.965"/>
	<line style="fill:none;stroke:#000000;stroke-miterlimit:1;" x1="202.344" y1="76.965" x2="204.777" y2="81.291"/>
	<line style="fill:none;stroke:#000000;stroke-miterlimit:1;" x1="204.777" y1="81.291" x2="205.048" y2="85.889"/>
	<line style="fill:none;stroke:#000000;stroke-miterlimit:1;" x1="205.048" y1="85.889" x2="204.777" y2="87.783"/>
	<line style="fill:none;stroke:#000000;stroke-miterlimit:1;" x1="204.777" y1="87.783" x2="203.966" y2="90.217"/>
	<line style="fill:none;stroke:#000000;stroke-miterlimit:1;" x1="203.966" y1="90.217" x2="202.613" y2="91.84"/>
	<line style="fill:none;stroke:#000000;stroke-miterlimit:1;" x1="202.613" y1="91.84" x2="200.991" y2="91.299"/>
	<line style="fill:none;stroke:#000000;stroke-miterlimit:1;" x1="200.991" y1="91.299" x2="201.803" y2="88.324"/>
	<line style="fill:none;stroke:#000000;stroke-miterlimit:1;" x1="201.803" y1="88.324" x2="202.073" y2="86.16"/>
	<line style="fill:none;stroke:#000000;stroke-miterlimit:1;" x1="202.073" y1="86.16" x2="201.803" y2="83.727"/>
	<line style="fill:none;stroke:#000000;stroke-miterlimit:1;" x1="201.803" y1="83.727" x2="201.532" y2="82.373"/>
	<line style="fill:none;stroke:#000000;stroke-miterlimit:1;" x1="201.532" y1="82.373" x2="199.909" y2="79.668"/>
	<line style="fill:none;stroke:#000000;stroke-miterlimit:1;" x1="199.909" y1="79.668" x2="197.475" y2="77.775"/>
	<line style="fill:none;stroke:#000000;stroke-miterlimit:1;" x1="197.475" y1="77.775" x2="195.041" y2="77.775"/>
	<line style="fill:none;stroke:#000000;stroke-miterlimit:1;" x1="195.041" y1="77.775" x2="192.606" y2="78.316"/>
	<line style="fill:none;stroke:#000000;stroke-miterlimit:1;" x1="192.606" y1="78.316" x2="191.254" y2="79.939"/>
	<line style="fill:none;stroke:#000000;stroke-miterlimit:1;" x1="191.254" y1="79.939" x2="189.902" y2="82.645"/>
	<line style="fill:none;stroke:#000000;stroke-miterlimit:1;" x1="189.902" y1="82.645" x2="190.172" y2="84.807"/>
	<line style="fill:none;stroke:#000000;stroke-miterlimit:1;" x1="190.172" y1="84.807" x2="200.991" y2="116.723"/>
	<line style="fill:none;stroke:#000000;stroke-miterlimit:1;" x1="322.972" y1="134.574" x2="221.276" y2="134.574"/>
	<line style="fill:none;stroke:#000000;stroke-miterlimit:1;" x1="221.276" y1="134.574" x2="217.76" y2="134.844"/>
	<line style="fill:none;stroke:#000000;stroke-miterlimit:1;" x1="217.76" y1="134.844" x2="214.785" y2="135.656"/>
	<line style="fill:none;stroke:#000000;stroke-miterlimit:1;" x1="214.785" y1="135.656" x2="206.941" y2="137.277"/>
	<line style="fill:none;stroke:#000000;stroke-miterlimit:1;" x1="206.941" y1="137.277" x2="203.695" y2="137.277"/>
	<line style="fill:none;stroke:#000000;stroke-miterlimit:1;" x1="203.695" y1="137.277" x2="196.934" y2="137.277"/>
	<line style="fill:none;stroke:#000000;stroke-miterlimit:1;" x1="196.934" y1="137.277" x2="194.229" y2="135.926"/>
	<line style="fill:none;stroke:#000000;stroke-miterlimit:1;" x1="194.229" y1="135.926" x2="191.795" y2="134.574"/>
	<line style="fill:none;stroke:#000000;stroke-miterlimit:1;" x1="191.795" y1="134.574" x2="190.713" y2="133.492"/>
	<line style="fill:none;stroke:#000000;stroke-miterlimit:1;" x1="190.713" y1="133.492" x2="190.172" y2="130.787"/>
	<line style="fill:none;stroke:#000000;stroke-miterlimit:1;" x1="190.172" y1="130.787" x2="189.902" y2="126.459"/>
	<line style="fill:none;stroke:#000000;stroke-miterlimit:1;" x1="189.902" y1="126.459" x2="190.442" y2="123.213"/>
	<line style="fill:none;stroke:#000000;stroke-miterlimit:1;" x1="190.442" y1="123.213" x2="193.418" y2="121.051"/>
	<line style="fill:none;stroke:#000000;stroke-miterlimit:1;" x1="203.425" y1="121.32" x2="198.827" y2="121.592"/>
	<line style="fill:none;stroke:#000000;stroke-miterlimit:1;" x1="198.827" y1="121.592" x2="194.5" y2="121.32"/>
	<line style="fill:none;stroke:#000000;stroke-miterlimit:1;" x1="194.5" y1="121.32" x2="189.902" y2="119.969"/>
	<line style="fill:none;stroke:#000000;stroke-miterlimit:1;" x1="189.902" y1="119.969" x2="187.468" y2="118.346"/>
	<line style="fill:none;stroke:#000000;stroke-miterlimit:1;" x1="187.468" y1="118.346" x2="186.115" y2="116.723"/>
	<line style="fill:none;stroke:#000000;stroke-miterlimit:1;" x1="186.115" y1="116.723" x2="185.845" y2="115.1"/>
	<line style="fill:none;stroke:#000000;stroke-miterlimit:1;" x1="185.845" y1="115.1" x2="191.795" y2="116.723"/>
	<line style="fill:none;stroke:#000000;stroke-miterlimit:1;" x1="191.795" y1="116.723" x2="206.941" y2="116.992"/>
	<line style="fill:none;stroke:#000000;stroke-miterlimit:1;" x1="206.941" y1="116.992" x2="211.269" y2="118.346"/>
	<line style="fill:none;stroke:#000000;stroke-miterlimit:1;" x1="211.269" y1="118.346" x2="217.489" y2="123.754"/>
	<line style="fill:none;stroke:#000000;stroke-miterlimit:1;" x1="217.489" y1="123.754" x2="219.653" y2="124.025"/>
	<line style="fill:none;stroke:#000000;stroke-miterlimit:1;" x1="219.653" y1="124.025" x2="222.087" y2="123.484"/>
	<line style="fill:none;stroke:#000000;stroke-miterlimit:1;" x1="222.087" y1="123.484" x2="226.956" y2="122.402"/>
	<line style="fill:none;stroke:#000000;stroke-miterlimit:1;" x1="226.956" y1="122.402" x2="239.668" y2="119.969"/>
	<line style="fill:none;stroke:#000000;stroke-miterlimit:1;" x1="239.668" y1="119.969" x2="251.839" y2="118.346"/>
	<line style="fill:none;stroke:#000000;stroke-miterlimit:1;" x1="251.839" y1="118.346" x2="262.928" y2="118.074"/>
	<line style="fill:none;stroke:#000000;stroke-miterlimit:1;" x1="262.928" y1="118.074" x2="277.533" y2="119.156"/>
	<line style="fill:none;stroke:#000000;stroke-miterlimit:1;" x1="277.533" y1="119.156" x2="290.245" y2="120.779"/>
	<line style="fill:none;stroke:#000000;stroke-miterlimit:1;" x1="290.245" y1="120.779" x2="302.416" y2="123.484"/>
	<line style="fill:none;stroke:#000000;stroke-miterlimit:1;" x1="322.972" y1="134.574" x2="320.808" y2="83.186"/>
	<line style="fill:none;stroke:#000000;stroke-miterlimit:1;" x1="320.808" y1="83.186" x2="306.473" y2="83.186"/>
	<line style="fill:none;stroke:#000000;stroke-miterlimit:1;" x1="306.473" y1="83.186" x2="302.687" y2="123.484"/>
	<line style="fill:none;stroke:#000000;stroke-miterlimit:1;" x1="40.484" y1="59.246" x2="40.484" y2="148.115"/>
	<line style="fill:none;stroke:#000000;stroke-miterlimit:1;" x1="40.484" y1="148.115" x2="33.573" y2="148.115"/>
	<line style="fill:none;stroke:#000000;stroke-miterlimit:1;" x1="33.573" y1="148.115" x2="33.573" y2="59.246"/>
	<line style="fill:none;stroke:#000000;stroke-miterlimit:1;" x1="74.057" y1="59.246" x2="0" y2="59.246"/>
	<line style="fill:none;stroke:#000000;stroke-miterlimit:1;" x1="0" y1="59.246" x2="0" y2="35.876"/>
	<line style="fill:none;stroke:#000000;stroke-miterlimit:1;" x1="0" y1="35.876" x2="1.316" y2="33.244"/>
	<line style="fill:none;stroke:#000000;stroke-miterlimit:1;" x1="1.316" y1="33.244" x2="2.633" y2="31.598"/>
	<line style="fill:none;stroke:#000000;stroke-miterlimit:1;" x1="2.633" y1="31.598" x2="4.279" y2="31.598"/>
	<line style="fill:none;stroke:#000000;stroke-miterlimit:1;" x1="4.279" y1="31.598" x2="5.925" y2="31.598"/>
	<line style="fill:none;stroke:#000000;stroke-miterlimit:1;" x1="5.925" y1="31.598" x2="7.899" y2="31.927"/>
	<line style="fill:none;stroke:#000000;stroke-miterlimit:1;" x1="7.899" y1="31.927" x2="9.874" y2="33.244"/>
	<line style="fill:none;stroke:#000000;stroke-miterlimit:1;" x1="9.874" y1="33.244" x2="16.457" y2="39.168"/>
	<line style="fill:none;stroke:#000000;stroke-miterlimit:1;" x1="16.457" y1="39.168" x2="22.382" y2="44.435"/>
	<line style="fill:none;stroke:#000000;stroke-miterlimit:1;" x1="22.382" y1="44.435" x2="26.99" y2="46.738"/>
	<line style="fill:none;stroke:#000000;stroke-miterlimit:1;" x1="26.99" y1="46.738" x2="32.585" y2="48.055"/>
	<line style="fill:none;stroke:#000000;stroke-miterlimit:1;" x1="32.585" y1="48.055" x2="37.193" y2="48.384"/>
	<line style="fill:none;stroke:#000000;stroke-miterlimit:1;" x1="37.193" y1="48.384" x2="41.472" y2="48.055"/>
	<line style="fill:none;stroke:#000000;stroke-miterlimit:1;" x1="41.472" y1="48.055" x2="47.067" y2="46.738"/>
	<line style="fill:none;stroke:#000000;stroke-miterlimit:1;" x1="47.067" y1="46.738" x2="51.675" y2="44.435"/>
	<line style="fill:none;stroke:#000000;stroke-miterlimit:1;" x1="51.675" y1="44.435" x2="57.6" y2="39.168"/>
	<line style="fill:none;stroke:#000000;stroke-miterlimit:1;" x1="57.6" y1="39.168" x2="64.183" y2="33.244"/>
	<line style="fill:none;stroke:#000000;stroke-miterlimit:1;" x1="64.183" y1="33.244" x2="66.158" y2="31.927"/>
	<line style="fill:none;stroke:#000000;stroke-miterlimit:1;" x1="66.158" y1="31.927" x2="68.133" y2="31.598"/>
	<line style="fill:none;stroke:#000000;stroke-miterlimit:1;" x1="68.133" y1="31.598" x2="69.778" y2="31.598"/>
	<line style="fill:none;stroke:#000000;stroke-miterlimit:1;" x1="69.778" y1="31.598" x2="71.424" y2="31.598"/>
	<line style="fill:none;stroke:#000000;stroke-miterlimit:1;" x1="71.424" y1="31.598" x2="72.741" y2="33.244"/>
	<line style="fill:none;stroke:#000000;stroke-miterlimit:1;" x1="72.741" y1="33.244" x2="74.057" y2="35.876"/>
	<line style="fill:none;stroke:#000000;stroke-miterlimit:1;" x1="74.057" y1="35.876" x2="74.057" y2="59.246"/>
	<line style="fill:none;stroke:#000000;stroke-miterlimit:1;" x1="23.369" y1="44.435" x2="29.294" y2="5.596"/>
	<line style="fill:none;stroke:#000000;stroke-miterlimit:1;" x1="29.294" y1="5.596" x2="31.927" y2="2.304"/>
	<line style="fill:none;stroke:#000000;stroke-miterlimit:1;" x1="31.927" y1="2.304" x2="33.902" y2="0.988"/>
	<line style="fill:none;stroke:#000000;stroke-miterlimit:1;" x1="33.902" y1="0.988" x2="36.535" y2="0"/>
	<line style="fill:none;stroke:#000000;stroke-miterlimit:1;" x1="36.535" y1="0" x2="37.522" y2="0"/>
	<line style="fill:none;stroke:#000000;stroke-miterlimit:1;" x1="37.522" y1="0" x2="40.155" y2="0.988"/>
	<line style="fill:none;stroke:#000000;stroke-miterlimit:1;" x1="40.155" y1="0.988" x2="42.13" y2="2.304"/>
	<line style="fill:none;stroke:#000000;stroke-miterlimit:1;" x1="42.13" y1="2.304" x2="44.764" y2="5.596"/>
	<line style="fill:none;stroke:#000000;stroke-miterlimit:1;" x1="44.764" y1="5.596" x2="50.688" y2="44.435"/>
	<line style="fill:none;stroke:#000000;stroke-miterlimit:1;" x1="55.954" y1="37.852" x2="53.321" y2="37.522"/>
	<line style="fill:none;stroke:#000000;stroke-miterlimit:1;" x1="53.321" y1="37.522" x2="51.675" y2="36.206"/>
	<line style="fill:none;stroke:#000000;stroke-miterlimit:1;" x1="51.675" y1="36.206" x2="50.688" y2="34.56"/>
	<line style="fill:none;stroke:#000000;stroke-miterlimit:1;" x1="50.688" y1="34.56" x2="50.03" y2="32.915"/>
	<line style="fill:none;stroke:#000000;stroke-miterlimit:1;" x1="50.03" y1="32.915" x2="50.359" y2="29.952"/>
	<line style="fill:none;stroke:#000000;stroke-miterlimit:1;" x1="50.359" y1="29.952" x2="51.675" y2="27.977"/>
	<line style="fill:none;stroke:#000000;stroke-miterlimit:1;" x1="51.675" y1="27.977" x2="53.321" y2="26.99"/>
	<line style="fill:none;stroke:#000000;stroke-miterlimit:1;" x1="53.321" y1="26.99" x2="55.954" y2="26.332"/>
	<line style="fill:none;stroke:#000000;stroke-miterlimit:1;" x1="55.954" y1="26.332" x2="58.587" y2="26.661"/>
	<line style="fill:none;stroke:#000000;stroke-miterlimit:1;" x1="58.587" y1="26.661" x2="60.562" y2="27.977"/>
	<line style="fill:none;stroke:#000000;stroke-miterlimit:1;" x1="60.562" y1="27.977" x2="61.879" y2="29.952"/>
	<line style="fill:none;stroke:#000000;stroke-miterlimit:1;" x1="61.879" y1="29.952" x2="61.879" y2="31.927"/>
	<line style="fill:none;stroke:#000000;stroke-miterlimit:1;" x1="61.879" y1="31.927" x2="61.879" y2="34.231"/>
	<line style="fill:none;stroke:#000000;stroke-miterlimit:1;" x1="61.879" y1="34.231" x2="60.562" y2="35.876"/>
	<line style="fill:none;stroke:#000000;stroke-miterlimit:1;" x1="60.562" y1="35.876" x2="58.587" y2="37.522"/>
	<line style="fill:none;stroke:#000000;stroke-miterlimit:1;" x1="58.587" y1="37.522" x2="55.954" y2="37.852"/>
	<line style="fill:none;stroke:#000000;stroke-miterlimit:1;" x1="19.419" y1="37.522" x2="16.457" y2="37.522"/>
	<line style="fill:none;stroke:#000000;stroke-miterlimit:1;" x1="16.457" y1="37.522" x2="13.495" y2="35.876"/>
	<line style="fill:none;stroke:#000000;stroke-miterlimit:1;" x1="13.495" y1="35.876" x2="12.507" y2="33.902"/>
	<line style="fill:none;stroke:#000000;stroke-miterlimit:1;" x1="12.507" y1="33.902" x2="12.178" y2="32.256"/>
	<line style="fill:none;stroke:#000000;stroke-miterlimit:1;" x1="12.178" y1="32.256" x2="12.836" y2="29.294"/>
	<line style="fill:none;stroke:#000000;stroke-miterlimit:1;" x1="12.836" y1="29.294" x2="15.141" y2="26.99"/>
	<line style="fill:none;stroke:#000000;stroke-miterlimit:1;" x1="15.141" y1="26.99" x2="16.457" y2="26.332"/>
	<line style="fill:none;stroke:#000000;stroke-miterlimit:1;" x1="16.457" y1="26.332" x2="18.761" y2="26.332"/>
	<line style="fill:none;stroke:#000000;stroke-miterlimit:1;" x1="18.761" y1="26.332" x2="21.065" y2="26.661"/>
	<line style="fill:none;stroke:#000000;stroke-miterlimit:1;" x1="21.065" y1="26.661" x2="23.04" y2="27.977"/>
	<line style="fill:none;stroke:#000000;stroke-miterlimit:1;" x1="23.04" y1="27.977" x2="24.027" y2="30.281"/>
	<line style="fill:none;stroke:#000000;stroke-miterlimit:1;" x1="24.027" y1="30.281" x2="24.027" y2="32.256"/>
	<line style="fill:none;stroke:#000000;stroke-miterlimit:1;" x1="24.027" y1="32.256" x2="23.369" y2="34.889"/>
	<line style="fill:none;stroke:#000000;stroke-miterlimit:1;" x1="23.369" y1="34.889" x2="22.382" y2="36.535"/>
	<line style="fill:none;stroke:#000000;stroke-miterlimit:1;" x1="22.382" y1="36.535" x2="20.736" y2="37.193"/>
	<line style="fill:none;stroke:#000000;stroke-miterlimit:1;" x1="20.736" y1="37.193" x2="19.419" y2="37.522"/>
	<line style="fill:none;stroke:#000000;stroke-miterlimit:1;" x1="42.789" y1="59.575" x2="52.333" y2="88.539"/>
	<line style="fill:none;stroke:#000000;stroke-miterlimit:1;" x1="52.333" y1="88.539" x2="52.992" y2="91.502"/>
	<line style="fill:none;stroke:#000000;stroke-miterlimit:1;" x1="52.992" y1="91.502" x2="52.992" y2="95.451"/>
	<line style="fill:none;stroke:#000000;stroke-miterlimit:1;" x1="52.992" y1="95.451" x2="51.675" y2="98.414"/>
	<line style="fill:none;stroke:#000000;stroke-miterlimit:1;" x1="51.675" y1="98.414" x2="49.701" y2="100.389"/>
	<line style="fill:none;stroke:#000000;stroke-miterlimit:1;" x1="49.701" y1="100.389" x2="47.726" y2="101.705"/>
	<line style="fill:none;stroke:#000000;stroke-miterlimit:1;" x1="47.726" y1="101.705" x2="40.484" y2="102.693"/>
	<line style="fill:none;stroke:#000000;stroke-miterlimit:1;" x1="33.573" y1="102.693" x2="26.661" y2="101.705"/>
	<line style="fill:none;stroke:#000000;stroke-miterlimit:1;" x1="26.661" y1="101.705" x2="23.369" y2="99.4"/>
	<line style="fill:none;stroke:#000000;stroke-miterlimit:1;" x1="23.369" y1="99.4" x2="21.394" y2="95.451"/>
	<line style="fill:none;stroke:#000000;stroke-miterlimit:1;" x1="21.394" y1="95.451" x2="21.394" y2="90.844"/>
	<line style="fill:none;stroke:#000000;stroke-miterlimit:1;" x1="21.394" y1="90.844" x2="31.598" y2="59.575"/>
	<line style="fill:none;stroke:#000000;stroke-miterlimit:1;" x1="156.507" y1="0.329" x2="154.862" y2="33.573"/>
	<line style="fill:none;stroke:#000000;stroke-miterlimit:1;" x1="154.862" y1="33.573" x2="154.204" y2="61.879"/>
	<line style="fill:none;stroke:#000000;stroke-miterlimit:1;" x1="154.204" y1="61.879" x2="153.545" y2="83.602"/>
	<line style="fill:none;stroke:#000000;stroke-miterlimit:1;" x1="153.545" y1="83.602" x2="151.899" y2="99.072"/>
	<line style="fill:none;stroke:#000000;stroke-miterlimit:1;" x1="151.899" y1="99.072" x2="150.583" y2="113.883"/>
	<line style="fill:none;stroke:#000000;stroke-miterlimit:1;" x1="150.583" y1="113.883" x2="151.241" y2="129.682"/>
	<line style="fill:none;stroke:#000000;stroke-miterlimit:1;" x1="151.241" y1="129.682" x2="152.229" y2="134.619"/>
	<line style="fill:none;stroke:#000000;stroke-miterlimit:1;" x1="152.229" y1="134.619" x2="152.887" y2="138.568"/>
	<line style="fill:none;stroke:#000000;stroke-miterlimit:1;" x1="152.887" y1="138.568" x2="152.558" y2="142.52"/>
	<line style="fill:none;stroke:#000000;stroke-miterlimit:1;" x1="152.558" y1="142.52" x2="150.583" y2="145.152"/>
	<line style="fill:none;stroke:#000000;stroke-miterlimit:1;" x1="150.583" y1="145.152" x2="147.621" y2="147.127"/>
	<line style="fill:none;stroke:#000000;stroke-miterlimit:1;" x1="147.621" y1="147.127" x2="144" y2="147.785"/>
	<line style="fill:none;stroke:#000000;stroke-miterlimit:1;" x1="144" y1="147.785" x2="137.417" y2="146.139"/>
	<line style="fill:none;stroke:#000000;stroke-miterlimit:1;" x1="137.417" y1="146.139" x2="134.784" y2="144.164"/>
	<line style="fill:none;stroke:#000000;stroke-miterlimit:1;" x1="134.784" y1="144.164" x2="130.505" y2="143.178"/>
	<line style="fill:none;stroke:#000000;stroke-miterlimit:1;" x1="130.505" y1="143.178" x2="120.631" y2="148.115"/>
	<line style="fill:none;stroke:#000000;stroke-miterlimit:1;" x1="120.631" y1="148.115" x2="79.817" y2="147.785"/>
	<line style="fill:none;stroke:#000000;stroke-miterlimit:1;" x1="79.817" y1="147.785" x2="78.171" y2="142.52"/>
	<line style="fill:none;stroke:#000000;stroke-miterlimit:1;" x1="78.171" y1="142.52" x2="79.488" y2="139.887"/>
	<line style="fill:none;stroke:#000000;stroke-miterlimit:1;" x1="79.488" y1="139.887" x2="83.108" y2="139.229"/>
	<line style="fill:none;stroke:#000000;stroke-miterlimit:1;" x1="83.108" y1="139.229" x2="97.262" y2="136.266"/>
	<line style="fill:none;stroke:#000000;stroke-miterlimit:1;" x1="97.262" y1="136.266" x2="109.111" y2="130.34"/>
	<line style="fill:none;stroke:#000000;stroke-miterlimit:1;" x1="109.111" y1="130.34" x2="117.01" y2="127.379"/>
	<line style="fill:none;stroke:#000000;stroke-miterlimit:1;" x1="117.01" y1="127.379" x2="123.922" y2="125.732"/>
	<line style="fill:none;stroke:#000000;stroke-miterlimit:1;" x1="123.922" y1="125.732" x2="128.859" y2="121.453"/>
	<line style="fill:none;stroke:#000000;stroke-miterlimit:1;" x1="128.859" y1="121.453" x2="130.505" y2="117.176"/>
	<line style="fill:none;stroke:#000000;stroke-miterlimit:1;" x1="130.505" y1="117.176" x2="130.834" y2="112.566"/>
	<line style="fill:none;stroke:#000000;stroke-miterlimit:1;" x1="130.834" y1="112.566" x2="130.176" y2="105.654"/>
	<line style="fill:none;stroke:#000000;stroke-miterlimit:1;" x1="130.176" y1="105.654" x2="129.847" y2="96.439"/>
	<line style="fill:none;stroke:#000000;stroke-miterlimit:1;" x1="129.847" y1="96.439" x2="129.188" y2="71.424"/>
	<line style="fill:none;stroke:#000000;stroke-miterlimit:1;" x1="129.188" y1="71.424" x2="128.859" y2="46.409"/>
	<line style="fill:none;stroke:#000000;stroke-miterlimit:1;" x1="128.859" y1="46.409" x2="126.226" y2="0"/>
	<line style="fill:none;stroke:#000000;stroke-miterlimit:1;" x1="126.226" y1="0" x2="156.507" y2="0"/>
	<line style="fill:none;stroke:#000000;stroke-miterlimit:1;" x1="200.281" y1="64.117" x2="235.441" y2="30.309"/>
	<line style="fill:none;stroke:#000000;stroke-miterlimit:1;" x1="187.569" y1="59.249" x2="230.844" y2="17.867"/>
	<line style="fill:none;stroke:#000000;stroke-miterlimit:1;" x1="179.185" y1="50.323" x2="222.459" y2="8.942"/>
	<line style="fill:none;stroke:#000000;stroke-miterlimit:1;" x1="174.857" y1="37.611" x2="209.477" y2="4.614"/>
	<line style="fill:none;stroke:#000000;stroke-miterlimit:1;" x1="217.861" y1="6.507" x2="214.887" y2="5.696"/>
	<line style="fill:none;stroke:#000000;stroke-miterlimit:1;" x1="214.887" y1="5.696" x2="211.911" y2="4.614"/>
	<line style="fill:none;stroke:#000000;stroke-miterlimit:1;" x1="211.911" y1="4.614" x2="208.665" y2="4.073"/>
	<line style="fill:none;stroke:#000000;stroke-miterlimit:1;" x1="208.665" y1="4.073" x2="205.42" y2="4.073"/>
	<line style="fill:none;stroke:#000000;stroke-miterlimit:1;" x1="205.42" y1="4.073" x2="201.904" y2="4.344"/>
	<line style="fill:none;stroke:#000000;stroke-miterlimit:1;" x1="201.904" y1="4.344" x2="198.929" y2="4.614"/>
	<line style="fill:none;stroke:#000000;stroke-miterlimit:1;" x1="198.929" y1="4.614" x2="195.684" y2="5.696"/>
	<line style="fill:none;stroke:#000000;stroke-miterlimit:1;" x1="195.684" y1="5.696" x2="192.708" y2="6.778"/>
	<line style="fill:none;stroke:#000000;stroke-miterlimit:1;" x1="192.708" y1="6.778" x2="189.732" y2="8.13"/>
	<line style="fill:none;stroke:#000000;stroke-miterlimit:1;" x1="189.732" y1="8.13" x2="187.028" y2="10.023"/>
	<line style="fill:none;stroke:#000000;stroke-miterlimit:1;" x1="187.028" y1="10.023" x2="184.864" y2="11.917"/>
	<line style="fill:none;stroke:#000000;stroke-miterlimit:1;" x1="184.864" y1="11.917" x2="182.701" y2="14.081"/>
	<line style="fill:none;stroke:#000000;stroke-miterlimit:1;" x1="182.701" y1="14.081" x2="181.078" y2="15.974"/>
	<line style="fill:none;stroke:#000000;stroke-miterlimit:1;" x1="181.078" y1="15.974" x2="179.455" y2="18.408"/>
	<line style="fill:none;stroke:#000000;stroke-miterlimit:1;" x1="179.455" y1="18.408" x2="177.562" y2="21.924"/>
	<line style="fill:none;stroke:#000000;stroke-miterlimit:1;" x1="177.562" y1="21.924" x2="176.75" y2="24.629"/>
	<line style="fill:none;stroke:#000000;stroke-miterlimit:1;" x1="176.75" y1="24.629" x2="175.939" y2="27.604"/>
	<line style="fill:none;stroke:#000000;stroke-miterlimit:1;" x1="175.939" y1="27.604" x2="175.398" y2="30.579"/>
	<line style="fill:none;stroke:#000000;stroke-miterlimit:1;" x1="175.398" y1="30.579" x2="174.857" y2="34.095"/>
	<line style="fill:none;stroke:#000000;stroke-miterlimit:1;" x1="174.857" y1="34.095" x2="174.857" y2="37.07"/>
	<line style="fill:none;stroke:#000000;stroke-miterlimit:1;" x1="174.857" y1="37.07" x2="175.398" y2="40.586"/>
	<line style="fill:none;stroke:#000000;stroke-miterlimit:1;" x1="175.398" y1="40.586" x2="176.209" y2="43.562"/>
	<line style="fill:none;stroke:#000000;stroke-miterlimit:1;" x1="176.209" y1="43.562" x2="177.021" y2="46.266"/>
	<line style="fill:none;stroke:#000000;stroke-miterlimit:1;" x1="177.021" y1="46.266" x2="178.373" y2="49.241"/>
	<line style="fill:none;stroke:#000000;stroke-miterlimit:1;" x1="178.373" y1="49.241" x2="179.185" y2="50.864"/>
	<line style="fill:none;stroke:#000000;stroke-miterlimit:1;" x1="179.185" y1="50.864" x2="180.267" y2="52.216"/>
	<line style="fill:none;stroke:#000000;stroke-miterlimit:1;" x1="180.267" y1="52.216" x2="182.971" y2="55.191"/>
	<line style="fill:none;stroke:#000000;stroke-miterlimit:1;" x1="182.971" y1="55.191" x2="185.676" y2="57.896"/>
	<line style="fill:none;stroke:#000000;stroke-miterlimit:1;" x1="185.676" y1="57.896" x2="188.11" y2="59.79"/>
	<line style="fill:none;stroke:#000000;stroke-miterlimit:1;" x1="188.11" y1="59.79" x2="191.085" y2="61.412"/>
	<line style="fill:none;stroke:#000000;stroke-miterlimit:1;" x1="191.085" y1="61.412" x2="194.331" y2="63.035"/>
	<line style="fill:none;stroke:#000000;stroke-miterlimit:1;" x1="194.331" y1="63.035" x2="197.576" y2="63.846"/>
	<line style="fill:none;stroke:#000000;stroke-miterlimit:1;" x1="197.576" y1="63.846" x2="200.281" y2="64.658"/>
	<line style="fill:none;stroke:#000000;stroke-miterlimit:1;" x1="200.281" y1="64.658" x2="203.526" y2="64.658"/>
	<line style="fill:none;stroke:#000000;stroke-miterlimit:1;" x1="203.526" y1="64.658" x2="206.772" y2="64.928"/>
	<line style="fill:none;stroke:#000000;stroke-miterlimit:1;" x1="206.772" y1="64.928" x2="210.559" y2="64.387"/>
	<line style="fill:none;stroke:#000000;stroke-miterlimit:1;" x1="210.559" y1="64.387" x2="213.264" y2="63.846"/>
	<line style="fill:none;stroke:#000000;stroke-miterlimit:1;" x1="213.264" y1="63.846" x2="216.509" y2="62.494"/>
	<line style="fill:none;stroke:#000000;stroke-miterlimit:1;" x1="216.509" y1="62.494" x2="219.755" y2="60.871"/>
	<line style="fill:none;stroke:#000000;stroke-miterlimit:1;" x1="219.755" y1="60.871" x2="221.918" y2="59.79"/>
	<line style="fill:none;stroke:#000000;stroke-miterlimit:1;" x1="221.918" y1="59.79" x2="224.353" y2="57.625"/>
	<line style="fill:none;stroke:#000000;stroke-miterlimit:1;" x1="224.353" y1="57.625" x2="226.787" y2="55.462"/>
	<line style="fill:none;stroke:#000000;stroke-miterlimit:1;" x1="226.787" y1="55.462" x2="229.221" y2="53.028"/>
	<line style="fill:none;stroke:#000000;stroke-miterlimit:1;" x1="229.221" y1="53.028" x2="231.114" y2="50.053"/>
	<line style="fill:none;stroke:#000000;stroke-miterlimit:1;" x1="231.114" y1="50.053" x2="233.008" y2="47.348"/>
	<line style="fill:none;stroke:#000000;stroke-miterlimit:1;" x1="233.008" y1="47.348" x2="234.359" y2="44.643"/>
	<line style="fill:none;stroke:#000000;stroke-miterlimit:1;" x1="234.359" y1="44.643" x2="235.171" y2="41.398"/>
	<line style="fill:none;stroke:#000000;stroke-miterlimit:1;" x1="235.171" y1="41.398" x2="235.441" y2="38.422"/>
	<line style="fill:none;stroke:#000000;stroke-miterlimit:1;" x1="235.441" y1="38.422" x2="235.982" y2="34.907"/>
	<line style="fill:none;stroke:#000000;stroke-miterlimit:1;" x1="235.982" y1="34.907" x2="235.712" y2="31.931"/>
	<line style="fill:none;stroke:#000000;stroke-miterlimit:1;" x1="235.712" y1="31.931" x2="235.441" y2="28.416"/>
	<line style="fill:none;stroke:#000000;stroke-miterlimit:1;" x1="235.441" y1="28.416" x2="234.63" y2="25.44"/>
	<line style="fill:none;stroke:#000000;stroke-miterlimit:1;" x1="234.63" y1="25.44" x2="233.549" y2="22.735"/>
	<line style="fill:none;stroke:#000000;stroke-miterlimit:1;" x1="233.549" y1="22.735" x2="232.196" y2="19.219"/>
	<line style="fill:none;stroke:#000000;stroke-miterlimit:1;" x1="232.196" y1="19.219" x2="230.303" y2="16.515"/>
	<line style="fill:none;stroke:#000000;stroke-miterlimit:1;" x1="230.303" y1="16.515" x2="228.409" y2="14.351"/>
	<line style="fill:none;stroke:#000000;stroke-miterlimit:1;" x1="228.409" y1="14.351" x2="226.246" y2="11.646"/>
	<line style="fill:none;stroke:#000000;stroke-miterlimit:1;" x1="226.246" y1="11.646" x2="223.541" y2="9.753"/>
	<line style="fill:none;stroke:#000000;stroke-miterlimit:1;" x1="223.541" y1="9.753" x2="220.837" y2="7.86"/>
	<line style="fill:none;stroke:#000000;stroke-miterlimit:1;" x1="220.837" y1="7.86" x2="217.861" y2="6.507"/>
	<line style="fill:none;stroke:#000000;stroke-miterlimit:1;" x1="256.843" y1="5.797" x2="278.479" y2="54.481"/>
	<line style="fill:none;stroke:#000000;stroke-miterlimit:1;" x1="278.479" y1="54.481" x2="289.299" y2="54.481"/>
	<line style="fill:none;stroke:#000000;stroke-miterlimit:1;" x1="289.299" y1="54.481" x2="267.661" y2="5.797"/>
	<line style="fill:none;stroke:#000000;stroke-miterlimit:1;" x1="267.661" y1="5.797" x2="256.843" y2="5.797"/>
	<line style="fill:none;stroke:#000000;stroke-miterlimit:1;" x1="289.568" y1="5.797" x2="311.206" y2="54.481"/>
	<line style="fill:none;stroke:#000000;stroke-miterlimit:1;" x1="311.206" y1="54.481" x2="322.024" y2="54.481"/>
	<line style="fill:none;stroke:#000000;stroke-miterlimit:1;" x1="322.024" y1="54.481" x2="300.388" y2="5.797"/>
	<line style="fill:none;stroke:#000000;stroke-miterlimit:1;" x1="300.388" y1="5.797" x2="289.568" y2="5.797"/>
</g>
</svg>
