<?xml version="1.0" encoding="iso-8859-1"?>
<!-- Generator: Adobe Illustrator 16.0.1, SVG Export Plug-In . SVG Version: 6.00 Build 0)  -->
<!DOCTYPE svg PUBLIC "-//W3C//DTD SVG 1.1//EN" "http://www.w3.org/Graphics/SVG/1.1/DTD/svg11.dtd">
<svg version="1.1" id="Ebene_1" xmlns="http://www.w3.org/2000/svg" xmlns:xlink="http://www.w3.org/1999/xlink" x="0px" y="0px"
	 width="394.107px" height="148.114px" viewBox="0 0 394.107 148.114" style="enable-background:new 0 0 394.107 148.114;"
	 xml:space="preserve">
<g>
	<line style="fill:none;stroke:#000000;stroke-miterlimit:1;" x1="242.907" y1="0.329" x2="241.262" y2="33.572"/>
	<line style="fill:none;stroke:#000000;stroke-miterlimit:1;" x1="241.262" y1="33.572" x2="240.604" y2="61.879"/>
	<line style="fill:none;stroke:#000000;stroke-miterlimit:1;" x1="240.604" y1="61.879" x2="239.945" y2="83.603"/>
	<line style="fill:none;stroke:#000000;stroke-miterlimit:1;" x1="239.945" y1="83.603" x2="238.299" y2="99.072"/>
	<line style="fill:none;stroke:#000000;stroke-miterlimit:1;" x1="238.299" y1="99.072" x2="236.982" y2="113.884"/>
	<line style="fill:none;stroke:#000000;stroke-miterlimit:1;" x1="236.982" y1="113.884" x2="237.641" y2="129.683"/>
	<line style="fill:none;stroke:#000000;stroke-miterlimit:1;" x1="237.641" y1="129.683" x2="238.629" y2="134.619"/>
	<line style="fill:none;stroke:#000000;stroke-miterlimit:1;" x1="238.629" y1="134.619" x2="239.287" y2="138.569"/>
	<line style="fill:none;stroke:#000000;stroke-miterlimit:1;" x1="239.287" y1="138.569" x2="238.958" y2="142.519"/>
	<line style="fill:none;stroke:#000000;stroke-miterlimit:1;" x1="238.958" y1="142.519" x2="236.982" y2="145.151"/>
	<line style="fill:none;stroke:#000000;stroke-miterlimit:1;" x1="236.982" y1="145.151" x2="234.021" y2="147.127"/>
	<line style="fill:none;stroke:#000000;stroke-miterlimit:1;" x1="234.021" y1="147.127" x2="230.4" y2="147.785"/>
	<line style="fill:none;stroke:#000000;stroke-miterlimit:1;" x1="230.4" y1="147.785" x2="223.817" y2="146.14"/>
	<line style="fill:none;stroke:#000000;stroke-miterlimit:1;" x1="223.817" y1="146.14" x2="221.184" y2="144.164"/>
	<line style="fill:none;stroke:#000000;stroke-miterlimit:1;" x1="221.184" y1="144.164" x2="216.905" y2="143.177"/>
	<line style="fill:none;stroke:#000000;stroke-miterlimit:1;" x1="216.905" y1="143.177" x2="207.031" y2="148.114"/>
	<line style="fill:none;stroke:#000000;stroke-miterlimit:1;" x1="207.031" y1="148.114" x2="166.217" y2="147.785"/>
	<line style="fill:none;stroke:#000000;stroke-miterlimit:1;" x1="166.217" y1="147.785" x2="164.571" y2="142.519"/>
	<line style="fill:none;stroke:#000000;stroke-miterlimit:1;" x1="164.571" y1="142.519" x2="165.888" y2="139.886"/>
	<line style="fill:none;stroke:#000000;stroke-miterlimit:1;" x1="165.888" y1="139.886" x2="169.508" y2="139.228"/>
	<line style="fill:none;stroke:#000000;stroke-miterlimit:1;" x1="169.508" y1="139.228" x2="183.662" y2="136.265"/>
	<line style="fill:none;stroke:#000000;stroke-miterlimit:1;" x1="183.662" y1="136.265" x2="195.511" y2="130.341"/>
	<line style="fill:none;stroke:#000000;stroke-miterlimit:1;" x1="195.511" y1="130.341" x2="203.41" y2="127.378"/>
	<line style="fill:none;stroke:#000000;stroke-miterlimit:1;" x1="203.41" y1="127.378" x2="210.322" y2="125.732"/>
	<line style="fill:none;stroke:#000000;stroke-miterlimit:1;" x1="210.322" y1="125.732" x2="215.26" y2="121.453"/>
	<line style="fill:none;stroke:#000000;stroke-miterlimit:1;" x1="215.26" y1="121.453" x2="216.905" y2="117.175"/>
	<line style="fill:none;stroke:#000000;stroke-miterlimit:1;" x1="216.905" y1="117.175" x2="217.234" y2="112.566"/>
	<line style="fill:none;stroke:#000000;stroke-miterlimit:1;" x1="217.234" y1="112.566" x2="216.576" y2="105.654"/>
	<line style="fill:none;stroke:#000000;stroke-miterlimit:1;" x1="216.576" y1="105.654" x2="216.247" y2="96.438"/>
	<line style="fill:none;stroke:#000000;stroke-miterlimit:1;" x1="216.247" y1="96.438" x2="215.589" y2="71.424"/>
	<line style="fill:none;stroke:#000000;stroke-miterlimit:1;" x1="215.589" y1="71.424" x2="215.26" y2="46.409"/>
	<line style="fill:none;stroke:#000000;stroke-miterlimit:1;" x1="215.26" y1="46.409" x2="212.626" y2="0"/>
	<line style="fill:none;stroke:#000000;stroke-miterlimit:1;" x1="212.626" y1="0" x2="242.907" y2="0"/>
	<line style="fill:none;stroke:#000000;stroke-miterlimit:1;" x1="33.572" y1="59.575" x2="33.572" y2="148.114"/>
	<line style="fill:none;stroke:#000000;stroke-miterlimit:1;" x1="33.572" y1="148.114" x2="40.484" y2="148.114"/>
	<line style="fill:none;stroke:#000000;stroke-miterlimit:1;" x1="40.484" y1="148.114" x2="40.484" y2="59.575"/>
	<line style="fill:none;stroke:#000000;stroke-miterlimit:1;" x1="0" y1="59.246" x2="74.057" y2="59.246"/>
	<line style="fill:none;stroke:#000000;stroke-miterlimit:1;" x1="74.057" y1="59.246" x2="74.057" y2="35.876"/>
	<line style="fill:none;stroke:#000000;stroke-miterlimit:1;" x1="74.057" y1="35.876" x2="72.74" y2="33.243"/>
	<line style="fill:none;stroke:#000000;stroke-miterlimit:1;" x1="72.74" y1="33.243" x2="71.424" y2="31.598"/>
	<line style="fill:none;stroke:#000000;stroke-miterlimit:1;" x1="71.424" y1="31.598" x2="69.778" y2="31.598"/>
	<line style="fill:none;stroke:#000000;stroke-miterlimit:1;" x1="69.778" y1="31.598" x2="68.132" y2="31.598"/>
	<line style="fill:none;stroke:#000000;stroke-miterlimit:1;" x1="68.132" y1="31.598" x2="66.158" y2="31.927"/>
	<line style="fill:none;stroke:#000000;stroke-miterlimit:1;" x1="66.158" y1="31.927" x2="64.183" y2="33.243"/>
	<line style="fill:none;stroke:#000000;stroke-miterlimit:1;" x1="64.183" y1="33.243" x2="57.6" y2="39.168"/>
	<line style="fill:none;stroke:#000000;stroke-miterlimit:1;" x1="57.6" y1="39.168" x2="51.675" y2="44.434"/>
	<line style="fill:none;stroke:#000000;stroke-miterlimit:1;" x1="51.675" y1="44.434" x2="47.067" y2="46.738"/>
	<line style="fill:none;stroke:#000000;stroke-miterlimit:1;" x1="47.067" y1="46.738" x2="41.472" y2="48.055"/>
	<line style="fill:none;stroke:#000000;stroke-miterlimit:1;" x1="41.472" y1="48.055" x2="36.864" y2="48.384"/>
	<line style="fill:none;stroke:#000000;stroke-miterlimit:1;" x1="36.864" y1="48.384" x2="32.585" y2="48.055"/>
	<line style="fill:none;stroke:#000000;stroke-miterlimit:1;" x1="32.585" y1="48.055" x2="26.99" y2="46.738"/>
	<line style="fill:none;stroke:#000000;stroke-miterlimit:1;" x1="26.99" y1="46.738" x2="22.382" y2="44.434"/>
	<line style="fill:none;stroke:#000000;stroke-miterlimit:1;" x1="22.382" y1="44.434" x2="16.457" y2="39.168"/>
	<line style="fill:none;stroke:#000000;stroke-miterlimit:1;" x1="16.457" y1="39.168" x2="9.874" y2="33.243"/>
	<line style="fill:none;stroke:#000000;stroke-miterlimit:1;" x1="9.874" y1="33.243" x2="7.899" y2="31.927"/>
	<line style="fill:none;stroke:#000000;stroke-miterlimit:1;" x1="7.899" y1="31.927" x2="5.924" y2="31.598"/>
	<line style="fill:none;stroke:#000000;stroke-miterlimit:1;" x1="5.924" y1="31.598" x2="4.279" y2="31.598"/>
	<line style="fill:none;stroke:#000000;stroke-miterlimit:1;" x1="4.279" y1="31.598" x2="2.633" y2="31.598"/>
	<line style="fill:none;stroke:#000000;stroke-miterlimit:1;" x1="2.633" y1="31.598" x2="1.316" y2="33.243"/>
	<line style="fill:none;stroke:#000000;stroke-miterlimit:1;" x1="1.316" y1="33.243" x2="0" y2="35.876"/>
	<line style="fill:none;stroke:#000000;stroke-miterlimit:1;" x1="0" y1="35.876" x2="0" y2="59.246"/>
	<line style="fill:none;stroke:#000000;stroke-miterlimit:1;" x1="50.688" y1="44.434" x2="44.763" y2="5.595"/>
	<line style="fill:none;stroke:#000000;stroke-miterlimit:1;" x1="44.763" y1="5.595" x2="42.13" y2="2.304"/>
	<line style="fill:none;stroke:#000000;stroke-miterlimit:1;" x1="42.13" y1="2.304" x2="40.155" y2="0.987"/>
	<line style="fill:none;stroke:#000000;stroke-miterlimit:1;" x1="40.155" y1="0.987" x2="37.522" y2="0"/>
	<line style="fill:none;stroke:#000000;stroke-miterlimit:1;" x1="37.522" y1="0" x2="36.535" y2="0"/>
	<line style="fill:none;stroke:#000000;stroke-miterlimit:1;" x1="36.535" y1="0" x2="33.901" y2="0.987"/>
	<line style="fill:none;stroke:#000000;stroke-miterlimit:1;" x1="33.901" y1="0.987" x2="31.927" y2="2.304"/>
	<line style="fill:none;stroke:#000000;stroke-miterlimit:1;" x1="31.927" y1="2.304" x2="29.293" y2="5.595"/>
	<line style="fill:none;stroke:#000000;stroke-miterlimit:1;" x1="29.293" y1="5.595" x2="23.369" y2="44.434"/>
	<line style="fill:none;stroke:#000000;stroke-miterlimit:1;" x1="118.368" y1="111.086" x2="161.156" y2="69.943"/>
	<line style="fill:none;stroke:#000000;stroke-miterlimit:1;" x1="102.898" y1="105.161" x2="155.561" y2="54.802"/>
	<line style="fill:none;stroke:#000000;stroke-miterlimit:1;" x1="92.695" y1="94.299" x2="145.357" y2="43.94"/>
	<line style="fill:none;stroke:#000000;stroke-miterlimit:1;" x1="87.429" y1="78.829" x2="129.559" y2="38.674"/>
	<line style="fill:none;stroke:#000000;stroke-miterlimit:1;" x1="139.762" y1="40.978" x2="136.142" y2="39.991"/>
	<line style="fill:none;stroke:#000000;stroke-miterlimit:1;" x1="136.142" y1="39.991" x2="132.521" y2="38.674"/>
	<line style="fill:none;stroke:#000000;stroke-miterlimit:1;" x1="132.521" y1="38.674" x2="128.571" y2="38.016"/>
	<line style="fill:none;stroke:#000000;stroke-miterlimit:1;" x1="128.571" y1="38.016" x2="124.622" y2="38.016"/>
	<line style="fill:none;stroke:#000000;stroke-miterlimit:1;" x1="124.622" y1="38.016" x2="120.343" y2="38.345"/>
	<line style="fill:none;stroke:#000000;stroke-miterlimit:1;" x1="120.343" y1="38.345" x2="116.722" y2="38.674"/>
	<line style="fill:none;stroke:#000000;stroke-miterlimit:1;" x1="116.722" y1="38.674" x2="112.772" y2="39.991"/>
	<line style="fill:none;stroke:#000000;stroke-miterlimit:1;" x1="112.772" y1="39.991" x2="109.152" y2="41.307"/>
	<line style="fill:none;stroke:#000000;stroke-miterlimit:1;" x1="109.152" y1="41.307" x2="105.531" y2="42.953"/>
	<line style="fill:none;stroke:#000000;stroke-miterlimit:1;" x1="105.531" y1="42.953" x2="102.24" y2="45.257"/>
	<line style="fill:none;stroke:#000000;stroke-miterlimit:1;" x1="102.24" y1="45.257" x2="99.607" y2="47.561"/>
	<line style="fill:none;stroke:#000000;stroke-miterlimit:1;" x1="99.607" y1="47.561" x2="96.974" y2="50.194"/>
	<line style="fill:none;stroke:#000000;stroke-miterlimit:1;" x1="96.974" y1="50.194" x2="94.999" y2="52.498"/>
	<line style="fill:none;stroke:#000000;stroke-miterlimit:1;" x1="94.999" y1="52.498" x2="93.024" y2="55.46"/>
	<line style="fill:none;stroke:#000000;stroke-miterlimit:1;" x1="93.024" y1="55.46" x2="90.72" y2="59.739"/>
	<line style="fill:none;stroke:#000000;stroke-miterlimit:1;" x1="90.72" y1="59.739" x2="89.732" y2="63.031"/>
	<line style="fill:none;stroke:#000000;stroke-miterlimit:1;" x1="89.732" y1="63.031" x2="88.745" y2="66.651"/>
	<line style="fill:none;stroke:#000000;stroke-miterlimit:1;" x1="88.745" y1="66.651" x2="88.087" y2="70.272"/>
	<line style="fill:none;stroke:#000000;stroke-miterlimit:1;" x1="88.087" y1="70.272" x2="87.429" y2="74.551"/>
	<line style="fill:none;stroke:#000000;stroke-miterlimit:1;" x1="87.429" y1="74.551" x2="87.429" y2="78.171"/>
	<line style="fill:none;stroke:#000000;stroke-miterlimit:1;" x1="87.429" y1="78.171" x2="88.087" y2="82.45"/>
	<line style="fill:none;stroke:#000000;stroke-miterlimit:1;" x1="88.087" y1="82.45" x2="89.074" y2="86.07"/>
	<line style="fill:none;stroke:#000000;stroke-miterlimit:1;" x1="89.074" y1="86.07" x2="90.062" y2="89.362"/>
	<line style="fill:none;stroke:#000000;stroke-miterlimit:1;" x1="90.062" y1="89.362" x2="91.708" y2="92.982"/>
	<line style="fill:none;stroke:#000000;stroke-miterlimit:1;" x1="91.708" y1="92.982" x2="92.695" y2="94.958"/>
	<line style="fill:none;stroke:#000000;stroke-miterlimit:1;" x1="92.695" y1="94.958" x2="94.011" y2="96.604"/>
	<line style="fill:none;stroke:#000000;stroke-miterlimit:1;" x1="94.011" y1="96.604" x2="97.303" y2="100.224"/>
	<line style="fill:none;stroke:#000000;stroke-miterlimit:1;" x1="97.303" y1="100.224" x2="100.594" y2="103.516"/>
	<line style="fill:none;stroke:#000000;stroke-miterlimit:1;" x1="100.594" y1="103.516" x2="103.557" y2="105.819"/>
	<line style="fill:none;stroke:#000000;stroke-miterlimit:1;" x1="103.557" y1="105.819" x2="107.177" y2="107.794"/>
	<line style="fill:none;stroke:#000000;stroke-miterlimit:1;" x1="107.177" y1="107.794" x2="111.127" y2="109.769"/>
	<line style="fill:none;stroke:#000000;stroke-miterlimit:1;" x1="111.127" y1="109.769" x2="115.077" y2="110.757"/>
	<line style="fill:none;stroke:#000000;stroke-miterlimit:1;" x1="115.077" y1="110.757" x2="118.368" y2="111.744"/>
	<line style="fill:none;stroke:#000000;stroke-miterlimit:1;" x1="118.368" y1="111.744" x2="122.317" y2="111.744"/>
	<line style="fill:none;stroke:#000000;stroke-miterlimit:1;" x1="122.317" y1="111.744" x2="126.268" y2="112.073"/>
	<line style="fill:none;stroke:#000000;stroke-miterlimit:1;" x1="126.268" y1="112.073" x2="130.875" y2="111.415"/>
	<line style="fill:none;stroke:#000000;stroke-miterlimit:1;" x1="130.875" y1="111.415" x2="134.167" y2="110.757"/>
	<line style="fill:none;stroke:#000000;stroke-miterlimit:1;" x1="134.167" y1="110.757" x2="138.117" y2="109.11"/>
	<line style="fill:none;stroke:#000000;stroke-miterlimit:1;" x1="138.117" y1="109.11" x2="142.066" y2="107.136"/>
	<line style="fill:none;stroke:#000000;stroke-miterlimit:1;" x1="142.066" y1="107.136" x2="144.699" y2="105.819"/>
	<line style="fill:none;stroke:#000000;stroke-miterlimit:1;" x1="144.699" y1="105.819" x2="147.662" y2="103.187"/>
	<line style="fill:none;stroke:#000000;stroke-miterlimit:1;" x1="147.662" y1="103.187" x2="150.624" y2="100.553"/>
	<line style="fill:none;stroke:#000000;stroke-miterlimit:1;" x1="150.624" y1="100.553" x2="153.586" y2="97.591"/>
	<line style="fill:none;stroke:#000000;stroke-miterlimit:1;" x1="153.586" y1="97.591" x2="155.89" y2="93.97"/>
	<line style="fill:none;stroke:#000000;stroke-miterlimit:1;" x1="155.89" y1="93.97" x2="158.194" y2="90.679"/>
	<line style="fill:none;stroke:#000000;stroke-miterlimit:1;" x1="158.194" y1="90.679" x2="159.84" y2="87.388"/>
	<line style="fill:none;stroke:#000000;stroke-miterlimit:1;" x1="159.84" y1="87.388" x2="160.827" y2="83.438"/>
	<line style="fill:none;stroke:#000000;stroke-miterlimit:1;" x1="160.827" y1="83.438" x2="161.156" y2="79.817"/>
	<line style="fill:none;stroke:#000000;stroke-miterlimit:1;" x1="161.156" y1="79.817" x2="161.815" y2="75.538"/>
	<line style="fill:none;stroke:#000000;stroke-miterlimit:1;" x1="161.815" y1="75.538" x2="161.485" y2="71.917"/>
	<line style="fill:none;stroke:#000000;stroke-miterlimit:1;" x1="161.485" y1="71.917" x2="161.156" y2="67.639"/>
	<line style="fill:none;stroke:#000000;stroke-miterlimit:1;" x1="161.156" y1="67.639" x2="160.169" y2="64.018"/>
	<line style="fill:none;stroke:#000000;stroke-miterlimit:1;" x1="160.169" y1="64.018" x2="158.853" y2="60.727"/>
	<line style="fill:none;stroke:#000000;stroke-miterlimit:1;" x1="158.853" y1="60.727" x2="157.207" y2="56.448"/>
	<line style="fill:none;stroke:#000000;stroke-miterlimit:1;" x1="157.207" y1="56.448" x2="154.903" y2="53.156"/>
	<line style="fill:none;stroke:#000000;stroke-miterlimit:1;" x1="154.903" y1="53.156" x2="152.599" y2="50.523"/>
	<line style="fill:none;stroke:#000000;stroke-miterlimit:1;" x1="152.599" y1="50.523" x2="149.966" y2="47.232"/>
	<line style="fill:none;stroke:#000000;stroke-miterlimit:1;" x1="149.966" y1="47.232" x2="146.674" y2="44.928"/>
	<line style="fill:none;stroke:#000000;stroke-miterlimit:1;" x1="146.674" y1="44.928" x2="143.383" y2="42.624"/>
	<line style="fill:none;stroke:#000000;stroke-miterlimit:1;" x1="143.383" y1="42.624" x2="139.762" y2="40.978"/>
	<line style="fill:none;stroke:#000000;stroke-miterlimit:1;" x1="385.221" y1="30.651" x2="387.524" y2="33.943"/>
	<line style="fill:none;stroke:#000000;stroke-miterlimit:1;" x1="387.524" y1="33.943" x2="390.157" y2="37.893"/>
	<line style="fill:none;stroke:#000000;stroke-miterlimit:1;" x1="390.157" y1="37.893" x2="391.475" y2="41.184"/>
	<line style="fill:none;stroke:#000000;stroke-miterlimit:1;" x1="391.475" y1="41.184" x2="392.791" y2="45.463"/>
	<line style="fill:none;stroke:#000000;stroke-miterlimit:1;" x1="392.791" y1="45.463" x2="393.449" y2="48.425"/>
	<line style="fill:none;stroke:#000000;stroke-miterlimit:1;" x1="393.449" y1="48.425" x2="394.107" y2="52.375"/>
	<line style="fill:none;stroke:#000000;stroke-miterlimit:1;" x1="394.107" y1="52.375" x2="394.107" y2="56.983"/>
	<line style="fill:none;stroke:#000000;stroke-miterlimit:1;" x1="394.107" y1="56.983" x2="393.449" y2="61.591"/>
	<line style="fill:none;stroke:#000000;stroke-miterlimit:1;" x1="393.449" y1="61.591" x2="392.462" y2="65.541"/>
	<line style="fill:none;stroke:#000000;stroke-miterlimit:1;" x1="392.462" y1="65.541" x2="391.475" y2="68.174"/>
	<line style="fill:none;stroke:#000000;stroke-miterlimit:1;" x1="391.475" y1="68.174" x2="389.499" y2="71.465"/>
	<line style="fill:none;stroke:#000000;stroke-miterlimit:1;" x1="389.499" y1="71.465" x2="387.195" y2="73.769"/>
	<line style="fill:none;stroke:#000000;stroke-miterlimit:1;" x1="387.195" y1="73.769" x2="384.233" y2="76.731"/>
	<line style="fill:none;stroke:#000000;stroke-miterlimit:1;" x1="384.233" y1="76.731" x2="380.941" y2="78.377"/>
	<line style="fill:none;stroke:#000000;stroke-miterlimit:1;" x1="380.941" y1="78.377" x2="376.992" y2="80.022"/>
	<line style="fill:none;stroke:#000000;stroke-miterlimit:1;" x1="376.992" y1="80.022" x2="373.371" y2="80.681"/>
	<line style="fill:none;stroke:#000000;stroke-miterlimit:1;" x1="373.371" y1="80.681" x2="369.093" y2="81.01"/>
	<line style="fill:none;stroke:#000000;stroke-miterlimit:1;" x1="369.093" y1="81.01" x2="363.826" y2="80.352"/>
	<line style="fill:none;stroke:#000000;stroke-miterlimit:1;" x1="363.826" y1="80.352" x2="359.877" y2="79.035"/>
	<line style="fill:none;stroke:#000000;stroke-miterlimit:1;" x1="359.877" y1="79.035" x2="355.269" y2="77.39"/>
	<line style="fill:none;stroke:#000000;stroke-miterlimit:1;" x1="355.269" y1="77.39" x2="350.66" y2="74.756"/>
	<line style="fill:none;stroke:#000000;stroke-miterlimit:1;" x1="350.66" y1="74.756" x2="347.369" y2="72.453"/>
	<line style="fill:none;stroke:#000000;stroke-miterlimit:1;" x1="347.369" y1="72.453" x2="343.419" y2="68.832"/>
	<line style="fill:none;stroke:#000000;stroke-miterlimit:1;" x1="343.419" y1="68.832" x2="340.786" y2="65.541"/>
	<line style="fill:none;stroke:#000000;stroke-miterlimit:1;" x1="340.786" y1="65.541" x2="337.495" y2="61.591"/>
	<line style="fill:none;stroke:#000000;stroke-miterlimit:1;" x1="337.495" y1="61.591" x2="334.203" y2="57.312"/>
	<line style="fill:none;stroke:#000000;stroke-miterlimit:1;" x1="334.203" y1="57.312" x2="331.899" y2="53.691"/>
	<line style="fill:none;stroke:#000000;stroke-miterlimit:1;" x1="331.899" y1="53.691" x2="329.925" y2="50.4"/>
	<line style="fill:none;stroke:#000000;stroke-miterlimit:1;" x1="329.925" y1="50.4" x2="328.278" y2="46.45"/>
	<line style="fill:none;stroke:#000000;stroke-miterlimit:1;" x1="328.278" y1="46.45" x2="326.962" y2="42.5"/>
	<line style="fill:none;stroke:#000000;stroke-miterlimit:1;" x1="326.962" y1="42.5" x2="325.975" y2="37.234"/>
	<line style="fill:none;stroke:#000000;stroke-miterlimit:1;" x1="325.975" y1="37.234" x2="325.316" y2="32.297"/>
	<line style="fill:none;stroke:#000000;stroke-miterlimit:1;" x1="325.316" y1="32.297" x2="325.646" y2="24.068"/>
	<line style="fill:none;stroke:#000000;stroke-miterlimit:1;" x1="325.646" y1="24.068" x2="326.962" y2="20.777"/>
	<line style="fill:none;stroke:#000000;stroke-miterlimit:1;" x1="326.962" y1="20.777" x2="328.278" y2="17.485"/>
	<line style="fill:none;stroke:#000000;stroke-miterlimit:1;" x1="328.278" y1="17.485" x2="330.254" y2="14.853"/>
	<line style="fill:none;stroke:#000000;stroke-miterlimit:1;" x1="330.254" y1="14.853" x2="332.887" y2="12.219"/>
	<line style="fill:none;stroke:#000000;stroke-miterlimit:1;" x1="332.887" y1="12.219" x2="335.849" y2="9.586"/>
	<line style="fill:none;stroke:#000000;stroke-miterlimit:1;" x1="335.849" y1="9.586" x2="339.799" y2="7.94"/>
	<line style="fill:none;stroke:#000000;stroke-miterlimit:1;" x1="339.799" y1="7.94" x2="342.761" y2="7.282"/>
	<line style="fill:none;stroke:#000000;stroke-miterlimit:1;" x1="342.761" y1="7.282" x2="346.711" y2="6.953"/>
	<line style="fill:none;stroke:#000000;stroke-miterlimit:1;" x1="346.711" y1="6.953" x2="350.989" y2="7.611"/>
	<line style="fill:none;stroke:#000000;stroke-miterlimit:1;" x1="350.989" y1="7.611" x2="355.269" y2="8.27"/>
	<line style="fill:none;stroke:#000000;stroke-miterlimit:1;" x1="355.269" y1="8.27" x2="360.535" y2="9.915"/>
	<line style="fill:none;stroke:#000000;stroke-miterlimit:1;" x1="360.535" y1="9.915" x2="365.143" y2="11.89"/>
	<line style="fill:none;stroke:#000000;stroke-miterlimit:1;" x1="365.143" y1="11.89" x2="368.435" y2="13.865"/>
	<line style="fill:none;stroke:#000000;stroke-miterlimit:1;" x1="368.435" y1="13.865" x2="371.726" y2="15.84"/>
	<line style="fill:none;stroke:#000000;stroke-miterlimit:1;" x1="371.726" y1="15.84" x2="375.018" y2="18.802"/>
	<line style="fill:none;stroke:#000000;stroke-miterlimit:1;" x1="375.018" y1="18.802" x2="378.309" y2="22.423"/>
	<line style="fill:none;stroke:#000000;stroke-miterlimit:1;" x1="378.309" y1="22.423" x2="381.6" y2="26.043"/>
	<line style="fill:none;stroke:#000000;stroke-miterlimit:1;" x1="381.6" y1="26.043" x2="384.233" y2="29.335"/>
	<line style="fill:none;stroke:#000000;stroke-miterlimit:1;" x1="384.233" y1="29.335" x2="385.55" y2="30.651"/>
	<line style="fill:none;stroke:#000000;stroke-miterlimit:1;" x1="387.524" y1="33.943" x2="389.499" y2="32.297"/>
	<line style="fill:none;stroke:#000000;stroke-miterlimit:1;" x1="389.499" y1="32.297" x2="391.146" y2="30.651"/>
	<line style="fill:none;stroke:#000000;stroke-miterlimit:1;" x1="391.146" y1="30.651" x2="392.133" y2="28.676"/>
	<line style="fill:none;stroke:#000000;stroke-miterlimit:1;" x1="392.133" y1="28.676" x2="392.791" y2="25.056"/>
	<line style="fill:none;stroke:#000000;stroke-miterlimit:1;" x1="392.791" y1="25.056" x2="392.791" y2="22.094"/>
	<line style="fill:none;stroke:#000000;stroke-miterlimit:1;" x1="392.791" y1="22.094" x2="392.133" y2="19.46"/>
	<line style="fill:none;stroke:#000000;stroke-miterlimit:1;" x1="392.133" y1="19.46" x2="391.146" y2="17.485"/>
	<line style="fill:none;stroke:#000000;stroke-miterlimit:1;" x1="391.146" y1="17.485" x2="390.157" y2="16.169"/>
	<line style="fill:none;stroke:#000000;stroke-miterlimit:1;" x1="390.157" y1="16.169" x2="388.183" y2="14.194"/>
	<line style="fill:none;stroke:#000000;stroke-miterlimit:1;" x1="388.183" y1="14.194" x2="386.866" y2="12.877"/>
	<line style="fill:none;stroke:#000000;stroke-miterlimit:1;" x1="386.866" y1="12.877" x2="383.575" y2="11.561"/>
	<line style="fill:none;stroke:#000000;stroke-miterlimit:1;" x1="383.575" y1="11.561" x2="381.6" y2="11.561"/>
	<line style="fill:none;stroke:#000000;stroke-miterlimit:1;" x1="381.6" y1="11.561" x2="378.309" y2="11.561"/>
	<line style="fill:none;stroke:#000000;stroke-miterlimit:1;" x1="378.309" y1="11.561" x2="375.676" y2="12.877"/>
	<line style="fill:none;stroke:#000000;stroke-miterlimit:1;" x1="375.676" y1="12.877" x2="373.042" y2="14.523"/>
	<line style="fill:none;stroke:#000000;stroke-miterlimit:1;" x1="373.042" y1="14.523" x2="371.396" y2="15.511"/>
	<line style="fill:none;stroke:#000000;stroke-miterlimit:1;" x1="344.078" y1="69.49" x2="341.773" y2="70.807"/>
	<line style="fill:none;stroke:#000000;stroke-miterlimit:1;" x1="341.773" y1="70.807" x2="339.47" y2="72.123"/>
	<line style="fill:none;stroke:#000000;stroke-miterlimit:1;" x1="339.47" y1="72.123" x2="337.495" y2="72.782"/>
	<line style="fill:none;stroke:#000000;stroke-miterlimit:1;" x1="337.495" y1="72.782" x2="334.203" y2="72.782"/>
	<line style="fill:none;stroke:#000000;stroke-miterlimit:1;" x1="334.203" y1="72.782" x2="330.912" y2="72.123"/>
	<line style="fill:none;stroke:#000000;stroke-miterlimit:1;" x1="330.912" y1="72.123" x2="328.938" y2="70.807"/>
	<line style="fill:none;stroke:#000000;stroke-miterlimit:1;" x1="328.938" y1="70.807" x2="326.962" y2="69.49"/>
	<line style="fill:none;stroke:#000000;stroke-miterlimit:1;" x1="326.962" y1="69.49" x2="325.975" y2="68.174"/>
	<line style="fill:none;stroke:#000000;stroke-miterlimit:1;" x1="325.975" y1="68.174" x2="324.329" y2="66.199"/>
	<line style="fill:none;stroke:#000000;stroke-miterlimit:1;" x1="324.329" y1="66.199" x2="323.342" y2="63.895"/>
	<line style="fill:none;stroke:#000000;stroke-miterlimit:1;" x1="323.342" y1="63.895" x2="323.013" y2="60.604"/>
	<line style="fill:none;stroke:#000000;stroke-miterlimit:1;" x1="323.013" y1="60.604" x2="323.013" y2="58.299"/>
	<line style="fill:none;stroke:#000000;stroke-miterlimit:1;" x1="323.013" y1="58.299" x2="324" y2="55.666"/>
	<line style="fill:none;stroke:#000000;stroke-miterlimit:1;" x1="324" y1="55.666" x2="325.646" y2="53.033"/>
	<line style="fill:none;stroke:#000000;stroke-miterlimit:1;" x1="325.646" y1="53.033" x2="327.949" y2="50.729"/>
	<line style="fill:none;stroke:#000000;stroke-miterlimit:1;" x1="327.949" y1="50.729" x2="329.596" y2="49.742"/>
	<path style="fill-rule:evenodd;clip-rule:evenodd;stroke:#FFFFFF;stroke-miterlimit:10;" d="M310.176,4.155
		c0-1.737,1.463-3.127,3.292-3.127c1.828,0,3.291,1.39,3.291,3.127s-1.463,3.127-3.291,3.127
		C311.639,7.282,310.176,5.893,310.176,4.155L310.176,4.155z"/>
	<path style="fill:none;stroke:#000000;stroke-miterlimit:1;" d="M310.176,4.155c0-1.737,1.463-3.127,3.292-3.127
		c1.828,0,3.291,1.39,3.291,3.127s-1.463,3.127-3.291,3.127C311.639,7.282,310.176,5.893,310.176,4.155L310.176,4.155z"/>
	<path style="fill-rule:evenodd;clip-rule:evenodd;stroke:#FFFFFF;stroke-miterlimit:10;" d="M289.77,9.092
		c0-1.737,1.39-3.126,3.126-3.126c1.737,0,3.127,1.39,3.127,3.126c0,1.737-1.39,3.127-3.127,3.127
		C291.159,12.219,289.77,10.83,289.77,9.092L289.77,9.092z"/>
	<path style="fill:none;stroke:#000000;stroke-miterlimit:1;" d="M289.77,9.092c0-1.737,1.39-3.126,3.126-3.126
		c1.737,0,3.127,1.39,3.127,3.126c0,1.737-1.39,3.127-3.127,3.127C291.159,12.219,289.77,10.83,289.77,9.092L289.77,9.092z"/>
	<path style="fill-rule:evenodd;clip-rule:evenodd;stroke:#FFFFFF;stroke-miterlimit:10;" d="M277.92,21.6
		c0-1.737,1.39-3.126,3.127-3.126s3.127,1.39,3.127,3.126c0,1.737-1.39,3.127-3.127,3.127S277.92,23.337,277.92,21.6L277.92,21.6z"
		/>
	<path style="fill:none;stroke:#000000;stroke-miterlimit:1;" d="M277.92,21.6c0-1.737,1.39-3.126,3.127-3.126
		s3.127,1.39,3.127,3.126c0,1.737-1.39,3.127-3.127,3.127S277.92,23.337,277.92,21.6L277.92,21.6z"/>
	<path style="fill-rule:evenodd;clip-rule:evenodd;stroke:#FFFFFF;stroke-miterlimit:10;" d="M269.033,40.361
		c0-1.737,1.39-3.126,3.127-3.126s3.127,1.39,3.127,3.126c0,1.737-1.39,3.127-3.127,3.127S269.033,42.098,269.033,40.361
		L269.033,40.361z"/>
	<path style="fill:none;stroke:#000000;stroke-miterlimit:1;" d="M269.033,40.361c0-1.737,1.39-3.126,3.127-3.126
		s3.127,1.39,3.127,3.126c0,1.737-1.39,3.127-3.127,3.127S269.033,42.098,269.033,40.361L269.033,40.361z"/>
	<path style="fill-rule:evenodd;clip-rule:evenodd;stroke:#FFFFFF;stroke-miterlimit:10;" d="M266.4,58.793
		c0-1.737,1.39-3.127,3.126-3.127c1.737,0,3.127,1.39,3.127,3.127s-1.39,3.127-3.127,3.127C267.79,61.92,266.4,60.53,266.4,58.793
		L266.4,58.793z"/>
	<path style="fill:none;stroke:#000000;stroke-miterlimit:1;" d="M266.4,58.793c0-1.737,1.39-3.127,3.126-3.127
		c1.737,0,3.127,1.39,3.127,3.127s-1.39,3.127-3.127,3.127C267.79,61.92,266.4,60.53,266.4,58.793L266.4,58.793z"/>
</g>
</svg>
