<?xml version="1.0" encoding="iso-8859-1"?>
<!-- Generator: Adobe Illustrator 16.0.1, SVG Export Plug-In . SVG Version: 6.00 Build 0)  -->
<!DOCTYPE svg PUBLIC "-//W3C//DTD SVG 1.1//EN" "http://www.w3.org/Graphics/SVG/1.1/DTD/svg11.dtd">
<svg version="1.1" id="Ebene_1" xmlns="http://www.w3.org/2000/svg" xmlns:xlink="http://www.w3.org/1999/xlink" x="0px" y="0px"
	 width="287.013px" height="150.172px" viewBox="0 0 287.013 150.172" style="enable-background:new 0 0 287.013 150.172;"
	 xml:space="preserve">
<g>
	<line style="fill:none;stroke:#000000;stroke-miterlimit:1;" x1="33.573" y1="61.632" x2="33.573" y2="150.172"/>
	<line style="fill:none;stroke:#000000;stroke-miterlimit:1;" x1="33.573" y1="150.172" x2="40.485" y2="150.172"/>
	<line style="fill:none;stroke:#000000;stroke-miterlimit:1;" x1="40.485" y1="150.172" x2="40.485" y2="61.632"/>
	<line style="fill:none;stroke:#000000;stroke-miterlimit:1;" x1="0" y1="61.303" x2="74.057" y2="61.303"/>
	<line style="fill:none;stroke:#000000;stroke-miterlimit:1;" x1="74.057" y1="61.303" x2="74.057" y2="37.934"/>
	<line style="fill:none;stroke:#000000;stroke-miterlimit:1;" x1="74.057" y1="37.934" x2="72.741" y2="35.301"/>
	<line style="fill:none;stroke:#000000;stroke-miterlimit:1;" x1="72.741" y1="35.301" x2="71.424" y2="33.655"/>
	<line style="fill:none;stroke:#000000;stroke-miterlimit:1;" x1="71.424" y1="33.655" x2="69.778" y2="33.655"/>
	<line style="fill:none;stroke:#000000;stroke-miterlimit:1;" x1="69.778" y1="33.655" x2="68.133" y2="33.655"/>
	<line style="fill:none;stroke:#000000;stroke-miterlimit:1;" x1="68.133" y1="33.655" x2="66.158" y2="33.984"/>
	<line style="fill:none;stroke:#000000;stroke-miterlimit:1;" x1="66.158" y1="33.984" x2="64.183" y2="35.301"/>
	<line style="fill:none;stroke:#000000;stroke-miterlimit:1;" x1="64.183" y1="35.301" x2="57.6" y2="41.225"/>
	<line style="fill:none;stroke:#000000;stroke-miterlimit:1;" x1="57.6" y1="41.225" x2="51.676" y2="46.491"/>
	<line style="fill:none;stroke:#000000;stroke-miterlimit:1;" x1="51.676" y1="46.491" x2="47.068" y2="48.795"/>
	<line style="fill:none;stroke:#000000;stroke-miterlimit:1;" x1="47.068" y1="48.795" x2="41.472" y2="50.112"/>
	<line style="fill:none;stroke:#000000;stroke-miterlimit:1;" x1="41.472" y1="50.112" x2="36.864" y2="50.441"/>
	<line style="fill:none;stroke:#000000;stroke-miterlimit:1;" x1="36.864" y1="50.441" x2="32.585" y2="50.112"/>
	<line style="fill:none;stroke:#000000;stroke-miterlimit:1;" x1="32.585" y1="50.112" x2="26.99" y2="48.795"/>
	<line style="fill:none;stroke:#000000;stroke-miterlimit:1;" x1="26.99" y1="48.795" x2="22.382" y2="46.491"/>
	<line style="fill:none;stroke:#000000;stroke-miterlimit:1;" x1="22.382" y1="46.491" x2="16.458" y2="41.225"/>
	<line style="fill:none;stroke:#000000;stroke-miterlimit:1;" x1="16.458" y1="41.225" x2="9.875" y2="35.301"/>
	<line style="fill:none;stroke:#000000;stroke-miterlimit:1;" x1="9.875" y1="35.301" x2="7.899" y2="33.984"/>
	<line style="fill:none;stroke:#000000;stroke-miterlimit:1;" x1="7.899" y1="33.984" x2="5.925" y2="33.655"/>
	<line style="fill:none;stroke:#000000;stroke-miterlimit:1;" x1="5.925" y1="33.655" x2="4.279" y2="33.655"/>
	<line style="fill:none;stroke:#000000;stroke-miterlimit:1;" x1="4.279" y1="33.655" x2="2.633" y2="33.655"/>
	<line style="fill:none;stroke:#000000;stroke-miterlimit:1;" x1="2.633" y1="33.655" x2="1.317" y2="35.301"/>
	<line style="fill:none;stroke:#000000;stroke-miterlimit:1;" x1="1.317" y1="35.301" x2="0" y2="37.934"/>
	<line style="fill:none;stroke:#000000;stroke-miterlimit:1;" x1="0" y1="37.934" x2="0" y2="61.303"/>
	<line style="fill:none;stroke:#000000;stroke-miterlimit:1;" x1="50.688" y1="46.491" x2="44.764" y2="7.652"/>
	<line style="fill:none;stroke:#000000;stroke-miterlimit:1;" x1="44.764" y1="7.652" x2="42.13" y2="4.361"/>
	<line style="fill:none;stroke:#000000;stroke-miterlimit:1;" x1="42.13" y1="4.361" x2="40.156" y2="3.044"/>
	<line style="fill:none;stroke:#000000;stroke-miterlimit:1;" x1="40.156" y1="3.044" x2="37.522" y2="2.057"/>
	<line style="fill:none;stroke:#000000;stroke-miterlimit:1;" x1="37.522" y1="2.057" x2="36.535" y2="2.057"/>
	<line style="fill:none;stroke:#000000;stroke-miterlimit:1;" x1="36.535" y1="2.057" x2="33.902" y2="3.044"/>
	<line style="fill:none;stroke:#000000;stroke-miterlimit:1;" x1="33.902" y1="3.044" x2="31.927" y2="4.361"/>
	<line style="fill:none;stroke:#000000;stroke-miterlimit:1;" x1="31.927" y1="4.361" x2="29.294" y2="7.652"/>
	<line style="fill:none;stroke:#000000;stroke-miterlimit:1;" x1="29.294" y1="7.652" x2="23.369" y2="46.491"/>
	<line style="fill:none;stroke:#000000;stroke-miterlimit:1;" x1="118.368" y1="122.4" x2="161.157" y2="81.257"/>
	<line style="fill:none;stroke:#000000;stroke-miterlimit:1;" x1="102.898" y1="116.476" x2="155.562" y2="66.117"/>
	<line style="fill:none;stroke:#000000;stroke-miterlimit:1;" x1="92.695" y1="105.613" x2="145.358" y2="55.255"/>
	<line style="fill:none;stroke:#000000;stroke-miterlimit:1;" x1="87.429" y1="90.144" x2="129.559" y2="49.989"/>
	<line style="fill:none;stroke:#000000;stroke-miterlimit:1;" x1="139.763" y1="52.292" x2="136.142" y2="51.305"/>
	<line style="fill:none;stroke:#000000;stroke-miterlimit:1;" x1="136.142" y1="51.305" x2="132.521" y2="49.989"/>
	<line style="fill:none;stroke:#000000;stroke-miterlimit:1;" x1="132.521" y1="49.989" x2="128.572" y2="49.33"/>
	<line style="fill:none;stroke:#000000;stroke-miterlimit:1;" x1="128.572" y1="49.33" x2="124.622" y2="49.33"/>
	<line style="fill:none;stroke:#000000;stroke-miterlimit:1;" x1="124.622" y1="49.33" x2="120.343" y2="49.659"/>
	<line style="fill:none;stroke:#000000;stroke-miterlimit:1;" x1="120.343" y1="49.659" x2="116.723" y2="49.989"/>
	<line style="fill:none;stroke:#000000;stroke-miterlimit:1;" x1="116.723" y1="49.989" x2="112.773" y2="51.305"/>
	<line style="fill:none;stroke:#000000;stroke-miterlimit:1;" x1="112.773" y1="51.305" x2="109.152" y2="52.622"/>
	<line style="fill:none;stroke:#000000;stroke-miterlimit:1;" x1="109.152" y1="52.622" x2="105.532" y2="54.268"/>
	<line style="fill:none;stroke:#000000;stroke-miterlimit:1;" x1="105.532" y1="54.268" x2="102.24" y2="56.571"/>
	<line style="fill:none;stroke:#000000;stroke-miterlimit:1;" x1="102.24" y1="56.571" x2="99.607" y2="58.875"/>
	<line style="fill:none;stroke:#000000;stroke-miterlimit:1;" x1="99.607" y1="58.875" x2="96.974" y2="61.509"/>
	<line style="fill:none;stroke:#000000;stroke-miterlimit:1;" x1="96.974" y1="61.509" x2="94.999" y2="63.812"/>
	<line style="fill:none;stroke:#000000;stroke-miterlimit:1;" x1="94.999" y1="63.812" x2="93.024" y2="66.775"/>
	<line style="fill:none;stroke:#000000;stroke-miterlimit:1;" x1="93.024" y1="66.775" x2="90.72" y2="71.054"/>
	<line style="fill:none;stroke:#000000;stroke-miterlimit:1;" x1="90.72" y1="71.054" x2="89.733" y2="74.345"/>
	<line style="fill:none;stroke:#000000;stroke-miterlimit:1;" x1="89.733" y1="74.345" x2="88.745" y2="77.966"/>
	<line style="fill:none;stroke:#000000;stroke-miterlimit:1;" x1="88.745" y1="77.966" x2="88.087" y2="81.586"/>
	<line style="fill:none;stroke:#000000;stroke-miterlimit:1;" x1="88.087" y1="81.586" x2="87.429" y2="85.865"/>
	<line style="fill:none;stroke:#000000;stroke-miterlimit:1;" x1="87.429" y1="85.865" x2="87.429" y2="89.485"/>
	<line style="fill:none;stroke:#000000;stroke-miterlimit:1;" x1="87.429" y1="89.485" x2="88.087" y2="93.765"/>
	<line style="fill:none;stroke:#000000;stroke-miterlimit:1;" x1="88.087" y1="93.765" x2="89.075" y2="97.385"/>
	<line style="fill:none;stroke:#000000;stroke-miterlimit:1;" x1="89.075" y1="97.385" x2="90.062" y2="100.677"/>
	<line style="fill:none;stroke:#000000;stroke-miterlimit:1;" x1="90.062" y1="100.677" x2="91.708" y2="104.297"/>
	<line style="fill:none;stroke:#000000;stroke-miterlimit:1;" x1="91.708" y1="104.297" x2="92.695" y2="106.272"/>
	<line style="fill:none;stroke:#000000;stroke-miterlimit:1;" x1="92.695" y1="106.272" x2="94.012" y2="107.918"/>
	<line style="fill:none;stroke:#000000;stroke-miterlimit:1;" x1="94.012" y1="107.918" x2="97.303" y2="111.538"/>
	<line style="fill:none;stroke:#000000;stroke-miterlimit:1;" x1="97.303" y1="111.538" x2="100.595" y2="114.83"/>
	<line style="fill:none;stroke:#000000;stroke-miterlimit:1;" x1="100.595" y1="114.83" x2="103.557" y2="117.134"/>
	<line style="fill:none;stroke:#000000;stroke-miterlimit:1;" x1="103.557" y1="117.134" x2="107.177" y2="119.108"/>
	<line style="fill:none;stroke:#000000;stroke-miterlimit:1;" x1="107.177" y1="119.108" x2="111.127" y2="121.083"/>
	<line style="fill:none;stroke:#000000;stroke-miterlimit:1;" x1="111.127" y1="121.083" x2="115.077" y2="122.071"/>
	<line style="fill:none;stroke:#000000;stroke-miterlimit:1;" x1="115.077" y1="122.071" x2="118.368" y2="123.059"/>
	<line style="fill:none;stroke:#000000;stroke-miterlimit:1;" x1="118.368" y1="123.059" x2="122.318" y2="123.059"/>
	<line style="fill:none;stroke:#000000;stroke-miterlimit:1;" x1="122.318" y1="123.059" x2="126.268" y2="123.388"/>
	<line style="fill:none;stroke:#000000;stroke-miterlimit:1;" x1="126.268" y1="123.388" x2="130.875" y2="122.729"/>
	<line style="fill:none;stroke:#000000;stroke-miterlimit:1;" x1="130.875" y1="122.729" x2="134.167" y2="122.071"/>
	<line style="fill:none;stroke:#000000;stroke-miterlimit:1;" x1="134.167" y1="122.071" x2="138.117" y2="120.425"/>
	<line style="fill:none;stroke:#000000;stroke-miterlimit:1;" x1="138.117" y1="120.425" x2="142.066" y2="118.45"/>
	<line style="fill:none;stroke:#000000;stroke-miterlimit:1;" x1="142.066" y1="118.45" x2="144.699" y2="117.134"/>
	<line style="fill:none;stroke:#000000;stroke-miterlimit:1;" x1="144.699" y1="117.134" x2="147.662" y2="114.501"/>
	<line style="fill:none;stroke:#000000;stroke-miterlimit:1;" x1="147.662" y1="114.501" x2="150.624" y2="111.867"/>
	<line style="fill:none;stroke:#000000;stroke-miterlimit:1;" x1="150.624" y1="111.867" x2="153.587" y2="108.905"/>
	<line style="fill:none;stroke:#000000;stroke-miterlimit:1;" x1="153.587" y1="108.905" x2="155.891" y2="105.284"/>
	<line style="fill:none;stroke:#000000;stroke-miterlimit:1;" x1="155.891" y1="105.284" x2="158.194" y2="101.993"/>
	<line style="fill:none;stroke:#000000;stroke-miterlimit:1;" x1="158.194" y1="101.993" x2="159.84" y2="98.702"/>
	<line style="fill:none;stroke:#000000;stroke-miterlimit:1;" x1="159.84" y1="98.702" x2="160.827" y2="94.752"/>
	<line style="fill:none;stroke:#000000;stroke-miterlimit:1;" x1="160.827" y1="94.752" x2="161.157" y2="91.132"/>
	<line style="fill:none;stroke:#000000;stroke-miterlimit:1;" x1="161.157" y1="91.132" x2="161.815" y2="86.853"/>
	<line style="fill:none;stroke:#000000;stroke-miterlimit:1;" x1="161.815" y1="86.853" x2="161.486" y2="83.232"/>
	<line style="fill:none;stroke:#000000;stroke-miterlimit:1;" x1="161.486" y1="83.232" x2="161.157" y2="78.953"/>
	<line style="fill:none;stroke:#000000;stroke-miterlimit:1;" x1="161.157" y1="78.953" x2="160.169" y2="75.333"/>
	<line style="fill:none;stroke:#000000;stroke-miterlimit:1;" x1="160.169" y1="75.333" x2="158.853" y2="72.041"/>
	<line style="fill:none;stroke:#000000;stroke-miterlimit:1;" x1="158.853" y1="72.041" x2="157.207" y2="67.762"/>
	<line style="fill:none;stroke:#000000;stroke-miterlimit:1;" x1="157.207" y1="67.762" x2="154.903" y2="64.471"/>
	<line style="fill:none;stroke:#000000;stroke-miterlimit:1;" x1="154.903" y1="64.471" x2="152.599" y2="61.838"/>
	<line style="fill:none;stroke:#000000;stroke-miterlimit:1;" x1="152.599" y1="61.838" x2="149.966" y2="58.546"/>
	<line style="fill:none;stroke:#000000;stroke-miterlimit:1;" x1="149.966" y1="58.546" x2="146.675" y2="56.242"/>
	<line style="fill:none;stroke:#000000;stroke-miterlimit:1;" x1="146.675" y1="56.242" x2="143.383" y2="53.938"/>
	<line style="fill:none;stroke:#000000;stroke-miterlimit:1;" x1="143.383" y1="53.938" x2="139.763" y2="52.292"/>
	<line style="fill:none;stroke:#000000;stroke-miterlimit:1;" x1="231.388" y1="10.204" x2="244.883" y2="15.799"/>
	<line style="fill:none;stroke:#000000;stroke-miterlimit:1;" x1="244.883" y1="15.799" x2="247.187" y2="14.482"/>
	<line style="fill:none;stroke:#000000;stroke-miterlimit:1;" x1="247.187" y1="14.482" x2="249.161" y2="14.482"/>
	<line style="fill:none;stroke:#000000;stroke-miterlimit:1;" x1="249.161" y1="14.482" x2="250.478" y2="15.799"/>
	<line style="fill:none;stroke:#000000;stroke-miterlimit:1;" x1="250.478" y1="15.799" x2="250.807" y2="18.432"/>
	<line style="fill:none;stroke:#000000;stroke-miterlimit:1;" x1="250.807" y1="18.432" x2="249.161" y2="20.407"/>
	<line style="fill:none;stroke:#000000;stroke-miterlimit:1;" x1="249.161" y1="20.407" x2="248.174" y2="27.319"/>
	<line style="fill:none;stroke:#000000;stroke-miterlimit:1;" x1="248.174" y1="27.319" x2="254.099" y2="31.269"/>
	<line style="fill:none;stroke:#000000;stroke-miterlimit:1;" x1="254.099" y1="31.269" x2="259.694" y2="20.407"/>
	<line style="fill:none;stroke:#000000;stroke-miterlimit:1;" x1="259.694" y1="20.407" x2="260.353" y2="15.141"/>
	<line style="fill:none;stroke:#000000;stroke-miterlimit:1;" x1="260.353" y1="15.141" x2="260.353" y2="11.52"/>
	<line style="fill:none;stroke:#000000;stroke-miterlimit:1;" x1="260.353" y1="11.52" x2="260.023" y2="8.887"/>
	<line style="fill:none;stroke:#000000;stroke-miterlimit:1;" x1="260.023" y1="8.887" x2="257.061" y2="4.937"/>
	<line style="fill:none;stroke:#000000;stroke-miterlimit:1;" x1="257.061" y1="4.937" x2="252.124" y2="1.316"/>
	<line style="fill:none;stroke:#000000;stroke-miterlimit:1;" x1="252.124" y1="1.316" x2="246.857" y2="0"/>
	<line style="fill:none;stroke:#000000;stroke-miterlimit:1;" x1="246.857" y1="0" x2="241.591" y2="0"/>
	<line style="fill:none;stroke:#000000;stroke-miterlimit:1;" x1="241.591" y1="0" x2="237.312" y2="1.646"/>
	<line style="fill:none;stroke:#000000;stroke-miterlimit:1;" x1="237.312" y1="1.646" x2="233.691" y2="5.595"/>
	<line style="fill:none;stroke:#000000;stroke-miterlimit:1;" x1="233.691" y1="5.595" x2="231.388" y2="10.204"/>
	<line style="fill:none;stroke:#000000;stroke-miterlimit:1;" x1="233.033" y1="15.799" x2="235.667" y2="15.799"/>
	<line style="fill:none;stroke:#000000;stroke-miterlimit:1;" x1="235.667" y1="15.799" x2="237.971" y2="18.103"/>
	<line style="fill:none;stroke:#000000;stroke-miterlimit:1;" x1="237.971" y1="18.103" x2="235.008" y2="17.444"/>
	<line style="fill:none;stroke:#000000;stroke-miterlimit:1;" x1="235.008" y1="17.444" x2="232.704" y2="15.799"/>
	<line style="fill:none;stroke:#000000;stroke-miterlimit:1;" x1="231.388" y1="10.204" x2="229.742" y2="17.115"/>
	<line style="fill:none;stroke:#000000;stroke-miterlimit:1;" x1="229.742" y1="17.115" x2="225.463" y2="24.686"/>
	<line style="fill:none;stroke:#000000;stroke-miterlimit:1;" x1="225.463" y1="24.686" x2="229.084" y2="25.344"/>
	<line style="fill:none;stroke:#000000;stroke-miterlimit:1;" x1="229.084" y1="25.344" x2="231.717" y2="32.914"/>
	<line style="fill:none;stroke:#000000;stroke-miterlimit:1;" x1="231.717" y1="32.914" x2="238.3" y2="30.939"/>
	<line style="fill:none;stroke:#000000;stroke-miterlimit:1;" x1="238.3" y1="30.939" x2="239.287" y2="36.206"/>
	<line style="fill:none;stroke:#000000;stroke-miterlimit:1;" x1="239.287" y1="36.206" x2="225.463" y2="42.13"/>
	<line style="fill:none;stroke:#000000;stroke-miterlimit:1;" x1="225.463" y1="42.13" x2="222.83" y2="44.434"/>
	<line style="fill:none;stroke:#000000;stroke-miterlimit:1;" x1="222.83" y1="44.434" x2="205.715" y2="64.841"/>
	<line style="fill:none;stroke:#000000;stroke-miterlimit:1;" x1="205.715" y1="64.841" x2="202.423" y2="60.562"/>
	<line style="fill:none;stroke:#000000;stroke-miterlimit:1;" x1="202.423" y1="60.562" x2="186.624" y2="46.409"/>
	<line style="fill:none;stroke:#000000;stroke-miterlimit:1;" x1="186.624" y1="46.409" x2="184.979" y2="39.826"/>
	<line style="fill:none;stroke:#000000;stroke-miterlimit:1;" x1="184.979" y1="39.826" x2="182.017" y2="35.218"/>
	<line style="fill:none;stroke:#000000;stroke-miterlimit:1;" x1="182.017" y1="35.218" x2="177.737" y2="31.927"/>
	<line style="fill:none;stroke:#000000;stroke-miterlimit:1;" x1="177.737" y1="31.927" x2="173.458" y2="29.952"/>
	<line style="fill:none;stroke:#000000;stroke-miterlimit:1;" x1="173.458" y1="29.952" x2="172.8" y2="31.927"/>
	<line style="fill:none;stroke:#000000;stroke-miterlimit:1;" x1="172.8" y1="31.927" x2="179.383" y2="36.206"/>
	<line style="fill:none;stroke:#000000;stroke-miterlimit:1;" x1="179.383" y1="36.206" x2="181.358" y2="40.813"/>
	<line style="fill:none;stroke:#000000;stroke-miterlimit:1;" x1="181.358" y1="40.813" x2="180.37" y2="42.459"/>
	<line style="fill:none;stroke:#000000;stroke-miterlimit:1;" x1="180.37" y1="42.459" x2="178.066" y2="41.143"/>
	<line style="fill:none;stroke:#000000;stroke-miterlimit:1;" x1="178.066" y1="41.143" x2="176.75" y2="39.826"/>
	<line style="fill:none;stroke:#000000;stroke-miterlimit:1;" x1="176.75" y1="39.826" x2="175.104" y2="41.472"/>
	<line style="fill:none;stroke:#000000;stroke-miterlimit:1;" x1="175.104" y1="41.472" x2="178.066" y2="44.434"/>
	<line style="fill:none;stroke:#000000;stroke-miterlimit:1;" x1="178.066" y1="44.434" x2="181.028" y2="46.08"/>
	<line style="fill:none;stroke:#000000;stroke-miterlimit:1;" x1="181.028" y1="46.08" x2="183.333" y2="48.384"/>
	<line style="fill:none;stroke:#000000;stroke-miterlimit:1;" x1="183.333" y1="48.384" x2="191.891" y2="60.562"/>
	<line style="fill:none;stroke:#000000;stroke-miterlimit:1;" x1="191.891" y1="60.562" x2="203.739" y2="72.412"/>
	<line style="fill:none;stroke:#000000;stroke-miterlimit:1;" x1="203.739" y1="72.412" x2="207.36" y2="73.07"/>
	<line style="fill:none;stroke:#000000;stroke-miterlimit:1;" x1="207.36" y1="73.07" x2="211.31" y2="70.766"/>
	<line style="fill:none;stroke:#000000;stroke-miterlimit:1;" x1="211.31" y1="70.766" x2="228.097" y2="50.688"/>
	<line style="fill:none;stroke:#000000;stroke-miterlimit:1;" x1="228.097" y1="50.688" x2="235.008" y2="86.564"/>
	<line style="fill:none;stroke:#000000;stroke-miterlimit:1;" x1="235.008" y1="86.564" x2="235.008" y2="91.502"/>
	<line style="fill:none;stroke:#000000;stroke-miterlimit:1;" x1="235.008" y1="91.502" x2="231.059" y2="113.555"/>
	<line style="fill:none;stroke:#000000;stroke-miterlimit:1;" x1="231.059" y1="113.555" x2="217.563" y2="96.768"/>
	<line style="fill:none;stroke:#000000;stroke-miterlimit:1;" x1="217.563" y1="96.768" x2="211.639" y2="91.502"/>
	<line style="fill:none;stroke:#000000;stroke-miterlimit:1;" x1="211.639" y1="91.502" x2="204.068" y2="87.223"/>
	<line style="fill:none;stroke:#000000;stroke-miterlimit:1;" x1="204.068" y1="87.223" x2="199.79" y2="85.248"/>
	<line style="fill:none;stroke:#000000;stroke-miterlimit:1;" x1="199.79" y1="85.248" x2="196.498" y2="85.906"/>
	<line style="fill:none;stroke:#000000;stroke-miterlimit:1;" x1="196.498" y1="85.906" x2="193.865" y2="89.527"/>
	<line style="fill:none;stroke:#000000;stroke-miterlimit:1;" x1="193.865" y1="89.527" x2="193.207" y2="94.135"/>
	<line style="fill:none;stroke:#000000;stroke-miterlimit:1;" x1="193.207" y1="94.135" x2="200.119" y2="127.707"/>
	<line style="fill:none;stroke:#000000;stroke-miterlimit:1;" x1="204.068" y1="87.223" x2="200.119" y2="95.451"/>
	<line style="fill:none;stroke:#000000;stroke-miterlimit:1;" x1="200.119" y1="95.451" x2="203.41" y2="101.705"/>
	<line style="fill:none;stroke:#000000;stroke-miterlimit:1;" x1="203.41" y1="101.705" x2="205.057" y2="106.643"/>
	<line style="fill:none;stroke:#000000;stroke-miterlimit:1;" x1="205.057" y1="106.643" x2="205.715" y2="114.871"/>
	<line style="fill:none;stroke:#000000;stroke-miterlimit:1;" x1="205.715" y1="114.871" x2="205.057" y2="124.745"/>
	<line style="fill:none;stroke:#000000;stroke-miterlimit:1;" x1="256.402" y1="108.288" x2="250.148" y2="108.946"/>
	<line style="fill:none;stroke:#000000;stroke-miterlimit:1;" x1="250.148" y1="108.946" x2="231.059" y2="113.555"/>
	<line style="fill:none;stroke:#000000;stroke-miterlimit:1;" x1="231.059" y1="113.555" x2="205.057" y2="124.745"/>
	<line style="fill:none;stroke:#000000;stroke-miterlimit:1;" x1="205.057" y1="124.745" x2="200.119" y2="127.707"/>
	<line style="fill:none;stroke:#000000;stroke-miterlimit:1;" x1="200.119" y1="127.707" x2="195.84" y2="129.683"/>
	<line style="fill:none;stroke:#000000;stroke-miterlimit:1;" x1="195.84" y1="129.683" x2="191.232" y2="133.632"/>
	<line style="fill:none;stroke:#000000;stroke-miterlimit:1;" x1="191.232" y1="133.632" x2="190.245" y2="136.595"/>
	<line style="fill:none;stroke:#000000;stroke-miterlimit:1;" x1="190.245" y1="136.595" x2="190.574" y2="140.215"/>
	<line style="fill:none;stroke:#000000;stroke-miterlimit:1;" x1="190.574" y1="140.215" x2="193.207" y2="144.165"/>
	<line style="fill:none;stroke:#000000;stroke-miterlimit:1;" x1="193.207" y1="144.165" x2="198.145" y2="146.14"/>
	<line style="fill:none;stroke:#000000;stroke-miterlimit:1;" x1="198.145" y1="146.14" x2="205.057" y2="146.14"/>
	<line style="fill:none;stroke:#000000;stroke-miterlimit:1;" x1="205.057" y1="146.14" x2="239.287" y2="143.177"/>
	<line style="fill:none;stroke:#000000;stroke-miterlimit:1;" x1="239.287" y1="143.177" x2="252.782" y2="144.165"/>
	<line style="fill:none;stroke:#000000;stroke-miterlimit:1;" x1="252.782" y1="144.165" x2="264.631" y2="147.785"/>
	<line style="fill:none;stroke:#000000;stroke-miterlimit:1;" x1="264.631" y1="147.785" x2="276.48" y2="147.785"/>
	<line style="fill:none;stroke:#000000;stroke-miterlimit:1;" x1="276.48" y1="147.785" x2="275.493" y2="145.811"/>
	<line style="fill:none;stroke:#000000;stroke-miterlimit:1;" x1="275.493" y1="145.811" x2="270.556" y2="145.481"/>
	<line style="fill:none;stroke:#000000;stroke-miterlimit:1;" x1="270.556" y1="145.481" x2="258.377" y2="139.886"/>
	<line style="fill:none;stroke:#000000;stroke-miterlimit:1;" x1="258.377" y1="139.886" x2="256.073" y2="136.595"/>
	<line style="fill:none;stroke:#000000;stroke-miterlimit:1;" x1="256.073" y1="136.595" x2="254.099" y2="136.595"/>
	<line style="fill:none;stroke:#000000;stroke-miterlimit:1;" x1="254.099" y1="136.595" x2="250.148" y2="138.569"/>
	<line style="fill:none;stroke:#000000;stroke-miterlimit:1;" x1="250.148" y1="138.569" x2="246.199" y2="138.569"/>
	<line style="fill:none;stroke:#000000;stroke-miterlimit:1;" x1="246.199" y1="138.569" x2="234.35" y2="135.277"/>
	<line style="fill:none;stroke:#000000;stroke-miterlimit:1;" x1="234.35" y1="135.277" x2="227.767" y2="134.619"/>
	<line style="fill:none;stroke:#000000;stroke-miterlimit:1;" x1="227.767" y1="134.619" x2="214.602" y2="135.936"/>
	<line style="fill:none;stroke:#000000;stroke-miterlimit:1;" x1="214.602" y1="135.936" x2="203.739" y2="139.228"/>
	<line style="fill:none;stroke:#000000;stroke-miterlimit:1;" x1="203.739" y1="139.228" x2="195.84" y2="129.683"/>
	<line style="fill:none;stroke:#000000;stroke-miterlimit:1;" x1="190.574" y1="140.215" x2="183.662" y2="143.177"/>
	<line style="fill:none;stroke:#000000;stroke-miterlimit:1;" x1="183.662" y1="143.177" x2="176.092" y2="145.481"/>
	<line style="fill:none;stroke:#000000;stroke-miterlimit:1;" x1="176.092" y1="145.481" x2="176.092" y2="148.114"/>
	<line style="fill:none;stroke:#000000;stroke-miterlimit:1;" x1="176.092" y1="148.114" x2="182.017" y2="148.114"/>
	<line style="fill:none;stroke:#000000;stroke-miterlimit:1;" x1="182.017" y1="148.114" x2="193.207" y2="144.165"/>
	<line style="fill:none;stroke:#000000;stroke-miterlimit:1;" x1="254.099" y1="136.595" x2="256.073" y2="133.961"/>
	<line style="fill:none;stroke:#000000;stroke-miterlimit:1;" x1="256.073" y1="133.961" x2="257.061" y2="130.999"/>
	<line style="fill:none;stroke:#000000;stroke-miterlimit:1;" x1="257.061" y1="130.999" x2="258.048" y2="124.087"/>
	<line style="fill:none;stroke:#000000;stroke-miterlimit:1;" x1="258.048" y1="124.087" x2="258.048" y2="119.479"/>
	<line style="fill:none;stroke:#000000;stroke-miterlimit:1;" x1="258.048" y1="119.479" x2="256.731" y2="113.226"/>
	<line style="fill:none;stroke:#000000;stroke-miterlimit:1;" x1="256.731" y1="113.226" x2="256.402" y2="107.959"/>
	<line style="fill:none;stroke:#000000;stroke-miterlimit:1;" x1="256.402" y1="107.959" x2="257.39" y2="90.186"/>
	<line style="fill:none;stroke:#000000;stroke-miterlimit:1;" x1="257.39" y1="90.186" x2="259.365" y2="75.374"/>
	<line style="fill:none;stroke:#000000;stroke-miterlimit:1;" x1="260.023" y1="69.778" x2="261.011" y2="63.524"/>
	<line style="fill:none;stroke:#000000;stroke-miterlimit:1;" x1="261.011" y1="63.524" x2="263.644" y2="55.954"/>
	<line style="fill:none;stroke:#000000;stroke-miterlimit:1;" x1="263.644" y1="55.954" x2="265.618" y2="53.979"/>
	<line style="fill:none;stroke:#000000;stroke-miterlimit:1;" x1="265.618" y1="53.979" x2="267.594" y2="53.979"/>
	<line style="fill:none;stroke:#000000;stroke-miterlimit:1;" x1="267.594" y1="53.979" x2="277.468" y2="75.044"/>
	<line style="fill:none;stroke:#000000;stroke-miterlimit:1;" x1="277.468" y1="75.044" x2="260.023" y2="69.778"/>
	<line style="fill:none;stroke:#000000;stroke-miterlimit:1;" x1="260.023" y1="69.778" x2="251.795" y2="67.474"/>
	<line style="fill:none;stroke:#000000;stroke-miterlimit:1;" x1="251.795" y1="67.474" x2="248.503" y2="61.55"/>
	<line style="fill:none;stroke:#000000;stroke-miterlimit:1;" x1="248.503" y1="61.55" x2="246.199" y2="58.917"/>
	<line style="fill:none;stroke:#000000;stroke-miterlimit:1;" x1="246.199" y1="58.917" x2="240.933" y2="56.613"/>
	<line style="fill:none;stroke:#000000;stroke-miterlimit:1;" x1="240.933" y1="56.613" x2="237.642" y2="56.613"/>
	<line style="fill:none;stroke:#000000;stroke-miterlimit:1;" x1="237.642" y1="56.613" x2="234.679" y2="56.942"/>
	<line style="fill:none;stroke:#000000;stroke-miterlimit:1;" x1="234.679" y1="56.942" x2="235.008" y2="57.929"/>
	<line style="fill:none;stroke:#000000;stroke-miterlimit:1;" x1="235.008" y1="57.929" x2="238.3" y2="58.258"/>
	<line style="fill:none;stroke:#000000;stroke-miterlimit:1;" x1="238.3" y1="58.258" x2="241.591" y2="59.904"/>
	<line style="fill:none;stroke:#000000;stroke-miterlimit:1;" x1="241.591" y1="59.904" x2="243.896" y2="61.221"/>
	<line style="fill:none;stroke:#000000;stroke-miterlimit:1;" x1="243.896" y1="61.221" x2="244.883" y2="64.183"/>
	<line style="fill:none;stroke:#000000;stroke-miterlimit:1;" x1="244.883" y1="64.183" x2="242.249" y2="64.512"/>
	<line style="fill:none;stroke:#000000;stroke-miterlimit:1;" x1="242.249" y1="64.512" x2="239.287" y2="62.537"/>
	<line style="fill:none;stroke:#000000;stroke-miterlimit:1;" x1="239.287" y1="62.537" x2="238.3" y2="63.854"/>
	<line style="fill:none;stroke:#000000;stroke-miterlimit:1;" x1="238.3" y1="63.854" x2="240.933" y2="66.487"/>
	<line style="fill:none;stroke:#000000;stroke-miterlimit:1;" x1="240.933" y1="66.487" x2="243.565" y2="68.462"/>
	<line style="fill:none;stroke:#000000;stroke-miterlimit:1;" x1="243.565" y1="68.462" x2="250.148" y2="70.766"/>
	<line style="fill:none;stroke:#000000;stroke-miterlimit:1;" x1="250.148" y1="70.766" x2="262.327" y2="77.678"/>
	<line style="fill:none;stroke:#000000;stroke-miterlimit:1;" x1="262.327" y1="77.678" x2="272.859" y2="81.957"/>
	<line style="fill:none;stroke:#000000;stroke-miterlimit:1;" x1="272.859" y1="81.957" x2="283.722" y2="84.59"/>
	<line style="fill:none;stroke:#000000;stroke-miterlimit:1;" x1="283.722" y1="84.59" x2="286.025" y2="83.932"/>
	<line style="fill:none;stroke:#000000;stroke-miterlimit:1;" x1="286.025" y1="83.932" x2="287.013" y2="80.969"/>
	<line style="fill:none;stroke:#000000;stroke-miterlimit:1;" x1="287.013" y1="80.969" x2="286.684" y2="77.678"/>
	<line style="fill:none;stroke:#000000;stroke-miterlimit:1;" x1="286.684" y1="77.678" x2="274.505" y2="48.384"/>
	<line style="fill:none;stroke:#000000;stroke-miterlimit:1;" x1="274.505" y1="48.384" x2="269.568" y2="42.789"/>
	<line style="fill:none;stroke:#000000;stroke-miterlimit:1;" x1="269.568" y1="42.789" x2="262.327" y2="38.181"/>
	<line style="fill:none;stroke:#000000;stroke-miterlimit:1;" x1="262.327" y1="38.181" x2="254.428" y2="37.193"/>
	<line style="fill:none;stroke:#000000;stroke-miterlimit:1;" x1="254.428" y1="37.193" x2="254.099" y2="31.269"/>
</g>
</svg>
