<?xml version="1.0" encoding="UTF-8"?>
<!-- Created with Inkscape (http://www.inkscape.org/) -->
<svg xmlns:dc="http://purl.org/dc/elements/1.1/" xmlns:cc="http://creativecommons.org/ns#" xmlns:rdf="http://www.w3.org/1999/02/22-rdf-syntax-ns#" xmlns:svg="http://www.w3.org/2000/svg" xmlns="http://www.w3.org/2000/svg" xmlns:inkscape="http://www.inkscape.org/namespaces/inkscape" version="1.1" width="765" height="990" id="svg2" xml:space="preserve">
  <metadata id="metadata8">
    <rdf:RDF>
      <cc:Work rdf:about="">
        <dc:format>image/svg+xml</dc:format>
        <dc:type rdf:resource="http://purl.org/dc/dcmitype/StillImage"/>
      </cc:Work>
    </rdf:RDF>
  </metadata>
  <defs id="defs6"/>
  <g transform="matrix(1.25,0,0,-1.25,0,990)" id="g10">
    <g transform="scale(0.1,0.1)" id="g12">
      <path d="m 5118,723.602 13.2,-240 -26.4,-363.602 124.8,-82.8008 -814.8,0 154.8,79.1988 -100.8,478.801 2.4,49.199 16.8,22.801 26.4,20.403 19.2,7.199 20.4,0 26.4,-7.199 19.2,-6 208.8,-261.602 0,92.398 13.2,90 13.2,49.204 9.6,45.597 6,43.199 0,30 -26.4,22.801 -19.2,20.403 -13.2,19.199 -3.6,19.199 6,24 16.8,30 30,32.398 32.4,43.204 30,55.198 26.4,43.2 10.8,39.6 -4.8,30 -2.4,32.4 -20.4,24 -75.6,9.6 -19.2,39.6 -9.6,32.4 -14.4,20.4 14.4,22.8 21.6,26.4 14.4,30 2.4,13.2 165.6,-7.2 28.8,-13.2 0,-16.8 -6,-21.6 -13.2,-10.8 -13.2,-16.8 -9.6,-19.2 -9.6,-563.999 204,0 -13.2,635.999 -13.2,56.4 -36,45.6 -26.4,30 -33.6,13.2 -43.2,7.2 -22.8,3.6 -32.4,-7.2 -26.4,-6 -30,-7.2 -19.2,-16.8 -20.4,-19.2 -19.2,-33.6 -10.8,-28.8" inkscape:connector-curvature="0" id="path14" style="stroke:#000000;stroke-width:8;stroke-miterlimit:4;stroke-dasharray:none;fill:none;stroke-opacity:1"/>
      <path d="m 4870.8,1330.8 56.4,-3.6 -16.8,14.4 -20.4,2.4 -19.2,-16.8" inkscape:connector-curvature="0" id="path16" style="stroke:#000000;stroke-width:8;stroke-miterlimit:4;stroke-dasharray:none;fill:none;stroke-opacity:1"/>
      <path d="m 4603.2,684 -45.6,56.398 -30,13.204 -72,0 19.2,-92.403" inkscape:connector-curvature="0" id="path18" style="stroke:#000000;stroke-width:8;stroke-miterlimit:4;stroke-dasharray:none;fill:none;stroke-opacity:1"/>
      <path d="m 4510.8,753.602 0,461.998 105.6,96 -214.8,0 105.6,-96" inkscape:connector-curvature="0" id="path20" style="stroke:#000000;stroke-width:8;stroke-miterlimit:4;stroke-dasharray:none;fill:none;stroke-opacity:1"/>
      <path d="m 4180.8,1155.6 -777.6,0 9.6,66 10.8,43.2 15.6,43.2 22.8,33.6 20.4,28.8 26.4,36 30,26.4 36,26.4 30,20.4 42,19.2 43.2,13.2 30,7.2 51.6,6 40.8,0 36,-6 39.6,-7.2 43.2,-9.6 28.8,-9.6 39.6,-26.4 33.6,-24 28.8,-22.8 26.4,-32.4 27.6,-37.2 22.8,-36 15.6,-32.4 13.2,-50.4 10.8,-36 2.4,-39.6" inkscape:connector-curvature="0" id="path22" style="stroke:#000000;stroke-width:8;stroke-miterlimit:4;stroke-dasharray:none;fill:none;stroke-opacity:1"/>
      <path d="m 3302.4,1155.6 -778.8,0 10.8,66 9.6,43.2 15.6,43.2 24,33.6 19.2,28.8 26.4,36 30,26.4 36,26.4 30,20.4 43.2,19.2 42,13.2 30,7.2 52.8,6 39.6,0 36,-6 39.6,-7.2 43.2,-9.6 28.8,-9.6 40.8,-26.4 32.4,-24 30,-22.8 26.4,-32.4 26.4,-37.2 22.8,-36 16.8,-32.4 13.2,-50.4 9.6,-36 3.6,-39.6" inkscape:connector-curvature="0" id="path24" style="stroke:#000000;stroke-width:8;stroke-miterlimit:4;stroke-dasharray:none;fill:none;stroke-opacity:1"/>
      <path d="m 633.602,51.6016 -616.8012,0 L 24,104.398 32.3984,138 l 13.2032,33.602 18,26.398 15.5976,24 20.4024,28.801 24.0004,20.398 28.796,21.602 24,15.597 L 210,324 l 34.801,10.801 22.801,4.801 42,6 31.199,0 28.801,-6 31.199,-4.801 34.801,-8.403 22.796,-7.199 32.403,-21.597 25.199,-18 24,-19.204 20.398,-25.199 21.602,-30 18,-28.801 13.199,-25.199 10.801,-39.597 7.199,-28.8012 2.403,-31.1992" inkscape:connector-curvature="0" id="path26" style="stroke:#000000;stroke-width:8;stroke-miterlimit:4;stroke-dasharray:none;fill:none;stroke-opacity:1"/>
      <path d="M 3525.6,649.199 3508.8,630 l -8.4,-26.398 -7.2,-26.403 0,-62.398 2.4,-37.199 7.2,-39.602 6,-28.801 10.8,-37.199 16.8,-45.602 15.6,-46.796 43.2,-72 26.4,-33.602 33.6,-43.199 38.4,-32.4026 L 3730.8,72 3763.2,49.1992 3796.8,36 l 32.4,-10.8008 32.4,-6 30,-7.1992 60,0 26.4,10.8008 26.4,9.5976 26.4,13.2032 26.4,13.1992 22.8,20.3984 16.8,19.1992 16.8,19.2036 9.6,26.398 15.6,30 3.6,24 7.2,32.398 -3.6,30 -3.6,32.403 -9.6,30 -13.2,32.398 -16.8,33.602 -22.8,36 -26.4,33.597 -26.4,30 -30,28.801 -30,26.403 -36,22.796 -36,27.602 -49.2,26.398 -36,19.204 -43.2,13.199 -46.8,13.199 -38.4,9.602 -37.2,3.597 -26.4,0 -30,-3.597 -15.6,-3.602 -20.4,-2.398 -26.4,-20.403" inkscape:connector-curvature="0" id="path28" style="stroke:#000000;stroke-width:8;stroke-miterlimit:4;stroke-dasharray:none;fill:none;stroke-opacity:1"/>
      <path d="m 668.398,516 210,-471.6016 104.403,0 L 774,516 668.398,516" inkscape:connector-curvature="0" id="path30" style="stroke:#000000;stroke-width:8;stroke-miterlimit:4;stroke-dasharray:none;fill:none;stroke-opacity:1"/>
      <path d="M 985.199,516 1195.2,44.3984 l 104.4,0 L 1090.8,516 985.199,516" inkscape:connector-curvature="0" id="path32" style="stroke:#000000;stroke-width:8;stroke-miterlimit:4;stroke-dasharray:none;fill:none;stroke-opacity:1"/>
      <path d="m 967.199,1141.2 18,31.2 22.801,24 34.8,7.2 28.8,-4.8 20.4,-18 10.8,-15.6 8.4,-37.2 0,-424.801 -1014.0008,0 0,424.801 10.8008,37.2 8.398,15.6 20.403,18 28.801,4.8 37.199,-7.2 22.801,-24 15.597,-28.8" inkscape:connector-curvature="0" id="path34" style="stroke:#000000;stroke-width:8;stroke-miterlimit:4;stroke-dasharray:none;fill:none;stroke-opacity:1"/>
      <path d="m 631.199,1528.8 -42,0 -15.597,-2.4 -28.801,-6 -18,-2.4 -15.602,-4.8 -15.597,-4.8 -20.403,-6 -19.199,-7.2 -18,-8.4 -15.602,-7.2 -15.597,-10.8 -15.602,-10.8 -15.597,-9.6 -13.204,-13.2 -28.796,-26.4 -10.801,-13.2 L 312,1384.8 294,1358.4 278.398,1332 270,1316.4 l -4.801,-18 -10.801,-37.2 -7.199,-15.6 -2.398,-22.8 -3.602,-15.6 0,-73.2 3.602,-19.2 9.597,-36 6,-24 4.801,-13.2 10.801,-24 4.801,-15.6 15.597,-15.602 4.801,-13.199 13.199,-15.597 10.801,-13.204 13.199,-18 26.403,-22.796 18,-13.204 L 402,877.199 411.602,868.801 428.398,858 444,850.801 l 22.801,-8.403 15.597,-7.199 21.602,-6 12,-2.398 19.199,-4.801 18,-2.398 20.403,-3.602 39.597,0 18,3.602 6,-3.602 20.403,3.602 16.796,2.398 20.403,4.801 10.801,2.398 20.398,6 15.602,7.199 24,8.403 15.597,7.199 15.602,10.801 9.597,8.398 21.602,13.199 15.602,13.204 26.398,22.796 13.199,18 10.801,13.204 13.199,15.597 7.199,13.199 13.204,15.602 8.398,15.6 7.199,24 8.403,13.2 4.796,24 8.403,36 2.398,19.2 0,73.2 -2.398,15.6 -3.602,22.8 -4.801,15.6 -4.796,26.4 -13.204,28.8 -8.398,15.6 -9.602,18 -24,34.8 -8.398,10.8 -10.801,13.2 -31.199,26.4 -13.199,13.2 -13.199,9.6 -15.602,10.8 -18,10.8 -13.199,7.2 -20.403,8.4 -15.597,7.2 -24,6 -13.199,4.8 -18,4.8 -15.602,2.4 -15.602,6 -31.199,2.4 -19.199,0" inkscape:connector-curvature="0" id="path36" style="stroke:#000000;stroke-width:8;stroke-miterlimit:4;stroke-dasharray:none;fill:none;stroke-opacity:1"/>
      <path d="m 1863.6,1136.4 -9.6,-46.8 -39.6,-15.6 -36,-33.6 -10.8,-28.8 3.6,-33.6 19.2,-43.199 50.4,-66 79.2,-79.199 213.6,-132 115.2,-62.403 96,-39.597 56.4,-36 36,-22.801 75.6,-80.403 9.6,-2.398 0,39.602 L 2490,582 l -49.2,198 -43.2,168 -56.4,139.2 -55.2,94.8 -46.8,62.4 -52.8,46.8 -38.4,22.8 -67.2,13.2 -49.2,-3.6 -52.8,-19.2 -124.8,-105.6 -52.8,-39.6 -30,-9.6 -26.4,6 -13.2,30 13.2,43.2 43.2,56.4 39.6,58.8 16.8,52.8 2.4,49.2 -15.6,37.2 -33.6,26.4 -39.6,13.2 -36,-7.2 -39.6,-13.2 -22.8,-16.8 -20.4,-13.2 -9.6,-19.2 -13.2,-33.6 6,-36 13.2,-13.2 16.8,-13.2 13.2,-15.6 3.6,-20.4 -3.6,-30 -85.2,-158.4 -13.2,-52.8 0,-49.2 16.8,-49.198 32.4,-33.602 122.4,-79.199 22.8,-32.403 92.4,-118.796 28.8,-36 40.8,-37.204 104.4,-49.199 14.4,-3.597 13.2,-45.602 72,-105.602 9.6,-24 6,-25.199 33.6,-241.199 -3.6,-26.398 -6,-13.204 L 2148,106.801 2028,97.1992 1956,90 1933.2,76.8008 1929.6,54 1950,40.8008" inkscape:connector-curvature="0" id="path38" style="stroke:#000000;stroke-width:8;stroke-miterlimit:4;stroke-dasharray:none;fill:none;stroke-opacity:1"/>
      <path d="m 1945.2,86.3984 -25.2,-9.5976 -13.2,-13.1992 -3.6,-22.8008 26.4,9.5976" inkscape:connector-curvature="0" id="path40" style="stroke:#000000;stroke-width:8;stroke-miterlimit:4;stroke-dasharray:none;fill:none;stroke-opacity:1"/>
      <path d="m 2005.2,76.8008 -30,-2.4024 -12,-16.7968 -3.6,-13.2032 28.8,3.6016" inkscape:connector-curvature="0" id="path42" style="stroke:#000000;stroke-width:8;stroke-miterlimit:4;stroke-dasharray:none;fill:none;stroke-opacity:1"/>
      <path d="m 2078.4,90 -52.8,-6 -33.6,-13.1992 0,-20.4024 16.8,-9.5976 33.6,3.5976 147.6,13.2032 118.8,-16.8008 16.8,3.5976 0,19.2032 -7.2,16.7968 -79.2,19.2032 -9.6,10.7964 -19.2,226.801 2.4,43.199 -9.6,33.602 -19.2,56.398 -10.8,118.801" inkscape:connector-curvature="0" id="path44" style="stroke:#000000;stroke-width:8;stroke-miterlimit:4;stroke-dasharray:none;fill:none;stroke-opacity:1"/>
      <path d="m 2176.8,552 66,-16.801 85.2,-9.597 60,0" inkscape:connector-curvature="0" id="path46" style="stroke:#000000;stroke-width:8;stroke-miterlimit:4;stroke-dasharray:none;fill:none;stroke-opacity:1"/>
      <path d="m 2325.6,74.3984 15.6,-3.5976 13.2,-13.1992 3.6,-13.2032 -30,6" inkscape:connector-curvature="0" id="path48" style="stroke:#000000;stroke-width:8;stroke-miterlimit:4;stroke-dasharray:none;fill:none;stroke-opacity:1"/>
      <path d="m 1912.8,651.602 26.4,-211.204 -2.4,-30 -156,-284.398 -9.6,-13.199 -16.8,-2.403 -198,-20.398 -15.6,-6 0,-7.1992 -20.4,-2.4024 -9.6,-7.1992 -3.6,-16.8008 -2.4,-13.1992 25.2,20.4024 7.2,-13.2032 26.4,0" inkscape:connector-curvature="0" id="path50" style="stroke:#000000;stroke-width:8;stroke-miterlimit:4;stroke-dasharray:none;fill:none;stroke-opacity:1"/>
      <path d="M 1599.6,74.3984 1573.2,67.1992 1563.6,54 l 7.2,-13.1992 32.4,9.5976" inkscape:connector-curvature="0" id="path52" style="stroke:#000000;stroke-width:8;stroke-miterlimit:4;stroke-dasharray:none;fill:none;stroke-opacity:1"/>
      <path d="m 1708.8,90 -82.8,-13.1992 -22.8,-2.4024 0,-24 13.2,-9.5976 132,13.1992 42,7.1992 L 1867.2,48 1896,40.8008" inkscape:connector-curvature="0" id="path54" style="stroke:#000000;stroke-width:8;stroke-miterlimit:4;stroke-dasharray:none;fill:none;stroke-opacity:1"/>
      <path d="m 1912.8,76.8008 -68.4,16.8008 -7.2,10.7964 3.6,15.602 115.2,207.602 16.8,20.398 15.6,32.398 7.2,33.602 60,134.398" inkscape:connector-curvature="0" id="path56" style="stroke:#000000;stroke-width:8;stroke-miterlimit:4;stroke-dasharray:none;fill:none;stroke-opacity:1"/>
      <path d="m 1626,1459.2 -121.2,-22.8 -26.4,-13.2 -27.6,-22.8 -15.6,-43.2 20.4,13.2 38.4,20.4 49.2,13.2 33.6,0 36,6" inkscape:connector-curvature="0" id="path58" style="stroke:#000000;stroke-width:8;stroke-miterlimit:4;stroke-dasharray:none;fill:none;stroke-opacity:1"/>
      <path d="m 1442.4,1360.8 49.2,6 51.6,3.6 43.2,-7.2 33.6,3.6 15.6,0" inkscape:connector-curvature="0" id="path60" style="stroke:#000000;stroke-width:8;stroke-miterlimit:4;stroke-dasharray:none;fill:none;stroke-opacity:1"/>
      <path d="m 1689.6,1446 6,-19.2 9.6,-3.6 13.2,0 9.6,9.6 0,13.2 -6,9.6 -13.2,3.6 -10.8,-3.6 -8.4,-13.2" inkscape:connector-curvature="0" id="path62" style="stroke:#000000;stroke-width:8;stroke-miterlimit:4;stroke-dasharray:none;fill:none;stroke-opacity:1"/>
    </g>
  </g>
</svg>
