<?xml version="1.0" encoding="UTF-8"?>
<!-- Created with Inkscape (http://www.inkscape.org/) -->
<svg xmlns:dc="http://purl.org/dc/elements/1.1/" xmlns:cc="http://creativecommons.org/ns#" xmlns:rdf="http://www.w3.org/1999/02/22-rdf-syntax-ns#" xmlns:svg="http://www.w3.org/2000/svg" xmlns="http://www.w3.org/2000/svg" xmlns:inkscape="http://www.inkscape.org/namespaces/inkscape" version="1.1" width="765" height="990" id="svg2" xml:space="preserve">
  <metadata id="metadata8">
    <rdf:RDF>
      <cc:Work rdf:about="">
        <dc:format>image/svg+xml</dc:format>
        <dc:type rdf:resource="http://purl.org/dc/dcmitype/StillImage"/>
      </cc:Work>
    </rdf:RDF>
  </metadata>
  <defs id="defs6"/>
  <g transform="matrix(1.25,0,0,-1.25,0,990)" id="g10">
    <g transform="scale(0.1,0.1)" id="g12">
      <path d="M 784.801,420 909.602,540" inkscape:connector-curvature="0" id="path14" style="stroke:#000000;stroke-width:8;stroke-miterlimit:4;stroke-dasharray:none;fill:none;stroke-opacity:1"/>
      <path d="M 739.199,436.801 894,584.398" inkscape:connector-curvature="0" id="path16" style="stroke:#000000;stroke-width:8;stroke-miterlimit:4;stroke-dasharray:none;fill:none;stroke-opacity:1"/>
      <path d="M 710.398,469.199 864,616.801" inkscape:connector-curvature="0" id="path18" style="stroke:#000000;stroke-width:8;stroke-miterlimit:4;stroke-dasharray:none;fill:none;stroke-opacity:1"/>
      <path d="M 694.801,514.801 817.199,631.199" inkscape:connector-curvature="0" id="path20" style="stroke:#000000;stroke-width:8;stroke-miterlimit:4;stroke-dasharray:none;fill:none;stroke-opacity:1"/>
      <path d="m 847.199,624 -9.597,3.602 -10.801,3.597 -12,2.403 -12,0 -12,-1.204 L 780,631.199 769.199,627.602 758.398,624 747.602,619.199 738,612 l -7.199,-6 -8.403,-8.398 -4.796,-6 -6,-9.602 -7.204,-12 -2.398,-9.602 -3.602,-10.796 -1.199,-9.602 -2.398,-13.199 0,-10.801 2.398,-12 2.403,-10.801 2.398,-9.597 4.801,-10.801 3.597,-6 L 714,462 l 9.602,-9.602 9.597,-10.796 9.602,-6 9.597,-6 12,-6 10.801,-2.403 9.602,-2.398 12,0 12,-1.199 13.199,1.199 9.602,2.398 10.796,4.801 12,6 7.204,3.602 9.597,8.398 8.403,7.199 8.398,8.403 6,10.796 7.199,9.602 4.801,9.602 2.398,10.796 1.204,10.801 2.398,13.199 -1.199,9.602 -1.199,13.199 -2.403,10.801 -3.597,8.398 -4.801,13.204 -7.199,9.597 -6,7.199 -8.403,9.602 -9.597,7.199 L 858,620.398 847.199,624" inkscape:connector-curvature="0" id="path22" style="stroke:#000000;stroke-width:8;stroke-miterlimit:4;stroke-dasharray:none;fill:none;stroke-opacity:1"/>
      <path d="m 1225.2,337.199 -13.2,0 -13.2,3.602 -10.8,4.801 -8.4,6 -15.6,16.796 -14.4,16.801 -13.2,18 -7.2,14.403 -4.8,12 -6,20.398 -2.4,24 2.4,12 6,13.199 12,14.403 -18,6 -13.2,10.796 -22.8,30 15.6,-45.597 10.8,-37.199 1.2,-19.204 3.6,-14.398 4.8,-15.602 4.8,-14.398 7.2,-12 8.4,-13.199 9.6,-10.801 9.6,-10.801 9.6,-10.801 6,-6 4.8,-4.796 -20.4,7.199 -20.4,7.199 -19.2,10.801 -20.4,19.199 -10.8,16.801 -9.6,14.398 -8.4,19.199 -7.2,21.602 -6,21.602 -2.4,20.398 -2.4,15.602 2.4,16.796 3.6,14.403 16.8,21.597 8.4,9.602 -21.6,9.602 -18,14.398 -18,26.398 10.8,-40.796 10.8,-39.602 -1.2,-26.398 1.2,-20.403 3.6,-20.398 3.6,-18 4.8,-15.602 6,-14.398 7.2,-14.403 8.4,-18 25.2,-30 -19.2,10.801 -19.2,10.801 -20.4,18 -19.2,19.199 -13.2,20.403 -7.2,20.398 -4.8,21.602 1.2,21.597 3.6,8.403 6,10.796 7.2,9.602 -18,9.602 -18,13.199 -21.602,28.801 14.403,-42 15.597,-43.204 2.403,-15.597 1.199,-12 4.8,-18 9.6,-22.801 7.2,-10.801 12,-13.199 9.6,-9.602 14.4,-10.796 12,-10.801 18,-9.602 19.2,-12 45.6,-18 37.2,-12 27.6,-6 12,-1.199 0,6" inkscape:connector-curvature="0" id="path24" style="stroke:#000000;stroke-width:8;stroke-miterlimit:4;stroke-dasharray:none;fill:none;stroke-opacity:1"/>
      <path d="m 694.801,280.801 0,-268.801 48,0 0,268.801 -48,0" inkscape:connector-curvature="0" id="path26" style="stroke:#000000;stroke-width:8;stroke-miterlimit:4;stroke-dasharray:none;fill:none;stroke-opacity:1"/>
      <path d="m 934.801,280.801 0,-268.801 49.199,0 0,268.801 -49.199,0" inkscape:connector-curvature="0" id="path28" style="stroke:#000000;stroke-width:8;stroke-miterlimit:4;stroke-dasharray:none;fill:none;stroke-opacity:1"/>
      <path d="m 1177.2,280.801 0,-268.801 48,0 0,268.801 -48,0" inkscape:connector-curvature="0" id="path30" style="stroke:#000000;stroke-width:8;stroke-miterlimit:4;stroke-dasharray:none;fill:none;stroke-opacity:1"/>
      <path d="M 237.602,483.602 220.801,466.801 216,444 l 3.602,-21.602 10.796,-16.796 25.204,-25.204 45.597,-24 79.199,-30 93.602,-19.199 93.602,-10.801 30,-2.398 19.199,-1.199 10.801,2.398 4.796,4.801 0,7.199 -6,6 -37.199,7.199 -24,10.801 -14.398,9.602 -32.403,27.597 L 468,414 l -49.199,38.398 -45.602,25.204 -44.398,18 -32.403,9.597 -30,1.199 -24,-6 -19.199,-9.597 -14.398,-8.403 -7.199,-6 L 192,474 l -10.801,3.602 -1.199,9.597 54,44.403 10.801,12 7.199,15.597 1.199,13.199 -1.199,13.204" inkscape:connector-curvature="0" id="path32" style="stroke:#000000;stroke-width:8;stroke-miterlimit:4;stroke-dasharray:none;fill:none;stroke-opacity:1"/>
      <path d="M 238.801,594 296.398,567.602 355.199,546 408,535.199 463.199,531.602 504,529.199 535.199,534 492,541.199 444,544.801 390,553.199 350.398,564 303.602,580.801 268.801,596.398 246,610.801 320.398,582 l 46.801,-8.398 25.199,-3.602 52.801,-4.801 48,2.403 28.801,3.597 24,1.199 -51.602,4.801 -43.199,3.602 L 408,582 l -37.199,6 -45.602,9.602 -42,12 -27.597,13.199 -19.204,12 -15.597,4.801 -13.199,2.398 -30,-4.801 -24,-8.398 -9.602,-6 -4.801,-10.801 -2.398,-2.398 0,-10.801 L 144,588 l 8.398,-2.398 8.403,-3.602 14.398,-3.602 16.801,0 9.602,3.602 8.398,1.199 4.801,-6 L 216,564 l -15.602,-18 -25.199,-18 -22.801,-21.602 -10.796,-15.597 -8.403,-12 L 128.398,456 132,444 147.602,418.801 190.801,372 l 26.398,-22.801 30,-22.801 44.403,-19.199 26.398,-38.398 27.602,-32.403 18,-19.199 4.796,-12 8.403,-88.801 0,-58.7964 -2.403,-9.6016 -9.597,-2.3984 -60,-8.4024 -3.602,-1.1992 -8.398,-2.3984 -3.602,-4.8008 0,-8.4024 8.403,4.8008 9.597,-3.5976" inkscape:connector-curvature="0" id="path34" style="stroke:#000000;stroke-width:8;stroke-miterlimit:4;stroke-dasharray:none;fill:none;stroke-opacity:1"/>
      <path d="m 346.801,37.1992 -34.801,-6 -4.801,-3.5976 1.199,-7.2032 10.801,6 8.403,-6 55.199,7.2032 43.199,-7.2032 1.199,7.2032 -2.398,6 -12,3.5976 -12,3.6016 L 396,42 l -3.602,9.6016 -1.199,141.5974 2.403,16.801 0,4.801 -9.602,18 -9.602,16.801 L 343.199,300" inkscape:connector-curvature="0" id="path36" style="stroke:#000000;stroke-width:8;stroke-miterlimit:4;stroke-dasharray:none;fill:none;stroke-opacity:1"/>
      <path d="m 355.199,285.602 50.403,-6 40.796,1.199 52.801,6 26.403,-24 31.199,-28.801 15.597,-1.199 15.602,3.597 15.602,14.403 3.597,10.801 -33.597,34.796" inkscape:connector-curvature="0" id="path38" style="stroke:#000000;stroke-width:8;stroke-miterlimit:4;stroke-dasharray:none;fill:none;stroke-opacity:1"/>
      <path d="m 136.801,610.801 -120.0002,-72 138.0002,44.398" inkscape:connector-curvature="0" id="path40" style="stroke:#000000;stroke-width:8;stroke-miterlimit:4;stroke-dasharray:none;fill:none;stroke-opacity:1"/>
      <path d="M 139.199,591.602 16.8008,538.801" inkscape:connector-curvature="0" id="path42" style="stroke:#000000;stroke-width:8;stroke-miterlimit:4;stroke-dasharray:none;fill:none;stroke-opacity:1"/>
      <path d="m 164.398,613.199 -6,-3.597 3.602,-6 7.199,2.398 -3.597,4.801" inkscape:connector-curvature="0" id="path44" style="stroke:#000000;stroke-width:8;stroke-miterlimit:4;stroke-dasharray:none;fill:none;stroke-opacity:1"/>
      <path d="M 429.602,32.3984 440.398,30 l 6,-3.6016 1.204,-3.5976 -7.204,-2.4024 -8.398,1.2032" inkscape:connector-curvature="0" id="path46" style="stroke:#000000;stroke-width:8;stroke-miterlimit:4;stroke-dasharray:none;fill:none;stroke-opacity:1"/>
      <path d="M 223.199,343.199 252,288 l 32.398,-49.199 3.602,-12 -90,-162.0002 -4.801,-7.1992 -3.597,-6 L 180,48 l -33.602,-6 -21.597,-3.6016 -8.403,-4.7968 -6,-1.2032 -8.398,-1.1992 -2.3984,-2.3984 -2.4024,-7.1992 7.1988,4.7968 10.801,-4.7968" inkscape:connector-curvature="0" id="path48" style="stroke:#000000;stroke-width:8;stroke-miterlimit:4;stroke-dasharray:none;fill:none;stroke-opacity:1"/>
      <path d="m 129.602,30 -4.801,0 -7.199,-1.1992 -2.403,-6 2.403,-1.1992 8.398,3.5976" inkscape:connector-curvature="0" id="path50" style="stroke:#000000;stroke-width:8;stroke-miterlimit:4;stroke-dasharray:none;fill:none;stroke-opacity:1"/>
      <path d="m 132,31.1992 9.602,2.4024 L 163.199,36" inkscape:connector-curvature="0" id="path52" style="stroke:#000000;stroke-width:8;stroke-miterlimit:4;stroke-dasharray:none;fill:none;stroke-opacity:1"/>
      <path d="m 127.199,25.1992 12,-4.8008 50.403,6 8.398,1.2032 40.801,-7.2032 1.199,7.2032 -1.199,6 -12,3.5976 L 210,42" inkscape:connector-curvature="0" id="path54" style="stroke:#000000;stroke-width:8;stroke-miterlimit:4;stroke-dasharray:none;fill:none;stroke-opacity:1"/>
      <path d="m 208.801,44.3984 -1.199,7.2032 85.199,141.5974 21.597,37.199 0,12 -15.597,52.801" inkscape:connector-curvature="0" id="path56" style="stroke:#000000;stroke-width:8;stroke-miterlimit:4;stroke-dasharray:none;fill:none;stroke-opacity:1"/>
      <path d="M 243.602,32.3984 253.199,30 258,26.3984 l 1.199,-3.5976 -6,-2.4024 -9.597,1.2032" inkscape:connector-curvature="0" id="path58" style="stroke:#000000;stroke-width:8;stroke-miterlimit:4;stroke-dasharray:none;fill:none;stroke-opacity:1"/>
    </g>
  </g>
</svg>
