<?xml version="1.0" encoding="UTF-8"?>
<!-- Created with Inkscape (http://www.inkscape.org/) -->
<svg xmlns:dc="http://purl.org/dc/elements/1.1/" xmlns:cc="http://creativecommons.org/ns#" xmlns:rdf="http://www.w3.org/1999/02/22-rdf-syntax-ns#" xmlns:svg="http://www.w3.org/2000/svg" xmlns="http://www.w3.org/2000/svg" xmlns:inkscape="http://www.inkscape.org/namespaces/inkscape" version="1.1" width="765" height="990" id="svg2" xml:space="preserve">
  <metadata id="metadata8">
    <rdf:RDF>
      <cc:Work rdf:about="">
        <dc:format>image/svg+xml</dc:format>
        <dc:type rdf:resource="http://purl.org/dc/dcmitype/StillImage"/>
      </cc:Work>
    </rdf:RDF>
  </metadata>
  <defs id="defs6"/>
  <g transform="matrix(1.25,0,0,-1.25,0,990)" id="g10">
    <g transform="scale(0.1,0.1)" id="g12">
      <path d="m 2554.8,632.398 -34.8,2.403 -37.2,8.398 -28.8,15.602 -25.2,15.597 -42,45.602 -39.6,45.602 -38.4,51.597 -18,39.602 -13.2,31.199 -19.2,58.801 -4.8,69.599 4.8,32.4 19.2,37.2 31.2,40.8 -50.4,15.6 -37.2,28.8 -61.2,84 42,-126 30,-104.4 4.8,-52.8 8.4,-43.199 13.2,-43.199 13.2,-37.204 21.6,-34.796 21.6,-37.204 26.4,-30 28.8,-31.199 25.2,-27.597 18,-18 13.2,-10.801 -56.4,18 -57.6,21.597 -54,26.403 -56.4,56.398 -31.2,45.602 -24,40.801 -24,52.796 -21.6,62.403 -15.6,57.599 -8.4,56.4 -6,45.6 6,48 13.2,37.2 45.6,62.4 24,26.4 -61.2,26.4 -48,37.2 -54,75.6 32.4,-112.8 31.2,-109.2 -4.8,-75.6 2.4,-56.4 10.8,-55.2 8.4,-51.599 15.6,-45.602 15.6,-39.597 19.2,-39.602 26.4,-50.398 67.2,-84 -54,30 -50.4,32.398 -56.4,48 -55.2,52.801 -37.2,58.801 -19.2,56.398 -13.2,61.2 6,60 7.2,22.8 15.6,32.4 21.6,24 -50.4,27.6 -48,36 -61.2,81.6 39.6,-117.6 42,-121.2 8.4,-42 3.6,-32.4 13.2,-51.599 26.4,-63.602 21.6,-32.398 31.2,-33.602 27.6,-27.597 37.2,-32.403 37.2,-26.398 48,-28.801 52.8,-32.398 126,-50.403 104.4,-34.801 76.8,-14.398 32.4,-4.801 0,15.602" inkscape:connector-curvature="0" id="path14" style="stroke:#000000;stroke-width:8;stroke-miterlimit:4;stroke-dasharray:none;fill:none;stroke-opacity:1"/>
      <path d="m 606,556.801 -82.801,2.398 -68.398,-27.597 -31.199,-16.801 -32.403,-40.801 -12,-45.602 0,-44.398 15.602,-36 44.398,-37.199 57.602,-26.403 51.597,-19.199" inkscape:connector-curvature="0" id="path16" style="stroke:#000000;stroke-width:8;stroke-miterlimit:4;stroke-dasharray:none;fill:none;stroke-opacity:1"/>
      <path d="m 586.801,265.199 102,0 42,9.602" inkscape:connector-curvature="0" id="path18" style="stroke:#000000;stroke-width:8;stroke-miterlimit:4;stroke-dasharray:none;fill:none;stroke-opacity:1"/>
      <path d="m 768,284.398 55.199,38.403 79.199,-60 90,-55.199 L 1056,186" inkscape:connector-curvature="0" id="path20" style="stroke:#000000;stroke-width:8;stroke-miterlimit:4;stroke-dasharray:none;fill:none;stroke-opacity:1"/>
      <path d="m 1098,178.801 210,-31.199 45.6,-22.801 19.2,-42.0002 9.6,-57.6016 15.6,19.1992 7.2,38.4024 0,42.0002 -16.8,54 -28.8,55.199 -38.4,54 -48,54 -92.4,74.398 -69.6,40.801 -63.6,25.199 -55.202,16.801 -54,9.602 -76.796,-9.602 -25.204,-34.801 -7.199,-54" inkscape:connector-curvature="0" id="path22" style="stroke:#000000;stroke-width:8;stroke-miterlimit:4;stroke-dasharray:none;fill:none;stroke-opacity:1"/>
      <path d="M 829.199,445.199 813.602,474 l -28.801,37.199 -48,26.403 -86.403,15.597" inkscape:connector-curvature="0" id="path24" style="stroke:#000000;stroke-width:8;stroke-miterlimit:4;stroke-dasharray:none;fill:none;stroke-opacity:1"/>
      <path d="m 571.199,495.602 194.403,297.597 124.796,151.199 146.402,152.402 188.4,138 67.2,28.8 55.2,7.2 79.2,2.4 80.4,-13.2 -339.6,-501.602 -184.799,-195.597 -98.403,36 -70.796,6 -70.801,-6 -67.199,-26.403 -82.801,-69.597" inkscape:connector-curvature="0" id="path26" style="stroke:#000000;stroke-width:8;stroke-miterlimit:4;stroke-dasharray:none;fill:none;stroke-opacity:1"/>
      <path d="M 513.602,553.199 502.801,672 l 3.597,184.801 38.403,227.999 28.801,88.8 45.597,90 44.403,70.8 44.398,50.4 38.398,28.8 38.403,26.4 76.801,25.2 -16.801,-566.399" inkscape:connector-curvature="0" id="path28" style="stroke:#000000;stroke-width:8;stroke-miterlimit:4;stroke-dasharray:none;fill:none;stroke-opacity:1"/>
      <path d="m 385.199,466.801 -64.801,76.801 -37.199,90 -16.801,150 -40.796,115.199 -19.204,70.801 0,98.398 -19.199,-21.6 L 174,973.199 196.801,856.801 222,768 250.801,572.398 228,633.602 151.199,722.398 74.3984,844.801 33.6016,998.398 24,994.801 14.3984,925.199 24,864 46.8008,802.801 129.602,691.199 202.801,604.801 228,547.199 222,474 l 6,-90 28.801,-70.801 74.398,-86.398 12,32.398 -6,28.801" inkscape:connector-curvature="0" id="path30" style="stroke:#000000;stroke-width:8;stroke-miterlimit:4;stroke-dasharray:none;fill:none;stroke-opacity:1"/>
      <path d="m 346.801,236.398 19.199,28.801 15.602,48 7.199,51.602" inkscape:connector-curvature="0" id="path32" style="stroke:#000000;stroke-width:8;stroke-miterlimit:4;stroke-dasharray:none;fill:none;stroke-opacity:1"/>
      <path d="m 295.199,348 9.602,7.199 0,28.801 -6,15.602 -15.602,6 -13.199,-8.403 0,-22.801 13.199,-19.199 15.602,-3.597" inkscape:connector-curvature="0" id="path34" style="stroke:#000000;stroke-width:8;stroke-miterlimit:4;stroke-dasharray:none;fill:none;stroke-opacity:1"/>
      <path d="M 446.398,304.801 481.199,205.199 477.602,176.398 426,76.8008 400.801,60 l -60,-2.3984 -9.602,-9.6016 -10.801,6 -12,-15.6016 6,-9.5976 6,6 16.801,3.5976 3.602,-13.1992 96,0" inkscape:connector-curvature="0" id="path36" style="stroke:#000000;stroke-width:8;stroke-miterlimit:4;stroke-dasharray:none;fill:none;stroke-opacity:1"/>
      <path d="M 490.801,282 513.602,199.199 506.398,172.801 452.398,54" inkscape:connector-curvature="0" id="path38" style="stroke:#000000;stroke-width:8;stroke-miterlimit:4;stroke-dasharray:none;fill:none;stroke-opacity:1"/>
      <path d="m 538.801,342 -3.602,-21.602 36,-90 2.403,-28.796 -6,-28.801 L 529.199,73.1992 516,60 454.801,57.6016 446.398,48 l -7.199,-22.8008 9.602,0 L 462,42 l 3.602,-16.8008 73.199,3.6016 63.597,159.5972 0,26.403 L 564,320.398" inkscape:connector-curvature="0" id="path40" style="stroke:#000000;stroke-width:8;stroke-miterlimit:4;stroke-dasharray:none;fill:none;stroke-opacity:1"/>
      <path d="M 648,262.801 669.602,211.199 673.199,186 648,67.1992 l -13.199,-9.5976 -55.199,0 L 577.199,44.3984 564,54 550.801,34.8008 558,25.1992 l 15.602,13.1992 3.597,-13.1992 60,3.6016" inkscape:connector-curvature="0" id="path42" style="stroke:#000000;stroke-width:8;stroke-miterlimit:4;stroke-dasharray:none;fill:none;stroke-opacity:1"/>
      <path d="M 675.602,268.801 702,207.602 702,182.398 675.602,54" inkscape:connector-curvature="0" id="path44" style="stroke:#000000;stroke-width:8;stroke-miterlimit:4;stroke-dasharray:none;fill:none;stroke-opacity:1"/>
      <path d="M 704.398,358.801 702,332.398 l 54,-90 3.602,-31.199 -16.801,-137.9998 -12,-19.1992 -55.199,0 -6,-9.6016 -13.204,3.6016 -12,-13.1992 3.602,-9.6016 15.602,13.1992 6,-13.1992 86.398,3.6016 15.602,15.5976 19.199,179.9996 -9.602,34.801 -50.398,80.403" inkscape:connector-curvature="0" id="path46" style="stroke:#000000;stroke-width:8;stroke-miterlimit:4;stroke-dasharray:none;fill:none;stroke-opacity:1"/>
      <path d="m 807.602,390 82.796,13.199 102,-3.597 19.202,-9.602 13.2,-19.199 76.8,-198 28.8,-25.199 114,-93.602 20.4,-6 12,-22.8008 L 1244.4,42 1219.2,31.1992 1104,118.801 l -34.8,44.398 -28.8,63.602 -54.002,121.199 -15.597,10.801 -93.602,-13.199 -80.398,-6" inkscape:connector-curvature="0" id="path48" style="stroke:#000000;stroke-width:8;stroke-miterlimit:4;stroke-dasharray:none;fill:none;stroke-opacity:1"/>
      <path d="m 2235.6,162 -543.6,0 7.2,46.801 7.2,30 10.8,30 16.8,22.801 13.2,20.398 19.2,25.199 20.4,19.199 25.2,18 21.6,14.403 28.8,13.199 30,9.602 21.6,4.796 36,3.602 27.6,0 26.4,-3.602 26.4,-4.796 30,-7.204 21.6,-7.199 26.4,-18 24,-16.801 20.4,-15.597 18,-22.801 19.2,-25.199 15.6,-26.403 12,-22.796 8.4,-33.602 7.2,-26.398 2.4,-27.602" inkscape:connector-curvature="0" id="path50" style="stroke:#000000;stroke-width:8;stroke-miterlimit:4;stroke-dasharray:none;fill:none;stroke-opacity:1"/>
      <path d="m 2445.6,63.6016 156,142.7964 147.6,-142.7964" inkscape:connector-curvature="0" id="path52" style="stroke:#000000;stroke-width:8;stroke-miterlimit:4;stroke-dasharray:none;fill:none;stroke-opacity:1"/>
      <path d="m 2809.2,128.398 -138,140.403 147.6,140.398" inkscape:connector-curvature="0" id="path54" style="stroke:#000000;stroke-width:8;stroke-miterlimit:4;stroke-dasharray:none;fill:none;stroke-opacity:1"/>
      <path d="M 2754,481.199 2607.6,340.801 2460,492" inkscape:connector-curvature="0" id="path56" style="stroke:#000000;stroke-width:8;stroke-miterlimit:4;stroke-dasharray:none;fill:none;stroke-opacity:1"/>
      <path d="M 2395.2,429.602 2538,278.398 2385.6,133.199" inkscape:connector-curvature="0" id="path58" style="stroke:#000000;stroke-width:8;stroke-miterlimit:4;stroke-dasharray:none;fill:none;stroke-opacity:1"/>
      <path d="m 2580,15.6016 63.6,1.1992 37.2,9.5976 32.4,14.4024 36,25.1992 28.8,25.1992 27.6,29.9998 18,30 18,32.403 9.6,32.398 4.8,37.199 0,37.199 -12,63.602 -14.4,34.801 -20.4,33.597 -22.8,33.602 -34.8,30 -27.6,18 -26.4,12 -26.4,8.398 -33.6,7.204 -36,2.398 -45.6,0 -36,-9.602 -34.8,-13.199 -32.4,-19.199 -30,-25.199 -27.6,-32.403 L 2370,402 2359.2,379.199 2349.6,354 l -9.6,-43.199 0,-42 4.8,-30 4.8,-32.403 10.8,-32.398 16.8,-37.199 27.6,-33.602 27.6,-26.3982 31.2,-24 L 2497.2,36 2535.6,22.8008 2580,15.6016" inkscape:connector-curvature="0" id="path60" style="stroke:#000000;stroke-width:8;stroke-miterlimit:4;stroke-dasharray:none;fill:none;stroke-opacity:1"/>
    </g>
  </g>
</svg>
