<?xml version="1.0" encoding="UTF-8"?>
<!-- Created with Inkscape (http://www.inkscape.org/) -->
<svg xmlns:dc="http://purl.org/dc/elements/1.1/" xmlns:cc="http://creativecommons.org/ns#" xmlns:rdf="http://www.w3.org/1999/02/22-rdf-syntax-ns#" xmlns:svg="http://www.w3.org/2000/svg" xmlns="http://www.w3.org/2000/svg" xmlns:inkscape="http://www.inkscape.org/namespaces/inkscape" version="1.1" width="765" height="990" id="svg2" xml:space="preserve">
  <metadata id="metadata8">
    <rdf:RDF>
      <cc:Work rdf:about="">
        <dc:format>image/svg+xml</dc:format>
        <dc:type rdf:resource="http://purl.org/dc/dcmitype/StillImage"/>
      </cc:Work>
    </rdf:RDF>
  </metadata>
  <defs id="defs6"/>
  <g transform="matrix(1.25,0,0,-1.25,0,990)" id="g10">
    <g transform="scale(0.1,0.1)" id="g12">
      <path d="m 506.398,662.398 153.602,0 -2.398,55.204 12,72 18,43.199 27.597,67.199 138,243.6 9.602,52.8 0,25.2 -2.403,44.4 -7.199,30 -22.801,38.4 -27.597,34.8 -18,20.4 -44.403,30 -25.199,12 -34.801,13.2 -50.398,7.2 -70.801,-7.2 -24,-10.8 -31.199,-19.2 -27.602,-27.6 -9.597,-22.8 -12,-20.4 -294,-62.4 -22.801,-7.2 -12,-13.2 -7.199,-9.6 -2.403,-18 360,60" inkscape:connector-curvature="0" id="path14" style="stroke:#000000;stroke-width:8;stroke-miterlimit:4;stroke-dasharray:none;fill:none;stroke-opacity:1"/>
      <path d="m 118.801,1224 16.801,-4.8 34.796,-2.4 314.403,39.6 -8.403,34.8 -19.199,52.8" inkscape:connector-curvature="0" id="path16" style="stroke:#000000;stroke-width:8;stroke-miterlimit:4;stroke-dasharray:none;fill:none;stroke-opacity:1"/>
      <path d="m 489.602,1256.4 14.398,2.4 26.398,0 84,-20.4 40.801,-4.8 25.199,-2.4 69.602,7.2 22.801,-21.6 4.801,-30 -2.403,-25.2 -12,-31.2 -111.597,-145.201 -64.801,-87.597 -24,-44.403 -27.602,-52.801 -18,-68.398 -10.801,-69.602" inkscape:connector-curvature="0" id="path18" style="stroke:#000000;stroke-width:8;stroke-miterlimit:4;stroke-dasharray:none;fill:none;stroke-opacity:1"/>
      <path d="m 712.801,1436.4 128.398,-44.4 127.199,-30 52.802,-9.6 44.4,-3.6 52.8,0 63.6,3.6 42,9.6 46.8,9.6 6,-4.8 -6,-18 -16.8,-12 -60,-12 -57.6,-8.4 -70.8,0 -57.6,6 -97.199,16.8 -55.199,18" inkscape:connector-curvature="0" id="path20" style="stroke:#000000;stroke-width:8;stroke-miterlimit:4;stroke-dasharray:none;fill:none;stroke-opacity:1"/>
      <path d="m 768,1399.2 210,-108 63.6,-27.6 46.8,-14.4 48,-13.2 34.8,-9.6 64.8,-2.4 27.6,-2.4 15.6,0 9.6,-2.4 2.4,-15.6 -46.8,-14.4 -38.4,-2.4 -49.2,4.8 -68.4,16.8 -120.002,48 L 828,1336.8" inkscape:connector-curvature="0" id="path22" style="stroke:#000000;stroke-width:8;stroke-miterlimit:4;stroke-dasharray:none;fill:none;stroke-opacity:1"/>
      <path d="M 549.602,1378.8 535.199,1376.4 522,1362 l 0,-18 13.199,-12 16.801,0 15.602,7.2 2.398,9.6 -4.801,15.6 -10.801,14.4" inkscape:connector-curvature="0" id="path24" style="stroke:#000000;stroke-width:8;stroke-miterlimit:4;stroke-dasharray:none;fill:none;stroke-opacity:1"/>
      <path d="m 1599.6,1350 13.2,0 6,9.6 0,9.6 -9.6,3.6 -13.2,0 -6,-9.6 3.6,-9.6 9.6,-3.6" inkscape:connector-curvature="0" id="path26" style="stroke:#000000;stroke-width:8;stroke-miterlimit:4;stroke-dasharray:none;fill:none;stroke-opacity:1"/>
      <path d="m 1858.8,1267.2 -45.6,13.2 -44.4,-3.6 -60,-9.6 -103.2,-13.2 -82.8,-3.6 -31.2,10.8 -20.4,8.4 -8.4,26.4 0,25.2 6,28.8 25.2,28.8 32.4,28.8 34.8,22.8 28.8,9.6 26.4,9.6 63.6,6 42,0 66,-15.6 82.8,-64.8 76.8,-66 80.4,-93.6 28.8,-60 9.6,-80.4 -15.6,-111.598 -19.2,-67.204 -26.4,-67.199 -57.6,-105.597 -85.2,-182.403 -39.6,-128.398 -9.6,-40.801 -8.4,-44.398 8.4,-103.204 32.4,-57.597 51.6,-38.403 63.6,-12 61.2,21.602 31.2,28.801 19.2,32.398 22.8,105.602 -3.6,128.398 -19.2,146.403 3.6,76.796 9.6,76.801 21.6,42 32.4,31.199 28.8,19.204 38.4,15.597 54,-2.398 51.6,-13.199 44.4,-34.801 32.4,-42 25.2,-63.602 13.2,-67.199 -19.2,-195.602 -38.4,-192 3.6,-60 12,-61.199 44.4,-76.8006 -2.4,-9.5976 -26.4,7.1992 -63.6,69.6016 -21.6,99.5974 0,144 25.2,156 3.6,80.403 -3.6,90 -28.8,54 -15.6,12 -22.8,16.796 -48,0 -42,-36 -21.6,-75.597 0,-96 31.2,-176.403 0,-76.796 -9.6,-76.801 -40.8,-98.403 -28.8,-39.5972 -51.6,-37.1992 -54,-16.8008 -54,-6 -105.6,6 L 1788,48 l -54,36 -45.6,40.801 -31.2,42 -34.8,90 -9.6,67.199 3.6,57.602 15.6,159.597 -9.6,102 -9.6,128.403 -42,150 -2.4,57.597 -3.6,67.201 22.8,90 34.8,50.4 44.4,48 76.8,34.8" inkscape:connector-curvature="0" id="path28" style="stroke:#000000;stroke-width:8;stroke-miterlimit:4;stroke-dasharray:none;fill:none;stroke-opacity:1"/>
      <path d="M 249.602,20.3984 574.801,333.602" inkscape:connector-curvature="0" id="path30" style="stroke:#000000;stroke-width:8;stroke-miterlimit:4;stroke-dasharray:none;fill:none;stroke-opacity:1"/>
      <path d="M 132,66 532.801,450" inkscape:connector-curvature="0" id="path32" style="stroke:#000000;stroke-width:8;stroke-miterlimit:4;stroke-dasharray:none;fill:none;stroke-opacity:1"/>
      <path d="m 54,148.801 402,384" inkscape:connector-curvature="0" id="path34" style="stroke:#000000;stroke-width:8;stroke-miterlimit:4;stroke-dasharray:none;fill:none;stroke-opacity:1"/>
      <path d="m 14.3984,266.398 320.4026,306" inkscape:connector-curvature="0" id="path36" style="stroke:#000000;stroke-width:8;stroke-miterlimit:4;stroke-dasharray:none;fill:none;stroke-opacity:1"/>
      <path d="m 412.801,555.602 -27.602,7.199 -27.597,9.597 -30,4.801 -30,0 -33.602,-2.398 -26.398,-2.403 -30,-9.597 L 180,552 152.398,540 127.199,522 106.801,504 86.3984,484.801 72,466.801 56.3984,444 39.6016,411.602 31.1992,387.602 24,360 l -4.8008,-28.801 -4.8008,-32.398 0,-27.602 4.8008,-32.398 7.1992,-27.602 8.4024,-25.199 12,-27.602 L 54,144 63.6016,130.801 88.8008,103.199 114,78 136.801,61.1992 164.398,45.6016 194.398,30 l 30,-7.1992 25.204,-7.1992 30,0 30,-2.4024 36,4.8008 24,4.8008 30,13.1992 30,15.6016 20.398,9.5976 22.801,20.4024 22.801,19.1994 22.796,22.801 16.801,27.597 18,25.199 12,25.204 7.199,30 2.403,27.597 6,32.403 -2.403,27.597 -3.597,32.403 -7.199,27.597 -9.602,25.199 -12,32.403 -18,25.199 -18,20.398 -19.199,24 -25.199,19.204 -25.204,16.796 -27.597,13.204" inkscape:connector-curvature="0" id="path38" style="stroke:#000000;stroke-width:8;stroke-miterlimit:4;stroke-dasharray:none;fill:none;stroke-opacity:1"/>
      <path d="m 1318.8,158.398 -591.601,0 7.199,49.204 7.204,32.398 13.199,32.398 16.801,26.403 15.597,21.597 19.199,27.602 22.801,20.398 28.801,20.403 21.602,14.398 32.398,15.602 32.398,9.597 22.801,6 40.801,4.801 30,0 27.6,-4.801 30,-6 32.4,-7.199 22.8,-8.398 30,-19.199 25.2,-18 22.8,-16.801 19.2,-25.199 20.4,-27.602 16.8,-27.602 13.2,-25.199 9.6,-38.398 8.4,-26.403 2.4,-30" inkscape:connector-curvature="0" id="path40" style="stroke:#000000;stroke-width:8;stroke-miterlimit:4;stroke-dasharray:none;fill:none;stroke-opacity:1"/>
    </g>
  </g>
</svg>
