<?xml version="1.0" encoding="UTF-8"?>
<!-- Created with Inkscape (http://www.inkscape.org/) -->
<svg xmlns:dc="http://purl.org/dc/elements/1.1/" xmlns:cc="http://creativecommons.org/ns#" xmlns:rdf="http://www.w3.org/1999/02/22-rdf-syntax-ns#" xmlns:svg="http://www.w3.org/2000/svg" xmlns="http://www.w3.org/2000/svg" xmlns:inkscape="http://www.inkscape.org/namespaces/inkscape" version="1.1" width="765" height="990" id="svg2" xml:space="preserve">
  <metadata id="metadata8">
    <rdf:RDF>
      <cc:Work rdf:about="">
        <dc:format>image/svg+xml</dc:format>
        <dc:type rdf:resource="http://purl.org/dc/dcmitype/StillImage"/>
      </cc:Work>
    </rdf:RDF>
  </metadata>
  <defs id="defs6"/>
  <g transform="matrix(1.25,0,0,-1.25,0,990)" id="g10">
    <g transform="scale(0.1,0.1)" id="g12">
      <path d="m 855.602,30 -30,2.3984 -31.204,7.2032 L 769.199,52.8008 748.801,66 l -36,38.398 -33.602,39.602 -32.398,43.199 -15.602,33.602 -12,26.398 -15.597,50.403 -4.801,58.796 4.801,27.602 15.597,31.199 27.602,33.602 -43.199,14.398 -31.204,25.199 -52.796,69.602 37.199,-106.801 24,-88.801 4.801,-44.398 7.199,-36 10.801,-36 10.796,-32.398 19.204,-28.801 18,-32.403 22.796,-25.199 24,-26.398 20.403,-22.801 15.597,-15.6016 12,-9.5976 -48,15.5976 -49.199,18 -45.597,22.8006 -46.801,48 -27.602,38.403 -20.398,33.597 -20.403,45.602 -18,51.597 -14.398,50.403 -6,46.801 -4.801,39.597 L 450,504 l 12,31.199 37.199,51.602 20.403,24 L 468,632.398 427.199,664.801 381.602,727.199 409.199,632.398 436.801,540 432,476.398 l 2.398,-46.796 8.403,-48 L 450,338.398 463.199,300 477.602,265.199 493.199,231.602 516,188.398 572.398,118.801 526.801,144 l -43.199,26.398 -46.801,40.801 -48,45.602 -31.199,50.398 L 340.801,354 330,405.602 333.602,456 l 7.199,20.398 14.398,27.602 18,20.398 L 330,546 289.199,578.398 237.602,646.801 271.199,546 l 36,-100.801 7.199,-37.199 1.204,-26.398 12,-43.204 22.796,-55.199 18,-26.398 26.403,-30 24,-21.602 L 450,177.602 481.199,154.801 522,129.602 567.602,102 674.398,58.8008 762,30 l 66,-10.8008 27.602,-4.8008 0,13.2032" inkscape:connector-curvature="0" id="path14" style="stroke:#000000;stroke-width:8;stroke-miterlimit:4;stroke-dasharray:none;fill:none;stroke-opacity:1"/>
      <path d="m 330,822 128.398,0 -2.398,48 13.199,62.398 13.199,36 25.204,57.602 117.597,208.8 7.199,44.4 2.403,21.6 -4.801,39.6 -6,25.2 -12,31.2 -18,30 -15.602,18 -38.398,36 -30,12 -62.398,6 -51.602,-6 -21.602,-9.6 -25.199,-16.8 -24,-26.4 -10.801,-14.4 -10.796,-13.2" inkscape:connector-curvature="0" id="path16" style="stroke:#000000;stroke-width:8;stroke-miterlimit:4;stroke-dasharray:none;fill:none;stroke-opacity:1"/>
      <path d="m 297.602,1410 -19.204,-8.4 -209.9996,-40.8 -19.1992,-14.4 -15.5976,-10.8 -13.2032,-24 -3.5976,-34.8 2.3984,-8.4 6,-3.6 4.8008,0 9.6016,3.6 4.7968,19.2 12,19.2 20.4024,18 21.5976,6 27.6016,9.6 174,22.8 3.602,2.4 26.398,-4.8" inkscape:connector-curvature="0" id="path18" style="stroke:#000000;stroke-width:8;stroke-miterlimit:4;stroke-dasharray:none;fill:none;stroke-opacity:1"/>
      <path d="m 300,1410 30,-50.4 0,-28.8" inkscape:connector-curvature="0" id="path20" style="stroke:#000000;stroke-width:8;stroke-miterlimit:4;stroke-dasharray:none;fill:none;stroke-opacity:1"/>
      <path d="m 49.1992,1290 19.1992,13.2 31.2032,8.4 84.0004,8.4 84,10.8 63.597,0 18,-2.4 34.801,-8.4 58.801,-10.8 32.398,-2.4 24,2.4 26.403,7.2 14.398,-9.6 6,-9.6 2.398,-26.4 -2.398,-21.6 -10.801,-25.2 -93.597,-124.8 -48,-75.6 -19.204,-38.401 -24,-45.597 L 338.398,882 330,822" inkscape:connector-curvature="0" id="path22" style="stroke:#000000;stroke-width:8;stroke-miterlimit:4;stroke-dasharray:none;fill:none;stroke-opacity:1"/>
      <path d="m 513.602,1489.2 111.597,-39.6 109.199,-28.8 45.602,-8.4 38.398,-2.4 48,0 50.403,2.4 38.398,8.4 39.602,8.4 3.597,-3.6 -3.597,-15.6 -15.602,-10.8 -50.398,-9.6 -52.801,-7.2 -57.602,0 -49.199,4.8 -84,14.4 -46.801,15.6" inkscape:connector-curvature="0" id="path24" style="stroke:#000000;stroke-width:8;stroke-miterlimit:4;stroke-dasharray:none;fill:none;stroke-opacity:1"/>
      <path d="m 578.398,1449.6 82.801,-45.6 85.199,-43.2 50.403,-25.2 39.597,-15.6 43.204,-10.8 28.796,-3.6 56.403,-7.2 24,4.8 9.597,2.4 9.602,-7.2 1.2,-12 -31.2,-12 -39.602,-3.6 -42,6 -60,13.2 -52.796,16.8 -49.204,24 -120,68.4" inkscape:connector-curvature="0" id="path26" style="stroke:#000000;stroke-width:8;stroke-miterlimit:4;stroke-dasharray:none;fill:none;stroke-opacity:1"/>
      <path d="m 398.398,1436.4 -13.199,-2.4 -10.801,-13.2 0,-14.4 10.801,-10.8 15.602,0 14.398,6 2.403,8.4 -4.801,13.2 -9.602,13.2" inkscape:connector-curvature="0" id="path28" style="stroke:#000000;stroke-width:8;stroke-miterlimit:4;stroke-dasharray:none;fill:none;stroke-opacity:1"/>
      <path d="m 1264.8,396 0,-376.8008 80.4,0 0,376.8008 -80.4,0" inkscape:connector-curvature="0" id="path30" style="stroke:#000000;stroke-width:8;stroke-miterlimit:4;stroke-dasharray:none;fill:none;stroke-opacity:1"/>
      <path d="m 1264.8,961.199 0,-381.597 80.4,0 0,381.597 -80.4,0" inkscape:connector-curvature="0" id="path32" style="stroke:#000000;stroke-width:8;stroke-miterlimit:4;stroke-dasharray:none;fill:none;stroke-opacity:1"/>
      <path d="m 1264.8,1502.4 0,-380.4 80.4,0 0,380.4 -80.4,0" inkscape:connector-curvature="0" id="path34" style="stroke:#000000;stroke-width:8;stroke-miterlimit:4;stroke-dasharray:none;fill:none;stroke-opacity:1"/>
    </g>
  </g>
</svg>
