<?xml version="1.0" encoding="UTF-8"?>
<!-- Created with Inkscape (http://www.inkscape.org/) -->
<svg xmlns:dc="http://purl.org/dc/elements/1.1/" xmlns:cc="http://creativecommons.org/ns#" xmlns:rdf="http://www.w3.org/1999/02/22-rdf-syntax-ns#" xmlns:svg="http://www.w3.org/2000/svg" xmlns="http://www.w3.org/2000/svg" xmlns:inkscape="http://www.inkscape.org/namespaces/inkscape" version="1.1" width="765" height="990" id="svg2" xml:space="preserve">
  <metadata id="metadata8">
    <rdf:RDF>
      <cc:Work rdf:about="">
        <dc:format>image/svg+xml</dc:format>
        <dc:type rdf:resource="http://purl.org/dc/dcmitype/StillImage"/>
      </cc:Work>
    </rdf:RDF>
  </metadata>
  <defs id="defs6"/>
  <g transform="matrix(1.25,0,0,-1.25,0,990)" id="g10">
    <g transform="scale(0.1,0.1)" id="g12">
      <path d="M 26.3984,204 174,204 l 0,-183.6016 -147.6016,0 0,183.6016" inkscape:connector-curvature="0" id="path14" style="stroke:#000000;stroke-width:8;stroke-miterlimit:4;stroke-dasharray:none;fill:none;stroke-opacity:1"/>
      <path d="m 26.3984,20.3984 147.602,0 0,183.602 -147.602,0 0,-183.602 z" inkscape:connector-curvature="0" id="path16" style="stroke:#000000;stroke-width:8;stroke-miterlimit:4;stroke-dasharray:none;fill:none;stroke-opacity:1"/>
      <path d="m 525.602,412.801 -349.204,0 -21.597,-7.199 -21.602,-6 -20.398,-2.403 -24.0002,0 -25.1992,7.199 -12,4.801 -8.4024,3.602 -21.5976,14.398 -6,8.403 -2.4024,10.796 L 24,450 37.1992,444 57.6016,429.602 72,424.801 l 22.8008,-3.602 13.1992,0 14.398,2.403 16.801,6 -3.597,8.398 -8.403,0 -20.398,-2.398 L 87.6016,438 72,446.398 l 7.1992,10.801 14.4024,-4.801 12.0004,0 13.199,2.403 12,2.398 12,0 15.597,-4.801 16.801,-10.796 54,8.398 40.801,7.199 42,1.199 48,-1.199 38.398,-2.398 33.602,-3.602 21.602,-1.199 10.796,151.199 50.403,0 10.801,-188.398" inkscape:connector-curvature="0" id="path18" style="stroke:#000000;stroke-width:8;stroke-miterlimit:4;stroke-dasharray:none;fill:none;stroke-opacity:1"/>
      <path d="m 198,184.801 0,-159.6018 28.801,0 0,159.6018 -28.801,0" inkscape:connector-curvature="0" id="path20" style="stroke:#000000;stroke-width:8;stroke-miterlimit:4;stroke-dasharray:none;fill:none;stroke-opacity:1"/>
      <path d="m 338.398,184.801 0,-159.6018 30,0 0,159.6018 -30,0" inkscape:connector-curvature="0" id="path22" style="stroke:#000000;stroke-width:8;stroke-miterlimit:4;stroke-dasharray:none;fill:none;stroke-opacity:1"/>
      <path d="m 481.199,184.801 0,-159.6018 28.801,0 0,159.6018 -28.801,0" inkscape:connector-curvature="0" id="path24" style="stroke:#000000;stroke-width:8;stroke-miterlimit:4;stroke-dasharray:none;fill:none;stroke-opacity:1"/>
      <path d="m 148.801,30 -1.199,1.1992 -2.403,2.4024 -8.398,4.7968 -6,4.8008 -6,6 -2.403,6 -6,9.6016 -2.398,12 1.199,13.1992 1.199,14.398 3.602,14.403 0,14.398 -1.199,14.403 -2.403,8.398 -2.398,4.801 -3.602,4.801 -4.796,4.796 -2.403,3.602 -5.9998,2.398 -2.3984,3.602 -6,1.199 -6,1.199 -4.8008,2.403 -6,0 -4.8008,-2.403 -6,-1.199 -3.5976,-2.398 -6,-3.602 -7.2032,-8.398 L 42,162 38.3984,154.801 37.1992,147.602 36,136.801 36,129.602 38.3984,120 39.6016,111.602 40.8008,104.398 48,88.8008 54,80.3984 61.1992,70.8008 70.8008,61.1992 81.6016,51.6016 92.3984,42 108,33.6016 121.199,30 l 8.403,-2.3984 6,-2.4024 8.398,0 3.602,1.1992 1.199,3.6016" inkscape:connector-curvature="0" id="path26" style="stroke:#000000;stroke-width:8;stroke-miterlimit:4;stroke-dasharray:none;fill:none;stroke-opacity:1"/>
      <path d="m 525.602,285.602 -512.4028,0" inkscape:connector-curvature="0" id="path28" style="stroke:#000000;stroke-width:8;stroke-miterlimit:4;stroke-dasharray:none;fill:none;stroke-opacity:1"/>
      <path d="m 48,344.398 28.8008,-120" inkscape:connector-curvature="0" id="path30" style="stroke:#000000;stroke-width:8;stroke-miterlimit:4;stroke-dasharray:none;fill:none;stroke-opacity:1"/>
      <path d="m 158.398,224.398 -30,120" inkscape:connector-curvature="0" id="path32" style="stroke:#000000;stroke-width:8;stroke-miterlimit:4;stroke-dasharray:none;fill:none;stroke-opacity:1"/>
      <path d="m 210,344.398 28.801,-120" inkscape:connector-curvature="0" id="path34" style="stroke:#000000;stroke-width:8;stroke-miterlimit:4;stroke-dasharray:none;fill:none;stroke-opacity:1"/>
      <path d="m 320.398,224.398 -28.796,120" inkscape:connector-curvature="0" id="path36" style="stroke:#000000;stroke-width:8;stroke-miterlimit:4;stroke-dasharray:none;fill:none;stroke-opacity:1"/>
      <path d="m 373.199,344.398 30,-120" inkscape:connector-curvature="0" id="path38" style="stroke:#000000;stroke-width:8;stroke-miterlimit:4;stroke-dasharray:none;fill:none;stroke-opacity:1"/>
      <path d="m 484.801,224.398 -30,120" inkscape:connector-curvature="0" id="path40" style="stroke:#000000;stroke-width:8;stroke-miterlimit:4;stroke-dasharray:none;fill:none;stroke-opacity:1"/>
    </g>
  </g>
</svg>
