<?xml version="1.0" encoding="UTF-8"?>
<!-- Created with Inkscape (http://www.inkscape.org/) -->
<svg xmlns:dc="http://purl.org/dc/elements/1.1/" xmlns:cc="http://creativecommons.org/ns#" xmlns:rdf="http://www.w3.org/1999/02/22-rdf-syntax-ns#" xmlns:svg="http://www.w3.org/2000/svg" xmlns="http://www.w3.org/2000/svg" xmlns:inkscape="http://www.inkscape.org/namespaces/inkscape" version="1.1" width="765" height="990" id="svg2" xml:space="preserve">
  <metadata id="metadata8">
    <rdf:RDF>
      <cc:Work rdf:about="">
        <dc:format>image/svg+xml</dc:format>
        <dc:type rdf:resource="http://purl.org/dc/dcmitype/StillImage"/>
      </cc:Work>
    </rdf:RDF>
  </metadata>
  <defs id="defs6"/>
  <g transform="matrix(1.25,0,0,-1.25,0,990)" id="g10">
    <g transform="scale(0.1,0.1)" id="g12">
      <path d="m 434.398,727.199 38.403,-111.597 0,-26.403 -3.602,-15.597 L 398.398,442.801 387.602,426 372,420 356.398,412.801 271.199,408 250.801,404.398 237.602,394.801 229.199,384 l -2.398,-6 10.801,0 12,10.801 10.796,0 3.602,-9.602 81.602,4.801 52.796,-6 13.204,1.199 9.597,15.602 10.801,-19.199 8.398,0 2.403,10.796 -8.403,18 -4.796,16.801 10.796,28.801 32.403,62.398 15.597,34.801 12,13.199 13.204,13.204 0,21.597 37.199,66" inkscape:connector-curvature="0" id="path14" style="stroke:#000000;stroke-width:8;stroke-miterlimit:4;stroke-dasharray:none;fill:none;stroke-opacity:1"/>
      <path d="M 432,1045.2 392.398,1020 348,1006.8 324,993.602 313.199,974.398 321.602,952.801 342,924 379.199,898.801 945.602,732 l 28.796,-2.398 28.802,0 21.6,9.597 7.2,8.403 -13.2,10.796 L 852,855.602 746.398,930 706.801,969.602 680.398,996 654,1014 l -33.602,21.6 -30,19.2 -44.398,19.2 -31.199,6 -32.403,3.6 -39.597,-1.2 -28.801,-18 -37.199,-26.4 -13.199,-4.8 -15.602,2.4 -8.398,10.8 0,14.4 8.398,14.4 84,171.6 2.398,20.4 1.204,21.6 -1.204,21.6 -9.597,25.2 -10.801,16.8 -18,8.4 -19.199,6 -20.403,0 -21.597,-6 -21.602,-9.6 -15.597,-15.6 -8.403,-10.8 -9.597,-18 -3.602,-10.8 0,-22.8 8.398,-21.6 8.403,-8.4 20.398,-12 10.801,-3.6 18,-7.2 0,-16.8 -7.199,-36 -18,-34.8 -27.602,-31.2 -31.199,-31.2 -39.602,-43.2 -13.199,-28.802 -4.801,-33.597 4.801,-27.602 L 222,903.602 268.801,853.199 432,729.602 522,679.199 552,656.398 574.801,634.801 594,600 609.602,568.801 636,450 l 0,-15.602 -10.801,-6 -15.597,-7.199 L 498,406.801 l -12,-7.199 -8.398,-13.204 -2.403,-8.398 9.602,-2.398 10.801,16.796 4.796,0 3.602,-16.796 111.602,10.796 40.796,-8.398 10.801,3.602 2.403,13.199 16.796,-15.602 8.403,0 3.597,9.602 -3.597,8.398 -16.801,18 -10.801,24 L 660,554.398 667.199,576 660,592.801 l 2.398,50.398 4.801,15.602 72,4.801 26.403,7.199" inkscape:connector-curvature="0" id="path16" style="stroke:#000000;stroke-width:8;stroke-miterlimit:4;stroke-dasharray:none;fill:none;stroke-opacity:1"/>
      <path d="m 928.801,687.602 45.597,7.199 20.403,6 13.199,7.199 -2.4,6 -73.202,21.602" inkscape:connector-curvature="0" id="path18" style="stroke:#000000;stroke-width:8;stroke-miterlimit:4;stroke-dasharray:none;fill:none;stroke-opacity:1"/>
      <path d="m 686.398,782.398 134.403,-169.199 10.801,-10.801 10.796,-2.398 9.602,0 6,6 0,15.602" inkscape:connector-curvature="0" id="path20" style="stroke:#000000;stroke-width:8;stroke-miterlimit:4;stroke-dasharray:none;fill:none;stroke-opacity:1"/>
      <path d="M 741.602,771.602 856.801,624 l 9.597,-6 12,-2.398 8.403,3.597 4.801,7.199 0,7.204" inkscape:connector-curvature="0" id="path22" style="stroke:#000000;stroke-width:8;stroke-miterlimit:4;stroke-dasharray:none;fill:none;stroke-opacity:1"/>
      <path d="m 787.199,763.199 104.403,-126 6,-6 9.597,-2.398 8.403,8.398 0,10.801" inkscape:connector-curvature="0" id="path24" style="stroke:#000000;stroke-width:8;stroke-miterlimit:4;stroke-dasharray:none;fill:none;stroke-opacity:1"/>
      <path d="M 841.199,748.801 916.801,648 l 12,-6 7.199,0 6,4.801 3.602,6 0,6 -58.801,81.597" inkscape:connector-curvature="0" id="path26" style="stroke:#000000;stroke-width:8;stroke-miterlimit:4;stroke-dasharray:none;fill:none;stroke-opacity:1"/>
      <path d="m 319.199,1299.6 4.801,9.6 8.398,6 10.801,2.4 9.602,-4.8 2.398,-8.4 -4.801,-7.2 -8.398,-6 -12,-2.4 -6,7.2 -2.398,13.2" inkscape:connector-curvature="0" id="path28" style="stroke:#000000;stroke-width:8;stroke-miterlimit:4;stroke-dasharray:none;fill:none;stroke-opacity:1"/>
      <path d="m 370.801,1117.2 169.199,-2.4 0,112.8 -9.602,32.4 -24,39.6 -18,20.4 -16.796,13.2 -15.602,10.8 -21.602,10.8 -15.597,4.8 -15.602,4.8 -13.199,0 -13.199,2.4" inkscape:connector-curvature="0" id="path30" style="stroke:#000000;stroke-width:8;stroke-miterlimit:4;stroke-dasharray:none;fill:none;stroke-opacity:1"/>
      <path d="m 282,1306.8 -13.199,-10.8 -13.199,-13.2 -18,-10.8 -27.602,-12 -39.602,-24 -36,-31.2 -24,-28.8 -31.1988,-45.6 -12,-46.8 -7.1992,-25.2 0,-12 7.1992,-3.6 3.6016,3.6 15.5976,39.6 31.2036,49.2 31.199,40.8 25.199,25.2 31.199,21.6 37.199,18 24,6 18,4.8" inkscape:connector-curvature="0" id="path32" style="stroke:#000000;stroke-width:8;stroke-miterlimit:4;stroke-dasharray:none;fill:none;stroke-opacity:1"/>
      <path d="m 75.6016,1048.8 10.7968,6 33.6016,49.2 21.602,31.2 28.796,32.4 32.403,24 31.199,15.6 26.398,13.2 52.801,4.8 19.199,-2.4" inkscape:connector-curvature="0" id="path34" style="stroke:#000000;stroke-width:8;stroke-miterlimit:4;stroke-dasharray:none;fill:none;stroke-opacity:1"/>
      <path d="m 532.801,21.6016 -519.6018,0 7.1992,43.1992 6,28.8008 12,28.7964 L 52.8008,144 66,164.398 l 18,24 19.199,18 24,16.801 20.403,13.199 28.796,13.204 L 204,258 l 20.398,4.801 36,4.801 25.204,0 25.199,-4.801 L 337.199,258 366,252 385.199,244.801 411.602,228 l 21.597,-15.602 20.403,-15.597 16.796,-21.602 18,-24 15.602,-24 10.801,-22.801 9.597,-32.398 6,-25.1992 2.403,-25.1992" inkscape:connector-curvature="0" id="path36" style="stroke:#000000;stroke-width:8;stroke-miterlimit:4;stroke-dasharray:none;fill:none;stroke-opacity:1"/>
      <path d="m 909.602,34.8008 18,-10.8008 13.199,-4.8008 6,0 7.199,6 8.398,9.6016 44.402,76.8012 0,10.796 -2.4,4.801 -4.798,6 L 984,142.801 624,312 l -9.602,2.398 -10.796,2.403 L 592.801,312 582,304.801 l -4.801,-6 -3.597,-13.199 0,-9.602 3.597,-9.602 7.199,-9.597 L 595.199,246 909.602,34.8008" inkscape:connector-curvature="0" id="path38" style="stroke:#000000;stroke-width:8;stroke-miterlimit:4;stroke-dasharray:none;fill:none;stroke-opacity:1"/>
    </g>
  </g>
</svg>
