<?xml version="1.0" encoding="UTF-8"?>
<!-- Created with Inkscape (http://www.inkscape.org/) -->
<svg xmlns:dc="http://purl.org/dc/elements/1.1/" xmlns:cc="http://creativecommons.org/ns#" xmlns:rdf="http://www.w3.org/1999/02/22-rdf-syntax-ns#" xmlns:svg="http://www.w3.org/2000/svg" xmlns="http://www.w3.org/2000/svg" xmlns:inkscape="http://www.inkscape.org/namespaces/inkscape" version="1.1" width="765" height="990" id="svg2" xml:space="preserve">
  <metadata id="metadata8">
    <rdf:RDF>
      <cc:Work rdf:about="">
        <dc:format>image/svg+xml</dc:format>
        <dc:type rdf:resource="http://purl.org/dc/dcmitype/StillImage"/>
      </cc:Work>
    </rdf:RDF>
  </metadata>
  <defs id="defs6"/>
  <g transform="matrix(1.25,0,0,-1.25,0,990)" id="g10">
    <g transform="scale(0.1,0.1)" id="g12">
      <path d="m 484.801,186 192,0 -3.602,70.801 19.199,92.398 19.204,55.199 38.398,85.204 176.398,310.796 9.602,67.204 2.398,32.398 -6,57.602 -9.597,38.398 -15.602,48 -28.801,44.4 -22.796,26.4 -57.602,54 -44.398,15.6 -93.602,9.6 -75.602,-9.6 -32.398,-12 -38.398,-26.4 -34.801,-38.4 -15.602,-22.8 -16.801,-19.2" inkscape:connector-curvature="0" id="path14" style="stroke:#000000;stroke-width:8;stroke-miterlimit:4;stroke-dasharray:none;fill:none;stroke-opacity:1"/>
      <path d="M 436.801,1063.2 408,1050 94.8008,988.801 66,967.199 43.1992,950.398 25.1992,915.602 18,864 l 3.6016,-12 9.5976,-7.199 6,0 L 54,852 l 6,28.801 19.1992,28.801 28.8008,25.199 32.398,9.597 40.801,13.204 259.199,34.796 6,3.602 38.403,-7.199" inkscape:connector-curvature="0" id="path16" style="stroke:#000000;stroke-width:8;stroke-miterlimit:4;stroke-dasharray:none;fill:none;stroke-opacity:1"/>
      <path d="m 440.398,1063.2 44.403,-76.802 0,-42" inkscape:connector-curvature="0" id="path18" style="stroke:#000000;stroke-width:8;stroke-miterlimit:4;stroke-dasharray:none;fill:none;stroke-opacity:1"/>
      <path d="m 66,883.199 28.8008,20.403 48.0002,12 124.801,13.199 124.796,15.597 96,0 25.204,-3.597 51.597,-12 L 654,912 l 48,-2.398 34.801,2.398 39.597,9.602 21.602,-12 9.602,-16.801 3.597,-38.403 -3.597,-31.199 L 792,784.801 651.602,598.801 580.801,487.199 552,429.602 517.199,362.398 498,276 484.801,186" inkscape:connector-curvature="0" id="path20" style="stroke:#000000;stroke-width:8;stroke-miterlimit:4;stroke-dasharray:none;fill:none;stroke-opacity:1"/>
      <path d="m 759.602,1180.8 166.796,-60 162.002,-42 68.4,-13.2 56.4,-2.4 70.8,0 76.8,2.4 57.6,13.2 57.6,13.2 6,-7.2 -6,-21.6 -22.8,-16.8 -76.8,-15.6 -76.8,-9.6 -86.4,0 -73.2,6 -124.8,22.8 -69.598,22.8" inkscape:connector-curvature="0" id="path22" style="stroke:#000000;stroke-width:8;stroke-miterlimit:4;stroke-dasharray:none;fill:none;stroke-opacity:1"/>
      <path d="m 855.602,1120.8 124.796,-67.2 124.802,-64.799 76.8,-38.403 57.6,-21.597 63.6,-16.801 44.4,-6 82.8,-9.602 36,7.204 15.6,2.398 13.2,-9.602 3.6,-19.199 -48,-15.597 -57.6,-7.204 -64.8,9.602 -88.8,19.199 -76.8,26.403 -74.4,34.796 -177.599,102.002" inkscape:connector-curvature="0" id="path24" style="stroke:#000000;stroke-width:8;stroke-miterlimit:4;stroke-dasharray:none;fill:none;stroke-opacity:1"/>
      <path d="M 588,1101.6 567.602,1098 552,1078.8 l 0,-22.8 15.602,-15.6 22.796,0 22.801,9.6 2.403,13.2 -6,19.2 -15.602,19.2" inkscape:connector-curvature="0" id="path26" style="stroke:#000000;stroke-width:8;stroke-miterlimit:4;stroke-dasharray:none;fill:none;stroke-opacity:1"/>
      <path d="M 1972.8,723.602 2401.2,1136.4" inkscape:connector-curvature="0" id="path28" style="stroke:#000000;stroke-width:8;stroke-miterlimit:4;stroke-dasharray:none;fill:none;stroke-opacity:1"/>
      <path d="m 1816.8,783.602 528,503.998" inkscape:connector-curvature="0" id="path30" style="stroke:#000000;stroke-width:8;stroke-miterlimit:4;stroke-dasharray:none;fill:none;stroke-opacity:1"/>
      <path d="m 1714.8,891.602 528,505.198" inkscape:connector-curvature="0" id="path32" style="stroke:#000000;stroke-width:8;stroke-miterlimit:4;stroke-dasharray:none;fill:none;stroke-opacity:1"/>
      <path d="m 1662,1046.4 422.4,403.2" inkscape:connector-curvature="0" id="path34" style="stroke:#000000;stroke-width:8;stroke-miterlimit:4;stroke-dasharray:none;fill:none;stroke-opacity:1"/>
      <path d="m 2186.4,1425.6 -36,10.8 -36,13.2 -39.6,6 -39.6,0 -43.2,-3.6 -36,-2.4 -39.6,-13.2 -36,-13.2 -37.2,-16.8 -32.4,-22.8 -26.4,-22.8 -26.4,-27.6 -20.4,-22.8 -19.2,-28.8 -22.8,-43.2 -9.6,-32.4 -10.8,-37.2 -6,-36 -7.2,-43.2 0,-36 7.2,-43.2 9.6,-36.002 9.6,-33.597 16.8,-36 9.6,-20.403 13.2,-15.597 33.6,-36 32.4,-33.602 30,-22.801 36,-20.398 39.6,-19.199 39.6,-9.602 33.6,-10.801 39.6,0 39.6,-2.398 45.6,6 33.6,7.199 38.4,15.602 39.6,20.398 27.6,13.199 28.8,26.403 30,26.398 28.8,30 24,36 22.8,32.403 16.8,33.597 9.6,39.601 3.6,36 6,43.2 -2.4,36 -3.6,43.2 -9.6,36 -13.2,32.4 -16.8,43.2 -24,33.6 -22.8,26.4 -26.4,32.4 -32.4,24 -33.6,22.8 -36,15.6" inkscape:connector-curvature="0" id="path36" style="stroke:#000000;stroke-width:8;stroke-miterlimit:4;stroke-dasharray:none;fill:none;stroke-opacity:1"/>
      <path d="m 1713.6,609.602 264,-592.8012 132,0 -264,592.8012 -132,0" inkscape:connector-curvature="0" id="path38" style="stroke:#000000;stroke-width:8;stroke-miterlimit:4;stroke-dasharray:none;fill:none;stroke-opacity:1"/>
      <path d="m 2113.2,609.602 264,-592.8012 130.8,0 -264,592.8012 -130.8,0" inkscape:connector-curvature="0" id="path40" style="stroke:#000000;stroke-width:8;stroke-miterlimit:4;stroke-dasharray:none;fill:none;stroke-opacity:1"/>
    </g>
  </g>
</svg>
