<?xml version="1.0" encoding="UTF-8"?>
<!-- Created with Inkscape (http://www.inkscape.org/) -->
<svg xmlns:dc="http://purl.org/dc/elements/1.1/" xmlns:cc="http://creativecommons.org/ns#" xmlns:rdf="http://www.w3.org/1999/02/22-rdf-syntax-ns#" xmlns:svg="http://www.w3.org/2000/svg" xmlns="http://www.w3.org/2000/svg" xmlns:inkscape="http://www.inkscape.org/namespaces/inkscape" version="1.1" width="765" height="990" id="svg2" xml:space="preserve">
  <metadata id="metadata8">
    <rdf:RDF>
      <cc:Work rdf:about="">
        <dc:format>image/svg+xml</dc:format>
        <dc:type rdf:resource="http://purl.org/dc/dcmitype/StillImage"/>
      </cc:Work>
    </rdf:RDF>
  </metadata>
  <defs id="defs6"/>
  <g transform="matrix(1.25,0,0,-1.25,0,990)" id="g10">
    <g transform="scale(0.1,0.1)" id="g12">
      <path d="m 292.801,1033.2 39.597,-3.6 66,9.6 20.403,7.2 51.597,22.8 30,26.4 33.602,43.2 15.602,42 26.398,188.4 27.602,62.4 25.199,37.2 7.199,19.2 -7.199,7.2 -39.602,-33.6 -32.398,-60 L 517.199,1237.2 504,1174.8 490.801,1154.4 474,1131.6 l -28.801,-22.8 -39.597,-16.8 -40.801,-7.2 -55.199,-2.4 -22.801,0 -43.199,6 -39.602,16.8 -45.602,39.6 -26.398,43.2 -9.602,62.4 -33.5972,154.8 -26.4024,60 -32.3984,36 -10.8008,0 0,-16.8 36,-62.4 L 72,1342.8 98.3984,1152 l 26.4026,-43.2 39.597,-36 43.204,-26.4 26.398,-7.2 55.199,-6" inkscape:connector-curvature="0" id="path14" style="stroke:#000000;stroke-width:8;stroke-miterlimit:4;stroke-dasharray:none;fill:none;stroke-opacity:1"/>
      <path d="m 675.602,858 -46.801,75.602 -66,75.598 -45.602,33.6 -32.398,22.8 -86.403,39.6 -109.199,43.2 -49.199,49.2 -16.801,49.2 7.199,62.4 20.403,26.4 22.801,24 39.597,16.8 32.403,0 30,-13.2 19.199,-20.4 10.801,-16.8 9.597,-19.2 0,-26.4 L 402,1254 l -13.199,-13.2 -30,-3.6 -19.199,3.6 -10.801,22.8 7.199,13.2" inkscape:connector-curvature="0" id="path16" style="stroke:#000000;stroke-width:8;stroke-miterlimit:4;stroke-dasharray:none;fill:none;stroke-opacity:1"/>
      <path d="m 362.398,1035.6 -9.597,-43.202" inkscape:connector-curvature="0" id="path18" style="stroke:#000000;stroke-width:8;stroke-miterlimit:4;stroke-dasharray:none;fill:none;stroke-opacity:1"/>
      <path d="m 279.602,997.199 -2.403,38.401" inkscape:connector-curvature="0" id="path20" style="stroke:#000000;stroke-width:8;stroke-miterlimit:4;stroke-dasharray:none;fill:none;stroke-opacity:1"/>
      <path d="m 302.398,16.8008 20.403,0 9.597,13.1992 16.801,15.6016 7.199,16.7968 8.403,33.6016 7.199,32.398 7.199,56.403 2.403,46.801 -2.403,36 -3.597,49.199 -3.602,52.801 -7.199,52.796 -36,356.403" inkscape:connector-curvature="0" id="path22" style="stroke:#000000;stroke-width:8;stroke-miterlimit:4;stroke-dasharray:none;fill:none;stroke-opacity:1"/>
      <path d="m 296.398,778.801 45.602,0 22.801,7.199 10.801,9.602 9.597,15.597 7.199,24 2.403,19.199 7.199,19.204 6,13.199 7.199,10.801 16.801,16.796 19.199,13.204 13.199,6 9.602,3.597 7.199,3.602 3.602,6 0,9.597 -16.801,10.801 -36,9.602 -37.199,9.597 -68.403,6 -37.199,0 L 230.398,990 204,984 164.398,969.602 138,956.398 l -3.602,-15.597 7.204,-7.199 19.199,-3.602 24,-13.199 15.597,-19.199 9.602,-13.204 13.199,-36 3.602,-26.398 7.199,-13.199 9.602,-13.199 13.199,-14.403 13.199,-2.398 19.199,0 -6,-36 L 250.801,402 240,300 237.602,247.199 240,201.602 240,158.398 253.199,102 260.398,69.6016 270,49.1992 277.199,33.6016 286.801,22.8008 300,20.3984" inkscape:connector-curvature="0" id="path24" style="stroke:#000000;stroke-width:8;stroke-miterlimit:4;stroke-dasharray:none;fill:none;stroke-opacity:1"/>
      <path d="m 1657.2,1399.2 135.6,-56.4 22.8,13.2 20.4,0 12,-13.2 4.8,-26.4 -16.8,-20.4 -10.8,-68.4 60,-39.6 55.2,108 7.2,54 0,36 -2.4,26.4 -30,39.6 -49.2,36 -54,13.2 -51.6,0 -43.2,-16.8 -36,-39.6 -24,-45.6" inkscape:connector-curvature="0" id="path26" style="stroke:#000000;stroke-width:8;stroke-miterlimit:4;stroke-dasharray:none;fill:none;stroke-opacity:1"/>
      <path d="m 1674,1342.8 26.4,0 22.8,-22.8 -30,6 -22.8,16.8" inkscape:connector-curvature="0" id="path28" style="stroke:#000000;stroke-width:8;stroke-miterlimit:4;stroke-dasharray:none;fill:none;stroke-opacity:1"/>
      <path d="m 1657.2,1399.2 -15.6,-69.6 -43.2,-75.6 36,-7.2 26.4,-75.6 66,19.2 9.6,-51.6 -138,-60 L 1572,1056 1400.4,850.801 1368,894 l -158.4,141.6 -16.8,67.2 -30,45.6 -42,32.4 -43.2,20.4 -7.2,-20.4 66,-42 20.4,-46.8 -9.6,-16.8 -22.8,13.2 -13.2,14.4 -16.8,-18 30,-28.8 28.8,-16.8 22.8,-22.8 86.4,-122.4 118.8,-118.801 36,-7.199 39.6,24 168,200.398 68.4,-358.796 0,-49.204 -38.4,-220.796 -135.6,168 -60,52.796 -75.6,42 -42,20.403 -33.6,-7.199 -26.4,-36 -6,-46.801 69.6,-336" inkscape:connector-curvature="0" id="path30" style="stroke:#000000;stroke-width:8;stroke-miterlimit:4;stroke-dasharray:none;fill:none;stroke-opacity:1"/>
      <path d="m 1383.6,626.398 -38.4,-81.597 32.4,-63.602 16.8,-49.199 6,-81.602 -6,-99.597" inkscape:connector-curvature="0" id="path32" style="stroke:#000000;stroke-width:8;stroke-miterlimit:4;stroke-dasharray:none;fill:none;stroke-opacity:1"/>
      <path d="m 1908,415.199 -62.4,-6 -190.8,-45.597 -260.4,-112.801 -49.2,-30 -43.2,-19.199 -46.8,-39.602 -9.6,-30 3.6,-36 26.4,-39.6016 49.2,-20.3984 69.6,0 342,30 135.6,-9.6016 118.8,-36 118.8,0 -9.6,19.2032 -49.2,3.5976 -122.4,55.1992 -24,33.6016 -19.2,0 -39.6,-19.199 -39.6,0 -118.8,32.398 -66,7.199 -132,-13.199 -108,-33.597 -79.2,96" inkscape:connector-curvature="0" id="path34" style="stroke:#000000;stroke-width:8;stroke-miterlimit:4;stroke-dasharray:none;fill:none;stroke-opacity:1"/>
      <path d="m 1249.2,96 -69.6,-30 -75.6,-22.8008 0,-26.3984 58.8,0 112.8,39.5976" inkscape:connector-curvature="0" id="path36" style="stroke:#000000;stroke-width:8;stroke-miterlimit:4;stroke-dasharray:none;fill:none;stroke-opacity:1"/>
      <path d="m 1885.2,132 19.2,26.398 10.8,30 9.6,69.602 0,45.602 -13.2,62.398 -3.6,52.801 9.6,178.801 20.4,147.597" inkscape:connector-curvature="0" id="path38" style="stroke:#000000;stroke-width:8;stroke-miterlimit:4;stroke-dasharray:none;fill:none;stroke-opacity:1"/>
      <path d="m 1945.2,801.602 8.4,62.398 27.6,76.801 19.2,19.199 20.4,0 98.4,-211.199 -174,52.801 -82.8,22.796 -33.6,60 -22.8,26.403 -52.8,22.801 -32.4,0 -30,-3.602 2.4,-9.602 33.6,-3.597 33.6,-15.602 22.8,-14.398 9.6,-28.801 -26.4,-3.602 -30,19.204 -9.6,-12 26.4,-26.403 26.4,-20.398 66,-22.801 122.4,-69.602 104.4,-42 109.2,-26.398 24,6 9.6,30 -3.6,32.398 -122.4,294.002 -49.2,56.4 -72,45.6 -79.2,9.6 -3.6,60" inkscape:connector-curvature="0" id="path40" style="stroke:#000000;stroke-width:8;stroke-miterlimit:4;stroke-dasharray:none;fill:none;stroke-opacity:1"/>
      <path d="m 2610,462 0,-445.1992 102,0 0,445.1992 -102,0" inkscape:connector-curvature="0" id="path42" style="stroke:#000000;stroke-width:8;stroke-miterlimit:4;stroke-dasharray:none;fill:none;stroke-opacity:1"/>
      <path d="m 2989.2,1501.2 0,-445.2 99.6,0 0,445.2 -99.6,0" inkscape:connector-curvature="0" id="path44" style="stroke:#000000;stroke-width:8;stroke-miterlimit:4;stroke-dasharray:none;fill:none;stroke-opacity:1"/>
      <path d="m 3364.8,462 0,-445.1992 102,0 0,445.1992 -98.4,0" inkscape:connector-curvature="0" id="path46" style="stroke:#000000;stroke-width:8;stroke-miterlimit:4;stroke-dasharray:none;fill:none;stroke-opacity:1"/>
    </g>
  </g>
</svg>
