<?xml version="1.0" encoding="UTF-8"?>
<!-- Created with Inkscape (http://www.inkscape.org/) -->
<svg xmlns:dc="http://purl.org/dc/elements/1.1/" xmlns:cc="http://creativecommons.org/ns#" xmlns:rdf="http://www.w3.org/1999/02/22-rdf-syntax-ns#" xmlns:svg="http://www.w3.org/2000/svg" xmlns="http://www.w3.org/2000/svg" xmlns:inkscape="http://www.inkscape.org/namespaces/inkscape" version="1.1" width="765" height="990" id="svg2" xml:space="preserve">
  <metadata id="metadata8">
    <rdf:RDF>
      <cc:Work rdf:about="">
        <dc:format>image/svg+xml</dc:format>
        <dc:type rdf:resource="http://purl.org/dc/dcmitype/StillImage"/>
      </cc:Work>
    </rdf:RDF>
  </metadata>
  <defs id="defs6"/>
  <g transform="matrix(1.25,0,0,-1.25,0,990)" id="g10">
    <g transform="scale(0.1,0.1)" id="g12">
      <path d="m 408,880.801 0,-864.0002 -68.398,0 0,864.0002" inkscape:connector-curvature="0" id="path14" style="stroke:#000000;stroke-width:8;stroke-miterlimit:4;stroke-dasharray:none;fill:none;stroke-opacity:1"/>
      <path d="m 733.199,880.801 -718.8006,0 0,226.799 12,25.2 13.2032,16.8 32.3984,0 19.1992,-4.8 19.1988,-12 63.602,-57.6 57.602,-51.6 44.398,-21.6 55.199,-13.199 44.403,-3.602 40.796,3.602 55.204,13.199 44.398,21.6 57.602,51.6 63.597,57.6 19.199,12 19.204,4.8 32.398,0 12,-16.8 13.199,-25.2 0,-226.799" inkscape:connector-curvature="0" id="path16" style="stroke:#000000;stroke-width:8;stroke-miterlimit:4;stroke-dasharray:none;fill:none;stroke-opacity:1"/>
      <path d="m 241.199,1023.6 57.602,378 25.199,31.2 19.199,13.2 25.199,9.6 10.801,0 25.199,-9.6 19.204,-13.2 25.199,-31.2 57.597,-378" inkscape:connector-curvature="0" id="path18" style="stroke:#000000;stroke-width:8;stroke-miterlimit:4;stroke-dasharray:none;fill:none;stroke-opacity:1"/>
      <path d="m 556.801,1087.2 -25.199,3.6 -15.602,13.2 -9.602,16.8 -6,15.6 2.403,28.8 13.199,19.2 15.602,8.4 25.199,7.2 26.398,-3.6 19.199,-12 12,-19.2 0,-42 -12,-15.6 -19.199,-16.8 -26.398,-3.6" inkscape:connector-curvature="0" id="path20" style="stroke:#000000;stroke-width:8;stroke-miterlimit:4;stroke-dasharray:none;fill:none;stroke-opacity:1"/>
      <path d="m 202.801,1090.8 -28.801,0 -28.801,16.8 -9.597,19.2 -3.602,15.6 7.199,28.8 21.602,21.6 13.199,7.2 22.801,0 22.801,-3.6 18,-12 9.597,-22.8 0,-19.2 -6,-26.4 -9.597,-15.6 -16.801,-6 -12,-3.6" inkscape:connector-curvature="0" id="path22" style="stroke:#000000;stroke-width:8;stroke-miterlimit:4;stroke-dasharray:none;fill:none;stroke-opacity:1"/>
      <path d="m 429.602,877.199 92.398,-282 6,-28.801 0,-38.398 -12,-28.801 -19.199,-18 L 477.602,468 408,458.398" inkscape:connector-curvature="0" id="path24" style="stroke:#000000;stroke-width:8;stroke-miterlimit:4;stroke-dasharray:none;fill:none;stroke-opacity:1"/>
      <path d="m 339.602,458.398 -66,9.602 -32.403,21.602 L 222,528 l 0,45.602 98.398,303.597" inkscape:connector-curvature="0" id="path26" style="stroke:#000000;stroke-width:8;stroke-miterlimit:4;stroke-dasharray:none;fill:none;stroke-opacity:1"/>
      <path d="m 1513.2,1452 -15.6,-322.8 -6,-274.802 -7.2,-211.199 -15.6,-150 -13.2,-144 7.2,-153.597 9.6,-48 6,-37.204 -3.6,-39.5972 -19.2,-25.1992 -28.8,-19.2032 -34.8,-6 -63.6,15.6016 -25.2,19.1992 -42,9.6016 -96,-48 -396.001,3.5976 -15.597,50.4024 12,26.3984 36,5.9998 136.796,28.801 115.202,57.602 76.8,28.796 67.2,15.602 46.8,42 16.8,40.801 3.6,45.597 -7.2,67.204 -2.4,88.796 -7.2,243.602 -3.6,242.4 -25.2,451.2 294,0" inkscape:connector-curvature="0" id="path28" style="stroke:#000000;stroke-width:8;stroke-miterlimit:4;stroke-dasharray:none;fill:none;stroke-opacity:1"/>
    </g>
  </g>
</svg>
