<?xml version="1.0" encoding="UTF-8"?>
<!-- Created with Inkscape (http://www.inkscape.org/) -->
<svg xmlns:dc="http://purl.org/dc/elements/1.1/" xmlns:cc="http://creativecommons.org/ns#" xmlns:rdf="http://www.w3.org/1999/02/22-rdf-syntax-ns#" xmlns:svg="http://www.w3.org/2000/svg" xmlns="http://www.w3.org/2000/svg" xmlns:inkscape="http://www.inkscape.org/namespaces/inkscape" version="1.1" width="765" height="990" id="svg2" xml:space="preserve">
  <metadata id="metadata8">
    <rdf:RDF>
      <cc:Work rdf:about="">
        <dc:format>image/svg+xml</dc:format>
        <dc:type rdf:resource="http://purl.org/dc/dcmitype/StillImage"/>
      </cc:Work>
    </rdf:RDF>
  </metadata>
  <defs id="defs6"/>
  <g transform="matrix(1.25,0,0,-1.25,0,990)" id="g10">
    <g transform="scale(0.1,0.1)" id="g12">
      <path d="m 1971.6,966 -3.6,-48 -2.4,-69.602 2.4,-64.796 6,-60 0,-51.602 -8.4,-54 -10.8,-61.199 -12,-61.199 -13.2,-75.602 -6,-80.398 -13.2,-73.204 -9.6,-61.199 0,-57.597 9.6,-48.0004 3.6,-19.2032 2.4,-13.1992 L 1914,51.6016 1897.2,36 l -274.8,0 0,28.8008 36,6 34.8,9.5976 25.2,6 36,16.8006 28.8,19.199 15.6,19.204 9.6,42 6,63.597 -9.6,102 L 1785.6,480 1770,601.199 1754.4,720 l -7.2,102 -3.6,99.602 3.6,86.398 15.6,69.6 13.2,26.4 26.4,28.8 28.8,9.6 0,51.6 -74.4,6 -76.8,-76.8 38.4,-28.8 36,102 -10.8,9.6 -6,57.6 -40.8,6 0,13.2 21.6,32.4 7.2,21.6 6,16.8 9.6,12 2.4,22.8 13.2,25.2 19.2,26.4 19.2,15.6 28.8,13.2 25.2,6 45.6,0 28.8,-9.6 19.2,-6 25.2,-19.2 15.6,-16.8 7.2,-6 22.8,-38.4 6,-22.8 6,-32.4 3.6,-18 2.4,-26.4 0,-303.598" inkscape:connector-curvature="0" id="path14" style="stroke:#000000;stroke-width:8;stroke-miterlimit:4;stroke-dasharray:none;fill:none;stroke-opacity:1"/>
      <path d="m 1741.2,1363.2 134.4,-3.6 6,-19.2 3.6,0 19.2,-3.6 19.2,-15.6 0,-26.4 -7.2,-15.6 -12,-19.2 -7.2,-2.4 0,-285.6 134.4,-2.398" inkscape:connector-curvature="0" id="path16" style="stroke:#000000;stroke-width:8;stroke-miterlimit:4;stroke-dasharray:none;fill:none;stroke-opacity:1"/>
      <path d="m 1776,1302 19.2,-13.2 25.2,9.6" inkscape:connector-curvature="0" id="path18" style="stroke:#000000;stroke-width:8;stroke-miterlimit:4;stroke-dasharray:none;fill:none;stroke-opacity:1"/>
      <path d="m 337.199,230.398 -38.398,48 -48,48 -38.403,40.801 -40.796,45.602 -51.602,50.398 -51.6016,38.403 -54,38.398 101.9996,914.4 32.403,-9.6 34.801,-15.6 28.796,-22.8 28.801,-34.8 25.199,-42 13.204,-44.4 9.597,-38.4 9.602,-51.6 44.398,-1176.0008 -60,-3.5976 12,265.1994" inkscape:connector-curvature="0" id="path20" style="stroke:#000000;stroke-width:8;stroke-miterlimit:4;stroke-dasharray:none;fill:none;stroke-opacity:1"/>
      <path d="m 740.398,876 0,-860.3984 67.204,0 0,860.3984" inkscape:connector-curvature="0" id="path22" style="stroke:#000000;stroke-width:8;stroke-miterlimit:4;stroke-dasharray:none;fill:none;stroke-opacity:1"/>
      <path d="m 414,879.602 718.8,0 0,226.798 -12,25.2 -13.2,16.8 -31.2,0 -20.4,-4.8 -19.2,-12 -63.601,-57.6 -57.597,-51.6 -44.403,-21.6 -54,-13.198 -45.597,-3.602 -40.801,3.602 -54,13.198 -45.602,21.6 -57.597,51.6 -63.602,57.6 -19.199,12 -19.199,4.8 -32.403,0 -13.199,-16.8 -12,-25.2 0,-226.798" inkscape:connector-curvature="0" id="path24" style="stroke:#000000;stroke-width:8;stroke-miterlimit:4;stroke-dasharray:none;fill:none;stroke-opacity:1"/>
      <path d="m 906,1022.4 -57.602,378 -25.199,31.2 -19.199,13.2 -25.199,9.6 -9.602,0 -26.398,-9.6 -18,-13.2 -26.403,-31.2 -57.597,-378" inkscape:connector-curvature="0" id="path26" style="stroke:#000000;stroke-width:8;stroke-miterlimit:4;stroke-dasharray:none;fill:none;stroke-opacity:1"/>
      <path d="m 1354.8,537.602 27.6,-13.204 20.4,-25.199 6,-19.199 4.8,-20.398 -7.2,-31.204 -15.6,-21.597 -15.6,-13.199 -26.4,-8.403 -20.4,-7.199 -24,0 -27.6,12 -22.8,10.801 -13.2,15.597 -15.6,22.801 -10.8,26.403 -7.2,22.796 -2.4,22.801 2.4,15.602 4.8,27.597 10.8,21.602 18,22.801 18,15.597 15.6,7.204 15.6,6 22.8,2.398 18,2.398 22.8,0 26.4,-2.398 28.8,-8.398 25.2,-14.403 15.6,-13.199 18,-15.602 13.2,-15.597 14.4,-25.199 13.2,-24 4.8,-22.801 3.6,-31.199 2.4,-31.204 -2.4,-25.199 -2.4,-36 -13.2,-36 -20.4,-40.801 -36,-46.796 -56.4,-54 -80.4,-64.801 -175.2,-99.6018" inkscape:connector-curvature="0" id="path28" style="stroke:#000000;stroke-width:8;stroke-miterlimit:4;stroke-dasharray:none;fill:none;stroke-opacity:1"/>
      <path d="m 2102.4,1432.8 0,-294 105.6,13.2 159.6,-7.2 130.8,-19.2 134.4,-37.2" inkscape:connector-curvature="0" id="path30" style="stroke:#000000;stroke-width:8;stroke-miterlimit:4;stroke-dasharray:none;fill:none;stroke-opacity:1"/>
      <path d="m 2632.8,1474.8 0,-1438.8 67.2,0 0,1438.8 -67.2,0 -134.4,-32.4 -130.8,-13.2 -159.6,-6 -105.6,9.6" inkscape:connector-curvature="0" id="path32" style="stroke:#000000;stroke-width:8;stroke-miterlimit:4;stroke-dasharray:none;fill:none;stroke-opacity:1"/>
      <path d="m 3577.2,804 7.2,-124.801 -9.6,-134.398 -38.4,-387.602 163.2,-111.5974 -908.4,0 192,88.7964 -105.6,406.801 -2.4,48 8.4,38.403 16.8,25.199 15.6,16.801 32.4,3.597 34.8,-7.199 45.6,-28.801 37.2,-34.801 153.6,-217.199 13.2,226.801 9.6,188.398 28.8,92.403 34.8,51.597 19.2,28.801 57.6,57.601 0,73.2 -25.2,19.2 -90,19.2 -31.2,-92.4 -25.2,12 50.4,82.8 6,74.4 -54,15.6 -2.4,15.6 27.6,36 19.2,25.2 9.6,36 182.4,-28.8 9.6,15.6 25.2,3.6 13.2,-19.2 0,-22.8 -6,-25.2 -19.2,-32.4 0,-432.002 175.2,0 -25.2,518.402 -19.2,63.6 -21.6,36 -36,31.2 -34.8,16.8 -45.6,12 -54,-3.6 -51.6,-12 -31.2,-22.8 -19.2,-21.6 -15.6,-22.8 -16.8,-28.8 -6,-22.8" inkscape:connector-curvature="0" id="path34" style="stroke:#000000;stroke-width:8;stroke-miterlimit:4;stroke-dasharray:none;fill:none;stroke-opacity:1"/>
      <path d="m 3296.4,1279.2 57.6,-6 -19.2,22.8 -12,2.4 -22.8,-15.6" inkscape:connector-curvature="0" id="path36" style="stroke:#000000;stroke-width:8;stroke-miterlimit:4;stroke-dasharray:none;fill:none;stroke-opacity:1"/>
    </g>
  </g>
</svg>
