<?xml version="1.0" encoding="UTF-8"?>
<!-- Created with Inkscape (http://www.inkscape.org/) -->
<svg xmlns:dc="http://purl.org/dc/elements/1.1/" xmlns:cc="http://creativecommons.org/ns#" xmlns:rdf="http://www.w3.org/1999/02/22-rdf-syntax-ns#" xmlns:svg="http://www.w3.org/2000/svg" xmlns="http://www.w3.org/2000/svg" xmlns:inkscape="http://www.inkscape.org/namespaces/inkscape" version="1.1" width="765" height="990" id="svg2" xml:space="preserve">
  <metadata id="metadata8">
    <rdf:RDF>
      <cc:Work rdf:about="">
        <dc:format>image/svg+xml</dc:format>
        <dc:type rdf:resource="http://purl.org/dc/dcmitype/StillImage"/>
      </cc:Work>
    </rdf:RDF>
  </metadata>
  <defs id="defs6"/>
  <g transform="matrix(1.25,0,0,-1.25,0,990)" id="g10">
    <g transform="scale(0.1,0.1)" id="g12">
      <path d="m 711.602,1071.6 -70.801,6 -111.602,-6 -82.801,9.6 -26.398,-9.6 -19.199,-25.2 7.199,-45.6 31.199,-101.999 61.199,-98.403 198,-237.597 102,-96 147.602,-138 313.2,-307.1994 32.4,0 8.4,16.7968 -12,28.8008 -134.4,307.1988 -19.2,57.602 -102,246 -92.4,159.602 -74.398,103.199 -54,73.199 -44.403,69.6 -48,64.8 -57.597,67.2 -57.602,38.4 -16.801,67.2 -12,73.2 -19.199,48 -55.199,13.2 -88.801,0 -99.602,-3.6 -48,-12 -21.597,-7.2 -163.1994,-22.8 -48,-21.6 L 18,1365.6 l -3.6016,-44.4 19.2032,31.2 32.3984,16.8 94.801,0 99.597,-3.6 51.602,-13.2 -42,51.6 -9.602,36" inkscape:connector-curvature="0" id="path14" style="stroke:#000000;stroke-width:8;stroke-miterlimit:4;stroke-dasharray:none;fill:none;stroke-opacity:1"/>
      <path d="m 366,1372.8 9.602,2.4 7.199,16.8 -7.199,15.6 -13.204,9.6 -13.199,-9.6 -2.398,-19.2 7.199,-9.6 8.398,-6" inkscape:connector-curvature="0" id="path16" style="stroke:#000000;stroke-width:8;stroke-miterlimit:4;stroke-dasharray:none;fill:none;stroke-opacity:1"/>
      <path d="m 30,1340.4 128.398,3.6 98.403,-13.2 28.801,-15.6 9.597,-32.4 3.602,-36 -28.801,-69.6 -13.199,-86.4 16.801,-105.601 12,-48 36,-96 40.796,-76.801 L 462,595.199 592.801,344.398 606,249.602 589.199,86.3984 573.602,69.6016 481.199,61.1992 372,63.6016 366,48 318,40.8008 312,32.3984 321.602,19.1992 596.398,28.8008 880.801,15.6016 894,28.8008 l -7.199,15.5976 -44.403,0 L 817.199,67.1992 654,69.6016 634.801,82.8008 654,284.398 771.602,223.199 838.801,422.398 967.199,102 1011.6,44.3984 1056,19.1992 l 68.4,0 37.2,13.1992 9.6,18 L 1140,138" inkscape:connector-curvature="0" id="path18" style="stroke:#000000;stroke-width:8;stroke-miterlimit:4;stroke-dasharray:none;fill:none;stroke-opacity:1"/>
      <path d="m 346.801,787.199 42,-234 L 385.199,374.398 354,192 325.199,98.3984 306,76.8008 152.398,67.1992 135.602,44.3984 100.801,40.8008 87.6016,32.3984 100.801,19.1992 l 118.801,9.6016 34.796,-3.6016" inkscape:connector-curvature="0" id="path20" style="stroke:#000000;stroke-width:8;stroke-miterlimit:4;stroke-dasharray:none;fill:none;stroke-opacity:1"/>
      <path d="m 369.602,63.6016 -55.204,-6 0,0 L 283.199,50.3984 264,25.1992 l 13.199,-6 18,19.1992 19.199,2.4024" inkscape:connector-curvature="0" id="path22" style="stroke:#000000;stroke-width:8;stroke-miterlimit:4;stroke-dasharray:none;fill:none;stroke-opacity:1"/>
      <path d="m 366,67.1992 70.801,261.6018 108,-63.602 L 567.602,384" inkscape:connector-curvature="0" id="path24" style="stroke:#000000;stroke-width:8;stroke-miterlimit:4;stroke-dasharray:none;fill:none;stroke-opacity:1"/>
      <path d="m 142.801,63.6016 -51.6018,-6 0,0 L 60,50.3984 39.6016,25.1992 l 9.5976,-6 L 72,38.3984 97.1992,40.8008" inkscape:connector-curvature="0" id="path26" style="stroke:#000000;stroke-width:8;stroke-miterlimit:4;stroke-dasharray:none;fill:none;stroke-opacity:1"/>
      <path d="m 823.199,67.1992 61.199,-6 28.801,-10.8008 18,-25.1992 -8.398,-6 L 900,38.3984 884.398,40.8008" inkscape:connector-curvature="0" id="path28" style="stroke:#000000;stroke-width:8;stroke-miterlimit:4;stroke-dasharray:none;fill:none;stroke-opacity:1"/>
      <path d="m 1401.6,1284 22.8,19.2 37.2,14.4 66,28.8 74.4,22.8 82.8,22.8 122.4,28.8 105.6,12 82.8,10.8 93.6,6 86.4,-6 99.6,-6 97.2,-10.8 91.2,-20.4 80.4,-19.2 74.4,-24 73.2,-22.8 57.6,-22.8 22.8,-10.8 16.8,-20.4 2.4,-2.4 -19.2,-20.4 -54,-33.6 -106.8,-40.8 -102,-31.2 -114,-25.2 -85.2,-9.6 -91.2,-10.8 -120,-6 -78,6 -81.6,6 -74.4,4.8 -109.2,18 -120,28.8 -85.2,27.6 -80.4,34.8 -50.4,28.8 -18,22.8" inkscape:connector-curvature="0" id="path30" style="stroke:#000000;stroke-width:8;stroke-miterlimit:4;stroke-dasharray:none;fill:none;stroke-opacity:1"/>
      <path d="m 2500.8,507.602 25.2,-60 43.2,-57.602 93.6,-60 18,-16.801 4.8,-28.801 2.4,-183.597 -19.2,-21.6018 -20.4,-28.8008 -6,-31.1992 28.8,8.4024" inkscape:connector-curvature="0" id="path32" style="stroke:#000000;stroke-width:8;stroke-miterlimit:4;stroke-dasharray:none;fill:none;stroke-opacity:1"/>
      <path d="m 2666.4,69.6016 50.4,0" inkscape:connector-curvature="0" id="path34" style="stroke:#000000;stroke-width:8;stroke-miterlimit:4;stroke-dasharray:none;fill:none;stroke-opacity:1"/>
      <path d="m 2688,64.8008 -14.4,-43.1992 38.4,0 8.4,48 25.2,12 8.4,16.7968 -8.4,122.4026 14.4,117.597 -2.4,26.403 -24,45.597 -7.2,45.602 27.6,159.602 -2.4,39.597 -34.8,43.199" inkscape:connector-curvature="0" id="path36" style="stroke:#000000;stroke-width:8;stroke-miterlimit:4;stroke-dasharray:none;fill:none;stroke-opacity:1"/>
      <path d="m 2757.6,609.602 0,-190.801 14.4,-82.801 54,-103.199 6,60 -12,60 -22.8,43.199 -14.4,72 -2.4,193.199 -18,39.602 -21.6,18 -67.2,22.801 -81.6,10.796 -91.2,0 -194.4,-33.597 -105.6,-6 -111.6,2.398 -217.2,60 -124.8,24" inkscape:connector-curvature="0" id="path38" style="stroke:#000000;stroke-width:8;stroke-miterlimit:4;stroke-dasharray:none;fill:none;stroke-opacity:1"/>
      <path d="m 1675.2,766.801 26.4,8.398 27.6,0 28.8,55.199 -28.8,2.403 -33.6,-8.403 -20.4,-25.199 -20.4,-9.597" inkscape:connector-curvature="0" id="path40" style="stroke:#000000;stroke-width:8;stroke-miterlimit:4;stroke-dasharray:none;fill:none;stroke-opacity:1"/>
      <path d="m 1689.6,818.398 -8.4,2.403" inkscape:connector-curvature="0" id="path42" style="stroke:#000000;stroke-width:8;stroke-miterlimit:4;stroke-dasharray:none;fill:none;stroke-opacity:1"/>
      <path d="m 1669.2,812.398 38.4,26.403 25.2,28.801 20.4,56.398 0,34.801 -6,53.999 -18,31.2 -2.4,-80.398 -14.4,-54 -33.6,-42 -57.6,-34.801 6,-20.403" inkscape:connector-curvature="0" id="path44" style="stroke:#000000;stroke-width:8;stroke-miterlimit:4;stroke-dasharray:none;fill:none;stroke-opacity:1"/>
      <path d="m 1638,841.199 -19.2,6 -37.2,0 -26.4,-2.398 -13.2,-12 -12,-22.801 -16.8,-34.801 -45.6,-39.597 -34.8,-28.801 -31.2,-19.199 -8.4,-18 10.8,-28.801 31.2,-31.199 60,3.597" inkscape:connector-curvature="0" id="path46" style="stroke:#000000;stroke-width:8;stroke-miterlimit:4;stroke-dasharray:none;fill:none;stroke-opacity:1"/>
      <path d="m 1458,650.398 -25.2,0 12,-14.398" inkscape:connector-curvature="0" id="path48" style="stroke:#000000;stroke-width:8;stroke-miterlimit:4;stroke-dasharray:none;fill:none;stroke-opacity:1"/>
      <path d="m 1558.8,727.199 10.8,2.403 12,18 10.8,0 16.8,-26.403" inkscape:connector-curvature="0" id="path50" style="stroke:#000000;stroke-width:8;stroke-miterlimit:4;stroke-dasharray:none;fill:none;stroke-opacity:1"/>
      <path d="m 1602,733.199 -12,-8.398 -8.4,0 -12,10.801" inkscape:connector-curvature="0" id="path52" style="stroke:#000000;stroke-width:8;stroke-miterlimit:4;stroke-dasharray:none;fill:none;stroke-opacity:1"/>
      <path d="m 1546.8,844.801 -31.2,13.199 -37.2,32.398 -16.8,33.602 -6,37.199 12,76.801 -22.8,-22.8 -20.4,-54.001 0,-56.398 31.2,-51.602 33.6,-26.398 L 1530,810" inkscape:connector-curvature="0" id="path54" style="stroke:#000000;stroke-width:8;stroke-miterlimit:4;stroke-dasharray:none;fill:none;stroke-opacity:1"/>
      <path d="m 1399.2,650.398 -3.6,-20.398 31.2,-37.199 34.8,-8.403 48,8.403 49.2,8.398 88.8,3.602 33.6,22.801 33.6,33.597" inkscape:connector-curvature="0" id="path56" style="stroke:#000000;stroke-width:8;stroke-miterlimit:4;stroke-dasharray:none;fill:none;stroke-opacity:1"/>
      <path d="m 1650,604.801 31.2,-74.403 28.8,-82.796 37.2,-60 56.4,-46.801 49.2,-21.602 70.8,-12" inkscape:connector-curvature="0" id="path58" style="stroke:#000000;stroke-width:8;stroke-miterlimit:4;stroke-dasharray:none;fill:none;stroke-opacity:1"/>
      <path d="m 2029.2,340.801 28.8,9.597 31.2,2.403 39.6,-8.403 37.2,-3.597 126,0 54,-10.801" inkscape:connector-curvature="0" id="path60" style="stroke:#000000;stroke-width:8;stroke-miterlimit:4;stroke-dasharray:none;fill:none;stroke-opacity:1"/>
      <path d="m 2334,315.602 32.4,14.398 37.2,14.398 102,25.204 91.2,6" inkscape:connector-curvature="0" id="path62" style="stroke:#000000;stroke-width:8;stroke-miterlimit:4;stroke-dasharray:none;fill:none;stroke-opacity:1"/>
      <path d="m 1821.6,555.602 4.8,-66 26.4,-70.801 60,-80.403 10.8,-19.199 0,-24 -10.8,-159.597 -12,-22.801 -33.6,-57.6018 -18,-39.5976 28.8,12" inkscape:connector-curvature="0" id="path64" style="stroke:#000000;stroke-width:8;stroke-miterlimit:4;stroke-dasharray:none;fill:none;stroke-opacity:1"/>
      <path d="m 1869.6,58.8008 57.6,-3.6016" inkscape:connector-curvature="0" id="path66" style="stroke:#000000;stroke-width:8;stroke-miterlimit:4;stroke-dasharray:none;fill:none;stroke-opacity:1"/>
      <path d="m 1886.4,55.1992 -8.4,-39.5976 51.6,12 4.8,37.1992 24,8.3984 10.8,16.8008 0,18 8.4,79.199 28.8,105.602 20.4,51.597 8.4,37.204 -16.8,45.597" inkscape:connector-curvature="0" id="path68" style="stroke:#000000;stroke-width:8;stroke-miterlimit:4;stroke-dasharray:none;fill:none;stroke-opacity:1"/>
      <path d="m 1792.8,352.801 -54,-182.403 -20.4,-40.796 L 1683.6,87.6016 1650,44.3984 1638,19.1992 1664.4,30" inkscape:connector-curvature="0" id="path70" style="stroke:#000000;stroke-width:8;stroke-miterlimit:4;stroke-dasharray:none;fill:none;stroke-opacity:1"/>
      <path d="M 1669.2,69.6016 1722,52.8008" inkscape:connector-curvature="0" id="path72" style="stroke:#000000;stroke-width:8;stroke-miterlimit:4;stroke-dasharray:none;fill:none;stroke-opacity:1"/>
      <path d="M 1681.2,52.8008 1662,15.6016 1712.4,24 l 12,37.1992 22.8,0 16.8,14.4024 25.2,74.3984 32.4,78 39.6,39.602 8.4,45.597" inkscape:connector-curvature="0" id="path74" style="stroke:#000000;stroke-width:8;stroke-miterlimit:4;stroke-dasharray:none;fill:none;stroke-opacity:1"/>
      <path d="m 2403.6,340.801 10.8,-25.199 -6,-22.801 -96,-199.1994 -24,-20.4024 -21.6,-20.3984 -18,-33.6016 L 2274,24" inkscape:connector-curvature="0" id="path76" style="stroke:#000000;stroke-width:8;stroke-miterlimit:4;stroke-dasharray:none;fill:none;stroke-opacity:1"/>
      <path d="m 2274,52.8008 57.6,8.3984" inkscape:connector-curvature="0" id="path78" style="stroke:#000000;stroke-width:8;stroke-miterlimit:4;stroke-dasharray:none;fill:none;stroke-opacity:1"/>
      <path d="m 2286,48 -12,-32.3984 57.6,8.3984 2.4,40.8008 28.8,14.3984 78,139.1988 42,43.204 6,22.796 22.8,51.602 28.8,33.602" inkscape:connector-curvature="0" id="path80" style="stroke:#000000;stroke-width:8;stroke-miterlimit:4;stroke-dasharray:none;fill:none;stroke-opacity:1"/>
      <path d="m 3130.8,392.398 0,-365.9996 78,0 0,365.9996 -78,0" inkscape:connector-curvature="0" id="path82" style="stroke:#000000;stroke-width:8;stroke-miterlimit:4;stroke-dasharray:none;fill:none;stroke-opacity:1"/>
      <path d="m 3130.8,939.602 0,-369.602 78,0 0,369.602 -78,0" inkscape:connector-curvature="0" id="path84" style="stroke:#000000;stroke-width:8;stroke-miterlimit:4;stroke-dasharray:none;fill:none;stroke-opacity:1"/>
      <path d="m 3130.8,1466.4 0,-370.8 78,0 0,370.8 -78,0" inkscape:connector-curvature="0" id="path86" style="stroke:#000000;stroke-width:8;stroke-miterlimit:4;stroke-dasharray:none;fill:none;stroke-opacity:1"/>
    </g>
  </g>
</svg>
