<?xml version="1.0" encoding="UTF-8"?>
<!-- Created with Inkscape (http://www.inkscape.org/) -->
<svg xmlns:dc="http://purl.org/dc/elements/1.1/" xmlns:cc="http://creativecommons.org/ns#" xmlns:rdf="http://www.w3.org/1999/02/22-rdf-syntax-ns#" xmlns:svg="http://www.w3.org/2000/svg" xmlns="http://www.w3.org/2000/svg" xmlns:inkscape="http://www.inkscape.org/namespaces/inkscape" version="1.1" width="765" height="990" id="svg2" xml:space="preserve">
  <metadata id="metadata8">
    <rdf:RDF>
      <cc:Work rdf:about="">
        <dc:format>image/svg+xml</dc:format>
        <dc:type rdf:resource="http://purl.org/dc/dcmitype/StillImage"/>
      </cc:Work>
    </rdf:RDF>
  </metadata>
  <defs id="defs6"/>
  <g transform="matrix(1.25,0,0,-1.25,0,990)" id="g10">
    <g transform="scale(0.1,0.1)" id="g12">
      <path d="m 710.398,1072.8 -70.796,6 -111.602,-6 -82.801,8.4 -25.199,-8.4 -19.199,-26.4 7.199,-44.4 31.199,-103.199 60,-98.403 L 698.398,564 799.199,468 946.801,330 1260,22.8008 l 32.4,0 8.4,16.8008 -12,28.7968 -134.4,307.2036 -19.2,57.597 -102,246 -92.399,159.602 -73.199,102 -55.204,74.399 -44.398,69.6 -48,64.8 -57.602,66 -57.597,39.6 -15.602,66 -13.199,74.4 -19.199,48 -54,12 -88.801,0 -99.602,-2.4 -48,-13.2 -21.597,-7.2 -163.1994,-21.6 -48,-22.8 L 18,1366.8 l -3.6016,-45.6 19.2032,32.4 32.3984,15.6 94.801,0 99.597,-2.4 50.403,-13.2 -40.801,50.4 -9.602,36" inkscape:connector-curvature="0" id="path14" style="stroke:#000000;stroke-width:8;stroke-miterlimit:4;stroke-dasharray:none;fill:none;stroke-opacity:1"/>
      <path d="m 366,1372.8 8.398,3.6 7.204,15.6 -7.204,15.6 -12,9.6 -13.199,-9.6 -2.398,-19.2 6,-9.6 9.597,-6" inkscape:connector-curvature="0" id="path16" style="stroke:#000000;stroke-width:8;stroke-miterlimit:4;stroke-dasharray:none;fill:none;stroke-opacity:1"/>
      <path d="m 30,1340.4 128.398,3.6 98.403,-13.2 28.801,-15.6 9.597,-32.4 3.602,-34.8 -28.801,-69.6 -13.199,-87.6 16.801,-105.601 12,-46.801 34.796,-96 42,-76.796 L 462,596.398 592.801,345.602 l 12,-94.801 L 589.199,87.6016 573.602,70.8008 480,62.3984 372,64.8008 366,49.1992 318,42 310.801,33.6016 320.398,20.3984 596.398,30 879.602,16.8008 892.801,30 l -6,15.6016 -45.602,0 L 816,68.3984 652.801,70.8008 633.602,84 l 19.199,201.602 118.801,-61.204 67.199,198 L 966,103.199 l 44.4,-57.5974 45.6,-25.2032 67.2,0 37.2,13.2032 9.6,18 -31.2,87.5974" inkscape:connector-curvature="0" id="path18" style="stroke:#000000;stroke-width:8;stroke-miterlimit:4;stroke-dasharray:none;fill:none;stroke-opacity:1"/>
      <path d="M 346.801,787.199 387.602,554.398 385.199,375.602 352.801,193.199 324,99.6016 304.801,78 151.199,68.3984 135.602,45.6016 100.801,42 87.6016,33.6016 100.801,20.3984 219.602,30 254.398,26.3984" inkscape:connector-curvature="0" id="path20" style="stroke:#000000;stroke-width:8;stroke-miterlimit:4;stroke-dasharray:none;fill:none;stroke-opacity:1"/>
      <path d="m 368.398,64.8008 -54,-6 0,0 -31.199,-7.1992 -20.398,-25.2032 13.199,-6 19.199,19.2032 L 314.398,42" inkscape:connector-curvature="0" id="path22" style="stroke:#000000;stroke-width:8;stroke-miterlimit:4;stroke-dasharray:none;fill:none;stroke-opacity:1"/>
      <path d="M 366,68.3984 435.602,330 544.801,266.398 567.602,385.199" inkscape:connector-curvature="0" id="path24" style="stroke:#000000;stroke-width:8;stroke-miterlimit:4;stroke-dasharray:none;fill:none;stroke-opacity:1"/>
      <path d="m 142.801,64.8008 -51.6018,-6 0,0 -32.3984,-7.1992 -19.1992,-25.2032 9.5976,-6 L 72,39.6016 97.1992,42" inkscape:connector-curvature="0" id="path26" style="stroke:#000000;stroke-width:8;stroke-miterlimit:4;stroke-dasharray:none;fill:none;stroke-opacity:1"/>
      <path d="m 822,68.3984 61.199,-6 28.801,-10.7968 19.199,-25.2032 -9.597,-6 L 898.801,39.6016 883.199,42" inkscape:connector-curvature="0" id="path28" style="stroke:#000000;stroke-width:8;stroke-miterlimit:4;stroke-dasharray:none;fill:none;stroke-opacity:1"/>
      <path d="m 1096.8,1368 -25.2,-13.2 -18,-22.8 -7.2,-19.2 -3.6,-18 6,-28.8 14.4,-19.2 14.4,-12 25.2,-8.4 18,-6 22.8,0 25.2,9.6 20.4,10.8 13.2,14.4 14.4,20.4 10.8,25.2 6,21.6 1.2,20.4 -1.2,14.4 -4.8,25.2 -9.6,20.4 -16.8,20.4 -16.8,15.6 -14.4,6 -14.4,6 -20.4,2.4 -16.8,1.2 -21.6,0 -24,-1.2 -27.6,-8.4 -22.8,-13.2 -14.4,-12 -16.802,-15.6 -12,-14.4 -13.199,-21.6 -12,-24 -3.597,-20.4 -4.801,-28.8 -1.199,-28.8 1.199,-22.8 2.398,-33.6 13.199,-33.6 18,-37.2 33.602,-43.2 51.6,-49.2 L 1140,985.199 1300.8,894" inkscape:connector-curvature="0" id="path30" style="stroke:#000000;stroke-width:8;stroke-miterlimit:4;stroke-dasharray:none;fill:none;stroke-opacity:1"/>
    </g>
  </g>
</svg>
