<?xml version="1.0" encoding="UTF-8"?>
<!-- Created with Inkscape (http://www.inkscape.org/) -->
<svg xmlns:dc="http://purl.org/dc/elements/1.1/" xmlns:cc="http://creativecommons.org/ns#" xmlns:rdf="http://www.w3.org/1999/02/22-rdf-syntax-ns#" xmlns:svg="http://www.w3.org/2000/svg" xmlns="http://www.w3.org/2000/svg" xmlns:inkscape="http://www.inkscape.org/namespaces/inkscape" version="1.1" width="765" height="990" id="svg2" xml:space="preserve">
  <metadata id="metadata8">
    <rdf:RDF>
      <cc:Work rdf:about="">
        <dc:format>image/svg+xml</dc:format>
        <dc:type rdf:resource="http://purl.org/dc/dcmitype/StillImage"/>
      </cc:Work>
    </rdf:RDF>
  </metadata>
  <defs id="defs6"/>
  <g transform="matrix(1.25,0,0,-1.25,0,990)" id="g10">
    <g transform="scale(0.1,0.1)" id="g12">
      <path d="m 296.398,964.801 727.202,0 0,-28.801 28.8,-4.801 45.6,-14.398 31.2,-19.199 40.8,-28.801 36,-38.403 33.6,-45.597 22.8,-45.602 22.8,-56.398 14.4,-57.602 6,-96 -6,-50.398 -22.8,-57.602 -25.2,-26.398 L 1230,390 1196.4,392.398 1170,414 l -12,26.398 -4.8,28.801 -2.4,21.602 7.2,74.398 9.6,81.602 -7.2,84 -21.6,60 -31.2,46.801 -31.2,36 -36,14.398 -16.8,0 0,-26.398 -94.799,0 0,-50.403 -141.602,0 0,50.403 -258,0 0,-50.403 -136.801,0 0,50.403 -96,0" inkscape:connector-curvature="0" id="path14" style="stroke:#000000;stroke-width:8;stroke-miterlimit:4;stroke-dasharray:none;fill:none;stroke-opacity:1"/>
      <path d="M 339.602,964.801 433.199,1422 450,1450.8 l 12,9.6 13.199,4.8 22.801,0 20.398,-12 6,-14.4 0,-16.8" inkscape:connector-curvature="0" id="path16" style="stroke:#000000;stroke-width:8;stroke-miterlimit:4;stroke-dasharray:none;fill:none;stroke-opacity:1"/>
      <path d="m 430.801,964.801 96,459.599 12,21.6 10.801,12 22.796,4.8 20.403,-7.2 12,-9.6 7.199,-14.4" inkscape:connector-curvature="0" id="path18" style="stroke:#000000;stroke-width:8;stroke-miterlimit:4;stroke-dasharray:none;fill:none;stroke-opacity:1"/>
      <path d="m 517.199,964.801 92.403,457.199 9.597,21.6 16.801,14.4 19.199,2.4 21.602,-2.4 16.801,-14.4 4.796,-19.2" inkscape:connector-curvature="0" id="path20" style="stroke:#000000;stroke-width:8;stroke-miterlimit:4;stroke-dasharray:none;fill:none;stroke-opacity:1"/>
      <path d="M 603.602,964.801 696,1417.2 l 14.398,26.4 16.801,14.4 28.801,2.4 9.602,-2.4 14.398,-9.6 7.199,-24" inkscape:connector-curvature="0" id="path22" style="stroke:#000000;stroke-width:8;stroke-miterlimit:4;stroke-dasharray:none;fill:none;stroke-opacity:1"/>
      <path d="m 693.602,964.801 91.199,449.999 9.597,24 9.602,14.4 21.602,9.6 26.398,-4.8 19.199,-12 6,-16.8" inkscape:connector-curvature="0" id="path24" style="stroke:#000000;stroke-width:8;stroke-miterlimit:4;stroke-dasharray:none;fill:none;stroke-opacity:1"/>
      <path d="m 787.199,964.801 86.403,447.599 7.199,24 14.398,19.2 22.801,4.8 4.801,2.4 22.801,-9.6 14.398,-14.4 0,-14.4" inkscape:connector-curvature="0" id="path26" style="stroke:#000000;stroke-width:8;stroke-miterlimit:4;stroke-dasharray:none;fill:none;stroke-opacity:1"/>
      <path d="M 868.801,964.801 960,1426.8 l 8.398,19.2 12,12 14.403,2.4 21.599,0 19.2,-7.2 9.6,-14.4 4.8,-24 -92.398,-449.999 -661.204,0 0,-31.199 -33.597,-4.801 L 218.398,914.398 184.801,895.199 146.398,864 110.398,825.602 55.1992,733.199 38.3984,676.801 21.6016,619.199 14.3984,524.398 21.6016,474 l 24,-55.199 L 72,392.398 91.1992,387.602 124.801,390 153.602,411.602 162,438 l 6,28.801 2.398,21.597 -8.398,74.403 -12,81.597 8.398,80.403 18,60 31.204,50.398 31.199,36 33.597,14.403 24,2.398 0,-21.602" inkscape:connector-curvature="0" id="path28" style="stroke:#000000;stroke-width:8;stroke-miterlimit:4;stroke-dasharray:none;fill:none;stroke-opacity:1"/>
      <path d="M 652.801,571.199 624,556.801 l -21.602,-25.199 -7.199,-22.801 -4.801,-20.403 7.204,-34.796 16.796,-20.403 16.801,-14.398 L 660,408 l 21.602,-6 25.199,0 28.801,12 25.199,12 13.199,16.801 16.801,22.801 12,28.796 7.199,25.204 2.398,22.796 -2.398,16.801 -4.801,28.801 -12,24 -19.199,24 -18,16.801 -18,7.199 -16.801,7.199 -22.801,2.403 -19.199,2.398 -24,0 -28.801,-2.398 L 595.199,660 568.801,645.602 552,631.199 532.801,614.398 518.398,597.602 504,571.199 489.602,546 484.801,520.801 480,488.398 477.602,453.602 480,428.398 482.398,390 496.801,351.602 518.398,308.398 556.801,258 l 60,-57.602 86.398,-69.597 186,-105.6018" inkscape:connector-curvature="0" id="path30" style="stroke:#000000;stroke-width:8;stroke-miterlimit:4;stroke-dasharray:none;fill:none;stroke-opacity:1"/>
      <path d="m 1622.4,1348.8 -13.2,31.2 -25.2,50.4 -15.6,25.2 424.8,0 -26.4,-44.4 -18,-43.2 -7.2,-19.2" inkscape:connector-curvature="0" id="path32" style="stroke:#000000;stroke-width:8;stroke-miterlimit:4;stroke-dasharray:none;fill:none;stroke-opacity:1"/>
      <path d="m 1572,1226.4 -97.2,52.8 -21.6,-74.4 49.2,-38.4 34.8,-25.2 46.8,-49.2" inkscape:connector-curvature="0" id="path34" style="stroke:#000000;stroke-width:8;stroke-miterlimit:4;stroke-dasharray:none;fill:none;stroke-opacity:1"/>
      <path d="m 1993.2,1226.4 93.6,52.8 25.2,-78 -44.4,-25.2 -50.4,-46.8 -33.6,-37.2" inkscape:connector-curvature="0" id="path36" style="stroke:#000000;stroke-width:8;stroke-miterlimit:4;stroke-dasharray:none;fill:none;stroke-opacity:1"/>
      <path d="m 1641.6,1129.2 6,19.2 12,21.6 19.2,21.6 25.2,22.8 43.2,15.6 28.8,2.4 34.8,-2.4 37.2,-13.2 31.2,-19.2 15.6,-21.6 15.6,-19.2 13.2,-33.6 -50.4,31.2 -38.4,12 -31.2,9.6 -24,3.6 -32.4,-7.2 -31.2,-6 -37.2,-18 -25.2,-19.2 -12,-6" inkscape:connector-curvature="0" id="path38" style="stroke:#000000;stroke-width:8;stroke-miterlimit:4;stroke-dasharray:none;fill:none;stroke-opacity:1"/>
      <path d="m 1659.6,793.199 50.4,204 21.6,27.601 22.8,9.6 25.2,6 33.6,-6 25.2,-18 12,-22.798 54,-204" inkscape:connector-curvature="0" id="path40" style="stroke:#000000;stroke-width:8;stroke-miterlimit:4;stroke-dasharray:none;fill:none;stroke-opacity:1"/>
      <path d="m 1785.6,748.801 -48,3.597 -21.6,6 -19.2,3.602 -31.2,15.602 -21.6,27.597 -19.2,28.801 -12,31.199 -9.6,37.199 -12,50.403 -19.2,263.999 3.6,46.8 6,22.8 2.4,18 15.6,26.4 19.2,18 31.2,19.2 28.8,9.6 25.2,2.4 75.6,6 87.6,-6 37.2,-6 31.2,-19.2 19.2,-12 15.6,-25.2 15.6,-50.4 3.6,-40.8 -16.8,-229.201 -6,-63.597 -18,-68.403 -13.2,-31.199 -18,-31.199 -13.2,-15.602 -18,-16.801 -22.8,-12 -28.8,-6 -49.2,-3.597" inkscape:connector-curvature="0" id="path42" style="stroke:#000000;stroke-width:8;stroke-miterlimit:4;stroke-dasharray:none;fill:none;stroke-opacity:1"/>
      <path d="m 1717.2,582 0,-566.3984 126,0 0,566.3984 -126,0" inkscape:connector-curvature="0" id="path44" style="stroke:#000000;stroke-width:8;stroke-miterlimit:4;stroke-dasharray:none;fill:none;stroke-opacity:1"/>
    </g>
  </g>
</svg>
