<?xml version="1.0" encoding="UTF-8"?>
<!-- Created with Inkscape (http://www.inkscape.org/) -->
<svg xmlns:dc="http://purl.org/dc/elements/1.1/" xmlns:cc="http://creativecommons.org/ns#" xmlns:rdf="http://www.w3.org/1999/02/22-rdf-syntax-ns#" xmlns:svg="http://www.w3.org/2000/svg" xmlns="http://www.w3.org/2000/svg" xmlns:inkscape="http://www.inkscape.org/namespaces/inkscape" version="1.1" width="765" height="990" id="svg2" xml:space="preserve">
  <metadata id="metadata8">
    <rdf:RDF>
      <cc:Work rdf:about="">
        <dc:format>image/svg+xml</dc:format>
        <dc:type rdf:resource="http://purl.org/dc/dcmitype/StillImage"/>
      </cc:Work>
    </rdf:RDF>
  </metadata>
  <defs id="defs6"/>
  <g transform="matrix(1.25,0,0,-1.25,0,990)" id="g10">
    <g transform="scale(0.1,0.1)" id="g12">
      <path d="m 2641.2,728.398 18,-10.796 13.2,-4.801 7.2,0 7.2,7.199 8.4,8.398 45.6,79.204 0,12 -2.4,4.796 -3.6,7.204 -16.8,8.398 -373.2,175.2 -9.6,2.4 -10.8,2.4 -12,-4.8 -10.8,-7.2 -4.8,-6 -4.8,-14.398 0,-8.403 4.8,-10.801 7.2,-9.597 10.8,-12 326.4,-218.403" inkscape:connector-curvature="0" id="path14" style="stroke:#000000;stroke-width:8;stroke-miterlimit:4;stroke-dasharray:none;fill:none;stroke-opacity:1"/>
      <path d="m 498,10.8008 198,0 L 692.398,84 711.602,178.801 732,235.199 771.602,324 l 181.199,319.199 9.597,69.602 3.602,32.398 -7.199,60 -9.602,39.602 -16.801,49.199 -30,46.801 -22.796,26.398 -58.801,55.201 -46.801,16.8 -94.801,9.6 L 600,1039.2 567.602,1026 526.801,999.602 490.801,960 475.199,937.199 458.398,916.801" inkscape:connector-curvature="0" id="path16" style="stroke:#000000;stroke-width:8;stroke-miterlimit:4;stroke-dasharray:none;fill:none;stroke-opacity:1"/>
      <path d="M 448.801,913.199 418.801,900 96,837.602 66,814.801 42,799.199 l -19.1992,-36 -6,-54 L 19.1992,696 30,690 l 6,0 16.8008,6 7.1992,30 19.1992,30 29.9998,26.398 32.403,9.602 43.199,13.199 266.398,36 7.199,3.602 39.602,-7.199" inkscape:connector-curvature="0" id="path18" style="stroke:#000000;stroke-width:8;stroke-miterlimit:4;stroke-dasharray:none;fill:none;stroke-opacity:1"/>
      <path d="M 451.199,913.199 498,835.199 498,792" inkscape:connector-curvature="0" id="path20" style="stroke:#000000;stroke-width:8;stroke-miterlimit:4;stroke-dasharray:none;fill:none;stroke-opacity:1"/>
      <path d="m 66,729.602 30,19.199 49.199,14.398 128.403,12 L 402,792 l 98.398,0 26.403,-3.602 52.801,-13.199 93.597,-16.801 49.199,-2.398 36,2.398 L 798,769.199 820.801,756 830.398,739.199 834,699.602 830.398,666 814.801,627.602 669.602,435.602 596.398,320.398 567.602,261.602 530.398,192 511.199,103.199 498,10.8008" inkscape:connector-curvature="0" id="path22" style="stroke:#000000;stroke-width:8;stroke-miterlimit:4;stroke-dasharray:none;fill:none;stroke-opacity:1"/>
      <path d="M 781.199,1035.6 952.801,973.199 1120.8,930 l 69.6,-13.199 58.8,-3.602 73.2,0 79.2,3.602 58.8,13.199 60,13.199 6,-6 -6,-24 -24,-15.597 -79.2,-16.801 -79.2,-9.602 -88.8,0 -75.6,6 L 1045.2,900 972,924" inkscape:connector-curvature="0" id="path24" style="stroke:#000000;stroke-width:8;stroke-miterlimit:4;stroke-dasharray:none;fill:none;stroke-opacity:1"/>
      <path d="M 879.602,973.199 1008,904.801 l 129.6,-67.199 79.2,-38.403 58.8,-24 66,-16.801 46.8,-6 85.2,-9.597 36,6 16.8,3.597 13.2,-9.597 3.6,-20.403 -49.2,-15.597 -60,-7.199 -66,9.597 -92.4,20.403 L 1196.4,756 1120.8,792 936,897.602" inkscape:connector-curvature="0" id="path26" style="stroke:#000000;stroke-width:8;stroke-miterlimit:4;stroke-dasharray:none;fill:none;stroke-opacity:1"/>
      <path d="M 603.602,954 583.199,950.398 567.602,930 l 0,-22.801 15.597,-16.801 22.801,0 24,9.602 2.398,13.199 -6,20.403 L 609.602,954" inkscape:connector-curvature="0" id="path28" style="stroke:#000000;stroke-width:8;stroke-miterlimit:4;stroke-dasharray:none;fill:none;stroke-opacity:1"/>
      <path d="M 1719.6,20.3984 2016,304.801" inkscape:connector-curvature="0" id="path30" style="stroke:#000000;stroke-width:8;stroke-miterlimit:4;stroke-dasharray:none;fill:none;stroke-opacity:1"/>
      <path d="m 1612.8,60 363.6,349.199" inkscape:connector-curvature="0" id="path32" style="stroke:#000000;stroke-width:8;stroke-miterlimit:4;stroke-dasharray:none;fill:none;stroke-opacity:1"/>
      <path d="m 1540.8,135.602 364.8,349.199" inkscape:connector-curvature="0" id="path34" style="stroke:#000000;stroke-width:8;stroke-miterlimit:4;stroke-dasharray:none;fill:none;stroke-opacity:1"/>
      <path d="m 1504.8,242.398 291.6,278.403" inkscape:connector-curvature="0" id="path36" style="stroke:#000000;stroke-width:8;stroke-miterlimit:4;stroke-dasharray:none;fill:none;stroke-opacity:1"/>
      <path d="m 1867.2,505.199 -25.2,6 -25.2,9.602 -27.6,4.801 -26.4,0 -30,-2.403 -25.2,-2.398 -27.6,-9.602 -25.2,-8.398 -24,-12 -24,-15.602 -18,-15.597 -18,-18 -13.2,-16.801 -14.4,-20.403 -15.6,-28.796 -6,-22.801 -7.2,-26.403 -4.8,-24 -4.8,-30 0,-25.199 4.8,-30 6,-24 7.2,-22.801 12,-25.199 6,-13.199 9.6,-12 22.8,-25.1992 L 1596,72 1616.4,56.3984 1641.6,42 l 27.6,-13.1992 27.6,-7.1992 22.8,-7.2032 26.4,0 27.6,-1.1992 32.4,4.8008 22.8,3.6016 27.6,12 26.4,13.1992 18,9.5976 21.6,18 20.4,18 20.4,20.4026 15.6,25.199 16.8,22.801 10.8,22.801 7.2,27.597 2.4,25.199 3.6,30 -2.4,24 -1.2,30 -7.2,25.204 -9.6,22.796 -10.8,30 -16.8,21.602 -15.6,19.199 -18,22.801 -22.8,15.602 -22.8,15.597 -25.2,12" inkscape:connector-curvature="0" id="path38" style="stroke:#000000;stroke-width:8;stroke-miterlimit:4;stroke-dasharray:none;fill:none;stroke-opacity:1"/>
      <path d="m 2181.6,465.602 0,-410.4028 73.2,0 0,410.4028 -73.2,0" inkscape:connector-curvature="0" id="path40" style="stroke:#000000;stroke-width:8;stroke-miterlimit:4;stroke-dasharray:none;fill:none;stroke-opacity:1"/>
      <path d="m 2546.4,465.602 0,-410.4028 74.4,0 0,410.4028 -74.4,0" inkscape:connector-curvature="0" id="path42" style="stroke:#000000;stroke-width:8;stroke-miterlimit:4;stroke-dasharray:none;fill:none;stroke-opacity:1"/>
      <path d="m 2914.8,465.602 0,-410.4028 73.2,0 0,410.4028 -73.2,0" inkscape:connector-curvature="0" id="path44" style="stroke:#000000;stroke-width:8;stroke-miterlimit:4;stroke-dasharray:none;fill:none;stroke-opacity:1"/>
    </g>
  </g>
</svg>
