<?xml version="1.0" encoding="UTF-8"?>
<!-- Created with Inkscape (http://www.inkscape.org/) -->
<svg xmlns:dc="http://purl.org/dc/elements/1.1/" xmlns:cc="http://creativecommons.org/ns#" xmlns:rdf="http://www.w3.org/1999/02/22-rdf-syntax-ns#" xmlns:svg="http://www.w3.org/2000/svg" xmlns="http://www.w3.org/2000/svg" xmlns:inkscape="http://www.inkscape.org/namespaces/inkscape" version="1.1" width="765" height="990" id="svg2" xml:space="preserve">
  <metadata id="metadata8">
    <rdf:RDF>
      <cc:Work rdf:about="">
        <dc:format>image/svg+xml</dc:format>
        <dc:type rdf:resource="http://purl.org/dc/dcmitype/StillImage"/>
      </cc:Work>
    </rdf:RDF>
  </metadata>
  <defs id="defs6"/>
  <g transform="matrix(1.25,0,0,-1.25,0,990)" id="g10">
    <g transform="scale(0.1,0.1)" id="g12">
      <path d="m 586.801,16.8008 -572.4026,0 0,80.3984 172.8006,0 L 132,128.398 97.1992,164.398 75.6016,186 52.8008,214.801 30,253.199 l -9.6016,42 -6,50.403 0,48 L 24,433.199 33.6016,476.398 66,531.602 91.1992,564 120,592.801 154.801,618 l 51.597,15.602 25.204,9.597 51.597,7.199 66,0 74.403,-22.796 42,-16.801 34.796,-25.199 31.204,-31.204 42,-64.796 19.199,-54 9.597,-86.403 -9.597,-50.398 -25.199,-76.801 -28.801,-39.602 -25.199,-28.796 -42,-27.602 -48,-28.8008 163.199,0 0,-80.3984" inkscape:connector-curvature="0" id="path14" style="stroke:#000000;stroke-width:8;stroke-miterlimit:4;stroke-dasharray:none;fill:none;stroke-opacity:1"/>
      <path d="m 285.602,132 -31.204,9.602 -42,12 -40.796,22.796 -22.801,22.801 -19.199,25.199 L 114,247.199 103.199,270 l -11.9998,57.602 0,60 22.8008,73.199 28.801,42 18,19.199 16.801,13.199 31.199,19.199 80.398,19.204 36,0 50.403,-13.204 61.199,-25.199 25.199,-16.801 22.801,-31.199 21.597,-26.398 19.204,-69.602 0,-70.801 -6,-21.597 -6,-26.403 -39.602,-54 -8.398,-13.199 -32.403,-25.199 -36,-28.801 -69.597,-15.597 -42,-3.602" inkscape:connector-curvature="0" id="path16" style="stroke:#000000;stroke-width:8;stroke-miterlimit:4;stroke-dasharray:none;fill:none;stroke-opacity:1"/>
      <path d="M 174,180 1021.2,1455.6 1488,404.398" inkscape:connector-curvature="0" id="path18" style="stroke:#000000;stroke-width:8;stroke-miterlimit:4;stroke-dasharray:none;fill:none;stroke-opacity:1"/>
      <path d="m 1021.2,1455.6 186,-1127.998" inkscape:connector-curvature="0" id="path20" style="stroke:#000000;stroke-width:8;stroke-miterlimit:4;stroke-dasharray:none;fill:none;stroke-opacity:1"/>
      <path d="m 1194,451.199 242.4,80.403" inkscape:connector-curvature="0" id="path22" style="stroke:#000000;stroke-width:8;stroke-miterlimit:4;stroke-dasharray:none;fill:none;stroke-opacity:1"/>
      <path d="m 1315.2,487.199 48,-111.597" inkscape:connector-curvature="0" id="path24" style="stroke:#000000;stroke-width:8;stroke-miterlimit:4;stroke-dasharray:none;fill:none;stroke-opacity:1"/>
      <path d="M 2928,84 3145.2,283.199 3350.4,84" inkscape:connector-curvature="0" id="path26" style="stroke:#000000;stroke-width:8;stroke-miterlimit:4;stroke-dasharray:none;fill:none;stroke-opacity:1"/>
      <path d="M 3433.2,174 3241.2,368.398 3446.4,564" inkscape:connector-curvature="0" id="path28" style="stroke:#000000;stroke-width:8;stroke-miterlimit:4;stroke-dasharray:none;fill:none;stroke-opacity:1"/>
      <path d="M 3356.4,663.602 3152.4,468 2947.2,679.199" inkscape:connector-curvature="0" id="path30" style="stroke:#000000;stroke-width:8;stroke-miterlimit:4;stroke-dasharray:none;fill:none;stroke-opacity:1"/>
      <path d="M 2858.4,592.801 3056.4,381.602 2845.2,180" inkscape:connector-curvature="0" id="path32" style="stroke:#000000;stroke-width:8;stroke-miterlimit:4;stroke-dasharray:none;fill:none;stroke-opacity:1"/>
      <path d="m 3112.8,16.8008 90,3.5976 51.6,12 44.4,20.4024 51.6,34.8008 38.4,34.7964 38.4,42 25.2,42 25.2,44.403 13.2,44.398 6,51.602 0,50.398 -15.6,90 -19.2,48 -28.8,48 -32.4,44.403 -48,42 -38.4,25.199 -38.4,16.801 -34.8,12 -48,9.597 -48,3.602 -63.6,0 -51.6,-13.199 -48,-19.204 -44.4,-25.199 -42,-36 -37.2,-43.199 -36,-45.602 -15.6,-32.398 -13.2,-34.801 -12,-61.199 0,-57.602 6,-40.796 6,-44.403 16.8,-45.597 21.6,-50.403 38.4,-49.199 38.4,-34.801 44.4,-34.8006 45.6,-22.7968 54,-19.2032 60,-9.5976" inkscape:connector-curvature="0" id="path34" style="stroke:#000000;stroke-width:8;stroke-miterlimit:4;stroke-dasharray:none;fill:none;stroke-opacity:1"/>
      <path d="m 3505.2,1100.4 -753.6,0 9.6,63.6 9.6,42 15.6,42 22.8,32.4 19.2,28.8 25.2,34.8 28.8,25.2 34.8,26.4 28.8,19.2 42,18 40.8,13.2 28.8,6 51.6,7.2 38.4,0 34.8,-7.2 38.4,-6 42,-9.6 28.8,-9.6 38.4,-25.2 31.2,-22.8 28.8,-22.8 26.4,-31.2 25.2,-34.8 22.8,-36 15.6,-32.4 13.2,-46.8 9.6,-36 2.4,-38.4" inkscape:connector-curvature="0" id="path36" style="stroke:#000000;stroke-width:8;stroke-miterlimit:4;stroke-dasharray:none;fill:none;stroke-opacity:1"/>
      <path d="m 2524.8,256.801 -40.8,3.597 -45.6,9.602 -34.8,19.199 -28.8,19.199 -51.6,54 -48,55.204 -44.4,61.199 -21.6,46.801 -16.8,38.398 -22.8,70.801 -6,82.801 6,38.398 22.8,45.602 38.4,48 -61.2,18 -44.4,36 -73.2,98.398 51.6,-150 34.8,-124.801 6,-63.597 9.6,-51.602 15.6,-50.398 16.8,-45.602 25.2,-40.801 26.4,-45.597 31.2,-34.801 34.8,-38.403 28.8,-31.199 22.8,-22.801 15.6,-13.199 -67.2,22.801 -69.6,25.199 -64.8,32.403 -66,67.199 -39.6,54 -27.6,48 -28.8,63.597 -26.4,74.403 -18,69.597 -10.8,67.204 -6,54 6,57.597 16.8,45.602 54,73.199 28.8,32.4 -73.2,31.2 -57.6,45.6 -63.6,88.8 37.2,-134.4 38.4,-130.799 -6,-90 3.6,-66 13.2,-67.199 8.4,-61.204 19.2,-54 20.4,-48 21.6,-48 32.4,-61.199 79.2,-99.597 -63.6,36 -61.2,38.398 -67.2,57.602 -66,63.597 -45.6,70.801 -22.8,67.199 -15.6,73.199 7.2,69.602 8.4,28.801 20.4,38.398 25.2,30 -61.2,31.199 -56.4,44.402 -74.4,96 48,-140.402 51.6,-144 9.6,-51.597 2.4,-37.199 16.8,-61.204 31.2,-76.796 26.4,-38.403 37.2,-42 32.4,-31.199 44.4,-38.398 45.6,-32.403 57.6,-34.801 63.6,-38.398 150,-61.199 124.8,-42 92.4,-15.602 38.4,-6 0,19.199" inkscape:connector-curvature="0" id="path38" style="stroke:#000000;stroke-width:8;stroke-miterlimit:4;stroke-dasharray:none;fill:none;stroke-opacity:1"/>
    </g>
  </g>
</svg>
