<?xml version="1.0" encoding="UTF-8"?>
<!-- Created with Inkscape (http://www.inkscape.org/) -->
<svg xmlns:dc="http://purl.org/dc/elements/1.1/" xmlns:cc="http://creativecommons.org/ns#" xmlns:rdf="http://www.w3.org/1999/02/22-rdf-syntax-ns#" xmlns:svg="http://www.w3.org/2000/svg" xmlns="http://www.w3.org/2000/svg" xmlns:inkscape="http://www.inkscape.org/namespaces/inkscape" version="1.1" width="765" height="990" id="svg2" xml:space="preserve">
  <metadata id="metadata8">
    <rdf:RDF>
      <cc:Work rdf:about="">
        <dc:format>image/svg+xml</dc:format>
        <dc:type rdf:resource="http://purl.org/dc/dcmitype/StillImage"/>
      </cc:Work>
    </rdf:RDF>
  </metadata>
  <defs id="defs6"/>
  <g transform="matrix(1.25,0,0,-1.25,0,990)" id="g10">
    <g transform="scale(0.1,0.1)" id="g12">
      <path d="m 1083.6,896.398 1186.8,0 0,174.002 -158.4,-111.599 -4.8,55.199 -15.6,49.2 -12,44.4 -46.8,69.6 -43.2,52.8 -57.6,37.2 -63.6,34.8 -86.4,22.8 -62.4,2.4 -40.8,2.4 -79.2,-9.6 -60,-13.2 -58.8,-14.4 -50.4,-25.2 -51.6,-42 -52.8,-52.8 -39.6,-64.8 -28.8,-84 -4.8,-69.6 -169.2,109.2 0,-166.802" inkscape:connector-curvature="0" id="path14" style="stroke:#000000;stroke-width:8;stroke-miterlimit:4;stroke-dasharray:none;fill:none;stroke-opacity:1"/>
      <path d="m 1764,1327.2 42,129.6 -231.6,0 40.8,-129.6" inkscape:connector-curvature="0" id="path16" style="stroke:#000000;stroke-width:8;stroke-miterlimit:4;stroke-dasharray:none;fill:none;stroke-opacity:1"/>
      <path d="m 2064,34.8008 -32.4,2.3984 -34.8,7.1992 -26.4,14.4024 -22.8,15.5976 -39.6,41.9996 -38.4,43.204 -33.6,46.796 -18,37.204 -12,30 -18,54 -4.8,64.796 4.8,30 18,34.801 30,37.199 -48,15.602 -34.8,26.398 -56.4,78 39.6,-117.597 27.6,-96 4.8,-50.403 7.2,-39.597 12,-39.602 13.2,-34.801 19.2,-32.398 20.4,-34.801 24,-27.597 27.6,-30 22.8,-25.2036 16.8,-16.7968 13.2,-10.8008 -52.8,18 -54,20.3984 -50.4,23.9998 -51.6,52.801 -30,42 -22.8,37.199 -21.6,50.403 -20.4,56.398 -14.4,55.199 -8.4,51.602 -4.8,43.199 4.8,44.398 13.2,34.801 42,57.602 22.8,24 -57.6,25.199 -44.4,34.801 -50.4,69.597 30,-104.398 30,-102 -4.8,-69.602 2.4,-52.796 9.6,-51.602 7.2,-46.801 15.6,-43.199 14.4,-36 18,-38.398 25.2,-46.801 61.2,-76.801 -49.2,27.602 -46.8,28.796 -52.8,45.602 -51.6,49.199 -34.8,54 -18,52.801 -12,57.602 4.8,54 7.2,22.796 14.4,30 20.4,21.602 -46.8,25.199 -44.4,34.801 -57.6,74.398 37.2,-109.199 39.6,-111.597 7.2,-39.602 2.4,-30 13.2,-46.801 24,-60 20.4,-30 30,-32.398 25.2,-25.199 33.6,-30 34.8,-24 45.6,-27.602 49.2,-30 116.4,-46.8008 97.2,-32.3984 72,-12 30,-4.8008 0,14.3984" inkscape:connector-curvature="0" id="path18" style="stroke:#000000;stroke-width:8;stroke-miterlimit:4;stroke-dasharray:none;fill:none;stroke-opacity:1"/>
      <path d="M 24,1022.4 10.8008,757.199 24,645.602 l 21.6016,-84 51.5976,-79.204 50.4028,-55.199 57.597,-37.199 36,-13.199 40.801,-15.602 87.602,-16.801 75.597,3.602 57.602,2.398 48,10.801 38.398,12 L 630,390 l 74.398,40.801 38.403,38.398 32.398,44.403 21.602,42 15.597,38.398 19.204,92.398 9.597,92.403 -9.597,250.799" inkscape:connector-curvature="0" id="path20" style="stroke:#000000;stroke-width:8;stroke-miterlimit:4;stroke-dasharray:none;fill:none;stroke-opacity:1"/>
      <path d="M 9.60156,810 838.801,810" inkscape:connector-curvature="0" id="path22" style="stroke:#000000;stroke-width:8;stroke-miterlimit:4;stroke-dasharray:none;fill:none;stroke-opacity:1"/>
    </g>
  </g>
</svg>
