<?xml version="1.0" encoding="UTF-8"?>
<!-- Created with Inkscape (http://www.inkscape.org/) -->
<svg xmlns:dc="http://purl.org/dc/elements/1.1/" xmlns:cc="http://creativecommons.org/ns#" xmlns:rdf="http://www.w3.org/1999/02/22-rdf-syntax-ns#" xmlns:svg="http://www.w3.org/2000/svg" xmlns="http://www.w3.org/2000/svg" xmlns:inkscape="http://www.inkscape.org/namespaces/inkscape" version="1.1" width="765" height="990" id="svg2" xml:space="preserve">
  <metadata id="metadata8">
    <rdf:RDF>
      <cc:Work rdf:about="">
        <dc:format>image/svg+xml</dc:format>
        <dc:type rdf:resource="http://purl.org/dc/dcmitype/StillImage"/>
      </cc:Work>
    </rdf:RDF>
  </metadata>
  <defs id="defs6"/>
  <g transform="matrix(1.25,0,0,-1.25,0,990)" id="g10">
    <g transform="scale(0.1,0.1)" id="g12">
      <path d="m 153.602,103.199 -16.801,21.602 -20.403,20.398 -16.7964,18 -18,19.199 L 60,205.199 l -22.8008,15.602 -22.8008,16.801 44.4024,396 13.1992,-4.801 15.6016,-7.199 12,-9.602 12.0004,-15.602 12,-18 4.796,-19.199 L 132,543.602 136.801,520.801 156,12 129.602,10.8008 135.602,126" inkscape:connector-curvature="0" id="path14" style="stroke:#000000;stroke-width:8;stroke-miterlimit:4;stroke-dasharray:none;fill:none;stroke-opacity:1"/>
      <path d="m 241.199,18 15.602,4.8008 19.199,2.3984 25.199,8.4024 8.403,12 8.398,45.5976 16.801,55.1988 3.597,14.403 0,12 15.602,34.801 27.602,82.796 8.398,20.403 3.602,20.398 3.597,24 -3.597,27.602 -3.602,39.597" inkscape:connector-curvature="0" id="path16" style="stroke:#000000;stroke-width:8;stroke-miterlimit:4;stroke-dasharray:none;fill:none;stroke-opacity:1"/>
      <path d="m 380.398,496.801 16.801,2.398 0,21.602 -19.199,4.801 -3.602,2.398 -2.398,1.199 0,24 -14.398,13.199 13.199,9.602 13.199,19.199 2.398,9.602 10.801,12 7.199,7.199 14.403,6 12,0 12,-1.199 10.801,-4.801 9.597,-7.199 7.199,-12 L 474,594 l 0,-13.199 -3.602,-15.602 -3.597,-12 -3.602,-9.597 -7.199,-10.801 -6,-12 0,-19.199 24,-7.204 7.199,-8.398 4.801,-14.398 -1.199,-16.801 0,-13.199 L 482.398,426 481.199,409.199 478.801,386.398 480,354 l 4.801,-14.398 2.398,-10.801 2.403,-16.801 0,-12 -1.204,-13.199 L 486,278.398 482.398,262.801 486,218.398 487.199,198 l 0,-10.801 1.199,-18 10.801,-52.801 1.199,-23.9996 1.204,-19.1992 1.199,-20.3984 2.398,-18 3.602,-14.4024 -2.403,-7.1992 -7.199,-2.3984 -9.597,6 L 481.199,12 420,10.8008 420,18 l 34.801,6 19.199,9.6016 6,9.5976 1.199,9.6016 -19.199,78.0002 -2.398,9.597 -3.602,4.801 -2.398,12 -10.801,45.602" inkscape:connector-curvature="0" id="path18" style="stroke:#000000;stroke-width:8;stroke-miterlimit:4;stroke-dasharray:none;fill:none;stroke-opacity:1"/>
      <path d="m 397.199,202.801 -10.801,-19.199 -9.597,-18 -3.602,-9.602 -3.597,-15.602 -6,-22.796 -10.801,-32.4028 -15.602,-30 -9.597,-21.5976 1.199,-10.8008 -1.199,-6 0,-3.6016 -7.204,-1.1992 -3.597,-1.1992 -6,3.5976 -3.602,-3.5976 -67.199,0 1.199,7.1992" inkscape:connector-curvature="0" id="path20" style="stroke:#000000;stroke-width:8;stroke-miterlimit:4;stroke-dasharray:none;fill:none;stroke-opacity:1"/>
      <path d="m 352.801,206.398 132,0" inkscape:connector-curvature="0" id="path22" style="stroke:#000000;stroke-width:8;stroke-miterlimit:4;stroke-dasharray:none;fill:none;stroke-opacity:1"/>
      <path d="m 398.398,354 78,22.801" inkscape:connector-curvature="0" id="path24" style="stroke:#000000;stroke-width:8;stroke-miterlimit:4;stroke-dasharray:none;fill:none;stroke-opacity:1"/>
      <path d="M 385.199,595.199 432,574.801 l 4.801,6 6,1.199 4.801,-1.199 0,-8.403 -1.204,-7.199 -3.597,-6 -2.403,-8.398 0,-6 7.204,-4.801 7.199,-6" inkscape:connector-curvature="0" id="path26" style="stroke:#000000;stroke-width:8;stroke-miterlimit:4;stroke-dasharray:none;fill:none;stroke-opacity:1"/>
      <path d="M 385.199,570 396,572.398 400.801,564 386.398,570" inkscape:connector-curvature="0" id="path28" style="stroke:#000000;stroke-width:8;stroke-miterlimit:4;stroke-dasharray:none;fill:none;stroke-opacity:1"/>
      <path d="m 388.801,422.398 -4.801,16.801 -18,7.199 -19.199,0 -22.801,1.204 -30,4.796 -7.199,4.801 -7.199,9.602 -10.801,19.199 -8.403,25.199 -7.199,20.403 -7.199,19.199 -1.199,6 L 234,570 l -10.801,12 3.602,1.199 14.398,-9.597 2.403,2.398 -3.602,8.398 -3.602,8.403 -6,4.801 -7.199,13.199 0,7.199 4.801,-1.199 9.602,-12 6,-9.602 4.796,-7.199 3.602,-7.199 1.199,-10.801 3.602,-7.199 6,-7.199 8.398,-9.602 10.801,-18 9.602,-14.398 7.199,-15.602 6,-13.199 13.199,-3.602 13.199,0 8.403,-1.199 14.398,0" inkscape:connector-curvature="0" id="path30" style="stroke:#000000;stroke-width:8;stroke-miterlimit:4;stroke-dasharray:none;fill:none;stroke-opacity:1"/>
      <path d="m 312,483.602 -10.801,28.796 -6,20.403 -3.597,20.398 -4.801,22.801 -7.199,7.199 -9.602,8.403 -3.602,6 3.602,1.199 12,-7.199 3.602,1.199 -9.602,15.597 -4.801,6 -6,6 -6,8.403 -2.398,4.801 6,-2.403 8.398,-7.199 4.801,-4.801 9.602,-9.597 6,-12 2.398,-7.204 3.602,-7.199 3.597,-10.801 8.403,-14.398 8.398,-14.398 8.398,-19.204 6,-13.199 4.801,-13.199 2.403,-6 6,-1.199 34.796,6" inkscape:connector-curvature="0" id="path32" style="stroke:#000000;stroke-width:8;stroke-miterlimit:4;stroke-dasharray:none;fill:none;stroke-opacity:1"/>
    </g>
  </g>
</svg>
