<?xml version="1.0" encoding="UTF-8"?>
<!-- Created with Inkscape (http://www.inkscape.org/) -->
<svg xmlns:dc="http://purl.org/dc/elements/1.1/" xmlns:cc="http://creativecommons.org/ns#" xmlns:rdf="http://www.w3.org/1999/02/22-rdf-syntax-ns#" xmlns:svg="http://www.w3.org/2000/svg" xmlns="http://www.w3.org/2000/svg" xmlns:inkscape="http://www.inkscape.org/namespaces/inkscape" version="1.1" width="765" height="990" id="svg2" xml:space="preserve">
  <metadata id="metadata8">
    <rdf:RDF>
      <cc:Work rdf:about="">
        <dc:format>image/svg+xml</dc:format>
        <dc:type rdf:resource="http://purl.org/dc/dcmitype/StillImage"/>
      </cc:Work>
    </rdf:RDF>
  </metadata>
  <defs id="defs6"/>
  <g transform="matrix(1.25,0,0,-1.25,0,990)" id="g10">
    <g transform="scale(0.1,0.1)" id="g12">
      <path d="m 1090.8,1071.6 -70.8,6 -111.602,-6 -82.796,9.6 -26.403,-9.6 -19.199,-25.2 7.199,-45.6 31.199,-101.999 61.204,-98.403 197.998,-237.597 102,-96 147.6,-138 313.2,-307.1994 31.2,0 9.6,16.7968 -12,28.8008 -134.4,307.1988 -19.2,57.602 -103.2,246 -92.4,159.602 -73.2,103.199 -54,73.199 -45.6,69.6 -48,64.8 -56.4,67.2 -57.601,38.4 -16.801,67.2 -12,73.2 -19.199,48 -55.199,13.2 -88.801,0 -99.597,-3.6 -48,-12 -21.602,-7.2 -163.199,-22.8 -48,-21.6 -15.602,-22.8 -3.597,-44.4 19.199,31.2 32.398,16.8 94.801,0 99.602,-3.6 51.597,-13.2 -42,51.6 -9.597,36" inkscape:connector-curvature="0" id="path14" style="stroke:#000000;stroke-width:8;stroke-miterlimit:4;stroke-dasharray:none;fill:none;stroke-opacity:1"/>
      <path d="m 745.199,1371.6 9.602,3.6 6,16.8 -6,15.6 -13.199,9.6 -13.204,-9.6 -2.398,-19.2 7.199,-9.6 8.403,-7.2" inkscape:connector-curvature="0" id="path16" style="stroke:#000000;stroke-width:8;stroke-miterlimit:4;stroke-dasharray:none;fill:none;stroke-opacity:1"/>
      <path d="m 409.199,1340.4 128.403,2.4 98.398,-12 28.801,-15.6 9.597,-32.4 3.602,-36 -28.801,-69.6 -13.199,-86.4 16.801,-105.601 12,-48 34.801,-96 42,-76.801 L 841.199,595.199 972,344.398 985.199,249.602 968.398,86.3984 952.801,69.6016 860.398,61.1992 751.199,63.6016 745.199,48 l -48,-7.1992 -6,-8.4024 8.403,-13.1992 276,9.6016 284.398,-13.1992 12,13.1992 -6,15.5976 -44.4,0 -26.4,22.8008 -162,2.4024 -19.2,13.1992 19.2,201.5972 117.6,-61.199 67.2,199.199 128.4,-320.398 44.4,-57.6016 44.4,-25.1992 67.2,0 38.4,13.1992 9.6,18 L 1518,138" inkscape:connector-curvature="0" id="path18" style="stroke:#000000;stroke-width:8;stroke-miterlimit:4;stroke-dasharray:none;fill:none;stroke-opacity:1"/>
      <path d="m 726,787.199 42,-234 L 764.398,374.398 733.199,192 704.398,98.3984 684,76.8008 531.602,67.1992 514.801,44.3984 480,40.8008 466.801,32.3984 480,19.1992 l 118.801,9.6016 34.801,-3.6016" inkscape:connector-curvature="0" id="path20" style="stroke:#000000;stroke-width:8;stroke-miterlimit:4;stroke-dasharray:none;fill:none;stroke-opacity:1"/>
      <path d="m 748.801,63.6016 -55.199,-6 0,0 -31.204,-7.2032 -19.199,-25.1992 13.199,-6 18,19.1992 19.204,2.4024" inkscape:connector-curvature="0" id="path22" style="stroke:#000000;stroke-width:8;stroke-miterlimit:4;stroke-dasharray:none;fill:none;stroke-opacity:1"/>
      <path d="M 745.199,67.1992 816,328.801 924,265.199 946.801,384" inkscape:connector-curvature="0" id="path24" style="stroke:#000000;stroke-width:8;stroke-miterlimit:4;stroke-dasharray:none;fill:none;stroke-opacity:1"/>
      <path d="m 522,63.6016 -51.602,-6 0,0 -31.199,-7.2032 -20.398,-25.1992 9.597,-6 22.801,19.1992 25.199,2.4024" inkscape:connector-curvature="0" id="path26" style="stroke:#000000;stroke-width:8;stroke-miterlimit:4;stroke-dasharray:none;fill:none;stroke-opacity:1"/>
      <path d="m 1202.4,67.1992 61.2,-6 28.8,-10.8008 18,-25.1992 -9.6,-6 -21.6,19.1992 -15.6,2.4024" inkscape:connector-curvature="0" id="path28" style="stroke:#000000;stroke-width:8;stroke-miterlimit:4;stroke-dasharray:none;fill:none;stroke-opacity:1"/>
      <path d="m 578.398,336 -562.7964,0 7.1992,48 7.1992,31.199 12,31.199 16.8008,24 14.3984,20.403 18,26.398 L 114,536.398 139.199,555.602 160.801,570 192,584.398 223.199,594 l 21.602,4.801 38.398,4.801 27.602,0 26.398,-4.801 L 366,594 l 31.199,-7.199 20.403,-7.199 28.796,-19.204 24,-16.796 21.602,-16.801 19.199,-24 19.199,-26.403 16.801,-26.398 12,-22.801 9.602,-36 6,-26.398 3.597,-28.801" inkscape:connector-curvature="0" id="path30" style="stroke:#000000;stroke-width:8;stroke-miterlimit:4;stroke-dasharray:none;fill:none;stroke-opacity:1"/>
      <path d="m 1705.2,1333.2 -3.6,7.2 -6,12 -3.6,6 -7.2,10.8 -4.8,8.4 -10.8,9.6 -2.4,7.2 -10.8,8.4 -8.4,7.2 -9.6,8.4 -7.2,4.8 -9.6,8.4 -9.6,6 -10.8,4.8 -7.2,4.8 -12,3.6 -9.6,3.6 -14.4,3.6 -7.2,2.4 -13.2,2.4 -9.6,1.2 -22.8,0 -9.6,-1.2 -8.4,-2.4 -9.6,-1.2 -9.6,-1.2 -9.6,-2.4 -8.4,-3.6 -15.6,-3.6 -8.4,-4.8 -12,-3.6 -8.4,-4.8 -10.8,-7.2 -7.2,-6 -9.6,-6 -8.4,-6 -9.6,-10.8 -9.6,-6 -4.8,-8.4 -4.8,-7.2 -8.4,-12 -3.6,-7.2 -8.4,-9.6 -4.8,-10.8 -3.6,-9.6 -1.2,-8.4 -6,-12 -2.4,-10.8 -2.4,-13.2 0,-9.6 -1.2,-16.8 0,-27.6 1.2,-10.8 3.6,-12 1.2,-9.6 4.8,-12 2.4,-8.4 7.2,-13.2 3.6,-10.8 8.4,-9.6 2.4,-7.2 7.2,-9.6 7.2,-7.2 8.4,-9.6 7.2,-7.2 8.4,-8.4 9.6,-7.2 12,-8.4 6,-3.6 7.2,-7.2 10.8,-2.4 13.2,-4.8 10.8,-4.8 12,-4.8 6,-1.2 12,-3.6 10.8,0 13.2,-1.2 6,0 15.6,-1.2 10.8,1.2 15.6,1.2 6,2.4 15.6,1.2 8.4,3.6 13.2,2.4 8.4,4.8 8.4,6 10.8,3.6 9.6,7.2 9.6,6 7.2,6 9.6,6 7.2,8.4 7.2,8.4 8.4,7.2 6,8.4 8.4,13.2 4.8,4.8 7.2,12 2.4,9.6 4.8,9.6 4.8,10.8 2.4,12 3.6,9.6 1.2,14.4 2.4,7.2 1.2,12 0,24 -1.2,12 -2.4,10.8 -2.4,12 -3.6,9.6 -3.6,9.6 -3.6,10.8" inkscape:connector-curvature="0" id="path32" style="stroke:#000000;stroke-width:8;stroke-miterlimit:4;stroke-dasharray:none;fill:none;stroke-opacity:1"/>
    </g>
  </g>
</svg>
