<?xml version="1.0" encoding="UTF-8"?>
<!-- Created with Inkscape (http://www.inkscape.org/) -->
<svg xmlns:dc="http://purl.org/dc/elements/1.1/" xmlns:cc="http://creativecommons.org/ns#" xmlns:rdf="http://www.w3.org/1999/02/22-rdf-syntax-ns#" xmlns:svg="http://www.w3.org/2000/svg" xmlns="http://www.w3.org/2000/svg" xmlns:inkscape="http://www.inkscape.org/namespaces/inkscape" version="1.1" width="765" height="990" id="svg2" xml:space="preserve">
  <metadata id="metadata8">
    <rdf:RDF>
      <cc:Work rdf:about="">
        <dc:format>image/svg+xml</dc:format>
        <dc:type rdf:resource="http://purl.org/dc/dcmitype/StillImage"/>
      </cc:Work>
    </rdf:RDF>
  </metadata>
  <defs id="defs6"/>
  <g transform="matrix(1.25,0,0,-1.25,0,990)" id="g10">
    <g transform="scale(0.1,0.1)" id="g12">
      <path d="m 1076.4,829.199 21.6,38.403 28.8,28.796 42,9.602 34.8,-6 25.2,-22.801 13.2,-19.199 9.6,-44.398 0,-518.403 -1237.2016,0 0,518.403 12,44.398 10.8008,19.199 25.1992,22.801 34.8008,6 45.6018,-9.602 28.801,-28.796 18,-34.801" inkscape:connector-curvature="0" id="path14" style="stroke:#000000;stroke-width:8;stroke-miterlimit:4;stroke-dasharray:none;fill:none;stroke-opacity:1"/>
      <path d="m 666,1302 -50.398,0 -19.204,-2.4 -36,-6 -21.597,-3.6 -19.199,-6 -19.204,-7.2 -26.398,-6 -21.602,-9.6 -22.796,-9.6 -19.204,-9.6 -19.199,-13.2 -19.199,-12 -18,-13.2 -16.801,-15.6 -34.801,-32.4 -13.199,-15.6 -12,-13.2 -22.801,-31.2 -19.199,-33.6 -9.597,-18 -6,-22.8 -13.204,-44.399 -9.597,-19.199 -3.602,-28.801 -3.597,-19.199 0,-90 3.597,-22.801 13.199,-44.403 6,-28.796 7.204,-15.602 12,-28.801 6,-19.199 19.199,-19.199 7.199,-15.602 15.602,-20.398 13.199,-15.602 15.597,-21.597 32.403,-28.801 21.597,-16.801 22.801,-15.602 12,-9.597 20.403,-13.199 19.199,-9.602 28.801,-9.602 19.199,-8.398 25.199,-7.199 15.602,-3.602 22.796,-6 22.801,-3.597 25.199,-2.403 48,0 21.602,2.403 7.199,-2.403 25.199,2.403 19.204,3.597 25.199,6 13.199,3.602 25.199,7.199 19.199,8.398 28.801,9.602 19.199,9.602 19.204,13.199 13.199,9.597 L 906,522 l 19.199,16.801 32.403,28.801 15.597,21.597 13.199,15.602 15.602,20.398 9.6,15.602 15.6,19.199 9.6,19.199 10.8,28.801 8.4,15.602 7.2,28.796 9.6,44.403 3.6,22.801 0,90 -3.6,19.199 -3.6,28.801 -6,19.199 -7.2,31.199 -15.6,36 -9.6,18 -12,22.8 -29.999,42 -9.602,13.2 -12,15.6 -38.398,32.4 -15.602,15.6 -16.801,13.2 -19.199,12 -22.801,13.2 -15.597,9.6 -25.199,9.6 -19.204,9.6 -28.796,6 -16.801,7.2 -21.602,6 -19.199,3.6 -19.199,6 -38.403,2.4 -22.796,0" inkscape:connector-curvature="0" id="path16" style="stroke:#000000;stroke-width:8;stroke-miterlimit:4;stroke-dasharray:none;fill:none;stroke-opacity:1"/>
      <path d="m 1843.2,1101.6 -9.6,-44.4 -38.4,-15.6 -34.8,-32.4 -9.6,-28.802 3.6,-32.398 21.6,-40.801 44.4,-64.801 76.8,-76.796 208.8,-127.204 111.6,-61.199 92.4,-38.398 55.2,-34.801 34.8,-22.801 73.2,-76.801 9.6,-2.398 0,38.398 -32.4,124.801 L 2406,756 l -44.4,163.199 -54,134.401 -55.2,93.6 -40.8,60 -55.2,45.6 -38.4,21.6 -63.6,13.2 -48,-3.6 -48,-19.2 -124.8,-102 -50.4,-38.4 -28.8,-9.6 -26.4,6 -9.6,28.8 13.2,42 38.4,54 42,57.6 12,51.6 3.6,48 -15.6,34.8 -32.4,26.4 -38.4,12 -32.4,-6 -38.4,-13.2 -25.2,-15.6 -15.6,-13.2 -13.2,-19.2 -13.2,-32.4 6,-34.8 16.8,-12 12,-13.2 13.2,-15.6 3.6,-19.2 0,-28.8 -86.4,-153.6 -13.2,-51.6 0,-47.998 16.8,-48 31.2,-32.403 118.8,-76.801 21.6,-31.199 90,-115.199 28.8,-34.801 38.4,-36 102,-48 13.2,-3.597 15.6,-44.403 67.2,-102 13.2,-22.801 6,-25.199 28.8,-234 -3.6,-25.199 -6,-12 -19.2,-3.602 -115.2,-9.5972 -69.6,-7.1992 -19.2,-12 -3.6,-22.8008 15.6,-13.1992" inkscape:connector-curvature="0" id="path18" style="stroke:#000000;stroke-width:8;stroke-miterlimit:4;stroke-dasharray:none;fill:none;stroke-opacity:1"/>
      <path d="m 1926,85.1992 -28.8,-9.5976 -8.4,-13.2032 -7.2,-22.7968 28.8,10.7968" inkscape:connector-curvature="0" id="path20" style="stroke:#000000;stroke-width:8;stroke-miterlimit:4;stroke-dasharray:none;fill:none;stroke-opacity:1"/>
      <path d="M 1981.2,75.6016 1952.4,72 l -13.2,-15.6016 -2.4,-13.1992 28.8,3.6016" inkscape:connector-curvature="0" id="path22" style="stroke:#000000;stroke-width:8;stroke-miterlimit:4;stroke-dasharray:none;fill:none;stroke-opacity:1"/>
      <path d="m 2054.4,87.6016 -54,-6 -32.4,-13.2032 0,-18 15.6,-10.7968 36,3.5976 142.8,13.1992 112.8,-16.7968 15.6,3.5976 0,19.1992 -6,16.8008 -76.8,18 -9.6,10.8008 -19.2,219.602 3.6,42 -9.6,32.398 -19.2,54 -10.8,115.199" inkscape:connector-curvature="0" id="path24" style="stroke:#000000;stroke-width:8;stroke-miterlimit:4;stroke-dasharray:none;fill:none;stroke-opacity:1"/>
      <path d="m 2146.8,536.398 64.8,-16.796 82.8,-9.602 60,0" inkscape:connector-curvature="0" id="path26" style="stroke:#000000;stroke-width:8;stroke-miterlimit:4;stroke-dasharray:none;fill:none;stroke-opacity:1"/>
      <path d="m 2290.8,72 19.2,-3.6016 13.2,-12 2.4,-13.1992 -31.2,7.1992" inkscape:connector-curvature="0" id="path28" style="stroke:#000000;stroke-width:8;stroke-miterlimit:4;stroke-dasharray:none;fill:none;stroke-opacity:1"/>
      <path d="m 1891.2,631.199 28.8,-204 -6,-28.801 -151.2,-274.796 -8.4,-13.204 -16.8,-2.398 -192,-20.3984 -12,-6 -3.6,-6 -15.6,-3.6016 -13.2,-6 -3.6,-15.6016 -2.4,-13.1992 25.2,19.1992 9.6,-13.1992 22.8,0" inkscape:connector-curvature="0" id="path30" style="stroke:#000000;stroke-width:8;stroke-miterlimit:4;stroke-dasharray:none;fill:none;stroke-opacity:1"/>
      <path d="m 1587.6,72 -25.2,-6 -7.2,-13.1992 3.6,-13.1992 32.4,10.7968" inkscape:connector-curvature="0" id="path32" style="stroke:#000000;stroke-width:8;stroke-miterlimit:4;stroke-dasharray:none;fill:none;stroke-opacity:1"/>
      <path d="m 1693.2,87.6016 -76.8,-12 -25.2,-3.6016 0,-21.6016 12,-10.7968 128.4,13.1992 42,7.1992 73.2,-13.1992 31.2,-7.1992" inkscape:connector-curvature="0" id="path34" style="stroke:#000000;stroke-width:8;stroke-miterlimit:4;stroke-dasharray:none;fill:none;stroke-opacity:1"/>
      <path d="m 1891.2,75.6016 -63.6,15.5976 -7.2,9.6018 0,15.597 112.8,202.801 15.6,18 16.8,32.403 6,32.398 60,130.801" inkscape:connector-curvature="0" id="path36" style="stroke:#000000;stroke-width:8;stroke-miterlimit:4;stroke-dasharray:none;fill:none;stroke-opacity:1"/>
      <path d="m 1616.4,1416 -121.2,-22.8 -26.4,-13.2 -21.6,-21.6 -19.2,-42 21.6,13.2 36,18 48,13.2 31.2,0 38.4,6" inkscape:connector-curvature="0" id="path38" style="stroke:#000000;stroke-width:8;stroke-miterlimit:4;stroke-dasharray:none;fill:none;stroke-opacity:1"/>
      <path d="m 1437.6,1318.8 48,7.2 51.6,3.6 37.2,-7.2 32.4,3.6 15.6,0" inkscape:connector-curvature="0" id="path40" style="stroke:#000000;stroke-width:8;stroke-miterlimit:4;stroke-dasharray:none;fill:none;stroke-opacity:1"/>
      <path d="m 1674,1402.8 6,-19.2 9.6,-3.6 13.2,0 9.6,9.6 0,13.2 -6,9.6 -9.6,3.6 -13.2,-3.6 -9.6,-13.2" inkscape:connector-curvature="0" id="path42" style="stroke:#000000;stroke-width:8;stroke-miterlimit:4;stroke-dasharray:none;fill:none;stroke-opacity:1"/>
      <path d="m 1562.4,1092 -38.4,-27.6 -32.4,-42 -6,-45.599 0,-28.801 6,-46.801 -3.6,-39.597 -21.6,-37.204 -26.4,-13.199 -25.2,0 -19.2,13.199 -6,18 -6,28.801 2.4,38.403 16.8,45.597 8.4,31.199 28.8,49.202 38.4,34.8 42,15.6 22.8,6 19.2,3.6" inkscape:connector-curvature="0" id="path44" style="stroke:#000000;stroke-width:8;stroke-miterlimit:4;stroke-dasharray:none;fill:none;stroke-opacity:1"/>
      <path d="m 3566.4,1081.2 -754.8,0 9.6,63.6 9.6,42 15.6,40.8 22.8,32.4 19.2,28.8 25.2,36 28.8,25.2 34.8,25.2 28.8,19.2 42,19.2 42,13.2 28.8,6 50.4,6 38.4,0 36,-6 38.4,-6 40.8,-9.6 28.8,-9.6 38.4,-26.4 32.4,-21.6 28.8,-22.8 25.2,-32.4 26.4,-34.8 21.6,-34.8 15.6,-32.4 13.2,-46.8 9.6,-36 3.6,-38.4" inkscape:connector-curvature="0" id="path46" style="stroke:#000000;stroke-width:8;stroke-miterlimit:4;stroke-dasharray:none;fill:none;stroke-opacity:1"/>
      <path d="m 3523.2,606 -256.8,-574.8008 -127.2,0 255.6,574.8008 128.4,0" inkscape:connector-curvature="0" id="path48" style="stroke:#000000;stroke-width:8;stroke-miterlimit:4;stroke-dasharray:none;fill:none;stroke-opacity:1"/>
      <path d="M 3136.8,606 2880,31.1992 l -127.2,0 255.6,574.8008 128.4,0" inkscape:connector-curvature="0" id="path50" style="stroke:#000000;stroke-width:8;stroke-miterlimit:4;stroke-dasharray:none;fill:none;stroke-opacity:1"/>
      <path d="m 4615.2,22.8008 -914.4,0 220.8,87.5972 -132,430.801 -2.4,38.403 -3.6,36 3.6,31.199 9.6,19.199 13.2,15.602 19.2,9.597 15.6,3.602 31.2,0 10.8,-3.602 15.6,-9.597 25.2,-19.204 253.2,-312 25.2,494.403 9.6,74.398 13.2,50.403 9.6,32.398 31.2,28.8 28.8,19.2 16.8,9.6 25.2,6 22.8,0 21.6,-3.6 42,-21.6 21.6,-25.2 16.8,-30.001 19.2,-37.199 9.6,-48 6,-48 3.6,-32.398 0,-662.403 -7.2,-25.199 -15.6,-25.199 144,-90.0002" inkscape:connector-curvature="0" id="path52" style="stroke:#000000;stroke-width:8;stroke-miterlimit:4;stroke-dasharray:none;fill:none;stroke-opacity:1"/>
      <path d="m 4200,768 -84,0 7.2,134.398 9.6,67.204 19.2,51.598 21.6,51.6" inkscape:connector-curvature="0" id="path54" style="stroke:#000000;stroke-width:8;stroke-miterlimit:4;stroke-dasharray:none;fill:none;stroke-opacity:1"/>
      <path d="m 4509.6,765.602 79.2,0 7.2,347.998 -13.2,67.2 -25.2,67.2 -48,82.8 -54,55.2 -63.6,38.4 -68.4,19.2 -73.2,9.6" inkscape:connector-curvature="0" id="path56" style="stroke:#000000;stroke-width:8;stroke-miterlimit:4;stroke-dasharray:none;fill:none;stroke-opacity:1"/>
      <path d="m 4171.2,1399.2 18,-13.2 16.8,13.2 -19.2,15.6 -13.2,-15.6" inkscape:connector-curvature="0" id="path58" style="stroke:#000000;stroke-width:8;stroke-miterlimit:4;stroke-dasharray:none;fill:none;stroke-opacity:1"/>
      <path d="m 4171.2,1072.8 -13.2,18 -6,42 34.8,80.4 70.8,86.4 12,13.2 13.2,25.2 6,32.4 -2.4,28.8 -13.2,25.2 -26.4,28.8 -46.8,2.4 -48,-6 -36,-9.6 -28.8,-21.6 -38.4,-3.6 -48,-9.6 -50.4,-22.8 -44.4,-21.6 -64.8,-51.6 -31.2,-36 -20.4,-21.6 13.2,-9.6 51.6,44.4 61.2,44.4 44.4,22.8 48,9.6 48,0 40.8,-6 32.4,-9.6 22.8,-28.8 -3.6,-34.8 -38.4,-76.8 -32.4,-64.8 -19.2,-73.2 13.2,-44.4 28.8,-26.402 45.6,-6" inkscape:connector-curvature="0" id="path60" style="stroke:#000000;stroke-width:8;stroke-miterlimit:4;stroke-dasharray:none;fill:none;stroke-opacity:1"/>
    </g>
  </g>
</svg>
