<?xml version="1.0" encoding="UTF-8"?>
<!-- Created with Inkscape (http://www.inkscape.org/) -->
<svg xmlns:dc="http://purl.org/dc/elements/1.1/" xmlns:cc="http://creativecommons.org/ns#" xmlns:rdf="http://www.w3.org/1999/02/22-rdf-syntax-ns#" xmlns:svg="http://www.w3.org/2000/svg" xmlns="http://www.w3.org/2000/svg" xmlns:inkscape="http://www.inkscape.org/namespaces/inkscape" version="1.1" width="765" height="990" id="svg2" xml:space="preserve">
  <metadata id="metadata8">
    <rdf:RDF>
      <cc:Work rdf:about="">
        <dc:format>image/svg+xml</dc:format>
        <dc:type rdf:resource="http://purl.org/dc/dcmitype/StillImage"/>
      </cc:Work>
    </rdf:RDF>
  </metadata>
  <defs id="defs6"/>
  <g transform="matrix(1.25,0,0,-1.25,0,990)" id="g10">
    <g transform="scale(0.1,0.1)" id="g12">
      <path d="m 735.602,1117.2 -73.204,7.2 -115.199,-7.2 -85.199,10.8 -26.398,-10.8 -20.403,-25.2 7.199,-46.8 32.403,-105.598 62.398,-102 L 722.398,594 828,494.398 979.199,352.801 1302,36 l 33.6,0 9.6,16.8008 -13.2,30 -138,315.5972 -20.4,60 -105.6,254.403 -96,164.398 -75.602,105.602 -55.199,75.599 -46.801,72 -49.199,67.2 -60,68.4 -58.801,39.6 -16.796,69.6 -13.204,75.6 -19.199,49.2 -56.398,13.2 -92.403,0 -102,-2.4 -49.199,-13.2 -24,-7.2 L 85.1992,1467.6 36,1444.8 l -16.8008,-24 -2.3984,-45.6 19.1992,32.4 33.6016,16.8 98.3984,0 102,-3.6 52.801,-13.2 -43.199,52.8 -9.602,37.2" inkscape:connector-curvature="0" id="path14" style="stroke:#000000;stroke-width:8;stroke-miterlimit:4;stroke-dasharray:none;fill:none;stroke-opacity:1"/>
      <path d="m 379.199,1428 9.602,3.6 6,15.6 -6,16.8 -13.199,10.8 -13.204,-10.8 -3.597,-19.2 7.199,-10.8 9.602,-6" inkscape:connector-curvature="0" id="path16" style="stroke:#000000;stroke-width:8;stroke-miterlimit:4;stroke-dasharray:none;fill:none;stroke-opacity:1"/>
      <path d="m 32.3984,1395.6 131.9996,2.4 102,-13.2 30,-15.6 10.801,-33.6 2.403,-36 -30,-72 -13.204,-90 16.801,-108 13.199,-50.401 36,-98.398 43.204,-79.199 102,-175.204 L 613.199,369.602 626.398,270 609.602,102 592.801,86.3984 498,75.6016 l -112.801,3.5976 -6,-15.5976 -49.199,-7.2032 -7.199,-10.7968 9.597,-12 284.403,9.5976 L 909.602,30 l 13.199,13.1992 -6,15.6016 -46.801,0 -26.398,24 -168,3.5976 L 655.199,99.6016 675.602,306 798,243.602 l 68.398,205.199 133.204,-330 45.598,-60.0002 45.6,-25.1992 69.6,0 39.6,12 9.6,20.3984 -32.4,90" inkscape:connector-curvature="0" id="path18" style="stroke:#000000;stroke-width:8;stroke-miterlimit:4;stroke-dasharray:none;fill:none;stroke-opacity:1"/>
      <path d="m 358.801,824.398 43.199,-240 -2.398,-186 L 366,211.199 l -30,-96 -19.199,-22.8006 -158.403,-9.5976 -16.796,-24 -36,-2.4024 -13.2036,-10.7968 13.2036,-12 121.199,9.5976 L 264,39.6016" inkscape:connector-curvature="0" id="path20" style="stroke:#000000;stroke-width:8;stroke-miterlimit:4;stroke-dasharray:none;fill:none;stroke-opacity:1"/>
      <path d="m 382.801,79.1992 -56.403,-6 0,0 L 294,66 273.602,39.6016 l 13.199,-6 20.398,19.1992 19.199,3.5976" inkscape:connector-curvature="0" id="path22" style="stroke:#000000;stroke-width:8;stroke-miterlimit:4;stroke-dasharray:none;fill:none;stroke-opacity:1"/>
      <path d="m 379.199,82.8008 72,270.0002 112.801,-66 22.801,122.398" inkscape:connector-curvature="0" id="path24" style="stroke:#000000;stroke-width:8;stroke-miterlimit:4;stroke-dasharray:none;fill:none;stroke-opacity:1"/>
      <path d="m 147.602,79.1992 -51.602,-6 0,0 L 62.3984,66 42,39.6016 l 10.8008,-6 L 75.6016,52.8008 102,56.3984" inkscape:connector-curvature="0" id="path26" style="stroke:#000000;stroke-width:8;stroke-miterlimit:4;stroke-dasharray:none;fill:none;stroke-opacity:1"/>
      <path d="m 850.801,82.8008 62.398,-7.1992 30,-9.6016 19.199,-26.3984 -9.597,-6 L 930,52.8008 913.199,56.3984" inkscape:connector-curvature="0" id="path28" style="stroke:#000000;stroke-width:8;stroke-miterlimit:4;stroke-dasharray:none;fill:none;stroke-opacity:1"/>
      <path d="m 2634,1117.2 -73.2,7.2 -115.2,-7.2 -85.2,10.8 -26.4,-10.8 -20.4,-25.2 7.2,-46.8 32.4,-105.598 63.6,-102 L 2620.8,594 2726.4,494.398 2877.6,352.801 3200.4,36 l 33.6,0 9.6,16.8008 -13.2,30 -138,315.5972 -20.4,60 -105.6,254.403 -96,164.398 -75.6,105.602 -55.2,75.599 -46.8,72 -49.2,67.2 -58.8,68.4 -60,39.6 -16.8,69.6 -13.2,75.6 -19.2,49.2 -56.4,13.2 -92.4,0 -102,-2.4 -49.2,-13.2 -24,-7.2 -168,-22.8 -49.2,-22.8 -16.8,-24 -2.4,-45.6 19.2,32.4 33.6,16.8 98.4,0 102,-3.6 52.8,-13.2 -43.2,52.8 -9.6,37.2" inkscape:connector-curvature="0" id="path30" style="stroke:#000000;stroke-width:8;stroke-miterlimit:4;stroke-dasharray:none;fill:none;stroke-opacity:1"/>
      <path d="m 2277.6,1428 9.6,3.6 7.2,15.6 -7.2,16.8 -13.2,10.8 -13.2,-10.8 -3.6,-19.2 7.2,-10.8 9.6,-6" inkscape:connector-curvature="0" id="path32" style="stroke:#000000;stroke-width:8;stroke-miterlimit:4;stroke-dasharray:none;fill:none;stroke-opacity:1"/>
      <path d="m 1930.8,1395.6 132,2.4 102,-13.2 30,-15.6 10.8,-33.6 2.4,-36 -30,-72 -13.2,-90 16.8,-108 13.2,-50.401 36,-98.398 43.2,-79.199 102,-175.204 135.6,-256.796 13.2,-99.602 -16.8,-168 -16.8,-15.6016 -94.8,-10.7968 -112.8,3.5976 -6,-15.5976 -49.2,-7.2032 -7.2,-10.7968 9.6,-12 284.4,9.5976 L 2808,30 l 13.2,13.1992 -6,15.6016 -45.6,0 -27.6,24 -168,3.5976 -19.2,13.2032 L 2574,306 l 122.4,-62.398 68.4,205.199 133.2,-330 45.6,-60.0002 45.6,-25.1992 69.6,0 39.6,12 9.6,20.3984 -32.4,90" inkscape:connector-curvature="0" id="path34" style="stroke:#000000;stroke-width:8;stroke-miterlimit:4;stroke-dasharray:none;fill:none;stroke-opacity:1"/>
      <path d="m 2257.2,824.398 43.2,-240 -2.4,-186 -33.6,-187.199 -30,-96 -19.2,-22.8006 -158.4,-9.5976 -16.8,-24 -36,-2.4024 -13.2,-10.7968 13.2,-12 122.4,9.5976 36,-3.5976" inkscape:connector-curvature="0" id="path36" style="stroke:#000000;stroke-width:8;stroke-miterlimit:4;stroke-dasharray:none;fill:none;stroke-opacity:1"/>
      <path d="m 2281.2,79.1992 -56.4,-6 0,0 L 2192.4,66 2172,39.6016 l 13.2,-6 20.4,19.1992 19.2,3.5976" inkscape:connector-curvature="0" id="path38" style="stroke:#000000;stroke-width:8;stroke-miterlimit:4;stroke-dasharray:none;fill:none;stroke-opacity:1"/>
      <path d="m 2277.6,82.8008 72,270.0002 112.8,-66 22.8,122.398" inkscape:connector-curvature="0" id="path40" style="stroke:#000000;stroke-width:8;stroke-miterlimit:4;stroke-dasharray:none;fill:none;stroke-opacity:1"/>
      <path d="m 2046,79.1992 -51.6,-6 0,0 -33.6,-7.1992 -20.4,-26.3984 10.8,-6 22.8,19.1992 26.4,3.5976" inkscape:connector-curvature="0" id="path42" style="stroke:#000000;stroke-width:8;stroke-miterlimit:4;stroke-dasharray:none;fill:none;stroke-opacity:1"/>
      <path d="m 2749.2,82.8008 62.4,-7.1992 30,-9.6016 19.2,-26.3984 -9.6,-6 -22.8,19.1992 -16.8,3.5976" inkscape:connector-curvature="0" id="path44" style="stroke:#000000;stroke-width:8;stroke-miterlimit:4;stroke-dasharray:none;fill:none;stroke-opacity:1"/>
      <path d="M 1324.8,771.602 1754.4,1184.4" inkscape:connector-curvature="0" id="path46" style="stroke:#000000;stroke-width:8;stroke-miterlimit:4;stroke-dasharray:none;fill:none;stroke-opacity:1"/>
      <path d="M 1170,831.602 1698,1335.6" inkscape:connector-curvature="0" id="path48" style="stroke:#000000;stroke-width:8;stroke-miterlimit:4;stroke-dasharray:none;fill:none;stroke-opacity:1"/>
      <path d="M 1068,939.602 1596,1444.8" inkscape:connector-curvature="0" id="path50" style="stroke:#000000;stroke-width:8;stroke-miterlimit:4;stroke-dasharray:none;fill:none;stroke-opacity:1"/>
      <path d="m 1015.2,1094.4 422.4,403.2" inkscape:connector-curvature="0" id="path52" style="stroke:#000000;stroke-width:8;stroke-miterlimit:4;stroke-dasharray:none;fill:none;stroke-opacity:1"/>
      <path d="m 1539.6,1474.8 -36,8.4 -37.2,14.4 -38.4,6 -39.6,0 -43.2,-3.6 -36,-2.4 -39.6,-14.4 -36,-12 -37.2,-16.8 -32.4,-22.8 -26.4,-24 -26.4,-25.2 -19.2,-24 -20.4,-30 -22.8,-42 -10.8,-33.6 -9.6,-36 -6,-36 -7.2,-43.2 0,-36 7.2,-43.2 9.6,-36 9.6,-33.599 16.8,-36 9.6,-19.199 13.2,-16.801 32.4,-36 33.6,-33.602 30,-22.801 36,-19.199 39.6,-20.398 39.6,-9.602 32.4,-10.801 40.8,0 38.4,-2.398 46.8,7.199 33.6,6 38.4,16.801 40.8,19.199 25.2,13.199 30,26.403 30,26.398 28.8,30 24,36 22.8,32.403 16.8,33.598 9.6,39.6 3.6,36 6,43.2 -3.6,36 -2.4,43.2 -9.6,36 -13.2,33.6 -16.8,42 -24,33.6 -21.6,25.2 -27.6,33.6 -32.4,22.8 -32.4,24 -37.2,16.8" inkscape:connector-curvature="0" id="path54" style="stroke:#000000;stroke-width:8;stroke-miterlimit:4;stroke-dasharray:none;fill:none;stroke-opacity:1"/>
      <path d="M 3223.2,771.602 3652.8,1184.4" inkscape:connector-curvature="0" id="path56" style="stroke:#000000;stroke-width:8;stroke-miterlimit:4;stroke-dasharray:none;fill:none;stroke-opacity:1"/>
      <path d="m 3068.4,831.602 528,503.998" inkscape:connector-curvature="0" id="path58" style="stroke:#000000;stroke-width:8;stroke-miterlimit:4;stroke-dasharray:none;fill:none;stroke-opacity:1"/>
      <path d="M 2967.6,939.602 3494.4,1444.8" inkscape:connector-curvature="0" id="path60" style="stroke:#000000;stroke-width:8;stroke-miterlimit:4;stroke-dasharray:none;fill:none;stroke-opacity:1"/>
      <path d="M 2913.6,1094.4 3336,1497.6" inkscape:connector-curvature="0" id="path62" style="stroke:#000000;stroke-width:8;stroke-miterlimit:4;stroke-dasharray:none;fill:none;stroke-opacity:1"/>
      <path d="m 3438,1474.8 -36,8.4 -36,14.4 -39.6,6 -39.6,0 -43.2,-3.6 -36,-2.4 -39.6,-14.4 -36,-12 -37.2,-16.8 -32.4,-22.8 -26.4,-24 -26.4,-25.2 -19.2,-24 -20.4,-30 -22.8,-42 -9.6,-33.6 -10.8,-36 -6,-36 -7.2,-43.2 0,-36 7.2,-43.2 9.6,-36 9.6,-33.599 16.8,-36 10.8,-19.199 12,-16.801 33.6,-36 32.4,-33.602 30,-22.801 36,-19.199 39.6,-20.398 39.6,-9.602 32.4,-10.801 40.8,0 39.6,-2.398 45.6,7.199 33.6,6 38.4,16.801 40.8,19.199 26.4,13.199 28.8,26.403 30,26.398 28.8,30 24,36 22.8,32.403 16.8,33.598 9.6,39.6 3.6,36 6,43.2 -2.4,36 -3.6,43.2 -9.6,36 -13.2,33.6 -16.8,42 -24,33.6 -21.6,25.2 -27.6,33.6 -32.4,22.8 -32.4,24 -37.2,16.8" inkscape:connector-curvature="0" id="path64" style="stroke:#000000;stroke-width:8;stroke-miterlimit:4;stroke-dasharray:none;fill:none;stroke-opacity:1"/>
      <path d="m 4142.4,1513.2 69.6,0 0,-1483.2 -69.6,0 0,1483.2" inkscape:connector-curvature="0" id="path66" style="stroke:#000000;stroke-width:8;stroke-miterlimit:4;stroke-dasharray:none;fill:none;stroke-opacity:1"/>
      <path d="m 4142.4,1420.8 -328.8,0 0,-62.4 328.8,0" inkscape:connector-curvature="0" id="path68" style="stroke:#000000;stroke-width:8;stroke-miterlimit:4;stroke-dasharray:none;fill:none;stroke-opacity:1"/>
      <path d="m 4142.4,1260 -328.8,0 0,-62.4 328.8,0" inkscape:connector-curvature="0" id="path70" style="stroke:#000000;stroke-width:8;stroke-miterlimit:4;stroke-dasharray:none;fill:none;stroke-opacity:1"/>
      <path d="m 4142.4,454.801 -296.4,224.398 -19.2,36 -13.2,37.199 15.6,58.801 27.6,22.801 25.2,16.801 30,-3.602 33.6,-6 12,-13.199 16.8,-22.801 3.6,-22.801 -6,-20.398 -16.8,-22.801 -22.8,-10.801 -24,0 -32.4,20.403 -6,26.398" inkscape:connector-curvature="0" id="path72" style="stroke:#000000;stroke-width:8;stroke-miterlimit:4;stroke-dasharray:none;fill:none;stroke-opacity:1"/>
      <path d="m 4142.4,452.398 -256.8,0 L 4142.4,30" inkscape:connector-curvature="0" id="path74" style="stroke:#000000;stroke-width:8;stroke-miterlimit:4;stroke-dasharray:none;fill:none;stroke-opacity:1"/>
      <path d="m 5230.8,920.398 -3.6,6 -9.6,10.801 -30,15.602 -22.8,20.398 -20.4,22.801 -12,22.8 -20.4,32.4 -9.6,45.6 3.6,52.8 6,49.2 9.6,55.2 3.6,56.4 -6,49.2 -9.6,32.4 -10.8,20.4 -13.2,15.6 -13.2,16.8 -13.2,13.2 -19.2,13.2 -13.2,9.6 -19.2,7.2 -24,6 -15.6,3.6 -22.8,0 -19.2,-3.6 -20.4,-6 -16.8,-10.8 -19.2,-13.2 -26.4,-28.8 -9.6,-20.4 -13.2,-28.8 -7.2,-26.4 -2.4,-36 0,-30 7.2,-36 6,-28.8 6,-26.4 26.4,-58.8 22.8,-33.6 26.4,-34.8 36,-37.2 39.6,-36 42,-32.398 56.4,-32.403 49.2,-16.801 28.8,-7.199 26.4,-6 26.4,0 16.8,3.602 3.6,9.597" inkscape:connector-curvature="0" id="path76" style="stroke:#000000;stroke-width:8;stroke-miterlimit:4;stroke-dasharray:none;fill:none;stroke-opacity:1"/>
      <path d="m 4513.2,603.602 0,-590.4028 104.4,0 0,590.4028 -104.4,0" inkscape:connector-curvature="0" id="path78" style="stroke:#000000;stroke-width:8;stroke-miterlimit:4;stroke-dasharray:none;fill:none;stroke-opacity:1"/>
      <path d="m 5037.6,603.602 0,-590.4028 108,0 0,590.4028 -108,0" inkscape:connector-curvature="0" id="path80" style="stroke:#000000;stroke-width:8;stroke-miterlimit:4;stroke-dasharray:none;fill:none;stroke-opacity:1"/>
      <path d="m 5568,603.602 0,-590.4028 104.4,0 0,590.4028 -104.4,0" inkscape:connector-curvature="0" id="path82" style="stroke:#000000;stroke-width:8;stroke-miterlimit:4;stroke-dasharray:none;fill:none;stroke-opacity:1"/>
    </g>
  </g>
</svg>
