<?xml version="1.0" encoding="UTF-8"?>
<!-- Created with Inkscape (http://www.inkscape.org/) -->
<svg xmlns:dc="http://purl.org/dc/elements/1.1/" xmlns:cc="http://creativecommons.org/ns#" xmlns:rdf="http://www.w3.org/1999/02/22-rdf-syntax-ns#" xmlns:svg="http://www.w3.org/2000/svg" xmlns="http://www.w3.org/2000/svg" xmlns:inkscape="http://www.inkscape.org/namespaces/inkscape" version="1.1" width="765" height="990" id="svg2" xml:space="preserve">
  <metadata id="metadata8">
    <rdf:RDF>
      <cc:Work rdf:about="">
        <dc:format>image/svg+xml</dc:format>
        <dc:type rdf:resource="http://purl.org/dc/dcmitype/StillImage"/>
      </cc:Work>
    </rdf:RDF>
  </metadata>
  <defs id="defs6"/>
  <g transform="matrix(1.25,0,0,-1.25,0,990)" id="g10">
    <g transform="scale(0.1,0.1)" id="g12">
      <path d="m 489.602,1068 20.398,0 12,3.6 20.398,15.6 3.602,13.2 3.602,19.2 -7.204,20.4 -8.398,15.6 -16.801,12 -19.199,4.8 -24,-4.8 -16.801,-3.6 -12,-16.8 -7.199,-27.6 3.602,-24 12,-12 12,-15.6 12,0 12,-3.6" inkscape:connector-curvature="0" id="path14" style="stroke:#000000;stroke-width:8;stroke-miterlimit:4;stroke-dasharray:none;fill:none;stroke-opacity:1"/>
      <path d="m 808.801,1244.4 -15.602,31.2 -19.199,32.4 -20.398,32.4 -24,19.2 -27.602,27.6 -28.801,20.4 -31.199,15.6 -32.398,12 -36,16.8 -36,3.6 -36,4.8 -32.403,-4.8 -31.199,-3.6 -32.398,-4.8 -31.204,-12 -37.199,-15.6 L 306,1404 278.398,1383.6 246,1356 225.602,1332 202.801,1299.6 186,1272 170.398,1239.6 162,1207.2 150,1164 l 0,-80.4 8.398,-39.6 7.204,-39.6 L 182.398,972 198,940.801 218.398,912 246,884.398 l 20.398,-24 36,-24 24,-20.398 39.602,-12 36,-12 27.602,-12 116.398,0 36,8.398 36,7.204 27.602,12 L 678,828 l 31.199,24 24,24 24,24 24,36 15.602,27.602 16.801,32.398 8.398,36 12,36 3.602,32.4 0,39.6 -3.602,36 -12,36 -8.398,32.4" inkscape:connector-curvature="0" id="path16" style="stroke:#000000;stroke-width:8;stroke-miterlimit:4;stroke-dasharray:none;fill:none;stroke-opacity:1"/>
      <path d="m 988.801,28.8008 -300,804.0002" inkscape:connector-curvature="0" id="path18" style="stroke:#000000;stroke-width:8;stroke-miterlimit:4;stroke-dasharray:none;fill:none;stroke-opacity:1"/>
      <path d="m 501.602,21.6016 0,754.7964" inkscape:connector-curvature="0" id="path20" style="stroke:#000000;stroke-width:8;stroke-miterlimit:4;stroke-dasharray:none;fill:none;stroke-opacity:1"/>
      <path d="M 14.3984,28.8008 297.602,828" inkscape:connector-curvature="0" id="path22" style="stroke:#000000;stroke-width:8;stroke-miterlimit:4;stroke-dasharray:none;fill:none;stroke-opacity:1"/>
      <path d="m 1406.4,626.398 -32.4,-16.796 -24,-28.801 -7.2,-24 -6,-24 8.4,-37.199 18,-24 19.2,-16.801 32.4,-10.801 24,-7.199 28.8,0 32.4,13.199 26.4,13.199 16.8,19.199 18,25.204 13.2,33.597 8.4,26.403 2.4,26.398 -2.4,18 -6,32.398 -13.2,26.403 -20.4,27.597 -21.6,18 -19.2,8.403 -18,8.398 -27.6,2.403 -20.4,2.398 -27.6,0 -31.2,-2.398 -34.8,-10.801 -30,-15.602 -18,-16.801 -21.6,-18 -16.8,-19.199 -15.6,-28.801 -15.6,-30 -6,-26.398 -4.8,-37.199 -2.4,-37.199 2.4,-30 2.4,-42 16.8,-43.204 22.8,-48 43.2,-56.398 67.2,-63.602 94.8,-78 208.8,-117.5972" inkscape:connector-curvature="0" id="path24" style="stroke:#000000;stroke-width:8;stroke-miterlimit:4;stroke-dasharray:none;fill:none;stroke-opacity:1"/>
      <path d="m 1353.6,864 348,333.6" inkscape:connector-curvature="0" id="path26" style="stroke:#000000;stroke-width:8;stroke-miterlimit:4;stroke-dasharray:none;fill:none;stroke-opacity:1"/>
      <path d="M 1228.8,912 1656,1320" inkscape:connector-curvature="0" id="path28" style="stroke:#000000;stroke-width:8;stroke-miterlimit:4;stroke-dasharray:none;fill:none;stroke-opacity:1"/>
      <path d="M 1146,999.602 1573.2,1407.6" inkscape:connector-curvature="0" id="path30" style="stroke:#000000;stroke-width:8;stroke-miterlimit:4;stroke-dasharray:none;fill:none;stroke-opacity:1"/>
      <path d="m 1102.8,1125.6 342,325.2" inkscape:connector-curvature="0" id="path32" style="stroke:#000000;stroke-width:8;stroke-miterlimit:4;stroke-dasharray:none;fill:none;stroke-opacity:1"/>
      <path d="m 1527.6,1431.6 -28.8,8.4 -30,10.8 -32.4,4.8 -31.2,0 -36,-2.4 -28.8,-2.4 -31.2,-10.8 -30,-10.8 -28.8,-13.2 -27.6,-18 -20.4,-19.2 -21.6,-21.6 -16.8,-18 -15.6,-25.2 -18,-33.6 -8.4,-27.6 -8.4,-28.8 -6,-30 -4.8,-34.8 0,-28.8 4.8,-34.8 8.4,-28.8 8.4,-27.6 13.2,-28.8 8.4,-16.798 10.8,-13.204 26.4,-28.796 26.4,-26.403 24,-19.199 30,-16.801 32.4,-15.597 31.2,-7.204 26.4,-8.398 32.4,0 32.4,-2.398 37.2,4.796 26.4,6 32.4,13.204 32.4,15.597 20.4,10.801 24,21.602 24,20.398 24,25.199 19.2,28.801 18,27.6 13.2,25.2 8.4,32.4 3.6,30 4.8,34.8 -2.4,28.8 -2.4,34.8 -8.4,30 -10.8,26.4 -13.2,34.8 -19.2,26.4 -19.2,21.6 -20.4,26.4 -27.6,19.2 -25.2,18 -30,13.2" inkscape:connector-curvature="0" id="path34" style="stroke:#000000;stroke-width:8;stroke-miterlimit:4;stroke-dasharray:none;fill:none;stroke-opacity:1"/>
      <path d="m 2091.6,1460.4 0,-576.002 103.2,0 0,576.002 -103.2,0" inkscape:connector-curvature="0" id="path36" style="stroke:#000000;stroke-width:8;stroke-miterlimit:4;stroke-dasharray:none;fill:none;stroke-opacity:1"/>
      <path d="m 2604,1460.4 0,-576.002 104.4,0 0,576.002 -104.4,0" inkscape:connector-curvature="0" id="path38" style="stroke:#000000;stroke-width:8;stroke-miterlimit:4;stroke-dasharray:none;fill:none;stroke-opacity:1"/>
      <path d="m 3121.2,1460.4 0,-576.002 102,0 0,576.002 -102,0" inkscape:connector-curvature="0" id="path40" style="stroke:#000000;stroke-width:8;stroke-miterlimit:4;stroke-dasharray:none;fill:none;stroke-opacity:1"/>
    </g>
  </g>
</svg>
