<?xml version="1.0" encoding="UTF-8"?>
<!-- Created with Inkscape (http://www.inkscape.org/) -->
<svg xmlns:dc="http://purl.org/dc/elements/1.1/" xmlns:cc="http://creativecommons.org/ns#" xmlns:rdf="http://www.w3.org/1999/02/22-rdf-syntax-ns#" xmlns:svg="http://www.w3.org/2000/svg" xmlns="http://www.w3.org/2000/svg" xmlns:inkscape="http://www.inkscape.org/namespaces/inkscape" version="1.1" width="765" height="990" id="svg2" xml:space="preserve">
  <metadata id="metadata8">
    <rdf:RDF>
      <cc:Work rdf:about="">
        <dc:format>image/svg+xml</dc:format>
        <dc:type rdf:resource="http://purl.org/dc/dcmitype/StillImage"/>
      </cc:Work>
    </rdf:RDF>
  </metadata>
  <defs id="defs6"/>
  <g transform="matrix(1.25,0,0,-1.25,0,990)" id="g10">
    <g transform="scale(0.1,0.1)" id="g12">
      <path d="m 1040.4,806.398 21.6,37.204 27.6,27.597 40.8,8.403 33.6,-6 25.2,-20.403 12,-19.199 9.6,-43.199 0,-501.602 -1198.8,0 0,501.602 13.1992,43.199 8.4024,19.199 25.1992,20.403 33.5976,6 43.2036,-8.403 28.796,-27.597 18,-34.801" inkscape:connector-curvature="0" id="path14" style="stroke:#000000;stroke-width:8;stroke-miterlimit:4;stroke-dasharray:none;fill:none;stroke-opacity:1"/>
      <path d="m 644.398,1264.8 -50.398,0 -18,-3.6 -33.602,-6 -22.796,-3.6 -18,-6 -18,-6 -25.204,-6 -21.597,-9.6 -22.801,-9.6 -18,-8.4 -18,-13.2 -19.199,-12 -18,-13.2 -15.602,-14.4 -34.801,-31.2 -12,-15.6 -12,-13.2 -21.597,-30 L 225.602,1032 216,1012.8 210,992.398 198,948 l -9.602,-18 -3.597,-27.602 -2.403,-19.199 0,-86.398 2.403,-21.602 L 198,732 l 6,-28.801 6,-14.398 13.199,-28.801 6,-18 19.199,-18 6,-15.602 14.403,-19.199 L 282,573.602 297.602,552 328.801,524.398 349.199,508.801 372,493.199 l 12,-9.597 19.199,-12 18,-9.602 27.602,-9.602 L 468,444 l 24,-7.199 15.602,-2.403 21.597,-6 21.602,-3.597 25.199,-3.602 46.801,0 21.597,3.602 6,-3.602 24,3.602 19.204,3.597 25.199,6 12,2.403 L 756,444 l 18,8.398 27.602,9.602 19.199,9.602 18,12 13.199,9.597 24,15.602 19.199,15.597 L 926.398,552 942,573.602 954,589.199 968.398,608.398 978,624 l 15.602,18 9.598,18 9.6,28.801 9.6,14.398 6,28.801 8.4,43.199 3.6,21.602 0,86.398 -3.6,19.199 -2.4,27.602 -6,18 -6,31.199 -15.6,33.601 -9.601,19.2 -13.199,21.6 -27.602,39.6 -8.398,13.2 -13.199,15.6 -37.199,31.2 -15.602,14.4 -14.398,13.2 -19.204,12 -21.597,13.2 -15.602,8.4 -24,9.6 -19.199,9.6 -27.602,6 -16.796,6 -20.403,6 -19.199,3.6 -18,6 -37.199,3.6 -21.602,0" inkscape:connector-curvature="0" id="path16" style="stroke:#000000;stroke-width:8;stroke-miterlimit:4;stroke-dasharray:none;fill:none;stroke-opacity:1"/>
      <path d="m 3372,758.398 6,-121.199 -9.6,-129.597 L 3331.2,132 3488.4,24 2610,24 2794.8,110.398 2694,504 l -3.6,46.801 9.6,37.199 14.4,25.199 15.6,15.602 31.2,2.398 33.6,-6 44.4,-27.597 36,-34.801 148.8,-210 13.2,219.597 9.6,182.403 27.6,90 33.6,49.199 19.2,28.801 55.2,55.199 0,72 -24,18 -87.6,19.2 -31.2,-90.001 -25.2,12.001 50.4,80.4 6,72 -52.8,14.4 -3.6,15.6 28.8,34.8 19.2,24 8.4,34.8 176.4,-28.8 9.6,15.6 25.2,3.6 12,-19.2 0,-20.4 -6,-25.2 -19.2,-31.2 0,-417.6 170.4,0 -25.2,501.6 -18,62.4 -21.6,33.6 -33.6,31.2 -34.8,14.4 -43.2,13.2 -52.8,-3.6 -49.2,-12 -31.2,-21.6 -18,-21.6 -15.6,-21.6 -15.6,-27.6 -6,-22.8" inkscape:connector-curvature="0" id="path18" style="stroke:#000000;stroke-width:8;stroke-miterlimit:4;stroke-dasharray:none;fill:none;stroke-opacity:1"/>
      <path d="m 3098.4,1220.4 56.4,-7.2 -19.2,22.8 -12,2.4 -21.6,-15.6" inkscape:connector-curvature="0" id="path20" style="stroke:#000000;stroke-width:8;stroke-miterlimit:4;stroke-dasharray:none;fill:none;stroke-opacity:1"/>
      <path d="m 1796.4,1045.2 -8.4,-43.2 -37.2,-15.602 -34.8,-31.199 -9.6,-26.398 3.6,-31.199 21.6,-40.801 43.2,-62.403 74.4,-74.398 201.6,-123.602 108,-58.796 90,-37.204 52.8,-34.796 33.6,-20.403 72,-74.398 9.6,-3.602 0,37.199 -31.2,121.204 -43.2,184.796 -44.4,158.403 -52.8,130.801 -51.6,88.798 -40.8,60 -52.8,43.2 -37.2,21.6 -61.2,12 -46.8,-2.4 -46.8,-19.2 -120,-99.6 -50.4,-36 -27.6,-9.6 -25.2,6 -9.6,27.6 13.2,40.8 37.2,51.6 39.6,56.4 13.2,49.2 2.4,46.8 -15.6,34.8 -30,24 -37.2,12 -31.2,-6 -37.2,-12 -25.2,-15.6 -14.4,-12 -13.2,-19.2 -12,-30 6,-34.8 15.6,-12 12,-13.2 12,-14.4 3.6,-19.2 0,-27.6 -84,-148.8 -12,-49.198 0,-46.801 15.6,-46.801 31.2,-31.199 114,-74.403 21.6,-30 87.6,-112.796 27.6,-33.602 37.2,-33.602 98.4,-46.796 13.2,-2.403 15.6,-44.398 64.8,-99.602 12,-20.398 6,-25.199 27.6,-226.801 -2.4,-24.0002 -6,-13.1992 -19.2,-2.4024 -111.6,-9.5976 -67.2,-6 -19.2,-12 L 1861.2,30 1876.8,16.8008" inkscape:connector-curvature="0" id="path22" style="stroke:#000000;stroke-width:8;stroke-miterlimit:4;stroke-dasharray:none;fill:none;stroke-opacity:1"/>
      <path d="m 1876.8,61.1992 -27.6,-9.5976 -9.6,-13.2032 -6,-21.5976 27.6,9.5976" inkscape:connector-curvature="0" id="path24" style="stroke:#000000;stroke-width:8;stroke-miterlimit:4;stroke-dasharray:none;fill:none;stroke-opacity:1"/>
      <path d="M 1929.6,51.6016 1902,48 l -12,-15.6016 -3.6,-12 27.6,2.4024" inkscape:connector-curvature="0" id="path26" style="stroke:#000000;stroke-width:8;stroke-miterlimit:4;stroke-dasharray:none;fill:none;stroke-opacity:1"/>
      <path d="m 2001.6,63.6016 -52.8,-6 -31.2,-12 0,-19.2032 15.6,-9.5976 33.6,3.5976 139.2,12 109.2,-15.5976 14.4,3.5976 0,18 -6,15.6016 -74.4,19.1992 -8.4,8.4024 -19.2,214.7964 3.6,39.602 -9.6,31.199 -18,52.801 -9.6,111.602" inkscape:connector-curvature="0" id="path28" style="stroke:#000000;stroke-width:8;stroke-miterlimit:4;stroke-dasharray:none;fill:none;stroke-opacity:1"/>
      <path d="m 2090.4,496.801 62.4,-15.602 80.4,-8.398 58.8,0" inkscape:connector-curvature="0" id="path30" style="stroke:#000000;stroke-width:8;stroke-miterlimit:4;stroke-dasharray:none;fill:none;stroke-opacity:1"/>
      <path d="m 2229.6,48 19.2,-2.3984 12,-13.2032 3.6,-12 -31.2,6" inkscape:connector-curvature="0" id="path32" style="stroke:#000000;stroke-width:8;stroke-miterlimit:4;stroke-dasharray:none;fill:none;stroke-opacity:1"/>
      <path d="m 1843.2,590.398 27.6,-199.199 -6,-26.398 -145.2,-267.6018 -9.6,-12 -15.6,-3.5976 -184.8,-18 -13.2,-6 -2.4,-6 -15.6,-3.6016 -13.2,-6 -3.6,-15.6016 -2.4,-13.1992 25.2,19.1992 9.6,-12 21.6,0" inkscape:connector-curvature="0" id="path34" style="stroke:#000000;stroke-width:8;stroke-miterlimit:4;stroke-dasharray:none;fill:none;stroke-opacity:1"/>
      <path d="m 1549.2,48 -25.2,-6 -6,-12 2.4,-13.1992 31.2,9.5976" inkscape:connector-curvature="0" id="path36" style="stroke:#000000;stroke-width:8;stroke-miterlimit:4;stroke-dasharray:none;fill:none;stroke-opacity:1"/>
      <path d="m 1651.2,63.6016 -74.4,-12 -25.2,-3.6016 0,-21.6016 13.2,-9.5976 123.6,13.1992 40.8,6 70.8,-13.1992 30,-6" inkscape:connector-curvature="0" id="path38" style="stroke:#000000;stroke-width:8;stroke-miterlimit:4;stroke-dasharray:none;fill:none;stroke-opacity:1"/>
      <path d="m 1843.2,51.6016 -62.4,15.5976 -6,9.6016 0,14.3984 109.2,195.6018 15.6,19.199 14.4,30 6,31.199 60,127.199" inkscape:connector-curvature="0" id="path40" style="stroke:#000000;stroke-width:8;stroke-miterlimit:4;stroke-dasharray:none;fill:none;stroke-opacity:1"/>
      <path d="m 1576.8,1348.8 -117.6,-21.6 -24,-12 -22.8,-21.6 -18,-40.8 21.6,13.2 33.6,18 46.8,13.2 31.2,0 37.2,6" inkscape:connector-curvature="0" id="path42" style="stroke:#000000;stroke-width:8;stroke-miterlimit:4;stroke-dasharray:none;fill:none;stroke-opacity:1"/>
      <path d="m 1404,1256.4 45.6,6 50.4,3.6 36,-7.2 31.2,3.6 15.6,0" inkscape:connector-curvature="0" id="path44" style="stroke:#000000;stroke-width:8;stroke-miterlimit:4;stroke-dasharray:none;fill:none;stroke-opacity:1"/>
      <path d="m 1633.2,1336.8 6,-19.2 9.6,-2.4 12,0 9.6,9.6 0,12 -6,9.6 -9.6,2.4 -13.2,-2.4 -8.4,-13.2" inkscape:connector-curvature="0" id="path46" style="stroke:#000000;stroke-width:8;stroke-miterlimit:4;stroke-dasharray:none;fill:none;stroke-opacity:1"/>
      <path d="m 1524,1036.8 -37.2,-28.8 -31.2,-39.602 -6,-43.199 0,-27.597 6,-46.801 -2.4,-37.199 -21.6,-37.204 -25.2,-12 -25.2,0 -18,12 -6,18 -6,28.801 2.4,36 15.6,44.403 9.6,30 27.6,46.796 37.2,33.602 40.8,15.6 21.6,7.2 18,2.4" inkscape:connector-curvature="0" id="path48" style="stroke:#000000;stroke-width:8;stroke-miterlimit:4;stroke-dasharray:none;fill:none;stroke-opacity:1"/>
      <path d="m 2648.4,1173.6 -464.4,0 6,39.6 6,25.2 9.6,26.4 14.4,19.2 12,18 15.6,21.6 16.8,15.6 21.6,15.6 18,12 25.2,12 26.4,8.4 18,3.6 31.2,3.6 22.8,0 21.6,-3.6 24,-3.6 25.2,-7.2 18,-4.8 24,-15.6 19.2,-14.4 18,-14.4 15.6,-19.2 15.6,-21.6 14.4,-21.6 9.6,-19.2 7.2,-30 6,-21.6 2.4,-24" inkscape:connector-curvature="0" id="path50" style="stroke:#000000;stroke-width:8;stroke-miterlimit:4;stroke-dasharray:none;fill:none;stroke-opacity:1"/>
    </g>
  </g>
</svg>
