<?xml version="1.0" encoding="UTF-8"?>
<!-- Created with Inkscape (http://www.inkscape.org/) -->
<svg xmlns:dc="http://purl.org/dc/elements/1.1/" xmlns:cc="http://creativecommons.org/ns#" xmlns:rdf="http://www.w3.org/1999/02/22-rdf-syntax-ns#" xmlns:svg="http://www.w3.org/2000/svg" xmlns="http://www.w3.org/2000/svg" xmlns:inkscape="http://www.inkscape.org/namespaces/inkscape" version="1.1" width="765" height="990" id="svg2" xml:space="preserve">
  <metadata id="metadata8">
    <rdf:RDF>
      <cc:Work rdf:about="">
        <dc:format>image/svg+xml</dc:format>
        <dc:type rdf:resource="http://purl.org/dc/dcmitype/StillImage"/>
      </cc:Work>
    </rdf:RDF>
  </metadata>
  <defs id="defs6"/>
  <g transform="matrix(1.25,0,0,-1.25,0,990)" id="g10">
    <g transform="scale(0.1,0.1)" id="g12">
      <path d="M 525.602,1100.4 487.199,1059.6 474,1008 484.801,956.398 506.398,918 567.602,860.398 673.199,802.801 854.398,735.602 1072.8,691.199 1290,666 l 69.6,-7.199 45.6,-2.403 21.6,6 13.2,12 0,16.801 -15.6,13.199 -86.4,15.602 -54,25.199 -32.4,22.801 -76.8,63.602 -115.2,105.597 -115.202,90.001 -105.597,57.6 -102,40.8 -76.801,22.8 -67.199,3.6 -57.602,-13.2 -44.398,-21.6 -32.403,-20.4 -15.597,-15.6 -22.801,-2.4 -25.199,6 -3.602,22.8 124.801,102 26.398,28.8 15.602,34.8 2.398,32.4 -2.398,28.8" inkscape:connector-curvature="0" id="path14" style="stroke:#000000;stroke-width:8;stroke-miterlimit:4;stroke-dasharray:none;fill:none;stroke-opacity:1"/>
      <path d="M 529.199,1357.2 660,1296 l 136.801,-51.6 122.398,-25.2 128.401,-9.6 94.8,-3.6 70.8,9.6 -99.6,15.6 -111.6,10.8 -124.801,18 -88.801,26.4 -109.199,38.4 -82.801,34.8 -51.597,34.8 172.801,-66 108,-20.4 58.796,-8.4 121.202,-9.6 111.6,6 67.2,6 54,3.6 -118.8,9.6 -100.8,9.6 -99.601,3.6 -86.398,12 -105.602,22.8 -96,28.8 -63.597,28.8 -45.602,28.8 -34.801,13.2 -32.398,2.4 -69.602,-9.6 -54,-19.2 -22.801,-15.6 -13.199,-22.8 -2.398,-6 0,-26.4 15.597,-25.2 19.204,-6 19.199,-6 34.801,-9.6 38.398,0 22.801,9.6 19.199,2.4 9.602,-15.6 2.398,-28.8 -34.801,-42 -57.597,-42 -54,-50.4 -25.204,-34.8 -19.199,-28.8 -9.597,-51.6 6,-28.8 38.398,-57.602 99.602,-109.199 60,-54 70.796,-51.597 102,-44.403 61.204,-90 63.597,-73.199 42,-44.398 12,-28.801 19.199,-208.801 0,-134.398 -6,-21.602 -22.796,-7.1992 -136.801,-18 -9.602,-3.6016 -19.199,-3.5976 -9.602,-12 0,-20.4024 19.204,9.6016 21.597,-6" inkscape:connector-curvature="0" id="path16" style="stroke:#000000;stroke-width:8;stroke-miterlimit:4;stroke-dasharray:none;fill:none;stroke-opacity:1"/>
      <path d="M 778.801,64.8008 698.398,51.6016 685.199,42 688.801,25.1992 714,38.3984 733.199,25.1992 861.602,42 960,25.1992 963.602,42 l -6,15.6016 -26.403,7.1992 -28.801,8.3984 L 894,76.8008 884.398,96 l -3.597,330 6,38.398 0,12 -21.602,42 -22.801,38.403 -73.199,117.597" inkscape:connector-curvature="0" id="path18" style="stroke:#000000;stroke-width:8;stroke-miterlimit:4;stroke-dasharray:none;fill:none;stroke-opacity:1"/>
      <path d="m 796.801,639.602 116.398,-12 94.801,2.398 122.4,13.199 60,-54 74.4,-67.199 34.8,-3.602 34.8,9.602 38.4,32.398 6,25.204 L 1302,666" inkscape:connector-curvature="0" id="path20" style="stroke:#000000;stroke-width:8;stroke-miterlimit:4;stroke-dasharray:none;fill:none;stroke-opacity:1"/>
      <path d="M 292.801,1394.4 14.3984,1225.2 333.602,1330.8" inkscape:connector-curvature="0" id="path22" style="stroke:#000000;stroke-width:8;stroke-miterlimit:4;stroke-dasharray:none;fill:none;stroke-opacity:1"/>
      <path d="M 295.199,1350 14.3984,1225.2" inkscape:connector-curvature="0" id="path24" style="stroke:#000000;stroke-width:8;stroke-miterlimit:4;stroke-dasharray:none;fill:none;stroke-opacity:1"/>
      <path d="m 356.398,1401.6 -15.597,-9.6 8.398,-15.6 16.801,6 -6,12" inkscape:connector-curvature="0" id="path26" style="stroke:#000000;stroke-width:8;stroke-miterlimit:4;stroke-dasharray:none;fill:none;stroke-opacity:1"/>
      <path d="M 970.801,54 996,48 l 12,-9.6016 3.6,-6 -15.6,-7.1992 -22.801,3.6016" inkscape:connector-curvature="0" id="path28" style="stroke:#000000;stroke-width:8;stroke-miterlimit:4;stroke-dasharray:none;fill:none;stroke-opacity:1"/>
      <path d="M 490.801,774 558,645.602 l 76.801,-114 6,-28.801 L 433.199,128.398 423.602,111.602 414,96 391.199,90 314.398,76.8008 264,67.1992 244.801,57.6016 231.602,54 l -19.204,-2.3984 -6,-6 -7.199,-16.8008 20.403,9.5976 21.597,-9.5976" inkscape:connector-curvature="0" id="path30" style="stroke:#000000;stroke-width:8;stroke-miterlimit:4;stroke-dasharray:none;fill:none;stroke-opacity:1"/>
      <path d="m 276,48 -12,0 -15.602,-2.3984 -7.199,-13.2032 7.199,-3.5976 18,6" inkscape:connector-curvature="0" id="path32" style="stroke:#000000;stroke-width:8;stroke-miterlimit:4;stroke-dasharray:none;fill:none;stroke-opacity:1"/>
      <path d="m 279.602,51.6016 22.796,6 50.403,3.5976" inkscape:connector-curvature="0" id="path34" style="stroke:#000000;stroke-width:8;stroke-miterlimit:4;stroke-dasharray:none;fill:none;stroke-opacity:1"/>
      <path d="M 270,34.8008 295.199,25.1992 414,38.3984 433.199,42 l 96,-16.8008 2.403,16.8008 -2.403,15.6016 -28.801,7.1992 -38.398,12" inkscape:connector-curvature="0" id="path36" style="stroke:#000000;stroke-width:8;stroke-miterlimit:4;stroke-dasharray:none;fill:none;stroke-opacity:1"/>
      <path d="M 458.398,80.3984 454.801,96 654,426 702,511.199 702,540 666,662.398" inkscape:connector-curvature="0" id="path38" style="stroke:#000000;stroke-width:8;stroke-miterlimit:4;stroke-dasharray:none;fill:none;stroke-opacity:1"/>
      <path d="m 538.801,54 21.597,-6 13.204,-9.6016 3.597,-6 -16.801,-7.1992 -21.597,3.6016" inkscape:connector-curvature="0" id="path40" style="stroke:#000000;stroke-width:8;stroke-miterlimit:4;stroke-dasharray:none;fill:none;stroke-opacity:1"/>
      <path d="M 1785.6,754.801 2188.8,1143.6" inkscape:connector-curvature="0" id="path42" style="stroke:#000000;stroke-width:8;stroke-miterlimit:4;stroke-dasharray:none;fill:none;stroke-opacity:1"/>
      <path d="m 1639.2,811.199 498,476.401" inkscape:connector-curvature="0" id="path44" style="stroke:#000000;stroke-width:8;stroke-miterlimit:4;stroke-dasharray:none;fill:none;stroke-opacity:1"/>
      <path d="M 1543.2,913.199 2040,1389.6" inkscape:connector-curvature="0" id="path46" style="stroke:#000000;stroke-width:8;stroke-miterlimit:4;stroke-dasharray:none;fill:none;stroke-opacity:1"/>
      <path d="M 1492.8,1059.6 1891.2,1440" inkscape:connector-curvature="0" id="path48" style="stroke:#000000;stroke-width:8;stroke-miterlimit:4;stroke-dasharray:none;fill:none;stroke-opacity:1"/>
      <path d="m 1987.2,1418.4 -33.6,8.4 -34.8,13.2 -37.2,6 -37.2,0 -40.8,-3.6 -33.6,-2.4 -38.4,-13.2 -33.6,-12 -33.6,-15.6 -31.2,-21.6 -25.2,-22.8 -25.2,-24 -19.2,-21.6 -18,-27.6 -21.6,-40.8 -9.6,-31.2 -9.6,-33.6 -6,-34.8 -6,-40.8 0,-34.8 6,-39.6 9.6,-34.801 9.6,-31.199 15.6,-33.602 9.6,-19.199 12,-15.597 31.2,-33.602 31.2,-31.199 27.6,-21.602 34.8,-19.199 36,-19.199 38.4,-8.403 31.2,-9.597 37.2,0 37.2,-3.602 43.2,6 31.2,7.199 37.2,15.602 37.2,18 25.2,13.199 27.6,25.199 27.6,24 28.8,27.602 21.6,34.801 21.6,31.199 15.6,31.199 9.6,37.201 2.4,33.6 6,40.8 -2.4,34.8 -3.6,40.8 -9.6,33.6 -12,31.2 -14.4,40.8 -22.8,31.2 -21.6,25.2 -25.2,30 -31.2,21.6 -31.2,22.8 -33.6,15.6" inkscape:connector-curvature="0" id="path50" style="stroke:#000000;stroke-width:8;stroke-miterlimit:4;stroke-dasharray:none;fill:none;stroke-opacity:1"/>
      <path d="m 2613.6,1315.2 -37.2,-19.2 -28.8,-34.8 -8.4,-27.6 -6,-27.6 8.4,-43.2 21.6,-28.8 22.8,-18 37.2,-13.2 27.6,-9.6 34.8,0 37.2,15.6 31.2,15.6 18,22.8 21.6,31.2 15.6,37.2 9.6,30 3.6,31.2 -3.6,22.8 -6,37.2 -15.6,31.2 -25.2,30 -25.2,22.8 -21.6,8.4 -21.6,9.6 -31.2,3.6 -24,2.4 -31.2,0 -38.4,-2.4 -39.6,-13.2 -33.6,-18 -22.8,-19.2 -25.2,-21.6 -18,-21.6 -19.2,-33.6 -18,-34.8 -7.2,-31.2 -6,-43.2 -2.4,-43.2 2.4,-34.8 3.6,-49.2 18,-50.4 28.8,-56.4 50.4,-64.801 76.8,-74.398 112.8,-90 L 2922,606" inkscape:connector-curvature="0" id="path52" style="stroke:#000000;stroke-width:8;stroke-miterlimit:4;stroke-dasharray:none;fill:none;stroke-opacity:1"/>
      <path d="m 2787.6,418.801 36,-12 42,-26.403 46.8,-45.597 12,-52.801 7.2,-32.398 0,-51.602 -16.8,-56.398 -22.8,-48.0004 -28.8,-30 -36,-19.2032 -39.6,-13.1992 -1078.8,0 -75.6,3.6016 -42,19.1992 -32.4,22.8008 -33.6,49.1992 -15.6,45.602 -7.2,42 7.2,49.199 9.6,49.199 22.8,39.602 36,34.796 45.6,26.403 32.4,6 1131.6,0 -28.8,-48 -22.8,-45.602 -9.6,-49.199 -3.6,-45.602 3.6,-49.199 13.2,-49.199 19.2,-49.1992 28.8,-45.6016 -48,26.4024 -117.6,39.5974 -92.4,25.199 -97.2,20.403 -87.6,22.801 -124.8,3.597 -58.8,0 -120,-13.199 -94.8,-22.801 -78,-20.398 -111.6,-38.4026 -104.4,-43.1992" inkscape:connector-curvature="0" id="path54" style="stroke:#000000;stroke-width:8;stroke-miterlimit:4;stroke-dasharray:none;fill:none;stroke-opacity:1"/>
      <path d="m 2781.6,418.801 -111.6,-48 -100.8,-36 -78,-20.403 -87.6,-21.597 -111.6,-7.199 -74.4,-6 -128.4,9.597 L 1986,306 l -91.2,21.602 -82.8,24 -116.4,38.398 -45.6,22.801 28.8,-42 19.2,-45.602 10.8,-49.199 2.4,-45.602 -2.4,-49.199 L 1698,132 1678.8,82.8008 1650,37.1992" inkscape:connector-curvature="0" id="path56" style="stroke:#000000;stroke-width:8;stroke-miterlimit:4;stroke-dasharray:none;fill:none;stroke-opacity:1"/>
      <path d="m 3130.8,382.801 0,-366.0002 78,0 0,366.0002 -78,0" inkscape:connector-curvature="0" id="path58" style="stroke:#000000;stroke-width:8;stroke-miterlimit:4;stroke-dasharray:none;fill:none;stroke-opacity:1"/>
      <path d="m 3130.8,930 0,-369.602 78,0 0,369.602 -78,0" inkscape:connector-curvature="0" id="path60" style="stroke:#000000;stroke-width:8;stroke-miterlimit:4;stroke-dasharray:none;fill:none;stroke-opacity:1"/>
      <path d="m 3130.8,1455.6 0,-369.6 78,0 0,369.6 -78,0" inkscape:connector-curvature="0" id="path62" style="stroke:#000000;stroke-width:8;stroke-miterlimit:4;stroke-dasharray:none;fill:none;stroke-opacity:1"/>
    </g>
  </g>
</svg>
