<?xml version="1.0" encoding="UTF-8"?>
<!-- Created with Inkscape (http://www.inkscape.org/) -->
<svg xmlns:dc="http://purl.org/dc/elements/1.1/" xmlns:cc="http://creativecommons.org/ns#" xmlns:rdf="http://www.w3.org/1999/02/22-rdf-syntax-ns#" xmlns:svg="http://www.w3.org/2000/svg" xmlns="http://www.w3.org/2000/svg" xmlns:inkscape="http://www.inkscape.org/namespaces/inkscape" version="1.1" width="765" height="990" id="svg2" xml:space="preserve">
  <metadata id="metadata8">
    <rdf:RDF>
      <cc:Work rdf:about="">
        <dc:format>image/svg+xml</dc:format>
        <dc:type rdf:resource="http://purl.org/dc/dcmitype/StillImage"/>
      </cc:Work>
    </rdf:RDF>
  </metadata>
  <defs id="defs6"/>
  <g transform="matrix(1.25,0,0,-1.25,0,990)" id="g10">
    <g transform="scale(0.1,0.1)" id="g12">
      <path d="m 1054.8,992.398 21.6,37.202 27.6,28.8 40.8,8.4 34.8,-6 25.2,-21.6 12,-19.2 9.6,-43.199 0,-506.403 -1209.5992,0 0,506.403 L 30,1020 l 9.6016,19.2 25.1992,21.6 33.5976,6 44.4026,-8.4 27.597,-28.8 19.204,-34.799" inkscape:connector-curvature="0" id="path14" style="stroke:#000000;stroke-width:8;stroke-miterlimit:4;stroke-dasharray:none;fill:none;stroke-opacity:1"/>
      <path d="m 654,1455.6 -49.199,0 -19.199,-3.6 -34.801,-6 -21.602,-3.6 -18,-6 -19.199,-6 -25.199,-6 -21.602,-9.6 -21.597,-9.6 -19.204,-9.6 -19.199,-12 -18,-13.2 -19.199,-12 -15.602,-15.6 -33.597,-31.2 -13.199,-15.6 -12,-13.2 -21.602,-31.2 -19.199,-31.2 -9.602,-19.2 -6,-21.6 -12,-43.2 -9.597,-19.2 -3.602,-27.6 -2.398,-19.2 0,-87.599 2.398,-21.602 13.199,-44.398 6,-27.602 6,-15.597 12,-28.801 7.199,-18 18,-19.199 6,-15.602 L 276,774 289.199,758.398 304.801,735.602 336,708 l 21.602,-15.602 21.597,-15.597 13.199,-9.602 18,-12 19.204,-9.597 27.597,-9.602 19.199,-9.602 25.204,-6 15.597,-3.597 21.602,-6 21.597,-2.403 25.204,-3.597 46.796,0 21.602,3.597 6,-3.597 25.199,3.597 19.199,2.403 25.204,6 13.199,3.597 24,6 L 786,636 l 27.602,9.602 19.199,9.597 19.199,12 12,9.602 25.199,15.597 18,15.602 31.199,27.602 15.602,22.796 13.199,15.602 15.602,18 9.597,15.602 15.602,19.199 8.4,18 9.6,28.801 9.6,15.597 6,27.602 9.6,44.398 3.6,21.602 0,87.599 -3.6,19.2 -3.6,27.6 -6,19.2 -6,31.2 -15.6,33.6 -9.6,19.2 -12.002,22.8 -28.796,39.6 -8.403,13.2 -13.199,15.6 -37.199,31.2 -15.602,15.6 -15.597,12 -19.204,13.2 -21.597,12 -15.602,9.6 -25.199,9.6 -18,9.6 -28.801,6 -15.597,6 -21.602,6 -19.199,3.6 -19.199,6 -37.204,3.6 -21.597,0" inkscape:connector-curvature="0" id="path16" style="stroke:#000000;stroke-width:8;stroke-miterlimit:4;stroke-dasharray:none;fill:none;stroke-opacity:1"/>
      <path d="m 1467.6,388.801 1066.8,3.597 -37.2,-88.796 -74.4,-90 L 2334,136.801 2240.4,79.1992 2138.4,44.3984 2005.2,21.6016 1848,37.1992 1735.2,75.6016 1621.2,150 1534.8,248.398 1489.2,321.602 1464,396" inkscape:connector-curvature="0" id="path18" style="stroke:#000000;stroke-width:8;stroke-miterlimit:4;stroke-dasharray:none;fill:none;stroke-opacity:1"/>
      <path d="m 1794,1266 -112.8,-25.2 -44.4,-22.8 -15.6,-19.2 -13.2,-22.8 -2.4,-21.6 2.4,-19.2 15.6,-36 22.8,-34.8 60,-48 582,-307.201 90,-48 90,-57.597 48,-32.403 15.6,3.602 2.4,12 -21.6,32.398 L 2346,766.801 2282.4,840 2052,1141.2 l -76.8,86.4 -67.2,63.6 -44.4,19.2 -32.4,57.6 -37.2,57.6 -26.4,19.2 -34.8,13.2 -63.6,2.4 -63.6,-6 -36,-15.6 -19.2,-22.8 -15.6,-32.4 -34.8,-15.6 -22.8,-25.2 -13.2,-38.4 3.6,-26.4 2.4,-9.6 7.2,13.2 12,25.2 26.4,19.2 25.2,7.2 25.2,-7.2 16.8,-12 2.4,0 3.6,6 -6,28.8 12,3.6 6,12 0,13.2 -8.4,9.6 -9.6,2.4 -13.2,-8.4 -3.6,-16.8 7.2,-9.6 12,-2.4" inkscape:connector-curvature="0" id="path20" style="stroke:#000000;stroke-width:8;stroke-miterlimit:4;stroke-dasharray:none;fill:none;stroke-opacity:1"/>
      <path d="m 1594.8,1389.6 28.8,0 32.4,-2.4 28.8,-15.6 15.6,-28.8 -2.4,-38.4 -20.4,-26.4 -48,-31.2" inkscape:connector-curvature="0" id="path22" style="stroke:#000000;stroke-width:8;stroke-miterlimit:4;stroke-dasharray:none;fill:none;stroke-opacity:1"/>
      <path d="m 1623.6,1252.8 13.2,9.6 19.2,15.6 6,22.8 -6,19.2 -13.2,9.6 -19.2,-6 -12,-16.8 -3.6,-12 6,-36 -6,-12 -2.4,-6 -10.8,0 -6,18 -19.2,42 -19.2,16.8 -19.2,6 -19.2,0" inkscape:connector-curvature="0" id="path24" style="stroke:#000000;stroke-width:8;stroke-miterlimit:4;stroke-dasharray:none;fill:none;stroke-opacity:1"/>
      <path d="m 1489.2,1300.8 13.2,3.6 28.8,0 26.4,-26.4 15.6,-54 2.4,-63.6 3.6,-57.6 9.6,-36 16.8,-34.8 63.6,-79.199 130.8,-170.403 63.6,-76.796 51.6,-105.602 2.4,-73.199 -9.6,-76.801 -92.4,-16.801 -12,-18 0,-10.801" inkscape:connector-curvature="0" id="path26" style="stroke:#000000;stroke-width:8;stroke-miterlimit:4;stroke-dasharray:none;fill:none;stroke-opacity:1"/>
      <path d="m 1809.6,430.801 -15.6,-3.602 -16.8,-6 -2.4,-25.199 28.8,6 8.4,-9.602 132,9.602 111.6,-6 9.6,8.398 -9.6,33.602" inkscape:connector-curvature="0" id="path28" style="stroke:#000000;stroke-width:8;stroke-miterlimit:4;stroke-dasharray:none;fill:none;stroke-opacity:1"/>
      <path d="m 2065.2,404.398 12,0 22.8,-12 -6,25.204 -9.6,9.597 -15.6,6 -28.8,4.801 -76.8,8.398 9.6,105.602 44.4,-13.199 38.4,-28.801 -3.6,214.801 64.8,-25.199 40.8,-28.801 28.8,-51.602 L 2307.6,392.398 2470.8,498 2346,680.398" inkscape:connector-curvature="0" id="path30" style="stroke:#000000;stroke-width:8;stroke-miterlimit:4;stroke-dasharray:none;fill:none;stroke-opacity:1"/>
      <path d="m 1828.8,444 25.2,117.602 42,-9.602 21.6,-21.602" inkscape:connector-curvature="0" id="path32" style="stroke:#000000;stroke-width:8;stroke-miterlimit:4;stroke-dasharray:none;fill:none;stroke-opacity:1"/>
      <path d="m 1819.2,438 -44.4,-7.199 -22.8,-6 -9.6,-15.602 6,-16.801 28.8,9.602" inkscape:connector-curvature="0" id="path34" style="stroke:#000000;stroke-width:8;stroke-miterlimit:4;stroke-dasharray:none;fill:none;stroke-opacity:1"/>
      <path d="m 1752,424.801 -25.2,-7.199 -9.6,-25.204 25.2,6" inkscape:connector-curvature="0" id="path36" style="stroke:#000000;stroke-width:8;stroke-miterlimit:4;stroke-dasharray:none;fill:none;stroke-opacity:1"/>
      <path d="m 1704,903.602 31.2,-76.801 45.6,-117.602 15.6,-102 -2.4,-57.597 -22.8,-103.204 -82.8,-8.398 -19.2,-16.801 0,-16.801 2.4,-8.398 48,2.398" inkscape:connector-curvature="0" id="path38" style="stroke:#000000;stroke-width:8;stroke-miterlimit:4;stroke-dasharray:none;fill:none;stroke-opacity:1"/>
      <path d="m 1669.2,424.801 -26.4,-7.199 -6,-13.204 0,-12 25.2,6" inkscape:connector-curvature="0" id="path40" style="stroke:#000000;stroke-width:8;stroke-miterlimit:4;stroke-dasharray:none;fill:none;stroke-opacity:1"/>
      <path d="m 1690.8,433.199 -56.4,-8.398 -16.8,-9.602 -3.6,-22.801 20.4,6" inkscape:connector-curvature="0" id="path42" style="stroke:#000000;stroke-width:8;stroke-miterlimit:4;stroke-dasharray:none;fill:none;stroke-opacity:1"/>
      <path d="m 1627.2,424.801 -32.4,-9.602 -9.6,-26.398 26.4,13.199" inkscape:connector-curvature="0" id="path44" style="stroke:#000000;stroke-width:8;stroke-miterlimit:4;stroke-dasharray:none;fill:none;stroke-opacity:1"/>
      <path d="m 2698.8,388.801 1068,3.597 -38.4,-88.796 -74.4,-90 -88.8,-76.801 L 3472.8,79.1992 3369.6,44.3984 3236.4,21.6016 3079.2,37.1992 2967.6,75.6016 2852.4,150 2766,248.398 2720.4,321.602 2695.2,396" inkscape:connector-curvature="0" id="path46" style="stroke:#000000;stroke-width:8;stroke-miterlimit:4;stroke-dasharray:none;fill:none;stroke-opacity:1"/>
      <path d="m 3025.2,1266 -111.6,-25.2 -45.6,-22.8 -15.6,-19.2 -13.2,-22.8 -2.4,-21.6 2.4,-19.2 15.6,-36 22.8,-34.8 61.2,-48 580.8,-307.201 90,-48 90,-57.597 48,-32.403 15.6,3.602 3.6,12 -22.8,32.398 -165.6,147.602 -64.8,73.199 -230.4,301.2 -75.6,86.4 -68.4,63.6 -44.4,19.2 -32.4,57.6 -37.2,57.6 -26.4,19.2 -34.8,13.2 -63.6,2.4 -63.6,-6 -36,-15.6 -19.2,-22.8 -15.6,-32.4 -34.8,-15.6 -22.8,-25.2 -13.2,-38.4 3.6,-26.4 3.6,-9.6 6,13.2 12,25.2 26.4,19.2 25.2,7.2 25.2,-7.2 16.8,-12 2.4,0 3.6,6 -6,28.8 12,3.6 7.2,12 0,13.2 -9.6,9.6 -9.6,2.4 -13.2,-8.4 -3.6,-16.8 7.2,-9.6 12,-2.4" inkscape:connector-curvature="0" id="path48" style="stroke:#000000;stroke-width:8;stroke-miterlimit:4;stroke-dasharray:none;fill:none;stroke-opacity:1"/>
      <path d="m 2826,1389.6 28.8,0 32.4,-2.4 28.8,-15.6 15.6,-28.8 -2.4,-38.4 -20.4,-26.4 -46.8,-31.2" inkscape:connector-curvature="0" id="path50" style="stroke:#000000;stroke-width:8;stroke-miterlimit:4;stroke-dasharray:none;fill:none;stroke-opacity:1"/>
      <path d="m 2854.8,1252.8 13.2,9.6 19.2,15.6 6,22.8 -6,19.2 -13.2,9.6 -19.2,-6 -12,-16.8 -3.6,-12 6,-36 -6,-12 -2.4,-6 -10.8,0 -6,18 -19.2,42 -19.2,16.8 -19.2,6 -19.2,0" inkscape:connector-curvature="0" id="path52" style="stroke:#000000;stroke-width:8;stroke-miterlimit:4;stroke-dasharray:none;fill:none;stroke-opacity:1"/>
      <path d="m 2720.4,1300.8 13.2,3.6 28.8,0 26.4,-26.4 15.6,-54 3.6,-63.6 2.4,-57.6 9.6,-36 16.8,-34.8 63.6,-79.199 130.8,-170.403 63.6,-76.796 51.6,-105.602 2.4,-73.199 -9.6,-76.801 -92.4,-16.801 -12,-18 0,-10.801" inkscape:connector-curvature="0" id="path54" style="stroke:#000000;stroke-width:8;stroke-miterlimit:4;stroke-dasharray:none;fill:none;stroke-opacity:1"/>
      <path d="m 3040.8,430.801 -15.6,-3.602 -16.8,-6 -2.4,-25.199 28.8,6 8.4,-9.602 132,9.602 111.6,-6 9.6,8.398 -9.6,33.602" inkscape:connector-curvature="0" id="path56" style="stroke:#000000;stroke-width:8;stroke-miterlimit:4;stroke-dasharray:none;fill:none;stroke-opacity:1"/>
      <path d="m 3296.4,404.398 12,0 22.8,-12 -6,25.204 -9.6,9.597 -15.6,6 -28.8,4.801 -76.8,8.398 9.6,105.602 44.4,-13.199 38.4,-28.801 -3.6,214.801 64.8,-25.199 40.8,-28.801 30,-51.602 120,-226.801 L 3702,498 3578.4,680.398" inkscape:connector-curvature="0" id="path58" style="stroke:#000000;stroke-width:8;stroke-miterlimit:4;stroke-dasharray:none;fill:none;stroke-opacity:1"/>
      <path d="m 3060,444 25.2,117.602 42,-9.602 21.6,-21.602" inkscape:connector-curvature="0" id="path60" style="stroke:#000000;stroke-width:8;stroke-miterlimit:4;stroke-dasharray:none;fill:none;stroke-opacity:1"/>
      <path d="m 3050.4,438 -44.4,-7.199 -22.8,-6 -9.6,-15.602 6,-16.801 28.8,9.602" inkscape:connector-curvature="0" id="path62" style="stroke:#000000;stroke-width:8;stroke-miterlimit:4;stroke-dasharray:none;fill:none;stroke-opacity:1"/>
      <path d="m 2983.2,424.801 -25.2,-7.199 -9.6,-25.204 25.2,6" inkscape:connector-curvature="0" id="path64" style="stroke:#000000;stroke-width:8;stroke-miterlimit:4;stroke-dasharray:none;fill:none;stroke-opacity:1"/>
      <path d="m 2935.2,903.602 32.4,-76.801 44.4,-117.602 15.6,-102 -2.4,-57.597 -22.8,-103.204 -82.8,-8.398 -19.2,-16.801 0,-16.801 2.4,-8.398 48,2.398" inkscape:connector-curvature="0" id="path66" style="stroke:#000000;stroke-width:8;stroke-miterlimit:4;stroke-dasharray:none;fill:none;stroke-opacity:1"/>
      <path d="m 2900.4,424.801 -26.4,-7.199 -6,-13.204 0,-12 25.2,6" inkscape:connector-curvature="0" id="path68" style="stroke:#000000;stroke-width:8;stroke-miterlimit:4;stroke-dasharray:none;fill:none;stroke-opacity:1"/>
      <path d="m 2922,433.199 -56.4,-8.398 -16.8,-9.602 -3.6,-22.801 20.4,6" inkscape:connector-curvature="0" id="path70" style="stroke:#000000;stroke-width:8;stroke-miterlimit:4;stroke-dasharray:none;fill:none;stroke-opacity:1"/>
      <path d="m 2858.4,424.801 -32.4,-9.602 -9.6,-26.398 26.4,13.199" inkscape:connector-curvature="0" id="path72" style="stroke:#000000;stroke-width:8;stroke-miterlimit:4;stroke-dasharray:none;fill:none;stroke-opacity:1"/>
      <path d="m 433.199,15.6016 -418.8006,0 4.8008,36 6,22.7968 8.4024,22.8008 12,17.9998 10.7968,15.602 14.4024,20.398 15.5976,14.403 20.4026,13.199 15.597,10.801 22.801,10.796 22.801,7.204 16.801,3.597 27.597,3.602 21.602,0 20.398,-3.602 20.403,-3.597 24,-6 15.597,-4.801 20.403,-14.403 18,-12 15.597,-13.199 14.403,-16.801 14.398,-20.398 13.199,-19.199 8.403,-18.0002 7.199,-26.4024 4.801,-19.1992 2.398,-21.5976" inkscape:connector-curvature="0" id="path74" style="stroke:#000000;stroke-width:8;stroke-miterlimit:4;stroke-dasharray:none;fill:none;stroke-opacity:1"/>
      <path d="m 1010.4,67.1992 0,-48 212.4,0 0,358.8008 -675.601,0 0,-358.8008 208.801,0 0,48 -160.801,0 0,256.8008 578.401,0 0,-256.8008 -163.2,0" inkscape:connector-curvature="0" id="path76" style="stroke:#000000;stroke-width:8;stroke-miterlimit:4;stroke-dasharray:none;fill:none;stroke-opacity:1"/>
    </g>
  </g>
</svg>
