<?xml version="1.0" encoding="UTF-8"?>
<!-- Created with Inkscape (http://www.inkscape.org/) -->
<svg xmlns:dc="http://purl.org/dc/elements/1.1/" xmlns:cc="http://creativecommons.org/ns#" xmlns:rdf="http://www.w3.org/1999/02/22-rdf-syntax-ns#" xmlns:svg="http://www.w3.org/2000/svg" xmlns="http://www.w3.org/2000/svg" xmlns:inkscape="http://www.inkscape.org/namespaces/inkscape" version="1.1" width="765" height="990" id="svg2" xml:space="preserve">
  <metadata id="metadata8">
    <rdf:RDF>
      <cc:Work rdf:about="">
        <dc:format>image/svg+xml</dc:format>
        <dc:type rdf:resource="http://purl.org/dc/dcmitype/StillImage"/>
      </cc:Work>
    </rdf:RDF>
  </metadata>
  <defs id="defs6"/>
  <g transform="matrix(1.25,0,0,-1.25,0,990)" id="g10">
    <g transform="scale(0.1,0.1)" id="g12">
      <path d="m 2372.4,1453.2 -15.6,-324 -6,-274.802 -7.2,-210 -15.6,-151.199 -12,-144 6,-153.597 9.6,-48 6,-37.204 -2.4,-39.5972 -19.2,-25.1992 -28.8,-19.2032 -36,-6 -63.6,15.6016 -25.2,19.1992 -42,9.6016 -96,-48 -396,3.5976 -15.6,50.4024 12,26.3984 36,5.9998 136.8,28.801 115.2,57.602 76.8,28.796 67.2,15.602 48,42 15.6,40.801 3.6,45.597 -6,67.204 -3.6,88.796 -7.2,243.602 -2.4,242.4 -26.4,451.2 294,0" inkscape:connector-curvature="0" id="path14" style="stroke:#000000;stroke-width:8;stroke-miterlimit:4;stroke-dasharray:none;fill:none;stroke-opacity:1"/>
      <path d="m 340.801,877.199 0,-860.3982 67.199,0 0,860.3982" inkscape:connector-curvature="0" id="path16" style="stroke:#000000;stroke-width:8;stroke-miterlimit:4;stroke-dasharray:none;fill:none;stroke-opacity:1"/>
      <path d="m 14.3984,880.801 718.8006,0 0,226.799 -13.199,25.2 -12,16.8 -32.398,0 -19.204,-4.8 -19.199,-12 -63.597,-57.6 L 516,1023.6 471.602,1002 417.602,988.801 372,985.199 331.199,988.801 276,1002 l -44.398,21.6 -57.602,51.6 -63.602,57.6 -19.1988,12 -19.1992,4.8 -32.3984,0 -13.2032,-16.8 -12,-25.2 0,-226.799" inkscape:connector-curvature="0" id="path18" style="stroke:#000000;stroke-width:8;stroke-miterlimit:4;stroke-dasharray:none;fill:none;stroke-opacity:1"/>
      <path d="m 506.398,1023.6 -57.597,378 -25.199,31.2 -19.204,13.2 -25.199,9.6 -10.801,0 -25.199,-9.6 -18,-13.2 -26.398,-31.2 -57.602,-378" inkscape:connector-curvature="0" id="path20" style="stroke:#000000;stroke-width:8;stroke-miterlimit:4;stroke-dasharray:none;fill:none;stroke-opacity:1"/>
      <path d="m 1164,376.801 415.2,399.597" inkscape:connector-curvature="0" id="path22" style="stroke:#000000;stroke-width:8;stroke-miterlimit:4;stroke-dasharray:none;fill:none;stroke-opacity:1"/>
      <path d="M 1014,434.398 1525.2,924" inkscape:connector-curvature="0" id="path24" style="stroke:#000000;stroke-width:8;stroke-miterlimit:4;stroke-dasharray:none;fill:none;stroke-opacity:1"/>
      <path d="M 914.398,540 1425.6,1029.6" inkscape:connector-curvature="0" id="path26" style="stroke:#000000;stroke-width:8;stroke-miterlimit:4;stroke-dasharray:none;fill:none;stroke-opacity:1"/>
      <path d="M 862.801,690 1272,1080" inkscape:connector-curvature="0" id="path28" style="stroke:#000000;stroke-width:8;stroke-miterlimit:4;stroke-dasharray:none;fill:none;stroke-opacity:1"/>
      <path d="m 1371.6,1058.4 -34.8,8.4 -36,13.2 -38.4,7.2 -38.4,0 -40.8,-3.6 -34.8,-3.6 -39.6,-13.2 -34.8,-12 -34.8,-16.8 -32.4,-21.6 -25.198,-22.798 -26.403,-25.204 -18,-22.796 L 918,916.801 895.199,876 l -9.597,-32.398 -9.602,-36 -6,-34.801 -7.199,-42 0,-34.801 7.199,-40.801 8.398,-36 10.801,-31.199 15.602,-34.801 9.597,-20.398 13.204,-15.602 31.199,-34.801 L 991.199,450 1020,427.199 1054.8,408 l 38.4,-18 38.4,-10.801 32.4,-8.398 38.4,0 38.4,-3.602 44.4,6 32.4,6 37.2,16.801 39.6,19.199 25.2,12 28.8,26.403 28.8,25.199 28.8,28.801 22.8,34.796 21.6,32.403 15.6,32.398 10.8,38.403 2.4,34.796 6,42 -2.4,34.801 -3.6,42 -9.6,34.801 -13.2,31.199 -15.6,42 -22.8,32.403 -21.6,25.199 -25.2,32.398 -32.4,21.601 -32.4,22.8 -34.8,16.8" inkscape:connector-curvature="0" id="path30" style="stroke:#000000;stroke-width:8;stroke-miterlimit:4;stroke-dasharray:none;fill:none;stroke-opacity:1"/>
      <path d="m 3754.8,1158 22.8,-32.4 25.2,-37.2 13.2,-32.4 13.2,-42 6,-28.801 6,-38.398 0,-44.403 -6,-44.398 -9.6,-38.398 -9.6,-26.403 -19.2,-32.398 -22.8,-21.602 -28.8,-28.801 -31.2,-15.597 -38.4,-16.801 -34.8,-6 -42,-3.602 -51.6,7.204 -38.4,13.199 -44.4,15.597 -44.4,25.204 -32.4,22.796 -38.4,34.801 -25.2,32.403 -32.4,38.398 -31.2,40.801 -22.8,36 -19.2,31.199 -16.8,38.4 -12,38.4 -9.6,51.6 -7.2,48 3.6,79.2 13.2,32.4 12,32.4 19.2,25.2 26.4,25.2 28.8,26.4 38.4,15.6 28.8,6 38.4,3.6 40.8,-6 42,-7.2 50.4,-15.6 45.6,-19.2 31.2,-19.2 32.4,-19.2 32.4,-28.8 32.4,-36 31.2,-34.8 25.2,-31.2 13.2,-13.2" inkscape:connector-curvature="0" id="path32" style="stroke:#000000;stroke-width:8;stroke-miterlimit:4;stroke-dasharray:none;fill:none;stroke-opacity:1"/>
      <path d="m 3777.6,1125.6 19.2,16.8 15.6,15.6 9.6,19.2 7.2,34.8 0,28.8 -7.2,25.2 -9.6,20.4 -9.6,12 -19.2,19.2 -12,13.2 -32.4,12 -50.4,0 -26.4,-12 -25.2,-16.8 -16.8,-8.4" inkscape:connector-curvature="0" id="path34" style="stroke:#000000;stroke-width:8;stroke-miterlimit:4;stroke-dasharray:none;fill:none;stroke-opacity:1"/>
      <path d="M 3355.2,781.199 3333.6,768 l -22.8,-13.199 -19.2,-6 -31.2,0 -32.4,6 -19.2,13.199 -19.2,13.199 -9.6,12 -15.6,19.199 -9.6,22.801 -3.6,31.199 0,22.801 9.6,25.199 15.6,26.403 22.8,21.597 15.6,9.602" inkscape:connector-curvature="0" id="path36" style="stroke:#000000;stroke-width:8;stroke-miterlimit:4;stroke-dasharray:none;fill:none;stroke-opacity:1"/>
      <path d="m 3090,1414.8 c 0,-15.6 -14.4,-30 -31.2,-30 -18,0 -32.4,14.4 -32.4,30 0,16.8 14.4,31.2 32.4,31.2 16.8,0 31.2,-14.4 31.2,-31.2" inkscape:connector-curvature="0" id="path38" style="stroke:#000000;stroke-width:8;stroke-miterlimit:4;stroke-dasharray:none;fill:none;stroke-opacity:1"/>
      <path d="m 3090,1414.8 c 0,-15.6 -14.4,-30 -31.2,-30 -18,0 -32.4,14.4 -32.4,30 0,16.8 14.4,31.2 32.4,31.2 16.8,0 31.2,-14.4 31.2,-31.2" inkscape:connector-curvature="0" id="path40" style="stroke:#000000;stroke-width:8;stroke-miterlimit:4;stroke-dasharray:none;fill:none;stroke-opacity:1"/>
      <path d="m 2889.6,1368 c 0,-16.8 -14.4,-31.2 -31.2,-31.2 -16.8,0 -30,14.4 -30,31.2 0,16.8 13.2,30 30,30 16.8,0 31.2,-13.2 31.2,-30" inkscape:connector-curvature="0" id="path42" style="stroke:#000000;stroke-width:8;stroke-miterlimit:4;stroke-dasharray:none;fill:none;stroke-opacity:1"/>
      <path d="m 2889.6,1368 c 0,-16.8 -14.4,-31.2 -31.2,-31.2 -16.8,0 -30,14.4 -30,31.2 0,16.8 13.2,30 30,30 16.8,0 31.2,-13.2 31.2,-30" inkscape:connector-curvature="0" id="path44" style="stroke:#000000;stroke-width:8;stroke-miterlimit:4;stroke-dasharray:none;fill:none;stroke-opacity:1"/>
      <path d="m 2773.2,1245.6 c 0,-16.8 -13.2,-30 -30,-30 -16.8,0 -30,13.2 -30,30 0,16.8 13.2,31.2 30,31.2 16.8,0 30,-14.4 30,-31.2" inkscape:connector-curvature="0" id="path46" style="stroke:#000000;stroke-width:8;stroke-miterlimit:4;stroke-dasharray:none;fill:none;stroke-opacity:1"/>
      <path d="m 2773.2,1245.6 c 0,-16.8 -13.2,-30 -30,-30 -16.8,0 -30,13.2 -30,30 0,16.8 13.2,31.2 30,31.2 16.8,0 30,-14.4 30,-31.2" inkscape:connector-curvature="0" id="path48" style="stroke:#000000;stroke-width:8;stroke-miterlimit:4;stroke-dasharray:none;fill:none;stroke-opacity:1"/>
      <path d="m 2688,1063.2 c 0,-16.8 -14.4,-30 -31.2,-30 -15.6,0 -30,13.2 -30,30 0,16.8 14.4,31.2 30,31.2 16.8,0 31.2,-14.4 31.2,-31.2" inkscape:connector-curvature="0" id="path50" style="stroke:#000000;stroke-width:8;stroke-miterlimit:4;stroke-dasharray:none;fill:none;stroke-opacity:1"/>
      <path d="m 2688,1063.2 c 0,-16.8 -14.4,-30 -31.2,-30 -15.6,0 -30,13.2 -30,30 0,16.8 14.4,31.2 30,31.2 16.8,0 31.2,-14.4 31.2,-31.2" inkscape:connector-curvature="0" id="path52" style="stroke:#000000;stroke-width:8;stroke-miterlimit:4;stroke-dasharray:none;fill:none;stroke-opacity:1"/>
      <path d="m 2661.6,884.398 c 0,-16.796 -13.2,-30 -30,-30 -16.8,0 -30,13.204 -30,30 0,16.801 13.2,30 30,30 16.8,0 30,-13.199 30,-30" inkscape:connector-curvature="0" id="path54" style="stroke:#000000;stroke-width:8;stroke-miterlimit:4;stroke-dasharray:none;fill:none;stroke-opacity:1"/>
      <path d="m 2661.6,884.398 c 0,-16.796 -13.2,-30 -30,-30 -16.8,0 -30,13.204 -30,30 0,16.801 13.2,30 30,30 16.8,0 30,-13.199 30,-30" inkscape:connector-curvature="0" id="path56" style="stroke:#000000;stroke-width:8;stroke-miterlimit:4;stroke-dasharray:none;fill:none;stroke-opacity:1"/>
    </g>
  </g>
</svg>
