<?xml version="1.0" encoding="UTF-8"?>
<!-- Created with Inkscape (http://www.inkscape.org/) -->
<svg xmlns:dc="http://purl.org/dc/elements/1.1/" xmlns:cc="http://creativecommons.org/ns#" xmlns:rdf="http://www.w3.org/1999/02/22-rdf-syntax-ns#" xmlns:svg="http://www.w3.org/2000/svg" xmlns="http://www.w3.org/2000/svg" xmlns:inkscape="http://www.inkscape.org/namespaces/inkscape" version="1.1" width="765" height="990" id="svg2" xml:space="preserve">
  <metadata id="metadata8">
    <rdf:RDF>
      <cc:Work rdf:about="">
        <dc:format>image/svg+xml</dc:format>
        <dc:type rdf:resource="http://purl.org/dc/dcmitype/StillImage"/>
      </cc:Work>
    </rdf:RDF>
  </metadata>
  <defs id="defs6"/>
  <g transform="matrix(1.25,0,0,-1.25,0,990)" id="g10">
    <g transform="scale(0.1,0.1)" id="g12">
      <path d="m 9.60156,1520.4 2237.99844,0 0,-919.201 -2237.99844,0 0,919.201" inkscape:connector-curvature="0" id="path14" style="stroke:#000000;stroke-width:8;stroke-miterlimit:4;stroke-dasharray:none;fill:none;stroke-opacity:1"/>
      <path d="m 9.60156,601.199 2238.00004,0 0,919.199 -2238.00004,0 0,-919.199 z" inkscape:connector-curvature="0" id="path16" style="stroke:#000000;stroke-width:8;stroke-miterlimit:4;stroke-dasharray:none;fill:none;stroke-opacity:1"/>
      <path d="m 690,220.801 -63.602,56.398 -78,43.199 L 518.398,72 396,56.3984 352.801,22.8008 390,26.3984" inkscape:connector-curvature="0" id="path18" style="stroke:#000000;stroke-width:8;stroke-miterlimit:4;stroke-dasharray:none;fill:none;stroke-opacity:1"/>
      <path d="M 392.398,46.8008 390,20.3984 l 75.602,2.4024" inkscape:connector-curvature="0" id="path20" style="stroke:#000000;stroke-width:8;stroke-miterlimit:4;stroke-dasharray:none;fill:none;stroke-opacity:1"/>
      <path d="M 406.801,790.801 426,722.398 l 39.602,-198 0,-234 -30,-177.597 -22.801,-24.0002 -168,-25.1992 -9.602,-40.8008 -50.398,-2.4024 24,26.4024 28.801,9.5976" inkscape:connector-curvature="0" id="path22" style="stroke:#000000;stroke-width:8;stroke-miterlimit:4;stroke-dasharray:none;fill:none;stroke-opacity:1"/>
      <path d="m 235.199,22.8008 121.199,0" inkscape:connector-curvature="0" id="path24" style="stroke:#000000;stroke-width:8;stroke-miterlimit:4;stroke-dasharray:none;fill:none;stroke-opacity:1"/>
      <path d="m 244.801,66 -60,-6 -39.602,-10.8008 -6,-26.3984 56.403,0" inkscape:connector-curvature="0" id="path26" style="stroke:#000000;stroke-width:8;stroke-miterlimit:4;stroke-dasharray:none;fill:none;stroke-opacity:1"/>
      <path d="m 142.801,49.1992 -37.199,-26.3984 30,3.5976" inkscape:connector-curvature="0" id="path28" style="stroke:#000000;stroke-width:8;stroke-miterlimit:4;stroke-dasharray:none;fill:none;stroke-opacity:1"/>
      <path d="m 798,1105.2 -92.398,9.6 -138,-9.6 -66,-43.2 -26.403,-66 20.403,-92.398 68.398,-72 452.4,-330 210,-145.204 109.2,-96 205.2,-213.5972 28.8,-20.4024 9.6,0 7.2,37.2032 -75.6,118.7964 -356.4,474 L 963.602,946.801 884.398,1042.8 781.199,1128 590.398,1233.6 577.199,1384.8 544.801,1496.4 396,1503.6 248.398,1496.4 214.801,1375.2 192,1190.4 214.801,1035.6 301.199,900 435.602,762 564,622.801 663.602,438 703.199,122.398 682.801,86.3984 518.398,72 469.199,22.8008 501.602,30" inkscape:connector-curvature="0" id="path30" style="stroke:#000000;stroke-width:8;stroke-miterlimit:4;stroke-dasharray:none;fill:none;stroke-opacity:1"/>
      <path d="M 505.199,60 501.602,22.8008 996,20.3984 982.801,52.8008" inkscape:connector-curvature="0" id="path32" style="stroke:#000000;stroke-width:8;stroke-miterlimit:4;stroke-dasharray:none;fill:none;stroke-opacity:1"/>
      <path d="m 990,26.3984 43.2,-6 -30,28.8008 -66.001,27.6016 -128.398,12 -13.199,16.8012 -16.801,207.597 79.199,-30 79.199,-58.801 -30,192 L 1016.4,346.801 1161.6,96 l 81.6,-46.8008 109.2,-28.8008 118.8,0 -139.2,203.9996 -88.8,115.204" inkscape:connector-curvature="0" id="path34" style="stroke:#000000;stroke-width:8;stroke-miterlimit:4;stroke-dasharray:none;fill:none;stroke-opacity:1"/>
      <path d="m 254.398,1384.8 43.204,66 43.199,-62.4" inkscape:connector-curvature="0" id="path36" style="stroke:#000000;stroke-width:8;stroke-miterlimit:4;stroke-dasharray:none;fill:none;stroke-opacity:1"/>
      <path d="m 356.398,1332 30,-164.4 43.204,160.8" inkscape:connector-curvature="0" id="path38" style="stroke:#000000;stroke-width:8;stroke-miterlimit:4;stroke-dasharray:none;fill:none;stroke-opacity:1"/>
      <path d="m 452.398,1382.4 43.204,64.8 45.597,-72" inkscape:connector-curvature="0" id="path40" style="stroke:#000000;stroke-width:8;stroke-miterlimit:4;stroke-dasharray:none;fill:none;stroke-opacity:1"/>
      <path d="m 484.801,1273.2 24,6 9.597,26.4 -6,16.8 -20.398,13.2 -22.801,-7.2 -10.801,-19.2 7.204,-26.4 22.796,-9.6" inkscape:connector-curvature="0" id="path42" style="stroke:#000000;stroke-width:8;stroke-miterlimit:4;stroke-dasharray:none;fill:none;stroke-opacity:1"/>
      <path d="m 303.602,1279.2 20.398,3.6 9.602,26.4 -6,22.8 -16.801,13.2 -26.403,-9.6 -10.796,-19.2 3.597,-24 26.403,-15.6" inkscape:connector-curvature="0" id="path44" style="stroke:#000000;stroke-width:8;stroke-miterlimit:4;stroke-dasharray:none;fill:none;stroke-opacity:1"/>
      <path d="m 1780.8,20.3984 -66,0 0,1318.8016 15.6,79.2 37.2,45.6 49.2,26.4 75.6,13.2 79.2,-15.6 49.2,-30 39.6,-52.8 14.4,-66 0,-922.802 -69.6,0 0,922.802 -10.8,43.2 -25.2,32.4 -46.8,16.8 -45.6,2.4 -50.4,-15.6 -36,-43.2 -9.6,-52.8 0,-1302.0016" inkscape:connector-curvature="0" id="path46" style="stroke:#000000;stroke-width:8;stroke-miterlimit:4;stroke-dasharray:none;fill:none;stroke-opacity:1"/>
      <path d="m 2931.6,904.801 -27.6,-13.199 -21.6,-25.204 -6,-20.398 -3.6,-22.801 6,-32.398 15.6,-21.602 15.6,-13.199 28.8,-9.602 20.4,-4.796 26.4,0 27.6,10.796 21.6,12 14.4,15.602 16.8,24 10.8,27.602 7.2,22.796 1.2,22.801 -1.2,16.801 -6,27.602 -9.6,22.796 -19.2,22.801 -19.2,16.801 -15.6,7.199 -15.6,6 -24,2.403 -18,2.398 -21.6,0 -30,-2.398 -28.8,-8.403 -25.2,-13.199 -16.8,-16.801 -19.2,-15.597 -12,-15.602 -15.6,-25.199 -12,-24 -4.8,-24 -6,-31.199 -1.2,-33.602 1.2,-25.199 3.6,-37.199 14.4,-36 19.2,-43.204 37.2,-46.796 57.6,-55.204 82.8,-67.199 180,-103.199" inkscape:connector-curvature="0" id="path48" style="stroke:#000000;stroke-width:8;stroke-miterlimit:4;stroke-dasharray:none;fill:none;stroke-opacity:1"/>
      <path d="m 2290.8,853.199 1195.2,0" inkscape:connector-curvature="0" id="path50" style="stroke:#000000;stroke-width:8;stroke-miterlimit:4;stroke-dasharray:none;fill:none;stroke-opacity:1"/>
    </g>
  </g>
</svg>
