<?xml version="1.0" encoding="UTF-8"?>
<!-- Created with Inkscape (http://www.inkscape.org/) -->
<svg xmlns:dc="http://purl.org/dc/elements/1.1/" xmlns:cc="http://creativecommons.org/ns#" xmlns:rdf="http://www.w3.org/1999/02/22-rdf-syntax-ns#" xmlns:svg="http://www.w3.org/2000/svg" xmlns="http://www.w3.org/2000/svg" xmlns:inkscape="http://www.inkscape.org/namespaces/inkscape" version="1.1" width="765" height="990" id="svg2" xml:space="preserve">
  <metadata id="metadata8">
    <rdf:RDF>
      <cc:Work rdf:about="">
        <dc:format>image/svg+xml</dc:format>
        <dc:type rdf:resource="http://purl.org/dc/dcmitype/StillImage"/>
      </cc:Work>
    </rdf:RDF>
  </metadata>
  <defs id="defs6"/>
  <g transform="matrix(1.25,0,0,-1.25,0,990)" id="g10">
    <g transform="scale(0.1,0.1)" id="g12">
      <path d="M 633.602,24 16.8008,24 24,75.6016 32.3984,110.398 45.6016,144 l 18,26.398 15.5976,24 20.4024,28.801 24.0004,20.403 28.796,21.597 24,15.602 33.602,15.597 33.602,10.801 24,4.801 42,4.801 31.199,0 28.801,-4.801 31.199,-4.801 34.801,-8.398 22.796,-7.199 L 489.602,270 516,252 l 22.801,-19.199 21.597,-25.199 20.403,-30 L 600,148.801 613.199,123.602 624,84 631.199,55.1992 633.602,24" inkscape:connector-curvature="0" id="path14" style="stroke:#000000;stroke-width:8;stroke-miterlimit:4;stroke-dasharray:none;fill:none;stroke-opacity:1"/>
      <path d="m 966,1113.6 18,31.2 24,24 34.8,7.2 28.8,-4.8 20.4,-18 10.8,-15.6 7.2,-37.2 0,-424.798 -1012.8008,0 0,424.798 10.8008,37.2 8.398,15.6 20.403,18 28.801,4.8 37.199,-7.2 22.801,-24 15.597,-28.8" inkscape:connector-curvature="0" id="path16" style="stroke:#000000;stroke-width:8;stroke-miterlimit:4;stroke-dasharray:none;fill:none;stroke-opacity:1"/>
      <path d="m 631.199,1501.2 -42,0 -15.597,-2.4 -28.801,-6 -18,-2.4 -15.602,-4.8 -15.597,-4.8 -21.602,-6 -18,-7.2 -18,-8.4 -15.602,-7.2 -15.597,-10.8 -15.602,-10.8 -15.597,-9.6 -13.204,-13.2 -28.796,-26.4 -10.801,-13.2 -10.801,-10.8 -18,-26.4 -15.602,-26.4 -8.398,-15.6 -4.801,-18 -10.801,-37.2 -7.199,-15.6 -3.597,-22.8 -2.403,-15.6 0,-73.2 2.403,-19.2 10.796,-36 4.801,-24 6,-13.2 9.602,-24 6,-15.602 15.597,-15.597 4.801,-13.199 13.199,-15.602 10.801,-13.199 13.199,-18 26.403,-24 18,-12 19.199,-13.199 9.602,-8.403 15.597,-10.801 15.602,-7.199 24,-8.398 15.597,-7.199 20.403,-6 13.199,-2.403 18,-4.801 19.199,-2.398 20.403,-3.602 39.597,0 18,3.602 6,-3.602 20.403,3.602 15.597,2.398 20.403,4.801 10.796,2.403 20.403,6 16.801,7.199 22.796,8.398 15.602,7.199 16.801,10.801 9.597,8.403 21.602,13.199 15.602,12 26.398,24 13.199,18 9.602,13.199 13.199,15.602 8.398,13.199 12,15.597 8.403,15.602 7.199,24 8.398,13.2 4.801,24 8.403,36 2.398,19.2 0,73.2 -2.398,15.6 -2.403,22.8 -6,15.6 -4.801,26.4 -13.199,28.8 -7.199,15.6 -10.801,18 -24,34.8 -7.199,10.8 -10.801,13.2 -31.199,26.4 -13.199,13.2 -13.199,9.6 -15.602,10.8 -18,10.8 -13.199,7.2 -21.602,8.4 -15.597,7.2 -22.801,6 -13.199,4.8 -18,4.8 -15.602,2.4 -15.602,6 -31.199,2.4 -19.199,0" inkscape:connector-curvature="0" id="path18" style="stroke:#000000;stroke-width:8;stroke-miterlimit:4;stroke-dasharray:none;fill:none;stroke-opacity:1"/>
      <path d="m 750,463.199 -12,-14.398 -7.199,-18 L 726,411.602 726,367.199 728.398,342 733.199,313.199 738,292.801 745.199,266.398 756,234 l 12,-32.398 31.199,-52.801 18,-22.801 24,-30 27.602,-24 26.398,-19.1992 22.801,-15.6016 24,-9.5976 22.801,-7.2032 24,-4.7968 20.399,-4.8008 43.2,0 18,7.1992 19.2,7.1992 18,9.6016 19.2,8.3984 15.6,14.4024 12,14.3984 12,14.3984 7.2,17.9996 12,21.602 2.4,16.801 4.8,22.801 -3.6,21.597 -1.2,22.801 -7.2,21.602 -9.6,22.796 -12,24 -16.8,26.403 -18,22.801 -19.2,21.597 -20.4,20.403 -21.6,19.199 -25.2,15.597 -26.4,19.204 -34.799,19.199 -25.199,13.199 -31.204,9.602 -32.398,9.597 -28.801,7.199 -25.199,2.403 -19.199,0 -20.403,-2.403 -12,-2.398 L 768,477.602 750,463.199" inkscape:connector-curvature="0" id="path20" style="stroke:#000000;stroke-width:8;stroke-miterlimit:4;stroke-dasharray:none;fill:none;stroke-opacity:1"/>
    </g>
  </g>
</svg>
