<?xml version="1.0" encoding="UTF-8"?>
<!-- Created with Inkscape (http://www.inkscape.org/) -->
<svg xmlns:dc="http://purl.org/dc/elements/1.1/" xmlns:cc="http://creativecommons.org/ns#" xmlns:rdf="http://www.w3.org/1999/02/22-rdf-syntax-ns#" xmlns:svg="http://www.w3.org/2000/svg" xmlns="http://www.w3.org/2000/svg" xmlns:inkscape="http://www.inkscape.org/namespaces/inkscape" version="1.1" width="765" height="990" id="svg2" xml:space="preserve">
  <metadata id="metadata8">
    <rdf:RDF>
      <cc:Work rdf:about="">
        <dc:format>image/svg+xml</dc:format>
        <dc:type rdf:resource="http://purl.org/dc/dcmitype/StillImage"/>
      </cc:Work>
    </rdf:RDF>
  </metadata>
  <defs id="defs6"/>
  <g transform="matrix(1.25,0,0,-1.25,0,990)" id="g10">
    <g transform="scale(0.1,0.1)" id="g12">
      <path d="m 408,880.801 0,-864.0002 -68.398,0 0,864.0002" inkscape:connector-curvature="0" id="path14" style="stroke:#000000;stroke-width:8;stroke-miterlimit:4;stroke-dasharray:none;fill:none;stroke-opacity:1"/>
      <path d="m 733.199,880.801 -718.8006,0 0,226.799 12,25.2 13.2032,16.8 32.3984,0 19.1992,-4.8 17.9998,-12 64.801,-57.6 57.602,-50.4 44.398,-22.8 55.199,-13.199 44.403,-3.602 40.796,3.602 55.204,13.199 44.398,22.8 57.602,50.4 63.597,57.6 19.199,12 19.204,4.8 32.398,0 12,-16.8 13.199,-25.2 0,-226.799" inkscape:connector-curvature="0" id="path16" style="stroke:#000000;stroke-width:8;stroke-miterlimit:4;stroke-dasharray:none;fill:none;stroke-opacity:1"/>
      <path d="m 241.199,1024.8 57.602,376.8 25.199,31.2 19.199,13.2 25.199,9.6 10.801,0 25.199,-9.6 19.204,-13.2 25.199,-31.2 57.597,-376.8" inkscape:connector-curvature="0" id="path18" style="stroke:#000000;stroke-width:8;stroke-miterlimit:4;stroke-dasharray:none;fill:none;stroke-opacity:1"/>
      <path d="m 558,1088.4 -26.398,2.4 -15.602,13.2 -9.602,16.8 -6,15.6 2.403,28.8 13.199,19.2 15.602,9.6 26.398,6 25.199,-3.6 19.199,-12 12,-19.2 0,-42 -12,-15.6 -19.199,-16.8 -25.199,-2.4" inkscape:connector-curvature="0" id="path20" style="stroke:#000000;stroke-width:8;stroke-miterlimit:4;stroke-dasharray:none;fill:none;stroke-opacity:1"/>
      <path d="m 202.801,1090.8 -28.801,0 -28.801,16.8 -9.597,19.2 -3.602,15.6 7.199,28.8 21.602,22.8 13.199,6 22.801,0 22.801,-3.6 18,-12 9.597,-22.8 0,-19.2 -6,-25.2 -9.597,-15.6 -16.801,-7.2 -12,-3.6" inkscape:connector-curvature="0" id="path22" style="stroke:#000000;stroke-width:8;stroke-miterlimit:4;stroke-dasharray:none;fill:none;stroke-opacity:1"/>
      <path d="M 429.602,877.199 522,596.398 529.199,567.602 529.199,528 516,499.199 496.801,481.199 477.602,468 408,458.398" inkscape:connector-curvature="0" id="path24" style="stroke:#000000;stroke-width:8;stroke-miterlimit:4;stroke-dasharray:none;fill:none;stroke-opacity:1"/>
      <path d="m 339.602,458.398 -66,9.602 -32.403,22.801 L 222,528 l 0,45.602 98.398,303.597" inkscape:connector-curvature="0" id="path26" style="stroke:#000000;stroke-width:8;stroke-miterlimit:4;stroke-dasharray:none;fill:none;stroke-opacity:1"/>
      <path d="m 1593.6,1453.2 -15.6,-324 -6,-274.802 -7.2,-210 -15.6,-151.199 -13.2,-144 7.2,-153.597 9.6,-48 6,-37.204 -2.4,-39.5972 -20.4,-25.1992 -28.8,-19.2032 -34.8,-6 -63.6,15.6016 -25.2,19.1992 -42,9.6016 -96,-48 -395.998,3.5976 -15.602,50.4024 12,26.3984 36,5.9998 136.8,28.801 115.2,57.602 76.8,28.796 67.2,15.602 48,42 15.6,40.801 3.6,45.597 -7.2,67.204 -2.4,90 -7.2,242.398 -2.4,242.4 -26.4,451.2 294,0" inkscape:connector-curvature="0" id="path28" style="stroke:#000000;stroke-width:8;stroke-miterlimit:4;stroke-dasharray:none;fill:none;stroke-opacity:1"/>
      <path d="m 2731.2,934.801 13.2,-62.403 33.6,-67.199 80.4,-92.398 -64.8,-2.403 -108,-18 -33.6,7.204 -39.6,-13.204 -20.4,-43.199 85.2,0 13.2,22.801 20.4,2.398 -2.4,-13.199 7.2,-9.597 82.8,15.597 145.2,-15.597 26.4,4.796 9.6,31.204 -9.6,36 -37.2,31.199 -18,40.801 2.4,28.796 10.8,69.602 18,51.602 8.4,26.398 2.4,31.199 -6,22.801 -15.6,18" inkscape:connector-curvature="0" id="path30" style="stroke:#000000;stroke-width:8;stroke-miterlimit:4;stroke-dasharray:none;fill:none;stroke-opacity:1"/>
      <path d="m 2906.4,1074 -76.8,15.6 -72,2.4 -108,-8.4 -192,-22.8 -61.2,2.4 -224.4,64.8 -75.6,6" inkscape:connector-curvature="0" id="path32" style="stroke:#000000;stroke-width:8;stroke-miterlimit:4;stroke-dasharray:none;fill:none;stroke-opacity:1"/>
      <path d="m 2019.6,1076.4 38.4,0 33.6,7.2 25.2,21.6 -43.2,20.4 -38.4,2.4 -37.2,-22.8" inkscape:connector-curvature="0" id="path34" style="stroke:#000000;stroke-width:8;stroke-miterlimit:4;stroke-dasharray:none;fill:none;stroke-opacity:1"/>
      <path d="m 2013.6,1096.8 19.2,13.2 20.4,6" inkscape:connector-curvature="0" id="path36" style="stroke:#000000;stroke-width:8;stroke-miterlimit:4;stroke-dasharray:none;fill:none;stroke-opacity:1"/>
      <path d="m 2078.4,1125.6 22.8,15.6 15.6,15.6 20.4,22.8 19.2,33.6 22.8,36 18,28.8 28.8,28.8 25.2,20.4 20.4,15.6 -4.8,9.6 -76.8,-50.4 -57.6,-68.4 -38.4,-56.4 -13.2,-9.6 -27.6,-15.6 -36,7.2 -13.2,-12" inkscape:connector-curvature="0" id="path38" style="stroke:#000000;stroke-width:8;stroke-miterlimit:4;stroke-dasharray:none;fill:none;stroke-opacity:1"/>
      <path d="m 2013.6,1159.2 -31.2,2.4 -30,-4.8" inkscape:connector-curvature="0" id="path40" style="stroke:#000000;stroke-width:8;stroke-miterlimit:4;stroke-dasharray:none;fill:none;stroke-opacity:1"/>
      <path d="m 1959.6,1161.6 -31.2,21.6 -14.4,9.6 -28.8,46.8 -15.6,51.6 -8.4,56.4 -7.2,25.2 -26.4,46.8 -15.6,37.2 -9.6,-2.4 33.6,-98.4 4.8,-56.4 8.4,-60 18,-46.8 31.2,-33.6 27.6,-15.6" inkscape:connector-curvature="0" id="path42" style="stroke:#000000;stroke-width:8;stroke-miterlimit:4;stroke-dasharray:none;fill:none;stroke-opacity:1"/>
      <path d="m 1934.4,1149.6 -28.8,-8.4 -31.2,-22.8 -15.6,-21.6 -4.8,-40.8 -4.8,-82.801 -28.8,-74.398 2.4,-31.199 7.2,-20.403 86.4,4.801 18,15.602 12,36" inkscape:connector-curvature="0" id="path44" style="stroke:#000000;stroke-width:8;stroke-miterlimit:4;stroke-dasharray:none;fill:none;stroke-opacity:1"/>
      <path d="m 1840.8,844.801 8.4,-10.801 46.8,4.801 20.4,15.597" inkscape:connector-curvature="0" id="path46" style="stroke:#000000;stroke-width:8;stroke-miterlimit:4;stroke-dasharray:none;fill:none;stroke-opacity:1"/>
      <path d="m 1872,867.602 4.8,10.796 15.6,4.801" inkscape:connector-curvature="0" id="path48" style="stroke:#000000;stroke-width:8;stroke-miterlimit:4;stroke-dasharray:none;fill:none;stroke-opacity:1"/>
      <path d="m 1926,1020 2.4,10.8 -2.4,7.2 0,10.8 10.8,4.8 7.2,7.2" inkscape:connector-curvature="0" id="path50" style="stroke:#000000;stroke-width:8;stroke-miterlimit:4;stroke-dasharray:none;fill:none;stroke-opacity:1"/>
      <path d="m 1944,1056 6,-10.8 -6,-12 -18,0" inkscape:connector-curvature="0" id="path52" style="stroke:#000000;stroke-width:8;stroke-miterlimit:4;stroke-dasharray:none;fill:none;stroke-opacity:1"/>
      <path d="m 1939.2,878.398 25.2,20.403 44.4,20.398 20.4,33.602 10.8,44.398" inkscape:connector-curvature="0" id="path54" style="stroke:#000000;stroke-width:8;stroke-miterlimit:4;stroke-dasharray:none;fill:none;stroke-opacity:1"/>
      <path d="m 2032.8,952.801 51.6,-36 40.8,-72 27.6,-15.602" inkscape:connector-curvature="0" id="path56" style="stroke:#000000;stroke-width:8;stroke-miterlimit:4;stroke-dasharray:none;fill:none;stroke-opacity:1"/>
      <path d="M 2127.6,975.602 2130,888 2156.4,816 2184,780 2035.2,728.398 2001.6,708 l -10.8,-21.602 0,-20.398 13.2,-18 36,-4.801 271.2,22.801 36,-10.801 36,-9.597 43.2,0 -56.4,67.199 -40.8,-22.801 -18,-3.602 4.8,16.801 -10.8,9.602 -63.6,-13.199 -122.4,-2.403 124.8,33.602 48,15.597 16.8,18 -3.6,22.801 -9.6,44.403 2.4,56.398 20.4,75.602" inkscape:connector-curvature="0" id="path58" style="stroke:#000000;stroke-width:8;stroke-miterlimit:4;stroke-dasharray:none;fill:none;stroke-opacity:1"/>
      <path d="m 2355.6,652.801 -24,33.597" inkscape:connector-curvature="0" id="path60" style="stroke:#000000;stroke-width:8;stroke-miterlimit:4;stroke-dasharray:none;fill:none;stroke-opacity:1"/>
      <path d="m 2349.6,674.398 36,12" inkscape:connector-curvature="0" id="path62" style="stroke:#000000;stroke-width:8;stroke-miterlimit:4;stroke-dasharray:none;fill:none;stroke-opacity:1"/>
      <path d="m 2311.2,792 146.4,-27.602 136.8,-8.398 100.8,3.602 13.2,-28.801 18,-22.801" inkscape:connector-curvature="0" id="path64" style="stroke:#000000;stroke-width:8;stroke-miterlimit:4;stroke-dasharray:none;fill:none;stroke-opacity:1"/>
      <path d="m 2685.6,670.801 -42,26.398" inkscape:connector-curvature="0" id="path66" style="stroke:#000000;stroke-width:8;stroke-miterlimit:4;stroke-dasharray:none;fill:none;stroke-opacity:1"/>
      <path d="M 2659.2,686.398 2638.8,670.801 2631.6,648" inkscape:connector-curvature="0" id="path68" style="stroke:#000000;stroke-width:8;stroke-miterlimit:4;stroke-dasharray:none;fill:none;stroke-opacity:1"/>
      <path d="m 2930.4,1040.4 28.8,-9.6 20.4,-33.601 -2.4,-109.199 7.2,-90 8.4,-51.602 12,-49.199 28.8,-46.801 0,55.204 -15.6,43.199 -15.6,38.398 -7.2,70.801 -2.4,68.398 0,75.602 -13.2,31.2 -22.8,18 -28.8,18 -26.4,4.8" inkscape:connector-curvature="0" id="path70" style="stroke:#000000;stroke-width:8;stroke-miterlimit:4;stroke-dasharray:none;fill:none;stroke-opacity:1"/>
      <path d="m 1947.6,510 0,-492 87.6,0 0,492 -87.6,0" inkscape:connector-curvature="0" id="path72" style="stroke:#000000;stroke-width:8;stroke-miterlimit:4;stroke-dasharray:none;fill:none;stroke-opacity:1"/>
      <path d="m 2385.6,510 0,-492 90,0 0,492 -90,0" inkscape:connector-curvature="0" id="path74" style="stroke:#000000;stroke-width:8;stroke-miterlimit:4;stroke-dasharray:none;fill:none;stroke-opacity:1"/>
      <path d="m 2828.4,510 0,-492 87.6,0 0,492 -87.6,0" inkscape:connector-curvature="0" id="path76" style="stroke:#000000;stroke-width:8;stroke-miterlimit:4;stroke-dasharray:none;fill:none;stroke-opacity:1"/>
    </g>
  </g>
</svg>
