<?xml version="1.0" encoding="UTF-8"?>
<!-- Created with Inkscape (http://www.inkscape.org/) -->
<svg xmlns:dc="http://purl.org/dc/elements/1.1/" xmlns:cc="http://creativecommons.org/ns#" xmlns:rdf="http://www.w3.org/1999/02/22-rdf-syntax-ns#" xmlns:svg="http://www.w3.org/2000/svg" xmlns="http://www.w3.org/2000/svg" xmlns:inkscape="http://www.inkscape.org/namespaces/inkscape" version="1.1" width="765" height="990" id="svg2" xml:space="preserve">
  <metadata id="metadata8">
    <rdf:RDF>
      <cc:Work rdf:about="">
        <dc:format>image/svg+xml</dc:format>
        <dc:type rdf:resource="http://purl.org/dc/dcmitype/StillImage"/>
      </cc:Work>
    </rdf:RDF>
  </metadata>
  <defs id="defs6"/>
  <g transform="matrix(1.25,0,0,-1.25,0,990)" id="g10">
    <g transform="scale(0.1,0.1)" id="g12">
      <path d="m 349.199,240 -39.597,49.199 -49.204,49.199 -39.597,43.204 -43.199,46.796 L 124.801,480 72,519.602 16.8008,559.199 122.398,1502.4 l 32.403,-9.6 36,-15.6 30,-24 30,-36 26.398,-43.2 13.199,-45.6 L 300,1288.8 309.602,1236 356.398,21.6016 294,19.1992 307.199,292.801" inkscape:connector-curvature="0" id="path14" style="stroke:#000000;stroke-width:8;stroke-miterlimit:4;stroke-dasharray:none;fill:none;stroke-opacity:1"/>
      <path d="m 1075.2,1428 0,-57.6 404.4,0 18,-12 42,-25.2 39.6,-10.8 55.2,10.8 37.2,32.4 13.2,32.4 -10.8,44.4 -37.2,30 -42,10.8 -52.8,-10.8 -44.4,-27.6 -18,-16.8 -404.4,0" inkscape:connector-curvature="0" id="path16" style="stroke:#000000;stroke-width:8;stroke-miterlimit:4;stroke-dasharray:none;fill:none;stroke-opacity:1"/>
      <path d="m 2290.8,1428 0,-57.6 -402,0 -19.2,-12 -43.2,-25.2 -42,-10.8 -55.2,10.8 -34.8,32.4 -9.6,32.4 7.2,44.4 37.2,30 43.2,10.8 51.6,-10.8 45.6,-27.6 19.2,-16.8 402,0" inkscape:connector-curvature="0" id="path18" style="stroke:#000000;stroke-width:8;stroke-miterlimit:4;stroke-dasharray:none;fill:none;stroke-opacity:1"/>
      <path d="m 814.801,234 -39.602,49.199 -49.199,49.199 -39.602,43.204 -43.199,45.597 -52.801,54 -52.796,38.403 -55.204,39.597 L 588,1496.4 l 32.398,-9.6 36,-16.8 30,-22.8 30,-36 26.403,-43.2 13.199,-46.8 9.602,-38.4 9.597,-52.8 L 822,16.8008 758.398,12 771.602,286.801" inkscape:connector-curvature="0" id="path20" style="stroke:#000000;stroke-width:8;stroke-miterlimit:4;stroke-dasharray:none;fill:none;stroke-opacity:1"/>
      <path d="M 1810.8,668.398 1794,616.801 1764,534 l -49.2,-96 -51.6,-79.199 -40.8,-66 -42,-55.199 -16.8,-33.602 -6,-26.398 -3.6,-22.801 6,-37.199 3.6,-22.8012 -6,-28.8008 -10.8,-20.3984 -30,-16.8008 -36,0 -39.6,16.8008 -13.2,3.5976 -28.8,-7.1992 -39.6,-15.6016 -228,0 -6,32.4024 19.2,20.3984 56.4,6 75.6,19.1988 69.6,33.602 52.8,46.801 42,52.801 13.2,28.796 26.4,75.602 69.6,188.398 43.2,92.403 45.6,88.801 39.6,66 33.6,52.796 28.8,39.602 22.8,30 20.4,9.602 16.8,3.597 13.2,-3.597 26.4,-3.602 39.6,-55.199 66,-109.199 L 2011.2,636 2088,504 2146.8,375.602 2190,264 l 13.2,-54 22.8,-51.602 30,-49.199 2.4,-23.9998 -2.4,-26.3984 -9.6,-19.1992 -20.4,-10.8008 -30,-6 -28.8,6 -9.6,10.8008 -24,6 -22.8,0 -22.8,-19.2032 -277.2,0 -3.6,22.8008 L 1818,66 l 72,19.1992 62.4,16.8008 46.8,15.602 42,20.398 24,22.801 13.2,26.398 0,20.403 -10.8,26.398 -39.6,58.801 -66,112.801 -62.4,85.199 -45.6,82.801 -22.8,66 -16.8,32.398" inkscape:connector-curvature="0" id="path22" style="stroke:#000000;stroke-width:8;stroke-miterlimit:4;stroke-dasharray:none;fill:none;stroke-opacity:1"/>
    </g>
  </g>
</svg>
