<?xml version="1.0" encoding="UTF-8"?>
<!-- Created with Inkscape (http://www.inkscape.org/) -->
<svg xmlns:dc="http://purl.org/dc/elements/1.1/" xmlns:cc="http://creativecommons.org/ns#" xmlns:rdf="http://www.w3.org/1999/02/22-rdf-syntax-ns#" xmlns:svg="http://www.w3.org/2000/svg" xmlns="http://www.w3.org/2000/svg" xmlns:inkscape="http://www.inkscape.org/namespaces/inkscape" version="1.1" width="765" height="990" id="svg2" xml:space="preserve">
  <metadata id="metadata8">
    <rdf:RDF>
      <cc:Work rdf:about="">
        <dc:format>image/svg+xml</dc:format>
        <dc:type rdf:resource="http://purl.org/dc/dcmitype/StillImage"/>
      </cc:Work>
    </rdf:RDF>
  </metadata>
  <defs id="defs6"/>
  <g transform="matrix(1.25,0,0,-1.25,0,990)" id="g10">
    <g transform="scale(0.1,0.1)" id="g12">
      <path d="M 249.602,908.398 570,1216.8" inkscape:connector-curvature="0" id="path14" style="stroke:#000000;stroke-width:8;stroke-miterlimit:4;stroke-dasharray:none;fill:none;stroke-opacity:1"/>
      <path d="M 134.398,952.801 529.199,1329.6" inkscape:connector-curvature="0" id="path16" style="stroke:#000000;stroke-width:8;stroke-miterlimit:4;stroke-dasharray:none;fill:none;stroke-opacity:1"/>
      <path d="m 57.6016,1034.4 394.7964,378" inkscape:connector-curvature="0" id="path18" style="stroke:#000000;stroke-width:8;stroke-miterlimit:4;stroke-dasharray:none;fill:none;stroke-opacity:1"/>
      <path d="m 18,1150.8 315.602,300" inkscape:connector-curvature="0" id="path20" style="stroke:#000000;stroke-width:8;stroke-miterlimit:4;stroke-dasharray:none;fill:none;stroke-opacity:1"/>
      <path d="m 410.398,1434 -27.597,7.2 -26.403,9.6 -30,6 -28.796,0 -32.403,-3.6 -27.597,-2.4 -30,-9.6 -26.403,-9.6 -27.597,-12 -24,-18 -20.403,-16.8 L 90,1365.6 74.3984,1347.6 60,1324.8 43.1992,1293.6 36,1268.4 27.6016,1242 22.8008,1214.4 18,1182 l 0,-26.4 4.8008,-32.4 8.3984,-27.6 7.1992,-24 12,-27.6 7.2032,-14.4 9.5976,-12 25.1992,-27.6 23.9996,-24 22.801,-18 26.403,-15.602 30,-14.398 30,-7.199 24,-7.199 30,0 30,-2.403 34.796,4.801 24,4.801 28.801,13.199 30,14.398 19.199,9.602 22.801,20.398 22.801,19.204 21.602,21.598 18,27.6 16.796,25.2 12,24 7.204,30 2.398,26.4 6,32.4 -2.398,27.6 -3.602,31.2 -7.199,27.6 -9.602,24 -12,33.6 -18,24 -16.801,19.2 -19.199,25.2 -25.199,16.8 -24,16.8 -27.602,13.2" inkscape:connector-curvature="0" id="path22" style="stroke:#000000;stroke-width:8;stroke-miterlimit:4;stroke-dasharray:none;fill:none;stroke-opacity:1"/>
      <path d="M 91.1992,350.398 178.801,18 l 274.801,0 85.199,332.398 -447.6018,0" inkscape:connector-curvature="0" id="path24" style="stroke:#000000;stroke-width:8;stroke-miterlimit:4;stroke-dasharray:none;fill:none;stroke-opacity:1"/>
      <path d="M 373.199,350.398 368.398,390 354,428.398 l -26.398,32.403 -30,24 L 264,510 l -19.199,24 -9.602,34.801 7.199,36 -2.398,36 -13.199,34.801 -21.602,28.796 -26.398,21.602 -30,21.602 -24,20.398 -14.403,16.801 0,-14.403 L 120,745.199 142.801,718.801 164.398,692.398 178.801,672 186,645.602 188.398,624 l -4.796,-31.199 -7.204,-24 0,-34.801 9.602,-24 24,-34.801 27.602,-26.398 24,-22.801 12,-21.602 L 276,385.199 276,366 271.199,350.398" inkscape:connector-curvature="0" id="path26" style="stroke:#000000;stroke-width:8;stroke-miterlimit:4;stroke-dasharray:none;fill:none;stroke-opacity:1"/>
      <path d="M 1420.8,52.8008 1537.2,159.602 1647.6,52.8008" inkscape:connector-curvature="0" id="path28" style="stroke:#000000;stroke-width:8;stroke-miterlimit:4;stroke-dasharray:none;fill:none;stroke-opacity:1"/>
      <path d="m 1692,100.801 -103.2,105.597 110.4,104.403" inkscape:connector-curvature="0" id="path30" style="stroke:#000000;stroke-width:8;stroke-miterlimit:4;stroke-dasharray:none;fill:none;stroke-opacity:1"/>
      <path d="m 1650,363.602 -109.2,-104.403 -110.4,114" inkscape:connector-curvature="0" id="path32" style="stroke:#000000;stroke-width:8;stroke-miterlimit:4;stroke-dasharray:none;fill:none;stroke-opacity:1"/>
      <path d="m 1382.4,326.398 106.8,-114 -114,-108" inkscape:connector-curvature="0" id="path34" style="stroke:#000000;stroke-width:8;stroke-miterlimit:4;stroke-dasharray:none;fill:none;stroke-opacity:1"/>
      <path d="m 1520.4,16.8008 48,2.3984 27.6,6 24,10.8008 27.6,19.1992 20.4,18 20.4,22.8008 13.2,21.602 14.4,25.199 7.2,22.801 3.6,28.796 0,27.602 -9.6,48 -9.6,25.199 -15.6,25.199 -16.8,25.204 -26.4,21.597 -20.4,13.199 -20.4,9.602 -19.2,6 -26.4,6 -25.2,1.199 -33.6,0 -27.6,-7.199 -26.4,-9.602 -24,-13.199 -22.8,-20.398 -20.4,-22.801 -18,-25.199 -9.6,-16.801 -6,-18 -7.2,-33.602 0,-30 3.6,-22.796 3.6,-24 8.4,-24 12,-27.602 20.4,-25.1992 20.4,-19.1992 24,-19.2032 24,-12 30,-10.7968 32.4,-4.8008" inkscape:connector-curvature="0" id="path36" style="stroke:#000000;stroke-width:8;stroke-miterlimit:4;stroke-dasharray:none;fill:none;stroke-opacity:1"/>
      <path d="m 1256.4,72 -512.4,0 6,43.199 6,28.801 10.801,27.602 15.597,21.597 13.204,19.199 16.796,25.204 20.403,16.796 24,16.801 19.199,13.199 28.801,13.204 27.597,8.398 19.204,4.801 34.796,4.801 26.402,0 24,-4.801 26.4,-4.801 27.6,-6 20.4,-6 26.4,-18 20.4,-15.602 20.4,-15.597 18,-20.403 16.8,-25.199 15.6,-22.801 10.8,-22.796 8.4,-32.403 7.2,-22.8006 L 1256.4,72" inkscape:connector-curvature="0" id="path38" style="stroke:#000000;stroke-width:8;stroke-miterlimit:4;stroke-dasharray:none;fill:none;stroke-opacity:1"/>
      <path d="m 1149.6,634.801 123.6,0 50.4,-158.403 -222,0 48,158.403" inkscape:connector-curvature="0" id="path40" style="stroke:#000000;stroke-width:8;stroke-miterlimit:4;stroke-dasharray:none;fill:none;stroke-opacity:1"/>
      <path d="m 1214.4,634.801 0,662.399 12,1.2 8.4,4.8 13.2,13.2 6,10.8 6,19.2 2.4,26.4 2.4,18 2.4,14.4 10.8,15.6 8.4,4.8 15.6,2.4 13.2,3.6 -4.8,6 -56.4,13.2 -40.8,4.8 -58.8,-4.8 -48,-8.4 0,-10.8 13.2,-2.4 21.6,-13.2 6,-8.4 4.8,-8.4 3.6,-28.8 0,-16.8 7.2,-24 4.8,-13.2 19.2,-15.6 14.4,-3.6 0,-662.399" inkscape:connector-curvature="0" id="path42" style="stroke:#000000;stroke-width:8;stroke-miterlimit:4;stroke-dasharray:none;fill:none;stroke-opacity:1"/>
      <path d="m 1245.6,634.801 99.6,433.199 20.4,0 14.4,10.8 10.8,9.6 8.4,16.8 8.4,26.4 3.6,18 6,14.4 16.8,10.8 9.6,2.4 15.6,0 12,2.4 -2.4,6 -70.8,31.2 -31.2,10.8 -51.6,3.6 -46.8,2.4 -1.2,-10.8 10.8,-4.8 19.2,-16.8 7.2,-10.8 2.4,-8.4 -7.2,-26.4 -2.4,-19.2 0,-24 2.4,-13.2 15.6,-21.6 14.4,-7.2 -94.8,-435.599" inkscape:connector-curvature="0" id="path44" style="stroke:#000000;stroke-width:8;stroke-miterlimit:4;stroke-dasharray:none;fill:none;stroke-opacity:1"/>
      <path d="M 1171.2,634.801 1074,1068 l -20.4,0 -14.4,10.8 -10.8,9.6 -9.6,16.8 -8.4,26.4 0,18 -8.4,14.4 -18,13.2 -24,0 -12,2.4 1.199,6 52.801,24 37.2,13.2 64.8,8.4 45.6,2.4 2.4,-10.8 -10.8,-4.8 -20.4,-16.8 -6,-10.8 -2.4,-8.4 7.2,-26.4 1.2,-19.2 0,-37.2 -14.4,-21.6 -15.6,-7.2 91.2,-435.599" inkscape:connector-curvature="0" id="path46" style="stroke:#000000;stroke-width:8;stroke-miterlimit:4;stroke-dasharray:none;fill:none;stroke-opacity:1"/>
    </g>
  </g>
</svg>
