<?xml version="1.0" encoding="UTF-8"?>
<!-- Created with Inkscape (http://www.inkscape.org/) -->
<svg xmlns:dc="http://purl.org/dc/elements/1.1/" xmlns:cc="http://creativecommons.org/ns#" xmlns:rdf="http://www.w3.org/1999/02/22-rdf-syntax-ns#" xmlns:svg="http://www.w3.org/2000/svg" xmlns="http://www.w3.org/2000/svg" xmlns:inkscape="http://www.inkscape.org/namespaces/inkscape" version="1.1" width="765" height="990" id="svg2" xml:space="preserve">
  <metadata id="metadata8">
    <rdf:RDF>
      <cc:Work rdf:about="">
        <dc:format>image/svg+xml</dc:format>
        <dc:type rdf:resource="http://purl.org/dc/dcmitype/StillImage"/>
      </cc:Work>
    </rdf:RDF>
  </metadata>
  <defs id="defs6"/>
  <g transform="matrix(1.25,0,0,-1.25,0,990)" id="g10">
    <g transform="scale(0.1,0.1)" id="g12">
      <path d="m 558,537.602 57.602,-163.204 0,-38.398 -7.204,-22.801 -102,-188.398 L 490.801,99.6016 468,90 446.398,80.3984 321.602,73.1992 l -28.801,-6 L 273.602,54 260.398,38.3984 l -3.597,-9.5976 16.801,0 15.597,15.5976 16.801,0 6,-13.1992 117.602,7.1992 76.796,-9.5976 19.204,2.3984 13.199,22.8008 15.597,-28.8008 13.204,0 L 571.199,42 558,67.1992 l -6,26.4024 15.602,40.7964 48,90 21.597,50.403 L 654,294 l 19.199,19.199 0,32.403 54,96" inkscape:connector-curvature="0" id="path14" style="stroke:#000000;stroke-width:8;stroke-miterlimit:4;stroke-dasharray:none;fill:none;stroke-opacity:1"/>
      <path d="m 554.398,998.398 -57.597,-36 -63.602,-18 -34.801,-19.199 -15.597,-28.801 12,-32.398 28.801,-42 54,-34.801 L 1302,543.602 1344,540 l 42,0 32.4,13.199 9.6,13.199 L 1407.6,582 1165.2,722.398 1011.6,831.602 954,889.199 915.602,927.602 877.199,954 l -48,31.199 -44.398,28.801 -63.602,25.2 -44.398,10.8 -48,6 -57.602,-3.6 -42,-25.2 -54,-38.399 -20.398,-6 -21.602,2.398 L 420,1002 l 0,18 13.199,22.8 121.199,249.6 3.602,28.8 2.398,32.4 -2.398,31.2 -13.199,36 -15.602,25.2 -26.398,13.2 -27.602,6 -28.801,0 -32.398,-6 -31.199,-16.8 -22.801,-21.6 -13.199,-15.6 -13.199,-26.4 -6,-15.6 0,-32.4 13.199,-31.2 13.199,-13.2 28.801,-15.6 15.597,-7.2 25.204,-9.6 0,-25.2 -9.602,-51.6 -25.199,-51.6 -42,-44.4 -44.403,-44.4 -57.597,-63.601 -19.199,-42 -6,-48 6,-42 25.199,-48 L 318,720 554.398,540 685.199,466.801 730.801,434.398 762,403.199 790.801,351.602 813.602,307.199 852,134.398 852,111.602 836.398,102 813.602,93.6016 650.398,70.8008 634.801,60 621.602,42 l -2.403,-13.1992 12,-3.6016 16.801,26.4024 6,0 6,-26.4024 L 823.199,42 l 57.602,-13.1992 15.597,6 L 900,54 l 25.199,-22.8008 13.199,0 3.602,13.1992 -3.602,13.2032 -25.199,25.1992 -16.801,36.0002 -9.597,165.597 9.597,32.403 -9.597,25.199 3.597,74.398 6,21.602 105.602,7.199 38.4,9.602" inkscape:connector-curvature="0" id="path16" style="stroke:#000000;stroke-width:8;stroke-miterlimit:4;stroke-dasharray:none;fill:none;stroke-opacity:1"/>
      <path d="m 1276.8,480 67.2,9.602 28.8,9.597 19.2,9.602 -3.6,9.597 -104.4,32.403" inkscape:connector-curvature="0" id="path18" style="stroke:#000000;stroke-width:8;stroke-miterlimit:4;stroke-dasharray:none;fill:none;stroke-opacity:1"/>
      <path d="m 925.199,616.801 195.601,-246 15.6,-15.602 16.8,-3.597 12,0 9.6,9.597 0,22.801" inkscape:connector-curvature="0" id="path20" style="stroke:#000000;stroke-width:8;stroke-miterlimit:4;stroke-dasharray:none;fill:none;stroke-opacity:1"/>
      <path d="m 1005.6,601.199 165.6,-213.597 16.8,-10.801 15.6,-2.403 13.2,6 6,9.602 0,9.602" inkscape:connector-curvature="0" id="path22" style="stroke:#000000;stroke-width:8;stroke-miterlimit:4;stroke-dasharray:none;fill:none;stroke-opacity:1"/>
      <path d="m 1072.8,588 150,-182.398 9.6,-8.403 13.2,-3.597 13.2,12 0,16.796" inkscape:connector-curvature="0" id="path24" style="stroke:#000000;stroke-width:8;stroke-miterlimit:4;stroke-dasharray:none;fill:none;stroke-opacity:1"/>
      <path d="m 1148.4,570 112.8,-147.602 15.6,-9.597 9.6,0 9.6,6 6,9.597 0,9.602 -85.2,118.801" inkscape:connector-curvature="0" id="path26" style="stroke:#000000;stroke-width:8;stroke-miterlimit:4;stroke-dasharray:none;fill:none;stroke-opacity:1"/>
      <path d="m 391.199,1369.2 7.199,13.2 12,9.6 15.602,2.4 13.199,-6 3.602,-12 -6,-10.8 -13.199,-9.6 -15.602,-2.4 -9.602,9.6 -3.597,19.2" inkscape:connector-curvature="0" id="path28" style="stroke:#000000;stroke-width:8;stroke-miterlimit:4;stroke-dasharray:none;fill:none;stroke-opacity:1"/>
      <path d="m 465.602,1104 246,-3.6 0,163.2 -13.204,48 -34.796,57.6 -26.403,28.8 -25.199,19.2 -22.801,15.6 -31.199,16.8 -22.801,6 -21.597,6 -19.204,0 -19.199,3.6" inkscape:connector-curvature="0" id="path30" style="stroke:#000000;stroke-width:8;stroke-miterlimit:4;stroke-dasharray:none;fill:none;stroke-opacity:1"/>
      <path d="M 337.199,1378.8 318,1363.2 298.801,1344 l -25.199,-16.8 -42,-15.6 L 174,1276.8 123.602,1231.2 87.6016,1190.4 43.1992,1123.2 24,1056 l -9.6016,-38.4 0,-15.6 9.6016,-7.199 6,7.199 22.8008,57.6 44.3984,69.6 45.6018,61.2 37.199,34.8 45.602,32.4 54,25.2 34.796,9.6 26.403,7.2" inkscape:connector-curvature="0" id="path32" style="stroke:#000000;stroke-width:8;stroke-miterlimit:4;stroke-dasharray:none;fill:none;stroke-opacity:1"/>
      <path d="m 37.1992,1004.4 15.6016,9.6 48.0002,70.8 31.199,44.4 42,48 48,36 44.398,21.6 39.602,19.2 76.801,6 27.597,-2.4" inkscape:connector-curvature="0" id="path34" style="stroke:#000000;stroke-width:8;stroke-miterlimit:4;stroke-dasharray:none;fill:none;stroke-opacity:1"/>
      <path d="M 1972.8,745.199 2389.2,1144.8" inkscape:connector-curvature="0" id="path36" style="stroke:#000000;stroke-width:8;stroke-miterlimit:4;stroke-dasharray:none;fill:none;stroke-opacity:1"/>
      <path d="M 1822.8,802.801 2335.2,1292.4" inkscape:connector-curvature="0" id="path38" style="stroke:#000000;stroke-width:8;stroke-miterlimit:4;stroke-dasharray:none;fill:none;stroke-opacity:1"/>
      <path d="M 1724.4,908.398 2235.6,1398" inkscape:connector-curvature="0" id="path40" style="stroke:#000000;stroke-width:8;stroke-miterlimit:4;stroke-dasharray:none;fill:none;stroke-opacity:1"/>
      <path d="m 1672.8,1059.6 409.2,390" inkscape:connector-curvature="0" id="path42" style="stroke:#000000;stroke-width:8;stroke-miterlimit:4;stroke-dasharray:none;fill:none;stroke-opacity:1"/>
      <path d="m 2181.6,1426.8 -36,9.6 -34.8,13.2 -38.4,6 -38.4,0 -42,-2.4 -34.8,-3.6 -38.4,-13.2 -34.8,-12 -36,-16.8 -31.2,-22.8 -26.4,-21.6 -25.2,-26.4 -19.2,-21.6 -19.2,-28.8 -21.6,-42 -9.6,-31.2 -10.8,-36 -6,-34.8 -6,-42 0,-34.8 6,-42 9.6,-34.799 9.6,-32.403 15.6,-34.796 10.8,-19.204 12,-16.796 32.4,-34.801 32.4,-31.199 28.8,-22.801 34.8,-19.199 38.4,-19.204 38.4,-9.597 31.2,-9.602 39.6,0 37.2,-3.597 45.6,7.199 31.2,6 38.4,15.597 38.4,19.204 26.4,13.199 28.8,25.199 28.8,26.398 27.6,28.801 22.8,34.801 22.8,32.398 15.6,31.204 9.6,38.398 3.6,36 6,40.8 -3.6,34.8 -2.4,42 -9.6,34.8 -13.2,32.4 -15.6,42 -22.8,31.2 -21.6,26.4 -26.4,31.2 -32.4,22.8 -31.2,22.8 -34.8,15.6" inkscape:connector-curvature="0" id="path44" style="stroke:#000000;stroke-width:8;stroke-miterlimit:4;stroke-dasharray:none;fill:none;stroke-opacity:1"/>
      <path d="M 1712.4,595.199 1968,20.3984 l 128.4,0 -255.6,574.8006 -128.4,0" inkscape:connector-curvature="0" id="path46" style="stroke:#000000;stroke-width:8;stroke-miterlimit:4;stroke-dasharray:none;fill:none;stroke-opacity:1"/>
      <path d="m 2098.8,595.199 256.8,-574.8006 127.2,0 -255.6,574.8006 -128.4,0" inkscape:connector-curvature="0" id="path48" style="stroke:#000000;stroke-width:8;stroke-miterlimit:4;stroke-dasharray:none;fill:none;stroke-opacity:1"/>
      <path d="m 3710.4,382.801 0,-367.1994 78,0 0,367.1994 -78,0" inkscape:connector-curvature="0" id="path50" style="stroke:#000000;stroke-width:8;stroke-miterlimit:4;stroke-dasharray:none;fill:none;stroke-opacity:1"/>
      <path d="m 3710.4,930 0,-369.602 78,0 0,369.602 -78,0" inkscape:connector-curvature="0" id="path52" style="stroke:#000000;stroke-width:8;stroke-miterlimit:4;stroke-dasharray:none;fill:none;stroke-opacity:1"/>
      <path d="m 3710.4,1455.6 0,-369.6 78,0 0,369.6 -78,0" inkscape:connector-curvature="0" id="path54" style="stroke:#000000;stroke-width:8;stroke-miterlimit:4;stroke-dasharray:none;fill:none;stroke-opacity:1"/>
      <path d="m 2947.2,249.602 182.4,0 73.2,-234.0004 -326.4,0 70.8,234.0004" inkscape:connector-curvature="0" id="path56" style="stroke:#000000;stroke-width:8;stroke-miterlimit:4;stroke-dasharray:none;fill:none;stroke-opacity:1"/>
      <path d="M 3091.2,249.602 3206.4,396 l 38.4,-105.602 -6,-54 8.4,-55.199 26.4,-60 25.2,-34.8006 22.8,-19.1992 15.6,2.4024 6,32.3984 0,51.602 -2.4,31.199 -13.2,45.597 -22.8,34.801 -12,15.602 -22.8,9.597 -6,-3.597 -13.2,-12" inkscape:connector-curvature="0" id="path58" style="stroke:#000000;stroke-width:8;stroke-miterlimit:4;stroke-dasharray:none;fill:none;stroke-opacity:1"/>
      <path d="m 3273.6,290.398 -45.6,128.403 -2.4,13.199 -7.2,9.602 -8.4,0 -147.6,-192" inkscape:connector-curvature="0" id="path60" style="stroke:#000000;stroke-width:8;stroke-miterlimit:4;stroke-dasharray:none;fill:none;stroke-opacity:1"/>
      <path d="m 2998.8,249.602 -128.4,171.597 -9.6,13.199 -6,-2.398 -7.2,-10.801 -54,-134.398 -28.8,-18 -19.2,-28.801 -15.6,-45.602 -7.2,-31.199 -2.4,-36 2.4,-25.199 3.6,-21.6016 9.6,-7.1992 32.4,22.8008 21.6,31.199 16.8,19.199 15.6,38.403 3.6,32.398 2.4,28.801 -2.4,19.199 -9.6,13.199 -6,2.403 -16.8,0" inkscape:connector-curvature="0" id="path62" style="stroke:#000000;stroke-width:8;stroke-miterlimit:4;stroke-dasharray:none;fill:none;stroke-opacity:1"/>
      <path d="m 2816.4,278.398 40.8,98.403 7.2,15.597 9.6,-8.398 98.4,-134.398" inkscape:connector-curvature="0" id="path64" style="stroke:#000000;stroke-width:8;stroke-miterlimit:4;stroke-dasharray:none;fill:none;stroke-opacity:1"/>
      <path d="m 3039.6,249.602 0,971.998 19.2,3.6 13.2,6 19.2,19.2 9.6,15.6 9.6,28.8 2.4,39.6 3.6,25.2 3.6,21.6 15.6,22.8 13.2,6 21.6,3.6 19.2,7.2 -6,8.4 -82.8,20.4 -61.2,6 -86.4,-6 -70.8,-13.2 0,-15.6 20.4,-3.6 31.2,-19.2 9.6,-13.2 7.2,-13.2 6,-40.8 0,-26.4 9.6,-34.8 6,-19.2 28.8,-21.6 22.8,-7.2 -3.6,-971.998" inkscape:connector-curvature="0" id="path66" style="stroke:#000000;stroke-width:8;stroke-miterlimit:4;stroke-dasharray:none;fill:none;stroke-opacity:1"/>
      <path d="m 3058.8,249.602 147.6,636 28.8,0 21.6,15.597 16.8,13.199 13.2,26.403 12,37.199 3.6,26.4 9.6,22.8 25.2,15.6 13.2,3.6 21.6,0 20.4,2.4 -4.8,9.6 -105.6,45.6 -43.2,15.6 -76.8,6 -68.4,3.6 -2.4,-16.8 15.6,-6 28.8,-25.2 9.6,-16.8 3.6,-12 -9.6,-38.4 -3.6,-28.801 0,-36 3.6,-19.199 22.8,-31.199 21.6,-9.602 -140.4,-639.597" inkscape:connector-curvature="0" id="path68" style="stroke:#000000;stroke-width:8;stroke-miterlimit:4;stroke-dasharray:none;fill:none;stroke-opacity:1"/>
      <path d="m 3010.8,249.602 -144,636 -27.6,0 -22.8,15.597 -16.8,13.199 -12,26.403 -13.2,37.199 0,26.4 -12,22.8 -26.4,19.2 -34.8,0 -19.2,2.4 3.6,9.6 76.8,36 54,18 96,13.2 67.2,3.6 2.4,-16.8 -15.6,-6 -28.8,-25.2 -9.6,-16.8 -3.6,-12 9.6,-38.4 3.6,-28.801 0,-55.199 -21.6,-31.199 -22.8,-9.602 130.8,-639.597" inkscape:connector-curvature="0" id="path70" style="stroke:#000000;stroke-width:8;stroke-miterlimit:4;stroke-dasharray:none;fill:none;stroke-opacity:1"/>
    </g>
  </g>
</svg>
