<?xml version="1.0" encoding="UTF-8"?>
<!-- Created with Inkscape (http://www.inkscape.org/) -->
<svg xmlns:dc="http://purl.org/dc/elements/1.1/" xmlns:cc="http://creativecommons.org/ns#" xmlns:rdf="http://www.w3.org/1999/02/22-rdf-syntax-ns#" xmlns:svg="http://www.w3.org/2000/svg" xmlns="http://www.w3.org/2000/svg" xmlns:inkscape="http://www.inkscape.org/namespaces/inkscape" version="1.1" width="765" height="990" id="svg2" xml:space="preserve">
  <metadata id="metadata8">
    <rdf:RDF>
      <cc:Work rdf:about="">
        <dc:format>image/svg+xml</dc:format>
        <dc:type rdf:resource="http://purl.org/dc/dcmitype/StillImage"/>
      </cc:Work>
    </rdf:RDF>
  </metadata>
  <defs id="defs6"/>
  <g transform="matrix(1.25,0,0,-1.25,0,990)" id="g10">
    <g transform="scale(0.1,0.1)" id="g12">
      <path d="m 1186.8,334.801 25.2,4.801 20.4,13.199 15.6,22.801 4.8,20.398 2.4,40.801 -7.2,20.398 -15.6,25.199 -15.6,10.801 -15.6,10.801 -38.4,4.801 -1058.402,0 -33.5972,-4.801 -18,-6 L 38.3984,488.398 22.8008,465.602 12,427.199 22.8008,381.602 32.3984,366 l 20.4024,-15.602 15.5976,-10.796 25.2032,-4.801 1087.1984,0" inkscape:connector-curvature="0" id="path14" style="stroke:#000000;stroke-width:8;stroke-miterlimit:4;stroke-dasharray:none;fill:none;stroke-opacity:1"/>
      <path d="m 1188,20.3984 25.2,4.8008 20.4,13.1992 15.6,22.8008 4.8,20.4024 2.4,40.7964 -7.2,20.403 -15.6,25.199 -15.6,10.801 -14.4,9.597 -38.4,4.801 -1059.598,0 L 72,188.398 55.1992,183.602 39.6016,174 24,150 13.1992,111.602 24,66 34.8008,50.3984 55.1992,36 69.6016,25.1992 96,20.3984 l 1087.2,0" inkscape:connector-curvature="0" id="path16" style="stroke:#000000;stroke-width:8;stroke-miterlimit:4;stroke-dasharray:none;fill:none;stroke-opacity:1"/>
      <path d="m 991.199,1036.8 18.001,30 22.8,22.8 33.6,8.4 27.6,-6 20.4,-18 10.8,-14.4 7.2,-36 0,-413.998 -987.6,0 0,413.998 9.602,36 8.398,14.4 20.398,18 27.602,6 36,-8.4 22.801,-22.8 15.597,-27.6" inkscape:connector-curvature="0" id="path18" style="stroke:#000000;stroke-width:8;stroke-miterlimit:4;stroke-dasharray:none;fill:none;stroke-opacity:1"/>
      <path d="m 664.801,1414.8 -40.801,0 -15.602,-3.6 -27.597,-4.8 -18,-2.4 -15.602,-4.8 -15.597,-4.8 -20.403,-6 -18,-7.2 -18,-7.2 -14.398,-8.4 -15.602,-9.6 -15.597,-10.8 -15.602,-10.8 -12,-12 -27.602,-25.2 -10.796,-13.2 -10.801,-10.8 -18,-25.2 -14.403,-25.2 -7.199,-15.6 -6,-18 -9.597,-36 -8.403,-14.4 -2.398,-22.8 -2.403,-15.6 0,-72 2.403,-18 10.801,-34.798 4.796,-24 4.801,-12 10.801,-22.801 4.801,-15.602 14.398,-15.597 6,-13.204 12,-14.398 10.801,-13.199 13.199,-18 25.199,-22.801 18,-12 18,-13.199 9.602,-8.403 15.602,-9.597 14.398,-8.403 24,-7.199 15.602,-7.199 20.398,-6 12,-2.398 18,-4.801 18,-2.403 20.398,-2.398 38.403,0 18,2.398 4.801,-2.398 20.398,2.398 15.602,2.403 20.398,4.801 9.602,2.398 20.398,6 15.602,7.199 22.796,7.199 15.602,8.403 15.602,9.597 9.597,8.403 21.602,13.199 14.398,12 25.199,22.801 13.204,18 10.796,13.199 12,14.398 8.403,13.204 12,15.597 7.199,15.602 8.398,22.801 7.204,12 6,24 7.199,34.798 2.398,18 0,72 -2.398,15.6 -2.403,22.8 -4.796,14.4 -6,26.4 -12,27.6 -8.403,15.6 -9.597,18 -22.801,32.4 -8.403,10.8 -9.597,13.2 -31.199,25.2 -12,12 -13.204,10.8 -15.597,10.8 -18,9.6 -12,8.4 -20.403,7.2 -15.597,7.2 -22.801,6 -13.199,4.8 -18,4.8 -15.602,2.4 -14.398,4.8 -31.199,3.6 -18,0" inkscape:connector-curvature="0" id="path20" style="stroke:#000000;stroke-width:8;stroke-miterlimit:4;stroke-dasharray:none;fill:none;stroke-opacity:1"/>
      <path d="m 2162.4,758.398 6,-121.199 -9.6,-129.597 L 2121.6,132 2278.8,24 l -878.4,0 186,86.398 -102,393.602 -3.6,46.801 9.6,37.199 15.6,25.199 15.6,15.602 31.2,2.398 33.6,-6 43.2,-27.597 37.2,-34.801 147.6,-210 13.2,219.597 9.6,182.403 27.6,90 33.6,49.199 19.2,28.801 55.2,55.199 0,72 -24,18 -86.4,19.2 -32.4,-90.001 -24,12.001 49.2,80.4 7.2,72 -54,14.4 -2.4,15.6 27.6,34.8 19.2,24 9.6,34.8 175.2,-28.8 9.6,15.6 25.2,3.6 12,-19.2 0,-20.4 -6,-25.2 -19.2,-31.2 0,-417.6 170.4,0 -24,501.6 -19.2,62.4 -21.6,33.6 -33.6,31.2 -33.6,14.4 -44.4,13.2 -52.8,-3.6 -49.2,-12 -31.2,-21.6 -18,-21.6 -15.6,-21.6 -15.6,-27.6 -6,-22.8" inkscape:connector-curvature="0" id="path22" style="stroke:#000000;stroke-width:8;stroke-miterlimit:4;stroke-dasharray:none;fill:none;stroke-opacity:1"/>
      <path d="m 1888.8,1220.4 56.4,-7.2 -18,22.8 -13.2,2.4 -21.6,-15.6" inkscape:connector-curvature="0" id="path24" style="stroke:#000000;stroke-width:8;stroke-miterlimit:4;stroke-dasharray:none;fill:none;stroke-opacity:1"/>
    </g>
  </g>
</svg>
