<?xml version="1.0" encoding="UTF-8"?>
<!-- Created with Inkscape (http://www.inkscape.org/) -->
<svg xmlns:dc="http://purl.org/dc/elements/1.1/" xmlns:cc="http://creativecommons.org/ns#" xmlns:rdf="http://www.w3.org/1999/02/22-rdf-syntax-ns#" xmlns:svg="http://www.w3.org/2000/svg" xmlns="http://www.w3.org/2000/svg" xmlns:inkscape="http://www.inkscape.org/namespaces/inkscape" version="1.1" width="765" height="990" id="svg2" xml:space="preserve">
  <metadata id="metadata8">
    <rdf:RDF>
      <cc:Work rdf:about="">
        <dc:format>image/svg+xml</dc:format>
        <dc:type rdf:resource="http://purl.org/dc/dcmitype/StillImage"/>
      </cc:Work>
    </rdf:RDF>
  </metadata>
  <defs id="defs6"/>
  <g transform="matrix(1.25,0,0,-1.25,0,990)" id="g10">
    <g transform="scale(0.1,0.1)" id="g12">
      <path d="m 708,1062 -69.602,6 -111.597,-6 -81.602,9.6 -25.199,-9.6 -19.199,-25.2 6,-44.402 L 438,890.398 499.199,792 694.801,558 796.801,463.199 942,326.398 1252.8,22.8008 l 31.2,0 9.6,15.5976 -12,28.8008 -133.2,303.6018 -19.2,57.597 L 1028.4,672 936,830.398 l -73.199,102 -54,72.002 -43.199,69.6 -48,63.6 -56.403,67.2 -57.597,37.2 -15.602,66 -13.199,73.2 -19.199,48 -54,12 -87.602,0 -98.398,-2.4 -48,-13.2 L 246,1419.6 84,1396.8 36,1375.2 20.3984,1352.4 18,1308 l 18,32.4 32.3984,15.6 94.8006,0 98.403,-3.6 50.398,-12 -40.801,50.4 -9.597,34.8" inkscape:connector-curvature="0" id="path14" style="stroke:#000000;stroke-width:8;stroke-miterlimit:4;stroke-dasharray:none;fill:none;stroke-opacity:1"/>
      <path d="m 366,1359.6 9.602,2.4 6,16.8 -6,15.6 -13.204,9.6 -12,-9.6 -3.597,-19.2 6,-9.6 9.597,-6" inkscape:connector-curvature="0" id="path16" style="stroke:#000000;stroke-width:8;stroke-miterlimit:4;stroke-dasharray:none;fill:none;stroke-opacity:1"/>
      <path d="m 33.6016,1328.4 126.0004,2.4 98.398,-13.2 28.801,-15.6 9.597,-31.2 2.403,-34.8 -27.602,-69.6 L 258,1080 l 16.801,-103.199 12,-49.199 34.801,-94.801 40.796,-75.602 98.403,-168 L 590.398,342 603.602,247.199 588,85.1992 571.199,69.6016 480,60 372,63.6016 366,48 l -48,-7.1992 -6,-9.6016 9.602,-12 L 594,28.8008 876,15.6016 889.199,28.8008 882,44.3984 l -44.398,0 -25.204,22.8008 -162,2.4024 -18,13.1992 18,199.1992 117.602,-60 67.199,196.801 126,-318 44.401,-56.4026 44.4,-25.1992 66,0 38.4,12 9.6,19.1992 -32.4,85.2036" inkscape:connector-curvature="0" id="path18" style="stroke:#000000;stroke-width:8;stroke-miterlimit:4;stroke-dasharray:none;fill:none;stroke-opacity:1"/>
      <path d="M 346.801,780 387.602,548.398 385.199,370.801 352.801,189.602 325.199,98.3984 306,75.6016 153.602,67.1992 138,44.3984 103.199,40.8008 90,31.1992 l 13.199,-12 116.403,9.6016 34.796,-3.6016" inkscape:connector-curvature="0" id="path20" style="stroke:#000000;stroke-width:8;stroke-miterlimit:4;stroke-dasharray:none;fill:none;stroke-opacity:1"/>
      <path d="m 369.602,63.6016 -54,-7.2032 0,0 -32.403,-6 L 264,25.1992 l 13.199,-6 19.199,19.1992 19.204,2.4024" inkscape:connector-curvature="0" id="path22" style="stroke:#000000;stroke-width:8;stroke-miterlimit:4;stroke-dasharray:none;fill:none;stroke-opacity:1"/>
      <path d="m 366,67.1992 69.602,259.1988 108,-63.597 21.597,117.597" inkscape:connector-curvature="0" id="path24" style="stroke:#000000;stroke-width:8;stroke-miterlimit:4;stroke-dasharray:none;fill:none;stroke-opacity:1"/>
      <path d="m 144,63.6016 -50.3984,-7.2032 0,0 -31.2032,-6 L 42,25.1992 l 9.6016,-6 22.7968,19.1992 25.2032,2.4024" inkscape:connector-curvature="0" id="path26" style="stroke:#000000;stroke-width:8;stroke-miterlimit:4;stroke-dasharray:none;fill:none;stroke-opacity:1"/>
      <path d="M 818.398,67.1992 879.602,60 l 27.597,-9.6016 19.199,-25.1992 -9.597,-6 -21.602,19.1992 -15.597,2.4024" inkscape:connector-curvature="0" id="path28" style="stroke:#000000;stroke-width:8;stroke-miterlimit:4;stroke-dasharray:none;fill:none;stroke-opacity:1"/>
      <path d="m 2956.8,199.199 15.6,50.403 28.8,13.199 15.6,0 42,-7.199 40.8,-2.403 34.8,-9.597 21.6,0 36,3.597 31.2,6 32.4,13.199 21.6,6 15.6,2.403 22.8,0 25.2,-2.403 38.4,-6 18,-7.199 28.8,-9.597 21.6,0 28.8,6 15.6,7.199 20.4,9.597 15.6,19.204 12,19.199 0,18 -3.6,15.597 -8.4,3.602 -19.2,-9.602 -19.2,-21.597 -19.2,-13.199 -13.2,-3.602 -12,-6 -19.2,0 -28.8,3.602 -44.4,15.597 -25.2,13.199 -31.2,0 -34.8,-3.597 -32.4,-9.602 -27.6,-13.199 -22.8,-2.398 -25.2,-9.602 -25.2,3.602 -38.4,6 -28.8,2.398 -31.2,7.199 -25.2,0 -28.8,-3.597 -21.6,-9.602 -22.8,-12 -18,-26.398 -3.6,-12 0,-9.602 -9.6,6 -7.2,26.398 -21.6,21.602 -19.2,19.199 -34.8,12 -60,0 -40.8,-12 -51.6,-7.199 -37.2,10.801 -38.4,8.398 -21.6,19.199 -34.8,3.602 -48,-7.199 -25.2,-12 -37.2,-9.602 -28.8,-9.597 -26.4,-3.602 -21.6,10.801 -25.2,8.398 -19.2,15.602 -15.6,13.199 -31.2,-9.602 15.6,-31.199 37.2,-32.398 38.4,-12 31.2,-3.602 34.8,3.602 42,12 37.2,13.199 50.4,6 38.4,-9.602 34.8,-21.597 42,-7.199 34.8,7.199 21.6,0 19.2,3.597 21.6,6 38.4,0 34.8,-6 19.2,-13.199 13.2,-57.597 94.8,0" inkscape:connector-curvature="0" id="path30" style="stroke:#000000;stroke-width:8;stroke-miterlimit:4;stroke-dasharray:none;fill:none;stroke-opacity:1"/>
      <path d="m 2641.2,303.602 6,85.199 31.2,174 57.6,178.801 85.2,186 63.6,121.198 60,120 15.6,67.2 -12,44.4 -42,46.8 -25.2,28.8 -38.4,15.6 -12,22.8 44.4,2.4 34.8,-6 27.6,-22.8 28.8,-18 26.4,-28.8 6,25.2 25.2,42 25.2,37.2 15.6,13.2 28.8,-50.4 9.6,-86.4 57.6,40.8 40.8,9.6 37.2,0 38.4,-13.2 -21.6,-15.6 -79.2,-34.8 -22.8,-15.6 -31.2,-25.2 -28.8,-72 34.8,-165.6 48,-212.4 28.8,-224.398 -10.8,-162 -21.6,-120" inkscape:connector-curvature="0" id="path32" style="stroke:#000000;stroke-width:8;stroke-miterlimit:4;stroke-dasharray:none;fill:none;stroke-opacity:1"/>
      <path d="m 3160.8,237.602 -20.4,-79.204 -6,-104.398 0,-42 -148.8,82.8008 31.2,79.1992 16.8,54 3.6,27.602" inkscape:connector-curvature="0" id="path34" style="stroke:#000000;stroke-width:8;stroke-miterlimit:4;stroke-dasharray:none;fill:none;stroke-opacity:1"/>
      <path d="m 2937.6,1147.2 165.6,-22.8" inkscape:connector-curvature="0" id="path36" style="stroke:#000000;stroke-width:8;stroke-miterlimit:4;stroke-dasharray:none;fill:none;stroke-opacity:1"/>
      <path d="M 2964,1197.6 3096,1182" inkscape:connector-curvature="0" id="path38" style="stroke:#000000;stroke-width:8;stroke-miterlimit:4;stroke-dasharray:none;fill:none;stroke-opacity:1"/>
      <path d="m 2148,1080 -748.8,0 10.8,63.6 8.4,40.8 15.6,42 22.8,31.2 19.2,28.8 25.2,34.8 27.6,25.2 36,26.4 28.8,18 40.8,19.2 40.8,13.2 28.8,6 50.4,6 38.4,0 34.8,-6 37.2,-6 42,-10.8 28.8,-8.4 37.2,-25.2 31.2,-22.8 28.8,-21.6 26.4,-32.4 24,-34.8 22.8,-34.8 15.6,-31.2 13.2,-48 9.6,-34.8 3.6,-38.4" inkscape:connector-curvature="0" id="path40" style="stroke:#000000;stroke-width:8;stroke-miterlimit:4;stroke-dasharray:none;fill:none;stroke-opacity:1"/>
      <path d="m 2016,42 -2.4,7.1992 -9.6,8.4024 -28.8,16.7968 -21.6,18 -19.2,22.8006 -13.2,21.602 -19.2,32.398 -9.6,44.403 3.6,50.398 6,48 9.6,52.801 3.6,55.199 -6,46.801 -10.8,31.199 -8.4,19.199 -13.2,15.602 -13.2,16.801 -12,12 -19.2,13.199 -13.2,9.597 -18,6 -21.6,7.204 -16.8,2.398 -21.6,0 -19.2,-2.398 -19.2,-7.204 -15.6,-9.597 -19.2,-12 L 1642.8,540 1633.2,520.801 1620,492 l -6,-25.199 -2.4,-34.801 0,-28.801 6,-34.801 6,-27.597 6,-26.403 26.4,-56.398 21.6,-32.398 25.2,-34.801 34.8,-33.602 37.2,-36 42,-31.199 54,-32.3984 48,-15.6016 27.6,-6 25.2,-6 26.4,0 15.6,3.6016 L 2016,42" inkscape:connector-curvature="0" id="path42" style="stroke:#000000;stroke-width:8;stroke-miterlimit:4;stroke-dasharray:none;fill:none;stroke-opacity:1"/>
    </g>
  </g>
</svg>
