<?xml version="1.0" encoding="UTF-8"?>
<!-- Created with Inkscape (http://www.inkscape.org/) -->
<svg xmlns:dc="http://purl.org/dc/elements/1.1/" xmlns:cc="http://creativecommons.org/ns#" xmlns:rdf="http://www.w3.org/1999/02/22-rdf-syntax-ns#" xmlns:svg="http://www.w3.org/2000/svg" xmlns="http://www.w3.org/2000/svg" xmlns:inkscape="http://www.inkscape.org/namespaces/inkscape" version="1.1" width="765" height="990" id="svg2" xml:space="preserve">
  <metadata id="metadata8">
    <rdf:RDF>
      <cc:Work rdf:about="">
        <dc:format>image/svg+xml</dc:format>
        <dc:type rdf:resource="http://purl.org/dc/dcmitype/StillImage"/>
      </cc:Work>
    </rdf:RDF>
  </metadata>
  <defs id="defs6"/>
  <g transform="matrix(1.25,0,0,-1.25,0,990)" id="g10">
    <g transform="scale(0.1,0.1)" id="g12">
      <path d="m 1374,1117.2 -72,7.2 -115.2,-7.2 -85.2,10.8 -26.4,-10.8 -20.4,-25.2 7.2,-46.8 32.4,-105.598 62.4,-102 L 1362,594 1466.4,494.398 1618.8,352.801 1941.6,36 l 32.4,0 10.8,16.8008 -13.2,30 -139.2,315.5972 -19.2,60 -105.6,254.403 -96,164.398 -75.6,105.602 -56.4,75.599 -45.6,72 -49.2,67.2 -60,68.4 -58.8,39.6 -16.8,69.6 -13.2,75.6 -19.2,49.2 -56.4,13.2 -92.4,0 -102,-2.4 -50.398,-13.2 -22.801,-7.2 -168,-22.8 -49.199,-22.8 -16.801,-24 -3.602,-45.6 20.403,32.4 33.597,16.8 98.403,0 102,-3.6 52.796,-13.2 -43.199,52.8 -9.597,37.2" inkscape:connector-curvature="0" id="path14" style="stroke:#000000;stroke-width:8;stroke-miterlimit:4;stroke-dasharray:none;fill:none;stroke-opacity:1"/>
      <path d="m 1018.8,1428 9.6,3.6 6,15.6 -6,16.8 -13.2,10.8 -13.2,-10.8 -3.602,-19.2 7.202,-10.8 9.6,-6" inkscape:connector-curvature="0" id="path16" style="stroke:#000000;stroke-width:8;stroke-miterlimit:4;stroke-dasharray:none;fill:none;stroke-opacity:1"/>
      <path d="m 672,1394.4 132,3.6 102,-13.2 30,-15.6 9.602,-33.6 3.597,-36 -30,-72 -13.199,-90 16.801,-108 13.199,-50.401 36,-98.398 43.2,-79.199 102,-175.204 135.6,-256.796 13.2,-99.602 -16.8,-168 -16.8,-15.6016 -94.8,-10.7968 -112.8,3.5976 -6,-16.8008 -49.198,-6 L 962.398,45.6016 972,32.3984 1256.4,43.1992 1549.2,30 l 13.2,13.1992 -6,15.6016 -46.8,0 -26.4,24 -168,3.5976 -20.4,13.2032 20.4,206.3984 121.2,-62.398 69.6,205.199 133.2,-330 45.6,-60.0002 45.6,-26.4024 69.6,0 39.6,13.2032 9.6,20.3984 -32.4,88.801" inkscape:connector-curvature="0" id="path18" style="stroke:#000000;stroke-width:8;stroke-miterlimit:4;stroke-dasharray:none;fill:none;stroke-opacity:1"/>
      <path d="M 998.398,824.398 1041.6,583.199 1038,398.398 1005.6,211.199 975.602,115.199 956.398,92.3984 798,82.8008 l -16.801,-24 -36,-2.4024 L 732,45.6016 745.199,32.3984 866.398,43.1992 903.602,39.6016" inkscape:connector-curvature="0" id="path20" style="stroke:#000000;stroke-width:8;stroke-miterlimit:4;stroke-dasharray:none;fill:none;stroke-opacity:1"/>
      <path d="m 1021.2,79.1992 -55.2,-6 0,0 L 933.602,66 913.199,39.6016 926.398,32.3984 945.602,52.8008 966,56.3984" inkscape:connector-curvature="0" id="path22" style="stroke:#000000;stroke-width:8;stroke-miterlimit:4;stroke-dasharray:none;fill:none;stroke-opacity:1"/>
      <path d="m 1018.8,82.8008 72,270.0002 112.8,-66 22.8,122.398" inkscape:connector-curvature="0" id="path24" style="stroke:#000000;stroke-width:8;stroke-miterlimit:4;stroke-dasharray:none;fill:none;stroke-opacity:1"/>
      <path d="m 787.199,79.1992 -51.597,-6 0,0 L 702,66 681.602,39.6016 l 10.796,-7.2032 22.801,20.4024 26.403,3.5976" inkscape:connector-curvature="0" id="path26" style="stroke:#000000;stroke-width:8;stroke-miterlimit:4;stroke-dasharray:none;fill:none;stroke-opacity:1"/>
      <path d="m 1490.4,82.8008 62.4,-7.1992 30,-9.6016 19.2,-26.3984 -9.6,-7.2032 -22.8,20.4024 -16.8,3.5976" inkscape:connector-curvature="0" id="path28" style="stroke:#000000;stroke-width:8;stroke-miterlimit:4;stroke-dasharray:none;fill:none;stroke-opacity:1"/>
      <path d="m 2462.4,1137.6 -777.6,0 9.6,66 10.8,43.2 15.6,43.2 22.8,32.4 20.4,30 26.4,36 30,26.4 36,26.4 30,19.2 43.2,20.4 42,13.2 30,6 52.8,7.2 39.6,0 36,-7.2 39.6,-6 43.2,-10.8 28.8,-9.6 40.8,-26.4 32.4,-22.8 30,-22.8 25.2,-33.6 27.6,-36 22.8,-36 16.8,-33.6 12,-49.2 10.8,-36 2.4,-39.6" inkscape:connector-curvature="0" id="path30" style="stroke:#000000;stroke-width:8;stroke-miterlimit:4;stroke-dasharray:none;fill:none;stroke-opacity:1"/>
      <path d="m 2814,616.801 16.8,-43.199 9.6,-45.602 -2.4,-37.199 -10.8,-32.403 -6,-30 6,-45.597 13.2,-22.801 20.4,-10.801 20.4,-19.199 51.6,-24 46.8,-19.199 43.2,-13.199 -3.6,-39.602 3.6,-52.801 9.6,-39.597 6,-33.602 -2.4,-19.1992 0,-6 15.6,-13.1992 30,-13.2032 36,-20.3984 19.2,3.6016 0,6 -15.6,13.1992 -16.8,16.8008 -19.2,13.1992 L 3072,108 l 0,24 2.4,36 7.2,43.199 0,52.801 -3.6,28.801 -6,33.597 -20.4,13.204 -19.2,9.597 -33.6,16.801 -36,20.398 -36,19.204" inkscape:connector-curvature="0" id="path32" style="stroke:#000000;stroke-width:8;stroke-miterlimit:4;stroke-dasharray:none;fill:none;stroke-opacity:1"/>
      <path d="m 3078,273.602 9.6,-36 10.8,-32.403 6,-24 13.2,-22.801 0,-13.199 3.6,-19.199 -3.6,-20.398 13.2,-16.8012 26.4,-9.6016 30,-16.8008 26.4,-16.7968 15.6,10.7968 -6,9.6016 -32.4,22.8008 -24,24.0002 -13.2,15.597 -2.4,33.602 -3.6,62.398 -3.6,56.403 -9.6,52.801 -10.8,22.796 -36,19.204 -22.8,10.796 -32.4,9.602 -26.4,9.602 -30,13.199" inkscape:connector-curvature="0" id="path34" style="stroke:#000000;stroke-width:8;stroke-miterlimit:4;stroke-dasharray:none;fill:none;stroke-opacity:1"/>
      <path d="m 2968.8,386.398 7.2,36 6,26.403 0,32.398 -2.4,36 -3.6,33.602 0,43.199 6,28.801 3.6,13.199 13.2,10.801 46.8,6 42,0 36,3.597 33.6,2.403 26.4,7.199 32.4,6 3.6,16.801 -13.2,24 -36,58.801 -13.2,16.796 -13.2,19.204 -15.6,24 0,42 -13.2,30 -16.8,20.398 -13.2,-4.801 9.6,-22.801 6,-15.597 3.6,-30 -9.6,-7.199 -20.4,20.398 -9.6,-3.602 7.2,-13.199 13.2,-19.199 13.2,-7.199 2.4,-9.602 10.8,-26.398 16.8,-33.602 6,-12 19.2,-37.199 -94.8,0 -56.4,7.199 -30,6 -28.8,7.199 -24,-3.597 -9.6,-3.602 -16.8,20.403 10.8,15.597 22.8,20.403 6,19.199 -6,20.398 -7.2,32.403 7.2,10.796 -26.4,9.602 -19.2,3.602 -20.4,15.597 -7.2,7.199 -19.2,9.602 -30,10.801 -28.8,-3.602 L 2748,894 l -15.6,-16.801 -7.2,-22.801 -9.6,-10.796 3.6,-12 15.6,-40.801 20.4,-19.199 15.6,-13.204 10.8,-7.199 43.2,-28.801" inkscape:connector-curvature="0" id="path36" style="stroke:#000000;stroke-width:8;stroke-miterlimit:4;stroke-dasharray:none;fill:none;stroke-opacity:1"/>
      <path d="m 2811.6,735.602 15.6,13.199 0,22.801 -19.2,19.199 -7.2,33.597 10.8,19.204 28.8,26.398 16.8,16.801" inkscape:connector-curvature="0" id="path38" style="stroke:#000000;stroke-width:8;stroke-miterlimit:4;stroke-dasharray:none;fill:none;stroke-opacity:1"/>
      <path d="m 2868,847.199 -20.4,-22.801 3.6,16.801 2.4,13.199 14.4,-7.199" inkscape:connector-curvature="0" id="path40" style="stroke:#000000;stroke-width:8;stroke-miterlimit:4;stroke-dasharray:none;fill:none;stroke-opacity:1"/>
      <path d="m 2824.8,722.398 2.4,-13.199 -28.8,-16.801 -22.8,-20.398 -30,-45.602 -43.2,-60 -26.4,-45.597 -6,-22.801 15.6,-62.398 13.2,-43.204 13.2,-32.398 13.2,-24 16.8,-32.398 0,-26.403 6,-16.801 14.4,-22.796 22.8,-16.801 13.2,-13.199 2.4,6 -12,20.398 -13.2,13.199 -13.2,26.403 2.4,13.199 6,6 14.4,-9.602 19.2,-15.597 9.6,9.597 -13.2,19.199 -30,22.801 -15.6,54 -13.2,51.602 -7.2,33.597 -9.6,30 -3.6,6 24,30 30,39.602 19.2,26.398 16.8,26.403" inkscape:connector-curvature="0" id="path42" style="stroke:#000000;stroke-width:8;stroke-miterlimit:4;stroke-dasharray:none;fill:none;stroke-opacity:1"/>
      <path d="m 3270,798 -7.2,-58.801 -3.6,-62.398" inkscape:connector-curvature="0" id="path44" style="stroke:#000000;stroke-width:8;stroke-miterlimit:4;stroke-dasharray:none;fill:none;stroke-opacity:1"/>
      <path d="m 3256.8,613.199 6,-98.398 13.2,-56.403 7.2,-66 2.4,-58.796 0,-46.801 -6,-30 -7.2,-32.403 -2.4,-16.796 -16.8,-30 -19.2,-19.204 -14.4,-9.597" inkscape:connector-curvature="0" id="path46" style="stroke:#000000;stroke-width:8;stroke-miterlimit:4;stroke-dasharray:none;fill:none;stroke-opacity:1"/>
      <path d="m 2623.2,218.398 22.8,-18 20.4,-22.796 19.2,-26.403 10.8,-19.199 79.2,22.801 62.4,13.199 68.4,7.199 69.6,0 46.8,-7.199" inkscape:connector-curvature="0" id="path48" style="stroke:#000000;stroke-width:8;stroke-miterlimit:4;stroke-dasharray:none;fill:none;stroke-opacity:1"/>
      <path d="m 3078,158.398 33.6,-7.199" inkscape:connector-curvature="0" id="path50" style="stroke:#000000;stroke-width:8;stroke-miterlimit:4;stroke-dasharray:none;fill:none;stroke-opacity:1"/>
      <path d="m 3157.2,145.199 26.4,-3.597 39.6,7.199 19.2,9.597 14.4,0 15.6,-9.597 7.2,-20.403 3.6,-20.398 13.2,-19.1992 19.2,-19.1992 26.4,-13.2032 16.8,-7.1992 19.2,-3.5976 30,0 3.6,-22.8008 -33.6,-2.4024 -22.8,0 -33.6,9.6016 -38.4,9.6016 -26.4,13.1992 -40.8,30 -15.6,0" inkscape:connector-curvature="0" id="path52" style="stroke:#000000;stroke-width:8;stroke-miterlimit:4;stroke-dasharray:none;fill:none;stroke-opacity:1"/>
      <path d="m 3130.8,82.8008 -32.4,0" inkscape:connector-curvature="0" id="path54" style="stroke:#000000;stroke-width:8;stroke-miterlimit:4;stroke-dasharray:none;fill:none;stroke-opacity:1"/>
      <path d="m 3038.4,72 -43.2,-6 -15.6,0 -49.2,-9.6016 -60,-10.7968 -79.2,-9.6016 -75.6,-6 -52.8,-7.1992 -42,0 -33.6,16.8008 -13.2,9.5976 -16.8,16.8008 -6,16.8008 -7.2,9.5976 0,39.6016 9.6,26.398 10.8,13.204 28.8,33.597 49.2,28.801 37.2,20.398 19.2,9.602 43.2,19.199" inkscape:connector-curvature="0" id="path56" style="stroke:#000000;stroke-width:8;stroke-miterlimit:4;stroke-dasharray:none;fill:none;stroke-opacity:1"/>
      <path d="m 2798.4,306 75.6,30" inkscape:connector-curvature="0" id="path58" style="stroke:#000000;stroke-width:8;stroke-miterlimit:4;stroke-dasharray:none;fill:none;stroke-opacity:1"/>
      <path d="m 3058.8,386.398 42,9.602 66,9.602 37.2,3.597 38.4,2.403 40.8,0" inkscape:connector-curvature="0" id="path60" style="stroke:#000000;stroke-width:8;stroke-miterlimit:4;stroke-dasharray:none;fill:none;stroke-opacity:1"/>
      <path d="m 2982,411.602 10.8,54 19.2,78 7.2,103.199" inkscape:connector-curvature="0" id="path62" style="stroke:#000000;stroke-width:8;stroke-miterlimit:4;stroke-dasharray:none;fill:none;stroke-opacity:1"/>
      <path d="m 3025.2,709.199 -9.6,39.602 -22.8,15.597 -26.4,20.403 -26.4,30 0,26.398 13.2,22.801 22.8,22.801 19.2,30 37.2,49.199 9.6,45.6" inkscape:connector-curvature="0" id="path64" style="stroke:#000000;stroke-width:8;stroke-miterlimit:4;stroke-dasharray:none;fill:none;stroke-opacity:1"/>
      <path d="m 3081.6,1105.2 3.6,52.8 -10.8,26.4 -58.8,2.4 -26.4,3.6 -7.2,13.2 -9.6,32.4 -28.8,40.8 0,8.4 22.8,24 13.2,19.2 9.6,24 9.6,15.6 3.6,26.4 3.6,16.8 9.6,20.4 7.2,15.6 28.8,22.8 13.2,10.8 20.4,9.6 26.4,9.6 32.4,3.6 33.6,0 32.4,-7.2 36,-15.6 30,-26.4 30,-36 13.2,-33.6 9.6,-26.4 6,-30 24,-526.798 -198,0 -7.2,464.398 20.4,19.2 16.8,14.4 9.6,19.2 3.6,22.8 -7.2,16.8 -16.8,9.6 -184.8,0" inkscape:connector-curvature="0" id="path66" style="stroke:#000000;stroke-width:8;stroke-miterlimit:4;stroke-dasharray:none;fill:none;stroke-opacity:1"/>
      <path d="m 3028.8,1302 43.2,-2.4 -16.8,19.2 -16.8,3.6 -13.2,-13.2" inkscape:connector-curvature="0" id="path68" style="stroke:#000000;stroke-width:8;stroke-miterlimit:4;stroke-dasharray:none;fill:none;stroke-opacity:1"/>
      <path d="m 3355.2,867.602 28.8,-56.403 27.6,-43.199 22.8,-36 -32.4,-9.602 -46.8,-16.796 -75.6,-22.801 -52.8,-24 -43.2,-12 -55.2,6 -46.8,-13.199 13.2,-13.204 28.8,3.602 24,-3.602 -3.6,-16.796 -52.8,-19.204 -30,-3.597 -32.4,-3.602 3.6,-12 36,-4.801 39.6,7.204 26.4,3.597 52.8,22.801 32.4,7.199 43.2,9.602 69.6,13.199 58.8,13.199 49.2,9.602 63.6,16.801 52.8,26.398 2.4,16.801 3.6,15.597 -9.6,22.801 -56.4,90 -30,42 -62.4,79.199 -32.4,49.202 -30,43.2" inkscape:connector-curvature="0" id="path70" style="stroke:#000000;stroke-width:8;stroke-miterlimit:4;stroke-dasharray:none;fill:none;stroke-opacity:1"/>
      <path d="m 3081.6,1101.6 -26.4,-7.2 -26.4,-6 -36,-20.4 -39.6,-26.4 -56.4,-41.998 -66,-39.602 -62.4,-43.199 -43.2,-26.403 -28.8,-20.398 -30,-22.801 -24,-72 -15.6,-82.801 -16.8,-88.796 -9.6,-75.602 -7.2,-49.199 -2.4,-30 -26.4,-60 0,-42 2.4,-33.602 13.2,-20.398 7.2,-15.602 19.2,6 -13.2,36 0,30 7.2,26.403 6,10.796 22.8,0 7.2,-37.199 16.8,3.602 0,43.199 -10.8,32.398 14.4,50.403 13.2,51.597 15.6,50.403 16.8,49.199 13.2,46.801 13.2,36 9.6,32.398 24,19.199" inkscape:connector-curvature="0" id="path72" style="stroke:#000000;stroke-width:8;stroke-miterlimit:4;stroke-dasharray:none;fill:none;stroke-opacity:1"/>
      <path d="m 2910,867.602 82.8,45.597" inkscape:connector-curvature="0" id="path74" style="stroke:#000000;stroke-width:8;stroke-miterlimit:4;stroke-dasharray:none;fill:none;stroke-opacity:1"/>
      <path d="m 794.398,338.398 -777.5972,0 9.5976,66 9.6016,43.204 16.8008,42 22.8008,33.597 L 96,552 l 26.398,37.199 30,26.403 36,26.398 28.801,19.199 43.199,20.403 42,13.199 30,6 52.801,7.199 39.602,0 37.199,-7.199 38.398,-6 43.204,-10.801 30,-9.602 39.597,-26.398 33.602,-22.801 28.801,-22.801 26.398,-33.597 26.398,-36 24,-36 L 768,463.199 781.199,414 l 9.602,-36 3.597,-39.602" inkscape:connector-curvature="0" id="path76" style="stroke:#000000;stroke-width:8;stroke-miterlimit:4;stroke-dasharray:none;fill:none;stroke-opacity:1"/>
      <path d="m 4461.6,1128 -778.8,0 10.8,64.8 9.6,43.2 15.6,43.2 24,33.6 19.2,28.8 26.4,36 30,26.4 36,27.6 30,19.2 43.2,19.2 42,13.2 30,7.2 52.8,6 39.6,0 36,-6 39.6,-7.2 43.2,-9.6 28.8,-9.6 40.8,-26.4 32.4,-22.8 30,-24 26.4,-32.4 26.4,-36 22.8,-37.2 16.8,-32.4 13.2,-49.2 9.6,-36 3.6,-39.6" inkscape:connector-curvature="0" id="path78" style="stroke:#000000;stroke-width:8;stroke-miterlimit:4;stroke-dasharray:none;fill:none;stroke-opacity:1"/>
      <path d="m 3836.4,651.602 -16.8,-19.204 -9.6,-27.597 -7.2,-26.403 0,-62.398 3.6,-36 6,-39.602 7.2,-30 9.6,-36 16.8,-45.597 16.8,-46.801 42,-72 26.4,-33.602 33.6,-43.199 39.6,-32.398 36,-26.4026 32.4,-22.7968 33.6,-13.2032 33.6,-10.7968 32.4,-6 30,-7.2032 58.8,0 26.4,10.8008 26.4,9.6016 26.4,13.1992 26.4,13.1992 22.8,20.4024 16.8,19.1994 16.8,19.199 9.6,26.398 16.8,30 2.4,22.801 7.2,33.602 -3.6,28.801 -3.6,33.597 -9.6,30 -13.2,32.403 -15.6,33.597 -24,36 -26.4,32.403 -26.4,30 -28.8,30 -30,26.398 -37.2,22.801 -36,26.398 -49.2,26.403 -36,19.199 -43.2,14.398 -45.6,13.199 -39.6,9.602 -36,3.602 -26.4,0 -30,-3.602 -16.8,-3.602 -19.2,-3.597 -26.4,-19.199" inkscape:connector-curvature="0" id="path80" style="stroke:#000000;stroke-width:8;stroke-miterlimit:4;stroke-dasharray:none;fill:none;stroke-opacity:1"/>
    </g>
  </g>
</svg>
