<?xml version="1.0" encoding="UTF-8"?>
<!-- Created with Inkscape (http://www.inkscape.org/) -->
<svg xmlns:dc="http://purl.org/dc/elements/1.1/" xmlns:cc="http://creativecommons.org/ns#" xmlns:rdf="http://www.w3.org/1999/02/22-rdf-syntax-ns#" xmlns:svg="http://www.w3.org/2000/svg" xmlns="http://www.w3.org/2000/svg" xmlns:inkscape="http://www.inkscape.org/namespaces/inkscape" version="1.1" width="765" height="990" id="svg2" xml:space="preserve">
  <metadata id="metadata8">
    <rdf:RDF>
      <cc:Work rdf:about="">
        <dc:format>image/svg+xml</dc:format>
        <dc:type rdf:resource="http://purl.org/dc/dcmitype/StillImage"/>
      </cc:Work>
    </rdf:RDF>
  </metadata>
  <defs id="defs6"/>
  <g transform="matrix(1.25,0,0,-1.25,0,990)" id="g10">
    <g transform="scale(0.1,0.1)" id="g12">
      <path d="m 525.602,1090.8 -38.403,-40.8 -12,-51.602 9.602,-50.398 21.597,-38.398 61.204,-58.801 105.597,-56.403 181.199,-67.199 218.402,-45.597 217.2,-25.204 69.6,-6 45.6,-3.597 22.8,6 12,13.199 0,15.602 -15.6,13.199 -86.4,15.597 -54,26.403 -32.4,21.597 -76.8,64.801 -115.2,105.602 -115.202,88.799 -105.597,57.6 -102,42 -76.801,21.6 -67.199,3.6 -57.602,-12 -44.398,-22.8 -31.199,-19.2 -16.801,-15.6 -22.801,-3.6 -25.199,6 -3.602,22.8 124.801,102 26.398,28.8 15.602,36 2.398,31.2 -2.398,28.8" inkscape:connector-curvature="0" id="path14" style="stroke:#000000;stroke-width:8;stroke-miterlimit:4;stroke-dasharray:none;fill:none;stroke-opacity:1"/>
      <path d="M 529.199,1347.6 660,1286.4 798,1236 l 121.199,-26.4 128.401,-9.6 94.8,-3.6 70.8,10.8 -99.6,15.6 -111.6,9.6 -124.801,19.2 -88.801,25.2 -109.199,38.4 -82.801,34.8 -51.597,36 172.801,-67.2 109.199,-19.2 57.597,-9.6 121.202,-9.6 111.6,6 67.2,7.2 54,2.4 -117.6,9.6 -102,9.6 -99.601,3.6 -86.398,12 -105.602,22.8 -96,28.8 -63.597,28.8 -44.403,28.8 -36,13.2 -32.398,2.4 -69.602,-8.4 -54,-20.4 -22.801,-15.6 -13.199,-21.6 -2.398,-7.2 0,-25.2 15.597,-26.4 19.204,-6 19.199,-6 36,-9.6 37.199,0 22.801,9.6 19.199,2.4 9.602,-15.6 3.597,-28.8 -36,-40.8 -56.398,-42 -55.199,-51.6 -25.204,-34.8 -19.199,-28.8 -9.597,-51.6 6,-28.802 38.398,-57.597 99.602,-108 60,-54 70.796,-51.602 102,-45.597 61.204,-88.801 63.597,-73.199 42,-45.602 12,-28.801 19.199,-207.597 0,-134.403 -6,-21.5974 L 819.602,74.3984 682.801,55.1992 673.199,51.6016 654,48 l -9.602,-12 0,-19.1992 19.204,9.5976 21.597,-6" inkscape:connector-curvature="0" id="path16" style="stroke:#000000;stroke-width:8;stroke-miterlimit:4;stroke-dasharray:none;fill:none;stroke-opacity:1"/>
      <path d="M 778.801,55.1992 698.398,42 685.199,32.3984 688.801,16.8008 714,30 733.199,16.8008 861.602,32.3984 960,16.8008 964.801,32.3984 957.602,48 l -26.403,7.1992 -27.597,9.6016 -9.602,3.5976 -9.602,19.2032 -3.597,328.7964 6,38.403 0,13.199 -21.602,42 -22.801,37.199 L 769.199,666" inkscape:connector-curvature="0" id="path18" style="stroke:#000000;stroke-width:8;stroke-miterlimit:4;stroke-dasharray:none;fill:none;stroke-opacity:1"/>
      <path d="M 798,631.199 913.199,618 l 94.801,3.602 122.4,12 60,-54 74.4,-67.204 34.8,-2.398 34.8,9.602 38.4,31.199 7.2,25.199 -76.8,80.398" inkscape:connector-curvature="0" id="path20" style="stroke:#000000;stroke-width:8;stroke-miterlimit:4;stroke-dasharray:none;fill:none;stroke-opacity:1"/>
      <path d="M 292.801,1386 14.3984,1216.8 333.602,1321.2" inkscape:connector-curvature="0" id="path22" style="stroke:#000000;stroke-width:8;stroke-miterlimit:4;stroke-dasharray:none;fill:none;stroke-opacity:1"/>
      <path d="M 295.199,1341.6 14.3984,1216.8" inkscape:connector-curvature="0" id="path24" style="stroke:#000000;stroke-width:8;stroke-miterlimit:4;stroke-dasharray:none;fill:none;stroke-opacity:1"/>
      <path d="m 356.398,1392 -15.597,-9.6 8.398,-15.6 16.801,6 -6,13.2" inkscape:connector-curvature="0" id="path26" style="stroke:#000000;stroke-width:8;stroke-miterlimit:4;stroke-dasharray:none;fill:none;stroke-opacity:1"/>
      <path d="m 970.801,45.6016 25.199,-6 12,-9.6016 3.6,-7.1992 -15.6,-6 -22.801,3.5976" inkscape:connector-curvature="0" id="path28" style="stroke:#000000;stroke-width:8;stroke-miterlimit:4;stroke-dasharray:none;fill:none;stroke-opacity:1"/>
      <path d="M 490.801,765.602 558,637.199 634.801,522 l 6,-28.801 L 433.199,118.801 423.602,103.199 414,87.6016 l -22.801,-6 L 314.398,68.3984 264,58.8008 244.801,48 231.602,45.6016 212.398,42 l -6,-6 -6,-15.6016 19.204,9.6016 21.597,-9.6016" inkscape:connector-curvature="0" id="path30" style="stroke:#000000;stroke-width:8;stroke-miterlimit:4;stroke-dasharray:none;fill:none;stroke-opacity:1"/>
      <path d="M 277.199,39.6016 264,39.6016 248.398,36 l -7.199,-13.1992 7.199,-2.4024 18,6" inkscape:connector-curvature="0" id="path32" style="stroke:#000000;stroke-width:8;stroke-miterlimit:4;stroke-dasharray:none;fill:none;stroke-opacity:1"/>
      <path d="M 279.602,42 302.398,48 354,51.6016" inkscape:connector-curvature="0" id="path34" style="stroke:#000000;stroke-width:8;stroke-miterlimit:4;stroke-dasharray:none;fill:none;stroke-opacity:1"/>
      <path d="M 270,26.3984 295.199,16.8008 414,30 l 19.199,2.3984 96,-15.5976 2.403,15.5976 L 529.199,48 500.398,55.1992 462,68.3984" inkscape:connector-curvature="0" id="path36" style="stroke:#000000;stroke-width:8;stroke-miterlimit:4;stroke-dasharray:none;fill:none;stroke-opacity:1"/>
      <path d="M 459.602,70.8008 454.801,87.6016 654,416.398 l 48,86.403 0,28.801 -36,121.199" inkscape:connector-curvature="0" id="path38" style="stroke:#000000;stroke-width:8;stroke-miterlimit:4;stroke-dasharray:none;fill:none;stroke-opacity:1"/>
      <path d="m 538.801,45.6016 21.597,-6 13.204,-9.6016 3.597,-7.1992 -16.801,-6 -21.597,3.5976" inkscape:connector-curvature="0" id="path40" style="stroke:#000000;stroke-width:8;stroke-miterlimit:4;stroke-dasharray:none;fill:none;stroke-opacity:1"/>
      <path d="M 1868.4,853.199 2221.2,1192.8" inkscape:connector-curvature="0" id="path42" style="stroke:#000000;stroke-width:8;stroke-miterlimit:4;stroke-dasharray:none;fill:none;stroke-opacity:1"/>
      <path d="M 1740,902.398 2175.6,1317.6" inkscape:connector-curvature="0" id="path44" style="stroke:#000000;stroke-width:8;stroke-miterlimit:4;stroke-dasharray:none;fill:none;stroke-opacity:1"/>
      <path d="M 1656,992.398 2091.6,1407.6" inkscape:connector-curvature="0" id="path46" style="stroke:#000000;stroke-width:8;stroke-miterlimit:4;stroke-dasharray:none;fill:none;stroke-opacity:1"/>
      <path d="m 1612.8,1119.6 348,331.2" inkscape:connector-curvature="0" id="path48" style="stroke:#000000;stroke-width:8;stroke-miterlimit:4;stroke-dasharray:none;fill:none;stroke-opacity:1"/>
      <path d="m 2044.8,1432.8 -30,7.2 -30,10.8 -32.4,6 -32.4,0 -34.8,-3.6 -30,-2.4 -33.6,-10.8 -30,-10.8 -28.8,-13.2 -27.6,-19.2 -21.6,-19.2 -21.6,-21.6 -16.8,-19.2 -15.6,-24 -19.2,-34.8 -8.4,-27.6 -8.4,-30 -4.8,-30 -6,-36 0,-28.8 6,-36 8.4,-30 7.2,-27.6 13.2,-30 8.4,-15.602 10.8,-14.398 27.6,-30 27.6,-26.398 24,-19.204 30,-16.796 32.4,-15.602 32.4,-8.398 27.6,-8.403 32.4,0 32.4,-2.398 38.4,4.801 27.6,6 32.4,14.398 32.4,15.602 21.6,10.796 24,21.602 25.2,21.602 24,25.199 19.2,30 19.2,27.599 13.2,26.4 8.4,32.4 2.4,30 6,36 -2.4,30 -3.6,34.8 -7.2,30 -12,27.6 -13.2,34.8 -19.2,27.6 -19.2,21.6 -21.6,26.4 -26.4,19.2 -27.6,19.2 -30,14.4" inkscape:connector-curvature="0" id="path50" style="stroke:#000000;stroke-width:8;stroke-miterlimit:4;stroke-dasharray:none;fill:none;stroke-opacity:1"/>
      <path d="m 1904.4,637.199 -32.4,-16.801 -24,-30 -8.4,-24 -6,-24 8.4,-38.398 19.2,-25.199 19.2,-15.602 32.4,-10.801 24,-8.398 30,0 32.4,13.199 27.6,13.199 16.8,20.403 18,26.398 14.4,33.602 7.2,26.398 3.6,27.602 -3.6,18 -4.8,33.597 -13.2,26.403 -21.6,27.597 -22.8,19.204 -18,8.398 -19.2,7.199 -27.6,3.602 -21.6,2.398 -27.6,0 -32.4,-2.398 -34.8,-10.801 -30,-16.801 -19.2,-15.597 -21.6,-19.204 -16.8,-19.199 -15.6,-30 -16.8,-30 -6,-27.597 -4.8,-37.204 -2.4,-38.398 2.4,-30 2.4,-43.199 16.8,-43.199 24,-49.204 44.4,-57.597 67.2,-66 98.4,-78 211.2,-120.0002" inkscape:connector-curvature="0" id="path52" style="stroke:#000000;stroke-width:8;stroke-miterlimit:4;stroke-dasharray:none;fill:none;stroke-opacity:1"/>
      <path d="m 3661.2,468 0,-430.8008 99.6,0 0,430.8008 -99.6,0" inkscape:connector-curvature="0" id="path54" style="stroke:#000000;stroke-width:8;stroke-miterlimit:4;stroke-dasharray:none;fill:none;stroke-opacity:1"/>
      <path d="m 4028.4,1476 0,-432 96,0 0,432 -96,0" inkscape:connector-curvature="0" id="path56" style="stroke:#000000;stroke-width:8;stroke-miterlimit:4;stroke-dasharray:none;fill:none;stroke-opacity:1"/>
      <path d="m 4393.2,468 0,-430.8008 99.6,0 0,430.8008 -97.2,0" inkscape:connector-curvature="0" id="path58" style="stroke:#000000;stroke-width:8;stroke-miterlimit:4;stroke-dasharray:none;fill:none;stroke-opacity:1"/>
      <path d="m 2938.8,1054.8 -44.4,-6 -60,-8.4 -56.4,-15.6 -36,-16.8 -37.2,-19.199 -36,-30 -38.4,-38.403 -27.6,-43.199 -20.4,-51.597 -12,-57.602 -4.8,-64.801 4.8,-49.199 16.8,-56.398 25.2,-57.602 32.4,-49.199 43.2,-43.199 38.4,-22.801 38.4,-18 40.8,-12 37.2,-7.199 90,-6 57.6,3.597 56.4,7.199 50.4,14.403 32.4,13.199 30,15.602 24,16.796 27.6,27.602 24,30 24,37.199 12,25.199 7.2,25.204 8.4,32.398 8.4,27.602 4.8,48 -2.4,40.796 -6,38.403 -15.6,51.597 -19.2,49.204 -27.6,34.796 -43.2,44.403 -32.4,24 -36,19.199 -62.4,24 -56.4,16.8 -57.6,6" inkscape:connector-curvature="0" id="path60" style="stroke:#000000;stroke-width:8;stroke-miterlimit:4;stroke-dasharray:none;fill:none;stroke-opacity:1"/>
      <path d="m 2761.2,1018.8 -30,3.6 -13.2,9.6 -8.4,14.4 -4.8,19.2 4.8,26.4 8.4,16.8 21.6,8.4 386.4,0 16.8,-10.8 8.4,-10.8 8.4,-25.2 0,-13.2 -6,-13.2 -8.4,-14.4 -15.6,-13.2 -32.4,0" inkscape:connector-curvature="0" id="path62" style="stroke:#000000;stroke-width:8;stroke-miterlimit:4;stroke-dasharray:none;fill:none;stroke-opacity:1"/>
      <path d="m 2438.4,864 979.2,0" inkscape:connector-curvature="0" id="path64" style="stroke:#000000;stroke-width:8;stroke-miterlimit:4;stroke-dasharray:none;fill:none;stroke-opacity:1"/>
      <path d="m 3417.6,585.602 -979.2,0" inkscape:connector-curvature="0" id="path66" style="stroke:#000000;stroke-width:8;stroke-miterlimit:4;stroke-dasharray:none;fill:none;stroke-opacity:1"/>
    </g>
  </g>
</svg>
