<?xml version="1.0" encoding="UTF-8"?>
<!-- Created with Inkscape (http://www.inkscape.org/) -->
<svg xmlns:dc="http://purl.org/dc/elements/1.1/" xmlns:cc="http://creativecommons.org/ns#" xmlns:rdf="http://www.w3.org/1999/02/22-rdf-syntax-ns#" xmlns:svg="http://www.w3.org/2000/svg" xmlns="http://www.w3.org/2000/svg" xmlns:inkscape="http://www.inkscape.org/namespaces/inkscape" version="1.1" width="765" height="990" id="svg2" xml:space="preserve">
  <metadata id="metadata8">
    <rdf:RDF>
      <cc:Work rdf:about="">
        <dc:format>image/svg+xml</dc:format>
        <dc:type rdf:resource="http://purl.org/dc/dcmitype/StillImage"/>
      </cc:Work>
    </rdf:RDF>
  </metadata>
  <defs id="defs6"/>
  <g transform="matrix(1.25,0,0,-1.25,0,990)" id="g10">
    <g transform="scale(0.1,0.1)" id="g12">
      <path d="m 2245.2,67.1992 30,-20.3984 24,-7.1992 10.8,0 12,12 15.6,15.5976 76.8,134.4028 0,19.199 -3.6,8.398 -8.4,10.801 -26.4,15.602 -632.4,297.597 -15.6,3.602 -19.2,3.597 -19.2,-7.199 -19.2,-12 -8.4,-10.801 -7.2,-24 0,-15.597 7.2,-19.199 12,-15.602 19.2,-19.199 552,-369.6018" inkscape:connector-curvature="0" id="path14" style="stroke:#000000;stroke-width:8;stroke-miterlimit:4;stroke-dasharray:none;fill:none;stroke-opacity:1"/>
      <path d="M 1964.4,781.199 2392.8,1194" inkscape:connector-curvature="0" id="path16" style="stroke:#000000;stroke-width:8;stroke-miterlimit:4;stroke-dasharray:none;fill:none;stroke-opacity:1"/>
      <path d="M 1809.6,841.199 2336.4,1345.2" inkscape:connector-curvature="0" id="path18" style="stroke:#000000;stroke-width:8;stroke-miterlimit:4;stroke-dasharray:none;fill:none;stroke-opacity:1"/>
      <path d="M 1707.6,949.199 2234.4,1454.4" inkscape:connector-curvature="0" id="path20" style="stroke:#000000;stroke-width:8;stroke-miterlimit:4;stroke-dasharray:none;fill:none;stroke-opacity:1"/>
      <path d="m 1654.8,1105.2 421.2,402" inkscape:connector-curvature="0" id="path22" style="stroke:#000000;stroke-width:8;stroke-miterlimit:4;stroke-dasharray:none;fill:none;stroke-opacity:1"/>
      <path d="m 2179.2,1484.4 -36,9.6 -37.2,13.2 -39.6,6 -39.6,0 -43.2,-2.4 -36,-3.6 -39.6,-13.2 -36,-13.2 -36,-16.8 -32.4,-22.8 -27.6,-22.8 -26.4,-26.4 -19.2,-22.8 -19.2,-30 -24,-43.2 -9.6,-32.4 -9.6,-36 -7.2,-37.2 -6,-43.2 0,-36 6,-43.2 9.6,-36 10.8,-32.398 16.8,-37.204 9.6,-19.199 13.2,-16.801 32.4,-36 32.4,-33.597 30,-22.801 37.2,-19.199 38.4,-20.403 40.8,-9.597 32.4,-9.602 39.6,0 39.6,-3.597 45.6,7.199 33.6,6 39.6,16.801 39.6,19.199 26.4,13.199 28.8,27.602 30,25.199 30,30 22.8,36 22.8,33.597 16.8,32.402 10.8,39.6 2.4,37.2 6,42 -2.4,36 -3.6,43.2 -9.6,36 -13.2,33.6 -16.8,42 -22.8,33.6 -22.8,26.4 -27.6,32.4 -32.4,24 -32.4,22.8 -36,16.8" inkscape:connector-curvature="0" id="path24" style="stroke:#000000;stroke-width:8;stroke-miterlimit:4;stroke-dasharray:none;fill:none;stroke-opacity:1"/>
      <path d="m 577.199,547.199 58.801,-168 0,-39.597 -7.199,-22.801 L 524.398,122.398 507.602,96 484.801,86.3984 462,75.6016 l -129.602,-6 -30,-7.2032 L 283.199,49.1992 270,32.3984 l -3.602,-9.5976 16.801,0 16.801,16.8008 16.801,0 6,-13.2032 122.398,6 79.199,-9.5976 19.204,3.5976 13.199,22.8008 16.801,-28.8008 13.199,0 L 590.398,36 577.199,62.3984 570,88.8008 586.801,132 636,224.398 l 22.801,52.801 16.801,19.199 20.398,20.403 0,32.398 55.199,99.602" inkscape:connector-curvature="0" id="path26" style="stroke:#000000;stroke-width:8;stroke-miterlimit:4;stroke-dasharray:none;fill:none;stroke-opacity:1"/>
      <path d="m 573.602,1022.4 -60,-36.002 -64.801,-20.398 -37.199,-19.199 -16.801,-30 13.199,-33.602 30,-42 56.398,-36 850.802,-250.801 43.2,-3.597 42,0 33.6,13.199 9.6,13.199 -20.4,16.801 -249.6,145.199 -159.6,111.602 -58.801,60 -39.597,38.398 -39.602,26.403 -49.199,33.598 -45.602,28.8 -66,27.6 -46.801,9.6 -49.199,6 -58.801,-2.4 -43.199,-26.4 -56.398,-40.8 -19.199,-6 -22.801,3.6 -13.199,15.6 0,20.4 13.199,22.8 124.801,258 3.597,28.8 2.403,33.6 -2.403,32.4 -13.199,37.2 -16.801,25.2 -26.398,13.2 -30,7.2 -28.801,0 -33.602,-7.2 -33.597,-15.6 L 372,1458 l -13.199,-16.8 -13.199,-26.4 -6,-16.8 0,-32.4 13.199,-33.6 13.199,-13.2 28.801,-16.8 16.801,-6 26.398,-10.8 0,-25.2 -9.602,-52.8 -26.398,-52.8 -43.199,-46.8 -45.602,-45.6 -60,-66 L 234,952.801 226.801,903.602 234,860.398 260.398,811.199 330,735.602 573.602,550.801 709.199,475.199 754.801,441.602 788.398,409.199 817.199,356.398 840,310.801 879.602,132 l 0,-24 L 864,99.6016 840,88.8008 672,66 655.199,56.3984 642,36 l -2.398,-13.1992 13.199,-2.4024 16.801,25.2032 6,0 7.199,-25.2032 L 850.801,36 909.602,22.8008 926.398,30 930,49.1992 l 26.398,-22.8008 12,0 3.602,13.2032 -3.602,13.1992 -25.199,26.3984 -16.801,35.9998 -9.597,171.602 9.597,32.398 -9.597,27.602 2.398,75.597 7.199,22.801 109.202,7.199 38.4,8.403" inkscape:connector-curvature="0" id="path28" style="stroke:#000000;stroke-width:8;stroke-miterlimit:4;stroke-dasharray:none;fill:none;stroke-opacity:1"/>
      <path d="m 1318.8,488.398 69.6,9.602 28.8,9.602 20.4,9.597 -3.6,10.801 -109.2,32.398" inkscape:connector-curvature="0" id="path30" style="stroke:#000000;stroke-width:8;stroke-miterlimit:4;stroke-dasharray:none;fill:none;stroke-opacity:1"/>
      <path d="M 956.398,630 1156.8,375.602 1173.6,360 l 16.8,-3.602 13.2,0 9.6,9.602 0,22.801" inkscape:connector-curvature="0" id="path32" style="stroke:#000000;stroke-width:8;stroke-miterlimit:4;stroke-dasharray:none;fill:none;stroke-opacity:1"/>
      <path d="m 1038,613.199 171.6,-220.801 16.8,-9.597 15.6,-3.602 13.2,7.199 7.2,9.602 0,9.602" inkscape:connector-curvature="0" id="path34" style="stroke:#000000;stroke-width:8;stroke-miterlimit:4;stroke-dasharray:none;fill:none;stroke-opacity:1"/>
      <path d="m 1107.6,600 154.8,-188.398 9.6,-9.602 13.2,-3.602 13.2,13.204 0,16.796" inkscape:connector-curvature="0" id="path36" style="stroke:#000000;stroke-width:8;stroke-miterlimit:4;stroke-dasharray:none;fill:none;stroke-opacity:1"/>
      <path d="m 1186.8,580.801 115.2,-152.403 16.8,-9.597 9.6,0 9.6,6 7.2,10.801 0,9.597 -90,121.199" inkscape:connector-curvature="0" id="path38" style="stroke:#000000;stroke-width:8;stroke-miterlimit:4;stroke-dasharray:none;fill:none;stroke-opacity:1"/>
      <path d="m 405.602,1405.2 6,13.2 13.199,9.6 16.801,3.6 13.199,-7.2 3.597,-13.2 -7.199,-9.6 -13.199,-10.8 -15.602,-2.4 -10.796,9.6 -3.602,20.4" inkscape:connector-curvature="0" id="path40" style="stroke:#000000;stroke-width:8;stroke-miterlimit:4;stroke-dasharray:none;fill:none;stroke-opacity:1"/>
      <path d="m 481.199,1130.4 253.199,-2.4 0,168 -13.199,49.2 -36,60 -26.398,28.8 -26.403,20.4 -22.796,15.6 -32.403,18 -22.801,6 -24,6 -19.199,0 -20.398,3.6" inkscape:connector-curvature="0" id="path42" style="stroke:#000000;stroke-width:8;stroke-miterlimit:4;stroke-dasharray:none;fill:none;stroke-opacity:1"/>
      <path d="M 349.199,1414.8 330,1398 309.602,1377.6 283.199,1362 240,1345.2 l -58.801,-36 -52.801,-46.8 -35.9996,-42 -45.5976,-69.6 -20.4024,-69.6 -9.5976,-39.6 0,-16.8 9.5976,-6 6,6 22.8008,60 46.8008,73.2 45.602,62.4 40.796,36 45.602,33.6 55.199,25.2 37.199,10.8 26.403,6" inkscape:connector-curvature="0" id="path44" style="stroke:#000000;stroke-width:8;stroke-miterlimit:4;stroke-dasharray:none;fill:none;stroke-opacity:1"/>
      <path d="m 39.6016,1029.6 15.5976,8.4 50.4028,73.2 32.398,46.8 43.199,49.2 49.199,36 46.801,22.8 39.602,19.2 78,7.2 30,-2.4" inkscape:connector-curvature="0" id="path46" style="stroke:#000000;stroke-width:8;stroke-miterlimit:4;stroke-dasharray:none;fill:none;stroke-opacity:1"/>
      <path d="m 3471.6,998.398 -778.8,0 10.8,64.802 9.6,43.2 16.8,43.2 22.8,33.6 19.2,28.8 26.4,36 30,26.4 36,26.4 30,20.4 43.2,19.2 42,13.2 30,7.2 52.8,6 39.6,0 36,-6 39.6,-7.2 43.2,-9.6 28.8,-10.8 40.8,-25.2 32.4,-24 30,-22.8 26.4,-32.4 26.4,-37.2 22.8,-36 16.8,-32.4 13.2,-50.4 9.6,-36 3.6,-38.402" inkscape:connector-curvature="0" id="path48" style="stroke:#000000;stroke-width:8;stroke-miterlimit:4;stroke-dasharray:none;fill:none;stroke-opacity:1"/>
    </g>
  </g>
</svg>
