<?xml version="1.0" encoding="UTF-8"?>
<!-- Created with Inkscape (http://www.inkscape.org/) -->
<svg xmlns:dc="http://purl.org/dc/elements/1.1/" xmlns:cc="http://creativecommons.org/ns#" xmlns:rdf="http://www.w3.org/1999/02/22-rdf-syntax-ns#" xmlns:svg="http://www.w3.org/2000/svg" xmlns="http://www.w3.org/2000/svg" xmlns:inkscape="http://www.inkscape.org/namespaces/inkscape" version="1.1" width="765" height="990" id="svg2" xml:space="preserve">
  <metadata id="metadata8">
    <rdf:RDF>
      <cc:Work rdf:about="">
        <dc:format>image/svg+xml</dc:format>
        <dc:type rdf:resource="http://purl.org/dc/dcmitype/StillImage"/>
      </cc:Work>
    </rdf:RDF>
  </metadata>
  <defs id="defs6"/>
  <g transform="matrix(1.25,0,0,-1.25,0,990)" id="g10">
    <g transform="scale(0.1,0.1)" id="g12">
      <path d="m 2376,1502.4 248.4,-560.4 126,0 -249.6,560.4 -124.8,0" inkscape:connector-curvature="0" id="path14" style="stroke:#000000;stroke-width:8;stroke-miterlimit:4;stroke-dasharray:none;fill:none;stroke-opacity:1"/>
      <path d="m 2752.8,1502.4 249.6,-560.4 124.8,0 -249.6,560.4 -124.8,0" inkscape:connector-curvature="0" id="path16" style="stroke:#000000;stroke-width:8;stroke-miterlimit:4;stroke-dasharray:none;fill:none;stroke-opacity:1"/>
      <path d="M 600,219.602 537.602,276 458.398,318 428.398,70.8008 307.199,55.1992 264,21.6016 l 36,3.5976" inkscape:connector-curvature="0" id="path18" style="stroke:#000000;stroke-width:8;stroke-miterlimit:4;stroke-dasharray:none;fill:none;stroke-opacity:1"/>
      <path d="M 302.398,44.3984 300,19.1992 l 75.602,2.4024" inkscape:connector-curvature="0" id="path20" style="stroke:#000000;stroke-width:8;stroke-miterlimit:4;stroke-dasharray:none;fill:none;stroke-opacity:1"/>
      <path d="M 316.801,789.602 336,721.199 l 39.602,-198 0,-234 -30,-177.597 -22.801,-24.0004 -168,-25.2032 L 145.199,21.6016 96,19.1992 l 22.801,25.1992 28.801,10.8008" inkscape:connector-curvature="0" id="path22" style="stroke:#000000;stroke-width:8;stroke-miterlimit:4;stroke-dasharray:none;fill:none;stroke-opacity:1"/>
      <path d="m 145.199,21.6016 121.199,0" inkscape:connector-curvature="0" id="path24" style="stroke:#000000;stroke-width:8;stroke-miterlimit:4;stroke-dasharray:none;fill:none;stroke-opacity:1"/>
      <path d="M 154.801,64.8008 96,57.6016 55.1992,48 l -6,-26.3984 56.4028,0" inkscape:connector-curvature="0" id="path26" style="stroke:#000000;stroke-width:8;stroke-miterlimit:4;stroke-dasharray:none;fill:none;stroke-opacity:1"/>
      <path d="m 52.8008,48 -36,-26.3984 30,3.5976" inkscape:connector-curvature="0" id="path28" style="stroke:#000000;stroke-width:8;stroke-miterlimit:4;stroke-dasharray:none;fill:none;stroke-opacity:1"/>
      <path d="m 709.199,1104 -92.398,9.6 -139.199,-9.6 -64.801,-43.2 -27.602,-65.999 20.403,-92.403 69.597,-72 451.199,-330 211.202,-145.199 109.2,-96 204,-214.8006 28.8,-19.1992 10.8,0 6,37.1992 L 1420.8,180 1064.4,655.199 873.602,945.602 l -79.204,95.998 -102,85.2 -192,105.6 -13.199,151.2 -32.398,112.8 -147.602,6 -148.801,-6 L 124.801,1374 102,1189.2 124.801,1034.4 211.199,900 345.602,760.801 475.199,621.602 573.602,436.801 613.199,121.199 592.801,85.1992 428.398,70.8008 379.199,21.6016 l 33.602,7.1992" inkscape:connector-curvature="0" id="path30" style="stroke:#000000;stroke-width:8;stroke-miterlimit:4;stroke-dasharray:none;fill:none;stroke-opacity:1"/>
      <path d="m 415.199,57.6016 -2.398,-36 L 907.199,19.1992 894,51.6016" inkscape:connector-curvature="0" id="path32" style="stroke:#000000;stroke-width:8;stroke-miterlimit:4;stroke-dasharray:none;fill:none;stroke-opacity:1"/>
      <path d="m 900,25.1992 43.199,-6 -30,28.8008 -66,26.3984 L 718.801,87.6016 705.602,104.398 688.801,312 768,282 l 79.199,-58.801 -30,192 L 926.398,345.602 1071.6,94.8008 1154.4,48 l 108,-28.8008 118.8,0 -138,203.9998 -88.8,115.199" inkscape:connector-curvature="0" id="path34" style="stroke:#000000;stroke-width:8;stroke-miterlimit:4;stroke-dasharray:none;fill:none;stroke-opacity:1"/>
      <path d="m 164.398,1383.6 43.204,66 43.199,-62.4" inkscape:connector-curvature="0" id="path36" style="stroke:#000000;stroke-width:8;stroke-miterlimit:4;stroke-dasharray:none;fill:none;stroke-opacity:1"/>
      <path d="m 266.398,1330.8 30,-164.4 43.204,162" inkscape:connector-curvature="0" id="path38" style="stroke:#000000;stroke-width:8;stroke-miterlimit:4;stroke-dasharray:none;fill:none;stroke-opacity:1"/>
      <path d="m 362.398,1381.2 43.204,66 45.597,-73.2" inkscape:connector-curvature="0" id="path40" style="stroke:#000000;stroke-width:8;stroke-miterlimit:4;stroke-dasharray:none;fill:none;stroke-opacity:1"/>
      <path d="m 394.801,1272 24,7.2 9.597,25.2 -6,16.8 -20.398,13.2 -22.801,-6 -9.597,-20.4 6,-26.4 24,-9.6" inkscape:connector-curvature="0" id="path42" style="stroke:#000000;stroke-width:8;stroke-miterlimit:4;stroke-dasharray:none;fill:none;stroke-opacity:1"/>
      <path d="m 214.801,1279.2 19.199,2.4 9.602,26.4 -6,22.8 -16.801,13.2 -26.403,-9.6 -9.597,-19.2 3.597,-24 26.403,-15.6" inkscape:connector-curvature="0" id="path44" style="stroke:#000000;stroke-width:8;stroke-miterlimit:4;stroke-dasharray:none;fill:none;stroke-opacity:1"/>
      <path d="m 1917.6,19.1992 67.2,0 0,1318.8008 -16.8,79.2 -37.2,46.8 -49.2,25.2 -75.6,13.2 -79.2,-15.6 -49.2,-30 -39.6,-52.8 -13.2,-66 0,-922.801 69.6,0 0,922.801 9.6,43.2 26.4,32.4 45.6,16.8 46.8,3.6 49.2,-16.8 36,-43.2 9.6,-52.8 0,-1302.0008" inkscape:connector-curvature="0" id="path46" style="stroke:#000000;stroke-width:8;stroke-miterlimit:4;stroke-dasharray:none;fill:none;stroke-opacity:1"/>
      <path d="m 2882.4,630 -15.6,-50.398 -28.8,-76.801 -46.8,-91.199 -49.2,-74.403 -37.2,-62.398 -40.8,-54 -15.6,-31.199 -6,-24 -3.6,-21.602 7.2,-34.801 2.4,-21.5974 -6,-28.8008 -9.6,-18 -27.6,-15.6016 -34.8,0 -37.2,15.6016 -12,2.3984 -28.8,-6 -37.2,-15.5976 -214.8,0 -6,31.1992 18,19.1992 54,6 70.8,19.1992 66,31.1988 49.2,43.204 40.8,49.199 12,28.801 25.2,72 66,177.597 40.8,86.403 43.2,85.199 37.2,62.398 31.2,49.199 27.6,37.204 21.6,28.796 19.2,8.403 15.6,3.597 12,-3.597 25.2,-2.403 37.2,-52.796 62.4,-103.204 63.6,-99.597 L 3144,474 3200.4,352.801 3240,246 l 13.2,-50.398 21.6,-49.204 28.8,-46.7964 L 3306,78 l -2.4,-25.1992 -9.6,-18 -19.2,-9.6016 -27.6,-6 -28.8,6 -9.6,9.6016 -21.6,6 -21.6,0 -21.6,-19.1992 -261.6,0 -3.6,21.5976 9.6,15.6016 68.4,19.1992 60,15.6016 43.2,15.5974 40.8,19.199 21.6,21.602 12,24 0,19.199 -9.6,25.199 -36,56.403 -63.6,105.597 -58.8,81.602 -43.2,76.801 -22.8,62.398 -15.6,31.199" inkscape:connector-curvature="0" id="path48" style="stroke:#000000;stroke-width:8;stroke-miterlimit:4;stroke-dasharray:none;fill:none;stroke-opacity:1"/>
    </g>
  </g>
</svg>
