<?xml version="1.0" encoding="UTF-8"?>
<!-- Created with Inkscape (http://www.inkscape.org/) -->
<svg xmlns:dc="http://purl.org/dc/elements/1.1/" xmlns:cc="http://creativecommons.org/ns#" xmlns:rdf="http://www.w3.org/1999/02/22-rdf-syntax-ns#" xmlns:svg="http://www.w3.org/2000/svg" xmlns="http://www.w3.org/2000/svg" xmlns:inkscape="http://www.inkscape.org/namespaces/inkscape" version="1.1" width="765" height="990" id="svg2" xml:space="preserve">
  <metadata id="metadata8">
    <rdf:RDF>
      <cc:Work rdf:about="">
        <dc:format>image/svg+xml</dc:format>
        <dc:type rdf:resource="http://purl.org/dc/dcmitype/StillImage"/>
      </cc:Work>
    </rdf:RDF>
  </metadata>
  <defs id="defs6"/>
  <g transform="matrix(1.25,0,0,-1.25,0,990)" id="g10">
    <g transform="scale(0.1,0.1)" id="g12">
      <path d="m 3507.6,520.801 0,-510.0002 1718.4,0 0,510.0002 -1718.4,0" inkscape:connector-curvature="0" id="path14" style="stroke:#000000;stroke-width:8;stroke-miterlimit:4;stroke-dasharray:none;fill:none;stroke-opacity:1"/>
      <path d="m 3507.6,10.8008 1718.4,0 0,510 -1718.4,0 0,-510 z" inkscape:connector-curvature="0" id="path16" style="stroke:#000000;stroke-width:8;stroke-miterlimit:4;stroke-dasharray:none;fill:none;stroke-opacity:1"/>
      <path d="m 1006.8,241.199 -38.402,48 -48,48 L 882,378 841.199,423.602 789.602,475.199 738,512.398 684,552 l 102,914.4 32.398,-9.6 34.801,-16.8 28.801,-21.6 28.801,-34.8 25.199,-42 13.199,-44.4 9.602,-39.6 9.597,-50.4 L 1012.8,30 l -59.999,-3.6016 12,266.4026" inkscape:connector-curvature="0" id="path18" style="stroke:#000000;stroke-width:8;stroke-miterlimit:4;stroke-dasharray:none;fill:none;stroke-opacity:1"/>
      <path d="m 1663.2,1240.8 0,-453.601 396,0 0,686.401 -795.6,0 0,-686.401 72,0 0,608.401 654,0 0,-538.799 -259.2,0 0,383.999 -67.2,0" inkscape:connector-curvature="0" id="path20" style="stroke:#000000;stroke-width:8;stroke-miterlimit:4;stroke-dasharray:none;fill:none;stroke-opacity:1"/>
      <path d="m 1891.2,456 19.2,-26.398 20.4,-33.602 10.8,-27.602 10.8,-36 6,-25.199 4.8,-33.597 0,-38.403 -2.4,-38.398 -8.4,-31.199 -10.8,-24 L 1924.8,114 1908,94.8008 1881.6,69.6016 1852.8,55.1992 1822.8,42 l -30,-6 -39.6,-2.3984 -44.4,6 -32.4,10.7968 -38.4,14.4024 -39.6,21.5976 -27.6,19.2036 -32.4,30 -21.6,27.597 -28.8,33.602 -27.6,36 -19.2,30 -13.2,27.597 -16.8,33.602 -10.8,33.602 -8.4,43.199 -3.6,42 3.6,68.398 8.4,28.801 10.8,27.602 16.8,24 21.6,20.398 25.2,21.602 36,16.796 21.6,4.801 33.6,0 38.4,-4.801 36,-6 40.8,-13.199 39.6,-16.801 27.6,-16.796 27.6,-16.801 27.6,-25.199 30,-30 25.2,-30 22.8,-27.602 9.6,-12" inkscape:connector-curvature="0" id="path22" style="stroke:#000000;stroke-width:8;stroke-miterlimit:4;stroke-dasharray:none;fill:none;stroke-opacity:1"/>
      <path d="m 1910.4,429.602 14.4,13.199 16.8,16.801 6,13.199 7.2,31.199 -2.4,24 -4.8,22.801 -6,16.801 -10.8,10.796 -14.4,16.801 -13.2,10.801 -27.6,10.801 -42,0 -24,-10.801 -22.8,-14.398 -10.8,-8.403" inkscape:connector-curvature="0" id="path24" style="stroke:#000000;stroke-width:8;stroke-miterlimit:4;stroke-dasharray:none;fill:none;stroke-opacity:1"/>
      <path d="m 1543.2,130.801 -16.8,-12 -21.6,-10.801 -16.8,-4.801 -27.6,0 -27.6,4.801 -16.8,10.801 -13.2,12 -8.4,10.801 -13.2,16.796 -8.4,19.204 -6,27.597 2.4,19.199 8.4,22.801 10.8,21.602 20.4,19.199 13.2,8.398" inkscape:connector-curvature="0" id="path26" style="stroke:#000000;stroke-width:8;stroke-miterlimit:4;stroke-dasharray:none;fill:none;stroke-opacity:1"/>
      <path d="m 2869.2,1082.4 -70.8,6 -111.6,-6 -82.8,9.6 -25.2,-9.6 -19.2,-25.2 6,-45.6 32.4,-101.998 60,-98.403 199.2,-237.597 102,-96 147.6,-136.801 313.2,-308.4026 31.2,0 9.6,16.8008 -12,28.8008 -134.4,307.199 -19.2,57.602 -103.2,246 -92.4,159.597 -73.2,103.204 -54,73.198 -45.6,70.8 -48,63.6 -57.6,67.2 -57.6,38.4 -15.6,67.2 -13.2,73.2 -19.2,48 -54,13.2 -88.8,0 -99.6,-3.6 -48,-12 -21.6,-7.2 -164.4,-22.8 -46.8,-21.6 -16.8,-22.8 -2.4,-44.4 19.2,31.2 31.2,16.8 96,0 99.6,-3.6 50.4,-13.2 -42,51.6 -8.4,36" inkscape:connector-curvature="0" id="path28" style="stroke:#000000;stroke-width:8;stroke-miterlimit:4;stroke-dasharray:none;fill:none;stroke-opacity:1"/>
      <path d="m 2524.8,1383.6 8.4,2.4 7.2,16.8 -7.2,15.6 -12,9.6 -13.2,-9.6 -3.6,-19.2 7.2,-9.6 9.6,-6" inkscape:connector-curvature="0" id="path30" style="stroke:#000000;stroke-width:8;stroke-miterlimit:4;stroke-dasharray:none;fill:none;stroke-opacity:1"/>
      <path d="m 2188.8,1351.2 127.2,3.6 99.6,-13.2 28.8,-15.6 9.6,-32.4 3.6,-36 -30,-69.6 -12,-86.4 15.6,-105.6 13.2,-48 34.8,-96 42,-76.801 99.6,-169.199 130.8,-249.602 12,-96 L 2748,97.1992 2732.4,81.6016 2638.8,72 l -108,2.3984 -6,-15.5976 -49.2,-6 -6,-9.6016 9.6,-13.1992 276,9.6016 283.2,-13.2032 13.2,13.2032 -6,15.5976 -44.4,0 -26.4,22.8008 -163.2,3.6016 -19.2,13.1992 19.2,200.3982 118.8,-60 67.2,198 L 3126,112.801 3170.4,55.1992 3214.8,30 l 67.2,0 38.4,13.1992 9.6,18 -32.4,87.6018" inkscape:connector-curvature="0" id="path32" style="stroke:#000000;stroke-width:8;stroke-miterlimit:4;stroke-dasharray:none;fill:none;stroke-opacity:1"/>
      <path d="m 2504.4,798 42,-234 L 2544,385.199 2511.6,202.801 2482.8,110.398 2463.6,87.6016 2310,78 2293.2,55.1992 2258.4,52.8008 2246.4,43.1992 2258.4,30 2377.2,39.6016 2412,36" inkscape:connector-curvature="0" id="path34" style="stroke:#000000;stroke-width:8;stroke-miterlimit:4;stroke-dasharray:none;fill:none;stroke-opacity:1"/>
      <path d="m 2527.2,74.3984 -54,-6 0,0 -32.4,-7.1992 L 2421.6,36 l 13.2,-6 19.2,19.1992 19.2,3.6016" inkscape:connector-curvature="0" id="path36" style="stroke:#000000;stroke-width:8;stroke-miterlimit:4;stroke-dasharray:none;fill:none;stroke-opacity:1"/>
      <path d="m 2524.8,78 69.6,262.801 109.2,-64.801 22.8,118.801" inkscape:connector-curvature="0" id="path38" style="stroke:#000000;stroke-width:8;stroke-miterlimit:4;stroke-dasharray:none;fill:none;stroke-opacity:1"/>
      <path d="m 2300.4,74.3984 -50.4,-6 0,0 -32.4,-7.1992 L 2198.4,36 l 9.6,-6 21.6,19.1992 26.4,3.6016" inkscape:connector-curvature="0" id="path40" style="stroke:#000000;stroke-width:8;stroke-miterlimit:4;stroke-dasharray:none;fill:none;stroke-opacity:1"/>
      <path d="M 2980.8,78 3042,72 3070.8,61.1992 3090,36 l -9.6,-6 -22.8,19.1992 -15.6,3.6016" inkscape:connector-curvature="0" id="path42" style="stroke:#000000;stroke-width:8;stroke-miterlimit:4;stroke-dasharray:none;fill:none;stroke-opacity:1"/>
      <path d="m 3782.4,1419.6 -31.2,0 -48,-10.8 -45.6,-8.4 -28.8,-13.2 -28.8,-19.2 -28.8,-19.2 -28.8,-32.4 -21.6,-34.8 -16.8,-38.4 -9.6,-48 -2.4,-51.6 2.4,-34.8 13.2,-44.4 19.2,-44.4 25.2,-42 34.8,-32.398 30,-15.602 31.2,-15.602 28.8,-10.796 32.4,-2.403 70.8,-7.199 43.2,3.602 45.6,6 38.4,10.796 25.2,8.403 22.8,16.801 19.2,12 22.8,19.199 19.2,26.398 18,28.801 7.2,19.2 9.6,19.2 6,21.6 3.6,26.4 6,38.4 -3.6,28.8 -2.4,31.2 -13.2,38.4 -15.6,42 -22.8,25.2 -32.4,32.4 -25.2,19.2 -25.2,19.2 -51.6,19.2 -44.4,9.6 -44.4,3.6" inkscape:connector-curvature="0" id="path44" style="stroke:#000000;stroke-width:8;stroke-miterlimit:4;stroke-dasharray:none;fill:none;stroke-opacity:1"/>
      <path d="m 3645.6,1393.2 -26.4,0 -9.6,9.6 -6,9.6 -3.6,19.2 3.6,19.2 9.6,13.2 15.6,6 300,0 13.2,-6 9.6,-13.2 3.6,-15.6 0,-9.6 -3.6,-13.2 -6,-9.6 -13.2,-9.6 -25.2,0" inkscape:connector-curvature="0" id="path46" style="stroke:#000000;stroke-width:8;stroke-miterlimit:4;stroke-dasharray:none;fill:none;stroke-opacity:1"/>
      <path d="m 4780.8,1476 0,-574.801 127.2,0 0,574.801 -127.2,0" inkscape:connector-curvature="0" id="path48" style="stroke:#000000;stroke-width:8;stroke-miterlimit:4;stroke-dasharray:none;fill:none;stroke-opacity:1"/>
      <path d="m 3552,450 1368,0 44.4,-6 45.6,-13.199 37.2,-32.403 45.6,-67.199 15.6,-63.597 -3.6,-63.602 -6,-9.602 -25.2,-32.398 -19.2,-13.199 -34.8,0 -32.4,19.199 -28.8,55.199 -7.2,40.801 10.8,42 15.6,40.801 0,42 -26.4,32.398 -15.6,19.199 -9.6,6 L 4900.8,402 4866,340.801 4816.8,283.199 4776,232.801 4722,181.199 4657.2,135.602 4581.6,91.1992 4530,72 l -76.8,-25.1992 -82.8,-12 -64.8,-7.1992 L 4236,24 4136.4,27.6016 4059.6,40.8008 3973.2,72 3896.4,98.3984 3788.4,162 3711.6,225.602 3631.2,312 3586.8,379.199 3552,450" inkscape:connector-curvature="0" id="path50" style="stroke:#000000;stroke-width:8;stroke-miterlimit:4;stroke-dasharray:none;fill:none;stroke-opacity:1"/>
      <path d="m 6720,1108.8 -15.6,-70.8 -153.6,32.4 -147.6,21.6 45.6,-37.2 50.4,-95.999 25.2,-96 10.8,-259.199 21.6,-224.403 34.8,-92.398 74.4,-92.403 -57.6,-36 -57.6,93.602 -38.4,69.602 -22.8,73.199 -15.6,192 -19.2,291.597 -22.8,64.801 -34.8,66.001 -32.4,38.4 -38.4,38.4 -60,22.8 -61.2,9.6 -301.2,7.2 -334.8,-16.8 -326.4,-38.4 -34.8,-3.6 -38.4,3.6 -19.2,28.8 9.6,54 73.2,115.2 32.4,42 25.2,0 3.6,-19.2 -51.6,-124.8 -3.6,-22.8 13.2,-12 92.4,15.6 172.8,21.6 266.4,22.8 265.2,6 265.2,-21.6 242.4,-38.4 160.8,-32.4" inkscape:connector-curvature="0" id="path52" style="stroke:#000000;stroke-width:8;stroke-miterlimit:4;stroke-dasharray:none;fill:none;stroke-opacity:1"/>
      <path d="m 14.3984,546 511.2036,0 0,-511.1992 -511.2036,0 0,511.1992" inkscape:connector-curvature="0" id="path54" style="stroke:#000000;stroke-width:8;stroke-miterlimit:4;stroke-dasharray:none;fill:none;stroke-opacity:1"/>
    </g>
  </g>
</svg>
