<?xml version="1.0" encoding="UTF-8"?>
<!-- Created with Inkscape (http://www.inkscape.org/) -->
<svg xmlns:dc="http://purl.org/dc/elements/1.1/" xmlns:cc="http://creativecommons.org/ns#" xmlns:rdf="http://www.w3.org/1999/02/22-rdf-syntax-ns#" xmlns:svg="http://www.w3.org/2000/svg" xmlns="http://www.w3.org/2000/svg" xmlns:inkscape="http://www.inkscape.org/namespaces/inkscape" version="1.1" width="765" height="990" id="svg2" xml:space="preserve">
  <metadata id="metadata8">
    <rdf:RDF>
      <cc:Work rdf:about="">
        <dc:format>image/svg+xml</dc:format>
        <dc:type rdf:resource="http://purl.org/dc/dcmitype/StillImage"/>
      </cc:Work>
    </rdf:RDF>
  </metadata>
  <defs id="defs6"/>
  <g transform="matrix(1.25,0,0,-1.25,0,990)" id="g10">
    <g transform="scale(0.1,0.1)" id="g12">
      <path d="m 1155.6,190.801 0,159.597 -69.6,2.403 -45.6,13.199 -46.798,20.398 -39.602,26.403 -30,26.398 -22.801,36 -15.597,36 -7.204,45.602 7.204,50.398 19.199,68.403 145.199,297.597 36,88.801 13.2,46.8 3.6,43.2 3.6,42 -16.8,49.2 -24,43.2 -28.8,33.6 -39.601,26.4 -30,13.2 -43.199,9.6 -49.199,9.6 -105.602,-7.2 -32.398,-2.4 -56.403,-20.4 L 612,1303.2 571.199,1270.8 552,1254 l -16.801,-10.8 62.403,-102 3.597,-94.8 -58.801,8.4 -194.398,0 -154.801,-8.4 -75.597,-16.8 -33.602,-24" inkscape:connector-curvature="0" id="path14" style="stroke:#000000;stroke-width:8;stroke-miterlimit:4;stroke-dasharray:none;fill:none;stroke-opacity:1"/>
      <path d="m 532.801,1240.8 -36,-13.2 L 123.602,1144.8 70.8008,1122 44.3984,1095.6 18,1048.8 l 0,-36 -6,-29.999 6,-19.199 13.1992,-7.204 7.1992,0 19.2032,7.204 39.5976,71.998 46.8008,33.6 32.398,15.6 49.204,13.2 313.199,50.4 32.398,-3.6 26.403,-9.6" inkscape:connector-curvature="0" id="path16" style="stroke:#000000;stroke-width:8;stroke-miterlimit:4;stroke-dasharray:none;fill:none;stroke-opacity:1"/>
      <path d="m 963.602,1359.6 65.998,0 82.8,-20.4 69.6,-26.4 68.4,-39.6 69.6,-58.8 79.2,-109.2 56.4,-128.399 L 1478.4,828 1323.6,824.398 1306.8,960 l -19.2,88.8 -20.4,60 -22.8,51.6 -26.4,30 -39.6,39.6 -56.4,43.2 -52.8,16.8" inkscape:connector-curvature="0" id="path18" style="stroke:#000000;stroke-width:8;stroke-miterlimit:4;stroke-dasharray:none;fill:none;stroke-opacity:1"/>
      <path d="m 597.602,1048.8 126,-19.2 49.199,-10.8 45.597,0 24,-13.2 16.801,-26.401 2.403,-19.199 -6,-30 L 802.801,805.199 744,646.801 l -13.199,-92.403 15.597,-118.796 36,-85.204 24,-30 28.801,-30 82.801,-52.796 115.2,-36 122.4,-10.801" inkscape:connector-curvature="0" id="path20" style="stroke:#000000;stroke-width:8;stroke-miterlimit:4;stroke-dasharray:none;fill:none;stroke-opacity:1"/>
      <path d="M 782.398,1270.8 763.199,1266 744,1243.2 l 0,-26.4 19.199,-15.6 26.403,0 19.199,13.2 7.199,13.2 -3.602,22.8 -19.199,20.4" inkscape:connector-curvature="0" id="path22" style="stroke:#000000;stroke-width:8;stroke-miterlimit:4;stroke-dasharray:none;fill:none;stroke-opacity:1"/>
      <path d="m 2524.8,14.3984 -782.4,0 9.6,66 9.6,43.2036 16.8,43.199 22.8,33.597 20.4,30 26.4,36 30,26.403 36,27.597 30,19.204 43.2,19.199 43.2,14.398 30,6 52.8,7.199 39.6,0 37.2,-7.199 39.6,-6 42,-9.597 30,-10.801 40.8,-26.403 32.4,-22.796 30,-24 26.4,-32.403 27.6,-37.199 22.8,-36 15.6,-33.602 14.4,-50.398 9.6,-36 3.6,-39.6016" inkscape:connector-curvature="0" id="path24" style="stroke:#000000;stroke-width:8;stroke-miterlimit:4;stroke-dasharray:none;fill:none;stroke-opacity:1"/>
      <path d="m 2311.2,1074 26.4,-15.6 20.4,-7.2 9.6,0 9.6,9.6 13.2,13.2 66,116.4 0,16.8 -2.4,6 -7.2,10.8 -22.8,12 -543.6,255.6 -13.2,4.8 -16.8,2.4 -16.8,-7.2 -16.8,-9.6 -6,-9.6 -7.2,-19.2 0,-14.4 7.2,-15.6 9.6,-13.2 16.8,-16.8 474,-319.2" inkscape:connector-curvature="0" id="path26" style="stroke:#000000;stroke-width:8;stroke-miterlimit:4;stroke-dasharray:none;fill:none;stroke-opacity:1"/>
    </g>
  </g>
</svg>
