<?xml version="1.0" encoding="UTF-8"?>
<!-- Created with Inkscape (http://www.inkscape.org/) -->
<svg xmlns:dc="http://purl.org/dc/elements/1.1/" xmlns:cc="http://creativecommons.org/ns#" xmlns:rdf="http://www.w3.org/1999/02/22-rdf-syntax-ns#" xmlns:svg="http://www.w3.org/2000/svg" xmlns="http://www.w3.org/2000/svg" xmlns:inkscape="http://www.inkscape.org/namespaces/inkscape" version="1.1" width="765" height="990" id="svg2" xml:space="preserve">
  <metadata id="metadata8">
    <rdf:RDF>
      <cc:Work rdf:about="">
        <dc:format>image/svg+xml</dc:format>
        <dc:type rdf:resource="http://purl.org/dc/dcmitype/StillImage"/>
      </cc:Work>
    </rdf:RDF>
  </metadata>
  <defs id="defs6"/>
  <g transform="matrix(1.25,0,0,-1.25,0,990)" id="g10">
    <g transform="scale(0.1,0.1)" id="g12">
      <path d="m 513.602,195.602 194.398,0 -2.398,69.597 15.597,93.602 21.602,54 36,86.398 L 954,808.801 967.199,876 l 0,32.398 -3.597,57.602 -9.602,38.4 -28.801,48 -34.801,44.4 -22.796,25.2 -57.602,38.4 -31.199,15.6 -45.602,16.8 -63.597,9.6 -90,-9.6 -31.204,-12 L 510,1154.4 475.199,1119.6 462,1090.8 446.398,1064.4 72,985.199 43.1992,975.602 26.3984,958.801 18,946.801 14.3984,924 475.199,1000.8" inkscape:connector-curvature="0" id="path14" style="stroke:#000000;stroke-width:8;stroke-miterlimit:4;stroke-dasharray:none;fill:none;stroke-opacity:1"/>
      <path d="m 18,910.801 21.6016,-6 45.5976,-3.602 399.6018,51.602 -9.602,45.597 -26.398,66.002" inkscape:connector-curvature="0" id="path16" style="stroke:#000000;stroke-width:8;stroke-miterlimit:4;stroke-dasharray:none;fill:none;stroke-opacity:1"/>
      <path d="m 490.801,952.801 19.199,3.597 32.398,0 108,-26.398 51.602,-6 31.199,-2.398 90,8.398 L 852,901.199 859.199,864 854.398,831.602 838.801,793.199 698.398,607.199 615.602,495.602 583.199,438 l -34.801,-67.199 -22.796,-86.403 -12,-88.796" inkscape:connector-curvature="0" id="path18" style="stroke:#000000;stroke-width:8;stroke-miterlimit:4;stroke-dasharray:none;fill:none;stroke-opacity:1"/>
      <path d="m 775.199,1183.2 163.199,-57.6 163.202,-38.4 67.2,-12 57.6,-4.8 67.2,0 79.2,4.8 55.2,12 60,13.2 6,-7.2 -6,-22.8 -22.8,-15.6 -76.8,-15.6 -73.2,-9.6 -88.8,0 -73.2,6 -124.8,22.8 -70.798,22.8" inkscape:connector-curvature="0" id="path20" style="stroke:#000000;stroke-width:8;stroke-miterlimit:4;stroke-dasharray:none;fill:none;stroke-opacity:1"/>
      <path d="m 846,1135.2 267.6,-136.802 80.4,-36 60,-19.199 61.2,-15.597 44.4,-13.204 84,-3.597 34.8,-2.403 19.2,0 13.2,-3.597 2.4,-19.199 -60,-19.204 -48,-2.398 -63.6,6 -87.6,22.801 -152.4,60 -178.799,101.999" inkscape:connector-curvature="0" id="path22" style="stroke:#000000;stroke-width:8;stroke-miterlimit:4;stroke-dasharray:none;fill:none;stroke-opacity:1"/>
      <path d="m 567.602,1110 -19.204,-3.6 -16.796,-19.2 0,-22.8 16.796,-15.6 22.801,0 18,9.6 3.602,12 -6,20.4 -13.199,19.2" inkscape:connector-curvature="0" id="path24" style="stroke:#000000;stroke-width:8;stroke-miterlimit:4;stroke-dasharray:none;fill:none;stroke-opacity:1"/>
      <path d="m 1790.4,1350 13.2,0 6,9.6 0,9.6 -9.6,3.6 -13.2,0 -6,-9.6 3.6,-9.6 9.6,-3.6" inkscape:connector-curvature="0" id="path26" style="stroke:#000000;stroke-width:8;stroke-miterlimit:4;stroke-dasharray:none;fill:none;stroke-opacity:1"/>
      <path d="m 2049.6,1267.2 -45.6,13.2 -44.4,-3.6 -61.2,-9.6 -102,-13.2 -82.8,-3.6 -32.4,10.8 -19.2,8.4 -9.6,26.4 0,25.2 7.2,28.8 25.2,28.8 32.4,28.8 34.8,22.8 28.8,9.6 25.2,9.6 64.8,6 40.8,0 67.2,-15.6 82.8,-64.8 76.8,-66 80.4,-93.6 28.8,-60 9.6,-80.4 -15.6,-111.598 -19.2,-67.204 L 2196,829.199 2138.4,723.602 2052,541.199 2013.6,412.801 2004,372 l -8.4,-44.398 8.4,-103.204 32.4,-57.597 51.6,-38.403 63.6,-12 61.2,21.602 31.2,28.801 19.2,32.398 22.8,105.602 -3.6,128.398 -19.2,146.403 3.6,76.796 9.6,76.801 22.8,42 31.2,31.199 28.8,19.204 38.4,15.597 55.2,-2.398 50.4,-13.199 44.4,-34.801 32.4,-42 26.4,-63.602 12,-67.199 -19.2,-195.602 -38.4,-192 3.6,-60 13.2,-60 44.4,-76.7964 -3.6,-10.8008 -25.2,7.1992 -63.6,69.6016 -22.8,99.5974 0,144 25.2,156 3.6,80.403 -3.6,90 -28.8,54 -15.6,13.199 -22.8,15.597 -48,0 -40.8,-36 -22.8,-75.597 0,-96 31.2,-176.403 0,-76.796 -8.4,-76.801 -42,-98.403 -28.8,-39.5972 -51.6,-37.1992 -54,-16.8008 -55.2,-6 -104.4,6 -61.2,26.3984 -54,34.8008 -45.6,42 -31.2,40.801 -34.8,90 -9.6,67.199 2.4,57.602 15.6,159.597 -8.4,102 -9.6,128.403 -42,150 -3.6,57.597 -2.4,67.201 22.8,90 34.8,50.4 44.4,48 76.8,34.8" inkscape:connector-curvature="0" id="path28" style="stroke:#000000;stroke-width:8;stroke-miterlimit:4;stroke-dasharray:none;fill:none;stroke-opacity:1"/>
    </g>
  </g>
</svg>
