<?xml version="1.0" encoding="UTF-8"?>
<!-- Created with Inkscape (http://www.inkscape.org/) -->
<svg xmlns:dc="http://purl.org/dc/elements/1.1/" xmlns:cc="http://creativecommons.org/ns#" xmlns:rdf="http://www.w3.org/1999/02/22-rdf-syntax-ns#" xmlns:svg="http://www.w3.org/2000/svg" xmlns="http://www.w3.org/2000/svg" xmlns:inkscape="http://www.inkscape.org/namespaces/inkscape" version="1.1" width="765" height="990" id="svg2" xml:space="preserve">
  <metadata id="metadata8">
    <rdf:RDF>
      <cc:Work rdf:about="">
        <dc:format>image/svg+xml</dc:format>
        <dc:type rdf:resource="http://purl.org/dc/dcmitype/StillImage"/>
      </cc:Work>
    </rdf:RDF>
  </metadata>
  <defs id="defs6"/>
  <g transform="matrix(1.25,0,0,-1.25,0,990)" id="g10">
    <g transform="scale(0.1,0.1)" id="g12">
      <path d="m 471.602,1273.2 0,-501.598 529.198,0 0,501.598 -529.198,0" inkscape:connector-curvature="0" id="path14" style="stroke:#000000;stroke-width:8;stroke-miterlimit:4;stroke-dasharray:none;fill:none;stroke-opacity:1"/>
      <path d="m 471.602,771.602 529.199,0 0,501.598 -529.199,0 0,-501.598 z" inkscape:connector-curvature="0" id="path16" style="stroke:#000000;stroke-width:8;stroke-miterlimit:4;stroke-dasharray:none;fill:none;stroke-opacity:1"/>
      <path d="m 392.398,517.199 0,-501.5974 608.402,0 0,501.5974 -608.402,0" inkscape:connector-curvature="0" id="path18" style="stroke:#000000;stroke-width:8;stroke-miterlimit:4;stroke-dasharray:none;fill:none;stroke-opacity:1"/>
      <path d="m 392.398,15.6016 608.402,0 0,501.598 -608.402,0 0,-501.598 z" inkscape:connector-curvature="0" id="path20" style="stroke:#000000;stroke-width:8;stroke-miterlimit:4;stroke-dasharray:none;fill:none;stroke-opacity:1"/>
      <path d="M 687.602,824.398 932.398,1059.6" inkscape:connector-curvature="0" id="path22" style="stroke:#000000;stroke-width:8;stroke-miterlimit:4;stroke-dasharray:none;fill:none;stroke-opacity:1"/>
      <path d="M 598.801,859.199 900,1147.2" inkscape:connector-curvature="0" id="path24" style="stroke:#000000;stroke-width:8;stroke-miterlimit:4;stroke-dasharray:none;fill:none;stroke-opacity:1"/>
      <path d="M 540,920.398 841.199,1209.6" inkscape:connector-curvature="0" id="path26" style="stroke:#000000;stroke-width:8;stroke-miterlimit:4;stroke-dasharray:none;fill:none;stroke-opacity:1"/>
      <path d="m 510,1009.2 241.199,230.4" inkscape:connector-curvature="0" id="path28" style="stroke:#000000;stroke-width:8;stroke-miterlimit:4;stroke-dasharray:none;fill:none;stroke-opacity:1"/>
      <path d="m 810,1226.4 -21.602,4.8 -20.398,8.4 -22.801,3.6 -22.801,0 -24,-2.4 -20.398,-1.2 -22.801,-8.4 -20.398,-7.2 -21.602,-9.6 -18,-13.2 -15.597,-13.2 -14.403,-14.4 -12,-13.2 -10.801,-16.8 -13.199,-25.2 -6,-18 -4.801,-21.6 -3.597,-20.4 -4.801,-25.2 0,-20.4 4.801,-23.999 4.801,-20.403 6,-19.199 9.597,-21.597 4.801,-10.801 8.398,-9.602 18,-20.398 19.204,-19.199 16.796,-13.204 20.403,-10.796 22.801,-10.801 22.796,-6 19.204,-6 21.597,0 22.801,-1.199 26.398,3.597 19.204,3.602 22.796,9.597 22.801,10.801 14.403,7.199 16.796,15.602 16.801,14.398 16.801,18 14.398,20.403 13.204,19.199 8.398,18 6,22.801 2.398,20.399 3.602,25.2 -2.398,20.4 -1.204,25.2 -6,20.4 -7.199,19.2 -9.597,24 -13.204,18 -14.398,15.6 -14.398,19.2 -19.204,13.2 -18,13.2 -20.398,9.6" inkscape:connector-curvature="0" id="path30" style="stroke:#000000;stroke-width:8;stroke-miterlimit:4;stroke-dasharray:none;fill:none;stroke-opacity:1"/>
      <path d="m 246,1114.8 0,-509.999 -38.398,0 0,509.999" inkscape:connector-curvature="0" id="path32" style="stroke:#000000;stroke-width:8;stroke-miterlimit:4;stroke-dasharray:none;fill:none;stroke-opacity:1"/>
      <path d="m 439.199,1114.8 -424.8006,0 0,134.4 7.2032,15.6 7.1992,8.4 19.1992,0 10.8008,-1.2 12,-7.2 L 108,1230 l 34.801,-30 26.398,-13.2 32.403,-7.2 26.398,-2.4 24,2.4 32.398,7.2 26.403,13.2 34.801,30 37.199,34.8 10.801,7.2 12,1.2 19.199,0 7.199,-8.4 7.199,-15.6 0,-134.4" inkscape:connector-curvature="0" id="path34" style="stroke:#000000;stroke-width:8;stroke-miterlimit:4;stroke-dasharray:none;fill:none;stroke-opacity:1"/>
      <path d="m 148.801,1200 33.597,223.2 15.602,19.2 10.801,7.2 15.597,6 4.801,0 15.602,-6 10.801,-7.2 15.597,-19.2 33.602,-223.2" inkscape:connector-curvature="0" id="path36" style="stroke:#000000;stroke-width:8;stroke-miterlimit:4;stroke-dasharray:none;fill:none;stroke-opacity:1"/>
      <path d="m 336,1238.4 -15.602,1.2 -9.597,8.4 -6,8.4 -3.602,9.6 2.403,18 7.199,10.8 9.597,6 15.602,3.6 14.398,-2.4 12,-7.2 7.204,-10.8 0,-25.2 -7.204,-9.6 -12,-9.6 -14.398,-1.2" inkscape:connector-curvature="0" id="path38" style="stroke:#000000;stroke-width:8;stroke-miterlimit:4;stroke-dasharray:none;fill:none;stroke-opacity:1"/>
      <path d="m 126,1239.6 -18,0 -16.8008,9.6 -4.8008,10.8 -2.3984,9.6 3.6016,18 13.1994,13.2 7.199,3.6 13.199,0 14.403,-2.4 10.796,-7.2 6,-13.2 0,-12 -3.597,-14.4 -6,-9.6 -9.602,-3.6 -7.199,-2.4" inkscape:connector-curvature="0" id="path40" style="stroke:#000000;stroke-width:8;stroke-miterlimit:4;stroke-dasharray:none;fill:none;stroke-opacity:1"/>
      <path d="m 259.199,1113.6 55.199,-166.799 3.602,-18 0,-21.602 -7.199,-16.801 -10.801,-12 -12,-7.199 -42,-6" inkscape:connector-curvature="0" id="path42" style="stroke:#000000;stroke-width:8;stroke-miterlimit:4;stroke-dasharray:none;fill:none;stroke-opacity:1"/>
      <path d="m 207.602,865.199 -40.801,6 -18,13.199 -12,22.801 0,26.403 58.801,179.998" inkscape:connector-curvature="0" id="path44" style="stroke:#000000;stroke-width:8;stroke-miterlimit:4;stroke-dasharray:none;fill:none;stroke-opacity:1"/>
      <path d="m 13.1992,104.398 0,201.602 1364.4008,0 0,-201.602 -1364.4008,0" inkscape:connector-curvature="0" id="path46" style="stroke:#000000;stroke-width:8;stroke-miterlimit:4;stroke-dasharray:none;fill:none;stroke-opacity:1"/>
      <path d="M 421.199,458.398 579.602,306" inkscape:connector-curvature="0" id="path48" style="stroke:#000000;stroke-width:8;stroke-miterlimit:4;stroke-dasharray:none;fill:none;stroke-opacity:1"/>
      <path d="M 969.602,458.398 811.199,306" inkscape:connector-curvature="0" id="path50" style="stroke:#000000;stroke-width:8;stroke-miterlimit:4;stroke-dasharray:none;fill:none;stroke-opacity:1"/>
      <path d="m 573.602,306 6,33.602 12,26.398 21.597,27.602 15.602,13.199 24,14.398 33.597,3.602 24,0 24,-3.602 21.602,-12 21.602,-18 15.597,-21.597 8.403,-21.602 7.199,-42" inkscape:connector-curvature="0" id="path52" style="stroke:#000000;stroke-width:8;stroke-miterlimit:4;stroke-dasharray:none;fill:none;stroke-opacity:1"/>
      <path d="m 1384.8,1453.2 -9.6,-190.8 -3.6,-162 -3.6,-126.002 -9.6,-87.597 -7.2,-85.199 3.6,-91.204 6,-28.796 3.6,-22.801 -2.4,-22.801 -10.8,-14.398 -16.8,-12 -21.6,-3.602 -37.2,9.602 -14.4,10.796 -25.2,6 -56.4,-27.597 L 944.398,606 936,636 l 7.199,15.602 20.403,3.597 81.598,16.801 67.2,34.801 45.6,16.801 40.8,9.597 27.6,24 9.6,25.199 1.2,26.403 -3.6,39.597 -1.2,52.801 -3.6,144.001 -2.4,144 -14.4,266.4 172.8,0" inkscape:connector-curvature="0" id="path54" style="stroke:#000000;stroke-width:8;stroke-miterlimit:4;stroke-dasharray:none;fill:none;stroke-opacity:1"/>
    </g>
  </g>
</svg>
