<?xml version="1.0" encoding="UTF-8"?>
<!-- Created with Inkscape (http://www.inkscape.org/) -->
<svg xmlns:dc="http://purl.org/dc/elements/1.1/" xmlns:cc="http://creativecommons.org/ns#" xmlns:rdf="http://www.w3.org/1999/02/22-rdf-syntax-ns#" xmlns:svg="http://www.w3.org/2000/svg" xmlns="http://www.w3.org/2000/svg" xmlns:inkscape="http://www.inkscape.org/namespaces/inkscape" version="1.1" width="765" height="990" id="svg2" xml:space="preserve">
  <metadata id="metadata8">
    <rdf:RDF>
      <cc:Work rdf:about="">
        <dc:format>image/svg+xml</dc:format>
        <dc:type rdf:resource="http://purl.org/dc/dcmitype/StillImage"/>
      </cc:Work>
    </rdf:RDF>
  </metadata>
  <defs id="defs6"/>
  <g transform="matrix(1.25,0,0,-1.25,0,990)" id="g10">
    <g transform="scale(0.1,0.1)" id="g12">
      <path d="m 672,1005.6 -66,4.8 -104.398,-4.8 -78,8.4 -24,-8.4 -18,-23.998 6,-42 30,-96 L 474,750 660,529.199 l 94.801,-90 138,-128.398 L 1185.6,24 l 30,0 9.6,14.3984 -12,27.6016 -126,286.801 -18,54 -94.802,230.398 -87.597,150 L 818.398,882 766.801,951.602 726,1017.6 l -45.602,60 -54,62.4 -52.796,36 -15.602,62.4 -12,69.6 -18,44.4 -50.398,12 -84,0 -92.403,-3.6 -45.597,-10.8 -20.403,-7.2 -152.3982,-20.4 -45.6016,-21.6 -14.3984,-20.4 -3.6016,-42 18,30 30,14.4 89.9998,0 92.403,-2.4 48,-12 -38.403,48 -9.597,33.6" inkscape:connector-curvature="0" id="path14" style="stroke:#000000;stroke-width:8;stroke-miterlimit:4;stroke-dasharray:none;fill:none;stroke-opacity:1"/>
      <path d="m 348,1286.4 9.602,3.6 6,14.4 -6,15.6 -12,8.4 -12,-8.4 -2.403,-19.2 4.801,-8.4 9.602,-6" inkscape:connector-curvature="0" id="path16" style="stroke:#000000;stroke-width:8;stroke-miterlimit:4;stroke-dasharray:none;fill:none;stroke-opacity:1"/>
      <path d="m 34.8008,1256.4 120.0002,3.6 92.398,-12 26.403,-15.6 9.597,-30 2.403,-32.4 -26.403,-66 -12,-81.6 14.403,-98.4 12,-44.398 33.597,-90 38.403,-72 L 438,559.199 561.602,326.398 l 12,-90 L 558,84 543.602,68.3984 456,58.8008 355.199,62.3984 348,46.8008 l -44.398,-6 -6,-8.4024 9.597,-12 256.801,8.4024 266.398,-12 12,12 -6,15.5976 -42,0 L 770.398,66 618,68.3984 l -18,12 L 618,268.801 728.398,212.398 792,397.199 910.801,98.3984 l 42,-54 42,-24 62.399,0 36,12 9.6,18 -30,80.4026" inkscape:connector-curvature="0" id="path18" style="stroke:#000000;stroke-width:8;stroke-miterlimit:4;stroke-dasharray:none;fill:none;stroke-opacity:1"/>
      <path d="M 331.199,739.199 369.602,519.602 366,352.801 336,182.398 309.602,96 291.602,74.3984 147.602,66 133.199,44.3984 99.6016,40.8008 l -12,-8.4024 12,-12 111.5974,8.4024 32.403,-2.4024" inkscape:connector-curvature="0" id="path20" style="stroke:#000000;stroke-width:8;stroke-miterlimit:4;stroke-dasharray:none;fill:none;stroke-opacity:1"/>
      <path d="m 351.602,62.3984 -50.403,-6 0,0 -30,-6 -18,-24 12,-6 18,18 18,2.4024" inkscape:connector-curvature="0" id="path22" style="stroke:#000000;stroke-width:8;stroke-miterlimit:4;stroke-dasharray:none;fill:none;stroke-opacity:1"/>
      <path d="m 348,66 66,244.801 102,-60 20.398,110.398" inkscape:connector-curvature="0" id="path24" style="stroke:#000000;stroke-width:8;stroke-miterlimit:4;stroke-dasharray:none;fill:none;stroke-opacity:1"/>
      <path d="m 139.199,62.3984 -47.9998,-6 0,0 -30,-6 -18,-24 9.6016,-6 20.3984,18 24,2.4024" inkscape:connector-curvature="0" id="path26" style="stroke:#000000;stroke-width:8;stroke-miterlimit:4;stroke-dasharray:none;fill:none;stroke-opacity:1"/>
      <path d="M 776.398,66 834,58.8008 l 26.398,-8.4024 18,-24 -9.597,-6 -20.403,18 L 834,40.8008" inkscape:connector-curvature="0" id="path28" style="stroke:#000000;stroke-width:8;stroke-miterlimit:4;stroke-dasharray:none;fill:none;stroke-opacity:1"/>
      <path d="m 1976.4,975.602 -10.8,-214.801 -4.8,-182.403 -3.6,-140.398 -10.8,-100.801 -8.4,-96 3.6,-102 7.2,-31.199 3.6,-25.1992 -1.2,-26.4024 -13.2,-16.7968 -19.2,-13.2032 -24,-3.5976 -42,9.5976 -16.8,13.2032 -27.6,7.1992 -64.8,-32.4024 -262.8,2.4024 -10.8,33.5976 8.4,16.8008 24,4.8008 91.2,19.1992 75.6,38.4028 51.6,19.199 45.6,10.801 31.2,27.597 10.8,27.602 2.4,30 -4.8,44.398 -2.4,60 -3.6,160.801 -2.4,162 -16.8,300 195.6,0" inkscape:connector-curvature="0" id="path30" style="stroke:#000000;stroke-width:8;stroke-miterlimit:4;stroke-dasharray:none;fill:none;stroke-opacity:1"/>
      <path d="m 1495.2,1368 910.8,0 30,-4.8 30,-8.4 25.2,-21.6 30,-44.4 10.8,-43.2 -2.4,-42 -3.6,-6 -18,-21.6 -12,-8.4 -24,0 -21.6,13.2 -18,36 -4.8,27.6 6,27.6 10.8,27.6 0,27.6 -16.8,21.6 -10.8,12 -6,4.8 -18,-30 -22.8,-40.8 -31.2,-38.4 -28.8,-33.6 -36,-34.8 -42,-28.8 -51.6,-30 -33.6,-13.2 -51.6,-16.8 -55.2,-8.4 -42,-4.8 -46.8,-2.4 -66,2.4 -51.6,8.4 -57.6,21.6 -50.4,16.8 -73.2,43.2 -50.4,42 -52.8,57.6 -30,45.6 -24,46.8" inkscape:connector-curvature="0" id="path32" style="stroke:#000000;stroke-width:8;stroke-miterlimit:4;stroke-dasharray:none;fill:none;stroke-opacity:1"/>
      <path d="m 2458.8,297.602 18,-10.801 12,-4.801 7.2,0 6,7.199 8.4,8.403 42,74.398 0,9.602 -2.4,4.796 -3.6,7.204 -14.4,8.398 -349.2,163.199 -8.4,2.403 -10.8,2.398 -10.8,-4.801 -10.8,-6 -3.6,-7.199 -4.8,-12 0,-8.398 4.8,-10.801 6,-8.403 10.8,-10.796 303.6,-204" inkscape:connector-curvature="0" id="path34" style="stroke:#000000;stroke-width:8;stroke-miterlimit:4;stroke-dasharray:none;fill:none;stroke-opacity:1"/>
    </g>
  </g>
</svg>
