<?xml version="1.0" encoding="UTF-8"?>
<!-- Created with Inkscape (http://www.inkscape.org/) -->
<svg xmlns:dc="http://purl.org/dc/elements/1.1/" xmlns:cc="http://creativecommons.org/ns#" xmlns:rdf="http://www.w3.org/1999/02/22-rdf-syntax-ns#" xmlns:svg="http://www.w3.org/2000/svg" xmlns="http://www.w3.org/2000/svg" xmlns:inkscape="http://www.inkscape.org/namespaces/inkscape" version="1.1" width="765" height="990" id="svg2" xml:space="preserve">
  <metadata id="metadata8">
    <rdf:RDF>
      <cc:Work rdf:about="">
        <dc:format>image/svg+xml</dc:format>
        <dc:type rdf:resource="http://purl.org/dc/dcmitype/StillImage"/>
      </cc:Work>
    </rdf:RDF>
  </metadata>
  <defs id="defs6"/>
  <g transform="matrix(1.25,0,0,-1.25,0,990)" id="g10">
    <g transform="scale(0.1,0.1)" id="g12">
      <path d="m 2888.4,914.398 -139.2,19.204 -54,-4.801 L 2644.8,912 2586,880.801 2476.8,847.199 2241.6,824.398 2002.8,834 l -104.4,19.199 -61.2,27.602 -28.8,43.199 -24,82.8 7.2,135.6 22.8,56.4 20.4,46.8 46.8,31.2 331.2,0" inkscape:connector-curvature="0" id="path14" style="stroke:#000000;stroke-width:8;stroke-miterlimit:4;stroke-dasharray:none;fill:none;stroke-opacity:1"/>
      <path d="m 1983.6,1281.6 -45.6,0 -63.6,22.8 -51.6,28.8 -33.6,27.6 -36,39.6 -16.8,33.6 -6,22.8 61.2,-33.6 106.8,-26.4 79.2,-2.4 105.6,0 68.4,2.4 90,9.6 92.4,0 74.4,-9.6 60,-36 61.2,-50.4 37.2,-45.6 55.2,-49.2 73.2,-12 64.8,-4.8 61.2,10.8 64.8,16.8 0,-308.4" inkscape:connector-curvature="0" id="path16" style="stroke:#000000;stroke-width:8;stroke-miterlimit:4;stroke-dasharray:none;fill:none;stroke-opacity:1"/>
      <path d="m 807.602,1081.2 -70.801,7.2 -111.602,-7.2 -82.801,9.6 -26.398,-9.6 -19.199,-25.2 6,-45.6 L 542.398,892.801 558,860.398 596.398,810 691.199,691.199 896.398,476.398 1044,339.602 1357.2,31.1992 l 31.2,0 L 1399.2,48 1386,76.8008 1251.6,384 1232.4,441.602 1180.8,570 l -15.6,31.199 -40.8,86.403 -76.8,132 -80.401,130.796 -54,73.202 -48,70.8 -48,63.6 -57.597,67.2 -57.602,38.4 -16.801,67.2 -12,74.4 -19.199,48 -55.199,12 -88.801,0 -99.602,-3.6 -48,-12 -21.597,-7.2 -163.199,-21.6 -48,-22.8 -15.602,-21.6 -3.602,-45.6 19.204,32.4 31.199,15.6 96,0 99.597,-2.4 51.602,-13.2 -42,50.4 -9.602,36" inkscape:connector-curvature="0" id="path18" style="stroke:#000000;stroke-width:8;stroke-miterlimit:4;stroke-dasharray:none;fill:none;stroke-opacity:1"/>
      <path d="m 462,1382.4 9.602,2.4 6,16.8 -6,15.6 -13.204,9.6 -13.199,-9.6 -2.398,-19.2 6,-9.6 9.597,-6" inkscape:connector-curvature="0" id="path20" style="stroke:#000000;stroke-width:8;stroke-miterlimit:4;stroke-dasharray:none;fill:none;stroke-opacity:1"/>
      <path d="m 126,1350 128.398,3.6 98.403,-13.2 28.801,-15.6 9.597,-32.4 3.602,-34.8 -28.801,-70.8 -13.199,-86.4 15.597,-105.599 13.204,-48 19.199,-57.602 L 414,864 458.398,774 621.602,480 688.801,355.199 702,259.199 685.199,96 669.602,80.3984 577.199,70.8008 468,73.1992 l -6,-15.5976 -48,-6 -6,-9.6016 9.602,-13.1992 273.597,9.5976 285.602,-13.1992 12,13.1992 -6,15.6016 -44.403,0 -25.199,22.8008 -164.398,3.5976 -18,13.2032 18,200.3984 118.801,-60 67.199,198 L 1063.2,111.602 1107.6,54 l 45.6,-25.1992 66,0 38.4,13.1992 9.6,18 -31.2,87.602" inkscape:connector-curvature="0" id="path22" style="stroke:#000000;stroke-width:8;stroke-miterlimit:4;stroke-dasharray:none;fill:none;stroke-opacity:1"/>
      <path d="m 442.801,796.801 25.199,-96 9.602,-99.602 3.597,-38.398 0,-178.801 L 448.801,201.602 420,109.199 400.801,86.3984 248.398,76.8008 231.602,54 196.801,51.6016 183.602,42 l 13.199,-13.1992 117.597,9.5976 34.801,-3.5976" inkscape:connector-curvature="0" id="path24" style="stroke:#000000;stroke-width:8;stroke-miterlimit:4;stroke-dasharray:none;fill:none;stroke-opacity:1"/>
      <path d="m 465.602,73.1992 -55.204,-6 0,0 L 379.199,60 360,34.8008 l 12,-6 19.199,19.1992 19.199,3.6016" inkscape:connector-curvature="0" id="path26" style="stroke:#000000;stroke-width:8;stroke-miterlimit:4;stroke-dasharray:none;fill:none;stroke-opacity:1"/>
      <path d="m 462,76.8008 69.602,262.8012 109.199,-64.801 22.801,118.801" inkscape:connector-curvature="0" id="path28" style="stroke:#000000;stroke-width:8;stroke-miterlimit:4;stroke-dasharray:none;fill:none;stroke-opacity:1"/>
      <path d="m 237.602,73.1992 -50.403,-6 0,0 L 154.801,60 135.602,34.8008 l 9.597,-6 L 168,48 l 25.199,3.6016" inkscape:connector-curvature="0" id="path30" style="stroke:#000000;stroke-width:8;stroke-miterlimit:4;stroke-dasharray:none;fill:none;stroke-opacity:1"/>
      <path d="m 919.199,76.8008 60,-6 L 1008,60 l 19.2,-25.1992 -8.4,-6 L 996,48 979.199,51.6016" inkscape:connector-curvature="0" id="path32" style="stroke:#000000;stroke-width:8;stroke-miterlimit:4;stroke-dasharray:none;fill:none;stroke-opacity:1"/>
      <path d="m 1453.2,892.801 -453.598,0" inkscape:connector-curvature="0" id="path34" style="stroke:#000000;stroke-width:8;stroke-miterlimit:4;stroke-dasharray:none;fill:none;stroke-opacity:1"/>
      <path d="m 397.199,892.801 -69.597,0 L 270,879.602 214.801,854.398 158.398,812.398 120,780 85.1992,742.801 55.1992,704.398 37.1992,666 24,627.602 l -7.1992,-32.403 -2.4024,-28.801 1438.8016,0" inkscape:connector-curvature="0" id="path36" style="stroke:#000000;stroke-width:8;stroke-miterlimit:4;stroke-dasharray:none;fill:none;stroke-opacity:1"/>
      <path d="m 1809.6,121.199 39.6,-98.3982 -25.2,-6 -39.6,104.3982" inkscape:connector-curvature="0" id="path38" style="stroke:#000000;stroke-width:8;stroke-miterlimit:4;stroke-dasharray:none;fill:none;stroke-opacity:1"/>
      <path d="M 1710,337.199 1603.2,660 l -6,45.602 2.4,28.796 16.8,19.204 28.8,18 42,10.796 34.8,-6 33.6,-22.796 25.2,-45.602 3.6,-48 -3.6,-19.199 -8.4,-26.403 -14.4,-16.796 -16.8,6 8.4,31.199 3.6,22.801 -3.6,25.199 -2.4,14.398 -16.8,27.602 -25.2,20.398 -26.4,0 -25.2,-6 -14.4,-16.801 -14.4,-28.796 3.6,-21.602 112.8,-334.801" inkscape:connector-curvature="0" id="path40" style="stroke:#000000;stroke-width:8;stroke-miterlimit:4;stroke-dasharray:none;fill:none;stroke-opacity:1"/>
      <path d="m 3019.2,150 -1065.6,0 -37.2,-3.602 -31.2,-7.199 -81.6,-18 -104.4,0 -28.8,14.403 -25.2,14.398 -10.8,10.801 -6,28.801 -3.6,45.597 6,33.602 31.2,22.801" inkscape:connector-curvature="0" id="path42" style="stroke:#000000;stroke-width:8;stroke-miterlimit:4;stroke-dasharray:none;fill:none;stroke-opacity:1"/>
      <path d="m 1767.6,289.199 -49.2,-3.597 -45.6,3.597 -48,13.199 -25.2,18 -14.4,16.801 -2.4,16.801 62.4,-16.801 158.4,-2.398 45.6,-14.403 64.8,-57.597 22.8,-2.403 25.2,6 51.6,10.801 133.2,25.199 127.2,18 116.4,2.403 L 2542.8,312 2676,294 2803.2,266.398" inkscape:connector-curvature="0" id="path44" style="stroke:#000000;stroke-width:8;stroke-miterlimit:4;stroke-dasharray:none;fill:none;stroke-opacity:1"/>
      <path d="m 3019.2,150 -22.8,538.801 -150,0 -39.6,-422.403" inkscape:connector-curvature="0" id="path46" style="stroke:#000000;stroke-width:8;stroke-miterlimit:4;stroke-dasharray:none;fill:none;stroke-opacity:1"/>
    </g>
  </g>
</svg>
