<?xml version="1.0" encoding="UTF-8"?>
<!-- Created with Inkscape (http://www.inkscape.org/) -->
<svg xmlns:dc="http://purl.org/dc/elements/1.1/" xmlns:cc="http://creativecommons.org/ns#" xmlns:rdf="http://www.w3.org/1999/02/22-rdf-syntax-ns#" xmlns:svg="http://www.w3.org/2000/svg" xmlns="http://www.w3.org/2000/svg" xmlns:inkscape="http://www.inkscape.org/namespaces/inkscape" version="1.1" width="765" height="990" id="svg2" xml:space="preserve">
  <metadata id="metadata8">
    <rdf:RDF>
      <cc:Work rdf:about="">
        <dc:format>image/svg+xml</dc:format>
        <dc:type rdf:resource="http://purl.org/dc/dcmitype/StillImage"/>
      </cc:Work>
    </rdf:RDF>
  </metadata>
  <defs id="defs6"/>
  <g transform="matrix(1.25,0,0,-1.25,0,990)" id="g10">
    <g transform="scale(0.1,0.1)" id="g12">
      <path d="m 289.199,978 709.199,0 0,-28.801 27.602,-4.801 44.4,-13.199 30,-19.199 40.8,-27.602 34.8,-37.199 32.4,-44.398 24,-44.403 20.4,-56.398 14.4,-56.398 6,-92.403 -6,-49.199 -21.6,-56.398 -25.2,-25.204 -21.6,-4.796 -32.4,2.398 -25.2,20.398 -12,26.403 -4.8,27.597 -2.4,21.602 7.2,72 9.6,79.199 -7.2,81.602 -21.6,58.801 -30,46.796 -30,34.801 -34.8,13.199 -16.802,0 0,-25.199 -93.597,0 0,-49.199 -138,0 0,49.199 -250.801,0 0,-49.199 -133.199,0 0,49.199 -93.602,0" inkscape:connector-curvature="0" id="path14" style="stroke:#000000;stroke-width:8;stroke-miterlimit:4;stroke-dasharray:none;fill:none;stroke-opacity:1"/>
      <path d="m 331.199,978 91.199,445.2 16.801,28.8 10.801,8.4 14.398,4.8 20.403,0 21.597,-12 4.801,-13.2 0,-16.8" inkscape:connector-curvature="0" id="path16" style="stroke:#000000;stroke-width:8;stroke-miterlimit:4;stroke-dasharray:none;fill:none;stroke-opacity:1"/>
      <path d="m 420,978 93.602,447.6 12,20.4 10.796,12 21.602,4.8 20.398,-7.2 12,-9.6 7.204,-13.2" inkscape:connector-curvature="0" id="path18" style="stroke:#000000;stroke-width:8;stroke-miterlimit:4;stroke-dasharray:none;fill:none;stroke-opacity:1"/>
      <path d="m 504,978 91.199,445.2 9.602,21.6 15.597,13.2 19.204,2.4 20.398,-2.4 16.801,-13.2 4.801,-19.2" inkscape:connector-curvature="0" id="path20" style="stroke:#000000;stroke-width:8;stroke-miterlimit:4;stroke-dasharray:none;fill:none;stroke-opacity:1"/>
      <path d="m 588,978 91.199,440.4 14.403,26.4 15.597,13.2 28.801,2.4 8.398,-2.4 14.403,-8.4 6,-24" inkscape:connector-curvature="0" id="path22" style="stroke:#000000;stroke-width:8;stroke-miterlimit:4;stroke-dasharray:none;fill:none;stroke-opacity:1"/>
      <path d="m 676.801,978 88.801,438 8.398,24 9.602,13.2 21.597,9.6 25.199,-4.8 19.204,-12 6,-15.6" inkscape:connector-curvature="0" id="path24" style="stroke:#000000;stroke-width:8;stroke-miterlimit:4;stroke-dasharray:none;fill:none;stroke-opacity:1"/>
      <path d="m 766.801,978 85.199,435.6 6,24 14.398,18 24,4.8 3.602,2.4 21.602,-9.6 13.199,-13.2 0,-14.4" inkscape:connector-curvature="0" id="path26" style="stroke:#000000;stroke-width:8;stroke-miterlimit:4;stroke-dasharray:none;fill:none;stroke-opacity:1"/>
      <path d="m 847.199,978 87.602,450 9.597,18 12,12 14.403,2.4 20.398,0 19.201,-7.2 9.6,-13.2 3.6,-24 -91.202,-438 -643.199,0 0,-31.199 -32.398,-3.602 L 212.398,928.801 180,909.602 142.801,879.602 108,842.398 54,751.199 37.1992,697.199 21.6016,642 l -7.2032,-93.602 7.2032,-49.199 22.7968,-54 26.4024,-25.199 18,-4.801 33.5972,2.403 26.403,21.597 9.597,25.199 4.801,27.602 2.403,21.602 -7.204,72 -10.796,79.199 7.199,79.199 18,58.801 30,49.199 31.199,34.801 32.398,13.199 22.801,2.398 0,-20.398" inkscape:connector-curvature="0" id="path28" style="stroke:#000000;stroke-width:8;stroke-miterlimit:4;stroke-dasharray:none;fill:none;stroke-opacity:1"/>
      <path d="m 628.801,558 -27.602,-14.398 -21.597,-25.204 -6,-21.597 -4.801,-20.403 L 576,444 l 15.602,-21.602 16.796,-13.199 27.602,-9.597 20.398,-7.204 26.403,0 27.597,10.801 24,12 13.204,16.801 16.796,22.801 12,28.801 6,22.796 3.602,24 -3.602,15.602 -3.597,28.801 -12,22.801 -19.199,24 -18,15.597 -16.801,7.199 -15.602,7.204 -24,2.398 -18,2.398 -24,0 -27.597,-2.398 -30,-9.602 L 547.199,630 531.602,615.602 512.398,600 498,583.199 484.801,558 l -14.403,-25.199 -4.796,-24 L 462,476.398 458.398,444 462,417.602 463.199,380.398 477.602,343.199 498,301.199 535.199,252 594,195.602 678,128.398 859.199,25.1992" inkscape:connector-curvature="0" id="path30" style="stroke:#000000;stroke-width:8;stroke-miterlimit:4;stroke-dasharray:none;fill:none;stroke-opacity:1"/>
      <path d="m 2702.4,217.199 0,889.201 -19.2,3.6 -15.6,15.6 -13.2,15.6 -6,32.4 -13.2,38.4 -9.6,34.8 -19.2,32.4 -12,19.2 -13.2,9.6 -28.8,3.6 13.2,22.8 25.2,9.6 28.8,2.4 13.2,-6 13.2,-3.6 8.4,22.8 19.2,38.4 19.2,31.2 22.8,26.4 28.8,-32.4 25.2,-38.4 16.8,-28.8 2.4,-19.2 22.8,9.6 28.8,0 28.8,-6 15.6,-16.8 -44.4,-15.6 -13.2,-15.6 -15.6,-22.8 -6,-28.8 -10.8,-44.4 -2.4,-38.4 -15.6,-34.8 -22.8,-13.2 -19.2,-3.6 -32.4,0" inkscape:connector-curvature="0" id="path32" style="stroke:#000000;stroke-width:8;stroke-miterlimit:4;stroke-dasharray:none;fill:none;stroke-opacity:1"/>
      <path d="m 2740.8,1106.4 0,-889.201" inkscape:connector-curvature="0" id="path34" style="stroke:#000000;stroke-width:8;stroke-miterlimit:4;stroke-dasharray:none;fill:none;stroke-opacity:1"/>
      <path d="m 2646,1334.4 25.2,-22.8 18,-19.2 16.8,-25.2 9.6,-20.4 7.2,-15.6 6,32.4 12,19.2 13.2,21.6 15.6,13.2 13.2,16.8 12,6" inkscape:connector-curvature="0" id="path36" style="stroke:#000000;stroke-width:8;stroke-miterlimit:4;stroke-dasharray:none;fill:none;stroke-opacity:1"/>
      <path d="m 1881.6,217.199 0,553.199 -26.4,9.602 -8.4,9.602 -16.8,16.796 -9.6,25.204 0,22.796 48,210.002 6,16.8 7.2,6 6,3.6 6,0 16.8,-9.6 6,-13.2 61.2,-220.801 0,-28.801 -13.2,-18 -9.6,-10.796 -9.6,-6 -9.6,-9.602 -12,-3.602 0,-553.199" inkscape:connector-curvature="0" id="path38" style="stroke:#000000;stroke-width:8;stroke-miterlimit:4;stroke-dasharray:none;fill:none;stroke-opacity:1"/>
      <path d="m 2424,217.199 0,562.801 -15.6,7.199 -15.6,6 -15.6,19.199 -13.2,25.204 2.4,22.796 3.6,19.204 48,184.798 6,19.2 7.2,10.8 6,2.4 6,0 7.2,-6 9.6,-15.6 60,-211.2 0,-32.398 -6,-22.801 -9.6,-15.602 -6,-6 -13.2,-3.597 -19.2,-3.602 0,-562.801" inkscape:connector-curvature="0" id="path40" style="stroke:#000000;stroke-width:8;stroke-miterlimit:4;stroke-dasharray:none;fill:none;stroke-opacity:1"/>
      <path d="m 2158.8,217.199 0,889.201 -18,3.6 -16.8,15.6 -12,15.6 -7.2,32.4 -15.6,38.4 -6,34.8 -19.2,32.4 -13.2,19.2 -13.2,9.6 -31.2,3.6 15.6,22.8 25.2,9.6 25.2,2.4 16.8,-6 12,-3.6 10.8,22.8 18,38.4 19.2,31.2 22.8,26.4 28.8,-32.4 25.2,-38.4 13.2,-28.8 3.6,-19.2 25.2,9.6 25.2,0 32.4,-6 13.2,-16.8 -42,-15.6 -15.6,-15.6 -13.2,-22.8 -6,-28.8 -9.6,-44.4 -6,-38.4 -20.4,-34.8 -15.6,-13.2 -19.2,-3.6 -32.4,0" inkscape:connector-curvature="0" id="path42" style="stroke:#000000;stroke-width:8;stroke-miterlimit:4;stroke-dasharray:none;fill:none;stroke-opacity:1"/>
      <path d="m 2194.8,1106.4 0,-889.201" inkscape:connector-curvature="0" id="path44" style="stroke:#000000;stroke-width:8;stroke-miterlimit:4;stroke-dasharray:none;fill:none;stroke-opacity:1"/>
      <path d="m 2101.2,1334.4 26.4,-22.8 15.6,-19.2 19.2,-25.2 7.2,-20.4 6,-15.6 9.6,32.4 9.6,19.2 15.6,21.6 13.2,13.2 15.6,16.8 9.6,6" inkscape:connector-curvature="0" id="path46" style="stroke:#000000;stroke-width:8;stroke-miterlimit:4;stroke-dasharray:none;fill:none;stroke-opacity:1"/>
      <path d="m 1606.8,217.199 0,889.201 -19.2,3.6 -16.8,15.6 -12,15.6 -7.2,32.4 -12,38.4 -9.6,34.8 -16.8,32.4 -15.6,19.2 -13.2,9.6 -28.8,3.6 16.8,22.8 25.2,9.6 26.4,2.4 15.6,-6 8.4,-3.6 13.2,22.8 19.2,38.4 15.6,31.2 22.8,26.4 28.8,-32.4 28.8,-38.4 13.2,-28.8 3.6,-19.2 21.6,9.6 28.8,0 28.8,-6 15.6,-16.8 -44.4,-15.6 -13.2,-15.6 -15.6,-22.8 -2.4,-28.8 -13.2,-44.4 -3.6,-38.4 -15.6,-34.8 -19.2,-13.2 -19.2,-3.6 -34.8,0" inkscape:connector-curvature="0" id="path48" style="stroke:#000000;stroke-width:8;stroke-miterlimit:4;stroke-dasharray:none;fill:none;stroke-opacity:1"/>
      <path d="m 1644,1106.4 0,-889.201" inkscape:connector-curvature="0" id="path50" style="stroke:#000000;stroke-width:8;stroke-miterlimit:4;stroke-dasharray:none;fill:none;stroke-opacity:1"/>
      <path d="m 1548,1334.4 26.4,-22.8 19.2,-19.2 19.2,-25.2 6,-20.4 6,-15.6 10.8,32.4 8.4,19.2 13.2,21.6 15.6,13.2 16.8,16.8 9.6,6" inkscape:connector-curvature="0" id="path52" style="stroke:#000000;stroke-width:8;stroke-miterlimit:4;stroke-dasharray:none;fill:none;stroke-opacity:1"/>
      <path d="m 2811.6,15.6016 28.8,9.5976 25.2,13.1992 16.8,25.2032 6,25.1992 3.6,49.1992 -9.6,21.602 -19.2,28.796 -16.8,13.204 -19.2,8.398 -44.4,7.199 -1224,0 -39.6,-2.398 -18,-7.199 -16.8,-13.204 -19.2,-25.199 -12,-44.398 9.6,-51.6018 12,-19.1992 22.8,-19.1992 21.6,-13.1992 26.4,-6 1260,0" inkscape:connector-curvature="0" id="path54" style="stroke:#000000;stroke-width:8;stroke-miterlimit:4;stroke-dasharray:none;fill:none;stroke-opacity:1"/>
      <path d="m 4698,1240.8 -9.6,32.4 -6,25.2 -32.4,6 -115.2,-9.6 -192,-15.6 -242.4,0 -109.2,19.2 -111.6,25.2 -99.6,26.4 -69.6,25.2 -44.4,19.2 -74.4,45.6 -25.2,12 -22.8,-2.4 -6,-28.8 51.6,-51.6 25.2,-19.2 54,-34.8 124.8,-36 -118.8,-57.6 -150,-54 -82.8,-15.6 -63.6,34.8 -74.4,67.2 -40.8,50.4 -42,58.8 -22.8,37.2 -25.2,32.4 -12,25.2 -10.8,0 -8.4,-12 0,-25.2 28.8,-70.8 40.8,-63.6 51.6,-70.8 57.6,-51.6 63.6,-44.4 -124.8,-25.2 -86.4,9.6 -25.2,-3.6 0,-13.2 13.2,-25.2 63.6,-26.4 57.6,0 127.2,20.4 122.4,31.2 127.2,45.6 115.2,50.4 102,51.6 44.4,-3.6 45.6,-2.4 108,-13.2 -88.8,-26.4 -73.2,-44.4 -22.8,-32.4 12,-15.6 51.6,9.6 44.4,19.2 32.4,19.2 67.2,19.2 82.8,22.8 92.4,0 80.4,2.4 310.8,16.8 25.2,9.6 9.6,25.2" inkscape:connector-curvature="0" id="path56" style="stroke:#000000;stroke-width:8;stroke-miterlimit:4;stroke-dasharray:none;fill:none;stroke-opacity:1"/>
      <path d="m 3256.8,18 38.4,13.1992 38.4,25.1992 19.2,44.4026 0,51.597 -19.2,45.602 -38.4,21.602 -51.6,6 -50.4,-19.204 -19.2,-21.597 -13.2,-38.403 3.6,-64.7964 34.8,-38.4024 32.4,-19.1992 25.2,-6" inkscape:connector-curvature="0" id="path58" style="stroke:#000000;stroke-width:8;stroke-miterlimit:4;stroke-dasharray:none;fill:none;stroke-opacity:1"/>
      <path d="m 3934.8,18 31.2,6 39.6,19.1992 18,28.8008 10.8,55.199 -13.2,57.602 -48,40.801 -48,3.597 L 3883.2,216 3852,184.801 3838.8,140.398 3838.8,108 3852,63.6016 3883.2,31.1992 3934.8,18" inkscape:connector-curvature="0" id="path60" style="stroke:#000000;stroke-width:8;stroke-miterlimit:4;stroke-dasharray:none;fill:none;stroke-opacity:1"/>
      <path d="m 4618.8,18 44.4,13.1992 38.4,38.4024 15.6,54.0004 -15.6,54 -28.8,36 -34.8,12 -38.4,-2.403 -54,-22.801 -22.8,-31.199 -6,-28.801 6,-58.7964 28.8,-38.4024 28.8,-19.1992 34.8,-2.3984" inkscape:connector-curvature="0" id="path62" style="stroke:#000000;stroke-width:8;stroke-miterlimit:4;stroke-dasharray:none;fill:none;stroke-opacity:1"/>
    </g>
  </g>
</svg>
