<?xml version="1.0" encoding="UTF-8"?>
<!-- Created with Inkscape (http://www.inkscape.org/) -->
<svg xmlns:dc="http://purl.org/dc/elements/1.1/" xmlns:cc="http://creativecommons.org/ns#" xmlns:rdf="http://www.w3.org/1999/02/22-rdf-syntax-ns#" xmlns:svg="http://www.w3.org/2000/svg" xmlns="http://www.w3.org/2000/svg" xmlns:inkscape="http://www.inkscape.org/namespaces/inkscape" version="1.1" width="765" height="990" id="svg2" xml:space="preserve">
  <metadata id="metadata8">
    <rdf:RDF>
      <cc:Work rdf:about="">
        <dc:format>image/svg+xml</dc:format>
        <dc:type rdf:resource="http://purl.org/dc/dcmitype/StillImage"/>
      </cc:Work>
    </rdf:RDF>
  </metadata>
  <defs id="defs6"/>
  <g transform="matrix(1.25,0,0,-1.25,0,990)" id="g10">
    <g transform="scale(0.1,0.1)" id="g12">
      <path d="M 2493.6,1452 2478,1129.2 2472,854.398 2464.8,643.199 2449.2,492 2436,348 l 7.2,-153.602 8.4,-48 7.2,-37.199 -3.6,-39.5974 -19.2,-25.2032 -28.8,-19.1992 -34.8,-6 -64.8,15.6016 -25.2,19.1992 -40.8,9.6016 -97.2,-48 -396,3.5976 -15.6,50.4024 12,26.3984 36,6 138,28.801 114,57.597 76.8,28.801 67.2,15.602 48,42 16.8,40.801 2.4,45.597 -6,67.199 -3.6,90 -6,242.403 -3.6,243.599 -25.2,450 294,0" inkscape:connector-curvature="0" id="path14" style="stroke:#000000;stroke-width:8;stroke-miterlimit:4;stroke-dasharray:none;fill:none;stroke-opacity:1"/>
      <path d="m 340.801,876 0,-860.3984 67.199,0 L 408,876" inkscape:connector-curvature="0" id="path16" style="stroke:#000000;stroke-width:8;stroke-miterlimit:4;stroke-dasharray:none;fill:none;stroke-opacity:1"/>
      <path d="m 14.3984,879.602 718.8006,0 0,226.798 -13.199,25.2 -12,16.8 -31.199,0 -20.403,-3.6 -19.199,-13.2 -63.597,-57.6 -57.602,-50.4 -44.398,-22.8 -54,-11.999 L 372,984 l -40.801,4.801 -54,11.999 -45.597,22.8 -57.602,50.4 -63.602,57.6 -19.1988,13.2 -19.1992,3.6 -32.3984,0 -13.2032,-16.8 -12,-25.2 0,-226.798" inkscape:connector-curvature="0" id="path18" style="stroke:#000000;stroke-width:8;stroke-miterlimit:4;stroke-dasharray:none;fill:none;stroke-opacity:1"/>
      <path d="m 506.398,1023.6 -57.597,376.8 -25.199,32.4 -19.204,13.2 -25.199,8.4 -9.597,0 -26.403,-8.4 -18,-13.2 -26.398,-32.4 -57.602,-376.8" inkscape:connector-curvature="0" id="path20" style="stroke:#000000;stroke-width:8;stroke-miterlimit:4;stroke-dasharray:none;fill:none;stroke-opacity:1"/>
      <path d="M 1164,795.602 1579.2,1195.2" inkscape:connector-curvature="0" id="path22" style="stroke:#000000;stroke-width:8;stroke-miterlimit:4;stroke-dasharray:none;fill:none;stroke-opacity:1"/>
      <path d="M 1014,853.199 1525.2,1342.8" inkscape:connector-curvature="0" id="path24" style="stroke:#000000;stroke-width:8;stroke-miterlimit:4;stroke-dasharray:none;fill:none;stroke-opacity:1"/>
      <path d="M 914.398,958.801 1425.6,1448.4" inkscape:connector-curvature="0" id="path26" style="stroke:#000000;stroke-width:8;stroke-miterlimit:4;stroke-dasharray:none;fill:none;stroke-opacity:1"/>
      <path d="m 864,1108.8 408,390" inkscape:connector-curvature="0" id="path28" style="stroke:#000000;stroke-width:8;stroke-miterlimit:4;stroke-dasharray:none;fill:none;stroke-opacity:1"/>
      <path d="m 1371.6,1477.2 -34.8,8.4 -36,13.2 -37.2,6 -39.6,0 -40.8,-2.4 -34.8,-3.6 -38.4,-13.2 -34.8,-12 -36,-16.8 -32.4,-21.6 -25.198,-22.8 -25.204,-25.2 -19.199,-22.8 -19.199,-28.8 -22.801,-40.8 -9.597,-32.4 -9.602,-36 -6,-34.8 -6,-42 0,-34.8 6,-40.8 9.602,-36 9.597,-31.2 15.602,-35.999 9.597,-19.199 L 927.602,936 958.801,901.199 991.199,868.801 1020,846 l 34.8,-19.199 39.6,-18 37.2,-10.801 32.4,-9.602 38.4,0 38.4,-2.398 44.4,6 32.4,6 38.4,16.801 38.4,19.199 25.2,12 28.8,26.398 28.8,25.204 28.8,28.796 22.8,34.801 22.8,32.403 15.6,32.398 9.6,37.2 2.4,36 7.2,42 -3.6,34.8 -3.6,42 -9.6,34.8 -12,31.2 -16.8,42 -21.6,32.4 -22.8,25.2 -25.2,32.4 -32.4,21.6 -32.4,22.8 -34.8,16.8" inkscape:connector-curvature="0" id="path30" style="stroke:#000000;stroke-width:8;stroke-miterlimit:4;stroke-dasharray:none;fill:none;stroke-opacity:1"/>
      <path d="M 1590,648 1317.6,373.199" inkscape:connector-curvature="0" id="path32" style="stroke:#000000;stroke-width:8;stroke-miterlimit:4;stroke-dasharray:none;fill:none;stroke-opacity:1"/>
      <path d="M 1231.2,286.801 960,12 873.602,98.3984 1148.4,373.199" inkscape:connector-curvature="0" id="path34" style="stroke:#000000;stroke-width:8;stroke-miterlimit:4;stroke-dasharray:none;fill:none;stroke-opacity:1"/>
      <path d="M 1231.2,457.199 1507.2,732 1590,648" inkscape:connector-curvature="0" id="path36" style="stroke:#000000;stroke-width:8;stroke-miterlimit:4;stroke-dasharray:none;fill:none;stroke-opacity:1"/>
      <path d="M 873.602,645.602 1507.2,15.6016 1592.4,98.3984 956.398,732 873.602,645.602" inkscape:connector-curvature="0" id="path38" style="stroke:#000000;stroke-width:8;stroke-miterlimit:4;stroke-dasharray:none;fill:none;stroke-opacity:1"/>
      <path d="m 2887.2,439.199 45.6,-111.597 -28.8,-6 -45.6,117.597" inkscape:connector-curvature="0" id="path40" style="stroke:#000000;stroke-width:8;stroke-miterlimit:4;stroke-dasharray:none;fill:none;stroke-opacity:1"/>
      <path d="m 2775.6,682.801 -121.2,364.799 -7.2,51.6 3.6,31.2 19.2,22.8 32.4,19.2 48,12 38.4,-6 38.4,-25.2 28.8,-51.6 2.4,-54 -2.4,-22.8 -9.6,-28.8 -16.8,-19.199 -18,7.199 8.4,34.8 3.6,25.2 -3.6,28.8 -2.4,16.8 -19.2,31.2 -28.8,22.8 -28.8,0 -28.8,-7.2 -16.8,-18 -15.6,-32.4 3.6,-26.4 128.4,-376.799" inkscape:connector-curvature="0" id="path42" style="stroke:#000000;stroke-width:8;stroke-miterlimit:4;stroke-dasharray:none;fill:none;stroke-opacity:1"/>
      <path d="m 4252.8,471.602 -1202.4,0 -40.8,-3.602 -36,-8.398 -92.4,-20.403 -117.6,0 -32.4,16.801 -28.8,15.602 -13.2,13.199 -6,32.398 -3.6,50.403 7.2,38.398 34.8,25.199" inkscape:connector-curvature="0" id="path44" style="stroke:#000000;stroke-width:8;stroke-miterlimit:4;stroke-dasharray:none;fill:none;stroke-opacity:1"/>
      <path d="m 2840.4,628.801 -55.2,-3.602 -50.4,3.602 -55.2,15.597 -28.8,19.204 -15.6,19.199 -3.6,19.199 70.8,-19.199 178.8,-3.602 51.6,-15.597 73.2,-63.602 25.2,-3.602 28.8,6 57.6,13.204 151.2,28.796 142.8,19.204 132,3.597 172.8,-13.199 150,-19.199 144,-32.403" inkscape:connector-curvature="0" id="path46" style="stroke:#000000;stroke-width:8;stroke-miterlimit:4;stroke-dasharray:none;fill:none;stroke-opacity:1"/>
      <path d="m 4252.8,471.602 -25.2,607.198 -170.4,0 -44.4,-476.402" inkscape:connector-curvature="0" id="path48" style="stroke:#000000;stroke-width:8;stroke-miterlimit:4;stroke-dasharray:none;fill:none;stroke-opacity:1"/>
    </g>
  </g>
</svg>
