<?xml version="1.0" encoding="UTF-8"?>
<!-- Created with Inkscape (http://www.inkscape.org/) -->
<svg xmlns:dc="http://purl.org/dc/elements/1.1/" xmlns:cc="http://creativecommons.org/ns#" xmlns:rdf="http://www.w3.org/1999/02/22-rdf-syntax-ns#" xmlns:svg="http://www.w3.org/2000/svg" xmlns="http://www.w3.org/2000/svg" xmlns:inkscape="http://www.inkscape.org/namespaces/inkscape" version="1.1" width="765" height="990" id="svg2" xml:space="preserve">
  <metadata id="metadata8">
    <rdf:RDF>
      <cc:Work rdf:about="">
        <dc:format>image/svg+xml</dc:format>
        <dc:type rdf:resource="http://purl.org/dc/dcmitype/StillImage"/>
      </cc:Work>
    </rdf:RDF>
  </metadata>
  <defs id="defs6"/>
  <g transform="matrix(1.25,0,0,-1.25,0,990)" id="g10">
    <g transform="scale(0.1,0.1)" id="g12">
      <path d="m 300,955.199 728.4,0 0,-28.801 28.8,-3.597 45.6,-14.403 31.2,-20.398 39.6,-27.602 36,-38.398 33.6,-45.602 24,-45.597 21.6,-57.602 14.4,-57.597 7.2,-96 -7.2,-50.403 -21.6,-57.597 -26.4,-25.204 -21.6,-4.796 -33.6,1.199 -26.4,22.801 -12,26.398 -4.8,27.602 -2.4,22.796 7.2,73.204 9.6,81.597 -7.2,84 -21.6,60 -31.2,48 -31.2,36 -34.8,14.403 -16.8,0 0,-27.602 -96.002,0 0,-49.199 -141.597,0 0,49.199 -258,0 0,-49.199 -136.801,0 0,49.199 -96,0" inkscape:connector-curvature="0" id="path14" style="stroke:#000000;stroke-width:8;stroke-miterlimit:4;stroke-dasharray:none;fill:none;stroke-opacity:1"/>
      <path d="m 343.199,955.199 93.602,457.201 16.801,28.8 12,9.6 14.398,4.8 21.602,0 21.597,-12 4.801,-14.4 0,-16.8" inkscape:connector-curvature="0" id="path16" style="stroke:#000000;stroke-width:8;stroke-miterlimit:4;stroke-dasharray:none;fill:none;stroke-opacity:1"/>
      <path d="m 434.398,955.199 96,459.601 12,21.6 12,12 21.602,4.8 21.602,-7.2 10.796,-9.6 8.403,-14.4" inkscape:connector-curvature="0" id="path18" style="stroke:#000000;stroke-width:8;stroke-miterlimit:4;stroke-dasharray:none;fill:none;stroke-opacity:1"/>
      <path d="m 520.801,955.199 93.597,457.201 8.403,21.6 16.801,14.4 20.398,2.4 20.398,-2.4 16.801,-14.4 6,-19.2" inkscape:connector-curvature="0" id="path20" style="stroke:#000000;stroke-width:8;stroke-miterlimit:4;stroke-dasharray:none;fill:none;stroke-opacity:1"/>
      <path d="M 607.199,955.199 699.602,1407.6 714,1434 l 16.801,14.4 28.801,2.4 9.597,-2.4 14.403,-9.6 7.199,-24" inkscape:connector-curvature="0" id="path22" style="stroke:#000000;stroke-width:8;stroke-miterlimit:4;stroke-dasharray:none;fill:none;stroke-opacity:1"/>
      <path d="m 697.199,955.199 91.199,450.001 9.602,24 9.602,14.4 21.597,9.6 26.403,-4.8 19.199,-12 7.199,-16.8" inkscape:connector-curvature="0" id="path24" style="stroke:#000000;stroke-width:8;stroke-miterlimit:4;stroke-dasharray:none;fill:none;stroke-opacity:1"/>
      <path d="m 790.801,955.199 86.398,447.601 7.199,24 14.403,19.2 24,4.8 4.801,2.4 21.597,-9.6 13.199,-14.4 0,-14.4" inkscape:connector-curvature="0" id="path26" style="stroke:#000000;stroke-width:8;stroke-miterlimit:4;stroke-dasharray:none;fill:none;stroke-opacity:1"/>
      <path d="m 872.398,955.199 90,462.001 10.801,19.2 12,12 14.403,2.4 20.398,0 19.2,-7.2 9.6,-14.4 4.8,-24 L 961.199,955.199 300,955.199 300,924 266.398,919.199 222,906 188.398,885.602 150,854.398 114,817.199 58.8008,723.602 42,668.398 25.1992,610.801 18,514.801 l 7.1992,-49.199 24,-55.204 26.4024,-27.597 19.1992,-3.602 33.5972,2.403 28.801,21.597 9.602,25.199 4.801,28.801 L 174,480 l -7.199,73.199 -12,81.602 7.199,81.597 18,60 32.398,49.204 31.204,37.199 33.597,14.398 22.801,2.403 0,-22.801" inkscape:connector-curvature="0" id="path28" style="stroke:#000000;stroke-width:8;stroke-miterlimit:4;stroke-dasharray:none;fill:none;stroke-opacity:1"/>
      <path d="M 656.398,562.801 627.602,548.398 606,522 598.801,500.398 594,478.801 601.199,445.199 618,423.602 l 16.801,-14.403 28.801,-9.597 21.597,-7.204 26.403,0 28.796,12 24,12 13.204,16.801 18,24 10.796,28.801 8.403,24 2.398,24 -2.398,16.801 -6,28.801 -10.801,24 -20.398,22.796 -18,16.801 -16.801,8.403 -16.801,6 -24,3.597 -19.199,2.403 -24,0 L 630,661.199 598.801,651.602 572.398,637.199 555.602,622.801 536.398,606 522,589.199 l -14.398,-26.398 -14.403,-26.403 -3.597,-24 -6,-33.597 -2.403,-33.602 2.403,-26.398 L 486,380.398 500.398,342 522,298.801 l 38.398,-49.199 60,-57.602 86.403,-69.602 186,-105.5972" inkscape:connector-curvature="0" id="path30" style="stroke:#000000;stroke-width:8;stroke-miterlimit:4;stroke-dasharray:none;fill:none;stroke-opacity:1"/>
      <path d="m 3046.8,345.602 -1062,0 -63.6,-22.801 -63.6,-16.801 -63.6,-6 -74.4,0 -75.6,19.199 -36,15.602 -25.2,10.801 -63.6,44.398 -20.4,25.199 -6,32.403 32.4,12 38.4,-19.204 63.6,-40.796 45.6,-16.801 66,-12 42,0 44.4,6 51.6,19.199 -13.2,25.199 -25.2,0 -60,-6 -61.2,6 -44.4,26.403 18,34.796 45.6,-15.597 37.2,0 39.6,6 34.8,7.199 36,0 46.8,-13.199 51.6,-32.403 165.6,25.204 124.8,20.398 128.4,6 144,-6 117.6,-7.199 103.2,-9.602 63.6,-3.597 31.2,460.796 153.6,0 36,-574.796" inkscape:connector-curvature="0" id="path32" style="stroke:#000000;stroke-width:8;stroke-miterlimit:4;stroke-dasharray:none;fill:none;stroke-opacity:1"/>
      <path d="m 2212.8,1296 0,-576 127.2,0 0,576 -127.2,0" inkscape:connector-curvature="0" id="path34" style="stroke:#000000;stroke-width:8;stroke-miterlimit:4;stroke-dasharray:none;fill:none;stroke-opacity:1"/>
    </g>
  </g>
</svg>
