<?xml version="1.0" encoding="UTF-8"?>
<!-- Created with Inkscape (http://www.inkscape.org/) -->
<svg xmlns:dc="http://purl.org/dc/elements/1.1/" xmlns:cc="http://creativecommons.org/ns#" xmlns:rdf="http://www.w3.org/1999/02/22-rdf-syntax-ns#" xmlns:svg="http://www.w3.org/2000/svg" xmlns="http://www.w3.org/2000/svg" xmlns:inkscape="http://www.inkscape.org/namespaces/inkscape" version="1.1" width="765" height="990" id="svg2" xml:space="preserve">
  <metadata id="metadata8">
    <rdf:RDF>
      <cc:Work rdf:about="">
        <dc:format>image/svg+xml</dc:format>
        <dc:type rdf:resource="http://purl.org/dc/dcmitype/StillImage"/>
      </cc:Work>
    </rdf:RDF>
  </metadata>
  <defs id="defs6"/>
  <g transform="matrix(1.25,0,0,-1.25,0,990)" id="g10">
    <g transform="scale(0.1,0.1)" id="g12">
      <path d="m 128.398,436.801 16.801,-1.199 27.602,4.796 8.398,2.403 21.602,9.597 12,10.801 13.199,18 8.398,18 9.602,79.199 12,26.403 10.801,15.597 2.398,7.204 L 268.801,630 252,616.801 238.801,591.602 222,523.199 l -4.801,-26.398 -6,-8.403 -7.199,-9.597 -12,-9.602 -16.801,-7.199 -16.801,-2.398 -22.796,-1.204 -9.602,0 -18,2.403 L 91.1992,468 72,484.801 61.1992,501.602 57.6016,528 43.1992,592.801 32.3984,618 18,633.602 l -3.6016,0 0,-7.204 L 30,601.199 l 6,-34.801 10.8008,-79.199 12,-18 16.8008,-15.597 16.7968,-10.801 10.8006,-2.403 24,-3.597" inkscape:connector-curvature="0" id="path14" style="stroke:#000000;stroke-width:8;stroke-miterlimit:4;stroke-dasharray:none;fill:none;stroke-opacity:1"/>
      <path d="m 157.199,439.199 -3.597,-18" inkscape:connector-curvature="0" id="path16" style="stroke:#000000;stroke-width:8;stroke-miterlimit:4;stroke-dasharray:none;fill:none;stroke-opacity:1"/>
      <path d="m 122.398,422.398 -1.199,16.801" inkscape:connector-curvature="0" id="path18" style="stroke:#000000;stroke-width:8;stroke-miterlimit:4;stroke-dasharray:none;fill:none;stroke-opacity:1"/>
      <path d="m 133.199,12 7.199,0 4.801,6 7.199,6 2.403,7.1992 3.597,13.1992 2.403,14.4024 3.597,24 1.204,19.1992 -1.204,14.398 -1.199,20.403 -2.398,22.801 -2.403,21.597 -15.597,150" inkscape:connector-curvature="0" id="path20" style="stroke:#000000;stroke-width:8;stroke-miterlimit:4;stroke-dasharray:none;fill:none;stroke-opacity:1"/>
      <path d="m 129.602,331.199 19.199,0 9.597,2.403 4.801,3.597 3.602,7.199 2.398,10.801 2.403,7.199 2.398,8.403 2.398,6 2.403,3.597 7.199,7.204 8.398,6 6,2.398 3.602,1.199 2.398,1.199 1.204,3.602 0,3.602 -6,3.597 L 186,414 l -14.398,3.602 -30,3.597 -14.403,0 L 102,420 l -10.8008,-3.602 -15.5976,-6 -12,-4.796 -1.2032,-7.204 2.4024,-2.398 8.3984,-1.199 9.6016,-6 7.1992,-8.403 4.8008,-4.796 4.8008,-15.602 1.1994,-10.801 2.398,-6 4.801,-6 6,-4.801 4.801,-1.199 8.398,0 -3.597,-15.597 L 110.398,174 106.801,130.801 104.398,108 l 2.403,-19.1992 0,-18 4.801,-22.8008 3.597,-14.3984 3.602,-8.4024 2.398,-6 4.801,-4.8008 4.801,-1.1992" inkscape:connector-curvature="0" id="path22" style="stroke:#000000;stroke-width:8;stroke-miterlimit:4;stroke-dasharray:none;fill:none;stroke-opacity:1"/>
    </g>
  </g>
</svg>
