<?xml version="1.0" encoding="UTF-8"?>
<!-- Created with Inkscape (http://www.inkscape.org/) -->
<svg xmlns:dc="http://purl.org/dc/elements/1.1/" xmlns:cc="http://creativecommons.org/ns#" xmlns:rdf="http://www.w3.org/1999/02/22-rdf-syntax-ns#" xmlns:svg="http://www.w3.org/2000/svg" xmlns="http://www.w3.org/2000/svg" xmlns:inkscape="http://www.inkscape.org/namespaces/inkscape" version="1.1" width="765" height="990" id="svg2" xml:space="preserve">
  <metadata id="metadata8">
    <rdf:RDF>
      <cc:Work rdf:about="">
        <dc:format>image/svg+xml</dc:format>
        <dc:type rdf:resource="http://purl.org/dc/dcmitype/StillImage"/>
      </cc:Work>
    </rdf:RDF>
  </metadata>
  <defs id="defs6"/>
  <g transform="matrix(1.25,0,0,-1.25,0,990)" id="g10">
    <g transform="scale(0.1,0.1)" id="g12">
      <path d="m 3178.8,535.199 -98.4,20.403 -70.8,12 -50.4,19.199 -63.6,25.199 -68.4,32.398 -124.8,70.801 -127.2,69.602 -63.6,22.801 -76.8,28.796 -76.8,13.204 -57.6,12 -69.6,0 -70.8,-9.602 -70.8,-21.602 -69.6,-36 -76.8,-56.398 -51.6,-49.199 -51.6,-31.199 -40.8,-28.801 -36,-9.602 -37.2,-15.597 -39.6,-13.204 -63.6,-9.597" inkscape:connector-curvature="0" id="path14" style="stroke:#000000;stroke-width:8;stroke-miterlimit:4;stroke-dasharray:none;fill:none;stroke-opacity:1"/>
      <path d="m 1689.6,592.801 54,0 48,3.597 48,-9.597 84,-19.199 63.6,-25.204 69.6,-15.597 76.8,-20.403 48,-8.398 86.4,-3.602 111.6,9.602 55.2,6 178.8,22.801 70.8,9.597 63.6,6 63.6,7.204 128.4,6 63.6,-6 54,-7.204 55.2,-6 28.8,0" inkscape:connector-curvature="0" id="path16" style="stroke:#000000;stroke-width:8;stroke-miterlimit:4;stroke-dasharray:none;fill:none;stroke-opacity:1"/>
      <path d="m 2073.6,817.199 -22.8,-32.398 -6,-25.199 -9.6,-32.403 -3.6,-31.199 13.2,-57.602 19.2,-28.796 19.2,-28.801 31.2,-25.199 36,-20.403 73.2,-8.398 54,6 42,6 51.6,36 31.2,37.199 16.8,28.801 8.4,61.199 -6,57.602 -15.6,32.398 -15.6,25.199 -32.4,32.403" inkscape:connector-curvature="0" id="path18" style="stroke:#000000;stroke-width:8;stroke-miterlimit:4;stroke-dasharray:none;fill:none;stroke-opacity:1"/>
      <path d="M 1281.6,891.602 1554,1153.2" inkscape:connector-curvature="0" id="path20" style="stroke:#000000;stroke-width:8;stroke-miterlimit:4;stroke-dasharray:none;fill:none;stroke-opacity:1"/>
      <path d="M 1183.2,928.801 1518,1250.4" inkscape:connector-curvature="0" id="path22" style="stroke:#000000;stroke-width:8;stroke-miterlimit:4;stroke-dasharray:none;fill:none;stroke-opacity:1"/>
      <path d="m 1117.2,998.398 336,320.402" inkscape:connector-curvature="0" id="path24" style="stroke:#000000;stroke-width:8;stroke-miterlimit:4;stroke-dasharray:none;fill:none;stroke-opacity:1"/>
      <path d="m 1083.6,1096.8 268.8,256.8" inkscape:connector-curvature="0" id="path26" style="stroke:#000000;stroke-width:8;stroke-miterlimit:4;stroke-dasharray:none;fill:none;stroke-opacity:1"/>
      <path d="m 1417.2,1338 -22.8,6 -22.8,9.6 -25.2,3.6 -25.2,0 -27.6,-2.4 -22.8,-1.2 -25.2,-9.6 -22.8,-8.4 -22.8,-9.6 -21.6,-14.4 -16.8,-15.6 -16.8,-16.8 -12,-14.4 -13.2,-19.2 -14.4,-26.4 -6,-21.6 -6,-22.8 -4.8,-22.8 -4.8,-27.6 0,-22.8 4.8,-27.6 6,-24 6,-20.4 10.8,-22.8 6,-11.999 9.6,-10.801 20.4,-24 21.6,-20.398 18,-14.403 22.8,-13.199 25.2,-12 25.2,-6 21.6,-6 25.2,0 25.2,-3.602 28.8,4.801 20.4,4.801 25.2,9.602 26.4,13.199 16.8,8.398 18,16.801 19.2,16.801 19.2,19.199 14.4,22.8 14.4,20.4 10.8,21.6 6,25.2 2.4,22.8 3.6,27.6 -1.2,22.8 -2.4,26.4 -7.2,24 -7.2,20.4 -10.8,27.6 -14.4,20.4 -15.6,18 -16.8,20.4 -20.4,14.4 -21.6,15.6 -22.8,9.6" inkscape:connector-curvature="0" id="path28" style="stroke:#000000;stroke-width:8;stroke-miterlimit:4;stroke-dasharray:none;fill:none;stroke-opacity:1"/>
      <path d="m 558,528 57.602,-163.199 0,-38.403 -7.204,-22.796 -102,-188.403 L 490.801,90 468,80.3984 446.398,69.6016 l -124.796,-6 -28.801,-6 -19.199,-13.2032 -13.204,-15.5976 -3.597,-9.6016 16.801,0 15.597,15.6016 16.801,0 6,-13.1992 117.602,7.1992 76.796,-9.6016 19.204,2.4024 13.199,22.7968 15.597,-28.7968 13.204,0 3.597,16.7968 -13.199,25.2032 -6,25.1992 15.602,42.0002 48,90 21.597,50.398 16.801,19.199 19.199,19.204 0,32.398 54,96" inkscape:connector-curvature="0" id="path30" style="stroke:#000000;stroke-width:8;stroke-miterlimit:4;stroke-dasharray:none;fill:none;stroke-opacity:1"/>
      <path d="m 554.398,988.801 -57.597,-36 -63.602,-18 -34.801,-20.403 -15.597,-27.597 12,-32.403 28.801,-42 54,-34.796 L 1302,534 l 42,-3.602 42,0 32.4,13.204 8.4,13.199 -19.2,15.597 L 1165.2,712.801 1011.6,822 954,879.602 915.602,918 l -38.403,25.199 -48,32.403 -44.398,28.798 -63.602,25.2 -44.398,10.8 -48,6 -57.602,-3.6 -42,-25.2 -54,-38.401 -20.398,-7.199 -21.602,3.602 -13.199,16.796 0,18.002 13.199,22.8 121.199,249.6 3.602,28.8 2.398,32.4 -2.398,31.2 -13.199,34.8 -15.602,26.4 -26.398,13.2 -27.602,6 -28.801,0 -32.398,-6 -31.199,-16.8 L 360,1410 l -13.199,-15.6 -13.199,-25.2 -6,-15.6 0,-32.4 13.199,-32.4 13.199,-13.2 28.801,-15.6 15.597,-6 25.204,-9.6 0,-25.2 -9.602,-51.6 -25.199,-51.6 -42,-44.4 -44.403,-44.4 -57.597,-63.598 -19.199,-42 -6,-48 6,-42 25.199,-48 67.199,-73.204 236.398,-180 130.801,-73.199 45.602,-32.398 L 762,393.602 790.801,342 813.602,297.602 852,124.801 852,102 836.398,92.3984 813.602,82.8008 650.398,61.1992 634.801,50.3984 l -13.199,-18 -2.403,-13.1992 12,-3.5976 16.801,25.1992 6,0 6,-25.1992 163.199,16.7968 57.602,-13.1992 15.597,6 3.602,19.1992 25.199,-22.7968 13.199,0 L 942,34.8008 938.398,48 l -25.199,25.1992 -16.801,35.9998 -9.597,165.602 9.597,32.398 -9.597,25.199 3.597,74.403 6,21.597 105.602,7.204 38.4,8.398" inkscape:connector-curvature="0" id="path32" style="stroke:#000000;stroke-width:8;stroke-miterlimit:4;stroke-dasharray:none;fill:none;stroke-opacity:1"/>
      <path d="m 1276.8,470.398 67.2,9.602 28.8,9.602 19.2,9.597 -3.6,9.602 -104.4,32.398" inkscape:connector-curvature="0" id="path34" style="stroke:#000000;stroke-width:8;stroke-miterlimit:4;stroke-dasharray:none;fill:none;stroke-opacity:1"/>
      <path d="m 925.199,607.199 194.401,-246 16.8,-15.597 16.8,-3.602 12,0 9.6,9.602 0,22.796" inkscape:connector-curvature="0" id="path36" style="stroke:#000000;stroke-width:8;stroke-miterlimit:4;stroke-dasharray:none;fill:none;stroke-opacity:1"/>
      <path d="M 1005.6,591.602 1171.2,378 l 16.8,-10.801 15.6,-2.398 13.2,6 6,9.597 0,9.602" inkscape:connector-curvature="0" id="path38" style="stroke:#000000;stroke-width:8;stroke-miterlimit:4;stroke-dasharray:none;fill:none;stroke-opacity:1"/>
      <path d="m 1072.8,578.398 150,-182.398 9.6,-9.602 13.2,-2.398 12,12 0,16.801" inkscape:connector-curvature="0" id="path40" style="stroke:#000000;stroke-width:8;stroke-miterlimit:4;stroke-dasharray:none;fill:none;stroke-opacity:1"/>
      <path d="m 1148.4,560.398 112.8,-147.597 15.6,-9.602 9.6,0 9.6,6 6,9.602 0,9.597 -85.2,118.801" inkscape:connector-curvature="0" id="path42" style="stroke:#000000;stroke-width:8;stroke-miterlimit:4;stroke-dasharray:none;fill:none;stroke-opacity:1"/>
      <path d="m 391.199,1359.6 7.199,13.2 12,8.4 15.602,3.6 13.199,-6 3.602,-13.2 -6,-9.6 -13.199,-9.6 -15.602,-2.4 -9.602,9.6 -3.597,19.2" inkscape:connector-curvature="0" id="path44" style="stroke:#000000;stroke-width:8;stroke-miterlimit:4;stroke-dasharray:none;fill:none;stroke-opacity:1"/>
      <path d="m 465.602,1094.4 246,-3.6 0,163.2 -13.204,48 -34.796,57.6 -26.403,28.8 -25.199,19.2 -22.801,15.6 -31.199,16.8 -22.801,6 -21.597,6 -19.204,0 -19.199,3.6" inkscape:connector-curvature="0" id="path46" style="stroke:#000000;stroke-width:8;stroke-miterlimit:4;stroke-dasharray:none;fill:none;stroke-opacity:1"/>
      <path d="M 337.199,1369.2 318,1353.6 l -19.199,-19.2 -25.199,-16.8 -42,-15.6 L 174,1267.2 123.602,1221.6 87.6016,1180.8 43.1992,1113.6 24,1046.4 14.3984,1008 l 0,-15.602 9.6016,-7.199 6,7.199 22.8008,56.402 44.3984,70.8 45.6018,61.2 37.199,34.8 45.602,32.4 54,25.2 34.796,9.6 26.403,6" inkscape:connector-curvature="0" id="path48" style="stroke:#000000;stroke-width:8;stroke-miterlimit:4;stroke-dasharray:none;fill:none;stroke-opacity:1"/>
      <path d="m 37.1992,994.801 15.6016,9.599 48.0002,70.8 31.199,44.4 42,48 48,36 44.398,21.6 39.602,19.2 76.801,6 27.597,-2.4" inkscape:connector-curvature="0" id="path50" style="stroke:#000000;stroke-width:8;stroke-miterlimit:4;stroke-dasharray:none;fill:none;stroke-opacity:1"/>
    </g>
  </g>
</svg>
