<?xml version="1.0" encoding="UTF-8"?>
<!-- Created with Inkscape (http://www.inkscape.org/) -->
<svg xmlns:dc="http://purl.org/dc/elements/1.1/" xmlns:cc="http://creativecommons.org/ns#" xmlns:rdf="http://www.w3.org/1999/02/22-rdf-syntax-ns#" xmlns:svg="http://www.w3.org/2000/svg" xmlns="http://www.w3.org/2000/svg" xmlns:inkscape="http://www.inkscape.org/namespaces/inkscape" version="1.1" width="765" height="990" id="svg2" xml:space="preserve">
  <metadata id="metadata8">
    <rdf:RDF>
      <cc:Work rdf:about="">
        <dc:format>image/svg+xml</dc:format>
        <dc:type rdf:resource="http://purl.org/dc/dcmitype/StillImage"/>
      </cc:Work>
    </rdf:RDF>
  </metadata>
  <defs id="defs6"/>
  <g transform="matrix(1.25,0,0,-1.25,0,990)" id="g10">
    <g transform="scale(0.1,0.1)" id="g12">
      <path d="m 345.602,1498.8 69.597,0 0,-1484.4016 -69.597,0 0,1484.4016" inkscape:connector-curvature="0" id="path14" style="stroke:#000000;stroke-width:8;stroke-miterlimit:4;stroke-dasharray:none;fill:none;stroke-opacity:1"/>
      <path d="m 345.602,1406.4 -328.8012,0 0,-62.4 328.8012,0" inkscape:connector-curvature="0" id="path16" style="stroke:#000000;stroke-width:8;stroke-miterlimit:4;stroke-dasharray:none;fill:none;stroke-opacity:1"/>
      <path d="m 345.602,1244.4 -328.8012,0 0,-62.4 328.8012,0" inkscape:connector-curvature="0" id="path18" style="stroke:#000000;stroke-width:8;stroke-miterlimit:4;stroke-dasharray:none;fill:none;stroke-opacity:1"/>
      <path d="m 345.602,436.801 -256.8012,0 L 345.602,14.3984" inkscape:connector-curvature="0" id="path20" style="stroke:#000000;stroke-width:8;stroke-miterlimit:4;stroke-dasharray:none;fill:none;stroke-opacity:1"/>
      <path d="m 343.199,436.801 -118.801,264 -60,0 126,-264" inkscape:connector-curvature="0" id="path22" style="stroke:#000000;stroke-width:8;stroke-miterlimit:4;stroke-dasharray:none;fill:none;stroke-opacity:1"/>
      <path d="m 220.801,436.801 -128.4026,264 -60,0 119.9996,-264" inkscape:connector-curvature="0" id="path24" style="stroke:#000000;stroke-width:8;stroke-miterlimit:4;stroke-dasharray:none;fill:none;stroke-opacity:1"/>
      <path d="m 1310.4,1264.8 -499.201,0 6,42 6,27.6 10.801,27.6 15.602,21.6 12,19.2 16.796,22.8 19.204,16.8 24,16.8 18,13.2 27.597,13.2 27.602,8.4 19.199,3.6 33.6,4.8 25.2,0 24,-4.8 25.2,-3.6 26.4,-7.2 20.4,-6 25.2,-16.8 20.4,-14.4 19.2,-15.6 16.8,-20.4 16.8,-24 15.6,-22.8 10.8,-21.6 7.2,-31.2 7.2,-24 2.4,-25.2" inkscape:connector-curvature="0" id="path26" style="stroke:#000000;stroke-width:8;stroke-miterlimit:4;stroke-dasharray:none;fill:none;stroke-opacity:1"/>
      <path d="m 1563.6,1502.4 169.2,-381.6 85.2,0 -169.2,381.6 -85.2,0" inkscape:connector-curvature="0" id="path28" style="stroke:#000000;stroke-width:8;stroke-miterlimit:4;stroke-dasharray:none;fill:none;stroke-opacity:1"/>
      <path d="m 1819.2,1502.4 169.2,-381.6 85.2,0 -169.2,381.6 -85.2,0" inkscape:connector-curvature="0" id="path30" style="stroke:#000000;stroke-width:8;stroke-miterlimit:4;stroke-dasharray:none;fill:none;stroke-opacity:1"/>
      <path d="m 1629.6,519.602 4.8,-82.801 L 1627.2,348 1602,92.3984 1710,18 l -600,0 126,60 -69.6,267.602 -2.4,32.398 7.2,25.199 9.6,16.801 10.8,10.801 21.6,2.398 22.8,-4.801 30,-19.199 25.2,-22.801 102,-144 8.4,150 6,124.801 19.2,61.199 22.8,34.801 13.2,18 38.4,38.403 0,49.199 -18,12 -58.8,13.199 -20.4,-62.398 -16.8,9.597 33.6,55.199 3.6,48 -36,10.801 -1.2,10.801 18,22.801 13.2,16.801 6,22.796 121.2,-18 6,10.801 16.8,1.199 8.4,-12 0,-15.597 L 1573.2,828 1560,807.602 1560,522 l 116.4,0 -16.8,342 -13.2,42 -14.4,24 -24,20.398 -22.8,10.801 -28.8,8.403 -37.2,-1.204 L 1485.6,960 1465.2,944.398 1452,930 l -10.8,-14.398 -9.6,-20.403 -4.8,-14.398" inkscape:connector-curvature="0" id="path32" style="stroke:#000000;stroke-width:8;stroke-miterlimit:4;stroke-dasharray:none;fill:none;stroke-opacity:1"/>
      <path d="m 1443.6,834 38.4,-3.602 -13.2,14.403 -8.4,2.398 -14.4,-10.801" inkscape:connector-curvature="0" id="path34" style="stroke:#000000;stroke-width:8;stroke-miterlimit:4;stroke-dasharray:none;fill:none;stroke-opacity:1"/>
    </g>
  </g>
</svg>
