<?xml version="1.0" encoding="UTF-8"?>
<!-- Created with Inkscape (http://www.inkscape.org/) -->
<svg xmlns:dc="http://purl.org/dc/elements/1.1/" xmlns:cc="http://creativecommons.org/ns#" xmlns:rdf="http://www.w3.org/1999/02/22-rdf-syntax-ns#" xmlns:svg="http://www.w3.org/2000/svg" xmlns="http://www.w3.org/2000/svg" xmlns:inkscape="http://www.inkscape.org/namespaces/inkscape" version="1.1" width="765" height="990" id="svg2" xml:space="preserve">
  <metadata id="metadata8">
    <rdf:RDF>
      <cc:Work rdf:about="">
        <dc:format>image/svg+xml</dc:format>
        <dc:type rdf:resource="http://purl.org/dc/dcmitype/StillImage"/>
      </cc:Work>
    </rdf:RDF>
  </metadata>
  <defs id="defs6"/>
  <g transform="matrix(1.25,0,0,-1.25,0,990)" id="g10">
    <g transform="scale(0.1,0.1)" id="g12">
      <path d="m 1017.6,1004.4 21.6,37.2 27.6,26.4 38.4,9.6 33.6,-6 24,-21.6 12,-18 8.4,-42 0,-490.801 -1168.8016,0 0,490.801 12,42 9.6016,18 22.8008,21.6 33.5976,6 43.2036,-9.6 26.398,-26.4 18,-33.6" inkscape:connector-curvature="0" id="path14" style="stroke:#000000;stroke-width:8;stroke-miterlimit:4;stroke-dasharray:none;fill:none;stroke-opacity:1"/>
      <path d="m 630,1452 -48,0 -18,-2.4 -32.398,-6 -21.602,-3.6 -18,-6 -18,-6 -24,-6 -21.602,-9.6 -21.597,-8.4 -18,-9.6 -18,-12 -18,-12 -18,-12 -15.602,-15.6 -32.398,-30 -13.199,-15.6 -12,-10.8 -20.403,-30 -18,-31.2 -9.597,-18 -6,-21.6 -12,-42 -8.403,-18 -3.597,-27.6 -3.602,-18 0,-84 3.602,-21.602 12,-42 6,-27.597 6,-14.403 12,-27.597 6,-18 18,-18 6,-15.602 15.597,-18 12,-15.597 14.403,-20.403 31.199,-27.597 21.597,-15.602 20.403,-14.398 12,-9.602 18,-12 18,-8.398 27.597,-9.602 18,-9.602 24,-4.796 L 498,642 518.398,636 540,632.398 564,630 l 45.602,0 20.398,2.398 7.199,-2.398 24,2.398 18,3.602 24,6 12,3.602 24,4.796 19.199,9.602 26.403,9.602 18,8.398 18,12 13.199,9.602 24,14.398 18,15.602 30,27.597 14.398,20.403 13.204,15.597 14.398,18 9.602,15.602 14.398,18 9.602,18 9.597,27.597 8.403,14.403 5.998,27.597 8.4,42 3.6,21.602 0,84 -3.6,18 -2.4,27.6 -6,18 -5.998,30 -15.602,33.6 -8.398,18 -12,21.6 -27.602,39.6 -8.398,10.8 -12,15.6 -37.204,30 -14.398,15.6 -15.602,12 -18,12 -21.597,12 -14.403,9.6 -25.199,8.4 -18,9.6 -26.398,6 -15.602,6 -21.597,6 -18,3.6 -18,6 -36,2.4 -21.602,0" inkscape:connector-curvature="0" id="path16" style="stroke:#000000;stroke-width:8;stroke-miterlimit:4;stroke-dasharray:none;fill:none;stroke-opacity:1"/>
      <path d="m 530.398,13.1992 -515.9996,0 6,44.4024 7.2032,28.7968 L 38.3984,114 54,135.602 67.1992,156 84,180 l 19.199,16.801 25.199,18 19.204,13.199 28.796,13.199 28.801,8.403 19.199,4.796 34.801,3.602 26.403,0 24,-3.602 26.398,-4.796 27.602,-6 L 384,236.398 410.398,219.602 432,204 l 19.199,-15.602 18,-21.597 16.801,-24 15.602,-24 10.796,-21.6018 8.403,-32.3984 7.199,-25.1992 2.398,-26.4024" inkscape:connector-curvature="0" id="path18" style="stroke:#000000;stroke-width:8;stroke-miterlimit:4;stroke-dasharray:none;fill:none;stroke-opacity:1"/>
      <path d="m 1183.2,406.801 -174,-393.6018 -87.598,0 175.198,393.6018 86.4,0" inkscape:connector-curvature="0" id="path20" style="stroke:#000000;stroke-width:8;stroke-miterlimit:4;stroke-dasharray:none;fill:none;stroke-opacity:1"/>
      <path d="M 919.199,406.801 744,13.1992 l -87.602,0 175.204,393.6018 87.597,0" inkscape:connector-curvature="0" id="path22" style="stroke:#000000;stroke-width:8;stroke-miterlimit:4;stroke-dasharray:none;fill:none;stroke-opacity:1"/>
      <path d="m 2227.2,22.8008 -914.4,0 220.8,87.5972 -130.8,430.801 -3.6,38.403 -3.6,36 3.6,31.199 9.6,19.199 13.2,15.602 19.2,9.597 15.6,3.602 31.2,0 10.8,-3.602 15.6,-9.597 25.2,-19.204 253.2,-313.199 25.2,495.602 9.6,74.398 13.2,50.403 9.6,32.398 31.2,28.8 28.8,19.2 16.8,9.6 25.2,6 22.8,0 21.6,-3.6 42,-21.6 21.6,-25.2 16.8,-30.001 19.2,-37.199 9.6,-49.199 6,-48 3.6,-31.199 0,-662.403 -7.2,-25.199 -15.6,-25.199 144,-90.0002" inkscape:connector-curvature="0" id="path24" style="stroke:#000000;stroke-width:8;stroke-miterlimit:4;stroke-dasharray:none;fill:none;stroke-opacity:1"/>
      <path d="m 1812,768 -84,0 7.2,134.398 9.6,67.204 19.2,51.598 21.6,51.6" inkscape:connector-curvature="0" id="path26" style="stroke:#000000;stroke-width:8;stroke-miterlimit:4;stroke-dasharray:none;fill:none;stroke-opacity:1"/>
      <path d="m 2121.6,765.602 79.2,0 7.2,347.998 -13.2,67.2 -25.2,67.2 -48,82.8 -54,54 -63.6,39.6 -68.4,19.2 -73.2,9.6" inkscape:connector-curvature="0" id="path28" style="stroke:#000000;stroke-width:8;stroke-miterlimit:4;stroke-dasharray:none;fill:none;stroke-opacity:1"/>
      <path d="m 1783.2,1398 19.2,-13.2 15.6,13.2 -19.2,16.8 -13.2,-16.8" inkscape:connector-curvature="0" id="path30" style="stroke:#000000;stroke-width:8;stroke-miterlimit:4;stroke-dasharray:none;fill:none;stroke-opacity:1"/>
      <path d="m 1783.2,1072.8 -13.2,18 -6,42 34.8,80.4 70.8,86.4 12,12 13.2,26.4 6,31.2 -2.4,28.8 -13.2,26.4 -26.4,28.8 -46.8,2.4 -48,-6 -36,-9.6 -28.8,-22.8 -38.4,-2.4 -48,-10.8 -50.4,-21.6 -44.4,-21.6 -64.8,-51.6 -31.2,-36 -19.2,-22.8 12,-8.4 51.6,44.4 61.2,44.4 44.4,22.8 48,9.6 48,0 42,-7.2 31.2,-8.4 22.8,-28.8 -3.6,-36 -38.4,-76.8 -32.4,-63.6 -19.2,-73.2 13.2,-44.4 28.8,-26.402 45.6,-6" inkscape:connector-curvature="0" id="path32" style="stroke:#000000;stroke-width:8;stroke-miterlimit:4;stroke-dasharray:none;fill:none;stroke-opacity:1"/>
    </g>
  </g>
</svg>
