<?xml version="1.0" encoding="UTF-8"?>
<!-- Created with Inkscape (http://www.inkscape.org/) -->
<svg xmlns:dc="http://purl.org/dc/elements/1.1/" xmlns:cc="http://creativecommons.org/ns#" xmlns:rdf="http://www.w3.org/1999/02/22-rdf-syntax-ns#" xmlns:svg="http://www.w3.org/2000/svg" xmlns="http://www.w3.org/2000/svg" xmlns:inkscape="http://www.inkscape.org/namespaces/inkscape" version="1.1" width="765" height="990" id="svg2" xml:space="preserve">
  <metadata id="metadata8">
    <rdf:RDF>
      <cc:Work rdf:about="">
        <dc:format>image/svg+xml</dc:format>
        <dc:type rdf:resource="http://purl.org/dc/dcmitype/StillImage"/>
      </cc:Work>
    </rdf:RDF>
  </metadata>
  <defs id="defs6"/>
  <g transform="matrix(1.25,0,0,-1.25,0,990)" id="g10">
    <g transform="scale(0.1,0.1)" id="g12">
      <path d="m 211.199,468 80.403,0 -1.204,30 8.403,39.602 8.398,22.796 15.602,36 74.398,130.801 L 400.801,756 402,769.199 399.602,794.398 396,810 l -7.199,20.398 -12,18 -9.602,10.801 -24,24 -19.199,6 L 285.602,894 253.199,889.199 240,884.398 223.199,873.602 208.801,856.801 201.602,847.199 194.398,840" inkscape:connector-curvature="0" id="path14" style="stroke:#000000;stroke-width:8;stroke-miterlimit:4;stroke-dasharray:none;fill:none;stroke-opacity:1"/>
      <path d="m 190.801,838.801 -12,-6 L 45.6016,807.602 34.8008,798 l -9.6016,-7.199 -8.3984,-15.602 -2.4024,-20.398 1.2032,-6 3.5976,-2.403 3.6016,0 6,2.403 2.3984,13.199 8.4024,10.801 12,10.801 14.3984,4.796 16.8008,6 109.1992,14.403 2.398,1.199 16.801,-2.398" inkscape:connector-curvature="0" id="path16" style="stroke:#000000;stroke-width:8;stroke-miterlimit:4;stroke-dasharray:none;fill:none;stroke-opacity:1"/>
      <path d="m 192,838.801 19.199,-33.602 0,-16.801" inkscape:connector-curvature="0" id="path18" style="stroke:#000000;stroke-width:8;stroke-miterlimit:4;stroke-dasharray:none;fill:none;stroke-opacity:1"/>
      <path d="m 34.8008,763.199 10.8008,7.199 21.5976,4.801 51.6018,6 52.801,7.199 40.796,0 10.801,-1.199 21.602,-6 L 282,774 302.398,772.801 318,774 l 15.602,4.801 9.597,-6 4.801,-6 L 349.199,750 348,736.801 l -7.199,-15.602 -60,-79.199 -30,-46.801 -10.801,-24 -15.602,-28.801 -8.398,-36 L 211.199,468" inkscape:connector-curvature="0" id="path20" style="stroke:#000000;stroke-width:8;stroke-miterlimit:4;stroke-dasharray:none;fill:none;stroke-opacity:1"/>
      <path d="m 326.398,888 70.801,-25.199 68.403,-18 28.796,-4.801 24,-1.199 30,0 32.403,1.199 24,4.801 24,4.801 3.597,-2.403 -3.597,-8.398 -9.602,-7.199 -32.398,-7.204 -32.403,-3.597 -36,0 -31.199,2.398 -52.801,9.602 -30,9.597" inkscape:connector-curvature="0" id="path22" style="stroke:#000000;stroke-width:8;stroke-miterlimit:4;stroke-dasharray:none;fill:none;stroke-opacity:1"/>
      <path d="M 367.199,862.801 420,834 l 52.801,-26.398 32.398,-16.801 24,-9.602 27.602,-7.199 18,-2.398 34.801,-3.602 15.597,2.398 7.199,1.204 4.801,-3.602 1.199,-8.398 -20.398,-6 -24,-3.602 -26.398,4.801 -38.403,8.398 -32.398,9.602 -31.199,15.597 L 390,831.602" inkscape:connector-curvature="0" id="path24" style="stroke:#000000;stroke-width:8;stroke-miterlimit:4;stroke-dasharray:none;fill:none;stroke-opacity:1"/>
      <path d="m 254.398,854.398 -8.398,-1.199 -6,-8.398 0,-9.602 6,-6 9.602,0 9.597,3.602 1.199,6 -3.597,7.199 -6,8.398" inkscape:connector-curvature="0" id="path26" style="stroke:#000000;stroke-width:8;stroke-miterlimit:4;stroke-dasharray:none;fill:none;stroke-opacity:1"/>
      <path d="m 178.801,51.6016 114,104.3984 108,-104.3984" inkscape:connector-curvature="0" id="path28" style="stroke:#000000;stroke-width:8;stroke-miterlimit:4;stroke-dasharray:none;fill:none;stroke-opacity:1"/>
      <path d="m 444,98.3984 -100.801,103.2036 108,102" inkscape:connector-curvature="0" id="path30" style="stroke:#000000;stroke-width:8;stroke-miterlimit:4;stroke-dasharray:none;fill:none;stroke-opacity:1"/>
      <path d="m 404.398,356.398 -108,-103.199 -108,111.602" inkscape:connector-curvature="0" id="path32" style="stroke:#000000;stroke-width:8;stroke-miterlimit:4;stroke-dasharray:none;fill:none;stroke-opacity:1"/>
      <path d="M 140.398,319.199 246,207.602 134.398,102" inkscape:connector-curvature="0" id="path34" style="stroke:#000000;stroke-width:8;stroke-miterlimit:4;stroke-dasharray:none;fill:none;stroke-opacity:1"/>
      <path d="m 276,15.6016 46.801,1.1992 27.597,7.1992 22.801,10.8008 27.602,18 20.398,18 20.403,21.5976 13.199,22.8006 L 468,138 l 7.199,24 2.403,27.602 0,26.398 -8.403,48 -9.597,24 -15.602,26.398 -16.801,24 L 402,360 l -20.398,13.199 -19.204,8.403 -19.199,7.199 -25.199,4.801 -25.199,1.199 -33.602,0 -27.597,-6 -24,-10.801 -24,-13.199 -21.602,-19.199 -21.602,-22.801 -18,-24 L 114,282 l -7.199,-18 -6,-32.398 0,-30 3.597,-22.801 2.403,-22.801 9.597,-24 12,-27.602 L 147.602,80.3984 168,61.1992 192,42 214.801,30 243.602,20.3984 276,15.6016" inkscape:connector-curvature="0" id="path36" style="stroke:#000000;stroke-width:8;stroke-miterlimit:4;stroke-dasharray:none;fill:none;stroke-opacity:1"/>
      <path d="m 1105.2,703.199 -398.399,0 4.801,33.602 4.796,21.597 9.602,22.801 12,16.801 9.602,14.398 13.199,19.204 15.597,13.199 18,13.199 15.602,10.801 21.602,9.597 21.597,7.204 15.602,3.597 27.597,2.403 19.204,0 19.199,-2.403 20.398,-3.597 21.602,-6 15.597,-4.801 19.202,-13.199 16.8,-12 15.6,-10.801 13.2,-18 14.4,-18 12,-19.199 7.2,-16.801 7.2,-25.199 4.8,-18 2.4,-20.403" inkscape:connector-curvature="0" id="path38" style="stroke:#000000;stroke-width:8;stroke-miterlimit:4;stroke-dasharray:none;fill:none;stroke-opacity:1"/>
      <path d="m 1142.4,26.3984 -22.8,1.2032 -22.8,4.7968 -19.2,10.8008 -15.6,9.6016 -26.4,28.8008 -25.2,28.7964 -24.002,32.403 -12,25.199 -8.398,20.398 -10.801,37.204 -4.801,43.199 4.801,20.398 10.801,24 20.398,25.199 -31.199,9.602 -24,19.199 -38.398,52.801 26.398,-79.199 18,-67.199 3.602,-33.602 4.801,-26.398 9.597,-26.403 7.199,-24 14.403,-21.597 13.199,-24 16.8,-19.2036 18,-20.3984 15.6,-16.8008 12,-10.8008 8.4,-7.1992 -36,12 -35.999,13.1992 -33.602,16.8008 -36,34.8008 -20.398,28.801 -15.602,26.398 -14.398,33.602 -14.403,38.398 -9.597,37.199 L 840,319.199 836.398,348 840,379.199 l 8.398,24 28.801,38.403 15.602,16.796 -39.602,16.801 -30,24 -33.597,46.801 19.199,-70.801 21.597,-69.597 -4.796,-46.801 2.398,-36 7.199,-34.801 4.801,-32.398 9.602,-28.801 9.597,-25.199 12,-25.204 L 888,144 l 43.199,-52.8008 -33.597,19.1988 -32.403,20.403 -34.801,30 -36,33.597 -24,38.403 -12,34.801 L 750,306 l 3.602,37.199 4.796,15.602 10.801,20.398 13.199,14.403 -32.398,16.796 -30,24 -38.398,50.403 25.199,-74.403 26.398,-75.597 6,-26.403 1.199,-20.398 8.403,-32.398 16.801,-40.801 13.199,-20.403 20.398,-21.597 L 816,156 l 24,-20.398 24,-16.801 30,-18 L 927.602,80.3984 1006.8,48 l 66,-21.6016 48,-9.5976 21.6,-2.4024 0,9.6016" inkscape:connector-curvature="0" id="path40" style="stroke:#000000;stroke-width:8;stroke-miterlimit:4;stroke-dasharray:none;fill:none;stroke-opacity:1"/>
    </g>
  </g>
</svg>
