<?xml version="1.0" encoding="UTF-8"?>
<!-- Created with Inkscape (http://www.inkscape.org/) -->
<svg xmlns:dc="http://purl.org/dc/elements/1.1/" xmlns:cc="http://creativecommons.org/ns#" xmlns:rdf="http://www.w3.org/1999/02/22-rdf-syntax-ns#" xmlns:svg="http://www.w3.org/2000/svg" xmlns="http://www.w3.org/2000/svg" xmlns:inkscape="http://www.inkscape.org/namespaces/inkscape" version="1.1" width="765" height="990" id="svg2" xml:space="preserve">
  <metadata id="metadata8">
    <rdf:RDF>
      <cc:Work rdf:about="">
        <dc:format>image/svg+xml</dc:format>
        <dc:type rdf:resource="http://purl.org/dc/dcmitype/StillImage"/>
      </cc:Work>
    </rdf:RDF>
  </metadata>
  <defs id="defs6"/>
  <g transform="matrix(1.25,0,0,-1.25,0,990)" id="g10">
    <g transform="scale(0.1,0.1)" id="g12">
      <path d="m 262.801,1016.4 -54,-924.0016 0,-31.1992 32.398,-36 25.199,-6 22.801,-3.5976 19.199,0 25.204,9.5976 19.199,15.6016 L 366,63.6016 308.398,1016.4" inkscape:connector-curvature="0" id="path14" style="stroke:#000000;stroke-width:8;stroke-miterlimit:4;stroke-dasharray:none;fill:none;stroke-opacity:1"/>
      <path d="m 573.602,1016.4 -15.602,67.2 -28.801,64.8 -42,50.4 -25.199,25.2 -45.602,25.2 -37.199,13.2 -32.398,9.6 -38.403,7.2 -48,0 L 199.199,1266 135.602,1231.2 91.1992,1192.8 72,1170 l -26.3984,-42 -19.2032,-48 -9.5976,-31.2 -2.4024,-32.4 559.2036,0" inkscape:connector-curvature="0" id="path16" style="stroke:#000000;stroke-width:8;stroke-miterlimit:4;stroke-dasharray:none;fill:none;stroke-opacity:1"/>
      <path d="m 266.398,1275.6 -19.199,153.6 7.199,15.6 19.204,9.6 25.199,-3.6 19.199,-6 2.398,-19.2 -12,-144" inkscape:connector-curvature="0" id="path18" style="stroke:#000000;stroke-width:8;stroke-miterlimit:4;stroke-dasharray:none;fill:none;stroke-opacity:1"/>
      <path d="m 1383.6,1461.6 -15.6,-322.8 -6,-274.8 -7.2,-211.199 -15.6,-151.199 -12,-142.801 6,-153.602 9.6,-48 6,-38.398 -2.4,-38.4026 L 1327.2,54 l -28.8,-19.1992 -36,-6 -63.6,16.8008 -25.2,19.1992 -42,8.3984 -96,-48 -395.998,3.6016 -15.602,51.5976 12,25.2036 36,6 136.801,28.796 115.199,58.801 76.8,27.602 67.2,15.597 48,42 15.6,42 3.6,44.403 -6,67.199 -3.6,90 -7.2,242.398 -2.4,243.602 -26.4,450 294,0" inkscape:connector-curvature="0" id="path20" style="stroke:#000000;stroke-width:8;stroke-miterlimit:4;stroke-dasharray:none;fill:none;stroke-opacity:1"/>
      <path d="m 1947.6,1341.6 -34.8,-16.8 -26.4,-32.4 -8.4,-26.4 -6,-26.4 8.4,-40.8 20.4,-26.4 20.4,-18 36,-10.8 25.2,-9.6 32.4,0 36,15.6 28.8,14.4 18,20.4 19.2,28.8 15.6,34.8 8.4,30 2.4,28.8 -2.4,20.4 -6,34.8 -14.4,30 -22.8,28.8 -24,20.4 -20.4,8.4 -20.4,9.6 -28.8,2.4 -24,2.4 -28.8,0 -36,-2.4 -37.2,-12 -32.4,-16.8 -20.4,-18 -22.8,-20.4 -18,-20.4 -18,-32.4 -16.8,-32.4 -6,-28.8 -6,-40.8 -3.6,-40.8 3.6,-32.4 3.6,-46.8 16.8,-46.8 26.4,-52.8 46.8,-61.199 73.2,-69.602 104.4,-85.199 228,-128.398" inkscape:connector-curvature="0" id="path22" style="stroke:#000000;stroke-width:8;stroke-miterlimit:4;stroke-dasharray:none;fill:none;stroke-opacity:1"/>
      <path d="m 1652.4,552 234,-526.8008 116.4,0 -234,526.8008 -116.4,0" inkscape:connector-curvature="0" id="path24" style="stroke:#000000;stroke-width:8;stroke-miterlimit:4;stroke-dasharray:none;fill:none;stroke-opacity:1"/>
      <path d="m 2006.4,552 232.8,-526.8008 117.6,0 -234,526.8008 -116.4,0" inkscape:connector-curvature="0" id="path26" style="stroke:#000000;stroke-width:8;stroke-miterlimit:4;stroke-dasharray:none;fill:none;stroke-opacity:1"/>
      <path d="m 3178.8,1255.2 22.8,-32.4 21.6,-38.4 13.2,-32.4 13.2,-40.8 6,-28.8 7.2,-38.4 0,-44.398 -3.6,-45.602 -9.6,-34.801 -13.2,-28.801 -19.2,-32.398 -19.2,-22.801 -32.4,-28.801 -31.2,-15.597 -34.8,-15.602 -36,-6 -44.4,-3.597 -51.6,6 -38.4,13.199 -44.4,15.597 -44.4,26.403 -32.4,21.597 -38.4,34.801 -25.2,32.403 -32.4,38.398 -31.2,42 -22.8,34.8 -15.6,32.4 -19.2,38.4 -13.2,38.4 -9.6,50.4 -3.6,49.2 3.6,79.2 9.6,32.4 13.2,31.2 19.2,28.8 25.2,22.8 28.8,25.2 40.8,19.2 26.4,7.2 38.4,0 44.4,-7.2 42,-6 48,-15.6 44.4,-19.2 31.2,-20.4 32.4,-18 32.4,-30 34.8,-34.8 28.8,-34.8 25.2,-32.4 13.2,-12" inkscape:connector-curvature="0" id="path28" style="stroke:#000000;stroke-width:8;stroke-miterlimit:4;stroke-dasharray:none;fill:none;stroke-opacity:1"/>
      <path d="m 3201.6,1222.8 15.6,16.8 19.2,18 6,16.8 9.6,34.8 -2.4,28.8 -7.2,25.2 -6,19.2 -13.2,13.2 -15.6,19.2 -15.6,13.2 -32.4,12 -48,0 -28.8,-12 -25.2,-16.8 -13.2,-9.6" inkscape:connector-curvature="0" id="path30" style="stroke:#000000;stroke-width:8;stroke-miterlimit:4;stroke-dasharray:none;fill:none;stroke-opacity:1"/>
      <path d="M 2776.8,877.199 2757.6,864 l -26.4,-12 -19.2,-6 -31.2,0 -32.4,6 -19.2,12 -16.8,13.199 -8.4,13.199 -16.8,19.204 -9.6,22.796 -6,31.204 3.6,22.796 8.4,25.202 13.2,25.2 22.8,22.8 15.6,9.6" inkscape:connector-curvature="0" id="path32" style="stroke:#000000;stroke-width:8;stroke-miterlimit:4;stroke-dasharray:none;fill:none;stroke-opacity:1"/>
      <path d="m 3490.8,1052.4 0,432 99.6,0 0,-432 -99.6,0" inkscape:connector-curvature="0" id="path34" style="stroke:#000000;stroke-width:8;stroke-miterlimit:4;stroke-dasharray:none;fill:none;stroke-opacity:1"/>
      <path d="m 3858,45.6016 0,432.0004 96,0 0,-432.0004 -96,0" inkscape:connector-curvature="0" id="path36" style="stroke:#000000;stroke-width:8;stroke-miterlimit:4;stroke-dasharray:none;fill:none;stroke-opacity:1"/>
      <path d="m 4222.8,1052.4 0,432 98.4,0 0,-432 -96,0" inkscape:connector-curvature="0" id="path38" style="stroke:#000000;stroke-width:8;stroke-miterlimit:4;stroke-dasharray:none;fill:none;stroke-opacity:1"/>
    </g>
  </g>
</svg>
