<?xml version="1.0" encoding="UTF-8"?>
<!-- Created with Inkscape (http://www.inkscape.org/) -->
<svg xmlns:dc="http://purl.org/dc/elements/1.1/" xmlns:cc="http://creativecommons.org/ns#" xmlns:rdf="http://www.w3.org/1999/02/22-rdf-syntax-ns#" xmlns:svg="http://www.w3.org/2000/svg" xmlns="http://www.w3.org/2000/svg" xmlns:inkscape="http://www.inkscape.org/namespaces/inkscape" version="1.1" width="765" height="990" id="svg2" xml:space="preserve">
  <metadata id="metadata8">
    <rdf:RDF>
      <cc:Work rdf:about="">
        <dc:format>image/svg+xml</dc:format>
        <dc:type rdf:resource="http://purl.org/dc/dcmitype/StillImage"/>
      </cc:Work>
    </rdf:RDF>
  </metadata>
  <defs id="defs6"/>
  <g transform="matrix(1.25,0,0,-1.25,0,990)" id="g10">
    <g transform="scale(0.1,0.1)" id="g12">
      <path d="m 1204.8,1106.4 -73.2,7.2 -115.2,-7.2 -85.201,10.8 -26.398,-10.8 -20.403,-26.4 7.204,-45.6 L 924,928.801 987.602,826.801 1191.6,583.199 1297.2,483.602 1448.4,342 1771.2,25.1992 l 33.6,0 9.6,16.8008 -13.2,28.8008 -138,316.8012 -20.4,60 L 1537.2,702 1442.4,866.398 1366.8,972 l -56.4,75.6 -46.8,72 -49.2,66 -58.8,69.6 -60,39.6 -16.8,69.6 -13.2,75.6 -19.2,49.2 -56.4,13.2 -92.398,0 -102,-2.4 -49.204,-13.2 -22.796,-7.2 -168,-22.8 -49.204,-22.8 -16.796,-24 -3.602,-45.6 20.398,32.4 32.403,16.8 98.398,0 103.199,-3.6 51.602,-13.2 -42,52.8 -9.602,37.2" inkscape:connector-curvature="0" id="path14" style="stroke:#000000;stroke-width:8;stroke-miterlimit:4;stroke-dasharray:none;fill:none;stroke-opacity:1"/>
      <path d="m 848.398,1417.2 10.801,3.6 6,15.6 -6,16.8 -13.199,10.8 -14.398,-10.8 -2.403,-19.2 6,-10.8 10.801,-6" inkscape:connector-curvature="0" id="path16" style="stroke:#000000;stroke-width:8;stroke-miterlimit:4;stroke-dasharray:none;fill:none;stroke-opacity:1"/>
      <path d="m 501.602,1383.6 133.199,3.6 102,-13.2 30,-15.6 9.597,-33.6 2.403,-36 -28.801,-73.2 -13.199,-88.8 16.801,-109.2 13.199,-49.202 36,-98.398 43.199,-80.398 100.801,-174 135.599,-256.801 13.2,-99.602 -16.8,-167.9998 -15.6,-16.8008 -96.001,-9.5976 -112.801,3.5976 -6,-16.7968 L 799.199,44.3984 792,34.8008 802.801,21.6016 1086,32.3984 1380,19.1992 1392,32.3984 1386,48 l -45.6,0 -27.6,22.8008 -168,3.5976 -19.2,13.2032 19.2,207.5974 122.4,-62.398 69.6,204 132,-328.801 45.6,-60 45.6,-26.3984 69.6,0 39.6,13.1992 9.6,20.3984 L 1646.4,144" inkscape:connector-curvature="0" id="path18" style="stroke:#000000;stroke-width:8;stroke-miterlimit:4;stroke-dasharray:none;fill:none;stroke-opacity:1"/>
      <path d="m 829.199,813.602 43.199,-241.204 -3.597,-184.796 -33.602,-187.204 -30,-96 L 786,81.6016 627.602,70.8008 612,48 l -37.199,-3.6016 -13.199,-9.5976 13.199,-13.1992 122.398,10.7968 36,-3.5976" inkscape:connector-curvature="0" id="path20" style="stroke:#000000;stroke-width:8;stroke-miterlimit:4;stroke-dasharray:none;fill:none;stroke-opacity:1"/>
      <path d="m 852,68.3984 -56.398,-6 0,0 L 763.199,55.1992 742.801,28.8008 756,21.6016 776.398,42 l 19.204,2.3984" inkscape:connector-curvature="0" id="path22" style="stroke:#000000;stroke-width:8;stroke-miterlimit:4;stroke-dasharray:none;fill:none;stroke-opacity:1"/>
      <path d="M 848.398,70.8008 921.602,342 1033.2,276 l 24,122.398" inkscape:connector-curvature="0" id="path24" style="stroke:#000000;stroke-width:8;stroke-miterlimit:4;stroke-dasharray:none;fill:none;stroke-opacity:1"/>
      <path d="m 618,68.3984 -52.801,-6 0,0 L 531.602,55.1992 512.398,28.8008 522,21.6016 544.801,42 l 26.398,2.3984" inkscape:connector-curvature="0" id="path26" style="stroke:#000000;stroke-width:8;stroke-miterlimit:4;stroke-dasharray:none;fill:none;stroke-opacity:1"/>
      <path d="m 1320,70.8008 62.4,-6 30,-9.6016 19.2,-26.3984 -9.6,-7.1992 -22.8,20.3984 -16.8,2.3984" inkscape:connector-curvature="0" id="path28" style="stroke:#000000;stroke-width:8;stroke-miterlimit:4;stroke-dasharray:none;fill:none;stroke-opacity:1"/>
      <path d="m 2002.8,1233.6 -536.4,0 7.2,45.6 7.2,28.8 10.8,30 16.8,22.8 13.2,20.4 18,25.2 20.4,18 25.2,18 20.4,14.4 28.8,13.2 30,9.6 20.4,3.6 37.2,4.8 26.4,0 25.2,-4.8 27.6,-3.6 28.8,-7.2 20.4,-7.2 27.6,-18 22.8,-15.6 20.4,-16.8 18,-21.6 18,-25.2 16.8,-25.2 10.8,-22.8 9.6,-33.6 6,-25.2 2.4,-27.6" inkscape:connector-curvature="0" id="path30" style="stroke:#000000;stroke-width:8;stroke-miterlimit:4;stroke-dasharray:none;fill:none;stroke-opacity:1"/>
      <path d="M 3540,768 3230.4,744 3012,940.801 2996.4,943.199 2979.6,930 2980.8,913.199 3127.2,750 3052.8,738 2900.4,739.199 2712,735.602 2689.2,751.199 2562,810 l -118.8,-8.398 -94.8,-32.403 -45.6,-18 -2.4,-10.801 0,-13.199 14.4,-19.199 144,38.398 102,-3.597 50.4,-37.199 4.8,-26.403 -84,-58.801 -181.2,-9.597 -76.8,24 -78,56.398 -69.6,112.801 -16.8,3.602 -22.8,-8.403 -6,-22.801 25.2,-62.398 38.4,-61.199 85.2,-69.602 84,-43.199 201.6,3.602 94.8,39.597 92.4,62.403 102,-2.403 126,7.199 200.4,20.403 9.6,-9.602 -138,-176.398 -13.2,-20.403 10.8,-9.597 19.2,-6 26.4,8.398 108,112.801 42,52.801 40.8,51.597 300,-19.199 16.8,10.801 9.6,20.398 4.8,19.204 0,10.796 -3.6,12 -7.2,24 -9.6,9.602 -10.8,2.398" inkscape:connector-curvature="0" id="path32" style="stroke:#000000;stroke-width:8;stroke-miterlimit:4;stroke-dasharray:none;fill:none;stroke-opacity:1"/>
      <path d="m 349.199,240 -39.597,49.199 -49.204,49.199 -39.597,43.204 -43.199,46.796 L 124.801,480 72,519.602 16.8008,559.199 122.398,1502.4 l 32.403,-9.6 36,-15.6 30,-24 30,-36 26.398,-43.2 13.199,-45.6 L 300,1288.8 309.602,1236 356.398,21.6016 294,19.1992 307.199,292.801" inkscape:connector-curvature="0" id="path34" style="stroke:#000000;stroke-width:8;stroke-miterlimit:4;stroke-dasharray:none;fill:none;stroke-opacity:1"/>
    </g>
  </g>
</svg>
