<?xml version="1.0" encoding="UTF-8"?>
<!-- Created with Inkscape (http://www.inkscape.org/) -->
<svg xmlns:dc="http://purl.org/dc/elements/1.1/" xmlns:cc="http://creativecommons.org/ns#" xmlns:rdf="http://www.w3.org/1999/02/22-rdf-syntax-ns#" xmlns:svg="http://www.w3.org/2000/svg" xmlns="http://www.w3.org/2000/svg" xmlns:inkscape="http://www.inkscape.org/namespaces/inkscape" version="1.1" width="765" height="990" id="svg2" xml:space="preserve">
  <metadata id="metadata8">
    <rdf:RDF>
      <cc:Work rdf:about="">
        <dc:format>image/svg+xml</dc:format>
        <dc:type rdf:resource="http://purl.org/dc/dcmitype/StillImage"/>
      </cc:Work>
    </rdf:RDF>
  </metadata>
  <defs id="defs6"/>
  <g transform="matrix(1.25,0,0,-1.25,0,990)" id="g10">
    <g transform="scale(0.1,0.1)" id="g12">
      <path d="m 711.602,1072.8 -70.801,6 -111.602,-6 -82.801,8.4 L 420,1072.8 400.801,1046.4 408,1002 439.199,898.801 500.398,800.398 698.398,564 800.398,468 948,330 1261.2,22.8008 l 32.4,0 8.4,16.8008 -12,28.7968 -134.4,307.2036 -19.2,57.597 -102,246 -92.4,159.602 -74.398,102 -54,74.399 -45.602,69.6 -48,64.8 -56.398,66 -57.602,39.6 -16.801,66 -12,74.4 -19.199,48 -55.199,12 -88.801,0 -99.602,-2.4 -48,-13.2 -21.597,-7.2 -163.1994,-21.6 -48,-22.8 L 18,1366.8 l -3.6016,-45.6 19.2032,32.4 32.3984,15.6 94.801,0 99.597,-2.4 51.602,-13.2 -42,50.4 -9.602,36" inkscape:connector-curvature="0" id="path14" style="stroke:#000000;stroke-width:8;stroke-miterlimit:4;stroke-dasharray:none;fill:none;stroke-opacity:1"/>
      <path d="m 366,1372.8 9.602,3.6 6,15.6 -6,15.6 -13.204,9.6 -13.199,-9.6 -2.398,-19.2 7.199,-9.6 8.398,-6" inkscape:connector-curvature="0" id="path16" style="stroke:#000000;stroke-width:8;stroke-miterlimit:4;stroke-dasharray:none;fill:none;stroke-opacity:1"/>
      <path d="m 30,1340.4 128.398,3.6 98.403,-13.2 28.801,-15.6 9.597,-32.4 3.602,-34.8 -28.801,-69.6 -13.199,-87.6 16.801,-105.601 12,-46.801 34.796,-96 42,-76.796 L 462,596.398 592.801,345.602 606,250.801 589.199,87.6016 573.602,70.8008 481.199,62.3984 372,64.8008 366,49.1992 318,42 312,33.6016 320.398,20.3984 596.398,30 880.801,16.8008 894,30 l -7.199,15.6016 -44.403,0 L 817.199,68.3984 654,70.8008 634.801,84 654,285.602 l 117.602,-61.204 67.199,198 128.398,-319.199 44.401,-57.5974 44.4,-25.2032 68.4,0 37.2,13.2032 9.6,18 -31.2,87.5974" inkscape:connector-curvature="0" id="path18" style="stroke:#000000;stroke-width:8;stroke-miterlimit:4;stroke-dasharray:none;fill:none;stroke-opacity:1"/>
      <path d="m 346.801,787.199 42,-232.801 L 385.199,375.602 354,193.199 325.199,99.6016 304.801,78 151.199,68.3984 135.602,45.6016 100.801,42 87.6016,33.6016 100.801,20.3984 219.602,30 254.398,26.3984" inkscape:connector-curvature="0" id="path20" style="stroke:#000000;stroke-width:8;stroke-miterlimit:4;stroke-dasharray:none;fill:none;stroke-opacity:1"/>
      <path d="m 369.602,64.8008 -55.204,-6 0,0 L 283.199,51.6016 264,26.3984 l 13.199,-6 18,19.2032 L 314.398,42" inkscape:connector-curvature="0" id="path22" style="stroke:#000000;stroke-width:8;stroke-miterlimit:4;stroke-dasharray:none;fill:none;stroke-opacity:1"/>
      <path d="M 366,68.3984 436.801,330 l 108,-63.602 22.801,118.801" inkscape:connector-curvature="0" id="path24" style="stroke:#000000;stroke-width:8;stroke-miterlimit:4;stroke-dasharray:none;fill:none;stroke-opacity:1"/>
      <path d="m 142.801,64.8008 -51.6018,-6 0,0 -32.3984,-7.1992 -19.1992,-25.2032 9.5976,-6 L 72,39.6016 97.1992,42" inkscape:connector-curvature="0" id="path26" style="stroke:#000000;stroke-width:8;stroke-miterlimit:4;stroke-dasharray:none;fill:none;stroke-opacity:1"/>
      <path d="m 823.199,68.3984 61.199,-6 28.801,-10.7968 18,-25.2032 -9.597,-6 L 900,39.6016 884.398,42" inkscape:connector-curvature="0" id="path28" style="stroke:#000000;stroke-width:8;stroke-miterlimit:4;stroke-dasharray:none;fill:none;stroke-opacity:1"/>
      <path d="m 1716,16.8008 0,1198.7992 -190.8,240 -192,-240" inkscape:connector-curvature="0" id="path30" style="stroke:#000000;stroke-width:8;stroke-miterlimit:4;stroke-dasharray:none;fill:none;stroke-opacity:1"/>
      <path d="m 1716,1215.6 192,240 192,-240" inkscape:connector-curvature="0" id="path32" style="stroke:#000000;stroke-width:8;stroke-miterlimit:4;stroke-dasharray:none;fill:none;stroke-opacity:1"/>
      <path d="m 2668.8,180 28.8,-12 40.8,2.398 38.4,25.204 26.4,49.199 3.6,46.801 -13.2,38.398 -32.4,34.801 -44.4,13.199 -48,-9.602 -38.4,-34.796 -22.8,-51.602 3.6,-40.801 19.2,-36 34.8,-28.801 0,3.602 -73.2,-163.1992 236.4,0 -73.2,166.8012" inkscape:connector-curvature="0" id="path34" style="stroke:#000000;stroke-width:8;stroke-miterlimit:4;stroke-dasharray:none;fill:none;stroke-opacity:1"/>
      <path d="m 2799.6,234 169.2,-88.801 0,255.602 -165.6,-90" inkscape:connector-curvature="0" id="path36" style="stroke:#000000;stroke-width:8;stroke-miterlimit:4;stroke-dasharray:none;fill:none;stroke-opacity:1"/>
      <path d="m 2613.6,308.398 -162,82.801 0,-236.398 159.6,76.801" inkscape:connector-curvature="0" id="path38" style="stroke:#000000;stroke-width:8;stroke-miterlimit:4;stroke-dasharray:none;fill:none;stroke-opacity:1"/>
      <path d="m 2780.4,352.801 34.8,67.199 7.2,140.398 -118.8,664.802 -15.6,74.4 -22.8,69.6 -31.2,51.6 -51.6,28.8 -45.6,6 -44.4,0 -79.2,-12 -48,-28.8 -48,-51.6 -34.8,-86.4 -13.2,-61.2 -9.6,-86.4 9.6,-194.399 21.6,-195.602 20.4,-390 -7.2,-102 -21.6,-99.597 -36,-54.0004 -44.4,-54" inkscape:connector-curvature="0" id="path40" style="stroke:#000000;stroke-width:8;stroke-miterlimit:4;stroke-dasharray:none;fill:none;stroke-opacity:1"/>
      <path d="m 2678.4,1318.8 -9.6,-160.8 -67.2,-549.602 -3.6,-175.199 19.2,-57.597 22.8,-32.403" inkscape:connector-curvature="0" id="path42" style="stroke:#000000;stroke-width:8;stroke-miterlimit:4;stroke-dasharray:none;fill:none;stroke-opacity:1"/>
    </g>
  </g>
</svg>
