<?xml version="1.0" encoding="UTF-8"?>
<!-- Created with Inkscape (http://www.inkscape.org/) -->
<svg xmlns:dc="http://purl.org/dc/elements/1.1/" xmlns:cc="http://creativecommons.org/ns#" xmlns:rdf="http://www.w3.org/1999/02/22-rdf-syntax-ns#" xmlns:svg="http://www.w3.org/2000/svg" xmlns="http://www.w3.org/2000/svg" xmlns:inkscape="http://www.inkscape.org/namespaces/inkscape" version="1.1" width="765" height="990" id="svg2" xml:space="preserve">
  <metadata id="metadata8">
    <rdf:RDF>
      <cc:Work rdf:about="">
        <dc:format>image/svg+xml</dc:format>
        <dc:type rdf:resource="http://purl.org/dc/dcmitype/StillImage"/>
      </cc:Work>
    </rdf:RDF>
  </metadata>
  <defs id="defs6"/>
  <g transform="matrix(1.25,0,0,-1.25,0,990)" id="g10">
    <g transform="scale(0.1,0.1)" id="g12">
      <path d="m 1173.6,153.602 0,159.597 -69.6,3.602 -48,13.199 -46.8,20.398 -39.598,26.403 -30,26.398 -22.801,37.199 -16.801,37.204 -7.199,45.597 7.199,51.602 20.398,69.597 146.402,300 37.2,90.002 12,46.8 3.6,43.2 3.6,43.2 -16.8,50.4 -22.8,43.2 -30,33.6 -39.6,26.4 -31.199,13.2 -43.199,10.8 -49.204,9.6 -106.796,-7.2 -33.602,-2.4 -56.398,-20.4 -70.801,-46.8 -39.602,-33.6 -20.398,-16.8 -16.801,-9.6 63.602,-104.4 3.597,-96 -60,10.8 -196.801,0 -156,-10.8 -76.796,-16.8 L 90,978" inkscape:connector-curvature="0" id="path14" style="stroke:#000000;stroke-width:8;stroke-miterlimit:4;stroke-dasharray:none;fill:none;stroke-opacity:1"/>
      <path d="m 543.602,1214.4 -37.204,-13.2 -376.796,-82.8 -52.8012,-24 -27.6016,-26.4 -26.3984,-46.8 0,-37.2 -6,-30 6,-20.398 13.1992,-6 7.1992,0 20.4024,6 39.5974,74.398 46.801,32.4 33.602,18 49.199,12 316.801,50.4 33.597,-2.4 26.403,-10.8" inkscape:connector-curvature="0" id="path16" style="stroke:#000000;stroke-width:8;stroke-miterlimit:4;stroke-dasharray:none;fill:none;stroke-opacity:1"/>
      <path d="m 979.199,1334.4 67.201,0 82.8,-19.2 70.8,-27.6 69.6,-39.6 70.8,-60 79.2,-110.4 57.6,-129.6 22.8,-151.199 -157.2,-2.403 -16.8,136.801 -19.2,90.001 -20.4,60 -22.8,54 -27.6,30 -39.6,39.6 -56.4,43.2 -54,16.8" inkscape:connector-curvature="0" id="path18" style="stroke:#000000;stroke-width:8;stroke-miterlimit:4;stroke-dasharray:none;fill:none;stroke-opacity:1"/>
      <path d="m 609.602,1021.2 127.199,-20.4 49.199,-9.601 46.801,0 24,-13.199 16.801,-26.398 3.597,-20.403 -7.199,-30 L 817.199,774 756,614.398 l -13.199,-93.597 16.801,-120 37.199,-87.602 22.801,-30 30,-30 82.796,-52.801 117.602,-37.199 123.6,-9.597" inkscape:connector-curvature="0" id="path20" style="stroke:#000000;stroke-width:8;stroke-miterlimit:4;stroke-dasharray:none;fill:none;stroke-opacity:1"/>
      <path d="M 796.801,1244.4 776.398,1240.8 756,1218 l 0,-27.6 20.398,-15.6 26.403,0 20.398,13.2 7.199,13.2 -3.597,24 -20.403,19.2" inkscape:connector-curvature="0" id="path22" style="stroke:#000000;stroke-width:8;stroke-miterlimit:4;stroke-dasharray:none;fill:none;stroke-opacity:1"/>
      <path d="m 2594.4,1057.2 -930,0 12,78 12,51.6 19.2,51.6 28.8,38.4 22.8,36 31.2,43.2 36,31.2 43.2,32.4 36,22.8 50.4,24 51.6,15.6 36,8.4 62.4,7.2 46.8,0 44.4,-7.2 46.8,-8.4 50.4,-12 36,-12 46.8,-31.2 39.6,-27.6 36,-27.6 31.2,-39.6 31.2,-43.2 27.6,-43.2 19.2,-39.6 15.6,-58.8 12,-43.2 4.8,-46.8" inkscape:connector-curvature="0" id="path24" style="stroke:#000000;stroke-width:8;stroke-miterlimit:4;stroke-dasharray:none;fill:none;stroke-opacity:1"/>
      <path d="m 1800,774 -19.2,-24 -12,-31.199 -8.4,-31.199 0,-75.602 3.6,-43.199 8.4,-46.801 8.4,-36 10.8,-43.199 20.4,-55.199 19.2,-55.204 51.6,-86.398 31.2,-39.602 39.6,-51.597 46.8,-39.602 43.2,-31.199 39.6,-27.6016 39.6,-15.5976 38.4,-12 39.6,-7.1992 36,-8.4024 70.8,0 31.2,12 32.4,12 31.2,15.6016 31.2,15.5976 27.6,24 19.2,22.8006 20.4,24 12,32.403 19.2,34.796 4.8,27.602 7.2,39.602 -3.6,34.796 -3.6,39.602 -12,36 -16.8,38.398 -19.2,39.602 -27.6,44.398 -31.2,39.602 -31.2,34.801 -36,34.801 -36,32.398 -43.2,27.602 -43.2,31.199 -58.8,31.199 -43.2,24 -51.6,15.602 -55.2,15.597 -46.8,12 -43.2,3.602 -31.2,0 -36,-3.602 -20.4,-3.597 -22.8,-4.801 L 1800,774" inkscape:connector-curvature="0" id="path26" style="stroke:#000000;stroke-width:8;stroke-miterlimit:4;stroke-dasharray:none;fill:none;stroke-opacity:1"/>
    </g>
  </g>
</svg>
