<?xml version="1.0" encoding="UTF-8"?>
<!-- Created with Inkscape (http://www.inkscape.org/) -->
<svg xmlns:dc="http://purl.org/dc/elements/1.1/" xmlns:cc="http://creativecommons.org/ns#" xmlns:rdf="http://www.w3.org/1999/02/22-rdf-syntax-ns#" xmlns:svg="http://www.w3.org/2000/svg" xmlns="http://www.w3.org/2000/svg" xmlns:inkscape="http://www.inkscape.org/namespaces/inkscape" version="1.1" width="765" height="990" id="svg2" xml:space="preserve">
  <metadata id="metadata8">
    <rdf:RDF>
      <cc:Work rdf:about="">
        <dc:format>image/svg+xml</dc:format>
        <dc:type rdf:resource="http://purl.org/dc/dcmitype/StillImage"/>
      </cc:Work>
    </rdf:RDF>
  </metadata>
  <defs id="defs6"/>
  <g transform="matrix(1.25,0,0,-1.25,0,990)" id="g10">
    <g transform="scale(0.1,0.1)" id="g12">
      <path d="m 481.199,178.801 192,0 -3.597,70.801 19.199,92.398 19.199,54 38.398,87.602 176.403,309.597 8.398,67.199 3.602,32.403 -6,56.398 -9.602,39.602 -15.597,46.799 -28.801,45.6 -22.801,25.2 -57.602,54 -44.398,16.8 -92.398,9.6 -76.801,-9.6 -32.403,-13.2 -38.398,-25.2 -34.801,-38.4 -15.597,-22.8 -16.801,-19.2" inkscape:connector-curvature="0" id="path14" style="stroke:#000000;stroke-width:8;stroke-miterlimit:4;stroke-dasharray:none;fill:none;stroke-opacity:1"/>
      <path d="m 433.199,1054.8 -28.801,-12 L 91.1992,981.602 62.3984,958.801 39.6016,943.199 20.3984,908.398 l -6,-51.597 3.6016,-13.199 8.3984,-6 7.2032,0 15.5976,6 6,28.796 20.4024,28.801 27.5974,26.403 32.403,9.597 42,12 259.199,36 6,3.602 38.398,-7.199" inkscape:connector-curvature="0" id="path16" style="stroke:#000000;stroke-width:8;stroke-miterlimit:4;stroke-dasharray:none;fill:none;stroke-opacity:1"/>
      <path d="m 436.801,1054.8 44.398,-76.8 0,-40.801" inkscape:connector-curvature="0" id="path18" style="stroke:#000000;stroke-width:8;stroke-miterlimit:4;stroke-dasharray:none;fill:none;stroke-opacity:1"/>
      <path d="m 62.3984,876 28.8008,19.199 47.9998,13.199 124.801,13.204 124.801,15.597 96,0 25.199,-3.597 50.398,-12 90,-16.801 48,-3.602 36,3.602 37.204,9.597 22.796,-13.199 L 804,885.602 807.602,847.199 804,816 788.398,777.602 648,591.602 577.199,478.801 l -28.801,-57.602 -34.796,-66 -19.204,-86.398 -13.199,-90" inkscape:connector-curvature="0" id="path20" style="stroke:#000000;stroke-width:8;stroke-miterlimit:4;stroke-dasharray:none;fill:none;stroke-opacity:1"/>
      <path d="m 756,1173.6 166.801,-61.2 163.199,-40.8 67.2,-13.2 57.6,-3.6 69.6,0 76.8,3.6 57.6,13.2 57.6,12 6,-6 -6,-22.8 -22.8,-15.6 -76.8,-15.6 -76.8,-9.6 -85.2,0 -74.4,6 -124.8,22.8 -69.6,21.6" inkscape:connector-curvature="0" id="path22" style="stroke:#000000;stroke-width:8;stroke-miterlimit:4;stroke-dasharray:none;fill:none;stroke-opacity:1"/>
      <path d="m 852,1112.4 124.801,-66 124.799,-64.798 76.8,-38.403 57.6,-21.597 63.6,-16.801 44.4,-6 84,-9.602 34.8,6 15.6,3.602 13.2,-9.602 2.4,-19.199 -46.8,-16.801 -58.8,-6 -63.6,9.602 -88.8,19.199 -76.8,25.199 -73.2,36 -180,102.001" inkscape:connector-curvature="0" id="path24" style="stroke:#000000;stroke-width:8;stroke-miterlimit:4;stroke-dasharray:none;fill:none;stroke-opacity:1"/>
      <path d="m 583.199,1093.2 -18,-2.4 -16.801,-19.2 0,-22.8 16.801,-15.6 21.602,0 21.597,9.6 3.602,12 -6,20.4 -16.801,18" inkscape:connector-curvature="0" id="path26" style="stroke:#000000;stroke-width:8;stroke-miterlimit:4;stroke-dasharray:none;fill:none;stroke-opacity:1"/>
      <path d="m 2446.8,988.801 -753.6,0 9.6,63.599 9.6,42 15.6,42 22.8,32.4 19.2,28.8 25.2,34.8 28.8,25.2 34.8,25.2 28.8,20.4 42,18 40.8,13.2 28.8,6 51.6,7.2 38.4,0 34.8,-7.2 39.6,-6 40.8,-9.6 28.8,-9.6 38.4,-25.2 32.4,-22.8 28.8,-22.8 25.2,-31.2 25.2,-36 22.8,-34.8 15.6,-32.4 13.2,-46.8 9.6,-36 2.4,-38.399" inkscape:connector-curvature="0" id="path28" style="stroke:#000000;stroke-width:8;stroke-miterlimit:4;stroke-dasharray:none;fill:none;stroke-opacity:1"/>
      <path d="m 1693.2,604.801 255.6,-576.0002 127.2,0 -254.4,576.0002 -128.4,0" inkscape:connector-curvature="0" id="path30" style="stroke:#000000;stroke-width:8;stroke-miterlimit:4;stroke-dasharray:none;fill:none;stroke-opacity:1"/>
      <path d="m 2079.6,604.801 255.6,-576.0002 128.4,0 -255.6,576.0002 -128.4,0" inkscape:connector-curvature="0" id="path32" style="stroke:#000000;stroke-width:8;stroke-miterlimit:4;stroke-dasharray:none;fill:none;stroke-opacity:1"/>
      <path d="m 3297.6,1227.6 -3.6,7.2 -7.2,13.2 -3.6,8.4 -8.4,10.8 -4.8,9.6 -12,10.8 -3.6,7.2 -10.8,9.6 -9.6,7.2 -10.8,9.6 -7.2,4.8 -10.8,9.6 -9.6,6 -13.2,6 -7.2,4.8 -13.2,3.6 -10.8,3.6 -15.6,3.6 -7.2,3.6 -14.4,2.4 -12,1.2 -22.8,0 -12,-1.2 -9.6,-2.4 -10.8,-1.2 -9.6,-2.4 -10.8,-1.2 -9.6,-4.8 -15.6,-3.6 -9.6,-4.8 -13.2,-3.6 -9.6,-6 -10.8,-7.2 -9.6,-7.2 -8.4,-6 -9.6,-7.2 -12,-10.8 -8.4,-8.4 -6,-9.6 -6,-6 -9.6,-13.2 -3.6,-7.2 -9.6,-12 -4.8,-10.8 -3.6,-12 -1.2,-8.4 -6,-13.2 -3.6,-10.8 -2.4,-15.6 0,-10.8 -1.2,-19.2 0,-28.8 1.2,-10.8 3.6,-13.2 2.4,-12 3.6,-13.2 3.6,-8.4 7.2,-14.4 3.6,-12 9.6,-10.8 3.6,-7.2 7.2,-12 7.2,-7.198 9.6,-10.801 7.2,-7.199 9.6,-9.602 10.8,-7.199 13.2,-9.602 6,-3.597 9.6,-7.204 10.8,-4.796 14.4,-4.801 12,-3.602 12,-6 7.2,-2.398 13.2,-2.403 12,0 14.4,-2.398 7.2,0 16.8,-1.199 10.8,1.199 16.8,2.398 8.4,1.204 16.8,1.199 8.4,4.801 14.4,3.597 9.6,3.602 9.6,7.199 10.8,3.602 12,7.199 9.6,8.398 8.4,4.801 9.6,8.398 9.6,8.403 7.2,9.597 9.6,7.204 4.8,9.598 9.6,14.4 6,6 7.2,13.2 3.6,9.6 6,10.8 2.4,10.8 4.8,13.2 3.6,10.8 1.2,15.6 2.4,8.4 1.2,13.2 0,26.4 -1.2,13.2 -2.4,10.8 -3.6,13.2 -3.6,10.8 -3.6,10.8 -3.6,12" inkscape:connector-curvature="0" id="path34" style="stroke:#000000;stroke-width:8;stroke-miterlimit:4;stroke-dasharray:none;fill:none;stroke-opacity:1"/>
      <path d="m 3331.2,334.801 -3.6,7.199 -7.2,12 -3.6,8.398 -7.2,10.801 -6,9.602 -10.8,10.801 -3.6,7.199 -10.8,9.597 -9.6,7.204 -12,9.597 -7.2,4.801 -10.8,9.602 -9.6,6 -12,6 -8.4,4.796 -13.2,3.602 -10.8,3.602 -14.4,4.796 -8.4,3.602 -14.4,1.199 -10.8,2.403 -24,0 -12,-2.403 -9.6,-1.199 -10.8,-2.398 -8.4,-1.204 -12,-2.398 -8.4,-3.602 -16.8,-3.597 -9.6,-6 -13.2,-3.602 -8.4,-6 -12,-7.199 -9.6,-7.199 -8.4,-4.801 -9.6,-8.398 -12,-10.801 -8.4,-7.199 -6,-9.602 -6,-7.199 -8.4,-13.199 -3.6,-7.204 -9.6,-10.796 -6,-12 -3.6,-10.801 -1.2,-9.602 -6,-13.199 -3.6,-10.801 -2.4,-14.398 0,-12 -1.2,-18 0,-30 1.2,-12 3.6,-12 2.4,-10.801 3.6,-13.199 3.6,-9.602 8.4,-15.597 3.6,-10.801 8.4,-10.801 4.8,-7.199 6,-10.801 8.4,-8.3984 8.4,-10.8008 8.4,-7.1992 8.4,-9.6016 12,-7.1992 13.2,-9.6016 4.8,-3.5976 9.6,-7.2032 10.8,-3.5976 14.4,-6 12,-3.6016 13.2,-6 7.2,-1.1992 13.2,-3.6016 10.8,0 14.4,-2.3984 8.4,0 16.8,-1.1992 10.8,1.1992 15.6,2.3984 8.4,1.2032 16.8,2.3984 9.6,3.6016 14.4,3.5976 9.6,3.6016 9.6,7.1992 10.8,4.8008 10.8,7.1992 9.6,7.1992 9.6,4.8008 8.4,7.1992 9.6,9.6016 7.2,9.5976 9.6,7.2032 4.8,9.5974 9.6,15.602 6,4.801 7.2,13.199 3.6,9.597 6,10.801 3.6,10.801 3.6,13.199 3.6,12 2.4,14.403 1.2,8.398 2.4,13.199 0,26.403 -2.4,13.199 -1.2,10.801 -3.6,13.199 -3.6,10.801 -4.8,12 -3.6,10.796" inkscape:connector-curvature="0" id="path36" style="stroke:#000000;stroke-width:8;stroke-miterlimit:4;stroke-dasharray:none;fill:none;stroke-opacity:1"/>
    </g>
  </g>
</svg>
