<?xml version="1.0" encoding="UTF-8"?>
<!-- Created with Inkscape (http://www.inkscape.org/) -->
<svg xmlns:dc="http://purl.org/dc/elements/1.1/" xmlns:cc="http://creativecommons.org/ns#" xmlns:rdf="http://www.w3.org/1999/02/22-rdf-syntax-ns#" xmlns:svg="http://www.w3.org/2000/svg" xmlns="http://www.w3.org/2000/svg" xmlns:inkscape="http://www.inkscape.org/namespaces/inkscape" version="1.1" width="765" height="990" id="svg2" xml:space="preserve">
  <metadata id="metadata8">
    <rdf:RDF>
      <cc:Work rdf:about="">
        <dc:format>image/svg+xml</dc:format>
        <dc:type rdf:resource="http://purl.org/dc/dcmitype/StillImage"/>
      </cc:Work>
    </rdf:RDF>
  </metadata>
  <defs id="defs6"/>
  <g transform="matrix(1.25,0,0,-1.25,0,990)" id="g10">
    <g transform="scale(0.1,0.1)" id="g12">
      <path d="m 1544.4,1461.6 -15.6,-322.8 -6,-274.8 -7.2,-211.199 -15.6,-150 -13.2,-144 7.2,-153.602 8.4,-48 7.2,-38.398 L 1506,80.3984 1486.8,54 1458,34.8008 l -34.8,-6 -64.8,15.5976 -25.2,20.4024 -40.8,8.3984 -97.2,-48 -396.001,3.6016 -15.597,51.5976 12,25.2036 36,6 138,28.796 113.998,58.801 76.8,28.801 68.4,15.602 46.8,40.796 16.8,42 2.4,44.403 -6,68.398 -3.6,88.801 -6,243.602 -3.6,242.398 -25.2,451.2 294,0" inkscape:connector-curvature="0" id="path14" style="stroke:#000000;stroke-width:8;stroke-miterlimit:4;stroke-dasharray:none;fill:none;stroke-opacity:1"/>
      <path d="M 2317.2,400.801 2152.8,234" inkscape:connector-curvature="0" id="path16" style="stroke:#000000;stroke-width:8;stroke-miterlimit:4;stroke-dasharray:none;fill:none;stroke-opacity:1"/>
      <path d="M 2101.2,182.398 1936.8,16.8008 1884,68.3984 2050.8,234" inkscape:connector-curvature="0" id="path18" style="stroke:#000000;stroke-width:8;stroke-miterlimit:4;stroke-dasharray:none;fill:none;stroke-opacity:1"/>
      <path d="m 2101.2,284.398 165.6,166.801 50.4,-50.398" inkscape:connector-curvature="0" id="path20" style="stroke:#000000;stroke-width:8;stroke-miterlimit:4;stroke-dasharray:none;fill:none;stroke-opacity:1"/>
      <path d="M 1884,398.398 2266.8,18 l 52.8,50.3984 -384,382.8006 -51.6,-52.801" inkscape:connector-curvature="0" id="path22" style="stroke:#000000;stroke-width:8;stroke-miterlimit:4;stroke-dasharray:none;fill:none;stroke-opacity:1"/>
      <path d="m 340.801,885.602 0,-860.4028 67.199,0 0,860.4028" inkscape:connector-curvature="0" id="path24" style="stroke:#000000;stroke-width:8;stroke-miterlimit:4;stroke-dasharray:none;fill:none;stroke-opacity:1"/>
      <path d="m 14.3984,890.398 718.8006,0 0,226.802 -13.199,25.2 -12,15.6 -31.199,0 -20.403,-3.6 -19.199,-12 -63.597,-57.6 -57.602,-51.6 -44.398,-21.6 -54,-13.202 -45.602,-3.597 -40.801,3.597 -54,13.202 -45.597,21.6 -57.602,51.6 -63.602,57.6 -19.1988,12 L 72,1158 l -32.3984,0 -13.2032,-15.6 -12,-25.2 0,-226.802" inkscape:connector-curvature="0" id="path26" style="stroke:#000000;stroke-width:8;stroke-miterlimit:4;stroke-dasharray:none;fill:none;stroke-opacity:1"/>
      <path d="m 506.398,1033.2 -57.597,378 -25.199,31.2 -19.204,13.2 -25.199,9.6 -9.597,0 -26.403,-9.6 -18,-13.2 -26.398,-31.2 -57.602,-378" inkscape:connector-curvature="0" id="path28" style="stroke:#000000;stroke-width:8;stroke-miterlimit:4;stroke-dasharray:none;fill:none;stroke-opacity:1"/>
      <path d="M 2032.8,745.199 2449.2,1144.8" inkscape:connector-curvature="0" id="path30" style="stroke:#000000;stroke-width:8;stroke-miterlimit:4;stroke-dasharray:none;fill:none;stroke-opacity:1"/>
      <path d="M 1882.8,802.801 2395.2,1292.4" inkscape:connector-curvature="0" id="path32" style="stroke:#000000;stroke-width:8;stroke-miterlimit:4;stroke-dasharray:none;fill:none;stroke-opacity:1"/>
      <path d="M 1784.4,908.398 2295.6,1398" inkscape:connector-curvature="0" id="path34" style="stroke:#000000;stroke-width:8;stroke-miterlimit:4;stroke-dasharray:none;fill:none;stroke-opacity:1"/>
      <path d="m 1732.8,1059.6 409.2,390" inkscape:connector-curvature="0" id="path36" style="stroke:#000000;stroke-width:8;stroke-miterlimit:4;stroke-dasharray:none;fill:none;stroke-opacity:1"/>
      <path d="m 2241.6,1426.8 -36,9.6 -34.8,13.2 -38.4,6 -38.4,0 -42,-2.4 -34.8,-3.6 -38.4,-13.2 -34.8,-12 -36,-16.8 -31.2,-22.8 -26.4,-21.6 -25.2,-26.4 -19.2,-21.6 -19.2,-28.8 -21.6,-42 -9.6,-31.2 -10.8,-36 -6,-34.8 -6,-42 0,-34.8 6,-42 9.6,-34.799 9.6,-32.403 15.6,-34.796 10.8,-19.204 12,-16.796 32.4,-34.801 32.4,-31.199 28.8,-22.801 34.8,-19.199 38.4,-19.204 38.4,-9.597 31.2,-9.602 39.6,0 37.2,-3.597 45.6,7.199 31.2,6 38.4,15.597 38.4,19.204 26.4,13.199 28.8,25.199 27.6,26.398 28.8,28.801 22.8,34.801 22.8,32.398 15.6,31.204 9.6,38.398 3.6,36 6,40.8 -3.6,34.8 -2.4,42 -9.6,34.8 -13.2,32.4 -15.6,42 -22.8,31.2 -21.6,26.4 -26.4,31.2 -32.4,22.8 -31.2,22.8 -34.8,15.6" inkscape:connector-curvature="0" id="path38" style="stroke:#000000;stroke-width:8;stroke-miterlimit:4;stroke-dasharray:none;fill:none;stroke-opacity:1"/>
      <path d="m 2631.6,1068 0,211.2 1432.8,0 0,-211.2 -1432.8,0" inkscape:connector-curvature="0" id="path40" style="stroke:#000000;stroke-width:8;stroke-miterlimit:4;stroke-dasharray:none;fill:none;stroke-opacity:1"/>
      <path d="m 3060,1438.8 166.8,-159.6" inkscape:connector-curvature="0" id="path42" style="stroke:#000000;stroke-width:8;stroke-miterlimit:4;stroke-dasharray:none;fill:none;stroke-opacity:1"/>
      <path d="M 3636,1438.8 3469.2,1279.2" inkscape:connector-curvature="0" id="path44" style="stroke:#000000;stroke-width:8;stroke-miterlimit:4;stroke-dasharray:none;fill:none;stroke-opacity:1"/>
      <path d="m 3219.6,1279.2 7.2,34.8 13.2,28.8 21.6,28.8 15.6,13.2 26.4,15.6 34.8,3.6 25.2,0 25.2,-3.6 22.8,-12 22.8,-20.4 15.6,-21.6 9.6,-22.8 7.2,-44.4" inkscape:connector-curvature="0" id="path46" style="stroke:#000000;stroke-width:8;stroke-miterlimit:4;stroke-dasharray:none;fill:none;stroke-opacity:1"/>
    </g>
  </g>
</svg>
