<?xml version="1.0" encoding="UTF-8"?>
<!-- Created with Inkscape (http://www.inkscape.org/) -->
<svg xmlns:dc="http://purl.org/dc/elements/1.1/" xmlns:cc="http://creativecommons.org/ns#" xmlns:rdf="http://www.w3.org/1999/02/22-rdf-syntax-ns#" xmlns:svg="http://www.w3.org/2000/svg" xmlns="http://www.w3.org/2000/svg" xmlns:inkscape="http://www.inkscape.org/namespaces/inkscape" version="1.1" width="765" height="990" id="svg2" xml:space="preserve">
  <metadata id="metadata8">
    <rdf:RDF>
      <cc:Work rdf:about="">
        <dc:format>image/svg+xml</dc:format>
        <dc:type rdf:resource="http://purl.org/dc/dcmitype/StillImage"/>
      </cc:Work>
    </rdf:RDF>
  </metadata>
  <defs id="defs6"/>
  <g transform="matrix(1.25,0,0,-1.25,0,990)" id="g10">
    <g transform="scale(0.1,0.1)" id="g12">
      <path d="m 295.199,436.801 -28.801,2.398 -44.398,-2.398 -33.602,3.597 -10.796,-3.597 -7.204,-10.801 2.403,-18 13.199,-40.801 24,-39.597 79.199,-94.801 42,-38.403 L 390,139.199 514.801,16.8008 l 13.199,0 3.602,6 -4.801,10.8008 -54,123.5974 -7.199,22.801 -42,98.398 -36,64.801 -30,40.801 -21.602,30 -18,27.602 -19.199,25.199 -24,27.597 -22.801,14.403 -6,27.597 -4.801,30 -7.199,18 -22.801,6 -36,0 -38.398,-1.199 -20.403,-6 -8.398,-2.398 -66,-8.403 -19.1992,-9.597 -6,-8.403 -1.1992,-18 7.1992,12 13.1992,7.204 38.3984,0 39.6016,-1.204 20.398,-6 L 117.602,570 114,583.199" inkscape:connector-curvature="0" id="path14" style="stroke:#000000;stroke-width:8;stroke-miterlimit:4;stroke-dasharray:none;fill:none;stroke-opacity:1"/>
      <path d="m 157.199,556.801 3.602,1.199 2.398,6 -2.398,7.199 -4.801,3.602 -6,-3.602 -1.199,-8.398 2.398,-3.602 4.801,-2.398" inkscape:connector-curvature="0" id="path16" style="stroke:#000000;stroke-width:8;stroke-miterlimit:4;stroke-dasharray:none;fill:none;stroke-opacity:1"/>
      <path d="m 21.6016,543.602 51.5976,1.199 39.6018,-4.801 12,-7.199 3.597,-12 1.204,-14.403 -12,-27.597 -4.801,-34.801 6,-42 6,-19.199 14.398,-38.403 L 156,313.199 194.398,246 247.199,145.199 252,106.801 246,42 l -6,-7.1992 -37.199,-3.6016 -43.199,1.1992 -2.403,-6 L 138,24 l -3.602,-3.6016 4.801,-4.7968 109.199,3.5976 114,-4.8008 4.801,4.8008 -2.398,6 -18,0 -9.602,8.4024 -66,1.1992 -7.199,6 7.199,80.3982 48,-23.9998 26.403,79.1988 L 397.199,48 l 18,-22.8008 18,-9.5976 26.403,0 15.597,4.7968 3.602,7.2032 -12,34.7968" inkscape:connector-curvature="0" id="path18" style="stroke:#000000;stroke-width:8;stroke-miterlimit:4;stroke-dasharray:none;fill:none;stroke-opacity:1"/>
      <path d="m 148.801,322.801 16.801,-93.602 -1.204,-72 L 151.199,84 140.398,46.8008 132,38.3984 70.8008,33.6016 l -6,-8.4024 L 50.3984,24 45.6016,20.3984 50.3984,15.6016 97.1992,19.1992 111.602,18" inkscape:connector-curvature="0" id="path20" style="stroke:#000000;stroke-width:8;stroke-miterlimit:4;stroke-dasharray:none;fill:none;stroke-opacity:1"/>
      <path d="M 158.398,32.3984 136.801,30 l 0,0 L 123.602,27.6016 115.199,18 120,15.6016 128.398,22.8008 136.801,24" inkscape:connector-curvature="0" id="path22" style="stroke:#000000;stroke-width:8;stroke-miterlimit:4;stroke-dasharray:none;fill:none;stroke-opacity:1"/>
      <path d="M 157.199,33.6016 184.801,139.199 228,114 l 9.602,46.801" inkscape:connector-curvature="0" id="path24" style="stroke:#000000;stroke-width:8;stroke-miterlimit:4;stroke-dasharray:none;fill:none;stroke-opacity:1"/>
      <path d="M 67.1992,32.3984 46.8008,30 l 0,0 L 33.6016,27.6016 25.1992,18 30,15.6016 38.3984,22.8008 49.1992,24" inkscape:connector-curvature="0" id="path26" style="stroke:#000000;stroke-width:8;stroke-miterlimit:4;stroke-dasharray:none;fill:none;stroke-opacity:1"/>
      <path d="m 339.602,33.6016 24,-2.4024 12,-3.5976 L 382.801,18 379.199,15.6016 370.801,22.8008 363.602,24" inkscape:connector-curvature="0" id="path28" style="stroke:#000000;stroke-width:8;stroke-miterlimit:4;stroke-dasharray:none;fill:none;stroke-opacity:1"/>
      <path d="M 826.801,526.801 720,561.602 l -21.602,6 L 675.602,570 636,566.398 l -13.199,-7.199 -12,-10.801 -9.602,-18 0,-10.796 3.602,-15.602 8.398,-8.398 7.199,-8.403 20.403,-7.199 25.199,-3.602 28.801,2.403 24,6 108,40.801" inkscape:connector-curvature="0" id="path30" style="stroke:#000000;stroke-width:8;stroke-miterlimit:4;stroke-dasharray:none;fill:none;stroke-opacity:1"/>
      <path d="m 796.801,538.801 25.199,-1.199 33.602,7.199 48,9.597 49.199,3.602 57.599,0 45.6,-3.602 31.2,-6 31.2,-8.398 16.8,-8.398 3.6,-6 -6,-6 -25.2,-8.403 -25.2,-7.199 -38.4,-7.199 -33.6,-2.403 -56.4,0 -51.602,6 -37.199,7.204 -39.597,7.199 -30,-1.199" inkscape:connector-curvature="0" id="path32" style="stroke:#000000;stroke-width:8;stroke-miterlimit:4;stroke-dasharray:none;fill:none;stroke-opacity:1"/>
      <path d="m 775.199,543.602 1.199,8.398 -2.398,15.602 -9.602,7.199 -13.199,-1.199 -8.398,-6 -3.602,-10.801" inkscape:connector-curvature="0" id="path34" style="stroke:#000000;stroke-width:8;stroke-miterlimit:4;stroke-dasharray:none;fill:none;stroke-opacity:1"/>
      <path d="M 715.199,564 714,577.199 708,588 l -13.199,2.398 -6,0 -7.199,-7.199 -4.801,-9.597 0,-3.602" inkscape:connector-curvature="0" id="path36" style="stroke:#000000;stroke-width:8;stroke-miterlimit:4;stroke-dasharray:none;fill:none;stroke-opacity:1"/>
      <path d="m 652.801,568.801 -6,12 -10.801,9.597 -13.199,-1.199 -7.199,-8.398 -1.204,-8.403 1.204,-6 3.597,-9.597" inkscape:connector-curvature="0" id="path38" style="stroke:#000000;stroke-width:8;stroke-miterlimit:4;stroke-dasharray:none;fill:none;stroke-opacity:1"/>
      <path d="m 607.199,543.602 -9.597,1.199 -9.602,-2.403 -4.801,-3.597 -4.801,-8.403 0,-10.796 4.801,-7.204 8.403,-4.796 12,-1.204" inkscape:connector-curvature="0" id="path40" style="stroke:#000000;stroke-width:8;stroke-miterlimit:4;stroke-dasharray:none;fill:none;stroke-opacity:1"/>
      <path d="M 619.199,490.801 616.801,480 l -1.199,-8.398 4.796,-8.403 9.602,-3.597 12,0 9.602,7.199 3.597,10.801" inkscape:connector-curvature="0" id="path42" style="stroke:#000000;stroke-width:8;stroke-miterlimit:4;stroke-dasharray:none;fill:none;stroke-opacity:1"/>
      <path d="m 679.199,477.602 6,-14.403 8.403,-7.199 12,-1.199 10.796,8.398 3.602,8.403 -2.398,12" inkscape:connector-curvature="0" id="path44" style="stroke:#000000;stroke-width:8;stroke-miterlimit:4;stroke-dasharray:none;fill:none;stroke-opacity:1"/>
      <path d="m 740.398,494.398 4.801,-9.597 9.602,-9.602 12,-1.199 8.398,3.602 6,8.398 0,9.602 -3.597,10.796" inkscape:connector-curvature="0" id="path46" style="stroke:#000000;stroke-width:8;stroke-miterlimit:4;stroke-dasharray:none;fill:none;stroke-opacity:1"/>
      <path d="m 790.801,525.602 -66,18 -30,7.199 L 666,552 l -25.199,-3.602 -14.403,-7.199 -7.199,-9.597 0,-7.204 2.403,-13.199 4.796,-7.199 12,-6 20.403,-4.801 31.199,1.199 33.602,7.204 69.597,24" inkscape:connector-curvature="0" id="path48" style="stroke:#000000;stroke-width:8;stroke-miterlimit:4;stroke-dasharray:none;fill:none;stroke-opacity:1"/>
      <path d="m 566.398,276 358.801,-261.6016 72,56.4024 14.401,2.3984 14.4,0 151.2,-54 7.2,4.8008 6,8.3984 -1.2,10.8008 L 566.398,276" inkscape:connector-curvature="0" id="path50" style="stroke:#000000;stroke-width:8;stroke-miterlimit:4;stroke-dasharray:none;fill:none;stroke-opacity:1"/>
    </g>
  </g>
</svg>
