<?xml version="1.0" encoding="UTF-8"?>
<!-- Created with Inkscape (http://www.inkscape.org/) -->
<svg xmlns:dc="http://purl.org/dc/elements/1.1/" xmlns:cc="http://creativecommons.org/ns#" xmlns:rdf="http://www.w3.org/1999/02/22-rdf-syntax-ns#" xmlns:svg="http://www.w3.org/2000/svg" xmlns="http://www.w3.org/2000/svg" xmlns:inkscape="http://www.inkscape.org/namespaces/inkscape" version="1.1" width="765" height="990" id="svg2" xml:space="preserve">
  <metadata id="metadata8">
    <rdf:RDF>
      <cc:Work rdf:about="">
        <dc:format>image/svg+xml</dc:format>
        <dc:type rdf:resource="http://purl.org/dc/dcmitype/StillImage"/>
      </cc:Work>
    </rdf:RDF>
  </metadata>
  <defs id="defs6"/>
  <g transform="matrix(1.25,0,0,-1.25,0,990)" id="g10">
    <g transform="scale(0.1,0.1)" id="g12">
      <path d="m 481.199,200.398 192,0 -3.597,70.801 19.199,92.403 19.199,55.199 38.398,86.398 175.204,309.602 9.597,67.199 3.602,32.398 -6,57.602 -9.602,38.4 -16.801,46.8 -28.796,45.6 -21.602,25.2 -57.602,55.2 -45.597,15.6 -92.403,9.6 -76.796,-9.6 -31.204,-13.2 -39.597,-25.2 L 474,1122 458.398,1099.2 442.801,1080" inkscape:connector-curvature="0" id="path14" style="stroke:#000000;stroke-width:8;stroke-miterlimit:4;stroke-dasharray:none;fill:none;stroke-opacity:1"/>
      <path d="M 433.199,1077.6 404.398,1064.4 91.1992,1003.2 62.3984,980.398 39.6016,964.801 20.3984,930 l -6,-50.398 2.4024,-13.204 9.5976,-6 7.2032,0 15.5976,6 6,28.801 19.1992,28.801 28.8006,25.199 32.403,9.602 42,13.199 259.199,34.8 6,3.6 38.398,-7.2" inkscape:connector-curvature="0" id="path16" style="stroke:#000000;stroke-width:8;stroke-miterlimit:4;stroke-dasharray:none;fill:none;stroke-opacity:1"/>
      <path d="m 436.801,1077.6 44.398,-76.8 0,-41.999" inkscape:connector-curvature="0" id="path18" style="stroke:#000000;stroke-width:8;stroke-miterlimit:4;stroke-dasharray:none;fill:none;stroke-opacity:1"/>
      <path d="m 62.3984,897.602 28.8008,19.199 47.9998,13.199 123.602,13.199 126,15.602 96,0 24,-3.602 51.597,-12 90,-16.801 48,-2.398 34.801,2.398 38.403,10.801 L 794.398,924 804,908.398 807.602,868.801 804,837.602 788.398,799.199 646.801,613.199 577.199,501.602 548.398,444 l -34.796,-67.199 -20.403,-86.403 -12,-90" inkscape:connector-curvature="0" id="path20" style="stroke:#000000;stroke-width:8;stroke-miterlimit:4;stroke-dasharray:none;fill:none;stroke-opacity:1"/>
      <path d="m 756,1195.2 165.602,-61.2 163.198,-40.8 67.2,-13.2 57.6,-2.4 69.6,0 76.8,2.4 57.6,13.2 58.8,13.2 6,-7.2 -6,-21.6 -22.8,-16.8 -76.8,-15.6 -76.8,-9.6 -86.4,0 -73.2,6 -124.8,22.8 -70.799,21.6" inkscape:connector-curvature="0" id="path22" style="stroke:#000000;stroke-width:8;stroke-miterlimit:4;stroke-dasharray:none;fill:none;stroke-opacity:1"/>
      <path d="m 852,1134 124.801,-66 124.799,-64.8 76.8,-38.399 57.6,-21.602 63.6,-16.801 44.4,-6 82.8,-9.597 34.8,6 16.8,3.597 12,-9.597 3.6,-19.199 -48,-15.602 -57.6,-7.199 -63.6,10.801 -88.8,18 L 1159.2,924 1084.8,958.801 906,1060.8" inkscape:connector-curvature="0" id="path24" style="stroke:#000000;stroke-width:8;stroke-miterlimit:4;stroke-dasharray:none;fill:none;stroke-opacity:1"/>
      <path d="m 583.199,1114.8 -19.199,-2.4 -15.602,-19.2 0,-22.8 15.602,-15.6 21.602,0 22.796,9.6 3.602,13.2 -6,19.2 -16.801,18" inkscape:connector-curvature="0" id="path26" style="stroke:#000000;stroke-width:8;stroke-miterlimit:4;stroke-dasharray:none;fill:none;stroke-opacity:1"/>
      <path d="m 1622.4,448.801 0,-432.0002 99.6,0 0,432.0002 -99.6,0" inkscape:connector-curvature="0" id="path28" style="stroke:#000000;stroke-width:8;stroke-miterlimit:4;stroke-dasharray:none;fill:none;stroke-opacity:1"/>
      <path d="m 1990.8,1455.6 0,-432 94.8,0 0,432 -94.8,0" inkscape:connector-curvature="0" id="path30" style="stroke:#000000;stroke-width:8;stroke-miterlimit:4;stroke-dasharray:none;fill:none;stroke-opacity:1"/>
      <path d="m 2354.4,448.801 0,-432.0002 99.6,0 0,432.0002 -96,0" inkscape:connector-curvature="0" id="path32" style="stroke:#000000;stroke-width:8;stroke-miterlimit:4;stroke-dasharray:none;fill:none;stroke-opacity:1"/>
    </g>
  </g>
</svg>
