<?xml version="1.0" encoding="UTF-8"?>
<!-- Created with Inkscape (http://www.inkscape.org/) -->
<svg xmlns:dc="http://purl.org/dc/elements/1.1/" xmlns:cc="http://creativecommons.org/ns#" xmlns:rdf="http://www.w3.org/1999/02/22-rdf-syntax-ns#" xmlns:svg="http://www.w3.org/2000/svg" xmlns="http://www.w3.org/2000/svg" xmlns:inkscape="http://www.inkscape.org/namespaces/inkscape" version="1.1" width="765" height="990" id="svg2" xml:space="preserve">
  <metadata id="metadata8">
    <rdf:RDF>
      <cc:Work rdf:about="">
        <dc:format>image/svg+xml</dc:format>
        <dc:type rdf:resource="http://purl.org/dc/dcmitype/StillImage"/>
      </cc:Work>
    </rdf:RDF>
  </metadata>
  <defs id="defs6"/>
  <g transform="matrix(1.25,0,0,-1.25,0,990)" id="g10">
    <g transform="scale(0.1,0.1)" id="g12">
      <path d="m 1017.6,1014 21.6,36 27.6,27.6 38.4,9.6 33.6,-7.2 24,-20.4 12,-18 9.6,-41.998 0,-490.801 -1170.0016,0 0,490.801 12,41.998 9.6016,18 22.8008,20.4 33.5976,7.2 43.2036,-9.6 26.398,-27.6 18,-32.4" inkscape:connector-curvature="0" id="path14" style="stroke:#000000;stroke-width:8;stroke-miterlimit:4;stroke-dasharray:none;fill:none;stroke-opacity:1"/>
      <path d="m 630,1461.6 -48,0 -18,-2.4 -32.398,-6 -21.602,-3.6 -18,-6 -18,-6 -24,-6 -21.602,-9.6 -21.597,-8.4 -18,-9.6 -18,-12 -18,-12 -18,-12 -15.602,-15.6 -32.398,-30 -13.199,-15.6 -12,-12 -20.403,-30 -18,-30 -9.597,-18 -6,-21.6 -12,-42 -8.403,-18 -3.597,-27.6 -3.602,-18 0,-85.2 3.602,-20.4 12,-42 6,-27.602 6,-15.597 12,-27.602 6,-18 18,-18 6,-14.398 15.597,-18 12,-15.602 14.403,-21.597 31.199,-26.403 21.597,-15.597 20.403,-14.403 12,-9.597 18,-12 18,-8.403 27.597,-9.597 18,-9.602 24,-6 L 498,651.602 518.398,644.398 540,642 l 24,-2.398 45.602,0 L 630,642 l 7.199,-2.398 24,2.398 18,2.398 24,7.204 12,2.398 25.199,6 18,9.602 26.403,9.597 18,8.403 18,12 13.199,9.597 24,14.403 18,15.597 30,26.403 14.398,21.597 13.204,15.602 14.398,18 9.602,14.398 14.398,18 9.602,18 9.597,27.602 8.403,15.597 5.998,27.602 8.4,42 3.6,20.4 0,85.2 -3.6,18 -2.4,27.6 -6,18 -5.998,30 -14.403,33.6 -9.597,18 -12,21.6 -27.602,38.4 -8.398,12 -12,15.6 -37.204,30 -14.398,15.6 -15.602,12 -18,12 -21.597,12 -14.403,9.6 -24,8.4 -19.199,9.6 -26.398,6 -15.602,6 -21.597,6 -18,3.6 -18,6 -36,2.4 -21.602,0" inkscape:connector-curvature="0" id="path16" style="stroke:#000000;stroke-width:8;stroke-miterlimit:4;stroke-dasharray:none;fill:none;stroke-opacity:1"/>
      <path d="m 530.398,22.8008 -515.9996,0 6,43.1992 7.2032,28.8008 10.7968,28.8012 15.6016,21.597 13.1992,19.199 16.8008,24 19.199,18 25.199,16.801 19.204,13.199 28.796,13.204 28.801,9.597 19.199,3.602 34.801,4.801 26.403,0 24,-4.801 L 336,259.199 363.602,252 384,246 410.398,228 432,213.602 451.199,198 l 18,-22.801 16.801,-22.801 15.602,-25.199 10.796,-21.597 8.403,-32.4028 7.199,-24 2.398,-26.3984" inkscape:connector-curvature="0" id="path18" style="stroke:#000000;stroke-width:8;stroke-miterlimit:4;stroke-dasharray:none;fill:none;stroke-opacity:1"/>
      <path d="m 1184.4,416.398 -175.2,-394.7964 -87.598,0 175.198,394.7964 87.6,0" inkscape:connector-curvature="0" id="path20" style="stroke:#000000;stroke-width:8;stroke-miterlimit:4;stroke-dasharray:none;fill:none;stroke-opacity:1"/>
      <path d="M 919.199,416.398 744,21.6016 l -87.602,0 176.403,394.7964 86.398,0" inkscape:connector-curvature="0" id="path22" style="stroke:#000000;stroke-width:8;stroke-miterlimit:4;stroke-dasharray:none;fill:none;stroke-opacity:1"/>
      <path d="m 2101.2,19.1992 -738,0 L 1542,88.8008 1436.4,438 l -2.4,32.398 -3.6,28.801 3.6,25.199 8.4,15.602 9.6,13.199 13.2,7.199 13.2,2.403 25.2,0 6,-2.403 16.8,-7.199 19.2,-15.597 204,-253.204 22.8,399.602 6,57.602 9.6,45.597 9.6,25.199 25.2,22.801 22.8,15.602 12,6 20.4,3.597 38.4,0 31.2,-15.597 20.4,-22.801 12,-26.398 15.6,-28.801 7.2,-37.199 2.4,-39.602 6,-25.199 0,-534 -6,-21.602 -12,-20.3982 115.2,-73.1992" inkscape:connector-curvature="0" id="path24" style="stroke:#000000;stroke-width:8;stroke-miterlimit:4;stroke-dasharray:none;fill:none;stroke-opacity:1"/>
      <path d="M 1765.2,620.398 1698,624 l 3.6,108 9.6,55.199 13.2,37.199 19.2,42" inkscape:connector-curvature="0" id="path26" style="stroke:#000000;stroke-width:8;stroke-miterlimit:4;stroke-dasharray:none;fill:none;stroke-opacity:1"/>
      <path d="m 2014.8,620.398 67.2,0 3.6,280.801 -9.6,55.199 -22.8,54.002 -38.4,67.2 -44.4,42 -48,32.4 -57.6,15.6 -57.6,6" inkscape:connector-curvature="0" id="path28" style="stroke:#000000;stroke-width:8;stroke-miterlimit:4;stroke-dasharray:none;fill:none;stroke-opacity:1"/>
      <path d="m 1743.6,1129.2 15.6,-6 9.6,9.6 -12,8.4 -10.8,-8.4" inkscape:connector-curvature="0" id="path30" style="stroke:#000000;stroke-width:8;stroke-miterlimit:4;stroke-dasharray:none;fill:none;stroke-opacity:1"/>
      <path d="m 1743.6,866.398 -13.2,16.801 -2.4,34.801 28.8,60 54,74.4 12,9.6 10.8,21.6 2.4,22.8 -2.4,26.4 -10.8,19.2 -19.2,21.6 -38.4,3.6 -37.2,-3.6 -30,-9.6 -21.6,-19.2 -32.4,-3.6 -38.4,-6 -42,-15.6 -34.8,-19.2 -50.4,-42 -26.4,-28.8 -15.6,-19.2 9.6,-6 42,38.4 46.8,34.8 36,16.8 38.4,9.6 42,-3.6 31.2,-3.6 26.4,-6 19.2,-26.4 -3.6,-28.8 -32.4,-57.6 -25.2,-54 -15.6,-57.602 9.6,-37.199 25.2,-20.398 34.8,-6" inkscape:connector-curvature="0" id="path32" style="stroke:#000000;stroke-width:8;stroke-miterlimit:4;stroke-dasharray:none;fill:none;stroke-opacity:1"/>
      <path d="m 1833.6,1180.8 31.2,6 15.6,6 38.4,25.2 15.6,26.4 16.8,28.8 3.6,34.8 -3.6,38.4 -13.2,38.4 -21.6,32.4 -38.4,25.2 -28.8,7.2 -26.4,6 -48,0 -31.2,-6 -45.6,-26.4 -31.2,-34.8 -9.6,-25.2 -6,-39.6 2.4,-25.2 3.6,-28.8 6,-19.2 16.8,-19.2 28.8,-21.6 34.8,-20.4 34.8,-8.4 25.2,-3.6 30,3.6" inkscape:connector-curvature="0" id="path34" style="stroke:#000000;stroke-width:8;stroke-miterlimit:4;stroke-dasharray:none;fill:none;stroke-opacity:1"/>
      <path d="m 1951.2,1269.6 3.6,-22.8 15.6,-28.8 32.4,-28.8 -22.8,39.6 -9.6,34.8 -9.6,31.2" inkscape:connector-curvature="0" id="path36" style="stroke:#000000;stroke-width:8;stroke-miterlimit:4;stroke-dasharray:none;fill:none;stroke-opacity:1"/>
      <path d="m 1660.8,1254 -16.8,-25.2 -25.2,-10.8 -19.2,7.2 -6,25.2 2.4,32.4 9.6,32.4 13.2,28.8 0,28.8 -13.2,21.6 -28.8,6 -38.4,-6 -6,-19.2 25.2,-12 38.4,-10.8 -21.6,-6 -32.4,-22.8 -9.6,-28.8 6,-50.4 22.8,-42 28.8,-9.6 38.4,0 15.6,9.6 25.2,32.4" inkscape:connector-curvature="0" id="path38" style="stroke:#000000;stroke-width:8;stroke-miterlimit:4;stroke-dasharray:none;fill:none;stroke-opacity:1"/>
      <path d="m 1429.2,511.199 0,310.801 -3.6,19.199 -6,13.199 -9.6,2.403 -9.6,3.597 -6,-6 -3.6,-16.796 -2.4,-13.204 -7.2,-8.398 -6,-9.602 -3.6,-19.199 -2.4,-20.398 -3.6,-12 -3.6,-3.602 -6,0 -3.6,3.602 3.6,25.199 -3.6,26.398 -3.6,22.801 7.2,27.602 13.2,22.801 8.4,15.597 13.2,22.801 3.6,19.199 0,51.602 15.6,-7.199 13.2,-15.602 2.4,-13.199 0,-9.602 -2.4,-21.597 -3.6,-16.801 -6,-15.602 -9.6,-6 -7.2,-13.199 16.8,0 9.6,-6 9.6,-16.801 9.6,-22.801 0,-18 -3.6,-295.199" inkscape:connector-curvature="0" id="path40" style="stroke:#000000;stroke-width:8;stroke-miterlimit:4;stroke-dasharray:none;fill:none;stroke-opacity:1"/>
    </g>
  </g>
</svg>
