<?xml version="1.0" encoding="UTF-8"?>
<!-- Created with Inkscape (http://www.inkscape.org/) -->
<svg xmlns:dc="http://purl.org/dc/elements/1.1/" xmlns:cc="http://creativecommons.org/ns#" xmlns:rdf="http://www.w3.org/1999/02/22-rdf-syntax-ns#" xmlns:svg="http://www.w3.org/2000/svg" xmlns="http://www.w3.org/2000/svg" xmlns:inkscape="http://www.inkscape.org/namespaces/inkscape" version="1.1" width="765" height="990" id="svg2" xml:space="preserve">
  <metadata id="metadata8">
    <rdf:RDF>
      <cc:Work rdf:about="">
        <dc:format>image/svg+xml</dc:format>
        <dc:type rdf:resource="http://purl.org/dc/dcmitype/StillImage"/>
      </cc:Work>
    </rdf:RDF>
  </metadata>
  <defs id="defs6"/>
  <g transform="matrix(1.25,0,0,-1.25,0,990)" id="g10">
    <g transform="scale(0.1,0.1)" id="g12">
      <path d="m 1963.2,194.398 0,1012.802 -21.6,3.6 -9.6,9.6 -22.8,15.6 -12,20.4 -7.2,27.6 -6,40.8 0,28.8 -2.4,22.8 -19.2,25.2 -13.2,6 -21.6,3.6 -22.8,6 6,13.2 86.4,19.2 66,6 92.4,-6 73.2,-15.6 0,-16.8 -19.2,-2.4 -34.8,-19.2 -9.6,-13.2 -9.6,-12 -2.4,-45.6 -3.6,-27.6 -6,-38.4 -10.8,-19.2 -27.6,-25.2 -25.2,-7.2 0,-1012.802" inkscape:connector-curvature="0" id="path14" style="stroke:#000000;stroke-width:8;stroke-miterlimit:4;stroke-dasharray:none;fill:none;stroke-opacity:1"/>
      <path d="m 1868.4,168 -159.6,668.398 -31.2,0 -21.6,18 -16.8,13.204 -15.6,28.796 -12,38.403 -3.6,27.597 -9.6,22.801 -28.8,19.201 -12,3.6 -44.4,0 2.4,12 111.6,48 46.8,15.6 80.4,9.6 75.6,0 3.6,-15.6 -19.2,-9.6 -32.4,-25.2 -6,-15.6 -6,-13.2 9.6,-44.398 2.4,-25.204 0,-38.398 -2.4,-22.801 L 1758,852 1731.6,842.398 1884,177.602" inkscape:connector-curvature="0" id="path16" style="stroke:#000000;stroke-width:8;stroke-miterlimit:4;stroke-dasharray:none;fill:none;stroke-opacity:1"/>
      <path d="m 2072.4,175.199 154.8,661.199 32.4,0 21.6,18 13.2,13.204 15.6,28.796 13.2,38.403 2.4,27.597 13.2,22.801 28.8,19.201 12,3.6 44.4,0 -2.4,12 -80.4,38.4 -60,19.2 -98.4,15.6 -76.8,0 -2.4,-15.6 19.2,-7.2 31.2,-27.6 7.2,-15.6 6,-13.2 -9.6,-44.398 -3.6,-25.204 0,-61.199 22.8,-31.199 28.8,-9.602 -152.4,-661.199" inkscape:connector-curvature="0" id="path18" style="stroke:#000000;stroke-width:8;stroke-miterlimit:4;stroke-dasharray:none;fill:none;stroke-opacity:1"/>
      <path d="m 2217.6,16.8008 -477.6,0 -7.2,9.5976 3.6,10.8008 16.8,15.6016 24,27.5976 9.6,23.9996 7.2,48 -1.2,36 0,16.801 21.6,-24 15.6,-16.801 19.2,-3.597 16.8,0 18,3.597 20.4,13.204 20.4,24 19.2,-27.602 20.4,-12 16.8,-1.199 20.4,14.398 16.8,28.801 14.4,-21.602 14.4,-14.398 22.8,-10.801 36,0 24,12 15.6,15.602 16.8,22.801 -3.6,-56.403 3.6,-19.199 10.8,-27.602 20.4,-31.1988 14.4,-20.3984 13.2,-9.6016 3.6,-15.5976 -4.8,-8.4024" inkscape:connector-curvature="0" id="path20" style="stroke:#000000;stroke-width:8;stroke-miterlimit:4;stroke-dasharray:none;fill:none;stroke-opacity:1"/>
      <path d="m 586.801,16.8008 -572.4026,0 0,80.3984 172.8006,0 L 132,128.398 97.1992,164.398 75.6016,186 52.8008,214.801 30,253.199 l -9.6016,42 -6,50.403 0,48 L 24,433.199 33.6016,477.602 66,531.602 91.1992,564 120,592.801 154.801,618 l 51.597,15.602 25.204,9.597 51.597,7.199 66,0 74.403,-22.796 42,-16.801 34.796,-25.199 31.204,-31.204 42,-64.796 19.199,-54 9.597,-86.403 -9.597,-50.398 -25.199,-76.801 -28.801,-39.602 -25.199,-28.796 -42,-27.602 -48,-28.8008 163.199,0 0,-80.3984" inkscape:connector-curvature="0" id="path22" style="stroke:#000000;stroke-width:8;stroke-miterlimit:4;stroke-dasharray:none;fill:none;stroke-opacity:1"/>
      <path d="m 285.602,132 -31.204,9.602 -42,12 -40.796,22.796 -22.801,22.801 -19.199,25.199 L 114,247.199 103.199,270 l -11.9998,57.602 0,60 L 114,462 l 28.801,40.801 18,19.199 16.801,13.199 31.199,19.199 80.398,19.204 36,0 50.403,-13.204 61.199,-25.199 L 462,518.398 484.801,487.199 506.398,462 l 19.204,-70.801 0,-70.801 -6,-21.597 -6,-26.403 -39.602,-54 -8.398,-13.199 -32.403,-25.199 -36,-28.801 -69.597,-15.597 -42,-3.602" inkscape:connector-curvature="0" id="path24" style="stroke:#000000;stroke-width:8;stroke-miterlimit:4;stroke-dasharray:none;fill:none;stroke-opacity:1"/>
      <path d="M 174,180 1021.2,1455.6 1488,404.398" inkscape:connector-curvature="0" id="path26" style="stroke:#000000;stroke-width:8;stroke-miterlimit:4;stroke-dasharray:none;fill:none;stroke-opacity:1"/>
      <path d="m 1021.2,1455.6 186,-1127.998" inkscape:connector-curvature="0" id="path28" style="stroke:#000000;stroke-width:8;stroke-miterlimit:4;stroke-dasharray:none;fill:none;stroke-opacity:1"/>
      <path d="m 1194,451.199 242.4,80.403" inkscape:connector-curvature="0" id="path30" style="stroke:#000000;stroke-width:8;stroke-miterlimit:4;stroke-dasharray:none;fill:none;stroke-opacity:1"/>
      <path d="m 1315.2,487.199 48,-111.597" inkscape:connector-curvature="0" id="path32" style="stroke:#000000;stroke-width:8;stroke-miterlimit:4;stroke-dasharray:none;fill:none;stroke-opacity:1"/>
    </g>
  </g>
</svg>
