<?xml version="1.0" encoding="UTF-8"?>
<!-- Created with Inkscape (http://www.inkscape.org/) -->
<svg xmlns:dc="http://purl.org/dc/elements/1.1/" xmlns:cc="http://creativecommons.org/ns#" xmlns:rdf="http://www.w3.org/1999/02/22-rdf-syntax-ns#" xmlns:svg="http://www.w3.org/2000/svg" xmlns="http://www.w3.org/2000/svg" xmlns:inkscape="http://www.inkscape.org/namespaces/inkscape" version="1.1" width="765" height="990" id="svg2" xml:space="preserve">
  <metadata id="metadata8">
    <rdf:RDF>
      <cc:Work rdf:about="">
        <dc:format>image/svg+xml</dc:format>
        <dc:type rdf:resource="http://purl.org/dc/dcmitype/StillImage"/>
      </cc:Work>
    </rdf:RDF>
  </metadata>
  <defs id="defs6"/>
  <g transform="matrix(1.25,0,0,-1.25,0,990)" id="g10">
    <g transform="scale(0.1,0.1)" id="g12">
      <path d="m 394.801,558 148.801,0 -3.602,52.801 12,70.801 18,40.796 26.398,66 133.204,235.202 9.597,50.4 0,25.2 -2.398,43.2 -7.199,30 -21.602,36 -26.398,33.6 -16.801,19.2 -44.403,28.8 -24,13.2 -33.597,12 -49.199,7.2 -68.403,-7.2 -22.801,-10.8 -30,-19.2 -26.398,-26.4 -9.602,-21.6 -12,-19.2 L 60,1156.8 l -21.6016,-7.2 -12,-12 -7.1992,-9.6 -2.3984,-16.8 L 366,1168.8" inkscape:connector-curvature="0" id="path14" style="stroke:#000000;stroke-width:8;stroke-miterlimit:4;stroke-dasharray:none;fill:none;stroke-opacity:1"/>
      <path d="M 19.1992,1101.6 36,1096.8 l 33.6016,-3.6 303.5974,39.6 -7.199,33.6 -19.199,51.6" inkscape:connector-curvature="0" id="path16" style="stroke:#000000;stroke-width:8;stroke-miterlimit:4;stroke-dasharray:none;fill:none;stroke-opacity:1"/>
      <path d="m 378,1132.8 14.398,2.4 24,0 82.801,-19.2 38.403,-4.8 25.199,-2.4 67.199,7.2 22.801,-22.8 3.597,-27.6 -1.199,-25.2 L 642,1011.6 535.199,871.199 472.801,786 447.602,741.602 422.398,691.199 404.398,626.398 394.801,558" inkscape:connector-curvature="0" id="path18" style="stroke:#000000;stroke-width:8;stroke-miterlimit:4;stroke-dasharray:none;fill:none;stroke-opacity:1"/>
      <path d="m 594,1306.8 123.602,-43.2 123.597,-28.8 50.403,-9.6 44.398,-2.4 51.602,0 59.998,2.4 40.8,9.6 46.8,9.6 4.8,-4.8 -4.8,-16.8 -16.8,-12 -58.8,-12 -55.2,-7.2 -68.4,0 -55.199,4.8 -96,16.8 L 732,1230" inkscape:connector-curvature="0" id="path20" style="stroke:#000000;stroke-width:8;stroke-miterlimit:4;stroke-dasharray:none;fill:none;stroke-opacity:1"/>
      <path d="m 646.801,1270.8 204,-104.4 61.199,-26.4 45.602,-14.4 46.798,-12 33.6,-9.6 62.4,-2.4 27.6,-2.4 14.4,0 9.6,-2.4 2.4,-14.4 -46.8,-14.4 -36,-2.4 -48,4.8 -65.998,16.8 -116.403,45.6 -135.597,78" inkscape:connector-curvature="0" id="path22" style="stroke:#000000;stroke-width:8;stroke-miterlimit:4;stroke-dasharray:none;fill:none;stroke-opacity:1"/>
      <path d="m 436.801,1251.6 -14.403,-2.4 -13.199,-14.4 0,-16.8 13.199,-12 16.801,0 14.403,7.2 2.398,9.6 -4.801,14.4 -9.597,14.4" inkscape:connector-curvature="0" id="path24" style="stroke:#000000;stroke-width:8;stroke-miterlimit:4;stroke-dasharray:none;fill:none;stroke-opacity:1"/>
      <path d="m 1604.4,764.398 318,307.202" inkscape:connector-curvature="0" id="path26" style="stroke:#000000;stroke-width:8;stroke-miterlimit:4;stroke-dasharray:none;fill:none;stroke-opacity:1"/>
      <path d="M 1489.2,808.801 1881.6,1183.2" inkscape:connector-curvature="0" id="path28" style="stroke:#000000;stroke-width:8;stroke-miterlimit:4;stroke-dasharray:none;fill:none;stroke-opacity:1"/>
      <path d="M 1412.4,889.199 1804.8,1264.8" inkscape:connector-curvature="0" id="path30" style="stroke:#000000;stroke-width:8;stroke-miterlimit:4;stroke-dasharray:none;fill:none;stroke-opacity:1"/>
      <path d="m 1374,1005.6 313.2,297.6" inkscape:connector-curvature="0" id="path32" style="stroke:#000000;stroke-width:8;stroke-miterlimit:4;stroke-dasharray:none;fill:none;stroke-opacity:1"/>
      <path d="m 1762.8,1286.4 -26.4,8.4 -26.4,8.4 -30,6 -28.8,0 -32.4,-3.6 -26.4,-2.4 -30,-8.4 -27.6,-10.8 -26.4,-12 -24,-16.8 -19.2,-16.8 -20.4,-20.4 -14.4,-16.8 -15.6,-22.8 -16.8,-31.2 -7.2,-25.2 -7.2,-26.4 -4.8,-26.4 -4.8,-32.4 0,-26.4 4.8,-32.4 7.2,-27.602 7.2,-24 12,-26.398 7.2,-15.602 10.8,-12 24,-26.398 24,-25.199 22.8,-16.801 26.4,-15.602 30,-14.398 28.8,-7.199 25.2,-7.199 28.8,0 28.8,-2.403 34.8,4.801 25.2,4.801 28.8,13.199 30,14.398 19.2,9.602 22.8,19.199 21.6,20.403 21.6,21.597 18,26.403 16.8,25.199 12,24 7.2,30 2.4,26.398 4.8,32.401 -2.4,26.4 -2.4,32.4 -7.2,26.4 -9.6,25.2 -13.2,32.4 -16.8,24 -16.8,19.2 -19.2,24 -25.2,18 -24,16.8 -27.6,12" inkscape:connector-curvature="0" id="path34" style="stroke:#000000;stroke-width:8;stroke-miterlimit:4;stroke-dasharray:none;fill:none;stroke-opacity:1"/>
      <path d="m 1692,58.8008 -91.2,18 -64.8,12 -48,16.8012 -58.8,24 -62.4,30 -115.2,64.796 -117.6,64.801 -58.8,20.403 -70.8,27.597 L 932.398,348 879.602,360 814.801,360 750,351.602 685.199,330 620.398,297.602 548.398,244.801 501.602,200.398 454.801,171.602 416.398,144 382.801,135.602 348,121.199 l -34.801,-12 -60,-9.5974" inkscape:connector-curvature="0" id="path36" style="stroke:#000000;stroke-width:8;stroke-miterlimit:4;stroke-dasharray:none;fill:none;stroke-opacity:1"/>
      <path d="m 315.602,111.602 50.398,0 44.398,3.597 44.403,-9.597 76.801,-16.8012 58.796,-24 64.801,-14.4024 70.801,-18 44.398,-9.5976 80.403,-2.4024 103.199,8.4024 50.4,6 164.4,20.3984 66,9.6016 58.8,6 58.8,6 117.6,6 60,-6 50.4,-6 49.2,-6 27.6,0" inkscape:connector-curvature="0" id="path38" style="stroke:#000000;stroke-width:8;stroke-miterlimit:4;stroke-dasharray:none;fill:none;stroke-opacity:1"/>
      <path d="m 669.602,319.199 -20.403,-30 -6,-24 -8.398,-28.801 -3.602,-30 12,-52.796 18,-26.403 18,-27.5974 28.801,-22.8008 33.602,-18 67.199,-8.4024 50.398,4.8008 38.403,6 46.796,33.6016 30,34.8012 14.403,26.398 9.597,56.398 -6,52.801 -15.597,30 -14.403,24 -30,28.801" inkscape:connector-curvature="0" id="path40" style="stroke:#000000;stroke-width:8;stroke-miterlimit:4;stroke-dasharray:none;fill:none;stroke-opacity:1"/>
    </g>
  </g>
</svg>
