<?xml version="1.0" encoding="UTF-8"?>
<!-- Created with Inkscape (http://www.inkscape.org/) -->
<svg xmlns:dc="http://purl.org/dc/elements/1.1/" xmlns:cc="http://creativecommons.org/ns#" xmlns:rdf="http://www.w3.org/1999/02/22-rdf-syntax-ns#" xmlns:svg="http://www.w3.org/2000/svg" xmlns="http://www.w3.org/2000/svg" xmlns:inkscape="http://www.inkscape.org/namespaces/inkscape" version="1.1" width="765" height="990" id="svg2" xml:space="preserve">
  <metadata id="metadata8">
    <rdf:RDF>
      <cc:Work rdf:about="">
        <dc:format>image/svg+xml</dc:format>
        <dc:type rdf:resource="http://purl.org/dc/dcmitype/StillImage"/>
      </cc:Work>
    </rdf:RDF>
  </metadata>
  <defs id="defs6"/>
  <g transform="matrix(1.25,0,0,-1.25,0,990)" id="g10">
    <g transform="scale(0.1,0.1)" id="g12">
      <path d="m 938.398,498 150.002,-25.199 69.6,-6 61.2,-34.801 44.4,-70.801 13.2,-34.801 15.6,-22.796 32.4,-6 73.2,28.796 54,-39.597 51.6,-12 38.4,12 15.6,36 -9.6,51.597 -28.8,31.204 -28.8,28.796 7.2,105.602 -16.8,22.801 -76.8,0 -63.6,3.597 -67.2,44.403 -124.8,109.199 -94.8,79.199 -64.799,44.403" inkscape:connector-curvature="0" id="path14" style="stroke:#000000;stroke-width:8;stroke-miterlimit:4;stroke-dasharray:none;fill:none;stroke-opacity:1"/>
      <path d="m 940.801,795.602 61.199,58.796 124.8,86.403 159.6,159.599 80.4,172.8 18,92.4 -2.4,90 -134.4,-32.4 -124.8,-63.6 -220.802,-186 -127.199,-138 -96,-63.6 -82.801,-6 -38.398,32.398 -19.199,98.402 0,118.8 -32.403,92.4 -28.796,36 -38.403,27.6 -63.597,20.4 -55.204,-3.6 -31.199,-19.2 -34.801,-28.8 -34.796,-67.2 L 180,1221.6 33.6016,1129.2 14.3984,1077.6 193.199,1160.4" inkscape:connector-curvature="0" id="path16" style="stroke:#000000;stroke-width:8;stroke-miterlimit:4;stroke-dasharray:none;fill:none;stroke-opacity:1"/>
      <path d="m 187.199,1228.8 9.602,-70.8 28.801,-32.4" inkscape:connector-curvature="0" id="path18" style="stroke:#000000;stroke-width:8;stroke-miterlimit:4;stroke-dasharray:none;fill:none;stroke-opacity:1"/>
      <path d="m 337.199,1260 15.602,9.6 0,16.8 -9.602,12 -9.597,-3.6 -8.403,-12 2.403,-9.6 6,-13.2" inkscape:connector-curvature="0" id="path20" style="stroke:#000000;stroke-width:8;stroke-miterlimit:4;stroke-dasharray:none;fill:none;stroke-opacity:1"/>
      <path d="m 24,1077.6 22.8008,-6 82.8012,12 98.398,42 99.602,-15.6 86.398,2.4 6,-15.6 -6,-98.402 9.602,-97.199 34.796,-111.597 67.204,-82.801 96,-86.403 96,-48 76.796,-42 25.204,-38.398 22.796,-50.398 -48,-118.801 -76.796,-105.602 -48,-70.801 L 637.199,60 640.801,25.1992" inkscape:connector-curvature="0" id="path22" style="stroke:#000000;stroke-width:8;stroke-miterlimit:4;stroke-dasharray:none;fill:none;stroke-opacity:1"/>
      <path d="m 637.199,54 36,-6 6,-22.8008 60,28.8008 13.199,-15.6016 34.801,171.6016 90,154.801 15.602,69.597 70.801,92.403" inkscape:connector-curvature="0" id="path24" style="stroke:#000000;stroke-width:8;stroke-miterlimit:4;stroke-dasharray:none;fill:none;stroke-opacity:1"/>
      <path d="m 679.199,15.6016 9.602,57.5976 15.597,53.9998" inkscape:connector-curvature="0" id="path26" style="stroke:#000000;stroke-width:8;stroke-miterlimit:4;stroke-dasharray:none;fill:none;stroke-opacity:1"/>
      <path d="m 960,492 51.6,-99.602 -32.401,-142.796 -94.801,-132 -10.796,-79.2036 10.796,25.2032 28.801,-3.6016 6,-40.8008 31.199,38.4024 34.801,12 7.199,-19.2032 L 1008,102 1024.8,243.602 1044,342 l 2.4,50.398 44.4,84" inkscape:connector-curvature="0" id="path28" style="stroke:#000000;stroke-width:8;stroke-miterlimit:4;stroke-dasharray:none;fill:none;stroke-opacity:1"/>
      <path d="m 921.602,21.6016 3.597,54 L 940.801,138" inkscape:connector-curvature="0" id="path30" style="stroke:#000000;stroke-width:8;stroke-miterlimit:4;stroke-dasharray:none;fill:none;stroke-opacity:1"/>
      <path d="M 484.801,760.801 375.602,668.398 302.398,582 231.602,447.602 148.801,214.801 97.1992,80.3984 180,69.6016 l 134.398,48.0004 115.204,90 96,112.796 42,92.403 156,153.597" inkscape:connector-curvature="0" id="path32" style="stroke:#000000;stroke-width:8;stroke-miterlimit:4;stroke-dasharray:none;fill:none;stroke-opacity:1"/>
      <path d="m 1662,457.199 0,-431.9998 99.6,0 0,431.9998 -99.6,0" inkscape:connector-curvature="0" id="path34" style="stroke:#000000;stroke-width:8;stroke-miterlimit:4;stroke-dasharray:none;fill:none;stroke-opacity:1"/>
      <path d="m 2030.4,1465.2 0,-432 94.8,0 0,432 -94.8,0" inkscape:connector-curvature="0" id="path36" style="stroke:#000000;stroke-width:8;stroke-miterlimit:4;stroke-dasharray:none;fill:none;stroke-opacity:1"/>
      <path d="m 2394,457.199 0,-431.9998 99.6,0 0,431.9998 -97.2,0" inkscape:connector-curvature="0" id="path38" style="stroke:#000000;stroke-width:8;stroke-miterlimit:4;stroke-dasharray:none;fill:none;stroke-opacity:1"/>
    </g>
  </g>
</svg>
