<?xml version="1.0" encoding="UTF-8"?>
<!-- Created with Inkscape (http://www.inkscape.org/) -->
<svg xmlns:dc="http://purl.org/dc/elements/1.1/" xmlns:cc="http://creativecommons.org/ns#" xmlns:rdf="http://www.w3.org/1999/02/22-rdf-syntax-ns#" xmlns:svg="http://www.w3.org/2000/svg" xmlns="http://www.w3.org/2000/svg" xmlns:inkscape="http://www.inkscape.org/namespaces/inkscape" version="1.1" width="765" height="990" id="svg2" xml:space="preserve">
  <metadata id="metadata8">
    <rdf:RDF>
      <cc:Work rdf:about="">
        <dc:format>image/svg+xml</dc:format>
        <dc:type rdf:resource="http://purl.org/dc/dcmitype/StillImage"/>
      </cc:Work>
    </rdf:RDF>
  </metadata>
  <defs id="defs6"/>
  <g transform="matrix(1.25,0,0,-1.25,0,990)" id="g10">
    <g transform="scale(0.1,0.1)" id="g12">
      <path d="m 3938.4,67.1992 -98.4,19.1992 -70.8,12 -50.4,19.2036 L 3655.2,144 3586.8,175.199 3462,246 l -127.2,69.602 -63.6,22.796 -76.8,28.801 -76.8,13.199 -57.6,12 -70.8,0 -69.6,-8.398 -70.8,-22.801 -69.6,-34.801 -76.8,-57.597 -51.6,-48 -51.6,-32.403 -42,-28.796 -34.8,-9.602 -37.2,-15.602 -39.6,-13.199 -63.6,-9.597" inkscape:connector-curvature="0" id="path14" style="stroke:#000000;stroke-width:8;stroke-miterlimit:4;stroke-dasharray:none;fill:none;stroke-opacity:1"/>
      <path d="m 2449.2,123.602 54,0 48,3.597 48,-9.597 82.8,-19.2036 64.8,-25.1992 69.6,-15.5976 76.8,-19.2032 48,-9.5976 86.4,-3.6016 111.6,9.6016 55.2,6 178.8,22.8008 70.8,9.5976 63.6,6 63.6,7.1992 128.4,6 63.6,-6 54,-7.1992 55.2,-6 28.8,0" inkscape:connector-curvature="0" id="path16" style="stroke:#000000;stroke-width:8;stroke-miterlimit:4;stroke-dasharray:none;fill:none;stroke-opacity:1"/>
      <path d="m 2833.2,348 -22.8,-32.398 -6,-25.204 -9.6,-32.398 -3.6,-31.199 13.2,-57.602 19.2,-28.801 19.2,-28.796 31.2,-25.2036 36,-19.1992 73.2,-9.5976 54,6 42,6 51.6,36.0004 31.2,38.398 16.8,28.801 8.4,60 -6,57.597 -15.6,32.403 -15.6,25.199 -32.4,32.398" inkscape:connector-curvature="0" id="path18" style="stroke:#000000;stroke-width:8;stroke-miterlimit:4;stroke-dasharray:none;fill:none;stroke-opacity:1"/>
      <path d="m 3908.4,1146 -98.4,19.2 -70.8,13.2 -50.4,19.2 -63.6,25.2 -68.4,32.4 -124.8,70.8 -127.2,69.6 -63.6,22.8 -76.8,28.8 -76.8,13.2 -57.6,12 -70.8,0 -69.6,-9.6 -70.8,-22.8 -69.6,-34.8 -76.8,-57.6 -51.6,-48 -51.6,-31.2 -42,-28.8 -34.8,-10.8 -37.2,-15.6 -39.6,-13.2 -63.6,-8.4" inkscape:connector-curvature="0" id="path20" style="stroke:#000000;stroke-width:8;stroke-miterlimit:4;stroke-dasharray:none;fill:none;stroke-opacity:1"/>
      <path d="m 2419.2,1203.6 54,0 48,3.6 48,-9.6 82.8,-19.2 64.8,-26.4 69.6,-15.6 76.8,-19.2 48,-9.6 86.4,-2.4 111.6,9.6 55.2,6 178.8,22.8 70.8,8.4 63.6,7.2 63.6,6 128.4,7.2 63.6,-7.2 54,-6 55.2,-7.2 28.8,0" inkscape:connector-curvature="0" id="path22" style="stroke:#000000;stroke-width:8;stroke-miterlimit:4;stroke-dasharray:none;fill:none;stroke-opacity:1"/>
      <path d="m 2803.2,1428 -22.8,-32.4 -6,-25.2 -9.6,-32.4 -3.6,-32.4 13.2,-56.4 19.2,-28.8 19.2,-28.8 31.2,-26.4 36,-19.2 73.2,-9.6 54,7.2 42,6 51.6,34.8 31.2,38.4 16.8,28.8 8.4,61.2 -6,57.6 -15.6,32.4 -15.6,25.2 -32.4,32.4" inkscape:connector-curvature="0" id="path24" style="stroke:#000000;stroke-width:8;stroke-miterlimit:4;stroke-dasharray:none;fill:none;stroke-opacity:1"/>
      <path d="M 825.602,1090.8 787.199,1050 774,998.398 784.801,948 l 21.597,-38.398 61.204,-58.801 105.597,-56.403 181.201,-67.199 218.4,-45.597 217.2,-25.204 69.6,-6 45.6,-3.597 21.6,6 13.2,13.199 0,15.602 -15.6,13.199 -86.4,15.597 -54,26.403 -32.4,21.597 -76.8,64.801 -115.2,105.602 -115.2,88.799 -105.6,57.6 -102,42 -76.8,21.6 -67.199,3.6 -57.602,-12 -44.398,-22.8 -32.403,-19.2 -15.597,-15.6 -22.801,-3.6 -25.199,6 -3.602,22.8 124.801,102 25.199,28.8 16.801,36 2.398,31.2 -2.398,28.8" inkscape:connector-curvature="0" id="path26" style="stroke:#000000;stroke-width:8;stroke-miterlimit:4;stroke-dasharray:none;fill:none;stroke-opacity:1"/>
      <path d="M 829.199,1347.6 960,1286.4 l 136.8,-50.4 122.4,-26.4 127.2,-9.6 96,-3.6 70.8,10.8 -99.6,15.6 -111.6,9.6 -124.8,19.2 -88.8,25.2 -109.201,38.4 -82.801,34.8 -51.597,36 172.799,-67.2 108,-19.2 58.8,-9.6 121.2,-9.6 111.6,6 67.2,7.2 54,2.4 -118.8,9.6 -100.8,9.6 -99.6,3.6 -86.4,12 -105.6,22.8 -96.001,28.8 -63.597,28.8 -45.602,28.8 -34.801,13.2 -32.398,2.4 -69.602,-8.4 -54,-20.4 -22.801,-15.6 -13.199,-21.6 -3.597,-7.2 0,-25.2 16.796,-26.4 19.204,-6 19.199,-6 34.801,-9.6 38.398,0 22.801,9.6 19.199,2.4 9.602,-15.6 2.398,-28.8 -34.801,-40.8 -57.597,-42 -54,-51.6 -25.204,-34.8 -19.199,-28.8 -9.597,-51.6 6,-28.802 38.398,-57.597 98.398,-108 61.204,-54 70.796,-51.602 102,-45.597 61.202,-88.801 63.6,-74.403 40.8,-44.398 13.2,-28.801 19.2,-207.597 0,-134.403 -6,-21.5974 -22.8,-7.2032 L 982.801,55.1992 973.199,51.6016 954,48 l -9.602,-12 0,-19.1992 18,9.5976 22.801,-6" inkscape:connector-curvature="0" id="path28" style="stroke:#000000;stroke-width:8;stroke-miterlimit:4;stroke-dasharray:none;fill:none;stroke-opacity:1"/>
      <path d="M 1078.8,55.1992 998.398,42 985.199,32.3984 988.801,16.8008 1014,30 l 19.2,-13.1992 128.4,15.5976 98.4,-15.5976 3.6,15.5976 -6,15.6016 -26.4,7.1992 -28.8,9.6016 -9.6,3.5976 -8.4,19.2032 -3.6,328.7964 6,38.403 0,13.199 -21.6,42 -22.8,37.199 L 1068,666" inkscape:connector-curvature="0" id="path30" style="stroke:#000000;stroke-width:8;stroke-miterlimit:4;stroke-dasharray:none;fill:none;stroke-opacity:1"/>
      <path d="M 1096.8,631.199 1213.2,618 l 94.8,3.602 122.4,12 60,-54 74.4,-67.204 34.8,-2.398 34.8,8.398 38.4,32.403 6,25.199 -76.8,80.398" inkscape:connector-curvature="0" id="path32" style="stroke:#000000;stroke-width:8;stroke-miterlimit:4;stroke-dasharray:none;fill:none;stroke-opacity:1"/>
      <path d="M 591.602,1386 314.398,1216.8 633.602,1321.2" inkscape:connector-curvature="0" id="path34" style="stroke:#000000;stroke-width:8;stroke-miterlimit:4;stroke-dasharray:none;fill:none;stroke-opacity:1"/>
      <path d="M 595.199,1341.6 314.398,1216.8" inkscape:connector-curvature="0" id="path36" style="stroke:#000000;stroke-width:8;stroke-miterlimit:4;stroke-dasharray:none;fill:none;stroke-opacity:1"/>
      <path d="m 656.398,1392 -16.796,-9.6 9.597,-15.6 16.801,6 -6,13.2" inkscape:connector-curvature="0" id="path38" style="stroke:#000000;stroke-width:8;stroke-miterlimit:4;stroke-dasharray:none;fill:none;stroke-opacity:1"/>
      <path d="m 1269.6,45.6016 26.4,-6 12,-9.6016 3.6,-7.1992 -15.6,-6 -22.8,3.5976" inkscape:connector-curvature="0" id="path40" style="stroke:#000000;stroke-width:8;stroke-miterlimit:4;stroke-dasharray:none;fill:none;stroke-opacity:1"/>
      <path d="M 790.801,765.602 858,637.199 934.801,522 l 6,-28.801 L 733.199,118.801 723.602,103.199 714,87.6016 l -22.801,-6 L 614.398,68.3984 562.801,58.8008 544.801,48 531.602,45.6016 512.398,42 l -6,-6 -7.199,-15.6016 19.199,9.6016 22.801,-9.6016" inkscape:connector-curvature="0" id="path42" style="stroke:#000000;stroke-width:8;stroke-miterlimit:4;stroke-dasharray:none;fill:none;stroke-opacity:1"/>
      <path d="m 576,39.6016 -13.199,0 L 547.199,36 l -6,-13.1992 6,-2.4024 19.199,6" inkscape:connector-curvature="0" id="path44" style="stroke:#000000;stroke-width:8;stroke-miterlimit:4;stroke-dasharray:none;fill:none;stroke-opacity:1"/>
      <path d="m 579.602,42 22.796,6 50.403,3.6016" inkscape:connector-curvature="0" id="path46" style="stroke:#000000;stroke-width:8;stroke-miterlimit:4;stroke-dasharray:none;fill:none;stroke-opacity:1"/>
      <path d="M 570,26.3984 595.199,16.8008 714,30 l 19.199,2.3984 96,-15.5976 2.403,15.5976 L 829.199,48 800.398,55.1992 762,68.3984" inkscape:connector-curvature="0" id="path48" style="stroke:#000000;stroke-width:8;stroke-miterlimit:4;stroke-dasharray:none;fill:none;stroke-opacity:1"/>
      <path d="M 758.398,70.8008 754.801,87.6016 954,416.398 l 48,86.403 0,28.801 -36,121.199" inkscape:connector-curvature="0" id="path50" style="stroke:#000000;stroke-width:8;stroke-miterlimit:4;stroke-dasharray:none;fill:none;stroke-opacity:1"/>
      <path d="m 838.801,45.6016 21.597,-6 13.204,-9.6016 3.597,-7.1992 -16.801,-6 -21.597,3.5976" inkscape:connector-curvature="0" id="path52" style="stroke:#000000;stroke-width:8;stroke-miterlimit:4;stroke-dasharray:none;fill:none;stroke-opacity:1"/>
      <path d="m 2156.4,1057.2 -541.2,0 7.2,46.8 7.2,28.8 10.8,30 16.8,24 13.2,20.4 18,25.2 20.4,18 26.4,18 20.4,14.4 28.8,13.2 30,9.6 20.4,4.8 37.2,4.8 27.6,0 25.2,-4.8 27.6,-4.8 30,-7.2 20.4,-6 27.6,-19.2 22.8,-15.6 21.6,-16.8 18,-22.8 18,-25.2 15.6,-25.2 12,-22.8 9.6,-33.6 6,-26.4 2.4,-27.6" inkscape:connector-curvature="0" id="path54" style="stroke:#000000;stroke-width:8;stroke-miterlimit:4;stroke-dasharray:none;fill:none;stroke-opacity:1"/>
      <path d="M 225.602,195.602 520.801,480" inkscape:connector-curvature="0" id="path56" style="stroke:#000000;stroke-width:8;stroke-miterlimit:4;stroke-dasharray:none;fill:none;stroke-opacity:1"/>
      <path d="m 118.801,236.398 363.597,348" inkscape:connector-curvature="0" id="path58" style="stroke:#000000;stroke-width:8;stroke-miterlimit:4;stroke-dasharray:none;fill:none;stroke-opacity:1"/>
      <path d="M 48,312 411.602,660" inkscape:connector-curvature="0" id="path60" style="stroke:#000000;stroke-width:8;stroke-miterlimit:4;stroke-dasharray:none;fill:none;stroke-opacity:1"/>
      <path d="M 12,418.801 302.398,696" inkscape:connector-curvature="0" id="path62" style="stroke:#000000;stroke-width:8;stroke-miterlimit:4;stroke-dasharray:none;fill:none;stroke-opacity:1"/>
      <path d="M 373.199,680.398 348,687.602 322.801,696 l -26.403,3.602 -27.597,0 -30,-1.204 -24,-2.398 -27.602,-8.398 L 162,678 136.801,666 114,650.398 96,634.801 78,616.801 63.6016,600 50.3984,580.801 34.8008,550.801 27.6016,528 20.3984,502.801 16.8008,477.602 12,448.801 l 0,-25.199 4.8008,-30 6,-25.204 L 30,345.602 40.8008,320.398 48,307.199 57.6016,296.398 80.3984,271.199 102,248.398 l 21.602,-15.597 24,-14.403 27.597,-13.199 27.602,-7.199 22.801,-6 26.398,0 27.602,-2.398 32.398,3.597 21.602,4.801 27.597,12 27.602,13.199 18,9.602 21.597,18 19.204,18 20.398,20.398 15.602,25.199 16.796,21.602 10.801,24 7.199,26.398 2.403,25.204 4.801,30 -2.403,25.199 -2.398,28.801 -7.199,25.199 -8.403,22.801 -12,30 -15.597,22.796 -15.602,18 -18,22.801 -22.801,15.602 -22.801,15.597 -25.199,12" inkscape:connector-curvature="0" id="path64" style="stroke:#000000;stroke-width:8;stroke-miterlimit:4;stroke-dasharray:none;fill:none;stroke-opacity:1"/>
    </g>
  </g>
</svg>
