<?xml version="1.0" encoding="UTF-8"?>
<!-- Created with Inkscape (http://www.inkscape.org/) -->
<svg xmlns:dc="http://purl.org/dc/elements/1.1/" xmlns:cc="http://creativecommons.org/ns#" xmlns:rdf="http://www.w3.org/1999/02/22-rdf-syntax-ns#" xmlns:svg="http://www.w3.org/2000/svg" xmlns="http://www.w3.org/2000/svg" xmlns:inkscape="http://www.inkscape.org/namespaces/inkscape" version="1.1" width="765" height="990" id="svg2" xml:space="preserve">
  <metadata id="metadata8">
    <rdf:RDF>
      <cc:Work rdf:about="">
        <dc:format>image/svg+xml</dc:format>
        <dc:type rdf:resource="http://purl.org/dc/dcmitype/StillImage"/>
      </cc:Work>
    </rdf:RDF>
  </metadata>
  <defs id="defs6"/>
  <g transform="matrix(1.25,0,0,-1.25,0,990)" id="g10">
    <g transform="scale(0.1,0.1)" id="g12">
      <path d="m 3188.4,666 -98.4,19.199 -70.8,13.199 -50.4,19.204 -63.6,25.199 -68.4,32.398 L 2712,846 l -127.2,69.602 -63.6,22.796 -76.8,28.801 -76.8,12 -57.6,13.199 -69.6,0 -70.8,-9.597 -70.8,-22.801 -69.6,-34.801 -76.8,-57.597 -51.6,-48 -51.6,-31.204 -40.8,-28.796 -36,-10.801 -37.2,-15.602 L 1696.8,720 1632,711.602" inkscape:connector-curvature="0" id="path14" style="stroke:#000000;stroke-width:8;stroke-miterlimit:4;stroke-dasharray:none;fill:none;stroke-opacity:1"/>
      <path d="m 1699.2,723.602 54,0 48,3.597 48,-9.597 84,-19.204 63.6,-26.398 70.8,-15.602 76.8,-19.199 48,-9.597 85.2,-2.403 111.6,9.602 55.2,6 178.8,22.801 70.8,8.398 63.6,7.199 63.6,6 128.4,7.199 63.6,-7.199 54,-6 55.2,-7.199 28.8,0" inkscape:connector-curvature="0" id="path16" style="stroke:#000000;stroke-width:8;stroke-miterlimit:4;stroke-dasharray:none;fill:none;stroke-opacity:1"/>
      <path d="m 2083.2,948 -22.8,-32.398 -6,-25.204 -9.6,-32.398 -3.6,-32.398 13.2,-56.403 19.2,-28.801 19.2,-28.796 31.2,-26.403 36,-19.199 73.2,-9.602 54,7.204 42,6 51.6,34.796 31.2,38.403 16.8,28.801 9.6,61.199 -7.2,57.597 -15.6,32.403 -15.6,25.199 -32.4,31.199" inkscape:connector-curvature="0" id="path18" style="stroke:#000000;stroke-width:8;stroke-miterlimit:4;stroke-dasharray:none;fill:none;stroke-opacity:1"/>
      <path d="M 525.602,1090.8 487.199,1050 474,998.398 l 10.801,-51.597 21.597,-37.199 61.204,-58.801 105.597,-57.602 181.199,-66 218.402,-45.597 217.2,-25.204 69.6,-6 45.6,-3.597 21.6,6 13.2,13.199 0,15.602 -15.6,13.199 -86.4,15.597 -54,25.204 -32.4,22.796 -76.8,63.602 -115.2,105.602 -115.202,89.998 -105.597,57.6 -102,40.8 -76.801,22.8 -67.199,3.6 -57.602,-13.2 -44.398,-21.6 -32.403,-20.4 -15.597,-15.6 -22.801,-2.4 -25.199,6 -3.602,22.8 124.801,102 26.398,28.8 15.602,34.8 2.398,32.4 -2.398,28.8" inkscape:connector-curvature="0" id="path20" style="stroke:#000000;stroke-width:8;stroke-miterlimit:4;stroke-dasharray:none;fill:none;stroke-opacity:1"/>
      <path d="m 529.199,1346.4 130.801,-60 136.801,-51.6 122.398,-25.2 127.201,-9.6 96,-3.6 70.8,9.6 -99.6,15.6 -111.6,10.8 -124.801,18 -88.801,26.4 -109.199,38.4 -82.801,34.8 -51.597,34.8 172.801,-66 108,-20.4 58.796,-8.4 121.202,-9.6 111.6,6 67.2,6 54,3.6 -118.8,9.6 -100.8,9.6 -99.601,3.6 -86.398,12 -105.602,22.8 -96,28.8 -63.597,28.8 -45.602,28.8 -34.801,12 -32.398,3.6 -69.602,-9.6 -54,-19.2 -22.801,-15.6 -13.199,-22.8 -2.398,-6 0,-26.4 15.597,-25.2 19.204,-6 19.199,-6 34.801,-9.6 38.398,0 22.801,9.6 19.199,2.4 9.602,-15.6 2.398,-28.8 -34.801,-42 -57.597,-42 -54,-50.4 -25.204,-34.8 -19.199,-28.8 -9.597,-51.6 6,-28.802 38.398,-57.597 99.602,-108 60,-55.199 70.796,-50.403 102,-45.597 61.204,-88.801 63.597,-74.403 42,-44.398 12,-28.801 19.199,-207.597 0,-134.403 -6,-21.5974 L 819.602,74.3984 682.801,55.1992 673.199,51.6016 654,48 l -9.602,-12 0,-19.1992 19.204,9.5976 21.597,-6" inkscape:connector-curvature="0" id="path22" style="stroke:#000000;stroke-width:8;stroke-miterlimit:4;stroke-dasharray:none;fill:none;stroke-opacity:1"/>
      <path d="M 778.801,55.1992 698.398,42 685.199,32.3984 688.801,16.8008 714,30 733.199,16.8008 861.602,32.3984 960,16.8008 l 3.602,15.5976 -6,15.6016 -26.403,7.1992 -28.801,9.6016 -9.597,3.5976 -8.403,19.2032 -3.597,328.7964 6,38.403 0,13.199 -21.602,42 -22.801,37.199 L 768,666" inkscape:connector-curvature="0" id="path24" style="stroke:#000000;stroke-width:8;stroke-miterlimit:4;stroke-dasharray:none;fill:none;stroke-opacity:1"/>
      <path d="M 796.801,631.199 913.199,618 l 94.801,3.602 122.4,12 60,-54 74.4,-67.204 34.8,-2.398 34.8,8.398 38.4,32.403 6,25.199 -76.8,80.398" inkscape:connector-curvature="0" id="path26" style="stroke:#000000;stroke-width:8;stroke-miterlimit:4;stroke-dasharray:none;fill:none;stroke-opacity:1"/>
      <path d="M 292.801,1384.8 14.3984,1215.6 333.602,1321.2" inkscape:connector-curvature="0" id="path28" style="stroke:#000000;stroke-width:8;stroke-miterlimit:4;stroke-dasharray:none;fill:none;stroke-opacity:1"/>
      <path d="M 295.199,1340.4 14.3984,1215.6" inkscape:connector-curvature="0" id="path30" style="stroke:#000000;stroke-width:8;stroke-miterlimit:4;stroke-dasharray:none;fill:none;stroke-opacity:1"/>
      <path d="m 356.398,1392 -15.597,-9.6 8.398,-15.6 16.801,6 -6,12" inkscape:connector-curvature="0" id="path32" style="stroke:#000000;stroke-width:8;stroke-miterlimit:4;stroke-dasharray:none;fill:none;stroke-opacity:1"/>
      <path d="m 969.602,45.6016 26.398,-6 12,-9.6016 3.6,-7.1992 -15.6,-6 -22.801,3.5976" inkscape:connector-curvature="0" id="path34" style="stroke:#000000;stroke-width:8;stroke-miterlimit:4;stroke-dasharray:none;fill:none;stroke-opacity:1"/>
      <path d="M 490.801,764.398 558,637.199 634.801,522 l 6,-28.801 L 433.199,118.801 423.602,103.199 414,87.6016 l -22.801,-6 L 314.398,68.3984 264,58.8008 244.801,48 231.602,45.6016 212.398,42 l -6,-6 -6,-15.6016 19.204,9.6016 21.597,-9.6016" inkscape:connector-curvature="0" id="path36" style="stroke:#000000;stroke-width:8;stroke-miterlimit:4;stroke-dasharray:none;fill:none;stroke-opacity:1"/>
      <path d="M 277.199,39.6016 264,39.6016 248.398,36 l -7.199,-13.1992 7.199,-2.4024 18,6" inkscape:connector-curvature="0" id="path38" style="stroke:#000000;stroke-width:8;stroke-miterlimit:4;stroke-dasharray:none;fill:none;stroke-opacity:1"/>
      <path d="m 279.602,42 22.796,6 50.403,3.6016" inkscape:connector-curvature="0" id="path40" style="stroke:#000000;stroke-width:8;stroke-miterlimit:4;stroke-dasharray:none;fill:none;stroke-opacity:1"/>
      <path d="M 270,26.3984 295.199,16.8008 414,30 l 19.199,2.3984 96,-15.5976 2.403,15.5976 L 529.199,48 500.398,55.1992 462,68.3984" inkscape:connector-curvature="0" id="path42" style="stroke:#000000;stroke-width:8;stroke-miterlimit:4;stroke-dasharray:none;fill:none;stroke-opacity:1"/>
      <path d="M 458.398,70.8008 454.801,87.6016 654,416.398 l 48,86.403 0,28.801 -36,121.199" inkscape:connector-curvature="0" id="path44" style="stroke:#000000;stroke-width:8;stroke-miterlimit:4;stroke-dasharray:none;fill:none;stroke-opacity:1"/>
      <path d="m 538.801,45.6016 21.597,-6 13.204,-9.6016 3.597,-7.1992 -16.801,-6 -21.597,3.5976" inkscape:connector-curvature="0" id="path46" style="stroke:#000000;stroke-width:8;stroke-miterlimit:4;stroke-dasharray:none;fill:none;stroke-opacity:1"/>
    </g>
  </g>
</svg>
