<?xml version="1.0" encoding="UTF-8"?>
<!-- Created with Inkscape (http://www.inkscape.org/) -->
<svg xmlns:dc="http://purl.org/dc/elements/1.1/" xmlns:cc="http://creativecommons.org/ns#" xmlns:rdf="http://www.w3.org/1999/02/22-rdf-syntax-ns#" xmlns:svg="http://www.w3.org/2000/svg" xmlns="http://www.w3.org/2000/svg" xmlns:inkscape="http://www.inkscape.org/namespaces/inkscape" version="1.1" width="765" height="990" id="svg2" xml:space="preserve">
  <metadata id="metadata8">
    <rdf:RDF>
      <cc:Work rdf:about="">
        <dc:format>image/svg+xml</dc:format>
        <dc:type rdf:resource="http://purl.org/dc/dcmitype/StillImage"/>
      </cc:Work>
    </rdf:RDF>
  </metadata>
  <defs id="defs6"/>
  <g transform="matrix(1.25,0,0,-1.25,0,990)" id="g10">
    <g transform="scale(0.1,0.1)" id="g12">
      <path d="m 585.602,16.8008 -571.2036,0 0,80.3984 172.8006,0 L 132,128.398 97.1992,164.398 75.6016,186 52.8008,214.801 30,253.199 l -9.6016,42 -6,50.403 0,48 L 24,433.199 33.6016,476.398 66,531.602 91.1992,564 120,592.801 154.801,618 l 51.597,15.602 25.204,9.597 51.597,7.199 66,0 74.403,-22.796 42,-16.801 34.796,-25.199 31.204,-31.204 42,-64.796 19.199,-54 9.597,-86.403 -9.597,-50.398 -25.199,-76.801 -28.801,-39.602 -25.199,-28.796 -42,-27.602 -48,-28.8008 162,0 0,-80.3984" inkscape:connector-curvature="0" id="path14" style="stroke:#000000;stroke-width:8;stroke-miterlimit:4;stroke-dasharray:none;fill:none;stroke-opacity:1"/>
      <path d="m 285.602,132 -31.204,9.602 -42,12 -40.796,22.796 -22.801,22.801 -19.199,25.199 L 114,247.199 103.199,270 l -11.9998,57.602 0,60 22.8008,73.199 28.801,42 18,19.199 16.801,13.199 31.199,19.199 80.398,19.204 36,0 50.403,-13.204 61.199,-25.199 25.199,-16.801 22.801,-31.199 21.597,-26.398 19.204,-69.602 0,-70.801 -6,-21.597 -6,-26.403 -39.602,-54 -8.398,-13.199 -32.403,-25.199 -36,-28.801 -69.597,-15.597 -42,-3.602" inkscape:connector-curvature="0" id="path16" style="stroke:#000000;stroke-width:8;stroke-miterlimit:4;stroke-dasharray:none;fill:none;stroke-opacity:1"/>
      <path d="M 174,180 1021.2,1455.6 1488,404.398" inkscape:connector-curvature="0" id="path18" style="stroke:#000000;stroke-width:8;stroke-miterlimit:4;stroke-dasharray:none;fill:none;stroke-opacity:1"/>
      <path d="M 1021.2,1455.6 1206,327.602" inkscape:connector-curvature="0" id="path20" style="stroke:#000000;stroke-width:8;stroke-miterlimit:4;stroke-dasharray:none;fill:none;stroke-opacity:1"/>
      <path d="m 1194,451.199 242.4,80.403" inkscape:connector-curvature="0" id="path22" style="stroke:#000000;stroke-width:8;stroke-miterlimit:4;stroke-dasharray:none;fill:none;stroke-opacity:1"/>
      <path d="m 1315.2,487.199 48,-111.597" inkscape:connector-curvature="0" id="path24" style="stroke:#000000;stroke-width:8;stroke-miterlimit:4;stroke-dasharray:none;fill:none;stroke-opacity:1"/>
      <path d="M 1858.8,84 2077.2,283.199 2281.2,84" inkscape:connector-curvature="0" id="path26" style="stroke:#000000;stroke-width:8;stroke-miterlimit:4;stroke-dasharray:none;fill:none;stroke-opacity:1"/>
      <path d="M 2364,174 2172,368.398 2377.2,564" inkscape:connector-curvature="0" id="path28" style="stroke:#000000;stroke-width:8;stroke-miterlimit:4;stroke-dasharray:none;fill:none;stroke-opacity:1"/>
      <path d="M 2287.2,663.602 2083.2,468 1878,679.199" inkscape:connector-curvature="0" id="path30" style="stroke:#000000;stroke-width:8;stroke-miterlimit:4;stroke-dasharray:none;fill:none;stroke-opacity:1"/>
      <path d="M 1789.2,592.801 1987.2,381.602 1776,180" inkscape:connector-curvature="0" id="path32" style="stroke:#000000;stroke-width:8;stroke-miterlimit:4;stroke-dasharray:none;fill:none;stroke-opacity:1"/>
      <path d="m 2043.6,16.8008 90,3.5976 51.6,12 44.4,20.4024 51.6,34.8008 38.4,34.7964 38.4,42 25.2,42 25.2,44.403 13.2,44.398 6,51.602 0,50.398 -15.6,90 -19.2,48 -28.8,48 -32.4,44.403 -48,42 -38.4,25.199 -38.4,16.801 -34.8,12 -48,9.597 -46.8,3.602 -64.8,0 -51.6,-13.199 -48,-19.204 -44.4,-25.199 -42,-36 -37.2,-43.199 -36,-45.602 -15.6,-32.398 -13.2,-34.801 -12,-61.199 0,-57.602 6,-40.796 6,-44.403 16.8,-45.597 21.6,-50.403 38.4,-49.199 38.4,-34.801 44.4,-34.8006 45.6,-22.7968 54,-19.2032 60,-9.5976" inkscape:connector-curvature="0" id="path34" style="stroke:#000000;stroke-width:8;stroke-miterlimit:4;stroke-dasharray:none;fill:none;stroke-opacity:1"/>
      <path d="m 2436,1100.4 -753.6,0 9.6,63.6 9.6,42 15.6,42 22.8,32.4 19.2,28.8 25.2,34.8 28.8,25.2 34.8,26.4 28.8,19.2 42,18 40.8,13.2 28.8,6 51.6,7.2 38.4,0 34.8,-7.2 38.4,-6 42,-9.6 28.8,-9.6 38.4,-25.2 31.2,-22.8 28.8,-22.8 26.4,-31.2 25.2,-34.8 22.8,-36 15.6,-32.4 13.2,-46.8 8.4,-36 3.6,-38.4" inkscape:connector-curvature="0" id="path36" style="stroke:#000000;stroke-width:8;stroke-miterlimit:4;stroke-dasharray:none;fill:none;stroke-opacity:1"/>
    </g>
  </g>
</svg>
