<?xml version="1.0" encoding="UTF-8"?>
<!-- Created with Inkscape (http://www.inkscape.org/) -->
<svg xmlns:dc="http://purl.org/dc/elements/1.1/" xmlns:cc="http://creativecommons.org/ns#" xmlns:rdf="http://www.w3.org/1999/02/22-rdf-syntax-ns#" xmlns:svg="http://www.w3.org/2000/svg" xmlns="http://www.w3.org/2000/svg" xmlns:inkscape="http://www.inkscape.org/namespaces/inkscape" version="1.1" width="765" height="990" id="svg2" xml:space="preserve">
  <metadata id="metadata8">
    <rdf:RDF>
      <cc:Work rdf:about="">
        <dc:format>image/svg+xml</dc:format>
        <dc:type rdf:resource="http://purl.org/dc/dcmitype/StillImage"/>
      </cc:Work>
    </rdf:RDF>
  </metadata>
  <defs id="defs6"/>
  <g transform="matrix(1.25,0,0,-1.25,0,990)" id="g10">
    <g transform="scale(0.1,0.1)" id="g12">
      <path d="m 807.602,1072.8 -70.801,6 -111.602,-6 -82.801,8.4 -26.398,-8.4 -19.199,-26.4 6,-44.4 L 542.398,883.199 558,850.801 596.398,800.398 691.199,681.602 896.398,468 1044,330 1357.2,22.8008 l 31.2,0 9.6,16.8008 -12,28.7968 -134.4,307.2036 -19.2,57.597 -51.6,127.199 -15.6,32.403 -40.8,86.398 -76.8,130.801 -80.401,130.801 -54,74.399 -48,69.6 -48,64.8 -57.597,66 -57.602,39.6 -16.801,66 -12,74.4 -19.199,48 -55.199,12 -88.801,0 -99.602,-2.4 -48,-13.2 -21.597,-7.2 -163.199,-21.6 -48,-22.8 -15.602,-21.6 -3.602,-45.6 19.204,32.4 31.199,15.6 96,0 99.597,-2.4 51.602,-13.2 -42,50.4 -9.602,36" inkscape:connector-curvature="0" id="path14" style="stroke:#000000;stroke-width:8;stroke-miterlimit:4;stroke-dasharray:none;fill:none;stroke-opacity:1"/>
      <path d="m 462,1372.8 9.602,2.4 6,16.8 -6,15.6 -13.204,9.6 -13.199,-9.6 -2.398,-19.2 6,-9.6 9.597,-6" inkscape:connector-curvature="0" id="path16" style="stroke:#000000;stroke-width:8;stroke-miterlimit:4;stroke-dasharray:none;fill:none;stroke-opacity:1"/>
      <path d="m 126,1340.4 128.398,3.6 98.403,-13.2 28.801,-15.6 9.597,-32.4 3.602,-34.8 L 366,1178.4 352.801,1090.8 368.398,985.199 381.602,938.398 400.801,880.801 414,854.398 458.398,765.602 621.602,470.398 688.801,345.602 702,250.801 685.199,87.6016 669.602,70.8008 577.199,62.3984 468,64.8008 462,49.1992 414,42 408,33.6016 417.602,20.3984 691.199,30 976.801,16.8008 l 12,13.1992 -6,15.6016 -44.403,0 -25.199,22.7968 -164.398,2.4024 -18,13.1992 18,201.602 118.801,-61.204 67.199,198 128.399,-319.199 44.4,-57.5974 44.4,-25.2032 67.2,0 38.4,13.2032 9.6,18 -31.2,87.5974" inkscape:connector-curvature="0" id="path18" style="stroke:#000000;stroke-width:8;stroke-miterlimit:4;stroke-dasharray:none;fill:none;stroke-opacity:1"/>
      <path d="m 442.801,787.199 25.199,-96 9.602,-98.398 3.597,-38.403 0,-178.796 L 448.801,193.199 420,99.6016 400.801,78 248.398,68.3984 231.602,45.6016 196.801,42 183.602,33.6016 196.801,20.3984 314.398,30 349.199,26.3984" inkscape:connector-curvature="0" id="path20" style="stroke:#000000;stroke-width:8;stroke-miterlimit:4;stroke-dasharray:none;fill:none;stroke-opacity:1"/>
      <path d="m 465.602,64.8008 -55.204,-6 0,0 L 379.199,51.6016 360,26.3984 l 12,-6 19.199,19.2032 L 410.398,42" inkscape:connector-curvature="0" id="path22" style="stroke:#000000;stroke-width:8;stroke-miterlimit:4;stroke-dasharray:none;fill:none;stroke-opacity:1"/>
      <path d="M 462,68.3984 531.602,330 640.801,266.398 663.602,385.199" inkscape:connector-curvature="0" id="path24" style="stroke:#000000;stroke-width:8;stroke-miterlimit:4;stroke-dasharray:none;fill:none;stroke-opacity:1"/>
      <path d="m 237.602,64.8008 -50.403,-6 0,0 -32.398,-7.1992 -19.199,-25.2032 9.597,-6 L 168,39.6016 193.199,42" inkscape:connector-curvature="0" id="path26" style="stroke:#000000;stroke-width:8;stroke-miterlimit:4;stroke-dasharray:none;fill:none;stroke-opacity:1"/>
      <path d="m 919.199,68.3984 60,-6 28.801,-10.7968 19.2,-25.2032 -8.4,-6 L 996,39.6016 979.199,42" inkscape:connector-curvature="0" id="path28" style="stroke:#000000;stroke-width:8;stroke-miterlimit:4;stroke-dasharray:none;fill:none;stroke-opacity:1"/>
      <path d="m 1453.2,883.199 -454.802,0" inkscape:connector-curvature="0" id="path30" style="stroke:#000000;stroke-width:8;stroke-miterlimit:4;stroke-dasharray:none;fill:none;stroke-opacity:1"/>
      <path d="m 397.199,883.199 -69.597,0 L 270,870 214.801,844.801 158.398,804 120,771.602 85.1992,733.199 l -30,-38.398 -18,-38.403 L 24,618 l -6,-32.398 -3.6016,-28.801 1438.8016,0" inkscape:connector-curvature="0" id="path32" style="stroke:#000000;stroke-width:8;stroke-miterlimit:4;stroke-dasharray:none;fill:none;stroke-opacity:1"/>
      <path d="m 2673.6,837.602 -44.4,49.199 -49.2,36 -68.4,38.398 -52.8,19.199 -93.6,16.801 -291.6,13.201 -76.8,19.2 -73.2,25.2 -52.8,38.4 -36,27.6 -40.8,32.4 -25.2,42 -21.6,46.8 -6,44.4 6,37.2 4.8,16.8" inkscape:connector-curvature="0" id="path34" style="stroke:#000000;stroke-width:8;stroke-miterlimit:4;stroke-dasharray:none;fill:none;stroke-opacity:1"/>
      <path d="m 2103.6,1288.8 0,-42 -26.4,-38.4 -38.4,-21.6 -99.6,21.6 -96,50.4 -52.8,37.2 -34.8,44.4 -8.4,44.4 0,25.2 4.8,46.8 72,-49.2 81.6,-48 80.4,-36 87.6,-27.6 63.6,-9.6 142.8,-8.4 164.4,-14.4 163.2,-27.6 142.8,-55.2 129.6,-82.8 98.4,-109.199 66,-110.403 21.6,-38.398 -390,0" inkscape:connector-curvature="0" id="path36" style="stroke:#000000;stroke-width:8;stroke-miterlimit:4;stroke-dasharray:none;fill:none;stroke-opacity:1"/>
      <path d="M 1892.4,118.801 1930.8,22.8008 1905.6,18 1867.2,118.801" inkscape:connector-curvature="0" id="path38" style="stroke:#000000;stroke-width:8;stroke-miterlimit:4;stroke-dasharray:none;fill:none;stroke-opacity:1"/>
      <path d="m 1796.4,327.602 -104.4,313.199 -6,44.398 2.4,27.602 16.8,19.199 27.6,16.801 42,10.801 32.4,-4.801 32.4,-22.801 25.2,-43.199 2.4,-48 -2.4,-19.199 -8.4,-24 -13.2,-16.801 -16.8,6 8.4,30 2.4,21.597 -2.4,25.204 -2.4,14.398 -16.8,27.602 -25.2,18 -24,0 -25.2,-4.801 L 1728,702 l -14.4,-27.602 2.4,-21.597 110.4,-325.199" inkscape:connector-curvature="0" id="path40" style="stroke:#000000;stroke-width:8;stroke-miterlimit:4;stroke-dasharray:none;fill:none;stroke-opacity:1"/>
      <path d="m 3066,146.398 -1033.2,0 -36,-2.398 -30,-8.398 -80.4,-16.801 -100.8,0 -27.6,14.398 -25.2,13.199 -10.8,10.801 -6,27.602 -2.4,44.398 6,33.602 30,21.597" inkscape:connector-curvature="0" id="path42" style="stroke:#000000;stroke-width:8;stroke-miterlimit:4;stroke-dasharray:none;fill:none;stroke-opacity:1"/>
      <path d="m 1851.6,280.801 -46.8,-2.403 -44.4,2.403 -46.8,14.398 -25.2,16.801 -13.2,15.602 -2.4,16.796 60,-16.796 153.6,-2.403 44.4,-13.199 63.6,-55.199 21.6,-3.602 25.2,6 49.2,10.801 129.6,25.199 123.6,16.801 112.8,2.398 148.8,-10.796 128.4,-16.801 123.6,-27.602" inkscape:connector-curvature="0" id="path44" style="stroke:#000000;stroke-width:8;stroke-miterlimit:4;stroke-dasharray:none;fill:none;stroke-opacity:1"/>
      <path d="m 3066,146.398 -21.6,522 -145.2,0 -39.6,-409.199" inkscape:connector-curvature="0" id="path46" style="stroke:#000000;stroke-width:8;stroke-miterlimit:4;stroke-dasharray:none;fill:none;stroke-opacity:1"/>
    </g>
  </g>
</svg>
