<?xml version="1.0" encoding="UTF-8"?>
<!-- Created with Inkscape (http://www.inkscape.org/) -->
<svg xmlns:dc="http://purl.org/dc/elements/1.1/" xmlns:cc="http://creativecommons.org/ns#" xmlns:rdf="http://www.w3.org/1999/02/22-rdf-syntax-ns#" xmlns:svg="http://www.w3.org/2000/svg" xmlns="http://www.w3.org/2000/svg" xmlns:inkscape="http://www.inkscape.org/namespaces/inkscape" version="1.1" width="765" height="990" id="svg2" xml:space="preserve">
  <metadata id="metadata8">
    <rdf:RDF>
      <cc:Work rdf:about="">
        <dc:format>image/svg+xml</dc:format>
        <dc:type rdf:resource="http://purl.org/dc/dcmitype/StillImage"/>
      </cc:Work>
    </rdf:RDF>
  </metadata>
  <defs id="defs6"/>
  <g transform="matrix(1.25,0,0,-1.25,0,990)" id="g10">
    <g transform="scale(0.1,0.1)" id="g12">
      <path d="m 2719.2,1455.6 0,-303.6 109.2,13.2 164.4,-6 135.6,-19.2 138,-39.6" inkscape:connector-curvature="0" id="path14" style="stroke:#000000;stroke-width:8;stroke-miterlimit:4;stroke-dasharray:none;fill:none;stroke-opacity:1"/>
      <path d="m 3266.4,1498.8 0,-1484.4016 69.6,0 0,1484.4016 -69.6,0 -138,-32.4 -135.6,-13.2 -164.4,-7.2 -109.2,9.6" inkscape:connector-curvature="0" id="path16" style="stroke:#000000;stroke-width:8;stroke-miterlimit:4;stroke-dasharray:none;fill:none;stroke-opacity:1"/>
      <path d="m 1136.4,1056 20.4,36 27.6,27.6 39.6,8.4 33.6,-6 24,-20.4 12,-19.2 9.6,-42 0,-493.201 -1177.2,0 0,493.201 12,42 9.602,19.2 24,20.4 33.597,6 43.199,-8.4 27.602,-27.6 18,-33.6" inkscape:connector-curvature="0" id="path18" style="stroke:#000000;stroke-width:8;stroke-miterlimit:4;stroke-dasharray:none;fill:none;stroke-opacity:1"/>
      <path d="m 746.398,1506 -48,0 -19.199,-3.6 -32.398,-6 -21.602,-2.4 -19.199,-6 -18,-7.2 -24,-4.8 -21.602,-9.6 -20.398,-9.6 -19.199,-8.4 -18,-13.2 -18,-12 -18,-12 -15.602,-14.4 -33.597,-31.2 -12,-14.4 -12,-13.2 -21.602,-30 -18,-30 -9.602,-19.2 -4.796,-20.4 -13.204,-43.2 -8.398,-18 -3.602,-27.6 -2.398,-18 0,-85.2 2.398,-21.6 12,-41.999 6,-27.602 7.204,-15.597 10.796,-26.403 7.204,-19.199 18,-18 6,-15.602 14.398,-18 13.199,-15.597 14.403,-20.403 31.199,-27.597 20.398,-15.602 21.602,-14.398 12,-9.602 19.199,-12 18,-9.597 27.602,-9.602 18,-8.398 24,-6 15.597,-3.602 20.403,-6 21.597,-3.602 24,-2.398 45.602,0 21.597,2.398 6,-2.398 24,2.398 18,3.602 25.204,6 12,3.602 24,6 19.199,8.398 26.398,9.602 19.199,9.597 18,12 12,9.602 24,14.398 18,15.602 31.202,27.597 14.4,20.403 13.2,15.597 14.4,18 9.6,15.602 15.6,18 8.4,19.199 9.6,26.403 8.4,15.597 6,27.602 9.6,41.999 3.6,21.6 0,85.2 -3.6,18 -3.6,27.6 -6,18 -6,30 -15.6,33.6 -8.4,19.2 -12,20.4 -27.6,39.6 -8.4,13.2 -13.2,14.4 -36,31.2 -15.602,14.4 -15.597,12 -18,12 -20.403,13.2 -15.597,8.4 -24,9.6 -19.199,9.6 -27.602,4.8 -14.398,7.2 -21.602,6 -18,2.4 -18,6 -37.199,3.6 -20.403,0" inkscape:connector-curvature="0" id="path20" style="stroke:#000000;stroke-width:8;stroke-miterlimit:4;stroke-dasharray:none;fill:none;stroke-opacity:1"/>
      <path d="m 493.199,141.602 -475.199,0 6,39.597 6,26.403 L 40.8008,234 54,253.199 l 12,18 16.8008,22.801 18.0002,15.602 22.801,16.796 16.796,12 26.403,12 26.398,7.204 18,4.796 32.403,3.602 24,0 22.796,-3.602 22.801,-4.796 26.403,-4.801 18,-7.199 L 382.801,330 402,315.602 420,301.199 436.801,282 l 15.597,-21.602 14.403,-22.796 9.597,-20.403 8.403,-30 6,-22.801 2.398,-22.796" inkscape:connector-curvature="0" id="path22" style="stroke:#000000;stroke-width:8;stroke-miterlimit:4;stroke-dasharray:none;fill:none;stroke-opacity:1"/>
      <path d="m 1146,75.6016 0,-54 241.2,0 0,405.5974 -765.598,0 0,-405.5974 236.398,0 0,54 -182.398,0 0,291.5974 655.198,0 0,-291.5974 -184.8,0" inkscape:connector-curvature="0" id="path24" style="stroke:#000000;stroke-width:8;stroke-miterlimit:4;stroke-dasharray:none;fill:none;stroke-opacity:1"/>
      <path d="m 1977.6,1113.6 -9.6,-46.8 -39.6,-15.6 -36,-33.6 -9.6,-29.998 2.4,-32.403 20.4,-43.199 49.2,-66 79.2,-79.199 214.8,-132 115.2,-62.403 96,-39.597 55.2,-36 37.2,-22.801 75.6,-80.398 9.6,-2.403 0,39.602 -33.6,128.398 -49.2,198 -42,168 -56.4,139.201 -56.4,94.8 -45.6,62.4 -52.8,46.8 -39.6,22.8 -66,13.2 -50.4,-3.6 -51.6,-19.2 -126,-105.6 -52.8,-39.6 -30,-9.6 -25.2,6 -13.2,30 13.2,43.2 42,56.4 39.6,58.8 16.8,52.8 3.6,49.2 -16.8,36 -32.4,26.4 -40.8,13.2 -36,-6 -38.4,-13.2 -24,-16.8 -19.2,-13.2 -10.8,-19.2 -13.2,-33.6 7.2,-36 13.2,-13.2 16.8,-13.2 12,-16.8 4.8,-19.2 -4.8,-30 -85.2,-158.4 -13.2,-52.8 0,-49.2 16.8,-49.199 32.4,-33.602 122.4,-79.199 24,-33.602 91.2,-118.796 30,-36 39.6,-36 105.6,-49.204 13.2,-3.597 13.2,-45.602 72,-105.597 9.6,-24 7.2,-25.204 33.6,-241.199 -3.6,-26.398 -7.2,-13.1994 L 2262,84 2143.2,74.3984 2070,67.1992 2047.2,54 2044.8,31.1992 2064,18" inkscape:connector-curvature="0" id="path26" style="stroke:#000000;stroke-width:8;stroke-miterlimit:4;stroke-dasharray:none;fill:none;stroke-opacity:1"/>
      <path d="M 2060.4,64.8008 2034,54 2020.8,40.8008 2018.4,18 l 26.4,9.6016" inkscape:connector-curvature="0" id="path28" style="stroke:#000000;stroke-width:8;stroke-miterlimit:4;stroke-dasharray:none;fill:none;stroke-opacity:1"/>
      <path d="m 2120.4,54 -30,-2.3984 -13.2,-16.8008 -3.6,-13.1992 30,3.5976" inkscape:connector-curvature="0" id="path30" style="stroke:#000000;stroke-width:8;stroke-miterlimit:4;stroke-dasharray:none;fill:none;stroke-opacity:1"/>
      <path d="m 2192.4,67.1992 -52.8,-6 L 2107.2,48 2107.2,27.6016 2124,18 2156.4,21.6016 2305.2,34.8008 2422.8,18 l 16.8,3.6016 0,19.1992 -6,16.8008 -79.2,19.1992 -10.8,10.8008 -19.2,226.7964 3.6,43.204 -10.8,33.597 -19.2,55.199 -9.6,118.801" inkscape:connector-curvature="0" id="path32" style="stroke:#000000;stroke-width:8;stroke-miterlimit:4;stroke-dasharray:none;fill:none;stroke-opacity:1"/>
      <path d="m 2292,529.199 64.8,-16.801 86.4,-9.597 58.8,0" inkscape:connector-curvature="0" id="path34" style="stroke:#000000;stroke-width:8;stroke-miterlimit:4;stroke-dasharray:none;fill:none;stroke-opacity:1"/>
      <path d="M 2439.6,51.6016 2456.4,48 l 13.2,-13.1992 2.4,-13.1992 -28.8,6" inkscape:connector-curvature="0" id="path36" style="stroke:#000000;stroke-width:8;stroke-miterlimit:4;stroke-dasharray:none;fill:none;stroke-opacity:1"/>
      <path d="m 2028,628.801 26.4,-211.199 -3.6,-30 L 1896,103.199 1885.2,90 l -15.6,-2.3984 -198,-20.4024 -16.8,-6 0,-7.1992 -19.2,-2.3984 -10.8,-7.2032 -2.4,-16.7968 -3.6,-13.2032 26.4,20.4024 6,-13.1992 27.6,0" inkscape:connector-curvature="0" id="path38" style="stroke:#000000;stroke-width:8;stroke-miterlimit:4;stroke-dasharray:none;fill:none;stroke-opacity:1"/>
      <path d="m 1714.8,51.6016 -26.4,-7.2032 -9.6,-13.1992 6,-13.1992 32.4,9.6016" inkscape:connector-curvature="0" id="path40" style="stroke:#000000;stroke-width:8;stroke-miterlimit:4;stroke-dasharray:none;fill:none;stroke-opacity:1"/>
      <path d="M 1822.8,67.1992 1741.2,54 l -24,-2.3984 0,-24 13.2,-9.6016 132,13.1992 43.2,7.1992 75.6,-13.1992 30,-7.1992" inkscape:connector-curvature="0" id="path42" style="stroke:#000000;stroke-width:8;stroke-miterlimit:4;stroke-dasharray:none;fill:none;stroke-opacity:1"/>
      <path d="m 2028,54 -69.6,16.8008 -6,9.5976 2.4,16.8008 115.2,207.6018 16.8,20.398 16.8,32.403 6,33.597 60,134.403" inkscape:connector-curvature="0" id="path44" style="stroke:#000000;stroke-width:8;stroke-miterlimit:4;stroke-dasharray:none;fill:none;stroke-opacity:1"/>
      <path d="m 1741.2,1436.4 -122.4,-22.8 -26.4,-13.2 -26.4,-24 -16.8,-42 20.4,13.2 39.6,20.4 49.2,12 33.6,0 36,7.2" inkscape:connector-curvature="0" id="path46" style="stroke:#000000;stroke-width:8;stroke-miterlimit:4;stroke-dasharray:none;fill:none;stroke-opacity:1"/>
      <path d="m 1556.4,1338 49.2,6 52.8,3.6 43.2,-7.2 32.4,3.6 16.8,0" inkscape:connector-curvature="0" id="path48" style="stroke:#000000;stroke-width:8;stroke-miterlimit:4;stroke-dasharray:none;fill:none;stroke-opacity:1"/>
      <path d="m 1803.6,1423.2 6,-19.2 10.8,-3.6 13.2,0 9.6,9.6 0,13.2 -7.2,9.6 -13.2,3.6 -9.6,-3.6 -9.6,-13.2" inkscape:connector-curvature="0" id="path50" style="stroke:#000000;stroke-width:8;stroke-miterlimit:4;stroke-dasharray:none;fill:none;stroke-opacity:1"/>
    </g>
  </g>
</svg>
