<?xml version="1.0" encoding="UTF-8"?>
<!-- Created with Inkscape (http://www.inkscape.org/) -->
<svg xmlns:dc="http://purl.org/dc/elements/1.1/" xmlns:cc="http://creativecommons.org/ns#" xmlns:rdf="http://www.w3.org/1999/02/22-rdf-syntax-ns#" xmlns:svg="http://www.w3.org/2000/svg" xmlns="http://www.w3.org/2000/svg" xmlns:inkscape="http://www.inkscape.org/namespaces/inkscape" version="1.1" width="765" height="990" id="svg2" xml:space="preserve">
  <metadata id="metadata8">
    <rdf:RDF>
      <cc:Work rdf:about="">
        <dc:format>image/svg+xml</dc:format>
        <dc:type rdf:resource="http://purl.org/dc/dcmitype/StillImage"/>
      </cc:Work>
    </rdf:RDF>
  </metadata>
  <defs id="defs6"/>
  <g transform="matrix(1.25,0,0,-1.25,0,990)" id="g10">
    <g transform="scale(0.1,0.1)" id="g12">
      <path d="m 1408.8,1318.8 -3.6,7.2 -7.2,13.2 -3.6,8.4 -8.4,10.8 -4.8,9.6 -12,10.8 -3.6,7.2 -10.8,9.6 -9.6,7.2 -10.8,9.6 -7.2,4.8 -10.8,9.6 -9.6,6 -13.2,6 -7.2,4.8 -13.2,3.6 -10.8,3.6 -15.6,3.6 -7.2,3.6 -14.4,2.4 -12,1.2 -24,0 -10.8,-1.2 -9.6,-2.4 -10.8,-1.2 -9.6,-2.4 -10.8,-1.2 -9.6,-4.8 -16.8,-3.6 -8.4,-4.8 -13.2,-3.6 -9.6,-6 -10.8,-7.2 -9.6,-7.2 -9.6,-6 -8.4,-7.2 -12,-10.8 -8.4,-8.4 -6,-9.6 -6,-6 -9.598,-13.2 -3.602,-7.2 -9.602,-12 -4.796,-10.8 -3.602,-12 -1.199,-8.4 -6,-13.2 -3.602,-10.8 -2.398,-15.6 0,-10.8 -1.199,-19.2 0,-28.8 1.199,-10.8 3.597,-13.2 2.403,-12 3.597,-13.2 3.602,-8.4 7.199,-14.4 3.602,-12 9.597,-10.8 3.602,-7.2 7.2,-12 7.2,-7.2 9.6,-10.8 7.2,-7.2 9.6,-9.6 10.8,-7.2 13.2,-9.6 6,-3.6 8.4,-7.2 12,-4.8 14.4,-4.8 12,-3.6 12,-6 7.2,-2.4 13.2,-2.4 12,0 14.4,-2.4 7.2,0 16.8,-1.2 10.8,1.2 16.8,2.4 8.4,1.2 16.8,1.2 8.4,4.8 14.4,3.6 9.6,3.6 9.6,7.2 10.8,3.6 12,7.2 8.4,8.4 9.6,4.8 9.6,8.4 8.4,8.4 8.4,9.6 8.4,7.2 6,9.6 9.6,14.4 6,6 7.2,13.2 3.6,9.6 6,10.8 2.4,10.8 3.6,13.2 3.6,10.8 2.4,15.6 2.4,8.4 1.2,13.2 0,26.4 -1.2,13.2 -2.4,10.8 -3.6,13.2 -3.6,10.8 -3.6,10.8 -3.6,12" inkscape:connector-curvature="0" id="path14" style="stroke:#000000;stroke-width:8;stroke-miterlimit:4;stroke-dasharray:none;fill:none;stroke-opacity:1"/>
      <path d="m 558,537.602 56.398,-163.204 0,-38.398 -6,-22.801 -102,-188.398 L 490.801,99.6016 468,90 l -22.801,-9.6016 -124.801,-6 -28.796,-7.1992 -18,-13.1992 -13.204,-15.6016 -3.597,-9.5976 16.801,0 15.597,16.8008 15.602,0 7.199,-13.2032 117.602,6 76.796,-9.5976 19.204,3.5976 13.199,21.6016 15.597,-28.8008 13.204,0 L 570,42 l -12,25.1992 -7.199,26.4024 16.801,40.7964 46.796,90 22.801,50.403 L 654,294 l 19.199,19.199 0,32.403 54,96" inkscape:connector-curvature="0" id="path16" style="stroke:#000000;stroke-width:8;stroke-miterlimit:4;stroke-dasharray:none;fill:none;stroke-opacity:1"/>
      <path d="m 554.398,998.398 -57.597,-36 -63.602,-18 -36,-19.199 -15.597,-28.801 13.199,-32.398 28.801,-42 54,-34.801 L 1302,544.801 1344,540 l 40.8,0 32.4,13.199 9.6,13.199 L 1407.6,582 1165.2,722.398 1011.6,831.602 954,889.199 915.602,927.602 877.199,954 l -48,31.199 -44.398,28.801 -64.801,25.2 -44.398,10.8 -48,6 L 570,1052.4 529.199,1027.2 474,988.801 l -19.199,-6 -21.602,2.398 L 420,1002 l 0,18 13.199,22.8 121.199,249.6 3.602,28.8 2.398,32.4 -2.398,31.2 -13.199,36 -15.602,25.2 -26.398,13.2 -28.801,6 -28.801,0 -31.199,-6 -32.398,-16.8 -21.602,-21.6 -13.199,-16.8 -13.199,-25.2 -6,-15.6 0,-32.4 12,-31.2 13.199,-13.2 28.801,-15.6 15.597,-7.2 26.403,-9.6 0,-25.2 -9.602,-51.6 -25.199,-51.6 -42,-44.4 -44.403,-44.4 -57.597,-63.601 -19.199,-42 -6,-48 6,-42 25.199,-48 L 318,720 554.398,540 685.199,468 730.801,434.398 762,403.199 790.801,351.602 813.602,307.199 852,134.398 852,111.602 836.398,102 813.602,93.6016 650.398,70.8008 634.801,61.1992 621.602,42 618,28.8008 l 13.199,-3.6016 15.602,26.4024 7.199,0 6,-26.4024 L 823.199,42 l 56.403,-13.1992 16.796,6 L 900,54 l 25.199,-21.6016 13.199,0 2.403,13.2032 -2.403,12 -25.199,25.1992 -16.801,36.0002 -9.597,166.801 9.597,31.199 -9.597,25.199 3.597,74.398 6,22.801 105.602,6 38.4,9.602" inkscape:connector-curvature="0" id="path18" style="stroke:#000000;stroke-width:8;stroke-miterlimit:4;stroke-dasharray:none;fill:none;stroke-opacity:1"/>
      <path d="m 1276.8,480 67.2,9.602 28.8,9.597 19.2,9.602 -3.6,9.597 -104.4,32.403" inkscape:connector-curvature="0" id="path20" style="stroke:#000000;stroke-width:8;stroke-miterlimit:4;stroke-dasharray:none;fill:none;stroke-opacity:1"/>
      <path d="m 925.199,616.801 194.401,-246 16.8,-15.602 15.6,-3.597 13.2,0 8.4,10.796 0,21.602" inkscape:connector-curvature="0" id="path22" style="stroke:#000000;stroke-width:8;stroke-miterlimit:4;stroke-dasharray:none;fill:none;stroke-opacity:1"/>
      <path d="m 1004.4,601.199 166.8,-213.597 15.6,-9.602 16.8,-3.602 12,6 7.2,10.801 0,8.403" inkscape:connector-curvature="0" id="path24" style="stroke:#000000;stroke-width:8;stroke-miterlimit:4;stroke-dasharray:none;fill:none;stroke-opacity:1"/>
      <path d="m 1072.8,589.199 150,-182.398 9.6,-9.602 12,-3.597 13.2,13.199 0,15.597" inkscape:connector-curvature="0" id="path26" style="stroke:#000000;stroke-width:8;stroke-miterlimit:4;stroke-dasharray:none;fill:none;stroke-opacity:1"/>
      <path d="m 1148.4,570 112.8,-147.602 15.6,-9.597 9.6,0 9.6,6 6,9.597 0,10.801 -86.4,117.602" inkscape:connector-curvature="0" id="path28" style="stroke:#000000;stroke-width:8;stroke-miterlimit:4;stroke-dasharray:none;fill:none;stroke-opacity:1"/>
      <path d="m 391.199,1369.2 6,13.2 13.199,9.6 15.602,2.4 13.199,-6 3.602,-12 -6,-10.8 -13.199,-9.6 -15.602,-2.4 -10.801,9.6 -2.398,19.2" inkscape:connector-curvature="0" id="path30" style="stroke:#000000;stroke-width:8;stroke-miterlimit:4;stroke-dasharray:none;fill:none;stroke-opacity:1"/>
      <path d="m 465.602,1104 244.796,-3.6 0,163.2 -12,48 -36,57.6 -25.199,28.8 -25.199,19.2 -22.801,15.6 -31.199,16.8 -22.801,6 -21.597,6 -20.403,0 -19.199,3.6" inkscape:connector-curvature="0" id="path32" style="stroke:#000000;stroke-width:8;stroke-miterlimit:4;stroke-dasharray:none;fill:none;stroke-opacity:1"/>
      <path d="M 337.199,1378.8 318,1363.2 298.801,1344 l -25.199,-16.8 -42,-15.6 L 174,1276.8 122.398,1231.2 87.6016,1190.4 43.1992,1123.2 24,1056 l -9.6016,-38.4 0,-15.6 9.6016,-7.199 6,7.199 22.8008,57.6 44.3984,69.6 45.6018,61.2 37.199,34.8 45.602,32.4 54,25.2 34.796,9.6 25.204,7.2" inkscape:connector-curvature="0" id="path34" style="stroke:#000000;stroke-width:8;stroke-miterlimit:4;stroke-dasharray:none;fill:none;stroke-opacity:1"/>
      <path d="m 37.1992,1004.4 15.6016,9.6 48.0002,70.8 31.199,44.4 42,48 48,36 44.398,21.6 38.403,19.2 76.801,6 28.796,-2.4" inkscape:connector-curvature="0" id="path36" style="stroke:#000000;stroke-width:8;stroke-miterlimit:4;stroke-dasharray:none;fill:none;stroke-opacity:1"/>
      <path d="m 2576.4,992.398 21.6,-51.597 37.2,-49.199 80.4,-51.602 15.6,-14.398 4.8,-24 2.4,-158.403 -18,-19.199 -16.8,-25.199 -4.8,-27.602 25.2,8.403" inkscape:connector-curvature="0" id="path38" style="stroke:#000000;stroke-width:8;stroke-miterlimit:4;stroke-dasharray:none;fill:none;stroke-opacity:1"/>
      <path d="m 2718,615.602 44.4,0" inkscape:connector-curvature="0" id="path40" style="stroke:#000000;stroke-width:8;stroke-miterlimit:4;stroke-dasharray:none;fill:none;stroke-opacity:1"/>
      <path d="m 2738.4,610.801 -12,-36 31.2,0 7.2,40.801 22.8,10.796 7.2,14.403 -7.2,105.597 12,100.801 -2.4,22.801 -19.2,39.602 -7.2,38.398 24,138 -2.4,34.8 -30,37.2" inkscape:connector-curvature="0" id="path42" style="stroke:#000000;stroke-width:8;stroke-miterlimit:4;stroke-dasharray:none;fill:none;stroke-opacity:1"/>
      <path d="m 2797.2,1081.2 0,-164.399 12,-72 46.8,-87.602 6,50.403 -10.8,51.597 -19.2,37.199 -12,62.403 -2.4,166.799 -15.6,34.8 -19.2,14.4 -56.4,20.4 -72,8.4 -78,0 -168,-28.8 -91.2,-4.8 -94.8,2.4 -187.2,51.6 -108,19.2" inkscape:connector-curvature="0" id="path44" style="stroke:#000000;stroke-width:8;stroke-miterlimit:4;stroke-dasharray:none;fill:none;stroke-opacity:1"/>
      <path d="m 1866,1216.8 21.6,7.2 25.2,0 24,46.8 -24,2.4 -30,-7.2 -16.8,-22.8 -18,-7.2" inkscape:connector-curvature="0" id="path46" style="stroke:#000000;stroke-width:8;stroke-miterlimit:4;stroke-dasharray:none;fill:none;stroke-opacity:1"/>
      <path d="m 1878,1261.2 -7.2,2.4" inkscape:connector-curvature="0" id="path48" style="stroke:#000000;stroke-width:8;stroke-miterlimit:4;stroke-dasharray:none;fill:none;stroke-opacity:1"/>
      <path d="m 1861.2,1256.4 31.2,21.6 22.8,25.2 16.8,49.2 0,28.8 -4.8,46.8 -14.4,27.6 -2.4,-69.6 -13.2,-46.8 -28.8,-36 -49.2,-30 4.8,-16.8" inkscape:connector-curvature="0" id="path50" style="stroke:#000000;stroke-width:8;stroke-miterlimit:4;stroke-dasharray:none;fill:none;stroke-opacity:1"/>
      <path d="m 1833.6,1280.4 -16.8,4.8 -32.4,0 -22.8,-2.4 -10.8,-9.6 -10.8,-20.4 -14.4,-28.8 -39.6,-34.8 -28.8,-24 -27.6,-16.8 -7.2,-15.6 9.6,-24 27.6,-27.6 51.6,2.4" inkscape:connector-curvature="0" id="path52" style="stroke:#000000;stroke-width:8;stroke-miterlimit:4;stroke-dasharray:none;fill:none;stroke-opacity:1"/>
      <path d="m 1678.8,1116 -21.6,0 9.6,-12" inkscape:connector-curvature="0" id="path54" style="stroke:#000000;stroke-width:8;stroke-miterlimit:4;stroke-dasharray:none;fill:none;stroke-opacity:1"/>
      <path d="m 1765.2,1182 9.6,2.4 9.6,15.6 10.8,0 13.2,-22.8" inkscape:connector-curvature="0" id="path56" style="stroke:#000000;stroke-width:8;stroke-miterlimit:4;stroke-dasharray:none;fill:none;stroke-opacity:1"/>
      <path d="m 1801.2,1186.8 -9.6,-7.2 -7.2,0 -9.6,9.6" inkscape:connector-curvature="0" id="path58" style="stroke:#000000;stroke-width:8;stroke-miterlimit:4;stroke-dasharray:none;fill:none;stroke-opacity:1"/>
      <path d="m 1755.6,1282.8 -27.6,12 -32.4,27.6 -14.4,30 -4.8,31.2 9.6,66 -19.2,-19.2 -18,-46.8 0,-49.2 27.6,-44.4 30,-21.6 33.6,-15.6" inkscape:connector-curvature="0" id="path60" style="stroke:#000000;stroke-width:8;stroke-miterlimit:4;stroke-dasharray:none;fill:none;stroke-opacity:1"/>
      <path d="m 1627.2,1116 -2.4,-18 26.4,-31.2 30,-7.2 42,7.2 42,7.2 75.6,2.4 30,19.2 28.8,30" inkscape:connector-curvature="0" id="path62" style="stroke:#000000;stroke-width:8;stroke-miterlimit:4;stroke-dasharray:none;fill:none;stroke-opacity:1"/>
      <path d="m 1843.2,1076.4 27.6,-63.6 24,-71.999 32.4,-51.602 49.2,-39.597 42,-19.204 61.2,-9.597" inkscape:connector-curvature="0" id="path64" style="stroke:#000000;stroke-width:8;stroke-miterlimit:4;stroke-dasharray:none;fill:none;stroke-opacity:1"/>
      <path d="m 2170.8,849.602 24,7.199 27.6,2.398 33.6,-7.199 32.4,-2.398 108,0 46.8,-9.602" inkscape:connector-curvature="0" id="path66" style="stroke:#000000;stroke-width:8;stroke-miterlimit:4;stroke-dasharray:none;fill:none;stroke-opacity:1"/>
      <path d="m 2433.6,828 27.6,12 31.2,12 88.8,22.801 79.2,4.801" inkscape:connector-curvature="0" id="path68" style="stroke:#000000;stroke-width:8;stroke-miterlimit:4;stroke-dasharray:none;fill:none;stroke-opacity:1"/>
      <path d="m 1990.8,1034.4 6,-56.4 21.6,-61.199 51.6,-69.602 9.6,-16.801 0,-20.398 -9.6,-136.801 -9.6,-20.398 -30,-49.199 -14.4,-34.801 24,10.801" inkscape:connector-curvature="0" id="path70" style="stroke:#000000;stroke-width:8;stroke-miterlimit:4;stroke-dasharray:none;fill:none;stroke-opacity:1"/>
      <path d="m 2032.8,606 49.2,-2.398" inkscape:connector-curvature="0" id="path72" style="stroke:#000000;stroke-width:8;stroke-miterlimit:4;stroke-dasharray:none;fill:none;stroke-opacity:1"/>
      <path d="m 2047.2,603.602 -7.2,-34.801 44.4,10.801 4.8,31.199 20.4,8.398 9.6,14.403 0,14.398 7.2,69.602 25.2,90 16.8,44.398 7.2,32.398 L 2160,924" inkscape:connector-curvature="0" id="path74" style="stroke:#000000;stroke-width:8;stroke-miterlimit:4;stroke-dasharray:none;fill:none;stroke-opacity:1"/>
      <path d="M 1966.8,859.199 1920,702 l -16.8,-33.602 -30,-37.199 -30,-37.199 -9.6,-22.801 22.8,10.801" inkscape:connector-curvature="0" id="path76" style="stroke:#000000;stroke-width:8;stroke-miterlimit:4;stroke-dasharray:none;fill:none;stroke-opacity:1"/>
      <path d="m 1861.2,615.602 44.4,-14.403" inkscape:connector-curvature="0" id="path78" style="stroke:#000000;stroke-width:8;stroke-miterlimit:4;stroke-dasharray:none;fill:none;stroke-opacity:1"/>
      <path d="m 1870.8,601.199 -18,-32.398 44.4,8.398 10.8,31.199 19.2,0 14.4,13.204 22.8,63.597 26.4,66 34.8,34.801 7.2,39.602" inkscape:connector-curvature="0" id="path80" style="stroke:#000000;stroke-width:8;stroke-miterlimit:4;stroke-dasharray:none;fill:none;stroke-opacity:1"/>
      <path d="M 2492.4,849.602 2502,828 2497.2,807.602 2414.4,636 2394,619.199 l -19.2,-18 -15.6,-30 22.8,6" inkscape:connector-curvature="0" id="path82" style="stroke:#000000;stroke-width:8;stroke-miterlimit:4;stroke-dasharray:none;fill:none;stroke-opacity:1"/>
      <path d="m 2382,601.199 49.2,7.199" inkscape:connector-curvature="0" id="path84" style="stroke:#000000;stroke-width:8;stroke-miterlimit:4;stroke-dasharray:none;fill:none;stroke-opacity:1"/>
      <path d="m 2391.6,596.398 -9.6,-27.597 49.2,8.398 2.4,33.602 24,13.199 67.2,120 36,37.199 4.8,20.403 20.4,43.199 24,30" inkscape:connector-curvature="0" id="path86" style="stroke:#000000;stroke-width:8;stroke-miterlimit:4;stroke-dasharray:none;fill:none;stroke-opacity:1"/>
      <path d="m 1860,458.398 0,-442.7964 79.2,0 0,442.7964 -79.2,0" inkscape:connector-curvature="0" id="path88" style="stroke:#000000;stroke-width:8;stroke-miterlimit:4;stroke-dasharray:none;fill:none;stroke-opacity:1"/>
      <path d="m 2253.6,458.398 0,-442.7964 81.6,0 0,442.7964 -81.6,0" inkscape:connector-curvature="0" id="path90" style="stroke:#000000;stroke-width:8;stroke-miterlimit:4;stroke-dasharray:none;fill:none;stroke-opacity:1"/>
      <path d="m 2652,458.398 0,-442.7964 79.2,0 0,442.7964 -79.2,0" inkscape:connector-curvature="0" id="path92" style="stroke:#000000;stroke-width:8;stroke-miterlimit:4;stroke-dasharray:none;fill:none;stroke-opacity:1"/>
    </g>
  </g>
</svg>
