<?xml version="1.0" encoding="UTF-8"?>
<!-- Created with Inkscape (http://www.inkscape.org/) -->
<svg xmlns:dc="http://purl.org/dc/elements/1.1/" xmlns:cc="http://creativecommons.org/ns#" xmlns:rdf="http://www.w3.org/1999/02/22-rdf-syntax-ns#" xmlns:svg="http://www.w3.org/2000/svg" xmlns="http://www.w3.org/2000/svg" xmlns:inkscape="http://www.inkscape.org/namespaces/inkscape" version="1.1" width="765" height="990" id="svg2" xml:space="preserve">
  <metadata id="metadata8">
    <rdf:RDF>
      <cc:Work rdf:about="">
        <dc:format>image/svg+xml</dc:format>
        <dc:type rdf:resource="http://purl.org/dc/dcmitype/StillImage"/>
      </cc:Work>
    </rdf:RDF>
  </metadata>
  <defs id="defs6"/>
  <g transform="matrix(1.25,0,0,-1.25,0,990)" id="g10">
    <g transform="scale(0.1,0.1)" id="g12">
      <path d="m 271.199,1054.8 582,0 0,-22.8 22.801,-3.6 36,-10.8 25.199,-15.6 32.403,-22.801 28.796,-31.199 26.402,-36 19.2,-37.199 16.8,-45.602 12,-45.597 6,-76.801 -6,-39.602 -16.8,-46.801 -21.6,-21.597 -16.8,-3.602 -26.401,2.403 -21.597,16.796 L 960,636 l -3.602,22.801 -2.398,16.801 6,60 7.199,64.796 -4.801,67.204 -18,48 L 919.199,954 894,982.801 l -27.602,10.801 -13.199,0 0,-20.403 -76.801,0 0,-40.801 -114,0 0,40.801 -206.398,0 0,-40.801 -109.199,0 0,40.801 -75.602,0" inkscape:connector-curvature="0" id="path14" style="stroke:#000000;stroke-width:8;stroke-miterlimit:4;stroke-dasharray:none;fill:none;stroke-opacity:1"/>
      <path d="m 304.801,1054.8 75.597,366 13.204,24 9.597,7.2 10.801,3.6 16.801,0 18,-9.6 3.597,-12 0,-13.2" inkscape:connector-curvature="0" id="path16" style="stroke:#000000;stroke-width:8;stroke-miterlimit:4;stroke-dasharray:none;fill:none;stroke-opacity:1"/>
      <path d="m 378,1054.8 76.801,368.4 9.597,16.8 9.602,9.6 16.801,3.6 16.801,-4.8 9.597,-8.4 6,-10.8" inkscape:connector-curvature="0" id="path18" style="stroke:#000000;stroke-width:8;stroke-miterlimit:4;stroke-dasharray:none;fill:none;stroke-opacity:1"/>
      <path d="m 446.398,1054.8 74.403,366 8.398,18 13.199,10.8 15.602,2.4 16.801,-2.4 14.398,-10.8 3.602,-15.6" inkscape:connector-curvature="0" id="path20" style="stroke:#000000;stroke-width:8;stroke-miterlimit:4;stroke-dasharray:none;fill:none;stroke-opacity:1"/>
      <path d="m 516,1054.8 74.398,362.4 10.801,21.6 14.403,10.8 22.796,2.4 7.204,-2.4 12,-7.2 4.796,-19.2" inkscape:connector-curvature="0" id="path22" style="stroke:#000000;stroke-width:8;stroke-miterlimit:4;stroke-dasharray:none;fill:none;stroke-opacity:1"/>
      <path d="m 589.199,1054.8 72,361.2 8.403,18 7.199,12 16.801,7.2 21.597,-3.6 15.602,-9.6 4.801,-13.2" inkscape:connector-curvature="0" id="path24" style="stroke:#000000;stroke-width:8;stroke-miterlimit:4;stroke-dasharray:none;fill:none;stroke-opacity:1"/>
      <path d="m 662.398,1054.8 69.602,358.8 6,19.2 10.801,15.6 19.199,3.6 3.602,1.2 18,-7.2 10.796,-12 0,-10.8" inkscape:connector-curvature="0" id="path26" style="stroke:#000000;stroke-width:8;stroke-miterlimit:4;stroke-dasharray:none;fill:none;stroke-opacity:1"/>
      <path d="m 728.398,1054.8 72,369.6 8.403,15.6 9.597,9.6 10.801,2.4 18,0 14.403,-6 8.398,-12 3.602,-18 -74.403,-361.2 -528,0 0,-24 -27.597,-4.8 -36,-10.8 L 181.199,999.602 150,974.398 121.199,944.398 78,870 64.8008,825.602 50.3984,780 45.6016,703.199 50.3984,663.602 69.6016,619.199 91.1992,597.602 105.602,594 l 27.597,1.199 22.801,18 7.199,21.602 3.602,21.597 2.398,18 -6,58.801 -8.398,64.801 4.801,66 15.597,48 25.199,40.801 24,27.597 27.602,12 19.199,1.204 0,-16.801" inkscape:connector-curvature="0" id="path28" style="stroke:#000000;stroke-width:8;stroke-miterlimit:4;stroke-dasharray:none;fill:none;stroke-opacity:1"/>
      <path d="M 543.602,788.398 520.801,777.602 502.801,756 498,739.199 l -3.602,-18 4.801,-26.398 14.403,-16.801 13.199,-12 22.801,-7.199 16.796,-6 21.602,0 22.801,9.597 L 630,672 l 10.801,13.199 14.398,19.199 9.602,22.801 4.801,19.199 2.398,19.204 -2.398,13.199 -3.602,24 -9.602,18 -15.597,19.199 -14.403,14.398 -14.398,4.801 -13.199,6 -19.199,2.403 -15.602,1.199 -18,0 -24,-1.199 -24,-8.403 -21.602,-10.801 -13.199,-12 -15.597,-13.199 -10.801,-13.199 -12,-21.602 -12,-20.398 -3.602,-19.199 -3.597,-27.602 -1.204,-26.398 1.204,-21.602 2.398,-30 10.801,-31.199 18,-33.602 30,-40.796 48,-45.602 68.398,-55.199 150,-85.199" inkscape:connector-curvature="0" id="path30" style="stroke:#000000;stroke-width:8;stroke-miterlimit:4;stroke-dasharray:none;fill:none;stroke-opacity:1"/>
      <path d="m 14.3984,16.8008 0,162.0002 1098.0016,0 0,-162.0002 -1098.0016,0" inkscape:connector-curvature="0" id="path32" style="stroke:#000000;stroke-width:8;stroke-miterlimit:4;stroke-dasharray:none;fill:none;stroke-opacity:1"/>
      <path d="M 343.199,301.199 470.398,178.801" inkscape:connector-curvature="0" id="path34" style="stroke:#000000;stroke-width:8;stroke-miterlimit:4;stroke-dasharray:none;fill:none;stroke-opacity:1"/>
      <path d="M 783.602,301.199 656.398,178.801" inkscape:connector-curvature="0" id="path36" style="stroke:#000000;stroke-width:8;stroke-miterlimit:4;stroke-dasharray:none;fill:none;stroke-opacity:1"/>
      <path d="m 465.602,178.801 4.796,26.398 L 480,228 l 16.801,21.602 13.199,9.597 19.199,13.199 27.602,1.204 19.199,0 19.199,-1.204 L 612,261.602 628.801,247.199 642,230.398 l 7.199,-18 4.801,-33.597" inkscape:connector-curvature="0" id="path38" style="stroke:#000000;stroke-width:8;stroke-miterlimit:4;stroke-dasharray:none;fill:none;stroke-opacity:1"/>
      <path d="m 1465.2,858 -13.2,31.199 -25.2,51.602 -15.6,25.199 432,0 -26.4,-44.398 -19.2,-44.403 -6,-19.199" inkscape:connector-curvature="0" id="path40" style="stroke:#000000;stroke-width:8;stroke-miterlimit:4;stroke-dasharray:none;fill:none;stroke-opacity:1"/>
      <path d="m 1413.6,733.199 -98.4,54 -22.8,-76.801 51.6,-38.398 34.8,-25.199 48,-51.602" inkscape:connector-curvature="0" id="path42" style="stroke:#000000;stroke-width:8;stroke-miterlimit:4;stroke-dasharray:none;fill:none;stroke-opacity:1"/>
      <path d="m 1843.2,733.199 94.8,54 25.2,-80.398 -44.4,-25.199 -51.6,-48 -34.8,-38.403" inkscape:connector-curvature="0" id="path44" style="stroke:#000000;stroke-width:8;stroke-miterlimit:4;stroke-dasharray:none;fill:none;stroke-opacity:1"/>
      <path d="m 1484.4,633.602 6,19.199 13.2,22.801 19.2,22.796 25.2,21.602 44.4,15.602 28.8,3.597 36,-3.597 38.4,-12 31.2,-19.204 16.8,-22.796 15.6,-19.204 13.2,-34.796 -51.6,31.199 -38.4,13.199 -32.4,9.602 -25.2,3.597 -32.4,-6 -31.2,-7.199 -38.4,-19.199 -25.2,-19.199 -13.2,-6" inkscape:connector-curvature="0" id="path46" style="stroke:#000000;stroke-width:8;stroke-miterlimit:4;stroke-dasharray:none;fill:none;stroke-opacity:1"/>
      <path d="m 1503.6,291.602 51.6,207.597 21.6,28.801 22.8,9.602 25.2,7.199 36,-7.199 25.2,-19.204 12,-21.597 L 1753.2,288" inkscape:connector-curvature="0" id="path48" style="stroke:#000000;stroke-width:8;stroke-miterlimit:4;stroke-dasharray:none;fill:none;stroke-opacity:1"/>
      <path d="m 1632,247.199 -48,3.602 -22.8,6 -19.2,2.398 -32.4,16.801 -21.6,28.801 -20.4,28.801 -12,31.199 -9.6,39.597 -13.2,50.403 -19.2,268.801 3.6,48 7.2,21.597 2.4,19.199 16.8,26.403 18,19.199 32.4,19.199 28.8,9.602 25.2,2.398 76.8,7.199 90,-7.199 38.4,-6 31.2,-19.199 19.2,-13.199 16.8,-25.199 15.6,-50.403 2.4,-42 -15.6,-234 -6,-63.597 -19.2,-70.801 -13.2,-31.199 -18,-32.403 -13.2,-15.597 L 1734,270 l -22.8,-13.199 -28.8,-6 -50.4,-3.602" inkscape:connector-curvature="0" id="path50" style="stroke:#000000;stroke-width:8;stroke-miterlimit:4;stroke-dasharray:none;fill:none;stroke-opacity:1"/>
    </g>
  </g>
</svg>
