<?xml version="1.0" encoding="UTF-8"?>
<!-- Created with Inkscape (http://www.inkscape.org/) -->
<svg xmlns:dc="http://purl.org/dc/elements/1.1/" xmlns:cc="http://creativecommons.org/ns#" xmlns:rdf="http://www.w3.org/1999/02/22-rdf-syntax-ns#" xmlns:svg="http://www.w3.org/2000/svg" xmlns="http://www.w3.org/2000/svg" xmlns:inkscape="http://www.inkscape.org/namespaces/inkscape" version="1.1" width="765" height="990" id="svg2" xml:space="preserve">
  <metadata id="metadata8">
    <rdf:RDF>
      <cc:Work rdf:about="">
        <dc:format>image/svg+xml</dc:format>
        <dc:type rdf:resource="http://purl.org/dc/dcmitype/StillImage"/>
      </cc:Work>
    </rdf:RDF>
  </metadata>
  <defs id="defs6"/>
  <g transform="matrix(1.25,0,0,-1.25,0,990)" id="g10">
    <g transform="scale(0.1,0.1)" id="g12">
      <path d="m 734.398,1106.4 -72,7.2 -115.199,-7.2 -85.199,10.8 -26.398,-10.8 -20.403,-26.4 7.199,-45.6 32.403,-105.599 62.398,-102 204,-243.602 L 826.801,483.602 979.199,342 1302,25.1992 l 32.4,0 L 1345.2,42 1332,70.8008 1192.8,387.602 l -19.2,60 L 1068,702 972,866.398 896.398,972 840,1047.6 l -45.602,72 -49.199,66 -60,69.6 -58.801,39.6 -16.796,69.6 -13.204,75.6 -19.199,49.2 -56.398,13.2 -92.403,0 -102,-2.4 -49.199,-13.2 -24,-7.2 L 85.1992,1456.8 36,1434 19.1992,1410 16.8008,1364.4 36,1396.8 l 33.6016,16.8 98.3984,0 102,-3.6 52.801,-13.2 -43.199,52.8 -9.602,37.2" inkscape:connector-curvature="0" id="path14" style="stroke:#000000;stroke-width:8;stroke-miterlimit:4;stroke-dasharray:none;fill:none;stroke-opacity:1"/>
      <path d="m 379.199,1417.2 9.602,3.6 6,15.6 -6,16.8 -13.199,10.8 -13.204,-10.8 -3.597,-19.2 7.199,-10.8 9.602,-6" inkscape:connector-curvature="0" id="path16" style="stroke:#000000;stroke-width:8;stroke-miterlimit:4;stroke-dasharray:none;fill:none;stroke-opacity:1"/>
      <path d="m 32.3984,1383.6 131.9996,3.6 102,-13.2 30,-15.6 10.801,-33.6 2.403,-36 -30,-73.2 -13.204,-88.8 16.801,-109.2 13.199,-49.202 36,-98.398 43.204,-80.398 102,-174 L 613.199,358.801 626.398,259.199 609.602,91.1992 592.801,74.3984 498,64.8008 385.199,68.3984 379.199,51.6016 330,44.3984 322.801,34.8008 332.398,21.6016 616.801,32.3984 909.602,19.1992 922.801,32.3984 916.801,48 870,48 l -26.398,22.8008 -168,3.5976 -20.403,13.2032 20.403,207.5974 121.199,-62.398 69.597,204 132,-328.801 45.602,-60 46.8,-26.3984 69.6,0 39.6,13.1992 9.6,20.3984 L 1177.2,144" inkscape:connector-curvature="0" id="path18" style="stroke:#000000;stroke-width:8;stroke-miterlimit:4;stroke-dasharray:none;fill:none;stroke-opacity:1"/>
      <path d="M 358.801,813.602 402,572.398 399.602,387.602 366,200.398 336,104.398 316.801,81.6016 158.398,70.8008 141.602,48 105.602,44.3984 92.3984,34.8008 105.602,21.6016 226.801,32.3984 264,28.8008" inkscape:connector-curvature="0" id="path20" style="stroke:#000000;stroke-width:8;stroke-miterlimit:4;stroke-dasharray:none;fill:none;stroke-opacity:1"/>
      <path d="m 381.602,68.3984 -55.204,-6 0,0 L 294,55.1992 273.602,28.8008 286.801,21.6016 307.199,42 l 19.199,2.3984" inkscape:connector-curvature="0" id="path22" style="stroke:#000000;stroke-width:8;stroke-miterlimit:4;stroke-dasharray:none;fill:none;stroke-opacity:1"/>
      <path d="M 379.199,70.8008 451.199,342 564,276 586.801,398.398" inkscape:connector-curvature="0" id="path24" style="stroke:#000000;stroke-width:8;stroke-miterlimit:4;stroke-dasharray:none;fill:none;stroke-opacity:1"/>
      <path d="m 147.602,68.3984 -51.602,-6 0,0 L 62.3984,55.1992 42,28.8008 52.8008,21.6016 75.6016,42 102,44.3984" inkscape:connector-curvature="0" id="path26" style="stroke:#000000;stroke-width:8;stroke-miterlimit:4;stroke-dasharray:none;fill:none;stroke-opacity:1"/>
      <path d="m 850.801,70.8008 62.398,-6 30,-9.6016 19.199,-26.3984 -9.597,-7.1992 L 930,42 913.199,44.3984" inkscape:connector-curvature="0" id="path28" style="stroke:#000000;stroke-width:8;stroke-miterlimit:4;stroke-dasharray:none;fill:none;stroke-opacity:1"/>
      <path d="m 1676.4,530.398 58.8,-75.597 44.4,-42 78,-44.403 78,-25.199 81.6,-14.398 181.2,-4.801 67.2,4.801 55.2,10.801 25.2,14.398 0,8.398 -8.4,14.403 -44.4,10.801 -58.8,31.199 -44.4,27.597 -111.6,94.801 -81.6,86.403 -55.2,52.796 -58.8,39.602 -56.4,19.199 -10.8,22.801 -42,52.801 -42,44.398 -36,22.801 -38.4,14.398 -54,2.403 -38.4,-10.801 -39.6,-25.199 -16.8,-25.199 -27.6,-6 -31.2,-10.801 -21.6,-14.403 -16.8,-13.199 16.8,-8.398 80.4,-14.403 2.4,8.403 6,19.199 -6,16.801 -2.4,19.199" inkscape:connector-curvature="0" id="path30" style="stroke:#000000;stroke-width:8;stroke-miterlimit:4;stroke-dasharray:none;fill:none;stroke-opacity:1"/>
      <path d="m 1514.4,804 -64.8,-6 -33.6,-8.398" inkscape:connector-curvature="0" id="path32" style="stroke:#000000;stroke-width:8;stroke-miterlimit:4;stroke-dasharray:none;fill:none;stroke-opacity:1"/>
      <path d="m 1510.8,764.398 12,-10.796 22.8,-52.801 32.4,-134.403 16.8,-56.398 28.8,-49.199 63.6,-84 33.6,-37.199 38.4,-38.403 81.6,-52.801 42,-16.796 52.8,-25.204 8.4,-6 0,-14.398 -58.8,-122.3984 -10.8,-8.4024 -10.8,0 -75.6,-6 -14.4,-8.3984 -4.8,-4.8008 -3.6,-12 52.8,-2.3984 73.2,6 86.4,-8.4024 22.8,2.4024 0,19.1992 -22.8,6 -48,6 -7.2,4.8008 2.4,8.3984 56.4,126 4.8,19.199 0,6 -21.6,27.602" inkscape:connector-curvature="0" id="path34" style="stroke:#000000;stroke-width:8;stroke-miterlimit:4;stroke-dasharray:none;fill:none;stroke-opacity:1"/>
      <path d="m 1986,211.199 73.2,6 122.4,38.403 38.4,12 14.4,2.398 164.4,-46.801 109.2,-14.398 36,2.398 28.8,6 10.8,12 -8.4,2.403 L 2442,276 l -79.2,27.602 -58.8,33.597" inkscape:connector-curvature="0" id="path36" style="stroke:#000000;stroke-width:8;stroke-miterlimit:4;stroke-dasharray:none;fill:none;stroke-opacity:1"/>
      <path d="m 1815.6,265.199 8.4,-33.597 0,-12 L 1725.6,66 l -7.2,-10.8008 -16.8,-6 -81.6,-6 -10.8,-7.1992 0,-14.3984 14.4,0 88.8,6 27.6,-6" inkscape:connector-curvature="0" id="path38" style="stroke:#000000;stroke-width:8;stroke-miterlimit:4;stroke-dasharray:none;fill:none;stroke-opacity:1"/>
      <path d="m 1762.8,40.8008 -6,16.8008 94.8,136.7964 8.4,16.801 0,25.199" inkscape:connector-curvature="0" id="path40" style="stroke:#000000;stroke-width:8;stroke-miterlimit:4;stroke-dasharray:none;fill:none;stroke-opacity:1"/>
      <path d="m 1609.2,40.8008 -10.8,-2.4024 -12,-6 -2.4,-10.7968 22.8,0" inkscape:connector-curvature="0" id="path42" style="stroke:#000000;stroke-width:8;stroke-miterlimit:4;stroke-dasharray:none;fill:none;stroke-opacity:1"/>
      <path d="M 1771.2,40.8008 1754.4,38.3984 1742.4,30 1740,21.6016 1765.2,24" inkscape:connector-curvature="0" id="path44" style="stroke:#000000;stroke-width:8;stroke-miterlimit:4;stroke-dasharray:none;fill:none;stroke-opacity:1"/>
      <path d="M 2000.4,40.8008 2013.6,36 l 6,-6 6,-8.3984 -25.2,6" inkscape:connector-curvature="0" id="path46" style="stroke:#000000;stroke-width:8;stroke-miterlimit:4;stroke-dasharray:none;fill:none;stroke-opacity:1"/>
      <path d="M 1594.8,823.199 1584,810 l 8.4,-6 14.4,8.398 -12,10.801" inkscape:connector-curvature="0" id="path48" style="stroke:#000000;stroke-width:8;stroke-miterlimit:4;stroke-dasharray:none;fill:none;stroke-opacity:1"/>
      <path d="m 2612.4,597.602 13.2,-16.801 6,-22.801 -1.2,-15.602 -2.4,-14.398 -14.4,-19.199 -16.8,-8.403 -14.4,-4.796 -20.4,2.398 -15.6,1.199 -16.8,7.199 -14.4,15.602 -10.8,14.398 -4.8,14.403 -3.6,19.199 0,21.602 2.4,18 6,15.597 4.8,8.403 12,16.796 14.4,12 18,9.602 16.8,4.801 24,0 15.6,-4.801 13.2,-4.801 14.4,-6 18,-9.597 16.8,-14.403 12,-16.801 7.2,-13.199 7.2,-15.597 3.6,-14.403 2.4,-20.398 1.2,-20.403 -3.6,-16.796 -6,-22.801 -8.4,-20.403 -8.4,-16.796 -12,-22.801 -19.2,-20.403 -26.4,-21.597 -37.2,-20.403 -54,-19.199 L 2457.6,336 2311.2,322.801" inkscape:connector-curvature="0" id="path50" style="stroke:#000000;stroke-width:8;stroke-miterlimit:4;stroke-dasharray:none;fill:none;stroke-opacity:1"/>
      <path d="m 2694,1112.4 -108,19.2 -56.4,8.4 -48,0 -42,-27.6 -61.2,-34.8 -111.6,-21.6 -78,-10.8 -730.8,0 -39.6,10.8 -27.6,21.6 -22.8,28.8 -16.8,33.6 -16.8,42 0,63.6 22.8,61.2 25.2,28.8 30,19.2 50.4,8.4 643.2,0" inkscape:connector-curvature="0" id="path52" style="stroke:#000000;stroke-width:8;stroke-miterlimit:4;stroke-dasharray:none;fill:none;stroke-opacity:1"/>
      <path d="m 2043.6,1368 -166.8,22.8 -168,-10.8 -50.4,10.8 -27.6,28.8 -16.8,49.2 -6,33.6 73.2,-33.6 72,-8.4 290.4,25.2 86.4,-4.8 92.4,-12 63.6,-21.6 75.6,-33.6 45.6,-33.6 38.4,-21.6 67.2,0 69.6,9.6 109.2,26.4 0,-277.2" inkscape:connector-curvature="0" id="path54" style="stroke:#000000;stroke-width:8;stroke-miterlimit:4;stroke-dasharray:none;fill:none;stroke-opacity:1"/>
    </g>
  </g>
</svg>
