<?xml version="1.0" encoding="UTF-8"?>
<!-- Created with Inkscape (http://www.inkscape.org/) -->
<svg xmlns:dc="http://purl.org/dc/elements/1.1/" xmlns:cc="http://creativecommons.org/ns#" xmlns:rdf="http://www.w3.org/1999/02/22-rdf-syntax-ns#" xmlns:svg="http://www.w3.org/2000/svg" xmlns="http://www.w3.org/2000/svg" xmlns:inkscape="http://www.inkscape.org/namespaces/inkscape" version="1.1" width="765" height="990" id="svg2" xml:space="preserve">
  <metadata id="metadata8">
    <rdf:RDF>
      <cc:Work rdf:about="">
        <dc:format>image/svg+xml</dc:format>
        <dc:type rdf:resource="http://purl.org/dc/dcmitype/StillImage"/>
      </cc:Work>
    </rdf:RDF>
  </metadata>
  <defs id="defs6"/>
  <g transform="matrix(1.25,0,0,-1.25,0,990)" id="g10">
    <g transform="scale(0.1,0.1)" id="g12">
      <path d="m 337.199,231.602 -38.398,48 -48,48 -38.403,40.796 L 171.602,414 120,464.398 l -51.6016,38.403 -54,38.398 101.9996,914.401 32.403,-9.6 34.801,-15.6 28.796,-22.8 28.801,-34.8 25.199,-42 13.204,-44.4 9.597,-38.4 9.602,-51.6 44.398,-1176.0016 -60,-3.5976 12,265.1992" inkscape:connector-curvature="0" id="path14" style="stroke:#000000;stroke-width:8;stroke-miterlimit:4;stroke-dasharray:none;fill:none;stroke-opacity:1"/>
      <path d="m 534,1278 22.801,21.6 38.398,14.4 68.403,28.8 76.796,24 85.204,24 127.199,28.8 109.199,12 85.2,12 98.4,6 87.6,-6 104.4,-4.8 99.6,-12 94.8,-21.6 82.8,-20.4 76.8,-22.8 76.8,-24 58.8,-24 24,-12 16.8,-20.4 3.6,-3.6 -20.4,-20.4 -56.4,-36 -109.2,-40.8 -106.8,-32.4 -117.6,-26.4 -88.8,-9.6 -94.8,-10.8 -123.6,-6 -80.4,6 -85.2,6 -76.8,4.8 -111.6,19.2 -123.602,28.8 -88.796,28.8 -82.801,36 -54,30 L 534,1278" inkscape:connector-curvature="0" id="path16" style="stroke:#000000;stroke-width:8;stroke-miterlimit:4;stroke-dasharray:none;fill:none;stroke-opacity:1"/>
      <path d="M 764.398,676.801 982.801,975.602 1278,691.199 1372.8,606 l 61.2,-68.398 42,-70.801 20.4,-56.403 8.4,-58.796 -2.4,-61.204 L 1488,228 l -21.6,-50.398 -32.4,-46.801 -44.4,-42.0002 -49.2,-26.4024 -86.4,-12 -73.2,6 -68.4,18 -55.2,40.8006 -32.4,36 -24,40.801 -11.999,48 -8.403,46.801 -7.199,62.398 15.602,58.801 11.999,46.801 56.4,86.398 93.6,91.199 68.4,62.403 307.2,286.801 208.8,-319.204" inkscape:connector-curvature="0" id="path18" style="stroke:#000000;stroke-width:8;stroke-miterlimit:4;stroke-dasharray:none;fill:none;stroke-opacity:1"/>
    </g>
  </g>
</svg>
