<?xml version="1.0" encoding="UTF-8"?>
<!-- Created with Inkscape (http://www.inkscape.org/) -->
<svg xmlns:dc="http://purl.org/dc/elements/1.1/" xmlns:cc="http://creativecommons.org/ns#" xmlns:rdf="http://www.w3.org/1999/02/22-rdf-syntax-ns#" xmlns:svg="http://www.w3.org/2000/svg" xmlns="http://www.w3.org/2000/svg" xmlns:inkscape="http://www.inkscape.org/namespaces/inkscape" version="1.1" width="765" height="990" id="svg2" xml:space="preserve">
  <metadata id="metadata8">
    <rdf:RDF>
      <cc:Work rdf:about="">
        <dc:format>image/svg+xml</dc:format>
        <dc:type rdf:resource="http://purl.org/dc/dcmitype/StillImage"/>
      </cc:Work>
    </rdf:RDF>
  </metadata>
  <defs id="defs6"/>
  <g transform="matrix(1.25,0,0,-1.25,0,990)" id="g10">
    <g transform="scale(0.1,0.1)" id="g12">
      <path d="m 2202,180 -28.8,-13.199 -40.8,3.597 -38.4,25.204 -26.4,48 -2.4,48 12,38.398 32.4,34.801 44.4,13.199 48,-9.602 39.6,-34.796 21.6,-51.602 -3.6,-40.801 -18,-36 -36,-28.801 0,3.602 73.2,-163.1992 -236.4,0 73.2,165.5972" inkscape:connector-curvature="0" id="path14" style="stroke:#000000;stroke-width:8;stroke-miterlimit:4;stroke-dasharray:none;fill:none;stroke-opacity:1"/>
      <path d="m 2071.2,234 -169.2,-88.801 0,255.602 165.6,-90" inkscape:connector-curvature="0" id="path16" style="stroke:#000000;stroke-width:8;stroke-miterlimit:4;stroke-dasharray:none;fill:none;stroke-opacity:1"/>
      <path d="m 2257.2,308.398 162,82.801 0,-236.398 -159.6,76.801" inkscape:connector-curvature="0" id="path18" style="stroke:#000000;stroke-width:8;stroke-miterlimit:4;stroke-dasharray:none;fill:none;stroke-opacity:1"/>
      <path d="m 2090.4,352.801 -34.8,67.199 -7.2,140.398 118.8,664.802 15.6,73.2 22.8,70.8 31.2,51.6 51.6,28.8 45.6,6 44.4,0 80.4,-12 48,-28.8 46.8,-51.6 36,-86.4 12,-61.2 10.8,-86.4 -10.8,-194.399 -22.8,-195.602 -18,-390 6,-102 22.8,-99.597 34.8,-54.0004 44.4,-54" inkscape:connector-curvature="0" id="path20" style="stroke:#000000;stroke-width:8;stroke-miterlimit:4;stroke-dasharray:none;fill:none;stroke-opacity:1"/>
      <path d="m 2192.4,1318.8 9.6,-160.8 67.2,-549.602 3.6,-175.199 -19.2,-57.597 -22.8,-32.403" inkscape:connector-curvature="0" id="path22" style="stroke:#000000;stroke-width:8;stroke-miterlimit:4;stroke-dasharray:none;fill:none;stroke-opacity:1"/>
      <path d="m 394.801,986.398 15.597,0 9.602,3.602 16.801,12 2.398,10.8 3.602,15.6 -6,15.6 -7.199,13.2 -13.204,9.6 -15.597,2.4 -19.199,-2.4 -13.204,-3.6 -8.398,-13.2 -7.199,-21.6 3.597,-19.2 9.602,-9.598 9.602,-13.204 9.597,0 9.602,-2.398" inkscape:connector-curvature="0" id="path24" style="stroke:#000000;stroke-width:8;stroke-miterlimit:4;stroke-dasharray:none;fill:none;stroke-opacity:1"/>
      <path d="m 650.398,1126.8 -13.199,26.4 -15.597,25.2 -15.602,25.2 -20.398,16.8 -21.602,21.6 -22.801,16.8 -25.199,12 -25.199,9.6 -28.801,13.2 -28.801,2.4 -28.801,4.8 -25.199,-4.8 -26.398,-2.4 -25.199,-3.6 -25.204,-9.6 -28.796,-13.2 -26.403,-12 -21.597,-15.6 -26.403,-22.8 -15.597,-19.2 -19.204,-25.2 -13.199,-22.8 -12,-25.2 -7.199,-26.4 -9.602,-34.8 0,-63.598 7.204,-32.403 6,-31.199 13.199,-26.398 12,-25.204 16.801,-22.796 21.597,-22.801 15.602,-18 30,-19.199 18,-16.801 32.398,-9.602 28.801,-9.597 22.801,-9.602 92.398,0 28.801,6 28.801,7.199 22.801,9.602 25.199,15.597 25.199,19.204 19.199,19.199 19.199,19.199 19.204,28.801 13.199,22.801 13.199,25.199 6,28.801 9.602,28.796 3.597,26.402 0,31.2 -3.597,28.8 -9.602,28.8 -6,25.2" inkscape:connector-curvature="0" id="path26" style="stroke:#000000;stroke-width:8;stroke-miterlimit:4;stroke-dasharray:none;fill:none;stroke-opacity:1"/>
      <path d="m 794.398,156 -240,642" inkscape:connector-curvature="0" id="path28" style="stroke:#000000;stroke-width:8;stroke-miterlimit:4;stroke-dasharray:none;fill:none;stroke-opacity:1"/>
      <path d="m 404.398,148.801 0,604.801" inkscape:connector-curvature="0" id="path30" style="stroke:#000000;stroke-width:8;stroke-miterlimit:4;stroke-dasharray:none;fill:none;stroke-opacity:1"/>
      <path d="M 14.3984,156 241.199,794.398" inkscape:connector-curvature="0" id="path32" style="stroke:#000000;stroke-width:8;stroke-miterlimit:4;stroke-dasharray:none;fill:none;stroke-opacity:1"/>
      <path d="m 1303.2,986.398 16.8,0 8.4,3.602 16.8,12 3.6,10.8 2.4,15.6 -6,15.6 -7.2,13.2 -12,9.6 -16.8,2.4 -18,-2.4 -13.2,-3.6 -9.6,-13.2 -6,-21.6 2.4,-19.2 9.6,-9.598 9.6,-13.204 9.6,0 9.6,-2.398" inkscape:connector-curvature="0" id="path34" style="stroke:#000000;stroke-width:8;stroke-miterlimit:4;stroke-dasharray:none;fill:none;stroke-opacity:1"/>
      <path d="m 1558.8,1126.8 -12,26.4 -15.6,25.2 -16.8,25.2 -19.2,16.8 -21.6,21.6 -22.8,16.8 -25.2,12 -26.4,9.6 -28.8,13.2 -28.8,2.4 -28.8,4.8 -25.2,-4.8 -25.2,-2.4 -26.4,-3.6 -25.2,-9.6 -28.8,-13.2 -25.2,-12 -22.8,-15.6 -25.2,-22.8 -16.8,-19.2 -18,-25.2 -13.2,-22.8 -13.2,-25.2 -6,-26.4 -9.6,-34.8 0,-63.598 6,-32.403 6,-31.199 13.2,-26.398 13.2,-25.204 15.6,-22.796 22.8,-22.801 15.6,-18 28.8,-19.199 19.2,-16.801 31.2,-9.602 30,-9.597 21.6,-9.602 93.6,0 28.8,6 27.6,7.199 22.8,9.602 26.4,15.597 25.2,19.204 18,19.199 20.4,19.199 19.2,28.801 12,22.801 13.2,25.199 6,28.801 9.6,28.796 3.6,26.402 0,31.2 -3.6,28.8 -9.6,28.8 -6,25.2" inkscape:connector-curvature="0" id="path36" style="stroke:#000000;stroke-width:8;stroke-miterlimit:4;stroke-dasharray:none;fill:none;stroke-opacity:1"/>
      <path d="m 1702.8,156 -240,642" inkscape:connector-curvature="0" id="path38" style="stroke:#000000;stroke-width:8;stroke-miterlimit:4;stroke-dasharray:none;fill:none;stroke-opacity:1"/>
      <path d="m 1312.8,148.801 0,604.801" inkscape:connector-curvature="0" id="path40" style="stroke:#000000;stroke-width:8;stroke-miterlimit:4;stroke-dasharray:none;fill:none;stroke-opacity:1"/>
      <path d="M 922.801,156 1149.6,794.398" inkscape:connector-curvature="0" id="path42" style="stroke:#000000;stroke-width:8;stroke-miterlimit:4;stroke-dasharray:none;fill:none;stroke-opacity:1"/>
    </g>
  </g>
</svg>
