<?xml version="1.0" encoding="UTF-8"?>
<!-- Created with Inkscape (http://www.inkscape.org/) -->
<svg xmlns:dc="http://purl.org/dc/elements/1.1/" xmlns:cc="http://creativecommons.org/ns#" xmlns:rdf="http://www.w3.org/1999/02/22-rdf-syntax-ns#" xmlns:svg="http://www.w3.org/2000/svg" xmlns="http://www.w3.org/2000/svg" xmlns:inkscape="http://www.inkscape.org/namespaces/inkscape" version="1.1" width="765" height="990" id="svg2" xml:space="preserve">
  <metadata id="metadata8">
    <rdf:RDF>
      <cc:Work rdf:about="">
        <dc:format>image/svg+xml</dc:format>
        <dc:type rdf:resource="http://purl.org/dc/dcmitype/StillImage"/>
      </cc:Work>
    </rdf:RDF>
  </metadata>
  <defs id="defs6"/>
  <g transform="matrix(1.25,0,0,-1.25,0,990)" id="g10">
    <g transform="scale(0.1,0.1)" id="g12">
      <path d="m 525.602,1090.8 -38.403,-42 L 474,998.398 484.801,946.801 506.398,908.398 567.602,850.801 673.199,793.199 854.398,726 1072.8,681.602 1290,655.199 l 69.6,-6 45.6,-3.597 21.6,7.199 13.2,12 0,16.801 -15.6,13.199 -86.4,15.597 -54,25.204 -32.4,22.796 -76.8,63.602 -115.2,105.602 -115.202,89.998 -105.597,57.6 -102,40.8 -76.801,22.8 -67.199,2.4 -57.602,-12 -44.398,-22.8 -32.403,-19.2 -15.597,-15.6 -22.801,-3.6 -25.199,7.2 -3.602,21.6 L 516,1200 l 25.199,28.8 16.801,34.8 2.398,31.2 -2.398,28.8" inkscape:connector-curvature="0" id="path14" style="stroke:#000000;stroke-width:8;stroke-miterlimit:4;stroke-dasharray:none;fill:none;stroke-opacity:1"/>
      <path d="m 529.199,1346.4 130.801,-60 136.801,-51.6 122.398,-25.2 127.201,-9.6 96,-3.6 70.8,9.6 -99.6,15.6 -111.6,9.6 -124.801,19.2 -90,25.2 -108,39.6 -82.801,34.8 -51.597,34.8 172.801,-67.2 108,-19.2 58.796,-9.6 121.202,-9.6 111.6,7.2 67.2,6 54,2.4 -118.8,9.6 -102,10.8 -98.401,2.4 -86.398,13.2 -105.602,21.6 -96,28.8 -63.597,28.8 -45.602,30 -34.801,12 -32.398,3.6 -69.602,-9.6 -54,-19.2 -22.801,-16.8 -13.199,-21.6 -3.597,-7.2 0,-25.2 16.796,-25.2 19.204,-7.2 19.199,-6 34.801,-9.6 38.398,0 22.801,9.6 19.199,3.6 9.602,-16.8 2.398,-28.8 -34.801,-40.8 -57.597,-42 -54,-51.6 -25.204,-34.8 -19.199,-28.8 -9.597,-50.4 6,-28.802 38.398,-57.597 98.398,-109.199 61.204,-54 70.796,-51.602 102,-44.398 60,-90 64.801,-73.204 L 816,472.801 829.199,444 l 19.199,-207.602 0,-134.398 -6,-21.6016 L 819.602,73.1992 682.801,54 673.199,50.3984 654,48 l -9.602,-13.1992 0,-19.1992 18,9.5976 22.801,-6" inkscape:connector-curvature="0" id="path16" style="stroke:#000000;stroke-width:8;stroke-miterlimit:4;stroke-dasharray:none;fill:none;stroke-opacity:1"/>
      <path d="M 778.801,54 698.398,40.8008 685.199,32.3984 688.801,15.6016 714,28.8008 733.199,15.6016 861.602,32.3984 960,15.6016 963.602,32.3984 956.398,48 l -25.199,6 -28.801,9.6016 -9.597,3.5976 -8.403,19.1992 -4.796,328.8006 7.199,39.602 0,12 -22.801,42 -21.602,38.398 L 768,664.801" inkscape:connector-curvature="0" id="path18" style="stroke:#000000;stroke-width:8;stroke-miterlimit:4;stroke-dasharray:none;fill:none;stroke-opacity:1"/>
      <path d="m 796.801,630 116.398,-13.199 94.801,3.597 122.4,12 60,-54 73.2,-67.199 36,-2.398 34.8,9.597 38.4,31.204 6,26.398 -76.8,79.199" inkscape:connector-curvature="0" id="path20" style="stroke:#000000;stroke-width:8;stroke-miterlimit:4;stroke-dasharray:none;fill:none;stroke-opacity:1"/>
      <path d="M 291.602,1384.8 14.3984,1215.6 333.602,1321.2" inkscape:connector-curvature="0" id="path22" style="stroke:#000000;stroke-width:8;stroke-miterlimit:4;stroke-dasharray:none;fill:none;stroke-opacity:1"/>
      <path d="M 295.199,1340.4 14.3984,1215.6" inkscape:connector-curvature="0" id="path24" style="stroke:#000000;stroke-width:8;stroke-miterlimit:4;stroke-dasharray:none;fill:none;stroke-opacity:1"/>
      <path d="m 356.398,1392 -16.796,-10.8 9.597,-15.6 16.801,7.2 -6,12" inkscape:connector-curvature="0" id="path26" style="stroke:#000000;stroke-width:8;stroke-miterlimit:4;stroke-dasharray:none;fill:none;stroke-opacity:1"/>
      <path d="m 969.602,44.3984 26.398,-6 12,-9.5976 3.6,-7.1992 -15.6,-6 -22.801,3.5976" inkscape:connector-curvature="0" id="path28" style="stroke:#000000;stroke-width:8;stroke-miterlimit:4;stroke-dasharray:none;fill:none;stroke-opacity:1"/>
      <path d="M 490.801,764.398 558,636 633.602,520.801 640.801,492 433.199,117.602 423.602,102 414,86.3984 l -22.801,-6 -76.801,-13.1992 -51.597,-9.5976 -18,-9.6016 -13.199,-3.6016 -19.204,-3.5976 -6,-6 -7.199,-15.6016 20.403,9.6016 21.597,-9.6016" inkscape:connector-curvature="0" id="path30" style="stroke:#000000;stroke-width:8;stroke-miterlimit:4;stroke-dasharray:none;fill:none;stroke-opacity:1"/>
      <path d="m 276,38.3984 -13.199,0 -15.602,-3.5976 -6,-13.1992 6,-2.4024 19.199,6" inkscape:connector-curvature="0" id="path32" style="stroke:#000000;stroke-width:8;stroke-miterlimit:4;stroke-dasharray:none;fill:none;stroke-opacity:1"/>
      <path d="M 279.602,40.8008 302.398,48 l 50.403,2.3984" inkscape:connector-curvature="0" id="path34" style="stroke:#000000;stroke-width:8;stroke-miterlimit:4;stroke-dasharray:none;fill:none;stroke-opacity:1"/>
      <path d="M 270,25.1992 295.199,15.6016 414,28.8008 l 19.199,3.5976 96,-16.7968 2.403,16.7968 L 529.199,48 500.398,54 462,67.1992" inkscape:connector-curvature="0" id="path36" style="stroke:#000000;stroke-width:8;stroke-miterlimit:4;stroke-dasharray:none;fill:none;stroke-opacity:1"/>
      <path d="M 458.398,69.6016 454.801,86.3984 654,415.199 l 48,86.403 0,28.796 -36,122.403" inkscape:connector-curvature="0" id="path38" style="stroke:#000000;stroke-width:8;stroke-miterlimit:4;stroke-dasharray:none;fill:none;stroke-opacity:1"/>
      <path d="m 538.801,44.3984 21.597,-6 13.204,-9.5976 3.597,-7.1992 -16.801,-6 -21.597,3.5976" inkscape:connector-curvature="0" id="path40" style="stroke:#000000;stroke-width:8;stroke-miterlimit:4;stroke-dasharray:none;fill:none;stroke-opacity:1"/>
      <path d="M 1484.4,966 1752,1224" inkscape:connector-curvature="0" id="path42" style="stroke:#000000;stroke-width:8;stroke-miterlimit:4;stroke-dasharray:none;fill:none;stroke-opacity:1"/>
      <path d="m 1387.2,1003.2 330,315.6" inkscape:connector-curvature="0" id="path44" style="stroke:#000000;stroke-width:8;stroke-miterlimit:4;stroke-dasharray:none;fill:none;stroke-opacity:1"/>
      <path d="m 1323.6,1071.6 330,315.6" inkscape:connector-curvature="0" id="path46" style="stroke:#000000;stroke-width:8;stroke-miterlimit:4;stroke-dasharray:none;fill:none;stroke-opacity:1"/>
      <path d="m 1290,1168.8 264,252" inkscape:connector-curvature="0" id="path48" style="stroke:#000000;stroke-width:8;stroke-miterlimit:4;stroke-dasharray:none;fill:none;stroke-opacity:1"/>
      <path d="m 1617.6,1406.4 -21.6,6 -22.8,8.4 -25.2,3.6 -25.2,0 -26.4,-1.2 -22.8,-2.4 -25.2,-8.4 -21.6,-8.4 -22.8,-10.8 -21.6,-14.4 -15.6,-14.4 -16.8,-15.6 -12,-15.6 -13.2,-18 -14.4,-26.4 -6,-20.4 -6,-24 -4.8,-21.6 -3.6,-27.6 0,-22.8 3.6,-26.4 7.2,-22.8 6,-20.4 10.8,-22.8 6,-13.2 8.4,-9.6 20.4,-22.8 20.4,-20.4 19.2,-14.398 21.6,-13.204 25.2,-12 24,-6 21.6,-7.199 24,0 25.2,-1.199 28.8,3.602 20.4,4.796 25.2,9.602 25.2,13.199 15.6,8.403 19.2,15.598 19.2,16.8 18,19.2 14.4,22.8 14.4,20.4 10.8,20.4 6,25.2 1.2,22.8 4.8,26.4 -2.4,22.8 -2.4,26.4 -6,22.8 -8.4,21.6 -9.6,26.4 -14.4,20.4 -14.4,16.8 -16.8,20.4 -20.4,14.4 -20.4,14.4 -24,10.8" inkscape:connector-curvature="0" id="path50" style="stroke:#000000;stroke-width:8;stroke-miterlimit:4;stroke-dasharray:none;fill:none;stroke-opacity:1"/>
      <path d="m 1941.6,392.398 0,-365.9996 79.2,0 0,365.9996 -79.2,0" inkscape:connector-curvature="0" id="path52" style="stroke:#000000;stroke-width:8;stroke-miterlimit:4;stroke-dasharray:none;fill:none;stroke-opacity:1"/>
      <path d="m 1941.6,939.602 0,-369.602 79.2,0 0,369.602 -79.2,0" inkscape:connector-curvature="0" id="path54" style="stroke:#000000;stroke-width:8;stroke-miterlimit:4;stroke-dasharray:none;fill:none;stroke-opacity:1"/>
      <path d="m 1941.6,1466.4 0,-370.8 79.2,0 0,370.8 -79.2,0" inkscape:connector-curvature="0" id="path56" style="stroke:#000000;stroke-width:8;stroke-miterlimit:4;stroke-dasharray:none;fill:none;stroke-opacity:1"/>
    </g>
  </g>
</svg>
