<?xml version="1.0" encoding="UTF-8"?>
<!-- Created with Inkscape (http://www.inkscape.org/) -->
<svg xmlns:dc="http://purl.org/dc/elements/1.1/" xmlns:cc="http://creativecommons.org/ns#" xmlns:rdf="http://www.w3.org/1999/02/22-rdf-syntax-ns#" xmlns:svg="http://www.w3.org/2000/svg" xmlns="http://www.w3.org/2000/svg" xmlns:inkscape="http://www.inkscape.org/namespaces/inkscape" version="1.1" width="765" height="990" id="svg2" xml:space="preserve">
  <metadata id="metadata8">
    <rdf:RDF>
      <cc:Work rdf:about="">
        <dc:format>image/svg+xml</dc:format>
        <dc:type rdf:resource="http://purl.org/dc/dcmitype/StillImage"/>
      </cc:Work>
    </rdf:RDF>
  </metadata>
  <defs id="defs6"/>
  <g transform="matrix(1.25,0,0,-1.25,0,990)" id="g10">
    <g transform="scale(0.1,0.1)" id="g12">
      <path d="m 340.801,877.199 0,-860.3982 67.199,0 0,860.3982" inkscape:connector-curvature="0" id="path14" style="stroke:#000000;stroke-width:8;stroke-miterlimit:4;stroke-dasharray:none;fill:none;stroke-opacity:1"/>
      <path d="m 14.3984,880.801 718.8006,0 0,226.799 -13.199,25.2 -12,15.6 -32.398,0 -19.204,-3.6 -19.199,-12 -63.597,-57.6 L 516,1023.6 471.602,1002 417.602,988.801 372,985.199 331.199,988.801 276,1002 l -44.398,21.6 -57.602,51.6 -63.602,57.6 -19.1988,12 -19.1992,3.6 -32.3984,0 -13.2032,-15.6 -12,-25.2 0,-226.799" inkscape:connector-curvature="0" id="path16" style="stroke:#000000;stroke-width:8;stroke-miterlimit:4;stroke-dasharray:none;fill:none;stroke-opacity:1"/>
      <path d="m 506.398,1023.6 -57.597,378 -25.199,31.2 -19.204,13.2 -25.199,9.6 -10.801,0 -25.199,-9.6 -18,-13.2 -26.398,-31.2 -57.602,-378" inkscape:connector-curvature="0" id="path18" style="stroke:#000000;stroke-width:8;stroke-miterlimit:4;stroke-dasharray:none;fill:none;stroke-opacity:1"/>
      <path d="m 973.199,661.199 111.601,-438 364.8,0 111.6,438 -588.001,0" inkscape:connector-curvature="0" id="path20" style="stroke:#000000;stroke-width:8;stroke-miterlimit:4;stroke-dasharray:none;fill:none;stroke-opacity:1"/>
      <path d="m 1344,661.199 -6,51.602 -19.2,50.398 -36,42 -38.4,31.199 -44.4,32.403 -26.4,32.398 -12,44.403 9.6,48 -3.6,47.998 -15.6,44.4 -28.8,38.4 -34.8,28.8 -38.4,28.8 -32.4,25.2 -19.202,22.8 0,-19.2 13.202,-32.4 28.8,-34.8 27.6,-34.8 20.4,-25.2 9.6,-36 3.6,-28.8 -7.2,-40.8 -9.6,-32.398 0,-44.403 13.2,-32.398 31.2,-44.403 36,-34.796 31.2,-28.801 16.8,-30 2.4,-25.199 0,-25.204 -6,-19.199" inkscape:connector-curvature="0" id="path22" style="stroke:#000000;stroke-width:8;stroke-miterlimit:4;stroke-dasharray:none;fill:none;stroke-opacity:1"/>
    </g>
  </g>
</svg>
