<?xml version="1.0" encoding="UTF-8"?>
<!-- Created with Inkscape (http://www.inkscape.org/) -->
<svg xmlns:dc="http://purl.org/dc/elements/1.1/" xmlns:cc="http://creativecommons.org/ns#" xmlns:rdf="http://www.w3.org/1999/02/22-rdf-syntax-ns#" xmlns:svg="http://www.w3.org/2000/svg" xmlns="http://www.w3.org/2000/svg" xmlns:inkscape="http://www.inkscape.org/namespaces/inkscape" version="1.1" width="765" height="990" id="svg2" xml:space="preserve">
  <metadata id="metadata8">
    <rdf:RDF>
      <cc:Work rdf:about="">
        <dc:format>image/svg+xml</dc:format>
        <dc:type rdf:resource="http://purl.org/dc/dcmitype/StillImage"/>
      </cc:Work>
    </rdf:RDF>
  </metadata>
  <defs id="defs6"/>
  <g transform="matrix(1.25,0,0,-1.25,0,990)" id="g10">
    <g transform="scale(0.1,0.1)" id="g12">
      <path d="m 1550.4,1005.6 216,207.6" inkscape:connector-curvature="0" id="path14" style="stroke:#000000;stroke-width:8;stroke-miterlimit:4;stroke-dasharray:none;fill:none;stroke-opacity:1"/>
      <path d="M 1472.4,1035.6 1738.8,1290" inkscape:connector-curvature="0" id="path16" style="stroke:#000000;stroke-width:8;stroke-miterlimit:4;stroke-dasharray:none;fill:none;stroke-opacity:1"/>
      <path d="m 1420.8,1089.6 266.4,255.6" inkscape:connector-curvature="0" id="path18" style="stroke:#000000;stroke-width:8;stroke-miterlimit:4;stroke-dasharray:none;fill:none;stroke-opacity:1"/>
      <path d="m 1394.4,1167.6 212.4,204" inkscape:connector-curvature="0" id="path20" style="stroke:#000000;stroke-width:8;stroke-miterlimit:4;stroke-dasharray:none;fill:none;stroke-opacity:1"/>
      <path d="m 1658.4,1359.6 -18,4.8 -18,7.2 -20.4,2.4 -20.4,0 -20.4,-1.2 -19.2,-1.2 -19.2,-7.2 -19.2,-6 -18,-8.4 -16.8,-12 -13.2,-12 -13.2,-13.2 -9.6,-12 -9.6,-14.4 -12,-21.6 -4.8,-16.8 -4.8,-18 -3.6,-18 -3.6,-21.6 0,-19.2 3.6,-21.6 4.8,-18 4.8,-16.8 8.4,-18 4.8,-9.6 7.2,-8.4 15.6,-19.2 18,-15.6 14.4,-12 18,-9.6 20.4,-10.8 19.2,-4.8 16.8,-4.8 20.4,0 19.2,-2.398 24,3.598 16.8,3.6 19.2,8.4 20.4,9.6 13.2,7.2 14.4,13.2 15.6,13.2 14.4,15.6 12,18 12,15.6 8.4,16.8 4.8,20.4 1.2,18 3.6,21.6 -1.2,19.2 -2.4,21.6 -4.8,18 -6,16.8 -8.4,21.6 -12,16.8 -12,13.2 -13.2,16.8 -15.6,12 -16.8,10.8 -19.2,8.4" inkscape:connector-curvature="0" id="path22" style="stroke:#000000;stroke-width:8;stroke-miterlimit:4;stroke-dasharray:none;fill:none;stroke-opacity:1"/>
      <path d="m 3370.8,612 33.6,7.199 25.2,15.602 20.4,30 6,26.398 3.6,52.801 -9.6,26.398 -20.4,33.602 -19.2,13.199 -19.2,13.199 -50.4,6 -1368,0 -42,-6 L 1908,823.199 1887.6,810 1867.2,781.199 1854,730.801 1867.2,672 l 13.2,-20.398 27.6,-19.204 19.2,-13.199 32.4,-7.199 1404,0" inkscape:connector-curvature="0" id="path24" style="stroke:#000000;stroke-width:8;stroke-miterlimit:4;stroke-dasharray:none;fill:none;stroke-opacity:1"/>
      <path d="m 2256,470.398 0,-16.796 7.2,-13.204 16.8,-16.796 30,-2.403 25.2,13.199 13.2,16.801 0,15.602 -13.2,26.398 -32.4,7.199 -20.4,0 -13.2,-7.199 L 2256,480" inkscape:connector-curvature="0" id="path26" style="stroke:#000000;stroke-width:8;stroke-miterlimit:4;stroke-dasharray:none;fill:none;stroke-opacity:1"/>
      <path d="m 2572.8,470.398 0,-16.796 7.2,-13.204 19.2,-16.796 26.4,-2.403 30,13.199 9.6,16.801 0,15.602 -13.2,26.398 -30,7.199 -22.8,0 L 2586,493.199 2572.8,480" inkscape:connector-curvature="0" id="path28" style="stroke:#000000;stroke-width:8;stroke-miterlimit:4;stroke-dasharray:none;fill:none;stroke-opacity:1"/>
      <path d="m 2889.6,470.398 0,-16.796 7.2,-13.204 19.2,-16.796 26.4,-2.403 30,13.199 9.6,16.801 0,15.602 -13.2,26.398 -30,7.199 -22.8,0 -13.2,-7.199 -9.6,-13.199" inkscape:connector-curvature="0" id="path30" style="stroke:#000000;stroke-width:8;stroke-miterlimit:4;stroke-dasharray:none;fill:none;stroke-opacity:1"/>
      <path d="M 543.602,1126.8 504,1083.6 l -13.199,-52.8 9.597,-52.8 24,-39.602 62.403,-58.796 L 696,819.602 883.199,751.199 1107.6,704.398 1332,678 l 72,-6 46.8,-3.602 22.8,7.204 13.2,13.199 0,15.597 -16.8,13.204 -88.8,16.796 -56.4,26.403 -32.4,22.801 -79.2,66 -118.8,109.199 -118.798,92.399 -109.204,58.8 -105.597,43.2 -78,22.8 -69.602,3.6 -58.801,-13.2 -46.796,-22.8 -32.403,-20.4 -16.801,-16.8 -22.796,-2.4 -27.602,6 -2.398,24 128.398,105.6 26.398,28.8 16.801,36 2.403,33.6 -2.403,28.8" inkscape:connector-curvature="0" id="path32" style="stroke:#000000;stroke-width:8;stroke-miterlimit:4;stroke-dasharray:none;fill:none;stroke-opacity:1"/>
      <path d="m 547.199,1390.8 135.602,-62.4 141.597,-52.8 124.801,-26.4 132.001,-9.6 98.4,-3.6 73.2,9.6 -103.2,15.6 -114,10.8 -128.401,19.2 -92.398,26.4 -112.801,40.8 -85.199,36 -52.801,36 177.602,-69.6 111.597,-19.2 60,-10.8 124.801,-9.6 116.4,7.2 68.4,6 56.4,3.6 -122.4,9.6 -105.6,10.8 -102.001,2.4 -88.801,13.2 -108,22.8 -99.597,30 -66,30 -45.602,30 -37.199,13.2 -32.398,2.4 -72,-9.6 -56.403,-20.4 -24,-15.6 -12,-22.8 -4.801,-7.2 0,-26.4 16.801,-26.4 20.403,-7.2 19.199,-6 36,-9.6 40.801,0 22.796,9.6 19.204,3.6 9.597,-16.8 3.602,-30 -36,-42 -60,-43.2 -55.199,-52.8 -26.403,-36 -19.199,-30 -10.801,-52.8 7.199,-30 L 330,972 432,859.199 494.398,804 567.602,751.199 672,704.398 734.398,612 l 67.204,-75.602 42,-45.597 13.199,-30 20.398,-214.801 0,-138 L 870,85.1992 847.199,78 705.602,57.6016 696,55.1992 675.602,51.6016 666,38.3984 l 0,-19.1992 19.199,9.6016 24,-7.1992" inkscape:connector-curvature="0" id="path34" style="stroke:#000000;stroke-width:8;stroke-miterlimit:4;stroke-dasharray:none;fill:none;stroke-opacity:1"/>
      <path d="M 804,57.6016 722.398,44.3984 709.199,34.8008 711.602,19.1992 738,32.3984 758.398,19.1992 889.199,34.8008 992.398,19.1992 l 2.403,15.6016 -6,16.8008 -26.403,6 -30,10.7968 -9.597,2.4024 -9.602,20.3984 -3.597,339.6018 7.199,39.597 0,13.204 -22.801,43.199 -24,39.597 -75.602,122.403" inkscape:connector-curvature="0" id="path36" style="stroke:#000000;stroke-width:8;stroke-miterlimit:4;stroke-dasharray:none;fill:none;stroke-opacity:1"/>
      <path d="m 824.398,651.602 118.801,-13.204 98.401,3.602 124.8,13.199 63.6,-56.398 75.6,-69.602 36,-2.398 36,9.597 39.6,33.602 7.2,26.398 -79.2,81.602" inkscape:connector-curvature="0" id="path38" style="stroke:#000000;stroke-width:8;stroke-miterlimit:4;stroke-dasharray:none;fill:none;stroke-opacity:1"/>
      <path d="M 302.398,1430.4 16.8008,1255.2 345.602,1364.4" inkscape:connector-curvature="0" id="path40" style="stroke:#000000;stroke-width:8;stroke-miterlimit:4;stroke-dasharray:none;fill:none;stroke-opacity:1"/>
      <path d="M 307.199,1383.6 16.8008,1255.2" inkscape:connector-curvature="0" id="path42" style="stroke:#000000;stroke-width:8;stroke-miterlimit:4;stroke-dasharray:none;fill:none;stroke-opacity:1"/>
      <path d="m 369.602,1436.4 -16.801,-9.6 9.597,-16.8 16.801,7.2 -7.199,13.2" inkscape:connector-curvature="0" id="path44" style="stroke:#000000;stroke-width:8;stroke-miterlimit:4;stroke-dasharray:none;fill:none;stroke-opacity:1"/>
      <path d="m 1002,48 26.4,-6 13.2,-9.6016 3.6,-7.1992 -16.8,-6 -22.8,2.4024" inkscape:connector-curvature="0" id="path46" style="stroke:#000000;stroke-width:8;stroke-miterlimit:4;stroke-dasharray:none;fill:none;stroke-opacity:1"/>
      <path d="M 507.602,789.602 577.199,658.801 655.199,540 662.398,510 448.801,124.801 438,108 l -9.602,-16.8008 -22.796,-6 L 326.398,70.8008 273.602,62.3984 253.199,51.6016 240,48 l -19.199,-3.6016 -6,-6 -7.199,-16.7968 19.199,10.7968 24,-10.7968" inkscape:connector-curvature="0" id="path48" style="stroke:#000000;stroke-width:8;stroke-miterlimit:4;stroke-dasharray:none;fill:none;stroke-opacity:1"/>
      <path d="m 286.801,42 -13.199,0 -16.801,-3.6016 -6,-13.1992 6,-3.5976 20.398,7.1992" inkscape:connector-curvature="0" id="path50" style="stroke:#000000;stroke-width:8;stroke-miterlimit:4;stroke-dasharray:none;fill:none;stroke-opacity:1"/>
      <path d="M 290.398,44.3984 313.199,51.6016 366,55.1992" inkscape:connector-curvature="0" id="path52" style="stroke:#000000;stroke-width:8;stroke-miterlimit:4;stroke-dasharray:none;fill:none;stroke-opacity:1"/>
      <path d="m 279.602,28.8008 27.597,-9.6016 121.199,13.1992 20.403,2.4024 98.398,-15.6016 2.403,15.6016 -2.403,16.8008 -30,6 -39.597,13.1992" inkscape:connector-curvature="0" id="path54" style="stroke:#000000;stroke-width:8;stroke-miterlimit:4;stroke-dasharray:none;fill:none;stroke-opacity:1"/>
      <path d="m 475.199,74.3984 -3.597,16.8008 204,339.6018 49.199,88.801 0,30 -36,126" inkscape:connector-curvature="0" id="path56" style="stroke:#000000;stroke-width:8;stroke-miterlimit:4;stroke-dasharray:none;fill:none;stroke-opacity:1"/>
      <path d="m 556.801,48 22.801,-6 13.199,-9.6016 3.597,-7.1992 -16.796,-6 -22.801,2.4024" inkscape:connector-curvature="0" id="path58" style="stroke:#000000;stroke-width:8;stroke-miterlimit:4;stroke-dasharray:none;fill:none;stroke-opacity:1"/>
    </g>
  </g>
</svg>
