<?xml version="1.0" encoding="UTF-8"?>
<!-- Created with Inkscape (http://www.inkscape.org/) -->
<svg xmlns:dc="http://purl.org/dc/elements/1.1/" xmlns:cc="http://creativecommons.org/ns#" xmlns:rdf="http://www.w3.org/1999/02/22-rdf-syntax-ns#" xmlns:svg="http://www.w3.org/2000/svg" xmlns="http://www.w3.org/2000/svg" xmlns:inkscape="http://www.inkscape.org/namespaces/inkscape" version="1.1" width="765" height="990" id="svg2" xml:space="preserve">
  <metadata id="metadata8">
    <rdf:RDF>
      <cc:Work rdf:about="">
        <dc:format>image/svg+xml</dc:format>
        <dc:type rdf:resource="http://purl.org/dc/dcmitype/StillImage"/>
      </cc:Work>
    </rdf:RDF>
  </metadata>
  <defs id="defs6"/>
  <g transform="matrix(1.25,0,0,-1.25,0,990)" id="g10">
    <g transform="scale(0.1,0.1)" id="g12">
      <path d="m 793.199,552 0,93.602 -40.801,2.398 -27.597,7.199 -27.602,12 -22.801,15.602 -18,15.597 -13.199,21.602 -9.597,21.602 -3.602,27.597 3.602,28.801 12,42 85.199,176.4 21.597,51.6 8.403,27.6 1.199,26.4 2.398,25.2 -9.597,28.8 -14.403,26.4 -16.796,19.2 -24,15.6 -18,7.2 -25.204,6 -28.796,6 -62.403,-3.6 -20.398,-2.4 -32.403,-10.8 -40.796,-27.6 -24,-20.4 -12,-9.6 -9.602,-6 37.199,-60 1.199,-56.4 -34.796,4.8 -115.204,0 -91.199,-4.8 -45.597,-10.8 -19.204,-13.2" inkscape:connector-curvature="0" id="path14" style="stroke:#000000;stroke-width:8;stroke-miterlimit:4;stroke-dasharray:none;fill:none;stroke-opacity:1"/>
      <path d="M 424.801,1174.8 402,1166.4 181.199,1118.4 150,1104 l -15.602,-15.6 -15.597,-27.6 0,-21.6 -3.602,-18 3.602,-12 8.398,-3.6 3.602,0 12,3.6 22.801,43.2 27.597,20.4 19.199,9.6 30,8.4 186,28.8 19.204,-1.2 15.597,-7.2" inkscape:connector-curvature="0" id="path16" style="stroke:#000000;stroke-width:8;stroke-miterlimit:4;stroke-dasharray:none;fill:none;stroke-opacity:1"/>
      <path d="m 680.398,1244.4 39.602,0 48,-10.8 40.801,-15.6 42,-24 40.801,-34.8 46.796,-64.8 L 972,1017.6 985.199,930 894,927.602 883.199,1008 l -12,52.8 -10.801,34.8 -14.398,31.2 -15.602,18 -22.796,24 -33.602,25.2 -31.199,9.6" inkscape:connector-curvature="0" id="path18" style="stroke:#000000;stroke-width:8;stroke-miterlimit:4;stroke-dasharray:none;fill:none;stroke-opacity:1"/>
      <path d="m 463.199,1060.8 74.403,-12 28.796,-4.8 27.602,0 13.199,-8.4 10.801,-15.6 1.199,-12 -3.597,-18 -31.204,-74.398 -34.796,-93.602 -8.403,-55.199 9.602,-69.602 21.597,-51.597 14.403,-16.801 16.801,-18 49.199,-31.199 68.398,-21.602 72,-6" inkscape:connector-curvature="0" id="path20" style="stroke:#000000;stroke-width:8;stroke-miterlimit:4;stroke-dasharray:none;fill:none;stroke-opacity:1"/>
      <path d="m 572.398,1191.6 -12,-1.2 -10.796,-14.4 0,-15.6 10.796,-9.6 15.602,0 12,8.4 3.602,7.2 -1.204,14.4 -12,10.8" inkscape:connector-curvature="0" id="path22" style="stroke:#000000;stroke-width:8;stroke-miterlimit:4;stroke-dasharray:none;fill:none;stroke-opacity:1"/>
      <path d="m 554.398,126 -544.79644,0 7.19924,45.602 7.1992,30 10.8008,30 16.8008,22.796 L 64.8008,276 84,301.199 l 20.398,19.199 25.204,18 20.398,14.403 30,13.199 31.199,9.602 20.403,4.796 37.199,3.602 27.597,0 25.204,-3.602 27.597,-4.796 30,-7.204 20.403,-7.199 28.796,-18 22.801,-16.801 20.403,-15.597 18,-22.801 19.199,-26.398 15.597,-25.204 12,-22.796 8.403,-34.801 L 552,153.602 554.398,126" inkscape:connector-curvature="0" id="path24" style="stroke:#000000;stroke-width:8;stroke-miterlimit:4;stroke-dasharray:none;fill:none;stroke-opacity:1"/>
      <path d="m 1206,38.3984 27.6,-16.7968 20.4,-7.2032 9.6,0 10.8,10.8008 13.2,13.1992 67.2,118.8006 0,18 -2.4,7.199 -7.2,9.602 -24,13.199 -558.001,261.602 -12,4.801 -18,2.398 -16.801,-7.199 -16.796,-9.602 -7.204,-10.801 -7.199,-19.199 0,-14.398 L 692.398,396 703.199,382.801 720,366 1206,38.3984" inkscape:connector-curvature="0" id="path26" style="stroke:#000000;stroke-width:8;stroke-miterlimit:4;stroke-dasharray:none;fill:none;stroke-opacity:1"/>
    </g>
  </g>
</svg>
