<?xml version="1.0" encoding="UTF-8"?>
<!-- Created with Inkscape (http://www.inkscape.org/) -->
<svg xmlns:dc="http://purl.org/dc/elements/1.1/" xmlns:cc="http://creativecommons.org/ns#" xmlns:rdf="http://www.w3.org/1999/02/22-rdf-syntax-ns#" xmlns:svg="http://www.w3.org/2000/svg" xmlns="http://www.w3.org/2000/svg" xmlns:inkscape="http://www.inkscape.org/namespaces/inkscape" version="1.1" width="765" height="990" id="svg2" xml:space="preserve">
  <metadata id="metadata8">
    <rdf:RDF>
      <cc:Work rdf:about="">
        <dc:format>image/svg+xml</dc:format>
        <dc:type rdf:resource="http://purl.org/dc/dcmitype/StillImage"/>
      </cc:Work>
    </rdf:RDF>
  </metadata>
  <defs id="defs6"/>
  <g transform="matrix(1.25,0,0,-1.25,0,990)" id="g10">
    <g transform="scale(0.1,0.1)" id="g12">
      <path d="m 337.199,253.199 -38.398,48 -48,48 -38.403,42 -40.796,44.403 L 120,486 l -51.6016,39.602 -54,38.398 101.9996,914.4 32.403,-9.6 34.801,-16.8 28.796,-21.6 28.801,-36 25.199,-40.8 13.204,-45.6 9.597,-37.2 9.602,-51.6 44.398,-1177.2 -60,-3.6016 12,266.4026" inkscape:connector-curvature="0" id="path14" style="stroke:#000000;stroke-width:8;stroke-miterlimit:4;stroke-dasharray:none;fill:none;stroke-opacity:1"/>
      <path d="m 1424.4,1094.4 -70.8,6 -111.6,-6 -82.8,9.6 -26.4,-9.6 -19.2,-25.2 6,-45.6 33.6,-101.998 60,-98.403 198,-237.597 102,-96 147.6,-136.801 313.2,-307.1994 32.4,0 9.6,15.5976 -13.2,28.8008 -134.4,307.199 -19.2,57.602 -102,246 -93.6,159.597 -72,103.204 -55.2,73.198 -44.4,69.6 -48,64.8 -57.6,67.2 -57.6,38.4 -16.8,67.2 -12,73.2 -19.2,48 -54,13.2 -90,0 -99.6,-3.6 -48.001,-12 -21.597,-7.2 -163.204,-21.6 -48,-22.8 -15.597,-22.8 -3.602,-44.4 19.199,31.2 32.403,16.8 94.801,0 99.597,-3.6 51.601,-13.2 -41.999,51.6 -9.602,36" inkscape:connector-curvature="0" id="path16" style="stroke:#000000;stroke-width:8;stroke-miterlimit:4;stroke-dasharray:none;fill:none;stroke-opacity:1"/>
      <path d="m 1078.8,1394.4 9.6,3.6 6,15.6 -6,16.8 -12,9.6 -13.2,-9.6 -3.6,-19.2 6,-9.6 10.8,-7.2" inkscape:connector-curvature="0" id="path18" style="stroke:#000000;stroke-width:8;stroke-miterlimit:4;stroke-dasharray:none;fill:none;stroke-opacity:1"/>
      <path d="m 742.801,1363.2 128.398,2.4 99.602,-12 28.801,-16.8 8.398,-31.2 3.6,-34.8 -28.799,-70.8 -12,-86.4 15.597,-105.6 13.204,-48 34.798,-96 42,-76.801 98.4,-169.199 130.8,-249.602 13.2,-96 L 1302,109.199 1286.4,93.6016 1194,84 l -109.2,2.3984 -6,-15.5976 -48,-6 -6,-9.6016 9.6,-13.1992 274.8,9.6016 284.4,-13.2032 13.2,13.2032 -7.2,15.5976 -44.4,0 L 1530,90 l -163.2,3.6016 -19.2,12.0004 19.2,201.597 117.6,-60 68.4,198 L 1680,126 1724.4,67.1992 1770,42 l 66,0 39.6,13.1992 8.4,19.1992 -31.2,86.4026" inkscape:connector-curvature="0" id="path20" style="stroke:#000000;stroke-width:8;stroke-miterlimit:4;stroke-dasharray:none;fill:none;stroke-opacity:1"/>
      <path d="m 1059.6,810 42,-234 -3.6,-178.801 -32.4,-182.398 -28.8,-92.403 -18,-22.7964 L 865.199,90 848.398,67.1992 813.602,64.8008 800.398,55.1992 813.602,42 l 117.597,9.6016 36,-2.4024" inkscape:connector-curvature="0" id="path22" style="stroke:#000000;stroke-width:8;stroke-miterlimit:4;stroke-dasharray:none;fill:none;stroke-opacity:1"/>
      <path d="m 1082.4,86.3984 -55.2,-6 0,0 -31.2,-6 -19.199,-25.1992 12,-7.1992 19.199,19.1992 19.2,3.6016" inkscape:connector-curvature="0" id="path24" style="stroke:#000000;stroke-width:8;stroke-miterlimit:4;stroke-dasharray:none;fill:none;stroke-opacity:1"/>
      <path d="m 1078.8,90 69.6,262.801 110.4,-64.801 21.6,118.801" inkscape:connector-curvature="0" id="path26" style="stroke:#000000;stroke-width:8;stroke-miterlimit:4;stroke-dasharray:none;fill:none;stroke-opacity:1"/>
      <path d="m 854.398,86.3984 -50.398,-6 0,0 -32.398,-6 -18,-25.1992 L 762,42 784.801,61.1992 810,64.8008" inkscape:connector-curvature="0" id="path28" style="stroke:#000000;stroke-width:8;stroke-miterlimit:4;stroke-dasharray:none;fill:none;stroke-opacity:1"/>
      <path d="m 1536,90 61.2,-6 27.6,-9.6016 20.4,-25.1992 -9.6,-7.1992 -22.8,19.1992 -15.6,3.6016" inkscape:connector-curvature="0" id="path30" style="stroke:#000000;stroke-width:8;stroke-miterlimit:4;stroke-dasharray:none;fill:none;stroke-opacity:1"/>
      <path d="m 2748,38.3984 -316.8,476.4026 -21.6,68.398 -7.2,57.602 9.6,54 13.2,25.199 19.2,28.801 25.2,22.801 25.2,15.597 9.6,7.199 48,6 48,19.204 34.8,31.199 28.8,32.398 16.8,28.801 9.6,57.602 -6,51.598 -16.8,27.6 -15.6,26.4 -28.8,28.8 -25.2,13.2 -42,18 -51.6,13.2 -25.2,16.8 -44.4,34.8 -19.2,31.2 -9.6,28.8 -9.6,57.6 6,51.6 13.2,25.2 19.2,28.8 28.8,26.4 19.2,15.6 34.8,9.6 25.2,3.6" inkscape:connector-curvature="0" id="path32" style="stroke:#000000;stroke-width:8;stroke-miterlimit:4;stroke-dasharray:none;fill:none;stroke-opacity:1"/>
      <path d="m 2335.2,38.3984 322.8,496.8006 16.8,37.199 2.4,68.403 -6,54 -13.2,25.199 -15.6,22.801 -28.8,28.801 -26.4,15.597 -8.4,7.199 -76.8,15.602 -19.2,9.602 -22.8,12 -22.8,22.796 -21.6,32.403 -13.2,28.801 -13.2,56.398 9.6,55.2 19.2,25.2 16.8,25.2 31.2,28.8 22.8,13.2 38.4,15.6 48,16.8 28.8,19.2 34.8,25.2 28.8,38.4 7.2,28.8 12,57.6 -9.6,51.6 -13.2,25.2 -18,28.8 -28.8,25.2 -32.4,19.2 -42,7.2" inkscape:connector-curvature="0" id="path34" style="stroke:#000000;stroke-width:8;stroke-miterlimit:4;stroke-dasharray:none;fill:none;stroke-opacity:1"/>
      <path d="m 3966,1033.2 26.4,-15.6 20.4,-7.2 9.6,0 9.6,10.8 13.2,12 66,115.2 0,16.8 -3.6,6 -7.2,9.6 -22.8,13.2 -535.2,252 -13.2,3.6 -16.8,2.4 -16.8,-6 -16.8,-9.6 -6,-10.8 -6,-19.2 0,-13.2 6,-15.6 9.6,-13.2 16.8,-16.8 466.8,-314.4" inkscape:connector-curvature="0" id="path36" style="stroke:#000000;stroke-width:8;stroke-miterlimit:4;stroke-dasharray:none;fill:none;stroke-opacity:1"/>
      <path d="m 3210,602.398 0,-589.1988 104.4,0 0,589.1988 -104.4,0" inkscape:connector-curvature="0" id="path38" style="stroke:#000000;stroke-width:8;stroke-miterlimit:4;stroke-dasharray:none;fill:none;stroke-opacity:1"/>
      <path d="m 3733.2,602.398 0,-589.1988 108,0 0,589.1988 -108,0" inkscape:connector-curvature="0" id="path40" style="stroke:#000000;stroke-width:8;stroke-miterlimit:4;stroke-dasharray:none;fill:none;stroke-opacity:1"/>
      <path d="m 4262.4,602.398 0,-589.1988 104.4,0 0,589.1988 -104.4,0" inkscape:connector-curvature="0" id="path42" style="stroke:#000000;stroke-width:8;stroke-miterlimit:4;stroke-dasharray:none;fill:none;stroke-opacity:1"/>
    </g>
  </g>
</svg>
