<?xml version="1.0" encoding="UTF-8"?>
<!-- Created with Inkscape (http://www.inkscape.org/) -->
<svg xmlns:dc="http://purl.org/dc/elements/1.1/" xmlns:cc="http://creativecommons.org/ns#" xmlns:rdf="http://www.w3.org/1999/02/22-rdf-syntax-ns#" xmlns:svg="http://www.w3.org/2000/svg" xmlns="http://www.w3.org/2000/svg" xmlns:inkscape="http://www.inkscape.org/namespaces/inkscape" version="1.1" width="765" height="990" id="svg2" xml:space="preserve">
  <metadata id="metadata8">
    <rdf:RDF>
      <cc:Work rdf:about="">
        <dc:format>image/svg+xml</dc:format>
        <dc:type rdf:resource="http://purl.org/dc/dcmitype/StillImage"/>
      </cc:Work>
    </rdf:RDF>
  </metadata>
  <defs id="defs6"/>
  <g transform="matrix(1.25,0,0,-1.25,0,990)" id="g10">
    <g transform="scale(0.1,0.1)" id="g12">
      <path d="m 807.602,1072.8 -70.801,6 -111.602,-6 -82.801,9.6 -26.398,-9.6 -19.199,-26.4 6,-44.4 L 542.398,884.398 558,852 l 38.398,-51.602 96,-118.796 L 896.398,468 1044,330 1357.2,22.8008 l 31.2,0 10.8,16.8008 -13.2,28.7968 -134.4,307.2036 -19.2,57.597 -50.4,127.199 -16.8,32.403 -40.8,86.398 -76.8,130.801 -80.401,130.801 -54,74.399 -48,69.6 -48,64.8 -57.597,66 -57.602,39.6 -16.801,66 -12,74.4 -19.199,48 -54,12 -90,0 -99.602,-2.4 -48,-13.2 -21.597,-6 -163.199,-22.8 -48,-21.6 -15.602,-22.8 -3.602,-45.6 19.204,32.4 31.199,16.8 96,0 99.597,-3.6 51.602,-13.2 -42,51.6 -9.602,34.8" inkscape:connector-curvature="0" id="path14" style="stroke:#000000;stroke-width:8;stroke-miterlimit:4;stroke-dasharray:none;fill:none;stroke-opacity:1"/>
      <path d="m 462,1372.8 9.602,3.6 6,15.6 -6,15.6 -12,10.8 -13.204,-10.8 -3.597,-18 6,-10.8 10.801,-6" inkscape:connector-curvature="0" id="path16" style="stroke:#000000;stroke-width:8;stroke-miterlimit:4;stroke-dasharray:none;fill:none;stroke-opacity:1"/>
      <path d="m 126,1341.6 128.398,2.4 99.602,-13.2 28.801,-15.6 8.398,-31.2 3.602,-36 -28.801,-69.6 -12,-87.6 15.602,-105.601 13.199,-46.801 18,-57.597 13.199,-25.199 45.602,-90 162,-294 67.199,-126 L 702,250.801 685.199,87.6016 669.602,70.8008 577.199,62.3984 468,64.8008 462,49.1992 414,42 408,33.6016 417.602,20.3984 692.398,30 976.801,16.8008 l 12,13.1992 -6,15.6016 -44.403,0 -25.199,22.7968 -164.398,2.4024 -18,13.1992 18,201.602 118.801,-61.204 67.199,198 128.399,-319.199 44.4,-57.5974 45.6,-25.2032 66,0 39.6,13.2032 8.4,18 -31.2,87.5974" inkscape:connector-curvature="0" id="path18" style="stroke:#000000;stroke-width:8;stroke-miterlimit:4;stroke-dasharray:none;fill:none;stroke-opacity:1"/>
      <path d="m 442.801,787.199 25.199,-96 9.602,-98.398 3.597,-38.403 0,-178.796 L 448.801,193.199 420,99.6016 400.801,78 248.398,68.3984 231.602,45.6016 196.801,42 183.602,33.6016 196.801,20.3984 314.398,30 349.199,26.3984" inkscape:connector-curvature="0" id="path20" style="stroke:#000000;stroke-width:8;stroke-miterlimit:4;stroke-dasharray:none;fill:none;stroke-opacity:1"/>
      <path d="m 465.602,64.8008 -55.204,-6 0,0 L 379.199,51.6016 360,26.3984 l 12,-6 19.199,19.2032 L 410.398,42" inkscape:connector-curvature="0" id="path22" style="stroke:#000000;stroke-width:8;stroke-miterlimit:4;stroke-dasharray:none;fill:none;stroke-opacity:1"/>
      <path d="M 462,68.3984 531.602,330 640.801,266.398 663.602,385.199" inkscape:connector-curvature="0" id="path24" style="stroke:#000000;stroke-width:8;stroke-miterlimit:4;stroke-dasharray:none;fill:none;stroke-opacity:1"/>
      <path d="m 237.602,64.8008 -50.403,-6 0,0 -32.398,-7.1992 -19.199,-25.2032 9.597,-6 L 168,39.6016 193.199,42" inkscape:connector-curvature="0" id="path26" style="stroke:#000000;stroke-width:8;stroke-miterlimit:4;stroke-dasharray:none;fill:none;stroke-opacity:1"/>
      <path d="m 919.199,68.3984 61.199,-6 27.602,-10.7968 20.4,-25.2032 -9.6,-6 L 996,39.6016 980.398,42" inkscape:connector-curvature="0" id="path28" style="stroke:#000000;stroke-width:8;stroke-miterlimit:4;stroke-dasharray:none;fill:none;stroke-opacity:1"/>
      <path d="m 1453.2,884.398 -453.598,0" inkscape:connector-curvature="0" id="path30" style="stroke:#000000;stroke-width:8;stroke-miterlimit:4;stroke-dasharray:none;fill:none;stroke-opacity:1"/>
      <path d="m 398.398,884.398 -70.796,0 L 270,871.199 216,844.801 158.398,804 120,771.602 85.1992,733.199 l -30,-38.398 -18,-38.403 L 24,618 l -6,-32.398 -3.6016,-28.801 1438.8016,0" inkscape:connector-curvature="0" id="path32" style="stroke:#000000;stroke-width:8;stroke-miterlimit:4;stroke-dasharray:none;fill:none;stroke-opacity:1"/>
      <path d="m 3043.2,859.199 -159.6,21.602 -61.2,-6 -57.6,-19.199 -67.2,-34.801 -124.8,-38.403 -267.6,-25.199 -272.4,9.602 -118.8,21.597 -69.6,32.403 -32.4,48 -28.8,96 10.8,153.599 24,63.6 22.8,55.2 54,34.8 378,0" inkscape:connector-curvature="0" id="path34" style="stroke:#000000;stroke-width:8;stroke-miterlimit:4;stroke-dasharray:none;fill:none;stroke-opacity:1"/>
      <path d="m 2011.2,1278 -51.6,0 -73.2,25.2 -57.6,32.4 -39.6,32.4 -40.8,44.4 -19.2,38.4 -6,26.4 70.8,-39.6 120,-28.8 90,-2.4 121.2,0 76.8,2.4 103.2,10.8 105.6,0 85.2,-10.8 67.2,-40.8 70.8,-57.6 42,-51.6 63.6,-57.6 82.8,-12 73.2,-7.2 70.8,13.2 73.2,19.2 0,-351.599" inkscape:connector-curvature="0" id="path36" style="stroke:#000000;stroke-width:8;stroke-miterlimit:4;stroke-dasharray:none;fill:none;stroke-opacity:1"/>
      <path d="m 4461.6,859.199 -159.6,21.602 -61.2,-6 -57.6,-19.199 -67.2,-34.801 -123.6,-38.403 -268.8,-25.199 -271.2,9.602 -118.8,21.597 -70.8,32.403 -32.4,48 -28.8,96 10.8,153.599 25.2,63.6 21.6,55.2 55.2,34.8 376.8,0" inkscape:connector-curvature="0" id="path38" style="stroke:#000000;stroke-width:8;stroke-miterlimit:4;stroke-dasharray:none;fill:none;stroke-opacity:1"/>
      <path d="m 3429.6,1278 -51.6,0 -73.2,25.2 -57.6,32.4 -38.4,32.4 -42,44.4 -19.2,38.4 -6,26.4 70.8,-39.6 121.2,-28.8 88.8,-2.4 122.4,0 76.8,2.4 102,10.8 105.6,0 86.4,-10.8 66,-40.8 70.8,-57.6 42,-51.6 63.6,-57.6 82.8,-12 74.4,-7.2 70.8,13.2 72,19.2 0,-351.599" inkscape:connector-curvature="0" id="path40" style="stroke:#000000;stroke-width:8;stroke-miterlimit:4;stroke-dasharray:none;fill:none;stroke-opacity:1"/>
      <path d="m 1852.8,610.801 0,-576.0002 102,0 0,576.0002 -102,0" inkscape:connector-curvature="0" id="path42" style="stroke:#000000;stroke-width:8;stroke-miterlimit:4;stroke-dasharray:none;fill:none;stroke-opacity:1"/>
      <path d="m 2364,610.801 0,-576.0002 105.6,0 0,576.0002 -105.6,0" inkscape:connector-curvature="0" id="path44" style="stroke:#000000;stroke-width:8;stroke-miterlimit:4;stroke-dasharray:none;fill:none;stroke-opacity:1"/>
      <path d="m 2882.4,610.801 0,-576.0002 102,0 0,576.0002 -102,0" inkscape:connector-curvature="0" id="path46" style="stroke:#000000;stroke-width:8;stroke-miterlimit:4;stroke-dasharray:none;fill:none;stroke-opacity:1"/>
    </g>
  </g>
</svg>
