<?xml version="1.0" encoding="UTF-8"?>
<!-- Created with Inkscape (http://www.inkscape.org/) -->
<svg xmlns:dc="http://purl.org/dc/elements/1.1/" xmlns:cc="http://creativecommons.org/ns#" xmlns:rdf="http://www.w3.org/1999/02/22-rdf-syntax-ns#" xmlns:svg="http://www.w3.org/2000/svg" xmlns="http://www.w3.org/2000/svg" xmlns:inkscape="http://www.inkscape.org/namespaces/inkscape" version="1.1" width="765" height="990" id="svg2" xml:space="preserve">
  <metadata id="metadata8">
    <rdf:RDF>
      <cc:Work rdf:about="">
        <dc:format>image/svg+xml</dc:format>
        <dc:type rdf:resource="http://purl.org/dc/dcmitype/StillImage"/>
      </cc:Work>
    </rdf:RDF>
  </metadata>
  <defs id="defs6"/>
  <g transform="matrix(1.25,0,0,-1.25,0,990)" id="g10">
    <g transform="scale(0.1,0.1)" id="g12">
      <path d="m 498,298.801 198,0 -3.602,72 19.204,96 20.398,56.398 39.602,88.801 181.199,320.398 9.597,68.402 3.602,33.6 -7.199,58.8 -9.602,39.6 -16.801,49.2 -28.796,46.8 -24,26.4 -58.801,56.4 -46.801,15.6 -94.801,9.6 -79.199,-9.6 -32.398,-13.2 -40.801,-26.4 -36,-38.4 -15.602,-24 -16.801,-19.2" inkscape:connector-curvature="0" id="path14" style="stroke:#000000;stroke-width:8;stroke-miterlimit:4;stroke-dasharray:none;fill:none;stroke-opacity:1"/>
      <path d="m 448.801,1202.4 -30,-13.2 L 96,1125.6 l -30,-22.8 -24,-15.6 -19.1992,-36 -6,-54.001 L 19.1992,984 30,978 l 6,0 16.8008,6 7.1992,30 19.1992,30 29.9998,26.4 32.403,9.6 43.199,13.2 266.398,37.2 7.199,2.4 39.602,-7.2" inkscape:connector-curvature="0" id="path16" style="stroke:#000000;stroke-width:8;stroke-miterlimit:4;stroke-dasharray:none;fill:none;stroke-opacity:1"/>
      <path d="M 451.199,1202.4 498,1123.2 498,1080" inkscape:connector-curvature="0" id="path18" style="stroke:#000000;stroke-width:8;stroke-miterlimit:4;stroke-dasharray:none;fill:none;stroke-opacity:1"/>
      <path d="m 66,1017.6 30,20.4 49.199,13.2 128.403,12 128.398,16.8 98.398,0 26.403,-3.6 54,-13.2 92.398,-15.6 49.199,-3.6 36,3.6 39.602,9.6 22.801,-13.2 9.597,-16.8 3.602,-39.598 -3.602,-32.403 -15.597,-39.597 -145.199,-192 L 596.398,608.398 567.602,549.602 530.398,480 511.199,391.199 498,298.801" inkscape:connector-curvature="0" id="path20" style="stroke:#000000;stroke-width:8;stroke-miterlimit:4;stroke-dasharray:none;fill:none;stroke-opacity:1"/>
      <path d="m 781.199,1323.6 171.602,-62.4 167.999,-42 69.6,-13.2 58.8,-3.6 73.2,0 79.2,3.6 58.8,13.2 60,12 6,-6 -6,-22.8 -24,-16.8 -79.2,-16.8 -79.2,-9.6 -88.8,0 -75.6,7.2 -128.4,22.8 -73.2,22.8" inkscape:connector-curvature="0" id="path22" style="stroke:#000000;stroke-width:8;stroke-miterlimit:4;stroke-dasharray:none;fill:none;stroke-opacity:1"/>
      <path d="m 879.602,1261.2 128.398,-68.4 129.6,-67.2 79.2,-38.4 58.8,-24 66,-15.6 46.8,-7.2 85.2,-9.6 36,7.2 16.8,2.4 13.2,-9.6 3.6,-19.2 -49.2,-16.799 -60,-7.199 -66,9.597 -92.4,20.401 -79.2,26.4 -75.6,36 -184.8,105.6" inkscape:connector-curvature="0" id="path24" style="stroke:#000000;stroke-width:8;stroke-miterlimit:4;stroke-dasharray:none;fill:none;stroke-opacity:1"/>
      <path d="m 603.602,1242 -20.403,-3.6 -15.597,-19.2 0,-24 15.597,-15.6 22.801,0 24,9.6 2.398,13.2 -6,19.2 -16.796,20.4" inkscape:connector-curvature="0" id="path26" style="stroke:#000000;stroke-width:8;stroke-miterlimit:4;stroke-dasharray:none;fill:none;stroke-opacity:1"/>
      <path d="m 1914,45.6016 -30,-19.2032 -22.8,-7.1992 -12,0 L 1837.2,30 1821.6,45.6016 1744.8,180 l 0,20.398 3.6,7.204 8.4,12 26.4,15.597 632.4,296.403 15.6,4.796 19.2,3.602 20.4,-8.398 19.2,-10.801 7.2,-12 8.4,-22.801 0,-15.602 -8.4,-19.199 -10.8,-15.597 L 2466,416.398 1914,45.6016" inkscape:connector-curvature="0" id="path28" style="stroke:#000000;stroke-width:8;stroke-miterlimit:4;stroke-dasharray:none;fill:none;stroke-opacity:1"/>
      <path d="m 1977.6,1502.4 0,-628.798 140.4,0 0,628.798 -140.4,0" inkscape:connector-curvature="0" id="path30" style="stroke:#000000;stroke-width:8;stroke-miterlimit:4;stroke-dasharray:none;fill:none;stroke-opacity:1"/>
    </g>
  </g>
</svg>
