<?xml version="1.0" encoding="UTF-8"?>
<!-- Created with Inkscape (http://www.inkscape.org/) -->
<svg xmlns:dc="http://purl.org/dc/elements/1.1/" xmlns:cc="http://creativecommons.org/ns#" xmlns:rdf="http://www.w3.org/1999/02/22-rdf-syntax-ns#" xmlns:svg="http://www.w3.org/2000/svg" xmlns="http://www.w3.org/2000/svg" xmlns:inkscape="http://www.inkscape.org/namespaces/inkscape" version="1.1" width="765" height="990" id="svg2" xml:space="preserve">
  <metadata id="metadata8">
    <rdf:RDF>
      <cc:Work rdf:about="">
        <dc:format>image/svg+xml</dc:format>
        <dc:type rdf:resource="http://purl.org/dc/dcmitype/StillImage"/>
      </cc:Work>
    </rdf:RDF>
  </metadata>
  <defs id="defs6"/>
  <g transform="matrix(1.25,0,0,-1.25,0,990)" id="g10">
    <g transform="scale(0.1,0.1)" id="g12">
      <path d="m 340.801,885.602 0,-860.4028 67.199,0 0,860.4028" inkscape:connector-curvature="0" id="path14" style="stroke:#000000;stroke-width:8;stroke-miterlimit:4;stroke-dasharray:none;fill:none;stroke-opacity:1"/>
      <path d="m 14.3984,889.199 718.8006,0 0,226.801 -12,26.4 -13.199,15.6 -31.199,0 -20.403,-3.6 -19.199,-12 -63.597,-57.6 -57.602,-51.6 -44.398,-22.8 -54,-12.002 -45.602,-3.597 -40.801,3.597 -54,12.002 -45.597,22.8 -57.602,51.6 -63.602,57.6 -19.1988,12 L 72,1158 l -32.3984,0 -13.2032,-15.6 -12,-26.4 0,-226.801" inkscape:connector-curvature="0" id="path16" style="stroke:#000000;stroke-width:8;stroke-miterlimit:4;stroke-dasharray:none;fill:none;stroke-opacity:1"/>
      <path d="m 506.398,1033.2 -57.597,378 -25.199,31.2 -19.204,13.2 -25.199,9.6 -9.597,0 -26.403,-9.6 -18,-13.2 -26.398,-31.2 -57.602,-378" inkscape:connector-curvature="0" id="path18" style="stroke:#000000;stroke-width:8;stroke-miterlimit:4;stroke-dasharray:none;fill:none;stroke-opacity:1"/>
      <path d="m 1534.8,1461.6 -15.6,-322.8 -7.2,-274.8 -6,-211.199 -15.6,-150 -13.2,-144 6,-153.602 9.6,-48 6,-38.398 -2.4,-38.4026 L 1477.2,54 l -28.8,-19.1992 -34.8,-6 -64.8,16.8008 -25.2,19.1992 -42,9.5976 -96,-49.1992 -395.998,3.6016 -15.602,51.5976 12,25.2036 36,6 136.801,28.796 115.199,58.801 76.8,28.801 67.2,15.602 48,42 15.6,40.796 3.6,44.403 -6,68.398 -3.6,88.801 -7.2,243.602 -2.4,242.398 -26.4,451.2 295.2,0" inkscape:connector-curvature="0" id="path20" style="stroke:#000000;stroke-width:8;stroke-miterlimit:4;stroke-dasharray:none;fill:none;stroke-opacity:1"/>
      <path d="m 1995.6,1362 -26.4,-13.2 -20.4,-25.2 -7.2,-20.4 -3.6,-20.4 6,-31.2 15.6,-19.2 15.6,-14.4 27.6,-8.4 19.2,-7.2 25.2,0 26.4,12 22.8,10.8 13.2,15.6 15.6,22.8 10.8,26.4 7.2,21.6 1.2,22.8 -1.2,15.6 -4.8,27.6 -10.8,21.6 -18,22.8 -18,15.6 -15.6,6 -15.6,7.2 -22.8,2.4 -18,2.4 -21.6,0 -26.4,-2.4 -30,-9.6 -24,-13.2 -15.6,-13.2 -18,-15.6 -13.2,-15.6 -13.2,-24 -13.2,-25.2 -4.8,-21.6 -4.8,-32.4 -2.4,-31.2 2.4,-24 2.4,-36 13.2,-36 20.4,-39.6 36,-46.8 55.2,-54 80.4,-64.802 174,-98.398" inkscape:connector-curvature="0" id="path22" style="stroke:#000000;stroke-width:8;stroke-miterlimit:4;stroke-dasharray:none;fill:none;stroke-opacity:1"/>
      <path d="m 2384.4,1448.4 178.8,-402 88.8,0 -178.8,402 -88.8,0" inkscape:connector-curvature="0" id="path24" style="stroke:#000000;stroke-width:8;stroke-miterlimit:4;stroke-dasharray:none;fill:none;stroke-opacity:1"/>
      <path d="m 2654.4,1448.4 177.6,-402 90,0 -178.8,402 -88.8,0" inkscape:connector-curvature="0" id="path26" style="stroke:#000000;stroke-width:8;stroke-miterlimit:4;stroke-dasharray:none;fill:none;stroke-opacity:1"/>
      <path d="m 2706,399.602 20.4,-46.801 32.4,-44.403 74.4,-46.796 13.2,-13.204 4.8,-22.796 2.4,-142.8012 -16.8,-18 -15.6,-21.6016 -3.6,-25.1992 22.8,6" inkscape:connector-curvature="0" id="path28" style="stroke:#000000;stroke-width:8;stroke-miterlimit:4;stroke-dasharray:none;fill:none;stroke-opacity:1"/>
      <path d="m 2835.6,58.8008 39.6,0" inkscape:connector-curvature="0" id="path30" style="stroke:#000000;stroke-width:8;stroke-miterlimit:4;stroke-dasharray:none;fill:none;stroke-opacity:1"/>
      <path d="m 2853.6,54 -12,-33.6016 30,0 6,38.4024 20.4,8.3984 7.2,13.1992 -7.2,95.9996 10.8,91.204 -2.4,20.398 -16.8,36 -7.2,36 22.8,124.801 -2.4,31.199 -27.6,33.602" inkscape:connector-curvature="0" id="path32" style="stroke:#000000;stroke-width:8;stroke-miterlimit:4;stroke-dasharray:none;fill:none;stroke-opacity:1"/>
      <path d="m 2906.4,480 0,-148.801 12,-64.801 42,-80.398 4.8,46.801 -9.6,46.801 -18,33.597 -10.8,55.199 -2.4,152.403 -13.2,31.199 -18,13.199 -51.6,18 -63.6,9.602 -72,0 -152.4,-27.602 -81.6,-3.597 -87.6,1.199 -169.2,46.801 -99.6,18" inkscape:connector-curvature="0" id="path34" style="stroke:#000000;stroke-width:8;stroke-miterlimit:4;stroke-dasharray:none;fill:none;stroke-opacity:1"/>
      <path d="m 2060.4,603.602 20.4,6 22.8,0 21.6,43.199 -21.6,2.398 -27.6,-7.199 -15.6,-20.398 -15.6,-6" inkscape:connector-curvature="0" id="path36" style="stroke:#000000;stroke-width:8;stroke-miterlimit:4;stroke-dasharray:none;fill:none;stroke-opacity:1"/>
      <path d="m 2072.4,643.199 -7.2,2.403" inkscape:connector-curvature="0" id="path38" style="stroke:#000000;stroke-width:8;stroke-miterlimit:4;stroke-dasharray:none;fill:none;stroke-opacity:1"/>
      <path d="m 2056.8,639.602 27.6,19.199 21.6,22.801 15.6,44.398 0,26.398 -6,43.204 -12,24 -3.6,-62.403 -9.6,-42 -27.6,-33.597 -44.4,-26.403 3.6,-15.597" inkscape:connector-curvature="0" id="path40" style="stroke:#000000;stroke-width:8;stroke-miterlimit:4;stroke-dasharray:none;fill:none;stroke-opacity:1"/>
      <path d="M 2031.6,661.199 2016,666 l -28.8,0 -20.4,-2.398 -10.8,-8.403 -9.6,-18 -13.2,-27.597 -36,-31.204 -26.4,-22.796 -24,-15.602 -7.2,-12 8.4,-22.801 25.2,-25.199 46.8,2.398" inkscape:connector-curvature="0" id="path42" style="stroke:#000000;stroke-width:8;stroke-miterlimit:4;stroke-dasharray:none;fill:none;stroke-opacity:1"/>
      <path d="m 1891.2,512.398 -20.4,0 8.4,-12" inkscape:connector-curvature="0" id="path44" style="stroke:#000000;stroke-width:8;stroke-miterlimit:4;stroke-dasharray:none;fill:none;stroke-opacity:1"/>
      <path d="m 1969.2,571.199 8.4,3.602 9.6,13.199 8.4,0 14.4,-20.398" inkscape:connector-curvature="0" id="path46" style="stroke:#000000;stroke-width:8;stroke-miterlimit:4;stroke-dasharray:none;fill:none;stroke-opacity:1"/>
      <path d="m 2002.8,577.199 -8.4,-7.199 -7.2,0 -9.6,8.398" inkscape:connector-curvature="0" id="path48" style="stroke:#000000;stroke-width:8;stroke-miterlimit:4;stroke-dasharray:none;fill:none;stroke-opacity:1"/>
      <path d="m 1959.6,663.602 -24,10.796 -28.8,25.204 -13.2,26.398 -4.8,30 8.4,60 -18,-18 -15.6,-42 0,-45.602 25.2,-39.597 26.4,-20.403 31.2,-13.199" inkscape:connector-curvature="0" id="path50" style="stroke:#000000;stroke-width:8;stroke-miterlimit:4;stroke-dasharray:none;fill:none;stroke-opacity:1"/>
      <path d="m 1844.4,512.398 -2.4,-16.796 24,-28.801 27.6,-6 37.2,6 38.4,7.199 68.4,2.398 27.6,16.801 26.4,27.602" inkscape:connector-curvature="0" id="path52" style="stroke:#000000;stroke-width:8;stroke-miterlimit:4;stroke-dasharray:none;fill:none;stroke-opacity:1"/>
      <path d="m 2041.2,476.398 24,-58.796 22.8,-64.801 27.6,-46.801 45.6,-34.801 38.4,-19.199 55.2,-8.398" inkscape:connector-curvature="0" id="path54" style="stroke:#000000;stroke-width:8;stroke-miterlimit:4;stroke-dasharray:none;fill:none;stroke-opacity:1"/>
      <path d="m 2337.6,271.199 21.6,6 25.2,2.403 31.2,-7.204 28.8,-1.199 98.4,0 42,-9.597" inkscape:connector-curvature="0" id="path56" style="stroke:#000000;stroke-width:8;stroke-miterlimit:4;stroke-dasharray:none;fill:none;stroke-opacity:1"/>
      <path d="m 2576.4,250.801 24,10.801 30,10.796 80.4,20.403 70.8,4.801" inkscape:connector-curvature="0" id="path58" style="stroke:#000000;stroke-width:8;stroke-miterlimit:4;stroke-dasharray:none;fill:none;stroke-opacity:1"/>
      <path d="m 2174.4,438 4.8,-51.602 20.4,-55.199 46.8,-63.597 8.4,-15.602 0,-16.801 -8.4,-126 -9.6,-16.8006 -26.4,-45.5976 -13.2,-31.1992 21.6,8.3984" inkscape:connector-curvature="0" id="path60" style="stroke:#000000;stroke-width:8;stroke-miterlimit:4;stroke-dasharray:none;fill:none;stroke-opacity:1"/>
      <path d="m 2212.8,49.1992 44.4,-2.3984" inkscape:connector-curvature="0" id="path62" style="stroke:#000000;stroke-width:8;stroke-miterlimit:4;stroke-dasharray:none;fill:none;stroke-opacity:1"/>
      <path d="m 2226,46.8008 -7.2,-31.1992 40.8,8.3984 3.6,30 18,7.1992 9.6,13.1992 0,13.2032 6,62.3984 22.8,82.801 15.6,39.597 7.2,30 -14.4,34.801" inkscape:connector-curvature="0" id="path64" style="stroke:#000000;stroke-width:8;stroke-miterlimit:4;stroke-dasharray:none;fill:none;stroke-opacity:1"/>
      <path d="M 2152.8,279.602 2109.6,136.801 2094,105.602 2067.6,72 2041.2,38.3984 2031.6,18 2052,27.6016" inkscape:connector-curvature="0" id="path66" style="stroke:#000000;stroke-width:8;stroke-miterlimit:4;stroke-dasharray:none;fill:none;stroke-opacity:1"/>
      <path d="m 2056.8,58.8008 39.6,-13.1992" inkscape:connector-curvature="0" id="path68" style="stroke:#000000;stroke-width:8;stroke-miterlimit:4;stroke-dasharray:none;fill:none;stroke-opacity:1"/>
      <path d="m 2065.2,45.6016 -15.6,-30 40.8,7.1992 8.4,28.8008 16.8,0 14.4,10.7968 20.4,58.8006 24,60 31.2,31.199 7.2,36" inkscape:connector-curvature="0" id="path70" style="stroke:#000000;stroke-width:8;stroke-miterlimit:4;stroke-dasharray:none;fill:none;stroke-opacity:1"/>
      <path d="m 2630.4,271.199 8.4,-20.398 -4.8,-18 -75.6,-156.0002 -18,-15.6016 -18,-15.5976 L 2509.2,18 l 20.4,4.8008" inkscape:connector-curvature="0" id="path72" style="stroke:#000000;stroke-width:8;stroke-miterlimit:4;stroke-dasharray:none;fill:none;stroke-opacity:1"/>
      <path d="m 2529.6,45.6016 44.4,6" inkscape:connector-curvature="0" id="path74" style="stroke:#000000;stroke-width:8;stroke-miterlimit:4;stroke-dasharray:none;fill:none;stroke-opacity:1"/>
      <path d="m 2538,39.6016 -8.4,-24 44.4,7.1992 2.4,31.1992 22.8,10.8008 60,109.1992 33.6,33.602 3.6,18 19.2,40.796 21.6,26.403" inkscape:connector-curvature="0" id="path76" style="stroke:#000000;stroke-width:8;stroke-miterlimit:4;stroke-dasharray:none;fill:none;stroke-opacity:1"/>
      <path d="m 3181.2,1449.6 0,-575.998 103.2,0 0,575.998 -103.2,0" inkscape:connector-curvature="0" id="path78" style="stroke:#000000;stroke-width:8;stroke-miterlimit:4;stroke-dasharray:none;fill:none;stroke-opacity:1"/>
      <path d="m 3692.4,1449.6 0,-575.998 105.6,0 0,575.998 -105.6,0" inkscape:connector-curvature="0" id="path80" style="stroke:#000000;stroke-width:8;stroke-miterlimit:4;stroke-dasharray:none;fill:none;stroke-opacity:1"/>
      <path d="m 4210.8,1449.6 0,-575.998 102,0 0,575.998 -102,0" inkscape:connector-curvature="0" id="path82" style="stroke:#000000;stroke-width:8;stroke-miterlimit:4;stroke-dasharray:none;fill:none;stroke-opacity:1"/>
    </g>
  </g>
</svg>
