<?xml version="1.0" encoding="UTF-8"?>
<!-- Created with Inkscape (http://www.inkscape.org/) -->
<svg xmlns:dc="http://purl.org/dc/elements/1.1/" xmlns:cc="http://creativecommons.org/ns#" xmlns:rdf="http://www.w3.org/1999/02/22-rdf-syntax-ns#" xmlns:svg="http://www.w3.org/2000/svg" xmlns="http://www.w3.org/2000/svg" xmlns:inkscape="http://www.inkscape.org/namespaces/inkscape" version="1.1" width="765" height="990" id="svg2" xml:space="preserve">
  <metadata id="metadata8">
    <rdf:RDF>
      <cc:Work rdf:about="">
        <dc:format>image/svg+xml</dc:format>
        <dc:type rdf:resource="http://purl.org/dc/dcmitype/StillImage"/>
      </cc:Work>
    </rdf:RDF>
  </metadata>
  <defs id="defs6"/>
  <g transform="matrix(1.25,0,0,-1.25,0,990)" id="g10">
    <g transform="scale(0.1,0.1)" id="g12">
      <path d="M 525.602,1090.8 487.199,1050 474,998.398 l 10.801,-51.597 21.597,-37.199 61.204,-58.801 105.597,-57.602 181.199,-66 218.402,-45.597 217.2,-25.204 69.6,-6 45.6,-3.597 21.6,6 13.2,13.199 0,15.602 -15.6,13.199 -86.4,15.597 -54,25.204 -32.4,22.796 -76.8,63.602 -115.2,105.602 -115.202,89.998 -105.597,57.6 -102,40.8 -76.801,22.8 -67.199,3.6 -57.602,-13.2 -44.398,-21.6 -32.403,-20.4 -15.597,-15.6 -22.801,-2.4 -25.199,6 -3.602,22.8 124.801,102 26.398,28.8 15.602,34.8 2.398,32.4 -2.398,28.8" inkscape:connector-curvature="0" id="path14" style="stroke:#000000;stroke-width:8;stroke-miterlimit:4;stroke-dasharray:none;fill:none;stroke-opacity:1"/>
      <path d="m 529.199,1346.4 130.801,-60 136.801,-51.6 122.398,-25.2 128.401,-9.6 94.8,-3.6 70.8,9.6 -99.6,15.6 -111.6,10.8 -124.801,18 -88.801,26.4 -109.199,38.4 -82.801,34.8 -51.597,34.8 172.801,-67.2 108,-19.2 58.796,-8.4 121.202,-9.6 111.6,6 67.2,6 54,3.6 -118.8,9.6 -100.8,9.6 -99.601,2.4 -86.398,13.2 -105.602,22.8 -96,28.8 -63.597,27.6 -44.403,30 -36,12 -32.398,3.6 -69.602,-9.6 -54,-19.2 -22.801,-16.8 -13.199,-21.6 -2.398,-6 0,-26.4 15.597,-25.2 19.204,-6 19.199,-7.2 34.801,-8.4 38.398,0 22.801,8.4 19.199,3.6 9.602,-15.6 2.398,-28.8 -34.801,-42 -57.597,-42 -54,-50.4 -25.204,-34.8 -19.199,-28.8 -9.597,-51.6 6,-28.802 38.398,-57.597 99.602,-108 60,-55.199 70.796,-50.403 102,-45.597 61.204,-88.801 63.597,-74.403 42,-44.398 12,-28.801 19.199,-207.597 0,-134.403 -6,-21.5974 L 819.602,74.3984 682.801,55.1992 673.199,51.6016 654,48 l -9.602,-12 0,-19.1992 19.204,9.5976 21.597,-6" inkscape:connector-curvature="0" id="path16" style="stroke:#000000;stroke-width:8;stroke-miterlimit:4;stroke-dasharray:none;fill:none;stroke-opacity:1"/>
      <path d="M 778.801,55.1992 698.398,42 685.199,32.3984 688.801,16.8008 714,30 733.199,16.8008 861.602,32.3984 960,16.8008 l 3.602,15.5976 -6,15.6016 -26.403,7.1992 -28.801,9.6016 -8.398,3.5976 -9.602,19.2032 -3.597,328.7964 6,38.403 0,13.199 -21.602,42 -22.801,37.199 L 769.199,666" inkscape:connector-curvature="0" id="path18" style="stroke:#000000;stroke-width:8;stroke-miterlimit:4;stroke-dasharray:none;fill:none;stroke-opacity:1"/>
      <path d="m 796.801,630 116.398,-12 94.801,3.602 122.4,12 60,-54 74.4,-67.204 34.8,-2.398 34.8,8.398 38.4,32.403 6,25.199 -76.8,80.398" inkscape:connector-curvature="0" id="path20" style="stroke:#000000;stroke-width:8;stroke-miterlimit:4;stroke-dasharray:none;fill:none;stroke-opacity:1"/>
      <path d="M 292.801,1384.8 14.3984,1215.6 333.602,1321.2" inkscape:connector-curvature="0" id="path22" style="stroke:#000000;stroke-width:8;stroke-miterlimit:4;stroke-dasharray:none;fill:none;stroke-opacity:1"/>
      <path d="M 295.199,1340.4 14.3984,1215.6" inkscape:connector-curvature="0" id="path24" style="stroke:#000000;stroke-width:8;stroke-miterlimit:4;stroke-dasharray:none;fill:none;stroke-opacity:1"/>
      <path d="m 356.398,1392 -15.597,-9.6 8.398,-15.6 16.801,6 -6,12" inkscape:connector-curvature="0" id="path26" style="stroke:#000000;stroke-width:8;stroke-miterlimit:4;stroke-dasharray:none;fill:none;stroke-opacity:1"/>
      <path d="m 970.801,45.6016 25.199,-6 12,-9.6016 3.6,-7.1992 -15.6,-6 -22.801,3.5976" inkscape:connector-curvature="0" id="path28" style="stroke:#000000;stroke-width:8;stroke-miterlimit:4;stroke-dasharray:none;fill:none;stroke-opacity:1"/>
      <path d="M 490.801,764.398 558,637.199 634.801,522 l 6,-28.801 L 433.199,118.801 423.602,103.199 414,87.6016 l -22.801,-6 L 314.398,68.3984 264,58.8008 244.801,48 231.602,45.6016 212.398,42 l -6,-6 -6,-15.6016 19.204,9.6016 21.597,-9.6016" inkscape:connector-curvature="0" id="path30" style="stroke:#000000;stroke-width:8;stroke-miterlimit:4;stroke-dasharray:none;fill:none;stroke-opacity:1"/>
      <path d="M 277.199,39.6016 264,39.6016 248.398,36 l -7.199,-13.1992 7.199,-2.4024 18,6" inkscape:connector-curvature="0" id="path32" style="stroke:#000000;stroke-width:8;stroke-miterlimit:4;stroke-dasharray:none;fill:none;stroke-opacity:1"/>
      <path d="M 279.602,42 302.398,48 354,51.6016" inkscape:connector-curvature="0" id="path34" style="stroke:#000000;stroke-width:8;stroke-miterlimit:4;stroke-dasharray:none;fill:none;stroke-opacity:1"/>
      <path d="M 270,26.3984 295.199,16.8008 414,30 l 19.199,2.3984 96,-15.5976 2.403,15.5976 L 529.199,48 500.398,55.1992 462,68.3984" inkscape:connector-curvature="0" id="path36" style="stroke:#000000;stroke-width:8;stroke-miterlimit:4;stroke-dasharray:none;fill:none;stroke-opacity:1"/>
      <path d="M 458.398,70.8008 454.801,87.6016 654,416.398 l 48,86.403 0,28.801 -36,121.199" inkscape:connector-curvature="0" id="path38" style="stroke:#000000;stroke-width:8;stroke-miterlimit:4;stroke-dasharray:none;fill:none;stroke-opacity:1"/>
      <path d="m 538.801,45.6016 21.597,-6 13.204,-9.6016 3.597,-7.1992 -16.801,-6 -21.597,3.5976" inkscape:connector-curvature="0" id="path40" style="stroke:#000000;stroke-width:8;stroke-miterlimit:4;stroke-dasharray:none;fill:none;stroke-opacity:1"/>
      <path d="m 1585.2,828 285.6,276" inkscape:connector-curvature="0" id="path42" style="stroke:#000000;stroke-width:8;stroke-miterlimit:4;stroke-dasharray:none;fill:none;stroke-opacity:1"/>
      <path d="M 1482,868.801 1833.6,1206" inkscape:connector-curvature="0" id="path44" style="stroke:#000000;stroke-width:8;stroke-miterlimit:4;stroke-dasharray:none;fill:none;stroke-opacity:1"/>
      <path d="M 1412.4,940.801 1765.2,1278" inkscape:connector-curvature="0" id="path46" style="stroke:#000000;stroke-width:8;stroke-miterlimit:4;stroke-dasharray:none;fill:none;stroke-opacity:1"/>
      <path d="M 1377.6,1045.2 1660.8,1314" inkscape:connector-curvature="0" id="path48" style="stroke:#000000;stroke-width:8;stroke-miterlimit:4;stroke-dasharray:none;fill:none;stroke-opacity:1"/>
      <path d="m 1728,1298.4 -24,6 -24,9.6 -26.4,3.6 -26.4,0 -28.8,-2.4 -24,-1.2 -26.4,-9.6 -24,-8.4 -25.2,-10.8 -21.6,-15.6 -18,-15.6 -18,-18 -13.2,-15.6 -12,-19.2 -15.6,-28.8 -7.2,-22.8 -6,-22.8 -4.8,-25.2 -4.8,-28.8 0,-24 4.8,-28.8 7.2,-24 6,-21.602 10.8,-25.199 6,-13.199 9.6,-9.602 21.6,-25.199 22.8,-21.597 19.2,-15.602 25.2,-13.199 26.4,-13.199 25.2,-6 22.8,-7.204 26.4,0 26.4,-2.398 31.2,4.801 21.6,4.801 26.4,9.597 26.4,14.403 18,8.398 19.2,18 20.4,16.801 19.2,20.398 15.6,24 15.6,21.602 10.8,22.801 7.2,26.398 1.2,24 4.8,28.8 -2.4,24 -2.4,28.8 -6,24 -8.4,21.6 -10.8,28.8 -15.6,22.8 -15.6,18 -18,21.6 -21.6,15.6 -21.6,14.4 -25.2,12" inkscape:connector-curvature="0" id="path50" style="stroke:#000000;stroke-width:8;stroke-miterlimit:4;stroke-dasharray:none;fill:none;stroke-opacity:1"/>
      <path d="m 3321.6,1442.4 34.8,-12 42,-26.4 45.6,-44.4 12,-51.6 6,-31.2 0,-51.6 -15.6,-54 -22.8,-48 -28.8,-28.8 -34.8,-19.2 -38.4,-13.2 -1058.4,0 -73.2,3.6 -42,19.2 -31.2,21.6 -32.4,48 -15.6,45.6 -6,40.8 6,48 9.6,48 21.6,38.4 36,34.8 44.4,26.4 32.4,6 1108.8,0 -28.8,-48 -22.8,-44.4 -8.4,-48 -3.6,-45.6 3.6,-48 12,-48 19.2,-46.8 28.8,-45.6 -48,26.4 -115.2,37.2 -88.8,26.4 -96,19.2 -86.4,22.8 -122.4,2.4 -56.4,0 -118.8,-12 -92.4,-22.8 -76.8,-19.2 -109.2,-38.4 -102,-42" inkscape:connector-curvature="0" id="path52" style="stroke:#000000;stroke-width:8;stroke-miterlimit:4;stroke-dasharray:none;fill:none;stroke-opacity:1"/>
      <path d="m 3315.6,1442.4 -109.2,-48 -98.4,-34.8 -76.8,-19.2 -86.4,-22.8 -109.2,-6 -73.2,-6 -124.8,8.4 -102,16.8 -90,22.8 -80.4,21.6 -114,38.4 -45.6,22.8 28.8,-42 19.2,-44.4 9.6,-48 3.6,-45.6 -3.6,-48 -9.6,-48 -19.2,-46.8 -28.8,-45.6" inkscape:connector-curvature="0" id="path54" style="stroke:#000000;stroke-width:8;stroke-miterlimit:4;stroke-dasharray:none;fill:none;stroke-opacity:1"/>
      <path d="m 2052,760.801 0,-732.0002 129.6,0 0,732.0002 -129.6,0" inkscape:connector-curvature="0" id="path56" style="stroke:#000000;stroke-width:8;stroke-miterlimit:4;stroke-dasharray:none;fill:none;stroke-opacity:1"/>
      <path d="m 2702.4,760.801 0,-732.0002 134.4,0 0,732.0002 -134.4,0" inkscape:connector-curvature="0" id="path58" style="stroke:#000000;stroke-width:8;stroke-miterlimit:4;stroke-dasharray:none;fill:none;stroke-opacity:1"/>
      <path d="m 3361.2,760.801 0,-732.0002 129.6,0 0,732.0002 -129.6,0" inkscape:connector-curvature="0" id="path60" style="stroke:#000000;stroke-width:8;stroke-miterlimit:4;stroke-dasharray:none;fill:none;stroke-opacity:1"/>
    </g>
  </g>
</svg>
