<?xml version="1.0" encoding="UTF-8"?>
<!-- Created with Inkscape (http://www.inkscape.org/) -->
<svg xmlns:dc="http://purl.org/dc/elements/1.1/" xmlns:cc="http://creativecommons.org/ns#" xmlns:rdf="http://www.w3.org/1999/02/22-rdf-syntax-ns#" xmlns:svg="http://www.w3.org/2000/svg" xmlns="http://www.w3.org/2000/svg" xmlns:inkscape="http://www.inkscape.org/namespaces/inkscape" version="1.1" width="765" height="990" id="svg2" xml:space="preserve">
  <metadata id="metadata8">
    <rdf:RDF>
      <cc:Work rdf:about="">
        <dc:format>image/svg+xml</dc:format>
        <dc:type rdf:resource="http://purl.org/dc/dcmitype/StillImage"/>
      </cc:Work>
    </rdf:RDF>
  </metadata>
  <defs id="defs6"/>
  <g transform="matrix(1.25,0,0,-1.25,0,990)" id="g10">
    <g transform="scale(0.1,0.1)" id="g12">
      <path d="m 306,938.398 752.4,0 0,-30 30,-4.796 46.8,-15.602 32.4,-19.199 42,-30 37.2,-39.602 34.8,-46.801 24,-46.796 22.8,-60 15.6,-58.801 7.2,-99.602 -7.2,-51.597 -22.8,-58.801 -27.6,-27.602 -21.6,-4.801 -34.8,2.403 -27.6,21.597 -12,27.602 -4.8,30 -2.4,21.602 7.2,76.796 9.6,84 -7.2,87.602 -22.8,61.199 -31.2,49.199 -32.4,37.204 -37.2,15.597 -18,0 0,-27.597 -98.4,0 0,-51.602 -146.398,0 0,51.602 -267.602,0 0,-51.602 -140.398,0 0,51.602 -99.602,0" inkscape:connector-curvature="0" id="path14" style="stroke:#000000;stroke-width:8;stroke-miterlimit:4;stroke-dasharray:none;fill:none;stroke-opacity:1"/>
      <path d="m 350.398,938.398 97.204,472.802 16.796,28.8 13.204,10.8 14.398,4.8 22.801,0 21.597,-12 4.801,-14.4 0,-18" inkscape:connector-curvature="0" id="path16" style="stroke:#000000;stroke-width:8;stroke-miterlimit:4;stroke-dasharray:none;fill:none;stroke-opacity:1"/>
      <path d="m 445.199,938.398 98.403,475.202 13.199,21.6 12,13.2 22.801,4.8 21.597,-7.2 12,-10.8 8.403,-14.4" inkscape:connector-curvature="0" id="path18" style="stroke:#000000;stroke-width:8;stroke-miterlimit:4;stroke-dasharray:none;fill:none;stroke-opacity:1"/>
      <path d="m 534,938.398 96,472.802 10.801,21.6 16.801,15.6 19.199,2.4 22.801,-2.4 18,-15.6 4.796,-19.2" inkscape:connector-curvature="0" id="path20" style="stroke:#000000;stroke-width:8;stroke-miterlimit:4;stroke-dasharray:none;fill:none;stroke-opacity:1"/>
      <path d="M 622.801,938.398 720,1406.4 l 14.398,26.4 16.801,15.6 30,2.4 10.801,-2.4 14.398,-10.8 7.204,-24" inkscape:connector-curvature="0" id="path22" style="stroke:#000000;stroke-width:8;stroke-miterlimit:4;stroke-dasharray:none;fill:none;stroke-opacity:1"/>
      <path d="m 717.602,938.398 93.597,465.602 9.602,25.2 9.597,14.4 22.801,9.6 27.602,-4.8 19.199,-13.2 7.199,-16.8" inkscape:connector-curvature="0" id="path24" style="stroke:#000000;stroke-width:8;stroke-miterlimit:4;stroke-dasharray:none;fill:none;stroke-opacity:1"/>
      <path d="m 813.602,938.398 88.796,463.202 8.403,24 14.398,20.4 25.199,4.8 3.602,2.4 22.801,-9.6 15.597,-14.4 0,-15.6" inkscape:connector-curvature="0" id="path26" style="stroke:#000000;stroke-width:8;stroke-miterlimit:4;stroke-dasharray:none;fill:none;stroke-opacity:1"/>
      <path d="m 897.602,938.398 94.796,477.602 9.602,19.2 12,13.2 14.4,2.4 22.8,0 20.4,-7.2 9.6,-14.4 4.8,-25.2 -96,-465.602 -684,0 L 306,906 271.199,901.199 224.398,885.602 189.602,866.398 150,834 l -37.199,-39.602 -56.4026,-96 -16.7968,-57.597 -18,-58.801 -7.2032,-99.602 7.2032,-51.597 25.1992,-56.403 26.3984,-27.597 20.4024,-4.801 34.7964,2.398 30,21.602 9.602,27.602 4.801,30 2.398,21.597 L 168,522 l -12,84 7.199,84 19.199,62.398 32.403,51.602 32.398,37.199 34.801,15.602 24,2.398 0,-22.801" inkscape:connector-curvature="0" id="path28" style="stroke:#000000;stroke-width:8;stroke-miterlimit:4;stroke-dasharray:none;fill:none;stroke-opacity:1"/>
      <path d="m 558,489.602 -9.602,25.199 -20.398,38.398 -12,20.403 333.602,0 L 830.398,538.801 814.801,504 810,489.602" inkscape:connector-curvature="0" id="path30" style="stroke:#000000;stroke-width:8;stroke-miterlimit:4;stroke-dasharray:none;fill:none;stroke-opacity:1"/>
      <path d="m 518.398,393.602 -76.796,42 -16.801,-60 39.597,-30 26.403,-19.204 L 528,286.801" inkscape:connector-curvature="0" id="path32" style="stroke:#000000;stroke-width:8;stroke-miterlimit:4;stroke-dasharray:none;fill:none;stroke-opacity:1"/>
      <path d="m 849.602,393.602 74.398,42 20.398,-62.403 -34.796,-20.398 -39.602,-36 -27.602,-30" inkscape:connector-curvature="0" id="path34" style="stroke:#000000;stroke-width:8;stroke-miterlimit:4;stroke-dasharray:none;fill:none;stroke-opacity:1"/>
      <path d="m 572.398,316.801 4.801,14.398 L 588,348 l 14.398,18 20.403,16.801 33.597,13.199 22.801,2.398 27.602,-2.398 28.801,-10.801 25.199,-14.398 13.199,-18 10.801,-14.403 L 795.602,312 756,336 l -30,9.602 -24,7.199 -20.398,2.398 -25.204,-4.801 -24,-4.796 -30,-14.403 L 582,316.801 572.398,312" inkscape:connector-curvature="0" id="path36" style="stroke:#000000;stroke-width:8;stroke-miterlimit:4;stroke-dasharray:none;fill:none;stroke-opacity:1"/>
      <path d="m 588,51.6016 39.602,160.7964 16.796,22.801 16.801,7.199 20.403,4.801 L 708,242.398 728.398,226.801 738,210 780,49.1992" inkscape:connector-curvature="0" id="path38" style="stroke:#000000;stroke-width:8;stroke-miterlimit:4;stroke-dasharray:none;fill:none;stroke-opacity:1"/>
      <path d="M 686.398,16.8008 649.199,19.1992 632.398,24 618,26.3984 592.801,39.6016 574.801,61.1992 560.398,84 l -9.597,24 -7.199,30 -10.801,39.602 -14.403,207.597 2.403,37.199 4.801,18 2.398,14.403 13.199,20.398 14.403,14.403 24,14.398 22.796,8.398 20.403,2.403 58.801,4.801 69.597,-4.801 L 780,510 l 25.199,-15.602 15.602,-9.597 12,-19.199 12,-40.801 2.398,-31.199 -12,-181.204 -4.801,-49.199 L 814.801,108 805.199,84 790.801,58.8008 780,46.8008 765.602,33.6016 748.801,24 726,19.1992 686.398,16.8008" inkscape:connector-curvature="0" id="path40" style="stroke:#000000;stroke-width:8;stroke-miterlimit:4;stroke-dasharray:none;fill:none;stroke-opacity:1"/>
      <path d="m 1592.4,1132.8 0,184.8 1261.2,0 0,-184.8 -1261.2,0" inkscape:connector-curvature="0" id="path42" style="stroke:#000000;stroke-width:8;stroke-miterlimit:4;stroke-dasharray:none;fill:none;stroke-opacity:1"/>
      <path d="m 1969.2,1459.2 147.6,-141.6" inkscape:connector-curvature="0" id="path44" style="stroke:#000000;stroke-width:8;stroke-miterlimit:4;stroke-dasharray:none;fill:none;stroke-opacity:1"/>
      <path d="M 2476.8,1459.2 2330.4,1317.6" inkscape:connector-curvature="0" id="path46" style="stroke:#000000;stroke-width:8;stroke-miterlimit:4;stroke-dasharray:none;fill:none;stroke-opacity:1"/>
      <path d="m 2110.8,1317.6 6,31.2 10.8,26.4 19.2,25.2 14.4,10.8 22.8,14.4 31.2,2.4 21.6,0 22.8,-2.4 19.2,-10.8 20.4,-16.8 14.4,-20.4 8.4,-19.2 4.8,-40.8" inkscape:connector-curvature="0" id="path48" style="stroke:#000000;stroke-width:8;stroke-miterlimit:4;stroke-dasharray:none;fill:none;stroke-opacity:1"/>
      <path d="m 1600.8,661.199 0,-640.8006 115.2,0 0,640.8006 -115.2,0" inkscape:connector-curvature="0" id="path50" style="stroke:#000000;stroke-width:8;stroke-miterlimit:4;stroke-dasharray:none;fill:none;stroke-opacity:1"/>
      <path d="m 2170.8,661.199 0,-640.8006 118.8,0 0,640.8006 -118.8,0" inkscape:connector-curvature="0" id="path52" style="stroke:#000000;stroke-width:8;stroke-miterlimit:4;stroke-dasharray:none;fill:none;stroke-opacity:1"/>
      <path d="m 2748,661.199 0,-640.8006 115.2,0 0,640.8006 -115.2,0" inkscape:connector-curvature="0" id="path54" style="stroke:#000000;stroke-width:8;stroke-miterlimit:4;stroke-dasharray:none;fill:none;stroke-opacity:1"/>
    </g>
  </g>
</svg>
