<?xml version="1.0" encoding="UTF-8"?>
<!-- Created with Inkscape (http://www.inkscape.org/) -->
<svg xmlns:dc="http://purl.org/dc/elements/1.1/" xmlns:cc="http://creativecommons.org/ns#" xmlns:rdf="http://www.w3.org/1999/02/22-rdf-syntax-ns#" xmlns:svg="http://www.w3.org/2000/svg" xmlns="http://www.w3.org/2000/svg" xmlns:inkscape="http://www.inkscape.org/namespaces/inkscape" version="1.1" width="765" height="990" id="svg2" xml:space="preserve">
  <metadata id="metadata8">
    <rdf:RDF>
      <cc:Work rdf:about="">
        <dc:format>image/svg+xml</dc:format>
        <dc:type rdf:resource="http://purl.org/dc/dcmitype/StillImage"/>
      </cc:Work>
    </rdf:RDF>
  </metadata>
  <defs id="defs6"/>
  <g transform="matrix(1.25,0,0,-1.25,0,990)" id="g10">
    <g transform="scale(0.1,0.1)" id="g12">
      <path d="m 394.801,856.801 15.597,0 9.602,3.597 16.801,12 2.398,9.602 3.602,16.801 -6,15.597 -7.199,12 -13.204,10.801 -15.597,2.403 -19.199,-2.403 -13.204,-3.597 L 360,920.398 352.801,898.801 356.398,879.602 366,870 l 9.602,-13.199 9.597,0 9.602,-2.403" inkscape:connector-curvature="0" id="path14" style="stroke:#000000;stroke-width:8;stroke-miterlimit:4;stroke-dasharray:none;fill:none;stroke-opacity:1"/>
      <path d="m 650.398,997.199 -13.199,26.401 -15.597,25.2 -15.602,25.2 -20.398,16.8 -21.602,21.6 -21.602,16.8 -26.398,12 -25.199,9.6 -28.801,13.2 -28.801,2.4 -28.801,3.6 -25.199,-3.6 -26.398,-2.4 -25.199,-3.6 -25.204,-9.6 -28.796,-13.2 -25.204,-12 -22.796,-16.8 -26.403,-21.6 -15.597,-19.2 -19.204,-25.2 -13.199,-22.8 -12,-25.199 -7.199,-26.403 -9.602,-34.796 0,-63.602 7.204,-32.398 6,-32.403 13.199,-25.199 12,-25.199 16.801,-22.801 21.597,-22.801 15.602,-18 30,-19.199 19.199,-16.801 31.199,-9.597 30,-9.602 21.602,-9.602 92.398,0 28.801,6 28.801,7.204 22.801,9.597 25.199,15.602 L 570,684 l 19.199,19.199 19.199,19.199 19.204,28.801 L 640.801,774 654,799.199 660,828 l 9.602,28.801 3.597,25.199 0,32.398 -3.597,28.801 L 660,972 l -6,25.199" inkscape:connector-curvature="0" id="path16" style="stroke:#000000;stroke-width:8;stroke-miterlimit:4;stroke-dasharray:none;fill:none;stroke-opacity:1"/>
      <path d="m 794.398,25.1992 -240,643.1988" inkscape:connector-curvature="0" id="path18" style="stroke:#000000;stroke-width:8;stroke-miterlimit:4;stroke-dasharray:none;fill:none;stroke-opacity:1"/>
      <path d="m 404.398,19.1992 0,603.6018" inkscape:connector-curvature="0" id="path20" style="stroke:#000000;stroke-width:8;stroke-miterlimit:4;stroke-dasharray:none;fill:none;stroke-opacity:1"/>
      <path d="M 14.3984,25.1992 241.199,664.801" inkscape:connector-curvature="0" id="path22" style="stroke:#000000;stroke-width:8;stroke-miterlimit:4;stroke-dasharray:none;fill:none;stroke-opacity:1"/>
      <path d="m 963.602,975.602 25.199,21.597 40.799,15.601 74.4,32.4 82.8,25.2 92.4,26.4 138,31.2 117.6,13.2 93.6,12 105.6,7.2 94.8,-7.2 112.8,-6 108,-12 103.2,-22.8 88.8,-22.8 82.8,-25.2 84,-25.2 63.6,-26.4 25.2,-12 19.2,-22.8 3.6,-2.398 -22.8,-22.801 L 2436,914.398 2318.4,870 2203.2,834 2076,805.199 l -96,-9.597 -103.2,-13.204 -134.4,-6 -85.2,6 -93.6,7.204 -82.8,6 -121.2,19.199 -134.4,32.398 -96,31.199 -88.8,38.403 -57.599,32.398 -19.199,26.403" inkscape:connector-curvature="0" id="path24" style="stroke:#000000;stroke-width:8;stroke-miterlimit:4;stroke-dasharray:none;fill:none;stroke-opacity:1"/>
      <path d="m 2751.6,1176 0,-574.801 127.2,0 0,574.801 -127.2,0" inkscape:connector-curvature="0" id="path26" style="stroke:#000000;stroke-width:8;stroke-miterlimit:4;stroke-dasharray:none;fill:none;stroke-opacity:1"/>
    </g>
  </g>
</svg>
