<?xml version="1.0" encoding="UTF-8"?>
<!-- Created with Inkscape (http://www.inkscape.org/) -->
<svg xmlns:dc="http://purl.org/dc/elements/1.1/" xmlns:cc="http://creativecommons.org/ns#" xmlns:rdf="http://www.w3.org/1999/02/22-rdf-syntax-ns#" xmlns:svg="http://www.w3.org/2000/svg" xmlns="http://www.w3.org/2000/svg" xmlns:inkscape="http://www.inkscape.org/namespaces/inkscape" version="1.1" width="765" height="990" id="svg2" xml:space="preserve">
  <metadata id="metadata8">
    <rdf:RDF>
      <cc:Work rdf:about="">
        <dc:format>image/svg+xml</dc:format>
        <dc:type rdf:resource="http://purl.org/dc/dcmitype/StillImage"/>
      </cc:Work>
    </rdf:RDF>
  </metadata>
  <defs id="defs6"/>
  <g transform="matrix(1.25,0,0,-1.25,0,990)" id="g10">
    <g transform="scale(0.1,0.1)" id="g12">
      <path d="m 2691.6,1461.6 34.8,-12 42,-25.2 44.4,-45.6 13.2,-51.6 6,-31.2 0,-51.6 -15.6,-54 -22.8,-48 -28.8,-28.8 -34.8,-19.2 -38.4,-13.2 -1058.4,0 -73.2,3.6 -40.8,19.2 -32.4,21.6 -31.2,48 -16.8,45.6 -6,40.8 6,48 9.6,48 22.8,38.4 34.8,36 44.4,25.2 32.4,6 1108.8,0 -28.8,-48 -22.8,-44.4 -8.4,-48 -3.6,-44.4 3.6,-48 12,-48 19.2,-48 28.8,-44.4 -48,25.2 -115.2,38.4 -88.8,25.2 -96,19.2 -86.4,22.8 -121.2,2.4 -57.6,0 -118.8,-12 -92.4,-22.8 -76.8,-19.2 -109.2,-38.4 -102,-40.8" inkscape:connector-curvature="0" id="path14" style="stroke:#000000;stroke-width:8;stroke-miterlimit:4;stroke-dasharray:none;fill:none;stroke-opacity:1"/>
      <path d="m 2685.6,1461.6 -109.2,-48 -98.4,-34.8 -76.8,-19.2 -86.4,-22.8 -109.2,-6 -73.2,-6 -124.8,9.6 -102,15.6 -90,22.8 -79.2,21.6 -115.2,38.4 -45.6,22.8 28.8,-42 20.4,-44.4 8.4,-48 3.6,-44.4 -3.6,-48 -8.4,-48 -20.4,-48 -28.8,-44.4" inkscape:connector-curvature="0" id="path16" style="stroke:#000000;stroke-width:8;stroke-miterlimit:4;stroke-dasharray:none;fill:none;stroke-opacity:1"/>
      <path d="m 241.199,1052.4 584.403,0 0,-21.6 22.796,-4.8 37.204,-10.8 24,-15.598 32.398,-24 30,-30 26.398,-37.204 19.202,-36 16.8,-46.796 12,-45.602 6,-76.801 -6,-40.801 -16.8,-46.796 -21.6,-20.403 -16.801,-3.597 -27.597,1.199 -21.602,18 -8.398,20.398 -3.602,24 -2.398,16.801 6,60 7.199,64.801 -6,68.398 -16.801,48 -25.199,37.199 -25.199,28.801 -28.801,12 -13.199,0 0,-20.398 -76.801,0 0,-40.801 -112.801,0 0,40.801 -208.801,0 0,-40.801 -109.199,0 0,40.801 -76.801,0" inkscape:connector-curvature="0" id="path18" style="stroke:#000000;stroke-width:8;stroke-miterlimit:4;stroke-dasharray:none;fill:none;stroke-opacity:1"/>
      <path d="m 276,1052.4 74.398,368.4 13.204,22.8 10.796,8.4 10.801,3.6 18,0 16.801,-9.6 3.602,-12 0,-13.2" inkscape:connector-curvature="0" id="path20" style="stroke:#000000;stroke-width:8;stroke-miterlimit:4;stroke-dasharray:none;fill:none;stroke-opacity:1"/>
      <path d="m 349.199,1052.4 76.801,370.8 9.602,16.8 9.597,9.6 16.801,3.6 16.801,-6 10.801,-7.2 4.796,-12" inkscape:connector-curvature="0" id="path22" style="stroke:#000000;stroke-width:8;stroke-miterlimit:4;stroke-dasharray:none;fill:none;stroke-opacity:1"/>
      <path d="m 418.801,1052.4 74.398,368.4 7.199,16.8 14.403,12 14.398,2.4 18,-2.4 13.199,-12 3.602,-14.4" inkscape:connector-curvature="0" id="path24" style="stroke:#000000;stroke-width:8;stroke-miterlimit:4;stroke-dasharray:none;fill:none;stroke-opacity:1"/>
      <path d="m 487.199,1052.4 75.602,364.8 10.801,20.4 13.199,12 24,2.4 7.199,-2.4 10.801,-7.2 7.199,-19.2" inkscape:connector-curvature="0" id="path26" style="stroke:#000000;stroke-width:8;stroke-miterlimit:4;stroke-dasharray:none;fill:none;stroke-opacity:1"/>
      <path d="m 560.398,1052.4 73.204,362.4 7.199,19.2 7.199,12 18,7.2 21.602,-3.6 14.398,-9.6 6,-13.2" inkscape:connector-curvature="0" id="path28" style="stroke:#000000;stroke-width:8;stroke-miterlimit:4;stroke-dasharray:none;fill:none;stroke-opacity:1"/>
      <path d="m 636,1052.4 68.398,360 6,19.2 10.801,15.6 19.199,4.8 4.801,1.2 16.801,-7.2 12,-12 0,-10.8" inkscape:connector-curvature="0" id="path30" style="stroke:#000000;stroke-width:8;stroke-miterlimit:4;stroke-dasharray:none;fill:none;stroke-opacity:1"/>
      <path d="m 700.801,1052.4 73.199,372 7.199,15.6 9.602,9.6 12,2.4 16.801,0 15.597,-6 7.199,-12 3.602,-19.2 -74.398,-362.4 -530.403,0 0,-24 -27.597,-4.8 -36,-10.8 L 151.199,997.199 120,972 91.1992,942 46.8008,866.398 33.6016,822 20.3984,776.398 l -6,-76.796 6,-40.801 L 39.6016,614.398 60,592.801 l 15.6016,-3.602 27.5974,2.403 22.801,16.796 7.199,21.602 3.602,22.801 2.398,18 -6,58.801 -9.597,66 6,66 15.597,46.796 24,40.801 25.199,28.801 27.602,12 19.199,1.199 0,-16.801" inkscape:connector-curvature="0" id="path32" style="stroke:#000000;stroke-width:8;stroke-miterlimit:4;stroke-dasharray:none;fill:none;stroke-opacity:1"/>
      <path d="m 208.801,454.801 -24,-12 -16.801,-20.403 -6,-18 -3.602,-16.796 6,-27.602 13.204,-16.801 14.398,-12 22.801,-7.199 16.801,-6 21.597,0 22.801,9.602 19.199,9.597 10.801,13.199 14.398,19.204 9.602,24 6,19.199 1.199,18 L 336,445.199 331.199,468 321.602,487.199 306,506.398 l -14.398,13.204 -14.403,6 -12,6 -20.398,2.398 -15.602,1.199 -19.199,0 L 187.199,534 162,525.602 l -20.398,-10.801 -13.204,-12 -15.597,-13.199 -12,-14.403 L 88.8008,454.801 78,433.199 74.3984,414 70.8008,387.602 68.3984,360 70.8008,339.602 72,308.398 84,277.199 100.801,243.602 132,202.801 180,156 249.602,100.801 398.398,15.6016" inkscape:connector-curvature="0" id="path34" style="stroke:#000000;stroke-width:8;stroke-miterlimit:4;stroke-dasharray:none;fill:none;stroke-opacity:1"/>
      <path d="m 596.398,439.199 154.801,-346.8006 76.801,0 -153.602,346.8006 -78,0" inkscape:connector-curvature="0" id="path36" style="stroke:#000000;stroke-width:8;stroke-miterlimit:4;stroke-dasharray:none;fill:none;stroke-opacity:1"/>
      <path d="m 829.199,439.199 153.602,-346.8006 77.999,0 -154.8,346.8006 -76.801,0" inkscape:connector-curvature="0" id="path38" style="stroke:#000000;stroke-width:8;stroke-miterlimit:4;stroke-dasharray:none;fill:none;stroke-opacity:1"/>
      <path d="m 1542,600 0,-576 103.2,0 0,576 -103.2,0" inkscape:connector-curvature="0" id="path40" style="stroke:#000000;stroke-width:8;stroke-miterlimit:4;stroke-dasharray:none;fill:none;stroke-opacity:1"/>
      <path d="m 2053.2,600 0,-576 105.6,0 0,576 -105.6,0" inkscape:connector-curvature="0" id="path42" style="stroke:#000000;stroke-width:8;stroke-miterlimit:4;stroke-dasharray:none;fill:none;stroke-opacity:1"/>
      <path d="m 2571.6,600 0,-576 102,0 0,576 -102,0" inkscape:connector-curvature="0" id="path44" style="stroke:#000000;stroke-width:8;stroke-miterlimit:4;stroke-dasharray:none;fill:none;stroke-opacity:1"/>
    </g>
  </g>
</svg>
