<?xml version="1.0" encoding="UTF-8"?>
<!-- Created with Inkscape (http://www.inkscape.org/) -->
<svg xmlns:dc="http://purl.org/dc/elements/1.1/" xmlns:cc="http://creativecommons.org/ns#" xmlns:rdf="http://www.w3.org/1999/02/22-rdf-syntax-ns#" xmlns:svg="http://www.w3.org/2000/svg" xmlns="http://www.w3.org/2000/svg" xmlns:inkscape="http://www.inkscape.org/namespaces/inkscape" version="1.1" width="765" height="990" id="svg2" xml:space="preserve">
  <metadata id="metadata8">
    <rdf:RDF>
      <cc:Work rdf:about="">
        <dc:format>image/svg+xml</dc:format>
        <dc:type rdf:resource="http://purl.org/dc/dcmitype/StillImage"/>
      </cc:Work>
    </rdf:RDF>
  </metadata>
  <defs id="defs6"/>
  <g transform="matrix(1.25,0,0,-1.25,0,990)" id="g10">
    <g transform="scale(0.1,0.1)" id="g12">
      <path d="m 1525.2,1140 1443.6,0 0,362.4 -1443.6,0 0,-362.4" inkscape:connector-curvature="0" id="path14" style="stroke:#000000;stroke-width:8;stroke-miterlimit:4;stroke-dasharray:none;fill:none;stroke-opacity:1"/>
      <path d="M 1916.4,1502.4 2134.8,1140" inkscape:connector-curvature="0" id="path16" style="stroke:#000000;stroke-width:8;stroke-miterlimit:4;stroke-dasharray:none;fill:none;stroke-opacity:1"/>
      <path d="M 2144.4,1502.4 2359.2,1140" inkscape:connector-curvature="0" id="path18" style="stroke:#000000;stroke-width:8;stroke-miterlimit:4;stroke-dasharray:none;fill:none;stroke-opacity:1"/>
      <path d="M 2368.8,1502.4 2586,1140" inkscape:connector-curvature="0" id="path20" style="stroke:#000000;stroke-width:8;stroke-miterlimit:4;stroke-dasharray:none;fill:none;stroke-opacity:1"/>
      <path d="m 1495.2,235.199 26.4,24 42,16.801 75.6,32.398 86.4,26.403 96,26.398 141.6,32.403 121.2,13.199 96,13.199 109.2,7.199 98.4,-7.199 115.2,-6 112.8,-13.199 105.6,-24 92.4,-22.801 85.2,-26.398 86.4,-26.403 64.8,-25.199 26.4,-13.199 20.4,-24 2.4,-3.602 -22.8,-22.801 -62.4,-39.597 L 2893.2,127.199 2774.4,90 l -132,-30 -99.6,-8.3984 -105.6,-14.4024 -138,-6 -88.8,6 -96,7.1992 -85.2,7.2032 -126,19.1992 -138,32.3982 -98.4,33.602 -92.4,39.597 -60,32.403 -19.2,26.398" inkscape:connector-curvature="0" id="path22" style="stroke:#000000;stroke-width:8;stroke-miterlimit:4;stroke-dasharray:none;fill:none;stroke-opacity:1"/>
      <path d="m 3532.8,187.199 -30,-13.199 -42,2.398 -39.6,27.602 -26.4,49.199 -3.6,49.199 13.2,39.602 32.4,36 46.8,13.199 49.2,-9.597 39.6,-36 22.8,-52.801 -3.6,-43.199 -19.2,-36 -36,-30 0,3.597 75.6,-167.9998 -243.6,0 75.6,170.4028" inkscape:connector-curvature="0" id="path24" style="stroke:#000000;stroke-width:8;stroke-miterlimit:4;stroke-dasharray:none;fill:none;stroke-opacity:1"/>
      <path d="M 3398.4,242.398 3223.2,150 l 0,265.199 171.6,-92.398" inkscape:connector-curvature="0" id="path26" style="stroke:#000000;stroke-width:8;stroke-miterlimit:4;stroke-dasharray:none;fill:none;stroke-opacity:1"/>
      <path d="m 3589.2,318 168,86.398 0,-243.597 L 3591.6,240" inkscape:connector-curvature="0" id="path28" style="stroke:#000000;stroke-width:8;stroke-miterlimit:4;stroke-dasharray:none;fill:none;stroke-opacity:1"/>
      <path d="m 3417.6,364.801 -36,69.597 -7.2,145.204 122.4,686.398 16.8,75.6 22.8,72 32.4,52.8 52.8,30 46.8,6 45.6,0 82.8,-13.2 49.2,-30 49.2,-51.6 36,-90 13.2,-62.4 10.8,-88.8 -10.8,-201.599 -22.8,-200.403 -19.2,-403.199 6,-105.597 22.8,-102 37.2,-55.2036 L 4014,42" inkscape:connector-curvature="0" id="path30" style="stroke:#000000;stroke-width:8;stroke-miterlimit:4;stroke-dasharray:none;fill:none;stroke-opacity:1"/>
      <path d="m 3523.2,1360.8 9.6,-164.4 69.6,-567.599 3.6,-181.199 -20.4,-60 -22.8,-32.403" inkscape:connector-curvature="0" id="path32" style="stroke:#000000;stroke-width:8;stroke-miterlimit:4;stroke-dasharray:none;fill:none;stroke-opacity:1"/>
      <path d="m 734.398,1106.4 -72,7.2 -115.199,-7.2 -85.199,10.8 -26.398,-10.8 -20.403,-26.4 7.199,-45.6 32.403,-105.599 62.398,-102 L 722.398,583.199 828,483.602 979.199,342 1302,25.1992 l 32.4,0 L 1345.2,42 1332,70.8008 1192.8,387.602 l -19.2,60 L 1068,702 972,866.398 896.398,972 840,1047.6 l -45.602,72 -49.199,66 -60,69.6 -58.801,39.6 -16.796,69.6 -13.204,75.6 -19.199,49.2 -56.398,13.2 -92.403,0 -102,-2.4 -49.199,-13.2 -24,-7.2 L 85.1992,1456.8 36,1434 19.1992,1410 16.8008,1364.4 36,1396.8 l 33.6016,16.8 98.3984,0 102,-3.6 52.801,-13.2 -43.199,52.8 -9.602,37.2" inkscape:connector-curvature="0" id="path34" style="stroke:#000000;stroke-width:8;stroke-miterlimit:4;stroke-dasharray:none;fill:none;stroke-opacity:1"/>
      <path d="m 379.199,1417.2 9.602,3.6 6,15.6 -6,16.8 -13.199,10.8 -13.204,-10.8 -3.597,-19.2 7.199,-10.8 9.602,-6" inkscape:connector-curvature="0" id="path36" style="stroke:#000000;stroke-width:8;stroke-miterlimit:4;stroke-dasharray:none;fill:none;stroke-opacity:1"/>
      <path d="m 32.3984,1383.6 131.9996,3.6 102,-13.2 30,-15.6 10.801,-33.6 2.403,-36 -30,-73.2 -13.204,-88.8 16.801,-109.2 13.199,-49.202 36,-98.398 43.204,-80.398 102,-174 L 613.199,358.801 626.398,259.199 609.602,91.1992 592.801,74.3984 498,64.8008 385.199,68.3984 379.199,51.6016 330,44.3984 322.801,34.8008 332.398,21.6016 616.801,32.3984 909.602,19.1992 922.801,32.3984 916.801,48 870,48 l -26.398,22.8008 -168,3.5976 -20.403,13.2032 20.403,207.5974 122.398,-62.398 68.398,204 L 999.602,108 1045.2,48 l 45.6,-26.3984 69.6,0 39.6,13.1992 9.6,20.3984 L 1177.2,144" inkscape:connector-curvature="0" id="path38" style="stroke:#000000;stroke-width:8;stroke-miterlimit:4;stroke-dasharray:none;fill:none;stroke-opacity:1"/>
      <path d="M 358.801,813.602 402,572.398 399.602,387.602 366,200.398 336,104.398 316.801,81.6016 158.398,70.8008 141.602,48 105.602,44.3984 92.3984,34.8008 105.602,21.6016 228,32.3984 264,28.8008" inkscape:connector-curvature="0" id="path40" style="stroke:#000000;stroke-width:8;stroke-miterlimit:4;stroke-dasharray:none;fill:none;stroke-opacity:1"/>
      <path d="m 382.801,68.3984 -56.403,-6 0,0 L 294,55.1992 273.602,28.8008 286.801,21.6016 307.199,42 l 19.199,2.3984" inkscape:connector-curvature="0" id="path42" style="stroke:#000000;stroke-width:8;stroke-miterlimit:4;stroke-dasharray:none;fill:none;stroke-opacity:1"/>
      <path d="M 379.199,70.8008 451.199,342 564,276 586.801,398.398" inkscape:connector-curvature="0" id="path44" style="stroke:#000000;stroke-width:8;stroke-miterlimit:4;stroke-dasharray:none;fill:none;stroke-opacity:1"/>
      <path d="m 147.602,68.3984 -51.602,-6 0,0 L 62.3984,55.1992 42,28.8008 52.8008,21.6016 75.6016,42 102,44.3984" inkscape:connector-curvature="0" id="path46" style="stroke:#000000;stroke-width:8;stroke-miterlimit:4;stroke-dasharray:none;fill:none;stroke-opacity:1"/>
      <path d="m 850.801,70.8008 62.398,-6 30,-9.6016 19.199,-26.3984 -9.597,-7.1992 L 930,42 913.199,44.3984" inkscape:connector-curvature="0" id="path48" style="stroke:#000000;stroke-width:8;stroke-miterlimit:4;stroke-dasharray:none;fill:none;stroke-opacity:1"/>
    </g>
  </g>
</svg>
