<?xml version="1.0" encoding="UTF-8"?>
<!-- Created with Inkscape (http://www.inkscape.org/) -->
<svg xmlns:dc="http://purl.org/dc/elements/1.1/" xmlns:cc="http://creativecommons.org/ns#" xmlns:rdf="http://www.w3.org/1999/02/22-rdf-syntax-ns#" xmlns:svg="http://www.w3.org/2000/svg" xmlns="http://www.w3.org/2000/svg" xmlns:inkscape="http://www.inkscape.org/namespaces/inkscape" version="1.1" width="765" height="990" id="svg2" xml:space="preserve">
  <metadata id="metadata8">
    <rdf:RDF>
      <cc:Work rdf:about="">
        <dc:format>image/svg+xml</dc:format>
        <dc:type rdf:resource="http://purl.org/dc/dcmitype/StillImage"/>
      </cc:Work>
    </rdf:RDF>
  </metadata>
  <defs id="defs6"/>
  <g transform="matrix(1.25,0,0,-1.25,0,990)" id="g10">
    <g transform="scale(0.1,0.1)" id="g12">
      <path d="m 290.398,1034.4 39.602,-3.6 64.801,10.8 20.398,6 52.801,22.8 30,26.4 32.398,43.2 16.801,43.2 26.403,188.4 26.398,62.4 26.398,36 6,19.2 -6,7.2 -39.597,-32.4 -32.403,-60 -40.796,-164.4 -13.204,-63.6 -13.199,-19.2 -15.597,-22.8 -30,-24 -39.602,-16.8 -39.602,-6 -55.199,-3.6 -24,0 -43.199,7.2 -38.398,15.6 -46.801,40.8 -26.403,42 -9.597,63.6 -33.6018,154.8 -25.1992,58.8 -33.6016,36 -9.5976,0 0,-15.6 36,-63.6 L 69.6016,1344 96,1153.2 l 26.398,-43.2 38.403,-36 43.199,-26.4 26.398,-6 56.403,-7.2" inkscape:connector-curvature="0" id="path14" style="stroke:#000000;stroke-width:8;stroke-miterlimit:4;stroke-dasharray:none;fill:none;stroke-opacity:1"/>
      <path d="M 672,859.199 626.398,936 l -66,75.6 -46.796,32.4 -32.403,24 -86.398,38.4 -108,43.2 -49.199,49.2 -16.801,50.4 6,62.4 20.398,26.4 22.801,22.8 39.602,16.8 33.597,0 28.801,-13.2 20.398,-20.4 9.602,-15.6 9.602,-20.4 0,-26.4 -12,-26.4 -14.403,-13.2 -28.801,-2.4 -20.398,2.4 -9.602,24 6,13.2" inkscape:connector-curvature="0" id="path16" style="stroke:#000000;stroke-width:8;stroke-miterlimit:4;stroke-dasharray:none;fill:none;stroke-opacity:1"/>
      <path d="m 358.801,1038 -9.602,-43.199" inkscape:connector-curvature="0" id="path18" style="stroke:#000000;stroke-width:8;stroke-miterlimit:4;stroke-dasharray:none;fill:none;stroke-opacity:1"/>
      <path d="M 277.199,998.398 273.602,1038" inkscape:connector-curvature="0" id="path20" style="stroke:#000000;stroke-width:8;stroke-miterlimit:4;stroke-dasharray:none;fill:none;stroke-opacity:1"/>
      <path d="m 300,19.1992 19.199,0 L 330,32.3984 345.602,48 l 7.199,16.8008 9.597,33.5976 7.204,32.4026 6,56.398 3.597,45.602 -3.597,36 L 372,318 l -2.398,54 -7.204,51.602 -36,357.597" inkscape:connector-curvature="0" id="path22" style="stroke:#000000;stroke-width:8;stroke-miterlimit:4;stroke-dasharray:none;fill:none;stroke-opacity:1"/>
      <path d="m 294,781.199 45.602,0 22.796,6 9.602,9.602 9.602,16.801 7.199,22.796 3.597,20.403 7.204,19.199 6,13.199 6,10.801 16.796,15.602 20.403,13.199 L 462,936 l 9.602,2.398 6,3.602 3.597,7.199 0,9.602 -16.801,9.597 -36,9.602 -36,9.602 -69.597,7.199 -36,0 -60,-2.403 -25.199,-7.199 L 160.801,972 134.398,958.801 132,942 l 6,-6 20.398,-3.602 22.801,-13.199 L 198,900 l 9.602,-13.199 13.199,-37.199 3.597,-26.403 6,-13.199 9.602,-13.199 13.199,-13.199 13.199,-2.403 20.403,0 L 279.602,744 247.199,404.398 237.602,302.398 234,249.602 237.602,204 l 0,-43.199 13.199,-56.403 6,-33.5972 9.597,-19.1992 7.204,-16.8008 9.597,-9.6016 13.199,-3.5976" inkscape:connector-curvature="0" id="path24" style="stroke:#000000;stroke-width:8;stroke-miterlimit:4;stroke-dasharray:none;fill:none;stroke-opacity:1"/>
      <path d="m 1683.6,1117.2 -778.799,0 10.801,64.8 9.597,43.2 16.801,43.2 22.801,33.6 20.398,28.8 25.201,36 30,26.4 37.2,27.6 28.8,19.2 43.2,19.2 42,13.2 30,7.2 52.8,6 39.6,0 36,-6 39.6,-7.2 43.2,-9.6 28.8,-9.6 40.8,-26.4 32.4,-22.8 30,-24 26.4,-32.4 26.4,-36 22.8,-37.2 16.8,-32.4 13.2,-49.2 9.6,-37.2 3.6,-38.4" inkscape:connector-curvature="0" id="path26" style="stroke:#000000;stroke-width:8;stroke-miterlimit:4;stroke-dasharray:none;fill:none;stroke-opacity:1"/>
      <path d="M 915.602,613.199 1178.4,20.3984 l 133.2,0 -264,592.8006 -131.998,0" inkscape:connector-curvature="0" id="path28" style="stroke:#000000;stroke-width:8;stroke-miterlimit:4;stroke-dasharray:none;fill:none;stroke-opacity:1"/>
      <path d="m 1314,613.199 264,-592.8006 132,0 -264,592.8006 -132,0" inkscape:connector-curvature="0" id="path30" style="stroke:#000000;stroke-width:8;stroke-miterlimit:4;stroke-dasharray:none;fill:none;stroke-opacity:1"/>
    </g>
  </g>
</svg>
