<?xml version="1.0" encoding="UTF-8"?>
<!-- Created with Inkscape (http://www.inkscape.org/) -->
<svg xmlns:dc="http://purl.org/dc/elements/1.1/" xmlns:cc="http://creativecommons.org/ns#" xmlns:rdf="http://www.w3.org/1999/02/22-rdf-syntax-ns#" xmlns:svg="http://www.w3.org/2000/svg" xmlns="http://www.w3.org/2000/svg" xmlns:inkscape="http://www.inkscape.org/namespaces/inkscape" version="1.1" width="765" height="990" id="svg2" xml:space="preserve">
  <metadata id="metadata8">
    <rdf:RDF>
      <cc:Work rdf:about="">
        <dc:format>image/svg+xml</dc:format>
        <dc:type rdf:resource="http://purl.org/dc/dcmitype/StillImage"/>
      </cc:Work>
    </rdf:RDF>
  </metadata>
  <defs id="defs6"/>
  <g transform="matrix(1.25,0,0,-1.25,0,990)" id="g10">
    <g transform="scale(0.1,0.1)" id="g12">
      <path d="m 313.199,477.602 -31.199,3.597 -48,-3.597 -36,4.796 -12,-4.796 -7.199,-10.801 2.398,-19.199 14.403,-43.204 L 222,361.199 307.199,258 351.602,217.199 414,158.398 549.602,25.1992 l 14.398,0 3.602,7.1992 -4.801,12 L 504,177.602 496.801,202.801 452.398,308.398 411.602,378 l -31.204,43.199 -24,32.403 -19.199,30 -20.398,27.597 -25.199,28.801 -24,16.801 -7.204,28.801 -6,32.398 -8.398,20.398 -22.801,6 -39.597,0 -42,-1.199 -21.602,-6 -8.398,-3.597 L 40.8008,625.199 20.3984,614.398 13.1992,606 10.8008,585.602 20.3984,600 l 13.2032,7.199 40.7968,0 43.2036,-1.199 21.597,-6 -18,21.602 -3.597,15.597" inkscape:connector-curvature="0" id="path14" style="stroke:#000000;stroke-width:8;stroke-miterlimit:4;stroke-dasharray:none;fill:none;stroke-opacity:1"/>
      <path d="m 163.199,608.398 3.602,1.204 3.597,6 -3.597,8.398 -4.801,3.602 -4.801,-3.602 -2.398,-9.602 3.597,-3.597 3.602,-2.403" inkscape:connector-curvature="0" id="path16" style="stroke:#000000;stroke-width:8;stroke-miterlimit:4;stroke-dasharray:none;fill:none;stroke-opacity:1"/>
      <path d="m 18,594 55.1992,1.199 43.1988,-4.801 12,-7.199 4.801,-14.398 1.199,-14.403 L 121.199,523.199 116.398,486 123.602,440.398 128.398,420 144,379.199 l 18,-33.597 43.199,-73.204 56.403,-108 6,-40.796 -7.204,-70.8012 -7.199,-6 L 212.398,42 165.602,43.1992 163.199,36 142.801,33.6016 139.199,28.8008 144,24 l 118.801,3.6016 122.398,-4.8008 6,4.8008 -2.398,7.1992 -20.403,0 -9.597,9.5976 L 288,46.8008 279.602,51.6016 288,138 338.398,112.801 367.199,198 423.602,60 442.801,34.8008 462,24 l 28.801,0 16.801,4.8008 3.597,8.3984 L 498,74.3984" inkscape:connector-curvature="0" id="path18" style="stroke:#000000;stroke-width:8;stroke-miterlimit:4;stroke-dasharray:none;fill:none;stroke-opacity:1"/>
      <path d="m 154.801,355.199 18,-100.801 -1.199,-76.796 -13.204,-79.2036 -13.199,-39.5976 -8.398,-9.6016 -66.0002,-4.8008 -7.1992,-9.5976 -14.4024,-1.1992 -6,-4.8008 6,-4.8008 50.4024,3.6016 15.5974,-1.2032" inkscape:connector-curvature="0" id="path20" style="stroke:#000000;stroke-width:8;stroke-miterlimit:4;stroke-dasharray:none;fill:none;stroke-opacity:1"/>
      <path d="m 164.398,43.1992 -22.796,-2.3984 0,0 -14.403,-3.6016 -8.398,-10.8008 6,-2.3984 8.398,8.3984 8.403,1.2032" inkscape:connector-curvature="0" id="path22" style="stroke:#000000;stroke-width:8;stroke-miterlimit:4;stroke-dasharray:none;fill:none;stroke-opacity:1"/>
      <path d="m 163.199,44.3984 30,113.9996 48,-27.597 9.602,50.398" inkscape:connector-curvature="0" id="path24" style="stroke:#000000;stroke-width:8;stroke-miterlimit:4;stroke-dasharray:none;fill:none;stroke-opacity:1"/>
      <path d="m 67.1992,43.1992 -22.8008,-2.3984 0,0 L 30,37.1992 22.8008,26.3984 26.3984,24 36,32.3984 46.8008,33.6016" inkscape:connector-curvature="0" id="path26" style="stroke:#000000;stroke-width:8;stroke-miterlimit:4;stroke-dasharray:none;fill:none;stroke-opacity:1"/>
      <path d="M 361.199,44.3984 386.398,42 399.602,37.1992 408,26.3984 404.398,24 l -10.796,8.3984 -7.204,1.2032" inkscape:connector-curvature="0" id="path28" style="stroke:#000000;stroke-width:8;stroke-miterlimit:4;stroke-dasharray:none;fill:none;stroke-opacity:1"/>
      <path d="m 621.602,602.398 10.796,10.801 20.403,7.199 19.199,0 19.199,-6 10.801,-6 10.801,-13.199 6,-13.199 L 672,70.8008 680.398,44.3984 696,28.8008 l 13.199,-6 15.602,-4.8008 21.597,1.1992 16.801,7.1992 10.801,12 9.602,14.4024 7.199,19.1992 -45.602,508.801 -2.398,15.597 -9.602,16.801 L 714,630 l -21.602,8.398 -26.398,1.204 -24,-2.403 -18,-9.597 -14.398,-14.403 0,-6 4.796,-6 6,0" inkscape:connector-curvature="0" id="path30" style="stroke:#000000;stroke-width:8;stroke-miterlimit:4;stroke-dasharray:none;fill:none;stroke-opacity:1"/>
      <path d="m 927.602,148.801 0,44.398 45.597,54 -3.597,20.403 -7.204,20.398 -7.199,34.801 -3.597,24 -4.801,22.801 L 948,396 l 7.199,21.602 12,21.597 0,9.602 -4.801,2.398 L 954,450 l -8.398,-6 -7.204,-7.199 -6,-7.199 -7.199,2.398 -3.597,4.801 0,3.597 7.199,8.403 -7.199,-6 -6,-1.199 -9.602,4.796 -9.602,9.602 -6,6 1.204,8.398 7.199,8.403 19.199,22.801 20.398,21.597 4.801,1.199 3.602,14.403 6,7.199 7.199,3.602 10.801,-2.403 3.597,-7.199 -3.597,-6 -7.199,-18" inkscape:connector-curvature="0" id="path32" style="stroke:#000000;stroke-width:8;stroke-miterlimit:4;stroke-dasharray:none;fill:none;stroke-opacity:1"/>
      <path d="m 944.398,523.199 9.602,2.403 10.801,0" inkscape:connector-curvature="0" id="path34" style="stroke:#000000;stroke-width:8;stroke-miterlimit:4;stroke-dasharray:none;fill:none;stroke-opacity:1"/>
      <path d="m 974.398,538.801 4.801,3.597 9.602,0 4.801,-3.597 4.796,-9.602 0,-18" inkscape:connector-curvature="0" id="path36" style="stroke:#000000;stroke-width:8;stroke-miterlimit:4;stroke-dasharray:none;fill:none;stroke-opacity:1"/>
      <path d="m 999.602,518.398 11.998,-6 14.4,-18 16.8,-26.398 19.2,-39.602 2.4,-13.199 6,-13.199 392.4,0 21.6,15.602 16.8,15.597 24,32.403 13.2,19.199 7.2,21.597 3.6,16.801 0,10.801 -3.6,14.398 -3.6,9.602 -7.2,9.602 -12,8.398 -7.2,3.602 -20.4,0 -16.8,-2.403 -13.2,-7.199 -13.2,-10.801 -8.4,-9.597 -9.6,-7.204 3.6,-10.796 -3.6,-13.204 -4.8,-12 -15.6,-10.796 -6,-6 -7.2,0 -13.2,3.597 -6,9.602 -1.2,12 3.6,8.398 3.6,8.403 8.4,8.398 12,6 8.4,0 8.4,4.801 25.2,28.801 9.6,7.199 18,7.199 16.8,3.602 24,-1.204 19.2,-8.398 13.2,-13.199 10.8,-18 1.2,-9.602 1.2,-18 -1.2,-15.597 0,-12 -4.8,-18 -12,-32.403 -13.2,-18 -15.6,-22.801 -13.2,-15.597 -3.6,-36 0,-36 -4.8,-36 -4.8,-18 3.6,-4.801 10.8,-16.801 10.8,-18 4.8,-21.597 -2.4,-19.204 -6,-36 -1.2,-33.597 -28.8,0 -7.2,-7.199 0,-7.204 2.4,-1.199 6,-2.398 1.2,1.199 1.2,-1.199 7.2,3.597 2.4,7.204 -6,7.199 -33.6,0 1.2,12 6,8.398 10.8,7.199 15.6,2.403 1.2,20.398 0,24 -4.8,22.801 -15.6,28.801 -24,24 -2.4,22.801 -9.6,36 -18,34.796 -393.6,0 -7.2,-14.398 -4.8,-18 -4.8,-30 -1.2,-20.398 3.6,-21.602 9.6,-34.801 -17.998,-16.801 -8.403,6 -34.801,-28.796 -1.199,-34.801 1.199,-2.403 -1.199,-27.597 -33.597,0 -6,-6 0,-7.199 2.398,-2.403 2.398,-1.199 6,-1.199 4.801,1.199 3.602,2.398 1.199,7.204 -3.602,7.199 -36,0 0,12 8.403,12 10.801,4.801 10.796,1.199" inkscape:connector-curvature="0" id="path38" style="stroke:#000000;stroke-width:8;stroke-miterlimit:4;stroke-dasharray:none;fill:none;stroke-opacity:1"/>
      <path d="m 946.801,494.398 1.199,-4.796 8.398,3.597 -2.398,6 -6,-3.597" inkscape:connector-curvature="0" id="path40" style="stroke:#000000;stroke-width:8;stroke-miterlimit:4;stroke-dasharray:none;fill:none;stroke-opacity:1"/>
      <path d="m 2041.2,583.199 -25.2,-20.398 -49.2,-43.199 -25.2,-19.204 -16.8,-12 -26.4,-19.199 -19.2,-12 -7.2,-9.597 -9.6,-13.204 -2.4,-40.796 4.8,-40.801 1.2,-44.403 -3.6,-49.199 -4.8,-63.597 -3.6,-25.204 -3.6,-25.199 -2.4,-21.597 1.2,-19.204 1.2,-16.7964 L 1854,72 1850.4,57.6016 1834.8,42 l -15.6,-1.1992 -19.2,0 -21.6,10.8008 -16.8,3.5976 -36,-15.5976 -132,1.1992 -3.6,16.8008 6,10.7968 24,2.4024 44.4,9.5976 33.6,10.8008 26.4,15.6018 32.4,15.597 8.4,8.403 2.4,13.199 0,48 -2.4,54 0,49.199 9.6,96 2.4,40.801 0,32.398 1.2,21.602 8.4,16.801 9.6,12 37.2,31.199 46.8,38.398 27.6,22.801 61.2,54 72,-78" inkscape:connector-curvature="0" id="path42" style="stroke:#000000;stroke-width:8;stroke-miterlimit:4;stroke-dasharray:none;fill:none;stroke-opacity:1"/>
      <path d="m 2328,580.801 -24,-20.403 -50.4,-43.199 -25.2,-19.199 -15.6,-12 -27.6,-19.199 -18,-12 -8.4,-9.602 -8.4,-13.199 -2.4,-40.801 3.6,-40.801 1.2,-44.398 -2.4,-49.199 -6,-63.602 -3.6,-25.199 -3.6,-25.199 -2.4,-21.602 1.2,-19.199 1.2,-16.8008 3.6,-15.5976 -3.6,-14.4024 -14.4,-15.5976 -16.8,-1.2032 -19.2,0 -21.6,10.8008 -16.8,3.6016 -34.8,-15.6016 -133.2,1.1992 -3.6,16.8008 7.2,10.8008 22.8,2.3984 44.4,9.6016 33.6,10.8008 27.6,15.5972 31.2,15.602 8.4,8.398 3.6,13.204 0,48 -3.6,54 0,48 9.6,97.199 2.4,40.801 0,32.398 1.2,21.602 9.6,16.796 9.6,12 37.2,31.204 46.8,38.398 27.6,21.602 61.2,55.199 70.8,-78" inkscape:connector-curvature="0" id="path44" style="stroke:#000000;stroke-width:8;stroke-miterlimit:4;stroke-dasharray:none;fill:none;stroke-opacity:1"/>
    </g>
  </g>
</svg>
