<?xml version="1.0" encoding="UTF-8"?>
<!-- Created with Inkscape (http://www.inkscape.org/) -->
<svg xmlns:dc="http://purl.org/dc/elements/1.1/" xmlns:cc="http://creativecommons.org/ns#" xmlns:rdf="http://www.w3.org/1999/02/22-rdf-syntax-ns#" xmlns:svg="http://www.w3.org/2000/svg" xmlns="http://www.w3.org/2000/svg" xmlns:inkscape="http://www.inkscape.org/namespaces/inkscape" version="1.1" width="765" height="990" id="svg2" xml:space="preserve">
  <metadata id="metadata8">
    <rdf:RDF>
      <cc:Work rdf:about="">
        <dc:format>image/svg+xml</dc:format>
        <dc:type rdf:resource="http://purl.org/dc/dcmitype/StillImage"/>
      </cc:Work>
    </rdf:RDF>
  </metadata>
  <defs id="defs6"/>
  <g transform="matrix(1.25,0,0,-1.25,0,990)" id="g10">
    <g transform="scale(0.1,0.1)" id="g12">
      <path d="m 806.398,1071.6 -69.597,6 -112.801,-6 -82.801,9.6 -25.199,-9.6 -19.199,-25.2 6,-45.6 38.398,-117.601 15.602,-32.398 39.597,-50.403 L 691.199,681.602 896.398,466.801 1042.8,330 1356,21.6016 l 31.2,0 10.8,16.7968 -13.2,28.8008 -134.4,307.1988 -19.2,57.602 -50.4,128.398 -16.8,31.204 -40.8,86.398 -76.8,130.801 -80.4,132 -54,73.199 -48,70.8 -48,63.6 -57.602,67.2 -57.597,38.4 -15.602,67.2 -12,73.2 -20.398,49.2 -54,12 -90,0 -98.403,-3.6 -48,-12 -22.796,-7.2 -162,-22.8 -48,-21.6 -15.602,-22.8 -4.801,-44.4 20.403,32.4 31.199,15.6 96,0 99.597,-3.6 51.602,-12 -42,50.4 -9.602,36" inkscape:connector-curvature="0" id="path14" style="stroke:#000000;stroke-width:8;stroke-miterlimit:4;stroke-dasharray:none;fill:none;stroke-opacity:1"/>
      <path d="m 462,1372.8 9.602,2.4 6,16.8 -6,15.6 -13.204,9.6 -13.199,-9.6 -2.398,-19.2 6,-9.6 9.597,-6" inkscape:connector-curvature="0" id="path16" style="stroke:#000000;stroke-width:8;stroke-miterlimit:4;stroke-dasharray:none;fill:none;stroke-opacity:1"/>
      <path d="m 126,1340.4 128.398,3.6 98.403,-13.2 28.801,-15.6 9.597,-32.4 3.602,-34.8 -28.801,-70.8 -13.199,-86.4 15.597,-105.601 13.204,-48 19.199,-57.597 13.199,-25.204 44.398,-90 163.204,-294 67.199,-124.796 12,-96 L 685.199,86.3984 668.398,69.6016 576,61.1992 468,63.6016 462,48 l -48,-7.1992 -6,-8.4024 8.398,-13.1992 274.801,9.6016 284.403,-13.1992 13.199,13.1992 -7.199,15.5976 -43.204,0 -26.398,22.8008 -163.199,2.4024 -19.199,13.1992 19.199,201.5972 118.801,-60 66,198 L 1062,102 l 44.4,-57.6016 45.6,-25.1992 67.2,0 38.4,13.1992 9.6,18 L 1234.8,138" inkscape:connector-curvature="0" id="path18" style="stroke:#000000;stroke-width:8;stroke-miterlimit:4;stroke-dasharray:none;fill:none;stroke-opacity:1"/>
      <path d="m 442.801,787.199 25.199,-96 9.602,-99.597 L 480,553.199 480,374.398 448.801,192 420,98.3984 400.801,76.8008 247.199,67.1992 231.602,44.3984 l -34.801,-3.5976 -13.199,-8.4024 13.199,-13.1992 117.597,9.6016 34.801,-3.6016" inkscape:connector-curvature="0" id="path20" style="stroke:#000000;stroke-width:8;stroke-miterlimit:4;stroke-dasharray:none;fill:none;stroke-opacity:1"/>
      <path d="m 464.398,63.6016 -54,-6 0,0 -31.199,-7.2032 -20.398,-25.1992 13.199,-6 19.199,19.1992 19.199,2.4024" inkscape:connector-curvature="0" id="path22" style="stroke:#000000;stroke-width:8;stroke-miterlimit:4;stroke-dasharray:none;fill:none;stroke-opacity:1"/>
      <path d="M 462,67.1992 531.602,330 640.801,265.199 662.398,384" inkscape:connector-curvature="0" id="path24" style="stroke:#000000;stroke-width:8;stroke-miterlimit:4;stroke-dasharray:none;fill:none;stroke-opacity:1"/>
      <path d="m 237.602,63.6016 -51.602,-6 0,0 -31.199,-7.2032 -19.199,-25.1992 9.597,-6 22.801,19.1992 25.199,2.4024" inkscape:connector-curvature="0" id="path26" style="stroke:#000000;stroke-width:8;stroke-miterlimit:4;stroke-dasharray:none;fill:none;stroke-opacity:1"/>
      <path d="m 918,67.1992 61.199,-6 28.801,-10.8008 19.2,-25.1992 -9.6,-6 -22.799,19.1992 -15.602,2.4024" inkscape:connector-curvature="0" id="path28" style="stroke:#000000;stroke-width:8;stroke-miterlimit:4;stroke-dasharray:none;fill:none;stroke-opacity:1"/>
      <path d="m 1452,883.199 -453.602,0" inkscape:connector-curvature="0" id="path30" style="stroke:#000000;stroke-width:8;stroke-miterlimit:4;stroke-dasharray:none;fill:none;stroke-opacity:1"/>
      <path d="m 397.199,883.199 -69.597,0 L 270,870 214.801,844.801 158.398,802.801 120,770.398 85.1992,732 l -30,-37.199 -18,-39.602 L 24,618 18,585.602 14.3984,556.801 1452,556.801" inkscape:connector-curvature="0" id="path32" style="stroke:#000000;stroke-width:8;stroke-miterlimit:4;stroke-dasharray:none;fill:none;stroke-opacity:1"/>
    </g>
  </g>
</svg>
