<?xml version="1.0" encoding="UTF-8"?>
<!-- Created with Inkscape (http://www.inkscape.org/) -->
<svg xmlns:dc="http://purl.org/dc/elements/1.1/" xmlns:cc="http://creativecommons.org/ns#" xmlns:rdf="http://www.w3.org/1999/02/22-rdf-syntax-ns#" xmlns:svg="http://www.w3.org/2000/svg" xmlns="http://www.w3.org/2000/svg" xmlns:inkscape="http://www.inkscape.org/namespaces/inkscape" version="1.1" width="765" height="990" id="svg2" xml:space="preserve">
  <metadata id="metadata8">
    <rdf:RDF>
      <cc:Work rdf:about="">
        <dc:format>image/svg+xml</dc:format>
        <dc:type rdf:resource="http://purl.org/dc/dcmitype/StillImage"/>
      </cc:Work>
    </rdf:RDF>
  </metadata>
  <defs id="defs6"/>
  <g transform="matrix(1.25,0,0,-1.25,0,990)" id="g10">
    <g transform="scale(0.1,0.1)" id="g12">
      <path d="m 715.199,1074 -70.801,7.2 -111.597,-7.2 -82.801,9.6 -26.398,-9.6 -19.204,-25.2 6,-44.4 L 442.801,901.199 504,802.801 702,566.398 804,469.199 951.602,332.398 1264.8,25.1992 l 32.4,0 9.6,15.6016 -13.2,28.8008 -134.4,307.1994 -19.2,57.597 -102,246 -93.602,160.801 -73.199,102 -54,73.201 -44.398,70.8 -48,63.6 -57.602,67.2 -57.597,38.4 -16.801,67.2 -12,74.4 -19.199,48 -55.204,12 -88.796,0 -99.602,-3.6 -48,-12 -21.602,-7.2 -163.1988,-21.6 -48,-22.8 -15.5976,-21.6 -3.6016,-45.6 19.1992,32.4 32.4024,15.6 94.7964,0 99.602,-2.4 51.602,-13.2 -42,50.4 -9.602,36" inkscape:connector-curvature="0" id="path14" style="stroke:#000000;stroke-width:8;stroke-miterlimit:4;stroke-dasharray:none;fill:none;stroke-opacity:1"/>
      <path d="m 369.602,1375.2 9.597,2.4 6,16.8 -6,15.6 -13.199,9.6 -13.199,-9.6 -2.403,-19.2 6,-9.6 9.602,-6" inkscape:connector-curvature="0" id="path16" style="stroke:#000000;stroke-width:8;stroke-miterlimit:4;stroke-dasharray:none;fill:none;stroke-opacity:1"/>
      <path d="m 33.6016,1342.8 128.3984,3.6 98.398,-13.2 28.801,-15.6 9.602,-32.4 3.597,-34.8 -28.796,-70.8 -13.204,-85.2 15.602,-105.599 13.199,-49.199 36,-96 L 366,766.801 465.602,597.602 596.398,348 609.602,252 592.801,88.8008 577.199,73.1992 l -92.398,-9.5976 -109.199,3.5976 -6,-15.5976 -48,-7.2032 -6,-9.5976 9.597,-13.1992 274.801,9.5976 284.398,-12 13.204,12 -7.204,15.6016 -44.398,0 -25.199,22.8008 -163.199,3.5976 -19.204,13.1992 19.204,200.4026 117.597,-60 67.199,198 128.403,-319.199 44.399,-58.8012 45.6,-25.1992 66,0 38.4,13.1992 9.6,19.1992 -31.2,86.398" inkscape:connector-curvature="0" id="path18" style="stroke:#000000;stroke-width:8;stroke-miterlimit:4;stroke-dasharray:none;fill:none;stroke-opacity:1"/>
      <path d="m 350.398,789.602 42,-234 L 388.801,376.801 356.398,194.398 327.602,102 309.602,80.3984 156,69.6016 139.199,46.8008 104.398,44.3984 91.1992,34.8008 104.398,21.6016 222,31.1992 258,28.8008" inkscape:connector-curvature="0" id="path20" style="stroke:#000000;stroke-width:8;stroke-miterlimit:4;stroke-dasharray:none;fill:none;stroke-opacity:1"/>
      <path d="M 373.199,67.1992 318,60 l 0,0 -31.199,-6 -19.199,-25.1992 12,-7.1992 19.199,19.1992 19.199,3.5976" inkscape:connector-curvature="0" id="path22" style="stroke:#000000;stroke-width:8;stroke-miterlimit:4;stroke-dasharray:none;fill:none;stroke-opacity:1"/>
      <path d="m 369.602,69.6016 69.597,262.7964 109.199,-63.597 22.801,117.597" inkscape:connector-curvature="0" id="path24" style="stroke:#000000;stroke-width:8;stroke-miterlimit:4;stroke-dasharray:none;fill:none;stroke-opacity:1"/>
      <path d="M 145.199,67.1992 94.8008,60 l 0,0 -32.4024,-6 -19.1992,-25.1992 9.6016,-7.1992 22.8008,19.1992 25.1994,3.5976" inkscape:connector-curvature="0" id="path26" style="stroke:#000000;stroke-width:8;stroke-miterlimit:4;stroke-dasharray:none;fill:none;stroke-opacity:1"/>
      <path d="m 826.801,69.6016 60,-6 28.801,-9.6016 19.199,-25.1992 -8.403,-7.1992 -22.796,19.1992 -16.801,3.5976" inkscape:connector-curvature="0" id="path28" style="stroke:#000000;stroke-width:8;stroke-miterlimit:4;stroke-dasharray:none;fill:none;stroke-opacity:1"/>
      <path d="m 2487.6,1023.6 26.4,-15.6 20.4,-7.2 8.4,0 10.8,9.6 13.2,13.2 64.8,114 0,18 -2.4,6 -7.2,9.6 -22.8,13.2 -536.4,252 -13.2,2.4 -15.6,3.6 -16.8,-6 -16.8,-10.8 -6,-9.6 -7.2,-19.2 0,-13.2 7.2,-15.6 9.6,-13.2 16.8,-16.8 466.8,-314.4" inkscape:connector-curvature="0" id="path30" style="stroke:#000000;stroke-width:8;stroke-miterlimit:4;stroke-dasharray:none;fill:none;stroke-opacity:1"/>
      <path d="m 2840.4,1471.2 0,-588.001 104.4,0 0,588.001 -104.4,0" inkscape:connector-curvature="0" id="path32" style="stroke:#000000;stroke-width:8;stroke-miterlimit:4;stroke-dasharray:none;fill:none;stroke-opacity:1"/>
      <path d="m 3363.6,1471.2 0,-588.001 108,0 0,588.001 -108,0" inkscape:connector-curvature="0" id="path34" style="stroke:#000000;stroke-width:8;stroke-miterlimit:4;stroke-dasharray:none;fill:none;stroke-opacity:1"/>
      <path d="m 3892.8,1471.2 0,-588.001 104.4,0 0,588.001 -104.4,0" inkscape:connector-curvature="0" id="path36" style="stroke:#000000;stroke-width:8;stroke-miterlimit:4;stroke-dasharray:none;fill:none;stroke-opacity:1"/>
      <path d="m 1692,1033.2 25.2,-16.8 20.4,-6 8.4,0 10.8,10.8 12,12 64.8,111.6 0,16.8 -3.6,6 -7.2,9.6 -21.6,13.2 -524.4,246 -13.2,2.4 -15.6,3.6 -15.6,-6 -16.8,-9.6 -6,-9.6 -6,-19.2 0,-13.2 6,-15.6 9.6,-13.2 15.6,-15.6 457.2,-307.2" inkscape:connector-curvature="0" id="path38" style="stroke:#000000;stroke-width:8;stroke-miterlimit:4;stroke-dasharray:none;fill:none;stroke-opacity:1"/>
    </g>
  </g>
</svg>
