<?xml version="1.0" encoding="UTF-8"?>
<!-- Created with Inkscape (http://www.inkscape.org/) -->
<svg xmlns:dc="http://purl.org/dc/elements/1.1/" xmlns:cc="http://creativecommons.org/ns#" xmlns:rdf="http://www.w3.org/1999/02/22-rdf-syntax-ns#" xmlns:svg="http://www.w3.org/2000/svg" xmlns="http://www.w3.org/2000/svg" xmlns:inkscape="http://www.inkscape.org/namespaces/inkscape" version="1.1" width="765" height="990" id="svg2" xml:space="preserve">
  <metadata id="metadata8">
    <rdf:RDF>
      <cc:Work rdf:about="">
        <dc:format>image/svg+xml</dc:format>
        <dc:type rdf:resource="http://purl.org/dc/dcmitype/StillImage"/>
      </cc:Work>
    </rdf:RDF>
  </metadata>
  <defs id="defs6"/>
  <g transform="matrix(1.25,0,0,-1.25,0,990)" id="g10">
    <g transform="scale(0.1,0.1)" id="g12">
      <path d="M 1314,37.1992 1335.6,24 l 15.6,-6 8.4,0 8.4,8.3984 10.8,10.8008 54,94.8008 0,14.398 -2.4,4.801 -6,8.403 -18,10.796 -446.4,210 -10.801,2.403 -14.398,2.398 -12,-4.801 -14.403,-8.398 -6,-8.398 -4.796,-16.801 0,-10.801 4.796,-13.199 L 910.801,312 925.199,298.801 1314,37.1992" inkscape:connector-curvature="0" id="path14" style="stroke:#000000;stroke-width:8;stroke-miterlimit:4;stroke-dasharray:none;fill:none;stroke-opacity:1"/>
      <path d="m 1452,718.801 -1437.6016,0 0,-79.199 1437.6016,0 0,79.199" inkscape:connector-curvature="0" id="path16" style="stroke:#000000;stroke-width:8;stroke-miterlimit:4;stroke-dasharray:none;fill:none;stroke-opacity:1"/>
      <path d="m 184.801,1240.8 -9.602,-24 -3.597,-21.6 13.199,-38.4 20.398,-15.6 15.602,-12 26.398,-6 25.199,3.6 21.602,2.4 30,19.2 19.199,19.2 8.403,21.6 10.796,40.8 0,27.6 -3.597,26.4 -15.602,36 -24,27.6 -25.199,15.6 -49.199,10.8 -30,0 -32.403,-8.4 -30,-9.6 -27.597,-16.8 -18,-16.8 L 87.6016,1296 76.8008,1268.4 62.3984,1219.2 66,1176 74.3984,1135.2 90,1096.8 154.801,1012.8 261.602,896.398 369.602,774 408,718.801" inkscape:connector-curvature="0" id="path18" style="stroke:#000000;stroke-width:8;stroke-miterlimit:4;stroke-dasharray:none;fill:none;stroke-opacity:1"/>
      <path d="m 1131.6,1240.8 -14.4,-24 0,-21.6 12,-38.4 18,-15.6 16.8,-12 30,-6 24,3.6 19.2,2.4 32.4,19.2 16.8,19.2 10.8,21.6 8.4,40.8 2.4,27.6 -2.4,26.4 -16.8,36 -24,27.6 -25.2,15.6 -48,10.8 -33.6,0 -28.8,-8.4 -30,-9.6 -27.6,-16.8 -19.2,-16.8 -21.6,-26.4 -10.8,-27.6 -8.4,-27.6 -2.4,-64.8 10.8,-40.8 15.6,-38.4 66,-84 105.6,-116.402 109.2,-122.398 37.2,-55.199" inkscape:connector-curvature="0" id="path20" style="stroke:#000000;stroke-width:8;stroke-miterlimit:4;stroke-dasharray:none;fill:none;stroke-opacity:1"/>
      <path d="m 658.801,1240.8 -10.801,-24 -3.602,-21.6 14.403,-38.4 19.199,-15.6 15.602,-12 27.597,-6 24,3.6 21.602,2.4 30,19.2 16.801,19.2 10.796,21.6 10.801,40.8 0,27.6 -2.398,26.4 -16.801,36 -24,27.6 -25.199,15.6 -48,10.8 -30,0 -32.403,-8.4 -30,-9.6 -30,-16.8 -16.796,-16.8 -19.204,-26.4 -10.796,-27.6 -10.801,-27.6 0,-64.8 8.398,-40.8 16.801,-38.4 64.801,-84 L 734.398,896.398 843.602,774 880.801,718.801" inkscape:connector-curvature="0" id="path22" style="stroke:#000000;stroke-width:8;stroke-miterlimit:4;stroke-dasharray:none;fill:none;stroke-opacity:1"/>
      <path d="m 200.398,507.602 0,-489.602 109.204,0 0,489.602 -109.204,0" inkscape:connector-curvature="0" id="path24" style="stroke:#000000;stroke-width:8;stroke-miterlimit:4;stroke-dasharray:none;fill:none;stroke-opacity:1"/>
    </g>
  </g>
</svg>
