<?xml version="1.0" encoding="UTF-8"?>
<!-- Created with Inkscape (http://www.inkscape.org/) -->
<svg xmlns:dc="http://purl.org/dc/elements/1.1/" xmlns:cc="http://creativecommons.org/ns#" xmlns:rdf="http://www.w3.org/1999/02/22-rdf-syntax-ns#" xmlns:svg="http://www.w3.org/2000/svg" xmlns="http://www.w3.org/2000/svg" xmlns:inkscape="http://www.inkscape.org/namespaces/inkscape" version="1.1" width="765" height="990" id="svg2" xml:space="preserve">
  <metadata id="metadata8">
    <rdf:RDF>
      <cc:Work rdf:about="">
        <dc:format>image/svg+xml</dc:format>
        <dc:type rdf:resource="http://purl.org/dc/dcmitype/StillImage"/>
      </cc:Work>
    </rdf:RDF>
  </metadata>
  <defs id="defs6"/>
  <g transform="matrix(1.25,0,0,-1.25,0,990)" id="g10">
    <g transform="scale(0.1,0.1)" id="g12">
      <path d="m 483.602,468 -12,-36 -20.403,-56.398 -33.597,-66 -36,-54 L 354,210 l -28.801,-38.398 -12,-22.801 -3.597,-18 L 306,115.199 310.801,90 313.199,74.3984 309.602,54 l -7.204,-13.1992 -20.398,-12 -25.199,0 -27.602,12 -8.398,1.1992 -20.403,-3.6016 -27.597,-12 -156.0002,0 L 12,49.1992 l 13.1992,14.4024 39.6016,3.5976 51.5972,14.4024 48,21.5974 36,32.403 28.801,36 9.602,20.398 18,51.602 46.801,129.597 30,63.602 31.199,61.199 27.597,45.602 22.801,36 20.403,26.398 15.597,21.602 14.403,6 10.796,2.398 9.602,-2.398 18,-2.403 26.398,-38.398 45.602,-74.403 45.602,-72 51.597,-91.199 40.801,-88.801 30,-76.796 8.398,-36 15.602,-36 20.398,-33.602 2.403,-16.8008 -2.403,-18 L 782.398,36 768,28.8008 747.602,24 728.398,28.8008 721.199,36 l -16.801,4.8008 -15.597,0 -15.602,-14.4024 -189.597,0 -2.403,15.6016 6,12 50.403,13.1992 43.199,12 L 612,90 l 30,13.199 15.602,16.801 9.597,18 0,13.199 -7.199,18 L 632.398,210 588,286.801 544.801,345.602 512.398,403.199 496.801,447.602 486,470.398" inkscape:connector-curvature="0" id="path14" style="stroke:#000000;stroke-width:8;stroke-miterlimit:4;stroke-dasharray:none;fill:none;stroke-opacity:1"/>
      <path d="m 1090.8,726 -20.4,-10.801 -16.8,-20.398 -4.8,-15.602 -4.8,-16.801 6,-25.199 13.2,-16.801 12,-9.597 21.6,-8.403 16.8,-4.796 19.2,0 21.6,8.398 18,9.602 10.8,13.199 13.2,18 8.4,20.398 6,19.199 1.2,18 -1.2,12 -3.6,21.602 -9.6,18 -14.4,18 -14.4,13.199 -12,6 -13.2,4.801 -18,1.199 -14.4,2.403 -18,0 -21.6,-2.403 -22.8,-6 -20.4,-12 -12,-10.801 -14.4,-12 -10.801,-13.199 -12,-19.199 -10.801,-20.398 -3.597,-18 -3.602,-25.204 L 960,637.199 961.199,618 l 2.403,-30 10.796,-28.801 16.801,-32.398 28.801,-37.199 44.4,-43.204 64.8,-52.796 140.4,-79.204" inkscape:connector-curvature="0" id="path16" style="stroke:#000000;stroke-width:8;stroke-miterlimit:4;stroke-dasharray:none;fill:none;stroke-opacity:1"/>
      <path d="m 1346.4,22.8008 -424.798,0 6,34.8008 4.796,24 9.602,22.7964 12,19.204 10.801,15.597 14.398,20.403 L 996,174 l 19.2,14.398 16.8,9.602 22.8,12 24,7.199 15.6,3.602 30,3.597 20.4,0 20.4,-3.597 21.6,-3.602 22.8,-6 16.8,-4.801 21.6,-14.398 18,-13.199 15.6,-13.199 15.6,-16.801 14.4,-20.403 12,-19.199 8.4,-19.199 8.4,-26.3984 4.8,-20.4024 1.2,-20.3984" inkscape:connector-curvature="0" id="path18" style="stroke:#000000;stroke-width:8;stroke-miterlimit:4;stroke-dasharray:none;fill:none;stroke-opacity:1"/>
      <path d="m 1652.4,1262.4 153.6,-346.798 78,0 -154.8,346.798 -76.8,0" inkscape:connector-curvature="0" id="path20" style="stroke:#000000;stroke-width:8;stroke-miterlimit:4;stroke-dasharray:none;fill:none;stroke-opacity:1"/>
      <path d="m 1885.2,1262.4 154.8,-346.798 76.8,0 -154.8,346.798 -76.8,0" inkscape:connector-curvature="0" id="path22" style="stroke:#000000;stroke-width:8;stroke-miterlimit:4;stroke-dasharray:none;fill:none;stroke-opacity:1"/>
      <path d="m 2246.4,1255.2 -19.2,36 -22.8,32.4 -26.4,34.8 -26.4,30 -36,28.8 -32.4,27.6 -37.2,20.4 -36,14.4 -44.4,12 -37.2,8.4 -42,3.6 -40.8,-3.6 -32.4,-6 -38.4,-6 -40.8,-14.4 -40.8,-14.4 -36,-24 -32.4,-22.8 -32.4,-30 -26.4,-28.8 -26.4,-36 -24,-32.4 -14.4,-38.4 -14.4,-38.4 -8.4,-46.8 -3.6,-50.4 0,-50.4 8.4,-40.8 12,-44.398 18,-40.801 20.4,-38.403 24,-28.796 25.2,-36 30,-30 42,-25.204 26.4,-21.597 44.4,-16.801 43.2,-15.602 36,-8.398 40.8,-3.602 43.2,-2.398 48,6 40.8,6 42,12 34.8,14.398 34.8,24 36,22.801 30,27.602 28.8,32.398 28.8,37.199 24,34.801 12,36 14.4,42.001 8.4,43.2 3.6,38.4 0,46.8 -6,42 -12,40.8 -10.8,38.4" inkscape:connector-curvature="0" id="path24" style="stroke:#000000;stroke-width:8;stroke-miterlimit:4;stroke-dasharray:none;fill:none;stroke-opacity:1"/>
      <path d="m 676.801,1408.8 -26.403,-13.2 -21.597,-24 -7.199,-20.4 -2.403,-22.8 6,-33.6 15.602,-20.4 15.597,-13.2 27.602,-9.6 20.398,-4.8 26.403,0 27.597,9.6 22.801,13.2 13.199,15.6 18,24 10.801,27.6 6,22.8 2.403,22.8 -2.403,16.8 -4.801,27.6 -10.796,22.8 -19.204,22.8 -18,16.8 -15.597,7.2 -15.602,4.8 -25.199,3.6 -16.801,2.4 -21.597,0 -30,-2.4 -30,-8.4 -24,-14.4 -16.801,-15.6 -19.199,-15.6 -12,-15.6 -15.602,-26.4 -13.199,-24 -4.801,-24 -4.801,-31.2 -1.199,-32.4 1.199,-26.4 3.602,-36 14.398,-37.2 18,-42 38.403,-46.8 57.597,-56.4 82.801,-67.201 180,-102" inkscape:connector-curvature="0" id="path26" style="stroke:#000000;stroke-width:8;stroke-miterlimit:4;stroke-dasharray:none;fill:none;stroke-opacity:1"/>
      <path d="m 37.1992,1357.2 1195.2008,0" inkscape:connector-curvature="0" id="path28" style="stroke:#000000;stroke-width:8;stroke-miterlimit:4;stroke-dasharray:none;fill:none;stroke-opacity:1"/>
      <path d="m 1617.6,548.398 235.2,-529.1988 117.6,0 -235.2,529.1988 -117.6,0" inkscape:connector-curvature="0" id="path30" style="stroke:#000000;stroke-width:8;stroke-miterlimit:4;stroke-dasharray:none;fill:none;stroke-opacity:1"/>
      <path d="m 1974,548.398 235.2,-529.1988 117.6,0 -235.2,529.1988 -117.6,0" inkscape:connector-curvature="0" id="path32" style="stroke:#000000;stroke-width:8;stroke-miterlimit:4;stroke-dasharray:none;fill:none;stroke-opacity:1"/>
    </g>
  </g>
</svg>
