<?xml version="1.0" encoding="UTF-8"?>
<!-- Created with Inkscape (http://www.inkscape.org/) -->
<svg xmlns:dc="http://purl.org/dc/elements/1.1/" xmlns:cc="http://creativecommons.org/ns#" xmlns:rdf="http://www.w3.org/1999/02/22-rdf-syntax-ns#" xmlns:svg="http://www.w3.org/2000/svg" xmlns="http://www.w3.org/2000/svg" xmlns:inkscape="http://www.inkscape.org/namespaces/inkscape" version="1.1" width="765" height="990" id="svg2" xml:space="preserve">
  <metadata id="metadata8">
    <rdf:RDF>
      <cc:Work rdf:about="">
        <dc:format>image/svg+xml</dc:format>
        <dc:type rdf:resource="http://purl.org/dc/dcmitype/StillImage"/>
      </cc:Work>
    </rdf:RDF>
  </metadata>
  <defs id="defs6"/>
  <g transform="matrix(1.25,0,0,-1.25,0,990)" id="g10">
    <g transform="scale(0.1,0.1)" id="g12">
      <path d="m 2127.6,1311.6 109.2,0 19.2,-9.6 12,-44.4 19.2,0 3.6,25.2 21.6,22.8 22.8,-3.6 9.6,-19.2 0,-19.2 -25.2,-38.4 -9.6,-40.8 9.6,-42 8.4,-13.2 26.4,-12 28.8,0 21.6,19.2 22.8,44.4 16.8,54 6,61.2 -9.6,63.6 -28.8,44.4 -44.4,36 -45.6,15.6 -50.4,0 -34.8,-3.6 -28.8,-8.4 -32.4,-26.4 -25.2,-34.8 -19.2,-34.8" inkscape:connector-curvature="0" id="path14" style="stroke:#000000;stroke-width:8;stroke-miterlimit:4;stroke-dasharray:none;fill:none;stroke-opacity:1"/>
      <path d="m 2146.8,1280.4 15.6,-7.2 22.8,7.2 -19.2,9.6 -19.2,-3.6" inkscape:connector-curvature="0" id="path16" style="stroke:#000000;stroke-width:8;stroke-miterlimit:4;stroke-dasharray:none;fill:none;stroke-opacity:1"/>
      <path d="m 2133.6,1344 -12,-45.6 -16.8,-37.2 -21.6,-28.8 6,-10.8 25.2,-21.6 13.2,-32.4 12,-31.2 57.6,0 7.2,-55.2 -9.6,-12 -84,-19.2 -85.2,-48 -237.6,-118.801 166.8,211.201 22.8,13.2 31.2,-7.2 38.4,0 28.8,16.8 3.6,12 0,13.2 -19.2,19.2 48,6 -6,16.8 -70.8,-3.6 -69.6,-6 -28.8,-16.8 -32.4,-25.2 -48,-42 -102,-117.601 -42,-57.597 -22.8,-38.403 -9.6,-38.398 3.6,-22.801 25.2,-31.199 38.4,-7.199 51.6,13.199 144,54 144,70.801 19.2,3.597 15.6,-3.597 34.8,-153.602 15.6,-151.199 7.2,-43.199 -19.2,-205.204 -138,150 -54,55.204 -70.8,50.398 -44.4,6 -34.8,0 -32.4,-15.602 -21.6,-22.796 -7.2,-46.801 42,-160.801 42,-150" inkscape:connector-curvature="0" id="path18" style="stroke:#000000;stroke-width:8;stroke-miterlimit:4;stroke-dasharray:none;fill:none;stroke-opacity:1"/>
      <path d="M 1897.2,604.801 1830,535.199 1878,468 l 22.8,-48 15.6,-67.199 13.2,-82.801" inkscape:connector-curvature="0" id="path20" style="stroke:#000000;stroke-width:8;stroke-miterlimit:4;stroke-dasharray:none;fill:none;stroke-opacity:1"/>
      <path d="m 2415.6,420 -61.2,-6 -198,-51.602 -124.8,-48 -128.4,-55.199 -50.4,-25.199 -44.4,-28.801 -39.6,-44.398 -12,-32.403 0,-34.7964 9.6,-25.2032 19.2,-22.7968 51.6,-25.2032 66,0 330,44.4024 82.8,9.5976 67.2,-9.5976 111.6,-38.4024 57.6,-6 51.6,0 -3.6,21.6016 -44.4,3.6016 -67.2,22.7968 -55.2,41.9996 -8.4,31.204 -28.8,6 -42,-21.602 -38.4,0 -111.6,28.801 -67.2,6 -140.4,-13.199 -105.6,-37.204 -28.8,40.801 -48,44.403" inkscape:connector-curvature="0" id="path22" style="stroke:#000000;stroke-width:8;stroke-miterlimit:4;stroke-dasharray:none;fill:none;stroke-opacity:1"/>
      <path d="M 1760.4,93.6016 1696.8,62.3984 1622.4,42 l 0,-25.1992 57.6,0 99.6,34.8008" inkscape:connector-curvature="0" id="path24" style="stroke:#000000;stroke-width:8;stroke-miterlimit:4;stroke-dasharray:none;fill:none;stroke-opacity:1"/>
      <path d="m 2396.4,147.602 15.6,22.796 9.6,32.403 9.6,63.597 0,48 -13.2,61.204 -2.4,50.398 0,102 12,103.199 13.2,114 21.6,118.801 22.8,22.801 25.2,-36 36,-117.602 44.4,-115.199 -12,-61.199 -3.6,-57.602 3.6,-66 8.4,-70.801 -19.2,-57.597 -6,-57.602 3.6,-19.199 6,-19.199 9.6,0 6,32.398 9.6,0 13.2,-3.597 19.2,3.597 19.2,9.602 7.2,21.597 2.4,19.204 -6,25.199 -16.8,32.398 28.8,132 9.6,63.602 3.6,66 -13.2,68.398 -34.8,127.199 -54,124.801 -28.8,64.801 -48,54 -38.4,15.6 -42,3.6 -38.4,3.6 -2.4,40.8" inkscape:connector-curvature="0" id="path26" style="stroke:#000000;stroke-width:8;stroke-miterlimit:4;stroke-dasharray:none;fill:none;stroke-opacity:1"/>
      <path d="m 394.801,1006.8 15.597,0 9.602,3.6 16.801,12 2.398,9.6 3.602,15.6 -6,16.8 -7.199,12 -12,10.8 -16.801,2.4 -19.199,-2.4 -13.204,-3.6 -8.398,-13.2 -7.199,-22.8 3.597,-18 9.602,-10.8 9.602,-12 9.597,0 9.602,-3.6" inkscape:connector-curvature="0" id="path28" style="stroke:#000000;stroke-width:8;stroke-miterlimit:4;stroke-dasharray:none;fill:none;stroke-opacity:1"/>
      <path d="m 650.398,1147.2 -13.199,25.2 -15.597,26.4 L 606,1224 586.801,1240.8 564,1262.4 542.398,1278 516,1291.2 l -25.199,9.6 -28.801,12 -28.801,3.6 -28.801,3.6 -25.199,-3.6 -26.398,-3.6 -25.199,-2.4 -25.204,-9.6 -28.796,-13.2 -25.204,-12 -22.796,-16.8 -25.204,-22.8 -16.796,-18 -19.204,-26.4 -13.199,-21.6 -12,-26.4 -7.199,-25.2 -8.398,-34.8 0,-64.8 6,-31.198 6,-32.403 13.199,-25.199 12,-25.199 L 177.602,882 200.398,859.199 216,840 244.801,820.801 264,805.199 l 31.199,-9.597 30,-9.602 21.602,-9.602 92.398,0 28.801,6 28.801,7.204 22.801,9.597 25.199,15.602 26.398,19.199 18,19.199 19.199,19.199 19.204,28.801 L 640.801,924 654,949.199 660,978 l 9.602,28.8 3.597,25.2 0,32.4 -3.597,28.8 -9.602,28.8 -6,25.2" inkscape:connector-curvature="0" id="path30" style="stroke:#000000;stroke-width:8;stroke-miterlimit:4;stroke-dasharray:none;fill:none;stroke-opacity:1"/>
      <path d="m 794.398,175.199 -240,643.199" inkscape:connector-curvature="0" id="path32" style="stroke:#000000;stroke-width:8;stroke-miterlimit:4;stroke-dasharray:none;fill:none;stroke-opacity:1"/>
      <path d="m 404.398,169.199 0,603.602" inkscape:connector-curvature="0" id="path34" style="stroke:#000000;stroke-width:8;stroke-miterlimit:4;stroke-dasharray:none;fill:none;stroke-opacity:1"/>
      <path d="M 14.3984,175.199 241.199,814.801" inkscape:connector-curvature="0" id="path36" style="stroke:#000000;stroke-width:8;stroke-miterlimit:4;stroke-dasharray:none;fill:none;stroke-opacity:1"/>
      <path d="m 1126.8,1321.2 -38.4,-19.2 -28.8,-34.8 -9.6,-28.8 -6,-28.8 9.6,-44.4 21.6,-28.8 22.8,-19.2 38.4,-13.2 28.8,-9.6 34.8,0 38.4,15.6 32.4,16.8 19.2,22.8 22.8,31.2 15.6,38.4 9.6,31.2 2.4,32.4 -2.4,22.8 -7.2,38.4 -15.6,31.2 -25.2,32.4 -25.2,22.8 -22.8,9.6 -22.8,9.6 -31.2,2.4 -26.4,3.6 -31.2,0 -39.6,-3.6 -40.8,-12 -36,-19.2 -21.602,-19.2 -25.199,-22.8 L 948,1356 l -19.199,-34.8 -20.403,-34.8 -6,-31.2 -6,-45.6 -3.597,-44.4 3.597,-36 3.602,-50.4 19.199,-51.6 L 948,969.602 998.398,902.398 1078.8,825.602 1194,733.199 1443.6,592.801" inkscape:connector-curvature="0" id="path38" style="stroke:#000000;stroke-width:8;stroke-miterlimit:4;stroke-dasharray:none;fill:none;stroke-opacity:1"/>
      <path d="m 1398,31.1992 -178.8,-20.3984 -160.8,30 -120.002,110.3982 -49.199,259.199 150.001,80.403 448.8,9.597 129.6,-109.199 10.8,-180 -60,-149.9998 -170.4,-30" inkscape:connector-curvature="0" id="path40" style="stroke:#000000;stroke-width:8;stroke-miterlimit:4;stroke-dasharray:none;fill:none;stroke-opacity:1"/>
      <path d="m 1398,31.1992 -178.8,-20.3984 -160.8,30 -120.002,110.3982 -49.199,259.199 150.001,80.403 448.8,9.597 129.6,-109.199 10.8,-180 -60,-149.9998 -170.4,-30 z" inkscape:connector-curvature="0" id="path42" style="stroke:#000000;stroke-width:8;stroke-miterlimit:4;stroke-dasharray:none;fill:none;stroke-opacity:1"/>
    </g>
  </g>
</svg>
