<?xml version="1.0" encoding="UTF-8"?>
<!-- Created with Inkscape (http://www.inkscape.org/) -->
<svg xmlns:dc="http://purl.org/dc/elements/1.1/" xmlns:cc="http://creativecommons.org/ns#" xmlns:rdf="http://www.w3.org/1999/02/22-rdf-syntax-ns#" xmlns:svg="http://www.w3.org/2000/svg" xmlns="http://www.w3.org/2000/svg" xmlns:inkscape="http://www.inkscape.org/namespaces/inkscape" version="1.1" width="765" height="990" id="svg2" xml:space="preserve">
  <metadata id="metadata8">
    <rdf:RDF>
      <cc:Work rdf:about="">
        <dc:format>image/svg+xml</dc:format>
        <dc:type rdf:resource="http://purl.org/dc/dcmitype/StillImage"/>
      </cc:Work>
    </rdf:RDF>
  </metadata>
  <defs id="defs6"/>
  <g transform="matrix(1.25,0,0,-1.25,0,990)" id="g10">
    <g transform="scale(0.1,0.1)" id="g12">
      <path d="m 625.199,440.398 -26.398,0 -38.403,-7.199 -37.199,-8.398 -22.801,-10.801 -24,-15.602 -22.796,-15.597 -24,-25.199 -18,-28.801 -13.204,-31.199 -7.199,-39.602 -3.597,-42 3.597,-27.602 9.602,-37.199 15.597,-36 L 438,81.6016 466.801,55.1992 489.602,42 516,28.8008 l 22.801,-7.1992 26.398,-2.4024 57.602,-6 36,2.4024 36,6 31.199,7.1992 21.602,8.3984 18,13.1992 15.597,9.6016 18,15.6016 15.602,21.5976 15.597,22.8008 4.801,15.602 8.403,15.597 4.796,18 2.403,21.602 6,31.199 -2.403,22.801 -3.597,26.398 -9.602,31.199 L 828,336 810,357.602 783.602,382.801 763.199,398.398 741.602,414 700.801,429.602 663.602,438 l -36,2.398" inkscape:connector-curvature="0" id="path14" style="stroke:#000000;stroke-width:8;stroke-miterlimit:4;stroke-dasharray:none;fill:none;stroke-opacity:1"/>
      <path d="m 513.602,420 -21.602,0 -7.199,7.199 -6,8.403 -2.403,15.597 2.403,15.602 8.398,9.597 13.199,6 244.801,0 9.602,-6 8.398,-9.597 2.403,-13.199 0,-8.403 -2.403,-9.597 -6,-8.403 L 747.602,420 726,420" inkscape:connector-curvature="0" id="path16" style="stroke:#000000;stroke-width:8;stroke-miterlimit:4;stroke-dasharray:none;fill:none;stroke-opacity:1"/>
      <path d="m 1382.4,448.801 0,-432.0002 99.6,0 0,432.0002 -99.6,0" inkscape:connector-curvature="0" id="path18" style="stroke:#000000;stroke-width:8;stroke-miterlimit:4;stroke-dasharray:none;fill:none;stroke-opacity:1"/>
      <path d="m 1750.8,1455.6 0,-432 94.8,0 0,432 -94.8,0" inkscape:connector-curvature="0" id="path20" style="stroke:#000000;stroke-width:8;stroke-miterlimit:4;stroke-dasharray:none;fill:none;stroke-opacity:1"/>
      <path d="m 2114.4,448.801 0,-432.0002 99.6,0 0,432.0002 -97.2,0" inkscape:connector-curvature="0" id="path22" style="stroke:#000000;stroke-width:8;stroke-miterlimit:4;stroke-dasharray:none;fill:none;stroke-opacity:1"/>
      <path d="m 420,632.398 159.602,0 -3.602,56.403 13.199,75.597 18,44.403 28.801,70.801 144,251.998 9.602,55.2 0,26.4 -2.403,46.8 -7.199,31.2 -24,38.4 -28.801,37.2 -18,20.4 -46.801,31.2 -26.398,13.2 -36,13.2 -51.602,7.2 -73.199,-7.2 -26.398,-10.8 -31.199,-20.4 -28.801,-28.8 -9.602,-24 -13.199,-20.4 -304.8008,-64.8 -24,-8.4 -12,-13.2 -8.3984,-9.6 -2.4024,-19.2 374.4026,63.6" inkscape:connector-curvature="0" id="path24" style="stroke:#000000;stroke-width:8;stroke-miterlimit:4;stroke-dasharray:none;fill:none;stroke-opacity:1"/>
      <path d="m 16.8008,1215.6 18,-6 37.1992,-2.4 325.199,42 -8.398,36 -20.403,55.2" inkscape:connector-curvature="0" id="path26" style="stroke:#000000;stroke-width:8;stroke-miterlimit:4;stroke-dasharray:none;fill:none;stroke-opacity:1"/>
      <path d="m 402,1249.2 15.602,2.4 26.398,0 88.801,-20.4 40.801,-6 26.398,-2.4 73.199,8.4 22.801,-24 6,-31.2 -3.602,-25.2 -12,-32.4 L 571.199,968.398 504,877.199 l -26.398,-46.801 -28.801,-55.199 -18,-70.801 -10.801,-72" inkscape:connector-curvature="0" id="path28" style="stroke:#000000;stroke-width:8;stroke-miterlimit:4;stroke-dasharray:none;fill:none;stroke-opacity:1"/>
      <path d="m 633.602,1436.4 133.199,-46.8 132,-31.2 55.199,-10.8 46.8,-2.4 55.2,0 64.8,2.4 44.4,10.8 49.2,10.8 4.8,-6 -4.8,-18 -18,-13.2 -62.4,-12 -60,-8.4 -73.2,0 -59.999,4.8 -100.801,19.2 -57.602,18" inkscape:connector-curvature="0" id="path30" style="stroke:#000000;stroke-width:8;stroke-miterlimit:4;stroke-dasharray:none;fill:none;stroke-opacity:1"/>
      <path d="m 691.199,1398 218.403,-112.8 64.796,-27.6 50.402,-16.8 49.2,-12 36,-10.8 67.2,-2.4 28.8,-2.4 15.6,0 10.8,-3.6 2.4,-15.6 -49.2,-15.6 -39.6,-2.4 -51.6,6 -69.6,18 -125.999,49.2 -145.199,82.8" inkscape:connector-curvature="0" id="path32" style="stroke:#000000;stroke-width:8;stroke-miterlimit:4;stroke-dasharray:none;fill:none;stroke-opacity:1"/>
      <path d="m 464.398,1376.4 -15.597,-2.4 -13.199,-15.6 0,-18 13.199,-13.2 18,0 15.597,8.4 2.403,9.6 -4.801,15.6 -10.801,15.6" inkscape:connector-curvature="0" id="path34" style="stroke:#000000;stroke-width:8;stroke-miterlimit:4;stroke-dasharray:none;fill:none;stroke-opacity:1"/>
    </g>
  </g>
</svg>
