<?xml version="1.0" encoding="UTF-8"?>
<!-- Created with Inkscape (http://www.inkscape.org/) -->
<svg xmlns:dc="http://purl.org/dc/elements/1.1/" xmlns:cc="http://creativecommons.org/ns#" xmlns:rdf="http://www.w3.org/1999/02/22-rdf-syntax-ns#" xmlns:svg="http://www.w3.org/2000/svg" xmlns="http://www.w3.org/2000/svg" xmlns:inkscape="http://www.inkscape.org/namespaces/inkscape" version="1.1" width="765" height="990" id="svg2" xml:space="preserve">
  <metadata id="metadata8">
    <rdf:RDF>
      <cc:Work rdf:about="">
        <dc:format>image/svg+xml</dc:format>
        <dc:type rdf:resource="http://purl.org/dc/dcmitype/StillImage"/>
      </cc:Work>
    </rdf:RDF>
  </metadata>
  <defs id="defs6"/>
  <g transform="matrix(1.25,0,0,-1.25,0,990)" id="g10">
    <g transform="scale(0.1,0.1)" id="g12">
      <path d="m 481.199,493.199 190.801,0 -3.602,69.602 19.204,92.398 19.199,54 38.398,86.403 175.199,308.398 9.602,67.2 2.398,32.4 -6,56.4 -9.597,38.4 -15.602,48 -28.801,44.4 -22.796,26.4 -56.403,54 -45.597,15.6 -92.403,9.6 -75.597,-9.6 -32.403,-13.2 L 510,1448.4 474,1410 458.398,1388.4 441.602,1368" inkscape:connector-curvature="0" id="path14" style="stroke:#000000;stroke-width:8;stroke-miterlimit:4;stroke-dasharray:none;fill:none;stroke-opacity:1"/>
      <path d="m 433.199,1365.6 -28.801,-13.2 -311.9996,-60 -28.7968,-22.8 -22.8008,-15.6 -19.1992,-34.8 -6,-51.6 3.5976,-12 9.6016,-7.2 6,0 15.5976,7.2 6,27.6 20.4024,28.8 28.8012,26.4 31.199,8.4 40.801,13.2 258,36 6,2.4 39.597,-6" inkscape:connector-curvature="0" id="path16" style="stroke:#000000;stroke-width:8;stroke-miterlimit:4;stroke-dasharray:none;fill:none;stroke-opacity:1"/>
      <path d="m 435.602,1365.6 45.597,-76.8 0,-42" inkscape:connector-curvature="0" id="path18" style="stroke:#000000;stroke-width:8;stroke-miterlimit:4;stroke-dasharray:none;fill:none;stroke-opacity:1"/>
      <path d="m 63.6016,1188 28.7968,18 47.9996,13.2 123.602,12 124.801,15.6 94.801,0 26.398,-2.4 50.398,-13.2 88.801,-15.6 48,-3.6 34.801,3.6 38.398,9.6 22.801,-13.2 9.602,-15.6 2.398,-37.2 -2.398,-32.4 L 786,1088.4 645.602,903.602 576,792 547.199,734.398 512.398,667.199 493.199,582 l -12,-88.801" inkscape:connector-curvature="0" id="path20" style="stroke:#000000;stroke-width:8;stroke-miterlimit:4;stroke-dasharray:none;fill:none;stroke-opacity:1"/>
      <path d="m 753.602,1483.2 166.796,-60 162.002,-42 67.2,-13.2 57.6,-2.4 69.6,0 75.6,2.4 57.6,13.2 57.6,13.2 6,-6 -6,-22.8 -22.8,-15.6 -75.6,-16.8 -76.8,-9.6 -85.2,0 -74.4,7.2 -123.6,21.6 -70.802,22.8" inkscape:connector-curvature="0" id="path22" style="stroke:#000000;stroke-width:8;stroke-miterlimit:4;stroke-dasharray:none;fill:none;stroke-opacity:1"/>
      <path d="M 849.602,1423.2 974.398,1356 1098,1292.4 l 76.8,-38.4 56.4,-22.8 63.6,-15.6 45.6,-6 82.8,-9.6 34.8,6 15.6,3.6 13.2,-9.6 3.6,-19.2 -48,-15.6 -57.6,-6 -63.6,8.4 -90,20.4 -75.6,24 -73.2,34.8 -178.798,103.2" inkscape:connector-curvature="0" id="path24" style="stroke:#000000;stroke-width:8;stroke-miterlimit:4;stroke-dasharray:none;fill:none;stroke-opacity:1"/>
      <path d="m 582,1404 -19.199,-3.6 -15.602,-19.2 0,-21.6 15.602,-16.8 22.801,0 22.796,9.6 2.403,13.2 -6,19.2 -15.602,19.2" inkscape:connector-curvature="0" id="path26" style="stroke:#000000;stroke-width:8;stroke-miterlimit:4;stroke-dasharray:none;fill:none;stroke-opacity:1"/>
      <path d="m 2214,36 -31.2,2.3984 -33.6,6 -26.4,14.4024 -21.6,14.3984 L 2064,114 l -36,40.801 -33.6,44.398 -16.8,36 -10.8,28.801 -16.8,51.602 -6,62.398 6,28.801 16.8,32.398 27.6,36 -44.4,14.403 -33.6,26.398 -55.2,73.199 38.4,-111.597 26.4,-92.403 3.6,-48 8.4,-38.398 12,-37.199 10.8,-33.602 19.2,-31.199 19.2,-33.602 24,-25.199 26.4,-28.801 20.4,-23.9998 18,-16.8008 10.8,-9.5976 -49.2,16.8008 -52.8,19.1992 -46.8,24.0002 -50.4,50.398 -28.8,39.602 -21.6,36 -20.4,48 -19.2,54 -14.4,52.801 -7.2,49.199 -4.8,40.801 4.8,43.199 12,33.597 40.8,54 20.4,24 -55.2,24 -42,33.602 -46.8,66 27.6,-99.602 28.8,-98.398 -4.8,-66 2.4,-50.398 9.6,-49.204 7.2,-45.597 14.4,-40.801 14.4,-34.801 15.6,-36 24,-45.597 60,-73.204 -48,26.403 -45.6,28.801 -49.2,42 -50.4,48 -32.4,51.597 -16.8,50.403 -12,55.199 4.8,51.597 7.2,21.602 14.4,28.801 19.2,21.597 -45.6,22.801 -43.2,33.602 -54,70.801 34.8,-104.403 38.4,-106.801 7.2,-37.199 2.4,-28.801 12,-45.597 22.8,-57.602 20.4,-27.597 28.8,-31.204 22.8,-24 33.6,-28.796 32.4,-24 43.2,-25.204 48,-28.796 111.6,-45.602 92.4,-30 69.6,-12 28.8,-4.8008 0,14.4024" inkscape:connector-curvature="0" id="path28" style="stroke:#000000;stroke-width:8;stroke-miterlimit:4;stroke-dasharray:none;fill:none;stroke-opacity:1"/>
      <path d="m 1070.4,12 -715.201,0 8.403,60 9.597,40.801 15.602,38.398 20.398,30 18,27.602 25.199,33.597 26.403,24 33.597,25.204 27.602,18 39.602,18 39.597,12 26.403,6 49.199,7.199 36,0 33.597,-7.199 36,-6 39.602,-8.403 27.602,-9.597 36,-24 30,-21.602 27.597,-21.602 24,-30 25.201,-33.597 20.4,-32.403 15.6,-31.199 12,-45.5974 L 1068,49.1992 1070.4,12" inkscape:connector-curvature="0" id="path30" style="stroke:#000000;stroke-width:8;stroke-miterlimit:4;stroke-dasharray:none;fill:none;stroke-opacity:1"/>
      <path d="M 1831.2,892.801 2187.6,1236" inkscape:connector-curvature="0" id="path32" style="stroke:#000000;stroke-width:8;stroke-miterlimit:4;stroke-dasharray:none;fill:none;stroke-opacity:1"/>
      <path d="m 1701.6,942 439.2,421.2" inkscape:connector-curvature="0" id="path34" style="stroke:#000000;stroke-width:8;stroke-miterlimit:4;stroke-dasharray:none;fill:none;stroke-opacity:1"/>
      <path d="m 1616.4,1033.2 440.4,420" inkscape:connector-curvature="0" id="path36" style="stroke:#000000;stroke-width:8;stroke-miterlimit:4;stroke-dasharray:none;fill:none;stroke-opacity:1"/>
      <path d="m 1572,1161.6 352.8,336" inkscape:connector-curvature="0" id="path38" style="stroke:#000000;stroke-width:8;stroke-miterlimit:4;stroke-dasharray:none;fill:none;stroke-opacity:1"/>
      <path d="m 2008.8,1478.4 -28.8,8.4 -31.2,10.8 -33.6,4.8 -32.4,0 -36,-2.4 -30,-2.4 -32.4,-10.8 -30,-12 -31.2,-13.2 -27.6,-19.2 -21.6,-19.2 -21.6,-21.6 -16.8,-20.4 -16.8,-24 -19.2,-36 -7.2,-26.4 -8.4,-31.2 -6,-30 -6,-36 0,-30 6,-36 8.4,-30 8.4,-27.6 14.4,-30 7.2,-16.8 10.8,-13.2 27.6,-31.199 27.6,-27.602 25.2,-18 30,-16.801 32.4,-16.796 33.6,-8.403 27.6,-8.398 32.4,0 33.6,-2.403 38.4,6 26.4,4.801 33.6,14.403 33.6,15.597 21.6,12 25.2,21.602 24,21.597 25.2,25.202 19.2,30 19.2,27.6 13.2,27.6 8.4,32.4 2.4,30 6,36 -2.4,31.2 -3.6,34.8 -8.4,30 -10.8,27.6 -13.2,36 -19.2,27.6 -19.2,21.6 -22.8,27.6 -27.6,19.2 -27.6,19.2 -30,14.4" inkscape:connector-curvature="0" id="path40" style="stroke:#000000;stroke-width:8;stroke-miterlimit:4;stroke-dasharray:none;fill:none;stroke-opacity:1"/>
    </g>
  </g>
</svg>
