<?xml version="1.0" encoding="UTF-8"?>
<!-- Created with Inkscape (http://www.inkscape.org/) -->
<svg xmlns:dc="http://purl.org/dc/elements/1.1/" xmlns:cc="http://creativecommons.org/ns#" xmlns:rdf="http://www.w3.org/1999/02/22-rdf-syntax-ns#" xmlns:svg="http://www.w3.org/2000/svg" xmlns="http://www.w3.org/2000/svg" xmlns:inkscape="http://www.inkscape.org/namespaces/inkscape" version="1.1" width="765" height="990" id="svg2" xml:space="preserve">
  <metadata id="metadata8">
    <rdf:RDF>
      <cc:Work rdf:about="">
        <dc:format>image/svg+xml</dc:format>
        <dc:type rdf:resource="http://purl.org/dc/dcmitype/StillImage"/>
      </cc:Work>
    </rdf:RDF>
  </metadata>
  <defs id="defs6"/>
  <g transform="matrix(1.25,0,0,-1.25,0,990)" id="g10">
    <g transform="scale(0.1,0.1)" id="g12">
      <path d="m 339.602,877.199 0,-860.3982 68.398,0 0,860.3982" inkscape:connector-curvature="0" id="path14" style="stroke:#000000;stroke-width:8;stroke-miterlimit:4;stroke-dasharray:none;fill:none;stroke-opacity:1"/>
      <path d="m 14.3984,880.801 718.8006,0 0,226.799 -13.199,25.2 -12,15.6 -32.398,0 -19.204,-3.6 -19.199,-12 -63.597,-57.6 L 516,1023.6 471.602,1002 416.398,988.801 372,985.199 331.199,988.801 276,1002 l -44.398,21.6 -57.602,51.6 -64.801,57.6 -17.9998,12 -19.1992,3.6 -32.3984,0 -13.2032,-15.6 -12,-25.2 0,-226.799" inkscape:connector-curvature="0" id="path16" style="stroke:#000000;stroke-width:8;stroke-miterlimit:4;stroke-dasharray:none;fill:none;stroke-opacity:1"/>
      <path d="m 506.398,1023.6 -57.597,378 -25.199,31.2 -19.204,13.2 -25.199,9.6 -10.801,0 -25.199,-9.6 -19.199,-13.2 -25.199,-31.2 -57.602,-378" inkscape:connector-curvature="0" id="path18" style="stroke:#000000;stroke-width:8;stroke-miterlimit:4;stroke-dasharray:none;fill:none;stroke-opacity:1"/>
      <path d="m 936,1014 87.6,-344.398 285.6,0 88.8,344.398 -462,0" inkscape:connector-curvature="0" id="path20" style="stroke:#000000;stroke-width:8;stroke-miterlimit:4;stroke-dasharray:none;fill:none;stroke-opacity:1"/>
      <path d="m 1227.6,1014 -4.8,39.6 -15.6,39.6 -27.6,33.6 -30,25.2 -34.8,24 -20.4,25.2 -9.6,34.8 7.2,38.4 -2.4,37.2 -13.2,34.8 -22.8,31.2 -27.6,22.8 -30,21.6 -25.199,20.4 -14.403,18 0,-15.6 9.602,-25.2 22.801,-27.6 22.799,-27.6 14.4,-20.4 7.2,-27.6 3.6,-21.6 -6,-32.4 -7.2,-26.4 0,-34.8 9.6,-25.2 25.2,-34.8 28.8,-27.6 24,-22.8 13.2,-22.8 2.4,-19.2 0,-20.4 -4.8,-14.4" inkscape:connector-curvature="0" id="path22" style="stroke:#000000;stroke-width:8;stroke-miterlimit:4;stroke-dasharray:none;fill:none;stroke-opacity:1"/>
      <path d="M 1108.8,28.8008 1435.2,343.199" inkscape:connector-curvature="0" id="path24" style="stroke:#000000;stroke-width:8;stroke-miterlimit:4;stroke-dasharray:none;fill:none;stroke-opacity:1"/>
      <path d="M 991.199,74.3984 1393.2,458.398" inkscape:connector-curvature="0" id="path26" style="stroke:#000000;stroke-width:8;stroke-miterlimit:4;stroke-dasharray:none;fill:none;stroke-opacity:1"/>
      <path d="m 913.199,157.199 402.001,384" inkscape:connector-curvature="0" id="path28" style="stroke:#000000;stroke-width:8;stroke-miterlimit:4;stroke-dasharray:none;fill:none;stroke-opacity:1"/>
      <path d="m 873.602,274.801 320.398,306" inkscape:connector-curvature="0" id="path30" style="stroke:#000000;stroke-width:8;stroke-miterlimit:4;stroke-dasharray:none;fill:none;stroke-opacity:1"/>
      <path d="m 1272,564 -27.6,7.199 -27.6,9.602 -30,6 -30,0 -32.4,-2.403 -27.6,-3.597 -30,-9.602 -27.6,-10.801 -27.6,-12 -25.202,-18 -20.398,-16.796 -20.398,-20.403 -14.403,-18 -15.597,-21.597 -16.801,-33.602 -8.403,-25.199 -7.199,-27.602 -4.801,-26.398 -4.796,-33.602 0,-27.597 4.796,-32.403 7.204,-27.597 7.199,-25.204 13.199,-27.597 7.199,-15.602 9.602,-12 L 948,111.602 974.398,86.3984 996,69.6016 1023.6,54 l 30,-15.6016 31.2,-7.1992 24,-7.1992 30,0 30,-2.3984 36,4.7968 25.2,4.8008 30,12 30,15.6016 19.2,10.8008 24,19.1992 21.6,20.3982 22.8,22.801 18,27.602 16.8,24 13.2,26.398 7.2,30 2.4,27.602 4.8,32.398 -2.4,27.602 -2.4,32.398 -7.2,27.602 -10.8,25.199 -12,32.398 -18,25.199 -16.8,20.403 -20.4,25.199 -25.2,16.801 -25.2,18 L 1272,564" inkscape:connector-curvature="0" id="path32" style="stroke:#000000;stroke-width:8;stroke-miterlimit:4;stroke-dasharray:none;fill:none;stroke-opacity:1"/>
      <path d="m 1887.6,421.199 45.6,-111.597 -28.8,-7.204 -45.6,118.801" inkscape:connector-curvature="0" id="path34" style="stroke:#000000;stroke-width:8;stroke-miterlimit:4;stroke-dasharray:none;fill:none;stroke-opacity:1"/>
      <path d="m 1776,663.602 -121.2,364.798 -7.2,51.6 4.8,31.2 18,22.8 32.4,19.2 48,13.2 38.4,-7.2 38.4,-25.2 28.8,-51.6 2.4,-54 -2.4,-22.8 -9.6,-28.799 -16.8,-19.199 -18,7.199 9.6,34.801 2.4,25.198 -2.4,28.8 -3.6,16.8 -19.2,31.2 -28.8,22.8 -28.8,0 -28.8,-7.2 -16.8,-18 -15.6,-32.4 3.6,-26.4 128.4,-376.798" inkscape:connector-curvature="0" id="path36" style="stroke:#000000;stroke-width:8;stroke-miterlimit:4;stroke-dasharray:none;fill:none;stroke-opacity:1"/>
      <path d="m 3253.2,452.398 -1202.4,0 -40.8,-2.398 -36,-9.602 -92.4,-19.199 -117.6,0 -32.4,15.602 -28.8,15.597 -13.2,13.204 -6,32.398 -3.6,50.398 7.2,38.403 L 1722,612" inkscape:connector-curvature="0" id="path38" style="stroke:#000000;stroke-width:8;stroke-miterlimit:4;stroke-dasharray:none;fill:none;stroke-opacity:1"/>
      <path d="m 1840.8,609.602 -55.2,-3.602 -50.4,3.602 -55.2,15.597 -27.6,20.403 -16.8,18 -3.6,19.199 70.8,-19.199 178.8,-2.403 51.6,-15.597 73.2,-64.801 25.2,-3.602 28.8,7.199 57.6,12 151.2,28.801 142.8,20.403 130.8,2.398 174,-13.199 148.8,-19.199 145.2,-31.204" inkscape:connector-curvature="0" id="path40" style="stroke:#000000;stroke-width:8;stroke-miterlimit:4;stroke-dasharray:none;fill:none;stroke-opacity:1"/>
      <path d="m 3253.2,452.398 -25.2,608.402 -170.4,0 -44.4,-476.402" inkscape:connector-curvature="0" id="path42" style="stroke:#000000;stroke-width:8;stroke-miterlimit:4;stroke-dasharray:none;fill:none;stroke-opacity:1"/>
    </g>
  </g>
</svg>
