<?xml version="1.0" encoding="UTF-8"?>
<!-- Created with Inkscape (http://www.inkscape.org/) -->
<svg xmlns:dc="http://purl.org/dc/elements/1.1/" xmlns:cc="http://creativecommons.org/ns#" xmlns:rdf="http://www.w3.org/1999/02/22-rdf-syntax-ns#" xmlns:svg="http://www.w3.org/2000/svg" xmlns="http://www.w3.org/2000/svg" xmlns:inkscape="http://www.inkscape.org/namespaces/inkscape" version="1.1" width="765" height="990" id="svg2" xml:space="preserve">
  <metadata id="metadata8">
    <rdf:RDF>
      <cc:Work rdf:about="">
        <dc:format>image/svg+xml</dc:format>
        <dc:type rdf:resource="http://purl.org/dc/dcmitype/StillImage"/>
      </cc:Work>
    </rdf:RDF>
  </metadata>
  <defs id="defs6"/>
  <g transform="matrix(1.25,0,0,-1.25,0,990)" id="g10">
    <g transform="scale(0.1,0.1)" id="g12">
      <path d="m 321.602,912 790.798,0 0,-31.199 31.2,-4.801 49.2,-15.602 33.6,-21.597 44.4,-31.199 39.6,-42 36,-49.204 26.4,-49.199 22.8,-62.398 15.6,-62.403 8.4,-104.398 -8.4,-54 -22.8,-62.398 -28.8,-28.801 -24,-6 -36,3.597 -28.8,22.801 -13.2,28.801 -4.8,31.199 -2.4,22.801 7.2,81.602 10.8,87.597 -7.2,91.199 -24,66 -33.6,51.602 -33.6,38.398 -39.6,15.602 -18,0 0,-27.602 -104.4,0 0,-55.199 -153.602,0 0,55.199 -280.796,0 0,-55.199 -148.801,0 0,55.199 -103.199,0" inkscape:connector-curvature="0" id="path14" style="stroke:#000000;stroke-width:8;stroke-miterlimit:4;stroke-dasharray:none;fill:none;stroke-opacity:1"/>
      <path d="m 368.398,912 100.801,496.8 18,31.2 13.199,10.8 15.602,4.8 24,0 22.801,-13.2 6,-15.6 0,-18" inkscape:connector-curvature="0" id="path16" style="stroke:#000000;stroke-width:8;stroke-miterlimit:4;stroke-dasharray:none;fill:none;stroke-opacity:1"/>
      <path d="m 466.801,912 104.398,499.2 13.199,24 13.204,13.2 22.796,4.8 24,-8.4 12,-9.6 8.403,-15.6" inkscape:connector-curvature="0" id="path18" style="stroke:#000000;stroke-width:8;stroke-miterlimit:4;stroke-dasharray:none;fill:none;stroke-opacity:1"/>
      <path d="m 560.398,912 102,496.8 10.801,24 18,15.6 20.403,2.4 24,-2.4 18,-15.6 4.796,-21.6" inkscape:connector-curvature="0" id="path20" style="stroke:#000000;stroke-width:8;stroke-miterlimit:4;stroke-dasharray:none;fill:none;stroke-opacity:1"/>
      <path d="m 654,912 102,492 15.602,28.8 18,15.6 31.199,2.4 10.801,-2.4 15.597,-10.8 7.199,-26.4" inkscape:connector-curvature="0" id="path22" style="stroke:#000000;stroke-width:8;stroke-miterlimit:4;stroke-dasharray:none;fill:none;stroke-opacity:1"/>
      <path d="m 753.602,912 98.398,489.6 10.801,25.2 10.801,15.6 22.796,10.8 28.801,-4.8 20.403,-13.2 8.398,-18" inkscape:connector-curvature="0" id="path24" style="stroke:#000000;stroke-width:8;stroke-miterlimit:4;stroke-dasharray:none;fill:none;stroke-opacity:1"/>
      <path d="m 854.398,912 94.801,486 7.199,26.4 15.602,20.4 26.398,6 4.802,2.4 24,-10.8 15.6,-15.6 0,-15.6" inkscape:connector-curvature="0" id="path26" style="stroke:#000000;stroke-width:8;stroke-miterlimit:4;stroke-dasharray:none;fill:none;stroke-opacity:1"/>
      <path d="m 943.199,912 99.601,501.6 9.6,21.6 13.2,13.2 15.6,2.4 24,0 20.4,-8.4 10.8,-15.6 4.8,-25.2 -102,-489.6 -717.598,0 0,-33.602 -37.204,-6 -49.199,-15.597 -36,-20.403 -42,-33.597 -38.398,-42 -60.0002,-102 L 40.8008,600 21.6016,536.398 14.3984,433.199 21.6016,378 48,318 l 28.8008,-27.602 20.3984,-6 37.1988,2.403 31.204,24 9.597,28.801 6,31.199 2.403,22.801 L 175.199,474 162,562.801 l 8.398,88.801 20.403,64.796 33.597,55.204 34.801,38.398 36,15.602 26.403,2.398 0,-22.801" inkscape:connector-curvature="0" id="path28" style="stroke:#000000;stroke-width:8;stroke-miterlimit:4;stroke-dasharray:none;fill:none;stroke-opacity:1"/>
      <path d="M 585.602,513.602 574.801,540 l -20.403,40.801 -13.199,21.597 351.602,0 -20.403,-37.199 -16.796,-36 -4.801,-15.597" inkscape:connector-curvature="0" id="path30" style="stroke:#000000;stroke-width:8;stroke-miterlimit:4;stroke-dasharray:none;fill:none;stroke-opacity:1"/>
      <path d="M 543.602,411.602 463.199,456 l -18,-62.398 42,-31.204 27.602,-20.398 39.597,-42" inkscape:connector-curvature="0" id="path32" style="stroke:#000000;stroke-width:8;stroke-miterlimit:4;stroke-dasharray:none;fill:none;stroke-opacity:1"/>
      <path d="m 892.801,411.602 78,44.398 20.398,-64.801 -36,-20.398 -42,-39.602 L 884.398,300" inkscape:connector-curvature="0" id="path34" style="stroke:#000000;stroke-width:8;stroke-miterlimit:4;stroke-dasharray:none;fill:none;stroke-opacity:1"/>
      <path d="m 601.199,331.199 4.801,15.602 10.801,18 15.597,19.199 20.403,18 37.199,13.199 22.801,2.403 28.801,-2.403 31.199,-10.801 26.398,-15.597 13.199,-18 12,-15.602 10.801,-28.801 -42,26.403 -31.199,9.597 -25.199,8.403 -21.602,2.398 -25.199,-4.801 -26.398,-6 L 632.398,346.801 612,331.199 601.199,326.398" inkscape:connector-curvature="0" id="path36" style="stroke:#000000;stroke-width:8;stroke-miterlimit:4;stroke-dasharray:none;fill:none;stroke-opacity:1"/>
      <path d="m 616.801,52.8008 42,169.1992 18,24 18,7.199 20.398,6 28.801,-6 21.602,-15.597 9.597,-18 44.403,-169.2036" inkscape:connector-curvature="0" id="path38" style="stroke:#000000;stroke-width:8;stroke-miterlimit:4;stroke-dasharray:none;fill:none;stroke-opacity:1"/>
      <path d="m 721.199,16.8008 -39.597,2.3984 -18,6 -15.602,2.4024 -26.398,13.1992 -18,22.8008 -15.602,24 L 577.199,112.801 570,144 559.199,186 543.602,404.398 546,442.801 552,462 l 2.398,15.602 13.204,20.398 15.597,15.602 25.199,15.597 24,7.199 20.403,3.602 62.398,4.801 L 788.398,540 819.602,534 846,518.398 861.602,508.801 874.801,487.199 888,446.398 890.398,411.602 877.199,222 872.398,170.398 855.602,112.801 846,87.6016 830.398,61.1992 819.602,48 804,34.8008 l -18,-9.6016 -24,-6 -40.801,-2.3984" inkscape:connector-curvature="0" id="path40" style="stroke:#000000;stroke-width:8;stroke-miterlimit:4;stroke-dasharray:none;fill:none;stroke-opacity:1"/>
      <path d="m 1672.8,1080 0,-576 102,0 0,576 -102,0" inkscape:connector-curvature="0" id="path42" style="stroke:#000000;stroke-width:8;stroke-miterlimit:4;stroke-dasharray:none;fill:none;stroke-opacity:1"/>
      <path d="m 2184,1080 0,-576 105.6,0 0,576 -105.6,0" inkscape:connector-curvature="0" id="path44" style="stroke:#000000;stroke-width:8;stroke-miterlimit:4;stroke-dasharray:none;fill:none;stroke-opacity:1"/>
      <path d="m 2702.4,1080 0,-576 102,0 0,576 -102,0" inkscape:connector-curvature="0" id="path46" style="stroke:#000000;stroke-width:8;stroke-miterlimit:4;stroke-dasharray:none;fill:none;stroke-opacity:1"/>
    </g>
  </g>
</svg>
