<?xml version="1.0" encoding="UTF-8"?>
<!-- Created with Inkscape (http://www.inkscape.org/) -->
<svg xmlns:dc="http://purl.org/dc/elements/1.1/" xmlns:cc="http://creativecommons.org/ns#" xmlns:rdf="http://www.w3.org/1999/02/22-rdf-syntax-ns#" xmlns:svg="http://www.w3.org/2000/svg" xmlns="http://www.w3.org/2000/svg" xmlns:inkscape="http://www.inkscape.org/namespaces/inkscape" version="1.1" width="765" height="990" id="svg2" xml:space="preserve">
  <metadata id="metadata8">
    <rdf:RDF>
      <cc:Work rdf:about="">
        <dc:format>image/svg+xml</dc:format>
        <dc:type rdf:resource="http://purl.org/dc/dcmitype/StillImage"/>
      </cc:Work>
    </rdf:RDF>
  </metadata>
  <defs id="defs6"/>
  <g transform="matrix(1.25,0,0,-1.25,0,990)" id="g10">
    <g transform="scale(0.1,0.1)" id="g12">
      <path d="m 480,481.199 193.199,0 -3.597,70.801 19.199,92.398 19.199,54 38.398,86.403 175.204,310.799 9.597,67.2 3.602,31.2 -7.199,57.6 -8.403,39.6 -16.801,46.8 -28.796,45.6 -22.801,25.2 -56.403,54 -45.597,16.8 -92.403,9.6 -76.796,-9.6 -31.204,-13.2 -39.597,-25.2 L 474,1402.8 458.398,1380 442.801,1360.8" inkscape:connector-curvature="0" id="path14" style="stroke:#000000;stroke-width:8;stroke-miterlimit:4;stroke-dasharray:none;fill:none;stroke-opacity:1"/>
      <path d="m 433.199,1357.2 -28.801,-12 -313.1988,-61.2 -28.8008,-22.8 -22.7968,-15.6 -19.2032,-34.8 -6,-51.6 L 18,1146 l 8.3984,-6 7.2032,0 15.5976,6 6,28.8 19.1992,28.8 28.8006,26.4 32.403,9.6 42,12 259.199,36 6,3.6 L 480,1284" inkscape:connector-curvature="0" id="path16" style="stroke:#000000;stroke-width:8;stroke-miterlimit:4;stroke-dasharray:none;fill:none;stroke-opacity:1"/>
      <path d="m 436.801,1357.2 43.199,-76.8 0,-40.8" inkscape:connector-curvature="0" id="path18" style="stroke:#000000;stroke-width:8;stroke-miterlimit:4;stroke-dasharray:none;fill:none;stroke-opacity:1"/>
      <path d="m 62.3984,1178.4 28.8008,19.2 47.9998,13.2 123.602,12 126,16.8 96,0 24,-3.6 51.597,-13.2 90,-15.6 48,-3.6 34.801,3.6 38.403,9.6 22.796,-13.2 L 804,1188 807.602,1149.6 804,1117.2 787.199,1080 646.801,894 577.199,781.199 l -28.801,-57.597 -34.796,-66 -20.403,-86.403 -13.199,-90" inkscape:connector-curvature="0" id="path20" style="stroke:#000000;stroke-width:8;stroke-miterlimit:4;stroke-dasharray:none;fill:none;stroke-opacity:1"/>
      <path d="m 756,1476 165.602,-61.2 163.198,-40.8 67.2,-13.2 57.6,-3.6 69.6,0 76.8,3.6 57.6,13.2 58.8,12 6,-6 -6,-22.8 -22.8,-15.6 -76.8,-15.6 -76.8,-10.8 -86.4,0 -73.2,7.2 -124.8,22.8 -70.799,21.6" inkscape:connector-curvature="0" id="path22" style="stroke:#000000;stroke-width:8;stroke-miterlimit:4;stroke-dasharray:none;fill:none;stroke-opacity:1"/>
      <path d="m 850.801,1414.8 126,-66 124.799,-64.8 76.8,-38.4 56.4,-22.8 63.6,-15.6 45.6,-6 82.8,-9.6 34.8,6 16.8,3.6 12,-9.6 3.6,-19.2 -48,-16.8 -57.6,-6 -63.6,9.6 -90,19.2 -76.8,25.2 -73.2,36 -178.8,102" inkscape:connector-curvature="0" id="path24" style="stroke:#000000;stroke-width:8;stroke-miterlimit:4;stroke-dasharray:none;fill:none;stroke-opacity:1"/>
      <path d="M 583.199,1395.6 564,1393.2 548.398,1374 l 0,-22.8 15.602,-15.6 21.602,0 22.796,9.6 3.602,12 -6,20.4 -16.801,18" inkscape:connector-curvature="0" id="path26" style="stroke:#000000;stroke-width:8;stroke-miterlimit:4;stroke-dasharray:none;fill:none;stroke-opacity:1"/>
      <path d="m 998.398,12 -754.796,0 9.597,63.6016 9.602,42.0004 15.597,40.796 22.801,32.403 19.199,28.801 26.403,34.796 28.801,26.403 34.796,25.199 28.801,19.199 40.801,19.199 42,13.204 28.801,6 50.398,6 39.602,0 34.801,-6 38.398,-6 40.801,-9.602 28.801,-9.602 39.597,-26.398 31.199,-21.602 28.801,-22.796 25.199,-32.403 26.403,-34.801 21.597,-34.796 L 972,133.199 985.199,85.1992 994.801,50.3984 998.398,12" inkscape:connector-curvature="0" id="path28" style="stroke:#000000;stroke-width:8;stroke-miterlimit:4;stroke-dasharray:none;fill:none;stroke-opacity:1"/>
      <path d="m 1731.6,1501.2 0,-576.001 103.2,0 0,576.001 -103.2,0" inkscape:connector-curvature="0" id="path30" style="stroke:#000000;stroke-width:8;stroke-miterlimit:4;stroke-dasharray:none;fill:none;stroke-opacity:1"/>
      <path d="m 2244,1501.2 0,-576.001 104.4,0 0,576.001 -104.4,0" inkscape:connector-curvature="0" id="path32" style="stroke:#000000;stroke-width:8;stroke-miterlimit:4;stroke-dasharray:none;fill:none;stroke-opacity:1"/>
      <path d="m 2761.2,1501.2 0,-576.001 102,0 0,576.001 -102,0" inkscape:connector-curvature="0" id="path34" style="stroke:#000000;stroke-width:8;stroke-miterlimit:4;stroke-dasharray:none;fill:none;stroke-opacity:1"/>
      <path d="M 2088,84 2306.4,283.199 2510.4,84" inkscape:connector-curvature="0" id="path36" style="stroke:#000000;stroke-width:8;stroke-miterlimit:4;stroke-dasharray:none;fill:none;stroke-opacity:1"/>
      <path d="M 2593.2,174 2402.4,369.602 2606.4,564" inkscape:connector-curvature="0" id="path38" style="stroke:#000000;stroke-width:8;stroke-miterlimit:4;stroke-dasharray:none;fill:none;stroke-opacity:1"/>
      <path d="m 2516.4,663.602 -204,-194.403 -204,210" inkscape:connector-curvature="0" id="path40" style="stroke:#000000;stroke-width:8;stroke-miterlimit:4;stroke-dasharray:none;fill:none;stroke-opacity:1"/>
      <path d="m 2018.4,592.801 198,-211.199 -211.2,-200.403" inkscape:connector-curvature="0" id="path42" style="stroke:#000000;stroke-width:8;stroke-miterlimit:4;stroke-dasharray:none;fill:none;stroke-opacity:1"/>
      <path d="m 2274,18 90,2.3984 51.6,13.2032 43.2,19.1992 51.6,34.8008 38.4,36.0004 38.4,40.796 25.2,42 26.4,44.403 13.2,44.398 6,51.602 0,51.597 -16.8,88.801 -19.2,48 -28.8,48 -31.2,45.602 -48,40.801 -38.4,26.398 -38.4,15.602 -34.8,12 -48,10.796 -48,2.403 -64.8,0 -50.4,-13.199 -48,-18 -44.4,-26.403 -42,-34.801 -38.4,-44.398 -34.8,-45.602 -15.6,-31.199 -13.2,-36 -13.2,-60 0,-57.597 6,-42 7.2,-44.403 15.6,-45.597 22.8,-50.403 38.4,-48 38.4,-36 44.4,-34.8006 44.4,-21.5976 L 2214,26.3984 2274,18" inkscape:connector-curvature="0" id="path44" style="stroke:#000000;stroke-width:8;stroke-miterlimit:4;stroke-dasharray:none;fill:none;stroke-opacity:1"/>
    </g>
  </g>
</svg>
