<?xml version="1.0" encoding="UTF-8"?>
<!-- Created with Inkscape (http://www.inkscape.org/) -->
<svg xmlns:dc="http://purl.org/dc/elements/1.1/" xmlns:cc="http://creativecommons.org/ns#" xmlns:rdf="http://www.w3.org/1999/02/22-rdf-syntax-ns#" xmlns:svg="http://www.w3.org/2000/svg" xmlns="http://www.w3.org/2000/svg" xmlns:inkscape="http://www.inkscape.org/namespaces/inkscape" version="1.1" width="765" height="990" id="svg2" xml:space="preserve">
  <metadata id="metadata8">
    <rdf:RDF>
      <cc:Work rdf:about="">
        <dc:format>image/svg+xml</dc:format>
        <dc:type rdf:resource="http://purl.org/dc/dcmitype/StillImage"/>
      </cc:Work>
    </rdf:RDF>
  </metadata>
  <defs id="defs6"/>
  <g transform="matrix(1.25,0,0,-1.25,0,990)" id="g10">
    <g transform="scale(0.1,0.1)" id="g12">
      <path d="m 612,466.801 -30,2.398 -49.199,-2.398 -34.801,4.801 -12,-4.801 -7.199,-10.801 2.398,-19.199 13.199,-44.403 26.403,-43.199 86.398,-102 43.199,-40.801 63.602,-60 135.602,-133.1988 14.398,0 3.602,7.1992 -4.801,13.2032 L 804,165.602 795.602,190.801 752.398,297.602 711.602,366 l -31.204,44.398 -24,31.204 -19.199,31.199 -20.398,27.597 -25.199,28.801 -25.204,16.801 -7.199,28.801 -4.801,32.398 -8.398,20.403 -22.801,6 -39.597,0 -43.204,-2.403 -20.398,-4.801 -9.602,-3.597 -70.796,-9.602 -20.403,-9.597 L 312,594 l -1.199,-19.199 8.398,14.398 13.199,6 42,0 43.204,-1.199 21.597,-4.801 -18,21.602 -3.597,15.597" inkscape:connector-curvature="0" id="path14" style="stroke:#000000;stroke-width:8;stroke-miterlimit:4;stroke-dasharray:none;fill:none;stroke-opacity:1"/>
      <path d="m 463.199,596.398 3.602,1.204 2.398,7.199 -2.398,7.199 -4.801,4.801 -6,-4.801 -1.199,-8.398 2.398,-4.801 4.801,-2.403" inkscape:connector-curvature="0" id="path16" style="stroke:#000000;stroke-width:8;stroke-miterlimit:4;stroke-dasharray:none;fill:none;stroke-opacity:1"/>
      <path d="m 318,583.199 55.199,1.199 43.199,-6 12,-6 4.801,-14.398 1.199,-14.398 -13.199,-31.204 -4.801,-37.199 6,-45.597 6,-20.403 15.602,-42 18,-32.398 43.199,-74.403 56.403,-106.796 4.796,-42 -7.199,-69.602 -6,-7.1992 L 512.398,30 l -46.796,1.1992 -2.403,-6 L 441.602,22.8008 439.199,18 444,12 l 118.801,4.8008 122.398,-6 6,6 L 687.602,24 668.398,24 657.602,33.6016 588,34.8008 578.398,39.6016 588,127.199 638.398,100.801 667.199,187.199 722.398,49.1992 741.602,24 l 19.199,-12 30,0 15.597,6 4.801,8.3984 L 798,63.6016" inkscape:connector-curvature="0" id="path18" style="stroke:#000000;stroke-width:8;stroke-miterlimit:4;stroke-dasharray:none;fill:none;stroke-opacity:1"/>
      <path d="m 454.801,344.398 18,-100.796 -1.199,-78 -14.403,-78.0004 -12,-40.8008 -8.398,-9.6016 -66,-3.5976 L 363.602,24 348,22.8008 343.199,18 348,12 l 51.602,4.8008 15.597,-2.4024" inkscape:connector-curvature="0" id="path20" style="stroke:#000000;stroke-width:8;stroke-miterlimit:4;stroke-dasharray:none;fill:none;stroke-opacity:1"/>
      <path d="m 464.398,31.1992 -24,-2.3984 0,0 -13.199,-2.4024 -8.398,-12 4.801,-2.3984 9.597,8.3984 7.199,2.4024" inkscape:connector-curvature="0" id="path22" style="stroke:#000000;stroke-width:8;stroke-miterlimit:4;stroke-dasharray:none;fill:none;stroke-opacity:1"/>
      <path d="m 463.199,33.6016 30,112.7964 46.801,-27.597 9.602,50.398" inkscape:connector-curvature="0" id="path24" style="stroke:#000000;stroke-width:8;stroke-miterlimit:4;stroke-dasharray:none;fill:none;stroke-opacity:1"/>
      <path d="m 367.199,31.1992 -22.801,-2.3984 0,0 -14.398,-2.4024 -7.199,-12 3.597,-2.3984 9.602,8.3984 10.801,2.4024" inkscape:connector-curvature="0" id="path26" style="stroke:#000000;stroke-width:8;stroke-miterlimit:4;stroke-dasharray:none;fill:none;stroke-opacity:1"/>
      <path d="M 661.199,33.6016 686.398,30 699.602,26.3984 708,14.3984 703.199,12 l -9.597,8.3984 -7.204,2.4024" inkscape:connector-curvature="0" id="path28" style="stroke:#000000;stroke-width:8;stroke-miterlimit:4;stroke-dasharray:none;fill:none;stroke-opacity:1"/>
      <path d="m 1201.2,464.398 -30,2.403 -49.2,-2.403 -36,4.801 -10.8,-4.801 -8.4,-10.796 2.4,-19.204 14.4,-44.398 26.4,-43.199 85.2,-102 44.4,-40.801 63.6,-60 135.6,-133.1992 13.2,0 4.8,7.1992 -6,12 -57.6,133.199 -8.4,25.199 -44.4,106.801 -39.6,68.403 -32.4,44.398 -22.8,31.199 -20.4,31.199 -20.4,27.602 -25.2,28.801 -24,16.801 -7.2,28.796 -6,32.403 -8.4,20.398 -22.8,4.801 -39.6,0 -42,-1.199 -20.4,-4.801 -9.598,-3.602 -70.801,-9.597 -20.403,-9.602 -7.199,-9.597 -1.199,-19.204 8.398,14.403 13.204,6 42,0 41.998,-1.199 22.8,-4.801 -18,21.597 -4.8,15.602" inkscape:connector-curvature="0" id="path30" style="stroke:#000000;stroke-width:8;stroke-miterlimit:4;stroke-dasharray:none;fill:none;stroke-opacity:1"/>
      <path d="m 1051.2,594 4.8,1.199 2.4,7.199 -2.4,7.204 -6,3.597 -4.8,-3.597 -1.2,-8.403 2.4,-4.801 3.6,-2.398" inkscape:connector-curvature="0" id="path32" style="stroke:#000000;stroke-width:8;stroke-miterlimit:4;stroke-dasharray:none;fill:none;stroke-opacity:1"/>
      <path d="m 907.199,580.801 54,1.199 43.201,-6 13.2,-6 3.6,-14.398 1.2,-14.403 -12,-31.199 -6,-37.199 7.2,-45.602 6,-20.398 14.4,-42 18,-32.403 43.2,-74.398 56.4,-106.801 6,-42 -7.2,-69.5974 -7.2,-8.4024 -39.6,-3.5976 -46.8,1.1992 -3.6,-6 -20.4,-2.4024 -2.4,-4.7968 3.6,-6.00004 120,4.79684 122.4,-5.99996 4.8,5.99996 -2.4,7.2032 -19.2,0 -10.8,8.3984 -70.8,1.1992 -8.4,6 8.4,87.6018 51.6,-26.4026 28.8,85.2036 55.2,-138.0004 19.2,-24 19.2,-12.00004 28.8,0 16.8,6.00004 4.8,8.3984 -14.4,37.1992" inkscape:connector-curvature="0" id="path34" style="stroke:#000000;stroke-width:8;stroke-miterlimit:4;stroke-dasharray:none;fill:none;stroke-opacity:1"/>
      <path d="m 1044,342 18,-100.801 -2.4,-78 -13.2,-77.9998 -13.2,-40.8008 -8.4,-9.5976 L 958.801,30 l -6,-8.3984 -15.602,-1.2032 -6,-4.7968 6,-6.00004 50.403,4.79684 L 1003.2,12" inkscape:connector-curvature="0" id="path36" style="stroke:#000000;stroke-width:8;stroke-miterlimit:4;stroke-dasharray:none;fill:none;stroke-opacity:1"/>
      <path d="m 1052.4,28.8008 -22.8,-2.4024 0,0 -13.2,-2.3984 -9.6,-12 6,-2.39844 8.4,8.39844 8.4,2.3984" inkscape:connector-curvature="0" id="path38" style="stroke:#000000;stroke-width:8;stroke-miterlimit:4;stroke-dasharray:none;fill:none;stroke-opacity:1"/>
      <path d="m 1051.2,30 31.2,114 46.8,-27.602 9.6,50.403" inkscape:connector-curvature="0" id="path40" style="stroke:#000000;stroke-width:8;stroke-miterlimit:4;stroke-dasharray:none;fill:none;stroke-opacity:1"/>
      <path d="m 955.199,28.8008 -22.801,-2.4024 0,0 L 919.199,24 910.801,12 914.398,9.60156 925.199,18 936,20.3984" inkscape:connector-curvature="0" id="path42" style="stroke:#000000;stroke-width:8;stroke-miterlimit:4;stroke-dasharray:none;fill:none;stroke-opacity:1"/>
      <path d="m 1249.2,30 26.4,-2.3984 12,-3.6016 8.4,-12 -3.6,-2.39844 -9.6,8.39844 -7.2,2.3984" inkscape:connector-curvature="0" id="path44" style="stroke:#000000;stroke-width:8;stroke-miterlimit:4;stroke-dasharray:none;fill:none;stroke-opacity:1"/>
      <path d="m 259.199,619.199 -243.5974,0 0,-607.199 243.5974,0 0,607.199" inkscape:connector-curvature="0" id="path46" style="stroke:#000000;stroke-width:8;stroke-miterlimit:4;stroke-dasharray:none;fill:none;stroke-opacity:1"/>
      <path d="m 15.6016,12 243.598,0 0,607.199 -243.598,0 0,-607.199 z" inkscape:connector-curvature="0" id="path48" style="stroke:#000000;stroke-width:8;stroke-miterlimit:4;stroke-dasharray:none;fill:none;stroke-opacity:1"/>
      <path d="m 1760.4,39.6016 -52.8,118.7964 45.6,112.801 -1.2,7.199 -8.4,4.801 -6,-2.398 -43.2,-81.602 -15.6,27.602 -20.4,60 -28.8,73.199 2.4,12 4.8,58.801 -19.2,45.597 -27.6,32.403 -13.2,15.597 -4.8,0 -4.8,-3.597 -6,-7.199 36,-51.602 13.2,-40.801 -7.2,-25.199 -9.6,-4.801 -34.8,24 -30,69.602 -2.4,33.597 12,39.602 33.6,43.199 -1.2,7.199 -6,8.403 -9.6,-2.403 -21.6,-18 -18,-24 -15.6,-43.199 -4.8,-39.597 30,-79.204 30,-31.199 37.2,-27.597 14.4,-40.801 20.4,-48 37.2,-75.602 -2.4,-6 -90,28.801 -9.6,2.398 -2.4,-4.796 1.2,-9.602 6,-8.398 60,-26.403 27.6,-9.597 25.2,-8.403 36,-121.199 7.2,-4.8008 16.8,0 4.8,1.1992 3.6,3.6016 8.4,6 2.4,6 0,3.6016" inkscape:connector-curvature="0" id="path50" style="stroke:#000000;stroke-width:8;stroke-miterlimit:4;stroke-dasharray:none;fill:none;stroke-opacity:1"/>
    </g>
  </g>
</svg>
