<?xml version="1.0" encoding="UTF-8"?>
<!-- Created with Inkscape (http://www.inkscape.org/) -->
<svg xmlns:dc="http://purl.org/dc/elements/1.1/" xmlns:cc="http://creativecommons.org/ns#" xmlns:rdf="http://www.w3.org/1999/02/22-rdf-syntax-ns#" xmlns:svg="http://www.w3.org/2000/svg" xmlns="http://www.w3.org/2000/svg" xmlns:inkscape="http://www.inkscape.org/namespaces/inkscape" version="1.1" width="765" height="990" id="svg2" xml:space="preserve">
  <metadata id="metadata8">
    <rdf:RDF>
      <cc:Work rdf:about="">
        <dc:format>image/svg+xml</dc:format>
        <dc:type rdf:resource="http://purl.org/dc/dcmitype/StillImage"/>
      </cc:Work>
    </rdf:RDF>
  </metadata>
  <defs id="defs6"/>
  <g transform="matrix(1.25,0,0,-1.25,0,990)" id="g10">
    <g transform="scale(0.1,0.1)" id="g12">
      <path d="m 902.398,21.6016 13.204,-8.4024 9.597,-2.3984 4.801,0 4.801,4.8008 7.199,6 32.398,57.5976 0,7.1992 L 972,90 l -2.398,4.8008 -12,6.0002 -265.204,124.801 -6,1.199 -8.398,2.398 -8.398,-3.597 -7.204,-4.801 -3.597,-4.801 -3.602,-9.602 0,-7.199 3.602,-7.199 4.801,-6 L 672,177.602 902.398,21.6016" inkscape:connector-curvature="0" id="path14" style="stroke:#000000;stroke-width:8;stroke-miterlimit:4;stroke-dasharray:none;fill:none;stroke-opacity:1"/>
      <path d="M 798,321.602 976.801,493.199" inkscape:connector-curvature="0" id="path16" style="stroke:#000000;stroke-width:8;stroke-miterlimit:4;stroke-dasharray:none;fill:none;stroke-opacity:1"/>
      <path d="M 733.199,346.801 954,556.801" inkscape:connector-curvature="0" id="path18" style="stroke:#000000;stroke-width:8;stroke-miterlimit:4;stroke-dasharray:none;fill:none;stroke-opacity:1"/>
      <path d="m 690,392.398 220.801,210" inkscape:connector-curvature="0" id="path20" style="stroke:#000000;stroke-width:8;stroke-miterlimit:4;stroke-dasharray:none;fill:none;stroke-opacity:1"/>
      <path d="m 668.398,457.199 176.403,168" inkscape:connector-curvature="0" id="path22" style="stroke:#000000;stroke-width:8;stroke-miterlimit:4;stroke-dasharray:none;fill:none;stroke-opacity:1"/>
      <path d="m 886.801,615.602 -14.403,3.597 -15.597,6 -16.801,2.403 -15.602,0 -18,-1.204 -15.597,-1.199 -16.801,-6 -14.398,-4.801 L 744,607.199 729.602,597.602 718.801,588 708,577.199 l -8.398,-9.597 -8.403,-13.204 -9.597,-18 L 678,523.199 673.199,507.602 670.801,492 l -2.403,-18 0,-14.398 2.403,-18 4.801,-15.602 3.597,-13.199 6,-15.602 4.801,-8.398 6,-7.199 13.199,-14.403 14.403,-14.398 12,-9.602 15.597,-8.398 L 768,327.602 783.602,322.801 798,318 l 16.801,0 16.801,-1.199 19.199,3.597 13.199,2.403 16.801,7.199 16.801,7.199 10.796,6 13.204,10.801 10.796,12 13.204,12 9.597,15.602 9.602,13.199 7.199,14.398 3.602,16.801 1.199,14.398 3.597,18 L 978,486 l -1.199,18 -3.602,14.398 -6,14.403 -6,18 L 950.398,564 942,576 l -12,13.199 -13.199,9.602 -14.403,9.597 -15.597,7.204" inkscape:connector-curvature="0" id="path24" style="stroke:#000000;stroke-width:8;stroke-miterlimit:4;stroke-dasharray:none;fill:none;stroke-opacity:1"/>
      <path d="m 236.398,474 -16.796,-16.801 -6,-22.801 4.796,-21.597 L 228,396 l 26.398,-25.199 45.602,-24 78,-30 94.801,-19.199 93.597,-10.801 30,-2.403 19.204,-1.199 10.796,2.403 4.801,4.796 0,7.204 -7.199,6 -37.199,7.199 -22.801,10.801 -14.398,9.597 -32.403,27.602 -50.398,45.597 -50.403,38.403 -45.597,25.199 -43.199,18 -32.403,9.602 -30,1.199 -25.199,-6 -19.199,-9.602 -13.199,-8.398 -7.204,-6 -9.597,-1.199 L 180,468 l -1.199,9.602 54,44.398 10.801,12 7.199,15.602 L 252,562.801 250.801,576" inkscape:connector-curvature="0" id="path26" style="stroke:#000000;stroke-width:8;stroke-miterlimit:4;stroke-dasharray:none;fill:none;stroke-opacity:1"/>
      <path d="m 237.602,584.398 57.597,-25.199 58.801,-22.801 52.801,-10.796 54,-3.602 42,-2.398 30,4.796 -42,7.204 -49.199,3.597 -52.801,8.403 -39.602,10.796 -46.801,16.801 -36,15.602 -21.597,14.398 74.398,-28.801 L 366,564 l 25.199,-3.602 51.602,-4.796 49.199,3.597 28.801,2.403 22.801,1.199 -50.403,4.801 -44.398,3.597 -42,1.199 -38.403,6 L 322.801,588 282,600 l -27.602,13.199 -19.199,12 -15.597,4.801 -13.204,2.398 -31.199,-4.796 -22.801,-8.403 -9.597,-6 -6,-10.801 -1.199,-2.398 0,-10.801 7.199,-10.801 L 150,576 l 9.602,-3.602 14.398,-3.597 16.801,0 9.597,3.597 8.403,2.403 3.597,-7.199 1.204,-13.204 -14.403,-18 -25.199,-18 -24,-21.597 -9.602,-15.602 -9.597,-12 -3.602,-22.801 2.403,-12 16.796,-25.199 43.204,-46.801 25.199,-22.796 31.199,-22.801 44.398,-19.199 26.403,-38.403 27.597,-32.398 18,-19.199 4.801,-12 8.403,-90 0,-57.602 -2.403,-9.6016 L 363.602,36 303.602,26.3984 300,25.1992 291.602,24 l -4.801,-4.8008 0,-8.3984 9.597,4.8008 L 304.801,12" inkscape:connector-curvature="0" id="path28" style="stroke:#000000;stroke-width:8;stroke-miterlimit:4;stroke-dasharray:none;fill:none;stroke-opacity:1"/>
      <path d="m 345.602,26.3984 -34.801,-4.7968 -6,-3.6016 1.199,-7.1992 12,6 8.398,-6 L 381.602,18 424.801,10.8008 426,18 l -3.602,6 -10.796,2.3984 -12,4.8008 -4.801,1.1992 -3.602,8.4024 -1.199,142.8012 2.398,15.597 0,6 -9.597,18 L 373.199,240 342,290.398" inkscape:connector-curvature="0" id="path30" style="stroke:#000000;stroke-width:8;stroke-miterlimit:4;stroke-dasharray:none;fill:none;stroke-opacity:1"/>
      <path d="m 354,276 49.199,-6 42,1.199 51.602,6 26.398,-24 32.403,-28.801 14.398,-1.199 15.602,3.602 16.796,14.398 2.403,10.801 -33.602,34.801" inkscape:connector-curvature="0" id="path32" style="stroke:#000000;stroke-width:8;stroke-miterlimit:4;stroke-dasharray:none;fill:none;stroke-opacity:1"/>
      <path d="m 135.602,601.199 -120.0004,-72 138.0004,45.602" inkscape:connector-curvature="0" id="path34" style="stroke:#000000;stroke-width:8;stroke-miterlimit:4;stroke-dasharray:none;fill:none;stroke-opacity:1"/>
      <path d="M 136.801,582 15.6016,529.199" inkscape:connector-curvature="0" id="path36" style="stroke:#000000;stroke-width:8;stroke-miterlimit:4;stroke-dasharray:none;fill:none;stroke-opacity:1"/>
      <path d="M 163.199,603.602 156,600 l 4.801,-6 6,2.398 -2.403,4.801" inkscape:connector-curvature="0" id="path38" style="stroke:#000000;stroke-width:8;stroke-miterlimit:4;stroke-dasharray:none;fill:none;stroke-opacity:1"/>
      <path d="m 428.398,22.8008 10.801,-2.4024 6,-3.5976 1.199,-3.6016 -7.199,-2.3984 L 429.602,12" inkscape:connector-curvature="0" id="path40" style="stroke:#000000;stroke-width:8;stroke-miterlimit:4;stroke-dasharray:none;fill:none;stroke-opacity:1"/>
      <path d="m 220.801,333.602 30,-55.204 32.398,-49.199 2.403,-12 -90,-161.9998 L 192,48 l -3.602,-7.1992 -9.597,-2.4024 -33.602,-6 -21.597,-3.5976 -8.403,-4.8008 -6,-1.1992 -8.398,-1.1992 L 98.3984,19.1992 96,12 103.199,16.8008 114,12" inkscape:connector-curvature="0" id="path42" style="stroke:#000000;stroke-width:8;stroke-miterlimit:4;stroke-dasharray:none;fill:none;stroke-opacity:1"/>
      <path d="m 128.398,20.3984 -4.796,0 -7.204,-1.1992 -2.398,-6 2.398,-1.1992 8.403,3.6016" inkscape:connector-curvature="0" id="path44" style="stroke:#000000;stroke-width:8;stroke-miterlimit:4;stroke-dasharray:none;fill:none;stroke-opacity:1"/>
      <path d="M 129.602,21.6016 140.398,24 162,25.1992" inkscape:connector-curvature="0" id="path46" style="stroke:#000000;stroke-width:8;stroke-miterlimit:4;stroke-dasharray:none;fill:none;stroke-opacity:1"/>
      <path d="m 126,15.6016 10.801,-4.8008 51.597,6 7.204,1.1992 42,-7.1992 1.199,7.1992 -1.199,6 -12,2.3984 -16.801,6" inkscape:connector-curvature="0" id="path48" style="stroke:#000000;stroke-width:8;stroke-miterlimit:4;stroke-dasharray:none;fill:none;stroke-opacity:1"/>
      <path d="m 207.602,34.8008 -1.204,6 85.204,142.8012 20.398,37.199 0,12 -14.398,52.801" inkscape:connector-curvature="0" id="path50" style="stroke:#000000;stroke-width:8;stroke-miterlimit:4;stroke-dasharray:none;fill:none;stroke-opacity:1"/>
      <path d="M 241.199,22.8008 252,20.3984 256.801,16.8008 258,13.1992 252,10.8008 241.199,12" inkscape:connector-curvature="0" id="path52" style="stroke:#000000;stroke-width:8;stroke-miterlimit:4;stroke-dasharray:none;fill:none;stroke-opacity:1"/>
    </g>
  </g>
</svg>
