<?xml version="1.0" encoding="UTF-8"?>
<!-- Created with Inkscape (http://www.inkscape.org/) -->
<svg xmlns:dc="http://purl.org/dc/elements/1.1/" xmlns:cc="http://creativecommons.org/ns#" xmlns:rdf="http://www.w3.org/1999/02/22-rdf-syntax-ns#" xmlns:svg="http://www.w3.org/2000/svg" xmlns="http://www.w3.org/2000/svg" xmlns:inkscape="http://www.inkscape.org/namespaces/inkscape" version="1.1" width="765" height="990" id="svg2" xml:space="preserve">
  <metadata id="metadata8">
    <rdf:RDF>
      <cc:Work rdf:about="">
        <dc:format>image/svg+xml</dc:format>
        <dc:type rdf:resource="http://purl.org/dc/dcmitype/StillImage"/>
      </cc:Work>
    </rdf:RDF>
  </metadata>
  <defs id="defs6"/>
  <g transform="matrix(1.25,0,0,-1.25,0,990)" id="g10">
    <g transform="scale(0.1,0.1)" id="g12">
      <path d="m 1080,842.398 21.6,38.403 28.8,28.801 42,9.597 34.8,-6 25.2,-22.801 13.2,-19.199 9.6,-45.597 0,-517.204 -1237.2,0 0,517.204 13.1992,45.597 9.6016,19.199 25.1992,22.801 34.801,6 45.597,-9.597 28.801,-28.801 18,-34.801" inkscape:connector-curvature="0" id="path14" style="stroke:#000000;stroke-width:8;stroke-miterlimit:4;stroke-dasharray:none;fill:none;stroke-opacity:1"/>
      <path d="m 669.602,1315.2 -50.403,0 -19.199,-2.4 -34.801,-7.2 -22.801,-3.6 -19.199,-6 -19.199,-6 -25.199,-6 -22.801,-9.6 -22.801,-9.6 -18,-10.8 -20.398,-12 -19.199,-13.2 -18,-12 -16.801,-16.8 -34.801,-31.2 -13.199,-15.6 -12,-13.2 -22.801,-32.4 -19.199,-31.2 -9.602,-20.4 -7.199,-21.6 -12,-45.599 -9.602,-18 L 198,942 l -4.801,-19.199 0,-90 L 198,810 l 12,-44.398 6,-28.801 6,-16.801 13.199,-28.801 6,-18 20.403,-19.199 6,-16.801 15.597,-18 13.199,-16.801 L 312,579.602 344.398,550.801 367.199,535.199 388.801,519.602 402,510 l 19.199,-13.199 19.199,-9.602 28.801,-9.597 19.199,-9.602 25.204,-6 15.597,-3.602 22.801,-6 22.801,-3.597 25.199,-3.602 48,0 21.602,3.602 7.199,-3.602 25.199,3.602 19.199,3.597 25.199,6 13.204,3.602 26.398,6 18,9.602 28.801,9.597 19.199,9.602 20.398,13.199 12,9.602 25.204,15.597 19.199,15.602 32.398,28.801 15.602,22.796 13.199,16.801 15.6,18 9.6,16.801 16.8,19.199 9.6,18 9.6,28.801 9.6,16.801 6,28.801 9.6,44.398 3.6,22.801 0,90 -3.6,19.199 -3.6,28.801 -6,18 -6,32.399 -16.8,34.8 -9.6,20.4 -13.2,21.6 -28.802,42 -8.398,13.2 -13.199,15.6 -38.403,31.2 -15.597,16.8 -16.801,12 -19.199,13.2 -21.602,12 -15.597,10.8 -26.403,9.6 -19.199,9.6 -28.801,6 -15.597,6 -22.801,6 -19.199,3.6 -19.204,7.2 -38.398,2.4 -21.602,0" inkscape:connector-curvature="0" id="path16" style="stroke:#000000;stroke-width:8;stroke-miterlimit:4;stroke-dasharray:none;fill:none;stroke-opacity:1"/>
      <path d="m 1477.2,380.398 1068,2.403 L 2506.8,294 2433.6,204 2344.8,127.199 2251.2,69.6016 2149.2,34.8008 2014.8,12 1858.8,28.8008 1746,67.1992 1630.8,140.398 1545.6,240 l -45.6,73.199 -25.2,73.199" inkscape:connector-curvature="0" id="path18" style="stroke:#000000;stroke-width:8;stroke-miterlimit:4;stroke-dasharray:none;fill:none;stroke-opacity:1"/>
      <path d="m 1803.6,1256.4 -111.6,-25.2 -44.4,-22.8 -16.8,-19.2 -12,-22.8 -3.6,-21.6 3.6,-19.2 15.6,-36 22.8,-34.8 60,-48 582,-307.198 90,-48 88.8,-57.602 49.2,-31.199 15.6,2.398 2.4,13.199 -21.6,31.204 -166.8,147.597 -63.6,74.403 -230.4,299.998 -76.8,86.4 -67.2,63.6 -44.4,19.2 -32.4,57.6 -38.4,57.6 -25.2,19.2 -36,13.2 -63.6,2.4 -63.6,-6 -34.8,-15.6 -19.2,-22.8 -15.6,-32.4 -36,-15.6 -21.6,-25.2 -13.2,-38.4 2.4,-26.4 3.6,-8.4 7.2,12 12,25.2 25.2,19.2 26.4,7.2 25.2,-7.2 16.8,-12 2.4,0 3.6,6 -6,28.8 12,3.6 6,12 0,13.2 -9.6,9.6 -8.4,3.6 -13.2,-9.6 -3.6,-16.8 6,-9.6 13.2,-2.4" inkscape:connector-curvature="0" id="path20" style="stroke:#000000;stroke-width:8;stroke-miterlimit:4;stroke-dasharray:none;fill:none;stroke-opacity:1"/>
      <path d="m 1605.6,1381.2 28.8,0 31.2,-3.6 30,-15.6 15.6,-28.8 -3.6,-38.4 -19.2,-26.4 -48,-31.2" inkscape:connector-curvature="0" id="path22" style="stroke:#000000;stroke-width:8;stroke-miterlimit:4;stroke-dasharray:none;fill:none;stroke-opacity:1"/>
      <path d="m 1634.4,1243.2 13.2,9.6 18,15.6 7.2,22.8 -7.2,19.2 -12,9.6 -19.2,-6 -12,-16.8 -3.6,-12 6,-36 -6,-12 -3.6,-6 -9.6,0 -6,18 -19.2,42 -19.2,16.8 -19.2,6 -19.2,0" inkscape:connector-curvature="0" id="path24" style="stroke:#000000;stroke-width:8;stroke-miterlimit:4;stroke-dasharray:none;fill:none;stroke-opacity:1"/>
      <path d="m 1500,1291.2 13.2,3.6 28.8,0 25.2,-26.4 15.6,-54 3.6,-63.6 3.6,-57.6 9.6,-36 15.6,-34.8 63.6,-79.201 132,-169.199 63.6,-76.801 50.4,-105.597 3.6,-74.403 -9.6,-76.801 -92.4,-15.597 -13.2,-19.199 0,-9.602" inkscape:connector-curvature="0" id="path26" style="stroke:#000000;stroke-width:8;stroke-miterlimit:4;stroke-dasharray:none;fill:none;stroke-opacity:1"/>
      <path d="m 1819.2,421.199 -15.6,-2.398 -15.6,-7.199 -3.6,-25.204 28.8,6 9.6,-9.597 130.8,9.597 111.6,-6 10.8,9.602 -10.8,32.398" inkscape:connector-curvature="0" id="path28" style="stroke:#000000;stroke-width:8;stroke-miterlimit:4;stroke-dasharray:none;fill:none;stroke-opacity:1"/>
      <path d="m 2076,396 12,0 22.8,-13.199 -6,26.398 -9.6,9.602 -16.8,6 -28.8,3.597 -76.8,9.602 9.6,105.602 45.6,-13.204 37.2,-28.796 -2.4,213.597 63.6,-25.199 42,-28.801 28.8,-51.597 121.2,-226.801 163.2,105.597 -124.8,182.403" inkscape:connector-curvature="0" id="path30" style="stroke:#000000;stroke-width:8;stroke-miterlimit:4;stroke-dasharray:none;fill:none;stroke-opacity:1"/>
      <path d="m 1839.6,434.398 25.2,117.602 40.8,-8.398 22.8,-22.801" inkscape:connector-curvature="0" id="path32" style="stroke:#000000;stroke-width:8;stroke-miterlimit:4;stroke-dasharray:none;fill:none;stroke-opacity:1"/>
      <path d="m 1830,428.398 -45.6,-7.199 -21.6,-6 -9.6,-15.597 6,-16.801 28.8,9.597" inkscape:connector-curvature="0" id="path34" style="stroke:#000000;stroke-width:8;stroke-miterlimit:4;stroke-dasharray:none;fill:none;stroke-opacity:1"/>
      <path d="m 1762.8,415.199 -26.4,-6 -9.6,-26.398 26.4,7.199" inkscape:connector-curvature="0" id="path36" style="stroke:#000000;stroke-width:8;stroke-miterlimit:4;stroke-dasharray:none;fill:none;stroke-opacity:1"/>
      <path d="m 1714.8,895.199 31.2,-76.801 45.6,-118.796 15.6,-102 -3.6,-57.602 -21.6,-102 -82.8,-9.602 -20.4,-16.796 0,-15.602 3.6,-9.602 48,3.602" inkscape:connector-curvature="0" id="path38" style="stroke:#000000;stroke-width:8;stroke-miterlimit:4;stroke-dasharray:none;fill:none;stroke-opacity:1"/>
      <path d="m 1678.8,415.199 -25.2,-6 -6,-13.199 0,-13.199 25.2,7.199" inkscape:connector-curvature="0" id="path40" style="stroke:#000000;stroke-width:8;stroke-miterlimit:4;stroke-dasharray:none;fill:none;stroke-opacity:1"/>
      <path d="m 1701.6,424.801 -57.6,-9.602 -15.6,-9.597 -3.6,-22.801 19.2,7.199" inkscape:connector-curvature="0" id="path42" style="stroke:#000000;stroke-width:8;stroke-miterlimit:4;stroke-dasharray:none;fill:none;stroke-opacity:1"/>
      <path d="m 1638,415.199 -32.4,-9.597 -9.6,-25.204 26.4,12" inkscape:connector-curvature="0" id="path44" style="stroke:#000000;stroke-width:8;stroke-miterlimit:4;stroke-dasharray:none;fill:none;stroke-opacity:1"/>
      <path d="m 2709.6,380.398 1068,2.403 L 3739.2,294 3664.8,204 3576,127.199 3483.6,69.6016 3380.4,34.8008 3247.2,12 3090,28.8008 2978.4,67.1992 2862,140.398 2776.8,240 l -45.6,73.199 -25.2,73.199" inkscape:connector-curvature="0" id="path46" style="stroke:#000000;stroke-width:8;stroke-miterlimit:4;stroke-dasharray:none;fill:none;stroke-opacity:1"/>
      <path d="m 3036,1256.4 -112.8,-25.2 -44.4,-22.8 -16.8,-19.2 -12,-22.8 -3.6,-21.6 3.6,-19.2 15.6,-36 22.8,-34.8 61.2,-48 580.8,-307.198 90,-48 90,-57.602 48,-31.199 15.6,2.398 3.6,13.199 -22.8,31.204 -165.6,147.597 -64.8,74.403 -230.4,299.998 -75.6,86.4 -68.4,63.6 -44.4,19.2 -32.4,57.6 -37.2,57.6 -26.4,19.2 -34.8,13.2 -63.6,2.4 -64.8,-6 -34.8,-15.6 -19.2,-22.8 -15.6,-32.4 -34.8,-15.6 -22.8,-25.2 -13.2,-38.4 3.6,-26.4 3.6,-8.4 6,12 12,25.2 26.4,19.2 25.2,7.2 25.2,-7.2 16.8,-12 2.4,0 3.6,6 -6,28.8 12,3.6 7.2,12 0,13.2 -9.6,9.6 -9.6,3.6 -13.2,-9.6 -3.6,-16.8 6,-9.6 13.2,-2.4" inkscape:connector-curvature="0" id="path48" style="stroke:#000000;stroke-width:8;stroke-miterlimit:4;stroke-dasharray:none;fill:none;stroke-opacity:1"/>
      <path d="m 2836.8,1381.2 28.8,0 32.4,-3.6 28.8,-15.6 15.6,-28.8 -3.6,-38.4 -19.2,-26.4 -46.8,-31.2" inkscape:connector-curvature="0" id="path50" style="stroke:#000000;stroke-width:8;stroke-miterlimit:4;stroke-dasharray:none;fill:none;stroke-opacity:1"/>
      <path d="m 2865.6,1243.2 13.2,9.6 19.2,15.6 6,22.8 -6,19.2 -13.2,9.6 -19.2,-6 -12,-16.8 -3.6,-12 6,-36 -6,-12 -3.6,-6 -9.6,0 -6,18 -19.2,42 -19.2,16.8 -19.2,6 -19.2,0" inkscape:connector-curvature="0" id="path52" style="stroke:#000000;stroke-width:8;stroke-miterlimit:4;stroke-dasharray:none;fill:none;stroke-opacity:1"/>
      <path d="m 2731.2,1291.2 13.2,3.6 28.8,0 25.2,-26.4 15.6,-54 4.8,-63.6 2.4,-57.6 9.6,-36 15.6,-34.8 64.8,-79.201 L 3042,774 l 63.6,-76.801 51.6,-105.597 2.4,-74.403 -9.6,-76.801 -92.4,-15.597 -13.2,-19.199 0,-9.602" inkscape:connector-curvature="0" id="path54" style="stroke:#000000;stroke-width:8;stroke-miterlimit:4;stroke-dasharray:none;fill:none;stroke-opacity:1"/>
      <path d="m 3051.6,421.199 -15.6,-2.398 -16.8,-7.199 -2.4,-25.204 27.6,6 9.6,-9.597 132,9.597 111.6,-6 9.6,9.602 -9.6,32.398" inkscape:connector-curvature="0" id="path56" style="stroke:#000000;stroke-width:8;stroke-miterlimit:4;stroke-dasharray:none;fill:none;stroke-opacity:1"/>
      <path d="m 3307.2,396 12,0 22.8,-13.199 -6,26.398 -9.6,9.602 -15.6,6 -28.8,3.597 -76.8,9.602 8.4,105.602 45.6,-13.204 38.4,-28.796 -3.6,213.597 64.8,-25.199 40.8,-28.801 28.8,-51.597 121.2,-226.801 163.2,105.597 -123.6,182.403" inkscape:connector-curvature="0" id="path58" style="stroke:#000000;stroke-width:8;stroke-miterlimit:4;stroke-dasharray:none;fill:none;stroke-opacity:1"/>
      <path d="M 3070.8,434.398 3096,552 l 42,-8.398 21.6,-22.801" inkscape:connector-curvature="0" id="path60" style="stroke:#000000;stroke-width:8;stroke-miterlimit:4;stroke-dasharray:none;fill:none;stroke-opacity:1"/>
      <path d="m 3061.2,428.398 -44.4,-7.199 -22.8,-6 -9.6,-15.597 6,-16.801 28.8,9.597" inkscape:connector-curvature="0" id="path62" style="stroke:#000000;stroke-width:8;stroke-miterlimit:4;stroke-dasharray:none;fill:none;stroke-opacity:1"/>
      <path d="m 2994,415.199 -26.4,-6 -8.4,-26.398 25.2,7.199" inkscape:connector-curvature="0" id="path64" style="stroke:#000000;stroke-width:8;stroke-miterlimit:4;stroke-dasharray:none;fill:none;stroke-opacity:1"/>
      <path d="m 2946,895.199 32.4,-76.801 44.4,-118.796 15.6,-102 -2.4,-57.602 -22.8,-102 -82.8,-9.602 -19.2,-16.796 0,-15.602 2.4,-9.602 48,3.602" inkscape:connector-curvature="0" id="path66" style="stroke:#000000;stroke-width:8;stroke-miterlimit:4;stroke-dasharray:none;fill:none;stroke-opacity:1"/>
      <path d="m 2911.2,415.199 -26.4,-6 -6,-13.199 0,-13.199 25.2,7.199" inkscape:connector-curvature="0" id="path68" style="stroke:#000000;stroke-width:8;stroke-miterlimit:4;stroke-dasharray:none;fill:none;stroke-opacity:1"/>
      <path d="m 2932.8,424.801 -57.6,-9.602 -15.6,-9.597 -3.6,-22.801 19.2,7.199" inkscape:connector-curvature="0" id="path70" style="stroke:#000000;stroke-width:8;stroke-miterlimit:4;stroke-dasharray:none;fill:none;stroke-opacity:1"/>
      <path d="m 2869.2,415.199 -32.4,-9.597 -9.6,-25.204 26.4,12" inkscape:connector-curvature="0" id="path72" style="stroke:#000000;stroke-width:8;stroke-miterlimit:4;stroke-dasharray:none;fill:none;stroke-opacity:1"/>
    </g>
  </g>
</svg>
