<?xml version="1.0" encoding="UTF-8"?>
<!-- Created with Inkscape (http://www.inkscape.org/) -->
<svg xmlns:dc="http://purl.org/dc/elements/1.1/" xmlns:cc="http://creativecommons.org/ns#" xmlns:rdf="http://www.w3.org/1999/02/22-rdf-syntax-ns#" xmlns:svg="http://www.w3.org/2000/svg" xmlns="http://www.w3.org/2000/svg" xmlns:inkscape="http://www.inkscape.org/namespaces/inkscape" version="1.1" width="765" height="990" id="svg2" xml:space="preserve">
  <metadata id="metadata8">
    <rdf:RDF>
      <cc:Work rdf:about="">
        <dc:format>image/svg+xml</dc:format>
        <dc:type rdf:resource="http://purl.org/dc/dcmitype/StillImage"/>
      </cc:Work>
    </rdf:RDF>
  </metadata>
  <defs id="defs6"/>
  <g transform="matrix(1.25,0,0,-1.25,0,990)" id="g10">
    <g transform="scale(0.1,0.1)" id="g12">
      <path d="m 254.398,888 331.204,319.2" inkscape:connector-curvature="0" id="path14" style="stroke:#000000;stroke-width:8;stroke-miterlimit:4;stroke-dasharray:none;fill:none;stroke-opacity:1"/>
      <path d="m 134.398,934.801 408,389.999" inkscape:connector-curvature="0" id="path16" style="stroke:#000000;stroke-width:8;stroke-miterlimit:4;stroke-dasharray:none;fill:none;stroke-opacity:1"/>
      <path d="M 55.1992,1018.8 463.199,1410" inkscape:connector-curvature="0" id="path18" style="stroke:#000000;stroke-width:8;stroke-miterlimit:4;stroke-dasharray:none;fill:none;stroke-opacity:1"/>
      <path d="m 14.3984,1138.8 326.4026,312" inkscape:connector-curvature="0" id="path20" style="stroke:#000000;stroke-width:8;stroke-miterlimit:4;stroke-dasharray:none;fill:none;stroke-opacity:1"/>
      <path d="m 420,1432.8 -27.602,7.2 -28.796,10.8 -30,4.8 -31.204,0 -32.398,-2.4 -28.801,-2.4 -30,-10.8 -28.801,-9.6 -27.597,-13.2 -25.199,-18 L 108,1381.2 87.6016,1362 73.1992,1342.8 57.6016,1320 l -18,-32.4 -8.4024,-26.4 -7.1992,-27.6 -4.8008,-28.8 -4.8008,-32.4 0,-28.8 4.8008,-32.4 7.1992,-28.8 8.4024,-25.2 12,-27.6 L 55.1992,1014 66,1000.8 90,973.199 116.398,946.801 139.199,930 166.801,914.398 198,898.801 l 30,-7.199 26.398,-8.403 30,0 31.204,-2.398 34.796,4.801 26.403,6 30,12 31.199,15.597 20.398,10.801 22.801,20.398 22.801,20.403 22.801,22.801 18,27.598 18,26.4 13.199,25.2 7.199,30 2.403,28.8 6,33.6 -3.602,27.6 -2.398,33.6 -7.204,27.6 -10.796,25.2 -13.204,33.6 -16.796,25.2 -18,20.4 -20.403,25.2 -25.199,18 -26.398,18 -27.602,13.2" inkscape:connector-curvature="0" id="path22" style="stroke:#000000;stroke-width:8;stroke-miterlimit:4;stroke-dasharray:none;fill:none;stroke-opacity:1"/>
      <path d="m 86.3984,366 91.2036,-349.1992 288,0 90,349.1992 -469.2036,0" inkscape:connector-curvature="0" id="path24" style="stroke:#000000;stroke-width:8;stroke-miterlimit:4;stroke-dasharray:none;fill:none;stroke-opacity:1"/>
      <path d="m 381.602,366 -4.801,40.801 -15.602,40.801 -27.597,33.597 -31.204,25.199 -34.796,25.204 -21.602,25.199 -9.602,36 7.204,38.398 -2.403,38.403 -12,36 -22.801,30 -28.796,24 -30,22.796 -26.403,20.403 -14.398,18 0,-15.602 9.597,-25.199 22.801,-28.801 22.801,-27.597 15.602,-20.403 7.199,-28.801 2.398,-22.796 -4.801,-33.602 -7.199,-25.199 0,-36 9.602,-25.199 26.398,-36 L 238.801,468 264,445.199 277.199,422.398 279.602,402 l 0,-20.398 L 274.801,366" inkscape:connector-curvature="0" id="path26" style="stroke:#000000;stroke-width:8;stroke-miterlimit:4;stroke-dasharray:none;fill:none;stroke-opacity:1"/>
      <path d="m 1080,259.199 182.4,0 74.4,-233.9998 -326.4,0 69.6,233.9998" inkscape:connector-curvature="0" id="path28" style="stroke:#000000;stroke-width:8;stroke-miterlimit:4;stroke-dasharray:none;fill:none;stroke-opacity:1"/>
      <path d="m 1176,259.199 0,972.001 15.6,3.6 13.2,7.2 19.2,18 9.6,16.8 9.6,28.8 3.6,38.4 2.4,25.2 3.6,21.6 15.6,22.8 13.2,6 22.8,4.8 19.2,6 -6,9.6 -84,19.2 -60,6 -86.4,-6 -70.8,-13.2 0,-15.6 19.2,-3.6 32.4,-19.2 9.6,-13.2 6,-12 6,-42 0,-26.4 9.6,-34.8 7.2,-19.2 28.8,-21.6 21.6,-7.2 0,-972.001" inkscape:connector-curvature="0" id="path30" style="stroke:#000000;stroke-width:8;stroke-miterlimit:4;stroke-dasharray:none;fill:none;stroke-opacity:1"/>
      <path d="m 1220.4,259.199 147.6,637.199 28.8,0 22.8,15.602 15.6,13.199 13.2,25.199 12,38.403 3.6,25.199 9.6,22.8 25.2,15.6 13.2,3.6 22.8,0 19.2,3.6 -3.6,8.4 -105.6,45.6 -44.4,15.6 -76.8,7.2 -67.2,2.4 -3.6,-15.6 15.6,-7.2 28.8,-25.2 10.8,-15.6 2.4,-13.2 -9.6,-38.4 -3.6,-28.799 0,-34.801 3.6,-19.199 22.8,-32.403 21.6,-9.597 -140.4,-639.602" inkscape:connector-curvature="0" id="path32" style="stroke:#000000;stroke-width:8;stroke-miterlimit:4;stroke-dasharray:none;fill:none;stroke-opacity:1"/>
      <path d="m 1112.4,259.199 -144.002,637.199 -28.796,0 L 918,912 l -16.801,13.199 -12,25.199 -13.199,38.403 0,25.199 -13.199,22.8 -25.199,19.2 -34.801,0 -19.199,3.6 2.398,8.4 76.801,36 55.199,19.2 96,13.2 66,2.4 3.6,-15.6 -15.6,-7.2 -28.8,-25.2 -9.6,-15.6 -3.6,-13.2 9.6,-38.4 3.6,-28.799 0,-54 -22.8,-32.403 -21.599,-9.597 L 1128,259.199" inkscape:connector-curvature="0" id="path34" style="stroke:#000000;stroke-width:8;stroke-miterlimit:4;stroke-dasharray:none;fill:none;stroke-opacity:1"/>
      <path d="m 2535.6,1100.4 -753.6,0 9.6,63.6 9.6,42 15.6,40.8 22.8,32.4 19.2,28.8 25.2,34.8 28.8,26.4 34.8,25.2 28.8,19.2 42,19.2 42,13.2 27.6,6 51.6,6 38.4,0 36,-6 38.4,-6 40.8,-10.8 28.8,-8.4 38.4,-26.4 32.4,-21.6 28.8,-22.8 25.2,-32.4 25.2,-34.8 22.8,-34.8 15.6,-32.4 13.2,-48 9.6,-34.8 2.4,-38.4" inkscape:connector-curvature="0" id="path36" style="stroke:#000000;stroke-width:8;stroke-miterlimit:4;stroke-dasharray:none;fill:none;stroke-opacity:1"/>
      <path d="m 2138.4,378 16.8,0 25.2,9.602 15.6,15.597 9.6,20.403 6,25.199 -8.4,21.597 -10.8,22.801 -21.6,13.199 -22.8,6 -31.2,-3.597 -19.2,-6 -16.8,-19.199 -9.6,-34.801 3.6,-32.403 16.8,-19.199 15.6,-15.597 15.6,-3.602 12,0" inkscape:connector-curvature="0" id="path38" style="stroke:#000000;stroke-width:8;stroke-miterlimit:4;stroke-dasharray:none;fill:none;stroke-opacity:1"/>
      <path d="m 2518.8,585.602 -6,13.199 -13.2,22.801 -6,12 -13.2,19.199 -9.6,16.801 -19.2,19.199 -6,12 -19.2,16.801 -15.6,12 -19.2,16.796 -13.2,8.403 -19.2,16.801 -15.6,9.597 -22.8,9.602 -12,9.597 -22.8,6 -19.2,6 -26.4,7.204 -12,6 -25.2,3.597 -19.2,3.602 -42,0 -19.2,-3.602 -15.6,-3.597 -20.4,-2.403 -15.6,-3.597 -19.2,-3.602 -15.6,-6 -28.8,-6 -15.6,-9.602 -22.8,-7.199 -15.6,-9.597 -19.2,-13.204 -16.8,-12 -15.6,-9.597 -15.6,-13.199 -19.2,-19.204 -15.6,-12 -10.8,-16.796 -8.4,-12 -16.8,-22.801 -6,-13.199 -16.8,-19.204 -8.4,-19.199 -7.2,-19.199 -2.4,-15.602 -10.8,-22.796 -6,-19.204 -2.4,-25.199 0,-19.199 -3.6,-32.398 0,-51.602 3.6,-18 6,-22.801 2.4,-19.199 7.2,-22.801 6,-15.597 13.2,-25.204 7.2,-19.199 15.6,-19.199 6,-13.199 13.2,-19.199 12,-12 16.8,-20.403 12,-12 16.8,-15.597 19.2,-13.204 21.6,-15.597 9.6,-7.1994 16.8,-13.2032 18,-6 26.4,-9.5976 19.2,-6 22.8,-9.6016 12,-3.5976 22.8,-6 19.2,0 25.2,-3.6016 12,0 28.8,-3.6016 20.4,3.6016 27.6,3.6016 13.2,3.5976 28.8,2.4024 15.6,6 26.4,7.1992 15.6,6 15.6,13.1992 19.2,6 19.2,13.199 16.8,12 15.6,9.602 15.6,13.199 16.8,16.801 12,15.597 15.6,13.204 10.8,15.597 15.6,25.199 9.6,9.602 12,22.801 7.2,15.597 9.6,19.204 6,19.199 6,22.801 7.2,19.199 3.6,25.199 2.4,16.801 3.6,21.597 0,44.403 -3.6,22.801 -2.4,19.199 -7.2,21.597 -6,20.403 -6,19.199 -7.2,19.199" inkscape:connector-curvature="0" id="path40" style="stroke:#000000;stroke-width:8;stroke-miterlimit:4;stroke-dasharray:none;fill:none;stroke-opacity:1"/>
    </g>
  </g>
</svg>
