<?xml version="1.0" encoding="UTF-8"?>
<!-- Created with Inkscape (http://www.inkscape.org/) -->
<svg xmlns:dc="http://purl.org/dc/elements/1.1/" xmlns:cc="http://creativecommons.org/ns#" xmlns:rdf="http://www.w3.org/1999/02/22-rdf-syntax-ns#" xmlns:svg="http://www.w3.org/2000/svg" xmlns="http://www.w3.org/2000/svg" xmlns:inkscape="http://www.inkscape.org/namespaces/inkscape" version="1.1" width="765" height="990" id="svg2" xml:space="preserve">
  <metadata id="metadata8">
    <rdf:RDF>
      <cc:Work rdf:about="">
        <dc:format>image/svg+xml</dc:format>
        <dc:type rdf:resource="http://purl.org/dc/dcmitype/StillImage"/>
      </cc:Work>
    </rdf:RDF>
  </metadata>
  <defs id="defs6"/>
  <g transform="matrix(1.25,0,0,-1.25,0,990)" id="g10">
    <g transform="scale(0.1,0.1)" id="g12">
      <path d="m 408,879.602 0,-864.0004 -68.398,0 0,864.0004" inkscape:connector-curvature="0" id="path14" style="stroke:#000000;stroke-width:8;stroke-miterlimit:4;stroke-dasharray:none;fill:none;stroke-opacity:1"/>
      <path d="m 733.199,879.602 -718.8006,0 0,226.798 12,26.4 13.2032,15.6 32.3984,0 19.1992,-3.6 19.1988,-12 63.602,-57.6 57.602,-51.6 44.398,-22.8 55.199,-11.999 44.403,-3.602 40.796,3.602 55.204,11.999 44.398,22.8 57.602,51.6 63.597,57.6 19.199,12 19.204,3.6 32.398,0 12,-15.6 13.199,-26.4 0,-226.798" inkscape:connector-curvature="0" id="path16" style="stroke:#000000;stroke-width:8;stroke-miterlimit:4;stroke-dasharray:none;fill:none;stroke-opacity:1"/>
      <path d="m 241.199,1023.6 57.602,378 25.199,31.2 19.199,13.2 25.199,9.6 10.801,0 25.199,-9.6 19.204,-13.2 25.199,-31.2 57.597,-378" inkscape:connector-curvature="0" id="path18" style="stroke:#000000;stroke-width:8;stroke-miterlimit:4;stroke-dasharray:none;fill:none;stroke-opacity:1"/>
      <path d="m 556.801,1087.2 -25.199,3.6 -15.602,13.2 -9.602,15.6 -6,15.6 2.403,28.8 13.199,19.2 15.602,9.6 25.199,7.2 26.398,-3.6 19.199,-13.2 12,-19.2 0,-40.8 -12,-16.8 -19.199,-15.6 -26.398,-3.6" inkscape:connector-curvature="0" id="path20" style="stroke:#000000;stroke-width:8;stroke-miterlimit:4;stroke-dasharray:none;fill:none;stroke-opacity:1"/>
      <path d="m 202.801,1090.8 -28.801,0 -28.801,15.6 -9.597,19.2 -3.602,16.8 7.199,27.6 21.602,22.8 13.199,7.2 22.801,0 22.801,-3.6 18,-13.2 9.597,-21.6 0,-19.2 -6,-26.4 -9.597,-15.6 -16.801,-6 -12,-3.6" inkscape:connector-curvature="0" id="path22" style="stroke:#000000;stroke-width:8;stroke-miterlimit:4;stroke-dasharray:none;fill:none;stroke-opacity:1"/>
      <path d="M 429.602,876 522,595.199 528,566.398 528,528 516,499.199 496.801,480 477.602,466.801 408,457.199" inkscape:connector-curvature="0" id="path24" style="stroke:#000000;stroke-width:8;stroke-miterlimit:4;stroke-dasharray:none;fill:none;stroke-opacity:1"/>
      <path d="m 339.602,457.199 -66,9.602 -32.403,22.801 L 222,528 222,572.398 320.398,876" inkscape:connector-curvature="0" id="path26" style="stroke:#000000;stroke-width:8;stroke-miterlimit:4;stroke-dasharray:none;fill:none;stroke-opacity:1"/>
      <path d="m 952.801,595.199 0,-574.8006 128.399,0 0,574.8006 -128.399,0" inkscape:connector-curvature="0" id="path28" style="stroke:#000000;stroke-width:8;stroke-miterlimit:4;stroke-dasharray:none;fill:none;stroke-opacity:1"/>
      <path d="m 1252.8,595.199 0,-574.8006 127.2,0 0,574.8006 -127.2,0" inkscape:connector-curvature="0" id="path30" style="stroke:#000000;stroke-width:8;stroke-miterlimit:4;stroke-dasharray:none;fill:none;stroke-opacity:1"/>
    </g>
  </g>
</svg>
