<?xml version="1.0" encoding="UTF-8"?>
<!-- Created with Inkscape (http://www.inkscape.org/) -->
<svg xmlns:dc="http://purl.org/dc/elements/1.1/" xmlns:cc="http://creativecommons.org/ns#" xmlns:rdf="http://www.w3.org/1999/02/22-rdf-syntax-ns#" xmlns:svg="http://www.w3.org/2000/svg" xmlns="http://www.w3.org/2000/svg" xmlns:inkscape="http://www.inkscape.org/namespaces/inkscape" version="1.1" width="765" height="990" id="svg2" xml:space="preserve">
  <metadata id="metadata8">
    <rdf:RDF>
      <cc:Work rdf:about="">
        <dc:format>image/svg+xml</dc:format>
        <dc:type rdf:resource="http://purl.org/dc/dcmitype/StillImage"/>
      </cc:Work>
    </rdf:RDF>
  </metadata>
  <defs id="defs6"/>
  <g transform="matrix(1.25,0,0,-1.25,0,990)" id="g10">
    <g transform="scale(0.1,0.1)" id="g12">
      <path d="m 204,138 -22.801,27.602 -28.801,28.796 -22.796,25.204 -24,26.398 -31.2036,30 -30,22.801 L 12,321.602 73.1992,862.801 92.3984,858 l 20.4026,-9.602 16.801,-13.199 18,-21.597 14.398,-24 7.199,-26.403 6,-22.801 6,-30 26.403,-697.1988 -36,-2.3984 L 178.801,168" inkscape:connector-curvature="0" id="path14" style="stroke:#000000;stroke-width:8;stroke-miterlimit:4;stroke-dasharray:none;fill:none;stroke-opacity:1"/>
      <path d="m 502.801,576 -37.199,0 -4.801,16.801 -9.602,22.801 -7.199,9.597 -16.801,10.801 -44.398,4.801 -43.199,-3.602 0,30 6,26.403 13.199,30 26.398,30 26.403,15.597 26.398,9.602 28.801,8.398 28.801,0 37.199,-2.398 36,-9.602 39.597,-18 36,-25.199 34.801,-37.199 33.602,-45.602 15.597,-34.801 6,-34.796 1.204,-25.204 -1.204,-26.398 -6,-21.602 -9.597,-22.796 -9.602,-10.801 -16.801,-12 -25.199,-13.199 -36,-4.801 L 591.602,450 576,463.199 l -16.801,18 -9.597,33.602 -2.403,21.597 12,27.602 7.199,22.801 -3.597,32.398 -10.801,9.602 -13.199,2.398 -14.403,0 -13.199,-6 -8.398,-20.398 0,-28.801" inkscape:connector-curvature="0" id="path16" style="stroke:#000000;stroke-width:8;stroke-miterlimit:4;stroke-dasharray:none;fill:none;stroke-opacity:1"/>
      <path d="m 474,66 574.8,0 0,153.602 -574.8,0 L 474,66" inkscape:connector-curvature="0" id="path18" style="stroke:#000000;stroke-width:8;stroke-miterlimit:4;stroke-dasharray:none;fill:none;stroke-opacity:1"/>
      <path d="m 300,13.1992 920.4,0 0,52.8008 -132,0 0,153.602 130.8,0 0,50.398 -919.2,0 0,-50.398 132,0 L 432,66 300,66 300,13.1992" inkscape:connector-curvature="0" id="path20" style="stroke:#000000;stroke-width:8;stroke-miterlimit:4;stroke-dasharray:none;fill:none;stroke-opacity:1"/>
      <path d="m 909.602,582 55.199,-210 172.799,0 54,210 -281.998,0" inkscape:connector-curvature="0" id="path22" style="stroke:#000000;stroke-width:8;stroke-miterlimit:4;stroke-dasharray:none;fill:none;stroke-opacity:1"/>
      <path d="m 1087.2,582 -2.4,24 -9.6,24 -16.8,20.398 -18,15.602 -21.6,14.398 -12,15.602 -7.198,21.602 4.798,22.796 -1.2,22.801 -7.2,21.602 -14.398,18 -16.801,14.398 -18,13.199 -15.602,13.204 -9.597,10.796 0,-9.597 7.199,-15.602 13.199,-16.801 13.199,-16.796 9.602,-12 4.801,-16.801 1.199,-14.403 -2.403,-19.199 -4.796,-15.597 0,-21.602 6,-15.602 L 985.199,660 1002,643.199 l 14.4,-14.398 8.4,-13.199 1.2,-13.204 0,-12 -2.4,-8.398" inkscape:connector-curvature="0" id="path24" style="stroke:#000000;stroke-width:8;stroke-miterlimit:4;stroke-dasharray:none;fill:none;stroke-opacity:1"/>
    </g>
  </g>
</svg>
