<?xml version="1.0" encoding="UTF-8"?>
<!-- Created with Inkscape (http://www.inkscape.org/) -->
<svg xmlns:dc="http://purl.org/dc/elements/1.1/" xmlns:cc="http://creativecommons.org/ns#" xmlns:rdf="http://www.w3.org/1999/02/22-rdf-syntax-ns#" xmlns:svg="http://www.w3.org/2000/svg" xmlns="http://www.w3.org/2000/svg" xmlns:inkscape="http://www.inkscape.org/namespaces/inkscape" version="1.1" width="765" height="990" id="svg2" xml:space="preserve">
  <metadata id="metadata8">
    <rdf:RDF>
      <cc:Work rdf:about="">
        <dc:format>image/svg+xml</dc:format>
        <dc:type rdf:resource="http://purl.org/dc/dcmitype/StillImage"/>
      </cc:Work>
    </rdf:RDF>
  </metadata>
  <defs id="defs6"/>
  <g transform="matrix(1.25,0,0,-1.25,0,990)" id="g10">
    <g transform="scale(0.1,0.1)" id="g12">
      <path d="m 710.398,1071.6 -70.796,6 -111.602,-6 -82.801,9.6 -25.199,-9.6 -19.199,-25.2 7.199,-45.6 31.199,-101.999 60,-98.403 199.199,-237.597 100.801,-96 L 946.801,330 1260,21.6016 l 32.4,0 8.4,16.7968 -12,28.8008 L 1154.4,374.398 1135.2,432 1033.2,678 940.801,837.602 867.602,940.801 812.398,1014 768,1084.8 l -48,63.6 -57.602,67.2 -57.597,38.4 -15.602,67.2 -13.199,73.2 -19.199,49.2 -54,12 -88.801,0 -99.602,-3.6 -48,-12 -21.597,-7.2 -163.1994,-22.8 -48,-21.6 L 18,1365.6 l -3.6016,-44.4 19.2032,32.4 32.3984,15.6 94.801,0 99.597,-3.6 50.403,-12 -40.801,50.4 -9.602,36" inkscape:connector-curvature="0" id="path14" style="stroke:#000000;stroke-width:8;stroke-miterlimit:4;stroke-dasharray:none;fill:none;stroke-opacity:1"/>
      <path d="m 366,1372.8 8.398,2.4 7.204,16.8 -7.204,15.6 -12,9.6 -13.199,-9.6 -2.398,-19.2 6,-9.6 9.597,-6" inkscape:connector-curvature="0" id="path16" style="stroke:#000000;stroke-width:8;stroke-miterlimit:4;stroke-dasharray:none;fill:none;stroke-opacity:1"/>
      <path d="m 30,1340.4 128.398,3.6 98.403,-13.2 28.801,-15.6 9.597,-32.4 3.602,-34.8 -28.801,-70.8 -13.199,-86.4 16.801,-105.601 12,-48 34.796,-96 42,-76.801 L 462,595.199 592.801,345.602 l 12,-96 L 589.199,86.3984 573.602,69.6016 480,61.1992 372,63.6016 366,48 l -48,-7.1992 -7.199,-8.4024 9.597,-13.1992 276,9.6016 283.204,-13.1992 13.199,13.1992 -6,15.5976 -45.602,0 -25.199,22.8008 -163.199,2.4024 -19.199,13.1992 19.199,201.5972 118.801,-60 67.199,198 L 966,102 l 44.4,-57.6016 45.6,-25.1992 67.2,0 37.2,13.1992 9.6,18 L 1138.8,138" inkscape:connector-curvature="0" id="path18" style="stroke:#000000;stroke-width:8;stroke-miterlimit:4;stroke-dasharray:none;fill:none;stroke-opacity:1"/>
      <path d="m 346.801,787.199 40.801,-234 L 385.199,374.398 352.801,192 324,98.3984 304.801,76.8008 151.199,67.1992 135.602,44.3984 100.801,40.8008 87.6016,32.3984 100.801,19.1992 l 118.801,9.6016 34.796,-3.6016" inkscape:connector-curvature="0" id="path20" style="stroke:#000000;stroke-width:8;stroke-miterlimit:4;stroke-dasharray:none;fill:none;stroke-opacity:1"/>
      <path d="m 368.398,63.6016 -54,-6 0,0 -31.199,-7.2032 -20.398,-25.1992 13.199,-6 19.199,19.1992 19.199,2.4024" inkscape:connector-curvature="0" id="path22" style="stroke:#000000;stroke-width:8;stroke-miterlimit:4;stroke-dasharray:none;fill:none;stroke-opacity:1"/>
      <path d="M 366,67.1992 435.602,330 544.801,265.199 567.602,384" inkscape:connector-curvature="0" id="path24" style="stroke:#000000;stroke-width:8;stroke-miterlimit:4;stroke-dasharray:none;fill:none;stroke-opacity:1"/>
      <path d="m 142.801,63.6016 -51.6018,-6 0,0 -32.3984,-7.2032 -19.1992,-25.1992 9.5976,-6 L 72,38.3984 97.1992,40.8008" inkscape:connector-curvature="0" id="path26" style="stroke:#000000;stroke-width:8;stroke-miterlimit:4;stroke-dasharray:none;fill:none;stroke-opacity:1"/>
      <path d="m 822,67.1992 61.199,-6 28.801,-10.8008 19.199,-25.1992 -9.597,-6 -22.801,19.1992 -15.602,2.4024" inkscape:connector-curvature="0" id="path28" style="stroke:#000000;stroke-width:8;stroke-miterlimit:4;stroke-dasharray:none;fill:none;stroke-opacity:1"/>
    </g>
  </g>
</svg>
