<?xml version="1.0" encoding="UTF-8"?>
<!-- Created with Inkscape (http://www.inkscape.org/) -->
<svg xmlns:dc="http://purl.org/dc/elements/1.1/" xmlns:cc="http://creativecommons.org/ns#" xmlns:rdf="http://www.w3.org/1999/02/22-rdf-syntax-ns#" xmlns:svg="http://www.w3.org/2000/svg" xmlns="http://www.w3.org/2000/svg" xmlns:inkscape="http://www.inkscape.org/namespaces/inkscape" version="1.1" width="765" height="990" id="svg2" xml:space="preserve">
  <metadata id="metadata8">
    <rdf:RDF>
      <cc:Work rdf:about="">
        <dc:format>image/svg+xml</dc:format>
        <dc:type rdf:resource="http://purl.org/dc/dcmitype/StillImage"/>
      </cc:Work>
    </rdf:RDF>
  </metadata>
  <defs id="defs6"/>
  <g transform="matrix(1.25,0,0,-1.25,0,990)" id="g10">
    <g transform="scale(0.1,0.1)" id="g12">
      <path d="m 3090,946.801 -2.4,-48 -3.6,-70.801 3.6,-63.602 6,-61.199 0,-50.398 -9.6,-55.199 -9.6,-60 -13.2,-61.204 -13.2,-76.796 -6,-79.204 -12,-74.398 -10.8,-61.199 0,-57.602 10.8,-46.8006 2.4,-19.1992 L 3036,48 l -3.6,-15.6016 -15.6,-16.7968 -274.8,0 0,28.7968 34.8,6 36,10.8008 24,6 36,15.6016 28.8,19.1992 15.6,19.199 9.6,42 7.2,63.602 -9.6,102 -19.2,132 -16.8,121.199 -15.6,118.801 -6,102 -3.6,98.398 3.6,87.602 15.6,69.599 13.2,25.2 25.2,28.8 28.8,10.8 0,50.4 -73.2,7.2 -76.8,-78 37.2,-27.6 36,102 -9.6,9.6 -6,57.6 -42,6 0,13.2 21.6,31.2 7.2,22.8 6,16.8 9.6,12 3.6,22.8 13.2,25.2 19.2,25.2 18,15.6 28.8,13.2 26.4,7.2 44.4,0 28.8,-9.6 19.2,-6 26.4,-20.4 15.6,-15.6 6,-6 22.8,-38.4 6,-22.8 6,-32.4 3.6,-19.2 3.6,-25.2 0,-303.602" inkscape:connector-curvature="0" id="path14" style="stroke:#000000;stroke-width:8;stroke-miterlimit:4;stroke-dasharray:none;fill:none;stroke-opacity:1"/>
      <path d="m 2859.6,1342.8 134.4,-2.4 7.2,-19.2 2.4,0 19.2,-3.6 19.2,-15.6 0,-26.4 -6,-15.6 -13.2,-19.2 -6,-3.6 0,-284.399 134.4,-3.602" inkscape:connector-curvature="0" id="path16" style="stroke:#000000;stroke-width:8;stroke-miterlimit:4;stroke-dasharray:none;fill:none;stroke-opacity:1"/>
      <path d="m 2895.6,1282.8 18,-13.2 26.4,9.6" inkscape:connector-curvature="0" id="path18" style="stroke:#000000;stroke-width:8;stroke-miterlimit:4;stroke-dasharray:none;fill:none;stroke-opacity:1"/>
      <path d="m 860.398,876 0,-860.3984 67.204,0 0,860.3984" inkscape:connector-curvature="0" id="path20" style="stroke:#000000;stroke-width:8;stroke-miterlimit:4;stroke-dasharray:none;fill:none;stroke-opacity:1"/>
      <path d="m 534,879.602 718.8,0 0,226.798 -13.2,25.2 -12,16.8 -32.4,0 -19.2,-3.6 -19.2,-13.2 -63.6,-56.4 -57.6,-51.6 -44.401,-22.8 -54,-11.999 -45.597,-3.602 -40.801,3.602 -55.199,11.999 -44.403,22.8 -57.597,51.6 -63.602,56.4 -19.199,13.2 -19.199,3.6 -32.403,0 -13.199,-16.8 -12,-25.2 0,-226.798" inkscape:connector-curvature="0" id="path22" style="stroke:#000000;stroke-width:8;stroke-miterlimit:4;stroke-dasharray:none;fill:none;stroke-opacity:1"/>
      <path d="m 1026,1023.6 -57.602,376.8 -25.199,32.4 -19.199,13.2 -25.199,9.6 -10.801,0 -25.199,-9.6 -18,-13.2 -26.403,-32.4 -57.597,-376.8" inkscape:connector-curvature="0" id="path24" style="stroke:#000000;stroke-width:8;stroke-miterlimit:4;stroke-dasharray:none;fill:none;stroke-opacity:1"/>
      <path d="m 2613.6,1452 -15.6,-322.8 -7.2,-274.802 -6,-211.199 L 2569.2,492 2556,349.199 l 6,-154.801 9.6,-48 6,-37.199 -2.4,-39.5974 -19.2,-25.2032 -28.8,-19.1992 -34.8,-6 -64.8,15.6016 -25.2,19.1992 -42,9.6016 -96,-48 -396,3.5976 -15.6,50.4024 12,26.3984 36,6 136.8,28.801 115.2,57.597 76.8,28.801 67.2,15.602 48,42 15.6,40.801 3.6,45.597 -6,67.199 -3.6,90 -7.2,242.403 -2.4,243.599 -25.2,451.2 294,0" inkscape:connector-curvature="0" id="path26" style="stroke:#000000;stroke-width:8;stroke-miterlimit:4;stroke-dasharray:none;fill:none;stroke-opacity:1"/>
      <path d="m 1629.6,1000.8 -36,-19.198 -26.4,-32.403 -9.6,-26.398 -6,-26.403 8.4,-42 21.6,-27.597 20.4,-16.801 36,-12 26.4,-9.602 32.4,0 36,15.602 30,14.398 18,20.403 20.4,30 15.6,36 8.4,30 3.6,30 -3.6,20.398 -6,36.001 -14.4,30 -24,30 -24,20.4 -20.4,8.4 -21.6,9.6 -30,2.4 -22.8,3.6 -30,0 -36,-3.6 -38.4,-12 -32.4,-16.8 -20.4,-18 -25.2,-21.6 -16.8,-20.4 -18,-32.4 -18,-33.601 -6,-30 -6,-40.801 -3.6,-42 3.6,-32.398 2.4,-48 18,-48 27.6,-54 46.8,-62.398 74.4,-70.801 108,-87.602 231.6,-129.597" inkscape:connector-curvature="0" id="path28" style="stroke:#000000;stroke-width:8;stroke-miterlimit:4;stroke-dasharray:none;fill:none;stroke-opacity:1"/>
      <path d="m 337.199,230.398 -38.398,48 -48,48 -38.403,40.801 -40.796,45.602 -51.602,50.398 -51.6016,38.403 -54,38.398 101.9996,915.6 32.403,-9.6 34.801,-16.8 28.796,-22.8 28.801,-34.8 25.199,-42 13.204,-44.4 9.597,-38.4 9.602,-50.4 44.398,-1177.2008 -60,-3.5976 12,265.1994" inkscape:connector-curvature="0" id="path30" style="stroke:#000000;stroke-width:8;stroke-miterlimit:4;stroke-dasharray:none;fill:none;stroke-opacity:1"/>
      <path d="m 3280.8,501.602 0,-480.0004 85.2,0 0,480.0004 -85.2,0" inkscape:connector-curvature="0" id="path32" style="stroke:#000000;stroke-width:8;stroke-miterlimit:4;stroke-dasharray:none;fill:none;stroke-opacity:1"/>
      <path d="m 3706.8,501.602 0,-480.0004 88.8,0 0,480.0004 -88.8,0" inkscape:connector-curvature="0" id="path34" style="stroke:#000000;stroke-width:8;stroke-miterlimit:4;stroke-dasharray:none;fill:none;stroke-opacity:1"/>
      <path d="m 4138.8,501.602 0,-480.0004 85.2,0 0,480.0004 -85.2,0" inkscape:connector-curvature="0" id="path36" style="stroke:#000000;stroke-width:8;stroke-miterlimit:4;stroke-dasharray:none;fill:none;stroke-opacity:1"/>
      <path d="m 3564,1459.2 218.4,-274.8 45.6,-69.6 34.8,-61.2 24,-65.998 20.4,-82.801 8.4,-80.403 -15.6,-81.597 -10.8,-30 -15.6,-26.403 -13.2,-19.199 -19.2,-19.199 -24,-18 -50.4,-7.199 -56.4,4.801 -28.8,8.398 -26.4,18 -21.6,24 -13.2,24 -19.2,40.801 -7.2,36 -8.4,56.398 4.8,52.801 13.2,67.199 21.6,61.201 34.8,78 50.4,76.8 222,290.4" inkscape:connector-curvature="0" id="path38" style="stroke:#000000;stroke-width:8;stroke-miterlimit:4;stroke-dasharray:none;fill:none;stroke-opacity:1"/>
    </g>
  </g>
</svg>
