<?xml version="1.0" encoding="UTF-8"?>
<!-- Created with Inkscape (http://www.inkscape.org/) -->
<svg xmlns:dc="http://purl.org/dc/elements/1.1/" xmlns:cc="http://creativecommons.org/ns#" xmlns:rdf="http://www.w3.org/1999/02/22-rdf-syntax-ns#" xmlns:svg="http://www.w3.org/2000/svg" xmlns="http://www.w3.org/2000/svg" xmlns:inkscape="http://www.inkscape.org/namespaces/inkscape" version="1.1" width="765" height="990" id="svg2" xml:space="preserve">
  <metadata id="metadata8">
    <rdf:RDF>
      <cc:Work rdf:about="">
        <dc:format>image/svg+xml</dc:format>
        <dc:type rdf:resource="http://purl.org/dc/dcmitype/StillImage"/>
      </cc:Work>
    </rdf:RDF>
  </metadata>
  <defs id="defs6"/>
  <g transform="matrix(1.25,0,0,-1.25,0,990)" id="g10">
    <g transform="scale(0.1,0.1)" id="g12">
      <path d="m 309.602,932.398 759.598,0 0,-30 30,-4.796 48,-15.602 33.6,-19.199 42,-30 37.2,-40.801 34.8,-46.801 25.2,-48 22.8,-60 14.4,-60 7.2,-99.597 -7.2,-52.801 -21.6,-60 -27.6,-27.602 -22.8,-4.801 -34.8,2.403 -27.6,22.801 -13.2,27.597 -4.8,30 -2.4,21.602 7.2,78 10.8,85.199 -7.2,87.602 -22.8,62.398 -33.6,50.398 -32.4,37.204 -37.2,14.398 -18,0 0,-27.602 -99.598,0 0,-51.597 -147.602,0 0,51.597 -270,0 0,-51.597 -142.801,0 0,51.597 -99.597,0" inkscape:connector-curvature="0" id="path14" style="stroke:#000000;stroke-width:8;stroke-miterlimit:4;stroke-dasharray:none;fill:none;stroke-opacity:1"/>
      <path d="m 354,932.398 97.199,478.802 18,30 12,9.6 15.602,4.8 22.801,0 22.796,-12 4.801,-15.6 0,-16.8" inkscape:connector-curvature="0" id="path16" style="stroke:#000000;stroke-width:8;stroke-miterlimit:4;stroke-dasharray:none;fill:none;stroke-opacity:1"/>
      <path d="m 448.801,932.398 100.801,481.202 13.199,21.6 12,13.2 22.801,4.8 21.597,-7.2 13.199,-10.8 7.204,-14.4" inkscape:connector-curvature="0" id="path18" style="stroke:#000000;stroke-width:8;stroke-miterlimit:4;stroke-dasharray:none;fill:none;stroke-opacity:1"/>
      <path d="m 540,932.398 97.199,478.802 9.602,21.6 18,15.6 20.398,2.4 21.602,-2.4 18,-15.6 4.801,-19.2" inkscape:connector-curvature="0" id="path20" style="stroke:#000000;stroke-width:8;stroke-miterlimit:4;stroke-dasharray:none;fill:none;stroke-opacity:1"/>
      <path d="m 630,932.398 97.199,472.802 14.403,27.6 18,15.6 30,2.4 9.597,-2.4 15.602,-10.8 7.199,-24" inkscape:connector-curvature="0" id="path22" style="stroke:#000000;stroke-width:8;stroke-miterlimit:4;stroke-dasharray:none;fill:none;stroke-opacity:1"/>
      <path d="m 724.801,932.398 94.801,470.402 9.597,25.2 10.801,15.6 22.801,9.6 27.597,-4.8 19.204,-13.2 8.398,-16.8" inkscape:connector-curvature="0" id="path24" style="stroke:#000000;stroke-width:8;stroke-miterlimit:4;stroke-dasharray:none;fill:none;stroke-opacity:1"/>
      <path d="m 822,932.398 90,468.002 8.398,25.2 14.403,20.4 25.199,4.8 4.801,2.4 22.801,-9.6 14.398,-15.6 0,-14.4" inkscape:connector-curvature="0" id="path26" style="stroke:#000000;stroke-width:8;stroke-miterlimit:4;stroke-dasharray:none;fill:none;stroke-opacity:1"/>
      <path d="M 907.199,932.398 1002,1416 l 10.8,19.2 12,13.2 14.4,2.4 22.8,0 20.4,-7.2 9.6,-15.6 4.8,-25.2 -97.198,-470.402 -690,0 0,-32.398 -34.801,-4.801 -48,-15.597 L 192,860.398 151.199,828 114,787.199 56.3984,690 39.6016,632.398 l -18,-60 L 14.3984,471.602 21.6016,420 46.8008,362.398 74.3984,334.801 93.6016,330 l 36.0004,2.398 30,22.801 9.597,26.403 4.801,30 2.398,22.796 -7.199,78 -13.199,84 8.398,86.403 19.204,62.398 33.597,52.801 32.403,37.199 34.796,14.403 25.204,2.398 0,-21.602" inkscape:connector-curvature="0" id="path28" style="stroke:#000000;stroke-width:8;stroke-miterlimit:4;stroke-dasharray:none;fill:none;stroke-opacity:1"/>
      <path d="m 564,495.602 -10.801,24 -19.199,40.796 -13.199,19.204 338.398,0 -20.398,-34.801 -14.403,-34.801 -6,-14.398" inkscape:connector-curvature="0" id="path30" style="stroke:#000000;stroke-width:8;stroke-miterlimit:4;stroke-dasharray:none;fill:none;stroke-opacity:1"/>
      <path d="m 523.199,397.199 -76.801,42 -18,-60 40.801,-30 L 495.602,330 534,289.199" inkscape:connector-curvature="0" id="path32" style="stroke:#000000;stroke-width:8;stroke-miterlimit:4;stroke-dasharray:none;fill:none;stroke-opacity:1"/>
      <path d="m 859.199,397.199 74.403,42 20.398,-62.398 -34.801,-19.199 -40.801,-38.403 -27.597,-30" inkscape:connector-curvature="0" id="path34" style="stroke:#000000;stroke-width:8;stroke-miterlimit:4;stroke-dasharray:none;fill:none;stroke-opacity:1"/>
      <path d="m 578.398,319.199 4.801,15.602 10.801,16.801 14.398,18 20.403,18 34.801,12 L 686.398,402 714,399.602 744,390 l 25.199,-15.602 12,-16.796 L 794.398,342 804,314.398 l -39.602,25.204 -30,9.597 -25.199,8.403 -20.398,2.398 -25.199,-4.801 -25.204,-6 -30,-14.398 -20.398,-15.602 -9.602,-4.801" inkscape:connector-curvature="0" id="path36" style="stroke:#000000;stroke-width:8;stroke-miterlimit:4;stroke-dasharray:none;fill:none;stroke-opacity:1"/>
      <path d="m 594,51.6016 39.602,163.1994 16.796,22.801 18,7.199 20.403,4.801 27.597,-4.801 20.403,-15.602 9.597,-16.801 42,-163.1988" inkscape:connector-curvature="0" id="path38" style="stroke:#000000;stroke-width:8;stroke-miterlimit:4;stroke-dasharray:none;fill:none;stroke-opacity:1"/>
      <path d="M 693.602,16.8008 656.398,19.1992 638.398,24 624,26.3984 598.801,39.6016 580.801,61.1992 566.398,84 l -10.796,25.199 -7.204,31.199 -9.597,39.602 -15.602,210 2.403,37.199 6,16.801 2.398,16.801 12,19.199 15.602,15.602 24,14.398 22.796,7.199 20.403,2.403 60,6 69.597,-6 30,-4.801 25.204,-14.403 15.597,-10.796 12,-19.204 12,-40.796 3.602,-32.403 L 843.602,214.801 838.801,164.398 824.398,109.199 813.602,84 799.199,58.8008 788.398,46.8008 774,34.8008 756,24 734.398,19.1992 693.602,16.8008" inkscape:connector-curvature="0" id="path40" style="stroke:#000000;stroke-width:8;stroke-miterlimit:4;stroke-dasharray:none;fill:none;stroke-opacity:1"/>
      <path d="m 1904.4,1008 -12,31.2 -26.4,51.6 -15.6,25.2 432,0 -26.4,-44.4 -19.2,-44.4 -6,-19.2" inkscape:connector-curvature="0" id="path42" style="stroke:#000000;stroke-width:8;stroke-miterlimit:4;stroke-dasharray:none;fill:none;stroke-opacity:1"/>
      <path d="m 1852.8,883.199 -98.4,54 -22.8,-76.801 51.6,-38.398 34.8,-25.199 48,-51.602" inkscape:connector-curvature="0" id="path44" style="stroke:#000000;stroke-width:8;stroke-miterlimit:4;stroke-dasharray:none;fill:none;stroke-opacity:1"/>
      <path d="m 2282.4,883.199 94.8,54 26.4,-80.398 -45.6,-25.199 -51.6,-48 -34.8,-38.403" inkscape:connector-curvature="0" id="path46" style="stroke:#000000;stroke-width:8;stroke-miterlimit:4;stroke-dasharray:none;fill:none;stroke-opacity:1"/>
      <path d="m 1923.6,783.602 6,19.199 13.2,22.801 19.2,22.796 25.2,21.602 45.6,15.602 27.6,3.597 36,-3.597 38.4,-12 31.2,-19.204 16.8,-22.796 15.6,-19.204 13.2,-34.796 -51.6,31.199 -38.4,13.199 -32.4,9.602 -25.2,3.597 -31.2,-6 -32.4,-7.199 -38.4,-19.199 -25.2,-19.199 -13.2,-6" inkscape:connector-curvature="0" id="path48" style="stroke:#000000;stroke-width:8;stroke-miterlimit:4;stroke-dasharray:none;fill:none;stroke-opacity:1"/>
      <path d="m 1942.8,441.602 51.6,207.597 22.8,28.801 21.6,9.602 25.2,7.199 36,-7.199 25.2,-19.204 12,-21.597 L 2192.4,438" inkscape:connector-curvature="0" id="path50" style="stroke:#000000;stroke-width:8;stroke-miterlimit:4;stroke-dasharray:none;fill:none;stroke-opacity:1"/>
      <path d="m 2071.2,397.199 -48,3.602 -22.8,6 -19.2,2.398 -32.4,16.801 -21.6,28.801 -19.2,28.801 -13.2,31.199 -9.6,39.597 -13.2,50.403 -19.2,268.801 3.6,48 7.2,21.597 2.4,19.199 16.8,26.403 18,19.199 32.4,19.2 28.8,9.6 25.2,2.4 76.8,7.2 90,-7.2 38.4,-6 31.2,-19.2 19.2,-13.2 16.8,-25.198 15.6,-50.403 3.6,-42 -15.6,-234 -7.2,-63.597 -19.2,-70.801 -13.2,-31.199 -18,-32.403 -13.2,-15.597 -19.2,-15.602 -22.8,-13.199 -28.8,-6 -50.4,-3.602" inkscape:connector-curvature="0" id="path52" style="stroke:#000000;stroke-width:8;stroke-miterlimit:4;stroke-dasharray:none;fill:none;stroke-opacity:1"/>
    </g>
  </g>
</svg>
