<?xml version="1.0" encoding="UTF-8"?>
<!-- Created with Inkscape (http://www.inkscape.org/) -->
<svg xmlns:dc="http://purl.org/dc/elements/1.1/" xmlns:cc="http://creativecommons.org/ns#" xmlns:rdf="http://www.w3.org/1999/02/22-rdf-syntax-ns#" xmlns:svg="http://www.w3.org/2000/svg" xmlns="http://www.w3.org/2000/svg" xmlns:inkscape="http://www.inkscape.org/namespaces/inkscape" version="1.1" width="765" height="990" id="svg2" xml:space="preserve">
  <metadata id="metadata8">
    <rdf:RDF>
      <cc:Work rdf:about="">
        <dc:format>image/svg+xml</dc:format>
        <dc:type rdf:resource="http://purl.org/dc/dcmitype/StillImage"/>
      </cc:Work>
    </rdf:RDF>
  </metadata>
  <defs id="defs6"/>
  <g transform="matrix(1.25,0,0,-1.25,0,990)" id="g10">
    <g transform="scale(0.1,0.1)" id="g12">
      <path d="m 1123.2,14.3984 0,153.6016 -67.2,2.398 -44.4,13.204 -44.401,19.199 L 928.801,228 900,253.199 l -22.801,36 -15.597,34.801 -7.204,44.398 7.204,48 19.199,68.403 140.399,286.801 34.8,86.398 13.2,44.398 3.6,42 2.4,42 -15.6,48.002 -22.8,42 -28.8,31.2 -38.398,25.2 -28.801,13.2 -40.801,9.6 -48,9.6 -103.199,-6 -31.199,-3.6 -55.204,-19.2 -66,-44.4 L 558,1059.6 538.801,1044 522,1034.4 l 61.199,-99.599 2.403,-92.403 -56.403,9.602 -189.597,0 -150,-9.602 L 116.398,825.602 85.1992,804" inkscape:connector-curvature="0" id="path14" style="stroke:#000000;stroke-width:8;stroke-miterlimit:4;stroke-dasharray:none;fill:none;stroke-opacity:1"/>
      <path d="m 519.602,1030.8 -34.801,-12 L 122.398,938.398 72,915.602 45.6016,890.398 20.3984,844.801 l 0,-34.801 -6,-28.801 6,-19.199 13.2032,-6 6,0 19.1992,6 38.3984,70.801 45.6018,32.398 L 174,880.801 222,894 525.602,942 558,938.398 l 25.199,-9.597" inkscape:connector-curvature="0" id="path16" style="stroke:#000000;stroke-width:8;stroke-miterlimit:4;stroke-dasharray:none;fill:none;stroke-opacity:1"/>
      <path d="m 938.398,1146 63.602,0 80.4,-19.2 66,-25.2 67.2,-38.4 68.4,-57.6 75.6,-105.6 54,-124.801 22.8,-144 -150,-3.597 -15.6,132 -19.2,85.199 -19.2,57.597 -22.8,51.602 -25.2,28.801 -38.4,38.399 -55.2,42 -50.4,15.6" inkscape:connector-curvature="0" id="path18" style="stroke:#000000;stroke-width:8;stroke-miterlimit:4;stroke-dasharray:none;fill:none;stroke-opacity:1"/>
      <path d="m 583.199,844.801 121.199,-19.199 48,-9.602 44.403,0 22.801,-12 16.796,-25.199 2.403,-19.199 -6,-28.801 L 781.199,608.398 723.602,454.801 711.602,366 727.199,250.801 762,168 l 22.801,-28.801 28.801,-28.801 79.199,-51.5972 112.799,-36 117.6,-8.4024" inkscape:connector-curvature="0" id="path20" style="stroke:#000000;stroke-width:8;stroke-miterlimit:4;stroke-dasharray:none;fill:none;stroke-opacity:1"/>
      <path d="m 762,1059.6 -19.199,-3.6 -19.199,-21.6 0,-26.4 19.199,-15.602 25.199,0 20.398,13.202 6,13.2 -3.597,21.6 -19.199,19.2" inkscape:connector-curvature="0" id="path22" style="stroke:#000000;stroke-width:8;stroke-miterlimit:4;stroke-dasharray:none;fill:none;stroke-opacity:1"/>
      <path d="m 2506.8,820.801 -754.8,0 9.6,63.597 9.6,42 15.6,40.801 22.8,32.403 19.2,28.798 26.4,34.8 28.8,25.2 34.8,26.4 28.8,19.2 42,19.2 40.8,13.2 28.8,6 50.4,6 39.6,0 34.8,-6 38.4,-6 40.8,-10.8 28.8,-9.6 39.6,-25.2 31.2,-22.8 28.8,-21.6 25.2,-32.4 26.4,-34.8 21.6,-34.802 15.6,-32.398 13.2,-48 9.6,-36 3.6,-37.199" inkscape:connector-curvature="0" id="path24" style="stroke:#000000;stroke-width:8;stroke-miterlimit:4;stroke-dasharray:none;fill:none;stroke-opacity:1"/>
      <path d="m 2516.4,31.1992 -753.6,0 8.4,63.6016 10.8,42.0002 15.6,40.801 22.8,32.398 19.2,28.801 25.2,34.801 28.8,25.199 34.8,26.398 28.8,19.199 42,19.204 40.8,12 28.8,7.199 51.6,6 38.4,0 34.8,-6 38.4,-7.199 42,-9.602 28.8,-9.602 38.4,-25.199 31.2,-22.801 28.8,-22.796 26.4,-31.204 25.2,-34.796 22.8,-34.801 15.6,-32.403 13.2,-48 9.6,-35.9996 2.4,-37.1992" inkscape:connector-curvature="0" id="path26" style="stroke:#000000;stroke-width:8;stroke-miterlimit:4;stroke-dasharray:none;fill:none;stroke-opacity:1"/>
      <path d="m 4327.2,865.199 -98.4,19.199 -70.8,13.204 -50.4,19.199 -63.6,25.199 -67.2,32.398 -126,70.802 -127.2,69.6 -63.6,22.8 -76.8,28.8 -76.8,12 -57.6,13.2 -69.6,0 -70.8,-9.6 -70.8,-22.8 -69.6,-34.8 -76.8,-57.6 -51.6,-48 -51.6,-31.198 -40.8,-28.801 -36,-10.801 -37.2,-15.602 -39.6,-13.199 -63.6,-8.398" inkscape:connector-curvature="0" id="path28" style="stroke:#000000;stroke-width:8;stroke-miterlimit:4;stroke-dasharray:none;fill:none;stroke-opacity:1"/>
      <path d="m 2838,922.801 54,0 48,3.597 48,-9.597 84,-19.199 63.6,-26.403 70.8,-15.597 76.8,-19.204 48,-9.597 85.2,-2.403 111.6,9.602 55.2,6 178.8,22.801 70.8,8.398 63.6,7.199 64.8,6 127.2,6 63.6,-6 55.2,-6 54,-7.199 28.8,0" inkscape:connector-curvature="0" id="path30" style="stroke:#000000;stroke-width:8;stroke-miterlimit:4;stroke-dasharray:none;fill:none;stroke-opacity:1"/>
      <path d="m 3222,1147.2 -22.8,-32.4 -6,-25.2 -9.6,-32.4 -3.6,-32.4 13.2,-57.601 19.2,-27.597 19.2,-28.801 31.2,-26.403 36,-19.199 73.2,-9.597 54,7.199 42,6 51.6,34.801 31.2,38.398 16.8,28.801 9.6,61.199 -7.2,57.6 -15.6,32.4 -15.6,25.2 -32.4,31.2" inkscape:connector-curvature="0" id="path32" style="stroke:#000000;stroke-width:8;stroke-miterlimit:4;stroke-dasharray:none;fill:none;stroke-opacity:1"/>
      <path d="m 4357.2,96 -98.4,19.199 -70.8,12 -50.4,19.199 -63.6,26.403 -68.4,31.199 -124.8,70.801 -127.2,69.597 -63.6,22.801 -76.8,28.801 -76.8,13.199 -57.6,12 -69.6,0 -70.8,-8.398 -70.8,-22.801 -69.6,-34.801 -76.8,-57.597 -51.6,-48 -51.6,-32.403 -40.8,-28.801 -36,-9.597 -37.2,-15.602 -39.6,-13.199 -63.6,-9.602" inkscape:connector-curvature="0" id="path34" style="stroke:#000000;stroke-width:8;stroke-miterlimit:4;stroke-dasharray:none;fill:none;stroke-opacity:1"/>
      <path d="m 2868,153.602 54,0 48,2.398 48,-9.602 84,-19.199 63.6,-25.199 69.6,-15.6016 76.8,-19.1992 49.2,-9.5976 85.2,-3.6016 111.6,9.6016 55.2,6 178.8,22.7968 70.8,9.6016 63.6,7.199 63.6,6 128.4,6 63.6,-6 54,-6 55.2,-7.199 28.8,0" inkscape:connector-curvature="0" id="path36" style="stroke:#000000;stroke-width:8;stroke-miterlimit:4;stroke-dasharray:none;fill:none;stroke-opacity:1"/>
      <path d="m 3252,378 -22.8,-33.602 -6,-24 -9.6,-32.398 -3.6,-32.398 13.2,-57.602 19.2,-28.801 19.2,-28.801 31.2,-25.199 36,-19.199 73.2,-9.6016 54,6 42,6 51.6,35.9996 31.2,38.403 16.8,28.801 9.6,60 -7.2,58.796 -15.6,31.204 -15.6,26.398 -32.4,31.199" inkscape:connector-curvature="0" id="path38" style="stroke:#000000;stroke-width:8;stroke-miterlimit:4;stroke-dasharray:none;fill:none;stroke-opacity:1"/>
    </g>
  </g>
</svg>
