<?xml version="1.0" encoding="UTF-8"?>
<!-- Created with Inkscape (http://www.inkscape.org/) -->
<svg xmlns:dc="http://purl.org/dc/elements/1.1/" xmlns:cc="http://creativecommons.org/ns#" xmlns:rdf="http://www.w3.org/1999/02/22-rdf-syntax-ns#" xmlns:svg="http://www.w3.org/2000/svg" xmlns="http://www.w3.org/2000/svg" xmlns:inkscape="http://www.inkscape.org/namespaces/inkscape" version="1.1" width="765" height="990" id="svg2" xml:space="preserve">
  <metadata id="metadata8">
    <rdf:RDF>
      <cc:Work rdf:about="">
        <dc:format>image/svg+xml</dc:format>
        <dc:type rdf:resource="http://purl.org/dc/dcmitype/StillImage"/>
      </cc:Work>
    </rdf:RDF>
  </metadata>
  <defs id="defs6"/>
  <g transform="matrix(1.25,0,0,-1.25,0,990)" id="g10">
    <g transform="scale(0.1,0.1)" id="g12">
      <path d="m 234,1134 468,0 0,-19.2 18,-2.4 28.801,-9.6 20.398,-12 26.403,-19.2 22.796,-24 21.602,-28.8 15.602,-29.999 14.398,-37.199 8.398,-37.204 4.801,-61.199 -4.801,-32.398 -13.199,-36 -16.801,-18 -14.398,-3.602 -21.602,2.403 -16.796,13.199 -7.204,16.801 -3.597,19.199 -1.199,14.398 4.796,48 6,51.602 -4.796,54 -14.403,38.399 -19.199,31.2 -20.398,22.8 -22.801,9.6 -10.801,0 0,-18 -61.199,0 0,-31.2 -91.199,0 0,31.2 -166.801,0 0,-31.2 -87.602,0 0,31.2 -61.199,0" inkscape:connector-curvature="0" id="path14" style="stroke:#000000;stroke-width:8;stroke-miterlimit:4;stroke-dasharray:none;fill:none;stroke-opacity:1"/>
      <path d="m 261.602,1134 60,294 10.796,18 8.403,6 8.398,3.6 14.403,0 13.199,-7.2 3.597,-9.6 0,-10.8" inkscape:connector-curvature="0" id="path16" style="stroke:#000000;stroke-width:8;stroke-miterlimit:4;stroke-dasharray:none;fill:none;stroke-opacity:1"/>
      <path d="m 320.398,1134 61.204,295.2 8.398,14.4 7.199,7.2 13.199,3.6 14.403,-4.8 8.398,-6 3.602,-9.6" inkscape:connector-curvature="0" id="path18" style="stroke:#000000;stroke-width:8;stroke-miterlimit:4;stroke-dasharray:none;fill:none;stroke-opacity:1"/>
      <path d="m 375.602,1134 60,294 6,14.4 10.796,8.4 13.204,1.2 13.199,-1.2 10.801,-8.4 2.398,-13.2" inkscape:connector-curvature="0" id="path20" style="stroke:#000000;stroke-width:8;stroke-miterlimit:4;stroke-dasharray:none;fill:none;stroke-opacity:1"/>
      <path d="m 430.801,1134 60,291.6 9.597,16.8 10.801,8.4 18,1.2 6,-1.2 9.602,-6 4.801,-15.6" inkscape:connector-curvature="0" id="path22" style="stroke:#000000;stroke-width:8;stroke-miterlimit:4;stroke-dasharray:none;fill:none;stroke-opacity:1"/>
      <path d="m 489.602,1134 58.796,289.2 6,15.6 6,9.6 13.204,6 18,-3.6 12,-7.2 4.796,-10.8" inkscape:connector-curvature="0" id="path24" style="stroke:#000000;stroke-width:8;stroke-miterlimit:4;stroke-dasharray:none;fill:none;stroke-opacity:1"/>
      <path d="m 549.602,1134 55.199,288 4.801,15.6 8.398,12 15.602,2.4 3.597,2.4 13.199,-6 9.602,-9.6 0,-9.6" inkscape:connector-curvature="0" id="path26" style="stroke:#000000;stroke-width:8;stroke-miterlimit:4;stroke-dasharray:none;fill:none;stroke-opacity:1"/>
      <path d="m 601.199,1134 58.801,297.6 6,12 8.398,7.2 8.403,1.2 14.398,0 12,-3.6 6,-9.6 3.602,-15.6 -60,-289.2 -424.801,0 0,-20.4 -21.602,-2.4 -28.796,-9.6 L 162,1089.6 136.801,1069.2 114,1044 79.1992,984 68.3984,949.199 57.6016,912 l -4.8008,-61.199 4.8008,-32.403 15.5976,-36 L 90,765.602 102,762 l 21.602,1.199 18,14.403 7.199,16.796 2.398,19.204 1.199,13.199 -3.597,48 -8.403,52.801 4.801,51.597 12,39.601 19.199,31.2 21.602,24 20.398,8.4 15.602,2.4 0,-14.4" inkscape:connector-curvature="0" id="path28" style="stroke:#000000;stroke-width:8;stroke-miterlimit:4;stroke-dasharray:none;fill:none;stroke-opacity:1"/>
      <path d="M 463.199,880.801 444,871.199 430.801,854.398 426,840 l -2.398,-13.199 3.597,-21.602 10.801,-14.398 12,-9.602 18,-4.801 13.199,-4.796 16.801,0 19.199,7.199 15.602,8.398 8.398,9.602 10.801,16.801 8.398,18 4.801,15.597 1.199,15.602 -1.199,9.597 -3.597,19.204 -8.403,15.597 -12,15.602 -12,9.597 -10.801,6 -10.796,3.602 -15.602,2.398 -12,1.204 -15.602,0 -18,-1.204 -20.398,-6 -16.801,-9.597 -10.801,-9.602 -12,-10.801 -9.597,-10.796 -9.602,-16.801 -8.398,-16.801 -3.602,-15.602 -3.597,-21.597 -1.204,-21.602 1.204,-16.801 2.398,-25.199 8.398,-24 14.403,-27.597 L 402,679.199 440.398,642 l 55.204,-45.602 120,-67.199" inkscape:connector-curvature="0" id="path30" style="stroke:#000000;stroke-width:8;stroke-miterlimit:4;stroke-dasharray:none;fill:none;stroke-opacity:1"/>
      <path d="M 159.602,84 186,20.3984 169.199,16.8008 144,84" inkscape:connector-curvature="0" id="path32" style="stroke:#000000;stroke-width:8;stroke-miterlimit:4;stroke-dasharray:none;fill:none;stroke-opacity:1"/>
      <path d="M 96,223.199 26.3984,432 l -3.5976,28.801 2.3984,18 L 36,492 54,502.801 81.6016,510 103.199,506.398 124.801,492 141.602,463.199 144,432 141.602,418.801 136.801,402 l -9.602,-10.801 -10.801,3.602 4.801,20.398 2.403,14.403 -2.403,16.796 L 120,454.801 109.199,474 92.3984,486 75.6016,486 60,482.398 50.3984,471.602 42,453.602 l 1.1992,-14.403 73.1988,-216" inkscape:connector-curvature="0" id="path34" style="stroke:#000000;stroke-width:8;stroke-miterlimit:4;stroke-dasharray:none;fill:none;stroke-opacity:1"/>
      <path d="m 938.398,103.199 -685.199,0 -24,-2.398 L 210,96 156,84 l -67.1992,0 -18,9.6016 L 54,103.199 l -7.1992,7.199 -3.6016,18 -1.1992,28.801 3.6016,21.602 19.1992,15.597" inkscape:connector-curvature="0" id="path36" style="stroke:#000000;stroke-width:8;stroke-miterlimit:4;stroke-dasharray:none;fill:none;stroke-opacity:1"/>
      <path d="M 133.199,192 102,190.801 72,192 42,201.602 25.1992,212.398 15.6016,223.199 14.3984,234 54,223.199 156,222 l 30,-9.602 42,-36 14.398,-2.398 16.801,3.602 32.403,7.199 85.199,16.801 82.801,10.796 74.398,1.204 98.398,-7.204 85.204,-10.796 82.796,-18" inkscape:connector-curvature="0" id="path38" style="stroke:#000000;stroke-width:8;stroke-miterlimit:4;stroke-dasharray:none;fill:none;stroke-opacity:1"/>
      <path d="M 938.398,103.199 924,450 828,450 802.801,177.602" inkscape:connector-curvature="0" id="path40" style="stroke:#000000;stroke-width:8;stroke-miterlimit:4;stroke-dasharray:none;fill:none;stroke-opacity:1"/>
    </g>
  </g>
</svg>
