<?xml version="1.0" encoding="UTF-8"?>
<!-- Created with Inkscape (http://www.inkscape.org/) -->
<svg xmlns:dc="http://purl.org/dc/elements/1.1/" xmlns:cc="http://creativecommons.org/ns#" xmlns:rdf="http://www.w3.org/1999/02/22-rdf-syntax-ns#" xmlns:svg="http://www.w3.org/2000/svg" xmlns="http://www.w3.org/2000/svg" xmlns:inkscape="http://www.inkscape.org/namespaces/inkscape" version="1.1" width="765" height="990" id="svg2" xml:space="preserve">
  <metadata id="metadata8">
    <rdf:RDF>
      <cc:Work rdf:about="">
        <dc:format>image/svg+xml</dc:format>
        <dc:type rdf:resource="http://purl.org/dc/dcmitype/StillImage"/>
      </cc:Work>
    </rdf:RDF>
  </metadata>
  <defs id="defs6"/>
  <g transform="matrix(1.25,0,0,-1.25,0,990)" id="g10">
    <g transform="scale(0.1,0.1)" id="g12">
      <path d="M 294,441.602 266.398,444 222,441.602 188.398,445.199 177.602,441.602 170.398,432 172.801,412.801 186,372 210,332.398 289.199,237.602 330,200.398 388.801,144 l 126,-122.3984 12,0 4.801,7.1992 -6,10.8008 L 472.801,163.199 464.398,186 423.602,284.398 386.398,348 l -30,40.801 -21.597,30 -16.801,27.597 -19.199,25.204 -24,27.597 -22.801,15.602 -6,26.398 -4.801,28.801 -8.398,19.199 -21.602,6 -36,0 -39.597,-1.199 -19.204,-6 -8.398,-2.398 -66,-8.403 -19.1992,-9.597 -6,-8.403 -1.1992,-18 7.1992,13.199 13.1992,6 38.3984,0 L 114,559.199 134.398,554.398 117.602,574.801 114,588" inkscape:connector-curvature="0" id="path14" style="stroke:#000000;stroke-width:8;stroke-miterlimit:4;stroke-dasharray:none;fill:none;stroke-opacity:1"/>
      <path d="m 156,561.602 3.602,1.199 2.398,6 -2.398,7.199 -4.801,3.602 L 150,576 l -1.199,-8.398 2.398,-3.602 3.602,-2.398" inkscape:connector-curvature="0" id="path16" style="stroke:#000000;stroke-width:8;stroke-miterlimit:4;stroke-dasharray:none;fill:none;stroke-opacity:1"/>
      <path d="m 21.6016,549.602 51.5976,1.199 39.6018,-6 12,-6 3.597,-13.199 1.204,-13.204 -12,-28.796 -4.801,-33.602 6,-43.199 6,-19.199 14.398,-38.403 15.602,-31.199 39.597,-67.199 52.801,-99.602 4.801,-38.398 -6,-66.0002 -6,-6 -37.199,-3.6016 -44.403,1.1992 -2.398,-6 L 136.801,30 l -2.403,-3.6016 4.801,-6 109.199,4.8008 114,-6 4.801,6 -2.398,6 -18,0 -10.801,8.4024 -64.801,1.1992 -7.199,4.8008 7.199,81.5974 48,-24 26.403,79.199 L 397.199,54 l 18,-22.8008 16.801,-10.8008 27.602,0 15.597,6 3.602,7.2032 -13.199,34.7968" inkscape:connector-curvature="0" id="path18" style="stroke:#000000;stroke-width:8;stroke-miterlimit:4;stroke-dasharray:none;fill:none;stroke-opacity:1"/>
      <path d="M 148.801,327.602 165.602,234 164.398,163.199 151.199,90 140.398,52.8008 132,43.1992 70.8008,39.6016 l -6,-8.4024 L 50.3984,30 l -4.7968,-3.6016 4.7968,-6 46.8008,4.8008 14.4028,-2.3984" inkscape:connector-curvature="0" id="path20" style="stroke:#000000;stroke-width:8;stroke-miterlimit:4;stroke-dasharray:none;fill:none;stroke-opacity:1"/>
      <path d="M 157.199,38.3984 135.602,36 l 0,0 -12,-2.3984 -8.403,-10.8008 4.801,-2.4024 8.398,8.4024 7.204,1.1992" inkscape:connector-curvature="0" id="path22" style="stroke:#000000;stroke-width:8;stroke-miterlimit:4;stroke-dasharray:none;fill:none;stroke-opacity:1"/>
      <path d="M 156,39.6016 183.602,144 228,118.801 l 8.398,48" inkscape:connector-curvature="0" id="path24" style="stroke:#000000;stroke-width:8;stroke-miterlimit:4;stroke-dasharray:none;fill:none;stroke-opacity:1"/>
      <path d="M 67.1992,38.3984 46.8008,36 l 0,0 L 33.6016,33.6016 25.1992,22.8008 30,20.3984 38.3984,28.8008 49.1992,30" inkscape:connector-curvature="0" id="path26" style="stroke:#000000;stroke-width:8;stroke-miterlimit:4;stroke-dasharray:none;fill:none;stroke-opacity:1"/>
      <path d="m 339.602,39.6016 24,-2.4024 12,-3.5976 7.199,-10.8008 -3.602,-2.4024 -9.597,8.4024 -6,1.1992" inkscape:connector-curvature="0" id="path28" style="stroke:#000000;stroke-width:8;stroke-miterlimit:4;stroke-dasharray:none;fill:none;stroke-opacity:1"/>
      <path d="m 1227.6,416.398 -49.2,8.403 -26.4,3.597 -20.4,0 -20.4,-12 -27.6,-15.597 L 1032,390 l -36,-4.801 -334.801,0 -18,4.801 -13.199,10.801 -9.602,12 -7.199,15.597 -8.398,20.403 0,28.801 10.801,27.597 10.796,13.199 14.403,9.602 22.801,3.602 295.199,0" inkscape:connector-curvature="0" id="path30" style="stroke:#000000;stroke-width:8;stroke-miterlimit:4;stroke-dasharray:none;fill:none;stroke-opacity:1"/>
      <path d="m 930,534 -76.801,9.602 -76.801,-4.801 -22.796,4.801 -13.204,13.199 -7.199,22.801 -3.597,15.597 33.597,-15.597 L 796.801,576 930,586.801 l 39.602,-2.403 41.998,-4.796 30,-10.801 33.6,-14.403 20.4,-15.597 19.2,-9.602 30,0 32.4,4.801 49.2,10.801 0,-126" inkscape:connector-curvature="0" id="path32" style="stroke:#000000;stroke-width:8;stroke-miterlimit:4;stroke-dasharray:none;fill:none;stroke-opacity:1"/>
      <path d="m 691.199,271.199 -39.597,36 1.199,4.801 3.597,3.602 2.403,-2.403 49.199,-40.801 38.398,44.403 3.602,0 1.199,-1.199 3.602,-3.602 0,-2.398 -32.403,-38.403 -9.597,1.199 -12,0 -9.602,-1.199 -12,-3.597 -10.801,-4.801 -8.398,-8.403 -7.199,-6 -1.199,-6 0,-8.398 3.597,-3.602 6,-4.796 12,-6 22.801,-2.403 22.801,2.403 10.801,-1.204 7.199,-6 6,-9.597 10.801,-15.602 7.199,-8.398 10.801,-7.199 9.597,-3.602 7.199,-3.602 13.204,-1.199 39.597,1.199 50.403,8.403 44.398,4.801 43.199,-3.602 50.401,-4.801 45.6,-2.398 39.6,-2.403 25.2,1.204 21.6,2.398 19.2,2.398 18,3.602 7.2,3.602 6,3.597 0,2.403 -2.4,3.597 -21.6,1.199 -34.8,2.403 -33.6,-3.602 -31.2,1.199 -32.4,2.403 -30,9.597 -27.602,12 -18,7.204 -22.796,10.796 -22.801,2.403 -20.403,2.398 L 894,232.801 871.199,228 l -22.801,-8.398 -16.796,-4.801 -24,-6 -13.204,-1.199 L 786,210 778.801,217.199 771.602,228 762,241.199 756,252 l -10.801,8.398 -8.398,6 -9.602,4.801 -12,1.199" inkscape:connector-curvature="0" id="path34" style="stroke:#000000;stroke-width:8;stroke-miterlimit:4;stroke-dasharray:none;fill:none;stroke-opacity:1"/>
      <path d="m 696,253.199 3.602,7.199 6,-2.398 -4.801,-4.801 -4.801,0" inkscape:connector-curvature="0" id="path36" style="stroke:#000000;stroke-width:8;stroke-miterlimit:4;stroke-dasharray:none;fill:none;stroke-opacity:1"/>
      <path d="m 662.398,15.6016 15.602,6 15.602,9.5976 7.199,18 0,20.4024 -7.199,18 L 678,96 657.602,99.6016 637.199,91.1992 630,82.8008 l -6,-15.6016 2.398,-26.3984 13.204,-14.4024 13.199,-7.1992 9.597,-3.5976" inkscape:connector-curvature="0" id="path38" style="stroke:#000000;stroke-width:8;stroke-miterlimit:4;stroke-dasharray:none;fill:none;stroke-opacity:1"/>
      <path d="m 933.602,15.6016 13.199,3.5976 15.597,7.1992 7.204,10.8008 4.796,21.6016 -6,24 -19.199,16.8008 -19.199,1.1994 -16.801,-6.0002 -12,-12 -6,-19.1992 0,-12 6,-18 12,-12 20.403,-6" inkscape:connector-curvature="0" id="path40" style="stroke:#000000;stroke-width:8;stroke-miterlimit:4;stroke-dasharray:none;fill:none;stroke-opacity:1"/>
      <path d="m 1208.4,15.6016 18,6 14.4,14.3984 6,21.6016 -6,21.5976 -10.8,14.4024 -14.4,6 -15.6,-1.2032 -21.6,-9.5976 -9.6,-13.1992 -2.4,-12 2.4,-22.8008 12,-14.4024 12,-7.1992 L 1206,18" inkscape:connector-curvature="0" id="path42" style="stroke:#000000;stroke-width:8;stroke-miterlimit:4;stroke-dasharray:none;fill:none;stroke-opacity:1"/>
    </g>
  </g>
</svg>
