<?xml version="1.0" encoding="UTF-8"?>
<!-- Created with Inkscape (http://www.inkscape.org/) -->
<svg xmlns:dc="http://purl.org/dc/elements/1.1/" xmlns:cc="http://creativecommons.org/ns#" xmlns:rdf="http://www.w3.org/1999/02/22-rdf-syntax-ns#" xmlns:svg="http://www.w3.org/2000/svg" xmlns="http://www.w3.org/2000/svg" xmlns:inkscape="http://www.inkscape.org/namespaces/inkscape" version="1.1" width="765" height="990" id="svg2" xml:space="preserve">
  <metadata id="metadata8">
    <rdf:RDF>
      <cc:Work rdf:about="">
        <dc:format>image/svg+xml</dc:format>
        <dc:type rdf:resource="http://purl.org/dc/dcmitype/StillImage"/>
      </cc:Work>
    </rdf:RDF>
  </metadata>
  <defs id="defs6"/>
  <g transform="matrix(1.25,0,0,-1.25,0,990)" id="g10">
    <g transform="scale(0.1,0.1)" id="g12">
      <path d="m 3949.2,1116 -98.4,19.2 -70.8,12 -51.6,19.2 -63.6,26.4 -67.2,31.2 -124.8,70.8 -127.2,69.6 -64.8,22.8 -76.8,28.8 -76.8,13.2 -57.6,12 -69.6,0 -70.8,-8.4 -70.8,-22.8 -69.6,-34.8 -76.8,-57.6 -51.6,-48 -50.4,-32.4 -42,-28.8 -34.8,-9.6 -38.4,-15.6 -38.4,-13.2 -63.6,-9.6" inkscape:connector-curvature="0" id="path14" style="stroke:#000000;stroke-width:8;stroke-miterlimit:4;stroke-dasharray:none;fill:none;stroke-opacity:1"/>
      <path d="m 2458.8,1173.6 55.2,0 48,2.4 48,-9.6 82.8,-19.2 63.6,-25.2 70.8,-15.6 76.8,-19.2 48,-9.6 86.4,-3.6 111.6,9.6 54,6 178.8,22.8 70.8,9.6 63.6,7.2 64.8,6 127.2,6 64.8,-6 54,-6 54,-7.2 28.8,0" inkscape:connector-curvature="0" id="path16" style="stroke:#000000;stroke-width:8;stroke-miterlimit:4;stroke-dasharray:none;fill:none;stroke-opacity:1"/>
      <path d="m 2842.8,1396.8 -21.6,-32.4 -7.2,-24 -9.6,-32.4 -3.6,-32.4 13.2,-57.6 19.2,-28.8 19.2,-28.8 32.4,-25.2 34.8,-19.2 73.2,-9.6 54,6 42,6 51.6,36 32.4,38.4 15.6,28.8 9.6,60 -6,58.8 -16.8,31.2 -15.6,25.2 -32.4,32.4" inkscape:connector-curvature="0" id="path18" style="stroke:#000000;stroke-width:8;stroke-miterlimit:4;stroke-dasharray:none;fill:none;stroke-opacity:1"/>
      <path d="m 558,528 57.602,-163.199 0,-38.403 -7.204,-22.796 -102,-188.403 L 490.801,90 468,80.3984 446.398,69.6016 l -124.796,-6 -28.801,-6 -19.199,-13.2032 -13.204,-15.5976 -3.597,-9.6016 16.801,0 15.597,15.6016 15.602,0 7.199,-13.1992 117.602,7.1992 76.796,-9.6016 19.204,2.4024 13.199,22.7968 15.597,-28.7968 13.204,0 3.597,16.7968 -13.199,25.2032 -6,25.1992 15.602,42.0002 48,90 21.597,50.398 16.801,19.199 19.199,19.204 0,32.398 54,96" inkscape:connector-curvature="0" id="path20" style="stroke:#000000;stroke-width:8;stroke-miterlimit:4;stroke-dasharray:none;fill:none;stroke-opacity:1"/>
      <path d="m 554.398,988.801 -57.597,-36 -63.602,-18 -34.801,-20.403 -15.597,-27.597 12,-32.403 28.801,-42 54,-34.796 L 1303.2,534 l 40.8,-3.602 42,0 32.4,13.204 9.6,13.199 -20.4,15.597 L 1165.2,712.801 1011.6,822 954,879.602 915.602,918 l -38.403,25.199 -48,32.403 -44.398,28.798 -63.602,25.2 -44.398,10.8 -48,6 -57.602,-3.6 -42,-25.2 -54,-38.401 -20.398,-7.199 -21.602,3.602 -13.199,16.796 0,18.002 13.199,22.8 121.199,249.6 3.602,28.8 2.398,32.4 -2.398,31.2 -13.199,34.8 -15.602,26.4 -26.398,13.2 -27.602,6 -28.801,0 -32.398,-6 -31.199,-16.8 L 360,1410 l -13.199,-15.6 -13.199,-25.2 -6,-15.6 0,-32.4 13.199,-32.4 13.199,-13.2 28.801,-15.6 15.597,-6 25.204,-9.6 0,-25.2 -9.602,-51.6 -25.199,-51.6 -42,-44.4 -44.403,-44.4 -57.597,-63.598 -19.199,-42 -6,-48 6,-42 25.199,-48 67.199,-73.204 236.398,-180 130.801,-73.199 45.602,-32.398 L 762,393.602 790.801,342 813.602,297.602 852,124.801 852,102 836.398,92.3984 813.602,82.8008 650.398,61.1992 634.801,50.3984 l -13.199,-18 -2.403,-13.1992 12,-3.5976 16.801,25.1992 6,0 6,-25.1992 163.199,16.7968 57.602,-13.1992 15.597,6 3.602,19.1992 25.199,-22.7968 13.199,0 L 942,34.8008 938.398,48 l -25.199,25.1992 -16.801,35.9998 -9.597,165.602 9.597,32.398 -9.597,25.199 3.597,74.403 6,21.597 105.602,7.204 38.4,8.398" inkscape:connector-curvature="0" id="path22" style="stroke:#000000;stroke-width:8;stroke-miterlimit:4;stroke-dasharray:none;fill:none;stroke-opacity:1"/>
      <path d="m 1276.8,470.398 67.2,9.602 28.8,9.602 19.2,9.597 -3.6,9.602 -104.4,32.398" inkscape:connector-curvature="0" id="path24" style="stroke:#000000;stroke-width:8;stroke-miterlimit:4;stroke-dasharray:none;fill:none;stroke-opacity:1"/>
      <path d="m 925.199,607.199 195.601,-246 15.6,-15.597 16.8,-3.602 12,0 9.6,9.602 0,22.796" inkscape:connector-curvature="0" id="path26" style="stroke:#000000;stroke-width:8;stroke-miterlimit:4;stroke-dasharray:none;fill:none;stroke-opacity:1"/>
      <path d="M 1005.6,591.602 1171.2,378 l 16.8,-10.801 15.6,-2.398 13.2,6 6,9.597 0,9.602" inkscape:connector-curvature="0" id="path28" style="stroke:#000000;stroke-width:8;stroke-miterlimit:4;stroke-dasharray:none;fill:none;stroke-opacity:1"/>
      <path d="m 1072.8,578.398 150,-182.398 9.6,-9.602 13.2,-2.398 13.2,12 0,16.801" inkscape:connector-curvature="0" id="path30" style="stroke:#000000;stroke-width:8;stroke-miterlimit:4;stroke-dasharray:none;fill:none;stroke-opacity:1"/>
      <path d="m 1149.6,560.398 111.6,-147.597 15.6,-9.602 10.8,0 8.4,6 7.2,9.602 0,9.597 -86.4,118.801" inkscape:connector-curvature="0" id="path32" style="stroke:#000000;stroke-width:8;stroke-miterlimit:4;stroke-dasharray:none;fill:none;stroke-opacity:1"/>
      <path d="m 391.199,1359.6 7.199,13.2 12,8.4 15.602,3.6 13.199,-6 3.602,-13.2 -6,-9.6 -13.199,-9.6 -15.602,-2.4 -9.602,9.6 -3.597,19.2" inkscape:connector-curvature="0" id="path34" style="stroke:#000000;stroke-width:8;stroke-miterlimit:4;stroke-dasharray:none;fill:none;stroke-opacity:1"/>
      <path d="m 465.602,1094.4 246,-3.6 0,163.2 -13.204,48 -34.796,57.6 -26.403,28.8 -25.199,19.2 -22.801,15.6 -31.199,16.8 -22.801,6 -21.597,6 -19.204,0 -19.199,3.6" inkscape:connector-curvature="0" id="path36" style="stroke:#000000;stroke-width:8;stroke-miterlimit:4;stroke-dasharray:none;fill:none;stroke-opacity:1"/>
      <path d="M 337.199,1369.2 318,1353.6 l -19.199,-19.2 -25.199,-16.8 -42,-15.6 L 174,1267.2 123.602,1221.6 87.6016,1180.8 43.1992,1113.6 24,1046.4 14.3984,1008 l 0,-15.602 9.6016,-7.199 6,7.199 22.8008,56.402 44.3984,70.8 45.6018,61.2 37.199,34.8 45.602,32.4 54,25.2 34.796,9.6 26.403,6" inkscape:connector-curvature="0" id="path38" style="stroke:#000000;stroke-width:8;stroke-miterlimit:4;stroke-dasharray:none;fill:none;stroke-opacity:1"/>
      <path d="m 37.1992,994.801 15.6016,9.599 48.0002,70.8 31.199,44.4 42,48 48,36 44.398,21.6 38.403,19.2 78,6 27.597,-2.4" inkscape:connector-curvature="0" id="path40" style="stroke:#000000;stroke-width:8;stroke-miterlimit:4;stroke-dasharray:none;fill:none;stroke-opacity:1"/>
      <path d="M 1752,844.801 2108.4,1189.2" inkscape:connector-curvature="0" id="path42" style="stroke:#000000;stroke-width:8;stroke-miterlimit:4;stroke-dasharray:none;fill:none;stroke-opacity:1"/>
      <path d="M 1622.4,895.199 2061.6,1315.2" inkscape:connector-curvature="0" id="path44" style="stroke:#000000;stroke-width:8;stroke-miterlimit:4;stroke-dasharray:none;fill:none;stroke-opacity:1"/>
      <path d="M 1537.2,985.199 1977.6,1406.4" inkscape:connector-curvature="0" id="path46" style="stroke:#000000;stroke-width:8;stroke-miterlimit:4;stroke-dasharray:none;fill:none;stroke-opacity:1"/>
      <path d="m 1492.8,1114.8 351.6,336" inkscape:connector-curvature="0" id="path48" style="stroke:#000000;stroke-width:8;stroke-miterlimit:4;stroke-dasharray:none;fill:none;stroke-opacity:1"/>
      <path d="m 1930.8,1431.6 -30,7.2 -31.2,12 -33.6,4.8 -32.4,0 -36,-2.4 -30,-2.4 -32.4,-12 -31.2,-9.6 -30,-14.4 -27.6,-19.2 -21.6,-19.2 -21.6,-21.6 -16.8,-20.4 -16.8,-24 -19.2,-36 -8.4,-27.6 -8.4,-30 -4.8,-31.2 -6,-34.8 0,-30 6,-36 8.4,-30 7.2,-27.6 14.4,-31.2 8.4,-15.602 10.8,-14.398 27.6,-30 27.6,-27.602 25.2,-19.199 30,-16.801 32.4,-15.597 33.6,-8.403 27.6,-9.597 32.4,0 32.4,-2.403 39.6,6 26.4,6 33.6,13.204 33.6,16.796 21.6,10.801 25.2,21.602 24,22.801 25.2,24 19.2,30 19.2,27.598 13.2,27.6 8.4,33.6 2.4,30 6,36 -2.4,30 -3.6,36 -7.2,30 -12,27.6 -13.2,36 -19.2,27.6 -19.2,21.6 -22.8,27.6 -27.6,19.2 -27.6,19.2 -28.8,14.4" inkscape:connector-curvature="0" id="path50" style="stroke:#000000;stroke-width:8;stroke-miterlimit:4;stroke-dasharray:none;fill:none;stroke-opacity:1"/>
      <path d="m 1796.4,643.199 -32.4,-16.801 -25.2,-30 -7.2,-24 -6,-25.199 8.4,-38.398 19.2,-25.199 19.2,-15.602 32.4,-12 25.2,-8.398 30,0 33.6,14.398 27.6,13.199 15.6,20.403 19.2,26.398 14.4,33.602 8.4,27.597 2.4,27.602 -2.4,19.199 -6,33.602 -14.4,27.597 -21.6,26.403 -21.6,19.199 -19.2,8.398 -19.2,8.403 -27.6,2.398 -21.6,3.602 -27.6,0 -33.6,-3.602 -34.8,-10.801 -31.2,-16.801 -19.2,-15.597 -21.6,-19.199 -16.8,-20.403 -16.8,-30 -15.6,-30 -6,-27.597 -6,-38.403 -2.4,-38.398 2.4,-30 3.6,-44.403 15.6,-43.199 25.2,-50.398 44.4,-57.602 68.4,-66 L 1855.2,138 2068.8,16.8008" inkscape:connector-curvature="0" id="path52" style="stroke:#000000;stroke-width:8;stroke-miterlimit:4;stroke-dasharray:none;fill:none;stroke-opacity:1"/>
      <path d="m 3967.2,78 -99.6,19.1992 -69.6,13.1988 -51.6,18 -63.6,26.403 -67.2,31.199 -124.8,70.801 -128.4,70.801 -63.6,22.796 -76.8,28.801 -76.8,12 -57.6,13.199 -70.8,0 -69.6,-9.597 -70.8,-22.801 -69.6,-34.801 -76.8,-57.597 -51.6,-48 -50.4,-32.403 -42,-28.801 -34.8,-9.597 -38.4,-15.602 -38.4,-13.199 -63.6,-9.602" inkscape:connector-curvature="0" id="path54" style="stroke:#000000;stroke-width:8;stroke-miterlimit:4;stroke-dasharray:none;fill:none;stroke-opacity:1"/>
      <path d="m 2476.8,135.602 55.2,0 48,3.597 48,-10.801 82.8,-18 63.6,-26.398 70.8,-15.6016 76.8,-19.1992 48,-9.5976 86.4,-3.6016 111.6,9.6016 54,6 180,22.7968 69.6,9.6016 63.6,7.1992 63.6,6 128.4,5.9998 64.8,-5.9998 54,-6 54,-7.1992 28.8,0" inkscape:connector-curvature="0" id="path56" style="stroke:#000000;stroke-width:8;stroke-miterlimit:4;stroke-dasharray:none;fill:none;stroke-opacity:1"/>
      <path d="M 2860.8,360 2839.2,327.602 2832,302.398 2822.4,270 2820,237.602 2832,180 l 19.2,-28.801 19.2,-28.801 32.4,-25.1988 34.8,-19.1992 73.2,-9.6016 55.2,6 40.8,6 51.6,35.9996 32.4,38.403 15.6,28.801 9.6,61.199 -6,57.597 -16.8,31.204 -15.6,26.398 -32.4,31.199" inkscape:connector-curvature="0" id="path58" style="stroke:#000000;stroke-width:8;stroke-miterlimit:4;stroke-dasharray:none;fill:none;stroke-opacity:1"/>
    </g>
  </g>
</svg>
