<?xml version="1.0" encoding="UTF-8"?>
<!-- Created with Inkscape (http://www.inkscape.org/) -->
<svg xmlns:dc="http://purl.org/dc/elements/1.1/" xmlns:cc="http://creativecommons.org/ns#" xmlns:rdf="http://www.w3.org/1999/02/22-rdf-syntax-ns#" xmlns:svg="http://www.w3.org/2000/svg" xmlns="http://www.w3.org/2000/svg" xmlns:inkscape="http://www.inkscape.org/namespaces/inkscape" version="1.1" width="765" height="990" id="svg2" xml:space="preserve">
  <metadata id="metadata8">
    <rdf:RDF>
      <cc:Work rdf:about="">
        <dc:format>image/svg+xml</dc:format>
        <dc:type rdf:resource="http://purl.org/dc/dcmitype/StillImage"/>
      </cc:Work>
    </rdf:RDF>
  </metadata>
  <defs id="defs6"/>
  <g transform="matrix(1.25,0,0,-1.25,0,990)" id="g10">
    <g transform="scale(0.1,0.1)" id="g12">
      <path d="m 807.602,1072.8 -70.801,6 -111.602,-6 -84,8.4 -25.199,-8.4 -19.199,-26.4 6,-44.4 38.398,-118.801 15.602,-32.398 39.597,-50.403 L 691.199,681.602 896.398,468 1044,330 1356,22.8008 l 32.4,0 9.6,16.8008 -13.2,28.7968 -134.4,307.2036 -18,57.597 -51.6,127.199 -15.6,32.403 -42,86.398 L 1046.4,810 967.199,940.801 912,1015.2 l -48,69.6 -48,64.8 -56.398,66 -57.602,39.6 -16.801,66 -12,74.4 -19.199,48 -55.199,12 -90,0 -98.403,-2.4 -48,-13.2 -22.796,-7.2 -162,-21.6 -48,-22.8 -15.602,-21.6 -3.602,-45.6 19.204,32.4 31.199,15.6 96,0 99.597,-2.4 51.602,-13.2 -42,50.4 -9.602,36" inkscape:connector-curvature="0" id="path14" style="stroke:#000000;stroke-width:8;stroke-miterlimit:4;stroke-dasharray:none;fill:none;stroke-opacity:1"/>
      <path d="m 462,1372.8 9.602,2.4 6,16.8 -6,15.6 -13.204,9.6 -13.199,-9.6 -2.398,-19.2 6,-9.6 9.597,-6" inkscape:connector-curvature="0" id="path16" style="stroke:#000000;stroke-width:8;stroke-miterlimit:4;stroke-dasharray:none;fill:none;stroke-opacity:1"/>
      <path d="m 126,1340.4 128.398,3.6 98.403,-13.2 28.801,-15.6 9.597,-32.4 3.602,-34.8 L 366,1178.4 352.801,1090.8 368.398,985.199 381.602,938.398 400.801,880.801 414,854.398 458.398,765.602 621.602,470.398 688.801,345.602 702,250.801 685.199,87.6016 669.602,70.8008 577.199,62.3984 468,64.8008 462,49.1992 414,42 408,33.6016 416.398,20.3984 691.199,30 976.801,16.8008 l 12,13.1992 -6,15.6016 -44.403,0 L 912,68.3984 748.801,70.8008 730.801,84 l 18,201.602 118.801,-61.204 67.199,198 127.199,-319.199 45.6,-57.5974 44.4,-25.2032 67.2,0 38.4,13.2032 9.6,18 -32.4,87.5974" inkscape:connector-curvature="0" id="path18" style="stroke:#000000;stroke-width:8;stroke-miterlimit:4;stroke-dasharray:none;fill:none;stroke-opacity:1"/>
      <path d="m 442.801,787.199 25.199,-96 9.602,-98.398 3.597,-38.403 0,-178.796 L 448.801,193.199 420,99.6016 400.801,78 247.199,68.3984 231.602,45.6016 196.801,42 183.602,33.6016 196.801,20.3984 314.398,30 349.199,26.3984" inkscape:connector-curvature="0" id="path20" style="stroke:#000000;stroke-width:8;stroke-miterlimit:4;stroke-dasharray:none;fill:none;stroke-opacity:1"/>
      <path d="m 464.398,64.8008 -54,-6 0,0 L 379.199,51.6016 360,26.3984 l 12,-6 19.199,19.2032 L 410.398,42" inkscape:connector-curvature="0" id="path22" style="stroke:#000000;stroke-width:8;stroke-miterlimit:4;stroke-dasharray:none;fill:none;stroke-opacity:1"/>
      <path d="M 462,68.3984 531.602,330 640.801,266.398 662.398,385.199" inkscape:connector-curvature="0" id="path24" style="stroke:#000000;stroke-width:8;stroke-miterlimit:4;stroke-dasharray:none;fill:none;stroke-opacity:1"/>
      <path d="m 237.602,64.8008 -51.602,-6 0,0 -31.199,-7.1992 -19.199,-25.2032 9.597,-6 L 168,39.6016 193.199,42" inkscape:connector-curvature="0" id="path26" style="stroke:#000000;stroke-width:8;stroke-miterlimit:4;stroke-dasharray:none;fill:none;stroke-opacity:1"/>
      <path d="m 919.199,68.3984 60,-6 28.801,-10.7968 19.2,-25.2032 -9.6,-6 L 996,39.6016 979.199,42" inkscape:connector-curvature="0" id="path28" style="stroke:#000000;stroke-width:8;stroke-miterlimit:4;stroke-dasharray:none;fill:none;stroke-opacity:1"/>
      <path d="m 1452,883.199 -453.602,0" inkscape:connector-curvature="0" id="path30" style="stroke:#000000;stroke-width:8;stroke-miterlimit:4;stroke-dasharray:none;fill:none;stroke-opacity:1"/>
      <path d="m 397.199,883.199 -69.597,0 L 270,870 214.801,844.801 158.398,804 120,771.602 85.1992,733.199 l -30,-38.398 -18,-38.403 L 24,618 18,585.602 14.3984,556.801 1452,556.801" inkscape:connector-curvature="0" id="path32" style="stroke:#000000;stroke-width:8;stroke-miterlimit:4;stroke-dasharray:none;fill:none;stroke-opacity:1"/>
      <path d="m 2169.6,897.602 -12,-115.204 6,-69.597 3.6,-76.801 12,-74.398 26.4,-76.801 28.8,-66 40.8,-70.801 80.4,-96 54,-50.398 28.8,-22.801 13.2,-3.602 28.8,-6 25.2,0 28.8,12 19.2,22.801 9.6,28.801 0,28.801 -13.2,28.796 -12,28.801 -26.4,31.199 -79.2,68.403 -74.4,69.597 -50.4,67.204 -38.4,61.199 -25.2,76.801 -13.2,79.199 0,124.801" inkscape:connector-curvature="0" id="path34" style="stroke:#000000;stroke-width:8;stroke-miterlimit:4;stroke-dasharray:none;fill:none;stroke-opacity:1"/>
      <path d="m 2205.6,926.398 -322.8,-220.796 0,32.398 -7.2,63.602 -9.6,51.597 -15.6,48 -44.4,86.403 -64.8,76.798 -37.2,31.2 -32.4,19.2 -99.6,45.6 105.6,46.8 105.6,39.6 115.2,34.8 124.8,25.2 86.4,6 85.2,7.2 93.6,-3.6 96,-3.6 111.6,-25.2 111.6,-38.4 115.2,-38.4 111.6,-44.4 -82.8,-38.4 -60,-44.4 -49.2,-42 -34.8,-47.998 -38.4,-63.602 -22.8,-61.199 -21.6,-86.403 0,-80.398 -319.2,224.398" inkscape:connector-curvature="0" id="path36" style="stroke:#000000;stroke-width:8;stroke-miterlimit:4;stroke-dasharray:none;fill:none;stroke-opacity:1"/>
    </g>
  </g>
</svg>
