<?xml version="1.0" encoding="UTF-8"?>
<!-- Created with Inkscape (http://www.inkscape.org/) -->
<svg xmlns:dc="http://purl.org/dc/elements/1.1/" xmlns:cc="http://creativecommons.org/ns#" xmlns:rdf="http://www.w3.org/1999/02/22-rdf-syntax-ns#" xmlns:svg="http://www.w3.org/2000/svg" xmlns="http://www.w3.org/2000/svg" xmlns:inkscape="http://www.inkscape.org/namespaces/inkscape" version="1.1" width="765" height="990" id="svg2" xml:space="preserve">
  <metadata id="metadata8">
    <rdf:RDF>
      <cc:Work rdf:about="">
        <dc:format>image/svg+xml</dc:format>
        <dc:type rdf:resource="http://purl.org/dc/dcmitype/StillImage"/>
      </cc:Work>
    </rdf:RDF>
  </metadata>
  <defs id="defs6"/>
  <g transform="matrix(1.25,0,0,-1.25,0,990)" id="g10">
    <g transform="scale(0.1,0.1)" id="g12">
      <path d="m 292.801,1033.2 39.597,-3.6 66,9.6 20.403,7.2 51.597,22.8 30,26.4 33.602,43.2 16.801,42 25.199,188.4 27.602,62.4 26.398,37.2 6,19.2 -6,7.2 -40.801,-33.6 -32.398,-60 -39.602,-164.4 -13.199,-62.4 -13.199,-20.4 -15.602,-22.8 -30,-22.8 -39.597,-16.8 -39.602,-7.2 -56.398,-2.4 -22.801,0 -43.199,6 -39.602,16.8 -45.602,39.6 -26.398,43.2 -9.602,62.4 -33.5972,154.8 -26.4024,60 -32.3984,36 -10.8008,0 0,-16.8 36,-62.4 L 72,1342.8 98.3984,1152 l 26.4026,-43.2 39.597,-36 43.204,-26.4 26.398,-7.2 56.398,-6" inkscape:connector-curvature="0" id="path14" style="stroke:#000000;stroke-width:8;stroke-miterlimit:4;stroke-dasharray:none;fill:none;stroke-opacity:1"/>
      <path d="M 675.602,858 630,933.602 l -67.199,75.598 -45.602,33.6 -32.398,22.8 -86.403,39.6 -108,43.2 -50.398,49.2 -16.801,49.2 7.199,62.4 20.403,26.4 22.801,24 39.597,16.8 32.403,0 30,-13.2 19.199,-20.4 10.801,-16.8 9.597,-19.2 0,-26.4 L 402,1254 l -13.199,-13.2 -30,-3.6 -19.199,3.6 -10.801,22.8 7.199,13.2" inkscape:connector-curvature="0" id="path16" style="stroke:#000000;stroke-width:8;stroke-miterlimit:4;stroke-dasharray:none;fill:none;stroke-opacity:1"/>
      <path d="m 362.398,1035.6 -9.597,-43.202" inkscape:connector-curvature="0" id="path18" style="stroke:#000000;stroke-width:8;stroke-miterlimit:4;stroke-dasharray:none;fill:none;stroke-opacity:1"/>
      <path d="m 279.602,997.199 -2.403,38.401" inkscape:connector-curvature="0" id="path20" style="stroke:#000000;stroke-width:8;stroke-miterlimit:4;stroke-dasharray:none;fill:none;stroke-opacity:1"/>
      <path d="m 302.398,16.8008 20.403,0 L 332.398,30 349.199,45.6016 356.398,62.3984 366,96 l 6,32.398 7.199,56.403 3.602,46.801 -3.602,36 -3.597,49.199 -3.602,52.801 -6,52.796 -37.199,356.403" inkscape:connector-curvature="0" id="path22" style="stroke:#000000;stroke-width:8;stroke-miterlimit:4;stroke-dasharray:none;fill:none;stroke-opacity:1"/>
      <path d="m 296.398,778.801 45.602,0 24,7.199 9.602,9.602 9.597,15.597 7.199,24 2.403,19.199 7.199,19.204 6,13.199 7.199,10.801 16.801,16.796 19.199,13.204 13.199,6 10.801,3.597 6,3.602 3.602,6 0,9.597 -16.801,10.801 -36,9.602 -37.199,9.597 -68.403,6 -36,0 -60,-2.398 L 204,984 164.398,969.602 138,956.398 l -2.398,-15.597 6,-7.199 19.199,-3.602 24,-13.199 15.597,-19.199 9.602,-13.204 13.199,-36 L 228,822 l 6,-13.199 9.602,-13.199 13.199,-14.403 13.199,-2.398 20.398,0 -7.199,-36 L 250.801,402 240,300 237.602,247.199 240,201.602 240,158.398 253.199,102 260.398,69.6016 270,49.1992 277.199,33.6016 286.801,22.8008 300,20.3984" inkscape:connector-curvature="0" id="path24" style="stroke:#000000;stroke-width:8;stroke-miterlimit:4;stroke-dasharray:none;fill:none;stroke-opacity:1"/>
      <path d="m 1808.4,14.3984 -777.6,0 9.6,67.2032 10.8,43.1994 15.6,42 24,33.597 19.2,30 26.4,36 30,26.403 36,26.398 30,19.199 43.2,20.403 43.2,13.199 28.8,6 52.8,7.199 39.6,0 36,-7.199 39.6,-6 43.2,-10.801 30,-9.597 39.6,-26.403 32.4,-22.801 30,-22.796 26.4,-33.602 26.4,-36 22.8,-36 16.8,-33.602 13.2,-49.1988 9.6,-36 2.4,-40.8008" inkscape:connector-curvature="0" id="path26" style="stroke:#000000;stroke-width:8;stroke-miterlimit:4;stroke-dasharray:none;fill:none;stroke-opacity:1"/>
      <path d="m 3058.8,369.602 -141.6,-13.204 -105.6,9.602 -88.8,16.801 -69.6,19.199 -69.6,26.398 -43.2,26.403 -49.2,36 -43.2,36 -45.6,46.801 -39.6,58.796 -26.4,54 -13.2,56.403 -7.2,55.199 -6,52.801 3.6,46.801 2.4,39.597 -42,6 -45.6,16.801 -40.8,22.801 -28.8,26.399 -20.4,30 -13.2,26.4 -19.2,45.6 -7.2,60 -16.8,56.4 -22.8,36 -42,39.6 -33.6,16.8 -26.4,6 -32.4,3.6 -24,3.6 -22.8,-7.2 -15.6,3.6 -7.2,13.2 0,16.8 13.2,12 20.4,13.2 72,26.4 72,14.4 66,19.2 69.6,13.2 62.4,3.6 75.6,9.6 103.2,-3.6 121.2,-9.6 69.6,-16.8 81.6,-19.2 69.6,-24 60,-22.8 19.2,-13.2 13.2,-15.6 3.6,-16.8 -19.2,-9.6 -43.2,-7.2 -46.8,0 -39.6,-9.6 -32.4,-16.8 -30,-30 -16.8,-36 -9.6,-46.8 -28.8,-81.6 -27.6,-49.2 -32.4,-39.6 -39.6,-33.598 -46.8,-20.403 -36,-6 -28.8,-6 -30,0 -16.8,2.403" inkscape:connector-curvature="0" id="path28" style="stroke:#000000;stroke-width:8;stroke-miterlimit:4;stroke-dasharray:none;fill:none;stroke-opacity:1"/>
      <path d="m 2366.4,939.602 -9.6,-66 2.4,-75.602 13.2,-66 26.4,-66 30,-49.199 36,-36 46.8,-33.602 45.6,-32.398 46.8,-26.403 55.2,-30 52.8,-13.199 69.6,-16.801 62.4,-9.597 73.2,0 68.4,7.199 43.2,6 33.6,3.602 19.2,-9.602 7.2,-27.602 -4.8,-15.597 -25.2,-13.199" inkscape:connector-curvature="0" id="path30" style="stroke:#000000;stroke-width:8;stroke-miterlimit:4;stroke-dasharray:none;fill:none;stroke-opacity:1"/>
      <path d="m 3333.6,1444.8 0,-593.999 105.6,0 0,593.999 -105.6,0" inkscape:connector-curvature="0" id="path32" style="stroke:#000000;stroke-width:8;stroke-miterlimit:4;stroke-dasharray:none;fill:none;stroke-opacity:1"/>
      <path d="m 3861.6,1444.8 0,-593.999 108,0 0,593.999 -108,0" inkscape:connector-curvature="0" id="path34" style="stroke:#000000;stroke-width:8;stroke-miterlimit:4;stroke-dasharray:none;fill:none;stroke-opacity:1"/>
      <path d="m 4395.6,1444.8 0,-593.999 105.6,0 0,593.999 -105.6,0" inkscape:connector-curvature="0" id="path36" style="stroke:#000000;stroke-width:8;stroke-miterlimit:4;stroke-dasharray:none;fill:none;stroke-opacity:1"/>
    </g>
  </g>
</svg>
