<?xml version="1.0" encoding="UTF-8"?>
<!-- Created with Inkscape (http://www.inkscape.org/) -->
<svg xmlns:dc="http://purl.org/dc/elements/1.1/" xmlns:cc="http://creativecommons.org/ns#" xmlns:rdf="http://www.w3.org/1999/02/22-rdf-syntax-ns#" xmlns:svg="http://www.w3.org/2000/svg" xmlns="http://www.w3.org/2000/svg" xmlns:inkscape="http://www.inkscape.org/namespaces/inkscape" version="1.1" width="765" height="990" id="svg2" xml:space="preserve">
  <metadata id="metadata8">
    <rdf:RDF>
      <cc:Work rdf:about="">
        <dc:format>image/svg+xml</dc:format>
        <dc:type rdf:resource="http://purl.org/dc/dcmitype/StillImage"/>
      </cc:Work>
    </rdf:RDF>
  </metadata>
  <defs id="defs6"/>
  <g transform="matrix(1.25,0,0,-1.25,0,990)" id="g10">
    <g transform="scale(0.1,0.1)" id="g12">
      <path d="m 481.199,58.8008 192,0 -3.597,70.8012 19.199,92.398 19.199,54 38.398,87.602 176.403,309.597 8.398,67.199 3.602,32.403 -6,57.597 -9.602,38.403 -16.801,46.801 -28.796,45.597 -21.602,25.199 -57.602,54.002 -45.597,16.8 -92.403,9.6 -76.796,-9.6 L 548.398,1044 510,1018.8 474,980.398 458.398,957.602 442.801,938.398" inkscape:connector-curvature="0" id="path14" style="stroke:#000000;stroke-width:8;stroke-miterlimit:4;stroke-dasharray:none;fill:none;stroke-opacity:1"/>
      <path d="M 433.199,936 404.398,922.801 91.1992,861.602 62.3984,838.801 39.6016,823.199 20.3984,788.398 l -6,-51.597 3.6016,-12 8.3984,-7.199 7.2032,0 15.5976,7.199 6,27.597 19.1992,28.801 28.8006,26.403 32.403,9.597 42,13.199 259.199,34.801 6,3.602 38.398,-7.199" inkscape:connector-curvature="0" id="path16" style="stroke:#000000;stroke-width:8;stroke-miterlimit:4;stroke-dasharray:none;fill:none;stroke-opacity:1"/>
      <path d="m 436.801,936 44.398,-78 0,-40.801" inkscape:connector-curvature="0" id="path18" style="stroke:#000000;stroke-width:8;stroke-miterlimit:4;stroke-dasharray:none;fill:none;stroke-opacity:1"/>
      <path d="m 62.3984,756 28.8008,19.199 47.9998,13.199 124.801,13.204 124.801,15.597 96,0 25.199,-3.597 50.398,-12 90,-16.801 48,-3.602 34.801,3.602 38.403,9.597 22.796,-13.199 L 804,765.602 807.602,727.199 804,696 788.398,657.602 648,471.602 577.199,358.801 548.398,302.398 513.602,235.199 494.398,148.801 481.199,58.8008" inkscape:connector-curvature="0" id="path20" style="stroke:#000000;stroke-width:8;stroke-miterlimit:4;stroke-dasharray:none;fill:none;stroke-opacity:1"/>
      <path d="m 756,1053.6 166.801,-61.202 161.999,-40.796 68.4,-13.204 56.4,-2.398 70.8,0 76.8,2.398 57.6,13.204 57.6,12 6,-6 -6,-21.602 -22.8,-16.801 -76.8,-15.597 -76.8,-9.602 -86.4,0 -73.2,6 -124.8,22.801 -69.6,21.597" inkscape:connector-curvature="0" id="path22" style="stroke:#000000;stroke-width:8;stroke-miterlimit:4;stroke-dasharray:none;fill:none;stroke-opacity:1"/>
      <path d="m 852,992.398 124.801,-66 124.799,-64.796 76.8,-38.403 57.6,-21.597 63.6,-16.801 44.4,-6 84,-9.602 34.8,6 15.6,3.602 13.2,-9.602 2.4,-19.199 -46.8,-16.801 -58.8,-6 -63.6,9.602 -88.8,19.199 -76.8,25.199 -74.4,36 -178.8,102" inkscape:connector-curvature="0" id="path24" style="stroke:#000000;stroke-width:8;stroke-miterlimit:4;stroke-dasharray:none;fill:none;stroke-opacity:1"/>
      <path d="M 583.199,973.199 564,970.801 l -15.602,-19.199 0,-22.801 15.602,-15.602 22.801,0 21.597,9.602 L 612,936 l -6,19.199 -16.801,18" inkscape:connector-curvature="0" id="path26" style="stroke:#000000;stroke-width:8;stroke-miterlimit:4;stroke-dasharray:none;fill:none;stroke-opacity:1"/>
      <path d="m 2002.8,854.398 16.8,0 9.6,3.602 15.6,12 3.6,10.801 2.4,15.597 -6,15.602 -7.2,13.199 -12,9.602 -16.8,3.597 -18,-3.597 -13.2,-3.602 -9.6,-13.199 -6,-21.602 3.6,-19.199 8.4,-9.597 9.6,-13.204 9.6,0 9.6,-2.398" inkscape:connector-curvature="0" id="path28" style="stroke:#000000;stroke-width:8;stroke-miterlimit:4;stroke-dasharray:none;fill:none;stroke-opacity:1"/>
      <path d="m 2259.6,994.801 -13.2,26.399 -15.6,25.2 -16.8,26.4 -19.2,15.6 -21.6,21.6 -22.8,16.8 -25.2,12 -26.4,10.8 -28.8,12 -27.6,3.6 -28.8,3.6 -26.4,-3.6 -25.2,-3.6 -25.2,-3.6 -26.4,-8.4 -28.8,-13.2 -25.2,-13.2 -22.8,-15.6 -25.2,-22.8 -16.8,-19.2 -18,-25.2 -13.2,-22.8 -13.2,-25.202 -6,-25.199 -9.6,-36 0,-63.597 6,-32.403 6,-31.199 13.2,-26.398 13.2,-25.204 15.6,-22.796 22.8,-22.801 15.6,-18 28.8,-19.199 19.2,-16.801 32.4,-9.602 28.8,-9.597 21.6,-9.602 93.6,0 28.8,6 28.8,7.199 21.6,9.602 26.4,16.801 25.2,18 19.2,19.199 19.2,19.199 19.2,28.801 12,22.801 13.2,25.199 6,28.801 9.6,28.796 3.6,26.403 0,31.199 -3.6,28.801 -9.6,28.801 -6,25.199" inkscape:connector-curvature="0" id="path30" style="stroke:#000000;stroke-width:8;stroke-miterlimit:4;stroke-dasharray:none;fill:none;stroke-opacity:1"/>
      <path d="M 2402.4,22.8008 2162.4,666" inkscape:connector-curvature="0" id="path32" style="stroke:#000000;stroke-width:8;stroke-miterlimit:4;stroke-dasharray:none;fill:none;stroke-opacity:1"/>
      <path d="m 2013.6,16.8008 0,604.8012" inkscape:connector-curvature="0" id="path34" style="stroke:#000000;stroke-width:8;stroke-miterlimit:4;stroke-dasharray:none;fill:none;stroke-opacity:1"/>
      <path d="M 1622.4,22.8008 1849.2,663.602" inkscape:connector-curvature="0" id="path36" style="stroke:#000000;stroke-width:8;stroke-miterlimit:4;stroke-dasharray:none;fill:none;stroke-opacity:1"/>
      <path d="m 2571.6,973.199 26.4,21.602 40.8,16.799 73.2,31.2 84,25.2 92.4,26.4 138,31.2 117.6,13.2 92.4,13.2 105.6,6 96,-6 112.8,-7.2 108,-12 103.2,-22.8 88.8,-21.6 82.8,-26.4 82.8,-25.2 64.8,-25.2 25.2,-13.202 19.2,-22.796 3.6,-2.403 -22.8,-22.801 -61.2,-38.398 -117.6,-44.398 -115.2,-36 -127.2,-28.801 -97.2,-9.602 -102,-13.199 -134.4,-6 -86.4,6 -92.4,7.199 -82.8,6 -121.2,19.199 -134.4,32.403 -96,32.398 -90,37.199 -57.6,32.403 -19.2,26.398" inkscape:connector-curvature="0" id="path38" style="stroke:#000000;stroke-width:8;stroke-miterlimit:4;stroke-dasharray:none;fill:none;stroke-opacity:1"/>
      <path d="m 3301.2,594 0,-574.8008 128.4,0 0,574.8008 -128.4,0" inkscape:connector-curvature="0" id="path40" style="stroke:#000000;stroke-width:8;stroke-miterlimit:4;stroke-dasharray:none;fill:none;stroke-opacity:1"/>
    </g>
  </g>
</svg>
