<?xml version="1.0" encoding="UTF-8"?>
<!-- Created with Inkscape (http://www.inkscape.org/) -->
<svg xmlns:dc="http://purl.org/dc/elements/1.1/" xmlns:cc="http://creativecommons.org/ns#" xmlns:rdf="http://www.w3.org/1999/02/22-rdf-syntax-ns#" xmlns:svg="http://www.w3.org/2000/svg" xmlns="http://www.w3.org/2000/svg" xmlns:inkscape="http://www.inkscape.org/namespaces/inkscape" version="1.1" width="765" height="990" id="svg2" xml:space="preserve">
  <metadata id="metadata8">
    <rdf:RDF>
      <cc:Work rdf:about="">
        <dc:format>image/svg+xml</dc:format>
        <dc:type rdf:resource="http://purl.org/dc/dcmitype/StillImage"/>
      </cc:Work>
    </rdf:RDF>
  </metadata>
  <defs id="defs6"/>
  <g transform="matrix(1.25,0,0,-1.25,0,990)" id="g10">
    <g transform="scale(0.1,0.1)" id="g12">
      <path d="m 394.801,986.398 15.597,0 9.602,3.602 16.801,12 2.398,10.8 3.602,15.6 -6,15.6 -7.199,13.2 -13.204,9.6 -15.597,2.4 -19.199,-2.4 -13.204,-3.6 -8.398,-13.2 -7.199,-21.6 3.597,-19.2 9.602,-9.598 9.602,-13.204 9.597,0 9.602,-2.398" inkscape:connector-curvature="0" id="path14" style="stroke:#000000;stroke-width:8;stroke-miterlimit:4;stroke-dasharray:none;fill:none;stroke-opacity:1"/>
      <path d="m 650.398,1126.8 -13.199,26.4 -15.597,25.2 -15.602,25.2 -20.398,16.8 -21.602,21.6 -22.801,16.8 -25.199,12 -25.199,9.6 -28.801,13.2 -28.801,2.4 -28.801,4.8 -25.199,-4.8 -26.398,-2.4 -25.199,-3.6 -25.204,-9.6 -28.796,-13.2 -25.204,-12 -22.796,-15.6 -26.403,-22.8 -15.597,-19.2 -19.204,-25.2 -13.199,-22.8 -12,-25.2 -7.199,-26.4 -8.398,-34.8 0,-63.598 6,-32.403 6,-31.199 13.199,-26.398 12,-25.204 16.801,-22.796 21.597,-22.801 15.602,-18 30,-19.199 L 264,784.801 295.199,775.199 324,765.602 346.801,756 l 92.398,0 28.801,6 28.801,7.199 22.801,9.602 25.199,15.597 25.199,19.204 19.199,19.199 19.199,19.199 19.204,28.801 13.199,22.801 13.199,25.199 6,28.801 9.602,28.796 3.597,26.402 0,31.2 -3.597,28.8 -9.602,28.8 -6,25.2" inkscape:connector-curvature="0" id="path16" style="stroke:#000000;stroke-width:8;stroke-miterlimit:4;stroke-dasharray:none;fill:none;stroke-opacity:1"/>
      <path d="m 794.398,156 -240,642" inkscape:connector-curvature="0" id="path18" style="stroke:#000000;stroke-width:8;stroke-miterlimit:4;stroke-dasharray:none;fill:none;stroke-opacity:1"/>
      <path d="m 404.398,148.801 0,604.801" inkscape:connector-curvature="0" id="path20" style="stroke:#000000;stroke-width:8;stroke-miterlimit:4;stroke-dasharray:none;fill:none;stroke-opacity:1"/>
      <path d="M 14.3984,156 241.199,794.398" inkscape:connector-curvature="0" id="path22" style="stroke:#000000;stroke-width:8;stroke-miterlimit:4;stroke-dasharray:none;fill:none;stroke-opacity:1"/>
      <path d="m 1759.2,775.199 6,-124.801 -6,-134.398 -39.6,-387.602 163.2,-111.5972 -907.198,0 191.998,88.8012 -105.6,406.796 -3.6,48 9.6,38.403 13.2,25.199 19.2,16.801 31.2,3.597 36,-7.199 44.4,-28.801 38.4,-34.796 153.6,-217.204 13.2,226.801 8.4,188.403 28.8,92.398 32.4,51.602 22.8,28.796 54,57.602 0,73.2 -21.6,19.2 -90,19.2 -32.4,-92.4 -25.2,12 51.6,84 6,73.2 -54,15.6 -3.6,15.6 25.2,36 19.2,25.2 13.2,36 178.8,-28.8 12,15.6 26.4,3.6 13.2,-19.2 0,-22.8 -7.2,-25.2 -21.6,-32.4 2.4,-431.998 176.4,0 -28.8,518.398 -15.6,63.6 -26.4,36 -31.2,31.2 -36,16.8 -44.4,12 -57.6,-3.6 -48,-12 -31.2,-22.8 -19.2,-21.6 -16.8,-22.8 -15.6,-28.8 -9.6,-22.8" inkscape:connector-curvature="0" id="path24" style="stroke:#000000;stroke-width:8;stroke-miterlimit:4;stroke-dasharray:none;fill:none;stroke-opacity:1"/>
      <path d="m 1480.8,1250.4 57.6,-6 -19.2,22.8 -16.8,3.6 -19.2,-15.6" inkscape:connector-curvature="0" id="path26" style="stroke:#000000;stroke-width:8;stroke-miterlimit:4;stroke-dasharray:none;fill:none;stroke-opacity:1"/>
      <path d="m 1200,615.602 -36,50.398 -32.4,38.398 -54,12 -40.8,-6 28.8,-111.597" inkscape:connector-curvature="0" id="path28" style="stroke:#000000;stroke-width:8;stroke-miterlimit:4;stroke-dasharray:none;fill:none;stroke-opacity:1"/>
      <path d="m 1075.2,721.199 -3.6,415.201 -3.6,25.2 -6,19.2 -15.6,6 -16.8,7.2 -9.6,-9.6 -6,-26.4 -2.4,-15.6 -7.2,-15.6 -13.201,-16.8 -2.398,-25.2 -3.602,-25.2 -2.398,-22.8 -7.199,-6 -6,0 -6,6 2.398,38.4 3.602,34.8 -6,34.8 6,39.6 19.199,34.8 11.999,25.2 13.2,32.4 6,28.8 3.6,25.2 0,22.8 -3.6,25.2 26.4,-6 19.2,-25.2 2.4,-20.4 0,-15.6 -2.4,-31.2 -3.6,-22.8 -13.2,-22.8 -12,-9.6 -9.6,-19.2 6,0 15.6,-2.4 16.8,-7.2 18,-21.6 7.2,-36 0,-424.8" inkscape:connector-curvature="0" id="path30" style="stroke:#000000;stroke-width:8;stroke-miterlimit:4;stroke-dasharray:none;fill:none;stroke-opacity:1"/>
      <path d="m 998.398,1196.4 -9.597,-25.2" inkscape:connector-curvature="0" id="path32" style="stroke:#000000;stroke-width:8;stroke-miterlimit:4;stroke-dasharray:none;fill:none;stroke-opacity:1"/>
    </g>
  </g>
</svg>
