<?xml version="1.0" encoding="UTF-8"?>
<!-- Created with Inkscape (http://www.inkscape.org/) -->
<svg xmlns:dc="http://purl.org/dc/elements/1.1/" xmlns:cc="http://creativecommons.org/ns#" xmlns:rdf="http://www.w3.org/1999/02/22-rdf-syntax-ns#" xmlns:svg="http://www.w3.org/2000/svg" xmlns="http://www.w3.org/2000/svg" xmlns:inkscape="http://www.inkscape.org/namespaces/inkscape" version="1.1" width="765" height="990" id="svg2" xml:space="preserve">
  <metadata id="metadata8">
    <rdf:RDF>
      <cc:Work rdf:about="">
        <dc:format>image/svg+xml</dc:format>
        <dc:type rdf:resource="http://purl.org/dc/dcmitype/StillImage"/>
      </cc:Work>
    </rdf:RDF>
  </metadata>
  <defs id="defs6"/>
  <g transform="matrix(1.25,0,0,-1.25,0,990)" id="g10">
    <g transform="scale(0.1,0.1)" id="g12">
      <path d="m 223.199,1084.8 538.801,0 0,-20.4 20.398,-3.6 33.602,-10.8 22.801,-14.4 31.199,-20.4 26.398,-28.802 24,-33.597 18,-33.602 15.602,-42 L 964.801,834 969.602,763.199 964.801,726 949.199,684 930,664.801 l -16.801,-3.602 -24,1.199 L 870,678 l -9.602,19.199 -3.597,21.602 -1.199,15.597 4.796,55.204 7.204,60 -6,62.398 -15.602,44.398 -22.801,34.801 -22.801,27.601 -26.398,10.8 -12,0 0,-20.4 -72,0 0,-37.2 -104.398,0 0,37.2 -190.801,0 0,-37.2 -100.801,0 0,37.2 -70.801,0" inkscape:connector-curvature="0" id="path14" style="stroke:#000000;stroke-width:8;stroke-miterlimit:4;stroke-dasharray:none;fill:none;stroke-opacity:1"/>
      <path d="m 255.602,1084.8 68.398,338.4 12,21.6 9.602,7.2 10.796,3.6 15.602,0 15.602,-8.4 3.597,-10.8 0,-13.2" inkscape:connector-curvature="0" id="path16" style="stroke:#000000;stroke-width:8;stroke-miterlimit:4;stroke-dasharray:none;fill:none;stroke-opacity:1"/>
      <path d="m 321.602,1084.8 72,340.8 8.398,15.6 8.398,9.6 16.801,2.4 15.602,-4.8 8.398,-7.2 6,-10.8" inkscape:connector-curvature="0" id="path18" style="stroke:#000000;stroke-width:8;stroke-miterlimit:4;stroke-dasharray:none;fill:none;stroke-opacity:1"/>
      <path d="m 385.199,1084.8 69.602,338.4 7.199,16.8 12,10.8 14.398,1.2 15.602,-1.2 13.199,-10.8 3.602,-14.4" inkscape:connector-curvature="0" id="path20" style="stroke:#000000;stroke-width:8;stroke-miterlimit:4;stroke-dasharray:none;fill:none;stroke-opacity:1"/>
      <path d="m 450,1084.8 68.398,334.8 10.801,20.4 13.199,10.8 20.403,1.2 7.199,-1.2 10.801,-7.2 4.801,-18" inkscape:connector-curvature="0" id="path22" style="stroke:#000000;stroke-width:8;stroke-miterlimit:4;stroke-dasharray:none;fill:none;stroke-opacity:1"/>
      <path d="m 517.199,1084.8 67.199,333.6 7.204,18 7.199,10.8 15.597,6 19.204,-2.4 14.398,-9.6 6,-12" inkscape:connector-curvature="0" id="path24" style="stroke:#000000;stroke-width:8;stroke-miterlimit:4;stroke-dasharray:none;fill:none;stroke-opacity:1"/>
      <path d="m 585.602,1084.8 64.796,332.4 4.801,16.8 10.801,14.4 18,3.6 2.398,1.2 16.801,-6 10.801,-10.8 0,-10.8" inkscape:connector-curvature="0" id="path26" style="stroke:#000000;stroke-width:8;stroke-miterlimit:4;stroke-dasharray:none;fill:none;stroke-opacity:1"/>
      <path d="M 645.602,1084.8 714,1428 l 6,13.2 9.602,9.6 10.796,1.2 15.602,0 14.398,-4.8 7.204,-10.8 3.597,-18 -69.597,-333.6 -488.403,0 0,-21.6 -25.199,-3.6 -33.602,-10.8 -24,-14.4 -28.796,-24 -26.4028,-27.599 -40.8008,-69.602 -12,-40.801 -13.1992,-42 -4.8008,-70.796 4.8008,-37.204 18,-40.796 19.1992,-19.204 14.4024,-3.597 25.1992,2.398 20.398,15.602 8.403,19.199 2.398,21.602 2.403,15.597 -4.801,55.199 -9.602,60 4.801,60 14.398,44.403 24,37.199 21.602,26.4 25.199,10.8 18,2.4 0,-16.8" inkscape:connector-curvature="0" id="path28" style="stroke:#000000;stroke-width:8;stroke-miterlimit:4;stroke-dasharray:none;fill:none;stroke-opacity:1"/>
      <path d="M 397.199,804 390,820.801 376.801,849.602 367.199,864 606,864 592.801,838.801 582,814.801 578.398,804" inkscape:connector-curvature="0" id="path30" style="stroke:#000000;stroke-width:8;stroke-miterlimit:4;stroke-dasharray:none;fill:none;stroke-opacity:1"/>
      <path d="m 368.398,734.398 -54,30 -12,-42 27.602,-21.597 19.199,-14.403 27.602,-28.796" inkscape:connector-curvature="0" id="path32" style="stroke:#000000;stroke-width:8;stroke-miterlimit:4;stroke-dasharray:none;fill:none;stroke-opacity:1"/>
      <path d="m 606,734.398 54,30 13.199,-44.398 -24,-13.199 -28.801,-27.602 -19.199,-21.597" inkscape:connector-curvature="0" id="path34" style="stroke:#000000;stroke-width:8;stroke-miterlimit:4;stroke-dasharray:none;fill:none;stroke-opacity:1"/>
      <path d="m 408,679.199 3.602,10.801 7.199,12 10.801,13.199 14.398,12 24,9.602 16.801,1.199 19.199,-1.199 21.602,-7.199 16.796,-10.801 9.602,-12 8.398,-10.801 7.204,-19.199 -28.801,16.801 -20.403,7.199 -18,6 L 486,708 468,704.398 451.199,700.801 429.602,690 415.199,679.199 408,676.801" inkscape:connector-curvature="0" id="path36" style="stroke:#000000;stroke-width:8;stroke-miterlimit:4;stroke-dasharray:none;fill:none;stroke-opacity:1"/>
      <path d="m 418.801,489.602 27.597,115.199 13.204,16.801 12,4.796 L 486,630 l 19.199,-3.602 14.403,-10.796 7.199,-12 30,-115.204" inkscape:connector-curvature="0" id="path38" style="stroke:#000000;stroke-width:8;stroke-miterlimit:4;stroke-dasharray:none;fill:none;stroke-opacity:1"/>
      <path d="m 489.602,465.602 -26.403,1.199 -12,3.597 -10.801,2.403 -18,8.398 -12,15.602 -10.796,16.801 -7.204,16.796 -4.796,21.602 -8.403,28.801 -10.801,148.801 2.403,26.398 3.597,12 2.403,10.801 8.398,14.398 L 396,804 l 16.801,10.801 16.801,4.801 14.398,1.199 42,3.597 49.199,-3.597 21.602,-2.403 18,-10.796 9.597,-7.204 L 594,786 603.602,757.199 604.801,734.398 595.199,604.801 592.801,570 582,530.398 574.801,513.602 564,495.602 556.801,486 546,477.602 l -12,-7.204 -15.602,-3.597 -28.796,-1.199" inkscape:connector-curvature="0" id="path40" style="stroke:#000000;stroke-width:8;stroke-miterlimit:4;stroke-dasharray:none;fill:none;stroke-opacity:1"/>
      <path d="m 97.1992,412.801 0,-396.0002 69.6018,0 0,396.0002 -69.6018,0" inkscape:connector-curvature="0" id="path42" style="stroke:#000000;stroke-width:8;stroke-miterlimit:4;stroke-dasharray:none;fill:none;stroke-opacity:1"/>
      <path d="m 448.801,412.801 0,-396.0002 72,0 0,396.0002 -72,0" inkscape:connector-curvature="0" id="path44" style="stroke:#000000;stroke-width:8;stroke-miterlimit:4;stroke-dasharray:none;fill:none;stroke-opacity:1"/>
      <path d="m 805.199,412.801 0,-396.0002 70.801,0 0,396.0002 -70.801,0" inkscape:connector-curvature="0" id="path46" style="stroke:#000000;stroke-width:8;stroke-miterlimit:4;stroke-dasharray:none;fill:none;stroke-opacity:1"/>
      <path d="m 1573.2,1016.4 0,-576.002 127.2,0 0,576.002 -127.2,0" inkscape:connector-curvature="0" id="path48" style="stroke:#000000;stroke-width:8;stroke-miterlimit:4;stroke-dasharray:none;fill:none;stroke-opacity:1"/>
      <path d="m 1488,1190.4 -298.8,0 0,-900.002 298.8,0" inkscape:connector-curvature="0" id="path50" style="stroke:#000000;stroke-width:8;stroke-miterlimit:4;stroke-dasharray:none;fill:none;stroke-opacity:1"/>
      <path d="m 1788,1190.4 300,0 0,-900.002 -300,0" inkscape:connector-curvature="0" id="path52" style="stroke:#000000;stroke-width:8;stroke-miterlimit:4;stroke-dasharray:none;fill:none;stroke-opacity:1"/>
    </g>
  </g>
</svg>
