<?xml version="1.0" encoding="UTF-8"?>
<!-- Created with Inkscape (http://www.inkscape.org/) -->
<svg xmlns:dc="http://purl.org/dc/elements/1.1/" xmlns:cc="http://creativecommons.org/ns#" xmlns:rdf="http://www.w3.org/1999/02/22-rdf-syntax-ns#" xmlns:svg="http://www.w3.org/2000/svg" xmlns="http://www.w3.org/2000/svg" xmlns:inkscape="http://www.inkscape.org/namespaces/inkscape" version="1.1" width="765" height="990" id="svg2" xml:space="preserve">
  <metadata id="metadata8">
    <rdf:RDF>
      <cc:Work rdf:about="">
        <dc:format>image/svg+xml</dc:format>
        <dc:type rdf:resource="http://purl.org/dc/dcmitype/StillImage"/>
      </cc:Work>
    </rdf:RDF>
  </metadata>
  <defs id="defs6"/>
  <g transform="matrix(1.25,0,0,-1.25,0,990)" id="g10">
    <g transform="scale(0.1,0.1)" id="g12">
      <path d="m 408,880.801 0,-864.0002 -67.199,0 0,864.0002" inkscape:connector-curvature="0" id="path14" style="stroke:#000000;stroke-width:8;stroke-miterlimit:4;stroke-dasharray:none;fill:none;stroke-opacity:1"/>
      <path d="m 733.199,880.801 -718.8006,0 0,226.799 12,25.2 13.2032,16.8 32.3984,0 19.1992,-4.8 19.1988,-12 63.602,-57.6 57.602,-51.6 45.597,-21.6 54,-13.199 44.403,-3.602 42,3.602 54,13.199 44.398,21.6 57.602,51.6 63.597,57.6 19.199,12 20.403,4.8 31.199,0 13.199,-16.8 12,-25.2 0,-226.799" inkscape:connector-curvature="0" id="path16" style="stroke:#000000;stroke-width:8;stroke-miterlimit:4;stroke-dasharray:none;fill:none;stroke-opacity:1"/>
      <path d="m 241.199,1023.6 57.602,378 26.398,31.2 18,13.2 26.403,9.6 9.597,0 25.199,-9.6 19.204,-13.2 25.199,-31.2 57.597,-378" inkscape:connector-curvature="0" id="path18" style="stroke:#000000;stroke-width:8;stroke-miterlimit:4;stroke-dasharray:none;fill:none;stroke-opacity:1"/>
      <path d="m 558,1088.4 -26.398,2.4 -15.602,13.2 -9.602,16.8 -6,15.6 2.403,28.8 13.199,19.2 15.602,8.4 26.398,7.2 25.199,-3.6 19.199,-12 13.204,-19.2 0,-42 -13.204,-15.6 -19.199,-16.8 -25.199,-2.4" inkscape:connector-curvature="0" id="path20" style="stroke:#000000;stroke-width:8;stroke-miterlimit:4;stroke-dasharray:none;fill:none;stroke-opacity:1"/>
      <path d="m 202.801,1090.8 -28.801,0 -28.801,16.8 -9.597,19.2 -3.602,15.6 7.199,28.8 21.602,21.6 13.199,7.2 22.801,0 22.801,-3.6 18,-12 10.796,-22.8 0,-19.2 -7.199,-26.4 -9.597,-15.6 -15.602,-6 -13.199,-3.6" inkscape:connector-curvature="0" id="path22" style="stroke:#000000;stroke-width:8;stroke-miterlimit:4;stroke-dasharray:none;fill:none;stroke-opacity:1"/>
      <path d="m 429.602,877.199 93.597,-282 6,-27.597 0,-39.602 L 516,499.199 496.801,481.199 477.602,468 408,458.398" inkscape:connector-curvature="0" id="path24" style="stroke:#000000;stroke-width:8;stroke-miterlimit:4;stroke-dasharray:none;fill:none;stroke-opacity:1"/>
      <path d="M 340.801,458.398 273.602,468 241.199,490.801 222,528 l 0,45.602 99.602,303.597" inkscape:connector-curvature="0" id="path26" style="stroke:#000000;stroke-width:8;stroke-miterlimit:4;stroke-dasharray:none;fill:none;stroke-opacity:1"/>
      <path d="m 1474.8,1452 -15.6,-322.8 -7.2,-274.802 -6,-210 -15.6,-151.199 -13.2,-144 6,-153.597 9.6,-48 6,-37.204 -2.4,-39.5972 -19.2,-25.1992 -28.8,-19.2032 -34.8,-6 -64.8,15.6016 -25.2,19.1992 -42,9.6016 -96,-48 L 729.602,20.3984 714,70.8008 726,97.1992 762,103.199 898.801,132 1014,189.602 l 76.8,28.796 67.2,15.602 48,42 15.6,40.801 3.6,45.597 -6,67.204 -3.6,88.796 -7.2,243.602 -2.4,242.4 -25.2,451.2 294,0" inkscape:connector-curvature="0" id="path28" style="stroke:#000000;stroke-width:8;stroke-miterlimit:4;stroke-dasharray:none;fill:none;stroke-opacity:1"/>
      <path d="m 1965.6,860.398 348,336.002" inkscape:connector-curvature="0" id="path30" style="stroke:#000000;stroke-width:8;stroke-miterlimit:4;stroke-dasharray:none;fill:none;stroke-opacity:1"/>
      <path d="M 1838.4,908.398 2268,1318.8" inkscape:connector-curvature="0" id="path32" style="stroke:#000000;stroke-width:8;stroke-miterlimit:4;stroke-dasharray:none;fill:none;stroke-opacity:1"/>
      <path d="M 1755.6,997.199 2185.2,1407.6" inkscape:connector-curvature="0" id="path34" style="stroke:#000000;stroke-width:8;stroke-miterlimit:4;stroke-dasharray:none;fill:none;stroke-opacity:1"/>
      <path d="m 1712.4,1123.2 344.4,327.6" inkscape:connector-curvature="0" id="path36" style="stroke:#000000;stroke-width:8;stroke-miterlimit:4;stroke-dasharray:none;fill:none;stroke-opacity:1"/>
      <path d="m 2139.6,1431.6 -30,8.4 -28.8,10.8 -32.4,6 -32.4,0 -34.8,-3.6 -28.8,-2.4 -32.4,-10.8 -30,-10.8 -30,-13.2 -26.4,-19.2 -21.6,-18 -21.6,-21.6 -15.6,-19.2 -16.8,-24 -18,-34.8 -8.4,-27.6 -8.4,-28.8 -4.8,-30 -6,-34.8 0,-30 6,-34.8 7.2,-28.8 8.4,-27.6 14.4,-28.8 7.2,-16.801 10.8,-13.199 27.6,-30 26.4,-26.398 24,-18 30,-16.801 32.4,-16.801 31.2,-7.199 27.6,-8.403 32.4,0 31.2,-2.398 38.4,6 26.4,4.801 32.4,13.199 32.4,16.801 21.6,10.801 24,20.398 24,21.602 24,24 19.2,30 18,27.598 14.4,26.4 7.2,31.2 2.4,30 6,36 -2.4,28.8 -3.6,34.8 -7.2,30 -10.8,26.4 -13.2,34.8 -19.2,27.6 -19.2,20.4 -21.6,27.6 -26.4,18 -26.4,19.2 -30,13.2" inkscape:connector-curvature="0" id="path38" style="stroke:#000000;stroke-width:8;stroke-miterlimit:4;stroke-dasharray:none;fill:none;stroke-opacity:1"/>
      <path d="m 3093.6,1149.6 -633.6,0 7.2,52.8 8.4,34.8 13.2,36 19.2,26.4 15.6,24 22.8,30 22.8,21.6 30,21.6 24,15.6 34.8,16.8 34.8,10.8 25.2,4.8 43.2,4.8 31.2,0 30,-4.8 32.4,-4.8 34.8,-8.4 24,-8.4 32.4,-21.6 26.4,-18 24,-19.2 21.6,-27.6 21.6,-28.8 19.2,-30 13.2,-26.4 10.8,-40.8 8.4,-28.8 2.4,-32.4" inkscape:connector-curvature="0" id="path40" style="stroke:#000000;stroke-width:8;stroke-miterlimit:4;stroke-dasharray:none;fill:none;stroke-opacity:1"/>
      <path d="M 1969.2,116.398 2006.4,22.8008 1983.6,18 l -38.4,98.398" inkscape:connector-curvature="0" id="path42" style="stroke:#000000;stroke-width:8;stroke-miterlimit:4;stroke-dasharray:none;fill:none;stroke-opacity:1"/>
      <path d="m 1875.6,320.398 -102,306 -4.8,43.204 2.4,27.597 15.6,18 27.6,16.801 39.6,10.801 32.4,-6 32.4,-21.602 24,-43.199 2.4,-45.602 -2.4,-18 -8.4,-24 -13.2,-16.796 -15.6,6 7.2,28.796 2.4,21.602 -2.4,24 -2.4,14.398 -15.6,26.403 -24,19.199 -25.2,0 -24,-6 -13.2,-15.602 -13.2,-26.398 2.4,-22.801 108,-316.801" inkscape:connector-curvature="0" id="path44" style="stroke:#000000;stroke-width:8;stroke-miterlimit:4;stroke-dasharray:none;fill:none;stroke-opacity:1"/>
      <path d="m 3116.4,144 -1010.4,0 -33.6,-2.398 -30,-8.403 -78,-16.801 -99.6,0 -27.6,13.204 -22.8,14.398 -12,10.801 -4.8,26.398 -2.4,43.199 4.8,32.403 30,21.597" inkscape:connector-curvature="0" id="path46" style="stroke:#000000;stroke-width:8;stroke-miterlimit:4;stroke-dasharray:none;fill:none;stroke-opacity:1"/>
      <path d="m 1929.6,274.801 -46.8,-2.403 -42,2.403 -45.6,13.199 -24,16.801 -14.4,15.597 -2.4,16.801 60,-16.801 150,-2.398 42,-13.199 62.4,-54 21.6,-2.403 24,4.801 49.2,10.801 126,24 120,16.801 110.4,2.398 145.2,-10.801 126,-15.597 121.2,-27.602" inkscape:connector-curvature="0" id="path48" style="stroke:#000000;stroke-width:8;stroke-miterlimit:4;stroke-dasharray:none;fill:none;stroke-opacity:1"/>
      <path d="m 3116.4,144 -21.6,510 -142.8,0 -37.2,-400.801" inkscape:connector-curvature="0" id="path50" style="stroke:#000000;stroke-width:8;stroke-miterlimit:4;stroke-dasharray:none;fill:none;stroke-opacity:1"/>
    </g>
  </g>
</svg>
