<?xml version="1.0" encoding="UTF-8"?>
<!-- Created with Inkscape (http://www.inkscape.org/) -->
<svg xmlns:dc="http://purl.org/dc/elements/1.1/" xmlns:cc="http://creativecommons.org/ns#" xmlns:rdf="http://www.w3.org/1999/02/22-rdf-syntax-ns#" xmlns:svg="http://www.w3.org/2000/svg" xmlns="http://www.w3.org/2000/svg" xmlns:inkscape="http://www.inkscape.org/namespaces/inkscape" version="1.1" width="765" height="990" id="svg2" xml:space="preserve">
  <metadata id="metadata8">
    <rdf:RDF>
      <cc:Work rdf:about="">
        <dc:format>image/svg+xml</dc:format>
        <dc:type rdf:resource="http://purl.org/dc/dcmitype/StillImage"/>
      </cc:Work>
    </rdf:RDF>
  </metadata>
  <defs id="defs6"/>
  <g transform="matrix(1.25,0,0,-1.25,0,990)" id="g10">
    <g transform="scale(0.1,0.1)" id="g12">
      <path d="m 708,1311.6 -13.199,19.2 -9.602,21.6 -15.597,19.2 -21.602,22.8 -20.398,15.6 -19.204,13.2 -21.597,12 -19.199,10.8 -25.204,2.4 -22.796,3.6 -25.204,3.6 -22.796,0 -19.204,-3.6 -22.796,-6 -25.204,-6 -22.796,-10.8 -21.602,-12 -19.199,-13.2 -20.403,-19.2 -15.597,-15.6 -13.199,-22.8 -12,-19.2 -9.602,-22.8 -9.602,-21.6 -3.597,-25.2 -2.403,-28.8 0,-32.4 6,-22.8 6,-28.8 9.602,-21.6 13.199,-22.8 13.199,-16.8 15.602,-25.2 15.602,-12 22.796,-16.8 19.204,-12 25.199,-10.8 22.801,-6 21.597,-5.999 26.403,-3.602 25.199,0 25.199,3.602 26.398,3.597 25.204,6.002 19.199,6 21.597,15.6 20.403,16.8 15.597,9.6 19.204,22.8 13.199,21.6 12,19.2 9.597,22.8 9.602,25.2 6,22.8 0,25.2 4.801,25.2 -7.199,26.4 -3.602,22.8 -6,25.2" inkscape:connector-curvature="0" id="path14" style="stroke:#000000;stroke-width:8;stroke-miterlimit:4;stroke-dasharray:none;fill:none;stroke-opacity:1"/>
      <path d="M 596.398,1010.4 675.602,918" inkscape:connector-curvature="0" id="path16" style="stroke:#000000;stroke-width:8;stroke-miterlimit:4;stroke-dasharray:none;fill:none;stroke-opacity:1"/>
      <path d="m 592.801,889.199 3.597,121.201" inkscape:connector-curvature="0" id="path18" style="stroke:#000000;stroke-width:8;stroke-miterlimit:4;stroke-dasharray:none;fill:none;stroke-opacity:1"/>
      <path d="m 634.801,904.801 79.199,-96" inkscape:connector-curvature="0" id="path20" style="stroke:#000000;stroke-width:8;stroke-miterlimit:4;stroke-dasharray:none;fill:none;stroke-opacity:1"/>
      <path d="m 627.602,780 7.199,124.801" inkscape:connector-curvature="0" id="path22" style="stroke:#000000;stroke-width:8;stroke-miterlimit:4;stroke-dasharray:none;fill:none;stroke-opacity:1"/>
      <path d="m 673.199,795.602 79.199,-92.403" inkscape:connector-curvature="0" id="path24" style="stroke:#000000;stroke-width:8;stroke-miterlimit:4;stroke-dasharray:none;fill:none;stroke-opacity:1"/>
      <path d="m 666,672 7.199,123.602" inkscape:connector-curvature="0" id="path26" style="stroke:#000000;stroke-width:8;stroke-miterlimit:4;stroke-dasharray:none;fill:none;stroke-opacity:1"/>
      <path d="m 711.602,687.602 79.199,-92.403" inkscape:connector-curvature="0" id="path28" style="stroke:#000000;stroke-width:8;stroke-miterlimit:4;stroke-dasharray:none;fill:none;stroke-opacity:1"/>
      <path d="m 704.398,566.398 7.204,121.204" inkscape:connector-curvature="0" id="path30" style="stroke:#000000;stroke-width:8;stroke-miterlimit:4;stroke-dasharray:none;fill:none;stroke-opacity:1"/>
      <path d="M 746.398,578.398 825.602,486" inkscape:connector-curvature="0" id="path32" style="stroke:#000000;stroke-width:8;stroke-miterlimit:4;stroke-dasharray:none;fill:none;stroke-opacity:1"/>
      <path d="m 742.801,457.199 3.597,121.199" inkscape:connector-curvature="0" id="path34" style="stroke:#000000;stroke-width:8;stroke-miterlimit:4;stroke-dasharray:none;fill:none;stroke-opacity:1"/>
      <path d="m 784.801,472.801 80.398,-92.403" inkscape:connector-curvature="0" id="path36" style="stroke:#000000;stroke-width:8;stroke-miterlimit:4;stroke-dasharray:none;fill:none;stroke-opacity:1"/>
      <path d="m 781.199,349.199 3.602,123.602" inkscape:connector-curvature="0" id="path38" style="stroke:#000000;stroke-width:8;stroke-miterlimit:4;stroke-dasharray:none;fill:none;stroke-opacity:1"/>
      <path d="m 823.199,364.801 79.199,-92.403" inkscape:connector-curvature="0" id="path40" style="stroke:#000000;stroke-width:8;stroke-miterlimit:4;stroke-dasharray:none;fill:none;stroke-opacity:1"/>
      <path d="m 817.199,240 6,124.801" inkscape:connector-curvature="0" id="path42" style="stroke:#000000;stroke-width:8;stroke-miterlimit:4;stroke-dasharray:none;fill:none;stroke-opacity:1"/>
      <path d="M 861.602,255.602 942,163.199" inkscape:connector-curvature="0" id="path44" style="stroke:#000000;stroke-width:8;stroke-miterlimit:4;stroke-dasharray:none;fill:none;stroke-opacity:1"/>
      <path d="m 854.398,134.398 7.204,121.204" inkscape:connector-curvature="0" id="path46" style="stroke:#000000;stroke-width:8;stroke-miterlimit:4;stroke-dasharray:none;fill:none;stroke-opacity:1"/>
      <path d="M 900,146.398 979.199,54" inkscape:connector-curvature="0" id="path48" style="stroke:#000000;stroke-width:8;stroke-miterlimit:4;stroke-dasharray:none;fill:none;stroke-opacity:1"/>
      <path d="m 894,25.1992 6,121.1988" inkscape:connector-curvature="0" id="path50" style="stroke:#000000;stroke-width:8;stroke-miterlimit:4;stroke-dasharray:none;fill:none;stroke-opacity:1"/>
      <path d="m 494.398,991.199 44.403,-108" inkscape:connector-curvature="0" id="path52" style="stroke:#000000;stroke-width:8;stroke-miterlimit:4;stroke-dasharray:none;fill:none;stroke-opacity:1"/>
      <path d="m 452.398,883.199 42,108" inkscape:connector-curvature="0" id="path54" style="stroke:#000000;stroke-width:8;stroke-miterlimit:4;stroke-dasharray:none;fill:none;stroke-opacity:1"/>
      <path d="M 494.398,883.199 538.801,774" inkscape:connector-curvature="0" id="path56" style="stroke:#000000;stroke-width:8;stroke-miterlimit:4;stroke-dasharray:none;fill:none;stroke-opacity:1"/>
      <path d="m 452.398,774 42,109.199" inkscape:connector-curvature="0" id="path58" style="stroke:#000000;stroke-width:8;stroke-miterlimit:4;stroke-dasharray:none;fill:none;stroke-opacity:1"/>
      <path d="M 494.398,774 538.801,668.398" inkscape:connector-curvature="0" id="path60" style="stroke:#000000;stroke-width:8;stroke-miterlimit:4;stroke-dasharray:none;fill:none;stroke-opacity:1"/>
      <path d="m 452.398,668.398 42,105.602" inkscape:connector-curvature="0" id="path62" style="stroke:#000000;stroke-width:8;stroke-miterlimit:4;stroke-dasharray:none;fill:none;stroke-opacity:1"/>
      <path d="m 494.398,668.398 44.403,-108" inkscape:connector-curvature="0" id="path64" style="stroke:#000000;stroke-width:8;stroke-miterlimit:4;stroke-dasharray:none;fill:none;stroke-opacity:1"/>
      <path d="m 452.398,560.398 42,108" inkscape:connector-curvature="0" id="path66" style="stroke:#000000;stroke-width:8;stroke-miterlimit:4;stroke-dasharray:none;fill:none;stroke-opacity:1"/>
      <path d="M 494.398,560.398 538.801,450" inkscape:connector-curvature="0" id="path68" style="stroke:#000000;stroke-width:8;stroke-miterlimit:4;stroke-dasharray:none;fill:none;stroke-opacity:1"/>
      <path d="m 452.398,450 42,110.398" inkscape:connector-curvature="0" id="path70" style="stroke:#000000;stroke-width:8;stroke-miterlimit:4;stroke-dasharray:none;fill:none;stroke-opacity:1"/>
      <path d="M 494.398,450 538.801,342" inkscape:connector-curvature="0" id="path72" style="stroke:#000000;stroke-width:8;stroke-miterlimit:4;stroke-dasharray:none;fill:none;stroke-opacity:1"/>
      <path d="m 452.398,342 42,108" inkscape:connector-curvature="0" id="path74" style="stroke:#000000;stroke-width:8;stroke-miterlimit:4;stroke-dasharray:none;fill:none;stroke-opacity:1"/>
      <path d="M 494.398,342 538.801,232.801" inkscape:connector-curvature="0" id="path76" style="stroke:#000000;stroke-width:8;stroke-miterlimit:4;stroke-dasharray:none;fill:none;stroke-opacity:1"/>
      <path d="m 452.398,232.801 42,109.199" inkscape:connector-curvature="0" id="path78" style="stroke:#000000;stroke-width:8;stroke-miterlimit:4;stroke-dasharray:none;fill:none;stroke-opacity:1"/>
      <path d="m 494.398,232.801 44.403,-108" inkscape:connector-curvature="0" id="path80" style="stroke:#000000;stroke-width:8;stroke-miterlimit:4;stroke-dasharray:none;fill:none;stroke-opacity:1"/>
      <path d="m 452.398,124.801 42,108" inkscape:connector-curvature="0" id="path82" style="stroke:#000000;stroke-width:8;stroke-miterlimit:4;stroke-dasharray:none;fill:none;stroke-opacity:1"/>
      <path d="M 494.398,124.801 538.801,15.6016" inkscape:connector-curvature="0" id="path84" style="stroke:#000000;stroke-width:8;stroke-miterlimit:4;stroke-dasharray:none;fill:none;stroke-opacity:1"/>
      <path d="m 452.398,15.6016 42,109.1994" inkscape:connector-curvature="0" id="path86" style="stroke:#000000;stroke-width:8;stroke-miterlimit:4;stroke-dasharray:none;fill:none;stroke-opacity:1"/>
      <path d="M 397.199,1010.4 318,918" inkscape:connector-curvature="0" id="path88" style="stroke:#000000;stroke-width:8;stroke-miterlimit:4;stroke-dasharray:none;fill:none;stroke-opacity:1"/>
      <path d="M 404.398,889.199 397.199,1010.4" inkscape:connector-curvature="0" id="path90" style="stroke:#000000;stroke-width:8;stroke-miterlimit:4;stroke-dasharray:none;fill:none;stroke-opacity:1"/>
      <path d="M 360,901.199 279.602,808.801" inkscape:connector-curvature="0" id="path92" style="stroke:#000000;stroke-width:8;stroke-miterlimit:4;stroke-dasharray:none;fill:none;stroke-opacity:1"/>
      <path d="m 366,780 -6,121.199" inkscape:connector-curvature="0" id="path94" style="stroke:#000000;stroke-width:8;stroke-miterlimit:4;stroke-dasharray:none;fill:none;stroke-opacity:1"/>
      <path d="M 320.398,795.602 241.199,703.199" inkscape:connector-curvature="0" id="path96" style="stroke:#000000;stroke-width:8;stroke-miterlimit:4;stroke-dasharray:none;fill:none;stroke-opacity:1"/>
      <path d="m 327.602,672 -7.204,123.602" inkscape:connector-curvature="0" id="path98" style="stroke:#000000;stroke-width:8;stroke-miterlimit:4;stroke-dasharray:none;fill:none;stroke-opacity:1"/>
      <path d="M 285.602,687.602 202.801,595.199" inkscape:connector-curvature="0" id="path100" style="stroke:#000000;stroke-width:8;stroke-miterlimit:4;stroke-dasharray:none;fill:none;stroke-opacity:1"/>
      <path d="m 289.199,566.398 -3.597,121.204" inkscape:connector-curvature="0" id="path102" style="stroke:#000000;stroke-width:8;stroke-miterlimit:4;stroke-dasharray:none;fill:none;stroke-opacity:1"/>
      <path d="M 247.199,578.398 168,486" inkscape:connector-curvature="0" id="path104" style="stroke:#000000;stroke-width:8;stroke-miterlimit:4;stroke-dasharray:none;fill:none;stroke-opacity:1"/>
      <path d="m 250.801,457.199 -3.602,121.199" inkscape:connector-curvature="0" id="path106" style="stroke:#000000;stroke-width:8;stroke-miterlimit:4;stroke-dasharray:none;fill:none;stroke-opacity:1"/>
      <path d="M 208.801,472.801 129.602,380.398" inkscape:connector-curvature="0" id="path108" style="stroke:#000000;stroke-width:8;stroke-miterlimit:4;stroke-dasharray:none;fill:none;stroke-opacity:1"/>
      <path d="m 214.801,349.199 -6,123.602" inkscape:connector-curvature="0" id="path110" style="stroke:#000000;stroke-width:8;stroke-miterlimit:4;stroke-dasharray:none;fill:none;stroke-opacity:1"/>
      <path d="M 170.398,364.801 91.1992,272.398" inkscape:connector-curvature="0" id="path112" style="stroke:#000000;stroke-width:8;stroke-miterlimit:4;stroke-dasharray:none;fill:none;stroke-opacity:1"/>
      <path d="m 177.602,240 -7.204,124.801" inkscape:connector-curvature="0" id="path114" style="stroke:#000000;stroke-width:8;stroke-miterlimit:4;stroke-dasharray:none;fill:none;stroke-opacity:1"/>
      <path d="M 132,255.602 52.8008,163.199" inkscape:connector-curvature="0" id="path116" style="stroke:#000000;stroke-width:8;stroke-miterlimit:4;stroke-dasharray:none;fill:none;stroke-opacity:1"/>
      <path d="M 139.199,134.398 132,255.602" inkscape:connector-curvature="0" id="path118" style="stroke:#000000;stroke-width:8;stroke-miterlimit:4;stroke-dasharray:none;fill:none;stroke-opacity:1"/>
      <path d="M 93.6016,146.398 14.3984,54" inkscape:connector-curvature="0" id="path120" style="stroke:#000000;stroke-width:8;stroke-miterlimit:4;stroke-dasharray:none;fill:none;stroke-opacity:1"/>
      <path d="M 100.801,25.1992 93.6016,146.398" inkscape:connector-curvature="0" id="path122" style="stroke:#000000;stroke-width:8;stroke-miterlimit:4;stroke-dasharray:none;fill:none;stroke-opacity:1"/>
      <path d="m 1419.6,858 355.2,342" inkscape:connector-curvature="0" id="path124" style="stroke:#000000;stroke-width:8;stroke-miterlimit:4;stroke-dasharray:none;fill:none;stroke-opacity:1"/>
      <path d="M 1292.4,908.398 1729.2,1326" inkscape:connector-curvature="0" id="path126" style="stroke:#000000;stroke-width:8;stroke-miterlimit:4;stroke-dasharray:none;fill:none;stroke-opacity:1"/>
      <path d="M 1207.2,998.398 1644,1416" inkscape:connector-curvature="0" id="path128" style="stroke:#000000;stroke-width:8;stroke-miterlimit:4;stroke-dasharray:none;fill:none;stroke-opacity:1"/>
      <path d="m 1162.8,1126.8 350.4,333.6" inkscape:connector-curvature="0" id="path130" style="stroke:#000000;stroke-width:8;stroke-miterlimit:4;stroke-dasharray:none;fill:none;stroke-opacity:1"/>
      <path d="m 1598.4,1441.2 -30,8.4 -30,10.8 -33.6,4.8 -33.6,0 -34.8,-2.4 -30,-2.4 -32.4,-10.8 -30,-10.8 -30,-14.4 -27.6,-19.2 -21.6,-19.2 -22.8,-21.6 -15.6,-19.2 -16.8,-24 -19.2,-36 -7.2,-27.6 -9.6,-30 -4.8,-30 -6,-36 0,-30 6,-34.8 8.4,-30 8.4,-27.6 13.2,-30 8.4,-16.802 10.8,-13.199 27.6,-31.199 26.4,-26.398 25.2,-19.204 30,-16.796 32.4,-15.602 33.6,-8.398 26.4,-8.403 33.6,0 32.4,-2.398 38.4,4.801 27.6,6 32.4,13.199 32.4,16.801 21.6,10.796 25.2,21.602 24,21.602 25.2,25.199 19.2,29.999 19.2,27.6 13.2,26.4 8.4,33.6 2.4,30 6,36 -2.4,30 -3.6,34.8 -7.2,30 -10.8,27.6 -14.4,36 -19.2,26.4 -18,22.8 -22.8,26.4 -27.6,20.4 -26.4,18 -30,14.4" inkscape:connector-curvature="0" id="path132" style="stroke:#000000;stroke-width:8;stroke-miterlimit:4;stroke-dasharray:none;fill:none;stroke-opacity:1"/>
      <path d="m 1456.8,650.398 -33.6,-18 -24,-30 -8.4,-24 -4.8,-24 7.2,-38.398 20.4,-25.199 18,-15.602 33.6,-12 24,-7.199 31.2,0 32.4,13.199 26.4,14.403 16.8,18 19.2,27.597 14.4,33.602 7.2,26.398 2.4,27.602 -2.4,19.199 -4.8,32.398 -14.4,27.602 -21.6,27.602 -21.6,19.199 -19.2,8.398 -19.2,8.403 -27.6,2.398 -21.6,2.398 -27.6,0 -32.4,-2.398 -36,-10.801 -30,-16.801 -19.2,-16.796 -21.6,-18 -16.8,-19.204 -16.8,-30 -15.6,-30 -6,-27.597 -4.8,-38.403 -3.6,-38.398 3.6,-30 2.4,-44.398 16.8,-43.204 24,-49.199 44.4,-57.597 68.4,-66 98.4,-79.204 212.4,-119.9996" inkscape:connector-curvature="0" id="path134" style="stroke:#000000;stroke-width:8;stroke-miterlimit:4;stroke-dasharray:none;fill:none;stroke-opacity:1"/>
      <path d="m 2102.4,1087.2 0,211.2 1432.8,0 0,-211.2 -1432.8,0" inkscape:connector-curvature="0" id="path136" style="stroke:#000000;stroke-width:8;stroke-miterlimit:4;stroke-dasharray:none;fill:none;stroke-opacity:1"/>
      <path d="m 2530.8,1459.2 165.6,-160.8" inkscape:connector-curvature="0" id="path138" style="stroke:#000000;stroke-width:8;stroke-miterlimit:4;stroke-dasharray:none;fill:none;stroke-opacity:1"/>
      <path d="M 3106.8,1459.2 2940,1298.4" inkscape:connector-curvature="0" id="path140" style="stroke:#000000;stroke-width:8;stroke-miterlimit:4;stroke-dasharray:none;fill:none;stroke-opacity:1"/>
      <path d="m 2690.4,1298.4 6,36 13.2,28.8 22.8,28.8 15.6,12 25.2,15.6 36,4.8 25.2,0 25.2,-4.8 22.8,-12 22.8,-19.2 15.6,-22.8 9.6,-21.6 6,-45.6" inkscape:connector-curvature="0" id="path142" style="stroke:#000000;stroke-width:8;stroke-miterlimit:4;stroke-dasharray:none;fill:none;stroke-opacity:1"/>
      <path d="m 2102.4,759.602 0,-732.0004 129.6,0 0,732.0004 -129.6,0" inkscape:connector-curvature="0" id="path144" style="stroke:#000000;stroke-width:8;stroke-miterlimit:4;stroke-dasharray:none;fill:none;stroke-opacity:1"/>
      <path d="m 2752.8,759.602 0,-732.0004 134.4,0 0,732.0004 -134.4,0" inkscape:connector-curvature="0" id="path146" style="stroke:#000000;stroke-width:8;stroke-miterlimit:4;stroke-dasharray:none;fill:none;stroke-opacity:1"/>
      <path d="m 3411.6,759.602 0,-732.0004 129.6,0 0,732.0004 -129.6,0" inkscape:connector-curvature="0" id="path148" style="stroke:#000000;stroke-width:8;stroke-miterlimit:4;stroke-dasharray:none;fill:none;stroke-opacity:1"/>
    </g>
  </g>
</svg>
