<?xml version="1.0" encoding="UTF-8"?>
<!-- Created with Inkscape (http://www.inkscape.org/) -->
<svg xmlns:dc="http://purl.org/dc/elements/1.1/" xmlns:cc="http://creativecommons.org/ns#" xmlns:rdf="http://www.w3.org/1999/02/22-rdf-syntax-ns#" xmlns:svg="http://www.w3.org/2000/svg" xmlns="http://www.w3.org/2000/svg" xmlns:inkscape="http://www.inkscape.org/namespaces/inkscape" version="1.1" width="765" height="990" id="svg2" xml:space="preserve">
  <metadata id="metadata8">
    <rdf:RDF>
      <cc:Work rdf:about="">
        <dc:format>image/svg+xml</dc:format>
        <dc:type rdf:resource="http://purl.org/dc/dcmitype/StillImage"/>
      </cc:Work>
    </rdf:RDF>
  </metadata>
  <defs id="defs6"/>
  <g transform="matrix(1.25,0,0,-1.25,0,990)" id="g10">
    <g transform="scale(0.1,0.1)" id="g12">
      <path d="M 298.801,448.801 270,451.199 224.398,448.801 190.801,452.398 180,448.801 171.602,438 l 3.597,-18 12,-42 25.199,-40.801 L 294,240 336,200.398 396,145.199 524.398,18 l 13.204,0 3.597,7.1992 -4.801,12 L 481.199,163.199 474,186 l -42,102 -38.398,64.801 -30,42 -22.801,30 -18,28.801 -19.199,26.398 -24,27.602 -24,15.597 -6,27.602 -6,30 -7.204,20.398 -22.796,4.801 -36,0 -40.801,-1.199 L 116.398,600 108,596.398 40.8008,588 l -19.1992,-9.602 -7.2032,-9.597 -1.1992,-18 8.4024,13.199 13.1992,6 38.3984,0 L 114,568.801 135.602,564 l -18,20.398 L 114,600" inkscape:connector-curvature="0" id="path14" style="stroke:#000000;stroke-width:8;stroke-miterlimit:4;stroke-dasharray:none;fill:none;stroke-opacity:1"/>
      <path d="m 157.199,571.199 4.801,2.403 2.398,6 -2.398,7.199 -6,3.597 -4.801,-3.597 -1.199,-8.403 2.398,-3.597 3.602,-3.602" inkscape:connector-curvature="0" id="path16" style="stroke:#000000;stroke-width:8;stroke-miterlimit:4;stroke-dasharray:none;fill:none;stroke-opacity:1"/>
      <path d="M 20.3984,559.199 72,560.398 l 40.801,-6 12,-6 3.597,-13.199 1.204,-14.398 -12,-28.801 -4.801,-34.801 L 120,412.801 124.801,393.602 139.199,354 156,322.801 l 40.801,-69.602 54,-102 4.801,-39.597 -6,-67.2036 -7.204,-6 L 205.199,33.6016 160.801,36 157.199,28.8008 138,26.3984 l -2.398,-3.5976 3.597,-6 112.801,4.8008 116.398,-6 4.801,6 -2.398,6 -18,0 L 342,37.1992 276,38.3984 267.602,43.1992 276,126 l 48,-25.199 27.602,81.597 51.597,-130.7964 19.199,-24 18,-10.8008 27.602,0 16.801,6 3.597,7.1992 -13.199,34.8008" inkscape:connector-curvature="0" id="path18" style="stroke:#000000;stroke-width:8;stroke-miterlimit:4;stroke-dasharray:none;fill:none;stroke-opacity:1"/>
      <path d="m 150,332.398 16.801,-96 -1.199,-73.199 -13.204,-75.5974 -12,-38.4024 -7.199,-8.3984 -63.5974,-3.6016 -7.2032,-9.5976 -13.1992,-1.2032 -6,-3.5976 6,-6 48,4.8008 14.4028,-2.4024" inkscape:connector-curvature="0" id="path20" style="stroke:#000000;stroke-width:8;stroke-miterlimit:4;stroke-dasharray:none;fill:none;stroke-opacity:1"/>
      <path d="m 159.602,36 -22.801,-3.6016 0,0 L 123.602,30 l -8.403,-10.8008 6,-2.3984 7.199,8.3984 8.403,1.1992" inkscape:connector-curvature="0" id="path22" style="stroke:#000000;stroke-width:8;stroke-miterlimit:4;stroke-dasharray:none;fill:none;stroke-opacity:1"/>
      <path d="M 157.199,37.1992 186,145.199 230.398,117.602 240,166.801" inkscape:connector-curvature="0" id="path24" style="stroke:#000000;stroke-width:8;stroke-miterlimit:4;stroke-dasharray:none;fill:none;stroke-opacity:1"/>
      <path d="m 66,36 -21.6016,-3.6016 0,0 L 31.1992,30 24,19.1992 l 3.6016,-2.3984 9.5976,8.3984 9.6016,1.1992" inkscape:connector-curvature="0" id="path26" style="stroke:#000000;stroke-width:8;stroke-miterlimit:4;stroke-dasharray:none;fill:none;stroke-opacity:1"/>
      <path d="m 345.602,37.1992 24,-3.5976 12,-3.6016 7.199,-10.8008 -3.602,-2.3984 -8.398,8.3984 -7.199,1.1992" inkscape:connector-curvature="0" id="path28" style="stroke:#000000;stroke-width:8;stroke-miterlimit:4;stroke-dasharray:none;fill:none;stroke-opacity:1"/>
      <path d="m 1203.6,418.801 -50.4,8.398 -26.4,4.801 -22.8,0 -19.2,-13.199 L 1056,402 l -52.8,-9.602 -36.001,-6 -343.199,0 -19.199,6 L 591.602,402 582,415.199 573.602,432 l -8.403,19.199 0,30 L 576,510 l 12,13.199 14.398,9.602 24,3.597 301.204,0" inkscape:connector-curvature="0" id="path30" style="stroke:#000000;stroke-width:8;stroke-miterlimit:4;stroke-dasharray:none;fill:none;stroke-opacity:1"/>
      <path d="m 898.801,538.801 -79.199,10.801 -78,-4.801 -24,4.801 -13.204,13.199 -8.398,24 -2.398,15.597 34.796,-15.597 L 762,582 l 136.801,12 40.801,-2.398 43.199,-4.801 29.999,-10.801 34.8,-15.602 21.6,-15.597 18,-10.801 31.2,0 32.4,4.801 51.6,12 0,-129.602" inkscape:connector-curvature="0" id="path32" style="stroke:#000000;stroke-width:8;stroke-miterlimit:4;stroke-dasharray:none;fill:none;stroke-opacity:1"/>
      <path d="M 740.398,248.398 846,12 897.602,12 792,248.398 l -51.602,0" inkscape:connector-curvature="0" id="path34" style="stroke:#000000;stroke-width:8;stroke-miterlimit:4;stroke-dasharray:none;fill:none;stroke-opacity:1"/>
      <path d="M 898.801,248.398 1004.4,12 l 51.6,0 -104.398,236.398 -52.801,0" inkscape:connector-curvature="0" id="path36" style="stroke:#000000;stroke-width:8;stroke-miterlimit:4;stroke-dasharray:none;fill:none;stroke-opacity:1"/>
      <path d="m 1396.8,324 27.6,-34.801 21.6,-20.398 37.2,-20.403 36,-12 38.4,-7.199 85.2,-2.398 31.2,2.398 26.4,6 12,6 0,4.801 -4.8,6 -20.4,6 -27.6,14.398 -20.4,13.204 -52.8,44.398 -38.4,39.602 -26.4,25.199 -26.4,19.199 -26.4,8.398 -6,10.801 -19.2,25.199 -20.4,20.403 -16.8,10.801 -18,7.199 -25.2,1.199 -18,-6 -18,-10.801 -8.4,-12 -13.2,-2.398 -14.4,-6 -10.8,-6 -7.2,-7.199 7.2,-3.602 38.4,-7.199 1.2,4.801 2.4,8.398 -2.4,8.398 -1.2,9.602" inkscape:connector-curvature="0" id="path38" style="stroke:#000000;stroke-width:8;stroke-miterlimit:4;stroke-dasharray:none;fill:none;stroke-opacity:1"/>
      <path d="m 1321.2,453.602 -30,-3.602 -15.6,-3.602" inkscape:connector-curvature="0" id="path40" style="stroke:#000000;stroke-width:8;stroke-miterlimit:4;stroke-dasharray:none;fill:none;stroke-opacity:1"/>
      <path d="m 1320,434.398 6,-4.796 9.6,-25.204 15.6,-63.597 8.4,-25.199 13.2,-24 30,-39.602 15.6,-16.801 18,-19.199 38.4,-24 20.4,-8.398 24,-12 3.6,-2.403 0,-6 -26.4,-57.597 -6,-3.602 -4.8,0 -36,-3.6016 -6,-3.5976 -3.6,-2.4024 -1.2,-6 25.2,-1.1992 34.8,2.4024 39.6,-3.6016 10.8,1.1992 0,9.6016 -10.8,2.3984 -21.6,2.4024 -3.6,3.5974 1.2,3.602 26.4,58.801 2.4,9.597 0,2.403 -10.8,13.199" inkscape:connector-curvature="0" id="path42" style="stroke:#000000;stroke-width:8;stroke-miterlimit:4;stroke-dasharray:none;fill:none;stroke-opacity:1"/>
      <path d="m 1543.2,175.199 33.6,2.403 57.6,18 19.2,4.796 6,1.204 76.8,-21.602 51.6,-6 18,1.199 12,2.403 6,4.796 -3.6,1.204 -63.6,21.597 -37.2,12 L 1692,234" inkscape:connector-curvature="0" id="path44" style="stroke:#000000;stroke-width:8;stroke-miterlimit:4;stroke-dasharray:none;fill:none;stroke-opacity:1"/>
      <path d="m 1462.8,199.199 4.8,-15.597 0,-4.801 -46.8,-72 -3.6,-4.801 -8.4,-3.6016 -37.2,-2.3984 -6,-3.6016 0,-7.1992 7.2,0 40.8,2.4024 13.2,-2.4024" inkscape:connector-curvature="0" id="path46" style="stroke:#000000;stroke-width:8;stroke-miterlimit:4;stroke-dasharray:none;fill:none;stroke-opacity:1"/>
      <path d="m 1437.6,94.8008 -2.4,8.3982 45.6,63.602 3.6,8.398 0,10.801" inkscape:connector-curvature="0" id="path48" style="stroke:#000000;stroke-width:8;stroke-miterlimit:4;stroke-dasharray:none;fill:none;stroke-opacity:1"/>
      <path d="m 1365.6,94.8008 -4.8,-1.1992 -4.8,-2.4024 -1.2,-6 9.6,0" inkscape:connector-curvature="0" id="path50" style="stroke:#000000;stroke-width:8;stroke-miterlimit:4;stroke-dasharray:none;fill:none;stroke-opacity:1"/>
      <path d="M 1442.4,94.8008 1434,93.6016 1429.2,90 l -2.4,-4.8008 12,1.1992" inkscape:connector-curvature="0" id="path52" style="stroke:#000000;stroke-width:8;stroke-miterlimit:4;stroke-dasharray:none;fill:none;stroke-opacity:1"/>
      <path d="m 1549.2,94.8008 7.2,-2.4024 2.4,-2.3984 2.4,-4.8008 -12,2.4024" inkscape:connector-curvature="0" id="path54" style="stroke:#000000;stroke-width:8;stroke-miterlimit:4;stroke-dasharray:none;fill:none;stroke-opacity:1"/>
      <path d="m 1359.6,462 -4.8,-6 3.6,-2.398 6,3.597 -4.8,4.801" inkscape:connector-curvature="0" id="path56" style="stroke:#000000;stroke-width:8;stroke-miterlimit:4;stroke-dasharray:none;fill:none;stroke-opacity:1"/>
      <path d="m 1837.2,356.398 6,-8.398 2.4,-10.801 0,-7.199 -1.2,-7.199 -6,-8.403 -8.4,-4.796 -7.2,-1.204 -9.6,0 -7.2,1.204 -7.2,3.597 -7.2,7.199 -6,7.204 -1.2,6 -2.4,9.597 0,9.602 1.2,8.398 2.4,7.199 3.6,4.801 4.8,8.403 6,4.796 9.6,4.801 7.2,2.403 12,0 7.2,-2.403 6,-2.398 7.2,-3.602 8.4,-3.597 7.2,-7.204 6,-7.199 3.6,-6 3.6,-8.398 1.2,-6 1.2,-10.801 0,-8.398 -1.2,-8.403 -2.4,-10.801 -3.6,-9.597 -4.8,-7.199 -6,-12 -8.4,-8.403 -12,-9.597 -18,-9.602 -25.2,-9.602 -34.8,-9.597 -68.4,-6" inkscape:connector-curvature="0" id="path58" style="stroke:#000000;stroke-width:8;stroke-miterlimit:4;stroke-dasharray:none;fill:none;stroke-opacity:1"/>
    </g>
  </g>
</svg>
