<?xml version="1.0" encoding="UTF-8"?>
<!-- Created with Inkscape (http://www.inkscape.org/) -->
<svg xmlns:dc="http://purl.org/dc/elements/1.1/" xmlns:cc="http://creativecommons.org/ns#" xmlns:rdf="http://www.w3.org/1999/02/22-rdf-syntax-ns#" xmlns:svg="http://www.w3.org/2000/svg" xmlns="http://www.w3.org/2000/svg" xmlns:inkscape="http://www.inkscape.org/namespaces/inkscape" version="1.1" width="765" height="990" id="svg2" xml:space="preserve">
  <metadata id="metadata8">
    <rdf:RDF>
      <cc:Work rdf:about="">
        <dc:format>image/svg+xml</dc:format>
        <dc:type rdf:resource="http://purl.org/dc/dcmitype/StillImage"/>
      </cc:Work>
    </rdf:RDF>
  </metadata>
  <defs id="defs6"/>
  <g transform="matrix(1.25,0,0,-1.25,0,990)" id="g10">
    <g transform="scale(0.1,0.1)" id="g12">
      <path d="m 1111.2,1072.8 -70.8,6 -111.599,-6 -84,8.4 -25.199,-8.4 -19.204,-26.4 7.204,-44.4 L 838.801,898.801 900,800.398 1098,564 l 102,-96 147.6,-138 313.2,-307.1992 31.2,0 9.6,16.8008 -12,28.7968 -134.4,307.2036 -19.2,57.597 -102,246 -92.4,159.602 -74.4,102 -54,74.399 -45.6,69.6 -48,64.8 -57.6,66 -56.4,39.6 -16.799,66 -12,74.4 -19.199,48 -55.204,12 -88.796,0 -99.602,-3.6 -48,-12 -21.602,-7.2 -163.199,-21.6 -48,-22.8 -15.597,-21.6 -3.602,-45.6 19.199,32.4 32.403,15.6 94.796,0 99.602,-2.4 51.602,-13.2 -42,50.4 -9.602,36" inkscape:connector-curvature="0" id="path14" style="stroke:#000000;stroke-width:8;stroke-miterlimit:4;stroke-dasharray:none;fill:none;stroke-opacity:1"/>
      <path d="m 765.602,1372.8 9.597,2.4 6,16.8 -6,15.6 -13.199,9.6 -13.199,-9.6 -2.403,-19.2 6,-9.6 9.602,-6" inkscape:connector-curvature="0" id="path16" style="stroke:#000000;stroke-width:8;stroke-miterlimit:4;stroke-dasharray:none;fill:none;stroke-opacity:1"/>
      <path d="M 429.602,1340.4 558,1344 l 98.398,-13.2 28.801,-15.6 9.602,-32.4 3.597,-34.8 -28.796,-69.6 -13.204,-87.6 16.801,-105.601 12,-46.801 34.801,-96 42,-76.796 99.602,-170.403 130.796,-249.597 13.202,-94.801 -16.799,-163.1994 -15.602,-16.8008 -92.398,-8.4024 -109.199,2.4024 -6,-15.6016 -48,-7.1992 -6,-8.3984 L 720,20.3984 996,30 1280.4,16.8008 1292.4,30 l -6,15.6016 -44.4,0 -26.4,22.7968 -162,2.4024 -19.2,13.1992 19.2,201.602 117.6,-61.204 67.2,198 128.4,-319.199 44.4,-57.5974 44.4,-25.2032 67.2,0 38.4,13.2032 9.6,18 -32.4,87.5974" inkscape:connector-curvature="0" id="path18" style="stroke:#000000;stroke-width:8;stroke-miterlimit:4;stroke-dasharray:none;fill:none;stroke-opacity:1"/>
      <path d="m 746.398,787.199 42,-232.801 L 784.801,375.602 752.398,193.199 724.801,99.6016 704.398,78 550.801,68.3984 535.199,45.6016 500.398,42 487.199,33.6016 500.398,20.3984 619.199,30 654,26.3984" inkscape:connector-curvature="0" id="path20" style="stroke:#000000;stroke-width:8;stroke-miterlimit:4;stroke-dasharray:none;fill:none;stroke-opacity:1"/>
      <path d="m 768,64.8008 -54,-6 0,0 -31.199,-7.1992 -19.199,-25.2032 12,-6 19.199,19.2032 L 714,42" inkscape:connector-curvature="0" id="path22" style="stroke:#000000;stroke-width:8;stroke-miterlimit:4;stroke-dasharray:none;fill:none;stroke-opacity:1"/>
      <path d="M 765.602,68.3984 836.398,330 l 108,-63.602 22.801,118.801" inkscape:connector-curvature="0" id="path24" style="stroke:#000000;stroke-width:8;stroke-miterlimit:4;stroke-dasharray:none;fill:none;stroke-opacity:1"/>
      <path d="m 542.398,64.8008 -51.597,-6 0,0 -32.403,-7.1992 -19.199,-25.2032 9.602,-6 22.801,19.2032 L 496.801,42" inkscape:connector-curvature="0" id="path26" style="stroke:#000000;stroke-width:8;stroke-miterlimit:4;stroke-dasharray:none;fill:none;stroke-opacity:1"/>
      <path d="m 1222.8,68.3984 61.2,-6 28.8,-10.7968 18,-25.2032 -9.6,-6 -21.6,19.2032 L 1284,42" inkscape:connector-curvature="0" id="path28" style="stroke:#000000;stroke-width:8;stroke-miterlimit:4;stroke-dasharray:none;fill:none;stroke-opacity:1"/>
      <path d="m 14.3984,786 511.2036,0 0,-511.199 -511.2036,0 0,511.199" inkscape:connector-curvature="0" id="path30" style="stroke:#000000;stroke-width:8;stroke-miterlimit:4;stroke-dasharray:none;fill:none;stroke-opacity:1"/>
      <path d="m 2086.8,1081.2 -753.6,0 9.6,63.6 9.6,42 15.6,40.8 22.8,32.4 19.2,28.8 25.2,34.8 28.8,26.4 34.8,25.2 28.8,19.2 42,19.2 40.8,13.2 28.8,6 51.6,6 38.4,0 34.8,-6 39.6,-6 40.8,-10.8 28.8,-8.4 38.4,-26.4 32.4,-22.8 28.8,-21.6 25.2,-32.4 25.2,-34.8 22.8,-34.8 15.6,-32.4 13.2,-48 9.6,-34.8 2.4,-38.4" inkscape:connector-curvature="0" id="path32" style="stroke:#000000;stroke-width:8;stroke-miterlimit:4;stroke-dasharray:none;fill:none;stroke-opacity:1"/>
      <path d="M 2846.4,909.602 2830.8,858 2802,777.602 l -48,-92.403 -51.6,-76.801 -38.4,-63.597 -40.8,-54 -15.6,-32.403 -7.2,-25.199 -3.6,-22.801 7.2,-34.796 3.6,-22.801 -7.2,-28.801 -9.6,-19.199 -28.8,-15.602 -34.8,0 -38.4,15.602 -13.2,3.597 -28.8,-7.199 -38.4,-15.597 -219.6,0 -7.2,32.398 19.2,19.199 55.2,6 73.2,19.199 67.2,32.403 50.4,44.398 42,51.602 13.2,28.801 25.2,73.199 67.2,182.398 42,90 44.4,86.403 38.4,63.598 31.2,50.4 28.8,39.6 22.8,28.8 19.2,8.4 15.6,3.6 13.2,-3.6 25.2,-2.4 38.4,-55.2 64.8,-104.402 63.6,-103.199 73.2,-127.199 57.6,-124.801 42,-109.199 12,-50.398 22.8,-51.602 28.8,-48 2.4,-22.801 -2.4,-25.199 -9.6,-19.199 -19.2,-9.602 -28.8,-6 -28.8,6 -9.6,9.602 -21.6,6 -22.8,0 -22.8,-19.199 -268.8,0 -2.4,22.796 9.6,15.602 69.6,19.199 61.2,16.801 44.4,15.602 42,19.199 21.6,22.801 13.2,25.199 0,19.199 -9.6,25.199 -38.4,57.602 L 2994,654 l -61.2,82.801 -44.4,80.398 -21.6,63.602 L 2850,912" inkscape:connector-curvature="0" id="path34" style="stroke:#000000;stroke-width:8;stroke-miterlimit:4;stroke-dasharray:none;fill:none;stroke-opacity:1"/>
    </g>
  </g>
</svg>
