<?xml version="1.0" encoding="UTF-8"?>
<!-- Created with Inkscape (http://www.inkscape.org/) -->
<svg xmlns:dc="http://purl.org/dc/elements/1.1/" xmlns:cc="http://creativecommons.org/ns#" xmlns:rdf="http://www.w3.org/1999/02/22-rdf-syntax-ns#" xmlns:svg="http://www.w3.org/2000/svg" xmlns="http://www.w3.org/2000/svg" xmlns:inkscape="http://www.inkscape.org/namespaces/inkscape" version="1.1" width="765" height="990" id="svg2" xml:space="preserve">
  <metadata id="metadata8">
    <rdf:RDF>
      <cc:Work rdf:about="">
        <dc:format>image/svg+xml</dc:format>
        <dc:type rdf:resource="http://purl.org/dc/dcmitype/StillImage"/>
      </cc:Work>
    </rdf:RDF>
  </metadata>
  <defs id="defs6"/>
  <g transform="matrix(1.25,0,0,-1.25,0,990)" id="g10">
    <g transform="scale(0.1,0.1)" id="g12">
      <path d="m 236.398,1062 572.403,0 0,-22.8 22.801,-3.6 36,-12 24,-14.4 32.398,-22.802 27.602,-30 26.398,-36 19.199,-36 L 1014,840 l 12,-45.602 4.8,-75.597 -4.8,-39.602 -16.8,-44.398 -21.598,-21.602 -16.801,-3.597 L 944.398,612 924,628.801 l -9.602,20.398 -3.597,22.801 -2.403,16.801 6,58.801 7.204,63.597 -4.801,66 L 900,924 874.801,962.398 849.602,990 822,1002 l -13.199,0 0,-21.602 -75.602,0 0,-38.398 -110.398,0 0,38.398 -204,0 0,-38.398 -106.801,0 0,38.398 -75.602,0" inkscape:connector-curvature="0" id="path14" style="stroke:#000000;stroke-width:8;stroke-miterlimit:4;stroke-dasharray:none;fill:none;stroke-opacity:1"/>
      <path d="m 270,1062 74.398,360 13.204,22.8 8.398,7.2 12,3.6 16.801,0 16.801,-9.6 3.597,-10.8 0,-13.2" inkscape:connector-curvature="0" id="path16" style="stroke:#000000;stroke-width:8;stroke-miterlimit:4;stroke-dasharray:none;fill:none;stroke-opacity:1"/>
      <path d="m 342,1062 74.398,361.2 10.801,18 9.602,8.4 16.801,3.6 16.796,-4.8 8.403,-7.2 6,-12" inkscape:connector-curvature="0" id="path18" style="stroke:#000000;stroke-width:8;stroke-miterlimit:4;stroke-dasharray:none;fill:none;stroke-opacity:1"/>
      <path d="m 409.199,1062 74.403,360 7.199,16.8 13.199,10.8 14.398,2.4 16.801,-2.4 14.403,-10.8 3.597,-15.6" inkscape:connector-curvature="0" id="path20" style="stroke:#000000;stroke-width:8;stroke-miterlimit:4;stroke-dasharray:none;fill:none;stroke-opacity:1"/>
      <path d="m 477.602,1062 73.199,356.4 12,20.4 13.199,10.8 21.602,2.4 8.398,-2.4 10.801,-7.2 6,-19.2" inkscape:connector-curvature="0" id="path22" style="stroke:#000000;stroke-width:8;stroke-miterlimit:4;stroke-dasharray:none;fill:none;stroke-opacity:1"/>
      <path d="m 549.602,1062 70.796,354 7.204,19.2 8.398,10.8 16.801,7.2 20.398,-3.6 15.602,-8.4 4.801,-13.2" inkscape:connector-curvature="0" id="path24" style="stroke:#000000;stroke-width:8;stroke-miterlimit:4;stroke-dasharray:none;fill:none;stroke-opacity:1"/>
      <path d="m 622.801,1062 67.199,352.8 6,18 10.801,15.6 19.199,3.6 3.602,1.2 16.796,-7.2 10.801,-10.8 0,-12" inkscape:connector-curvature="0" id="path26" style="stroke:#000000;stroke-width:8;stroke-miterlimit:4;stroke-dasharray:none;fill:none;stroke-opacity:1"/>
      <path d="m 686.398,1062 70.801,363.6 8.403,15.6 9.597,8.4 10.801,2.4 16.801,0 15.597,-6 7.204,-10.8 3.597,-19.2 -73.199,-354 -519.602,0 0,-25.2 -26.398,-3.6 -36,-10.8 -26.398,-15.6 -30,-23.999 -27.602,-30 -43.1992,-73.199 -13.1992,-43.204 -13.2032,-45.597 -6,-75.602 6,-39.597 18,-43.204 20.4024,-20.398 15.5976,-3.602 26.4026,1.204 22.801,16.796 7.199,21.602 3.597,21.602 2.403,16.796 -6,58.801 -9.602,63.602 6,64.801 15.602,46.796 24,39.602 24,28.801 27.597,10.801 18,2.398 0,-16.801" inkscape:connector-curvature="0" id="path28" style="stroke:#000000;stroke-width:8;stroke-miterlimit:4;stroke-dasharray:none;fill:none;stroke-opacity:1"/>
      <path d="M 169.199,446.398 146.398,435.602 129.602,414 124.801,397.199 120,380.398 126,354 139.199,337.199 152.398,326.398 175.199,318 192,313.199 l 20.398,0 22.801,8.403 19.199,9.597 10.801,13.199 13.199,19.204 9.602,22.796 4.801,19.204 2.398,18 -2.398,13.199 -3.602,22.801 -8.398,19.199 -15.602,18 -14.398,14.398 -13.199,4.801 -13.204,6 -19.199,2.398 -14.398,1.204 -19.199,0 -22.801,-1.204 -24,-8.398 L 103.199,504 90,493.199 75.6016,480 63.6016,466.801 52.8008,446.398 40.8008,426 37.1992,406.801 33.6016,380.398 32.3984,354 33.6016,333.602 36,303.602 46.8008,272.398 63.6016,238.801 94.8008,199.199 141.602,153.602 208.801,99.6016 356.398,16.8008" inkscape:connector-curvature="0" id="path30" style="stroke:#000000;stroke-width:8;stroke-miterlimit:4;stroke-dasharray:none;fill:none;stroke-opacity:1"/>
      <path d="m 543.602,420 151.199,-339.6016 74.398,0 -150,339.6016 -75.597,0" inkscape:connector-curvature="0" id="path32" style="stroke:#000000;stroke-width:8;stroke-miterlimit:4;stroke-dasharray:none;fill:none;stroke-opacity:1"/>
      <path d="m 771.602,420 151.199,-339.6016 74.398,0 -150,339.6016 -75.597,0" inkscape:connector-curvature="0" id="path34" style="stroke:#000000;stroke-width:8;stroke-miterlimit:4;stroke-dasharray:none;fill:none;stroke-opacity:1"/>
      <path d="m 1312.8,508.801 0,211.199 1431.6,0 0,-211.199 -1431.6,0" inkscape:connector-curvature="0" id="path36" style="stroke:#000000;stroke-width:8;stroke-miterlimit:4;stroke-dasharray:none;fill:none;stroke-opacity:1"/>
      <path d="M 1741.2,879.602 1906.8,720" inkscape:connector-curvature="0" id="path38" style="stroke:#000000;stroke-width:8;stroke-miterlimit:4;stroke-dasharray:none;fill:none;stroke-opacity:1"/>
      <path d="M 2316,879.602 2149.2,720" inkscape:connector-curvature="0" id="path40" style="stroke:#000000;stroke-width:8;stroke-miterlimit:4;stroke-dasharray:none;fill:none;stroke-opacity:1"/>
      <path d="m 1900.8,720 6,34.801 13.2,28.801 22.8,28.796 15.6,13.204 25.2,15.597 34.8,3.602 26.4,0 25.2,-3.602 22.8,-13.199 21.6,-19.199 16.8,-21.602 9.6,-22.801 6,-44.398" inkscape:connector-curvature="0" id="path42" style="stroke:#000000;stroke-width:8;stroke-miterlimit:4;stroke-dasharray:none;fill:none;stroke-opacity:1"/>
    </g>
  </g>
</svg>
