<?xml version="1.0" encoding="UTF-8"?>
<!-- Created with Inkscape (http://www.inkscape.org/) -->
<svg xmlns:dc="http://purl.org/dc/elements/1.1/" xmlns:cc="http://creativecommons.org/ns#" xmlns:rdf="http://www.w3.org/1999/02/22-rdf-syntax-ns#" xmlns:svg="http://www.w3.org/2000/svg" xmlns="http://www.w3.org/2000/svg" xmlns:inkscape="http://www.inkscape.org/namespaces/inkscape" version="1.1" width="765" height="990" id="svg2" xml:space="preserve">
  <metadata id="metadata8">
    <rdf:RDF>
      <cc:Work rdf:about="">
        <dc:format>image/svg+xml</dc:format>
        <dc:type rdf:resource="http://purl.org/dc/dcmitype/StillImage"/>
      </cc:Work>
    </rdf:RDF>
  </metadata>
  <defs id="defs6"/>
  <g transform="matrix(1.25,0,0,-1.25,0,990)" id="g10">
    <g transform="scale(0.1,0.1)" id="g12">
      <path d="m 735.602,1106.4 -73.204,7.2 -115.199,-7.2 -85.199,10.8 -26.398,-10.8 -20.403,-26.4 7.199,-45.6 32.403,-105.599 62.398,-102 L 722.398,583.199 828,483.602 979.199,342 1302,25.1992 l 33.6,0 9.6,16.8008 -13.2,28.8008 -138,316.8012 -20.4,60 L 1068,702 972,866.398 896.398,972 l -55.199,75.6 -46.801,72 -49.199,66 -60,69.6 -58.801,39.6 -16.796,69.6 -13.204,75.6 -19.199,49.2 -56.398,13.2 -92.403,0 -102,-2.4 -49.199,-13.2 -24,-7.2 L 85.1992,1456.8 36,1434 19.1992,1410 16.8008,1364.4 36,1396.8 l 33.6016,16.8 98.3984,0 102,-3.6 52.801,-13.2 -43.199,52.8 -9.602,37.2" inkscape:connector-curvature="0" id="path14" style="stroke:#000000;stroke-width:8;stroke-miterlimit:4;stroke-dasharray:none;fill:none;stroke-opacity:1"/>
      <path d="m 379.199,1417.2 9.602,3.6 6,15.6 -6,16.8 -13.199,10.8 -13.204,-10.8 -3.597,-19.2 7.199,-10.8 9.602,-6" inkscape:connector-curvature="0" id="path16" style="stroke:#000000;stroke-width:8;stroke-miterlimit:4;stroke-dasharray:none;fill:none;stroke-opacity:1"/>
      <path d="m 32.3984,1383.6 131.9996,3.6 102,-13.2 30,-15.6 10.801,-33.6 2.403,-36 -30,-73.2 -13.204,-88.8 16.801,-109.2 13.199,-49.202 36,-98.398 43.204,-80.398 102,-174 L 613.199,358.801 626.398,259.199 609.602,91.1992 592.801,74.3984 498,64.8008 385.199,68.3984 379.199,51.6016 330,44.3984 322.801,34.8008 332.398,21.6016 616.801,32.3984 909.602,19.1992 922.801,32.3984 916.801,48 870,48 l -26.398,22.8008 -168,3.5976 -20.403,13.2032 20.403,207.5974 122.398,-62.398 68.398,204 L 999.602,108 1045.2,48 l 45.6,-26.3984 69.6,0 39.6,13.1992 9.6,20.3984 L 1177.2,144" inkscape:connector-curvature="0" id="path18" style="stroke:#000000;stroke-width:8;stroke-miterlimit:4;stroke-dasharray:none;fill:none;stroke-opacity:1"/>
      <path d="M 358.801,813.602 402,572.398 399.602,387.602 366,200.398 336,104.398 316.801,81.6016 158.398,70.8008 141.602,48 105.602,44.3984 92.3984,34.8008 105.602,21.6016 228,32.3984 264,28.8008" inkscape:connector-curvature="0" id="path20" style="stroke:#000000;stroke-width:8;stroke-miterlimit:4;stroke-dasharray:none;fill:none;stroke-opacity:1"/>
      <path d="m 382.801,68.3984 -56.403,-6 0,0 L 294,55.1992 273.602,28.8008 286.801,21.6016 307.199,42 l 19.199,2.3984" inkscape:connector-curvature="0" id="path22" style="stroke:#000000;stroke-width:8;stroke-miterlimit:4;stroke-dasharray:none;fill:none;stroke-opacity:1"/>
      <path d="M 379.199,70.8008 451.199,342 564,276 586.801,398.398" inkscape:connector-curvature="0" id="path24" style="stroke:#000000;stroke-width:8;stroke-miterlimit:4;stroke-dasharray:none;fill:none;stroke-opacity:1"/>
      <path d="m 147.602,68.3984 -51.602,-6 0,0 L 62.3984,55.1992 43.1992,28.8008 52.8008,21.6016 75.6016,42 102,44.3984" inkscape:connector-curvature="0" id="path26" style="stroke:#000000;stroke-width:8;stroke-miterlimit:4;stroke-dasharray:none;fill:none;stroke-opacity:1"/>
      <path d="m 850.801,70.8008 62.398,-6 30,-9.6016 19.199,-26.3984 -9.597,-7.1992 L 930,42 913.199,44.3984" inkscape:connector-curvature="0" id="path28" style="stroke:#000000;stroke-width:8;stroke-miterlimit:4;stroke-dasharray:none;fill:none;stroke-opacity:1"/>
      <path d="m 2433.6,1106.4 -72,7.2 -116.4,-7.2 -85.2,10.8 -26.4,-10.8 -19.2,-26.4 6,-45.6 32.4,-105.599 63.6,-102 204,-243.602 L 2526,483.602 2677.2,342 3000,25.1992 l 33.6,0 9.6,16.8008 -13.2,28.8008 -138,316.8012 -20.4,60 L 2766,702 2671.2,866.398 2595.6,972 l -56.4,75.6 -46.8,72 -49.2,66 -58.8,69.6 -60,39.6 -16.8,69.6 -13.2,75.6 -19.2,49.2 -56.4,13.2 -92.4,0 -102,-2.4 -49.2,-13.2 -22.8,-7.2 -168,-22.8 -49.2,-22.8 -16.8,-24 -3.6,-45.6 20.4,32.4 32.4,16.8 98.4,0 103.2,-3.6 51.6,-13.2 -42,52.8 -9.6,37.2" inkscape:connector-curvature="0" id="path30" style="stroke:#000000;stroke-width:8;stroke-miterlimit:4;stroke-dasharray:none;fill:none;stroke-opacity:1"/>
      <path d="m 2077.2,1417.2 10.8,3.6 6,15.6 -6,16.8 -13.2,10.8 -14.4,-10.8 -2.4,-19.2 6,-10.8 10.8,-6" inkscape:connector-curvature="0" id="path32" style="stroke:#000000;stroke-width:8;stroke-miterlimit:4;stroke-dasharray:none;fill:none;stroke-opacity:1"/>
      <path d="m 1731.6,1383.6 132,3.6 102,-13.2 30,-15.6 9.6,-33.6 3.6,-36 -30,-73.2 -13.2,-88.8 16.8,-109.2 13.2,-49.202 36,-98.398 43.2,-80.398 102,-174 134.4,-256.801 13.2,-99.602 -16.8,-167.9998 -15.6,-16.8008 -96,-9.5976 -111.6,3.5976 -7.2,-16.7968 -49.2,-7.2032 -7.2,-9.5976 10.8,-13.1992 283.2,10.7968 294,-13.1992 13.2,13.1992 -7.2,15.6016 -45.6,0 -27.6,22.8008 -168,3.5976 -19.2,13.2032 19.2,207.5974 122.4,-62.398 69.6,204 132,-328.801 45.6,-60 46.8,-26.3984 68.4,0 40.8,13.1992 8.4,20.3984 L 2875.2,144" inkscape:connector-curvature="0" id="path34" style="stroke:#000000;stroke-width:8;stroke-miterlimit:4;stroke-dasharray:none;fill:none;stroke-opacity:1"/>
      <path d="m 2058,813.602 43.2,-241.204 -3.6,-184.796 -33.6,-187.204 -30,-96 L 2014.8,81.6016 1856.4,70.8008 1840.8,48 l -37.2,-3.6016 -13.2,-9.5976 13.2,-13.1992 122.4,10.7968 36,-3.5976" inkscape:connector-curvature="0" id="path36" style="stroke:#000000;stroke-width:8;stroke-miterlimit:4;stroke-dasharray:none;fill:none;stroke-opacity:1"/>
      <path d="m 2080.8,68.3984 -56.4,-6 0,0 -32.4,-7.1992 -20.4,-26.3984 13.2,-7.1992 20.4,20.3984 19.2,2.3984" inkscape:connector-curvature="0" id="path38" style="stroke:#000000;stroke-width:8;stroke-miterlimit:4;stroke-dasharray:none;fill:none;stroke-opacity:1"/>
      <path d="M 2077.2,70.8008 2150.4,342 2262,276 l 24,122.398" inkscape:connector-curvature="0" id="path40" style="stroke:#000000;stroke-width:8;stroke-miterlimit:4;stroke-dasharray:none;fill:none;stroke-opacity:1"/>
      <path d="m 1846.8,68.3984 -52.8,-6 0,0 -32.4,-7.1992 -20.4,-26.3984 9.6,-7.1992 22.8,20.3984 26.4,2.3984" inkscape:connector-curvature="0" id="path42" style="stroke:#000000;stroke-width:8;stroke-miterlimit:4;stroke-dasharray:none;fill:none;stroke-opacity:1"/>
      <path d="m 2548.8,70.8008 62.4,-6 30,-9.6016 19.2,-26.3984 -8.4,-7.1992 -24,20.3984 -16.8,2.3984" inkscape:connector-curvature="0" id="path44" style="stroke:#000000;stroke-width:8;stroke-miterlimit:4;stroke-dasharray:none;fill:none;stroke-opacity:1"/>
      <path d="M 1245.6,904.801 1592.4,1238.4" inkscape:connector-curvature="0" id="path46" style="stroke:#000000;stroke-width:8;stroke-miterlimit:4;stroke-dasharray:none;fill:none;stroke-opacity:1"/>
      <path d="M 1119.6,952.801 1546.8,1360.8" inkscape:connector-curvature="0" id="path48" style="stroke:#000000;stroke-width:8;stroke-miterlimit:4;stroke-dasharray:none;fill:none;stroke-opacity:1"/>
      <path d="M 1036.8,1040.4 1464,1449.6" inkscape:connector-curvature="0" id="path50" style="stroke:#000000;stroke-width:8;stroke-miterlimit:4;stroke-dasharray:none;fill:none;stroke-opacity:1"/>
      <path d="M 994.801,1166.4 1335.6,1492.8" inkscape:connector-curvature="0" id="path52" style="stroke:#000000;stroke-width:8;stroke-miterlimit:4;stroke-dasharray:none;fill:none;stroke-opacity:1"/>
      <path d="m 1418.4,1473.6 -28.8,8.4 -30,10.8 -32.4,4.8 -31.2,0 -34.8,-2.4 -30,-2.4 -31.2,-10.8 -30,-12 -28.8,-13.2 -27.6,-18 -20.4,-19.2 -21.6,-21.6 -15.6,-18 -16.8,-24 -19.2,-34.8 -7.2,-26.4 -8.4,-30 -4.798,-28.8 -4.801,-36 0,-28.8 4.801,-34.8 7.198,-28.8 8.4,-27.6 13.2,-28.8 8.4,-15.6 10.8,-13.2 26.4,-30.002 26.4,-26.398 24,-19.199 30,-15.602 32.4,-15.597 31.2,-8.403 27.6,-8.398 31.2,0 32.4,-2.403 37.2,4.801 26.4,6 32.4,13.199 32.4,15.602 21.6,10.801 22.8,21.597 25.2,21.602 22.8,24 19.2,28.8 19.2,27.6 13.2,26.4 7.2,32.4 3.6,28.8 4.8,34.8 -2.4,30 -2.4,33.6 -8.4,30 -10.8,26.4 -13.2,34.8 -19.2,26.4 -18,21.6 -21.6,26.4 -26.4,19.2 -26.4,18 -30,14.4" inkscape:connector-curvature="0" id="path54" style="stroke:#000000;stroke-width:8;stroke-miterlimit:4;stroke-dasharray:none;fill:none;stroke-opacity:1"/>
      <path d="M 2943.6,885.602 3290.4,1219.2" inkscape:connector-curvature="0" id="path56" style="stroke:#000000;stroke-width:8;stroke-miterlimit:4;stroke-dasharray:none;fill:none;stroke-opacity:1"/>
      <path d="M 2817.6,933.602 3244.8,1342.8" inkscape:connector-curvature="0" id="path58" style="stroke:#000000;stroke-width:8;stroke-miterlimit:4;stroke-dasharray:none;fill:none;stroke-opacity:1"/>
      <path d="M 2734.8,1021.2 3162,1430.4" inkscape:connector-curvature="0" id="path60" style="stroke:#000000;stroke-width:8;stroke-miterlimit:4;stroke-dasharray:none;fill:none;stroke-opacity:1"/>
      <path d="m 2692.8,1147.2 340.8,325.2" inkscape:connector-curvature="0" id="path62" style="stroke:#000000;stroke-width:8;stroke-miterlimit:4;stroke-dasharray:none;fill:none;stroke-opacity:1"/>
      <path d="m 3117.6,1454.4 -30,8.4 -28.8,9.6 -32.4,6 -32.4,0 -34.8,-3.6 -28.8,-2.4 -32.4,-9.6 -28.8,-10.8 -30,-13.2 -26.4,-19.2 -21.6,-18 -21.6,-21.6 -15.6,-19.2 -16.8,-24 -18,-34.8 -8.4,-26.4 -7.2,-30 -6,-28.8 -4.8,-34.8 0,-30 4.8,-34.8 8.4,-28.8 8.4,-26.4 12,-30 8.4,-15.6 10.8,-14.4 26.4,-28.801 27.6,-26.398 24,-19.199 28.8,-15.602 32.4,-16.801 32.4,-7.199 26.4,-8.398 32.4,0 31.2,-2.403 37.2,4.801 27.6,6 31.2,13.199 32.4,16.801 21.6,9.602 24,21.597 24,21.602 24,24 18,29.999 19.2,26.4 14.4,26.4 7.2,32.4 2.4,28.8 6,34.8 -3.6,30 -2.4,34.8 -7.2,28.8 -10.8,27.6 -14.4,33.6 -18,27.6 -19.2,20.4 -21.6,27.6 -26.4,18 -26.4,19.2 -28.8,13.2" inkscape:connector-curvature="0" id="path64" style="stroke:#000000;stroke-width:8;stroke-miterlimit:4;stroke-dasharray:none;fill:none;stroke-opacity:1"/>
    </g>
  </g>
</svg>
