<?xml version="1.0" encoding="UTF-8"?>
<!-- Created with Inkscape (http://www.inkscape.org/) -->
<svg xmlns:dc="http://purl.org/dc/elements/1.1/" xmlns:cc="http://creativecommons.org/ns#" xmlns:rdf="http://www.w3.org/1999/02/22-rdf-syntax-ns#" xmlns:svg="http://www.w3.org/2000/svg" xmlns="http://www.w3.org/2000/svg" xmlns:inkscape="http://www.inkscape.org/namespaces/inkscape" version="1.1" width="765" height="990" id="svg2" xml:space="preserve">
  <metadata id="metadata8">
    <rdf:RDF>
      <cc:Work rdf:about="">
        <dc:format>image/svg+xml</dc:format>
        <dc:type rdf:resource="http://purl.org/dc/dcmitype/StillImage"/>
      </cc:Work>
    </rdf:RDF>
  </metadata>
  <defs id="defs6"/>
  <g transform="matrix(1.25,0,0,-1.25,0,990)" id="g10">
    <g transform="scale(0.1,0.1)" id="g12">
      <path d="m 4054.8,879.602 0,-864.0004 -67.2,0 0,864.0004" inkscape:connector-curvature="0" id="path14" style="stroke:#000000;stroke-width:8;stroke-miterlimit:4;stroke-dasharray:none;fill:none;stroke-opacity:1"/>
      <path d="m 4381.2,879.602 -720,0 0,226.798 13.2,25.2 13.2,16.8 31.2,0 19.2,-3.6 19.2,-13.2 63.6,-56.4 57.6,-51.6 45.6,-22.8 54,-11.999 44.4,-3.602 42,3.602 54,11.999 45.6,22.8 57.6,51.6 63.6,56.4 19.2,13.2 19.2,3.6 31.2,0 13.2,-16.8 13.2,-25.2 0,-226.798" inkscape:connector-curvature="0" id="path16" style="stroke:#000000;stroke-width:8;stroke-miterlimit:4;stroke-dasharray:none;fill:none;stroke-opacity:1"/>
      <path d="m 3888,1023.6 58.8,376.8 25.2,32.4 18,13.2 26.4,9.6 9.6,0 25.2,-9.6 19.2,-13.2 25.2,-32.4 57.6,-376.8" inkscape:connector-curvature="0" id="path18" style="stroke:#000000;stroke-width:8;stroke-miterlimit:4;stroke-dasharray:none;fill:none;stroke-opacity:1"/>
      <path d="m 4204.8,1087.2 -25.2,3.6 -15.6,12 -10.8,16.8 -6,15.6 3.6,28.8 13.2,19.2 15.6,9.6 25.2,7.2 25.2,-3.6 19.2,-13.2 13.2,-19.2 0,-40.8 -13.2,-16.8 -19.2,-15.6 -25.2,-3.6" inkscape:connector-curvature="0" id="path20" style="stroke:#000000;stroke-width:8;stroke-miterlimit:4;stroke-dasharray:none;fill:none;stroke-opacity:1"/>
      <path d="m 3849.6,1090.8 -28.8,0 -27.6,15.6 -10.8,19.2 -2.4,15.6 6,28.8 22.8,22.8 12,7.2 22.8,0 22.8,-3.6 19.2,-13.2 9.6,-22.8 0,-19.2 -7.2,-25.2 -9.6,-15.6 -15.6,-6 -13.2,-3.6" inkscape:connector-curvature="0" id="path22" style="stroke:#000000;stroke-width:8;stroke-miterlimit:4;stroke-dasharray:none;fill:none;stroke-opacity:1"/>
      <path d="m 4076.4,876 93.6,-280.801 6,-28.801 0,-39.597 -12,-27.602 -20.4,-19.199 -19.2,-13.199 -69.6,-9.602" inkscape:connector-curvature="0" id="path24" style="stroke:#000000;stroke-width:8;stroke-miterlimit:4;stroke-dasharray:none;fill:none;stroke-opacity:1"/>
      <path d="m 3987.6,457.199 -67.2,9.602 -32.4,22.801 -18,37.199 0,45.597 98.4,303.602" inkscape:connector-curvature="0" id="path26" style="stroke:#000000;stroke-width:8;stroke-miterlimit:4;stroke-dasharray:none;fill:none;stroke-opacity:1"/>
      <path d="m 1270.8,1015.2 32.4,15.6 25.2,9.6 36,7.2 37.2,2.4 32.4,-2.4 31.2,-3.6 33.6,-13.2 21.6,-6 28.8,-13.2 21.6,-19.202 -2.4,-13.199 -6,-12 -45.6,22.801 -25.2,9.602 -28.8,5.998 -34.8,6 -34.8,0 -28.8,-6 -7.2,-26.401 3.6,-6 32.4,-9.597 21.6,-3.602 25.2,10.801 25.2,2.398 7.2,-19.199 -32.4,-15.602 -25.2,-3.597 -38.4,-6 -38.4,13.199 -44.4,12 -19.2,3.602 -82.8,-13.204 -84,-2.398 -76.8,-7.199 -70.8,0 -50.398,9.597 -25.204,22.801 -13.199,38.401 -19.199,42 -12,46.8 -7.199,26.4 -38.403,127.2 -12,16.8 -13.199,-13.2 -51.597,-157.2 -12,-44.4 -20.403,-42 -12,-34.801 L 650.398,948 621.602,938.398 571.199,934.801 494.398,942 420,948 l -108,0 -16.801,6 -69.597,-19.199 -76.801,-3.602 -38.403,22.801 0,6 9.602,19.199 34.801,-15.597 45.597,-3.602 25.204,19.199 6,7.199 -12,13.204 L 180,1008 l -34.801,0 -28.801,-2.4 L 91.1992,996 72,986.398 26.3984,967.199 l -8.3984,6 -3.6016,19.199 19.2032,13.202 34.7968,19.2 28.8008,12 38.4028,13.2 42,3.6 34.796,2.4 38.403,-12 26.398,-7.2 15.602,-15.6 28.801,-9.6 57.597,7.2 80.403,6 63.597,-6 44.403,-7.2 15.597,9.6 16.801,48 15.602,55.2 32.398,117.6 31.199,82.8 9.602,26.4 16.801,25.2 19.199,13.2 12,6 45.597,6 40.801,-8.4 25.199,-13.2 10.801,-15.6 18,-39.6 32.403,-88.8 32.398,-122.4 18,-50.4 20.398,-48 28.802,3.6 54,6 44.4,0 70.8,-6 57.6,-7.2 38.4,0" inkscape:connector-curvature="0" id="path28" style="stroke:#000000;stroke-width:8;stroke-miterlimit:4;stroke-dasharray:none;fill:none;stroke-opacity:1"/>
      <path d="m 14.3984,115.199 76.8008,0 117.6018,147.602 99.597,-128.403 96,128.403 96,-128.403 96,128.403 98.403,-128.403 93.597,128.403 102,-128.403 96,128.403 99.602,-128.403 98.4,128.403 96,-128.403 92.4,128.403 121.2,-147.602 76.8,0 -194.4,236.403 -99.6,-127.204 -92.4,127.204 -96,-140.403 -108.002,140.403 -90,-127.204 -102,127.204 -90,-127.204 -102,127.204 -96,-140.403 -99.597,140.403 -92.403,-134.403 -108,134.403 L 14.3984,115.199" inkscape:connector-curvature="0" id="path30" style="stroke:#000000;stroke-width:8;stroke-miterlimit:4;stroke-dasharray:none;fill:none;stroke-opacity:1"/>
      <path d="m 3450,1075.2 -98.4,19.2 -70.8,13.2 -51.6,19.2 -63.6,25.2 -67.2,32.4 -124.8,69.6 -127.2,70.8 -64.8,22.8 -76.8,27.6 -76.8,13.2 -57.6,13.2 -69.6,0 -70.8,-9.6 -70.8,-22.8 -69.6,-34.8 -76.8,-57.6 -51.6,-48 -50.4,-31.2 -42,-28.8 -34.8,-10.8 -38.4,-15.6 -38.4,-13.2 -64.8,-8.4" inkscape:connector-curvature="0" id="path32" style="stroke:#000000;stroke-width:8;stroke-miterlimit:4;stroke-dasharray:none;fill:none;stroke-opacity:1"/>
      <path d="m 1959.6,1132.8 54,0 48,3.6 49.2,-9.6 82.8,-19.2 63.6,-26.4 70.8,-15.6 76.8,-19.2 48,-9.6 86.4,-2.4 111.6,8.4 54,7.2 178.8,21.6 70.8,9.6 63.6,7.2 64.8,6 127.2,6 64.8,-6 54,-6 54,-7.2 28.8,0" inkscape:connector-curvature="0" id="path34" style="stroke:#000000;stroke-width:8;stroke-miterlimit:4;stroke-dasharray:none;fill:none;stroke-opacity:1"/>
      <path d="m 2343.6,1357.2 -22.8,-32.4 -6,-25.2 -9.6,-32.4 -3.6,-32.4 13.2,-57.6 19.2,-28.8 19.2,-27.6 32.4,-26.4 34.8,-19.2 73.2,-9.6 54,6 42,7.2 51.6,34.8 31.2,38.4 16.8,28.8 9.6,61.2 -6,57.6 -16.8,32.4 -15.6,25.2 -32.4,31.2" inkscape:connector-curvature="0" id="path36" style="stroke:#000000;stroke-width:8;stroke-miterlimit:4;stroke-dasharray:none;fill:none;stroke-opacity:1"/>
      <path d="m 1822.8,294 25.2,21.602 42,16.796 73.2,32.403 82.8,25.199 93.6,25.199 136.8,32.403 118.8,13.199 92.4,12 105.6,7.199 96,-7.199 112.8,-6 108,-12 L 3013.2,432 3102,409.199 3184.8,384 l 82.8,-26.398 64.8,-25.204 25.2,-12 19.2,-22.796 3.6,-3.602 -22.8,-21.602 -61.2,-39.597 -117.6,-44.403 -115.2,-34.796 -127.2,-28.801 -97.2,-9.602 -102,-13.199 -134.4,-6 -86.4,6 -92.4,7.199 -82.8,6 -121.2,19.199 -134.4,32.403 -96,31.199 -90,38.398 -57.6,32.403 -19.2,25.199" inkscape:connector-curvature="0" id="path38" style="stroke:#000000;stroke-width:8;stroke-miterlimit:4;stroke-dasharray:none;fill:none;stroke-opacity:1"/>
      <path d="m 5946,710.398 -981.6,0 -60,-22.796 -58.8,-15.602 -56.4,-6 -67.2,0 -74.4,19.199 -31.2,12 -22.8,9.602 -60,44.398 -16.8,19.199 -6,32.403 32.4,13.199 31.2,-19.199 61.2,-38.403 40.8,-15.597 61.2,-9.602 42,0 42,2.403 44.4,15.597 -13.2,28.801 -22.8,0 -56.4,-6 -55.2,3.602 -42,25.199 16.8,32.398 40.8,-15.597 36,0 34.8,6 32.4,6 34.8,3.597 42,-13.199 48,-31.199 156,25.199 115.2,15.602 117.6,7.199 132,-7.199 108,-6 93.6,-9.602 60,-3.602 32.4,426.002 138,0 34.8,-531.599" inkscape:connector-curvature="0" id="path40" style="stroke:#000000;stroke-width:8;stroke-miterlimit:4;stroke-dasharray:none;fill:none;stroke-opacity:1"/>
      <path d="M 5479.2,1461.6 5463.6,1138.8 5456.4,828" inkscape:connector-curvature="0" id="path42" style="stroke:#000000;stroke-width:8;stroke-miterlimit:4;stroke-dasharray:none;fill:none;stroke-opacity:1"/>
      <path d="m 5450.4,704.398 -15.6,-201.597 -13.2,-144 6,-153.602 10.8,-48 9.6,-38.398 -7.2,-38.4026 L 5421.6,54 l -28.8,-19.1992 -34.8,-6 -63.6,16.8008 -26.4,19.1992 -40.8,8.3984 -96,-48 -397.2,3.6016 -15.6,51.5976 13.2,25.2036 34.8,6 138,28.796 115.2,58.801 76.8,28.801 66,15.602 48,40.796 16.8,42 2.4,44.403 -6,68.398 -2.4,88.801 -3.6,178.801" inkscape:connector-curvature="0" id="path44" style="stroke:#000000;stroke-width:8;stroke-miterlimit:4;stroke-dasharray:none;fill:none;stroke-opacity:1"/>
      <path d="m 5214,828 -3.6,186 -25.2,451.2 294,0" inkscape:connector-curvature="0" id="path46" style="stroke:#000000;stroke-width:8;stroke-miterlimit:4;stroke-dasharray:none;fill:none;stroke-opacity:1"/>
    </g>
  </g>
</svg>
