<?xml version="1.0" encoding="UTF-8"?>
<!-- Created with Inkscape (http://www.inkscape.org/) -->
<svg xmlns:dc="http://purl.org/dc/elements/1.1/" xmlns:cc="http://creativecommons.org/ns#" xmlns:rdf="http://www.w3.org/1999/02/22-rdf-syntax-ns#" xmlns:svg="http://www.w3.org/2000/svg" xmlns="http://www.w3.org/2000/svg" xmlns:inkscape="http://www.inkscape.org/namespaces/inkscape" version="1.1" width="765" height="990" id="svg2" xml:space="preserve">
  <metadata id="metadata8">
    <rdf:RDF>
      <cc:Work rdf:about="">
        <dc:format>image/svg+xml</dc:format>
        <dc:type rdf:resource="http://purl.org/dc/dcmitype/StillImage"/>
      </cc:Work>
    </rdf:RDF>
  </metadata>
  <defs id="defs6"/>
  <g transform="matrix(1.25,0,0,-1.25,0,990)" id="g10">
    <g transform="scale(0.1,0.1)" id="g12">
      <path d="M 384,518.398 463.199,66" inkscape:connector-curvature="0" id="path14" style="stroke:#000000;stroke-width:8;stroke-miterlimit:4;stroke-dasharray:none;fill:none;stroke-opacity:1"/>
      <path d="m 295.199,234 0,326.398 6,25.204 10.801,15.597 7.199,10.801 15.602,12 9.597,4.801 14.403,2.398 10.801,2.403 13.199,-2.403 19.199,-3.597 10.801,-8.403 12,-13.199 4.801,-8.398 4.796,-9.602 1.204,-15.602 0,-9.597 L 432,546 l -8.398,-13.199 -12,-8.403 -13.204,-4.796 -13.199,-1.204" inkscape:connector-curvature="0" id="path16" style="stroke:#000000;stroke-width:8;stroke-miterlimit:4;stroke-dasharray:none;fill:none;stroke-opacity:1"/>
      <path d="M 170.398,518.398 91.1992,64.8008" inkscape:connector-curvature="0" id="path18" style="stroke:#000000;stroke-width:8;stroke-miterlimit:4;stroke-dasharray:none;fill:none;stroke-opacity:1"/>
      <path d="m 258,236.398 0,324 -6,25.204 -8.398,15.597 -8.403,10.801 -15.597,10.801 -7.204,3.597 -16.796,4.801 -10.801,2.403 -12,-2.403 -18,-4.801 -12,-7.199 L 127.199,606 124.801,597.602 120,588 l -3.602,-15.602 0,-9.597 6,-16.801 8.403,-13.199 12,-8.403 13.199,-4.796 14.398,-1.204" inkscape:connector-curvature="0" id="path20" style="stroke:#000000;stroke-width:8;stroke-miterlimit:4;stroke-dasharray:none;fill:none;stroke-opacity:1"/>
      <path d="m 300,15.6016 2.398,15.5976 18,16.8008 14.403,0 32.398,-6 32.403,-7.1992 34.796,-1.1992 24,3.5976 24,8.4024 40.801,30 15.602,21.5976 -1.199,13.1988 -12,-4.796 L 484.801,72 446.398,58.8008 403.199,60 369.602,64.8008 336,73.1992 l -27.602,0 L 289.199,66 276,50.3984 272.398,12 268.801,56.3984 253.199,70.8008 232.801,73.1992 192,67.1992 146.398,56.3984 103.199,58.8008 81.6016,66 l -18,6 -24,19.1992 -16.8008,11.9998 -7.1992,-4.8006 0,-9.5976 24,-24 L 64.8008,49.1992 108,34.8008 l 32.398,-2.4024 32.403,2.4024 38.398,12 18,-1.1992 10.801,-8.4024 10.801,-24 L 297.602,12" inkscape:connector-curvature="0" id="path22" style="stroke:#000000;stroke-width:8;stroke-miterlimit:4;stroke-dasharray:none;fill:none;stroke-opacity:1"/>
      <path d="M 272.398,70.8008 258,72 l -19.199,7.1992 -12,7.1992 -14.403,13.2032 -8.398,15.5974 -10.801,25.199 0,18 2.403,21.602 4.796,15.602 10.801,12 12,13.199 16.801,10.801 15.602,3.597 13.199,1.199 13.199,0 16.801,-2.398 15.597,-8.398 14.403,-9.602 12,-14.398 L 348,187.199 350.398,174 352.801,157.199 350.398,141.602 348,128.398 340.801,109.199 328.801,94.8008 318,84 298.801,75.6016 284.398,72 271.199,70.8008" inkscape:connector-curvature="0" id="path24" style="stroke:#000000;stroke-width:8;stroke-miterlimit:4;stroke-dasharray:none;fill:none;stroke-opacity:1"/>
      <path d="m 38.3984,274.801 1.2032,0 0,3.597 -2.4024,0 0,-3.597 1.1992,0" inkscape:connector-curvature="0" id="path26" style="stroke:#000000;stroke-width:8;stroke-miterlimit:4;stroke-dasharray:none;fill:none;stroke-opacity:1"/>
      <path d="m 76.8008,261.602 -7.1992,3.597 -7.2032,-1.199 -7.1992,-2.398 -16.8008,-1.204 -13.1992,-1.199 -4.8008,2.403 -3.5976,2.398 -1.1992,3.602 0,2.398 1.1992,4.801 4.8008,4.801 3.5976,4.796 6,3.602 4.8008,1.199 3.6016,1.199 16.7968,0 8.4024,-1.199 14.3984,-10.801 12,-9.597 11.9998,-14.403 4.801,-9.597 1.199,-12 -2.398,-18 -2.403,-9.602 L 99.6016,194.398 90,177.602 78,150 70.8008,130.801 69.6016,123.602 68.3984,116.398 70.8008,102 l 4.8008,-9.6016 7.1992,-6 L 93.6016,84" inkscape:connector-curvature="0" id="path28" style="stroke:#000000;stroke-width:8;stroke-miterlimit:4;stroke-dasharray:none;fill:none;stroke-opacity:1"/>
      <path d="m 57.6016,79.1992 -7.2032,6 -4.7968,7.1992 -4.8008,13.2036 -1.1992,9.597 0,9.602 L 42,150 40.8008,164.398 39.6016,186 l -7.2032,21.602 0,20.398 3.6016,14.398 4.8008,7.204 6,8.398 L 60,264" inkscape:connector-curvature="0" id="path30" style="stroke:#000000;stroke-width:8;stroke-miterlimit:4;stroke-dasharray:none;fill:none;stroke-opacity:1"/>
      <path d="m 517.199,282 -1.199,0 0,3.602 2.398,0 1.204,-1.204 -1.204,-2.398 -1.199,0" inkscape:connector-curvature="0" id="path32" style="stroke:#000000;stroke-width:8;stroke-miterlimit:4;stroke-dasharray:none;fill:none;stroke-opacity:1"/>
      <path d="m 478.801,268.801 7.199,2.398 6,-1.199 8.398,-1.199 16.801,-1.199 13.199,-1.204 4.801,2.403 2.403,1.199 1.199,3.602 0,3.597 -1.199,4.801 -3.602,4.801 -3.602,3.597 -6,4.801 -4.796,1.199 -3.602,1.204 -16.801,0 -9.597,-1.204 -13.204,-10.796 -12,-10.801 -12,-13.199 -4.796,-9.602 -1.204,-12 2.403,-18 2.398,-9.602 3.602,-10.796 10.801,-16.801 12,-27.602 7.199,-19.199 1.199,-7.199 1.199,-7.199 -1.199,-14.403 -6,-10.8006 -8.398,-4.7968 -12,-6" inkscape:connector-curvature="0" id="path34" style="stroke:#000000;stroke-width:8;stroke-miterlimit:4;stroke-dasharray:none;fill:none;stroke-opacity:1"/>
      <path d="m 496.801,84 8.398,8.3984 3.602,6 6,14.4026 1.199,9.597 0,9.602 -3.602,25.199 0,14.403 3.602,21.597 7.199,21.602 0,20.398 -3.597,14.403 -4.801,6 -7.199,9.597 -12,4.801" inkscape:connector-curvature="0" id="path36" style="stroke:#000000;stroke-width:8;stroke-miterlimit:4;stroke-dasharray:none;fill:none;stroke-opacity:1"/>
      <path d="m 51.6016,290.398 -6,1.204 -7.2032,4.796 -9.5976,8.403 -3.6016,8.398 0,7.199 1.1992,9.602 3.6016,7.199 7.1992,7.199 6,2.403 9.6016,2.398 8.3984,0 8.4024,-3.597 6,-6 L 78,331.199 80.3984,324 79.1992,315.602 78,310.801 l -2.3984,-7.199 -4.8008,-6 L 66,296.398 60,294 l -8.3984,-2.398 -1.2032,0" inkscape:connector-curvature="0" id="path38" style="stroke:#000000;stroke-width:8;stroke-miterlimit:4;stroke-dasharray:none;fill:none;stroke-opacity:1"/>
      <path d="m 505.199,296.398 -6,1.204 -8.398,3.597 -8.403,9.602 -3.597,7.199 -1.199,8.398 1.199,8.403 6,8.398 4.801,7.199 7.199,2.403 9.597,2.398 8.403,0 8.398,-3.597 6,-7.204 2.403,-8.398 2.398,-6 -1.199,-9.602 -1.199,-4.796 -2.403,-6 0,-3.602 -4.801,-2.398 -4.796,-2.403 -6,-2.398 -8.403,-1.199 -1.199,0" inkscape:connector-curvature="0" id="path40" style="stroke:#000000;stroke-width:8;stroke-miterlimit:4;stroke-dasharray:none;fill:none;stroke-opacity:1"/>
    </g>
  </g>
</svg>
