<?xml version="1.0" encoding="UTF-8"?>
<!-- Created with Inkscape (http://www.inkscape.org/) -->
<svg xmlns:dc="http://purl.org/dc/elements/1.1/" xmlns:cc="http://creativecommons.org/ns#" xmlns:rdf="http://www.w3.org/1999/02/22-rdf-syntax-ns#" xmlns:svg="http://www.w3.org/2000/svg" xmlns="http://www.w3.org/2000/svg" xmlns:inkscape="http://www.inkscape.org/namespaces/inkscape" version="1.1" width="765" height="990" id="svg2" xml:space="preserve">
  <metadata id="metadata8">
    <rdf:RDF>
      <cc:Work rdf:about="">
        <dc:format>image/svg+xml</dc:format>
        <dc:type rdf:resource="http://purl.org/dc/dcmitype/StillImage"/>
      </cc:Work>
    </rdf:RDF>
  </metadata>
  <defs id="defs6"/>
  <g transform="matrix(1.25,0,0,-1.25,0,990)" id="g10">
    <g transform="scale(0.1,0.1)" id="g12">
      <path d="M 249.602,908.398 571.199,1216.8" inkscape:connector-curvature="0" id="path14" style="stroke:#000000;stroke-width:8;stroke-miterlimit:4;stroke-dasharray:none;fill:none;stroke-opacity:1"/>
      <path d="M 134.398,952.801 529.199,1329.6" inkscape:connector-curvature="0" id="path16" style="stroke:#000000;stroke-width:8;stroke-miterlimit:4;stroke-dasharray:none;fill:none;stroke-opacity:1"/>
      <path d="m 57.6016,1034.4 394.7964,378" inkscape:connector-curvature="0" id="path18" style="stroke:#000000;stroke-width:8;stroke-miterlimit:4;stroke-dasharray:none;fill:none;stroke-opacity:1"/>
      <path d="m 18,1150.8 315.602,300" inkscape:connector-curvature="0" id="path20" style="stroke:#000000;stroke-width:8;stroke-miterlimit:4;stroke-dasharray:none;fill:none;stroke-opacity:1"/>
      <path d="m 410.398,1434 -27.597,7.2 -26.403,9.6 -30,6 -28.796,0 -32.403,-3.6 -27.597,-2.4 -30,-9.6 -26.403,-9.6 -27.597,-12 -24,-18 -20.403,-16.8 L 90,1365.6 74.3984,1347.6 60,1324.8 43.1992,1293.6 36,1268.4 27.6016,1242 22.8008,1214.4 18,1182 l 0,-26.4 4.8008,-32.4 8.3984,-27.6 7.1992,-24 12,-27.6 7.2032,-14.4 9.5976,-12 25.1992,-27.6 23.9996,-24 22.801,-18 26.403,-15.602 30,-14.398 30,-7.199 24,-7.199 30,0 30,-2.403 34.796,4.801 24,4.801 28.801,13.199 30,14.398 20.403,9.602 21.597,20.398 22.801,19.204 21.602,21.598 18,27.6 16.796,25.2 12,24 7.204,30 3.597,26.4 4.801,32.4 -2.398,27.6 -2.403,31.2 -8.398,27.6 -9.602,24 -12,33.6 -16.801,24 -18,19.2 -19.199,25.2 -25.199,16.8 -24,16.8 -27.602,13.2" inkscape:connector-curvature="0" id="path22" style="stroke:#000000;stroke-width:8;stroke-miterlimit:4;stroke-dasharray:none;fill:none;stroke-opacity:1"/>
      <path d="M 91.1992,350.398 178.801,18 453.602,18 540,350.398 l -448.8008,0" inkscape:connector-curvature="0" id="path24" style="stroke:#000000;stroke-width:8;stroke-miterlimit:4;stroke-dasharray:none;fill:none;stroke-opacity:1"/>
      <path d="M 373.199,350.398 369.602,390 354,428.398 l -26.398,32.403 -30,24 L 264,510 l -19.199,24 -9.602,34.801 7.199,36 -2.398,36 -13.199,34.801 -21.602,28.796 -26.398,21.602 -30,21.602 -24,20.398 -14.403,16.801 0,-14.403 L 120,745.199 142.801,718.801 164.398,692.398 178.801,672 186,645.602 188.398,624 l -4.796,-31.199 -7.204,-24 0,-34.801 9.602,-24 24,-34.801 27.602,-26.398 24,-22.801 12,-21.602 L 276,385.199 276,366 271.199,350.398" inkscape:connector-curvature="0" id="path26" style="stroke:#000000;stroke-width:8;stroke-miterlimit:4;stroke-dasharray:none;fill:none;stroke-opacity:1"/>
      <path d="m 1898.4,657.602 33.6,3.597 36,7.199 27.6,15.602 24,15.602 40.8,43.199 38.4,44.398 36,49.199 18,38.403 13.2,31.199 18,56.398 6,67.202 -6,31.2 -18,36 -31.2,38.4 49.2,15.6 36,27.6 60,80.4 -42,-121.2 -27.6,-100.8 -6,-51.601 -7.2,-40.801 -13.2,-42 -12,-36 L 2150.4,834 2130,798 2103.6,769.199 2076,738 l -22.8,-25.199 -18,-18 L 2022,684 l 54,18 56.4,20.398 51.6,25.204 54,55.199 31.2,43.199 22.8,38.398 24,52.801 20.4,58.801 15.6,56.4 7.2,54 4.8,44.4 -4.8,46.8 -13.2,34.8 -43.2,60 -22.8,26.4 58.8,25.2 45.6,36 52.8,72 -31.2,-108 -31.2,-105.6 4.8,-72 -2.4,-55.2 -10.8,-52.8 -7.2,-50.4 -15.6,-43.199 -15.6,-38.403 -16.8,-39.597 -26.4,-48 -64.8,-80.403 51.6,28.801 49.2,31.199 54,45.602 54,51.602 36,57.597 18,54.001 13.2,58.8 -4.8,56.4 -8.4,24 -15.6,31.2 -20.4,22.8 49.2,25.2 46.8,36 58.8,78 -38.4,-114 -42,-116.4 -7.2,-40.8 -2.4,-30 -13.2,-50.4 -25.2,-61.199 -20.4,-31.199 -31.2,-33.602 -26.4,-25.199 -36,-31.199 -36,-25.204 -46.8,-28.796 -51.6,-31.204 -121.2,-48 -99.6,-34.796 -74.4,-12 -31.2,-6 0,15.597" inkscape:connector-curvature="0" id="path28" style="stroke:#000000;stroke-width:8;stroke-miterlimit:4;stroke-dasharray:none;fill:none;stroke-opacity:1"/>
      <path d="m 1076.4,230.398 -38.4,49.204 -48,48 -38.398,40.796 -40.801,44.403 -51.602,51.597 -51.597,38.403 -54,38.398 102,914.401 32.398,-9.6 34.801,-15.6 28.801,-22.8 28.796,-34.8 25.202,-42 13.2,-44.4 9.6,-38.4 9.6,-51.6 44.4,-1176.0016 -60,-3.5976 12,265.1992" inkscape:connector-curvature="0" id="path30" style="stroke:#000000;stroke-width:8;stroke-miterlimit:4;stroke-dasharray:none;fill:none;stroke-opacity:1"/>
      <path d="m 1526.4,230.398 -38.4,49.204 -48,48 -38.4,40.796 -42,44.403 -50.4,51.597 -51.6,38.403 -54,38.398 102,914.401 31.2,-9.6 36,-15.6 28.8,-22.8 27.6,-34.8 26.4,-42 13.2,-44.4 9.6,-38.4 9.6,-51.6 L 1532.4,20.3984 1471.2,16.8008 1484.4,282" inkscape:connector-curvature="0" id="path32" style="stroke:#000000;stroke-width:8;stroke-miterlimit:4;stroke-dasharray:none;fill:none;stroke-opacity:1"/>
      <path d="m 2281.2,186 -608.4,0 7.2,51.602 8.4,33.597 12,33.602 18,25.199 15.6,22.801 21.6,28.801 22.8,21.597 28.8,20.403 22.8,15.597 33.6,14.403 33.6,10.796 22.8,4.801 40.8,4.801 31.2,0 28.8,-4.801 31.2,-4.801 32.4,-8.398 24,-7.199 30,-20.403 26.4,-18 22.8,-18 21.6,-26.398 20.4,-27.602 16.8,-28.796 13.2,-25.204 10.8,-39.597 8.4,-27.602 2.4,-31.199" inkscape:connector-curvature="0" id="path34" style="stroke:#000000;stroke-width:8;stroke-miterlimit:4;stroke-dasharray:none;fill:none;stroke-opacity:1"/>
      <path d="M 2539.2,67.1992 2715.6,226.801 2880,67.1992" inkscape:connector-curvature="0" id="path36" style="stroke:#000000;stroke-width:8;stroke-miterlimit:4;stroke-dasharray:none;fill:none;stroke-opacity:1"/>
      <path d="m 2947.2,140.398 -154.8,156 165.6,157.204" inkscape:connector-curvature="0" id="path38" style="stroke:#000000;stroke-width:8;stroke-miterlimit:4;stroke-dasharray:none;fill:none;stroke-opacity:1"/>
      <path d="M 2886,534 2720.4,376.801 2556,547.199" inkscape:connector-curvature="0" id="path40" style="stroke:#000000;stroke-width:8;stroke-miterlimit:4;stroke-dasharray:none;fill:none;stroke-opacity:1"/>
      <path d="m 2484,477.602 159.6,-170.403 -170.4,-162" inkscape:connector-curvature="0" id="path42" style="stroke:#000000;stroke-width:8;stroke-miterlimit:4;stroke-dasharray:none;fill:none;stroke-opacity:1"/>
      <path d="m 2689.2,13.1992 73.2,2.4024 40.8,10.7968 36,15.6016 40.8,27.6016 31.2,28.7968 31.2,33.6016 20.4,33.602 20.4,36 10.8,36 4.8,42 0,40.796 -13.2,72 -15.6,38.403 -22.8,38.398 -26.4,36 -37.2,34.801 -31.2,20.398 -31.2,12 -28.8,10.801 -38.4,7.199 -38.4,2.403 -51.6,0 -40.8,-9.602 -39.6,-15.597 -36,-20.403 -33.6,-28.801 -30,-36 -28.8,-36 -13.2,-25.199 -10.8,-28.801 -9.6,-49.199 0,-46.801 4.8,-32.398 4.8,-37.199 13.2,-36 19.2,-40.801 30,-38.398 31.2,-28.8012 36,-28.8008 36,-16.8008 43.2,-15.5976 49.2,-8.4024" inkscape:connector-curvature="0" id="path44" style="stroke:#000000;stroke-width:8;stroke-miterlimit:4;stroke-dasharray:none;fill:none;stroke-opacity:1"/>
    </g>
  </g>
</svg>
