<?xml version="1.0" encoding="UTF-8"?>
<!-- Created with Inkscape (http://www.inkscape.org/) -->
<svg xmlns:dc="http://purl.org/dc/elements/1.1/" xmlns:cc="http://creativecommons.org/ns#" xmlns:rdf="http://www.w3.org/1999/02/22-rdf-syntax-ns#" xmlns:svg="http://www.w3.org/2000/svg" xmlns="http://www.w3.org/2000/svg" xmlns:inkscape="http://www.inkscape.org/namespaces/inkscape" version="1.1" width="765" height="990" id="svg2" xml:space="preserve">
  <metadata id="metadata8">
    <rdf:RDF>
      <cc:Work rdf:about="">
        <dc:format>image/svg+xml</dc:format>
        <dc:type rdf:resource="http://purl.org/dc/dcmitype/StillImage"/>
      </cc:Work>
    </rdf:RDF>
  </metadata>
  <defs id="defs6"/>
  <g transform="matrix(1.25,0,0,-1.25,0,990)" id="g10">
    <g transform="scale(0.1,0.1)" id="g12">
      <path d="m 807.602,778.801 0,659.999 -19.204,19.2 -42,12 -45.597,-8.4 -46.801,-22.8 -22.801,-26.4 -15.597,-22.8 -76.801,-181.2 -42,-87.6 -34.801,-61.2 -22.801,-43.2 -42,-42.002 -38.398,-31.199 -66,-33.597 L 228,886.801 170.398,871.199 139.199,862.801 116.398,855.602 98.3984,840 l -12,-30 3.6016,-15.602 12,-12 18,-3.597 687.602,0" inkscape:connector-curvature="0" id="path14" style="stroke:#000000;stroke-width:8;stroke-miterlimit:4;stroke-dasharray:none;fill:none;stroke-opacity:1"/>
      <path d="m 920.398,31.1992 -905.9996,0 10.8008,75.6018 12,50.398 19.1992,50.403 L 84,246 l 21.602,34.801 31.199,42 34.801,31.199 42,30 34.796,22.801 50.403,24 49.199,15.597 34.801,7.204 61.199,7.199 45.602,0 43.199,-7.199 45.597,-7.204 50.403,-12 33.597,-12 46.801,-31.199 38.403,-26.398 33.597,-26.403 L 812.398,300 843.602,256.801 870,216 l 19.199,-39.602 15.602,-57.597 12,-42.0002 3.597,-45.6016" inkscape:connector-curvature="0" id="path16" style="stroke:#000000;stroke-width:8;stroke-miterlimit:4;stroke-dasharray:none;fill:none;stroke-opacity:1"/>
      <path d="m 1387.2,1107.6 -44.4,-48 -48,-70.799 -26.4,-50.403 -13.2,-55.199 -9.6,-54 3.6,-40.801 6,-25.199 28.8,-10.801 36,16.801 51.6,44.403 69.6,69.597 86.4,51.602 73.2,32.398 90,15.602 88.8,9.597 57.6,9.602 32.4,15.6 28.8,26.4 15.6,54 0,48 -21.6,48 -44.4,22.8 -80.4,25.2 -109.2,19.2 -98.4,22.8 -86.4,31.2 -70.8,48 -44.4,45.6 -26.4,37.2 -21.6,20.4 -22.8,6 -15.6,-3.6 -9.6,-9.6 -13.2,-34.8 -6,-54 15.6,-84 9.6,-38.4 19.2,-37.2 38.4,-51.6 32.4,-32.4 28.8,-15.6" inkscape:connector-curvature="0" id="path18" style="stroke:#000000;stroke-width:8;stroke-miterlimit:4;stroke-dasharray:none;fill:none;stroke-opacity:1"/>
      <path d="m 1162.8,596.398 255.6,-574.7964 128.4,0 -255.6,574.7964 -128.4,0" inkscape:connector-curvature="0" id="path20" style="stroke:#000000;stroke-width:8;stroke-miterlimit:4;stroke-dasharray:none;fill:none;stroke-opacity:1"/>
      <path d="M 1549.2,596.398 1806,21.6016 l 127.2,0 -255.6,574.7964 -128.4,0" inkscape:connector-curvature="0" id="path22" style="stroke:#000000;stroke-width:8;stroke-miterlimit:4;stroke-dasharray:none;fill:none;stroke-opacity:1"/>
      <path d="m 2499.6,283.199 121.2,40.801 140.4,36 355.2,25.199 274.8,0 84,13.199 79.2,19.204 67.2,34.796 44.4,48 38.4,88.801 0,57.602 -3.6,58.801 -15.6,60 -38.4,57.597 -57.6,44.403 -67.2,28.796 -92.4,26.403 -88.8,12 -124.8,9.597 -132,-6 -223.2,-15.597 -36,2.398 -37.2,15.602 -13.2,26.398 -13.2,28.801 -15.6,76.8 -22.8,32.4 -40.8,28.8 -57.6,12 -32.4,-6 -32.4,-3.6 -18,-15.6 -16.8,-26.4 0,-19.2 13.2,-18 54,-32.4 42,-7.2 63.6,7.2 9.6,-38.402 32.4,-76.796 37.2,-28.801 76.8,-15.602 124.8,0 230.4,12 192,-15.597 70.8,-19.204 69.6,-25.199 48,-32.398 28.8,-28.801 22.8,-38.398 12,-42 0,-44.403 -6,-44.398 -25.2,-45.602 -32.4,-34.801 -57.6,-38.398 -67.2,-15.602 -217.2,-6 L 2914.8,433.199 2799.6,420 2688,398.398 2599.2,369.602 2528.4,331.199 2509.2,312 l -3.6,-22.801" inkscape:connector-curvature="0" id="path24" style="stroke:#000000;stroke-width:8;stroke-miterlimit:4;stroke-dasharray:none;fill:none;stroke-opacity:1"/>
      <path d="m 2605.2,1101.6 9.6,-13.2 15.6,6 -9.6,16.8 -15.6,-6" inkscape:connector-curvature="0" id="path26" style="stroke:#000000;stroke-width:8;stroke-miterlimit:4;stroke-dasharray:none;fill:none;stroke-opacity:1"/>
      <path d="m 2505.6,1002 9.6,3.6 3.6,12 -3.6,13.2 -9.6,7.2 -12,-3.6 -3.6,-16.8 15.6,-12" inkscape:connector-curvature="0" id="path28" style="stroke:#000000;stroke-width:8;stroke-miterlimit:4;stroke-dasharray:none;fill:none;stroke-opacity:1"/>
      <path d="m 2425.2,951.602 13.2,9.597 3.6,15.602 -13.2,12 -12,0 -7.2,-21.602 13.2,-13.199" inkscape:connector-curvature="0" id="path30" style="stroke:#000000;stroke-width:8;stroke-miterlimit:4;stroke-dasharray:none;fill:none;stroke-opacity:1"/>
      <path d="m 2361.6,890.398 9.6,9.602 3.6,19.199 -9.6,9.602 -12,-3.602 -7.2,-15.597 13.2,-9.602" inkscape:connector-curvature="0" id="path32" style="stroke:#000000;stroke-width:8;stroke-miterlimit:4;stroke-dasharray:none;fill:none;stroke-opacity:1"/>
      <path d="m 2301.6,832.801 12,0 9.6,22.801 -9.6,9.597 -19.2,-3.597 -6,-19.204 9.6,-7.199" inkscape:connector-curvature="0" id="path34" style="stroke:#000000;stroke-width:8;stroke-miterlimit:4;stroke-dasharray:none;fill:none;stroke-opacity:1"/>
      <path d="m 2265.6,763.199 13.2,6 0,15.602 -9.6,13.199 -19.2,-3.602 0,-19.199 13.2,-12" inkscape:connector-curvature="0" id="path36" style="stroke:#000000;stroke-width:8;stroke-miterlimit:4;stroke-dasharray:none;fill:none;stroke-opacity:1"/>
      <path d="m 2227.2,682.801 13.2,6 2.4,16.801 -6,8.398 -15.6,-2.398 -9.6,-16.801 15.6,-12" inkscape:connector-curvature="0" id="path38" style="stroke:#000000;stroke-width:8;stroke-miterlimit:4;stroke-dasharray:none;fill:none;stroke-opacity:1"/>
      <path d="m 2202,592.801 13.2,3.597 2.4,21.602 -9.6,13.199 -15.6,-2.398 -3.6,-16.801 16.8,-15.602" inkscape:connector-curvature="0" id="path40" style="stroke:#000000;stroke-width:8;stroke-miterlimit:4;stroke-dasharray:none;fill:none;stroke-opacity:1"/>
      <path d="m 2182.8,512.398 16.8,0 2.4,22.801 -13.2,13.199 -12,-7.199 -3.6,-15.597 13.2,-13.204" inkscape:connector-curvature="0" id="path42" style="stroke:#000000;stroke-width:8;stroke-miterlimit:4;stroke-dasharray:none;fill:none;stroke-opacity:1"/>
      <path d="m 2182.8,433.199 6,25.199 -9.6,9.602 -15.6,-6 -6,-19.199 21.6,-9.602" inkscape:connector-curvature="0" id="path44" style="stroke:#000000;stroke-width:8;stroke-miterlimit:4;stroke-dasharray:none;fill:none;stroke-opacity:1"/>
      <path d="m 2042.4,458.398 60,-172.796 145.2,0 46.8,176.398 -67.2,-67.199 -114,0 L 2046,462" inkscape:connector-curvature="0" id="path46" style="stroke:#000000;stroke-width:8;stroke-miterlimit:4;stroke-dasharray:none;fill:none;stroke-opacity:1"/>
      <path d="m 4742.4,1244.4 674.4,-123.6 -60,69.6 -28.8,70.8 0,38.4 12,44.4 36,45.6 25.2,31.2 15.6,19.2 -676.8,-121.2" inkscape:connector-curvature="0" id="path48" style="stroke:#000000;stroke-width:8;stroke-miterlimit:4;stroke-dasharray:none;fill:none;stroke-opacity:1"/>
      <path d="m 4538.4,1318.8 -678,121.2 40.8,-50.4 36,-45.6 6,-44.4 0,-38.4 -12,-57.6 -32.4,-32.4 -38.4,-50.4 678,121.2" inkscape:connector-curvature="0" id="path50" style="stroke:#000000;stroke-width:8;stroke-miterlimit:4;stroke-dasharray:none;fill:none;stroke-opacity:1"/>
      <path d="m 4538.4,1273.2 0,-60 25.2,-28.8 57.6,0 19.2,31.2 0,122.4 -19.2,44.4 -57.6,0 -25.2,-38.4 0,-70.8" inkscape:connector-curvature="0" id="path52" style="stroke:#000000;stroke-width:8;stroke-miterlimit:4;stroke-dasharray:none;fill:none;stroke-opacity:1"/>
      <path d="m 4640.4,1299.6 0,50.4 28.8,32.4 48,0 22.8,-32.4 0,-140.4 -22.8,-25.2 -51.6,0 -25.2,25.2 0,63.6" inkscape:connector-curvature="0" id="path54" style="stroke:#000000;stroke-width:8;stroke-miterlimit:4;stroke-dasharray:none;fill:none;stroke-opacity:1"/>
      <path d="m 4634.4,42 -753.6,0 9.6,63.602 9.6,42 15.6,40.796 22.8,32.403 19.2,28.801 25.2,34.796 28.8,26.403 34.8,25.199 28.8,19.199 42,19.199 40.8,13.204 28.8,6 51.6,6 38.4,0 34.8,-6 39.6,-6 40.8,-10.801 28.8,-8.403 38.4,-26.398 32.4,-22.801 28.8,-21.597 25.2,-32.403 25.2,-34.801 22.8,-34.796 15.6,-32.403 13.2,-48 L 4632,80.3984 4634.4,42" inkscape:connector-curvature="0" id="path56" style="stroke:#000000;stroke-width:8;stroke-miterlimit:4;stroke-dasharray:none;fill:none;stroke-opacity:1"/>
      <path d="m 5371.2,421.199 -3.6,9.602 -9.6,16.801 -4.8,8.398 -9.6,14.398 -7.2,12 -14.4,14.403 -4.8,9.597 -14.4,12 -12,9.602 -13.2,12 -9.6,6 -14.4,12 -12,8.398 -16.8,6 -9.6,7.204 -15.6,4.796 -14.4,4.801 -19.2,4.801 -9.6,4.801 -19.2,2.398 -13.2,2.403 -31.2,0 -14.4,-2.403 -12,-2.398 -14.4,-2.403 -10.8,-2.398 -14.4,-2.398 -12,-4.801 -21.6,-4.801 -12,-7.199 -15.6,-4.801 -12,-7.199 -14.4,-8.403 -12,-9.597 -12,-7.199 -12,-9.602 -13.2,-14.398 -12,-9.602 -7.2,-12 -7.2,-9.602 -12,-15.597 -4.8,-10.801 -12,-13.199 -7.2,-14.403 -3.6,-14.398 -3.6,-12 -6,-15.602 -4.8,-14.398 -3.6,-19.199 0,-14.403 -2.4,-24 0,-37.199 2.4,-14.398 6,-16.801 2.4,-13.199 3.6,-16.801 6,-12 8.4,-19.199 4.8,-14.403 12,-14.398 4.8,-9.602 9.6,-13.199 9.6,-10.801 12,-13.199 8.4,-9.5974 12,-12 L 4920,78 l 16.8,-10.8008 7.2,-6 12,-8.3984 13.2,-4.8008 19.2,-7.1992 14.4,-4.8008 16.8,-7.1992 9.6,-2.4024 16.8,-4.7968 13.2,0 19.2,-2.4024 9.6,0 21.6,-2.3984 14.4,2.3984 20.4,2.4024 9.6,2.3984 21.6,2.3984 12,4.8008 18,4.8008 12,4.8008 12,9.5976 14.4,4.8008 14.4,9.6016 12,8.3984 10.8,7.1992 12,9.6016 12,12 9.6,12 12,8.398 7.2,12 12,20.403 7.2,6 9.6,16.801 4.8,12 6,14.398 6,14.398 3.6,15.602 4.8,14.398 3.6,19.204 1.2,12 2.4,16.796 0,32.403 -2.4,16.801 -1.2,14.398 -6,16.801 -4.8,13.199 -3.6,14.398 -6,14.403" inkscape:connector-curvature="0" id="path58" style="stroke:#000000;stroke-width:8;stroke-miterlimit:4;stroke-dasharray:none;fill:none;stroke-opacity:1"/>
    </g>
  </g>
</svg>
