<?xml version="1.0" encoding="UTF-8"?>
<!-- Created with Inkscape (http://www.inkscape.org/) -->
<svg xmlns:dc="http://purl.org/dc/elements/1.1/" xmlns:cc="http://creativecommons.org/ns#" xmlns:rdf="http://www.w3.org/1999/02/22-rdf-syntax-ns#" xmlns:svg="http://www.w3.org/2000/svg" xmlns="http://www.w3.org/2000/svg" xmlns:inkscape="http://www.inkscape.org/namespaces/inkscape" version="1.1" width="765" height="990" id="svg2" xml:space="preserve">
  <metadata id="metadata8">
    <rdf:RDF>
      <cc:Work rdf:about="">
        <dc:format>image/svg+xml</dc:format>
        <dc:type rdf:resource="http://purl.org/dc/dcmitype/StillImage"/>
      </cc:Work>
    </rdf:RDF>
  </metadata>
  <defs id="defs6"/>
  <g transform="matrix(1.25,0,0,-1.25,0,990)" id="g10">
    <g transform="scale(0.1,0.1)" id="g12">
      <path d="m 734.398,1117.2 -72,7.2 -115.199,-7.2 -86.398,10.8 -25.199,-10.8 -20.403,-25.2 7.199,-46.8 32.403,-105.598 62.398,-102 L 721.199,594 826.801,494.398 979.199,352.801 1302,36 l 32.4,0 10.8,16.8008 -13.2,30 -139.2,315.5972 -19.2,60 L 1068,712.801 972,877.199 896.398,982.801 840,1058.4 l -45.602,72 -49.199,67.2 -60,68.4 -58.801,39.6 -16.796,69.6 -13.204,75.6 -19.199,49.2 -56.398,13.2 -92.403,0 -102,-2.4 L 276,1497.6 253.199,1490.4 85.1992,1467.6 36,1444.8 l -16.8008,-24 -3.5976,-45.6 20.3984,32.4 33.6016,16.8 98.3984,0 102,-3.6 52.801,-13.2 -43.199,52.8 -9.602,37.2" inkscape:connector-curvature="0" id="path14" style="stroke:#000000;stroke-width:8;stroke-miterlimit:4;stroke-dasharray:none;fill:none;stroke-opacity:1"/>
      <path d="m 379.199,1428 9.602,3.6 6,15.6 -6,16.8 -13.199,10.8 -13.204,-10.8 -3.597,-19.2 7.199,-10.8 9.602,-6" inkscape:connector-curvature="0" id="path16" style="stroke:#000000;stroke-width:8;stroke-miterlimit:4;stroke-dasharray:none;fill:none;stroke-opacity:1"/>
      <path d="m 32.3984,1394.4 131.9996,3.6 102,-13.2 30,-15.6 9.602,-33.6 3.602,-36 -30,-72 -13.204,-90 16.801,-108 13.199,-50.401 36,-98.398 43.204,-79.199 102,-175.204 L 613.199,369.602 626.398,270 609.602,102 592.801,86.3984 498,75.6016 l -112.801,3.5976 -6,-16.8008 -49.199,-6 -7.199,-10.7968 9.597,-13.2032 L 616.801,43.1992 909.602,30 l 13.199,13.1992 -6,15.6016 -46.801,0 -26.398,24 -168,3.5976 -20.403,13.2032 20.403,206.3984 121.199,-62.398 69.597,205.199 132,-330 45.602,-60.0002 46.8,-26.4024 69.6,0 39.6,13.2032 9.6,20.3984 -32.4,88.801" inkscape:connector-curvature="0" id="path18" style="stroke:#000000;stroke-width:8;stroke-miterlimit:4;stroke-dasharray:none;fill:none;stroke-opacity:1"/>
      <path d="M 358.801,824.398 402,583.199 398.398,398.398 366,211.199 l -30,-96 -19.199,-22.8006 -158.403,-9.5976 -16.796,-24 -36,-2.4024 L 92.3984,45.6016 105.602,32.3984 226.801,43.1992 264,39.6016" inkscape:connector-curvature="0" id="path20" style="stroke:#000000;stroke-width:8;stroke-miterlimit:4;stroke-dasharray:none;fill:none;stroke-opacity:1"/>
      <path d="m 381.602,79.1992 -55.204,-6 0,0 L 294,66 273.602,39.6016 286.801,32.3984 306,52.8008 l 20.398,3.5976" inkscape:connector-curvature="0" id="path22" style="stroke:#000000;stroke-width:8;stroke-miterlimit:4;stroke-dasharray:none;fill:none;stroke-opacity:1"/>
      <path d="m 379.199,82.8008 72,270.0002 112.801,-66 22.801,122.398" inkscape:connector-curvature="0" id="path24" style="stroke:#000000;stroke-width:8;stroke-miterlimit:4;stroke-dasharray:none;fill:none;stroke-opacity:1"/>
      <path d="m 147.602,79.1992 -51.602,-6 0,0 L 62.3984,66 42,39.6016 52.8008,32.3984 75.6016,52.8008 102,56.3984" inkscape:connector-curvature="0" id="path26" style="stroke:#000000;stroke-width:8;stroke-miterlimit:4;stroke-dasharray:none;fill:none;stroke-opacity:1"/>
      <path d="M 850.801,82.8008 913.199,75.6016 943.199,66 962.398,39.6016 952.801,32.3984 930,52.8008 913.199,56.3984" inkscape:connector-curvature="0" id="path28" style="stroke:#000000;stroke-width:8;stroke-miterlimit:4;stroke-dasharray:none;fill:none;stroke-opacity:1"/>
      <path d="m 2163.6,1107.6 -73.2,7.2 -115.2,-7.2 -85.2,9.6 -26.4,-9.6 -20.4,-26.4 7.2,-45.6 32.4,-105.6 63.6,-102 204,-244.801 105.6,-98.398 151.2,-141.602 322.8,-316.8006 33.6,0 9.6,16.8008 L 2760,72 l -138,316.801 -20.4,60 L 2496,702 l -94.8,165.602 -75.6,105.597 -56.4,75.601 -46.8,72 -49.2,66 -58.8,69.6 -60,39.6 -16.8,69.6 -13.2,75.6 -19.2,49.2 -56.4,13.2 -92.4,0 -102,-3.6 -49.2,-12 -22.8,-7.2 -168,-22.8 -49.2,-24 -16.8,-22.8 -3.6,-45.6 20.4,32.4 32.4,16.8 98.4,0 103.2,-3.6 51.6,-13.2 -42,52.8 -9.6,37.2" inkscape:connector-curvature="0" id="path30" style="stroke:#000000;stroke-width:8;stroke-miterlimit:4;stroke-dasharray:none;fill:none;stroke-opacity:1"/>
      <path d="m 1807.2,1418.4 10.8,2.4 6,16.8 -6,16.8 -13.2,9.6 -14.4,-9.6 -2.4,-20.4 6,-9.6 10.8,-6" inkscape:connector-curvature="0" id="path32" style="stroke:#000000;stroke-width:8;stroke-miterlimit:4;stroke-dasharray:none;fill:none;stroke-opacity:1"/>
      <path d="m 1460.4,1384.8 133.2,3.6 102,-13.2 30,-16.8 9.6,-32.4 3.6,-36 -30,-73.2 -13.2,-88.8 16.8,-109.2 13.2,-49.198 36,-99.602 43.2,-79.199 100.8,-174 L 2041.2,360 2054.4,260.398 2037.6,92.3984 2022,75.6016 1926,66 l -112.8,3.6016 -6,-16.8008 -49.2,-7.1992 -7.2,-9.6016 10.8,-13.1992 283.2,9.5976 294,-12 12,12 -6,16.8008 -45.6,0 -27.6,22.8008 -168,3.6016 -19.2,13.1992 19.2,207.5972 L 2226,234 l 69.6,204 132,-330 45.6,-58.8008 45.6,-26.3984 69.6,0 L 2628,36 l 9.6,20.3984 -32.4,88.8006" inkscape:connector-curvature="0" id="path34" style="stroke:#000000;stroke-width:8;stroke-miterlimit:4;stroke-dasharray:none;fill:none;stroke-opacity:1"/>
      <path d="M 1788,814.801 1831.2,573.602 1827.6,388.801 1794,200.398 1764,105.602 1744.8,82.8008 1586.4,72 1570.8,49.1992 1533.6,45.6016 1520.4,36 1533.6,22.8008 1656,32.3984 1692,30" inkscape:connector-curvature="0" id="path36" style="stroke:#000000;stroke-width:8;stroke-miterlimit:4;stroke-dasharray:none;fill:none;stroke-opacity:1"/>
      <path d="m 1810.8,69.6016 -56.4,-7.2032 0,0 -32.4,-6 L 1701.6,30 l 13.2,-7.1992 20.4,20.3984 19.2,2.4024" inkscape:connector-curvature="0" id="path38" style="stroke:#000000;stroke-width:8;stroke-miterlimit:4;stroke-dasharray:none;fill:none;stroke-opacity:1"/>
      <path d="m 1807.2,72 73.2,271.199 111.6,-66 24,121.199" inkscape:connector-curvature="0" id="path40" style="stroke:#000000;stroke-width:8;stroke-miterlimit:4;stroke-dasharray:none;fill:none;stroke-opacity:1"/>
      <path d="m 1576.8,69.6016 -52.8,-7.2032 0,0 -33.6,-6 L 1471.2,30 l 9.6,-7.1992 22.8,20.3984 26.4,2.4024" inkscape:connector-curvature="0" id="path42" style="stroke:#000000;stroke-width:8;stroke-miterlimit:4;stroke-dasharray:none;fill:none;stroke-opacity:1"/>
      <path d="m 2278.8,72 62.4,-6 30,-9.6016 19.2,-26.3984 -9.6,-7.1992 -22.8,20.3984 -16.8,2.4024" inkscape:connector-curvature="0" id="path44" style="stroke:#000000;stroke-width:8;stroke-miterlimit:4;stroke-dasharray:none;fill:none;stroke-opacity:1"/>
      <path d="m 3670.8,1117.2 -777.6,0 9.6,66 10.8,43.2 15.6,43.2 24,32.4 19.2,30 26.4,36 30,26.4 36,26.4 30,19.2 43.2,20.4 42,13.2 30,7.2 52.8,6 39.6,0 36,-6 39.6,-7.2 43.2,-9.6 28.8,-10.8 40.8,-25.2 32.4,-24 30,-22.8 25.2,-33.6 27.6,-36 22.8,-36 16.8,-32.4 12,-50.4 10.8,-36 2.4,-39.6" inkscape:connector-curvature="0" id="path46" style="stroke:#000000;stroke-width:8;stroke-miterlimit:4;stroke-dasharray:none;fill:none;stroke-opacity:1"/>
      <path d="M 3006,661.199 2989.2,642 l -9.6,-26.398 -6,-26.403 0,-62.398 2.4,-37.199 7.2,-39.602 6,-28.801 10.8,-37.199 16.8,-45.602 15.6,-46.796 43.2,-72 L 3102,187.199 3134.4,144 3174,111.602 3210,84 3243.6,61.1992 3277.2,48 l 32.4,-9.6016 32.4,-7.1992 30,-6 60,0 25.2,9.6016 26.4,9.5976 27.6,13.2032 26.4,13.1992 22.8,20.3984 15.6,20.4028 16.8,19.199 10.8,26.398 15.6,30 3.6,22.801 7.2,32.398 -3.6,30 -3.6,32.403 -10.8,30 -12,32.398 -16.8,33.602 -22.8,36 -26.4,33.597 -26.4,30 -30,28.801 -30,26.403 -36,22.796 -36,27.602 -49.2,26.398 -37.2,19.204 -42,13.199 -46.8,13.199 -39.6,9.602 -36,3.597 -26.4,0 -30,-3.597 -15.6,-3.602 -20.4,-2.398 -26.4,-20.403" inkscape:connector-curvature="0" id="path48" style="stroke:#000000;stroke-width:8;stroke-miterlimit:4;stroke-dasharray:none;fill:none;stroke-opacity:1"/>
    </g>
  </g>
</svg>
