<?xml version="1.0" encoding="UTF-8"?>
<!-- Created with Inkscape (http://www.inkscape.org/) -->
<svg xmlns:dc="http://purl.org/dc/elements/1.1/" xmlns:cc="http://creativecommons.org/ns#" xmlns:rdf="http://www.w3.org/1999/02/22-rdf-syntax-ns#" xmlns:svg="http://www.w3.org/2000/svg" xmlns="http://www.w3.org/2000/svg" xmlns:inkscape="http://www.inkscape.org/namespaces/inkscape" version="1.1" width="765" height="990" id="svg2" xml:space="preserve">
  <metadata id="metadata8">
    <rdf:RDF>
      <cc:Work rdf:about="">
        <dc:format>image/svg+xml</dc:format>
        <dc:type rdf:resource="http://purl.org/dc/dcmitype/StillImage"/>
      </cc:Work>
    </rdf:RDF>
  </metadata>
  <defs id="defs6"/>
  <g transform="matrix(1.25,0,0,-1.25,0,990)" id="g10">
    <g transform="scale(0.1,0.1)" id="g12">
      <path d="m 1080,877.199 0,-860.3982 67.2,0 0,860.3982" inkscape:connector-curvature="0" id="path14" style="stroke:#000000;stroke-width:8;stroke-miterlimit:4;stroke-dasharray:none;fill:none;stroke-opacity:1"/>
      <path d="m 753.602,880.801 718.798,0 0,226.799 -13.2,25.2 -12,15.6 -31.2,0 -20.4,-3.6 -19.2,-12 -63.6,-57.6 -57.6,-51.6 -44.4,-21.6 -54,-13.199 -45.6,-3.602 -40.8,3.602 -54,13.199 -45.599,21.6 -57.602,51.6 -63.597,57.6 -19.204,12 -19.199,3.6 -32.398,0 -13.199,-15.6 -12,-25.2 0,-226.799" inkscape:connector-curvature="0" id="path16" style="stroke:#000000;stroke-width:8;stroke-miterlimit:4;stroke-dasharray:none;fill:none;stroke-opacity:1"/>
      <path d="m 1245.6,1023.6 -57.6,378 -25.2,31.2 -19.2,13.2 -25.2,9.6 -9.6,0 -26.4,-9.6 -18,-13.2 -26.4,-31.2 -57.602,-378" inkscape:connector-curvature="0" id="path18" style="stroke:#000000;stroke-width:8;stroke-miterlimit:4;stroke-dasharray:none;fill:none;stroke-opacity:1"/>
      <path d="M 2355.6,1009.2 2574,735.602 2618.4,666 l 34.8,-61.199 24,-66 21.6,-82.801 7.2,-80.398 -15.6,-81.602 -9.6,-30 -16.8,-26.398 -13.2,-19.204 -18,-19.199 -25.2,-18 -50.4,-7.199 -55.2,4.801 -30,8.398 -26.4,18 -21.6,24 -13.2,24 -18,40.801 -8.4,36 -8.4,56.398 6,52.801 13.2,67.199 21.6,61.204 34.8,78 50.4,76.796 220.8,290.402" inkscape:connector-curvature="0" id="path20" style="stroke:#000000;stroke-width:8;stroke-miterlimit:4;stroke-dasharray:none;fill:none;stroke-opacity:1"/>
      <path d="m 14.3984,1414.8 0,-294 105.6016,12 159.602,-6 130.796,-19.2 134.403,-38.4" inkscape:connector-curvature="0" id="path22" style="stroke:#000000;stroke-width:8;stroke-miterlimit:4;stroke-dasharray:none;fill:none;stroke-opacity:1"/>
      <path d="m 544.801,1455.6 0,-1438.7992 67.199,0 0,1438.7992 -67.199,0 -134.403,-32.4 -130.796,-12 L 120,1404 14.3984,1414.8" inkscape:connector-curvature="0" id="path24" style="stroke:#000000;stroke-width:8;stroke-miterlimit:4;stroke-dasharray:none;fill:none;stroke-opacity:1"/>
      <path d="m 1578,1449.6 0,-1438.7992 649.2,0 0,1438.7992 -649.2,0" inkscape:connector-curvature="0" id="path26" style="stroke:#000000;stroke-width:8;stroke-miterlimit:4;stroke-dasharray:none;fill:none;stroke-opacity:1"/>
      <path d="m 1578,10.8008 649.199,0 0,1438.8 -649.199,0 0,-1438.8 z" inkscape:connector-curvature="0" id="path28" style="stroke:#000000;stroke-width:8;stroke-miterlimit:4;stroke-dasharray:none;fill:none;stroke-opacity:1"/>
    </g>
  </g>
</svg>
