<?xml version="1.0" encoding="UTF-8"?>
<!-- Created with Inkscape (http://www.inkscape.org/) -->
<svg xmlns:dc="http://purl.org/dc/elements/1.1/" xmlns:cc="http://creativecommons.org/ns#" xmlns:rdf="http://www.w3.org/1999/02/22-rdf-syntax-ns#" xmlns:svg="http://www.w3.org/2000/svg" xmlns="http://www.w3.org/2000/svg" xmlns:inkscape="http://www.inkscape.org/namespaces/inkscape" version="1.1" width="765" height="990" id="svg2" xml:space="preserve">
  <metadata id="metadata8">
    <rdf:RDF>
      <cc:Work rdf:about="">
        <dc:format>image/svg+xml</dc:format>
        <dc:type rdf:resource="http://purl.org/dc/dcmitype/StillImage"/>
      </cc:Work>
    </rdf:RDF>
  </metadata>
  <defs id="defs6"/>
  <g transform="matrix(1.25,0,0,-1.25,0,990)" id="g10">
    <g transform="scale(0.1,0.1)" id="g12">
      <path d="M 604.801,31.1992 576,32.3984 l -30,6 -24,13.2032 -18,13.1992 -34.801,36.0002 -32.398,37.199 -30,40.801 L 392.398,210 381.602,236.398 366,283.199 362.398,339.602 366,366 l 15.602,28.801 25.199,32.398 -40.801,13.199 -30,24 -49.199,66 34.801,-100.796 22.796,-84 4.801,-43.204 7.199,-33.597 L 366,234 l 10.801,-30 16.801,-27.602 18,-30 21.597,-24 L 456,97.1992 475.199,75.6016 490.801,60 501.602,51.6016 456,67.1992 409.199,84 366,105.602 321.602,150 295.199,187.199 276,219.602 256.801,262.801 240,312 l -13.199,46.801 -6,44.398 -4.801,37.199 4.801,38.403 10.801,30 36,49.199 19.199,21.602 -49.199,21.597 -38.403,30 -43.199,60 25.199,-90 26.403,-87.597 L 204,452.398 205.199,408 l 9.602,-45.602 6,-39.597 L 234,285.602 246,253.199 261.602,220.801 283.199,180 336,114 l -42,24 -40.801,25.199 -45.597,39.602 -45.602,42 -30,48 -14.398,44.398 -10.801,49.199 4.801,46.801 6,19.199 13.199,26.403 16.801,19.199 -40.801,21.602 -38.4026,30 -49.1992,64.796 32.4024,-94.796 33.5976,-97.204 7.1992,-33.597 2.4024,-26.403 L 105.602,322.801 126,270 l 18,-25.199 25.199,-27.602 21.602,-21.597 30,-25.204 30,-21.597 38.398,-24 43.199,-25.1994 100.801,-42 82.801,-26.4024 62.398,-10.8008 26.403,-4.7968 0,12" inkscape:connector-curvature="0" id="path14" style="stroke:#000000;stroke-width:8;stroke-miterlimit:4;stroke-dasharray:none;fill:none;stroke-opacity:1"/>
      <path d="m 1204.8,126 256.8,247.199" inkscape:connector-curvature="0" id="path16" style="stroke:#000000;stroke-width:8;stroke-miterlimit:4;stroke-dasharray:none;fill:none;stroke-opacity:1"/>
      <path d="M 1111.2,162 1428,464.398" inkscape:connector-curvature="0" id="path18" style="stroke:#000000;stroke-width:8;stroke-miterlimit:4;stroke-dasharray:none;fill:none;stroke-opacity:1"/>
      <path d="m 1050,226.801 316.8,303.597" inkscape:connector-curvature="0" id="path20" style="stroke:#000000;stroke-width:8;stroke-miterlimit:4;stroke-dasharray:none;fill:none;stroke-opacity:1"/>
      <path d="M 1018.8,320.398 1272,561.602" inkscape:connector-curvature="0" id="path22" style="stroke:#000000;stroke-width:8;stroke-miterlimit:4;stroke-dasharray:none;fill:none;stroke-opacity:1"/>
      <path d="m 1333.2,548.398 -21.6,6 -21.6,7.204 -24,4.796 -24,0 -26.4,-2.398 -21.6,-2.398 -24,-7.204 -21.6,-8.398 -21.6,-9.602 -19.2,-14.398 -16.8,-13.199 -15.6,-15.602 -12,-14.398 -10.8,-18 -14.4,-25.199 -6,-20.403 -6,-21.597 -3.6,-21.602 -3.6,-26.398 0,-21.602 3.6,-25.199 6,-21.602 6,-20.398 9.6,-21.602 6,-12 7.2,-9.597 20.4,-22.801 20.4,-19.199 16.8,-14.403 21.6,-12 24,-12 24,-4.801 20.4,-6 22.8,0 24,-2.398 27.6,4.801 20.4,3.597 24,9.602 24,12 15.6,7.199 18,16.801 16.8,15.602 18,18 14.4,21.597 13.2,19.199 10.8,20.403 6,24 1.2,21.597 3.6,25.204 -1.2,21.597 -2.4,26.403 -6,21.597 -8.4,20.403 -8.4,25.199 -14.4,20.398 -14.4,15.602 -15.6,19.199 -19.2,14.398 -20.4,14.403 -21.6,9.597" inkscape:connector-curvature="0" id="path24" style="stroke:#000000;stroke-width:8;stroke-miterlimit:4;stroke-dasharray:none;fill:none;stroke-opacity:1"/>
      <path d="m 590.398,728.398 146.403,0 -2.403,54 15.602,70.801 14.398,42 28.801,66 135.602,237.601 7.199,51.6 1.199,24 -3.597,44.4 -7.204,28.8 -13.199,36 -21.597,34.8 -16.801,20.4 -44.403,40.8 -34.796,13.2 -69.602,7.2 -60,-7.2 -24,-10.8 -30,-19.2 -26.398,-28.8 -12,-18 -12,-14.4" inkscape:connector-curvature="0" id="path26" style="stroke:#000000;stroke-width:8;stroke-miterlimit:4;stroke-dasharray:none;fill:none;stroke-opacity:1"/>
      <path d="M 554.398,1399.2 531.602,1389.6 292.801,1342.8 270,1326 l -16.801,-12 -14.398,-27.6 -4.801,-39.6 2.398,-9.6 6,-3.6 6,0 12,3.6 4.801,22.8 14.403,21.6 22.796,19.2 24,7.2 32.403,10.8 198,26.4 4.801,2.4 28.796,-4.8" inkscape:connector-curvature="0" id="path28" style="stroke:#000000;stroke-width:8;stroke-miterlimit:4;stroke-dasharray:none;fill:none;stroke-opacity:1"/>
      <path d="m 556.801,1399.2 33.597,-58.8 0,-32.4" inkscape:connector-curvature="0" id="path30" style="stroke:#000000;stroke-width:8;stroke-miterlimit:4;stroke-dasharray:none;fill:none;stroke-opacity:1"/>
      <path d="m 270,1262.4 22.801,14.4 36,9.6 94.801,9.6 96,12 73.199,0 19.199,-2.4 39.602,-9.6 68.398,-12 37.199,-2.4 26.403,2.4 30,7.2 16.796,-9.6 7.204,-12 2.398,-30 -2.398,-24 -12,-30 -108,-141.6 -52.801,-85.199 -22.801,-44.403 -27.602,-51.597 -13.199,-66 -10.801,-68.403" inkscape:connector-curvature="0" id="path32" style="stroke:#000000;stroke-width:8;stroke-miterlimit:4;stroke-dasharray:none;fill:none;stroke-opacity:1"/>
      <path d="m 800.398,1489.2 128.403,-45.6 124.799,-32.4 50.4,-9.6 44.4,-2.4 54,0 58.8,2.4 43.2,9.6 44.4,9.6 4.8,-4.8 -4.8,-16.8 -16.8,-12 -58.8,-12 -58.8,-8.4 -66,0 -56.4,6 -94.801,16.8 -54,16.8" inkscape:connector-curvature="0" id="path34" style="stroke:#000000;stroke-width:8;stroke-miterlimit:4;stroke-dasharray:none;fill:none;stroke-opacity:1"/>
      <path d="m 874.801,1443.6 94.801,-51.6 95.998,-49.2 57.6,-28.8 44.4,-18 49.2,-12 34.8,-4.8 63.6,-7.2 26.4,4.8 12,2.4 9.6,-7.2 2.4,-14.4 -36,-13.2 -44.4,-4.8 -48,7.2 -69.6,15.6 -58.8,19.2 -55.2,26.4 -137.998,79.2" inkscape:connector-curvature="0" id="path36" style="stroke:#000000;stroke-width:8;stroke-miterlimit:4;stroke-dasharray:none;fill:none;stroke-opacity:1"/>
      <path d="m 668.398,1428 -14.398,-2.4 -12,-14.4 0,-16.8 12,-12 16.801,0 18,7.2 2.398,9.6 -4.801,14.4 -13.199,14.4" inkscape:connector-curvature="0" id="path38" style="stroke:#000000;stroke-width:8;stroke-miterlimit:4;stroke-dasharray:none;fill:none;stroke-opacity:1"/>
      <path d="m 1833.6,427.199 0,-339.5974 73.2,0 0,339.5974 -73.2,0" inkscape:connector-curvature="0" id="path40" style="stroke:#000000;stroke-width:8;stroke-miterlimit:4;stroke-dasharray:none;fill:none;stroke-opacity:1"/>
      <path d="m 1833.6,934.801 0,-343.199 73.2,0 0,343.199 -73.2,0" inkscape:connector-curvature="0" id="path42" style="stroke:#000000;stroke-width:8;stroke-miterlimit:4;stroke-dasharray:none;fill:none;stroke-opacity:1"/>
      <path d="m 1833.6,1423.2 0,-343.2 73.2,0 0,343.2 -73.2,0" inkscape:connector-curvature="0" id="path44" style="stroke:#000000;stroke-width:8;stroke-miterlimit:4;stroke-dasharray:none;fill:none;stroke-opacity:1"/>
    </g>
  </g>
</svg>
