<?xml version="1.0" encoding="UTF-8"?>
<!-- Created with Inkscape (http://www.inkscape.org/) -->
<svg xmlns:dc="http://purl.org/dc/elements/1.1/" xmlns:cc="http://creativecommons.org/ns#" xmlns:rdf="http://www.w3.org/1999/02/22-rdf-syntax-ns#" xmlns:svg="http://www.w3.org/2000/svg" xmlns="http://www.w3.org/2000/svg" xmlns:inkscape="http://www.inkscape.org/namespaces/inkscape" version="1.1" width="765" height="990" id="svg2" xml:space="preserve">
  <metadata id="metadata8">
    <rdf:RDF>
      <cc:Work rdf:about="">
        <dc:format>image/svg+xml</dc:format>
        <dc:type rdf:resource="http://purl.org/dc/dcmitype/StillImage"/>
      </cc:Work>
    </rdf:RDF>
  </metadata>
  <defs id="defs6"/>
  <g transform="matrix(1.25,0,0,-1.25,0,990)" id="g10">
    <g transform="scale(0.1,0.1)" id="g12">
      <path d="m 1204.8,1106.4 -73.2,7.2 -115.2,-7.2 -85.201,10.8 -26.398,-10.8 -20.403,-26.4 7.204,-45.6 L 924,928.801 987.602,826.801 1191.6,583.199 1297.2,483.602 1448.4,342 1771.2,25.1992 l 33.6,0 9.6,16.8008 -13.2,28.8008 -138,316.8012 -20.4,60 -105.6,254.398 -96,164.398 -75.6,105.602 -55.2,75.6 -46.8,72 -49.2,66 -58.8,69.6 -60,39.6 -16.8,69.6 -13.2,75.6 -19.2,49.2 -56.4,13.2 -92.398,0 -102,-2.4 -49.204,-13.2 -22.796,-7.2 -168,-22.8 -49.204,-22.8 -18,-24 -2.398,-45.6 20.398,32.4 32.403,16.8 98.398,0 103.199,-3.6 51.602,-13.2 -43.199,52.8 -8.403,37.2" inkscape:connector-curvature="0" id="path14" style="stroke:#000000;stroke-width:8;stroke-miterlimit:4;stroke-dasharray:none;fill:none;stroke-opacity:1"/>
      <path d="m 848.398,1417.2 9.602,3.6 7.199,15.6 -7.199,16.8 -12,10.8 -14.398,-10.8 -2.403,-19.2 6,-10.8 10.801,-6" inkscape:connector-curvature="0" id="path16" style="stroke:#000000;stroke-width:8;stroke-miterlimit:4;stroke-dasharray:none;fill:none;stroke-opacity:1"/>
      <path d="m 501.602,1383.6 133.199,3.6 102,-13.2 28.801,-15.6 10.796,-33.6 2.403,-36 -30,-73.2 -12,-88.8 16.801,-109.2 12,-49.202 L 802.801,870 846,789.602 l 100.801,-174 135.599,-256.801 13.2,-99.602 -16.8,-167.9998 -15.6,-16.8008 -96.001,-9.5976 -112.801,3.5976 -6,-16.7968 L 799.199,44.3984 792,34.8008 802.801,21.6016 1086,32.3984 1378.8,19.1992 1392,32.3984 1386,48 l -45.6,0 -27.6,22.8008 -168,3.5976 -19.2,13.2032 19.2,207.5974 122.4,-62.398 68.4,204 133.2,-328.801 45.6,-60 45.6,-26.3984 69.6,0 39.6,13.1992 9.6,20.3984 L 1646.4,144" inkscape:connector-curvature="0" id="path18" style="stroke:#000000;stroke-width:8;stroke-miterlimit:4;stroke-dasharray:none;fill:none;stroke-opacity:1"/>
      <path d="m 829.199,813.602 42,-241.204 -2.398,-184.796 -33.602,-187.204 -30,-96 L 786,81.6016 627.602,70.8008 610.801,48 l -36,-3.6016 -13.199,-9.5976 13.199,-13.1992 122.398,10.7968 36,-3.5976" inkscape:connector-curvature="0" id="path20" style="stroke:#000000;stroke-width:8;stroke-miterlimit:4;stroke-dasharray:none;fill:none;stroke-opacity:1"/>
      <path d="m 852,68.3984 -56.398,-6 0,0 L 763.199,55.1992 742.801,28.8008 756,21.6016 776.398,42 l 19.204,2.3984" inkscape:connector-curvature="0" id="path22" style="stroke:#000000;stroke-width:8;stroke-miterlimit:4;stroke-dasharray:none;fill:none;stroke-opacity:1"/>
      <path d="M 848.398,70.8008 921.602,342 1033.2,276 1056,398.398" inkscape:connector-curvature="0" id="path24" style="stroke:#000000;stroke-width:8;stroke-miterlimit:4;stroke-dasharray:none;fill:none;stroke-opacity:1"/>
      <path d="m 618,68.3984 -52.801,-6 0,0 L 531.602,55.1992 512.398,28.8008 522,21.6016 544.801,42 l 26.398,2.3984" inkscape:connector-curvature="0" id="path26" style="stroke:#000000;stroke-width:8;stroke-miterlimit:4;stroke-dasharray:none;fill:none;stroke-opacity:1"/>
      <path d="m 1320,70.8008 62.4,-6 30,-9.6016 19.2,-26.3984 -9.6,-7.1992 -22.8,20.3984 -16.8,2.3984" inkscape:connector-curvature="0" id="path28" style="stroke:#000000;stroke-width:8;stroke-miterlimit:4;stroke-dasharray:none;fill:none;stroke-opacity:1"/>
      <path d="m 349.199,240 -39.597,49.199 -49.204,49.199 -39.597,43.204 -43.199,46.796 L 124.801,480 72,519.602 16.8008,559.199 122.398,1502.4 l 32.403,-9.6 36,-15.6 30,-24 30,-36 26.398,-43.2 13.199,-45.6 L 300,1288.8 309.602,1236 356.398,21.6016 294,19.1992 307.199,292.801" inkscape:connector-curvature="0" id="path30" style="stroke:#000000;stroke-width:8;stroke-miterlimit:4;stroke-dasharray:none;fill:none;stroke-opacity:1"/>
      <path d="m 2512.8,667.199 -778.8,0 10.8,66 9.6,42 16.8,43.199 22.8,33.602 19.2,28.801 26.4,37.199 30,26.398 36,26.403 30,19.199 43.2,20.4 42,13.2 30,6 52.8,7.2 39.6,0 36,-7.2 39.6,-6 43.2,-10.8 28.8,-9.6 40.8,-26.399 32.4,-22.801 30,-22.801 26.4,-33.597 26.4,-36 22.8,-36 16.8,-33.602 13.2,-49.199 9.6,-36 3.6,-39.602" inkscape:connector-curvature="0" id="path32" style="stroke:#000000;stroke-width:8;stroke-miterlimit:4;stroke-dasharray:none;fill:none;stroke-opacity:1"/>
      <path d="m 3051.6,1117.2 -9.6,-46.8 -39.6,-15.6 -36,-33.6 -9.6,-28.802 3.6,-33.597 19.2,-43.199 49.2,-66 79.2,-79.204 213.6,-132 L 3438,576 l 94.8,-39.602 56.4,-36 36,-22.796 76.8,-79.204 9.6,-3.597 0,39.597 -32.4,128.403 -50.4,198 -42,168 -56.4,139.199 -56.4,94.8 -46.8,62.4 -51.6,46.8 -39.6,22.8 -66,13.2 -49.2,-3.6 -54,-19.2 -124.8,-105.6 -52.8,-39.6 -28.8,-9.6 -27.6,6 -13.2,30 13.2,43.2 43.2,56.4 39.6,58.8 16.8,52.8 3.6,49.2 -16.8,37.2 -32.4,25.2 -39.6,13.2 -37.2,-6 -39.6,-13.2 -22.8,-16.8 -20.4,-13.2 -8.4,-19.2 -14.4,-33.6 7.2,-36 13.2,-13.2 16.8,-13.2 13.2,-16.8 2.4,-19.2 -2.4,-30 -86.4,-158.4 -13.2,-52.8 0,-49.2 16.8,-49.202 32.4,-33.597 122.4,-79.199 22.8,-32.403 92.4,-118.801 30,-36 39.6,-37.199 105.6,-49.199 13.2,-3.602 13.2,-45.597 72,-105.602 10.8,-22.801 6,-26.398 32.4,-241.199 -2.4,-26.403 -7.2,-13.1988 L 3336,87.6016 3217.2,78 3144,70.8008 3121.2,57.6016 3117.6,34.8008 3138,21.6016" inkscape:connector-curvature="0" id="path34" style="stroke:#000000;stroke-width:8;stroke-miterlimit:4;stroke-dasharray:none;fill:none;stroke-opacity:1"/>
      <path d="m 3134.4,68.3984 -26.4,-10.7968 -13.2,-13.2032 -3.6,-22.7968 26.4,10.7968" inkscape:connector-curvature="0" id="path36" style="stroke:#000000;stroke-width:8;stroke-miterlimit:4;stroke-dasharray:none;fill:none;stroke-opacity:1"/>
      <path d="m 3194.4,57.6016 -30,-2.4024 -13.2,-16.8008 -3.6,-13.1992 30,3.6016" inkscape:connector-curvature="0" id="path38" style="stroke:#000000;stroke-width:8;stroke-miterlimit:4;stroke-dasharray:none;fill:none;stroke-opacity:1"/>
      <path d="m 3266.4,70.8008 -52.8,-6 -33.6,-13.1992 0,-19.2032 16.8,-10.7968 33.6,3.5976 147.6,13.1992 118.8,-16.7968 16.8,3.5976 0,19.1992 -7.2,18 -79.2,19.2032 -8.4,9.5976 -20.4,226.8008 3.6,43.199 -10.8,33.602 -19.2,56.398 -9.6,118.801" inkscape:connector-curvature="0" id="path40" style="stroke:#000000;stroke-width:8;stroke-miterlimit:4;stroke-dasharray:none;fill:none;stroke-opacity:1"/>
      <path d="m 3364.8,534 66,-18 86.4,-9.602 58.8,0" inkscape:connector-curvature="0" id="path42" style="stroke:#000000;stroke-width:8;stroke-miterlimit:4;stroke-dasharray:none;fill:none;stroke-opacity:1"/>
      <path d="m 3513.6,55.1992 16.8,-3.5976 13.2,-13.2032 2.4,-13.1992 -28.8,7.1992" inkscape:connector-curvature="0" id="path44" style="stroke:#000000;stroke-width:8;stroke-miterlimit:4;stroke-dasharray:none;fill:none;stroke-opacity:1"/>
      <path d="m 3102,632.398 26.4,-211.199 -3.6,-30 -156,-283.199 -8.4,-13.1992 -16.8,-3.6016 -198,-20.3984 -16.8,-6 0,-7.1992 -19.2,-2.4024 L 2700,48 l -3.6,-15.6016 -3.6,-13.1992 26.4,19.1992 7.2,-13.1992 25.2,0" inkscape:connector-curvature="0" id="path46" style="stroke:#000000;stroke-width:8;stroke-miterlimit:4;stroke-dasharray:none;fill:none;stroke-opacity:1"/>
      <path d="M 2788.8,55.1992 2762.4,48 l -10.8,-13.1992 7.2,-13.1992 32.4,10.7968" inkscape:connector-curvature="0" id="path48" style="stroke:#000000;stroke-width:8;stroke-miterlimit:4;stroke-dasharray:none;fill:none;stroke-opacity:1"/>
      <path d="m 2896.8,70.8008 -82.8,-13.1992 -22.8,-2.4024 0,-22.8008 13.2,-10.7968 132,13.1992 43.2,7.1992 75.6,-13.1992 30,-7.1992" inkscape:connector-curvature="0" id="path50" style="stroke:#000000;stroke-width:8;stroke-miterlimit:4;stroke-dasharray:none;fill:none;stroke-opacity:1"/>
      <path d="m 3102,57.6016 -69.6,16.7968 -7.2,10.8008 3.6,15.6018 115.2,208.801 16.8,19.199 16.8,32.398 6,33.602 60,134.398" inkscape:connector-curvature="0" id="path52" style="stroke:#000000;stroke-width:8;stroke-miterlimit:4;stroke-dasharray:none;fill:none;stroke-opacity:1"/>
      <path d="m 2814,1440 -121.2,-22.8 -26.4,-13.2 -26.4,-22.8 -16.8,-43.2 20.4,13.2 39.6,20.4 49.2,12 32.4,0 37.2,7.2" inkscape:connector-curvature="0" id="path54" style="stroke:#000000;stroke-width:8;stroke-miterlimit:4;stroke-dasharray:none;fill:none;stroke-opacity:1"/>
      <path d="m 2630.4,1341.6 49.2,6 52.8,3.6 43.2,-7.2 32.4,3.6 16.8,0" inkscape:connector-curvature="0" id="path56" style="stroke:#000000;stroke-width:8;stroke-miterlimit:4;stroke-dasharray:none;fill:none;stroke-opacity:1"/>
      <path d="m 2877.6,1426.8 6,-19.2 10.8,-3.6 12,0 10.8,9.6 0,13.2 -7.2,9.6 -13.2,3.6 -9.6,-3.6 -9.6,-13.2" inkscape:connector-curvature="0" id="path58" style="stroke:#000000;stroke-width:8;stroke-miterlimit:4;stroke-dasharray:none;fill:none;stroke-opacity:1"/>
    </g>
  </g>
</svg>
