<?xml version="1.0" encoding="UTF-8"?>
<!-- Created with Inkscape (http://www.inkscape.org/) -->
<svg xmlns:dc="http://purl.org/dc/elements/1.1/" xmlns:cc="http://creativecommons.org/ns#" xmlns:rdf="http://www.w3.org/1999/02/22-rdf-syntax-ns#" xmlns:svg="http://www.w3.org/2000/svg" xmlns="http://www.w3.org/2000/svg" xmlns:inkscape="http://www.inkscape.org/namespaces/inkscape" version="1.1" width="765" height="990" id="svg2" xml:space="preserve">
  <metadata id="metadata8">
    <rdf:RDF>
      <cc:Work rdf:about="">
        <dc:format>image/svg+xml</dc:format>
        <dc:type rdf:resource="http://purl.org/dc/dcmitype/StillImage"/>
      </cc:Work>
    </rdf:RDF>
  </metadata>
  <defs id="defs6"/>
  <g transform="matrix(1.25,0,0,-1.25,0,990)" id="g10">
    <g transform="scale(0.1,0.1)" id="g12">
      <path d="m 19.1992,141.602 508.8008,0 0,-130.8012 -67.199,64.8008 -374.4026,0 -67.1992,-64.8008 0,130.8012" inkscape:connector-curvature="0" id="path14" style="stroke:#000000;stroke-width:8;stroke-miterlimit:4;stroke-dasharray:none;fill:none;stroke-opacity:1"/>
      <path d="m 26.3984,220.801 0,43.199 76.8006,0 0,225.602 88.801,0 0,144 45.602,0 0,-412.801 -211.2036,0" inkscape:connector-curvature="0" id="path16" style="stroke:#000000;stroke-width:8;stroke-miterlimit:4;stroke-dasharray:none;fill:none;stroke-opacity:1"/>
      <path d="m 535.199,529.199 -214.801,0 2.403,18 2.398,12 4.801,12 6,8.403 6,8.398 7.199,9.602 8.403,8.398 9.597,7.199 8.403,6 12,4.801 12,3.602 8.398,1.199 14.398,2.398 10.801,0 9.602,-2.398 12,-1.199 12,-2.403 7.199,-3.597 12,-7.204 8.398,-6 8.403,-6 7.199,-9.597 7.199,-10.801 6,-9.602 4.801,-9.597 4.801,-13.199 2.398,-9.602 0,-10.801" inkscape:connector-curvature="0" id="path18" style="stroke:#000000;stroke-width:8;stroke-miterlimit:4;stroke-dasharray:none;fill:none;stroke-opacity:1"/>
      <path d="m 345.602,402 -4.801,-6 -2.403,-7.199 -1.199,-7.199 0,-27.602 2.403,-10.801 1.199,-8.398 2.398,-9.602 L 348,312 l 4.801,-13.199 12,-19.199 L 372,270 l 9.602,-12 10.796,-9.602 9.602,-7.199 9.602,-6 9.597,-3.597 8.403,-3.602 9.597,-1.199 7.199,-2.403 16.801,0 7.199,3.602 7.204,2.398 8.398,3.602 7.199,3.602 6,6 4.801,4.796 4.801,6 2.398,7.204 4.801,8.398 1.199,6 1.199,9.602 -1.199,8.398 0,8.398 -3.597,8.403 -3.602,9.597 -4.801,9.602 -6,9.602 L 492,348 l -7.199,9.602 -8.403,7.199 -8.398,8.398 -9.602,6 -10.796,7.199 -13.204,7.204 -9.597,4.796 -13.199,4.801 -12,3.602 -10.801,2.398 -10.801,1.199 -7.199,0 -8.403,-1.199 -3.597,-1.199 -6,-1.199 -7.199,-4.801" inkscape:connector-curvature="0" id="path20" style="stroke:#000000;stroke-width:8;stroke-miterlimit:4;stroke-dasharray:none;fill:none;stroke-opacity:1"/>
    </g>
  </g>
</svg>
