<?xml version="1.0" encoding="UTF-8"?>
<!-- Created with Inkscape (http://www.inkscape.org/) -->
<svg xmlns:dc="http://purl.org/dc/elements/1.1/" xmlns:cc="http://creativecommons.org/ns#" xmlns:rdf="http://www.w3.org/1999/02/22-rdf-syntax-ns#" xmlns:svg="http://www.w3.org/2000/svg" xmlns="http://www.w3.org/2000/svg" xmlns:inkscape="http://www.inkscape.org/namespaces/inkscape" version="1.1" width="765" height="990" id="svg2" xml:space="preserve">
  <metadata id="metadata8">
    <rdf:RDF>
      <cc:Work rdf:about="">
        <dc:format>image/svg+xml</dc:format>
        <dc:type rdf:resource="http://purl.org/dc/dcmitype/StillImage"/>
      </cc:Work>
    </rdf:RDF>
  </metadata>
  <defs id="defs6"/>
  <g transform="matrix(1.25,0,0,-1.25,0,990)" id="g10">
    <g transform="scale(0.1,0.1)" id="g12">
      <path d="m 219.602,1014 85.199,0 -2.403,31.2 8.403,40.8 8.398,24 18,38.4 76.801,136.8 3.602,30 2.398,13.2 -3.602,25.2 -3.597,16.8 -7.199,21.6 -12,20.4 -10.801,10.8 -25.199,24 -19.204,7.2 -42,3.6 -33.597,-3.6 -13.199,-6 -16.801,-10.8 -15.602,-18 -7.199,-9.6 -7.199,-8.4" inkscape:connector-curvature="0" id="path14" style="stroke:#000000;stroke-width:8;stroke-miterlimit:4;stroke-dasharray:none;fill:none;stroke-opacity:1"/>
      <path d="m 198,1400.4 -12,-6 -138,-26.4 -12,-9.6 -10.8008,-7.2 -8.3984,-15.6 -2.4024,-22.8 1.2032,-4.8 4.7968,-3.6 2.4024,0 7.1992,3.6 2.3984,12 8.4024,13.2 L 54,1344 l 14.3984,4.8 18,4.8 113.9996,15.6 2.403,1.2 16.801,-2.4" inkscape:connector-curvature="0" id="path16" style="stroke:#000000;stroke-width:8;stroke-miterlimit:4;stroke-dasharray:none;fill:none;stroke-opacity:1"/>
      <path d="m 200.398,1400.4 19.204,-33.6 0,-18" inkscape:connector-curvature="0" id="path18" style="stroke:#000000;stroke-width:8;stroke-miterlimit:4;stroke-dasharray:none;fill:none;stroke-opacity:1"/>
      <path d="m 36,1321.2 12,9.6 21.6016,4.8 55.1994,6 54,7.2 43.199,0 10.801,-1.2 22.801,-6 38.398,-7.2 21.602,-1.2 15.597,1.2 16.801,3.6 9.602,-4.8 4.796,-7.2 1.204,-16.8 -1.204,-14.4 -7.199,-16.8 -62.398,-81.6 -31.199,-49.2 -12,-25.2 -15.602,-30 -8.398,-38.4 -6,-39.6" inkscape:connector-curvature="0" id="path20" style="stroke:#000000;stroke-width:8;stroke-miterlimit:4;stroke-dasharray:none;fill:none;stroke-opacity:1"/>
      <path d="m 340.801,1453.2 73.199,-27.6 72,-18 28.801,-6 26.398,-1.2 30,0 33.602,1.2 26.398,6 25.199,6 2.403,-3.6 -2.403,-9.6 -9.597,-7.2 -33.602,-7.2 -34.801,-3.6 -37.199,0 -32.398,2.4 -55.199,9.6 -31.204,9.6" inkscape:connector-curvature="0" id="path22" style="stroke:#000000;stroke-width:8;stroke-miterlimit:4;stroke-dasharray:none;fill:none;stroke-opacity:1"/>
      <path d="m 382.801,1425.6 55.199,-28.8 55.199,-28.8 33.602,-16.8 25.199,-9.6 27.602,-7.2 20.398,-2.4 36,-4.8 15.602,3.6 7.199,1.2 6,-4.8 1.199,-8.4 -20.398,-7.2 -26.403,-2.4 -27.597,3.6 -39.602,8.4 -33.602,12 -32.398,15.6 -79.199,44.4" inkscape:connector-curvature="0" id="path24" style="stroke:#000000;stroke-width:8;stroke-miterlimit:4;stroke-dasharray:none;fill:none;stroke-opacity:1"/>
      <path d="m 264,1417.2 -7.199,-1.2 -7.199,-8.4 0,-9.6 7.199,-7.2 9.597,0 9.602,3.6 1.199,6 -2.398,8.4 -7.199,8.4" inkscape:connector-curvature="0" id="path26" style="stroke:#000000;stroke-width:8;stroke-miterlimit:4;stroke-dasharray:none;fill:none;stroke-opacity:1"/>
      <path d="m 224.398,512.398 84,0 -1.199,31.204 8.403,40.796 8.398,24 16.801,38.403 78,136.801 3.597,28.796 2.403,14.403 -3.602,25.199 -4.801,16.801 -6,21.597 -13.199,19.204 -9.597,12 -25.204,22.796 -20.398,7.204 -40.801,4.796 -33.597,-4.796 -13.204,-6 L 237.602,934.801 222,918 214.801,908.398 207.602,900" inkscape:connector-curvature="0" id="path28" style="stroke:#000000;stroke-width:8;stroke-miterlimit:4;stroke-dasharray:none;fill:none;stroke-opacity:1"/>
      <path d="m 202.801,898.801 -12,-6 L 52.8008,866.398 39.6016,856.801 30,849.602 21.6016,834 l -2.4024,-22.801 1.1992,-6 3.6016,-2.398 2.3984,0 8.4024,2.398 2.3984,13.199 8.4024,12 12,12 L 72,846 l 18,6 115.199,15.602 2.403,1.199 16.796,-2.403" inkscape:connector-curvature="0" id="path30" style="stroke:#000000;stroke-width:8;stroke-miterlimit:4;stroke-dasharray:none;fill:none;stroke-opacity:1"/>
      <path d="m 205.199,898.801 19.199,-33.602 0,-19.199" inkscape:connector-curvature="0" id="path32" style="stroke:#000000;stroke-width:8;stroke-miterlimit:4;stroke-dasharray:none;fill:none;stroke-opacity:1"/>
      <path d="m 39.6016,819.602 13.1992,8.398 20.3984,6 55.1988,4.801 55.204,7.199 42,0 12,-1.199 21.597,-6 39.602,-6 21.597,-2.403 15.602,2.403 16.801,3.597 9.597,-6 3.602,-7.199 1.199,-16.801 -1.199,-13.199 -7.199,-18 -61.199,-80.398 -31.204,-49.199 -12,-26.403 -15.597,-28.801 -9.602,-38.398 -4.801,-39.602" inkscape:connector-curvature="0" id="path34" style="stroke:#000000;stroke-width:8;stroke-miterlimit:4;stroke-dasharray:none;fill:none;stroke-opacity:1"/>
      <path d="M 345.602,950.398 418.801,924 l 72,-18 28.801,-6 25.199,-1.199 31.199,0 33.602,1.199 25.199,6 26.398,4.801 2.403,-2.403 -2.403,-9.597 -10.801,-7.199 -33.597,-7.204 -33.602,-4.796 -38.398,0 -32.403,3.597 -54,9.602 -31.199,10.801" inkscape:connector-curvature="0" id="path36" style="stroke:#000000;stroke-width:8;stroke-miterlimit:4;stroke-dasharray:none;fill:none;stroke-opacity:1"/>
      <path d="m 387.602,924 55.199,-30 54,-27.602 33.597,-16.796 26.403,-10.801 27.597,-6 19.204,-3.602 37.199,-3.597 15.597,2.398 7.204,1.199 4.796,-3.597 1.204,-8.403 L 649.199,810 624,806.398 l -28.801,4.801 -38.398,8.403 -33.602,10.796 -32.398,15.602 -79.199,45.602" inkscape:connector-curvature="0" id="path38" style="stroke:#000000;stroke-width:8;stroke-miterlimit:4;stroke-dasharray:none;fill:none;stroke-opacity:1"/>
      <path d="m 268.801,915.602 -8.403,-1.204 -6,-8.398 0,-10.801 6,-6 10.801,0 9.602,3.602 1.199,6 -3.602,8.398 -6,8.403" inkscape:connector-curvature="0" id="path40" style="stroke:#000000;stroke-width:8;stroke-miterlimit:4;stroke-dasharray:none;fill:none;stroke-opacity:1"/>
      <path d="m 228,19.1992 85.199,0 -2.398,31.1992 9.597,40.8008 8.403,23.9998 16.801,38.403 76.796,136.796 4.801,28.801 1.199,14.403 -2.398,25.199 -4.801,16.801 -7.199,21.597 -12,19.199 -9.602,12 -26.398,24 -19.199,7.204 -40.801,3.597 -33.602,-3.597 -14.398,-6 -16.801,-12 -15.597,-16.801 -6,-9.602 -8.403,-8.398" inkscape:connector-curvature="0" id="path42" style="stroke:#000000;stroke-width:8;stroke-miterlimit:4;stroke-dasharray:none;fill:none;stroke-opacity:1"/>
      <path d="m 207.602,405.602 -13.204,-6 -137.9996,-26.403 -12,-10.801 -9.5976,-6 L 25.1992,340.801 22.8008,318 24,312 l 4.8008,-2.398 3.5976,0 6,2.398 2.4024,13.199 9.5976,13.199 12,10.801 14.4024,4.801 18,4.801 114.0002,15.597 2.398,1.204 16.801,-2.403" inkscape:connector-curvature="0" id="path44" style="stroke:#000000;stroke-width:8;stroke-miterlimit:4;stroke-dasharray:none;fill:none;stroke-opacity:1"/>
      <path d="M 208.801,405.602 228,372 l 0,-18" inkscape:connector-curvature="0" id="path46" style="stroke:#000000;stroke-width:8;stroke-miterlimit:4;stroke-dasharray:none;fill:none;stroke-opacity:1"/>
      <path d="m 44.3984,326.398 12,8.403 21.6016,6 55.199,4.801 55.199,8.398 42,0 10.801,-2.398 22.801,-6 39.602,-6 20.398,-1.204 15.602,1.204 16.796,3.597 9.602,-4.801 4.801,-7.199 1.199,-18 L 370.801,300 363.602,283.199 302.398,201.602 271.199,152.398 258,126 242.398,97.1992 234,58.8008 228,19.1992" inkscape:connector-curvature="0" id="path48" style="stroke:#000000;stroke-width:8;stroke-miterlimit:4;stroke-dasharray:none;fill:none;stroke-opacity:1"/>
      <path d="m 349.199,458.398 73.199,-27.597 72,-18 30,-6 25.204,-1.199 30,0 34.796,1.199 25.204,6 25.199,4.801 2.398,-2.403 -2.398,-9.597 -9.602,-7.204 -33.597,-7.199 -33.602,-3.597 -38.398,0 -32.403,2.398 -55.199,9.602 -31.199,9.597" inkscape:connector-curvature="0" id="path50" style="stroke:#000000;stroke-width:8;stroke-miterlimit:4;stroke-dasharray:none;fill:none;stroke-opacity:1"/>
      <path d="m 392.398,430.801 54,-30 55.204,-27.602 33.597,-16.801 25.199,-10.796 28.801,-6 19.199,-2.403 37.204,-4.801 15.597,2.403 6,2.398 6,-4.801 L 675.602,324 654,316.801 628.801,313.199 600,318 l -39.602,8.398 -33.597,12 -32.403,15.602 -79.199,44.398" inkscape:connector-curvature="0" id="path52" style="stroke:#000000;stroke-width:8;stroke-miterlimit:4;stroke-dasharray:none;fill:none;stroke-opacity:1"/>
      <path d="m 273.602,422.398 -8.403,-1.199 -7.199,-8.398 0,-9.602 7.199,-8.398 9.602,0 10.801,4.801 1.199,6 -3.602,8.398 -7.199,8.398" inkscape:connector-curvature="0" id="path54" style="stroke:#000000;stroke-width:8;stroke-miterlimit:4;stroke-dasharray:none;fill:none;stroke-opacity:1"/>
    </g>
  </g>
</svg>
