<?xml version="1.0" encoding="UTF-8"?>
<!-- Created with Inkscape (http://www.inkscape.org/) -->
<svg xmlns:dc="http://purl.org/dc/elements/1.1/" xmlns:cc="http://creativecommons.org/ns#" xmlns:rdf="http://www.w3.org/1999/02/22-rdf-syntax-ns#" xmlns:svg="http://www.w3.org/2000/svg" xmlns="http://www.w3.org/2000/svg" xmlns:inkscape="http://www.inkscape.org/namespaces/inkscape" version="1.1" width="765" height="990" id="svg2" xml:space="preserve">
  <metadata id="metadata8">
    <rdf:RDF>
      <cc:Work rdf:about="">
        <dc:format>image/svg+xml</dc:format>
        <dc:type rdf:resource="http://purl.org/dc/dcmitype/StillImage"/>
      </cc:Work>
    </rdf:RDF>
  </metadata>
  <defs id="defs6"/>
  <g transform="matrix(1.25,0,0,-1.25,0,990)" id="g10">
    <g transform="scale(0.1,0.1)" id="g12">
      <path d="m 14.3984,906 511.2036,0 0,-511.199 -511.2036,0 0,511.199" inkscape:connector-curvature="0" id="path14" style="stroke:#000000;stroke-width:8;stroke-miterlimit:4;stroke-dasharray:none;fill:none;stroke-opacity:1"/>
      <path d="m 1280.4,1072.8 -70.8,6 -111.6,-6 -82.8,8.4 -26.399,-8.4 -19.199,-26.4 7.199,-44.4 32.399,-103.199 60,-98.403 198,-236.398 102,-96 147.6,-138 313.2,-307.1992 32.4,0 9.6,16.8008 -13.2,28.7968 -134.4,307.2036 -19.2,57.597 -102,246 -92.4,159.602 -74.4,102 -54,74.399 -44.4,69.6 -48,64.8 -57.6,66 -57.6,39.6 -16.8,66 -12,74.4 -19.2,48 -54,12 -89.999,0 -98.403,-3.6 -49.199,-12 -21.597,-7.2 -163.204,-21.6 -48,-22.8 -15.597,-21.6 -3.602,-45.6 19.199,32.4 32.403,15.6 96,0 98.398,-2.4 51.602,-13.2 -42,50.4 -9.602,36" inkscape:connector-curvature="0" id="path16" style="stroke:#000000;stroke-width:8;stroke-miterlimit:4;stroke-dasharray:none;fill:none;stroke-opacity:1"/>
      <path d="m 934.801,1372.8 9.597,2.4 7.204,16.8 -7.204,15.6 -12,9.6 -13.199,-9.6 -3.597,-19.2 7.199,-9.6 9.597,-6" inkscape:connector-curvature="0" id="path18" style="stroke:#000000;stroke-width:8;stroke-miterlimit:4;stroke-dasharray:none;fill:none;stroke-opacity:1"/>
      <path d="m 598.801,1340.4 128.398,3.6 99.602,-13.2 28.801,-15.6 8.398,-32.4 4.801,-34.8 -30,-70.8 -12,-86.4 15.597,-105.601 13.204,-46.801 34.796,-96 42,-78 98.402,-169.199 132,-249.597 12,-94.801 -16.8,-163.1994 -15.6,-16.8008 -92.4,-8.4024 -109.199,2.4024 -6,-15.6016 -48,-7.1992 -6,-8.3984 9.597,-13.2032 L 1165.2,30 1449.6,16.8008 1462.8,30 l -6,15.6016 -45.6,0 -25.2,22.7968 -163.2,2.4024 -19.2,13.1992 19.2,201.602 117.6,-61.204 68.4,198 127.2,-319.199 44.4,-57.5974 45.6,-25.2032 67.2,0 37.2,13.2032 9.6,18 -31.2,87.5974" inkscape:connector-curvature="0" id="path20" style="stroke:#000000;stroke-width:8;stroke-miterlimit:4;stroke-dasharray:none;fill:none;stroke-opacity:1"/>
      <path d="m 915.602,787.199 42,-232.801 L 954,375.602 922.801,193.199 894,99.6016 874.801,78 721.199,68.3984 704.398,45.6016 669.602,42 l -12,-8.3984 12,-13.2032 L 788.398,30 823.199,26.3984" inkscape:connector-curvature="0" id="path22" style="stroke:#000000;stroke-width:8;stroke-miterlimit:4;stroke-dasharray:none;fill:none;stroke-opacity:1"/>
      <path d="m 938.398,64.8008 -54,-6 0,0 L 852,51.6016 832.801,26.3984 846,20.3984 864,39.6016 884.398,42" inkscape:connector-curvature="0" id="path24" style="stroke:#000000;stroke-width:8;stroke-miterlimit:4;stroke-dasharray:none;fill:none;stroke-opacity:1"/>
      <path d="M 934.801,68.3984 1005.6,330 l 109.2,-63.602 21.6,118.801" inkscape:connector-curvature="0" id="path26" style="stroke:#000000;stroke-width:8;stroke-miterlimit:4;stroke-dasharray:none;fill:none;stroke-opacity:1"/>
      <path d="m 711.602,64.8008 -51.602,-6 0,0 -31.199,-7.1992 -19.199,-25.2032 8.398,-6 22.801,19.2032 L 667.199,42" inkscape:connector-curvature="0" id="path28" style="stroke:#000000;stroke-width:8;stroke-miterlimit:4;stroke-dasharray:none;fill:none;stroke-opacity:1"/>
      <path d="m 1392,68.3984 61.2,-6 28.8,-10.7968 19.2,-25.2032 -9.6,-6 -22.8,19.2032 L 1453.2,42" inkscape:connector-curvature="0" id="path30" style="stroke:#000000;stroke-width:8;stroke-miterlimit:4;stroke-dasharray:none;fill:none;stroke-opacity:1"/>
      <path d="m 2414.4,16.8008 -316.8,476.3982 -21.6,67.199 -7.2,57.602 9.6,54 13.2,26.398 19.2,28.801 25.2,21.602 25.2,15.597 9.6,7.204 48,6 48,19.199 34.8,32.398 28.8,32.403 16.8,28.796 9.6,56.403 -6,51.597 -16.8,28.802 -15.6,25.2 -28.8,28.8 -25.2,13.2 -42,19.2 -51.6,13.2 -25.2,15.6 -44.4,34.8 -19.2,32.4 -9.6,28.8 -9.6,57.6 6,51.6 13.2,25.2 19.2,28.8 28.8,25.2 19.2,16.8 34.8,8.4 25.2,3.6" inkscape:connector-curvature="0" id="path32" style="stroke:#000000;stroke-width:8;stroke-miterlimit:4;stroke-dasharray:none;fill:none;stroke-opacity:1"/>
      <path d="m 2001.6,16.8008 322.8,495.5972 16.8,38.403 2.4,67.199 -6,54 -13.2,26.398 -15.6,22.801 -28.8,27.602 -26.4,15.597 -8.4,7.204 -76.8,15.597 -19.2,9.602 -22.8,13.199 -21.6,22.801 -22.8,31.199 -13.2,28.801 -12,57.597 8.4,54.002 19.2,26.4 16.8,25.2 32.4,28.8 21.6,13.2 38.4,15.6 48,15.6 28.8,20.4 34.8,25.2 28.8,38.4 7.2,28.8 12,56.4 -9.6,51.6 -13.2,25.2 -18,28.8 -30,26.4 -31.2,19.2 -42,6" inkscape:connector-curvature="0" id="path34" style="stroke:#000000;stroke-width:8;stroke-miterlimit:4;stroke-dasharray:none;fill:none;stroke-opacity:1"/>
      <path d="m 3060,1042.8 25.2,-15.6 19.2,-7.2 9.6,0 10.8,10.8 12,12 64.8,111.6 0,16.8 -4.8,6 -6,9.6 -21.6,13.2 -524.4,246 -13.2,2.4 -15.6,3.6 -15.6,-6 -16.8,-9.6 -6,-9.6 -6,-19.2 0,-13.2 6,-15.6 9.6,-13.2 15.6,-15.6 457.2,-307.2" inkscape:connector-curvature="0" id="path36" style="stroke:#000000;stroke-width:8;stroke-miterlimit:4;stroke-dasharray:none;fill:none;stroke-opacity:1"/>
    </g>
  </g>
</svg>
