<?xml version="1.0" encoding="UTF-8"?>
<!-- Created with Inkscape (http://www.inkscape.org/) -->
<svg xmlns:dc="http://purl.org/dc/elements/1.1/" xmlns:cc="http://creativecommons.org/ns#" xmlns:rdf="http://www.w3.org/1999/02/22-rdf-syntax-ns#" xmlns:svg="http://www.w3.org/2000/svg" xmlns="http://www.w3.org/2000/svg" xmlns:inkscape="http://www.inkscape.org/namespaces/inkscape" version="1.1" width="765" height="990" id="svg2" xml:space="preserve">
  <metadata id="metadata8">
    <rdf:RDF>
      <cc:Work rdf:about="">
        <dc:format>image/svg+xml</dc:format>
        <dc:type rdf:resource="http://purl.org/dc/dcmitype/StillImage"/>
      </cc:Work>
    </rdf:RDF>
  </metadata>
  <defs id="defs6"/>
  <g transform="matrix(1.25,0,0,-1.25,0,990)" id="g10">
    <g transform="scale(0.1,0.1)" id="g12">
      <path d="m 492,740.398 -48,4.801 -76.801,-4.801 -57.597,6 -16.801,-6 -13.199,-16.796 4.796,-31.204 L 306,621.602 348,554.398 483.602,391.199 553.199,326.398 654,231.602 868.801,21.6016 l 21.597,0 7.204,10.7968 -9.602,19.2032 -91.199,210.0004 -13.199,40.796 -70.801,168 -63.602,109.204 -50.398,70.796 -36,50.403 -31.199,48 -33.602,44.398 -38.398,45.602 -40.801,26.398 -9.602,46.801 -9.597,49.199 -13.204,33.602 -37.199,8.399 -61.199,0 -67.199,-1.2 -33.602,-9.602 -14.398,-4.796 L 61.1992,973.199 27.6016,957.602 16.8008,942 l -2.4024,-30 13.2032,21.602 21.5976,10.796 65.9998,0 67.199,-2.398 36,-8.398 -28.796,34.796 -7.204,24" inkscape:connector-curvature="0" id="path14" style="stroke:#000000;stroke-width:8;stroke-miterlimit:4;stroke-dasharray:none;fill:none;stroke-opacity:1"/>
      <path d="m 255.602,946.801 6,1.199 4.796,12 -4.796,10.801 -8.403,6 -8.398,-6 -2.403,-13.199 3.602,-7.204 7.199,-3.597" inkscape:connector-curvature="0" id="path16" style="stroke:#000000;stroke-width:8;stroke-miterlimit:4;stroke-dasharray:none;fill:none;stroke-opacity:1"/>
      <path d="m 25.1992,925.199 87.6018,1.199 68.398,-8.398 19.199,-10.801 7.204,-22.801 1.199,-22.796 -19.199,-49.204 -8.403,-58.796 10.801,-72 8.398,-33.602 24,-66 28.801,-51.602 67.199,-116.398 90,-171.602 8.403,-66 -9.602,-111.5972 -12,-10.8008 -63.597,-7.1992 -74.403,3.5976 -3.597,-12 -33.602,-3.5976 -3.602,-7.1992 6,-8.4024 188.403,6 194.398,-8.3984 9.602,8.3984 -4.801,12 -30,0 L 564,51.6016 452.398,54 439.199,62.3984 452.398,200.398 534,159.602 l 45.602,135.597 87.597,-219.5974 30,-38.4024 31.199,-18 45.602,0 26.398,8.4024 7.204,13.1992 L 786,100.801" inkscape:connector-curvature="0" id="path18" style="stroke:#000000;stroke-width:8;stroke-miterlimit:4;stroke-dasharray:none;fill:none;stroke-opacity:1"/>
      <path d="M 242.398,544.801 271.199,385.199 268.801,261.602 246,136.801 226.801,73.1992 213.602,58.8008 109.199,51.6016 97.1992,37.1992 l -24,-2.3984 -8.3984,-7.1992 8.3984,-8.4024 81.6018,6 24,-1.1992" inkscape:connector-curvature="0" id="path20" style="stroke:#000000;stroke-width:8;stroke-miterlimit:4;stroke-dasharray:none;fill:none;stroke-opacity:1"/>
      <path d="m 258,50.3984 -37.199,-4.7968 0,0 L 198,40.8008 184.801,24 l 9.597,-4.8008 13.204,13.1992 13.199,2.4024" inkscape:connector-curvature="0" id="path22" style="stroke:#000000;stroke-width:8;stroke-miterlimit:4;stroke-dasharray:none;fill:none;stroke-opacity:1"/>
      <path d="m 255.602,51.6016 48,180.0004 74.398,-43.204 15.602,80.403" inkscape:connector-curvature="0" id="path24" style="stroke:#000000;stroke-width:8;stroke-miterlimit:4;stroke-dasharray:none;fill:none;stroke-opacity:1"/>
      <path d="m 102,50.3984 -34.8008,-4.7968 0,0 L 45.6016,40.8008 32.3984,24 l 6,-4.8008 L 54,32.3984 70.8008,34.8008" inkscape:connector-curvature="0" id="path26" style="stroke:#000000;stroke-width:8;stroke-miterlimit:4;stroke-dasharray:none;fill:none;stroke-opacity:1"/>
      <path d="m 568.801,51.6016 42,-4.8008 19.199,-6 L 643.199,24 636,19.1992 l -15.602,13.1992 -9.597,2.4024" inkscape:connector-curvature="0" id="path28" style="stroke:#000000;stroke-width:8;stroke-miterlimit:4;stroke-dasharray:none;fill:none;stroke-opacity:1"/>
      <path d="m 103.199,1455.6 175.199,-394.8 87.602,0 -175.199,394.8 -87.602,0" inkscape:connector-curvature="0" id="path30" style="stroke:#000000;stroke-width:8;stroke-miterlimit:4;stroke-dasharray:none;fill:none;stroke-opacity:1"/>
      <path d="m 368.398,1455.6 175.204,-394.8 87.597,0 -175.199,394.8 -87.602,0" inkscape:connector-curvature="0" id="path32" style="stroke:#000000;stroke-width:8;stroke-miterlimit:4;stroke-dasharray:none;fill:none;stroke-opacity:1"/>
    </g>
  </g>
</svg>
