<?xml version="1.0" encoding="UTF-8"?>
<!-- Created with Inkscape (http://www.inkscape.org/) -->
<svg xmlns:dc="http://purl.org/dc/elements/1.1/" xmlns:cc="http://creativecommons.org/ns#" xmlns:rdf="http://www.w3.org/1999/02/22-rdf-syntax-ns#" xmlns:svg="http://www.w3.org/2000/svg" xmlns="http://www.w3.org/2000/svg" xmlns:inkscape="http://www.inkscape.org/namespaces/inkscape" version="1.1" width="765" height="990" id="svg2" xml:space="preserve">
  <metadata id="metadata8">
    <rdf:RDF>
      <cc:Work rdf:about="">
        <dc:format>image/svg+xml</dc:format>
        <dc:type rdf:resource="http://purl.org/dc/dcmitype/StillImage"/>
      </cc:Work>
    </rdf:RDF>
  </metadata>
  <defs id="defs6"/>
  <g transform="matrix(1.25,0,0,-1.25,0,990)" id="g10">
    <g transform="scale(0.1,0.1)" id="g12">
      <path d="m 1377.6,327.602 0,910.798 15.6,3.6 10.8,6 19.2,15.6 8.4,16.8 7.2,25.2 6,34.8 0,26.4 2.4,18 16.8,22.8 13.2,7.2 18,2.4 20.4,7.2 -7.2,8.4 -76.8,16.8 -56.4,6 -80.4,-6 -67.2,-13.2 0,-12 19.2,-7.2 32.4,-15.6 6,-13.2 6,-9.6 7.2,-38.4 0,-25.2 6,-32.4 9.6,-19.2 25.2,-21.6 22.8,-3.6 0,-910.798" inkscape:connector-curvature="0" id="path14" style="stroke:#000000;stroke-width:8;stroke-miterlimit:4;stroke-dasharray:none;fill:none;stroke-opacity:1"/>
      <path d="m 1396.8,330 138,597.602 15.6,-2.403 13.2,2.403 19.2,13.199 15.6,13.199 9.6,25.199 13.2,32.401 6,25.2 6,19.2 22.8,19.2 13.2,3.6 18,-3.6 19.2,3.6 -2.4,9.6 -96,40.8 -44.4,15.6 -70.8,7.2 -63.6,0 -3.6,-13.2 19.2,-6 25.2,-25.2 7.2,-13.2 2.4,-13.2 -6,-34.8 -3.6,-25.2 0,-36.001 3.6,-18 19.2,-26.398 22.8,-9.602 L 1383.6,330" inkscape:connector-curvature="0" id="path16" style="stroke:#000000;stroke-width:8;stroke-miterlimit:4;stroke-dasharray:none;fill:none;stroke-opacity:1"/>
      <path d="m 1339.2,327.602 -130.8,594 -15.6,0 -13.2,3.597 -21.6,13.199 -13.2,12 -13.2,25.204 -13.2,32.398 0,25.2 -8.4,19.2 -26.4,20.4 -13.2,2.4 -18,-2.4 -19.2,2.4 2.4,9.6 70.8,36 51.6,15.6 88.8,13.2 63.6,0 3.6,-13.2 -15.6,-7.2 -26.4,-25.2 -8.4,-13.2 -4.8,-12 10.8,-34.8 2.4,-26.4 0,-41.998 -2.4,-12 -19.2,-25.204 -20.4,-10.796 122.4,-600" inkscape:connector-curvature="0" id="path18" style="stroke:#000000;stroke-width:8;stroke-miterlimit:4;stroke-dasharray:none;fill:none;stroke-opacity:1"/>
      <path d="m 1423.2,321.602 136.8,232.796 6,0 9.6,-3.597 64.8,-205.199 -7.2,-12 -3.6,-25.204 36,-86.398 15.6,-19.199 9.6,-9.602 6,0 7.2,6 0,109.199 -9.6,25.204 -9.6,9.597 -13.2,6 -13.2,3.602 -12,-3.602 -9.6,-9.597" inkscape:connector-curvature="0" id="path20" style="stroke:#000000;stroke-width:8;stroke-miterlimit:4;stroke-dasharray:none;fill:none;stroke-opacity:1"/>
      <path d="m 1662,352.801 -73.2,249.597 -13.2,9.602 -6,-7.199 -169.2,-277.199" inkscape:connector-curvature="0" id="path22" style="stroke:#000000;stroke-width:8;stroke-miterlimit:4;stroke-dasharray:none;fill:none;stroke-opacity:1"/>
      <path d="m 1320,321.602 -136.8,232.796 -7.2,0 -9.6,-3.597 -63.6,-205.199 7.2,-12 2.4,-25.204 -34.8,-86.398 -15.6,-19.199 -9.6,-9.602 -7.2,0 -6,6 0,109.199 9.6,25.204 9.6,9.597 12,6 13.2,3.602 13.2,-3.602 9.6,-9.597" inkscape:connector-curvature="0" id="path24" style="stroke:#000000;stroke-width:8;stroke-miterlimit:4;stroke-dasharray:none;fill:none;stroke-opacity:1"/>
      <path d="m 1081.2,352.801 73.2,249.597 12,9.602 7.2,-7.199 169.2,-277.199" inkscape:connector-curvature="0" id="path26" style="stroke:#000000;stroke-width:8;stroke-miterlimit:4;stroke-dasharray:none;fill:none;stroke-opacity:1"/>
      <path d="m 1358.4,330 -12,-2.398 -32.4,-6 -26.4,-10.801 -28.8,-19.199 -15.6,-15.602 -9.6,-13.199 -12,-12 -7.2,-16.801 -2.4,-18 -7.2,-20.398 -2.4,-15.602 0,-28.801 6,-15.597 3.6,-13.204 6,-16.796 9.6,-15.602 15.6,-19.1992 9.6,-8.4024 6,-7.1992 13.2,-9.5976 9.6,-3.6016 22.8,-12 6,-3.6016 19.2,-3.5976 16.8,-2.4024 15.6,-3.5976 34.8,0 13.2,6 31.2,7.1992 13.2,9.6016 9.6,2.3984 13.2,7.1992 9.6,9.6016 8.4,6 10.8,9.5976 9.6,13.2032 6,15.5974 2.4,9.602 7.2,9.597 3.6,13.204 2.4,12 3.6,19.199 0,15.597 -3.6,13.204 -2.4,13.199 -3.6,19.199 -3.6,9.602 -12,19.199 -9.6,9.597 -10.8,13.204 -6,6 -25.2,19.199 -19.2,9.597 -19.2,7.204 -25.2,6 -9.6,2.398 -13.2,0" inkscape:connector-curvature="0" id="path28" style="stroke:#000000;stroke-width:8;stroke-miterlimit:4;stroke-dasharray:none;fill:none;stroke-opacity:1"/>
      <path d="m 1314,316.801 61.2,-79.199 85.2,67.199" inkscape:connector-curvature="0" id="path30" style="stroke:#000000;stroke-width:8;stroke-miterlimit:4;stroke-dasharray:none;fill:none;stroke-opacity:1"/>
      <path d="m 1527.6,228 -98.4,-63.602 86.4,-70.7964" inkscape:connector-curvature="0" id="path32" style="stroke:#000000;stroke-width:8;stroke-miterlimit:4;stroke-dasharray:none;fill:none;stroke-opacity:1"/>
      <path d="M 1438.8,36 1368,112.801 1291.2,42" inkscape:connector-curvature="0" id="path34" style="stroke:#000000;stroke-width:8;stroke-miterlimit:4;stroke-dasharray:none;fill:none;stroke-opacity:1"/>
      <path d="m 1221.6,105.602 73.2,68.398 -73.2,73.199" inkscape:connector-curvature="0" id="path36" style="stroke:#000000;stroke-width:8;stroke-miterlimit:4;stroke-dasharray:none;fill:none;stroke-opacity:1"/>
      <path d="m 484.801,996 18,-86.398 22.801,-103.204 0,-108 -16.801,-48 -60,-16.796 -82.801,-25.204 -70.801,-34.796 -38.398,-28.801 70.801,0 51.597,-9.602 L 426,522 l 19.199,-12 3.602,-10.801 6,-18" inkscape:connector-curvature="0" id="path38" style="stroke:#000000;stroke-width:8;stroke-miterlimit:4;stroke-dasharray:none;fill:none;stroke-opacity:1"/>
      <path d="m 256.801,544.801 -25.199,-19.199 -22.801,-92.403 -15.602,-90 -9.597,-90 L 170.398,166.801 154.801,103.199 135.602,78 103.199,58.8008 68.3984,49.1992 39.6016,45.6016 18,42 14.3984,16.8008 129.602,20.3984 160.801,30 l 22.801,-9.6016 28.796,0 13.204,6 6,13.2032 -3.602,12 -2.398,16.7968 0,34.8006 2.398,36 16.801,46.801 15.597,38.398 13.204,48 6,49.204 6,43.199 3.597,32.398 6,22.801 13.199,48 25.204,31.199 15.597,10.801" inkscape:connector-curvature="0" id="path40" style="stroke:#000000;stroke-width:8;stroke-miterlimit:4;stroke-dasharray:none;fill:none;stroke-opacity:1"/>
      <path d="M 362.398,535.199 346.801,512.398 339.602,468 362.398,404.398 394.801,321.602 414,270 l 25.199,-54 9.602,-45.602 0,-42 L 435.602,97.1992 420,74.3984 400.801,55.1992 379.199,45.6016 343.199,42 l 0,-21.6016 61.199,2.4024 28.801,10.8008 44.403,28.7968 28.796,6 L 528,81.6016 538.801,103.199 528,126 516,141.602 502.801,186 l -9.602,51.602 -8.398,57.597 -4.801,42 -8.398,34.801 -16.801,44.398 -3.602,28.801 0,32.403 42,19.199 51.602,13.199 54,2.398 48,3.602 34.801,2.398 32.398,16.801 15.602,28.801 -2.403,57.602 -7.199,54 -9.602,45.597 -12,44.403 -7.199,50.398 7.199,61.199 12,48 26.403,70.801 40.801,-55.199 28.796,-38.403 42,-63.597 -7.199,-51.602 0,-73.199 3.602,-61.199 -6,-31.199 -28.801,-32.403 -9.602,-32.398 19.204,-2.403 21.597,34.801 13.199,-9.597 -6,-28.801 L 838.801,522 816,502.801 804,487.199 816,474 844.801,493.199 864,510 l 15.602,34.801 3.597,22.801 -3.597,50.398 16.796,44.398 12,64.801 3.602,50.403 6,48 -2.398,28.796 -32.403,64.801 -34.801,63.602 -55.199,67.199 -31.199,31.2 -42,22.8 -34.801,3.6 0,60 38.403,32.4 28.796,32.4 19.204,31.2 19.199,32.4 13.199,34.8 0,28.8 -10.801,28.8 -15.597,26.4 -21.602,21.6 -22.801,13.2 -32.398,6 -34.801,-2.4 -38.398,-13.2 -25.204,-19.2 -16.796,-25.2 -18,-26.4 114,-31.2 -8.403,-22.8 18,-13.2 16.801,-9.6 2.398,-15.6 -9.597,-26.4 -6,-28.8 6,-21.6 3.597,-9.6" inkscape:connector-curvature="0" id="path42" style="stroke:#000000;stroke-width:8;stroke-miterlimit:4;stroke-dasharray:none;fill:none;stroke-opacity:1"/>
      <path d="m 573.602,1298.4 38.398,-12 -9.602,25.2 -13.199,3.6 -15.597,-9.6" inkscape:connector-curvature="0" id="path44" style="stroke:#000000;stroke-width:8;stroke-miterlimit:4;stroke-dasharray:none;fill:none;stroke-opacity:1"/>
      <path d="m 573.602,1369.2 -34.801,-34.8 -30,-22.8 -21.602,-19.2 0,-15.6 32.403,-32.4 0,-31.2 2.398,-19.2 48,-19.2 0,-57.6 -54,-3.6 -44.398,-19.2 -26.403,-21.6 -50.398,-42 -36,-38.402 -40.801,-48 31.199,73.202 22.801,63.6 13.199,45.6 2.403,15.6 42,22.8 28.796,25.2 -13.199,9.6 -37.199,-13.2 12,19.2 19.199,15.6 22.801,13.2 25.199,7.2 21.602,6 -28.801,13.2 -34.801,-6 -37.199,-16.8 -33.602,-28.8 -12,-31.2 0,-10.8 -28.796,-38.4 -25.204,-38.4 -19.199,-40.8 -19.199,-42 -7.199,-28.801 -6,-38.398 -6,-28.801 12,-31.199 16.801,-13.199 L 318,864 l 21.602,6 34.796,26.398 39.602,42 37.199,31.204 L 480,996" inkscape:connector-curvature="0" id="path46" style="stroke:#000000;stroke-width:8;stroke-miterlimit:4;stroke-dasharray:none;fill:none;stroke-opacity:1"/>
    </g>
  </g>
</svg>
