<?xml version="1.0" encoding="UTF-8"?>
<!-- Created with Inkscape (http://www.inkscape.org/) -->
<svg xmlns:dc="http://purl.org/dc/elements/1.1/" xmlns:cc="http://creativecommons.org/ns#" xmlns:rdf="http://www.w3.org/1999/02/22-rdf-syntax-ns#" xmlns:svg="http://www.w3.org/2000/svg" xmlns="http://www.w3.org/2000/svg" xmlns:inkscape="http://www.inkscape.org/namespaces/inkscape" version="1.1" width="765" height="990" id="svg2" xml:space="preserve">
  <metadata id="metadata8">
    <rdf:RDF>
      <cc:Work rdf:about="">
        <dc:format>image/svg+xml</dc:format>
        <dc:type rdf:resource="http://purl.org/dc/dcmitype/StillImage"/>
      </cc:Work>
    </rdf:RDF>
  </metadata>
  <defs id="defs6"/>
  <g transform="matrix(1.25,0,0,-1.25,0,990)" id="g10">
    <g transform="scale(0.1,0.1)" id="g12">
      <path d="M 295.199,434.398 266.398,436.801 222,434.398 188.398,438 l -9.597,-3.602 -8.403,-10.796 2.403,-18 L 186,364.801 210,325.199 289.199,230.398 331.199,192 390,136.801 514.801,14.3984 l 13.199,0 3.602,7.2032 -4.801,10.7968 -54,122.4026 -7.199,24 -40.801,98.398 -37.199,63.602 -30,40.801 L 336,410.398 318,439.199 298.801,465.602 276,492 253.199,506.398 246,534 241.199,562.801 234,582 l -22.801,6 -34.801,0 -40.796,-1.199 -19.204,-6 L 108,578.398 42,570 l -19.1992,-9.602 -6,-8.398 -1.1992,-18 7.1992,13.199 13.1992,6 38.3984,0 L 114,552 134.398,547.199 117.602,567.602 114,580.801" inkscape:connector-curvature="0" id="path14" style="stroke:#000000;stroke-width:8;stroke-miterlimit:4;stroke-dasharray:none;fill:none;stroke-opacity:1"/>
      <path d="m 157.199,554.398 3.602,1.204 2.398,6 -2.398,7.199 -4.801,3.597 -6,-3.597 -1.199,-8.403 2.398,-3.597 4.801,-2.403" inkscape:connector-curvature="0" id="path16" style="stroke:#000000;stroke-width:8;stroke-miterlimit:4;stroke-dasharray:none;fill:none;stroke-opacity:1"/>
      <path d="m 21.6016,542.398 51.5976,1.204 39.6018,-6 12,-6 3.597,-13.204 1.204,-14.398 -12,-27.602 -4.801,-34.796 6,-42 6,-19.204 L 139.199,342 156,310.801 194.398,243.602 247.199,144 l 6,-38.398 -7.199,-66.0004 -6,-6 L 202.801,30 l -43.199,1.1992 -2.403,-6 L 136.801,22.8008 134.398,18 139.199,13.1992 249.602,16.8008 362.398,12 l 4.801,4.8008 -2.398,7.1992 -18,0 -9.602,8.3984 -66,1.2032 L 264,38.3984 271.199,120 319.199,94.8008 345.602,174 397.199,46.8008 415.199,24 l 18,-10.8008 26.403,0 L 475.199,18 480,26.3984 466.801,60" inkscape:connector-curvature="0" id="path18" style="stroke:#000000;stroke-width:8;stroke-miterlimit:4;stroke-dasharray:none;fill:none;stroke-opacity:1"/>
      <path d="m 148.801,320.398 16.801,-93.597 -1.204,-72 -13.199,-73.1994 -10.801,-36 L 132,36 70.8008,32.3984 64.8008,24 50.3984,22.8008 45.6016,18 l 4.7968,-4.8008 46.8008,3.6016 14.4028,-1.1992" inkscape:connector-curvature="0" id="path20" style="stroke:#000000;stroke-width:8;stroke-miterlimit:4;stroke-dasharray:none;fill:none;stroke-opacity:1"/>
      <path d="m 158.398,31.1992 -22.796,-2.3984 0,0 -12,-2.4024 -8.403,-10.7968 4.801,-2.4024 8.398,8.4024 7.204,1.1992" inkscape:connector-curvature="0" id="path22" style="stroke:#000000;stroke-width:8;stroke-miterlimit:4;stroke-dasharray:none;fill:none;stroke-opacity:1"/>
      <path d="M 157.199,32.3984 184.801,136.801 228,111.602 l 9.602,46.796" inkscape:connector-curvature="0" id="path24" style="stroke:#000000;stroke-width:8;stroke-miterlimit:4;stroke-dasharray:none;fill:none;stroke-opacity:1"/>
      <path d="m 67.1992,31.1992 -20.3984,-2.3984 0,0 L 33.6016,26.3984 26.3984,15.6016 30,13.1992 l 8.3984,8.4024 10.8008,1.1992" inkscape:connector-curvature="0" id="path26" style="stroke:#000000;stroke-width:8;stroke-miterlimit:4;stroke-dasharray:none;fill:none;stroke-opacity:1"/>
      <path d="m 339.602,32.3984 24,-2.3984 12,-3.6016 7.199,-10.7968 -3.602,-2.4024 -9.597,8.4024 -6,1.1992" inkscape:connector-curvature="0" id="path28" style="stroke:#000000;stroke-width:8;stroke-miterlimit:4;stroke-dasharray:none;fill:none;stroke-opacity:1"/>
      <path d="m 594,442.801 560.4,0 0,140.398 -560.4,0 0,-140.398" inkscape:connector-curvature="0" id="path30" style="stroke:#000000;stroke-width:8;stroke-miterlimit:4;stroke-dasharray:none;fill:none;stroke-opacity:1"/>
      <path d="m 746.398,583.199 84,-140.398" inkscape:connector-curvature="0" id="path32" style="stroke:#000000;stroke-width:8;stroke-miterlimit:4;stroke-dasharray:none;fill:none;stroke-opacity:1"/>
      <path d="M 834,583.199 918,442.801" inkscape:connector-curvature="0" id="path34" style="stroke:#000000;stroke-width:8;stroke-miterlimit:4;stroke-dasharray:none;fill:none;stroke-opacity:1"/>
      <path d="M 921.602,583.199 1005.6,442.801" inkscape:connector-curvature="0" id="path36" style="stroke:#000000;stroke-width:8;stroke-miterlimit:4;stroke-dasharray:none;fill:none;stroke-opacity:1"/>
      <path d="M 570,273.602 928.801,13.1992 1000.8,69.6016 1016.4,72 l 13.2,0 152.4,-54 7.2,4.8008 L 1194,30 1192.8,42 570,273.602" inkscape:connector-curvature="0" id="path38" style="stroke:#000000;stroke-width:8;stroke-miterlimit:4;stroke-dasharray:none;fill:none;stroke-opacity:1"/>
    </g>
  </g>
</svg>
