<?xml version="1.0" encoding="UTF-8"?>
<!-- Created with Inkscape (http://www.inkscape.org/) -->
<svg xmlns:dc="http://purl.org/dc/elements/1.1/" xmlns:cc="http://creativecommons.org/ns#" xmlns:rdf="http://www.w3.org/1999/02/22-rdf-syntax-ns#" xmlns:svg="http://www.w3.org/2000/svg" xmlns="http://www.w3.org/2000/svg" xmlns:inkscape="http://www.inkscape.org/namespaces/inkscape" version="1.1" width="765" height="990" id="svg2" xml:space="preserve">
  <metadata id="metadata8">
    <rdf:RDF>
      <cc:Work rdf:about="">
        <dc:format>image/svg+xml</dc:format>
        <dc:type rdf:resource="http://purl.org/dc/dcmitype/StillImage"/>
      </cc:Work>
    </rdf:RDF>
  </metadata>
  <defs id="defs6"/>
  <g transform="matrix(1.25,0,0,-1.25,0,990)" id="g10">
    <g transform="scale(0.1,0.1)" id="g12">
      <path d="m 408,880.801 0,-864.0002 -67.199,0 0,864.0002" inkscape:connector-curvature="0" id="path14" style="stroke:#000000;stroke-width:8;stroke-miterlimit:4;stroke-dasharray:none;fill:none;stroke-opacity:1"/>
      <path d="m 733.199,880.801 -718.8006,0 0,226.799 12,25.2 13.2032,16.8 32.3984,0 19.1992,-4.8 19.1988,-12 63.602,-57.6 57.602,-51.6 45.597,-21.6 54,-13.199 44.403,-3.602 42,3.602 54,13.199 44.398,21.6 57.602,51.6 63.597,57.6 19.199,12 20.403,4.8 31.199,0 13.199,-16.8 12,-25.2 0,-226.799" inkscape:connector-curvature="0" id="path16" style="stroke:#000000;stroke-width:8;stroke-miterlimit:4;stroke-dasharray:none;fill:none;stroke-opacity:1"/>
      <path d="m 241.199,1023.6 57.602,378 26.398,31.2 18,13.2 26.403,9.6 9.597,0 25.199,-9.6 19.204,-13.2 25.199,-31.2 57.597,-378" inkscape:connector-curvature="0" id="path18" style="stroke:#000000;stroke-width:8;stroke-miterlimit:4;stroke-dasharray:none;fill:none;stroke-opacity:1"/>
      <path d="m 558,1088.4 -26.398,2.4 -15.602,13.2 -9.602,16.8 -6,15.6 2.403,28.8 13.199,19.2 15.602,8.4 26.398,7.2 25.199,-3.6 19.199,-12 13.204,-19.2 0,-42 -13.204,-15.6 -19.199,-16.8 -25.199,-2.4" inkscape:connector-curvature="0" id="path20" style="stroke:#000000;stroke-width:8;stroke-miterlimit:4;stroke-dasharray:none;fill:none;stroke-opacity:1"/>
      <path d="m 202.801,1090.8 -28.801,0 -28.801,16.8 -9.597,19.2 -3.602,15.6 7.199,28.8 21.602,21.6 13.199,7.2 22.801,0 22.801,-3.6 18,-12 10.796,-22.8 0,-19.2 -7.199,-26.4 -9.597,-15.6 -15.602,-6 -13.199,-3.6" inkscape:connector-curvature="0" id="path22" style="stroke:#000000;stroke-width:8;stroke-miterlimit:4;stroke-dasharray:none;fill:none;stroke-opacity:1"/>
      <path d="m 429.602,877.199 93.597,-282 6,-27.597 0,-39.602 L 516,499.199 496.801,481.199 477.602,468 408,458.398" inkscape:connector-curvature="0" id="path24" style="stroke:#000000;stroke-width:8;stroke-miterlimit:4;stroke-dasharray:none;fill:none;stroke-opacity:1"/>
      <path d="M 340.801,458.398 273.602,468 241.199,490.801 222,528 l 0,45.602 99.602,303.597" inkscape:connector-curvature="0" id="path26" style="stroke:#000000;stroke-width:8;stroke-miterlimit:4;stroke-dasharray:none;fill:none;stroke-opacity:1"/>
      <path d="m 1938,1004.4 265.2,254.4" inkscape:connector-curvature="0" id="path28" style="stroke:#000000;stroke-width:8;stroke-miterlimit:4;stroke-dasharray:none;fill:none;stroke-opacity:1"/>
      <path d="m 1842,1040.4 326.4,312" inkscape:connector-curvature="0" id="path30" style="stroke:#000000;stroke-width:8;stroke-miterlimit:4;stroke-dasharray:none;fill:none;stroke-opacity:1"/>
      <path d="m 1779.6,1107.6 325.2,312" inkscape:connector-curvature="0" id="path32" style="stroke:#000000;stroke-width:8;stroke-miterlimit:4;stroke-dasharray:none;fill:none;stroke-opacity:1"/>
      <path d="M 1746,1203.6 2006.4,1452" inkscape:connector-curvature="0" id="path34" style="stroke:#000000;stroke-width:8;stroke-miterlimit:4;stroke-dasharray:none;fill:none;stroke-opacity:1"/>
      <path d="m 2071.2,1437.6 -22.8,6 -22.8,8.4 -24,4.8 -25.2,0 -26.4,-2.4 -22.8,-2.4 -24,-8.4 -22.8,-8.4 -21.6,-9.6 -20.4,-14.4 -16.8,-14.4 -15.6,-15.6 -13.2,-14.4 -12,-18 -13.2,-27.6 -7.2,-19.2 -6,-22.8 -3.6,-22.8 -4.8,-26.4 0,-22.8 4.8,-26.4 6,-21.6 6,-20.4 9.6,-22.8 7.2,-12 7.2,-10.8 20.4,-22.8 20.4,-19.2 19.2,-14.4 21.6,-13.2 25.2,-10.8 24,-7.2 20.4,-5.998 25.2,0 24,-1.204 27.6,3.602 20.4,3.6 25.2,10.8 24,12 16.8,8.4 18,15.6 18,16.8 19.2,18 13.2,22.8 14.4,20.4 10.8,20.4 6,24 2.4,22.8 3.6,26.4 -2.4,22.8 -1.2,26.4 -6,21.6 -8.4,21.6 -10.8,25.2 -13.2,21.6 -14.4,15.6 -16.8,20.4 -20.4,14.4 -20.4,14.4 -21.6,9.6" inkscape:connector-curvature="0" id="path36" style="stroke:#000000;stroke-width:8;stroke-miterlimit:4;stroke-dasharray:none;fill:none;stroke-opacity:1"/>
      <path d="m 1474.8,1452 -15.6,-322.8 -7.2,-274.802 -6,-210 -15.6,-151.199 -13.2,-144 6,-153.597 9.6,-48 6,-37.204 -2.4,-39.5972 -19.2,-25.1992 -28.8,-19.2032 -34.8,-6 -64.8,15.6016 -25.2,19.1992 -42,9.6016 -96,-48 L 729.602,20.3984 714,70.8008 726,97.1992 762,103.199 898.801,132 1014,189.602 l 76.8,28.796 67.2,15.602 48,42 15.6,40.801 3.6,45.597 -6,67.204 -3.6,88.796 -7.2,243.602 -2.4,242.4 -25.2,451.2 294,0" inkscape:connector-curvature="0" id="path38" style="stroke:#000000;stroke-width:8;stroke-miterlimit:4;stroke-dasharray:none;fill:none;stroke-opacity:1"/>
      <path d="m 1934.4,842.398 69.6,0 12,-6 8.4,-28.796 12,0 2.4,15.597 13.2,14.403 14.4,-1.204 7.2,-13.199 0,-10.801 -16.8,-25.199 -6,-26.398 6,-26.403 6,-8.398 16.8,-8.398 18,0 14.4,12 14.4,28.796 9.6,34.801 4.8,38.403 -6,42 -18,27.597 -28.8,22.801 -28.8,10.801 -32.4,0 -22.8,-3.602 -18,-6 -20.4,-15.597 -16.8,-22.801 -12,-21.602" inkscape:connector-curvature="0" id="path40" style="stroke:#000000;stroke-width:8;stroke-miterlimit:4;stroke-dasharray:none;fill:none;stroke-opacity:1"/>
      <path d="m 1947.6,822 9.6,-3.602 14.4,3.602 -13.2,6 -10.8,-2.398" inkscape:connector-curvature="0" id="path42" style="stroke:#000000;stroke-width:8;stroke-miterlimit:4;stroke-dasharray:none;fill:none;stroke-opacity:1"/>
      <path d="M 1939.2,862.801 1930.8,834 1920,810 l -13.2,-19.199 3.6,-6 15.6,-13.199 8.4,-20.403 8.4,-21.597 37.2,0 3.6,-33.602 -6,-8.398 -52.8,-12 -55.2,-31.204 -151.2,-74.398 106.8,133.199 13.2,8.403 21.6,-3.602 24,0 18,9.602 2.4,8.398 0,8.398 -12,12 30,4.801 -3.6,9.602 -45.6,-2.403 -44.4,-3.597 -18,-10.801 -20.4,-15.602 -31.2,-26.398 -64.8,-75.602 -26.4,-37.199 -14.4,-24 -6,-24 2.4,-14.398 15.6,-20.403 25.2,-4.796 32.4,8.398 91.2,34.801 92.4,44.398 12,2.403 9.6,-2.403 22.8,-97.199 9.6,-96 4.8,-27.602 -12,-130.796 -88.8,94.796 -33.6,36 -45.6,32.403 -28.8,3.597 -21.6,0 -20.4,-10.796 -14.4,-14.403 -3.6,-30 26.4,-102 26.4,-96" inkscape:connector-curvature="0" id="path44" style="stroke:#000000;stroke-width:8;stroke-miterlimit:4;stroke-dasharray:none;fill:none;stroke-opacity:1"/>
      <path d="m 1788,392.398 -43.2,-45.597 31.2,-42 14.4,-31.199 9.6,-42 8.4,-54" inkscape:connector-curvature="0" id="path46" style="stroke:#000000;stroke-width:8;stroke-miterlimit:4;stroke-dasharray:none;fill:none;stroke-opacity:1"/>
      <path d="m 2118,273.602 -38.4,-3.602 -126,-32.398 -80.4,-31.204 -81.6,-33.597 -32.4,-16.801 -28.8,-19.199 -24,-27.602 L 1698,88.8008 1698,66 1705.2,50.3984 1716,36 l 33.6,-16.8008 42,0 210,28.8008 54,6 42,-6 70.8,-24 37.2,-4.8008 32.4,0 -2.4,14.4024 -28.8,2.3984 -42,14.3984 -34.8,25.2032 -6,21.5976 -18,3.6018 -26.4,-14.4026 -24,0 -72,17.9996 -43.2,4.801 -90,-8.398 -66,-25.1994 -19.2,27.5974 -30,27.602" inkscape:connector-curvature="0" id="path48" style="stroke:#000000;stroke-width:8;stroke-miterlimit:4;stroke-dasharray:none;fill:none;stroke-opacity:1"/>
      <path d="m 1700.4,66 -40.8,-20.3984 -46.8,-12 0,-15.6016 37.2,0 62.4,21.6016" inkscape:connector-curvature="0" id="path50" style="stroke:#000000;stroke-width:8;stroke-miterlimit:4;stroke-dasharray:none;fill:none;stroke-opacity:1"/>
      <path d="m 2106,100.801 10.8,14.398 4.8,20.403 6,40.796 0,30 -7.2,39.602 -2.4,32.398 0,64.801 8.4,64.801 8.4,73.199 14.4,75.602 14.4,14.398 15.6,-22.801 22.8,-75.597 27.6,-72 -8.4,-39.602 -1.2,-36 1.2,-43.199 7.2,-44.398 -13.2,-37.204 -3.6,-36 2.4,-13.199 3.6,-12 6,0 4.8,20.403 6,0 8.4,-1.204 12,1.204 12,6 3.6,14.398 2.4,12 -4.8,16.801 -9.6,20.398 18,84 6,40.801 2.4,42 -8.4,43.199 -21.6,80.403 -34.8,80.398 -18,40.801 -31.2,34.801 -25.2,9.597 -25.2,2.403 -25.2,2.398 -1.2,26.398" inkscape:connector-curvature="0" id="path52" style="stroke:#000000;stroke-width:8;stroke-miterlimit:4;stroke-dasharray:none;fill:none;stroke-opacity:1"/>
    </g>
  </g>
</svg>
