<?xml version="1.0" encoding="UTF-8"?>
<!-- Created with Inkscape (http://www.inkscape.org/) -->
<svg xmlns:dc="http://purl.org/dc/elements/1.1/" xmlns:cc="http://creativecommons.org/ns#" xmlns:rdf="http://www.w3.org/1999/02/22-rdf-syntax-ns#" xmlns:svg="http://www.w3.org/2000/svg" xmlns="http://www.w3.org/2000/svg" xmlns:inkscape="http://www.inkscape.org/namespaces/inkscape" version="1.1" width="765" height="990" id="svg2" xml:space="preserve">
  <metadata id="metadata8">
    <rdf:RDF>
      <cc:Work rdf:about="">
        <dc:format>image/svg+xml</dc:format>
        <dc:type rdf:resource="http://purl.org/dc/dcmitype/StillImage"/>
      </cc:Work>
    </rdf:RDF>
  </metadata>
  <defs id="defs6"/>
  <g transform="matrix(1.25,0,0,-1.25,0,990)" id="g10">
    <g transform="scale(0.1,0.1)" id="g12">
      <path d="m 327.602,909.602 807.598,0 0,-32.403 32.4,-4.801 50.4,-16.796 34.8,-20.403 45.6,-32.398 39.6,-42 37.2,-51.602 26.4,-50.398 24,-63.602 15.6,-63.597 8.4,-105.602 -8.4,-56.398 -24,-63.602 -28.8,-30 -24,-4.801 -37.2,2.403 -28.8,24 -13.2,28.796 -6,32.403 -2.4,24 8.4,82.801 10.8,90 -8.4,92.398 -24,67.199 -34.8,52.801 -34.8,40.801 -39.6,15.597 -19.2,0 0,-30 -105.6,0 0,-55.199 -157.202,0 0,55.199 -286.796,0 0,-55.199 -151.204,0 0,55.199 -106.796,0" inkscape:connector-curvature="0" id="path14" style="stroke:#000000;stroke-width:8;stroke-miterlimit:4;stroke-dasharray:none;fill:none;stroke-opacity:1"/>
      <path d="M 375.602,909.602 480,1417.2 l 18,32.4 13.199,10.8 15.602,4.8 24,0 24,-13.2 6,-15.6 0,-19.2" inkscape:connector-curvature="0" id="path16" style="stroke:#000000;stroke-width:8;stroke-miterlimit:4;stroke-dasharray:none;fill:none;stroke-opacity:1"/>
      <path d="m 477.602,909.602 105.597,511.198 13.199,22.8 13.204,13.2 24,6 24,-8.4 13.199,-10.8 8.398,-15.6" inkscape:connector-curvature="0" id="path18" style="stroke:#000000;stroke-width:8;stroke-miterlimit:4;stroke-dasharray:none;fill:none;stroke-opacity:1"/>
      <path d="m 572.398,909.602 103.204,507.598 10.796,24 19.204,15.6 21.597,3.6 22.801,-3.6 19.199,-15.6 4.801,-20.4" inkscape:connector-curvature="0" id="path20" style="stroke:#000000;stroke-width:8;stroke-miterlimit:4;stroke-dasharray:none;fill:none;stroke-opacity:1"/>
      <path d="m 668.398,909.602 103.204,502.798 16.796,28.8 18,15.6 31.204,3.6 12,-3.6 15.597,-10.8 7.199,-25.2" inkscape:connector-curvature="0" id="path22" style="stroke:#000000;stroke-width:8;stroke-miterlimit:4;stroke-dasharray:none;fill:none;stroke-opacity:1"/>
      <path d="M 769.199,909.602 870,1410 l 10.801,26.4 10.801,15.6 24,10.8 28.796,-6 21.602,-13.2 8.398,-18" inkscape:connector-curvature="0" id="path24" style="stroke:#000000;stroke-width:8;stroke-miterlimit:4;stroke-dasharray:none;fill:none;stroke-opacity:1"/>
      <path d="m 872.398,909.602 96,496.798 8.403,26.4 15.597,21.6 26.402,6 4.8,2.4 25.2,-10.8 15.6,-15.6 0,-15.6" inkscape:connector-curvature="0" id="path26" style="stroke:#000000;stroke-width:8;stroke-miterlimit:4;stroke-dasharray:none;fill:none;stroke-opacity:1"/>
      <path d="m 963.602,909.602 100.798,513.598 9.6,20.4 14.4,13.2 15.6,3.6 24,0 21.6,-8.4 10.8,-15.6 4.8,-26.4 -104.4,-500.398 -733.198,0 0,-34.801 -36,-4.801 L 240,853.199 202.801,832.801 160.801,798 121.199,754.801 60,651.602 40.8008,590.398 22.8008,525.602 14.3984,420 22.8008,364.801 49.1992,302.398 78,273.602 l 21.6016,-4.801 37.1994,2.398 32.398,24 9.602,28.801 6,32.398 2.398,24 -8.398,81.602 -13.199,91.199 8.398,90 20.398,66 36,56.403 33.602,39.597 37.199,16.801 26.403,2.398 0,-24" inkscape:connector-curvature="0" id="path28" style="stroke:#000000;stroke-width:8;stroke-miterlimit:4;stroke-dasharray:none;fill:none;stroke-opacity:1"/>
      <path d="m 738,462 -26.398,0 -40.801,-8.398 -36,-7.204 -25.199,-10.796 -22.801,-16.801 -24,-15.602 -24,-26.398 -19.199,-30 L 506.398,315.602 499.199,276 495.602,232.801 499.199,204 510,166.801 525.602,129.602 546,94.8008 576,68.3984 600,55.1992 626.398,42 l 24,-8.3984 26.403,-2.4024 58.801,-6 37.199,2.4024 37.199,6 31.199,8.3984 21.602,7.1992 19.199,14.4024 15.602,9.5976 18,15.6016 16.796,21.5972 15.602,24 4.801,15.602 8.398,16.801 L 966,186 l 2.398,20.398 6,32.403 -2.398,24 -3.602,26.398 -9.597,32.403 -13.199,33.597 -19.204,21.602 -26.398,26.398 -21.602,15.602 -21.597,16.801 -42,15.597 -37.199,8.403 -37.204,2.398" inkscape:connector-curvature="0" id="path30" style="stroke:#000000;stroke-width:8;stroke-miterlimit:4;stroke-dasharray:none;fill:none;stroke-opacity:1"/>
      <path d="m 624,440.398 -21.602,0 -8.398,8.403 -4.801,8.398 -2.398,15.602 2.398,15.597 7.199,10.801 13.204,4.801 250.796,0 10.801,-4.801 7.199,-10.801 3.602,-13.199 0,-8.398 -3.602,-9.602 -4.796,-8.398 -10.801,-8.403 -21.602,0" inkscape:connector-curvature="0" id="path32" style="stroke:#000000;stroke-width:8;stroke-miterlimit:4;stroke-dasharray:none;fill:none;stroke-opacity:1"/>
      <path d="m 1692,595.199 0,-574.8006 128.4,0 0,574.8006 -128.4,0" inkscape:connector-curvature="0" id="path34" style="stroke:#000000;stroke-width:8;stroke-miterlimit:4;stroke-dasharray:none;fill:none;stroke-opacity:1"/>
      <path d="m 2461.2,447.602 0,-432.0004 99.6,0 0,432.0004 -99.6,0" inkscape:connector-curvature="0" id="path36" style="stroke:#000000;stroke-width:8;stroke-miterlimit:4;stroke-dasharray:none;fill:none;stroke-opacity:1"/>
      <path d="m 2829.6,1455.6 0,-432 94.8,0 0,432 -94.8,0" inkscape:connector-curvature="0" id="path38" style="stroke:#000000;stroke-width:8;stroke-miterlimit:4;stroke-dasharray:none;fill:none;stroke-opacity:1"/>
      <path d="m 3193.2,447.602 0,-432.0004 99.6,0 0,432.0004 -96,0" inkscape:connector-curvature="0" id="path40" style="stroke:#000000;stroke-width:8;stroke-miterlimit:4;stroke-dasharray:none;fill:none;stroke-opacity:1"/>
    </g>
  </g>
</svg>
