<?xml version="1.0" encoding="UTF-8"?>
<!-- Created with Inkscape (http://www.inkscape.org/) -->
<svg xmlns:dc="http://purl.org/dc/elements/1.1/" xmlns:cc="http://creativecommons.org/ns#" xmlns:rdf="http://www.w3.org/1999/02/22-rdf-syntax-ns#" xmlns:svg="http://www.w3.org/2000/svg" xmlns="http://www.w3.org/2000/svg" xmlns:inkscape="http://www.inkscape.org/namespaces/inkscape" version="1.1" width="765" height="990" id="svg2" xml:space="preserve">
  <metadata id="metadata8">
    <rdf:RDF>
      <cc:Work rdf:about="">
        <dc:format>image/svg+xml</dc:format>
        <dc:type rdf:resource="http://purl.org/dc/dcmitype/StillImage"/>
      </cc:Work>
    </rdf:RDF>
  </metadata>
  <defs id="defs6"/>
  <g transform="matrix(1.25,0,0,-1.25,0,990)" id="g10">
    <g transform="scale(0.1,0.1)" id="g12">
      <path d="m 2193.6,928.801 -26.4,0 -38.4,-7.199 -37.2,-8.403 -22.8,-10.801 -24,-15.597 L 2022,871.199 1998,846 1980,817.199 1966.8,786 l -7.2,-39.602 -2.4,-40.796 2.4,-28.801 10.8,-37.199 15.6,-36 20.4,-33.602 28.8,-26.398 22.8,-13.204 26.4,-13.199 24,-7.199 25.2,-2.398 57.6,-6 36,3.597 37.2,4.801 31.2,7.199 20.4,8.403 18,13.199 15.6,9.597 18,15.602 15.6,21.602 15.6,22.796 6,15.602 7.2,15.602 6,19.199 2.4,20.398 4.8,31.199 -2.4,22.801 -2.4,26.403 -10.8,31.199 -13.2,33.597 -18,21.602 -26.4,25.199 -20.4,15.602 -20.4,15.597 -42,15.602 -36,8.398 -37.2,2.403" inkscape:connector-curvature="0" id="path14" style="stroke:#000000;stroke-width:8;stroke-miterlimit:4;stroke-dasharray:none;fill:none;stroke-opacity:1"/>
      <path d="m 2082,908.398 -21.6,0 -7.2,7.204 -4.8,8.398 -3.6,15.602 3.6,15.597 7.2,10.801 13.2,4.801 244.8,0 10.8,-4.801 7.2,-10.801 2.4,-13.199 0,-7.199 -2.4,-10.801 -4.8,-8.398 -10.8,-7.204 -20.4,0" inkscape:connector-curvature="0" id="path16" style="stroke:#000000;stroke-width:8;stroke-miterlimit:4;stroke-dasharray:none;fill:none;stroke-opacity:1"/>
      <path d="m 2571.6,457.199 0,-431.9998 99.6,0 0,431.9998 -99.6,0" inkscape:connector-curvature="0" id="path18" style="stroke:#000000;stroke-width:8;stroke-miterlimit:4;stroke-dasharray:none;fill:none;stroke-opacity:1"/>
      <path d="m 2940,1465.2 0,-432 94.8,0 0,432 -94.8,0" inkscape:connector-curvature="0" id="path20" style="stroke:#000000;stroke-width:8;stroke-miterlimit:4;stroke-dasharray:none;fill:none;stroke-opacity:1"/>
      <path d="m 3303.6,457.199 0,-431.9998 99.6,0 0,431.9998 -96,0" inkscape:connector-curvature="0" id="path22" style="stroke:#000000;stroke-width:8;stroke-miterlimit:4;stroke-dasharray:none;fill:none;stroke-opacity:1"/>
      <path d="m 874.801,1090.8 -37.199,-42 L 824.398,998.398 834,946.801 855.602,908.398 916.801,850.801 1022.4,793.199 1204.8,726 1422,681.602 l 217.2,-26.403 70.8,-6 44.4,-3.597 22.8,7.199 12,12 0,16.801 -15.6,13.199 -86.4,15.597 -54,25.204 -32.4,22.796 -76.8,63.602 -115.2,105.602 -114,89.998 -105.6,57.6 -103.2,40.8 -76.8,22.8 -66.001,2.4 -58.801,-12 L 840,1106.4 808.801,1087.2 792,1071.6 769.199,1068 744,1075.2 l -2.398,21.6 124.796,103.2 25.204,28.8 15.597,34.8 3.602,31.2 -3.602,28.8" inkscape:connector-curvature="0" id="path24" style="stroke:#000000;stroke-width:8;stroke-miterlimit:4;stroke-dasharray:none;fill:none;stroke-opacity:1"/>
      <path d="m 878.398,1346.4 130.802,-60 138,-51.6 121.2,-25.2 128.4,-9.6 94.8,-3.6 70.8,9.6 -98.4,15.6 -112.8,9.6 -124.8,19.2 -88.8,25.2 -109.2,39.6 -82.798,34.8 -50.403,34.8 171.601,-67.2 109.2,-19.2 57.6,-9.6 121.2,-9.6 111.6,7.2 67.2,6 55.2,2.4 -118.8,9.6 -102,10.8 -99.6,2.4 -86.4,13.2 -105.6,21.6 -96.002,28.8 -63.597,28.8 -44.403,30 -34.796,12 -32.403,3.6 -70.801,-9.6 -54,-19.2 -22.796,-16.8 -13.204,-21.6 -2.398,-7.2 0,-25.2 15.602,-25.2 19.199,-7.2 19.199,-6 36,-9.6 37.199,0 22.801,9.6 19.199,3.6 9.602,-16.8 3.597,-28.8 -34.796,-40.8 -57.602,-42 -55.199,-51.6 -25.199,-34.8 -19.204,-28.8 -9.597,-50.4 6,-28.802 38.398,-57.597 99.602,-109.199 60,-54 70.801,-51.602 102,-44.398 61.198,-90 63.6,-73.204 42,-45.597 12,-28.801 19.2,-207.602 0,-134.398 -6,-21.6016 -22.8,-7.1992 L 1032,54 1022.4,50.3984 1003.2,48 l -9.598,-13.1992 0,-19.1992 19.198,9.5976 22.8,-6" inkscape:connector-curvature="0" id="path26" style="stroke:#000000;stroke-width:8;stroke-miterlimit:4;stroke-dasharray:none;fill:none;stroke-opacity:1"/>
      <path d="m 1128,54 -79.2,-13.1992 -13.2,-8.4024 2.4,-16.7968 26.4,13.1992 19.2,-13.1992 127.2,16.7968 99.6,-16.7968 3.6,16.7968 -7.2,15.6016 -25.2,6 -28.8,9.6016 -9.6,3.5976 -9.6,19.1992 -3.6,328.8006 7.2,39.602 0,12 -22.8,42 -22.8,38.398 -73.2,117.602" inkscape:connector-curvature="0" id="path28" style="stroke:#000000;stroke-width:8;stroke-miterlimit:4;stroke-dasharray:none;fill:none;stroke-opacity:1"/>
      <path d="m 1147.2,630 115.2,-13.199 96,3.597 121.2,13.204 61.2,-55.204 73.2,-67.199 34.8,-2.398 34.8,9.597 38.4,31.204 7.2,26.398 -76.8,79.199" inkscape:connector-curvature="0" id="path30" style="stroke:#000000;stroke-width:8;stroke-miterlimit:4;stroke-dasharray:none;fill:none;stroke-opacity:1"/>
      <path d="M 642,1384.8 363.602,1215.6 684,1321.2" inkscape:connector-curvature="0" id="path32" style="stroke:#000000;stroke-width:8;stroke-miterlimit:4;stroke-dasharray:none;fill:none;stroke-opacity:1"/>
      <path d="M 644.398,1340.4 363.602,1215.6" inkscape:connector-curvature="0" id="path34" style="stroke:#000000;stroke-width:8;stroke-miterlimit:4;stroke-dasharray:none;fill:none;stroke-opacity:1"/>
      <path d="M 705.602,1392 690,1381.2 l 9.602,-15.6 15.597,7.2 -6,12" inkscape:connector-curvature="0" id="path36" style="stroke:#000000;stroke-width:8;stroke-miterlimit:4;stroke-dasharray:none;fill:none;stroke-opacity:1"/>
      <path d="m 1320,44.3984 25.2,-6 13.2,-9.5976 2.4,-7.1992 -15.6,-6 -22.8,3.5976" inkscape:connector-curvature="0" id="path38" style="stroke:#000000;stroke-width:8;stroke-miterlimit:4;stroke-dasharray:none;fill:none;stroke-opacity:1"/>
      <path d="M 840,764.398 907.199,636 984,520.801 990,492 782.398,117.602 772.801,102 l -9.602,-15.6016 -21.597,-6 L 664.801,67.1992 613.199,57.6016 594,48 l -13.199,-3.6016 -19.199,-3.5976 -6,-6 -6,-15.6016 19.199,9.6016 21.597,-9.6016" inkscape:connector-curvature="0" id="path40" style="stroke:#000000;stroke-width:8;stroke-miterlimit:4;stroke-dasharray:none;fill:none;stroke-opacity:1"/>
      <path d="m 626.398,38.3984 -13.199,0 -15.597,-3.5976 -7.204,-13.1992 7.204,-2.4024 18,6" inkscape:connector-curvature="0" id="path42" style="stroke:#000000;stroke-width:8;stroke-miterlimit:4;stroke-dasharray:none;fill:none;stroke-opacity:1"/>
      <path d="M 628.801,40.8008 651.602,48 l 51.597,2.3984" inkscape:connector-curvature="0" id="path44" style="stroke:#000000;stroke-width:8;stroke-miterlimit:4;stroke-dasharray:none;fill:none;stroke-opacity:1"/>
      <path d="m 619.199,25.1992 25.199,-9.5976 118.801,13.1992 19.199,3.5976 96,-16.7968 L 882,32.3984 878.398,48 849.602,54 811.199,67.1992" inkscape:connector-curvature="0" id="path46" style="stroke:#000000;stroke-width:8;stroke-miterlimit:4;stroke-dasharray:none;fill:none;stroke-opacity:1"/>
      <path d="m 808.801,69.6016 -3.602,16.7968 198.001,328.8006 48,86.403 0,28.796 -36,122.403" inkscape:connector-curvature="0" id="path48" style="stroke:#000000;stroke-width:8;stroke-miterlimit:4;stroke-dasharray:none;fill:none;stroke-opacity:1"/>
      <path d="m 888,44.3984 22.801,-6 12,-9.5976 3.597,-7.1992 -15.597,-6 L 888,19.1992" inkscape:connector-curvature="0" id="path50" style="stroke:#000000;stroke-width:8;stroke-miterlimit:4;stroke-dasharray:none;fill:none;stroke-opacity:1"/>
      <path d="M 241.199,212.398 554.398,514.801" inkscape:connector-curvature="0" id="path52" style="stroke:#000000;stroke-width:8;stroke-miterlimit:4;stroke-dasharray:none;fill:none;stroke-opacity:1"/>
      <path d="M 128.398,255.602 514.801,625.199" inkscape:connector-curvature="0" id="path54" style="stroke:#000000;stroke-width:8;stroke-miterlimit:4;stroke-dasharray:none;fill:none;stroke-opacity:1"/>
      <path d="M 54,336 439.199,704.398" inkscape:connector-curvature="0" id="path56" style="stroke:#000000;stroke-width:8;stroke-miterlimit:4;stroke-dasharray:none;fill:none;stroke-opacity:1"/>
      <path d="M 14.3984,448.801 322.801,744" inkscape:connector-curvature="0" id="path58" style="stroke:#000000;stroke-width:8;stroke-miterlimit:4;stroke-dasharray:none;fill:none;stroke-opacity:1"/>
      <path d="m 398.398,727.199 -26.398,6 -26.398,10.801 -28.801,3.602 -30,0 -31.199,-2.403 L 229.199,744 200.398,733.199 174,724.801 147.602,711.602 123.602,694.801 104.398,678 85.1992,658.801 70.8008,642 56.3984,620.398 l -18,-31.199 -7.1992,-24 L 24,537.602 l -3.6016,-26.403 -6,-31.199 0,-26.398 6,-31.204 6,-26.398 8.4024,-24 L 45.6016,344.398 54,330 l 8.3984,-10.801 25.2032,-27.597 24.0004,-24 21.597,-16.801 26.403,-14.403 28.796,-14.398 28.801,-7.199 24,-7.199 28.801,0 30,-2.403 33.602,4.801 24,4.801 28.796,12 28.801,14.398 19.199,9.602 L 456,270 l 21.602,19.199 21.597,21.602 16.801,27.597 16.801,24 13.199,24 6,28.801 2.398,26.403 6,31.199 -2.398,26.398 -3.602,32.403 -6,26.398 -10.796,24 -10.801,31.199 -18,24 -16.801,19.199 -19.199,24 -24,16.801 -24,16.801 -26.403,13.199" inkscape:connector-curvature="0" id="path60" style="stroke:#000000;stroke-width:8;stroke-miterlimit:4;stroke-dasharray:none;fill:none;stroke-opacity:1"/>
    </g>
  </g>
</svg>
