<?xml version="1.0" encoding="UTF-8"?>
<!-- Created with Inkscape (http://www.inkscape.org/) -->
<svg xmlns:dc="http://purl.org/dc/elements/1.1/" xmlns:cc="http://creativecommons.org/ns#" xmlns:rdf="http://www.w3.org/1999/02/22-rdf-syntax-ns#" xmlns:svg="http://www.w3.org/2000/svg" xmlns="http://www.w3.org/2000/svg" xmlns:inkscape="http://www.inkscape.org/namespaces/inkscape" version="1.1" width="765" height="990" id="svg2" xml:space="preserve">
  <metadata id="metadata8">
    <rdf:RDF>
      <cc:Work rdf:about="">
        <dc:format>image/svg+xml</dc:format>
        <dc:type rdf:resource="http://purl.org/dc/dcmitype/StillImage"/>
      </cc:Work>
    </rdf:RDF>
  </metadata>
  <defs id="defs6"/>
  <g transform="matrix(1.25,0,0,-1.25,0,990)" id="g10">
    <g transform="scale(0.1,0.1)" id="g12">
      <path d="m 264,1017.6 -55.199,-923.9984 0,-31.2032 32.398,-36 25.199,-6 22.801,-3.5976 19.199,0 25.204,9.5976 L 354,42 366,64.8008 308.398,1017.6" inkscape:connector-curvature="0" id="path14" style="stroke:#000000;stroke-width:8;stroke-miterlimit:4;stroke-dasharray:none;fill:none;stroke-opacity:1"/>
      <path d="m 573.602,1017.6 -15.602,67.2 -28.801,64.8 -42,50.4 -25.199,25.2 -44.398,26.4 -38.403,13.2 -32.398,8.4 -38.403,7.2 -48,0 -60,-13.2 -64.796,-34.8 L 91.1992,1194 72,1171.2 46.8008,1130.4 26.3984,1082.4 18,1050 l -3.6016,-32.4 559.2036,0" inkscape:connector-curvature="0" id="path16" style="stroke:#000000;stroke-width:8;stroke-miterlimit:4;stroke-dasharray:none;fill:none;stroke-opacity:1"/>
      <path d="m 266.398,1276.8 -18,153.6 6,16.8 19.204,8.4 25.199,-2.4 19.199,-6 3.602,-20.4 -13.204,-142.8" inkscape:connector-curvature="0" id="path18" style="stroke:#000000;stroke-width:8;stroke-miterlimit:4;stroke-dasharray:none;fill:none;stroke-opacity:1"/>
      <path d="m 1424.4,1453.2 -15.6,-322.8 -6,-274.798 -7.2,-211.204 -15.6,-151.199 -13.2,-142.801 7.2,-154.796 9.6,-48 6,-37.204 -3.6,-39.5972 -19.2,-25.1992 -28.8,-19.2032 -34.8,-6 -64.8,15.6016 -24,19.1992 -42,9.6016 -96,-48 -397.201,3.5976 -15.597,50.4024 13.199,26.3984 34.801,5.9998 138,28.801 114,57.602 76.798,28.796 68.4,15.602 46.8,42 16.8,40.801 2.4,45.597 -6,67.204 -3.6,90 -6,242.398 -3.6,243.6 -25.2,450 294,0" inkscape:connector-curvature="0" id="path20" style="stroke:#000000;stroke-width:8;stroke-miterlimit:4;stroke-dasharray:none;fill:none;stroke-opacity:1"/>
      <path d="m 2526,1141.2 97.2,38.4 14.4,-3.6 18,-18 18,-46.8 -14.4,-20.4 -21.6,-15.6 -76.8,-34.8" inkscape:connector-curvature="0" id="path22" style="stroke:#000000;stroke-width:8;stroke-miterlimit:4;stroke-dasharray:none;fill:none;stroke-opacity:1"/>
      <path d="m 1976.4,1149.6 -97.2,38.4 -18,-3.6 -14.4,-16.8 -18,-48 6,-20.4 32.4,-14.4 74.4,-36" inkscape:connector-curvature="0" id="path24" style="stroke:#000000;stroke-width:8;stroke-miterlimit:4;stroke-dasharray:none;fill:none;stroke-opacity:1"/>
      <path d="m 2449.2,638.398 -402,0 -73.2,224.403 -20.4,68.398 -12,109.201 4.8,38.4 21.6,58.8 38.4,52.8 64.8,38.4 28.8,27.6 18,26.4 6,20.4 3.6,12 -12,28.8 -20.4,18 -30,15.6 -18,10.8 -8.4,15.6 0,16.8 12,15.6 398.4,0 12,-18 -6,-24 -12,-14.4 -384,0" inkscape:connector-curvature="0" id="path26" style="stroke:#000000;stroke-width:8;stroke-miterlimit:4;stroke-dasharray:none;fill:none;stroke-opacity:1"/>
      <path d="m 2434.8,1377.6 -18,-9.6 -30,-20.4 -12,-20.4 -2.4,-21.6 9.6,-16.8 8.4,-18 16.8,-18 39.6,-24 37.2,-28.8 24,-30 30,-46.8 14.4,-48 6,-46.8 -6,-64.798 -20.4,-88.801 -82.8,-234" inkscape:connector-curvature="0" id="path28" style="stroke:#000000;stroke-width:8;stroke-miterlimit:4;stroke-dasharray:none;fill:none;stroke-opacity:1"/>
      <path d="m 1543.2,37.1992 0,371.9998 16.8,51.602 24,26.398 40.8,30 32.4,4.801 33.6,-8.398 22.8,-8.403 30,-30 42,-70.801 40.8,-60 44.4,-52.796 38.4,-24 44.4,-4.801 44.4,12 30,16.801 28.8,30 68.4,94.796 32.4,40.801 28.8,32.403 30,15.597 26.4,12 26.4,0 24,-7.199 38.4,-16.801 44.4,-44.398 40.8,-56.403 44.4,-62.398 32.4,-32.398 30,-22.801 32.4,-9.602 20.4,-2.398 42,4.801 34.8,27.597 24,26.403 26.4,34.796 20.4,32.403 60,92.398 28.8,24 36,14.403 46.8,0 32.4,-18 26.4,-26.403 27.6,-66 0,-371.9998 -1438.8,0" inkscape:connector-curvature="0" id="path30" style="stroke:#000000;stroke-width:8;stroke-miterlimit:4;stroke-dasharray:none;fill:none;stroke-opacity:1"/>
      <path d="m 3945.6,1090.8 -754.8,0 9.6,63.6 9.6,42 16.8,42 21.6,32.4 19.2,28.8 26.4,34.8 28.8,25.2 34.8,26.4 28.8,19.2 42,18 40.8,13.2 28.8,6 51.6,7.2 38.4,0 34.8,-7.2 38.4,-6 40.8,-9.6 28.8,-9.6 39.6,-25.2 31.2,-22.8 28.8,-22.8 25.2,-31.2 26.4,-34.8 22.8,-36 15.6,-32.4 12,-46.8 9.6,-36 3.6,-38.4" inkscape:connector-curvature="0" id="path32" style="stroke:#000000;stroke-width:8;stroke-miterlimit:4;stroke-dasharray:none;fill:none;stroke-opacity:1"/>
      <path d="M 4207.2,824.398 4424.4,1022.4 4629.6,824.398" inkscape:connector-curvature="0" id="path34" style="stroke:#000000;stroke-width:8;stroke-miterlimit:4;stroke-dasharray:none;fill:none;stroke-opacity:1"/>
      <path d="m 4712.4,914.398 -192,194.402 205.2,194.4" inkscape:connector-curvature="0" id="path36" style="stroke:#000000;stroke-width:8;stroke-miterlimit:4;stroke-dasharray:none;fill:none;stroke-opacity:1"/>
      <path d="m 4635.6,1402.8 -204,-194.4 -205.2,211.2" inkscape:connector-curvature="0" id="path38" style="stroke:#000000;stroke-width:8;stroke-miterlimit:4;stroke-dasharray:none;fill:none;stroke-opacity:1"/>
      <path d="m 4137.6,1332 198,-211.2 -211.2,-200.402" inkscape:connector-curvature="0" id="path40" style="stroke:#000000;stroke-width:8;stroke-miterlimit:4;stroke-dasharray:none;fill:none;stroke-opacity:1"/>
      <path d="m 4392,757.199 90,3.602 51.6,12 44.4,19.199 51.6,34.801 38.4,36 38.4,40.801 25.2,42 25.2,45.597 13.2,44.401 6,50.4 0,51.6 -15.6,88.8 -19.2,48 -28.8,49.2 -32.4,44.4 -48,40.8 -38.4,26.4 -38.4,15.6 -34.8,13.2 -48,9.6 -48,3.6 -63.6,0 -51.6,-13.2 -48,-19.2 -44.4,-25.2 -42,-36 -37.2,-44.4 -36,-44.4 -15.6,-32.4 -13.2,-36 -12,-60 0,-57.6 6,-42 6,-44.4 16.8,-44.4 21.6,-51.602 38.4,-48 38.4,-34.796 44.4,-34.801 45.6,-22.801 54,-19.199 60,-9.602" inkscape:connector-curvature="0" id="path42" style="stroke:#000000;stroke-width:8;stroke-miterlimit:4;stroke-dasharray:none;fill:none;stroke-opacity:1"/>
    </g>
  </g>
</svg>
