<?xml version="1.0" encoding="UTF-8"?>
<!-- Created with Inkscape (http://www.inkscape.org/) -->
<svg xmlns:dc="http://purl.org/dc/elements/1.1/" xmlns:cc="http://creativecommons.org/ns#" xmlns:rdf="http://www.w3.org/1999/02/22-rdf-syntax-ns#" xmlns:svg="http://www.w3.org/2000/svg" xmlns="http://www.w3.org/2000/svg" xmlns:inkscape="http://www.inkscape.org/namespaces/inkscape" version="1.1" width="765" height="990" id="svg2" xml:space="preserve">
  <metadata id="metadata8">
    <rdf:RDF>
      <cc:Work rdf:about="">
        <dc:format>image/svg+xml</dc:format>
        <dc:type rdf:resource="http://purl.org/dc/dcmitype/StillImage"/>
      </cc:Work>
    </rdf:RDF>
  </metadata>
  <defs id="defs6"/>
  <g transform="matrix(1.25,0,0,-1.25,0,990)" id="g10">
    <g transform="scale(0.1,0.1)" id="g12">
      <path d="M 346.801,596.398 378,591.602 423.602,576 466.801,573.602 540,577.199 574.801,588 613.199,589.199 654,585.602 706.801,576 l 51.597,-2.398 48,0 38.403,2.398 37.199,3.602 44.398,-7.204 15.602,-4.796 10.801,6 2.398,180 L 930,756 l -3.602,-25.199 -1.199,-19.199 -10.801,-43.204 -10.796,-19.199 -19.204,-3.597 -24,0 -42,7.199 -66,12 -85.199,19.199 -80.398,19.199 -78,20.403 -67.199,10.796 -63.602,1.204 -75.602,-4.801 -37.199,-9.602 -34.801,-24 -27.597,2.403 -8.403,54 39.602,46.796 20.398,-16.796 -58.796,-30 -42,3.597 -8.403,34.801 -7.199,0 -14.398,-10.801 -19.204,-18 L 96,759.602 85.1992,757.199 72,751.199 56.3984,746.398 37.1992,735.602 l -12,-12 -4.8008,-15.602 -6,-14.398 0,-28.801 3.6016,-19.199 7.1992,-13.204 10.8008,-18 8.3984,-9.597 7.2032,-4.801 24,-14.398 36.0004,-9.602 30,-8.398 196.796,0" inkscape:connector-curvature="0" id="path14" style="stroke:#000000;stroke-width:8;stroke-miterlimit:4;stroke-dasharray:none;fill:none;stroke-opacity:1"/>
      <path d="m 87.6016,757.199 3.5976,-76.801 23.9998,0 -2.398,-8.398 0,-15.602 9.597,-10.796 15.602,0 12,3.597 10.801,7.199 3.597,8.403 180,0 0,-97.199" inkscape:connector-curvature="0" id="path16" style="stroke:#000000;stroke-width:8;stroke-miterlimit:4;stroke-dasharray:none;fill:none;stroke-opacity:1"/>
      <path d="M 126,738 134.398,724.801 130.801,708" inkscape:connector-curvature="0" id="path18" style="stroke:#000000;stroke-width:8;stroke-miterlimit:4;stroke-dasharray:none;fill:none;stroke-opacity:1"/>
      <path d="m 326.398,848.398 116.403,0 -2.403,43.204 12,55.199 10.801,33.597 24,52.802 105.602,187.2 6,40.8 2.398,19.2 -3.597,34.8 -6,22.8 -9.602,28.8 -18,27.6 -13.199,15.6 -34.801,32.4 -26.398,9.6 -56.403,6 -46.801,-6 -19.199,-7.2 -24,-15.6 -20.398,-24 -9.602,-13.2 -9.597,-10.8" inkscape:connector-curvature="0" id="path20" style="stroke:#000000;stroke-width:8;stroke-miterlimit:4;stroke-dasharray:none;fill:none;stroke-opacity:1"/>
      <path d="m 297.602,1378.8 -18,-7.2 -188.4028,-37.2 -18,-13.2 L 60,1311.6 48,1290 l -3.6016,-31.2 1.2032,-7.2 7.1992,-4.8 3.5976,0 9.6016,4.8 3.6016,16.8 12,16.8 16.7968,15.6 19.2036,6 25.199,8.4 157.199,21.6 3.602,1.2 22.796,-3.6" inkscape:connector-curvature="0" id="path22" style="stroke:#000000;stroke-width:8;stroke-miterlimit:4;stroke-dasharray:none;fill:none;stroke-opacity:1"/>
      <path d="m 300,1378.8 26.398,-46.8 0,-25.2" inkscape:connector-curvature="0" id="path24" style="stroke:#000000;stroke-width:8;stroke-miterlimit:4;stroke-dasharray:none;fill:none;stroke-opacity:1"/>
      <path d="m 73.1992,1270.8 18,10.8 28.8008,8.4 75.602,7.2 75.597,9.6 57.602,0 14.398,-1.2 31.199,-8.4 55.204,-9.6 28.796,-2.4 20.403,2.4 24,6 13.199,-8.4 6,-8.4 1.199,-24 L 522,1233.6 512.398,1210.8 427.199,1098 384,1030.8 367.199,996 l -21.597,-40.801 -10.801,-52.801 -8.403,-54" inkscape:connector-curvature="0" id="path26" style="stroke:#000000;stroke-width:8;stroke-miterlimit:4;stroke-dasharray:none;fill:none;stroke-opacity:1"/>
      <path d="m 493.199,1450.8 99.602,-37.2 99.597,-25.2 39.602,-7.2 34.801,-2.4 43.199,0 45.602,2.4 34.796,7.2 36,8.4 3.602,-4.8 -3.602,-13.2 -14.398,-9.6 -46.801,-9.6 -45.597,-6 -52.801,0 -44.403,3.6 -74.398,14.4 -43.199,13.2" inkscape:connector-curvature="0" id="path28" style="stroke:#000000;stroke-width:8;stroke-miterlimit:4;stroke-dasharray:none;fill:none;stroke-opacity:1"/>
      <path d="m 550.801,1413.6 74.398,-40.8 75.602,-38.4 46.801,-22.8 34.796,-14.4 38.403,-9.6 27.597,-3.6 50.403,-6 20.398,3.6 10.801,2.4 7.199,-6 1.199,-12 -27.597,-8.4 -36,-4.8 -38.403,6 -54,12 -46.796,14.4 -43.204,21.6 -109.199,62.4" inkscape:connector-curvature="0" id="path30" style="stroke:#000000;stroke-width:8;stroke-miterlimit:4;stroke-dasharray:none;fill:none;stroke-opacity:1"/>
      <path d="m 388.801,1401.6 -12,-1.2 -9.602,-12 0,-13.2 9.602,-9.6 13.199,0 13.199,6 2.403,7.2 -3.602,12 -9.602,10.8" inkscape:connector-curvature="0" id="path32" style="stroke:#000000;stroke-width:8;stroke-miterlimit:4;stroke-dasharray:none;fill:none;stroke-opacity:1"/>
      <path d="m 62.3984,462 0,-442.8008 77.9996,0 0,442.8008 -77.9996,0" inkscape:connector-curvature="0" id="path34" style="stroke:#000000;stroke-width:8;stroke-miterlimit:4;stroke-dasharray:none;fill:none;stroke-opacity:1"/>
      <path d="m 456,462 0,-442.8008 80.398,0 0,442.8008 -80.398,0" inkscape:connector-curvature="0" id="path36" style="stroke:#000000;stroke-width:8;stroke-miterlimit:4;stroke-dasharray:none;fill:none;stroke-opacity:1"/>
      <path d="m 853.199,462 0,-442.8008 79.199,0 0,442.8008 -79.199,0" inkscape:connector-curvature="0" id="path38" style="stroke:#000000;stroke-width:8;stroke-miterlimit:4;stroke-dasharray:none;fill:none;stroke-opacity:1"/>
    </g>
  </g>
</svg>
