<?xml version="1.0" encoding="UTF-8"?>
<!-- Created with Inkscape (http://www.inkscape.org/) -->
<svg xmlns:dc="http://purl.org/dc/elements/1.1/" xmlns:cc="http://creativecommons.org/ns#" xmlns:rdf="http://www.w3.org/1999/02/22-rdf-syntax-ns#" xmlns:svg="http://www.w3.org/2000/svg" xmlns="http://www.w3.org/2000/svg" xmlns:inkscape="http://www.inkscape.org/namespaces/inkscape" version="1.1" width="765" height="990" id="svg2" xml:space="preserve">
  <metadata id="metadata8">
    <rdf:RDF>
      <cc:Work rdf:about="">
        <dc:format>image/svg+xml</dc:format>
        <dc:type rdf:resource="http://purl.org/dc/dcmitype/StillImage"/>
      </cc:Work>
    </rdf:RDF>
  </metadata>
  <defs id="defs6"/>
  <g transform="matrix(1.25,0,0,-1.25,0,990)" id="g10">
    <g transform="scale(0.1,0.1)" id="g12">
      <path d="m 292.801,960 719.999,0 0,-27.602 28.8,-4.796 45.6,-14.403 30,-19.199 40.8,-27.602 36,-38.398 32.4,-44.398 24,-45.602 21.6,-56.398 13.2,-57.602 7.2,-94.801 -7.2,-49.199 -20.4,-56.398 -26.4,-26.403 -20.4,-4.801 -34.8,2.403 -25.2,21.597 -12,25.204 -4.8,28.796 -2.4,21.602 7.2,73.199 9.6,80.403 -7.2,82.796 -21.6,60 -30,46.801 -31.2,34.801 -36,14.398 -16.8,0 0,-25.199 -93.601,0 0,-50.398 -140.398,0 0,50.398 -255.602,0 0,-50.398 -134.398,0 0,50.398 -96,0" inkscape:connector-curvature="0" id="path14" style="stroke:#000000;stroke-width:8;stroke-miterlimit:4;stroke-dasharray:none;fill:none;stroke-opacity:1"/>
      <path d="m 336,960 92.398,453.6 16.801,27.6 12,9.6 14.403,4.8 20.398,0 21.602,-12 4.796,-14.4 0,-15.6" inkscape:connector-curvature="0" id="path16" style="stroke:#000000;stroke-width:8;stroke-miterlimit:4;stroke-dasharray:none;fill:none;stroke-opacity:1"/>
      <path d="m 426,960 94.801,456 12,20.4 12,12 21.597,4.8 L 588,1446 598.801,1436.4 606,1422" inkscape:connector-curvature="0" id="path18" style="stroke:#000000;stroke-width:8;stroke-miterlimit:4;stroke-dasharray:none;fill:none;stroke-opacity:1"/>
      <path d="m 511.199,960 92.403,453.6 9.597,20.4 16.801,14.4 19.199,2.4 20.403,-2.4 16.796,-14.4 4.801,-18" inkscape:connector-curvature="0" id="path20" style="stroke:#000000;stroke-width:8;stroke-miterlimit:4;stroke-dasharray:none;fill:none;stroke-opacity:1"/>
      <path d="m 596.398,960 92.403,448.8 14.398,25.2 16.801,14.4 28.801,2.4 9.597,-2.4 13.204,-8.4 7.199,-24" inkscape:connector-curvature="0" id="path22" style="stroke:#000000;stroke-width:8;stroke-miterlimit:4;stroke-dasharray:none;fill:none;stroke-opacity:1"/>
      <path d="m 686.398,960 90,445.2 9.602,24 9.602,14.4 21.597,9.6 25.199,-4.8 19.204,-12 7.199,-16.8" inkscape:connector-curvature="0" id="path24" style="stroke:#000000;stroke-width:8;stroke-miterlimit:4;stroke-dasharray:none;fill:none;stroke-opacity:1"/>
      <path d="m 778.801,960 85.199,444 7.199,24 14.403,18 22.796,4.8 6,2.4 20.403,-9.6 14.398,-14.4 0,-13.2" inkscape:connector-curvature="0" id="path26" style="stroke:#000000;stroke-width:8;stroke-miterlimit:4;stroke-dasharray:none;fill:none;stroke-opacity:1"/>
      <path d="m 859.199,960 90,457.2 9.602,19.2 12,12 14.398,2.4 21.601,0 18,-7.2 9.6,-14.4 4.8,-24 -92.399,-445.2 -654,0 0,-30 -32.403,-4.801 L 214.801,910.801 182.398,891.602 144,861.602 109.199,823.199 54,730.801 l -15.6016,-54 -16.7968,-57.602 -7.2032,-93.597 7.2032,-50.403 22.7968,-54 L 70.8008,394.801 90,390 l 32.398,2.398 28.801,21.602 9.602,25.199 4.801,28.801 2.398,21.602 -7.199,73.199 -12,80.398 7.199,80.403 19.199,60 31.199,49.199 30,36 L 270,882 l 22.801,2.398 0,-20.398" inkscape:connector-curvature="0" id="path28" style="stroke:#000000;stroke-width:8;stroke-miterlimit:4;stroke-dasharray:none;fill:none;stroke-opacity:1"/>
      <path d="M 638.398,556.801 609.602,542.398 589.199,516 582,495.602 577.199,474 l 6,-33.602 L 600,420 616.801,405.602 645.602,396 l 21.597,-7.199 25.199,0 28.801,12 24,10.801 14.403,18 16.796,22.796 12,28.801 6,22.801 2.403,24 -2.403,16.801 -4.796,28.801 -12,24 -18,22.796 -19.204,16.801 -16.796,7.199 -16.801,7.204 L 684,654 l -19.199,2.398 -24,0 L 612,654 582,644.398 555.602,630 538.801,616.801 519.602,600 505.199,583.199 492,556.801 477.602,530.398 472.801,507.602 468,474 465.602,440.398 468,415.199 l 2.398,-38.398 14.403,-37.199 20.398,-43.204 38.403,-49.199 60,-57.597 84,-68.403 184.796,-104.3982" inkscape:connector-curvature="0" id="path30" style="stroke:#000000;stroke-width:8;stroke-miterlimit:4;stroke-dasharray:none;fill:none;stroke-opacity:1"/>
      <path d="m 1714.8,1038 -12,31.2 -26.4,51.6 -15.6,25.2 432,0 -25.2,-44.4 -19.2,-44.4 -7.2,-19.2" inkscape:connector-curvature="0" id="path32" style="stroke:#000000;stroke-width:8;stroke-miterlimit:4;stroke-dasharray:none;fill:none;stroke-opacity:1"/>
      <path d="m 1664.4,913.199 -99.6,54 -21.6,-76.801 50.4,-38.398 34.8,-25.199 48,-51.602" inkscape:connector-curvature="0" id="path34" style="stroke:#000000;stroke-width:8;stroke-miterlimit:4;stroke-dasharray:none;fill:none;stroke-opacity:1"/>
      <path d="m 2092.8,913.199 96,54 25.2,-80.398 -45.6,-25.199 -50.4,-48 -34.8,-38.403" inkscape:connector-curvature="0" id="path36" style="stroke:#000000;stroke-width:8;stroke-miterlimit:4;stroke-dasharray:none;fill:none;stroke-opacity:1"/>
      <path d="m 1734,813.602 7.2,19.199 12,22.801 20.4,22.796 24,21.602 45.6,15.602 28.8,3.597 34.8,-3.597 38.4,-12 32.4,-19.204 15.6,-22.796 15.6,-19.204 13.2,-34.796 -50.4,31.199 -38.4,13.199 -32.4,9.602 -26.4,3.597 -31.2,-6 -32.4,-7.199 -37.2,-19.199 -26.4,-19.199 -13.2,-6" inkscape:connector-curvature="0" id="path38" style="stroke:#000000;stroke-width:8;stroke-miterlimit:4;stroke-dasharray:none;fill:none;stroke-opacity:1"/>
      <path d="m 1753.2,471.602 51.6,207.597 22.8,28.801 21.6,9.602 25.2,7.199 36,-7.199 25.2,-19.204 13.2,-21.597 54,-208.801" inkscape:connector-curvature="0" id="path40" style="stroke:#000000;stroke-width:8;stroke-miterlimit:4;stroke-dasharray:none;fill:none;stroke-opacity:1"/>
      <path d="m 1881.6,427.199 -48,3.602 -22.8,6 -19.2,2.398 -31.2,16.801 -22.8,28.801 -19.2,28.801 -13.2,31.199 -8.4,39.597 -13.2,50.403 -19.2,268.801 3.6,48 6,21.597 2.4,19.199 16.8,26.402 19.2,19.2 31.2,19.2 30,9.6 24,2.4 76.8,7.2 90,-7.2 38.4,-6 32.4,-19.2 19.2,-13.2 15.6,-25.2 15.6,-50.401 3.6,-42 -15.6,-234 -6,-63.597 -19.2,-70.801 -13.2,-31.199 -19.2,-32.403 -13.2,-15.597 -19.2,-15.602 -21.6,-13.199 -28.8,-6 -51.6,-3.602" inkscape:connector-curvature="0" id="path42" style="stroke:#000000;stroke-width:8;stroke-miterlimit:4;stroke-dasharray:none;fill:none;stroke-opacity:1"/>
      <path d="m 2472,1056 0,-574.801 127.2,0 0,574.801 -127.2,0" inkscape:connector-curvature="0" id="path44" style="stroke:#000000;stroke-width:8;stroke-miterlimit:4;stroke-dasharray:none;fill:none;stroke-opacity:1"/>
    </g>
  </g>
</svg>
