<?xml version="1.0" encoding="UTF-8"?>
<!-- Created with Inkscape (http://www.inkscape.org/) -->
<svg xmlns:dc="http://purl.org/dc/elements/1.1/" xmlns:cc="http://creativecommons.org/ns#" xmlns:rdf="http://www.w3.org/1999/02/22-rdf-syntax-ns#" xmlns:svg="http://www.w3.org/2000/svg" xmlns="http://www.w3.org/2000/svg" xmlns:inkscape="http://www.inkscape.org/namespaces/inkscape" version="1.1" width="765" height="990" id="svg2" xml:space="preserve">
  <metadata id="metadata8">
    <rdf:RDF>
      <cc:Work rdf:about="">
        <dc:format>image/svg+xml</dc:format>
        <dc:type rdf:resource="http://purl.org/dc/dcmitype/StillImage"/>
      </cc:Work>
    </rdf:RDF>
  </metadata>
  <defs id="defs6"/>
  <g transform="matrix(1.25,0,0,-1.25,0,990)" id="g10">
    <g transform="scale(0.1,0.1)" id="g12">
      <path d="m 382.801,708 151.199,0 -2.398,55.199 14.398,73.199 15.602,43.204 30,67.199 138,243.599 7.199,52.8 2.398,25.2 -4.801,45.6 -7.199,30 -13.199,38.4 -21.602,34.8 -18,19.2 -45.597,43.2 -34.801,13.2 -73.199,7.2 -60,-7.2 -25.199,-10.8 -30,-19.2 -27.602,-31.2 -12,-16.8 -13.199,-15.6" inkscape:connector-curvature="0" id="path14" style="stroke:#000000;stroke-width:8;stroke-miterlimit:4;stroke-dasharray:none;fill:none;stroke-opacity:1"/>
      <path d="m 345.602,1396.8 -22.801,-9.6 -246.0002,-48 -22.8008,-18 -18,-12 -14.3984,-27.6 -6,-40.8 3.5976,-9.6 7.1992,-4.8 4.8008,0 12,4.8 6,21.6 15.6016,24 21.5976,19.2 25.2036,8.4 32.398,9.6 204,27.6 4.801,2.4 30,-4.8" inkscape:connector-curvature="0" id="path16" style="stroke:#000000;stroke-width:8;stroke-miterlimit:4;stroke-dasharray:none;fill:none;stroke-opacity:1"/>
      <path d="m 348,1396.8 34.801,-60 0,-32.4" inkscape:connector-curvature="0" id="path18" style="stroke:#000000;stroke-width:8;stroke-miterlimit:4;stroke-dasharray:none;fill:none;stroke-opacity:1"/>
      <path d="m 54,1255.2 22.8008,16.8 37.1992,9.6 98.398,9.6 97.204,13.2 75.597,0 20.403,-2.4 39.597,-10.8 70.801,-12 37.199,-2.4 28.801,2.4 30,7.2 16.801,-9.6 7.199,-13.2 3.602,-30 -3.602,-25.2 -12,-30 L 513.602,1032 458.398,944.398 435.602,898.801 408,846 393.602,778.801 382.801,708" inkscape:connector-curvature="0" id="path20" style="stroke:#000000;stroke-width:8;stroke-miterlimit:4;stroke-dasharray:none;fill:none;stroke-opacity:1"/>
      <path d="m 598.801,1490.4 130.801,-48 L 858,1410 l 52.801,-10.8 44.398,-2.4 55.201,0 61.2,2.4 44.4,10.8 45.6,9.6 6,-4.8 -6,-18 -18,-12 -60,-13.2 -60,-7.2 -68.401,0 -57.597,4.8 -97.204,18 L 744,1404" inkscape:connector-curvature="0" id="path22" style="stroke:#000000;stroke-width:8;stroke-miterlimit:4;stroke-dasharray:none;fill:none;stroke-opacity:1"/>
      <path d="m 674.398,1442.4 98.403,-52.8 97.199,-50.4 60,-30 45.602,-18 50.398,-12 34.8,-4.8 66,-8.4 27.6,6 13.2,2.4 9.6,-8.4 2.4,-15.6 -38.4,-12 -44.4,-4.8 -50.4,7.2 -70.798,14.4 -60,21.6 -57.602,27.6 -140.398,80.4" inkscape:connector-curvature="0" id="path24" style="stroke:#000000;stroke-width:8;stroke-miterlimit:4;stroke-dasharray:none;fill:none;stroke-opacity:1"/>
      <path d="m 463.199,1426.8 -15.597,-2.4 -12,-14.4 0,-18 12,-12 18,0 18,7.2 2.398,9.6 -4.801,15.6 -12,14.4" inkscape:connector-curvature="0" id="path26" style="stroke:#000000;stroke-width:8;stroke-miterlimit:4;stroke-dasharray:none;fill:none;stroke-opacity:1"/>
      <path d="M 465.602,22.8008 792,337.199" inkscape:connector-curvature="0" id="path28" style="stroke:#000000;stroke-width:8;stroke-miterlimit:4;stroke-dasharray:none;fill:none;stroke-opacity:1"/>
      <path d="M 348,68.3984 750,452.398" inkscape:connector-curvature="0" id="path30" style="stroke:#000000;stroke-width:8;stroke-miterlimit:4;stroke-dasharray:none;fill:none;stroke-opacity:1"/>
      <path d="M 270,151.199 672,536.398" inkscape:connector-curvature="0" id="path32" style="stroke:#000000;stroke-width:8;stroke-miterlimit:4;stroke-dasharray:none;fill:none;stroke-opacity:1"/>
      <path d="M 229.199,268.801 550.801,576" inkscape:connector-curvature="0" id="path34" style="stroke:#000000;stroke-width:8;stroke-miterlimit:4;stroke-dasharray:none;fill:none;stroke-opacity:1"/>
      <path d="m 628.801,558 -27.602,8.398 -27.597,9.602 -30,6 -31.204,0 L 480,579.602 453.602,576 l -30,-9.602 -28.801,-10.796 -27.602,-12 -25.199,-18 -19.199,-16.801 -20.403,-20.403 -15.597,-18 -14.403,-22.796 -18,-32.403 L 247.199,390 240,362.398 l -4.801,-27.597 -6,-32.403 0,-27.597 6,-32.403 7.199,-27.597 7.204,-25.199 12,-28.801 8.398,-14.403 9.602,-13.199 25.199,-26.398 25.199,-25.1994 22.801,-18 L 380.398,48 l 30,-14.3984 30,-8.4024 25.204,-7.1992 30,0 30,-2.3984 36,4.7968 24,4.8008 30,13.1992 31.199,14.4024 L 666,63.6016 688.801,84 l 22.801,19.199 22.796,22.801 18,27.602 16.801,25.199 13.199,25.199 7.204,30 2.398,27.602 4.801,33.597 -2.403,27.602 L 792,355.199 784.801,382.801 774,408 762,440.398 744,465.602 727.199,486 706.801,511.199 681.602,528 l -25.204,18 -27.597,12" inkscape:connector-curvature="0" id="path36" style="stroke:#000000;stroke-width:8;stroke-miterlimit:4;stroke-dasharray:none;fill:none;stroke-opacity:1"/>
      <path d="m 1264.8,501.602 0,-484.8012 85.2,0 0,484.8012 -85.2,0" inkscape:connector-curvature="0" id="path38" style="stroke:#000000;stroke-width:8;stroke-miterlimit:4;stroke-dasharray:none;fill:none;stroke-opacity:1"/>
      <path d="m 1695.6,501.602 0,-484.8012 88.8,0 0,484.8012 -88.8,0" inkscape:connector-curvature="0" id="path40" style="stroke:#000000;stroke-width:8;stroke-miterlimit:4;stroke-dasharray:none;fill:none;stroke-opacity:1"/>
      <path d="m 2132.4,501.602 0,-484.8012 85.2,0 0,484.8012 -85.2,0" inkscape:connector-curvature="0" id="path42" style="stroke:#000000;stroke-width:8;stroke-miterlimit:4;stroke-dasharray:none;fill:none;stroke-opacity:1"/>
      <path d="m 2097.6,670.801 -34.8,2.398 -38.4,8.403 -28.8,16.796 -25.2,15.602 -43.2,45.602 -39.6,45.597 -38.4,51.602 -18,40.801 -14.4,32.398 -18,58.801 -6,70.799 6,32.4 18,37.2 32.4,40.8 -50.4,15.6 -37.2,30 -62.4,82.8 43.2,-126 28.8,-105.6 6,-54 7.2,-43.198 14.4,-43.204 13.2,-37.199 21.6,-34.801 21.6,-38.398 27.6,-28.801 28.8,-33.597 24,-26.403 19.2,-19.199 13.2,-9.602 -56.4,18 -58.8,21.602 -54,26.398 -56.4,57.602 -32.4,45.602 -24,40.796 -25.2,52.801 -21.6,62.401 -15.6,60 -8.4,56.4 -4.8,45.6 4.8,48 13.2,38.4 46.8,62.4 24,26.4 -62.4,26.4 -48,38.4 -54,75.6 32.4,-114 32.4,-110.4 -6,-74.4 2.4,-57.6 12,-56.4 7.2,-51.6 15.6,-45.601 16.8,-40.801 19.2,-39.597 26.4,-51.602 68.4,-82.801 -55.2,28.801 -50.4,32.403 -56.4,49.199 -56.4,54 -38.4,58.801 -19.2,56.398 -13.2,62.4 6,58.8 7.2,25.2 16.8,31.2 21.6,25.2 -51.6,26.4 -48,38.4 -62.4,80.4 40.8,-118.8 43.2,-121.2 8.4,-43.2 2.4,-32.4 13.2,-51.6 27.6,-63.601 20.4,-32.398 32.4,-36 27.6,-26.403 37.2,-32.398 38.4,-26.398 48,-30 54,-32.403 127.2,-51.597 104.4,-34.801 78,-13.199 32.4,-6 0,16.796" inkscape:connector-curvature="0" id="path44" style="stroke:#000000;stroke-width:8;stroke-miterlimit:4;stroke-dasharray:none;fill:none;stroke-opacity:1"/>
    </g>
  </g>
</svg>
