<?xml version="1.0" encoding="UTF-8"?>
<!-- Created with Inkscape (http://www.inkscape.org/) -->
<svg xmlns:dc="http://purl.org/dc/elements/1.1/" xmlns:cc="http://creativecommons.org/ns#" xmlns:rdf="http://www.w3.org/1999/02/22-rdf-syntax-ns#" xmlns:svg="http://www.w3.org/2000/svg" xmlns="http://www.w3.org/2000/svg" xmlns:inkscape="http://www.inkscape.org/namespaces/inkscape" version="1.1" width="765" height="990" id="svg2" xml:space="preserve">
  <metadata id="metadata8">
    <rdf:RDF>
      <cc:Work rdf:about="">
        <dc:format>image/svg+xml</dc:format>
        <dc:type rdf:resource="http://purl.org/dc/dcmitype/StillImage"/>
      </cc:Work>
    </rdf:RDF>
  </metadata>
  <defs id="defs6"/>
  <g transform="matrix(1.25,0,0,-1.25,0,990)" id="g10">
    <g transform="scale(0.1,0.1)" id="g12">
      <path d="m 3714,855.602 30,-19.204 24,-7.199 12,0 10.8,10.801 15.6,15.602 76.8,135.597 0,19.201 -3.6,8.4 -7.2,10.8 -27.6,15.6 -632.4,297.6 -15.6,3.6 -19.2,3.6 -19.2,-7.2 -19.2,-12 -8.4,-10.8 -7.2,-24 0,-15.6 7.2,-19.2 12,-15.6 19.2,-19.2 552,-370.798" inkscape:connector-curvature="0" id="path14" style="stroke:#000000;stroke-width:8;stroke-miterlimit:4;stroke-dasharray:none;fill:none;stroke-opacity:1"/>
      <path d="M 2504.4,781.199 2932.8,1194" inkscape:connector-curvature="0" id="path16" style="stroke:#000000;stroke-width:8;stroke-miterlimit:4;stroke-dasharray:none;fill:none;stroke-opacity:1"/>
      <path d="M 2349.6,841.199 2876.4,1345.2" inkscape:connector-curvature="0" id="path18" style="stroke:#000000;stroke-width:8;stroke-miterlimit:4;stroke-dasharray:none;fill:none;stroke-opacity:1"/>
      <path d="M 2247.6,949.199 2774.4,1454.4" inkscape:connector-curvature="0" id="path20" style="stroke:#000000;stroke-width:8;stroke-miterlimit:4;stroke-dasharray:none;fill:none;stroke-opacity:1"/>
      <path d="m 2194.8,1105.2 421.2,402" inkscape:connector-curvature="0" id="path22" style="stroke:#000000;stroke-width:8;stroke-miterlimit:4;stroke-dasharray:none;fill:none;stroke-opacity:1"/>
      <path d="m 2719.2,1484.4 -37.2,9.6 -36,13.2 -39.6,6 -39.6,0 -43.2,-2.4 -36,-3.6 -39.6,-13.2 -36,-13.2 -37.2,-16.8 -32.4,-22.8 -26.4,-22.8 -26.4,-26.4 -19.2,-22.8 -20.4,-30 -22.8,-43.2 -9.6,-32.4 -10.8,-36 -6,-37.2 -6,-43.2 0,-36 6,-43.2 9.6,-36 9.6,-32.398 16.8,-37.204 10.8,-19.199 13.2,-16.801 32.4,-36 32.4,-33.597 30,-22.801 36,-19.199 39.6,-20.403 40.8,-9.597 32.4,-9.602 39.6,0 39.6,-3.597 45.6,7.199 33.6,6 39.6,16.801 39.6,19.199 26.4,13.199 28.8,27.602 30,25.199 30,30 22.8,36 22.8,33.597 16.8,32.402 9.6,39.6 3.6,37.2 6,42 -2.4,36 -3.6,43.2 -9.6,36 -13.2,33.6 -16.8,42 -24,33.6 -21.6,26.4 -27.6,32.4 -32.4,24 -32.4,22.8 -36,16.8" inkscape:connector-curvature="0" id="path24" style="stroke:#000000;stroke-width:8;stroke-miterlimit:4;stroke-dasharray:none;fill:none;stroke-opacity:1"/>
      <path d="m 1116,547.199 60,-168 0,-39.597 -7.2,-22.801 L 1063.2,122.398 1047.6,96 l -24,-9.6016 -22.8,-10.7968 -128.402,-6 -30,-7.2032 L 823.199,49.1992 810,32.3984 l -3.602,-9.5976 16.801,0 15.602,16.8008 16.801,0 7.199,-13.2032 121.199,6 79.2,-9.5976 20.4,3.5976 13.2,22.8008 15.6,-28.8008 14.4,0 2.4,15.6016 -13.2,26.3984 -6,26.4024 16.8,43.1992 49.2,92.398 22.8,52.801 16.8,19.199 19.2,20.403 0,32.398 56.4,99.602" inkscape:connector-curvature="0" id="path26" style="stroke:#000000;stroke-width:8;stroke-miterlimit:4;stroke-dasharray:none;fill:none;stroke-opacity:1"/>
      <path d="M 1112.4,1022.4 1053.6,986.398 987.602,966 l -36,-19.199 -16.801,-30 13.199,-33.602 30,-42 56.4,-36 849.6,-250.801 43.2,-3.597 43.2,0 32.4,13.199 10.8,13.199 -20.4,16.801 -250.8,145.199 -158.4,111.602 -58.8,60 -39.6,38.398 -39.6,26.403 -49.2,33.598 -45.6,28.8 -67.2,27.6 -45.6,9.6 -49.2,6 -60,-2.4 -43.2,-26.4 -55.2,-40.8 -19.2,-6 -23.998,3.6 -13.204,15.6 0,20.4 13.204,22.8 124.798,258 3.6,28.8 3.6,33.6 -3.6,32.4 -12,37.2 -18,25.2 -25.2,13.2 -30,7.2 -30,0 -32.402,-7.2 -33.597,-15.6 L 912,1458 l -13.199,-16.8 -13.199,-26.4 -6,-16.8 0,-32.4 13.199,-33.6 13.199,-13.2 28.801,-16.8 16.801,-6 26.398,-10.8 0,-25.2 -9.602,-52.8 L 942,1154.4 898.801,1107.6 852,1062 793.199,996 774,952.801 766.801,903.602 774,860.398 800.398,811.199 868.801,735.602 1112.4,550.801 1248,475.199 l 46.8,-33.597 32.4,-32.403 30,-52.801 22.8,-45.597 39.6,-178.801 0,-24 -16.8,-8.3984 L 1380,88.8008 1212,66 1195.2,56.3984 1182,36 l -3.6,-13.1992 13.2,-2.4024 16.8,25.2032 7.2,0 6,-25.2032 168,15.6016 60,-13.1992 15.6,7.1992 3.6,19.1992 26.4,-22.8008 13.2,0 3.6,13.2032 -3.6,13.1992 -26.4,26.3984 -16.8,35.9998 -9.6,171.602 9.6,32.398 -9.6,27.602 3.6,75.597 6,22.801 109.2,7.199 39.6,8.403" inkscape:connector-curvature="0" id="path28" style="stroke:#000000;stroke-width:8;stroke-miterlimit:4;stroke-dasharray:none;fill:none;stroke-opacity:1"/>
      <path d="m 1858.8,488.398 68.4,9.602 30,9.602 19.2,9.597 -3.6,10.801 -108,32.398" inkscape:connector-curvature="0" id="path30" style="stroke:#000000;stroke-width:8;stroke-miterlimit:4;stroke-dasharray:none;fill:none;stroke-opacity:1"/>
      <path d="m 1495.2,630 201.6,-254.398 15.6,-15.602 16.8,-3.602 13.2,0 10.8,9.602 0,22.801" inkscape:connector-curvature="0" id="path32" style="stroke:#000000;stroke-width:8;stroke-miterlimit:4;stroke-dasharray:none;fill:none;stroke-opacity:1"/>
      <path d="m 1578,613.199 171.6,-220.801 16.8,-9.597 15.6,-3.602 13.2,7.199 7.2,9.602 0,9.602" inkscape:connector-curvature="0" id="path34" style="stroke:#000000;stroke-width:8;stroke-miterlimit:4;stroke-dasharray:none;fill:none;stroke-opacity:1"/>
      <path d="m 1647.6,600 154.8,-188.398 9.6,-9.602 13.2,-3.602 13.2,13.204 0,16.796" inkscape:connector-curvature="0" id="path36" style="stroke:#000000;stroke-width:8;stroke-miterlimit:4;stroke-dasharray:none;fill:none;stroke-opacity:1"/>
      <path d="m 1725.6,580.801 116.4,-152.403 16.8,-9.597 9.6,0 9.6,6 6,10.801 0,9.597 -88.8,121.199" inkscape:connector-curvature="0" id="path38" style="stroke:#000000;stroke-width:8;stroke-miterlimit:4;stroke-dasharray:none;fill:none;stroke-opacity:1"/>
      <path d="m 944.398,1405.2 7.204,13.2 13.199,9.6 16.801,3.6 12,-7.2 4.796,-13.2 -7.199,-9.6 -13.199,-10.8 -16.801,-2.4 -9.597,9.6 -3.602,20.4" inkscape:connector-curvature="0" id="path40" style="stroke:#000000;stroke-width:8;stroke-miterlimit:4;stroke-dasharray:none;fill:none;stroke-opacity:1"/>
      <path d="m 1021.2,1130.4 253.2,-2.4 0,168 -13.2,49.2 -36,60 -26.4,28.8 -26.4,20.4 -24,15.6 -32.4,18 -22.8,6 -22.8,6 -20.4,0 -19.2,3.6" inkscape:connector-curvature="0" id="path42" style="stroke:#000000;stroke-width:8;stroke-miterlimit:4;stroke-dasharray:none;fill:none;stroke-opacity:1"/>
      <path d="M 889.199,1414.8 868.801,1398 849.602,1377.6 823.199,1362 780,1345.2 l -58.801,-36 -52.801,-46.8 -36,-42 -46.796,-69.6 -19.204,-69.6 -10.796,-39.6 0,-16.8 10.796,-6 6,6 22.801,60 45.602,73.2 46.801,62.4 39.597,36 46.801,33.6 55.199,25.2 36,10.8 27.602,6" inkscape:connector-curvature="0" id="path44" style="stroke:#000000;stroke-width:8;stroke-miterlimit:4;stroke-dasharray:none;fill:none;stroke-opacity:1"/>
      <path d="m 578.398,1029.6 16.801,8.4 50.403,73.2 32.398,46.8 43.199,49.2 49.199,36 45.602,22.8 39.602,19.2 79.199,7.2 30,-2.4" inkscape:connector-curvature="0" id="path46" style="stroke:#000000;stroke-width:8;stroke-miterlimit:4;stroke-dasharray:none;fill:none;stroke-opacity:1"/>
      <path d="m 794.398,248.398 -777.5972,0 9.5976,66 9.6016,43.204 16.8008,42 22.8008,33.597 20.3984,30 26.398,36 30,26.403 36,26.398 28.801,19.199 43.199,20.403 42,13.199 30,6 52.801,7.199 39.602,0 37.199,-7.199 38.398,-6 43.204,-10.801 30,-9.602 39.597,-26.398 33.602,-22.801 28.801,-22.801 26.398,-33.597 26.398,-36 24,-36 L 768,373.199 781.199,324 l 9.602,-36 3.597,-39.602" inkscape:connector-curvature="0" id="path48" style="stroke:#000000;stroke-width:8;stroke-miterlimit:4;stroke-dasharray:none;fill:none;stroke-opacity:1"/>
    </g>
  </g>
</svg>
