<?xml version="1.0" encoding="UTF-8"?>
<!-- Created with Inkscape (http://www.inkscape.org/) -->
<svg xmlns:dc="http://purl.org/dc/elements/1.1/" xmlns:cc="http://creativecommons.org/ns#" xmlns:rdf="http://www.w3.org/1999/02/22-rdf-syntax-ns#" xmlns:svg="http://www.w3.org/2000/svg" xmlns="http://www.w3.org/2000/svg" xmlns:inkscape="http://www.inkscape.org/namespaces/inkscape" version="1.1" width="765" height="990" id="svg2" xml:space="preserve">
  <metadata id="metadata8">
    <rdf:RDF>
      <cc:Work rdf:about="">
        <dc:format>image/svg+xml</dc:format>
        <dc:type rdf:resource="http://purl.org/dc/dcmitype/StillImage"/>
      </cc:Work>
    </rdf:RDF>
  </metadata>
  <defs id="defs6"/>
  <g transform="matrix(1.25,0,0,-1.25,0,990)" id="g10">
    <g transform="scale(0.1,0.1)" id="g12">
      <path d="M 331.199,742.801 86.3984,1186.8" inkscape:connector-curvature="0" id="path14" style="stroke:#000000;stroke-width:8;stroke-miterlimit:4;stroke-dasharray:none;fill:none;stroke-opacity:1"/>
      <path d="m 114,1248 c 0,-28.8 -22.8008,-52.8 -51.6016,-52.8 -28.7968,0 -52.79684,24 -52.79684,52.8 0,28.8 24.00004,51.6 52.79684,51.6 C 91.1992,1299.6 114,1276.8 114,1248" inkscape:connector-curvature="0" id="path16" style="stroke:#000000;stroke-width:8;stroke-miterlimit:4;stroke-dasharray:none;fill:none;stroke-opacity:1"/>
      <path d="m 114,1248 c 0,-28.8 -22.8008,-52.8 -51.6016,-52.8 -28.7968,0 -52.79684,24 -52.79684,52.8 0,28.8 24.00004,51.6 52.79684,51.6 C 91.1992,1299.6 114,1276.8 114,1248" inkscape:connector-curvature="0" id="path18" style="stroke:#000000;stroke-width:8;stroke-miterlimit:4;stroke-dasharray:none;fill:none;stroke-opacity:1"/>
      <path d="m 638.398,738 -246,444" inkscape:connector-curvature="0" id="path20" style="stroke:#000000;stroke-width:8;stroke-miterlimit:4;stroke-dasharray:none;fill:none;stroke-opacity:1"/>
      <path d="m 420,1243.2 c 0,-27.6 -22.801,-51.6 -51.602,-51.6 -28.796,0 -51.597,24 -51.597,51.6 0,28.8 22.801,52.8 51.597,52.8 28.801,0 51.602,-24 51.602,-52.8" inkscape:connector-curvature="0" id="path22" style="stroke:#000000;stroke-width:8;stroke-miterlimit:4;stroke-dasharray:none;fill:none;stroke-opacity:1"/>
      <path d="m 420,1243.2 c 0,-27.6 -22.801,-51.6 -51.602,-51.6 -28.796,0 -51.597,24 -51.597,51.6 0,28.8 22.801,52.8 51.597,52.8 28.801,0 51.602,-24 51.602,-52.8" inkscape:connector-curvature="0" id="path24" style="stroke:#000000;stroke-width:8;stroke-miterlimit:4;stroke-dasharray:none;fill:none;stroke-opacity:1"/>
      <path d="m 981.602,744 -246,444" inkscape:connector-curvature="0" id="path26" style="stroke:#000000;stroke-width:8;stroke-miterlimit:4;stroke-dasharray:none;fill:none;stroke-opacity:1"/>
      <path d="m 764.398,1249.2 c 0,-28.8 -24,-51.6 -52.796,-51.6 -27.602,0 -51.602,22.8 -51.602,51.6 0,28.8 24,52.8 51.602,52.8 28.796,0 52.796,-24 52.796,-52.8" inkscape:connector-curvature="0" id="path28" style="stroke:#000000;stroke-width:8;stroke-miterlimit:4;stroke-dasharray:none;fill:none;stroke-opacity:1"/>
      <path d="m 764.398,1249.2 c 0,-28.8 -24,-51.6 -52.796,-51.6 -27.602,0 -51.602,22.8 -51.602,51.6 0,28.8 24,52.8 51.602,52.8 28.796,0 52.796,-24 52.796,-52.8" inkscape:connector-curvature="0" id="path30" style="stroke:#000000;stroke-width:8;stroke-miterlimit:4;stroke-dasharray:none;fill:none;stroke-opacity:1"/>
      <path d="M 1287.6,740.398 1042.8,1184.4" inkscape:connector-curvature="0" id="path32" style="stroke:#000000;stroke-width:8;stroke-miterlimit:4;stroke-dasharray:none;fill:none;stroke-opacity:1"/>
      <path d="m 1070.4,1245.6 c 0,-28.8 -22.8,-51.6 -51.6,-51.6 -28.8,0 -52.8,22.8 -52.8,51.6 0,28.8 24,52.8 52.8,52.8 28.8,0 51.6,-24 51.6,-52.8" inkscape:connector-curvature="0" id="path34" style="stroke:#000000;stroke-width:8;stroke-miterlimit:4;stroke-dasharray:none;fill:none;stroke-opacity:1"/>
      <path d="m 1070.4,1245.6 c 0,-28.8 -22.8,-51.6 -51.6,-51.6 -28.8,0 -52.8,22.8 -52.8,51.6 0,28.8 24,52.8 52.8,52.8 28.8,0 51.6,-24 51.6,-52.8" inkscape:connector-curvature="0" id="path36" style="stroke:#000000;stroke-width:8;stroke-miterlimit:4;stroke-dasharray:none;fill:none;stroke-opacity:1"/>
      <path d="m 9.60156,742.801 0,-76.801 1436.39844,0 0,76.801 -1436.39844,0" inkscape:connector-curvature="0" id="path38" style="stroke:#000000;stroke-width:8;stroke-miterlimit:4;stroke-dasharray:none;fill:none;stroke-opacity:1"/>
      <path d="m 9.60156,666 1436.40004,0 0,76.8008 -1436.40004,0 0,-76.8008 z" inkscape:connector-curvature="0" id="path40" style="stroke:#000000;stroke-width:8;stroke-miterlimit:4;stroke-dasharray:none;fill:none;stroke-opacity:1"/>
      <path d="m 1327.2,559.199 0,-544.8006 121.2,0 0,544.8006 -121.2,0" inkscape:connector-curvature="0" id="path42" style="stroke:#000000;stroke-width:8;stroke-miterlimit:4;stroke-dasharray:none;fill:none;stroke-opacity:1"/>
      <path d="m 486,36 24,-15.6016 19.199,-6 8.403,0 9.597,9.6016 12,12 60,105.602 0,15.597 -3.597,6 -6,8.403 -20.403,12 -495.5974,234 -12,2.398 L 66,423.602 50.3984,417.602 36,408 l -7.1992,-9.602 -4.8008,-18 0,-12 4.8008,-15.597 L 38.3984,342 54,326.398 486,36" inkscape:connector-curvature="0" id="path44" style="stroke:#000000;stroke-width:8;stroke-miterlimit:4;stroke-dasharray:none;fill:none;stroke-opacity:1"/>
    </g>
  </g>
</svg>
