<?xml version="1.0" encoding="UTF-8"?>
<!-- Created with Inkscape (http://www.inkscape.org/) -->
<svg xmlns:dc="http://purl.org/dc/elements/1.1/" xmlns:cc="http://creativecommons.org/ns#" xmlns:rdf="http://www.w3.org/1999/02/22-rdf-syntax-ns#" xmlns:svg="http://www.w3.org/2000/svg" xmlns="http://www.w3.org/2000/svg" xmlns:inkscape="http://www.inkscape.org/namespaces/inkscape" version="1.1" width="765" height="990" id="svg2" xml:space="preserve">
  <metadata id="metadata8">
    <rdf:RDF>
      <cc:Work rdf:about="">
        <dc:format>image/svg+xml</dc:format>
        <dc:type rdf:resource="http://purl.org/dc/dcmitype/StillImage"/>
      </cc:Work>
    </rdf:RDF>
  </metadata>
  <defs id="defs6"/>
  <g transform="matrix(1.25,0,0,-1.25,0,990)" id="g10">
    <g transform="scale(0.1,0.1)" id="g12">
      <path d="m 2293.2,1473.6 -15.6,-324 -6,-274.799 -7.2,-211.199 -15.6,-150 -13.2,-144 7.2,-153.602 9.6,-48 6,-38.398 -3.6,-38.4028 L 2235.6,66 l -28.8,-20.3984 -34.8,-6 -63.6,16.7968 -25.2,19.2032 -42,9.5976 -96,-48 -397.2,2.4024 -15.6,51.5976 13.2,25.1988 34.8,6 138,28.801 115.2,58.801 76.8,28.801 67.2,15.597 46.8,42 16.8,40.801 2.4,45.602 -6,67.199 -2.4,88.801 -7.2,243.597 -3.6,242.402 -25.2,451.2 294,0" inkscape:connector-curvature="0" id="path14" style="stroke:#000000;stroke-width:8;stroke-miterlimit:4;stroke-dasharray:none;fill:none;stroke-opacity:1"/>
      <path d="M 1113.6,326.398 1530,726" inkscape:connector-curvature="0" id="path16" style="stroke:#000000;stroke-width:8;stroke-miterlimit:4;stroke-dasharray:none;fill:none;stroke-opacity:1"/>
      <path d="M 963.602,384 1474.8,873.602" inkscape:connector-curvature="0" id="path18" style="stroke:#000000;stroke-width:8;stroke-miterlimit:4;stroke-dasharray:none;fill:none;stroke-opacity:1"/>
      <path d="M 865.199,489.602 1376.4,979.199" inkscape:connector-curvature="0" id="path20" style="stroke:#000000;stroke-width:8;stroke-miterlimit:4;stroke-dasharray:none;fill:none;stroke-opacity:1"/>
      <path d="M 813.602,640.801 1222.8,1030.8" inkscape:connector-curvature="0" id="path22" style="stroke:#000000;stroke-width:8;stroke-miterlimit:4;stroke-dasharray:none;fill:none;stroke-opacity:1"/>
      <path d="m 1321.2,1008 -34.8,9.6 -34.8,13.2 -38.4,6 -38.4,0 -42,-2.4 -34.8,-3.6 -38.4,-13.2 -34.8,-12 L 988.801,988.801 957.602,966 931.199,944.398 906,918 l -19.199,-22.801 -19.199,-27.597 -22.801,-42 -8.403,-31.204 -10.796,-36 -6,-34.796 -6,-42 0,-34.801 6,-42 9.597,-34.801 9.602,-32.398 15.597,-34.801 10.801,-19.199 12,-16.801 L 909.602,432 942,400.801 970.801,378 1005.6,358.801 1044,339.602 1082.4,330 l 31.2,-9.602 38.4,0 38.4,-3.597 45.6,7.199 31.2,6 38.4,15.602 38.4,19.199 26.4,13.199 27.6,25.199 28.8,26.403 28.8,28.796 22.8,34.801 22.8,32.403 15.6,31.199 9.6,38.398 3.6,36 6,40.801 -3.6,34.801 -2.4,42 -10.8,34.801 -12,32.398 -16.8,42 -21.6,31.199 -21.6,26.403 -26.4,31.199 -32.4,22.801 -31.2,22.796 -36,15.602" inkscape:connector-curvature="0" id="path24" style="stroke:#000000;stroke-width:8;stroke-miterlimit:4;stroke-dasharray:none;fill:none;stroke-opacity:1"/>
      <path d="m 339.602,877.199 0,-860.3982 68.398,0 0,860.3982" inkscape:connector-curvature="0" id="path26" style="stroke:#000000;stroke-width:8;stroke-miterlimit:4;stroke-dasharray:none;fill:none;stroke-opacity:1"/>
      <path d="m 14.3984,880.801 718.8006,0 0,226.799 -13.199,25.2 -12,16.8 -32.398,0 -19.204,-3.6 -19.199,-13.2 -63.597,-57.6 L 516,1024.8 471.602,1002 416.398,990 372,985.199 331.199,990 276,1002 231.602,1024.8 174,1075.2 109.199,1132.8 91.1992,1146 72,1149.6 l -32.3984,0 -13.2032,-16.8 -12,-25.2 0,-226.799" inkscape:connector-curvature="0" id="path28" style="stroke:#000000;stroke-width:8;stroke-miterlimit:4;stroke-dasharray:none;fill:none;stroke-opacity:1"/>
      <path d="m 506.398,1024.8 -57.597,376.8 -25.199,32.4 -19.204,13.2 -25.199,8.4 -10.801,0 -25.199,-8.4 L 324,1434 298.801,1401.6 241.199,1024.8" inkscape:connector-curvature="0" id="path30" style="stroke:#000000;stroke-width:8;stroke-miterlimit:4;stroke-dasharray:none;fill:none;stroke-opacity:1"/>
      <path d="m 2977.2,1322.4 108,0 20.4,-9.6 12,-44.4 19.2,0 3.6,25.2 21.6,21.6 22.8,-2.4 9.6,-19.2 0,-19.2 -25.2,-38.4 -9.6,-42 9.6,-42 8.4,-12 26.4,-13.2 28.8,0 21.6,19.2 22.8,45.6 16.8,54 6,61.2 -9.6,63.6 -28.8,44.4 -44.4,36 -45.6,15.6 -50.4,0 -36,-3.6 -28.8,-9.6 -31.2,-25.2 -25.2,-36 -20.4,-34.8" inkscape:connector-curvature="0" id="path32" style="stroke:#000000;stroke-width:8;stroke-miterlimit:4;stroke-dasharray:none;fill:none;stroke-opacity:1"/>
      <path d="m 2996.4,1291.2 15.6,-7.2 22.8,7.2 -19.2,8.4 -19.2,-2.4" inkscape:connector-curvature="0" id="path34" style="stroke:#000000;stroke-width:8;stroke-miterlimit:4;stroke-dasharray:none;fill:none;stroke-opacity:1"/>
      <path d="m 2983.2,1354.8 -12,-45.6 -16.8,-38.4 -22.8,-28.8 7.2,-9.6 25.2,-21.6 13.2,-32.4 12,-32.4 57.6,0 7.2,-54 -9.6,-12 -84,-20.4 -85.2,-48 -237.6,-117.6 166.8,211.2 21.6,12 32.4,-6 38.4,0 28.8,15.6 3.6,13.2 0,12 -19.2,20.4 48,6 -6,15.6 -70.8,-2.4 -70.8,-6 -27.6,-16.8 -33.6,-25.2 -46.8,-42 -102,-118.799 -42,-57.602 -22.8,-38.398 -9.6,-38.403 3.6,-21.597 25.2,-32.403 38.4,-6 51.6,12 144,55.204 142.8,69.597 20.4,3.602 15.6,-3.602 34.8,-153.597 15.6,-150 7.2,-44.403 L 3006,372 l -138,151.199 -54,54 -70.8,51.602 -44.4,6 -34.8,0 -32.4,-16.801 -22.8,-21.602 -6,-48 42,-159.597 40.8,-151.199" inkscape:connector-curvature="0" id="path36" style="stroke:#000000;stroke-width:8;stroke-miterlimit:4;stroke-dasharray:none;fill:none;stroke-opacity:1"/>
      <path d="m 2746.8,615.602 -67.2,-70.801 48,-67.199 21.6,-48 16.8,-67.204 12,-82.796" inkscape:connector-curvature="0" id="path38" style="stroke:#000000;stroke-width:8;stroke-miterlimit:4;stroke-dasharray:none;fill:none;stroke-opacity:1"/>
      <path d="m 3265.2,429.602 -61.2,-6 L 3006,372 2881.2,324 2752.8,270 2702.4,243.602 2656.8,216 l -38.4,-44.398 -12,-33.602 0,-34.801 L 2616,78 2635.2,55.1992 2685.6,30 l 67.2,0 330,44.3984 L 3165.6,84 3232.8,74.3984 3344.4,36 l 57.6,-6 51.6,0 -3.6,22.8008 -44.4,2.3984 -67.2,22.8008 -55.2,42 -8.4,31.199 -28.8,7.199 -42,-22.796 -38.4,0 -111.6,28.796 -67.2,7.204 -140.4,-13.204 -105.6,-38.398 -28.8,40.801 -48,45.597" inkscape:connector-curvature="0" id="path40" style="stroke:#000000;stroke-width:8;stroke-miterlimit:4;stroke-dasharray:none;fill:none;stroke-opacity:1"/>
      <path d="M 2608.8,103.199 2545.2,72 2472,52.8008 l 0,-26.4024 57.6,0 99.6,34.8008" inkscape:connector-curvature="0" id="path42" style="stroke:#000000;stroke-width:8;stroke-miterlimit:4;stroke-dasharray:none;fill:none;stroke-opacity:1"/>
      <path d="m 3246,158.398 15.6,21.602 9.6,32.398 9.6,63.602 0,48 -13.2,61.199 -2.4,50.403 0,103.199 12,102 13.2,115.199 21.6,118.801 22.8,22.801 25.2,-36 36,-118.801 44.4,-114 -12,-61.199 -3.6,-57.602 3.6,-67.199 8.4,-70.801 -19.2,-57.602 -6,-57.597 3.6,-19.199 6,-19.204 9.6,0 6,32.403 9.6,0 13.2,-3.602 19.2,3.602 19.2,9.597 7.2,22.801 2.4,18 -6,26.403 -16.8,32.398 28.8,130.801 9.6,63.597 3.6,67.204 -13.2,67.199 -34.8,128.398 -54,123.602 -28.8,64.799 -48,54 -38.4,15.6 -42,4.8 -38.4,2.4 -2.4,42" inkscape:connector-curvature="0" id="path44" style="stroke:#000000;stroke-width:8;stroke-miterlimit:4;stroke-dasharray:none;fill:none;stroke-opacity:1"/>
    </g>
  </g>
</svg>
