<?xml version="1.0" encoding="UTF-8"?>
<!-- Created with Inkscape (http://www.inkscape.org/) -->
<svg xmlns:dc="http://purl.org/dc/elements/1.1/" xmlns:cc="http://creativecommons.org/ns#" xmlns:rdf="http://www.w3.org/1999/02/22-rdf-syntax-ns#" xmlns:svg="http://www.w3.org/2000/svg" xmlns="http://www.w3.org/2000/svg" xmlns:inkscape="http://www.inkscape.org/namespaces/inkscape" version="1.1" width="765" height="990" id="svg2" xml:space="preserve">
  <metadata id="metadata8">
    <rdf:RDF>
      <cc:Work rdf:about="">
        <dc:format>image/svg+xml</dc:format>
        <dc:type rdf:resource="http://purl.org/dc/dcmitype/StillImage"/>
      </cc:Work>
    </rdf:RDF>
  </metadata>
  <defs id="defs6"/>
  <g transform="matrix(1.25,0,0,-1.25,0,990)" id="g10">
    <g transform="scale(0.1,0.1)" id="g12">
      <path d="m 190.801,680.398 116.398,0 48,-150 -210,0 45.602,150" inkscape:connector-curvature="0" id="path14" style="stroke:#000000;stroke-width:8;stroke-miterlimit:4;stroke-dasharray:none;fill:none;stroke-opacity:1"/>
      <path d="M 283.199,680.398 356.398,775.199 381.602,708 378,672 l 6,-34.801 15.602,-38.398 16.796,-22.801 14.403,-13.199 10.801,2.398 3.597,21.602 0,32.398 -2.398,20.403 -8.403,28.796 -14.398,22.801 -7.199,9.602 -14.403,7.199 -4.796,-2.398 -8.403,-8.403" inkscape:connector-curvature="0" id="path16" style="stroke:#000000;stroke-width:8;stroke-miterlimit:4;stroke-dasharray:none;fill:none;stroke-opacity:1"/>
      <path d="m 399.602,708 -28.801,81.602 -1.199,8.398 -4.801,6 -6,0 -93.602,-123.602" inkscape:connector-curvature="0" id="path18" style="stroke:#000000;stroke-width:8;stroke-miterlimit:4;stroke-dasharray:none;fill:none;stroke-opacity:1"/>
      <path d="M 223.199,680.398 141.602,792 l -6,8.398 -4.801,-2.398 -3.602,-6 -34.8006,-86.398 -18,-12 -13.1992,-19.204 -9.5976,-28.796 -4.8008,-20.403 -1.1992,-22.801 1.1992,-15.597 2.3984,-14.403 6,-4.796 L 75.6016,582 90,602.398 l 10.801,13.204 9.597,24 2.403,20.398 2.398,19.199 -2.398,12 -6,8.403 -3.602,1.199 -10.8006,0" inkscape:connector-curvature="0" id="path20" style="stroke:#000000;stroke-width:8;stroke-miterlimit:4;stroke-dasharray:none;fill:none;stroke-opacity:1"/>
      <path d="m 106.801,699.602 26.398,63.597 4.801,9.602 6,-6 63.602,-86.403" inkscape:connector-curvature="0" id="path22" style="stroke:#000000;stroke-width:8;stroke-miterlimit:4;stroke-dasharray:none;fill:none;stroke-opacity:1"/>
      <path d="m 250.801,680.398 0,625.202 12,2.4 8.398,3.6 12,12 6,10.8 6,19.2 2.403,24 2.398,16.8 1.199,14.4 10.801,13.2 8.398,4.8 14.403,2.4 12,3.6 -3.602,7.2 -54,12 -38.398,3.6 -56.403,-3.6 -44.398,-8.4 0,-10.8 12,-1.2 20.398,-13.2 6,-7.2 4.801,-8.4 3.602,-27.6 0,-16.8 6,-21.6 4.801,-13.2 18,-14.4 14.398,-3.6 -2.398,-625.202" inkscape:connector-curvature="0" id="path24" style="stroke:#000000;stroke-width:8;stroke-miterlimit:4;stroke-dasharray:none;fill:none;stroke-opacity:1"/>
      <path d="m 262.801,680.398 93.597,409.202 19.204,0 14.398,10.8 9.602,8.4 8.398,15.6 8.398,25.2 2.403,16.8 6,14.4 16.801,9.6 7.199,2.4 14.398,0 13.199,2.4 -2.398,6 -68.398,28.8 -27.602,9.6 -49.199,4.8 -43.199,1.2 -2.403,-9.6 10.801,-4.8 18,-15.6 6,-10.8 2.398,-8.4 -6,-24 -2.398,-19.2 0,-22.8 2.398,-12 14.403,-20.4 14.398,-6 L 252,680.398" inkscape:connector-curvature="0" id="path26" style="stroke:#000000;stroke-width:8;stroke-miterlimit:4;stroke-dasharray:none;fill:none;stroke-opacity:1"/>
      <path d="m 231.602,680.398 -92.403,409.202 -18,0 -14.398,10.8 -10.801,8.4 -7.1992,15.6 -8.4024,25.2 0,16.8 -8.3984,14.4 -16.8008,12 -22.8008,0 -12,2.4 2.4024,6 49.1992,21.6 34.801,13.2 61.199,8.4 43.199,1.2 2.403,-9.6 -10.801,-4.8 -18,-15.6 -6,-10.8 -2.403,-8.4 6,-24 2.403,-19.2 0,-34.8 L 170.398,1098 156,1092 240,680.398" inkscape:connector-curvature="0" id="path28" style="stroke:#000000;stroke-width:8;stroke-miterlimit:4;stroke-dasharray:none;fill:none;stroke-opacity:1"/>
      <path d="M 108,60 248.398,187.199 379.199,60" inkscape:connector-curvature="0" id="path30" style="stroke:#000000;stroke-width:8;stroke-miterlimit:4;stroke-dasharray:none;fill:none;stroke-opacity:1"/>
      <path d="m 432,117.602 -122.398,124.796 132,126" inkscape:connector-curvature="0" id="path32" style="stroke:#000000;stroke-width:8;stroke-miterlimit:4;stroke-dasharray:none;fill:none;stroke-opacity:1"/>
      <path d="M 382.801,432 252,307.199 121.199,442.801" inkscape:connector-curvature="0" id="path34" style="stroke:#000000;stroke-width:8;stroke-miterlimit:4;stroke-dasharray:none;fill:none;stroke-opacity:1"/>
      <path d="M 63.6016,387.602 190.801,250.801 55.1992,121.199" inkscape:connector-curvature="0" id="path36" style="stroke:#000000;stroke-width:8;stroke-miterlimit:4;stroke-dasharray:none;fill:none;stroke-opacity:1"/>
      <path d="m 226.801,16.8008 57.597,2.3984 33.602,8.4024 28.801,12 32.398,22.7968 24,22.8008 25.199,26.4028 L 445.199,138 462,166.801 469.199,195.602 474,228 l 0,33.602 -10.801,57.597 -12,30 -19.199,31.199 -19.199,28.801 -31.199,27.602 -25.204,15.597 -24,10.801 -22.796,8.403 -30,6 -31.204,2.398 -42,0 L 174,471.602 142.801,458.398 114,442.801 87.6016,420 63.6016,391.199 40.8008,362.398 30,342 l -7.1992,-22.801 -8.4024,-38.398 0,-38.403 L 18,216 22.8008,187.199 32.3984,158.398 46.8008,126 72,94.8008 96,72 124.801,50.3984 153.602,36 l 34.796,-13.1992 38.403,-6" inkscape:connector-curvature="0" id="path38" style="stroke:#000000;stroke-width:8;stroke-miterlimit:4;stroke-dasharray:none;fill:none;stroke-opacity:1"/>
    </g>
  </g>
</svg>
