<?xml version="1.0" encoding="UTF-8"?>
<!-- Created with Inkscape (http://www.inkscape.org/) -->
<svg xmlns:dc="http://purl.org/dc/elements/1.1/" xmlns:cc="http://creativecommons.org/ns#" xmlns:rdf="http://www.w3.org/1999/02/22-rdf-syntax-ns#" xmlns:svg="http://www.w3.org/2000/svg" xmlns="http://www.w3.org/2000/svg" xmlns:inkscape="http://www.inkscape.org/namespaces/inkscape" version="1.1" width="765" height="990" id="svg2" xml:space="preserve">
  <metadata id="metadata8">
    <rdf:RDF>
      <cc:Work rdf:about="">
        <dc:format>image/svg+xml</dc:format>
        <dc:type rdf:resource="http://purl.org/dc/dcmitype/StillImage"/>
      </cc:Work>
    </rdf:RDF>
  </metadata>
  <defs id="defs6"/>
  <g transform="matrix(1.25,0,0,-1.25,0,990)" id="g10">
    <g transform="scale(0.1,0.1)" id="g12">
      <path d="m 1748.4,812.398 -754.798,0 9.598,63.602 9.6,42 15.6,40.801 22.8,32.398 19.2,28.801 25.2,34.8 28.8,26.4 34.8,25.2 28.8,19.2 42,19.2 40.8,13.2 28.8,6 51.6,6 38.4,0 34.8,-6 39.6,-6 40.8,-10.8 28.8,-9.6 38.4,-25.2 32.4,-22.8 28.8,-21.6 25.2,-32.4 25.2,-34.8 22.8,-34.8 15.6,-32.398 13.2,-48 9.6,-34.801 3.6,-38.403" inkscape:connector-curvature="0" id="path14" style="stroke:#000000;stroke-width:8;stroke-miterlimit:4;stroke-dasharray:none;fill:none;stroke-opacity:1"/>
      <path d="m 1758,22.8008 -754.8,0 9.6,63.5976 9.6,41.9996 15.6,42 22.8,32.403 19.2,28.801 26.4,34.796 28.8,25.204 34.8,25.199 28.8,19.199 40.8,19.199 42,13.199 28.8,6 50.4,6 39.6,0 34.8,-6 38.4,-6 40.8,-9.597 28.8,-9.602 39.6,-25.199 31.2,-22.801 28.8,-22.801 25.2,-31.199 26.4,-36 21.6,-34.801 16.8,-32.398 12,-46.8008 9.6,-36 3.6,-38.3984" inkscape:connector-curvature="0" id="path16" style="stroke:#000000;stroke-width:8;stroke-miterlimit:4;stroke-dasharray:none;fill:none;stroke-opacity:1"/>
      <path d="m 3568.8,856.801 -98.4,19.199 -70.8,13.199 -50.4,19.199 -63.6,25.204 -68.4,32.398 -124.8,70.8 -127.2,69.6 -63.6,22.8 -76.8,28.8 -76.8,12 -57.6,13.2 -70.8,0 -69.6,-9.6 -70.8,-22.8 -69.6,-34.8 -76.8,-57.6 -51.6,-48 -51.6,-31.201 -42,-28.801 -34.8,-9.597 -38.4,-15.602 L 2076,912 l -63.6,-9.602" inkscape:connector-curvature="0" id="path18" style="stroke:#000000;stroke-width:8;stroke-miterlimit:4;stroke-dasharray:none;fill:none;stroke-opacity:1"/>
      <path d="m 2079.6,914.398 54,0 48,3.602 48,-9.602 82.8,-19.199 64.8,-25.199 69.6,-15.602 76.8,-20.398 48,-8.398 86.4,-3.602 111.6,9.602 55.2,6 178.8,22.796 70.8,9.602 63.6,6 63.6,6 128.4,7.199 63.6,-7.199 54,-6 55.2,-6 28.8,0" inkscape:connector-curvature="0" id="path20" style="stroke:#000000;stroke-width:8;stroke-miterlimit:4;stroke-dasharray:none;fill:none;stroke-opacity:1"/>
      <path d="m 2463.6,1138.8 -22.8,-32.4 -6,-25.2 -9.6,-32.4 -3.6,-32.4 13.2,-56.4 19.2,-28.801 19.2,-28.801 31.2,-26.398 36,-19.199 73.2,-8.403 54,6 42,6 51.6,36 31.2,37.204 16.8,28.796 8.4,61.202 -6,57.6 -15.6,32.4 -15.6,25.2 -32.4,31.2" inkscape:connector-curvature="0" id="path22" style="stroke:#000000;stroke-width:8;stroke-miterlimit:4;stroke-dasharray:none;fill:none;stroke-opacity:1"/>
      <path d="M 3598.8,87.6016 3500.4,108 l -70.8,12 -50.4,19.199 -63.6,25.199 -68.4,32.403 -124.8,70.801 -127.2,69.597 -63.6,22.801 -76.8,28.801 -76.8,13.199 -57.6,12 -70.8,0 -69.6,-9.602 -70.8,-22.796 -69.6,-34.801 -76.8,-57.602 -51.6,-48 -51.6,-31.199 -42,-28.801 -34.8,-9.597 -38.4,-15.602 -38.4,-13.199 -63.6,-9.602" inkscape:connector-curvature="0" id="path24" style="stroke:#000000;stroke-width:8;stroke-miterlimit:4;stroke-dasharray:none;fill:none;stroke-opacity:1"/>
      <path d="m 2109.6,145.199 54,0 48,3.602 48,-9.602 82.8,-19.199 64.8,-25.1992 69.6,-15.6016 76.8,-20.3984 48,-8.4024 86.4,-3.5976 111.6,9.5976 55.2,6 178.8,22.8008 70.8,9.6016 63.6,6.0002 63.6,7.199 128.4,6 63.6,-6 54,-7.199 55.2,-6.0002 28.8,0" inkscape:connector-curvature="0" id="path26" style="stroke:#000000;stroke-width:8;stroke-miterlimit:4;stroke-dasharray:none;fill:none;stroke-opacity:1"/>
      <path d="m 2493.6,369.602 -22.8,-32.403 -6,-25.199 -9.6,-32.398 -3.6,-31.204 13.2,-57.597 19.2,-28.801 19.2,-28.801 31.2,-25.199 36,-20.3984 73.2,-8.4024 54,6 42,6 51.6,35.9998 31.2,37.199 16.8,28.801 8.4,61.199 -6,57.602 -15.6,32.398 -15.6,25.204 L 2778,402" inkscape:connector-curvature="0" id="path28" style="stroke:#000000;stroke-width:8;stroke-miterlimit:4;stroke-dasharray:none;fill:none;stroke-opacity:1"/>
      <path d="m 394.801,858 15.597,0 9.602,2.398 16.801,13.204 2.398,9.597 3.602,15.602 -6,16.801 -7.199,12 -12,9.597 -16.801,3.602 -19.199,-3.602 -12,-2.398 -9.602,-13.199 -6,-22.801 2.398,-18 L 366,870 l 9.602,-12 9.597,0 9.602,-3.602" inkscape:connector-curvature="0" id="path30" style="stroke:#000000;stroke-width:8;stroke-miterlimit:4;stroke-dasharray:none;fill:none;stroke-opacity:1"/>
      <path d="M 650.398,998.398 637.199,1023.6 621.602,1050 606,1075.2 586.801,1090.8 564,1113.6 542.398,1129.2 516,1142.4 490.801,1152 462,1164 l -28.801,3.6 -28.801,3.6 -25.199,-3.6 -25.199,-3.6 -26.398,-2.4 -25.204,-9.6 -28.796,-13.2 -25.204,-12 -22.796,-16.8 -25.204,-22.8 -16.796,-18 -19.204,-26.4 -13.199,-21.6 -12,-26.399 -7.199,-25.199 -8.398,-34.801 0,-64.801 6,-31.199 6,-32.403 13.199,-25.199 12,-25.199 16.801,-22.801 22.796,-22.801 L 216,691.199 244.801,672 264,656.398 l 31.199,-9.597 30,-9.602 21.602,-9.597 92.398,0 28.801,6 28.801,7.199 22.801,9.597 25.199,15.602 26.398,19.199 18,19.199 19.199,19.204 19.204,28.796 13.199,22.801 13.199,25.199 6,28.801 9.602,28.801 3.597,25.199 0,32.403 -3.597,28.796 -9.602,28.801 -6,25.199" inkscape:connector-curvature="0" id="path32" style="stroke:#000000;stroke-width:8;stroke-miterlimit:4;stroke-dasharray:none;fill:none;stroke-opacity:1"/>
      <path d="m 794.398,26.3984 -240,643.2036" inkscape:connector-curvature="0" id="path34" style="stroke:#000000;stroke-width:8;stroke-miterlimit:4;stroke-dasharray:none;fill:none;stroke-opacity:1"/>
      <path d="m 404.398,20.3984 0,603.6016" inkscape:connector-curvature="0" id="path36" style="stroke:#000000;stroke-width:8;stroke-miterlimit:4;stroke-dasharray:none;fill:none;stroke-opacity:1"/>
      <path d="M 14.3984,26.3984 241.199,666" inkscape:connector-curvature="0" id="path38" style="stroke:#000000;stroke-width:8;stroke-miterlimit:4;stroke-dasharray:none;fill:none;stroke-opacity:1"/>
    </g>
  </g>
</svg>
