<?xml version="1.0" encoding="UTF-8"?>
<!-- Created with Inkscape (http://www.inkscape.org/) -->
<svg xmlns:dc="http://purl.org/dc/elements/1.1/" xmlns:cc="http://creativecommons.org/ns#" xmlns:rdf="http://www.w3.org/1999/02/22-rdf-syntax-ns#" xmlns:svg="http://www.w3.org/2000/svg" xmlns="http://www.w3.org/2000/svg" xmlns:inkscape="http://www.inkscape.org/namespaces/inkscape" version="1.1" width="765" height="990" id="svg2" xml:space="preserve">
  <metadata id="metadata8">
    <rdf:RDF>
      <cc:Work rdf:about="">
        <dc:format>image/svg+xml</dc:format>
        <dc:type rdf:resource="http://purl.org/dc/dcmitype/StillImage"/>
      </cc:Work>
    </rdf:RDF>
  </metadata>
  <defs id="defs6"/>
  <g transform="matrix(1.25,0,0,-1.25,0,990)" id="g10">
    <g transform="scale(0.1,0.1)" id="g12">
      <path d="M 2594.4,55.1992 2625.6,36 l 22.8,-7.1992 12,0 10.8,10.8008 15.6,15.5976 78,135.6018 0,19.199 -4.8,8.398 -7.2,10.801 -27.6,15.602 -632.4,297.597 -15.6,3.602 -19.2,3.602 -19.2,-7.204 -19.2,-12 -7.2,-10.796 -8.4,-24 0,-15.602 8.4,-19.199 10.8,-15.602 19.2,-19.199 552,-370.8008" inkscape:connector-curvature="0" id="path14" style="stroke:#000000;stroke-width:8;stroke-miterlimit:4;stroke-dasharray:none;fill:none;stroke-opacity:1"/>
      <path d="M 993.602,1126.8 954,1083.6 l -13.199,-52.8 9.597,-52.8 22.801,-39.602 63.601,-58.796 108,-60 188.4,-68.403 224.4,-46.801 223.2,-26.398 73.2,-6 45.6,-3.602 22.8,7.204 13.2,13.199 0,15.597 -15.6,13.204 -90,16.796 -55.2,26.403 -33.6,22.801 -79.2,66 -117.6,109.199 -118.8,92.399 -109.2,58.8 -105.6,43.2 -79.2,22.8 -68.4,3.6 -60,-13.2 -45.598,-22.8 -33.602,-20.4 -15.602,-16.8 -24,-2.4 -26.398,6 -3.602,24 128.403,105.6 26.399,28.8 16.8,36 3.6,33.6 -3.6,28.8" inkscape:connector-curvature="0" id="path16" style="stroke:#000000;stroke-width:8;stroke-miterlimit:4;stroke-dasharray:none;fill:none;stroke-opacity:1"/>
      <path d="m 996,1390.8 135.6,-62.4 141.6,-52.8 124.8,-26.4 133.2,-9.6 98.4,-3.6 72,9.6 -102,15.6 -115.2,10.8 -128.4,19.2 -92.4,26.4 -112.8,40.8 -85.2,36 -52.8,36 178.8,-69.6 111.6,-19.2 58.8,-10.8 126,-9.6 115.2,7.2 69.6,6 55.2,3.6 -121.2,9.6 -105.6,10.8 -103.2,2.4 -87.6,13.2 -109.2,22.8 -99.6,30 -64.8,30 -46.8,30 -36,13.2 -33.602,2.4 -72,-9.6 L 792,1472.4 769.199,1456.8 756,1434 l -3.602,-7.2 0,-26.4 16.801,-26.4 20.403,-7.2 19.199,-6 36,-9.6 39.597,0 24,9.6 19.204,3.6 9.597,-16.8 3.602,-30 -37.199,-42 -58.801,-43.2 -55.199,-52.8 -27.602,-36 -19.199,-30 -9.602,-52.8 6,-30 39.602,-58.8 102,-112.801 L 944.398,804 1016.4,751.199 1122,704.398 1184.4,612 l 66,-75.602 42,-45.597 13.2,-30 L 1326,246 1326,108 1320,85.1992 1297.2,78 1155.6,57.6016 l -10.8,-2.4024 -19.2,-3.5976 -10.8,-13.2032 0,-19.1992 20.4,9.6016 22.8,-7.1992" inkscape:connector-curvature="0" id="path18" style="stroke:#000000;stroke-width:8;stroke-miterlimit:4;stroke-dasharray:none;fill:none;stroke-opacity:1"/>
      <path d="m 1254,57.6016 -82.8,-13.2032 -13.2,-9.5976 3.6,-15.6016 26.4,13.1992 19.2,-13.1992 132,15.6016 102,-15.6016 3.6,15.6016 -6,16.8008 -27.6,6 -28.8,10.7968 -9.6,2.4024 -10.8,20.3984 -2.4,339.6018 6,39.597 0,13.204 -22.8,43.199 -22.8,39.597 -76.8,122.403" inkscape:connector-curvature="0" id="path20" style="stroke:#000000;stroke-width:8;stroke-miterlimit:4;stroke-dasharray:none;fill:none;stroke-opacity:1"/>
      <path d="m 1273.2,651.602 118.8,-13.204 98.4,3.602 126,13.199 62.4,-56.398 75.6,-69.602 37.2,-2.398 36,9.597 39.6,33.602 6,26.398 L 1794,678" inkscape:connector-curvature="0" id="path22" style="stroke:#000000;stroke-width:8;stroke-miterlimit:4;stroke-dasharray:none;fill:none;stroke-opacity:1"/>
      <path d="m 752.398,1430.4 -286.796,-175.2 330,109.2" inkscape:connector-curvature="0" id="path24" style="stroke:#000000;stroke-width:8;stroke-miterlimit:4;stroke-dasharray:none;fill:none;stroke-opacity:1"/>
      <path d="M 756,1383.6 465.602,1255.2" inkscape:connector-curvature="0" id="path26" style="stroke:#000000;stroke-width:8;stroke-miterlimit:4;stroke-dasharray:none;fill:none;stroke-opacity:1"/>
      <path d="m 818.398,1436.4 -15.597,-9.6 8.398,-16.8 16.801,7.2 -6,13.2" inkscape:connector-curvature="0" id="path28" style="stroke:#000000;stroke-width:8;stroke-miterlimit:4;stroke-dasharray:none;fill:none;stroke-opacity:1"/>
      <path d="m 1452,48 25.2,-6 13.2,-9.6016 3.6,-7.1992 -16.8,-6 -22.8,2.4024" inkscape:connector-curvature="0" id="path30" style="stroke:#000000;stroke-width:8;stroke-miterlimit:4;stroke-dasharray:none;fill:none;stroke-opacity:1"/>
      <path d="M 957.602,789.602 1026,658.801 1105.2,540 1112.4,510 897.602,124.801 888,108 l -9.602,-16.8008 -24,-6 L 775.199,70.8008 723.602,62.3984 703.199,51.6016 690,48 l -20.398,-3.6016 -6,-6 -7.204,-16.7968 20.403,10.7968 22.801,-10.7968" inkscape:connector-curvature="0" id="path32" style="stroke:#000000;stroke-width:8;stroke-miterlimit:4;stroke-dasharray:none;fill:none;stroke-opacity:1"/>
      <path d="m 735.602,42 -12,0 -16.801,-3.6016 -7.199,-13.1992 7.199,-3.5976 19.199,7.1992" inkscape:connector-curvature="0" id="path34" style="stroke:#000000;stroke-width:8;stroke-miterlimit:4;stroke-dasharray:none;fill:none;stroke-opacity:1"/>
      <path d="M 739.199,44.3984 762,51.6016 816,55.1992" inkscape:connector-curvature="0" id="path36" style="stroke:#000000;stroke-width:8;stroke-miterlimit:4;stroke-dasharray:none;fill:none;stroke-opacity:1"/>
      <path d="M 729.602,28.8008 756,19.1992 878.398,32.3984 897.602,34.8008 996,19.1992 999.602,34.8008 996,51.6016 l -28.801,6 -39.597,13.1992" inkscape:connector-curvature="0" id="path38" style="stroke:#000000;stroke-width:8;stroke-miterlimit:4;stroke-dasharray:none;fill:none;stroke-opacity:1"/>
      <path d="m 924,74.3984 -3.602,16.8008 205.202,339.6018 49.2,88.801 0,30 -37.2,126" inkscape:connector-curvature="0" id="path40" style="stroke:#000000;stroke-width:8;stroke-miterlimit:4;stroke-dasharray:none;fill:none;stroke-opacity:1"/>
      <path d="m 1006.8,48 22.8,-6 13.2,-9.6016 2.4,-7.1992 -15.6,-6 -22.8,2.4024" inkscape:connector-curvature="0" id="path42" style="stroke:#000000;stroke-width:8;stroke-miterlimit:4;stroke-dasharray:none;fill:none;stroke-opacity:1"/>
      <path d="m 794.398,327.602 -777.5972,0 9.5976,64.796 L 36,435.602 52.8008,478.801 75.6016,512.398 96,541.199 l 26.398,36 30,26.403 36,27.597 28.801,19.199 43.199,20.403 42,12 30,7.199 52.801,6 39.602,0 37.199,-6 38.398,-7.199 43.204,-9.602 30,-9.597 39.597,-26.403 33.602,-22.801 28.801,-24 L 702,558 728.398,522 751.199,484.801 768,452.398 l 13.199,-49.199 9.602,-36 3.597,-39.597" inkscape:connector-curvature="0" id="path44" style="stroke:#000000;stroke-width:8;stroke-miterlimit:4;stroke-dasharray:none;fill:none;stroke-opacity:1"/>
    </g>
  </g>
</svg>
