<?xml version="1.0" encoding="UTF-8"?>
<!-- Created with Inkscape (http://www.inkscape.org/) -->
<svg xmlns:dc="http://purl.org/dc/elements/1.1/" xmlns:cc="http://creativecommons.org/ns#" xmlns:rdf="http://www.w3.org/1999/02/22-rdf-syntax-ns#" xmlns:svg="http://www.w3.org/2000/svg" xmlns="http://www.w3.org/2000/svg" xmlns:inkscape="http://www.inkscape.org/namespaces/inkscape" version="1.1" width="765" height="990" id="svg2" xml:space="preserve">
  <metadata id="metadata8">
    <rdf:RDF>
      <cc:Work rdf:about="">
        <dc:format>image/svg+xml</dc:format>
        <dc:type rdf:resource="http://purl.org/dc/dcmitype/StillImage"/>
      </cc:Work>
    </rdf:RDF>
  </metadata>
  <defs id="defs6"/>
  <g transform="matrix(1.25,0,0,-1.25,0,990)" id="g10">
    <g transform="scale(0.1,0.1)" id="g12">
      <path d="M 349.199,279.602 309.602,328.801 260.398,378 220.801,421.199 177.602,468 124.801,519.602 72,559.199 16.8008,600 l 105.5972,942 32.403,-9.6 36,-15.6 30,-24 30,-36 26.398,-43.2 13.199,-45.6 9.602,-39.6 9.602,-52.8 L 356.398,61.1992 294,58.8008 307.199,332.398" inkscape:connector-curvature="0" id="path14" style="stroke:#000000;stroke-width:8;stroke-miterlimit:4;stroke-dasharray:none;fill:none;stroke-opacity:1"/>
      <path d="m 3136.8,34.8008 39.6,9.5976 45.6,7.2032 60,19.1992 19.2,30.0002 19.2,109.199 40.8,132 9.6,32.398 0,30 36,82.801 66,196.801 20.4,50.398 9.6,49.204 6,56.398 -6,66 -9.6,94.8" inkscape:connector-curvature="0" id="path16" style="stroke:#000000;stroke-width:8;stroke-miterlimit:4;stroke-dasharray:none;fill:none;stroke-opacity:1"/>
      <path d="m 3469.2,1176 39.6,7.2 0,51.6 -42,10.8 -10.8,6 -6,3.6 0,58.8 -32.4,30 28.8,22.8 33.6,46.8 6,22.8 22.8,26.4 20.4,19.2 32.4,13.2 30,0 30,-2.4 22.8,-10.8 22.8,-19.2 19.2,-26.4 7.2,-26.4 0,-33.6 -7.2,-36 -8.4,-26.4 -10.8,-25.2 -16.8,-24 -13.2,-30 0,-45.6 56.4,-16.8 16.8,-19.2 13.2,-37.2 -3.6,-38.4 0,-30 -6,-39.6 -3.6,-39.602 -7.2,-56.398 3.6,-75.602 13.2,-32.398 7.2,-27.602 6,-38.398 0,-30 -3.6,-30 -6,-22.801 -9.6,-36 9.6,-105.597 3.6,-49.204 0,-27.597 2.4,-39.602 24,-128.398 2.4,-56.403 3.6,-45.597 3.6,-49.199 6,-43.2036 9.6,-32.3984 -6,-16.8008 -19.2,-6 -20.4,13.1992 -22.8,-10.7968 -145.2,-2.4024 0,15.6016 L 3648,48 l 45.6,22.8008 13.2,24 3.6,22.8012 -45.6,187.199 -3.6,20.398 -10.8,13.199 -6,30 -22.8,109.204" inkscape:connector-curvature="0" id="path18" style="stroke:#000000;stroke-width:8;stroke-miterlimit:4;stroke-dasharray:none;fill:none;stroke-opacity:1"/>
      <path d="m 3508.8,477.602 -22.8,-46.801 -22.8,-43.199 -9.6,-22.801 -10.8,-39.602 -12,-52.801 -27.6,-75.597 -36,-72 -22.8,-54.0002 3.6,-26.4024 -3.6,-12 0,-7.1992 -16.8,-3.5976 -9.6,-2.4024 -13.2,9.6016 -9.6,-9.6016 -162,0 3.6,15.6016" inkscape:connector-curvature="0" id="path20" style="stroke:#000000;stroke-width:8;stroke-miterlimit:4;stroke-dasharray:none;fill:none;stroke-opacity:1"/>
      <path d="m 3403.2,483.602 316.8,0" inkscape:connector-curvature="0" id="path22" style="stroke:#000000;stroke-width:8;stroke-miterlimit:4;stroke-dasharray:none;fill:none;stroke-opacity:1"/>
      <path d="m 3512.4,836.398 188.4,56.403" inkscape:connector-curvature="0" id="path24" style="stroke:#000000;stroke-width:8;stroke-miterlimit:4;stroke-dasharray:none;fill:none;stroke-opacity:1"/>
      <path d="m 3482.4,1413.6 112.8,-49.2 9.6,12 16.8,4.8 9.6,-4.8 0,-19.2 -3.6,-16.8 -6,-13.2 -7.2,-19.2 0,-16.8 16.8,-9.6 16.8,-13.2" inkscape:connector-curvature="0" id="path26" style="stroke:#000000;stroke-width:8;stroke-miterlimit:4;stroke-dasharray:none;fill:none;stroke-opacity:1"/>
      <path d="m 3482.4,1351.2 22.8,6 13.2,-19.2 -32.4,13.2" inkscape:connector-curvature="0" id="path28" style="stroke:#000000;stroke-width:8;stroke-miterlimit:4;stroke-dasharray:none;fill:none;stroke-opacity:1"/>
      <path d="m 3489.6,1000.8 -9.6,39.6 -43.2,16.8 -46.8,0 -55.2,3.6 -69.6,9.6 -19.2,13.2 -16.8,22.8 -26.4,46.8 -20.4,58.8 -16.8,49.2 -15.6,46.8 -3.6,13.2 -26.4,30 -26.4,30 9.6,2.4 33.6,-22.8 6,6 -9.6,20.4 -6,19.2 -13.2,13.2 -20.4,30 0,16.8 13.2,-3.6 22.8,-26.4 13.2,-22.8 9.6,-19.2 10.8,-18 2.4,-25.2 10.8,-16.8 13.2,-16.8 19.2,-22.8 26.4,-43.2 22.8,-32.4 16.8,-40.8 13.2,-28.8 32.4,-9.6 30,0 24,-3.6 32.4,0" inkscape:connector-curvature="0" id="path30" style="stroke:#000000;stroke-width:8;stroke-miterlimit:4;stroke-dasharray:none;fill:none;stroke-opacity:1"/>
      <path d="m 3308.4,1146 -26.4,69.6 -13.2,49.2 -10.8,49.2 -12,52.8 -16.8,16.8 -22.8,20.4 -10.8,15.6 10.8,3.6 28.8,-19.2 7.2,2.4 -20.4,37.2 -13.2,15.6 -16.8,13.2 -13.2,20.4 -2.4,9.6 13.2,-3.6 19.2,-16.8 13.2,-13.2 20.4,-22.8 15.6,-26.4 7.2,-19.2 6,-16.8 10.8,-26.4 19.2,-32.4 19.2,-36 20.4,-46.8 13.2,-30 13.2,-33.6 7.2,-12 13.2,-3.6 81.6,13.2" inkscape:connector-curvature="0" id="path32" style="stroke:#000000;stroke-width:8;stroke-miterlimit:4;stroke-dasharray:none;fill:none;stroke-opacity:1"/>
      <path d="m 2617.2,1364.4 -37.2,-19.2 -27.6,-32.4 -8.4,-27.6 -6,-27.6 8.4,-43.2 21.6,-27.6 21.6,-18 37.2,-12 27.6,-9.6 32.4,0 37.2,15.6 30,14.4 19.2,22.8 20.4,30 15.6,36 9.6,31.2 2.4,30 -2.4,21.6 -6,37.2 -15.6,30 -24,31.2 -25.2,20.4 -20.4,9.6 -21.6,9.6 -31.2,2.4 -24,3.6 -30,0 -37.2,-3.6 -39.6,-12 -33.6,-18 -21.6,-18 -24,-21.6 -19.2,-21.6 -18,-33.6 -18,-33.6 -6,-31.2 -6,-42 -3.6,-43.2 3.6,-33.6 2.4,-49.2 19.2,-48 26.4,-55.2 49.2,-64.798 76.8,-72 110.4,-88.801 237.6,-134.403" inkscape:connector-curvature="0" id="path34" style="stroke:#000000;stroke-width:8;stroke-miterlimit:4;stroke-dasharray:none;fill:none;stroke-opacity:1"/>
      <path d="m 1284,596.398 -777.602,0 9.602,66 9.602,43.204 16.796,43.199 22.801,33.597 20.403,28.801 26.398,36 30,26.403 36,26.398 28.801,20.398 43.199,19.204 42,13.199 30,7.199 52.801,6 39.597,0 37.204,-6 38.398,-7.199 43.2,-9.602 30,-10.801 39.6,-25.199 33.6,-24 28.8,-22.801 26.4,-32.398 26.4,-37.199 24,-36 15.6,-32.403 13.2,-50.398 9.6,-36 3.6,-39.602" inkscape:connector-curvature="0" id="path36" style="stroke:#000000;stroke-width:8;stroke-miterlimit:4;stroke-dasharray:none;fill:none;stroke-opacity:1"/>
      <path d="m 2064,1106.4 -72,7.2 -116.4,-7.2 -85.2,9.6 -26.4,-9.6 -19.2,-26.4 6,-45.6 32.4,-105.599 63.6,-102 204,-243.602 105.6,-99.597 L 2307.6,342 2630.4,25.1992 l 33.6,0 9.6,16.8008 -13.2,28.8008 -138,316.8012 -20.4,60 -105.6,253.199 -94.8,165.597 L 2226,972 l -56.4,75.6 -46.8,72 -49.2,66 -58.8,69.6 -60,39.6 -16.8,69.6 -13.2,75.6 -19.2,49.2 -56.4,13.2 -92.4,0 -102,-3.6 -49.2,-12 -22.8,-7.2 -168,-22.8 -49.2,-24 -16.8,-22.8 -3.6,-45.6 20.4,32.4 32.4,16.8 98.4,0 103.2,-3.6 52.8,-13.2 -43.2,52.8 -9.6,37.2" inkscape:connector-curvature="0" id="path38" style="stroke:#000000;stroke-width:8;stroke-miterlimit:4;stroke-dasharray:none;fill:none;stroke-opacity:1"/>
      <path d="m 1707.6,1417.2 10.8,2.4 6,16.8 -6,16.8 -13.2,9.6 -14.4,-9.6 -2.4,-20.4 6,-9.6 10.8,-6" inkscape:connector-curvature="0" id="path40" style="stroke:#000000;stroke-width:8;stroke-miterlimit:4;stroke-dasharray:none;fill:none;stroke-opacity:1"/>
      <path d="m 1362,1383.6 132,3.6 102,-13.2 30,-16.8 9.6,-32.4 3.6,-36 -30,-73.2 -13.2,-88.8 16.8,-109.2 13.2,-49.202 36,-99.597 43.2,-79.199 102,-174 134.4,-256.801 13.2,-99.602 -16.8,-167.9998 -15.6,-16.8008 -96,-9.5976 -111.6,3.5976 -7.2,-16.7968 -49.2,-7.2032 -6,-9.5976 9.6,-13.1992 283.2,10.7968 294,-13.1992 13.2,13.1992 -7.2,15.6016 -45.6,0 -27.6,22.8008 -166.8,3.5976 -20.4,13.2032 20.4,207.5974 121.2,-62.398 69.6,204 132,-330 45.6,-58.801 46.8,-26.3984 68.4,0 40.8,13.1992 8.4,20.3984 L 2505.6,144" inkscape:connector-curvature="0" id="path42" style="stroke:#000000;stroke-width:8;stroke-miterlimit:4;stroke-dasharray:none;fill:none;stroke-opacity:1"/>
      <path d="m 1688.4,813.602 43.2,-241.204 -3.6,-184.796 -33.6,-187.204 -30,-96 L 1645.2,81.6016 1486.8,70.8008 1471.2,48 1434,44.3984 l -13.2,-9.5976 13.2,-13.1992 122.4,10.7968 36,-3.5976" inkscape:connector-curvature="0" id="path44" style="stroke:#000000;stroke-width:8;stroke-miterlimit:4;stroke-dasharray:none;fill:none;stroke-opacity:1"/>
      <path d="m 1711.2,68.3984 -56.4,-7.1992 0,0 -32.4,-6 -20.4,-26.3984 13.2,-7.1992 20.4,20.3984 19.2,2.3984" inkscape:connector-curvature="0" id="path46" style="stroke:#000000;stroke-width:8;stroke-miterlimit:4;stroke-dasharray:none;fill:none;stroke-opacity:1"/>
      <path d="M 1707.6,70.8008 1780.8,342 l 111.6,-66 24,121.199" inkscape:connector-curvature="0" id="path48" style="stroke:#000000;stroke-width:8;stroke-miterlimit:4;stroke-dasharray:none;fill:none;stroke-opacity:1"/>
      <path d="m 1477.2,68.3984 -52.8,-7.1992 0,0 -32.4,-6 -20.4,-26.3984 9.6,-7.1992 L 1404,42 l 26.4,2.3984" inkscape:connector-curvature="0" id="path50" style="stroke:#000000;stroke-width:8;stroke-miterlimit:4;stroke-dasharray:none;fill:none;stroke-opacity:1"/>
      <path d="m 2179.2,70.8008 62.4,-6 30,-9.6016 19.2,-26.3984 -8.4,-7.1992 -24,20.3984 -16.8,2.3984" inkscape:connector-curvature="0" id="path52" style="stroke:#000000;stroke-width:8;stroke-miterlimit:4;stroke-dasharray:none;fill:none;stroke-opacity:1"/>
    </g>
  </g>
</svg>
