<?xml version="1.0" encoding="UTF-8"?>
<!-- Created with Inkscape (http://www.inkscape.org/) -->
<svg xmlns:dc="http://purl.org/dc/elements/1.1/" xmlns:cc="http://creativecommons.org/ns#" xmlns:rdf="http://www.w3.org/1999/02/22-rdf-syntax-ns#" xmlns:svg="http://www.w3.org/2000/svg" xmlns="http://www.w3.org/2000/svg" xmlns:inkscape="http://www.inkscape.org/namespaces/inkscape" version="1.1" width="765" height="990" id="svg2" xml:space="preserve">
  <metadata id="metadata8">
    <rdf:RDF>
      <cc:Work rdf:about="">
        <dc:format>image/svg+xml</dc:format>
        <dc:type rdf:resource="http://purl.org/dc/dcmitype/StillImage"/>
      </cc:Work>
    </rdf:RDF>
  </metadata>
  <defs id="defs6"/>
  <g transform="matrix(1.25,0,0,-1.25,0,990)" id="g10">
    <g transform="scale(0.1,0.1)" id="g12">
      <path d="m 408,879.602 0,-864.0004 -67.199,0 0,864.0004" inkscape:connector-curvature="0" id="path14" style="stroke:#000000;stroke-width:8;stroke-miterlimit:4;stroke-dasharray:none;fill:none;stroke-opacity:1"/>
      <path d="m 733.199,879.602 -718.8006,0 0,226.798 12,26.4 13.2032,15.6 32.3984,0 19.1992,-3.6 19.1988,-12 63.602,-57.6 57.602,-51.6 44.398,-22.8 55.199,-11.999 44.403,-3.602 40.796,3.602 55.204,11.999 44.398,22.8 57.602,51.6 63.597,57.6 19.199,12 19.204,3.6 32.398,0 12,-15.6 13.199,-26.4 0,-226.798" inkscape:connector-curvature="0" id="path16" style="stroke:#000000;stroke-width:8;stroke-miterlimit:4;stroke-dasharray:none;fill:none;stroke-opacity:1"/>
      <path d="m 241.199,1023.6 57.602,378 26.398,31.2 18,13.2 25.199,9.6 10.801,0 25.199,-9.6 19.204,-13.2 25.199,-31.2 57.597,-378" inkscape:connector-curvature="0" id="path18" style="stroke:#000000;stroke-width:8;stroke-miterlimit:4;stroke-dasharray:none;fill:none;stroke-opacity:1"/>
      <path d="m 558,1087.2 -26.398,3.6 -15.602,13.2 -9.602,15.6 -6,15.6 2.403,28.8 13.199,19.2 15.602,9.6 26.398,7.2 25.199,-3.6 19.199,-13.2 12,-19.2 0,-40.8 -12,-16.8 -19.199,-15.6 -25.199,-3.6" inkscape:connector-curvature="0" id="path20" style="stroke:#000000;stroke-width:8;stroke-miterlimit:4;stroke-dasharray:none;fill:none;stroke-opacity:1"/>
      <path d="m 202.801,1090.8 -28.801,0 -28.801,15.6 -9.597,19.2 -3.602,16.8 7.199,27.6 21.602,22.8 13.199,7.2 22.801,0 22.801,-3.6 18,-13.2 10.796,-21.6 0,-19.2 -7.199,-26.4 -9.597,-15.6 -16.801,-6 -12,-3.6" inkscape:connector-curvature="0" id="path22" style="stroke:#000000;stroke-width:8;stroke-miterlimit:4;stroke-dasharray:none;fill:none;stroke-opacity:1"/>
      <path d="M 429.602,876 522,595.199 529.199,566.398 529.199,528 516,499.199 496.801,480 477.602,466.801 408,457.199" inkscape:connector-curvature="0" id="path24" style="stroke:#000000;stroke-width:8;stroke-miterlimit:4;stroke-dasharray:none;fill:none;stroke-opacity:1"/>
      <path d="m 340.801,457.199 -67.199,9.602 -32.403,22.801 L 222,528 222,572.398 320.398,876" inkscape:connector-curvature="0" id="path26" style="stroke:#000000;stroke-width:8;stroke-miterlimit:4;stroke-dasharray:none;fill:none;stroke-opacity:1"/>
      <path d="M 1503.6,1452 1488,1129.2 1482,854.398 1474.8,643.199 1459.2,492 1446,349.199 l 7.2,-153.597 9.6,-49.204 6,-37.199 -3.6,-39.5974 -19.2,-25.2032 -28.8,-19.1992 -34.8,-6 -63.6,15.6016 -25.2,19.1992 -42,9.6016 -96,-48 L 759.602,19.1992 744,69.6016 756,96 l 36,6 136.801,28.801 115.199,57.597 76.8,28.801 67.2,15.602 46.8,42 16.8,42 3.6,44.398 -7.2,67.199 -2.4,90 -7.2,242.403 -3.6,243.599 -25.2,451.2 294,0" inkscape:connector-curvature="0" id="path28" style="stroke:#000000;stroke-width:8;stroke-miterlimit:4;stroke-dasharray:none;fill:none;stroke-opacity:1"/>
      <path d="m 2019.6,22.8008 -210,0 0,1433.9992 210,0 0,-1433.9992" inkscape:connector-curvature="0" id="path30" style="stroke:#000000;stroke-width:8;stroke-miterlimit:4;stroke-dasharray:none;fill:none;stroke-opacity:1"/>
      <path d="m 1648.8,452.398 160.8,166.801" inkscape:connector-curvature="0" id="path32" style="stroke:#000000;stroke-width:8;stroke-miterlimit:4;stroke-dasharray:none;fill:none;stroke-opacity:1"/>
      <path d="M 1648.8,1028.4 1809.6,861.602" inkscape:connector-curvature="0" id="path34" style="stroke:#000000;stroke-width:8;stroke-miterlimit:4;stroke-dasharray:none;fill:none;stroke-opacity:1"/>
      <path d="m 1809.6,612 -36,7.199 -28.8,12 -28.8,22.801 -12,15.602 -16.8,25.199 -2.4,36 0,25.199 2.4,26.398 13.2,21.602 19.2,22.801 21.6,15.597 22.8,9.602 45.6,7.199" inkscape:connector-curvature="0" id="path36" style="stroke:#000000;stroke-width:8;stroke-miterlimit:4;stroke-dasharray:none;fill:none;stroke-opacity:1"/>
    </g>
  </g>
</svg>
