<?xml version="1.0" encoding="UTF-8"?>
<!-- Created with Inkscape (http://www.inkscape.org/) -->
<svg xmlns:dc="http://purl.org/dc/elements/1.1/" xmlns:cc="http://creativecommons.org/ns#" xmlns:rdf="http://www.w3.org/1999/02/22-rdf-syntax-ns#" xmlns:svg="http://www.w3.org/2000/svg" xmlns="http://www.w3.org/2000/svg" xmlns:inkscape="http://www.inkscape.org/namespaces/inkscape" version="1.1" width="765" height="990" id="svg2" xml:space="preserve">
  <metadata id="metadata8">
    <rdf:RDF>
      <cc:Work rdf:about="">
        <dc:format>image/svg+xml</dc:format>
        <dc:type rdf:resource="http://purl.org/dc/dcmitype/StillImage"/>
      </cc:Work>
    </rdf:RDF>
  </metadata>
  <defs id="defs6"/>
  <g transform="matrix(1.25,0,0,-1.25,0,990)" id="g10">
    <g transform="scale(0.1,0.1)" id="g12">
      <path d="m 584.398,880.801 -57.597,4.801 -91.199,-4.801 L 367.199,888 346.801,880.801 330,859.199 l 6,-36 26.398,-84 49.204,-81.597 162,-193.204 84,-79.199 121.199,-111.597 256.799,-252.0004 25.2,0 8.4,13.1992 -10.8,24 L 948,309.602 932.398,356.398 849.602,558 l -76.801,132 -60,82.801 -44.403,60 -37.199,58.801 -38.398,51.597 -48,55.199 -46.801,31.202 -13.199,55.2 -10.801,60 -15.602,39.6 -44.398,10.8 -73.199,0 -81.602,-2.4 -38.398,-10.8 -18,-6 -134.4026,-18 -39.5976,-18 -13.1992,-18 -2.4024,-37.2 15.6016,26.4 26.3984,13.2 79.1988,0 80.403,-2.4 42,-10.8 -33.602,42 -8.398,28.8" inkscape:connector-curvature="0" id="path14" style="stroke:#000000;stroke-width:8;stroke-miterlimit:4;stroke-dasharray:none;fill:none;stroke-opacity:1"/>
      <path d="m 301.199,1126.8 8.403,2.4 4.796,13.2 -4.796,13.2 -10.801,8.4 -10.801,-8.4 -2.398,-15.6 6,-8.4 7.199,-4.8" inkscape:connector-curvature="0" id="path16" style="stroke:#000000;stroke-width:8;stroke-miterlimit:4;stroke-dasharray:none;fill:none;stroke-opacity:1"/>
      <path d="m 26.3984,1100.4 105.6016,2.4 80.398,-10.8 24,-13.2 7.204,-25.2 2.398,-28.8 -22.801,-57.601 -10.801,-70.801 13.204,-86.398 10.796,-39.602 28.801,-78 33.602,-63.597 81.597,-138 106.801,-204 L 498,207.602 484.801,74.3984 471.602,61.1992 396,54 l -88.801,2.3984 -6,-13.1992 -39.597,-6 -4.801,-7.1992 8.398,-10.8008 224.403,8.4024 232.796,-10.8008 10.801,10.8008 -4.801,13.1992 -37.199,0 -20.398,18 L 537.602,61.1992 522,72 537.602,236.398 634.801,186 l 54,163.199 105.597,-261.5974 36,-46.8008 37.204,-21.6016 54,0 L 954,30 l 7.199,15.6016 -26.398,70.7964" inkscape:connector-curvature="0" id="path18" style="stroke:#000000;stroke-width:8;stroke-miterlimit:4;stroke-dasharray:none;fill:none;stroke-opacity:1"/>
      <path d="m 285.602,648 34.796,-192 -3.597,-146.398 -25.199,-148.801 -24,-75.6018 -15.602,-18 -126,-8.3984 -13.199,-18 L 84,37.1992 73.1992,30 84,19.1992 181.199,27.6016 210,24" inkscape:connector-curvature="0" id="path20" style="stroke:#000000;stroke-width:8;stroke-miterlimit:4;stroke-dasharray:none;fill:none;stroke-opacity:1"/>
      <path d="m 304.801,56.3984 -45.602,-6 0,0 L 234,45.6016 218.398,24 228,19.1992 l 15.602,15.6016 15.597,2.3984" inkscape:connector-curvature="0" id="path22" style="stroke:#000000;stroke-width:8;stroke-miterlimit:4;stroke-dasharray:none;fill:none;stroke-opacity:1"/>
      <path d="M 301.199,58.8008 360,273.602 l 88.801,-52.801 18,97.199" inkscape:connector-curvature="0" id="path24" style="stroke:#000000;stroke-width:8;stroke-miterlimit:4;stroke-dasharray:none;fill:none;stroke-opacity:1"/>
      <path d="m 118.801,56.3984 -42.0002,-6 0,0 L 50.3984,45.6016 34.8008,24 42,19.1992 61.1992,34.8008 81.6016,37.1992" inkscape:connector-curvature="0" id="path26" style="stroke:#000000;stroke-width:8;stroke-miterlimit:4;stroke-dasharray:none;fill:none;stroke-opacity:1"/>
      <path d="M 675.602,58.8008 726,54 748.801,45.6016 765.602,24 l -8.403,-4.8008 -18,15.6016 L 726,37.1992" inkscape:connector-curvature="0" id="path28" style="stroke:#000000;stroke-width:8;stroke-miterlimit:4;stroke-dasharray:none;fill:none;stroke-opacity:1"/>
      <path d="m 1912.8,600 55.2,-69.602 42,-39.597 73.2,-42 73.2,-24 75.6,-13.199 170.4,-4.801 62.4,4.801 52.8,10.796 24,13.204 0,8.398 -8.4,13.199 -42,9.602 -55.2,28.801 -42,26.398 -104.4,88.801 -75.6,81.597 -52.8,49.204 -55.2,37.199 -51.6,18 -10.8,20.398 -39.6,50.403 -38.4,42 -34.8,21.597 -36,12 -50.4,3.602 -36,-10.801 -37.2,-24 -15.6,-24 -26.4,-4.801 -28.8,-10.801 -20.4,-13.199 -15.6,-13.199 15.6,-7.199 75.6,-13.199 2.4,7.199 6,19.199 -6,15.602 -2.4,18" inkscape:connector-curvature="0" id="path30" style="stroke:#000000;stroke-width:8;stroke-miterlimit:4;stroke-dasharray:none;fill:none;stroke-opacity:1"/>
      <path d="m 1760.4,856.801 -60,-4.801 -31.2,-8.398" inkscape:connector-curvature="0" id="path32" style="stroke:#000000;stroke-width:8;stroke-miterlimit:4;stroke-dasharray:none;fill:none;stroke-opacity:1"/>
      <path d="m 1758,819.602 10.8,-9.602 21.6,-49.199 31.2,-126 15.6,-52.801 25.2,-46.801 60,-78 32.4,-34.801 36,-37.199 76.8,-49.199 38.4,-15.602 50.4,-24 7.2,-4.796 0,-13.204 -55.2,-115.199 -9.6,-8.398 -10.8,0 -70.8,-4.801 -13.2,-8.398 -4.8,-4.801 -2.4,-10.801 49.2,-2.398 68.4,6 81.6,-8.403 20.4,2.403 0,18 -20.4,6 -45.6,4.796 -7.2,4.801 2.4,8.403 52.8,118.796 4.8,18 0,4.801 -20.4,26.403" inkscape:connector-curvature="0" id="path34" style="stroke:#000000;stroke-width:8;stroke-miterlimit:4;stroke-dasharray:none;fill:none;stroke-opacity:1"/>
      <path d="m 2203.2,302.398 68.4,4.801 115.2,37.199 36,9.602 13.2,2.398 154.8,-43.199 102,-13.199 34.8,2.398 25.2,4.801 10.8,10.801 -7.2,2.398 -126,42 -73.2,26.403 L 2502,420" inkscape:connector-curvature="0" id="path36" style="stroke:#000000;stroke-width:8;stroke-miterlimit:4;stroke-dasharray:none;fill:none;stroke-opacity:1"/>
      <path d="m 2043.6,351.602 8.4,-31.204 0,-10.796 -92.4,-144 -7.2,-10.801 -16.8,-4.801 -75.6,-4.801 -9.6,-8.398 0,-13.199 12,0 84,6 26.4,-6" inkscape:connector-curvature="0" id="path38" style="stroke:#000000;stroke-width:8;stroke-miterlimit:4;stroke-dasharray:none;fill:none;stroke-opacity:1"/>
      <path d="m 1994.4,141.602 -6,15.597 88.8,129.602 8.4,15.597 0,22.801" inkscape:connector-curvature="0" id="path40" style="stroke:#000000;stroke-width:8;stroke-miterlimit:4;stroke-dasharray:none;fill:none;stroke-opacity:1"/>
      <path d="m 1850.4,141.602 -10.8,-2.403 -10.8,-4.801 -2.4,-10.796 20.4,0" inkscape:connector-curvature="0" id="path42" style="stroke:#000000;stroke-width:8;stroke-miterlimit:4;stroke-dasharray:none;fill:none;stroke-opacity:1"/>
      <path d="m 2001.6,141.602 -15.6,-2.403 -10.8,-7.199 -2.4,-8.398 24,2.398" inkscape:connector-curvature="0" id="path44" style="stroke:#000000;stroke-width:8;stroke-miterlimit:4;stroke-dasharray:none;fill:none;stroke-opacity:1"/>
      <path d="m 2216.4,141.602 13.2,-4.801 4.8,-4.801 6,-8.398 -24,6" inkscape:connector-curvature="0" id="path46" style="stroke:#000000;stroke-width:8;stroke-miterlimit:4;stroke-dasharray:none;fill:none;stroke-opacity:1"/>
      <path d="m 1837.2,876 -10.8,-13.199 8.4,-6 12,8.398 -9.6,10.801" inkscape:connector-curvature="0" id="path48" style="stroke:#000000;stroke-width:8;stroke-miterlimit:4;stroke-dasharray:none;fill:none;stroke-opacity:1"/>
      <path d="m 2790,663.602 13.2,-15.602 6,-21.602 -1.2,-14.398 -3.6,-13.199 -12,-18 -15.6,-8.403 -14.4,-3.597 -19.2,1.199 -14.4,1.199 -15.6,7.199 -13.2,14.403 -10.8,14.398 -4.8,12 -2.4,19.199 0,20.403 2.4,15.597 3.6,14.403 7.2,9.597 9.6,14.403 13.2,12 16.8,8.398 15.6,4.801 24,0 14.4,-4.801 12,-3.597 14.4,-6 15.6,-8.403 15.6,-14.398 12,-15.602 6,-12 7.2,-15.597 3.6,-13.204 1.2,-19.199 2.4,-19.199 -3.6,-15.602 -6,-20.398 -7.2,-20.398 -8.4,-14.403 -10.8,-22.801 -19.2,-18 -24,-20.398 -34.8,-19.199 -50.4,-18 -68.4,-18 -138,-13.199" inkscape:connector-curvature="0" id="path50" style="stroke:#000000;stroke-width:8;stroke-miterlimit:4;stroke-dasharray:none;fill:none;stroke-opacity:1"/>
      <path d="m 1496.4,896.398 -618.002,0 8.403,52.801 7.199,33.602 13.199,33.599 19.199,26.4 15.602,22.8 20.398,30 22.801,20.4 28.801,21.6 24,15.6 34.8,15.6 33.6,10.8 24,4.8 42,4.8 31.2,0 27.6,-4.8 32.4,-4.8 33.6,-8.4 24,-7.2 31.2,-21.6 26.4,-18 24,-19.2 20.4,-26.4 20.4,-28.8 18,-28.8 13.2,-25.2 10.8,-39.602 8.4,-28.796 2.4,-31.204" inkscape:connector-curvature="0" id="path52" style="stroke:#000000;stroke-width:8;stroke-miterlimit:4;stroke-dasharray:none;fill:none;stroke-opacity:1"/>
      <path d="m 2613.6,1040.4 10.8,-16.8 12,-19.2 6,-15.599 7.2,-20.403 2.4,-14.398 3.6,-19.199 0,-22.801 -2.4,-22.801 -3.6,-16.801 -7.2,-14.398 -9.6,-16.801 -9.6,-10.801 -15.6,-14.398 -15.6,-7.199 -18,-8.403 -18,-3.597 -22.8,-1.199 -25.2,2.398 -19.2,6 -21.6,8.398 -22.8,13.204 -16.8,10.796 -18,18 -13.2,15.602 -15.6,19.199 -16.8,20.403 -10.8,18 -8.4,15.597 -9.6,20.403 -6,19.199 -4.8,25.199 -2.4,24 2.4,39.6 4.8,16.8 6,15.6 9.6,14.4 13.2,10.8 14.4,13.2 20.4,9.6 13.2,2.4 19.2,0 21.6,-2.4 21.6,-3.6 24,-8.4 22.8,-8.4 15.6,-10.8 15.6,-9.6 15.6,-14.4 18,-16.8 14.4,-18 13.2,-15.6 6,-6" inkscape:connector-curvature="0" id="path54" style="stroke:#000000;stroke-width:8;stroke-miterlimit:4;stroke-dasharray:none;fill:none;stroke-opacity:1"/>
      <path d="m 2624.4,1023.6 8.4,8.4 9.6,9.6 3.6,7.2 4.8,18 -1.2,14.4 -3.6,13.2 -3.6,9.6 -6,6 -8.4,9.6 -7.2,6 -16.8,7.2 -24,0 -14.4,-7.2 -13.2,-7.2 -6,-6" inkscape:connector-curvature="0" id="path56" style="stroke:#000000;stroke-width:8;stroke-miterlimit:4;stroke-dasharray:none;fill:none;stroke-opacity:1"/>
      <path d="m 2412,850.801 -9.6,-6 -12,-6 -9.6,-3.602 -16.8,0 -15.6,3.602 -9.6,6 -8.4,6 -3.6,7.199 -8.4,8.398 -4.8,12 -3.6,15.602 2.4,12 3.6,12 6,13.199 12,10.801 8.4,4.801" inkscape:connector-curvature="0" id="path58" style="stroke:#000000;stroke-width:8;stroke-miterlimit:4;stroke-dasharray:none;fill:none;stroke-opacity:1"/>
    </g>
  </g>
</svg>
