<?xml version="1.0" encoding="UTF-8"?>
<!-- Created with Inkscape (http://www.inkscape.org/) -->
<svg xmlns:dc="http://purl.org/dc/elements/1.1/" xmlns:cc="http://creativecommons.org/ns#" xmlns:rdf="http://www.w3.org/1999/02/22-rdf-syntax-ns#" xmlns:svg="http://www.w3.org/2000/svg" xmlns="http://www.w3.org/2000/svg" xmlns:inkscape="http://www.inkscape.org/namespaces/inkscape" version="1.1" width="765" height="990" id="svg2" xml:space="preserve">
  <metadata id="metadata8">
    <rdf:RDF>
      <cc:Work rdf:about="">
        <dc:format>image/svg+xml</dc:format>
        <dc:type rdf:resource="http://purl.org/dc/dcmitype/StillImage"/>
      </cc:Work>
    </rdf:RDF>
  </metadata>
  <defs id="defs6"/>
  <g transform="matrix(1.25,0,0,-1.25,0,990)" id="g10">
    <g transform="scale(0.1,0.1)" id="g12">
      <path d="m 1783.2,931.199 0,403.201 19.2,54 25.2,28.8 44.4,32.4 36,6 34.8,-9.6 25.2,-9.6 32.4,-32.4 44.4,-76.8 44.4,-63.6 48,-57.6 42,-25.2 48,-7.2 48,13.2 32.4,19.2 31.2,32.4 74.4,102 34.8,44.4 31.2,34.8 32.4,16.8 28.8,13.2 28.8,0 25.2,-7.2 42,-18 48,-48 44.4,-62.4 48,-66 36,-34.8 31.2,-26.4 34.8,-9.6 22.8,-3.6 45.6,7.2 37.2,28.8 26.4,28.8 28.8,38.4 21.6,34.8 63.6,99.6 32.4,25.2 38.4,16.8 51.6,0 34.8,-20.4 28.8,-28.8 28.8,-69.6 0,-403.201 -1556.4,0" inkscape:connector-curvature="0" id="path14" style="stroke:#000000;stroke-width:8;stroke-miterlimit:4;stroke-dasharray:none;fill:none;stroke-opacity:1"/>
      <path d="m 2527.2,31.1992 -754.8,0 9.6,63.6016 9.6,42.0002 15.6,40.801 22.8,32.398 19.2,28.801 26.4,34.801 28.8,25.199 34.8,26.398 28.8,19.199 42,19.204 40.8,12 28.8,7.199 50.4,6 39.6,0 34.8,-6 38.4,-7.199 40.8,-9.602 28.8,-9.602 39.6,-25.199 31.2,-22.801 28.8,-21.597 25.2,-32.403 26.4,-34.796 22.8,-34.801 15.6,-32.403 12,-48 9.6,-35.9996 3.6,-37.1992" inkscape:connector-curvature="0" id="path16" style="stroke:#000000;stroke-width:8;stroke-miterlimit:4;stroke-dasharray:none;fill:none;stroke-opacity:1"/>
      <path d="m 2788.8,93.6016 218.4,198.0004 204,-198.0004" inkscape:connector-curvature="0" id="path18" style="stroke:#000000;stroke-width:8;stroke-miterlimit:4;stroke-dasharray:none;fill:none;stroke-opacity:1"/>
      <path d="M 3294,183.602 3102,378 3307.2,572.398" inkscape:connector-curvature="0" id="path20" style="stroke:#000000;stroke-width:8;stroke-miterlimit:4;stroke-dasharray:none;fill:none;stroke-opacity:1"/>
      <path d="M 3217.2,672 3013.2,477.602 2808,688.801" inkscape:connector-curvature="0" id="path22" style="stroke:#000000;stroke-width:8;stroke-miterlimit:4;stroke-dasharray:none;fill:none;stroke-opacity:1"/>
      <path d="M 2719.2,601.199 2917.2,390 2706,189.602" inkscape:connector-curvature="0" id="path24" style="stroke:#000000;stroke-width:8;stroke-miterlimit:4;stroke-dasharray:none;fill:none;stroke-opacity:1"/>
      <path d="m 2973.6,26.3984 90,3.6016 51.6,12 44.4,19.1992 51.6,34.8008 38.4,36 38.4,40.801 25.2,42 25.2,45.597 13.2,44.403 6,50.398 0,51.602 -15.6,88.801 -19.2,49.199 -28.8,48 -32.4,44.398 -48,40.801 -37.2,26.398 -39.6,15.602 -34.8,13.199 -48,9.602 -46.8,3.597 -64.8,0 -51.6,-13.199 -48,-19.199 -44.4,-25.199 -42,-36 -37.2,-44.403 -36,-44.398 -15.6,-32.398 -13.2,-36 -12,-60 0,-57.602 6,-42 6,-44.398 16.8,-44.403 21.6,-51.597 38.4,-48 38.4,-34.801 L 2814,78 2859.6,55.1992 2913.6,36 l 60,-9.6016" inkscape:connector-curvature="0" id="path26" style="stroke:#000000;stroke-width:8;stroke-miterlimit:4;stroke-dasharray:none;fill:none;stroke-opacity:1"/>
      <path d="m 1544.4,1461.6 -15.6,-322.8 -6,-274.8 -7.2,-211.199 -15.6,-150 -13.2,-144 7.2,-153.602 9.6,-48 6,-38.398 L 1506,80.3984 1486.8,54 1458,34.8008 l -34.8,-6 -64.8,16.8008 -24,19.1992 -42,9.5976 -96,-49.1992 -397.201,3.6016 -15.597,51.5976 13.199,25.2036 34.801,6 138,28.796 113.998,58.801 76.8,28.801 68.4,15.602 46.8,40.796 16.8,42 2.4,44.403 -6,68.398 -3.6,88.801 -6,243.602 -3.6,242.398 -25.2,451.2 294,0" inkscape:connector-curvature="0" id="path28" style="stroke:#000000;stroke-width:8;stroke-miterlimit:4;stroke-dasharray:none;fill:none;stroke-opacity:1"/>
      <path d="m 340.801,876 0,-860.3984 67.199,0 L 408,876" inkscape:connector-curvature="0" id="path30" style="stroke:#000000;stroke-width:8;stroke-miterlimit:4;stroke-dasharray:none;fill:none;stroke-opacity:1"/>
      <path d="m 14.3984,879.602 718.8006,0 0,226.798 -12,25.2 -13.199,16.8 -31.199,0 -20.403,-3.6 -19.199,-13.2 -63.597,-56.4 -57.602,-51.6 -44.398,-22.8 -54,-11.999 -45.602,-3.602 -40.801,3.602 -54,11.999 -45.597,22.8 -57.602,51.6 -63.602,56.4 -19.1988,13.2 -19.1992,3.6 -32.3984,0 -13.2032,-16.8 -12,-25.2 0,-226.798" inkscape:connector-curvature="0" id="path32" style="stroke:#000000;stroke-width:8;stroke-miterlimit:4;stroke-dasharray:none;fill:none;stroke-opacity:1"/>
      <path d="m 506.398,1023.6 -57.597,376.8 -25.199,32.4 -19.204,13.2 -25.199,9.6 -9.597,0 -26.403,-9.6 -18,-13.2 -26.398,-32.4 -57.602,-376.8" inkscape:connector-curvature="0" id="path34" style="stroke:#000000;stroke-width:8;stroke-miterlimit:4;stroke-dasharray:none;fill:none;stroke-opacity:1"/>
    </g>
  </g>
</svg>
