<?xml version="1.0" encoding="UTF-8"?>
<!-- Created with Inkscape (http://www.inkscape.org/) -->
<svg xmlns:dc="http://purl.org/dc/elements/1.1/" xmlns:cc="http://creativecommons.org/ns#" xmlns:rdf="http://www.w3.org/1999/02/22-rdf-syntax-ns#" xmlns:svg="http://www.w3.org/2000/svg" xmlns="http://www.w3.org/2000/svg" xmlns:inkscape="http://www.inkscape.org/namespaces/inkscape" version="1.1" width="765" height="990" id="svg2" xml:space="preserve">
  <metadata id="metadata8">
    <rdf:RDF>
      <cc:Work rdf:about="">
        <dc:format>image/svg+xml</dc:format>
        <dc:type rdf:resource="http://purl.org/dc/dcmitype/StillImage"/>
      </cc:Work>
    </rdf:RDF>
  </metadata>
  <defs id="defs6"/>
  <g transform="matrix(1.25,0,0,-1.25,0,990)" id="g10">
    <g transform="scale(0.1,0.1)" id="g12">
      <path d="M 884.398,528 942,363.602 l 0,-37.204 -7.199,-22.796 -102,-188.403 -15.602,-26.3982 -22.801,-8.4024 -21.597,-10.7968 -124.801,-6 -28.801,-6 L 600,44.3984 586.801,28.8008 l -2.403,-9.6016 15.602,0 15.602,15.6016 15.597,0 7.199,-12 117.602,6 76.801,-9.6016 19.199,3.6016 13.199,21.5976 15.602,-28.7968 13.199,0 2.398,15.5976 -12,26.4024 -6,25.1992 15.602,40.8012 48,90 21.602,51.597 16.796,19.199 19.204,19.204 0,31.199 L 1053.6,432" inkscape:connector-curvature="0" id="path14" style="stroke:#000000;stroke-width:8;stroke-miterlimit:4;stroke-dasharray:none;fill:none;stroke-opacity:1"/>
      <path d="M 880.801,987.602 823.199,952.801 759.602,933.602 724.801,914.398 708,885.602 721.199,853.199 750,811.199 804,776.398 1629.6,534 l 40.8,-3.602 42,0 31.2,13.204 10.8,13.199 L 1734,572.398 1491.6,712.801 1338,822 l -57.6,57.602 -38.4,37.199 -38.4,26.398 -48,31.199 -44.4,28.802 -63.6,26.4 -45.6,9.6 -46.801,6 -58.801,-3.6 -40.796,-25.2 -54,-38.4 -20.403,-6 -21.597,2.398 -13.204,16.801 0,19.201 13.204,22.8 121.199,248.4 3.597,28.8 2.403,32.4 -2.403,31.2 -13.199,36 -15.597,25.2 -25.204,13.2 -28.796,6 -28.801,0 -32.403,-6 -32.398,-15.6 -22.801,-22.8 -12,-16.8 -12,-25.2 -7.199,-15.6 0,-32.4 13.199,-31.2 12,-13.2 28.801,-15.6 16.801,-7.2 25.199,-9.6 0,-25.2 -9.602,-50.4 -25.199,-51.6 -42,-45.6 -45.597,-44.4 -56.403,-63.602 -20.398,-42 -6,-48 6,-40.796 26.398,-49.204 67.199,-73.199 236.403,-178.801 130.799,-73.199 44.4,-32.398 32.4,-31.199 28.8,-51.602 22.8,-44.398 38.4,-174 0,-21.602 -16.8,-9.6016 L 1140,82.8008 976.801,60 961.199,51.6016 948,31.1992 l -3.602,-12 13.204,-3.5976 15.597,25.1992 7.199,0 6,-25.1992 163.202,15.5976 57.6,-12 15.6,6 3.6,19.1992 25.2,-21.5976 13.2,0 2.4,12 L 1264.8,48 1238.4,73.1992 1222.8,108 l -9.6,166.801 9.6,31.199 -9.6,26.398 3.6,73.204 6,22.796 105.6,6 38.4,9.602" inkscape:connector-curvature="0" id="path16" style="stroke:#000000;stroke-width:8;stroke-miterlimit:4;stroke-dasharray:none;fill:none;stroke-opacity:1"/>
      <path d="m 1603.2,469.199 67.2,10.801 28.8,8.398 19.2,9.602 -3.6,10.801 L 1609.2,540" inkscape:connector-curvature="0" id="path18" style="stroke:#000000;stroke-width:8;stroke-miterlimit:4;stroke-dasharray:none;fill:none;stroke-opacity:1"/>
      <path d="m 1251.6,607.199 195.6,-246 15.6,-15.597 15.6,-3.602 13.2,0 9.6,9.602 0,22.796" inkscape:connector-curvature="0" id="path20" style="stroke:#000000;stroke-width:8;stroke-miterlimit:4;stroke-dasharray:none;fill:none;stroke-opacity:1"/>
      <path d="m 1332,591.602 165.6,-214.801 16.8,-9.602 15.6,-3.597 13.2,7.199 6,9.597 0,9.602" inkscape:connector-curvature="0" id="path22" style="stroke:#000000;stroke-width:8;stroke-miterlimit:4;stroke-dasharray:none;fill:none;stroke-opacity:1"/>
      <path d="m 1399.2,578.398 150,-182.398 9.6,-9.602 13.2,-3.597 12,13.199 0,15.602" inkscape:connector-curvature="0" id="path24" style="stroke:#000000;stroke-width:8;stroke-miterlimit:4;stroke-dasharray:none;fill:none;stroke-opacity:1"/>
      <path d="m 1476,559.199 111.6,-147.597 15.6,-8.403 9.6,0 9.6,6 7.2,9.602 0,9.597 L 1543.2,546" inkscape:connector-curvature="0" id="path26" style="stroke:#000000;stroke-width:8;stroke-miterlimit:4;stroke-dasharray:none;fill:none;stroke-opacity:1"/>
      <path d="m 717.602,1358.4 7.199,13.2 12,9.6 16.801,3.6 12,-7.2 3.597,-12 -7.199,-9.6 -12,-10.8 -16.801,-2.4 -8.398,9.6 -3.602,19.2" inkscape:connector-curvature="0" id="path28" style="stroke:#000000;stroke-width:8;stroke-miterlimit:4;stroke-dasharray:none;fill:none;stroke-opacity:1"/>
      <path d="m 790.801,1093.2 247.199,-2.4 0,162 -13.2,48 -34.8,57.6 -26.398,28.8 -25.204,19.2 -22.796,15.6 -31.204,16.8 -22.796,6 -22.801,6 -18,0 -19.199,3.6" inkscape:connector-curvature="0" id="path30" style="stroke:#000000;stroke-width:8;stroke-miterlimit:4;stroke-dasharray:none;fill:none;stroke-opacity:1"/>
      <path d="M 663.602,1368 644.398,1352.4 625.199,1333.2 600,1316.4 558,1300.8 500.398,1266 450,1221.6 l -36,-42 -44.398,-67.2 -19.204,-67.2 -9.597,-38.4 0,-15.601 9.597,-6 6,6 22.801,57.601 44.403,69.6 44.398,61.2 39.602,34.8 43.199,32.4 55.199,26.4 34.801,8.4 26.398,7.2" inkscape:connector-curvature="0" id="path32" style="stroke:#000000;stroke-width:8;stroke-miterlimit:4;stroke-dasharray:none;fill:none;stroke-opacity:1"/>
      <path d="m 362.398,993.602 16.801,9.598 48,70.8 31.199,44.4 42,49.2 48,34.8 44.403,21.6 38.398,19.2 76.801,7.2 28.801,-3.6" inkscape:connector-curvature="0" id="path34" style="stroke:#000000;stroke-width:8;stroke-miterlimit:4;stroke-dasharray:none;fill:none;stroke-opacity:1"/>
      <path d="M 236.398,151.199 543.602,447.602" inkscape:connector-curvature="0" id="path36" style="stroke:#000000;stroke-width:8;stroke-miterlimit:4;stroke-dasharray:none;fill:none;stroke-opacity:1"/>
      <path d="m 124.801,194.398 378,361.204" inkscape:connector-curvature="0" id="path38" style="stroke:#000000;stroke-width:8;stroke-miterlimit:4;stroke-dasharray:none;fill:none;stroke-opacity:1"/>
      <path d="M 51.6016,272.398 429.602,633.602" inkscape:connector-curvature="0" id="path40" style="stroke:#000000;stroke-width:8;stroke-miterlimit:4;stroke-dasharray:none;fill:none;stroke-opacity:1"/>
      <path d="m 13.1992,382.801 303.6018,288" inkscape:connector-curvature="0" id="path42" style="stroke:#000000;stroke-width:8;stroke-miterlimit:4;stroke-dasharray:none;fill:none;stroke-opacity:1"/>
      <path d="m 390,655.199 -26.398,7.199 -25.204,8.403 -28.796,6 -28.801,0 -30,-3.602 -26.403,-2.398 -28.796,-8.403 -25.204,-9.597 L 144,640.801 120,624 100.801,607.199 82.8008,589.199 68.3984,572.398 54,550.801 37.1992,519.602 l -6,-22.801 -8.3984,-26.403 -3.6016,-26.398 -6,-30 0,-26.398 6,-30 6,-26.403 7.1992,-24 12,-25.199 7.2032,-14.398 9.5976,-12 24,-26.403 23.9998,-22.801 20.403,-16.796 26.398,-14.403 28.801,-14.398 27.597,-7.199 24,-7.204 27.602,0 28.801,-2.398 33.597,4.801 22.801,4.801 28.801,12 28.801,14.398 18,9.602 21.597,18 21.602,19.199 20.398,21.597 16.801,25.204 16.801,24 12,24 7.199,27.597 2.403,26.403 4.796,31.199 -2.398,26.398 -2.398,30 -7.204,26.403 -9.597,24 -12,30 -16.801,24 -15.602,19.199 -19.199,22.801 -24,16.796 -22.801,16.801 -26.398,12" inkscape:connector-curvature="0" id="path44" style="stroke:#000000;stroke-width:8;stroke-miterlimit:4;stroke-dasharray:none;fill:none;stroke-opacity:1"/>
      <path d="m 1590,1346.4 -27.6,-13.2 -20.4,-25.2 -7.2,-19.2 -4.8,-21.6 7.2,-31.2 15.6,-20.4 16.8,-14.4 26.4,-8.4 20.4,-7.2 25.2,0 27.6,12 22.8,10.8 13.2,15.6 16.8,22.8 10.8,27.6 7.2,22.8 1.2,22.8 -1.2,15.6 -4.8,27.6 -12,22.8 -18,21.6 -18,16.8 -15.6,7.2 -16.8,6 -21.6,2.4 -18,2.4 -24,0 -26.4,-2.4 -30,-8.4 -25.2,-14.4 -15.6,-13.2 -18,-15.6 -13.2,-16.8 -14.4,-25.2 -13.2,-24 -4.8,-22.8 -4.8,-32.4 -2.4,-31.2 2.4,-25.2 2.4,-36 13.2,-36 21.6,-42 36,-46.8 56.4,-55.199 81.6,-66 177.6,-99.602" inkscape:connector-curvature="0" id="path46" style="stroke:#000000;stroke-width:8;stroke-miterlimit:4;stroke-dasharray:none;fill:none;stroke-opacity:1"/>
      <path d="m 2142,880.801 0,-576 103.2,0 0,576 -103.2,0" inkscape:connector-curvature="0" id="path48" style="stroke:#000000;stroke-width:8;stroke-miterlimit:4;stroke-dasharray:none;fill:none;stroke-opacity:1"/>
      <path d="m 2653.2,880.801 0,-576 105.6,0 0,576 -105.6,0" inkscape:connector-curvature="0" id="path50" style="stroke:#000000;stroke-width:8;stroke-miterlimit:4;stroke-dasharray:none;fill:none;stroke-opacity:1"/>
      <path d="m 3171.6,880.801 0,-576 102,0 0,576 -102,0" inkscape:connector-curvature="0" id="path52" style="stroke:#000000;stroke-width:8;stroke-miterlimit:4;stroke-dasharray:none;fill:none;stroke-opacity:1"/>
    </g>
  </g>
</svg>
