<?xml version="1.0" encoding="UTF-8"?>
<!-- Created with Inkscape (http://www.inkscape.org/) -->
<svg xmlns:dc="http://purl.org/dc/elements/1.1/" xmlns:cc="http://creativecommons.org/ns#" xmlns:rdf="http://www.w3.org/1999/02/22-rdf-syntax-ns#" xmlns:svg="http://www.w3.org/2000/svg" xmlns="http://www.w3.org/2000/svg" xmlns:inkscape="http://www.inkscape.org/namespaces/inkscape" version="1.1" width="765" height="990" id="svg2" xml:space="preserve">
  <metadata id="metadata8">
    <rdf:RDF>
      <cc:Work rdf:about="">
        <dc:format>image/svg+xml</dc:format>
        <dc:type rdf:resource="http://purl.org/dc/dcmitype/StillImage"/>
      </cc:Work>
    </rdf:RDF>
  </metadata>
  <defs id="defs6"/>
  <g transform="matrix(1.25,0,0,-1.25,0,990)" id="g10">
    <g transform="scale(0.1,0.1)" id="g12">
      <path d="m 2953.2,964.801 1605.6,0 0,-409.199 -214.8,204 -1179.6,0 -211.2,-204 0,409.199" inkscape:connector-curvature="0" id="path14" style="stroke:#000000;stroke-width:8;stroke-miterlimit:4;stroke-dasharray:none;fill:none;stroke-opacity:1"/>
      <path d="m 15.6016,20.3984 0,154.8006 280.7964,0 0,811.199 316.801,0 0,517.202 168,0 0,-1483.2016 -765.5974,0" inkscape:connector-curvature="0" id="path16" style="stroke:#000000;stroke-width:8;stroke-miterlimit:4;stroke-dasharray:none;fill:none;stroke-opacity:1"/>
      <path d="m 1852.8,1128 -777.6,0 9.6,66 10.8,42 15.6,43.2 22.8,33.6 20.4,28.8 26.4,37.2 30,25.2 36,27.6 30,19.2 42,20.4 43.2,12 30,7.2 51.6,6 40.8,0 36,-6 39.6,-7.2 43.2,-9.6 28.8,-9.6 39.6,-26.4 33.6,-22.8 28.8,-24 26.4,-32.4 27.6,-36 22.8,-36 15.6,-33.6 13.2,-49.2 10.8,-36 2.4,-39.6" inkscape:connector-curvature="0" id="path18" style="stroke:#000000;stroke-width:8;stroke-miterlimit:4;stroke-dasharray:none;fill:none;stroke-opacity:1"/>
      <path d="m 1168.8,670.801 -18,-19.199 -8.4,-26.403 -7.2,-26.398 0,-62.403 3.6,-36 6,-39.597 6,-30 10.8,-36 16.8,-46.801 15.6,-45.602 43.2,-72 26.4,-33.597 33.6,-43.199 38.4,-32.403 37.2,-26.3982 32.4,-24 33.6,-13.1992 32.4,-9.6016 32.4,-6 30,-7.1992 60,0 26.4,9.5976 26.4,10.8008 26.4,13.1992 26.4,13.2032 22.8,19.1994 16.8,20.398 16.8,19.199 9.6,26.403 15.6,30 3.6,22.801 7.2,33.597 -3.6,28.801 -3.6,33.602 -9.6,30 -13.2,32.398 -16.8,32.398 -22.8,37.204 -26.4,32.398 -26.4,30 -30,30 -30,25.199 -36,24 -36,26.403 -49.2,26.398 -36,19.199 -43.2,14.403 -46.8,12 -38.4,10.796 -37.2,2.403 -25.2,0 -30,-2.403 -16.8,-3.597 -20.4,-3.602 -25.2,-20.398" inkscape:connector-curvature="0" id="path20" style="stroke:#000000;stroke-width:8;stroke-miterlimit:4;stroke-dasharray:none;fill:none;stroke-opacity:1"/>
      <path d="m 2589.6,542.398 9.6,-180 -19.2,-271.1988 93.6,-62.3984 -609.6,0 116.4,60 -76.8,357.5972 2.4,37.204 12,16.796 20.4,14.403 14.4,6 15.6,0 19.2,-6 14.4,-3.602 156,-195.597 0,69.597 9.6,66 9.6,37.199 8.4,34.801 3.6,32.403 0,21.597 -19.2,16.801 -14.4,15.602 -10.8,14.398 -2.4,14.398 4.8,18 13.2,21.602 22.8,25.199 24,32.403 22.8,40.796 19.2,32.403 7.2,30 -2.4,22.801 -2.4,24 -15.6,18 -56.4,7.199 -14.4,28.801 -7.2,25.199 -10.8,14.398 10.8,18 16.8,19.201 10.8,21.6 1.2,10.8 123.6,-4.8 22.8,-10.8 0,-12 -4.8,-16.8 -10.8,-7.201 -9.6,-13.199 -7.2,-14.398 -7.2,-422.403 152.4,0 -9.6,476.401 -9.6,42 -27.6,34.8 -19.2,21.6 -25.2,10.8 -31.2,4.8 -18,2.4 -24,-4.8 -20.4,-6 -22.8,-4.8 -14.4,-12 -14.4,-14.4 -15.6,-25.2 -7.2,-21.6" inkscape:connector-curvature="0" id="path22" style="stroke:#000000;stroke-width:8;stroke-miterlimit:4;stroke-dasharray:none;fill:none;stroke-opacity:1"/>
      <path d="m 2404.8,997.199 42,-3.597 -12,10.798 -15.6,2.4 -14.4,-13.198" inkscape:connector-curvature="0" id="path24" style="stroke:#000000;stroke-width:8;stroke-miterlimit:4;stroke-dasharray:none;fill:none;stroke-opacity:1"/>
      <path d="m 2204.4,513.602 -33.6,42 -22.8,9.597 -54,0 14.4,-69.597" inkscape:connector-curvature="0" id="path26" style="stroke:#000000;stroke-width:8;stroke-miterlimit:4;stroke-dasharray:none;fill:none;stroke-opacity:1"/>
      <path d="m 2136,565.199 0,345.602 79.2,70.801 -160.8,0 79.2,-70.801" inkscape:connector-curvature="0" id="path28" style="stroke:#000000;stroke-width:8;stroke-miterlimit:4;stroke-dasharray:none;fill:none;stroke-opacity:1"/>
      <path d="m 2402.4,1138.8 0,38.4 70.8,0 0,205.2 79.2,0 0,130.8 42,0 0,-374.4 -192,0" inkscape:connector-curvature="0" id="path30" style="stroke:#000000;stroke-width:8;stroke-miterlimit:4;stroke-dasharray:none;fill:none;stroke-opacity:1"/>
    </g>
  </g>
</svg>
