<?xml version="1.0" encoding="UTF-8"?>
<!-- Created with Inkscape (http://www.inkscape.org/) -->
<svg xmlns:dc="http://purl.org/dc/elements/1.1/" xmlns:cc="http://creativecommons.org/ns#" xmlns:rdf="http://www.w3.org/1999/02/22-rdf-syntax-ns#" xmlns:svg="http://www.w3.org/2000/svg" xmlns="http://www.w3.org/2000/svg" xmlns:inkscape="http://www.inkscape.org/namespaces/inkscape" version="1.1" width="765" height="990" id="svg2" xml:space="preserve">
  <metadata id="metadata8">
    <rdf:RDF>
      <cc:Work rdf:about="">
        <dc:format>image/svg+xml</dc:format>
        <dc:type rdf:resource="http://purl.org/dc/dcmitype/StillImage"/>
      </cc:Work>
    </rdf:RDF>
  </metadata>
  <defs id="defs6"/>
  <g transform="matrix(1.25,0,0,-1.25,0,990)" id="g10">
    <g transform="scale(0.1,0.1)" id="g12">
      <path d="m 297.602,952.801 731.998,0 0,-28.801 28.8,-4.801 45.6,-14.398 31.2,-19.199 40.8,-28.801 36,-38.403 33.6,-45.597 24,-45.602 21.6,-57.597 14.4,-58.801 7.2,-96 -7.2,-50.403 -21.6,-57.597 -26.4,-26.403 -21.6,-4.796 -33.6,2.398 -26.4,21.602 -12,26.398 -4.8,28.801 -2.4,21.597 7.2,75.602 9.6,81.602 -7.2,84 -21.6,60 -31.2,48 -31.2,36 -36,14.398 -16.8,0 0,-26.398 -97.202,0 0,-50.403 -141.597,0 0,50.403 -259.199,0 0,-50.403 -138,0 0,50.403 -96,0" inkscape:connector-curvature="0" id="path14" style="stroke:#000000;stroke-width:8;stroke-miterlimit:4;stroke-dasharray:none;fill:none;stroke-opacity:1"/>
      <path d="m 342,952.801 93.602,459.599 16.796,28.8 12,9.6 14.403,4.8 21.597,0 21.602,-12 4.801,-14.4 0,-16.8" inkscape:connector-curvature="0" id="path16" style="stroke:#000000;stroke-width:8;stroke-miterlimit:4;stroke-dasharray:none;fill:none;stroke-opacity:1"/>
      <path d="m 433.199,952.801 96,461.999 12,21.6 12,12 21.602,4.8 21.597,-7.2 12,-9.6 7.204,-14.4" inkscape:connector-curvature="0" id="path18" style="stroke:#000000;stroke-width:8;stroke-miterlimit:4;stroke-dasharray:none;fill:none;stroke-opacity:1"/>
      <path d="m 519.602,952.801 93.597,459.599 9.602,21.6 16.801,14.4 19.199,2.4 21.597,-2.4 16.801,-14.4 4.801,-19.2" inkscape:connector-curvature="0" id="path20" style="stroke:#000000;stroke-width:8;stroke-miterlimit:4;stroke-dasharray:none;fill:none;stroke-opacity:1"/>
      <path d="M 606,952.801 699.602,1407.6 714,1434 l 16.801,14.4 28.801,2.4 9.597,-2.4 15.602,-9.6 6,-24" inkscape:connector-curvature="0" id="path22" style="stroke:#000000;stroke-width:8;stroke-miterlimit:4;stroke-dasharray:none;fill:none;stroke-opacity:1"/>
      <path d="m 697.199,952.801 91.199,452.399 10.801,24 8.403,14.4 22.796,9.6 25.204,-4.8 20.398,-12 6,-16.8" inkscape:connector-curvature="0" id="path24" style="stroke:#000000;stroke-width:8;stroke-miterlimit:4;stroke-dasharray:none;fill:none;stroke-opacity:1"/>
      <path d="m 790.801,952.801 87.597,449.999 6,24 14.403,19.2 25.199,4.8 4.801,2.4 20.398,-9.6 14.403,-14.4 0,-14.4" inkscape:connector-curvature="0" id="path26" style="stroke:#000000;stroke-width:8;stroke-miterlimit:4;stroke-dasharray:none;fill:none;stroke-opacity:1"/>
      <path d="m 872.398,952.801 91.204,464.399 10.796,19.2 12,12 14.402,2.4 21.6,0 19.2,-7.2 9.6,-14.4 4.8,-24 -93.602,-452.399 -664.796,0 0,-31.199 L 264,916.801 218.398,902.398 184.801,883.199 146.398,852 110.398,813.602 55.1992,720 38.3984,664.801 21.6016,606 l -7.2032,-96 7.2032,-50.398 24,-55.204 L 72,378 l 19.1992,-4.801 33.6018,2.403 28.801,21.597 9.597,26.403 4.801,28.796 2.398,21.602 -7.199,74.398 -12,82.801 7.199,81.602 19.204,60 31.199,50.398 31.199,36 33.602,14.403 24,2.398 0,-21.602" inkscape:connector-curvature="0" id="path28" style="stroke:#000000;stroke-width:8;stroke-miterlimit:4;stroke-dasharray:none;fill:none;stroke-opacity:1"/>
      <path d="m 2912.4,962.398 34.8,-12 42,-25.199 44.4,-45.597 13.2,-50.403 6,-32.398 0,-51.602 -15.6,-54 -22.8,-48 -28.8,-28.801 -34.8,-19.199 -38.4,-12 -1058.4,0 -73.2,2.403 -42,19.199 -31.2,21.597 -32.4,49.204 -15.6,44.398 -7.2,40.801 7.2,48 8.4,49.199 22.8,37.199 36,36 44.4,25.199 32.4,6 1108.8,0 -28.8,-48 -22.8,-44.398 -9.6,-48 -2.4,-44.398 2.4,-48 13.2,-48 19.2,-48 28.8,-44.403 -48,25.199 -115.2,38.403 -88.8,25.199 -96,19.199 -86.4,22.801 -122.4,3.602 -57.6,0 -117.6,-13.204 -92.4,-22.796 -76.8,-19.204 -109.2,-37.199 -102,-42" inkscape:connector-curvature="0" id="path30" style="stroke:#000000;stroke-width:8;stroke-miterlimit:4;stroke-dasharray:none;fill:none;stroke-opacity:1"/>
      <path d="m 2906.4,962.398 -109.2,-48 -99.6,-34.796 -76.8,-19.204 -85.2,-22.796 -109.2,-6 -73.2,-6 -124.8,9.597 -102,15.602 -90,22.801 -80.4,21.597 -114,39.602 -45.6,21.597 28.8,-42 19.2,-44.398 9.6,-48 3.6,-44.398 -3.6,-48 -9.6,-48 -19.2,-48 -28.8,-44.403" inkscape:connector-curvature="0" id="path32" style="stroke:#000000;stroke-width:8;stroke-miterlimit:4;stroke-dasharray:none;fill:none;stroke-opacity:1"/>
      <path d="m 648,565.199 -28.801,-14.398 -21.597,-26.403 -7.204,-21.597 -4.796,-21.602 7.199,-33.597 L 609.602,426 626.398,411.602 655.199,402 678,394.801 l 25.199,0 28.801,12 25.199,12 14.403,16.801 16.796,24 12,28.796 7.204,24 1.199,24 -1.199,16.801 -4.801,28.801 -12,24 -19.199,24 -19.204,16.801 -18,7.199 -16.796,7.199 -22.801,2.403 -19.199,2.398 -25.204,0 -28.796,-2.398 L 590.398,654 564,639.602 547.199,625.199 528,608.398 l -14.398,-16.796 -14.403,-26.403 -14.398,-26.398 -4.801,-24 -4.801,-33.602 -2.398,-33.597 2.398,-26.403 2.403,-38.398 L 492,344.398 513.602,301.199 552,250.801 612,192 698.398,123.602 886.801,16.8008" inkscape:connector-curvature="0" id="path34" style="stroke:#000000;stroke-width:8;stroke-miterlimit:4;stroke-dasharray:none;fill:none;stroke-opacity:1"/>
    </g>
  </g>
</svg>
