<?xml version="1.0" encoding="UTF-8"?>
<!-- Created with Inkscape (http://www.inkscape.org/) -->
<svg xmlns:dc="http://purl.org/dc/elements/1.1/" xmlns:cc="http://creativecommons.org/ns#" xmlns:rdf="http://www.w3.org/1999/02/22-rdf-syntax-ns#" xmlns:svg="http://www.w3.org/2000/svg" xmlns="http://www.w3.org/2000/svg" xmlns:inkscape="http://www.inkscape.org/namespaces/inkscape" version="1.1" width="765" height="990" id="svg2" xml:space="preserve">
  <metadata id="metadata8">
    <rdf:RDF>
      <cc:Work rdf:about="">
        <dc:format>image/svg+xml</dc:format>
        <dc:type rdf:resource="http://purl.org/dc/dcmitype/StillImage"/>
      </cc:Work>
    </rdf:RDF>
  </metadata>
  <defs id="defs6"/>
  <g transform="matrix(1.25,0,0,-1.25,0,990)" id="g10">
    <g transform="scale(0.1,0.1)" id="g12">
      <path d="m 444,531.602 175.199,0 -3.597,63.597 18,85.199 16.796,49.204 34.801,79.199 L 846,1090.8 l 8.398,61.2 2.403,28.8 -4.801,52.8 -9.602,34.8 -13.199,44.4 -26.398,40.8 -20.403,22.8 -52.796,49.2 -40.801,14.4 -85.199,9.6 -68.403,-9.6 -30,-10.8 -34.801,-24 -31.199,-34.8 -15.597,-20.4 -14.403,-16.8" inkscape:connector-curvature="0" id="path14" style="stroke:#000000;stroke-width:8;stroke-miterlimit:4;stroke-dasharray:none;fill:none;stroke-opacity:1"/>
      <path d="m 400.801,1329.6 -26.403,-12 -285.5972,-54 L 63.6016,1242 42,1227.6 l -16.8008,-31.2 -6,-46.8 2.4024,-12 9.5976,-6 6,0 14.4024,6 4.7968,26.4 18,26.4 26.4026,22.8 28.801,8.4 38.398,12 235.199,32.4 6,2.4 34.801,-4.8" inkscape:connector-curvature="0" id="path16" style="stroke:#000000;stroke-width:8;stroke-miterlimit:4;stroke-dasharray:none;fill:none;stroke-opacity:1"/>
      <path d="M 403.199,1329.6 444,1260 l 0,-38.4" inkscape:connector-curvature="0" id="path18" style="stroke:#000000;stroke-width:8;stroke-miterlimit:4;stroke-dasharray:none;fill:none;stroke-opacity:1"/>
      <path d="m 63.6016,1166.4 25.1992,18 44.3982,12 112.801,10.8 114,14.4 87.602,0 22.796,-2.4 46.801,-12 81.602,-14.4 43.199,-2.4 32.398,2.4 34.801,9.6 20.403,-12 8.398,-14.4 3.602,-34.8 -3.602,-30 -14.398,-34.8 -128.403,-169.201 -63.597,-102 -26.403,-52.801 -31.199,-61.199 -18,-78 -12,-81.597" inkscape:connector-curvature="0" id="path20" style="stroke:#000000;stroke-width:8;stroke-miterlimit:4;stroke-dasharray:none;fill:none;stroke-opacity:1"/>
      <path d="M 694.801,1437.6 846,1382.4 994.801,1344 1056,1333.2 l 51.6,-3.6 63.6,0 70.8,3.6 51.6,10.8 52.8,12 6,-6 -6,-20.4 -20.4,-14.4 -69.6,-14.4 -69.6,-8.4 -79.2,0 -67.2,6 -112.798,19.2 -63.602,21.6" inkscape:connector-curvature="0" id="path22" style="stroke:#000000;stroke-width:8;stroke-miterlimit:4;stroke-dasharray:none;fill:none;stroke-opacity:1"/>
      <path d="m 782.398,1382.4 112.801,-61.2 114.001,-57.6 69.6,-36 52.8,-20.4 57.6,-14.4 40.8,-4.8 75.6,-9.6 32.4,6 14.4,3.6 12,-9.6 2.4,-16.8 -43.2,-15.6 -52.8,-4.8 -57.6,8.4 -81.6,16.8 -70.8,24 -65.999,31.2 -163.199,93.6" inkscape:connector-curvature="0" id="path24" style="stroke:#000000;stroke-width:8;stroke-miterlimit:4;stroke-dasharray:none;fill:none;stroke-opacity:1"/>
      <path d="m 537.602,1364.4 -18,-2.4 -14.403,-18 0,-19.2 14.403,-15.6 20.398,0 20.398,8.4 3.602,12 -6,18 -14.398,16.8" inkscape:connector-curvature="0" id="path26" style="stroke:#000000;stroke-width:8;stroke-miterlimit:4;stroke-dasharray:none;fill:none;stroke-opacity:1"/>
      <path d="m 760.801,31.1992 22.801,-14.3984 18,-7.19924 8.398,0 8.398,9.59764 12,12 L 888,132 l 0,15.602 -2.398,6 -6,8.398 -20.403,12 -477.597,224.398 -12,2.403 -14.403,2.398 -14.398,-4.801 -14.403,-9.597 -6,-8.403 -4.796,-16.796 0,-12 4.796,-14.403 9.602,-12 14.398,-14.398 416.403,-279.6018" inkscape:connector-curvature="0" id="path28" style="stroke:#000000;stroke-width:8;stroke-miterlimit:4;stroke-dasharray:none;fill:none;stroke-opacity:1"/>
    </g>
  </g>
</svg>
