<?xml version="1.0" encoding="UTF-8"?>
<!-- Created with Inkscape (http://www.inkscape.org/) -->
<svg xmlns:dc="http://purl.org/dc/elements/1.1/" xmlns:cc="http://creativecommons.org/ns#" xmlns:rdf="http://www.w3.org/1999/02/22-rdf-syntax-ns#" xmlns:svg="http://www.w3.org/2000/svg" xmlns="http://www.w3.org/2000/svg" xmlns:inkscape="http://www.inkscape.org/namespaces/inkscape" version="1.1" width="765" height="990" id="svg2" xml:space="preserve">
  <metadata id="metadata8">
    <rdf:RDF>
      <cc:Work rdf:about="">
        <dc:format>image/svg+xml</dc:format>
        <dc:type rdf:resource="http://purl.org/dc/dcmitype/StillImage"/>
      </cc:Work>
    </rdf:RDF>
  </metadata>
  <defs id="defs6"/>
  <g transform="matrix(1.25,0,0,-1.25,0,990)" id="g10">
    <g transform="scale(0.1,0.1)" id="g12">
      <path d="M 730.801,42 762,22.8008 l 22.801,-7.1992 12,0 10.801,10.7968 L 823.199,42 900,176.398 900,195.602 896.398,204 888,216 861.602,230.398 232.801,526.801 217.199,530.398 198,534 l -19.199,-7.199 -19.199,-12 L 152.398,504 144,480 l 0,-15.602 8.398,-19.199 10.801,-14.398 19.199,-19.199 L 730.801,42" inkscape:connector-curvature="0" id="path14" style="stroke:#000000;stroke-width:8;stroke-miterlimit:4;stroke-dasharray:none;fill:none;stroke-opacity:1"/>
      <path d="m 402,668.398 158.398,0 L 558,726 l 15.602,76.801 15.597,45.597 31.199,70.801 145.204,255.601 8.398,56.4 2.398,26.4 -4.796,46.8 -8.403,32.4 -13.199,39.6 -24,36 -18,21.6 -46.801,45.6 -38.398,12 -75.602,8.4 -63.597,-8.4 -26.403,-9.6 -32.398,-21.6 L 396,1429.2 384,1410 370.801,1394.4" inkscape:connector-curvature="0" id="path16" style="stroke:#000000;stroke-width:8;stroke-miterlimit:4;stroke-dasharray:none;fill:none;stroke-opacity:1"/>
      <path d="m 362.398,1392 -24,-10.8 -257.9996,-50.4 -25.1992,-18 -18,-13.2 -15.5976,-28.8 -4.8008,-43.2 2.3984,-9.6 7.1992,-6 6,0 13.2032,6 4.7968,24 15.6016,22.8 24,21.6 26.398,7.2 34.801,10.8 213.602,30 6,2.4 31.199,-6" inkscape:connector-curvature="0" id="path18" style="stroke:#000000;stroke-width:8;stroke-miterlimit:4;stroke-dasharray:none;fill:none;stroke-opacity:1"/>
      <path d="m 364.801,1392 37.199,-63.6 0,-34.8" inkscape:connector-curvature="0" id="path20" style="stroke:#000000;stroke-width:8;stroke-miterlimit:4;stroke-dasharray:none;fill:none;stroke-opacity:1"/>
      <path d="m 55.1992,1244.4 25.1992,15.6 38.4026,10.8 103.199,9.6 103.199,13.2 79.199,0 20.403,-2.4 43.199,-10.8 73.199,-12 39.602,-3.6 28.801,3.6 32.398,7.2 19.199,-10.8 7.199,-13.2 2.403,-31.2 -2.403,-26.4 -13.199,-31.2 -116.398,-153.6 -57.602,-92.399 -24,-48 L 428.398,813.602 411.602,742.801 402,668.398" inkscape:connector-curvature="0" id="path22" style="stroke:#000000;stroke-width:8;stroke-miterlimit:4;stroke-dasharray:none;fill:none;stroke-opacity:1"/>
      <path d="M 628.801,1489.2 765.602,1440 900,1405.2 l 56.398,-10.8 46.802,-2.4 58.8,0 63.6,2.4 46.8,10.8 48,10.8 4.8,-6 -4.8,-18 -19.2,-13.2 -62.4,-13.2 -64.8,-8.4 -70.8,0 -60.001,6 -103.199,18 -58.801,18" inkscape:connector-curvature="0" id="path24" style="stroke:#000000;stroke-width:8;stroke-miterlimit:4;stroke-dasharray:none;fill:none;stroke-opacity:1"/>
      <path d="m 708,1440 103.199,-56.4 103.199,-52.8 62.403,-31.2 47.999,-19.2 52.8,-12 37.2,-6 68.4,-7.2 28.8,4.8 13.2,2.4 10.8,-7.2 2.4,-16.8 -39.6,-13.2 -48,-4.8 -52.8,7.2 -73.2,16.8 -63.601,20.4 -61.199,28.8 -146.398,85.2" inkscape:connector-curvature="0" id="path26" style="stroke:#000000;stroke-width:8;stroke-miterlimit:4;stroke-dasharray:none;fill:none;stroke-opacity:1"/>
      <path d="m 486,1423.2 -15.602,-2.4 -13.199,-15.6 0,-19.2 13.199,-12 18,0 19.204,7.2 2.398,10.8 -6,15.6 -12,15.6" inkscape:connector-curvature="0" id="path28" style="stroke:#000000;stroke-width:8;stroke-miterlimit:4;stroke-dasharray:none;fill:none;stroke-opacity:1"/>
      <path d="M 1880.4,853.199 2256,1215.6" inkscape:connector-curvature="0" id="path30" style="stroke:#000000;stroke-width:8;stroke-miterlimit:4;stroke-dasharray:none;fill:none;stroke-opacity:1"/>
      <path d="m 1744.8,904.801 462,443.999" inkscape:connector-curvature="0" id="path32" style="stroke:#000000;stroke-width:8;stroke-miterlimit:4;stroke-dasharray:none;fill:none;stroke-opacity:1"/>
      <path d="m 1654.8,1000.8 462,442.8" inkscape:connector-curvature="0" id="path34" style="stroke:#000000;stroke-width:8;stroke-miterlimit:4;stroke-dasharray:none;fill:none;stroke-opacity:1"/>
      <path d="m 1608,1137.6 370.8,352.8" inkscape:connector-curvature="0" id="path36" style="stroke:#000000;stroke-width:8;stroke-miterlimit:4;stroke-dasharray:none;fill:none;stroke-opacity:1"/>
      <path d="m 2067.6,1470 -31.2,8.4 -32.4,12 -34.8,6 -34.8,0 -37.2,-3.6 -31.2,-2.4 -34.8,-12 -32.4,-10.8 -31.2,-14.4 -30,-21.6 -22.8,-19.2 -22.8,-22.8 -18,-21.6 -16.8,-25.2 -20.4,-38.4 -8.4,-28.8 -8.4,-31.2 -6,-32.4 -6,-37.2 0,-32.4 6,-37.2 8.4,-31.2 8.4,-28.8 14.4,-32.4 9.6,-17.999 12,-14.403 28.8,-31.199 27.6,-28.801 26.4,-20.398 32.4,-18 33.6,-16.801 36,-8.398 28.8,-8.403 34.8,0 33.6,-3.597 40.8,6 30,6 33.6,14.398 34.8,16.801 24,12 25.2,22.801 26.4,22.801 26.4,26.398 19.2,32.4 20.4,28.8 14.4,28.8 9.6,34.8 2.4,31.2 4.8,38.4 -2.4,31.2 -2.4,37.2 -9.6,32.4 -10.8,28.8 -14.4,38.4 -20.4,28.8 -20.4,22.8 -22.8,28.8 -28.8,20.4 -28.8,20.4 -32.4,14.4" inkscape:connector-curvature="0" id="path38" style="stroke:#000000;stroke-width:8;stroke-miterlimit:4;stroke-dasharray:none;fill:none;stroke-opacity:1"/>
      <path d="m 1402.8,532.801 0,-522.0002 92.4,0 0,522.0002 -92.4,0" inkscape:connector-curvature="0" id="path40" style="stroke:#000000;stroke-width:8;stroke-miterlimit:4;stroke-dasharray:none;fill:none;stroke-opacity:1"/>
      <path d="m 1864.8,532.801 0,-522.0002 96,0 0,522.0002 -96,0" inkscape:connector-curvature="0" id="path42" style="stroke:#000000;stroke-width:8;stroke-miterlimit:4;stroke-dasharray:none;fill:none;stroke-opacity:1"/>
      <path d="m 2332.8,532.801 0,-522.0002 92.4,0 0,522.0002 -92.4,0" inkscape:connector-curvature="0" id="path44" style="stroke:#000000;stroke-width:8;stroke-miterlimit:4;stroke-dasharray:none;fill:none;stroke-opacity:1"/>
    </g>
  </g>
</svg>
