<?xml version="1.0" encoding="UTF-8"?>
<!-- Created with Inkscape (http://www.inkscape.org/) -->
<svg xmlns:dc="http://purl.org/dc/elements/1.1/" xmlns:cc="http://creativecommons.org/ns#" xmlns:rdf="http://www.w3.org/1999/02/22-rdf-syntax-ns#" xmlns:svg="http://www.w3.org/2000/svg" xmlns="http://www.w3.org/2000/svg" xmlns:inkscape="http://www.inkscape.org/namespaces/inkscape" version="1.1" width="765" height="990" id="svg2" xml:space="preserve">
  <metadata id="metadata8">
    <rdf:RDF>
      <cc:Work rdf:about="">
        <dc:format>image/svg+xml</dc:format>
        <dc:type rdf:resource="http://purl.org/dc/dcmitype/StillImage"/>
      </cc:Work>
    </rdf:RDF>
  </metadata>
  <defs id="defs6"/>
  <g transform="matrix(1.25,0,0,-1.25,0,990)" id="g10">
    <g transform="scale(0.1,0.1)" id="g12">
      <path d="m 1873.2,1126.8 -777.6,0 9.6,66 9.6,43.2 16.8,43.2 22.8,32.4 20.4,30 25.2,36 30,26.4 37.2,26.4 28.8,19.2 43.2,20.4 42,13.2 30,6 52.8,7.2 39.6,0 36,-7.2 39.6,-6 43.2,-10.8 30,-9.6 39.6,-26.4 32.4,-22.8 30,-22.8 26.4,-33.6 26.4,-36 22.8,-36 16.8,-33.6 13.2,-49.2 9.6,-36 3.6,-39.6" inkscape:connector-curvature="0" id="path14" style="stroke:#000000;stroke-width:8;stroke-miterlimit:4;stroke-dasharray:none;fill:none;stroke-opacity:1"/>
      <path d="m 1208.4,660 -16.8,-19.199 -9.6,-26.403 -7.2,-26.398 0,-62.398 3.6,-36 6,-40.801 7.2,-28.801 9.6,-36 16.8,-46.801 16.8,-45.597 42,-73.204 26.4,-32.398 33.6,-43.199 39.6,-32.403 36,-27.5972 32.4,-22.8008 33.6,-13.1992 33.6,-9.6016 32.4,-6 30,-7.1992 58.8,0 26.4,9.6016 26.4,9.5976 26.4,13.1992 26.4,13.2032 22.8,20.3984 16.8,20.398 16.8,19.204 9.6,26.398 16.8,30 2.4,22.801 7.2,32.398 -3.6,30 -3.6,32.403 -9.6,30 -13.2,33.597 -16.8,32.403 -22.8,36 -26.4,33.597 -26.4,30 -30,28.801 -28.8,26.398 -37.2,22.801 -36,27.602 -49.2,26.398 -36,19.199 -43.2,13.204 -46.8,13.199 -38.4,10.801 -36,2.398 -26.4,0 -30,-2.398 -16.8,-4.801 -19.2,-2.403 L 1208.4,660" inkscape:connector-curvature="0" id="path16" style="stroke:#000000;stroke-width:8;stroke-miterlimit:4;stroke-dasharray:none;fill:none;stroke-opacity:1"/>
      <path d="m 16.8008,19.1992 0,154.8008 279.5972,0 0,811.199 316.801,0 0,517.201 168,0 0,-1483.2008 -764.3982,0" inkscape:connector-curvature="0" id="path18" style="stroke:#000000;stroke-width:8;stroke-miterlimit:4;stroke-dasharray:none;fill:none;stroke-opacity:1"/>
      <path d="m 2904,992.398 -6,-90 3.6,-175.199" inkscape:connector-curvature="0" id="path20" style="stroke:#000000;stroke-width:8;stroke-miterlimit:4;stroke-dasharray:none;fill:none;stroke-opacity:1"/>
      <path d="m 2416.8,523.199 -3.6,-503.9998 488.4,2.4024 0,662.3984 -3.6,46.801 15.6,30 13.2,9.597 13.2,13.204 16.8,3.597 16.8,-3.597 9.6,-2.403 10.8,-10.801 12,-19.199 0,-33.597 -2.4,-42 0,-54 36,-51.602" inkscape:connector-curvature="0" id="path22" style="stroke:#000000;stroke-width:8;stroke-miterlimit:4;stroke-dasharray:none;fill:none;stroke-opacity:1"/>
      <path d="m 2901.6,358.801 -280.8,0 0,-337.1994" inkscape:connector-curvature="0" id="path24" style="stroke:#000000;stroke-width:8;stroke-miterlimit:4;stroke-dasharray:none;fill:none;stroke-opacity:1"/>
      <path d="m 2901.6,318 -241.2,0 0,-296.3984" inkscape:connector-curvature="0" id="path26" style="stroke:#000000;stroke-width:8;stroke-miterlimit:4;stroke-dasharray:none;fill:none;stroke-opacity:1"/>
      <path d="m 2462.4,523.199 0,-503.9998" inkscape:connector-curvature="0" id="path28" style="stroke:#000000;stroke-width:8;stroke-miterlimit:4;stroke-dasharray:none;fill:none;stroke-opacity:1"/>
      <path d="m 2898,662.398 -3.6,-40.796 -3.6,-22.801 -6,-19.199 -7.2,-16.801 -22.8,-20.403 -20.4,-6 -13.2,-2.398 -230.4,-4.801" inkscape:connector-curvature="0" id="path30" style="stroke:#000000;stroke-width:8;stroke-miterlimit:4;stroke-dasharray:none;fill:none;stroke-opacity:1"/>
      <path d="m 2545.2,529.199 -30,-2.398" inkscape:connector-curvature="0" id="path32" style="stroke:#000000;stroke-width:8;stroke-miterlimit:4;stroke-dasharray:none;fill:none;stroke-opacity:1"/>
      <path d="m 2466,526.801 -52.8,0 -9.6,-7.199 -13.2,-13.204 -9.6,-19.199 -3.6,-30 -7.2,-36 -2.4,-22.801 -10.8,-50.398 -16.8,-68.398 -15.6,-62.403 -3.6,-33.597 -6,-30 -13.2,-28.801 -7.2,-24 7.2,-15.6018 0,-20.3984 L 2304,48 l -13.2,-15.6016 -9.6,-13.1992 -26.4,0 -22.8,9.6016 -39.6,-9.6016 -138,0 2.4,32.4024 36,6 40.8,10.7968 28.8,9.6016 26.4,16.8008 20.4,13.1992 16.8,26.398 2.4,19.204 6,102 14.4,90 13.2,105.597 9.6,68.403 6,56.398 13.2,30 3.6,9.602 13.2,13.199 9.6,13.199 30,6 60,14.398" inkscape:connector-curvature="0" id="path34" style="stroke:#000000;stroke-width:8;stroke-miterlimit:4;stroke-dasharray:none;fill:none;stroke-opacity:1"/>
      <path d="m 2562,681.602 88.8,9.597 6,13.199 0,33.602" inkscape:connector-curvature="0" id="path36" style="stroke:#000000;stroke-width:8;stroke-miterlimit:4;stroke-dasharray:none;fill:none;stroke-opacity:1"/>
      <path d="m 2670,846 7.2,33.602 2.4,52.796 -9.6,13.204 -13.2,19.199 -9.6,10.801 -6,19.199 0,10.799 2.4,22.8 26.4,32.4 43.2,32.4 30,46.8 3.6,30 2.4,28.8 -52.8,10.8 -9.6,36 -9.6,20.4 -22.8,25.2 0,16.8 12,20.4 13.2,15.6 7.2,16.8 6,26.4 148.8,-3.6 22.8,-9.6 7.2,-15.6 -3.6,-16.8 -13.2,-20.4 -20.4,-9.6 -2.4,-323.998 158.4,4.796 -7.2,385.202 -9.6,39.6 -16.8,19.2 -16.8,20.4 -19.2,20.4 -19.2,12 -26.4,7.2 -30,6 -24,0 -25.2,-6 -20.4,-7.2 -26.4,-12 -15.6,-18 -16.8,-19.2 -9.6,-13.2 -3.6,-16.8 -7.2,-19.2" inkscape:connector-curvature="0" id="path38" style="stroke:#000000;stroke-width:8;stroke-miterlimit:4;stroke-dasharray:none;fill:none;stroke-opacity:1"/>
      <path d="m 2726.4,1321.2 43.2,0 -10.8,16.8 -19.2,0 -13.2,-13.2" inkscape:connector-curvature="0" id="path40" style="stroke:#000000;stroke-width:8;stroke-miterlimit:4;stroke-dasharray:none;fill:none;stroke-opacity:1"/>
      <path d="m 2832,1024.8 -60,-49.198 -68.4,-80.403 -52.8,-75.597 -20.4,-19.204 -62.4,3.602 -66,3.602 -85.2,-13.204 -20.4,15.602 -32.4,3.602 0,-9.602 32.4,-7.199" inkscape:connector-curvature="0" id="path42" style="stroke:#000000;stroke-width:8;stroke-miterlimit:4;stroke-dasharray:none;fill:none;stroke-opacity:1"/>
      <path d="m 2377.2,796.801 -50.4,0 -12,-9.602 -3.6,-20.398 0,-9.602 9.6,-16.801 30,-6 30,-3.597 19.2,7.199 16.8,2.398 15.6,3.602 67.2,-6 68.4,-3.602 49.2,3.602 37.2,2.398 22.8,7.204 26.4,16.796 68.4,66 16.8,22.801 60,69.602 55.2,64.801" inkscape:connector-curvature="0" id="path44" style="stroke:#000000;stroke-width:8;stroke-miterlimit:4;stroke-dasharray:none;fill:none;stroke-opacity:1"/>
      <path d="m 2743.2,1156.8 -43.2,-7.2 -52.8,-19.2 -62.4,-30 -98.4,-49.2 -60,-33.6" inkscape:connector-curvature="0" id="path46" style="stroke:#000000;stroke-width:8;stroke-miterlimit:4;stroke-dasharray:none;fill:none;stroke-opacity:1"/>
      <path d="m 2215.2,810 -13.2,-32.398 -22.8,-26.403 -9.6,-26.398 2.4,-22.801 7.2,-20.398 6,-9.602 3.6,-13.199 13.2,6 -6,24 0,15.597 2.4,16.801 3.6,6 13.2,0 3.6,-22.801 13.2,0 -3.6,30 0,19.204" inkscape:connector-curvature="0" id="path48" style="stroke:#000000;stroke-width:8;stroke-miterlimit:4;stroke-dasharray:none;fill:none;stroke-opacity:1"/>
      <path d="m 2268,783.602 39.6,49.199" inkscape:connector-curvature="0" id="path50" style="stroke:#000000;stroke-width:8;stroke-miterlimit:4;stroke-dasharray:none;fill:none;stroke-opacity:1"/>
      <path d="m 2488.8,968.398 90,37.202 64.8,32.4" inkscape:connector-curvature="0" id="path52" style="stroke:#000000;stroke-width:8;stroke-miterlimit:4;stroke-dasharray:none;fill:none;stroke-opacity:1"/>
      <path d="m 2443.2,932.398 2.4,-73.199 0,-58.801" inkscape:connector-curvature="0" id="path54" style="stroke:#000000;stroke-width:8;stroke-miterlimit:4;stroke-dasharray:none;fill:none;stroke-opacity:1"/>
      <path d="m 2436,744 -3.6,-16.801" inkscape:connector-curvature="0" id="path56" style="stroke:#000000;stroke-width:8;stroke-miterlimit:4;stroke-dasharray:none;fill:none;stroke-opacity:1"/>
      <path d="M 2409.6,730.801 2460,714 l 26.4,-15.602 15.6,-9.597 16.8,-33.602 0,-43.199 -3.6,-45.602 -3.6,-32.398 -2.4,-37.199 13.2,-26.403 13.2,-13.199 13.2,-6 15.6,-10.801 0,-12 -22.8,0 -30,12 -19.2,13.204 -13.2,0 -9.6,3.597 -7.2,13.199 10.8,20.403 -3.6,68.398 -3.6,26.403 -3.6,24 0,32.398 -45.6,16.801 -39.6,13.199 -33.6,6 -26.4,16.801 -13.2,13.199 -9.6,30 3.6,22.801 3.6,26.398 6,22.801 3.6,26.398 0,43.204 6,56.398 -9.6,-30 -9.6,-26.398 -16.8,-30 -13.2,-22.801 -3.6,-26.403 7.2,-33.597 0,-22.801 3.6,-32.398 0,-16.801 2.4,-10.801 13.2,-8.398 10.8,-20.403 -7.2,-13.199 -6,9.602 -10.8,13.199 -6,0 0,-19.199 -3.6,-10.801 13.2,-22.801 9.6,-9.602 -9.6,-6 -26.4,19.204 -9.6,19.199 0,20.398 3.6,16.801 -9.6,30 -10.8,51.602 -2.4,20.398 -3.6,30 -3.6,28.801 9.6,30 16.8,39.597 13.2,22.801 13.2,30 13.2,22.801 16.8,20.398 22.8,13.202 9.6,2.4 0,24 -13.2,19.2 -16.8,7.2 -15.6,13.2 -13.2,15.6 -7.2,13.2 -3.6,13.2 -2.4,14.4 0,15.6 15.6,16.8 7.2,7.2 6,9.6 10.8,6 6,3.6 9.6,3.6 22.8,0 14.4,-7.2 9.6,-3.6 9.6,-9.6 -49.2,-32.4 7.2,-20.4 -10.8,-22.8 13.2,-16.8 -2.4,-9.6 -4.8,-22.8" inkscape:connector-curvature="0" id="path58" style="stroke:#000000;stroke-width:8;stroke-miterlimit:4;stroke-dasharray:none;fill:none;stroke-opacity:1"/>
      <path d="m 2390.4,1136.4 -22.8,-26.4 -3.6,24 6,6 16.8,-3.6" inkscape:connector-curvature="0" id="path60" style="stroke:#000000;stroke-width:8;stroke-miterlimit:4;stroke-dasharray:none;fill:none;stroke-opacity:1"/>
      <path d="m 2370,1179.6 13.2,-13.2 16.8,-13.2 13.2,-9.6 16.8,-3.6 -7.2,-20.4 0,-19.2 3.6,-16.8 -30,-26.4 0,-28.8 30,-7.2 16.8,-9.6 22.8,-23.998 22.8,-25.204 30,-39.597 19.2,-22.801 13.2,-30 0,-33.602 -2.4,-32.398" inkscape:connector-curvature="0" id="path62" style="stroke:#000000;stroke-width:8;stroke-miterlimit:4;stroke-dasharray:none;fill:none;stroke-opacity:1"/>
      <path d="m 2535.6,738 6,-7.199 7.2,-6 2.4,-3.602 3.6,-7.199 7.2,-9.602 0,-22.796 -10.8,7.199 -6,19.199 -13.2,9.602 -9.6,0 -3.6,-19.204 -9.6,-3.597 -7.2,16.801 0,15.597 9.6,10.801" inkscape:connector-curvature="0" id="path64" style="stroke:#000000;stroke-width:8;stroke-miterlimit:4;stroke-dasharray:none;fill:none;stroke-opacity:1"/>
      <path d="m 2509.2,807.602 -3.6,36 0,22.796 -19.2,20.403 -20.4,25.199 -22.8,24" inkscape:connector-curvature="0" id="path66" style="stroke:#000000;stroke-width:8;stroke-miterlimit:4;stroke-dasharray:none;fill:none;stroke-opacity:1"/>
      <path d="m 2436,740.398 63.6,-15.597" inkscape:connector-curvature="0" id="path68" style="stroke:#000000;stroke-width:8;stroke-miterlimit:4;stroke-dasharray:none;fill:none;stroke-opacity:1"/>
      <path d="m 2558.4,681.602 6,-30 14.4,-42 6,-37.204 6,-30 0,-45.597 3.6,-9.602 13.2,-20.398 13.2,-6 20.4,-9.602 19.2,-10.801 -3.6,-12 -28.8,8.403 -24,7.199 -30,7.199 -15.6,13.199 0,19.204 -7.2,26.398 -13.2,39.602 -13.2,39.597 -6,36" inkscape:connector-curvature="0" id="path70" style="stroke:#000000;stroke-width:8;stroke-miterlimit:4;stroke-dasharray:none;fill:none;stroke-opacity:1"/>
    </g>
  </g>
</svg>
