<?xml version="1.0" encoding="UTF-8"?>
<!-- Created with Inkscape (http://www.inkscape.org/) -->
<svg xmlns:dc="http://purl.org/dc/elements/1.1/" xmlns:cc="http://creativecommons.org/ns#" xmlns:rdf="http://www.w3.org/1999/02/22-rdf-syntax-ns#" xmlns:svg="http://www.w3.org/2000/svg" xmlns="http://www.w3.org/2000/svg" xmlns:inkscape="http://www.inkscape.org/namespaces/inkscape" version="1.1" width="765" height="990" id="svg2" xml:space="preserve">
  <metadata id="metadata8">
    <rdf:RDF>
      <cc:Work rdf:about="">
        <dc:format>image/svg+xml</dc:format>
        <dc:type rdf:resource="http://purl.org/dc/dcmitype/StillImage"/>
      </cc:Work>
    </rdf:RDF>
  </metadata>
  <defs id="defs6"/>
  <g transform="matrix(1.25,0,0,-1.25,0,990)" id="g10">
    <g transform="scale(0.1,0.1)" id="g12">
      <path d="m 2545.2,879.602 0,-864.0004 -67.2,0 0,864.0004" inkscape:connector-curvature="0" id="path14" style="stroke:#000000;stroke-width:8;stroke-miterlimit:4;stroke-dasharray:none;fill:none;stroke-opacity:1"/>
      <path d="m 2871.6,879.602 -718.8,0 0,226.798 12,26.4 13.2,15.6 31.2,0 20.4,-3.6 18,-12 64.8,-57.6 57.6,-51.6 44.4,-22.8 54,-11.999 44.4,-3.602 42,3.602 54,11.999 45.6,22.8 57.6,51.6 63.6,57.6 19.2,12 19.2,3.6 32.4,0 12,-15.6 13.2,-26.4 0,-226.798" inkscape:connector-curvature="0" id="path16" style="stroke:#000000;stroke-width:8;stroke-miterlimit:4;stroke-dasharray:none;fill:none;stroke-opacity:1"/>
      <path d="m 2378.4,1023.6 58.8,378 25.2,31.2 19.2,13.2 25.2,9.6 9.6,0 26.4,-9.6 18,-13.2 26.4,-31.2 57.6,-378" inkscape:connector-curvature="0" id="path18" style="stroke:#000000;stroke-width:8;stroke-miterlimit:4;stroke-dasharray:none;fill:none;stroke-opacity:1"/>
      <path d="m 2695.2,1087.2 -25.2,3.6 -15.6,13.2 -9.6,15.6 -7.2,15.6 3.6,28.8 13.2,19.2 15.6,9.6 25.2,7.2 26.4,-3.6 19.2,-13.2 12,-19.2 0,-40.8 -12,-16.8 -19.2,-15.6 -26.4,-3.6" inkscape:connector-curvature="0" id="path20" style="stroke:#000000;stroke-width:8;stroke-miterlimit:4;stroke-dasharray:none;fill:none;stroke-opacity:1"/>
      <path d="m 2341.2,1090.8 -28.8,0 -28.8,15.6 -10.8,19.2 -2.4,16.8 7.2,27.6 21.6,22.8 13.2,7.2 21.6,0 22.8,-3.6 19.2,-13.2 9.6,-21.6 0,-19.2 -7.2,-26.4 -8.4,-15.6 -16.8,-6 -12,-3.6" inkscape:connector-curvature="0" id="path22" style="stroke:#000000;stroke-width:8;stroke-miterlimit:4;stroke-dasharray:none;fill:none;stroke-opacity:1"/>
      <path d="m 2568,876 92.4,-280.801 6,-28.801 0,-38.398 -12,-28.801 -19.2,-19.199 -19.2,-13.199 -70.8,-9.602" inkscape:connector-curvature="0" id="path24" style="stroke:#000000;stroke-width:8;stroke-miterlimit:4;stroke-dasharray:none;fill:none;stroke-opacity:1"/>
      <path d="m 2478,457.199 -67.2,9.602 -32.4,22.801 -18,38.398 0,44.398 98.4,303.602" inkscape:connector-curvature="0" id="path26" style="stroke:#000000;stroke-width:8;stroke-miterlimit:4;stroke-dasharray:none;fill:none;stroke-opacity:1"/>
      <path d="m 579.602,211.199 -60,54 -76.801,42 L 414,67.1992 295.199,50.3984 254.398,19.1992 l 34.801,2.4024" inkscape:connector-curvature="0" id="path28" style="stroke:#000000;stroke-width:8;stroke-miterlimit:4;stroke-dasharray:none;fill:none;stroke-opacity:1"/>
      <path d="m 291.602,40.8008 -2.403,-25.1992 73.199,3.5976" inkscape:connector-curvature="0" id="path30" style="stroke:#000000;stroke-width:8;stroke-miterlimit:4;stroke-dasharray:none;fill:none;stroke-opacity:1"/>
      <path d="M 304.801,764.398 324,697.199 l 38.398,-192 0,-226.801 L 333.602,105.602 312,82.8008 148.801,57.6016 139.199,19.1992 91.1992,15.6016 114,40.8008 l 28.801,9.5976" inkscape:connector-curvature="0" id="path32" style="stroke:#000000;stroke-width:8;stroke-miterlimit:4;stroke-dasharray:none;fill:none;stroke-opacity:1"/>
      <path d="m 139.199,19.1992 117.602,0" inkscape:connector-curvature="0" id="path34" style="stroke:#000000;stroke-width:8;stroke-miterlimit:4;stroke-dasharray:none;fill:none;stroke-opacity:1"/>
      <path d="M 148.801,61.1992 91.1992,54 52.8008,44.3984 45.6016,19.1992 l 55.1994,0" inkscape:connector-curvature="0" id="path36" style="stroke:#000000;stroke-width:8;stroke-miterlimit:4;stroke-dasharray:none;fill:none;stroke-opacity:1"/>
      <path d="M 49.1992,44.3984 14.3984,19.1992 43.1992,21.6016" inkscape:connector-curvature="0" id="path38" style="stroke:#000000;stroke-width:8;stroke-miterlimit:4;stroke-dasharray:none;fill:none;stroke-opacity:1"/>
      <path d="m 685.199,1069.2 -88.801,8.4 -134.398,-8.4 -64.801,-42 -25.199,-63.598 19.199,-90 67.199,-70.801 438,-319.199 L 1101.6,342 l 105.6,-92.398 198,-208.8012 28.8,-19.1992 9.6,0 6,36 L 1376.4,172.801 1030.8,633.602 844.801,914.398 768,1008 l -98.398,82.8 -184.801,102 -13.199,147.6 -32.403,109.2 -144,6 -144,-6 L 120,1330.8 97.1992,1152 120,1000.8 202.801,870 333.602,735.602 458.398,601.199 554.398,422.398 592.801,115.199 573.602,80.3984 414,67.1992 l -48,-48 31.199,6" inkscape:connector-curvature="0" id="path40" style="stroke:#000000;stroke-width:8;stroke-miterlimit:4;stroke-dasharray:none;fill:none;stroke-opacity:1"/>
      <path d="m 400.801,54 -3.602,-34.8008 480,-3.5976 -12,32.3984" inkscape:connector-curvature="0" id="path42" style="stroke:#000000;stroke-width:8;stroke-miterlimit:4;stroke-dasharray:none;fill:none;stroke-opacity:1"/>
      <path d="m 871.199,21.6016 42,-6 -28.801,28.7968 -64.796,25.2032 -124.801,13.1992 -12,15.5976 L 666,301.199 742.801,272.398 819.602,214.801 790.801,399.602 896.398,332.398 1036.8,90 l 80.4,-45.6016 105.6,-28.7968 115.2,0 -134.4,199.1994 -86.4,111.597" inkscape:connector-curvature="0" id="path44" style="stroke:#000000;stroke-width:8;stroke-miterlimit:4;stroke-dasharray:none;fill:none;stroke-opacity:1"/>
      <path d="m 158.398,1340.4 40.801,63.6 42,-60" inkscape:connector-curvature="0" id="path46" style="stroke:#000000;stroke-width:8;stroke-miterlimit:4;stroke-dasharray:none;fill:none;stroke-opacity:1"/>
      <path d="m 256.801,1288.8 28.801,-159.6 42,157.2" inkscape:connector-curvature="0" id="path48" style="stroke:#000000;stroke-width:8;stroke-miterlimit:4;stroke-dasharray:none;fill:none;stroke-opacity:1"/>
      <path d="m 349.199,1338 42,63.6 45.602,-70.8" inkscape:connector-curvature="0" id="path50" style="stroke:#000000;stroke-width:8;stroke-miterlimit:4;stroke-dasharray:none;fill:none;stroke-opacity:1"/>
      <path d="m 381.602,1232.4 22.796,6 9.602,25.2 -6,16.8 -19.199,12 -22.801,-6 -9.602,-19.2 6,-26.4 22.801,-8.4" inkscape:connector-curvature="0" id="path52" style="stroke:#000000;stroke-width:8;stroke-miterlimit:4;stroke-dasharray:none;fill:none;stroke-opacity:1"/>
      <path d="m 206.398,1238.4 19.204,2.4 9.597,26.4 -7.199,21.6 -15.602,13.2 -26.398,-9.6 -8.398,-19.2 2.398,-22.8 26.398,-15.6" inkscape:connector-curvature="0" id="path54" style="stroke:#000000;stroke-width:8;stroke-miterlimit:4;stroke-dasharray:none;fill:none;stroke-opacity:1"/>
      <path d="m 1669.2,230.398 38.4,48 48,48 38.4,40.801 40.8,45.602 51.6,51.597 51.6,37.204 54,39.597 -103.2,914.401 -31.2,-9.6 -34.8,-15.6 -28.8,-22.8 -28.8,-34.8 -25.2,-42 -13.2,-44.4 -9.6,-38.4 -9.6,-51.6 -44.4,-1177.2008 60,-3.5976 -12,265.1994" inkscape:connector-curvature="0" id="path56" style="stroke:#000000;stroke-width:8;stroke-miterlimit:4;stroke-dasharray:none;fill:none;stroke-opacity:1"/>
      <path d="M 3711.6,1452 3696,1129.2 3690,854.398 3682.8,643.199 3667.2,492 3654,349.199 l 7.2,-153.597 9.6,-49.204 6,-37.199 -2.4,-39.5974 -20.4,-25.2032 -28.8,-19.1992 -34.8,-6 -63.6,15.6016 -25.2,19.1992 -42,9.6016 -96,-48 -396,3.5976 -15.6,50.4024 12,26.3984 36,6 136.8,28.801 115.2,57.597 76.8,28.801 67.2,15.602 48,42 15.6,42 3.6,44.398 -7.2,67.199 -2.4,90 -7.2,242.403 -2.4,243.599 -26.4,451.2 294,0" inkscape:connector-curvature="0" id="path58" style="stroke:#000000;stroke-width:8;stroke-miterlimit:4;stroke-dasharray:none;fill:none;stroke-opacity:1"/>
      <path d="m 4585.2,928.801 -15.6,-51.602 -28.8,-79.199 -48,-92.398 -51.6,-78 -38.4,-63.602 -42,-54 -15.6,-32.398 -6,-25.204 -3.6,-22.796 7.2,-34.801 2.4,-22.801 -6,-28.801 -9.6,-19.199 -28.8,-15.602 -34.8,0 -38.4,15.602 -13.2,3.602 -28.8,-7.204 -38.4,-15.597 -220.8,0 -6,32.398 19.2,19.199 54,6 73.2,19.204 68.4,32.398 50.4,44.398 42,51.602 13.2,28.801 25.2,73.199 67.2,182.398 40.8,90 45.6,86.403 38.4,63.599 31.2,51.6 28.8,38.4 22.8,28.8 19.2,9.6 15.6,2.4 13.2,-2.4 25.2,-3.6 38.4,-54 64.8,-105.598 63.6,-103.204 73.2,-127.199 57.6,-124.801 42,-109.199 12,-50.398 22.8,-51.602 28.8,-48 2.4,-22.801 -2.4,-25.199 -9.6,-19.199 -19.2,-9.602 -28.8,-6 -28.8,6 -9.6,9.602 -22.8,6 -21.6,0 -22.8,-19.199 -268.8,0 -2.4,22.801 8.4,15.597 70.8,19.199 61.2,16.801 44.4,15.602 42,19.199 21.6,22.801 13.2,25.199 0,19.199 -9.6,25.199 -38.4,57.602 -63.6,109.199 -61.2,82.801 -44.4,80.398 -22.8,63.602 -15.6,32.398" inkscape:connector-curvature="0" id="path60" style="stroke:#000000;stroke-width:8;stroke-miterlimit:4;stroke-dasharray:none;fill:none;stroke-opacity:1"/>
    </g>
  </g>
</svg>
