<?xml version="1.0" encoding="UTF-8"?>
<!-- Created with Inkscape (http://www.inkscape.org/) -->
<svg xmlns:dc="http://purl.org/dc/elements/1.1/" xmlns:cc="http://creativecommons.org/ns#" xmlns:rdf="http://www.w3.org/1999/02/22-rdf-syntax-ns#" xmlns:svg="http://www.w3.org/2000/svg" xmlns="http://www.w3.org/2000/svg" xmlns:inkscape="http://www.inkscape.org/namespaces/inkscape" version="1.1" width="765" height="990" id="svg2" xml:space="preserve">
  <metadata id="metadata8">
    <rdf:RDF>
      <cc:Work rdf:about="">
        <dc:format>image/svg+xml</dc:format>
        <dc:type rdf:resource="http://purl.org/dc/dcmitype/StillImage"/>
      </cc:Work>
    </rdf:RDF>
  </metadata>
  <defs id="defs6"/>
  <g transform="matrix(1.25,0,0,-1.25,0,990)" id="g10">
    <g transform="scale(0.1,0.1)" id="g12">
      <path d="m 1959.6,18 1375.2,0 0,202.801 -183.6,-129.6018 -6,62.4028 -18,57.597 -14.4,52.801 -54,80.398 -49.2,60 -66,43.204 -75.6,40.796 -99.6,25.204 -72,3.597 -46.8,2.403 -91.2,-10.801 -69.6,-14.403 -68.4,-18 -57.6,-28.796 -61.2,-48 -60,-61.204 -46.8,-74.398 -33.6,-98.398 -6,-80.4028 -195.6,125.9998 0,-193.199" inkscape:connector-curvature="0" id="path14" style="stroke:#000000;stroke-width:8;stroke-miterlimit:4;stroke-dasharray:none;fill:none;stroke-opacity:1"/>
      <path d="m 2748,517.199 49.2,150 -267.6,0 45.6,-150" inkscape:connector-curvature="0" id="path16" style="stroke:#000000;stroke-width:8;stroke-miterlimit:4;stroke-dasharray:none;fill:none;stroke-opacity:1"/>
      <path d="m 3360,1232.4 -1401.6,0 20.4,-51.6 34.8,-57.6 43.2,-61.2 49.2,-51.6 60,-49.201 60,-45.597 78,-40.801 55.2,-22.801 80.4,-28.801 86.4,-20.398 60,-8.403 146.4,0 63.6,8.403 86.4,20.398 78,28.801 54,22.801 78,40.801 60,45.597 61.2,49.201 48,51.6 46.8,61.2 31.2,57.6 20.4,51.6" inkscape:connector-curvature="0" id="path18" style="stroke:#000000;stroke-width:8;stroke-miterlimit:4;stroke-dasharray:none;fill:none;stroke-opacity:1"/>
      <path d="m 1958.4,1231.2 -19.2,64.8 -3.6,49.2 10.8,52.8 27.6,38.4 26.4,18 30,3.6 33.6,-14.4 7.2,-22.8 4.8,-26.4 -12,-38.4 -52.8,-40.8 -33.6,-26.4 -22.8,-61.2" inkscape:connector-curvature="0" id="path20" style="stroke:#000000;stroke-width:8;stroke-miterlimit:4;stroke-dasharray:none;fill:none;stroke-opacity:1"/>
      <path d="m 3858,252 182.4,0 73.2,-234 -326.4,0 70.8,234" inkscape:connector-curvature="0" id="path22" style="stroke:#000000;stroke-width:8;stroke-miterlimit:4;stroke-dasharray:none;fill:none;stroke-opacity:1"/>
      <path d="m 3954,252 0,972 15.6,3.6 13.2,6 19.2,19.2 9.6,16.8 9.6,27.6 2.4,39.6 3.6,25.2 3.6,21.6 15.6,22.8 13.2,6 21.6,3.6 19.2,7.2 -6,8.4 -82.8,20.4 -60,6 -87.6,-6 -69.6,-13.2 0,-15.6 19.2,-3.6 32.4,-19.2 8.4,-13.2 7.2,-12 6,-42 0,-26.4 9.6,-34.8 6,-19.2 28.8,-21.6 22.8,-7.2 0,-972" inkscape:connector-curvature="0" id="path24" style="stroke:#000000;stroke-width:8;stroke-miterlimit:4;stroke-dasharray:none;fill:none;stroke-opacity:1"/>
      <path d="m 3998.4,252 147.6,636 28.8,0 22.8,15.602 15.6,13.199 13.2,26.398 12,37.199 3.6,26.402 9.6,22.8 25.2,15.6 13.2,3.6 21.6,0 19.2,2.4 -2.4,9.6 -105.6,45.6 -45.6,15.6 -76.8,6 -66,3.6 -3.6,-16.8 15.6,-6 28.8,-25.2 9.6,-16.8 3.6,-12 -9.6,-38.4 -3.6,-28.798 0,-34.801 3.6,-20.403 21.6,-31.199 22.8,-9.597 L 3982.8,252" inkscape:connector-curvature="0" id="path26" style="stroke:#000000;stroke-width:8;stroke-miterlimit:4;stroke-dasharray:none;fill:none;stroke-opacity:1"/>
      <path d="m 3890.4,252 -144,636 -28.8,0 -22.8,15.602 -15.6,13.199 -13.2,26.398 -13.2,37.199 0,26.402 -12,22.8 -25.2,19.2 -34.8,0 -20.4,2.4 3.6,9.6 76.8,36 54,18 96,13.2 67.2,3.6 3.6,-16.8 -15.6,-6 -30,-25.2 -9.6,-16.8 -2.4,-12 9.6,-38.4 2.4,-28.798 0,-55.204 -21.6,-31.199 -22.8,-9.597 L 3906,252" inkscape:connector-curvature="0" id="path28" style="stroke:#000000;stroke-width:8;stroke-miterlimit:4;stroke-dasharray:none;fill:none;stroke-opacity:1"/>
      <path d="m 5354.4,1102.8 -754.8,0 9.6,63.6 9.6,42 15.6,40.8 22.8,32.4 19.2,28.8 26.4,36 27.6,25.2 36,25.2 28.8,19.2 40.8,19.2 42,13.2 28.8,6 50.4,6 39.6,0 34.8,-6 38.4,-6 40.8,-9.6 28.8,-9.6 39.6,-25.2 31.2,-22.8 28.8,-22.8 25.2,-32.4 26.4,-34.8 21.6,-34.8 15.6,-32.4 13.2,-48 9.6,-34.8 3.6,-38.4" inkscape:connector-curvature="0" id="path30" style="stroke:#000000;stroke-width:8;stroke-miterlimit:4;stroke-dasharray:none;fill:none;stroke-opacity:1"/>
      <path d="M 4786.8,96 5004,294 5209.2,96" inkscape:connector-curvature="0" id="path32" style="stroke:#000000;stroke-width:8;stroke-miterlimit:4;stroke-dasharray:none;fill:none;stroke-opacity:1"/>
      <path d="m 5292,186 -192,194.398 205.2,194.403" inkscape:connector-curvature="0" id="path34" style="stroke:#000000;stroke-width:8;stroke-miterlimit:4;stroke-dasharray:none;fill:none;stroke-opacity:1"/>
      <path d="M 5215.2,674.398 5011.2,480 4806,691.199" inkscape:connector-curvature="0" id="path36" style="stroke:#000000;stroke-width:8;stroke-miterlimit:4;stroke-dasharray:none;fill:none;stroke-opacity:1"/>
      <path d="M 4716,603.602 4914,392.398 4704,192" inkscape:connector-curvature="0" id="path38" style="stroke:#000000;stroke-width:8;stroke-miterlimit:4;stroke-dasharray:none;fill:none;stroke-opacity:1"/>
      <path d="m 4971.6,28.8008 90,2.3984 51.6,13.1992 44.4,19.2032 51.6,34.7968 38.4,35.9996 38.4,40.801 25.2,42 25.2,45.602 13.2,44.398 6,50.403 0,51.597 -15.6,88.801 -19.2,49.199 -28.8,48 -32.4,44.403 -48,40.796 -38.4,26.403 -38.4,15.597 -34.8,13.204 -48,9.597 -48,3.602 -63.6,0 -51.6,-13.199 -48,-19.204 -44.4,-25.199 -42,-36 -38.4,-44.398 -34.8,-44.403 -15.6,-32.398 -13.2,-36 -13.2,-60 0,-57.602 7.2,-42 6,-44.398 15.6,-44.398 22.8,-51.602 38.4,-48 38.4,-34.801 44.4,-35.9998 45.6,-21.5976 54,-19.2032 60,-9.5976" inkscape:connector-curvature="0" id="path40" style="stroke:#000000;stroke-width:8;stroke-miterlimit:4;stroke-dasharray:none;fill:none;stroke-opacity:1"/>
    </g>
  </g>
</svg>
