<?xml version="1.0" encoding="UTF-8"?>
<!-- Created with Inkscape (http://www.inkscape.org/) -->
<svg xmlns:dc="http://purl.org/dc/elements/1.1/" xmlns:cc="http://creativecommons.org/ns#" xmlns:rdf="http://www.w3.org/1999/02/22-rdf-syntax-ns#" xmlns:svg="http://www.w3.org/2000/svg" xmlns="http://www.w3.org/2000/svg" xmlns:inkscape="http://www.inkscape.org/namespaces/inkscape" version="1.1" id="svg2" xml:space="preserve">
  <metadata id="metadata8">
    <rdf:RDF>
      <cc:Work rdf:about="">
        <dc:format>image/svg+xml</dc:format>
        <dc:type rdf:resource="http://purl.org/dc/dcmitype/StillImage"/>
      </cc:Work>
    </rdf:RDF>
  </metadata>
  <defs id="defs6"/>
  <g transform="matrix(1.25,0,0,-1.25,0,990)" id="g10">
    <g transform="scale(0.1,0.1)" id="g12">
      <path d="m 318,918 781.2,0 0,-31.199 31.2,-4.801 49.2,-15.602 33.6,-20.398 43.2,-31.199 39.6,-40.801 34.8,-49.199 26.4,-48 22.8,-62.403 15.6,-62.398 8.4,-102 -8.4,-54 -22.8,-62.398 L 1344,306 l -22.8,-6 -36,2.398 -28.8,24 -13.2,27.602 -4.8,31.199 -2.4,22.801 7.2,80.398 10.8,87.602 -8.4,90 -22.8,63.602 -32.4,51.597 -33.6,39.602 -39.6,14.398 -18,0 0,-27.597 -102.001,0 0,-54 -152.398,0 0,54 -277.199,0 0,-54 -146.403,0 0,54 -103.199,0" inkscape:connector-curvature="0" id="path14" style="stroke:#000000;stroke-width:8;stroke-miterlimit:4;stroke-dasharray:none;fill:none;stroke-opacity:1"/>
      <path d="m 363.602,918 100.796,490.8 18,31.2 13.204,10.8 15.597,4.8 22.801,0 22.801,-12 4.801,-15.6 0,-19.2" inkscape:connector-curvature="0" id="path16" style="stroke:#000000;stroke-width:8;stroke-miterlimit:4;stroke-dasharray:none;fill:none;stroke-opacity:1"/>
      <path d="m 462,918 103.199,494.4 12,22.8 13.199,13.2 22.801,4.8 24,-7.2 12,-10.8 8.403,-15.6" inkscape:connector-curvature="0" id="path18" style="stroke:#000000;stroke-width:8;stroke-miterlimit:4;stroke-dasharray:none;fill:none;stroke-opacity:1"/>
      <path d="m 554.398,918 100.801,490.8 9.602,24 18,15.6 20.398,2.4 24,-2.4 18,-15.6 4.801,-20.4" inkscape:connector-curvature="0" id="path20" style="stroke:#000000;stroke-width:8;stroke-miterlimit:4;stroke-dasharray:none;fill:none;stroke-opacity:1"/>
      <path d="m 646.801,918 100.801,486 15.597,28.8 18,15.6 30,2.4 10.801,-2.4 15.602,-10.8 7.199,-25.2" inkscape:connector-curvature="0" id="path22" style="stroke:#000000;stroke-width:8;stroke-miterlimit:4;stroke-dasharray:none;fill:none;stroke-opacity:1"/>
      <path d="m 745.199,918 97.199,483.6 10.801,26.4 9.602,15.6 22.801,9.6 28.796,-4.8 20.403,-13.2 8.398,-18" inkscape:connector-curvature="0" id="path24" style="stroke:#000000;stroke-width:8;stroke-miterlimit:4;stroke-dasharray:none;fill:none;stroke-opacity:1"/>
      <path d="m 844.801,918 92.398,481.2 8.403,25.2 15.597,21.6 25.199,4.8 4.801,2.4 22.801,-9.6 15.6,-15.6 0,-15.6" inkscape:connector-curvature="0" id="path26" style="stroke:#000000;stroke-width:8;stroke-miterlimit:4;stroke-dasharray:none;fill:none;stroke-opacity:1"/>
      <path d="m 932.398,918 97.202,496.8 10.8,20.4 13.2,13.2 15.6,2.4 22.8,0 20.4,-7.2 10.8,-15.6 4.8,-26.4 L 1027.2,918 318,918 318,884.398 282,879.602 232.801,864 196.801,843.602 156,810 117.602,769.199 57.6016,668.398 l -18,-58.796 -18,-62.403 L 14.3984,444 21.6016,391.199 48,331.199 75.6016,302.398 97.1992,297.602 132,300 l 31.199,22.801 10.801,28.801 4.801,31.199 2.398,22.801 L 174,486 l -13.199,87.602 7.199,87.597 21.602,63.602 33.597,54 32.403,38.398 36,15.602 26.398,2.398 0,-22.801" inkscape:connector-curvature="0" id="path28" style="stroke:#000000;stroke-width:8;stroke-miterlimit:4;stroke-dasharray:none;fill:none;stroke-opacity:1"/>
      <path d="M 571.199,508.801 560.398,534 540,574.801 l -12,20.398 346.801,0 -20.403,-36 L 838.801,524.398 834,508.801" inkscape:connector-curvature="0" id="path30" style="stroke:#000000;stroke-width:8;stroke-miterlimit:4;stroke-dasharray:none;fill:none;stroke-opacity:1"/>
      <path d="M 530.398,408 450,451.199 432,390 472.801,358.801 501.602,338.398 540,297.602" inkscape:connector-curvature="0" id="path32" style="stroke:#000000;stroke-width:8;stroke-miterlimit:4;stroke-dasharray:none;fill:none;stroke-opacity:1"/>
      <path d="M 874.801,408 951.602,451.199 972,387.602 936,366 895.199,328.801 867.602,297.602" inkscape:connector-curvature="0" id="path34" style="stroke:#000000;stroke-width:8;stroke-miterlimit:4;stroke-dasharray:none;fill:none;stroke-opacity:1"/>
      <path d="m 586.801,328.801 4.801,14.398 10.796,18 15.602,18 20.398,18 36,13.199 22.801,2.403 28.801,-2.403 30,-10.796 26.398,-15.602 12,-18 13.204,-14.398 10.796,-28.801 -42,26.398 -30,9.602 L 720,366 l -20.398,3.602 -25.204,-6 -26.398,-4.801 -30,-15.602 -21.602,-14.398 -9.597,-6" inkscape:connector-curvature="0" id="path36" style="stroke:#000000;stroke-width:8;stroke-miterlimit:4;stroke-dasharray:none;fill:none;stroke-opacity:1"/>
      <path d="m 602.398,52.8008 40.801,168.0002 18,22.801 18,7.199 20.403,4.801 28.796,-4.801 20.403,-15.602 10.801,-18 43.199,-166.8006" inkscape:connector-curvature="0" id="path38" style="stroke:#000000;stroke-width:8;stroke-miterlimit:4;stroke-dasharray:none;fill:none;stroke-opacity:1"/>
      <path d="M 704.398,16.8008 666,19.1992 648,24 l -14.398,3.6016 -26.403,12 -18,22.7968 -15.597,24 -10.801,26.4026 -7.199,30 -9.602,40.801 -15.602,216 2.403,39.597 4.801,18 2.398,14.403 13.199,21.597 15.602,15.602 25.199,15.597 24,7.204 20.398,2.398 61.204,4.801 72,-4.801 31.199,-4.801 L 828,513.602 843.602,502.801 856.801,482.398 870,441.602 872.398,408 859.199,220.801 854.398,168 838.801,112.801 828,86.3984 812.398,60 802.801,48 787.199,34.8008 769.199,24 l -22.801,-4.8008 -42,-2.3984" inkscape:connector-curvature="0" id="path40" style="stroke:#000000;stroke-width:8;stroke-miterlimit:4;stroke-dasharray:none;fill:none;stroke-opacity:1"/>
    </g>
  </g>
</svg>
