<?xml version="1.0" encoding="UTF-8"?>
<!-- Created with Inkscape (http://www.inkscape.org/) -->
<svg xmlns:dc="http://purl.org/dc/elements/1.1/" xmlns:cc="http://creativecommons.org/ns#" xmlns:rdf="http://www.w3.org/1999/02/22-rdf-syntax-ns#" xmlns:svg="http://www.w3.org/2000/svg" xmlns="http://www.w3.org/2000/svg" xmlns:inkscape="http://www.inkscape.org/namespaces/inkscape" version="1.1" width="765" height="990" id="svg2" xml:space="preserve">
  <metadata id="metadata8">
    <rdf:RDF>
      <cc:Work rdf:about="">
        <dc:format>image/svg+xml</dc:format>
        <dc:type rdf:resource="http://purl.org/dc/dcmitype/StillImage"/>
      </cc:Work>
    </rdf:RDF>
  </metadata>
  <defs id="defs6"/>
  <g transform="matrix(1.25,0,0,-1.25,0,990)" id="g10">
    <g transform="scale(0.1,0.1)" id="g12">
      <path d="m 408,880.801 0,-864.0002 -67.199,0 0,864.0002" inkscape:connector-curvature="0" id="path14" style="stroke:#000000;stroke-width:8;stroke-miterlimit:4;stroke-dasharray:none;fill:none;stroke-opacity:1"/>
      <path d="m 733.199,880.801 -718.8006,0 0,226.799 12,25.2 13.2032,16.8 32.3984,0 19.1992,-3.6 19.1988,-13.2 63.602,-57.6 57.602,-50.4 44.398,-22.8 55.199,-13.199 44.403,-3.602 42,3.602 54,13.199 44.398,22.8 57.602,50.4 63.597,57.6 19.199,13.2 20.403,3.6 31.199,0 12,-16.8 13.199,-25.2 0,-226.799" inkscape:connector-curvature="0" id="path16" style="stroke:#000000;stroke-width:8;stroke-miterlimit:4;stroke-dasharray:none;fill:none;stroke-opacity:1"/>
      <path d="m 241.199,1024.8 57.602,376.8 26.398,32.4 18,12 26.403,9.6 9.597,0 25.199,-9.6 19.204,-12 25.199,-32.4 57.597,-376.8" inkscape:connector-curvature="0" id="path18" style="stroke:#000000;stroke-width:8;stroke-miterlimit:4;stroke-dasharray:none;fill:none;stroke-opacity:1"/>
      <path d="m 558,1088.4 -26.398,2.4 -15.602,13.2 -9.602,16.8 -6,15.6 2.403,28.8 13.199,19.2 15.602,9.6 26.398,6 25.199,-3.6 19.199,-12 13.204,-19.2 0,-42 -13.204,-15.6 -19.199,-16.8 -25.199,-2.4" inkscape:connector-curvature="0" id="path20" style="stroke:#000000;stroke-width:8;stroke-miterlimit:4;stroke-dasharray:none;fill:none;stroke-opacity:1"/>
      <path d="m 202.801,1090.8 -28.801,0 -28.801,16.8 -9.597,19.2 -3.602,15.6 7.199,28.8 21.602,22.8 13.199,6 22.801,0 22.801,-3.6 18,-12 10.796,-22.8 0,-19.2 -7.199,-25.2 -9.597,-15.6 -16.801,-7.2 -12,-3.6" inkscape:connector-curvature="0" id="path22" style="stroke:#000000;stroke-width:8;stroke-miterlimit:4;stroke-dasharray:none;fill:none;stroke-opacity:1"/>
      <path d="m 429.602,877.199 93.597,-280.801 6,-28.796 0,-39.602 L 516,499.199 496.801,481.199 477.602,468 408,458.398" inkscape:connector-curvature="0" id="path24" style="stroke:#000000;stroke-width:8;stroke-miterlimit:4;stroke-dasharray:none;fill:none;stroke-opacity:1"/>
      <path d="M 340.801,458.398 273.602,468 241.199,490.801 222,528 l 0,45.602 98.398,303.597" inkscape:connector-curvature="0" id="path26" style="stroke:#000000;stroke-width:8;stroke-miterlimit:4;stroke-dasharray:none;fill:none;stroke-opacity:1"/>
      <path d="m 1578,462 -754.801,0 9.602,63.602 9.597,42 15.602,40.796 22.801,32.403 19.199,28.801 26.398,34.796 28.801,25.204 L 990,756 l 28.8,19.199 42,19.199 40.8,12 28.8,7.204 51.6,6 38.4,0 34.8,-6 38.4,-7.204 42,-9.597 27.6,-9.602 39.6,-25.199 31.2,-22.801 28.8,-22.801 26.4,-31.199 25.2,-34.801 22.8,-34.796 15.6,-32.403 13.2,-48 8.4,-36 L 1578,462" inkscape:connector-curvature="0" id="path28" style="stroke:#000000;stroke-width:8;stroke-miterlimit:4;stroke-dasharray:none;fill:none;stroke-opacity:1"/>
      <path d="m 2383.2,1472.4 -15.6,-322.8 -6,-274.799 -7.2,-211.199 -15.6,-150 -13.2,-144 7.2,-153.602 9.6,-48 6,-38.398 L 2346,91.1992 2325.6,66 l -28.8,-20.3984 -34.8,-6 -63.6,16.7968 -25.2,19.2032 -42,9.5976 -96,-48 -397.2,2.4024 -15.6,51.5976 13.2,25.1988 36,6 136.8,28.801 115.2,58.801 76.8,28.801 67.2,15.597 48,42 15.6,40.801 3.6,44.403 -7.2,68.398 -2.4,88.801 -7.2,243.597 -2.4,242.402 -26.4,451.2 294,0" inkscape:connector-curvature="0" id="path30" style="stroke:#000000;stroke-width:8;stroke-miterlimit:4;stroke-dasharray:none;fill:none;stroke-opacity:1"/>
      <path d="m 2685.6,680.398 69.6,-31.199 97.2,-19.199 165.6,-13.199 172.8,3.597 182.4,19.204 169.2,15.597 115.2,0 54,-6 151.2,-63.597 140.4,-51.602 69.6,-7.199 -165.6,103.199 -90,69.602 86.4,76.796 105.6,74.403 79.2,46.801 -142.8,-31.204 -159.6,-51.597 -97.2,-38.403 -130.8,7.204 -213.6,42 -243.6,40.796 -171.6,6 -180,-19.199 -136.8,-32.398 -55.2,-28.801 -25.2,-27.602 32.4,-13.199" inkscape:connector-curvature="0" id="path32" style="stroke:#000000;stroke-width:8;stroke-miterlimit:4;stroke-dasharray:none;fill:none;stroke-opacity:1"/>
      <path d="m 2532,757.199 25.2,-25.199 36,-19.199 48,-15.602 21.6,-3.597 28.8,32.398 19.2,25.199" inkscape:connector-curvature="0" id="path34" style="stroke:#000000;stroke-width:8;stroke-miterlimit:4;stroke-dasharray:none;fill:none;stroke-opacity:1"/>
      <path d="m 2737.2,745.199 -16.8,-32.398 -34.8,-32.403 -19.2,10.801" inkscape:connector-curvature="0" id="path36" style="stroke:#000000;stroke-width:8;stroke-miterlimit:4;stroke-dasharray:none;fill:none;stroke-opacity:1"/>
      <path d="m 2628,774 6,2.398 0,13.204 -6,6 -6,-3.602 0,-8.398 6,-9.602" inkscape:connector-curvature="0" id="path38" style="stroke:#000000;stroke-width:8;stroke-miterlimit:4;stroke-dasharray:none;fill:none;stroke-opacity:1"/>
      <path d="m 2784,643.199 28.8,12 19.2,6 -21.6,19.199 -34.8,3.602 -49.2,-22.801 13.2,-21.597 26.4,-22.801 31.2,-13.199 0,13.199 -15.6,26.398" inkscape:connector-curvature="0" id="path40" style="stroke:#000000;stroke-width:8;stroke-miterlimit:4;stroke-dasharray:none;fill:none;stroke-opacity:1"/>
      <path d="m 2823.6,866.398 123.6,51.602 90,25.199 80.4,6 L 3012,870" inkscape:connector-curvature="0" id="path42" style="stroke:#000000;stroke-width:8;stroke-miterlimit:4;stroke-dasharray:none;fill:none;stroke-opacity:1"/>
      <path d="m 2826,630 70.8,-38.398 69.6,-25.204 134.4,-32.398 -102,82.801" inkscape:connector-curvature="0" id="path44" style="stroke:#000000;stroke-width:8;stroke-miterlimit:4;stroke-dasharray:none;fill:none;stroke-opacity:1"/>
      <path d="m 3133.2,616.801 42,-54 232.8,25.199 -38.4,48" inkscape:connector-curvature="0" id="path46" style="stroke:#000000;stroke-width:8;stroke-miterlimit:4;stroke-dasharray:none;fill:none;stroke-opacity:1"/>
      <path d="m 3715.2,783.602 15.6,-45.602 6,-38.398 -2.4,-25.204 -13.2,-25.199" inkscape:connector-curvature="0" id="path48" style="stroke:#000000;stroke-width:8;stroke-miterlimit:4;stroke-dasharray:none;fill:none;stroke-opacity:1"/>
    </g>
  </g>
</svg>
