<?xml version="1.0" encoding="UTF-8"?>
<!-- Created with Inkscape (http://www.inkscape.org/) -->
<svg xmlns:dc="http://purl.org/dc/elements/1.1/" xmlns:cc="http://creativecommons.org/ns#" xmlns:rdf="http://www.w3.org/1999/02/22-rdf-syntax-ns#" xmlns:svg="http://www.w3.org/2000/svg" xmlns="http://www.w3.org/2000/svg" xmlns:inkscape="http://www.inkscape.org/namespaces/inkscape" version="1.1" width="765" height="990" id="svg2" xml:space="preserve">
  <metadata id="metadata8">
    <rdf:RDF>
      <cc:Work rdf:about="">
        <dc:format>image/svg+xml</dc:format>
        <dc:type rdf:resource="http://purl.org/dc/dcmitype/StillImage"/>
      </cc:Work>
    </rdf:RDF>
  </metadata>
  <defs id="defs6"/>
  <g transform="matrix(1.25,0,0,-1.25,0,990)" id="g10">
    <g transform="scale(0.1,0.1)" id="g12">
      <path d="m 198,416.398 75.602,0 -1.204,27.602 8.403,37.199 7.199,21.602 15.602,33.597 69.597,123.602 3.602,26.398 1.199,13.204 -2.398,22.796 L 372,738 l -6,19.199 -12,18 -9.602,9.602 -21.597,21.597 -18,6 -37.199,4.801 -30,-4.801 -13.204,-4.796 L 210,796.801 195.602,782.398 188.398,774 l -6,-8.398" inkscape:connector-curvature="0" id="path14" style="stroke:#000000;stroke-width:8;stroke-miterlimit:4;stroke-dasharray:none;fill:none;stroke-opacity:1"/>
      <path d="m 178.801,764.398 -12,-4.796 -123.6018,-24 -12,-9.602 -8.3984,-6 L 14.3984,705.602 12,685.199 l 1.1992,-4.801 3.6016,-2.398 3.5976,0 6,2.398 2.4024,12 8.3984,10.801 L 48,714 60,717.602 76.8008,722.398 180,736.801 182.398,738 198,735.602" inkscape:connector-curvature="0" id="path16" style="stroke:#000000;stroke-width:8;stroke-miterlimit:4;stroke-dasharray:none;fill:none;stroke-opacity:1"/>
      <path d="m 180,764.398 18,-30 0,-16.796" inkscape:connector-curvature="0" id="path18" style="stroke:#000000;stroke-width:8;stroke-miterlimit:4;stroke-dasharray:none;fill:none;stroke-opacity:1"/>
      <path d="m 31.1992,693.602 12,7.199 18,4.801 50.4028,6 49.199,6 38.398,0 10.801,-1.204 19.199,-4.796 36,-7.204 19.199,-1.199 13.204,1.199 15.597,4.801 9.602,-6 3.597,-6 1.204,-15.597 -1.204,-12 -6,-15.602 L 264,579.602 235.199,535.199 224.398,512.398 211.199,486 l -8.398,-33.602 -4.801,-36" inkscape:connector-curvature="0" id="path20" style="stroke:#000000;stroke-width:8;stroke-miterlimit:4;stroke-dasharray:none;fill:none;stroke-opacity:1"/>
      <path d="m 307.199,811.199 66,-24 64.801,-15.597 26.398,-6 22.801,-1.204 27.602,0 31.199,1.204 22.801,6 22.801,4.796 L 594,774 l -2.398,-9.602 -8.403,-6 -31.199,-7.199 -30,-3.597 -34.801,0 -28.801,2.398 -50.398,9.602 -27.602,9.597" inkscape:connector-curvature="0" id="path22" style="stroke:#000000;stroke-width:8;stroke-miterlimit:4;stroke-dasharray:none;fill:none;stroke-opacity:1"/>
      <path d="M 344.398,787.199 394.801,760.801 444,735.602 475.199,720 498,711.602 l 25.199,-7.204 18,-2.398 32.403,-3.602 14.398,2.403 6,1.199 6,-3.602 L 601.199,690 582,684 558,681.602 532.801,685.199 498,693.602 466.801,703.199 438,717.602 367.199,758.398" inkscape:connector-curvature="0" id="path24" style="stroke:#000000;stroke-width:8;stroke-miterlimit:4;stroke-dasharray:none;fill:none;stroke-opacity:1"/>
      <path d="m 238.801,780 -8.403,-1.199 -6,-7.199 0,-9.602 6,-6 9.602,0 8.398,3.602 1.204,4.796 -2.403,8.403 -6,7.199" inkscape:connector-curvature="0" id="path26" style="stroke:#000000;stroke-width:8;stroke-miterlimit:4;stroke-dasharray:none;fill:none;stroke-opacity:1"/>
      <path d="M 745.199,492 886.801,628.801" inkscape:connector-curvature="0" id="path28" style="stroke:#000000;stroke-width:8;stroke-miterlimit:4;stroke-dasharray:none;fill:none;stroke-opacity:1"/>
      <path d="m 693.602,512.398 175.199,168" inkscape:connector-curvature="0" id="path30" style="stroke:#000000;stroke-width:8;stroke-miterlimit:4;stroke-dasharray:none;fill:none;stroke-opacity:1"/>
      <path d="m 660,548.398 175.199,168" inkscape:connector-curvature="0" id="path32" style="stroke:#000000;stroke-width:8;stroke-miterlimit:4;stroke-dasharray:none;fill:none;stroke-opacity:1"/>
      <path d="M 640.801,598.801 781.199,733.199" inkscape:connector-curvature="0" id="path34" style="stroke:#000000;stroke-width:8;stroke-miterlimit:4;stroke-dasharray:none;fill:none;stroke-opacity:1"/>
      <path d="m 816,726 -12,3.602 -12,3.597 -13.199,2.403 -13.199,0 -14.403,-1.204 -12,-1.199 -13.199,-3.597 -12,-4.801 -12,-6 -10.801,-7.199 -9.597,-8.403 -8.403,-8.398 -6,-7.199 L 660,678 l -7.199,-14.398 -3.602,-10.801 -3.597,-13.199 -1.204,-12 -3.597,-14.403 0,-10.801 3.597,-14.398 2.403,-12 3.597,-12 4.801,-12 4.801,-6 3.602,-4.801 L 674.398,528 685.199,517.199 694.801,510 708,502.801 l 12,-6 13.199,-3.602 12,-3.597 13.199,0 13.204,-1.204 14.398,2.403 10.801,2.398 13.199,6 13.199,6 9.602,4.801 9.597,8.398 9.602,8.403 9.602,9.597 8.398,13.204 7.199,10.796 6,10.801 2.403,13.199 1.199,12 2.398,14.403 -1.199,12 -1.199,14.398 -2.403,12 -4.796,10.801 -6,14.398 -7.204,10.801 -8.398,8.403 -8.398,10.796 -10.801,8.403 L 828,720 l -12,6" inkscape:connector-curvature="0" id="path36" style="stroke:#000000;stroke-width:8;stroke-miterlimit:4;stroke-dasharray:none;fill:none;stroke-opacity:1"/>
      <path d="m 742.801,25.1992 -18,2.4024 -18,3.5976 -14.403,8.4024 -12,7.1992 -20.398,22.8008 -20.398,21.5976 -18,25.1988 -9.602,20.403 -6,15.597 -9.602,28.801 -2.398,33.602 2.398,15.597 9.602,19.204 15.602,19.199 -25.204,8.398 -19.199,14.403 -30,40.796 21.602,-62.398 14.398,-50.398 2.403,-26.403 3.597,-21.597 7.199,-20.403 6,-19.199 10.801,-16.801 L 624,97.1992 637.199,82.8008 651.602,67.1992 663.602,54 672,44.3984 679.199,39.6016 651.602,48 622.801,58.8008 596.398,72 l -27.597,27.6016 -15.602,21.5974 -12,20.403 -12,26.398 -10.801,30 -7.199,28.801 -4.801,27.597 -2.398,22.801 2.398,24 7.204,18 22.796,30 10.801,13.199 -30,13.204 -24,19.199 -26.398,36 16.801,-55.199 15.597,-54 -2.398,-36 1.199,-28.801 4.801,-27.602 3.597,-24 8.403,-22.801 8.398,-19.199 8.403,-20.398 13.199,-25.199 32.398,-40.8012 -25.199,14.3984 -25.199,15.6018 -27.602,24 -27.597,26.398 L 452.398,186 444,213.602 l -7.199,30 2.398,30 4.801,12 7.199,15.597 10.801,12 -25.199,13.199 -22.801,18 -31.199,39.602 20.398,-57.602 20.403,-60 4.796,-21.597 1.204,-15.602 6,-24 13.199,-31.199 10.801,-16.801 15.597,-16.801 13.199,-13.199 18,-16.801 L 525.602,98.3984 548.398,84 l 26.403,-15.6016 62.398,-25.1992 50.403,-18 38.398,-6 16.801,-2.3984 0,7.1992" inkscape:connector-curvature="0" id="path38" style="stroke:#000000;stroke-width:8;stroke-miterlimit:4;stroke-dasharray:none;fill:none;stroke-opacity:1"/>
    </g>
  </g>
</svg>
