<?xml version="1.0" encoding="UTF-8"?>
<!-- Created with Inkscape (http://www.inkscape.org/) -->
<svg xmlns:dc="http://purl.org/dc/elements/1.1/" xmlns:cc="http://creativecommons.org/ns#" xmlns:rdf="http://www.w3.org/1999/02/22-rdf-syntax-ns#" xmlns:svg="http://www.w3.org/2000/svg" xmlns="http://www.w3.org/2000/svg" xmlns:inkscape="http://www.inkscape.org/namespaces/inkscape" version="1.1" width="765" height="990" id="svg2" xml:space="preserve">
  <metadata id="metadata8">
    <rdf:RDF>
      <cc:Work rdf:about="">
        <dc:format>image/svg+xml</dc:format>
        <dc:type rdf:resource="http://purl.org/dc/dcmitype/StillImage"/>
      </cc:Work>
    </rdf:RDF>
  </metadata>
  <defs id="defs6"/>
  <g transform="matrix(1.25,0,0,-1.25,0,990)" id="g10">
    <g transform="scale(0.1,0.1)" id="g12">
      <path d="m 3697.2,1670.4 889.2,0 0,-1659.5992 -889.2,0 0,1659.5992" inkscape:connector-curvature="0" id="path14" style="stroke:#000000;stroke-width:8;stroke-miterlimit:4;stroke-dasharray:none;fill:none;stroke-opacity:1"/>
      <path d="m 3697.2,10.8008 889.199,0 0,1659.6 -889.199,0 0,-1659.6 z" inkscape:connector-curvature="0" id="path16" style="stroke:#000000;stroke-width:8;stroke-miterlimit:4;stroke-dasharray:none;fill:none;stroke-opacity:1"/>
      <path d="m 808.801,781.199 1179.599,0 0,-740.3982 -1179.599,0 0,740.3982" inkscape:connector-curvature="0" id="path18" style="stroke:#000000;stroke-width:8;stroke-miterlimit:4;stroke-dasharray:none;fill:none;stroke-opacity:1"/>
      <path d="m 808.801,40.8008 1179.6,0 0,740.398 -1179.6,0 0,-740.398 z" inkscape:connector-curvature="0" id="path20" style="stroke:#000000;stroke-width:8;stroke-miterlimit:4;stroke-dasharray:none;fill:none;stroke-opacity:1"/>
      <path d="m 372,1659.6 75.602,0 0,-1618.7992 -75.602,0 0,1618.7992" inkscape:connector-curvature="0" id="path22" style="stroke:#000000;stroke-width:8;stroke-miterlimit:4;stroke-dasharray:none;fill:none;stroke-opacity:1"/>
      <path d="m 372,1558.8 -360,0 0,-68.4 360,0" inkscape:connector-curvature="0" id="path24" style="stroke:#000000;stroke-width:8;stroke-miterlimit:4;stroke-dasharray:none;fill:none;stroke-opacity:1"/>
      <path d="m 372,1382.4 -360,0 0,-67.2 360,0" inkscape:connector-curvature="0" id="path26" style="stroke:#000000;stroke-width:8;stroke-miterlimit:4;stroke-dasharray:none;fill:none;stroke-opacity:1"/>
      <path d="M 372,505.199 48,748.801 26.3984,789.602 12,829.199 30,894 l 28.8008,25.199 28.8008,18 32.3984,-3.597 36,-8.403 14.398,-14.398 18,-25.199 3.602,-24 -7.199,-22.801 -18,-24 -25.199,-10.801 -25.204,0 -35.9996,20.398 -7.1992,28.801" inkscape:connector-curvature="0" id="path28" style="stroke:#000000;stroke-width:8;stroke-miterlimit:4;stroke-dasharray:none;fill:none;stroke-opacity:1"/>
      <path d="m 372,501.602 -280.8008,0 L 372,40.8008" inkscape:connector-curvature="0" id="path30" style="stroke:#000000;stroke-width:8;stroke-miterlimit:4;stroke-dasharray:none;fill:none;stroke-opacity:1"/>
      <path d="m 1728,1260 -848.398,0 10.796,72 9.602,46.8 18,46.8 26.398,36 20.403,32.4 28.801,39.6 32.398,28.8 39.6,28.8 32.4,21.6 46.8,21.6 46.8,14.4 32.4,7.2 57.6,7.2 43.2,0 39.6,-7.2 43.2,-7.2 46.8,-10.8 32.4,-10.8 43.2,-28.8 36,-25.2 32.4,-25.2 28.8,-36 28.8,-39.6 25.2,-39.6 18,-36 14.4,-54 10.8,-39.6 3.6,-43.2" inkscape:connector-curvature="0" id="path32" style="stroke:#000000;stroke-width:8;stroke-miterlimit:4;stroke-dasharray:none;fill:none;stroke-opacity:1"/>
      <path d="m 2626.8,1242 -10.8,-49.2 -43.2,-19.2 -39.6,-36 -10.8,-32.4 3.6,-34.8 21.6,-48 54,-70.798 86.4,-86.403 234,-144 126,-68.398 104.4,-43.199 61.2,-39.602 39.6,-25.199 82.8,-86.403 10.8,-3.597 0,43.199 -36,140.398 -54,214.801 -46.8,183.601 -61.2,151.2 -61.2,104.4 -50.4,68.4 -57.6,50.4 -43.2,25.2 -72,14.4 -54,-3.6 -57.6,-21.6 -136.8,-115.2 -57.6,-43.2 -32.4,-10.8 -28.8,7.2 -13.2,32.4 13.2,46.8 48,61.2 42,64.8 19.2,57.6 2.4,54 -16.8,39.6 -37.2,28.8 -43.2,14.4 -38.4,-7.2 -44.4,-14.4 -25.2,-18 -20.4,-14.4 -12,-21.6 -14.4,-36 8.4,-39.6 14.4,-14.4 18,-14.4 14.4,-18 2.4,-21.6 -2.4,-32.4 -93.6,-171.6 -14.4,-58.8 0,-54 18,-52.8 34.8,-37.2 133.2,-85.198 26.4,-37.204 L 2616,786 l 32.4,-40.801 43.2,-38.398 115.2,-54 14.4,-3.602 14.4,-50.398 79.2,-115.199 10.8,-25.204 7.2,-28.796 36,-262.801 L 2965.2,138 2958,123.602 2936.4,120 2806.8,109.199 2727.6,102 2702.4,87.6016 2698.8,62.3984 2720.4,48" inkscape:connector-curvature="0" id="path34" style="stroke:#000000;stroke-width:8;stroke-miterlimit:4;stroke-dasharray:none;fill:none;stroke-opacity:1"/>
      <path d="M 2716.8,98.3984 2688,87.6016 2673.6,73.1992 2670,48 l 28.8,10.8008" inkscape:connector-curvature="0" id="path36" style="stroke:#000000;stroke-width:8;stroke-miterlimit:4;stroke-dasharray:none;fill:none;stroke-opacity:1"/>
      <path d="M 2781.6,87.6016 2749.2,84 l -14.4,-18 -3.6,-14.3984 32.4,3.5976" inkscape:connector-curvature="0" id="path38" style="stroke:#000000;stroke-width:8;stroke-miterlimit:4;stroke-dasharray:none;fill:none;stroke-opacity:1"/>
      <path d="m 2860.8,102 -57.6,-7.1992 -36,-14.4024 0,-21.5976 18,-10.8008 36,3.6016 162,14.3984 129.6,-18 18,3.6016 0,21.5976 -7.2,18 -86.4,21.6018 -10.8,10.801 -21.6,248.398 3.6,46.801 -10.8,36 L 2976,516 2965.2,645.602" inkscape:connector-curvature="0" id="path40" style="stroke:#000000;stroke-width:8;stroke-miterlimit:4;stroke-dasharray:none;fill:none;stroke-opacity:1"/>
      <path d="m 2968.8,606 72,-18 93.6,-10.801 64.8,0" inkscape:connector-curvature="0" id="path42" style="stroke:#000000;stroke-width:8;stroke-miterlimit:4;stroke-dasharray:none;fill:none;stroke-opacity:1"/>
      <path d="m 3130.8,84 18,-3.6016 14.4,-14.3984 3.6,-14.3984 -32.4,7.1992" inkscape:connector-curvature="0" id="path44" style="stroke:#000000;stroke-width:8;stroke-miterlimit:4;stroke-dasharray:none;fill:none;stroke-opacity:1"/>
      <path d="M 2680.8,714 2709.6,483.602 2706,451.199 2536.8,141.602 2526,127.199 2508,123.602 2293.2,102 l -18,-7.1992 0,-7.1992 -21.6,-3.6016 -10.8,-7.1992 -3.6,-18 -4.8,-14.4024 28.8,21.6016 8.4,-14.3984 28.8,0" inkscape:connector-curvature="0" id="path46" style="stroke:#000000;stroke-width:8;stroke-miterlimit:4;stroke-dasharray:none;fill:none;stroke-opacity:1"/>
      <path d="M 2338.8,84 2310,76.8008 2300.4,62.3984 2307.6,48 l 34.8,10.8008" inkscape:connector-curvature="0" id="path48" style="stroke:#000000;stroke-width:8;stroke-miterlimit:4;stroke-dasharray:none;fill:none;stroke-opacity:1"/>
      <path d="M 2457.6,102 2367.6,87.6016 2342.4,84 2342.4,58.8008 2356.8,48 2502,62.3984 2547.6,69.6016 2630.4,55.1992 2662.8,48" inkscape:connector-curvature="0" id="path50" style="stroke:#000000;stroke-width:8;stroke-miterlimit:4;stroke-dasharray:none;fill:none;stroke-opacity:1"/>
      <path d="m 2680.8,87.6016 -74.4,18.0004 -8.4,10.796 3.6,18 126,226.801 18,21.602 18,36 7.2,36 64.8,147.597" inkscape:connector-curvature="0" id="path52" style="stroke:#000000;stroke-width:8;stroke-miterlimit:4;stroke-dasharray:none;fill:none;stroke-opacity:1"/>
      <path d="m 2367.6,1594.8 -133.2,-25.2 -28.8,-14.4 -27.6,-25.2 -19.2,-46.8 22.8,14.4 43.2,21.6 52.8,14.4 37.2,0 38.4,7.2" inkscape:connector-curvature="0" id="path54" style="stroke:#000000;stroke-width:8;stroke-miterlimit:4;stroke-dasharray:none;fill:none;stroke-opacity:1"/>
      <path d="m 2167.2,1486.8 52.8,7.2 57.6,3.6 46.8,-7.2 37.2,3.6 18,0" inkscape:connector-curvature="0" id="path56" style="stroke:#000000;stroke-width:8;stroke-miterlimit:4;stroke-dasharray:none;fill:none;stroke-opacity:1"/>
      <path d="m 2436,1580.4 7.2,-21.6 12,-3.6 14.4,0 9.6,10.8 0,14.4 -6,10.8 -15.6,3.6 -10.8,-3.6 -10.8,-14.4" inkscape:connector-curvature="0" id="path58" style="stroke:#000000;stroke-width:8;stroke-miterlimit:4;stroke-dasharray:none;fill:none;stroke-opacity:1"/>
      <path d="m 3777.6,1616.4 0,-331.2 118.8,15.6 180,-8.4 147.6,-21.6 151.2,-43.2" inkscape:connector-curvature="0" id="path60" style="stroke:#000000;stroke-width:8;stroke-miterlimit:4;stroke-dasharray:none;fill:none;stroke-opacity:1"/>
      <path d="m 4375.2,1663.2 0,-1618.8016 75.6,0 0,1618.8016 -75.6,0 -151.2,-36 -147.6,-14.4 -180,-7.2 -118.8,10.8" inkscape:connector-curvature="0" id="path62" style="stroke:#000000;stroke-width:8;stroke-miterlimit:4;stroke-dasharray:none;fill:none;stroke-opacity:1"/>
      <path d="m 906,704.398 288,-647.9996 144,0 -288,647.9996 -144,0" inkscape:connector-curvature="0" id="path64" style="stroke:#000000;stroke-width:8;stroke-miterlimit:4;stroke-dasharray:none;fill:none;stroke-opacity:1"/>
      <path d="m 1341.6,704.398 286.8,-647.9996 144,0 -288,647.9996 -142.8,0" inkscape:connector-curvature="0" id="path66" style="stroke:#000000;stroke-width:8;stroke-miterlimit:4;stroke-dasharray:none;fill:none;stroke-opacity:1"/>
    </g>
  </g>
</svg>
