<?xml version="1.0" encoding="UTF-8"?>
<!-- Created with Inkscape (http://www.inkscape.org/) -->
<svg xmlns:dc="http://purl.org/dc/elements/1.1/" xmlns:cc="http://creativecommons.org/ns#" xmlns:rdf="http://www.w3.org/1999/02/22-rdf-syntax-ns#" xmlns:svg="http://www.w3.org/2000/svg" xmlns="http://www.w3.org/2000/svg" xmlns:inkscape="http://www.inkscape.org/namespaces/inkscape" version="1.1" width="765" height="990" id="svg2" xml:space="preserve">
  <metadata id="metadata8">
    <rdf:RDF>
      <cc:Work rdf:about="">
        <dc:format>image/svg+xml</dc:format>
        <dc:type rdf:resource="http://purl.org/dc/dcmitype/StillImage"/>
      </cc:Work>
    </rdf:RDF>
  </metadata>
  <defs id="defs6"/>
  <g transform="matrix(1.25,0,0,-1.25,0,990)" id="g10">
    <g transform="scale(0.1,0.1)" id="g12">
      <path d="m 901.199,31.1992 -28.801,2.4024 -31.199,6 L 816,54 796.801,67.1992 759.602,105.602 726,144 l -31.199,42 -15.602,33.602 -10.801,27.597 -16.796,49.199 -3.602,58.801 3.602,27.602 16.796,31.199 26.403,33.602 -43.199,13.199 L 620.398,486 568.801,555.602 604.801,450 630,362.398 l 4.801,-45.597 6,-36 10.801,-36 12,-31.199 18,-28.801 18,-32.403 22.796,-24 24,-27.597 20.403,-21.6018 15.597,-16.8008 10.801,-8.3984 -46.801,15.6016 -49.199,18 -45.597,22.7964 -46.801,46.801 -26.403,38.403 -20.398,33.597 -20.398,45.602 -18,51.597 -13.204,49.204 -6,46.796 -6,38.403 6,40.801 10.801,31.199 38.403,51.597 19.199,22.801 -51.602,21.602 -39.597,32.398 L 432,723.602 459.602,628.801 486,537.602 481.199,474 l 2.403,-46.801 9.597,-46.801 7.199,-43.199 12,-38.398 14.403,-33.602 15.597,-33.597 22.801,-43.204 55.199,-69.597 L 576,144 534,170.398 486,211.199 439.199,256.801 408,306 l -15.602,46.801 -12,51.597 4.801,50.403 7.199,19.199 13.204,27.602 18,20.398 -43.204,22.801 L 339.602,576 288,643.199 l 33.602,-98.398 37.199,-102 6,-36 2.398,-26.403 10.801,-43.199 22.801,-54 18,-26.398 26.398,-30 L 468,204 l 32.398,-26.398 31.204,-22.801 39.597,-25.199 45.602,-26.403 105.597,-41.9998 86.403,-30 66,-10.8008 26.398,-4.7968 0,13.1992" inkscape:connector-curvature="0" id="path14" style="stroke:#000000;stroke-width:8;stroke-miterlimit:4;stroke-dasharray:none;fill:none;stroke-opacity:1"/>
      <path d="m 1353.6,418.801 0,-339.6018 73.2,0 0,339.6018 -73.2,0" inkscape:connector-curvature="0" id="path16" style="stroke:#000000;stroke-width:8;stroke-miterlimit:4;stroke-dasharray:none;fill:none;stroke-opacity:1"/>
      <path d="m 1353.6,926.398 0,-343.199 73.2,0 0,343.199 -73.2,0" inkscape:connector-curvature="0" id="path18" style="stroke:#000000;stroke-width:8;stroke-miterlimit:4;stroke-dasharray:none;fill:none;stroke-opacity:1"/>
      <path d="m 1353.6,1414.8 0,-343.2 73.2,0 0,343.2 -73.2,0" inkscape:connector-curvature="0" id="path20" style="stroke:#000000;stroke-width:8;stroke-miterlimit:4;stroke-dasharray:none;fill:none;stroke-opacity:1"/>
      <path d="m 344.398,792 134.403,0 -2.403,49.199 13.204,66 14.398,37.199 26.398,61.202 123.602,217.2 7.199,48 2.403,22.8 -4.801,40.8 -7.199,26.4 -10.801,33.6 -20.403,31.2 -15.597,18 L 564,1482 532.801,1492.8 468,1500 l -54,-7.2 -22.801,-8.4 -26.398,-18 -25.199,-26.4 -10.801,-15.6 -12,-14.4" inkscape:connector-curvature="0" id="path22" style="stroke:#000000;stroke-width:8;stroke-miterlimit:4;stroke-dasharray:none;fill:none;stroke-opacity:1"/>
      <path d="m 310.801,1407.6 -20.403,-8.4 -220.7964,-43.2 -19.2032,-15.6 -15.5976,-12 -14.4024,-24 -3.5976,-36 2.3984,-8.4 6,-4.8 4.8008,0 10.8008,4.8 4.8008,19.2 13.1992,20.4 20.3984,18 22.8008,7.2 28.801,9.6 182.398,24 3.602,2.4 27.597,-4.8" inkscape:connector-curvature="0" id="path24" style="stroke:#000000;stroke-width:8;stroke-miterlimit:4;stroke-dasharray:none;fill:none;stroke-opacity:1"/>
      <path d="m 313.199,1407.6 31.199,-54 0,-28.8" inkscape:connector-curvature="0" id="path26" style="stroke:#000000;stroke-width:8;stroke-miterlimit:4;stroke-dasharray:none;fill:none;stroke-opacity:1"/>
      <path d="m 50.3984,1281.6 19.2032,13.2 33.5974,9.6 88.801,8.4 87.602,12 67.199,0 18,-2.4 36,-9.6 62.398,-10.8 33.602,-2.4 25.199,2.4 26.398,7.2 15.602,-9.6 7.199,-10.8 2.403,-27.6 -2.403,-22.8 -12,-26.4 -98.398,-130.8 -49.199,-78 -20.403,-40.802 -24,-46.796 L 352.801,854.398 344.398,792" inkscape:connector-curvature="0" id="path28" style="stroke:#000000;stroke-width:8;stroke-miterlimit:4;stroke-dasharray:none;fill:none;stroke-opacity:1"/>
      <path d="m 537.602,1490.4 116.398,-42 115.199,-30 46.801,-8.4 39.602,-2.4 50.398,0 54,2.4 40.8,8.4 39.6,9.6 3.6,-3.6 -3.6,-16.8 -15.6,-10.8 -53.999,-12 -54,-6 -61.199,0 -51.602,4.8 -87.602,15.6 -49.199,15.6" inkscape:connector-curvature="0" id="path30" style="stroke:#000000;stroke-width:8;stroke-miterlimit:4;stroke-dasharray:none;fill:none;stroke-opacity:1"/>
      <path d="m 604.801,1448.4 87.597,-46.8 87.602,-45.6 54,-27.6 40.801,-15.6 44.398,-10.8 31.199,-4.8 58.802,-6 24,3.6 10.8,2.4 9.6,-6 2.4,-13.2 -33.6,-12 -40.798,-4.8 -44.403,7.2 -62.398,13.2 -54,18 -51.602,25.2 -126,72" inkscape:connector-curvature="0" id="path32" style="stroke:#000000;stroke-width:8;stroke-miterlimit:4;stroke-dasharray:none;fill:none;stroke-opacity:1"/>
      <path d="m 416.398,1435.2 -14.398,-2.4 -10.801,-14.4 0,-15.6 10.801,-10.8 15.602,0 16.796,7.2 2.403,8.4 -4.801,13.2 -10.801,14.4" inkscape:connector-curvature="0" id="path34" style="stroke:#000000;stroke-width:8;stroke-miterlimit:4;stroke-dasharray:none;fill:none;stroke-opacity:1"/>
    </g>
  </g>
</svg>
