<?xml version="1.0" encoding="UTF-8"?>
<!-- Created with Inkscape (http://www.inkscape.org/) -->
<svg xmlns:dc="http://purl.org/dc/elements/1.1/" xmlns:cc="http://creativecommons.org/ns#" xmlns:rdf="http://www.w3.org/1999/02/22-rdf-syntax-ns#" xmlns:svg="http://www.w3.org/2000/svg" xmlns="http://www.w3.org/2000/svg" xmlns:inkscape="http://www.inkscape.org/namespaces/inkscape" version="1.1" width="765" height="990" id="svg2" xml:space="preserve">
  <metadata id="metadata8">
    <rdf:RDF>
      <cc:Work rdf:about="">
        <dc:format>image/svg+xml</dc:format>
        <dc:type rdf:resource="http://purl.org/dc/dcmitype/StillImage"/>
      </cc:Work>
    </rdf:RDF>
  </metadata>
  <defs id="defs6"/>
  <g transform="matrix(1.25,0,0,-1.25,0,990)" id="g10">
    <g transform="scale(0.1,0.1)" id="g12">
      <path d="m 1684.8,874.801 922.8,-672 184.8,145.199 39.6,6 37.2,0 388.8,-138 19.2,13.199 13.2,20.403 -3.6,28.796 -1602,596.403" inkscape:connector-curvature="0" id="path14" style="stroke:#000000;stroke-width:8;stroke-miterlimit:4;stroke-dasharray:none;fill:none;stroke-opacity:1"/>
      <path d="m 16.8008,968.398 0,-70.796 493.1992,0 21.602,-15.602 51.597,-30 49.199,-12 66,12 45.602,39.602 15.602,39.597 -12,55.199 -45.602,36.002 -51.602,12 -64.796,-12 -54,-33.599 -21.602,-20.403 -493.1992,0" inkscape:connector-curvature="0" id="path16" style="stroke:#000000;stroke-width:8;stroke-miterlimit:4;stroke-dasharray:none;fill:none;stroke-opacity:1"/>
      <path d="m 1500,968.398 0,-70.796 -489.6,0 L 985.199,882 933.602,852 882,840 l -67.199,12 -43.199,39.602 -12,39.597 9.597,55.199 45.602,36.002 51.597,12 63.602,-12 55.199,-33.599 25.201,-20.403 489.6,0" inkscape:connector-curvature="0" id="path18" style="stroke:#000000;stroke-width:8;stroke-miterlimit:4;stroke-dasharray:none;fill:none;stroke-opacity:1"/>
      <path d="M 1198.8,97.1992 1448.4,336" inkscape:connector-curvature="0" id="path20" style="stroke:#000000;stroke-width:8;stroke-miterlimit:4;stroke-dasharray:none;fill:none;stroke-opacity:1"/>
      <path d="m 1108.8,130.801 307.2,294" inkscape:connector-curvature="0" id="path22" style="stroke:#000000;stroke-width:8;stroke-miterlimit:4;stroke-dasharray:none;fill:none;stroke-opacity:1"/>
      <path d="m 1048.8,194.398 307.2,294" inkscape:connector-curvature="0" id="path24" style="stroke:#000000;stroke-width:8;stroke-miterlimit:4;stroke-dasharray:none;fill:none;stroke-opacity:1"/>
      <path d="m 1017.6,284.398 246,234" inkscape:connector-curvature="0" id="path26" style="stroke:#000000;stroke-width:8;stroke-miterlimit:4;stroke-dasharray:none;fill:none;stroke-opacity:1"/>
      <path d="m 1323.6,505.199 -21.6,6 -21.6,7.199 -22.8,3.602 -22.8,0 -24,-1.199 -21.6,-2.403 -22.8,-7.199 -21.6,-7.199 -21.6,-10.801 -19.2,-12 -14.4,-14.398 L 1074,452.398 1062,438 1050,421.199 1036.8,396 l -4.8,-19.199 -6,-21.602 -4.8,-20.398 -3.6,-25.199 0,-21.602 3.6,-24 6,-21.602 6,-19.199 9.6,-20.398 6,-12 8.4,-9.602 18,-21.597 19.2,-19.204 18,-13.199 21.6,-12 21.6,-10.801 24,-5.9996 19.2,-6 22.8,0 22.8,-2.3984 27.6,4.8008 19.2,3.5976 22.8,9.6016 22.8,12 15.6,7.199 16.8,15.602 16.8,15.597 18,16.801 13.2,21.602 13.2,18 10.8,20.398 4.8,22.801 2.4,21.602 3.6,24 -2.4,21.597 -1.2,25.199 -6,20.403 -8.4,19.199 -8.4,25.199 -14.4,19.199 -13.2,15.602 -15.6,19.199 -18,13.199 -20.4,13.204 -20.4,9.597" inkscape:connector-curvature="0" id="path28" style="stroke:#000000;stroke-width:8;stroke-miterlimit:4;stroke-dasharray:none;fill:none;stroke-opacity:1"/>
      <path d="m 361.199,20.3984 115.199,0 -1.199,42 L 486,117.602 498,150 l 22.801,52.801 105.597,186 6,39.597 1.204,19.204 -3.602,34.796 -6,22.801 -8.398,28.801 -18,27.602 -13.204,15.597 -34.796,32.403 -26.403,9.597 -56.398,6 -45.602,-6 -19.199,-8.398 -24,-14.403 -20.398,-24 -9.602,-13.199 -9.602,-10.801" inkscape:connector-curvature="0" id="path30" style="stroke:#000000;stroke-width:8;stroke-miterlimit:4;stroke-dasharray:none;fill:none;stroke-opacity:1"/>
      <path d="M 332.398,546 315.602,538.801 127.199,501.602 110.398,488.398 96,478.801 85.1992,457.199 l -3.5976,-30 1.1992,-7.199 6,-4.801 3.5976,0 L 102,420 l 4.801,16.801 10.801,16.801 18,15.597 18,6 25.199,7.199 156,21.602 3.597,1.199 22.801,-3.597" inkscape:connector-curvature="0" id="path32" style="stroke:#000000;stroke-width:8;stroke-miterlimit:4;stroke-dasharray:none;fill:none;stroke-opacity:1"/>
      <path d="m 334.801,546 26.398,-45.602 0,-25.199" inkscape:connector-curvature="0" id="path34" style="stroke:#000000;stroke-width:8;stroke-miterlimit:4;stroke-dasharray:none;fill:none;stroke-opacity:1"/>
      <path d="M 110.398,439.199 127.199,450 156,457.199 l 74.398,8.403 75.602,9.597 57.602,0 14.398,-2.398 31.199,-7.199 54,-9.602 28.801,-2.398 21.602,2.398 22.796,6 13.204,-8.398 6,-9.602 1.199,-22.801 L 555.602,402 546,379.199 460.801,267.602 418.801,200.398 402,165.602 380.398,126 369.602,73.1992 361.199,20.3984" inkscape:connector-curvature="0" id="path36" style="stroke:#000000;stroke-width:8;stroke-miterlimit:4;stroke-dasharray:none;fill:none;stroke-opacity:1"/>
      <path d="m 526.801,616.801 99.597,-36 98.403,-25.199 39.597,-7.204 34.801,-2.398 42,0 46.801,2.398 34.801,7.204 L 956.398,564 960,559.199 956.398,546 l -13.199,-9.602 -45.597,-9.597 -46.801,-6 -51.602,0 -44.398,3.597 -74.403,14.403 L 637.199,552" inkscape:connector-curvature="0" id="path38" style="stroke:#000000;stroke-width:8;stroke-miterlimit:4;stroke-dasharray:none;fill:none;stroke-opacity:1"/>
      <path d="M 584.398,580.801 658.801,540 734.398,501.602 780,478.801 814.801,465.602 853.199,456 l 26.403,-3.602 50.398,-6 21.602,3.602 8.398,2.398 8.398,-6 1.204,-12 -28.801,-9.597 -33.602,-3.602 -39.597,6 -52.801,12 -45.602,14.403 -44.398,21.597 -108,61.199" inkscape:connector-curvature="0" id="path40" style="stroke:#000000;stroke-width:8;stroke-miterlimit:4;stroke-dasharray:none;fill:none;stroke-opacity:1"/>
      <path d="m 422.398,568.801 -10.796,-1.199 -9.602,-12 0,-13.204 9.602,-9.597 13.199,0 13.199,6 2.398,7.199 -3.597,10.801 -9.602,12" inkscape:connector-curvature="0" id="path42" style="stroke:#000000;stroke-width:8;stroke-miterlimit:4;stroke-dasharray:none;fill:none;stroke-opacity:1"/>
    </g>
  </g>
</svg>
