<?xml version="1.0" encoding="UTF-8"?>
<!-- Created with Inkscape (http://www.inkscape.org/) -->
<svg xmlns:dc="http://purl.org/dc/elements/1.1/" xmlns:cc="http://creativecommons.org/ns#" xmlns:rdf="http://www.w3.org/1999/02/22-rdf-syntax-ns#" xmlns:svg="http://www.w3.org/2000/svg" xmlns="http://www.w3.org/2000/svg" xmlns:inkscape="http://www.inkscape.org/namespaces/inkscape" version="1.1" width="765" height="990" id="svg2" xml:space="preserve">
  <metadata id="metadata8">
    <rdf:RDF>
      <cc:Work rdf:about="">
        <dc:format>image/svg+xml</dc:format>
        <dc:type rdf:resource="http://purl.org/dc/dcmitype/StillImage"/>
      </cc:Work>
    </rdf:RDF>
  </metadata>
  <defs id="defs6"/>
  <g transform="matrix(1.25,0,0,-1.25,0,990)" id="g10">
    <g transform="scale(0.1,0.1)" id="g12">
      <path d="m 153.602,116.398 -16.801,20.403 -20.403,20.398 -16.7964,18 -18,19.199 L 60,217.199 l -22.8008,15.602 -22.8008,18 44.4024,394.801 13.1992,-4.801 15.6016,-7.199 12,-9.602 12.0004,-15.602 12,-18 4.796,-19.199 4.801,-15.597 3.602,-22.801 L 156,25.1992 129.602,24 l 6,114" inkscape:connector-curvature="0" id="path14" style="stroke:#000000;stroke-width:8;stroke-miterlimit:4;stroke-dasharray:none;fill:none;stroke-opacity:1"/>
      <path d="M 312,415.199 295.199,406.801 282,392.398 l -3.602,-13.199 -2.398,-12 3.602,-19.199 9.597,-13.199 9.602,-8.403 16.801,-4.796 12,-3.602 15.597,0 16.801,6 13.199,7.199 8.403,9.602 9.597,13.199 7.199,16.801 3.602,14.398 2.398,13.199 -2.398,10.801 -2.398,15.602 -7.204,14.398 -10.796,13.199 -10.801,9.602 -9.602,4.801 -9.597,3.597 -14.403,1.204 -10.801,2.398 -13.199,0 -16.801,-2.398 -18,-4.801 -15.597,-8.403 -9.602,-8.398 -10.801,-9.602 -8.398,-9.597 -8.398,-15.602 -8.403,-15.597 -2.398,-13.204 -2.403,-19.199 L 210,348 212.398,332.398 213.602,310.801 222,288 234,262.801 255.602,235.199 290.398,201.602 340.801,162 447.602,100.801" inkscape:connector-curvature="0" id="path16" style="stroke:#000000;stroke-width:8;stroke-miterlimit:4;stroke-dasharray:none;fill:none;stroke-opacity:1"/>
      <path d="M 457.199,19.1992 472.801,24 492,26.3984 517.199,34.8008 525.602,48 534,93.6016 l 16.801,54.0004 3.597,14.398 0,12 15.602,34.801 27.602,82.801 8.398,21.597 3.602,20.403 L 612,356.398 609.602,384 606,424.801" inkscape:connector-curvature="0" id="path18" style="stroke:#000000;stroke-width:8;stroke-miterlimit:4;stroke-dasharray:none;fill:none;stroke-opacity:1"/>
      <path d="m 595.199,496.801 16.801,3.597 0,21.602 -18,4.801 -3.602,2.398 -2.398,1.199 0,25.204 -14.398,12 13.199,9.597 13.199,19.199 2.398,9.602 9.602,12 8.398,7.199 14.403,6 12,0 12,-1.199 10.801,-4.801 9.597,-7.199 7.199,-12 3.602,-10.801 0,-13.199 -3.602,-15.602 -3.597,-10.796 -3.602,-12 L 672,535.199 666,522 l 0,-19.199 24,-7.199 7.199,-7.204 L 702,472.801 700.801,456 l 0,-12 -2.403,-16.801 -1.199,-16.801 -2.398,-24 1.199,-31.199 4.801,-14.398 2.398,-10.801 2.403,-15.602 0,-13.199 -1.204,-12 L 702,278.398 698.398,264 702,219.602 l 1.199,-20.403 0,-10.801 1.199,-16.796 10.801,-54 1.199,-22.8012 1.204,-20.4024 L 718.801,54 721.199,36 726,22.8008 722.398,15.6016 715.199,12 705.602,18 697.199,14.3984 636,12 l 0,7.1992 34.801,6 19.199,9.6016 6,9.5976 L 697.199,54 678,133.199 l -2.398,8.403 -3.602,4.796 -2.398,13.204 -10.801,45.597" inkscape:connector-curvature="0" id="path20" style="stroke:#000000;stroke-width:8;stroke-miterlimit:4;stroke-dasharray:none;fill:none;stroke-opacity:1"/>
      <path d="m 612,205.199 -9.602,-20.398 -9.597,-18 -3.602,-8.403 -3.597,-16.796 -6,-22.801 L 568.801,87.6016 553.199,56.3984 543.602,34.8008 544.801,24 l -1.199,-6 0,-2.3984 -7.204,-1.2032 -3.597,-2.3984 -6,4.8008 L 523.199,12 456,12 l 1.199,7.1992" inkscape:connector-curvature="0" id="path22" style="stroke:#000000;stroke-width:8;stroke-miterlimit:4;stroke-dasharray:none;fill:none;stroke-opacity:1"/>
      <path d="m 568.801,207.602 132,0" inkscape:connector-curvature="0" id="path24" style="stroke:#000000;stroke-width:8;stroke-miterlimit:4;stroke-dasharray:none;fill:none;stroke-opacity:1"/>
      <path d="m 614.398,355.199 78,24" inkscape:connector-curvature="0" id="path26" style="stroke:#000000;stroke-width:8;stroke-miterlimit:4;stroke-dasharray:none;fill:none;stroke-opacity:1"/>
      <path d="M 601.199,596.398 648,576 l 4.801,6 6,1.199 4.801,-1.199 0,-8.398 -1.204,-7.204 -3.597,-6 -2.403,-7.199 0,-7.199 7.204,-4.801 7.199,-4.801" inkscape:connector-curvature="0" id="path28" style="stroke:#000000;stroke-width:8;stroke-miterlimit:4;stroke-dasharray:none;fill:none;stroke-opacity:1"/>
      <path d="m 601.199,570 9.602,3.602 6,-8.403 -14.403,4.801" inkscape:connector-curvature="0" id="path30" style="stroke:#000000;stroke-width:8;stroke-miterlimit:4;stroke-dasharray:none;fill:none;stroke-opacity:1"/>
      <path d="m 604.801,424.801 -4.801,15.597 -18,7.204 -19.199,0 -22.801,1.199 -30,3.597 -7.199,6 -7.199,9.602 -10.801,20.398 -8.403,24 L 469.199,534 462,553.199 460.801,558 450,570 l -10.801,13.199 3.602,1.199 14.398,-9.597 2.403,2.398 -3.602,8.403 -3.602,8.398 -6,6 -7.199,12 0,7.199 L 444,618 l 9.602,-12 6,-9.602 3.597,-8.398 4.801,-6 1.199,-12 3.602,-7.199 6,-6 8.398,-9.602 10.801,-18 9.602,-14.398 7.199,-16.801 6,-12 13.199,-3.602 12,0 9.602,-1.199 14.398,0" inkscape:connector-curvature="0" id="path32" style="stroke:#000000;stroke-width:8;stroke-miterlimit:4;stroke-dasharray:none;fill:none;stroke-opacity:1"/>
      <path d="m 528,484.801 -10.801,28.801 -6,21.597 -3.597,20.403 -4.801,21.597 -7.199,7.199 -9.602,8.403 -4.801,7.199 4.801,1.199 12,-8.398 3.602,1.199 -9.602,14.398 -4.801,7.204 -7.199,6 -4.801,8.398 -2.398,3.602 6,-1.204 8.398,-7.199 4.801,-4.801 9.602,-9.597 6,-10.801 2.398,-8.398 3.602,-7.204 3.597,-10.796 8.403,-14.403 8.398,-15.597 8.398,-19.204 4.801,-12 6,-14.398 2.403,-4.801 6,-1.199 33.597,4.801" inkscape:connector-curvature="0" id="path34" style="stroke:#000000;stroke-width:8;stroke-miterlimit:4;stroke-dasharray:none;fill:none;stroke-opacity:1"/>
    </g>
  </g>
</svg>
