<?xml version="1.0" encoding="UTF-8"?>
<!-- Created with Inkscape (http://www.inkscape.org/) -->
<svg xmlns:dc="http://purl.org/dc/elements/1.1/" xmlns:cc="http://creativecommons.org/ns#" xmlns:rdf="http://www.w3.org/1999/02/22-rdf-syntax-ns#" xmlns:svg="http://www.w3.org/2000/svg" xmlns="http://www.w3.org/2000/svg" xmlns:inkscape="http://www.inkscape.org/namespaces/inkscape" version="1.1" width="765" height="990" id="svg2" xml:space="preserve">
  <metadata id="metadata8">
    <rdf:RDF>
      <cc:Work rdf:about="">
        <dc:format>image/svg+xml</dc:format>
        <dc:type rdf:resource="http://purl.org/dc/dcmitype/StillImage"/>
      </cc:Work>
    </rdf:RDF>
  </metadata>
  <defs id="defs6"/>
  <g transform="matrix(1.25,0,0,-1.25,0,990)" id="g10">
    <g transform="scale(0.1,0.1)" id="g12">
      <path d="m 447.602,157.199 0,30 L 444,368.398 464.398,510 l 30,109.199 72,237.602 60,151.199 58.801,154.8 9.602,39.6 -3.602,39.6 -15.597,52.8 -39.602,49.2 -69.602,43.2 -49.199,26.4 3.602,20.4 28.801,2.4 52.796,-9.6 33.602,-9.6 36,-22.8 46.801,-40.8 2.398,27.6 16.801,55.2 26.398,46.8 26.403,19.2 36,-52.8 26.398,-98.4 62.403,56.4 43.199,19.2 45.599,9.6 49.2,-6 -6,-20.4 -105.6,-58.8 -22.801,-16.8 -30,-45.6 L 870,1202.4 945.602,1008 1038,764.398 1110,504 l 16.8,-192 -7.2,-158.398" inkscape:connector-curvature="0" id="path14" style="stroke:#000000;stroke-width:8;stroke-miterlimit:4;stroke-dasharray:none;fill:none;stroke-opacity:1"/>
      <path d="m 444,200.398 -26.398,30 -38.403,36 -69.597,32.403 L 330,477.602 375.602,658.801 430.801,817.199 500.398,978 570,1119.6 l -52.801,20.4 -9.597,26.4 -13.204,49.2 13.204,43.2 22.796,30 62.403,9.6 36,-3.6 30,-22.8 16.801,-22.8 19.199,-39.6" inkscape:connector-curvature="0" id="path16" style="stroke:#000000;stroke-width:8;stroke-miterlimit:4;stroke-dasharray:none;fill:none;stroke-opacity:1"/>
      <path d="m 870,1196.4 28.801,62.4 36,32.4 54,10.8 41.999,-10.8 36,-42 7.2,-43.2 -9.6,-43.2 -20.4,-26.4 -42,-16.8 100.8,-217.202 90,-226.796 45.6,-175.204 20.4,-132 2.4,-75.597 -66,-26.403 -49.2,-39.597 -19.2,-30" inkscape:connector-curvature="0" id="path18" style="stroke:#000000;stroke-width:8;stroke-miterlimit:4;stroke-dasharray:none;fill:none;stroke-opacity:1"/>
      <path d="m 675.602,1136.4 217.199,0" inkscape:connector-curvature="0" id="path20" style="stroke:#000000;stroke-width:8;stroke-miterlimit:4;stroke-dasharray:none;fill:none;stroke-opacity:1"/>
      <path d="m 700.801,1202.4 175.199,0" inkscape:connector-curvature="0" id="path22" style="stroke:#000000;stroke-width:8;stroke-miterlimit:4;stroke-dasharray:none;fill:none;stroke-opacity:1"/>
      <path d="m 69.6016,638.398 2.3984,0 3.6016,3.602 0,3.602 -6,0 L 66,642 l 0,-3.602 3.6016,0" inkscape:connector-curvature="0" id="path24" style="stroke:#000000;stroke-width:8;stroke-miterlimit:4;stroke-dasharray:none;fill:none;stroke-opacity:1"/>
      <path d="m 168,606 -16.801,6 -16.801,-2.398 L 111.602,606 72,602.398 39.6016,598.801 26.3984,606 l -7.1992,3.602 -2.3984,9.597 0,9.602 2.3984,9.597 L 30,648 42,658.801 52.8008,668.398 66,672 l 9.6016,3.602 22.7968,2.398 16.8006,0 26.403,-6 33.597,-24 28.801,-26.398 30,-36 9.602,-22.801 L 247.199,534 240,490.801 234,464.398 224.398,436.801 201.602,398.398 168,328.801 154.801,279.602 151.199,262.801 147.602,246 l 3.597,-39.602 13.199,-22.796 19.204,-13.204 24,-7.199" inkscape:connector-curvature="0" id="path26" style="stroke:#000000;stroke-width:8;stroke-miterlimit:4;stroke-dasharray:none;fill:none;stroke-opacity:1"/>
      <path d="M 121.199,153.602 102,170.398 l -9.6016,13.204 -13.1992,36 -3.5976,22.796 0,24 7.1992,62.403 -3.6016,39.597 L 72,417.602 60,474 l -4.8008,22.801 0,26.398 7.1992,33.602 L 79.1992,576 96,592.801 l 28.801,16.801" inkscape:connector-curvature="0" id="path28" style="stroke:#000000;stroke-width:8;stroke-miterlimit:4;stroke-dasharray:none;fill:none;stroke-opacity:1"/>
      <path d="m 840,19.1992 15.602,45.6016 10.796,20.3984 16.801,15.6018 19.199,10.801 66,-7.204 45.602,-5.9996 39.6,-7.1992 30,-3.5976 39.6,7.1992 39.6,9.5972 32.4,16.801 27.6,6 22.8,3.602 13.2,0 42,-6 43.2,-13.199 22.8,-3.602 33.6,-7.199 28.8,-2.4026 30,5.9996 19.2,7.204 22.8,13.199 18,22.801 12,20.398 3.6,21.602 -3.6,20.398 -12,3.602 -24,-13.204 -19.2,-24 -24,-15.597 -15.6,-7.199 -13.2,-3.602 -22.8,-2.398 -33.6,6 -52.8,16.796 -28.8,13.204 -39.6,3.597 -39.6,-3.597 -39.6,-13.204 -33.6,-13.199 L 1110,144 l -33.6,-3.602 -28.8,3.602 -43.2,6 -36.002,7.199 -39.597,6 -32.403,0 -33.597,-9.597 L 834,140.398 813.602,121.199 796.801,91.1992 l -3.602,-26.3984 -15.597,0 -7.204,36.0002 -19.199,26.398 -26.398,22.801 -43.199,13.199 -68.403,0 L 564,150 504,140.398 458.398,150 l -46.796,18 -26.403,12 -39.597,9.602 -58.801,-6 -26.403,-13.204 -46.796,-9.597 -32.403,-13.199 -30,-7.204 -30,9.602 L 96,163.199 72,183.602 62.3984,204 46.8008,213.602 36,204 30,187.199 42,147.602 79.1992,114 124.801,94.8008 l 36,0 40.801,3.5976 49.199,13.2036 42,15.597 46.801,7.199 L 402,121.199 441.602,98.3984 490.801,87.6016 534,94.8008 l 22.801,3.5976 22.801,5.9996 30,3.602 39.597,3.602 36,-10.801 L 708,87.6016 730.801,19.1992 840,21.6016" inkscape:connector-curvature="0" id="path30" style="stroke:#000000;stroke-width:8;stroke-miterlimit:4;stroke-dasharray:none;fill:none;stroke-opacity:1"/>
      <path d="m 777.602,134.398 -33.602,6 -45.602,22.801 -49.199,46.801 -20.398,45.602 -6,43.199 L 636,348 l 26.398,43.199 32.403,32.403 39.597,24 49.204,6 46.796,-6 L 876,430.801 912,398.398 938.398,355.199 948,312 945.602,268.801 938.398,236.398 922.801,204 l -24,-20.398 -15.602,-13.204 -20.398,-9.597 -28.801,-13.199 -40.801,-13.204 -15.597,0" inkscape:connector-curvature="0" id="path32" style="stroke:#000000;stroke-width:8;stroke-miterlimit:4;stroke-dasharray:none;fill:none;stroke-opacity:1"/>
      <path d="m 1501.2,638.398 -6,0 0,7.204 6,0 4.8,-3.602 -4.8,-3.602 -2.4,0" inkscape:connector-curvature="0" id="path34" style="stroke:#000000;stroke-width:8;stroke-miterlimit:4;stroke-dasharray:none;fill:none;stroke-opacity:1"/>
      <path d="m 1402.8,606 16.8,6 16.8,-2.398 22.8,-3.602 39.6,-3.602 32.4,-3.597 13.2,7.199 7.2,3.602 3.6,9.597 0,9.602 -3.6,9.597 -9.6,9.602 -13.2,10.801 -14.4,9.597 -8.4,3.602 -10.8,3.602 -26.4,2.398 -13.2,0 -26.4,-6 -32.4,-24 -30,-26.398 -30,-36 -9.6,-22.801 -6,-28.801 6,-43.199 7.2,-26.403 9.6,-27.597 22.8,-38.403 33.6,-69.597 15.6,-49.199 3.6,-16.801 3.6,-16.801 -3.6,-39.602 -13.2,-22.796 -19.2,-13.204 -22.8,-7.199" inkscape:connector-curvature="0" id="path36" style="stroke:#000000;stroke-width:8;stroke-miterlimit:4;stroke-dasharray:none;fill:none;stroke-opacity:1"/>
      <path d="m 1449.6,153.602 15.6,16.796 13.2,13.204 14.4,36 2.4,22.796 0,24 -6,62.403 3.6,39.597 2.4,49.204 16.8,56.398 0,22.801 2.4,26.398 -8.4,33.602 -13.2,19.199 -16.8,16.801 -30,16.801" inkscape:connector-curvature="0" id="path38" style="stroke:#000000;stroke-width:8;stroke-miterlimit:4;stroke-dasharray:none;fill:none;stroke-opacity:1"/>
      <path d="M 88.8008,678 72,681.602 52.8008,691.199 30,711.602 22.8008,734.398 19.1992,751.199 22.8008,774 36,794.398 49.1992,810 l 20.4024,9.602 22.7968,3.597 19.2036,-3.597 20.398,-6 13.199,-16.801 9.602,-19.199 3.597,-20.403 0,-16.801 -3.597,-15.597 -7.199,-16.801 -2.403,-6 -10.801,-7.199 -9.597,-3.602 -15.602,-7.199 -20.3982,-6 -3.6016,3.602" inkscape:connector-curvature="0" id="path40" style="stroke:#000000;stroke-width:8;stroke-miterlimit:4;stroke-dasharray:none;fill:none;stroke-opacity:1"/>
      <path d="m 1482,678 -13.2,3.602 -22.8,9.597 -22.8,20.403 -7.2,22.796 -2.4,16.801 6,22.801 9.6,20.398 16.8,15.602 16.8,9.602 22.8,3.597 20.4,-3.597 19.2,-6 13.2,-16.801 9.6,-19.199 3.6,-20.403 0,-16.801 -3.6,-15.597 -6,-16.801 -3.6,-6 -9.6,-7.199 -9.6,-3.602 -13.2,-7.199 -24,-6 -3.6,3.602" inkscape:connector-curvature="0" id="path42" style="stroke:#000000;stroke-width:8;stroke-miterlimit:4;stroke-dasharray:none;fill:none;stroke-opacity:1"/>
    </g>
  </g>
</svg>
