<?xml version="1.0" encoding="UTF-8"?>
<!-- Created with Inkscape (http://www.inkscape.org/) -->
<svg xmlns:dc="http://purl.org/dc/elements/1.1/" xmlns:cc="http://creativecommons.org/ns#" xmlns:rdf="http://www.w3.org/1999/02/22-rdf-syntax-ns#" xmlns:svg="http://www.w3.org/2000/svg" xmlns="http://www.w3.org/2000/svg" xmlns:inkscape="http://www.inkscape.org/namespaces/inkscape" version="1.1" width="765" height="990" id="svg2" xml:space="preserve">
  <metadata id="metadata8">
    <rdf:RDF>
      <cc:Work rdf:about="">
        <dc:format>image/svg+xml</dc:format>
        <dc:type rdf:resource="http://purl.org/dc/dcmitype/StillImage"/>
      </cc:Work>
    </rdf:RDF>
  </metadata>
  <defs id="defs6"/>
  <g transform="matrix(1.25,0,0,-1.25,0,990)" id="g10">
    <g transform="scale(0.1,0.1)" id="g12">
      <path d="m 2451.6,279.602 -30,2.398 -31.2,6 -25.2,14.398 -19.2,13.204 -37.2,38.398 -33.6,38.398 -31.2,42 -15.6,33.602 -10.8,27.602 -16.8,49.199 -3.6,58.801 3.6,27.597 16.8,31.199 26.4,33.602 -43.2,13.199 -31.2,25.199 -51.6,69.602 36,-105.602 25.2,-87.597 4.8,-45.602 6,-36 10.8,-36 12,-31.199 18,-28.801 18,-32.398 22.8,-24 25.2,-27.602 19.2,-21.597 15.6,-16.801 12,-8.403 -46.8,15.602 -50.4,18 -45.6,22.801 -46.8,46.801 -26.4,38.398 -20.4,33.602 -20.4,45.597 -18,51.602 -13.2,49.199 -7.2,46.801 -4.8,38.398 4.8,40.801 12,31.199 38.4,51.602 19.2,22.801 -51.6,21.597 -39.6,32.403 -45.6,62.398 27.6,-94.801 26.4,-91.199 -4.8,-63.602 2.4,-46.796 9.6,-46.801 6,-43.199 13.2,-38.403 14.4,-33.597 15.6,-33.602 22.8,-43.199 55.2,-69.602 -44.4,25.199 -42,26.403 -48,40.801 -48,45.597 -31.2,49.199 -15.6,46.801 -10.8,51.602 4.8,50.398 6,19.199 13.2,27.602 18,20.398 -42,22.801 -40.8,31.199 -51.6,67.204 33.6,-98.403 36,-102 7.2,-36 2.4,-26.398 10.8,-43.199 22.8,-54 18,-26.403 26.4,-30 22.8,-22.801 31.2,-26.398 32.4,-22.801 39.6,-25.199 45.6,-26.398 105.6,-42 87.6,-30 64.8,-10.801 27.6,-4.801 0,13.199" inkscape:connector-curvature="0" id="path14" style="stroke:#000000;stroke-width:8;stroke-miterlimit:4;stroke-dasharray:none;fill:none;stroke-opacity:1"/>
      <path d="m 2583.6,866.398 0,-594 105.6,0 0,594 -105.6,0" inkscape:connector-curvature="0" id="path16" style="stroke:#000000;stroke-width:8;stroke-miterlimit:4;stroke-dasharray:none;fill:none;stroke-opacity:1"/>
      <path d="m 3111.6,866.398 0,-594 109.2,0 0,594 -109.2,0" inkscape:connector-curvature="0" id="path18" style="stroke:#000000;stroke-width:8;stroke-miterlimit:4;stroke-dasharray:none;fill:none;stroke-opacity:1"/>
      <path d="m 3645.6,866.398 0,-594 105.6,0 0,594 -105.6,0" inkscape:connector-curvature="0" id="path20" style="stroke:#000000;stroke-width:8;stroke-miterlimit:4;stroke-dasharray:none;fill:none;stroke-opacity:1"/>
      <path d="m 543.602,1126.8 -38.403,-43.2 -14.398,-52.8 9.597,-52.8 24,-39.602 62.403,-58.796 L 696,819.602 883.199,751.199 1107.6,704.398 1332,678 l 72,-6 46.8,-3.602 22.8,7.204 13.2,13.199 0,15.597 -15.6,13.204 -90,16.796 -56.4,26.403 -32.4,22.801 -79.2,66 -118.8,109.199 -118.798,92.399 -109.204,58.8 -105.597,43.2 -78,22.8 -69.602,3.6 -58.801,-13.2 -46.796,-22.8 -32.403,-20.4 -16.801,-16.8 -22.796,-2.4 -27.602,6 -2.398,24 128.398,105.6 26.398,28.8 16.801,36 3.602,33.6 -3.602,28.8" inkscape:connector-curvature="0" id="path22" style="stroke:#000000;stroke-width:8;stroke-miterlimit:4;stroke-dasharray:none;fill:none;stroke-opacity:1"/>
      <path d="m 547.199,1390.8 135.602,-62.4 141.597,-52.8 124.801,-26.4 132.001,-9.6 99.6,-3.6 72,9.6 -102,15.6 -115.2,10.8 -128.401,19.2 -92.398,26.4 -112.801,40.8 -85.199,36 -52.801,36 177.602,-69.6 111.597,-19.2 60,-10.8 126.001,-9.6 115.2,7.2 69.6,6 55.2,3.6 -122.4,9.6 -105.6,10.8 -102.001,2.4 -88.801,13.2 -108,22.8 -99.597,30 -66,30 -45.602,30 -36,13.2 -33.597,2.4 -72,-9.6 -56.403,-20.4 -22.801,-15.6 -13.199,-22.8 -3.597,-7.2 0,-26.4 16.796,-26.4 19.204,-7.2 19.199,-6 37.199,-9.6 39.602,0 22.796,9.6 19.204,3.6 10.796,-16.8 2.403,-30 -36,-42 -58.801,-43.2 -56.398,-52.8 -26.403,-36 -19.199,-30 -10.801,-52.8 7.199,-30 L 330,972 432,859.199 494.398,804 567.602,751.199 673.199,704.398 735.602,612 l 66,-75.602 42,-45.597 13.199,-30 20.398,-214.801 0,-138 -6,-22.8008 L 847.199,78 705.602,57.6016 696,55.1992 675.602,51.6016 666,38.3984 l 0,-19.1992 19.199,9.6016 24,-7.1992" inkscape:connector-curvature="0" id="path24" style="stroke:#000000;stroke-width:8;stroke-miterlimit:4;stroke-dasharray:none;fill:none;stroke-opacity:1"/>
      <path d="M 804,57.6016 722.398,44.3984 709.199,34.8008 711.602,19.1992 738,32.3984 l 20.398,-13.1992 132,15.6016 102,-15.6016 3.602,15.6016 -7.199,16.8008 -26.403,6 -28.796,10.7968 -10.801,2.4024 -9.602,20.3984 -3.597,339.6018 7.199,39.597 0,13.204 -22.801,43.199 -22.801,39.597 -76.801,122.403" inkscape:connector-curvature="0" id="path26" style="stroke:#000000;stroke-width:8;stroke-miterlimit:4;stroke-dasharray:none;fill:none;stroke-opacity:1"/>
      <path d="m 824.398,651.602 118.801,-13.204 98.401,3.602 126,13.199 62.4,-56.398 75.6,-69.602 36,-2.398 37.2,9.597 38.4,33.602 7.2,26.398 -79.2,81.602" inkscape:connector-curvature="0" id="path28" style="stroke:#000000;stroke-width:8;stroke-miterlimit:4;stroke-dasharray:none;fill:none;stroke-opacity:1"/>
      <path d="M 303.602,1430.4 16.8008,1255.2 345.602,1364.4" inkscape:connector-curvature="0" id="path30" style="stroke:#000000;stroke-width:8;stroke-miterlimit:4;stroke-dasharray:none;fill:none;stroke-opacity:1"/>
      <path d="M 307.199,1383.6 16.8008,1255.2" inkscape:connector-curvature="0" id="path32" style="stroke:#000000;stroke-width:8;stroke-miterlimit:4;stroke-dasharray:none;fill:none;stroke-opacity:1"/>
      <path d="m 369.602,1436.4 -16.801,-9.6 9.597,-16.8 16.801,7.2 -7.199,13.2" inkscape:connector-curvature="0" id="path34" style="stroke:#000000;stroke-width:8;stroke-miterlimit:4;stroke-dasharray:none;fill:none;stroke-opacity:1"/>
      <path d="m 1002,48 26.4,-6 13.2,-9.6016 3.6,-7.1992 -16.8,-6 -22.8,2.4024" inkscape:connector-curvature="0" id="path36" style="stroke:#000000;stroke-width:8;stroke-miterlimit:4;stroke-dasharray:none;fill:none;stroke-opacity:1"/>
      <path d="M 507.602,789.602 577.199,658.801 656.398,540 l 6,-30 L 448.801,124.801 438,108 l -9.602,-16.8008 -22.796,-6 L 326.398,70.8008 273.602,62.3984 253.199,51.6016 240,48 l -19.199,-3.6016 -6,-6 L 207.602,21.6016 228,32.3984 250.801,21.6016" inkscape:connector-curvature="0" id="path38" style="stroke:#000000;stroke-width:8;stroke-miterlimit:4;stroke-dasharray:none;fill:none;stroke-opacity:1"/>
      <path d="M 286.801,42 273.602,42 258,38.3984 250.801,25.1992 258,21.6016 l 19.199,7.1992" inkscape:connector-curvature="0" id="path40" style="stroke:#000000;stroke-width:8;stroke-miterlimit:4;stroke-dasharray:none;fill:none;stroke-opacity:1"/>
      <path d="M 290.398,44.3984 313.199,51.6016 366,55.1992" inkscape:connector-curvature="0" id="path42" style="stroke:#000000;stroke-width:8;stroke-miterlimit:4;stroke-dasharray:none;fill:none;stroke-opacity:1"/>
      <path d="m 279.602,28.8008 27.597,-9.6016 121.199,13.1992 20.403,2.4024 98.398,-15.6016 3.602,15.6016 -3.602,16.8008 -28.801,6 -40.796,13.1992" inkscape:connector-curvature="0" id="path44" style="stroke:#000000;stroke-width:8;stroke-miterlimit:4;stroke-dasharray:none;fill:none;stroke-opacity:1"/>
      <path d="m 475.199,74.3984 -3.597,16.8008 204,339.6018 49.199,88.801 0,30 -36,126" inkscape:connector-curvature="0" id="path46" style="stroke:#000000;stroke-width:8;stroke-miterlimit:4;stroke-dasharray:none;fill:none;stroke-opacity:1"/>
      <path d="m 556.801,48 24,-6 12,-9.6016 3.597,-7.1992 -15.597,-6 -24,2.4024" inkscape:connector-curvature="0" id="path48" style="stroke:#000000;stroke-width:8;stroke-miterlimit:4;stroke-dasharray:none;fill:none;stroke-opacity:1"/>
      <path d="m 1540.8,1039.2 270,260.4" inkscape:connector-curvature="0" id="path50" style="stroke:#000000;stroke-width:8;stroke-miterlimit:4;stroke-dasharray:none;fill:none;stroke-opacity:1"/>
      <path d="m 1443.6,1076.4 332.4,318" inkscape:connector-curvature="0" id="path52" style="stroke:#000000;stroke-width:8;stroke-miterlimit:4;stroke-dasharray:none;fill:none;stroke-opacity:1"/>
      <path d="m 1380,1146 331.2,318" inkscape:connector-curvature="0" id="path54" style="stroke:#000000;stroke-width:8;stroke-miterlimit:4;stroke-dasharray:none;fill:none;stroke-opacity:1"/>
      <path d="m 1346.4,1243.2 265.2,253.2" inkscape:connector-curvature="0" id="path56" style="stroke:#000000;stroke-width:8;stroke-miterlimit:4;stroke-dasharray:none;fill:none;stroke-opacity:1"/>
      <path d="m 1676.4,1482 -22.8,6 -22.8,8.4 -25.2,4.8 -25.2,0 -26.4,-2.4 -22.8,-2.4 -25.2,-8.4 -22.8,-8.4 -22.8,-9.6 -20.4,-15.6 -16.8,-14.4 -16.8,-15.6 -12,-15.6 -13.2,-18 -14.4,-27.6 -6,-20.4 -6,-22.8 -4.8,-22.8 -3.6,-27.6 0,-22.8 3.6,-26.4 6,-22.8 7.2,-20.4 9.6,-24 7.2,-12 7.2,-9.6 21.6,-24 20.4,-20.4 18,-14.4 24,-12 24,-13.2 25.2,-6 20.4,-6 25.2,0 25.2,-2.4 28.8,4.8 21.6,3.6 24,10.8 25.2,12 16.8,8.4 18,16.8 19.2,16.8 19.2,18 14.4,22.8 14.4,21.6 9.6,20.4 7.2,25.2 1.2,22.8 4.8,27.6 -2.4,21.6 -2.4,27.6 -6,22.8 -8.4,20.4 -9.6,26.4 -15.6,21.6 -14.4,16.8 -16.8,20.4 -20.4,14.4 -20.4,14.4 -22.8,10.8" inkscape:connector-curvature="0" id="path58" style="stroke:#000000;stroke-width:8;stroke-miterlimit:4;stroke-dasharray:none;fill:none;stroke-opacity:1"/>
    </g>
  </g>
</svg>
