<?xml version="1.0" encoding="UTF-8"?>
<!-- Created with Inkscape (http://www.inkscape.org/) -->
<svg xmlns:dc="http://purl.org/dc/elements/1.1/" xmlns:cc="http://creativecommons.org/ns#" xmlns:rdf="http://www.w3.org/1999/02/22-rdf-syntax-ns#" xmlns:svg="http://www.w3.org/2000/svg" xmlns="http://www.w3.org/2000/svg" xmlns:inkscape="http://www.inkscape.org/namespaces/inkscape" version="1.1" width="765" height="990" id="svg2" xml:space="preserve">
  <metadata id="metadata8">
    <rdf:RDF>
      <cc:Work rdf:about="">
        <dc:format>image/svg+xml</dc:format>
        <dc:type rdf:resource="http://purl.org/dc/dcmitype/StillImage"/>
      </cc:Work>
    </rdf:RDF>
  </metadata>
  <defs id="defs6"/>
  <g transform="matrix(1.25,0,0,-1.25,0,990)" id="g10">
    <g transform="scale(0.1,0.1)" id="g12">
      <path d="M 178.801,519.602 159.602,550.801 128.398,567.602 60,577.199 91.1992,513.602" inkscape:connector-curvature="0" id="path14" style="stroke:#000000;stroke-width:8;stroke-miterlimit:4;stroke-dasharray:none;fill:none;stroke-opacity:1"/>
      <path d="m 103.199,576 0,314.398 -4.8006,18 -4.7968,12 -12,4.801 L 72,930 64.8008,922.801 60,904.801 57.6016,894 l -4.8008,-10.801 -7.1992,-12 -2.4024,-16.801 -2.3984,-19.199 -2.4024,-14.398 -6,-2.403 -3.5976,0 -4.8008,2.403 2.3984,26.398 3.6016,24 -3.6016,27.602 2.4024,26.398 14.3984,21.602 L 50.3984,966 60,988.801 64.8008,1008 l 2.3984,16.8 0,14.4 -2.3984,19.2 16.8008,-4.8 12,-16.8 4.7968,-12 0,-12 L 96,990 91.1992,973.199 84,958.801 l -7.1992,-7.199 -9.6016,-12 4.8008,0 12,-2.403 9.6016,-4.801 L 105.602,915.602 114,894 114,572.398" inkscape:connector-curvature="0" id="path16" style="stroke:#000000;stroke-width:8;stroke-miterlimit:4;stroke-dasharray:none;fill:none;stroke-opacity:1"/>
      <path d="M 50.3984,932.398 40.8008,915.602" inkscape:connector-curvature="0" id="path18" style="stroke:#000000;stroke-width:8;stroke-miterlimit:4;stroke-dasharray:none;fill:none;stroke-opacity:1"/>
      <path d="M 720,12 15.6016,12 186,84 84,412.801 81.6016,441.602 79.1992,468 84,494.398 91.1992,510 l 7.1992,12 15.6016,4.801 10.801,4.801 14.398,0 10.801,-2.403 7.199,-2.398 12,-4.801 19.199,-14.398 194.403,-241.204 19.199,379.204 4.801,54 9.597,40.796 9.602,24 24,22.801 20.398,14.403 14.403,7.199 19.199,4.801 16.801,0 16.801,-2.403 L 570,794.398 586.801,774 l 12,-21.602 14.398,-28.796 7.199,-37.204 4.801,-36 2.403,-24 0,-505.199 -4.801,-20.398 -12,-19.1994 L 720,12" inkscape:connector-curvature="0" id="path20" style="stroke:#000000;stroke-width:8;stroke-miterlimit:4;stroke-dasharray:none;fill:none;stroke-opacity:1"/>
      <path d="m 397.199,584.398 -64.801,0 0,44.403 8.403,60 14.398,51.597 20.403,49.204 24,33.597 21.597,31.199 28.801,31.204 25.199,34.796 12,28.801 7.199,34.801 4.801,26.4 -4.801,21.6 -7.199,28.8 -12,21.6 -14.398,15.6 -10.801,1.2 -33.602,6 -31.199,0 -33.597,-7.2 -19.204,-4.8 -18,-8.4 L 300,1074 l -12,-10.8 -9.602,-9.6 -19.199,-9.6 -21.597,-4.8 -13.204,-9.6 -12,-7.2 -7.199,-7.2 -9.597,-14.4 -2.403,-5.999 -2.398,-6 14.398,3.597 18,2.403 14.403,3.597 10.796,0 18,-3.597" inkscape:connector-curvature="0" id="path22" style="stroke:#000000;stroke-width:8;stroke-miterlimit:4;stroke-dasharray:none;fill:none;stroke-opacity:1"/>
      <path d="m 202.801,990 18,-6 14.398,-8.398 13.199,-12 18,-9.602 9.602,-16.801 12,-14.398 12,-20.403 21.602,-16.796 22.796,-8.403 19.204,-18 L 378,840 l 9.602,-12 4.796,-12" inkscape:connector-curvature="0" id="path24" style="stroke:#000000;stroke-width:8;stroke-miterlimit:4;stroke-dasharray:none;fill:none;stroke-opacity:1"/>
      <path d="m 632.398,584.398 63.602,0 -4.801,262.801 L 663.602,951.602 630,1008 l -38.398,40.8 -49.204,28.8 -50.398,20.4 -55.199,3.6" inkscape:connector-curvature="0" id="path26" style="stroke:#000000;stroke-width:8;stroke-miterlimit:4;stroke-dasharray:none;fill:none;stroke-opacity:1"/>
      <path d="m 333.602,1039.2 10.796,-4.8 10.801,4.8 -10.801,9.6 -10.796,-12" inkscape:connector-curvature="0" id="path28" style="stroke:#000000;stroke-width:8;stroke-miterlimit:4;stroke-dasharray:none;fill:none;stroke-opacity:1"/>
      <path d="m 610.801,1316.4 8.398,14.4 10.801,10.8 15.602,4.8 13.199,-3.6 10.801,-8.4 3.597,-7.2 3.602,-16.8 0,-196.8 -468,0 0,196.8 3.597,16.8 3.602,7.2 10.801,8.4 13.199,3.6 16.801,-4.8 10.801,-10.8 7.199,-13.2" inkscape:connector-curvature="0" id="path30" style="stroke:#000000;stroke-width:8;stroke-miterlimit:4;stroke-dasharray:none;fill:none;stroke-opacity:1"/>
      <path d="m 456,1496.4 -19.199,0 -8.403,-1.2 -13.199,-2.4 -8.398,-1.2 -7.199,-2.4 -7.204,-2.4 -9.597,-2.4 -8.403,-3.6 -8.398,-4.8 -8.398,-2.4 -6,-4.8 -7.204,-6 -8.398,-4.8 -4.801,-4.8 -14.398,-13.2 -3.602,-4.8 -6,-6 -8.398,-12 -7.199,-12 -3.602,-7.2 -2.398,-8.4 -4.801,-18 -3.602,-6 -1.199,-12 -1.199,-6 0,-34.8 1.199,-8.4 4.801,-16.8 2.398,-10.8 2.403,-6 4.796,-10.8 2.403,-8.4 7.199,-6 2.398,-6 6,-8.4 6,-6 4.801,-8.4 13.199,-10.8 7.204,-6 9.597,-6 4.801,-3.6 7.199,-4.8 7.199,-3.6 10.801,-3.6 7.199,-3.6 9.602,-2.4 6,-1.2 8.398,-2.4 8.403,-1.2 9.597,-1.2 18,0 9.602,1.2 2.398,-1.2 9.602,1.2 7.199,1.2 9.602,2.4 4.801,1.2 9.597,2.4 7.199,3.6 10.801,3.6 7.199,3.6 7.204,4.8 4.796,3.6 9.602,6 7.199,6 13.199,10.8 4.801,8.4 6,6 6,8.4 3.602,6 6,6 3.597,8.4 3.602,10.8 3.602,6 2.398,10.8 3.602,16.8 1.199,8.4 0,34.8 -1.199,6 -1.204,12 -2.398,6 -2.398,13.2 -6,13.2 -3.602,7.2 -6,8.4 -9.602,15.6 -4.796,6 -4.801,4.8 -14.403,13.2 -6,4.8 -6,4.8 -7.199,6 -8.398,4.8 -6,2.4 -9.602,4.8 -7.199,3.6 -10.801,2.4 -6,2.4 -8.398,2.4 -7.199,1.2 -8.403,2.4 -14.398,1.2 -8.403,0" inkscape:connector-curvature="0" id="path32" style="stroke:#000000;stroke-width:8;stroke-miterlimit:4;stroke-dasharray:none;fill:none;stroke-opacity:1"/>
      <path d="M 1075.2,604.801 1338,10.8008 l 132,0 -264,594.0002 -130.8,0" inkscape:connector-curvature="0" id="path34" style="stroke:#000000;stroke-width:8;stroke-miterlimit:4;stroke-dasharray:none;fill:none;stroke-opacity:1"/>
      <path d="m 1473.6,604.801 264,-594.0002 132,0 -264,594.0002 -132,0" inkscape:connector-curvature="0" id="path36" style="stroke:#000000;stroke-width:8;stroke-miterlimit:4;stroke-dasharray:none;fill:none;stroke-opacity:1"/>
      <path d="m 1783.2,1108.8 -778.8,0 10.8,64.8 9.6,43.2 16.8,43.2 22.8,33.6 19.2,28.8 26.4,37.2 30,25.2 36,27.6 30,19.2 43.2,20.4 42,13.2 30,6 52.8,6 39.6,0 36,-6 39.6,-6 43.2,-10.8 28.8,-9.6 40.8,-26.4 32.4,-22.8 30,-24 26.4,-32.4 26.4,-36 22.8,-37.2 16.8,-32.4 13.2,-49.2 9.6,-36 3.6,-39.6" inkscape:connector-curvature="0" id="path38" style="stroke:#000000;stroke-width:8;stroke-miterlimit:4;stroke-dasharray:none;fill:none;stroke-opacity:1"/>
    </g>
  </g>
</svg>
