<?xml version="1.0" encoding="UTF-8"?>
<!-- Created with Inkscape (http://www.inkscape.org/) -->
<svg xmlns:dc="http://purl.org/dc/elements/1.1/" xmlns:cc="http://creativecommons.org/ns#" xmlns:rdf="http://www.w3.org/1999/02/22-rdf-syntax-ns#" xmlns:svg="http://www.w3.org/2000/svg" xmlns="http://www.w3.org/2000/svg" xmlns:inkscape="http://www.inkscape.org/namespaces/inkscape" version="1.1" width="765" height="990" id="svg2" xml:space="preserve">
  <metadata id="metadata8">
    <rdf:RDF>
      <cc:Work rdf:about="">
        <dc:format>image/svg+xml</dc:format>
        <dc:type rdf:resource="http://purl.org/dc/dcmitype/StillImage"/>
      </cc:Work>
    </rdf:RDF>
  </metadata>
  <defs id="defs6"/>
  <g transform="matrix(1.25,0,0,-1.25,0,990)" id="g10">
    <g transform="scale(0.1,0.1)" id="g12">
      <path d="m 1017.6,1004.4 20.4,37.2 27.6,26.4 39.6,9.6 33.6,-6 22.8,-21.6 13.2,-18 8.4,-42 0,-490.801 -1168.8016,0 0,490.801 12,42 9.6016,18 22.8008,21.6 33.5976,6 43.2036,-9.6 26.398,-26.4 18,-33.6" inkscape:connector-curvature="0" id="path14" style="stroke:#000000;stroke-width:8;stroke-miterlimit:4;stroke-dasharray:none;fill:none;stroke-opacity:1"/>
      <path d="m 630,1452 -48,0 -18,-2.4 -32.398,-6 -21.602,-3.6 -18,-6 -18,-6 -25.199,-6 -20.403,-9.6 -21.597,-8.4 -18,-9.6 -18,-12 -18,-12 -18,-12 -15.602,-15.6 -32.398,-30 -13.199,-15.6 -12,-10.8 -20.403,-30 -18,-31.2 -9.597,-18 -6,-21.6 -12,-42 -9.602,-18 -2.398,-27.6 -3.602,-18 0,-84 3.602,-21.602 12,-42 6,-27.597 6,-14.403 12,-27.597 6,-18 18,-18 6,-15.602 15.597,-18 12,-15.597 14.403,-20.403 31.199,-27.597 21.597,-15.602 20.403,-14.398 12,-9.602 18,-12 18,-8.398 27.597,-9.602 18,-9.602 24,-4.796 14.403,-3.602 21.597,-6 21.602,-3.602 24,-2.398 45.602,0 20.398,2.398 6,-2.398 25.199,2.398 18,3.602 24,6 12,3.602 24,4.796 18,9.602 27.602,9.602 18,8.398 18,12 12,9.602 L 858,714 l 18,15.602 30,27.597 14.398,20.403 12,15.597 15.602,18 8.398,15.602 15.602,18 8.398,18 9.602,27.597 9.602,14.403 5.998,27.597 8.4,42 3.6,21.602 0,84 -3.6,18 -3.6,27.6 -4.8,18 -5.998,30 -15.602,33.6 -9.602,18 -12,21.6 -26.398,39.6 -9.602,10.8 -12,15.6 -36,30 -15.597,15.6 -14.403,12 -18,12 -21.597,12 -15.602,9.6 -24,8.4 -18,9.6 -26.398,6 -15.602,6 -21.597,6 -18,3.6 -18,6 -36,2.4 -21.602,0" inkscape:connector-curvature="0" id="path16" style="stroke:#000000;stroke-width:8;stroke-miterlimit:4;stroke-dasharray:none;fill:none;stroke-opacity:1"/>
      <path d="m 529.199,13.1992 -514.8006,0 6,44.4024 7.2032,28.7968 L 38.3984,114 54,135.602 67.1992,156 84,180 l 19.199,16.801 25.199,18 19.204,13.199 28.796,13.199 28.801,8.403 19.199,4.796 34.801,3.602 26.403,0 24,-3.602 26.398,-4.796 27.602,-6 L 384,236.398 410.398,219.602 432,204 l 19.199,-15.602 18,-21.597 16.801,-24 15.602,-24 10.796,-21.6018 8.403,-32.3984 7.199,-25.1992 1.199,-26.4024" inkscape:connector-curvature="0" id="path18" style="stroke:#000000;stroke-width:8;stroke-miterlimit:4;stroke-dasharray:none;fill:none;stroke-opacity:1"/>
      <path d="M 1183.2,406.801 1008,13.1992 l -86.398,0 173.998,393.6018 87.6,0" inkscape:connector-curvature="0" id="path20" style="stroke:#000000;stroke-width:8;stroke-miterlimit:4;stroke-dasharray:none;fill:none;stroke-opacity:1"/>
      <path d="M 919.199,406.801 744,13.1992 l -87.602,0 175.204,393.6018 87.597,0" inkscape:connector-curvature="0" id="path22" style="stroke:#000000;stroke-width:8;stroke-miterlimit:4;stroke-dasharray:none;fill:none;stroke-opacity:1"/>
      <path d="m 2035.2,21.6016 -722.4,0 174,68.3984 -104.4,342 -2.4,30 -2.4,28.801 2.4,24 8.4,15.597 9.6,13.204 15.6,7.199 12,2.398 26.4,0 7.2,-2.398 12,-7.199 L 1491.6,528 1692,279.602 1711.2,672 l 8.4,58.801 9.6,39.597 7.2,26.403 26.4,21.597 21.6,15.602 13.2,8.398 20.4,4.801 16.8,0 18,-2.398 33.6,-18 18,-20.403 12,-22.796 14.4,-30 8.4,-38.403 4.8,-38.398 3.6,-25.199 0,-523.204 -6,-20.398 -13.2,-20.3984 115.2,-70.8008" inkscape:connector-curvature="0" id="path24" style="stroke:#000000;stroke-width:8;stroke-miterlimit:4;stroke-dasharray:none;fill:none;stroke-opacity:1"/>
      <path d="m 1706.4,612 -66,0 6,105.602 7.2,52.796 15.6,40.801 L 1686,852" inkscape:connector-curvature="0" id="path26" style="stroke:#000000;stroke-width:8;stroke-miterlimit:4;stroke-dasharray:none;fill:none;stroke-opacity:1"/>
      <path d="m 1952.4,608.398 62.4,0 4.8,276 -9.6,54 -20.4,52.801 -37.2,66.001 -43.2,42 -50.4,31.2 -54,14.4 -57.6,8.4" inkscape:connector-curvature="0" id="path28" style="stroke:#000000;stroke-width:8;stroke-miterlimit:4;stroke-dasharray:none;fill:none;stroke-opacity:1"/>
      <path d="m 1683.6,1110 15.6,-10.8 12,10.8 -14.4,12 -10.8,-12" inkscape:connector-curvature="0" id="path30" style="stroke:#000000;stroke-width:8;stroke-miterlimit:4;stroke-dasharray:none;fill:none;stroke-opacity:1"/>
      <path d="m 1683.6,852 -9.6,14.398 -4.8,33.602 27.6,63.602 55.2,68.398 10.8,9.6 9.6,20.4 4.8,25.2 -2.4,22.8 -9.6,20.4 -20.4,22.8 -38.4,2.4 -37.2,-4.8 -28.8,-8.4 -22.8,-18 -30,-2.4 -37.2,-7.2 -40.8,-18 -36,-16.8 -50.4,-40.8 -25.2,-27.6 -15.6,-17.998 10.8,-7.204 40.8,34.802 48,36 34.8,16.8 38.4,8.4 38.4,0 32.4,-6 25.2,-7.2 18,-22.8 -3.6,-27.6 -30,-61.198 -25.2,-50.403 -14.4,-57.597 9.6,-36 22.8,-20.403 34.8,-4.801" inkscape:connector-curvature="0" id="path32" style="stroke:#000000;stroke-width:8;stroke-miterlimit:4;stroke-dasharray:none;fill:none;stroke-opacity:1"/>
      <path d="m 1839.6,1132.8 7.2,32.4 105.6,283.2 -19.2,2.4 -76.8,-187.2 -196.8,0 13.2,-61.2 4.8,-43.2" inkscape:connector-curvature="0" id="path34" style="stroke:#000000;stroke-width:8;stroke-miterlimit:4;stroke-dasharray:none;fill:none;stroke-opacity:1"/>
      <path d="m 1680,1268.4 4.8,13.2 7.2,14.4 10.8,13.2 12,14.4 22.8,15.6 20.4,13.2 13.2,7.2 9.6,7.2 13.2,7.2 12,8.4 10.8,10.8 2.4,7.2 4.8,14.4 0,13.2 4.8,13.2 10.8,9.6 14.4,4.8 10.8,-2.4 12,-4.8 7.2,-9.6 3.6,-8.4 2.4,-13.2 -6,-14.4 -9.6,-9.6 -4.8,-10.8 -2.4,-8.4 -2.4,-12 4.8,-14.4 4.8,-15.6 0,-13.2" inkscape:connector-curvature="0" id="path36" style="stroke:#000000;stroke-width:8;stroke-miterlimit:4;stroke-dasharray:none;fill:none;stroke-opacity:1"/>
      <path d="m 1758,1354.8 -32.4,45.6 -4.8,14.4 0,13.2 4.8,13.2 9.6,4.8 13.2,4.8 7.2,-2.4 10.8,-4.8 9.6,-10.8 2.4,-13.2 0,-7.2 -4.8,-9.6 -7.2,-2.4 -10.8,-2.4 -4.8,0" inkscape:connector-curvature="0" id="path38" style="stroke:#000000;stroke-width:8;stroke-miterlimit:4;stroke-dasharray:none;fill:none;stroke-opacity:1"/>
    </g>
  </g>
</svg>
