<?xml version="1.0" encoding="UTF-8"?>
<!-- Created with Inkscape (http://www.inkscape.org/) -->
<svg xmlns:dc="http://purl.org/dc/elements/1.1/" xmlns:cc="http://creativecommons.org/ns#" xmlns:rdf="http://www.w3.org/1999/02/22-rdf-syntax-ns#" xmlns:svg="http://www.w3.org/2000/svg" xmlns="http://www.w3.org/2000/svg" xmlns:inkscape="http://www.inkscape.org/namespaces/inkscape" version="1.1" width="765" height="990" id="svg2" xml:space="preserve">
  <metadata id="metadata8">
    <rdf:RDF>
      <cc:Work rdf:about="">
        <dc:format>image/svg+xml</dc:format>
        <dc:type rdf:resource="http://purl.org/dc/dcmitype/StillImage"/>
      </cc:Work>
    </rdf:RDF>
  </metadata>
  <defs id="defs6"/>
  <g transform="matrix(1.25,0,0,-1.25,0,990)" id="g10">
    <g transform="scale(0.1,0.1)" id="g12">
      <path d="M 476.398,362.398 486,378 l 12,13.199 18,3.602 15.602,-2.403 10.796,-9.597 6,-8.403 3.602,-19.199 0,-224.398 -534,0 0,224.398 4.8008,19.199 4.8008,8.403 10.7968,9.597 15.6016,2.403 19.1992,-3.602 12,-13.199 8.4024,-14.398" inkscape:connector-curvature="0" id="path14" style="stroke:#000000;stroke-width:8;stroke-miterlimit:4;stroke-dasharray:none;fill:none;stroke-opacity:1"/>
      <path d="m 300,566.398 -22.801,0 -8.398,-1.199 -14.403,-2.398 -9.597,-2.403 L 236.398,558 226.801,555.602 217.199,552 206.398,548.398 198,544.801 189.602,540 180,534 l -7.199,-4.801 -8.403,-6 -7.199,-6 -15.597,-14.398 -4.801,-7.199 -6,-4.801 -9.602,-14.403 -8.398,-14.398 -3.602,-7.199 -2.398,-10.801 -6,-18 -4.801,-9.602 -1.1992,-12 -1.1992,-8.398 0,-38.398 1.1992,-9.602 6.0002,-19.199 2.398,-12 3.602,-7.199 4.801,-12 L 114,288 l 8.398,-7.199 3.602,-7.199 6,-8.403 6,-7.199 7.199,-9.602 13.199,-12 9.602,-7.199 9.602,-7.199 6,-3.602 8.398,-6 8.398,-3.597 12,-4.801 8.403,-3.602 10.801,-3.597 7.199,-1.199 9.597,-2.403 L 258,192 l 10.801,-1.199 20.398,0 L 300,192 l 2.398,-1.199 10.801,1.199 8.403,1.199 10.796,2.403 6,1.199 10.801,3.597 8.403,3.602 12,4.801 8.398,3.597 8.398,6 6,3.602 10.801,7.199 8.403,7.199 13.199,12 7.199,9.602 6,7.199 7.199,8.403 3.602,7.199 7.199,7.199 3.602,9.602 4.796,12 3.602,7.199 2.398,12 4.801,19.199 1.199,9.602 0,38.398 -1.199,8.398 -2.398,12 -2.403,9.602 -2.398,13.199 -7.199,15.602 -3.602,7.199 -6,10.801 -12,18 -4.801,4.801 -4.796,7.199 -16.801,14.398 -7.199,6 -6,6 -8.403,4.801 -10.801,6 -6,4.801 -12,3.597 -7.199,3.602 -13.199,3.602 -7.199,2.398 -8.403,2.398 -9.597,2.403 -7.199,2.398 -16.801,1.199 -9.602,0" inkscape:connector-curvature="0" id="path16" style="stroke:#000000;stroke-width:8;stroke-miterlimit:4;stroke-dasharray:none;fill:none;stroke-opacity:1"/>
      <path d="m 1467.6,336 2.4,-54 -3.6,-57.602 -16.8,-166.7964 69.6,-49.20316 -392.4,0 L 1209.6,48 1164,223.199 l -1.2,20.403 4.8,16.796 7.2,10.801 6,7.199 14.4,1.204 14.4,-3.602 19.2,-12 16.8,-14.398 67.2,-93.602 4.8,97.199 3.6,81.602 13.2,39.597 15.6,22.801 8.4,12 24,25.199 0,32.403 -10.8,7.199 -38.4,8.398 -14.4,-39.597 -10.8,4.801 22.8,36 2.4,32.398 -22.8,6 -2.4,7.199 12,15.602 9.6,10.801 3.6,15.597 78,-12 4.8,6 10.8,1.199 6,-7.199 0,-10.801 -3.6,-10.796 -7.2,-14.403 0,-186 75.6,0 -10.8,224.403 -8.4,26.398 -9.6,15.602 -15.6,14.398 -15.6,7.199 -19.2,4.801 -22.8,-1.199 -22.8,-4.801 -13.2,-10.801 -8.4,-9.597 -7.2,-9.602 -7.2,-12 -2.4,-9.602" inkscape:connector-curvature="0" id="path18" style="stroke:#000000;stroke-width:8;stroke-miterlimit:4;stroke-dasharray:none;fill:none;stroke-opacity:1"/>
      <path d="m 1345.2,541.199 25.2,-2.398 -8.4,9.597 -4.8,2.403 -10.8,-7.199" inkscape:connector-curvature="0" id="path20" style="stroke:#000000;stroke-width:8;stroke-miterlimit:4;stroke-dasharray:none;fill:none;stroke-opacity:1"/>
      <path d="M 813.602,469.199 810,450 793.199,442.801 777.602,428.398 774,416.398 775.199,402 784.801,384 804,357.602 837.602,324 l 90,-55.199 48,-26.403 39.598,-16.796 24,-15.602 14.4,-8.398 32.4,-33.602 3.6,-2.398 0,16.796 -13.2,54 -19.2,82.801 -19.2,70.801 -24,57.602 -22.801,40.796 -18,26.403 -24,19.199 -16.801,9.602 -27.597,4.796 -20.403,-1.199 -20.398,-8.398 -54,-44.403 -22.801,-16.796 -12,-3.602 -10.801,2.398 -4.796,13.204 6,18 15.597,24 19.199,24 4.801,22.796 1.199,20.403 -6,14.398 -14.398,12 L 769.199,630 756,627.602 l -16.801,-4.801 -10.801,-7.199 -7.199,-6 -6,-8.403 -4.801,-14.398 2.403,-14.403 7.199,-6 6,-4.796 4.801,-7.204 L 732,546 l 0,-12 -37.199,-66 -6,-22.801 0,-20.398 L 696,404.398 710.398,390 760.801,357.602 771.602,343.199 810,292.801 822,278.398 838.801,262.801 883.199,242.398 888,241.199 895.199,222 924,177.602 930,168 l 2.398,-10.801 12,-101.9998 -1.199,-10.8008 -2.398,-4.7968 -8.403,-1.2032 -49.199,-4.7968 -31.199,-2.4024 -8.398,-6 -1.204,-9.5976 7.204,-6.00004" inkscape:connector-curvature="0" id="path22" style="stroke:#000000;stroke-width:8;stroke-miterlimit:4;stroke-dasharray:none;fill:none;stroke-opacity:1"/>
      <path d="m 849.602,28.8008 -12,-3.6016 -4.801,-4.8008 -2.403,-10.79684 12,4.79684" inkscape:connector-curvature="0" id="path24" style="stroke:#000000;stroke-width:8;stroke-miterlimit:4;stroke-dasharray:none;fill:none;stroke-opacity:1"/>
      <path d="M 872.398,25.1992 860.398,24 855.602,16.8008 853.199,12 l 13.199,1.1992" inkscape:connector-curvature="0" id="path26" style="stroke:#000000;stroke-width:8;stroke-miterlimit:4;stroke-dasharray:none;fill:none;stroke-opacity:1"/>
      <path d="M 904.801,31.1992 882,27.6016 l -14.398,-4.8008 0,-8.4024 7.199,-4.79684 14.398,2.39844 62.403,4.8008 48,-7.19924 7.198,2.39844 0,8.3984 -2.4,6 -32.4,8.4024 -4.801,4.8008 -8.398,94.7964 1.199,18 -3.602,13.204 -8.398,24 -4.801,50.398" inkscape:connector-curvature="0" id="path28" style="stroke:#000000;stroke-width:8;stroke-miterlimit:4;stroke-dasharray:none;fill:none;stroke-opacity:1"/>
      <path d="m 944.398,224.398 28.801,-7.199 34.801,-3.597 26.4,0" inkscape:connector-curvature="0" id="path30" style="stroke:#000000;stroke-width:8;stroke-miterlimit:4;stroke-dasharray:none;fill:none;stroke-opacity:1"/>
      <path d="m 1006.8,24 8.4,-1.1992 6,-6 1.2,-4.8008 -14.4,2.3984" inkscape:connector-curvature="0" id="path32" style="stroke:#000000;stroke-width:8;stroke-miterlimit:4;stroke-dasharray:none;fill:none;stroke-opacity:1"/>
      <path d="m 834,266.398 13.199,-88.796 -3.597,-13.204 -64.801,-117.5972 -3.602,-6 L 768,39.6016 685.199,31.1992 680.398,27.6016 678,25.1992 670.801,24 666,21.6016 664.801,14.3984 663.602,8.39844 674.398,16.8008 678,12 l 9.602,0" inkscape:connector-curvature="0" id="path34" style="stroke:#000000;stroke-width:8;stroke-miterlimit:4;stroke-dasharray:none;fill:none;stroke-opacity:1"/>
      <path d="m 703.199,24 -10.801,-2.3984 -3.597,-6 1.199,-6.00004 14.398,4.79684" inkscape:connector-curvature="0" id="path36" style="stroke:#000000;stroke-width:8;stroke-miterlimit:4;stroke-dasharray:none;fill:none;stroke-opacity:1"/>
      <path d="m 748.801,31.1992 -33.602,-6 L 704.398,24 l 0,-9.6016 6,-4.79684 55.204,6.00004 18,3.5976 31.199,-6 14.398,-3.59764" inkscape:connector-curvature="0" id="path38" style="stroke:#000000;stroke-width:8;stroke-miterlimit:4;stroke-dasharray:none;fill:none;stroke-opacity:1"/>
      <path d="M 834,25.1992 806.398,32.3984 804,36 l 0,7.1992 48,87.6018 7.199,7.199 7.199,14.398 2.403,13.204 26.398,57.597" inkscape:connector-curvature="0" id="path40" style="stroke:#000000;stroke-width:8;stroke-miterlimit:4;stroke-dasharray:none;fill:none;stroke-opacity:1"/>
      <path d="M 715.199,603.602 663.602,594 l -12,-6 -9.602,-8.398 -7.199,-18 8.398,4.796 15.602,8.403 21.597,6 13.204,0 16.796,2.398" inkscape:connector-curvature="0" id="path42" style="stroke:#000000;stroke-width:8;stroke-miterlimit:4;stroke-dasharray:none;fill:none;stroke-opacity:1"/>
      <path d="m 638.398,562.801 20.403,2.398 22.801,1.199 15.597,-2.398 14.403,1.199 7.199,0" inkscape:connector-curvature="0" id="path44" style="stroke:#000000;stroke-width:8;stroke-miterlimit:4;stroke-dasharray:none;fill:none;stroke-opacity:1"/>
      <path d="m 740.398,598.801 2.403,-8.403 4.801,-2.398 4.796,0 4.801,4.801 0,6 -2.398,3.597 -4.801,1.204 -4.801,-1.204 -4.801,-4.796" inkscape:connector-curvature="0" id="path46" style="stroke:#000000;stroke-width:8;stroke-miterlimit:4;stroke-dasharray:none;fill:none;stroke-opacity:1"/>
      <path d="m 692.398,464.398 -16.796,-12 -13.204,-18 -3.597,-19.199 0,-13.199 3.597,-20.398 L 660,364.801 650.398,348 l -10.796,-4.801 -10.801,0 -8.403,4.801 -2.398,9.602 -2.398,12 1.199,15.597 6,20.403 4.801,13.199 12,20.398 16.796,15.602 18,7.199 9.602,2.398 8.398,2.403" inkscape:connector-curvature="0" id="path48" style="stroke:#000000;stroke-width:8;stroke-miterlimit:4;stroke-dasharray:none;fill:none;stroke-opacity:1"/>
    </g>
  </g>
</svg>
