<?xml version="1.0" encoding="UTF-8"?>
<!-- Created with Inkscape (http://www.inkscape.org/) -->
<svg xmlns:dc="http://purl.org/dc/elements/1.1/" xmlns:cc="http://creativecommons.org/ns#" xmlns:rdf="http://www.w3.org/1999/02/22-rdf-syntax-ns#" xmlns:svg="http://www.w3.org/2000/svg" xmlns="http://www.w3.org/2000/svg" xmlns:inkscape="http://www.inkscape.org/namespaces/inkscape" version="1.1" width="765" height="990" id="svg2" xml:space="preserve">
  <metadata id="metadata8">
    <rdf:RDF>
      <cc:Work rdf:about="">
        <dc:format>image/svg+xml</dc:format>
        <dc:type rdf:resource="http://purl.org/dc/dcmitype/StillImage"/>
      </cc:Work>
    </rdf:RDF>
  </metadata>
  <defs id="defs6"/>
  <g transform="matrix(1.25,0,0,-1.25,0,990)" id="g10">
    <g transform="scale(0.1,0.1)" id="g12">
      <path d="m 525.602,1090.8 -38.403,-40.8 -12,-51.602 9.602,-51.597 21.597,-37.199 61.204,-58.801 105.597,-57.602 181.199,-66 218.402,-45.597 217.2,-25.204 69.6,-6 45.6,-3.597 21.6,6 13.2,13.199 0,15.602 -15.6,13.199 -86.4,15.597 -54,26.403 -32.4,21.597 -76.8,63.602 -115.2,105.602 -115.202,89.998 -105.597,57.6 -102,42 -76.801,21.6 -67.199,3.6 -57.602,-13.2 -44.398,-21.6 -32.403,-19.2 -15.597,-15.6 -22.801,-3.6 -25.199,6 -3.602,22.8 124.801,102 26.398,28.8 15.602,34.8 2.398,32.4 -2.398,28.8" inkscape:connector-curvature="0" id="path14" style="stroke:#000000;stroke-width:8;stroke-miterlimit:4;stroke-dasharray:none;fill:none;stroke-opacity:1"/>
      <path d="M 529.199,1347.6 660,1286.4 l 136.801,-51.6 122.398,-25.2 128.401,-9.6 94.8,-3.6 70.8,9.6 -99.6,15.6 -111.6,10.8 -124.801,18 -88.801,26.4 -109.199,38.4 -82.801,34.8 -51.597,34.8 172.801,-66 108,-20.4 58.796,-8.4 121.202,-9.6 111.6,6 67.2,6 54,3.6 -118.8,9.6 -100.8,9.6 -99.601,3.6 -86.398,12 -105.602,22.8 -96,28.8 -63.597,28.8 -44.403,28.8 -36,12 -32.398,3.6 -69.602,-9.6 -54,-19.2 -22.801,-15.6 -13.199,-22.8 -2.398,-6 0,-26.4 15.597,-25.2 19.204,-6 19.199,-6 36,-9.6 37.199,0 22.801,9.6 19.199,2.4 9.602,-15.6 3.597,-28.8 -36,-42 -56.398,-40.8 -55.199,-51.6 -25.204,-34.8 -19.199,-28.8 -9.597,-51.6 6,-28.802 38.398,-57.597 99.602,-108 60,-55.199 70.796,-50.403 102,-45.597 61.204,-88.801 63.597,-74.403 42,-44.398 12,-28.801 19.199,-207.597 0,-134.403 -6,-21.5974 L 819.602,74.3984 682.801,55.1992 673.199,51.6016 654,49.1992 644.398,36 l 0,-19.1992 19.204,9.5976 21.597,-6" inkscape:connector-curvature="0" id="path16" style="stroke:#000000;stroke-width:8;stroke-miterlimit:4;stroke-dasharray:none;fill:none;stroke-opacity:1"/>
      <path d="M 778.801,55.1992 698.398,42 685.199,33.6016 688.801,16.8008 714,30 733.199,16.8008 861.602,33.6016 960,16.8008 l 3.602,16.8008 -6,15.5976 -26.403,6 -28.801,9.6016 -8.398,3.5976 -9.602,19.2032 -3.597,328.7964 6,38.403 0,13.199 -21.602,42 -22.801,37.199 L 769.199,666" inkscape:connector-curvature="0" id="path18" style="stroke:#000000;stroke-width:8;stroke-miterlimit:4;stroke-dasharray:none;fill:none;stroke-opacity:1"/>
      <path d="M 796.801,631.199 913.199,618 l 94.801,3.602 122.4,12 60,-54 74.4,-67.204 34.8,-2.398 34.8,8.398 38.4,32.403 6,25.199 -76.8,80.398" inkscape:connector-curvature="0" id="path20" style="stroke:#000000;stroke-width:8;stroke-miterlimit:4;stroke-dasharray:none;fill:none;stroke-opacity:1"/>
      <path d="M 292.801,1384.8 14.3984,1215.6 333.602,1321.2" inkscape:connector-curvature="0" id="path22" style="stroke:#000000;stroke-width:8;stroke-miterlimit:4;stroke-dasharray:none;fill:none;stroke-opacity:1"/>
      <path d="M 295.199,1340.4 14.3984,1215.6" inkscape:connector-curvature="0" id="path24" style="stroke:#000000;stroke-width:8;stroke-miterlimit:4;stroke-dasharray:none;fill:none;stroke-opacity:1"/>
      <path d="m 356.398,1392 -15.597,-9.6 8.398,-15.6 16.801,6 -6,12" inkscape:connector-curvature="0" id="path26" style="stroke:#000000;stroke-width:8;stroke-miterlimit:4;stroke-dasharray:none;fill:none;stroke-opacity:1"/>
      <path d="m 970.801,45.6016 25.199,-6 12,-9.6016 3.6,-7.1992 -15.6,-6 -22.801,3.5976" inkscape:connector-curvature="0" id="path28" style="stroke:#000000;stroke-width:8;stroke-miterlimit:4;stroke-dasharray:none;fill:none;stroke-opacity:1"/>
      <path d="M 490.801,765.602 558,637.199 634.801,522 l 6,-28.801 L 433.199,118.801 423.602,103.199 414,87.6016 l -22.801,-6 L 314.398,68.3984 264,58.8008 244.801,49.1992 231.602,45.6016 212.398,42 l -6,-6 -6,-15.6016 19.204,9.6016 21.597,-9.6016" inkscape:connector-curvature="0" id="path30" style="stroke:#000000;stroke-width:8;stroke-miterlimit:4;stroke-dasharray:none;fill:none;stroke-opacity:1"/>
      <path d="M 277.199,39.6016 264,39.6016 248.398,36 l -7.199,-13.1992 7.199,-2.4024 18,6" inkscape:connector-curvature="0" id="path32" style="stroke:#000000;stroke-width:8;stroke-miterlimit:4;stroke-dasharray:none;fill:none;stroke-opacity:1"/>
      <path d="M 279.602,42 302.398,49.1992 354,51.6016" inkscape:connector-curvature="0" id="path34" style="stroke:#000000;stroke-width:8;stroke-miterlimit:4;stroke-dasharray:none;fill:none;stroke-opacity:1"/>
      <path d="M 270,26.3984 295.199,16.8008 414,30 l 19.199,3.6016 96,-16.8008 2.403,16.8008 -2.403,15.5976 -28.801,6 L 462,68.3984" inkscape:connector-curvature="0" id="path36" style="stroke:#000000;stroke-width:8;stroke-miterlimit:4;stroke-dasharray:none;fill:none;stroke-opacity:1"/>
      <path d="M 458.398,70.8008 454.801,87.6016 654,416.398 l 48,86.403 0,28.801 -36,121.199" inkscape:connector-curvature="0" id="path38" style="stroke:#000000;stroke-width:8;stroke-miterlimit:4;stroke-dasharray:none;fill:none;stroke-opacity:1"/>
      <path d="m 538.801,45.6016 21.597,-6 13.204,-9.6016 3.597,-7.1992 -16.801,-6 -21.597,3.5976" inkscape:connector-curvature="0" id="path40" style="stroke:#000000;stroke-width:8;stroke-miterlimit:4;stroke-dasharray:none;fill:none;stroke-opacity:1"/>
      <path d="M 1483.2,949.199 1714.8,1171.2" inkscape:connector-curvature="0" id="path42" style="stroke:#000000;stroke-width:8;stroke-miterlimit:4;stroke-dasharray:none;fill:none;stroke-opacity:1"/>
      <path d="M 1400.4,980.398 1683.6,1251.6" inkscape:connector-curvature="0" id="path44" style="stroke:#000000;stroke-width:8;stroke-miterlimit:4;stroke-dasharray:none;fill:none;stroke-opacity:1"/>
      <path d="m 1345.2,1039.2 283.2,271.2" inkscape:connector-curvature="0" id="path46" style="stroke:#000000;stroke-width:8;stroke-miterlimit:4;stroke-dasharray:none;fill:none;stroke-opacity:1"/>
      <path d="m 1316.4,1123.2 228,216" inkscape:connector-curvature="0" id="path48" style="stroke:#000000;stroke-width:8;stroke-miterlimit:4;stroke-dasharray:none;fill:none;stroke-opacity:1"/>
      <path d="m 1598.4,1327.2 -19.2,4.8 -19.2,7.2 -21.6,3.6 -21.6,0 -22.8,-1.2 -19.2,-2.4 -21.6,-7.2 -19.2,-7.2 -20.4,-8.4 -16.8,-12 -14.4,-13.2 -14.4,-14.4 -10.8,-12 -10.8,-15.6 -12,-22.8 -4.8,-19.2 -6,-19.2 -3.6,-19.2 -3.6,-22.8 0,-19.2 3.6,-22.8 6,-20.4 4.8,-18 9.6,-19.2 4.8,-10.8 7.2,-8.4 18,-20.4 18,-16.8 15.6,-13.199 19.2,-9.602 21.6,-10.801 21.6,-6 16.8,-4.796 21.6,0 21.6,-2.403 24,3.602 19.2,3.597 20.4,8.403 21.6,10.801 14.4,7.199 15.6,14.398 15.6,14.401 15.6,15.6 13.2,20.4 12,18 8.4,16.8 6,21.6 2.4,19.2 2.4,22.8 -1.2,20.4 -1.2,22.8 -6,19.2 -7.2,18 -8.4,22.8 -12,18 -13.2,14.4 -14.4,18 -16.8,12 -18,13.2 -20.4,8.4" inkscape:connector-curvature="0" id="path50" style="stroke:#000000;stroke-width:8;stroke-miterlimit:4;stroke-dasharray:none;fill:none;stroke-opacity:1"/>
      <path d="m 2096.4,981.602 -39.6,-19.204 -28.8,-34.796 -8.4,-28.801 -7.2,-28.801 9.6,-45.602 22.8,-27.597 22.8,-20.403 37.2,-12 28.8,-9.597 34.8,0 39.6,15.597 31.2,16.801 19.2,21.602 22.8,32.398 15.6,38.403 9.6,31.199 3.6,32.398 -3.6,22.801 -6,38.4 -15.6,31.2 -26.4,32.4 -25.2,22.8 -22.8,9.6 -21.6,9.6 -32.4,2.4 -25.2,3.6 -32.4,0 -38.4,-3.6 -40.8,-12 -36,-19.2 -21.6,-19.2 -26.4,-22.8 -19.2,-22.8 -19.2,-34.798 -19.2,-34.801 -6,-32.403 -6,-44.398 -3.6,-45.602 3.6,-34.796 2.4,-50.403 19.2,-51.597 L 1916.4,630 1968,562.801 2048.4,486 2162.4,393.602 2412,253.199" inkscape:connector-curvature="0" id="path52" style="stroke:#000000;stroke-width:8;stroke-miterlimit:4;stroke-dasharray:none;fill:none;stroke-opacity:1"/>
      <path d="m 2611.2,970.801 0,-576 103.2,0 0,576 -103.2,0" inkscape:connector-curvature="0" id="path54" style="stroke:#000000;stroke-width:8;stroke-miterlimit:4;stroke-dasharray:none;fill:none;stroke-opacity:1"/>
      <path d="m 3122.4,970.801 0,-576 105.6,0 0,576 -105.6,0" inkscape:connector-curvature="0" id="path56" style="stroke:#000000;stroke-width:8;stroke-miterlimit:4;stroke-dasharray:none;fill:none;stroke-opacity:1"/>
      <path d="m 3640.8,970.801 0,-576 102,0 0,576 -102,0" inkscape:connector-curvature="0" id="path58" style="stroke:#000000;stroke-width:8;stroke-miterlimit:4;stroke-dasharray:none;fill:none;stroke-opacity:1"/>
    </g>
  </g>
</svg>
