<?xml version="1.0" encoding="UTF-8"?>
<!-- Created with Inkscape (http://www.inkscape.org/) -->
<svg xmlns:dc="http://purl.org/dc/elements/1.1/" xmlns:cc="http://creativecommons.org/ns#" xmlns:rdf="http://www.w3.org/1999/02/22-rdf-syntax-ns#" xmlns:svg="http://www.w3.org/2000/svg" xmlns="http://www.w3.org/2000/svg" xmlns:inkscape="http://www.inkscape.org/namespaces/inkscape" version="1.1" width="765" height="990" id="svg2" xml:space="preserve">
  <metadata id="metadata8">
    <rdf:RDF>
      <cc:Work rdf:about="">
        <dc:format>image/svg+xml</dc:format>
        <dc:type rdf:resource="http://purl.org/dc/dcmitype/StillImage"/>
      </cc:Work>
    </rdf:RDF>
  </metadata>
  <defs id="defs6"/>
  <g transform="matrix(1.25,0,0,-1.25,0,990)" id="g10">
    <g transform="scale(0.1,0.1)" id="g12">
      <path d="m 16.8008,12 1574.3992,0 0,231.602 -210,-148.8012 -7.2,72.0002 -19.2,66 -16.8,60 -62.4,92.398 -56.4,69.602 -75.6,49.199 -85.2,45.602 -116.4,30 -81.602,3.597 -52.796,2.403 -105.602,-12 -79.199,-18 L 543.602,536.398 477.602,504 408,447.602 339.602,378 286.801,292.801 247.199,180 240,88.8008 16.8008,232.801 16.8008,12" inkscape:connector-curvature="0" id="path14" style="stroke:#000000;stroke-width:8;stroke-miterlimit:4;stroke-dasharray:none;fill:none;stroke-opacity:1"/>
      <path d="m 919.199,583.199 56.403,170.403 -306,0 51.597,-170.403" inkscape:connector-curvature="0" id="path16" style="stroke:#000000;stroke-width:8;stroke-miterlimit:4;stroke-dasharray:none;fill:none;stroke-opacity:1"/>
    </g>
  </g>
</svg>
