<?xml version="1.0" encoding="UTF-8"?>
<!-- Created with Inkscape (http://www.inkscape.org/) -->
<svg xmlns:dc="http://purl.org/dc/elements/1.1/" xmlns:cc="http://creativecommons.org/ns#" xmlns:rdf="http://www.w3.org/1999/02/22-rdf-syntax-ns#" xmlns:svg="http://www.w3.org/2000/svg" xmlns="http://www.w3.org/2000/svg" xmlns:inkscape="http://www.inkscape.org/namespaces/inkscape" version="1.1" width="765" height="990" id="svg2" xml:space="preserve">
  <metadata id="metadata8">
    <rdf:RDF>
      <cc:Work rdf:about="">
        <dc:format>image/svg+xml</dc:format>
        <dc:type rdf:resource="http://purl.org/dc/dcmitype/StillImage"/>
      </cc:Work>
    </rdf:RDF>
  </metadata>
  <defs id="defs6"/>
  <g transform="matrix(1.25,0,0,-1.25,0,990)" id="g10">
    <g transform="scale(0.1,0.1)" id="g12">
      <path d="m 391.199,787.199 972.001,0 0,-38.398 38.4,-7.199 60,-18 42,-26.403 55.2,-38.398 48,-51.602 44.4,-60 32.4,-61.199 27.6,-76.801 19.2,-76.801 9.6,-128.398 -9.6,-66 -28.8,-76.8008 -34.8,-36 -28.8,-6 -44.4,2.4024 -34.8,28.7968 -16.8,36 -6,38.4026 -3.6,28.801 9.6,98.398 13.2,109.199 -9.6,111.602 -28.8,80.398 -42,64.801 -42,46.801 -48,19.199 -21.6,0 0,-34.801 -127.2,0 0,-67.199 -189.6,0 0,67.199 -344.4,0 0,-67.199 -182.398,0 0,67.199 -128.403,0" inkscape:connector-curvature="0" id="path14" style="stroke:#000000;stroke-width:8;stroke-miterlimit:4;stroke-dasharray:none;fill:none;stroke-opacity:1"/>
      <path d="M 448.801,787.199 573.602,1398 l 22.796,38.4 15.602,13.2 19.199,6 28.801,0 28.801,-15.6 6,-19.2 0,-22.8" inkscape:connector-curvature="0" id="path16" style="stroke:#000000;stroke-width:8;stroke-miterlimit:4;stroke-dasharray:none;fill:none;stroke-opacity:1"/>
      <path d="m 571.199,787.199 127.199,614.401 15.602,28.8 16.801,15.6 28.801,6 28.796,-8.4 15.602,-13.2 9.602,-20.4" inkscape:connector-curvature="0" id="path18" style="stroke:#000000;stroke-width:8;stroke-miterlimit:4;stroke-dasharray:none;fill:none;stroke-opacity:1"/>
      <path d="M 685.199,787.199 810,1398 l 13.199,28.8 21.602,19.2 26.398,3.6 28.801,-3.6 21.602,-19.2 7.199,-25.2" inkscape:connector-curvature="0" id="path20" style="stroke:#000000;stroke-width:8;stroke-miterlimit:4;stroke-dasharray:none;fill:none;stroke-opacity:1"/>
      <path d="M 800.398,787.199 925.199,1392 l 19.199,34.8 22.801,19.2 38.401,3.6 13.2,-3.6 18,-13.2 9.6,-31.2" inkscape:connector-curvature="0" id="path22" style="stroke:#000000;stroke-width:8;stroke-miterlimit:4;stroke-dasharray:none;fill:none;stroke-opacity:1"/>
      <path d="M 921.602,787.199 1044,1388.4 l 12,32.4 13.2,19.2 28.8,12 34.8,-6 26.4,-15.6 8.4,-22.8" inkscape:connector-curvature="0" id="path24" style="stroke:#000000;stroke-width:8;stroke-miterlimit:4;stroke-dasharray:none;fill:none;stroke-opacity:1"/>
      <path d="m 1046.4,787.199 115.2,597.601 9.6,32.4 19.2,26.4 32.4,6 6,2.4 28.8,-12 19.2,-19.2 0,-19.2" inkscape:connector-curvature="0" id="path26" style="stroke:#000000;stroke-width:8;stroke-miterlimit:4;stroke-dasharray:none;fill:none;stroke-opacity:1"/>
      <path d="m 1155.6,787.199 121.2,616.801 13.2,26.4 15.6,15.6 19.2,3.6 28.8,0 25.2,-9.6 13.2,-19.2 6,-32.4 -124.8,-601.201 -882.001,0 0,-42 -44.398,-6 L 285.602,720 241.199,694.801 189.602,652.801 142.801,601.199 68.3984,476.398 46.8008,403.199 24,326.398 14.3984,198 24,130.801 55.1992,57.6016 l 36,-36 25.1988,-6 44.403,3.5976 39.597,28.8008 12,34.8008 7.204,38.3982 L 222,150 l -9.602,99.602 -15.597,108 9.597,109.199 25.204,80.398 42,67.199 40.796,48 45.602,19.204 31.199,2.398 0,-28.801" inkscape:connector-curvature="0" id="path28" style="stroke:#000000;stroke-width:8;stroke-miterlimit:4;stroke-dasharray:none;fill:none;stroke-opacity:1"/>
    </g>
  </g>
</svg>
