<?xml version="1.0" encoding="UTF-8"?>
<!-- Created with Inkscape (http://www.inkscape.org/) -->
<svg xmlns:dc="http://purl.org/dc/elements/1.1/" xmlns:cc="http://creativecommons.org/ns#" xmlns:rdf="http://www.w3.org/1999/02/22-rdf-syntax-ns#" xmlns:svg="http://www.w3.org/2000/svg" xmlns="http://www.w3.org/2000/svg" xmlns:inkscape="http://www.inkscape.org/namespaces/inkscape" version="1.1" width="765" height="990" id="svg2" xml:space="preserve">
  <metadata id="metadata8">
    <rdf:RDF>
      <cc:Work rdf:about="">
        <dc:format>image/svg+xml</dc:format>
        <dc:type rdf:resource="http://purl.org/dc/dcmitype/StillImage"/>
      </cc:Work>
    </rdf:RDF>
  </metadata>
  <defs id="defs6"/>
  <g transform="matrix(1.25,0,0,-1.25,0,990)" id="g10">
    <g transform="scale(0.1,0.1)" id="g12">
      <path d="m 1204.8,1117.2 -73.2,7.2 -115.2,-7.2 -85.201,10.8 -26.398,-10.8 -20.403,-25.2 7.204,-46.8 L 924,939.602 987.602,837.602 1191.6,594 1297.2,494.398 1448.4,352.801 1771.2,36 l 33.6,0 9.6,16.8008 -13.2,30 -138,315.5972 -20.4,60 -105.6,254.403 -94.8,164.398 -75.6,105.602 -56.4,75.599 -46.8,72 -49.2,67.2 -58.8,68.4 -60,39.6 -16.8,69.6 -13.2,75.6 -19.2,49.2 -56.4,13.2 -92.398,0 -102,-2.4 -49.204,-13.2 -22.796,-7.2 -168,-22.8 -49.204,-22.8 -16.796,-24 -3.602,-45.6 20.398,32.4 32.403,16.8 98.398,0 103.199,-3.6 51.602,-13.2 -42,52.8 -9.602,37.2" inkscape:connector-curvature="0" id="path14" style="stroke:#000000;stroke-width:8;stroke-miterlimit:4;stroke-dasharray:none;fill:none;stroke-opacity:1"/>
      <path d="m 848.398,1428 10.801,3.6 6,15.6 -6,16.8 -13.199,10.8 -14.398,-10.8 -2.403,-19.2 6,-10.8 10.801,-6" inkscape:connector-curvature="0" id="path16" style="stroke:#000000;stroke-width:8;stroke-miterlimit:4;stroke-dasharray:none;fill:none;stroke-opacity:1"/>
      <path d="m 501.602,1394.4 133.199,3.6 102,-13.2 30,-15.6 9.597,-33.6 2.403,-36 -28.801,-72 -13.199,-90 16.801,-108 13.199,-50.401 36,-98.398 L 846,801.602 946.801,626.398 1082.4,369.602 1095.6,270 1078.8,102 1063.2,86.3984 967.199,75.6016 l -112.801,3.5976 -6,-16.8008 -49.199,-6 L 792,45.6016 802.801,32.3984 1086,43.1992 1380,30 l 12,13.1992 -6,15.6016 -45.6,0 -27.6,24 -168,3.5976 -19.2,13.2032 19.2,206.3984 122.4,-62.398 69.6,205.199 132,-330 45.6,-60.0002 45.6,-26.4024 69.6,0 39.6,13.2032 9.6,20.3984 -32.4,88.801" inkscape:connector-curvature="0" id="path18" style="stroke:#000000;stroke-width:8;stroke-miterlimit:4;stroke-dasharray:none;fill:none;stroke-opacity:1"/>
      <path d="m 829.199,824.398 43.199,-241.199 -3.597,-184.801 -33.602,-187.199 -30,-96 L 786,92.3984 627.602,82.8008 612,58.8008 574.801,56.3984 561.602,45.6016 l 13.199,-13.2032 122.398,10.8008 36,-3.5976" inkscape:connector-curvature="0" id="path20" style="stroke:#000000;stroke-width:8;stroke-miterlimit:4;stroke-dasharray:none;fill:none;stroke-opacity:1"/>
      <path d="m 852,79.1992 -56.398,-6 0,0 L 763.199,66 742.801,39.6016 756,32.3984 l 20.398,20.4024 19.204,3.5976" inkscape:connector-curvature="0" id="path22" style="stroke:#000000;stroke-width:8;stroke-miterlimit:4;stroke-dasharray:none;fill:none;stroke-opacity:1"/>
      <path d="m 848.398,82.8008 73.204,270.0002 111.598,-66 24,122.398" inkscape:connector-curvature="0" id="path24" style="stroke:#000000;stroke-width:8;stroke-miterlimit:4;stroke-dasharray:none;fill:none;stroke-opacity:1"/>
      <path d="m 618,79.1992 -52.801,-6 0,0 L 531.602,66 512.398,39.6016 522,32.3984 l 22.801,20.4024 26.398,3.5976" inkscape:connector-curvature="0" id="path26" style="stroke:#000000;stroke-width:8;stroke-miterlimit:4;stroke-dasharray:none;fill:none;stroke-opacity:1"/>
      <path d="m 1320,82.8008 62.4,-7.1992 30,-9.6016 19.2,-26.3984 -9.6,-7.2032 -22.8,20.4024 -16.8,3.5976" inkscape:connector-curvature="0" id="path28" style="stroke:#000000;stroke-width:8;stroke-miterlimit:4;stroke-dasharray:none;fill:none;stroke-opacity:1"/>
      <path d="m 3270,1308 -309.6,-24 -218.4,196.8 -15.6,2.4 -16.8,-13.2 1.2,-16.8 147.6,-162 -75.6,-13.2 -152.4,1.2 -187.2,-2.4 -24,15.6 -127.2,57.6 -118.8,-7.2 -94.8,-33.6 -45.6,-18 -2.4,-9.6 0,-13.2 14.4,-19.2 144,37.2 102,-2.4 50.4,-37.2 4.8,-26.4 -84,-60 -181.2,-8.4 -76.8,22.8 -78,56.4 -69.6,112.8 -15.6,3.6 -24,-7.2 -4.8,-24 24,-61.2 39.6,-62.4 84,-68.4 85.2,-43.2 200.4,3.6 94.8,39.6 92.4,62.4 103.2,-2.4 124.8,7.2 200.4,19.2 10.8,-8.4 -139.2,-177.6 -12,-19.2 9.6,-9.6 20.4,-6 26.4,7.199 108,112.801 40.8,54 40.8,51.6 300,-20.4 16.8,10.8 9.6,20.4 6,20.4 0,9.6 -4.8,13.2 -7.2,22.8 -9.6,9.6 -10.8,3.6" inkscape:connector-curvature="0" id="path30" style="stroke:#000000;stroke-width:8;stroke-miterlimit:4;stroke-dasharray:none;fill:none;stroke-opacity:1"/>
      <path d="M 349.199,250.801 309.602,300 260.398,349.199 220.801,392.398 177.602,439.199 124.801,490.801 72,530.398 16.8008,571.199 122.398,1513.2 l 32.403,-9.6 36,-15.6 30,-24 30,-36 26.398,-43.2 13.199,-45.6 9.602,-39.6 9.602,-52.8 L 356.398,32.3984 294,30 307.199,303.602" inkscape:connector-curvature="0" id="path32" style="stroke:#000000;stroke-width:8;stroke-miterlimit:4;stroke-dasharray:none;fill:none;stroke-opacity:1"/>
      <path d="m 1838.4,670.801 1528.8,0 0,-660.0002 -1528.8,0 0,660.0002" inkscape:connector-curvature="0" id="path34" style="stroke:#000000;stroke-width:8;stroke-miterlimit:4;stroke-dasharray:none;fill:none;stroke-opacity:1"/>
      <path d="m 1838.4,10.8008 1528.8,0 0,660 -1528.8,0 0,-660 z" inkscape:connector-curvature="0" id="path36" style="stroke:#000000;stroke-width:8;stroke-miterlimit:4;stroke-dasharray:none;fill:none;stroke-opacity:1"/>
    </g>
  </g>
</svg>
