<?xml version="1.0" encoding="UTF-8"?>
<!-- Created with Inkscape (http://www.inkscape.org/) -->
<svg xmlns:dc="http://purl.org/dc/elements/1.1/" xmlns:cc="http://creativecommons.org/ns#" xmlns:rdf="http://www.w3.org/1999/02/22-rdf-syntax-ns#" xmlns:svg="http://www.w3.org/2000/svg" xmlns="http://www.w3.org/2000/svg" xmlns:inkscape="http://www.inkscape.org/namespaces/inkscape" version="1.1" width="765" height="990" id="svg2" xml:space="preserve">
  <metadata id="metadata8">
    <rdf:RDF>
      <cc:Work rdf:about="">
        <dc:format>image/svg+xml</dc:format>
        <dc:type rdf:resource="http://purl.org/dc/dcmitype/StillImage"/>
      </cc:Work>
    </rdf:RDF>
  </metadata>
  <defs id="defs6"/>
  <g transform="matrix(1.25,0,0,-1.25,0,990)" id="g10">
    <g transform="scale(0.1,0.1)" id="g12">
      <path d="m 472.801,346.801 8.398,15.597 13.199,13.204 18,3.597 14.403,-2.398 12,-9.602 4.801,-8.398 4.796,-19.199 0,-224.403 -535.1988,0 0,224.403 6,19.199 4.8008,8.398 10.8008,9.602 15.5976,2.398 19.2032,-3.597 12,-13.204 L 90,348" inkscape:connector-curvature="0" id="path14" style="stroke:#000000;stroke-width:8;stroke-miterlimit:4;stroke-dasharray:none;fill:none;stroke-opacity:1"/>
      <path d="m 295.199,550.801 -21.597,0 -8.403,-1.199 -15.597,-2.403 L 240,546 l -8.398,-3.602 -7.204,-2.398 -12,-3.602 -9.597,-3.597 -9.602,-3.602 -8.398,-4.801 -8.403,-6 -8.398,-4.796 -7.199,-4.801 -7.199,-7.199 -15.602,-14.403 -4.801,-6 -6,-6 -9.597,-14.398 -8.403,-13.199 -4.801,-8.403 L 102,429.602 97.1992,410.398 92.3984,402 91.1992,388.801 90,380.398 90,342 l 1.1992,-9.602 6,-19.199 2.4024,-12 L 102,294 l 6,-12 2.398,-8.398 8.403,-8.403 2.398,-7.199 7.199,-8.398 6,-7.204 6,-9.597 14.403,-12 9.597,-7.199 9.602,-7.204 6,-3.597 7.199,-6 8.403,-3.602 13.199,-3.597 8.398,-4.801 10.801,-2.403 6,-2.398 10.801,-2.398 9.597,-1.204 10.801,-1.199 20.403,0 9.597,1.199 3.602,-1.199 10.801,1.199 8.398,1.204 10.801,2.398 6,2.398 10.801,2.403 8.398,4.801 12,3.597 8.398,3.602 8.403,6 4.801,3.597 12,7.204 8.398,7.199 13.199,12 7.199,9.597 4.801,7.204 7.199,8.398 4.801,7.199 6,8.403 4.801,8.398 3.602,12 4.796,7.199 2.403,12 4.801,19.199 1.199,9.602 0,38.398 -1.199,8.403 -1.204,13.199 -3.597,8.398 -2.403,13.204 -7.199,15.597 -3.597,8.403 -6,9.597 -13.204,18 -3.597,6 -4.801,6 -16.801,14.403 -7.199,7.199 -7.199,4.801 -8.403,4.796 -9.597,6 -7.199,4.801 -9.602,3.602 -9.602,3.597 -12,3.602 -7.199,2.398 -9.597,3.602 -7.204,1.199 -9.597,2.403 -15.602,1.199 -10.801,0" inkscape:connector-curvature="0" id="path16" style="stroke:#000000;stroke-width:8;stroke-miterlimit:4;stroke-dasharray:none;fill:none;stroke-opacity:1"/>
      <path d="m 1807.2,301.199 2.4,-99.597 -9.6,-152.4028 55.2,-34.8008 -338.4,0 L 1578,48 l -44.4,200.398 2.4,20.403 7.2,9.597 9.6,8.403 10.8,2.398 6,0 12,-2.398 9.6,-2.403 85.2,-109.199 1.2,38.403 6,37.199 4.8,20.398 3.6,19.199 2.4,18 0,12 -10.8,10.801 -8.4,8.403 -6,7.199 -1.2,9.597 2.4,8.403 7.2,13.199 12,13.199 14.4,18 12,24 13.2,18 2.4,16.801 0,12 -2.4,14.398 -7.2,8.403 -33.6,4.801 -7.2,16.796 -4.8,13.204 -6,8.398 7.2,9.602 8.4,10.796 6,13.204 1.2,6 70.8,-3.602 10.8,-4.801 1.2,-7.199 -4.8,-9.602 -4.8,-4.796 -6,-7.204 -2.4,-7.199 -8.4,-236.398 90,0 -9.6,266.398 -8.4,22.801 -14.4,19.199 -9.6,13.199 -10.8,3.602 -18,4.801 -14.4,1.199 -9.6,-2.398 -10.8,-3.602 -10.8,-2.398 -9.6,-7.204 -8.4,-8.398 -6,-13.199 -6,-12" inkscape:connector-curvature="0" id="path18" style="stroke:#000000;stroke-width:8;stroke-miterlimit:4;stroke-dasharray:none;fill:none;stroke-opacity:1"/>
      <path d="m 1702.8,555.602 24,-1.204 -7.2,6 -8.4,1.204 -7.2,-7.204" inkscape:connector-curvature="0" id="path20" style="stroke:#000000;stroke-width:8;stroke-miterlimit:4;stroke-dasharray:none;fill:none;stroke-opacity:1"/>
      <path d="m 1436.4,474 -326.4,0 4.8,27.602 3.6,18 7.2,18 9.6,14.398 8.4,12 10.8,15.602 13.2,10.796 14.4,10.801 12,8.403 18,8.398 19.2,6 12,2.398 21.6,2.403 16.8,0 15.6,-2.403 15.6,-2.398 18,-4.801 13.2,-4.801 16.8,-9.597 13.2,-10.801 13.2,-8.398 9.6,-14.403 12,-15.597 9.6,-14.403 7.2,-14.398 6,-20.403 3.6,-15.597 1.2,-16.801" inkscape:connector-curvature="0" id="path22" style="stroke:#000000;stroke-width:8;stroke-miterlimit:4;stroke-dasharray:none;fill:none;stroke-opacity:1"/>
      <path d="m 1170,291.602 -7.2,-8.403 -3.6,-10.801 -2.4,-12 0,-25.199 1.2,-15.597 2.4,-16.801 2.4,-12 4.8,-15.602 7.2,-19.199 6,-19.199 19.2,-31.199 9.6,-13.2036 14.4,-18 16.8,-14.3984 14.4,-9.6016 14.4,-10.7968 13.2,-4.8008 14.4,-4.8008 14.4,-2.3984 12,-2.4024 24,0 12,3.6016 10.8,4.8008 10.8,4.7968 10.8,6 10.8,8.4024 6,7.1992 7.2,9.6016 4.8,10.7968 6,12 1.2,9.6016 3.6,14.398 -2.4,12 -1.2,14.403 -3.6,12 -6,13.199 -7.2,14.398 -8.4,15.602 -12,13.199 -10.8,13.199 -13.2,12 -10.8,10.801 -15.6,9.602 -15.6,10.801 -20.4,12 -15.6,7.199 -18,6 -19.2,6 -16.8,3.597 -14.4,1.204 -12,0 -12,-1.204 -7.2,-1.199 -8.4,-1.199 -10.8,-8.398" inkscape:connector-curvature="0" id="path24" style="stroke:#000000;stroke-width:8;stroke-miterlimit:4;stroke-dasharray:none;fill:none;stroke-opacity:1"/>
      <path d="m 802.801,474 -3.602,-19.199 -16.801,-6 -15.597,-14.403 -4.801,-12 L 764.398,408 774,390 793.199,362.398 826.801,330 l 88.801,-56.398 48,-25.204 40.798,-18 24,-14.398 14.4,-9.602 32.4,-32.398 3.6,-2.398 0,16.796 -13.2,54 -19.2,82.801 -20.4,70.801 -22.8,57.602 -24.001,40.796 -18,25.204 -22.801,20.398 -16.796,8.398 -27.602,6 -20.398,-1.199 -21.602,-8.398 -52.801,-44.403 -22.801,-16.796 -12,-3.602 -10.796,2.398 -4.801,13.204 6,18 16.801,22.796 16.796,25.204 6,21.597 1.204,21.602 -7.204,14.398 -13.199,10.801 -16.801,6 -13.199,-2.398 -16.801,-6 -10.796,-7.204 -7.204,-4.796 -6,-8.403 -6,-14.398 3.602,-14.403 7.199,-6 4.801,-6 6,-6 1.199,-8.398 0,-12 -37.199,-67.199 -6,-21.602 0,-21.597 7.199,-20.403 L 698.398,396 750,362.398 l 9.602,-13.199 39.597,-50.398 12,-14.403 16.801,-15.597 44.398,-20.403 4.801,-2.398 7.199,-19.199 28.801,-44.403 6,-8.398 2.403,-12 13.199,-100.8008 -2.403,-10.8008 -2.398,-6 -8.398,-1.1992 L 872.398,39.6016 841.199,36 l -8.398,-4.8008 -1.199,-9.5976 7.199,-6" inkscape:connector-curvature="0" id="path26" style="stroke:#000000;stroke-width:8;stroke-miterlimit:4;stroke-dasharray:none;fill:none;stroke-opacity:1"/>
      <path d="m 838.801,34.8008 -12,-3.6016 -4.801,-6 -2.398,-9.5976 12,4.7968" inkscape:connector-curvature="0" id="path28" style="stroke:#000000;stroke-width:8;stroke-miterlimit:4;stroke-dasharray:none;fill:none;stroke-opacity:1"/>
      <path d="m 862.801,31.1992 -13.199,-2.3984 -4.801,-6 -1.199,-6 12,2.3984" inkscape:connector-curvature="0" id="path30" style="stroke:#000000;stroke-width:8;stroke-miterlimit:4;stroke-dasharray:none;fill:none;stroke-opacity:1"/>
      <path d="m 894,36 -24,-2.3984 -13.199,-6 0,-7.2032 7.199,-4.7968 14.398,1.1992 62.403,6 48,-7.1992 7.199,1.1992 0,8.3984 -2.398,7.1992 -33.602,8.4024 -3.602,3.5976 -8.398,95.9996 1.199,18 -4.801,13.204 -7.199,24 -4.801,49.199" inkscape:connector-curvature="0" id="path32" style="stroke:#000000;stroke-width:8;stroke-miterlimit:4;stroke-dasharray:none;fill:none;stroke-opacity:1"/>
      <path d="m 934.801,229.199 26.398,-6 36,-3.597 26.401,0" inkscape:connector-curvature="0" id="path34" style="stroke:#000000;stroke-width:8;stroke-miterlimit:4;stroke-dasharray:none;fill:none;stroke-opacity:1"/>
      <path d="m 996,28.8008 8.4,-1.1992 4.8,-4.8008 2.4,-6 -14.401,3.5976" inkscape:connector-curvature="0" id="path36" style="stroke:#000000;stroke-width:8;stroke-miterlimit:4;stroke-dasharray:none;fill:none;stroke-opacity:1"/>
      <path d="m 823.199,271.199 13.199,-88.801 -3.597,-12 L 768,51.6016 l -3.602,-6 -7.199,-1.2032 L 674.398,36 l -6,-2.3984 -1.199,-2.4024 -6,-2.3984 -6,-2.4024 -2.398,-6 -1.199,-6 12,8.4024 3.597,-6 9.602,0" inkscape:connector-curvature="0" id="path38" style="stroke:#000000;stroke-width:8;stroke-miterlimit:4;stroke-dasharray:none;fill:none;stroke-opacity:1"/>
      <path d="M 692.398,28.8008 681.602,26.3984 678,21.6016 l 2.398,-6 13.204,4.7968" inkscape:connector-curvature="0" id="path40" style="stroke:#000000;stroke-width:8;stroke-miterlimit:4;stroke-dasharray:none;fill:none;stroke-opacity:1"/>
      <path d="m 738,36 -33.602,-4.8008 -10.796,-2.3984 0,-8.4024 4.796,-4.7968 56.403,6 18,2.3984 31.199,-4.8008 14.398,-3.5976" inkscape:connector-curvature="0" id="path42" style="stroke:#000000;stroke-width:8;stroke-miterlimit:4;stroke-dasharray:none;fill:none;stroke-opacity:1"/>
      <path d="m 823.199,31.1992 -27.597,7.1992 -2.403,3.6016 0,7.1992 48,86.4028 7.199,8.398 7.204,14.398 L 858,171.602 884.398,228" inkscape:connector-curvature="0" id="path44" style="stroke:#000000;stroke-width:8;stroke-miterlimit:4;stroke-dasharray:none;fill:none;stroke-opacity:1"/>
      <path d="M 704.398,609.602 651.602,600 642,594 631.199,585.602 624,566.398 l 8.398,6 15.602,8.403 20.398,6 14.403,0 15.597,2.398" inkscape:connector-curvature="0" id="path46" style="stroke:#000000;stroke-width:8;stroke-miterlimit:4;stroke-dasharray:none;fill:none;stroke-opacity:1"/>
      <path d="m 627.602,567.602 20.398,3.597 22.801,1.199 16.801,-2.398 13.199,1.199 7.199,0" inkscape:connector-curvature="0" id="path48" style="stroke:#000000;stroke-width:8;stroke-miterlimit:4;stroke-dasharray:none;fill:none;stroke-opacity:1"/>
      <path d="m 729.602,604.801 3.597,-8.403 3.602,-2.398 4.801,0 4.796,4.801 0,6 -3.597,3.597 -3.602,1.204 -4.801,-1.204 -4.796,-4.796" inkscape:connector-curvature="0" id="path50" style="stroke:#000000;stroke-width:8;stroke-miterlimit:4;stroke-dasharray:none;fill:none;stroke-opacity:1"/>
      <path d="M 681.602,470.398 664.801,457.199 650.398,440.398 648,421.199 648,408 l 2.398,-20.398 -1.199,-16.801 -9.597,-16.801 -10.801,-4.801 -10.801,0 -8.398,4.801 -3.602,8.398 -2.398,13.204 1.199,15.597 7.199,19.199 4.801,14.403 12,20.398 16.801,15.602 18,7.199 9.597,2.398 8.403,1.204" inkscape:connector-curvature="0" id="path52" style="stroke:#000000;stroke-width:8;stroke-miterlimit:4;stroke-dasharray:none;fill:none;stroke-opacity:1"/>
    </g>
  </g>
</svg>
