<?xml version="1.0" encoding="UTF-8"?>
<!-- Created with Inkscape (http://www.inkscape.org/) -->
<svg xmlns:dc="http://purl.org/dc/elements/1.1/" xmlns:cc="http://creativecommons.org/ns#" xmlns:rdf="http://www.w3.org/1999/02/22-rdf-syntax-ns#" xmlns:svg="http://www.w3.org/2000/svg" xmlns="http://www.w3.org/2000/svg" xmlns:inkscape="http://www.inkscape.org/namespaces/inkscape" version="1.1" width="765" height="990" id="svg2" xml:space="preserve">
  <metadata id="metadata8">
    <rdf:RDF>
      <cc:Work rdf:about="">
        <dc:format>image/svg+xml</dc:format>
        <dc:type rdf:resource="http://purl.org/dc/dcmitype/StillImage"/>
      </cc:Work>
    </rdf:RDF>
  </metadata>
  <defs id="defs6"/>
  <g transform="matrix(1.25,0,0,-1.25,0,990)" id="g10">
    <g transform="scale(0.1,0.1)" id="g12">
      <path d="m 1017.6,1004.4 21.6,37.2 26.4,26.4 39.6,9.6 33.6,-6 22.8,-21.6 13.2,-18 8.4,-42 0,-490.801 -1168.8016,0 0,490.801 12,42 9.6016,18 22.8008,21.6 33.5976,6 43.2036,-9.6 26.398,-26.4 18,-33.6" inkscape:connector-curvature="0" id="path14" style="stroke:#000000;stroke-width:8;stroke-miterlimit:4;stroke-dasharray:none;fill:none;stroke-opacity:1"/>
      <path d="m 630,1452 -48,0 -18,-2.4 -32.398,-6 -21.602,-3.6 -18,-6 -18,-6 -25.199,-6 -20.403,-9.6 -21.597,-8.4 -18,-9.6 -18,-12 -18,-12 -18,-12 -15.602,-15.6 -32.398,-30 -13.199,-15.6 -12,-10.8 -20.403,-30 -18,-31.2 -9.597,-18 -6,-21.6 -12,-42 -9.602,-18 -2.398,-27.6 -3.602,-18 0,-84 3.602,-21.602 12,-42 6,-27.597 6,-14.403 12,-27.597 6,-18 18,-18 6,-15.602 15.597,-18 12,-15.597 14.403,-20.403 31.199,-27.597 21.597,-15.602 20.403,-14.398 12,-9.602 18,-12 18,-8.398 27.597,-9.602 18,-9.602 24,-4.796 L 498,642 518.398,636 540,632.398 564,630 l 45.602,0 20.398,2.398 7.199,-2.398 24,2.398 18,3.602 24,6 12,3.602 24,4.796 18,9.602 27.602,9.602 18,8.398 18,12 12,9.602 L 858,714 l 18,15.602 30,27.597 14.398,20.403 13.204,15.597 14.398,18 8.398,15.602 15.602,18 9.602,18 8.398,27.597 9.602,14.403 5.998,27.597 8.4,42 3.6,21.602 0,84 -3.6,18 -2.4,27.6 -6,18 -5.998,30 -15.602,33.6 -9.602,18 -10.796,21.6 -27.602,39.6 -9.602,10.8 -10.796,15.6 -37.204,30 -15.597,15.6 -14.403,12 -18,12 -21.597,12 -14.403,9.6 -25.199,8.4 -18,9.6 -26.398,6 -15.602,6 -21.597,6 -18,3.6 -18,6 -36,2.4 -21.602,0" inkscape:connector-curvature="0" id="path16" style="stroke:#000000;stroke-width:8;stroke-miterlimit:4;stroke-dasharray:none;fill:none;stroke-opacity:1"/>
      <path d="m 530.398,13.1992 -515.9996,0 6,44.4024 7.2032,28.7968 L 38.3984,114 54,135.602 67.1992,156 84,180 l 19.199,16.801 25.199,18 19.204,13.199 28.796,13.199 28.801,8.403 19.199,4.796 34.801,3.602 26.403,0 24,-3.602 26.398,-4.796 27.602,-6 L 384,236.398 410.398,219.602 432,204 l 19.199,-15.602 18,-21.597 16.801,-24 15.602,-24 10.796,-21.6018 8.403,-32.3984 7.199,-25.1992 2.398,-26.4024" inkscape:connector-curvature="0" id="path18" style="stroke:#000000;stroke-width:8;stroke-miterlimit:4;stroke-dasharray:none;fill:none;stroke-opacity:1"/>
      <path d="m 1183.2,406.801 -174,-393.6018 -87.598,0 173.998,393.6018 87.6,0" inkscape:connector-curvature="0" id="path20" style="stroke:#000000;stroke-width:8;stroke-miterlimit:4;stroke-dasharray:none;fill:none;stroke-opacity:1"/>
      <path d="M 919.199,406.801 744,13.1992 l -87.602,0 175.204,393.6018 87.597,0" inkscape:connector-curvature="0" id="path22" style="stroke:#000000;stroke-width:8;stroke-miterlimit:4;stroke-dasharray:none;fill:none;stroke-opacity:1"/>
      <path d="m 2058,775.199 7.2,-124.801 -9.6,-134.398 -38.4,-387.602 163.2,-111.5972 -907.2,0 190.8,90.0002 -105.6,405.597 -2.4,48 9.6,38.403 15.6,25.199 16.8,16.801 31.2,3.597 34.8,-7.199 45.6,-28.801 37.2,-34.796 153.6,-217.204 13.2,226.801 9.6,188.403 28.8,92.398 34.8,51.602 19.2,28.796 57.6,57.602 0,73.2 -25.2,19.2 -90,19.2 -31.2,-92.4 -25.2,12 50.4,84 6,73.2 -54,15.6 -2.4,15.6 28.8,36 18,25.2 9.6,36 182.4,-28.8 9.6,15.6 25.2,3.6 13.2,-19.2 0,-22.8 -6,-25.2 -19.2,-32.4 0,-431.998 175.2,0 -25.2,518.398 -19.2,64.8 -21.6,34.8 -36,31.2 -34.8,16.8 -45.6,12 -54,-2.4 -51.6,-13.2 -31.2,-22.8 -19.2,-21.6 -15.6,-22.8 -16.8,-28.8 -6,-22.8" inkscape:connector-curvature="0" id="path24" style="stroke:#000000;stroke-width:8;stroke-miterlimit:4;stroke-dasharray:none;fill:none;stroke-opacity:1"/>
      <path d="m 1777.2,1250.4 57.6,-6 -19.2,22.8 -12,3.6 -22.8,-15.6" inkscape:connector-curvature="0" id="path26" style="stroke:#000000;stroke-width:8;stroke-miterlimit:4;stroke-dasharray:none;fill:none;stroke-opacity:1"/>
      <path d="m 1428,645.602 0,482.398 -6,19.2 -9.6,6 -15.6,6 -7.2,7.2 -2.4,-19.2 -6,-26.4 -16.8,-25.2 -3.6,-25.2 -2.4,-36 -9.6,-12 -9.6,9.6 2.4,44.4 -8.4,51.6 2.4,28.8 13.2,31.2 21.6,32.4 13.2,28.8 9.6,31.2 -3.6,30 3.6,15.6 3.6,19.2 19.2,-19.2 6,-22.8 2.4,-15.6 3.6,-28.8 -15.6,-57.6 -19.2,-28.8 -3.6,-6" inkscape:connector-curvature="0" id="path28" style="stroke:#000000;stroke-width:8;stroke-miterlimit:4;stroke-dasharray:none;fill:none;stroke-opacity:1"/>
      <path d="m 1393.2,1172.4 6,-3.6 9.6,-2.4 13.2,-3.6 9.6,-12 9.6,-10.8 3.6,-15.6 0,-486.002" inkscape:connector-curvature="0" id="path30" style="stroke:#000000;stroke-width:8;stroke-miterlimit:4;stroke-dasharray:none;fill:none;stroke-opacity:1"/>
      <path d="m 1368,1162.8 -9.6,-28.8" inkscape:connector-curvature="0" id="path32" style="stroke:#000000;stroke-width:8;stroke-miterlimit:4;stroke-dasharray:none;fill:none;stroke-opacity:1"/>
    </g>
  </g>
</svg>
