<?xml version="1.0" encoding="UTF-8"?>
<!-- Created with Inkscape (http://www.inkscape.org/) -->
<svg xmlns:dc="http://purl.org/dc/elements/1.1/" xmlns:cc="http://creativecommons.org/ns#" xmlns:rdf="http://www.w3.org/1999/02/22-rdf-syntax-ns#" xmlns:svg="http://www.w3.org/2000/svg" xmlns="http://www.w3.org/2000/svg" xmlns:inkscape="http://www.inkscape.org/namespaces/inkscape" version="1.1" width="765" height="990" id="svg2" xml:space="preserve">
  <metadata id="metadata8">
    <rdf:RDF>
      <cc:Work rdf:about="">
        <dc:format>image/svg+xml</dc:format>
        <dc:type rdf:resource="http://purl.org/dc/dcmitype/StillImage"/>
      </cc:Work>
    </rdf:RDF>
  </metadata>
  <defs id="defs6"/>
  <g transform="matrix(1.25,0,0,-1.25,0,990)" id="g10">
    <g transform="scale(0.1,0.1)" id="g12">
      <path d="m 4296,682.801 459.6,0 0,-670.801 -459.6,0 0,670.801" inkscape:connector-curvature="0" id="path14" style="stroke:#000000;stroke-width:8;stroke-miterlimit:4;stroke-dasharray:none;fill:none;stroke-opacity:1"/>
      <path d="m 4296,12 459.602,0 0,670.801 -459.602,0 L 4296,12 z" inkscape:connector-curvature="0" id="path16" style="stroke:#000000;stroke-width:8;stroke-miterlimit:4;stroke-dasharray:none;fill:none;stroke-opacity:1"/>
      <path d="M 1088.4,262.801 1048.8,312 999.602,361.199 960,404.398 918,450 864,502.801 812.398,542.398 756,582 l 105.602,943.2 32.398,-9.6 36,-16.8 30,-22.8 30,-36 26.4,-43.2 13.2,-45.6 9.6,-39.6 9.6,-52.8 46.8,-1214.4016 -62.4,-3.5976 13.2,273.5972" inkscape:connector-curvature="0" id="path18" style="stroke:#000000;stroke-width:8;stroke-miterlimit:4;stroke-dasharray:none;fill:none;stroke-opacity:1"/>
      <path d="m 2872.8,480 9.6,-43.199 0,-25.199 6,-24 13.2,-22.801 16.8,-72 16.8,-103.199 7.2,-51.602 -7.2,-24 -22.8,-15.6016 -30,-16.7968 -72,-16.8008 -33.6,0 0,-30 154.8,0 33.6,16.8008 26.4,-16.8008 22.8,0 9.6,16.8008 0,26.3984 -13.2,33.602 -6,22.796 0,52.801 2.4,58.801 -6,60 -9.6,55.199 -10.8,50.403 -6,66 3.6,79.199 0,62.398 9.6,36 16.8,46.801 2.4,45.602 -6,43.199 -16.8,49.199 -16.8,60 -6,62.398 9.6,52.802 9.6,42 60,-160.802 2.4,-37.199 7.2,-32.398 7.2,-92.403 9.6,-58.796 6,-30 -19.2,-49.204 0,-60 13.2,3.602 6,43.199 13.2,2.403 10.8,-38.403 -7.2,-37.199 -3.6,-36 16.8,0 9.6,22.801 16.8,52.801 0,56.398 -16.8,36 7.2,49.199 13.2,92.403 -3.6,56.398 -13.2,60 -6,115.2 -24,79.2 -32.4,58.8 -26.4,30 -33.6,13.2 -28.8,3.6 -50.4,0 0,32.4 10.8,36 30,37.2 25.2,43.2 7.2,49.2 -7.2,38.4 -22.8,40.8 -28.8,26.4 -50.4,15.6 -42,0 -26.4,-6 -30,-20.4 -22.8,-36 -20.4,-36 -19.2,-33.6 -27.6,-28.8 0,-14.4 4.8,-6 36,-9.6 -3.6,-49.2 3.6,-13.2 13.2,-7.2 38.4,-3.6 13.2,-9.6 3.6,-45.6 -68.4,0 -40.8,-13.2 -28.8,-24 -39.6,-51.6 -26.4,-54 -26.4,-45.6 -22.8,-39.6 -92.4,30 -99.6,16.8 -19.2,32.4 -16.8,19.2 -58.8,13.2 0,-13.2 28.8,-6 30,-20.4 6,-19.2 4.8,-16.8 -16.8,-22.801 -20.4,-7.199 -26.4,3.602 -19.2,20.398 0,26.4 6,19.2 22.8,13.2" inkscape:connector-curvature="0" id="path20" style="stroke:#000000;stroke-width:8;stroke-miterlimit:4;stroke-dasharray:none;fill:none;stroke-opacity:1"/>
      <path d="m 2282.4,975.602 6,-3.602 49.2,6 86.4,-42 96,-39.602 36,-7.199 16.8,3.602 58.8,66 79.2,109.199 26.4,-75.602 16.8,-56.398 6,-82.801 -19.2,-82.801 -58.8,-190.796 -27.6,-79.204 -13.2,-36 -2.4,-36 -3.6,-37.199 -26.4,-88.801 -19.2,-134.398 -20.4,-30 -22.8,-20.398 -49.2,-26.4028 -46.8,-16.8008 -22.8,-6 -33.6,-6 0,-27.5976 139.2,0 43.2,16.8008 25.2,-16.8008 24,0 9.6,13.1992 9.6,33.6016 -3.6,62.3984 20.4,60 33.6,62.398 15.6,58.801 9.6,66 26.4,50.403 16.8,38.398" inkscape:connector-curvature="0" id="path22" style="stroke:#000000;stroke-width:8;stroke-miterlimit:4;stroke-dasharray:none;fill:none;stroke-opacity:1"/>
      <path d="M 2974.8,480 2652,480" inkscape:connector-curvature="0" id="path24" style="stroke:#000000;stroke-width:8;stroke-miterlimit:4;stroke-dasharray:none;fill:none;stroke-opacity:1"/>
      <path d="M 2971.2,879.602 2754,836.398" inkscape:connector-curvature="0" id="path26" style="stroke:#000000;stroke-width:8;stroke-miterlimit:4;stroke-dasharray:none;fill:none;stroke-opacity:1"/>
      <path d="m 2790,1374 -9.6,13.2 -16.8,3.6 -13.2,-6 19.2,-10.8 20.4,0" inkscape:connector-curvature="0" id="path28" style="stroke:#000000;stroke-width:8;stroke-miterlimit:4;stroke-dasharray:none;fill:none;stroke-opacity:1"/>
      <path d="m 2740.8,1430.4 124.8,-36 16.8,9.6 19.2,3.6 16.8,-9.6 0,-16.8 -6,-26.4 -16.8,-19.2 -3.6,-20.4 9.6,-16.8 20.4,-13.2 20.4,3.6" inkscape:connector-curvature="0" id="path30" style="stroke:#000000;stroke-width:8;stroke-miterlimit:4;stroke-dasharray:none;fill:none;stroke-opacity:1"/>
      <path d="m 2299.2,1057.2 66,409.2 -20.4,3.6 -62.4,-402" inkscape:connector-curvature="0" id="path32" style="stroke:#000000;stroke-width:8;stroke-miterlimit:4;stroke-dasharray:none;fill:none;stroke-opacity:1"/>
      <path d="m 2288.4,972 -132,-930 -15.6,3.6016 132,930.0004" inkscape:connector-curvature="0" id="path34" style="stroke:#000000;stroke-width:8;stroke-miterlimit:4;stroke-dasharray:none;fill:none;stroke-opacity:1"/>
      <path d="m 16.8008,1116 526.8012,0 0,-528 -526.8012,0 0,528" inkscape:connector-curvature="0" id="path36" style="stroke:#000000;stroke-width:8;stroke-miterlimit:4;stroke-dasharray:none;fill:none;stroke-opacity:1"/>
      <path d="m 1596,1387.2 -39.6,-20.4 -30,-36 -9.6,-30 -7.2,-30 10.8,-45.6 22.8,-30 22.8,-19.2 39.6,-13.2 30,-9.6 36,0 39.6,16.8 33.6,15.6 19.2,22.8 22.8,33.6 16.8,39.6 9.6,32.4 3.6,33.6 -3.6,22.8 -6,39.6 -16.8,33.6 -26.4,32.4 -26.4,22.8 -22.8,10.8 -22.8,9.6 -33.6,3.6 -26.4,2.4 -32.4,0 -40.8,-2.4 -42,-13.2 -36,-20.4 -22.8,-19.2 -26.4,-24 -20.4,-22.8 -20.4,-36 -19.2,-36 -6,-33.6 -7.2,-46.8 -3.6,-45.6 3.6,-36 3.6,-52.8 19.2,-52.8 30,-60 52.8,-68.401 82.8,-79.199 117.6,-96 258,-145.199" inkscape:connector-curvature="0" id="path38" style="stroke:#000000;stroke-width:8;stroke-miterlimit:4;stroke-dasharray:none;fill:none;stroke-opacity:1"/>
      <path d="M 1848,52.8008 1558.8,572.398" inkscape:connector-curvature="0" id="path40" style="stroke:#000000;stroke-width:8;stroke-miterlimit:4;stroke-dasharray:none;fill:none;stroke-opacity:1"/>
      <path d="m 3946.8,475.199 10.8,-43.199 0,-26.398 6,-22.801 13.2,-24 16.8,-72 16.8,-102 6,-54 -6,-22.801 -22.8,-15.6016 -30,-16.7968 -73.2,-16.8008 -32.4,0 0,-30 154.8,0 32.4,16.8008 27.6,-16.8008 21.6,0 10.8,16.8008 0,26.3984 -13.2,32.398 -6,24 0,52.801 2.4,58.801 -6,60 -9.6,55.199 -10.8,50.403 -6,66 2.4,79.199 0,62.398 10.8,36 16.8,45.602 2.4,46.801 -6,43.199 -16.8,49.199 -15.6,60 -7.2,62.398 9.6,52.802 9.6,43.2 60,-162.002 2.4,-36 7.2,-33.597 6,-92.403 10.8,-58.796 6,-30 -19.2,-50.403 0,-58.801 13.2,3.602 6,43.199 13.2,2.403 9.6,-39.602 -6,-36 -3.6,-36 16.8,0 9.6,22.801 16.8,52.801 0,56.398 -16.8,36 6,49.199 14.4,92.403 -3.6,56.398 -13.2,60 -6,115.2 -24,79.2 -32.4,58.8 -26.4,30 -33.6,13.2 -30,3.6 -49.2,0 0,32.4 10.8,36 28.8,37.2 26.4,42 7.2,49.2 -7.2,40.8 -22.8,39.6 -30,25.2 -49.2,16.8 -43.2,0 -26.4,-6 -28.8,-20.4 -22.8,-36 -20.4,-36 -20.4,-32.4 -26.4,-30 0,-13.2 3.6,-7.2 36,-9.6 -2.4,-49.2 2.4,-13.2 14.4,-7.2 38.4,-3.6 13.2,-9.6 3.6,-45.6 -69.6,0 -39.6,-14.4 -28.8,-22.8 -39.6,-52.8 -26.4,-51.6 -26.4,-46.8 -22.8,-39.6 -92.4,30 -99.6,15.6 -19.2,33.6 -16.8,20.4 -60,13.2 0,-13.2 30,-7.2 30,-20.4 7.2,-19.2 2.4,-16.8 -15.6,-22.801 -20.4,-6 -26.4,2.403 -20.4,20.398 0,26.4 7.2,19.2 22.8,13.2" inkscape:connector-curvature="0" id="path42" style="stroke:#000000;stroke-width:8;stroke-miterlimit:4;stroke-dasharray:none;fill:none;stroke-opacity:1"/>
      <path d="m 3357.6,969.602 6,-3.602 49.2,7.199 86.4,-43.199 94.8,-39.602 37.2,-7.199 16.8,3.602 58.8,66 L 3786,1062 3812.4,986.398 3828,930 l 7.2,-82.801 -19.2,-82.801 -60,-190.796 -26.4,-79.204 -13.2,-36 -2.4,-37.199 -3.6,-36 -26.4,-88.801 -20.4,-135.597 -19.2,-30 -22.8,-19.199 -49.2,-26.4028 -46.8,-16.8008 -22.8,-6 -33.6,-7.1992 0,-26.3984 139.2,0 42,16.8008 26.4,-16.8008 22.8,0 10.8,13.1992 9.6,33.6016 -3.6,62.3984 20.4,60 32.4,62.398 16.8,58.801 9.6,66 26.4,49.199 16.8,40.801" inkscape:connector-curvature="0" id="path44" style="stroke:#000000;stroke-width:8;stroke-miterlimit:4;stroke-dasharray:none;fill:none;stroke-opacity:1"/>
      <path d="m 4050,475.199 -322.8,0" inkscape:connector-curvature="0" id="path46" style="stroke:#000000;stroke-width:8;stroke-miterlimit:4;stroke-dasharray:none;fill:none;stroke-opacity:1"/>
      <path d="M 4046.4,873.602 3828,830.398" inkscape:connector-curvature="0" id="path48" style="stroke:#000000;stroke-width:8;stroke-miterlimit:4;stroke-dasharray:none;fill:none;stroke-opacity:1"/>
      <path d="m 3865.2,1368 -9.6,14.4 -16.8,2.4 -13.2,-7.2 20.4,-9.6 19.2,0" inkscape:connector-curvature="0" id="path50" style="stroke:#000000;stroke-width:8;stroke-miterlimit:4;stroke-dasharray:none;fill:none;stroke-opacity:1"/>
      <path d="m 3816,1424.4 124.8,-36 16.8,9.6 19.2,3.6 16.8,-10.8 0,-15.6 -6,-26.4 -16.8,-20.4 -3.6,-19.2 9.6,-16.8 20.4,-13.2 19.2,3.6" inkscape:connector-curvature="0" id="path52" style="stroke:#000000;stroke-width:8;stroke-miterlimit:4;stroke-dasharray:none;fill:none;stroke-opacity:1"/>
      <path d="m 3374.4,1052.4 64.8,408 -19.2,3.6 -62.4,-402" inkscape:connector-curvature="0" id="path54" style="stroke:#000000;stroke-width:8;stroke-miterlimit:4;stroke-dasharray:none;fill:none;stroke-opacity:1"/>
      <path d="m 3363.6,966 -130.8,-930 -18,3.6016 132,930.0004" inkscape:connector-curvature="0" id="path56" style="stroke:#000000;stroke-width:8;stroke-miterlimit:4;stroke-dasharray:none;fill:none;stroke-opacity:1"/>
      <path d="m 4452,619.199 0,-593.9998 105.6,0 0,593.9998 -105.6,0" inkscape:connector-curvature="0" id="path58" style="stroke:#000000;stroke-width:8;stroke-miterlimit:4;stroke-dasharray:none;fill:none;stroke-opacity:1"/>
      <path d="m 4980,619.199 0,-593.9998 109.2,0 0,593.9998 -109.2,0" inkscape:connector-curvature="0" id="path60" style="stroke:#000000;stroke-width:8;stroke-miterlimit:4;stroke-dasharray:none;fill:none;stroke-opacity:1"/>
      <path d="m 5514,619.199 0,-593.9998 105.6,0 0,593.9998 -105.6,0" inkscape:connector-curvature="0" id="path62" style="stroke:#000000;stroke-width:8;stroke-miterlimit:4;stroke-dasharray:none;fill:none;stroke-opacity:1"/>
      <path d="m 5574,1366.8 -10.8,-49.2 -108,22.8 -103.2,15.6 31.2,-27.6 36,-67.2 18,-67.2 7.2,-182.4 15.6,-157.202 24,-64.796 51.6,-66 -40.8,-25.204 -39.6,66 -27.6,49.204 -15.6,51.597 -10.8,135.601 -13.2,204 -16.8,45.6 -24,46.8 -22.8,27.6 -26.4,26.4 -43.2,15.6 -42,7.2 -212.4,3.6 -235.2,-10.8 -230.4,-26.4 -24,-2.4 -27.6,2.4 -13.2,20.4 7.2,38.4 51.6,80.4 22.8,28.8 16.8,0 2.4,-13.2 -36,-87.6 -2.4,-15.6 9.6,-8.4 64.8,10.8 121.2,15.6 187.2,15.6 187.2,4.8 186,-15.6 171.6,-27.6 111.6,-21.6" inkscape:connector-curvature="0" id="path64" style="stroke:#000000;stroke-width:8;stroke-miterlimit:4;stroke-dasharray:none;fill:none;stroke-opacity:1"/>
    </g>
  </g>
</svg>
