<?xml version="1.0" encoding="UTF-8"?>
<!-- Created with Inkscape (http://www.inkscape.org/) -->
<svg xmlns:dc="http://purl.org/dc/elements/1.1/" xmlns:cc="http://creativecommons.org/ns#" xmlns:rdf="http://www.w3.org/1999/02/22-rdf-syntax-ns#" xmlns:svg="http://www.w3.org/2000/svg" xmlns="http://www.w3.org/2000/svg" xmlns:inkscape="http://www.inkscape.org/namespaces/inkscape" version="1.1" width="765" height="990" id="svg2" xml:space="preserve">
  <metadata id="metadata8">
    <rdf:RDF>
      <cc:Work rdf:about="">
        <dc:format>image/svg+xml</dc:format>
        <dc:type rdf:resource="http://purl.org/dc/dcmitype/StillImage"/>
      </cc:Work>
    </rdf:RDF>
  </metadata>
  <defs id="defs6"/>
  <g transform="matrix(1.25,0,0,-1.25,0,990)" id="g10">
    <g transform="scale(0.1,0.1)" id="g12">
      <path d="m 474,464.398 186,0 -3.602,68.403 18,88.801 19.204,52.796 37.199,84 L 900,1057.2 l 9.602,64.8 3.597,31.2 -7.199,55.2 -8.398,37.2 -15.602,46.8 -27.602,43.2 -21.597,24 -56.403,52.8 -43.199,15.6 -88.801,9.6 L 570,1428 538.801,1414.8 501.602,1390.8 468,1353.6 452.398,1332 438,1314" inkscape:connector-curvature="0" id="path14" style="stroke:#000000;stroke-width:8;stroke-miterlimit:4;stroke-dasharray:none;fill:none;stroke-opacity:1"/>
      <path d="m 428.398,1310.4 -28.796,-12 L 98.3984,1239.6 69.6016,1218 48,1202.4 l -18,-33.6 -6,-49.2 2.3984,-13.2 9.6016,-6 6,0 15.6016,6 6,28.8 19.1992,27.6 27.5972,24 30,9.6 40.801,12 249.602,34.8 7.199,2.4 36,-6" inkscape:connector-curvature="0" id="path16" style="stroke:#000000;stroke-width:8;stroke-miterlimit:4;stroke-dasharray:none;fill:none;stroke-opacity:1"/>
      <path d="m 430.801,1310.4 43.199,-73.2 0,-40.8" inkscape:connector-curvature="0" id="path18" style="stroke:#000000;stroke-width:8;stroke-miterlimit:4;stroke-dasharray:none;fill:none;stroke-opacity:1"/>
      <path d="m 69.6016,1137.6 28.7968,18 45.6016,13.2 121.199,12 120,15.6 92.403,0 24,-3.6 50.398,-12 86.398,-15.6 45.602,-2.4 33.602,2.4 38.398,9.6 20.398,-12 9.602,-15.6 3.602,-37.2 -3.602,-31.2 -15.602,-37.2 -135.597,-178.799 -68.403,-108 -27.597,-55.199 -33.602,-64.801 -18,-84 L 474,464.398" inkscape:connector-curvature="0" id="path20" style="stroke:#000000;stroke-width:8;stroke-miterlimit:4;stroke-dasharray:none;fill:none;stroke-opacity:1"/>
      <path d="M 740.398,1424.4 900,1365.6 l 157.2,-39.6 64.8,-12 56.4,-3.6 68.4,0 73.2,3.6 55.2,12 56.4,12 6,-6 -6,-21.6 -21.6,-14.4 -74.4,-15.6 -74.4,-9.6 -82.8,0 -72,6 -120.002,21.6 -67.199,21.6" inkscape:connector-curvature="0" id="path22" style="stroke:#000000;stroke-width:8;stroke-miterlimit:4;stroke-dasharray:none;fill:none;stroke-opacity:1"/>
      <path d="m 832.801,1365.6 120,-64.8 119.999,-61.2 74.4,-37.2 55.2,-21.6 62.4,-15.6 43.2,-6 80.4,-9.6 33.6,6 15.6,3.6 12,-9.6 3.6,-18 -46.8,-15.6 -55.2,-6 -62.4,9.6 -86.4,18 -73.2,25.2 -72,33.6 -172.802,99.6" inkscape:connector-curvature="0" id="path24" style="stroke:#000000;stroke-width:8;stroke-miterlimit:4;stroke-dasharray:none;fill:none;stroke-opacity:1"/>
      <path d="m 573.602,1347.6 -19.204,-2.4 -15.597,-19.2 0,-21.6 15.597,-15.6 21.602,0 21.602,9.6 3.597,12 -6,19.2 -15.597,18" inkscape:connector-curvature="0" id="path26" style="stroke:#000000;stroke-width:8;stroke-miterlimit:4;stroke-dasharray:none;fill:none;stroke-opacity:1"/>
      <path d="m 1742.4,1449.6 0,-575.998 103.2,0 0,575.998 -103.2,0" inkscape:connector-curvature="0" id="path28" style="stroke:#000000;stroke-width:8;stroke-miterlimit:4;stroke-dasharray:none;fill:none;stroke-opacity:1"/>
      <path d="m 2253.6,1449.6 0,-575.998 105.6,0 0,575.998 -105.6,0" inkscape:connector-curvature="0" id="path30" style="stroke:#000000;stroke-width:8;stroke-miterlimit:4;stroke-dasharray:none;fill:none;stroke-opacity:1"/>
      <path d="m 2772,1449.6 0,-575.998 102,0 0,575.998 -102,0" inkscape:connector-curvature="0" id="path32" style="stroke:#000000;stroke-width:8;stroke-miterlimit:4;stroke-dasharray:none;fill:none;stroke-opacity:1"/>
      <path d="m 1230,380.398 34.8,-12 39.6,-25.199 43.2,-43.199 12,-49.199 6,-31.199 0,-49.204 -15.6,-52.796 -20.4,-46.8012 -28.8,-27.6016 -33.6,-18 L 1230,12 208.801,12 138,15.6016 97.1992,34.8008 67.1992,56.3984 36,102 l -15.6016,43.199 -6,40.801 6,45.602 9.6016,46.796 21.6016,37.204 33.5976,33.597 43.1988,25.199 31.204,6 1070.398,0 -27.6,-46.796 -21.6,-43.204 -9.6,-46.796 -2.4,-42 2.4,-46.801 12,-45.602 19.2,-46.8006 27.6,-43.1992 -46.8,24 -110.4,37.1992 -86.402,25.2036 -92.398,18 -84,21.597 -117.602,3.602 -55.199,0 -114,-13.199 L 434.398,115.199 360,96 254.398,58.8008 156,19.1992" inkscape:connector-curvature="0" id="path34" style="stroke:#000000;stroke-width:8;stroke-miterlimit:4;stroke-dasharray:none;fill:none;stroke-opacity:1"/>
      <path d="M 1224,380.398 1118.4,333.602 1023.6,300 949.199,280.801 866.398,260.398 760.801,253.199 690,247.199 570,256.801 470.398,272.398 384,294 l -76.801,21.602 -111.597,37.199 -43.204,21.597 28.801,-40.796 18,-43.204 9.602,-46.796 2.398,-42 -2.398,-46.801 -9.602,-45.602 -18,-46.8006 -28.801,-43.1992" inkscape:connector-curvature="0" id="path36" style="stroke:#000000;stroke-width:8;stroke-miterlimit:4;stroke-dasharray:none;fill:none;stroke-opacity:1"/>
    </g>
  </g>
</svg>
