<?xml version="1.0" encoding="UTF-8"?>
<!-- Created with Inkscape (http://www.inkscape.org/) -->
<svg xmlns:dc="http://purl.org/dc/elements/1.1/" xmlns:cc="http://creativecommons.org/ns#" xmlns:rdf="http://www.w3.org/1999/02/22-rdf-syntax-ns#" xmlns:svg="http://www.w3.org/2000/svg" xmlns="http://www.w3.org/2000/svg" xmlns:inkscape="http://www.inkscape.org/namespaces/inkscape" version="1.1" width="765" height="990" id="svg2" xml:space="preserve">
  <metadata id="metadata8">
    <rdf:RDF>
      <cc:Work rdf:about="">
        <dc:format>image/svg+xml</dc:format>
        <dc:type rdf:resource="http://purl.org/dc/dcmitype/StillImage"/>
      </cc:Work>
    </rdf:RDF>
  </metadata>
  <defs id="defs6"/>
  <g transform="matrix(1.25,0,0,-1.25,0,990)" id="g10">
    <g transform="scale(0.1,0.1)" id="g12">
      <path d="m 1519.2,1168.8 1328.4,0 0,333.6 -1328.4,0 0,-333.6" inkscape:connector-curvature="0" id="path14" style="stroke:#000000;stroke-width:8;stroke-miterlimit:4;stroke-dasharray:none;fill:none;stroke-opacity:1"/>
      <path d="m 1880.4,1502.4 200.4,-333.6" inkscape:connector-curvature="0" id="path16" style="stroke:#000000;stroke-width:8;stroke-miterlimit:4;stroke-dasharray:none;fill:none;stroke-opacity:1"/>
      <path d="m 2089.2,1502.4 198,-333.6" inkscape:connector-curvature="0" id="path18" style="stroke:#000000;stroke-width:8;stroke-miterlimit:4;stroke-dasharray:none;fill:none;stroke-opacity:1"/>
      <path d="M 2295.6,1502.4 2496,1168.8" inkscape:connector-curvature="0" id="path20" style="stroke:#000000;stroke-width:8;stroke-miterlimit:4;stroke-dasharray:none;fill:none;stroke-opacity:1"/>
      <path d="m 1454.4,814.801 25.2,21.597 39.6,14.403 69.6,31.199 78,24 88.8,25.199 130.8,30 111.6,12 88.8,12 99.6,6 91.2,-6 105.6,-6 103.2,-12 97.2,-21.597 85.2,-21.602 79.2,-24 78,-24 61.2,-25.199 24,-10.801 18,-21.602 3.6,-3.597 -21.6,-20.403 -57.6,-37.199 -112.8,-42 -109.2,-33.597 -121.2,-27.602 -91.2,-8.398 -97.2,-13.204 -127.2,-4.796 -81.6,4.796 -87.6,6 -79.2,7.204 -115.2,18 -127.2,30 -91.2,30 -85.2,36 -54,31.199 -19.2,24" inkscape:connector-curvature="0" id="path22" style="stroke:#000000;stroke-width:8;stroke-miterlimit:4;stroke-dasharray:none;fill:none;stroke-opacity:1"/>
      <path d="m 735.602,1106.4 -73.204,7.2 -115.199,-7.2 -85.199,10.8 -26.398,-10.8 -20.403,-26.4 7.199,-45.6 32.403,-105.599 62.398,-102 L 722.398,583.199 828,483.602 979.199,342 1302,25.1992 l 33.6,0 9.6,16.8008 -13.2,28.8008 -139.2,316.8012 -19.2,60 L 1068,702 972,866.398 896.398,972 840,1047.6 l -45.602,72 -49.199,66 -60,69.6 -58.801,39.6 -16.796,69.6 -13.204,75.6 -19.199,49.2 -56.398,13.2 -92.403,0 -102,-2.4 -49.199,-13.2 -24,-7.2 L 85.1992,1456.8 36,1434 19.1992,1410 16.8008,1364.4 36,1396.8 l 33.6016,16.8 98.3984,0 102,-3.6 52.801,-13.2 -43.199,52.8 -9.602,37.2" inkscape:connector-curvature="0" id="path24" style="stroke:#000000;stroke-width:8;stroke-miterlimit:4;stroke-dasharray:none;fill:none;stroke-opacity:1"/>
      <path d="m 379.199,1417.2 9.602,3.6 6,15.6 -6,16.8 -13.199,10.8 -13.204,-10.8 -3.597,-19.2 7.199,-10.8 9.602,-6" inkscape:connector-curvature="0" id="path26" style="stroke:#000000;stroke-width:8;stroke-miterlimit:4;stroke-dasharray:none;fill:none;stroke-opacity:1"/>
      <path d="m 32.3984,1383.6 131.9996,3.6 102,-13.2 30,-15.6 10.801,-33.6 2.403,-36 -30,-73.2 -13.204,-88.8 16.801,-109.2 13.199,-49.202 36,-98.398 43.204,-80.398 102,-174 L 613.199,358.801 626.398,259.199 609.602,91.1992 592.801,74.3984 498,64.8008 385.199,68.3984 379.199,51.6016 330,44.3984 322.801,34.8008 332.398,21.6016 616.801,32.3984 909.602,19.1992 922.801,32.3984 916.801,48 870,48 l -26.398,22.8008 -168,3.5976 -20.403,13.2032 20.403,207.5974 122.398,-62.398 68.398,204 L 999.602,108 1045.2,48 l 45.6,-26.3984 69.6,0 39.6,13.1992 9.6,20.3984 L 1177.2,144" inkscape:connector-curvature="0" id="path28" style="stroke:#000000;stroke-width:8;stroke-miterlimit:4;stroke-dasharray:none;fill:none;stroke-opacity:1"/>
      <path d="M 358.801,813.602 402,572.398 399.602,387.602 366,200.398 336,104.398 316.801,81.6016 158.398,70.8008 141.602,48 105.602,44.3984 92.3984,34.8008 105.602,21.6016 228,32.3984 264,28.8008" inkscape:connector-curvature="0" id="path30" style="stroke:#000000;stroke-width:8;stroke-miterlimit:4;stroke-dasharray:none;fill:none;stroke-opacity:1"/>
      <path d="m 382.801,68.3984 -56.403,-6 0,0 L 294,55.1992 273.602,28.8008 286.801,21.6016 307.199,42 l 19.199,2.3984" inkscape:connector-curvature="0" id="path32" style="stroke:#000000;stroke-width:8;stroke-miterlimit:4;stroke-dasharray:none;fill:none;stroke-opacity:1"/>
      <path d="M 379.199,70.8008 451.199,342 564,276 586.801,398.398" inkscape:connector-curvature="0" id="path34" style="stroke:#000000;stroke-width:8;stroke-miterlimit:4;stroke-dasharray:none;fill:none;stroke-opacity:1"/>
      <path d="m 147.602,68.3984 -51.602,-6 0,0 L 62.3984,55.1992 42,28.8008 52.8008,21.6016 75.6016,42 102,44.3984" inkscape:connector-curvature="0" id="path36" style="stroke:#000000;stroke-width:8;stroke-miterlimit:4;stroke-dasharray:none;fill:none;stroke-opacity:1"/>
      <path d="m 850.801,70.8008 62.398,-6 30,-9.6016 19.199,-26.3984 -9.597,-7.1992 L 930,42 913.199,44.3984" inkscape:connector-curvature="0" id="path38" style="stroke:#000000;stroke-width:8;stroke-miterlimit:4;stroke-dasharray:none;fill:none;stroke-opacity:1"/>
      <path d="m 1850.4,28.8008 -2.4,6 -7.2,7.1992 -24,13.1992 -18,15.6016 -15.6,18 -9.6,18.0002 -15.6,26.398 -7.2,36 2.4,40.801 4.8,39.602 7.2,44.398 3.6,43.199 -6,39.602 -7.2,25.199 -8.4,15.602 -9.6,13.199 -10.8,13.199 -9.6,9.602 -15.6,10.796 -10.8,8.403 -15.6,4.801 -18,4.796 -13.2,2.403 -18,0 -15.6,-2.403 -15.6,-4.796 -13.2,-8.403 -15.6,-9.597 -20.4,-24 -8.4,-15.602 -9.6,-22.801 -6,-20.398 -2.4,-28.801 0,-22.801 4.8,-28.801 6,-24 4.8,-20.398 20.4,-46.801 18,-26.398 21.6,-27.602 27.6,-28.801 31.2,-28.7964 34.8,-25.2032 L 1731.6,42 1771.2,28.8008 1794,24 l 20.4,-4.8008 20.4,0 13.2,2.4024 2.4,7.1992" inkscape:connector-curvature="0" id="path40" style="stroke:#000000;stroke-width:8;stroke-miterlimit:4;stroke-dasharray:none;fill:none;stroke-opacity:1"/>
      <path d="m 1966.8,484.801 0,-465.6018 82.8,0 0,465.6018 -82.8,0" inkscape:connector-curvature="0" id="path42" style="stroke:#000000;stroke-width:8;stroke-miterlimit:4;stroke-dasharray:none;fill:none;stroke-opacity:1"/>
      <path d="m 2382,484.801 0,-465.6018 85.2,0 0,465.6018 -85.2,0" inkscape:connector-curvature="0" id="path44" style="stroke:#000000;stroke-width:8;stroke-miterlimit:4;stroke-dasharray:none;fill:none;stroke-opacity:1"/>
      <path d="m 2800.8,484.801 0,-465.6018 84,0 0,465.6018 -84,0" inkscape:connector-curvature="0" id="path46" style="stroke:#000000;stroke-width:8;stroke-miterlimit:4;stroke-dasharray:none;fill:none;stroke-opacity:1"/>
    </g>
  </g>
</svg>
