<?xml version="1.0" encoding="UTF-8"?>
<!-- Created with Inkscape (http://www.inkscape.org/) -->
<svg xmlns:dc="http://purl.org/dc/elements/1.1/" xmlns:cc="http://creativecommons.org/ns#" xmlns:rdf="http://www.w3.org/1999/02/22-rdf-syntax-ns#" xmlns:svg="http://www.w3.org/2000/svg" xmlns="http://www.w3.org/2000/svg" xmlns:inkscape="http://www.inkscape.org/namespaces/inkscape" version="1.1" width="765" height="990" id="svg2" xml:space="preserve">
  <metadata id="metadata8">
    <rdf:RDF>
      <cc:Work rdf:about="">
        <dc:format>image/svg+xml</dc:format>
        <dc:type rdf:resource="http://purl.org/dc/dcmitype/StillImage"/>
      </cc:Work>
    </rdf:RDF>
  </metadata>
  <defs id="defs6"/>
  <g transform="matrix(1.25,0,0,-1.25,0,990)" id="g10">
    <g transform="scale(0.1,0.1)" id="g12">
      <path d="m 3351.6,704.398 30,-67.199 46.8,-63.597 105.6,-67.204 19.2,-19.199 6,-32.398 3.6,-204 -21.6,-25.199 -22.8,-32.403 -7.2,-34.801 32.4,8.403" inkscape:connector-curvature="0" id="path14" style="stroke:#000000;stroke-width:8;stroke-miterlimit:4;stroke-dasharray:none;fill:none;stroke-opacity:1"/>
      <path d="m 3537.6,214.801 57.6,0" inkscape:connector-curvature="0" id="path16" style="stroke:#000000;stroke-width:8;stroke-miterlimit:4;stroke-dasharray:none;fill:none;stroke-opacity:1"/>
      <path d="m 3562.8,208.801 -15.6,-48 40.8,0 10.8,54 28.8,13.199 8.4,19.199 -8.4,138 15.6,130.801 -3.6,28.801 -25.2,50.398 -9.6,51.602 31.2,178.801 -2.4,45.597 -38.4,48" inkscape:connector-curvature="0" id="path18" style="stroke:#000000;stroke-width:8;stroke-miterlimit:4;stroke-dasharray:none;fill:none;stroke-opacity:1"/>
      <path d="m 3639.6,819.602 0,-213.602 16.8,-93.602 60,-115.199 6,68.403 -12,66 -26.4,48 -15.6,80.398 -3.6,217.199 -19.2,45.602 -25.2,18 -73.2,26.398 -93.6,12 -102,0 -217.2,-38.398 -117.6,-6 -124.8,3.597 -243.6,67.202 -140.4,25.2" inkscape:connector-curvature="0" id="path20" style="stroke:#000000;stroke-width:8;stroke-miterlimit:4;stroke-dasharray:none;fill:none;stroke-opacity:1"/>
      <path d="m 2428.8,994.801 28.8,10.799 31.2,0 32.4,60 -32.4,3.6 -38.4,-9.6 -21.6,-28.8 -22.8,-9.6" inkscape:connector-curvature="0" id="path22" style="stroke:#000000;stroke-width:8;stroke-miterlimit:4;stroke-dasharray:none;fill:none;stroke-opacity:1"/>
      <path d="m 2444.4,1053.6 -9.6,2.4" inkscape:connector-curvature="0" id="path24" style="stroke:#000000;stroke-width:8;stroke-miterlimit:4;stroke-dasharray:none;fill:none;stroke-opacity:1"/>
      <path d="m 2421.6,1046.4 42,28.8 28.8,32.4 21.6,63.6 0,38.4 -6,61.2 -19.2,34.8 -2.4,-88.8 -16.8,-61.2 -38.4,-48 -63.6,-38.4 6,-22.8" inkscape:connector-curvature="0" id="path26" style="stroke:#000000;stroke-width:8;stroke-miterlimit:4;stroke-dasharray:none;fill:none;stroke-opacity:1"/>
      <path d="m 2386.8,1078.8 -22.8,6 -40.8,0 -28.8,-2.4 -16.8,-13.2 -12,-25.2 -19.2,-38.4 -51.6,-45.6 -38.4,-31.199 -34.8,-22.801 -9.6,-19.199 12,-32.403 36,-34.796 67.2,3.597" inkscape:connector-curvature="0" id="path28" style="stroke:#000000;stroke-width:8;stroke-miterlimit:4;stroke-dasharray:none;fill:none;stroke-opacity:1"/>
      <path d="m 2185.2,865.199 -28.8,0 13.2,-16.801" inkscape:connector-curvature="0" id="path30" style="stroke:#000000;stroke-width:8;stroke-miterlimit:4;stroke-dasharray:none;fill:none;stroke-opacity:1"/>
      <path d="m 2296.8,950.398 13.2,3.602 13.2,19.199 12,0 19.2,-28.801" inkscape:connector-curvature="0" id="path32" style="stroke:#000000;stroke-width:8;stroke-miterlimit:4;stroke-dasharray:none;fill:none;stroke-opacity:1"/>
      <path d="m 2344.8,957.602 -12,-9.602 -9.6,0 -13.2,12" inkscape:connector-curvature="0" id="path34" style="stroke:#000000;stroke-width:8;stroke-miterlimit:4;stroke-dasharray:none;fill:none;stroke-opacity:1"/>
      <path d="m 2284.8,1082.4 -36,15.6 -40.8,34.8 -19.2,38.4 -6,42 12,86.4 -25.2,-25.2 -22.8,-61.2 0,-64.8 36,-56.4 37.2,-28.8 45.6,-19.2" inkscape:connector-curvature="0" id="path36" style="stroke:#000000;stroke-width:8;stroke-miterlimit:4;stroke-dasharray:none;fill:none;stroke-opacity:1"/>
      <path d="m 2118,865.199 -2.4,-22.801 34.8,-42 38.4,-9.597 54,9.597 54,9.602 99.6,3.602 38.4,25.199 38.4,38.398" inkscape:connector-curvature="0" id="path38" style="stroke:#000000;stroke-width:8;stroke-miterlimit:4;stroke-dasharray:none;fill:none;stroke-opacity:1"/>
      <path d="m 2400,813.602 34.8,-82.801 31.2,-93.602 42,-66 63.6,-51.597 55.2,-25.204 79.2,-13.199" inkscape:connector-curvature="0" id="path40" style="stroke:#000000;stroke-width:8;stroke-miterlimit:4;stroke-dasharray:none;fill:none;stroke-opacity:1"/>
      <path d="m 2824.8,519.602 32.4,9.597 34.8,2.403 44.4,-9.602 42,-2.398 140.4,0 61.2,-13.204" inkscape:connector-curvature="0" id="path42" style="stroke:#000000;stroke-width:8;stroke-miterlimit:4;stroke-dasharray:none;fill:none;stroke-opacity:1"/>
      <path d="m 3166.8,490.801 34.8,15.597 42,15.602 115.2,28.801 102,7.199" inkscape:connector-curvature="0" id="path44" style="stroke:#000000;stroke-width:8;stroke-miterlimit:4;stroke-dasharray:none;fill:none;stroke-opacity:1"/>
      <path d="M 2590.8,759.602 2598,685.199 2626.8,606 2694,516 2706,494.398 2706,468 2694,289.199 2680.8,264 l -38.4,-64.801 -19.2,-44.398 32.4,12" inkscape:connector-curvature="0" id="path46" style="stroke:#000000;stroke-width:8;stroke-miterlimit:4;stroke-dasharray:none;fill:none;stroke-opacity:1"/>
      <path d="m 2646,202.801 63.6,-3.602" inkscape:connector-curvature="0" id="path48" style="stroke:#000000;stroke-width:8;stroke-miterlimit:4;stroke-dasharray:none;fill:none;stroke-opacity:1"/>
      <path d="m 2665.2,199.199 -9.6,-44.398 56.4,12 7.2,42 25.2,9.597 13.2,19.204 0,19.199 9.6,90 32.4,118.801 21.6,56.398 9.6,42 -19.2,51.602" inkscape:connector-curvature="0" id="path50" style="stroke:#000000;stroke-width:8;stroke-miterlimit:4;stroke-dasharray:none;fill:none;stroke-opacity:1"/>
      <path d="m 2559.6,531.602 -61.2,-204 -21.6,-44.403 -39.6,-48 -37.2,-48 -13.2,-28.801 28.8,12" inkscape:connector-curvature="0" id="path52" style="stroke:#000000;stroke-width:8;stroke-miterlimit:4;stroke-dasharray:none;fill:none;stroke-opacity:1"/>
      <path d="m 2421.6,214.801 57.6,-19.199" inkscape:connector-curvature="0" id="path54" style="stroke:#000000;stroke-width:8;stroke-miterlimit:4;stroke-dasharray:none;fill:none;stroke-opacity:1"/>
      <path d="m 2434.8,195.602 -22.8,-40.801 57.6,9.597 13.2,42 25.2,0 19.2,15.602 28.8,82.801 34.8,86.398 45.6,44.403 9.6,51.597" inkscape:connector-curvature="0" id="path56" style="stroke:#000000;stroke-width:8;stroke-miterlimit:4;stroke-dasharray:none;fill:none;stroke-opacity:1"/>
      <path d="m 3243.6,519.602 13.2,-28.801 -7.2,-25.199 -108,-224.403 -26.4,-22.801 -25.2,-22.796 -19.2,-37.204 28.8,6" inkscape:connector-curvature="0" id="path58" style="stroke:#000000;stroke-width:8;stroke-miterlimit:4;stroke-dasharray:none;fill:none;stroke-opacity:1"/>
      <path d="m 3099.6,195.602 63.6,10.796" inkscape:connector-curvature="0" id="path60" style="stroke:#000000;stroke-width:8;stroke-miterlimit:4;stroke-dasharray:none;fill:none;stroke-opacity:1"/>
      <path d="m 3111.6,189.602 -12,-34.801 63.6,9.597 3.6,44.403 32.4,16.801 85.2,156 49.2,48 6,25.199 25.2,57.597 32.4,38.403" inkscape:connector-curvature="0" id="path62" style="stroke:#000000;stroke-width:8;stroke-miterlimit:4;stroke-dasharray:none;fill:none;stroke-opacity:1"/>
      <path d="m 337.199,230.398 -38.398,49.204 -48,48 -38.403,40.796 -42,44.403 -50.398,51.597 -51.6016,38.403 -54,38.398 101.9996,914.401 32.403,-9.6 34.801,-15.6 28.796,-22.8 28.801,-34.8 25.199,-42 13.204,-44.4 9.597,-38.4 9.602,-51.6 44.398,-1176.0016 -60,-3.5976 12,265.1992" inkscape:connector-curvature="0" id="path64" style="stroke:#000000;stroke-width:8;stroke-miterlimit:4;stroke-dasharray:none;fill:none;stroke-opacity:1"/>
      <path d="m 493.199,1104 1400.401,0 0,351.6 -1400.401,0 0,-351.6" inkscape:connector-curvature="0" id="path66" style="stroke:#000000;stroke-width:8;stroke-miterlimit:4;stroke-dasharray:none;fill:none;stroke-opacity:1"/>
      <path d="M 873.602,1455.6 1084.8,1104" inkscape:connector-curvature="0" id="path68" style="stroke:#000000;stroke-width:8;stroke-miterlimit:4;stroke-dasharray:none;fill:none;stroke-opacity:1"/>
      <path d="M 1094.4,1455.6 1302,1104" inkscape:connector-curvature="0" id="path70" style="stroke:#000000;stroke-width:8;stroke-miterlimit:4;stroke-dasharray:none;fill:none;stroke-opacity:1"/>
      <path d="M 1311.6,1455.6 1522.8,1104" inkscape:connector-curvature="0" id="path72" style="stroke:#000000;stroke-width:8;stroke-miterlimit:4;stroke-dasharray:none;fill:none;stroke-opacity:1"/>
      <path d="m 1638,12 -754.801,0 9.602,63.6016 9.597,42.0004 15.602,40.796 22.801,32.403 19.199,28.801 25.199,34.796 28.801,26.403 34.8,25.199 28.8,19.199 42,19.199 42,13.204 28.8,6 50.4,6 38.4,0 36,-6 38.4,-6 40.8,-10.801 28.8,-9.602 38.4,-25.199 32.4,-22.801 28.8,-21.597 25.2,-32.403 25.2,-34.801 22.8,-34.796 15.6,-32.403 13.2,-47.9998 9.6,-34.8008 L 1638,12" inkscape:connector-curvature="0" id="path74" style="stroke:#000000;stroke-width:8;stroke-miterlimit:4;stroke-dasharray:none;fill:none;stroke-opacity:1"/>
    </g>
  </g>
</svg>
