<?xml version="1.0" encoding="UTF-8"?>
<!-- Created with Inkscape (http://www.inkscape.org/) -->
<svg xmlns:dc="http://purl.org/dc/elements/1.1/" xmlns:cc="http://creativecommons.org/ns#" xmlns:rdf="http://www.w3.org/1999/02/22-rdf-syntax-ns#" xmlns:svg="http://www.w3.org/2000/svg" xmlns="http://www.w3.org/2000/svg" xmlns:inkscape="http://www.inkscape.org/namespaces/inkscape" version="1.1" width="765" height="990" id="svg2" xml:space="preserve">
  <metadata id="metadata8">
    <rdf:RDF>
      <cc:Work rdf:about="">
        <dc:format>image/svg+xml</dc:format>
        <dc:type rdf:resource="http://purl.org/dc/dcmitype/StillImage"/>
      </cc:Work>
    </rdf:RDF>
  </metadata>
  <defs id="defs6"/>
  <g transform="matrix(1.25,0,0,-1.25,0,990)" id="g10">
    <g transform="scale(0.1,0.1)" id="g12">
      <path d="m 577.199,33.6016 -24,-15.6016 -18,-6 -9.597,0 -8.403,9.6016 -12,12 L 444,140.398 444,156 l 2.398,4.801 7.204,9.597 20.398,12 498,234 13.199,3.602 14.403,2.398 15.598,-6 15.6,-8.398 6,-9.602 6,-18 0,-13.199 -6,-14.398 -9.6,-12 -14.4,-15.602 L 577.199,33.6016" inkscape:connector-curvature="0" id="path14" style="stroke:#000000;stroke-width:8;stroke-miterlimit:4;stroke-dasharray:none;fill:none;stroke-opacity:1"/>
      <path d="m 454.801,589.199 181.199,0 -3.602,66 18,87.602 19.204,51.597 36,81.602 165.597,292.8 9.602,63.6 2.398,30 -6,55.2 -8.398,36 -15.602,45.6 -26.398,42 -21.602,24 -54,51.6 -43.199,15.6 -87.602,8.4 -72,-8.4 -30,-12 -37.199,-25.2 -32.398,-36 -15.602,-21.6 -15.597,-18" inkscape:connector-curvature="0" id="path16" style="stroke:#000000;stroke-width:8;stroke-miterlimit:4;stroke-dasharray:none;fill:none;stroke-opacity:1"/>
      <path d="m 409.199,1417.2 -27.597,-12 -295.2036,-57.6 -27.5976,-21.6 -20.4024,-14.4 -18,-33.6 -7.1992,-48 3.6016,-12 8.3984,-6 6,0 15.6016,6 6,26.4 18,27.6 27.5976,24 29.9996,9.6 39.602,12 244.801,33.6 4.801,2.4 37.199,-6" inkscape:connector-curvature="0" id="path18" style="stroke:#000000;stroke-width:8;stroke-miterlimit:4;stroke-dasharray:none;fill:none;stroke-opacity:1"/>
      <path d="m 412.801,1417.2 42,-73.2 0,-38.4" inkscape:connector-curvature="0" id="path20" style="stroke:#000000;stroke-width:8;stroke-miterlimit:4;stroke-dasharray:none;fill:none;stroke-opacity:1"/>
      <path d="m 58.8008,1248 27.5976,18 45.6016,12 116.398,12 118.801,15.6 90,0 24,-3.6 49.199,-12 84,-14.4 45.602,-3.6 33.602,3.6 36,8.4 21.597,-12 8.403,-14.4 3.597,-37.2 -3.597,-30 -15.602,-36 -132,-175.201 -66,-106.801 -27.602,-54 -33.597,-63.597 -18,-81.602 -12,-84" inkscape:connector-curvature="0" id="path22" style="stroke:#000000;stroke-width:8;stroke-miterlimit:4;stroke-dasharray:none;fill:none;stroke-opacity:1"/>
      <path d="m 714,1528.8 157.199,-57.6 154.801,-38.4 63.6,-13.2 54,-2.4 66,0 73.2,2.4 54,13.2 54,12 6,-7.2 -6,-20.4 -20.4,-15.6 -73.2,-14.4 -72,-9.6 -81.6,0 -69.6,6 -117.602,21.6 -67.199,21.6" inkscape:connector-curvature="0" id="path24" style="stroke:#000000;stroke-width:8;stroke-miterlimit:4;stroke-dasharray:none;fill:none;stroke-opacity:1"/>
      <path d="m 805.199,1471.2 117.602,-63.6 117.599,-60 73.2,-36 54,-21.6 60,-14.4 42,-7.2 79.2,-8.4 33.6,6 14.4,2.4 12,-8.4 3.6,-18 -45.6,-15.6 -54,-6 -61.2,9.6 -84,18 -73.2,24 -68.4,33.6 -169.199,96" inkscape:connector-curvature="0" id="path26" style="stroke:#000000;stroke-width:8;stroke-miterlimit:4;stroke-dasharray:none;fill:none;stroke-opacity:1"/>
      <path d="m 550.801,1453.2 -18,-2.4 -14.403,-18 0,-21.6 14.403,-15.6 21.597,0 21.602,9.6 2.398,12 -6,18 -15.597,18" inkscape:connector-curvature="0" id="path28" style="stroke:#000000;stroke-width:8;stroke-miterlimit:4;stroke-dasharray:none;fill:none;stroke-opacity:1"/>
    </g>
  </g>
</svg>
