<?xml version="1.0" encoding="UTF-8"?>
<!-- Created with Inkscape (http://www.inkscape.org/) -->
<svg xmlns:dc="http://purl.org/dc/elements/1.1/" xmlns:cc="http://creativecommons.org/ns#" xmlns:rdf="http://www.w3.org/1999/02/22-rdf-syntax-ns#" xmlns:svg="http://www.w3.org/2000/svg" xmlns="http://www.w3.org/2000/svg" xmlns:inkscape="http://www.inkscape.org/namespaces/inkscape" version="1.1" width="765" height="990" id="svg2" xml:space="preserve">
  <metadata id="metadata8">
    <rdf:RDF>
      <cc:Work rdf:about="">
        <dc:format>image/svg+xml</dc:format>
        <dc:type rdf:resource="http://purl.org/dc/dcmitype/StillImage"/>
      </cc:Work>
    </rdf:RDF>
  </metadata>
  <defs id="defs6"/>
  <g transform="matrix(1.25,0,0,-1.25,0,990)" id="g10">
    <g transform="scale(0.1,0.1)" id="g12">
      <path d="M 543.602,1126.8 504,1083.6 l -13.199,-52.8 9.597,-52.8 24,-39.602 62.403,-58.796 L 696,819.602 883.199,751.199 1107.6,704.398 1332,678 l 72,-6 46.8,-3.602 22.8,7.204 13.2,13.199 0,15.597 -16.8,13.204 -88.8,16.796 -56.4,26.403 -33.6,22.801 -78,66 -118.8,109.199 -118.798,92.399 -109.204,58.8 -105.597,43.2 -78,22.8 -69.602,3.6 -58.801,-13.2 -46.796,-22.8 -33.602,-20.4 -15.602,-16.8 -22.796,-2.4 -27.602,6 -2.398,24 128.398,105.6 26.398,28.8 16.801,36 2.403,33.6 -2.403,28.8" inkscape:connector-curvature="0" id="path14" style="stroke:#000000;stroke-width:8;stroke-miterlimit:4;stroke-dasharray:none;fill:none;stroke-opacity:1"/>
      <path d="m 547.199,1390.8 135.602,-62.4 141.597,-52.8 124.801,-26.4 132.001,-9.6 98.4,-3.6 73.2,9.6 -103.2,15.6 -114,10.8 -129.6,19.2 -92.398,26.4 -111.602,40.8 -85.199,36 -52.801,36 177.602,-69.6 111.597,-19.2 60,-10.8 124.801,-9.6 115.2,7.2 69.6,6 55.2,3.6 -121.2,9.6 -105.6,10.8 -102.001,2.4 -88.801,13.2 -109.199,22.8 -98.398,30 -66,30 -45.602,30 -37.199,13.2 -32.398,2.4 -72,-9.6 -56.403,-20.4 -24,-15.6 -12,-22.8 -4.801,-7.2 0,-26.4 16.801,-26.4 20.403,-7.2 19.199,-6 36,-9.6 40.801,0 22.796,9.6 19.204,3.6 9.597,-16.8 3.602,-30 -36,-42 -60,-43.2 -55.199,-52.8 -26.403,-36 -19.199,-30 -10.801,-52.8 6,-30 L 330,972 432,859.199 494.398,804 l 72,-52.801 L 672,704.398 734.398,612 l 67.204,-75.602 42,-45.597 13.199,-30 L 876,246 876,108 870,85.1992 847.199,78 705.602,57.6016 696,55.1992 675.602,51.6016 666,38.3984 l 0,-19.1992 19.199,9.6016 24,-7.1992" inkscape:connector-curvature="0" id="path16" style="stroke:#000000;stroke-width:8;stroke-miterlimit:4;stroke-dasharray:none;fill:none;stroke-opacity:1"/>
      <path d="m 804,57.6016 -82.801,-13.2032 -12,-9.5976 2.403,-15.6016 26.398,13.1992 20.398,-13.1992 130.801,15.6016 103.199,-15.6016 2.403,15.6016 -6,16.8008 -26.403,6 -30,10.7968 -9.597,2.4024 -9.602,20.3984 -3.597,339.6018 7.199,39.597 0,13.204 -22.801,43.199 -24,39.597 -75.602,122.403" inkscape:connector-curvature="0" id="path18" style="stroke:#000000;stroke-width:8;stroke-miterlimit:4;stroke-dasharray:none;fill:none;stroke-opacity:1"/>
      <path d="m 824.398,651.602 118.801,-13.204 98.401,3.602 124.8,13.199 62.4,-56.398 76.8,-69.602 36,-2.398 36,9.597 39.6,33.602 7.2,26.398 -79.2,81.602" inkscape:connector-curvature="0" id="path20" style="stroke:#000000;stroke-width:8;stroke-miterlimit:4;stroke-dasharray:none;fill:none;stroke-opacity:1"/>
      <path d="M 302.398,1430.4 16.8008,1255.2 345.602,1364.4" inkscape:connector-curvature="0" id="path22" style="stroke:#000000;stroke-width:8;stroke-miterlimit:4;stroke-dasharray:none;fill:none;stroke-opacity:1"/>
      <path d="M 307.199,1383.6 16.8008,1255.2" inkscape:connector-curvature="0" id="path24" style="stroke:#000000;stroke-width:8;stroke-miterlimit:4;stroke-dasharray:none;fill:none;stroke-opacity:1"/>
      <path d="m 369.602,1436.4 -16.801,-9.6 9.597,-16.8 16.801,7.2 -7.199,13.2" inkscape:connector-curvature="0" id="path26" style="stroke:#000000;stroke-width:8;stroke-miterlimit:4;stroke-dasharray:none;fill:none;stroke-opacity:1"/>
      <path d="m 1002,48 26.4,-6 13.2,-9.6016 2.4,-7.1992 -15.6,-6 -22.8,2.4024" inkscape:connector-curvature="0" id="path28" style="stroke:#000000;stroke-width:8;stroke-miterlimit:4;stroke-dasharray:none;fill:none;stroke-opacity:1"/>
      <path d="M 507.602,789.602 577.199,658.801 655.199,540 662.398,510 448.801,124.801 438,108 l -9.602,-16.8008 -22.796,-6 L 326.398,70.8008 273.602,62.3984 253.199,51.6016 240,48 l -19.199,-3.6016 -6,-6 -7.199,-16.7968 19.199,10.7968 24,-10.7968" inkscape:connector-curvature="0" id="path30" style="stroke:#000000;stroke-width:8;stroke-miterlimit:4;stroke-dasharray:none;fill:none;stroke-opacity:1"/>
      <path d="m 286.801,42 -13.199,0 -16.801,-3.6016 -6,-13.1992 6,-3.5976 20.398,7.1992" inkscape:connector-curvature="0" id="path32" style="stroke:#000000;stroke-width:8;stroke-miterlimit:4;stroke-dasharray:none;fill:none;stroke-opacity:1"/>
      <path d="m 289.199,44.3984 24,7.2032 52.801,3.5976" inkscape:connector-curvature="0" id="path34" style="stroke:#000000;stroke-width:8;stroke-miterlimit:4;stroke-dasharray:none;fill:none;stroke-opacity:1"/>
      <path d="m 279.602,28.8008 27.597,-9.6016 121.199,13.1992 20.403,2.4024 98.398,-15.6016 2.403,15.6016 -2.403,16.8008 -30,6 -39.597,13.1992" inkscape:connector-curvature="0" id="path36" style="stroke:#000000;stroke-width:8;stroke-miterlimit:4;stroke-dasharray:none;fill:none;stroke-opacity:1"/>
      <path d="m 474,74.3984 -2.398,16.8008 204,339.6018 49.199,88.801 0,30 -36,126" inkscape:connector-curvature="0" id="path38" style="stroke:#000000;stroke-width:8;stroke-miterlimit:4;stroke-dasharray:none;fill:none;stroke-opacity:1"/>
      <path d="m 556.801,48 22.801,-6 13.199,-9.6016 3.597,-7.1992 -16.796,-6 -22.801,2.4024" inkscape:connector-curvature="0" id="path40" style="stroke:#000000;stroke-width:8;stroke-miterlimit:4;stroke-dasharray:none;fill:none;stroke-opacity:1"/>
      <path d="m 1858.8,48 -26.4,-16.8008 -19.2,-6 -9.6,0 -9.6,9.6016 -13.2,13.1992 -66,115.199 0,16.801 2.4,6 7.2,9.602 22.8,13.199 541.2,254.398 13.2,3.602 15.6,2.398 16.8,-6 16.8,-9.597 6,-9.602 7.2,-20.398 0,-13.204 -7.2,-16.796 -9.6,-12 -16.8,-16.801 L 1858.8,48" inkscape:connector-curvature="0" id="path42" style="stroke:#000000;stroke-width:8;stroke-miterlimit:4;stroke-dasharray:none;fill:none;stroke-opacity:1"/>
      <path d="m 1914,1483.2 0,-594.001 132,0 0,594.001 -132,0" inkscape:connector-curvature="0" id="path44" style="stroke:#000000;stroke-width:8;stroke-miterlimit:4;stroke-dasharray:none;fill:none;stroke-opacity:1"/>
    </g>
  </g>
</svg>
