<?xml version="1.0" encoding="UTF-8"?>
<!-- Created with Inkscape (http://www.inkscape.org/) -->
<svg xmlns:dc="http://purl.org/dc/elements/1.1/" xmlns:cc="http://creativecommons.org/ns#" xmlns:rdf="http://www.w3.org/1999/02/22-rdf-syntax-ns#" xmlns:svg="http://www.w3.org/2000/svg" xmlns="http://www.w3.org/2000/svg" xmlns:inkscape="http://www.inkscape.org/namespaces/inkscape" version="1.1" width="765" height="990" id="svg2" xml:space="preserve">
  <metadata id="metadata8">
    <rdf:RDF>
      <cc:Work rdf:about="">
        <dc:format>image/svg+xml</dc:format>
        <dc:type rdf:resource="http://purl.org/dc/dcmitype/StillImage"/>
      </cc:Work>
    </rdf:RDF>
  </metadata>
  <defs id="defs6"/>
  <g transform="matrix(1.25,0,0,-1.25,0,990)" id="g10">
    <g transform="scale(0.1,0.1)" id="g12">
      <path d="m 2601.6,427.199 -777.6,0 9.6,66 10.8,43.199 15.6,42 24,33.602 19.2,30 26.4,36 30,26.398 36,26.403 30,19.199 43.2,20.398 42,13.204 30,6 52.8,7.199 39.6,0 36,-7.199 39.6,-6 43.2,-10.801 28.8,-9.602 39.6,-26.398 33.6,-22.801 28.8,-22.801 26.4,-33.597 27.6,-36 22.8,-36 15.6,-33.602 13.2,-49.199 10.8,-36 2.4,-39.602" inkscape:connector-curvature="0" id="path14" style="stroke:#000000;stroke-width:8;stroke-miterlimit:4;stroke-dasharray:none;fill:none;stroke-opacity:1"/>
      <path d="M 319.199,150 456,114 l 102,-12 124.801,0 183.597,24 214.802,54 88.8,16.801 91.2,-4.801 81.6,-12 70.8,-30 70.8,-48 -36,86.398 -58.8,74.403 50.4,54 60,103.199 -98.4,-44.398 -56.4,-18 -84,-12 -246,30 -195.598,42 -231.602,30 -202.801,0 -145.199,-30 -72,-30 L 117.602,352.801 81.6016,313.199 52.8008,274.801 79.1992,246 64.8008,236.398 117.602,204 l 130.796,-36 24,0 20.403,6 44.398,46.801 9.602,36 2.398,36" inkscape:connector-curvature="0" id="path16" style="stroke:#000000;stroke-width:8;stroke-miterlimit:4;stroke-dasharray:none;fill:none;stroke-opacity:1"/>
      <path d="M 393.602,290.398 385.199,232.801 361.199,192 316.801,153.602 266.398,162" inkscape:connector-curvature="0" id="path18" style="stroke:#000000;stroke-width:8;stroke-miterlimit:4;stroke-dasharray:none;fill:none;stroke-opacity:1"/>
      <path d="m 64.8008,274.801 22.8008,-8.403 9.5976,-15.597 -3.5976,-12 -12,-12" inkscape:connector-curvature="0" id="path20" style="stroke:#000000;stroke-width:8;stroke-miterlimit:4;stroke-dasharray:none;fill:none;stroke-opacity:1"/>
      <path d="m 87.6016,286.801 18.0004,-12 9.597,-24 2.403,-18 L 99.6016,216" inkscape:connector-curvature="0" id="path22" style="stroke:#000000;stroke-width:8;stroke-miterlimit:4;stroke-dasharray:none;fill:none;stroke-opacity:1"/>
      <path d="m 242.398,298.801 12,6 6,18 -12,20.398 -18,-9.597 0,-22.801 9.602,-9.602" inkscape:connector-curvature="0" id="path24" style="stroke:#000000;stroke-width:8;stroke-miterlimit:4;stroke-dasharray:none;fill:none;stroke-opacity:1"/>
      <path d="m 435.602,280.801 -2.403,-32.403 -12,-27.597 80.403,-12 79.199,0 57.597,18 14.403,12 -39.602,24 -67.199,18 -60,6 -52.801,-3.602" inkscape:connector-curvature="0" id="path26" style="stroke:#000000;stroke-width:8;stroke-miterlimit:4;stroke-dasharray:none;fill:none;stroke-opacity:1"/>
      <path d="M 385.199,447.602 486,506.398 l 42,24 145.199,6 L 902.398,510 1006.8,482.398 l 8.4,-12 -36.001,-82.796" inkscape:connector-curvature="0" id="path28" style="stroke:#000000;stroke-width:8;stroke-miterlimit:4;stroke-dasharray:none;fill:none;stroke-opacity:1"/>
      <path d="M 399.602,129.602 439.199,84 492,49.1992 l 66,-30 22.801,0 12,12 -38.403,68.4024" inkscape:connector-curvature="0" id="path30" style="stroke:#000000;stroke-width:8;stroke-miterlimit:4;stroke-dasharray:none;fill:none;stroke-opacity:1"/>
      <path d="m 870,126 74.398,-24 100.802,-18 62.4,6 -21.6,84" inkscape:connector-curvature="0" id="path32" style="stroke:#000000;stroke-width:8;stroke-miterlimit:4;stroke-dasharray:none;fill:none;stroke-opacity:1"/>
      <path d="m 1312.8,352.801 18,-48 2.4,-48 -9.6,-36 -16.8,-38.403" inkscape:connector-curvature="0" id="path34" style="stroke:#000000;stroke-width:8;stroke-miterlimit:4;stroke-dasharray:none;fill:none;stroke-opacity:1"/>
      <path d="m 1317.6,751.199 54,14.403 36,30 38.4,48 14.4,46.796 0,36 2.4,54 -14.4,52.802 -20.4,54 -27.6,30 -28.8,16.8 -78,12 -1107.6,0 -76.801,-12 -29.9998,-16.8 -27.5976,-30 -24,-54 -10.8008,-52.802 2.3984,-54 3.6016,-36 12,-46.796 38.3984,-48 38.4028,-30 48,-14.403 1157.998,0" inkscape:connector-curvature="0" id="path36" style="stroke:#000000;stroke-width:8;stroke-miterlimit:4;stroke-dasharray:none;fill:none;stroke-opacity:1"/>
      <path d="m 2786.4,930 -16.8,-19.199 -9.6,-27.602 -7.2,-25.199 0,-62.398 3.6,-37.204 7.2,-39.597 6,-28.801 9.6,-37.199 16.8,-45.602 16.8,-46.801 43.2,-72 25.2,-33.597 33.6,-42 39.6,-33.602 36,-26.398 32.4,-22.801 33.6,-13.199 33.6,-9.602 32.4,-7.199 30,-6 58.8,0 26.4,9.602 26.4,9.597 26.4,13.199 26.4,13.204 22.8,20.398 16.8,19.199 16.8,20.403 9.6,25.199 16.8,30 2.4,24 7.2,32.398 -3.6,30 -3.6,32.403 -9.6,30 -13.2,32.398 -15.6,33.602 -24,36 -26.4,33.597 -26.4,30 -28.8,28.801 -30,26.398 -37.2,22.801 -36,27.602 -49.2,26.398 -36,19.199 -43.2,13.204 -45.6,13.199 -39.6,9.597 -36,3.602 -26.4,0 -30,-3.602 -16.8,-3.597 -19.2,-2.403 L 2786.4,930" inkscape:connector-curvature="0" id="path38" style="stroke:#000000;stroke-width:8;stroke-miterlimit:4;stroke-dasharray:none;fill:none;stroke-opacity:1"/>
    </g>
  </g>
</svg>
