<?xml version="1.0" encoding="UTF-8"?>
<!-- Created with Inkscape (http://www.inkscape.org/) -->
<svg xmlns:dc="http://purl.org/dc/elements/1.1/" xmlns:cc="http://creativecommons.org/ns#" xmlns:rdf="http://www.w3.org/1999/02/22-rdf-syntax-ns#" xmlns:svg="http://www.w3.org/2000/svg" xmlns="http://www.w3.org/2000/svg" xmlns:inkscape="http://www.inkscape.org/namespaces/inkscape" version="1.1" width="765" height="990" id="svg2" xml:space="preserve">
  <metadata id="metadata8">
    <rdf:RDF>
      <cc:Work rdf:about="">
        <dc:format>image/svg+xml</dc:format>
        <dc:type rdf:resource="http://purl.org/dc/dcmitype/StillImage"/>
      </cc:Work>
    </rdf:RDF>
  </metadata>
  <defs id="defs6"/>
  <g transform="matrix(1.25,0,0,-1.25,0,990)" id="g10">
    <g transform="scale(0.1,0.1)" id="g12">
      <path d="m 294,960 718.8,0 0,-27.602 28.8,-6 45.6,-13.199 30,-19.199 40.8,-28.801 36,-37.199 32.4,-45.602 24,-44.398 21.6,-57.602 13.2,-56.398 7.2,-94.801 -7.2,-49.199 -21.6,-57.602 -25.2,-26.398 -21.6,-4.801 -33.6,2.403 -25.2,21.597 -12,26.403 -4.8,27.597 -2.4,21.602 7.2,73.199 9.6,81.602 -7.2,82.796 -21.6,58.801 -31.2,46.801 -30,36 -36,14.398 -16.8,0 0,-26.398 -93.601,0 0,-49.199 -140.398,0 0,49.199 -255.602,0 0,-49.199 -134.398,0 0,49.199 -94.801,0" inkscape:connector-curvature="0" id="path14" style="stroke:#000000;stroke-width:8;stroke-miterlimit:4;stroke-dasharray:none;fill:none;stroke-opacity:1"/>
      <path d="m 336,960 92.398,453.6 16.801,27.6 12,9.6 14.403,4.8 20.398,0 21.602,-12 4.796,-14.4 0,-15.6" inkscape:connector-curvature="0" id="path16" style="stroke:#000000;stroke-width:8;stroke-miterlimit:4;stroke-dasharray:none;fill:none;stroke-opacity:1"/>
      <path d="m 426,960 94.801,456 12,20.4 12,12 21.597,4.8 20.403,-7.2 12,-9.6 L 606,1422" inkscape:connector-curvature="0" id="path18" style="stroke:#000000;stroke-width:8;stroke-miterlimit:4;stroke-dasharray:none;fill:none;stroke-opacity:1"/>
      <path d="m 511.199,960 92.403,453.6 9.597,20.4 16.801,14.4 18,2.4 21.602,-2.4 16.796,-14.4 4.801,-18" inkscape:connector-curvature="0" id="path20" style="stroke:#000000;stroke-width:8;stroke-miterlimit:4;stroke-dasharray:none;fill:none;stroke-opacity:1"/>
      <path d="m 596.398,960 92.403,447.6 14.398,26.4 16.801,14.4 28.801,2.4 8.398,-2.4 14.403,-9.6 7.199,-22.8" inkscape:connector-curvature="0" id="path22" style="stroke:#000000;stroke-width:8;stroke-miterlimit:4;stroke-dasharray:none;fill:none;stroke-opacity:1"/>
      <path d="m 686.398,960 90,445.2 9.602,24 9.602,14.4 21.597,9.6 25.199,-4.8 19.204,-12 7.199,-16.8" inkscape:connector-curvature="0" id="path24" style="stroke:#000000;stroke-width:8;stroke-miterlimit:4;stroke-dasharray:none;fill:none;stroke-opacity:1"/>
      <path d="m 778.801,960 85.199,444 7.199,22.8 14.403,19.2 22.796,4.8 4.801,2.4 21.602,-9.6 14.398,-14.4 0,-13.2" inkscape:connector-curvature="0" id="path26" style="stroke:#000000;stroke-width:8;stroke-miterlimit:4;stroke-dasharray:none;fill:none;stroke-opacity:1"/>
      <path d="m 859.199,960 90,457.2 9.602,19.2 12,12 14.398,2.4 20.401,0 19.2,-7.2 9.6,-14.4 4.8,-24 L 946.801,960 294,960 294,928.801 260.398,925.199 216,910.801 182.398,891.602 144,860.398 109.199,823.199 54,730.801 38.3984,675.602 21.6016,619.199 14.3984,524.398 21.6016,474 l 24,-54 25.1992,-26.398 19.1992,-4.801 33.602,2.398 27.597,21.602 9.602,26.398 4.801,28.801 2.398,20.398 -7.199,73.204 -12,80.398 7.199,81.602 19.199,58.796 31.199,50.403 30,34.801 L 270,882 l 24,2.398 0,-21.597" inkscape:connector-curvature="0" id="path28" style="stroke:#000000;stroke-width:8;stroke-miterlimit:4;stroke-dasharray:none;fill:none;stroke-opacity:1"/>
      <path d="M 638.398,556.801 609.602,542.398 589.199,516 582,494.398 l -4.801,-21.597 6,-32.403 16.801,-21.597 16.801,-14.403 28.801,-9.597 21.597,-7.199 25.199,0 28.801,12 24,12 14.403,16.796 16.796,24 10.801,27.602 7.199,24 2.403,24 -2.403,16.801 -4.796,27.597 -12,24 -18,24 -19.204,16.801 -16.796,6 -16.801,8.403 -22.801,1.199 -20.398,2.398 -22.801,0 L 612,652.801 582,643.199 555.602,628.801 538.801,615.602 519.602,598.801 505.199,582 492,556.801 l -14.398,-26.403 -4.801,-24 L 468,472.801 465.602,440.398 468,414 470.398,376.801 484.801,338.398 505.199,295.199 543.602,246 602.398,188.398 687.602,120 872.398,15.6016" inkscape:connector-curvature="0" id="path30" style="stroke:#000000;stroke-width:8;stroke-miterlimit:4;stroke-dasharray:none;fill:none;stroke-opacity:1"/>
      <path d="m 1839.6,16.8008 -210,0 0,1432.7992 210,0 0,-1432.7992" inkscape:connector-curvature="0" id="path32" style="stroke:#000000;stroke-width:8;stroke-miterlimit:4;stroke-dasharray:none;fill:none;stroke-opacity:1"/>
      <path d="m 1468.8,445.199 160.8,165.602" inkscape:connector-curvature="0" id="path34" style="stroke:#000000;stroke-width:8;stroke-miterlimit:4;stroke-dasharray:none;fill:none;stroke-opacity:1"/>
      <path d="M 1468.8,1020 1629.6,854.398" inkscape:connector-curvature="0" id="path36" style="stroke:#000000;stroke-width:8;stroke-miterlimit:4;stroke-dasharray:none;fill:none;stroke-opacity:1"/>
      <path d="m 1629.6,604.801 -36,6 -28.8,13.199 -27.6,22.801 -13.2,15.597 -15.6,25.204 -3.6,36 0,25.199 3.6,25.199 12,22.801 19.2,22.801 22.8,15.597 22.8,9.602 44.4,6" inkscape:connector-curvature="0" id="path38" style="stroke:#000000;stroke-width:8;stroke-miterlimit:4;stroke-dasharray:none;fill:none;stroke-opacity:1"/>
    </g>
  </g>
</svg>
