<?xml version="1.0" encoding="UTF-8"?>
<!-- Created with Inkscape (http://www.inkscape.org/) -->
<svg xmlns:dc="http://purl.org/dc/elements/1.1/" xmlns:cc="http://creativecommons.org/ns#" xmlns:rdf="http://www.w3.org/1999/02/22-rdf-syntax-ns#" xmlns:svg="http://www.w3.org/2000/svg" xmlns="http://www.w3.org/2000/svg" xmlns:inkscape="http://www.inkscape.org/namespaces/inkscape" version="1.1" width="765" height="990" id="svg2" xml:space="preserve">
  <metadata id="metadata8">
    <rdf:RDF>
      <cc:Work rdf:about="">
        <dc:format>image/svg+xml</dc:format>
        <dc:type rdf:resource="http://purl.org/dc/dcmitype/StillImage"/>
      </cc:Work>
    </rdf:RDF>
  </metadata>
  <defs id="defs6"/>
  <g transform="matrix(1.25,0,0,-1.25,0,990)" id="g10">
    <g transform="scale(0.1,0.1)" id="g12">
      <path d="M 342,938.398 14.3984,940.801 18,1294.8 l 324,0 0,-353.999" inkscape:connector-curvature="0" id="path14" style="stroke:#000000;stroke-width:8;stroke-miterlimit:4;stroke-dasharray:none;fill:none;stroke-opacity:1"/>
      <path d="m 342,1030.8 127.199,-8.4 98.403,-12 110.398,-28.798 124.801,-61.204 96,-72 72,-69.597 L 1026,714 1116,601.199 1171.2,552 l 57.6,-34.801 49.2,-6 61.2,6 55.2,26.403 34.8,31.199 16.8,52.801 6,51.597 -6,61.199 -28.8,69.602 -67.2,79.199 -39.6,37.199 -55.2,43.204 -78,40.798 -105.6,52.8 -88.799,28.8 -102,31.2 -141.602,30 -148.801,22.8 -121.199,12 -124.801,0" inkscape:connector-curvature="0" id="path16" style="stroke:#000000;stroke-width:8;stroke-miterlimit:4;stroke-dasharray:none;fill:none;stroke-opacity:1"/>
      <path d="m 452.398,674.398 -34.796,-16.796 -26.403,-32.403 -8.398,-26.398 -6,-26.403 8.398,-40.796 21.602,-25.204 19.199,-18 34.801,-10.796 26.398,-9.602 32.403,0 33.597,14.398 30,14.403 16.801,20.398 20.398,28.801 14.403,36 8.398,28.801 3.602,28.801 -3.602,20.398 -6,34.801 -13.199,28.801 -24,28.796 -22.801,20.403 -20.398,9.597 -20.403,7.204 -28.796,3.597 -22.801,3.602 -28.801,0 -34.801,-3.602 -38.398,-10.801 -32.403,-18 -19.199,-16.796 -24,-21.602 -16.801,-19.199 -18,-32.403 -16.796,-31.199 -6,-30 -6,-40.801 -2.403,-40.796 2.403,-31.204 L 246,453.602 264,406.801 290.398,355.199 336,294 l 73.199,-69.602 103.199,-84 226.801,-127.1988" inkscape:connector-curvature="0" id="path18" style="stroke:#000000;stroke-width:8;stroke-miterlimit:4;stroke-dasharray:none;fill:none;stroke-opacity:1"/>
    </g>
  </g>
</svg>
