<?xml version="1.0" encoding="UTF-8"?>
<!-- Created with Inkscape (http://www.inkscape.org/) -->
<svg xmlns:dc="http://purl.org/dc/elements/1.1/" xmlns:cc="http://creativecommons.org/ns#" xmlns:rdf="http://www.w3.org/1999/02/22-rdf-syntax-ns#" xmlns:svg="http://www.w3.org/2000/svg" xmlns="http://www.w3.org/2000/svg" xmlns:inkscape="http://www.inkscape.org/namespaces/inkscape" version="1.1" width="765" height="990" id="svg2" xml:space="preserve">
  <metadata id="metadata8">
    <rdf:RDF>
      <cc:Work rdf:about="">
        <dc:format>image/svg+xml</dc:format>
        <dc:type rdf:resource="http://purl.org/dc/dcmitype/StillImage"/>
      </cc:Work>
    </rdf:RDF>
  </metadata>
  <defs id="defs6"/>
  <g transform="matrix(1.25,0,0,-1.25,0,990)" id="g10">
    <g transform="scale(0.1,0.1)" id="g12">
      <path d="m 606,547.199 -84,3.602 -67.199,-28.801 -31.199,-16.801 -32.403,-40.801 -12,-44.398 0,-44.398 15.602,-36 44.398,-38.403 57.602,-25.199 51.597,-19.199" inkscape:connector-curvature="0" id="path14" style="stroke:#000000;stroke-width:8;stroke-miterlimit:4;stroke-dasharray:none;fill:none;stroke-opacity:1"/>
      <path d="m 585.602,256.801 103.199,0 42,9.597" inkscape:connector-curvature="0" id="path16" style="stroke:#000000;stroke-width:8;stroke-miterlimit:4;stroke-dasharray:none;fill:none;stroke-opacity:1"/>
      <path d="m 768,276 55.199,38.398 79.199,-61.199 90,-54 63.602,-22.801" inkscape:connector-curvature="0" id="path18" style="stroke:#000000;stroke-width:8;stroke-miterlimit:4;stroke-dasharray:none;fill:none;stroke-opacity:1"/>
      <path d="M 1098,170.398 1308,138 l 45.6,-21.602 19.2,-41.9996 9.6,-57.5976 L 1398,36 l 6,38.3984 0,41.9996 -15.6,54 -28.8,54 -38.4,55.204 -48,54 -92.4,73.199 -70.8,42 -63.6,25.199 -54.002,15.602 -54,9.597 -76.796,-9.597 -25.204,-34.801 -7.199,-54" inkscape:connector-curvature="0" id="path20" style="stroke:#000000;stroke-width:8;stroke-miterlimit:4;stroke-dasharray:none;fill:none;stroke-opacity:1"/>
      <path d="m 829.199,435.602 -15.597,28.796 -28.801,38.403 -48,25.199 -86.403,16.801" inkscape:connector-curvature="0" id="path22" style="stroke:#000000;stroke-width:8;stroke-miterlimit:4;stroke-dasharray:none;fill:none;stroke-opacity:1"/>
      <path d="m 570,487.199 195.602,297.602 124.796,150 146.402,153.599 188.4,136.8 67.2,28.8 55.2,7.2 79.2,2.4 80.4,-13.2 -339.6,-501.599 -184.799,-194.403 -98.403,34.801 -70.796,6 -70.801,-6 L 675.602,564 592.801,493.199" inkscape:connector-curvature="0" id="path24" style="stroke:#000000;stroke-width:8;stroke-miterlimit:4;stroke-dasharray:none;fill:none;stroke-opacity:1"/>
      <path d="m 513.602,544.801 -10.801,117.597 3.597,186 38.403,226.802 28.801,90 44.398,88.8 44.398,70.8 45.602,50.4 38.398,28.8 38.403,26.4 76.801,25.2 -16.801,-565.202" inkscape:connector-curvature="0" id="path26" style="stroke:#000000;stroke-width:8;stroke-miterlimit:4;stroke-dasharray:none;fill:none;stroke-opacity:1"/>
      <path d="M 385.199,458.398 320.398,535.199 283.199,624 266.398,775.199 225.602,890.398 206.398,960 l 0,99.6 -19.199,-22.8 L 174,963.602 196.801,848.398 222,758.398 250.801,564 228,624 151.199,714 74.3984,835.199 33.6016,988.801 24,985.199 14.3984,915.602 24,854.398 46.8008,793.199 129.602,681.602 202.801,595.199 228,538.801 l -6,-74.403 6,-88.796 28.801,-70.801 74.398,-86.403 12,32.403 -6,28.801" inkscape:connector-curvature="0" id="path28" style="stroke:#000000;stroke-width:8;stroke-miterlimit:4;stroke-dasharray:none;fill:none;stroke-opacity:1"/>
      <path d="m 346.801,228 19.199,28.801 15.602,48 7.199,51.597" inkscape:connector-curvature="0" id="path30" style="stroke:#000000;stroke-width:8;stroke-miterlimit:4;stroke-dasharray:none;fill:none;stroke-opacity:1"/>
      <path d="m 295.199,339.602 9.602,6 0,30 -6,15.597 -15.602,6 -13.199,-9.597 0,-22.801 13.199,-19.199 15.602,-2.403" inkscape:connector-curvature="0" id="path32" style="stroke:#000000;stroke-width:8;stroke-miterlimit:4;stroke-dasharray:none;fill:none;stroke-opacity:1"/>
      <path d="m 445.199,295.199 36,-99.597 -3.597,-28.801 L 426,68.3984 400.801,51.6016 l -60,-2.4024 -9.602,-9.5976 -10.801,6 -12,-15.6016 6,-9.6016 6,6 16.801,3.6016 3.602,-13.1992 96,0" inkscape:connector-curvature="0" id="path34" style="stroke:#000000;stroke-width:8;stroke-miterlimit:4;stroke-dasharray:none;fill:none;stroke-opacity:1"/>
      <path d="m 490.801,272.398 22.801,-82.796 -7.204,-25.204 -54,-118.7964" inkscape:connector-curvature="0" id="path36" style="stroke:#000000;stroke-width:8;stroke-miterlimit:4;stroke-dasharray:none;fill:none;stroke-opacity:1"/>
      <path d="M 538.801,333.602 535.199,310.801 570,222 l 3.602,-28.801 -6,-28.801 L 529.199,64.8008 516,51.6016 l -61.199,-2.4024 -9.602,-9.5976 -6,-22.8008 9.602,0 13.199,16.8008 3.602,-16.8008 73.199,3.5976 63.597,159.6016 0,25.199 L 564,310.801" inkscape:connector-curvature="0" id="path38" style="stroke:#000000;stroke-width:8;stroke-miterlimit:4;stroke-dasharray:none;fill:none;stroke-opacity:1"/>
      <path d="m 646.801,253.199 22.801,-50.398 3.597,-26.403 -26.398,-117.5972 -13.199,-9.6016 -54,0 L 577.199,36 564,45.6016 550.801,26.3984 558,16.8008 573.602,30 l 3.597,-13.1992 60,3.5976" inkscape:connector-curvature="0" id="path40" style="stroke:#000000;stroke-width:8;stroke-miterlimit:4;stroke-dasharray:none;fill:none;stroke-opacity:1"/>
      <path d="M 675.602,259.199 702,199.199 702,174 675.602,45.6016" inkscape:connector-curvature="0" id="path42" style="stroke:#000000;stroke-width:8;stroke-miterlimit:4;stroke-dasharray:none;fill:none;stroke-opacity:1"/>
      <path d="M 704.398,349.199 702,324 l 54,-90 3.602,-31.199 -16.801,-138.0002 -12,-19.1992 -55.199,0 -6,-9.6016 -13.204,3.6016 -12,-13.2032 2.403,-9.5976 L 662.398,30 669.602,16.8008 756,20.3984 771.602,36 l 19.199,178.801 -9.602,36 L 730.801,330" inkscape:connector-curvature="0" id="path44" style="stroke:#000000;stroke-width:8;stroke-miterlimit:4;stroke-dasharray:none;fill:none;stroke-opacity:1"/>
      <path d="m 807.602,381.602 82.796,12 102,-2.403 19.202,-9.597 13.2,-19.204 76.8,-198 27.6,-26.398 115.2,-92.3984 19.2,-6 13.2,-22.8008 -32.4,16.8008 -25.2,-10.8008 -115.2,87.5972 -34.8,43.204 -28.8,64.796 -55.201,121.204 -15.597,9.597 L 877.199,336 796.801,330" inkscape:connector-curvature="0" id="path46" style="stroke:#000000;stroke-width:8;stroke-miterlimit:4;stroke-dasharray:none;fill:none;stroke-opacity:1"/>
      <path d="m 2524.8,117.602 -42,3.597 -44.4,9.602 -34.8,19.199 -28.8,18 -51.6,55.199 -48,54 -44.4,61.199 -22.8,48 -15.6,38.403 -22.8,70.801 -6,82.796 6,38.403 22.8,44.398 38.4,48 -61.2,19.199 -44.4,34.801 -73.2,99.602 50.4,-150 36,-124.801 6,-63.602 9.6,-51.597 15.6,-51.602 16.8,-44.398 25.2,-42 25.2,-44.403 32.4,-34.796 34.8,-38.403 28.8,-32.398 22.8,-22.801 15.6,-12 -67.2,21.602 -69.6,25.199 -64.8,32.398 -67.2,67.199 -38.4,54 -28.8,48 -28.8,64.801 -25.2,73.199 -19.2,70.801 -9.6,66 -6,55.199 6,57.602 16.8,44.398 54,74.403 28.8,31.199 -74.4,32.398 -56.4,44.402 -64.8,88.8 38.4,-133.202 38.4,-132 -6,-88.796 2.4,-67.204 13.2,-67.199 9.6,-60 19.2,-55.199 19.2,-48 21.6,-48 33.6,-60 79.2,-99.602 -63.6,34.801 -61.2,38.403 -67.2,57.597 -67.2,63.602 -44.4,70.801 -22.8,67.199 -15.6,73.199 6,70.801 9.6,28.801 19.2,38.398 26.4,28.801 -61.2,32.398 -57.6,44.403 -73.2,96 48,-140.403 L 1752,702 l 8.4,-50.398 3.6,-38.403 15.6,-60 32.4,-78 25.2,-38.398 38.4,-40.801 32.4,-32.398 44.4,-38.403 44.4,-31.199 57.6,-36 63.6,-38.398 151.2,-60 124.8,-42 92.4,-15.602 38.4,-6 0,18" inkscape:connector-curvature="0" id="path48" style="stroke:#000000;stroke-width:8;stroke-miterlimit:4;stroke-dasharray:none;fill:none;stroke-opacity:1"/>
    </g>
  </g>
</svg>
