<?xml version="1.0" encoding="UTF-8"?>
<!-- Created with Inkscape (http://www.inkscape.org/) -->
<svg xmlns:dc="http://purl.org/dc/elements/1.1/" xmlns:cc="http://creativecommons.org/ns#" xmlns:rdf="http://www.w3.org/1999/02/22-rdf-syntax-ns#" xmlns:svg="http://www.w3.org/2000/svg" xmlns="http://www.w3.org/2000/svg" xmlns:inkscape="http://www.inkscape.org/namespaces/inkscape" version="1.1" width="765" height="990" id="svg2" xml:space="preserve">
  <metadata id="metadata8">
    <rdf:RDF>
      <cc:Work rdf:about="">
        <dc:format>image/svg+xml</dc:format>
        <dc:type rdf:resource="http://purl.org/dc/dcmitype/StillImage"/>
      </cc:Work>
    </rdf:RDF>
  </metadata>
  <defs id="defs6"/>
  <g transform="matrix(1.25,0,0,-1.25,0,990)" id="g10">
    <g transform="scale(0.1,0.1)" id="g12">
      <path d="m 2570.4,704.398 2.4,-240 -19.2,-363.597 128.4,-81.6018 -807.6,0 148.8,79.1992 L 1917.6,576 l 3.6,49.199 15.6,22.801 27.6,20.398 22.8,7.204 15.6,0 26.4,-7.204 22.8,-6 205.2,-261.597 3.6,92.398 13.2,90 13.2,49.199 6,45.602 6,43.199 0,30 -25.2,22.801 -20.4,20.398 -13.2,19.204 -3.6,19.199 7.2,24 16.8,30 28.8,32.398 33.6,43.199 30,56.402 28.8,42 7.2,39.6 0,30 -7.2,32.4 -15.6,24 -79.2,9.6 -20.4,39.6 -9.6,32.4 -13.2,20.4 16.8,22.8 19.2,26.4 13.2,30 3.6,13.2 168,-7.2 26.4,-13.2 3.6,-16.8 -9.6,-21.6 -13.2,-10.8 -13.2,-16.8 -7.2,-19.2 -20.4,-563.998 214.8,0 -22.8,635.998 -20.4,56.4 -32.4,45.6 -22.8,30 -26.4,10.8 -43.2,9.6 -32.4,3.6 -27.6,-7.2 -22.8,-6 -26.4,-7.2 -22.8,-16.8 -20.4,-19.2 -15.6,-33.6 -13.2,-28.8" inkscape:connector-curvature="0" id="path14" style="stroke:#000000;stroke-width:8;stroke-miterlimit:4;stroke-dasharray:none;fill:none;stroke-opacity:1"/>
      <path d="m 2319.6,1311.6 56.4,-3.6 -16.8,14.4 -19.2,2.4 -16.8,-16.8" inkscape:connector-curvature="0" id="path16" style="stroke:#000000;stroke-width:8;stroke-miterlimit:4;stroke-dasharray:none;fill:none;stroke-opacity:1"/>
      <path d="m 16.8008,19.1992 0,154.8008 279.5972,0 0,811.199 316.801,0 0,518.401 168,0 0,-1484.4008 -764.3982,0" inkscape:connector-curvature="0" id="path18" style="stroke:#000000;stroke-width:8;stroke-miterlimit:4;stroke-dasharray:none;fill:none;stroke-opacity:1"/>
      <path d="m 1723.2,1126.8 -777.598,0 9.597,66 10.801,43.2 15.602,43.2 22.798,32.4 20.4,30 26.4,36 30,26.4 36,26.4 28.8,19.2 43.2,20.4 43.2,13.2 30,7.2 51.6,6 40.8,0 36,-6 39.6,-7.2 43.2,-9.6 28.8,-10.8 39.6,-26.4 33.6,-22.8 28.8,-22.8 26.4,-33.6 27.6,-36 22.8,-36 15.6,-33.6 13.2,-49.2 10.8,-36 2.4,-39.6" inkscape:connector-curvature="0" id="path20" style="stroke:#000000;stroke-width:8;stroke-miterlimit:4;stroke-dasharray:none;fill:none;stroke-opacity:1"/>
      <path d="m 1078.8,650.398 -16.8,-19.199 -9.6,-27.597 -7.2,-25.204 0,-63.597 3.6,-36 6,-39.602 7.2,-30 9.6,-36 16.8,-45.597 16.8,-46.801 42,-72 26.4,-33.602 33.6,-43.199 39.6,-32.3984 36,-26.4024 32.4,-22.8008 33.6,-13.1992 33.6,-10.8008 32.4,-6 30,-7.1992 58.8,0 L 1530,24 l 26.4,9.6016 26.4,13.1992 26.4,13.1992 22.8,20.3984 16.8,19.2032 16.8,19.1994 9.6,26.398 16.8,30 2.4,22.801 7.2,33.602 -3.6,30 -3.6,32.398 -9.6,30 -13.2,32.398 -16.8,33.602 -22.8,36 -26.4,33.602 -26.4,30 -28.8,28.796 -30,26.403 -37.2,22.801 -36,27.597 -49.2,25.199 -36,20.403 -43.2,13.199 -45.6,13.199 -39.6,9.602 -36,3.597 -26.4,0 -30,-3.597 -16.8,-3.602 -19.2,-2.398 -26.4,-20.403" inkscape:connector-curvature="0" id="path22" style="stroke:#000000;stroke-width:8;stroke-miterlimit:4;stroke-dasharray:none;fill:none;stroke-opacity:1"/>
    </g>
  </g>
</svg>
