<?xml version="1.0" encoding="UTF-8"?>
<!-- Created with Inkscape (http://www.inkscape.org/) -->
<svg xmlns:dc="http://purl.org/dc/elements/1.1/" xmlns:cc="http://creativecommons.org/ns#" xmlns:rdf="http://www.w3.org/1999/02/22-rdf-syntax-ns#" xmlns:svg="http://www.w3.org/2000/svg" xmlns="http://www.w3.org/2000/svg" xmlns:inkscape="http://www.inkscape.org/namespaces/inkscape" version="1.1" width="765" height="990" id="svg2" xml:space="preserve">
  <metadata id="metadata8">
    <rdf:RDF>
      <cc:Work rdf:about="">
        <dc:format>image/svg+xml</dc:format>
        <dc:type rdf:resource="http://purl.org/dc/dcmitype/StillImage"/>
      </cc:Work>
    </rdf:RDF>
  </metadata>
  <defs id="defs6"/>
  <g transform="matrix(1.25,0,0,-1.25,0,990)" id="g10">
    <g transform="scale(0.1,0.1)" id="g12">
      <path d="m 309.602,464.398 -30,3.602 -48,-3.602 -34.801,4.801 L 186,464.398 177.602,453.602 180,434.398 194.398,391.199 219.602,348 304.801,246 349.199,205.199 411.602,146.398 546,15.6016 l 13.199,0 3.602,6 L 558,34.8008 500.398,165.602 492,190.801 448.801,296.398 408,364.801 376.801,408 354,440.398 l -19.199,30 -20.403,27.602 -25.199,27.602 -24,16.796 -7.199,28.801 -6,31.199 -7.199,21.602 -24,4.801 -38.403,0 -42,-1.199 -20.398,-6 -9.602,-2.403 L 40.8008,609.602 20.3984,600 13.1992,590.398 12,571.199 l 8.3984,13.199 13.2032,7.204 40.7968,0 43.2036,-1.204 21.597,-6 -18,22.801 -3.597,14.403" inkscape:connector-curvature="0" id="path14" style="stroke:#000000;stroke-width:8;stroke-miterlimit:4;stroke-dasharray:none;fill:none;stroke-opacity:1"/>
      <path d="m 162,592.801 4.801,2.398 2.398,6 -2.398,7.199 -6,3.602 -6,-3.602 -1.199,-8.398 2.398,-3.602 4.801,-3.597" inkscape:connector-curvature="0" id="path16" style="stroke:#000000;stroke-width:8;stroke-miterlimit:4;stroke-dasharray:none;fill:none;stroke-opacity:1"/>
      <path d="m 19.1992,579.602 54,1.199 43.1988,-4.801 12,-7.199 3.602,-14.403 1.199,-14.398 -12,-30 -4.801,-37.199 6,-45.602 6,-20.398 L 144,366 l 16.801,-32.398 42,-73.204 56.398,-106.796 6,-40.801 L 258,42 250.801,36 211.199,32.3984 165.602,33.6016 162,26.3984 141.602,24 l -2.403,-4.8008 4.801,-6 116.398,4.8008 122.403,-6 4.801,6 -2.403,7.1992 -19.199,0 -10.801,9.6016 L 285.602,36 277.199,40.8008 285.602,127.199 336,102 364.801,187.199 420,49.1992 l 18,-24 20.398,-12 27.602,0 16.801,6 4.801,8.4024 -14.403,37.1992" inkscape:connector-curvature="0" id="path18" style="stroke:#000000;stroke-width:8;stroke-miterlimit:4;stroke-dasharray:none;fill:none;stroke-opacity:1"/>
      <path d="m 153.602,343.199 18,-100.801 -1.204,-76.796 L 156,87.6016 145.199,48 136.801,38.3984 70.8008,34.8008 63.6016,25.1992 48,24 43.1992,19.1992 48,13.1992 99.6016,18 114,16.8008" inkscape:connector-curvature="0" id="path20" style="stroke:#000000;stroke-width:8;stroke-miterlimit:4;stroke-dasharray:none;fill:none;stroke-opacity:1"/>
      <path d="m 163.199,33.6016 -22.801,-2.4024 0,0 L 126,27.6016 118.801,16.8008 123.602,13.1992 132,21.6016 140.398,24" inkscape:connector-curvature="0" id="path22" style="stroke:#000000;stroke-width:8;stroke-miterlimit:4;stroke-dasharray:none;fill:none;stroke-opacity:1"/>
      <path d="m 162,34.8008 31.199,111.5972 45.602,-27.597 9.597,50.398" inkscape:connector-curvature="0" id="path24" style="stroke:#000000;stroke-width:8;stroke-miterlimit:4;stroke-dasharray:none;fill:none;stroke-opacity:1"/>
      <path d="m 67.1992,33.6016 -22.8008,-2.4024 0,0 L 31.1992,27.6016 22.8008,16.8008 26.3984,13.1992 36,21.6016 46.8008,24" inkscape:connector-curvature="0" id="path26" style="stroke:#000000;stroke-width:8;stroke-miterlimit:4;stroke-dasharray:none;fill:none;stroke-opacity:1"/>
      <path d="M 357.602,34.8008 384,32.3984 l 12,-4.7968 8.398,-10.8008 -3.597,-3.6016 -9.602,8.4024 L 384,24" inkscape:connector-curvature="0" id="path28" style="stroke:#000000;stroke-width:8;stroke-miterlimit:4;stroke-dasharray:none;fill:none;stroke-opacity:1"/>
      <path d="m 638.398,477.602 598.802,0 0,151.199 -598.802,0 0,-151.199" inkscape:connector-curvature="0" id="path30" style="stroke:#000000;stroke-width:8;stroke-miterlimit:4;stroke-dasharray:none;fill:none;stroke-opacity:1"/>
      <path d="M 800.398,628.801 891.602,477.602" inkscape:connector-curvature="0" id="path32" style="stroke:#000000;stroke-width:8;stroke-miterlimit:4;stroke-dasharray:none;fill:none;stroke-opacity:1"/>
      <path d="M 895.199,628.801 984,477.602" inkscape:connector-curvature="0" id="path34" style="stroke:#000000;stroke-width:8;stroke-miterlimit:4;stroke-dasharray:none;fill:none;stroke-opacity:1"/>
      <path d="M 988.801,628.801 1078.8,477.602" inkscape:connector-curvature="0" id="path36" style="stroke:#000000;stroke-width:8;stroke-miterlimit:4;stroke-dasharray:none;fill:none;stroke-opacity:1"/>
      <path d="m 1072.8,152.398 6,-31.199 13.2,-21.5974 22.8,-20.4024 56.4,-25.1992 -96,-10.8008 -40.8,6 -18,0 -13.2,-8.3984 -6.001,-15.6016 3.601,-2.3984 9.6,6 -6,-8.4024 6,-1.1992 9.6,6 -3.6,-8.3984 6,1.1992 10.8,3.6016 16.8,-4.8008 12,2.3984 9.6,1.1992 12,2.4024 106.8,-7.1992 26.4,1.1992 13.2,6 4.8,9.5976 0,12 -19.2,28.8008 -9.6,24 -15.6,71.9998 -4.8,16.801 4.8,6 14.4,6 6,9.602 6,12 16.8,51.597 6,38.403 7.2,37.199 0,13.199 -1.2,13.199 -6,2.403 -6,1.199 -6,-8.403 -1.2,-55.199 -6,-12 -6,8.403 -12,60 -7.2,6 -9.6,-1.204 -1.2,-10.796 1.2,-12 16.8,-48 3.6,-26.403 -2.4,-26.398 -10.8,-28.801 -6,-8.398 -8.4,-6 -12,0 -15.6,3.597 -24,4.801 -20.4,-1.199 -57.6,-8.403 L 972,195.602 914.398,198 900,199.199 884.398,204 l -10.796,10.801 -25.204,28.801 -25.199,31.199 -8.398,12 -4.801,22.801 -3.602,13.199 -4.796,8.398" inkscape:connector-curvature="0" id="path38" style="stroke:#000000;stroke-width:8;stroke-miterlimit:4;stroke-dasharray:none;fill:none;stroke-opacity:1"/>
      <path d="m 787.199,320.398 10.801,10.801 8.398,7.199 21.602,7.204 32.398,7.199 27.602,14.398 26.398,20.403 6,8.398 1.204,3.602 L 904.801,402 876,402 844.801,391.199 822,375.602 l -19.199,-16.801 -9.602,-7.199 -13.199,-6 -4.801,-4.801 -6,-8.403" inkscape:connector-curvature="0" id="path40" style="stroke:#000000;stroke-width:8;stroke-miterlimit:4;stroke-dasharray:none;fill:none;stroke-opacity:1"/>
      <path d="m 777.602,330 16.796,10.801 16.801,13.199 15.602,12 18,15.602 L 876,402" inkscape:connector-curvature="0" id="path42" style="stroke:#000000;stroke-width:8;stroke-miterlimit:4;stroke-dasharray:none;fill:none;stroke-opacity:1"/>
      <path d="m 726,349.199 -25.199,25.199 -18,22.801 L 666,432 l -3.602,8.398 3.602,6 7.199,-1.199 27.602,-16.801 21.597,-16.796 16.801,-16.801 10.801,-19.199 10.801,-20.403" inkscape:connector-curvature="0" id="path44" style="stroke:#000000;stroke-width:8;stroke-miterlimit:4;stroke-dasharray:none;fill:none;stroke-opacity:1"/>
      <path d="M 789.602,349.199 781.199,354 768,357.602 747.602,360 l -18,-7.199 L 716.398,342 703.199,330 676.801,306 662.398,291.602 648,272.398 l -16.801,-10.796 -4.801,-6 -1.199,-7.204 0,-21.597 1.199,-2.403 14.403,0 21.597,10.801" inkscape:connector-curvature="0" id="path46" style="stroke:#000000;stroke-width:8;stroke-miterlimit:4;stroke-dasharray:none;fill:none;stroke-opacity:1"/>
      <path d="m 639.602,235.199 1.199,6 7.199,2.403" inkscape:connector-curvature="0" id="path48" style="stroke:#000000;stroke-width:8;stroke-miterlimit:4;stroke-dasharray:none;fill:none;stroke-opacity:1"/>
      <path d="m 810,176.398 -4.801,-18 -6,-14.398 -9.597,-15.602 L 752.398,67.1992 748.801,50.3984 751.199,36 l 14.403,-15.6016 18,-4.7968 127.199,7.1992 32.398,-6 12,0 12,4.8008 L 952.801,44.3984 932.398,48 916.801,54 908.398,52.8008 900,44.3984 l -97.199,13.2032 26.398,13.1992 25.199,9.5976 12,7.2032 16.801,14.3984 9.602,16.801" inkscape:connector-curvature="0" id="path50" style="stroke:#000000;stroke-width:8;stroke-miterlimit:4;stroke-dasharray:none;fill:none;stroke-opacity:1"/>
      <path d="m 945.602,37.1992 9.597,2.4024" inkscape:connector-curvature="0" id="path52" style="stroke:#000000;stroke-width:8;stroke-miterlimit:4;stroke-dasharray:none;fill:none;stroke-opacity:1"/>
      <path d="M 952.801,27.6016 962.398,30" inkscape:connector-curvature="0" id="path54" style="stroke:#000000;stroke-width:8;stroke-miterlimit:4;stroke-dasharray:none;fill:none;stroke-opacity:1"/>
      <path d="m 705.602,298.801 4.796,3.597 1.204,1.204 7.199,0 10.801,-2.403" inkscape:connector-curvature="0" id="path56" style="stroke:#000000;stroke-width:8;stroke-miterlimit:4;stroke-dasharray:none;fill:none;stroke-opacity:1"/>
      <path d="m 723.602,302.398 -1.204,-2.398 -6,-1.199 -3.597,0 -4.801,2.398" inkscape:connector-curvature="0" id="path58" style="stroke:#000000;stroke-width:8;stroke-miterlimit:4;stroke-dasharray:none;fill:none;stroke-opacity:1"/>
      <path d="m 636,224.398 -1.199,-2.398 10.801,-3.602 8.398,-3.597 8.398,1.199 12,8.398 13.204,3.602 27.597,3.602 21.602,-2.403 16.801,4.801 16.796,15.602" inkscape:connector-curvature="0" id="path60" style="stroke:#000000;stroke-width:8;stroke-miterlimit:4;stroke-dasharray:none;fill:none;stroke-opacity:1"/>
      <path d="m 752.398,232.801 2.403,-12 L 758.398,198 768,163.199 789.602,128.398" inkscape:connector-curvature="0" id="path62" style="stroke:#000000;stroke-width:8;stroke-miterlimit:4;stroke-dasharray:none;fill:none;stroke-opacity:1"/>
      <path d="m 864,85.1992 20.398,-8.3984 20.403,-3.6016 44.398,0 62.401,12 44.4,15.6018 31.2,7.199" inkscape:connector-curvature="0" id="path64" style="stroke:#000000;stroke-width:8;stroke-miterlimit:4;stroke-dasharray:none;fill:none;stroke-opacity:1"/>
    </g>
  </g>
</svg>
