<?xml version="1.0" encoding="UTF-8"?>
<!-- Created with Inkscape (http://www.inkscape.org/) -->
<svg xmlns:dc="http://purl.org/dc/elements/1.1/" xmlns:cc="http://creativecommons.org/ns#" xmlns:rdf="http://www.w3.org/1999/02/22-rdf-syntax-ns#" xmlns:svg="http://www.w3.org/2000/svg" xmlns="http://www.w3.org/2000/svg" xmlns:inkscape="http://www.inkscape.org/namespaces/inkscape" version="1.1" width="765" height="990" id="svg2" xml:space="preserve">
  <metadata id="metadata8">
    <rdf:RDF>
      <cc:Work rdf:about="">
        <dc:format>image/svg+xml</dc:format>
        <dc:type rdf:resource="http://purl.org/dc/dcmitype/StillImage"/>
      </cc:Work>
    </rdf:RDF>
  </metadata>
  <defs id="defs6"/>
  <g transform="matrix(1.25,0,0,-1.25,0,990)" id="g10">
    <g transform="scale(0.1,0.1)" id="g12">
      <path d="m 768,692.398 0,102 -44.398,1.204 -28.801,9.597 -30,12 -25.199,16.801 -19.204,18 -15.597,22.801 -9.602,22.801 -4.801,30 4.801,32.398 12,44.4 93.602,190.8 22.801,56.4 8.398,30 2.398,27.6 2.403,27.6 -10.801,31.2 -14.398,27.6 -19.204,21.6 -25.199,16.8 -19.199,8.4 -27.602,6 -32.398,7.2 -67.199,-4.8 -20.403,-2.4 -37.199,-12 -44.398,-30 -25.199,-21.6 -12,-9.6 -10.801,-7.2 39.597,-64.8 2.403,-61.2 -37.199,6 -124.801,0 -100.801,-6 -48,-10.8 -21.6016,-15.6" inkscape:connector-curvature="0" id="path14" style="stroke:#000000;stroke-width:8;stroke-miterlimit:4;stroke-dasharray:none;fill:none;stroke-opacity:1"/>
      <path d="m 368.398,1366.8 -22.796,-9.6 -240,-52.8 L 72,1290 l -16.8008,-16.8 -16.8008,-30 0,-22.8 -3.5976,-19.2 3.5976,-13.2 8.4024,-3.6 4.8008,0 12,3.6 25.1992,46.8 30.0002,21.6 21.597,9.6 31.204,9.6 200.398,31.2 21.602,-2.4 16.796,-6" inkscape:connector-curvature="0" id="path16" style="stroke:#000000;stroke-width:8;stroke-miterlimit:4;stroke-dasharray:none;fill:none;stroke-opacity:1"/>
      <path d="m 645.602,1442.4 43.199,0 51.597,-13.2 45.602,-16.8 44.398,-25.2 43.204,-37.2 51.597,-70.8 36,-82.8 14.403,-94.8 -99.602,-2.4 -10.801,86.4 -12,57.6 -13.199,38.4 -14.398,33.6 -16.801,19.2 -25.199,26.4 -36,26.4 -34.801,10.8" inkscape:connector-curvature="0" id="path18" style="stroke:#000000;stroke-width:8;stroke-miterlimit:4;stroke-dasharray:none;fill:none;stroke-opacity:1"/>
      <path d="m 410.398,1243.2 80.403,-12 32.398,-7.2 30,0 14.403,-8.4 10.796,-16.8 2.403,-13.2 L 576,1167.6 542.398,1086 504,985.199 l -8.398,-60 10.796,-75.597 22.801,-55.204 14.403,-19.199 L 564,756 l 51.602,-33.602 74.398,-24 78,-6" inkscape:connector-curvature="0" id="path20" style="stroke:#000000;stroke-width:8;stroke-miterlimit:4;stroke-dasharray:none;fill:none;stroke-opacity:1"/>
      <path d="m 529.199,1384.8 -12,-1.2 L 504,1368 l 0,-16.8 13.199,-10.8 16.801,0 12,9.6 4.801,7.2 -2.403,15.6 -13.199,12" inkscape:connector-curvature="0" id="path22" style="stroke:#000000;stroke-width:8;stroke-miterlimit:4;stroke-dasharray:none;fill:none;stroke-opacity:1"/>
      <path d="m 1472.4,392.398 0,-365.9996 76.8,0 0,365.9996 -76.8,0" inkscape:connector-curvature="0" id="path24" style="stroke:#000000;stroke-width:8;stroke-miterlimit:4;stroke-dasharray:none;fill:none;stroke-opacity:1"/>
      <path d="m 1472.4,939.602 0,-369.602 76.8,0 0,369.602 -76.8,0" inkscape:connector-curvature="0" id="path26" style="stroke:#000000;stroke-width:8;stroke-miterlimit:4;stroke-dasharray:none;fill:none;stroke-opacity:1"/>
      <path d="m 1472.4,1466.4 0,-370.8 76.8,0 0,370.8 -76.8,0" inkscape:connector-curvature="0" id="path28" style="stroke:#000000;stroke-width:8;stroke-miterlimit:4;stroke-dasharray:none;fill:none;stroke-opacity:1"/>
      <path d="M 213.602,78 488.398,343.199" inkscape:connector-curvature="0" id="path30" style="stroke:#000000;stroke-width:8;stroke-miterlimit:4;stroke-dasharray:none;fill:none;stroke-opacity:1"/>
      <path d="m 114,116.398 338.398,324" inkscape:connector-curvature="0" id="path32" style="stroke:#000000;stroke-width:8;stroke-miterlimit:4;stroke-dasharray:none;fill:none;stroke-opacity:1"/>
      <path d="M 48,186 386.398,510" inkscape:connector-curvature="0" id="path34" style="stroke:#000000;stroke-width:8;stroke-miterlimit:4;stroke-dasharray:none;fill:none;stroke-opacity:1"/>
      <path d="m 14.3984,285.602 271.2036,258" inkscape:connector-curvature="0" id="path36" style="stroke:#000000;stroke-width:8;stroke-miterlimit:4;stroke-dasharray:none;fill:none;stroke-opacity:1"/>
      <path d="m 350.398,529.199 -22.796,6 -24,8.403 -25.204,4.796 -25.199,0 -27.597,-2.398 -22.801,-2.398 -25.199,-8.403 -24,-8.398 -22.801,-9.602 -21.602,-15.597 -16.8006,-14.403 -16.7968,-16.801 -12,-15.597 L 50.3984,435.602 36,408 l -6,-20.398 -7.1992,-22.801 -3.6016,-24 -4.8008,-27.602 0,-22.801 4.8008,-27.597 6,-24 6,-20.403 10.8008,-24 6,-13.199 8.3984,-9.597 21.6016,-24 21.6016,-20.403 18.0004,-15.597 24,-12.0004 25.199,-13.2032 25.199,-6 21.602,-7.1992 25.199,0 L 264,72 294,75.6016 314.398,80.3984 339.602,90 366,103.199 l 16.801,8.403 18,16.796 19.199,16.801 20.398,19.199 14.403,24 14.398,20.403 10.801,21.597 6,25.204 2.398,24 3.602,27.597 -1.199,22.801 -2.403,27.602 -7.199,24 L 474,402 463.199,429.602 447.602,451.199 433.199,468 416.398,489.602 394.801,504 l -21.602,14.398 -22.801,10.801" inkscape:connector-curvature="0" id="path38" style="stroke:#000000;stroke-width:8;stroke-miterlimit:4;stroke-dasharray:none;fill:none;stroke-opacity:1"/>
      <path d="m 856.801,498 -25.199,-12 -20.403,-22.801 -6,-19.199 -3.597,-19.199 6,-30 L 822,375.602 837.602,362.398 862.801,355.199 882,348 l 22.801,0 25.199,10.801 21.602,10.801 13.199,14.398 14.398,21.602 10.801,25.199 6,21.597 2.398,21.602 -2.398,14.398 -3.602,25.204 -10.796,21.597 -16.801,20.403 -18,15.597 -14.403,6 -14.398,6 -21.602,2.403 L 879.602,588 858,588 832.801,585.602 805.199,577.199 782.398,564 768,552 751.199,536.398 738,522 l -13.199,-24 -12,-22.801 -4.801,-21.597 -3.602,-28.801 -2.398,-30 2.398,-22.801 2.403,-33.602 12,-34.796 19.199,-38.403 33.602,-44.398 52.796,-50.403 76.801,-61.199 164.401,-93.5974" inkscape:connector-curvature="0" id="path40" style="stroke:#000000;stroke-width:8;stroke-miterlimit:4;stroke-dasharray:none;fill:none;stroke-opacity:1"/>
    </g>
  </g>
</svg>
