<?xml version="1.0" encoding="UTF-8"?>
<!-- Created with Inkscape (http://www.inkscape.org/) -->
<svg xmlns:dc="http://purl.org/dc/elements/1.1/" xmlns:cc="http://creativecommons.org/ns#" xmlns:rdf="http://www.w3.org/1999/02/22-rdf-syntax-ns#" xmlns:svg="http://www.w3.org/2000/svg" xmlns="http://www.w3.org/2000/svg" xmlns:inkscape="http://www.inkscape.org/namespaces/inkscape" version="1.1" width="765" height="990" id="svg2" xml:space="preserve">
  <metadata id="metadata8">
    <rdf:RDF>
      <cc:Work rdf:about="">
        <dc:format>image/svg+xml</dc:format>
        <dc:type rdf:resource="http://purl.org/dc/dcmitype/StillImage"/>
      </cc:Work>
    </rdf:RDF>
  </metadata>
  <defs id="defs6"/>
  <g transform="matrix(1.25,0,0,-1.25,0,990)" id="g10">
    <g transform="scale(0.1,0.1)" id="g12">
      <path d="m 1778.4,542.398 714,-520.7964 142.8,112.7964 31.2,4.801 27.6,0 301.2,-106.8006 15.6,9.6016 9.6,15.6016 -2.4,22.7968 -1239.6,461.9996" inkscape:connector-curvature="0" id="path14" style="stroke:#000000;stroke-width:8;stroke-miterlimit:4;stroke-dasharray:none;fill:none;stroke-opacity:1"/>
      <path d="m 637.199,963.602 -62.398,6 -100.801,-6 -75.602,8.398 -22.796,-8.398 -16.801,-22.801 6,-40.801 28.801,-91.199 54,-88.801 178.796,-212.398 91.204,-86.403 133.199,-123.597 280.799,-276.0004 28.8,0 8.4,14.3984 -10.8,25.1992 -121.2,275.9998 -16.8,51.602 -92.398,220.801 -84,144 -64.801,92.398 -49.199,66 -40.801,63.602 -42,57.598 -52.801,60 -51.602,34.8 -14.398,60 -10.801,66 -18,43.2 -48,12 -80.398,0 -90,-3.6 -43.199,-10.8 -19.204,-6 L 72,1268.4 28.8008,1248 14.3984,1228.8 10.8008,1188 l 18,28.8 28.8008,14.4 86.3984,0 88.801,-2.4 45.597,-12 -37.199,45.6 -8.398,32.4" inkscape:connector-curvature="0" id="path16" style="stroke:#000000;stroke-width:8;stroke-miterlimit:4;stroke-dasharray:none;fill:none;stroke-opacity:1"/>
      <path d="m 327.602,1233.6 8.398,2.4 6,14.4 -6,15.6 -10.801,8.4 -12,-8.4 -2.398,-18 4.801,-8.4 9.597,-6" inkscape:connector-curvature="0" id="path18" style="stroke:#000000;stroke-width:8;stroke-miterlimit:4;stroke-dasharray:none;fill:none;stroke-opacity:1"/>
      <path d="m 25.1992,1204.8 115.1988,2.4 88.801,-10.8 26.403,-14.4 8.398,-28.8 2.398,-31.2 -25.199,-63.6 -12,-76.798 14.403,-96 12,-42 31.199,-86.403 38.398,-69.597 L 412.801,536.398 531.602,312 542.398,225.602 528,79.1992 513.602,64.8008 l -82.801,-9.6016 -98.403,3.6016 -4.796,-14.4024 -43.204,-6 -6,-8.3984 8.403,-12 247.199,8.3984 255.602,-10.7968 12,10.7968 -6,14.4024 -39.602,0 -24,20.3984 -146.398,3.6016 -16.801,10.8008 16.801,181.1994 106.796,-54 60,177.597 L 867.602,93.6016 908.398,40.8008 948,18 l 60,0 34.8,12 8.4,16.8008 -28.8,78.0002" inkscape:connector-curvature="0" id="path20" style="stroke:#000000;stroke-width:8;stroke-miterlimit:4;stroke-dasharray:none;fill:none;stroke-opacity:1"/>
      <path d="m 310.801,708 36,-210 L 344.398,337.199 315.602,174 289.199,90 272.398,69.6016 134.398,61.1992 120,40.8008 88.8008,38.3984 76.8008,30 88.8008,18 194.398,26.3984 226.801,24" inkscape:connector-curvature="0" id="path22" style="stroke:#000000;stroke-width:8;stroke-miterlimit:4;stroke-dasharray:none;fill:none;stroke-opacity:1"/>
      <path d="m 330,58.8008 -49.199,-6 0,0 -28.801,-6 L 235.199,24 246,18 l 18,18 16.801,2.3984" inkscape:connector-curvature="0" id="path24" style="stroke:#000000;stroke-width:8;stroke-miterlimit:4;stroke-dasharray:none;fill:none;stroke-opacity:1"/>
      <path d="M 327.602,61.1992 390,297.602 488.398,240 508.801,345.602" inkscape:connector-curvature="0" id="path26" style="stroke:#000000;stroke-width:8;stroke-miterlimit:4;stroke-dasharray:none;fill:none;stroke-opacity:1"/>
      <path d="m 126,58.8008 -45.6016,-6 0,0 -28.7968,-6 L 34.8008,24 l 8.3984,-6 19.1992,18 24,2.3984" inkscape:connector-curvature="0" id="path28" style="stroke:#000000;stroke-width:8;stroke-miterlimit:4;stroke-dasharray:none;fill:none;stroke-opacity:1"/>
      <path d="m 738,61.1992 55.199,-6 25.199,-8.3984 18,-22.8008 -9.597,-6 -19.199,18 -14.403,2.3984" inkscape:connector-curvature="0" id="path30" style="stroke:#000000;stroke-width:8;stroke-miterlimit:4;stroke-dasharray:none;fill:none;stroke-opacity:1"/>
      <path d="m 2275.2,1141.2 -238.8,78 -48,12 -51.6,4.8 -90,-8.4 -28.8,-14.4 -28.8,-22.8 -19.2,-39.6 0,-26.4 8.4,-33.6 16.8,-21.6 18,-16.8 45.6,-16.8 54,-8.4 66,4.8 55.2,14.4 241.2,92.4" inkscape:connector-curvature="0" id="path32" style="stroke:#000000;stroke-width:8;stroke-miterlimit:4;stroke-dasharray:none;fill:none;stroke-opacity:1"/>
      <path d="m 2209.2,1167.6 54,-2.4 78,16.8 106.8,20.4 111.6,8.4 127.2,0 103.2,-8.4 68.4,-12 72,-20.4 37.2,-16.8 9.6,-14.4 -14.4,-14.4 -55.2,-19.2 -57.6,-14.4 -86.4,-18 -76.8,-6 -123.6,0 -118.8,14.4 -82.8,16.8 -88.8,14.4 -67.2,-2.4" inkscape:connector-curvature="0" id="path34" style="stroke:#000000;stroke-width:8;stroke-miterlimit:4;stroke-dasharray:none;fill:none;stroke-opacity:1"/>
      <path d="m 2160,1178.4 2.4,18 -4.8,34.8 -22.8,16.8 -28.8,-2.4 -20.4,-14.4 -6,-24" inkscape:connector-curvature="0" id="path36" style="stroke:#000000;stroke-width:8;stroke-miterlimit:4;stroke-dasharray:none;fill:none;stroke-opacity:1"/>
      <path d="m 2024.4,1225.2 -2.4,28.8 -10.8,22.8 -32.4,6 -13.2,0 -14.4,-14.4 -12,-22.8 0,-9.6" inkscape:connector-curvature="0" id="path38" style="stroke:#000000;stroke-width:8;stroke-miterlimit:4;stroke-dasharray:none;fill:none;stroke-opacity:1"/>
      <path d="m 1884,1233.6 -10.8,28.8 -26.4,20.4 -28.8,-3.6 -16.8,-16.8 -2.4,-20.4 2.4,-14.4 8.4,-20.4" inkscape:connector-curvature="0" id="path40" style="stroke:#000000;stroke-width:8;stroke-miterlimit:4;stroke-dasharray:none;fill:none;stroke-opacity:1"/>
      <path d="m 1784.4,1178.4 -24,3.6 -22.8,-6 -8.4,-8.4 -12,-16.8 0,-26.4 12,-16.8 16.8,-9.6 28.8,-2.4" inkscape:connector-curvature="0" id="path42" style="stroke:#000000;stroke-width:8;stroke-miterlimit:4;stroke-dasharray:none;fill:none;stroke-opacity:1"/>
      <path d="m 1809.6,1058.4 -6,-22.8 -2.4,-18 12,-19.202 22.8,-9.597 25.2,0 20.4,17.999 8.4,22.8" inkscape:connector-curvature="0" id="path44" style="stroke:#000000;stroke-width:8;stroke-miterlimit:4;stroke-dasharray:none;fill:none;stroke-opacity:1"/>
      <path d="m 1945.2,1029.6 10.8,-31.202 20.4,-14.398 28.8,-2.398 22.8,16.796 8.4,19.202 -4.8,26.4" inkscape:connector-curvature="0" id="path46" style="stroke:#000000;stroke-width:8;stroke-miterlimit:4;stroke-dasharray:none;fill:none;stroke-opacity:1"/>
      <path d="m 2083.2,1066.8 8.4,-20.4 22.8,-22.8 26.4,-2.4 19.2,8.4 14.4,20.4 0,19.2 -8.4,26.4" inkscape:connector-curvature="0" id="path48" style="stroke:#000000;stroke-width:8;stroke-miterlimit:4;stroke-dasharray:none;fill:none;stroke-opacity:1"/>
      <path d="m 2194.8,1138.8 -146.4,39.6 -69.6,14.4 -66,3.6 -54,-6 -31.2,-16.8 -18,-20.4 0,-16.8 6,-31.2 12,-14.4 25.2,-14.4 45.6,-12 69.6,2.4 78,16.8 154.8,55.2" inkscape:connector-curvature="0" id="path50" style="stroke:#000000;stroke-width:8;stroke-miterlimit:4;stroke-dasharray:none;fill:none;stroke-opacity:1"/>
      <path d="m 1435.2,909.602 -304.8,0 -144.002,387.598 591.602,0 -142.8,-387.598" inkscape:connector-curvature="0" id="path52" style="stroke:#000000;stroke-width:8;stroke-miterlimit:4;stroke-dasharray:none;fill:none;stroke-opacity:1"/>
    </g>
  </g>
</svg>
