<?xml version="1.0" encoding="UTF-8"?>
<!-- Created with Inkscape (http://www.inkscape.org/) -->
<svg xmlns:dc="http://purl.org/dc/elements/1.1/" xmlns:cc="http://creativecommons.org/ns#" xmlns:rdf="http://www.w3.org/1999/02/22-rdf-syntax-ns#" xmlns:svg="http://www.w3.org/2000/svg" xmlns="http://www.w3.org/2000/svg" xmlns:inkscape="http://www.inkscape.org/namespaces/inkscape" version="1.1" width="765" height="990" id="svg2" xml:space="preserve">
  <metadata id="metadata8">
    <rdf:RDF>
      <cc:Work rdf:about="">
        <dc:format>image/svg+xml</dc:format>
        <dc:type rdf:resource="http://purl.org/dc/dcmitype/StillImage"/>
      </cc:Work>
    </rdf:RDF>
  </metadata>
  <defs id="defs6"/>
  <g transform="matrix(1.25,0,0,-1.25,0,990)" id="g10">
    <g transform="scale(0.1,0.1)" id="g12">
      <path d="m 1017.6,1014 21.6,36 27.6,27.6 38.4,9.6 33.6,-7.2 24,-20.4 12,-18 8.4,-41.998 0,-490.801 -1168.8016,0 0,490.801 12,41.998 9.6016,18 22.8008,20.4 33.5976,7.2 43.2036,-9.6 26.398,-27.6 18,-32.4" inkscape:connector-curvature="0" id="path14" style="stroke:#000000;stroke-width:8;stroke-miterlimit:4;stroke-dasharray:none;fill:none;stroke-opacity:1"/>
      <path d="m 630,1461.6 -48,0 -18,-2.4 -32.398,-6 -21.602,-3.6 -18,-6 -18,-6 -24,-6 -21.602,-9.6 -21.597,-8.4 -18,-9.6 -18,-12 -18,-12 -18,-12 -15.602,-15.6 -32.398,-30 -13.199,-15.6 -12,-12 -20.403,-30 -18,-30 -9.597,-18 -6,-21.6 -12,-42 -8.403,-18 -3.597,-27.6 -3.602,-18 0,-85.2 3.602,-20.4 12,-42 6,-27.602 6,-15.597 12,-27.602 6,-18 18,-18 6,-14.398 15.597,-18 12,-15.602 14.403,-21.597 31.199,-26.403 21.597,-15.597 20.403,-14.403 12,-9.597 18,-12 18,-8.403 27.597,-9.597 18,-9.602 24,-6 L 498,651.602 518.398,644.398 540,642 l 24,-2.398 45.602,0 L 630,642 l 7.199,-2.398 24,2.398 18,2.398 24,7.204 12,2.398 25.199,6 18,9.602 26.403,9.597 18,8.403 18,12 13.199,9.597 24,14.403 18,15.597 30,26.403 14.398,21.597 13.204,15.602 14.398,18 9.602,14.398 14.398,18 9.602,18 9.597,27.602 8.403,15.597 5.998,27.602 8.4,42 3.6,20.4 0,85.2 -3.6,18 -2.4,27.6 -6,18 -5.998,30 -15.602,33.6 -8.398,18 -12,21.6 -27.602,38.4 -8.398,12 -12,15.6 -37.204,30 -14.398,15.6 -15.602,12 -18,12 -21.597,12 -14.403,9.6 -25.199,8.4 -18,9.6 -26.398,6 -15.602,6 -21.597,6 -18,3.6 -18,6 -36,2.4 -21.602,0" inkscape:connector-curvature="0" id="path16" style="stroke:#000000;stroke-width:8;stroke-miterlimit:4;stroke-dasharray:none;fill:none;stroke-opacity:1"/>
      <path d="m 530.398,22.8008 -515.9996,0 6,43.1992 7.2032,28.8008 10.7968,28.8012 15.6016,21.597 13.1992,19.199 16.8008,24 19.199,18 25.199,16.801 19.204,13.199 28.796,13.204 28.801,9.597 19.199,3.602 34.801,4.801 26.403,0 24,-4.801 L 336,259.199 363.602,252 384,246 410.398,228 432,213.602 451.199,198 l 18,-22.801 16.801,-22.801 15.602,-25.199 10.796,-21.597 8.403,-32.4028 7.199,-24 2.398,-26.3984" inkscape:connector-curvature="0" id="path18" style="stroke:#000000;stroke-width:8;stroke-miterlimit:4;stroke-dasharray:none;fill:none;stroke-opacity:1"/>
      <path d="m 1183.2,416.398 -174,-394.7964 -87.598,0 175.198,394.7964 86.4,0" inkscape:connector-curvature="0" id="path20" style="stroke:#000000;stroke-width:8;stroke-miterlimit:4;stroke-dasharray:none;fill:none;stroke-opacity:1"/>
      <path d="M 919.199,416.398 744,21.6016 l -87.602,0 176.403,394.7964 86.398,0" inkscape:connector-curvature="0" id="path22" style="stroke:#000000;stroke-width:8;stroke-miterlimit:4;stroke-dasharray:none;fill:none;stroke-opacity:1"/>
      <path d="m 2197.2,21.6016 -914.4,0 220.8,87.5974 -130.8,430.801 -3.6,38.398 -3.6,36 3.6,31.204 9.6,19.199 13.2,16.801 19.2,8.398 15.6,4.801 31.2,0 10.8,-4.801 15.6,-8.398 25.2,-20.403 253.2,-312 25.2,495.602 9.6,73.199 13.2,51.602 9.6,31.198 31.2,28.8 28.8,19.2 16.8,9.6 25.2,6 22.8,0 21.6,-2.4 42,-21.6 21.6,-26.4 16.8,-28.801 19.2,-38.398 9.6,-48 6,-48 3.6,-32.403 0,-662.398 -6,-25.199 -16.8,-26.403 144,-88.7964" inkscape:connector-curvature="0" id="path24" style="stroke:#000000;stroke-width:8;stroke-miterlimit:4;stroke-dasharray:none;fill:none;stroke-opacity:1"/>
      <path d="m 1782,766.801 -84,0 7.2,134.398 9.6,68.403 19.2,50.398 22.8,51.6" inkscape:connector-curvature="0" id="path26" style="stroke:#000000;stroke-width:8;stroke-miterlimit:4;stroke-dasharray:none;fill:none;stroke-opacity:1"/>
      <path d="m 2091.6,764.398 80.4,0 6,348.002 -13.2,68.4 -25.2,66 -48,84 -54,54 -63.6,38.4 -68.4,19.2 -72,9.6" inkscape:connector-curvature="0" id="path28" style="stroke:#000000;stroke-width:8;stroke-miterlimit:4;stroke-dasharray:none;fill:none;stroke-opacity:1"/>
      <path d="m 1753.2,1398 19.2,-13.2 15.6,13.2 -19.2,15.6 -12,-15.6" inkscape:connector-curvature="0" id="path30" style="stroke:#000000;stroke-width:8;stroke-miterlimit:4;stroke-dasharray:none;fill:none;stroke-opacity:1"/>
      <path d="m 1753.2,1071.6 -13.2,19.2 -6,42 34.8,79.2 70.8,86.4 12,13.2 13.2,25.2 6,32.4 -2.4,28.8 -13.2,25.2 -26.4,28.8 -46.8,3.6 -48,-6 -36,-9.6 -28.8,-22.8 -38.4,-3.6 -48,-9.6 -50.4,-22.8 -44.4,-21.6 -64.8,-51.6 -31.2,-34.8 -19.2,-22.8 12,-9.6 51.6,45.6 61.2,44.4 44.4,21.6 48,10.8 48,0 42,-7.2 31.2,-9.6 22.8,-28.8 -3.6,-34.8 -38.4,-76.8 -32.4,-64.8 -19.2,-73.2 13.2,-44.4 28.8,-25.202 45.6,-7.199" inkscape:connector-curvature="0" id="path32" style="stroke:#000000;stroke-width:8;stroke-miterlimit:4;stroke-dasharray:none;fill:none;stroke-opacity:1"/>
      <path d="m 1371.6,672 0,364.8 -4.8,14.4 -7.2,4.8 -12,4.8 -4.8,4.8 -2.4,-14.4 -4.8,-19.2 -12,-19.2 -2.4,-19.198 -2.4,-26.403 -7.2,-9.597 -7.2,6 2.4,34.796 -7.2,38.402 2.4,21.6 9.6,24 16.8,24 9.6,21.6 7.2,25.2 -2.4,21.6 2.4,12 2.4,14.4 14.4,-14.4 4.8,-16.8 2.4,-12 2.4,-21.6 -12,-44.4 -14.4,-20.4 -2.4,-6" inkscape:connector-curvature="0" id="path34" style="stroke:#000000;stroke-width:8;stroke-miterlimit:4;stroke-dasharray:none;fill:none;stroke-opacity:1"/>
      <path d="m 1345.2,1071.6 4.8,-3.6 7.2,-2.4 9.6,-2.4 7.2,-9.6 7.2,-7.2 2.4,-12 0,-367.201" inkscape:connector-curvature="0" id="path36" style="stroke:#000000;stroke-width:8;stroke-miterlimit:4;stroke-dasharray:none;fill:none;stroke-opacity:1"/>
      <path d="m 1326,1063.2 -7.2,-21.6" inkscape:connector-curvature="0" id="path38" style="stroke:#000000;stroke-width:8;stroke-miterlimit:4;stroke-dasharray:none;fill:none;stroke-opacity:1"/>
    </g>
  </g>
</svg>
